<svg width="142" height="142" viewBox="0 0 142 142" fill="none" xmlns="http://www.w3.org/2000/svg">
<path d="M70.7544 141.755C109.831 141.755 141.509 110.077 141.509 71.0005C141.509 31.9239 109.831 0.246094 70.7544 0.246094C31.6778 0.246094 0 31.9239 0 71.0005C0 110.077 31.6778 141.755 70.7544 141.755Z" fill="#FFE344"/>
<path d="M70.9983 135.397C35.6265 135.397 6.84766 106.618 6.84766 71.2464C6.84766 35.8745 35.6265 7.0957 70.9983 7.0957C106.37 7.0957 135.149 35.8745 135.149 71.2464C135.149 106.618 106.37 135.397 70.9983 135.397ZM70.9983 9.5619C36.9846 9.5619 9.31385 37.2326 9.31385 71.2464C9.31385 105.26 36.9846 132.931 70.9983 132.931C105.012 132.931 132.683 105.26 132.683 71.2464C132.683 37.2326 105.012 9.5619 70.9983 9.5619Z" fill="white"/>
<path d="M32.6615 62.0772C33.2275 63.0583 34.2747 63.5489 35.803 63.5489C37.3313 63.5489 38.369 63.0583 38.9162 62.0772C39.4822 61.0772 39.7652 59.4168 39.7652 57.0961C39.7652 54.7565 39.4822 53.0584 38.9162 52.0018C38.3501 50.9452 37.3124 50.4169 35.803 50.4169C34.2935 50.4169 33.2558 50.9452 32.6898 52.0018C32.1237 53.0584 31.8407 54.7565 31.8407 57.0961C31.8407 59.4168 32.1143 61.0772 32.6615 62.0772ZM41.9728 64.5677C40.7841 66.1526 38.7275 66.9451 35.803 66.9451C32.8785 66.9451 30.8124 66.1526 29.6049 64.5677C28.4162 62.964 27.8219 60.464 27.8219 57.0678C27.8219 53.6716 28.4162 51.1527 29.6049 49.5112C30.8124 47.8508 32.8785 47.0207 35.803 47.0207C38.7275 47.0207 40.7841 47.8508 41.9728 49.5112C43.1803 51.1527 43.7841 53.6716 43.7841 57.0678C43.7841 60.464 43.1803 62.964 41.9728 64.5677ZM46.0013 66.6055V47.3603H52.5956L57.2371 63.2093H57.5202V47.3603H61.4258V66.6055H55.0013L50.19 50.7565H49.907V66.6055H46.0013ZM75.4453 66.6055H64.4926V47.3603H68.3982V63.1527H75.4453V66.6055ZM76.7098 66.6055V47.3603H80.6155V66.6055H76.7098ZM83.6758 66.6055V47.3603H90.2701L94.9116 63.2093H95.1946V47.3603H99.1003V66.6055H92.6758L87.8645 50.7565H87.5815V66.6055H83.6758ZM102.167 66.6055V47.3603H114.62V50.7565H106.073V55.2565H112.922V58.5961H106.073V63.2093H114.62V66.6055H102.167ZM31.8492 77.4169C29.7926 77.4169 28.7643 78.0961 28.7643 79.4546C28.7643 80.0584 29.0191 80.5206 29.5285 80.8414C30.0379 81.1621 31.2266 81.6244 33.0945 82.2282C34.9813 82.8319 36.302 83.5206 37.0568 84.2942C37.8115 85.0489 38.1888 86.2187 38.1888 87.8036C38.1888 89.8225 37.5756 91.3508 36.3492 92.3885C35.1228 93.4262 33.519 93.9451 31.5379 93.9451C30.0662 93.9451 28.2644 93.7187 26.1323 93.2658L25.1134 93.0677L25.5096 90.0394C28.0379 90.3791 29.9719 90.5489 31.3115 90.5489C33.3115 90.5489 34.3115 89.7187 34.3115 88.0583C34.3115 87.4546 34.0756 86.9829 33.6039 86.6432C33.1511 86.3036 32.236 85.9357 30.8587 85.5395C28.67 84.9168 27.1228 84.181 26.2172 83.3319C25.3304 82.464 24.887 81.2659 24.887 79.7376C24.887 77.8131 25.4719 76.3791 26.6417 75.4357C27.8115 74.4924 29.4153 74.0207 31.453 74.0207C32.8492 74.0207 34.6228 74.2093 36.7737 74.5867L37.7926 74.7848L37.4813 77.8697C34.8209 77.5678 32.9436 77.4169 31.8492 77.4169ZM47.2721 88.0017H44.1024V93.6055H40.1967V74.3603H47.2721C51.8382 74.3603 54.1212 76.5867 54.1212 81.0395C54.1212 83.2848 53.5363 85.0112 52.3665 86.2187C51.2155 87.4074 49.5174 88.0017 47.2721 88.0017ZM44.1024 84.6621H47.2438C49.1872 84.6621 50.1589 83.4546 50.1589 81.0395C50.1589 79.8508 49.9231 79.0018 49.4514 78.4923C48.9797 77.964 48.2438 77.6999 47.2438 77.6999H44.1024V84.6621ZM55.7306 93.6055V74.3603H68.1834V77.7565H59.6363V82.2565H66.4853V85.5961H59.6363V90.2093H68.1834V93.6055H55.7306ZM82.3294 93.2941C80.3294 93.7281 78.5275 93.9451 76.9238 93.9451C75.32 93.9451 74.037 93.747 73.0747 93.3508C72.1125 92.9545 71.3578 92.3225 70.8106 91.4545C70.2634 90.5866 69.8861 89.5678 69.6785 88.3979C69.471 87.2281 69.3672 85.7564 69.3672 83.9829C69.3672 80.2659 69.8861 77.681 70.9238 76.2282C71.9804 74.7565 73.9143 74.0207 76.7257 74.0207C78.3483 74.0207 80.2256 74.2754 82.3577 74.7848L82.2445 77.898C80.3766 77.615 78.82 77.4735 77.5747 77.4735C76.3483 77.4735 75.4709 77.6433 74.9426 77.9829C74.4143 78.3037 74.0181 78.9263 73.754 79.8508C73.5087 80.7753 73.386 82.3508 73.386 84.5772C73.386 86.8036 73.6408 88.3508 74.1502 89.2187C74.6785 90.0677 75.7162 90.4923 77.2634 90.4923C78.8294 90.4923 80.4898 90.3602 82.2445 90.0961L82.3294 93.2941ZM84.3662 93.6055V74.3603H88.2719V93.6055H84.3662ZM89.719 93.6055L94.0492 74.3603H101.464L105.794 93.6055H101.889L101.125 90.1244H94.3888L93.6247 93.6055H89.719ZM97.0775 77.5867L95.1247 86.7281H100.389L98.436 77.5867H97.0775ZM118.178 93.6055H107.225V74.3603H111.131V90.1527H118.178V93.6055Z" fill="#001CB0"/>
</svg>
