<svg width="160" height="600" viewBox="0 0 160 600" xmlns="http://www.w3.org/2000/svg">
  <style>
    #image01{
      animation: fadeOut 0.5s ease 2s forwards;
    }

    #image02{
      opacity:0;
      animation: fadeIn 0.5s ease 2.5s forwards;
    }

    #ellipseNow{
      animation:
        ellipseFadeOut 0.5s ease 2s forwards,
        ellipseFadeIn 0.5s ease 2.5s forwards;
    }

    @keyframes fadeOut{
      to{ opacity:0; }
    }

    @keyframes fadeIn{
      to{ opacity:1; }
    }

    @keyframes ellipseFadeOut{
      to{ opacity:0; }
    }

    @keyframes ellipseFadeIn{
      to{ opacity:1; }
    }
  </style>

  <defs>
    <mask id="mask1">
      <image href="160x600_f1_png.png" width="160" height="600"/>
    </mask>

    <mask id="mask2">
      <image href="160x600_f2_png.png" width="160" height="600"/>
    </mask>

    <radialGradient id="ellipse_radial_gradient_001" cx="0" cy="0" r="1" gradientUnits="userSpaceOnUse" gradientTransform="translate(82.787 230.174) rotate(90) scale(107.44 90.1836)">
<stop offset="0.365385" stop-color="#F55662" stop-opacity="0.4"/>
<stop offset="0.629808" stop-color="#F42736"/>
<stop offset="1" stop-color="#BA1723" stop-opacity="0"/>
</radialGradient>
    <radialGradient id="ellipse_radial_gradient_002" cx="0" cy="0" r="1" gradientUnits="userSpaceOnUse" gradientTransform="translate(82.8287 443.985) rotate(90) scale(107.44 90.1836)">
<stop offset="0.365385" stop-color="#F55662" stop-opacity="0.4"/>
<stop offset="0.629808" stop-color="#F42736"/>
<stop offset="1" stop-color="#BA1723" stop-opacity="0"/>
</radialGradient>

  </defs>
<g id="svgContainer">

<g id="ellipseNow">
<ellipse cx="82.787" cy="230.174" rx="90.1836" ry="107.44" transform="rotate(-6.67 82.787 230.174)" fill="url(#ellipse_radial_gradient_001)" fill-opacity="0.75"/>
<ellipse cx="82.8287" cy="443.985" rx="90.1836" ry="107.44" transform="rotate(6.67 82.8287 443.985)" fill="url(#ellipse_radial_gradient_002)" fill-opacity="0.75"/>
</g>

<path d="M69.81 330.12H72.47L74.978 337.264L77.467 330.12H80.032L76.441 340H73.401L69.81 330.12ZM79.7249 337.131H82.2519C82.4039 337.948 82.9359 338.442 84.0949 338.442C85.1589 338.442 85.7859 338.024 85.7859 337.264C85.7859 336.637 85.5009 336.257 84.4939 336.143L82.7649 335.934C80.7699 335.687 79.9339 334.68 79.9339 333.141C79.9339 331.222 81.5489 329.873 84.0189 329.873C86.6219 329.873 87.9329 331.374 88.0469 332.875H85.5959C85.4819 332.134 84.9689 331.678 83.9809 331.678C82.9929 331.678 82.3659 332.134 82.3659 332.818C82.3659 333.407 82.7269 333.768 83.8289 333.901L85.5389 334.11C87.4579 334.338 88.2369 335.269 88.2369 336.884C88.2369 338.974 86.4319 340.247 84.0759 340.247C81.3779 340.247 79.9149 338.917 79.7249 337.131Z" fill="white"/>

<g id="cs_text_01">
<path d="M138.79 124.08H141.73L144.502 131.976L147.253 124.08H150.088L146.119 135H142.759L138.79 124.08ZM149.959 131.829H152.752C152.92 132.732 153.508 133.278 154.789 133.278C155.965 133.278 156.658 132.816 156.658 131.976C156.658 131.283 156.343 130.863 155.23 130.737L153.319 130.506C151.114 130.233 150.19 129.12 150.19 127.419C150.19 125.298 151.975 123.807 154.705 123.807C157.582 123.807 159.031 125.466 159.157 127.125H156.448C156.322 126.306 155.755 125.802 154.663 125.802C153.571 125.802 152.878 126.306 152.878 127.062C152.878 127.713 153.277 128.112 154.495 128.259L156.385 128.49C158.506 128.742 159.367 129.771 159.367 131.556C159.367 133.866 157.372 135.273 154.768 135.273C151.786 135.273 150.169 133.803 149.959 131.829Z" fill="white"/>
</g>
<g id="image01">
  <image href="160x600_f1_png.jpg" width="160" height="600" mask="url(#mask1)"/>
</g>
<g id="image02">
<image href="160x600_f2_png.jpg" width="160" height="600" mask="url(#mask2)"/>
</g>
</g>
</svg>