<svg width="728" height="90" viewBox="0 0 728 90" fill="none" xmlns="http://www.w3.org/2000/svg">
<g clip-path="url(#clip0_6875_6227)">
<rect width="728" height="90" fill="url(#paint0_linear_6875_6227)"/>
<g clip-path="url(#clip1_6875_6227)">
<g clip-path="url(#clip2_6875_6227)">
<g filter="url(#filter0_d_6875_6227)">
<g clip-path="url(#clip3_6875_6227)">
<path d="M422.5 202C509.485 202 580 131.485 580 44.5C580 -42.4848 509.485 -113 422.5 -113C335.515 -113 265 -42.4848 265 44.5C265 131.485 335.515 202 422.5 202Z" fill="url(#paint1_linear_6875_6227)"/>
</g>
</g>
<rect x="-305" width="637" height="90" fill="#DC1928"/>
</g>
<path d="M392.82 41.64H395.34L397.716 48.408L400.074 41.64H402.504L399.102 51H396.222L392.82 41.64ZM402.393 48.282H404.787C404.931 49.056 405.435 49.524 406.533 49.524C407.541 49.524 408.135 49.128 408.135 48.408C408.135 47.814 407.865 47.454 406.911 47.346L405.273 47.148C403.383 46.914 402.591 45.96 402.591 44.502C402.591 42.684 404.121 41.406 406.461 41.406C408.927 41.406 410.169 42.828 410.277 44.25H407.955C407.847 43.548 407.361 43.116 406.425 43.116C405.489 43.116 404.895 43.548 404.895 44.196C404.895 44.754 405.237 45.096 406.281 45.222L407.901 45.42C409.719 45.636 410.457 46.518 410.457 48.048C410.457 50.028 408.747 51.234 406.515 51.234C403.959 51.234 402.573 49.974 402.393 48.282Z" fill="white"/>
</g>
</g>
<defs>
<filter id="filter0_d_6875_6227" x="263.425" y="-114.575" width="319.725" height="319.725" filterUnits="userSpaceOnUse" color-interpolation-filters="sRGB">
<feFlood flood-opacity="0" result="BackgroundImageFix"/>
<feColorMatrix in="SourceAlpha" type="matrix" values="0 0 0 0 0 0 0 0 0 0 0 0 0 0 0 0 0 0 127 0" result="hardAlpha"/>
<feOffset dx="0.7875" dy="0.7875"/>
<feGaussianBlur stdDeviation="1.18125"/>
<feComposite in2="hardAlpha" operator="out"/>
<feColorMatrix type="matrix" values="0 0 0 0 0.584314 0 0 0 0 0.141176 0 0 0 0 0.145098 0 0 0 0.6 0"/>
<feBlend mode="multiply" in2="BackgroundImageFix" result="effect1_dropShadow_6875_6227"/>
<feBlend mode="normal" in="SourceGraphic" in2="effect1_dropShadow_6875_6227" result="shape"/>
</filter>
<linearGradient id="paint0_linear_6875_6227" x1="364" y1="0" x2="364" y2="90" gradientUnits="userSpaceOnUse">
<stop stop-color="#952425"/>
<stop offset="0.75" stop-color="#DC1928"/>
</linearGradient>
<linearGradient id="paint1_linear_6875_6227" x1="580" y1="202" x2="310.36" y2="-64.805" gradientUnits="userSpaceOnUse">
<stop stop-color="#952425"/>
<stop offset="0.298778" stop-color="#CA1C27"/>
<stop offset="0.449738" stop-color="#DC1928"/>
</linearGradient>
<clipPath id="clip0_6875_6227">
<rect width="728" height="90" fill="white"/>
</clipPath>
<clipPath id="clip1_6875_6227">
<rect width="728" height="90" fill="white"/>
</clipPath>
<clipPath id="clip2_6875_6227">
<rect width="1456" height="90" fill="white" transform="translate(-85)"/>
</clipPath>
<clipPath id="clip3_6875_6227">
<rect x="265" y="-113" width="315" height="315" rx="157.5" fill="white"/>
</clipPath>
</defs>
</svg>
