<svg width="55" height="65" viewBox="0 0 55 65" fill="none" xmlns="http://www.w3.org/2000/svg">
<g clip-path="url(#clip0_16733_111503)">
<path d="M50.2269 12.3326L44.4426 8.1416L40.2524 13.927L46.0367 18.1179L50.2269 12.3326Z" fill="#FFD000"/>
<path d="M27.4178 62.2826C41.0607 62.2826 52.1205 51.2208 52.1205 37.5754C52.1205 23.93 41.0607 12.8682 27.4178 12.8682C13.7749 12.8682 2.71509 23.93 2.71509 37.5754C2.71509 51.2208 13.7749 62.2826 27.4178 62.2826Z" fill="white"/>
<path d="M28.7753 10.1883V5.29406H32.6073V0.709961H28.7753H26.0602H22.3671V5.29406H26.0602V10.1883C22.543 10.3611 19.2 11.2051 16.1502 12.586L13.5631 8.85827L12.5496 9.28412C8.27486 11.0817 4.68045 14.1012 2.15356 18.0172L1.609 18.8627L4.59868 22.3961C1.69539 26.7457 0 31.9654 0 37.5756C0 52.6965 12.2997 64.9984 27.4178 64.9984C42.5359 64.9984 54.8356 52.6965 54.8356 37.5756C54.8356 22.4547 43.264 10.898 28.7753 10.1883ZM27.4178 62.2844C13.7961 62.2844 2.71509 51.1998 2.71509 37.5756C2.71509 23.9514 13.7961 12.8684 27.4178 12.8684C41.0395 12.8684 52.1205 23.9514 52.1205 37.5756C52.1205 51.1998 41.038 62.2844 27.4178 62.2844Z" fill="#B2BECC"/>
<path d="M27.1585 19.3024C26.5585 19.3024 26.0725 18.8164 26.0725 18.2162V16.431C26.0725 15.8308 26.5585 15.3447 27.1585 15.3447C27.7586 15.3447 28.2446 15.8308 28.2446 16.431V18.2162C28.2446 18.8164 27.7586 19.3024 27.1585 19.3024Z" fill="#B2BECC"/>
<path d="M40.9207 24.7895C40.643 24.7895 40.3653 24.683 40.1524 24.4701C39.7282 24.0458 39.7282 23.3592 40.1524 22.9349L41.4143 21.6727C41.8401 21.2484 42.5266 21.2484 42.9508 21.6727C43.375 22.097 43.375 22.7852 42.9508 23.208L41.6889 24.4701C41.4776 24.6815 41.1983 24.7879 40.9207 24.7879V24.7895Z" fill="#B2BECC"/>
<path d="M48.5584 38.4024H46.7735C46.1734 38.4024 45.6875 37.9164 45.6875 37.3162C45.6875 36.716 46.1734 36.23 46.7735 36.23H48.5584C49.1585 36.23 49.6444 36.716 49.6444 37.3162C49.6444 37.9164 49.1585 38.4024 48.5584 38.4024Z" fill="#B2BECC"/>
<path d="M42.5497 53.4296C42.2721 53.4296 41.9944 53.3231 41.7815 53.1118L40.5196 51.8496C40.0954 51.4253 40.0954 50.7372 40.5196 50.3129C40.9438 49.8886 41.6319 49.8886 42.0561 50.3129L43.318 51.575C43.7422 51.9993 43.7422 52.6875 43.318 53.1118C43.1066 53.3231 42.8274 53.4296 42.5497 53.4296Z" fill="#B2BECC"/>
<path d="M27.6769 59.8063C27.0768 59.8063 26.5908 59.3203 26.5908 58.7201V56.9349C26.5908 56.3347 27.0768 55.8486 27.6769 55.8486C28.277 55.8486 28.7629 56.3347 28.7629 56.9349V58.7201C28.7629 59.3203 28.277 59.8063 27.6769 59.8063Z" fill="#B2BECC"/>
<path d="M12.653 53.7968C12.3753 53.7968 12.0976 53.6903 11.8863 53.479C11.4621 53.0546 11.4621 52.3665 11.8863 51.9422L13.1482 50.68C13.5724 50.2557 14.2605 50.2557 14.6831 50.68C15.1074 51.1044 15.1074 51.7925 14.6831 52.2168L13.4212 53.479C13.2099 53.6903 12.9307 53.7968 12.653 53.7968Z" fill="#B2BECC"/>
<path d="M8.06182 38.9225H6.27695C5.67686 38.9225 5.19092 38.4364 5.19092 37.8362C5.19092 37.236 5.67686 36.75 6.27695 36.75H8.06182C8.66191 36.75 9.14785 37.236 9.14785 37.8362C9.14785 38.4364 8.66191 38.9225 8.06182 38.9225Z" fill="#B2BECC"/>
<path d="M13.5477 25.1567C13.27 25.1567 12.9923 25.0502 12.781 24.8388L11.5191 23.5767C11.0949 23.1524 11.0949 22.4642 11.5191 22.0415C11.9433 21.6156 12.6314 21.6172 13.0541 22.0415L14.316 23.3036C14.7402 23.7279 14.7402 24.4161 14.316 24.8388C14.1046 25.0518 13.8254 25.1582 13.5477 25.1582V25.1567Z" fill="#B2BECC"/>
<path d="M22.4411 41.0766C23.2233 41.8188 24.1118 42.3681 25.1069 42.7276C26.1019 43.0886 27.0753 43.2676 28.0287 43.2676C28.2385 43.2676 28.4683 43.2476 28.7105 43.2059C28.9527 43.1627 29.1749 43.084 29.377 42.9683C29.579 42.8526 29.741 42.7029 29.8675 42.5239C29.9971 42.3434 30.0588 42.1058 30.0588 41.808C30.0588 41.2988 29.7564 40.9038 29.1548 40.6168C28.5501 40.3329 27.8266 40.0413 26.9796 39.7435C26.2376 39.4905 25.4771 39.2035 24.6934 38.8887C23.9113 38.5709 23.1924 38.1636 22.5368 37.6636C21.8811 37.1684 21.3412 36.5573 20.917 35.8399C20.4927 35.1193 20.2814 34.2414 20.2814 33.2045C20.2814 32.2957 20.431 31.4872 20.7257 30.7759C21.0234 30.0677 21.4307 29.4582 21.9506 28.9491C22.4674 28.443 23.0721 28.0295 23.7586 27.7116C24.4451 27.3938 25.1824 27.1608 25.9646 27.0142V24.2832H29.7102V26.9834C30.6635 27.1099 31.5783 27.3583 32.4561 27.7271C33.3339 28.0989 34.1422 28.6112 34.8843 29.2669L32.0273 33.0132C31.4765 32.5488 30.8409 32.1846 30.1236 31.9177C29.4032 31.6539 28.7259 31.5227 28.0904 31.5227C27.8374 31.5227 27.5659 31.5381 27.282 31.569C26.9951 31.5999 26.7313 31.6693 26.4891 31.7758C26.2438 31.8822 26.0402 32.0288 25.8689 32.2201C25.6977 32.4114 25.6159 32.6753 25.6159 33.0132C25.6159 33.2894 25.6992 33.5224 25.8689 33.7137C26.0402 33.9019 26.2716 34.0778 26.5662 34.2352C26.864 34.3957 27.2018 34.5423 27.5844 34.6796C27.9639 34.8184 28.3665 34.9511 28.7907 35.0777C29.5081 35.3106 30.2609 35.5807 31.043 35.8862C31.8252 36.1932 32.5456 36.5913 33.2028 37.0773C33.8569 37.5649 34.3968 38.1774 34.8195 38.9196C35.2437 39.6618 35.4551 40.5814 35.4551 41.6815C35.4551 42.5286 35.2977 43.2831 34.9799 43.9496C34.6621 44.6192 34.2441 45.1994 33.7242 45.6962C33.2074 46.1946 32.598 46.6127 31.9008 46.9522C31.2004 47.2901 30.4722 47.5339 29.7102 47.6805V50.8558H25.9646V47.8409C24.7582 47.7144 23.5827 47.4228 22.4411 46.9676C21.2996 46.5124 20.2814 45.8521 19.3928 44.9834L22.4411 41.0766Z" fill="#002855"/>
</g>
<defs>
<clipPath id="clip0_16733_111503">
<rect width="54.8356" height="64.29" fill="white" transform="translate(0 0.709961)"/>
</clipPath>
</defs>
</svg>
