<?xml version="1.0" encoding="utf-8"?>
<!-- Generator: Adobe Illustrator 27.7.0, SVG Export Plug-In . SVG Version: 6.00 Build 0)  -->
<svg version="1.1" id="Layer_1" xmlns="http://www.w3.org/2000/svg" xmlns:xlink="http://www.w3.org/1999/xlink" x="0px" y="0px"
	 viewBox="0 0 728 90" style="enable-background:new 0 0 728 90;" xml:space="preserve">
<style type="text/css">
	.st0{fill:#99A9BB;}
	.st1{fill:#FFFFFF;}
</style>
<path class="st0" d="M10.9,18v-8h2.7c0.6,0,1,0.1,1.4,0.3s0.6,0.4,0.8,0.7s0.3,0.6,0.3,1c0,0.3-0.1,0.6-0.2,0.9s-0.3,0.4-0.5,0.6
	c-0.2,0.1-0.4,0.2-0.6,0.3c0.2,0,0.3,0.1,0.5,0.2s0.4,0.2,0.6,0.3c0.2,0.1,0.3,0.3,0.4,0.6c0.1,0.2,0.2,0.5,0.2,0.9
	c0,0.6-0.1,1-0.4,1.3c-0.3,0.3-0.6,0.6-1.1,0.7c-0.4,0.1-1,0.2-1.5,0.2C13.5,18,10.9,18,10.9,18z M12,13.3h1.4c0.2,0,0.5,0,0.7-0.1
	s0.4-0.2,0.6-0.4c0.2-0.2,0.2-0.4,0.2-0.7s-0.1-0.6-0.2-0.7c-0.1-0.2-0.3-0.3-0.6-0.3C13.9,11,13.7,11,13.5,11H12V13.3z M12,17h1.4
	c0.2,0,0.4,0,0.6,0c0.2,0,0.4-0.1,0.6-0.2c0.2-0.1,0.3-0.2,0.5-0.4c0.1-0.2,0.2-0.4,0.2-0.7c0-0.4-0.1-0.7-0.3-0.9s-0.4-0.3-0.7-0.4
	c-0.3-0.1-0.6-0.1-0.8-0.1H12V17z M18.9,18h-1.1v-5c0-0.1,0-0.1,0-0.2c0-0.1,0-0.2,0-0.3h1v0.9c0.1-0.1,0.2-0.3,0.4-0.4
	c0.2-0.2,0.4-0.3,0.6-0.4c0.2-0.1,0.5-0.2,0.9-0.2c0.1,0,0.2,0,0.3,0c0.1,0,0.2,0,0.3,0.1l-0.2,1c-0.1-0.1-0.3-0.1-0.6-0.1
	c-0.3,0-0.6,0.1-0.8,0.2c-0.2,0.2-0.4,0.4-0.6,0.6c-0.1,0.3-0.2,0.5-0.2,0.9C18.9,15.1,18.9,18,18.9,18z M24.6,18.2
	c-0.6,0-1.1-0.1-1.5-0.4s-0.8-0.6-1.1-1.1c-0.2-0.5-0.4-1-0.4-1.5s0.1-1,0.4-1.5c0.3-0.4,0.6-0.8,1.1-1.1c0.4-0.3,1-0.4,1.5-0.4
	s1.1,0.1,1.5,0.4c0.4,0.3,0.8,0.6,1.1,1.1c0.3,0.4,0.4,0.9,0.4,1.5c0,0.5-0.1,1-0.4,1.5c-0.3,0.4-0.6,0.8-1.1,1.1
	C25.6,18,25.1,18.2,24.6,18.2z M24.6,17.2c0.4,0,0.7-0.1,1-0.3c0.3-0.2,0.5-0.5,0.6-0.8c0.2-0.3,0.2-0.6,0.2-1c0-0.3-0.1-0.7-0.2-1
	s-0.4-0.6-0.6-0.8c-0.3-0.2-0.6-0.3-1-0.3s-0.7,0.1-1,0.3s-0.5,0.4-0.6,0.8c-0.1,0.3-0.2,0.6-0.2,1c0,0.3,0.1,0.7,0.2,1
	c0.2,0.3,0.4,0.6,0.6,0.8C23.9,17.1,24.2,17.2,24.6,17.2z M28.7,15.8v-3.3h1.1v3.3c0,0.5,0.1,0.9,0.3,1.1c0.2,0.2,0.5,0.4,0.9,0.4
	s0.7-0.1,1-0.3c0.2-0.2,0.4-0.5,0.5-0.8c0.1-0.3,0.2-0.7,0.2-1v-2.6h1.1v5c0,0,0,0.1,0,0.2s0,0.2,0,0.3h-1v-0.8
	c-0.1,0.1-0.2,0.3-0.4,0.4S32,18,31.8,18.1s-0.5,0.2-0.9,0.2c-0.7,0-1.3-0.2-1.6-0.6C28.9,17.1,28.7,16.5,28.7,15.8z M35.5,19.9
	l0.5-0.8c0.2,0.1,0.4,0.2,0.7,0.3c0.3,0.1,0.6,0.1,1,0.1c0.5,0,0.9-0.1,1.2-0.4s0.4-0.7,0.4-1.2v-0.7c-0.1,0.1-0.2,0.2-0.3,0.3
	c-0.1,0.1-0.3,0.2-0.6,0.3C38.1,18,37.9,18,37.5,18c-0.5,0-1-0.1-1.4-0.4c-0.4-0.2-0.7-0.6-0.9-1s-0.3-0.9-0.3-1.4
	c0-0.6,0.1-1.1,0.4-1.5c0.3-0.5,0.6-0.8,1.1-1.1s1-0.4,1.6-0.4c0.4,0,0.9,0,1.3,0.1c0.4,0.1,0.7,0.2,1,0.3V18c0,0.8-0.2,1.4-0.7,1.9
	s-1.1,0.7-2,0.7c-0.6,0-1-0.1-1.4-0.2C36,20.2,35.7,20.1,35.5,19.9z M39.3,15.7v-2.3c-0.1,0-0.2-0.1-0.4-0.1s-0.4-0.1-0.8-0.1
	c-0.4,0-0.8,0.1-1.1,0.3s-0.5,0.4-0.7,0.7S36,14.9,36,15.3c0,0.3,0.1,0.6,0.2,0.9c0.1,0.3,0.3,0.5,0.5,0.7s0.5,0.3,0.9,0.3
	s0.7-0.1,0.9-0.2s0.4-0.3,0.5-0.5C39.2,16.2,39.3,16,39.3,15.7z M41.8,18v-8h1.1v3.3c0.1-0.1,0.2-0.3,0.4-0.4
	c0.2-0.2,0.4-0.3,0.6-0.4c0.2-0.1,0.5-0.2,0.9-0.2c0.7,0,1.3,0.2,1.6,0.6c0.4,0.4,0.5,1,0.5,1.7V18h-1.1v-3.3c0-0.5-0.1-0.9-0.3-1.1
	c-0.2-0.2-0.5-0.4-0.9-0.4s-0.7,0.1-1,0.3c-0.2,0.2-0.4,0.5-0.5,0.8S43,15,43,15.3V18H41.8z M48.8,16.2v-2.9h-1v-0.9h1v-1.8h1.1v1.8
	h1.6v0.9h-1.6V16c0,0.4,0.1,0.8,0.2,0.9c0.1,0.2,0.3,0.3,0.6,0.3c0.2,0,0.4,0,0.5-0.1s0.3-0.2,0.4-0.3l0.5,0.7
	c-0.2,0.2-0.5,0.4-0.7,0.5s-0.5,0.2-0.9,0.2c-0.6,0-1-0.2-1.3-0.5C49,17.3,48.8,16.8,48.8,16.2z M55.6,16.2v-2.9h-1v-0.9h1v-1.8h1.1
	v1.8h1.6v0.9h-1.6V16c0,0.4,0.1,0.8,0.2,0.9c0.1,0.2,0.3,0.3,0.6,0.3c0.2,0,0.4,0,0.5-0.1s0.3-0.2,0.4-0.3l0.5,0.7
	c-0.2,0.2-0.5,0.4-0.7,0.5s-0.5,0.2-0.9,0.2c-0.6,0-1-0.2-1.3-0.5C55.7,17.3,55.6,16.8,55.6,16.2z M62,18.2c-0.6,0-1.1-0.1-1.5-0.4
	s-0.8-0.6-1.1-1.1c-0.2-0.5-0.4-1-0.4-1.5s0.1-1,0.4-1.5c0.3-0.4,0.6-0.8,1.1-1.1c0.4-0.3,1-0.4,1.5-0.4s1.1,0.1,1.5,0.4
	c0.4,0.3,0.8,0.6,1.1,1.1c0.3,0.4,0.4,0.9,0.4,1.5c0,0.5-0.1,1-0.4,1.5c-0.3,0.4-0.6,0.8-1.1,1.1C63.1,18,62.6,18.2,62,18.2z
	 M62,17.2c0.4,0,0.7-0.1,1-0.3c0.3-0.2,0.5-0.5,0.6-0.8c0.2-0.3,0.2-0.6,0.2-1c0-0.3-0.1-0.7-0.2-1c-0.1-0.3-0.4-0.6-0.6-0.8
	c-0.3-0.2-0.6-0.3-1-0.3s-0.7,0.1-1,0.3s-0.5,0.4-0.6,0.8c-0.1,0.3-0.2,0.6-0.2,1c0,0.3,0.1,0.7,0.2,1c0.2,0.3,0.4,0.6,0.6,0.8
	C61.3,17.1,61.7,17.2,62,17.2z M67.9,20.1l0.5-0.8c0.1,0.1,0.2,0.1,0.3,0.2c0.1,0.1,0.2,0.1,0.4,0.1c0.3,0,0.4-0.1,0.6-0.3
	c0.1-0.2,0.3-0.6,0.5-1l0.1-0.4l-2.5-5.5H69l1.8,4.2l1.6-4.2h1.2l-2.2,5.4c-0.1,0.2-0.2,0.5-0.3,0.8c-0.1,0.3-0.2,0.6-0.4,0.9
	c-0.2,0.3-0.3,0.5-0.6,0.7c-0.2,0.2-0.5,0.3-0.9,0.3c-0.3,0-0.5,0-0.7-0.1C68.2,20.4,68.1,20.3,67.9,20.1z M76.8,18.2
	c-0.6,0-1.1-0.1-1.5-0.4s-0.8-0.6-1.1-1.1c-0.2-0.5-0.4-1-0.4-1.5s0.1-1,0.4-1.5c0.3-0.4,0.6-0.8,1.1-1.1c0.4-0.3,1-0.4,1.5-0.4
	c0.6,0,1.1,0.1,1.5,0.4c0.4,0.3,0.8,0.6,1.1,1.1c0.3,0.4,0.4,0.9,0.4,1.5c0,0.5-0.1,1-0.4,1.5c-0.3,0.4-0.6,0.8-1.1,1.1
	C77.9,18,77.4,18.2,76.8,18.2z M76.8,17.2c0.4,0,0.7-0.1,1-0.3c0.3-0.2,0.5-0.5,0.6-0.8c0.2-0.3,0.2-0.6,0.2-1c0-0.3-0.1-0.7-0.2-1
	s-0.4-0.6-0.6-0.8c-0.3-0.2-0.6-0.3-1-0.3s-0.7,0.1-1,0.3s-0.5,0.4-0.6,0.8c-0.1,0.3-0.2,0.6-0.2,1c0,0.3,0.1,0.7,0.2,1
	c0.2,0.3,0.4,0.6,0.6,0.8C76.1,17.1,76.4,17.2,76.8,17.2z M80.9,15.8v-3.3H82v3.3c0,0.5,0.1,0.9,0.3,1.1c0.2,0.2,0.5,0.4,0.9,0.4
	s0.7-0.1,1-0.3c0.2-0.2,0.4-0.5,0.5-0.8c0.1-0.3,0.2-0.7,0.2-1v-2.6H86v5c0,0,0,0.1,0,0.2s0,0.2,0,0.3h-1v-0.8
	c-0.1,0.1-0.2,0.3-0.4,0.4c-0.2,0.1-0.4,0.3-0.6,0.4s-0.5,0.2-0.9,0.2c-0.7,0-1.3-0.2-1.6-0.6C81.1,17.1,80.9,16.5,80.9,15.8z
	 M89.6,17.8V10h1.1v3c0.1-0.2,0.3-0.3,0.6-0.5c0.3-0.2,0.7-0.3,1.1-0.3c0.6,0,1,0.1,1.4,0.4c0.4,0.3,0.7,0.6,0.9,1
	c0.2,0.4,0.3,0.9,0.3,1.5s-0.1,1.1-0.4,1.6c-0.3,0.4-0.6,0.8-1.1,1.1c-0.5,0.3-1,0.4-1.6,0.4c-0.5,0-0.9,0-1.3-0.1
	C90.2,18,89.9,17.9,89.6,17.8z M90.7,14.9v2.2c0.1,0,0.2,0.1,0.4,0.1c0.2,0,0.4,0,0.7,0c0.6,0,1.1-0.2,1.5-0.6s0.6-0.9,0.6-1.5
	c0-0.3-0.1-0.7-0.2-1s-0.3-0.5-0.5-0.7s-0.5-0.3-0.9-0.3c-0.3,0-0.6,0.1-0.9,0.2c-0.2,0.2-0.4,0.4-0.5,0.6
	C90.8,14.3,90.7,14.6,90.7,14.9z M95.4,20.1l0.5-0.8c0.1,0.1,0.2,0.1,0.3,0.2c0.1,0.1,0.2,0.1,0.4,0.1c0.3,0,0.4-0.1,0.6-0.3
	c0.1-0.2,0.3-0.6,0.5-1l0.1-0.4l-2.5-5.5h1.2l1.8,4.2l1.6-4.2h1.2l-2.2,5.4c-0.1,0.2-0.2,0.5-0.3,0.8c-0.1,0.3-0.2,0.6-0.4,0.9
	c-0.2,0.3-0.3,0.5-0.6,0.7c-0.2,0.2-0.5,0.3-0.9,0.3c-0.3,0-0.5,0-0.7-0.1C95.8,20.4,95.6,20.3,95.4,20.1z M104.3,18v-8h1.2v3.3h4.4
	V10h1.2v8h-1.2v-3.6h-4.4V18H104.3z M115.3,18.2c-0.6,0-1.1-0.1-1.5-0.4s-0.8-0.6-1.1-1.1c-0.2-0.5-0.4-1-0.4-1.5s0.1-1,0.4-1.5
	c0.3-0.4,0.6-0.8,1.1-1.1c0.4-0.3,1-0.4,1.5-0.4s1.1,0.1,1.5,0.4c0.4,0.3,0.8,0.6,1.1,1.1c0.3,0.4,0.4,0.9,0.4,1.5
	c0,0.5-0.1,1-0.4,1.5c-0.3,0.4-0.6,0.8-1.1,1.1C116.4,18,115.9,18.2,115.3,18.2z M115.3,17.2c0.4,0,0.7-0.1,1-0.3
	c0.3-0.2,0.5-0.5,0.6-0.8c0.2-0.3,0.2-0.6,0.2-1c0-0.3-0.1-0.7-0.2-1s-0.4-0.6-0.6-0.8c-0.3-0.2-0.6-0.3-1-0.3s-0.7,0.1-1,0.3
	s-0.5,0.4-0.6,0.8c-0.1,0.3-0.2,0.6-0.2,1c0,0.3,0.1,0.7,0.2,1c0.2,0.3,0.4,0.6,0.6,0.8C114.6,17.1,114.9,17.2,115.3,17.2z
	 M119.2,17.3l0.7-0.7c0.2,0.2,0.4,0.4,0.7,0.5c0.3,0.1,0.6,0.2,1,0.2s0.7-0.1,0.9-0.2c0.2-0.1,0.4-0.3,0.4-0.6c0-0.2,0-0.3-0.1-0.4
	s-0.3-0.2-0.5-0.3s-0.6-0.2-1-0.3c-0.3-0.1-0.6-0.2-0.8-0.3c-0.3-0.1-0.5-0.3-0.7-0.5s-0.3-0.5-0.3-0.9s0.1-0.7,0.3-0.9
	c0.2-0.2,0.5-0.4,0.8-0.6c0.3-0.1,0.7-0.2,1.1-0.2c0.5,0,0.9,0.1,1.2,0.2c0.3,0.1,0.6,0.3,0.9,0.5l-0.6,0.7
	c-0.2-0.2-0.4-0.3-0.6-0.4c-0.2-0.1-0.5-0.2-0.9-0.2c-0.3,0-0.6,0.1-0.8,0.2c-0.2,0.1-0.3,0.3-0.3,0.6c0,0.2,0.1,0.4,0.4,0.5
	s0.6,0.2,1.1,0.3c0.4,0.1,0.7,0.2,0.9,0.3c0.3,0.1,0.5,0.3,0.7,0.5s0.3,0.5,0.3,0.9s-0.1,0.7-0.3,0.9c-0.2,0.2-0.5,0.4-0.9,0.6
	c-0.4,0.1-0.7,0.2-1.1,0.2C120.5,18.2,119.7,17.9,119.2,17.3z M125.6,16.2v-2.9h-1v-0.9h1v-1.8h1.1v1.8h1.6v0.9h-1.6V16
	c0,0.4,0.1,0.8,0.2,0.9c0.1,0.2,0.3,0.3,0.6,0.3c0.2,0,0.4,0,0.5-0.1c0.1-0.1,0.3-0.2,0.4-0.3l0.5,0.7c-0.2,0.2-0.5,0.4-0.7,0.5
	s-0.5,0.2-0.9,0.2c-0.6,0-1-0.2-1.3-0.5C125.8,17.3,125.6,16.8,125.6,16.2z M129.5,15.2v-1h3.5v1H129.5z M134.8,18v-8h2.5
	c0.5,0,1,0.1,1.3,0.2c0.4,0.1,0.6,0.3,0.9,0.6c0.2,0.2,0.4,0.5,0.4,0.8c0.1,0.3,0.1,0.6,0.1,0.8c0,0.5-0.1,1-0.3,1.3
	c-0.2,0.4-0.6,0.6-1,0.8s-0.9,0.3-1.4,0.3H136V18H134.8z M136,13.9h1.4c0.5,0,0.9-0.1,1.1-0.4c0.3-0.3,0.4-0.6,0.4-1
	s-0.1-0.8-0.4-1.1c-0.3-0.3-0.6-0.4-1.1-0.4H136V13.9z M141.2,18v-8h1.1v8H141.2z M143.7,15.8v-3.3h1.1v3.3c0,0.5,0.1,0.9,0.3,1.1
	s0.5,0.4,0.9,0.4s0.7-0.1,1-0.3c0.2-0.2,0.4-0.5,0.5-0.8c0.1-0.3,0.2-0.7,0.2-1v-2.6h1.1v5c0,0,0,0.1,0,0.2s0,0.2,0,0.3h-1v-0.8
	c-0.1,0.1-0.2,0.3-0.4,0.4s-0.4,0.3-0.6,0.4c-0.2,0.1-0.5,0.2-0.9,0.2c-0.7,0-1.3-0.2-1.6-0.6C143.9,17.1,143.7,16.5,143.7,15.8z
	 M150,17.3l0.7-0.7c0.2,0.2,0.4,0.4,0.7,0.5s0.6,0.2,1,0.2s0.7-0.1,0.9-0.2s0.4-0.3,0.4-0.6c0-0.2,0-0.3-0.1-0.4s-0.3-0.2-0.5-0.3
	s-0.6-0.2-1-0.3c-0.3-0.1-0.6-0.2-0.8-0.3c-0.3-0.1-0.5-0.3-0.7-0.5s-0.3-0.5-0.3-0.9s0.1-0.7,0.3-0.9s0.5-0.4,0.8-0.6
	c0.3-0.1,0.7-0.2,1.1-0.2c0.5,0,0.9,0.1,1.2,0.2c0.3,0.1,0.6,0.3,0.9,0.5l-0.6,0.7c-0.2-0.2-0.4-0.3-0.6-0.4
	c-0.2-0.1-0.5-0.2-0.9-0.2c-0.3,0-0.6,0.1-0.8,0.2c-0.2,0.1-0.3,0.3-0.3,0.6c0,0.2,0.1,0.4,0.4,0.5c0.3,0.1,0.6,0.2,1.1,0.3
	c0.4,0.1,0.7,0.2,0.9,0.3c0.3,0.1,0.5,0.3,0.7,0.5s0.3,0.5,0.3,0.9s-0.1,0.7-0.3,0.9c-0.2,0.2-0.5,0.4-0.9,0.6
	c-0.4,0.1-0.7,0.2-1.1,0.2C151.3,18.2,150.5,17.9,150,17.3z M158.3,18v-8h2.5c0.5,0,1,0.1,1.3,0.2c0.4,0.1,0.6,0.3,0.9,0.6
	c0.2,0.2,0.4,0.5,0.4,0.8c0.1,0.3,0.1,0.6,0.1,0.8c0,0.5-0.1,1-0.3,1.3c-0.2,0.4-0.6,0.6-1,0.8s-0.9,0.3-1.4,0.3h-1.5V18H158.3z
	 M159.4,13.9h1.4c0.5,0,0.9-0.1,1.1-0.4c0.3-0.3,0.4-0.6,0.4-1s-0.1-0.8-0.4-1.1c-0.3-0.3-0.6-0.4-1.1-0.4h-1.4V13.9z M165.4,16.2
	v-2.9h-1v-0.9h1v-1.8h1.1v1.8h1.6v0.9h-1.6V16c0,0.4,0.1,0.8,0.2,0.9c0.1,0.2,0.3,0.3,0.6,0.3c0.2,0,0.4,0,0.5-0.1s0.3-0.2,0.4-0.3
	l0.5,0.7c-0.2,0.2-0.5,0.4-0.7,0.5s-0.5,0.2-0.9,0.2c-0.6,0-1-0.2-1.3-0.5C165.5,17.3,165.4,16.8,165.4,16.2z M168.8,20.1l0.5-0.8
	c0.1,0.1,0.2,0.1,0.3,0.2s0.2,0.1,0.4,0.1c0.3,0,0.4-0.1,0.6-0.3c0.1-0.2,0.3-0.6,0.5-1l0.1-0.4l-2.5-5.5h1.2l1.8,4.2l1.6-4.2h1.2
	l-2.2,5.4c-0.1,0.2-0.2,0.5-0.3,0.8s-0.2,0.6-0.4,0.9s-0.3,0.5-0.6,0.7c-0.2,0.2-0.5,0.3-0.9,0.3c-0.3,0-0.5,0-0.7-0.1
	C169.1,20.4,168.9,20.3,168.8,20.1z M177.6,18v-8h1.2v7h4.2v1H177.6z M184,11.4v-1.2h1.2v1.2H184z M184.1,18v-5.6h1.1V18H184.1z
	 M187.8,18h-1.1v-5c0-0.1,0-0.1,0-0.2c0-0.1,0-0.2,0-0.4h1v0.8c0.1-0.1,0.2-0.3,0.4-0.4c0.2-0.2,0.3-0.3,0.6-0.4
	c0.2-0.1,0.5-0.2,0.9-0.2s0.8,0.1,1.1,0.3s0.5,0.4,0.7,0.7c0.2-0.3,0.5-0.5,0.8-0.7s0.7-0.3,1.2-0.3c0.7,0,1.3,0.2,1.6,0.6
	c0.3,0.4,0.5,1,0.5,1.7V18h-1.1v-3.3c0-1-0.4-1.5-1.2-1.5c-0.3,0-0.6,0.1-0.8,0.2c-0.2,0.2-0.4,0.4-0.6,0.6
	c-0.1,0.2-0.2,0.5-0.2,0.8V18h-1.1v-3.3c0-0.5-0.1-0.9-0.3-1.1c-0.2-0.2-0.5-0.4-0.9-0.4s-0.7,0.1-0.9,0.3s-0.4,0.5-0.5,0.8
	s-0.1,0.7-0.1,1L187.8,18L187.8,18z M196.9,11.4v-1.2h1.2v1.2H196.9z M196.9,18v-5.6h1.1V18H196.9z M200,16.2v-2.9h-1v-0.9h1v-1.8
	h1.1v1.8h1.6v0.9h-1.6V16c0,0.4,0.1,0.8,0.2,0.9c0.1,0.2,0.3,0.3,0.6,0.3c0.2,0,0.4,0,0.5-0.1s0.3-0.2,0.4-0.3l0.5,0.7
	c-0.2,0.2-0.5,0.4-0.7,0.5s-0.5,0.2-0.9,0.2c-0.6,0-1-0.2-1.3-0.5C200.2,17.3,200,16.8,200,16.2z M208.3,16.5l0.6,0.6
	c-0.1,0.1-0.2,0.2-0.4,0.4c-0.2,0.2-0.5,0.3-0.8,0.4s-0.7,0.2-1.2,0.2c-0.6,0-1.1-0.1-1.5-0.4s-0.8-0.6-1-1.1s-0.4-1-0.4-1.6
	c0-0.5,0.1-1,0.3-1.5c0.2-0.4,0.6-0.8,1-1c0.4-0.3,0.9-0.4,1.5-0.4s1.2,0.2,1.6,0.5c0.4,0.3,0.7,0.7,0.9,1.2s0.3,1,0.3,1.6h-4.4
	c0,0.3,0.1,0.6,0.3,0.9c0.2,0.3,0.4,0.5,0.7,0.6s0.6,0.2,0.9,0.2c0.5,0,0.9-0.1,1.2-0.2C207.9,16.8,208.1,16.7,208.3,16.5z
	 M204.6,14.7h3.3c0-0.4-0.2-0.8-0.5-1.1s-0.7-0.5-1.2-0.5c-0.3,0-0.6,0.1-0.9,0.2c-0.2,0.2-0.4,0.3-0.6,0.6
	C204.7,14.2,204.6,14.5,204.6,14.7z M214.3,18v-0.7c-0.1,0.1-0.2,0.2-0.3,0.3c-0.1,0.1-0.3,0.3-0.6,0.4c-0.2,0.1-0.6,0.2-0.9,0.2
	c-0.5,0-0.9-0.1-1.3-0.3c-0.4-0.2-0.7-0.6-0.9-1S210,16,210,15.4c0-0.5,0.1-1,0.3-1.4s0.4-0.7,0.7-0.9s0.6-0.4,0.9-0.5
	c0.3-0.1,0.7-0.2,0.9-0.2c0.3,0,0.6,0,0.8,0.1s0.4,0.2,0.7,0.3V10h1.1v7.4c0,0,0,0.1,0,0.2s0,0.2,0,0.3h-1.1V18z M214.2,15.6v-2
	c-0.1-0.1-0.3-0.2-0.6-0.3s-0.5-0.1-0.8-0.1c-0.5,0-1,0.2-1.3,0.6c-0.3,0.4-0.5,0.9-0.5,1.5c0,0.4,0.1,0.7,0.2,1
	c0.1,0.3,0.3,0.5,0.5,0.7s0.5,0.3,0.9,0.3s0.7-0.1,0.9-0.3c0.2-0.2,0.4-0.4,0.5-0.6C214.2,16.1,214.2,15.9,214.2,15.6z M216.9,18
	v-1.3h1.4V18H216.9z M222.2,18v-8h5v1h-3.9v2.4h3v1h-3V18H222.2z M230.2,18.2c-0.6,0-1.1-0.1-1.5-0.4s-0.8-0.6-1.1-1.1
	c-0.2-0.5-0.4-1-0.4-1.5s0.1-1,0.4-1.5c0.3-0.4,0.6-0.8,1.1-1.1c0.4-0.3,1-0.4,1.5-0.4c0.6,0,1.1,0.1,1.5,0.4
	c0.4,0.3,0.8,0.6,1.1,1.1c0.3,0.4,0.4,0.9,0.4,1.5c0,0.5-0.1,1-0.4,1.5c-0.3,0.4-0.6,0.8-1.1,1.1C231.3,18,230.8,18.2,230.2,18.2z
	 M230.2,17.2c0.4,0,0.7-0.1,1-0.3c0.3-0.2,0.5-0.5,0.6-0.8c0.2-0.3,0.2-0.6,0.2-1c0-0.3-0.1-0.7-0.2-1c-0.1-0.3-0.4-0.6-0.6-0.8
	c-0.3-0.2-0.6-0.3-1-0.3s-0.7,0.1-1,0.3s-0.5,0.4-0.6,0.8c-0.1,0.3-0.2,0.6-0.2,1c0,0.3,0.1,0.7,0.2,1c0.2,0.3,0.4,0.6,0.6,0.8
	C229.5,17.1,229.9,17.2,230.2,17.2z M235.5,18h-1.1v-5c0-0.1,0-0.1,0-0.2c0-0.1,0-0.2,0-0.3h1v0.9c0.1-0.1,0.2-0.3,0.4-0.4
	c0.2-0.2,0.4-0.3,0.6-0.4c0.2-0.1,0.5-0.2,0.9-0.2c0.1,0,0.2,0,0.3,0s0.2,0,0.3,0.1l-0.2,1c-0.1-0.1-0.3-0.1-0.6-0.1
	s-0.6,0.1-0.8,0.2c-0.2,0.2-0.4,0.4-0.6,0.6c-0.1,0.3-0.2,0.5-0.2,0.9L235.5,18L235.5,18z M242,18h-1v-5c0-0.1,0-0.1,0-0.2
	c0-0.1,0-0.2,0-0.4h1v0.8c0.1-0.1,0.2-0.3,0.4-0.4c0.2-0.2,0.3-0.3,0.6-0.4c0.2-0.1,0.5-0.2,0.9-0.2s0.8,0.1,1.1,0.3
	s0.5,0.4,0.7,0.7c0.2-0.3,0.5-0.5,0.8-0.7s0.7-0.3,1.2-0.3c0.7,0,1.3,0.2,1.6,0.6c0.3,0.4,0.5,1,0.5,1.7V18h-1.1v-3.3
	c0-1-0.4-1.5-1.2-1.5c-0.3,0-0.6,0.1-0.8,0.2c-0.2,0.2-0.4,0.4-0.6,0.6c-0.1,0.2-0.2,0.5-0.2,0.8V18h-1.1v-3.3
	c0-0.5-0.1-0.9-0.3-1.1c-0.2-0.2-0.5-0.4-0.9-0.4s-0.7,0.1-0.9,0.3s-0.4,0.5-0.5,0.8s-0.1,0.7-0.1,1L242,18L242,18z M253.8,18.2
	c-0.6,0-1.1-0.1-1.5-0.4s-0.8-0.6-1.1-1.1c-0.2-0.5-0.4-1-0.4-1.5s0.1-1,0.4-1.5c0.3-0.4,0.6-0.8,1.1-1.1c0.4-0.3,1-0.4,1.5-0.4
	c0.6,0,1.1,0.1,1.5,0.4c0.4,0.3,0.8,0.6,1.1,1.1c0.3,0.4,0.4,0.9,0.4,1.5c0,0.5-0.1,1-0.4,1.5c-0.3,0.4-0.6,0.8-1.1,1.1
	C254.9,18,254.4,18.2,253.8,18.2z M253.8,17.2c0.4,0,0.7-0.1,1-0.3c0.3-0.2,0.5-0.5,0.6-0.8c0.2-0.3,0.2-0.6,0.2-1
	c0-0.3-0.1-0.7-0.2-1c-0.1-0.3-0.4-0.6-0.6-0.8c-0.3-0.2-0.6-0.3-1-0.3s-0.7,0.1-1,0.3s-0.5,0.4-0.6,0.8c-0.1,0.3-0.2,0.6-0.2,1
	c0,0.3,0.1,0.7,0.2,1c0.2,0.3,0.4,0.6,0.6,0.8C253.1,17.1,253.5,17.2,253.8,17.2z M259.1,18H258v-5c0-0.1,0-0.1,0-0.2
	c0-0.1,0-0.2,0-0.3h1v0.9c0.1-0.1,0.2-0.3,0.4-0.4c0.2-0.2,0.4-0.3,0.6-0.4c0.2-0.1,0.5-0.2,0.9-0.2c0.1,0,0.2,0,0.3,0
	c0.1,0,0.2,0,0.3,0.1l-0.2,1c-0.1-0.1-0.3-0.1-0.6-0.1c-0.3,0-0.6,0.1-0.8,0.2c-0.2,0.2-0.4,0.4-0.6,0.6c-0.1,0.3-0.2,0.5-0.2,0.9
	L259.1,18L259.1,18z M266.6,16.5l0.6,0.6c-0.1,0.1-0.2,0.2-0.4,0.4c-0.2,0.2-0.5,0.3-0.8,0.4s-0.7,0.2-1.2,0.2
	c-0.6,0-1.1-0.1-1.5-0.4s-0.8-0.6-1-1.1s-0.4-1-0.4-1.6c0-0.5,0.1-1,0.3-1.5c0.2-0.4,0.6-0.8,1-1c0.4-0.3,0.9-0.4,1.5-0.4
	s1.2,0.2,1.6,0.5s0.7,0.7,0.9,1.2c0.2,0.5,0.3,1,0.3,1.6h-4.4c0,0.3,0.1,0.6,0.3,0.9c0.2,0.3,0.4,0.5,0.7,0.6
	c0.3,0.1,0.6,0.2,0.9,0.2c0.5,0,0.9-0.1,1.2-0.2C266.2,16.8,266.4,16.7,266.6,16.5z M262.9,14.7h3.3c0-0.4-0.2-0.8-0.5-1.1
	s-0.7-0.5-1.2-0.5c-0.3,0-0.6,0.1-0.9,0.2c-0.2,0.2-0.4,0.3-0.6,0.6C263,14.2,262.9,14.5,262.9,14.7z M270.7,11.4v-1.2h1.2v1.2
	H270.7z M270.7,18v-5.6h1.1V18H270.7z M274.4,18h-1.1v-5c0-0.1,0-0.1,0-0.2c0-0.1,0-0.2,0-0.4h1v0.8c0.1-0.1,0.2-0.3,0.4-0.4
	c0.2-0.2,0.4-0.3,0.6-0.4c0.2-0.1,0.5-0.2,0.9-0.2c0.7,0,1.3,0.2,1.6,0.6c0.4,0.4,0.5,1,0.5,1.7V18h-1.1v-3.3c0-0.5-0.1-0.9-0.3-1.1
	c-0.2-0.2-0.5-0.4-0.9-0.4s-0.7,0.1-1,0.3c-0.2,0.2-0.4,0.5-0.5,0.8s-0.1,0.7-0.1,1V18z M280.3,18v-4.7h-1v-0.9h1V12
	c0-0.5,0.1-0.9,0.3-1.2c0.2-0.3,0.4-0.6,0.7-0.7c0.3-0.2,0.6-0.2,0.9-0.2s0.6,0,0.9,0.1s0.6,0.2,0.8,0.5l-0.5,0.7
	c-0.3-0.2-0.6-0.4-0.9-0.4s-0.6,0.1-0.8,0.3c-0.2,0.2-0.3,0.5-0.3,1v0.4h1.6v0.9h-1.6V18H280.3z M286.3,18.2c-0.6,0-1.1-0.1-1.5-0.4
	s-0.8-0.6-1.1-1.1c-0.2-0.5-0.4-1-0.4-1.5s0.1-1,0.4-1.5c0.3-0.4,0.6-0.8,1.1-1.1c0.4-0.3,1-0.4,1.5-0.4c0.6,0,1.1,0.1,1.5,0.4
	c0.4,0.3,0.8,0.6,1.1,1.1c0.3,0.4,0.4,0.9,0.4,1.5c0,0.5-0.1,1-0.4,1.5c-0.3,0.4-0.6,0.8-1.1,1.1C287.4,18,286.9,18.2,286.3,18.2z
	 M286.3,17.2c0.4,0,0.7-0.1,1-0.3c0.3-0.2,0.5-0.5,0.6-0.8c0.2-0.3,0.2-0.6,0.2-1c0-0.3-0.1-0.7-0.2-1s-0.4-0.6-0.6-0.8
	c-0.3-0.2-0.6-0.3-1-0.3s-0.7,0.1-1,0.3s-0.5,0.4-0.6,0.8c-0.1,0.3-0.2,0.6-0.2,1c0,0.3,0.1,0.7,0.2,1c0.2,0.3,0.4,0.6,0.6,0.8
	C285.6,17.1,285.9,17.2,286.3,17.2z M291.6,18h-1.1v-5c0-0.1,0-0.1,0-0.2c0-0.1,0-0.2,0-0.3h1v0.9c0.1-0.1,0.2-0.3,0.4-0.4
	c0.2-0.2,0.4-0.3,0.6-0.4c0.2-0.1,0.5-0.2,0.9-0.2c0.1,0,0.2,0,0.3,0c0.1,0,0.2,0,0.3,0.1l-0.2,1c-0.1-0.1-0.3-0.1-0.6-0.1
	c-0.3,0-0.6,0.1-0.8,0.2c-0.2,0.2-0.4,0.4-0.6,0.6c-0.1,0.3-0.2,0.5-0.2,0.9L291.6,18L291.6,18z M295.9,18h-1.1v-5
	c0-0.1,0-0.1,0-0.2c0-0.1,0-0.2,0-0.4h1v0.8c0.1-0.1,0.2-0.3,0.4-0.4c0.2-0.2,0.3-0.3,0.6-0.4c0.2-0.1,0.5-0.2,0.9-0.2
	s0.8,0.1,1.1,0.3c0.3,0.2,0.5,0.4,0.7,0.7c0.2-0.3,0.5-0.5,0.8-0.7s0.7-0.3,1.2-0.3c0.7,0,1.3,0.2,1.6,0.6c0.3,0.4,0.5,1,0.5,1.7V18
	h-1.1v-3.3c0-1-0.4-1.5-1.2-1.5c-0.3,0-0.6,0.1-0.8,0.2c-0.2,0.2-0.4,0.4-0.6,0.6c-0.1,0.2-0.2,0.5-0.2,0.8V18h-1.1v-3.3
	c0-0.5-0.1-0.9-0.3-1.1c-0.2-0.2-0.5-0.4-0.9-0.4s-0.7,0.1-0.9,0.3c-0.2,0.2-0.4,0.5-0.5,0.8s-0.1,0.7-0.1,1V18z M308.6,18v-0.7
	c-0.2,0.3-0.5,0.5-0.8,0.6s-0.7,0.2-1,0.2s-0.6-0.1-0.9-0.2s-0.5-0.3-0.7-0.6c-0.2-0.3-0.3-0.6-0.3-1c0-0.6,0.2-1.1,0.6-1.4
	c0.4-0.4,1-0.5,1.8-0.5c0.2,0,0.4,0,0.5,0c0.2,0,0.4,0,0.5,0c0.2,0,0.3,0,0.3,0v-0.2c0-0.4-0.1-0.7-0.4-0.9c-0.2-0.2-0.6-0.3-1-0.3
	s-0.8,0.1-1,0.2c-0.2,0.1-0.5,0.2-0.6,0.3l-0.5-0.7c0.2-0.2,0.5-0.3,0.8-0.5c0.4-0.2,0.8-0.2,1.4-0.2c0.7,0,1.3,0.2,1.7,0.5
	c0.4,0.3,0.6,0.8,0.6,1.5v3.3c0,0.1,0,0.1,0,0.2s0,0.2,0,0.3h-1V18z M308.5,16v-0.6c0,0-0.1,0-0.3,0c-0.1,0-0.3,0-0.5,0
	s-0.3,0-0.5,0c-0.4,0-0.7,0.1-0.9,0.2c-0.2,0.1-0.4,0.3-0.4,0.4c-0.1,0.2-0.1,0.3-0.1,0.5c0,0.3,0.1,0.5,0.3,0.7
	c0.2,0.2,0.5,0.2,0.9,0.2c0.3,0,0.5-0.1,0.8-0.2c0.2-0.1,0.4-0.3,0.6-0.5C308.4,16.4,308.5,16.2,308.5,16z M311.5,16.2v-2.9h-1v-0.9
	h1v-1.8h1.1v1.8h1.6v0.9h-1.6V16c0,0.4,0.1,0.8,0.2,0.9c0.1,0.2,0.3,0.3,0.6,0.3c0.2,0,0.4,0,0.5-0.1s0.3-0.2,0.4-0.3l0.5,0.7
	c-0.2,0.2-0.5,0.4-0.7,0.5s-0.5,0.2-0.9,0.2c-0.6,0-1-0.2-1.3-0.5C311.6,17.3,311.5,16.8,311.5,16.2z M315.6,11.4v-1.2h1.2v1.2
	H315.6z M315.7,18v-5.6h1.1V18H315.7z M321,18.2c-0.6,0-1.1-0.1-1.5-0.4s-0.8-0.6-1.1-1.1c-0.2-0.5-0.4-1-0.4-1.5s0.1-1,0.4-1.5
	c0.3-0.4,0.6-0.8,1.1-1.1c0.4-0.3,1-0.4,1.5-0.4s1.1,0.1,1.5,0.4c0.4,0.3,0.8,0.6,1.1,1.1s0.4,0.9,0.4,1.5c0,0.5-0.1,1-0.4,1.5
	c-0.3,0.4-0.6,0.8-1.1,1.1C322.1,18,321.5,18.2,321,18.2z M321,17.2c0.4,0,0.7-0.1,1-0.3c0.3-0.2,0.5-0.5,0.6-0.8
	c0.2-0.3,0.2-0.6,0.2-1c0-0.3-0.1-0.7-0.2-1s-0.4-0.6-0.6-0.8c-0.3-0.2-0.6-0.3-1-0.3s-0.7,0.1-1,0.3s-0.5,0.4-0.6,0.8
	c-0.1,0.3-0.2,0.6-0.2,1c0,0.3,0.1,0.7,0.2,1c0.2,0.3,0.4,0.6,0.6,0.8C320.3,17.1,320.6,17.2,321,17.2z M326.2,18h-1.1v-5
	c0-0.1,0-0.1,0-0.2c0-0.1,0-0.2,0-0.4h1v0.8c0.1-0.1,0.2-0.3,0.4-0.4c0.2-0.2,0.4-0.3,0.6-0.4c0.2-0.1,0.5-0.2,0.9-0.2
	c0.7,0,1.3,0.2,1.6,0.6c0.4,0.4,0.5,1,0.5,1.7V18H329v-3.3c0-0.5-0.1-0.9-0.3-1.1c-0.2-0.2-0.5-0.4-0.9-0.4s-0.7,0.1-1,0.3
	c-0.2,0.2-0.4,0.5-0.5,0.8s-0.1,0.7-0.1,1V18z M335.6,18l-2.4-5.6h1.2l1.7,4.4l1.7-4.4h1.2l-2.4,5.6H335.6z M339.9,11.4v-1.2h1.2
	v1.2H339.9z M339.9,18v-5.6h1.1V18H339.9z M342.2,17.3l0.7-0.7c0.2,0.2,0.4,0.4,0.7,0.5c0.3,0.1,0.6,0.2,1,0.2s0.7-0.1,0.9-0.2
	c0.2-0.1,0.4-0.3,0.4-0.6c0-0.2,0-0.3-0.1-0.4s-0.3-0.2-0.5-0.3s-0.6-0.2-1-0.3c-0.3-0.1-0.6-0.2-0.8-0.3c-0.3-0.1-0.5-0.3-0.7-0.5
	s-0.3-0.5-0.3-0.9s0.1-0.7,0.3-0.9c0.2-0.2,0.5-0.4,0.8-0.6c0.3-0.1,0.7-0.2,1.1-0.2c0.5,0,0.9,0.1,1.2,0.2c0.3,0.1,0.6,0.3,0.9,0.5
	l-0.6,0.7c-0.2-0.2-0.4-0.3-0.6-0.4c-0.2-0.1-0.5-0.2-0.9-0.2c-0.3,0-0.6,0.1-0.8,0.2c-0.2,0.1-0.3,0.3-0.3,0.6
	c0,0.2,0.1,0.4,0.4,0.5s0.6,0.2,1.1,0.3c0.4,0.1,0.7,0.2,0.9,0.3c0.3,0.1,0.5,0.3,0.7,0.5s0.3,0.5,0.3,0.9s-0.1,0.7-0.3,0.9
	c-0.2,0.2-0.5,0.4-0.9,0.6c-0.4,0.1-0.7,0.2-1.1,0.2C343.6,18.2,342.8,17.9,342.2,17.3z M348.2,11.4v-1.2h1.2v1.2H348.2z M348.2,18
	v-5.6h1.1V18H348.2z M351.3,16.2v-2.9h-1v-0.9h1v-1.8h1.1v1.8h1.6v0.9h-1.6V16c0,0.4,0.1,0.8,0.2,0.9c0.1,0.2,0.3,0.3,0.6,0.3
	c0.2,0,0.4,0,0.5-0.1s0.3-0.2,0.4-0.3l0.5,0.7c-0.2,0.2-0.5,0.4-0.7,0.5s-0.5,0.2-0.9,0.2c-0.6,0-1-0.2-1.3-0.5
	C351.5,17.3,351.3,16.8,351.3,16.2z M357.6,18v-8h1.1v3.3c0.1-0.1,0.2-0.3,0.4-0.4c0.2-0.2,0.4-0.3,0.6-0.4c0.2-0.1,0.5-0.2,0.9-0.2
	c0.7,0,1.3,0.2,1.6,0.6c0.4,0.4,0.5,1,0.5,1.7V18h-1.1v-3.3c0-0.5-0.1-0.9-0.3-1.1c-0.2-0.2-0.5-0.4-0.9-0.4s-0.7,0.1-1,0.3
	c-0.2,0.2-0.4,0.5-0.5,0.8s-0.1,0.7-0.1,1V18H357.6z M366.8,18.2c-0.6,0-1.1-0.1-1.5-0.4s-0.8-0.6-1.1-1.1c-0.2-0.5-0.4-1-0.4-1.5
	s0.1-1,0.4-1.5c0.3-0.4,0.6-0.8,1.1-1.1c0.4-0.3,1-0.4,1.5-0.4c0.6,0,1.1,0.1,1.5,0.4c0.4,0.3,0.8,0.6,1.1,1.1
	c0.3,0.4,0.4,0.9,0.4,1.5c0,0.5-0.1,1-0.4,1.5c-0.3,0.4-0.6,0.8-1.1,1.1C367.9,18,367.4,18.2,366.8,18.2z M366.8,17.2
	c0.4,0,0.7-0.1,1-0.3c0.3-0.2,0.5-0.5,0.6-0.8c0.2-0.3,0.2-0.6,0.2-1c0-0.3-0.1-0.7-0.2-1s-0.4-0.6-0.6-0.8c-0.3-0.2-0.6-0.3-1-0.3
	s-0.7,0.1-1,0.3s-0.5,0.4-0.6,0.8c-0.1,0.3-0.2,0.6-0.2,1c0,0.3,0.1,0.7,0.2,1c0.2,0.3,0.4,0.6,0.6,0.8
	C366.1,17.1,366.5,17.2,366.8,17.2z M370.7,17.3l0.7-0.7c0.2,0.2,0.4,0.4,0.7,0.5c0.3,0.1,0.6,0.2,1,0.2s0.7-0.1,0.9-0.2
	c0.2-0.1,0.4-0.3,0.4-0.6c0-0.2,0-0.3-0.1-0.4s-0.3-0.2-0.5-0.3s-0.6-0.2-1-0.3c-0.3-0.1-0.6-0.2-0.8-0.3c-0.3-0.1-0.5-0.3-0.7-0.5
	s-0.3-0.5-0.3-0.9s0.1-0.7,0.3-0.9c0.2-0.2,0.5-0.4,0.8-0.6c0.3-0.1,0.7-0.2,1.1-0.2c0.5,0,0.9,0.1,1.2,0.2c0.3,0.1,0.6,0.3,0.9,0.5
	l-0.6,0.7c-0.2-0.2-0.4-0.3-0.6-0.4c-0.2-0.1-0.5-0.2-0.9-0.2c-0.3,0-0.6,0.1-0.8,0.2c-0.2,0.1-0.3,0.3-0.3,0.6
	c0,0.2,0.1,0.4,0.4,0.5s0.6,0.2,1.1,0.3c0.4,0.1,0.7,0.2,0.9,0.3c0.3,0.1,0.5,0.3,0.7,0.5s0.3,0.5,0.3,0.9s-0.1,0.7-0.3,0.9
	c-0.2,0.2-0.5,0.4-0.9,0.6c-0.4,0.1-0.7,0.2-1.1,0.2C372,18.2,371.2,17.9,370.7,17.3z M377.2,16.2v-2.9h-1v-0.9h1v-1.8h1.1v1.8h1.6
	v0.9h-1.6V16c0,0.4,0.1,0.8,0.2,0.9c0.1,0.2,0.3,0.3,0.6,0.3c0.2,0,0.4,0,0.5-0.1s0.3-0.2,0.4-0.3l0.5,0.7c-0.2,0.2-0.5,0.4-0.7,0.5
	s-0.5,0.2-0.9,0.2c-0.6,0-1-0.2-1.3-0.5C377.3,17.3,377.2,16.8,377.2,16.2z M382.3,20.4h-1.1V13c0-0.1,0-0.1,0-0.2
	c0-0.1,0-0.2,0-0.4h1v0.8c0.1-0.1,0.2-0.2,0.3-0.4c0.2-0.1,0.4-0.3,0.6-0.4c0.3-0.1,0.6-0.2,0.9-0.2c0.6,0,1,0.1,1.4,0.4
	c0.4,0.3,0.7,0.6,0.8,1.1c0.2,0.4,0.3,0.9,0.3,1.5c0,0.5-0.1,0.9-0.3,1.3c-0.2,0.4-0.4,0.7-0.7,0.9c-0.3,0.2-0.6,0.4-0.9,0.5
	s-0.7,0.2-1,0.2c-0.4,0-0.7,0-0.9-0.1c-0.2-0.1-0.4-0.2-0.6-0.2v2.6H382.3z M382.3,15.4v1.4c0.1,0.1,0.3,0.2,0.6,0.3
	c0.2,0.1,0.5,0.1,0.9,0.1s0.7-0.1,1-0.3c0.3-0.2,0.5-0.4,0.6-0.7c0.2-0.3,0.2-0.6,0.2-1s-0.1-0.7-0.2-1s-0.3-0.5-0.5-0.7
	s-0.6-0.3-1-0.3s-0.7,0.1-1,0.3s-0.5,0.5-0.6,0.9c0,0.1-0.1,0.3-0.1,0.4C382.4,15,382.3,15.2,382.3,15.4z M388,18v-8h1.1v8H388z
	 M390.5,15.8v-3.3h1.1v3.3c0,0.5,0.1,0.9,0.3,1.1s0.5,0.4,0.9,0.4s0.7-0.1,1-0.3s0.4-0.5,0.5-0.8c0.1-0.3,0.2-0.7,0.2-1v-2.6h1.1v5
	c0,0,0,0.1,0,0.2s0,0.2,0,0.3h-1v-0.8c-0.1,0.1-0.2,0.3-0.4,0.4c-0.2,0.1-0.4,0.3-0.6,0.4s-0.5,0.2-0.9,0.2c-0.7,0-1.3-0.2-1.6-0.6
	C390.6,17.1,390.5,16.5,390.5,15.8z M396.7,17.3l0.7-0.7c0.2,0.2,0.4,0.4,0.7,0.5c0.3,0.1,0.6,0.2,1,0.2s0.7-0.1,0.9-0.2
	c0.2-0.1,0.4-0.3,0.4-0.6c0-0.2,0-0.3-0.1-0.4s-0.3-0.2-0.5-0.3s-0.6-0.2-1-0.3c-0.3-0.1-0.6-0.2-0.8-0.3c-0.3-0.1-0.5-0.3-0.7-0.5
	s-0.3-0.5-0.3-0.9s0.1-0.7,0.3-0.9c0.2-0.2,0.5-0.4,0.8-0.6c0.3-0.1,0.7-0.2,1.1-0.2c0.5,0,0.9,0.1,1.2,0.2c0.3,0.1,0.6,0.3,0.9,0.5
	l-0.6,0.7c-0.2-0.2-0.4-0.3-0.6-0.4c-0.2-0.1-0.5-0.2-0.9-0.2c-0.3,0-0.6,0.1-0.8,0.2c-0.2,0.1-0.3,0.3-0.3,0.6
	c0,0.2,0.1,0.4,0.4,0.5s0.6,0.2,1.1,0.3c0.4,0.1,0.7,0.2,0.9,0.3c0.3,0.1,0.5,0.3,0.7,0.5s0.3,0.5,0.3,0.9s-0.1,0.7-0.3,0.9
	c-0.2,0.2-0.5,0.4-0.9,0.6c-0.4,0.1-0.7,0.2-1.1,0.2C398,18.2,397.2,17.9,396.7,17.3z M402.5,18v-1.3h1.4V18H402.5z M409.2,16.5
	l0.7,0.7c-0.2,0.3-0.6,0.5-0.9,0.7c-0.4,0.2-0.8,0.3-1.3,0.3c-0.6,0-1.1-0.1-1.6-0.4c-0.4-0.3-0.8-0.6-1-1s-0.4-1-0.4-1.5
	s0.1-1,0.4-1.5c0.2-0.4,0.6-0.8,1-1.1s1-0.4,1.5-0.4s0.9,0.1,1.2,0.3c0.4,0.2,0.7,0.4,0.9,0.7L409,14c-0.2-0.2-0.4-0.4-0.6-0.5
	s-0.5-0.2-0.9-0.2s-0.7,0.1-1,0.3s-0.5,0.4-0.6,0.7s-0.2,0.6-0.2,1c0,0.3,0.1,0.7,0.2,1c0.2,0.3,0.4,0.6,0.6,0.7
	c0.3,0.2,0.6,0.3,1,0.3c0.3,0,0.6-0.1,0.9-0.2C408.8,16.9,409,16.7,409.2,16.5z M413.3,18.2c-0.6,0-1.1-0.1-1.5-0.4
	s-0.8-0.6-1.1-1.1c-0.2-0.5-0.4-1-0.4-1.5s0.1-1,0.4-1.5c0.3-0.4,0.6-0.8,1.1-1.1c0.4-0.3,1-0.4,1.5-0.4s1.1,0.1,1.5,0.4
	c0.4,0.3,0.8,0.6,1.1,1.1c0.3,0.4,0.4,0.9,0.4,1.5c0,0.5-0.1,1-0.4,1.5c-0.3,0.4-0.6,0.8-1.1,1.1C414.3,18,413.8,18.2,413.3,18.2z
	 M413.3,17.2c0.4,0,0.7-0.1,1-0.3c0.3-0.2,0.5-0.5,0.6-0.8c0.2-0.3,0.2-0.6,0.2-1c0-0.3-0.1-0.7-0.2-1s-0.4-0.6-0.6-0.8
	c-0.3-0.2-0.6-0.3-1-0.3s-0.7,0.1-1,0.3s-0.5,0.4-0.6,0.8c-0.1,0.3-0.2,0.6-0.2,1c0,0.3,0.1,0.7,0.2,1c0.2,0.3,0.4,0.6,0.6,0.8
	C412.6,17.1,412.9,17.2,413.3,17.2z M418.5,18h-1.1v-5c0-0.1,0-0.1,0-0.2c0-0.1,0-0.2,0-0.4h1v0.8c0.1-0.1,0.2-0.3,0.4-0.4
	c0.2-0.2,0.3-0.3,0.6-0.4c0.2-0.1,0.5-0.2,0.9-0.2s0.8,0.1,1.1,0.3c0.3,0.2,0.5,0.4,0.7,0.7c0.2-0.3,0.5-0.5,0.8-0.7
	s0.7-0.3,1.2-0.3c0.7,0,1.3,0.2,1.6,0.6c0.3,0.4,0.5,1,0.5,1.7V18h-1.1v-3.3c0-1-0.4-1.5-1.2-1.5c-0.3,0-0.6,0.1-0.8,0.2
	c-0.2,0.2-0.4,0.4-0.6,0.6c-0.1,0.2-0.2,0.5-0.2,0.8V18h-1.1v-3.3c0-0.5-0.1-0.9-0.3-1.1c-0.2-0.2-0.5-0.4-0.9-0.4s-0.7,0.1-0.9,0.3
	c-0.2,0.2-0.4,0.5-0.5,0.8s-0.1,0.7-0.1,1V18z M427.8,18v-1.3h1.4V18H427.8z M434.2,18v-0.7c-0.2,0.3-0.5,0.5-0.8,0.6
	s-0.7,0.2-1,0.2s-0.6-0.1-0.9-0.2s-0.5-0.3-0.7-0.6c-0.2-0.3-0.3-0.6-0.3-1c0-0.6,0.2-1.1,0.6-1.4c0.4-0.4,1-0.5,1.8-0.5
	c0.2,0,0.4,0,0.5,0c0.2,0,0.4,0,0.5,0c0.2,0,0.3,0,0.3,0v-0.2c0-0.4-0.1-0.7-0.4-0.9c-0.2-0.2-0.6-0.3-1-0.3s-0.8,0.1-1,0.2
	c-0.2,0.1-0.5,0.2-0.6,0.3l-0.5-0.7c0.2-0.2,0.5-0.3,0.8-0.5c0.4-0.2,0.8-0.2,1.4-0.2c0.7,0,1.3,0.2,1.7,0.5
	c0.4,0.3,0.6,0.8,0.6,1.5v3.3c0,0.1,0,0.1,0,0.2s0,0.2,0,0.3h-1V18z M434.2,16v-0.6c0,0-0.1,0-0.3,0c-0.1,0-0.3,0-0.5,0
	s-0.3,0-0.5,0c-0.4,0-0.7,0.1-0.9,0.2c-0.2,0.1-0.4,0.3-0.4,0.4c-0.1,0.2-0.1,0.3-0.1,0.5c0,0.3,0.1,0.5,0.3,0.7
	c0.2,0.2,0.5,0.2,0.9,0.2c0.3,0,0.5-0.1,0.8-0.2c0.2-0.1,0.4-0.3,0.6-0.5C434.1,16.4,434.2,16.2,434.2,16z M436.7,15.8v-3.3h1.1v3.3
	c0,0.5,0.1,0.9,0.3,1.1s0.5,0.4,0.9,0.4s0.7-0.1,1-0.3s0.4-0.5,0.5-0.8c0.1-0.3,0.2-0.7,0.2-1v-2.6h1.1v5c0,0,0,0.1,0,0.2
	s0,0.2,0,0.3h-1v-0.8c-0.1,0.1-0.2,0.3-0.4,0.4c-0.2,0.1-0.4,0.3-0.6,0.4s-0.5,0.2-0.9,0.2c-0.7,0-1.3-0.2-1.6-0.6
	C436.8,17.1,436.7,16.5,436.7,15.8z M442.8,18.2l3.2-8.4h1.1l-3.2,8.4H442.8z M450.5,18v-0.7c-0.2,0.3-0.5,0.5-0.8,0.6
	s-0.7,0.2-1,0.2s-0.6-0.1-0.9-0.2s-0.5-0.3-0.7-0.6c-0.2-0.3-0.3-0.6-0.3-1c0-0.6,0.2-1.1,0.6-1.4c0.4-0.4,1-0.5,1.8-0.5
	c0.2,0,0.4,0,0.5,0c0.2,0,0.4,0,0.5,0c0.2,0,0.3,0,0.3,0v-0.2c0-0.4-0.1-0.7-0.4-0.9c-0.2-0.2-0.6-0.3-1-0.3s-0.8,0.1-1,0.2
	c-0.2,0.1-0.5,0.2-0.6,0.3l-0.5-0.7c0.2-0.2,0.5-0.3,0.8-0.5c0.4-0.2,0.8-0.2,1.4-0.2c0.7,0,1.3,0.2,1.7,0.5
	c0.4,0.3,0.6,0.8,0.6,1.5v3.3c0,0.1,0,0.1,0,0.2s0,0.2,0,0.3h-1V18z M450.5,16v-0.6c0,0-0.1,0-0.3,0c-0.1,0-0.3,0-0.5,0
	s-0.3,0-0.5,0c-0.4,0-0.7,0.1-0.9,0.2c-0.2,0.1-0.4,0.3-0.4,0.4c-0.1,0.2-0.1,0.3-0.1,0.5c0,0.3,0.1,0.5,0.3,0.7
	c0.2,0.2,0.5,0.2,0.9,0.2c0.3,0,0.5-0.1,0.8-0.2c0.2-0.1,0.4-0.3,0.6-0.5C450.4,16.4,450.5,16.2,450.5,16z M457,18v-0.7
	c-0.1,0.1-0.2,0.2-0.3,0.3c-0.1,0.1-0.3,0.3-0.6,0.4c-0.2,0.1-0.6,0.2-0.9,0.2c-0.5,0-0.9-0.1-1.3-0.3c-0.4-0.2-0.7-0.6-0.9-1
	c-0.2-0.4-0.3-0.9-0.3-1.5c0-0.5,0.1-1,0.3-1.4c0.2-0.4,0.4-0.7,0.7-0.9c0.3-0.2,0.6-0.4,0.9-0.5s0.7-0.2,0.9-0.2
	c0.3,0,0.6,0,0.8,0.1c0.2,0.1,0.4,0.2,0.7,0.3V10h1.1v7.4c0,0,0,0.1,0,0.2s0,0.2,0,0.3H457V18z M457,15.6v-2
	c-0.1-0.1-0.3-0.2-0.6-0.3s-0.5-0.1-0.8-0.1c-0.5,0-1,0.2-1.3,0.6c-0.3,0.4-0.5,0.9-0.5,1.5c0,0.4,0.1,0.7,0.2,1s0.3,0.5,0.5,0.7
	s0.5,0.3,0.9,0.3s0.7-0.1,0.9-0.3c0.2-0.2,0.4-0.4,0.5-0.6C457,16.1,457,15.9,457,15.6z M461.3,18l-2.4-5.6h1.2l1.7,4.4l1.7-4.4h1.2
	l-2.4,5.6H461.3z M465.6,11.4v-1.2h1.2v1.2H465.6z M465.7,18v-5.6h1.1V18H465.7z M472.5,16.5l0.7,0.7c-0.2,0.3-0.6,0.5-0.9,0.7
	c-0.4,0.2-0.8,0.3-1.3,0.3c-0.6,0-1.1-0.1-1.6-0.4c-0.4-0.3-0.8-0.6-1-1s-0.4-1-0.4-1.5s0.1-1,0.4-1.5s0.6-0.8,1-1.1s1-0.4,1.5-0.4
	s0.9,0.1,1.2,0.3c0.4,0.2,0.7,0.4,0.9,0.7l-0.7,0.7c-0.2-0.2-0.4-0.4-0.6-0.5s-0.5-0.2-0.9-0.2s-0.7,0.1-1,0.3s-0.5,0.4-0.6,0.7
	s-0.2,0.6-0.2,1c0,0.3,0.1,0.7,0.2,1c0.2,0.3,0.4,0.6,0.6,0.7c0.3,0.2,0.6,0.3,1,0.3c0.3,0,0.6-0.1,0.9-0.2
	C472.1,16.9,472.3,16.7,472.5,16.5z M478.3,16.5l0.6,0.6c-0.1,0.1-0.2,0.2-0.4,0.4c-0.2,0.2-0.5,0.3-0.8,0.4s-0.7,0.2-1.2,0.2
	c-0.6,0-1.1-0.1-1.5-0.4s-0.8-0.6-1-1.1s-0.4-1-0.4-1.6c0-0.5,0.1-1,0.3-1.5c0.2-0.4,0.6-0.8,1-1c0.4-0.3,0.9-0.4,1.5-0.4
	s1.2,0.2,1.6,0.5s0.7,0.7,0.9,1.2s0.3,1,0.3,1.6h-4.4c0,0.3,0.1,0.6,0.3,0.9c0.2,0.3,0.4,0.5,0.7,0.6c0.3,0.1,0.6,0.2,0.9,0.2
	c0.5,0,0.9-0.1,1.2-0.2C478,16.8,478.2,16.7,478.3,16.5z M474.7,14.7h3.3c0-0.4-0.2-0.8-0.5-1.1s-0.7-0.5-1.2-0.5
	c-0.3,0-0.6,0.1-0.9,0.2c-0.2,0.2-0.4,0.3-0.6,0.6C474.8,14.2,474.7,14.5,474.7,14.7z M480.4,18v-1.3h1.4V18H480.4z"/>
<path class="st1" d="M716.7,12.8l-4.9,5l4.7,4.9l-1.8,1.8l-4.7-4.8l-4.8,5l-1.8-1.8l4.9-5l-4.9-5l1.8-1.8l4.8,5l4.8-5L716.7,12.8z"
	/>
</svg>
