<svg width="87" height="26" viewBox="0 0 87 26" fill="none" xmlns="http://www.w3.org/2000/svg">
<path d="M11.2344 17.5V8.829H14.4844C15.2037 8.829 15.7757 8.93733 16.2004 9.154C16.6337 9.362 16.9457 9.63933 17.1364 9.986C17.3271 10.324 17.4224 10.6923 17.4224 11.091C17.4224 11.455 17.3401 11.767 17.1754 12.027C17.0194 12.287 16.8374 12.4907 16.6294 12.638C16.4301 12.7767 16.2611 12.8633 16.1224 12.898C16.1917 12.9153 16.2697 12.9413 16.3564 12.976C16.4517 13.0107 16.5471 13.0497 16.6424 13.093C16.9977 13.249 17.2924 13.4917 17.5264 13.821C17.7604 14.1503 17.8774 14.549 17.8774 15.017C17.8774 15.9097 17.5697 16.5467 16.9544 16.928C16.3477 17.3093 15.5244 17.5 14.4844 17.5H11.2344ZM13.1454 12.3H14.3024C14.5971 12.3 14.8657 12.2307 15.1084 12.092C15.3597 11.9447 15.4854 11.689 15.4854 11.325C15.4854 11.065 15.4247 10.8657 15.3034 10.727C15.1907 10.5883 15.0434 10.493 14.8614 10.441C14.6794 10.3803 14.4931 10.35 14.3024 10.35H13.1454V12.3ZM13.1454 15.992H14.4194C14.6101 15.992 14.8181 15.9703 15.0434 15.927C15.2774 15.875 15.4767 15.771 15.6414 15.615C15.8061 15.4503 15.8884 15.199 15.8884 14.861C15.8884 14.549 15.8061 14.3107 15.6414 14.146C15.4854 13.9813 15.2904 13.873 15.0564 13.821C14.8311 13.7603 14.6187 13.73 14.4194 13.73H13.1454V15.992ZM18.6638 14.445C18.6638 13.847 18.8025 13.301 19.0798 12.807C19.3571 12.313 19.7385 11.923 20.2238 11.637C20.7178 11.3423 21.2898 11.195 21.9398 11.195C22.5898 11.195 23.1575 11.3423 23.6428 11.637C24.1368 11.923 24.5181 12.313 24.7868 12.807C25.0641 13.301 25.2028 13.847 25.2028 14.445C25.2028 15.043 25.0641 15.589 24.7868 16.083C24.5181 16.577 24.1368 16.9713 23.6428 17.266C23.1575 17.5607 22.5898 17.708 21.9398 17.708C21.2898 17.708 20.7178 17.5607 20.2238 17.266C19.7385 16.9713 19.3571 16.577 19.0798 16.083C18.8025 15.589 18.6638 15.043 18.6638 14.445ZM21.9398 16.083C22.2605 16.083 22.5248 16.005 22.7328 15.849C22.9495 15.693 23.1141 15.4893 23.2268 15.238C23.3395 14.9867 23.3958 14.7223 23.3958 14.445C23.3958 14.1677 23.3395 13.9077 23.2268 13.665C23.1141 13.4137 22.9495 13.21 22.7328 13.054C22.5248 12.898 22.2605 12.82 21.9398 12.82C21.6278 12.82 21.3591 12.898 21.1338 13.054C20.9171 13.21 20.7525 13.4137 20.6398 13.665C20.5271 13.9077 20.4708 14.1677 20.4708 14.445C20.4708 14.7223 20.5271 14.9867 20.6398 15.238C20.7525 15.4893 20.9171 15.693 21.1338 15.849C21.3591 16.005 21.6278 16.083 21.9398 16.083ZM26.0398 14.445C26.0398 13.847 26.1784 13.301 26.4558 12.807C26.7331 12.313 27.1144 11.923 27.5998 11.637C28.0938 11.3423 28.6658 11.195 29.3158 11.195C29.9658 11.195 30.5334 11.3423 31.0188 11.637C31.5128 11.923 31.8941 12.313 32.1628 12.807C32.4401 13.301 32.5788 13.847 32.5788 14.445C32.5788 15.043 32.4401 15.589 32.1628 16.083C31.8941 16.577 31.5128 16.9713 31.0188 17.266C30.5334 17.5607 29.9658 17.708 29.3158 17.708C28.6658 17.708 28.0938 17.5607 27.5998 17.266C27.1144 16.9713 26.7331 16.577 26.4558 16.083C26.1784 15.589 26.0398 15.043 26.0398 14.445ZM29.3158 16.083C29.6364 16.083 29.9008 16.005 30.1088 15.849C30.3254 15.693 30.4901 15.4893 30.6028 15.238C30.7154 14.9867 30.7718 14.7223 30.7718 14.445C30.7718 14.1677 30.7154 13.9077 30.6028 13.665C30.4901 13.4137 30.3254 13.21 30.1088 13.054C29.9008 12.898 29.6364 12.82 29.3158 12.82C29.0038 12.82 28.7351 12.898 28.5098 13.054C28.2931 13.21 28.1284 13.4137 28.0158 13.665C27.9031 13.9077 27.8468 14.1677 27.8468 14.445C27.8468 14.7223 27.9031 14.9867 28.0158 15.238C28.1284 15.4893 28.2931 15.693 28.5098 15.849C28.7351 16.005 29.0038 16.083 29.3158 16.083ZM33.6888 17.5V8.829H35.5608V13.327L37.4198 11.403H39.5388L37.3548 13.652L39.8378 17.5H37.6668L36.1068 14.926L35.5608 15.485V17.5H33.6888ZM42.982 17.5V11.403H44.776L44.828 12.066C45.0274 11.8233 45.2917 11.6283 45.621 11.481C45.9504 11.3337 46.2884 11.26 46.635 11.26C47.3284 11.26 47.883 11.468 48.299 11.884C48.715 12.3 48.923 12.9153 48.923 13.73V17.5H47.051V13.99C47.051 13.652 46.9644 13.3833 46.791 13.184C46.6264 12.9847 46.3924 12.885 46.089 12.885C45.6817 12.885 45.3697 13.0193 45.153 13.288C44.945 13.5567 44.841 13.8687 44.841 14.224V17.5H42.982ZM49.9958 14.445C49.9958 13.847 50.1345 13.301 50.4118 12.807C50.6892 12.313 51.0705 11.923 51.5558 11.637C52.0498 11.3423 52.6218 11.195 53.2718 11.195C53.9218 11.195 54.4895 11.3423 54.9748 11.637C55.4688 11.923 55.8502 12.313 56.1188 12.807C56.3962 13.301 56.5348 13.847 56.5348 14.445C56.5348 15.043 56.3962 15.589 56.1188 16.083C55.8502 16.577 55.4688 16.9713 54.9748 17.266C54.4895 17.5607 53.9218 17.708 53.2718 17.708C52.6218 17.708 52.0498 17.5607 51.5558 17.266C51.0705 16.9713 50.6892 16.577 50.4118 16.083C50.1345 15.589 49.9958 15.043 49.9958 14.445ZM53.2718 16.083C53.5925 16.083 53.8568 16.005 54.0648 15.849C54.2815 15.693 54.4462 15.4893 54.5588 15.238C54.6715 14.9867 54.7278 14.7223 54.7278 14.445C54.7278 14.1677 54.6715 13.9077 54.5588 13.665C54.4462 13.4137 54.2815 13.21 54.0648 13.054C53.8568 12.898 53.5925 12.82 53.2718 12.82C52.9598 12.82 52.6912 12.898 52.4658 13.054C52.2492 13.21 52.0845 13.4137 51.9718 13.665C51.8592 13.9077 51.8028 14.1677 51.8028 14.445C51.8028 14.7223 51.8592 14.9867 51.9718 15.238C52.0845 15.4893 52.2492 15.693 52.4658 15.849C52.6912 16.005 52.9598 16.083 53.2718 16.083ZM58.9367 17.5L56.8437 11.403H58.7677L59.8337 15.316L61.0167 11.403H62.5117L63.7077 15.316L64.7737 11.403H66.6587L64.5657 17.5H62.8757L61.7317 14.094L60.6007 17.5H58.9367Z" fill="#002855"/>
<path d="M72.2664 8.6665L76.5997 12.9998L72.2664 17.3332" stroke="#002855" stroke-width="1.81212" stroke-linecap="round"/>
</svg>
