<svg width="640" height="200" viewBox="0 0 640 200" fill="none" xmlns="http://www.w3.org/2000/svg">
<path d="M640 200L0 176V200H640Z" fill="#F9DD3E"/>
<path d="M364.187 200H640L0 186.8L0 200H364.187Z" fill="url(#paint0_linear_5325_11027)"/>
<g clip-path="url(#clip0_5325_11027)">
<path d="M515.518 136.167L515.537 136.135L496.226 169.795C495.961 170.266 495.824 170.79 495.824 171.321C495.824 173.022 497.208 174.406 498.909 174.406H537.677C539.377 174.406 540.762 173.022 540.762 171.321C540.762 170.745 540.603 170.185 540.302 169.699L540.327 169.742L520.916 136.118L520.931 136.144C520.387 135.162 519.352 134.552 518.229 134.552C517.106 134.552 516.057 135.17 515.516 136.167" fill="white"/>
<path d="M535.344 165.026C535.729 165.026 536.044 165.341 536.044 165.726C536.044 166.111 535.729 166.426 535.344 166.426C534.959 166.426 534.645 166.111 534.645 165.726C534.645 165.341 534.959 165.026 535.344 165.026ZM535.344 166.272C535.622 166.272 535.843 166.049 535.843 165.726C535.843 165.403 535.622 165.18 535.344 165.18C535.066 165.18 534.846 165.403 534.846 165.726C534.846 166.049 535.064 166.272 535.344 166.272ZM535.064 165.335H535.357C535.554 165.335 535.667 165.392 535.667 165.568C535.667 165.709 535.582 165.765 535.462 165.775L535.667 166.113H535.496L535.31 165.784H535.231V166.113H535.064V165.335ZM535.368 165.653C535.447 165.653 535.502 165.64 535.502 165.551C535.502 165.471 535.417 165.461 535.351 165.461H535.233V165.653H535.368Z" fill="#007A53"/>
<path d="M534.729 163.426L519.288 136.732C519.061 136.323 518.627 136.047 518.129 136.047C517.63 136.047 517.189 136.328 516.963 136.74L506.096 155.698C509.534 155.891 511.195 154.348 512.801 152.853C514.231 151.526 515.705 150.153 518.167 150.153C521.344 150.153 522.968 153.11 523.037 153.244C523.257 153.687 523.077 154.231 522.634 154.453C522.189 154.676 521.667 154.5 521.421 154.057C521.327 153.89 520.129 151.959 518.165 151.959C516.415 151.959 515.362 152.936 514.032 154.175C512.281 155.803 509.693 157.418 505.382 156.939L501.64 163.469C501.531 163.661 501.471 163.884 501.471 164.119C501.471 164.851 502.063 165.444 502.795 165.444H518.347C518.167 165.191 516.295 162.549 516.295 162.549C515.508 161.332 516.156 160.322 516.368 160.001L518.629 156.377C518.758 156.171 518.959 156.028 519.192 155.974C519.427 155.921 519.669 155.959 519.874 156.088C520.296 156.353 520.426 156.911 520.161 157.333L517.878 160.991C517.714 161.242 517.669 161.334 517.831 161.593C518.261 162.281 520.349 165.379 520.392 165.444H533.603C534.335 165.444 534.928 164.851 534.928 164.119C534.928 163.865 534.855 163.625 534.731 163.424M528.499 156.137C528.255 156.389 527.953 156.447 527.666 156.291C527.42 156.156 526.909 155.932 526.25 155.932C525.591 155.932 524.645 156.139 523.976 156.935C523.976 156.935 520.859 160.857 520.856 160.857C520.807 160.927 520.613 161.066 520.388 161.077C520.217 161.088 520.063 161.019 519.939 160.882C519.825 160.754 519.78 160.608 519.78 160.474C519.78 160.339 519.821 160.219 519.877 160.123C521.254 157.786 521.935 156.633 521.937 156.629C523.058 154.8 524.468 154.325 525.713 154.28C525.602 153.878 525.123 152.162 525.123 152.158C525.075 151.969 525.005 151.642 525.313 151.449C525.685 151.212 525.995 151.43 526.113 151.623L528.571 155.356C528.683 155.527 528.708 155.912 528.499 156.133" fill="#007A53"/>
<path d="M526.112 151.627C525.992 151.432 525.684 151.216 525.312 151.454C525.006 151.648 525.074 151.974 525.122 152.162C525.122 152.164 525.601 153.88 525.712 154.284C524.465 154.329 523.055 154.804 521.936 156.633C521.936 156.638 521.253 157.791 519.876 160.127C519.82 160.221 519.779 160.345 519.779 160.478C519.779 160.611 519.822 160.758 519.938 160.887C520.06 161.023 520.214 161.09 520.387 161.081C520.614 161.071 520.806 160.929 520.855 160.861L523.975 156.939C524.644 156.143 525.556 155.936 526.249 155.936C526.942 155.936 527.419 156.16 527.665 156.295C527.952 156.451 528.254 156.394 528.498 156.141C528.709 155.921 528.682 155.534 528.57 155.365L526.112 151.631V151.627Z" fill="#FFA400"/>
<path d="M514.033 154.179C515.363 152.941 516.414 151.963 518.166 151.963C520.13 151.963 521.328 153.895 521.422 154.062C521.668 154.505 522.19 154.68 522.635 154.457C523.078 154.233 523.258 153.689 523.038 153.249C522.969 153.114 521.343 150.157 518.168 150.157C515.708 150.157 514.231 151.531 512.802 152.857C511.196 154.353 509.535 155.895 506.097 155.703L505.385 156.946C509.696 157.425 512.285 155.81 514.035 154.181" fill="#FFA400"/>
<path d="M517.879 160.996L520.162 157.337C520.427 156.916 520.296 156.357 519.875 156.092C519.669 155.964 519.428 155.923 519.192 155.979C518.959 156.032 518.758 156.175 518.63 156.381L516.368 160.005C516.156 160.326 515.508 161.336 516.296 162.553C516.296 162.553 518.168 165.198 518.347 165.448H520.39C520.348 165.386 518.26 162.286 517.83 161.597C517.669 161.338 517.712 161.246 517.877 160.996" fill="#FFA400"/>
<path d="M500.656 166.948H501.523L502.545 169.601H501.769L501.572 169.034H500.575L500.365 169.601H499.646L500.654 166.948H500.656ZM501.088 167.495H501.08L500.738 168.533H501.403L501.088 167.495Z" fill="#007A53"/>
<path d="M505.037 168.593C505.037 169.318 504.566 169.646 503.873 169.646C503.18 169.646 502.709 169.318 502.709 168.593V166.946H503.417V168.473C503.417 168.822 503.511 169.119 503.873 169.119C504.234 169.119 504.329 168.822 504.329 168.473V166.946H505.037V168.593Z" fill="#007A53"/>
<path d="M505.424 168.946C505.606 169.044 505.86 169.121 506.153 169.121C506.378 169.121 506.59 169.076 506.59 168.862C506.59 168.368 505.336 168.681 505.336 167.714C505.336 167.074 505.959 166.901 506.491 166.901C506.746 166.901 506.996 166.939 507.176 166.999L507.131 167.547C506.949 167.463 506.744 167.425 506.543 167.425C506.363 167.425 506.068 167.44 506.068 167.673C506.068 168.103 507.321 167.814 507.321 168.773C507.321 169.462 506.744 169.648 506.153 169.648C505.905 169.648 505.599 169.609 505.362 169.534L505.422 168.948L505.424 168.946Z" fill="#007A53"/>
<path d="M508.12 167.472H507.465V166.948H509.48V167.472H508.826V169.601H508.117V167.472H508.12Z" fill="#007A53"/>
<path d="M509.758 166.948H511.02C511.491 166.948 511.876 167.162 511.876 167.617C511.876 167.97 511.709 168.206 511.367 168.287V168.296C511.596 168.355 511.611 168.559 511.743 168.882L512.002 169.605H511.264L511.112 169.126C510.967 168.67 510.877 168.554 510.614 168.554H510.466V169.603H509.758V166.95V166.948ZM510.464 168.049H510.65C510.879 168.049 511.168 168.041 511.168 167.741C511.168 167.493 510.92 167.448 510.65 167.448H510.464V168.049Z" fill="#007A53"/>
<path d="M513.106 166.948H513.972L514.995 169.601H514.218L514.021 169.034H513.024L512.815 169.601H512.096L513.103 166.948H513.106ZM513.538 167.495H513.529L513.187 168.533H513.852L513.538 167.495Z" fill="#007A53"/>
<path d="M515.195 166.948H515.903V169.076H516.999V169.601H515.197V166.948H515.195Z" fill="#007A53"/>
<path d="M517.268 166.948H517.976V169.601H517.268V166.948Z" fill="#007A53"/>
<path d="M519.143 166.948H520.009L521.032 169.601H520.255L520.058 169.034H519.061L518.852 169.601H518.133L519.141 166.948H519.143ZM519.575 167.495H519.566L519.224 168.533H519.889L519.575 167.495Z" fill="#007A53"/>
<path d="M521.168 166.948H522.069L522.965 168.749H522.974L522.963 166.948H523.609V169.601H522.732L521.803 167.786H521.795L521.818 169.601H521.168V166.948Z" fill="#007A53"/>
<path d="M525.336 166.948H526.451L527.013 168.713H527.022L527.61 166.948H528.682V169.601H527.989L528 167.562H527.991L527.315 169.601H526.665L526.019 167.562H526.01L526.025 169.601H525.334V166.948H525.336Z" fill="#007A53"/>
<path d="M529.871 166.948H530.738L531.76 169.601H530.984L530.787 169.034H529.79L529.58 169.601H528.861L529.869 166.948H529.871ZM530.303 167.495H530.295L529.952 168.533H530.618L530.303 167.495Z" fill="#007A53"/>
<path d="M531.961 166.948H532.926C533.85 166.948 534.496 167.236 534.496 168.263C534.496 169.29 533.831 169.603 532.926 169.603H531.961V166.95V166.948ZM532.669 169.076H532.943C533.471 169.076 533.769 168.803 533.769 168.274C533.769 167.746 533.461 167.472 532.943 167.472H532.669V169.076Z" fill="#007A53"/>
<path d="M534.824 166.948H536.694V167.45H535.53V167.998H536.63V168.501H535.53V169.102H536.735V169.605H534.822V166.952L534.824 166.948Z" fill="#007A53"/>
<path d="M507.209 170.208H508.076L509.098 172.861H508.322L508.125 172.294H507.128L506.918 172.861H506.199L507.207 170.208H507.209ZM507.641 170.756H507.633L507.29 171.794H507.956L507.641 170.756Z" fill="#007A53"/>
<path d="M509.309 170.208H510.209L511.106 172.01H511.114L511.104 170.208H511.75V172.861H510.871L509.942 171.047H509.934L509.957 172.861H509.307V170.208H509.309Z" fill="#007A53"/>
<path d="M512.18 170.208H513.145C514.069 170.208 514.715 170.497 514.715 171.524C514.715 172.551 514.05 172.863 513.145 172.863H512.18V170.21V170.208ZM512.886 172.337H513.16C513.688 172.337 513.985 172.063 513.985 171.535C513.985 171.006 513.677 170.732 513.16 170.732H512.886V172.337Z" fill="#007A53"/>
<path d="M517.382 170.163C518.257 170.163 518.712 170.683 518.712 171.537C518.712 172.39 518.248 172.908 517.382 172.908C516.515 172.908 516.051 172.38 516.051 171.537C516.051 170.694 516.506 170.163 517.382 170.163ZM517.382 172.384C517.812 172.384 517.983 171.973 517.983 171.537C517.983 171.077 517.812 170.69 517.382 170.69C516.951 170.69 516.78 171.077 516.78 171.537C516.78 171.997 516.951 172.384 517.382 172.384Z" fill="#007A53"/>
<path d="M518.662 170.208H519.385L519.728 172.247H519.736L520.093 170.208H520.99L521.362 172.247H521.371L521.717 170.208H522.406L521.814 172.861H520.904L520.528 170.822H520.519L520.17 172.861H519.255L518.666 170.208H518.662Z" fill="#007A53"/>
<path d="M522.617 170.208H523.518L524.415 172.01H524.421L524.41 170.208H525.056V172.861H524.177L523.251 171.047H523.242L523.266 172.861H522.615V170.208H522.617Z" fill="#007A53"/>
<path d="M525.469 170.208H527.341V170.711H526.177V171.259H527.274V171.761H526.177V172.363H527.381V172.865H525.469V170.212V170.208Z" fill="#007A53"/>
<path d="M527.658 170.208H528.623C529.547 170.208 530.193 170.497 530.193 171.524C530.193 172.551 529.528 172.863 528.623 172.863H527.658V170.21V170.208ZM528.366 172.337H528.64C529.169 172.337 529.466 172.063 529.466 171.535C529.466 171.006 529.158 170.732 528.64 170.732H528.366V172.337Z" fill="#007A53"/>
</g>
<line x1="554.524" y1="129.513" x2="554.524" y2="179.871" stroke="#A7A9B3" stroke-width="0.419651"/>
<path d="M619.097 156.302H620.47V174.382H619.097V156.302ZM614.504 165.337V168.667C614.504 169.241 614.413 169.816 614.23 170.372C614.047 170.927 613.775 171.433 613.42 171.877C613.065 172.319 612.618 172.679 612.091 172.948C611.565 173.216 610.947 173.352 610.254 173.352C609.717 173.352 609.185 173.255 608.675 173.065C608.167 172.876 607.714 172.56 607.325 172.127C606.935 171.694 606.619 171.121 606.385 170.425C606.151 169.727 606.031 168.858 606.031 167.843C606.031 166.915 606.145 166.1 606.372 165.42C606.598 164.741 606.905 164.173 607.286 163.73C607.666 163.29 608.108 162.957 608.599 162.74C609.092 162.524 609.623 162.414 610.174 162.414C611.073 162.414 611.897 162.682 612.625 163.211C613.352 163.739 613.983 164.455 614.505 165.337H614.504ZM614.534 163.753C614.375 163.494 614.183 163.235 613.962 162.978C613.684 162.655 613.349 162.355 612.966 162.088C612.581 161.819 612.143 161.597 611.66 161.427C611.176 161.257 610.632 161.171 610.042 161.171C609.309 161.171 608.61 161.321 607.967 161.617C607.322 161.913 606.746 162.354 606.255 162.926C605.764 163.499 605.371 164.206 605.086 165.026C604.801 165.847 604.657 166.794 604.657 167.844C604.657 169.036 604.797 170.068 605.072 170.914C605.348 171.763 605.737 172.47 606.229 173.017C606.721 173.564 607.312 173.969 607.984 174.22C608.654 174.47 609.39 174.597 610.174 174.597C611.193 174.597 612.088 174.342 612.831 173.84C613.497 173.389 614.059 172.793 614.503 172.066V173.697C614.503 174.57 614.402 175.323 614.202 175.934C614.003 176.539 613.722 177.035 613.37 177.408C613.018 177.778 612.587 178.048 612.088 178.212C611.584 178.378 611.011 178.462 610.386 178.462C609.566 178.462 608.8 178.364 608.111 178.172C607.419 177.979 606.822 177.748 606.335 177.486L606.254 177.443L605.888 178.575L605.944 178.604C606.441 178.871 607.075 179.123 607.83 179.354C608.587 179.586 609.429 179.704 610.334 179.704C612.063 179.704 613.434 179.204 614.41 178.218C615.384 177.232 615.878 175.719 615.878 173.722V161.384H614.832L614.533 163.754L614.534 163.753ZM601.34 167.759V169.119C601.34 169.638 601.235 170.157 601.028 170.658C600.819 171.161 600.517 171.623 600.127 172.031C599.737 172.439 599.25 172.773 598.679 173.025C598.108 173.277 597.44 173.404 596.692 173.404C596.312 173.404 595.944 173.352 595.599 173.248C595.256 173.146 594.953 172.985 594.697 172.771C594.441 172.557 594.238 172.285 594.094 171.96C593.948 171.635 593.874 171.243 593.874 170.794C593.874 169.744 594.216 168.968 594.891 168.49C595.573 168.004 596.715 167.759 598.284 167.759H601.34ZM597.965 161.168C597.06 161.168 596.223 161.28 595.474 161.504C594.728 161.726 594.107 161.984 593.626 162.269L593.574 162.301L593.913 163.352L593.994 163.307C594.5 163.028 595.08 162.797 595.715 162.622C596.353 162.448 597.11 162.359 597.965 162.359C599.055 162.359 599.9 162.612 600.477 163.111C601.049 163.608 601.339 164.493 601.339 165.739V166.567H598.283C596.417 166.567 594.982 166.922 594.017 167.62C593.045 168.323 592.552 169.391 592.552 170.794C592.552 171.405 592.657 171.953 592.864 172.42C593.071 172.889 593.363 173.291 593.732 173.617C594.101 173.941 594.543 174.188 595.047 174.351C595.547 174.513 596.091 174.595 596.663 174.595C597.768 174.595 598.738 174.35 599.543 173.865C600.284 173.419 600.898 172.796 601.367 172.014L601.666 174.381H602.685V165.739C602.685 164.342 602.29 163.22 601.51 162.401C600.73 161.583 599.537 161.168 597.965 161.168Z" fill="white"/>
<path d="M572.746 139.643C571.815 140.391 571.665 141.766 572.411 142.697L584.123 157.324C584.869 158.257 586.242 158.408 587.171 157.66C588.102 156.911 588.252 155.536 587.506 154.605L575.794 139.978C575.367 139.444 574.736 139.167 574.099 139.167C573.623 139.167 573.144 139.323 572.746 139.643" fill="white"/>
<path d="M567.94 164.01C567.743 165.189 568.545 166.314 569.721 166.511L583.278 168.777C584.454 168.973 585.577 168.17 585.774 166.991C585.97 165.811 585.168 164.686 583.992 164.489L570.436 162.223C570.317 162.203 570.197 162.194 570.08 162.194C569.041 162.194 568.116 162.95 567.94 164.009" fill="white"/>
<path d="M589.993 129.695C588.808 129.834 587.952 130.917 588.089 132.105L590.249 150.733C590.387 151.921 591.469 152.778 592.653 152.64C593.837 152.502 594.694 151.418 594.556 150.231L592.397 131.603C592.268 130.5 591.325 129.681 590.242 129.681C590.16 129.681 590.076 129.686 589.992 129.695" fill="white"/>
<path d="M602.939 135.955L597.811 150.035C597.403 151.158 597.984 152.412 599.104 152.821C600.225 153.23 601.477 152.648 601.885 151.524L607.013 137.444C607.422 136.321 606.84 135.067 605.72 134.658C605.476 134.569 605.228 134.527 604.982 134.527C604.096 134.527 603.26 135.075 602.939 135.955Z" fill="white"/>
<path d="M611.214 146.186L605.292 152.734C604.491 153.619 604.558 155 605.442 155.803C606.325 156.605 607.703 156.537 608.504 155.651L614.427 149.104C615.227 148.219 615.16 146.838 614.277 146.035C613.863 145.659 613.342 145.475 612.822 145.475C612.231 145.475 611.64 145.714 611.214 146.185" fill="white"/>
<defs>
<linearGradient id="paint0_linear_5325_11027" x1="-3.82529" y1="200.208" x2="799.31" y2="191.27" gradientUnits="userSpaceOnUse">
<stop offset="0.238363" stop-color="#00CEED"/>
<stop offset="0.473958" stop-color="#0076BF"/>
<stop offset="0.733675" stop-color="#00168D"/>
</linearGradient>
<clipPath id="clip0_5325_11027">
<rect width="45.3715" height="40.2026" fill="white" transform="translate(495.562 134.339)"/>
</clipPath>
</defs>
</svg>
