<?xml version="1.0" encoding="UTF-8"?>
<svg id="Layer_1" data-name="Layer 1" xmlns="http://www.w3.org/2000/svg" version="1.1" viewBox="0 0 73 28">
  <path d="M72.5,8.7c0,4.8-3.9,8.7-8.7,8.7h-6v10.1h-6.8V0h12.7c4.9,0,8.8,3.9,8.8,8.7ZM62.7,5.7h-4.8v5.7h4.8c1.5,0,2.7-1.4,2.7-2.8s-1.2-2.9-2.7-2.9ZM40.2,0v11.2h-9.5V0h-6.8v27.6h6.8v-10.1h9.5v10.1h6.8V0h-6.8ZM21.2,20.1c0,4.6-4.1,7.5-8.5,7.5H0V0h12.3c4.5,0,8.2,3.3,8.2,7.4s-1.5,5-3.6,6.3c2.4,1,4.3,2.6,4.3,6.4ZM11.4,16.5h-4.5v5.3h4.5c1.8,0,2.7-1.2,2.7-2.7s-1.3-2.7-2.7-2.7ZM10.7,5.7h-3.9v5.7h3.9c1.8,0,2.7-1.4,2.7-2.8s-1-2.9-2.7-2.9Z" fill="#dd5900" stroke-width="0"/>
</svg>