<svg width="238" height="26" viewBox="0 0 238 26" fill="none" xmlns="http://www.w3.org/2000/svg">
<path d="M8.125 20.25C3.25 20.25 1.2 17.825 0.95 14.45H4.15C4.375 16.25 5.1 17.75 8.125 17.75C10.1 17.75 11.5 16.65 11.5 15C11.5 13.35 10.675 12.725 7.775 12.25C3.5 11.675 1.475 10.375 1.475 7.025C1.475 4.1 3.975 1.9 7.7 1.9C11.55 1.9 13.85 3.65 14.2 7.075H11.15C10.825 5.2 9.75 4.4 7.7 4.4C5.675 4.4 4.625 5.375 4.625 6.75C4.625 8.2 5.225 8.925 8.325 9.375C12.525 9.95 14.7 11.15 14.7 14.725C14.7 17.825 12.075 20.25 8.125 20.25ZM22.9191 20.25C19.0691 20.25 16.2941 17.725 16.2941 13.6V13.4C16.2941 9.35 19.0691 6.65 22.7941 6.65C26.0441 6.65 28.9691 8.575 28.9691 13.25V14.125H19.3941C19.4941 16.6 20.7441 18 22.9941 18C24.8191 18 25.7691 17.275 25.9941 16H28.9191C28.4941 18.75 26.2691 20.25 22.9191 20.25ZM19.4441 12.1H25.9691C25.8191 9.85 24.6691 8.85 22.7941 8.85C20.9691 8.85 19.7441 10.075 19.4441 12.1ZM36.7461 24.8C32.6461 24.8 30.7961 22.95 30.4461 20.45H33.4961C33.7461 21.75 34.7461 22.5 36.7211 22.5C39.0711 22.5 40.3711 21.325 40.3711 18.975V17.05C39.6461 18.3 38.0211 19.475 36.0961 19.475C32.8211 19.475 30.2961 17.025 30.2961 13.25V13.075C30.2961 9.4 32.7961 6.65 36.1711 6.65C38.3211 6.65 39.6211 7.625 40.3711 8.925V6.925H43.3961V19.025C43.3711 22.875 40.7961 24.8 36.7461 24.8ZM36.8461 17.15C38.9461 17.15 40.4711 15.65 40.4711 13.15V12.975C40.4711 10.5 39.1211 9.025 36.9461 9.025C34.6961 9.025 33.3961 10.65 33.3961 13.025V13.225C33.3961 15.65 34.8961 17.15 36.8461 17.15ZM50.8664 20.25C48.2914 20.25 46.3664 18.775 46.3664 15.3V6.925H49.3914V14.95C49.3914 16.925 50.2164 17.825 51.9664 17.825C53.5914 17.825 55.0164 16.775 55.0164 14.7V6.925H58.0414V20H55.0164V17.95C54.3664 19.225 52.9914 20.25 50.8664 20.25ZM61.1281 20V6.925H64.1531V9.375C64.9781 7.725 66.2031 6.75 68.4031 6.725V9.55C65.7531 9.575 64.1531 10.425 64.1531 13.2V20H61.1281ZM73.7455 20.25C71.3455 20.25 69.3705 19.1 69.3705 16.375C69.3705 13.325 72.3205 12.225 76.0705 12.225H77.6955V11.55C77.6955 9.8 77.0955 8.925 75.3205 8.925C73.7455 8.925 72.9705 9.675 72.8205 10.975H69.8955C70.1455 7.925 72.5705 6.65 75.4955 6.65C78.4205 6.65 80.7205 7.85 80.7205 11.425V20H77.7455V18.4C76.8955 19.525 75.7455 20.25 73.7455 20.25ZM74.4705 18.075C76.3205 18.075 77.6955 17.1 77.6955 15.425V14.125H76.1455C73.8455 14.125 72.3705 14.65 72.3705 16.25C72.3705 17.35 72.9705 18.075 74.4705 18.075ZM83.6877 20V6.925H86.7127V9C87.3377 7.725 88.7877 6.65 90.9377 6.65C93.5627 6.65 95.4127 8.175 95.4127 11.775V20H92.3877V12.05C92.3877 10.075 91.5877 9.175 89.7877 9.175C88.0877 9.175 86.7127 10.225 86.7127 12.3V20H83.6877ZM103.673 25.475C102.098 25.475 101.073 24.625 100.923 23.275H102.573C102.648 23.7 102.973 24.1 103.573 24.1C104.148 24.1 104.498 23.75 104.498 23.25C104.498 22.775 104.148 22.45 103.623 22.45C103.273 22.45 103.023 22.575 102.873 22.675L102.023 21.875L103.023 20.175C99.8226 19.75 97.5226 17.4 97.5226 13.625V13.425C97.5226 9.275 100.473 6.65 104.123 6.65C107.023 6.65 109.748 7.95 110.098 11.55H107.173C106.923 9.8 105.773 9.075 104.173 9.075C102.098 9.075 100.623 10.675 100.623 13.375V13.575C100.623 16.425 102.023 17.925 104.248 17.925C105.848 17.925 107.223 16.975 107.398 15.125H110.173C109.948 18.025 107.823 20.1 104.473 20.25L103.898 21.25C105.148 21.1 106.398 21.75 106.398 23.325C106.398 24.725 105.223 25.475 103.673 25.475ZM115.703 20.25C113.303 20.25 111.328 19.1 111.328 16.375C111.328 13.325 114.278 12.225 118.028 12.225H119.653V11.55C119.653 9.8 119.053 8.925 117.278 8.925C115.703 8.925 114.928 9.675 114.778 10.975H111.853C112.103 7.925 114.528 6.65 117.453 6.65C120.378 6.65 122.678 7.85 122.678 11.425V20H119.703V18.4C118.853 19.525 117.703 20.25 115.703 20.25ZM116.428 18.075C118.278 18.075 119.653 17.1 119.653 15.425V14.125H118.103C115.803 14.125 114.328 14.65 114.328 16.25C114.328 17.35 114.928 18.075 116.428 18.075ZM134.527 20.25C132.127 20.25 130.152 19.1 130.152 16.375C130.152 13.325 133.102 12.225 136.852 12.225H138.477V11.55C138.477 9.8 137.877 8.925 136.102 8.925C134.527 8.925 133.752 9.675 133.602 10.975H130.677C130.927 7.925 133.352 6.65 136.277 6.65C139.202 6.65 141.502 7.85 141.502 11.425V20H138.527V18.4C137.677 19.525 136.527 20.25 134.527 20.25ZM135.252 18.075C137.102 18.075 138.477 17.1 138.477 15.425V14.125H136.927C134.627 14.125 133.152 14.65 133.152 16.25C133.152 17.35 133.752 18.075 135.252 18.075ZM144.544 20V0.875H147.569V20H144.544ZM150.831 20V6.925H153.856V20H150.831ZM152.306 4.775C151.306 4.775 150.506 4.025 150.506 3.05C150.506 2.05 151.306 1.3 152.306 1.3C153.306 1.3 154.106 2.05 154.106 3.05C154.106 4.025 153.306 4.775 152.306 4.775ZM157.043 20V6.925H160.068V8.925C160.693 7.7 162.118 6.65 164.043 6.65C165.743 6.65 167.093 7.375 167.743 9C168.743 7.375 170.543 6.65 172.168 6.65C174.568 6.65 176.518 8.125 176.518 11.725V20H173.493V11.925C173.493 10 172.668 9.175 171.168 9.175C169.668 9.175 168.293 10.175 168.293 12.175V20H165.268V11.925C165.268 10 164.418 9.175 162.943 9.175C161.443 9.175 160.068 10.175 160.068 12.175V20H157.043ZM185.242 20.25C181.392 20.25 178.617 17.725 178.617 13.6V13.4C178.617 9.35 181.392 6.65 185.117 6.65C188.367 6.65 191.292 8.575 191.292 13.25V14.125H181.717C181.817 16.6 183.067 18 185.317 18C187.142 18 188.092 17.275 188.317 16H191.242C190.817 18.75 188.592 20.25 185.242 20.25ZM181.767 12.1H188.292C188.142 9.85 186.992 8.85 185.117 8.85C183.292 8.85 182.067 10.075 181.767 12.1ZM193.494 20V6.925H196.519V9C197.144 7.725 198.594 6.65 200.744 6.65C203.369 6.65 205.219 8.175 205.219 11.775V20H202.194V12.05C202.194 10.075 201.394 9.175 199.594 9.175C197.894 9.175 196.519 10.225 196.519 12.3V20H193.494ZM212.654 20.225C210.054 20.225 208.704 18.825 208.704 16.35V9.2H206.954V6.925H208.704V4.05H211.729V6.925H214.604V9.2H211.729V16.075C211.729 17.225 212.279 17.75 213.229 17.75C213.829 17.75 214.279 17.675 214.704 17.5V19.9C214.229 20.075 213.579 20.225 212.654 20.225ZM220.48 20.25C218.08 20.25 216.105 19.1 216.105 16.375C216.105 13.325 219.055 12.225 222.805 12.225H224.43V11.55C224.43 9.8 223.83 8.925 222.055 8.925C220.48 8.925 219.705 9.675 219.555 10.975H216.63C216.88 7.925 219.305 6.65 222.23 6.65C225.155 6.65 227.455 7.85 227.455 11.425V20H224.48V18.4C223.63 19.525 222.48 20.25 220.48 20.25ZM221.205 18.075C223.055 18.075 224.43 17.1 224.43 15.425V14.125H222.88C220.58 14.125 219.105 14.65 219.105 16.25C219.105 17.35 219.705 18.075 221.205 18.075ZM230.422 20V6.925H233.447V9.375C234.272 7.725 235.497 6.75 237.697 6.725V9.55C235.047 9.575 233.447 10.425 233.447 13.2V20H230.422Z" fill="black"/>
</svg>
