<svg width="168" height="25" viewBox="0 0 168 25" fill="none" xmlns="http://www.w3.org/2000/svg">
<path d="M0.8 24.475V6.925H3.825V9.025C4.55 7.775 6.175 6.65 8.1 6.65C11.375 6.65 13.9 9.075 13.9 13.3V13.5C13.9 17.7 11.475 20.25 8.1 20.25C6.025 20.25 4.525 19.225 3.825 17.95V24.475H0.8ZM7.35 17.85C9.575 17.85 10.8 16.35 10.8 13.55V13.35C10.8 10.45 9.3 9.025 7.325 9.025C5.225 9.025 3.725 10.45 3.725 13.35V13.55C3.725 16.475 5.15 17.85 7.35 17.85ZM19.5453 20.25C17.1453 20.25 15.1703 19.1 15.1703 16.375C15.1703 13.325 18.1203 12.225 21.8703 12.225H23.4953V11.55C23.4953 9.8 22.8953 8.925 21.1203 8.925C19.5453 8.925 18.7703 9.675 18.6203 10.975H15.6953C15.9453 7.925 18.3703 6.65 21.2953 6.65C24.2203 6.65 26.5203 7.85 26.5203 11.425V20H23.5453V18.4C22.6953 19.525 21.5453 20.25 19.5453 20.25ZM20.2703 18.075C22.1203 18.075 23.4953 17.1 23.4953 15.425V14.125H21.9453C19.6453 14.125 18.1703 14.65 18.1703 16.25C18.1703 17.35 18.7703 18.075 20.2703 18.075ZM29.4875 20V6.925H32.5125V9.375C33.3375 7.725 34.5625 6.75 36.7625 6.725V9.55C34.1125 9.575 32.5125 10.425 32.5125 13.2V20H29.4875ZM42.1049 20.25C39.7049 20.25 37.7299 19.1 37.7299 16.375C37.7299 13.325 40.6799 12.225 44.4299 12.225H46.0549V11.55C46.0549 9.8 45.4549 8.925 43.6799 8.925C42.1049 8.925 41.3299 9.675 41.1799 10.975H38.2549C38.5049 7.925 40.9299 6.65 43.8549 6.65C46.7799 6.65 49.0799 7.85 49.0799 11.425V20H46.1049V18.4C45.2549 19.525 44.1049 20.25 42.1049 20.25ZM42.8299 18.075C44.6799 18.075 46.0549 17.1 46.0549 15.425V14.125H44.5049C42.2049 14.125 40.7299 14.65 40.7299 16.25C40.7299 17.35 41.3299 18.075 42.8299 18.075ZM63.3541 17.9C65.6041 17.9 66.9541 16.225 66.9541 13.55V13.375C66.9541 10.675 65.6041 9.025 63.3541 9.025C61.1041 9.025 59.7291 10.65 59.7291 13.35V13.55C59.7291 16.225 61.0541 17.9 63.3541 17.9ZM63.3291 20.25C59.4791 20.25 56.6291 17.575 56.6291 13.6V13.4C56.6291 9.35 59.5041 6.65 63.3541 6.65C67.1791 6.65 70.0541 9.325 70.0541 13.325V13.525C70.0541 17.6 67.1791 20.25 63.3291 20.25ZM77.7443 24.475V6.925H80.7693V9.025C81.4943 7.775 83.1193 6.65 85.0443 6.65C88.3193 6.65 90.8443 9.075 90.8443 13.3V13.5C90.8443 17.7 88.4193 20.25 85.0443 20.25C82.9693 20.25 81.4693 19.225 80.7693 17.95V24.475H77.7443ZM84.2943 17.85C86.5193 17.85 87.7443 16.35 87.7443 13.55V13.35C87.7443 10.45 86.2443 9.025 84.2693 9.025C82.1693 9.025 80.6693 10.45 80.6693 13.35V13.55C80.6693 16.475 82.0943 17.85 84.2943 17.85ZM93.1396 20V0.875H96.1646V20H93.1396ZM102.777 20.25C100.377 20.25 98.4018 19.1 98.4018 16.375C98.4018 13.325 101.352 12.225 105.102 12.225H106.727V11.55C106.727 9.8 106.127 8.925 104.352 8.925C102.777 8.925 102.002 9.675 101.852 10.975H98.9268C99.1768 7.925 101.602 6.65 104.527 6.65C107.452 6.65 109.752 7.85 109.752 11.425V20H106.777V18.4C105.927 19.525 104.777 20.25 102.777 20.25ZM103.502 18.075C105.352 18.075 106.727 17.1 106.727 15.425V14.125H105.177C102.877 14.125 101.402 14.65 101.402 16.25C101.402 17.35 102.002 18.075 103.502 18.075ZM112.719 20V6.925H115.744V9C116.369 7.725 117.819 6.65 119.969 6.65C122.594 6.65 124.444 8.175 124.444 11.775V20H121.419V12.05C121.419 10.075 120.619 9.175 118.819 9.175C117.119 9.175 115.744 10.225 115.744 12.3V20H112.719ZM133.179 20.25C129.329 20.25 126.554 17.725 126.554 13.6V13.4C126.554 9.35 129.329 6.65 133.054 6.65C136.304 6.65 139.229 8.575 139.229 13.25V14.125H129.654C129.754 16.6 131.004 18 133.254 18C135.079 18 136.029 17.275 136.254 16H139.179C138.754 18.75 136.529 20.25 133.179 20.25ZM129.704 12.1H136.229C136.079 9.85 134.929 8.85 133.054 8.85C131.229 8.85 130.004 10.075 129.704 12.1ZM145.881 20.225C143.281 20.225 141.931 18.825 141.931 16.35V9.2H140.181V6.925H141.931V4.05H144.956V6.925H147.831V9.2H144.956V16.075C144.956 17.225 145.506 17.75 146.456 17.75C147.056 17.75 147.506 17.675 147.931 17.5V19.9C147.456 20.075 146.806 20.225 145.881 20.225ZM153.706 20.25C151.306 20.25 149.331 19.1 149.331 16.375C149.331 13.325 152.281 12.225 156.031 12.225H157.656V11.55C157.656 9.8 157.056 8.925 155.281 8.925C153.706 8.925 152.931 9.675 152.781 10.975H149.856C150.106 7.925 152.531 6.65 155.456 6.65C158.381 6.65 160.681 7.85 160.681 11.425V20H157.706V18.4C156.856 19.525 155.706 20.25 153.706 20.25ZM154.431 18.075C156.281 18.075 157.656 17.1 157.656 15.425V14.125H156.106C153.806 14.125 152.331 14.65 152.331 16.25C152.331 17.35 152.931 18.075 154.431 18.075ZM165.449 20.175C164.349 20.175 163.474 19.325 163.474 18.225C163.474 17.125 164.349 16.25 165.449 16.25C166.574 16.25 167.449 17.125 167.449 18.225C167.449 19.325 166.574 20.175 165.449 20.175Z" fill="black"/>
</svg>
