<svg width="100" height="20" viewBox="0 0 100 20" fill="none" xmlns="http://www.w3.org/2000/svg">
<path d="M0.0499999 19.6234V1.74841H5.8C9.8 1.74841 12.425 3.52341 12.425 7.27341V7.37341C12.425 11.1484 9.7 12.8234 5.875 12.8234H3.375V19.6234H0.0499999ZM3.375 10.4234H5.8C8 10.4234 9.175 9.34841 9.175 7.37341V7.27341C9.175 5.14841 7.925 4.32341 5.8 4.32341H3.375V10.4234ZM20.0182 17.5234C22.2682 17.5234 23.6182 15.8484 23.6182 13.1734V12.9984C23.6182 10.2984 22.2682 8.64841 20.0182 8.64841C17.7682 8.64841 16.3932 10.2734 16.3932 12.9734V13.1734C16.3932 15.8484 17.7182 17.5234 20.0182 17.5234ZM19.9932 19.8734C16.1432 19.8734 13.2932 17.1984 13.2932 13.2234V13.0234C13.2932 8.97341 16.1682 6.27341 20.0182 6.27341C23.8432 6.27341 26.7182 8.94841 26.7182 12.9484V13.1484C26.7182 17.2234 23.8432 19.8734 19.9932 19.8734ZM33.4014 19.8484C30.8014 19.8484 29.4514 18.4484 29.4514 15.9734V8.82341H27.7014V6.54841H29.4514V3.67341H32.4764V6.54841H35.3514V8.82341H32.4764V15.6984C32.4764 16.8484 33.0264 17.3734 33.9764 17.3734C34.5764 17.3734 35.0264 17.2984 35.4514 17.1234V19.5234C34.9764 19.6984 34.3264 19.8484 33.4014 19.8484ZM41.2269 19.8734C38.8269 19.8734 36.8519 18.7234 36.8519 15.9984C36.8519 12.9484 39.8019 11.8484 43.5519 11.8484H45.1769V11.1734C45.1769 9.42341 44.5769 8.54841 42.8019 8.54841C41.2269 8.54841 40.4519 9.29841 40.3019 10.5984H37.3769C37.6269 7.54841 40.0519 6.27341 42.9769 6.27341C45.9019 6.27341 48.2019 7.47341 48.2019 11.0484V19.6234H45.2269V18.0234C44.3769 19.1484 43.2269 19.8734 41.2269 19.8734ZM41.9519 17.6984C43.8019 17.6984 45.1769 16.7234 45.1769 15.0484V13.7484H43.6269C41.3269 13.7484 39.8519 14.2734 39.8519 15.8734C39.8519 16.9734 40.4519 17.6984 41.9519 17.6984ZM41.7269 4.59841L43.2019 0.723413H46.5519L43.9519 4.59841H41.7269ZM55.6441 19.8734C52.2691 19.8734 50.2941 18.3234 50.1691 15.5484H53.0191C53.1691 16.8734 53.8441 17.6484 55.6191 17.6484C57.2441 17.6484 57.9691 17.0734 57.9691 15.9734C57.9691 14.8984 57.0941 14.4984 55.1691 14.1734C51.7191 13.6234 50.4441 12.6484 50.4441 10.1984C50.4441 7.57341 52.8941 6.27341 55.3441 6.27341C58.0191 6.27341 60.1441 7.27341 60.4691 10.2234H57.6691C57.4191 9.02341 56.7441 8.47341 55.3441 8.47341C54.0441 8.47341 53.2691 9.09841 53.2691 10.0234C53.2691 10.9734 53.8941 11.3484 55.9691 11.6984C59.0441 12.1734 60.8691 12.9234 60.8691 15.6984C60.8691 18.3484 58.9941 19.8734 55.6441 19.8734ZM67.4977 19.8734C64.1227 19.8734 62.1477 18.3234 62.0227 15.5484H64.8727C65.0227 16.8734 65.6977 17.6484 67.4727 17.6484C69.0977 17.6484 69.8227 17.0734 69.8227 15.9734C69.8227 14.8984 68.9477 14.4984 67.0227 14.1734C63.5727 13.6234 62.2977 12.6484 62.2977 10.1984C62.2977 7.57341 64.7477 6.27341 67.1977 6.27341C69.8727 6.27341 71.9977 7.27341 72.3227 10.2234H69.5227C69.2727 9.02341 68.5977 8.47341 67.1977 8.47341C65.8977 8.47341 65.1227 9.09841 65.1227 10.0234C65.1227 10.9734 65.7477 11.3484 67.8227 11.6984C70.8977 12.1734 72.7227 12.9234 72.7227 15.6984C72.7227 18.3484 70.8477 19.8734 67.4977 19.8734ZM74.9512 19.6234V6.54841H77.9762V19.6234H74.9512ZM76.4262 4.39841C75.4262 4.39841 74.6262 3.64841 74.6262 2.67341C74.6262 1.67341 75.4262 0.923414 76.4262 0.923414C77.4262 0.923414 78.2262 1.67341 78.2262 2.67341C78.2262 3.64841 77.4262 4.39841 76.4262 4.39841ZM87.0133 17.5234C89.2633 17.5234 90.6133 15.8484 90.6133 13.1734V12.9984C90.6133 10.2984 89.2633 8.64841 87.0133 8.64841C84.7633 8.64841 83.3883 10.2734 83.3883 12.9734V13.1734C83.3883 15.8484 84.7133 17.5234 87.0133 17.5234ZM86.9883 19.8734C83.1383 19.8734 80.2883 17.1984 80.2883 13.2234V13.0234C80.2883 8.97341 83.1633 6.27341 87.0133 6.27341C90.8383 6.27341 93.7133 8.94841 93.7133 12.9484V13.1484C93.7133 17.2234 90.8383 19.8734 86.9883 19.8734ZM97.1117 19.7984C96.0117 19.7984 95.1367 18.9484 95.1367 17.8484C95.1367 16.7484 96.0117 15.8734 97.1117 15.8734C98.2367 15.8734 99.1117 16.7484 99.1117 17.8484C99.1117 18.9484 98.2367 19.7984 97.1117 19.7984Z" fill="black"/>
</svg>
