<svg width="173" height="25" viewBox="0 0 173 25" fill="none" xmlns="http://www.w3.org/2000/svg">
<path d="M9.25 17.1984C12.625 17.1984 14.75 14.6234 14.75 10.7484V10.5484C14.75 6.87341 12.7 4.14841 9.2 4.14841C5.7 4.14841 3.625 6.72341 3.625 10.5734V10.7734C3.625 14.6734 6 17.1984 9.25 17.1984ZM9.2 19.8734C3.725 19.8734 0.15 15.9484 0.15 10.7984V10.5984C0.15 5.37341 3.9 1.49841 9.2 1.49841C14.525 1.49841 18.2 5.27341 18.2 10.5234V10.7234C18.2 15.9484 14.625 19.8734 9.2 19.8734ZM26.6434 19.6234V8.82341H24.8684V6.54841H26.6434V4.79841C26.6434 1.92341 28.2434 0.373414 31.0434 0.373414C31.7684 0.373414 32.2184 0.448414 32.7684 0.623413V2.97341C32.4184 2.84841 31.9434 2.74841 31.3934 2.74841C30.1684 2.74841 29.6684 3.54841 29.6684 4.67341V6.54841H32.6434V8.82341H29.6684V19.6234H26.6434ZM39.051 19.8734C36.476 19.8734 34.551 18.3984 34.551 14.9234V6.54841H37.576V14.5734C37.576 16.5484 38.401 17.4484 40.151 17.4484C41.776 17.4484 43.201 16.3984 43.201 14.3234V6.54841H46.226V19.6234H43.201V17.5734C42.551 18.8484 41.176 19.8734 39.051 19.8734ZM53.7627 19.8484C51.1627 19.8484 49.8127 18.4484 49.8127 15.9734V8.82341H48.0627V6.54841H49.8127V3.67341H52.8377V6.54841H55.7127V8.82341H52.8377V15.6984C52.8377 16.8484 53.3877 17.3734 54.3377 17.3734C54.9377 17.3734 55.3877 17.2984 55.8127 17.1234V19.5234C55.3377 19.6984 54.6877 19.8484 53.7627 19.8484ZM62.4162 19.8734C59.8412 19.8734 57.9162 18.3984 57.9162 14.9234V6.54841H60.9412V14.5734C60.9412 16.5484 61.7662 17.4484 63.5162 17.4484C65.1412 17.4484 66.5662 16.3984 66.5662 14.3234V6.54841H69.5912V19.6234H66.5662V17.5734C65.9162 18.8484 64.5412 19.8734 62.4162 19.8734ZM72.6779 19.6234V6.54841H75.7029V8.99841C76.5279 7.34841 77.7529 6.37341 79.9529 6.34841V9.17341C77.3029 9.19841 75.7029 10.0484 75.7029 12.8234V19.6234H72.6779ZM87.7203 17.5234C89.9703 17.5234 91.3203 15.8484 91.3203 13.1734V12.9984C91.3203 10.2984 89.9703 8.64841 87.7203 8.64841C85.4703 8.64841 84.0953 10.2734 84.0953 12.9734V13.1734C84.0953 15.8484 85.4203 17.5234 87.7203 17.5234ZM87.6953 19.8734C83.8453 19.8734 80.9953 17.1984 80.9953 13.2234V13.0234C80.9953 8.97341 83.8703 6.27341 87.7203 6.27341C91.5453 6.27341 94.4203 8.94841 94.4203 12.9484V13.1484C94.4203 17.2234 91.5453 19.8734 87.6953 19.8734ZM100.386 24.3234V21.9984C101.711 21.8984 102.186 21.2484 102.186 20.1484V6.54841H105.211V20.0734C105.211 22.7234 104.011 24.2734 100.386 24.3234ZM103.661 4.39841C102.661 4.39841 101.861 3.64841 101.861 2.67341C101.861 1.67341 102.661 0.923414 103.661 0.923414C104.661 0.923414 105.461 1.67341 105.461 2.67341C105.461 3.64841 104.661 4.39841 103.661 4.39841ZM111.823 19.8734C109.423 19.8734 107.448 18.7234 107.448 15.9984C107.448 12.9484 110.398 11.8484 114.148 11.8484H115.773V11.1734C115.773 9.42341 115.173 8.54841 113.398 8.54841C111.823 8.54841 111.048 9.29841 110.898 10.5984H107.973C108.223 7.54841 110.648 6.27341 113.573 6.27341C116.498 6.27341 118.798 7.47341 118.798 11.0484V19.6234H115.823V18.0234C114.973 19.1484 113.823 19.8734 111.823 19.8734ZM112.548 17.6984C114.398 17.6984 115.773 16.7234 115.773 15.0484V13.7484H114.223C111.923 13.7484 110.448 14.2734 110.448 15.8734C110.448 16.9734 111.048 17.6984 112.548 17.6984ZM112.323 4.59841L113.798 0.723413H117.148L114.548 4.59841H112.323ZM132.972 19.8734C129.122 19.8734 126.347 17.3484 126.347 13.2234V13.0234C126.347 8.97341 129.122 6.27341 132.847 6.27341C136.097 6.27341 139.022 8.19841 139.022 12.8734V13.7484H129.447C129.547 16.2234 130.797 17.6234 133.047 17.6234C134.872 17.6234 135.822 16.8984 136.047 15.6234H138.972C138.547 18.3734 136.322 19.8734 132.972 19.8734ZM129.497 11.7234H136.022C135.872 9.47341 134.722 8.47341 132.847 8.47341C131.022 8.47341 129.797 9.69841 129.497 11.7234ZM145.821 19.8734C142.446 19.8734 140.471 18.3234 140.346 15.5484H143.196C143.346 16.8734 144.021 17.6484 145.796 17.6484C147.421 17.6484 148.146 17.0734 148.146 15.9734C148.146 14.8984 147.271 14.4984 145.346 14.1734C141.896 13.6234 140.621 12.6484 140.621 10.1984C140.621 7.57341 143.071 6.27341 145.521 6.27341C148.196 6.27341 150.321 7.27341 150.646 10.2234H147.846C147.596 9.02341 146.921 8.47341 145.521 8.47341C144.221 8.47341 143.446 9.09841 143.446 10.0234C143.446 10.9734 144.071 11.3484 146.146 11.6984C149.221 12.1734 151.046 12.9234 151.046 15.6984C151.046 18.3484 149.171 19.8734 145.821 19.8734ZM157.649 19.8484C155.049 19.8484 153.699 18.4484 153.699 15.9734V8.82341H151.949V6.54841H153.699V3.67341H156.724V6.54841H159.599V8.82341H156.724V15.6984C156.724 16.8484 157.274 17.3734 158.224 17.3734C158.824 17.3734 159.274 17.2984 159.699 17.1234V19.5234C159.224 19.6984 158.574 19.8484 157.649 19.8484ZM165.475 19.8734C163.075 19.8734 161.1 18.7234 161.1 15.9984C161.1 12.9484 164.05 11.8484 167.8 11.8484H169.425V11.1734C169.425 9.42341 168.825 8.54841 167.05 8.54841C165.475 8.54841 164.7 9.29841 164.55 10.5984H161.625C161.875 7.54841 164.3 6.27341 167.225 6.27341C170.15 6.27341 172.45 7.47341 172.45 11.0484V19.6234H169.475V18.0234C168.625 19.1484 167.475 19.8734 165.475 19.8734ZM166.2 17.6984C168.05 17.6984 169.425 16.7234 169.425 15.0484V13.7484H167.875C165.575 13.7484 164.1 14.2734 164.1 15.8734C164.1 16.9734 164.7 17.6984 166.2 17.6984ZM165.975 4.59841L167.45 0.723413H170.8L168.2 4.59841H165.975Z" fill="#DD5900"/>
</svg>
