<svg width="300" height="250" viewBox="0 0 300 250" fill="none" xmlns="http://www.w3.org/2000/svg">
<path d="M179.138 81.2634H180.751V102.504H179.138V81.2634ZM173.743 91.8774V95.7897C173.743 96.4646 173.635 97.1395 173.42 97.7927C173.206 98.4449 172.886 99.0399 172.469 99.5609C172.053 100.08 171.527 100.503 170.908 100.819C170.29 101.134 169.564 101.294 168.75 101.294C168.119 101.294 167.494 101.18 166.895 100.956C166.298 100.734 165.765 100.363 165.308 99.8549C164.851 99.3458 164.48 98.6728 164.204 97.8548C163.929 97.0349 163.788 96.0146 163.788 94.8217C163.788 93.7314 163.922 92.7743 164.189 91.9751C164.454 91.1778 164.815 90.5098 165.263 89.9898C165.709 89.4728 166.228 89.0811 166.805 88.8265C167.384 88.5729 168.008 88.4437 168.655 88.4437C169.712 88.4437 170.68 88.7584 171.535 89.38C172.389 90.0007 173.131 90.8413 173.744 91.8774H173.743ZM173.777 90.0165C173.591 89.7126 173.366 89.4077 173.106 89.1067C172.78 88.7268 172.386 88.3746 171.935 88.0608C171.483 87.7451 170.969 87.4836 170.402 87.2843C169.832 87.084 169.194 86.9833 168.5 86.9833C167.639 86.9833 166.818 87.1599 166.062 87.5073C165.305 87.8546 164.629 88.3736 164.051 89.0455C163.474 89.7185 163.012 90.5483 162.678 91.5123C162.343 92.4763 162.174 93.5893 162.174 94.8227C162.174 96.2228 162.338 97.4355 162.661 98.4291C162.986 99.4267 163.443 100.257 164.021 100.9C164.599 101.543 165.294 102.019 166.083 102.314C166.869 102.608 167.735 102.757 168.655 102.757C169.853 102.757 170.904 102.457 171.777 101.867C172.56 101.337 173.22 100.637 173.742 99.7829V101.699C173.742 102.724 173.622 103.609 173.388 104.327C173.154 105.038 172.824 105.621 172.411 106.058C171.997 106.493 171.49 106.81 170.904 107.004C170.312 107.198 169.639 107.297 168.905 107.297C167.941 107.297 167.041 107.182 166.232 106.956C165.419 106.729 164.717 106.458 164.145 106.151L164.05 106.1L163.62 107.43L163.686 107.464C164.269 107.778 165.014 108.074 165.901 108.346C166.791 108.618 167.78 108.756 168.844 108.756C170.875 108.756 172.486 108.169 173.632 107.01C174.777 105.852 175.357 104.075 175.357 101.729V87.233H174.128L173.776 90.0175L173.777 90.0165ZM158.277 94.723V96.3205C158.277 96.9303 158.154 97.5401 157.91 98.1292C157.665 98.7202 157.31 99.2629 156.852 99.7424C156.395 100.221 155.822 100.614 155.151 100.91C154.48 101.206 153.695 101.355 152.817 101.355C152.37 101.355 151.938 101.294 151.532 101.172C151.129 101.052 150.773 100.862 150.472 100.611C150.172 100.36 149.934 100.04 149.764 99.6585C149.593 99.2767 149.506 98.8159 149.506 98.289C149.506 97.0546 149.908 96.1439 150.7 95.5815C151.502 95.0112 152.843 94.723 154.687 94.723H158.277ZM154.313 86.9794C153.249 86.9794 152.265 87.1116 151.386 87.3741C150.51 87.6355 149.78 87.9385 149.214 88.273L149.153 88.3104L149.552 89.5458L149.647 89.4925C150.241 89.1649 150.923 88.8936 151.669 88.6884C152.418 88.4831 153.308 88.3785 154.313 88.3785C155.592 88.3785 156.586 88.6765 157.263 89.2626C157.935 89.8458 158.276 90.8858 158.276 92.35V93.3229H154.686C152.493 93.3229 150.808 93.7393 149.674 94.5593C148.531 95.3851 147.953 96.6402 147.953 98.288C147.953 99.0063 148.077 99.6497 148.319 100.199C148.562 100.75 148.905 101.222 149.34 101.605C149.773 101.986 150.292 102.276 150.884 102.468C151.471 102.658 152.11 102.754 152.782 102.754C154.081 102.754 155.22 102.466 156.166 101.896C157.037 101.372 157.758 100.64 158.309 99.7217L158.66 102.503H159.858V92.35C159.858 90.7091 159.393 89.3899 158.477 88.4289C157.561 87.4668 156.159 86.9794 154.313 86.9794Z" fill="white"/>
<path d="M124.684 61.6911C123.591 62.5703 123.414 64.1855 124.291 65.2798L138.051 82.4642C138.927 83.5595 140.539 83.7371 141.631 82.8579C142.725 81.9788 142.901 80.3635 142.024 79.2693L128.266 62.0848C127.763 61.4582 127.022 61.1326 126.274 61.1326C125.715 61.1326 125.151 61.3152 124.685 61.6911" fill="white"/>
<path d="M119.038 90.3184C118.807 91.7037 119.748 93.0259 121.131 93.2568L137.057 95.9189C138.439 96.1498 139.759 95.2055 139.99 93.8202C140.22 92.4349 139.278 91.1127 137.896 90.8818L121.97 88.2197C121.83 88.196 121.69 88.1851 121.552 88.1851C120.331 88.1851 119.245 89.0732 119.038 90.3174" fill="white"/>
<path d="M144.947 50.0046C143.555 50.1674 142.549 51.4402 142.71 52.8354L145.247 74.7206C145.41 76.1158 146.68 77.1232 148.072 76.9614C149.463 76.7986 150.469 75.5257 150.308 74.1305L147.771 52.2464C147.62 50.9498 146.512 49.9878 145.239 49.9878C145.142 49.9878 145.044 49.9937 144.946 50.0046" fill="white"/>
<path d="M160.156 57.3585L154.131 73.9006C153.651 75.2198 154.334 76.693 155.651 77.1735C156.968 77.654 158.438 76.9702 158.918 75.65L164.942 59.1079C165.423 57.7887 164.739 56.3155 163.423 55.835C163.137 55.7304 162.845 55.6811 162.556 55.6811C161.515 55.6811 160.533 56.3254 160.156 57.3585Z" fill="white"/>
<path d="M169.878 69.3785L162.92 77.0709C161.979 78.1109 162.058 79.733 163.096 80.6763C164.134 81.6186 165.752 81.5397 166.694 80.4987L173.652 72.8063C174.592 71.7664 174.513 70.1442 173.475 69.2009C172.99 68.7599 172.377 68.5428 171.766 68.5428C171.072 68.5428 170.378 68.824 169.878 69.3775" fill="white"/>
<path d="M203.091 128.328C203.1 127.241 203.319 126.446 203.731 125.952C204.142 125.459 204.763 125.212 205.586 125.212C206.409 125.212 207.003 125.449 207.368 125.915C207.734 126.382 207.916 127.195 207.916 128.328H203.082H203.091ZM205.613 132.468C204.69 132.468 204.041 132.221 203.676 131.728C203.301 131.234 203.118 130.467 203.118 129.443H209.251L209.324 128.383C209.324 126.884 209.013 125.788 208.392 125.084C207.77 124.38 206.838 124.033 205.586 124.033C203 124.033 201.702 125.66 201.702 128.922C201.702 130.558 201.976 131.765 202.534 132.532C203.091 133.309 204.041 133.693 205.376 133.693C206.381 133.693 207.587 133.592 208.995 133.391L208.958 132.295L208.419 132.349C207.469 132.423 206.536 132.468 205.613 132.468ZM194.144 125.632C194.473 125.312 195.012 125.157 195.771 125.157C196.529 125.157 197.068 125.312 197.388 125.623C197.708 125.934 197.873 126.455 197.873 127.195C197.873 127.935 197.708 128.456 197.388 128.767C197.068 129.078 196.529 129.233 195.771 129.233C195.012 129.233 194.473 129.078 194.144 128.767C193.815 128.456 193.65 127.935 193.65 127.204C193.65 126.473 193.815 125.952 194.144 125.632ZM193.733 134.095C193.879 133.876 194.153 133.611 194.555 133.318L196.566 133.41C197.47 133.41 198.074 133.501 198.384 133.693C198.695 133.876 198.85 134.287 198.85 134.927C198.85 135.566 198.64 136.023 198.211 136.297C197.781 136.572 197.077 136.709 196.09 136.709C195.103 136.709 194.427 136.581 194.062 136.325C193.696 136.069 193.513 135.612 193.513 134.963C193.513 134.616 193.586 134.333 193.723 134.113M200.258 134.927C200.258 133.848 200.002 133.126 199.481 132.752C198.96 132.377 198.101 132.194 196.913 132.194C195.725 132.194 195.012 132.148 194.774 132.057C194.537 131.966 194.418 131.728 194.418 131.344C194.418 131.18 194.528 130.832 194.756 130.284C195.03 130.33 195.332 130.357 195.67 130.357C196.904 130.357 197.818 130.129 198.394 129.663C198.969 129.196 199.253 128.383 199.253 127.222C199.253 126.391 199.052 125.769 198.64 125.367L200.404 125.404V124.216L197.653 124.289L197.379 124.234C196.876 124.106 196.319 124.051 195.725 124.051C193.413 124.051 192.252 125.111 192.252 127.232C192.252 128.657 192.736 129.589 193.723 130.037L193.559 130.339C193.248 130.905 193.093 131.298 193.093 131.509C193.093 132.13 193.267 132.56 193.614 132.788C193.084 133.181 192.7 133.537 192.481 133.857C192.261 134.177 192.142 134.588 192.142 135.091C192.142 136.16 192.435 136.892 193.029 137.294C193.614 137.696 194.656 137.897 196.145 137.897C198.896 137.897 200.267 136.91 200.267 134.945M183.972 125.989L184.328 125.824C184.566 125.714 184.904 125.596 185.343 125.477C185.782 125.358 186.202 125.303 186.595 125.303C187.427 125.303 187.966 125.541 188.222 126.016C188.478 126.491 188.606 127.378 188.606 128.666V133.537H189.986V128.63C189.986 126.921 189.775 125.733 189.346 125.066C188.916 124.398 188.085 124.06 186.851 124.06C185.937 124.06 184.977 124.344 183.972 124.901V124.252H182.601V133.537H183.99V125.998L183.972 125.989ZM174.477 129.653C174.723 129.379 175.125 129.224 175.683 129.169L178.434 128.913V131.975L178.004 132.121C177.191 132.404 176.359 132.55 175.518 132.55C174.577 132.55 174.111 131.984 174.111 130.841C174.111 130.321 174.23 129.928 174.486 129.653M179.119 124.782C178.644 124.298 177.876 124.06 176.825 124.06C175.774 124.06 174.568 124.197 173.206 124.472L173.261 125.532L173.837 125.477C174.906 125.349 175.93 125.294 176.926 125.294C177.392 125.294 177.767 125.431 178.041 125.705C178.315 125.979 178.452 126.427 178.452 127.067V127.862L175.537 128.145C174.559 128.246 173.837 128.511 173.38 128.931C172.923 129.361 172.694 130.028 172.694 130.933C172.694 131.838 172.914 132.532 173.362 133.017C173.809 133.501 174.458 133.739 175.308 133.739C176.423 133.739 177.538 133.492 178.653 132.998C179.147 133.492 179.887 133.739 180.865 133.739L180.92 132.642C180.243 132.55 179.878 132.285 179.841 131.819V127.067C179.841 126.043 179.604 125.285 179.128 124.801M164.698 125.879L165.054 125.751C165.785 125.468 166.544 125.321 167.321 125.321C168.097 125.321 168.673 125.559 168.929 126.034C169.185 126.51 169.313 127.396 169.313 128.685V133.556H170.702V128.648C170.702 126.939 170.492 125.751 170.062 125.084C169.633 124.417 168.801 124.079 167.567 124.079C166.653 124.079 165.694 124.316 164.707 124.782V120.213H163.309V133.556H164.707V125.879H164.698ZM155.705 125.148C155.111 125.861 154.809 127.094 154.809 128.867C154.809 130.64 155.083 131.883 155.632 132.633C156.18 133.373 157.185 133.748 158.629 133.748C159.196 133.748 160.064 133.665 161.216 133.492L161.161 132.34L158.967 132.505C157.852 132.505 157.121 132.24 156.765 131.71C156.409 131.18 156.235 130.229 156.235 128.877C156.235 127.524 156.427 126.592 156.802 126.089C157.176 125.586 157.898 125.34 158.949 125.34C159.424 125.34 160.156 125.395 161.143 125.504L161.197 124.371L160.75 124.316C159.772 124.17 159.077 124.097 158.666 124.097C157.277 124.097 156.29 124.453 155.696 125.166M142.709 128.392C142.718 127.305 142.937 126.51 143.349 126.016C143.76 125.523 144.381 125.276 145.204 125.276C146.027 125.276 146.621 125.513 146.986 125.979C147.352 126.446 147.534 127.259 147.534 128.392H142.7H142.709ZM145.231 132.532C144.308 132.532 143.659 132.285 143.294 131.792C142.919 131.298 142.736 130.531 142.736 129.507H148.869L148.942 128.447C148.942 126.948 148.631 125.852 148.01 125.148C147.388 124.444 146.456 124.097 145.204 124.097C142.618 124.097 141.32 125.724 141.32 128.986C141.32 130.622 141.594 131.828 142.152 132.596C142.709 133.364 143.659 133.757 144.994 133.757C145.999 133.757 147.205 133.656 148.622 133.455L148.585 132.359L148.046 132.413C147.096 132.487 146.154 132.532 145.231 132.532ZM133.14 125.888L133.497 125.76C134.228 125.477 134.986 125.331 135.763 125.331C136.54 125.331 137.116 125.568 137.372 126.043C137.628 126.519 137.756 127.405 137.756 128.694V133.565H139.145V128.657C139.145 126.948 138.935 125.76 138.505 125.093C138.075 124.426 137.244 124.088 136.01 124.088C135.096 124.088 134.137 124.325 133.15 124.791V120.222H131.76V133.565H133.15V125.888H133.14ZM130.042 124.27H127.09V121.428H125.71V124.27H124.394V125.477H125.71V130.366C125.71 131.691 125.893 132.587 126.268 133.062C126.642 133.537 127.31 133.766 128.278 133.766C128.708 133.766 129.339 133.693 130.17 133.565L130.079 132.413L128.425 132.523C127.84 132.523 127.474 132.359 127.319 132.02C127.163 131.682 127.09 130.988 127.09 129.918V125.477H130.042V124.27ZM112.559 126.016L112.916 125.852C113.153 125.742 113.491 125.623 113.93 125.504C114.369 125.385 114.789 125.331 115.182 125.331C116.014 125.331 116.553 125.568 116.809 126.043C117.065 126.519 117.193 127.405 117.193 128.694V133.565H118.564V128.657C118.564 126.948 118.353 125.76 117.924 125.093C117.494 124.426 116.663 124.088 115.429 124.088C114.515 124.088 113.555 124.371 112.55 124.928V124.28H111.17V133.565H112.559V126.016ZM108.492 120.551H107.094V122.168H108.492V120.551ZM108.492 124.27H107.094V133.565H108.492V124.27ZM98.8596 126.062C99.2252 125.55 99.8923 125.294 100.87 125.294C101.848 125.294 102.506 125.55 102.872 126.062C103.228 126.574 103.411 127.515 103.411 128.877C103.411 130.238 103.246 131.189 102.927 131.728C102.607 132.267 101.921 132.532 100.87 132.532C99.8192 132.532 99.1338 132.258 98.8048 131.719C98.4758 131.17 98.3113 130.22 98.3113 128.867C98.3113 127.515 98.4941 126.574 98.8596 126.062ZM97.7355 132.596C98.3021 133.364 99.344 133.748 100.861 133.748C102.378 133.748 103.411 133.364 103.978 132.596C104.544 131.828 104.837 130.595 104.837 128.895C104.837 127.195 104.535 125.97 103.932 125.212C103.329 124.453 102.305 124.079 100.87 124.079C99.4354 124.079 98.4027 124.453 97.7995 125.212C97.1963 125.97 96.8856 127.195 96.8856 128.895C96.8856 130.595 97.1689 131.828 97.7355 132.596ZM92.3252 134.844C93.166 134.744 93.7326 134.488 94.0159 134.086C94.3632 133.601 94.5368 132.843 94.5368 131.801L94.5186 120.706H93.102V131.591C93.102 132.505 92.974 133.071 92.7181 133.291C92.4623 133.51 91.8956 133.62 91 133.62V134.899C91.5483 134.899 91.987 134.881 92.316 134.844" fill="white"/>
<g clip-path="url(#clip0_5182_6356)">
<path d="M147.536 163.11L147.555 163.08L128.985 195.448C128.73 195.901 128.598 196.405 128.598 196.915C128.598 198.551 129.929 199.882 131.565 199.882H168.844C170.48 199.882 171.811 198.551 171.811 196.915C171.811 196.362 171.659 195.823 171.369 195.356L171.393 195.397L152.727 163.063L152.741 163.088C152.219 162.143 151.223 161.557 150.143 161.557C149.063 161.557 148.055 162.152 147.534 163.11" fill="white"/>
<path d="M166.602 190.862C166.972 190.862 167.275 191.165 167.275 191.535C167.275 191.905 166.972 192.208 166.602 192.208C166.232 192.208 165.929 191.905 165.929 191.535C165.929 191.165 166.232 190.862 166.602 190.862ZM166.602 192.06C166.869 192.06 167.081 191.846 167.081 191.535C167.081 191.224 166.869 191.01 166.602 191.01C166.335 191.01 166.123 191.224 166.123 191.535C166.123 191.846 166.332 192.06 166.602 192.06ZM166.332 191.159H166.614C166.804 191.159 166.913 191.214 166.913 191.383C166.913 191.519 166.83 191.572 166.715 191.582L166.913 191.907H166.748L166.569 191.591H166.493V191.907H166.332V191.159ZM166.625 191.465C166.701 191.465 166.754 191.453 166.754 191.366C166.754 191.29 166.672 191.28 166.608 191.28H166.495V191.465H166.625Z" fill="#007A53"/>
<path d="M166.01 189.323L151.162 163.653C150.943 163.261 150.526 162.995 150.046 162.995C149.567 162.995 149.143 163.265 148.925 163.662L138.476 181.892C141.782 182.077 143.379 180.594 144.924 179.156C146.298 177.88 147.715 176.559 150.084 176.559C153.139 176.559 154.7 179.403 154.766 179.532C154.978 179.958 154.805 180.481 154.379 180.695C153.951 180.909 153.449 180.74 153.213 180.314C153.122 180.154 151.97 178.296 150.081 178.296C148.399 178.296 147.386 179.236 146.107 180.427C144.424 181.993 141.934 183.546 137.789 183.085L134.19 189.364C134.085 189.55 134.028 189.764 134.028 189.99C134.028 190.693 134.598 191.263 135.301 191.263H150.256C150.084 191.021 148.283 188.48 148.283 188.48C147.526 187.309 148.15 186.338 148.353 186.029L150.528 182.544C150.651 182.347 150.845 182.209 151.069 182.157C151.295 182.106 151.528 182.143 151.725 182.266C152.131 182.522 152.256 183.059 152.001 183.464L149.806 186.982C149.647 187.223 149.604 187.311 149.761 187.56C150.174 188.223 152.182 191.202 152.223 191.263H164.927C165.631 191.263 166.201 190.693 166.201 189.99C166.201 189.745 166.131 189.515 166.012 189.321M160.019 182.314C159.784 182.557 159.494 182.612 159.218 182.462C158.982 182.332 158.49 182.116 157.856 182.116C157.223 182.116 156.313 182.316 155.669 183.081C155.669 183.081 152.672 186.852 152.67 186.852C152.622 186.92 152.435 187.054 152.219 187.064C152.054 187.075 151.906 187.009 151.787 186.877C151.678 186.754 151.635 186.614 151.635 186.484C151.635 186.354 151.674 186.239 151.727 186.147C153.052 183.9 153.707 182.791 153.709 182.787C154.787 181.028 156.142 180.571 157.34 180.528C157.233 180.141 156.772 178.491 156.772 178.487C156.727 178.306 156.659 177.991 156.955 177.806C157.313 177.578 157.611 177.788 157.725 177.973L160.088 181.563C160.195 181.727 160.22 182.098 160.019 182.31" fill="#007A53"/>
<path d="M157.725 177.977C157.609 177.79 157.313 177.582 156.955 177.81C156.661 177.997 156.727 178.31 156.772 178.491C156.772 178.493 157.233 180.143 157.34 180.532C156.14 180.575 154.785 181.032 153.709 182.791C153.709 182.795 153.052 183.904 151.727 186.151C151.674 186.241 151.635 186.361 151.635 186.488C151.635 186.616 151.676 186.758 151.787 186.881C151.904 187.013 152.052 187.077 152.219 187.068C152.437 187.058 152.622 186.922 152.67 186.856L155.669 183.085C156.313 182.32 157.19 182.12 157.856 182.12C158.523 182.12 158.982 182.336 159.218 182.466C159.494 182.616 159.784 182.561 160.019 182.318C160.222 182.106 160.195 181.734 160.088 181.571L157.725 177.981V177.977Z" fill="#FFA400"/>
<path d="M146.108 180.431C147.388 179.24 148.398 178.3 150.083 178.3C151.972 178.3 153.124 180.158 153.214 180.318C153.451 180.744 153.953 180.913 154.381 180.699C154.807 180.483 154.98 179.96 154.768 179.536C154.702 179.407 153.138 176.563 150.085 176.563C147.719 176.563 146.3 177.884 144.925 179.16C143.38 180.598 141.784 182.081 138.478 181.896L137.792 183.091C141.938 183.552 144.427 181.999 146.11 180.433" fill="#FFA400"/>
<path d="M149.805 186.986L152.001 183.468C152.256 183.063 152.13 182.526 151.725 182.271C151.527 182.147 151.295 182.108 151.069 182.162C150.844 182.213 150.651 182.351 150.528 182.548L148.353 186.034C148.149 186.342 147.526 187.313 148.283 188.484C148.283 188.484 150.083 191.027 150.256 191.267H152.221C152.18 191.208 150.172 188.227 149.758 187.564C149.604 187.315 149.645 187.227 149.803 186.986" fill="#FFA400"/>
<path d="M133.246 192.709H134.079L135.063 195.261H134.316L134.127 194.715H133.168L132.966 195.261H132.275L133.244 192.709H133.246ZM133.662 193.236H133.653L133.324 194.234H133.964L133.662 193.236Z" fill="#007A53"/>
<path d="M137.457 194.292C137.457 194.989 137.005 195.304 136.338 195.304C135.671 195.304 135.219 194.989 135.219 194.292V192.708H135.9V194.176C135.9 194.512 135.99 194.798 136.338 194.798C136.686 194.798 136.776 194.512 136.776 194.176V192.708H137.457V194.292Z" fill="#007A53"/>
<path d="M137.829 194.631C138.004 194.726 138.249 194.8 138.531 194.8C138.747 194.8 138.951 194.757 138.951 194.551C138.951 194.076 137.745 194.376 137.745 193.446C137.745 192.831 138.344 192.665 138.856 192.665C139.101 192.665 139.342 192.702 139.514 192.759L139.471 193.286C139.296 193.206 139.099 193.169 138.905 193.169C138.733 193.169 138.449 193.183 138.449 193.407C138.449 193.821 139.654 193.543 139.654 194.465C139.654 195.127 139.099 195.306 138.531 195.306C138.292 195.306 137.998 195.269 137.77 195.197L137.827 194.633L137.829 194.631Z" fill="#007A53"/>
<path d="M140.422 193.214H139.792V192.709H141.731V193.214H141.101V195.261H140.42V193.214H140.422Z" fill="#007A53"/>
<path d="M141.998 192.709H143.212C143.665 192.709 144.035 192.915 144.035 193.353C144.035 193.693 143.874 193.919 143.545 193.997V194.006C143.765 194.063 143.78 194.259 143.907 194.569L144.156 195.265H143.446L143.3 194.804C143.16 194.366 143.074 194.255 142.821 194.255H142.679V195.263H141.998V192.712V192.709ZM142.677 193.769H142.856C143.076 193.769 143.354 193.761 143.354 193.473C143.354 193.234 143.115 193.191 142.856 193.191H142.677V193.769Z" fill="#007A53"/>
<path d="M145.216 192.709H146.049L147.032 195.261H146.286L146.096 194.715H145.138L144.936 195.261H144.245L145.214 192.709H145.216ZM145.631 193.236H145.623L145.294 194.234H145.934L145.631 193.236Z" fill="#007A53"/>
<path d="M147.226 192.709H147.907V194.757H148.96V195.261H147.228V192.709H147.226Z" fill="#007A53"/>
<path d="M149.219 192.709H149.9V195.261H149.219V192.709Z" fill="#007A53"/>
<path d="M151.021 192.709H151.855L152.838 195.261H152.091L151.902 194.715H150.943L150.742 195.261H150.05L151.019 192.709H151.021ZM151.437 193.236H151.429L151.1 194.234H151.739L151.437 193.236Z" fill="#007A53"/>
<path d="M152.97 192.709H153.836L154.698 194.442H154.706L154.696 192.709H155.317V195.261H154.474L153.581 193.516H153.573L153.595 195.261H152.97V192.709Z" fill="#007A53"/>
<path d="M156.978 192.709H158.05L158.591 194.407H158.599L159.165 192.709H160.195V195.261H159.529L159.539 193.3H159.531L158.881 195.261H158.255L157.634 193.3H157.626L157.64 195.261H156.976V192.709H156.978Z" fill="#007A53"/>
<path d="M161.339 192.709H162.172L163.156 195.261H162.409L162.22 194.715H161.261L161.059 195.261H160.368L161.337 192.709H161.339ZM161.755 193.236H161.747L161.417 194.234H162.057L161.755 193.236Z" fill="#007A53"/>
<path d="M163.349 192.709H164.277C165.166 192.709 165.787 192.987 165.787 193.975C165.787 194.962 165.147 195.263 164.277 195.263H163.349V192.712V192.709ZM164.03 194.757H164.293C164.802 194.757 165.088 194.493 165.088 193.985C165.088 193.477 164.791 193.214 164.293 193.214H164.03V194.757Z" fill="#007A53"/>
<path d="M166.102 192.709H167.9V193.193H166.781V193.72H167.839V194.203H166.781V194.781H167.939V195.265H166.1V192.714L166.102 192.709Z" fill="#007A53"/>
<path d="M139.545 195.845H140.379L141.362 198.396H140.615L140.426 197.851H139.467L139.265 198.396H138.574L139.543 195.845H139.545ZM139.961 196.372H139.953L139.623 197.37H140.263L139.961 196.372Z" fill="#007A53"/>
<path d="M141.566 195.845H142.432L143.294 197.578H143.302L143.292 195.845H143.913V198.396H143.067L142.175 196.652H142.166L142.189 198.396H141.563V195.845H141.566Z" fill="#007A53"/>
<path d="M144.327 195.845H145.255C146.143 195.845 146.765 196.123 146.765 197.11C146.765 198.098 146.125 198.398 145.255 198.398H144.327V195.847V195.845ZM145.006 197.892H145.269C145.777 197.892 146.063 197.629 146.063 197.121C146.063 196.613 145.767 196.349 145.269 196.349H145.006V197.892Z" fill="#007A53"/>
<path d="M149.328 195.802C150.169 195.802 150.608 196.302 150.608 197.123C150.608 197.943 150.161 198.441 149.328 198.441C148.495 198.441 148.048 197.933 148.048 197.123C148.048 196.312 148.487 195.802 149.328 195.802ZM149.328 197.937C149.742 197.937 149.906 197.542 149.906 197.123C149.906 196.68 149.742 196.308 149.328 196.308C148.914 196.308 148.75 196.68 148.75 197.123C148.75 197.565 148.914 197.937 149.328 197.937Z" fill="#007A53"/>
<path d="M150.561 195.845H151.256L151.585 197.806H151.593L151.937 195.845H152.799L153.157 197.806H153.165L153.498 195.845H154.161L153.591 198.396H152.717L152.355 196.436H152.346L152.011 198.396H151.13L150.565 195.845H150.561Z" fill="#007A53"/>
<path d="M154.362 195.845H155.229L156.091 197.578H156.097L156.086 195.845H156.708V198.396H155.862L154.971 196.652H154.963L154.986 198.396H154.36V195.845H154.362Z" fill="#007A53"/>
<path d="M157.105 195.845H158.905V196.329H157.786V196.855H158.841V197.339H157.786V197.917H158.944V198.4H157.105V195.849V195.845Z" fill="#007A53"/>
<path d="M159.21 195.845H160.138C161.027 195.845 161.648 196.123 161.648 197.11C161.648 198.098 161.008 198.398 160.138 198.398H159.21V195.847V195.845ZM159.891 197.892H160.154C160.662 197.892 160.948 197.629 160.948 197.121C160.948 196.613 160.652 196.349 160.154 196.349H159.891V197.892Z" fill="#007A53"/>
</g>
<defs>
<clipPath id="clip0_5182_6356">
<rect width="43.6303" height="38.6597" fill="white" transform="translate(128.347 161.353)"/>
</clipPath>
</defs>
</svg>
