<svg width="300" height="250" viewBox="0 0 300 250" fill="none" xmlns="http://www.w3.org/2000/svg">
<path d="M15.64 92L21.048 70.08H28.12L33.56 92H29.976L28.792 87.296H20.376L19.192 92H15.64ZM23.8 73.056L21.08 84.16H28.088L25.4 73.056H23.8ZM44.6285 83.616V80.48H50.8685V91.616C50.2925 91.7653 49.1192 91.9253 47.3485 92.096C45.5992 92.2667 44.3298 92.352 43.5405 92.352C40.2125 92.352 37.9192 91.4347 36.6605 89.6C35.4018 87.7653 34.7725 84.896 34.7725 80.992C34.7725 77.0667 35.4125 74.208 36.6925 72.416C37.9938 70.624 40.2338 69.728 43.4125 69.728C45.2898 69.728 47.4018 69.9413 49.7485 70.368L50.8685 70.592L50.7405 73.408C48.1592 73.0667 45.8445 72.896 43.7965 72.896C41.7485 72.896 40.3405 73.472 39.5725 74.624C38.8258 75.776 38.4525 77.9093 38.4525 81.024C38.4525 84.1387 38.8045 86.2933 39.5085 87.488C40.2338 88.6613 41.6845 89.248 43.8605 89.248C45.4178 89.248 46.5805 89.152 47.3485 88.96V83.616H44.6285ZM66.9735 92H54.6855V70.08H58.2375V88.832H66.9735V92ZM68.657 92V87.392H72.401V92H68.657ZM90.6725 85.184H86.1925V92H82.6405V70.08H90.6725C95.6432 70.08 98.1285 72.5333 98.1285 77.44C98.1285 79.9573 97.4992 81.8773 96.2405 83.2C95.0032 84.5227 93.1472 85.184 90.6725 85.184ZM86.1925 82.112H90.6405C93.2005 82.112 94.4805 80.5547 94.4805 77.44C94.4805 75.9467 94.1712 74.8587 93.5525 74.176C92.9338 73.4933 91.9632 73.152 90.6405 73.152H86.1925V82.112ZM100.491 92V76H103.947V77.92C105.76 76.7467 107.573 75.9893 109.387 75.648V79.136C107.552 79.4987 105.984 79.968 104.683 80.544L103.979 80.832V92H100.491ZM112.152 77.728C113.262 76.3413 115.096 75.648 117.656 75.648C120.216 75.648 122.04 76.3413 123.128 77.728C124.238 79.1147 124.792 81.1947 124.792 83.968C124.792 86.7413 124.259 88.832 123.192 90.24C122.126 91.648 120.28 92.352 117.656 92.352C115.032 92.352 113.187 91.648 112.12 90.24C111.054 88.832 110.52 86.7413 110.52 83.968C110.52 81.1947 111.064 79.1147 112.152 77.728ZM114.776 88.128C115.267 88.9813 116.227 89.408 117.656 89.408C119.086 89.408 120.046 88.9813 120.536 88.128C121.027 87.2747 121.272 85.8773 121.272 83.936C121.272 81.9947 121.006 80.6187 120.472 79.808C119.96 78.9973 119.022 78.592 117.656 78.592C116.291 78.592 115.342 78.9973 114.808 79.808C114.296 80.6187 114.04 81.9947 114.04 83.936C114.04 85.8773 114.286 87.2747 114.776 88.128ZM137.313 76H140.769V92H137.313V91.008C135.756 91.904 134.316 92.352 132.993 92.352C130.796 92.352 129.324 91.7653 128.577 90.592C127.83 89.3973 127.457 87.3173 127.457 84.352V76H130.945V84.384C130.945 86.304 131.105 87.5947 131.425 88.256C131.745 88.9173 132.492 89.248 133.665 89.248C134.817 89.248 135.873 89.0347 136.833 88.608L137.313 88.416V76ZM157.408 69.344V92H153.952V91.168C152.395 91.9573 150.965 92.352 149.664 92.352C147.573 92.352 146.037 91.7227 145.056 90.464C144.096 89.2053 143.616 87.0933 143.616 84.128C143.616 81.1627 144.149 79.008 145.216 77.664C146.304 76.32 147.989 75.648 150.272 75.648C151.04 75.648 152.256 75.7867 153.92 76.064V69.344H157.408ZM153.376 88.672L153.92 88.448V78.976C152.64 78.7627 151.456 78.656 150.368 78.656C148.213 78.656 147.136 80.448 147.136 84.032C147.136 85.9947 147.381 87.36 147.872 88.128C148.384 88.8747 149.184 89.248 150.272 89.248C151.36 89.248 152.395 89.056 153.376 88.672ZM161.185 92V69.344H164.673V92H161.185ZM166.975 76H170.399L173.791 89.024H174.655L178.047 76H181.503L175.423 98.88H171.999L173.919 92H171.167L166.975 76ZM15.64 124L21.048 102.08H28.12L33.56 124H29.976L28.792 119.296H20.376L19.192 124H15.64ZM23.8 105.056L21.08 116.16H28.088L25.4 105.056H23.8ZM45.3243 108H48.7803V124H45.3243V123.008C43.7669 123.904 42.3269 124.352 41.0043 124.352C38.8069 124.352 37.3349 123.765 36.5883 122.592C35.8416 121.397 35.4683 119.317 35.4683 116.352V108H38.9563V116.384C38.9563 118.304 39.1163 119.595 39.4363 120.256C39.7563 120.917 40.5029 121.248 41.6763 121.248C42.8283 121.248 43.8843 121.035 44.8443 120.608L45.3243 120.416V108ZM63.4673 111.296C60.9499 110.955 59.1259 110.784 57.9953 110.784C56.8646 110.784 56.0753 110.923 55.6273 111.2C55.2006 111.456 54.9873 111.872 54.9873 112.448C54.9873 113.024 55.2219 113.429 55.6913 113.664C56.1819 113.899 57.3126 114.176 59.0833 114.496C60.8753 114.795 62.1446 115.275 62.8913 115.936C63.6379 116.597 64.0113 117.771 64.0113 119.456C64.0113 121.141 63.4673 122.379 62.3793 123.168C61.3126 123.957 59.7446 124.352 57.6753 124.352C56.3739 124.352 54.7313 124.171 52.7473 123.808L51.7553 123.648L51.8833 120.736C54.4433 121.077 56.2886 121.248 57.4193 121.248C58.5499 121.248 59.3499 121.109 59.8193 120.832C60.3099 120.555 60.5553 120.096 60.5553 119.456C60.5553 118.816 60.3206 118.379 59.8513 118.144C59.4033 117.888 58.3046 117.621 56.5553 117.344C54.8273 117.045 53.5579 116.587 52.7473 115.968C51.9366 115.349 51.5313 114.219 51.5313 112.576C51.5313 110.933 52.0859 109.707 53.1953 108.896C54.3259 108.085 55.7659 107.68 57.5153 107.68C58.8806 107.68 60.5553 107.851 62.5393 108.192L63.5313 108.384L63.4673 111.296ZM75.3313 110.976H70.9153V118.016C70.9153 119.317 71.0113 120.181 71.2033 120.608C71.3953 121.035 71.8859 121.248 72.6753 121.248L75.2993 121.152L75.4593 123.936C74.0299 124.213 72.9419 124.352 72.1953 124.352C70.3819 124.352 69.1339 123.936 68.4513 123.104C67.7899 122.272 67.4593 120.704 67.4593 118.4V110.976H65.4113V108H67.4593V103.36H70.9153V108H75.3313V110.976ZM77.552 124V108H81.008V109.92C82.8213 108.747 84.6347 107.989 86.448 107.648V111.136C84.6133 111.499 83.0453 111.968 81.744 112.544L81.04 112.832V124H77.552ZM100.315 112.928V120.224C100.336 120.693 100.453 121.045 100.667 121.28C100.901 121.493 101.253 121.632 101.723 121.696L101.627 124.352C99.7918 124.352 98.3732 123.957 97.3705 123.168C95.6638 123.957 93.9465 124.352 92.2185 124.352C89.0398 124.352 87.4505 122.656 87.4505 119.264C87.4505 117.643 87.8772 116.469 88.7305 115.744C89.6052 115.019 90.9385 114.581 92.7305 114.432L96.8585 114.08V112.928C96.8585 112.075 96.6665 111.477 96.2825 111.136C95.9198 110.795 95.3758 110.624 94.6505 110.624C93.2852 110.624 91.5785 110.709 89.5305 110.88L88.5065 110.944L88.3785 108.48C90.7038 107.925 92.8372 107.648 94.7785 107.648C96.7412 107.648 98.1492 108.075 99.0025 108.928C99.8772 109.76 100.315 111.093 100.315 112.928ZM93.1465 116.896C91.6745 117.024 90.9385 117.824 90.9385 119.296C90.9385 120.768 91.5892 121.504 92.8905 121.504C93.9572 121.504 95.0878 121.333 96.2825 120.992L96.8585 120.8V116.544L93.1465 116.896ZM104.245 124V101.344H107.733V124H104.245ZM111.507 124V108H114.995V124H111.507ZM111.507 105.28V101.6H114.995V105.28H111.507ZM130.426 112.928V120.224C130.447 120.693 130.564 121.045 130.778 121.28C131.012 121.493 131.364 121.632 131.834 121.696L131.738 124.352C129.903 124.352 128.484 123.957 127.482 123.168C125.775 123.957 124.058 124.352 122.33 124.352C119.151 124.352 117.562 122.656 117.562 119.264C117.562 117.643 117.988 116.469 118.842 115.744C119.716 115.019 121.05 114.581 122.842 114.432L126.97 114.08V112.928C126.97 112.075 126.778 111.477 126.394 111.136C126.031 110.795 125.487 110.624 124.762 110.624C123.396 110.624 121.69 110.709 119.642 110.88L118.618 110.944L118.49 108.48C120.815 107.925 122.948 107.648 124.89 107.648C126.852 107.648 128.26 108.075 129.114 108.928C129.988 109.76 130.426 111.093 130.426 112.928ZM123.258 116.896C121.786 117.024 121.05 117.824 121.05 119.296C121.05 120.768 121.7 121.504 123.002 121.504C124.068 121.504 125.199 121.333 126.394 120.992L126.97 120.8V116.544L123.258 116.896ZM137.652 124H134.164V108H137.62V108.992C139.178 108.096 140.65 107.648 142.036 107.648C144.17 107.648 145.62 108.256 146.388 109.472C147.178 110.667 147.572 112.651 147.572 115.424V124H144.116V115.52C144.116 113.792 143.924 112.565 143.54 111.84C143.178 111.115 142.42 110.752 141.268 110.752C140.18 110.752 139.135 110.965 138.132 111.392L137.652 111.584V124ZM150.833 124V119.392H154.577V124H150.833Z" fill="#FFE344"/>
</svg>
