<svg width="186" height="41" viewBox="0 0 186 41" fill="none" xmlns="http://www.w3.org/2000/svg">
<rect x="0.609059" y="0.609059" width="184.514" height="39.6639" rx="5.35724" stroke="#dd5900" stroke-width="1.21812"/>
<path d="M48.1162 26.6414C44.2162 26.6414 42.5762 24.7014 42.3762 22.0014H44.9362C45.1162 23.4414 45.6962 24.6414 48.1162 24.6414C49.6962 24.6414 50.8162 23.7614 50.8162 22.4414C50.8162 21.1214 50.1562 20.6214 47.8362 20.2414C44.4162 19.7814 42.7962 18.7414 42.7962 16.0614C42.7962 13.7214 44.7962 11.9614 47.7762 11.9614C50.8562 11.9614 52.6962 13.3614 52.9762 16.1014H50.5362C50.2762 14.6014 49.4162 13.9614 47.7762 13.9614C46.1562 13.9614 45.3162 14.7414 45.3162 15.8414C45.3162 17.0014 45.7962 17.5814 48.2762 17.9414C51.6362 18.4014 53.3762 19.3614 53.3762 22.2214C53.3762 24.7014 51.2762 26.6414 48.1162 26.6414ZM58.4915 26.6414C56.5715 26.6414 54.9915 25.7214 54.9915 23.5414C54.9915 21.1014 57.3515 20.2214 60.3515 20.2214H61.6515V19.6814C61.6515 18.2814 61.1715 17.5814 59.7515 17.5814C58.4915 17.5814 57.8715 18.1814 57.7515 19.2214H55.4115C55.6115 16.7814 57.5515 15.7614 59.8915 15.7614C62.2315 15.7614 64.0715 16.7214 64.0715 19.5814V26.4414H61.6915V25.1614C61.0115 26.0614 60.0915 26.6414 58.4915 26.6414ZM59.0715 24.9014C60.5515 24.9014 61.6515 24.1214 61.6515 22.7814V21.7414H60.4115C58.5715 21.7414 57.3915 22.1614 57.3915 23.4414C57.3915 24.3214 57.8715 24.9014 59.0715 24.9014ZM66.9053 26.4414V15.9814H69.3253V26.4414H66.9053ZM68.0853 14.2614C67.2853 14.2614 66.6453 13.6614 66.6453 12.8814C66.6453 12.0814 67.2853 11.4814 68.0853 11.4814C68.8853 11.4814 69.5253 12.0814 69.5253 12.8814C69.5253 13.6614 68.8853 14.2614 68.0853 14.2614ZM78.115 26.6414C76.455 26.6414 75.255 25.8214 74.695 24.7614V26.4414H72.275V11.1414H74.695V17.6614C75.275 16.6614 76.575 15.7614 78.115 15.7614C80.735 15.7614 82.755 17.7014 82.755 21.0814V21.2414C82.755 24.6014 80.815 26.6414 78.115 26.6414ZM77.515 24.7214C79.295 24.7214 80.275 23.5214 80.275 21.2814V21.1214C80.275 18.8014 79.075 17.6614 77.495 17.6614C75.815 17.6614 74.615 18.8014 74.615 21.1214V21.2814C74.615 23.6214 75.755 24.7214 77.515 24.7214ZM87.6712 26.6414C85.7512 26.6414 84.1712 25.7214 84.1712 23.5414C84.1712 21.1014 86.5312 20.2214 89.5312 20.2214H90.8312V19.6814C90.8312 18.2814 90.3512 17.5814 88.9312 17.5814C87.6712 17.5814 87.0512 18.1814 86.9312 19.2214H84.5912C84.7912 16.7814 86.7312 15.7614 89.0712 15.7614C91.4112 15.7614 93.2512 16.7214 93.2512 19.5814V26.4414H90.8712V25.1614C90.1912 26.0614 89.2712 26.6414 87.6712 26.6414ZM88.2512 24.9014C89.7312 24.9014 90.8312 24.1214 90.8312 22.7814V21.7414H89.5912C87.7512 21.7414 86.5712 22.1614 86.5712 23.4414C86.5712 24.3214 87.0512 24.9014 88.2512 24.9014ZM100.791 26.4414V15.9814H103.211V17.5814C103.711 16.6014 104.851 15.7614 106.391 15.7614C107.751 15.7614 108.831 16.3414 109.351 17.6414C110.151 16.3414 111.591 15.7614 112.891 15.7614C114.811 15.7614 116.371 16.9414 116.371 19.8214V26.4414H113.951V19.9814C113.951 18.4414 113.291 17.7814 112.091 17.7814C110.891 17.7814 109.791 18.5814 109.791 20.1814V26.4414H107.371V19.9814C107.371 18.4414 106.691 17.7814 105.511 17.7814C104.311 17.7814 103.211 18.5814 103.211 20.1814V26.4414H100.791ZM121.89 26.6414C119.97 26.6414 118.39 25.7214 118.39 23.5414C118.39 21.1014 120.75 20.2214 123.75 20.2214H125.05V19.6814C125.05 18.2814 124.57 17.5814 123.15 17.5814C121.89 17.5814 121.27 18.1814 121.15 19.2214H118.81C119.01 16.7814 120.95 15.7614 123.29 15.7614C125.63 15.7614 127.47 16.7214 127.47 19.5814V26.4414H125.09V25.1614C124.41 26.0614 123.49 26.6414 121.89 26.6414ZM122.47 24.9014C123.95 24.9014 125.05 24.1214 125.05 22.7814V21.7414H123.81C121.97 21.7414 120.79 22.1614 120.79 23.4414C120.79 24.3214 121.27 24.9014 122.47 24.9014ZM130.304 26.4414V15.9814H132.724V26.4414H130.304ZM131.484 14.2614C130.684 14.2614 130.044 13.6614 130.044 12.8814C130.044 12.0814 130.684 11.4814 131.484 11.4814C132.284 11.4814 132.924 12.0814 132.924 12.8814C132.924 13.6614 132.284 14.2614 131.484 14.2614ZM139.253 26.6414C136.553 26.6414 134.973 25.4014 134.873 23.1814H137.153C137.273 24.2414 137.813 24.8614 139.233 24.8614C140.533 24.8614 141.113 24.4014 141.113 23.5214C141.113 22.6614 140.413 22.3414 138.873 22.0814C136.113 21.6414 135.093 20.8614 135.093 18.9014C135.093 16.8014 137.053 15.7614 139.013 15.7614C141.153 15.7614 142.853 16.5614 143.113 18.9214H140.873C140.673 17.9614 140.133 17.5214 139.013 17.5214C137.973 17.5214 137.353 18.0214 137.353 18.7614C137.353 19.5214 137.853 19.8214 139.513 20.1014C141.973 20.4814 143.433 21.0814 143.433 23.3014C143.433 25.4214 141.933 26.6414 139.253 26.6414Z" fill="#dd5900"/>
</svg>
