<?xml version="1.0" encoding="UTF-8"?>
<svg id="Layer_1" xmlns="http://www.w3.org/2000/svg" version="1.1" viewBox="0 0 425 62">
  <!-- Generator: Adobe Illustrator 29.8.1, SVG Export Plug-In . SVG Version: 2.1.1 Build 2)  -->
  <path d="M0,56v-15.7h3.6v2.9c1-2,2.5-3.1,5.1-3.2v3.4c-3.2,0-5.1,1.1-5.1,4.4v8.2H0ZM17.9,56.3c-4.6,0-8-3-8-8v-.2c0-4.9,3.3-8.1,7.8-8.1s7.4,2.3,7.4,7.9v1h-11.5c.1,3,1.6,4.7,4.3,4.7s3.3-.9,3.6-2.4h3.5c-.5,3.3-3.2,5.1-7.2,5.1ZM13.8,46.5h7.8c-.2-2.7-1.6-3.9-3.8-3.9s-3.7,1.5-4,3.9ZM33.3,56.3c-4,0-6.4-1.9-6.6-5.2h3.4c.2,1.6,1,2.5,3.1,2.5s2.8-.7,2.8-2-1-1.8-3.4-2.2c-4.1-.7-5.7-1.8-5.7-4.8s2.9-4.7,5.9-4.7,5.8,1.2,6.2,4.7h-3.4c-.3-1.4-1.1-2.1-2.8-2.1s-2.5.8-2.5,1.9.8,1.6,3.2,2c3.7.6,5.9,1.5,5.9,4.8s-2.2,5-6.3,5ZM42.2,61.3v-21.1h3.6v2.5c.9-1.5,2.8-2.9,5.1-2.9,3.9,0,7,2.9,7,8v.2c0,5-2.9,8.1-7,8.1s-4.3-1.2-5.1-2.8v7.8h-3.6ZM50.1,53.4c2.7,0,4.1-1.8,4.1-5.2v-.2c0-3.5-1.8-5.2-4.2-5.2s-4.3,1.7-4.3,5.2v.2c0,3.5,1.7,5.2,4.4,5.2ZM67.6,53.4c2.7,0,4.3-2,4.3-5.2v-.2c0-3.2-1.6-5.2-4.3-5.2s-4.4,2-4.4,5.2v.2c0,3.2,1.6,5.2,4.4,5.2ZM67.6,56.3c-4.6,0-8-3.2-8-8v-.2c0-4.9,3.4-8.1,8.1-8.1s8,3.2,8,8v.2c0,4.9-3.5,8.1-8.1,8.1ZM78.3,56v-15.7h3.6v2.5c.8-1.5,2.5-2.8,5.1-2.8s5.4,1.8,5.4,6.2v9.9h-3.6v-9.5c0-2.4-1-3.4-3.1-3.4s-3.7,1.3-3.7,3.8v9.2h-3.6ZM101.3,56.3c-4.1,0-6.4-1.9-6.6-5.2h3.4c.2,1.6,1,2.5,3.1,2.5s2.8-.7,2.8-2-1.1-1.8-3.4-2.2c-4.1-.7-5.7-1.8-5.7-4.8s2.9-4.7,5.9-4.7,5.8,1.2,6.2,4.7h-3.4c-.3-1.4-1.1-2.1-2.8-2.1s-2.5.8-2.5,1.9.8,1.6,3.2,2c3.7.6,5.9,1.5,5.9,4.8s-2.2,5-6.3,5ZM114.3,56.3c-2.9,0-5.2-1.4-5.2-4.6s3.5-5,8-5h2v-.8c0-2.1-.7-3.2-2.8-3.2s-2.8.9-3,2.5h-3.5c.3-3.7,3.2-5.2,6.7-5.2s6.3,1.4,6.3,5.7v10.3h-3.6v-1.9c-1,1.3-2.4,2.2-4.8,2.2ZM115.2,53.6c2.2,0,3.9-1.2,3.9-3.2v-1.6h-1.9c-2.8,0-4.5.6-4.5,2.5s.7,2.2,2.5,2.2ZM135,56.3c-2.5,0-4.3-1.2-5.1-2.8v2.5h-3.6v-23h3.6v9.8c.9-1.5,2.8-2.9,5.1-2.9,3.9,0,7,2.9,7,8v.2c0,5-2.9,8.1-7,8.1ZM134.1,53.4c2.7,0,4.1-1.8,4.1-5.2v-.2c0-3.5-1.8-5.2-4.2-5.2s-4.3,1.7-4.3,5.2v.2c0,3.5,1.7,5.2,4.3,5.2ZM144.7,56v-15.7h3.6v15.7h-3.6ZM146.5,37.7c-1.2,0-2.2-.9-2.2-2.1s1-2.1,2.2-2.1,2.2.9,2.2,2.1-1,2.1-2.2,2.1ZM152.3,56v-23h3.6v23h-3.6ZM159.8,56v-15.7h3.6v15.7h-3.6ZM161.6,37.7c-1.2,0-2.2-.9-2.2-2.1s1-2.1,2.2-2.1,2.2.9,2.2,2.1-1,2.1-2.2,2.1ZM173.1,56.3c-3.9,0-6.9-2.8-6.9-7.9v-.2c0-5,3-8.2,7.1-8.2s4.1,1.2,5,2.7v-9.7h3.6v23h-3.6v-2.6c-.8,1.6-2.8,2.9-5.2,2.9ZM174,53.4c2.5,0,4.4-1.7,4.4-5.2v-.2c0-3.5-1.6-5.2-4.2-5.2s-4.2,1.9-4.2,5.2v.2c0,3.5,1.7,5.1,4.1,5.1ZM189.8,56.3c-2.9,0-5.2-1.4-5.2-4.6s3.5-5,8-5h1.9v-.8c0-2.1-.7-3.2-2.8-3.2s-2.8.9-3,2.5h-3.5c.3-3.7,3.2-5.2,6.7-5.2s6.3,1.4,6.3,5.7v10.3h-3.6v-1.9c-1,1.3-2.4,2.2-4.8,2.2ZM190.6,53.6c2.2,0,3.9-1.2,3.9-3.2v-1.6h-1.9c-2.8,0-4.5.6-4.5,2.5s.7,2.2,2.5,2.2ZM207.6,56.3c-3.9,0-6.9-2.8-6.9-7.9v-.2c0-5,3-8.2,7.1-8.2s4.1,1.2,5,2.7v-9.7h3.6v23h-3.6v-2.6c-.8,1.6-2.8,2.9-5.2,2.9ZM208.5,53.4c2.5,0,4.4-1.7,4.4-5.2v-.2c0-3.5-1.6-5.2-4.2-5.2s-4.2,1.9-4.2,5.2v.2c0,3.5,1.7,5.1,4.1,5.1ZM227,56.3c-4.6,0-7.9-3-7.9-8v-.2c0-4.9,3.3-8.1,7.8-8.1s7.4,2.3,7.4,7.9v1h-11.5c.1,3,1.6,4.7,4.3,4.7s3.3-.9,3.6-2.4h3.5c-.5,3.3-3.2,5.1-7.2,5.1ZM222.8,46.5h7.8c-.2-2.7-1.6-3.9-3.8-3.9s-3.7,1.5-4,3.9ZM249.3,56.3c-3.9,0-6.9-2.8-6.9-7.9v-.2c0-5,3-8.2,7.1-8.2s4.1,1.2,5,2.7v-9.7h3.6v23h-3.6v-2.6c-.8,1.6-2.8,2.9-5.2,2.9ZM250.2,53.4c2.5,0,4.4-1.7,4.4-5.2v-.2c0-3.5-1.6-5.2-4.2-5.2s-4.2,1.9-4.2,5.2v.2c0,3.5,1.7,5.1,4.1,5.1ZM268.7,56.3c-4.6,0-8-3-8-8v-.2c0-4.9,3.3-8.1,7.8-8.1s7.4,2.3,7.4,7.9v1h-11.5c.1,3,1.6,4.7,4.3,4.7s3.3-.9,3.6-2.4h3.5c-.5,3.3-3.2,5.1-7.2,5.1ZM264.5,46.5h7.8c-.2-2.7-1.6-3.9-3.8-3.9s-3.7,1.5-4,3.9ZM290.5,56.2c-3.1,0-4.7-1.7-4.7-4.6v-8.6h-2.1v-2.7h2.1v-3.5h3.6v3.5h3.5v2.7h-3.5v8.2c0,1.4.7,2,1.8,2s1.3,0,1.8-.3v2.9c-.6.2-1.4.4-2.5.4ZM302.7,53.4c2.7,0,4.3-2,4.3-5.2v-.2c0-3.2-1.6-5.2-4.3-5.2s-4.4,2-4.4,5.2v.2c0,3.2,1.6,5.2,4.4,5.2ZM302.6,56.3c-4.6,0-8-3.2-8-8v-.2c0-4.9,3.5-8.1,8.1-8.1s8,3.2,8,8v.2c0,4.9-3.4,8.1-8.1,8.1ZM319.3,56.3c-3.9,0-6.9-2.8-6.9-7.9v-.2c0-5,3-8.2,7.1-8.2s4.1,1.2,5,2.7v-9.7h3.6v23h-3.6v-2.6c-.8,1.6-2.8,2.9-5.2,2.9ZM320.2,53.4c2.5,0,4.4-1.7,4.4-5.2v-.2c0-3.5-1.6-5.2-4.2-5.2s-4.2,1.9-4.2,5.2v.2c0,3.5,1.7,5.1,4.1,5.1ZM338.8,53.4c2.7,0,4.3-2,4.3-5.2v-.2c0-3.2-1.6-5.2-4.3-5.2s-4.4,2-4.4,5.2v.2c0,3.2,1.6,5.2,4.4,5.2ZM338.7,56.3c-4.6,0-8-3.2-8-8v-.2c0-4.9,3.5-8.1,8.1-8.1s8,3.2,8,8v.2c0,4.9-3.5,8.1-8.1,8.1ZM354.9,56.3c-4,0-6.4-1.9-6.6-5.2h3.4c.2,1.6,1,2.5,3.1,2.5s2.8-.7,2.8-2-1.1-1.8-3.4-2.2c-4.1-.7-5.7-1.8-5.7-4.8s2.9-4.7,5.9-4.7,5.8,1.2,6.1,4.7h-3.4c-.3-1.4-1.1-2.1-2.8-2.1s-2.5.8-2.5,1.9.8,1.6,3.2,2c3.7.6,5.9,1.5,5.9,4.8s-2.2,5-6.3,5ZM370.3,56v-15.7h3.6v2.5c.8-1.5,2.5-2.8,5.1-2.8s5.4,1.8,5.4,6.2v9.9h-3.6v-9.5c0-2.4-1-3.4-3.1-3.4s-3.7,1.3-3.7,3.8v9.2h-3.6ZM393.4,37.9l1.8-4.7h4l-3.1,4.7h-2.7ZM394.9,53.4c2.7,0,4.3-2,4.3-5.2v-.2c0-3.2-1.6-5.2-4.3-5.2s-4.4,2-4.4,5.2v.2c0,3.2,1.6,5.2,4.4,5.2ZM394.9,56.3c-4.6,0-8-3.2-8-8v-.2c0-4.9,3.5-8.1,8.1-8.1s8,3.2,8,8v.2c0,4.9-3.4,8.1-8.1,8.1ZM411,56.3c-4.1,0-6.4-1.9-6.6-5.2h3.4c.2,1.6,1,2.5,3.1,2.5s2.8-.7,2.8-2-1.1-1.8-3.4-2.2c-4.1-.7-5.7-1.8-5.7-4.8s2.9-4.7,5.9-4.7,5.8,1.2,6.2,4.7h-3.4c-.3-1.4-1.1-2.1-2.8-2.1s-2.5.8-2.5,1.9.8,1.6,3.2,2c3.7.6,5.9,1.5,5.9,4.8s-2.2,5-6.3,5ZM422,56.2c-1.3,0-2.4-1-2.4-2.3s1.1-2.4,2.4-2.4,2.4,1,2.4,2.4-1.1,2.3-2.4,2.3Z"/>
</svg>