<?xml version="1.0" encoding="UTF-8"?>
<svg id="Layer_1" xmlns="http://www.w3.org/2000/svg" version="1.1" viewBox="0 0 291 57">
  <!-- Generator: Adobe Illustrator 29.8.1, SVG Export Plug-In . SVG Version: 2.1.1 Build 2)  -->
  <defs>
    <style>
      .st0 {
        fill: #dd5900;
      }
    </style>
  </defs>
  <path class="st0" d="M5.3,56.4C2.4,56.4,0,55,0,51.7s3.5-5,8-5h1.9v-.8c0-2.1-.7-3.1-2.8-3.1s-2.8.9-3,2.5H.6c.3-3.7,3.2-5.2,6.7-5.2s6.3,1.4,6.3,5.7v10.3h-3.6v-1.9c-1,1.3-2.4,2.2-4.8,2.2ZM6.1,53.8c2.2,0,3.9-1.2,3.9-3.2v-1.6h-1.9c-2.8,0-4.5.6-4.5,2.6s.7,2.2,2.5,2.2ZM24.1,56.4c-4.5,0-7.9-2.9-7.9-8v-.2c0-5,3.5-8.1,7.9-8.1s6.8,1.6,7.2,5.9h-3.5c-.3-2.1-1.7-3-3.6-3s-4.3,1.9-4.3,5.2v.2c0,3.4,1.7,5.2,4.3,5.2s3.6-1.1,3.8-3.4h3.3c-.3,3.6-3,6.2-7.3,6.2ZM40.9,53.6c2.7,0,4.3-2,4.3-5.2v-.2c0-3.2-1.6-5.2-4.3-5.2s-4.3,2-4.3,5.2v.2c0,3.2,1.6,5.2,4.3,5.2ZM40.8,56.4c-4.6,0-8-3.2-8-8v-.2c0-4.9,3.5-8.1,8.1-8.1s8,3.2,8,8v.2c0,4.9-3.5,8.1-8.1,8.1ZM51.6,56.1v-15.7h3.6v2.5c.8-1.5,2.5-2.8,5.1-2.8s5.4,1.8,5.4,6.1v9.9h-3.6v-9.5c0-2.4-1-3.5-3.1-3.5s-3.7,1.3-3.7,3.8v9.2h-3.6ZM74.6,56.4c-3.1,0-4.7-1.7-4.7-4.6v-8.6h-2.1v-2.7h2.1v-3.5h3.6v3.5h3.4v2.7h-3.4v8.2c0,1.4.7,2,1.8,2s1.3,0,1.8-.3v2.9c-.6.2-1.3.4-2.5.4ZM86.6,56.4c-4.6,0-7.9-3-7.9-8v-.2c0-4.9,3.3-8.1,7.8-8.1s7.4,2.3,7.4,7.9v1h-11.5c.1,3,1.6,4.7,4.3,4.7s3.3-.9,3.6-2.4h3.5c-.5,3.3-3.2,5.1-7.2,5.1ZM82.4,46.6h7.8c-.2-2.7-1.6-3.9-3.8-3.9s-3.7,1.5-4,3.9ZM103.4,56.4c-4.5,0-7.9-2.9-7.9-8v-.2c0-5,3.5-8.1,7.9-8.1s6.8,1.6,7.2,5.9h-3.5c-.3-2.1-1.7-3-3.6-3s-4.3,1.9-4.3,5.2v.2c0,3.4,1.7,5.2,4.3,5.2s3.6-1.1,3.8-3.4h3.3c-.3,3.6-3,6.2-7.3,6.2ZM120.1,56.4c-4.6,0-7.9-3-7.9-8v-.2c0-4.9,3.3-8.1,7.8-8.1s7.4,2.3,7.4,7.9v1h-11.5c.1,3,1.6,4.7,4.3,4.7s3.3-.9,3.6-2.4h3.5c-.5,3.3-3.2,5.1-7.2,5.1ZM115.9,46.6h7.8c-.2-2.7-1.6-3.9-3.8-3.9s-3.7,1.5-4,3.9ZM130,56.1v-15.7h3.6v2.5c.8-1.5,2.5-2.8,5.1-2.8s5.4,1.8,5.4,6.1v9.9h-3.6v-9.5c0-2.4-1-3.5-3.1-3.5s-3.7,1.3-3.7,3.8v9.2h-3.6ZM153.5,56.4c-3.9,0-6.9-2.8-6.9-7.9v-.2c0-5,3-8.2,7.1-8.2s4.1,1.2,5,2.7v-9.7h3.6v23h-3.6v-2.6c-.8,1.6-2.9,2.9-5.2,2.9ZM154.4,53.5c2.5,0,4.4-1.7,4.4-5.2v-.2c0-3.5-1.6-5.2-4.2-5.2s-4.2,1.9-4.2,5.2v.2c0,3.4,1.7,5.1,4.1,5.1ZM173,53.6c2.7,0,4.3-2,4.3-5.2v-.2c0-3.2-1.6-5.2-4.3-5.2s-4.4,2-4.4,5.2v.2c0,3.2,1.6,5.2,4.4,5.2ZM173,56.4c-4.6,0-8-3.2-8-8v-.2c0-4.9,3.4-8.1,8.1-8.1s8,3.2,8,8v.2c0,4.9-3.4,8.1-8.1,8.1ZM190.3,56.1v-15.7h3.6v2.5c.8-1.5,2.5-2.8,5.1-2.8s5.4,1.8,5.4,6.1v9.9h-3.6v-9.5c0-2.4-1-3.5-3.1-3.5s-3.7,1.3-3.7,3.8v9.2h-3.6ZM212.1,56.4c-2.9,0-5.2-1.4-5.2-4.7s3.5-5,8-5h1.9v-.8c0-2.1-.7-3.1-2.8-3.1s-2.8.9-3,2.5h-3.5c.3-3.7,3.2-5.2,6.7-5.2s6.3,1.4,6.3,5.7v10.3h-3.6v-1.9c-1,1.3-2.4,2.2-4.8,2.2ZM212.9,53.8c2.2,0,3.9-1.2,3.9-3.2v-1.6h-1.9c-2.8,0-4.5.6-4.5,2.6s.7,2.2,2.5,2.2ZM230.8,56.1v-21.5h7.7c4.4,0,7,1.7,7,5.6h0c0,2.2-1,3.9-3.4,4.7,2.9.6,4.3,2.2,4.3,5.1h0c0,4.1-2.6,6.1-7.4,6.1h-8.2ZM234.7,53.2h3.9c2.7,0,3.9-1.2,3.9-3.4h0c0-2.3-1.2-3.5-4.2-3.5h-3.6v6.9ZM234.7,43.7h3.3c2.6,0,3.7-1,3.7-3.2h0c0-2.2-1.2-3-3.7-3h-3.2v6.2ZM249.6,56.1v-21.5h4v9.1h9.6v-9.1h4v21.5h-4v-9.1h-9.6v9.1h-4ZM271.5,56.1v-21.5h6.9c4.8,0,7.9,2.1,7.9,6.6h0c0,4.7-3.3,6.7-7.9,6.7h-3v8.2h-4ZM275.5,45.1h2.9c2.6,0,4-1.3,4-3.7h0c0-2.7-1.5-3.7-4-3.7h-2.9v7.3ZM287.7,56.3c-1.3,0-2.4-1-2.4-2.3s1-2.4,2.4-2.4,2.4,1,2.4,2.4-1,2.3-2.4,2.3Z"/>
</svg>