<?xml version="1.0" encoding="UTF-8"?>
<svg id="Layer_1" xmlns="http://www.w3.org/2000/svg" version="1.1" viewBox="0 0 425 62">
  <!-- Generator: Adobe Illustrator 29.8.1, SVG Export Plug-In . SVG Version: 2.1.1 Build 2)  -->
  <path d="M8.5,23.3C3.2,23.3.1,20.3.1,14.8V1.5h4v13c0,3.9,1.3,5.5,4.4,5.5s4.6-1.4,4.6-5.8V1.5h4v13.1c0,5.6-3,8.7-8.7,8.7ZM20.9,23V7.3h3.6v2.4c.8-1.5,2.5-2.7,4.8-2.7s3.7.9,4.4,2.8c1.2-1.9,3.4-2.8,5.3-2.8,2.9,0,5.2,1.8,5.2,6.1v9.9h-3.6v-9.7c0-2.3-1-3.3-2.8-3.3s-3.5,1.2-3.5,3.6v9.4h-3.6v-9.7c0-2.3-1-3.3-2.8-3.3s-3.5,1.2-3.5,3.6v9.4h-3.6ZM58.5,23.3c-2.9,0-5.2-1.4-5.2-4.6s3.5-5,8-5h2v-.8c0-2.1-.7-3.2-2.8-3.2s-2.8.9-3,2.5h-3.5c.3-3.7,3.2-5.2,6.7-5.2s6.3,1.4,6.3,5.7v10.3h-3.6v-1.9c-1,1.4-2.4,2.2-4.8,2.2ZM59.4,20.6c2.2,0,3.9-1.2,3.9-3.2v-1.6h-1.9c-2.8,0-4.5.6-4.5,2.5s.7,2.2,2.5,2.2ZM70.5,23V7.3h3.6v2.4c.8-1.5,2.5-2.7,4.8-2.7s3.7.9,4.4,2.8c1.2-1.9,3.4-2.8,5.3-2.8,2.9,0,5.2,1.8,5.2,6.1v9.9h-3.6v-9.7c0-2.3-1-3.3-2.8-3.3s-3.5,1.2-3.5,3.6v9.4h-3.6v-9.7c0-2.3-1-3.3-2.8-3.3s-3.4,1.2-3.4,3.6v9.4h-3.6ZM101.5,23.3c-2.9,0-5.2-1.4-5.2-4.6s3.5-5,8-5h1.9v-.8c0-2.1-.7-3.2-2.8-3.2s-2.8.9-3,2.5h-3.5c.3-3.7,3.2-5.2,6.7-5.2s6.3,1.4,6.3,5.7v10.3h-3.6v-1.9c-1,1.4-2.4,2.2-4.8,2.2ZM102.4,20.6c2.2,0,3.9-1.2,3.9-3.2v-1.6h-1.9c-2.8,0-4.5.6-4.5,2.5s.7,2.2,2.5,2.2ZM113.4,23V7.3h3.6v2.5c.8-1.5,2.5-2.8,5.1-2.8s5.4,1.8,5.4,6.2v9.9h-3.6v-9.5c0-2.4-1-3.5-3.1-3.5s-3.7,1.3-3.7,3.8v9.2h-3.6ZM131.1,23V0h3.6v9.7c.8-1.5,2.5-2.8,5.1-2.8s5.4,1.8,5.4,6.2v9.9h-3.6v-9.5c0-2.4-1-3.5-3.1-3.5s-3.7,1.3-3.7,3.8v9.2h-3.6ZM152.9,23.3c-2.9,0-5.2-1.4-5.2-4.6s3.5-5,8-5h1.9v-.8c0-2.1-.7-3.2-2.9-3.2s-2.8.9-3,2.5h-3.5c.3-3.7,3.2-5.2,6.7-5.2s6.3,1.4,6.3,5.7v10.3h-3.6v-1.9c-1,1.4-2.4,2.2-4.8,2.2ZM153.7,20.6c2.2,0,3.9-1.2,3.9-3.2v-1.6h-1.9c-2.8,0-4.5.6-4.5,2.5s.7,2.2,2.5,2.2ZM156.7,4.8c-1.4,0-2.5-1.2-3.3-1.2s-1,.5-1.1,1.2h-2.2c.2-2.5,1.5-3.9,3.2-3.9s2.4,1.2,3.4,1.2,1-.5,1.1-1.2h2.2c-.2,2.5-1.6,4-3.2,4ZM171.3,23V7.3h3.6v2.4c.8-1.5,2.5-2.7,4.8-2.7s3.7.9,4.4,2.8c1.2-1.9,3.4-2.8,5.3-2.8,2.9,0,5.2,1.8,5.2,6.1v9.9h-3.6v-9.7c0-2.3-1-3.3-2.8-3.3s-3.4,1.2-3.4,3.6v9.4h-3.6v-9.7c0-2.3-1-3.3-2.8-3.3s-3.4,1.2-3.4,3.6v9.4h-3.6ZM205.2,23.3c-4.6,0-7.9-3-7.9-8v-.2c0-4.9,3.3-8.1,7.8-8.1s7.4,2.3,7.4,7.9v1.1h-11.5c.1,3,1.6,4.6,4.3,4.6s3.3-.9,3.6-2.4h3.5c-.5,3.3-3.2,5.1-7.2,5.1ZM201,13.5h7.8c-.2-2.7-1.6-3.9-3.8-3.9s-3.7,1.5-4,3.9ZM215.2,23V0h3.6v23h-3.6ZM222.6,23V0h3.6v9.7c.8-1.5,2.5-2.8,5.1-2.8s5.4,1.8,5.4,6.2v9.9h-3.6v-9.5c0-2.4-1-3.5-3.1-3.5s-3.7,1.3-3.7,3.8v9.2h-3.6ZM247.3,20.4c2.7,0,4.3-2,4.3-5.2v-.2c0-3.2-1.6-5.2-4.3-5.2s-4.4,2-4.4,5.2v.2c0,3.2,1.6,5.2,4.4,5.2ZM247.3,23.3c-4.6,0-8-3.2-8-8v-.2c0-4.9,3.4-8.1,8.1-8.1s8,3.2,8,8v.2c0,4.9-3.4,8.1-8.1,8.1ZM258,23V7.3h3.6v2.9c1-2,2.5-3.2,5.1-3.2v3.4c-3.2,0-5.1,1.1-5.1,4.4v8.2h-3.6ZM281.1,4.9l1.8-4.6h4l-3.1,4.6h-2.7ZM282.8,23.3c-4.6,0-7.9-3-7.9-8v-.2c0-4.9,3.3-8.1,7.8-8.1s7.4,2.3,7.4,7.9v1.1h-11.5c.1,3,1.6,4.6,4.3,4.6s3.3-.9,3.6-2.4h3.5c-.5,3.3-3.2,5.1-7.2,5.1ZM278.6,13.5h7.8c-.2-2.7-1.6-3.9-3.8-3.9s-3.7,1.5-4,3.9Z"/>
</svg>