<svg width="62" height="24" viewBox="0 0 62 24" fill="none" xmlns="http://www.w3.org/2000/svg">
<path d="M61.1072 7.33286C61.1072 11.4067 57.8482 14.6657 53.7743 14.6657H48.75V23.2207H42.9787V0H53.7064C57.8482 0 61.1072 3.32695 61.1072 7.33286ZM52.8238 4.82068H48.8179V9.64136H52.8238C54.1138 9.64136 55.1323 8.48711 55.1323 7.26497C55.1323 5.97493 54.1138 4.82068 52.8238 4.82068ZM33.8806 0V9.43767H25.8687V0H20.0975V23.2886H25.8687V14.7336H33.8806V23.2886H39.6518V0H33.8806ZM17.8569 16.9742C17.8569 20.8443 14.3941 23.2886 10.7277 23.2886H0V0H10.3882C14.1905 0 17.3137 2.78377 17.3137 6.24651C17.3137 8.96239 16.0237 10.4561 14.2583 11.5425C16.2953 12.4251 17.8569 13.7152 17.8569 16.9742ZM9.57346 13.9189H5.77124V18.4001H9.57346C11.0672 18.4001 11.882 17.3816 11.882 16.1595C11.882 14.9373 10.7956 13.9189 9.57346 13.9189ZM9.03029 4.82068H5.77124V9.64136H9.03029C10.524 9.64136 11.3388 8.48711 11.3388 7.26497C11.3388 5.97493 10.524 4.82068 9.03029 4.82068Z" fill="#DD5900"/>
</svg>
