<svg width="143" height="14" viewBox="0 0 143 14" fill="none" xmlns="http://www.w3.org/2000/svg">
<path d="M6.56 11.448C8.72 11.448 10.08 9.8 10.08 7.32V7.192C10.08 4.84 8.768 3.096 6.528 3.096C4.288 3.096 2.96 4.744 2.96 7.208V7.336C2.96 9.832 4.48 11.448 6.56 11.448ZM6.528 13.16C3.024 13.16 0.736 10.648 0.736 7.352V7.224C0.736 3.88 3.136 1.4 6.528 1.4C9.936 1.4 12.288 3.816 12.288 7.176V7.304C12.288 10.648 10 13.16 6.528 13.16ZM21.0198 13.16C18.6198 13.16 16.7958 11.592 16.7958 8.92V8.792C16.7958 6.136 18.6838 4.456 21.0198 4.456C22.8758 4.456 24.6198 5.288 24.8438 7.592H22.9718C22.8118 6.472 22.0758 6.008 21.0518 6.008C19.7238 6.008 18.7798 7.032 18.7798 8.76V8.888C18.7798 10.712 19.6758 11.672 21.0998 11.672C22.1238 11.672 23.0038 11.064 23.1158 9.88H24.8918C24.7478 11.8 23.2918 13.16 21.0198 13.16ZM29.9829 11.656C31.4229 11.656 32.2869 10.584 32.2869 8.872V8.76C32.2869 7.032 31.4229 5.976 29.9829 5.976C28.5429 5.976 27.6629 7.016 27.6629 8.744V8.872C27.6629 10.584 28.5109 11.656 29.9829 11.656ZM29.9669 13.16C27.5029 13.16 25.6789 11.448 25.6789 8.904V8.776C25.6789 6.184 27.5189 4.456 29.9829 4.456C32.4309 4.456 34.2709 6.168 34.2709 8.728V8.856C34.2709 11.464 32.4309 13.16 29.9669 13.16ZM40.3721 13.16C39.0441 13.16 38.0841 12.504 37.6361 11.656V13H35.7001V0.759999H37.6361V5.976C38.1001 5.176 39.1401 4.456 40.3721 4.456C42.4681 4.456 44.0841 6.008 44.0841 8.712V8.84C44.0841 11.528 42.5321 13.16 40.3721 13.16ZM39.8921 11.624C41.3161 11.624 42.1001 10.664 42.1001 8.872V8.744C42.1001 6.888 41.1401 5.976 39.8761 5.976C38.5321 5.976 37.5721 6.888 37.5721 8.744V8.872C37.5721 10.744 38.4841 11.624 39.8921 11.624ZM45.5051 13V4.632H47.4411V6.2C47.9691 5.144 48.7531 4.52 50.1611 4.504V6.312C48.4651 6.328 47.4411 6.872 47.4411 8.648V13H45.5051ZM55.0683 13.16C52.6043 13.16 50.8283 11.544 50.8283 8.904V8.776C50.8283 6.184 52.6043 4.456 54.9883 4.456C57.0683 4.456 58.9403 5.688 58.9403 8.68V9.24H52.8123C52.8763 10.824 53.6763 11.72 55.1163 11.72C56.2843 11.72 56.8923 11.256 57.0363 10.44H58.9083C58.6363 12.2 57.2123 13.16 55.0683 13.16ZM52.8443 7.944H57.0203C56.9243 6.504 56.1883 5.864 54.9883 5.864C53.8203 5.864 53.0363 6.648 52.8443 7.944ZM66.61 3.384L67.554 0.903999H69.698L68.034 3.384H66.61ZM67.522 13.16C65.058 13.16 63.282 11.544 63.282 8.904V8.776C63.282 6.184 65.058 4.456 67.442 4.456C69.522 4.456 71.394 5.688 71.394 8.68V9.24H65.266C65.33 10.824 66.13 11.72 67.57 11.72C68.738 11.72 69.346 11.256 69.49 10.44H71.362C71.09 12.2 69.666 13.16 67.522 13.16ZM65.298 7.944H69.474C69.378 6.504 68.642 5.864 67.442 5.864C66.274 5.864 65.49 6.648 65.298 7.944ZM79.9758 13.16C77.5118 13.16 75.7358 11.544 75.7358 8.904V8.776C75.7358 6.184 77.5118 4.456 79.8958 4.456C81.9758 4.456 83.8478 5.688 83.8478 8.68V9.24H77.7198C77.7838 10.824 78.5838 11.72 80.0238 11.72C81.1918 11.72 81.7998 11.256 81.9438 10.44H83.8158C83.5438 12.2 82.1198 13.16 79.9758 13.16ZM77.7518 7.944H81.9278C81.8318 6.504 81.0958 5.864 79.8958 5.864C78.7278 5.864 77.9438 6.648 77.7518 7.944ZM88.1991 13.16C86.0391 13.16 84.7751 12.168 84.6951 10.392H86.5191C86.6151 11.24 87.0471 11.736 88.1831 11.736C89.2231 11.736 89.6871 11.368 89.6871 10.664C89.6871 9.976 89.1271 9.72 87.8951 9.512C85.6871 9.16 84.8711 8.536 84.8711 6.968C84.8711 5.288 86.4391 4.456 88.0071 4.456C89.7191 4.456 91.0791 5.096 91.2871 6.984H89.4951C89.3351 6.216 88.9031 5.864 88.0071 5.864C87.1751 5.864 86.6791 6.264 86.6791 6.856C86.6791 7.464 87.0791 7.704 88.4071 7.928C90.3751 8.232 91.5431 8.712 91.5431 10.488C91.5431 12.184 90.3431 13.16 88.1991 13.16ZM95.7854 13.16C93.6254 13.16 92.3614 12.168 92.2814 10.392H94.1054C94.2014 11.24 94.6334 11.736 95.7694 11.736C96.8094 11.736 97.2734 11.368 97.2734 10.664C97.2734 9.976 96.7134 9.72 95.4814 9.512C93.2734 9.16 92.4574 8.536 92.4574 6.968C92.4574 5.288 94.0254 4.456 95.5934 4.456C97.3054 4.456 98.6654 5.096 98.8734 6.984H97.0814C96.9214 6.216 96.4894 5.864 95.5934 5.864C94.7614 5.864 94.2654 6.264 94.2654 6.856C94.2654 7.464 94.6654 7.704 95.9934 7.928C97.9614 8.232 99.1294 8.712 99.1294 10.488C99.1294 12.184 97.9294 13.16 95.7854 13.16ZM104.188 13.16C101.724 13.16 99.9476 11.544 99.9476 8.904V8.776C99.9476 6.184 101.724 4.456 104.108 4.456C106.188 4.456 108.06 5.688 108.06 8.68V9.24H101.932C101.996 10.824 102.796 11.72 104.236 11.72C105.404 11.72 106.012 11.256 106.156 10.44H108.028C107.756 12.2 106.332 13.16 104.188 13.16ZM101.964 7.944H106.14C106.044 6.504 105.308 5.864 104.108 5.864C102.94 5.864 102.156 6.648 101.964 7.944ZM109.469 13V4.632H111.405V5.96C111.805 5.144 112.733 4.456 114.109 4.456C115.789 4.456 116.973 5.432 116.973 7.736V13H115.037V7.912C115.037 6.648 114.525 6.072 113.373 6.072C112.285 6.072 111.405 6.744 111.405 8.072V13H109.469ZM122.547 13.16C120.147 13.16 118.323 11.592 118.323 8.92V8.792C118.323 6.136 120.211 4.456 122.547 4.456C124.403 4.456 126.147 5.288 126.371 7.592H124.499C124.339 6.472 123.603 6.008 122.579 6.008C121.251 6.008 120.307 7.032 120.307 8.76V8.888C120.307 10.712 121.203 11.672 122.627 11.672C123.651 11.672 124.531 11.064 124.643 9.88H126.419C126.275 11.8 124.819 13.16 122.547 13.16ZM127.814 13V4.632H129.75V13H127.814ZM128.758 3.256C128.118 3.256 127.606 2.776 127.606 2.152C127.606 1.512 128.118 1.032 128.758 1.032C129.398 1.032 129.91 1.512 129.91 2.152C129.91 2.776 129.398 3.256 128.758 3.256ZM133.982 13.16C132.446 13.16 131.182 12.424 131.182 10.68C131.182 8.728 133.07 8.024 135.47 8.024H136.51V7.592C136.51 6.472 136.126 5.912 134.99 5.912C133.982 5.912 133.486 6.392 133.39 7.224H131.518C131.678 5.272 133.23 4.456 135.102 4.456C136.974 4.456 138.446 5.224 138.446 7.512V13H136.542V11.976C135.998 12.696 135.262 13.16 133.982 13.16ZM134.446 11.768C135.63 11.768 136.51 11.144 136.51 10.072V9.24H135.518C134.046 9.24 133.102 9.576 133.102 10.6C133.102 11.304 133.486 11.768 134.446 11.768ZM140.393 13V0.759999H142.329V13H140.393Z" fill="black"/>
</svg>
