<svg width="202" height="17" viewBox="0 0 202 17" fill="none" xmlns="http://www.w3.org/2000/svg">
<path d="M0.152 15.864V4.632H2.088V5.976C2.552 5.176 3.592 4.456 4.824 4.456C6.92 4.456 8.536 6.008 8.536 8.712V8.84C8.536 11.528 6.984 13.16 4.824 13.16C3.496 13.16 2.536 12.504 2.088 11.688V15.864H0.152ZM4.344 11.624C5.768 11.624 6.552 10.664 6.552 8.872V8.744C6.552 6.888 5.592 5.976 4.328 5.976C2.984 5.976 2.024 6.888 2.024 8.744V8.872C2.024 10.744 2.936 11.624 4.344 11.624ZM12.149 13.16C10.613 13.16 9.349 12.424 9.349 10.68C9.349 8.728 11.237 8.024 13.637 8.024H14.677V7.592C14.677 6.472 14.293 5.912 13.157 5.912C12.149 5.912 11.653 6.392 11.557 7.224H9.685C9.845 5.272 11.397 4.456 13.269 4.456C15.141 4.456 16.613 5.224 16.613 7.512V13H14.709V11.976C14.165 12.696 13.429 13.16 12.149 13.16ZM12.613 11.768C13.797 11.768 14.677 11.144 14.677 10.072V9.24H13.685C12.213 9.24 11.269 9.576 11.269 10.6C11.269 11.304 11.653 11.768 12.613 11.768ZM18.512 13V4.632H20.448V6.2C20.976 5.144 21.76 4.52 23.168 4.504V6.312C21.472 6.328 20.448 6.872 20.448 8.648V13H18.512ZM26.5871 13.16C25.0511 13.16 23.7871 12.424 23.7871 10.68C23.7871 8.728 25.6751 8.024 28.0751 8.024H29.1151V7.592C29.1151 6.472 28.7311 5.912 27.5951 5.912C26.5871 5.912 26.0911 6.392 25.9951 7.224H24.1231C24.2831 5.272 25.8351 4.456 27.7071 4.456C29.5791 4.456 31.0511 5.224 31.0511 7.512V13H29.1471V11.976C28.6031 12.696 27.8671 13.16 26.5871 13.16ZM27.0511 11.768C28.2351 11.768 29.1151 11.144 29.1151 10.072V9.24H28.1231C26.6511 9.24 25.7071 9.576 25.7071 10.6C25.7071 11.304 26.0911 11.768 27.0511 11.768ZM38.6346 13.16C37.0986 13.16 35.8346 12.424 35.8346 10.68C35.8346 8.728 37.7226 8.024 40.1226 8.024H41.1626V7.592C41.1626 6.472 40.7786 5.912 39.6426 5.912C38.6346 5.912 38.1386 6.392 38.0426 7.224H36.1706C36.3306 5.272 37.8826 4.456 39.7546 4.456C41.6266 4.456 43.0986 5.224 43.0986 7.512V13H41.1946V11.976C40.6506 12.696 39.9146 13.16 38.6346 13.16ZM39.0986 11.768C40.2826 11.768 41.1626 11.144 41.1626 10.072V9.24H40.1706C38.6986 9.24 37.7546 9.576 37.7546 10.6C37.7546 11.304 38.1386 11.768 39.0986 11.768ZM51.3381 13.144C49.6741 13.144 48.8101 12.248 48.8101 10.664V6.088H47.6901V4.632H48.8101V2.792H50.7461V4.632H52.5861V6.088H50.7461V10.488C50.7461 11.224 51.0981 11.56 51.7061 11.56C52.0901 11.56 52.3781 11.512 52.6501 11.4V12.936C52.3461 13.048 51.9301 13.144 51.3381 13.144ZM54.0764 13V4.632H56.0124V6.2C56.5404 5.144 57.3244 4.52 58.7324 4.504V6.312C57.0364 6.328 56.0124 6.872 56.0124 8.648V13H54.0764ZM62.1515 13.16C60.6155 13.16 59.3515 12.424 59.3515 10.68C59.3515 8.728 61.2395 8.024 63.6395 8.024H64.6795V7.592C64.6795 6.472 64.2955 5.912 63.1595 5.912C62.1515 5.912 61.6555 6.392 61.5595 7.224H59.6875C59.8475 5.272 61.3995 4.456 63.2715 4.456C65.1435 4.456 66.6155 5.224 66.6155 7.512V13H64.7115V11.976C64.1675 12.696 63.4315 13.16 62.1515 13.16ZM62.6155 11.768C63.7995 11.768 64.6795 11.144 64.6795 10.072V9.24H63.6875C62.2155 9.24 61.2715 9.576 61.2715 10.6C61.2715 11.304 61.6555 11.768 62.6155 11.768ZM68.5145 13V4.632H70.4505V5.96C70.8505 5.144 71.7785 4.456 73.1545 4.456C74.8345 4.456 76.0185 5.432 76.0185 7.736V13H74.0825V7.912C74.0825 6.648 73.5705 6.072 72.4185 6.072C71.3305 6.072 70.4505 6.744 70.4505 8.072V13H68.5145ZM80.7929 13.16C78.6329 13.16 77.3689 12.168 77.2889 10.392H79.1129C79.2089 11.24 79.6409 11.736 80.7769 11.736C81.8169 11.736 82.2809 11.368 82.2809 10.664C82.2809 9.976 81.7209 9.72 80.4889 9.512C78.2809 9.16 77.4649 8.536 77.4649 6.968C77.4649 5.288 79.0329 4.456 80.6009 4.456C82.3129 4.456 83.6729 5.096 83.8809 6.984H82.0889C81.9289 6.216 81.4969 5.864 80.6009 5.864C79.7689 5.864 79.2729 6.264 79.2729 6.856C79.2729 7.464 79.6729 7.704 81.0009 7.928C82.9689 8.232 84.1369 8.712 84.1369 10.488C84.1369 12.184 82.9369 13.16 80.7929 13.16ZM85.5631 13V4.632H87.4991V13H85.5631ZM86.5071 3.256C85.8671 3.256 85.3551 2.776 85.3551 2.152C85.3551 1.512 85.8671 1.032 86.5071 1.032C87.1471 1.032 87.6591 1.512 87.6591 2.152C87.6591 2.776 87.1471 3.256 86.5071 3.256ZM92.9149 16.504C91.9069 16.504 91.2509 15.96 91.1549 15.096H92.2109C92.2589 15.368 92.4669 15.624 92.8509 15.624C93.2189 15.624 93.4429 15.4 93.4429 15.08C93.4429 14.776 93.2189 14.568 92.8829 14.568C92.6589 14.568 92.4989 14.648 92.4029 14.712L91.8589 14.2L92.4989 13.112C90.4509 12.84 88.9789 11.336 88.9789 8.92V8.792C88.9789 6.136 90.8669 4.456 93.2029 4.456C95.0589 4.456 96.8029 5.288 97.0269 7.592H95.1549C94.9949 6.472 94.2589 6.008 93.2349 6.008C91.9069 6.008 90.9629 7.032 90.9629 8.76V8.888C90.9629 10.712 91.8589 11.672 93.2829 11.672C94.3069 11.672 95.1869 11.064 95.2989 9.88H97.0749C96.9309 11.736 95.5709 13.064 93.4269 13.16L93.0589 13.8C93.8589 13.704 94.6589 14.12 94.6589 15.128C94.6589 16.024 93.9069 16.504 92.9149 16.504ZM100.614 13.16C99.078 13.16 97.814 12.424 97.814 10.68C97.814 8.728 99.702 8.024 102.102 8.024H103.142V7.592C103.142 6.472 102.758 5.912 101.622 5.912C100.614 5.912 100.118 6.392 100.022 7.224H98.15C98.31 5.272 99.862 4.456 101.734 4.456C103.606 4.456 105.078 5.224 105.078 7.512V13H103.174V11.976C102.63 12.696 101.894 13.16 100.614 13.16ZM101.078 11.768C102.262 11.768 103.142 11.144 103.142 10.072V9.24H102.15C100.678 9.24 99.734 9.576 99.734 10.6C99.734 11.304 100.118 11.768 101.078 11.768ZM102.662 3.304C101.894 3.304 101.35 2.664 100.886 2.664C100.598 2.664 100.358 2.936 100.294 3.304H99.094C99.222 1.96 99.91 1.208 100.806 1.208C101.542 1.208 102.102 1.832 102.598 1.832C102.886 1.832 103.11 1.576 103.174 1.192H104.374C104.246 2.536 103.542 3.304 102.662 3.304ZM110.721 11.656C112.161 11.656 113.025 10.584 113.025 8.872V8.76C113.025 7.032 112.161 5.976 110.721 5.976C109.281 5.976 108.401 7.016 108.401 8.744V8.872C108.401 10.584 109.249 11.656 110.721 11.656ZM110.705 13.16C108.241 13.16 106.417 11.448 106.417 8.904V8.776C106.417 6.184 108.257 4.456 110.721 4.456C113.169 4.456 115.009 6.168 115.009 8.728V8.856C115.009 11.464 113.169 13.16 110.705 13.16ZM123.611 13.16C121.147 13.16 119.371 11.544 119.371 8.904V8.776C119.371 6.184 121.147 4.456 123.531 4.456C125.611 4.456 127.483 5.688 127.483 8.68V9.24H121.355C121.419 10.824 122.219 11.72 123.659 11.72C124.827 11.72 125.435 11.256 125.579 10.44H127.451C127.179 12.2 125.755 13.16 123.611 13.16ZM121.387 7.944H125.563C125.467 6.504 124.731 5.864 123.531 5.864C122.363 5.864 121.579 6.648 121.387 7.944ZM128.892 13V4.632H130.828V5.96C131.228 5.144 132.156 4.456 133.532 4.456C135.212 4.456 136.396 5.432 136.396 7.736V13H134.46V7.912C134.46 6.648 133.948 6.072 132.796 6.072C131.708 6.072 130.828 6.744 130.828 8.072V13H128.892ZM141.986 13.16C139.522 13.16 137.746 11.544 137.746 8.904V8.776C137.746 6.184 139.522 4.456 141.906 4.456C143.986 4.456 145.858 5.688 145.858 8.68V9.24H139.73C139.794 10.824 140.594 11.72 142.034 11.72C143.202 11.72 143.81 11.256 143.954 10.44H145.826C145.554 12.2 144.13 13.16 141.986 13.16ZM139.762 7.944H143.938C143.842 6.504 143.106 5.864 141.906 5.864C140.738 5.864 139.954 6.648 139.762 7.944ZM147.268 13V4.632H149.204V6.2C149.732 5.144 150.516 4.52 151.924 4.504V6.312C150.228 6.328 149.204 6.872 149.204 8.648V13H147.268ZM156.719 16.072C154.095 16.072 152.911 14.888 152.687 13.288H154.639C154.799 14.12 155.439 14.6 156.703 14.6C158.207 14.6 159.039 13.848 159.039 12.344V11.112C158.575 11.912 157.535 12.664 156.303 12.664C154.207 12.664 152.591 11.096 152.591 8.68V8.568C152.591 6.216 154.191 4.456 156.351 4.456C157.727 4.456 158.559 5.08 159.039 5.912V4.632H160.975V12.376C160.959 14.84 159.311 16.072 156.719 16.072ZM156.783 11.176C158.127 11.176 159.103 10.216 159.103 8.616V8.504C159.103 6.92 158.239 5.976 156.847 5.976C155.407 5.976 154.575 7.016 154.575 8.536V8.664C154.575 10.216 155.535 11.176 156.783 11.176ZM165.724 3.384L166.668 0.903999H168.812L167.148 3.384H165.724ZM166.636 13.16C164.172 13.16 162.396 11.544 162.396 8.904V8.776C162.396 6.184 164.172 4.456 166.556 4.456C168.636 4.456 170.508 5.688 170.508 8.68V9.24H164.38C164.444 10.824 165.244 11.72 166.684 11.72C167.852 11.72 168.46 11.256 168.604 10.44H170.476C170.204 12.2 168.78 13.16 166.636 13.16ZM164.412 7.944H168.588C168.492 6.504 167.756 5.864 166.556 5.864C165.388 5.864 164.604 6.648 164.412 7.944ZM174.765 13.144C173.101 13.144 172.237 12.248 172.237 10.664V6.088H171.117V4.632H172.237V2.792H174.173V4.632H176.013V6.088H174.173V10.488C174.173 11.224 174.525 11.56 175.133 11.56C175.517 11.56 175.805 11.512 176.077 11.4V12.936C175.773 13.048 175.357 13.144 174.765 13.144ZM177.551 13V4.632H179.487V13H177.551ZM178.495 3.256C177.855 3.256 177.343 2.776 177.343 2.152C177.343 1.512 177.855 1.032 178.495 1.032C179.135 1.032 179.647 1.512 179.647 2.152C179.647 2.776 179.135 3.256 178.495 3.256ZM185.191 13.16C182.791 13.16 180.967 11.592 180.967 8.92V8.792C180.967 6.136 182.855 4.456 185.191 4.456C187.047 4.456 188.791 5.288 189.015 7.592H187.143C186.983 6.472 186.247 6.008 185.223 6.008C183.895 6.008 182.951 7.032 182.951 8.76V8.888C182.951 10.712 183.847 11.672 185.271 11.672C186.295 11.672 187.175 11.064 187.287 9.88H189.063C188.919 11.8 187.463 13.16 185.191 13.16ZM192.602 13.16C191.066 13.16 189.802 12.424 189.802 10.68C189.802 8.728 191.69 8.024 194.09 8.024H195.13V7.592C195.13 6.472 194.746 5.912 193.61 5.912C192.602 5.912 192.106 6.392 192.01 7.224H190.138C190.298 5.272 191.85 4.456 193.722 4.456C195.594 4.456 197.066 5.224 197.066 7.512V13H195.162V11.976C194.618 12.696 193.882 13.16 192.602 13.16ZM193.066 11.768C194.25 11.768 195.13 11.144 195.13 10.072V9.24H194.138C192.666 9.24 191.722 9.576 191.722 10.6C191.722 11.304 192.106 11.768 193.066 11.768ZM200.117 13.112C199.413 13.112 198.853 12.568 198.853 11.864C198.853 11.16 199.413 10.6 200.117 10.6C200.837 10.6 201.397 11.16 201.397 11.864C201.397 12.568 200.837 13.112 200.117 13.112Z" fill="black"/>
</svg>
