<?xml version="1.0" encoding="utf-8"?>
<!-- Generator: Adobe Illustrator 27.7.0, SVG Export Plug-In . SVG Version: 6.00 Build 0)  -->
<svg version="1.1" id="Layer_1" xmlns="http://www.w3.org/2000/svg" xmlns:xlink="http://www.w3.org/1999/xlink" x="0px" y="0px"
	 viewBox="0 0 254 38" style="enable-background:new 0 0 254 38;" xml:space="preserve">
<path d="M0.1,34.3v-9.4h2.2v1.8c0.6-1.2,1.5-1.9,3-1.9v2c-1.9,0-3,0.6-3,2.6v4.9H0.1z M10.8,34.5c-2.8,0-4.7-1.8-4.7-4.8v-0.1
	c0-2.9,2-4.8,4.7-4.8c2.3,0,4.4,1.4,4.4,4.7v0.6H8.3c0.1,1.8,1,2.8,2.6,2.8c1.3,0,2-0.5,2.2-1.4h2.1C14.8,33.4,13.2,34.5,10.8,34.5z
	 M8.3,28.7H13c-0.1-1.6-0.9-2.3-2.3-2.3C9.4,26.3,8.5,27.2,8.3,28.7z M20,34.5c-2.4,0-3.8-1.1-3.9-3.1h2c0.1,0.9,0.6,1.5,1.9,1.5
	c1.2,0,1.7-0.4,1.7-1.2c0-0.8-0.6-1.1-2-1.3c-2.5-0.4-3.4-1.1-3.4-2.8c0-1.9,1.8-2.8,3.5-2.8c1.9,0,3.4,0.7,3.7,2.8h-2
	c-0.2-0.9-0.7-1.3-1.7-1.3c-0.9,0-1.5,0.4-1.5,1.1c0,0.7,0.4,0.9,1.9,1.2c2.2,0.3,3.5,0.9,3.5,2.9C23.8,33.4,22.4,34.5,20,34.5z
	 M25.3,37.5V24.9h2.2v1.5c0.5-0.9,1.7-1.7,3.1-1.7c2.3,0,4.2,1.7,4.2,4.8v0.1c0,3-1.7,4.8-4.2,4.8c-1.5,0-2.6-0.7-3.1-1.6v4.7H25.3z
	 M30,32.8c1.6,0,2.5-1.1,2.5-3.1v-0.1c0-2.1-1.1-3.1-2.5-3.1c-1.5,0-2.6,1-2.6,3.1v0.1C27.4,31.8,28.4,32.8,30,32.8z M40.5,32.8
	c1.6,0,2.6-1.2,2.6-3.1v-0.1c0-1.9-1-3.1-2.6-3.1s-2.6,1.2-2.6,3.1v0.1C37.9,31.6,38.8,32.8,40.5,32.8z M40.5,34.5
	c-2.8,0-4.8-1.9-4.8-4.8v-0.1c0-2.9,2.1-4.8,4.8-4.8c2.7,0,4.8,1.9,4.8,4.8v0.1C45.3,32.6,43.2,34.5,40.5,34.5z M46.9,34.3v-9.4H49
	v1.5c0.4-0.9,1.5-1.7,3-1.7c1.9,0,3.2,1.1,3.2,3.7v5.9h-2.2v-5.7c0-1.4-0.6-2.1-1.9-2.1c-1.2,0-2.2,0.8-2.2,2.2v5.5H46.9z
	 M60.6,34.5c-2.4,0-3.8-1.1-3.9-3.1h2c0.1,0.9,0.6,1.5,1.9,1.5c1.2,0,1.7-0.4,1.7-1.2c0-0.8-0.6-1.1-2-1.3c-2.5-0.4-3.4-1.1-3.4-2.8
	c0-1.9,1.8-2.8,3.5-2.8c1.9,0,3.4,0.7,3.7,2.8h-2c-0.2-0.9-0.7-1.3-1.7-1.3c-0.9,0-1.5,0.4-1.5,1.1c0,0.7,0.4,0.9,1.9,1.2
	c2.2,0.3,3.5,0.9,3.5,2.9C64.4,33.4,63,34.5,60.6,34.5z M68.4,34.5c-1.7,0-3.1-0.8-3.1-2.8c0-2.2,2.1-3,4.8-3h1.2v-0.5
	c0-1.3-0.4-1.9-1.7-1.9c-1.1,0-1.7,0.5-1.8,1.5h-2.1c0.2-2.2,1.9-3.1,4-3.1c2.1,0,3.7,0.9,3.7,3.4v6.1h-2.1v-1.1
	C70.6,34,69.8,34.5,68.4,34.5z M68.9,32.9c1.3,0,2.3-0.7,2.3-1.9v-0.9h-1.1c-1.6,0-2.7,0.4-2.7,1.5C67.4,32.4,67.8,32.9,68.9,32.9z
	 M80.7,34.5c-1.5,0-2.6-0.7-3.1-1.7v1.5h-2.2V20.6h2.2v5.8c0.5-0.9,1.7-1.7,3.1-1.7c2.3,0,4.2,1.7,4.2,4.8v0.1
	C84.9,32.7,83.2,34.5,80.7,34.5z M80.2,32.8c1.6,0,2.5-1.1,2.5-3.1v-0.1c0-2.1-1.1-3.1-2.5-3.1c-1.5,0-2.6,1-2.6,3.1v0.1
	C77.6,31.8,78.6,32.8,80.2,32.8z M86.5,34.3v-9.4h2.2v9.4H86.5z M87.6,23.4c-0.7,0-1.3-0.5-1.3-1.2c0-0.7,0.6-1.3,1.3-1.3
	c0.7,0,1.3,0.5,1.3,1.3C88.9,22.9,88.3,23.4,87.6,23.4z M91,34.3V20.6h2.2v13.7H91z M95.5,34.3v-9.4h2.2v9.4H95.5z M96.6,23.4
	c-0.7,0-1.3-0.5-1.3-1.2c0-0.7,0.6-1.3,1.3-1.3c0.7,0,1.3,0.5,1.3,1.3C97.9,22.9,97.3,23.4,96.6,23.4z M103.5,34.5
	c-2.3,0-4.1-1.7-4.1-4.7v-0.1c0-3,1.8-4.9,4.2-4.9c1.5,0,2.5,0.7,3,1.6v-5.8h2.2v13.7h-2.2v-1.6C106.1,33.7,104.9,34.5,103.5,34.5z
	 M104.1,32.8c1.5,0,2.6-1,2.6-3.1v-0.1c0-2.1-0.9-3.1-2.5-3.1c-1.6,0-2.5,1.1-2.5,3.1v0.1C101.6,31.8,102.7,32.8,104.1,32.8z
	 M113.4,34.5c-1.7,0-3.1-0.8-3.1-2.8c0-2.2,2.1-3,4.8-3h1.2v-0.5c0-1.3-0.4-1.9-1.7-1.9c-1.1,0-1.7,0.5-1.8,1.5h-2.1
	c0.2-2.2,1.9-3.1,4-3.1c2.1,0,3.7,0.9,3.7,3.4v6.1h-2.1v-1.1C115.7,34,114.9,34.5,113.4,34.5z M114,32.9c1.3,0,2.3-0.7,2.3-1.9v-0.9
	h-1.1c-1.6,0-2.7,0.4-2.7,1.5C112.5,32.4,112.9,32.9,114,32.9z M124.1,34.5c-2.3,0-4.1-1.7-4.1-4.7v-0.1c0-3,1.8-4.9,4.2-4.9
	c1.5,0,2.5,0.7,3,1.6v-5.8h2.2v13.7h-2.2v-1.6C126.7,33.7,125.5,34.5,124.1,34.5z M124.6,32.8c1.5,0,2.6-1,2.6-3.1v-0.1
	c0-2.1-1-3.1-2.5-3.1c-1.6,0-2.5,1.1-2.5,3.1v0.1C122.2,31.8,123.2,32.8,124.6,32.8z M135.7,34.5c-2.8,0-4.7-1.8-4.7-4.8v-0.1
	c0-2.9,2-4.8,4.7-4.8c2.3,0,4.4,1.4,4.4,4.7v0.6h-6.9c0.1,1.8,1,2.8,2.6,2.8c1.3,0,2-0.5,2.1-1.4h2.1
	C139.7,33.4,138.1,34.5,135.7,34.5z M133.2,28.7h4.7c-0.1-1.6-0.9-2.3-2.3-2.3C134.3,26.3,133.4,27.2,133.2,28.7z M149,34.5
	c-2.3,0-4.1-1.7-4.1-4.7v-0.1c0-3,1.8-4.9,4.2-4.9c1.5,0,2.5,0.7,3,1.6v-5.8h2.2v13.7h-2.2v-1.6C151.6,33.7,150.4,34.5,149,34.5z
	 M149.5,32.8c1.5,0,2.6-1,2.6-3.1v-0.1c0-2.1-0.9-3.1-2.5-3.1c-1.6,0-2.5,1.1-2.5,3.1v0.1C147.1,31.8,148.1,32.8,149.5,32.8z
	 M160.6,34.5c-2.8,0-4.7-1.8-4.7-4.8v-0.1c0-2.9,2-4.8,4.7-4.8c2.3,0,4.4,1.4,4.4,4.7v0.6h-6.9c0.1,1.8,1,2.8,2.6,2.8
	c1.3,0,2-0.5,2.2-1.4h2.1C164.6,33.4,163,34.5,160.6,34.5z M158.1,28.7h4.7c-0.1-1.6-0.9-2.3-2.3-2.3
	C159.2,26.3,158.3,27.2,158.1,28.7z M173.6,34.5c-1.9,0-2.8-1-2.8-2.8v-5.1h-1.3v-1.6h1.3v-2.1h2.2v2.1h2.1v1.6H173v4.9
	c0,0.8,0.4,1.2,1.1,1.2c0.4,0,0.8-0.1,1.1-0.2v1.7C174.7,34.4,174.3,34.5,173.6,34.5z M180.9,32.8c1.6,0,2.6-1.2,2.6-3.1v-0.1
	c0-1.9-1-3.1-2.6-3.1c-1.6,0-2.6,1.2-2.6,3.1v0.1C178.3,31.6,179.2,32.8,180.9,32.8z M180.9,34.5c-2.8,0-4.8-1.9-4.8-4.8v-0.1
	c0-2.9,2.1-4.8,4.8-4.8c2.7,0,4.8,1.9,4.8,4.8v0.1C185.7,32.6,183.6,34.5,180.9,34.5z M190.8,34.5c-2.3,0-4.1-1.7-4.1-4.7v-0.1
	c0-3,1.8-4.9,4.2-4.9c1.5,0,2.5,0.7,3,1.6v-5.8h2.2v13.7h-2.2v-1.6C193.4,33.7,192.2,34.5,190.8,34.5z M191.3,32.8
	c1.5,0,2.6-1,2.6-3.1v-0.1c0-2.1-0.9-3.1-2.5-3.1c-1.6,0-2.5,1.1-2.5,3.1v0.1C188.9,31.8,189.9,32.8,191.3,32.8z M202.5,32.8
	c1.6,0,2.6-1.2,2.6-3.1v-0.1c0-1.9-1-3.1-2.6-3.1c-1.6,0-2.6,1.2-2.6,3.1v0.1C199.9,31.6,200.8,32.8,202.5,32.8z M202.4,34.5
	c-2.8,0-4.8-1.9-4.8-4.8v-0.1c0-2.9,2.1-4.8,4.8-4.8c2.7,0,4.8,1.9,4.8,4.8v0.1C207.3,32.6,205.2,34.5,202.4,34.5z M212.1,34.5
	c-2.4,0-3.8-1.1-3.9-3.1h2c0.1,0.9,0.6,1.5,1.9,1.5c1.2,0,1.7-0.4,1.7-1.2c0-0.8-0.6-1.1-2-1.3c-2.5-0.4-3.4-1.1-3.4-2.8
	c0-1.9,1.8-2.8,3.5-2.8c1.9,0,3.4,0.7,3.7,2.8h-2c-0.2-0.9-0.7-1.3-1.7-1.3c-0.9,0-1.5,0.4-1.5,1.1c0,0.7,0.4,0.9,1.9,1.2
	c2.2,0.3,3.5,0.9,3.5,2.9C215.8,33.4,214.5,34.5,212.1,34.5z M221.3,34.3v-9.4h2.2v1.5c0.4-0.9,1.5-1.7,3-1.7c1.9,0,3.2,1.1,3.2,3.7
	v5.9h-2.2v-5.7c0-1.4-0.6-2.1-1.9-2.1c-1.2,0-2.2,0.8-2.2,2.2v5.5H221.3z M235.1,23.5l1.1-2.8h2.4l-1.9,2.8H235.1z M236,32.8
	c1.6,0,2.6-1.2,2.6-3.1v-0.1c0-1.9-1-3.1-2.6-3.1c-1.6,0-2.6,1.2-2.6,3.1v0.1C233.4,31.6,234.4,32.8,236,32.8z M236,34.5
	c-2.8,0-4.8-1.9-4.8-4.8v-0.1c0-2.9,2.1-4.8,4.8-4.8c2.7,0,4.8,1.9,4.8,4.8v0.1C240.8,32.6,238.7,34.5,236,34.5z M245.6,34.5
	c-2.4,0-3.8-1.1-3.9-3.1h2c0.1,0.9,0.6,1.5,1.9,1.5c1.2,0,1.7-0.4,1.7-1.2c0-0.8-0.6-1.1-2-1.3c-2.5-0.4-3.4-1.1-3.4-2.8
	c0-1.9,1.8-2.8,3.5-2.8c1.9,0,3.4,0.7,3.7,2.8h-2c-0.2-0.9-0.7-1.3-1.7-1.3c-0.9,0-1.5,0.4-1.5,1.1c0,0.7,0.4,0.9,1.9,1.2
	c2.2,0.3,3.5,0.9,3.5,2.9C249.4,33.4,248,34.5,245.6,34.5z M252.2,34.4c-0.8,0-1.4-0.6-1.4-1.4c0-0.8,0.6-1.4,1.4-1.4
	c0.8,0,1.4,0.6,1.4,1.4C253.6,33.8,253,34.4,252.2,34.4z"/>
</svg>
