<?xml version="1.0" encoding="utf-8"?>
<!-- Generator: Adobe Illustrator 27.7.0, SVG Export Plug-In . SVG Version: 6.00 Build 0)  -->
<svg version="1.1" id="Layer_1" xmlns="http://www.w3.org/2000/svg" xmlns:xlink="http://www.w3.org/1999/xlink" x="0px" y="0px"
	 viewBox="0 0 254 38" style="enable-background:new 0 0 254 38;" xml:space="preserve">
<path d="M5.2,14.5c-3.2,0-5-1.8-5-5.1V1.5h2.4v7.8c0,2.3,0.8,3.3,2.7,3.3c1.8,0,2.8-0.8,2.8-3.5V1.5h2.4v7.8
	C10.4,12.7,8.6,14.5,5.2,14.5z M12.6,14.3V4.9h2.2v1.4c0.4-0.9,1.5-1.6,2.8-1.6c1.2,0,2.2,0.5,2.7,1.7c0.7-1.2,2-1.7,3.2-1.7
	c1.7,0,3.1,1.1,3.1,3.6v5.9h-2.2V8.5c0-1.4-0.6-2-1.7-2c-1.1,0-2.1,0.7-2.1,2.2v5.6h-2.2V8.5c0-1.4-0.6-2-1.7-2
	c-1.1,0-2.1,0.7-2.1,2.2v5.6H12.6z M35.1,14.5c-1.7,0-3.1-0.8-3.1-2.8c0-2.2,2.1-3,4.8-3h1.2V8.3c0-1.3-0.4-1.9-1.7-1.9
	c-1.1,0-1.7,0.5-1.8,1.5h-2.1c0.2-2.2,1.9-3.1,4-3.1c2.1,0,3.7,0.9,3.7,3.4v6.1h-2.1v-1.1C37.3,14,36.5,14.5,35.1,14.5z M35.6,12.9
	c1.3,0,2.3-0.7,2.3-1.9v-0.9h-1.1c-1.6,0-2.7,0.4-2.7,1.5C34.1,12.4,34.5,12.9,35.6,12.9z M42.2,14.3V4.9h2.2v1.4
	c0.4-0.9,1.5-1.6,2.8-1.6c1.2,0,2.2,0.5,2.7,1.7c0.7-1.2,2-1.7,3.2-1.7c1.7,0,3.1,1.1,3.1,3.6v5.9H54V8.5c0-1.4-0.6-2-1.7-2
	s-2.1,0.7-2.1,2.2v5.6h-2.2V8.5c0-1.4-0.6-2-1.7-2c-1.1,0-2.1,0.7-2.1,2.2v5.6H42.2z M60.7,14.5c-1.7,0-3.1-0.8-3.1-2.8
	c0-2.2,2.1-3,4.8-3h1.2V8.3c0-1.3-0.4-1.9-1.7-1.9c-1.1,0-1.7,0.5-1.8,1.5H58c0.2-2.2,1.9-3.1,4-3.1c2.1,0,3.7,0.9,3.7,3.4v6.1h-2.1
	v-1.1C63,14,62.2,14.5,60.7,14.5z M61.2,12.9c1.3,0,2.3-0.7,2.3-1.9v-0.9h-1.1c-1.6,0-2.7,0.4-2.7,1.5
	C59.7,12.4,60.2,12.9,61.2,12.9z M67.9,14.3V4.9H70v1.5c0.4-0.9,1.5-1.7,3-1.7c1.9,0,3.2,1.1,3.2,3.7v5.9h-2.2V8.6
	c0-1.4-0.6-2.1-1.9-2.1C71,6.6,70,7.3,70,8.8v5.5H67.9z M78.4,14.3V0.6h2.2v5.8c0.4-0.9,1.5-1.7,3-1.7c1.9,0,3.2,1.1,3.2,3.7v5.9
	h-2.2V8.6c0-1.4-0.6-2.1-1.9-2.1c-1.2,0-2.2,0.8-2.2,2.2v5.5H78.4z M91.4,14.5c-1.7,0-3.1-0.8-3.1-2.8c0-2.2,2.1-3,4.8-3h1.2V8.3
	c0-1.3-0.4-1.9-1.7-1.9c-1.1,0-1.7,0.5-1.8,1.5h-2.1c0.2-2.2,1.9-3.1,4-3.1c2.1,0,3.7,0.9,3.7,3.4v6.1h-2.1v-1.1
	C93.7,14,92.8,14.5,91.4,14.5z M91.9,12.9c1.3,0,2.3-0.7,2.3-1.9v-0.9h-1.1c-1.6,0-2.7,0.4-2.7,1.5C90.4,12.4,90.8,12.9,91.9,12.9z
	 M93.7,3.5c-0.9,0-1.5-0.7-2-0.7c-0.3,0-0.6,0.3-0.7,0.7h-1.3c0.1-1.5,0.9-2.3,1.9-2.3c0.8,0,1.5,0.7,2,0.7c0.3,0,0.6-0.3,0.6-0.7
	h1.3C95.5,2.6,94.7,3.5,93.7,3.5z M102.4,14.3V4.9h2.2v1.4c0.4-0.9,1.5-1.6,2.8-1.6c1.2,0,2.2,0.5,2.7,1.7c0.7-1.2,2-1.7,3.2-1.7
	c1.7,0,3.1,1.1,3.1,3.6v5.9h-2.2V8.5c0-1.4-0.6-2-1.7-2c-1.1,0-2.1,0.7-2.1,2.2v5.6h-2.2V8.5c0-1.4-0.6-2-1.7-2
	c-1.1,0-2.1,0.7-2.1,2.2v5.6H102.4z M122.6,14.5c-2.8,0-4.7-1.8-4.7-4.8V9.6c0-2.9,2-4.8,4.7-4.8c2.3,0,4.4,1.4,4.4,4.7v0.6h-6.9
	c0.1,1.8,1,2.8,2.6,2.8c1.3,0,2-0.5,2.2-1.4h2.1C126.6,13.4,125,14.5,122.6,14.5z M120.2,8.7h4.7c-0.1-1.6-0.9-2.3-2.3-2.3
	C121.2,6.3,120.4,7.2,120.2,8.7z M128.6,14.3V0.6h2.2v13.7H128.6z M133.1,14.3V0.6h2.2v5.8c0.4-0.9,1.5-1.7,3-1.7
	c1.9,0,3.2,1.1,3.2,3.7v5.9h-2.2V8.6c0-1.4-0.6-2.1-1.9-2.1c-1.2,0-2.2,0.8-2.2,2.2v5.5H133.1z M147.8,12.8c1.6,0,2.6-1.2,2.6-3.1
	V9.6c0-1.9-1-3.1-2.6-3.1s-2.6,1.2-2.6,3.1v0.1C145.2,11.6,146.2,12.8,147.8,12.8z M147.8,14.5c-2.8,0-4.8-1.9-4.8-4.8V9.6
	c0-2.9,2.1-4.8,4.8-4.8c2.7,0,4.8,1.9,4.8,4.8v0.1C152.6,12.6,150.5,14.5,147.8,14.5z M154.2,14.3V4.9h2.2v1.8
	c0.6-1.2,1.5-1.9,3-1.9v2c-1.9,0-3,0.6-3,2.6v4.9H154.2z M168,3.5l1.1-2.8h2.4l-1.9,2.8H168z M169,14.5c-2.8,0-4.7-1.8-4.7-4.8V9.6
	c0-2.9,2-4.8,4.7-4.8c2.3,0,4.4,1.4,4.4,4.7v0.6h-6.9c0.1,1.8,1,2.8,2.6,2.8c1.3,0,2-0.5,2.2-1.4h2.1C173,13.4,171.4,14.5,169,14.5z
	 M166.5,8.7h4.7c-0.1-1.6-0.9-2.3-2.3-2.3C167.6,6.3,166.7,7.2,166.5,8.7z"/>
</svg>
