<svg width="210" height="21" viewBox="0 0 210 21" fill="none" xmlns="http://www.w3.org/2000/svg">
<path d="M15.6025 13.3322L18.9239 16.4583C16.8399 19.082 14.0766 20.3938 10.6342 20.3938C8.73625 20.3938 7.05226 19.9751 5.58226 19.1378C4.13086 18.3004 2.9958 17.1561 2.17706 15.7047C1.35833 14.2347 0.948959 12.5507 0.948959 10.6527C0.948959 8.75473 1.35833 7.07074 2.17706 5.60074C2.9958 4.11212 4.13086 2.93984 5.58226 2.08389C7.03366 1.22794 8.71765 0.799964 10.6342 0.799964C12.2345 0.799964 13.7231 1.06978 15.1001 1.6094C16.4956 2.14902 17.6679 3.0887 18.6169 4.42845L15.3513 7.72201C14.8303 7.01492 14.2069 6.44738 13.4812 6.01941C12.7555 5.59143 11.9275 5.37744 10.9971 5.37744C9.95506 5.37744 9.06189 5.61004 8.31758 6.07523C7.59188 6.52181 7.03366 7.13587 6.6429 7.91739C6.25214 8.6803 6.05676 9.54555 6.05676 10.5132C6.05676 11.4994 6.25214 12.3925 6.6429 13.1927C7.05226 13.9742 7.6291 14.5882 8.37341 15.0348C9.11771 15.4814 9.98297 15.7047 10.9692 15.7047C12.067 15.7047 12.9509 15.5093 13.6208 15.1185C14.2906 14.7278 14.9512 14.1323 15.6025 13.3322ZM29.1964 20.3659C27.8009 20.3659 26.5076 20.124 25.3167 19.6402C24.1445 19.1564 23.121 18.4772 22.2465 17.6027C21.3905 16.7095 20.7207 15.6675 20.2369 14.4766C19.7531 13.2857 19.5112 11.9832 19.5112 10.569C19.5112 9.15479 19.7531 7.85226 20.2369 6.66137C20.7207 5.47048 21.3905 4.43776 22.2465 3.5632C23.121 2.68864 24.1445 2.00946 25.3167 1.52566C26.5076 1.04186 27.8009 0.799964 29.1964 0.799964C30.592 0.799964 31.8759 1.04186 33.0482 1.52566C34.2391 2.00946 35.2718 2.68864 36.1464 3.5632C37.021 4.43776 37.6908 5.47048 38.156 6.66137C38.6398 7.85226 38.8817 9.15479 38.8817 10.569C38.8817 11.9832 38.6398 13.2857 38.156 14.4766C37.6908 15.6675 37.021 16.7095 36.1464 17.6027C35.2718 18.4772 34.2391 19.1564 33.0482 19.6402C31.8759 20.124 30.592 20.3659 29.1964 20.3659ZM29.1964 15.7326C30.1826 15.7326 31.0107 15.5 31.6806 15.0348C32.369 14.5696 32.8901 13.9463 33.2436 13.1647C33.5971 12.3832 33.7739 11.518 33.7739 10.569C33.7739 9.61999 33.5971 8.75473 33.2436 7.97321C32.8901 7.19169 32.369 6.56833 31.6806 6.10314C31.0107 5.63795 30.1826 5.40535 29.1964 5.40535C28.2288 5.40535 27.4008 5.63795 26.7123 6.10314C26.0424 6.56833 25.5214 7.19169 25.1493 7.97321C24.7957 8.75473 24.619 9.61999 24.619 10.569C24.619 11.518 24.7957 12.3832 25.1493 13.1647C25.5214 13.9463 26.0424 14.5696 26.7123 15.0348C27.4008 15.5 28.2288 15.7326 29.1964 15.7326ZM41.4975 19.9193V1.30237H45.9913L53.1366 11.6854V1.30237H58.0211V19.9193H53.8065L46.382 9.22922V19.9193H41.4975ZM65.9735 19.9193V5.62865H60.2516V1.30237H76.6357V5.62865H70.9696V19.9193H65.9735ZM78.8673 19.9193V1.30237H86.5708C88.5618 1.30237 90.1621 1.82338 91.3716 2.86541C92.5811 3.88883 93.1858 5.40535 93.1858 7.41498C93.1858 8.62448 92.916 9.68511 92.3764 10.5969C91.8368 11.5087 91.1204 12.2344 90.2272 12.774L94.2186 19.9193H88.9154L85.7614 13.5834H83.696V19.9193H78.8673ZM83.696 9.70372H86.0963C86.7476 9.70372 87.2779 9.50834 87.6873 9.11758C88.0967 8.70821 88.3013 8.16859 88.3013 7.49871C88.3013 6.79162 88.106 6.2334 87.7152 5.82403C87.3244 5.41466 86.7755 5.20998 86.0684 5.20998H83.696V9.70372ZM104.944 20.3659C103.549 20.3659 102.256 20.124 101.065 19.6402C99.8924 19.1564 98.869 18.4772 97.9945 17.6027C97.1385 16.7095 96.4686 15.6675 95.9848 14.4766C95.501 13.2857 95.2591 11.9832 95.2591 10.569C95.2591 9.15479 95.501 7.85226 95.9848 6.66137C96.4686 5.47048 97.1385 4.43776 97.9945 3.5632C98.869 2.68864 99.8924 2.00946 101.065 1.52566C102.256 1.04186 103.549 0.799964 104.944 0.799964C106.34 0.799964 107.624 1.04186 108.796 1.52566C109.987 2.00946 111.02 2.68864 111.894 3.5632C112.769 4.43776 113.439 5.47048 113.904 6.66137C114.388 7.85226 114.63 9.15479 114.63 10.569C114.63 11.9832 114.388 13.2857 113.904 14.4766C113.439 15.6675 112.769 16.7095 111.894 17.6027C111.02 18.4772 109.987 19.1564 108.796 19.6402C107.624 20.124 106.34 20.3659 104.944 20.3659ZM104.944 15.7326C105.931 15.7326 106.759 15.5 107.429 15.0348C108.117 14.5696 108.638 13.9463 108.992 13.1647C109.345 12.3832 109.522 11.518 109.522 10.569C109.522 9.61999 109.345 8.75473 108.992 7.97321C108.638 7.19169 108.117 6.56833 107.429 6.10314C106.759 5.63795 105.931 5.40535 104.944 5.40535C103.977 5.40535 103.149 5.63795 102.46 6.10314C101.79 6.56833 101.269 7.19169 100.897 7.97321C100.544 8.75473 100.367 9.61999 100.367 10.569C100.367 11.518 100.544 12.3832 100.897 13.1647C101.269 13.9463 101.79 14.5696 102.46 15.0348C103.149 15.5 103.977 15.7326 104.944 15.7326ZM117.246 19.9193V1.30237H122.186V15.5651H130.81V19.9193H117.246ZM147.057 20.3659C145.661 20.3659 144.368 20.124 143.177 19.6402C142.005 19.1564 140.982 18.4772 140.107 17.6027C139.251 16.7095 138.581 15.6675 138.097 14.4766C137.614 13.2857 137.372 11.9832 137.372 10.569C137.372 9.15479 137.614 7.85226 138.097 6.66137C138.581 5.47048 139.251 4.43776 140.107 3.5632C140.982 2.68864 142.005 2.00946 143.177 1.52566C144.368 1.04186 145.661 0.799964 147.057 0.799964C148.452 0.799964 149.736 1.04186 150.909 1.52566C152.1 2.00946 153.132 2.68864 154.007 3.5632C154.881 4.43776 155.551 5.47048 156.016 6.66137C156.5 7.85226 156.742 9.15479 156.742 10.569C156.742 11.9832 156.5 13.2857 156.016 14.4766C155.551 15.6675 154.881 16.7095 154.007 17.6027C153.132 18.4772 152.1 19.1564 150.909 19.6402C149.736 20.124 148.452 20.3659 147.057 20.3659ZM147.057 15.7326C148.043 15.7326 148.871 15.5 149.541 15.0348C150.23 14.5696 150.751 13.9463 151.104 13.1647C151.458 12.3832 151.634 11.518 151.634 10.569C151.634 9.61999 151.458 8.75473 151.104 7.97321C150.751 7.19169 150.23 6.56833 149.541 6.10314C148.871 5.63795 148.043 5.40535 147.057 5.40535C146.089 5.40535 145.261 5.63795 144.573 6.10314C143.903 6.56833 143.382 7.19169 143.01 7.97321C142.656 8.75473 142.479 9.61999 142.479 10.569C142.479 11.518 142.656 12.3832 143.01 13.1647C143.382 13.9463 143.903 14.5696 144.573 15.0348C145.261 15.5 146.089 15.7326 147.057 15.7326ZM163.432 19.9193L156.677 1.30237H162.064L166.251 14.2533L170.159 1.30237H175.434L168.651 19.9193H163.432ZM177.212 19.9193V1.30237H190.609V5.57282H182.152V8.4477H189.102V12.467H182.152V15.6489H191.195V19.9193H177.212ZM193.757 19.9193V1.30237H201.46C203.451 1.30237 205.052 1.82338 206.261 2.86541C207.471 3.88883 208.075 5.40535 208.075 7.41498C208.075 8.62448 207.805 9.68511 207.266 10.5969C206.726 11.5087 206.01 12.2344 205.117 12.774L209.108 19.9193H203.805L200.651 13.5834H198.585V19.9193H193.757ZM198.585 9.70372H200.986C201.637 9.70372 202.167 9.50834 202.577 9.11758C202.986 8.70821 203.191 8.16859 203.191 7.49871C203.191 6.79162 202.995 6.2334 202.605 5.82403C202.214 5.41466 201.665 5.20998 200.958 5.20998H198.585V9.70372Z" fill="white"/>
</svg>
