<svg width="177" height="24" viewBox="0 0 177 24" fill="none" xmlns="http://www.w3.org/2000/svg">
<path d="M6.772 23.29C2.973 23.29 0.102 20.593 0.102 15.663V15.431C0.102 10.588 2.973 7.514 6.917 7.514C9.382 7.514 10.919 8.645 11.76 10.153V0.814999H15.269V23H11.76V20.448C10.948 21.956 9.005 23.29 6.772 23.29ZM7.642 20.506C10.078 20.506 11.876 18.882 11.876 15.489V15.257C11.876 11.922 10.339 10.269 7.787 10.269C5.206 10.269 3.698 12.067 3.698 15.344V15.576C3.698 18.911 5.38 20.506 7.642 20.506ZM25.5296 23.29C21.0636 23.29 17.8446 20.361 17.8446 15.576V15.344C17.8446 10.646 21.0636 7.514 25.3846 7.514C29.1546 7.514 32.5476 9.747 32.5476 15.17V16.185H21.4406C21.5566 19.056 23.0066 20.68 25.6166 20.68C27.7336 20.68 28.8356 19.839 29.0966 18.36H32.4896C31.9966 21.55 29.4156 23.29 25.5296 23.29ZM21.4986 13.836H29.0676C28.8936 11.226 27.5596 10.066 25.3846 10.066C23.2676 10.066 21.8466 11.487 21.4986 13.836ZM46.594 23.261C43.578 23.261 42.012 21.637 42.012 18.766V10.472H39.982V7.833H42.012V4.498H45.521V7.833H48.856V10.472H45.521V18.447C45.521 19.781 46.159 20.39 47.261 20.39C47.957 20.39 48.479 20.303 48.972 20.1V22.884C48.421 23.087 47.667 23.261 46.594 23.261ZM58.3431 20.564C60.9531 20.564 62.5191 18.621 62.5191 15.518V15.315C62.5191 12.183 60.9531 10.269 58.3431 10.269C55.7331 10.269 54.1381 12.154 54.1381 15.286V15.518C54.1381 18.621 55.6751 20.564 58.3431 20.564ZM58.3141 23.29C53.8481 23.29 50.5421 20.187 50.5421 15.576V15.344C50.5421 10.646 53.8771 7.514 58.3431 7.514C62.7801 7.514 66.1151 10.617 66.1151 15.257V15.489C66.1151 20.216 62.7801 23.29 58.3141 23.29ZM74.3896 23.29C70.5906 23.29 67.7196 20.593 67.7196 15.663V15.431C67.7196 10.588 70.5906 7.514 74.5346 7.514C76.9996 7.514 78.5366 8.645 79.3776 10.153V0.814999H82.8866V23H79.3776V20.448C78.5656 21.956 76.6226 23.29 74.3896 23.29ZM75.2596 20.506C77.6956 20.506 79.4936 18.882 79.4936 15.489V15.257C79.4936 11.922 77.9566 10.269 75.4046 10.269C72.8236 10.269 71.3156 12.067 71.3156 15.344V15.576C71.3156 18.911 72.9976 20.506 75.2596 20.506ZM93.2631 20.564C95.8731 20.564 97.4391 18.621 97.4391 15.518V15.315C97.4391 12.183 95.8731 10.269 93.2631 10.269C90.6531 10.269 89.0581 12.154 89.0581 15.286V15.518C89.0581 18.621 90.5951 20.564 93.2631 20.564ZM93.2341 23.29C88.7681 23.29 85.4621 20.187 85.4621 15.576V15.344C85.4621 10.646 88.7971 7.514 93.2631 7.514C97.7001 7.514 101.035 10.617 101.035 15.257V15.489C101.035 20.216 97.7001 23.29 93.2341 23.29ZM108.817 23.29C104.902 23.29 102.611 21.492 102.466 18.273H105.772C105.946 19.81 106.729 20.709 108.788 20.709C110.673 20.709 111.514 20.042 111.514 18.766C111.514 17.519 110.499 17.055 108.266 16.678C104.264 16.04 102.785 14.909 102.785 12.067C102.785 9.022 105.627 7.514 108.469 7.514C111.572 7.514 114.037 8.674 114.414 12.096H111.166C110.876 10.704 110.093 10.066 108.469 10.066C106.961 10.066 106.062 10.791 106.062 11.864C106.062 12.966 106.787 13.401 109.194 13.807C112.761 14.358 114.878 15.228 114.878 18.447C114.878 21.521 112.703 23.29 108.817 23.29ZM123.706 23V7.833H127.215V10.24C127.94 8.761 129.622 7.514 132.116 7.514C135.161 7.514 137.307 9.283 137.307 13.459V23H133.798V13.778C133.798 11.487 132.87 10.443 130.782 10.443C128.81 10.443 127.215 11.661 127.215 14.068V23H123.706ZM146.076 5.571L147.787 1.076H151.673L148.657 5.571H146.076ZM147.555 20.564C150.165 20.564 151.731 18.621 151.731 15.518V15.315C151.731 12.183 150.165 10.269 147.555 10.269C144.945 10.269 143.35 12.154 143.35 15.286V15.518C143.35 18.621 144.887 20.564 147.555 20.564ZM147.526 23.29C143.06 23.29 139.754 20.187 139.754 15.576V15.344C139.754 10.646 143.089 7.514 147.555 7.514C151.992 7.514 155.327 10.617 155.327 15.257V15.489C155.327 20.216 151.992 23.29 147.526 23.29ZM163.109 23.29C159.194 23.29 156.903 21.492 156.758 18.273H160.064C160.238 19.81 161.021 20.709 163.08 20.709C164.965 20.709 165.806 20.042 165.806 18.766C165.806 17.519 164.791 17.055 162.558 16.678C158.556 16.04 157.077 14.909 157.077 12.067C157.077 9.022 159.919 7.514 162.761 7.514C165.864 7.514 168.329 8.674 168.706 12.096H165.458C165.168 10.704 164.385 10.066 162.761 10.066C161.253 10.066 160.354 10.791 160.354 11.864C160.354 12.966 161.079 13.401 163.486 13.807C167.053 14.358 169.17 15.228 169.17 18.447C169.17 21.521 166.995 23.29 163.109 23.29ZM173.756 23.203C172.48 23.203 171.465 22.217 171.465 20.941C171.465 19.665 172.48 18.65 173.756 18.65C175.061 18.65 176.076 19.665 176.076 20.941C176.076 22.217 175.061 23.203 173.756 23.203Z" fill="black"/>
</svg>
