<svg width="258" height="23" viewBox="0 0 258 23" fill="none" xmlns="http://www.w3.org/2000/svg">
<path d="M8.353 22.6563C3.162 22.6563 0.204 19.8143 0.204 14.4783V1.63127H4.09V14.1883C4.09 17.9873 5.308 19.5533 8.382 19.5533C11.369 19.5533 12.877 18.2193 12.877 13.9273V1.63127H16.763V14.2463C16.763 19.6693 13.834 22.6563 8.353 22.6563ZM20.3234 22.3663V7.19927H23.8324V9.51927C24.5574 8.09827 26.2104 6.88027 28.4434 6.88027C30.4154 6.88027 31.9814 7.72127 32.7354 9.60627C33.8954 7.72127 35.9834 6.88027 37.8684 6.88027C40.6524 6.88027 42.9144 8.59127 42.9144 12.7673V22.3663H39.4054V12.9993C39.4054 10.7663 38.4484 9.80927 36.7084 9.80927C34.9684 9.80927 33.3734 10.9693 33.3734 13.2893V22.3663H29.8644V12.9993C29.8644 10.7663 28.8784 9.80927 27.1674 9.80927C25.4274 9.80927 23.8324 10.9693 23.8324 13.2893V22.3663H20.3234ZM56.6677 22.6563C53.8837 22.6563 51.5927 21.3223 51.5927 18.1613C51.5927 14.6233 55.0147 13.3473 59.3647 13.3473H61.2497V12.5643C61.2497 10.5343 60.5537 9.51927 58.4947 9.51927C56.6677 9.51927 55.7687 10.3893 55.5947 11.8973H52.2017C52.4917 8.35927 55.3047 6.88027 58.6977 6.88027C62.0907 6.88027 64.7587 8.27227 64.7587 12.4193V22.3663H61.3077V20.5103C60.3217 21.8153 58.9877 22.6563 56.6677 22.6563ZM57.5087 20.1333C59.6547 20.1333 61.2497 19.0023 61.2497 17.0593V15.5513H59.4517C56.7837 15.5513 55.0727 16.1603 55.0727 18.0163C55.0727 19.2923 55.7687 20.1333 57.5087 20.1333ZM68.2006 22.3663V7.19927H71.7096V9.51927C72.4346 8.09827 74.0876 6.88027 76.3206 6.88027C78.2926 6.88027 79.8586 7.72127 80.6126 9.60627C81.7726 7.72127 83.8606 6.88027 85.7456 6.88027C88.5296 6.88027 90.7916 8.59127 90.7916 12.7673V22.3663H87.2826V12.9993C87.2826 10.7663 86.3256 9.80927 84.5856 9.80927C82.8456 9.80927 81.2506 10.9693 81.2506 13.2893V22.3663H77.7416V12.9993C77.7416 10.7663 76.7556 9.80927 75.0446 9.80927C73.3046 9.80927 71.7096 10.9693 71.7096 13.2893V22.3663H68.2006ZM98.2147 22.6563C95.4307 22.6563 93.1397 21.3223 93.1397 18.1613C93.1397 14.6233 96.5617 13.3473 100.912 13.3473H102.797V12.5643C102.797 10.5343 102.101 9.51927 100.042 9.51927C98.2147 9.51927 97.3157 10.3893 97.1417 11.8973H93.7487C94.0387 8.35927 96.8517 6.88027 100.245 6.88027C103.638 6.88027 106.306 8.27227 106.306 12.4193V22.3663H102.855V20.5103C101.869 21.8153 100.535 22.6563 98.2147 22.6563ZM99.0557 20.1333C101.202 20.1333 102.797 19.0023 102.797 17.0593V15.5513H100.999C98.3307 15.5513 96.6197 16.1603 96.6197 18.0163C96.6197 19.2923 97.3157 20.1333 99.0557 20.1333ZM109.748 22.3663V7.19927H113.257V9.60627C113.982 8.12727 115.664 6.88027 118.158 6.88027C121.203 6.88027 123.349 8.64927 123.349 12.8253V22.3663H119.84V13.1443C119.84 10.8533 118.912 9.80927 116.824 9.80927C114.852 9.80927 113.257 11.0273 113.257 13.4343V22.3663H109.748ZM126.811 22.3663V0.181271H130.32V9.60627C131.045 8.12727 132.727 6.88027 135.221 6.88027C138.266 6.88027 140.412 8.64927 140.412 12.8253V22.3663H136.903V13.1443C136.903 10.8533 135.975 9.80927 133.887 9.80927C131.915 9.80927 130.32 11.0273 130.32 13.4343V22.3663H126.811ZM147.848 22.6563C145.064 22.6563 142.773 21.3223 142.773 18.1613C142.773 14.6233 146.195 13.3473 150.545 13.3473H152.43V12.5643C152.43 10.5343 151.734 9.51927 149.675 9.51927C147.848 9.51927 146.949 10.3893 146.775 11.8973H143.382C143.672 8.35927 146.485 6.88027 149.878 6.88027C153.271 6.88027 155.939 8.27227 155.939 12.4193V22.3663H152.488V20.5103C151.502 21.8153 150.168 22.6563 147.848 22.6563ZM148.689 20.1333C150.835 20.1333 152.43 19.0023 152.43 17.0593V15.5513H150.632C147.964 15.5513 146.253 16.1603 146.253 18.0163C146.253 19.2923 146.949 20.1333 148.689 20.1333ZM151.56 4.79227C150.168 4.79227 149.182 3.63227 148.341 3.63227C147.819 3.63227 147.384 4.12527 147.268 4.79227H145.093C145.325 2.35627 146.572 0.993271 148.196 0.993271C149.53 0.993271 150.545 2.12427 151.444 2.12427C151.966 2.12427 152.372 1.66027 152.488 0.964271H154.663C154.431 3.40027 153.155 4.79227 151.56 4.79227ZM165.711 22.3663V7.19927H169.22V9.51927C169.945 8.09827 171.598 6.88027 173.831 6.88027C175.803 6.88027 177.369 7.72127 178.123 9.60627C179.283 7.72127 181.371 6.88027 183.256 6.88027C186.04 6.88027 188.302 8.59127 188.302 12.7673V22.3663H184.793V12.9993C184.793 10.7663 183.836 9.80927 182.096 9.80927C180.356 9.80927 178.761 10.9693 178.761 13.2893V22.3663H175.252V12.9993C175.252 10.7663 174.266 9.80927 172.555 9.80927C170.815 9.80927 169.22 10.9693 169.22 13.2893V22.3663H165.711ZM198.422 22.6563C193.956 22.6563 190.737 19.7273 190.737 14.9423V14.7103C190.737 10.0123 193.956 6.88027 198.277 6.88027C202.047 6.88027 205.44 9.11327 205.44 14.5363V15.5513H194.333C194.449 18.4223 195.899 20.0463 198.509 20.0463C200.626 20.0463 201.728 19.2053 201.989 17.7263H205.382C204.889 20.9163 202.308 22.6563 198.422 22.6563ZM194.391 13.2023H201.96C201.786 10.5923 200.452 9.43227 198.277 9.43227C196.16 9.43227 194.739 10.8533 194.391 13.2023ZM208.081 22.3663V0.181271H211.59V22.3663H208.081ZM215.287 22.3663V0.181271H218.796V9.60627C219.521 8.12727 221.203 6.88027 223.697 6.88027C226.742 6.88027 228.888 8.64927 228.888 12.8253V22.3663H225.379V13.1443C225.379 10.8533 224.451 9.80927 222.363 9.80927C220.391 9.80927 218.796 11.0273 218.796 13.4343V22.3663H215.287ZM239.137 19.9303C241.747 19.9303 243.313 17.9873 243.313 14.8843V14.6813C243.313 11.5493 241.747 9.63527 239.137 9.63527C236.527 9.63527 234.932 11.5203 234.932 14.6523V14.8843C234.932 17.9873 236.469 19.9303 239.137 19.9303ZM239.108 22.6563C234.642 22.6563 231.336 19.5533 231.336 14.9423V14.7103C231.336 10.0123 234.671 6.88027 239.137 6.88027C243.574 6.88027 246.909 9.98327 246.909 14.6233V14.8553C246.909 19.5823 243.574 22.6563 239.108 22.6563ZM249.499 22.3663V7.19927H253.008V10.0413C253.965 8.12727 255.386 6.99627 257.938 6.96727V10.2443C254.864 10.2733 253.008 11.2593 253.008 14.4783V22.3663H249.499Z" fill="black"/>
</svg>
