<svg width="139" height="20" viewBox="0 0 139 20" fill="none" xmlns="http://www.w3.org/2000/svg">
<path d="M8.2 14.06C10.9 14.06 12.6 12 12.6 8.9V8.74C12.6 5.8 10.96 3.62 8.16 3.62C5.36 3.62 3.7 5.68 3.7 8.76V8.92C3.7 12.04 5.6 14.06 8.2 14.06ZM8.16 16.2C3.78 16.2 0.92 13.06 0.92 8.94V8.78C0.92 4.6 3.92 1.5 8.16 1.5C12.42 1.5 15.36 4.52 15.36 8.72V8.88C15.36 13.06 12.5 16.2 8.16 16.2ZM22.1147 16V7.36H20.6947V5.54H22.1147V4.14C22.1147 1.84 23.3947 0.600001 25.6347 0.600001C26.2147 0.600001 26.5747 0.660001 27.0147 0.8V2.68C26.7347 2.58 26.3547 2.5 25.9147 2.5C24.9347 2.5 24.5347 3.14 24.5347 4.04V5.54H26.9147V7.36H24.5347V16H22.1147ZM32.0408 16.2C29.9808 16.2 28.4408 15.02 28.4408 12.24V5.54H30.8608V11.96C30.8608 13.54 31.5208 14.26 32.9208 14.26C34.2208 14.26 35.3608 13.42 35.3608 11.76V5.54H37.7808V16H35.3608V14.36C34.8408 15.38 33.7408 16.2 32.0408 16.2ZM43.8102 16.18C41.7302 16.18 40.6502 15.06 40.6502 13.08V7.36H39.2502V5.54H40.6502V3.24H43.0702V5.54H45.3702V7.36H43.0702V12.86C43.0702 13.78 43.5102 14.2 44.2702 14.2C44.7502 14.2 45.1102 14.14 45.4502 14V15.92C45.0702 16.06 44.5502 16.18 43.8102 16.18ZM50.733 16.2C48.673 16.2 47.133 15.02 47.133 12.24V5.54H49.553V11.96C49.553 13.54 50.213 14.26 51.613 14.26C52.913 14.26 54.053 13.42 54.053 11.76V5.54H56.473V16H54.053V14.36C53.533 15.38 52.433 16.2 50.733 16.2ZM58.9423 16V5.54H61.3623V7.5C62.0223 6.18 63.0023 5.4 64.7623 5.38V7.64C62.6423 7.66 61.3623 8.34 61.3623 10.56V16H58.9423ZM70.9762 14.32C72.7762 14.32 73.8562 12.98 73.8562 10.84V10.7C73.8562 8.54 72.7762 7.22 70.9762 7.22C69.1762 7.22 68.0762 8.52 68.0762 10.68V10.84C68.0762 12.98 69.1362 14.32 70.9762 14.32ZM70.9562 16.2C67.8762 16.2 65.5962 14.06 65.5962 10.88V10.72C65.5962 7.48 67.8962 5.32 70.9762 5.32C74.0362 5.32 76.3362 7.46 76.3362 10.66V10.82C76.3362 14.08 74.0362 16.2 70.9562 16.2ZM81.1084 19.76V17.9C82.1684 17.82 82.5484 17.3 82.5484 16.42V5.54H84.9684V16.36C84.9684 18.48 84.0084 19.72 81.1084 19.76ZM83.7284 3.82C82.9284 3.82 82.2884 3.22 82.2884 2.44C82.2884 1.64 82.9284 1.04 83.7284 1.04C84.5284 1.04 85.1684 1.64 85.1684 2.44C85.1684 3.22 84.5284 3.82 83.7284 3.82ZM90.2581 16.2C88.3381 16.2 86.7581 15.28 86.7581 13.1C86.7581 10.66 89.1181 9.78 92.1181 9.78H93.4181V9.24C93.4181 7.84 92.9381 7.14 91.5181 7.14C90.2581 7.14 89.6381 7.74 89.5181 8.78H87.1781C87.3781 6.34 89.3181 5.32 91.6581 5.32C93.9981 5.32 95.8381 6.28 95.8381 9.14V16H93.4581V14.72C92.7781 15.62 91.8581 16.2 90.2581 16.2ZM90.8381 14.46C92.3181 14.46 93.4181 13.68 93.4181 12.34V11.3H92.1781C90.3381 11.3 89.1581 11.72 89.1581 13C89.1581 13.88 89.6381 14.46 90.8381 14.46ZM90.6581 3.98L91.8381 0.880001H94.5181L92.4381 3.98H90.6581ZM107.177 16.2C104.097 16.2 101.877 14.18 101.877 10.88V10.72C101.877 7.48 104.097 5.32 107.077 5.32C109.677 5.32 112.017 6.86 112.017 10.6V11.3H104.357C104.437 13.28 105.437 14.4 107.237 14.4C108.697 14.4 109.457 13.82 109.637 12.8H111.977C111.637 15 109.857 16.2 107.177 16.2ZM104.397 9.68H109.617C109.497 7.88 108.577 7.08 107.077 7.08C105.617 7.08 104.637 8.06 104.397 9.68ZM117.457 16.2C114.757 16.2 113.177 14.96 113.077 12.74H115.357C115.477 13.8 116.017 14.42 117.437 14.42C118.737 14.42 119.317 13.96 119.317 13.08C119.317 12.22 118.617 11.9 117.077 11.64C114.317 11.2 113.297 10.42 113.297 8.46C113.297 6.36 115.257 5.32 117.217 5.32C119.357 5.32 121.057 6.12 121.317 8.48H119.077C118.877 7.52 118.337 7.08 117.217 7.08C116.177 7.08 115.557 7.58 115.557 8.32C115.557 9.08 116.057 9.38 117.717 9.66C120.177 10.04 121.637 10.64 121.637 12.86C121.637 14.98 120.137 16.2 117.457 16.2ZM126.92 16.18C124.84 16.18 123.76 15.06 123.76 13.08V7.36H122.36V5.54H123.76V3.24H126.18V5.54H128.48V7.36H126.18V12.86C126.18 13.78 126.62 14.2 127.38 14.2C127.86 14.2 128.22 14.14 128.56 14V15.92C128.18 16.06 127.66 16.18 126.92 16.18ZM133.18 16.2C131.26 16.2 129.68 15.28 129.68 13.1C129.68 10.66 132.04 9.78 135.04 9.78H136.34V9.24C136.34 7.84 135.86 7.14 134.44 7.14C133.18 7.14 132.56 7.74 132.44 8.78H130.1C130.3 6.34 132.24 5.32 134.58 5.32C136.92 5.32 138.76 6.28 138.76 9.14V16H136.38V14.72C135.7 15.62 134.78 16.2 133.18 16.2ZM133.76 14.46C135.24 14.46 136.34 13.68 136.34 12.34V11.3H135.1C133.26 11.3 132.08 11.72 132.08 13C132.08 13.88 132.56 14.46 133.76 14.46ZM133.58 3.98L134.76 0.880001H137.44L135.36 3.98H133.58Z" fill="#DD5900"/>
</svg>
