<?xml version="1.0" encoding="utf-8"?>
<!-- Generator: Adobe Illustrator 27.7.0, SVG Export Plug-In . SVG Version: 6.00 Build 0)  -->
<svg version="1.1" id="Layer_1" xmlns="http://www.w3.org/2000/svg" xmlns:xlink="http://www.w3.org/1999/xlink" x="0px" y="0px"
	 viewBox="0 0 739.1 29.5" style="enable-background:new 0 0 739.1 29.5;" xml:space="preserve">
<style type="text/css">
	.st0{fill:#FFFFFF;}
</style>
<g>
	<g>
		<path class="st0" d="M0,21.7c0-1.4,1.1-2.5,2.5-2.5s2.5,1.1,2.5,2.5c0,1.4-1.1,2.5-2.5,2.5S0,23,0,21.7z"/>
		<path class="st0" d="M7.4,21.7c0-1.4,1.1-2.5,2.5-2.5s2.5,1.1,2.5,2.5c0,1.4-1.1,2.5-2.5,2.5S7.4,23,7.4,21.7z"/>
		<path class="st0" d="M14.8,21.7c0-1.4,1.1-2.5,2.5-2.5s2.5,1.1,2.5,2.5c0,1.4-1.1,2.5-2.5,2.5S14.8,23,14.8,21.7z"/>
		<path class="st0" d="M19.3,7.7h3.9l3.4,10.5l3.8-10.5h2.9l3.8,10.5l3.4-10.5h4l-5.8,16.1h-2.9l-3.8-10.5L28,23.8h-2.9L19.3,7.7z"
			/>
		<path class="st0" d="M54.2,10.9c-2.4,0-4,1.7-4,4.2v8.7h-3.7V0.7h3.7v9.5c1-1.8,2.7-2.9,4.9-2.9c4.2,0,6.7,2.8,6.7,7.3v9.2h-3.7
			v-8.7C58.1,12.5,56.6,10.9,54.2,10.9z"/>
		<path class="st0" d="M81,15.8c0,4.8-3.7,8.4-8.4,8.4s-8.4-3.6-8.4-8.4c0-4.8,3.6-8.4,8.4-8.4S81,11,81,15.8z M67.8,15.8
			c0,2.7,2.1,4.9,4.8,4.9c2.7,0,4.8-2.1,4.8-4.9c0-2.8-2.1-4.9-4.8-4.9C69.9,10.9,67.8,13,67.8,15.8z"/>
		<path class="st0" d="M90.5,0.7h3.7v23.1h-3.7V0.7z"/>
		<path class="st0" d="M97.2,2.6c0-1.3,1.1-2.4,2.4-2.4c1.3,0,2.4,1.1,2.4,2.4c0,1.3-1.1,2.3-2.4,2.3C98.3,4.9,97.2,3.8,97.2,2.6z
			 M101.5,7.7v16.1h-3.7V7.7H101.5z"/>
		<path class="st0" d="M119.8,7.7l-7.4,7.8l8,8.4h-4.8l-6.8-7.6v7.6H105V0.7h3.7v13.9l6.5-6.9H119.8z"/>
		<path class="st0" d="M119.6,15.7c0-4.7,3.7-8.3,8.3-8.3c4.4,0,7.8,3.4,7.8,7.8l-0.1,1.5h-12.4c0.4,2.8,2.2,4.3,4.9,4.3
			c1.8,0,3.6-0.8,4.3-2l2.9,1.8c-1.2,2.1-3.9,3.5-7.2,3.5C123.3,24.2,119.6,20.5,119.6,15.7z M131.8,14c-0.2-2-1.9-3.5-4.2-3.5
			c-2.3,0-3.9,1.4-4.5,3.5H131.8z"/>
		<path class="st0" d="M145.9,17.8v-6.6h-3.1V7.7h3.1V3.4h3.7v4.3h4.2v3.5h-4.2v6.4c0,1.9,1.3,3,2.9,3c0.4,0,1-0.1,1.3-0.2l0.2,3.2
			c-0.5,0.3-1.3,0.4-2,0.4C148.4,24.1,145.9,21.8,145.9,17.8z"/>
		<path class="st0" d="M164,10.9c-2.4,0-4,1.7-4,4.2v8.7h-3.7V0.7h3.7v9.5c1-1.8,2.7-2.9,4.9-2.9c4.2,0,6.7,2.8,6.7,7.3v9.2h-3.7
			v-8.7C167.9,12.5,166.4,10.9,164,10.9z"/>
		<path class="st0" d="M174.1,15.7c0-4.7,3.7-8.3,8.3-8.3c4.4,0,7.8,3.4,7.8,7.8l-0.1,1.5h-12.4c0.4,2.8,2.2,4.3,4.9,4.3
			c1.8,0,3.6-0.8,4.3-2l2.9,1.8c-1.2,2.1-3.9,3.5-7.2,3.5C177.8,24.2,174.1,20.5,174.1,15.7z M186.4,14c-0.2-2-1.9-3.5-4.2-3.5
			c-2.3,0-3.9,1.4-4.5,3.5H186.4z"/>
		<path class="st0" d="M192.3,2.6c0-1.3,1.1-2.4,2.4-2.4c1.3,0,2.4,1.1,2.4,2.4c0,1.3-1.1,2.3-2.4,2.3
			C193.3,4.9,192.3,3.8,192.3,2.6z M196.5,7.7v16.1h-3.7V7.7H196.5z"/>
		<path class="st0" d="M200,7.7h3.7V10c0.7-1.6,2.5-2.6,4.1-2.6c0.8,0,1.6,0.1,2,0.4l-0.4,3.6c-0.6-0.3-1.3-0.4-2-0.4
			c-1.8,0-3.7,1.5-3.7,4.3v8.6H200V7.7z"/>
		<path class="st0" d="M218,0.7h3.7v10c1.2-2,3.1-3.2,5.7-3.2c4.3,0,7.7,3.8,7.7,8.4c0,4.7-3.4,8.4-7.7,8.4c-2.6,0-4.6-1.2-5.7-3.2
			v2.6H218V0.7z M221.7,16c0,2.8,2.1,4.9,4.9,4.9c2.7,0,4.9-2.2,4.9-4.9c0-2.7-2.1-4.9-4.9-4.9C223.8,11.1,221.7,13.2,221.7,16z"/>
		<path class="st0" d="M245.1,24.2c-4.4,0-7.5-3.2-7.5-7.8V7.7h3.7v8.7c0,2.6,1.5,4.3,3.9,4.3s3.9-1.7,3.9-4.3V7.7h3.7v8.7
			C252.6,21,249.6,24.2,245.1,24.2z"/>
		<path class="st0" d="M281.3,23.8h-3.7v-9c0-2.4-1.4-3.9-3.5-3.9c-1.8,0-3.6,1.2-3.6,3.9v9h-3.7v-9c0-2.4-1.4-3.9-3.5-3.9
			c-1.8,0-3.6,1.1-3.6,3.9v9h-3.7V7.7h3.7V10c1.2-2,3.2-2.6,4.9-2.6c2.3,0,4,0.9,5,2.8c1-1.7,3-2.8,5.1-2.8c3.9,0,6.6,2.5,6.6,6.6
			V23.8z"/>
		<path class="st0" d="M301.8,15.8c0,4.7-3.4,8.4-7.7,8.4c-2.6,0-4.6-1.2-5.7-3.2v8.5h-3.7V7.7h3.7v2.8c1.2-2,3.1-3.2,5.7-3.2
			C298.4,7.4,301.8,11.1,301.8,15.8z M288.3,15.8c0,2.8,2.1,4.9,4.9,4.9c2.7,0,4.9-2.2,4.9-4.9c0-2.7-2.1-4.9-4.9-4.9
			C290.4,10.9,288.3,13,288.3,15.8z"/>
		<path class="st0" d="M303.3,21.8l1.5-2.8c1.2,1.2,3.6,2,5.4,2c1.6,0,2.6-0.8,2.6-1.8c0-3-9-0.9-9-6.9c0-3,2.6-5.1,6.3-5.1
			c2.2,0,4.6,0.6,6,1.9l-1.5,2.8c-1.3-1.1-3.6-1.7-5-1.7c-1.4,0-2.3,0.7-2.3,1.7c0,2.7,9.1,1.1,9.1,7c0,2.9-2.6,5-6.3,5
			C307.7,24.2,304.9,23.3,303.3,21.8z"/>
		<path class="st0" d="M341.8,15.8c0,4.8-3.7,8.4-8.4,8.4c-4.7,0-8.4-3.6-8.4-8.4c0-4.8,3.6-8.4,8.4-8.4
			C338.2,7.4,341.8,11,341.8,15.8z M328.7,15.8c0,2.7,2.1,4.9,4.8,4.9c2.7,0,4.8-2.1,4.8-4.9c0-2.8-2.1-4.9-4.8-4.9
			C330.8,10.9,328.7,13,328.7,15.8z"/>
		<path class="st0" d="M348.2,10.2c1-1.8,2.7-2.9,4.9-2.9c4.2,0,6.7,2.8,6.7,7.3v9.2h-3.7v-8.7c0-2.5-1.5-4.2-3.9-4.2
			c-2.4,0-4,1.7-4,4.2v8.7h-3.7V7.7h3.7V10.2z"/>
		<path class="st0" d="M370.8,17.8v-6.6h-3.1V7.7h3.1V3.4h3.7v4.3h4.2v3.5h-4.2v6.4c0,1.9,1.3,3,2.9,3c0.4,0,1-0.1,1.3-0.2l0.2,3.2
			c-0.5,0.3-1.3,0.4-2,0.4C373.3,24.1,370.8,21.8,370.8,17.8z"/>
		<path class="st0" d="M388.9,10.9c-2.4,0-4,1.7-4,4.2v8.7h-3.7V0.7h3.7v9.5c1-1.8,2.7-2.9,4.9-2.9c4.2,0,6.7,2.8,6.7,7.3v9.2h-3.7
			v-8.7C392.8,12.5,391.3,10.9,388.9,10.9z"/>
		<path class="st0" d="M399,15.7c0-4.7,3.7-8.3,8.3-8.3c4.4,0,7.8,3.4,7.8,7.8l-0.1,1.5h-12.4c0.4,2.8,2.2,4.3,4.9,4.3
			c1.8,0,3.6-0.8,4.3-2l2.9,1.8c-1.2,2.1-3.9,3.5-7.2,3.5C402.8,24.2,399,20.5,399,15.7z M411.3,14c-0.2-2-1.9-3.5-4.2-3.5
			c-2.3,0-3.9,1.4-4.5,3.5H411.3z"/>
		<path class="st0" d="M431.9,0c0.7,0,1.5,0.1,2,0.4l-0.2,3.3c-0.3-0.1-0.9-0.2-1.3-0.2c-1.6,0-2.9,1.1-2.9,3v1.3h4.2v3.5h-4.2v12.6
			h-3.7V11.2h-3.1V7.7h3.1V6.2C425.8,2.2,428.3,0,431.9,0z"/>
		<path class="st0" d="M435.3,2.6c0-1.3,1.1-2.4,2.4-2.4c1.3,0,2.4,1.1,2.4,2.4c0,1.3-1.1,2.3-2.4,2.3
			C436.4,4.9,435.3,3.8,435.3,2.6z M439.5,7.7v16.1h-3.7V7.7H439.5z"/>
		<path class="st0" d="M442.2,15.7c0-4.7,3.7-8.3,8.3-8.3c4.4,0,7.8,3.4,7.8,7.8l-0.1,1.5h-12.4c0.4,2.8,2.2,4.3,4.9,4.3
			c1.8,0,3.6-0.8,4.3-2l2.9,1.8c-1.2,2.1-3.9,3.5-7.2,3.5C445.9,24.2,442.2,20.5,442.2,15.7z M454.5,14c-0.2-2-1.9-3.5-4.2-3.5
			c-2.3,0-3.9,1.4-4.5,3.5H454.5z"/>
		<path class="st0" d="M460.9,0.7h3.7v23.1h-3.7V0.7z"/>
		<path class="st0" d="M467.3,15.7c0-4.7,3.4-8.4,7.7-8.4c2.6,0,4.6,1.2,5.7,3.2V0.7h3.7v23.1h-3.7v-2.9c-1.2,2-3.1,3.2-5.7,3.2
			C470.7,24.2,467.3,20.4,467.3,15.7z M480.7,15.7c0-2.8-2.1-4.9-4.9-4.9c-2.7,0-4.9,2.2-4.9,4.9c0,2.7,2.2,4.9,4.9,4.9
			C478.6,20.7,480.7,18.5,480.7,15.7z"/>
		<path class="st0" d="M489.1,28.2l-1.8-0.7c1.1-1.5,1.7-2.7,2-4c-1.1-0.2-1.9-1.2-1.9-2.3c0-1.4,1.2-2.5,2.5-2.5
			c1.4,0,2.6,1.2,2.6,2.8C492.5,23.5,490.9,26.1,489.1,28.2z"/>
		<path class="st0" d="M505.7,10.2c1-1.8,2.7-2.9,4.9-2.9c4.2,0,6.7,2.8,6.7,7.3v9.2h-3.7v-8.7c0-2.5-1.5-4.2-3.9-4.2
			c-2.4,0-4,1.7-4,4.2v8.7H502V7.7h3.7V10.2z"/>
		<path class="st0" d="M536.4,15.8c0,4.8-3.7,8.4-8.4,8.4c-4.7,0-8.4-3.6-8.4-8.4c0-4.8,3.6-8.4,8.4-8.4
			C532.8,7.4,536.4,11,536.4,15.8z M523.3,15.8c0,2.7,2.1,4.9,4.8,4.9c2.7,0,4.8-2.1,4.8-4.9c0-2.8-2.1-4.9-4.8-4.9
			C525.4,10.9,523.3,13,523.3,15.8z"/>
		<path class="st0" d="M540.3,17.8v-6.6h-3.1V7.7h3.1V3.4h3.7v4.3h4.2v3.5H544v6.4c0,1.9,1.3,3,2.9,3c0.4,0,1-0.1,1.3-0.2l0.2,3.2
			c-0.5,0.3-1.3,0.4-2,0.4C542.8,24.1,540.3,21.8,540.3,17.8z"/>
		<path class="st0" d="M558.4,17.8v-6.6h-3.1V7.7h3.1V3.4h3.7v4.3h4.2v3.5h-4.2v6.4c0,1.9,1.3,3,2.9,3c0.4,0,1-0.1,1.3-0.2l0.2,3.2
			c-0.5,0.3-1.3,0.4-2,0.4C560.9,24.1,558.4,21.8,558.4,17.8z"/>
		<path class="st0" d="M576.5,10.9c-2.4,0-4,1.7-4,4.2v8.7h-3.7V0.7h3.7v9.5c1-1.8,2.7-2.9,4.9-2.9c4.2,0,6.7,2.8,6.7,7.3v9.2h-3.7
			v-8.7C580.4,12.5,578.9,10.9,576.5,10.9z"/>
		<path class="st0" d="M586.6,15.7c0-4.7,3.7-8.3,8.3-8.3c4.4,0,7.8,3.4,7.8,7.8l-0.1,1.5h-12.4c0.4,2.8,2.2,4.3,4.9,4.3
			c1.8,0,3.6-0.8,4.3-2l2.9,1.8c-1.2,2.1-3.9,3.5-7.2,3.5C590.4,24.2,586.6,20.5,586.6,15.7z M598.9,14c-0.2-2-1.9-3.5-4.2-3.5
			c-2.3,0-3.9,1.4-4.5,3.5H598.9z"/>
		<path class="st0" d="M619.7,24.2c-4.8,0-8.4-3.6-8.4-8.4c0-4.8,3.6-8.4,8.4-8.4c3.1,0,5.8,1.6,7,3.9l-3.1,1.7
			c-0.6-1.3-2.1-2.1-3.8-2.1c-2.8,0-4.8,2.1-4.8,4.9c0,2.7,2,4.9,4.8,4.9c1.9,0,3.4-0.9,4.2-2.4l3.2,1.5
			C625.9,22.4,623,24.2,619.7,24.2z"/>
		<path class="st0" d="M645.4,23.8h-3.7v-2.9c-1.2,2-3.1,3.2-5.7,3.2c-4.3,0-7.7-3.8-7.7-8.4c0-4.7,3.4-8.4,7.7-8.4
			c2.6,0,4.6,1.2,5.7,3.2V7.7h3.7V23.8z M641.7,15.7c0-2.8-2.1-4.9-4.9-4.9c-2.7,0-4.9,2.2-4.9,4.9c0,2.7,2.2,4.9,4.9,4.9
			C639.6,20.7,641.7,18.5,641.7,15.7z"/>
		<path class="st0" d="M648.9,7.7h3.7V10c0.7-1.6,2.5-2.6,4.1-2.6c0.8,0,1.6,0.1,2,0.4l-0.4,3.6c-0.6-0.3-1.3-0.4-2-0.4
			c-1.8,0-3.7,1.5-3.7,4.3v8.6h-3.7V7.7z"/>
		<path class="st0" d="M659.3,13.6h9.8V17h-9.8V13.6z"/>
		<path class="st0" d="M689.4,15.8c0,4.7-3.4,8.4-7.7,8.4c-2.6,0-4.6-1.2-5.7-3.2v8.5h-3.7V7.7h3.7v2.8c1.2-2,3.1-3.2,5.7-3.2
			C686,7.4,689.4,11.1,689.4,15.8z M676,15.8c0,2.8,2.1,4.9,4.9,4.9c2.7,0,4.9-2.2,4.9-4.9c0-2.7-2.1-4.9-4.9-4.9
			C678.1,10.9,676,13,676,15.8z"/>
		<path class="st0" d="M708.3,23.8h-3.7v-2.9c-1.2,2-3.1,3.2-5.7,3.2c-4.3,0-7.7-3.8-7.7-8.4c0-4.7,3.4-8.4,7.7-8.4
			c2.6,0,4.6,1.2,5.7,3.2V7.7h3.7V23.8z M704.6,15.7c0-2.8-2.1-4.9-4.9-4.9c-2.7,0-4.9,2.2-4.9,4.9c0,2.7,2.2,4.9,4.9,4.9
			C702.5,20.7,704.6,18.5,704.6,15.7z"/>
		<path class="st0" d="M711.9,7.7h3.7V10c0.7-1.6,2.5-2.6,4.1-2.6c0.8,0,1.6,0.1,2,0.4l-0.4,3.6c-0.6-0.3-1.3-0.4-2-0.4
			c-1.8,0-3.7,1.5-3.7,4.3v8.6h-3.7V7.7z"/>
		<path class="st0" d="M738.5,7.7l-7.4,7.8l8,8.4h-4.8l-6.8-7.6v7.6h-3.7V0.7h3.7v13.9l6.5-6.9H738.5z"/>
	</g>
</g>
</svg>
