<?xml version="1.0" encoding="utf-8"?>
<!-- Generator: Adobe Illustrator 27.7.0, SVG Export Plug-In . SVG Version: 6.00 Build 0)  -->
<svg version="1.1" id="Layer_1" xmlns="http://www.w3.org/2000/svg" xmlns:xlink="http://www.w3.org/1999/xlink" x="0px" y="0px"
	 viewBox="0 0 901.6 30.4" style="enable-background:new 0 0 901.6 30.4;" xml:space="preserve">
<style type="text/css">
	.st0{fill:#FFFFFF;}
</style>
<g>
	<path class="st0" d="M21.7,23.6h-4.2L15.7,19H5.9l-1.8,4.6H0L9.2,0.5h3.2L21.7,23.6z M14.3,15.5l-3.5-9.1l-3.5,9.1H14.3z"/>
	<path class="st0" d="M30.3,24c-4.8,0-8.4-3.6-8.4-8.4c0-4.8,3.6-8.4,8.4-8.4c3.1,0,5.8,1.6,7,3.9l-3.1,1.7
		c-0.6-1.3-2.1-2.1-3.8-2.1c-2.8,0-4.8,2.1-4.8,4.9c0,2.7,2,4.9,4.8,4.9c1.9,0,3.4-0.9,4.2-2.4l3.2,1.5C36.5,22.2,33.7,24,30.3,24z"
		/>
	<path class="st0" d="M47.3,24c-4.8,0-8.4-3.6-8.4-8.4c0-4.8,3.6-8.4,8.4-8.4c3.1,0,5.8,1.6,7,3.9l-3.1,1.7
		c-0.6-1.3-2.1-2.1-3.8-2.1c-2.8,0-4.8,2.1-4.8,4.9c0,2.7,2,4.9,4.8,4.9c1.9,0,3.4-0.9,4.2-2.4l3.2,1.5C53.5,22.2,50.7,24,47.3,24z"
		/>
	<path class="st0" d="M56.3,2.4c0-1.3,1.1-2.4,2.4-2.4c1.3,0,2.4,1.1,2.4,2.4c0,1.3-1.1,2.3-2.4,2.3C57.4,4.7,56.3,3.6,56.3,2.4z
		 M60.6,7.5v16.1h-3.7V7.5H60.6z"/>
	<path class="st0" d="M63.3,15.5c0-4.7,3.4-8.4,7.7-8.4c2.6,0,4.6,1.2,5.7,3.2V0.5h3.7v23.1h-3.7v-2.9c-1.2,2-3.1,3.2-5.7,3.2
		C66.7,24,63.3,20.2,63.3,15.5z M76.7,15.5c0-2.8-2.1-4.9-4.9-4.9c-2.7,0-4.9,2.2-4.9,4.9c0,2.7,2.2,4.9,4.9,4.9
		C74.6,20.5,76.7,18.4,76.7,15.5z"/>
	<path class="st0" d="M83.1,15.5c0-4.7,3.7-8.3,8.3-8.3c4.4,0,7.8,3.4,7.8,7.8l-0.1,1.5H86.6c0.4,2.8,2.2,4.3,4.9,4.3
		c1.8,0,3.6-0.8,4.3-2l2.9,1.8c-1.2,2.1-3.9,3.5-7.2,3.5C86.8,24,83.1,20.3,83.1,15.5z M95.3,13.8c-0.2-2-1.9-3.5-4.2-3.5
		c-2.3,0-3.9,1.4-4.5,3.5H95.3z"/>
	<path class="st0" d="M105.4,10c1-1.8,2.7-2.9,4.9-2.9c4.2,0,6.7,2.8,6.7,7.3v9.2h-3.7v-8.7c0-2.5-1.5-4.2-3.9-4.2
		c-2.4,0-4,1.7-4,4.2v8.7h-3.7V7.5h3.7V10z"/>
	<path class="st0" d="M121.5,17.6V11h-3.1V7.5h3.1V3.2h3.7v4.3h4.2V11h-4.2v6.4c0,1.9,1.3,3,2.9,3c0.4,0,1-0.1,1.3-0.2l0.2,3.2
		c-0.5,0.3-1.3,0.4-2,0.4C124,23.9,121.5,21.6,121.5,17.6z"/>
	<path class="st0" d="M147.6,23.6h-3.7v-2.9c-1.2,2-3.1,3.2-5.7,3.2c-4.3,0-7.7-3.8-7.7-8.4c0-4.7,3.4-8.4,7.7-8.4
		c2.6,0,4.6,1.2,5.7,3.2V7.5h3.7V23.6z M143.9,15.5c0-2.8-2.1-4.9-4.9-4.9c-2.7,0-4.9,2.2-4.9,4.9c0,2.7,2.2,4.9,4.9,4.9
		C141.8,20.5,143.9,18.4,143.9,15.5z"/>
	<path class="st0" d="M151.1,0.5h3.7v23.1h-3.7V0.5z"/>
	<path class="st0" d="M184.6,12c0,6.7-5,11.7-11.6,11.7h-7.6V0.5h7.6C179.6,0.5,184.6,5.4,184.6,12z M180.6,12
		c0-4.5-3.1-7.8-7.3-7.8h-4v15.7h4C177.5,19.9,180.6,16.5,180.6,12z"/>
	<path class="st0" d="M203.6,23.6h-3.7v-2.9c-1.2,2-3.1,3.2-5.7,3.2c-4.3,0-7.7-3.8-7.7-8.4c0-4.7,3.4-8.4,7.7-8.4
		c2.6,0,4.6,1.2,5.7,3.2V7.5h3.7V23.6z M199.9,15.5c0-2.8-2.1-4.9-4.9-4.9c-2.7,0-4.9,2.2-4.9,4.9c0,2.7,2.2,4.9,4.9,4.9
		C197.8,20.5,199.9,18.4,199.9,15.5z"/>
	<path class="st0" d="M232.5,23.6h-3.7v-9c0-2.4-1.4-3.9-3.5-3.9c-1.8,0-3.6,1.2-3.6,3.9v9H218v-9c0-2.4-1.4-3.9-3.5-3.9
		c-1.8,0-3.6,1.1-3.6,3.9v9h-3.7V7.5h3.7v2.3c1.2-2,3.2-2.6,4.9-2.6c2.3,0,4,0.9,5,2.8c1-1.7,3-2.8,5.1-2.8c3.9,0,6.6,2.5,6.6,6.6
		V23.6z"/>
	<path class="st0" d="M252.1,23.6h-3.7v-2.9c-1.2,2-3.1,3.2-5.7,3.2c-4.3,0-7.7-3.8-7.7-8.4c0-4.7,3.4-8.4,7.7-8.4
		c2.6,0,4.6,1.2,5.7,3.2V7.5h3.7V23.6z M248.4,15.5c0-2.8-2.1-4.9-4.9-4.9c-2.7,0-4.9,2.2-4.9,4.9c0,2.7,2.2,4.9,4.9,4.9
		C246.3,20.5,248.4,18.4,248.4,15.5z"/>
	<path class="st0" d="M256,27.7l1.8-2.5c1.3,1.3,3.4,1.9,5.5,1.9c2.5,0,4.9-1.7,4.9-4.5v-2.1c-1.2,2-3.1,3.2-5.7,3.2
		c-4.3,0-7.7-3.7-7.7-8.2c0-4.6,3.4-8.2,7.7-8.2c2.6,0,4.6,1.1,5.7,3.1V7.5h3.7v15.1c0,4.7-3.8,7.8-8.6,7.8
		C260.6,30.4,257.5,29.3,256,27.7z M268.3,15.4c0-2.8-2.1-4.9-4.9-4.9c-2.7,0-5,2.1-5,4.9c0,2.7,2.2,4.8,5,4.8
		C266.1,20.2,268.3,18.1,268.3,15.4z"/>
	<path class="st0" d="M274.6,15.5c0-4.7,3.7-8.3,8.3-8.3c4.4,0,7.8,3.4,7.8,7.8l-0.1,1.5h-12.4c0.4,2.8,2.2,4.3,4.9,4.3
		c1.8,0,3.6-0.8,4.3-2l2.9,1.8c-1.2,2.1-3.9,3.5-7.2,3.5C278.4,24,274.6,20.3,274.6,15.5z M286.9,13.8c-0.2-2-1.9-3.5-4.2-3.5
		c-2.3,0-3.9,1.4-4.5,3.5H286.9z"/>
	<path class="st0" d="M311,24c-6.7,0-11.6-5.2-11.6-11.9c0-6.7,5-11.8,11.6-11.8c4.6,0,8.5,2.3,9.7,5.7l-3.4,1.7
		c-1-2.2-3.4-3.7-6.3-3.7c-4.5,0-7.7,3.4-7.7,8.1c0,4.7,3.1,8.2,7.7,8.2c3.1,0,5.6-1.6,6.5-4.1l3.5,1.6C319.8,21.4,315.7,24,311,24z
		"/>
	<path class="st0" d="M339.1,15.6c0,4.8-3.7,8.4-8.4,8.4s-8.4-3.6-8.4-8.4c0-4.8,3.6-8.4,8.4-8.4S339.1,10.8,339.1,15.6z
		 M325.9,15.6c0,2.7,2.1,4.9,4.8,4.9c2.7,0,4.8-2.1,4.8-4.9c0-2.8-2.1-4.9-4.8-4.9C328,10.7,325.9,12.8,325.9,15.6z"/>
	<path class="st0" d="M349.2,23.6h-3.2l-6.7-16.1h4l4.3,11.2L352,7.5h4L349.2,23.6z"/>
	<path class="st0" d="M356.3,15.5c0-4.7,3.7-8.3,8.3-8.3c4.4,0,7.8,3.4,7.8,7.8l-0.1,1.5h-12.4c0.4,2.8,2.2,4.3,4.9,4.3
		c1.8,0,3.6-0.8,4.3-2l2.9,1.8c-1.2,2.1-3.9,3.5-7.2,3.5C360,24,356.3,20.3,356.3,15.5z M368.5,13.8c-0.2-2-1.9-3.5-4.2-3.5
		c-2.3,0-3.9,1.4-4.5,3.5H368.5z"/>
	<path class="st0" d="M374.9,7.5h3.7v2.3c0.7-1.6,2.5-2.6,4.1-2.6c0.8,0,1.6,0.1,2,0.4l-0.4,3.6c-0.6-0.3-1.3-0.4-2-0.4
		c-1.8,0-3.7,1.5-3.7,4.3v8.6h-3.7V7.5z"/>
	<path class="st0" d="M390.7,7.5h3.9L398,18l3.8-10.5h2.9l3.8,10.5l3.4-10.5h4L410,23.6h-2.9l-3.8-10.5l-3.9,10.5h-2.9L390.7,7.5z"
		/>
	<path class="st0" d="M417.4,2.4c0-1.3,1.1-2.4,2.4-2.4c1.3,0,2.4,1.1,2.4,2.4c0,1.3-1.1,2.3-2.4,2.3C418.5,4.7,417.4,3.6,417.4,2.4
		z M421.6,7.5v16.1h-3.7V7.5H421.6z"/>
	<path class="st0" d="M426.7,17.6V11h-3.1V7.5h3.1V3.2h3.7v4.3h4.2V11h-4.2v6.4c0,1.9,1.3,3,2.9,3c0.4,0,1-0.1,1.3-0.2l0.2,3.2
		c-0.5,0.3-1.3,0.4-2,0.4C429.2,23.9,426.7,21.6,426.7,17.6z"/>
	<path class="st0" d="M444.8,10.7c-2.4,0-4,1.7-4,4.2v8.7h-3.7V0.5h3.7V10c1-1.8,2.7-2.9,4.9-2.9c4.2,0,6.7,2.8,6.7,7.3v9.2h-3.7
		v-8.7C448.7,12.3,447.2,10.7,444.8,10.7z"/>
	<path class="st0" d="M473.4,24c-6.7,0-11.6-5.2-11.6-11.9c0-6.7,5-11.8,11.6-11.8c4.6,0,8.5,2.3,9.7,5.7l-3.4,1.7
		c-1-2.2-3.4-3.7-6.3-3.7c-4.5,0-7.7,3.4-7.7,8.1c0,4.7,3.1,8.2,7.7,8.2c3.1,0,5.6-1.6,6.5-4.1l3.5,1.6
		C482.3,21.4,478.2,24,473.4,24z"/>
	<path class="st0" d="M501.5,15.6c0,4.8-3.7,8.4-8.4,8.4s-8.3-3.6-8.3-8.4c0-4.8,3.6-8.4,8.3-8.4S501.5,10.8,501.5,15.6z
		 M488.4,15.6c0,2.7,2.1,4.9,4.8,4.9c2.7,0,4.8-2.1,4.8-4.9c0-2.8-2.1-4.9-4.8-4.9C490.4,10.7,488.4,12.8,488.4,15.6z"/>
	<path class="st0" d="M529.5,23.6h-3.7v-9c0-2.4-1.4-3.9-3.5-3.9c-1.8,0-3.6,1.2-3.6,3.9v9H515v-9c0-2.4-1.4-3.9-3.5-3.9
		c-1.8,0-3.6,1.1-3.6,3.9v9h-3.7V7.5h3.7v2.3c1.2-2,3.2-2.6,4.9-2.6c2.3,0,4,0.9,5,2.8c1-1.7,3-2.8,5.1-2.8c3.9,0,6.6,2.5,6.6,6.6
		V23.6z"/>
	<path class="st0" d="M550,15.6c0,4.7-3.4,8.4-7.7,8.4c-2.6,0-4.6-1.2-5.7-3.2v8.5h-3.7V7.5h3.7v2.8c1.2-2,3.1-3.2,5.7-3.2
		C546.6,7.2,550,10.9,550,15.6z M536.6,15.6c0,2.8,2.1,4.9,4.9,4.9c2.7,0,4.9-2.2,4.9-4.9c0-2.7-2.1-4.9-4.9-4.9
		C538.7,10.7,536.6,12.8,536.6,15.6z"/>
	<path class="st0" d="M552.7,7.5h3.7v2.3c0.7-1.6,2.5-2.6,4.1-2.6c0.8,0,1.6,0.1,2,0.4l-0.4,3.6c-0.6-0.3-1.3-0.4-2-0.4
		c-1.8,0-3.7,1.5-3.7,4.3v8.6h-3.7V7.5z"/>
	<path class="st0" d="M562.9,15.5c0-4.7,3.7-8.3,8.3-8.3c4.4,0,7.8,3.4,7.8,7.8l-0.1,1.5h-12.4c0.4,2.8,2.2,4.3,4.9,4.3
		c1.8,0,3.6-0.8,4.3-2l2.9,1.8c-1.2,2.1-3.9,3.5-7.2,3.5C566.6,24,562.9,20.3,562.9,15.5z M575.2,13.8c-0.2-2-1.9-3.5-4.2-3.5
		c-2.3,0-3.9,1.4-4.5,3.5H575.2z"/>
	<path class="st0" d="M589.2,10.7c-2.4,0-4,1.7-4,4.2v8.7h-3.7V0.5h3.7V10c1-1.8,2.7-2.9,4.9-2.9c4.2,0,6.7,2.8,6.7,7.3v9.2h-3.7
		v-8.7C593.1,12.3,591.6,10.7,589.2,10.7z"/>
	<path class="st0" d="M599.3,15.5c0-4.7,3.7-8.3,8.3-8.3c4.4,0,7.8,3.4,7.8,7.8l-0.1,1.5h-12.4c0.4,2.8,2.2,4.3,4.9,4.3
		c1.8,0,3.6-0.8,4.3-2l2.9,1.8c-1.2,2.1-3.9,3.5-7.2,3.5C603,24,599.3,20.3,599.3,15.5z M611.6,13.8c-0.2-2-1.9-3.5-4.2-3.5
		c-2.3,0-3.9,1.4-4.5,3.5H611.6z"/>
	<path class="st0" d="M621.7,10c1-1.8,2.7-2.9,4.9-2.9c4.2,0,6.7,2.8,6.7,7.3v9.2h-3.7v-8.7c0-2.5-1.5-4.2-3.9-4.2
		c-2.4,0-4,1.7-4,4.2v8.7H618V7.5h3.7V10z"/>
	<path class="st0" d="M635.6,21.7l1.5-2.8c1.2,1.2,3.6,2,5.4,2c1.6,0,2.6-0.8,2.6-1.8c0-3-9-0.9-9-6.9c0-3,2.6-5.1,6.3-5.1
		c2.2,0,4.6,0.6,6,1.9l-1.5,2.8c-1.3-1.1-3.6-1.7-5-1.7c-1.4,0-2.3,0.7-2.3,1.7c0,2.7,9.1,1.1,9.1,7c0,2.9-2.6,5-6.3,5
		C639.9,24,637.2,23.1,635.6,21.7z"/>
	<path class="st0" d="M650.9,2.4c0-1.3,1.1-2.4,2.4-2.4c1.3,0,2.4,1.1,2.4,2.4c0,1.3-1.1,2.3-2.4,2.3C652,4.7,650.9,3.6,650.9,2.4z
		 M655.1,7.5v16.1h-3.7V7.5H655.1z"/>
	<path class="st0" d="M667,23.6h-3.2l-6.7-16.1h4l4.3,11.2l4.3-11.2h4L667,23.6z"/>
	<path class="st0" d="M674.1,15.5c0-4.7,3.7-8.3,8.3-8.3c4.4,0,7.8,3.4,7.8,7.8l-0.1,1.5h-12.4c0.4,2.8,2.2,4.3,4.9,4.3
		c1.8,0,3.6-0.8,4.3-2l2.9,1.8c-1.2,2.1-3.9,3.5-7.2,3.5C677.8,24,674.1,20.3,674.1,15.5z M686.3,13.8c-0.2-2-1.9-3.5-4.2-3.5
		c-2.3,0-3.9,1.4-4.5,3.5H686.3z"/>
	<path class="st0" d="M710.4,24c-6.7,0-11.6-5.2-11.6-11.9c0-6.7,5-11.8,11.6-11.8c4.6,0,8.5,2.3,9.7,5.7l-3.4,1.7
		c-1-2.2-3.4-3.7-6.3-3.7c-4.5,0-7.7,3.4-7.7,8.1c0,4.7,3.1,8.2,7.7,8.2c3.1,0,5.6-1.6,6.5-4.1l3.5,1.6
		C719.2,21.4,715.1,24,710.4,24z"/>
	<path class="st0" d="M738.9,23.6h-3.7v-2.9c-1.2,2-3.1,3.2-5.7,3.2c-4.3,0-7.7-3.8-7.7-8.4c0-4.7,3.4-8.4,7.7-8.4
		c2.6,0,4.6,1.2,5.7,3.2V7.5h3.7V23.6z M735.2,15.5c0-2.8-2.1-4.9-4.9-4.9c-2.7,0-4.9,2.2-4.9,4.9c0,2.7,2.2,4.9,4.9,4.9
		C733.1,20.5,735.2,18.4,735.2,15.5z"/>
	<path class="st0" d="M742.4,7.5h3.7v2.3c0.7-1.6,2.5-2.6,4.1-2.6c0.8,0,1.6,0.1,2,0.4l-0.4,3.6c-0.6-0.3-1.3-0.4-2-0.4
		c-1.8,0-3.7,1.5-3.7,4.3v8.6h-3.7V7.5z"/>
	<path class="st0" d="M764.6,0.5v23.1h-3.9V0.5H764.6z"/>
	<path class="st0" d="M772.1,10c1-1.8,2.7-2.9,4.9-2.9c4.2,0,6.7,2.8,6.7,7.3v9.2h-3.7v-8.7c0-2.5-1.5-4.2-3.9-4.2
		c-2.4,0-4,1.7-4,4.2v8.7h-3.7V7.5h3.7V10z"/>
	<path class="st0" d="M786,21.7l1.5-2.8c1.2,1.2,3.6,2,5.4,2c1.6,0,2.6-0.8,2.6-1.8c0-3-9-0.9-9-6.9c0-3,2.6-5.1,6.3-5.1
		c2.2,0,4.6,0.6,6,1.9l-1.5,2.8c-1.3-1.1-3.6-1.7-5-1.7c-1.4,0-2.3,0.7-2.3,1.7c0,2.7,9.1,1.1,9.1,7c0,2.9-2.6,5-6.3,5
		C790.3,24,787.5,23.1,786,21.7z"/>
	<path class="st0" d="M809.1,24c-4.4,0-7.5-3.2-7.5-7.8V7.5h3.7v8.7c0,2.6,1.5,4.3,3.9,4.3s3.9-1.7,3.9-4.3V7.5h3.7v8.7
		C816.6,20.8,813.6,24,809.1,24z"/>
	<path class="st0" d="M819.9,7.5h3.7v2.3c0.7-1.6,2.5-2.6,4.1-2.6c0.8,0,1.6,0.1,2,0.4l-0.4,3.6c-0.6-0.3-1.3-0.4-2-0.4
		c-1.8,0-3.7,1.5-3.7,4.3v8.6h-3.7V7.5z"/>
	<path class="st0" d="M847.2,23.6h-3.7v-2.9c-1.2,2-3.1,3.2-5.7,3.2c-4.3,0-7.7-3.8-7.7-8.4c0-4.7,3.4-8.4,7.7-8.4
		c2.6,0,4.6,1.2,5.7,3.2V7.5h3.7V23.6z M843.5,15.5c0-2.8-2.1-4.9-4.9-4.9c-2.7,0-4.9,2.2-4.9,4.9c0,2.7,2.2,4.9,4.9,4.9
		C841.4,20.5,843.5,18.4,843.5,15.5z"/>
	<path class="st0" d="M854.5,10c1-1.8,2.7-2.9,4.9-2.9c4.2,0,6.7,2.8,6.7,7.3v9.2h-3.7v-8.7c0-2.5-1.5-4.2-3.9-4.2
		c-2.4,0-4,1.7-4,4.2v8.7h-3.7V7.5h3.7V10z"/>
	<path class="st0" d="M876.9,24c-4.8,0-8.4-3.6-8.4-8.4c0-4.8,3.6-8.4,8.4-8.4c3.1,0,5.8,1.6,7,3.9l-3.1,1.7
		c-0.6-1.3-2.1-2.1-3.8-2.1c-2.8,0-4.8,2.1-4.8,4.9c0,2.7,2,4.9,4.8,4.9c1.9,0,3.4-0.9,4.2-2.4l3.2,1.5
		C883.1,22.2,880.3,24,876.9,24z"/>
	<path class="st0" d="M885.5,15.5c0-4.7,3.7-8.3,8.3-8.3c4.4,0,7.8,3.4,7.8,7.8l-0.1,1.5H889c0.4,2.8,2.2,4.3,4.9,4.3
		c1.8,0,3.6-0.8,4.3-2l2.9,1.8c-1.2,2.1-3.9,3.5-7.2,3.5C889.2,24,885.5,20.3,885.5,15.5z M897.8,13.8c-0.2-2-1.9-3.5-4.2-3.5
		c-2.3,0-3.9,1.4-4.5,3.5H897.8z"/>
</g>
</svg>
