<?xml version="1.0" encoding="utf-8"?>
<!-- Generator: Adobe Illustrator 27.7.0, SVG Export Plug-In . SVG Version: 6.00 Build 0)  -->
<svg version="1.1" id="Layer_1" xmlns="http://www.w3.org/2000/svg" xmlns:xlink="http://www.w3.org/1999/xlink" x="0px" y="0px"
	 viewBox="0 0 156.5 56" style="enable-background:new 0 0 156.5 56;" xml:space="preserve">
<style type="text/css">
	.st0{fill:#FFFFFF;}
</style>
<g>
	<g>
		<rect x="91.1" y="0.1" class="st0" width="0.5" height="55.9"/>
		<g>
			<g>
				<path class="st0" d="M72.7,44.8c0,6.2-5,11.2-11.2,11.2H0V11.3C0,5.1,5,0.1,11.2,0.1h50.3c6.2,0,11.2,5,11.2,11.2V44.8z
					 M69.9,11.3c0-4.6-3.8-8.4-8.4-8.4H11.2c-4.6,0-8.4,3.8-8.4,8.4v41.9h58.7c4.6,0,8.4-3.8,8.4-8.4V11.3z M32.7,19.7
					c-4.6,0-8.4,3.8-8.4,8.4c0,4.6,3.8,8.4,8.4,8.4c4.6,0,8.4-3.8,8.4-8.4C41.1,23.4,37.3,19.7,32.7,19.7 M38.3,28
					c0,3.1-2.5,5.6-5.6,5.6c-3.1,0-5.6-2.5-5.6-5.6c0-3.1,2.5-5.6,5.6-5.6C35.8,22.5,38.3,25,38.3,28 M61.5,36.4h-2.8V19.7h2.8V36.4
					z M56.6,19.7v9.8c0,2.3-1.1,4.3-2.8,5.6c-1.2,0.9-2.6,1.4-4.2,1.4c-1.6,0-3-0.5-4.2-1.4c-1.7-1.3-2.8-3.3-2.8-5.6v-9.8h2.8v9.8
					c0,2.3,1.9,4.2,4.2,4.2c2.3,0,4.2-1.9,4.2-4.2v-9.8H56.6z M25.4,19.7L14.2,44.8h-3.1l4.9-11L9.8,19.7h3.1l4.8,10.7l4.8-10.7
					H25.4z M62.2,12.7c0,1.2-0.9,2.1-2.1,2.1c-1.2,0-2.1-0.9-2.1-2.1c0-1.2,0.9-2.1,2.1-2.1C61.3,10.6,62.2,11.5,62.2,12.7"/>
			</g>
		</g>
		<g>
			<path class="st0" d="M110,15.4V7.6c0-0.9,0-1.5-0.7-2.1h4.7c-0.7,0.6-0.7,1.2-0.7,2.1v7.8c0.7,0.2,1.3,0.3,1.9,0.3
				c0.9,0,1.6-0.3,2.4-0.8l-0.6,2.5h-7.8C110,16.9,110,16.3,110,15.4z"/>
			<path class="st0" d="M151.4,15.9c1.1,0,1.8-0.6,1.8-1.3c0-1.1-1.2-1.4-2.9-2.3c-1.7-0.8-2.5-2.1-2.5-3.5c0-2,1.6-3.5,4.4-3.5
				c1,0,2,0.2,3,0.6v2c-1-0.5-1.8-0.8-2.5-0.8c-1,0-1.6,0.5-1.6,1.2c0,1,1.3,1.3,3.3,2.5c1.4,0.8,2,1.8,2,3.2c0,2.2-1.9,3.8-4.7,3.8
				c-1.2,0-2.3-0.2-3.6-0.6l-0.6-2.5C149,15.4,150.2,15.9,151.4,15.9z"/>
			<g>
				<path class="st0" d="M118,3.4V0.8c0-0.3,0-0.5-0.2-0.7h1.5c1,0,1.5,0.4,1.5,0.9c0,0.3-0.2,0.6-0.6,0.8c0.5,0.2,0.8,0.5,0.8,1
					c0,0.3-0.1,0.6-0.3,0.8c-0.3,0.3-0.7,0.4-1.2,0.4h-1.7C118,3.9,118,3.7,118,3.4z M119.3,1.6c0.3,0,0.4-0.2,0.4-0.5
					c0-0.3-0.2-0.4-0.4-0.4c0,0-0.1,0-0.2,0v0.9C119.2,1.6,119.3,1.6,119.3,1.6z M119.4,3.5c0.4,0,0.6-0.3,0.6-0.7
					c0-0.4-0.2-0.7-0.6-0.7c-0.1,0-0.1,0-0.2,0v1.3C119.3,3.5,119.3,3.5,119.4,3.5z"/>
				<path class="st0" d="M121.8,4.1c0.2-0.2,0.2-0.4,0.2-0.7V0.8c0-0.3,0-0.5-0.2-0.7h1.6c1,0,1.6,0.3,1.6,1.1c0,0.4-0.2,0.7-0.7,1
					l0.7,1.2c0.1,0.2,0.3,0.4,0.5,0.7l-0.7,0.1c-0.1,0-0.1,0-0.2,0c-0.4,0-0.7-0.2-0.9-0.7l-0.5-1v1c0,0.3,0,0.5,0.2,0.7H121.8z
					 M123.9,1.3c0-0.4-0.2-0.6-0.6-0.6c0,0-0.1,0-0.1,0v1.4C123.6,2,123.9,1.7,123.9,1.3z"/>
				<path class="st0" d="M127.5,4.1h-1.6c0.2-0.2,0.2-0.4,0.2-0.7V0.8c0-0.3,0-0.5-0.2-0.7h1.6c-0.2,0.2-0.2,0.4-0.2,0.7v2.6
					C127.3,3.7,127.3,3.9,127.5,4.1z"/>
				<path class="st0" d="M129.6,3.5c0.4,0,0.6-0.2,0.6-0.4c0-0.4-0.4-0.5-1-0.8c-0.6-0.3-0.8-0.7-0.8-1.2c0-0.7,0.6-1.2,1.5-1.2
					c0.3,0,0.7,0.1,1,0.2v0.7c-0.3-0.2-0.6-0.3-0.8-0.3c-0.3,0-0.5,0.2-0.5,0.4c0,0.3,0.4,0.4,1.1,0.8c0.5,0.3,0.7,0.6,0.7,1.1
					c0,0.8-0.6,1.3-1.6,1.3c-0.4,0-0.8-0.1-1.2-0.2l-0.2-0.9C128.8,3.4,129.2,3.5,129.6,3.5z"/>
				<path class="st0" d="M132.3,3.4V0.8c0-0.3,0-0.5-0.2-0.7h1.5c1,0,1.5,0.4,1.5,0.9c0,0.3-0.2,0.6-0.6,0.8c0.5,0.2,0.8,0.5,0.8,1
					c0,0.3-0.1,0.6-0.3,0.8c-0.3,0.3-0.7,0.4-1.2,0.4H132C132.2,3.9,132.3,3.7,132.3,3.4z M133.5,1.6c0.3,0,0.4-0.2,0.4-0.5
					c0-0.3-0.2-0.4-0.4-0.4c0,0-0.1,0-0.2,0v0.9C133.5,1.6,133.5,1.6,133.5,1.6z M133.6,3.5c0.4,0,0.6-0.3,0.6-0.7
					c0-0.4-0.2-0.7-0.6-0.7c-0.1,0-0.1,0-0.2,0v1.3C133.5,3.5,133.6,3.5,133.6,3.5z"/>
				<path class="st0" d="M136,3.5l0.9-2.7c0-0.1,0.1-0.2,0.1-0.3c0-0.1-0.1-0.2-0.2-0.4h1.4l1.1,3.3c0.1,0.3,0.3,0.5,0.4,0.7H138
					c0.1-0.2,0.2-0.3,0.2-0.4c0-0.1,0-0.2,0-0.2L138,2.9h-1.2l-0.2,0.6c0,0.1-0.1,0.2-0.1,0.2c0,0.1,0.1,0.3,0.2,0.4h-1.2
					C135.8,3.9,135.9,3.7,136,3.5z M137.8,2.4l-0.4-1.2L137,2.4H137.8z"/>
				<path class="st0" d="M140.4,3.1V0.9c0-0.3,0-0.5-0.3-0.9h1.2l1.8,2.5V1.1c0-0.1,0-0.1,0-0.2c0-0.3,0-0.5-0.3-0.9h1.1
					c-0.2,0.4-0.2,0.6-0.2,0.9c0,0.1,0,0.1,0,0.2v3.1c-0.9-0.1-1.2-0.5-1.5-1L141,1.6v1.5c0,0.1,0,0.2,0,0.2c0,0.3,0,0.5,0.3,0.8
					h-1.2C140.4,3.8,140.4,3.5,140.4,3.1z"/>
				<path class="st0" d="M145.1,3.4V0.8c0-0.3,0-0.5-0.2-0.7h2.3v0.8c-0.2-0.2-0.3-0.2-0.6-0.2h-0.4v1h0.8v0.8
					c-0.1-0.1-0.2-0.2-0.4-0.2h-0.3v1.2c0.1,0,0.3,0.1,0.4,0.1c0.4,0,0.7-0.1,1-0.3l-0.2,0.9h-2.6C145.1,3.9,145.1,3.7,145.1,3.4z"
					/>
			</g>
			<g>
				<path class="st0" d="M117.7,17.5h2.5c0.5-0.4,1.1-0.8,1.6-1.1c-0.1-0.3-0.1-0.7-0.1-1l0-7.8c0-0.9,0-1.5,0.7-2.1h-4.7
					c0.7,0.6,0.7,1.2,0.7,2.1v7.8C118.4,16.3,118.4,16.9,117.7,17.5z"/>
			</g>
			<g>
				<path class="st0" d="M125.1,15.3c0.1-0.3-0.3-0.8-0.3-0.8c0.7-0.3,1.3-0.5,1.9-0.6c-0.3-0.7-0.5-1.7-0.5-2.7c0-2.5,1.3-4,3.1-4
					c1.9,0,3.3,1.9,3.3,4.9c0,0.3,0,0.5,0,0.7c1.4,0.1,2.8,0.4,3.3,0.5c0.2-0.6,0.3-1.2,0.3-1.8c0-3.7-2.8-6.3-6.8-6.3
					c-1.8,0-3.4,0.6-4.6,1.7c-1.4,1.2-2.1,2.9-2.1,4.6c0,1.6,0.5,3,1.4,4C124.6,15.3,125.1,15.3,125.1,15.3z"/>
			</g>
			<g>
				<path class="st0" d="M136.9,12.8c0.7,0.1,1.3,0.4,1.9,0.8v-3.4l3.6,4.7c1.1,1.4,2,2.7,4.6,3V8.7c0-0.2,0-0.3,0-0.5
					c0-0.8,0.1-1.6,0.7-2.6l-3.4,0c0.8,1,0.8,1.8,0.8,2.6c0,0.2,0,0.4,0,0.5v4.2l-5.4-7.3H136c0.9,1,1,1.7,1,2.5L136.9,12.8z"/>
			</g>
			<g>
				<path class="st0" d="M150.1,28.1c0,0,0.3-0.2,0.6-0.2c0,0-0.1-1.4-1.7-3.2c-0.7-0.8-0.9-2.2,0-2.3c0,0-0.1-0.9-2-1.2
					c-0.5-0.1-0.5-0.1-0.8-0.5c-0.2-0.4-0.4-1.3-0.1-1.9c0,0-0.7-0.3-1.3,0c0,0-1.6-3.4-3.5-3.9c0,0,0,0.3-0.3,0.5
					c0,0-2.4-2.8-4.8-2.8c0,0,0,0.4-0.2,0.7c0,0-2.6-0.8-4.9-0.7c0,0,0.2,0.4,0.1,0.7c0,0-3.3-0.4-6.7,0.9c0,0,0.5,0.5,0.4,0.8
					c0,0-4.7,1-6.4,4c0,0,0.7,0.1,0.8,0.5c0,0-3.6,2.3-3.7,4.7c0,0,1.4,0.4,0.6,1c-0.7,0.6-3.1,1.6-3.2,3c0,0,1.5-0.1,1.1,1.3
					c-0.1,0.5-0.4,1.7-0.4,3.3c0,13.6,18.7,23.1,18.7,23.1s18.7-9.5,18.7-23.1C151.1,32.6,151,29.7,150.1,28.1z M147.8,41.5
					c0,0-0.1-2.4-1.2-2.8c0,0,1.2,3.7-2.2,7.5c0,0,0.8-2,0.1-3.3c0,0-0.3,3.4-3.3,5.9c0,0-0.2-0.8-0.8-1.4c0,0,0.6,2.6-7.9,7.4
					c0,0-1.5-0.8-4.2-2.6c-1.6-1.2-3.8-3-3.8-3s1.1,0.3,2.2-0.5c0,0-2,0.2-5.2-1.6c0,0,1.9,0.6,4.5-0.4c0,0-2.8,0.5-6-1.7
					c0,0,2.2,0.4,3.5-0.4c0,0-3.8,0.1-5.9-2.4c0,0,2.4,1,4.4,0.2c0,0-1.4,0.1-3.2-1.4c0,0,2.1,0.5,3.9-0.7c0,0-4.6,0.2-7.1-2.4
					c0,0,3.5,2.1,6.8-0.2c0,0-3.3,0.7-5.7-1.3c0,0,3.2,0.6,4.6-0.8c0,0-1.2,0.4-3.1-0.4c0,0,1.8-0.2,2.6-1.5c0,0-3.2,1-6-0.8
					c0,0,4.5,0.1,6-2c0,0-2.1,0.9-5.8-1.2c0,0,3.7,0.7,6.5-1.4c0,0-3.4,1-6.1-0.8c0,0,3.6,1,6.6-2c0,0-0.5-0.4-1.7,0.2
					c0,0,0.6-1.8,2.7-1.9c0,0-0.6-0.7-2.2-0.2c0,0,1.3-1.5,4.1-0.9c0,0-1.6-2.1-3.8-1.4c-2,0.6-2.2,3-2.2,3.3c0,0-0.7-0.3-1.9,0.1
					c0,0,0.6-1.1,2-1.7c0,0-0.5-0.7-1.8-0.3c0,0,4-4.4,8.5-1c0,0-1.4-2.7-4.9-2.9c0,0,4.6-1.4,8,3.1c0,0-1.3-4.5-6.8-5
					c0,0,5.8-1.7,9.1,4.9c0,0-0.3-3.4-2.5-5.5c0,0,3.5,1.8,4.4,6.3c0,0,0.7-5.5-3.8-8.2c0,0,4.6,1.1,5.6,6.6c0,0,1.5-4-0.3-6.7
					c0,0,2.4,1.7,2,7.1c0,0,2.2-2.4,1.5-7c0,0,2,4.3,0.3,7.7c0,0,1.9-1.7,3.3-5.4c0,0,0.2,1.9-0.6,3.9c0,0,2.1-1.4,3.9-0.8
					c0,0-1.1,0.3-1.4,1.4c-0.3-0.1-0.6-0.2-0.8-0.2c-1.9-0.1-3.1,1.5-3.1,1.5s2.5-0.7,4.1,0.9c0,0-1.4-0.5-2.2,0.2
					c0,0,2-0.1,2.7,1.9c0,0-1-0.6-1.7-0.2c0,0,1.2,0.6,2.4,2.6c1.2-3.7,0.3-5.8-1-6.6c0.9,0.2,3,1,5,5c0,0-1-1-2.3-0.9
					c0,0,2.9,2.4,3.5,8.4c0,0-1.3-2.8-2.5-3.2C148,30.6,151.3,35.4,147.8,41.5z M117.1,26c1.2-0.1,2-0.5,2-0.5c0,0.5,0.2,1,0.2,1
					C117.9,26.6,117.1,26,117.1,26z"/>
				<path class="st0" d="M135.9,45.3c-0.1-0.1-2.2-1-2.3-1.1c-0.4-0.2-0.8-0.3-1.3-0.3s-0.9,0.1-1.3,0.3c-0.1,0-2.1,1-2.3,1.1
					c-0.1,0.1-1,0.4-1.1,1.5c-0.1,0.8,0.6,1.7,0.6,1.7c0.2-0.5,0.6-0.7,0.6-0.7c0,0.7,0.6,0.9,0.6,0.9c0.2-0.5,0.8-0.8,0.8-0.8
					c0.1,0.6,0.6,1,0.6,1c0.2-0.5,0.6-0.7,0.6-0.7c0.5,0.2,0.7,1.1,0.7,1.1c0.8-0.4,0.8-1.1,0.8-1.1c0.6,0.3,0.7,0.7,0.7,0.7
					c0.6-0.4,0.6-1,0.6-1c0.6,0.3,0.8,0.8,0.8,0.8c0.5-0.3,0.6-0.9,0.6-0.9c0.4,0.3,0.6,0.7,0.6,0.7c0.1-0.1,0.7-0.9,0.6-1.7
					C136.9,45.7,136.1,45.3,135.9,45.3z"/>
				<path class="st0" d="M140,26c-0.3-0.4-0.9-0.9-0.8-1.2c0.2-0.5,1.3-0.3,1.3-0.3c-0.4-0.5-1.3-0.7-1.7-0.8
					c-0.4-0.1-0.9-0.2-0.9-0.4c0-0.4,1.2-0.7,1.2-0.7s-2-0.3-4.1,0.4c-2.4,0.8-2.6,3.5-2.7,3.5c-0.1,0-0.3-2.7-2.8-3.5
					c-2-0.7-4.1-0.4-4.1-0.4s1.2,0.3,1.2,0.7c0,0.3-0.4,0.3-0.9,0.4c-0.2,0.1-1.2,0.3-1.7,0.8c0,0,1.1-0.2,1.2,0.1
					c0.2,0.4-1.1,1-2.5,1.6c0,0,0.7,0,0.8,0.3c0.2,0.5-0.3,1.1-0.5,1.4c-2.2,3.2-1.4,5.8-0.4,7.6c0.7,1.2,2.9,4.7,2.9,4.7
					c0.5-1,1.3-1.1,1.3-1.1c-0.6,0.3-0.9,0.9-1,1.4c0.3,0,0.7-0.1,1-0.1c0.9,0,1.8,0.1,2.7,0.4c0.1,0,0.2,0.1,0.2,0.3
					c-0.1,0.2-0.2,0.2-0.3,0.2c-0.9-0.3-1.9-0.5-3-0.5c-1.4,0-2.7,0.3-4,0.9l0,0.1c1-0.4,2.1-0.7,3.3-0.8c0,0.2,0,0.4-0.1,0.6
					c0.4-0.1,0.8-0.1,1.2-0.1c0.8,0,1.6,0.1,2.3,0.3c0.1,0,0.2,0.1,0.2,0.3c0,0.2-0.2,0.2-0.3,0.2c-0.8-0.3-1.7-0.4-2.6-0.4
					c-1.3,0-2.5,0.3-3.6,0.8l0,0.1c0.9-0.4,1.9-0.6,2.9-0.7c0,0.1,0,0.4,0.1,0.6c0,0,0,0,0,0c0.4-0.1,0.7-0.1,1.1-0.1
					c0.7,0,1.3,0.1,1.9,0.2c0.1,0,0.2,0.1,0.2,0.3c-0.1,0.2-0.2,0.2-0.3,0.2c-0.7-0.2-1.5-0.3-2.2-0.3c-1.2,0-2.3,0.3-3.2,0.8l0,0.1
					c0.8-0.4,1.7-0.6,2.7-0.7c0,0.2,0.1,0.4,0.1,0.6c0.2,1.1,1.3,1.5,2,1.1c0.1,0,2.7-1.3,2.8-1.4c0.7-0.3,1.3-1.1,1.4-1.9
					c0.1,0.8,0.6,1.6,1.4,1.9c0.1,0,2.8,1.3,2.8,1.4c0.8,0.4,1.9,0,2-1.1c0-0.1,0.1-0.3,0.1-0.6c1,0,1.9,0.3,2.7,0.7l0-0.1
					c-1-0.5-2.1-0.7-3.2-0.8c-0.8,0-1.5,0.1-2.2,0.3c-0.1,0-0.2,0-0.3-0.2c-0.1-0.2,0.1-0.3,0.2-0.3c0.6-0.2,1.2-0.2,1.9-0.2
					c0.4,0,0.7,0,1.1,0.1c0,0,0.1-0.4,0.1-0.6c1,0.1,2,0.3,2.9,0.7l0-0.1c-1.1-0.5-2.3-0.8-3.6-0.8c-0.9,0-1.8,0.1-2.6,0.4
					c-0.1,0-0.3,0-0.3-0.2c-0.1-0.2,0.1-0.3,0.2-0.3c0.7-0.2,1.5-0.3,2.3-0.3c0.4,0,0.8,0,1.2,0.1c0-0.2,0-0.4-0.1-0.6
					c1.2,0.1,2.3,0.3,3.3,0.8l0-0.1c-1.2-0.5-2.5-0.9-4-0.9c-1,0-2.1,0.2-3,0.5c-0.1,0-0.3,0-0.3-0.2c0-0.2,0.1-0.3,0.2-0.3
					c0.9-0.2,1.8-0.4,2.7-0.4c0.3,0,0.7,0,1,0.1c0,0,0,0,0,0c0-0.1-0.1-0.2-0.1-0.3c-0.5-1.2-1.6-1.4-1.6-1.4s0.6-0.7,0.1-1.8
					l-0.6-1.4c0,0,1,0.8,2.5,0.8c2.5,0,3.6-2,3.8-3.4c0.3-1.4,0.1-3.4-1.3-5.1C141.5,27.8,140.6,26.7,140,26z M128.7,32.5
					c-0.1-0.4-0.2-0.5-0.4-0.6c-0.3-0.1-0.5,0.2-1.1,0.2c-0.8,0-1.5-0.4-1.8-1c-0.3-0.6-0.6-0.9-1.3-1.2l0-0.1c0,0,0.9,0,1.7-0.3
					c0.3-0.1,0.4-0.2,1,0c0.6,0.2,1.6,0.6,1.9,0.6c0.3,0.1,0.7,0.1,0.9-0.4c0.6,0.8,0.2,1.7,0,2.2c-0.1,0.1-1.4,3.5-1.4,3.5
					C127.8,35,128.8,33.4,128.7,32.5z M136.5,37.9c0,0.5-0.9,1-0.9,1l-0.6,0.4c-0.1-0.2-0.3-0.2-0.5-0.2c-0.4,0-0.7,0.3-0.7,0.7
					c0,0.1,0,0.2,0.1,0.3l-1.4,0.9l-1.4-0.9c0-0.1,0.1-0.2,0.1-0.3c0-0.4-0.3-0.7-0.7-0.7c-0.2,0-0.4,0.1-0.5,0.2l-0.6-0.4
					c0,0-0.8-0.5-0.9-1c0-0.2,0.1-0.4,0.4,0c0.1,0.1,0.2,0.3,0.5,0.3c0.2,0,0.6-0.3,1.3-0.3c1.1,0,1.2,0.5,1.9,0.5
					c0.7,0,0.8-0.5,1.9-0.5c0.7,0,1.1,0.3,1.3,0.3c0.3,0,0.4-0.2,0.5-0.3C136.3,37.5,136.5,37.7,136.5,37.9z M139.5,31.2
					c-0.3,0.5-1,1-1.8,1c-0.6,0-0.8-0.3-1.1-0.2c-0.2,0.1-0.3,0.2-0.4,0.6c-0.1,0.8,0.5,1.7,0.1,2.1c0,0-1-2.5-1.1-2.6
					c-0.2-0.6-0.6-1.4,0-2.2c0.2,0.5,0.6,0.5,0.9,0.4c0.3-0.1,1.3-0.4,1.9-0.6c0.6-0.2,0.7-0.1,1,0c0.8,0.4,1.7,0.3,1.7,0.3l0,0.1
					C140,30.3,139.8,30.6,139.5,31.2z"/>
				<path class="st0" d="M137.6,30.4c0.1,0,0.2-0.1,0.2-0.2c0-0.1-0.1-0.2-0.2-0.2c-0.1,0-0.2,0.1-0.2,0.2
					C137.4,30.4,137.5,30.4,137.6,30.4z"/>
				<path class="st0" d="M138.2,29.9c0.1,0.1,0.1,0.2,0.1,0.4c0,0.4-0.3,0.6-0.6,0.6c-0.3,0-0.6-0.3-0.6-0.6
					c-0.3,0.1-0.5,0.2-0.7,0.2c0.2,0.6,0.8,1,1.4,1c0.8,0,1.5-0.6,1.5-1.4c-0.1,0-0.2-0.1-0.3-0.1C138.7,29.9,138.4,29.9,138.2,29.9
					z"/>
				<path class="st0" d="M127.2,30.4c0.1,0,0.2-0.1,0.2-0.2c0-0.1-0.1-0.2-0.2-0.2c-0.1,0-0.2,0.1-0.2,0.2
					C127.1,30.4,127.1,30.4,127.2,30.4z"/>
				<path class="st0" d="M127.2,30.9c-0.4,0-0.6-0.3-0.6-0.6c0-0.1,0-0.3,0.1-0.4c-0.2,0-0.5,0-0.7,0.1c-0.1,0-0.2,0.1-0.3,0.1
					c0.1,0.8,0.7,1.4,1.5,1.4c0.7,0,1.2-0.4,1.4-1c-0.3-0.1-0.4-0.1-0.7-0.2C127.8,30.6,127.5,30.9,127.2,30.9z"/>
			</g>
		</g>
	</g>
</g>
</svg>
