<?xml version="1.0" encoding="utf-8"?>
<!-- Generator: Adobe Illustrator 27.7.0, SVG Export Plug-In . SVG Version: 6.00 Build 0)  -->
<svg version="1.1" id="Layer_1" xmlns="http://www.w3.org/2000/svg" xmlns:xlink="http://www.w3.org/1999/xlink" x="0px" y="0px"
	 viewBox="0 0 227 39" style="enable-background:new 0 0 227 39;" xml:space="preserve">
<path d="M1.1,37.5V24.9h2.2v1.5c0.5-0.9,1.7-1.7,3.1-1.7c2.3,0,4.2,1.7,4.2,4.8v0.1c0,3-1.7,4.8-4.2,4.8c-1.5,0-2.6-0.7-3.1-1.6v4.7
	H1.1z M5.8,32.8c1.6,0,2.5-1.1,2.5-3.1v-0.1c0-2.1-1.1-3.1-2.5-3.1c-1.5,0-2.6,1-2.6,3.1v0.1C3.2,31.8,4.2,32.8,5.8,32.8z
	 M14.5,34.5c-1.7,0-3.1-0.8-3.1-2.8c0-2.2,2.1-3,4.8-3h1.2v-0.5c0-1.3-0.4-1.9-1.7-1.9c-1.1,0-1.7,0.5-1.8,1.5h-2.1
	c0.2-2.2,1.9-3.1,4-3.1c2.1,0,3.7,0.9,3.7,3.4v6.1h-2.1v-1.1C16.8,34,16,34.5,14.5,34.5z M15,32.9c1.3,0,2.3-0.7,2.3-1.9v-0.9h-1.1
	c-1.6,0-2.7,0.4-2.7,1.5C13.5,32.4,14,32.9,15,32.9z M21.7,34.3v-9.4h2.2v1.8c0.6-1.2,1.5-1.9,3-1.9v2c-1.9,0-3,0.6-3,2.6v4.9H21.7z
	 M30.7,34.5c-1.7,0-3.1-0.8-3.1-2.8c0-2.2,2.1-3,4.8-3h1.2v-0.5c0-1.3-0.4-1.9-1.7-1.9c-1.1,0-1.7,0.5-1.8,1.5h-2.1
	c0.2-2.2,1.9-3.1,4-3.1c2.1,0,3.7,0.9,3.7,3.4v6.1h-2.1v-1.1C33,34,32.1,34.5,30.7,34.5z M31.2,32.9c1.3,0,2.3-0.7,2.3-1.9v-0.9
	h-1.1c-1.6,0-2.7,0.4-2.7,1.5C29.7,32.4,30.1,32.9,31.2,32.9z M44.2,34.5c-1.7,0-3.1-0.8-3.1-2.8c0-2.2,2.1-3,4.8-3H47v-0.5
	c0-1.3-0.4-1.9-1.7-1.9c-1.1,0-1.7,0.5-1.8,1.5h-2.1c0.2-2.2,1.9-3.1,4-3.1c2.1,0,3.7,0.9,3.7,3.4v6.1h-2.1v-1.1
	C46.4,34,45.6,34.5,44.2,34.5z M44.7,32.9c1.3,0,2.3-0.7,2.3-1.9v-0.9h-1.1c-1.6,0-2.7,0.4-2.7,1.5C43.2,32.4,43.6,32.9,44.7,32.9z
	 M58.4,34.5c-1.9,0-2.8-1-2.8-2.8v-5.1h-1.3v-1.6h1.3v-2.1h2.2v2.1h2.1v1.6h-2.1v4.9c0,0.8,0.4,1.2,1.1,1.2c0.4,0,0.8-0.1,1.1-0.2
	v1.7C59.5,34.4,59.1,34.5,58.4,34.5z M61.5,34.3v-9.4h2.2v1.8c0.6-1.2,1.5-1.9,3-1.9v2c-1.9,0-3,0.6-3,2.6v4.9H61.5z M70.5,34.5
	c-1.7,0-3.1-0.8-3.1-2.8c0-2.2,2.1-3,4.8-3h1.2v-0.5c0-1.3-0.4-1.9-1.7-1.9c-1.1,0-1.7,0.5-1.8,1.5h-2.1c0.2-2.2,1.9-3.1,4-3.1
	c2.1,0,3.7,0.9,3.7,3.4v6.1h-2.1v-1.1C72.8,34,72,34.5,70.5,34.5z M71,32.9c1.3,0,2.3-0.7,2.3-1.9v-0.9h-1.1c-1.6,0-2.7,0.4-2.7,1.5
	C69.5,32.4,70,32.9,71,32.9z M77.7,34.3v-9.4h2.2v1.5c0.4-0.9,1.5-1.7,3-1.7c1.9,0,3.2,1.1,3.2,3.7v5.9h-2.2v-5.7
	c0-1.4-0.6-2.1-1.9-2.1c-1.2,0-2.2,0.8-2.2,2.2v5.5H77.7z M91.4,34.5c-2.4,0-3.8-1.1-3.9-3.1h2c0.1,0.9,0.6,1.5,1.9,1.5
	c1.2,0,1.7-0.4,1.7-1.2c0-0.8-0.6-1.1-2-1.3c-2.5-0.4-3.4-1.1-3.4-2.8c0-1.9,1.8-2.8,3.5-2.8c1.9,0,3.4,0.7,3.7,2.8h-2
	c-0.2-0.9-0.7-1.3-1.7-1.3c-0.9,0-1.5,0.4-1.5,1.1c0,0.7,0.4,0.9,1.9,1.2c2.2,0.3,3.5,0.9,3.5,2.9C95.2,33.4,93.8,34.5,91.4,34.5z
	 M96.8,34.3v-9.4h2.2v9.4H96.8z M97.8,23.4c-0.7,0-1.3-0.5-1.3-1.2c0-0.7,0.6-1.3,1.3-1.3s1.3,0.5,1.3,1.3
	C99.1,22.9,98.5,23.4,97.8,23.4z M105,38.2c-1.1,0-1.9-0.6-2-1.6h1.2c0.1,0.3,0.3,0.6,0.7,0.6c0.4,0,0.7-0.3,0.7-0.6
	c0-0.3-0.3-0.6-0.6-0.6c-0.3,0-0.4,0.1-0.5,0.2l-0.6-0.6l0.7-1.2c-2.3-0.3-3.9-2-3.9-4.7v-0.1c0-3,2.1-4.9,4.7-4.9
	c2.1,0,4,0.9,4.3,3.5h-2.1c-0.2-1.3-1-1.8-2.1-1.8c-1.5,0-2.5,1.1-2.5,3.1v0.1c0,2,1,3.1,2.6,3.1c1.1,0,2.1-0.7,2.3-2h2
	c-0.2,2.1-1.7,3.6-4.1,3.7l-0.4,0.7c0.9-0.1,1.8,0.4,1.8,1.5C106.9,37.7,106.1,38.2,105,38.2z M113.6,34.5c-1.7,0-3.1-0.8-3.1-2.8
	c0-2.2,2.1-3,4.8-3h1.2v-0.5c0-1.3-0.4-1.9-1.7-1.9c-1.1,0-1.7,0.5-1.8,1.5h-2.1c0.2-2.2,1.9-3.1,4-3.1s3.7,0.9,3.7,3.4v6.1h-2.1
	v-1.1C115.9,34,115,34.5,113.6,34.5z M114.1,32.9c1.3,0,2.3-0.7,2.3-1.9v-0.9h-1.1c-1.6,0-2.7,0.4-2.7,1.5
	C112.6,32.4,113.1,32.9,114.1,32.9z M115.9,23.5c-0.9,0-1.5-0.7-2-0.7c-0.3,0-0.6,0.3-0.7,0.7h-1.3c0.1-1.5,0.9-2.3,1.9-2.3
	c0.8,0,1.5,0.7,2,0.7c0.3,0,0.6-0.3,0.6-0.7h1.3C117.7,22.6,116.9,23.5,115.9,23.5z M124.9,32.8c1.6,0,2.6-1.2,2.6-3.1v-0.1
	c0-1.9-1-3.1-2.6-3.1c-1.6,0-2.6,1.2-2.6,3.1v0.1C122.3,31.6,123.3,32.8,124.9,32.8z M124.9,34.5c-2.8,0-4.8-1.9-4.8-4.8v-0.1
	c0-2.9,2.1-4.8,4.8-4.8c2.7,0,4.8,1.9,4.8,4.8v0.1C129.7,32.6,127.7,34.5,124.9,34.5z M139.4,34.5c-2.8,0-4.7-1.8-4.7-4.8v-0.1
	c0-2.9,2-4.8,4.7-4.8c2.3,0,4.4,1.4,4.4,4.7v0.6h-6.9c0.1,1.8,1,2.8,2.6,2.8c1.3,0,2-0.5,2.1-1.4h2.1
	C143.4,33.4,141.8,34.5,139.4,34.5z M136.9,28.7h4.7c-0.1-1.6-0.9-2.3-2.3-2.3C138,26.3,137.1,27.2,136.9,28.7z M145.3,34.3v-9.4
	h2.2v1.5c0.4-0.9,1.5-1.7,3-1.7c1.9,0,3.2,1.1,3.2,3.7v5.9h-2.2v-5.7c0-1.4-0.6-2.1-1.9-2.1c-1.2,0-2.2,0.8-2.2,2.2v5.5H145.3z
	 M159.9,34.5c-2.8,0-4.7-1.8-4.7-4.8v-0.1c0-2.9,2-4.8,4.7-4.8c2.3,0,4.4,1.4,4.4,4.7v0.6h-6.9c0.1,1.8,1,2.8,2.6,2.8
	c1.3,0,2-0.5,2.2-1.4h2.1C163.9,33.4,162.3,34.5,159.9,34.5z M157.5,28.7h4.7c-0.1-1.6-0.9-2.3-2.3-2.3
	C158.5,26.3,157.7,27.2,157.5,28.7z M165.9,34.3v-9.4h2.2v1.8c0.6-1.2,1.5-1.9,3-1.9v2c-1.9,0-3,0.6-3,2.6v4.9H165.9z M176.4,37.8
	c-2.9,0-4.3-1.3-4.5-3.1h2.2c0.2,0.9,0.9,1.5,2.3,1.5c1.7,0,2.6-0.8,2.6-2.5v-1.4c-0.5,0.9-1.7,1.7-3.1,1.7c-2.3,0-4.2-1.8-4.2-4.5
	v-0.1c0-2.6,1.8-4.6,4.2-4.6c1.5,0,2.5,0.7,3,1.6v-1.4h2.2v8.7C181.2,36.4,179.3,37.8,176.4,37.8z M176.5,32.3
	c1.5,0,2.6-1.1,2.6-2.9v-0.1c0-1.8-1-2.8-2.5-2.8c-1.6,0-2.5,1.2-2.5,2.9v0.1C174,31.2,175.1,32.3,176.5,32.3z M186.5,23.5l1.1-2.8
	h2.4l-1.9,2.8H186.5z M187.6,34.5c-2.8,0-4.7-1.8-4.7-4.8v-0.1c0-2.9,2-4.8,4.7-4.8c2.3,0,4.4,1.4,4.4,4.7v0.6H185
	c0.1,1.8,1,2.8,2.6,2.8c1.3,0,2-0.5,2.1-1.4h2.1C191.5,33.4,190,34.5,187.6,34.5z M185.1,28.7h4.7c-0.1-1.6-0.9-2.3-2.3-2.3
	C186.2,26.3,185.3,27.2,185.1,28.7z M196.7,34.5c-1.9,0-2.8-1-2.8-2.8v-5.1h-1.3v-1.6h1.3v-2.1h2.2v2.1h2.1v1.6H196v4.9
	c0,0.8,0.4,1.2,1.1,1.2c0.4,0,0.8-0.1,1.1-0.2v1.7C197.8,34.4,197.3,34.5,196.7,34.5z M199.8,34.3v-9.4h2.2v9.4H199.8z M200.8,23.4
	c-0.7,0-1.3-0.5-1.3-1.2c0-0.7,0.6-1.3,1.3-1.3c0.7,0,1.3,0.5,1.3,1.3C202.1,22.9,201.6,23.4,200.8,23.4z M208.3,34.5
	c-2.7,0-4.7-1.8-4.7-4.7v-0.1c0-3,2.1-4.9,4.7-4.9c2.1,0,4,0.9,4.3,3.5h-2.1c-0.2-1.3-1-1.8-2.2-1.8c-1.5,0-2.5,1.1-2.5,3.1v0.1
	c0,2,1,3.1,2.6,3.1c1.1,0,2.1-0.7,2.3-2h2C212.5,33,210.9,34.5,208.3,34.5z M216.6,34.5c-1.7,0-3.1-0.8-3.1-2.8c0-2.2,2.1-3,4.8-3
	h1.2v-0.5c0-1.3-0.4-1.9-1.7-1.9c-1.1,0-1.7,0.5-1.8,1.5h-2.1c0.2-2.2,1.9-3.1,4-3.1c2.1,0,3.7,0.9,3.7,3.4v6.1h-2.1v-1.1
	C218.9,34,218.1,34.5,216.6,34.5z M217.2,32.9c1.3,0,2.3-0.7,2.3-1.9v-0.9h-1.1c-1.6,0-2.7,0.4-2.7,1.5
	C215.6,32.4,216.1,32.9,217.2,32.9z M225.1,34.4c-0.8,0-1.4-0.6-1.4-1.4c0-0.8,0.6-1.4,1.4-1.4c0.8,0,1.4,0.6,1.4,1.4
	C226.5,33.8,225.9,34.4,225.1,34.4z"/>
</svg>
