<svg width="369" height="27" viewBox="0 0 369 27" fill="none" xmlns="http://www.w3.org/2000/svg">
<path d="M23.9368 21.4393C21.1661 24.8966 17.5249 26.6253 13.0132 26.6253C11.1251 26.6253 9.39648 26.3065 7.8272 25.669C6.25792 25.0315 4.90932 24.1487 3.7814 23.0208C2.678 21.8929 1.80754 20.5443 1.17002 18.975C0.55702 17.4057 0.25052 15.6771 0.25052 13.789C0.25052 11.9255 0.55702 10.2091 1.17002 8.63984C1.78302 7.04604 2.65348 5.67292 3.7814 4.52048C4.90932 3.34352 6.25792 2.43628 7.8272 1.79876C9.39648 1.13672 11.1251 0.805699 13.0132 0.805699C15.1464 0.805699 17.1203 1.16124 18.9348 1.87232C20.7492 2.5834 22.2817 3.82166 23.5323 5.5871L19.229 9.92714C18.5424 8.99538 17.721 8.24752 16.7647 7.68356C15.8085 7.1196 14.7173 6.83762 13.4913 6.83762C12.4615 6.83762 11.542 7.00926 10.7328 7.35254C9.92366 7.69582 9.2371 8.17396 8.67314 8.78696C8.1337 9.39996 7.71686 10.1233 7.42262 10.957C7.12838 11.7661 6.98126 12.6489 6.98126 13.6051C6.98126 14.5859 7.12838 15.4932 7.42262 16.3269C7.74138 17.1605 8.18274 17.8839 8.7467 18.4969C9.31066 19.1099 9.98496 19.588 10.7696 19.9313C11.5788 20.2746 12.4737 20.4462 13.4545 20.4462C14.8767 20.4462 16.0291 20.201 16.9119 19.7106C17.8191 19.1957 18.7018 18.3988 19.56 17.3199L23.9368 21.4393ZM37.4733 26.5885C35.6343 26.5885 33.9302 26.2697 32.3609 25.6322C30.8161 24.9702 29.4675 24.0752 28.3151 22.9473C27.1872 21.7948 26.3045 20.434 25.6669 18.8647C25.0294 17.2709 24.7107 15.5422 24.7107 13.6787C24.7107 11.8152 25.0294 10.0988 25.6669 8.5295C26.3045 6.9357 27.1872 5.57484 28.3151 4.44692C29.4675 3.29448 30.8161 2.3995 32.3609 1.76198C33.9302 1.12446 35.6343 0.805699 37.4733 0.805699C39.3123 0.805699 41.0165 1.12446 42.5857 1.76198C44.155 2.3995 45.5036 3.29448 46.6315 4.44692C47.7595 5.57484 48.6422 6.9357 49.2797 8.5295C49.9172 10.0988 50.236 11.8152 50.236 13.6787C50.236 15.5422 49.9172 17.2709 49.2797 18.8647C48.6422 20.434 47.7595 21.7948 46.6315 22.9473C45.5036 24.0752 44.155 24.9702 42.5857 25.6322C41.0165 26.2697 39.3123 26.5885 37.4733 26.5885ZM37.4733 20.483C38.4296 20.483 39.2755 20.3114 40.0111 19.9681C40.7713 19.6003 41.4088 19.1099 41.9237 18.4969C42.4386 17.8839 42.8309 17.1605 43.1007 16.3269C43.3704 15.4932 43.5052 14.6105 43.5052 13.6787C43.5052 12.7469 43.3704 11.8642 43.1007 11.0305C42.8309 10.1969 42.4386 9.47352 41.9237 8.86052C41.4088 8.24752 40.7713 7.76938 40.0111 7.4261C39.2755 7.0583 38.4296 6.8744 37.4733 6.8744C36.517 6.8744 35.6588 7.0583 34.8987 7.4261C34.1631 7.76938 33.5379 8.24752 33.0229 8.86052C32.508 9.47352 32.1157 10.1969 31.846 11.0305C31.5763 11.8642 31.4414 12.7469 31.4414 13.6787C31.4414 14.6105 31.5763 15.4932 31.846 16.3269C32.1157 17.1605 32.508 17.8839 33.0229 18.4969C33.5379 19.1099 34.1631 19.6003 34.8987 19.9681C35.6588 20.3114 36.517 20.483 37.4733 20.483ZM53.683 1.46774H59.6045L69.0202 15.1499V1.46774H75.4567V26H69.9029L60.1195 11.9133V26H53.683V1.46774ZM85.9358 7.16864H78.3959V1.46774H99.9858V7.16864H92.5195V26H85.9358V7.16864ZM102.926 1.46774H113.078C114.402 1.46774 115.591 1.63938 116.645 1.98266C117.724 2.32594 118.644 2.84086 119.404 3.52742C120.164 4.18946 120.753 5.02314 121.169 6.02846C121.586 7.03378 121.795 8.19848 121.795 9.52256C121.795 11.1409 121.439 12.5508 120.728 13.7523C120.017 14.9292 119.073 15.8732 117.896 16.5843L123.155 26H116.167L112.011 17.6509H109.289V26H102.926V1.46774ZM112.453 12.5385C113.311 12.5385 114.01 12.2811 114.549 11.7661C115.088 11.2267 115.358 10.5156 115.358 9.6329C115.358 8.70114 115.101 7.96554 114.586 7.4261C114.071 6.88666 113.347 6.61694 112.416 6.61694H109.289V12.5385H112.453ZM137.577 26.5885C135.738 26.5885 134.034 26.2697 132.464 25.6322C130.92 24.9702 129.571 24.0752 128.418 22.9473C127.291 21.7948 126.408 20.434 125.77 18.8647C125.133 17.2709 124.814 15.5422 124.814 13.6787C124.814 11.8152 125.133 10.0988 125.77 8.5295C126.408 6.9357 127.291 5.57484 128.418 4.44692C129.571 3.29448 130.92 2.3995 132.464 1.76198C134.034 1.12446 135.738 0.805699 137.577 0.805699C139.416 0.805699 141.12 1.12446 142.689 1.76198C144.258 2.3995 145.607 3.29448 146.735 4.44692C147.863 5.57484 148.746 6.9357 149.383 8.5295C150.021 10.0988 150.339 11.8152 150.339 13.6787C150.339 15.5422 150.021 17.2709 149.383 18.8647C148.746 20.434 147.863 21.7948 146.735 22.9473C145.607 24.0752 144.258 24.9702 142.689 25.6322C141.12 26.2697 139.416 26.5885 137.577 26.5885ZM137.577 20.483C138.533 20.483 139.379 20.3114 140.115 19.9681C140.875 19.6003 141.512 19.1099 142.027 18.4969C142.542 17.8839 142.934 17.1605 143.204 16.3269C143.474 15.4932 143.609 14.6105 143.609 13.6787C143.609 12.7469 143.474 11.8642 143.204 11.0305C142.934 10.1969 142.542 9.47352 142.027 8.86052C141.512 8.24752 140.875 7.76938 140.115 7.4261C139.379 7.0583 138.533 6.8744 137.577 6.8744C136.62 6.8744 135.762 7.0583 135.002 7.4261C134.266 7.76938 133.641 8.24752 133.126 8.86052C132.611 9.47352 132.219 10.1969 131.949 11.0305C131.68 11.8642 131.545 12.7469 131.545 13.6787C131.545 14.6105 131.68 15.4932 131.949 16.3269C132.219 17.1605 132.611 17.8839 133.126 18.4969C133.641 19.1099 134.266 19.6003 135.002 19.9681C135.762 20.3114 136.62 20.483 137.577 20.483ZM153.786 1.46774H160.296V20.2623H171.661V26H153.786V1.46774ZM192.316 26.5885C190.477 26.5885 188.773 26.2697 187.203 25.6322C185.658 24.9702 184.31 24.0752 183.157 22.9473C182.03 21.7948 181.147 20.434 180.509 18.8647C179.872 17.2709 179.553 15.5422 179.553 13.6787C179.553 11.8152 179.872 10.0988 180.509 8.5295C181.147 6.9357 182.03 5.57484 183.157 4.44692C184.31 3.29448 185.658 2.3995 187.203 1.76198C188.773 1.12446 190.477 0.805699 192.316 0.805699C194.155 0.805699 195.859 1.12446 197.428 1.76198C198.997 2.3995 200.346 3.29448 201.474 4.44692C202.602 5.57484 203.485 6.9357 204.122 8.5295C204.76 10.0988 205.078 11.8152 205.078 13.6787C205.078 15.5422 204.76 17.2709 204.122 18.8647C203.485 20.434 202.602 21.7948 201.474 22.9473C200.346 24.0752 198.997 24.9702 197.428 25.6322C195.859 26.2697 194.155 26.5885 192.316 26.5885ZM192.316 20.483C193.272 20.483 194.118 20.3114 194.853 19.9681C195.614 19.6003 196.251 19.1099 196.766 18.4969C197.281 17.8839 197.673 17.1605 197.943 16.3269C198.213 15.4932 198.348 14.6105 198.348 13.6787C198.348 12.7469 198.213 11.8642 197.943 11.0305C197.673 10.1969 197.281 9.47352 196.766 8.86052C196.251 8.24752 195.614 7.76938 194.853 7.4261C194.118 7.0583 193.272 6.8744 192.316 6.8744C191.359 6.8744 190.501 7.0583 189.741 7.4261C189.005 7.76938 188.38 8.24752 187.865 8.86052C187.35 9.47352 186.958 10.1969 186.688 11.0305C186.419 11.8642 186.284 12.7469 186.284 13.6787C186.284 14.6105 186.419 15.4932 186.688 16.3269C186.958 17.1605 187.35 17.8839 187.865 18.4969C188.38 19.1099 189.005 19.6003 189.741 19.9681C190.501 20.3114 191.359 20.483 192.316 20.483ZM205.214 1.46774H212.312L217.829 18.5337L222.978 1.46774H229.93L220.992 26H214.114L205.214 1.46774ZM232.519 1.46774H250.173V7.09508H239.029V10.8834H248.187V16.1797H239.029V20.3727H250.945V26H232.519V1.46774ZM254.321 1.46774H264.472C265.796 1.46774 266.985 1.63938 268.04 1.98266C269.119 2.32594 270.038 2.84086 270.798 3.52742C271.558 4.18946 272.147 5.02314 272.564 6.02846C272.98 7.03378 273.189 8.19848 273.189 9.52256C273.189 11.1409 272.833 12.5508 272.122 13.7523C271.411 14.9292 270.467 15.8732 269.29 16.5843L274.55 26H267.562L263.405 17.6509H260.684V26H254.321V1.46774ZM263.847 12.5385C264.705 12.5385 265.404 12.2811 265.943 11.7661C266.483 11.2267 266.752 10.5156 266.752 9.6329C266.752 8.70114 266.495 7.96554 265.98 7.4261C265.465 6.88666 264.742 6.61694 263.81 6.61694H260.684V12.5385H263.847ZM283.307 1.46774H289.817V10.4421H298.864V1.46774H305.375V26H298.864V16.4004H289.817V26H283.307V1.46774ZM321.584 26.5885C319.745 26.5885 318.041 26.2697 316.472 25.6322C314.927 24.9702 313.579 24.0752 312.426 22.9473C311.298 21.7948 310.416 20.434 309.778 18.8647C309.141 17.2709 308.822 15.5422 308.822 13.6787C308.822 11.8152 309.141 10.0988 309.778 8.5295C310.416 6.9357 311.298 5.57484 312.426 4.44692C313.579 3.29448 314.927 2.3995 316.472 1.76198C318.041 1.12446 319.745 0.805699 321.584 0.805699C323.423 0.805699 325.128 1.12446 326.697 1.76198C328.266 2.3995 329.615 3.29448 330.743 4.44692C331.871 5.57484 332.753 6.9357 333.391 8.5295C334.028 10.0988 334.347 11.8152 334.347 13.6787C334.347 15.5422 334.028 17.2709 333.391 18.8647C332.753 20.434 331.871 21.7948 330.743 22.9473C329.615 24.0752 328.266 24.9702 326.697 25.6322C325.128 26.2697 323.423 26.5885 321.584 26.5885ZM321.584 20.483C322.541 20.483 323.387 20.3114 324.122 19.9681C324.882 19.6003 325.52 19.1099 326.035 18.4969C326.55 17.8839 326.942 17.1605 327.212 16.3269C327.481 15.4932 327.616 14.6105 327.616 13.6787C327.616 12.7469 327.481 11.8642 327.212 11.0305C326.942 10.1969 326.55 9.47352 326.035 8.86052C325.52 8.24752 324.882 7.76938 324.122 7.4261C323.387 7.0583 322.541 6.8744 321.584 6.8744C320.628 6.8744 319.77 7.0583 319.01 7.4261C318.274 7.76938 317.649 8.24752 317.134 8.86052C316.619 9.47352 316.227 10.1969 315.957 11.0305C315.687 11.8642 315.553 12.7469 315.553 13.6787C315.553 14.6105 315.687 15.4932 315.957 16.3269C316.227 17.1605 316.619 17.8839 317.134 18.4969C317.649 19.1099 318.274 19.6003 319.01 19.9681C319.77 20.3114 320.628 20.483 321.584 20.483ZM335.488 1.46774H342.366L345.529 17.9084L349.391 2.05622H355.313L359.211 17.9084L362.338 1.46774H368.995L362.889 26H356.085L352.223 10.4788L348.361 26H341.446L335.488 1.46774Z" fill="white"/>
</svg>
