<svg width="970" height="250" viewBox="0 0 970 250" fill="none" xmlns="http://www.w3.org/2000/svg">
<g clip-path="url(#clip0_8520_80590)">
<path d="M274.812 66.2031C278.144 66.5255 281.207 66.9558 284.001 67.4932L285.372 67.8154L284.485 76.3594C280.563 75.9295 276.935 75.6075 273.604 75.3926L271.991 88.3691C277.58 90.1424 281.368 92.1045 283.356 94.2539C285.398 96.3496 286.42 99.5468 286.42 103.846C286.42 109.434 284.727 113.679 281.342 116.581C277.956 119.429 273.523 120.853 268.042 120.854H267.961L266.752 130.364C262.776 130.203 260.787 130.015 260.787 129.8L261.916 120.45C257.94 119.967 254.608 119.403 251.921 118.758L250.309 118.435L251.356 110.052C255.602 110.643 259.525 111.046 263.125 111.261L264.898 97.2363C259.364 95.5705 255.441 93.5548 253.13 91.1904C250.819 88.8261 249.664 85.6022 249.664 81.5186C249.664 76.1987 251.276 72.2483 254.5 69.6689C257.724 67.0359 262.158 65.7197 267.8 65.7197H268.848L270.299 54.5967H276.264L274.812 66.2031ZM269.17 111.342C273.522 110.858 275.699 108.601 275.699 104.571C275.699 103.282 275.323 102.234 274.57 101.428C273.872 100.568 272.583 99.762 270.702 99.0098L269.17 111.342ZM267.639 75.2314C262.802 75.4464 260.385 77.3001 260.385 80.793C260.385 82.0825 260.788 83.1305 261.594 83.9365C262.4 84.7425 263.958 85.5759 266.269 86.4355L267.639 75.2314Z" fill="#FFE344"/>
<path d="M416.93 54.5962C430.579 54.5962 440.843 59.0032 447.721 67.8159C454.706 76.6286 458.199 90.8149 458.199 110.375C458.199 129.827 454.76 143.799 447.882 152.29C441.004 160.672 430.686 164.864 416.93 164.864C403.173 164.864 392.856 160.672 385.978 152.29C379.099 143.799 375.66 129.827 375.66 110.375C375.66 90.8147 379.099 76.6286 385.978 67.8159C392.963 59.0032 403.281 54.5962 416.93 54.5962ZM503.913 54.5962C517.562 54.5962 527.826 59.0032 534.704 67.8159C541.69 76.6286 545.183 90.8149 545.183 110.375C545.183 129.827 541.743 143.799 534.865 152.29C527.987 160.672 517.669 164.864 503.913 164.864C490.157 164.864 479.839 160.672 472.961 152.29C466.083 143.799 462.644 129.827 462.644 110.375C462.644 90.8147 466.083 76.6286 472.961 67.8159C479.947 59.0032 490.264 54.5962 503.913 54.5962ZM316.727 126.012H339.618V96.188H361.865V126.012H372.021V145.357H361.865V162.929H339.618V145.357H294.48V128.43L320.757 56.5308H345.261L316.727 126.012ZM416.93 73.9419C410.374 73.9419 405.645 76.6288 402.743 82.0024C399.949 87.3761 398.552 96.6722 398.552 109.891C398.552 123.11 400.003 132.352 402.904 137.619C405.806 142.885 410.535 145.518 417.091 145.518C423.647 145.518 428.322 142.885 431.116 137.619C433.91 132.352 435.308 123.11 435.308 109.891C435.308 96.565 433.91 87.2687 431.116 82.0024C428.322 76.6289 423.593 73.942 416.93 73.9419ZM503.913 73.9419C497.357 73.9419 492.628 76.6288 489.727 82.0024C486.932 87.3761 485.535 96.6722 485.535 109.891C485.535 123.11 486.986 132.352 489.888 137.619C492.789 142.885 497.518 145.518 504.074 145.518C510.63 145.518 515.305 142.885 518.1 137.619C520.894 132.352 522.291 123.11 522.291 109.891C522.291 96.5649 520.894 87.2687 518.1 82.0024C515.305 76.6289 510.576 73.942 503.913 73.9419Z" fill="#FFE344"/>
</g>
<defs>
<clipPath id="clip0_8520_80590">
<rect width="970" height="250" fill="white"/>
</clipPath>
</defs>
</svg>
