<?xml version="1.0" encoding="utf-8"?>
<!-- Generator: Adobe Illustrator 27.7.0, SVG Export Plug-In . SVG Version: 6.00 Build 0)  -->
<svg version="1.1" id="Layer_1" xmlns="http://www.w3.org/2000/svg" xmlns:xlink="http://www.w3.org/1999/xlink" x="0px" y="0px"
	 viewBox="0 0 78 42" style="enable-background:new 0 0 78 42;" xml:space="preserve">
<path d="M2.7,41.6c-1.3,0-2.3-0.9-2.3-2.6v-0.1c0-1.6,1-2.7,2.3-2.7c0.8,0,1.4,0.4,1.6,0.9V34h1.2v7.5H4.4v-0.9
	C4.1,41.1,3.5,41.6,2.7,41.6z M3,40.6c0.8,0,1.4-0.5,1.4-1.7v-0.1c0-1.1-0.5-1.7-1.4-1.7c-0.9,0-1.4,0.6-1.4,1.7V39
	C1.7,40.1,2.2,40.6,3,40.6z M9,41.6c-1.5,0-2.6-1-2.6-2.6v-0.1c0-1.6,1.1-2.6,2.5-2.6c1.3,0,2.4,0.8,2.4,2.6v0.3H7.7
	c0,1,0.5,1.5,1.4,1.5c0.7,0,1.1-0.3,1.2-0.8h1.1C11.2,41,10.4,41.6,9,41.6z M7.7,38.4h2.6c-0.1-0.9-0.5-1.3-1.2-1.3
	C8.3,37.1,7.8,37.6,7.7,38.4z M16.2,41.6c-1,0-1.5-0.5-1.5-1.5v-2.8h-0.7v-0.9h0.7v-1.1h1.2v1.1h1.1v0.9h-1.1v2.7
	c0,0.5,0.2,0.7,0.6,0.7c0.2,0,0.4,0,0.6-0.1v0.9C16.8,41.5,16.5,41.6,16.2,41.6z M20.1,40.7c0.9,0,1.4-0.7,1.4-1.7v-0.1
	c0-1.1-0.5-1.7-1.4-1.7s-1.4,0.6-1.4,1.7V39C18.7,40,19.2,40.7,20.1,40.7z M20.1,41.6c-1.5,0-2.6-1-2.6-2.6v-0.1
	c0-1.6,1.1-2.6,2.6-2.6c1.5,0,2.6,1,2.6,2.6v0.1C22.8,40.5,21.6,41.6,20.1,41.6z M25.6,41.6c-1.3,0-2.3-0.9-2.3-2.6v-0.1
	c0-1.6,1-2.7,2.3-2.7c0.8,0,1.4,0.4,1.6,0.9V34h1.2v7.5h-1.2v-0.9C27,41.1,26.3,41.6,25.6,41.6z M25.9,40.6c0.8,0,1.4-0.5,1.4-1.7
	v-0.1c0-1.1-0.5-1.7-1.4-1.7c-0.9,0-1.4,0.6-1.4,1.7V39C24.5,40.1,25.1,40.6,25.9,40.6z M31.9,40.7c0.9,0,1.4-0.7,1.4-1.7v-0.1
	c0-1.1-0.5-1.7-1.4-1.7c-0.9,0-1.4,0.6-1.4,1.7V39C30.5,40,31,40.7,31.9,40.7z M31.9,41.6c-1.5,0-2.6-1-2.6-2.6v-0.1
	c0-1.6,1.1-2.6,2.6-2.6c1.5,0,2.6,1,2.6,2.6v0.1C34.6,40.5,33.4,41.6,31.9,41.6z M37.2,41.6c-1.3,0-2.1-0.6-2.1-1.7h1.1
	c0.1,0.5,0.3,0.8,1,0.8c0.6,0,0.9-0.2,0.9-0.7c0-0.4-0.3-0.6-1.1-0.7c-1.4-0.2-1.9-0.6-1.9-1.6c0-1,1-1.5,1.9-1.5c1,0,1.9,0.4,2,1.5
	H38c-0.1-0.5-0.4-0.7-0.9-0.7c-0.5,0-0.8,0.2-0.8,0.6c0,0.4,0.2,0.5,1.1,0.7c1.2,0.2,1.9,0.5,1.9,1.6C39.2,41,38.5,41.6,37.2,41.6z
	 M42.2,41.5v-5.1h1.2v0.8c0.2-0.5,0.8-0.9,1.7-0.9c1,0,1.8,0.6,1.8,2v3.2h-1.2v-3.1c0-0.8-0.3-1.1-1-1.1c-0.7,0-1.2,0.4-1.2,1.2v3
	H42.2z M49.8,35.6l0.6-1.5h1.3l-1,1.5H49.8z M50.3,40.7c0.9,0,1.4-0.7,1.4-1.7v-0.1c0-1.1-0.5-1.7-1.4-1.7s-1.4,0.6-1.4,1.7V39
	C48.9,40,49.4,40.7,50.3,40.7z M50.3,41.6c-1.5,0-2.6-1-2.6-2.6v-0.1c0-1.6,1.1-2.6,2.6-2.6c1.5,0,2.6,1,2.6,2.6v0.1
	C52.9,40.5,51.8,41.6,50.3,41.6z M55.6,41.6c-1.3,0-2.1-0.6-2.1-1.7h1.1c0.1,0.5,0.3,0.8,1,0.8c0.6,0,0.9-0.2,0.9-0.7
	c0-0.4-0.3-0.6-1.1-0.7c-1.4-0.2-1.9-0.6-1.9-1.6c0-1,1-1.5,1.9-1.5c1,0,1.9,0.4,2,1.5h-1.1c-0.1-0.5-0.4-0.7-0.9-0.7
	c-0.5,0-0.8,0.2-0.8,0.6c0,0.4,0.2,0.5,1.1,0.7c1.2,0.2,1.9,0.5,1.9,1.6C57.6,41,56.9,41.6,55.6,41.6z M59.2,41.6
	c-0.4,0-0.8-0.3-0.8-0.8s0.3-0.8,0.8-0.8c0.4,0,0.8,0.3,0.8,0.8S59.6,41.6,59.2,41.6z"/>
</svg>
