<?xml version="1.0" encoding="UTF-8"?>
<svg id="Layer_1" xmlns="http://www.w3.org/2000/svg" version="1.1" viewBox="0 0 208 90">
  <!-- Generator: Adobe Illustrator 29.8.1, SVG Export Plug-In . SVG Version: 2.1.1 Build 2)  -->
  <defs>
    <style>
      .st0 {
        fill: #dd5900;
      }
    </style>
  </defs>
  <path class="st0" d="M11.3,20.2c4,0,6.6-3.1,6.6-7.7v-.2c0-4.4-2.5-7.7-6.7-7.7s-6.7,3.1-6.7,7.7v.2c0,4.7,2.8,7.7,6.8,7.7ZM11.2,23.4C4.7,23.4.4,18.7.4,12.5v-.2C.4,6,4.9,1.3,11.2,1.3s10.8,4.5,10.8,10.8v.2c0,6.3-4.3,11-10.8,11ZM32.2,23.1v-13h-2.1v-2.7h2.1v-2.1C32.2,1.9,34.1,0,37.4,0s1.4,0,2.1.3v2.8c-.4-.2-1-.3-1.6-.3-1.5,0-2.1,1-2.1,2.3v2.2h3.6v2.7h-3.6v13h-3.6ZM47,23.4c-3.1,0-5.4-1.8-5.4-5.9V7.4h3.6v9.6c0,2.4,1,3.4,3.1,3.4s3.7-1.3,3.7-3.8V7.4h3.6v15.7h-3.6v-2.5c-.8,1.5-2.4,2.8-5,2.8ZM64.7,23.4c-3.1,0-4.7-1.7-4.7-4.6v-8.6h-2.1v-2.7h2.1v-3.4h3.6v3.4h3.4v2.7h-3.4v8.3c0,1.4.7,2,1.8,2s1.3,0,1.8-.3v2.9c-.6.2-1.3.4-2.5.4ZM75.1,23.4c-3.1,0-5.4-1.8-5.4-5.9V7.4h3.6v9.6c0,2.4,1,3.4,3.1,3.4s3.7-1.3,3.7-3.8V7.4h3.6v15.7h-3.6v-2.5c-.8,1.5-2.4,2.8-5,2.8ZM87.4,23.1V7.4h3.6v2.9c1-2,2.5-3.1,5.1-3.2v3.4c-3.2,0-5.1,1.1-5.1,4.4v8.2h-3.6ZM105.4,20.6c2.7,0,4.3-2,4.3-5.2v-.2c0-3.2-1.6-5.2-4.3-5.2s-4.3,1.9-4.3,5.2v.2c0,3.2,1.6,5.2,4.3,5.2ZM105.4,23.4c-4.6,0-8-3.2-8-8v-.2c0-4.9,3.5-8.1,8.1-8.1s8,3.2,8,8v.2c0,4.9-3.4,8.1-8.1,8.1ZM120.6,28.7v-2.8c1.6-.1,2.2-.9,2.2-2.2V7.4h3.6v16.2c0,3.2-1.4,5-5.8,5.1ZM124.6,4.8c-1.2,0-2.2-.9-2.2-2.1s1-2.1,2.2-2.1,2.2.9,2.2,2.1-1,2.1-2.2,2.1ZM134.4,23.4c-2.9,0-5.2-1.4-5.2-4.6s3.5-5,8-5h1.9v-.8c0-2.1-.7-3.1-2.9-3.1s-2.8.9-3,2.5h-3.5c.3-3.7,3.2-5.2,6.7-5.2s6.3,1.4,6.3,5.7v10.3h-3.6v-1.9c-1,1.4-2.4,2.2-4.8,2.2ZM135.2,20.8c2.2,0,3.9-1.2,3.9-3.2v-1.6h-1.9c-2.8,0-4.5.6-4.5,2.5s.7,2.2,2.5,2.2ZM135,5.1l1.8-4.7h4l-3.1,4.7h-2.7ZM159.7,23.4c-4.6,0-7.9-3-7.9-8v-.2c0-4.9,3.3-8.1,7.8-8.1s7.4,2.3,7.4,7.9v1.1h-11.5c.1,3,1.6,4.6,4.3,4.6s3.3-.9,3.6-2.4h3.5c-.5,3.3-3.2,5.1-7.2,5.1ZM155.6,13.6h7.8c-.2-2.7-1.6-3.9-3.8-3.9s-3.7,1.5-4,3.9ZM175.2,23.4c-4.1,0-6.4-1.9-6.6-5.2h3.4c.2,1.6,1,2.5,3.1,2.5s2.8-.7,2.8-2-1-1.8-3.4-2.2c-4.1-.7-5.7-1.8-5.7-4.8s2.9-4.7,5.9-4.7,5.8,1.2,6.1,4.7h-3.4c-.3-1.4-1.1-2.1-2.8-2.1s-2.5.7-2.5,1.9.8,1.6,3.2,2c3.7.6,5.9,1.5,5.9,4.8s-2.2,5-6.3,5ZM189.4,23.4c-3.1,0-4.7-1.7-4.7-4.6v-8.6h-2.1v-2.7h2.1v-3.4h3.6v3.4h3.4v2.7h-3.4v8.3c0,1.4.7,2,1.8,2s1.3,0,1.8-.3v2.9c-.6.2-1.4.4-2.5.4ZM198.8,23.4c-2.9,0-5.2-1.4-5.2-4.6s3.5-5,8-5h2v-.8c0-2.1-.7-3.1-2.9-3.1s-2.8.9-3,2.5h-3.5c.3-3.7,3.2-5.2,6.7-5.2s6.3,1.4,6.3,5.7v10.3h-3.6v-1.9c-1,1.4-2.4,2.2-4.8,2.2ZM199.6,20.8c2.2,0,3.9-1.2,3.9-3.2v-1.6h-1.9c-2.8,0-4.5.6-4.5,2.5s.7,2.2,2.5,2.2ZM199.4,5.1l1.8-4.7h4l-3.1,4.7h-2.7Z"/>
</svg>