<?xml version="1.0" encoding="UTF-8"?>
<svg id="Layer_1" xmlns="http://www.w3.org/2000/svg" version="1.1" viewBox="0 0 208 90">
  <!-- Generator: Adobe Illustrator 29.8.1, SVG Export Plug-In . SVG Version: 2.1.1 Build 2)  -->
  <defs>
    <style>
      .st0 {
        fill: #dd5900;
      }
    </style>
  </defs>
  <path class="st0" d="M1.1,89.1v-15.7h3.6v2.5c.8-1.5,2.5-2.8,5.1-2.8s5.4,1.8,5.4,6.2v9.9h-3.6v-9.5c0-2.4-1-3.5-3.1-3.5s-3.7,1.3-3.7,3.8v9.2H1.1ZM22.9,89.4c-2.9,0-5.2-1.4-5.2-4.6s3.5-5,8-5h2v-.8c0-2.1-.7-3.2-2.9-3.2s-2.8.9-3,2.5h-3.5c.3-3.7,3.2-5.2,6.7-5.2s6.3,1.4,6.3,5.7v10.3h-3.6v-1.9c-1,1.3-2.4,2.2-4.8,2.2ZM23.8,86.8c2.2,0,3.9-1.2,3.9-3.2v-1.6h-1.9c-2.8,0-4.5.6-4.5,2.6s.7,2.2,2.5,2.2ZM41.7,89.1v-21.5h7.7c4.4,0,7,1.7,7,5.6h0c0,2.2-1,3.9-3.4,4.7,2.9.6,4.3,2.2,4.3,5.1h0c0,4.1-2.6,6.1-7.4,6.1h-8.2ZM45.6,86.2h3.9c2.7,0,3.9-1.2,3.9-3.4h0c0-2.3-1.2-3.4-4.2-3.4h-3.6v6.9ZM45.6,76.7h3.3c2.6,0,3.7-1,3.7-3.2h0c0-2.2-1.2-3-3.7-3h-3.2v6.2ZM60.4,89.1v-21.5h4v9.1h9.6v-9.1h4v21.5h-4v-9.1h-9.6v9.1h-4ZM82.3,89.1v-21.5h6.9c4.8,0,8,2.1,8,6.6h0c0,4.7-3.3,6.7-7.9,6.7h-3v8.2h-4ZM86.3,78.1h2.9c2.6,0,4.1-1.3,4.1-3.7h0c0-2.7-1.5-3.7-4.1-3.7h-2.9v7.3ZM98.6,89.3c-1.3,0-2.4-1-2.4-2.3s1.1-2.4,2.4-2.4,2.4,1,2.4,2.4-1,2.3-2.4,2.3Z"/>
</svg>