<?xml version="1.0" encoding="utf-8"?>
<!-- Generator: Adobe Illustrator 27.7.0, SVG Export Plug-In . SVG Version: 6.00 Build 0)  -->
<svg version="1.1" id="Layer_1" xmlns="http://www.w3.org/2000/svg" xmlns:xlink="http://www.w3.org/1999/xlink" x="0px" y="0px"
	 viewBox="0 0 302.7 16.8" style="enable-background:new 0 0 302.7 16.8;" xml:space="preserve">
<style type="text/css">
	.st0{fill:#FFFFFF;}
</style>
<path class="st0" d="M8.8,10.6V7.3h6.6v7.2c-1,0.8-2.1,1.4-3.3,1.8c-1.2,0.4-2.5,0.5-3.7,0.5c-1.7,0-3.2-0.3-4.5-1
	c-1.2-0.7-2.2-1.7-2.9-2.9c-0.7-1.3-1-2.8-1-4.5c0-1.6,0.4-3.1,1.1-4.3s1.7-2.3,2.9-3C5.2,0.4,6.7,0,8.3,0c1.3,0,2.6,0.2,3.7,0.7
	c1.2,0.4,2.1,1.2,2.9,2.2l-2.8,2.8c-0.5-0.5-1-0.9-1.6-1.2c-0.6-0.3-1.2-0.5-2-0.5C7.7,3.9,7,4.1,6.3,4.6C5.7,5,5.2,5.5,4.8,6.2
	C4.5,6.9,4.4,7.6,4.4,8.5c0,1.4,0.4,2.5,1.2,3.3C6.3,12.6,7.4,13,8.7,13c0.5,0,1-0.1,1.5-0.2c0.5-0.1,0.9-0.4,1.4-0.7v-1.5H8.8z
	 M17.7,16.4v-16h11.5v3.7H22v2.5h6V10h-6v2.7h7.8v3.7H17.7z M35.7,16.4V4.2h-4.9V0.4h14.1v3.7H40v12.3H35.7z M50.6,16.4v-16h11.5
	v3.7h-7.3v2.5h6V10h-6v2.7h7.8v3.7H50.6z M63.3,16.4l5.4-8.2l-5.4-7.8h5.2l2.7,4.2l2.6-4.2h4.7l-5,7.4l6,8.6h-5.3l-3.2-4.9L68,16.4
	H63.3z M80.9,16.4v-16h6.5c1.7,0,3.1,0.5,4.1,1.4c1,0.9,1.6,2.2,1.6,3.9c0,1.1-0.2,2-0.7,2.9c-0.5,0.8-1.1,1.4-2,1.9
	c-0.8,0.4-1.8,0.6-2.9,0.6h-2.5v5.3H80.9z M85.1,7.8h2c0.6,0,1-0.2,1.4-0.6C88.8,6.9,89,6.4,89,5.8c0-0.6-0.2-1.1-0.5-1.5
	s-0.8-0.6-1.4-0.6h-2V7.8z M95,16.4v-16h11.5v3.7h-7.3v2.5h6V10h-6v2.7h7.8v3.7H95z M109,16.4v-16h6.6c1.7,0,3.1,0.4,4.1,1.3
	c1,0.9,1.6,2.2,1.6,3.9c0,1-0.2,2-0.7,2.7c-0.5,0.8-1.1,1.4-1.8,1.9l3.4,6.1h-4.6l-2.7-5.4h-1.8v5.4H109z M113.1,7.7h2.1
	c0.6,0,1-0.2,1.4-0.5c0.4-0.4,0.5-0.8,0.5-1.4c0-0.6-0.2-1.1-0.5-1.4c-0.3-0.4-0.8-0.5-1.4-0.5h-2V7.7z M127.3,16.4V4.2h-4.9V0.4
	h14.1v3.7h-4.9v12.3H127.3z M140.9,14.5l2.6-3.1c0.4,0.4,1,0.9,1.8,1.2c0.7,0.4,1.5,0.6,2.4,0.6c0.4,0,0.8-0.1,1.2-0.3
	c0.4-0.2,0.6-0.5,0.6-1c0-0.4-0.2-0.8-0.6-1c-0.4-0.3-1-0.6-1.8-0.8l-0.9-0.3c-0.7-0.2-1.3-0.5-2-0.9c-0.6-0.4-1.2-0.9-1.6-1.5
	c-0.4-0.6-0.6-1.3-0.6-2.2c0-1,0.2-1.9,0.7-2.7c0.5-0.8,1.2-1.4,2.1-1.8c0.9-0.5,2.1-0.7,3.4-0.7c1.1,0,2,0.1,2.7,0.4
	c0.8,0.2,1.4,0.5,1.9,0.8c0.5,0.3,0.9,0.6,1.1,0.9l-2.2,2.7c-0.6-0.4-1.1-0.8-1.8-1c-0.6-0.3-1.2-0.4-1.9-0.4
	c-0.4,0-0.8,0.1-1.2,0.3c-0.4,0.2-0.6,0.5-0.6,0.9c0,0.5,0.2,0.9,0.7,1.1s1,0.4,1.7,0.7l0.8,0.2c0.5,0.2,1.1,0.4,1.6,0.6
	c0.6,0.2,1.1,0.6,1.5,0.9c0.5,0.4,0.8,0.9,1.1,1.5c0.3,0.6,0.4,1.3,0.4,2.1c0,1-0.3,1.8-0.9,2.6c-0.6,0.8-1.4,1.4-2.4,1.8
	c-1,0.4-2.1,0.6-3.3,0.6c-1.6,0-2.9-0.2-4-0.6C142.6,15.7,141.7,15.2,140.9,14.5z M156.1,10.2V0.4h4.2v9.4c0,0.9,0.2,1.6,0.6,2.2
	c0.4,0.6,1.1,0.8,2,0.8s1.6-0.3,2-0.8c0.4-0.6,0.6-1.3,0.6-2.2V0.4h4.3v9.8c0,1.4-0.3,2.5-0.9,3.6c-0.6,1-1.4,1.8-2.4,2.3
	c-1,0.5-2.2,0.8-3.6,0.8c-1.3,0-2.5-0.3-3.6-0.8c-1-0.5-1.9-1.3-2.4-2.3C156.4,12.8,156.1,11.6,156.1,10.2z M172.4,16.4v-16h6.5
	c1.7,0,3.1,0.5,4.1,1.4c1,0.9,1.6,2.2,1.6,3.9c0,1.1-0.2,2-0.7,2.9c-0.5,0.8-1.1,1.4-2,1.9c-0.8,0.4-1.8,0.6-2.9,0.6h-2.5v5.3H172.4
	z M176.5,7.8h2c0.6,0,1-0.2,1.4-0.6c0.3-0.4,0.5-0.8,0.5-1.4c0-0.6-0.2-1.1-0.5-1.5c-0.3-0.4-0.8-0.6-1.4-0.6h-2V7.8z M186.5,16.4
	v-16H198v3.7h-7.3v2.5h6V10h-6v2.7h7.8v3.7H186.5z M200.5,16.4v-16h6.6c1.7,0,3.1,0.4,4.1,1.3c1,0.9,1.6,2.2,1.6,3.9
	c0,1-0.2,2-0.7,2.7c-0.5,0.8-1.1,1.4-1.8,1.9l3.4,6.1h-4.6l-2.7-5.4h-1.8v5.4H200.5z M204.6,7.7h2.1c0.6,0,1-0.2,1.4-0.5
	c0.4-0.4,0.5-0.8,0.5-1.4c0-0.6-0.2-1.1-0.5-1.4c-0.3-0.4-0.8-0.5-1.4-0.5h-2V7.7z M218,16.4l5.9-16h4.9l5.7,16h-4.6l-1-3.3h-5.4
	l-1.1,3.3H218z M224.4,10h3.6l-1.8-5.9L224.4,10z M235.8,16.4v-16h6.1c1.6,0,3.1,0.3,4.4,0.9c1.3,0.6,2.3,1.4,3.1,2.6
	c0.8,1.2,1.1,2.7,1.1,4.6c0,1.8-0.4,3.2-1.1,4.4c-0.8,1.2-1.8,2-3.1,2.6c-1.3,0.6-2.8,0.9-4.4,0.9H235.8z M240,12.7h1.7
	c1.4,0,2.4-0.4,3.2-1.2c0.8-0.8,1.2-1.8,1.2-3.1c0-1.3-0.4-2.3-1.1-3.1c-0.7-0.8-1.8-1.2-3.3-1.2H240V12.7z M256,16.4l-5.8-16h4.6
	l3.6,11.1l3.4-11.1h4.5l-5.8,16H256z M267.6,16.4v-16h4.2v16H267.6z M286.5,10.8l2.9,2.7c-1.8,2.3-4.2,3.4-7.1,3.4
	c-1.6,0-3.1-0.4-4.3-1.1c-1.2-0.7-2.2-1.7-2.9-3c-0.7-1.3-1.1-2.7-1.1-4.3s0.4-3.1,1.1-4.3c0.7-1.3,1.7-2.3,2.9-3
	c1.2-0.7,2.7-1.1,4.3-1.1c1.4,0,2.7,0.2,3.8,0.7c1.2,0.5,2.2,1.3,3,2.4L286.3,6c-0.4-0.6-1-1.1-1.6-1.5s-1.3-0.6-2.1-0.6
	c-0.9,0-1.7,0.2-2.3,0.6c-0.6,0.4-1.1,0.9-1.4,1.6c-0.3,0.7-0.5,1.4-0.5,2.2c0,0.8,0.2,1.6,0.5,2.3c0.4,0.7,0.8,1.2,1.5,1.6
	c0.6,0.4,1.4,0.6,2.2,0.6c0.9,0,1.7-0.2,2.3-0.5C285.4,12,285.9,11.5,286.5,10.8z M290.7,16.4v-16h11.5v3.7h-7.3v2.5h6V10h-6v2.7
	h7.8v3.7H290.7z"/>
</svg>
