<?xml version="1.0" encoding="utf-8"?>
<!-- Generator: Adobe Illustrator 27.7.0, SVG Export Plug-In . SVG Version: 6.00 Build 0)  -->
<svg version="1.1" id="Layer_1" xmlns="http://www.w3.org/2000/svg" xmlns:xlink="http://www.w3.org/1999/xlink" x="0px" y="0px"
	 viewBox="0 0 263.8 19.7" style="enable-background:new 0 0 263.8 19.7;" xml:space="preserve">
<style type="text/css">
	.st0{fill:#FFD000;}
</style>
<path class="st0" d="M0,19.2V0.5h13v4.3H5v3.6h6.2v4.1H5v6.6H0z M15,19.2V0.5h5v18.7H15z M23,19.2V0.5h4.5l7.2,10.4V0.5h4.9v18.7
	h-4.2L27.9,8.5v10.7H23z M41.1,19.2L48,0.5h5.7l6.6,18.7h-5.3l-1.2-3.9h-6.2l-1.2,3.9H41.1z M48.5,11.7h4.2l-2.1-6.9L48.5,11.7z
	 M61.8,19.2V0.5h4.5l7.2,10.4V0.5h4.9v18.7h-4.2L66.7,8.5v10.7H61.8z M95.4,12.6l3.3,3.1c-2.1,2.6-4.9,3.9-8.3,3.9
	c-1.9,0-3.6-0.4-5.1-1.3c-1.5-0.8-2.6-2-3.4-3.4c-0.8-1.5-1.2-3.2-1.2-5.1c0-1.9,0.4-3.6,1.2-5.1c0.8-1.5,2-2.7,3.4-3.5
	S88.5,0,90.4,0c1.6,0,3.1,0.3,4.5,0.8c1.4,0.5,2.6,1.5,3.5,2.8L95.1,7c-0.5-0.7-1.1-1.3-1.9-1.7c-0.7-0.4-1.6-0.6-2.5-0.6
	c-1,0-1.9,0.2-2.7,0.7c-0.7,0.4-1.3,1.1-1.7,1.8c-0.4,0.8-0.6,1.6-0.6,2.6c0,1,0.2,1.9,0.6,2.7c0.4,0.8,1,1.4,1.7,1.8
	c0.7,0.4,1.6,0.7,2.6,0.7c1.1,0,2-0.2,2.7-0.6C94.1,14,94.7,13.4,95.4,12.6z M100.3,19.2V0.5h5v18.7H100.3z M106.7,19.2l6.9-18.7
	h5.7l6.6,18.7h-5.3l-1.2-3.9h-6.2l-1.2,3.9H106.7z M114.1,11.7h4.2l-2.1-6.9L114.1,11.7z M127.4,19.2V0.5h5v14.3h8.7v4.4H127.4z
	 M147.8,19.2V0.5h13v4.3h-8.1v3.6h6.2v4.1h-6.2v6.6H147.8z M162.6,11.9V0.5h5v10.9c0,1,0.2,1.9,0.7,2.5c0.5,0.7,1.3,1,2.4,1
	c1.1,0,1.9-0.3,2.4-1c0.5-0.7,0.7-1.5,0.7-2.5V0.5h5v11.4c0,1.6-0.3,3-1,4.1c-0.7,1.2-1.6,2.1-2.9,2.7c-1.2,0.6-2.6,0.9-4.1,0.9
	c-1.6,0-3-0.3-4.2-0.9c-1.2-0.6-2.2-1.5-2.9-2.7C163,14.9,162.6,13.5,162.6,11.9z M186.3,19.2V4.9h-5.7V0.5H197v4.3h-5.7v14.3H186.3
	z M198.8,11.9V0.5h5v10.9c0,1,0.2,1.9,0.7,2.5c0.5,0.7,1.3,1,2.4,1s1.9-0.3,2.4-1c0.5-0.7,0.7-1.5,0.7-2.5V0.5h5v11.4
	c0,1.6-0.3,3-1,4.1c-0.7,1.2-1.6,2.1-2.9,2.7c-1.2,0.6-2.6,0.9-4.1,0.9s-3-0.3-4.2-0.9c-1.2-0.6-2.2-1.5-2.9-2.7
	C199.2,14.9,198.8,13.5,198.8,11.9z M217.9,19.2V0.5h7.7c2,0,3.6,0.5,4.8,1.6c1.2,1,1.8,2.5,1.8,4.6c0,1.2-0.3,2.3-0.8,3.2
	c-0.5,0.9-1.3,1.6-2.2,2.2l4,7.2H228l-3.2-6.4h-2.1v6.4H217.9z M222.7,9h2.4c0.7,0,1.2-0.2,1.6-0.6c0.4-0.4,0.6-1,0.6-1.6
	c0-0.7-0.2-1.3-0.6-1.7s-0.9-0.6-1.7-0.6h-2.4V9z M235.2,19.2V0.5h13.4v4.3h-8.5v2.9h7v4h-7v3.2h9.1v4.3H235.2z M254.9,12.9v-0.1
	c0-0.9,0.1-1.6,0.3-2.2c0.2-0.6,0.5-1.1,0.8-1.4c0.3-0.4,0.7-0.7,1-1c0.5-0.4,0.9-0.7,1.3-1c0.4-0.3,0.6-0.7,0.6-1.3
	c0-0.4-0.1-0.7-0.4-0.9c-0.2-0.2-0.5-0.4-0.8-0.4c-0.3-0.1-0.6-0.1-1-0.1c-0.7,0-1.3,0.2-1.9,0.5c-0.6,0.3-1.2,0.7-1.7,1.2l-2.7-3.2
	c0.8-0.9,1.8-1.5,2.9-2c1.1-0.5,2.4-0.8,3.9-0.8c1.1,0,2.2,0.2,3.1,0.6c1,0.4,1.8,1,2.4,1.8c0.6,0.8,0.9,1.9,0.9,3.2
	c0,1.1-0.2,1.9-0.7,2.5c-0.4,0.6-0.9,1.1-1.5,1.5c-0.4,0.3-0.7,0.6-1.1,0.9c-0.4,0.3-0.7,0.6-0.9,1c-0.2,0.4-0.3,0.8-0.3,1.3v0.1
	H254.9z M254.7,19.2v-4.8h4.8v4.8H254.7z"/>
</svg>
