<?xml version="1.0" encoding="utf-8"?>
<!-- Generator: Adobe Illustrator 27.7.0, SVG Export Plug-In . SVG Version: 6.00 Build 0)  -->
<svg version="1.1" id="Layer_1" xmlns="http://www.w3.org/2000/svg" xmlns:xlink="http://www.w3.org/1999/xlink" x="0px" y="0px"
	 viewBox="0 0 290.4 16.8" style="enable-background:new 0 0 290.4 16.8;" xml:space="preserve">
<style type="text/css">
	.st0{fill:#FFD000;}
</style>
<path class="st0" d="M4.9,16.4V4.2H0V0.4h14.1v3.7H9.2v12.3H4.9z M15.8,16.4v-16H20v5.9h5.9V0.4h4.2v16h-4.2v-6.3H20v6.3H15.8z
	 M32.8,16.4v-16h11.5v3.7H37v2.5h6V10h-6v2.7h7.8v3.7H32.8z M50.9,16.4v-16h6.6c1.7,0,3.1,0.4,4.1,1.3c1,0.9,1.6,2.2,1.6,3.9
	c0,1-0.2,2-0.7,2.7c-0.5,0.8-1.1,1.4-1.8,1.9l3.4,6.1h-4.6L56.8,11H55v5.4H50.9z M55,7.7h2.1c0.6,0,1-0.2,1.4-0.5
	C58.8,6.8,59,6.3,59,5.8c0-0.6-0.2-1.1-0.5-1.4c-0.3-0.4-0.8-0.5-1.4-0.5h-2V7.7z M65.7,16.4v-16H70v16H65.7z M80.8,10.6V7.3h6.6
	v7.2c-1,0.8-2.1,1.4-3.3,1.8c-1.2,0.4-2.5,0.5-3.7,0.5c-1.7,0-3.2-0.3-4.5-1s-2.2-1.7-2.9-2.9c-0.7-1.3-1-2.8-1-4.5
	c0-1.6,0.4-3.1,1.1-4.3s1.7-2.3,2.9-3C77.2,0.4,78.7,0,80.3,0c1.3,0,2.6,0.2,3.7,0.7c1.2,0.4,2.1,1.2,2.9,2.2l-2.8,2.8
	c-0.5-0.5-1-0.9-1.6-1.2c-0.6-0.3-1.2-0.5-2-0.5c-0.9,0-1.7,0.2-2.3,0.6c-0.6,0.4-1.1,0.9-1.5,1.6c-0.3,0.7-0.5,1.4-0.5,2.3
	c0,1.4,0.4,2.5,1.2,3.3c0.8,0.8,1.8,1.2,3.1,1.2c0.5,0,1-0.1,1.5-0.2c0.5-0.1,0.9-0.4,1.4-0.7v-1.5H80.8z M89.7,16.4v-16h4.2v5.9
	h5.9V0.4h4.2v16h-4.2v-6.3h-5.9v6.3H89.7z M110.7,16.4V4.2h-4.9V0.4h14.1v3.7H115v12.3H110.7z M124.3,16.4l5.9-16h4.9l5.7,16h-4.6
	l-1-3.3h-5.4l-1.1,3.3H124.3z M130.6,10h3.6l-1.8-5.9L130.6,10z M142,16.4v-16h6.1c1.6,0,3.1,0.3,4.4,0.9c1.3,0.6,2.3,1.4,3.1,2.6
	c0.8,1.2,1.1,2.7,1.1,4.6c0,1.8-0.4,3.2-1.1,4.4c-0.8,1.2-1.8,2-3.1,2.6c-1.3,0.6-2.8,0.9-4.4,0.9H142z M146.3,12.7h1.7
	c1.4,0,2.4-0.4,3.2-1.2c0.8-0.8,1.2-1.8,1.2-3.1c0-1.3-0.4-2.3-1.1-3.1c-0.7-0.8-1.8-1.2-3.3-1.2h-1.7V12.7z M162.3,16.4l-5.8-16
	h4.6l3.6,11.1l3.4-11.1h4.5l-5.8,16H162.3z M173.9,16.4v-16h4.2v16H173.9z M192.7,10.8l2.9,2.7c-1.8,2.3-4.2,3.4-7.1,3.4
	c-1.6,0-3.1-0.4-4.3-1.1c-1.2-0.7-2.2-1.7-2.9-3c-0.7-1.3-1.1-2.7-1.1-4.3c0-1.6,0.4-3.1,1.1-4.3c0.7-1.3,1.7-2.3,2.9-3
	s2.7-1.1,4.3-1.1c1.4,0,2.7,0.2,3.8,0.7c1.2,0.5,2.2,1.3,3,2.4L192.5,6c-0.4-0.6-1-1.1-1.6-1.5c-0.6-0.4-1.3-0.6-2.1-0.6
	c-0.9,0-1.7,0.2-2.3,0.6c-0.6,0.4-1.1,0.9-1.4,1.6c-0.3,0.7-0.5,1.4-0.5,2.2c0,0.8,0.2,1.6,0.5,2.3c0.4,0.7,0.8,1.2,1.5,1.6
	s1.4,0.6,2.2,0.6c0.9,0,1.7-0.2,2.3-0.5C191.6,12,192.2,11.5,192.7,10.8z M196.9,16.4v-16h11.5v3.7h-7.3v2.5h6V10h-6v2.7h7.8v3.7
	H196.9z M218.9,16.4V4.2H214V0.4h14.1v3.7h-4.9v12.3H218.9z M236.8,16.8c-1.2,0-2.3-0.2-3.3-0.6c-1-0.4-1.9-1-2.6-1.8
	c-0.7-0.8-1.3-1.7-1.7-2.7c-0.4-1-0.6-2.1-0.6-3.4s0.2-2.3,0.6-3.4s1-1.9,1.7-2.7c0.8-0.8,1.6-1.3,2.6-1.8c1-0.4,2.1-0.6,3.3-0.6
	s2.3,0.2,3.3,0.6c1,0.4,1.9,1,2.7,1.8c0.8,0.8,1.3,1.6,1.7,2.7c0.4,1,0.6,2.1,0.6,3.4s-0.2,2.3-0.6,3.4c-0.4,1-1,1.9-1.7,2.7
	c-0.8,0.8-1.6,1.3-2.7,1.8C239.1,16.6,238,16.8,236.8,16.8z M236.8,12.8c0.8,0,1.6-0.2,2.1-0.6c0.6-0.4,1-0.9,1.3-1.6
	c0.3-0.7,0.5-1.4,0.5-2.2s-0.2-1.6-0.5-2.2c-0.3-0.7-0.8-1.2-1.3-1.6c-0.6-0.4-1.3-0.6-2.1-0.6c-0.8,0-1.5,0.2-2.1,0.6
	c-0.6,0.4-1,0.9-1.3,1.6c-0.3,0.7-0.5,1.4-0.5,2.2s0.2,1.6,0.5,2.2c0.3,0.7,0.8,1.2,1.3,1.6C235.2,12.6,235.9,12.8,236.8,12.8z
	 M247.1,16.4v-16h6.1c1.6,0,3.1,0.3,4.4,0.9c1.3,0.6,2.3,1.4,3.1,2.6c0.8,1.2,1.1,2.7,1.1,4.6c0,1.8-0.4,3.2-1.1,4.4
	c-0.8,1.2-1.8,2-3.1,2.6c-1.3,0.6-2.8,0.9-4.4,0.9H247.1z M251.4,12.7h1.7c1.4,0,2.4-0.4,3.2-1.2c0.8-0.8,1.2-1.8,1.2-3.1
	c0-1.3-0.4-2.3-1.1-3.1c-0.7-0.8-1.8-1.2-3.3-1.2h-1.7V12.7z M261.6,16.4l5.9-16h4.9l5.7,16h-4.6l-1-3.3H267l-1.1,3.3H261.6z
	 M267.9,10h3.6l-1.8-5.9L267.9,10z M280.5,16.4v-6.4l-5.7-9.6h4.9l3.1,5.7l2.9-5.7h4.7l-5.7,9.6v6.4H280.5z"/>
</svg>
