<svg width="300" height="600" viewBox="0 0 300 600" fill="none" xmlns="http://www.w3.org/2000/svg">
<defs>
<filter id="filter0_d_19971_3314" x="-380.25" y="-619.139" width="1065.75" height="1065.75" filterUnits="userSpaceOnUse" color-interpolation-filters="sRGB">
<feFlood flood-opacity="0" result="BackgroundImageFix"/>
<feColorMatrix in="SourceAlpha" type="matrix" values="0 0 0 0 0 0 0 0 0 0 0 0 0 0 0 0 0 0 127 0" result="hardAlpha"/>
<feOffset dx="2.625" dy="2.625"/>
<feGaussianBlur stdDeviation="3.9375"/>
<feComposite in2="hardAlpha" operator="out"/>
<feColorMatrix type="matrix" values="0 0 0 0 0.584314 0 0 0 0 0.141176 0 0 0 0 0.145098 0 0 0 0.6 0"/>
<feBlend mode="multiply" in2="BackgroundImageFix" result="effect1_dropShadow_19971_3314"/>
<feBlend mode="normal" in="SourceGraphic" in2="effect1_dropShadow_19971_3314" result="shape"/>
</filter>
<linearGradient id="paint0_linear_19971_3314" x1="0" y1="300" x2="300" y2="300" gradientUnits="userSpaceOnUse">
<stop stop-color="#952425"/>
<stop offset="0.75" stop-color="#DC1928"/>
</linearGradient>
<linearGradient id="paint1_linear_19971_3314" x1="579.366" y1="340.477" x2="-163.094" y2="-401.983" gradientUnits="userSpaceOnUse">
<stop stop-color="#D3D3D5"/>
<stop offset="0.11" stop-color="#F4F4F4"/>
<stop offset="0.18" stop-color="#FCFCFC"/>
<stop offset="0.3" stop-color="white"/>
</linearGradient>

<clipPath id="clip1_19971_3314">
<rect x="-375" y="-613.889" width="1050" height="1050" rx="525" fill="white"/>
</clipPath>
</defs>

<mask id="swooshMask">
		<rect width="300" height="600" fill="white"/>
<path d="M150 436.111C439.949 436.111 675 201.061 675 -88.8887C675 -378.838 439.949 -613.889 150 -613.889C-139.949 -613.889 -375 -378.838 -375 -88.8887C-375 201.061 -139.949 436.111 150 436.111Z" fill="black"/>
	</mask>


<g mask="url(#swooshMask)">
<rect width="300" height="600" fill="url(#paint0_linear_19971_3314)"/>
<g filter="url(#filter0_d_19971_3314)">
<g clip-path="url(#clip1_19971_3314)">
<path d="M150 436.111C439.949 436.111 675 201.061 675 -88.8887C675 -378.838 439.949 -613.889 150 -613.889C-139.949 -613.889 -375 -378.838 -375 -88.8887C-375 201.061 -139.949 436.111 150 436.111Z" fill="url(#paint1_linear_19971_3314)"/>
</g>
</g>
</g>

</svg>
