<?xml version="1.0" encoding="utf-8"?>
<!-- Generator: Adobe Illustrator 27.7.0, SVG Export Plug-In . SVG Version: 6.00 Build 0)  -->
<svg version="1.1" id="Layer_1" xmlns="http://www.w3.org/2000/svg" xmlns:xlink="http://www.w3.org/1999/xlink" x="0px" y="0px"
	 viewBox="0 0 193 94.6" style="enable-background:new 0 0 193 94.6;" xml:space="preserve">
<style type="text/css">
	.st0{fill:#FFD000;}
</style>
<path class="st0" d="M1,26V0.7h10.3c2.7,0,4.9,0.7,6.5,2.2c1.6,1.4,2.5,3.5,2.5,6.2c0,1.7-0.4,3.2-1.1,4.5c-0.8,1.3-1.8,2.3-3.1,3
	c-1.3,0.7-2.8,1-4.6,1h-4V26H1z M7.6,12.3h3.2c0.9,0,1.6-0.3,2.2-0.9c0.5-0.6,0.8-1.3,0.8-2.2c0-1-0.3-1.7-0.8-2.3S11.7,6,10.7,6
	H7.6V12.3z M23.3,26V0.7H30V10h9.3V0.7h6.7V26h-6.7v-9.9H30V26H23.3z M62.4,26.6c-1.9,0-3.7-0.3-5.3-1c-1.6-0.7-3-1.6-4.2-2.8
	c-1.2-1.2-2.1-2.6-2.7-4.3c-0.7-1.6-1-3.4-1-5.3s0.3-3.7,1-5.3c0.7-1.6,1.6-3,2.7-4.2c1.2-1.2,2.6-2.1,4.2-2.8c1.6-0.7,3.4-1,5.3-1
	s3.6,0.3,5.2,1c1.6,0.7,3,1.6,4.2,2.8C73.1,5,74,6.4,74.6,8c0.7,1.6,1,3.4,1,5.3s-0.3,3.7-1,5.3c-0.6,1.6-1.5,3-2.7,4.3
	c-1.2,1.2-2.6,2.1-4.2,2.8C66.1,26.3,64.3,26.6,62.4,26.6z M62.4,20.3c1.3,0,2.5-0.3,3.4-0.9c0.9-0.6,1.6-1.5,2.1-2.5
	c0.5-1.1,0.7-2.2,0.7-3.5s-0.2-2.5-0.7-3.5c-0.5-1.1-1.2-1.9-2.1-2.5c-0.9-0.6-2-0.9-3.4-0.9c-1.3,0-2.4,0.3-3.4,0.9
	c-0.9,0.6-1.6,1.5-2.1,2.5c-0.5,1.1-0.7,2.2-0.7,3.5s0.2,2.5,0.7,3.5c0.5,1.1,1.2,1.9,2.1,2.5C60,20,61.1,20.3,62.4,20.3z M78.8,26
	V0.7h6.1l9.7,14.1V0.7h6.7V26h-5.7L85.5,11.5V26H78.8z M105.5,26V0.7h18.2v5.8h-11.5v3.9h9.5v5.5h-9.5v4.3h12.3V26H105.5z
	 M127.3,31.5l2.4-5.4h-2.4v-6.9h7.1V26l-3.2,5.4H127.3z M13.2,60.6c-1.9,0-3.7-0.3-5.3-1c-1.6-0.7-3-1.6-4.2-2.8
	c-1.2-1.2-2.1-2.6-2.7-4.3c-0.7-1.6-1-3.4-1-5.3s0.3-3.7,1-5.3c0.7-1.6,1.6-3,2.7-4.2c1.2-1.2,2.6-2.1,4.2-2.8c1.6-0.7,3.4-1,5.3-1
	s3.6,0.3,5.2,1c1.6,0.7,3,1.6,4.2,2.8c1.2,1.2,2.1,2.6,2.7,4.2c0.7,1.6,1,3.4,1,5.3s-0.3,3.7-1,5.3c-0.6,1.6-1.5,3-2.7,4.3
	c-1.2,1.2-2.6,2.1-4.2,2.8C16.8,60.3,15.1,60.6,13.2,60.6z M13.2,54.3c1.3,0,2.5-0.3,3.4-1c0.9-0.6,1.6-1.5,2.1-2.5
	c0.5-1.1,0.7-2.2,0.7-3.5s-0.2-2.5-0.7-3.5c-0.5-1.1-1.2-1.9-2.1-2.5c-0.9-0.6-2-0.9-3.4-0.9c-1.3,0-2.4,0.3-3.4,0.9
	c-0.9,0.6-1.6,1.5-2.1,2.5C7.2,44.8,7,46,7,47.3s0.2,2.5,0.7,3.5c0.5,1.1,1.2,1.9,2.1,2.5C10.7,54,11.9,54.3,13.2,54.3z M29.6,60
	V34.7h6.1l9.7,14.1V34.7H52V60h-5.7L36.2,45.5V60H29.6z M56.2,60V34.7H63v19.4h11.7V60H56.2z M77.4,60V34.7h6.7V60H77.4z M88.3,60
	V34.7h6.1l9.7,14.1V34.7h6.7V60H105L94.9,45.5V60H88.3z M114.9,60V34.7h18.2v5.8h-11.5v3.9h9.5v5.5h-9.5v4.3H134V60H114.9z
	 M155.8,60.6c-1.9,0-3.7-0.3-5.3-1c-1.6-0.7-3-1.6-4.2-2.8c-1.2-1.2-2.1-2.6-2.7-4.3s-1-3.4-1-5.3s0.3-3.7,1-5.3s1.6-3,2.7-4.2
	c1.2-1.2,2.6-2.1,4.2-2.8c1.6-0.7,3.4-1,5.3-1c1.9,0,3.6,0.3,5.2,1c1.6,0.7,3,1.6,4.2,2.8c1.2,1.2,2.1,2.6,2.7,4.2
	c0.7,1.6,1,3.4,1,5.3s-0.3,3.7-1,5.3c-0.6,1.6-1.5,3-2.7,4.3c-1.2,1.2-2.6,2.1-4.2,2.8C159.4,60.3,157.7,60.6,155.8,60.6z
	 M155.8,54.3c1.3,0,2.5-0.3,3.4-1c0.9-0.6,1.6-1.5,2.1-2.5c0.5-1.1,0.7-2.2,0.7-3.5s-0.2-2.5-0.7-3.5c-0.5-1.1-1.2-1.9-2.1-2.5
	c-0.9-0.6-2-0.9-3.4-0.9c-1.3,0-2.4,0.3-3.4,0.9c-0.9,0.6-1.6,1.5-2.1,2.5c-0.5,1.1-0.7,2.2-0.7,3.5s0.2,2.5,0.7,3.5
	c0.5,1.1,1.2,1.9,2.1,2.5C153.3,54,154.5,54.3,155.8,54.3z M172.1,60V34.7h10.5c2.7,0,4.9,0.7,6.5,2.1c1.6,1.4,2.5,3.5,2.5,6.2
	c0,1.6-0.4,3.1-1.1,4.3c-0.7,1.2-1.7,2.2-2.9,3L193,60h-7.2l-4.3-8.6h-2.8V60H172.1z M178.7,46.1h3.3c0.9,0,1.6-0.3,2.2-0.8
	c0.6-0.6,0.8-1.3,0.8-2.2c0-1-0.3-1.7-0.8-2.3c-0.5-0.6-1.3-0.8-2.2-0.8h-3.2V46.1z M1,94V68.7h6.7V94H1z M11.9,94V68.7H18l9.7,14.1
	V68.7h6.6V94h-5.7L18.5,79.5V94H11.9z M45,94V68.7h10.3c2.7,0,4.9,0.7,6.5,2.2c1.6,1.4,2.5,3.5,2.5,6.2c0,1.7-0.4,3.2-1.1,4.5
	c-0.8,1.3-1.8,2.3-3.1,3c-1.3,0.7-2.8,1-4.6,1h-4V94H45z M51.6,80.3h3.2c0.9,0,1.6-0.3,2.2-0.9c0.5-0.6,0.8-1.3,0.8-2.2
	c0-1-0.3-1.7-0.8-2.3c-0.5-0.6-1.3-0.9-2.2-0.9h-3.2V80.3z M67.3,94V68.7h18.2v5.8H74.1v3.9h9.5v5.5h-9.5v4.3h12.3V94H67.3z
	 M89.5,94V68.7H100c2.7,0,4.9,0.7,6.5,2.1c1.6,1.4,2.5,3.5,2.5,6.2c0,1.6-0.4,3.1-1.1,4.3c-0.7,1.2-1.7,2.2-2.9,3l5.4,9.7h-7.2
	l-4.3-8.6h-2.8V94H89.5z M96.1,80.1h3.3c0.9,0,1.6-0.3,2.2-0.8c0.6-0.6,0.8-1.3,0.8-2.2c0-1-0.3-1.7-0.8-2.3
	c-0.5-0.6-1.3-0.8-2.2-0.8h-3.2V80.1z M110.5,90.9l4.1-4.9c0.7,0.7,1.6,1.4,2.8,1.9c1.2,0.6,2.4,0.9,3.8,0.9c0.7,0,1.3-0.1,2-0.4
	c0.6-0.3,1-0.8,1-1.6c0-0.7-0.3-1.2-1-1.6c-0.7-0.5-1.7-0.9-2.9-1.3l-1.4-0.5c-1-0.4-2.1-0.8-3.1-1.4c-1-0.6-1.9-1.4-2.5-2.3
	c-0.7-0.9-1-2.1-1-3.5c0-1.6,0.4-3,1.1-4.2c0.8-1.2,1.9-2.2,3.3-2.9c1.5-0.7,3.3-1.1,5.4-1.1c1.7,0,3.1,0.2,4.3,0.6
	c1.2,0.4,2.3,0.8,3.1,1.3c0.8,0.5,1.4,1,1.8,1.4l-3.4,4.3c-0.9-0.7-1.8-1.2-2.8-1.6c-1-0.4-2-0.6-3-0.6c-0.7,0-1.3,0.2-1.9,0.5
	c-0.6,0.3-0.9,0.8-0.9,1.5c0,0.8,0.4,1.4,1.1,1.7c0.7,0.4,1.6,0.7,2.7,1.1l1.2,0.4c0.9,0.3,1.7,0.6,2.6,1c0.9,0.4,1.7,0.9,2.4,1.5
	c0.7,0.6,1.3,1.4,1.7,2.3c0.5,0.9,0.7,2,0.7,3.4c0,1.5-0.5,2.9-1.4,4.1c-0.9,1.2-2.2,2.2-3.7,2.8c-1.5,0.7-3.3,1-5.2,1
	c-2.5,0-4.7-0.3-6.4-1C113.1,92.9,111.7,92,110.5,90.9z M146.8,94.6c-1.9,0-3.7-0.3-5.3-1c-1.6-0.7-3-1.6-4.2-2.8
	c-1.2-1.2-2.1-2.6-2.7-4.3c-0.7-1.6-1-3.4-1-5.3c0-1.9,0.3-3.7,1-5.3c0.7-1.6,1.6-3,2.7-4.2c1.2-1.2,2.6-2.1,4.2-2.8
	c1.6-0.7,3.4-1,5.3-1c1.9,0,3.6,0.3,5.2,1c1.6,0.7,3,1.6,4.2,2.8c1.2,1.2,2.1,2.6,2.7,4.2c0.7,1.6,1,3.4,1,5.3c0,1.9-0.3,3.7-1,5.3
	c-0.6,1.6-1.5,3-2.7,4.3c-1.2,1.2-2.6,2.1-4.2,2.8C150.5,94.3,148.7,94.6,146.8,94.6z M146.8,88.3c1.3,0,2.5-0.3,3.4-1
	c0.9-0.6,1.6-1.5,2.1-2.5c0.5-1.1,0.7-2.2,0.7-3.5s-0.2-2.5-0.7-3.5c-0.5-1.1-1.2-1.9-2.1-2.5c-0.9-0.6-2-1-3.4-1
	c-1.3,0-2.4,0.3-3.4,1c-0.9,0.6-1.6,1.5-2.1,2.5c-0.5,1.1-0.7,2.2-0.7,3.5s0.2,2.5,0.7,3.5c0.5,1.1,1.2,1.9,2.1,2.5
	C144.4,88,145.5,88.3,146.8,88.3z M163.2,94V68.7h6.1l9.7,14.1V68.7h6.6V94H180l-10.1-14.6V94H163.2z"/>
</svg>
