<?xml version="1.0" encoding="utf-8"?>
<!-- Generator: Adobe Illustrator 27.7.0, SVG Export Plug-In . SVG Version: 6.00 Build 0)  -->
<svg version="1.1" id="Layer_1" xmlns="http://www.w3.org/2000/svg" xmlns:xlink="http://www.w3.org/1999/xlink" x="0px" y="0px"
	 viewBox="0 0 59.8 57" style="enable-background:new 0 0 59.8 57;" xml:space="preserve">
<style type="text/css">
	.st0{fill:#172C54;}
	.st1{fill:#FFD10F;}
</style>
<g>
	<g>
		<path class="st0" d="M22,33.2c0-1.1,0.1-2,0.3-2.8c0.2-0.8,0.5-1.5,0.8-2.1s0.7-1.1,1.1-1.5s0.8-0.8,1.3-1.1
			c0.4-0.3,0.8-0.6,1.2-0.9c0.4-0.3,0.7-0.6,1-0.9s0.5-0.6,0.7-0.9s0.3-0.7,0.3-1.1c0-0.5-0.1-0.9-0.3-1.2c-0.2-0.3-0.5-0.6-0.9-0.8
			c-0.3-0.2-0.7-0.3-1.2-0.4c-0.4-0.1-0.8-0.1-1.2-0.1c-1.1,0-2.1,0.3-3.2,0.8c-1,0.5-1.9,1.2-2.7,2l-4.6-5.4c1.4-1.4,3-2.6,4.9-3.4
			c1.9-0.9,4-1.3,6.4-1.3c1.4,0,2.7,0.2,4,0.5s2.4,0.9,3.4,1.6c1,0.7,1.8,1.7,2.4,2.9c0.6,1.2,0.9,2.6,0.9,4.2
			c0,0.9-0.1,1.7-0.3,2.4c-0.2,0.7-0.5,1.3-0.8,1.8s-0.7,1-1.1,1.4c-0.4,0.4-0.8,0.8-1.3,1.1c-0.5,0.4-0.9,0.8-1.4,1.1
			c-0.5,0.4-0.9,0.7-1.3,1.1s-0.7,0.8-0.9,1.3c-0.2,0.5-0.3,1.1-0.3,1.7v0.2H22V33.2L22,33.2z"/>
		<path class="st1" d="M29.6,36h-8v7.9h8V36z"/>
	</g>
</g>
</svg>
