<?xml version="1.0" encoding="utf-8"?>
<!-- Generator: Adobe Illustrator 27.7.0, SVG Export Plug-In . SVG Version: 6.00 Build 0)  -->
<svg version="1.1" id="Layer_1" xmlns="http://www.w3.org/2000/svg" xmlns:xlink="http://www.w3.org/1999/xlink" x="0px" y="0px"
	 viewBox="0 0 15.5 15.5" style="enable-background:new 0 0 15.5 15.5;" xml:space="preserve">
<style type="text/css">
	.st0{fill:#4D6989;}
	.st1{fill:#162B54;}
</style>
<path class="st0" d="M0,7.5l0.2-1.3c0-0.3,0.3-0.5,0.6-0.5l0.5,0.1C1.9,5.8,2.5,5.5,2.8,5C3.1,4.4,3,3.8,2.6,3.3L2.4,2.9
	C2.2,2.7,2.2,2.3,2.4,2.1l1-0.8c0.3-0.2,0.6-0.2,0.8,0.1l0.3,0.4c0.4,0.5,1,0.7,1.6,0.5c0.6-0.2,1-0.7,1.1-1.3l0.1-0.5
	C7.4,0.2,7.7,0,8,0l1.3,0.2c0.3,0,0.5,0.3,0.5,0.6L9.8,1.3C9.7,1.9,10,2.5,10.5,2.8c0.5,0.3,1.2,0.2,1.7-0.1l0.4-0.3
	c0.3-0.2,0.6-0.2,0.8,0.1l0.8,1c0.2,0.3,0.2,0.6-0.1,0.8l-0.4,0.3c-0.5,0.4-0.7,1-0.5,1.6c0.2,0.6,0.7,1,1.3,1.1L15,7.4
	c0.3,0,0.5,0.3,0.5,0.6l-0.2,1.3c0,0.3-0.3,0.5-0.6,0.5l-0.5-0.1c-0.6-0.1-1.2,0.2-1.5,0.8c-0.3,0.5-0.2,1.2,0.1,1.7l0.3,0.4
	c0.2,0.3,0.2,0.6-0.1,0.8l-1,0.8c-0.3,0.2-0.6,0.2-0.8-0.1l-0.3-0.4c-0.4-0.5-1-0.7-1.6-0.5c-0.6,0.2-1,0.7-1.1,1.3L8.2,15
	c0,0.3-0.3,0.5-0.6,0.5l-1.3-0.2c-0.3,0-0.5-0.3-0.5-0.6l0.1-0.5C5.8,13.6,5.5,13,5,12.7c-0.5-0.3-1.2-0.2-1.7,0.1l-0.4,0.3
	c-0.3,0.2-0.6,0.2-0.8-0.1l-0.8-1c-0.2-0.3-0.2-0.6,0.1-0.8l0.4-0.3c0.5-0.4,0.7-1,0.5-1.6C2.1,8.7,1.6,8.3,1,8.2L0.5,8.2
	C0.2,8.1,0,7.8,0,7.5z"/>
<path class="st1" d="M5.8,7.8c0,1.1,0.9,2,2,2c1.1,0,2-0.9,2-2c0-1.1-0.9-2-2-2C6.7,5.8,5.8,6.7,5.8,7.8z"/>
</svg>
