<?xml version="1.0" encoding="utf-8"?>
<!-- Generator: Adobe Illustrator 27.7.0, SVG Export Plug-In . SVG Version: 6.00 Build 0)  -->
<svg version="1.1" id="Layer_1" xmlns="http://www.w3.org/2000/svg" xmlns:xlink="http://www.w3.org/1999/xlink" x="0px" y="0px"
	 viewBox="0 0 260.3 19.7" style="enable-background:new 0 0 260.3 19.7;" xml:space="preserve">
<style type="text/css">
	.st0{fill:#FFFFFF;}
</style>
<path class="st0" d="M0,19.2L6.9,0.5h5.7l6.6,18.7h-5.3l-1.2-3.9H6.4l-1.2,3.9H0z M7.4,11.7h4.2L9.5,4.8L7.4,11.7z M25.1,19.2
	l0.9-18.7h4.7l4.5,8.1l4.5-8.1h4.8l0.9,18.7h-5L39.8,8.2l-3.3,6.4h-2.7l-3.6-6.4l-0.4,10.9H25.1z M57,19.6c-1.4,0-2.7-0.2-3.9-0.7
	c-1.2-0.5-2.2-1.2-3.1-2c-0.9-0.9-1.5-1.9-2-3.1c-0.5-1.2-0.7-2.5-0.7-3.9c0-1.4,0.2-2.7,0.7-3.9c0.5-1.2,1.2-2.2,2-3.1
	c0.9-0.9,1.9-1.6,3.1-2C54.3,0.2,55.6,0,57,0c1.4,0,2.7,0.2,3.9,0.7c1.2,0.5,2.2,1.2,3.1,2c0.9,0.9,1.5,1.9,2,3.1
	c0.5,1.2,0.7,2.5,0.7,3.9c0,1.4-0.2,2.7-0.7,3.9c-0.5,1.2-1.1,2.2-2,3.1c-0.9,0.9-1.9,1.6-3.1,2C59.7,19.4,58.4,19.6,57,19.6z
	 M57,15c1,0,1.8-0.2,2.5-0.7c0.7-0.5,1.2-1.1,1.6-1.9c0.4-0.8,0.5-1.7,0.5-2.6S61.4,8,61,7.2c-0.4-0.8-0.9-1.4-1.6-1.9
	C58.8,4.9,58,4.6,57,4.6c-1,0-1.8,0.2-2.5,0.7c-0.7,0.5-1.2,1.1-1.6,1.9c-0.4,0.8-0.5,1.7-0.5,2.6s0.2,1.8,0.5,2.6
	c0.4,0.8,0.9,1.4,1.6,1.9C55.2,14.7,56,15,57,15z M69,19.2V0.5h7.7c2,0,3.6,0.5,4.8,1.6c1.2,1,1.8,2.5,1.8,4.6
	c0,1.2-0.3,2.3-0.8,3.2c-0.5,0.9-1.3,1.6-2.2,2.2l4,7.2h-5.3l-3.2-6.4h-2.1v6.4H69z M73.9,8.9h2.4c0.7,0,1.2-0.2,1.6-0.6
	c0.4-0.4,0.6-1,0.6-1.6c0-0.7-0.2-1.3-0.6-1.7S77,4.4,76.3,4.4h-2.4V8.9z M86.3,19.2V0.5h13.4v4.3h-8.5v2.9h7v4h-7v3.2h9.1v4.3H86.3
	z M121.4,12.6l3.3,3.1c-2.1,2.6-4.9,3.9-8.3,3.9c-1.9,0-3.6-0.4-5.1-1.3c-1.5-0.8-2.6-2-3.4-3.4c-0.8-1.5-1.2-3.2-1.2-5.1
	s0.4-3.6,1.2-5.1c0.8-1.5,2-2.7,3.4-3.5s3.1-1.3,5.1-1.3c1.6,0,3.1,0.3,4.5,0.8c1.4,0.5,2.6,1.5,3.5,2.8l-3.3,3.3
	c-0.5-0.7-1.1-1.3-1.9-1.7c-0.7-0.4-1.6-0.6-2.5-0.6c-1,0-1.9,0.2-2.7,0.7c-0.7,0.4-1.3,1.1-1.7,1.8c-0.4,0.8-0.6,1.6-0.6,2.6
	c0,1,0.2,1.9,0.6,2.7c0.4,0.8,1,1.4,1.7,1.8c0.7,0.4,1.6,0.7,2.6,0.7c1.1,0,2-0.2,2.7-0.6C120.1,14,120.7,13.4,121.4,12.6z
	 M134.8,19.6c-1.4,0-2.7-0.2-3.9-0.7c-1.2-0.5-2.2-1.2-3.1-2c-0.9-0.9-1.5-1.9-2-3.1c-0.5-1.2-0.7-2.5-0.7-3.9
	c0-1.4,0.2-2.7,0.7-3.9c0.5-1.2,1.2-2.2,2-3.1c0.9-0.9,1.9-1.6,3.1-2c1.2-0.5,2.5-0.7,3.9-0.7c1.4,0,2.7,0.2,3.9,0.7
	c1.2,0.5,2.2,1.2,3.1,2c0.9,0.9,1.5,1.9,2,3.1c0.5,1.2,0.7,2.5,0.7,3.9c0,1.4-0.2,2.7-0.7,3.9c-0.5,1.2-1.1,2.2-2,3.1
	c-0.9,0.9-1.9,1.6-3.1,2C137.4,19.4,136.2,19.6,134.8,19.6z M134.8,15c1,0,1.8-0.2,2.5-0.7c0.7-0.5,1.2-1.1,1.6-1.9
	c0.4-0.8,0.5-1.7,0.5-2.6s-0.2-1.8-0.5-2.6c-0.4-0.8-0.9-1.4-1.6-1.9c-0.7-0.5-1.5-0.7-2.5-0.7c-1,0-1.8,0.2-2.5,0.7
	c-0.7,0.5-1.2,1.1-1.6,1.9c-0.4,0.8-0.5,1.7-0.5,2.6s0.2,1.8,0.5,2.6c0.4,0.8,0.9,1.4,1.6,1.9C133,14.7,133.8,15,134.8,15z
	 M146.8,19.2V0.5h4.5l7.2,10.4V0.5h4.9v18.7h-4.2l-7.4-10.7v10.7H146.8z M166.5,19.2V0.5h13v4.3h-8.1v3.6h6.2v4.1h-6.2v6.6H166.5z
	 M181.4,19.2V0.5h5v18.7H181.4z M189.5,19.2V0.5h7.2c1.9,0,3.6,0.3,5.1,1c1.5,0.7,2.7,1.7,3.6,3.1c0.9,1.4,1.3,3.2,1.3,5.3
	c0,2.1-0.4,3.8-1.3,5.2c-0.9,1.4-2.1,2.4-3.6,3.1c-1.5,0.7-3.2,1-5.1,1H189.5z M194.4,14.8h2c1.6,0,2.9-0.5,3.8-1.4
	c0.9-0.9,1.3-2.1,1.3-3.6c0-1.5-0.4-2.7-1.2-3.6c-0.8-0.9-2.1-1.4-3.9-1.4h-2V14.8z M209,19.2V0.5h13.4v4.3H214v2.9h7v4h-7v3.2h9.1
	v4.3H209z M225.3,19.2V0.5h4.5l7.2,10.4V0.5h4.9v18.7h-4.2l-7.4-10.7v10.7H225.3z M249.6,19.2V4.8h-5.7V0.5h16.4v4.3h-5.7v14.3
	H249.6z"/>
</svg>
