<?xml version="1.0" encoding="utf-8"?>
<!-- Generator: Adobe Illustrator 27.7.0, SVG Export Plug-In . SVG Version: 6.00 Build 0)  -->
<svg version="1.1" id="Layer_1" xmlns="http://www.w3.org/2000/svg" xmlns:xlink="http://www.w3.org/1999/xlink" x="0px" y="0px"
	 viewBox="0 0 219 19.7" style="enable-background:new 0 0 219 19.7;" xml:space="preserve">
<style type="text/css">
	.st0{fill:#FFD000;}
</style>
<path class="st0" d="M0,19.2V0.5h13v4.3H5v3.6h6.2v4.1H5v6.6H0z M15,19.2V0.5h7.7c2,0,3.6,0.5,4.8,1.6c1.2,1,1.8,2.5,1.8,4.6
	c0,1.2-0.3,2.3-0.8,3.2s-1.3,1.6-2.2,2.2l4,7.2h-5.3l-3.2-6.4h-2.1v6.4H15z M19.8,8.9h2.4c0.7,0,1.2-0.2,1.6-0.6
	c0.4-0.4,0.6-1,0.6-1.6c0-0.7-0.2-1.3-0.6-1.7c-0.4-0.4-0.9-0.6-1.7-0.6h-2.4V8.9z M40.9,19.6c-1.4,0-2.7-0.2-3.9-0.7
	c-1.2-0.5-2.2-1.2-3.1-2c-0.9-0.9-1.5-1.9-2-3.1c-0.5-1.2-0.7-2.5-0.7-3.9c0-1.4,0.2-2.7,0.7-3.9c0.5-1.2,1.2-2.2,2-3.1
	c0.9-0.9,1.9-1.6,3.1-2C38.2,0.2,39.5,0,40.9,0c1.4,0,2.7,0.2,3.9,0.7c1.2,0.5,2.2,1.2,3.1,2s1.5,1.9,2,3.1c0.5,1.2,0.7,2.5,0.7,3.9
	c0,1.4-0.2,2.7-0.7,3.9c-0.5,1.2-1.1,2.2-2,3.1c-0.9,0.9-1.9,1.6-3.1,2C43.5,19.4,42.3,19.6,40.9,19.6z M40.9,15
	c1,0,1.8-0.2,2.5-0.7c0.7-0.5,1.2-1.1,1.6-1.9c0.4-0.8,0.5-1.7,0.5-2.6S45.3,8,44.9,7.2c-0.4-0.8-0.9-1.4-1.6-1.9
	c-0.7-0.5-1.5-0.7-2.5-0.7c-1,0-1.8,0.2-2.5,0.7c-0.7,0.5-1.2,1.1-1.6,1.9c-0.4,0.8-0.5,1.7-0.5,2.6s0.2,1.8,0.5,2.6
	c0.4,0.8,0.9,1.4,1.6,1.9C39.1,14.7,39.9,15,40.9,15z M52.5,19.2l0.9-18.7h4.7l4.5,8.1l4.5-8.1h4.8l0.9,18.7h-5L67.3,8.2L64,14.6
	h-2.7l-3.6-6.4l-0.4,10.9H52.5z M80.2,19.2V0.5h5v6.8h6.9V0.5h5v18.7h-5v-7.3h-6.9v7.3H80.2z M109.1,19.6c-1.4,0-2.7-0.2-3.9-0.7
	c-1.2-0.5-2.2-1.2-3.1-2c-0.9-0.9-1.5-1.9-2-3.1c-0.5-1.2-0.7-2.5-0.7-3.9c0-1.4,0.2-2.7,0.7-3.9c0.5-1.2,1.2-2.2,2-3.1
	c0.9-0.9,1.9-1.6,3.1-2c1.2-0.5,2.5-0.7,3.9-0.7s2.7,0.2,3.9,0.7c1.2,0.5,2.2,1.2,3.1,2c0.9,0.9,1.5,1.9,2,3.1
	c0.5,1.2,0.7,2.5,0.7,3.9c0,1.4-0.2,2.7-0.7,3.9c-0.5,1.2-1.1,2.2-2,3.1c-0.9,0.9-1.9,1.6-3.1,2C111.8,19.4,110.5,19.6,109.1,19.6z
	 M109.1,15c1,0,1.8-0.2,2.5-0.7c0.7-0.5,1.2-1.1,1.6-1.9c0.4-0.8,0.5-1.7,0.5-2.6s-0.2-1.8-0.5-2.6c-0.4-0.8-0.9-1.4-1.6-1.9
	c-0.7-0.5-1.5-0.7-2.5-0.7c-1,0-1.8,0.2-2.5,0.7c-0.7,0.5-1.2,1.1-1.6,1.9c-0.4,0.8-0.5,1.7-0.5,2.6s0.2,1.8,0.5,2.6
	c0.4,0.8,0.9,1.4,1.6,1.9C107.3,14.7,108.1,15,109.1,15z M119.3,16.9l3-3.6c0.5,0.5,1.2,1,2,1.4c0.9,0.4,1.8,0.6,2.8,0.6
	c0.5,0,1-0.1,1.5-0.3s0.7-0.6,0.7-1.2c0-0.5-0.3-0.9-0.8-1.2c-0.5-0.3-1.2-0.7-2.2-1l-1-0.3c-0.8-0.3-1.5-0.6-2.3-1
	c-0.7-0.4-1.4-1-1.9-1.7c-0.5-0.7-0.7-1.5-0.7-2.5c0-1.2,0.3-2.2,0.8-3.1c0.6-0.9,1.4-1.6,2.5-2.2c1.1-0.5,2.4-0.8,3.9-0.8
	c1.2,0,2.3,0.1,3.2,0.4c0.9,0.3,1.7,0.6,2.3,1c0.6,0.4,1,0.7,1.3,1l-2.5,3.2c-0.7-0.5-1.3-0.9-2-1.2c-0.7-0.3-1.4-0.5-2.2-0.5
	c-0.5,0-1,0.1-1.4,0.3c-0.4,0.2-0.6,0.6-0.6,1.1c0,0.6,0.3,1,0.8,1.3c0.5,0.3,1.2,0.5,2,0.8l0.9,0.3c0.6,0.2,1.3,0.4,1.9,0.7
	c0.7,0.3,1.3,0.6,1.8,1.1c0.5,0.4,1,1,1.3,1.7c0.3,0.7,0.5,1.5,0.5,2.5c0,1.1-0.3,2.2-1,3.1c-0.7,0.9-1.6,1.6-2.7,2.1
	c-1.1,0.5-2.4,0.8-3.8,0.8c-1.9,0-3.4-0.3-4.7-0.8C121.3,18.4,120.2,17.7,119.3,16.9z M141.7,19.2V4.8H136V0.5h16.4v4.3h-5.7v14.3
	H141.7z M154.4,19.2V0.5h7.6c2,0,3.6,0.5,4.8,1.6c1.2,1,1.8,2.6,1.8,4.6c0,1.3-0.3,2.4-0.8,3.3c-0.6,0.9-1.3,1.7-2.3,2.2
	c-1,0.5-2.1,0.8-3.4,0.8h-2.9v6.2H154.4z M159.2,9.1h2.4c0.7,0,1.2-0.2,1.6-0.6c0.4-0.4,0.6-1,0.6-1.7c0-0.7-0.2-1.3-0.6-1.7
	c-0.4-0.4-0.9-0.6-1.7-0.6h-2.3V9.1z M170.8,19.2V0.5h5v14.3h8.7v4.4H170.8z M186,11.9V0.5h5v10.9c0,1,0.2,1.9,0.7,2.5
	c0.5,0.7,1.3,1,2.4,1c1.1,0,1.9-0.3,2.4-1c0.5-0.7,0.7-1.5,0.7-2.5V0.5h5v11.4c0,1.6-0.3,3-1,4.1c-0.7,1.2-1.6,2.1-2.9,2.7
	c-1.2,0.6-2.6,0.9-4.1,0.9c-1.6,0-3-0.3-4.2-0.9c-1.2-0.6-2.2-1.5-2.9-2.7C186.3,14.9,186,13.5,186,11.9z M203.5,16.9l3-3.6
	c0.5,0.5,1.2,1,2,1.4c0.9,0.4,1.8,0.6,2.8,0.6c0.5,0,1-0.1,1.5-0.3c0.5-0.2,0.7-0.6,0.7-1.2c0-0.5-0.3-0.9-0.8-1.2
	c-0.5-0.3-1.2-0.7-2.2-1l-1-0.3c-0.8-0.3-1.5-0.6-2.3-1c-0.7-0.4-1.4-1-1.9-1.7c-0.5-0.7-0.7-1.5-0.7-2.5c0-1.2,0.3-2.2,0.8-3.1
	c0.6-0.9,1.4-1.6,2.5-2.2c1.1-0.5,2.4-0.8,3.9-0.8c1.2,0,2.3,0.1,3.2,0.4c0.9,0.3,1.7,0.6,2.3,1c0.6,0.4,1,0.7,1.3,1l-2.5,3.2
	c-0.7-0.5-1.3-0.9-2-1.2c-0.7-0.3-1.4-0.5-2.2-0.5c-0.5,0-1,0.1-1.4,0.3c-0.4,0.2-0.6,0.6-0.6,1.1c0,0.6,0.3,1,0.8,1.3
	c0.5,0.3,1.2,0.5,2,0.8l0.9,0.3c0.6,0.2,1.3,0.4,1.9,0.7c0.7,0.3,1.3,0.6,1.8,1.1c0.5,0.4,1,1,1.3,1.7c0.3,0.7,0.5,1.5,0.5,2.5
	c0,1.1-0.3,2.2-1,3.1c-0.7,0.9-1.6,1.6-2.7,2.1c-1.1,0.5-2.4,0.8-3.8,0.8c-1.9,0-3.4-0.3-4.7-0.8C205.5,18.4,204.4,17.7,203.5,16.9z
	"/>
</svg>
