<svg width="300" height="250" viewBox="0 0 300 250" fill="none" xmlns="http://www.w3.org/2000/svg">
<path d="M34.835 44.998L33.7539 53.6533C36.2381 53.8937 38.5219 54.2146 40.6055 54.6152L41.6279 54.8555L40.9658 61.2266C38.0408 60.906 35.3358 60.6661 32.8516 60.5059L31.6494 70.1826C35.8168 71.5049 38.6423 72.9675 40.125 74.5703C41.6477 76.1331 42.4092 78.5179 42.4092 81.7236C42.4091 85.891 41.1465 89.0569 38.6221 91.2207C36.0976 93.3444 32.7913 94.4062 28.7041 94.4062H28.6445L27.7432 101.499C24.7792 101.379 23.2962 101.238 23.2949 101.078L24.1367 94.1055C21.1714 93.7448 18.6862 93.3236 16.6826 92.8428L15.4805 92.6025L16.2627 86.3516L17.4385 86.5107C20.1557 86.8657 22.689 87.1127 25.0381 87.2529L26.3604 76.7949C22.2333 75.5528 19.3081 74.0501 17.585 72.2871C15.862 70.5241 15.0001 68.1194 15 65.0742C15 61.1072 16.2022 58.1617 18.6064 56.2383C21.0107 54.2748 24.3169 53.293 28.5244 53.293H29.3057L30.3877 44.998H34.835ZM29.5459 87.3135C32.7916 86.9528 34.415 85.2698 34.415 82.2646C34.415 81.3029 34.1342 80.521 33.5732 79.9199C33.0523 79.2788 32.0899 78.6782 30.6875 78.1172L29.5459 87.3135ZM28.4043 60.3857C24.7979 60.546 22.9941 61.9286 22.9941 64.5332C22.9942 65.4946 23.2947 66.276 23.8955 66.877C24.4966 67.478 25.6589 68.0991 27.3818 68.7402L28.4043 60.3857Z" fill="#FFE344"/>
<path d="M134.986 44.998C144.972 44.998 152.481 48.2222 157.514 54.6699C162.625 61.1176 165.181 71.4968 165.181 85.8076C165.181 100.04 162.664 110.262 157.632 116.474C152.599 122.607 145.051 125.673 134.986 125.673C124.922 125.673 117.373 122.607 112.341 116.474C107.308 110.262 104.792 100.04 104.792 85.8076C104.792 71.4969 107.309 61.1176 112.341 54.6699C117.452 48.2222 125 44.9981 134.986 44.998ZM198.627 44.998C208.613 44.9981 216.122 48.2223 221.154 54.6699C226.265 61.1176 228.82 71.497 228.82 85.8076C228.82 100.04 226.305 110.262 221.272 116.474C216.24 122.607 208.691 125.673 198.627 125.673C188.562 125.673 181.013 122.607 175.98 116.474C170.948 110.262 168.433 100.04 168.433 85.8076C168.433 71.4971 170.948 61.1177 175.98 54.6699C181.091 48.2222 188.641 44.998 198.627 44.998ZM61.6748 97.248H78.4229V75.4277H94.6992V97.248H102.13V111.401H94.6992V124.258H78.4229V111.401H45.3984V99.0176L64.623 46.4131H82.5508L61.6748 97.248ZM134.986 59.1514C130.19 59.1514 126.73 61.1174 124.607 65.0488C122.563 68.9803 121.541 75.7818 121.541 85.4531C121.541 95.1247 122.603 101.887 124.726 105.74C126.849 109.593 130.308 111.52 135.104 111.52C139.901 111.519 143.321 109.593 145.365 105.74C147.41 101.887 148.433 95.1247 148.433 85.4531C148.433 75.7032 147.41 68.9017 145.365 65.0488C143.321 61.1175 139.861 59.1514 134.986 59.1514ZM198.627 59.1514C193.83 59.1514 190.37 61.1173 188.247 65.0488C186.203 68.9803 185.181 75.7818 185.181 85.4531C185.181 95.1247 186.242 101.887 188.365 105.74C190.488 109.593 193.948 111.519 198.744 111.52C203.541 111.52 206.961 109.593 209.006 105.74C211.05 101.887 212.072 95.1246 212.072 85.4531C212.072 75.7032 211.05 68.9017 209.006 65.0488C206.962 61.1174 203.502 59.1515 198.627 59.1514Z" fill="#FFE344"/>
</svg>
