<?xml version="1.0" encoding="utf-8"?>
<!-- Generator: Adobe Illustrator 27.7.0, SVG Export Plug-In . SVG Version: 6.00 Build 0)  -->
<svg version="1.1" id="Layer_1" xmlns="http://www.w3.org/2000/svg" xmlns:xlink="http://www.w3.org/1999/xlink" x="0px" y="0px"
	 viewBox="0 0 159 29" style="enable-background:new 0 0 159 29;" xml:space="preserve">
<path d="M2.7,26.6c-1.3,0-2.5-0.6-2.5-2.2c0-1.7,1.7-2.3,3.8-2.3h0.9v-0.4c0-1-0.3-1.5-1.3-1.5c-0.9,0-1.3,0.4-1.4,1.1H0.5
	C0.6,19.7,2,19,3.6,19s2.9,0.7,2.9,2.7v4.8H4.9v-0.9C4.4,26.2,3.8,26.6,2.7,26.6z M3.1,25.4c1,0,1.8-0.5,1.8-1.5v-0.7H4
	c-1.3,0-2.1,0.3-2.1,1.2C1.9,25,2.2,25.4,3.1,25.4z M8.3,26.5V15.8H10v10.7H8.3z M11.8,26.5v-7.3h1.7v7.3H11.8z M12.6,18
	c-0.6,0-1-0.4-1-1c0-0.6,0.4-1,1-1c0.6,0,1,0.4,1,1C13.6,17.6,13.2,18,12.6,18z M15.3,26.5v-7.3H17v1.1c0.4-0.7,1.1-1.3,2.2-1.3
	c1,0,1.7,0.4,2.1,1.3c0.6-0.9,1.6-1.3,2.5-1.3c1.3,0,2.4,0.8,2.4,2.8v4.6h-1.7V22c0-1.1-0.5-1.5-1.3-1.5s-1.6,0.6-1.6,1.7v4.4h-1.7
	V22c0-1.1-0.5-1.5-1.3-1.5c-0.8,0-1.6,0.6-1.6,1.7v4.4H15.3z M31.1,26.6c-2.2,0-3.7-1.4-3.7-3.7v-0.1c0-2.3,1.6-3.8,3.6-3.8
	c1.8,0,3.5,1.1,3.5,3.7v0.5h-5.4c0.1,1.4,0.8,2.2,2,2.2c1,0,1.6-0.4,1.7-1.1h1.6C34.2,25.8,32.9,26.6,31.1,26.6z M29.1,22.1h3.7
	c-0.1-1.3-0.7-1.8-1.8-1.8C30,20.3,29.3,20.9,29.1,22.1z M35.7,26.5v-7.3h1.7v1.2c0.3-0.7,1.2-1.3,2.4-1.3c1.5,0,2.5,0.9,2.5,2.9
	v4.6h-1.7V22c0-1.1-0.4-1.6-1.5-1.6c-1,0-1.7,0.6-1.7,1.8v4.3H35.7z M46.4,26.6c-1.5,0-2.2-0.8-2.2-2.2v-4h-1v-1.3h1v-1.6h1.7v1.6
	h1.6v1.3h-1.6v3.9c0,0.6,0.3,0.9,0.8,0.9c0.3,0,0.6,0,0.8-0.1v1.3C47.3,26.5,46.9,26.6,46.4,26.6z M50.8,26.6
	c-1.3,0-2.5-0.6-2.5-2.2c0-1.7,1.7-2.3,3.8-2.3H53v-0.4c0-1-0.3-1.5-1.3-1.5c-0.9,0-1.3,0.4-1.4,1.1h-1.6c0.1-1.7,1.5-2.4,3.1-2.4
	s2.9,0.7,2.9,2.7v4.8H53v-0.9C52.6,26.2,51.9,26.6,50.8,26.6z M51.2,25.4c1,0,1.8-0.5,1.8-1.5v-0.7h-0.9c-1.3,0-2.1,0.3-2.1,1.2
	C50,25,50.4,25.4,51.2,25.4z M56.4,26.5v-7.3h1.7v1.4c0.5-0.9,1.1-1.5,2.4-1.5v1.6c-1.5,0-2.4,0.5-2.4,2v3.8H56.4z M64.7,29v-9.8
	h1.7v1.2c0.4-0.7,1.3-1.3,2.4-1.3c1.8,0,3.2,1.4,3.2,3.7v0.1c0,2.4-1.4,3.8-3.2,3.8c-1.2,0-2-0.6-2.4-1.3V29H64.7z M68.4,25.3
	c1.2,0,1.9-0.8,1.9-2.4v-0.1c0-1.6-0.8-2.4-1.9-2.4c-1.2,0-2,0.8-2,2.4v0.1C66.3,24.5,67.1,25.3,68.4,25.3z M75.2,26.6
	c-1.3,0-2.4-0.6-2.4-2.2c0-1.7,1.7-2.3,3.8-2.3h0.9v-0.4c0-1-0.3-1.5-1.3-1.5c-0.9,0-1.3,0.4-1.4,1.1H73c0.1-1.7,1.5-2.4,3.1-2.4
	s2.9,0.7,2.9,2.7v4.8h-1.7v-0.9C77,26.2,76.3,26.6,75.2,26.6z M75.6,25.4c1,0,1.8-0.5,1.8-1.5v-0.7h-0.9c-1.3,0-2.1,0.3-2.1,1.2
	C74.4,25,74.8,25.4,75.6,25.4z M80.8,26.5v-7.3h1.7v1.4c0.5-0.9,1.1-1.5,2.4-1.5v1.6c-1.5,0-2.4,0.5-2.4,2v3.8H80.8z M87.8,26.6
	c-1.3,0-2.4-0.6-2.4-2.2c0-1.7,1.7-2.3,3.8-2.3H90v-0.4c0-1-0.3-1.5-1.3-1.5c-0.9,0-1.3,0.4-1.4,1.1h-1.6c0.1-1.7,1.5-2.4,3.1-2.4
	s2.9,0.7,2.9,2.7v4.8h-1.7v-0.9C89.6,26.2,89,26.6,87.8,26.6z M88.2,25.4c1,0,1.8-0.5,1.8-1.5v-0.7h-0.9c-1.3,0-2.1,0.3-2.1,1.2
	C87.1,25,87.4,25.4,88.2,25.4z M99.7,25.3c1.3,0,2-0.9,2-2.4v-0.1c0-1.5-0.8-2.4-2-2.4c-1.3,0-2,0.9-2,2.4v0.1
	C97.7,24.4,98.4,25.3,99.7,25.3z M99.7,26.6c-2.2,0-3.8-1.5-3.8-3.7v-0.1c0-2.3,1.6-3.8,3.8-3.8c2.1,0,3.8,1.5,3.8,3.7v0.1
	C103.5,25.2,101.9,26.6,99.7,26.6z M107.8,29v-9.8h1.7v1.2c0.4-0.7,1.3-1.3,2.4-1.3c1.8,0,3.2,1.4,3.2,3.7v0.1
	c0,2.4-1.4,3.8-3.2,3.8c-1.2,0-2-0.6-2.4-1.3V29H107.8z M111.5,25.3c1.2,0,1.9-0.8,1.9-2.4v-0.1c0-1.6-0.8-2.4-1.9-2.4
	c-1.2,0-2,0.8-2,2.4v0.1C109.4,24.5,110.2,25.3,111.5,25.3z M116.4,26.5V15.8h1.7v10.7H116.4z M121.8,26.6c-1.3,0-2.5-0.6-2.5-2.2
	c0-1.7,1.7-2.3,3.8-2.3h0.9v-0.4c0-1-0.3-1.5-1.3-1.5c-0.9,0-1.3,0.4-1.4,1.1h-1.6c0.1-1.7,1.5-2.4,3.1-2.4s2.9,0.7,2.9,2.7v4.8
	h-1.7v-0.9C123.6,26.2,122.9,26.6,121.8,26.6z M122.2,25.4c1,0,1.8-0.5,1.8-1.5v-0.7h-0.9c-1.3,0-2.1,0.3-2.1,1.2
	C121,25,121.4,25.4,122.2,25.4z M127.4,26.5v-7.3h1.7v1.2c0.3-0.7,1.2-1.3,2.4-1.3c1.5,0,2.5,0.9,2.5,2.9v4.6h-1.7V22
	c0-1.1-0.4-1.6-1.5-1.6c-1,0-1.7,0.6-1.7,1.8v4.3H127.4z M138.8,26.6c-2.2,0-3.7-1.4-3.7-3.7v-0.1c0-2.3,1.6-3.8,3.6-3.8
	c1.8,0,3.5,1.1,3.5,3.7v0.5h-5.4c0.1,1.4,0.8,2.2,2,2.2c1,0,1.6-0.4,1.7-1.1h1.6C142,25.8,140.7,26.6,138.8,26.6z M136.9,22.1h3.7
	c-0.1-1.3-0.7-1.8-1.8-1.8C137.7,20.3,137.1,20.9,136.9,22.1z M146,26.6c-1.5,0-2.2-0.8-2.2-2.2v-4h-1v-1.3h1v-1.6h1.7v1.6h1.6v1.3
	h-1.6v3.9c0,0.6,0.3,0.9,0.8,0.9c0.3,0,0.6,0,0.8-0.1v1.3C146.8,26.5,146.5,26.6,146,26.6z M150.3,26.6c-1.3,0-2.5-0.6-2.5-2.2
	c0-1.7,1.7-2.3,3.8-2.3h0.9v-0.4c0-1-0.3-1.5-1.3-1.5c-0.9,0-1.3,0.4-1.4,1.1h-1.6c0.1-1.7,1.5-2.4,3.1-2.4s2.9,0.7,2.9,2.7v4.8
	h-1.7v-0.9C152.1,26.2,151.5,26.6,150.3,26.6z M150.7,25.4c1,0,1.8-0.5,1.8-1.5v-0.7h-0.9c-1.3,0-2.1,0.3-2.1,1.2
	C149.6,25,149.9,25.4,150.7,25.4z M156.9,26.6c-0.6,0-1.1-0.5-1.1-1.1c0-0.6,0.5-1.1,1.1-1.1c0.6,0,1.1,0.5,1.1,1.1
	C158,26.1,157.5,26.6,156.9,26.6z"/>
</svg>
