<?xml version="1.0" encoding="utf-8"?>
<!-- Generator: Adobe Illustrator 27.7.0, SVG Export Plug-In . SVG Version: 6.00 Build 0)  -->
<svg version="1.1" id="Layer_1" xmlns="http://www.w3.org/2000/svg" xmlns:xlink="http://www.w3.org/1999/xlink" x="0px" y="0px"
	 viewBox="0 0 300 600" style="enable-background:new 0 0 300 600;" xml:space="preserve">
<style type="text/css">
	.st0{fill:#FFFFFF;}
	.st1{fill:#B2BECC;}
</style>
<path class="st0" d="M283.7,17.8l-4.9,5l4.7,4.9l-1.8,1.8l-4.7-4.8l-4.8,5l-1.8-1.8l4.9-5l-4.9-5l1.8-1.8l4.8,5l4.8-5L283.7,17.8z"
	/>
<path class="st1" d="M15.1,51l3.1-8h1.2l3.1,8h-1.3l-0.8-2.2h-3.3L16.4,51H15.1z M17.5,47.8h2.6l-1.3-3.5L17.5,47.8z M24.4,51
	l-1.9-5.6h1.2l1.2,4.3l1.3-4.3h0.9l1.3,4.3l1.2-4.3h1.1L29,51H28l-1.3-3.9L25.4,51H24.4z M35.3,51l0-0.7c-0.2,0.3-0.5,0.5-0.8,0.6
	c-0.3,0.1-0.7,0.2-1,0.2c-0.3,0-0.6-0.1-0.9-0.2c-0.3-0.1-0.5-0.3-0.7-0.6c-0.2-0.3-0.3-0.6-0.3-1c0-0.6,0.2-1.1,0.6-1.4
	c0.4-0.4,1-0.5,1.8-0.5c0.2,0,0.4,0,0.5,0c0.2,0,0.4,0,0.5,0c0.2,0,0.3,0,0.3,0v-0.2c0-0.4-0.1-0.7-0.4-0.9c-0.2-0.2-0.6-0.3-1-0.3
	c-0.4,0-0.8,0.1-1,0.2c-0.2,0.1-0.5,0.2-0.6,0.3l-0.5-0.7c0.2-0.2,0.5-0.3,0.8-0.5c0.4-0.2,0.8-0.2,1.4-0.2c0.7,0,1.3,0.2,1.7,0.5
	c0.4,0.3,0.6,0.8,0.6,1.5v3.3c0,0.1,0,0.1,0,0.2c0,0.1,0,0.2,0,0.3H35.3z M35.2,49v-0.6c0,0-0.1,0-0.3,0c-0.1,0-0.3,0-0.5,0
	c-0.2,0-0.3,0-0.5,0c-0.4,0-0.7,0.1-0.9,0.2c-0.2,0.1-0.4,0.3-0.4,0.4c-0.1,0.2-0.1,0.3-0.1,0.5c0,0.3,0.1,0.5,0.3,0.7
	s0.5,0.2,0.9,0.2c0.3,0,0.5-0.1,0.8-0.2c0.2-0.1,0.4-0.3,0.6-0.5C35.2,49.4,35.2,49.2,35.2,49z M38.8,51h-1.1v-5c0-0.1,0-0.1,0-0.2
	c0-0.1,0-0.2,0-0.3h1l0,0.9c0.1-0.1,0.2-0.3,0.4-0.4c0.2-0.2,0.4-0.3,0.6-0.4c0.2-0.1,0.5-0.2,0.9-0.2c0.1,0,0.2,0,0.3,0
	c0.1,0,0.2,0,0.3,0.1l-0.2,1c-0.1-0.1-0.3-0.1-0.6-0.1c-0.3,0-0.6,0.1-0.8,0.2c-0.2,0.2-0.4,0.4-0.6,0.6c-0.1,0.3-0.2,0.5-0.2,0.9
	V51z M45.9,51l0-0.7c-0.1,0.1-0.2,0.2-0.3,0.3c-0.1,0.1-0.3,0.3-0.6,0.4c-0.2,0.1-0.6,0.2-0.9,0.2c-0.5,0-0.9-0.1-1.3-0.3
	c-0.4-0.2-0.7-0.6-0.9-1s-0.3-0.9-0.3-1.5c0-0.5,0.1-1,0.3-1.4c0.2-0.4,0.4-0.7,0.7-0.9c0.3-0.2,0.6-0.4,0.9-0.5
	c0.3-0.1,0.7-0.2,0.9-0.2c0.3,0,0.6,0,0.8,0.1c0.2,0.1,0.4,0.2,0.7,0.3V43h1.1v7.4c0,0,0,0.1,0,0.2c0,0.1,0,0.2,0,0.3H45.9z
	 M45.8,48.6v-2c-0.1-0.1-0.3-0.2-0.6-0.3c-0.2-0.1-0.5-0.1-0.8-0.1c-0.5,0-1,0.2-1.3,0.6c-0.3,0.4-0.5,0.9-0.5,1.5
	c0,0.4,0.1,0.7,0.2,1c0.1,0.3,0.3,0.5,0.5,0.7c0.2,0.2,0.5,0.3,0.9,0.3c0.4,0,0.7-0.1,0.9-0.3c0.2-0.2,0.4-0.4,0.5-0.6
	C45.8,49.1,45.8,48.9,45.8,48.6z M48.1,50.3l0.7-0.7c0.2,0.2,0.4,0.4,0.7,0.5c0.3,0.1,0.6,0.2,1,0.2c0.4,0,0.7-0.1,0.9-0.2
	c0.2-0.1,0.4-0.3,0.4-0.6c0-0.2,0-0.3-0.1-0.4s-0.3-0.2-0.5-0.3c-0.2-0.1-0.6-0.2-1-0.3c-0.3-0.1-0.6-0.2-0.8-0.3
	c-0.3-0.1-0.5-0.3-0.7-0.5c-0.2-0.2-0.3-0.5-0.3-0.9c0-0.4,0.1-0.7,0.3-0.9c0.2-0.2,0.5-0.4,0.8-0.6c0.3-0.1,0.7-0.2,1.1-0.2
	c0.5,0,0.9,0.1,1.2,0.2c0.3,0.1,0.6,0.3,0.9,0.5l-0.6,0.7c-0.2-0.2-0.4-0.3-0.6-0.4c-0.2-0.1-0.5-0.2-0.9-0.2
	c-0.3,0-0.6,0.1-0.8,0.2s-0.3,0.3-0.3,0.6c0,0.2,0.1,0.4,0.4,0.5c0.3,0.1,0.6,0.2,1.1,0.3c0.4,0.1,0.7,0.2,0.9,0.3
	c0.3,0.1,0.5,0.3,0.7,0.5c0.2,0.2,0.3,0.5,0.3,0.9c0,0.4-0.1,0.7-0.3,0.9c-0.2,0.2-0.5,0.4-0.9,0.6c-0.4,0.1-0.7,0.2-1.1,0.2
	C49.4,51.2,48.6,50.9,48.1,50.3z M59.8,51l0-0.7c-0.2,0.3-0.5,0.5-0.8,0.6c-0.3,0.1-0.7,0.2-1,0.2c-0.3,0-0.6-0.1-0.9-0.2
	c-0.3-0.1-0.5-0.3-0.7-0.6c-0.2-0.3-0.3-0.6-0.3-1c0-0.6,0.2-1.1,0.6-1.4c0.4-0.4,1-0.5,1.8-0.5c0.2,0,0.4,0,0.5,0
	c0.2,0,0.4,0,0.5,0c0.2,0,0.3,0,0.3,0v-0.2c0-0.4-0.1-0.7-0.4-0.9c-0.2-0.2-0.6-0.3-1-0.3c-0.4,0-0.8,0.1-1,0.2
	c-0.2,0.1-0.5,0.2-0.6,0.3l-0.5-0.7c0.2-0.2,0.5-0.3,0.8-0.5c0.4-0.2,0.8-0.2,1.4-0.2c0.7,0,1.3,0.2,1.7,0.5
	c0.4,0.3,0.6,0.8,0.6,1.5v3.3c0,0.1,0,0.1,0,0.2c0,0.1,0,0.2,0,0.3H59.8z M59.7,49v-0.6c0,0-0.1,0-0.3,0c-0.1,0-0.3,0-0.5,0
	c-0.2,0-0.3,0-0.5,0c-0.4,0-0.7,0.1-0.9,0.2c-0.2,0.1-0.4,0.3-0.4,0.4C57,49,57,49.2,57,49.4c0,0.3,0.1,0.5,0.3,0.7
	c0.2,0.2,0.5,0.2,0.9,0.2c0.3,0,0.5-0.1,0.8-0.2c0.2-0.1,0.4-0.3,0.6-0.5C59.6,49.4,59.7,49.2,59.7,49z M63.3,51h-1.1v-5
	c0-0.1,0-0.1,0-0.2c0-0.1,0-0.2,0-0.4h1l0,0.8c0.1-0.1,0.2-0.3,0.4-0.4c0.2-0.2,0.4-0.3,0.6-0.4c0.2-0.1,0.5-0.2,0.9-0.2
	c0.7,0,1.3,0.2,1.6,0.6c0.4,0.4,0.5,1,0.5,1.7V51h-1.1v-3.3c0-0.5-0.1-0.9-0.3-1.1c-0.2-0.2-0.5-0.4-0.9-0.4c-0.4,0-0.7,0.1-1,0.3
	c-0.2,0.2-0.4,0.5-0.5,0.8c-0.1,0.3-0.1,0.7-0.1,1V51z M72.8,51l0-0.7c-0.1,0.1-0.2,0.2-0.3,0.3c-0.1,0.1-0.3,0.3-0.6,0.4
	c-0.2,0.1-0.6,0.2-0.9,0.2c-0.5,0-0.9-0.1-1.3-0.3c-0.4-0.2-0.7-0.6-0.9-1c-0.2-0.4-0.3-0.9-0.3-1.5c0-0.5,0.1-1,0.3-1.4
	c0.2-0.4,0.4-0.7,0.7-0.9c0.3-0.2,0.6-0.4,0.9-0.5c0.3-0.1,0.7-0.2,0.9-0.2c0.3,0,0.6,0,0.8,0.1c0.2,0.1,0.4,0.2,0.7,0.3V43h1.1v7.4
	c0,0,0,0.1,0,0.2c0,0.1,0,0.2,0,0.3H72.8z M72.8,48.6v-2c-0.1-0.1-0.3-0.2-0.6-0.3c-0.2-0.1-0.5-0.1-0.8-0.1c-0.5,0-1,0.2-1.3,0.6
	c-0.3,0.4-0.5,0.9-0.5,1.5c0,0.4,0.1,0.7,0.2,1c0.1,0.3,0.3,0.5,0.5,0.7c0.2,0.2,0.5,0.3,0.9,0.3c0.4,0,0.7-0.1,0.9-0.3
	c0.2-0.2,0.4-0.4,0.5-0.6C72.7,49.1,72.8,48.9,72.8,48.6z M78.6,51h-1.1v-5c0-0.1,0-0.1,0-0.2c0-0.1,0-0.2,0-0.3h1l0,0.9
	c0.1-0.1,0.2-0.3,0.4-0.4c0.2-0.2,0.4-0.3,0.6-0.4c0.2-0.1,0.5-0.2,0.9-0.2c0.1,0,0.2,0,0.3,0c0.1,0,0.2,0,0.3,0.1l-0.2,1
	c-0.1-0.1-0.3-0.1-0.6-0.1c-0.3,0-0.6,0.1-0.8,0.2c-0.2,0.2-0.4,0.4-0.6,0.6c-0.1,0.3-0.2,0.5-0.2,0.9V51z M85.2,51l0-0.7
	c-0.2,0.3-0.5,0.5-0.8,0.6c-0.3,0.1-0.7,0.2-1,0.2c-0.3,0-0.6-0.1-0.9-0.2c-0.3-0.1-0.5-0.3-0.7-0.6c-0.2-0.3-0.3-0.6-0.3-1
	c0-0.6,0.2-1.1,0.6-1.4c0.4-0.4,1-0.5,1.8-0.5c0.2,0,0.4,0,0.5,0c0.2,0,0.4,0,0.5,0c0.2,0,0.3,0,0.3,0v-0.2c0-0.4-0.1-0.7-0.4-0.9
	c-0.2-0.2-0.6-0.3-1-0.3c-0.4,0-0.8,0.1-1,0.2c-0.2,0.1-0.5,0.2-0.6,0.3l-0.5-0.7c0.2-0.2,0.5-0.3,0.8-0.5c0.4-0.2,0.8-0.2,1.4-0.2
	c0.7,0,1.3,0.2,1.7,0.5c0.4,0.3,0.6,0.8,0.6,1.5v3.3c0,0.1,0,0.1,0,0.2c0,0.1,0,0.2,0,0.3H85.2z M85.2,49v-0.6c0,0-0.1,0-0.3,0
	c-0.1,0-0.3,0-0.5,0c-0.2,0-0.3,0-0.5,0c-0.4,0-0.7,0.1-0.9,0.2c-0.2,0.1-0.4,0.3-0.4,0.4c-0.1,0.2-0.1,0.3-0.1,0.5
	c0,0.3,0.1,0.5,0.3,0.7s0.5,0.2,0.9,0.2c0.3,0,0.5-0.1,0.8-0.2c0.2-0.1,0.4-0.3,0.6-0.5C85.1,49.4,85.2,49.2,85.2,49z M88.2,49.2
	v-2.9h-1v-0.9h1v-1.8h1.1v1.8h1.6v0.9h-1.6v2.7c0,0.4,0.1,0.8,0.2,0.9c0.1,0.2,0.3,0.3,0.6,0.3c0.2,0,0.4,0,0.5-0.1
	c0.1-0.1,0.3-0.2,0.4-0.3l0.5,0.7c-0.2,0.2-0.5,0.4-0.7,0.5c-0.2,0.1-0.5,0.2-0.9,0.2c-0.6,0-1-0.2-1.3-0.5
	C88.3,50.3,88.2,49.8,88.2,49.2z M92.3,44.4v-1.2h1.2v1.2H92.3z M92.4,51v-5.6h1.1V51H92.4z M96.1,51H95v-5c0-0.1,0-0.1,0-0.2
	c0-0.1,0-0.2,0-0.4h1l0,0.8c0.1-0.1,0.2-0.3,0.4-0.4c0.2-0.2,0.4-0.3,0.6-0.4c0.2-0.1,0.5-0.2,0.9-0.2c0.7,0,1.3,0.2,1.6,0.6
	c0.4,0.4,0.5,1,0.5,1.7V51H99v-3.3c0-0.5-0.1-0.9-0.3-1.1c-0.2-0.2-0.5-0.4-0.9-0.4c-0.4,0-0.7,0.1-1,0.3c-0.2,0.2-0.4,0.5-0.5,0.8
	c-0.1,0.3-0.1,0.7-0.1,1V51z M101.7,52.9l0.5-0.8c0.2,0.1,0.4,0.2,0.7,0.3c0.3,0.1,0.6,0.1,1,0.1c0.5,0,0.9-0.1,1.2-0.4
	c0.3-0.3,0.4-0.7,0.4-1.2v-0.7c-0.1,0.1-0.2,0.2-0.3,0.3c-0.1,0.1-0.3,0.2-0.6,0.3c-0.2,0.1-0.5,0.1-0.8,0.1c-0.5,0-1-0.1-1.4-0.4
	c-0.4-0.2-0.7-0.6-0.9-1c-0.2-0.4-0.3-0.9-0.3-1.4c0-0.6,0.1-1.1,0.4-1.5c0.3-0.5,0.6-0.8,1.1-1.1s1-0.4,1.6-0.4
	c0.4,0,0.9,0,1.3,0.1c0.4,0.1,0.7,0.2,1,0.3V51c0,0.8-0.2,1.4-0.7,1.9c-0.5,0.4-1.1,0.7-2,0.7c-0.6,0-1-0.1-1.4-0.2
	C102.2,53.2,101.9,53.1,101.7,52.9z M105.5,48.7v-2.3c-0.1,0-0.2-0.1-0.4-0.1c-0.2,0-0.4-0.1-0.8-0.1c-0.4,0-0.8,0.1-1.1,0.3
	c-0.3,0.2-0.5,0.4-0.7,0.7c-0.2,0.3-0.3,0.7-0.3,1.1c0,0.3,0.1,0.6,0.2,0.9c0.1,0.3,0.3,0.5,0.5,0.7s0.5,0.3,0.9,0.3
	c0.4,0,0.7-0.1,0.9-0.2c0.2-0.1,0.4-0.3,0.5-0.5C105.5,49.2,105.5,49,105.5,48.7z M107.8,50.3l0.7-0.7c0.2,0.2,0.4,0.4,0.7,0.5
	c0.3,0.1,0.6,0.2,1,0.2c0.4,0,0.7-0.1,0.9-0.2c0.2-0.1,0.4-0.3,0.4-0.6c0-0.2,0-0.3-0.1-0.4s-0.3-0.2-0.5-0.3
	c-0.2-0.1-0.6-0.2-1-0.3c-0.3-0.1-0.6-0.2-0.8-0.3c-0.3-0.1-0.5-0.3-0.7-0.5c-0.2-0.2-0.3-0.5-0.3-0.9c0-0.4,0.1-0.7,0.3-0.9
	c0.2-0.2,0.5-0.4,0.8-0.6c0.3-0.1,0.7-0.2,1.1-0.2c0.5,0,0.9,0.1,1.2,0.2c0.3,0.1,0.6,0.3,0.9,0.5l-0.6,0.7
	c-0.2-0.2-0.4-0.3-0.6-0.4c-0.2-0.1-0.5-0.2-0.9-0.2c-0.3,0-0.6,0.1-0.8,0.2s-0.3,0.3-0.3,0.6c0,0.2,0.1,0.4,0.4,0.5
	c0.3,0.1,0.6,0.2,1.1,0.3c0.4,0.1,0.7,0.2,0.9,0.3c0.3,0.1,0.5,0.3,0.7,0.5c0.2,0.2,0.3,0.5,0.3,0.9c0,0.4-0.1,0.7-0.3,0.9
	c-0.2,0.2-0.5,0.4-0.9,0.6c-0.4,0.1-0.7,0.2-1.1,0.2C109.1,51.2,108.3,50.9,107.8,50.3z M119.4,51l0-0.7c-0.2,0.3-0.5,0.5-0.8,0.6
	c-0.3,0.1-0.7,0.2-1,0.2c-0.3,0-0.6-0.1-0.9-0.2c-0.3-0.1-0.5-0.3-0.7-0.6c-0.2-0.3-0.3-0.6-0.3-1c0-0.6,0.2-1.1,0.6-1.4
	c0.4-0.4,1-0.5,1.8-0.5c0.2,0,0.4,0,0.5,0c0.2,0,0.4,0,0.5,0c0.2,0,0.3,0,0.3,0v-0.2c0-0.4-0.1-0.7-0.4-0.9c-0.2-0.2-0.6-0.3-1-0.3
	c-0.4,0-0.8,0.1-1,0.2c-0.2,0.1-0.5,0.2-0.6,0.3l-0.5-0.7c0.2-0.2,0.5-0.3,0.8-0.5c0.4-0.2,0.8-0.2,1.4-0.2c0.7,0,1.3,0.2,1.7,0.5
	c0.4,0.3,0.6,0.8,0.6,1.5v3.3c0,0.1,0,0.1,0,0.2c0,0.1,0,0.2,0,0.3H119.4z M119.4,49v-0.6c0,0-0.1,0-0.3,0c-0.1,0-0.3,0-0.5,0
	c-0.2,0-0.3,0-0.5,0c-0.4,0-0.7,0.1-0.9,0.2c-0.2,0.1-0.4,0.3-0.4,0.4c-0.1,0.2-0.1,0.3-0.1,0.5c0,0.3,0.1,0.5,0.3,0.7
	s0.5,0.2,0.9,0.2c0.3,0,0.5-0.1,0.8-0.2c0.2-0.1,0.4-0.3,0.6-0.5C119.3,49.4,119.4,49.2,119.4,49z M123,51h-1.1v-5
	c0-0.1,0-0.1,0-0.2c0-0.1,0-0.2,0-0.3h1l0,0.9c0.1-0.1,0.2-0.3,0.4-0.4c0.2-0.2,0.4-0.3,0.6-0.4c0.2-0.1,0.5-0.2,0.9-0.2
	c0.1,0,0.2,0,0.3,0c0.1,0,0.2,0,0.3,0.1l-0.2,1c-0.1-0.1-0.3-0.1-0.6-0.1c-0.3,0-0.6,0.1-0.8,0.2c-0.2,0.2-0.4,0.4-0.6,0.6
	c-0.1,0.3-0.2,0.5-0.2,0.9V51z M130.4,49.5l0.6,0.6c-0.1,0.1-0.2,0.2-0.4,0.4c-0.2,0.2-0.5,0.3-0.8,0.4c-0.3,0.1-0.7,0.2-1.2,0.2
	c-0.6,0-1.1-0.1-1.5-0.4c-0.4-0.3-0.8-0.6-1-1.1c-0.2-0.5-0.4-1-0.4-1.6c0-0.5,0.1-1,0.3-1.5c0.2-0.4,0.6-0.8,1-1
	c0.4-0.3,0.9-0.4,1.5-0.4c0.6,0,1.2,0.2,1.6,0.5c0.4,0.3,0.7,0.7,0.9,1.2c0.2,0.5,0.3,1,0.3,1.6h-4.4c0,0.3,0.1,0.6,0.3,0.9
	c0.2,0.3,0.4,0.5,0.7,0.6c0.3,0.1,0.6,0.2,0.9,0.2c0.5,0,0.9-0.1,1.2-0.2C130.1,49.8,130.3,49.7,130.4,49.5z M126.8,47.7h3.3
	c0-0.4-0.2-0.8-0.5-1.1c-0.3-0.3-0.7-0.5-1.2-0.5c-0.3,0-0.6,0.1-0.9,0.2c-0.2,0.2-0.4,0.3-0.6,0.6
	C126.9,47.2,126.8,47.5,126.8,47.7z M137.2,51.2c-0.6,0-1.1-0.1-1.5-0.4c-0.4-0.3-0.8-0.6-1.1-1.1c-0.2-0.5-0.4-1-0.4-1.5
	c0-0.5,0.1-1,0.4-1.5c0.3-0.4,0.6-0.8,1.1-1.1c0.4-0.3,1-0.4,1.5-0.4s1.1,0.1,1.5,0.4c0.4,0.3,0.8,0.6,1.1,1.1
	c0.3,0.4,0.4,0.9,0.4,1.5c0,0.5-0.1,1-0.4,1.5c-0.3,0.4-0.6,0.8-1.1,1.1C138.3,51,137.8,51.2,137.2,51.2z M137.2,50.2
	c0.4,0,0.7-0.1,1-0.3c0.3-0.2,0.5-0.5,0.6-0.8c0.2-0.3,0.2-0.6,0.2-1c0-0.3-0.1-0.7-0.2-1c-0.1-0.3-0.4-0.6-0.6-0.8
	c-0.3-0.2-0.6-0.3-1-0.3s-0.7,0.1-1,0.3c-0.3,0.2-0.5,0.4-0.6,0.8c-0.1,0.3-0.2,0.6-0.2,1c0,0.3,0.1,0.7,0.2,1
	c0.2,0.3,0.4,0.6,0.6,0.8C136.5,50.1,136.9,50.2,137.2,50.2z M142.5,51h-1.1v-5c0-0.1,0-0.1,0-0.2c0-0.1,0-0.2,0-0.4h1l0,0.8
	c0.1-0.1,0.2-0.3,0.4-0.4c0.2-0.2,0.4-0.3,0.6-0.4c0.2-0.1,0.5-0.2,0.9-0.2c0.7,0,1.3,0.2,1.6,0.6c0.4,0.4,0.5,1,0.5,1.7V51h-1.1
	v-3.3c0-0.5-0.1-0.9-0.3-1.1c-0.2-0.2-0.5-0.4-0.9-0.4c-0.4,0-0.7,0.1-1,0.3c-0.2,0.2-0.4,0.5-0.5,0.8c-0.1,0.3-0.1,0.7-0.1,1V51z
	 M147.9,51v-8h1.1v8H147.9z M150,53.1l0.5-0.8c0.1,0.1,0.2,0.1,0.3,0.2c0.1,0.1,0.2,0.1,0.4,0.1c0.3,0,0.4-0.1,0.6-0.3
	c0.1-0.2,0.3-0.6,0.5-1l0.1-0.4l-2.5-5.5h1.2l1.8,4.2l1.6-4.2h1.2l-2.2,5.4c-0.1,0.2-0.2,0.5-0.3,0.8c-0.1,0.3-0.2,0.6-0.4,0.9
	c-0.2,0.3-0.3,0.5-0.6,0.7c-0.2,0.2-0.5,0.3-0.9,0.3c-0.3,0-0.5,0-0.7-0.1C150.3,53.4,150.2,53.3,150,53.1z M161.4,51.2
	c-0.6,0-1.1-0.1-1.5-0.4c-0.4-0.3-0.8-0.6-1.1-1.1c-0.2-0.5-0.4-1-0.4-1.5c0-0.5,0.1-1,0.4-1.5c0.3-0.4,0.6-0.8,1.1-1.1
	c0.4-0.3,1-0.4,1.5-0.4c0.6,0,1.1,0.1,1.5,0.4c0.4,0.3,0.8,0.6,1.1,1.1c0.3,0.4,0.4,0.9,0.4,1.5c0,0.5-0.1,1-0.4,1.5
	c-0.3,0.4-0.6,0.8-1.1,1.1C162.4,51,161.9,51.2,161.4,51.2z M161.4,50.2c0.4,0,0.7-0.1,1-0.3c0.3-0.2,0.5-0.5,0.6-0.8
	c0.2-0.3,0.2-0.6,0.2-1c0-0.3-0.1-0.7-0.2-1c-0.1-0.3-0.4-0.6-0.6-0.8c-0.3-0.2-0.6-0.3-1-0.3s-0.7,0.1-1,0.3
	c-0.3,0.2-0.5,0.4-0.6,0.8c-0.1,0.3-0.2,0.6-0.2,1c0,0.3,0.1,0.7,0.2,1c0.2,0.3,0.4,0.6,0.6,0.8C160.6,50.1,161,50.2,161.4,50.2z
	 M166.6,51h-1.1v-5c0-0.1,0-0.1,0-0.2c0-0.1,0-0.2,0-0.4h1l0,0.8c0.1-0.1,0.2-0.3,0.4-0.4c0.2-0.2,0.4-0.3,0.6-0.4
	c0.2-0.1,0.5-0.2,0.9-0.2c0.7,0,1.3,0.2,1.6,0.6c0.4,0.4,0.5,1,0.5,1.7V51h-1.1v-3.3c0-0.5-0.1-0.9-0.3-1.1
	c-0.2-0.2-0.5-0.4-0.9-0.4c-0.4,0-0.7,0.1-1,0.3c-0.2,0.2-0.4,0.5-0.5,0.8c-0.1,0.3-0.1,0.7-0.1,1V51z M176.5,49.5l0.6,0.6
	c-0.1,0.1-0.2,0.2-0.4,0.4c-0.2,0.2-0.5,0.3-0.8,0.4c-0.3,0.1-0.7,0.2-1.2,0.2c-0.6,0-1.1-0.1-1.5-0.4c-0.4-0.3-0.8-0.6-1-1.1
	c-0.2-0.5-0.4-1-0.4-1.6c0-0.5,0.1-1,0.3-1.5c0.2-0.4,0.6-0.8,1-1c0.4-0.3,0.9-0.4,1.5-0.4c0.6,0,1.2,0.2,1.6,0.5
	c0.4,0.3,0.7,0.7,0.9,1.2c0.2,0.5,0.3,1,0.3,1.6h-4.4c0,0.3,0.1,0.6,0.3,0.9c0.2,0.3,0.4,0.5,0.7,0.6c0.3,0.1,0.6,0.2,0.9,0.2
	c0.5,0,0.9-0.1,1.2-0.2C176.2,49.8,176.4,49.7,176.5,49.5z M172.9,47.7h3.3c0-0.4-0.2-0.8-0.5-1.1c-0.3-0.3-0.7-0.5-1.2-0.5
	c-0.3,0-0.6,0.1-0.9,0.2c-0.2,0.2-0.4,0.3-0.6,0.6C173,47.2,172.9,47.5,172.9,47.7z M181.1,51v-4.7h-1v-0.9h1V45
	c0-0.5,0.1-0.9,0.3-1.2c0.2-0.3,0.4-0.6,0.7-0.7c0.3-0.2,0.6-0.2,0.9-0.2c0.3,0,0.6,0,0.9,0.1c0.3,0.1,0.6,0.2,0.8,0.5l-0.5,0.7
	c-0.3-0.2-0.6-0.4-0.9-0.4c-0.3,0-0.6,0.1-0.8,0.3c-0.2,0.2-0.3,0.5-0.3,1v0.4h1.6v0.9h-1.6V51H181.1z M187.9,51l0-0.7
	c-0.2,0.3-0.5,0.5-0.8,0.6c-0.3,0.1-0.7,0.2-1,0.2c-0.3,0-0.6-0.1-0.9-0.2c-0.3-0.1-0.5-0.3-0.7-0.6c-0.2-0.3-0.3-0.6-0.3-1
	c0-0.6,0.2-1.1,0.6-1.4c0.4-0.4,1-0.5,1.8-0.5c0.2,0,0.4,0,0.5,0c0.2,0,0.4,0,0.5,0c0.2,0,0.3,0,0.3,0v-0.2c0-0.4-0.1-0.7-0.4-0.9
	c-0.2-0.2-0.6-0.3-1-0.3c-0.4,0-0.8,0.1-1,0.2c-0.2,0.1-0.5,0.2-0.6,0.3l-0.5-0.7c0.2-0.2,0.5-0.3,0.8-0.5s0.8-0.2,1.4-0.2
	c0.7,0,1.3,0.2,1.7,0.5c0.4,0.3,0.6,0.8,0.6,1.5v3.3c0,0.1,0,0.1,0,0.2c0,0.1,0,0.2,0,0.3H187.9z M187.9,49v-0.6c0,0-0.1,0-0.3,0
	c-0.1,0-0.3,0-0.5,0c-0.2,0-0.3,0-0.5,0c-0.4,0-0.7,0.1-0.9,0.2c-0.2,0.1-0.4,0.3-0.4,0.4c-0.1,0.2-0.1,0.3-0.1,0.5
	c0,0.3,0.1,0.5,0.3,0.7c0.2,0.2,0.5,0.2,0.9,0.2c0.3,0,0.5-0.1,0.8-0.2c0.2-0.1,0.4-0.3,0.6-0.5C187.8,49.4,187.9,49.2,187.9,49z
	 M194.6,49.5l0.7,0.7c-0.2,0.3-0.6,0.5-0.9,0.7c-0.4,0.2-0.8,0.3-1.3,0.3c-0.6,0-1.1-0.1-1.6-0.4c-0.4-0.3-0.8-0.6-1-1
	c-0.2-0.4-0.4-1-0.4-1.5c0-0.5,0.1-1,0.4-1.5c0.2-0.4,0.6-0.8,1-1.1c0.4-0.3,1-0.4,1.5-0.4c0.5,0,0.9,0.1,1.2,0.3s0.7,0.4,0.9,0.7
	l-0.7,0.7c-0.2-0.2-0.4-0.4-0.6-0.5s-0.5-0.2-0.9-0.2c-0.4,0-0.7,0.1-1,0.3c-0.3,0.2-0.5,0.4-0.6,0.7s-0.2,0.6-0.2,1
	c0,0.3,0.1,0.7,0.2,1c0.2,0.3,0.4,0.6,0.6,0.7c0.3,0.2,0.6,0.3,1,0.3c0.3,0,0.6-0.1,0.9-0.2C194.2,49.9,194.4,49.7,194.6,49.5z
	 M196.8,49.2v-2.9h-1v-0.9h1v-1.8h1.1v1.8h1.6v0.9h-1.6v2.7c0,0.4,0.1,0.8,0.2,0.9c0.1,0.2,0.3,0.3,0.6,0.3c0.2,0,0.4,0,0.5-0.1
	c0.1-0.1,0.3-0.2,0.4-0.3l0.5,0.7c-0.2,0.2-0.5,0.4-0.7,0.5c-0.2,0.1-0.5,0.2-0.9,0.2c-0.6,0-1-0.2-1.3-0.5
	C196.9,50.3,196.8,49.8,196.8,49.2z M203.2,51.2c-0.6,0-1.1-0.1-1.5-0.4c-0.4-0.3-0.8-0.6-1.1-1.1c-0.2-0.5-0.4-1-0.4-1.5
	c0-0.5,0.1-1,0.4-1.5c0.3-0.4,0.6-0.8,1.1-1.1c0.4-0.3,1-0.4,1.5-0.4s1.1,0.1,1.5,0.4c0.4,0.3,0.8,0.6,1.1,1.1
	c0.3,0.4,0.4,0.9,0.4,1.5c0,0.5-0.1,1-0.4,1.5c-0.3,0.4-0.6,0.8-1.1,1.1C204.3,51,203.8,51.2,203.2,51.2z M203.2,50.2
	c0.4,0,0.7-0.1,1-0.3c0.3-0.2,0.5-0.5,0.6-0.8c0.2-0.3,0.2-0.6,0.2-1c0-0.3-0.1-0.7-0.2-1c-0.1-0.3-0.4-0.6-0.6-0.8
	c-0.3-0.2-0.6-0.3-1-0.3s-0.7,0.1-1,0.3c-0.3,0.2-0.5,0.4-0.6,0.8c-0.1,0.3-0.2,0.6-0.2,1c0,0.3,0.1,0.7,0.2,1
	c0.2,0.3,0.4,0.6,0.6,0.8C202.5,50.1,202.9,50.2,203.2,50.2z M208.5,51h-1.1v-5c0-0.1,0-0.1,0-0.2c0-0.1,0-0.2,0-0.3h1l0,0.9
	c0.1-0.1,0.2-0.3,0.4-0.4c0.2-0.2,0.4-0.3,0.6-0.4c0.2-0.1,0.5-0.2,0.9-0.2c0.1,0,0.2,0,0.3,0c0.1,0,0.2,0,0.3,0.1l-0.2,1
	c-0.1-0.1-0.3-0.1-0.6-0.1c-0.3,0-0.6,0.1-0.8,0.2c-0.2,0.2-0.4,0.4-0.6,0.6c-0.1,0.3-0.2,0.5-0.2,0.9V51z M214.4,49.2v-2.9h-1v-0.9
	h1v-1.8h1.1v1.8h1.6v0.9h-1.6v2.7c0,0.4,0.1,0.8,0.2,0.9c0.1,0.2,0.3,0.3,0.6,0.3c0.2,0,0.4,0,0.5-0.1c0.1-0.1,0.3-0.2,0.4-0.3
	l0.5,0.7c-0.2,0.2-0.5,0.4-0.7,0.5c-0.2,0.1-0.5,0.2-0.9,0.2c-0.6,0-1-0.2-1.3-0.5C214.6,50.3,214.4,49.8,214.4,49.2z M220.9,51.2
	c-0.6,0-1.1-0.1-1.5-0.4c-0.4-0.3-0.8-0.6-1.1-1.1c-0.2-0.5-0.4-1-0.4-1.5c0-0.5,0.1-1,0.4-1.5c0.3-0.4,0.6-0.8,1.1-1.1
	c0.4-0.3,1-0.4,1.5-0.4c0.6,0,1.1,0.1,1.5,0.4c0.4,0.3,0.8,0.6,1.1,1.1c0.3,0.4,0.4,0.9,0.4,1.5c0,0.5-0.1,1-0.4,1.5
	c-0.3,0.4-0.6,0.8-1.1,1.1C222,51,221.5,51.2,220.9,51.2z M220.9,50.2c0.4,0,0.7-0.1,1-0.3c0.3-0.2,0.5-0.5,0.6-0.8
	c0.2-0.3,0.2-0.6,0.2-1c0-0.3-0.1-0.7-0.2-1c-0.1-0.3-0.4-0.6-0.6-0.8c-0.3-0.2-0.6-0.3-1-0.3c-0.4,0-0.7,0.1-1,0.3
	c-0.3,0.2-0.5,0.4-0.6,0.8c-0.1,0.3-0.2,0.6-0.2,1c0,0.3,0.1,0.7,0.2,1c0.2,0.3,0.4,0.6,0.6,0.8C220.2,50.1,220.5,50.2,220.9,50.2z
	 M231.4,49.5l0.7,0.7c-0.2,0.3-0.6,0.5-0.9,0.7c-0.4,0.2-0.8,0.3-1.3,0.3c-0.6,0-1.1-0.1-1.6-0.4c-0.4-0.3-0.8-0.6-1-1
	c-0.2-0.4-0.4-1-0.4-1.5c0-0.5,0.1-1,0.4-1.5c0.2-0.4,0.6-0.8,1-1.1c0.4-0.3,1-0.4,1.5-0.4c0.5,0,0.9,0.1,1.2,0.3s0.7,0.4,0.9,0.7
	l-0.7,0.7c-0.2-0.2-0.4-0.4-0.6-0.5s-0.5-0.2-0.9-0.2c-0.4,0-0.7,0.1-1,0.3c-0.3,0.2-0.5,0.4-0.6,0.7s-0.2,0.6-0.2,1
	c0,0.3,0.1,0.7,0.2,1c0.2,0.3,0.4,0.6,0.6,0.7c0.3,0.2,0.6,0.3,1,0.3c0.3,0,0.6-0.1,0.9-0.2C231,49.9,231.3,49.7,231.4,49.5z
	 M235.5,51.2c-0.6,0-1.1-0.1-1.5-0.4c-0.4-0.3-0.8-0.6-1.1-1.1c-0.2-0.5-0.4-1-0.4-1.5c0-0.5,0.1-1,0.4-1.5c0.3-0.4,0.6-0.8,1.1-1.1
	c0.4-0.3,1-0.4,1.5-0.4c0.6,0,1.1,0.1,1.5,0.4c0.4,0.3,0.8,0.6,1.1,1.1c0.3,0.4,0.4,0.9,0.4,1.5c0,0.5-0.1,1-0.4,1.5
	c-0.3,0.4-0.6,0.8-1.1,1.1C236.6,51,236.1,51.2,235.5,51.2z M235.5,50.2c0.4,0,0.7-0.1,1-0.3c0.3-0.2,0.5-0.5,0.6-0.8
	c0.2-0.3,0.2-0.6,0.2-1c0-0.3-0.1-0.7-0.2-1c-0.1-0.3-0.4-0.6-0.6-0.8c-0.3-0.2-0.6-0.3-1-0.3s-0.7,0.1-1,0.3
	c-0.3,0.2-0.5,0.4-0.6,0.8c-0.1,0.3-0.2,0.6-0.2,1c0,0.3,0.1,0.7,0.2,1c0.2,0.3,0.4,0.6,0.6,0.8C234.8,50.1,235.1,50.2,235.5,50.2z
	 M240.8,51h-1.1v-5c0-0.1,0-0.1,0-0.2c0-0.1,0-0.2,0-0.4h1l0,0.8c0.1-0.1,0.2-0.3,0.4-0.4c0.2-0.2,0.4-0.3,0.6-0.4
	c0.2-0.1,0.5-0.2,0.9-0.2c0.7,0,1.3,0.2,1.6,0.6c0.4,0.4,0.5,1,0.5,1.7V51h-1.1v-3.3c0-0.5-0.1-0.9-0.3-1.1
	c-0.2-0.2-0.5-0.4-0.9-0.4c-0.4,0-0.7,0.1-1,0.3c-0.2,0.2-0.4,0.5-0.5,0.8c-0.1,0.3-0.1,0.7-0.1,1V51z M245.9,50.3l0.7-0.7
	c0.2,0.2,0.4,0.4,0.7,0.5s0.6,0.2,1,0.2c0.4,0,0.7-0.1,0.9-0.2c0.2-0.1,0.4-0.3,0.4-0.6c0-0.2,0-0.3-0.1-0.4
	c-0.1-0.1-0.3-0.2-0.5-0.3c-0.2-0.1-0.6-0.2-1-0.3c-0.3-0.1-0.6-0.2-0.8-0.3c-0.3-0.1-0.5-0.3-0.7-0.5c-0.2-0.2-0.3-0.5-0.3-0.9
	c0-0.4,0.1-0.7,0.3-0.9c0.2-0.2,0.5-0.4,0.8-0.6c0.3-0.1,0.7-0.2,1.1-0.2c0.5,0,0.9,0.1,1.2,0.2c0.3,0.1,0.6,0.3,0.9,0.5l-0.6,0.7
	c-0.2-0.2-0.4-0.3-0.6-0.4c-0.2-0.1-0.5-0.2-0.9-0.2c-0.3,0-0.6,0.1-0.8,0.2c-0.2,0.1-0.3,0.3-0.3,0.6c0,0.2,0.1,0.4,0.4,0.5
	c0.3,0.1,0.6,0.2,1.1,0.3c0.4,0.1,0.7,0.2,0.9,0.3c0.3,0.1,0.5,0.3,0.7,0.5c0.2,0.2,0.3,0.5,0.3,0.9c0,0.4-0.1,0.7-0.3,0.9
	c-0.2,0.2-0.5,0.4-0.9,0.6c-0.4,0.1-0.7,0.2-1.1,0.2C247.2,51.2,246.4,50.9,245.9,50.3z M251.8,44.4v-1.2h1.2v1.2H251.8z M251.9,51
	v-5.6h1.1V51H251.9z M258.6,51l0-0.7c-0.1,0.1-0.2,0.2-0.3,0.3c-0.1,0.1-0.3,0.3-0.6,0.4c-0.2,0.1-0.6,0.2-0.9,0.2
	c-0.5,0-0.9-0.1-1.3-0.3c-0.4-0.2-0.7-0.6-0.9-1s-0.3-0.9-0.3-1.5c0-0.5,0.1-1,0.3-1.4c0.2-0.4,0.4-0.7,0.7-0.9
	c0.3-0.2,0.6-0.4,0.9-0.5c0.3-0.1,0.7-0.2,0.9-0.2c0.3,0,0.6,0,0.8,0.1c0.2,0.1,0.4,0.2,0.7,0.3V43h1.1v7.4c0,0,0,0.1,0,0.2
	c0,0.1,0,0.2,0,0.3H258.6z M258.5,48.6v-2c-0.1-0.1-0.3-0.2-0.6-0.3c-0.2-0.1-0.5-0.1-0.8-0.1c-0.5,0-1,0.2-1.3,0.6
	c-0.3,0.4-0.5,0.9-0.5,1.5c0,0.4,0.1,0.7,0.2,1c0.1,0.3,0.3,0.5,0.5,0.7c0.2,0.2,0.5,0.3,0.9,0.3c0.4,0,0.7-0.1,0.9-0.3
	c0.2-0.2,0.4-0.4,0.5-0.6C258.5,49.1,258.5,48.9,258.5,48.6z M265.6,49.5l0.6,0.6c-0.1,0.1-0.2,0.2-0.4,0.4
	c-0.2,0.2-0.5,0.3-0.8,0.4c-0.3,0.1-0.7,0.2-1.2,0.2c-0.6,0-1.1-0.1-1.5-0.4c-0.4-0.3-0.8-0.6-1-1.1c-0.2-0.5-0.4-1-0.4-1.6
	c0-0.5,0.1-1,0.3-1.5c0.2-0.4,0.6-0.8,1-1c0.4-0.3,0.9-0.4,1.5-0.4c0.6,0,1.2,0.2,1.6,0.5s0.7,0.7,0.9,1.2c0.2,0.5,0.3,1,0.3,1.6
	H262c0,0.3,0.1,0.6,0.3,0.9c0.2,0.3,0.4,0.5,0.7,0.6c0.3,0.1,0.6,0.2,0.9,0.2c0.5,0,0.9-0.1,1.2-0.2
	C265.3,49.8,265.5,49.7,265.6,49.5z M262,47.7h3.3c0-0.4-0.2-0.8-0.5-1.1c-0.3-0.3-0.7-0.5-1.2-0.5c-0.3,0-0.6,0.1-0.9,0.2
	c-0.2,0.2-0.4,0.3-0.6,0.6C262,47.2,262,47.5,262,47.7z M268.6,51h-1.1v-5c0-0.1,0-0.1,0-0.2c0-0.1,0-0.2,0-0.3h1l0,0.9
	c0.1-0.1,0.2-0.3,0.4-0.4c0.2-0.2,0.4-0.3,0.6-0.4c0.2-0.1,0.5-0.2,0.9-0.2c0.1,0,0.2,0,0.3,0c0.1,0,0.2,0,0.3,0.1l-0.2,1
	c-0.1-0.1-0.3-0.1-0.6-0.1c-0.3,0-0.6,0.1-0.8,0.2c-0.2,0.2-0.4,0.4-0.6,0.6c-0.1,0.3-0.2,0.5-0.2,0.9V51z M17,63l-1.9-5.6h1.2
	l1.2,4.3l1.3-4.3h0.9l1.3,4.3l1.2-4.3h1.1L21.7,63h-1.1l-1.3-3.9L18,63H17z M24.4,63v-8h1.1v3.3c0.1-0.1,0.2-0.3,0.4-0.4
	c0.2-0.2,0.4-0.3,0.6-0.4c0.2-0.1,0.5-0.2,0.9-0.2c0.7,0,1.3,0.2,1.6,0.6c0.4,0.4,0.5,1,0.5,1.7V63h-1.1v-3.3c0-0.5-0.1-0.9-0.3-1.1
	c-0.2-0.2-0.5-0.4-0.9-0.4c-0.4,0-0.7,0.1-1,0.3c-0.2,0.2-0.4,0.5-0.5,0.8c-0.1,0.3-0.1,0.7-0.1,1V63H24.4z M35.4,61.5l0.6,0.6
	c-0.1,0.1-0.2,0.2-0.4,0.4c-0.2,0.2-0.5,0.3-0.8,0.4c-0.3,0.1-0.7,0.2-1.2,0.2c-0.6,0-1.1-0.1-1.5-0.4c-0.4-0.3-0.8-0.6-1-1.1
	c-0.2-0.5-0.4-1-0.4-1.6c0-0.5,0.1-1,0.3-1.5c0.2-0.4,0.6-0.8,1-1c0.4-0.3,0.9-0.4,1.5-0.4c0.6,0,1.2,0.2,1.6,0.5
	c0.4,0.3,0.7,0.7,0.9,1.2c0.2,0.5,0.3,1,0.3,1.6h-4.4c0,0.3,0.1,0.6,0.3,0.9c0.2,0.3,0.4,0.5,0.7,0.6c0.3,0.1,0.6,0.2,0.9,0.2
	c0.5,0,0.9-0.1,1.2-0.2C35,61.8,35.3,61.7,35.4,61.5z M31.7,59.7H35c0-0.4-0.2-0.8-0.5-1.1c-0.3-0.3-0.7-0.5-1.2-0.5
	c-0.3,0-0.6,0.1-0.9,0.2c-0.2,0.2-0.4,0.3-0.6,0.6C31.8,59.2,31.8,59.5,31.7,59.7z M38.4,63h-1.1v-5c0-0.1,0-0.1,0-0.2
	c0-0.1,0-0.2,0-0.4h1l0,0.8c0.1-0.1,0.2-0.3,0.4-0.4c0.2-0.2,0.4-0.3,0.6-0.4c0.2-0.1,0.5-0.2,0.9-0.2c0.7,0,1.3,0.2,1.6,0.6
	c0.4,0.4,0.5,1,0.5,1.7V63h-1.1v-3.3c0-0.5-0.1-0.9-0.3-1.1c-0.2-0.2-0.5-0.4-0.9-0.4c-0.4,0-0.7,0.1-1,0.3
	c-0.2,0.2-0.4,0.5-0.5,0.8c-0.1,0.3-0.1,0.7-0.1,1V63z M50.2,61.5l0.7,0.7c-0.2,0.3-0.6,0.5-0.9,0.7c-0.4,0.2-0.8,0.3-1.3,0.3
	c-0.6,0-1.1-0.1-1.6-0.4c-0.4-0.3-0.8-0.6-1-1c-0.2-0.4-0.4-1-0.4-1.5c0-0.5,0.1-1,0.4-1.5c0.2-0.4,0.6-0.8,1-1.1
	c0.4-0.3,1-0.4,1.5-0.4c0.5,0,0.9,0.1,1.2,0.3s0.7,0.4,0.9,0.7l-0.7,0.7c-0.2-0.2-0.4-0.4-0.6-0.5c-0.2-0.1-0.5-0.2-0.9-0.2
	c-0.4,0-0.7,0.1-1,0.3c-0.3,0.2-0.5,0.4-0.6,0.7c-0.1,0.3-0.2,0.6-0.2,1c0,0.3,0.1,0.7,0.2,1c0.2,0.3,0.4,0.6,0.6,0.7
	c0.3,0.2,0.6,0.3,1,0.3c0.3,0,0.6-0.1,0.9-0.2C49.9,61.9,50.1,61.7,50.2,61.5z M52,63v-8H53v3.3c0.1-0.1,0.2-0.3,0.4-0.4
	c0.2-0.2,0.4-0.3,0.6-0.4c0.2-0.1,0.5-0.2,0.9-0.2c0.7,0,1.3,0.2,1.6,0.6c0.4,0.4,0.5,1,0.5,1.7V63H56v-3.3c0-0.5-0.1-0.9-0.3-1.1
	c-0.2-0.2-0.5-0.4-0.9-0.4c-0.4,0-0.7,0.1-1,0.3c-0.2,0.2-0.4,0.5-0.5,0.8c-0.1,0.3-0.1,0.7-0.1,1V63H52z M61.2,63.2
	c-0.6,0-1.1-0.1-1.5-0.4c-0.4-0.3-0.8-0.6-1.1-1.1c-0.2-0.5-0.4-1-0.4-1.5c0-0.5,0.1-1,0.4-1.5c0.3-0.4,0.6-0.8,1.1-1.1
	c0.4-0.3,1-0.4,1.5-0.4s1.1,0.1,1.5,0.4c0.4,0.3,0.8,0.6,1.1,1.1c0.3,0.4,0.4,0.9,0.4,1.5c0,0.5-0.1,1-0.4,1.5
	c-0.3,0.4-0.6,0.8-1.1,1.1C62.2,63,61.7,63.2,61.2,63.2z M61.2,62.2c0.4,0,0.7-0.1,1-0.3c0.3-0.2,0.5-0.5,0.6-0.8
	c0.2-0.3,0.2-0.6,0.2-1c0-0.3-0.1-0.7-0.2-1c-0.1-0.3-0.4-0.6-0.6-0.8c-0.3-0.2-0.6-0.3-1-0.3s-0.7,0.1-1,0.3
	c-0.3,0.2-0.5,0.4-0.6,0.8c-0.1,0.3-0.2,0.6-0.2,1c0,0.3,0.1,0.7,0.2,1c0.2,0.3,0.4,0.6,0.6,0.8C60.5,62.1,60.8,62.2,61.2,62.2z
	 M68,63.2c-0.6,0-1.1-0.1-1.5-0.4c-0.4-0.3-0.8-0.6-1.1-1.1c-0.2-0.5-0.4-1-0.4-1.5c0-0.5,0.1-1,0.4-1.5c0.3-0.4,0.6-0.8,1.1-1.1
	c0.4-0.3,1-0.4,1.5-0.4s1.1,0.1,1.5,0.4c0.4,0.3,0.8,0.6,1.1,1.1c0.3,0.4,0.4,0.9,0.4,1.5c0,0.5-0.1,1-0.4,1.5
	c-0.3,0.4-0.6,0.8-1.1,1.1C69.1,63,68.6,63.2,68,63.2z M68,62.2c0.4,0,0.7-0.1,1-0.3c0.3-0.2,0.5-0.5,0.6-0.8c0.2-0.3,0.2-0.6,0.2-1
	c0-0.3-0.1-0.7-0.2-1c-0.1-0.3-0.4-0.6-0.6-0.8c-0.3-0.2-0.6-0.3-1-0.3c-0.4,0-0.7,0.1-1,0.3c-0.3,0.2-0.5,0.4-0.6,0.8
	c-0.1,0.3-0.2,0.6-0.2,1c0,0.3,0.1,0.7,0.2,1c0.2,0.3,0.4,0.6,0.6,0.8C67.3,62.1,67.7,62.2,68,62.2z M71.9,62.3l0.7-0.7
	c0.2,0.2,0.4,0.4,0.7,0.5s0.6,0.2,1,0.2c0.4,0,0.7-0.1,0.9-0.2c0.2-0.1,0.4-0.3,0.4-0.6c0-0.2,0-0.3-0.1-0.4s-0.3-0.2-0.5-0.3
	c-0.2-0.1-0.6-0.2-1-0.3c-0.3-0.1-0.6-0.2-0.8-0.3c-0.3-0.1-0.5-0.3-0.7-0.5c-0.2-0.2-0.3-0.5-0.3-0.9c0-0.4,0.1-0.7,0.3-0.9
	c0.2-0.2,0.5-0.4,0.8-0.6c0.3-0.1,0.7-0.2,1.1-0.2c0.5,0,0.9,0.1,1.2,0.2c0.3,0.1,0.6,0.3,0.9,0.5l-0.6,0.7
	c-0.2-0.2-0.4-0.3-0.6-0.4c-0.2-0.1-0.5-0.2-0.9-0.2c-0.3,0-0.6,0.1-0.8,0.2s-0.3,0.3-0.3,0.6c0,0.2,0.1,0.4,0.4,0.5
	c0.3,0.1,0.6,0.2,1.1,0.3c0.4,0.1,0.7,0.2,0.9,0.3c0.3,0.1,0.5,0.3,0.7,0.5c0.2,0.2,0.3,0.5,0.3,0.9c0,0.4-0.1,0.7-0.3,0.9
	c-0.2,0.2-0.5,0.4-0.9,0.6c-0.4,0.1-0.7,0.2-1.1,0.2C73.2,63.2,72.4,62.9,71.9,62.3z M77.9,56.4v-1.2h1.2v1.2H77.9z M77.9,63v-5.6
	H79V63H77.9z M81.6,63h-1.1v-5c0-0.1,0-0.1,0-0.2c0-0.1,0-0.2,0-0.4h1l0,0.8c0.1-0.1,0.2-0.3,0.4-0.4c0.2-0.2,0.4-0.3,0.6-0.4
	c0.2-0.1,0.5-0.2,0.9-0.2c0.7,0,1.3,0.2,1.6,0.6c0.4,0.4,0.5,1,0.5,1.7V63h-1.1v-3.3c0-0.5-0.1-0.9-0.3-1.1
	c-0.2-0.2-0.5-0.4-0.9-0.4c-0.4,0-0.7,0.1-1,0.3c-0.2,0.2-0.4,0.5-0.5,0.8c-0.1,0.3-0.1,0.7-0.1,1V63z M87.3,64.9l0.5-0.8
	c0.2,0.1,0.4,0.2,0.7,0.3c0.3,0.1,0.6,0.1,1,0.1c0.5,0,0.9-0.1,1.2-0.4c0.3-0.3,0.4-0.7,0.4-1.2v-0.7c-0.1,0.1-0.2,0.2-0.3,0.3
	c-0.1,0.1-0.3,0.2-0.6,0.3C89.9,63,89.7,63,89.3,63c-0.5,0-1-0.1-1.4-0.4c-0.4-0.2-0.7-0.6-0.9-1c-0.2-0.4-0.3-0.9-0.3-1.4
	c0-0.6,0.1-1.1,0.4-1.5c0.3-0.5,0.6-0.8,1.1-1.1s1-0.4,1.6-0.4c0.4,0,0.9,0,1.3,0.1c0.4,0.1,0.7,0.2,1,0.3V63c0,0.8-0.2,1.4-0.7,1.9
	s-1.1,0.7-2,0.7c-0.6,0-1-0.1-1.4-0.2C87.8,65.2,87.5,65.1,87.3,64.9z M91.1,60.7v-2.3c-0.1,0-0.2-0.1-0.4-0.1
	c-0.2,0-0.4-0.1-0.8-0.1c-0.4,0-0.8,0.1-1.1,0.3c-0.3,0.2-0.5,0.4-0.7,0.7c-0.2,0.3-0.3,0.7-0.3,1.1c0,0.3,0.1,0.6,0.2,0.9
	c0.1,0.3,0.3,0.5,0.5,0.7s0.5,0.3,0.9,0.3c0.4,0,0.7-0.1,0.9-0.2c0.2-0.1,0.4-0.3,0.5-0.5C91,61.2,91.1,61,91.1,60.7z M99.3,63
	l0-0.7c-0.2,0.3-0.5,0.5-0.8,0.6c-0.3,0.1-0.7,0.2-1,0.2c-0.3,0-0.6-0.1-0.9-0.2c-0.3-0.1-0.5-0.3-0.7-0.6c-0.2-0.3-0.3-0.6-0.3-1
	c0-0.6,0.2-1.1,0.6-1.4c0.4-0.4,1-0.5,1.8-0.5c0.2,0,0.4,0,0.5,0c0.2,0,0.4,0,0.5,0c0.2,0,0.3,0,0.3,0v-0.2c0-0.4-0.1-0.7-0.4-0.9
	c-0.2-0.2-0.6-0.3-1-0.3c-0.4,0-0.8,0.1-1,0.2c-0.2,0.1-0.5,0.2-0.6,0.3l-0.5-0.7c0.2-0.2,0.5-0.3,0.8-0.5c0.4-0.2,0.8-0.2,1.4-0.2
	c0.7,0,1.3,0.2,1.7,0.5c0.4,0.3,0.6,0.8,0.6,1.5v3.3c0,0.1,0,0.1,0,0.2c0,0.1,0,0.2,0,0.3H99.3z M99.3,61v-0.6c0,0-0.1,0-0.3,0
	c-0.1,0-0.3,0-0.5,0c-0.2,0-0.3,0-0.5,0c-0.4,0-0.7,0.1-0.9,0.2c-0.2,0.1-0.4,0.3-0.4,0.4c-0.1,0.2-0.1,0.3-0.1,0.5
	c0,0.3,0.1,0.5,0.3,0.7s0.5,0.2,0.9,0.2c0.3,0,0.5-0.1,0.8-0.2c0.2-0.1,0.4-0.3,0.6-0.5C99.2,61.4,99.3,61.2,99.3,61z M103.7,62.3
	l0.7-0.7c0.2,0.2,0.4,0.4,0.7,0.5s0.6,0.2,1,0.2c0.4,0,0.7-0.1,0.9-0.2c0.2-0.1,0.4-0.3,0.4-0.6c0-0.2,0-0.3-0.1-0.4
	c-0.1-0.1-0.3-0.2-0.5-0.3c-0.2-0.1-0.6-0.2-1-0.3c-0.3-0.1-0.6-0.2-0.8-0.3c-0.3-0.1-0.5-0.3-0.7-0.5c-0.2-0.2-0.3-0.5-0.3-0.9
	c0-0.4,0.1-0.7,0.3-0.9c0.2-0.2,0.5-0.4,0.8-0.6c0.3-0.1,0.7-0.2,1.1-0.2c0.5,0,0.9,0.1,1.2,0.2c0.3,0.1,0.6,0.3,0.9,0.5l-0.6,0.7
	c-0.2-0.2-0.4-0.3-0.6-0.4c-0.2-0.1-0.5-0.2-0.9-0.2c-0.3,0-0.6,0.1-0.8,0.2c-0.2,0.1-0.3,0.3-0.3,0.6c0,0.2,0.1,0.4,0.4,0.5
	c0.3,0.1,0.6,0.2,1.1,0.3c0.4,0.1,0.7,0.2,0.9,0.3c0.3,0.1,0.5,0.3,0.7,0.5c0.2,0.2,0.3,0.5,0.3,0.9c0,0.4-0.1,0.7-0.3,0.9
	c-0.2,0.2-0.5,0.4-0.9,0.6c-0.4,0.1-0.7,0.2-1.1,0.2C105,63.2,104.2,62.9,103.7,62.3z M109.6,60.8v-3.3h1.1v3.3
	c0,0.5,0.1,0.9,0.3,1.1c0.2,0.2,0.5,0.4,0.9,0.4c0.4,0,0.7-0.1,1-0.3c0.2-0.2,0.4-0.5,0.5-0.8c0.1-0.3,0.2-0.7,0.2-1v-2.6h1.1v5
	c0,0,0,0.1,0,0.2c0,0.1,0,0.2,0,0.3h-1l0-0.8c-0.1,0.1-0.2,0.3-0.4,0.4c-0.2,0.1-0.4,0.3-0.6,0.4c-0.2,0.1-0.5,0.2-0.9,0.2
	c-0.7,0-1.3-0.2-1.6-0.6C109.7,62.1,109.6,61.5,109.6,60.8z M117.2,65.4h-1.1V58c0-0.1,0-0.1,0-0.2c0-0.1,0-0.2,0-0.4h1l0,0.8
	c0.1-0.1,0.2-0.2,0.3-0.4c0.2-0.1,0.4-0.3,0.6-0.4c0.3-0.1,0.6-0.2,0.9-0.2c0.6,0,1,0.1,1.4,0.4c0.4,0.3,0.7,0.6,0.8,1.1
	c0.2,0.4,0.3,0.9,0.3,1.5c0,0.5-0.1,0.9-0.3,1.3c-0.2,0.4-0.4,0.7-0.7,0.9c-0.3,0.2-0.6,0.4-0.9,0.5c-0.3,0.1-0.7,0.2-1,0.2
	c-0.4,0-0.7,0-0.9-0.1c-0.2-0.1-0.4-0.2-0.6-0.2V65.4z M117.2,60.4v1.4c0.1,0.1,0.3,0.2,0.6,0.3c0.2,0.1,0.5,0.1,0.9,0.1
	c0.4,0,0.7-0.1,1-0.3c0.3-0.2,0.5-0.4,0.6-0.7c0.2-0.3,0.2-0.6,0.2-1c0-0.4-0.1-0.7-0.2-1c-0.1-0.3-0.3-0.5-0.5-0.7
	c-0.2-0.2-0.6-0.3-1-0.3c-0.4,0-0.7,0.1-1,0.3c-0.3,0.2-0.5,0.5-0.6,0.9c0,0.1-0.1,0.3-0.1,0.4C117.2,60,117.2,60.2,117.2,60.4z
	 M127.3,61.5l0.6,0.6c-0.1,0.1-0.2,0.2-0.4,0.4c-0.2,0.2-0.5,0.3-0.8,0.4c-0.3,0.1-0.7,0.2-1.2,0.2c-0.6,0-1.1-0.1-1.5-0.4
	c-0.4-0.3-0.8-0.6-1-1.1c-0.2-0.5-0.4-1-0.4-1.6c0-0.5,0.1-1,0.3-1.5c0.2-0.4,0.6-0.8,1-1c0.4-0.3,0.9-0.4,1.5-0.4
	c0.6,0,1.2,0.2,1.6,0.5s0.7,0.7,0.9,1.2c0.2,0.5,0.3,1,0.3,1.6h-4.4c0,0.3,0.1,0.6,0.3,0.9c0.2,0.3,0.4,0.5,0.7,0.6
	c0.3,0.1,0.6,0.2,0.9,0.2c0.5,0,0.9-0.1,1.2-0.2C126.9,61.8,127.2,61.7,127.3,61.5z M123.6,59.7h3.3c0-0.4-0.2-0.8-0.5-1.1
	c-0.3-0.3-0.7-0.5-1.2-0.5c-0.3,0-0.6,0.1-0.9,0.2c-0.2,0.2-0.4,0.3-0.6,0.6C123.7,59.2,123.7,59.5,123.6,59.7z M130.3,63h-1.1v-5
	c0-0.1,0-0.1,0-0.2c0-0.1,0-0.2,0-0.3h1l0,0.9c0.1-0.1,0.2-0.3,0.4-0.4c0.2-0.2,0.4-0.3,0.6-0.4c0.2-0.1,0.5-0.2,0.9-0.2
	c0.1,0,0.2,0,0.3,0c0.1,0,0.2,0,0.3,0.1l-0.2,1c-0.1-0.1-0.3-0.1-0.6-0.1c-0.3,0-0.6,0.1-0.8,0.2c-0.2,0.2-0.4,0.4-0.6,0.6
	s-0.2,0.5-0.2,0.9V63z M136.2,63v-4.7h-1v-0.9h1V57c0-0.5,0.1-0.9,0.3-1.2c0.2-0.3,0.4-0.6,0.7-0.7c0.3-0.2,0.6-0.2,0.9-0.2
	c0.3,0,0.6,0,0.9,0.1c0.3,0.1,0.6,0.2,0.8,0.5l-0.5,0.7c-0.3-0.2-0.6-0.4-0.9-0.4c-0.3,0-0.6,0.1-0.8,0.3c-0.2,0.2-0.3,0.5-0.3,1
	v0.4h1.6v0.9h-1.6V63H136.2z M139.7,60.8v-3.3h1.1v3.3c0,0.5,0.1,0.9,0.3,1.1c0.2,0.2,0.5,0.4,0.9,0.4c0.4,0,0.7-0.1,1-0.3
	c0.2-0.2,0.4-0.5,0.5-0.8c0.1-0.3,0.2-0.7,0.2-1v-2.6h1.1v5c0,0,0,0.1,0,0.2c0,0.1,0,0.2,0,0.3h-1l0-0.8c-0.1,0.1-0.2,0.3-0.4,0.4
	c-0.2,0.1-0.4,0.3-0.6,0.4c-0.2,0.1-0.5,0.2-0.9,0.2c-0.7,0-1.3-0.2-1.6-0.6S139.7,61.5,139.7,60.8z M147.3,63h-1.1v-5
	c0-0.1,0-0.1,0-0.2c0-0.1,0-0.2,0-0.4h1l0,0.8c0.1-0.1,0.2-0.3,0.4-0.4c0.2-0.2,0.4-0.3,0.6-0.4c0.2-0.1,0.5-0.2,0.9-0.2
	c0.7,0,1.3,0.2,1.6,0.6c0.4,0.4,0.5,1,0.5,1.7V63h-1.1v-3.3c0-0.5-0.1-0.9-0.3-1.1c-0.2-0.2-0.5-0.4-0.9-0.4c-0.4,0-0.7,0.1-1,0.3
	c-0.2,0.2-0.4,0.5-0.5,0.8c-0.1,0.3-0.1,0.7-0.1,1V63z M156.8,63l0-0.7c-0.1,0.1-0.2,0.2-0.3,0.3c-0.1,0.1-0.3,0.3-0.6,0.4
	c-0.2,0.1-0.6,0.2-0.9,0.2c-0.5,0-0.9-0.1-1.3-0.3c-0.4-0.2-0.7-0.6-0.9-1s-0.3-0.9-0.3-1.5c0-0.5,0.1-1,0.3-1.4
	c0.2-0.4,0.4-0.7,0.7-0.9c0.3-0.2,0.6-0.4,0.9-0.5c0.3-0.1,0.7-0.2,0.9-0.2c0.3,0,0.6,0,0.8,0.1c0.2,0.1,0.4,0.2,0.7,0.3V55h1.1v7.4
	c0,0,0,0.1,0,0.2c0,0.1,0,0.2,0,0.3H156.8z M156.8,60.6v-2c-0.1-0.1-0.3-0.2-0.6-0.3c-0.2-0.1-0.5-0.1-0.8-0.1c-0.5,0-1,0.2-1.3,0.6
	c-0.3,0.4-0.5,0.9-0.5,1.5c0,0.4,0.1,0.7,0.2,1c0.1,0.3,0.3,0.5,0.5,0.7c0.2,0.2,0.5,0.3,0.9,0.3c0.4,0,0.7-0.1,0.9-0.3
	c0.2-0.2,0.4-0.4,0.5-0.6C156.7,61.1,156.8,60.9,156.8,60.6z M159.5,63v-1.3h1.4V63H159.5z M167.1,63l-3.1-8h1.3l2.4,6.6l2.4-6.6
	h1.2l-3.1,8H167.1z M172.2,56.4v-1.2h1.2v1.2H172.2z M172.3,63v-5.6h1.1V63H172.3z M174.6,62.3l0.7-0.7c0.2,0.2,0.4,0.4,0.7,0.5
	c0.3,0.1,0.6,0.2,1,0.2c0.4,0,0.7-0.1,0.9-0.2c0.2-0.1,0.4-0.3,0.4-0.6c0-0.2,0-0.3-0.1-0.4c-0.1-0.1-0.3-0.2-0.5-0.3
	c-0.2-0.1-0.6-0.2-1-0.3c-0.3-0.1-0.6-0.2-0.8-0.3c-0.3-0.1-0.5-0.3-0.7-0.5c-0.2-0.2-0.3-0.5-0.3-0.9c0-0.4,0.1-0.7,0.3-0.9
	c0.2-0.2,0.5-0.4,0.8-0.6c0.3-0.1,0.7-0.2,1.1-0.2c0.5,0,0.9,0.1,1.2,0.2c0.3,0.1,0.6,0.3,0.9,0.5l-0.6,0.7
	c-0.2-0.2-0.4-0.3-0.6-0.4c-0.2-0.1-0.5-0.2-0.9-0.2c-0.3,0-0.6,0.1-0.8,0.2c-0.2,0.1-0.3,0.3-0.3,0.6c0,0.2,0.1,0.4,0.4,0.5
	c0.3,0.1,0.6,0.2,1.1,0.3c0.4,0.1,0.7,0.2,0.9,0.3c0.3,0.1,0.5,0.3,0.7,0.5c0.2,0.2,0.3,0.5,0.3,0.9c0,0.4-0.1,0.7-0.3,0.9
	c-0.2,0.2-0.5,0.4-0.9,0.6c-0.4,0.1-0.7,0.2-1.1,0.2C175.9,63.2,175.1,62.9,174.6,62.3z M180.5,56.4v-1.2h1.2v1.2H180.5z M180.6,63
	v-5.6h1.1V63H180.6z M183.7,61.2v-2.9h-1v-0.9h1v-1.8h1.1v1.8h1.6v0.9h-1.6v2.7c0,0.4,0.1,0.8,0.2,0.9c0.1,0.2,0.3,0.3,0.6,0.3
	c0.2,0,0.4,0,0.5-0.1c0.1-0.1,0.3-0.2,0.4-0.3l0.5,0.7c-0.2,0.2-0.5,0.4-0.7,0.5c-0.2,0.1-0.5,0.2-0.9,0.2c-0.6,0-1-0.2-1.3-0.5
	C183.8,62.3,183.7,61.8,183.7,61.2z M190,63v-8h1.1v3.3c0.1-0.1,0.2-0.3,0.4-0.4c0.2-0.2,0.4-0.3,0.6-0.4c0.2-0.1,0.5-0.2,0.9-0.2
	c0.7,0,1.3,0.2,1.6,0.6c0.4,0.4,0.5,1,0.5,1.7V63H194v-3.3c0-0.5-0.1-0.9-0.3-1.1c-0.2-0.2-0.5-0.4-0.9-0.4c-0.4,0-0.7,0.1-1,0.3
	c-0.2,0.2-0.4,0.5-0.5,0.8c-0.1,0.3-0.1,0.7-0.1,1V63H190z M199.2,63.2c-0.6,0-1.1-0.1-1.5-0.4c-0.4-0.3-0.8-0.6-1.1-1.1
	c-0.2-0.5-0.4-1-0.4-1.5c0-0.5,0.1-1,0.4-1.5c0.3-0.4,0.6-0.8,1.1-1.1c0.4-0.3,1-0.4,1.5-0.4c0.6,0,1.1,0.1,1.5,0.4
	c0.4,0.3,0.8,0.6,1.1,1.1c0.3,0.4,0.4,0.9,0.4,1.5c0,0.5-0.1,1-0.4,1.5c-0.3,0.4-0.6,0.8-1.1,1.1C200.3,63,199.8,63.2,199.2,63.2z
	 M199.2,62.2c0.4,0,0.7-0.1,1-0.3c0.3-0.2,0.5-0.5,0.6-0.8c0.2-0.3,0.2-0.6,0.2-1c0-0.3-0.1-0.7-0.2-1c-0.1-0.3-0.4-0.6-0.6-0.8
	c-0.3-0.2-0.6-0.3-1-0.3s-0.7,0.1-1,0.3c-0.3,0.2-0.5,0.4-0.6,0.8c-0.1,0.3-0.2,0.6-0.2,1c0,0.3,0.1,0.7,0.2,1
	c0.2,0.3,0.4,0.6,0.6,0.8C198.5,62.1,198.8,62.2,199.2,62.2z M203.1,62.3l0.7-0.7c0.2,0.2,0.4,0.4,0.7,0.5s0.6,0.2,1,0.2
	c0.4,0,0.7-0.1,0.9-0.2c0.2-0.1,0.4-0.3,0.4-0.6c0-0.2,0-0.3-0.1-0.4c-0.1-0.1-0.3-0.2-0.5-0.3c-0.2-0.1-0.6-0.2-1-0.3
	c-0.3-0.1-0.6-0.2-0.8-0.3c-0.3-0.1-0.5-0.3-0.7-0.5c-0.2-0.2-0.3-0.5-0.3-0.9c0-0.4,0.1-0.7,0.3-0.9c0.2-0.2,0.5-0.4,0.8-0.6
	c0.3-0.1,0.7-0.2,1.1-0.2c0.5,0,0.9,0.1,1.2,0.2c0.3,0.1,0.6,0.3,0.9,0.5l-0.6,0.7c-0.2-0.2-0.4-0.3-0.6-0.4
	c-0.2-0.1-0.5-0.2-0.9-0.2c-0.3,0-0.6,0.1-0.8,0.2c-0.2,0.1-0.3,0.3-0.3,0.6c0,0.2,0.1,0.4,0.4,0.5c0.3,0.1,0.6,0.2,1.1,0.3
	c0.4,0.1,0.7,0.2,0.9,0.3c0.3,0.1,0.5,0.3,0.7,0.5c0.2,0.2,0.3,0.5,0.3,0.9c0,0.4-0.1,0.7-0.3,0.9c-0.2,0.2-0.5,0.4-0.9,0.6
	c-0.4,0.1-0.7,0.2-1.1,0.2C204.4,63.2,203.6,62.9,203.1,62.3z M209.5,61.2v-2.9h-1v-0.9h1v-1.8h1.1v1.8h1.6v0.9h-1.6v2.7
	c0,0.4,0.1,0.8,0.2,0.9c0.1,0.2,0.3,0.3,0.6,0.3c0.2,0,0.4,0,0.5-0.1c0.1-0.1,0.3-0.2,0.4-0.3l0.5,0.7c-0.2,0.2-0.5,0.4-0.7,0.5
	c-0.2,0.1-0.5,0.2-0.9,0.2c-0.6,0-1-0.2-1.3-0.5C209.7,62.3,209.5,61.8,209.5,61.2z M214.7,65.4h-1.1V58c0-0.1,0-0.1,0-0.2
	c0-0.1,0-0.2,0-0.4h1l0,0.8c0.1-0.1,0.2-0.2,0.3-0.4c0.2-0.1,0.4-0.3,0.6-0.4c0.3-0.1,0.6-0.2,0.9-0.2c0.6,0,1,0.1,1.4,0.4
	c0.4,0.3,0.7,0.6,0.8,1.1c0.2,0.4,0.3,0.9,0.3,1.5c0,0.5-0.1,0.9-0.3,1.3c-0.2,0.4-0.4,0.7-0.7,0.9c-0.3,0.2-0.6,0.4-0.9,0.5
	c-0.3,0.1-0.7,0.2-1,0.2c-0.4,0-0.7,0-0.9-0.1c-0.2-0.1-0.4-0.2-0.6-0.2V65.4z M214.7,60.4v1.4c0.1,0.1,0.3,0.2,0.6,0.3
	c0.2,0.1,0.5,0.1,0.9,0.1c0.4,0,0.7-0.1,1-0.3c0.3-0.2,0.5-0.4,0.6-0.7c0.2-0.3,0.2-0.6,0.2-1c0-0.4-0.1-0.7-0.2-1
	c-0.1-0.3-0.3-0.5-0.5-0.7c-0.2-0.2-0.6-0.3-1-0.3c-0.4,0-0.7,0.1-1,0.3c-0.3,0.2-0.5,0.5-0.6,0.9c0,0.1-0.1,0.3-0.1,0.4
	C214.7,60,214.7,60.2,214.7,60.4z M220.3,63v-8h1.1v8H220.3z M222.8,60.8v-3.3h1.1v3.3c0,0.5,0.1,0.9,0.3,1.1
	c0.2,0.2,0.5,0.4,0.9,0.4c0.4,0,0.7-0.1,1-0.3c0.2-0.2,0.4-0.5,0.5-0.8c0.1-0.3,0.2-0.7,0.2-1v-2.6h1.1v5c0,0,0,0.1,0,0.2
	c0,0.1,0,0.2,0,0.3h-1l0-0.8c-0.1,0.1-0.2,0.3-0.4,0.4c-0.2,0.1-0.4,0.3-0.6,0.4c-0.2,0.1-0.5,0.2-0.9,0.2c-0.7,0-1.3-0.2-1.6-0.6
	C223,62.1,222.8,61.5,222.8,60.8z M229.1,62.3l0.7-0.7c0.2,0.2,0.4,0.4,0.7,0.5s0.6,0.2,1,0.2c0.4,0,0.7-0.1,0.9-0.2
	c0.2-0.1,0.4-0.3,0.4-0.6c0-0.2,0-0.3-0.1-0.4c-0.1-0.1-0.3-0.2-0.5-0.3c-0.2-0.1-0.6-0.2-1-0.3c-0.3-0.1-0.6-0.2-0.8-0.3
	c-0.3-0.1-0.5-0.3-0.7-0.5c-0.2-0.2-0.3-0.5-0.3-0.9c0-0.4,0.1-0.7,0.3-0.9c0.2-0.2,0.5-0.4,0.8-0.6c0.3-0.1,0.7-0.2,1.1-0.2
	c0.5,0,0.9,0.1,1.2,0.2c0.3,0.1,0.6,0.3,0.9,0.5l-0.6,0.7c-0.2-0.2-0.4-0.3-0.6-0.4c-0.2-0.1-0.5-0.2-0.9-0.2
	c-0.3,0-0.6,0.1-0.8,0.2c-0.2,0.1-0.3,0.3-0.3,0.6c0,0.2,0.1,0.4,0.4,0.5c0.3,0.1,0.6,0.2,1.1,0.3c0.4,0.1,0.7,0.2,0.9,0.3
	c0.3,0.1,0.5,0.3,0.7,0.5c0.2,0.2,0.3,0.5,0.3,0.9c0,0.4-0.1,0.7-0.3,0.9c-0.2,0.2-0.5,0.4-0.9,0.6c-0.4,0.1-0.7,0.2-1.1,0.2
	C230.4,63.2,229.6,62.9,229.1,62.3z M234.9,63v-1.3h1.4V63H234.9z M241.6,61.5l0.7,0.7c-0.2,0.3-0.6,0.5-0.9,0.7
	c-0.4,0.2-0.8,0.3-1.3,0.3c-0.6,0-1.1-0.1-1.6-0.4c-0.4-0.3-0.8-0.6-1-1c-0.2-0.4-0.4-1-0.4-1.5c0-0.5,0.1-1,0.4-1.5
	c0.2-0.4,0.6-0.8,1-1.1c0.4-0.3,1-0.4,1.5-0.4c0.5,0,0.9,0.1,1.2,0.3s0.7,0.4,0.9,0.7l-0.7,0.7c-0.2-0.2-0.4-0.4-0.6-0.5
	c-0.2-0.1-0.5-0.2-0.9-0.2c-0.4,0-0.7,0.1-1,0.3c-0.3,0.2-0.5,0.4-0.6,0.7s-0.2,0.6-0.2,1c0,0.3,0.1,0.7,0.2,1
	c0.2,0.3,0.4,0.6,0.6,0.7c0.3,0.2,0.6,0.3,1,0.3c0.3,0,0.6-0.1,0.9-0.2C241.2,61.9,241.4,61.7,241.6,61.5z M245.6,63.2
	c-0.6,0-1.1-0.1-1.5-0.4c-0.4-0.3-0.8-0.6-1.1-1.1c-0.2-0.5-0.4-1-0.4-1.5c0-0.5,0.1-1,0.4-1.5c0.3-0.4,0.6-0.8,1.1-1.1
	c0.4-0.3,1-0.4,1.5-0.4c0.6,0,1.1,0.1,1.5,0.4c0.4,0.3,0.8,0.6,1.1,1.1c0.3,0.4,0.4,0.9,0.4,1.5c0,0.5-0.1,1-0.4,1.5
	c-0.3,0.4-0.6,0.8-1.1,1.1C246.7,63,246.2,63.2,245.6,63.2z M245.6,62.2c0.4,0,0.7-0.1,1-0.3c0.3-0.2,0.5-0.5,0.6-0.8
	c0.2-0.3,0.2-0.6,0.2-1c0-0.3-0.1-0.7-0.2-1c-0.1-0.3-0.4-0.6-0.6-0.8c-0.3-0.2-0.6-0.3-1-0.3s-0.7,0.1-1,0.3
	c-0.3,0.2-0.5,0.4-0.6,0.8c-0.1,0.3-0.2,0.6-0.2,1c0,0.3,0.1,0.7,0.2,1c0.2,0.3,0.4,0.6,0.6,0.8C244.9,62.1,245.3,62.2,245.6,62.2z
	 M250.9,63h-1.1v-5c0-0.1,0-0.1,0-0.2c0-0.1,0-0.2,0-0.4h1l0,0.8c0.1-0.1,0.2-0.3,0.4-0.4c0.2-0.2,0.3-0.3,0.6-0.4
	c0.2-0.1,0.5-0.2,0.9-0.2c0.4,0,0.8,0.1,1.1,0.3c0.3,0.2,0.5,0.4,0.7,0.7c0.2-0.3,0.5-0.5,0.8-0.7c0.3-0.2,0.7-0.3,1.2-0.3
	c0.7,0,1.3,0.2,1.6,0.6c0.3,0.4,0.5,1,0.5,1.7V63h-1.1v-3.3c0-1-0.4-1.5-1.2-1.5c-0.3,0-0.6,0.1-0.8,0.2c-0.2,0.2-0.4,0.4-0.6,0.6
	c-0.1,0.2-0.2,0.5-0.2,0.8V63h-1.1v-3.3c0-0.5-0.1-0.9-0.3-1.1c-0.2-0.2-0.5-0.4-0.9-0.4c-0.4,0-0.7,0.1-0.9,0.3
	c-0.2,0.2-0.4,0.5-0.5,0.8c-0.1,0.3-0.1,0.7-0.1,1V63z M260.1,63v-1.3h1.4V63H260.1z M266.6,63l0-0.7c-0.2,0.3-0.5,0.5-0.8,0.6
	c-0.3,0.1-0.7,0.2-1,0.2c-0.3,0-0.6-0.1-0.9-0.2c-0.3-0.1-0.5-0.3-0.7-0.6c-0.2-0.3-0.3-0.6-0.3-1c0-0.6,0.2-1.1,0.6-1.4
	c0.4-0.4,1-0.5,1.8-0.5c0.2,0,0.4,0,0.5,0c0.2,0,0.4,0,0.5,0c0.2,0,0.3,0,0.3,0v-0.2c0-0.4-0.1-0.7-0.4-0.9c-0.2-0.2-0.6-0.3-1-0.3
	c-0.4,0-0.8,0.1-1,0.2c-0.2,0.1-0.5,0.2-0.6,0.3l-0.5-0.7c0.2-0.2,0.5-0.3,0.8-0.5c0.4-0.2,0.8-0.2,1.4-0.2c0.7,0,1.3,0.2,1.7,0.5
	c0.4,0.3,0.6,0.8,0.6,1.5v3.3c0,0.1,0,0.1,0,0.2c0,0.1,0,0.2,0,0.3H266.6z M266.6,61v-0.6c0,0-0.1,0-0.3,0c-0.1,0-0.3,0-0.5,0
	c-0.2,0-0.3,0-0.5,0c-0.4,0-0.7,0.1-0.9,0.2c-0.2,0.1-0.4,0.3-0.4,0.4c-0.1,0.2-0.1,0.3-0.1,0.5c0,0.3,0.1,0.5,0.3,0.7
	s0.5,0.2,0.9,0.2c0.3,0,0.5-0.1,0.8-0.2c0.2-0.1,0.4-0.3,0.6-0.5C266.5,61.4,266.6,61.2,266.6,61z M269,60.8v-3.3h1.1v3.3
	c0,0.5,0.1,0.9,0.3,1.1c0.2,0.2,0.5,0.4,0.9,0.4c0.4,0,0.7-0.1,1-0.3c0.2-0.2,0.4-0.5,0.5-0.8c0.1-0.3,0.2-0.7,0.2-1v-2.6h1.1v5
	c0,0,0,0.1,0,0.2c0,0.1,0,0.2,0,0.3h-1l0-0.8c-0.1,0.1-0.2,0.3-0.4,0.4c-0.2,0.1-0.4,0.3-0.6,0.4c-0.2,0.1-0.5,0.2-0.9,0.2
	c-0.7,0-1.3-0.2-1.6-0.6S269,61.5,269,60.8z M275.1,63.2l3.2-8.4h1.1l-3.2,8.4H275.1z M19.3,75l0-0.7c-0.2,0.3-0.5,0.5-0.8,0.6
	c-0.3,0.1-0.7,0.2-1,0.2c-0.3,0-0.6-0.1-0.9-0.2c-0.3-0.1-0.5-0.3-0.7-0.6c-0.2-0.3-0.3-0.6-0.3-1c0-0.6,0.2-1.1,0.6-1.4
	s1-0.5,1.8-0.5c0.2,0,0.4,0,0.5,0c0.2,0,0.4,0,0.5,0c0.2,0,0.3,0,0.3,0v-0.2c0-0.4-0.1-0.7-0.4-0.9c-0.2-0.2-0.6-0.3-1-0.3
	c-0.4,0-0.8,0.1-1,0.2c-0.2,0.1-0.5,0.2-0.6,0.3l-0.5-0.7c0.2-0.2,0.5-0.3,0.8-0.5c0.4-0.2,0.8-0.2,1.4-0.2c0.7,0,1.3,0.2,1.7,0.5
	c0.4,0.3,0.6,0.8,0.6,1.5v3.3c0,0.1,0,0.1,0,0.2c0,0.1,0,0.2,0,0.3H19.3z M19.2,73v-0.6c0,0-0.1,0-0.3,0c-0.1,0-0.3,0-0.5,0
	c-0.2,0-0.3,0-0.5,0c-0.4,0-0.7,0.1-0.9,0.2c-0.2,0.1-0.4,0.3-0.4,0.4c-0.1,0.2-0.1,0.3-0.1,0.5c0,0.3,0.1,0.5,0.3,0.7
	c0.2,0.2,0.5,0.2,0.9,0.2c0.3,0,0.5-0.1,0.8-0.2c0.2-0.1,0.4-0.3,0.6-0.5C19.1,73.4,19.2,73.2,19.2,73z M22.8,75l-1.9-5.6h1.2
	l1.2,4.3l1.3-4.3h0.9l1.3,4.3l1.2-4.3h1.1L27.5,75h-1.1l-1.3-3.9L23.8,75H22.8z M33.7,75l0-0.7c-0.2,0.3-0.5,0.5-0.8,0.6
	c-0.3,0.1-0.7,0.2-1,0.2c-0.3,0-0.6-0.1-0.9-0.2c-0.3-0.1-0.5-0.3-0.7-0.6c-0.2-0.3-0.3-0.6-0.3-1c0-0.6,0.2-1.1,0.6-1.4
	s1-0.5,1.8-0.5c0.2,0,0.4,0,0.5,0c0.2,0,0.4,0,0.5,0c0.2,0,0.3,0,0.3,0v-0.2c0-0.4-0.1-0.7-0.4-0.9c-0.2-0.2-0.6-0.3-1-0.3
	c-0.4,0-0.8,0.1-1,0.2c-0.2,0.1-0.5,0.2-0.6,0.3l-0.5-0.7c0.2-0.2,0.5-0.3,0.8-0.5c0.4-0.2,0.8-0.2,1.4-0.2c0.7,0,1.3,0.2,1.7,0.5
	c0.4,0.3,0.6,0.8,0.6,1.5v3.3c0,0.1,0,0.1,0,0.2c0,0.1,0,0.2,0,0.3H33.7z M33.7,73v-0.6c0,0-0.1,0-0.3,0c-0.1,0-0.3,0-0.5,0
	c-0.2,0-0.3,0-0.5,0c-0.4,0-0.7,0.1-0.9,0.2c-0.2,0.1-0.4,0.3-0.4,0.4c-0.1,0.2-0.1,0.3-0.1,0.5c0,0.3,0.1,0.5,0.3,0.7
	c0.2,0.2,0.5,0.2,0.9,0.2c0.3,0,0.5-0.1,0.8-0.2c0.2-0.1,0.4-0.3,0.6-0.5C33.6,73.4,33.7,73.2,33.7,73z M37.3,75h-1.1v-5
	c0-0.1,0-0.1,0-0.2s0-0.2,0-0.3h1l0,0.9c0.1-0.1,0.2-0.3,0.4-0.4c0.2-0.2,0.4-0.3,0.6-0.4c0.2-0.1,0.5-0.2,0.9-0.2
	c0.1,0,0.2,0,0.3,0c0.1,0,0.2,0,0.3,0.1l-0.2,1c-0.1-0.1-0.3-0.1-0.6-0.1c-0.3,0-0.6,0.1-0.8,0.2c-0.2,0.2-0.4,0.4-0.6,0.6
	s-0.2,0.5-0.2,0.9V75z M44.3,75l0-0.7c-0.1,0.1-0.2,0.2-0.3,0.3c-0.1,0.1-0.3,0.3-0.6,0.4c-0.2,0.1-0.6,0.2-0.9,0.2
	c-0.5,0-0.9-0.1-1.3-0.3c-0.4-0.2-0.7-0.6-0.9-1c-0.2-0.4-0.3-0.9-0.3-1.5c0-0.5,0.1-1,0.3-1.4c0.2-0.4,0.4-0.7,0.7-0.9
	c0.3-0.2,0.6-0.4,0.9-0.5c0.3-0.1,0.7-0.2,0.9-0.2c0.3,0,0.6,0,0.8,0.1c0.2,0.1,0.4,0.2,0.7,0.3V67h1.1v7.4c0,0,0,0.1,0,0.2
	c0,0.1,0,0.2,0,0.3H44.3z M44.3,72.6v-2c-0.1-0.1-0.3-0.2-0.6-0.3c-0.2-0.1-0.5-0.1-0.8-0.1c-0.5,0-1,0.2-1.3,0.6
	c-0.3,0.4-0.5,0.9-0.5,1.5c0,0.4,0.1,0.7,0.2,1c0.1,0.3,0.3,0.5,0.5,0.7c0.2,0.2,0.5,0.3,0.9,0.3c0.4,0,0.7-0.1,0.9-0.3
	c0.2-0.2,0.4-0.4,0.5-0.6C44.2,73.1,44.3,72.9,44.3,72.6z M46.6,74.3l0.7-0.7c0.2,0.2,0.4,0.4,0.7,0.5c0.3,0.1,0.6,0.2,1,0.2
	c0.4,0,0.7-0.1,0.9-0.2c0.2-0.1,0.4-0.3,0.4-0.6c0-0.2,0-0.3-0.1-0.4c-0.1-0.1-0.3-0.2-0.5-0.3c-0.2-0.1-0.6-0.2-1-0.3
	c-0.3-0.1-0.6-0.2-0.8-0.3c-0.3-0.1-0.5-0.3-0.7-0.5c-0.2-0.2-0.3-0.5-0.3-0.9c0-0.4,0.1-0.7,0.3-0.9c0.2-0.2,0.5-0.4,0.8-0.6
	c0.3-0.1,0.7-0.2,1.1-0.2c0.5,0,0.9,0.1,1.2,0.2c0.3,0.1,0.6,0.3,0.9,0.5l-0.6,0.7c-0.2-0.2-0.4-0.3-0.6-0.4
	c-0.2-0.1-0.5-0.2-0.9-0.2c-0.3,0-0.6,0.1-0.8,0.2s-0.3,0.3-0.3,0.6c0,0.2,0.1,0.4,0.4,0.5c0.3,0.1,0.6,0.2,1.1,0.3
	c0.4,0.1,0.7,0.2,0.9,0.3c0.3,0.1,0.5,0.3,0.7,0.5c0.2,0.2,0.3,0.5,0.3,0.9c0,0.4-0.1,0.7-0.3,0.9c-0.2,0.2-0.5,0.4-0.9,0.6
	c-0.4,0.1-0.7,0.2-1.1,0.2C47.9,75.2,47.1,74.9,46.6,74.3z M55.2,73.2v-2.9h-1v-0.9h1v-1.8h1.1v1.8h1.6v0.9h-1.6v2.7
	c0,0.4,0.1,0.8,0.2,0.9c0.1,0.2,0.3,0.3,0.6,0.3c0.2,0,0.4,0,0.5-0.1c0.1-0.1,0.3-0.2,0.4-0.3l0.5,0.7c-0.2,0.2-0.5,0.4-0.7,0.5
	c-0.2,0.1-0.5,0.2-0.9,0.2c-0.6,0-1-0.2-1.3-0.5C55.3,74.3,55.2,73.8,55.2,73.2z M61.6,75.2c-0.6,0-1.1-0.1-1.5-0.4
	c-0.4-0.3-0.8-0.6-1.1-1.1c-0.2-0.5-0.4-1-0.4-1.5c0-0.5,0.1-1,0.4-1.5c0.3-0.4,0.6-0.8,1.1-1.1c0.4-0.3,1-0.4,1.5-0.4
	s1.1,0.1,1.5,0.4c0.4,0.3,0.8,0.6,1.1,1.1c0.3,0.4,0.4,0.9,0.4,1.5c0,0.5-0.1,1-0.4,1.5c-0.3,0.4-0.6,0.8-1.1,1.1
	C62.7,75,62.2,75.2,61.6,75.2z M61.6,74.2c0.4,0,0.7-0.1,1-0.3c0.3-0.2,0.5-0.5,0.6-0.8c0.2-0.3,0.2-0.6,0.2-1c0-0.3-0.1-0.7-0.2-1
	c-0.1-0.3-0.4-0.6-0.6-0.8c-0.3-0.2-0.6-0.3-1-0.3s-0.7,0.1-1,0.3c-0.3,0.2-0.5,0.4-0.6,0.8c-0.1,0.3-0.2,0.6-0.2,1
	c0,0.3,0.1,0.7,0.2,1c0.2,0.3,0.4,0.6,0.6,0.8C60.9,74.1,61.2,74.2,61.6,74.2z M68,75v-8H69v8H68z M75,73.5l0.6,0.6
	c-0.1,0.1-0.2,0.2-0.4,0.4c-0.2,0.2-0.5,0.3-0.8,0.4c-0.3,0.1-0.7,0.2-1.2,0.2c-0.6,0-1.1-0.1-1.5-0.4c-0.4-0.3-0.8-0.6-1-1.1
	c-0.2-0.5-0.4-1-0.4-1.6c0-0.5,0.1-1,0.3-1.5c0.2-0.4,0.6-0.8,1-1c0.4-0.3,0.9-0.4,1.5-0.4c0.6,0,1.2,0.2,1.6,0.5
	c0.4,0.3,0.7,0.7,0.9,1.2c0.2,0.5,0.3,1,0.3,1.6h-4.4c0,0.3,0.1,0.6,0.3,0.9c0.2,0.3,0.4,0.5,0.7,0.6c0.3,0.1,0.6,0.2,0.9,0.2
	c0.5,0,0.9-0.1,1.2-0.2C74.6,73.8,74.9,73.7,75,73.5z M71.3,71.7h3.3c0-0.4-0.2-0.8-0.5-1.1c-0.3-0.3-0.7-0.5-1.2-0.5
	c-0.3,0-0.6,0.1-0.9,0.2s-0.4,0.3-0.6,0.6C71.4,71.2,71.4,71.5,71.3,71.7z M80.5,75l0-0.7c-0.2,0.3-0.5,0.5-0.8,0.6
	c-0.3,0.1-0.7,0.2-1,0.2c-0.3,0-0.6-0.1-0.9-0.2c-0.3-0.1-0.5-0.3-0.7-0.6c-0.2-0.3-0.3-0.6-0.3-1c0-0.6,0.2-1.1,0.6-1.4
	c0.4-0.4,1-0.5,1.8-0.5c0.2,0,0.4,0,0.5,0c0.2,0,0.4,0,0.5,0c0.2,0,0.3,0,0.3,0v-0.2c0-0.4-0.1-0.7-0.4-0.9c-0.2-0.2-0.6-0.3-1-0.3
	c-0.4,0-0.8,0.1-1,0.2c-0.2,0.1-0.5,0.2-0.6,0.3l-0.5-0.7c0.2-0.2,0.5-0.3,0.8-0.5c0.4-0.2,0.8-0.2,1.4-0.2c0.7,0,1.3,0.2,1.7,0.5
	c0.4,0.3,0.6,0.8,0.6,1.5v3.3c0,0.1,0,0.1,0,0.2c0,0.1,0,0.2,0,0.3H80.5z M80.4,73v-0.6c0,0-0.1,0-0.3,0c-0.1,0-0.3,0-0.5,0
	c-0.2,0-0.3,0-0.5,0c-0.4,0-0.7,0.1-0.9,0.2c-0.2,0.1-0.4,0.3-0.4,0.4c-0.1,0.2-0.1,0.3-0.1,0.5c0,0.3,0.1,0.5,0.3,0.7
	c0.2,0.2,0.5,0.2,0.9,0.2c0.3,0,0.5-0.1,0.8-0.2c0.2-0.1,0.4-0.3,0.6-0.5C80.4,73.4,80.4,73.2,80.4,73z M84,75h-1.1v-5
	c0-0.1,0-0.1,0-0.2s0-0.2,0-0.3h1l0,0.9c0.1-0.1,0.2-0.3,0.4-0.4c0.2-0.2,0.4-0.3,0.6-0.4s0.5-0.2,0.9-0.2c0.1,0,0.2,0,0.3,0
	c0.1,0,0.2,0,0.3,0.1l-0.2,1c-0.1-0.1-0.3-0.1-0.6-0.1c-0.3,0-0.6,0.1-0.8,0.2c-0.2,0.2-0.4,0.4-0.6,0.6c-0.1,0.3-0.2,0.5-0.2,0.9
	V75z M88.4,75h-1.1v-5c0-0.1,0-0.1,0-0.2c0-0.1,0-0.2,0-0.4h1l0,0.8c0.1-0.1,0.2-0.3,0.4-0.4c0.2-0.2,0.4-0.3,0.6-0.4
	c0.2-0.1,0.5-0.2,0.9-0.2c0.7,0,1.3,0.2,1.6,0.6c0.4,0.4,0.5,1,0.5,1.7V75h-1.1v-3.3c0-0.5-0.1-0.9-0.3-1.1
	c-0.2-0.2-0.5-0.4-0.9-0.4c-0.4,0-0.7,0.1-1,0.3c-0.2,0.2-0.4,0.5-0.5,0.8c-0.1,0.3-0.1,0.7-0.1,1V75z M97.1,75H96v-5
	c0-0.1,0-0.1,0-0.2c0-0.1,0-0.2,0-0.4h1l0,0.8c0.1-0.1,0.2-0.3,0.4-0.4c0.2-0.2,0.3-0.3,0.6-0.4c0.2-0.1,0.5-0.2,0.9-0.2
	c0.4,0,0.8,0.1,1.1,0.3c0.3,0.2,0.5,0.4,0.7,0.7c0.2-0.3,0.5-0.5,0.8-0.7c0.3-0.2,0.7-0.3,1.2-0.3c0.7,0,1.3,0.2,1.6,0.6
	c0.3,0.4,0.5,1,0.5,1.7V75h-1.1v-3.3c0-1-0.4-1.5-1.2-1.5c-0.3,0-0.6,0.1-0.8,0.2c-0.2,0.2-0.4,0.4-0.6,0.6
	c-0.1,0.2-0.2,0.5-0.2,0.8V75h-1.1v-3.3c0-0.5-0.1-0.9-0.3-1.1c-0.2-0.2-0.5-0.4-0.9-0.4c-0.4,0-0.7,0.1-0.9,0.3
	c-0.2,0.2-0.4,0.5-0.5,0.8c-0.1,0.3-0.1,0.7-0.1,1V75z M108.9,75.2c-0.6,0-1.1-0.1-1.5-0.4c-0.4-0.3-0.8-0.6-1.1-1.1
	c-0.2-0.5-0.4-1-0.4-1.5c0-0.5,0.1-1,0.4-1.5c0.3-0.4,0.6-0.8,1.1-1.1c0.4-0.3,1-0.4,1.5-0.4s1.1,0.1,1.5,0.4
	c0.4,0.3,0.8,0.6,1.1,1.1c0.3,0.4,0.4,0.9,0.4,1.5c0,0.5-0.1,1-0.4,1.5c-0.3,0.4-0.6,0.8-1.1,1.1C110,75,109.5,75.2,108.9,75.2z
	 M108.9,74.2c0.4,0,0.7-0.1,1-0.3c0.3-0.2,0.5-0.5,0.6-0.8c0.2-0.3,0.2-0.6,0.2-1c0-0.3-0.1-0.7-0.2-1c-0.1-0.3-0.4-0.6-0.6-0.8
	c-0.3-0.2-0.6-0.3-1-0.3s-0.7,0.1-1,0.3c-0.3,0.2-0.5,0.4-0.6,0.8c-0.1,0.3-0.2,0.6-0.2,1c0,0.3,0.1,0.7,0.2,1
	c0.2,0.3,0.4,0.6,0.6,0.8C108.2,74.1,108.5,74.2,108.9,74.2z M114.1,75h-1.1v-5c0-0.1,0-0.1,0-0.2s0-0.2,0-0.3h1l0,0.9
	c0.1-0.1,0.2-0.3,0.4-0.4c0.2-0.2,0.4-0.3,0.6-0.4s0.5-0.2,0.9-0.2c0.1,0,0.2,0,0.3,0c0.1,0,0.2,0,0.3,0.1l-0.2,1
	c-0.1-0.1-0.3-0.1-0.6-0.1c-0.3,0-0.6,0.1-0.8,0.2c-0.2,0.2-0.4,0.4-0.6,0.6c-0.1,0.3-0.2,0.5-0.2,0.9V75z M121.6,73.5l0.6,0.6
	c-0.1,0.1-0.2,0.2-0.4,0.4c-0.2,0.2-0.5,0.3-0.8,0.4c-0.3,0.1-0.7,0.2-1.2,0.2c-0.6,0-1.1-0.1-1.5-0.4c-0.4-0.3-0.8-0.6-1-1.1
	c-0.2-0.5-0.4-1-0.4-1.6c0-0.5,0.1-1,0.3-1.5c0.2-0.4,0.6-0.8,1-1c0.4-0.3,0.9-0.4,1.5-0.4c0.6,0,1.2,0.2,1.6,0.5
	c0.4,0.3,0.7,0.7,0.9,1.2c0.2,0.5,0.3,1,0.3,1.6H118c0,0.3,0.1,0.6,0.3,0.9c0.2,0.3,0.4,0.5,0.7,0.6c0.3,0.1,0.6,0.2,0.9,0.2
	c0.5,0,0.9-0.1,1.2-0.2C121.3,73.8,121.5,73.7,121.6,73.5z M118,71.7h3.3c0-0.4-0.2-0.8-0.5-1.1c-0.3-0.3-0.7-0.5-1.2-0.5
	c-0.3,0-0.6,0.1-0.9,0.2c-0.2,0.2-0.4,0.3-0.6,0.6C118.1,71.2,118,71.5,118,71.7z M129.3,75l0-0.7c-0.2,0.3-0.5,0.5-0.8,0.6
	c-0.3,0.1-0.7,0.2-1,0.2c-0.3,0-0.6-0.1-0.9-0.2c-0.3-0.1-0.5-0.3-0.7-0.6c-0.2-0.3-0.3-0.6-0.3-1c0-0.6,0.2-1.1,0.6-1.4
	c0.4-0.4,1-0.5,1.8-0.5c0.2,0,0.4,0,0.5,0c0.2,0,0.4,0,0.5,0c0.2,0,0.3,0,0.3,0v-0.2c0-0.4-0.1-0.7-0.4-0.9c-0.2-0.2-0.6-0.3-1-0.3
	c-0.4,0-0.8,0.1-1,0.2c-0.2,0.1-0.5,0.2-0.6,0.3l-0.5-0.7c0.2-0.2,0.5-0.3,0.8-0.5c0.4-0.2,0.8-0.2,1.4-0.2c0.7,0,1.3,0.2,1.7,0.5
	c0.4,0.3,0.6,0.8,0.6,1.5v3.3c0,0.1,0,0.1,0,0.2c0,0.1,0,0.2,0,0.3H129.3z M129.2,73v-0.6c0,0-0.1,0-0.3,0c-0.1,0-0.3,0-0.5,0
	c-0.2,0-0.3,0-0.5,0c-0.4,0-0.7,0.1-0.9,0.2c-0.2,0.1-0.4,0.3-0.4,0.4c-0.1,0.2-0.1,0.3-0.1,0.5c0,0.3,0.1,0.5,0.3,0.7
	c0.2,0.2,0.5,0.2,0.9,0.2c0.3,0,0.5-0.1,0.8-0.2c0.2-0.1,0.4-0.3,0.6-0.5C129.1,73.4,129.2,73.2,129.2,73z M131.7,74.8V67h1.1v3
	c0.1-0.2,0.3-0.3,0.6-0.5c0.3-0.2,0.7-0.3,1.1-0.3c0.6,0,1,0.1,1.4,0.4c0.4,0.3,0.7,0.6,0.9,1c0.2,0.4,0.3,0.9,0.3,1.5
	c0,0.6-0.1,1.1-0.4,1.6c-0.3,0.4-0.6,0.8-1.1,1.1c-0.5,0.3-1,0.4-1.6,0.4c-0.5,0-0.9,0-1.3-0.1C132.3,75,132,74.9,131.7,74.8z
	 M132.8,71.9v2.2c0.1,0,0.2,0.1,0.4,0.1c0.2,0,0.4,0,0.7,0c0.6,0,1.1-0.2,1.5-0.6c0.4-0.4,0.6-0.9,0.6-1.5c0-0.3-0.1-0.7-0.2-1
	c-0.1-0.3-0.3-0.5-0.5-0.7c-0.2-0.2-0.5-0.3-0.9-0.3c-0.3,0-0.6,0.1-0.9,0.2c-0.2,0.2-0.4,0.4-0.5,0.6
	C132.8,71.3,132.8,71.6,132.8,71.9z M141,75.2c-0.6,0-1.1-0.1-1.5-0.4c-0.4-0.3-0.8-0.6-1.1-1.1c-0.2-0.5-0.4-1-0.4-1.5
	c0-0.5,0.1-1,0.4-1.5c0.3-0.4,0.6-0.8,1.1-1.1c0.4-0.3,1-0.4,1.5-0.4s1.1,0.1,1.5,0.4c0.4,0.3,0.8,0.6,1.1,1.1
	c0.3,0.4,0.4,0.9,0.4,1.5c0,0.5-0.1,1-0.4,1.5c-0.3,0.4-0.6,0.8-1.1,1.1C142.1,75,141.6,75.2,141,75.2z M141,74.2
	c0.4,0,0.7-0.1,1-0.3c0.3-0.2,0.5-0.5,0.6-0.8c0.2-0.3,0.2-0.6,0.2-1c0-0.3-0.1-0.7-0.2-1c-0.1-0.3-0.4-0.6-0.6-0.8
	c-0.3-0.2-0.6-0.3-1-0.3s-0.7,0.1-1,0.3c-0.3,0.2-0.5,0.4-0.6,0.8c-0.1,0.3-0.2,0.6-0.2,1c0,0.3,0.1,0.7,0.2,1
	c0.2,0.3,0.4,0.6,0.6,0.8C140.3,74.1,140.6,74.2,141,74.2z M145.1,72.8v-3.3h1.1v3.3c0,0.5,0.1,0.9,0.3,1.1s0.5,0.4,0.9,0.4
	c0.4,0,0.7-0.1,1-0.3c0.2-0.2,0.4-0.5,0.5-0.8c0.1-0.3,0.2-0.7,0.2-1v-2.6h1.1v5c0,0,0,0.1,0,0.2c0,0.1,0,0.2,0,0.3h-1l0-0.8
	c-0.1,0.1-0.2,0.3-0.4,0.4c-0.2,0.1-0.4,0.3-0.6,0.4c-0.2,0.1-0.5,0.2-0.9,0.2c-0.7,0-1.3-0.2-1.6-0.6
	C145.3,74.1,145.1,73.5,145.1,72.8z M152.1,73.2v-2.9h-1v-0.9h1v-1.8h1.1v1.8h1.6v0.9h-1.6v2.7c0,0.4,0.1,0.8,0.2,0.9
	c0.1,0.2,0.3,0.3,0.6,0.3c0.2,0,0.4,0,0.5-0.1c0.1-0.1,0.3-0.2,0.4-0.3l0.5,0.7c-0.2,0.2-0.5,0.4-0.7,0.5c-0.2,0.1-0.5,0.2-0.9,0.2
	c-0.6,0-1-0.2-1.3-0.5C152.3,74.3,152.1,73.8,152.1,73.2z M161.1,75.2c-0.6,0-1.1-0.1-1.5-0.4c-0.4-0.3-0.8-0.6-1.1-1.1
	c-0.2-0.5-0.4-1-0.4-1.5c0-0.5,0.1-1,0.4-1.5c0.3-0.4,0.6-0.8,1.1-1.1c0.4-0.3,1-0.4,1.5-0.4c0.6,0,1.1,0.1,1.5,0.4
	c0.4,0.3,0.8,0.6,1.1,1.1c0.3,0.4,0.4,0.9,0.4,1.5c0,0.5-0.1,1-0.4,1.5c-0.3,0.4-0.6,0.8-1.1,1.1C162.2,75,161.7,75.2,161.1,75.2z
	 M161.1,74.2c0.4,0,0.7-0.1,1-0.3c0.3-0.2,0.5-0.5,0.6-0.8c0.2-0.3,0.2-0.6,0.2-1c0-0.3-0.1-0.7-0.2-1c-0.1-0.3-0.4-0.6-0.6-0.8
	c-0.3-0.2-0.6-0.3-1-0.3s-0.7,0.1-1,0.3c-0.3,0.2-0.5,0.4-0.6,0.8c-0.1,0.3-0.2,0.6-0.2,1c0,0.3,0.1,0.7,0.2,1
	c0.2,0.3,0.4,0.6,0.6,0.8C160.4,74.1,160.7,74.2,161.1,74.2z M165.3,72.8v-3.3h1.1v3.3c0,0.5,0.1,0.9,0.3,1.1
	c0.2,0.2,0.5,0.4,0.9,0.4c0.4,0,0.7-0.1,1-0.3c0.2-0.2,0.4-0.5,0.5-0.8c0.1-0.3,0.2-0.7,0.2-1v-2.6h1.1v5c0,0,0,0.1,0,0.2
	c0,0.1,0,0.2,0,0.3h-1l0-0.8c-0.1,0.1-0.2,0.3-0.4,0.4c-0.2,0.1-0.4,0.3-0.6,0.4c-0.2,0.1-0.5,0.2-0.9,0.2c-0.7,0-1.3-0.2-1.6-0.6
	C165.4,74.1,165.3,73.5,165.3,72.8z M172.9,75h-1.1v-5c0-0.1,0-0.1,0-0.2s0-0.2,0-0.3h1l0,0.9c0.1-0.1,0.2-0.3,0.4-0.4
	c0.2-0.2,0.4-0.3,0.6-0.4s0.5-0.2,0.9-0.2c0.1,0,0.2,0,0.3,0c0.1,0,0.2,0,0.3,0.1l-0.2,1c-0.1-0.1-0.3-0.1-0.6-0.1
	c-0.3,0-0.6,0.1-0.8,0.2c-0.2,0.2-0.4,0.4-0.6,0.6s-0.2,0.5-0.2,0.9V75z M181.9,75l0-0.7c-0.2,0.3-0.5,0.5-0.8,0.6
	c-0.3,0.1-0.7,0.2-1,0.2c-0.3,0-0.6-0.1-0.9-0.2c-0.3-0.1-0.5-0.3-0.7-0.6c-0.2-0.3-0.3-0.6-0.3-1c0-0.6,0.2-1.1,0.6-1.4
	c0.4-0.4,1-0.5,1.8-0.5c0.2,0,0.4,0,0.5,0c0.2,0,0.4,0,0.5,0c0.2,0,0.3,0,0.3,0v-0.2c0-0.4-0.1-0.7-0.4-0.9c-0.2-0.2-0.6-0.3-1-0.3
	c-0.4,0-0.8,0.1-1,0.2c-0.2,0.1-0.5,0.2-0.6,0.3l-0.5-0.7c0.2-0.2,0.5-0.3,0.8-0.5s0.8-0.2,1.4-0.2c0.7,0,1.3,0.2,1.7,0.5
	c0.4,0.3,0.6,0.8,0.6,1.5v3.3c0,0.1,0,0.1,0,0.2c0,0.1,0,0.2,0,0.3H181.9z M181.8,73v-0.6c0,0-0.1,0-0.3,0c-0.1,0-0.3,0-0.5,0
	c-0.2,0-0.3,0-0.5,0c-0.4,0-0.7,0.1-0.9,0.2c-0.2,0.1-0.4,0.3-0.4,0.4c-0.1,0.2-0.1,0.3-0.1,0.5c0,0.3,0.1,0.5,0.3,0.7
	c0.2,0.2,0.5,0.2,0.9,0.2c0.3,0,0.5-0.1,0.8-0.2c0.2-0.1,0.4-0.3,0.6-0.5C181.8,73.4,181.8,73.2,181.8,73z M185.4,75l-1.9-5.6h1.2
	l1.2,4.3l1.3-4.3h0.9l1.3,4.3l1.2-4.3h1.1l-1.8,5.6H189l-1.3-3.9l-1.3,3.9H185.4z M196.3,75l0-0.7c-0.2,0.3-0.5,0.5-0.8,0.6
	c-0.3,0.1-0.7,0.2-1,0.2c-0.3,0-0.6-0.1-0.9-0.2c-0.3-0.1-0.5-0.3-0.7-0.6c-0.2-0.3-0.3-0.6-0.3-1c0-0.6,0.2-1.1,0.6-1.4
	s1-0.5,1.8-0.5c0.2,0,0.4,0,0.5,0c0.2,0,0.4,0,0.5,0c0.2,0,0.3,0,0.3,0v-0.2c0-0.4-0.1-0.7-0.4-0.9c-0.2-0.2-0.6-0.3-1-0.3
	c-0.4,0-0.8,0.1-1,0.2c-0.2,0.1-0.5,0.2-0.6,0.3l-0.5-0.7c0.2-0.2,0.5-0.3,0.8-0.5c0.4-0.2,0.8-0.2,1.4-0.2c0.7,0,1.3,0.2,1.7,0.5
	c0.4,0.3,0.6,0.8,0.6,1.5v3.3c0,0.1,0,0.1,0,0.2c0,0.1,0,0.2,0,0.3H196.3z M196.3,73v-0.6c0,0-0.1,0-0.3,0c-0.1,0-0.3,0-0.5,0
	c-0.2,0-0.3,0-0.5,0c-0.4,0-0.7,0.1-0.9,0.2c-0.2,0.1-0.4,0.3-0.4,0.4c-0.1,0.2-0.1,0.3-0.1,0.5c0,0.3,0.1,0.5,0.3,0.7
	c0.2,0.2,0.5,0.2,0.9,0.2c0.3,0,0.5-0.1,0.8-0.2c0.2-0.1,0.4-0.3,0.6-0.5C196.2,73.4,196.3,73.2,196.3,73z M199.9,75h-1.1v-5
	c0-0.1,0-0.1,0-0.2s0-0.2,0-0.3h1l0,0.9c0.1-0.1,0.2-0.3,0.4-0.4c0.2-0.2,0.4-0.3,0.6-0.4s0.5-0.2,0.9-0.2c0.1,0,0.2,0,0.3,0
	c0.1,0,0.2,0,0.3,0.1l-0.2,1c-0.1-0.1-0.3-0.1-0.6-0.1c-0.3,0-0.6,0.1-0.8,0.2c-0.2,0.2-0.4,0.4-0.6,0.6s-0.2,0.5-0.2,0.9V75z
	 M206.9,75l0-0.7c-0.1,0.1-0.2,0.2-0.3,0.3c-0.1,0.1-0.3,0.3-0.6,0.4c-0.2,0.1-0.6,0.2-0.9,0.2c-0.5,0-0.9-0.1-1.3-0.3
	c-0.4-0.2-0.7-0.6-0.9-1c-0.2-0.4-0.3-0.9-0.3-1.5c0-0.5,0.1-1,0.3-1.4c0.2-0.4,0.4-0.7,0.7-0.9c0.3-0.2,0.6-0.4,0.9-0.5
	c0.3-0.1,0.7-0.2,0.9-0.2c0.3,0,0.6,0,0.8,0.1c0.2,0.1,0.4,0.2,0.7,0.3V67h1.1v7.4c0,0,0,0.1,0,0.2c0,0.1,0,0.2,0,0.3H206.9z
	 M206.9,72.6v-2c-0.1-0.1-0.3-0.2-0.6-0.3c-0.2-0.1-0.5-0.1-0.8-0.1c-0.5,0-1,0.2-1.3,0.6c-0.3,0.4-0.5,0.9-0.5,1.5
	c0,0.4,0.1,0.7,0.2,1c0.1,0.3,0.3,0.5,0.5,0.7c0.2,0.2,0.5,0.3,0.9,0.3c0.4,0,0.7-0.1,0.9-0.3c0.2-0.2,0.4-0.4,0.5-0.6
	C206.8,73.1,206.9,72.9,206.9,72.6z M209.2,74.3l0.7-0.7c0.2,0.2,0.4,0.4,0.7,0.5c0.3,0.1,0.6,0.2,1,0.2c0.4,0,0.7-0.1,0.9-0.2
	c0.2-0.1,0.4-0.3,0.4-0.6c0-0.2,0-0.3-0.1-0.4c-0.1-0.1-0.3-0.2-0.5-0.3c-0.2-0.1-0.6-0.2-1-0.3c-0.3-0.1-0.6-0.2-0.8-0.3
	c-0.3-0.1-0.5-0.3-0.7-0.5c-0.2-0.2-0.3-0.5-0.3-0.9c0-0.4,0.1-0.7,0.3-0.9c0.2-0.2,0.5-0.4,0.8-0.6c0.3-0.1,0.7-0.2,1.1-0.2
	c0.5,0,0.9,0.1,1.2,0.2c0.3,0.1,0.6,0.3,0.9,0.5l-0.6,0.7c-0.2-0.2-0.4-0.3-0.6-0.4c-0.2-0.1-0.5-0.2-0.9-0.2
	c-0.3,0-0.6,0.1-0.8,0.2c-0.2,0.1-0.3,0.3-0.3,0.6c0,0.2,0.1,0.4,0.4,0.5c0.3,0.1,0.6,0.2,1.1,0.3c0.4,0.1,0.7,0.2,0.9,0.3
	c0.3,0.1,0.5,0.3,0.7,0.5c0.2,0.2,0.3,0.5,0.3,0.9c0,0.4-0.1,0.7-0.3,0.9c-0.2,0.2-0.5,0.4-0.9,0.6c-0.4,0.1-0.7,0.2-1.1,0.2
	C210.5,75.2,209.7,74.9,209.2,74.3z M214.9,75v-1.3h1.4V75H214.9z M220.2,75v-8h1.2v8H220.2z M222.7,74.3l0.7-0.7
	c0.2,0.2,0.4,0.4,0.7,0.5c0.3,0.1,0.6,0.2,1,0.2c0.4,0,0.7-0.1,0.9-0.2c0.2-0.1,0.4-0.3,0.4-0.6c0-0.2,0-0.3-0.1-0.4
	c-0.1-0.1-0.3-0.2-0.5-0.3c-0.2-0.1-0.6-0.2-1-0.3c-0.3-0.1-0.6-0.2-0.8-0.3c-0.3-0.1-0.5-0.3-0.7-0.5c-0.2-0.2-0.3-0.5-0.3-0.9
	c0-0.4,0.1-0.7,0.3-0.9c0.2-0.2,0.5-0.4,0.8-0.6c0.3-0.1,0.7-0.2,1.1-0.2c0.5,0,0.9,0.1,1.2,0.2c0.3,0.1,0.6,0.3,0.9,0.5l-0.6,0.7
	c-0.2-0.2-0.4-0.3-0.6-0.4c-0.2-0.1-0.5-0.2-0.9-0.2c-0.3,0-0.6,0.1-0.8,0.2c-0.2,0.1-0.3,0.3-0.3,0.6c0,0.2,0.1,0.4,0.4,0.5
	c0.3,0.1,0.6,0.2,1.1,0.3c0.4,0.1,0.7,0.2,0.9,0.3c0.3,0.1,0.5,0.3,0.7,0.5c0.2,0.2,0.3,0.5,0.3,0.9c0,0.4-0.1,0.7-0.3,0.9
	c-0.2,0.2-0.5,0.4-0.9,0.6c-0.4,0.1-0.7,0.2-1.1,0.2C224.1,75.2,223.3,74.9,222.7,74.3z M228.4,74.3l0.7-0.7
	c0.2,0.2,0.4,0.4,0.7,0.5c0.3,0.1,0.6,0.2,1,0.2c0.4,0,0.7-0.1,0.9-0.2c0.2-0.1,0.4-0.3,0.4-0.6c0-0.2,0-0.3-0.1-0.4
	c-0.1-0.1-0.3-0.2-0.5-0.3c-0.2-0.1-0.6-0.2-1-0.3c-0.3-0.1-0.6-0.2-0.8-0.3c-0.3-0.1-0.5-0.3-0.7-0.5c-0.2-0.2-0.3-0.5-0.3-0.9
	c0-0.4,0.1-0.7,0.3-0.9c0.2-0.2,0.5-0.4,0.8-0.6c0.3-0.1,0.7-0.2,1.1-0.2c0.5,0,0.9,0.1,1.2,0.2c0.3,0.1,0.6,0.3,0.9,0.5l-0.6,0.7
	c-0.2-0.2-0.4-0.3-0.6-0.4c-0.2-0.1-0.5-0.2-0.9-0.2c-0.3,0-0.6,0.1-0.8,0.2c-0.2,0.1-0.3,0.3-0.3,0.6c0,0.2,0.1,0.4,0.4,0.5
	c0.3,0.1,0.6,0.2,1.1,0.3c0.4,0.1,0.7,0.2,0.9,0.3c0.3,0.1,0.5,0.3,0.7,0.5c0.2,0.2,0.3,0.5,0.3,0.9c0,0.4-0.1,0.7-0.3,0.9
	c-0.2,0.2-0.5,0.4-0.9,0.6c-0.4,0.1-0.7,0.2-1.1,0.2C229.7,75.2,228.9,74.9,228.4,74.3z M234.3,72.8v-3.3h1.1v3.3
	c0,0.5,0.1,0.9,0.3,1.1c0.2,0.2,0.5,0.4,0.9,0.4c0.4,0,0.7-0.1,1-0.3c0.2-0.2,0.4-0.5,0.5-0.8c0.1-0.3,0.2-0.7,0.2-1v-2.6h1.1v5
	c0,0,0,0.1,0,0.2c0,0.1,0,0.2,0,0.3h-1l0-0.8c-0.1,0.1-0.2,0.3-0.4,0.4c-0.2,0.1-0.4,0.3-0.6,0.4c-0.2,0.1-0.5,0.2-0.9,0.2
	c-0.7,0-1.3-0.2-1.6-0.6C234.5,74.1,234.3,73.5,234.3,72.8z M245.3,73.5l0.6,0.6c-0.1,0.1-0.2,0.2-0.4,0.4c-0.2,0.2-0.5,0.3-0.8,0.4
	c-0.3,0.1-0.7,0.2-1.2,0.2c-0.6,0-1.1-0.1-1.5-0.4c-0.4-0.3-0.8-0.6-1-1.1c-0.2-0.5-0.4-1-0.4-1.6c0-0.5,0.1-1,0.3-1.5
	c0.2-0.4,0.6-0.8,1-1c0.4-0.3,0.9-0.4,1.5-0.4c0.6,0,1.2,0.2,1.6,0.5c0.4,0.3,0.7,0.7,0.9,1.2s0.3,1,0.3,1.6h-4.4
	c0,0.3,0.1,0.6,0.3,0.9c0.2,0.3,0.4,0.5,0.7,0.6c0.3,0.1,0.6,0.2,0.9,0.2c0.5,0,0.9-0.1,1.2-0.2C245,73.8,245.2,73.7,245.3,73.5z
	 M241.7,71.7h3.3c0-0.4-0.2-0.8-0.5-1.1s-0.7-0.5-1.2-0.5c-0.3,0-0.6,0.1-0.9,0.2s-0.4,0.3-0.6,0.6
	C241.8,71.2,241.7,71.5,241.7,71.7z M251.4,75l0-0.7c-0.1,0.1-0.2,0.2-0.3,0.3c-0.1,0.1-0.3,0.3-0.6,0.4c-0.2,0.1-0.6,0.2-0.9,0.2
	c-0.5,0-0.9-0.1-1.3-0.3c-0.4-0.2-0.7-0.6-0.9-1c-0.2-0.4-0.3-0.9-0.3-1.5c0-0.5,0.1-1,0.3-1.4c0.2-0.4,0.4-0.7,0.7-0.9
	c0.3-0.2,0.6-0.4,0.9-0.5c0.3-0.1,0.7-0.2,0.9-0.2c0.3,0,0.6,0,0.8,0.1c0.2,0.1,0.4,0.2,0.7,0.3V67h1.1v7.4c0,0,0,0.1,0,0.2
	c0,0.1,0,0.2,0,0.3H251.4z M251.3,72.6v-2c-0.1-0.1-0.3-0.2-0.6-0.3c-0.2-0.1-0.5-0.1-0.8-0.1c-0.5,0-1,0.2-1.3,0.6
	c-0.3,0.4-0.5,0.9-0.5,1.5c0,0.4,0.1,0.7,0.2,1c0.1,0.3,0.3,0.5,0.5,0.7c0.2,0.2,0.5,0.3,0.9,0.3c0.4,0,0.7-0.1,0.9-0.3
	c0.2-0.2,0.4-0.4,0.5-0.6C251.3,73.1,251.3,72.9,251.3,72.6z M256.1,74.8V67h1.1v3c0.1-0.2,0.3-0.3,0.6-0.5c0.3-0.2,0.7-0.3,1.1-0.3
	c0.6,0,1,0.1,1.4,0.4c0.4,0.3,0.7,0.6,0.9,1c0.2,0.4,0.3,0.9,0.3,1.5c0,0.6-0.1,1.1-0.4,1.6c-0.3,0.4-0.6,0.8-1.1,1.1
	c-0.5,0.3-1,0.4-1.6,0.4c-0.5,0-0.9,0-1.3-0.1C256.6,75,256.3,74.9,256.1,74.8z M257.1,71.9v2.2c0.1,0,0.2,0.1,0.4,0.1
	c0.2,0,0.4,0,0.7,0c0.6,0,1.1-0.2,1.5-0.6c0.4-0.4,0.6-0.9,0.6-1.5c0-0.3-0.1-0.7-0.2-1c-0.1-0.3-0.3-0.5-0.5-0.7
	c-0.2-0.2-0.5-0.3-0.9-0.3c-0.3,0-0.6,0.1-0.9,0.2c-0.2,0.2-0.4,0.4-0.5,0.6C257.2,71.3,257.1,71.6,257.1,71.9z M261.9,77.1l0.5-0.8
	c0.1,0.1,0.2,0.1,0.3,0.2s0.2,0.1,0.4,0.1c0.3,0,0.4-0.1,0.6-0.3c0.1-0.2,0.3-0.6,0.5-1l0.1-0.4l-2.5-5.5h1.2l1.8,4.2l1.6-4.2h1.2
	l-2.2,5.4c-0.1,0.2-0.2,0.5-0.3,0.8c-0.1,0.3-0.2,0.6-0.4,0.9c-0.2,0.3-0.3,0.5-0.6,0.7c-0.2,0.2-0.5,0.3-0.9,0.3
	c-0.3,0-0.5,0-0.7-0.1C262.2,77.4,262,77.3,261.9,77.1z M15.9,87v-8h1.2v3.3h4.4V79h1.2v8h-1.2v-3.6h-4.4V87H15.9z M26.9,87.2
	c-0.6,0-1.1-0.1-1.5-0.4c-0.4-0.3-0.8-0.6-1.1-1.1c-0.2-0.5-0.4-1-0.4-1.5c0-0.5,0.1-1,0.4-1.5c0.3-0.4,0.6-0.8,1.1-1.1
	c0.4-0.3,1-0.4,1.5-0.4c0.6,0,1.1,0.1,1.5,0.4c0.4,0.3,0.8,0.6,1.1,1.1c0.3,0.4,0.4,0.9,0.4,1.5c0,0.5-0.1,1-0.4,1.5
	c-0.3,0.4-0.6,0.8-1.1,1.1C28,87,27.5,87.2,26.9,87.2z M26.9,86.2c0.4,0,0.7-0.1,1-0.3c0.3-0.2,0.5-0.5,0.6-0.8
	c0.2-0.3,0.2-0.6,0.2-1c0-0.3-0.1-0.7-0.2-1c-0.1-0.3-0.4-0.6-0.6-0.8c-0.3-0.2-0.6-0.3-1-0.3c-0.4,0-0.7,0.1-1,0.3
	c-0.3,0.2-0.5,0.4-0.6,0.8c-0.1,0.3-0.2,0.6-0.2,1c0,0.3,0.1,0.7,0.2,1c0.2,0.3,0.4,0.6,0.6,0.8C26.2,86.1,26.6,86.2,26.9,86.2z
	 M30.8,86.3l0.7-0.7c0.2,0.2,0.4,0.4,0.7,0.5c0.3,0.1,0.6,0.2,1,0.2c0.4,0,0.7-0.1,0.9-0.2c0.2-0.1,0.4-0.3,0.4-0.6
	c0-0.2,0-0.3-0.1-0.4c-0.1-0.1-0.3-0.2-0.5-0.3c-0.2-0.1-0.6-0.2-1-0.3c-0.3-0.1-0.6-0.2-0.8-0.3c-0.3-0.1-0.5-0.3-0.7-0.5
	c-0.2-0.2-0.3-0.5-0.3-0.9c0-0.4,0.1-0.7,0.3-0.9c0.2-0.2,0.5-0.4,0.8-0.6c0.3-0.1,0.7-0.2,1.1-0.2c0.5,0,0.9,0.1,1.2,0.2
	c0.3,0.1,0.6,0.3,0.9,0.5l-0.6,0.7c-0.2-0.2-0.4-0.3-0.6-0.4c-0.2-0.1-0.5-0.2-0.9-0.2c-0.3,0-0.6,0.1-0.8,0.2s-0.3,0.3-0.3,0.6
	c0,0.2,0.1,0.4,0.4,0.5c0.3,0.1,0.6,0.2,1.1,0.3c0.4,0.1,0.7,0.2,0.9,0.3c0.3,0.1,0.5,0.3,0.7,0.5c0.2,0.2,0.3,0.5,0.3,0.9
	c0,0.4-0.1,0.7-0.3,0.9c-0.2,0.2-0.5,0.4-0.9,0.6c-0.4,0.1-0.7,0.2-1.1,0.2C32.1,87.2,31.3,86.9,30.8,86.3z M37.3,85.2v-2.9h-1v-0.9
	h1v-1.8h1.1v1.8H40v0.9h-1.6v2.7c0,0.4,0.1,0.8,0.2,0.9c0.1,0.2,0.3,0.3,0.6,0.3c0.2,0,0.4,0,0.5-0.1c0.1-0.1,0.3-0.2,0.4-0.3
	l0.5,0.7c-0.2,0.2-0.5,0.4-0.7,0.5c-0.2,0.1-0.5,0.2-0.9,0.2c-0.6,0-1-0.2-1.3-0.5C37.4,86.3,37.3,85.8,37.3,85.2z M41.2,84.2v-1
	h3.5v1H41.2z M46.5,87v-8H49c0.5,0,1,0.1,1.3,0.2c0.4,0.1,0.6,0.3,0.9,0.6c0.2,0.2,0.4,0.5,0.4,0.8c0.1,0.3,0.1,0.6,0.1,0.8
	c0,0.5-0.1,1-0.3,1.3c-0.2,0.4-0.6,0.6-1,0.8c-0.4,0.2-0.9,0.3-1.4,0.3h-1.5V87H46.5z M47.6,82.9H49c0.5,0,0.9-0.1,1.1-0.4
	c0.3-0.3,0.4-0.6,0.4-1c0-0.4-0.1-0.8-0.4-1.1C49.9,80.1,49.5,80,49,80h-1.4V82.9z M52.8,87v-8h1.1v8H52.8z M55.4,84.8v-3.3h1.1v3.3
	c0,0.5,0.1,0.9,0.3,1.1s0.5,0.4,0.9,0.4c0.4,0,0.7-0.1,1-0.3c0.2-0.2,0.4-0.5,0.5-0.8c0.1-0.3,0.2-0.7,0.2-1v-2.6h1.1v5
	c0,0,0,0.1,0,0.2c0,0.1,0,0.2,0,0.3h-1l0-0.8c-0.1,0.1-0.2,0.3-0.4,0.4c-0.2,0.1-0.4,0.3-0.6,0.4c-0.2,0.1-0.5,0.2-0.9,0.2
	c-0.7,0-1.3-0.2-1.6-0.6C55.5,86.1,55.4,85.5,55.4,84.8z M61.6,86.3l0.7-0.7c0.2,0.2,0.4,0.4,0.7,0.5c0.3,0.1,0.6,0.2,1,0.2
	c0.4,0,0.7-0.1,0.9-0.2c0.2-0.1,0.4-0.3,0.4-0.6c0-0.2,0-0.3-0.1-0.4c-0.1-0.1-0.3-0.2-0.5-0.3c-0.2-0.1-0.6-0.2-1-0.3
	c-0.3-0.1-0.6-0.2-0.8-0.3c-0.3-0.1-0.5-0.3-0.7-0.5c-0.2-0.2-0.3-0.5-0.3-0.9c0-0.4,0.1-0.7,0.3-0.9c0.2-0.2,0.5-0.4,0.8-0.6
	c0.3-0.1,0.7-0.2,1.1-0.2c0.5,0,0.9,0.1,1.2,0.2c0.3,0.1,0.6,0.3,0.9,0.5l-0.6,0.7c-0.2-0.2-0.4-0.3-0.6-0.4
	c-0.2-0.1-0.5-0.2-0.9-0.2c-0.3,0-0.6,0.1-0.8,0.2s-0.3,0.3-0.3,0.6c0,0.2,0.1,0.4,0.4,0.5c0.3,0.1,0.6,0.2,1.1,0.3
	c0.4,0.1,0.7,0.2,0.9,0.3c0.3,0.1,0.5,0.3,0.7,0.5c0.2,0.2,0.3,0.5,0.3,0.9c0,0.4-0.1,0.7-0.3,0.9c-0.2,0.2-0.5,0.4-0.9,0.6
	c-0.4,0.1-0.7,0.2-1.1,0.2C62.9,87.2,62.1,86.9,61.6,86.3z M69.9,87v-8h2.5c0.5,0,1,0.1,1.3,0.2c0.4,0.1,0.6,0.3,0.9,0.6
	c0.2,0.2,0.4,0.5,0.4,0.8c0.1,0.3,0.1,0.6,0.1,0.8c0,0.5-0.1,1-0.3,1.3c-0.2,0.4-0.6,0.6-1,0.8c-0.4,0.2-0.9,0.3-1.4,0.3H71V87H69.9
	z M71,82.9h1.4c0.5,0,0.9-0.1,1.1-0.4c0.3-0.3,0.4-0.6,0.4-1c0-0.4-0.1-0.8-0.4-1.1C73.3,80.1,73,80,72.5,80H71V82.9z M77,85.2v-2.9
	h-1v-0.9h1v-1.8h1.1v1.8h1.6v0.9h-1.6v2.7c0,0.4,0.1,0.8,0.2,0.9c0.1,0.2,0.3,0.3,0.6,0.3c0.2,0,0.4,0,0.5-0.1
	c0.1-0.1,0.3-0.2,0.4-0.3l0.5,0.7c-0.2,0.2-0.5,0.4-0.7,0.5c-0.2,0.1-0.5,0.2-0.9,0.2c-0.6,0-1-0.2-1.3-0.5
	C77.1,86.3,77,85.8,77,85.2z M80.4,89.1l0.5-0.8c0.1,0.1,0.2,0.1,0.3,0.2c0.1,0.1,0.2,0.1,0.4,0.1c0.3,0,0.4-0.1,0.6-0.3
	c0.1-0.2,0.3-0.6,0.5-1l0.1-0.4l-2.5-5.5h1.2l1.8,4.2l1.6-4.2h1.2l-2.2,5.4c-0.1,0.2-0.2,0.5-0.3,0.8c-0.1,0.3-0.2,0.6-0.4,0.9
	c-0.2,0.3-0.3,0.5-0.6,0.7c-0.2,0.2-0.5,0.3-0.9,0.3c-0.3,0-0.5,0-0.7-0.1C80.7,89.4,80.6,89.3,80.4,89.1z M89.3,87v-8h1.2v7h4.2v1
	H89.3z M95.6,80.4v-1.2h1.2v1.2H95.6z M95.7,87v-5.6h1.1V87H95.7z M99.4,87h-1.1v-5c0-0.1,0-0.1,0-0.2c0-0.1,0-0.2,0-0.4h1l0,0.8
	c0.1-0.1,0.2-0.3,0.4-0.4c0.2-0.2,0.3-0.3,0.6-0.4c0.2-0.1,0.5-0.2,0.9-0.2c0.4,0,0.8,0.1,1.1,0.3c0.3,0.2,0.5,0.4,0.7,0.7
	c0.2-0.3,0.5-0.5,0.8-0.7c0.3-0.2,0.7-0.3,1.2-0.3c0.7,0,1.3,0.2,1.6,0.6c0.3,0.4,0.5,1,0.5,1.7V87H106v-3.3c0-1-0.4-1.5-1.2-1.5
	c-0.3,0-0.6,0.1-0.8,0.2c-0.2,0.2-0.4,0.4-0.6,0.6c-0.1,0.2-0.2,0.5-0.2,0.8V87h-1.1v-3.3c0-0.5-0.1-0.9-0.3-1.1
	c-0.2-0.2-0.5-0.4-0.9-0.4c-0.4,0-0.7,0.1-0.9,0.3c-0.2,0.2-0.4,0.5-0.5,0.8c-0.1,0.3-0.1,0.7-0.1,1V87z M108.5,80.4v-1.2h1.2v1.2
	H108.5z M108.6,87v-5.6h1.1V87H108.6z M111.7,85.2v-2.9h-1v-0.9h1v-1.8h1.1v1.8h1.6v0.9h-1.6v2.7c0,0.4,0.1,0.8,0.2,0.9
	c0.1,0.2,0.3,0.3,0.6,0.3c0.2,0,0.4,0,0.5-0.1c0.1-0.1,0.3-0.2,0.4-0.3l0.5,0.7c-0.2,0.2-0.5,0.4-0.7,0.5c-0.2,0.1-0.5,0.2-0.9,0.2
	c-0.6,0-1-0.2-1.3-0.5C111.8,86.3,111.7,85.8,111.7,85.2z M119.9,85.5l0.6,0.6c-0.1,0.1-0.2,0.2-0.4,0.4c-0.2,0.2-0.5,0.3-0.8,0.4
	c-0.3,0.1-0.7,0.2-1.2,0.2c-0.6,0-1.1-0.1-1.5-0.4c-0.4-0.3-0.8-0.6-1-1.1c-0.2-0.5-0.4-1-0.4-1.6c0-0.5,0.1-1,0.3-1.5
	c0.2-0.4,0.6-0.8,1-1c0.4-0.3,0.9-0.4,1.5-0.4c0.6,0,1.2,0.2,1.6,0.5c0.4,0.3,0.7,0.7,0.9,1.2c0.2,0.5,0.3,1,0.3,1.6h-4.4
	c0,0.3,0.1,0.6,0.3,0.9c0.2,0.3,0.4,0.5,0.7,0.6c0.3,0.1,0.6,0.2,0.9,0.2c0.5,0,0.9-0.1,1.2-0.2C119.6,85.8,119.8,85.7,119.9,85.5z
	 M116.3,83.7h3.3c0-0.4-0.2-0.8-0.5-1.1s-0.7-0.5-1.2-0.5c-0.3,0-0.6,0.1-0.9,0.2s-0.4,0.3-0.6,0.6
	C116.3,83.2,116.3,83.5,116.3,83.7z M125.9,87l0-0.7c-0.1,0.1-0.2,0.2-0.3,0.3c-0.1,0.1-0.3,0.3-0.6,0.4c-0.2,0.1-0.6,0.2-0.9,0.2
	c-0.5,0-0.9-0.1-1.3-0.3c-0.4-0.2-0.7-0.6-0.9-1c-0.2-0.4-0.3-0.9-0.3-1.5c0-0.5,0.1-1,0.3-1.4c0.2-0.4,0.4-0.7,0.7-0.9
	c0.3-0.2,0.6-0.4,0.9-0.5c0.3-0.1,0.7-0.2,0.9-0.2c0.3,0,0.6,0,0.8,0.1c0.2,0.1,0.4,0.2,0.7,0.3V79h1.1v7.4c0,0,0,0.1,0,0.2
	c0,0.1,0,0.2,0,0.3H125.9z M125.9,84.6v-2c-0.1-0.1-0.3-0.2-0.6-0.3c-0.2-0.1-0.5-0.1-0.8-0.1c-0.5,0-1,0.2-1.3,0.6
	c-0.3,0.4-0.5,0.9-0.5,1.5c0,0.4,0.1,0.7,0.2,1c0.1,0.3,0.3,0.5,0.5,0.7c0.2,0.2,0.5,0.3,0.9,0.3c0.4,0,0.7-0.1,0.9-0.3
	c0.2-0.2,0.4-0.4,0.5-0.6C125.8,85.1,125.9,84.9,125.9,84.6z M128.6,87v-1.3h1.4V87H128.6z M139.9,84.9l0.8,0.7
	c-0.1,0.2-0.3,0.4-0.6,0.7c-0.3,0.2-0.6,0.5-1.1,0.7c-0.4,0.2-0.9,0.3-1.5,0.3c-0.8,0-1.5-0.2-2.1-0.5c-0.6-0.4-1.1-0.9-1.4-1.5
	c-0.3-0.6-0.5-1.3-0.5-2.1c0-0.6,0.1-1.1,0.3-1.6c0.2-0.5,0.5-1,0.8-1.3c0.4-0.4,0.8-0.7,1.3-0.9c0.5-0.2,1-0.3,1.6-0.3
	c0.6,0,1.1,0.1,1.5,0.3c0.4,0.2,0.7,0.4,1,0.6c0.3,0.2,0.5,0.5,0.6,0.7l-0.8,0.7c-0.1-0.2-0.3-0.4-0.5-0.6c-0.2-0.2-0.4-0.4-0.7-0.5
	c-0.3-0.1-0.6-0.2-1.1-0.2c-0.6,0-1.1,0.1-1.5,0.4c-0.4,0.3-0.7,0.7-1,1.2c-0.2,0.5-0.3,1-0.3,1.6c0,0.6,0.1,1.1,0.3,1.6
	c0.2,0.5,0.6,0.8,1,1.1c0.4,0.3,0.9,0.4,1.5,0.4c0.5,0,0.9-0.1,1.2-0.2s0.5-0.3,0.7-0.5C139.6,85.2,139.7,85,139.9,84.9z
	 M144.3,87.2c-0.6,0-1.1-0.1-1.5-0.4c-0.4-0.3-0.8-0.6-1.1-1.1c-0.2-0.5-0.4-1-0.4-1.5c0-0.5,0.1-1,0.4-1.5c0.3-0.4,0.6-0.8,1.1-1.1
	c0.4-0.3,1-0.4,1.5-0.4c0.6,0,1.1,0.1,1.5,0.4c0.4,0.3,0.8,0.6,1.1,1.1c0.3,0.4,0.4,0.9,0.4,1.5c0,0.5-0.1,1-0.4,1.5
	c-0.3,0.4-0.6,0.8-1.1,1.1C145.3,87,144.8,87.2,144.3,87.2z M144.3,86.2c0.4,0,0.7-0.1,1-0.3c0.3-0.2,0.5-0.5,0.6-0.8
	c0.2-0.3,0.2-0.6,0.2-1c0-0.3-0.1-0.7-0.2-1c-0.1-0.3-0.4-0.6-0.6-0.8c-0.3-0.2-0.6-0.3-1-0.3c-0.4,0-0.7,0.1-1,0.3
	c-0.3,0.2-0.5,0.4-0.6,0.8c-0.1,0.3-0.2,0.6-0.2,1c0,0.3,0.1,0.7,0.2,1c0.2,0.3,0.4,0.6,0.6,0.8C143.6,86.1,143.9,86.2,144.3,86.2z
	 M149.5,87h-1.1v-5c0-0.1,0-0.1,0-0.2c0-0.1,0-0.2,0-0.4h1l0,0.8c0.1-0.1,0.2-0.3,0.4-0.4c0.2-0.2,0.4-0.3,0.6-0.4
	c0.2-0.1,0.5-0.2,0.9-0.2c0.7,0,1.3,0.2,1.6,0.6c0.4,0.4,0.5,1,0.5,1.7V87h-1.1v-3.3c0-0.5-0.1-0.9-0.3-1.1
	c-0.2-0.2-0.5-0.4-0.9-0.4c-0.4,0-0.7,0.1-1,0.3c-0.2,0.2-0.4,0.5-0.5,0.8c-0.1,0.3-0.1,0.7-0.1,1V87z M154.7,86.3l0.7-0.7
	c0.2,0.2,0.4,0.4,0.7,0.5c0.3,0.1,0.6,0.2,1,0.2c0.4,0,0.7-0.1,0.9-0.2c0.2-0.1,0.4-0.3,0.4-0.6c0-0.2,0-0.3-0.1-0.4
	c-0.1-0.1-0.3-0.2-0.5-0.3c-0.2-0.1-0.6-0.2-1-0.3c-0.3-0.1-0.6-0.2-0.8-0.3c-0.3-0.1-0.5-0.3-0.7-0.5c-0.2-0.2-0.3-0.5-0.3-0.9
	c0-0.4,0.1-0.7,0.3-0.9c0.2-0.2,0.5-0.4,0.8-0.6c0.3-0.1,0.7-0.2,1.1-0.2c0.5,0,0.9,0.1,1.2,0.2c0.3,0.1,0.6,0.3,0.9,0.5l-0.6,0.7
	c-0.2-0.2-0.4-0.3-0.6-0.4c-0.2-0.1-0.5-0.2-0.9-0.2c-0.3,0-0.6,0.1-0.8,0.2c-0.2,0.1-0.3,0.3-0.3,0.6c0,0.2,0.1,0.4,0.4,0.5
	c0.3,0.1,0.6,0.2,1.1,0.3c0.4,0.1,0.7,0.2,0.9,0.3c0.3,0.1,0.5,0.3,0.7,0.5c0.2,0.2,0.3,0.5,0.3,0.9c0,0.4-0.1,0.7-0.3,0.9
	c-0.2,0.2-0.5,0.4-0.9,0.6c-0.4,0.1-0.7,0.2-1.1,0.2C156,87.2,155.2,86.9,154.7,86.3z M160.6,80.4v-1.2h1.2v1.2H160.6z M160.7,87
	v-5.6h1.1V87H160.7z M167.4,87l0-0.7c-0.1,0.1-0.2,0.2-0.3,0.3c-0.1,0.1-0.3,0.3-0.6,0.4c-0.2,0.1-0.6,0.2-0.9,0.2
	c-0.5,0-0.9-0.1-1.3-0.3c-0.4-0.2-0.7-0.6-0.9-1c-0.2-0.4-0.3-0.9-0.3-1.5c0-0.5,0.1-1,0.3-1.4c0.2-0.4,0.4-0.7,0.7-0.9
	c0.3-0.2,0.6-0.4,0.9-0.5c0.3-0.1,0.7-0.2,0.9-0.2c0.3,0,0.6,0,0.8,0.1c0.2,0.1,0.4,0.2,0.7,0.3V79h1.1v7.4c0,0,0,0.1,0,0.2
	c0,0.1,0,0.2,0,0.3H167.4z M167.3,84.6v-2c-0.1-0.1-0.3-0.2-0.6-0.3c-0.2-0.1-0.5-0.1-0.8-0.1c-0.5,0-1,0.2-1.3,0.6
	c-0.3,0.4-0.5,0.9-0.5,1.5c0,0.4,0.1,0.7,0.2,1c0.1,0.3,0.3,0.5,0.5,0.7c0.2,0.2,0.5,0.3,0.9,0.3c0.4,0,0.7-0.1,0.9-0.3
	c0.2-0.2,0.4-0.4,0.5-0.6C167.3,85.1,167.3,84.9,167.3,84.6z M174.4,85.5l0.6,0.6c-0.1,0.1-0.2,0.2-0.4,0.4
	c-0.2,0.2-0.5,0.3-0.8,0.4c-0.3,0.1-0.7,0.2-1.2,0.2c-0.6,0-1.1-0.1-1.5-0.4c-0.4-0.3-0.8-0.6-1-1.1c-0.2-0.5-0.4-1-0.4-1.6
	c0-0.5,0.1-1,0.3-1.5c0.2-0.4,0.6-0.8,1-1c0.4-0.3,0.9-0.4,1.5-0.4c0.6,0,1.2,0.2,1.6,0.5c0.4,0.3,0.7,0.7,0.9,1.2
	c0.2,0.5,0.3,1,0.3,1.6h-4.4c0,0.3,0.1,0.6,0.3,0.9c0.2,0.3,0.4,0.5,0.7,0.6c0.3,0.1,0.6,0.2,0.9,0.2c0.5,0,0.9-0.1,1.2-0.2
	C174,85.8,174.2,85.7,174.4,85.5z M170.7,83.7h3.3c0-0.4-0.2-0.8-0.5-1.1s-0.7-0.5-1.2-0.5c-0.3,0-0.6,0.1-0.9,0.2
	c-0.2,0.2-0.4,0.3-0.6,0.6C170.8,83.2,170.7,83.5,170.7,83.7z M177.4,87h-1.1v-5c0-0.1,0-0.1,0-0.2s0-0.2,0-0.3h1l0,0.9
	c0.1-0.1,0.2-0.3,0.4-0.4c0.2-0.2,0.4-0.3,0.6-0.4c0.2-0.1,0.5-0.2,0.9-0.2c0.1,0,0.2,0,0.3,0c0.1,0,0.2,0,0.3,0.1l-0.2,1
	c-0.1-0.1-0.3-0.1-0.6-0.1c-0.3,0-0.6,0.1-0.8,0.2c-0.2,0.2-0.4,0.4-0.6,0.6c-0.1,0.3-0.2,0.5-0.2,0.9V87z M183.3,85.2v-2.9h-1v-0.9
	h1v-1.8h1.1v1.8h1.6v0.9h-1.6v2.7c0,0.4,0.1,0.8,0.2,0.9c0.1,0.2,0.3,0.3,0.6,0.3c0.2,0,0.4,0,0.5-0.1c0.1-0.1,0.3-0.2,0.4-0.3
	l0.5,0.7c-0.2,0.2-0.5,0.4-0.7,0.5c-0.2,0.1-0.5,0.2-0.9,0.2c-0.6,0-1-0.2-1.3-0.5C183.5,86.3,183.3,85.8,183.3,85.2z M187.5,87v-8
	h1.1v3.3c0.1-0.1,0.2-0.3,0.4-0.4c0.2-0.2,0.4-0.3,0.6-0.4c0.2-0.1,0.5-0.2,0.9-0.2c0.7,0,1.3,0.2,1.6,0.6c0.4,0.4,0.5,1,0.5,1.7V87
	h-1.1v-3.3c0-0.5-0.1-0.9-0.3-1.1c-0.2-0.2-0.5-0.4-0.9-0.4c-0.4,0-0.7,0.1-1,0.3c-0.2,0.2-0.4,0.5-0.5,0.8c-0.1,0.3-0.1,0.7-0.1,1
	V87H187.5z M198.5,85.5l0.6,0.6c-0.1,0.1-0.2,0.2-0.4,0.4c-0.2,0.2-0.5,0.3-0.8,0.4c-0.3,0.1-0.7,0.2-1.2,0.2
	c-0.6,0-1.1-0.1-1.5-0.4c-0.4-0.3-0.8-0.6-1-1.1c-0.2-0.5-0.4-1-0.4-1.6c0-0.5,0.1-1,0.3-1.5c0.2-0.4,0.6-0.8,1-1
	c0.4-0.3,0.9-0.4,1.5-0.4c0.6,0,1.2,0.2,1.6,0.5c0.4,0.3,0.7,0.7,0.9,1.2s0.3,1,0.3,1.6h-4.4c0,0.3,0.1,0.6,0.3,0.9
	c0.2,0.3,0.4,0.5,0.7,0.6c0.3,0.1,0.6,0.2,0.9,0.2c0.5,0,0.9-0.1,1.2-0.2C198.1,85.8,198.3,85.7,198.5,85.5z M194.8,83.7h3.3
	c0-0.4-0.2-0.8-0.5-1.1s-0.7-0.5-1.2-0.5c-0.3,0-0.6,0.1-0.9,0.2s-0.4,0.3-0.6,0.6C194.9,83.2,194.8,83.5,194.8,83.7z M203.7,87
	h-1.1v-5c0-0.1,0-0.1,0-0.2s0-0.2,0-0.3h1l0,0.9c0.1-0.1,0.2-0.3,0.4-0.4c0.2-0.2,0.4-0.3,0.6-0.4c0.2-0.1,0.5-0.2,0.9-0.2
	c0.1,0,0.2,0,0.3,0c0.1,0,0.2,0,0.3,0.1l-0.2,1c-0.1-0.1-0.3-0.1-0.6-0.1c-0.3,0-0.6,0.1-0.8,0.2c-0.2,0.2-0.4,0.4-0.6,0.6
	s-0.2,0.5-0.2,0.9V87z M211.1,85.5l0.6,0.6c-0.1,0.1-0.2,0.2-0.4,0.4c-0.2,0.2-0.5,0.3-0.8,0.4c-0.3,0.1-0.7,0.2-1.2,0.2
	c-0.6,0-1.1-0.1-1.5-0.4c-0.4-0.3-0.8-0.6-1-1.1c-0.2-0.5-0.4-1-0.4-1.6c0-0.5,0.1-1,0.3-1.5c0.2-0.4,0.6-0.8,1-1
	c0.4-0.3,0.9-0.4,1.5-0.4c0.6,0,1.2,0.2,1.6,0.5c0.4,0.3,0.7,0.7,0.9,1.2s0.3,1,0.3,1.6h-4.4c0,0.3,0.1,0.6,0.3,0.9
	c0.2,0.3,0.4,0.5,0.7,0.6c0.3,0.1,0.6,0.2,0.9,0.2c0.5,0,0.9-0.1,1.2-0.2C210.8,85.8,211,85.7,211.1,85.5z M207.5,83.7h3.3
	c0-0.4-0.2-0.8-0.5-1.1c-0.3-0.3-0.7-0.5-1.2-0.5c-0.3,0-0.6,0.1-0.9,0.2s-0.4,0.3-0.6,0.6C207.6,83.2,207.5,83.5,207.5,83.7z
	 M213.1,87v-8h1.1v8H213.1z M220.1,85.5l0.6,0.6c-0.1,0.1-0.2,0.2-0.4,0.4c-0.2,0.2-0.5,0.3-0.8,0.4c-0.3,0.1-0.7,0.2-1.2,0.2
	c-0.6,0-1.1-0.1-1.5-0.4c-0.4-0.3-0.8-0.6-1-1.1c-0.2-0.5-0.4-1-0.4-1.6c0-0.5,0.1-1,0.3-1.5c0.2-0.4,0.6-0.8,1-1
	c0.4-0.3,0.9-0.4,1.5-0.4c0.6,0,1.2,0.2,1.6,0.5c0.4,0.3,0.7,0.7,0.9,1.2c0.2,0.5,0.3,1,0.3,1.6h-4.4c0,0.3,0.1,0.6,0.3,0.9
	c0.2,0.3,0.4,0.5,0.7,0.6c0.3,0.1,0.6,0.2,0.9,0.2c0.5,0,0.9-0.1,1.2-0.2C219.8,85.8,220,85.7,220.1,85.5z M216.5,83.7h3.3
	c0-0.4-0.2-0.8-0.5-1.1s-0.7-0.5-1.2-0.5c-0.3,0-0.6,0.1-0.9,0.2c-0.2,0.2-0.4,0.3-0.6,0.6C216.5,83.2,216.5,83.5,216.5,83.7z
	 M223.6,87l-2.4-5.6h1.2l1.7,4.4l1.7-4.4h1.2l-2.4,5.6H223.6z M231.1,87l0-0.7c-0.2,0.3-0.5,0.5-0.8,0.6c-0.3,0.1-0.7,0.2-1,0.2
	c-0.3,0-0.6-0.1-0.9-0.2c-0.3-0.1-0.5-0.3-0.7-0.6c-0.2-0.3-0.3-0.6-0.3-1c0-0.6,0.2-1.1,0.6-1.4s1-0.5,1.8-0.5c0.2,0,0.4,0,0.5,0
	c0.2,0,0.4,0,0.5,0c0.2,0,0.3,0,0.3,0v-0.2c0-0.4-0.1-0.7-0.4-0.9c-0.2-0.2-0.6-0.3-1-0.3c-0.4,0-0.8,0.1-1,0.2
	c-0.2,0.1-0.5,0.2-0.6,0.3l-0.5-0.7c0.2-0.2,0.5-0.3,0.8-0.5c0.4-0.2,0.8-0.2,1.4-0.2c0.7,0,1.3,0.2,1.7,0.5
	c0.4,0.3,0.6,0.8,0.6,1.5v3.3c0,0.1,0,0.1,0,0.2c0,0.1,0,0.2,0,0.3H231.1z M231.1,85v-0.6c0,0-0.1,0-0.3,0c-0.1,0-0.3,0-0.5,0
	c-0.2,0-0.3,0-0.5,0c-0.4,0-0.7,0.1-0.9,0.2c-0.2,0.1-0.4,0.3-0.4,0.4c-0.1,0.2-0.1,0.3-0.1,0.5c0,0.3,0.1,0.5,0.3,0.7
	c0.2,0.2,0.5,0.2,0.9,0.2c0.3,0,0.5-0.1,0.8-0.2c0.2-0.1,0.4-0.3,0.6-0.5C231,85.4,231.1,85.2,231.1,85z M234.7,87h-1.1v-5
	c0-0.1,0-0.1,0-0.2c0-0.1,0-0.2,0-0.4h1l0,0.8c0.1-0.1,0.2-0.3,0.4-0.4c0.2-0.2,0.4-0.3,0.6-0.4c0.2-0.1,0.5-0.2,0.9-0.2
	c0.7,0,1.3,0.2,1.6,0.6c0.4,0.4,0.5,1,0.5,1.7V87h-1.1v-3.3c0-0.5-0.1-0.9-0.3-1.1c-0.2-0.2-0.5-0.4-0.9-0.4c-0.4,0-0.7,0.1-1,0.3
	c-0.2,0.2-0.4,0.5-0.5,0.8c-0.1,0.3-0.1,0.7-0.1,1V87z M240.6,85.2v-2.9h-1v-0.9h1v-1.8h1.1v1.8h1.6v0.9h-1.6v2.7
	c0,0.4,0.1,0.8,0.2,0.9c0.1,0.2,0.3,0.3,0.6,0.3c0.2,0,0.4,0,0.5-0.1c0.1-0.1,0.3-0.2,0.4-0.3l0.5,0.7c-0.2,0.2-0.5,0.4-0.7,0.5
	c-0.2,0.1-0.5,0.2-0.9,0.2c-0.6,0-1-0.2-1.3-0.5C240.8,86.3,240.6,85.8,240.6,85.2z M247.1,87v-8h2.5c0.5,0,1,0.1,1.3,0.2
	c0.4,0.1,0.6,0.3,0.9,0.6c0.2,0.2,0.4,0.5,0.4,0.8c0.1,0.3,0.1,0.6,0.1,0.8c0,0.5-0.1,1-0.3,1.3c-0.2,0.4-0.6,0.6-1,0.8
	c-0.4,0.2-0.9,0.3-1.4,0.3h-1.5V87H247.1z M248.2,82.9h1.4c0.5,0,0.9-0.1,1.1-0.4c0.3-0.3,0.4-0.6,0.4-1c0-0.4-0.1-0.8-0.4-1.1
	c-0.3-0.3-0.6-0.4-1.1-0.4h-1.4V82.9z M253.9,87v-8h2.7c0.8,0,1.6,0.1,2.2,0.4c0.7,0.3,1.2,0.7,1.5,1.3c0.4,0.6,0.6,1.4,0.6,2.3
	c0,0.9-0.2,1.6-0.6,2.2c-0.4,0.6-0.9,1-1.5,1.3s-1.4,0.4-2.3,0.4H253.9z M255,86h1.5c1,0,1.8-0.2,2.3-0.7c0.6-0.5,0.8-1.2,0.8-2.2
	c0-1-0.3-1.7-0.8-2.2c-0.5-0.5-1.3-0.8-2.4-0.8H255V86z M261.9,85.8l0.8-0.7c0.2,0.2,0.3,0.3,0.5,0.5c0.2,0.2,0.4,0.3,0.7,0.4
	c0.3,0.1,0.6,0.2,0.9,0.2c0.5,0,0.9-0.1,1.2-0.4c0.3-0.2,0.4-0.6,0.4-1c0-0.4-0.2-0.8-0.5-1c-0.3-0.2-0.8-0.4-1.5-0.5
	c-0.7-0.1-1.2-0.4-1.7-0.8c-0.4-0.4-0.6-0.9-0.6-1.5c0-0.4,0.1-0.8,0.3-1.1c0.2-0.3,0.5-0.6,0.9-0.8c0.4-0.2,0.9-0.3,1.5-0.3
	c0.5,0,0.9,0.1,1.3,0.2c0.3,0.1,0.6,0.3,0.8,0.5c0.2,0.2,0.3,0.3,0.4,0.4l-0.8,0.7c-0.1-0.1-0.2-0.2-0.3-0.3s-0.3-0.2-0.6-0.3
	c-0.2-0.1-0.5-0.2-0.9-0.2c-0.3,0-0.6,0.1-0.8,0.2c-0.2,0.1-0.4,0.3-0.5,0.4c-0.1,0.2-0.2,0.3-0.2,0.5c0,0.4,0.2,0.7,0.5,0.9
	c0.3,0.2,0.8,0.4,1.4,0.5c0.4,0.1,0.8,0.2,1.1,0.4c0.4,0.2,0.7,0.4,0.9,0.8c0.2,0.3,0.3,0.8,0.3,1.3c0,0.5-0.1,0.9-0.4,1.2
	c-0.2,0.4-0.6,0.6-1,0.8c-0.4,0.2-0.9,0.3-1.4,0.3c-0.5,0-0.9-0.1-1.3-0.2c-0.4-0.1-0.7-0.3-1-0.5C262.3,86.2,262.1,86,261.9,85.8z
	 M19.3,99l0-0.7c-0.2,0.3-0.5,0.5-0.8,0.6c-0.3,0.1-0.7,0.2-1,0.2c-0.3,0-0.6-0.1-0.9-0.2c-0.3-0.1-0.5-0.3-0.7-0.6
	c-0.2-0.3-0.3-0.6-0.3-1c0-0.6,0.2-1.1,0.6-1.4s1-0.5,1.8-0.5c0.2,0,0.4,0,0.5,0c0.2,0,0.4,0,0.5,0c0.2,0,0.3,0,0.3,0v-0.2
	c0-0.4-0.1-0.7-0.4-0.9c-0.2-0.2-0.6-0.3-1-0.3c-0.4,0-0.8,0.1-1,0.2c-0.2,0.1-0.5,0.2-0.6,0.3l-0.5-0.7c0.2-0.2,0.5-0.3,0.8-0.5
	c0.4-0.2,0.8-0.2,1.4-0.2c0.7,0,1.3,0.2,1.7,0.5c0.4,0.3,0.6,0.8,0.6,1.5v3.3c0,0.1,0,0.1,0,0.2c0,0.1,0,0.2,0,0.3H19.3z M19.2,97
	v-0.6c0,0-0.1,0-0.3,0c-0.1,0-0.3,0-0.5,0c-0.2,0-0.3,0-0.5,0c-0.4,0-0.7,0.1-0.9,0.2c-0.2,0.1-0.4,0.3-0.4,0.4
	c-0.1,0.2-0.1,0.3-0.1,0.5c0,0.3,0.1,0.5,0.3,0.7c0.2,0.2,0.5,0.2,0.9,0.2c0.3,0,0.5-0.1,0.8-0.2c0.2-0.1,0.4-0.3,0.6-0.5
	C19.1,97.4,19.2,97.2,19.2,97z M22.8,99h-1.1v-5c0-0.1,0-0.1,0-0.2c0-0.1,0-0.2,0-0.4h1l0,0.8c0.1-0.1,0.2-0.3,0.4-0.4
	c0.2-0.2,0.4-0.3,0.6-0.4c0.2-0.1,0.5-0.2,0.9-0.2c0.7,0,1.3,0.2,1.6,0.6c0.4,0.4,0.5,1,0.5,1.7V99h-1.1v-3.3c0-0.5-0.1-0.9-0.3-1.1
	c-0.2-0.2-0.5-0.4-0.9-0.4c-0.4,0-0.7,0.1-1,0.3c-0.2,0.2-0.4,0.5-0.5,0.8c-0.1,0.3-0.1,0.7-0.1,1V99z M32.3,99l0-0.7
	c-0.1,0.1-0.2,0.2-0.3,0.3c-0.1,0.1-0.3,0.3-0.6,0.4c-0.2,0.1-0.6,0.2-0.9,0.2c-0.5,0-0.9-0.1-1.3-0.3c-0.4-0.2-0.7-0.6-0.9-1
	c-0.2-0.4-0.3-0.9-0.3-1.5c0-0.5,0.1-1,0.3-1.4c0.2-0.4,0.4-0.7,0.7-0.9c0.3-0.2,0.6-0.4,0.9-0.5c0.3-0.1,0.7-0.2,0.9-0.2
	c0.3,0,0.6,0,0.8,0.1c0.2,0.1,0.4,0.2,0.7,0.3V91h1.1v7.4c0,0,0,0.1,0,0.2c0,0.1,0,0.2,0,0.3H32.3z M32.3,96.6v-2
	c-0.1-0.1-0.3-0.2-0.6-0.3c-0.2-0.1-0.5-0.1-0.8-0.1c-0.5,0-1,0.2-1.3,0.6c-0.3,0.4-0.5,0.9-0.5,1.5c0,0.4,0.1,0.7,0.2,1
	c0.1,0.3,0.3,0.5,0.5,0.7c0.2,0.2,0.5,0.3,0.9,0.3c0.4,0,0.7-0.1,0.9-0.3c0.2-0.2,0.4-0.4,0.5-0.6C32.2,97.1,32.3,96.9,32.3,96.6z
	 M39.4,99v-7h-2.9v-1h6.9v1h-2.9v7H39.4z M44.4,99l0.4-8h1.1l2.4,4.2l2.4-4.2h1.1l0.4,8h-1.1l-0.3-6.1l-2.3,3.8H48l-2.2-3.7L45.5,99
	H44.4z M54,99v-8h2.7c0.8,0,1.6,0.1,2.2,0.4c0.7,0.3,1.2,0.7,1.5,1.3c0.4,0.6,0.6,1.4,0.6,2.3c0,0.9-0.2,1.6-0.6,2.2
	c-0.4,0.6-0.9,1-1.5,1.3c-0.7,0.3-1.4,0.4-2.3,0.4H54z M55.1,98h1.5c1,0,1.8-0.2,2.3-0.7c0.6-0.5,0.8-1.2,0.8-2.2
	c0-1-0.3-1.7-0.8-2.2c-0.5-0.5-1.3-0.8-2.4-0.8h-1.5V98z M68,99l0-0.7c-0.2,0.3-0.5,0.5-0.8,0.6c-0.3,0.1-0.7,0.2-1,0.2
	c-0.3,0-0.6-0.1-0.9-0.2c-0.3-0.1-0.5-0.3-0.7-0.6c-0.2-0.3-0.3-0.6-0.3-1c0-0.6,0.2-1.1,0.6-1.4c0.4-0.4,1-0.5,1.8-0.5
	c0.2,0,0.4,0,0.5,0c0.2,0,0.4,0,0.5,0c0.2,0,0.3,0,0.3,0v-0.2c0-0.4-0.1-0.7-0.4-0.9c-0.2-0.2-0.6-0.3-1-0.3c-0.4,0-0.8,0.1-1,0.2
	c-0.2,0.1-0.5,0.2-0.6,0.3l-0.5-0.7c0.2-0.2,0.5-0.3,0.8-0.5s0.8-0.2,1.4-0.2c0.7,0,1.3,0.2,1.7,0.5c0.4,0.3,0.6,0.8,0.6,1.5v3.3
	c0,0.1,0,0.1,0,0.2c0,0.1,0,0.2,0,0.3H68z M68,97v-0.6c0,0-0.1,0-0.3,0c-0.1,0-0.3,0-0.5,0c-0.2,0-0.3,0-0.5,0
	c-0.4,0-0.7,0.1-0.9,0.2c-0.2,0.1-0.4,0.3-0.4,0.4c-0.1,0.2-0.1,0.3-0.1,0.5c0,0.3,0.1,0.5,0.3,0.7c0.2,0.2,0.5,0.2,0.9,0.2
	c0.3,0,0.5-0.1,0.8-0.2c0.2-0.1,0.4-0.3,0.6-0.5C67.9,97.4,68,97.2,68,97z M72,99l-2.4-5.6h1.2l1.7,4.4l1.7-4.4h1.2L73.1,99H72z
	 M79.6,99l0-0.7c-0.2,0.3-0.5,0.5-0.8,0.6c-0.3,0.1-0.7,0.2-1,0.2c-0.3,0-0.6-0.1-0.9-0.2c-0.3-0.1-0.5-0.3-0.7-0.6
	c-0.2-0.3-0.3-0.6-0.3-1c0-0.6,0.2-1.1,0.6-1.4c0.4-0.4,1-0.5,1.8-0.5c0.2,0,0.4,0,0.5,0c0.2,0,0.4,0,0.5,0c0.2,0,0.3,0,0.3,0v-0.2
	c0-0.4-0.1-0.7-0.4-0.9c-0.2-0.2-0.6-0.3-1-0.3c-0.4,0-0.8,0.1-1,0.2c-0.2,0.1-0.5,0.2-0.6,0.3L76,93.9c0.2-0.2,0.5-0.3,0.8-0.5
	s0.8-0.2,1.4-0.2c0.7,0,1.3,0.2,1.7,0.5c0.4,0.3,0.6,0.8,0.6,1.5v3.3c0,0.1,0,0.1,0,0.2c0,0.1,0,0.2,0,0.3H79.6z M79.5,97v-0.6
	c0,0-0.1,0-0.3,0c-0.1,0-0.3,0-0.5,0c-0.2,0-0.3,0-0.5,0c-0.4,0-0.7,0.1-0.9,0.2c-0.2,0.1-0.4,0.3-0.4,0.4c-0.1,0.2-0.1,0.3-0.1,0.5
	c0,0.3,0.1,0.5,0.3,0.7c0.2,0.2,0.5,0.2,0.9,0.2c0.3,0,0.5-0.1,0.8-0.2c0.2-0.1,0.4-0.3,0.6-0.5C79.4,97.4,79.5,97.2,79.5,97z
	 M82,92.4v-1.2h1.2v1.2H82z M82.1,99v-5.6h1.1V99H82.1z M84.7,99v-8h1.1v8H84.7z M90.7,99l0-0.7c-0.2,0.3-0.5,0.5-0.8,0.6
	c-0.3,0.1-0.7,0.2-1,0.2c-0.3,0-0.6-0.1-0.9-0.2c-0.3-0.1-0.5-0.3-0.7-0.6c-0.2-0.3-0.3-0.6-0.3-1c0-0.6,0.2-1.1,0.6-1.4
	c0.4-0.4,1-0.5,1.8-0.5c0.2,0,0.4,0,0.5,0c0.2,0,0.4,0,0.5,0c0.2,0,0.3,0,0.3,0v-0.2c0-0.4-0.1-0.7-0.4-0.9c-0.2-0.2-0.6-0.3-1-0.3
	c-0.4,0-0.8,0.1-1,0.2c-0.2,0.1-0.5,0.2-0.6,0.3l-0.5-0.7c0.2-0.2,0.5-0.3,0.8-0.5s0.8-0.2,1.4-0.2c0.7,0,1.3,0.2,1.7,0.5
	c0.4,0.3,0.6,0.8,0.6,1.5v3.3c0,0.1,0,0.1,0,0.2c0,0.1,0,0.2,0,0.3H90.7z M90.7,97v-0.6c0,0-0.1,0-0.3,0c-0.1,0-0.3,0-0.5,0
	c-0.2,0-0.3,0-0.5,0c-0.4,0-0.7,0.1-0.9,0.2c-0.2,0.1-0.4,0.3-0.4,0.4C88,97,88,97.2,88,97.4c0,0.3,0.1,0.5,0.3,0.7
	c0.2,0.2,0.5,0.2,0.9,0.2c0.3,0,0.5-0.1,0.8-0.2c0.2-0.1,0.4-0.3,0.6-0.5C90.6,97.4,90.7,97.2,90.7,97z M93.2,98.8V91h1.1v3
	c0.1-0.2,0.3-0.3,0.6-0.5c0.3-0.2,0.7-0.3,1.1-0.3c0.6,0,1,0.1,1.4,0.4c0.4,0.3,0.7,0.6,0.9,1c0.2,0.4,0.3,0.9,0.3,1.5
	c0,0.6-0.1,1.1-0.4,1.6c-0.3,0.4-0.6,0.8-1.1,1.1c-0.5,0.3-1,0.4-1.6,0.4c-0.5,0-0.9,0-1.3-0.1C93.8,99,93.5,98.9,93.2,98.8z
	 M94.3,95.9v2.2c0.1,0,0.2,0.1,0.4,0.1c0.2,0,0.4,0,0.7,0c0.6,0,1.1-0.2,1.5-0.6c0.4-0.4,0.6-0.9,0.6-1.5c0-0.3-0.1-0.7-0.2-1
	c-0.1-0.3-0.3-0.5-0.5-0.7c-0.2-0.2-0.5-0.3-0.9-0.3c-0.3,0-0.6,0.1-0.9,0.2c-0.2,0.2-0.4,0.4-0.5,0.6
	C94.3,95.3,94.3,95.6,94.3,95.9z M99.8,99v-8h1.1v8H99.8z M106.8,97.5l0.6,0.6c-0.1,0.1-0.2,0.2-0.4,0.4c-0.2,0.2-0.5,0.3-0.8,0.4
	c-0.3,0.1-0.7,0.2-1.2,0.2c-0.6,0-1.1-0.1-1.5-0.4c-0.4-0.3-0.8-0.6-1-1.1c-0.2-0.5-0.4-1-0.4-1.6c0-0.5,0.1-1,0.3-1.5
	c0.2-0.4,0.6-0.8,1-1c0.4-0.3,0.9-0.4,1.5-0.4c0.6,0,1.2,0.2,1.6,0.5c0.4,0.3,0.7,0.7,0.9,1.2s0.3,1,0.3,1.6h-4.4
	c0,0.3,0.1,0.6,0.3,0.9c0.2,0.3,0.4,0.5,0.7,0.6c0.3,0.1,0.6,0.2,0.9,0.2c0.5,0,0.9-0.1,1.2-0.2C106.5,97.8,106.7,97.7,106.8,97.5z
	 M103.2,95.7h3.3c0-0.4-0.2-0.8-0.5-1.1c-0.3-0.3-0.7-0.5-1.2-0.5c-0.3,0-0.6,0.1-0.9,0.2s-0.4,0.3-0.6,0.6
	C103.2,95.2,103.2,95.5,103.2,95.7z M114.5,99l0-0.7c-0.2,0.3-0.5,0.5-0.8,0.6c-0.3,0.1-0.7,0.2-1,0.2c-0.3,0-0.6-0.1-0.9-0.2
	c-0.3-0.1-0.5-0.3-0.7-0.6c-0.2-0.3-0.3-0.6-0.3-1c0-0.6,0.2-1.1,0.6-1.4c0.4-0.4,1-0.5,1.8-0.5c0.2,0,0.4,0,0.5,0
	c0.2,0,0.4,0,0.5,0c0.2,0,0.3,0,0.3,0v-0.2c0-0.4-0.1-0.7-0.4-0.9c-0.2-0.2-0.6-0.3-1-0.3c-0.4,0-0.8,0.1-1,0.2
	c-0.2,0.1-0.5,0.2-0.6,0.3l-0.5-0.7c0.2-0.2,0.5-0.3,0.8-0.5c0.4-0.2,0.8-0.2,1.4-0.2c0.7,0,1.3,0.2,1.7,0.5
	c0.4,0.3,0.6,0.8,0.6,1.5v3.3c0,0.1,0,0.1,0,0.2c0,0.1,0,0.2,0,0.3H114.5z M114.4,97v-0.6c0,0-0.1,0-0.3,0c-0.1,0-0.3,0-0.5,0
	c-0.2,0-0.3,0-0.5,0c-0.4,0-0.7,0.1-0.9,0.2c-0.2,0.1-0.4,0.3-0.4,0.4c-0.1,0.2-0.1,0.3-0.1,0.5c0,0.3,0.1,0.5,0.3,0.7
	c0.2,0.2,0.5,0.2,0.9,0.2c0.3,0,0.5-0.1,0.8-0.2c0.2-0.1,0.4-0.3,0.6-0.5C114.3,97.4,114.4,97.2,114.4,97z M117.4,97.2v-2.9h-1v-0.9
	h1v-1.8h1.1v1.8h1.6v0.9h-1.6v2.7c0,0.4,0.1,0.8,0.2,0.9c0.1,0.2,0.3,0.3,0.6,0.3c0.2,0,0.4,0,0.5-0.1c0.1-0.1,0.3-0.2,0.4-0.3
	l0.5,0.7c-0.2,0.2-0.5,0.4-0.7,0.5c-0.2,0.1-0.5,0.2-0.9,0.2c-0.6,0-1-0.2-1.3-0.5C117.5,98.3,117.4,97.8,117.4,97.2z M123.7,99v-8
	h1.1v3.3c0.1-0.1,0.2-0.3,0.4-0.4c0.2-0.2,0.4-0.3,0.6-0.4c0.2-0.1,0.5-0.2,0.9-0.2c0.7,0,1.3,0.2,1.6,0.6c0.4,0.4,0.5,1,0.5,1.7V99
	h-1.1v-3.3c0-0.5-0.1-0.9-0.3-1.1c-0.2-0.2-0.5-0.4-0.9-0.4c-0.4,0-0.7,0.1-1,0.3c-0.2,0.2-0.4,0.5-0.5,0.8c-0.1,0.3-0.1,0.7-0.1,1
	V99H123.7z M132.9,99.2c-0.6,0-1.1-0.1-1.5-0.4c-0.4-0.3-0.8-0.6-1.1-1.1c-0.2-0.5-0.4-1-0.4-1.5c0-0.5,0.1-1,0.4-1.5
	c0.3-0.4,0.6-0.8,1.1-1.1c0.4-0.3,1-0.4,1.5-0.4c0.6,0,1.1,0.1,1.5,0.4c0.4,0.3,0.8,0.6,1.1,1.1c0.3,0.4,0.4,0.9,0.4,1.5
	c0,0.5-0.1,1-0.4,1.5c-0.3,0.4-0.6,0.8-1.1,1.1C134,99,133.5,99.2,132.9,99.2z M132.9,98.2c0.4,0,0.7-0.1,1-0.3
	c0.3-0.2,0.5-0.5,0.6-0.8c0.2-0.3,0.2-0.6,0.2-1c0-0.3-0.1-0.7-0.2-1c-0.1-0.3-0.4-0.6-0.6-0.8c-0.3-0.2-0.6-0.3-1-0.3
	s-0.7,0.1-1,0.3c-0.3,0.2-0.5,0.4-0.6,0.8c-0.1,0.3-0.2,0.6-0.2,1c0,0.3,0.1,0.7,0.2,1c0.2,0.3,0.4,0.6,0.6,0.8
	C132.2,98.1,132.5,98.2,132.9,98.2z M136.8,98.3l0.7-0.7c0.2,0.2,0.4,0.4,0.7,0.5c0.3,0.1,0.6,0.2,1,0.2c0.4,0,0.7-0.1,0.9-0.2
	c0.2-0.1,0.4-0.3,0.4-0.6c0-0.2,0-0.3-0.1-0.4c-0.1-0.1-0.3-0.2-0.5-0.3c-0.2-0.1-0.6-0.2-1-0.3c-0.3-0.1-0.6-0.2-0.8-0.3
	c-0.3-0.1-0.5-0.3-0.7-0.5c-0.2-0.2-0.3-0.5-0.3-0.9c0-0.4,0.1-0.7,0.3-0.9c0.2-0.2,0.5-0.4,0.8-0.6c0.3-0.1,0.7-0.2,1.1-0.2
	c0.5,0,0.9,0.1,1.2,0.2c0.3,0.1,0.6,0.3,0.9,0.5l-0.6,0.7c-0.2-0.2-0.4-0.3-0.6-0.4c-0.2-0.1-0.5-0.2-0.9-0.2
	c-0.3,0-0.6,0.1-0.8,0.2c-0.2,0.1-0.3,0.3-0.3,0.6c0,0.2,0.1,0.4,0.4,0.5c0.3,0.1,0.6,0.2,1.1,0.3c0.4,0.1,0.7,0.2,0.9,0.3
	c0.3,0.1,0.5,0.3,0.7,0.5c0.2,0.2,0.3,0.5,0.3,0.9c0,0.4-0.1,0.7-0.3,0.9c-0.2,0.2-0.5,0.4-0.9,0.6c-0.4,0.1-0.7,0.2-1.1,0.2
	C138.1,99.2,137.3,98.9,136.8,98.3z M143.2,97.2v-2.9h-1v-0.9h1v-1.8h1.1v1.8h1.6v0.9h-1.6v2.7c0,0.4,0.1,0.8,0.2,0.9
	c0.1,0.2,0.3,0.3,0.6,0.3c0.2,0,0.4,0,0.5-0.1c0.1-0.1,0.3-0.2,0.4-0.3l0.5,0.7c-0.2,0.2-0.5,0.4-0.7,0.5c-0.2,0.1-0.5,0.2-0.9,0.2
	c-0.6,0-1-0.2-1.3-0.5C143.4,98.3,143.2,97.8,143.2,97.2z M148.4,101.4h-1.1V94c0-0.1,0-0.1,0-0.2c0-0.1,0-0.2,0-0.4h1l0,0.8
	c0.1-0.1,0.2-0.2,0.3-0.4c0.2-0.1,0.4-0.3,0.6-0.4c0.3-0.1,0.6-0.2,0.9-0.2c0.6,0,1,0.1,1.4,0.4c0.4,0.3,0.7,0.6,0.8,1.1
	c0.2,0.4,0.3,0.9,0.3,1.5c0,0.5-0.1,0.9-0.3,1.3c-0.2,0.4-0.4,0.7-0.7,0.9c-0.3,0.2-0.6,0.4-0.9,0.5c-0.3,0.1-0.7,0.2-1,0.2
	c-0.4,0-0.7,0-0.9-0.1c-0.2-0.1-0.4-0.2-0.6-0.2V101.4z M148.4,96.4v1.4c0.1,0.1,0.3,0.2,0.6,0.3c0.2,0.1,0.5,0.1,0.9,0.1
	c0.4,0,0.7-0.1,1-0.3c0.3-0.2,0.5-0.4,0.6-0.7c0.2-0.3,0.2-0.6,0.2-1c0-0.4-0.1-0.7-0.2-1c-0.1-0.3-0.3-0.5-0.5-0.7s-0.6-0.3-1-0.3
	c-0.4,0-0.7,0.1-1,0.3c-0.3,0.2-0.5,0.5-0.6,0.9c0,0.1-0.1,0.3-0.1,0.4C148.4,96,148.4,96.2,148.4,96.4z M154,99v-8h1.1v8H154z
	 M156.5,96.8v-3.3h1.1v3.3c0,0.5,0.1,0.9,0.3,1.1s0.5,0.4,0.9,0.4c0.4,0,0.7-0.1,1-0.3c0.2-0.2,0.4-0.5,0.5-0.8
	c0.1-0.3,0.2-0.7,0.2-1v-2.6h1.1v5c0,0,0,0.1,0,0.2c0,0.1,0,0.2,0,0.3h-1l0-0.8c-0.1,0.1-0.2,0.3-0.4,0.4c-0.2,0.1-0.4,0.3-0.6,0.4
	c-0.2,0.1-0.5,0.2-0.9,0.2c-0.7,0-1.3-0.2-1.6-0.6C156.7,98.1,156.5,97.5,156.5,96.8z M162.8,98.3l0.7-0.7c0.2,0.2,0.4,0.4,0.7,0.5
	c0.3,0.1,0.6,0.2,1,0.2c0.4,0,0.7-0.1,0.9-0.2c0.2-0.1,0.4-0.3,0.4-0.6c0-0.2,0-0.3-0.1-0.4c-0.1-0.1-0.3-0.2-0.5-0.3
	c-0.2-0.1-0.6-0.2-1-0.3c-0.3-0.1-0.6-0.2-0.8-0.3c-0.3-0.1-0.5-0.3-0.7-0.5c-0.2-0.2-0.3-0.5-0.3-0.9c0-0.4,0.1-0.7,0.3-0.9
	c0.2-0.2,0.5-0.4,0.8-0.6c0.3-0.1,0.7-0.2,1.1-0.2c0.5,0,0.9,0.1,1.2,0.2c0.3,0.1,0.6,0.3,0.9,0.5l-0.6,0.7
	c-0.2-0.2-0.4-0.3-0.6-0.4c-0.2-0.1-0.5-0.2-0.9-0.2c-0.3,0-0.6,0.1-0.8,0.2c-0.2,0.1-0.3,0.3-0.3,0.6c0,0.2,0.1,0.4,0.4,0.5
	c0.3,0.1,0.6,0.2,1.1,0.3c0.4,0.1,0.7,0.2,0.9,0.3c0.3,0.1,0.5,0.3,0.7,0.5c0.2,0.2,0.3,0.5,0.3,0.9c0,0.4-0.1,0.7-0.3,0.9
	c-0.2,0.2-0.5,0.4-0.9,0.6c-0.4,0.1-0.7,0.2-1.1,0.2C164.1,99.2,163.3,98.9,162.8,98.3z M168.5,99v-1.3h1.4V99H168.5z M175.3,97.5
	l0.7,0.7c-0.2,0.3-0.6,0.5-0.9,0.7c-0.4,0.2-0.8,0.3-1.3,0.3c-0.6,0-1.1-0.1-1.6-0.4c-0.4-0.3-0.8-0.6-1-1c-0.2-0.4-0.4-1-0.4-1.5
	c0-0.5,0.1-1,0.4-1.5c0.2-0.4,0.6-0.8,1-1.1c0.4-0.3,1-0.4,1.5-0.4c0.5,0,0.9,0.1,1.2,0.3c0.4,0.2,0.7,0.4,0.9,0.7l-0.7,0.7
	c-0.2-0.2-0.4-0.4-0.6-0.5c-0.2-0.1-0.5-0.2-0.9-0.2c-0.4,0-0.7,0.1-1,0.3c-0.3,0.2-0.5,0.4-0.6,0.7c-0.1,0.3-0.2,0.6-0.2,1
	c0,0.3,0.1,0.7,0.2,1c0.2,0.3,0.4,0.6,0.6,0.7s0.6,0.3,1,0.3c0.3,0,0.6-0.1,0.9-0.2C174.9,97.9,175.1,97.7,175.3,97.5z M179.3,99.2
	c-0.6,0-1.1-0.1-1.5-0.4c-0.4-0.3-0.8-0.6-1.1-1.1c-0.2-0.5-0.4-1-0.4-1.5c0-0.5,0.1-1,0.4-1.5c0.3-0.4,0.6-0.8,1.1-1.1
	c0.4-0.3,1-0.4,1.5-0.4c0.6,0,1.1,0.1,1.5,0.4c0.4,0.3,0.8,0.6,1.1,1.1c0.3,0.4,0.4,0.9,0.4,1.5c0,0.5-0.1,1-0.4,1.5
	c-0.3,0.4-0.6,0.8-1.1,1.1C180.4,99,179.9,99.2,179.3,99.2z M179.3,98.2c0.4,0,0.7-0.1,1-0.3c0.3-0.2,0.5-0.5,0.6-0.8
	c0.2-0.3,0.2-0.6,0.2-1c0-0.3-0.1-0.7-0.2-1c-0.1-0.3-0.4-0.6-0.6-0.8c-0.3-0.2-0.6-0.3-1-0.3s-0.7,0.1-1,0.3
	c-0.3,0.2-0.5,0.4-0.6,0.8c-0.1,0.3-0.2,0.6-0.2,1c0,0.3,0.1,0.7,0.2,1c0.2,0.3,0.4,0.6,0.6,0.8C178.6,98.1,179,98.2,179.3,98.2z
	 M184.6,99h-1.1v-5c0-0.1,0-0.1,0-0.2c0-0.1,0-0.2,0-0.4h1l0,0.8c0.1-0.1,0.2-0.3,0.4-0.4c0.2-0.2,0.3-0.3,0.6-0.4
	c0.2-0.1,0.5-0.2,0.9-0.2c0.4,0,0.8,0.1,1.1,0.3c0.3,0.2,0.5,0.4,0.7,0.7c0.2-0.3,0.5-0.5,0.8-0.7c0.3-0.2,0.7-0.3,1.2-0.3
	c0.7,0,1.3,0.2,1.6,0.6c0.3,0.4,0.5,1,0.5,1.7V99h-1.1v-3.3c0-1-0.4-1.5-1.2-1.5c-0.3,0-0.6,0.1-0.8,0.2c-0.2,0.2-0.4,0.4-0.6,0.6
	c-0.1,0.2-0.2,0.5-0.2,0.8V99h-1.1v-3.3c0-0.5-0.1-0.9-0.3-1.1c-0.2-0.2-0.5-0.4-0.9-0.4c-0.4,0-0.7,0.1-0.9,0.3
	c-0.2,0.2-0.4,0.5-0.5,0.8c-0.1,0.3-0.1,0.7-0.1,1V99z M193.8,99v-1.3h1.4V99H193.8z M200.3,99l0-0.7c-0.2,0.3-0.5,0.5-0.8,0.6
	c-0.3,0.1-0.7,0.2-1,0.2c-0.3,0-0.6-0.1-0.9-0.2c-0.3-0.1-0.5-0.3-0.7-0.6c-0.2-0.3-0.3-0.6-0.3-1c0-0.6,0.2-1.1,0.6-1.4
	c0.4-0.4,1-0.5,1.8-0.5c0.2,0,0.4,0,0.5,0c0.2,0,0.4,0,0.5,0c0.2,0,0.3,0,0.3,0v-0.2c0-0.4-0.1-0.7-0.4-0.9c-0.2-0.2-0.6-0.3-1-0.3
	c-0.4,0-0.8,0.1-1,0.2c-0.2,0.1-0.5,0.2-0.6,0.3l-0.5-0.7c0.2-0.2,0.5-0.3,0.8-0.5s0.8-0.2,1.4-0.2c0.7,0,1.3,0.2,1.7,0.5
	c0.4,0.3,0.6,0.8,0.6,1.5v3.3c0,0.1,0,0.1,0,0.2c0,0.1,0,0.2,0,0.3H200.3z M200.3,97v-0.6c0,0-0.1,0-0.3,0c-0.1,0-0.3,0-0.5,0
	c-0.2,0-0.3,0-0.5,0c-0.4,0-0.7,0.1-0.9,0.2c-0.2,0.1-0.4,0.3-0.4,0.4c-0.1,0.2-0.1,0.3-0.1,0.5c0,0.3,0.1,0.5,0.3,0.7
	c0.2,0.2,0.5,0.2,0.9,0.2c0.3,0,0.5-0.1,0.8-0.2c0.2-0.1,0.4-0.3,0.6-0.5C200.2,97.4,200.3,97.2,200.3,97z M202.7,96.8v-3.3h1.1v3.3
	c0,0.5,0.1,0.9,0.3,1.1s0.5,0.4,0.9,0.4c0.4,0,0.7-0.1,1-0.3c0.2-0.2,0.4-0.5,0.5-0.8c0.1-0.3,0.2-0.7,0.2-1v-2.6h1.1v5
	c0,0,0,0.1,0,0.2c0,0.1,0,0.2,0,0.3h-1l0-0.8c-0.1,0.1-0.2,0.3-0.4,0.4c-0.2,0.1-0.4,0.3-0.6,0.4c-0.2,0.1-0.5,0.2-0.9,0.2
	c-0.7,0-1.3-0.2-1.6-0.6C202.9,98.1,202.7,97.5,202.7,96.8z M211.4,98.8V91h1.1v3c0.1-0.2,0.3-0.3,0.6-0.5c0.3-0.2,0.7-0.3,1.1-0.3
	c0.6,0,1,0.1,1.4,0.4c0.4,0.3,0.7,0.6,0.9,1c0.2,0.4,0.3,0.9,0.3,1.5c0,0.6-0.1,1.1-0.4,1.6c-0.3,0.4-0.6,0.8-1.1,1.1
	c-0.5,0.3-1,0.4-1.6,0.4c-0.5,0-0.9,0-1.3-0.1C212,99,211.7,98.9,211.4,98.8z M212.5,95.9v2.2c0.1,0,0.2,0.1,0.4,0.1
	c0.2,0,0.4,0,0.7,0c0.6,0,1.1-0.2,1.5-0.6c0.4-0.4,0.6-0.9,0.6-1.5c0-0.3-0.1-0.7-0.2-1c-0.1-0.3-0.3-0.5-0.5-0.7
	c-0.2-0.2-0.5-0.3-0.9-0.3c-0.3,0-0.6,0.1-0.9,0.2c-0.2,0.2-0.4,0.4-0.5,0.6C212.6,95.3,212.5,95.6,212.5,95.9z M222.5,97.5l0.6,0.6
	c-0.1,0.1-0.2,0.2-0.4,0.4c-0.2,0.2-0.5,0.3-0.8,0.4c-0.3,0.1-0.7,0.2-1.2,0.2c-0.6,0-1.1-0.1-1.5-0.4c-0.4-0.3-0.8-0.6-1-1.1
	c-0.2-0.5-0.4-1-0.4-1.6c0-0.5,0.1-1,0.3-1.5c0.2-0.4,0.6-0.8,1-1c0.4-0.3,0.9-0.4,1.5-0.4c0.6,0,1.2,0.2,1.6,0.5
	c0.4,0.3,0.7,0.7,0.9,1.2c0.2,0.5,0.3,1,0.3,1.6h-4.4c0,0.3,0.1,0.6,0.3,0.9c0.2,0.3,0.4,0.5,0.7,0.6c0.3,0.1,0.6,0.2,0.9,0.2
	c0.5,0,0.9-0.1,1.2-0.2C222.1,97.8,222.4,97.7,222.5,97.5z M218.8,95.7h3.3c0-0.4-0.2-0.8-0.5-1.1s-0.7-0.5-1.2-0.5
	c-0.3,0-0.6,0.1-0.9,0.2s-0.4,0.3-0.6,0.6C218.9,95.2,218.9,95.5,218.8,95.7z M224.9,99v-4.7h-1v-0.9h1V93c0-0.5,0.1-0.9,0.3-1.2
	c0.2-0.3,0.4-0.6,0.7-0.7c0.3-0.2,0.6-0.2,0.9-0.2c0.3,0,0.6,0,0.9,0.1c0.3,0.1,0.6,0.2,0.8,0.5l-0.5,0.7c-0.3-0.2-0.6-0.4-0.9-0.4
	c-0.3,0-0.6,0.1-0.8,0.3c-0.2,0.2-0.3,0.5-0.3,1v0.4h1.6v0.9h-1.6V99H224.9z M230.9,99.2c-0.6,0-1.1-0.1-1.5-0.4
	c-0.4-0.3-0.8-0.6-1.1-1.1c-0.2-0.5-0.4-1-0.4-1.5c0-0.5,0.1-1,0.4-1.5c0.3-0.4,0.6-0.8,1.1-1.1c0.4-0.3,1-0.4,1.5-0.4
	c0.6,0,1.1,0.1,1.5,0.4c0.4,0.3,0.8,0.6,1.1,1.1c0.3,0.4,0.4,0.9,0.4,1.5c0,0.5-0.1,1-0.4,1.5c-0.3,0.4-0.6,0.8-1.1,1.1
	C231.9,99,231.4,99.2,230.9,99.2z M230.9,98.2c0.4,0,0.7-0.1,1-0.3c0.3-0.2,0.5-0.5,0.6-0.8c0.2-0.3,0.2-0.6,0.2-1
	c0-0.3-0.1-0.7-0.2-1c-0.1-0.3-0.4-0.6-0.6-0.8c-0.3-0.2-0.6-0.3-1-0.3s-0.7,0.1-1,0.3c-0.3,0.2-0.5,0.4-0.6,0.8
	c-0.1,0.3-0.2,0.6-0.2,1c0,0.3,0.1,0.7,0.2,1c0.2,0.3,0.4,0.6,0.6,0.8C230.1,98.1,230.5,98.2,230.9,98.2z M236.1,99H235v-5
	c0-0.1,0-0.1,0-0.2s0-0.2,0-0.3h1l0,0.9c0.1-0.1,0.2-0.3,0.4-0.4c0.2-0.2,0.4-0.3,0.6-0.4c0.2-0.1,0.5-0.2,0.9-0.2
	c0.1,0,0.2,0,0.3,0c0.1,0,0.2,0,0.3,0.1l-0.2,1c-0.1-0.1-0.3-0.1-0.6-0.1c-0.3,0-0.6,0.1-0.8,0.2c-0.2,0.2-0.4,0.4-0.6,0.6
	c-0.1,0.3-0.2,0.5-0.2,0.9V99z M243.6,97.5l0.6,0.6c-0.1,0.1-0.2,0.2-0.4,0.4c-0.2,0.2-0.5,0.3-0.8,0.4c-0.3,0.1-0.7,0.2-1.2,0.2
	c-0.6,0-1.1-0.1-1.5-0.4c-0.4-0.3-0.8-0.6-1-1.1c-0.2-0.5-0.4-1-0.4-1.6c0-0.5,0.1-1,0.3-1.5c0.2-0.4,0.6-0.8,1-1
	c0.4-0.3,0.9-0.4,1.5-0.4c0.6,0,1.2,0.2,1.6,0.5c0.4,0.3,0.7,0.7,0.9,1.2c0.2,0.5,0.3,1,0.3,1.6h-4.4c0,0.3,0.1,0.6,0.3,0.9
	c0.2,0.3,0.4,0.5,0.7,0.6c0.3,0.1,0.6,0.2,0.9,0.2c0.5,0,0.9-0.1,1.2-0.2C243.2,97.8,243.5,97.7,243.6,97.5z M239.9,95.7h3.3
	c0-0.4-0.2-0.8-0.5-1.1s-0.7-0.5-1.2-0.5c-0.3,0-0.6,0.1-0.9,0.2c-0.2,0.2-0.4,0.3-0.6,0.6C240,95.2,239.9,95.5,239.9,95.7z
	 M248.8,99h-1.1v-5c0-0.1,0-0.1,0-0.2c0-0.1,0-0.2,0-0.4h1l0,0.8c0.1-0.1,0.2-0.3,0.4-0.4c0.2-0.2,0.3-0.3,0.6-0.4
	c0.2-0.1,0.5-0.2,0.9-0.2c0.4,0,0.8,0.1,1.1,0.3c0.3,0.2,0.5,0.4,0.7,0.7c0.2-0.3,0.5-0.5,0.8-0.7c0.3-0.2,0.7-0.3,1.2-0.3
	c0.7,0,1.3,0.2,1.6,0.6c0.3,0.4,0.5,1,0.5,1.7V99h-1.1v-3.3c0-1-0.4-1.5-1.2-1.5c-0.3,0-0.6,0.1-0.8,0.2c-0.2,0.2-0.4,0.4-0.6,0.6
	c-0.1,0.2-0.2,0.5-0.2,0.8V99h-1.1v-3.3c0-0.5-0.1-0.9-0.3-1.1c-0.2-0.2-0.5-0.4-0.9-0.4c-0.4,0-0.7,0.1-0.9,0.3
	c-0.2,0.2-0.4,0.5-0.5,0.8c-0.1,0.3-0.1,0.7-0.1,1V99z M261.4,99l0-0.7c-0.2,0.3-0.5,0.5-0.8,0.6c-0.3,0.1-0.7,0.2-1,0.2
	c-0.3,0-0.6-0.1-0.9-0.2c-0.3-0.1-0.5-0.3-0.7-0.6c-0.2-0.3-0.3-0.6-0.3-1c0-0.6,0.2-1.1,0.6-1.4c0.4-0.4,1-0.5,1.8-0.5
	c0.2,0,0.4,0,0.5,0c0.2,0,0.4,0,0.5,0c0.2,0,0.3,0,0.3,0v-0.2c0-0.4-0.1-0.7-0.4-0.9c-0.2-0.2-0.6-0.3-1-0.3c-0.4,0-0.8,0.1-1,0.2
	c-0.2,0.1-0.5,0.2-0.6,0.3l-0.5-0.7c0.2-0.2,0.5-0.3,0.8-0.5s0.8-0.2,1.4-0.2c0.7,0,1.3,0.2,1.7,0.5c0.4,0.3,0.6,0.8,0.6,1.5v3.3
	c0,0.1,0,0.1,0,0.2c0,0.1,0,0.2,0,0.3H261.4z M261.4,97v-0.6c0,0-0.1,0-0.3,0c-0.1,0-0.3,0-0.5,0c-0.2,0-0.3,0-0.5,0
	c-0.4,0-0.7,0.1-0.9,0.2c-0.2,0.1-0.4,0.3-0.4,0.4c-0.1,0.2-0.1,0.3-0.1,0.5c0,0.3,0.1,0.5,0.3,0.7c0.2,0.2,0.5,0.2,0.9,0.2
	c0.3,0,0.5-0.1,0.8-0.2c0.2-0.1,0.4-0.3,0.6-0.5C261.3,97.4,261.4,97.2,261.4,97z M263.9,99v-8h1.1v4.7l2.3-2.3h1.3l-2.1,2.1
	l2.4,3.5h-1.3l-1.9-2.8l-0.8,0.7V99H263.9z M269.7,92.4v-1.2h1.2v1.2H269.7z M269.8,99v-5.6h1.1V99H269.8z M273.5,99h-1.1v-5
	c0-0.1,0-0.1,0-0.2c0-0.1,0-0.2,0-0.4h1l0,0.8c0.1-0.1,0.2-0.3,0.4-0.4c0.2-0.2,0.4-0.3,0.6-0.4c0.2-0.1,0.5-0.2,0.9-0.2
	c0.7,0,1.3,0.2,1.6,0.6c0.4,0.4,0.5,1,0.5,1.7V99h-1.1v-3.3c0-0.5-0.1-0.9-0.3-1.1c-0.2-0.2-0.5-0.4-0.9-0.4c-0.4,0-0.7,0.1-1,0.3
	c-0.2,0.2-0.4,0.5-0.5,0.8c-0.1,0.3-0.1,0.7-0.1,1V99z M279.2,100.9l0.5-0.8c0.2,0.1,0.4,0.2,0.7,0.3c0.3,0.1,0.6,0.1,1,0.1
	c0.5,0,0.9-0.1,1.2-0.4c0.3-0.3,0.4-0.7,0.4-1.2v-0.7c-0.1,0.1-0.2,0.2-0.3,0.3c-0.1,0.1-0.3,0.2-0.6,0.3c-0.2,0.1-0.5,0.1-0.8,0.1
	c-0.5,0-1-0.1-1.4-0.4c-0.4-0.2-0.7-0.6-0.9-1c-0.2-0.4-0.3-0.9-0.3-1.4c0-0.6,0.1-1.1,0.4-1.5c0.3-0.5,0.6-0.8,1.1-1.1
	c0.5-0.3,1-0.4,1.6-0.4c0.4,0,0.9,0,1.3,0.1c0.4,0.1,0.7,0.2,1,0.3V99c0,0.8-0.2,1.4-0.7,1.9c-0.5,0.4-1.1,0.7-2,0.7
	c-0.6,0-1-0.1-1.4-0.2C279.7,101.2,279.4,101.1,279.2,100.9z M283,96.7v-2.3c-0.1,0-0.2-0.1-0.4-0.1c-0.2,0-0.4-0.1-0.8-0.1
	c-0.4,0-0.8,0.1-1.1,0.3c-0.3,0.2-0.5,0.4-0.7,0.7c-0.2,0.3-0.3,0.7-0.3,1.1c0,0.3,0.1,0.6,0.2,0.9c0.1,0.3,0.3,0.5,0.5,0.7
	c0.2,0.2,0.5,0.3,0.9,0.3c0.4,0,0.7-0.1,0.9-0.2c0.2-0.1,0.4-0.3,0.5-0.5C282.9,97.2,283,97,283,96.7z M19.3,111l0-0.7
	c-0.2,0.3-0.5,0.5-0.8,0.6c-0.3,0.1-0.7,0.2-1,0.2c-0.3,0-0.6-0.1-0.9-0.2c-0.3-0.1-0.5-0.3-0.7-0.6c-0.2-0.3-0.3-0.6-0.3-1
	c0-0.6,0.2-1.1,0.6-1.4s1-0.5,1.8-0.5c0.2,0,0.4,0,0.5,0c0.2,0,0.4,0,0.5,0c0.2,0,0.3,0,0.3,0v-0.2c0-0.4-0.1-0.7-0.4-0.9
	c-0.2-0.2-0.6-0.3-1-0.3c-0.4,0-0.8,0.1-1,0.2c-0.2,0.1-0.5,0.2-0.6,0.3l-0.5-0.7c0.2-0.2,0.5-0.3,0.8-0.5c0.4-0.2,0.8-0.2,1.4-0.2
	c0.7,0,1.3,0.2,1.7,0.5c0.4,0.3,0.6,0.8,0.6,1.5v3.3c0,0.1,0,0.1,0,0.2c0,0.1,0,0.2,0,0.3H19.3z M19.2,109v-0.6c0,0-0.1,0-0.3,0
	c-0.1,0-0.3,0-0.5,0c-0.2,0-0.3,0-0.5,0c-0.4,0-0.7,0.1-0.9,0.2c-0.2,0.1-0.4,0.3-0.4,0.4c-0.1,0.2-0.1,0.3-0.1,0.5
	c0,0.3,0.1,0.5,0.3,0.7c0.2,0.2,0.5,0.2,0.9,0.2c0.3,0,0.5-0.1,0.8-0.2c0.2-0.1,0.4-0.3,0.6-0.5C19.1,109.4,19.2,109.2,19.2,109z
	 M28,111l0-0.7c-0.1,0.1-0.2,0.2-0.3,0.3c-0.1,0.1-0.3,0.3-0.6,0.4c-0.2,0.1-0.6,0.2-0.9,0.2c-0.5,0-0.9-0.1-1.3-0.3
	c-0.4-0.2-0.7-0.6-0.9-1c-0.2-0.4-0.3-0.9-0.3-1.5c0-0.5,0.1-1,0.3-1.4c0.2-0.4,0.4-0.7,0.7-0.9c0.3-0.2,0.6-0.4,0.9-0.5
	c0.3-0.1,0.7-0.2,0.9-0.2c0.3,0,0.6,0,0.8,0.1c0.2,0.1,0.4,0.2,0.7,0.3V103H29v7.4c0,0,0,0.1,0,0.2c0,0.1,0,0.2,0,0.3H28z
	 M27.9,108.6v-2c-0.1-0.1-0.3-0.2-0.6-0.3c-0.2-0.1-0.5-0.1-0.8-0.1c-0.5,0-1,0.2-1.3,0.6c-0.3,0.4-0.5,0.9-0.5,1.5
	c0,0.4,0.1,0.7,0.2,1c0.1,0.3,0.3,0.5,0.5,0.7c0.2,0.2,0.5,0.3,0.9,0.3c0.4,0,0.7-0.1,0.9-0.3c0.2-0.2,0.4-0.4,0.5-0.6
	C27.9,109.1,27.9,108.9,27.9,108.6z M35,109.5l0.6,0.6c-0.1,0.1-0.2,0.2-0.4,0.4c-0.2,0.2-0.5,0.3-0.8,0.4c-0.3,0.1-0.7,0.2-1.2,0.2
	c-0.6,0-1.1-0.1-1.5-0.4c-0.4-0.3-0.8-0.6-1-1.1c-0.2-0.5-0.4-1-0.4-1.6c0-0.5,0.1-1,0.3-1.5c0.2-0.4,0.6-0.8,1-1
	c0.4-0.3,0.9-0.4,1.5-0.4c0.6,0,1.2,0.2,1.6,0.5c0.4,0.3,0.7,0.7,0.9,1.2c0.2,0.5,0.3,1,0.3,1.6h-4.4c0,0.3,0.1,0.6,0.3,0.9
	c0.2,0.3,0.4,0.5,0.7,0.6c0.3,0.1,0.6,0.2,0.9,0.2c0.5,0,0.9-0.1,1.2-0.2C34.6,109.8,34.8,109.7,35,109.5z M31.3,107.7h3.3
	c0-0.4-0.2-0.8-0.5-1.1c-0.3-0.3-0.7-0.5-1.2-0.5c-0.3,0-0.6,0.1-0.9,0.2c-0.2,0.2-0.4,0.3-0.6,0.6
	C31.4,107.2,31.3,107.5,31.3,107.7z M41.1,109.5l0.7,0.7c-0.2,0.3-0.6,0.5-0.9,0.7c-0.4,0.2-0.8,0.3-1.3,0.3c-0.6,0-1.1-0.1-1.6-0.4
	c-0.4-0.3-0.8-0.6-1-1c-0.2-0.4-0.4-1-0.4-1.5c0-0.5,0.1-1,0.4-1.5c0.2-0.4,0.6-0.8,1-1.1c0.4-0.3,1-0.4,1.5-0.4
	c0.5,0,0.9,0.1,1.2,0.3c0.4,0.2,0.7,0.4,0.9,0.7l-0.7,0.7c-0.2-0.2-0.4-0.4-0.6-0.5c-0.2-0.1-0.5-0.2-0.9-0.2c-0.4,0-0.7,0.1-1,0.3
	c-0.3,0.2-0.5,0.4-0.6,0.7c-0.1,0.3-0.2,0.6-0.2,1c0,0.3,0.1,0.7,0.2,1c0.2,0.3,0.4,0.6,0.6,0.7s0.6,0.3,1,0.3
	c0.3,0,0.6-0.1,0.9-0.2C40.7,109.9,41,109.7,41.1,109.5z M42.8,104.4v-1.2H44v1.2H42.8z M42.9,111v-5.6H44v5.6H42.9z M45.2,110.3
	l0.7-0.7c0.2,0.2,0.4,0.4,0.7,0.5c0.3,0.1,0.6,0.2,1,0.2c0.4,0,0.7-0.1,0.9-0.2c0.2-0.1,0.4-0.3,0.4-0.6c0-0.2,0-0.3-0.1-0.4
	c-0.1-0.1-0.3-0.2-0.5-0.3c-0.2-0.1-0.6-0.2-1-0.3c-0.3-0.1-0.6-0.2-0.8-0.3c-0.3-0.1-0.5-0.3-0.7-0.5c-0.2-0.2-0.3-0.5-0.3-0.9
	c0-0.4,0.1-0.7,0.3-0.9c0.2-0.2,0.5-0.4,0.8-0.6c0.3-0.1,0.7-0.2,1.1-0.2c0.5,0,0.9,0.1,1.2,0.2c0.3,0.1,0.6,0.3,0.9,0.5l-0.6,0.7
	c-0.2-0.2-0.4-0.3-0.6-0.4c-0.2-0.1-0.5-0.2-0.9-0.2c-0.3,0-0.6,0.1-0.8,0.2s-0.3,0.3-0.3,0.6c0,0.2,0.1,0.4,0.4,0.5
	c0.3,0.1,0.6,0.2,1.1,0.3c0.4,0.1,0.7,0.2,0.9,0.3c0.3,0.1,0.5,0.3,0.7,0.5c0.2,0.2,0.3,0.5,0.3,0.9c0,0.4-0.1,0.7-0.3,0.9
	c-0.2,0.2-0.5,0.4-0.9,0.6c-0.4,0.1-0.7,0.2-1.1,0.2C46.5,111.2,45.7,110.9,45.2,110.3z M51.1,104.4v-1.2h1.2v1.2H51.1z M51.2,111
	v-5.6h1.1v5.6H51.2z M56.5,111.2c-0.6,0-1.1-0.1-1.5-0.4c-0.4-0.3-0.8-0.6-1.1-1.1c-0.2-0.5-0.4-1-0.4-1.5c0-0.5,0.1-1,0.4-1.5
	c0.3-0.4,0.6-0.8,1.1-1.1c0.4-0.3,1-0.4,1.5-0.4c0.6,0,1.1,0.1,1.5,0.4c0.4,0.3,0.8,0.6,1.1,1.1c0.3,0.4,0.4,0.9,0.4,1.5
	c0,0.5-0.1,1-0.4,1.5c-0.3,0.4-0.6,0.8-1.1,1.1C57.6,111,57.1,111.2,56.5,111.2z M56.5,110.2c0.4,0,0.7-0.1,1-0.3
	c0.3-0.2,0.5-0.5,0.6-0.8c0.2-0.3,0.2-0.6,0.2-1c0-0.3-0.1-0.7-0.2-1c-0.1-0.3-0.4-0.6-0.6-0.8c-0.3-0.2-0.6-0.3-1-0.3
	c-0.4,0-0.7,0.1-1,0.3c-0.3,0.2-0.5,0.4-0.6,0.8c-0.1,0.3-0.2,0.6-0.2,1c0,0.3,0.1,0.7,0.2,1c0.2,0.3,0.4,0.6,0.6,0.8
	C55.8,110.1,56.1,110.2,56.5,110.2z M61.8,111h-1.1v-5c0-0.1,0-0.1,0-0.2c0-0.1,0-0.2,0-0.4h1l0,0.8c0.1-0.1,0.2-0.3,0.4-0.4
	c0.2-0.2,0.4-0.3,0.6-0.4c0.2-0.1,0.5-0.2,0.9-0.2c0.7,0,1.3,0.2,1.6,0.6c0.4,0.4,0.5,1,0.5,1.7v3.3h-1.1v-3.3
	c0-0.5-0.1-0.9-0.3-1.1c-0.2-0.2-0.5-0.4-0.9-0.4c-0.4,0-0.7,0.1-1,0.3c-0.2,0.2-0.4,0.5-0.5,0.8c-0.1,0.3-0.1,0.7-0.1,1V111z
	 M67.3,111v-1.3h1.4v1.3H67.3z"/>
</svg>
