<?xml version="1.0" encoding="utf-8"?>
<!-- Generator: Adobe Illustrator 27.7.0, SVG Export Plug-In . SVG Version: 6.00 Build 0)  -->
<svg version="1.1" id="Layer_1" xmlns="http://www.w3.org/2000/svg" xmlns:xlink="http://www.w3.org/1999/xlink" x="0px" y="0px"
	 viewBox="0 0 147.6 60.8" style="enable-background:new 0 0 147.6 60.8;" xml:space="preserve">
<style type="text/css">
	.st0{fill:#FFD000;}
</style>
<path class="st0" d="M0,14.4l2.6-3.1c0.4,0.4,1,0.9,1.7,1.2c0.7,0.4,1.5,0.6,2.4,0.6c0.4,0,0.8-0.1,1.2-0.3c0.4-0.2,0.6-0.5,0.6-1
	c0-0.4-0.2-0.8-0.6-1c-0.4-0.3-1-0.6-1.8-0.8L5.1,9.7c-0.7-0.2-1.3-0.5-2-0.9C2.5,8.5,2,8,1.6,7.4C1.2,6.8,1,6.1,1,5.2
	c0-1,0.2-1.9,0.7-2.7c0.5-0.8,1.2-1.4,2.1-1.8C4.7,0.2,5.8,0,7.1,0c1.1,0,2,0.1,2.7,0.4c0.8,0.2,1.4,0.5,1.9,0.8
	c0.5,0.3,0.9,0.6,1.1,0.9l-2.2,2.7C10.2,4.4,9.6,4,9,3.8C8.4,3.5,7.8,3.4,7.2,3.4C6.7,3.4,6.3,3.5,6,3.7C5.6,3.8,5.4,4.2,5.4,4.6
	c0,0.5,0.2,0.9,0.7,1.1c0.4,0.2,1,0.4,1.7,0.7l0.8,0.2C9.1,6.7,9.6,7,10.2,7.2c0.6,0.2,1.1,0.6,1.5,0.9c0.5,0.4,0.8,0.9,1.1,1.5
	c0.3,0.6,0.4,1.3,0.4,2.1c0,1-0.3,1.8-0.9,2.6c-0.6,0.8-1.4,1.4-2.3,1.8c-1,0.4-2.1,0.6-3.3,0.6c-1.6,0-2.9-0.2-4-0.6
	C1.7,15.7,0.8,15.1,0,14.4z M15.3,10.2V0.4h4.2v9.4c0,0.9,0.2,1.6,0.6,2.2c0.4,0.6,1.1,0.8,2,0.8c0.9,0,1.6-0.3,2-0.8
	c0.4-0.6,0.6-1.3,0.6-2.2V0.4h4.3v9.7c0,1.4-0.3,2.5-0.9,3.5c-0.6,1-1.4,1.8-2.4,2.3c-1,0.5-2.2,0.8-3.5,0.8c-1.3,0-2.5-0.3-3.6-0.8
	c-1-0.5-1.9-1.3-2.4-2.3C15.6,12.7,15.3,11.5,15.3,10.2z M31.9,16.4v-16h6.5c1.7,0,3.1,0.5,4.1,1.4c1,0.9,1.6,2.2,1.6,3.9
	c0,1.1-0.2,2-0.7,2.8c-0.5,0.8-1.1,1.4-2,1.9c-0.8,0.4-1.8,0.6-2.9,0.6H36v5.3H31.9z M36,7.8h2c0.6,0,1-0.2,1.4-0.6
	c0.3-0.4,0.5-0.8,0.5-1.4c0-0.6-0.2-1.1-0.5-1.5C39.1,4,38.6,3.8,38,3.8h-2V7.8z M46.2,16.4v-16h11.5v3.7h-7.3v2.5h6V10h-6v2.7h7.8
	v3.7H46.2z M60.4,16.4v-16H67c1.7,0,3.1,0.4,4.1,1.3c1,0.9,1.6,2.2,1.6,3.9c0,1-0.2,1.9-0.7,2.7c-0.5,0.8-1.1,1.4-1.8,1.9l3.4,6.1
	H69L66.3,11h-1.8v5.4H60.4z M64.5,7.6h2.1c0.6,0,1-0.2,1.4-0.5c0.4-0.4,0.5-0.8,0.5-1.4c0-0.6-0.2-1.1-0.5-1.4
	c-0.3-0.4-0.8-0.5-1.4-0.5h-2V7.6z M1.3,38.4v-16h6.5c1.7,0,3.1,0.5,4.1,1.4c1,0.9,1.6,2.2,1.6,3.9c0,1.1-0.2,2-0.7,2.8
	c-0.5,0.8-1.1,1.4-2,1.9C10,32.9,9,33.1,7.9,33.1H5.5v5.3H1.3z M5.5,29.8h2c0.6,0,1-0.2,1.4-0.6c0.3-0.4,0.5-0.8,0.5-1.4
	c0-0.6-0.2-1.1-0.5-1.5c-0.3-0.4-0.8-0.6-1.4-0.6h-2V29.8z M15.6,38.4v-16h6.6c1.7,0,3.1,0.4,4.1,1.3c1,0.9,1.6,2.2,1.6,3.9
	c0,1-0.2,1.9-0.7,2.7c-0.5,0.8-1.1,1.4-1.8,1.9l3.4,6.1h-4.5L21.5,33h-1.8v5.4H15.6z M19.7,29.6h2.1c0.6,0,1-0.2,1.4-0.5
	c0.4-0.4,0.5-0.8,0.5-1.4c0-0.6-0.2-1.1-0.5-1.4c-0.3-0.4-0.8-0.5-1.4-0.5h-2V29.6z M38,38.8c-1.2,0-2.3-0.2-3.3-0.6
	c-1-0.4-1.9-1-2.6-1.7c-0.7-0.8-1.3-1.7-1.7-2.7c-0.4-1-0.6-2.1-0.6-3.4s0.2-2.3,0.6-3.4c0.4-1,1-1.9,1.7-2.7
	c0.8-0.8,1.6-1.3,2.6-1.7c1-0.4,2.1-0.6,3.3-0.6s2.3,0.2,3.3,0.6c1,0.4,1.9,1,2.7,1.7c0.8,0.8,1.3,1.6,1.7,2.7
	c0.4,1,0.6,2.1,0.6,3.4s-0.2,2.3-0.6,3.4c-0.4,1-1,1.9-1.7,2.7c-0.8,0.8-1.6,1.3-2.7,1.7C40.3,38.6,39.2,38.8,38,38.8z M38,34.8
	c0.8,0,1.6-0.2,2.1-0.6c0.6-0.4,1-0.9,1.3-1.6c0.3-0.7,0.5-1.4,0.5-2.2s-0.2-1.6-0.5-2.2c-0.3-0.7-0.8-1.2-1.3-1.6
	C39.5,26.2,38.8,26,38,26c-0.8,0-1.5,0.2-2.1,0.6c-0.6,0.4-1,0.9-1.3,1.6c-0.3,0.7-0.5,1.4-0.5,2.2s0.2,1.6,0.5,2.2
	c0.3,0.7,0.8,1.2,1.3,1.6C36.4,34.6,37.1,34.8,38,34.8z M52,38.4l-5.8-16h4.6l3.6,11.1l3.4-11.1h4.5l-5.8,16H52z M63.8,38.4v-16h4.2
	v16H63.8z M70.9,38.4v-16h6.1c1.6,0,3.1,0.3,4.4,0.9c1.3,0.6,2.3,1.4,3.1,2.6c0.8,1.2,1.1,2.7,1.1,4.6c0,1.8-0.4,3.2-1.1,4.4
	c-0.8,1.2-1.8,2-3.1,2.6c-1.3,0.6-2.8,0.9-4.4,0.9H70.9z M75.2,34.7h1.7c1.4,0,2.4-0.4,3.2-1.2c0.8-0.8,1.1-1.8,1.1-3.1
	c0-1.3-0.4-2.3-1.1-3.1c-0.7-0.8-1.8-1.2-3.3-1.2h-1.7V34.7z M87.9,38.4v-16h11.5v3.7h-7.3v2.5h6V32h-6v2.7h7.8v3.7H87.9z
	 M102.1,38.4v-16h6.6c1.7,0,3.1,0.4,4.1,1.3c1,0.9,1.6,2.2,1.6,3.9c0,1-0.2,1.9-0.7,2.7c-0.5,0.8-1.1,1.4-1.8,1.9l3.4,6.1h-4.5
	L108,33h-1.8v5.4H102.1z M106.2,29.6h2.1c0.6,0,1-0.2,1.4-0.5c0.4-0.4,0.5-0.8,0.5-1.4c0-0.6-0.2-1.1-0.5-1.4
	c-0.3-0.4-0.8-0.5-1.4-0.5h-2V29.6z M9,60.8c-1.2,0-2.3-0.2-3.3-0.6c-1-0.4-1.9-1-2.6-1.7c-0.7-0.8-1.3-1.7-1.7-2.7
	c-0.4-1-0.6-2.1-0.6-3.4c0-1.2,0.2-2.3,0.6-3.4s1-1.9,1.7-2.7c0.8-0.8,1.6-1.3,2.6-1.7C6.7,44.2,7.8,44,9,44c1.2,0,2.3,0.2,3.3,0.6
	c1,0.4,1.9,1,2.7,1.7s1.3,1.6,1.7,2.7c0.4,1,0.6,2.1,0.6,3.4c0,1.2-0.2,2.3-0.6,3.4c-0.4,1-1,1.9-1.7,2.7c-0.8,0.8-1.6,1.3-2.7,1.7
	C11.3,60.6,10.2,60.8,9,60.8z M9,56.8c0.8,0,1.6-0.2,2.1-0.6c0.6-0.4,1-0.9,1.3-1.6c0.3-0.7,0.5-1.4,0.5-2.2c0-0.8-0.2-1.6-0.5-2.2
	c-0.3-0.7-0.8-1.2-1.3-1.6C10.6,48.2,9.8,48,9,48c-0.8,0-1.5,0.2-2.1,0.6c-0.6,0.4-1,0.9-1.3,1.6c-0.3,0.7-0.5,1.4-0.5,2.2
	c0,0.8,0.2,1.6,0.5,2.2c0.3,0.7,0.8,1.2,1.3,1.6C7.5,56.6,8.2,56.8,9,56.8z M19.6,60.4v-16h11.1v3.7h-6.9v3.1h5.3v3.5h-5.3v5.7H19.6
	z M40.9,60.4V48.1H36v-3.7H50v3.7h-4.9v12.3H40.9z M51.9,60.4v-16h4.2v5.8h5.9v-5.8h4.2v16h-4.2v-6.2h-5.9v6.2H51.9z M69.2,60.4v-16
	h11.5v3.7h-7.3v2.5h6V54h-6v2.7h7.8v3.7H69.2z M92.1,60.4V54l-5.7-9.6h4.9l3.1,5.7l2.9-5.7h4.7L96.4,54v6.4H92.1z M103.7,60.4v-16
	h11.5v3.7h-7.3v2.5h6V54h-6v2.7h7.8v3.7H103.7z M116.5,60.4l5.9-16h4.9l5.7,16h-4.6l-1-3.3H122l-1.1,3.3H116.5z M122.8,54h3.6
	l-1.8-5.9L122.8,54z M134.5,60.4v-16h6.6c1.7,0,3.1,0.4,4.1,1.3c1,0.9,1.6,2.2,1.6,3.9c0,1-0.2,1.9-0.7,2.7
	c-0.5,0.8-1.1,1.4-1.8,1.9l3.4,6.1h-4.5l-2.7-5.4h-1.8v5.4H134.5z M138.6,51.6h2.1c0.6,0,1-0.2,1.4-0.5c0.4-0.4,0.5-0.8,0.5-1.4
	c0-0.6-0.2-1.1-0.5-1.4c-0.3-0.4-0.8-0.5-1.4-0.5h-2V51.6z"/>
</svg>
