<svg width="135" height="26" viewBox="0 0 135 26" fill="none" xmlns="http://www.w3.org/2000/svg">
<path d="M19.7922 14.416L21.0282 15.544C20.8042 15.848 20.5162 16.128 20.1642 16.384C19.8202 16.64 19.4322 16.844 19.0002 16.996C18.5682 17.148 18.1042 17.224 17.6082 17.224C16.8002 17.224 16.0842 17.044 15.4602 16.684C14.8442 16.324 14.3602 15.832 14.0082 15.208C13.6642 14.576 13.4922 13.856 13.4922 13.048C13.4922 12.456 13.5922 11.904 13.7922 11.392C13.9922 10.872 14.2722 10.42 14.6322 10.036C15.0002 9.65202 15.4362 9.35202 15.9402 9.13602C16.4522 8.92002 17.0162 8.81202 17.6322 8.81202C18.3682 8.81202 19.0162 8.94802 19.5762 9.22002C20.1362 9.49202 20.6002 9.88402 20.9682 10.396L19.7322 11.584C19.4922 11.248 19.2082 10.98 18.8802 10.78C18.5522 10.572 18.1602 10.468 17.7042 10.468C17.2242 10.468 16.8082 10.584 16.4562 10.816C16.1122 11.04 15.8442 11.344 15.6522 11.728C15.4682 12.112 15.3762 12.536 15.3762 13C15.3762 13.472 15.4682 13.896 15.6522 14.272C15.8442 14.648 16.1122 14.948 16.4562 15.172C16.8002 15.388 17.2042 15.496 17.6682 15.496C18.0522 15.496 18.3722 15.444 18.6282 15.34C18.8842 15.236 19.1002 15.104 19.2762 14.944C19.4602 14.776 19.6322 14.6 19.7922 14.416ZM21.6933 14.2C21.6933 13.648 21.8213 13.144 22.0773 12.688C22.3333 12.232 22.6853 11.872 23.1333 11.608C23.5893 11.336 24.1173 11.2 24.7173 11.2C25.3173 11.2 25.8413 11.336 26.2893 11.608C26.7453 11.872 27.0973 12.232 27.3453 12.688C27.6013 13.144 27.7293 13.648 27.7293 14.2C27.7293 14.752 27.6013 15.256 27.3453 15.712C27.0973 16.168 26.7453 16.532 26.2893 16.804C25.8413 17.076 25.3173 17.212 24.7173 17.212C24.1173 17.212 23.5893 17.076 23.1333 16.804C22.6853 16.532 22.3333 16.168 22.0773 15.712C21.8213 15.256 21.6933 14.752 21.6933 14.2ZM24.7173 15.712C25.0133 15.712 25.2573 15.64 25.4493 15.496C25.6493 15.352 25.8013 15.164 25.9053 14.932C26.0093 14.7 26.0613 14.456 26.0613 14.2C26.0613 13.944 26.0093 13.704 25.9053 13.48C25.8013 13.248 25.6493 13.06 25.4493 12.916C25.2573 12.772 25.0133 12.7 24.7173 12.7C24.4293 12.7 24.1813 12.772 23.9733 12.916C23.7733 13.06 23.6213 13.248 23.5173 13.48C23.4133 13.704 23.3613 13.944 23.3613 14.2C23.3613 14.456 23.4133 14.7 23.5173 14.932C23.6213 15.164 23.7733 15.352 23.9733 15.496C24.1813 15.64 24.4293 15.712 24.7173 15.712ZM28.7539 17.02V11.392H30.4099L30.4699 12.016C30.6459 11.8 30.8699 11.62 31.1419 11.476C31.4139 11.332 31.7339 11.26 32.1019 11.26C32.5499 11.26 32.9059 11.344 33.1699 11.512C33.4339 11.68 33.6299 11.856 33.7579 12.04C33.9899 11.792 34.2699 11.6 34.5979 11.464C34.9339 11.328 35.2819 11.26 35.6419 11.26C36.3539 11.26 36.9019 11.468 37.2859 11.884C37.6699 12.292 37.8619 12.844 37.8619 13.54V17.02H36.1339V13.816C36.1339 13.488 36.0579 13.232 35.9059 13.048C35.7619 12.856 35.5419 12.76 35.2459 12.76C34.9179 12.76 34.6499 12.876 34.4419 13.108C34.2419 13.34 34.1419 13.636 34.1419 13.996V17.02H32.4739V13.816C32.4739 13.488 32.3979 13.232 32.2459 13.048C32.1019 12.856 31.8819 12.76 31.5859 12.76C31.2659 12.76 31.0019 12.876 30.7939 13.108C30.5859 13.34 30.4819 13.636 30.4819 13.996V17.02H28.7539ZM39.1133 19.42V11.392H40.7693C40.7853 11.496 40.7973 11.6 40.8053 11.704C40.8133 11.8 40.8213 11.9 40.8293 12.004C41.0133 11.772 41.2493 11.596 41.5373 11.476C41.8253 11.348 42.1253 11.284 42.4373 11.284C42.9893 11.284 43.4493 11.42 43.8173 11.692C44.1853 11.964 44.4613 12.32 44.6453 12.76C44.8293 13.2 44.9213 13.668 44.9213 14.164C44.9213 14.684 44.8333 15.136 44.6573 15.52C44.4893 15.904 44.2613 16.22 43.9733 16.468C43.6853 16.716 43.3693 16.9 43.0253 17.02C42.6813 17.14 42.3333 17.2 41.9813 17.2C41.7093 17.2 41.4853 17.176 41.3093 17.128C41.1333 17.08 40.9733 17.032 40.8293 16.984V19.42H39.1133ZM40.8293 14.032V15.532C41.0613 15.684 41.3933 15.76 41.8253 15.76C42.2493 15.76 42.5813 15.616 42.8213 15.328C43.0693 15.04 43.1933 14.664 43.1933 14.2C43.1933 13.952 43.1533 13.72 43.0733 13.504C43.0013 13.28 42.8773 13.1 42.7013 12.964C42.5333 12.828 42.3053 12.76 42.0173 12.76C41.6333 12.76 41.3373 12.892 41.1293 13.156C40.9293 13.42 40.8293 13.712 40.8293 14.032ZM49.2573 17.02L49.2093 16.492C48.8093 16.956 48.2413 17.188 47.5053 17.188C47.2413 17.188 46.9613 17.136 46.6653 17.032C46.3773 16.936 46.1293 16.76 45.9213 16.504C45.7133 16.248 45.6093 15.896 45.6093 15.448C45.6093 15.008 45.7213 14.636 45.9453 14.332C46.1773 14.028 46.4893 13.8 46.8813 13.648C47.2733 13.488 47.7133 13.408 48.2013 13.408C48.4013 13.408 48.6013 13.412 48.8013 13.42C49.0093 13.428 49.1453 13.44 49.2093 13.456V13.336C49.2093 13.048 49.0973 12.844 48.8733 12.724C48.6573 12.596 48.4093 12.532 48.1293 12.532C47.7533 12.532 47.4373 12.58 47.1813 12.676C46.9253 12.772 46.7093 12.88 46.5333 13L45.8253 11.944C46.0573 11.76 46.3733 11.592 46.7733 11.44C47.1733 11.28 47.7053 11.2 48.3693 11.2C49.2253 11.2 49.8573 11.432 50.2653 11.896C50.6733 12.352 50.8773 12.968 50.8773 13.744V17.02H49.2573ZM49.2093 14.992V14.536C49.1693 14.528 49.0933 14.52 48.9813 14.512C48.8693 14.496 48.7413 14.488 48.5973 14.488C48.1173 14.488 47.7773 14.556 47.5773 14.692C47.3773 14.828 47.2773 15.02 47.2773 15.268C47.2773 15.732 47.5573 15.964 48.1173 15.964C48.3893 15.964 48.6373 15.88 48.8613 15.712C49.0933 15.544 49.2093 15.304 49.2093 14.992ZM52.1211 17.02V11.392H53.7771L53.8371 12.1C53.9811 11.908 54.1771 11.724 54.4251 11.548C54.6811 11.372 55.0091 11.284 55.4091 11.284C55.5611 11.284 55.6891 11.292 55.7931 11.308C55.9051 11.324 56.0131 11.352 56.1171 11.392L55.8411 12.916C55.6651 12.86 55.4571 12.832 55.2171 12.832C54.8091 12.832 54.4771 12.956 54.2211 13.204C53.9731 13.444 53.8491 13.788 53.8491 14.236V17.02H52.1211ZM61.2057 15.316L61.9137 16.408C61.8337 16.464 61.6897 16.556 61.4817 16.684C61.2817 16.812 61.0137 16.932 60.6777 17.044C60.3417 17.156 59.9297 17.212 59.4417 17.212C58.8017 17.212 58.2497 17.084 57.7857 16.828C57.3217 16.572 56.9657 16.216 56.7177 15.76C56.4697 15.304 56.3457 14.78 56.3457 14.188C56.3457 13.66 56.4577 13.168 56.6817 12.712C56.9137 12.256 57.2457 11.892 57.6777 11.62C58.1177 11.34 58.6417 11.2 59.2497 11.2C59.8577 11.2 60.3657 11.34 60.7737 11.62C61.1897 11.892 61.5017 12.272 61.7097 12.76C61.9257 13.24 62.0337 13.796 62.0337 14.428V14.716H58.0257C58.0337 15.012 58.1697 15.276 58.4337 15.508C58.6977 15.74 59.0537 15.856 59.5017 15.856C59.9497 15.856 60.3137 15.792 60.5937 15.664C60.8737 15.528 61.0777 15.412 61.2057 15.316ZM58.0257 13.612H60.4017C60.4017 13.452 60.3577 13.292 60.2697 13.132C60.1897 12.964 60.0617 12.824 59.8857 12.712C59.7177 12.6 59.5017 12.544 59.2377 12.544C58.9737 12.544 58.7497 12.6 58.5657 12.712C58.3897 12.824 58.2537 12.964 58.1577 13.132C58.0697 13.292 58.0257 13.452 58.0257 13.612ZM65.3315 17.02V9.01602H67.1435V12.088H70.6115V9.01602H72.4235V17.02H70.6115V13.732H67.1435V17.02H65.3315ZM73.584 14.2C73.584 13.648 73.712 13.144 73.968 12.688C74.224 12.232 74.576 11.872 75.024 11.608C75.48 11.336 76.008 11.2 76.608 11.2C77.208 11.2 77.732 11.336 78.18 11.608C78.636 11.872 78.988 12.232 79.236 12.688C79.492 13.144 79.62 13.648 79.62 14.2C79.62 14.752 79.492 15.256 79.236 15.712C78.988 16.168 78.636 16.532 78.18 16.804C77.732 17.076 77.208 17.212 76.608 17.212C76.008 17.212 75.48 17.076 75.024 16.804C74.576 16.532 74.224 16.168 73.968 15.712C73.712 15.256 73.584 14.752 73.584 14.2ZM76.608 15.712C76.904 15.712 77.148 15.64 77.34 15.496C77.54 15.352 77.692 15.164 77.796 14.932C77.9 14.7 77.952 14.456 77.952 14.2C77.952 13.944 77.9 13.704 77.796 13.48C77.692 13.248 77.54 13.06 77.34 12.916C77.148 12.772 76.904 12.7 76.608 12.7C76.32 12.7 76.072 12.772 75.864 12.916C75.664 13.06 75.512 13.248 75.408 13.48C75.304 13.704 75.252 13.944 75.252 14.2C75.252 14.456 75.304 14.7 75.408 14.932C75.512 15.164 75.664 15.352 75.864 15.496C76.072 15.64 76.32 15.712 76.608 15.712ZM80.3685 16.384L81.2205 15.28C81.4045 15.448 81.6445 15.588 81.9405 15.7C82.2445 15.812 82.5365 15.868 82.8165 15.868C83.0725 15.868 83.2845 15.836 83.4525 15.772C83.6205 15.7 83.7045 15.576 83.7045 15.4C83.7045 15.296 83.6685 15.212 83.5965 15.148C83.5325 15.076 83.4045 15.004 83.2125 14.932C83.0285 14.86 82.7565 14.776 82.3965 14.68C82.1085 14.6 81.8285 14.492 81.5565 14.356C81.2925 14.22 81.0725 14.04 80.8965 13.816C80.7285 13.584 80.6445 13.296 80.6445 12.952C80.6445 12.6 80.7485 12.296 80.9565 12.04C81.1645 11.776 81.4485 11.572 81.8085 11.428C82.1685 11.276 82.5725 11.2 83.0205 11.2C83.5005 11.2 83.9205 11.256 84.2805 11.368C84.6485 11.472 84.9805 11.628 85.2765 11.836L84.5445 12.976C84.3685 12.856 84.1605 12.748 83.9205 12.652C83.6805 12.556 83.4125 12.508 83.1165 12.508C82.8525 12.508 82.6605 12.548 82.5405 12.628C82.4205 12.7 82.3605 12.8 82.3605 12.928C82.3605 13.112 82.4845 13.248 82.7325 13.336C82.9885 13.424 83.3245 13.524 83.7405 13.636C84.3085 13.788 84.7245 14.008 84.9885 14.296C85.2525 14.576 85.3845 14.948 85.3845 15.412C85.3845 15.82 85.2645 16.16 85.0245 16.432C84.7845 16.696 84.4725 16.892 84.0885 17.02C83.7125 17.148 83.3125 17.212 82.8885 17.212C82.3845 17.212 81.9085 17.144 81.4605 17.008C81.0125 16.864 80.6485 16.656 80.3685 16.384ZM86.7364 14.872V12.748H85.8484V11.392H86.7364V9.54402H88.4644V11.392H89.9164V12.748H88.4644V14.968C88.4644 15.24 88.5164 15.452 88.6204 15.604C88.7324 15.748 88.9044 15.82 89.1364 15.82C89.3124 15.82 89.4644 15.792 89.5924 15.736C89.7204 15.672 89.8404 15.6 89.9524 15.52L90.6484 16.576C90.1124 17.008 89.5204 17.224 88.8724 17.224C88.3364 17.224 87.9124 17.124 87.6004 16.924C87.2884 16.724 87.0644 16.448 86.9284 16.096C86.8004 15.744 86.7364 15.336 86.7364 14.872ZM91.332 19.42V11.392H92.988C93.004 11.496 93.016 11.6 93.024 11.704C93.032 11.8 93.04 11.9 93.048 12.004C93.232 11.772 93.468 11.596 93.756 11.476C94.044 11.348 94.344 11.284 94.656 11.284C95.208 11.284 95.668 11.42 96.036 11.692C96.404 11.964 96.68 12.32 96.864 12.76C97.048 13.2 97.14 13.668 97.14 14.164C97.14 14.684 97.052 15.136 96.876 15.52C96.708 15.904 96.48 16.22 96.192 16.468C95.904 16.716 95.588 16.9 95.244 17.02C94.9 17.14 94.552 17.2 94.2 17.2C93.928 17.2 93.704 17.176 93.528 17.128C93.352 17.08 93.192 17.032 93.048 16.984V19.42H91.332ZM93.048 14.032V15.532C93.28 15.684 93.612 15.76 94.044 15.76C94.468 15.76 94.8 15.616 95.04 15.328C95.288 15.04 95.412 14.664 95.412 14.2C95.412 13.952 95.372 13.72 95.292 13.504C95.22 13.28 95.096 13.1 94.92 12.964C94.752 12.828 94.524 12.76 94.236 12.76C93.852 12.76 93.556 12.892 93.348 13.156C93.148 13.42 93.048 13.712 93.048 14.032ZM98.1641 17.02V9.01602H99.8921V17.02H98.1641ZM101.14 14.884V11.392H102.868V14.632C102.868 14.952 102.944 15.204 103.096 15.388C103.256 15.572 103.488 15.664 103.792 15.664C104.144 15.664 104.416 15.54 104.608 15.292C104.8 15.036 104.896 14.748 104.896 14.428V11.392H106.612V17.02H104.956L104.908 16.42C104.724 16.636 104.48 16.816 104.176 16.96C103.88 17.096 103.568 17.164 103.24 17.164C102.6 17.164 102.088 16.972 101.704 16.588C101.328 16.204 101.14 15.636 101.14 14.884ZM107.615 16.384L108.467 15.28C108.651 15.448 108.891 15.588 109.187 15.7C109.491 15.812 109.783 15.868 110.063 15.868C110.319 15.868 110.531 15.836 110.699 15.772C110.867 15.7 110.951 15.576 110.951 15.4C110.951 15.296 110.915 15.212 110.843 15.148C110.779 15.076 110.651 15.004 110.459 14.932C110.275 14.86 110.003 14.776 109.643 14.68C109.355 14.6 109.075 14.492 108.803 14.356C108.539 14.22 108.319 14.04 108.143 13.816C107.975 13.584 107.891 13.296 107.891 12.952C107.891 12.6 107.995 12.296 108.203 12.04C108.411 11.776 108.695 11.572 109.055 11.428C109.415 11.276 109.819 11.2 110.267 11.2C110.747 11.2 111.167 11.256 111.527 11.368C111.895 11.472 112.227 11.628 112.523 11.836L111.791 12.976C111.615 12.856 111.407 12.748 111.167 12.652C110.927 12.556 110.659 12.508 110.363 12.508C110.099 12.508 109.907 12.548 109.787 12.628C109.667 12.7 109.607 12.8 109.607 12.928C109.607 13.112 109.731 13.248 109.979 13.336C110.235 13.424 110.571 13.524 110.987 13.636C111.555 13.788 111.971 14.008 112.235 14.296C112.499 14.576 112.631 14.948 112.631 15.412C112.631 15.82 112.511 16.16 112.271 16.432C112.031 16.696 111.719 16.892 111.335 17.02C110.959 17.148 110.559 17.212 110.135 17.212C109.631 17.212 109.155 17.144 108.707 17.008C108.259 16.864 107.895 16.656 107.615 16.384Z" fill="#002855"/>
<path d="M118.835 8.85498L123 13.0201L118.835 17.1851" stroke="#002855" stroke-width="1.74176" stroke-linecap="round"/>
</svg>
