<svg width="113" height="17" viewBox="0 0 113 17" fill="none" xmlns="http://www.w3.org/2000/svg">
<path d="M6.6625 11.4237C8.85625 11.4237 10.2375 9.75 10.2375 7.23125V7.10125C10.2375 4.7125 8.905 2.94125 6.63 2.94125C4.355 2.94125 3.00625 4.615 3.00625 7.1175V7.2475C3.00625 9.7825 4.55 11.4237 6.6625 11.4237ZM6.63 13.1625C3.07125 13.1625 0.7475 10.6113 0.7475 7.26375V7.13375C0.7475 3.7375 3.185 1.21875 6.63 1.21875C10.0913 1.21875 12.48 3.6725 12.48 7.085V7.215C12.48 10.6113 10.1562 13.1625 6.63 13.1625ZM17.9682 13V5.98H16.8144V4.50125H17.9682V3.36375C17.9682 1.495 19.0082 0.487499 20.8282 0.487499C21.2994 0.487499 21.5919 0.53625 21.9494 0.649999V2.1775C21.7219 2.09625 21.4132 2.03125 21.0557 2.03125C20.2594 2.03125 19.9344 2.55125 19.9344 3.2825V4.50125H21.8682V5.98H19.9344V13H17.9682ZM26.0331 13.1625C24.3594 13.1625 23.1081 12.2037 23.1081 9.945V4.50125H25.0744V9.7175C25.0744 11.0012 25.6106 11.5862 26.7481 11.5862C27.8044 11.5862 28.7306 10.9037 28.7306 9.555V4.50125H30.6969V13H28.7306V11.6675C28.3081 12.4962 27.4144 13.1625 26.0331 13.1625ZM35.5958 13.1463C33.9058 13.1463 33.0283 12.2362 33.0283 10.6275V5.98H31.8908V4.50125H33.0283V2.6325H34.9945V4.50125H36.8633V5.98H34.9945V10.4487C34.9945 11.1962 35.352 11.5375 35.9695 11.5375C36.3595 11.5375 36.652 11.4887 36.9283 11.375V12.935C36.6195 13.0488 36.197 13.1463 35.5958 13.1463ZM41.2205 13.1625C39.5468 13.1625 38.2955 12.2037 38.2955 9.945V4.50125H40.2618V9.7175C40.2618 11.0012 40.798 11.5862 41.9355 11.5862C42.9918 11.5862 43.918 10.9037 43.918 9.555V4.50125H45.8843V13H43.918V11.6675C43.4955 12.4962 42.6018 13.1625 41.2205 13.1625ZM47.8907 13V4.50125H49.8569V6.09375C50.3932 5.02125 51.1894 4.3875 52.6194 4.37125V6.2075C50.8969 6.22375 49.8569 6.77625 49.8569 8.58V13H47.8907ZM57.6682 11.635C59.1307 11.635 60.0082 10.5462 60.0082 8.8075V8.69375C60.0082 6.93875 59.1307 5.86625 57.6682 5.86625C56.2057 5.86625 55.312 6.9225 55.312 8.6775V8.8075C55.312 10.5462 56.1732 11.635 57.6682 11.635ZM57.652 13.1625C55.1495 13.1625 53.297 11.4237 53.297 8.84V8.71C53.297 6.0775 55.1657 4.3225 57.6682 4.3225C60.1545 4.3225 62.0232 6.06125 62.0232 8.66125V8.79125C62.0232 11.44 60.1545 13.1625 57.652 13.1625ZM65.9006 16.055V14.5438C66.7619 14.4788 67.0706 14.0563 67.0706 13.3413V4.50125H69.0369V13.2925C69.0369 15.015 68.2569 16.0225 65.9006 16.055ZM68.0294 3.10375C67.3794 3.10375 66.8594 2.61625 66.8594 1.9825C66.8594 1.3325 67.3794 0.845 68.0294 0.845C68.6794 0.845 69.1994 1.3325 69.1994 1.9825C69.1994 2.61625 68.6794 3.10375 68.0294 3.10375ZM73.3347 13.1625C71.7747 13.1625 70.491 12.415 70.491 10.6437C70.491 8.66125 72.4085 7.94625 74.846 7.94625H75.9022V7.5075C75.9022 6.37 75.5122 5.80125 74.3585 5.80125C73.3347 5.80125 72.831 6.28875 72.7335 7.13375H70.8322C70.9947 5.15125 72.571 4.3225 74.4722 4.3225C76.3735 4.3225 77.8685 5.1025 77.8685 7.42625V13H75.9347V11.96C75.3822 12.6912 74.6347 13.1625 73.3347 13.1625ZM73.806 11.7487C75.0085 11.7487 75.9022 11.115 75.9022 10.0262V9.18125H74.8947C73.3997 9.18125 72.441 9.5225 72.441 10.5625C72.441 11.2775 72.831 11.7487 73.806 11.7487ZM73.6597 3.23375L74.6185 0.714999H76.796L75.106 3.23375H73.6597ZM87.0817 13.1625C84.5792 13.1625 82.7755 11.5212 82.7755 8.84V8.71C82.7755 6.0775 84.5792 4.3225 87.0005 4.3225C89.113 4.3225 91.0142 5.57375 91.0142 8.6125V9.18125H84.7905C84.8555 10.79 85.668 11.7 87.1305 11.7C88.3167 11.7 88.9342 11.2287 89.0805 10.4H90.9817C90.7055 12.1875 89.2592 13.1625 87.0817 13.1625ZM84.823 7.865H89.0642C88.9667 6.4025 88.2192 5.7525 87.0005 5.7525C85.8142 5.7525 85.018 6.54875 84.823 7.865ZM95.4336 13.1625C93.2398 13.1625 91.9561 12.155 91.8748 10.3512H93.7273C93.8248 11.2125 94.2636 11.7162 95.4173 11.7162C96.4736 11.7162 96.9448 11.3425 96.9448 10.6275C96.9448 9.92875 96.3761 9.66875 95.1248 9.4575C92.8823 9.1 92.0536 8.46625 92.0536 6.87375C92.0536 5.1675 93.6461 4.3225 95.2386 4.3225C96.9773 4.3225 98.3586 4.9725 98.5698 6.89H96.7498C96.5873 6.11 96.1486 5.7525 95.2386 5.7525C94.3936 5.7525 93.8898 6.15875 93.8898 6.76C93.8898 7.3775 94.2961 7.62125 95.6448 7.84875C97.6436 8.1575 98.8298 8.645 98.8298 10.4487C98.8298 12.1712 97.6111 13.1625 95.4336 13.1625ZM103.122 13.1463C101.432 13.1463 100.555 12.2362 100.555 10.6275V5.98H99.4171V4.50125H100.555V2.6325H102.521V4.50125H104.39V5.98H102.521V10.4487C102.521 11.1962 102.878 11.5375 103.496 11.5375C103.886 11.5375 104.178 11.4887 104.455 11.375V12.935C104.146 13.0488 103.723 13.1463 103.122 13.1463ZM108.209 13.1625C106.649 13.1625 105.365 12.415 105.365 10.6437C105.365 8.66125 107.283 7.94625 109.72 7.94625H110.776V7.5075C110.776 6.37 110.386 5.80125 109.233 5.80125C108.209 5.80125 107.705 6.28875 107.608 7.13375H105.706C105.869 5.15125 107.445 4.3225 109.346 4.3225C111.248 4.3225 112.743 5.1025 112.743 7.42625V13H110.809V11.96C110.256 12.6912 109.509 13.1625 108.209 13.1625ZM108.68 11.7487C109.883 11.7487 110.776 11.115 110.776 10.0262V9.18125H109.769C108.274 9.18125 107.315 9.5225 107.315 10.5625C107.315 11.2775 107.705 11.7487 108.68 11.7487ZM108.534 3.23375L109.493 0.714999H111.67L109.98 3.23375H108.534Z" fill="#DD5900"/>
</svg>
