<svg width="64" height="14" viewBox="0 0 64 14" fill="none" xmlns="http://www.w3.org/2000/svg">
<path d="M0.152 13V4.632H2.088V5.912C2.488 5.128 3.4 4.456 4.632 4.456C5.72 4.456 6.584 4.92 7 5.96C7.64 4.92 8.792 4.456 9.832 4.456C11.368 4.456 12.616 5.4 12.616 7.704V13H10.68V7.832C10.68 6.6 10.152 6.072 9.192 6.072C8.232 6.072 7.352 6.712 7.352 7.992V13H5.416V7.832C5.416 6.6 4.872 6.072 3.928 6.072C2.968 6.072 2.088 6.712 2.088 7.992V13H0.152ZM18.1995 13.16C15.7355 13.16 13.9595 11.544 13.9595 8.904V8.776C13.9595 6.184 15.7355 4.456 18.1195 4.456C20.1995 4.456 22.0715 5.688 22.0715 8.68V9.24H15.9435C16.0075 10.824 16.8075 11.72 18.2475 11.72C19.4155 11.72 20.0235 11.256 20.1675 10.44H22.0395C21.7675 12.2 20.3435 13.16 18.1995 13.16ZM15.9755 7.944H20.1515C20.0555 6.504 19.3195 5.864 18.1195 5.864C16.9515 5.864 16.1675 6.648 15.9755 7.944ZM23.5288 13V0.759999H25.4648V13H23.5288ZM27.5045 13V0.759999H29.4405V5.96C29.8405 5.144 30.7685 4.456 32.1445 4.456C33.8245 4.456 35.0085 5.432 35.0085 7.736V13H33.0725V7.912C33.0725 6.648 32.5605 6.072 31.4085 6.072C30.3205 6.072 29.4405 6.744 29.4405 8.072V13H27.5045ZM40.6629 11.656C42.1029 11.656 42.9669 10.584 42.9669 8.872V8.76C42.9669 7.032 42.1029 5.976 40.6629 5.976C39.2229 5.976 38.3429 7.016 38.3429 8.744V8.872C38.3429 10.584 39.1909 11.656 40.6629 11.656ZM40.6469 13.16C38.1829 13.16 36.3589 11.448 36.3589 8.904V8.776C36.3589 6.184 38.1989 4.456 40.6629 4.456C43.1109 4.456 44.9509 6.168 44.9509 8.728V8.856C44.9509 11.464 43.1109 13.16 40.6469 13.16ZM46.3801 13V4.632H48.3161V6.2C48.8441 5.144 49.6281 4.52 51.0361 4.504V6.312C49.3401 6.328 48.3161 6.872 48.3161 8.648V13H46.3801ZM58.68 3.384L59.624 0.903999H61.768L60.104 3.384H58.68ZM59.592 13.16C57.128 13.16 55.352 11.544 55.352 8.904V8.776C55.352 6.184 57.128 4.456 59.512 4.456C61.592 4.456 63.464 5.688 63.464 8.68V9.24H57.336C57.4 10.824 58.2 11.72 59.64 11.72C60.808 11.72 61.416 11.256 61.56 10.44H63.432C63.16 12.2 61.736 13.16 59.592 13.16ZM57.368 7.944H61.544C61.448 6.504 60.712 5.864 59.512 5.864C58.344 5.864 57.56 6.648 57.368 7.944Z" fill="black"/>
</svg>
