<svg width="126" height="16" viewBox="0 0 126 16" fill="none" xmlns="http://www.w3.org/2000/svg">
<path d="M0.152 13V4.632H2.088V6.2C2.616 5.144 3.4 4.52 4.808 4.504V6.312C3.112 6.328 2.088 6.872 2.088 8.648V13H0.152ZM9.71513 13.16C7.25112 13.16 5.47512 11.544 5.47512 8.904V8.776C5.47512 6.184 7.25112 4.456 9.63513 4.456C11.7151 4.456 13.5871 5.688 13.5871 8.68V9.24H7.45913C7.52312 10.824 8.32312 11.72 9.76312 11.72C10.9311 11.72 11.5391 11.256 11.6831 10.44H13.5551C13.2831 12.2 11.8591 13.16 9.71513 13.16ZM7.49112 7.944H11.6671C11.5711 6.504 10.8351 5.864 9.63513 5.864C8.46712 5.864 7.68313 6.648 7.49112 7.944ZM17.9385 13.16C15.7785 13.16 14.5145 12.168 14.4345 10.392H16.2585C16.3545 11.24 16.7865 11.736 17.9225 11.736C18.9625 11.736 19.4265 11.368 19.4265 10.664C19.4265 9.976 18.8665 9.72 17.6345 9.512C15.4265 9.16 14.6105 8.536 14.6105 6.968C14.6105 5.288 16.1785 4.456 17.7465 4.456C19.4585 4.456 20.8185 5.096 21.0265 6.984H19.2345C19.0745 6.216 18.6425 5.864 17.7465 5.864C16.9145 5.864 16.4185 6.264 16.4185 6.856C16.4185 7.464 16.8185 7.704 18.1465 7.928C20.1145 8.232 21.2825 8.712 21.2825 10.488C21.2825 12.184 20.0825 13.16 17.9385 13.16ZM22.6608 15.864V4.632H24.5968V5.976C25.0608 5.176 26.1008 4.456 27.3328 4.456C29.4288 4.456 31.0448 6.008 31.0448 8.712V8.84C31.0448 11.528 29.4928 13.16 27.3328 13.16C26.0048 13.16 25.0448 12.504 24.5968 11.688V15.864H22.6608ZM26.8528 11.624C28.2768 11.624 29.0608 10.664 29.0608 8.872V8.744C29.0608 6.888 28.1008 5.976 26.8368 5.976C25.4928 5.976 24.5328 6.888 24.5328 8.744V8.872C24.5328 10.744 25.4448 11.624 26.8528 11.624ZM36.2098 11.656C37.6498 11.656 38.5138 10.584 38.5138 8.872V8.76C38.5138 7.032 37.6498 5.976 36.2098 5.976C34.7698 5.976 33.8898 7.016 33.8898 8.744V8.872C33.8898 10.584 34.7378 11.656 36.2098 11.656ZM36.1938 13.16C33.7298 13.16 31.9058 11.448 31.9058 8.904V8.776C31.9058 6.184 33.7458 4.456 36.2098 4.456C38.6578 4.456 40.4978 6.168 40.4978 8.728V8.856C40.4978 11.464 38.6578 13.16 36.1938 13.16ZM41.927 13V4.632H43.863V5.96C44.263 5.144 45.191 4.456 46.567 4.456C48.247 4.456 49.431 5.432 49.431 7.736V13H47.495V7.912C47.495 6.648 46.983 6.072 45.831 6.072C44.743 6.072 43.863 6.744 43.863 8.072V13H41.927ZM54.2054 13.16C52.0454 13.16 50.7814 12.168 50.7014 10.392H52.5254C52.6214 11.24 53.0534 11.736 54.1894 11.736C55.2294 11.736 55.6934 11.368 55.6934 10.664C55.6934 9.976 55.1334 9.72 53.9014 9.512C51.6934 9.16 50.8774 8.536 50.8774 6.968C50.8774 5.288 52.4454 4.456 54.0134 4.456C55.7254 4.456 57.0854 5.096 57.2934 6.984H55.5014C55.3414 6.216 54.9094 5.864 54.0134 5.864C53.1814 5.864 52.6854 6.264 52.6854 6.856C52.6854 7.464 53.0854 7.704 54.4134 7.928C56.3814 8.232 57.5494 8.712 57.5494 10.488C57.5494 12.184 56.3494 13.16 54.2054 13.16ZM61.1196 13.16C59.5836 13.16 58.3196 12.424 58.3196 10.68C58.3196 8.728 60.2076 8.024 62.6076 8.024H63.6476V7.592C63.6476 6.472 63.2636 5.912 62.1276 5.912C61.1196 5.912 60.6236 6.392 60.5276 7.224H58.6556C58.8156 5.272 60.3676 4.456 62.2396 4.456C64.1116 4.456 65.5836 5.224 65.5836 7.512V13H63.6796V11.976C63.1356 12.696 62.3996 13.16 61.1196 13.16ZM61.5836 11.768C62.7676 11.768 63.6476 11.144 63.6476 10.072V9.24H62.6556C61.1836 9.24 60.2396 9.576 60.2396 10.6C60.2396 11.304 60.6236 11.768 61.5836 11.768ZM72.1546 13.16C70.8266 13.16 69.8666 12.504 69.4186 11.656V13H67.4826V0.759999H69.4186V5.976C69.8826 5.176 70.9226 4.456 72.1546 4.456C74.2506 4.456 75.8666 6.008 75.8666 8.712V8.84C75.8666 11.528 74.3146 13.16 72.1546 13.16ZM71.6746 11.624C73.0986 11.624 73.8826 10.664 73.8826 8.872V8.744C73.8826 6.888 72.9226 5.976 71.6586 5.976C70.3146 5.976 69.3546 6.888 69.3546 8.744V8.872C69.3546 10.744 70.2666 11.624 71.6746 11.624ZM77.3356 13V4.632H79.2716V13H77.3356ZM78.2796 3.256C77.6396 3.256 77.1276 2.776 77.1276 2.152C77.1276 1.512 77.6396 1.032 78.2796 1.032C78.9196 1.032 79.4316 1.512 79.4316 2.152C79.4316 2.776 78.9196 3.256 78.2796 3.256ZM81.3594 13V0.759999H83.2954V13H81.3594ZM85.3831 13V4.632H87.3191V13H85.3831ZM86.3271 3.256C85.6871 3.256 85.1751 2.776 85.1751 2.152C85.1751 1.512 85.6871 1.032 86.3271 1.032C86.9671 1.032 87.4791 1.512 87.4791 2.152C87.4791 2.776 86.9671 3.256 86.3271 3.256ZM92.4949 13.16C90.3989 13.16 88.8149 11.672 88.8149 8.952V8.824C88.8149 6.152 90.3989 4.456 92.5749 4.456C93.9349 4.456 94.7829 5.08 95.2469 5.912V0.759999H97.1829V13H95.2469V11.592C94.7989 12.424 93.7269 13.16 92.4949 13.16ZM92.9749 11.624C94.3189 11.624 95.3109 10.728 95.3109 8.856V8.728C95.3109 6.888 94.4629 5.976 93.0549 5.976C91.6309 5.976 90.7989 6.968 90.7989 8.776V8.904C90.7989 10.744 91.7269 11.624 92.9749 11.624ZM101.356 13.16C99.8199 13.16 98.5559 12.424 98.5559 10.68C98.5559 8.728 100.444 8.024 102.844 8.024H103.884V7.592C103.884 6.472 103.5 5.912 102.364 5.912C101.356 5.912 100.86 6.392 100.764 7.224H98.8919C99.0519 5.272 100.604 4.456 102.476 4.456C104.348 4.456 105.82 5.224 105.82 7.512V13H103.916V11.976C103.372 12.696 102.636 13.16 101.356 13.16ZM101.82 11.768C103.004 11.768 103.884 11.144 103.884 10.072V9.24H102.892C101.42 9.24 100.476 9.576 100.476 10.6C100.476 11.304 100.86 11.768 101.82 11.768ZM110.855 13.16C108.759 13.16 107.175 11.672 107.175 8.952V8.824C107.175 6.152 108.759 4.456 110.935 4.456C112.295 4.456 113.143 5.08 113.607 5.912V0.759999H115.543V13H113.607V11.592C113.159 12.424 112.087 13.16 110.855 13.16ZM111.335 11.624C112.679 11.624 113.671 10.728 113.671 8.856V8.728C113.671 6.888 112.823 5.976 111.415 5.976C109.991 5.976 109.159 6.968 109.159 8.776V8.904C109.159 10.744 110.087 11.624 111.335 11.624ZM121.204 13.16C118.74 13.16 116.964 11.544 116.964 8.904V8.776C116.964 6.184 118.74 4.456 121.124 4.456C123.204 4.456 125.076 5.688 125.076 8.68V9.24H118.948C119.012 10.824 119.812 11.72 121.252 11.72C122.42 11.72 123.028 11.256 123.172 10.44H125.044C124.772 12.2 123.348 13.16 121.204 13.16ZM118.98 7.944H123.156C123.06 6.504 122.324 5.864 121.124 5.864C119.956 5.864 119.172 6.648 118.98 7.944Z" fill="black"/>
</svg>
