<svg width="98" height="14" viewBox="0 0 98 14" fill="none" xmlns="http://www.w3.org/2000/svg">
<path d="M4.288 13.16C2.192 13.16 0.608 11.672 0.608 8.952V8.824C0.608 6.152 2.192 4.456 4.368 4.456C5.728 4.456 6.576 5.08 7.04 5.912V0.759999H8.976V13H7.04V11.592C6.592 12.424 5.52 13.16 4.288 13.16ZM4.768 11.624C6.112 11.624 7.104 10.728 7.104 8.856V8.728C7.104 6.888 6.256 5.976 4.848 5.976C3.424 5.976 2.592 6.968 2.592 8.776V8.904C2.592 10.744 3.52 11.624 4.768 11.624ZM14.637 13.16C12.173 13.16 10.397 11.544 10.397 8.904V8.776C10.397 6.184 12.173 4.456 14.557 4.456C16.637 4.456 18.509 5.688 18.509 8.68V9.24H12.381C12.445 10.824 13.245 11.72 14.685 11.72C15.853 11.72 16.461 11.256 16.605 10.44H18.477C18.205 12.2 16.781 13.16 14.637 13.16ZM12.413 7.944H16.589C16.493 6.504 15.757 5.864 14.557 5.864C13.389 5.864 12.605 6.648 12.413 7.944ZM26.2588 13.144C24.5948 13.144 23.7308 12.248 23.7308 10.664V6.088H22.6108V4.632H23.7308V2.792H25.6668V4.632H27.5068V6.088H25.6668V10.488C25.6668 11.224 26.0188 11.56 26.6268 11.56C27.0108 11.56 27.2988 11.512 27.5708 11.4V12.936C27.2668 13.048 26.8508 13.144 26.2588 13.144ZM32.741 11.656C34.181 11.656 35.045 10.584 35.045 8.872V8.76C35.045 7.032 34.181 5.976 32.741 5.976C31.301 5.976 30.421 7.016 30.421 8.744V8.872C30.421 10.584 31.269 11.656 32.741 11.656ZM32.725 13.16C30.261 13.16 28.437 11.448 28.437 8.904V8.776C28.437 6.184 30.277 4.456 32.741 4.456C35.189 4.456 37.029 6.168 37.029 8.728V8.856C37.029 11.464 35.189 13.16 32.725 13.16ZM41.5943 13.16C39.4983 13.16 37.9143 11.672 37.9143 8.952V8.824C37.9143 6.152 39.4983 4.456 41.6743 4.456C43.0343 4.456 43.8823 5.08 44.3463 5.912V0.759999H46.2823V13H44.3463V11.592C43.8983 12.424 42.8263 13.16 41.5943 13.16ZM42.0743 11.624C43.4183 11.624 44.4103 10.728 44.4103 8.856V8.728C44.4103 6.888 43.5623 5.976 42.1543 5.976C40.7303 5.976 39.8983 6.968 39.8983 8.776V8.904C39.8983 10.744 40.8263 11.624 42.0743 11.624ZM52.0073 11.656C53.4473 11.656 54.3113 10.584 54.3113 8.872V8.76C54.3113 7.032 53.4473 5.976 52.0073 5.976C50.5673 5.976 49.6873 7.016 49.6873 8.744V8.872C49.6873 10.584 50.5353 11.656 52.0073 11.656ZM51.9913 13.16C49.5273 13.16 47.7033 11.448 47.7033 8.904V8.776C47.7033 6.184 49.5433 4.456 52.0073 4.456C54.4553 4.456 56.2953 6.168 56.2953 8.728V8.856C56.2953 11.464 54.4553 13.16 51.9913 13.16ZM60.5885 13.16C58.4285 13.16 57.1645 12.168 57.0845 10.392H58.9085C59.0045 11.24 59.4365 11.736 60.5725 11.736C61.6125 11.736 62.0765 11.368 62.0765 10.664C62.0765 9.976 61.5165 9.72 60.2845 9.512C58.0765 9.16 57.2605 8.536 57.2605 6.968C57.2605 5.288 58.8285 4.456 60.3965 4.456C62.1085 4.456 63.4685 5.096 63.6765 6.984H61.8845C61.7245 6.216 61.2925 5.864 60.3965 5.864C59.5645 5.864 59.0685 6.264 59.0685 6.856C59.0685 7.464 59.4685 7.704 60.7965 7.928C62.7645 8.232 63.9325 8.712 63.9325 10.488C63.9325 12.184 62.7325 13.16 60.5885 13.16ZM68.8033 13V4.632H70.7393V5.96C71.1393 5.144 72.0673 4.456 73.4433 4.456C75.1233 4.456 76.3073 5.432 76.3073 7.736V13H74.3713V7.912C74.3713 6.648 73.8593 6.072 72.7073 6.072C71.6193 6.072 70.7393 6.744 70.7393 8.072V13H68.8033ZM81.1456 3.384L82.0896 0.903999H84.2336L82.5696 3.384H81.1456ZM81.9616 11.656C83.4016 11.656 84.2656 10.584 84.2656 8.872V8.76C84.2656 7.032 83.4016 5.976 81.9616 5.976C80.5216 5.976 79.6416 7.016 79.6416 8.744V8.872C79.6416 10.584 80.4896 11.656 81.9616 11.656ZM81.9456 13.16C79.4816 13.16 77.6576 11.448 77.6576 8.904V8.776C77.6576 6.184 79.4976 4.456 81.9616 4.456C84.4096 4.456 86.2496 6.168 86.2496 8.728V8.856C86.2496 11.464 84.4096 13.16 81.9456 13.16ZM90.5429 13.16C88.3829 13.16 87.1189 12.168 87.0389 10.392H88.8629C88.9589 11.24 89.3909 11.736 90.5269 11.736C91.5669 11.736 92.0309 11.368 92.0309 10.664C92.0309 9.976 91.4709 9.72 90.2389 9.512C88.0309 9.16 87.2149 8.536 87.2149 6.968C87.2149 5.288 88.7829 4.456 90.3509 4.456C92.0629 4.456 93.4229 5.096 93.6309 6.984H91.8389C91.6789 6.216 91.2469 5.864 90.3509 5.864C89.5189 5.864 89.0229 6.264 89.0229 6.856C89.0229 7.464 89.4229 7.704 90.7509 7.928C92.7189 8.232 93.8869 8.712 93.8869 10.488C93.8869 12.184 92.6869 13.16 90.5429 13.16ZM96.4171 13.112C95.7131 13.112 95.1531 12.568 95.1531 11.864C95.1531 11.16 95.7131 10.6 96.4171 10.6C97.1371 10.6 97.6971 11.16 97.6971 11.864C97.6971 12.568 97.1371 13.112 96.4171 13.112Z" fill="black"/>
</svg>
