<svg width="87" height="54" viewBox="0 0 87 54" fill="none" xmlns="http://www.w3.org/2000/svg">
<path d="M47.5571 3.08459V9.52752H38.189V0.159424H44.6319C46.2458 0.159424 47.5571 1.4707 47.5571 3.08459Z" fill="white"/>
<path d="M47.5571 18.8955H38.189V28.2636H47.5571V18.8955Z" fill="white"/>
<path d="M28.8212 0.159424H19.4531V9.52752H28.8212V0.159424Z" fill="#FFD000"/>
<path d="M10.0849 7.66777V0.159424H0.716797V25.3385C0.716797 26.9524 2.02808 28.2637 3.64196 28.2637H10.0849V20.7554C10.0849 19.7278 10.917 18.8956 11.9446 18.8956H19.453V9.52751H11.9446C10.917 9.52751 10.0849 8.69536 10.0849 7.66777Z" fill="white"/>
<path d="M28.8212 18.8955H19.4531V28.2636H28.8212V18.8955Z" fill="white"/>
<path d="M10.9297 38.571C10.2866 38.571 9.76337 38.363 9.33468 37.928C8.9123 37.4993 8.70426 36.9697 8.70426 36.3141C8.70426 35.6585 8.906 35.0974 9.33468 34.6687C9.75707 34.2337 10.2929 34.0257 10.9549 34.0257C11.5853 34.0257 12.1022 34.24 12.5309 34.675C12.9596 35.11 13.1677 35.6332 13.1677 36.2763C13.1677 36.9193 12.9596 37.4741 12.5309 37.9154C12.1022 38.3567 11.579 38.571 10.9297 38.571ZM13.4703 33.8428C12.7894 33.1935 11.932 32.872 10.917 32.872C9.90207 32.872 9.04469 33.1998 8.37644 33.8428C7.70819 34.4922 7.36776 35.3243 7.36776 36.3078C7.36776 37.2913 7.70819 38.0856 8.37014 38.7286C9.03208 39.3653 9.87685 39.6932 10.8666 39.6932C11.8564 39.6932 12.7705 39.3716 13.4577 38.7286C14.1448 38.0856 14.4979 37.266 14.4979 36.2889C14.4979 35.3117 14.1511 34.4922 13.4703 33.8428ZM41.3035 32.9476V36.6734C41.3035 37.7389 40.8937 38.4701 39.7022 38.4701C38.5107 38.4701 38.1009 37.7389 38.1009 36.6734V32.9476H36.8085V36.9508C36.8085 38.9177 38.1387 39.6932 39.7022 39.6932C41.2656 39.6932 42.5958 38.924 42.5958 36.9508V32.9476H41.3035ZM33.5114 32.9476V38.4512H36.3105V39.6049H32.2254V32.9476H33.5114ZM28.8652 35.9548C29.5019 35.9548 30.0441 35.6585 30.0441 35.028C30.0441 34.3976 29.6784 34.1013 28.8652 34.1013H28.0898V35.9548H28.8652ZM29.2308 32.9476C30.6304 32.9476 31.3302 33.8554 31.3302 35.0217C31.3302 36.188 30.4602 37.1084 29.1804 37.1084H28.0898V39.6049H26.8037V32.9476H29.2308ZM25.9274 32.9476V34.1013H23.7399V39.6049H22.4538V34.1013H20.2662V32.9476H25.9274ZM45.6849 32.8594C46.3342 32.8594 46.9584 33.0233 47.5573 33.3448V34.6561C46.8638 34.24 46.4036 33.9815 45.7038 33.9815C45.004 33.9815 44.7645 34.2211 44.7456 34.5489C44.7266 34.8011 44.8843 35.0154 45.2184 35.2298C45.3129 35.2928 45.666 35.4756 46.2964 35.7845C46.8323 36.0493 47.2357 36.3267 47.4753 36.6419C47.7149 36.9571 47.8409 37.3354 47.8409 37.7767C47.8409 38.3504 47.6329 38.8106 47.2231 39.1636C46.8134 39.5166 46.2775 39.6932 45.6219 39.6932C45.1995 39.6932 44.8275 39.649 44.5249 39.5545C44.216 39.4599 43.8756 39.3023 43.491 39.069V37.6065C44.2034 38.1991 44.8527 38.5647 45.4832 38.5647C46.0758 38.5647 46.4729 38.3378 46.4729 37.9343C46.4729 37.6632 46.3468 37.4173 46.019 37.2219C45.7479 37.058 45.3886 36.8752 44.9662 36.6419C44.4619 36.3645 44.0521 36.1124 43.7936 35.7908C43.5352 35.4693 43.4028 35.1163 43.4028 34.7002C43.4028 34.1391 43.6108 33.6978 44.0269 33.3637C44.443 33.0296 44.9914 32.8657 45.6786 32.8657M17.505 32.8594C18.1543 32.8594 18.7784 33.0233 19.3773 33.3448V34.6561C18.6902 34.24 18.2237 33.9815 17.5239 33.9815C16.8241 33.9815 16.5846 34.2211 16.5656 34.5489C16.5467 34.8011 16.7043 35.0154 17.0385 35.2298C17.133 35.2928 17.4861 35.4756 18.1165 35.7845C18.6523 36.0493 19.0558 36.3267 19.3017 36.6419C19.5412 36.9571 19.661 37.3354 19.661 37.7767C19.661 38.3504 19.453 38.8106 19.0432 39.1636C18.6334 39.5166 18.0976 39.6932 17.4419 39.6932C17.0132 39.6932 16.6476 39.649 16.345 39.5545C16.0424 39.4599 15.6957 39.3023 15.3111 39.069V37.6065C16.0235 38.1991 16.6728 38.5647 17.3032 38.5647C17.8958 38.5647 18.293 38.3378 18.293 37.9343C18.293 37.6632 18.1732 37.4173 17.8391 37.2219C17.568 37.058 17.2087 36.8752 16.7863 36.6419C16.2819 36.3645 15.8722 36.1124 15.6137 35.7908C15.3552 35.4693 15.2228 35.1163 15.2228 34.7002C15.2228 34.1391 15.4309 33.6978 15.847 33.3637C16.263 33.0296 16.8115 32.8657 17.4987 32.8657M2.00286 32.9476V35.6017H5.16128V32.9476H6.44735V39.6049H5.16128V36.9445H2.00286V39.6049H0.716797V32.9476H2.00286Z" fill="white"/>
<line x1="58.489" y1="0.0678711" x2="58.489" y2="39.9319" stroke="white" stroke-width="0.318912"/>
<g clip-path="url(#clip0_16158_46521)">
<path d="M73.2523 39.9304C71.9553 39.9304 71.1914 39.026 71.1914 37.5518V37.3013C71.1914 35.827 72.0026 34.9165 73.2416 34.9165C74.4806 34.9165 75.1741 35.6666 75.2658 36.678H74.117C74.0941 36.1387 73.8725 35.8606 73.2431 35.8606C72.6473 35.8606 72.3616 36.2624 72.3616 37.2951V37.5533C72.3616 38.5815 72.5969 38.9878 73.2523 38.9878C73.8053 38.9878 74.0864 38.7434 74.1093 38.2072H75.2582C75.2078 39.2292 74.4607 39.932 73.2508 39.932L73.2523 39.9304Z" fill="white"/>
<path d="M79.6321 38.169C79.6321 39.3118 78.8652 39.9305 77.7255 39.9305C76.5858 39.9305 75.8052 39.3102 75.8052 38.169V34.9868H76.9647V38.169C76.9647 38.7587 77.2366 39.0032 77.7255 39.0032C78.2144 39.0032 78.4787 38.7587 78.4787 38.169V34.9868H79.6306V38.169H79.6321Z" fill="white"/>
<path d="M84.2103 36.6474C84.2103 37.5961 83.5 38.2225 82.3282 38.2225H81.5368V39.8648H80.3804V34.9868H82.3267C83.4984 34.9868 84.2088 35.6911 84.2088 36.649L84.2103 36.6474ZM83.0447 36.6535C83.0447 36.2655 82.8339 35.9172 82.3282 35.9172H81.5368V37.1806L81.7278 37.2906H82.3282C82.8339 37.2906 83.0447 37.0233 83.0447 36.6535Z" fill="white"/>
<path d="M68.5347 5.80591V21.6971C68.5347 24.0483 69.9035 25.2934 70.8262 25.8189L77.7009 29.7909L84.5756 25.8189C85.4968 25.2918 86.8672 24.0468 86.8672 21.6971V5.80591H68.5347ZM84.5756 21.6956C84.5756 22.9224 83.9584 23.5319 83.4298 23.8344L77.7009 27.1449L71.972 23.8344C71.4434 23.5319 70.8262 22.9224 70.8262 21.6956V8.09594H84.5756V21.6956Z" fill="white"/>
<path d="M77.701 22.0776L73.8833 19.8716V22.5558L77.701 24.7603L81.5188 22.5558V19.8716L77.701 22.0776Z" fill="white"/>
<path d="M81.7539 11.2339V12.1292L82.2734 11.8297V12.725L81.1077 13.3987C81.1933 12.9877 81.2406 12.56 81.233 12.1001V10.4884H74.1719V12.1001C74.1627 12.5615 74.2116 12.9893 74.2972 13.4017L73.13 12.728V11.8328L73.6494 12.1322V11.237L72.3555 10.4899V13.1741L74.6348 14.4895C74.8548 15.0211 75.1374 15.5329 75.472 16.0493C75.8493 16.668 76.4543 17.4318 76.3596 18.1972C76.2145 18.9779 75.718 19.233 75.1955 19.7341L77.7024 21.1824L80.1941 19.7433C79.6885 19.2284 79.192 18.9748 79.0468 18.1972C78.9521 17.4303 79.5556 16.668 79.9344 16.0493C80.269 15.5314 80.5532 15.0181 80.7731 14.4849L83.051 13.1695V10.4854L81.757 11.2324L81.7539 11.2339Z" fill="white"/>
<path d="M81.1031 1.85059H80.9106V2.31348H81.1031C81.262 2.31348 81.3965 2.23862 81.3965 2.0828C81.3965 1.92697 81.3048 1.85211 81.1031 1.85211V1.85059Z" fill="white"/>
<path d="M76.6359 1.83081C76.4694 1.83081 76.338 1.88275 76.2311 1.99122C76.1257 2.09816 76.0737 2.2326 76.0737 2.40217C76.0737 2.57175 76.1257 2.69702 76.2311 2.80396C76.338 2.91243 76.4679 2.96437 76.6283 2.96437C76.7887 2.96437 76.9201 2.9109 77.0285 2.80091C77.1355 2.69091 77.1874 2.55647 77.1874 2.39301C77.1874 2.22954 77.1355 2.10274 77.0285 1.99275C76.9216 1.88275 76.7918 1.83081 76.6359 1.83081Z" fill="white"/>
<path d="M68.5347 0.0678711V4.72127H86.8672V0.0678711H68.5347ZM71.0707 2.77039H70.4672C70.3847 2.77039 70.3175 2.83761 70.3175 2.9201V3.52355H69.7996C69.6698 3.52355 69.5643 3.41814 69.5643 3.28828V1.26559H70.3175V1.86904C70.3175 1.95154 70.3847 2.01876 70.4672 2.01876H71.0707V2.77192V2.77039ZM71.8238 3.52355H71.0707V2.77039H71.8238V3.52355ZM71.8238 2.01876H71.0707V1.26559H71.8238V2.01876ZM73.3301 3.52355H72.577V2.77039H73.3301V3.52355ZM73.3301 2.01876H72.577V1.26559H73.0949C73.2247 1.26559 73.3301 1.37101 73.3301 1.50086V2.01876ZM75.5117 3.22259H75.1909V2.55804H74.4026V3.22259H74.0818V1.56197H74.4026V2.22347H75.1909V1.56197H75.5117V3.22259ZM77.2609 3.00565C77.0898 3.16454 76.8729 3.24551 76.6147 3.24551C76.3565 3.24551 76.1579 3.16454 75.9914 3.00565C75.8249 2.84525 75.7409 2.64206 75.7409 2.40221C75.7409 2.16236 75.8249 1.94848 75.9929 1.78807C76.1595 1.62613 76.3733 1.54517 76.6269 1.54517C76.8805 1.54517 77.0944 1.62613 77.264 1.78807C77.4336 1.95001 77.5207 2.15472 77.5207 2.39915C77.5207 2.64359 77.4336 2.84677 77.2625 3.00718L77.2609 3.00565ZM78.6557 3.11259C78.5534 3.19967 78.4205 3.24398 78.257 3.24398C78.1501 3.24398 78.0599 3.23176 77.9835 3.20884C77.9072 3.18592 77.8216 3.14468 77.7254 3.08815V2.72303C77.9026 2.87122 78.066 2.96135 78.2219 2.96135C78.3701 2.96135 78.4694 2.90483 78.4694 2.804C78.4694 2.73678 78.4388 2.67567 78.3563 2.62678C78.2876 2.58706 78.199 2.5397 78.0935 2.48318C77.9667 2.41443 77.8644 2.35027 77.8002 2.27083C77.7361 2.19139 77.704 2.10278 77.704 1.9989C77.704 1.85987 77.7559 1.74835 77.8598 1.66585C77.9637 1.58336 78.1012 1.54211 78.2708 1.54211C78.4403 1.54211 78.5885 1.58183 78.7382 1.6628V1.98973C78.5656 1.88584 78.451 1.82168 78.2769 1.82168C78.1027 1.82168 78.0431 1.88126 78.037 1.96223C78.0324 2.02487 78.0706 2.07834 78.1547 2.13181C78.1791 2.14708 78.2662 2.19291 78.4235 2.27083C78.5564 2.33652 78.6588 2.40679 78.7184 2.48471C78.778 2.56262 78.8085 2.65734 78.8085 2.76733C78.8085 2.90941 78.7566 3.02552 78.6542 3.11259H78.6557ZM80.3714 1.85071H79.826V3.22412H79.5051V1.85071H78.9598V1.56197H80.3714V1.85071ZM81.181 2.60081H80.9091V3.22259H80.5883V1.56197H81.1933C81.5431 1.56197 81.7173 1.78807 81.7173 2.07986C81.7173 2.37166 81.5003 2.60081 81.181 2.60081ZM82.9608 3.22259H81.9418V1.56197H82.2627V2.93538H82.9608V3.22412V3.22259ZM84.5267 2.56109C84.5267 3.05301 84.1952 3.24551 83.8041 3.24551C83.413 3.24551 83.0815 3.05301 83.0815 2.56109V1.56197H83.4039V2.49082C83.4039 2.75664 83.5062 2.93844 83.8041 2.93844C84.102 2.93844 84.2044 2.75664 84.2044 2.49082V1.56197H84.5267V2.56109ZM85.6832 3.11259C85.5808 3.19967 85.4479 3.24398 85.2845 3.24398C85.1775 3.24398 85.0874 3.23176 85.011 3.20884C84.9346 3.18592 84.8491 3.14468 84.7528 3.08815V2.72303C84.93 2.87122 85.0935 2.96135 85.2509 2.96135C85.399 2.96135 85.4968 2.90483 85.4968 2.804C85.4968 2.73678 85.4663 2.67567 85.3838 2.62678C85.315 2.58706 85.2264 2.5397 85.121 2.48318C84.9942 2.41443 84.8918 2.35027 84.8277 2.27083C84.7635 2.19139 84.7314 2.10278 84.7314 1.9989C84.7314 1.85987 84.7834 1.74835 84.8873 1.66585C84.9911 1.58336 85.1286 1.54211 85.2982 1.54211C85.4678 1.54211 85.616 1.58183 85.7657 1.6628V1.98973C85.5931 1.88584 85.4785 1.82168 85.3043 1.82168C85.1302 1.82168 85.0706 1.88126 85.0645 1.96223C85.0599 2.02487 85.0981 2.07834 85.1821 2.13181C85.2066 2.14708 85.2936 2.19291 85.451 2.27083C85.5839 2.33652 85.6863 2.40679 85.7458 2.48471C85.8054 2.56262 85.836 2.65734 85.836 2.76733C85.836 2.90941 85.784 3.02552 85.6817 3.11259H85.6832Z" fill="white"/>
<path d="M71.1194 31.166V33.6103H70.5435V32.6555L70.4473 32.6005H69.7567L69.6605 32.6555V33.6103H69.083V31.166H69.6605V32.0781L69.7567 32.1331H70.4473L70.5435 32.0781V31.166H71.1194Z" fill="white"/>
<path d="M72.4717 33.6424C71.8453 33.6424 71.4038 33.184 71.4038 32.4324V32.3438C71.4038 31.5922 71.8423 31.1323 72.4671 31.1323C73.0919 31.1323 73.5334 31.5922 73.5334 32.3438V32.4324C73.5334 33.184 73.0935 33.6424 72.4717 33.6424ZM72.4686 31.6044C72.1554 31.6044 71.992 31.858 71.992 32.3392V32.4309C71.992 32.906 72.1585 33.1688 72.4717 33.1688C72.7849 33.1688 72.9468 32.906 72.9468 32.4309V32.3392C72.9468 31.858 72.7742 31.6044 72.4686 31.6044Z" fill="white"/>
<path d="M73.8404 31.8214C73.8404 31.3997 74.233 31.1309 74.7723 31.1309C75.3115 31.1309 75.6843 31.4272 75.6843 31.8917H75.1084C75.1084 31.7114 74.9953 31.5876 74.7616 31.5876C74.5278 31.5876 74.4178 31.6961 74.4178 31.826C74.4178 31.968 74.5889 32.0536 74.87 32.1437C75.3956 32.3087 75.6858 32.544 75.6858 32.9549C75.6858 33.3965 75.3314 33.6424 74.7845 33.6424C74.2864 33.6424 73.7686 33.3934 73.7686 32.8129H74.3476C74.3476 33.0924 74.5064 33.1872 74.7845 33.1872C75.0121 33.1872 75.1068 33.0817 75.1068 32.9565C75.1068 32.8083 75.0411 32.7288 74.6699 32.6066C74.2391 32.4645 73.8419 32.2614 73.8419 31.8199L73.8404 31.8214Z" fill="white"/>
<path d="M77.8962 31.632H77.2591L77.1629 31.687V33.6088H76.5839V31.687L76.4876 31.632H75.8628V31.166H77.8946V31.632H77.8962Z" fill="white"/>
<path d="M80.0686 31.9972C80.0686 32.4723 79.7127 32.7855 79.126 32.7855H78.7304V33.6074H78.1514V31.1631H79.126C79.7127 31.1631 80.0686 31.516 80.0686 31.9957V31.9972ZM79.4851 32.0018C79.4851 31.8078 79.3796 31.6321 79.126 31.6321H78.7304V32.2646L78.8266 32.3196H79.1276C79.3812 32.3196 79.4866 32.1851 79.4866 32.0003L79.4851 32.0018Z" fill="white"/>
<path d="M81.9969 33.1445V33.6089H80.3867V31.1646H80.9657V33.0879L81.062 33.1429H81.9969V33.1445Z" fill="white"/>
<path d="M84.1081 32.7595C84.1081 33.3324 83.7231 33.6425 83.1533 33.6425C82.5835 33.6425 82.1924 33.3324 82.1924 32.7595V31.1646H82.7729V32.7595C82.7729 33.0543 82.9089 33.1781 83.1533 33.1781C83.3977 33.1781 83.5307 33.0559 83.5307 32.7595V31.1646H84.1081V32.7595Z" fill="white"/>
<path d="M84.4732 31.8214C84.4732 31.3997 84.8659 31.1309 85.4051 31.1309C85.9444 31.1309 86.3156 31.4272 86.3156 31.8917H85.7397C85.7397 31.7114 85.6267 31.5876 85.3929 31.5876C85.1592 31.5876 85.0492 31.6961 85.0492 31.826C85.0492 31.968 85.2203 32.0536 85.5014 32.1437C86.0269 32.3087 86.3172 32.544 86.3172 32.9549C86.3172 33.3965 85.9627 33.6424 85.4158 33.6424C84.9178 33.6424 84.3999 33.3934 84.3999 32.8129H84.9789C84.9789 33.0924 85.1378 33.1872 85.4158 33.1872C85.6435 33.1872 85.7382 33.0817 85.7382 32.9565C85.7382 32.8083 85.6725 32.7288 85.3013 32.6066C84.8704 32.4645 84.4732 32.2614 84.4732 31.8199V31.8214Z" fill="white"/>
</g>
<path d="M1.88343 53.6069C1.64272 53.6069 1.41827 53.563 1.21008 53.4751C1.00515 53.3873 0.826238 53.2669 0.673351 53.1141C0.523718 52.9612 0.404987 52.7806 0.317158 52.5725C0.232583 52.361 0.190295 52.1349 0.190295 51.8942C0.190295 51.6503 0.232583 51.4242 0.317158 51.216C0.404987 51.0078 0.523718 50.8273 0.673351 50.6744C0.826238 50.5215 1.00515 50.4011 1.21008 50.3133C1.41827 50.2255 1.64272 50.1816 1.88343 50.1816C2.12415 50.1816 2.34697 50.2255 2.5519 50.3133C2.76009 50.4011 2.939 50.5215 3.08863 50.6744C3.24152 50.8273 3.36025 51.0078 3.44483 51.216C3.53265 51.4242 3.57657 51.6503 3.57657 51.8942C3.57657 52.1349 3.53265 52.361 3.44483 52.5725C3.36025 52.7806 3.24152 52.9612 3.08863 53.1141C2.939 53.2669 2.76009 53.3873 2.5519 53.4751C2.34697 53.563 2.12415 53.6069 1.88343 53.6069ZM1.88343 52.914C2.02656 52.914 2.15505 52.8864 2.2689 52.8311C2.38275 52.7758 2.47871 52.7009 2.55678 52.6066C2.63811 52.5123 2.69991 52.4033 2.7422 52.2797C2.78449 52.1561 2.80563 52.0243 2.80563 51.8845C2.80563 51.7446 2.78449 51.6128 2.7422 51.4892C2.69991 51.3656 2.63811 51.2583 2.55678 51.1672C2.47871 51.0729 2.38275 50.9997 2.2689 50.9476C2.15505 50.8923 2.02656 50.8647 1.88343 50.8647C1.7403 50.8647 1.61019 50.8923 1.49308 50.9476C1.37923 50.9997 1.28164 51.0729 1.20032 51.1672C1.12225 51.2583 1.06207 51.3656 1.01979 51.4892C0.977498 51.6128 0.956354 51.7446 0.956354 51.8845C0.956354 52.0243 0.977498 52.1561 1.01979 52.2797C1.06207 52.4033 1.12225 52.5123 1.20032 52.6066C1.28164 52.7009 1.37923 52.7758 1.49308 52.8311C1.61019 52.8864 1.7403 52.914 1.88343 52.914ZM4.08627 50.2694H6.27222V50.9183H4.82305V51.6551H5.92579V52.2846H4.82305V53.5239H4.08627V50.2694ZM6.71655 50.2694H8.9025V50.9183H7.45333V51.6551H8.55607V52.2846H7.45333V53.5239H6.71655V50.2694ZM9.34683 50.2694H10.0836V53.5239H9.34683V50.2694ZM13.6565 52.9238C13.5882 53.0181 13.5053 53.1076 13.4077 53.1921C13.3101 53.2735 13.2011 53.345 13.0808 53.4068C12.9637 53.4686 12.8352 53.5174 12.6953 53.5532C12.5587 53.589 12.4155 53.6069 12.2659 53.6069C12.0187 53.6069 11.7926 53.5646 11.5877 53.48C11.3827 53.3954 11.2055 53.2783 11.0558 53.1287C10.9094 52.9758 10.7956 52.7969 10.7143 52.592C10.6329 52.3838 10.5923 52.1561 10.5923 51.9089C10.5923 51.6681 10.6329 51.4437 10.7143 51.2355C10.7956 51.0241 10.9094 50.8419 11.0558 50.689C11.2055 50.5329 11.3827 50.4109 11.5877 50.3231C11.7959 50.232 12.0252 50.1864 12.2757 50.1864C12.5782 50.1864 12.8417 50.2417 13.0661 50.3523C13.2938 50.4629 13.4825 50.6223 13.6321 50.8305L13.1295 51.3136C13.032 51.177 12.9165 51.068 12.7831 50.9867C12.6497 50.9021 12.4904 50.8598 12.3049 50.8598C12.1586 50.8598 12.0268 50.8874 11.9097 50.9427C11.7926 50.9948 11.6934 51.068 11.6121 51.1623C11.5307 51.2567 11.4673 51.3672 11.4218 51.4941C11.3795 51.6177 11.3583 51.7495 11.3583 51.8893C11.3583 52.0325 11.3795 52.1658 11.4218 52.2894C11.4673 52.4131 11.5307 52.5204 11.6121 52.6115C11.6934 52.7026 11.791 52.7741 11.9048 52.8262C12.0187 52.8782 12.1472 52.9042 12.2903 52.9042C12.4074 52.9042 12.5082 52.8929 12.5928 52.8701C12.6806 52.8441 12.7571 52.8115 12.8221 52.7725C12.8905 52.7302 12.9506 52.683 13.0027 52.631C13.0547 52.5757 13.1052 52.5204 13.1539 52.4651L13.6565 52.9238ZM14.0403 50.2694H14.7771V53.5239H14.0403V50.2694ZM16.3446 50.2694H17.1595L18.35 53.5239H17.5449L17.2961 52.7774H16.1495L15.9006 53.5239H15.1297L16.3446 50.2694ZM17.1204 52.2065L16.7252 50.9769L16.3202 52.2065H17.1204ZM18.7053 50.2694H19.4421V52.8701H20.9986V53.5239H18.7053V50.2694ZM22.5564 52.5529C22.5986 52.5985 22.6474 52.6456 22.7027 52.6944C22.7613 52.74 22.8247 52.7823 22.893 52.8213C22.9646 52.8603 23.041 52.8929 23.1224 52.9189C23.2069 52.9417 23.2964 52.953 23.3907 52.953C23.446 52.953 23.5013 52.9449 23.5566 52.9286C23.6119 52.9124 23.6623 52.8896 23.7079 52.8603C23.7534 52.8278 23.7892 52.7904 23.8152 52.7481C23.8445 52.7026 23.8591 52.6521 23.8591 52.5968C23.8591 52.4765 23.8006 52.3838 23.6835 52.3187C23.5664 52.2504 23.381 52.1837 23.1272 52.1187C23.0036 52.0894 22.8881 52.0471 22.7808 51.9918C22.6767 51.9365 22.5856 51.8698 22.5076 51.7918C22.4327 51.7137 22.3742 51.6242 22.3319 51.5234C22.2896 51.4225 22.2685 51.3103 22.2685 51.1867C22.2685 51.0501 22.2929 50.9216 22.3417 50.8012C22.3905 50.6809 22.4636 50.5752 22.5612 50.4841C22.6621 50.3898 22.7857 50.3166 22.9321 50.2645C23.0817 50.2092 23.2574 50.1816 23.459 50.1816C23.6249 50.1816 23.7713 50.1995 23.8982 50.2352C24.025 50.2678 24.1324 50.3084 24.2202 50.3572C24.3113 50.4028 24.3845 50.4516 24.4398 50.5036C24.4983 50.5524 24.5423 50.5914 24.5715 50.6207L24.147 51.0891C24.1112 51.0599 24.069 51.0289 24.0202 50.9964C23.9746 50.9606 23.9226 50.9281 23.864 50.8988C23.8055 50.8696 23.7404 50.8452 23.6688 50.8256C23.6005 50.8061 23.5273 50.7964 23.4493 50.7964C23.3972 50.7964 23.3452 50.8045 23.2931 50.8208C23.2443 50.837 23.1988 50.8598 23.1565 50.8891C23.1175 50.9151 23.0849 50.9476 23.0589 50.9867C23.0362 51.0224 23.0248 51.0615 23.0248 51.1038C23.0248 51.2144 23.0833 51.3038 23.2004 51.3721C23.3175 51.4404 23.4786 51.4974 23.6835 51.5429C23.8038 51.5722 23.9209 51.6128 24.0348 51.6649C24.1519 51.7137 24.256 51.7787 24.3471 51.8601C24.4382 51.9414 24.5113 52.0422 24.5666 52.1626C24.6219 52.2797 24.6496 52.4228 24.6496 52.592C24.6496 52.7383 24.6171 52.8733 24.552 52.997C24.487 53.1206 24.3975 53.2279 24.2836 53.319C24.173 53.4101 24.0413 53.48 23.8884 53.5288C23.7388 53.5809 23.5761 53.6069 23.4005 53.6069C23.2378 53.6069 23.0898 53.5906 22.9565 53.5581C22.8231 53.5288 22.7027 53.4898 22.5954 53.441C22.488 53.3889 22.3905 53.3304 22.3026 53.2653C22.218 53.2003 22.1449 53.1336 22.0831 53.0653L22.5564 52.5529ZM25.1708 50.2694H25.9125V52.1967C25.9125 52.3041 25.9222 52.4017 25.9417 52.4895C25.9645 52.5741 26.0003 52.6473 26.0491 52.7091C26.0979 52.7709 26.1613 52.8197 26.2394 52.8555C26.3207 52.888 26.4199 52.9042 26.537 52.9042C26.6509 52.9042 26.7468 52.888 26.8249 52.8555C26.9062 52.8197 26.9713 52.7709 27.0201 52.7091C27.0689 52.6473 27.103 52.5741 27.1226 52.4895C27.1453 52.4017 27.1567 52.3041 27.1567 52.1967V50.2694H27.9033V52.2894C27.9033 52.4846 27.8707 52.6635 27.8057 52.8262C27.7439 52.9888 27.6528 53.1287 27.5324 53.2458C27.4153 53.3597 27.2722 53.4491 27.103 53.5142C26.9339 53.5792 26.7452 53.6118 26.537 53.6118C26.3288 53.6118 26.1402 53.5809 25.971 53.519C25.8019 53.454 25.6571 53.3629 25.5368 53.2458C25.4197 53.1287 25.3286 52.9888 25.2635 52.8262C25.2017 52.6635 25.1708 52.4846 25.1708 52.2894V50.2694ZM28.5116 50.2694H29.6973C29.899 50.2694 30.0714 50.2987 30.2145 50.3572C30.3577 50.4158 30.4748 50.4938 30.5659 50.5914C30.6602 50.6858 30.7285 50.7964 30.7708 50.9232C30.8163 51.0501 30.8391 51.1818 30.8391 51.3185C30.8391 51.4941 30.8082 51.6486 30.7464 51.782C30.6878 51.9121 30.6065 52.0211 30.5024 52.1089C30.4016 52.1967 30.2845 52.2634 30.1511 52.309C30.0177 52.3545 29.8779 52.3773 29.7315 52.3773H29.2289V53.5239H28.5116V50.2694ZM29.6583 51.782C29.7949 51.782 29.9023 51.7413 29.9803 51.66C30.0617 51.5754 30.1023 51.4665 30.1023 51.3331C30.1023 51.1965 30.0617 51.0859 29.9803 51.0013C29.899 50.9135 29.79 50.8696 29.6534 50.8696H29.2289V51.782H29.6583ZM31.3325 50.2694H33.5575V50.9135H32.0693V51.5478H33.2257V52.1723H32.0693V52.875H33.6649V53.5239H31.3325V50.2694ZM34.1629 50.2694H35.373C35.5617 50.2694 35.7276 50.297 35.8707 50.3523C36.0138 50.4044 36.1326 50.4776 36.2269 50.5719C36.3245 50.663 36.396 50.7703 36.4416 50.894C36.4904 51.0176 36.5148 51.1493 36.5148 51.2892C36.5148 51.5006 36.4676 51.686 36.3733 51.8454C36.2822 52.0016 36.1521 52.1268 35.9829 52.2211L36.7051 53.5239H35.8951L35.2901 52.3285H34.8802V53.5239H34.1629V50.2694ZM35.334 51.7381C35.4706 51.7381 35.5779 51.6974 35.656 51.6161C35.7341 51.5348 35.7731 51.4323 35.7731 51.3087C35.7731 51.1753 35.7341 51.0696 35.656 50.9915C35.5779 50.9135 35.4706 50.8744 35.334 50.8744H34.8802V51.7381H35.334ZM38.0587 50.2694H38.8736L40.0641 53.5239H39.259L39.0102 52.7774H37.8635L37.6147 53.5239H36.8438L38.0587 50.2694ZM38.8345 52.2065L38.4393 50.9769L38.0343 52.2065H38.8345ZM40.4194 50.2694H41.122L42.5321 52.3822V50.2694H43.2592V53.5239H42.5907L41.1464 51.3721V53.5239H40.4194V50.2694ZM43.8931 50.2694H44.5957L46.0058 52.3822V50.2694H46.7328V53.5239H46.0644L44.6201 51.3721V53.5239H43.8931V50.2694ZM47.3423 50.2694H48.084V52.1967C48.084 52.3041 48.0938 52.4017 48.1133 52.4895C48.136 52.5741 48.1718 52.6473 48.2206 52.7091C48.2694 52.7709 48.3329 52.8197 48.4109 52.8555C48.4922 52.888 48.5915 52.9042 48.7086 52.9042C48.8224 52.9042 48.9184 52.888 48.9964 52.8555C49.0778 52.8197 49.1428 52.7709 49.1916 52.7091C49.2404 52.6473 49.2746 52.5741 49.2941 52.4895C49.3169 52.4017 49.3282 52.3041 49.3282 52.1967V50.2694H50.0748V52.2894C50.0748 52.4846 50.0423 52.6635 49.9772 52.8262C49.9154 52.9888 49.8243 53.1287 49.7039 53.2458C49.5868 53.3597 49.4437 53.4491 49.2746 53.5142C49.1054 53.5792 48.9167 53.6118 48.7086 53.6118C48.5004 53.6118 48.3117 53.5809 48.1426 53.519C47.9734 53.454 47.8287 53.3629 47.7083 53.2458C47.5912 53.1287 47.5001 52.9888 47.435 52.8262C47.3732 52.6635 47.3423 52.4846 47.3423 52.2894V50.2694ZM51.4674 50.2694H52.2823L53.4728 53.5239H52.6677L52.4189 52.7774H51.2722L51.0234 53.5239H50.2525L51.4674 50.2694ZM52.2432 52.2065L51.848 50.9769L51.443 52.2065H52.2432ZM54.1384 50.9183H53.0845V50.2694H55.9291V50.9183H54.8801V53.5239H54.1384V50.9183ZM56.3488 50.2694H57.0855V53.5239H56.3488V50.2694ZM59.2874 53.6069C59.0466 53.6069 58.8222 53.563 58.614 53.4751C58.4091 53.3873 58.2302 53.2669 58.0773 53.1141C57.9276 52.9612 57.8089 52.7806 57.7211 52.5725C57.6365 52.361 57.5942 52.1349 57.5942 51.8942C57.5942 51.6503 57.6365 51.4242 57.7211 51.216C57.8089 51.0078 57.9276 50.8273 58.0773 50.6744C58.2302 50.5215 58.4091 50.4011 58.614 50.3133C58.8222 50.2255 59.0466 50.1816 59.2874 50.1816C59.5281 50.1816 59.7509 50.2255 59.9558 50.3133C60.164 50.4011 60.3429 50.5215 60.4926 50.6744C60.6454 50.8273 60.7642 51.0078 60.8487 51.216C60.9366 51.4242 60.9805 51.6503 60.9805 51.8942C60.9805 52.1349 60.9366 52.361 60.8487 52.5725C60.7642 52.7806 60.6454 52.9612 60.4926 53.1141C60.3429 53.2669 60.164 53.3873 59.9558 53.4751C59.7509 53.563 59.5281 53.6069 59.2874 53.6069ZM59.2874 52.914C59.4305 52.914 59.559 52.8864 59.6728 52.8311C59.7867 52.7758 59.8826 52.7009 59.9607 52.6066C60.042 52.5123 60.1038 52.4033 60.1461 52.2797C60.1884 52.1561 60.2095 52.0243 60.2095 51.8845C60.2095 51.7446 60.1884 51.6128 60.1461 51.4892C60.1038 51.3656 60.042 51.2583 59.9607 51.1672C59.8826 51.0729 59.7867 50.9997 59.6728 50.9476C59.559 50.8923 59.4305 50.8647 59.2874 50.8647C59.1442 50.8647 59.0141 50.8923 58.897 50.9476C58.7832 50.9997 58.6856 51.0729 58.6042 51.1672C58.5262 51.2583 58.466 51.3656 58.4237 51.4892C58.3814 51.6128 58.3603 51.7446 58.3603 51.8845C58.3603 52.0243 58.3814 52.1561 58.4237 52.2797C58.466 52.4033 58.5262 52.5123 58.6042 52.6066C58.6856 52.7009 58.7832 52.7758 58.897 52.8311C59.0141 52.8864 59.1442 52.914 59.2874 52.914ZM61.4902 50.2694H62.1928L63.603 52.3822V50.2694H64.33V53.5239H63.6615L62.2172 51.3721V53.5239H61.4902V50.2694ZM65.8454 50.2694H67.0311C67.2328 50.2694 67.4052 50.2987 67.5483 50.3572C67.6914 50.4158 67.8085 50.4938 67.8996 50.5914C67.9939 50.6858 68.0622 50.7964 68.1045 50.9232C68.1501 51.0501 68.1728 51.1818 68.1728 51.3185C68.1728 51.4941 68.1419 51.6486 68.0801 51.782C68.0216 51.9121 67.9403 52.0211 67.8362 52.1089C67.7353 52.1967 67.6182 52.2634 67.4849 52.309C67.3515 52.3545 67.2116 52.3773 67.0652 52.3773H66.5627V53.5239H65.8454V50.2694ZM66.992 51.782C67.1287 51.782 67.236 51.7413 67.3141 51.66C67.3954 51.5754 67.4361 51.4665 67.4361 51.3331C67.4361 51.1965 67.3954 51.0859 67.3141 51.0013C67.2328 50.9135 67.1238 50.8696 66.9872 50.8696H66.5627V51.782H66.992ZM69.1837 50.2694H69.9985L71.1891 53.5239H70.384L70.1352 52.7774H68.9885L68.7397 53.5239H67.9687L69.1837 50.2694ZM69.9595 52.2065L69.5643 50.9769L69.1593 52.2065H69.9595ZM71.5443 50.2694H72.7544C72.9431 50.2694 73.109 50.297 73.2521 50.3523C73.3952 50.4044 73.514 50.4776 73.6083 50.5719C73.7059 50.663 73.7775 50.7703 73.823 50.894C73.8718 51.0176 73.8962 51.1493 73.8962 51.2892C73.8962 51.5006 73.849 51.686 73.7547 51.8454C73.6636 52.0016 73.5335 52.1268 73.3643 52.2211L74.0865 53.5239H73.2765L72.6715 52.3285H72.2616V53.5239H71.5443V50.2694ZM72.7154 51.7381C72.852 51.7381 72.9593 51.6974 73.0374 51.6161C73.1155 51.5348 73.1545 51.4323 73.1545 51.3087C73.1545 51.1753 73.1155 51.0696 73.0374 50.9915C72.9593 50.9135 72.852 50.8744 72.7154 50.8744H72.2616V51.7381H72.7154ZM75.2521 50.9183H74.1982V50.2694H77.0428V50.9183H75.9938V53.5239H75.2521V50.9183ZM77.4625 50.2694H78.1651L79.5752 52.3822V50.2694H80.3022V53.5239H79.6338L78.1895 51.3721V53.5239H77.4625V50.2694ZM80.9361 50.2694H83.1611V50.9135H81.6729V51.5478H82.8293V52.1723H81.6729V52.875H83.2685V53.5239H80.9361V50.2694ZM83.7666 50.2694H84.9766C85.1653 50.2694 85.3312 50.297 85.4743 50.3523C85.6175 50.4044 85.7362 50.4776 85.8305 50.5719C85.9281 50.663 85.9997 50.7703 86.0452 50.894C86.094 51.0176 86.1184 51.1493 86.1184 51.2892C86.1184 51.5006 86.0712 51.686 85.9769 51.8454C85.8858 52.0016 85.7557 52.1268 85.5866 52.2211L86.3087 53.5239H85.4987L84.8937 52.3285H84.4838V53.5239H83.7666V50.2694ZM84.9376 51.7381C85.0742 51.7381 85.1816 51.6974 85.2596 51.6161C85.3377 51.5348 85.3767 51.4323 85.3767 51.3087C85.3767 51.1753 85.3377 51.0696 85.2596 50.9915C85.1816 50.9135 85.0742 50.8744 84.9376 50.8744H84.4838V51.7381H84.9376Z" fill="white"/>
<defs>
<clipPath id="clip0_16158_46521">
<rect width="18.178" height="39.864" fill="white" transform="translate(68.5347 0.0678711)"/>
</clipPath>
</defs>
</svg>
