<svg width="87" height="54" viewBox="0 0 87 54" fill="none" xmlns="http://www.w3.org/2000/svg">
  <defs>
    <clipPath id="clippath">
      <rect x="68.5" y="0" width="18.2" height="39.9" fill="none" stroke-width="0"/>
    </clipPath>
  </defs>
  <path d="M47.6,3.1v6.4h-9.4V.2h6.4c1.6,0,2.9,1.3,2.9,2.9Z" fill="#fff" stroke-width="0"/>
  <path d="M47.6,18.9h-9.4v9.4h9.4v-9.4Z" fill="#fff" stroke-width="0"/>
  <path d="M28.8.2h-9.4v9.4h9.4V.2Z" fill="#ffd000" stroke-width="0"/>
  <path d="M10.1,7.7V.2H.7v25.2c0,1.6,1.3,2.9,2.9,2.9h6.4v-7.5c0-1,.8-1.9,1.9-1.9h7.5v-9.4h-7.5c-1,0-1.9-.8-1.9-1.9Z" fill="#fff" stroke-width="0"/>
  <path d="M28.8,18.9h-9.4v9.4h9.4v-9.4Z" fill="#fff" stroke-width="0"/>
  <path d="M10.9,38.6c-.6,0-1.2-.2-1.6-.6-.4-.4-.6-1-.6-1.6s.2-1.2.6-1.6c.4-.4,1-.6,1.6-.6s1.1.2,1.6.6c.4.4.6,1,.6,1.6s-.2,1.2-.6,1.6c-.4.4-1,.7-1.6.7ZM13.5,33.8c-.7-.6-1.5-1-2.6-1s-1.9.3-2.5,1c-.7.6-1,1.5-1,2.5s.3,1.8,1,2.4c.7.6,1.5,1,2.5,1s1.9-.3,2.6-1c.7-.6,1-1.5,1-2.4s-.3-1.8-1-2.4ZM41.3,32.9v3.7c0,1.1-.4,1.8-1.6,1.8s-1.6-.7-1.6-1.8v-3.7h-1.3v4c0,2,1.3,2.7,2.9,2.7s2.9-.8,2.9-2.7v-4h-1.3ZM33.5,32.9v5.5h2.8v1.2h-4.1v-6.7h1.3ZM28.9,36c.6,0,1.2-.3,1.2-.9s-.4-.9-1.2-.9h-.8v1.9h.8ZM29.2,32.9c1.4,0,2.1.9,2.1,2.1s-.9,2.1-2.1,2.1h-1.1v2.5h-1.3v-6.7h2.4ZM25.9,32.9v1.2h-2.2v5.5h-1.3v-5.5h-2.2v-1.2h5.7ZM45.7,32.9c.6,0,1.3.2,1.9.5v1.3c-.7-.4-1.2-.7-1.9-.7s-.9.2-1,.6c0,.3.1.5.5.7,0,0,.4.2,1.1.6.5.3.9.5,1.2.9s.4.7.4,1.1-.2,1-.6,1.4c-.4.4-.9.5-1.6.5s-.8,0-1.1-.1c-.3,0-.6-.3-1-.5v-1.5c.7.6,1.4,1,2,1s1-.2,1-.6-.1-.5-.5-.7c-.3-.2-.6-.3-1.1-.6-.5-.3-.9-.5-1.2-.9-.3-.3-.4-.7-.4-1.1s.2-1,.6-1.3c.4-.3,1-.5,1.7-.5M17.5,32.9c.6,0,1.3.2,1.9.5v1.3c-.7-.4-1.2-.7-1.9-.7s-.9.2-1,.6c0,.3.1.5.5.7,0,0,.4.2,1.1.6.5.3.9.5,1.2.9.2.3.4.7.4,1.1s-.2,1-.6,1.4-.9.5-1.6.5-.8,0-1.1-.1c-.3,0-.6-.3-1-.5v-1.5c.7.6,1.4,1,2,1s1-.2,1-.6-.1-.5-.5-.7c-.3-.2-.6-.3-1.1-.6-.5-.3-.9-.5-1.2-.9-.3-.3-.4-.7-.4-1.1s.2-1,.6-1.3c.4-.3,1-.5,1.7-.5M2,32.9v2.7h3.2v-2.7h1.3v6.7h-1.3v-2.7h-3.2v2.7H.7v-6.7h1.3Z" fill="#fff" stroke-width="0"/>
  <line x1="58.5" y1="0" x2="58.5" y2="39.9" fill="none" stroke="#fff" stroke-width=".3"/>
  <g clip-path="url(#clippath)">
    <g>
      <path d="M73.3,39.9c-1.3,0-2.1-.9-2.1-2.4v-.3c0-1.5.8-2.4,2.1-2.4s1.9.8,2,1.8h-1.1c0-.5-.2-.8-.9-.8s-.9.4-.9,1.4v.3c0,1,.2,1.4.9,1.4s.8-.2.9-.8h1.1c0,1-.8,1.7-2,1.7h0Z" fill="#fff" stroke-width="0"/>
      <path d="M79.6,38.2c0,1.1-.8,1.8-1.9,1.8s-1.9-.6-1.9-1.8v-3.2h1.2v3.2c0,.6.3.8.8.8s.8-.2.8-.8v-3.2h1.2v3.2h0Z" fill="#fff" stroke-width="0"/>
      <path d="M84.2,36.6c0,.9-.7,1.6-1.9,1.6h-.8v1.6h-1.2v-4.9h1.9c1.2,0,1.9.7,1.9,1.7h0ZM83,36.7c0-.4-.2-.7-.7-.7h-.8v1.3h.2c0,.1.6.1.6.1.5,0,.7-.3.7-.6Z" fill="#fff" stroke-width="0"/>
      <path d="M68.5,5.8v15.9c0,2.4,1.4,3.6,2.3,4.1l6.9,4,6.9-4c.9-.5,2.3-1.8,2.3-4.1V5.8h-18.3ZM84.6,21.7c0,1.2-.6,1.8-1.1,2.1l-5.7,3.3-5.7-3.3c-.5-.3-1.1-.9-1.1-2.1v-13.6h13.7v13.6Z" fill="#fff" stroke-width="0"/>
      <path d="M77.7,22.1l-3.8-2.2v2.7l3.8,2.2,3.8-2.2v-2.7l-3.8,2.2Z" fill="#fff" stroke-width="0"/>
      <path d="M81.8,11.2v.9l.5-.3v.9l-1.2.7c0-.4.1-.8.1-1.3v-1.6h-7.1v1.6c0,.5,0,.9.1,1.3l-1.2-.7v-.9l.5.3v-.9l-1.3-.7v2.7l2.3,1.3c.2.5.5,1,.8,1.6.4.6,1,1.4.9,2.1-.1.8-.6,1-1.2,1.5l2.5,1.4,2.5-1.4c-.5-.5-1-.8-1.1-1.5,0-.8.5-1.5.9-2.1.3-.5.6-1,.8-1.6l2.3-1.3v-2.7l-1.3.7h0Z" fill="#fff" stroke-width="0"/>
      <path d="M81.1,1.9h-.2v.5h.2c.2,0,.3,0,.3-.2s0-.2-.3-.2h0Z" fill="#fff" stroke-width="0"/>
      <path d="M76.6,1.8c-.2,0-.3,0-.4.2-.1.1-.2.2-.2.4s0,.3.2.4c.1.1.2.2.4.2s.3,0,.4-.2c.1-.1.2-.2.2-.4s0-.3-.2-.4c-.1-.1-.2-.2-.4-.2Z" fill="#fff" stroke-width="0"/>
      <path d="M68.5,0v4.7h18.3V0h-18.3ZM71.1,2.8h-.6c0,0-.1,0-.1.1v.6h-.5c-.1,0-.2-.1-.2-.2V1.3h.8v.6c0,0,0,.1.1.1h.6v.8h0ZM71.8,3.5h-.8v-.8h.8v.8ZM71.8,2h-.8v-.8h.8v.8ZM73.3,3.5h-.8v-.8h.8v.8ZM73.3,2h-.8v-.8h.5c.1,0,.2.1.2.2v.5ZM75.5,3.2h-.3v-.7h-.8v.7h-.3v-1.7h.3v.7h.8v-.7h.3v1.7ZM77.3,3c-.2.2-.4.2-.6.2s-.5,0-.6-.2c-.2-.2-.3-.4-.3-.6s0-.5.3-.6c.2-.2.4-.2.6-.2s.5,0,.6.2.3.4.3.6,0,.4-.3.6h0ZM78.7,3.1c-.1,0-.2.1-.4.1s-.2,0-.3,0c0,0-.2,0-.3-.1v-.4c.2.1.3.2.5.2s.2,0,.2-.2,0-.1-.1-.2c0,0-.2,0-.3-.1-.1,0-.2-.1-.3-.2,0,0,0-.2,0-.3s0-.3.2-.3c.1,0,.2-.1.4-.1s.3,0,.5.1v.3c-.2-.1-.3-.2-.5-.2s-.2,0-.2.1c0,0,0,.1.1.2,0,0,.1,0,.3.1.1,0,.2.1.3.2,0,0,0,.2,0,.3s0,.3-.2.3h0ZM80.4,1.9h-.5v1.4h-.3v-1.4h-.5v-.3h1.4v.3ZM81.2,2.6h-.3v.6h-.3v-1.7h.6c.3,0,.5.2.5.5s-.2.5-.5.5ZM83,3.2h-1v-1.7h.3v1.4h.7v.3h0ZM84.5,2.6c0,.5-.3.7-.7.7s-.7-.2-.7-.7v-1h.3v.9c0,.3.1.4.4.4s.4-.2.4-.4v-.9h.3v1ZM85.7,3.1c-.1,0-.2.1-.4.1s-.2,0-.3,0c0,0-.2,0-.3-.1v-.4c.2.1.3.2.5.2s.2,0,.2-.2,0-.1-.1-.2c0,0-.2,0-.3-.1-.1,0-.2-.1-.3-.2,0,0,0-.2,0-.3s0-.3.2-.3c.1,0,.2-.1.4-.1s.3,0,.5.1v.3c-.2-.1-.3-.2-.5-.2s-.2,0-.2.1c0,0,0,.1.1.2,0,0,.1,0,.3.1.1,0,.2.1.3.2,0,0,0,.2,0,.3s0,.3-.2.3h0Z" fill="#fff" stroke-width="0"/>
      <path d="M71.1,31.2v2.4h-.6v-1h0c0,0-.7,0-.7,0h0v1h-.6v-2.4h.6v.9h0c0,0,.7,0,.7,0h0v-1h.6Z" fill="#fff" stroke-width="0"/>
      <path d="M72.5,33.6c-.6,0-1.1-.5-1.1-1.2h0c0-.8.4-1.3,1.1-1.3s1.1.5,1.1,1.2h0c0,.8-.4,1.3-1.1,1.3ZM72.5,31.6c-.3,0-.5.3-.5.7h0c0,.6.2.8.5.8s.5-.3.5-.7h0c0-.6-.2-.8-.5-.8Z" fill="#fff" stroke-width="0"/>
      <path d="M73.8,31.8c0-.4.4-.7.9-.7s.9.3.9.8h-.6c0-.2-.1-.3-.3-.3s-.3.1-.3.2.2.2.5.3c.5.2.8.4.8.8s-.4.7-.9.7-1-.2-1-.8h.6c0,.3.2.4.4.4s.3-.1.3-.2,0-.2-.4-.3c-.4-.1-.8-.3-.8-.8h0Z" fill="#fff" stroke-width="0"/>
      <path d="M77.9,31.6h-.7v2h-.6v-1.9h0c0,0-.6,0-.6,0v-.5h2v.5h0Z" fill="#fff" stroke-width="0"/>
      <path d="M80.1,32c0,.5-.4.8-.9.8h-.4v.8h-.6v-2.4h1c.6,0,.9.4.9.8h0ZM79.5,32c0-.2-.1-.4-.4-.4h-.4v.6h0c0,0,.3,0,.3,0,.3,0,.4-.1.4-.3h0Z" fill="#fff" stroke-width="0"/>
      <path d="M82,33.1v.5h-1.6v-2.4h.6v1.9h0c0,0,.9,0,.9,0h0Z" fill="#fff" stroke-width="0"/>
      <path d="M84.1,32.8c0,.6-.4.9-1,.9s-1-.3-1-.9v-1.6h.6v1.6c0,.3.1.4.4.4s.4-.1.4-.4v-1.6h.6v1.6Z" fill="#fff" stroke-width="0"/>
      <path d="M84.5,31.8c0-.4.4-.7.9-.7s.9.3.9.8h-.6c0-.2-.1-.3-.3-.3s-.3.1-.3.2.2.2.5.3c.5.2.8.4.8.8s-.4.7-.9.7-1-.2-1-.8h.6c0,.3.2.4.4.4s.3-.1.3-.2,0-.2-.4-.3c-.4-.1-.8-.3-.8-.8h0Z" fill="#fff" stroke-width="0"/>
    </g>
  </g>
  <path d="M1.9,53.6c-.2,0-.5,0-.7-.1-.2,0-.4-.2-.5-.4-.1-.2-.3-.3-.4-.5,0-.2-.1-.4-.1-.7s0-.5.1-.7c0-.2.2-.4.4-.5.2-.2.3-.3.5-.4.2,0,.4-.1.7-.1s.5,0,.7.1c.2,0,.4.2.5.4.2.2.3.3.4.5,0,.2.1.4.1.7s0,.5-.1.7c0,.2-.2.4-.4.5-.1.2-.3.3-.5.4-.2,0-.4.1-.7.1ZM1.9,52.9c.1,0,.3,0,.4,0,.1,0,.2-.1.3-.2,0,0,.1-.2.2-.3,0-.1,0-.3,0-.4s0-.3,0-.4c0-.1-.1-.2-.2-.3,0,0-.2-.2-.3-.2-.1,0-.2,0-.4,0s-.3,0-.4,0c-.1,0-.2.1-.3.2,0,0-.1.2-.2.3,0,.1,0,.3,0,.4s0,.3,0,.4c0,.1.1.2.2.3,0,0,.2.2.3.2.1,0,.2,0,.4,0ZM4.1,50.3h2.2v.6h-1.4v.7h1.1v.6h-1.1v1.2h-.7v-3.3ZM6.7,50.3h2.2v.6h-1.4v.7h1.1v.6h-1.1v1.2h-.7v-3.3ZM9.3,50.3h.7v3.3h-.7v-3.3ZM13.7,52.9c0,0-.2.2-.2.3,0,0-.2.2-.3.2-.1,0-.2.1-.4.1-.1,0-.3,0-.4,0-.2,0-.5,0-.7-.1-.2,0-.4-.2-.5-.4-.1-.2-.3-.3-.3-.5,0-.2-.1-.4-.1-.7s0-.5.1-.7c0-.2.2-.4.3-.5.1-.2.3-.3.5-.4.2,0,.4-.1.7-.1s.6,0,.8.2c.2.1.4.3.6.5l-.5.5c0-.1-.2-.2-.3-.3-.1,0-.3-.1-.5-.1s-.3,0-.4,0c-.1,0-.2.1-.3.2,0,0-.1.2-.2.3,0,.1,0,.3,0,.4s0,.3,0,.4c0,.1.1.2.2.3,0,0,.2.2.3.2.1,0,.2,0,.4,0s.2,0,.3,0c0,0,.2,0,.2,0,0,0,.1,0,.2-.1,0,0,.1-.1.2-.2l.5.5ZM14,50.3h.7v3.3h-.7v-3.3ZM16.3,50.3h.8l1.2,3.3h-.8l-.2-.7h-1.1l-.2.7h-.8l1.2-3.3ZM17.1,52.2l-.4-1.2-.4,1.2h.8ZM18.7,50.3h.7v2.6h1.6v.7h-2.3v-3.3ZM22.6,52.6s0,0,.1.1c0,0,.1,0,.2.1,0,0,.1,0,.2,0,0,0,.2,0,.3,0s.1,0,.2,0c0,0,.1,0,.2,0,0,0,0,0,.1-.1,0,0,0,0,0-.2,0-.1,0-.2-.2-.3-.1,0-.3-.1-.6-.2-.1,0-.2,0-.3-.1-.1,0-.2-.1-.3-.2,0,0-.1-.2-.2-.3,0-.1,0-.2,0-.3s0-.3,0-.4c0-.1.1-.2.2-.3.1,0,.2-.2.4-.2.1,0,.3,0,.5,0s.3,0,.4,0c.1,0,.2,0,.3.1,0,0,.2,0,.2.1,0,0,.1,0,.1.1l-.4.5s0,0-.1,0c0,0,0,0-.2,0,0,0-.1,0-.2,0,0,0-.1,0-.2,0s-.1,0-.2,0c0,0,0,0-.1,0,0,0,0,0,0,0,0,0,0,0,0,.1,0,.1,0,.2.2.3.1,0,.3.1.5.2.1,0,.2,0,.4.1.1,0,.2.1.3.2,0,0,.2.2.2.3,0,.1,0,.3,0,.4s0,.3,0,.4c0,.1-.2.2-.3.3-.1,0-.2.2-.4.2-.1,0-.3,0-.5,0s-.3,0-.4,0c-.1,0-.3,0-.4-.1-.1,0-.2-.1-.3-.2,0,0-.2-.1-.2-.2l.5-.5ZM25.2,50.3h.7v1.9c0,.1,0,.2,0,.3,0,0,0,.2.1.2,0,0,.1.1.2.1,0,0,.2,0,.3,0s.2,0,.3,0c0,0,.1,0,.2-.1,0,0,0-.1.1-.2,0,0,0-.2,0-.3v-1.9h.7v2c0,.2,0,.4,0,.5,0,.2-.2.3-.3.4-.1.1-.3.2-.4.3-.2,0-.4,0-.6,0s-.4,0-.6,0c-.2,0-.3-.2-.4-.3-.1-.1-.2-.3-.3-.4,0-.2,0-.3,0-.5v-2ZM28.5,50.3h1.2c.2,0,.4,0,.5,0,.1,0,.3.1.4.2,0,0,.2.2.2.3,0,.1,0,.3,0,.4s0,.3,0,.5c0,.1-.1.2-.2.3-.1,0-.2.2-.4.2-.1,0-.3,0-.4,0h-.5v1.1h-.7v-3.3ZM29.7,51.8c.1,0,.2,0,.3-.1,0,0,.1-.2.1-.3s0-.2-.1-.3c0,0-.2-.1-.3-.1h-.4v.9h.4ZM31.3,50.3h2.2v.6h-1.5v.6h1.2v.6h-1.2v.7h1.6v.6h-2.3v-3.3ZM34.2,50.3h1.2c.2,0,.4,0,.5,0,.1,0,.3.1.4.2,0,0,.2.2.2.3,0,.1,0,.3,0,.4,0,.2,0,.4-.1.6,0,.2-.2.3-.4.4l.7,1.3h-.8l-.6-1.2h-.4v1.2h-.7v-3.3ZM35.3,51.7c.1,0,.2,0,.3-.1,0,0,.1-.2.1-.3s0-.2-.1-.3c0,0-.2-.1-.3-.1h-.5v.9h.5ZM38.1,50.3h.8l1.2,3.3h-.8l-.2-.7h-1.1l-.2.7h-.8l1.2-3.3ZM38.8,52.2l-.4-1.2-.4,1.2h.8ZM40.4,50.3h.7l1.4,2.1v-2.1h.7v3.3h-.7l-1.4-2.2v2.2h-.7v-3.3ZM43.9,50.3h.7l1.4,2.1v-2.1h.7v3.3h-.7l-1.4-2.2v2.2h-.7v-3.3ZM47.3,50.3h.7v1.9c0,.1,0,.2,0,.3,0,0,0,.2.1.2,0,0,.1.1.2.1,0,0,.2,0,.3,0s.2,0,.3,0c0,0,.1,0,.2-.1,0,0,0-.1.1-.2,0,0,0-.2,0-.3v-1.9h.7v2c0,.2,0,.4,0,.5,0,.2-.2.3-.3.4-.1.1-.3.2-.4.3-.2,0-.4,0-.6,0s-.4,0-.6,0c-.2,0-.3-.2-.4-.3-.1-.1-.2-.3-.3-.4,0-.2,0-.3,0-.5v-2ZM51.5,50.3h.8l1.2,3.3h-.8l-.2-.7h-1.1l-.2.7h-.8l1.2-3.3ZM52.2,52.2l-.4-1.2-.4,1.2h.8ZM54.1,50.9h-1.1v-.6h2.8v.6h-1v2.6h-.7v-2.6ZM56.3,50.3h.7v3.3h-.7v-3.3ZM59.3,53.6c-.2,0-.5,0-.7-.1-.2,0-.4-.2-.5-.4-.1-.2-.3-.3-.4-.5,0-.2-.1-.4-.1-.7s0-.5.1-.7c0-.2.2-.4.4-.5.2-.2.3-.3.5-.4.2,0,.4-.1.7-.1s.5,0,.7.1c.2,0,.4.2.5.4.2.2.3.3.4.5,0,.2.1.4.1.7s0,.5-.1.7c0,.2-.2.4-.4.5-.1.2-.3.3-.5.4-.2,0-.4.1-.7.1ZM59.3,52.9c.1,0,.3,0,.4,0,.1,0,.2-.1.3-.2,0,0,.1-.2.2-.3,0-.1,0-.3,0-.4s0-.3,0-.4c0-.1-.1-.2-.2-.3,0,0-.2-.2-.3-.2-.1,0-.2,0-.4,0s-.3,0-.4,0c-.1,0-.2.1-.3.2,0,0-.1.2-.2.3,0,.1,0,.3,0,.4s0,.3,0,.4c0,.1.1.2.2.3,0,0,.2.2.3.2.1,0,.2,0,.4,0ZM61.5,50.3h.7l1.4,2.1v-2.1h.7v3.3h-.7l-1.4-2.2v2.2h-.7v-3.3ZM65.8,50.3h1.2c.2,0,.4,0,.5,0,.1,0,.3.1.4.2,0,0,.2.2.2.3,0,.1,0,.3,0,.4s0,.3,0,.5c0,.1-.1.2-.2.3-.1,0-.2.2-.4.2-.1,0-.3,0-.4,0h-.5v1.1h-.7v-3.3ZM67,51.8c.1,0,.2,0,.3-.1,0,0,.1-.2.1-.3s0-.2-.1-.3c0,0-.2-.1-.3-.1h-.4v.9h.4ZM69.2,50.3h.8l1.2,3.3h-.8l-.2-.7h-1.1l-.2.7h-.8l1.2-3.3ZM70,52.2l-.4-1.2-.4,1.2h.8ZM71.5,50.3h1.2c.2,0,.4,0,.5,0,.1,0,.3.1.4.2,0,0,.2.2.2.3,0,.1,0,.3,0,.4,0,.2,0,.4-.1.6,0,.2-.2.3-.4.4l.7,1.3h-.8l-.6-1.2h-.4v1.2h-.7v-3.3ZM72.7,51.7c.1,0,.2,0,.3-.1s.1-.2.1-.3,0-.2-.1-.3c0,0-.2-.1-.3-.1h-.5v.9h.5ZM75.3,50.9h-1.1v-.6h2.8v.6h-1v2.6h-.7v-2.6ZM77.5,50.3h.7l1.4,2.1v-2.1h.7v3.3h-.7l-1.4-2.2v2.2h-.7v-3.3ZM80.9,50.3h2.2v.6h-1.5v.6h1.2v.6h-1.2v.7h1.6v.6h-2.3v-3.3ZM83.8,50.3h1.2c.2,0,.4,0,.5,0,.1,0,.3.1.4.2,0,0,.2.2.2.3,0,.1,0,.3,0,.4,0,.2,0,.4-.1.6,0,.2-.2.3-.4.4l.7,1.3h-.8l-.6-1.2h-.4v1.2h-.7v-3.3ZM84.9,51.7c.1,0,.2,0,.3-.1,0,0,.1-.2.1-.3s0-.2-.1-.3c0,0-.2-.1-.3-.1h-.5v.9h.5Z" fill="#fff" stroke-width="0"/>
</svg>