<?xml version="1.0" encoding="utf-8"?>
<!-- Generator: Adobe Illustrator 27.7.0, SVG Export Plug-In . SVG Version: 6.00 Build 0)  -->
<svg version="1.1" id="Layer_1" xmlns="http://www.w3.org/2000/svg" xmlns:xlink="http://www.w3.org/1999/xlink" x="0px" y="0px"
	 viewBox="0 0 160 600" style="enable-background:new 0 0 160 600;" xml:space="preserve">
<style type="text/css">
	.st0{fill:#FFFFFF;}
	.st1{fill:#B2BECC;}
</style>
<path class="st0" d="M148.7,12.8l-4.9,5l4.7,4.9l-1.8,1.8l-4.7-4.8l-4.8,5l-1.8-1.8l4.9-5l-4.9-5l1.8-1.8l4.8,5l4.8-5L148.7,12.8z"
	/>
<path class="st1" d="M10.1,45l2.9-7.3h1.1L17,45h-1.2L15,43h-3l-0.8,2H10.1z M12.3,42.1h2.4l-1.2-3.2L12.3,42.1z M18.6,45l-1.7-5.1
	H18l1.1,3.9l1.2-3.9h0.8l1.2,3.9l1.1-3.9h1L22.9,45h-1l-1.2-3.6L19.5,45H18.6z M28.6,45v-0.6c-0.2,0.2-0.4,0.4-0.8,0.6
	c-0.3,0.1-0.6,0.2-1,0.2c-0.3,0-0.6-0.1-0.8-0.2c-0.3-0.1-0.5-0.3-0.7-0.5S25,44,25,43.6c0-0.5,0.2-1,0.6-1.3s0.9-0.5,1.7-0.5
	c0.2,0,0.3,0,0.5,0s0.3,0,0.5,0c0.1,0,0.2,0,0.3,0v-0.2c0-0.4-0.1-0.7-0.4-0.8c-0.2-0.2-0.5-0.3-0.9-0.3s-0.7,0.1-0.9,0.2
	c-0.2,0.1-0.4,0.2-0.6,0.3l-0.5-0.7c0.2-0.1,0.4-0.3,0.8-0.4c0.3-0.1,0.8-0.2,1.3-0.2c0.7,0,1.2,0.2,1.6,0.5s0.6,0.8,0.6,1.4v3
	c0,0.1,0,0.1,0,0.2s0,0.2,0,0.3L28.6,45L28.6,45z M28.6,43.2v-0.6c0,0-0.1,0-0.3,0c-0.1,0-0.3,0-0.5,0s-0.3,0-0.5,0
	c-0.4,0-0.6,0.1-0.8,0.2c-0.2,0.1-0.3,0.2-0.4,0.4S26,43.5,26,43.7c0,0.3,0.1,0.5,0.3,0.6c0.2,0.1,0.5,0.2,0.8,0.2s0.5-0.1,0.7-0.2
	c0.2-0.1,0.4-0.3,0.5-0.5C28.5,43.6,28.6,43.4,28.6,43.2z M31.8,45h-1v-4.6c0-0.1,0-0.1,0-0.2c0-0.1,0-0.2,0-0.3h0.9v0.8
	c0.1-0.1,0.2-0.2,0.3-0.4c0.1-0.1,0.3-0.3,0.5-0.4c0.2-0.1,0.5-0.2,0.8-0.2c0.1,0,0.2,0,0.3,0s0.2,0,0.3,0.1l-0.2,0.9
	c-0.1-0.1-0.3-0.1-0.5-0.1c-0.3,0-0.5,0.1-0.8,0.2c-0.2,0.1-0.4,0.3-0.5,0.6c-0.1,0.2-0.2,0.5-0.2,0.8V45H31.8z M38.3,45v-0.6
	c-0.1,0.1-0.1,0.2-0.3,0.3c-0.1,0.1-0.3,0.3-0.5,0.4c-0.2,0.1-0.5,0.2-0.8,0.2c-0.4,0-0.8-0.1-1.2-0.3c-0.3-0.2-0.6-0.5-0.8-0.9
	s-0.3-0.9-0.3-1.4s0.1-0.9,0.2-1.2c0.2-0.4,0.4-0.6,0.6-0.9c0.3-0.2,0.5-0.4,0.8-0.5s0.6-0.2,0.9-0.2c0.3,0,0.5,0,0.7,0.1
	s0.4,0.1,0.6,0.2v-2.4h1v6.8c0,0,0,0.1,0,0.2c0,0.1,0,0.2,0,0.3L38.3,45L38.3,45z M38.3,42.8V41c-0.1-0.1-0.3-0.2-0.5-0.3
	s-0.5-0.1-0.7-0.1c-0.5,0-0.9,0.2-1.2,0.5s-0.5,0.8-0.5,1.4c0,0.3,0.1,0.6,0.2,0.9c0.1,0.3,0.3,0.5,0.5,0.6c0.2,0.2,0.5,0.2,0.8,0.2
	s0.6-0.1,0.8-0.2c0.2-0.2,0.4-0.4,0.5-0.6C38.2,43.3,38.3,43,38.3,42.8z M40.4,44.4l0.6-0.7c0.2,0.2,0.4,0.3,0.7,0.4
	c0.3,0.1,0.6,0.2,0.9,0.2c0.3,0,0.6-0.1,0.8-0.2c0.2-0.1,0.3-0.3,0.3-0.5s0-0.3-0.1-0.4c-0.1-0.1-0.2-0.2-0.5-0.3
	c-0.2-0.1-0.5-0.2-0.9-0.3c-0.3-0.1-0.5-0.2-0.8-0.3c-0.2-0.1-0.5-0.3-0.6-0.5c-0.2-0.2-0.2-0.5-0.2-0.8s0.1-0.6,0.3-0.8
	s0.5-0.4,0.8-0.5s0.6-0.2,1-0.2s0.8,0.1,1.1,0.2c0.3,0.1,0.6,0.3,0.8,0.5L44,41.1c-0.2-0.1-0.3-0.3-0.6-0.4
	c-0.2-0.1-0.5-0.1-0.8-0.1s-0.6,0.1-0.8,0.2c-0.2,0.1-0.3,0.3-0.3,0.5s0.1,0.4,0.4,0.5c0.3,0.1,0.6,0.2,1,0.3
	c0.3,0.1,0.6,0.2,0.9,0.3c0.3,0.1,0.5,0.3,0.6,0.5c0.2,0.2,0.2,0.5,0.2,0.8s-0.1,0.6-0.3,0.9c-0.2,0.2-0.5,0.4-0.8,0.5
	s-0.7,0.2-1,0.2C41.6,45.2,40.8,44.9,40.4,44.4z M51,45v-0.6c-0.2,0.2-0.4,0.4-0.8,0.6c-0.3,0.1-0.6,0.2-1,0.2
	c-0.3,0-0.6-0.1-0.8-0.2c-0.3-0.1-0.5-0.3-0.7-0.5s-0.3-0.5-0.3-0.9c0-0.5,0.2-1,0.6-1.3c0.4-0.3,0.9-0.5,1.7-0.5c0.2,0,0.3,0,0.5,0
	s0.3,0,0.5,0c0.1,0,0.2,0,0.3,0v-0.2c0-0.4-0.1-0.7-0.4-0.8c-0.2-0.2-0.5-0.3-0.9-0.3s-0.7,0.1-0.9,0.2c-0.2,0.1-0.4,0.2-0.6,0.3
	l-0.5-0.7c0.2-0.1,0.4-0.3,0.8-0.4c0.3-0.1,0.8-0.2,1.3-0.2c0.7,0,1.2,0.2,1.6,0.5c0.4,0.3,0.6,0.8,0.6,1.4v3c0,0.1,0,0.1,0,0.2
	s0,0.2,0,0.3L51,45L51,45z M51,43.2v-0.6c0,0-0.1,0-0.3,0c-0.1,0-0.3,0-0.5,0s-0.3,0-0.5,0c-0.4,0-0.6,0.1-0.8,0.2
	c-0.2,0.1-0.3,0.2-0.4,0.4c-0.1,0.2-0.1,0.3-0.1,0.5c0,0.3,0.1,0.5,0.3,0.6s0.5,0.2,0.8,0.2s0.5-0.1,0.7-0.2
	c0.2-0.1,0.4-0.3,0.5-0.5C50.9,43.6,51,43.4,51,43.2z M54.3,45h-1v-4.6c0-0.1,0-0.1,0-0.2c0-0.1,0-0.2,0-0.3h0.9v0.8
	c0.1-0.1,0.2-0.3,0.4-0.4c0.1-0.1,0.3-0.3,0.6-0.4c0.2-0.1,0.5-0.2,0.8-0.2c0.7,0,1.2,0.2,1.5,0.6c0.3,0.4,0.5,0.9,0.5,1.6V45h-1v-3
	c0-0.5-0.1-0.8-0.3-1s-0.5-0.3-0.9-0.3s-0.7,0.1-0.9,0.3s-0.4,0.4-0.5,0.7s-0.1,0.6-0.1,1V45z M63,45v-0.6c-0.1,0.1-0.1,0.2-0.3,0.3
	c-0.1,0.1-0.3,0.3-0.5,0.4c-0.2,0.1-0.5,0.2-0.8,0.2c-0.4,0-0.8-0.1-1.2-0.3c-0.3-0.2-0.6-0.5-0.8-0.9C59.1,43.5,59,43,59,42.5
	s0.1-0.9,0.2-1.2c0.2-0.4,0.4-0.6,0.6-0.9c0.3-0.2,0.5-0.4,0.8-0.5s0.6-0.2,0.9-0.2c0.3,0,0.5,0,0.7,0.1s0.4,0.1,0.6,0.2v-2.4h1v6.8
	c0,0,0,0.1,0,0.2c0,0.1,0,0.2,0,0.3H63V45z M63,42.8V41c-0.1-0.1-0.3-0.2-0.5-0.3s-0.5-0.1-0.7-0.1c-0.5,0-0.9,0.2-1.2,0.5
	s-0.5,0.8-0.5,1.4c0,0.3,0.1,0.6,0.2,0.9c0.1,0.3,0.3,0.5,0.5,0.6c0.2,0.2,0.5,0.2,0.8,0.2s0.6-0.1,0.8-0.2c0.2-0.2,0.4-0.4,0.5-0.6
	C62.9,43.3,63,43,63,42.8z M68.3,45h-1v-4.6c0-0.1,0-0.1,0-0.2c0-0.1,0-0.2,0-0.3h0.9v0.8c0.1-0.1,0.2-0.2,0.3-0.4
	c0.1-0.1,0.3-0.3,0.6-0.4c0.2-0.1,0.5-0.2,0.8-0.2c0.1,0,0.2,0,0.3,0c0.1,0,0.2,0,0.3,0.1l-0.2,0.9c-0.1-0.1-0.3-0.1-0.5-0.1
	c-0.3,0-0.5,0.1-0.8,0.2c-0.2,0.1-0.4,0.3-0.5,0.6c-0.1,0.2-0.2,0.5-0.2,0.8L68.3,45L68.3,45z M74.4,45v-0.6
	c-0.2,0.2-0.4,0.4-0.8,0.6c-0.3,0.1-0.6,0.2-1,0.2c-0.3,0-0.6-0.1-0.8-0.2c-0.3-0.1-0.5-0.3-0.7-0.5s-0.3-0.5-0.3-0.9
	c0-0.5,0.2-1,0.6-1.3s0.9-0.5,1.7-0.5c0.2,0,0.3,0,0.5,0s0.3,0,0.5,0c0.1,0,0.2,0,0.3,0v-0.2c0-0.4-0.1-0.7-0.4-0.8
	c-0.2-0.2-0.5-0.3-0.9-0.3s-0.7,0.1-0.9,0.2c-0.2,0.1-0.4,0.2-0.6,0.3l-0.5-0.7c0.2-0.1,0.4-0.3,0.8-0.4c0.3-0.1,0.8-0.2,1.3-0.2
	c0.7,0,1.2,0.2,1.6,0.5s0.6,0.8,0.6,1.4v3c0,0.1,0,0.1,0,0.2s0,0.2,0,0.3L74.4,45L74.4,45z M74.4,43.2v-0.6c0,0-0.1,0-0.3,0
	c-0.1,0-0.3,0-0.5,0s-0.3,0-0.5,0c-0.4,0-0.6,0.1-0.8,0.2c-0.2,0.1-0.3,0.2-0.4,0.4s-0.1,0.3-0.1,0.5c0,0.3,0.1,0.5,0.3,0.6
	c0.2,0.1,0.5,0.2,0.8,0.2s0.5-0.1,0.7-0.2c0.2-0.1,0.4-0.3,0.5-0.5C74.3,43.6,74.4,43.4,74.4,43.2z M77.1,43.3v-2.6h-0.9v-0.8h0.9
	v-1.7h1v1.7h1.5v0.8h-1.5v2.5c0,0.4,0.1,0.7,0.2,0.8c0.1,0.2,0.3,0.2,0.6,0.2c0.2,0,0.3,0,0.5-0.1c0.1-0.1,0.3-0.1,0.4-0.3l0.5,0.6
	c-0.2,0.2-0.4,0.4-0.7,0.4c-0.2,0.1-0.5,0.1-0.8,0.1c-0.5,0-0.9-0.1-1.2-0.4C77.2,44.4,77.1,43.9,77.1,43.3z M80.8,39v-1.1H82V39
	H80.8z M80.9,45v-5.1h1V45H80.9z M84.3,45h-1v-4.6c0-0.1,0-0.1,0-0.2c0-0.1,0-0.2,0-0.3h0.9v0.8c0.1-0.1,0.2-0.3,0.4-0.4
	c0.1-0.1,0.3-0.3,0.6-0.4c0.2-0.1,0.5-0.2,0.8-0.2c0.7,0,1.2,0.2,1.5,0.6c0.3,0.4,0.5,0.9,0.5,1.6V45h-1v-3c0-0.5-0.1-0.8-0.3-1
	c-0.2-0.2-0.5-0.3-0.9-0.3s-0.7,0.1-0.9,0.3c-0.2,0.2-0.4,0.4-0.5,0.7s-0.1,0.6-0.1,1V45z M89.5,46.8L90,46c0.2,0.1,0.4,0.2,0.6,0.3
	s0.5,0.1,0.9,0.1c0.5,0,0.9-0.1,1.1-0.4c0.2-0.3,0.4-0.6,0.4-1.1v-0.6c-0.1,0.1-0.2,0.1-0.3,0.3c-0.1,0.1-0.3,0.2-0.5,0.3
	C91.9,45,91.7,45,91.4,45c-0.5,0-0.9-0.1-1.3-0.3c-0.3-0.2-0.6-0.5-0.8-0.9C89.1,43.4,89,43,89,42.5s0.1-1,0.4-1.4
	c0.2-0.4,0.6-0.7,1-1c0.4-0.2,0.9-0.4,1.5-0.4c0.4,0,0.8,0,1.2,0.1c0.4,0.1,0.7,0.2,0.9,0.2v5c0,0.7-0.2,1.3-0.6,1.7s-1,0.6-1.8,0.6
	c-0.5,0-0.9-0.1-1.2-0.2C90,47,89.7,46.9,89.5,46.8z M93,42.9v-2.1c-0.1,0-0.2-0.1-0.3-0.1c-0.2,0-0.4-0.1-0.7-0.1
	c-0.4,0-0.7,0.1-1,0.2c-0.3,0.2-0.5,0.4-0.7,0.6c-0.2,0.3-0.2,0.6-0.2,1c0,0.3,0,0.6,0.1,0.8c0.1,0.3,0.3,0.5,0.5,0.6
	c0.2,0.2,0.5,0.2,0.8,0.2s0.6-0.1,0.8-0.2c0.2-0.1,0.4-0.3,0.5-0.5C92.9,43.3,93,43.1,93,42.9z M95,44.4l0.6-0.7
	c0.2,0.2,0.4,0.3,0.7,0.4c0.3,0.1,0.6,0.2,0.9,0.2s0.6-0.1,0.8-0.2c0.2-0.1,0.3-0.3,0.3-0.5s0-0.3-0.1-0.4c-0.1-0.1-0.2-0.2-0.5-0.3
	c-0.2-0.1-0.5-0.2-0.9-0.3c-0.3-0.1-0.5-0.2-0.8-0.3c-0.2-0.1-0.5-0.3-0.6-0.5c-0.2-0.2-0.2-0.5-0.2-0.8s0.1-0.6,0.3-0.8
	c0.2-0.2,0.5-0.4,0.8-0.5s0.6-0.2,1-0.2s0.8,0.1,1.1,0.2c0.3,0.1,0.6,0.3,0.8,0.5l-0.5,0.7c-0.2-0.1-0.3-0.3-0.6-0.4
	c-0.2-0.1-0.5-0.1-0.8-0.1s-0.6,0.1-0.8,0.2c-0.2,0.1-0.3,0.3-0.3,0.5s0.1,0.4,0.4,0.5s0.6,0.2,1,0.3c0.3,0.1,0.6,0.2,0.9,0.3
	s0.5,0.3,0.6,0.5c0.2,0.2,0.2,0.5,0.2,0.8s-0.1,0.6-0.3,0.9c-0.2,0.2-0.5,0.4-0.8,0.5s-0.7,0.2-1,0.2C96.2,45.2,95.5,44.9,95,44.4z
	 M105.7,45v-0.6c-0.2,0.2-0.4,0.4-0.8,0.6c-0.3,0.1-0.6,0.2-1,0.2c-0.3,0-0.6-0.1-0.8-0.2c-0.3-0.1-0.5-0.3-0.7-0.5
	s-0.3-0.5-0.3-0.9c0-0.5,0.2-1,0.6-1.3s0.9-0.5,1.7-0.5c0.2,0,0.3,0,0.5,0s0.3,0,0.5,0c0.1,0,0.2,0,0.3,0v-0.2
	c0-0.4-0.1-0.7-0.4-0.8c-0.2-0.2-0.5-0.3-0.9-0.3s-0.7,0.1-0.9,0.2c-0.2,0.1-0.4,0.2-0.6,0.3l-0.5-0.7c0.2-0.1,0.4-0.3,0.8-0.4
	c0.3-0.1,0.8-0.2,1.3-0.2c0.7,0,1.2,0.2,1.6,0.5s0.6,0.8,0.6,1.4v3c0,0.1,0,0.1,0,0.2s0,0.2,0,0.3L105.7,45L105.7,45z M105.7,43.2
	v-0.6c0,0-0.1,0-0.3,0c-0.1,0-0.3,0-0.5,0s-0.3,0-0.5,0c-0.4,0-0.6,0.1-0.8,0.2c-0.2,0.1-0.3,0.2-0.4,0.4s-0.1,0.3-0.1,0.5
	c0,0.3,0.1,0.5,0.3,0.6c0.2,0.1,0.5,0.2,0.8,0.2s0.5-0.1,0.7-0.2c0.2-0.1,0.4-0.3,0.5-0.5C105.6,43.6,105.7,43.4,105.7,43.2z
	 M109,45h-1v-4.6c0-0.1,0-0.1,0-0.2c0-0.1,0-0.2,0-0.3h0.9v0.8c0.1-0.1,0.2-0.2,0.3-0.4c0.1-0.1,0.3-0.3,0.5-0.4
	c0.2-0.1,0.5-0.2,0.8-0.2c0.1,0,0.2,0,0.3,0c0.1,0,0.2,0,0.3,0.1l-0.2,0.9c-0.1-0.1-0.3-0.1-0.5-0.1c-0.3,0-0.5,0.1-0.8,0.2
	c-0.2,0.1-0.4,0.3-0.5,0.6c-0.1,0.2-0.2,0.5-0.2,0.8L109,45L109,45z M115.8,43.7l0.6,0.6c-0.1,0.1-0.2,0.2-0.4,0.4
	c-0.2,0.1-0.4,0.3-0.7,0.4c-0.3,0.1-0.7,0.2-1.1,0.2c-0.5,0-1-0.1-1.4-0.3s-0.7-0.6-0.9-1c-0.2-0.4-0.3-0.9-0.3-1.4s0.1-0.9,0.3-1.4
	c0.2-0.4,0.5-0.7,0.9-1c0.4-0.2,0.8-0.4,1.3-0.4c0.6,0,1.1,0.1,1.4,0.4c0.4,0.3,0.6,0.7,0.8,1.1c0.2,0.5,0.3,0.9,0.3,1.5h-4
	c0,0.3,0.1,0.6,0.2,0.8c0.2,0.2,0.4,0.4,0.6,0.6c0.3,0.1,0.5,0.2,0.8,0.2c0.4,0,0.8-0.1,1.1-0.2C115.5,43.9,115.7,43.8,115.8,43.7z
	 M112.5,42h3c0-0.4-0.2-0.7-0.4-1c-0.2-0.3-0.6-0.4-1.1-0.4c-0.3,0-0.6,0.1-0.8,0.2c-0.2,0.1-0.4,0.3-0.5,0.5
	C112.5,41.5,112.5,41.8,112.5,42z M122.1,45.2c-0.5,0-1-0.1-1.4-0.4c-0.4-0.2-0.7-0.6-1-1c-0.2-0.4-0.3-0.9-0.3-1.4s0.1-1,0.3-1.4
	c0.2-0.4,0.6-0.7,1-1c0.4-0.2,0.9-0.4,1.4-0.4s1,0.1,1.4,0.4c0.4,0.2,0.7,0.6,1,1c0.2,0.4,0.4,0.9,0.4,1.4s-0.1,0.9-0.4,1.4
	c-0.2,0.4-0.6,0.7-1,1C123,45,122.6,45.2,122.1,45.2z M122.1,44.3c0.4,0,0.7-0.1,0.9-0.3c0.3-0.2,0.5-0.4,0.6-0.7s0.2-0.6,0.2-0.9
	s-0.1-0.6-0.2-0.9c-0.1-0.3-0.3-0.5-0.6-0.7c-0.3-0.2-0.6-0.3-0.9-0.3c-0.4,0-0.7,0.1-0.9,0.3c-0.3,0.2-0.5,0.4-0.6,0.7
	s-0.2,0.6-0.2,0.9c0,0.3,0.1,0.6,0.2,0.9c0.1,0.3,0.3,0.5,0.6,0.7C121.4,44.2,121.7,44.3,122.1,44.3z M126.9,45h-1v-4.6
	c0-0.1,0-0.1,0-0.2c0-0.1,0-0.2,0-0.3h0.9v0.8c0.1-0.1,0.2-0.3,0.4-0.4c0.1-0.1,0.3-0.3,0.6-0.4c0.2-0.1,0.5-0.2,0.8-0.2
	c0.7,0,1.2,0.2,1.5,0.6c0.3,0.4,0.5,0.9,0.5,1.6V45h-1v-3c0-0.5-0.1-0.8-0.3-1s-0.5-0.3-0.9-0.3s-0.7,0.1-0.9,0.3
	c-0.2,0.2-0.4,0.4-0.5,0.7s-0.1,0.6-0.1,1C126.9,42.7,126.9,45,126.9,45z M131.9,45v-7.3h1V45H131.9z M133.8,46.9l0.5-0.7
	c0.1,0.1,0.2,0.1,0.3,0.2c0.1,0.1,0.2,0.1,0.4,0.1s0.4-0.1,0.5-0.3s0.3-0.5,0.4-0.9L136,45l-2.3-5.1h1.1l1.6,3.9l1.5-3.9h1.1l-2,5
	c-0.1,0.2-0.2,0.5-0.3,0.8s-0.2,0.6-0.4,0.8c-0.1,0.3-0.3,0.5-0.5,0.6c-0.2,0.2-0.5,0.3-0.8,0.3s-0.5,0-0.6-0.1
	C134.1,47.2,133.9,47.1,133.8,46.9z M13.1,56.2c-0.5,0-1-0.1-1.4-0.4c-0.4-0.2-0.7-0.6-1-1c-0.2-0.4-0.3-0.9-0.3-1.4s0.1-1,0.3-1.4
	s0.6-0.7,1-1c0.4-0.2,0.9-0.4,1.4-0.4s1,0.1,1.4,0.4c0.4,0.2,0.7,0.6,1,1c0.2,0.4,0.4,0.9,0.4,1.4s-0.1,0.9-0.4,1.4
	c-0.2,0.4-0.6,0.7-1,1C14.1,56,13.7,56.2,13.1,56.2z M13.1,55.3c0.4,0,0.7-0.1,0.9-0.3c0.3-0.2,0.5-0.4,0.6-0.7s0.2-0.6,0.2-0.9
	s-0.1-0.6-0.2-0.9c-0.1-0.3-0.3-0.5-0.6-0.7s-0.6-0.3-0.9-0.3s-0.7,0.1-0.9,0.3c-0.3,0.2-0.5,0.4-0.6,0.7s-0.2,0.6-0.2,0.9
	c0,0.3,0.1,0.6,0.2,0.9c0.1,0.3,0.3,0.5,0.6,0.7C12.5,55.2,12.8,55.3,13.1,55.3z M18,56h-1v-4.6c0-0.1,0-0.1,0-0.2
	c0-0.1,0-0.2,0-0.3h0.9v0.8c0.1-0.1,0.2-0.3,0.4-0.4c0.1-0.1,0.3-0.3,0.6-0.4c0.2-0.1,0.5-0.2,0.8-0.2c0.7,0,1.2,0.2,1.5,0.6
	c0.3,0.4,0.5,0.9,0.5,1.6V56h-1v-3c0-0.5-0.1-0.8-0.3-1c-0.2-0.2-0.5-0.3-0.9-0.3s-0.7,0.1-0.9,0.3c-0.2,0.2-0.4,0.4-0.5,0.7
	S18,53.3,18,53.6V56z M27.1,54.7l0.6,0.6c-0.1,0.1-0.2,0.2-0.4,0.4c-0.2,0.1-0.4,0.3-0.7,0.4c-0.3,0.1-0.7,0.2-1.1,0.2
	c-0.5,0-1-0.1-1.4-0.3s-0.7-0.6-0.9-1c-0.2-0.4-0.3-0.9-0.3-1.4s0.1-0.9,0.3-1.4c0.2-0.4,0.5-0.7,0.9-1c0.4-0.2,0.8-0.4,1.3-0.4
	c0.6,0,1.1,0.1,1.4,0.4c0.4,0.3,0.6,0.7,0.8,1.1c0.2,0.5,0.3,0.9,0.3,1.5h-4c0,0.3,0.1,0.6,0.2,0.8c0.2,0.2,0.4,0.4,0.6,0.6
	c0.3,0.1,0.5,0.2,0.8,0.2c0.4,0,0.8-0.1,1.1-0.2C26.7,54.9,26.9,54.8,27.1,54.7z M23.7,53h3c0-0.4-0.2-0.7-0.4-1
	c-0.2-0.3-0.6-0.4-1.1-0.4c-0.3,0-0.6,0.1-0.8,0.2c-0.2,0.1-0.4,0.3-0.5,0.5C23.8,52.5,23.7,52.8,23.7,53z M31.2,56v-4.3h-0.9v-0.8
	h0.9v-0.4c0-0.5,0.1-0.8,0.3-1.1c0.2-0.3,0.4-0.5,0.7-0.6c0.3-0.1,0.6-0.2,0.9-0.2c0.3,0,0.5,0,0.8,0.1s0.5,0.2,0.7,0.4L34,49.7
	c-0.3-0.2-0.6-0.3-0.9-0.3c-0.3,0-0.5,0.1-0.7,0.3s-0.3,0.5-0.3,0.9v0.3h1.5v0.8h-1.5V56H31.2z M37.5,56v-0.6
	c-0.2,0.2-0.4,0.4-0.8,0.6c-0.3,0.1-0.6,0.2-1,0.2c-0.3,0-0.6-0.1-0.8-0.2c-0.3-0.1-0.5-0.3-0.7-0.5s-0.3-0.5-0.3-0.9
	c0-0.5,0.2-1,0.6-1.3c0.4-0.3,0.9-0.5,1.7-0.5c0.2,0,0.3,0,0.5,0s0.3,0,0.5,0c0.1,0,0.2,0,0.3,0v-0.2c0-0.4-0.1-0.7-0.4-0.8
	c-0.2-0.2-0.5-0.3-0.9-0.3s-0.7,0.1-0.9,0.2c-0.2,0.1-0.4,0.2-0.6,0.3l-0.5-0.7c0.2-0.1,0.4-0.3,0.8-0.4c0.3-0.1,0.8-0.2,1.3-0.2
	c0.7,0,1.2,0.2,1.6,0.5c0.4,0.3,0.6,0.8,0.6,1.4v3c0,0.1,0,0.1,0,0.2s0,0.2,0,0.3L37.5,56L37.5,56z M37.5,54.2v-0.6c0,0-0.1,0-0.3,0
	c-0.1,0-0.3,0-0.5,0s-0.3,0-0.5,0c-0.4,0-0.6,0.1-0.8,0.2c-0.2,0.1-0.3,0.2-0.4,0.4c-0.1,0.2-0.1,0.3-0.1,0.5c0,0.3,0.1,0.5,0.3,0.6
	s0.5,0.2,0.8,0.2s0.5-0.1,0.7-0.2c0.2-0.1,0.4-0.3,0.5-0.5C37.4,54.6,37.5,54.4,37.5,54.2z M43.6,54.7l0.6,0.6
	c-0.2,0.3-0.5,0.5-0.8,0.6c-0.3,0.2-0.7,0.2-1.2,0.2c-0.6,0-1-0.1-1.4-0.4c-0.4-0.2-0.7-0.6-0.9-1s-0.3-0.9-0.3-1.4s0.1-1,0.3-1.4
	s0.5-0.7,0.9-1c0.4-0.2,0.9-0.4,1.4-0.4c0.4,0,0.8,0.1,1.1,0.2c0.3,0.2,0.6,0.4,0.8,0.6l-0.6,0.6c-0.2-0.2-0.3-0.3-0.6-0.5
	c-0.2-0.1-0.5-0.2-0.8-0.2c-0.4,0-0.7,0.1-0.9,0.3s-0.4,0.4-0.6,0.7c-0.1,0.3-0.2,0.6-0.2,0.9c0,0.3,0.1,0.6,0.2,0.9
	c0.1,0.3,0.3,0.5,0.6,0.7c0.2,0.2,0.5,0.3,0.9,0.3c0.3,0,0.6-0.1,0.8-0.2C43.2,55,43.4,54.8,43.6,54.7z M45.6,54.3v-2.6h-0.9v-0.8
	h0.9v-1.7h1v1.7h1.5v0.8h-1.5v2.5c0,0.4,0.1,0.7,0.2,0.8c0.1,0.2,0.3,0.2,0.6,0.2c0.2,0,0.3,0,0.5-0.1c0.1-0.1,0.3-0.1,0.4-0.3
	l0.5,0.6c-0.2,0.2-0.4,0.4-0.7,0.4c-0.2,0.1-0.5,0.1-0.8,0.1c-0.5,0-0.9-0.1-1.2-0.4C45.7,55.4,45.6,54.9,45.6,54.3z M51.5,56.2
	c-0.5,0-1-0.1-1.4-0.4c-0.4-0.2-0.7-0.6-1-1c-0.2-0.4-0.3-0.9-0.3-1.4s0.1-1,0.3-1.4s0.6-0.7,1-1c0.4-0.2,0.9-0.4,1.4-0.4
	s1,0.1,1.4,0.4c0.4,0.2,0.7,0.6,1,1c0.2,0.4,0.4,0.9,0.4,1.4s-0.1,0.9-0.4,1.4c-0.2,0.4-0.6,0.7-1,1C52.5,56,52,56.2,51.5,56.2z
	 M51.5,55.3c0.4,0,0.7-0.1,0.9-0.3c0.3-0.2,0.5-0.4,0.6-0.7s0.2-0.6,0.2-0.9s-0.1-0.6-0.2-0.9c-0.1-0.3-0.3-0.5-0.6-0.7
	s-0.6-0.3-0.9-0.3c-0.4,0-0.7,0.1-0.9,0.3c-0.3,0.2-0.5,0.4-0.6,0.7s-0.2,0.6-0.2,0.9c0,0.3,0.1,0.6,0.2,0.9
	c0.1,0.3,0.3,0.5,0.6,0.7C50.9,55.2,51.2,55.3,51.5,55.3z M56.3,56h-1v-4.6c0-0.1,0-0.1,0-0.2c0-0.1,0-0.2,0-0.3h0.9v0.8
	c0.1-0.1,0.2-0.2,0.3-0.4c0.1-0.1,0.3-0.3,0.5-0.4c0.2-0.1,0.5-0.2,0.8-0.2c0.1,0,0.2,0,0.3,0s0.2,0,0.3,0.1l-0.2,0.9
	c-0.1-0.1-0.3-0.1-0.5-0.1c-0.3,0-0.5,0.1-0.8,0.2c-0.2,0.1-0.4,0.3-0.5,0.6c-0.1,0.2-0.2,0.5-0.2,0.8V56H56.3z M61.8,54.3v-2.6
	h-0.9v-0.8h0.9v-1.7h1v1.7h1.5v0.8h-1.5v2.5c0,0.4,0.1,0.7,0.2,0.8c0.1,0.2,0.3,0.2,0.6,0.2c0.2,0,0.3,0,0.5-0.1
	c0.1-0.1,0.3-0.1,0.4-0.3l0.5,0.6c-0.2,0.2-0.4,0.4-0.7,0.4c-0.2,0.1-0.5,0.1-0.8,0.1c-0.5,0-0.9-0.1-1.2-0.4
	C61.9,55.4,61.8,54.9,61.8,54.3z M67.7,56.2c-0.5,0-1-0.1-1.4-0.4c-0.4-0.2-0.7-0.6-1-1c-0.2-0.4-0.3-0.9-0.3-1.4s0.1-1,0.3-1.4
	c0.2-0.4,0.6-0.7,1-1c0.4-0.2,0.9-0.4,1.4-0.4s1,0.1,1.4,0.4c0.4,0.2,0.7,0.6,1,1c0.2,0.4,0.4,0.9,0.4,1.4s-0.1,0.9-0.4,1.4
	c-0.2,0.4-0.6,0.7-1,1C68.7,56,68.2,56.2,67.7,56.2z M67.7,55.3c0.4,0,0.7-0.1,0.9-0.3c0.3-0.2,0.5-0.4,0.6-0.7s0.2-0.6,0.2-0.9
	s-0.1-0.6-0.2-0.9c-0.1-0.3-0.3-0.5-0.6-0.7c-0.3-0.2-0.6-0.3-0.9-0.3c-0.4,0-0.7,0.1-0.9,0.3c-0.3,0.2-0.5,0.4-0.6,0.7
	S66,53.1,66,53.4c0,0.3,0.1,0.6,0.2,0.9c0.1,0.3,0.3,0.5,0.6,0.7C67,55.2,67.4,55.3,67.7,55.3z M77.4,54.7l0.6,0.6
	c-0.2,0.3-0.5,0.5-0.8,0.6c-0.3,0.2-0.7,0.2-1.2,0.2s-1-0.1-1.4-0.4c-0.4-0.2-0.7-0.6-0.9-1c-0.2-0.4-0.3-0.9-0.3-1.4s0.1-1,0.3-1.4
	c0.2-0.4,0.5-0.7,0.9-1c0.4-0.2,0.9-0.4,1.4-0.4c0.4,0,0.8,0.1,1.1,0.2c0.3,0.2,0.6,0.4,0.8,0.6l-0.6,0.6c-0.2-0.2-0.3-0.3-0.6-0.5
	c-0.2-0.1-0.5-0.2-0.8-0.2c-0.4,0-0.7,0.1-0.9,0.3c-0.2,0.2-0.4,0.4-0.6,0.7c-0.1,0.3-0.2,0.6-0.2,0.9c0,0.3,0.1,0.6,0.2,0.9
	c0.1,0.3,0.3,0.5,0.6,0.7c0.2,0.2,0.6,0.3,0.9,0.3s0.6-0.1,0.8-0.2C77,55,77.2,54.8,77.4,54.7z M81.1,56.2c-0.5,0-1-0.1-1.4-0.4
	c-0.4-0.2-0.7-0.6-1-1c-0.2-0.4-0.3-0.9-0.3-1.4s0.1-1,0.3-1.4c0.2-0.4,0.6-0.7,1-1c0.4-0.2,0.9-0.4,1.4-0.4s1,0.1,1.4,0.4
	c0.4,0.2,0.7,0.6,1,1c0.2,0.4,0.4,0.9,0.4,1.4s-0.1,0.9-0.4,1.4c-0.2,0.4-0.6,0.7-1,1C82.1,56,81.6,56.2,81.1,56.2z M81.1,55.3
	c0.4,0,0.7-0.1,0.9-0.3c0.3-0.2,0.5-0.4,0.6-0.7s0.2-0.6,0.2-0.9s-0.1-0.6-0.2-0.9c-0.1-0.3-0.3-0.5-0.6-0.7
	c-0.3-0.2-0.6-0.3-0.9-0.3c-0.4,0-0.7,0.1-0.9,0.3c-0.3,0.2-0.5,0.4-0.6,0.7s-0.2,0.6-0.2,0.9c0,0.3,0.1,0.6,0.2,0.9
	c0.1,0.3,0.3,0.5,0.6,0.7C80.4,55.2,80.7,55.3,81.1,55.3z M85.9,56h-1v-4.6c0-0.1,0-0.1,0-0.2c0-0.1,0-0.2,0-0.3h0.9v0.8
	c0.1-0.1,0.2-0.3,0.4-0.4c0.1-0.1,0.3-0.3,0.6-0.4c0.2-0.1,0.5-0.2,0.8-0.2c0.7,0,1.2,0.2,1.5,0.6c0.3,0.4,0.5,0.9,0.5,1.6V56h-1v-3
	c0-0.5-0.1-0.8-0.3-1c-0.2-0.2-0.5-0.3-0.9-0.3s-0.7,0.1-0.9,0.3c-0.2,0.2-0.4,0.4-0.5,0.7s-0.1,0.6-0.1,1V56z M90.6,55.4l0.6-0.7
	c0.2,0.2,0.4,0.3,0.7,0.4c0.3,0.1,0.6,0.2,0.9,0.2s0.6-0.1,0.8-0.2c0.2-0.1,0.3-0.3,0.3-0.5s0-0.3-0.1-0.4c-0.1-0.1-0.2-0.2-0.5-0.3
	c-0.2-0.1-0.5-0.2-0.9-0.3c-0.3-0.1-0.5-0.2-0.8-0.3c-0.2-0.1-0.5-0.3-0.6-0.5c-0.2-0.2-0.2-0.5-0.2-0.8s0.1-0.6,0.3-0.8
	c0.2-0.2,0.5-0.4,0.8-0.5s0.6-0.2,1-0.2s0.8,0.1,1.1,0.2c0.3,0.1,0.6,0.3,0.8,0.5l-0.5,0.7c-0.2-0.1-0.3-0.3-0.6-0.4
	c-0.2-0.1-0.5-0.1-0.8-0.1s-0.6,0.1-0.8,0.2c-0.2,0.1-0.3,0.3-0.3,0.5s0.1,0.4,0.4,0.5s0.6,0.2,1,0.3c0.3,0.1,0.6,0.2,0.9,0.3
	s0.5,0.3,0.6,0.5c0.2,0.2,0.2,0.5,0.2,0.8s-0.1,0.6-0.3,0.9c-0.2,0.2-0.5,0.4-0.8,0.5s-0.7,0.2-1,0.2C91.9,56.2,91.1,55.9,90.6,55.4
	z M96.1,50v-1.1h1.1V50H96.1z M96.1,56v-5.1h1V56H96.1z M102.3,56v-0.6c-0.1,0.1-0.1,0.2-0.3,0.3c-0.1,0.1-0.3,0.3-0.5,0.4
	c-0.2,0.1-0.5,0.2-0.8,0.2c-0.4,0-0.8-0.1-1.2-0.3c-0.3-0.2-0.6-0.5-0.8-0.9c-0.2-0.4-0.3-0.9-0.3-1.4s0.1-0.9,0.2-1.2
	c0.2-0.4,0.4-0.6,0.6-0.9c0.3-0.2,0.5-0.4,0.8-0.5s0.6-0.2,0.9-0.2s0.5,0,0.7,0.1s0.4,0.1,0.6,0.2v-2.4h1v6.8c0,0,0,0.1,0,0.2
	c0,0.1,0,0.2,0,0.3L102.3,56L102.3,56z M102.2,53.8V52c-0.1-0.1-0.3-0.2-0.5-0.3s-0.5-0.1-0.7-0.1c-0.5,0-0.9,0.2-1.2,0.5
	c-0.3,0.3-0.5,0.8-0.5,1.4c0,0.3,0.1,0.6,0.2,0.9c0.1,0.3,0.3,0.5,0.5,0.6c0.2,0.2,0.5,0.2,0.8,0.2s0.6-0.1,0.8-0.2
	c0.2-0.2,0.4-0.4,0.5-0.6C102.2,54.3,102.2,54,102.2,53.8z M108.7,54.7l0.6,0.6c-0.1,0.1-0.2,0.2-0.4,0.4c-0.2,0.1-0.4,0.3-0.7,0.4
	c-0.3,0.1-0.7,0.2-1.1,0.2c-0.5,0-1-0.1-1.4-0.3s-0.7-0.6-0.9-1c-0.2-0.4-0.3-0.9-0.3-1.4s0.1-0.9,0.3-1.4c0.2-0.4,0.5-0.7,0.9-1
	c0.4-0.2,0.8-0.4,1.3-0.4c0.6,0,1.1,0.1,1.4,0.4c0.4,0.3,0.6,0.7,0.8,1.1c0.2,0.5,0.3,0.9,0.3,1.5h-4c0,0.3,0.1,0.6,0.2,0.8
	c0.2,0.2,0.4,0.4,0.6,0.6c0.3,0.1,0.5,0.2,0.8,0.2c0.4,0,0.8-0.1,1.1-0.2C108.4,54.9,108.6,54.8,108.7,54.7z M105.3,53h3
	c0-0.4-0.2-0.7-0.4-1c-0.2-0.3-0.6-0.4-1.1-0.4c-0.3,0-0.6,0.1-0.8,0.2c-0.2,0.1-0.4,0.3-0.5,0.5S105.4,52.8,105.3,53z M111.5,56h-1
	v-4.6c0-0.1,0-0.1,0-0.2c0-0.1,0-0.2,0-0.3h0.9v0.8c0.1-0.1,0.2-0.2,0.3-0.4c0.1-0.1,0.3-0.3,0.5-0.4c0.2-0.1,0.5-0.2,0.8-0.2
	c0.1,0,0.2,0,0.3,0c0.1,0,0.2,0,0.3,0.1l-0.2,0.9c-0.1-0.1-0.3-0.1-0.5-0.1c-0.3,0-0.5,0.1-0.8,0.2c-0.2,0.1-0.4,0.3-0.5,0.6
	c-0.1,0.2-0.2,0.5-0.2,0.8L111.5,56L111.5,56z M117.6,56l-1.7-5.1h1.1l1.1,3.9l1.2-3.9h0.8l1.2,3.9l1.1-3.9h1l-1.7,5.1h-1l-1.2-3.6
	l-1.2,3.6H117.6z M124.4,56v-7.3h1v3c0.1-0.1,0.2-0.3,0.3-0.4c0.1-0.1,0.3-0.3,0.6-0.4c0.2-0.1,0.5-0.1,0.8-0.1
	c0.7,0,1.2,0.2,1.5,0.6c0.3,0.4,0.5,0.9,0.5,1.6v3h-1v-3c0-0.5-0.1-0.8-0.3-1s-0.5-0.3-0.9-0.3s-0.7,0.1-0.9,0.3
	c-0.2,0.2-0.4,0.4-0.5,0.7s-0.1,0.6-0.1,1V56H124.4z M134.5,54.7l0.6,0.6c-0.1,0.1-0.2,0.2-0.4,0.4c-0.2,0.1-0.4,0.3-0.7,0.4
	c-0.3,0.1-0.7,0.2-1.1,0.2c-0.5,0-1-0.1-1.4-0.3s-0.7-0.6-0.9-1s-0.3-0.9-0.3-1.4s0.1-0.9,0.3-1.4c0.2-0.4,0.5-0.7,0.9-1
	c0.4-0.2,0.8-0.4,1.3-0.4c0.6,0,1.1,0.1,1.4,0.4c0.4,0.3,0.6,0.7,0.8,1.1c0.2,0.5,0.3,0.9,0.3,1.5h-4c0,0.3,0.1,0.6,0.2,0.8
	c0.2,0.2,0.4,0.4,0.6,0.6c0.3,0.1,0.5,0.2,0.8,0.2c0.4,0,0.8-0.1,1.1-0.2C134.2,54.9,134.4,54.8,134.5,54.7z M131.2,53h3
	c0-0.4-0.2-0.7-0.4-1s-0.6-0.4-1.1-0.4c-0.3,0-0.6,0.1-0.8,0.2c-0.2,0.1-0.4,0.3-0.5,0.5C131.2,52.5,131.2,52.8,131.2,53z M137.3,56
	h-1v-4.6c0-0.1,0-0.1,0-0.2c0-0.1,0-0.2,0-0.3h0.9v0.8c0.1-0.1,0.2-0.3,0.4-0.4c0.1-0.1,0.3-0.3,0.6-0.4c0.2-0.1,0.5-0.2,0.8-0.2
	c0.7,0,1.2,0.2,1.5,0.6c0.3,0.4,0.5,0.9,0.5,1.6V56h-1v-3c0-0.5-0.1-0.8-0.3-1s-0.5-0.3-0.9-0.3s-0.7,0.1-0.9,0.3s-0.4,0.4-0.5,0.7
	s-0.1,0.6-0.1,1V56z M14.5,65.7l0.6,0.6c-0.2,0.3-0.5,0.5-0.8,0.6c-0.3,0.2-0.7,0.2-1.2,0.2s-1-0.1-1.4-0.4c-0.4-0.2-0.7-0.6-0.9-1
	s-0.3-0.9-0.3-1.4s0.1-1,0.3-1.4s0.5-0.7,0.9-1c0.4-0.2,0.9-0.4,1.4-0.4c0.4,0,0.8,0.1,1.1,0.2s0.6,0.4,0.8,0.6l-0.6,0.6
	c-0.2-0.2-0.3-0.3-0.6-0.5c-0.2-0.1-0.5-0.2-0.8-0.2c-0.4,0-0.7,0.1-0.9,0.3s-0.4,0.4-0.6,0.7c-0.1,0.3-0.2,0.6-0.2,0.9
	s0.1,0.6,0.2,0.9c0.1,0.3,0.3,0.5,0.6,0.7c0.2,0.2,0.6,0.3,0.9,0.3c0.3,0,0.6-0.1,0.8-0.2C14.2,66,14.4,65.8,14.5,65.7z M16.1,67
	v-7.3h1v3c0.1-0.1,0.2-0.3,0.3-0.4c0.1-0.1,0.3-0.3,0.5-0.4c0.2-0.1,0.5-0.1,0.8-0.1c0.7,0,1.2,0.2,1.5,0.6c0.3,0.4,0.5,0.9,0.5,1.6
	v3h-1v-3c0-0.5-0.1-0.8-0.3-1c-0.2-0.2-0.5-0.3-0.9-0.3s-0.7,0.1-0.9,0.3c-0.2,0.2-0.4,0.4-0.5,0.7s-0.1,0.6-0.1,1V67H16.1z
	 M24.5,67.2c-0.5,0-1-0.1-1.4-0.4c-0.4-0.2-0.7-0.6-1-1c-0.2-0.4-0.3-0.9-0.3-1.4s0.1-1,0.3-1.4c0.2-0.4,0.6-0.7,1-1
	c0.4-0.2,0.9-0.4,1.4-0.4s1,0.1,1.4,0.4c0.4,0.2,0.7,0.6,1,1c0.2,0.4,0.4,0.9,0.4,1.4s-0.1,0.9-0.4,1.4c-0.2,0.4-0.6,0.7-1,1
	C25.5,67,25.1,67.2,24.5,67.2z M24.5,66.3c0.4,0,0.7-0.1,0.9-0.3c0.3-0.2,0.5-0.4,0.6-0.7c0.1-0.3,0.2-0.6,0.2-0.9s-0.1-0.6-0.2-0.9
	c-0.1-0.3-0.3-0.5-0.6-0.7c-0.3-0.2-0.6-0.3-0.9-0.3c-0.4,0-0.7,0.1-0.9,0.3c-0.3,0.2-0.5,0.4-0.6,0.7s-0.2,0.6-0.2,0.9
	s0.1,0.6,0.2,0.9s0.3,0.5,0.6,0.7C23.9,66.2,24.2,66.3,24.5,66.3z M30.8,67.2c-0.5,0-1-0.1-1.4-0.4c-0.4-0.2-0.7-0.6-1-1
	c-0.2-0.4-0.3-0.9-0.3-1.4s0.1-1,0.3-1.4c0.2-0.4,0.6-0.7,1-1c0.4-0.2,0.9-0.4,1.4-0.4s1,0.1,1.4,0.4c0.4,0.2,0.7,0.6,1,1
	c0.2,0.4,0.4,0.9,0.4,1.4s-0.1,0.9-0.4,1.4c-0.2,0.4-0.6,0.7-1,1C31.8,67,31.4,67.2,30.8,67.2z M30.8,66.3c0.4,0,0.7-0.1,0.9-0.3
	c0.3-0.2,0.5-0.4,0.6-0.7c0.1-0.3,0.2-0.6,0.2-0.9s-0.1-0.6-0.2-0.9c-0.1-0.3-0.3-0.5-0.6-0.7c-0.3-0.2-0.6-0.3-0.9-0.3
	s-0.7,0.1-0.9,0.3c-0.3,0.2-0.5,0.4-0.6,0.7s-0.2,0.6-0.2,0.9s0.1,0.6,0.2,0.9s0.3,0.5,0.6,0.7S30.5,66.3,30.8,66.3z M34.4,66.4
	l0.6-0.7c0.2,0.2,0.4,0.3,0.7,0.4s0.6,0.2,0.9,0.2c0.3,0,0.6-0.1,0.8-0.2s0.3-0.3,0.3-0.5s0-0.3-0.1-0.4s-0.2-0.2-0.5-0.3
	c-0.2-0.1-0.5-0.2-0.9-0.3c-0.3-0.1-0.5-0.2-0.8-0.3c-0.2-0.1-0.5-0.3-0.6-0.5c-0.2-0.2-0.2-0.5-0.2-0.8s0.1-0.6,0.3-0.8
	s0.5-0.4,0.8-0.5s0.6-0.2,1-0.2s0.8,0.1,1.1,0.2c0.3,0.1,0.6,0.3,0.8,0.5L38,63.1c-0.2-0.1-0.3-0.3-0.6-0.4
	c-0.2-0.1-0.5-0.1-0.8-0.1s-0.6,0.1-0.8,0.2s-0.3,0.3-0.3,0.5s0.1,0.4,0.4,0.5c0.3,0.1,0.6,0.2,1,0.3c0.3,0.1,0.6,0.2,0.9,0.3
	c0.3,0.1,0.5,0.3,0.6,0.5c0.2,0.2,0.2,0.5,0.2,0.8s-0.1,0.6-0.3,0.9c-0.2,0.2-0.5,0.4-0.8,0.5s-0.7,0.2-1,0.2
	C35.6,67.2,34.9,66.9,34.4,66.4z M39.8,61v-1.1h1.1V61H39.8z M39.9,67v-5.1h1V67H39.9z M43.3,67h-1v-4.6c0-0.1,0-0.1,0-0.2
	c0-0.1,0-0.2,0-0.3h0.9v0.8c0.1-0.1,0.2-0.3,0.4-0.4c0.1-0.1,0.3-0.3,0.6-0.4c0.2-0.1,0.5-0.2,0.8-0.2c0.7,0,1.2,0.2,1.5,0.6
	c0.3,0.4,0.5,0.9,0.5,1.6V67h-1v-3c0-0.5-0.1-0.8-0.3-1s-0.5-0.3-0.9-0.3s-0.7,0.1-0.9,0.3s-0.4,0.4-0.5,0.7s-0.1,0.6-0.1,1V67z
	 M48.5,68.8L49,68c0.2,0.1,0.4,0.2,0.6,0.3c0.2,0.1,0.5,0.1,0.9,0.1c0.5,0,0.9-0.1,1.1-0.4s0.4-0.6,0.4-1.1v-0.6
	c-0.1,0.1-0.2,0.1-0.3,0.3c-0.1,0.1-0.3,0.2-0.5,0.3C50.9,67,50.7,67,50.4,67c-0.5,0-0.9-0.1-1.3-0.3c-0.3-0.2-0.6-0.5-0.8-0.9
	C48.1,65.4,48,65,48,64.5s0.1-1,0.4-1.4c0.2-0.4,0.6-0.7,1-1c0.4-0.2,0.9-0.4,1.5-0.4c0.4,0,0.8,0,1.2,0.1S52.8,62,53,62v5
	c0,0.7-0.2,1.3-0.6,1.7c-0.4,0.4-1,0.6-1.8,0.6c-0.5,0-0.9-0.1-1.2-0.2S48.7,68.9,48.5,68.8z M52,64.9v-2.1c-0.1,0-0.2-0.1-0.3-0.1
	c-0.2,0-0.4-0.1-0.7-0.1c-0.4,0-0.7,0.1-1,0.2c-0.3,0.2-0.5,0.4-0.7,0.6c-0.2,0.3-0.2,0.6-0.2,1c0,0.3,0,0.6,0.1,0.8
	c0.1,0.3,0.3,0.5,0.5,0.6c0.2,0.2,0.5,0.2,0.8,0.2s0.6-0.1,0.8-0.2s0.4-0.3,0.5-0.5C51.9,65.3,52,65.1,52,64.9z M59.5,67v-0.6
	c-0.2,0.2-0.4,0.4-0.8,0.6c-0.3,0.1-0.6,0.2-1,0.2c-0.3,0-0.6-0.1-0.8-0.2c-0.3-0.1-0.5-0.3-0.7-0.5s-0.3-0.5-0.3-0.9
	c0-0.5,0.2-1,0.6-1.3c0.4-0.3,0.9-0.5,1.7-0.5c0.2,0,0.3,0,0.5,0s0.3,0,0.5,0c0.1,0,0.2,0,0.3,0v-0.2c0-0.4-0.1-0.7-0.4-0.8
	c-0.2-0.2-0.5-0.3-0.9-0.3s-0.7,0.1-0.9,0.2c-0.2,0.1-0.4,0.2-0.6,0.3l-0.5-0.7c0.2-0.1,0.4-0.3,0.8-0.4c0.3-0.1,0.8-0.2,1.3-0.2
	c0.7,0,1.2,0.2,1.6,0.5c0.4,0.3,0.6,0.8,0.6,1.4v3c0,0.1,0,0.1,0,0.2s0,0.2,0,0.3L59.5,67L59.5,67z M59.5,65.2v-0.6c0,0-0.1,0-0.3,0
	c-0.1,0-0.3,0-0.5,0s-0.3,0-0.5,0c-0.4,0-0.6,0.1-0.8,0.2S57.1,65,57,65.2c0,0,0,0.2,0,0.3c0,0.3,0.1,0.5,0.3,0.6s0.5,0.2,0.8,0.2
	s0.5-0.1,0.7-0.2s0.4-0.3,0.5-0.5C59.4,65.6,59.5,65.4,59.5,65.2z M63.5,66.4l0.6-0.7c0.2,0.2,0.4,0.3,0.7,0.4
	c0.3,0.1,0.6,0.2,0.9,0.2s0.6-0.1,0.8-0.2c0.2-0.1,0.3-0.3,0.3-0.5s0-0.3-0.1-0.4s-0.2-0.2-0.5-0.3c-0.2-0.1-0.5-0.2-0.9-0.3
	c-0.3-0.1-0.5-0.2-0.8-0.3c-0.2-0.1-0.5-0.3-0.6-0.5c-0.2-0.2-0.2-0.5-0.2-0.8s0.1-0.6,0.3-0.8c0.2-0.2,0.5-0.4,0.8-0.5
	s0.6-0.2,1-0.2s0.8,0.1,1.1,0.2c0.3,0.1,0.6,0.3,0.8,0.5l-0.5,0.7c-0.2-0.1-0.3-0.3-0.6-0.4c-0.2-0.1-0.5-0.1-0.8-0.1
	s-0.6,0.1-0.8,0.2c-0.2,0.1-0.3,0.3-0.3,0.5s0.1,0.4,0.4,0.5s0.6,0.2,1,0.3c0.3,0.1,0.6,0.2,0.9,0.3s0.5,0.3,0.6,0.5
	c0.2,0.2,0.2,0.5,0.2,0.8s-0.1,0.6-0.3,0.9c-0.2,0.2-0.5,0.4-0.8,0.5s-0.7,0.2-1,0.2C64.7,67.2,64,66.9,63.5,66.4z M68.9,65v-3.1h1
	v3c0,0.5,0.1,0.8,0.3,1s0.5,0.3,0.9,0.3s0.7-0.1,0.9-0.3c0.2-0.2,0.4-0.4,0.5-0.7c0.1-0.3,0.1-0.6,0.1-1v-2.4h1v4.6c0,0,0,0.1,0,0.2
	s0,0.2,0,0.3h-0.9v-0.8c-0.1,0.1-0.2,0.2-0.3,0.4c-0.1,0.1-0.3,0.2-0.6,0.3c-0.2,0.1-0.5,0.1-0.8,0.1c-0.7,0-1.2-0.2-1.5-0.6
	C69.1,66.1,68.9,65.6,68.9,65z M75.9,69.2h-1v-6.8c0-0.1,0-0.1,0-0.2c0-0.1,0-0.2,0-0.3h0.9v0.7c0.1-0.1,0.2-0.2,0.3-0.3
	c0.1-0.1,0.3-0.2,0.6-0.4c0.2-0.1,0.5-0.2,0.8-0.2c0.5,0,1,0.1,1.3,0.4c0.3,0.2,0.6,0.6,0.8,1c0.2,0.4,0.3,0.9,0.3,1.3
	c0,0.5-0.1,0.9-0.2,1.2c-0.2,0.3-0.4,0.6-0.6,0.8c-0.3,0.2-0.5,0.4-0.8,0.5s-0.6,0.2-0.9,0.2s-0.6,0-0.8-0.1
	c-0.2-0.1-0.4-0.1-0.6-0.2v2.4H75.9z M75.9,64.6v1.3c0.1,0.1,0.3,0.2,0.5,0.3c0.2,0.1,0.5,0.1,0.8,0.1s0.6-0.1,0.9-0.2
	c0.3-0.2,0.5-0.4,0.6-0.7c0.1-0.3,0.2-0.6,0.2-0.9s-0.1-0.6-0.2-0.9c-0.1-0.3-0.3-0.5-0.5-0.7s-0.5-0.3-0.9-0.3
	c-0.3,0-0.6,0.1-0.9,0.3c-0.2,0.2-0.4,0.5-0.5,0.8c0,0.1-0.1,0.2-0.1,0.4C75.9,64.3,75.9,64.4,75.9,64.6z M85.1,65.7l0.6,0.6
	c-0.1,0.1-0.2,0.2-0.4,0.4c-0.2,0.1-0.4,0.3-0.7,0.4c-0.3,0.1-0.7,0.2-1.1,0.2c-0.5,0-1-0.1-1.4-0.3c-0.4-0.2-0.7-0.6-0.9-1
	c-0.2-0.4-0.3-0.9-0.3-1.4s0.1-0.9,0.3-1.4c0.2-0.4,0.5-0.7,0.9-1c0.4-0.2,0.8-0.4,1.3-0.4c0.6,0,1.1,0.1,1.4,0.4
	c0.4,0.3,0.6,0.7,0.8,1.1c0.2,0.5,0.3,0.9,0.3,1.5h-4c0,0.3,0.1,0.6,0.2,0.8c0.2,0.2,0.4,0.4,0.6,0.6c0.3,0.1,0.5,0.2,0.8,0.2
	c0.4,0,0.8-0.1,1.1-0.2C84.8,65.9,85,65.8,85.1,65.7z M81.8,64h3c0-0.4-0.2-0.7-0.4-1c-0.2-0.3-0.6-0.4-1.1-0.4
	c-0.3,0-0.6,0.1-0.8,0.2c-0.2,0.1-0.4,0.3-0.5,0.5S81.8,63.8,81.8,64z M87.9,67h-1v-4.6c0-0.1,0-0.1,0-0.2c0-0.1,0-0.2,0-0.3h0.9
	v0.8c0.1-0.1,0.2-0.2,0.3-0.4c0.1-0.1,0.3-0.3,0.6-0.4c0.2-0.1,0.5-0.2,0.8-0.2c0.1,0,0.2,0,0.3,0c0.1,0,0.2,0,0.3,0.1l-0.2,0.9
	c-0.1-0.1-0.3-0.1-0.5-0.1c-0.3,0-0.5,0.1-0.8,0.2c-0.2,0.1-0.4,0.3-0.5,0.6c-0.1,0.2-0.2,0.5-0.2,0.8L87.9,67L87.9,67z M93.3,67
	v-4.3h-0.9v-0.8h0.9v-0.4c0-0.5,0.1-0.8,0.3-1.1c0.2-0.3,0.4-0.5,0.7-0.6c0.3-0.1,0.6-0.2,0.9-0.2s0.5,0,0.8,0.1s0.5,0.2,0.7,0.4
	l-0.5,0.6c-0.3-0.2-0.6-0.3-0.9-0.3s-0.5,0.1-0.7,0.3s-0.3,0.5-0.3,0.9v0.3h1.5v0.8h-1.5V67H93.3z M96.5,65v-3.1h1v3
	c0,0.5,0.1,0.8,0.3,1s0.5,0.3,0.9,0.3s0.7-0.1,0.9-0.3c0.2-0.2,0.4-0.4,0.5-0.7c0.1-0.3,0.1-0.6,0.1-1v-2.4h1v4.6c0,0,0,0.1,0,0.2
	s0,0.2,0,0.3h-0.9v-0.8c-0.1,0.1-0.2,0.2-0.3,0.4c-0.1,0.1-0.3,0.2-0.6,0.3c-0.2,0.1-0.5,0.1-0.8,0.1c-0.7,0-1.2-0.2-1.5-0.6
	S96.5,65.6,96.5,65z M103.5,67h-1v-4.6c0-0.1,0-0.1,0-0.2c0-0.1,0-0.2,0-0.3h0.9v0.8c0.1-0.1,0.2-0.3,0.4-0.4
	c0.1-0.1,0.3-0.3,0.6-0.4c0.2-0.1,0.5-0.2,0.8-0.2c0.7,0,1.2,0.2,1.5,0.6c0.3,0.4,0.5,0.9,0.5,1.6V67h-1v-3c0-0.5-0.1-0.8-0.3-1
	c-0.2-0.2-0.5-0.3-0.9-0.3s-0.7,0.1-0.9,0.3c-0.2,0.2-0.4,0.4-0.5,0.7s-0.1,0.6-0.1,1V67z M112.2,67v-0.6c-0.1,0.1-0.1,0.2-0.3,0.3
	c-0.1,0.1-0.3,0.3-0.5,0.4s-0.5,0.2-0.8,0.2c-0.4,0-0.8-0.1-1.2-0.3c-0.3-0.2-0.6-0.5-0.8-0.9c-0.2-0.4-0.3-0.9-0.3-1.4
	s0.1-0.9,0.2-1.2c0.2-0.4,0.4-0.6,0.6-0.9c0.3-0.2,0.5-0.4,0.8-0.5s0.6-0.2,0.9-0.2s0.5,0,0.7,0.1s0.4,0.1,0.6,0.2v-2.4h1v6.8
	c0,0,0,0.1,0,0.2s0,0.2,0,0.3L112.2,67L112.2,67z M112.2,64.8V63c-0.1-0.1-0.3-0.2-0.5-0.3s-0.5-0.1-0.7-0.1c-0.5,0-0.9,0.2-1.2,0.5
	c-0.3,0.3-0.5,0.8-0.5,1.4c0,0.3,0.1,0.6,0.2,0.9s0.3,0.5,0.5,0.6c0.2,0.2,0.5,0.2,0.8,0.2s0.6-0.1,0.8-0.2c0.2-0.2,0.4-0.4,0.5-0.6
	C112.1,65.3,112.2,65,112.2,64.8z M114.7,67v-1.2h1.2V67H114.7z M121.6,67l-2.8-7.3h1.2l2.2,6l2.2-6h1.1l-2.8,7.3H121.6z M126.3,61
	v-1.1h1.1V61H126.3z M126.4,67v-5.1h1V67H126.4z M128.5,66.4l0.6-0.7c0.2,0.2,0.4,0.3,0.7,0.4s0.6,0.2,0.9,0.2
	c0.3,0,0.6-0.1,0.8-0.2s0.3-0.3,0.3-0.5s0-0.3-0.1-0.4s-0.2-0.2-0.5-0.3c-0.2-0.1-0.5-0.2-0.9-0.3c-0.3-0.1-0.5-0.2-0.8-0.3
	c-0.2-0.1-0.5-0.3-0.6-0.5c-0.2-0.2-0.2-0.5-0.2-0.8s0.1-0.6,0.3-0.8s0.5-0.4,0.8-0.5s0.6-0.2,1-0.2s0.8,0.1,1.1,0.2
	c0.3,0.1,0.6,0.3,0.8,0.5l-0.5,0.7c-0.2-0.1-0.3-0.3-0.6-0.4c-0.2-0.1-0.5-0.1-0.8-0.1s-0.6,0.1-0.8,0.2s-0.3,0.3-0.3,0.5
	s0.1,0.4,0.4,0.5c0.3,0.1,0.6,0.2,1,0.3c0.3,0.1,0.6,0.2,0.9,0.3c0.3,0.1,0.5,0.3,0.6,0.5c0.2,0.2,0.2,0.5,0.2,0.8s-0.1,0.6-0.3,0.9
	c-0.2,0.2-0.5,0.4-0.8,0.5s-0.7,0.2-1,0.2C129.7,67.2,129,66.9,128.5,66.4z M134,61v-1.1h1.1V61H134z M134,67v-5.1h1V67H134z
	 M136.9,65.3v-2.6H136v-0.8h0.9v-1.7h1v1.7h1.5v0.8h-1.5v2.5c0,0.4,0.1,0.7,0.2,0.8c0.1,0.2,0.3,0.2,0.6,0.2c0.2,0,0.3,0,0.5-0.1
	c0.1-0.1,0.3-0.1,0.4-0.3l0.5,0.6c-0.2,0.2-0.4,0.4-0.7,0.4c-0.2,0.1-0.5,0.1-0.8,0.1c-0.5,0-0.9-0.1-1.2-0.4
	C137,66.4,136.9,65.9,136.9,65.3z M10.7,78v-7.3h1v3c0.1-0.1,0.2-0.3,0.3-0.4s0.3-0.3,0.6-0.4c0.2-0.1,0.5-0.1,0.8-0.1
	c0.7,0,1.2,0.2,1.5,0.6s0.5,0.9,0.5,1.6v3h-1v-3c0-0.5-0.1-0.8-0.3-1s-0.5-0.3-0.9-0.3s-0.7,0.1-0.9,0.3c-0.2,0.2-0.4,0.4-0.5,0.7
	c-0.1,0.3-0.1,0.6-0.1,1V78H10.7z M19.1,78.2c-0.5,0-1-0.1-1.4-0.4c-0.4-0.2-0.7-0.6-1-1c-0.2-0.4-0.3-0.9-0.3-1.4s0.1-1,0.3-1.4
	c0.2-0.4,0.6-0.7,1-1c0.4-0.2,0.9-0.4,1.4-0.4s1,0.1,1.4,0.4c0.4,0.2,0.7,0.6,1,1c0.2,0.4,0.4,0.9,0.4,1.4s-0.1,0.9-0.4,1.4
	c-0.2,0.4-0.6,0.7-1,1C20.1,78,19.6,78.2,19.1,78.2z M19.1,77.3c0.4,0,0.7-0.1,0.9-0.3c0.3-0.2,0.5-0.4,0.6-0.7
	c0.1-0.3,0.2-0.6,0.2-0.9s-0.1-0.6-0.2-0.9S20.3,74,20,73.8c-0.3-0.2-0.6-0.3-0.9-0.3s-0.7,0.1-0.9,0.3c-0.3,0.2-0.5,0.4-0.6,0.7
	c-0.1,0.3-0.2,0.6-0.2,0.9s0.1,0.6,0.2,0.9s0.3,0.5,0.6,0.7C18.5,77.2,18.8,77.3,19.1,77.3z M22.7,77.4l0.6-0.7
	c0.2,0.2,0.4,0.3,0.7,0.4c0.3,0.1,0.6,0.2,0.9,0.2s0.6-0.1,0.8-0.2c0.2-0.1,0.3-0.3,0.3-0.5s0-0.3-0.1-0.4s-0.2-0.2-0.5-0.3
	c-0.2-0.1-0.5-0.2-0.9-0.3c-0.3-0.1-0.5-0.2-0.8-0.3c-0.2-0.1-0.5-0.3-0.6-0.5c-0.2-0.2-0.2-0.5-0.2-0.8s0.1-0.6,0.3-0.8
	c0.2-0.2,0.5-0.4,0.8-0.5s0.6-0.2,1-0.2s0.8,0.1,1.1,0.2c0.3,0.1,0.6,0.3,0.8,0.5l-0.5,0.7c-0.2-0.1-0.3-0.3-0.6-0.4
	c-0.2-0.1-0.5-0.1-0.8-0.1s-0.6,0.1-0.8,0.2c-0.2,0.1-0.3,0.3-0.3,0.5s0.1,0.4,0.4,0.5s0.6,0.2,1,0.3c0.3,0.1,0.6,0.2,0.9,0.3
	c0.3,0.1,0.5,0.3,0.6,0.5c0.2,0.2,0.2,0.5,0.2,0.8s-0.1,0.6-0.3,0.9c-0.2,0.2-0.5,0.4-0.8,0.5s-0.7,0.2-1,0.2
	C23.9,78.2,23.2,77.9,22.7,77.4z M28.6,76.3v-2.6h-0.9v-0.8h0.9v-1.7h1v1.7h1.5v0.8h-1.5v2.5c0,0.4,0.1,0.7,0.2,0.8
	c0.1,0.2,0.3,0.2,0.5,0.2s0.3,0,0.5-0.1c0.1-0.1,0.3-0.1,0.4-0.3l0.5,0.6c-0.2,0.2-0.4,0.4-0.7,0.4c-0.2,0.1-0.5,0.1-0.8,0.1
	c-0.5,0-0.9-0.1-1.2-0.4C28.7,77.4,28.6,76.9,28.6,76.3z M33.3,80.2h-1v-6.8c0-0.1,0-0.1,0-0.2s0-0.2,0-0.3h0.9v0.7
	c0.1-0.1,0.2-0.2,0.3-0.3c0.1-0.1,0.3-0.2,0.6-0.4c0.2-0.1,0.5-0.2,0.8-0.2c0.5,0,1,0.1,1.3,0.4c0.3,0.2,0.6,0.6,0.8,1
	s0.3,0.9,0.3,1.3c0,0.5-0.1,0.9-0.2,1.2c-0.2,0.3-0.4,0.6-0.6,0.8c-0.3,0.2-0.5,0.4-0.8,0.5s-0.6,0.2-0.9,0.2c-0.3,0-0.6,0-0.8-0.1
	s-0.4-0.1-0.6-0.2L33.3,80.2L33.3,80.2z M33.3,75.6v1.3c0.1,0.1,0.3,0.2,0.5,0.3c0.2,0.1,0.5,0.1,0.8,0.1s0.6-0.1,0.9-0.2
	c0.3-0.2,0.5-0.4,0.6-0.7c0.1-0.3,0.2-0.6,0.2-0.9s-0.1-0.6-0.2-0.9c-0.1-0.3-0.3-0.5-0.5-0.7s-0.5-0.3-0.9-0.3
	c-0.3,0-0.6,0.1-0.9,0.3c-0.2,0.2-0.4,0.5-0.5,0.8c0,0.1-0.1,0.2-0.1,0.4C33.3,75.3,33.3,75.4,33.3,75.6z M38.5,78v-7.3h1V78H38.5z
	 M40.8,76v-3.1h1v3c0,0.5,0.1,0.8,0.3,1s0.5,0.3,0.9,0.3s0.7-0.1,0.9-0.3c0.2-0.2,0.4-0.4,0.5-0.7c0.1-0.3,0.1-0.6,0.1-1v-2.4h1v4.6
	c0,0,0,0.1,0,0.2s0,0.2,0,0.3h-0.9v-0.8c-0.1,0.1-0.2,0.2-0.3,0.4c-0.1,0.1-0.3,0.2-0.6,0.3c-0.2,0.1-0.5,0.1-0.8,0.1
	c-0.7,0-1.2-0.2-1.5-0.6C40.9,77.1,40.8,76.6,40.8,76z M46.5,77.4l0.6-0.7c0.2,0.2,0.4,0.3,0.7,0.4s0.6,0.2,0.9,0.2
	c0.3,0,0.6-0.1,0.8-0.2s0.3-0.3,0.3-0.5s0-0.3-0.1-0.4s-0.2-0.2-0.5-0.3c-0.2-0.1-0.5-0.2-0.9-0.3c-0.3-0.1-0.5-0.2-0.8-0.3
	c-0.2-0.1-0.5-0.3-0.6-0.5c-0.2-0.2-0.2-0.5-0.2-0.8s0.1-0.6,0.3-0.8c0.2-0.2,0.5-0.4,0.8-0.5s0.6-0.2,1-0.2s0.8,0.1,1.1,0.2
	s0.6,0.3,0.8,0.5l-0.5,0.7c-0.2-0.1-0.3-0.3-0.6-0.4c-0.2-0.1-0.5-0.1-0.8-0.1s-0.6,0.1-0.8,0.2s-0.3,0.3-0.3,0.5s0.1,0.4,0.4,0.5
	c0.3,0.1,0.6,0.2,1,0.3c0.3,0.1,0.6,0.2,0.9,0.3c0.3,0.1,0.5,0.3,0.6,0.5c0.2,0.2,0.2,0.5,0.2,0.8s-0.1,0.6-0.3,0.9
	c-0.2,0.2-0.5,0.4-0.8,0.5s-0.7,0.2-1,0.2C47.7,78.2,47,77.9,46.5,77.4z M51.8,78v-1.2H53V78H51.8z M58,76.7l0.6,0.6
	c-0.2,0.3-0.5,0.5-0.8,0.6c-0.3,0.2-0.7,0.2-1.2,0.2s-1-0.1-1.4-0.4c-0.4-0.2-0.7-0.6-0.9-1S54,75.8,54,75.3s0.1-1,0.3-1.4
	s0.5-0.7,0.9-1c0.4-0.2,0.9-0.4,1.4-0.4c0.4,0,0.8,0.1,1.1,0.2c0.3,0.2,0.6,0.4,0.8,0.6l-0.6,0.6c-0.2-0.2-0.3-0.3-0.6-0.5
	c-0.2-0.1-0.5-0.2-0.8-0.2c-0.4,0-0.7,0.1-0.9,0.3c-0.2,0.2-0.4,0.4-0.6,0.7c-0.1,0.3-0.2,0.6-0.2,0.9s0.1,0.6,0.2,0.9
	c0.1,0.3,0.3,0.5,0.6,0.7c0.2,0.2,0.6,0.3,0.9,0.3c0.3,0,0.6-0.1,0.8-0.2C57.6,77,57.8,76.8,58,76.7z M61.7,78.2
	c-0.5,0-1-0.1-1.4-0.4c-0.4-0.2-0.7-0.6-1-1c-0.2-0.4-0.3-0.9-0.3-1.4s0.1-1,0.3-1.4s0.6-0.7,1-1c0.4-0.2,0.9-0.4,1.4-0.4
	s1,0.1,1.4,0.4c0.4,0.2,0.7,0.6,1,1c0.2,0.4,0.4,0.9,0.4,1.4s-0.1,0.9-0.4,1.4c-0.2,0.4-0.6,0.7-1,1C62.7,78,62.2,78.2,61.7,78.2z
	 M61.7,77.3c0.4,0,0.7-0.1,0.9-0.3c0.3-0.2,0.5-0.4,0.6-0.7c0.1-0.3,0.2-0.6,0.2-0.9s-0.1-0.6-0.2-0.9c-0.1-0.3-0.3-0.5-0.6-0.7
	s-0.6-0.3-0.9-0.3s-0.7,0.1-0.9,0.3c-0.3,0.2-0.5,0.4-0.6,0.7c-0.1,0.3-0.2,0.6-0.2,0.9s0.1,0.6,0.2,0.9c0.1,0.3,0.3,0.5,0.6,0.7
	C61,77.2,61.3,77.3,61.7,77.3z M66.5,78h-1v-4.6c0-0.1,0-0.1,0-0.2s0-0.2,0-0.3h0.9v0.8c0.1-0.1,0.2-0.3,0.3-0.4
	c0.1-0.1,0.3-0.3,0.5-0.4s0.5-0.2,0.8-0.2c0.4,0,0.7,0.1,1,0.2c0.3,0.2,0.5,0.4,0.6,0.7c0.2-0.2,0.5-0.5,0.8-0.6
	c0.3-0.2,0.7-0.3,1.1-0.3c0.7,0,1.1,0.2,1.5,0.6c0.3,0.4,0.5,0.9,0.5,1.6V78h-1v-3c0-0.9-0.4-1.4-1.1-1.4c-0.3,0-0.5,0.1-0.7,0.2
	s-0.4,0.3-0.5,0.6c-0.1,0.2-0.2,0.5-0.2,0.8V78h-1v-3c0-0.5-0.1-0.8-0.3-1c-0.2-0.2-0.5-0.3-0.8-0.3c-0.4,0-0.6,0.1-0.9,0.3
	c-0.2,0.2-0.4,0.5-0.5,0.8s-0.1,0.6-0.1,0.9L66.5,78L66.5,78z M75,78v-1.2h1.2V78H75z M80.9,78v-0.6c-0.2,0.2-0.4,0.4-0.8,0.6
	c-0.3,0.1-0.6,0.2-1,0.2c-0.3,0-0.6-0.1-0.8-0.2c-0.3-0.1-0.5-0.3-0.7-0.5s-0.3-0.5-0.3-0.9c0-0.5,0.2-1,0.6-1.3s0.9-0.5,1.7-0.5
	c0.2,0,0.3,0,0.5,0s0.3,0,0.5,0c0.1,0,0.2,0,0.3,0v-0.2c0-0.4-0.1-0.7-0.4-0.8c-0.2-0.2-0.5-0.3-0.9-0.3s-0.7,0.1-0.9,0.2
	c-0.2,0.1-0.4,0.2-0.6,0.3l-0.5-0.7c0.2-0.1,0.4-0.3,0.8-0.4c0.3-0.1,0.8-0.2,1.3-0.2c0.7,0,1.2,0.2,1.6,0.5s0.6,0.8,0.6,1.4v3
	c0,0.1,0,0.1,0,0.2s0,0.2,0,0.3L80.9,78L80.9,78z M80.9,76.2v-0.6c0,0-0.1,0-0.3,0c-0.1,0-0.3,0-0.5,0s-0.3,0-0.5,0
	c-0.4,0-0.6,0.1-0.8,0.2c-0.2,0.1-0.3,0.2-0.4,0.4c-0.1,0.2-0.1,0.3-0.1,0.5c0,0.3,0.1,0.5,0.3,0.6c0.2,0.1,0.5,0.2,0.8,0.2
	s0.5-0.1,0.7-0.2s0.4-0.3,0.5-0.5C80.8,76.6,80.9,76.4,80.9,76.2z M83.1,76v-3.1h1v3c0,0.5,0.1,0.8,0.3,1c0.2,0.2,0.5,0.3,0.9,0.3
	s0.7-0.1,0.9-0.3c0.2-0.2,0.4-0.4,0.5-0.7c0.1-0.3,0.1-0.6,0.1-1v-2.4h1v4.6c0,0,0,0.1,0,0.2s0,0.2,0,0.3h-0.9v-0.8
	c-0.1,0.1-0.2,0.2-0.3,0.4c-0.1,0.1-0.3,0.2-0.6,0.3c-0.2,0.1-0.5,0.1-0.8,0.1c-0.7,0-1.2-0.2-1.5-0.6C83.3,77.1,83.1,76.6,83.1,76z
	 M88.7,78.2l2.9-7.7h1l-2.9,7.7H88.7z M95.8,78v-0.6c-0.2,0.2-0.4,0.4-0.8,0.6c-0.3,0.1-0.6,0.2-1,0.2c-0.3,0-0.6-0.1-0.8-0.2
	c-0.3-0.1-0.5-0.3-0.7-0.5s-0.3-0.5-0.3-0.9c0-0.5,0.2-1,0.6-1.3s0.9-0.5,1.7-0.5c0.2,0,0.3,0,0.5,0s0.3,0,0.5,0c0.1,0,0.2,0,0.3,0
	v-0.2c0-0.4-0.1-0.7-0.4-0.8c-0.2-0.2-0.5-0.3-0.9-0.3s-0.7,0.1-0.9,0.2c-0.2,0.1-0.4,0.2-0.6,0.3l-0.5-0.7c0.2-0.1,0.4-0.3,0.8-0.4
	c0.3-0.1,0.8-0.2,1.3-0.2c0.7,0,1.2,0.2,1.6,0.5s0.6,0.8,0.6,1.4v3c0,0.1,0,0.1,0,0.2s0,0.2,0,0.3L95.8,78L95.8,78z M95.8,76.2v-0.6
	c0,0-0.1,0-0.3,0c-0.1,0-0.3,0-0.5,0s-0.3,0-0.5,0c-0.4,0-0.6,0.1-0.8,0.2c-0.2,0.1-0.3,0.2-0.4,0.4c-0.1,0.2-0.1,0.3-0.1,0.5
	c0,0.3,0.1,0.5,0.3,0.6c0.2,0.1,0.5,0.2,0.8,0.2s0.5-0.1,0.7-0.2s0.4-0.3,0.5-0.5C95.7,76.6,95.8,76.4,95.8,76.2z M99.1,78l-1.7-5.1
	h1.1l1.1,3.9l1.2-3.9h0.8l1.2,3.9l1.1-3.9h1l-1.7,5.1h-1l-1.2-3.6l-1,3.6H99.1z M109.1,78v-0.6c-0.2,0.2-0.4,0.4-0.8,0.6
	c-0.3,0.1-0.6,0.2-1,0.2c-0.3,0-0.6-0.1-0.8-0.2c-0.3-0.1-0.5-0.3-0.7-0.5s-0.3-0.5-0.3-0.9c0-0.5,0.2-1,0.6-1.3s0.9-0.5,1.7-0.5
	c0.2,0,0.3,0,0.5,0s0.3,0,0.5,0c0.1,0,0.2,0,0.3,0v-0.2c0-0.4-0.1-0.7-0.4-0.8c-0.2-0.2-0.5-0.3-0.9-0.3s-0.7,0.1-0.9,0.2
	c-0.2,0.1-0.4,0.2-0.6,0.3l-0.5-0.7c0.2-0.1,0.4-0.3,0.8-0.4c0.3-0.1,0.8-0.2,1.3-0.2c0.7,0,1.2,0.2,1.6,0.5s0.6,0.8,0.6,1.4v3
	c0,0.1,0,0.1,0,0.2s0,0.2,0,0.3L109.1,78L109.1,78z M109.1,76.2v-0.6c0,0-0.1,0-0.3,0c-0.1,0-0.3,0-0.5,0s-0.3,0-0.5,0
	c-0.4,0-0.6,0.1-0.8,0.2c-0.2,0.1-0.3,0.2-0.4,0.4c-0.1,0.2-0.1,0.3-0.1,0.5c0,0.3,0.1,0.5,0.3,0.6c0.2,0.1,0.5,0.2,0.8,0.2
	s0.5-0.1,0.7-0.2s0.4-0.3,0.5-0.5C109,76.6,109.1,76.4,109.1,76.2z M112.3,78h-1v-4.6c0-0.1,0-0.1,0-0.2s0-0.2,0-0.3h0.9v0.8
	c0.1-0.1,0.2-0.2,0.3-0.4c0.1-0.1,0.3-0.3,0.6-0.4s0.5-0.2,0.8-0.2c0.1,0,0.2,0,0.3,0c0.1,0,0.2,0,0.3,0.1l-0.2,0.9
	c-0.1-0.1-0.3-0.1-0.5-0.1c-0.3,0-0.5,0.1-0.8,0.2c-0.2,0.1-0.4,0.3-0.5,0.6c-0.1,0.2-0.2,0.5-0.2,0.8L112.3,78L112.3,78z M118.8,78
	v-0.6c-0.1,0.1-0.1,0.2-0.3,0.3c-0.1,0.1-0.3,0.3-0.5,0.4s-0.5,0.2-0.8,0.2c-0.4,0-0.8-0.1-1.2-0.3c-0.3-0.2-0.6-0.5-0.8-0.9
	c-0.2-0.4-0.3-0.9-0.3-1.4s0.1-0.9,0.2-1.2c0.2-0.4,0.4-0.6,0.6-0.9s0.5-0.4,0.8-0.5s0.6-0.2,0.9-0.2s0.5,0,0.7,0.1s0.4,0.1,0.6,0.2
	v-2.4h1v6.8c0,0,0,0.1,0,0.2s0,0.2,0,0.3L118.8,78L118.8,78z M118.8,75.8V74c-0.1-0.1-0.3-0.2-0.5-0.3c-0.2-0.1-0.5-0.1-0.7-0.1
	c-0.5,0-0.9,0.2-1.2,0.5c-0.3,0.3-0.5,0.8-0.5,1.4c0,0.3,0.1,0.6,0.2,0.9s0.3,0.5,0.5,0.6c0.2,0.2,0.5,0.2,0.8,0.2s0.6-0.1,0.8-0.2
	c0.2-0.2,0.4-0.4,0.5-0.6C118.7,76.3,118.8,76,118.8,75.8z M120.9,77.4l0.6-0.7c0.2,0.2,0.4,0.3,0.7,0.4c0.3,0.1,0.6,0.2,0.9,0.2
	s0.6-0.1,0.8-0.2c0.2-0.1,0.3-0.3,0.3-0.5s0-0.3-0.1-0.4s-0.2-0.2-0.5-0.3c-0.2-0.1-0.5-0.2-0.9-0.3c-0.3-0.1-0.5-0.2-0.8-0.3
	c-0.2-0.1-0.5-0.3-0.6-0.5c-0.2-0.2-0.2-0.5-0.2-0.8s0.1-0.6,0.3-0.8c0.2-0.2,0.5-0.4,0.8-0.5s0.6-0.2,1-0.2s0.8,0.1,1.1,0.2
	c0.3,0.1,0.6,0.3,0.8,0.5l-0.5,0.7c-0.2-0.1-0.3-0.3-0.6-0.4c-0.2-0.1-0.5-0.1-0.8-0.1s-0.6,0.1-0.8,0.2c-0.2,0.1-0.3,0.3-0.3,0.5
	s0.1,0.4,0.4,0.5s0.6,0.2,1,0.3c0.3,0.1,0.6,0.2,0.9,0.3c0.3,0.1,0.5,0.3,0.6,0.5c0.2,0.2,0.2,0.5,0.2,0.8s-0.1,0.6-0.3,0.9
	c-0.2,0.2-0.5,0.4-0.8,0.5s-0.7,0.2-1,0.2C122.1,78.2,121.3,77.9,120.9,77.4z M128.7,76.3v-2.6h-0.9v-0.8h0.9v-1.7h1v1.7h1.5v0.8
	h-1.5v2.5c0,0.4,0.1,0.7,0.2,0.8c0.1,0.2,0.3,0.2,0.6,0.2c0.2,0,0.3,0,0.5-0.1c0.1-0.1,0.3-0.1,0.4-0.3l0.5,0.6
	c-0.2,0.2-0.4,0.4-0.7,0.4c-0.2,0.1-0.5,0.1-0.8,0.1c-0.5,0-0.9-0.1-1.2-0.4C128.9,77.4,128.7,76.9,128.7,76.3z M134.7,78.2
	c-0.5,0-1-0.1-1.4-0.4c-0.4-0.2-0.7-0.6-1-1c-0.2-0.4-0.3-0.9-0.3-1.4s0.1-1,0.3-1.4s0.6-0.7,1-1c0.4-0.2,0.9-0.4,1.4-0.4
	s1,0.1,1.4,0.4c0.4,0.2,0.7,0.6,1,1c0.2,0.4,0.4,0.9,0.4,1.4s-0.1,0.9-0.4,1.4c-0.2,0.4-0.6,0.7-1,1C135.6,78,135.2,78.2,134.7,78.2
	z M134.7,77.3c0.4,0,0.7-0.1,0.9-0.3c0.3-0.2,0.5-0.4,0.6-0.7c0.1-0.3,0.2-0.6,0.2-0.9s-0.1-0.6-0.2-0.9c-0.1-0.3-0.3-0.5-0.6-0.7
	s-0.6-0.3-0.9-0.3s-0.7,0.1-0.9,0.3c-0.3,0.2-0.5,0.4-0.6,0.7c-0.1,0.3-0.2,0.6-0.2,0.9s0.1,0.6,0.2,0.9c0.1,0.3,0.3,0.5,0.6,0.7
	C134,77.2,134.3,77.3,134.7,77.3z M10.7,89v-7.3h1V89H10.7z M17.1,87.7l0.6,0.6c-0.1,0.1-0.2,0.2-0.4,0.4c-0.2,0.1-0.4,0.3-0.7,0.4
	c-0.3,0.1-0.7,0.2-1.1,0.2c-0.5,0-1-0.1-1.4-0.3c-0.4-0.2-0.7-0.6-0.9-1s-0.3-0.9-0.3-1.4s0.1-0.9,0.3-1.4c0.2-0.4,0.5-0.7,0.9-1
	c0.4-0.2,0.8-0.4,1.3-0.4c0.6,0,1.1,0.1,1.4,0.4c0.4,0.3,0.6,0.7,0.8,1.1c0.2,0.5,0.3,0.9,0.3,1.5h-4c0,0.3,0.1,0.6,0.2,0.8
	c0.2,0.2,0.4,0.4,0.6,0.6c0.3,0.1,0.5,0.2,0.8,0.2c0.4,0,0.8-0.1,1.1-0.2C16.8,87.9,17,87.8,17.1,87.7z M13.8,86h3
	c0-0.4-0.2-0.7-0.4-1c-0.2-0.3-0.6-0.4-1.1-0.4c-0.3,0-0.6,0.1-0.8,0.2s-0.4,0.3-0.5,0.5C13.9,85.5,13.8,85.8,13.8,86z M22.1,89
	v-0.6c-0.2,0.2-0.4,0.4-0.8,0.6c-0.3,0.1-0.6,0.2-1,0.2c-0.3,0-0.6-0.1-0.8-0.2c-0.3-0.1-0.5-0.3-0.7-0.5s-0.3-0.5-0.3-0.9
	c0-0.5,0.2-1,0.6-1.3s0.9-0.5,1.7-0.5c0.2,0,0.3,0,0.5,0s0.3,0,0.5,0c0.1,0,0.2,0,0.3,0v-0.2c0-0.4-0.1-0.7-0.4-0.8
	c-0.2-0.2-0.5-0.3-0.9-0.3s-0.7,0.1-0.9,0.2c-0.2,0.1-0.4,0.2-0.6,0.3l-0.5-0.7c0.2-0.1,0.4-0.3,0.8-0.4c0.3-0.1,0.8-0.2,1.3-0.2
	c0.7,0,1.2,0.2,1.6,0.5s0.6,0.8,0.6,1.4v3c0,0.1,0,0.1,0,0.2s0,0.2,0,0.3L22.1,89L22.1,89z M22.1,87.2v-0.6c0,0-0.1,0-0.3,0
	c-0.1,0-0.3,0-0.5,0s-0.3,0-0.5,0c-0.4,0-0.6,0.1-0.8,0.2c-0.2,0.1-0.3,0.2-0.4,0.4c-0.1,0.2-0.1,0.3-0.1,0.5c0,0.3,0.1,0.5,0.3,0.6
	s0.5,0.2,0.8,0.2s0.5-0.1,0.7-0.2s0.4-0.3,0.5-0.5C22,87.6,22.1,87.4,22.1,87.2z M25.4,89h-1v-4.6c0-0.1,0-0.1,0-0.2s0-0.2,0-0.3
	h0.9v0.8c0.1-0.1,0.2-0.2,0.3-0.4c0.1-0.1,0.3-0.3,0.6-0.4c0.2-0.1,0.5-0.2,0.8-0.2c0.1,0,0.2,0,0.3,0c0.1,0,0.2,0,0.3,0.1l-0.2,0.9
	c-0.1-0.1-0.3-0.1-0.5-0.1c-0.3,0-0.5,0.1-0.8,0.2c-0.2,0.1-0.4,0.3-0.5,0.6c-0.1,0.2-0.2,0.5-0.2,0.8C25.4,86.2,25.4,89,25.4,89z
	 M29.4,89h-1v-4.6c0-0.1,0-0.1,0-0.2s0-0.2,0-0.3h0.9v0.8c0.1-0.1,0.2-0.3,0.4-0.4c0.1-0.1,0.3-0.3,0.5-0.4s0.5-0.2,0.8-0.2
	c0.7,0,1.2,0.2,1.5,0.6c0.3,0.4,0.5,0.9,0.5,1.6V89h-1v-3c0-0.5-0.1-0.8-0.3-1c-0.2-0.2-0.5-0.3-0.9-0.3s-0.7,0.1-0.9,0.3
	c-0.2,0.2-0.4,0.4-0.5,0.7c-0.1,0.3-0.1,0.6-0.1,1L29.4,89L29.4,89z M37.4,89h-1v-4.6c0-0.1,0-0.1,0-0.2s0-0.2,0-0.3h0.9v0.8
	c0.1-0.1,0.2-0.3,0.3-0.4s0.3-0.3,0.5-0.4s0.5-0.2,0.8-0.2c0.4,0,0.7,0.1,1,0.2c0.3,0.2,0.5,0.4,0.6,0.7c0.2-0.2,0.5-0.5,0.8-0.6
	c0.3-0.2,0.7-0.3,1.1-0.3c0.7,0,1.1,0.2,1.5,0.6c0.3,0.4,0.5,0.9,0.5,1.6V89h-1v-3c0-0.9-0.4-1.4-1.1-1.4c-0.3,0-0.5,0.1-0.7,0.2
	s-0.4,0.3-0.5,0.6c-0.1,0.2-0.2,0.5-0.2,0.8V89h-1v-3c0-0.5-0.1-0.8-0.3-1s-0.5-0.3-0.8-0.3c-0.4,0-0.6,0.1-0.9,0.3
	s-0.4,0.5-0.5,0.8s-0.1,0.6-0.1,0.9V89H37.4z M48.2,89.2c-0.5,0-1-0.1-1.4-0.4c-0.4-0.2-0.7-0.6-1-1c-0.2-0.4-0.3-0.9-0.3-1.4
	s0.1-1,0.3-1.4s0.6-0.7,1-1c0.4-0.2,0.9-0.4,1.4-0.4s1,0.1,1.4,0.4c0.4,0.2,0.7,0.6,1,1c0.2,0.4,0.4,0.9,0.4,1.4s-0.1,0.9-0.4,1.4
	c-0.2,0.4-0.6,0.7-1,1C49.2,89,48.7,89.2,48.2,89.2z M48.2,88.3c0.4,0,0.7-0.1,0.9-0.3c0.3-0.2,0.5-0.4,0.6-0.7
	c0.1-0.3,0.2-0.6,0.2-0.9s-0.1-0.6-0.2-0.9c-0.1-0.3-0.3-0.5-0.6-0.7s-0.6-0.3-0.9-0.3s-0.7,0.1-0.9,0.3c-0.3,0.2-0.5,0.4-0.6,0.7
	c-0.1,0.3-0.2,0.6-0.2,0.9s0.1,0.6,0.2,0.9c0.1,0.3,0.3,0.5,0.6,0.7C47.5,88.2,47.8,88.3,48.2,88.3z M53,89h-1v-4.6
	c0-0.1,0-0.1,0-0.2s0-0.2,0-0.3h1v0.8c0.1-0.1,0.2-0.2,0.3-0.4c0.1-0.1,0.3-0.3,0.5-0.4s0.5-0.2,0.8-0.2c0.1,0,0.2,0,0.3,0
	s0.2,0,0.3,0.1l-0.2,1c-0.1-0.1-0.3-0.1-0.5-0.1c-0.3,0-0.5,0.1-0.8,0.2c-0.2,0.1-0.4,0.3-0.5,0.6C53.1,85.8,53,86,53,86.3V89z
	 M59.8,87.7l0.6,0.6c-0.1,0.1-0.2,0.2-0.4,0.4c-0.2,0.1-0.4,0.3-0.7,0.4s-0.7,0.2-1.1,0.2c-0.5,0-1-0.1-1.4-0.3
	c-0.4-0.2-0.7-0.6-0.9-1s-0.3-0.9-0.3-1.4s0.1-0.9,0.3-1.4c0.2-0.4,0.5-0.7,0.9-1c0.4-0.2,0.8-0.4,1.3-0.4c0.6,0,1.1,0.1,1.4,0.4
	c0.4,0.3,0.6,0.7,0.8,1.1c0.2,0.5,0.3,0.9,0.3,1.5h-4c0,0.3,0.1,0.6,0.2,0.8c0.2,0.2,0.4,0.4,0.6,0.6c0.3,0.1,0.5,0.2,0.8,0.2
	c0.4,0,0.8-0.1,1.1-0.2C59.5,87.9,59.7,87.8,59.8,87.7z M56.5,86h3c0-0.4-0.2-0.7-0.4-1s-0.6-0.4-1.1-0.4c-0.3,0-0.6,0.1-0.8,0.2
	s-0.4,0.3-0.5,0.5C56.6,85.5,56.5,85.8,56.5,86z M66.9,89v-0.6c-0.2,0.2-0.4,0.4-0.8,0.6c-0.3,0.1-0.6,0.2-1,0.2
	c-0.3,0-0.6-0.1-0.8-0.2c-0.3-0.1-0.5-0.3-0.7-0.5s-0.3-0.5-0.3-0.9c0-0.5,0.2-1,0.6-1.3c0.4-0.3,0.9-0.5,1.7-0.5c0.2,0,0.3,0,0.5,0
	s0.3,0,0.5,0c0.1,0,0.2,0,0.3,0v-0.2c0-0.4-0.1-0.7-0.4-0.8c-0.2-0.2-0.5-0.3-0.9-0.3s-0.7,0.1-0.9,0.2c-0.2,0.1-0.4,0.2-0.6,0.3
	l-0.5-0.7c0.2-0.1,0.4-0.3,0.8-0.4c0.3-0.1,0.8-0.2,1.3-0.2c0.7,0,1.2,0.2,1.6,0.5s0.6,0.8,0.6,1.4v3c0,0.1,0,0.1,0,0.2s0,0.2,0,0.3
	L66.9,89L66.9,89z M66.8,87.2v-0.6c0,0-0.1,0-0.3,0c-0.1,0-0.3,0-0.5,0s-0.3,0-0.5,0c-0.4,0-0.6,0.1-0.8,0.2
	c-0.2,0.1-0.3,0.2-0.4,0.4c-0.1,0.2-0.1,0.3-0.1,0.5c0,0.3,0.1,0.5,0.3,0.6c0.2,0.1,0.5,0.2,0.8,0.2s0.5-0.1,0.7-0.2
	s0.4-0.3,0.5-0.5C66.8,87.6,66.8,87.4,66.8,87.2z M69.1,88.8v-7.2h1v2.8c0.1-0.1,0.3-0.3,0.6-0.4c0.3-0.2,0.6-0.2,1-0.2
	c0.5,0,0.9,0.1,1.3,0.4c0.4,0.2,0.6,0.6,0.8,1c0.2,0.4,0.3,0.8,0.3,1.3s-0.1,1-0.4,1.4c-0.2,0.4-0.6,0.7-1,1
	c-0.4,0.2-0.9,0.4-1.5,0.4c-0.4,0-0.8,0-1.2-0.1S69.3,88.9,69.1,88.8z M70.1,86.1v2c0.1,0,0.2,0.1,0.4,0.1c0.2,0,0.4,0,0.7,0
	c0.6,0,1-0.2,1.4-0.5c0.3-0.4,0.5-0.8,0.5-1.3c0-0.3-0.1-0.6-0.2-0.9s-0.3-0.5-0.5-0.7s-0.5-0.3-0.8-0.3s-0.6,0.1-0.8,0.2
	c-0.2,0.1-0.4,0.3-0.5,0.5C70.1,85.6,70.1,85.9,70.1,86.1z M77.6,89.2c-0.5,0-1-0.1-1.4-0.4c-0.4-0.2-0.7-0.6-1-1
	c-0.2-0.4-0.3-0.9-0.3-1.4s0.1-1,0.3-1.4c0.2-0.4,0.6-0.7,1-1c0.4-0.2,0.9-0.4,1.4-0.4s1,0.1,1.4,0.4c0.4,0.2,0.7,0.6,1,1
	c0.2,0.4,0.4,0.9,0.4,1.4s-0.1,0.9-0.4,1.4c-0.2,0.4-0.6,0.7-1,1C78.6,89,78.1,89.2,77.6,89.2z M77.6,88.3c0.4,0,0.7-0.1,0.9-0.3
	c0.3-0.2,0.5-0.4,0.6-0.7c0.1-0.3,0.2-0.6,0.2-0.9s-0.1-0.6-0.2-0.9s-0.3-0.5-0.6-0.7c-0.3-0.2-0.6-0.3-0.9-0.3
	c-0.4,0-0.7,0.1-0.9,0.3c-0.3,0.2-0.5,0.4-0.6,0.7c-0.1,0.3-0.2,0.6-0.2,0.9s0.1,0.6,0.2,0.9s0.3,0.5,0.6,0.7
	C77,88.2,77.3,88.3,77.6,88.3z M81.4,87v-3.1h1v3c0,0.5,0.1,0.8,0.3,1s0.5,0.3,0.9,0.3s0.7-0.1,0.9-0.3c0.2-0.2,0.4-0.4,0.5-0.7
	c0.1-0.3,0.1-0.6,0.1-1v-2.4h1v4.6c0,0,0,0.1,0,0.2s0,0.2,0,0.3h-0.9v-0.8c-0.1,0.1-0.2,0.2-0.3,0.4c-0.1,0.1-0.3,0.2-0.6,0.3
	c-0.2,0.1-0.5,0.1-0.8,0.1c-0.7,0-1.2-0.2-1.5-0.6S81.4,87.6,81.4,87z M87.8,87.3v-2.6h-0.9v-0.8h0.9v-1.7h1v1.7h1.5v0.8h-1.5v2.5
	c0,0.4,0.1,0.7,0.2,0.8c0.1,0.2,0.3,0.2,0.6,0.2c0.2,0,0.3,0,0.5-0.1c0.1-0.1,0.3-0.1,0.4-0.3l0.5,0.6c-0.2,0.2-0.4,0.4-0.7,0.4
	c-0.2,0.1-0.5,0.1-0.8,0.1c-0.5,0-0.9-0.1-1.2-0.4C88,88.4,87.8,87.9,87.8,87.3z M96.1,89.2c-0.5,0-1-0.1-1.4-0.4
	c-0.4-0.2-0.7-0.6-1-1c-0.2-0.4-0.3-0.9-0.3-1.4s0.1-1,0.3-1.4c0.2-0.4,0.6-0.7,1-1c0.4-0.2,0.9-0.4,1.4-0.4s1,0.1,1.4,0.4
	c0.4,0.2,0.7,0.6,1,1c0.2,0.4,0.4,0.9,0.4,1.4s-0.1,0.9-0.4,1.4c-0.2,0.4-0.6,0.7-1,1C97.1,89,96.6,89.2,96.1,89.2z M96.1,88.3
	c0.4,0,0.7-0.1,0.9-0.3c0.3-0.2,0.5-0.4,0.6-0.7c0.1-0.3,0.2-0.6,0.2-0.9s-0.1-0.6-0.2-0.9S97.3,85,97,84.8
	c-0.3-0.2-0.6-0.3-0.9-0.3s-0.7,0.1-0.9,0.3c-0.3,0.2-0.5,0.4-0.6,0.7c-0.1,0.3-0.2,0.6-0.2,0.9s0.1,0.6,0.2,0.9s0.3,0.5,0.6,0.7
	C95.4,88.2,95.7,88.3,96.1,88.3z M99.9,87v-3.1h1v3c0,0.5,0.1,0.8,0.3,1c0.2,0.2,0.5,0.3,0.9,0.3s0.7-0.1,0.9-0.3
	c0.2-0.2,0.4-0.4,0.5-0.7c0.1-0.3,0.1-0.6,0.1-1v-2.4h1v4.6c0,0,0,0.1,0,0.2s0,0.2,0,0.3h-0.9v-0.8c-0.1,0.1-0.2,0.2-0.3,0.4
	c-0.1,0.1-0.3,0.2-0.6,0.3c-0.2,0.1-0.5,0.1-0.8,0.1c-0.7,0-1.2-0.2-1.5-0.6C100,88.1,99.9,87.6,99.9,87z M106.9,89h-1v-4.6
	c0-0.1,0-0.1,0-0.2s0-0.2,0-0.3h0.9v0.8c0.1-0.1,0.2-0.2,0.3-0.4c0.1-0.1,0.3-0.3,0.6-0.4c0.2-0.1,0.5-0.2,0.8-0.2
	c0.1,0,0.2,0,0.3,0c0.1,0,0.2,0,0.3,0.1l-0.2,0.9c-0.1-0.1-0.3-0.1-0.5-0.1c-0.3,0-0.5,0.1-0.8,0.2c-0.2,0.1-0.4,0.3-0.5,0.6
	c-0.1,0.2-0.2,0.5-0.2,0.8L106.9,89L106.9,89z M115.1,89v-0.6c-0.2,0.2-0.4,0.4-0.8,0.6c-0.3,0.1-0.6,0.2-1,0.2
	c-0.3,0-0.6-0.1-0.8-0.2c-0.3-0.1-0.5-0.3-0.7-0.5s-0.3-0.5-0.3-0.9c0-0.5,0.2-1,0.6-1.3s0.9-0.5,1.7-0.5c0.2,0,0.3,0,0.5,0
	s0.3,0,0.5,0c0.1,0,0.2,0,0.3,0v-0.2c0-0.4-0.1-0.7-0.4-0.8c-0.2-0.2-0.5-0.3-0.9-0.3s-0.7,0.1-0.9,0.2c-0.2,0.1-0.4,0.2-0.6,0.3
	l-0.5-0.7c0.2-0.1,0.4-0.3,0.8-0.4c0.3-0.1,0.8-0.2,1.3-0.2c0.7,0,1.2,0.2,1.6,0.5s0.6,0.8,0.6,1.4v3c0,0.1,0,0.1,0,0.2s0,0.2,0,0.3
	L115.1,89L115.1,89z M115.1,87.2v-0.6c0,0-0.1,0-0.3,0c-0.1,0-0.3,0-0.5,0s-0.3,0-0.5,0c-0.4,0-0.6,0.1-0.8,0.2
	c-0.2,0.1-0.3,0.2-0.4,0.4c-0.1,0.2-0.1,0.3-0.1,0.5c0,0.3,0.1,0.5,0.3,0.6c0.2,0.1,0.5,0.2,0.8,0.2s0.5-0.1,0.7-0.2
	s0.4-0.3,0.5-0.5C115,87.6,115.1,87.4,115.1,87.2z M118.4,89l-1.7-5.1h1.1l1.1,3.9l1.2-3.9h0.8l1.2,3.9l1.1-3.9h1l-1.7,5.1h-1
	l-1.2-3.6l-1.2,3.6H118.4z M128.4,89v-0.6c-0.2,0.2-0.4,0.4-0.8,0.6c-0.3,0.1-0.6,0.2-1,0.2c-0.3,0-0.6-0.1-0.8-0.2
	c-0.3-0.1-0.5-0.3-0.7-0.5s-0.3-0.5-0.3-0.9c0-0.5,0.2-1,0.6-1.3s0.9-0.5,1.7-0.5c0.2,0,0.3,0,0.5,0s0.3,0,0.5,0c0.1,0,0.2,0,0.3,0
	v-0.2c0-0.4-0.1-0.7-0.4-0.8c-0.2-0.2-0.5-0.3-0.9-0.3s-0.7,0.1-0.9,0.2c-0.2,0.1-0.4,0.2-0.6,0.3l-0.5-0.7c0.2-0.1,0.4-0.3,0.8-0.4
	c0.3-0.1,0.8-0.2,1.3-0.2c0.7,0,1.2,0.2,1.6,0.5c0.4,0.3,0.6,0.8,0.6,1.4v3c0,0.1,0,0.1,0,0.2s0,0.2,0,0.3L128.4,89L128.4,89z
	 M128.3,87.2v-0.6c0,0-0.1,0-0.3,0c-0.1,0-0.3,0-0.5,0s-0.3,0-0.5,0c-0.4,0-0.6,0.1-0.8,0.2c-0.2,0.1-0.3,0.2-0.4,0.4
	c-0.1,0.2-0.1,0.3-0.1,0.5c0,0.3,0.1,0.5,0.3,0.6c0.2,0.1,0.5,0.2,0.8,0.2s0.5-0.1,0.7-0.2s0.4-0.3,0.5-0.5
	C128.2,87.6,128.3,87.4,128.3,87.2z M131.6,89h-1v-4.6c0-0.1,0-0.1,0-0.2s0-0.2,0-0.3h0.9v0.8c0.1-0.1,0.2-0.2,0.3-0.4
	c0.1-0.1,0.3-0.3,0.5-0.4s0.5-0.2,0.8-0.2c0.1,0,0.2,0,0.3,0s0.2,0,0.3,0.1l-0.2,0.9c-0.1-0.1-0.3-0.1-0.5-0.1
	c-0.3,0-0.5,0.1-0.8,0.2c-0.2,0.1-0.4,0.3-0.5,0.6c-0.1,0.2-0.2,0.5-0.2,0.8L131.6,89L131.6,89z M138.1,89v-0.6
	c-0.1,0.1-0.1,0.2-0.3,0.3c-0.1,0.1-0.3,0.3-0.5,0.4s-0.5,0.2-0.8,0.2c-0.4,0-0.8-0.1-1.2-0.3c-0.3-0.2-0.6-0.5-0.8-0.9
	s-0.3-0.9-0.3-1.4s0.1-0.9,0.2-1.2c0.2-0.4,0.4-0.6,0.6-0.9c0.3-0.2,0.5-0.4,0.8-0.5s0.6-0.2,0.9-0.2c0.3,0,0.5,0,0.7,0.1
	s0.4,0.1,0.6,0.2v-2.4h1v6.8c0,0,0,0.1,0,0.2s0,0.2,0,0.3L138.1,89L138.1,89z M138,86.8V85c-0.1-0.1-0.3-0.2-0.5-0.3
	c-0.2-0.1-0.5-0.1-0.7-0.1c-0.5,0-0.9,0.2-1.2,0.5s-0.5,0.8-0.5,1.4c0,0.3,0.1,0.6,0.2,0.9c0.1,0.3,0.3,0.5,0.5,0.6
	c0.2,0.2,0.5,0.2,0.8,0.2s0.6-0.1,0.8-0.2c0.2-0.2,0.4-0.4,0.5-0.6C138,87.3,138,87,138,86.8z M140.1,88.4l0.6-0.7
	c0.2,0.2,0.4,0.3,0.7,0.4s0.6,0.2,0.9,0.2c0.3,0,0.6-0.1,0.8-0.2s0.3-0.3,0.3-0.5s0-0.3-0.1-0.4s-0.2-0.2-0.5-0.3
	c-0.2-0.1-0.5-0.2-0.9-0.3c-0.3-0.1-0.5-0.2-0.8-0.3c-0.2-0.1-0.5-0.3-0.6-0.5c-0.2-0.2-0.2-0.5-0.2-0.8s0.1-0.6,0.3-0.8
	c0.2-0.2,0.5-0.4,0.8-0.5s0.6-0.2,1-0.2s0.8,0.1,1.1,0.2s0.6,0.3,0.8,0.5l-0.5,0.7c-0.2-0.1-0.3-0.3-0.6-0.4
	c-0.2-0.1-0.5-0.1-0.8-0.1s-0.6,0.1-0.8,0.2s-0.3,0.3-0.3,0.5s0.1,0.4,0.4,0.5c0.3,0.1,0.6,0.2,1,0.3c0.3,0.1,0.6,0.2,0.9,0.3
	c0.3,0.1,0.5,0.3,0.6,0.5c0.2,0.2,0.2,0.5,0.2,0.8s-0.1,0.6-0.3,0.9c-0.2,0.2-0.5,0.4-0.8,0.5s-0.7,0.2-1,0.2
	C141.3,89.2,140.6,88.9,140.1,88.4z M145.4,89v-1.2h1.2V89H145.4z M10.8,100v-7.3h1.1v7.3H10.8z M13.1,99.4l0.6-0.7
	c0.2,0.2,0.4,0.3,0.7,0.4s0.6,0.2,0.9,0.2c0.3,0,0.6-0.1,0.8-0.2c0.2-0.1,0.3-0.3,0.3-0.5s0-0.3-0.1-0.4s-0.2-0.2-0.5-0.3
	c-0.2-0.1-0.5-0.2-0.9-0.3c-0.3-0.1-0.5-0.2-0.8-0.3c-0.2-0.1-0.5-0.3-0.6-0.5c-0.2-0.2-0.2-0.5-0.2-0.8s0.1-0.6,0.3-0.8
	c0.2-0.2,0.5-0.4,0.8-0.5s0.6-0.2,1-0.2s0.8,0.1,1.1,0.2c0.3,0.1,0.6,0.3,0.8,0.5l-0.5,0.7c-0.2-0.1-0.3-0.3-0.6-0.4
	c-0.2-0.1-0.5-0.1-0.8-0.1s-0.6,0.1-0.8,0.2s-0.3,0.3-0.3,0.5s0.1,0.4,0.4,0.5c0.3,0.1,0.6,0.2,1,0.3c0.3,0.1,0.6,0.2,0.9,0.3
	c0.3,0.1,0.5,0.3,0.6,0.5c0.2,0.2,0.2,0.5,0.2,0.8s-0.1,0.6-0.3,0.9c-0.2,0.2-0.5,0.4-0.8,0.5s-0.7,0.2-1,0.2
	C14.3,100.2,13.6,99.9,13.1,99.4z M18.3,99.4l0.6-0.7c0.2,0.2,0.4,0.3,0.7,0.4c0.3,0.1,0.6,0.2,0.9,0.2s0.6-0.1,0.8-0.2
	c0.2-0.1,0.3-0.3,0.3-0.5s0-0.3-0.1-0.4S21.3,98,21,97.9c-0.2-0.1-0.5-0.2-0.9-0.3c-0.3-0.1-0.5-0.2-0.8-0.3
	c-0.2-0.1-0.5-0.3-0.6-0.5c-0.2-0.2-0.2-0.5-0.2-0.8s0.1-0.6,0.3-0.8c0.2-0.2,0.5-0.4,0.8-0.5s0.6-0.2,1-0.2s0.8,0.1,1.1,0.2
	c0.3,0.1,0.6,0.3,0.8,0.5L22,96.1c-0.2-0.1-0.3-0.3-0.6-0.4c-0.2-0.1-0.5-0.1-0.8-0.1s-0.6,0.1-0.8,0.2s-0.3,0.3-0.3,0.5
	s0.1,0.4,0.4,0.5s0.6,0.2,1,0.3c0.3,0.1,0.6,0.2,0.9,0.3c0.3,0.1,0.5,0.3,0.6,0.5c0.2,0.2,0.2,0.5,0.2,0.8s-0.1,0.6-0.3,0.9
	c-0.2,0.2-0.5,0.4-0.8,0.5s-0.7,0.2-1,0.2C19.5,100.2,18.8,99.9,18.3,99.4z M23.8,98v-3.1h1v3c0,0.5,0.1,0.8,0.3,1s0.5,0.3,0.9,0.3
	s0.7-0.1,0.9-0.3c0.2-0.2,0.4-0.4,0.5-0.7c0.1-0.3,0.1-0.6,0.1-1v-2.4h1v4.6c0,0,0,0.1,0,0.2s0,0.2,0,0.3h-0.9v-0.8
	c-0.1,0.1-0.2,0.2-0.3,0.4c-0.1,0.1-0.3,0.2-0.6,0.3c-0.2,0.1-0.5,0.1-0.8,0.1c-0.7,0-1.2-0.2-1.5-0.6C23.9,99.1,23.8,98.6,23.8,98z
	 M33.9,98.7l0.6,0.6c-0.1,0.1-0.2,0.2-0.4,0.4c-0.2,0.1-0.4,0.3-0.7,0.4s-0.7,0.2-1.1,0.2c-0.5,0-1-0.1-1.4-0.3
	c-0.4-0.2-0.7-0.6-0.9-1c-0.2-0.4-0.3-0.9-0.3-1.4s0.1-0.9,0.3-1.4c0.2-0.4,0.5-0.7,0.9-1c0.4-0.2,0.8-0.4,1.3-0.4
	c0.6,0,1.1,0.1,1.4,0.4c0.4,0.3,0.6,0.7,0.8,1.1c0.2,0.5,0.3,0.9,0.3,1.5h-4c0,0.3,0.1,0.6,0.2,0.8c0.2,0.2,0.4,0.4,0.6,0.6
	c0.3,0.1,0.5,0.2,0.8,0.2c0.4,0,0.8-0.1,1.1-0.2C33.5,98.9,33.7,98.8,33.9,98.7z M30.5,97h3c0-0.4-0.2-0.7-0.4-1s-0.6-0.4-1.1-0.4
	c-0.3,0-0.6,0.1-0.8,0.2c-0.2,0.1-0.4,0.3-0.5,0.5C30.6,96.5,30.5,96.8,30.5,97z M39.4,100v-0.6c-0.1,0.1-0.1,0.2-0.3,0.3
	c-0.1,0.1-0.3,0.3-0.5,0.4s-0.5,0.2-0.8,0.2c-0.4,0-0.8-0.1-1.2-0.3c-0.3-0.2-0.6-0.5-0.8-0.9s-0.3-0.9-0.3-1.4s0.1-0.9,0.2-1.2
	c0.2-0.4,0.4-0.6,0.6-0.9s0.5-0.4,0.8-0.5s0.6-0.2,0.9-0.2c0.3,0,0.5,0,0.7,0.1s0.4,0.1,0.6,0.2v-2.4h1v6.8c0,0,0,0.1,0,0.2
	s0,0.2,0,0.3L39.4,100L39.4,100z M39.3,97.8V96c-0.1-0.1-0.3-0.2-0.5-0.3c-0.2-0.1-0.5-0.1-0.7-0.1c-0.5,0-0.9,0.2-1.2,0.5
	s-0.5,0.8-0.5,1.4c0,0.3,0.1,0.6,0.2,0.9c0.1,0.3,0.3,0.5,0.5,0.6c0.2,0.2,0.5,0.2,0.8,0.2s0.6-0.1,0.8-0.2c0.2-0.2,0.4-0.4,0.5-0.6
	C39.3,98.3,39.3,98,39.3,97.8z M43.7,99.8v-7.2h1v2.8c0.1-0.1,0.3-0.3,0.5-0.4c0.3-0.2,0.6-0.2,1-0.2c0.5,0,0.9,0.1,1.3,0.4
	c0.4,0.2,0.6,0.6,0.8,1s0.3,0.8,0.3,1.3s-0.1,1-0.4,1.4c-0.2,0.4-0.6,0.7-1,1c-0.4,0.2-0.9,0.4-1.5,0.4c-0.4,0-0.8,0-1.2-0.1
	C44.2,100,43.9,99.9,43.7,99.8z M44.7,97.1v2c0.1,0,0.2,0.1,0.4,0.1s0.4,0,0.7,0c0.6,0,1-0.2,1.4-0.5c0.3-0.4,0.5-0.8,0.5-1.3
	c0-0.3-0.1-0.6-0.2-0.9c-0.1-0.3-0.3-0.5-0.5-0.7s-0.5-0.3-0.8-0.3s-0.6,0.1-0.8,0.2S45,96,44.9,96.2C44.7,96.6,44.7,96.9,44.7,97.1
	z M49,101.9l0.5-0.7c0.1,0.1,0.2,0.1,0.3,0.2s0.2,0.1,0.4,0.1s0.4-0.1,0.5-0.3c0.1-0.2,0.3-0.5,0.4-0.9l0.1-0.3l-2.3-5.1H50l1.7,3.9
	l1.5-3.9h1.1l-2,5c-0.1,0.2-0.2,0.5-0.3,0.8s-0.2,0.6-0.4,0.8c-0.1,0.3-0.3,0.5-0.5,0.6c-0.2,0.2-0.5,0.3-0.8,0.3s-0.5,0-0.6-0.1
	C49.3,102.2,49.1,102.1,49,101.9z M57.1,100v-7.3h1.1v3.1h4v-3.1h1.1v7.3h-1.1v-3.3h-4v3.3H57.1z M67.2,100.2c-0.5,0-1-0.1-1.4-0.4
	c-0.4-0.2-0.7-0.6-1-1c-0.2-0.4-0.3-0.9-0.3-1.4s0.1-1,0.3-1.4c0.2-0.4,0.6-0.7,1-1c0.4-0.2,0.9-0.4,1.4-0.4s1,0.1,1.4,0.4
	c0.4,0.2,0.7,0.6,1,1c0.2,0.4,0.4,0.9,0.4,1.4s-0.1,0.9-0.4,1.4c-0.2,0.4-0.6,0.7-1,1C68.2,100,67.7,100.2,67.2,100.2z M67.2,99.3
	c0.4,0,0.7-0.1,0.9-0.3c0.3-0.2,0.5-0.4,0.6-0.7c0.1-0.3,0.2-0.6,0.2-0.9s-0.1-0.6-0.2-0.9s-0.3-0.5-0.6-0.7
	c-0.3-0.2-0.6-0.3-0.9-0.3s-0.7,0.1-0.9,0.3c-0.3,0.2-0.5,0.4-0.6,0.7c-0.1,0.3-0.2,0.6-0.2,0.9s0.1,0.6,0.2,0.9s0.3,0.5,0.6,0.7
	C66.5,99.2,66.8,99.3,67.2,99.3z M70.8,99.4l0.6-0.7c0.2,0.2,0.4,0.3,0.7,0.4s0.6,0.2,0.9,0.2s0.6-0.1,0.8-0.2
	c0.2-0.1,0.3-0.3,0.3-0.5s0-0.3-0.1-0.4s-0.2-0.2-0.5-0.3c-0.2-0.1-0.5-0.2-0.9-0.3c-0.3-0.1-0.5-0.2-0.8-0.3
	c-0.2-0.1-0.5-0.3-0.6-0.5C71,96.6,71,96.3,71,96s0.1-0.6,0.3-0.8c0.2-0.2,0.5-0.4,0.8-0.5s0.6-0.2,1-0.2s0.8,0.1,1.1,0.2
	c0.3,0.1,0.6,0.3,0.8,0.5l-0.5,0.7c-0.2-0.1-0.3-0.3-0.6-0.4c-0.2-0.1-0.5-0.1-0.8-0.1s-0.6,0.1-0.8,0.2S72,96,72,96.2
	s0.1,0.4,0.4,0.5s0.6,0.2,1,0.3c0.3,0.1,0.6,0.2,0.9,0.3c0.3,0.1,0.5,0.3,0.6,0.5c0.2,0.2,0.2,0.5,0.2,0.8s-0.1,0.6-0.3,0.9
	c-0.2,0.2-0.5,0.4-0.8,0.5s-0.7,0.2-1,0.2C72,100.2,71.2,99.9,70.8,99.4z M76.7,98.3v-2.6h-0.9v-0.8h0.9v-1.7h1v1.7h1.5v0.8h-1.5
	v2.5c0,0.4,0.1,0.7,0.2,0.8c0.1,0.2,0.3,0.2,0.6,0.2c0.2,0,0.3,0,0.5-0.1c0.1-0.1,0.3-0.1,0.4-0.3l0.5,0.6c-0.2,0.2-0.4,0.4-0.7,0.4
	c-0.2,0.1-0.5,0.1-0.8,0.1c-0.5,0-0.9-0.1-1.2-0.4C76.8,99.4,76.7,98.9,76.7,98.3z M80.2,97.4v-0.9h3.2v0.9H80.2z M85.1,100v-7.3
	h2.3c0.5,0,0.9,0.1,1.2,0.2c0.3,0.1,0.6,0.3,0.8,0.5c0.2,0.2,0.3,0.5,0.4,0.7c0.1,0.3,0.1,0.5,0.1,0.8c0,0.5-0.1,0.9-0.3,1.2
	c-0.2,0.3-0.5,0.6-0.9,0.7s-0.8,0.3-1.3,0.3h-1.3v2.9C86.1,100,85.1,100,85.1,100z M86.1,96.2h1.3c0.5,0,0.8-0.1,1-0.4
	c0.2-0.2,0.4-0.6,0.4-1s-0.1-0.7-0.4-1c-0.2-0.2-0.6-0.4-1-0.4h-1.3V96.2z M90.9,100v-7.3h1v7.3H90.9z M93.3,98v-3.1h1v3
	c0,0.5,0.1,0.8,0.3,1c0.2,0.2,0.5,0.3,0.9,0.3s0.7-0.1,0.9-0.3c0.2-0.2,0.4-0.4,0.5-0.7c0.1-0.3,0.1-0.6,0.1-1v-2.4h1v4.6
	c0,0,0,0.1,0,0.2s0,0.2,0,0.3h-0.9v-0.8c-0.1,0.1-0.2,0.2-0.3,0.4c-0.1,0.1-0.3,0.2-0.6,0.3c-0.2,0.1-0.5,0.1-0.8,0.1
	c-0.7,0-1.2-0.2-1.5-0.6C93.4,99.1,93.3,98.6,93.3,98z M99,99.4l0.6-0.7c0.2,0.2,0.4,0.3,0.7,0.4c0.3,0.1,0.6,0.2,0.9,0.2
	s0.6-0.1,0.8-0.2c0.2-0.1,0.3-0.3,0.3-0.5s0-0.3-0.1-0.4s-0.2-0.2-0.5-0.3c-0.2-0.1-0.5-0.2-0.9-0.3c-0.3-0.1-0.5-0.2-0.8-0.3
	c-0.2-0.1-0.5-0.3-0.6-0.5c-0.2-0.2-0.2-0.5-0.2-0.8s0.1-0.6,0.3-0.8c0.2-0.2,0.5-0.4,0.8-0.5s0.6-0.2,1-0.2s0.8,0.1,1.1,0.2
	c0.3,0.1,0.6,0.3,0.8,0.5l-0.5,0.7c-0.2-0.1-0.3-0.3-0.6-0.4c-0.2-0.1-0.5-0.1-0.8-0.1s-0.6,0.1-0.8,0.2c-0.2,0.1-0.3,0.3-0.3,0.5
	s0.1,0.4,0.4,0.5s0.6,0.2,1,0.3c0.3,0.1,0.6,0.2,0.9,0.3c0.3,0.1,0.5,0.3,0.6,0.5c0.2,0.2,0.2,0.5,0.2,0.8s-0.1,0.6-0.3,0.9
	c-0.2,0.2-0.5,0.4-0.8,0.5s-0.7,0.2-1,0.2C100.2,100.2,99.5,99.9,99,99.4z M106.6,100v-7.3h2.3c0.5,0,0.9,0.1,1.2,0.2
	c0.3,0.1,0.6,0.3,0.8,0.5s0.3,0.5,0.4,0.7c0.1,0.3,0.1,0.5,0.1,0.8c0,0.5-0.1,0.9-0.3,1.2c-0.2,0.3-0.5,0.6-0.9,0.7
	c-0.4,0.2-0.8,0.3-1.3,0.3h-1.3v2.9C107.6,100,106.6,100,106.6,100z M107.6,96.2h1.3c0.5,0,0.8-0.1,1-0.4c0.2-0.2,0.4-0.6,0.4-1
	s-0.1-0.7-0.4-1c-0.2-0.2-0.6-0.4-1-0.4h-1.3V96.2z M113.1,98.3v-2.6h-0.9v-0.8h0.9v-1.7h1v1.7h1.5v0.8h-1.5v2.5
	c0,0.4,0.1,0.7,0.2,0.8c0.1,0.2,0.3,0.2,0.5,0.2s0.3,0,0.5-0.1c0.1-0.1,0.3-0.1,0.4-0.3l0.5,0.6c-0.2,0.2-0.4,0.4-0.7,0.4
	c-0.2,0.1-0.5,0.1-0.8,0.1c-0.5,0-0.9-0.1-1.2-0.4C113.2,99.4,113.1,98.9,113.1,98.3z M116.2,101.9l0.5-0.7c0.1,0.1,0.2,0.1,0.3,0.2
	c0.1,0.1,0.2,0.1,0.4,0.1c0.2,0,0.4-0.1,0.5-0.3c0.1-0.2,0.3-0.5,0.4-0.9l0.1-0.3l-2.3-5.1h1.1l1.7,3.9l1.5-3.9h1.1l-2,5
	c-0.1,0.2-0.2,0.5-0.3,0.8c-0.1,0.3-0.2,0.6-0.4,0.8c-0.1,0.3-0.3,0.5-0.5,0.6c-0.2,0.2-0.5,0.3-0.8,0.3s-0.5,0-0.6-0.1
	C116.5,102.2,116.4,102.1,116.2,101.9z M10.8,111v-7.3h1.1v6.4h3.8v0.9H10.8z M16.7,105v-1.1h1.1v1.1H16.7z M16.8,111v-5.1h1v5.1
	H16.8z M20.1,111h-1v-4.6c0-0.1,0-0.1,0-0.2s0-0.2,0-0.3H20v0.8c0.1-0.1,0.2-0.3,0.3-0.4c0.1-0.1,0.3-0.3,0.5-0.4s0.5-0.2,0.8-0.2
	c0.4,0,0.7,0.1,1,0.2c0.3,0.2,0.5,0.4,0.6,0.7c0.2-0.2,0.5-0.5,0.8-0.6c0.3-0.2,0.7-0.3,1.1-0.3c0.7,0,1.1,0.2,1.5,0.6
	c0.3,0.4,0.5,0.9,0.5,1.6v3.1h-1v-3c0-0.9-0.4-1.4-1.1-1.4c-0.3,0-0.5,0.1-0.7,0.2s-0.4,0.3-0.5,0.6c-0.1,0.2-0.2,0.5-0.2,0.8v2.8
	h-1v-3c0-0.5-0.1-0.8-0.3-1c-0.2-0.2-0.5-0.3-0.8-0.3c-0.4,0-0.6,0.1-0.9,0.3c-0.2,0.2-0.4,0.5-0.5,0.8s-0.1,0.6-0.1,0.9v2.3H20.1z
	 M28.5,105v-1.1h1.1v1.1H28.5z M28.5,111v-5.1h1v5.1H28.5z M31.4,109.3v-2.6h-0.9v-0.8h0.9v-1.7h1v1.7h1.5v0.8h-1.5v2.5
	c0,0.4,0.1,0.7,0.2,0.8c0.1,0.2,0.3,0.2,0.5,0.2s0.3,0,0.5-0.1c0.1-0.1,0.3-0.1,0.4-0.3l0.5,0.6c-0.2,0.2-0.4,0.4-0.7,0.4
	c-0.2,0.1-0.5,0.1-0.8,0.1c-0.5,0-0.9-0.1-1.2-0.4C31.5,110.4,31.4,109.9,31.4,109.3z M38.9,109.7l0.6,0.6c-0.1,0.1-0.2,0.2-0.4,0.4
	c-0.2,0.1-0.4,0.3-0.7,0.4s-0.7,0.2-1.1,0.2c-0.5,0-1-0.1-1.4-0.3c-0.4-0.2-0.7-0.6-0.9-1s-0.3-0.9-0.3-1.4s0.1-0.9,0.3-1.4
	c0.2-0.4,0.5-0.7,0.9-1c0.4-0.2,0.8-0.4,1.3-0.4c0.6,0,1.1,0.1,1.4,0.4c0.4,0.3,0.6,0.7,0.8,1.1c0.2,0.5,0.3,0.9,0.3,1.5h-4
	c0,0.3,0.1,0.6,0.2,0.8c0.2,0.2,0.4,0.4,0.6,0.6c0.3,0.1,0.5,0.2,0.8,0.2c0.4,0,0.8-0.1,1.1-0.2C38.6,109.9,38.8,109.8,38.9,109.7z
	 M35.6,108h3c0-0.4-0.2-0.7-0.4-1s-0.6-0.4-1.1-0.4c-0.3,0-0.6,0.1-0.8,0.2s-0.4,0.3-0.5,0.5C35.7,107.5,35.6,107.8,35.6,108z
	 M44.4,111v-0.6c-0.1,0.1-0.1,0.2-0.3,0.3c-0.1,0.1-0.3,0.3-0.5,0.4s-0.5,0.2-0.8,0.2c-0.4,0-0.8-0.1-1.2-0.3
	c-0.3-0.2-0.6-0.5-0.8-0.9s-0.3-0.9-0.3-1.4s0.1-0.9,0.2-1.2c0.2-0.4,0.4-0.6,0.6-0.9s0.5-0.4,0.8-0.5s0.6-0.2,0.9-0.2
	c0.3,0,0.5,0,0.7,0.1s0.4,0.1,0.6,0.2v-2.4h1v6.8c0,0,0,0.1,0,0.2s0,0.2,0,0.3L44.4,111L44.4,111z M44.4,108.8V107
	c-0.1-0.1-0.3-0.2-0.5-0.3c-0.2-0.1-0.5-0.1-0.7-0.1c-0.5,0-0.9,0.2-1.2,0.5s-0.5,0.8-0.5,1.4c0,0.3,0.1,0.6,0.2,0.9
	c0.1,0.3,0.3,0.5,0.5,0.6c0.2,0.2,0.5,0.2,0.8,0.2s0.6-0.1,0.8-0.2c0.2-0.2,0.4-0.4,0.5-0.6C44.4,109.3,44.4,109,44.4,108.8z
	 M46.9,111v-1.2h1.2v1.2H46.9z M57.2,109.1l0.7,0.6c-0.1,0.2-0.3,0.4-0.5,0.6c-0.3,0.2-0.6,0.4-1,0.6s-0.8,0.3-1.4,0.3
	c-0.7,0-1.4-0.2-1.9-0.5s-1-0.8-1.3-1.4s-0.5-1.2-0.5-2c0-0.5,0.1-1,0.3-1.5s0.4-0.9,0.7-1.2c0.3-0.4,0.7-0.6,1.2-0.8
	c0.5-0.2,1-0.3,1.5-0.3s1,0.1,1.3,0.2c0.4,0.2,0.7,0.3,0.9,0.6c0.2,0.2,0.4,0.4,0.6,0.6l-0.7,0.6c-0.1-0.2-0.3-0.3-0.5-0.5
	s-0.4-0.3-0.7-0.4s-0.6-0.2-1-0.2c-0.5,0-1,0.1-1.4,0.4s-0.7,0.6-0.9,1.1c-0.2,0.4-0.3,0.9-0.3,1.5c0,0.5,0.1,1,0.3,1.4
	s0.5,0.8,0.9,1s0.8,0.4,1.4,0.4c0.4,0,0.8-0.1,1.1-0.2s0.5-0.3,0.7-0.5C57,109.3,57.1,109.2,57.2,109.1z M61.3,111.2
	c-0.5,0-1-0.1-1.4-0.4c-0.4-0.2-0.7-0.6-1-1c-0.2-0.4-0.3-0.9-0.3-1.4s0.1-1,0.3-1.4s0.6-0.7,1-1c0.4-0.2,0.9-0.4,1.4-0.4
	s1,0.1,1.4,0.4c0.4,0.2,0.7,0.6,1,1c0.2,0.4,0.4,0.9,0.4,1.4s-0.1,0.9-0.4,1.4c-0.2,0.4-0.6,0.7-1,1C62.2,111,61.8,111.2,61.3,111.2
	z M61.3,110.3c0.4,0,0.7-0.1,0.9-0.3c0.3-0.2,0.5-0.4,0.6-0.7c0.1-0.3,0.2-0.6,0.2-0.9s-0.1-0.6-0.2-0.9c-0.1-0.3-0.3-0.5-0.6-0.7
	s-0.6-0.3-0.9-0.3s-0.7,0.1-0.9,0.3c-0.3,0.2-0.5,0.4-0.6,0.7c-0.1,0.3-0.2,0.6-0.2,0.9s0.1,0.6,0.2,0.9c0.1,0.3,0.3,0.5,0.6,0.7
	C60.6,110.2,60.9,110.3,61.3,110.3z M66.1,111h-1v-4.6c0-0.1,0-0.1,0-0.2s0-0.2,0-0.3H66v0.8c0.1-0.1,0.2-0.3,0.4-0.4
	c0.1-0.1,0.3-0.3,0.5-0.4s0.5-0.2,0.8-0.2c0.7,0,1.2,0.2,1.5,0.6s0.5,0.9,0.5,1.6v3.1h-1v-3c0-0.5-0.1-0.8-0.3-1
	c-0.2-0.2-0.5-0.3-0.9-0.3s-0.7,0.1-0.9,0.3c-0.2,0.2-0.4,0.4-0.5,0.7c-0.1,0.3-0.1,0.6-0.1,1L66.1,111L66.1,111z M70.8,110.4
	l0.6-0.7c0.2,0.2,0.4,0.3,0.7,0.4c0.3,0.1,0.6,0.2,0.9,0.2s0.6-0.1,0.8-0.2c0.2-0.1,0.3-0.3,0.3-0.5s0-0.3-0.1-0.4s-0.2-0.2-0.5-0.3
	c-0.2-0.1-0.5-0.2-0.9-0.3c-0.3-0.1-0.5-0.2-0.8-0.3c-0.2-0.1-0.5-0.3-0.6-0.5c-0.2-0.2-0.2-0.5-0.2-0.8s0.1-0.6,0.3-0.8
	c0.2-0.2,0.5-0.4,0.8-0.5s0.6-0.2,1-0.2s0.8,0.1,1.1,0.2c0.3,0.1,0.6,0.3,0.8,0.5l-0.5,0.7c-0.2-0.1-0.3-0.3-0.6-0.4
	c-0.2-0.1-0.5-0.1-0.8-0.1s-0.6,0.1-0.8,0.2c-0.2,0.1-0.3,0.3-0.3,0.5s0.1,0.4,0.4,0.5s0.6,0.2,1,0.3c0.3,0.1,0.6,0.2,0.9,0.3
	c0.3,0.1,0.5,0.3,0.6,0.5c0.2,0.2,0.2,0.5,0.2,0.8s-0.1,0.6-0.3,0.9c-0.2,0.2-0.5,0.4-0.8,0.5s-0.7,0.2-1,0.2
	C72,111.2,71.3,110.9,70.8,110.4z M76.2,105v-1.1h1.1v1.1H76.2z M76.3,111v-5.1h1v5.1H76.3z M82.4,111v-0.6
	c-0.1,0.1-0.1,0.2-0.3,0.3c-0.1,0.1-0.3,0.3-0.5,0.4s-0.5,0.2-0.8,0.2c-0.4,0-0.8-0.1-1.2-0.3c-0.3-0.2-0.6-0.5-0.8-0.9
	c-0.2-0.4-0.3-0.9-0.3-1.4s0.1-0.9,0.2-1.2c0.2-0.4,0.4-0.6,0.6-0.9s0.5-0.4,0.8-0.5s0.6-0.2,0.9-0.2s0.5,0,0.7,0.1s0.4,0.1,0.6,0.2
	v-2.4h1v6.8c0,0,0,0.1,0,0.2s0,0.2,0,0.3L82.4,111L82.4,111z M82.4,108.8V107c-0.1-0.1-0.3-0.2-0.5-0.3c-0.2-0.1-0.5-0.1-0.7-0.1
	c-0.5,0-0.9,0.2-1.2,0.5c-0.3,0.3-0.5,0.8-0.5,1.4c0,0.3,0.1,0.6,0.2,0.9s0.3,0.5,0.5,0.6c0.2,0.2,0.5,0.2,0.8,0.2s0.6-0.1,0.8-0.2
	c0.2-0.2,0.4-0.4,0.5-0.6C82.3,109.3,82.4,109,82.4,108.8z M88.9,109.7l0.6,0.6c-0.1,0.1-0.2,0.2-0.4,0.4c-0.2,0.1-0.4,0.3-0.7,0.4
	c-0.3,0.1-0.7,0.2-1.1,0.2c-0.5,0-1-0.1-1.4-0.3c-0.4-0.2-0.7-0.6-0.9-1c-0.2-0.4-0.3-0.9-0.3-1.4s0.1-0.9,0.3-1.4
	c0.2-0.4,0.5-0.7,0.9-1c0.4-0.2,0.8-0.4,1.3-0.4c0.6,0,1.1,0.1,1.4,0.4c0.4,0.3,0.6,0.7,0.8,1.1c0.2,0.5,0.3,0.9,0.3,1.5h-4
	c0,0.3,0.1,0.6,0.2,0.8c0.2,0.2,0.4,0.4,0.6,0.6c0.3,0.1,0.5,0.2,0.8,0.2c0.4,0,0.8-0.1,1.1-0.2C88.5,109.9,88.7,109.8,88.9,109.7z
	 M85.5,108h3c0-0.4-0.2-0.7-0.4-1c-0.2-0.3-0.6-0.4-1.1-0.4c-0.3,0-0.6,0.1-0.8,0.2c-0.2,0.1-0.4,0.3-0.5,0.5
	C85.6,107.5,85.5,107.8,85.5,108z M91.6,111h-1v-4.6c0-0.1,0-0.1,0-0.2s0-0.2,0-0.3h0.9v0.8c0.1-0.1,0.2-0.2,0.3-0.4
	c0.1-0.1,0.3-0.3,0.5-0.4s0.5-0.2,0.8-0.2c0.1,0,0.2,0,0.3,0c0.1,0,0.2,0,0.3,0.1l-0.2,0.9c-0.1-0.1-0.3-0.1-0.5-0.1
	c-0.3,0-0.5,0.1-0.8,0.2c-0.2,0.1-0.4,0.3-0.5,0.6c-0.1,0.2-0.2,0.5-0.2,0.8L91.6,111L91.6,111z M97.1,109.3v-2.6h-0.9v-0.8h0.9
	v-1.7h1v1.7h1.5v0.8h-1.5v2.5c0,0.4,0.1,0.7,0.2,0.8c0.1,0.2,0.3,0.2,0.5,0.2s0.3,0,0.5-0.1c0.1-0.1,0.3-0.1,0.4-0.3l0.5,0.6
	c-0.2,0.2-0.4,0.4-0.7,0.4c-0.2,0.1-0.5,0.1-0.8,0.1c-0.5,0-0.9-0.1-1.2-0.4C97.2,110.4,97.1,109.9,97.1,109.3z M100.9,111v-7.3h1v3
	c0.1-0.1,0.2-0.3,0.3-0.4c0.1-0.1,0.3-0.3,0.6-0.4c0.2-0.1,0.5-0.1,0.8-0.1c0.7,0,1.2,0.2,1.5,0.6s0.5,0.9,0.5,1.6v3.1h-1v-3
	c0-0.5-0.1-0.8-0.3-1c-0.2-0.2-0.5-0.3-0.9-0.3s-0.7,0.1-0.9,0.3c-0.2,0.2-0.4,0.4-0.5,0.7c-0.1,0.3-0.1,0.6-0.1,1v2.4h-1V111z
	 M110.9,109.7l0.6,0.6c-0.1,0.1-0.2,0.2-0.4,0.4c-0.2,0.1-0.4,0.3-0.7,0.4c-0.3,0.1-0.7,0.2-1.1,0.2c-0.5,0-1-0.1-1.4-0.3
	c-0.4-0.2-0.7-0.6-0.9-1c-0.2-0.4-0.3-0.9-0.3-1.4s0.1-0.9,0.3-1.4c0.2-0.4,0.5-0.7,0.9-1c0.4-0.2,0.8-0.4,1.3-0.4
	c0.6,0,1.1,0.1,1.4,0.4c0.4,0.3,0.6,0.7,0.8,1.1c0.2,0.5,0.3,0.9,0.3,1.5h-4c0,0.3,0.1,0.6,0.2,0.8c0.2,0.2,0.4,0.4,0.6,0.6
	c0.3,0.1,0.5,0.2,0.8,0.2c0.4,0,0.8-0.1,1.1-0.2C110.6,109.9,110.8,109.8,110.9,109.7z M107.6,108h3c0-0.4-0.2-0.7-0.4-1
	c-0.2-0.3-0.6-0.4-1.1-0.4c-0.3,0-0.6,0.1-0.8,0.2c-0.2,0.1-0.4,0.3-0.5,0.5C107.7,107.5,107.6,107.8,107.6,108z M11.7,122h-1v-4.6
	c0-0.1,0-0.1,0-0.2s0-0.2,0-0.3h0.9v0.8c0.1-0.1,0.2-0.2,0.3-0.4c0.1-0.1,0.3-0.3,0.6-0.4c0.2-0.1,0.5-0.2,0.8-0.2
	c0.1,0,0.2,0,0.3,0s0.2,0,0.3,0.1l-0.2,0.9c-0.1-0.1-0.3-0.1-0.5-0.1c-0.3,0-0.5,0.1-0.8,0.2c-0.2,0.1-0.4,0.3-0.5,0.6
	s-0.2,0.5-0.2,0.8C11.7,119.2,11.7,122,11.7,122z M18.5,120.7l0.6,0.6c-0.1,0.1-0.2,0.2-0.4,0.4c-0.2,0.1-0.4,0.3-0.7,0.4
	c-0.3,0.1-0.7,0.2-1.1,0.2c-0.5,0-1-0.1-1.4-0.3c-0.4-0.2-0.7-0.6-0.9-1s-0.3-0.9-0.3-1.4s0.1-0.9,0.3-1.4c0.2-0.4,0.5-0.7,0.9-1
	c0.4-0.2,0.8-0.4,1.3-0.4c0.6,0,1.1,0.1,1.4,0.4c0.4,0.3,0.6,0.7,0.8,1.1c0.2,0.5,0.3,0.9,0.3,1.5h-4c0,0.3,0.1,0.6,0.2,0.8
	c0.2,0.2,0.4,0.4,0.6,0.6c0.3,0.1,0.5,0.2,0.8,0.2c0.4,0,0.8-0.1,1.1-0.2C18.2,120.9,18.4,120.8,18.5,120.7z M15.2,119h3
	c0-0.4-0.2-0.7-0.4-1c-0.2-0.3-0.6-0.4-1.1-0.4c-0.3,0-0.6,0.1-0.8,0.2s-0.4,0.3-0.5,0.5C15.2,118.5,15.2,118.8,15.2,119z M20.3,122
	v-7.3h1v7.3H20.3z M26.7,120.7l0.6,0.6c-0.1,0.1-0.2,0.2-0.4,0.4c-0.2,0.1-0.4,0.3-0.7,0.4c-0.3,0.1-0.7,0.2-1.1,0.2
	c-0.5,0-1-0.1-1.4-0.3c-0.4-0.2-0.7-0.6-0.9-1c-0.2-0.4-0.3-0.9-0.3-1.4s0.1-0.9,0.3-1.4c0.2-0.4,0.5-0.7,0.9-1
	c0.4-0.2,0.8-0.4,1.3-0.4c0.6,0,1.1,0.1,1.4,0.4c0.4,0.3,0.6,0.7,0.8,1.1c0.2,0.5,0.3,0.9,0.3,1.5h-4c0,0.3,0.1,0.6,0.2,0.8
	c0.2,0.2,0.4,0.4,0.6,0.6c0.3,0.1,0.5,0.2,0.8,0.2c0.4,0,0.8-0.1,1.1-0.2C26.4,120.9,26.6,120.8,26.7,120.7z M23.4,119h3
	c0-0.4-0.2-0.7-0.4-1c-0.2-0.3-0.6-0.4-1.1-0.4c-0.3,0-0.6,0.1-0.8,0.2c-0.2,0.1-0.4,0.3-0.5,0.5C23.5,118.5,23.4,118.8,23.4,119z
	 M29.9,122l-2.2-5.1h1.1l1.6,4l1.6-4h1.1l-2.2,5.1H29.9z M36.9,122v-0.6c-0.2,0.2-0.4,0.4-0.8,0.6c-0.3,0.1-0.6,0.2-1,0.2
	c-0.3,0-0.6-0.1-0.8-0.2c-0.3-0.1-0.5-0.3-0.7-0.5s-0.3-0.5-0.3-0.9c0-0.5,0.2-1,0.6-1.3c0.4-0.3,0.9-0.5,1.7-0.5c0.2,0,0.3,0,0.5,0
	s0.3,0,0.5,0c0.1,0,0.2,0,0.3,0v-0.2c0-0.4-0.1-0.7-0.4-0.8c-0.2-0.2-0.5-0.3-0.9-0.3s-0.7,0.1-0.9,0.2s-0.4,0.2-0.6,0.3l-0.5-0.7
	c0.2-0.1,0.4-0.3,0.8-0.4s0.8-0.2,1.3-0.2c0.7,0,1.2,0.2,1.6,0.5c0.4,0.3,0.6,0.8,0.6,1.4v3c0,0.1,0,0.1,0,0.2s0,0.2,0,0.3L36.9,122
	L36.9,122z M36.8,120.2v-0.6c0,0-0.1,0-0.3,0c-0.1,0-0.3,0-0.5,0s-0.3,0-0.5,0c-0.4,0-0.6,0.1-0.8,0.2s-0.3,0.2-0.4,0.4
	c-0.1,0.2-0.1,0.3-0.1,0.5c0,0.3,0.1,0.5,0.3,0.6s0.5,0.2,0.8,0.2s0.5-0.1,0.7-0.2s0.4-0.3,0.5-0.5
	C36.7,120.6,36.8,120.4,36.8,120.2z M40.1,122h-1v-4.6c0-0.1,0-0.1,0-0.2s0-0.2,0-0.3H40v0.8c0.1-0.1,0.2-0.3,0.4-0.4
	c0.1-0.1,0.3-0.3,0.5-0.4s0.5-0.2,0.8-0.2c0.7,0,1.2,0.2,1.5,0.6s0.5,0.9,0.5,1.6v3.1h-1v-3c0-0.5-0.1-0.8-0.3-1s-0.5-0.3-0.9-0.3
	s-0.7,0.1-0.9,0.3c-0.2,0.2-0.4,0.4-0.5,0.7c-0.1,0.3-0.1,0.6-0.1,1L40.1,122L40.1,122z M45.5,120.3v-2.6h-0.9v-0.8h0.9v-1.7h1v1.7
	H48v0.8h-1.5v2.5c0,0.4,0.1,0.7,0.2,0.8c0.1,0.2,0.3,0.2,0.5,0.2s0.3,0,0.5-0.1c0.1-0.1,0.3-0.1,0.4-0.3l0.5,0.6
	c-0.2,0.2-0.4,0.4-0.7,0.4c-0.2,0.1-0.5,0.1-0.8,0.1c-0.5,0-0.9-0.1-1.2-0.4C45.7,121.4,45.5,120.9,45.5,120.3z M51.5,122v-7.3h2.3
	c0.5,0,0.9,0.1,1.2,0.2s0.6,0.3,0.8,0.5s0.3,0.5,0.4,0.7c0.1,0.3,0.1,0.5,0.1,0.8c0,0.5-0.1,0.9-0.3,1.2c-0.2,0.3-0.5,0.6-0.9,0.7
	s-0.8,0.3-1.3,0.3h-1.3v2.9C52.5,122,51.5,122,51.5,122z M52.5,118.2h1.3c0.5,0,0.8-0.1,1-0.4c0.2-0.2,0.4-0.6,0.4-1s-0.1-0.7-0.4-1
	c-0.2-0.2-0.6-0.4-1-0.4h-1.3V118.2z M57.7,122v-7.3h2.5c0.8,0,1.5,0.1,2.1,0.4s1.1,0.7,1.4,1.2c0.3,0.5,0.5,1.2,0.5,2.1
	c0,0.8-0.2,1.5-0.5,2s-0.8,0.9-1.4,1.2c-0.6,0.3-1.3,0.4-2.1,0.4C60.2,122,57.7,122,57.7,122z M58.7,121.1h1.4
	c0.9,0,1.6-0.2,2.1-0.7s0.8-1.1,0.8-2s-0.2-1.6-0.7-2c-0.5-0.5-1.2-0.7-2.2-0.7h-1.3L58.7,121.1L58.7,121.1z M65.1,120.9l0.7-0.7
	c0.1,0.2,0.3,0.3,0.5,0.5s0.4,0.3,0.6,0.4s0.5,0.2,0.8,0.2c0.5,0,0.9-0.1,1.1-0.3c0.3-0.2,0.4-0.5,0.4-0.9s-0.2-0.7-0.5-0.9
	c-0.3-0.2-0.7-0.4-1.3-0.5c-0.6-0.1-1.1-0.4-1.5-0.7c-0.4-0.4-0.6-0.8-0.6-1.4c0-0.4,0.1-0.7,0.3-1c0.2-0.3,0.5-0.6,0.8-0.7
	c0.4-0.2,0.8-0.3,1.4-0.3c0.5,0,0.9,0.1,1.2,0.2c0.3,0.1,0.6,0.3,0.7,0.4c0.2,0.2,0.3,0.3,0.4,0.4l-0.7,0.6
	c-0.1-0.1-0.2-0.2-0.3-0.3s-0.3-0.2-0.5-0.3c-0.2-0.1-0.5-0.1-0.8-0.1s-0.6,0.1-0.8,0.2c-0.2,0.1-0.3,0.2-0.4,0.4
	c-0.1,0.2-0.1,0.3-0.1,0.5c0,0.4,0.2,0.6,0.5,0.8c0.3,0.2,0.7,0.3,1.3,0.5c0.4,0.1,0.7,0.2,1,0.4c0.3,0.2,0.6,0.4,0.8,0.7
	c0.2,0.3,0.3,0.7,0.3,1.2c0,0.4-0.1,0.8-0.3,1.1s-0.5,0.6-0.9,0.8c-0.4,0.2-0.8,0.3-1.3,0.3s-0.9-0.1-1.2-0.2
	c-0.4-0.1-0.7-0.3-0.9-0.5C65.4,121.3,65.2,121.1,65.1,120.9z M77,122v-0.6c-0.2,0.2-0.4,0.4-0.8,0.6c-0.3,0.1-0.6,0.2-1,0.2
	c-0.3,0-0.6-0.1-0.8-0.2c-0.3-0.1-0.5-0.3-0.7-0.5s-0.3-0.5-0.3-0.9c0-0.5,0.2-1,0.6-1.3s0.9-0.5,1.7-0.5c0.2,0,0.3,0,0.5,0
	s0.3,0,0.5,0c0.1,0,0.2,0,0.3,0v-0.2c0-0.4-0.1-0.7-0.4-0.8c-0.2-0.2-0.5-0.3-0.9-0.3s-0.7,0.1-0.9,0.2c-0.2,0.1-0.4,0.2-0.6,0.3
	l-0.5-0.7c0.2-0.1,0.4-0.3,0.8-0.4c0.3-0.1,0.8-0.2,1.3-0.2c0.7,0,1.2,0.2,1.6,0.5s0.6,0.8,0.6,1.4v3c0,0.1,0,0.1,0,0.2s0,0.2,0,0.3
	L77,122L77,122z M76.9,120.2v-0.6c0,0-0.1,0-0.3,0c-0.1,0-0.3,0-0.5,0s-0.3,0-0.5,0c-0.4,0-0.6,0.1-0.8,0.2
	c-0.2,0.1-0.3,0.2-0.4,0.4c-0.1,0.2-0.1,0.3-0.1,0.5c0,0.3,0.1,0.5,0.3,0.6c0.2,0.1,0.5,0.2,0.8,0.2s0.5-0.1,0.7-0.2
	s0.4-0.3,0.5-0.5C76.9,120.6,76.9,120.4,76.9,120.2z M80.2,122h-1v-4.6c0-0.1,0-0.1,0-0.2s0-0.2,0-0.3h0.9v0.8
	c0.1-0.1,0.2-0.3,0.4-0.4c0.1-0.1,0.3-0.3,0.6-0.4c0.2-0.1,0.5-0.2,0.8-0.2c0.7,0,1.2,0.2,1.5,0.6s0.5,0.9,0.5,1.6v3.1h-1v-3
	c0-0.5-0.1-0.8-0.3-1c-0.2-0.2-0.5-0.3-0.9-0.3s-0.7,0.1-0.9,0.3c-0.2,0.2-0.4,0.4-0.5,0.7c-0.1,0.3-0.1,0.6-0.1,1V122z M88.9,122
	v-0.6c-0.1,0.1-0.1,0.2-0.3,0.3c-0.1,0.1-0.3,0.3-0.5,0.4s-0.5,0.2-0.8,0.2c-0.4,0-0.8-0.1-1.2-0.3c-0.3-0.2-0.6-0.5-0.8-0.9
	c-0.2-0.4-0.3-0.9-0.3-1.4s0.1-0.9,0.2-1.2c0.2-0.4,0.4-0.6,0.6-0.9s0.5-0.4,0.8-0.5s0.6-0.2,0.9-0.2s0.5,0,0.7,0.1s0.4,0.1,0.6,0.2
	v-2.4h1v6.8c0,0,0,0.1,0,0.2s0,0.2,0,0.3L88.9,122L88.9,122z M88.9,119.8V118c-0.1-0.1-0.3-0.2-0.5-0.3c-0.2-0.1-0.5-0.1-0.7-0.1
	c-0.5,0-0.9,0.2-1.2,0.5c-0.3,0.3-0.5,0.8-0.5,1.4c0,0.3,0.1,0.6,0.2,0.9s0.3,0.5,0.5,0.6c0.2,0.2,0.5,0.2,0.8,0.2s0.6-0.1,0.8-0.2
	c0.2-0.2,0.4-0.4,0.5-0.6C88.8,120.3,88.9,120,88.9,119.8z M95.5,122v-6.4h-2.6v-0.9h6.3v0.9h-2.6v6.4H95.5z M100,122l0.3-7.3h1
	l2.2,3.8l2.2-3.8h1l0.3,7.3h-1l-0.2-5.6l-2.1,3.5h-0.5l-2-3.4L101,122H100z M108.8,122v-7.3h2.5c0.8,0,1.5,0.1,2.1,0.4
	s1.1,0.7,1.4,1.2s0.5,1.2,0.5,2.1c0,0.8-0.2,1.5-0.5,2s-0.8,0.9-1.4,1.2c-0.6,0.3-1.3,0.4-2.1,0.4C111.3,122,108.8,122,108.8,122z
	 M109.8,121.1h1.4c0.9,0,1.6-0.2,2.1-0.7s0.8-1.1,0.8-2s-0.2-1.6-0.7-2c-0.5-0.5-1.2-0.7-2.2-0.7h-1.3v5.4H109.8z M13.9,133v-0.6
	c-0.2,0.2-0.4,0.4-0.8,0.6c-0.3,0.1-0.6,0.2-1,0.2c-0.3,0-0.6-0.1-0.8-0.2c-0.3-0.1-0.5-0.3-0.7-0.5s-0.3-0.5-0.3-0.9
	c0-0.6,0.2-1,0.6-1.3c0.4-0.3,0.9-0.5,1.7-0.5c0.2,0,0.3,0,0.5,0s0.3,0,0.5,0c0.1,0,0.2,0,0.3,0v-0.2c0-0.4-0.1-0.7-0.4-0.8
	c-0.2-0.2-0.5-0.3-0.9-0.3s-0.7,0.1-0.9,0.2c-0.2,0.1-0.4,0.2-0.6,0.3l-0.5-0.7c0.2-0.1,0.4-0.3,0.8-0.4c0.3-0.1,0.8-0.2,1.3-0.2
	c0.7,0,1.2,0.2,1.6,0.5c0.4,0.3,0.6,0.8,0.6,1.4v3c0,0.1,0,0.1,0,0.2c0,0.1,0,0.2,0,0.3h-1V133z M13.9,131.2v-0.6c0,0-0.1,0-0.3,0
	c-0.1,0-0.3,0-0.5,0s-0.3,0-0.5,0c-0.4,0-0.6,0.1-0.8,0.2c-0.2,0.1-0.3,0.2-0.4,0.4c-0.1,0.2-0.1,0.3-0.1,0.5c0,0.3,0.1,0.5,0.3,0.6
	s0.5,0.2,0.8,0.2s0.5-0.1,0.7-0.2c0.2-0.1,0.4-0.3,0.5-0.5C13.8,131.6,13.9,131.4,13.9,131.2z M17.5,133l-2.2-5.1h1.1l1.6,4l1.6-4
	h1.1l-2.2,5.1H17.5z M24.5,133v-0.6c-0.2,0.2-0.4,0.4-0.8,0.6c-0.3,0.1-0.6,0.2-1,0.2c-0.3,0-0.6-0.1-0.8-0.2
	c-0.3-0.1-0.5-0.3-0.7-0.5s-0.3-0.5-0.3-0.9c0-0.6,0.2-1,0.6-1.3s0.9-0.5,1.7-0.5c0.2,0,0.3,0,0.5,0s0.3,0,0.5,0c0.1,0,0.2,0,0.3,0
	v-0.2c0-0.4-0.1-0.7-0.4-0.8c-0.2-0.2-0.5-0.3-0.9-0.3s-0.7,0.1-0.9,0.2c-0.2,0.1-0.4,0.2-0.6,0.3l-0.5-0.7c0.2-0.1,0.4-0.3,0.8-0.4
	c0.3-0.1,0.8-0.2,1.3-0.2c0.7,0,1.2,0.2,1.6,0.5c0.4,0.3,0.6,0.8,0.6,1.4v3c0,0.1,0,0.1,0,0.2c0,0.1,0,0.2,0,0.3h-1V133z
	 M24.5,131.2v-0.6c0,0-0.1,0-0.3,0c-0.1,0-0.3,0-0.5,0s-0.3,0-0.5,0c-0.4,0-0.6,0.1-0.8,0.2c-0.2,0.1-0.3,0.2-0.4,0.4
	s-0.1,0.3-0.1,0.5c0,0.3,0.1,0.5,0.3,0.6c0.2,0.1,0.5,0.2,0.8,0.2s0.5-0.1,0.7-0.2c0.2-0.1,0.4-0.3,0.5-0.5
	C24.4,131.6,24.5,131.4,24.5,131.2z M26.7,127v-1.1h1.1v1.1H26.7z M26.8,133v-5.1h1v5.1H26.8z M29.2,133v-7.3h1v7.3H29.2z M34.7,133
	v-0.6c-0.2,0.2-0.4,0.4-0.8,0.6c-0.3,0.1-0.6,0.2-1,0.2c-0.3,0-0.6-0.1-0.8-0.2c-0.3-0.1-0.5-0.3-0.7-0.5s-0.3-0.5-0.3-0.9
	c0-0.6,0.2-1,0.6-1.3s0.9-0.5,1.7-0.5c0.2,0,0.3,0,0.5,0s0.3,0,0.5,0c0.1,0,0.2,0,0.3,0v-0.2c0-0.4-0.1-0.7-0.4-0.8
	c-0.2-0.2-0.5-0.3-0.9-0.3s-0.7,0.1-0.9,0.2c-0.2,0.1-0.4,0.2-0.6,0.3l-0.5-0.7c0.2-0.1,0.4-0.3,0.8-0.4c0.3-0.1,0.8-0.2,1.3-0.2
	c0.7,0,1.2,0.2,1.6,0.5c0.4,0.3,0.6,0.8,0.6,1.4v3c0,0.1,0,0.1,0,0.2c0,0.1,0,0.2,0,0.3h-1V133z M34.7,131.2v-0.6c0,0-0.1,0-0.3,0
	c-0.1,0-0.3,0-0.5,0s-0.3,0-0.5,0c-0.4,0-0.6,0.1-0.8,0.2c-0.2,0.1-0.3,0.2-0.4,0.4c-0.1,0.2-0.1,0.3-0.1,0.5c0,0.3,0.1,0.5,0.3,0.6
	s0.5,0.2,0.8,0.2s0.5-0.1,0.7-0.2c0.2-0.1,0.4-0.3,0.5-0.5C34.6,131.6,34.7,131.4,34.7,131.2z M37,132.8v-7.2h1v2.8
	c0.1-0.1,0.3-0.3,0.6-0.4c0.3-0.2,0.6-0.2,1-0.2c0.5,0,0.9,0.1,1.3,0.4c0.4,0.2,0.6,0.6,0.8,1s0.3,0.8,0.3,1.3s-0.1,1-0.4,1.4
	c-0.2,0.4-0.6,0.7-1,1c-0.4,0.2-0.9,0.4-1.5,0.4c-0.4,0-0.8,0-1.2-0.1C37.5,133,37.2,132.9,37,132.8z M38,130.1v2
	c0.1,0,0.2,0.1,0.4,0.1s0.4,0,0.7,0c0.6,0,1-0.2,1.4-0.5c0.3-0.4,0.5-0.8,0.5-1.3c0-0.3-0.1-0.6-0.2-0.9c-0.1-0.3-0.3-0.5-0.5-0.7
	s-0.5-0.3-0.8-0.3s-0.6,0.1-0.8,0.2c-0.2,0.1-0.4,0.3-0.5,0.6C38,129.6,38,129.9,38,130.1z M43,133v-7.3h1v7.3H43z M49.5,131.7
	l0.6,0.6c-0.1,0.1-0.2,0.2-0.4,0.4c-0.2,0.1-0.4,0.3-0.7,0.4c-0.3,0.1-0.7,0.2-1.1,0.2c-0.5,0-1-0.1-1.4-0.3s-0.7-0.6-0.9-1
	s-0.3-0.9-0.3-1.4s0.1-1,0.3-1.4s0.5-0.7,0.9-1c0.4-0.2,0.8-0.4,1.3-0.4c0.6,0,1.1,0.1,1.4,0.4c0.4,0.3,0.6,0.7,0.8,1.1
	c0.2,0.5,0.3,0.9,0.3,1.5h-4c0,0.3,0.1,0.6,0.2,0.8c0.2,0.2,0.4,0.4,0.6,0.6c0.3,0.1,0.5,0.2,0.8,0.2c0.4,0,0.8-0.1,1.1-0.2
	C49.2,131.9,49.4,131.8,49.5,131.7z M46.1,130h3c0-0.4-0.2-0.7-0.4-1s-0.6-0.4-1.1-0.4c-0.3,0-0.6,0.1-0.8,0.2
	c-0.2,0.1-0.4,0.3-0.5,0.5S46.1,129.8,46.1,130z M56.5,133v-0.6c-0.2,0.2-0.4,0.4-0.8,0.6c-0.3,0.1-0.6,0.2-1,0.2
	c-0.3,0-0.6-0.1-0.8-0.2c-0.3-0.1-0.5-0.3-0.7-0.5s-0.3-0.5-0.3-0.9c0-0.6,0.2-1,0.6-1.3c0.4-0.3,0.9-0.5,1.7-0.5c0.2,0,0.3,0,0.5,0
	s0.3,0,0.5,0c0.1,0,0.2,0,0.3,0v-0.2c0-0.4-0.1-0.7-0.4-0.8c-0.2-0.2-0.5-0.3-0.9-0.3s-0.7,0.1-0.9,0.2c-0.2,0.1-0.4,0.2-0.6,0.3
	l-0.5-0.7c0.2-0.1,0.4-0.3,0.8-0.4c0.3-0.1,0.8-0.2,1.3-0.2c0.7,0,1.2,0.2,1.6,0.5c0.4,0.3,0.6,0.8,0.6,1.4v3c0,0.1,0,0.1,0,0.2
	c0,0.1,0,0.2,0,0.3h-1V133z M56.4,131.2v-0.6c0,0-0.1,0-0.3,0c-0.1,0-0.3,0-0.5,0s-0.3,0-0.5,0c-0.4,0-0.6,0.1-0.8,0.2
	c-0.2,0.1-0.3,0.2-0.4,0.4c-0.1,0.2-0.1,0.3-0.1,0.5c0,0.3,0.1,0.5,0.3,0.6s0.5,0.2,0.8,0.2s0.5-0.1,0.7-0.2
	c0.2-0.1,0.4-0.3,0.5-0.5C56.4,131.6,56.4,131.4,56.4,131.2z M59.2,131.3v-2.6h-0.9v-0.8h0.9v-1.7h1v1.7h1.5v0.8h-1.5v2.5
	c0,0.4,0.1,0.7,0.2,0.8c0.1,0.2,0.3,0.2,0.5,0.2s0.3,0,0.5-0.1c0.1-0.1,0.3-0.1,0.4-0.3l0.5,0.6c-0.2,0.2-0.4,0.4-0.7,0.4
	c-0.2,0.1-0.5,0.1-0.8,0.1c-0.5,0-0.9-0.1-1.2-0.4C59.3,132.4,59.2,131.9,59.2,131.3z M64.9,133v-7.3h1v3c0.1-0.1,0.2-0.3,0.3-0.4
	c0.1-0.1,0.3-0.3,0.6-0.4c0.2-0.1,0.5-0.1,0.8-0.1c0.7,0,1.2,0.2,1.5,0.6c0.3,0.4,0.5,0.9,0.5,1.6v3.1h-1v-3c0-0.5-0.1-0.8-0.3-1
	c-0.2-0.2-0.5-0.3-0.9-0.3s-0.7,0.1-0.9,0.3c-0.2,0.2-0.4,0.4-0.5,0.7s-0.1,0.6-0.1,1v2.4h-1V133z M73.4,133.2c-0.5,0-1-0.1-1.4-0.4
	c-0.4-0.2-0.7-0.6-1-1c-0.2-0.4-0.3-0.9-0.3-1.4s0.1-1,0.3-1.4c0.2-0.4,0.6-0.7,1-1c0.4-0.2,0.9-0.4,1.4-0.4s1,0.1,1.4,0.4
	c0.4,0.2,0.7,0.6,1,1c0.2,0.4,0.4,0.9,0.4,1.4s-0.1,0.9-0.4,1.4c-0.2,0.4-0.6,0.7-1,1C74.4,133,73.9,133.2,73.4,133.2z M73.4,132.3
	c0.4,0,0.7-0.1,0.9-0.3c0.3-0.2,0.5-0.4,0.6-0.7s0.2-0.6,0.2-0.9s-0.1-0.6-0.2-0.9c-0.1-0.3-0.3-0.5-0.6-0.7
	c-0.3-0.2-0.6-0.3-0.9-0.3s-0.7,0.1-0.9,0.3c-0.3,0.2-0.5,0.4-0.6,0.7s-0.2,0.6-0.2,0.9c0,0.3,0.1,0.6,0.2,0.9
	c0.1,0.3,0.3,0.5,0.6,0.7C72.7,132.2,73,132.3,73.4,132.3z M76.9,132.4l0.6-0.7c0.2,0.2,0.4,0.3,0.7,0.4s0.6,0.2,0.9,0.2
	s0.6-0.1,0.8-0.2c0.2-0.1,0.3-0.3,0.3-0.5s0-0.3-0.1-0.4s-0.2-0.2-0.5-0.3c-0.2-0.1-0.5-0.2-0.9-0.3c-0.3-0.1-0.5-0.2-0.8-0.3
	c-0.2-0.1-0.5-0.3-0.6-0.5c-0.2-0.2-0.2-0.5-0.2-0.8s0.1-0.6,0.3-0.8c0.2-0.2,0.5-0.4,0.8-0.5s0.6-0.2,1-0.2s0.8,0.1,1.1,0.2
	c0.3,0.1,0.6,0.3,0.8,0.5l-0.5,0.7c-0.2-0.1-0.3-0.3-0.6-0.4c-0.2-0.1-0.5-0.1-0.8-0.1s-0.6,0.1-0.8,0.2c-0.2,0.1-0.3,0.3-0.3,0.5
	s0.1,0.4,0.4,0.5s0.6,0.2,1,0.3c0.3,0.1,0.6,0.2,0.9,0.3s0.5,0.3,0.6,0.5c0.2,0.2,0.2,0.5,0.2,0.8s-0.1,0.6-0.3,0.9
	c-0.2,0.2-0.5,0.4-0.8,0.5s-0.7,0.2-1,0.2C78.2,133.2,77.4,132.9,76.9,132.4z M82.8,131.3v-2.6h-0.9v-0.8h0.9v-1.7h1v1.7h1.5v0.8
	h-1.5v2.5c0,0.4,0.1,0.7,0.2,0.8c0.1,0.2,0.3,0.2,0.6,0.2c0.2,0,0.3,0,0.5-0.1c0.1-0.1,0.3-0.1,0.4-0.3l0.5,0.6
	c-0.2,0.2-0.4,0.4-0.7,0.4c-0.2,0.1-0.5,0.1-0.8,0.1c-0.5,0-0.9-0.1-1.2-0.4C83,132.4,82.8,131.9,82.8,131.3z M87.6,135.2h-1v-6.8
	c0-0.1,0-0.1,0-0.2c0-0.1,0-0.2,0-0.3h0.9v0.7c0.1-0.1,0.2-0.2,0.3-0.3c0.1-0.1,0.3-0.2,0.6-0.4c0.2-0.1,0.5-0.2,0.8-0.2
	c0.5,0,1,0.1,1.3,0.4c0.3,0.2,0.6,0.6,0.8,1c0.2,0.4,0.3,0.9,0.3,1.3c0,0.5-0.1,0.9-0.2,1.2c-0.2,0.3-0.4,0.6-0.6,0.8
	c-0.3,0.2-0.5,0.4-0.8,0.5s-0.6,0.2-0.9,0.2s-0.6,0-0.8-0.1c-0.2-0.1-0.4-0.1-0.6-0.2v2.4H87.6z M87.6,130.6v1.3
	c0.1,0.1,0.3,0.2,0.5,0.3s0.5,0.1,0.8,0.1s0.6-0.1,0.9-0.2c0.3-0.2,0.5-0.4,0.6-0.7s0.2-0.6,0.2-0.9c0-0.3-0.1-0.6-0.2-0.9
	c-0.1-0.3-0.3-0.5-0.5-0.7s-0.5-0.3-0.9-0.3c-0.3,0-0.6,0.1-0.9,0.3c-0.2,0.2-0.4,0.5-0.5,0.8c0,0.1-0.1,0.2-0.1,0.4
	C87.6,130.3,87.6,130.4,87.6,130.6z M92.8,133v-7.3h1v7.3H92.8z M95.1,131v-3.1h1v3c0,0.5,0.1,0.8,0.3,1s0.5,0.3,0.9,0.3
	s0.7-0.1,0.9-0.3s0.4-0.4,0.5-0.7s0.1-0.6,0.1-1v-2.4h1v4.6c0,0,0,0.1,0,0.2c0,0.1,0,0.2,0,0.3h-0.9v-0.8c-0.1,0.1-0.2,0.2-0.3,0.4
	c-0.1,0.1-0.3,0.2-0.6,0.3c-0.2,0.1-0.5,0.1-0.8,0.1c-0.7,0-1.2-0.2-1.5-0.6C95.2,132.1,95.1,131.6,95.1,131z M100.8,132.4l0.6-0.7
	c0.2,0.2,0.4,0.3,0.7,0.4c0.3,0.1,0.6,0.2,0.9,0.2s0.6-0.1,0.8-0.2c0.2-0.1,0.3-0.3,0.3-0.5s0-0.3-0.1-0.4s-0.2-0.2-0.5-0.3
	c-0.2-0.1-0.5-0.2-0.9-0.3c-0.3-0.1-0.5-0.2-0.8-0.3c-0.2-0.1-0.5-0.3-0.6-0.5c-0.2-0.2-0.2-0.5-0.2-0.8s0.1-0.6,0.3-0.8
	c0.2-0.2,0.5-0.4,0.8-0.5s0.6-0.2,1-0.2s0.8,0.1,1.1,0.2c0.3,0.1,0.6,0.3,0.8,0.5l-0.5,0.7c-0.2-0.1-0.3-0.3-0.6-0.4
	c-0.2-0.1-0.5-0.1-0.8-0.1s-0.6,0.1-0.8,0.2c-0.2,0.1-0.3,0.3-0.3,0.5s0.1,0.4,0.4,0.5s0.6,0.2,1,0.3c0.3,0.1,0.6,0.2,0.9,0.3
	s0.5,0.3,0.6,0.5c0.2,0.2,0.2,0.5,0.2,0.8s-0.1,0.6-0.3,0.9c-0.2,0.2-0.5,0.4-0.8,0.5s-0.7,0.2-1,0.2
	C102,133.2,101.3,132.9,100.8,132.4z M106.1,133v-1.2h1.2v1.2H106.1z M112.2,131.7l0.6,0.6c-0.2,0.3-0.5,0.5-0.8,0.6
	c-0.3,0.2-0.7,0.2-1.2,0.2s-1-0.1-1.4-0.4c-0.4-0.2-0.7-0.6-0.9-1c-0.2-0.4-0.3-0.9-0.3-1.4s0.1-1,0.3-1.4c0.2-0.4,0.5-0.7,0.9-1
	c0.4-0.2,0.9-0.4,1.4-0.4c0.4,0,0.8,0.1,1.1,0.2c0.3,0.2,0.6,0.4,0.8,0.6l-0.6,0.6c-0.2-0.2-0.3-0.3-0.6-0.5
	c-0.2-0.1-0.5-0.2-0.8-0.2c-0.4,0-0.7,0.1-0.9,0.3c-0.2,0.2-0.4,0.4-0.6,0.7c-0.1,0.3-0.2,0.6-0.2,0.9c0,0.3,0.1,0.6,0.2,0.9
	c0.1,0.3,0.3,0.5,0.6,0.7c0.2,0.2,0.6,0.3,0.9,0.3s0.6-0.1,0.8-0.2C111.9,132,112.1,131.8,112.2,131.7z M116,133.2
	c-0.5,0-1-0.1-1.4-0.4c-0.4-0.2-0.7-0.6-1-1c-0.2-0.4-0.3-0.9-0.3-1.4s0.1-1,0.3-1.4c0.2-0.4,0.6-0.7,1-1c0.4-0.2,0.9-0.4,1.4-0.4
	s1,0.1,1.4,0.4c0.4,0.2,0.7,0.6,1,1c0.2,0.4,0.4,0.9,0.4,1.4s-0.1,0.9-0.4,1.4c-0.2,0.4-0.6,0.7-1,1
	C116.9,133,116.5,133.2,116,133.2z M116,132.3c0.4,0,0.7-0.1,0.9-0.3c0.3-0.2,0.5-0.4,0.6-0.7s0.2-0.6,0.2-0.9s-0.1-0.6-0.2-0.9
	c-0.1-0.3-0.3-0.5-0.6-0.7c-0.3-0.2-0.6-0.3-0.9-0.3s-0.7,0.1-0.9,0.3c-0.3,0.2-0.5,0.4-0.6,0.7s-0.2,0.6-0.2,0.9
	c0,0.3,0.1,0.6,0.2,0.9c0.1,0.3,0.3,0.5,0.6,0.7C115.3,132.2,115.6,132.3,116,132.3z M120.8,133h-1v-4.6c0-0.1,0-0.1,0-0.2
	c0-0.1,0-0.2,0-0.3h0.9v0.8c0.1-0.1,0.2-0.3,0.3-0.4c0.1-0.1,0.3-0.3,0.5-0.4s0.5-0.2,0.8-0.2c0.4,0,0.7,0.1,1,0.2
	c0.3,0.2,0.5,0.4,0.6,0.7c0.2-0.2,0.5-0.5,0.8-0.6c0.3-0.2,0.7-0.3,1.1-0.3c0.7,0,1.1,0.2,1.5,0.6c0.3,0.4,0.5,0.9,0.5,1.6v3.1h-1
	v-3c0-0.9-0.4-1.4-1.1-1.4c-0.3,0-0.5,0.1-0.7,0.2c-0.2,0.1-0.4,0.3-0.5,0.6c-0.1,0.2-0.2,0.5-0.2,0.8v2.8h-1v-3
	c0-0.5-0.1-0.8-0.3-1c-0.2-0.2-0.5-0.3-0.8-0.3c-0.4,0-0.6,0.1-0.9,0.3c-0.2,0.2-0.4,0.5-0.5,0.8s-0.1,0.6-0.1,0.9L120.8,133
	L120.8,133z M129.2,133v-1.2h1.2v1.2H129.2z M135.2,133v-0.6c-0.2,0.2-0.4,0.4-0.8,0.6c-0.3,0.1-0.6,0.2-1,0.2
	c-0.3,0-0.6-0.1-0.8-0.2c-0.3-0.1-0.5-0.3-0.7-0.5s-0.3-0.5-0.3-0.9c0-0.6,0.2-1,0.6-1.3c0.4-0.3,0.9-0.5,1.7-0.5c0.2,0,0.3,0,0.5,0
	s0.3,0,0.5,0c0.1,0,0.2,0,0.3,0v-0.2c0-0.4-0.1-0.7-0.4-0.8c-0.2-0.2-0.5-0.3-0.9-0.3s-0.7,0.1-0.9,0.2c-0.2,0.1-0.4,0.2-0.6,0.3
	l-0.5-0.7c0.2-0.1,0.4-0.3,0.8-0.4c0.3-0.1,0.8-0.2,1.3-0.2c0.7,0,1.2,0.2,1.6,0.5c0.4,0.3,0.6,0.8,0.6,1.4v3c0,0.1,0,0.1,0,0.2
	c0,0.1,0,0.2,0,0.3h-1V133z M135.1,131.2v-0.6c0,0-0.1,0-0.3,0c-0.1,0-0.3,0-0.5,0s-0.3,0-0.5,0c-0.4,0-0.6,0.1-0.8,0.2
	c-0.2,0.1-0.3,0.2-0.4,0.4c-0.1,0.2-0.1,0.3-0.1,0.5c0,0.3,0.1,0.5,0.3,0.6s0.5,0.2,0.8,0.2s0.5-0.1,0.7-0.2
	c0.2-0.1,0.4-0.3,0.5-0.5C135.1,131.6,135.1,131.4,135.1,131.2z M137.4,131v-3.1h1v3c0,0.5,0.1,0.8,0.3,1s0.5,0.3,0.9,0.3
	s0.7-0.1,0.9-0.3s0.4-0.4,0.5-0.7s0.1-0.6,0.1-1v-2.4h1v4.6c0,0,0,0.1,0,0.2c0,0.1,0,0.2,0,0.3h-0.9v-0.8c-0.1,0.1-0.2,0.2-0.3,0.4
	c-0.1,0.1-0.3,0.2-0.6,0.3c-0.2,0.1-0.5,0.1-0.8,0.1c-0.7,0-1.2-0.2-1.5-0.6C137.6,132.1,137.4,131.6,137.4,131z M10.7,143.8v-7.2h1
	v2.8c0.1-0.1,0.3-0.3,0.6-0.4c0.3-0.2,0.6-0.2,1-0.2c0.5,0,0.9,0.1,1.3,0.4c0.4,0.2,0.6,0.6,0.8,1s0.3,0.8,0.3,1.3s-0.1,1-0.4,1.4
	c-0.2,0.4-0.6,0.7-1,1c-0.4,0.2-0.9,0.4-1.5,0.4c-0.4,0-0.8,0-1.2-0.1C11.2,144,10.9,143.9,10.7,143.8z M11.7,141.1v2
	c0.1,0,0.2,0.1,0.4,0.1s0.4,0,0.7,0c0.6,0,1-0.2,1.4-0.5c0.3-0.4,0.5-0.8,0.5-1.3c0-0.3-0.1-0.6-0.2-0.9c-0.1-0.3-0.3-0.5-0.5-0.7
	s-0.5-0.3-0.8-0.3s-0.6,0.1-0.8,0.2c-0.2,0.1-0.4,0.3-0.5,0.6C11.7,140.6,11.7,140.9,11.7,141.1z M20.8,142.7l0.6,0.6
	c-0.1,0.1-0.2,0.2-0.4,0.4c-0.2,0.1-0.4,0.3-0.7,0.4c-0.3,0.1-0.7,0.2-1.1,0.2c-0.5,0-1-0.1-1.4-0.3s-0.7-0.6-0.9-1
	c-0.2-0.4-0.3-0.9-0.3-1.4s0.1-1,0.3-1.4c0.2-0.4,0.5-0.7,0.9-1c0.4-0.2,0.8-0.4,1.3-0.4c0.6,0,1.1,0.1,1.4,0.4
	c0.4,0.3,0.6,0.7,0.8,1.1c0.2,0.5,0.3,0.9,0.3,1.5h-4c0,0.3,0.1,0.6,0.2,0.8c0.2,0.2,0.4,0.4,0.6,0.6c0.3,0.1,0.5,0.2,0.8,0.2
	c0.4,0,0.8-0.1,1.1-0.2C20.5,142.9,20.7,142.8,20.8,142.7z M17.5,141h3c0-0.4-0.2-0.7-0.4-1c-0.2-0.3-0.6-0.4-1.1-0.4
	c-0.3,0-0.6,0.1-0.8,0.2c-0.2,0.1-0.4,0.3-0.5,0.5C17.5,140.5,17.5,140.8,17.5,141z M23,144v-4.3h-0.9v-0.8H23v-0.4
	c0-0.5,0.1-0.8,0.3-1.1c0.2-0.3,0.4-0.5,0.7-0.6c0.3-0.1,0.6-0.2,0.9-0.2s0.5,0,0.8,0.1s0.5,0.2,0.7,0.4l-0.5,0.6
	c-0.3-0.2-0.6-0.3-0.9-0.3s-0.5,0.1-0.7,0.3s-0.3,0.5-0.3,0.9v0.3h1.5v0.8H24v4.3H23z M28.5,144.2c-0.5,0-1-0.1-1.4-0.4
	c-0.4-0.2-0.7-0.6-1-1c-0.2-0.4-0.3-0.9-0.3-1.4s0.1-1,0.3-1.4c0.2-0.4,0.6-0.7,1-1c0.4-0.2,0.9-0.4,1.4-0.4s1,0.1,1.4,0.4
	c0.4,0.2,0.7,0.6,1,1c0.2,0.4,0.4,0.9,0.4,1.4s-0.1,0.9-0.4,1.4c-0.2,0.4-0.6,0.7-1,1C29.5,144,29,144.2,28.5,144.2z M28.5,143.3
	c0.4,0,0.7-0.1,0.9-0.3c0.3-0.2,0.5-0.4,0.6-0.7s0.2-0.6,0.2-0.9s-0.1-0.6-0.2-0.9c-0.1-0.3-0.3-0.5-0.6-0.7
	c-0.3-0.2-0.6-0.3-0.9-0.3s-0.7,0.1-0.9,0.3c-0.3,0.2-0.5,0.4-0.6,0.7s-0.2,0.6-0.2,0.9c0,0.3,0.1,0.6,0.2,0.9
	c0.1,0.3,0.3,0.5,0.6,0.7C27.8,143.2,28.1,143.3,28.5,143.3z M33.3,144h-1v-4.6c0-0.1,0-0.1,0-0.2c0-0.1,0-0.2,0-0.3h0.9v0.8
	c0.1-0.1,0.2-0.2,0.3-0.4c0.1-0.1,0.3-0.3,0.5-0.4c0.2-0.1,0.5-0.2,0.8-0.2c0.1,0,0.2,0,0.3,0s0.2,0,0.3,0.1l-0.2,0.9
	c-0.1-0.1-0.3-0.1-0.5-0.1c-0.3,0-0.5,0.1-0.8,0.2c-0.2,0.1-0.4,0.3-0.5,0.6s-0.2,0.5-0.2,0.8v2.8H33.3z M40.1,142.7l0.6,0.6
	c-0.1,0.1-0.2,0.2-0.4,0.4c-0.2,0.1-0.4,0.3-0.7,0.4c-0.3,0.1-0.7,0.2-1.1,0.2c-0.5,0-1-0.1-1.4-0.3s-0.7-0.6-0.9-1
	s-0.3-0.9-0.3-1.4s0.1-1,0.3-1.4s0.5-0.7,0.9-1c0.4-0.2,0.8-0.4,1.3-0.4c0.6,0,1.1,0.1,1.4,0.4c0.4,0.3,0.6,0.7,0.8,1.1
	s0.3,0.9,0.3,1.5h-4c0,0.3,0.1,0.6,0.2,0.8c0.2,0.2,0.4,0.4,0.6,0.6c0.3,0.1,0.5,0.2,0.8,0.2c0.4,0,0.8-0.1,1.1-0.2
	C39.8,142.9,40,142.8,40.1,142.7z M36.8,141h3c0-0.4-0.2-0.7-0.4-1s-0.6-0.4-1.1-0.4c-0.3,0-0.6,0.1-0.8,0.2
	c-0.2,0.1-0.4,0.3-0.5,0.5S36.8,140.8,36.8,141z M44.9,144h-1v-4.6c0-0.1,0-0.1,0-0.2c0-0.1,0-0.2,0-0.3h0.9v0.8
	c0.1-0.1,0.2-0.3,0.3-0.4c0.1-0.1,0.3-0.3,0.5-0.4c0.2-0.1,0.5-0.2,0.8-0.2c0.4,0,0.7,0.1,1,0.2c0.3,0.2,0.5,0.4,0.6,0.7
	c0.2-0.2,0.5-0.5,0.8-0.6c0.3-0.2,0.7-0.3,1.1-0.3c0.7,0,1.1,0.2,1.5,0.6c0.3,0.4,0.5,0.9,0.5,1.6v3.1h-1v-3c0-0.9-0.4-1.4-1.1-1.4
	c-0.3,0-0.5,0.1-0.7,0.2c-0.2,0.1-0.4,0.3-0.5,0.6c-0.1,0.2-0.2,0.5-0.2,0.8v2.8h-1v-3c0-0.5-0.1-0.8-0.3-1s-0.5-0.3-0.8-0.3
	c-0.4,0-0.6,0.1-0.9,0.3c-0.2,0.2-0.4,0.5-0.5,0.8s-0.1,0.6-0.1,0.9v2.3H44.9z M56.5,144v-0.6c-0.2,0.2-0.4,0.4-0.8,0.6
	c-0.3,0.1-0.6,0.2-1,0.2c-0.3,0-0.6-0.1-0.8-0.2c-0.3-0.1-0.5-0.3-0.7-0.5s-0.3-0.5-0.3-0.9c0-0.6,0.2-1,0.6-1.3
	c0.4-0.3,0.9-0.5,1.7-0.5c0.2,0,0.3,0,0.5,0s0.3,0,0.5,0c0.1,0,0.2,0,0.3,0v-0.2c0-0.4-0.1-0.7-0.4-0.8c-0.2-0.2-0.5-0.3-0.9-0.3
	s-0.7,0.1-0.9,0.2c-0.2,0.1-0.4,0.2-0.6,0.3l-0.5-0.7c0.2-0.1,0.4-0.3,0.8-0.4c0.3-0.1,0.8-0.2,1.3-0.2c0.7,0,1.2,0.2,1.6,0.5
	c0.4,0.3,0.6,0.8,0.6,1.4v3c0,0.1,0,0.1,0,0.2c0,0.1,0,0.2,0,0.3h-1V144z M56.5,142.2v-0.6c0,0-0.1,0-0.3,0c-0.1,0-0.3,0-0.5,0
	s-0.3,0-0.5,0c-0.4,0-0.6,0.1-0.8,0.2c-0.2,0.1-0.3,0.2-0.4,0.4c-0.1,0.2-0.1,0.3-0.1,0.5c0,0.3,0.1,0.5,0.3,0.6s0.5,0.2,0.8,0.2
	s0.5-0.1,0.7-0.2c0.2-0.1,0.4-0.3,0.5-0.5C56.4,142.6,56.5,142.4,56.5,142.2z M58.8,144v-7.3h1v4.3l2.1-2.1h1.2l-1.9,1.9l2.2,3.2
	h-1.2l-1.7-2.6l-0.7,0.7v1.9L58.8,144L58.8,144z M64.1,138v-1.1h1.1v1.1H64.1z M64.2,144v-5.1h1v5.1H64.2z M67.6,144h-1v-4.6
	c0-0.1,0-0.1,0-0.2c0-0.1,0-0.2,0-0.3h0.9v0.8c0.1-0.1,0.2-0.3,0.4-0.4c0.1-0.1,0.3-0.3,0.6-0.4c0.2-0.1,0.5-0.2,0.8-0.2
	c0.7,0,1.2,0.2,1.5,0.6c0.3,0.4,0.5,0.9,0.5,1.6v3.1h-1v-3c0-0.5-0.1-0.8-0.3-1c-0.2-0.2-0.5-0.3-0.9-0.3s-0.7,0.1-0.9,0.3
	c-0.2,0.2-0.4,0.4-0.5,0.7s-0.1,0.6-0.1,1V144z M72.8,145.8l0.5-0.7c0.2,0.1,0.4,0.2,0.6,0.3s0.6,0.1,0.9,0.1c0.5,0,0.9-0.1,1.1-0.4
	c0.2-0.3,0.4-0.6,0.4-1.1v-0.6c-0.1,0.1-0.2,0.1-0.3,0.3c-0.1,0.1-0.3,0.2-0.5,0.3s-0.5,0.1-0.8,0.1c-0.5,0-0.9-0.1-1.3-0.3
	c-0.3-0.2-0.6-0.5-0.8-0.9c-0.2-0.4-0.3-0.8-0.3-1.3s0.1-1,0.4-1.4c0.2-0.4,0.6-0.7,1-1c0.4-0.2,0.9-0.4,1.5-0.4
	c0.4,0,0.8,0,1.2,0.1c0.4,0.1,0.7,0.2,0.9,0.2v4.9c0,0.7-0.2,1.3-0.6,1.7s-1,0.6-1.8,0.6c-0.5,0-0.9-0.1-1.2-0.2
	C73.2,146,73,145.9,72.8,145.8z M76.2,141.9v-2.1c-0.1,0-0.2-0.1-0.3-0.1c-0.2,0-0.4-0.1-0.7-0.1c-0.4,0-0.7,0.1-1,0.2
	c-0.3,0.2-0.5,0.4-0.7,0.6c-0.2,0.3-0.2,0.6-0.2,1c0,0.3,0,0.6,0.1,0.8c0.1,0.3,0.3,0.5,0.5,0.6c0.2,0.2,0.5,0.2,0.8,0.2
	s0.6-0.1,0.8-0.2c0.2-0.1,0.4-0.3,0.5-0.5C76.2,142.3,76.2,142.1,76.2,141.9z M83.8,144v-0.6c-0.2,0.2-0.4,0.4-0.8,0.6
	c-0.3,0.1-0.6,0.2-1,0.2c-0.3,0-0.6-0.1-0.8-0.2c-0.3-0.1-0.5-0.3-0.7-0.5s-0.3-0.5-0.3-0.9c0-0.6,0.2-1,0.6-1.3s0.9-0.5,1.7-0.5
	c0.2,0,0.3,0,0.5,0s0.3,0,0.5,0c0.1,0,0.2,0,0.3,0v-0.2c0-0.4-0.1-0.7-0.4-0.8c-0.2-0.2-0.5-0.3-0.9-0.3s-0.7,0.1-0.9,0.2
	c-0.2,0.1-0.4,0.2-0.6,0.3l-0.5-0.7c0.2-0.1,0.4-0.3,0.8-0.4c0.3-0.1,0.8-0.2,1.3-0.2c0.7,0,1.2,0.2,1.6,0.5s0.6,0.8,0.6,1.4v3
	c0,0.1,0,0.1,0,0.2c0,0.1,0,0.2,0,0.3h-1V144z M83.8,142.2v-0.6c0,0-0.1,0-0.3,0c-0.1,0-0.3,0-0.5,0s-0.3,0-0.5,0
	c-0.4,0-0.6,0.1-0.8,0.2c-0.2,0.1-0.3,0.2-0.4,0.4s-0.1,0.3-0.1,0.5c0,0.3,0.1,0.5,0.3,0.6c0.2,0.1,0.5,0.2,0.8,0.2s0.5-0.1,0.7-0.2
	c0.2-0.1,0.4-0.3,0.5-0.5C83.7,142.6,83.8,142.4,83.8,142.2z M91.8,144v-0.6c-0.1,0.1-0.1,0.2-0.3,0.3c-0.1,0.1-0.3,0.3-0.5,0.4
	c-0.2,0.1-0.5,0.2-0.8,0.2c-0.4,0-0.8-0.1-1.2-0.3c-0.3-0.2-0.6-0.5-0.8-0.9c-0.2-0.4-0.3-0.9-0.3-1.4s0.1-0.9,0.2-1.2
	c0.2-0.4,0.4-0.6,0.6-0.9s0.5-0.4,0.8-0.5s0.6-0.2,0.9-0.2s0.5,0,0.7,0.1s0.4,0.1,0.6,0.2v-2.4h1v6.8c0,0,0,0.1,0,0.2
	c0,0.1,0,0.2,0,0.3h-0.9V144z M91.7,141.8V140c-0.1-0.1-0.3-0.2-0.5-0.3s-0.5-0.1-0.7-0.1c-0.5,0-0.9,0.2-1.2,0.5
	c-0.3,0.3-0.5,0.8-0.5,1.4c0,0.3,0.1,0.6,0.2,0.9c0.1,0.3,0.3,0.5,0.5,0.6c0.2,0.2,0.5,0.2,0.8,0.2s0.6-0.1,0.8-0.2
	c0.2-0.2,0.4-0.4,0.5-0.6C91.7,142.3,91.7,142,91.7,141.8z M98.2,142.7l0.6,0.6c-0.1,0.1-0.2,0.2-0.4,0.4c-0.2,0.1-0.4,0.3-0.7,0.4
	c-0.3,0.1-0.7,0.2-1.1,0.2c-0.5,0-1-0.1-1.4-0.3s-0.7-0.6-0.9-1c-0.2-0.4-0.3-0.9-0.3-1.4s0.1-1,0.3-1.4c0.2-0.4,0.5-0.7,0.9-1
	c0.4-0.2,0.8-0.4,1.3-0.4c0.6,0,1.1,0.1,1.4,0.4c0.4,0.3,0.6,0.7,0.8,1.1s0.3,0.9,0.3,1.5h-4c0,0.3,0.1,0.6,0.2,0.8
	c0.2,0.2,0.4,0.4,0.6,0.6c0.3,0.1,0.5,0.2,0.8,0.2c0.4,0,0.8-0.1,1.1-0.2C97.9,142.9,98.1,142.8,98.2,142.7z M94.9,141h3
	c0-0.4-0.2-0.7-0.4-1c-0.2-0.3-0.6-0.4-1.1-0.4c-0.3,0-0.6,0.1-0.8,0.2c-0.2,0.1-0.4,0.3-0.5,0.5C94.9,140.5,94.9,140.8,94.9,141z
	 M103.8,142.7l0.6,0.6c-0.2,0.3-0.5,0.5-0.8,0.6c-0.3,0.2-0.7,0.2-1.2,0.2s-1-0.1-1.4-0.4c-0.4-0.2-0.7-0.6-0.9-1
	c-0.2-0.4-0.3-0.9-0.3-1.4s0.1-1,0.3-1.4c0.2-0.4,0.5-0.7,0.9-1c0.4-0.2,0.9-0.4,1.4-0.4c0.4,0,0.8,0.1,1.1,0.2
	c0.3,0.2,0.6,0.4,0.8,0.6l-0.6,0.6c-0.2-0.2-0.3-0.3-0.6-0.5c-0.2-0.1-0.5-0.2-0.8-0.2c-0.4,0-0.7,0.1-0.9,0.3
	c-0.2,0.2-0.4,0.4-0.6,0.7c-0.1,0.3-0.2,0.6-0.2,0.9c0,0.3,0.1,0.6,0.2,0.9c0.1,0.3,0.3,0.5,0.6,0.7c0.2,0.2,0.6,0.3,0.9,0.3
	s0.6-0.1,0.8-0.2C103.5,143,103.7,142.8,103.8,142.7z M105.4,138v-1.1h1.1v1.1H105.4z M105.5,144v-5.1h1v5.1H105.5z M107.6,143.4
	l0.6-0.7c0.2,0.2,0.4,0.3,0.7,0.4c0.3,0.1,0.6,0.2,0.9,0.2s0.6-0.1,0.8-0.2c0.2-0.1,0.3-0.3,0.3-0.5s0-0.3-0.1-0.4
	c-0.1-0.1-0.2-0.2-0.5-0.3c-0.2-0.1-0.5-0.2-0.9-0.3c-0.3-0.1-0.5-0.2-0.8-0.3c-0.2-0.1-0.5-0.3-0.6-0.5c-0.2-0.2-0.2-0.5-0.2-0.8
	s0.1-0.6,0.3-0.8c0.2-0.2,0.5-0.4,0.8-0.5s0.6-0.2,1-0.2s0.8,0.1,1.1,0.2c0.3,0.1,0.6,0.3,0.8,0.5l-0.5,0.7
	c-0.2-0.1-0.3-0.3-0.6-0.4c-0.2-0.1-0.5-0.1-0.8-0.1s-0.6,0.1-0.8,0.2c-0.2,0.1-0.3,0.3-0.3,0.5s0.1,0.4,0.4,0.5s0.6,0.2,1,0.3
	c0.3,0.1,0.6,0.2,0.9,0.3s0.5,0.3,0.6,0.5c0.2,0.2,0.2,0.5,0.2,0.8s-0.1,0.6-0.3,0.9c-0.2,0.2-0.5,0.4-0.8,0.5s-0.7,0.2-1,0.2
	C108.8,144.2,108.1,143.9,107.6,143.4z M113,138v-1.1h1.1v1.1H113z M113.1,144v-5.1h1v5.1H113.1z M117.9,144.2c-0.5,0-1-0.1-1.4-0.4
	c-0.4-0.2-0.7-0.6-1-1c-0.2-0.4-0.3-0.9-0.3-1.4s0.1-1,0.3-1.4c0.2-0.4,0.6-0.7,1-1c0.4-0.2,0.9-0.4,1.4-0.4s1,0.1,1.4,0.4
	c0.4,0.2,0.7,0.6,1,1c0.2,0.4,0.4,0.9,0.4,1.4s-0.1,0.9-0.4,1.4c-0.2,0.4-0.6,0.7-1,1C118.9,144,118.5,144.2,117.9,144.2z
	 M117.9,143.3c0.4,0,0.7-0.1,0.9-0.3c0.3-0.2,0.5-0.4,0.6-0.7s0.2-0.6,0.2-0.9s-0.1-0.6-0.2-0.9c-0.1-0.3-0.3-0.5-0.6-0.7
	c-0.3-0.2-0.6-0.3-0.9-0.3c-0.4,0-0.7,0.1-0.9,0.3c-0.3,0.2-0.5,0.4-0.6,0.7s-0.2,0.6-0.2,0.9c0,0.3,0.1,0.6,0.2,0.9
	c0.1,0.3,0.3,0.5,0.6,0.7C117.3,143.2,117.6,143.3,117.9,143.3z M122.8,144h-1v-4.6c0-0.1,0-0.1,0-0.2c0-0.1,0-0.2,0-0.3h0.9v0.8
	c0.1-0.1,0.2-0.3,0.4-0.4c0.1-0.1,0.3-0.3,0.6-0.4c0.2-0.1,0.5-0.2,0.8-0.2c0.7,0,1.2,0.2,1.5,0.6c0.3,0.4,0.5,0.9,0.5,1.6v3.1h-1
	v-3c0-0.5-0.1-0.8-0.3-1c-0.2-0.2-0.5-0.3-0.9-0.3s-0.7,0.1-0.9,0.3c-0.2,0.2-0.4,0.4-0.5,0.7s-0.1,0.6-0.1,1V144z M127.9,144v-1.2
	h1.2v1.2H127.9z"/>
</svg>
