<svg width="99" height="42" viewBox="0 0 99 42" fill="none" xmlns="http://www.w3.org/2000/svg">
<path d="M5.65936 18.9105V4.77595H0V0.49692H16.2051V4.77595H10.6009V18.9105H5.65936Z" fill="white"/>
<path d="M17.8602 18.9105V0.49692H22.7466V7.23294H29.5378V0.49692H34.4242V18.9105H29.5378V11.7052H22.7466V18.9105H17.8602Z" fill="white"/>
<path d="M35.6313 18.9105L42.3949 0.49692H47.9991L54.5143 18.9105H49.2414L48.0543 15.1008H41.898L40.6833 18.9105H35.6313ZM42.8919 11.5396H47.0605L45.0176 4.77595L42.8919 11.5396Z" fill="white"/>
<path d="M57.2482 18.9105V4.77595H51.5888V0.49692H67.7939V4.77595H62.1898V18.9105H57.2482Z" fill="white"/>
<path d="M68.9521 7.34337L69.6699 0.49692H74.5286L72.4029 7.34337H68.9521Z" fill="white"/>
<path d="M73.3118 16.6468L76.2657 13.0855C76.781 13.6009 77.4528 14.0702 78.281 14.4935C79.1276 14.9168 80.0386 15.1284 81.014 15.1284C81.5109 15.1284 81.9895 15.0272 82.4496 14.8248C82.9097 14.6223 83.1397 14.2358 83.1397 13.6653C83.1397 13.1868 82.8913 12.7911 82.3944 12.4782C81.8974 12.1469 81.1889 11.834 80.2686 11.5396L79.2472 11.2083C78.4926 10.9506 77.738 10.6102 76.9835 10.1868C76.2473 9.74514 75.6307 9.18381 75.1338 8.50284C74.6553 7.82188 74.416 6.98448 74.416 5.99064C74.416 4.84957 74.6829 3.82812 75.2166 2.9263C75.7688 2.02449 76.5786 1.31592 77.646 0.800593C78.7135 0.266864 80.011 0 81.5386 0C82.7533 0 83.8023 0.138034 84.6857 0.414101C85.5875 0.690167 86.3329 1.01224 86.9219 1.38033C87.5108 1.74842 87.9433 2.0797 88.2194 2.37417L85.7348 5.52133C85.0906 5.04281 84.4189 4.65632 83.7195 4.36185C83.0201 4.04897 82.3023 3.89254 81.5662 3.89254C81.0877 3.89254 80.6275 4.00296 80.1858 4.22382C79.7625 4.42626 79.5509 4.78515 79.5509 5.30047C79.5509 5.87101 79.8085 6.28511 80.3239 6.54277C80.8392 6.80043 81.4925 7.0581 82.2839 7.31576L83.1674 7.59183C83.7931 7.77587 84.4188 8.01513 85.0446 8.3096C85.6888 8.58566 86.2777 8.94455 86.8114 9.38626C87.3452 9.82796 87.7685 10.3893 88.0813 11.0703C88.4126 11.7328 88.5782 12.5518 88.5782 13.5273C88.5782 14.6499 88.2378 15.653 87.5568 16.5364C86.8942 17.4198 85.9924 18.11 84.8514 18.6069C83.7287 19.1038 82.4772 19.3523 81.0968 19.3523C79.2564 19.3523 77.7104 19.1038 76.4589 18.6069C75.2258 18.11 74.1768 17.4566 73.3118 16.6468Z" fill="white"/>
<path d="M0 40.1728L6.76362 21.7591H12.3678L18.8829 40.1728H13.6101L12.423 36.363H6.26671L5.05201 40.1728H0ZM7.26054 32.8018H11.4291L9.38626 26.0382L7.26054 32.8018Z" fill="#FFD000"/>
<path d="M25.9239 40.1728V21.7591H33.4329C35.4022 21.7591 36.985 22.2837 38.1813 23.3327C39.3776 24.3634 39.9757 25.8725 39.9757 27.8602C39.9757 29.1117 39.6996 30.2068 39.1475 31.1454C38.5954 32.0656 37.8408 32.7834 36.8838 33.2987C35.9267 33.7956 34.8225 34.0441 33.571 34.0441H30.6999V40.1728H25.9239ZM30.6999 30.2068H33.0188C33.6814 30.2068 34.2059 29.9951 34.5924 29.5718C34.9789 29.1485 35.1721 28.6056 35.1721 27.943C35.1721 27.2436 34.9881 26.6823 34.62 26.259C34.2519 25.8357 33.709 25.6241 32.9912 25.6241H30.6999V30.2068Z" fill="#FFD000"/>
<path d="M41.568 40.1728V21.7591H46.4544V35.8661H54.9849V40.1728H41.568Z" fill="#FFD000"/>
<path d="M56.2725 32.995V21.7591H61.1588V32.5533C61.1588 33.5656 61.3889 34.3938 61.849 35.0379C62.3275 35.6821 63.1097 36.0041 64.1955 36.0041C65.2814 36.0041 66.0544 35.6821 66.5145 35.0379C66.9746 34.3754 67.2047 33.5472 67.2047 32.5533V21.7591H72.1463V32.995C72.1463 34.5594 71.8058 35.9213 71.1248 37.0808C70.4439 38.2219 69.5052 39.1053 68.3089 39.731C67.1311 40.3384 65.7691 40.6421 64.2232 40.6421C62.6772 40.6421 61.3061 40.3384 60.1098 39.731C58.9135 39.1237 57.9749 38.2495 57.2939 37.1084C56.6129 35.9489 56.2725 34.5778 56.2725 32.995Z" fill="#FFD000"/>
<path d="M73.541 37.909L76.495 34.3478C77.0103 34.8631 77.682 35.3324 78.5102 35.7557C79.3568 36.179 80.2679 36.3906 81.2433 36.3906C81.7402 36.3906 82.2187 36.2894 82.6788 36.087C83.139 35.8845 83.369 35.498 83.369 34.9275C83.369 34.449 83.1205 34.0533 82.6236 33.7404C82.1267 33.4091 81.4181 33.0963 80.4979 32.8018L79.4765 32.4705C78.7219 32.2128 77.9673 31.8724 77.2127 31.4491C76.4766 31.0073 75.86 30.446 75.3631 29.7651C74.8846 29.0841 74.6453 28.2467 74.6453 27.2528C74.6453 26.1118 74.9122 25.0903 75.4459 24.1885C75.998 23.2867 76.8078 22.5781 77.8753 22.0628C78.9427 21.5291 80.2403 21.2622 81.7678 21.2622C82.9825 21.2622 84.0316 21.4002 84.915 21.6763C85.8168 21.9524 86.5622 22.2745 87.1511 22.6425C87.7401 23.0106 88.1726 23.3419 88.4486 23.6364L85.964 26.7835C85.3199 26.305 84.6481 25.9185 83.9487 25.6241C83.2494 25.3112 82.5316 25.1547 81.7954 25.1547C81.3169 25.1547 80.8568 25.2652 80.4151 25.486C79.9918 25.6885 79.7801 26.0474 79.7801 26.5627C79.7801 27.1332 80.0378 27.5473 80.5531 27.805C81.0685 28.0626 81.7218 28.3203 82.5132 28.578L83.3966 28.854C84.0224 29.0381 84.6481 29.2773 85.2739 29.5718C85.918 29.8479 86.507 30.2068 87.0407 30.6485C87.5744 31.0902 87.9977 31.6515 88.3106 32.3325C88.6419 32.995 88.8075 33.814 88.8075 34.7895C88.8075 35.9121 88.467 36.9152 87.7861 37.7986C87.1235 38.682 86.2217 39.3722 85.0806 39.8691C83.9579 40.366 82.7065 40.6145 81.3261 40.6145C79.4857 40.6145 77.9397 40.366 76.6882 39.8691C75.4551 39.3722 74.4061 38.7188 73.541 37.909Z" fill="#FFD000"/>
<path d="M92.8735 40.0632V37.2139H90.0879V34.407H92.8735V31.5151H95.7653V34.407H98.5722V37.2139H95.7653V40.0632H92.8735Z" fill="#FFD000"/>
</svg>
