<svg width="135" height="25" viewBox="0 0 135 25" fill="none" xmlns="http://www.w3.org/2000/svg">
<path d="M19.7922 14.231L21.0282 15.359C20.8042 15.663 20.5162 15.943 20.1642 16.199C19.8202 16.455 19.4322 16.659 19.0002 16.811C18.5682 16.963 18.1042 17.039 17.6082 17.039C16.8002 17.039 16.0842 16.859 15.4602 16.499C14.8442 16.139 14.3602 15.647 14.0082 15.023C13.6642 14.391 13.4922 13.671 13.4922 12.863C13.4922 12.271 13.5922 11.719 13.7922 11.207C13.9922 10.687 14.2722 10.235 14.6322 9.85096C15.0002 9.46696 15.4362 9.16696 15.9402 8.95096C16.4522 8.73496 17.0162 8.62696 17.6322 8.62696C18.3682 8.62696 19.0162 8.76296 19.5762 9.03496C20.1362 9.30696 20.6002 9.69896 20.9682 10.211L19.7322 11.399C19.4922 11.063 19.2082 10.795 18.8802 10.595C18.5522 10.387 18.1602 10.283 17.7042 10.283C17.2242 10.283 16.8082 10.399 16.4562 10.631C16.1122 10.855 15.8442 11.159 15.6522 11.543C15.4682 11.927 15.3762 12.351 15.3762 12.815C15.3762 13.287 15.4682 13.711 15.6522 14.087C15.8442 14.463 16.1122 14.763 16.4562 14.987C16.8002 15.203 17.2042 15.311 17.6682 15.311C18.0522 15.311 18.3722 15.259 18.6282 15.155C18.8842 15.051 19.1002 14.919 19.2762 14.759C19.4602 14.591 19.6322 14.415 19.7922 14.231ZM21.6933 14.015C21.6933 13.463 21.8213 12.959 22.0773 12.503C22.3333 12.047 22.6853 11.687 23.1333 11.423C23.5893 11.151 24.1173 11.015 24.7173 11.015C25.3173 11.015 25.8413 11.151 26.2893 11.423C26.7453 11.687 27.0973 12.047 27.3453 12.503C27.6013 12.959 27.7293 13.463 27.7293 14.015C27.7293 14.567 27.6013 15.071 27.3453 15.527C27.0973 15.983 26.7453 16.347 26.2893 16.619C25.8413 16.891 25.3173 17.027 24.7173 17.027C24.1173 17.027 23.5893 16.891 23.1333 16.619C22.6853 16.347 22.3333 15.983 22.0773 15.527C21.8213 15.071 21.6933 14.567 21.6933 14.015ZM24.7173 15.527C25.0133 15.527 25.2573 15.455 25.4493 15.311C25.6493 15.167 25.8013 14.979 25.9053 14.747C26.0093 14.515 26.0613 14.271 26.0613 14.015C26.0613 13.759 26.0093 13.519 25.9053 13.295C25.8013 13.063 25.6493 12.875 25.4493 12.731C25.2573 12.587 25.0133 12.515 24.7173 12.515C24.4293 12.515 24.1813 12.587 23.9733 12.731C23.7733 12.875 23.6213 13.063 23.5173 13.295C23.4133 13.519 23.3613 13.759 23.3613 14.015C23.3613 14.271 23.4133 14.515 23.5173 14.747C23.6213 14.979 23.7733 15.167 23.9733 15.311C24.1813 15.455 24.4293 15.527 24.7173 15.527ZM28.7539 16.835V11.207H30.4099L30.4699 11.831C30.6459 11.615 30.8699 11.435 31.1419 11.291C31.4139 11.147 31.7339 11.075 32.1019 11.075C32.5499 11.075 32.9059 11.159 33.1699 11.327C33.4339 11.495 33.6299 11.671 33.7579 11.855C33.9899 11.607 34.2699 11.415 34.5979 11.279C34.9339 11.143 35.2819 11.075 35.6419 11.075C36.3539 11.075 36.9019 11.283 37.2859 11.699C37.6699 12.107 37.8619 12.659 37.8619 13.355V16.835H36.1339V13.631C36.1339 13.303 36.0579 13.047 35.9059 12.863C35.7619 12.671 35.5419 12.575 35.2459 12.575C34.9179 12.575 34.6499 12.691 34.4419 12.923C34.2419 13.155 34.1419 13.451 34.1419 13.811V16.835H32.4739V13.631C32.4739 13.303 32.3979 13.047 32.2459 12.863C32.1019 12.671 31.8819 12.575 31.5859 12.575C31.2659 12.575 31.0019 12.691 30.7939 12.923C30.5859 13.155 30.4819 13.451 30.4819 13.811V16.835H28.7539ZM39.1133 19.235V11.207H40.7693C40.7853 11.311 40.7973 11.415 40.8053 11.519C40.8133 11.615 40.8213 11.715 40.8293 11.819C41.0133 11.587 41.2493 11.411 41.5373 11.291C41.8253 11.163 42.1253 11.099 42.4373 11.099C42.9893 11.099 43.4493 11.235 43.8173 11.507C44.1853 11.779 44.4613 12.135 44.6453 12.575C44.8293 13.015 44.9213 13.483 44.9213 13.979C44.9213 14.499 44.8333 14.951 44.6573 15.335C44.4893 15.719 44.2613 16.035 43.9733 16.283C43.6853 16.531 43.3693 16.715 43.0253 16.835C42.6813 16.955 42.3333 17.015 41.9813 17.015C41.7093 17.015 41.4853 16.991 41.3093 16.943C41.1333 16.895 40.9733 16.847 40.8293 16.799V19.235H39.1133ZM40.8293 13.847V15.347C41.0613 15.499 41.3933 15.575 41.8253 15.575C42.2493 15.575 42.5813 15.431 42.8213 15.143C43.0693 14.855 43.1933 14.479 43.1933 14.015C43.1933 13.767 43.1533 13.535 43.0733 13.319C43.0013 13.095 42.8773 12.915 42.7013 12.779C42.5333 12.643 42.3053 12.575 42.0173 12.575C41.6333 12.575 41.3373 12.707 41.1293 12.971C40.9293 13.235 40.8293 13.527 40.8293 13.847ZM49.2573 16.835L49.2093 16.307C48.8093 16.771 48.2413 17.003 47.5053 17.003C47.2413 17.003 46.9613 16.951 46.6653 16.847C46.3773 16.751 46.1293 16.575 45.9213 16.319C45.7133 16.063 45.6093 15.711 45.6093 15.263C45.6093 14.823 45.7213 14.451 45.9453 14.147C46.1773 13.843 46.4893 13.615 46.8813 13.463C47.2733 13.303 47.7133 13.223 48.2013 13.223C48.4013 13.223 48.6013 13.227 48.8013 13.235C49.0093 13.243 49.1453 13.255 49.2093 13.271V13.151C49.2093 12.863 49.0973 12.659 48.8733 12.539C48.6573 12.411 48.4093 12.347 48.1293 12.347C47.7533 12.347 47.4373 12.395 47.1813 12.491C46.9253 12.587 46.7093 12.695 46.5333 12.815L45.8253 11.759C46.0573 11.575 46.3733 11.407 46.7733 11.255C47.1733 11.095 47.7053 11.015 48.3693 11.015C49.2253 11.015 49.8573 11.247 50.2653 11.711C50.6733 12.167 50.8773 12.783 50.8773 13.559V16.835H49.2573ZM49.2093 14.807V14.351C49.1693 14.343 49.0933 14.335 48.9813 14.327C48.8693 14.311 48.7413 14.303 48.5973 14.303C48.1173 14.303 47.7773 14.371 47.5773 14.507C47.3773 14.643 47.2773 14.835 47.2773 15.083C47.2773 15.547 47.5573 15.779 48.1173 15.779C48.3893 15.779 48.6373 15.695 48.8613 15.527C49.0933 15.359 49.2093 15.119 49.2093 14.807ZM52.1211 16.835V11.207H53.7771L53.8371 11.915C53.9811 11.723 54.1771 11.539 54.4251 11.363C54.6811 11.187 55.0091 11.099 55.4091 11.099C55.5611 11.099 55.6891 11.107 55.7931 11.123C55.9051 11.139 56.0131 11.167 56.1171 11.207L55.8411 12.731C55.6651 12.675 55.4571 12.647 55.2171 12.647C54.8091 12.647 54.4771 12.771 54.2211 13.019C53.9731 13.259 53.8491 13.603 53.8491 14.051V16.835H52.1211ZM61.2057 15.131L61.9137 16.223C61.8337 16.279 61.6897 16.371 61.4817 16.499C61.2817 16.627 61.0137 16.747 60.6777 16.859C60.3417 16.971 59.9297 17.027 59.4417 17.027C58.8017 17.027 58.2497 16.899 57.7857 16.643C57.3217 16.387 56.9657 16.031 56.7177 15.575C56.4697 15.119 56.3457 14.595 56.3457 14.003C56.3457 13.475 56.4577 12.983 56.6817 12.527C56.9137 12.071 57.2457 11.707 57.6777 11.435C58.1177 11.155 58.6417 11.015 59.2497 11.015C59.8577 11.015 60.3657 11.155 60.7737 11.435C61.1897 11.707 61.5017 12.087 61.7097 12.575C61.9257 13.055 62.0337 13.611 62.0337 14.243V14.531H58.0257C58.0337 14.827 58.1697 15.091 58.4337 15.323C58.6977 15.555 59.0537 15.671 59.5017 15.671C59.9497 15.671 60.3137 15.607 60.5937 15.479C60.8737 15.343 61.0777 15.227 61.2057 15.131ZM58.0257 13.427H60.4017C60.4017 13.267 60.3577 13.107 60.2697 12.947C60.1897 12.779 60.0617 12.639 59.8857 12.527C59.7177 12.415 59.5017 12.359 59.2377 12.359C58.9737 12.359 58.7497 12.415 58.5657 12.527C58.3897 12.639 58.2537 12.779 58.1577 12.947C58.0697 13.107 58.0257 13.267 58.0257 13.427ZM65.3315 16.835V8.83096H67.1435V11.903H70.6115V8.83096H72.4235V16.835H70.6115V13.547H67.1435V16.835H65.3315ZM73.584 14.015C73.584 13.463 73.712 12.959 73.968 12.503C74.224 12.047 74.576 11.687 75.024 11.423C75.48 11.151 76.008 11.015 76.608 11.015C77.208 11.015 77.732 11.151 78.18 11.423C78.636 11.687 78.988 12.047 79.236 12.503C79.492 12.959 79.62 13.463 79.62 14.015C79.62 14.567 79.492 15.071 79.236 15.527C78.988 15.983 78.636 16.347 78.18 16.619C77.732 16.891 77.208 17.027 76.608 17.027C76.008 17.027 75.48 16.891 75.024 16.619C74.576 16.347 74.224 15.983 73.968 15.527C73.712 15.071 73.584 14.567 73.584 14.015ZM76.608 15.527C76.904 15.527 77.148 15.455 77.34 15.311C77.54 15.167 77.692 14.979 77.796 14.747C77.9 14.515 77.952 14.271 77.952 14.015C77.952 13.759 77.9 13.519 77.796 13.295C77.692 13.063 77.54 12.875 77.34 12.731C77.148 12.587 76.904 12.515 76.608 12.515C76.32 12.515 76.072 12.587 75.864 12.731C75.664 12.875 75.512 13.063 75.408 13.295C75.304 13.519 75.252 13.759 75.252 14.015C75.252 14.271 75.304 14.515 75.408 14.747C75.512 14.979 75.664 15.167 75.864 15.311C76.072 15.455 76.32 15.527 76.608 15.527ZM80.3685 16.199L81.2205 15.095C81.4045 15.263 81.6445 15.403 81.9405 15.515C82.2445 15.627 82.5365 15.683 82.8165 15.683C83.0725 15.683 83.2845 15.651 83.4525 15.587C83.6205 15.515 83.7045 15.391 83.7045 15.215C83.7045 15.111 83.6685 15.027 83.5965 14.963C83.5325 14.891 83.4045 14.819 83.2125 14.747C83.0285 14.675 82.7565 14.591 82.3965 14.495C82.1085 14.415 81.8285 14.307 81.5565 14.171C81.2925 14.035 81.0725 13.855 80.8965 13.631C80.7285 13.399 80.6445 13.111 80.6445 12.767C80.6445 12.415 80.7485 12.111 80.9565 11.855C81.1645 11.591 81.4485 11.387 81.8085 11.243C82.1685 11.091 82.5725 11.015 83.0205 11.015C83.5005 11.015 83.9205 11.071 84.2805 11.183C84.6485 11.287 84.9805 11.443 85.2765 11.651L84.5445 12.791C84.3685 12.671 84.1605 12.563 83.9205 12.467C83.6805 12.371 83.4125 12.323 83.1165 12.323C82.8525 12.323 82.6605 12.363 82.5405 12.443C82.4205 12.515 82.3605 12.615 82.3605 12.743C82.3605 12.927 82.4845 13.063 82.7325 13.151C82.9885 13.239 83.3245 13.339 83.7405 13.451C84.3085 13.603 84.7245 13.823 84.9885 14.111C85.2525 14.391 85.3845 14.763 85.3845 15.227C85.3845 15.635 85.2645 15.975 85.0245 16.247C84.7845 16.511 84.4725 16.707 84.0885 16.835C83.7125 16.963 83.3125 17.027 82.8885 17.027C82.3845 17.027 81.9085 16.959 81.4605 16.823C81.0125 16.679 80.6485 16.471 80.3685 16.199ZM86.7364 14.687V12.563H85.8484V11.207H86.7364V9.35896H88.4644V11.207H89.9164V12.563H88.4644V14.783C88.4644 15.055 88.5164 15.267 88.6204 15.419C88.7324 15.563 88.9044 15.635 89.1364 15.635C89.3124 15.635 89.4644 15.607 89.5924 15.551C89.7204 15.487 89.8404 15.415 89.9524 15.335L90.6484 16.391C90.1124 16.823 89.5204 17.039 88.8724 17.039C88.3364 17.039 87.9124 16.939 87.6004 16.739C87.2884 16.539 87.0644 16.263 86.9284 15.911C86.8004 15.559 86.7364 15.151 86.7364 14.687ZM91.332 19.235V11.207H92.988C93.004 11.311 93.016 11.415 93.024 11.519C93.032 11.615 93.04 11.715 93.048 11.819C93.232 11.587 93.468 11.411 93.756 11.291C94.044 11.163 94.344 11.099 94.656 11.099C95.208 11.099 95.668 11.235 96.036 11.507C96.404 11.779 96.68 12.135 96.864 12.575C97.048 13.015 97.14 13.483 97.14 13.979C97.14 14.499 97.052 14.951 96.876 15.335C96.708 15.719 96.48 16.035 96.192 16.283C95.904 16.531 95.588 16.715 95.244 16.835C94.9 16.955 94.552 17.015 94.2 17.015C93.928 17.015 93.704 16.991 93.528 16.943C93.352 16.895 93.192 16.847 93.048 16.799V19.235H91.332ZM93.048 13.847V15.347C93.28 15.499 93.612 15.575 94.044 15.575C94.468 15.575 94.8 15.431 95.04 15.143C95.288 14.855 95.412 14.479 95.412 14.015C95.412 13.767 95.372 13.535 95.292 13.319C95.22 13.095 95.096 12.915 94.92 12.779C94.752 12.643 94.524 12.575 94.236 12.575C93.852 12.575 93.556 12.707 93.348 12.971C93.148 13.235 93.048 13.527 93.048 13.847ZM98.1641 16.835V8.83096H99.8921V16.835H98.1641ZM101.14 14.699V11.207H102.868V14.447C102.868 14.767 102.944 15.019 103.096 15.203C103.256 15.387 103.488 15.479 103.792 15.479C104.144 15.479 104.416 15.355 104.608 15.107C104.8 14.851 104.896 14.563 104.896 14.243V11.207H106.612V16.835H104.956L104.908 16.235C104.724 16.451 104.48 16.631 104.176 16.775C103.88 16.911 103.568 16.979 103.24 16.979C102.6 16.979 102.088 16.787 101.704 16.403C101.328 16.019 101.14 15.451 101.14 14.699ZM107.615 16.199L108.467 15.095C108.651 15.263 108.891 15.403 109.187 15.515C109.491 15.627 109.783 15.683 110.063 15.683C110.319 15.683 110.531 15.651 110.699 15.587C110.867 15.515 110.951 15.391 110.951 15.215C110.951 15.111 110.915 15.027 110.843 14.963C110.779 14.891 110.651 14.819 110.459 14.747C110.275 14.675 110.003 14.591 109.643 14.495C109.355 14.415 109.075 14.307 108.803 14.171C108.539 14.035 108.319 13.855 108.143 13.631C107.975 13.399 107.891 13.111 107.891 12.767C107.891 12.415 107.995 12.111 108.203 11.855C108.411 11.591 108.695 11.387 109.055 11.243C109.415 11.091 109.819 11.015 110.267 11.015C110.747 11.015 111.167 11.071 111.527 11.183C111.895 11.287 112.227 11.443 112.523 11.651L111.791 12.791C111.615 12.671 111.407 12.563 111.167 12.467C110.927 12.371 110.659 12.323 110.363 12.323C110.099 12.323 109.907 12.363 109.787 12.443C109.667 12.515 109.607 12.615 109.607 12.743C109.607 12.927 109.731 13.063 109.979 13.151C110.235 13.239 110.571 13.339 110.987 13.451C111.555 13.603 111.971 13.823 112.235 14.111C112.499 14.391 112.631 14.763 112.631 15.227C112.631 15.635 112.511 15.975 112.271 16.247C112.031 16.511 111.719 16.707 111.335 16.835C110.959 16.963 110.559 17.027 110.135 17.027C109.631 17.027 109.155 16.959 108.707 16.823C108.259 16.679 107.895 16.471 107.615 16.199Z" fill="#002855"/>
<path d="M118.835 8.66992L123 12.835L118.835 17.0001" stroke="#002855" stroke-width="1.74176" stroke-linecap="round"/>
</svg>
