<svg width="160" height="600" viewBox="0 0 160 600" fill="none" xmlns="http://www.w3.org/2000/svg">
<g clip-path="url(#clip0_6875_6201)">
<ellipse cx="83.0383" cy="230.145" rx="90.1836" ry="107.44" transform="rotate(-6.67 83.0383 230.145)" fill="url(#paint0_radial_6875_6201)" fill-opacity="0.75"/>
<ellipse cx="83.1696" cy="438.892" rx="90.1836" ry="107.44" transform="rotate(6.67 83.1696 438.892)" fill="url(#paint1_radial_6875_6201)" fill-opacity="0.75"/>
<path d="M69.81 330.12H72.47L74.978 337.264L77.467 330.12H80.032L76.441 340H73.401L69.81 330.12ZM79.7249 337.131H82.2519C82.4039 337.948 82.9359 338.442 84.0949 338.442C85.1589 338.442 85.7859 338.024 85.7859 337.264C85.7859 336.637 85.5009 336.257 84.4939 336.143L82.7649 335.934C80.7699 335.687 79.9339 334.68 79.9339 333.141C79.9339 331.222 81.5489 329.873 84.0189 329.873C86.6219 329.873 87.9329 331.374 88.0469 332.875H85.5959C85.4819 332.134 84.9689 331.678 83.9809 331.678C82.9929 331.678 82.3659 332.134 82.3659 332.818C82.3659 333.407 82.7269 333.768 83.8289 333.901L85.5389 334.11C87.4579 334.338 88.2369 335.269 88.2369 336.884C88.2369 338.974 86.4319 340.247 84.0759 340.247C81.3779 340.247 79.9149 338.917 79.7249 337.131Z" fill="white"/>
</g>
<defs>
<radialGradient id="paint0_radial_6875_6201" cx="0" cy="0" r="1" gradientUnits="userSpaceOnUse" gradientTransform="translate(83.0383 230.145) rotate(90) scale(107.44 90.1836)">
<stop offset="0.365385" stop-color="#F55662" stop-opacity="0.4"/>
<stop offset="0.629808" stop-color="#F42736"/>
<stop offset="1" stop-color="#BA1723" stop-opacity="0"/>
</radialGradient>
<radialGradient id="paint1_radial_6875_6201" cx="0" cy="0" r="1" gradientUnits="userSpaceOnUse" gradientTransform="translate(83.1696 438.892) rotate(90) scale(107.44 90.1836)">
<stop offset="0.365385" stop-color="#F55662" stop-opacity="0.4"/>
<stop offset="0.629808" stop-color="#F42736"/>
<stop offset="1" stop-color="#BA1723" stop-opacity="0"/>
</radialGradient>
<clipPath id="clip0_6875_6201">
<rect width="160" height="600" fill="white"/>
</clipPath>
</defs>
</svg>
