<svg fill="none" height="45" viewBox="0 0 393 45" width="393" xmlns="http://www.w3.org/2000/svg"><path d="m5.46058 35.5606h-3.37423v-3.3999h3.37423v-3.5031h3.50302v3.5031h3.4v3.3999h-3.4v3.4515h-3.50302zm15.98772 1.0046c.4808.4808 1.1076.9187 1.8803 1.3136.7727.395 1.6227.5924 2.55.5924.2232 0 .455-.0171.6955-.0515.2404-.0515.455-.1288.6439-.2318s.3434-.2404.4636-.4121.1803-.395.1803-.6697c0-.4465-.2318-.8157-.6954-1.1076-.4465-.2919-1.1076-.5838-1.9834-.8757l-.953-.3091c-.5323-.1717-1.0732-.395-1.6227-.6697-.5323-.2748-1.0131-.601-1.4424-.9788-.4293-.395-.7813-.85-1.0561-1.3652-.2575-.5323-.3863-1.1505-.3863-1.8545 0-.7899.1459-1.5197.4378-2.1894.292-.6868.7127-1.2793 1.2622-1.7772.5666-.5152 1.2621-.9101 2.0863-1.1849.8243-.2919 1.7773-.4379 2.8591-.4379.8414 0 1.6055.0773 2.2924.2319.6869.1545 1.2879.3434 1.803.5666.5152.2233.9531.4637 1.3137.7212.3606.2576.6353.4894.8242.6955l-2.3182 2.9363c-.601-.4464-1.2277-.807-1.8803-1.0818-.6525-.2919-1.3222-.4379-2.0091-.4379-.2232 0-.4464.0258-.6696.0773-.2233.0515-.4293.1288-.6182.2318-.1717.1031-.3177.2404-.4379.4122-.103.1545-.1545.352-.1545.5924 0 .2575.0601.4808.1803.6697.1373.1889.3176.352.5409.4894.2232.1373.4894.2661.7984.3863.3263.1031.6697.2147 1.0303.3349l.8243.2575c.5838.1889 1.1762.4122 1.7772.6697.6011.2404 1.142.5753 1.6228 1.0046.4808.4121.8757.9358 1.1848 1.5712.3091.6182.4636 1.3823.4636 2.2924 0 .7899-.1888 1.5197-.5666 2.1894-.3606.6697-.8586 1.2449-1.494 1.7257-.6181.4808-1.3565.85-2.2151 1.1076-.8414.2747-1.7429.4121-2.7045.4121-1.7172 0-3.1596-.2232-4.3273-.6697-1.1505-.4636-2.1293-1.0818-2.9363-1.8545zm17.7262-7.753h-5.2803v-3.9924h15.1196v3.9924h-5.2287v13.1878h-4.6106zm11.8987-3.9924h7.1091c.9272 0 1.7601.1202 2.4984.3606.7556.2404 1.3995.601 1.9319 1.0818.5323.4636.9444 1.0475 1.2363 1.7515s.4379 1.5197.4379 2.447c0 1.1333-.249 2.1207-.747 2.9621-.498.8242-1.1591 1.4853-1.9833 1.9833l3.6833 6.5939h-4.8939l-2.9106-5.8469h-1.906v5.8469h-4.4561zm6.6712 7.753c.601 0 1.0904-.1803 1.4682-.5409.3777-.3778.5666-.8758.5666-1.494 0-.6525-.1803-1.1676-.5409-1.5454s-.8671-.5667-1.5197-.5667h-2.1893v4.147zm17.5948 9.8393c-1.2879 0-2.4813-.2232-3.5803-.6697-1.0818-.4636-2.0263-1.0904-2.8333-1.8803-.7899-.807-1.4081-1.7601-1.8546-2.859-.4464-1.1162-.6697-2.3268-.6697-3.6318 0-1.3051.2233-2.5071.6697-3.6061.4465-1.1161 1.0647-2.0692 1.8546-2.8591.807-.807 1.7515-1.4338 2.8333-1.8803 1.099-.4464 2.2924-.6697 3.5803-.6697 1.2878 0 2.4813.2233 3.5802.6697 1.099.4465 2.0435 1.0733 2.8334 1.8803.7899.7899 1.408 1.743 1.8545 2.8591.4465 1.099.6697 2.301.6697 3.6061 0 1.305-.2232 2.5156-.6697 3.6318-.4465 1.0989-1.0646 2.052-1.8545 2.859-.7899.7899-1.7344 1.4167-2.8334 1.8803-1.0989.4465-2.2924.6697-3.5802.6697zm0-4.2757c.6697 0 1.2621-.1202 1.7772-.3606.5323-.2576.9788-.601 1.3394-1.0303s.6354-.9359.8242-1.5197c.1889-.5838.2834-1.202.2834-1.8545 0-.6526-.0945-1.2708-.2834-1.8546-.1888-.5838-.4636-1.0904-.8242-1.5197s-.8071-.7641-1.3394-1.0045c-.5151-.2576-1.1075-.3864-1.7772-.3864s-1.2707.1288-1.8031.3864c-.5151.2404-.953.5752-1.3136 1.0045s-.6353.9359-.8242 1.5197-.2834 1.202-.2834 1.8546c0 .6525.0945 1.2707.2834 1.8545s.4636 1.0904.8242 1.5197.7985.7727 1.3136 1.0303c.5324.2404 1.1334.3606 1.8031.3606zm11.3517-13.3166h4.147l6.5939 9.5817v-9.5817h4.5072v17.1802h-3.889l-6.8515-9.8651v9.8651h-4.5076zm27.0951 7.3666h7.057v7.753c-1.03.8758-2.215 1.5111-3.554 1.9061-1.323.3777-2.653.5666-3.993.5666-1.391 0-2.644-.206-3.76-.6182-1.099-.4293-2.035-1.0303-2.808-1.803-.773-.7899-1.365-1.7429-1.777-2.8591-.395-1.1161-.593-2.3696-.593-3.7605 0-1.3051.215-2.5071.644-3.6061.447-1.1161 1.065-2.0692 1.855-2.8591.79-.807 1.726-1.4338 2.807-1.8803 1.099-.4464 2.31-.6697 3.632-.6697 1.425 0 2.756.2404 3.993.7213 1.253.4636 2.301 1.2449 3.142 2.3439l-2.962 2.9878c-.532-.5323-1.108-.9702-1.726-1.3136-.601-.3434-1.305-.5151-2.112-.5151-.738 0-1.391.1288-1.958.3863-.566.2576-1.047.6096-1.442 1.0561-.378.4293-.67.9444-.876 1.5454-.206.5839-.309 1.2106-.309 1.8803 0 .7384.112 1.4081.335 2.0091.223.5838.532 1.0904.927 1.5197.395.4121.876.7384 1.443.9788.566.2232 1.202.3348 1.906.3348.566 0 1.107-.0687 1.623-.206.515-.1374 1.013-.3778 1.493-.7212v-1.6485h-2.987zm13.981-7.3666h4.559v13.162h7.959v4.0182h-12.518zm22.203 17.5923c-1.287 0-2.481-.2232-3.58-.6697-1.082-.4636-2.026-1.0904-2.833-1.8803-.79-.807-1.408-1.7601-1.855-2.859-.446-1.1162-.669-2.3268-.669-3.6318 0-1.3051.223-2.5071.669-3.6061.447-1.1161 1.065-2.0692 1.855-2.8591.807-.807 1.751-1.4338 2.833-1.8803 1.099-.4464 2.293-.6697 3.58-.6697 1.288 0 2.482.2233 3.581.6697 1.099.4465 2.043 1.0733 2.833 1.8803.79.7899 1.408 1.743 1.855 2.8591.446 1.099.669 2.301.669 3.6061 0 1.305-.223 2.5156-.669 3.6318-.447 1.0989-1.065 2.052-1.855 2.859-.79.7899-1.734 1.4167-2.833 1.8803-1.099.4465-2.293.6697-3.581.6697zm0-4.2757c.67 0 1.263-.1202 1.778-.3606.532-.2576.978-.601 1.339-1.0303s.635-.9359.824-1.5197.284-1.202.284-1.8545c0-.6526-.095-1.2708-.284-1.8546s-.463-1.0904-.824-1.5197-.807-.7641-1.339-1.0045c-.515-.2576-1.108-.3864-1.778-.3864-.669 0-1.27.1288-1.803.3864-.515.2404-.953.5752-1.313 1.0045-.361.4293-.636.9359-.824 1.5197-.189.5838-.284 1.202-.284 1.8546 0 .6525.095 1.2707.284 1.8545.188.5838.463 1.0904.824 1.5197.36.4293.798.7727 1.313 1.0303.533.2404 1.134.3606 1.803.3606zm11.352-13.3166h4.147l6.594 9.5817v-9.5817h4.508v17.1802h-3.89l-6.851-9.8651v9.8651h-4.508zm27.095 7.3666h7.057v7.753c-1.03.8758-2.215 1.5111-3.554 1.9061-1.322.3777-2.653.5666-3.993.5666-1.39 0-2.644-.206-3.76-.6182-1.099-.4293-2.035-1.0303-2.808-1.803-.772-.7899-1.365-1.7429-1.777-2.8591-.395-1.1161-.592-2.3696-.592-3.7605 0-1.3051.214-2.5071.644-3.6061.446-1.1161 1.064-2.0692 1.854-2.8591.79-.807 1.726-1.4338 2.808-1.8803 1.099-.4464 2.309-.6697 3.631-.6697 1.426 0 2.756.2404 3.993.7213 1.253.4636 2.301 1.2449 3.142 2.3439l-2.962 2.9878c-.532-.5323-1.107-.9702-1.726-1.3136-.601-.3434-1.305-.5151-2.112-.5151-.738 0-1.391.1288-1.957.3863-.567.2576-1.048.6096-1.443 1.0561-.377.4293-.669.9444-.875 1.5454-.207.5839-.31 1.2106-.31 1.8803 0 .7384.112 1.4081.335 2.0091.224.5838.533 1.0904.928 1.5197.395.4121.875.7384 1.442.9788.567.2232 1.202.3348 1.906.3348.567 0 1.108-.0687 1.623-.206.515-.1374 1.013-.3778 1.494-.7212v-1.6485h-2.988zm9.856.5152h8.5v4.1727h-8.5zm12.752-3.8894h-5.28v-3.9924h15.119v3.9924h-5.228v13.1878h-4.611zm11.899-3.9924h12.363v3.9409h-7.804v2.653h6.413v3.7091h-6.413v2.9363h8.345v3.9409h-12.904zm15.268 0h7.109c.927 0 1.76.1202 2.499.3606.755.2404 1.399.601 1.931 1.0818.533.4636.945 1.0475 1.237 1.7515s.438 1.5197.438 2.447c0 1.1333-.249 2.1207-.747 2.9621-.498.8242-1.159 1.4853-1.984 1.9833l3.684 6.5939h-4.894l-2.911-5.8469h-1.906v5.8469h-4.456zm6.671 7.753c.601 0 1.091-.1803 1.468-.5409.378-.3778.567-.8758.567-1.494 0-.6525-.18-1.1676-.541-1.5454-.36-.3778-.867-.5667-1.519-.5667h-2.19v4.147zm9.941-7.753h4.353l4.173 7.4954 4.095-7.4954h4.379l.798 17.1802h-4.61l-.412-10.0712-3.014 5.8727h-2.499l-3.348-5.8727-.335 10.0712h-4.379zm24.665 0h7.109c.928 0 1.761.1202 2.499.3606.756.2404 1.399.601 1.932 1.0818.532.4636.944 1.0475 1.236 1.7515s.438 1.5197.438 2.447c0 1.1333-.249 2.1207-.747 2.9621-.498.8242-1.159 1.4853-1.983 1.9833l3.683 6.5939h-4.894l-2.91-5.8469h-1.907v5.8469h-4.456zm6.672 7.753c.601 0 1.09-.1803 1.468-.5409.378-.3778.566-.8758.566-1.494 0-.6525-.18-1.1676-.54-1.5454-.361-.3778-.868-.5667-1.52-.5667h-2.19v4.147zm9.502-7.753h12.364v3.9409h-7.805v2.653h6.414v3.7091h-6.414v2.9363h8.346v3.9409h-12.905zm19.519 3.9924h-5.281v-3.9924h15.12v3.9924h-5.229v13.1878h-4.61zm11.795-3.9924h4.559v10.0711c0 .9445.215 1.7172.644 2.3182.447.601 1.177.9015 2.19.9015s1.734-.3005 2.163-.9015c.43-.6182.644-1.3909.644-2.3182v-10.0711h4.611v10.4833c0 1.0989-.18 2.0949-.541 2.9878-.361.8758-.876 1.6227-1.546 2.2409-.652.6182-1.433 1.0904-2.343 1.4167-.893.3262-1.881.4894-2.963.4894-1.081 0-2.077-.1632-2.987-.4894-.911-.3263-1.7-.7899-2.37-1.3909-.653-.6182-1.159-1.3652-1.52-2.2409-.36-.8929-.541-1.8975-.541-3.0136zm17.786 0h7.11c.927 0 1.76.1202 2.498.3606.756.2404 1.399.601 1.932 1.0818.532.4636.944 1.0475 1.236 1.7515s.438 1.5197.438 2.447c0 1.1333-.249 2.1207-.747 2.9621-.498.8242-1.159 1.4853-1.983 1.9833l3.683 6.5939h-4.894l-2.91-5.8469h-1.907v5.8469h-4.456zm6.672 7.753c.601 0 1.09-.1803 1.468-.5409.378-.3778.566-.8758.566-1.494 0-.6525-.18-1.1676-.54-1.5454-.361-.3778-.868-.5667-1.52-.5667h-2.19v4.147zm9.502-7.753h4.147l6.594 9.5817v-9.5817h4.508v17.1802h-3.89l-6.851-9.8651v9.8651h-4.508zm19.677 11.7454c.481.4808 1.107.9187 1.88 1.3136.773.395 1.623.5924 2.55.5924.223 0 .455-.0171.696-.0515.24-.0515.455-.1288.643-.2318.189-.103.344-.2404.464-.4121s.18-.395.18-.6697c0-.4465-.231-.8157-.695-1.1076-.447-.2919-1.108-.5838-1.983-.8757l-.953-.3091c-.533-.1717-1.074-.395-1.623-.6697-.532-.2748-1.013-.601-1.443-.9788-.429-.395-.781-.85-1.056-1.3652-.257-.5323-.386-1.1505-.386-1.8545 0-.7899.146-1.5197.438-2.1894.292-.6868.713-1.2793 1.262-1.7772.567-.5152 1.262-.9101 2.086-1.1849.825-.2919 1.778-.4379 2.859-.4379.842 0 1.606.0773 2.293.2319.687.1545 1.288.3434 1.803.5666.515.2233.953.4637 1.314.7212.36.2576.635.4894.824.6955l-2.318 2.9363c-.601-.4464-1.228-.807-1.881-1.0818-.652-.2919-1.322-.4379-2.009-.4379-.223 0-.446.0258-.669.0773-.224.0515-.43.1288-.619.2318-.171.1031-.317.2404-.438.4122-.103.1545-.154.352-.154.5924 0 .2575.06.4808.18.6697.138.1889.318.352.541.4894.223.1373.49.2661.799.3863.326.1031.669.2147 1.03.3349l.824.2575c.584.1889 1.176.4122 1.777.6697.601.2404 1.142.5753 1.623 1.0046.481.4121.876.9358 1.185 1.5712.309.6182.464 1.3823.464 2.2924 0 .7899-.189 1.5197-.567 2.1894-.361.6697-.859 1.2449-1.494 1.7257-.618.4808-1.357.85-2.215 1.1076-.842.2747-1.743.4121-2.705.4121-1.717 0-3.159-.2232-4.327-.6697-1.15-.4636-2.129-1.0818-2.936-1.8545z" fill="#ffd100"/></svg>