<svg fill="none" height="47" viewBox="0 0 601 47" width="601" xmlns="http://www.w3.org/2000/svg"><path d="m.260051 45 15.928149-43.36348h13.1975l15.343 43.36348h-12.4174l-2.7955-8.9718h-14.4979l-2.8605 8.9718zm17.098349-17.3584h9.8169l-4.8109-15.9281zm54.0286 17.3584v-33.2865h-13.3276v-10.07698h38.1625v10.07698h-13.1976v33.2865zm48.934 1.0402c-3.251 0-6.263-.5634-9.037-1.6903-2.731-1.1269-5.114-2.7089-7.151-4.746-1.994-2.0804-3.554-4.5075-4.6813-7.2814-1.1269-2.7739-1.6904-5.8078-1.6904-9.1018 0-3.2939.5635-6.3279 1.6904-9.1017 1.1273-2.7739 2.6873-5.17938 4.6813-7.21645 2.037-2.03706 4.42-3.61904 7.151-4.74592 2.774-1.12689 5.786-1.690336 9.037-1.690336 3.25 0 6.241.563446 8.971 1.690336 2.774 1.12688 5.18 2.70886 7.217 4.74592 2.037 2.03707 3.597 4.44255 4.681 7.21645 1.127 2.7738 1.69 5.8078 1.69 9.1017 0 3.294-.563 6.3279-1.69 9.1018-1.084 2.7739-2.644 5.201-4.681 7.2814-2.037 2.0371-4.443 3.6191-7.217 4.746-2.73 1.1269-5.721 1.6903-8.971 1.6903zm0-10.7921c2.297 0 4.226-.5418 5.786-1.6253 1.604-1.0836 2.817-2.5355 3.641-4.3559.823-1.8203 1.235-3.8357 1.235-6.0462 0-2.2104-.412-4.2258-1.235-6.0461-.824-1.8204-2.037-3.2723-3.641-4.3559-1.56-1.0835-3.489-1.6253-5.786-1.6253-2.254 0-4.183.5418-5.786 1.6253-1.561 1.0836-2.774 2.5355-3.641 4.3559-.824 1.8203-1.235 3.8357-1.235 6.0461 0 2.2105.411 4.2259 1.235 6.0462.867 1.8204 2.08 3.2723 3.641 4.3559 1.603 1.0835 3.532 1.6253 5.786 1.6253zm28.652 9.7519v-43.36348h17.684c4.637 0 8.364 1.23525 11.182 3.70573 2.817 2.42714 4.226 5.98115 4.226 10.66205 0 2.9473-.651 5.5261-1.951 7.7365-1.3 2.1671-3.077 3.8575-5.331 5.071-2.254 1.1703-4.854 1.7554-7.801 1.7554h-6.762v14.4328zm11.247-23.4696h5.461c1.561 0 2.796-.4984 3.706-1.4953.91-.9968 1.365-2.2754 1.365-3.8357 0-1.647-.433-2.9689-1.3-3.9658s-2.145-1.4953-3.836-1.4953h-5.396zm39.29 23.4696v-43.36348h17.684c4.637 0 8.365 1.23525 11.182 3.70573 2.817 2.42714 4.226 5.98115 4.226 10.66205 0 2.9473-.65 5.5261-1.951 7.7365-1.3 2.1671-3.077 3.8575-5.331 5.071-2.253 1.1703-4.854 1.7554-7.801 1.7554h-6.762v14.4328zm11.247-23.4696h5.462c1.56 0 2.795-.4984 3.705-1.4953.91-.9968 1.366-2.2754 1.366-3.8357 0-1.647-.434-2.9689-1.301-3.9658s-2.145-1.4953-3.835-1.4953h-5.397zm27.545 23.4696v-43.36348h31.206v9.94698h-19.699v6.6963h16.188v9.3618h-16.188v7.4115h21.064v9.9469zm38.538 0v-43.36348h17.943c4.638 0 8.365 1.21358 11.183 3.64072 2.817 2.3838 4.225 5.91616 4.225 10.59706 0 2.8172-.628 5.2877-1.885 7.4115-1.257 2.1237-2.926 3.814-5.006 5.0709l9.297 16.6433h-12.353l-7.346-14.7579h-4.811v14.7579zm11.247-23.7947h5.591c1.517 0 2.752-.455 3.706-1.3652.953-.9535 1.43-2.2104 1.43-3.7708 0-1.6469-.455-2.9472-1.365-3.9007s-2.189-1.4303-3.836-1.4303h-5.526zm29.576 23.7947v-43.36348h30.231v10.07698h-18.724v8.3866h14.498v9.4919h-14.498v15.408zm54.645 1.0402c-3.25 0-6.262-.5634-9.036-1.6903-2.731-1.1269-5.115-2.7089-7.152-4.746-1.993-2.0804-3.554-4.5075-4.681-7.2814s-1.69-5.8078-1.69-9.1018c0-3.2939.563-6.3279 1.69-9.1017 1.127-2.7739 2.688-5.17938 4.681-7.21645 2.037-2.03706 4.421-3.61904 7.152-4.74592 2.774-1.12689 5.786-1.690336 9.036-1.690336 3.251 0 6.242.563446 8.972 1.690336 2.774 1.12688 5.18 2.70886 7.217 4.74592 2.037 2.03707 3.597 4.44255 4.681 7.21645 1.126 2.7738 1.69 5.8078 1.69 9.1017 0 3.294-.564 6.3279-1.69 9.1018-1.084 2.7739-2.644 5.201-4.681 7.2814-2.037 2.0371-4.443 3.6191-7.217 4.746-2.73 1.1269-5.721 1.6903-8.972 1.6903zm0-10.7921c2.298 0 4.226-.5418 5.787-1.6253 1.603-1.0836 2.817-2.5355 3.64-4.3559.824-1.8203 1.236-3.8357 1.236-6.0462 0-2.2104-.412-4.2258-1.236-6.0461-.823-1.8204-2.037-3.2723-3.64-4.3559-1.561-1.0835-3.489-1.6253-5.787-1.6253-2.253 0-4.182.5418-5.786 1.6253-1.56 1.0836-2.774 2.5355-3.64 4.3559-.824 1.8203-1.236 3.8357-1.236 6.0461 0 2.2105.412 4.2259 1.236 6.0462.866 1.8204 2.08 3.2723 3.64 4.3559 1.604 1.0835 3.533 1.6253 5.786 1.6253zm28.653 9.7519v-43.36348h17.943c4.638 0 8.365 1.21358 11.182 3.64072 2.818 2.3838 4.226 5.91616 4.226 10.59706 0 2.8172-.628 5.2877-1.885 7.4115-1.257 2.1237-2.926 3.814-5.006 5.0709l9.297 16.6433h-12.353l-7.346-14.7579h-4.811v14.7579zm11.247-23.7947h5.591c1.517 0 2.752-.455 3.706-1.3652.953-.9535 1.43-2.2104 1.43-3.7708 0-1.6469-.455-2.9472-1.365-3.9007s-2.189-1.4303-3.836-1.4303h-5.526zm28.666 23.7947 2.015-43.36348h10.988l10.532 18.91868 10.337-18.91868h11.052l2.015 43.36348h-11.637l-1.04-25.42-7.607 14.8229h-6.306l-8.452-14.8229-.845 25.42zm53.86 0v-43.36348h11.507v43.36348zm19.301 0v-43.36348h10.467l16.643 24.18478v-24.18478h11.377v43.36348h-9.817l-17.293-24.8999v24.8999zm68.387-15.8631v-8.9067h17.814v19.5688c-2.601 2.2104-5.591 3.8141-8.972 4.8109-3.381.9535-6.74 1.4303-10.077 1.4303-4.681 0-8.712-.9318-12.092-2.7955-3.381-1.8637-5.981-4.4859-7.802-7.8666-1.777-3.424-2.665-7.4764-2.665-12.1574 0-4.4208.953-8.3433 2.86-11.7673 1.907-3.42396 4.551-6.11115 7.932-8.06153 3.424-1.95038 7.346-2.925576 11.767-2.925576 3.598 0 6.956.606786 10.077 1.820356 3.164 1.17023 5.808 3.14228 7.932 5.91616l-7.477 7.54149c-1.343-1.3436-2.795-2.4488-4.356-3.3157-1.517-.8668-3.294-1.3002-5.331-1.3002-2.47 0-4.572.5634-6.306 1.6903-1.734 1.0836-3.056 2.5572-3.966 4.4209-.867 1.8203-1.3 3.8791-1.3 6.1762 0 3.684 1.062 6.6529 3.186 8.9067 2.123 2.2105 4.941 3.3157 8.451 3.3157 1.431 0 2.796-.1734 4.096-.5201 1.3-.3901 2.557-.9969 3.771-1.8204v-4.1608z" fill="#fff"/></svg>