<svg fill="none" height="32" viewBox="0 0 601 32" width="601" xmlns="http://www.w3.org/2000/svg"><path d="m.225076 27.3088 4.816614-5.807c.84028.8403 1.93565 1.6056 3.2861 2.2958 1.38047.6902 2.86601 1.0353 4.45651 1.0353.8103 0 1.5905-.165 2.3408-.4951.7502-.3301 1.1254-.9604 1.1254-1.8907 0-.7802-.4052-1.4254-1.2155-1.9356-.8102-.5402-1.9656-1.0504-3.4661-1.5305l-1.66558-.5402c-1.23041-.4202-2.46082-.9753-3.69123-1.6656-1.20041-.7202-2.20575-1.6355-3.01602-2.7459-.78026-1.1104-1.17039-2.4758-1.17039-4.09637 0-1.86063.43515-3.52618 1.30544-4.99668.9003-1.47049 2.22074-2.62588 3.96133-3.46616 1.74058-.870294 3.85625-1.305441 6.34715-1.305441 1.9806 0 3.6912.225077 5.1317.675229 1.4705.450152 2.6859.975322 3.6462 1.575532.9603.6002 1.6656 1.14038 2.1157 1.62054l-4.0513 5.13172c-1.0504-.78026-2.1457-1.41047-3.2861-1.89063-1.1404-.51017-2.3108-.76526-3.5112-.76526-.7803 0-1.5305.18006-2.2508.54018-.6902.33011-1.0353.91531-1.0353 1.75559 0 .93031.4201 1.60555 1.2604 2.02565.8403.4202 1.9057.8403 3.1961 1.2605l1.4405.4501c1.0203.3001 2.0407.6902 3.061 1.1704 1.0503.4501 2.0107 1.0353 2.881 1.7556.8703.7202 1.5605 1.6355 2.0707 2.7459.5401 1.0804.8102 2.4158.8102 4.0064 0 1.8306-.5552 3.4661-1.6655 4.9066-1.0804 1.4405-2.5509 2.5659-4.4115 3.3761-1.8306.8103-3.8713 1.2154-6.1221 1.2154-3.00097 0-5.52182-.4051-7.5625-1.2154-2.01068-.8102-3.72125-1.8756-5.131724-3.196zm28.847624-8.0127v-18.321178h7.9677v17.600878c0 1.6506.3751 3.001 1.1254 4.0514.7802 1.0503 2.0557 1.5755 3.8263 1.5755s3.031-.5252 3.7812-1.5755c.7503-1.0804 1.1254-2.4308 1.1254-4.0514v-17.600878h8.0577v18.321178c0 2.5508-.5552 4.7716-1.6655 6.6622-1.1104 1.8606-2.6409 3.3011-4.5916 4.3215-1.9206.9903-4.1414 1.4855-6.6622 1.4855-2.5209 0-4.7566-.4952-6.7073-1.4855-1.9506-.9904-3.4811-2.4159-4.5915-4.2765-1.1104-1.8906-1.6656-4.1264-1.6656-6.7072zm31.084 11.7039v-30.025078h12.2441c3.2111 0 5.792.855288 7.7426 2.565858 1.9507 1.68057 2.926 4.14139 2.926 7.38252 0 2.0406-.4502 3.8262-1.3505 5.3568-.9003 1.5005-2.1307 2.6709-3.6912 3.5111-1.5605.8103-3.3611 1.2154-5.4018 1.2154h-4.6816v9.9934zm7.7876-16.2505h3.7813c1.0804 0 1.9356-.3451 2.5659-1.0353.6302-.6902.9453-1.5755.9453-2.6559 0-1.14038-.3001-2.05568-.9003-2.74591-.6002-.69024-1.4855-1.03535-2.6559-1.03535h-3.7363zm19.072 16.2505v-30.025078h21.6077v6.887318h-13.64v4.63656h11.209v6.4822h-11.209v5.1317h14.585v6.8873zm26.6837 0v-30.025078h12.424c3.211 0 5.792.840278 7.743 2.520848 1.95 1.65055 2.926 4.09637 2.926 7.33743 0 1.9507-.435 3.6613-1.306 5.1318-.87 1.4704-2.025 2.6408-3.466 3.5111l6.437 11.5239h-8.552l-5.087-10.2184h-3.331v10.2184zm7.788-16.4755h3.871c1.05 0 1.906-.3151 2.566-.9453.66-.6603.99-1.5306.99-2.6109 0-1.14041-.315-2.04071-.945-2.70093s-1.516-.99033-2.656-.99033h-3.826zm28.611 16.4755v-30.025078h20.932v6.977338h-12.964v5.80694h10.038v6.5722h-10.038v10.6686zm24.35-11.7039v-18.321178h7.967v17.600878c0 1.6506.375 3.001 1.126 4.0514.78 1.0503 2.055 1.5755 3.826 1.5755s3.031-.5252 3.781-1.5755c.751-1.0804 1.126-2.4308 1.126-4.0514v-17.600878h8.057v18.321178c0 2.5508-.555 4.7716-1.665 6.6622-1.111 1.8606-2.641 3.3011-4.592 4.3215-1.92.9903-4.141 1.4855-6.662 1.4855s-4.757-.4952-6.707-1.4855c-1.951-.9904-3.481-2.4159-4.592-4.2765-1.11-1.8906-1.665-4.1264-1.665-6.7072zm31.084 11.7039v-30.025078h7.247l11.524 16.745578v-16.745578h7.878v30.025078h-6.798l-11.974-17.2408v17.2408zm32.047 0v-30.025078h11.523c3.091 0 5.837.540178 8.238 1.620548 2.431 1.05035 4.352 2.7009 5.762 4.95166 1.411 2.22074 2.116 5.08667 2.116 8.59787 0 3.3011-.705 6.062-2.116 8.2828-1.41 2.1907-3.346 3.8413-5.807 4.9517-2.431 1.0803-5.177 1.6205-8.238 1.6205zm7.967-7.0224h3.241c2.581 0 4.592-.7352 6.032-2.2057 1.441-1.5005 2.161-3.4362 2.161-5.8069 0-2.4009-.66-4.3365-1.981-5.807-1.32-1.47049-3.391-2.20574-6.212-2.20574h-3.241zm46.486 7.7426c-2.251 0-4.336-.3901-6.257-1.1704-1.891-.7802-3.541-1.8756-4.952-3.2861-1.38-1.4404-2.461-3.121-3.241-5.0416-.78-1.9207-1.17-4.0214-1.17-6.3022 0-2.2807.39-4.3814 1.17-6.30208.78-1.92064 1.861-3.5862 3.241-4.99667 1.411-1.41048 3.061-2.50584 4.952-3.28611 1.921-.780259 4.006-1.170391 6.257-1.170391s4.322.390132 6.212 1.170391c1.921.78027 3.586 1.87563 4.997 3.28611 1.41 1.41047 2.491 3.07603 3.241 4.99667.78 1.92068 1.17 4.02138 1.17 6.30208 0 2.2808-.39 4.3815-1.17 6.3022-.75 1.9206-1.831 3.6012-3.241 5.0416-1.411 1.4105-3.076 2.5059-4.997 3.2861-1.89.7803-3.961 1.1704-6.212 1.1704zm0-7.4725c1.591 0 2.926-.3751 4.006-1.1253 1.111-.7503 1.951-1.7556 2.521-3.0161.57-1.2604.856-2.6558.856-4.1864 0-1.5305-.286-2.9259-.856-4.1864-.57-1.2604-1.41-2.26573-2.521-3.01598-1.08-.75025-2.415-1.12538-4.006-1.12538-1.56 0-2.896.37513-4.006 1.12538-1.081.75025-1.921 1.75558-2.521 3.01598-.57 1.2605-.855 2.6559-.855 4.1864 0 1.5306.285 2.926.855 4.1864.6 1.2605 1.44 2.2658 2.521 3.0161 1.11.7502 2.446 1.1253 4.006 1.1253zm26.409 6.7523-10.893-30.025078h8.688l6.752 20.886978 6.302-20.886978h8.508l-10.939 30.025078zm22.224 0v-30.025078h21.607v6.887318h-13.639v4.63656h11.208v6.4822h-11.208v5.1317h14.584v6.8873zm26.684 0v-30.025078h12.424c3.211 0 5.792.840278 7.742 2.520848 1.951 1.65055 2.926 4.09637 2.926 7.33743 0 1.9507-.435 3.6613-1.305 5.1318-.87 1.4704-2.026 2.6408-3.466 3.5111l6.437 11.5239h-8.553l-5.087-10.2184h-3.331v10.2184zm7.787-16.4755h3.872c1.05 0 1.905-.3151 2.565-.9453.661-.6603.991-1.5306.991-2.6109 0-1.14041-.315-2.04071-.946-2.70093-.63-.66022-1.515-.99033-2.655-.99033h-3.827zm27.891 16.4755v-4.1414c0-1.4705.3-2.7909.901-3.9613.63-1.1704 1.425-2.2208 2.385-3.1511.961-.9603 1.981-1.8306 3.061-2.6109 1.081-.8102 2.101-1.5605 3.061-2.2507.961-.6902 1.741-1.3505 2.341-1.9807.63-.6602.946-1.3354.946-2.0257 0-.6302-.27-1.20036-.811-1.71053-.54-.54018-1.365-.81027-2.476-.81027-.81 0-1.53.18006-2.16.54018-.6.33011-1.111.72024-1.531 1.17042-.39.4501-.705.8703-.945 1.2604l-5.492-3.78127c.6-.99033 1.396-1.92065 2.386-2.79094 1.02-.87029 2.251-1.57553 3.691-2.11571 1.471-.54018 3.151-.81027 5.042-.81027 2.131 0 3.931.40514 5.402 1.21541 1.47.81027 2.581 1.86062 3.331 3.15106.75 1.29043 1.125 2.64088 1.125 4.05132 0 1.5606-.375 2.941-1.125 4.1414-.75 1.1704-1.681 2.2358-2.791 3.1961-1.111.9303-2.221 1.7706-3.331 2.5208-1.111.7503-2.056 1.4705-2.836 2.1608-.751.6602-1.156 1.3204-1.216 1.9806h11.389v6.7523zm35.902.7202c-2.491 0-4.577-.6302-6.257-1.8906-1.681-1.2604-2.941-3.016-3.781-5.2668-.841-2.2507-1.261-4.8466-1.261-7.7876 0-2.971.42-5.5668 1.261-7.78759.84-2.25075 2.1-4.00634 3.781-5.26676 1.68-1.26043 3.766-1.89064 6.257-1.89064 2.641 0 4.787.63021 6.437 1.89064 1.651 1.26042 2.866 3.01601 3.646 5.26676.781 2.22079 1.171 4.81659 1.171 7.78759 0 2.941-.39 5.5369-1.171 7.7876-.78 2.2508-1.995 4.0064-3.646 5.2668-1.65 1.2604-3.796 1.8906-6.437 1.8906zm0-6.9323c.96 0 1.696-.3601 2.206-1.0803.51-.7203.855-1.6806 1.035-2.881.21-1.2304.315-2.5809.315-4.0514s-.105-2.8059-.315-4.0063c-.18-1.2304-.525-2.2058-1.035-2.926-.51-.72024-1.246-1.08036-2.206-1.08036s-1.696.36012-2.206 1.08036c-.51.7202-.87 1.6956-1.08 2.926-.18 1.2004-.27 2.5358-.27 4.0063s.09 2.821.27 4.0514c.21 1.2004.57 2.1607 1.08 2.881.51.7202 1.246 1.0803 2.206 1.0803zm31.745 6.2121v-11.974l-10.668-18.051078h9.138l5.852 10.713578 5.491-10.713578h8.868l-10.713 18.006078v12.019zm21.741 0v-30.025078h21.607v6.887318h-13.639v4.63656h11.208v6.4822h-11.208v5.1317h14.585v6.8873zm24.163 0 11.029-30.025078h9.138l10.623 30.025078h-8.598l-1.935-6.2121h-10.039l-1.98 6.2121zm11.839-12.019h6.797l-3.331-11.02874zm21.849 12.019v-30.025078h12.425c3.211 0 5.792.840278 7.742 2.520848 1.951 1.65055 2.926 4.09637 2.926 7.33743 0 1.9507-.435 3.6613-1.305 5.1318-.87 1.4704-2.026 2.6408-3.466 3.5111l6.437 11.5239h-8.553l-5.087-10.2184h-3.331v10.2184zm7.788-16.4755h3.871c1.051 0 1.906-.3151 2.566-.9453.66-.6603.991-1.5306.991-2.6109 0-1.14041-.316-2.04071-.946-2.70093s-1.515-.99033-2.656-.99033h-3.826zm17.563 12.7843 4.817-5.807c.84.8403 1.936 1.6056 3.286 2.2958 1.381.6902 2.866 1.0353 4.457 1.0353.81 0 1.59-.165 2.34-.4951.751-.3301 1.126-.9604 1.126-1.8907 0-.7802-.405-1.4254-1.216-1.9356-.81-.5402-1.965-1.0504-3.466-1.5305l-1.665-.5402c-1.231-.4202-2.461-.9753-3.692-1.6656-1.2-.7202-2.205-1.6355-3.016-2.7459-.78-1.1104-1.17-2.4758-1.17-4.09637 0-1.86063.435-3.52618 1.305-4.99668.901-1.47049 2.221-2.62588 3.962-3.46616 1.74-.870294 3.856-1.305441 6.347-1.305441 1.981 0 3.691.225077 5.132.675229 1.47.450152 2.686.975322 3.646 1.575532.96.6002 1.665 1.14038 2.116 1.62054l-4.052 5.13172c-1.05-.78026-2.146-1.41047-3.286-1.89063-1.14-.51017-2.311-.76526-3.511-.76526-.78 0-1.531.18006-2.251.54018-.69.33011-1.035.91531-1.035 1.75559 0 .93031.42 1.60555 1.26 2.02565.841.4202 1.906.8403 3.196 1.2605l1.441.4501c1.02.3001 2.04.6902 3.061 1.1704 1.05.4501 2.01 1.0353 2.881 1.7556.87.7202 1.56 1.6355 2.07 2.7459.541 1.0804.811 2.4158.811 4.0064 0 1.8306-.555 3.4661-1.666 4.9066-1.08 1.4405-2.551 2.5659-4.411 3.3761-1.831.8103-3.872 1.2154-6.122 1.2154-3.001 0-5.522-.4051-7.563-1.2154-2.011-.8102-3.721-1.8756-5.132-3.196z" fill="#ffd100"/></svg>