<svg width="220" height="27" viewBox="0 0 220 27" fill="none" xmlns="http://www.w3.org/2000/svg">
<path d="M0.300212 22.9496L4.28061 18.1508C4.97501 18.8452 5.88021 19.4776 6.99621 20.048C8.13701 20.6184 9.36461 20.9036 10.679 20.9036C11.3486 20.9036 11.9934 20.7672 12.6134 20.4944C13.2334 20.2216 13.5434 19.7008 13.5434 18.932C13.5434 18.2872 13.2086 17.754 12.539 17.3324C11.8694 16.886 10.9146 16.4644 9.67461 16.0676L8.29821 15.6212C7.28141 15.274 6.26461 14.8152 5.24781 14.2448C4.25581 13.6496 3.42501 12.8932 2.75541 11.9756C2.11061 11.058 1.78821 9.9296 1.78821 8.5904C1.78821 7.0528 2.14781 5.6764 2.86701 4.4612C3.61101 3.246 4.70221 2.2912 6.14061 1.5968C7.57901 0.877598 9.32741 0.517997 11.3858 0.517997C13.0226 0.517997 14.4362 0.703998 15.6266 1.076C16.8418 1.448 17.8462 1.882 18.6398 2.378C19.4334 2.874 20.0162 3.3204 20.3882 3.7172L17.0402 7.958C16.1722 7.3132 15.267 6.7924 14.3246 6.3956C13.3822 5.974 12.415 5.7632 11.423 5.7632C10.7782 5.7632 10.1582 5.912 9.56301 6.2096C8.99261 6.4824 8.70741 6.966 8.70741 7.6604C8.70741 8.4292 9.05461 8.9872 9.74901 9.3344C10.4434 9.6816 11.3238 10.0288 12.3902 10.376L13.5806 10.748C14.4238 10.996 15.267 11.3184 16.1102 11.7152C16.9782 12.0872 17.7718 12.5708 18.491 13.166C19.2102 13.7612 19.7806 14.5176 20.2022 15.4352C20.6486 16.328 20.8718 17.4316 20.8718 18.746C20.8718 20.2588 20.413 21.6104 19.4954 22.8008C18.6026 23.9912 17.3874 24.9212 15.8498 25.5908C14.337 26.2604 12.6506 26.5952 10.7906 26.5952C8.31061 26.5952 6.22741 26.2604 4.54101 25.5908C2.87941 24.9212 1.46581 24.0408 0.300212 22.9496ZM24.1396 16.328V1.1876H30.724V15.7328C30.724 17.0968 31.034 18.2128 31.654 19.0808C32.2988 19.9488 33.3528 20.3828 34.816 20.3828C36.2792 20.3828 37.3208 19.9488 37.9408 19.0808C38.5608 18.188 38.8708 17.072 38.8708 15.7328V1.1876H45.5296V16.328C45.5296 18.436 45.0708 20.2712 44.1532 21.8336C43.2356 23.3712 41.9708 24.5616 40.3588 25.4048C38.7716 26.2232 36.9364 26.6324 34.8532 26.6324C32.77 26.6324 30.9224 26.2232 29.3104 25.4048C27.6984 24.5864 26.4336 23.4084 25.516 21.8708C24.5984 20.3084 24.1396 18.4608 24.1396 16.328ZM49.8271 26V1.1876H59.9455C62.5991 1.1876 64.7319 1.8944 66.3439 3.308C67.9559 4.6968 68.7619 6.7304 68.7619 9.4088C68.7619 11.0952 68.3899 12.5708 67.6459 13.8356C66.9019 15.0756 65.8851 16.0428 64.5955 16.7372C63.3059 17.4068 61.8179 17.7416 60.1315 17.7416H56.2627V26H49.8271ZM56.2627 12.5708H59.3875C60.2803 12.5708 60.9871 12.2856 61.5079 11.7152C62.0287 11.1448 62.2891 10.4132 62.2891 9.5204C62.2891 8.578 62.0411 7.8216 61.5451 7.2512C61.0491 6.6808 60.3175 6.3956 59.3503 6.3956H56.2627V12.5708ZM72.0236 26V1.1876H89.8796V6.8792H78.608V10.7108H87.8708V16.0676H78.608V20.3084H90.6608V26H72.0236ZM94.0747 26V1.1876H104.342C106.996 1.1876 109.128 1.882 110.74 3.2708C112.352 4.6348 113.158 6.656 113.158 9.3344C113.158 10.9464 112.799 12.36 112.08 13.5752C111.36 14.7904 110.406 15.7576 109.215 16.4768L114.535 26H107.467L103.263 17.5556H100.51V26H94.0747ZM100.51 12.3848H103.71C104.578 12.3848 105.284 12.1244 105.83 11.6036C106.376 11.058 106.648 10.3388 106.648 9.446C106.648 8.5036 106.388 7.7596 105.867 7.214C105.346 6.6684 104.615 6.3956 103.672 6.3956H100.51V12.3848ZM124.154 26V1.1876H141.452V6.9536H130.739V11.7524H139.034V17.1836H130.739V26H124.154ZM144.277 16.328V1.1876H150.861V15.7328C150.861 17.0968 151.171 18.2128 151.791 19.0808C152.436 19.9488 153.49 20.3828 154.953 20.3828C156.416 20.3828 157.458 19.9488 158.078 19.0808C158.698 18.188 159.008 17.072 159.008 15.7328V1.1876H165.667V16.328C165.667 18.436 165.208 20.2712 164.29 21.8336C163.373 23.3712 162.108 24.5616 160.496 25.4048C158.909 26.2232 157.074 26.6324 154.99 26.6324C152.907 26.6324 151.06 26.2232 149.448 25.4048C147.836 24.5864 146.571 23.4084 145.653 21.8708C144.736 20.3084 144.277 18.4608 144.277 16.328ZM169.964 26V1.1876H175.953L185.477 15.026V1.1876H191.987V26H186.369L176.474 11.7524V26H169.964ZM196.447 26V1.1876H205.971C208.525 1.1876 210.794 1.634 212.778 2.5268C214.787 3.3948 216.374 4.7588 217.54 6.6188C218.705 8.454 219.288 10.8224 219.288 13.724C219.288 16.452 218.705 18.7336 217.54 20.5688C216.374 22.3792 214.775 23.7432 212.741 24.6608C210.732 25.5536 208.463 26 205.933 26H196.447ZM203.032 20.1968H205.71C207.843 20.1968 209.505 19.5892 210.695 18.374C211.885 17.134 212.481 15.5344 212.481 13.5752C212.481 11.5912 211.935 9.9916 210.844 8.7764C209.753 7.5612 208.041 6.9536 205.71 6.9536H203.032V20.1968Z" fill="white"/>
</svg>
