<svg width="221" height="59" viewBox="0 0 221 59" fill="none" xmlns="http://www.w3.org/2000/svg">
<path d="M9.03367 29V7.43456H0.399071V0.905958H25.1235V7.43456H16.5732V29H9.03367ZM28.4911 29V0.905958H35.9464V11.1832H46.3079V0.905958H53.7631V29H46.3079V18.0067H35.9464V29H28.4911ZM56.4473 29L66.7667 0.905958H75.3171L85.2574 29H77.2125L75.4013 23.1874H66.0085L64.1553 29H56.4473ZM67.5249 17.754H73.885L70.7681 7.43456L67.5249 17.754ZM90.271 29V7.43456H81.6364V0.905958H106.361V7.43456H97.8105V29H90.271ZM117.338 29V0.905958H128.795C131.799 0.905958 134.214 1.70624 136.039 3.3068C137.864 4.87928 138.777 7.18184 138.777 10.2145C138.777 12.1239 138.356 13.7947 137.513 15.2268C136.671 16.6308 135.52 17.7259 134.06 18.5121C132.599 19.2703 130.915 19.6494 129.005 19.6494H124.625V29H117.338ZM124.625 13.7947H128.163C129.174 13.7947 129.974 13.4718 130.564 12.8259C131.153 12.1801 131.448 11.3517 131.448 10.3408C131.448 9.2738 131.167 8.41736 130.606 7.77152C130.044 7.12568 129.216 6.80276 128.121 6.80276H124.625V13.7947ZM142.302 18.0488V0.905958H149.757V17.3749C149.757 18.9193 150.108 20.1829 150.81 21.1657C151.54 22.1485 152.733 22.6399 154.39 22.6399C156.047 22.6399 157.226 22.1485 157.928 21.1657C158.63 20.1548 158.981 18.8912 158.981 17.3749V0.905958H166.521V18.0488C166.521 20.4356 166.001 22.5135 164.962 24.2826C163.923 26.0235 162.491 27.3714 160.666 28.3261C158.869 29.2527 156.791 29.716 154.432 29.716C152.074 29.716 149.982 29.2527 148.156 28.3261C146.331 27.3994 144.899 26.0656 143.86 24.3247C142.821 22.5556 142.302 20.4637 142.302 18.0488ZM178.336 29V7.43456H169.702V0.905958H194.426V7.43456H185.876V29H178.336ZM195.477 25.5462L199.984 20.1127C200.77 20.8989 201.795 21.615 203.059 22.2608C204.35 22.9066 205.74 23.2296 207.229 23.2296C207.987 23.2296 208.717 23.0751 209.419 22.7662C210.121 22.4574 210.472 21.8677 210.472 20.9972C210.472 20.2671 210.093 19.6634 209.335 19.186C208.577 18.6806 207.495 18.2032 206.091 17.754L204.533 17.2485C203.382 16.8554 202.23 16.3359 201.079 15.6901C199.956 15.0162 199.015 14.1597 198.257 13.1208C197.527 12.0818 197.162 10.8042 197.162 9.28784C197.162 7.54688 197.569 5.98844 198.383 4.61252C199.226 3.2366 200.461 2.15552 202.09 1.36928C203.719 0.554959 205.698 0.147798 208.029 0.147798C209.882 0.147798 211.483 0.358399 212.831 0.7796C214.207 1.2008 215.344 1.6922 216.242 2.2538C217.141 2.8154 217.801 3.32084 218.222 3.77012L214.431 8.5718C213.448 7.84172 212.423 7.25204 211.356 6.80276C210.289 6.3254 209.194 6.08672 208.071 6.08672C207.341 6.08672 206.639 6.2552 205.965 6.59216C205.319 6.90104 204.996 7.4486 204.996 8.23484C204.996 9.10532 205.389 9.73712 206.176 10.1302C206.962 10.5234 207.959 10.9165 209.166 11.3096L210.514 11.7308C211.469 12.0116 212.423 12.3766 213.378 12.8259C214.361 13.2471 215.26 13.7947 216.074 14.4686C216.888 15.1425 217.534 15.999 218.011 17.0379C218.517 18.0488 218.77 19.2984 218.77 20.7866C218.77 22.4995 218.25 24.0298 217.211 25.3777C216.2 26.7255 214.824 27.7785 213.083 28.5367C211.37 29.2948 209.461 29.6739 207.355 29.6739C204.547 29.6739 202.188 29.2948 200.279 28.5367C198.398 27.7785 196.797 26.7817 195.477 25.5462ZM0.378484 58L1.29298 38.3235H6.27848L11.0575 46.908L15.748 38.3235H20.763L21.6775 58H16.397L15.925 46.4655L12.4735 53.1915H9.61199L5.77698 46.4655L5.39348 58H0.378484ZM24.8179 58V38.3235H38.9779V42.837H30.0394V45.8755H37.3849V50.1235H30.0394V53.4865H39.5974V58H24.8179ZM41.8917 58L42.8062 38.3235H47.7917L52.5707 46.908L57.2612 38.3235H62.2762L63.1907 58H57.9102L57.4382 46.4655L53.9867 53.1915H51.1252L47.2902 46.4655L46.9067 58H41.8917ZM66.331 58V38.3235H74.3255C75.7219 38.3235 76.8724 38.471 77.777 38.766C78.6817 39.061 79.3897 39.4642 79.901 39.9755C80.4124 40.4672 80.7762 41.0178 80.9925 41.6275C81.2089 42.2175 81.317 42.8272 81.317 43.4565C81.317 44.2038 81.1597 44.8627 80.845 45.433C80.5304 45.9837 80.1469 46.4458 79.6945 46.8195C79.2619 47.1735 78.8489 47.4193 78.4555 47.557C78.9472 47.6947 79.4979 47.9602 80.1075 48.3535C80.7172 48.7272 81.2482 49.2483 81.7005 49.917C82.1529 50.566 82.379 51.3822 82.379 52.3655C82.379 54.3125 81.6907 55.7383 80.314 56.643C78.957 57.5477 76.9609 58 74.3255 58H66.331ZM71.4345 46.2295H73.706C74.3157 46.2295 74.8565 46.082 75.3285 45.787C75.8202 45.4723 76.066 44.9413 76.066 44.194C76.066 43.3483 75.8104 42.778 75.299 42.483C74.8074 42.188 74.2764 42.0405 73.706 42.0405H71.4345V46.2295ZM71.4345 54.283H74.0895C74.5025 54.283 74.9352 54.2338 75.3875 54.1355C75.8595 54.0372 76.2529 53.8208 76.5675 53.4865C76.9019 53.1522 77.069 52.631 77.069 51.923C77.069 51.2543 76.9019 50.7627 76.5675 50.448C76.2529 50.1137 75.8595 49.8973 75.3875 49.799C74.9352 49.681 74.5025 49.622 74.0895 49.622H71.4345V54.283ZM84.999 58V38.3235H99.159V42.837H90.2205V45.8755H97.566V50.1235H90.2205V53.4865H99.7785V58H84.999ZM102.486 58V38.3235H110.628C112.732 38.3235 114.423 38.8742 115.702 39.9755C116.98 41.0572 117.619 42.66 117.619 44.784C117.619 46.0623 117.334 47.1833 116.764 48.147C116.193 49.1107 115.436 49.8777 114.492 50.448L118.711 58H113.106L109.772 51.3035H107.589V58H102.486ZM107.589 47.203H110.126C110.815 47.203 111.375 46.9965 111.808 46.5835C112.24 46.1508 112.457 45.5805 112.457 44.8725C112.457 44.1252 112.25 43.5352 111.837 43.1025C111.424 42.6698 110.844 42.4535 110.097 42.4535H107.589V47.203ZM119.099 55.581L122.256 51.7755C122.806 52.3262 123.524 52.8277 124.409 53.28C125.314 53.7323 126.287 53.9585 127.33 53.9585C127.861 53.9585 128.372 53.8503 128.864 53.634C129.355 53.4177 129.601 53.0047 129.601 52.395C129.601 51.8837 129.336 51.4608 128.805 51.1265C128.274 50.7725 127.516 50.4382 126.533 50.1235L125.442 49.7695C124.635 49.4942 123.829 49.1303 123.023 48.678C122.236 48.206 121.577 47.6062 121.046 46.8785C120.535 46.1508 120.279 45.256 120.279 44.194C120.279 42.9747 120.564 41.8832 121.135 40.9195C121.725 39.9558 122.59 39.1987 123.731 38.648C124.871 38.0777 126.258 37.7925 127.89 37.7925C129.188 37.7925 130.309 37.94 131.253 38.235C132.217 38.53 133.013 38.8742 133.643 39.2675C134.272 39.6608 134.734 40.0148 135.029 40.3295L132.374 43.6925C131.686 43.1812 130.968 42.7682 130.221 42.4535C129.473 42.1192 128.706 41.952 127.92 41.952C127.408 41.952 126.917 42.07 126.445 42.306C125.992 42.5223 125.766 42.9058 125.766 43.4565C125.766 44.0662 126.041 44.5087 126.592 44.784C127.143 45.0593 127.841 45.3347 128.687 45.61L129.631 45.905C130.299 46.1017 130.968 46.3573 131.637 46.672C132.325 46.967 132.954 47.3505 133.525 47.8225C134.095 48.2945 134.547 48.8943 134.882 49.622C135.236 50.33 135.413 51.2052 135.413 52.2475C135.413 53.4472 135.049 54.519 134.321 55.463C133.613 56.407 132.649 57.1445 131.43 57.6755C130.23 58.2065 128.893 58.472 127.418 58.472C125.451 58.472 123.799 58.2065 122.462 57.6755C121.144 57.1445 120.023 56.4463 119.099 55.581ZM143.452 58V38.3235H157.169V42.896H148.673V46.7015H155.252V51.0085H148.673V58H143.452ZM159.527 58V38.3235H164.748V58H159.527ZM168.285 58V38.3235H176.427C178.531 38.3235 180.222 38.8742 181.501 39.9755C182.779 41.0572 183.418 42.66 183.418 44.784C183.418 46.0623 183.133 47.1833 182.563 48.147C181.992 49.1107 181.235 49.8777 180.291 50.448L184.51 58H178.905L175.571 51.3035H173.388V58H168.285ZM173.388 47.203H175.925C176.613 47.203 177.174 46.9965 177.607 46.5835C178.039 46.1508 178.256 45.5805 178.256 44.8725C178.256 44.1252 178.049 43.5352 177.636 43.1025C177.223 42.6698 176.643 42.4535 175.896 42.4535H173.388V47.203ZM184.898 55.581L188.054 51.7755C188.605 52.3262 189.323 52.8277 190.208 53.28C191.113 53.7323 192.086 53.9585 193.128 53.9585C193.659 53.9585 194.171 53.8503 194.662 53.634C195.154 53.4177 195.4 53.0047 195.4 52.395C195.4 51.8837 195.134 51.4608 194.603 51.1265C194.072 50.7725 193.315 50.4382 192.332 50.1235L191.24 49.7695C190.434 49.4942 189.628 49.1303 188.821 48.678C188.035 48.206 187.376 47.6062 186.845 46.8785C186.334 46.1508 186.078 45.256 186.078 44.194C186.078 42.9747 186.363 41.8832 186.933 40.9195C187.523 39.9558 188.389 39.1987 189.529 38.648C190.67 38.0777 192.057 37.7925 193.689 37.7925C194.987 37.7925 196.108 37.94 197.052 38.235C198.016 38.53 198.812 38.8742 199.441 39.2675C200.071 39.6608 200.533 40.0148 200.828 40.3295L198.173 43.6925C197.485 43.1812 196.767 42.7682 196.019 42.4535C195.272 42.1192 194.505 41.952 193.718 41.952C193.207 41.952 192.715 42.07 192.243 42.306C191.791 42.5223 191.565 42.9058 191.565 43.4565C191.565 44.0662 191.84 44.5087 192.391 44.784C192.942 45.0593 193.64 45.3347 194.485 45.61L195.429 45.905C196.098 46.1017 196.767 46.3573 197.435 46.672C198.124 46.967 198.753 47.3505 199.323 47.8225C199.894 48.2945 200.346 48.8943 200.68 49.622C201.034 50.33 201.211 51.2052 201.211 52.2475C201.211 53.4472 200.848 54.519 200.12 55.463C199.412 56.407 198.448 57.1445 197.229 57.6755C196.029 58.2065 194.692 58.472 193.217 58.472C191.25 58.472 189.598 58.2065 188.261 57.6755C186.943 57.1445 185.822 56.4463 184.898 55.581ZM208.788 58V42.896H202.741V38.3235H220.057V42.896H214.069V58H208.788Z" fill="#FFD100"/>
</svg>
