<svg id="Layer_2" data-name="Layer 2" xmlns="http://www.w3.org/2000/svg" viewBox="0 0 103.14 64.45">
  <defs>
    <style>
      .cls-1 {
        fill: none;
        stroke: #fff;
        stroke-miterlimit: 10;
        stroke-width: .68px;
      }

      .cls-2 {
        fill: #fff;
      }

      .cls-2, .cls-3, .cls-4, .cls-5 {
        stroke-width: 0px;
      }

      .cls-3 {
        fill: #ffd817;
      }

      .cls-4 {
        fill: #f1db38;
      }

      .cls-5 {
        fill: #0085ac;
      }
    </style>
  </defs>
  <g id="HP_logo" data-name="HP logo">
    <g>
      <g>
        <path class="cls-2" d="M55.25,15.72v6.33h-9.21v-9.21h6.33c1.59,0,2.88,1.29,2.88,2.88h0Z"/>
        <polygon class="cls-2" points="55.25 31.26 46.04 31.26 46.04 40.46 55.25 40.46 55.25 31.26 55.25 31.26"/>
        <polygon class="cls-3" points="36.83 12.84 27.62 12.84 27.62 22.05 36.83 22.05 36.83 12.84 36.83 12.84"/>
        <path class="cls-2" d="M18.42,20.22v-7.38h-9.21v24.75c0,1.59,1.29,2.88,2.88,2.88h6.33v-7.38c0-1.01.82-1.82,1.83-1.82h7.38v-9.21h-7.38c-1.01,0-1.83-.82-1.83-1.82h0Z"/>
        <polygon class="cls-2" points="36.83 31.26 27.62 31.26 27.62 40.46 36.83 40.46 36.83 31.26 36.83 31.26"/>
        <path class="cls-2" d="M19.24,50.6c-.63,0-1.15-.21-1.57-.63-.42-.42-.62-.94-.62-1.59s.2-1.19.62-1.62c.42-.43.94-.63,1.59-.63.62,0,1.13.21,1.55.64.42.43.63.94.63,1.57s-.21,1.18-.63,1.61c-.42.44-.94.65-1.58.65h0ZM21.74,45.95c-.67-.63-1.51-.96-2.51-.96s-1.84.32-2.5.96c-.66.64-.99,1.45-.99,2.42s.33,1.75.99,2.38c.65.63,1.48.95,2.45.95s1.87-.32,2.55-.95c.68-.63,1.02-1.44,1.02-2.4s-.34-1.77-1.01-2.41h0ZM49.1,45.07v3.66c0,1.04-.4,1.76-1.57,1.76s-1.57-.72-1.57-1.76v-3.66h-1.27v3.94c0,1.94,1.31,2.69,2.84,2.69s2.84-.76,2.84-2.69v-3.94h-1.27ZM41.44,45.07v5.41h2.75v1.13h-4.02v-6.55h1.27ZM36.87,48.02c.62,0,1.16-.29,1.16-.91s-.36-.91-1.16-.91h-.76v1.82h.76ZM37.23,45.07c1.38,0,2.07.89,2.07,2.04s-.85,2.05-2.11,2.05h-1.07v2.45h-1.27v-6.55h2.38ZM33.99,45.07v1.13h-2.15v5.41h-1.27v-5.41h-2.15v-1.13h5.56ZM53.41,44.98c.64,0,1.25.16,1.84.48v1.29c-.68-.41-1.13-.66-1.82-.66s-.92.23-.94.56c-.02.25.13.46.47.67.09.06.44.24,1.06.55.52.26.92.53,1.16.84.24.31.36.68.36,1.12,0,.56-.2,1.02-.61,1.36-.4.35-.93.52-1.57.52-.42,0-.78-.05-1.08-.14-.3-.09-.64-.25-1.01-.48v-1.44c.7.58,1.34.94,1.96.94.58,0,.97-.22.97-.62,0-.27-.12-.51-.45-.7-.27-.16-.62-.34-1.03-.57-.5-.27-.9-.52-1.15-.83-.25-.31-.38-.66-.38-1.07,0-.55.2-.99.61-1.31.41-.33.95-.49,1.62-.49h0ZM25.71,44.98c.64,0,1.25.16,1.84.48v1.29c-.68-.41-1.13-.66-1.82-.66s-.92.23-.94.56c-.02.25.13.46.47.67.09.06.44.24,1.06.55.52.26.92.53,1.16.84.24.31.36.68.36,1.12,0,.56-.2,1.02-.61,1.36-.4.35-.93.52-1.57.52-.42,0-.78-.05-1.08-.14-.3-.09-.64-.25-1.01-.48v-1.44c.7.58,1.34.94,1.96.94.58,0,.97-.22.97-.62,0-.27-.12-.51-.45-.7-.27-.16-.62-.34-1.03-.57-.5-.27-.9-.52-1.15-.83-.25-.31-.38-.66-.38-1.07,0-.55.2-.99.61-1.31.41-.33.95-.49,1.62-.49h0ZM10.47,45.07v2.61h3.1v-2.61h1.27v6.55h-1.27v-2.62h-3.1v2.62h-1.27v-6.55h1.27Z"/>
      </g>
      <line class="cls-1" x1="64.77" y1="12.96" x2="64.77" y2="51.74"/>
      <g>
        <rect class="cls-5" x="74.31" y="12.98" width="28.83" height="38.76"/>
        <polygon class="cls-2" points="88.77 21.83 92.2 25.26 97.13 25.24 88.77 16.88 77.93 27.72 80.4 30.19 88.77 21.83"/>
        <polygon class="cls-4" points="97.13 25.25 88.77 33.61 85.37 30.21 80.42 30.21 88.77 38.56 99.6 27.72 97.13 25.25"/>
        <path class="cls-2" d="M79.08,46.02c-.84-.22-1-.25-1-.51s.28-.38.5-.38c.35,0,.64.1.66.51h.71c0-.77-.64-1.08-1.34-1.08-.6,0-1.25.33-1.25,1.01,0,.63.5.82,1,.95s.99.19.99.55-.39.42-.65.42c-.39,0-.74-.17-.74-.62h-.71c0,.82.68,1.19,1.42,1.19.91,0,1.39-.46,1.39-1.07,0-.75-.75-.91-.99-.97Z"/>
        <path class="cls-2" d="M81.84,46.84c0,.49-.15.69-.52.69-.31,0-.43-.2-.43-.6v-1.37h-.66v1.49c0,.6.18,1,.89,1,.3,0,.58-.15.74-.4h0v.34h.63v-2.42h-.66v1.27Z"/>
        <path class="cls-2" d="M84.13,45.51c-.29-.01-.57.13-.72.37h0v-.31h-.64v3.27h.66v-1.14h0c.17.24.44.37.73.36.71,0,1.06-.6,1.06-1.25s-.33-1.31-1.09-1.31ZM84,47.56c-.43,0-.57-.38-.57-.77s.14-.78.57-.78.57.4.57.78-.14.77-.57.77Z"/>
        <path class="cls-2" d="M86.58,45.51c-.67-.01-1.22.52-1.24,1.19,0,.03,0,.06,0,.09-.05.65.44,1.22,1.09,1.27.05,0,.1,0,.15,0,.53.04,1.01-.3,1.14-.81h-.59c-.09.2-.3.33-.52.31-.37,0-.57-.19-.6-.61h1.75c.05-.75-.34-1.44-1.17-1.44ZM86.01,46.53c.01-.29.25-.52.54-.5,0,0,0,0,0,0,.32,0,.47.18.53.52h-1.08Z"/>
        <path class="cls-2" d="M88.55,46.02h0v-.45h-.64v2.42h.66v-1.09c0-.43.17-.78.66-.78.1,0,.19.02.28.05v-.63c-.07-.02-.13-.03-.2-.03-.33,0-.64.21-.77.51Z"/>
        <polygon class="cls-2" points="90.43 45.24 91.93 45.24 91.93 44.62 89.68 44.62 89.68 48.01 90.43 48.01 90.43 46.61 91.94 46.61 91.94 46.03 90.43 46.03 90.43 45.24"/>
        <path class="cls-2" d="M93.84,46.84c0,.5-.16.7-.52.7-.31,0-.43-.2-.43-.6v-1.39h-.67v1.51c0,.61.18,1.01.9,1.01.3,0,.59-.15.75-.41h0v.35h.64v-2.46h-.66v1.28Z"/>
        <path class="cls-2" d="M96.2,45.49c-.3,0-.59.15-.75.41h0v-.34h-.66v2.46h.68v-1.29c0-.5.16-.7.52-.7.31,0,.43.2.43.6v1.39h.68v-1.51c0-.61-.19-1.02-.9-1.02Z"/>
        <path class="cls-2" d="M99.09,45.85h0c-.17-.24-.44-.38-.73-.36-.72,0-1.09.61-1.09,1.27s.36,1.32,1.1,1.32c.3.02.59-.12.75-.38h0v.32h.64v-3.4h-.67v1.23ZM98.52,47.56c-.42,0-.6-.4-.6-.79s.15-.78.6-.78.57.38.57.78-.11.8-.57.8h0Z"/>
        <rect class="cls-2" x="83.91" y="40.14" width=".73" height="3.34"/>
        <path class="cls-2" d="M85.57,42.22c0-.49.15-.69.52-.69.31,0,.43.2.43.6v1.37h.66v-1.49c0-.6-.18-1-.89-1-.3,0-.58.15-.74.4h0v-.34h-.65v2.42h.66v-1.27Z"/>
        <path class="cls-2" d="M89.17,43.17h0v.31h.64v-3.34h-.66v1.22h0c-.16-.23-.44-.37-.72-.36-.71,0-1.07.6-1.07,1.25s.36,1.3,1.09,1.3c.29.02.57-.13.73-.38ZM88.01,42.27c0-.4.15-.77.58-.77s.57.37.57.77-.13.78-.57.78-.58-.4-.58-.77h0Z"/>
        <path class="cls-2" d="M90.89,43.55c.3,0,.58-.15.74-.4h0v.34h.63v-2.42h-.65v1.27c0,.49-.15.69-.52.69-.31,0-.43-.2-.43-.6v-1.36h-.66v1.49c0,.6.18,1,.89,1Z"/>
        <path class="cls-2" d="M93.88,42.03c-.38-.09-.75-.12-.75-.36s.22-.23.37-.23c.24,0,.44.07.45.33h.63c-.05-.6-.54-.77-1.07-.77s-1.05.16-1.05.78c0,.43.38.57.77.65.48.1.75.17.75.37s-.24.31-.44.31c-.26,0-.5-.12-.51-.41h-.64c.03.64.57.85,1.14.85s1.11-.21,1.11-.85c0-.44-.38-.58-.77-.66Z"/>
        <path class="cls-2" d="M95.03,42.94c0,.48.36.57.76.57.13,0,.26,0,.39-.02v-.52c-.07.01-.14.02-.21.02-.23,0-.28-.06-.28-.28v-1.2h.49v-.44h-.48v-.72h-.66v.72h-.4v.44h.4v1.43Z"/>
        <path class="cls-2" d="M97.84,41.63l.63,1.71c.06.19-.05.4-.24.46-.04.01-.07.02-.11.02h-.03v.63h.07c.41.02.79-.22.94-.6l1.01-2.77h-.69l-.53,1.66h0l-.55-1.68h-.73c-.29.02-.54.22-.64.49h0v-.47h-.65v2.42h.66v-1.09c0-.43.17-.78.66-.78.07,0,.13,0,.2.01Z"/>
        <path class="cls-2" d="M78.37,42.75h1.25l.25.75h.77l-1.25-3.35h-.75l-1.27,3.35h.75l.26-.75ZM79,40.97h0l.44,1.23h-.85l.41-1.23Z"/>
        <path class="cls-2" d="M81.31,42.22c0-.49.15-.7.52-.7.31,0,.43.2.43.6v1.37h.67v-1.49c0-.6-.18-1-.89-1-.3,0-.58.15-.74.4h0v-.34h-.65v2.43h.67v-1.27Z"/>
      </g>
    </g>
  </g>
</svg>