<svg width="156" height="22" viewBox="0 0 156 22" fill="none" xmlns="http://www.w3.org/2000/svg">
<rect x="0.281586" y="0.593598" width="155.437" height="21.1248" rx="2.3904" stroke="#dd5900" stroke-width="0.563172"/>
<path d="M53.3875 14.766C51.2425 14.766 50.3405 13.699 50.2305 12.214H51.6385C51.7375 13.006 52.0565 13.666 53.3875 13.666C54.2565 13.666 54.8725 13.182 54.8725 12.456C54.8725 11.73 54.5095 11.455 53.2335 11.246C51.3525 10.993 50.4615 10.421 50.4615 8.94701C50.4615 7.66001 51.5615 6.69201 53.2005 6.69201C54.8945 6.69201 55.9065 7.46201 56.0605 8.96901H54.7185C54.5755 8.14401 54.1025 7.79201 53.2005 7.79201C52.3095 7.79201 51.8475 8.22101 51.8475 8.82601C51.8475 9.46401 52.1115 9.78301 53.4755 9.98101C55.3235 10.234 56.2805 10.762 56.2805 12.335C56.2805 13.699 55.1255 14.766 53.3875 14.766ZM59.0939 14.766C58.0379 14.766 57.1689 14.26 57.1689 13.061C57.1689 11.719 58.4669 11.235 60.1169 11.235H60.8319V10.938C60.8319 10.168 60.5679 9.78301 59.7869 9.78301C59.0939 9.78301 58.7529 10.113 58.6869 10.685H57.3999C57.5099 9.34301 58.5769 8.78201 59.8639 8.78201C61.1509 8.78201 62.1629 9.31001 62.1629 10.883V14.656H60.8539V13.952C60.4799 14.447 59.9739 14.766 59.0939 14.766ZM59.4129 13.809C60.2269 13.809 60.8319 13.38 60.8319 12.643V12.071H60.1499C59.1379 12.071 58.4889 12.302 58.4889 13.006C58.4889 13.49 58.7529 13.809 59.4129 13.809ZM63.7215 14.656V8.90301H65.0525V14.656H63.7215ZM64.3705 7.95701C63.9305 7.95701 63.5785 7.62701 63.5785 7.19801C63.5785 6.75801 63.9305 6.42801 64.3705 6.42801C64.8105 6.42801 65.1625 6.75801 65.1625 7.19801C65.1625 7.62701 64.8105 7.95701 64.3705 7.95701ZM69.8868 14.766C68.9738 14.766 68.3138 14.315 68.0058 13.732V14.656H66.6748V6.24101H68.0058V9.82701C68.3248 9.27701 69.0398 8.78201 69.8868 8.78201C71.3278 8.78201 72.4388 9.84901 72.4388 11.708V11.796C72.4388 13.644 71.3718 14.766 69.8868 14.766ZM69.5568 13.71C70.5358 13.71 71.0748 13.05 71.0748 11.818V11.73C71.0748 10.454 70.4148 9.82701 69.5458 9.82701C68.6218 9.82701 67.9618 10.454 67.9618 11.73V11.818C67.9618 13.105 68.5888 13.71 69.5568 13.71ZM75.1428 14.766C74.0868 14.766 73.2178 14.26 73.2178 13.061C73.2178 11.719 74.5158 11.235 76.1658 11.235H76.8808V10.938C76.8808 10.168 76.6168 9.78301 75.8358 9.78301C75.1428 9.78301 74.8018 10.113 74.7358 10.685H73.4488C73.5588 9.34301 74.6258 8.78201 75.9128 8.78201C77.1998 8.78201 78.2118 9.31001 78.2118 10.883V14.656H76.9028V13.952C76.5288 14.447 76.0228 14.766 75.1428 14.766ZM75.4618 13.809C76.2758 13.809 76.8808 13.38 76.8808 12.643V12.071H76.1988C75.1868 12.071 74.5378 12.302 74.5378 13.006C74.5378 13.49 74.8018 13.809 75.4618 13.809ZM82.3584 14.656V8.90301H83.6894V9.78301C83.9644 9.24401 84.5914 8.78201 85.4384 8.78201C86.1864 8.78201 86.7804 9.10101 87.0664 9.81601C87.5064 9.10101 88.2984 8.78201 89.0134 8.78201C90.0694 8.78201 90.9274 9.43101 90.9274 11.015V14.656H89.5964V11.103C89.5964 10.256 89.2334 9.89301 88.5734 9.89301C87.9134 9.89301 87.3084 10.333 87.3084 11.213V14.656H85.9774V11.103C85.9774 10.256 85.6034 9.89301 84.9544 9.89301C84.2944 9.89301 83.6894 10.333 83.6894 11.213V14.656H82.3584ZM93.9631 14.766C92.9071 14.766 92.0381 14.26 92.0381 13.061C92.0381 11.719 93.3361 11.235 94.9861 11.235H95.7011V10.938C95.7011 10.168 95.4371 9.78301 94.6561 9.78301C93.9631 9.78301 93.6221 10.113 93.5561 10.685H92.2691C92.3791 9.34301 93.4461 8.78201 94.7331 8.78201C96.0201 8.78201 97.0321 9.31001 97.0321 10.883V14.656H95.7231V13.952C95.3491 14.447 94.8431 14.766 93.9631 14.766ZM94.2821 13.809C95.0961 13.809 95.7011 13.38 95.7011 12.643V12.071H95.0191C94.0071 12.071 93.3581 12.302 93.3581 13.006C93.3581 13.49 93.6221 13.809 94.2821 13.809ZM98.5906 14.656V8.90301H99.9216V14.656H98.5906ZM99.2396 7.95701C98.7996 7.95701 98.4476 7.62701 98.4476 7.19801C98.4476 6.75801 98.7996 6.42801 99.2396 6.42801C99.6796 6.42801 100.032 6.75801 100.032 7.19801C100.032 7.62701 99.6796 7.95701 99.2396 7.95701ZM103.513 14.766C102.028 14.766 101.159 14.084 101.104 12.863H102.358C102.424 13.446 102.721 13.787 103.502 13.787C104.217 13.787 104.536 13.534 104.536 13.05C104.536 12.577 104.151 12.401 103.304 12.258C101.786 12.016 101.225 11.587 101.225 10.509C101.225 9.35401 102.303 8.78201 103.381 8.78201C104.558 8.78201 105.493 9.22201 105.636 10.52H104.404C104.294 9.99201 103.997 9.75001 103.381 9.75001C102.809 9.75001 102.468 10.025 102.468 10.432C102.468 10.85 102.743 11.015 103.656 11.169C105.009 11.378 105.812 11.708 105.812 12.929C105.812 14.095 104.987 14.766 103.513 14.766Z" fill="#dd5900"/>
</svg>
