<svg width="115" height="30" viewBox="0 0 115 30" fill="none" xmlns="http://www.w3.org/2000/svg">
<g id="CTA Button">
<rect width="114.29" height="29.4553" rx="4.15176" fill="white"/>
<g id="Group 944">
<path id="Vector 13" d="M8.30359 20.5528H18.683" stroke="#DC1928" stroke-width="0.998851" stroke-linecap="round"/>
<g id="Group 13562">
<path id="Vector 14" d="M8.55341 15.227L13.4934 18.4344L18.5419 15.227" stroke="#DC1928" stroke-width="0.998851" stroke-linecap="round"/>
<path id="Vector 15" d="M13.4847 8.90237V18.4345" stroke="#DC1928" stroke-width="0.998851" stroke-linecap="round"/>
</g>
</g>
<path id="Download the eCommer" d="M27.6345 9.70763H30.8025C33.1785 9.70763 34.9305 11.1476 34.9305 13.9676C34.9305 16.7756 33.1785 18.2276 30.8025 18.2276H27.6345V9.70763ZM30.6585 10.9316H29.1105V17.0036H30.6585C32.4105 17.0036 33.4185 16.0796 33.4185 13.9676C33.4185 11.8556 32.4105 10.9316 30.6585 10.9316ZM35.7519 15.1076C35.7519 13.1276 36.9399 11.8436 38.7159 11.8436C40.4799 11.8436 41.6799 13.1276 41.6799 15.1076C41.6799 17.0876 40.4799 18.3716 38.7159 18.3716C36.9399 18.3716 35.7519 17.0876 35.7519 15.1076ZM40.2399 14.8436C40.2399 13.6556 39.6279 12.9716 38.7159 12.9716C37.7919 12.9716 37.1919 13.6556 37.1919 14.8436V15.3596C37.1919 16.5476 37.7919 17.2436 38.7159 17.2436C39.6279 17.2436 40.2399 16.5476 40.2399 15.3596V14.8436ZM49.1706 18.2276H47.6586L46.4586 14.0876L45.3186 18.2276H43.7346L42.0186 11.9876H43.4226L44.5866 16.5236L45.8346 11.9876H47.0706L48.3906 16.5236L49.5426 11.9876H50.8746L49.1706 18.2276ZM52.9956 14.3756V18.2276H51.5796V11.9876H52.9956V12.7196H53.0436C53.4516 12.1796 53.9676 11.8436 54.7956 11.8436C56.0316 11.8436 56.8236 12.7556 56.8236 14.1596V18.2276H55.4076V14.2796C55.4076 13.5596 55.0956 13.0436 54.2796 13.0436C53.4396 13.0436 52.9956 13.6436 52.9956 14.3756ZM59.958 18.2276C58.83 18.2276 58.182 17.5796 58.182 16.5596V9.34763H59.598V16.4396C59.598 16.8476 59.754 17.0876 60.198 17.0876H60.618V18.2276H59.958ZM61.2978 15.1076C61.2978 13.1276 62.4858 11.8436 64.2618 11.8436C66.0258 11.8436 67.2258 13.1276 67.2258 15.1076C67.2258 17.0876 66.0258 18.3716 64.2618 18.3716C62.4858 18.3716 61.2978 17.0876 61.2978 15.1076ZM65.7858 14.8436C65.7858 13.6556 65.1738 12.9716 64.2618 12.9716C63.3378 12.9716 62.7378 13.6556 62.7378 14.8436V15.3596C62.7378 16.5476 63.3378 17.2436 64.2618 17.2436C65.1738 17.2436 65.7858 16.5476 65.7858 15.3596V14.8436ZM71.8234 17.3996C71.4994 17.9516 70.8754 18.3716 69.9754 18.3716C68.7994 18.3716 67.9834 17.6636 67.9834 16.5116C67.9834 15.2876 68.9074 14.8196 69.9154 14.6876L71.2234 14.5196C71.7274 14.4596 71.8354 14.2556 71.8354 13.8596C71.8354 13.2956 71.4994 12.8876 70.7434 12.8876C69.9874 12.8876 69.6034 13.3076 69.5554 13.9076H68.1034C68.1394 12.8636 69.0154 11.8436 70.7074 11.8436C72.3274 11.8436 73.2514 12.7916 73.2514 14.1716V17.1596C73.2514 17.5436 73.3114 17.9276 73.3714 18.2276H71.9194C71.8834 17.9876 71.8594 17.7236 71.8594 17.3996H71.8234ZM71.8474 14.9996C71.6434 15.1916 71.3794 15.2876 71.0554 15.3476L70.4314 15.4916C69.7954 15.6236 69.4114 15.8756 69.4114 16.4516C69.4114 17.0396 69.7594 17.3396 70.4074 17.3396C71.1874 17.3396 71.8474 16.8116 71.8474 15.9836V14.9996ZM78.7097 17.3876C78.3617 17.9636 77.6657 18.3716 76.8497 18.3716C75.3497 18.3716 74.2817 17.0876 74.2817 15.1076C74.2817 13.1276 75.3497 11.8436 76.8497 11.8436C77.6657 11.8436 78.3617 12.2516 78.7097 12.8276H78.7577V9.34763H80.1737V18.2276H78.7577V17.3876H78.7097ZM75.7217 15.3476C75.7217 16.5716 76.2857 17.2436 77.2457 17.2436C78.1337 17.2436 78.7577 16.5356 78.7577 15.4316V14.7836C78.7577 13.6796 78.1337 12.9716 77.2457 12.9716C76.2857 12.9716 75.7217 13.6556 75.7217 14.8796V15.3476ZM85.2559 14.3756V18.2276H83.8399V11.9876H85.2559V12.7196H85.3039C85.7119 12.1796 86.2279 11.8436 87.0559 11.8436C88.2919 11.8436 89.0839 12.7556 89.0839 14.1596V18.2276H87.6679V14.2796C87.6679 13.5596 87.3559 13.0436 86.5399 13.0436C85.6999 13.0436 85.2559 13.6436 85.2559 14.3756ZM90.1424 15.1076C90.1424 13.1276 91.3304 11.8436 93.1064 11.8436C94.8704 11.8436 96.0704 13.1276 96.0704 15.1076C96.0704 17.0876 94.8704 18.3716 93.1064 18.3716C91.3304 18.3716 90.1424 17.0876 90.1424 15.1076ZM94.6304 14.8436C94.6304 13.6556 94.0184 12.9716 93.1064 12.9716C92.1824 12.9716 91.5824 13.6556 91.5824 14.8436V15.3596C91.5824 16.5476 92.1824 17.2436 93.1064 17.2436C94.0184 17.2436 94.6304 16.5476 94.6304 15.3596V14.8436ZM103.561 18.2276H102.049L100.849 14.0876L99.7091 18.2276H98.1251L96.4091 11.9876H97.8131L98.9771 16.5236L100.225 11.9876H101.461L102.781 16.5236L103.933 11.9876H105.265L103.561 18.2276Z" fill="#DC1928"/>
</g>
</svg>
