<svg width="128" height="33" viewBox="0 0 128 33" fill="none" xmlns="http://www.w3.org/2000/svg">
<rect width="127.29" height="32.4553" rx="4.15176" fill="white"/>
<path d="M8.30347 22.0527H18.6829" stroke="#DC1928" stroke-width="0.998851" stroke-linecap="round"/>
<path d="M8.55347 16.7266L13.4935 19.934L18.542 16.7266" stroke="#DC1928" stroke-width="0.998851" stroke-linecap="round"/>
<path d="M13.4849 10.4023V19.9344" stroke="#DC1928" stroke-width="0.998851" stroke-linecap="round"/>
<path d="M27.7423 11.2875H31.4383C34.2103 11.2875 36.2543 12.9675 36.2543 16.2575C36.2543 19.5335 34.2103 21.2275 31.4383 21.2275H27.7423V11.2875ZM31.2703 12.7155H29.4643V19.7995H31.2703C33.3143 19.7995 34.4903 18.7215 34.4903 16.2575C34.4903 13.7935 33.3143 12.7155 31.2703 12.7155ZM37.2127 17.5875C37.2127 15.2775 38.5987 13.7795 40.6707 13.7795C42.7287 13.7795 44.1287 15.2775 44.1287 17.5875C44.1287 19.8975 42.7287 21.3955 40.6707 21.3955C38.5987 21.3955 37.2127 19.8975 37.2127 17.5875ZM42.4487 17.2795C42.4487 15.8935 41.7347 15.0955 40.6707 15.0955C39.5927 15.0955 38.8927 15.8935 38.8927 17.2795V17.8815C38.8927 19.2675 39.5927 20.0795 40.6707 20.0795C41.7347 20.0795 42.4487 19.2675 42.4487 17.8815V17.2795ZM52.8678 21.2275H51.1038L49.7038 16.3975L48.3738 21.2275H46.5258L44.5238 13.9475H46.1618L47.5198 19.2395L48.9758 13.9475H50.4178L51.9578 19.2395L53.3018 13.9475H54.8558L52.8678 21.2275ZM57.3303 16.7335V21.2275H55.6783V13.9475H57.3303V14.8015H57.3863C57.8623 14.1715 58.4643 13.7795 59.4303 13.7795C60.8723 13.7795 61.7963 14.8435 61.7963 16.4815V21.2275H60.1443V16.6215C60.1443 15.7815 59.7803 15.1795 58.8283 15.1795C57.8483 15.1795 57.3303 15.8795 57.3303 16.7335ZM65.4532 21.2275C64.1372 21.2275 63.3812 20.4715 63.3812 19.2815V10.8675H65.0332V19.1415C65.0332 19.6175 65.2152 19.8975 65.7332 19.8975H66.2232V21.2275H65.4532ZM67.0163 17.5875C67.0163 15.2775 68.4023 13.7795 70.4743 13.7795C72.5323 13.7795 73.9323 15.2775 73.9323 17.5875C73.9323 19.8975 72.5323 21.3955 70.4743 21.3955C68.4023 21.3955 67.0163 19.8975 67.0163 17.5875ZM72.2523 17.2795C72.2523 15.8935 71.5383 15.0955 70.4743 15.0955C69.3963 15.0955 68.6963 15.8935 68.6963 17.2795V17.8815C68.6963 19.2675 69.3963 20.0795 70.4743 20.0795C71.5383 20.0795 72.2523 19.2675 72.2523 17.8815V17.2795ZM79.2961 20.2615C78.9181 20.9055 78.1901 21.3955 77.1401 21.3955C75.7681 21.3955 74.8161 20.5695 74.8161 19.2255C74.8161 17.7975 75.8941 17.2515 77.0701 17.0975L78.5961 16.9015C79.1841 16.8315 79.3101 16.5935 79.3101 16.1315C79.3101 15.4735 78.9181 14.9975 78.0361 14.9975C77.1541 14.9975 76.7061 15.4875 76.6501 16.1875H74.9561C74.9981 14.9695 76.0201 13.7795 77.9941 13.7795C79.8841 13.7795 80.9621 14.8855 80.9621 16.4955V19.9815C80.9621 20.4295 81.0321 20.8775 81.1021 21.2275H79.4081C79.3661 20.9475 79.3381 20.6395 79.3381 20.2615H79.2961ZM79.3241 17.4615C79.0861 17.6855 78.7781 17.7975 78.4001 17.8675L77.6721 18.0355C76.9301 18.1895 76.4821 18.4835 76.4821 19.1555C76.4821 19.8415 76.8881 20.1915 77.6441 20.1915C78.5541 20.1915 79.3241 19.5755 79.3241 18.6095V17.4615ZM87.3302 20.2475C86.9242 20.9195 86.1122 21.3955 85.1602 21.3955C83.4102 21.3955 82.1642 19.8975 82.1642 17.5875C82.1642 15.2775 83.4102 13.7795 85.1602 13.7795C86.1122 13.7795 86.9242 14.2555 87.3302 14.9275H87.3862V10.8675H89.0382V21.2275H87.3862V20.2475H87.3302ZM83.8442 17.8675C83.8442 19.2955 84.5022 20.0795 85.6222 20.0795C86.6582 20.0795 87.3862 19.2535 87.3862 17.9655V17.2095C87.3862 15.9215 86.6582 15.0955 85.6222 15.0955C84.5022 15.0955 83.8442 15.8935 83.8442 17.3215V17.8675ZM94.9674 16.7335V21.2275H93.3154V13.9475H94.9674V14.8015H95.0234C95.4994 14.1715 96.1014 13.7795 97.0674 13.7795C98.5094 13.7795 99.4334 14.8435 99.4334 16.4815V21.2275H97.7814V16.6215C97.7814 15.7815 97.4174 15.1795 96.4654 15.1795C95.4854 15.1795 94.9674 15.8795 94.9674 16.7335ZM100.668 17.5875C100.668 15.2775 102.054 13.7795 104.126 13.7795C106.184 13.7795 107.584 15.2775 107.584 17.5875C107.584 19.8975 106.184 21.3955 104.126 21.3955C102.054 21.3955 100.668 19.8975 100.668 17.5875ZM105.904 17.2795C105.904 15.8935 105.19 15.0955 104.126 15.0955C103.048 15.0955 102.348 15.8935 102.348 17.2795V17.8815C102.348 19.2675 103.048 20.0795 104.126 20.0795C105.19 20.0795 105.904 19.2675 105.904 17.8815V17.2795ZM116.323 21.2275H114.559L113.159 16.3975L111.829 21.2275H109.981L107.979 13.9475H109.617L110.975 19.2395L112.431 13.9475H113.873L115.413 19.2395L116.757 13.9475H118.311L116.323 21.2275Z" fill="#DC1928"/>
</svg>
