<svg width="371" height="46" viewBox="0 0 371 46" fill="none" xmlns="http://www.w3.org/2000/svg">
<path d="M12.53 28.872V44H5.648V1.53H21.768C31.3573 1.53 36.152 6.03533 36.152 15.046C36.152 21.0807 33.8373 25.1727 29.208 27.322L36.214 44H28.65L22.512 28.872H12.53ZM29.084 15.108C29.084 10.024 26.6453 7.482 21.768 7.482H12.53V22.92H21.892C24.372 22.92 26.1907 22.2173 27.348 20.812C28.5053 19.3653 29.084 17.464 29.084 15.108ZM63.5158 38.42L65.2518 38.234L65.3758 43.256C60.6638 44.2067 56.4891 44.682 52.8518 44.682C48.2638 44.682 44.9571 43.4213 42.9318 40.9C40.9478 38.3787 39.9558 34.3487 39.9558 28.81C39.9558 17.8153 44.4405 12.318 53.4098 12.318C62.0898 12.318 66.4298 17.0507 66.4298 26.516L65.9958 31.352H46.7758C46.8171 33.9147 47.3751 35.7953 48.4498 36.994C49.5245 38.1927 51.5291 38.792 54.4638 38.792C57.3985 38.792 60.4158 38.668 63.5158 38.42ZM59.7958 26.144C59.7958 23.0853 59.2998 20.9567 58.3078 19.758C57.3571 18.518 55.7245 17.898 53.4098 17.898C51.0951 17.898 49.4005 18.5387 48.3258 19.82C47.2925 21.1013 46.7551 23.2093 46.7138 26.144H59.7958ZM83.2822 12.318C85.4728 12.318 88.0562 12.6073 91.0322 13.186L92.5822 13.496L92.3342 18.828C89.0688 18.4973 86.6508 18.332 85.0802 18.332C81.9388 18.332 79.8308 19.0347 78.7562 20.44C77.6815 21.8453 77.1442 24.4907 77.1442 28.376C77.1442 32.2613 77.6608 34.948 78.6942 36.436C79.7275 37.924 81.8768 38.668 85.1422 38.668L92.3962 38.172L92.5822 43.566C88.4075 44.31 85.2662 44.682 83.1582 44.682C78.4462 44.682 75.1188 43.4213 73.1762 40.9C71.2748 38.3373 70.3242 34.1627 70.3242 28.376C70.3242 22.5893 71.3368 18.4767 73.3622 16.038C75.3875 13.558 78.6942 12.318 83.2822 12.318ZM119.645 38.42L121.381 38.234L121.505 43.256C116.793 44.2067 112.619 44.682 108.981 44.682C104.393 44.682 101.087 43.4213 99.0612 40.9C97.0772 38.3787 96.0852 34.3487 96.0852 28.81C96.0852 17.8153 100.57 12.318 109.539 12.318C118.219 12.318 122.559 17.0507 122.559 26.516L122.125 31.352H102.905C102.947 33.9147 103.505 35.7953 104.579 36.994C105.654 38.1927 107.659 38.792 110.593 38.792C113.528 38.792 116.545 38.668 119.645 38.42ZM115.925 26.144C115.925 23.0853 115.429 20.9567 114.437 19.758C113.487 18.518 111.854 17.898 109.539 17.898C107.225 17.898 105.53 18.5387 104.455 19.82C103.422 21.1013 102.885 23.2093 102.843 26.144H115.925ZM127.818 44V13H134.576V44H127.818ZM127.818 7.73V0.599997H134.576V7.73H127.818ZM138.619 13H145.687L151.639 38.234H153.623L159.823 13H166.705L158.645 44H146.617L138.619 13ZM192.335 38.42L194.071 38.234L194.195 43.256C189.483 44.2067 185.309 44.682 181.671 44.682C177.083 44.682 173.777 43.4213 171.751 40.9C169.767 38.3787 168.775 34.3487 168.775 28.81C168.775 17.8153 173.26 12.318 182.229 12.318C190.909 12.318 195.249 17.0507 195.249 26.516L194.815 31.352H175.595C175.637 33.9147 176.195 35.7953 177.269 36.994C178.344 38.1927 180.349 38.792 183.283 38.792C186.218 38.792 189.235 38.668 192.335 38.42ZM188.615 26.144C188.615 23.0853 188.119 20.9567 187.127 19.758C186.177 18.518 184.544 17.898 182.229 17.898C179.915 17.898 178.22 18.5387 177.145 19.82C176.112 21.1013 175.575 23.2093 175.533 26.144H188.615ZM235.831 22.548V36.684C235.872 37.5933 236.099 38.2753 236.513 38.73C236.967 39.1433 237.649 39.412 238.559 39.536L238.373 44.682C234.818 44.682 232.069 43.9173 230.127 42.388C226.82 43.9173 223.493 44.682 220.145 44.682C213.986 44.682 210.907 41.396 210.907 34.824C210.907 31.6827 211.733 29.4093 213.387 28.004C215.081 26.5987 217.665 25.7513 221.137 25.462L229.135 24.78V22.548C229.135 20.8947 228.763 19.7373 228.019 19.076C227.316 18.4147 226.262 18.084 224.857 18.084C222.211 18.084 218.905 18.2493 214.937 18.58L212.953 18.704L212.705 13.93C217.21 12.8553 221.343 12.318 225.105 12.318C228.907 12.318 231.635 13.1447 233.289 14.798C234.983 16.41 235.831 18.9933 235.831 22.548ZM221.943 30.236C219.091 30.484 217.665 32.034 217.665 34.886C217.665 37.738 218.925 39.164 221.447 39.164C223.513 39.164 225.704 38.8333 228.019 38.172L229.135 37.8V29.554L221.943 30.236Z" fill="white"/>
<path d="M270.324 21.5283C270.324 23.7443 269.653 25.4276 268.311 26.5782C266.968 27.7075 265.211 28.2721 263.037 28.2721H263.005L262.526 32.0435C260.949 31.9796 260.161 31.905 260.161 31.8198L260.608 28.1123C259.031 27.9205 257.71 27.6968 256.645 27.4411L256.006 27.3133L256.421 23.9893C258.104 24.2237 259.66 24.3835 261.088 24.4687L261.791 18.9075C259.596 18.247 258.041 17.4479 257.124 16.5104C256.208 15.5729 255.75 14.2944 255.75 12.675C255.75 10.5656 256.389 8.99951 257.668 7.97675C258.946 6.93268 260.704 6.41065 262.941 6.41065H263.357L263.932 2H266.297L265.722 6.60242C267.043 6.73026 268.257 6.90072 269.365 7.11379L269.909 7.24164L269.557 10.6295C268.002 10.4591 266.564 10.3312 265.242 10.246L264.603 15.3917C266.819 16.0949 268.321 16.8726 269.11 17.7249C269.919 18.5559 270.324 19.8237 270.324 21.5283ZM260.001 12.3874C260.001 12.8988 260.161 13.3143 260.48 13.6339C260.8 13.9535 261.418 14.2838 262.334 14.6247L262.877 10.1821C260.96 10.2673 260.001 11.0024 260.001 12.3874ZM266.073 21.816C266.073 21.3046 265.924 20.8891 265.626 20.5695C265.349 20.2285 264.838 19.9089 264.092 19.6106L263.485 24.5007C265.211 24.3089 266.073 23.414 266.073 21.816Z" fill="#FFE344"/>
<path d="M295.509 2.64109V44.8299H286.688V12.613L277.547 18.4939L273.52 11.9098L287.455 2.64109H295.509ZM301.874 7.11566C304.644 3.62124 308.735 1.87402 314.147 1.87402C319.559 1.87402 323.629 3.62124 326.356 7.11566C329.126 10.6101 330.511 16.2353 330.511 23.9912C330.511 31.7045 329.147 37.2444 326.42 40.611C323.692 43.935 319.601 45.597 314.147 45.597C308.692 45.597 304.601 43.935 301.874 40.611C299.146 37.2444 297.783 31.7045 297.783 23.9912C297.783 16.2353 299.146 10.6101 301.874 7.11566ZM321.434 23.7994C321.434 18.5152 320.88 14.829 319.772 12.7408C318.664 10.6101 316.789 9.54471 314.147 9.54471C311.547 9.54471 309.672 10.6101 308.522 12.7408C307.414 14.8716 306.86 18.5578 306.86 23.7994C306.86 29.0411 307.435 32.7059 308.585 34.7941C309.736 36.8822 311.611 37.9263 314.211 37.9263C316.81 37.9263 318.664 36.8822 319.772 34.7941C320.88 32.7059 321.434 29.0411 321.434 23.7994ZM336.364 7.11566C339.134 3.62124 343.225 1.87402 348.637 1.87402C354.049 1.87402 358.119 3.62124 360.847 7.11566C363.617 10.6101 365.002 16.2353 365.002 23.9912C365.002 31.7045 363.638 37.2444 360.91 40.611C358.183 43.935 354.092 45.597 348.637 45.597C343.183 45.597 339.092 43.935 336.364 40.611C333.637 37.2444 332.273 31.7045 332.273 23.9912C332.273 16.2353 333.637 10.6101 336.364 7.11566ZM355.925 23.7994C355.925 18.5152 355.371 14.829 354.263 12.7408C353.155 10.6101 351.279 9.54471 348.637 9.54471C346.038 9.54471 344.163 10.6101 343.012 12.7408C341.904 14.8716 341.35 18.5578 341.35 23.7994C341.35 29.0411 341.926 32.7059 343.076 34.7941C344.227 36.8822 346.102 37.9263 348.701 37.9263C351.301 37.9263 353.155 36.8822 354.263 34.7941C355.371 32.7059 355.925 29.0411 355.925 23.7994Z" fill="#FFE344"/>
</svg>
