<svg width="221" height="79" viewBox="0 0 221 79" fill="none" xmlns="http://www.w3.org/2000/svg">
<path d="M0.213323 33.6442L5.89716 26.7917C6.88874 27.7833 8.18132 28.6863 9.77492 29.5008C11.4039 30.3153 13.1569 30.7226 15.0338 30.7226C15.99 30.7226 16.9107 30.5278 17.796 30.1382C18.6814 29.7487 19.124 29.005 19.124 27.9072C19.124 26.9865 18.646 26.2251 17.6898 25.623C16.7336 24.9856 15.3702 24.3836 13.5996 23.817L11.6341 23.1795C10.1822 22.6837 8.73023 22.0286 7.27828 21.2141C5.86175 20.3642 4.6754 19.2841 3.71924 17.9738C2.7985 16.6635 2.33812 15.0522 2.33812 13.1398C2.33812 10.9442 2.85162 8.97877 3.8786 7.24352C4.941 5.50827 6.49919 4.14485 8.55316 3.15328C10.6071 2.12629 13.1038 1.6128 16.0431 1.6128C18.3804 1.6128 20.3989 1.8784 22.0988 2.4096C23.834 2.9408 25.2683 3.56053 26.4015 4.2688C27.5347 4.97707 28.3669 5.61451 28.8981 6.18112L24.1173 12.2368C22.8779 11.3161 21.5853 10.5724 20.2396 10.0058C18.8939 9.40373 17.5127 9.10272 16.0962 9.10272C15.1755 9.10272 14.2901 9.3152 13.4402 9.74016C12.6257 10.1297 12.2184 10.8203 12.2184 11.8118C12.2184 12.9097 12.7142 13.7065 13.7058 14.2022C14.6974 14.698 15.9545 15.1938 17.4773 15.6896L19.1772 16.2208C20.3812 16.5749 21.5853 17.0353 22.7893 17.6019C24.0288 18.1331 25.162 18.8237 26.189 19.6736C27.216 20.5235 28.0305 21.6036 28.6325 22.9139C29.27 24.1888 29.5887 25.7647 29.5887 27.6416C29.5887 29.8018 28.9335 31.7318 27.6232 33.4317C26.3484 35.1315 24.6131 36.4595 22.4175 37.4157C20.2573 38.3718 17.8492 38.8499 15.1932 38.8499C11.6518 38.8499 8.67711 38.3718 6.269 37.4157C3.89631 36.4595 1.87775 35.2023 0.213323 33.6442ZM34.2549 24.1888V2.56896H43.6572V23.3389C43.6572 25.2866 44.0998 26.8802 44.9852 28.1197C45.9059 29.3591 47.411 29.9789 49.5004 29.9789C51.5898 29.9789 53.0771 29.3591 53.9625 28.1197C54.8478 26.8448 55.2905 25.2512 55.2905 23.3389V2.56896H64.7989V24.1888C64.7989 27.1989 64.1438 29.8195 62.8335 32.0506C61.5232 34.2462 59.7171 35.946 57.4153 37.1501C55.1488 38.3187 52.5282 38.903 49.5535 38.903C46.5788 38.903 43.9405 38.3187 41.6386 37.1501C39.3368 35.9814 37.5307 34.2993 36.2204 32.1037C34.9101 29.8726 34.2549 27.2343 34.2549 24.1888ZM70.9355 38V2.56896H85.3842C89.1734 2.56896 92.219 3.57824 94.5208 5.5968C96.8227 7.57995 97.9736 10.4838 97.9736 14.3085C97.9736 16.7166 97.4424 18.8237 96.38 20.6298C95.3176 22.4004 93.8657 23.7815 92.0242 24.7731C90.1827 25.7293 88.0579 26.2074 85.6498 26.2074H80.1253V38H70.9355ZM80.1253 18.8237H84.5874C85.8623 18.8237 86.8715 18.4164 87.6152 17.6019C88.3589 16.7874 88.7307 15.7427 88.7307 14.4678C88.7307 13.1221 88.3766 12.042 87.6683 11.2275C86.9601 10.413 85.9154 10.0058 84.5343 10.0058H80.1253V18.8237ZM102.631 38V2.56896H128.129V10.6963H112.033V16.1677H125.26V23.817H112.033V29.8726H129.244V38H102.631ZM134.119 38V2.56896H148.78C152.57 2.56896 155.615 3.56053 157.917 5.54368C160.219 7.49141 161.37 10.3776 161.37 14.2022C161.37 16.5041 160.856 18.5227 159.829 20.2579C158.802 21.9932 157.439 23.3743 155.739 24.4013L163.335 38H153.242L147.24 25.9418H143.309V38H134.119ZM143.309 18.5581H147.877C149.117 18.5581 150.126 18.1862 150.905 17.4426C151.684 16.6635 152.074 15.6365 152.074 14.3616C152.074 13.0159 151.702 11.9535 150.958 11.1744C150.215 10.3953 149.17 10.0058 147.824 10.0058H143.309V18.5581ZM177.312 38V1.90334H186.891V38H177.312ZM190.402 33.5623L196.192 26.5811C197.203 27.5913 198.519 28.5113 200.143 29.3411C201.803 30.1709 203.588 30.5858 205.501 30.5858C206.475 30.5858 207.413 30.3874 208.315 29.9905C209.217 29.5937 209.668 28.836 209.668 27.7176C209.668 26.7795 209.181 26.0039 208.207 25.3905C207.232 24.7411 205.843 24.1278 204.039 23.5505L202.037 22.9011C200.558 22.396 199.079 21.7285 197.599 20.8987C196.156 20.0328 194.948 18.9324 193.974 17.5975C193.035 16.2626 192.566 14.6211 192.566 12.6728C192.566 10.4359 193.09 8.43357 194.136 6.66571C195.218 4.89786 196.806 3.50884 198.898 2.49864C200.991 1.45235 203.534 0.929214 206.529 0.929214C208.91 0.929214 210.967 1.1998 212.698 1.74099C214.466 2.28216 215.927 2.91354 217.082 3.63511C218.236 4.35668 219.084 5.0061 219.625 5.58336L214.755 11.7528C213.492 10.8148 212.175 10.0571 210.804 9.47985C209.433 8.86651 208.026 8.55984 206.583 8.55984C205.645 8.55984 204.743 8.77632 203.877 9.20926C203.047 9.60612 202.632 10.3097 202.632 11.3199C202.632 12.4383 203.137 13.2501 204.148 13.7552C205.158 14.2603 206.439 14.7654 207.99 15.2705L209.722 15.8116C210.949 16.1724 212.175 16.6415 213.402 17.2187C214.665 17.7599 215.819 18.4634 216.865 19.3293C217.912 20.1952 218.741 21.2956 219.355 22.6305C220.004 23.9293 220.329 25.5348 220.329 27.447C220.329 29.6478 219.662 31.6141 218.327 33.3459C217.028 35.0776 215.26 36.4306 213.023 37.4047C210.822 38.3788 208.369 38.8659 205.663 38.8659C202.055 38.8659 199.025 38.3788 196.571 37.4047C194.154 36.4306 192.097 35.1498 190.402 33.5623ZM2.28718 78V47.0044H10.5124V78H2.28718ZM16.083 78V47.0044H23.5647L35.461 64.2913V47.0044H43.5933V78H36.5763L24.2153 60.2019V78H16.083ZM57.8092 78L46.5634 47.0044H55.5321L62.5026 68.5666L69.0085 47.0044H77.7913L66.4991 78H57.8092ZM80.7509 78V47.0044H103.057V54.1144H88.9761V58.9008H100.547V65.5925H88.9761V70.8901H104.032V78H80.7509ZM105.741 74.1895L110.714 68.1948C111.581 69.0622 112.712 69.8522 114.106 70.5648C115.531 71.2773 117.064 71.6336 118.706 71.6336C119.543 71.6336 120.348 71.4632 121.123 71.1224C121.897 70.7816 122.285 70.1311 122.285 69.1707C122.285 68.3652 121.866 67.6991 121.03 67.1725C120.193 66.6148 119.001 66.0882 117.452 65.5925L115.732 65.0348C114.462 64.6011 113.192 64.028 111.922 63.3154C110.683 62.5719 109.645 61.627 108.808 60.4808C108.003 59.3345 107.6 57.9249 107.6 56.252C107.6 54.3312 108.049 52.6118 108.948 51.0938C109.877 49.5758 111.24 48.3831 113.037 47.5156C114.834 46.6172 117.018 46.168 119.589 46.168C121.634 46.168 123.4 46.4003 124.887 46.865C126.405 47.3297 127.66 47.8719 128.651 48.4915C129.642 49.1111 130.37 49.6687 130.835 50.1644L126.653 55.462C125.568 54.6565 124.438 54.0059 123.26 53.5103C122.083 52.9836 120.875 52.7203 119.636 52.7203C118.83 52.7203 118.056 52.9061 117.312 53.2779C116.6 53.6187 116.243 54.2228 116.243 55.0902C116.243 56.0506 116.677 56.7477 117.545 57.1814C118.412 57.6151 119.512 58.0488 120.844 58.4826L122.331 58.9473C123.384 59.2571 124.438 59.6598 125.491 60.1555C126.575 60.6202 127.567 61.2243 128.465 61.9678C129.364 62.7113 130.076 63.6562 130.603 64.8025C131.16 65.9178 131.439 67.2964 131.439 68.9383C131.439 70.8281 130.866 72.5165 129.72 74.0036C128.605 75.4906 127.087 76.6524 125.166 77.4888C123.276 78.3253 121.169 78.7435 118.846 78.7435C115.748 78.7435 113.145 78.3253 111.039 77.4888C108.963 76.6524 107.197 75.5526 105.741 74.1895ZM143.375 78V54.2073H133.848V47.0044H161.126V54.2073H151.693V78H143.375ZM164.842 78V47.0044H187.147V54.1144H173.067V58.9008H184.638V65.5925H173.067V70.8901H188.123V78H164.842ZM192.388 78V47.0044H204.284C207.475 47.0044 210.31 47.5621 212.788 48.6774C215.298 49.7617 217.281 51.4656 218.737 53.7891C220.193 56.0816 220.921 59.0402 220.921 62.6649C220.921 66.0727 220.193 68.9228 218.737 71.2154C217.281 73.4769 215.282 75.1808 212.742 76.3271C210.233 77.4424 207.398 78 204.238 78H192.388ZM200.613 70.7507H203.959C206.623 70.7507 208.699 69.9917 210.186 68.4736C211.673 66.9246 212.417 64.9264 212.417 62.479C212.417 60.0006 211.735 58.0024 210.372 56.4843C209.009 54.9663 206.871 54.2073 203.959 54.2073H200.613V70.7507Z" fill="#FFD100"/>
</svg>
