<svg width="309" height="250" viewBox="0 0 309 250" fill="none" xmlns="http://www.w3.org/2000/svg">
<rect width="129.821" height="33.3325" transform="translate(30.9663 95.9647)" fill="#FEE345"/>
<path d="M36.926 111.631L39.2075 101.491H43.1145L45.396 111.631H43.3381L42.9355 109.797H39.3865L38.9839 111.631H36.926ZM40.8031 103.191L39.7742 108.007H42.5478L41.5189 103.191H40.8031ZM50.8209 107.992V106.203H53.7734V111.467C52.3518 111.696 51.1987 111.81 50.3139 111.81C48.7332 111.81 47.6447 111.387 47.0482 110.542C46.4616 109.697 46.1684 108.355 46.1684 106.516C46.1684 104.677 46.4766 103.35 47.0929 102.535C47.7093 101.719 48.7581 101.312 50.2393 101.312C51.1639 101.312 52.163 101.416 53.2366 101.625L53.7734 101.729L53.7138 103.325C52.5208 103.196 51.5416 103.131 50.7761 103.131C50.0206 103.131 49.4888 103.221 49.1806 103.4C48.8724 103.578 48.6437 103.912 48.4946 104.399C48.3555 104.876 48.2859 105.701 48.2859 106.874C48.2859 108.037 48.43 108.852 48.7183 109.32C49.0066 109.787 49.6031 110.02 50.5077 110.02L51.7454 109.961V107.992H50.8209ZM61.4878 111.631H55.7169V101.491H57.7747V109.812H61.4878V111.631ZM61.1371 105.174L61.838 101.491H63.9406L62.673 105.174H61.1371ZM70.3423 106.039C69.1096 105.88 68.2447 105.8 67.7476 105.8C67.2605 105.8 66.9424 105.845 66.7933 105.935C66.6541 106.024 66.5845 106.168 66.5845 106.367C66.5845 106.556 66.6789 106.69 66.8678 106.77C67.0667 106.839 67.5637 106.949 68.359 107.098C69.1643 107.237 69.7359 107.47 70.0739 107.799C70.4119 108.127 70.5809 108.658 70.5809 109.394C70.5809 111.005 69.5818 111.81 67.5836 111.81C66.9275 111.81 66.1322 111.72 65.1977 111.541L64.7205 111.452L64.7802 109.782C66.0129 109.941 66.8678 110.02 67.345 110.02C67.8321 110.02 68.1602 109.976 68.3292 109.886C68.5081 109.787 68.5976 109.643 68.5976 109.454C68.5976 109.265 68.5032 109.126 68.3143 109.036C68.1353 108.947 67.6582 108.837 66.8827 108.708C66.1173 108.579 65.5456 108.36 65.1679 108.052C64.7901 107.744 64.6012 107.197 64.6012 106.412C64.6012 105.616 64.8696 105.02 65.4065 104.622C65.9433 104.215 66.6342 104.011 67.4792 104.011C68.0658 104.011 68.866 104.105 69.88 104.294L70.3721 104.384L70.3423 106.039ZM79.6981 107.992V106.203H82.6507V111.467C81.2291 111.696 80.0759 111.81 79.1911 111.81C77.6104 111.81 76.5219 111.387 75.9254 110.542C75.3389 109.697 75.0456 108.355 75.0456 106.516C75.0456 104.677 75.3538 103.35 75.9701 102.535C76.5865 101.719 77.6353 101.312 79.1165 101.312C80.0411 101.312 81.0402 101.416 82.1138 101.625L82.6507 101.729L82.591 103.325C81.3981 103.196 80.4189 103.131 79.6534 103.131C78.8978 103.131 78.366 103.221 78.0578 103.4C77.7496 103.578 77.521 103.912 77.3719 104.399C77.2327 104.876 77.1631 105.701 77.1631 106.874C77.1631 108.037 77.3072 108.852 77.5955 109.32C77.8838 109.787 78.4803 110.02 79.385 110.02L80.6226 109.961V107.992H79.6981ZM84.4152 111.631V104.175H86.3984V104.965C87.2335 104.468 88.0288 104.145 88.7843 103.996V106.009C87.9791 106.178 87.2882 106.352 86.7116 106.531L86.4134 106.635V111.631H84.4152ZM91.6037 108.753C91.6137 109.21 91.733 109.543 91.9616 109.752C92.2002 109.951 92.5382 110.05 92.9756 110.05C93.9002 110.05 94.7253 110.02 95.451 109.961L95.8685 109.916L95.8984 111.392C94.7551 111.671 93.7212 111.81 92.7967 111.81C91.6733 111.81 90.8581 111.512 90.3511 110.915C89.8441 110.319 89.5906 109.349 89.5906 108.007C89.5906 105.333 90.6891 103.996 92.8862 103.996C95.0534 103.996 96.137 105.119 96.137 107.366L95.9878 108.753H91.6037ZM94.1686 107.232C94.1686 106.635 94.0741 106.223 93.8853 105.994C93.6964 105.756 93.3633 105.636 92.8862 105.636C92.4189 105.636 92.0859 105.761 91.8871 106.009C91.6982 106.248 91.5988 106.655 91.5888 107.232H94.1686ZM103.276 106.501V109.603C103.296 109.841 103.336 110.01 103.396 110.11C103.455 110.199 103.579 110.264 103.768 110.304L103.709 111.81C103.202 111.81 102.794 111.775 102.486 111.705C102.188 111.636 101.884 111.497 101.576 111.288C100.861 111.636 100.13 111.81 99.3843 111.81C97.8434 111.81 97.0729 110.995 97.0729 109.364C97.0729 108.569 97.2867 108.007 97.7141 107.679C98.1416 107.341 98.7977 107.142 99.6825 107.083L101.278 106.963V106.501C101.278 106.193 101.208 105.984 101.069 105.875C100.93 105.756 100.706 105.696 100.398 105.696L97.5948 105.815L97.5352 104.428C98.5989 104.14 99.6079 103.996 100.562 103.996C101.527 103.996 102.218 104.195 102.635 104.592C103.063 104.99 103.276 105.626 103.276 106.501ZM99.9211 108.47C99.3644 108.519 99.086 108.818 99.086 109.364C99.086 109.911 99.3296 110.184 99.8167 110.184C100.194 110.184 100.607 110.125 101.054 110.005L101.278 109.946V108.35L99.9211 108.47ZM109.312 105.875H107.478V108.932C107.478 109.23 107.483 109.444 107.492 109.573C107.512 109.692 107.567 109.797 107.657 109.886C107.756 109.976 107.905 110.02 108.104 110.02L109.237 109.991L109.327 111.586C108.661 111.735 108.154 111.81 107.806 111.81C106.911 111.81 106.3 111.611 105.971 111.213C105.643 110.806 105.479 110.06 105.479 108.977V105.875H104.6V104.175H105.479V102.102H107.478V104.175H109.312V105.875ZM37.0304 123.631V113.491H43.5916V115.28H39.0883V117.651H42.6969V119.411H39.0883V121.841H43.5916V123.631H37.0304ZM50.7749 113.491H52.9371L50.581 123.631H46.7785L44.4224 113.491H46.5846L48.3442 121.841H49.0153L50.7749 113.491ZM61.7689 119.992V118.203H64.7214V123.467C63.2998 123.696 62.1467 123.81 61.2619 123.81C59.6812 123.81 58.5927 123.387 57.9962 122.542C57.4096 121.697 57.1164 120.355 57.1164 118.516C57.1164 116.677 57.4246 115.35 58.0409 114.535C58.6573 113.719 59.7061 113.312 61.1873 113.312C62.1119 113.312 63.111 113.416 64.1846 113.625L64.7214 113.729L64.6618 115.325C63.4688 115.196 62.4896 115.131 61.7242 115.131C60.9686 115.131 60.4368 115.221 60.1286 115.4C59.8204 115.578 59.5918 115.912 59.4426 116.399C59.3035 116.876 59.2339 117.701 59.2339 118.874C59.2339 120.037 59.378 120.852 59.6663 121.32C59.9546 121.787 60.5511 122.02 61.4557 122.02L62.6934 121.961V119.992H61.7689ZM66.4859 123.631V116.175H68.4841V123.631H66.4859ZM66.4859 115.221V113.193H68.4841V115.221H66.4859ZM69.6296 116.175H71.7172L72.9102 121.931H73.3277L74.5803 116.175H76.6083L74.8189 123.631H71.419L69.6296 116.175ZM79.2956 120.753C79.3055 121.21 79.4248 121.543 79.6535 121.752C79.8921 121.951 80.2301 122.05 80.6675 122.05C81.592 122.05 82.4172 122.02 83.1429 121.961L83.5604 121.916L83.5902 123.392C82.447 123.671 81.4131 123.81 80.4886 123.81C79.3652 123.81 78.55 123.512 78.043 122.915C77.536 122.319 77.2825 121.349 77.2825 120.007C77.2825 117.333 78.381 115.996 80.578 115.996C82.7452 115.996 83.8288 117.119 83.8288 119.366L83.6797 120.753H79.2956ZM81.8605 119.232C81.8605 118.635 81.766 118.223 81.5771 117.994C81.3882 117.756 81.0552 117.636 80.578 117.636C80.1108 117.636 79.7778 117.761 79.5789 118.009C79.3901 118.248 79.2906 118.655 79.2807 119.232H81.8605ZM90.9681 118.501V121.603C90.988 121.841 91.0278 122.01 91.0874 122.11C91.1471 122.199 91.2713 122.264 91.4602 122.304L91.4006 123.81C90.8936 123.81 90.486 123.775 90.1778 123.705C89.8796 123.636 89.5763 123.497 89.2682 123.288C88.5524 123.636 87.8217 123.81 87.0761 123.81C85.5352 123.81 84.7648 122.995 84.7648 121.364C84.7648 120.569 84.9785 120.007 85.406 119.679C85.8335 119.341 86.4896 119.142 87.3744 119.083L88.9699 118.963V118.501C88.9699 118.193 88.9003 117.984 88.7612 117.875C88.622 117.756 88.3983 117.696 88.0901 117.696L85.2867 117.815L85.227 116.428C86.2908 116.14 87.2998 115.996 88.2542 115.996C89.2185 115.996 89.9094 116.195 90.3269 116.592C90.7544 116.99 90.9681 117.626 90.9681 118.501ZM87.6129 120.47C87.0562 120.519 86.7779 120.818 86.7779 121.364C86.7779 121.911 87.0214 122.184 87.5086 122.184C87.8863 122.184 88.2989 122.125 88.7463 122.005L88.9699 121.946V120.35L87.6129 120.47ZM92.2481 116.175H94.2165L95.1261 121.931H95.484L96.6173 116.324H98.6751L99.8084 121.931H100.166L101.076 116.175H103.044L101.628 123.631H98.4962L97.6462 119.068L96.7962 123.631H93.6647L92.2481 116.175ZM110.045 118.501V121.603C110.065 121.841 110.105 122.01 110.164 122.11C110.224 122.199 110.348 122.264 110.537 122.304L110.477 123.81C109.97 123.81 109.563 123.775 109.255 123.705C108.956 123.636 108.653 123.497 108.345 123.288C107.629 123.636 106.898 123.81 106.153 123.81C104.612 123.81 103.842 122.995 103.842 121.364C103.842 120.569 104.055 120.007 104.483 119.679C104.91 119.341 105.566 119.142 106.451 119.083L108.047 118.963V118.501C108.047 118.193 107.977 117.984 107.838 117.875C107.699 117.756 107.475 117.696 107.167 117.696L104.363 117.815L104.304 116.428C105.368 116.14 106.377 115.996 107.331 115.996C108.295 115.996 108.986 116.195 109.404 116.592C109.831 116.99 110.045 117.626 110.045 118.501ZM106.69 120.47C106.133 120.519 105.855 120.818 105.855 121.364C105.855 121.911 106.098 122.184 106.585 122.184C106.963 122.184 107.376 122.125 107.823 122.005L108.047 121.946V120.35L106.69 120.47ZM111.162 116.175H113.13L114.487 121.931H114.83L116.187 116.175H118.156L115.531 126.762H113.578L114.398 123.631H112.996L111.162 116.175Z" fill="#001CB0"/>
<path d="M34.233 137.9V145.31H32.9868V139.315L31.2465 140.437L30.6738 139.506L33.0878 137.9H34.233ZM38.8734 145.31V137.619H43.7238V138.708H40.1197V140.887H43.0502V141.964H40.1197V144.21H43.7238V145.31H38.8734ZM49.1102 137.619H50.4126L48.5264 145.31H46.0787L44.1924 137.619H45.4949L47.0218 144.21H47.5832L49.1102 137.619ZM53.3933 147.724V139.696H54.6059V140.044C55.1224 139.73 55.6052 139.573 56.0543 139.573C56.7954 139.573 57.338 139.801 57.6823 140.258C58.0267 140.707 58.1988 141.467 58.1988 142.537C58.1988 143.6 58.0005 144.348 57.6038 144.783C57.2145 145.217 56.5745 145.434 55.6838 145.434C55.3769 145.434 55.0214 145.4 54.6172 145.333V147.724H53.3933ZM55.841 140.662C55.4892 140.662 55.1374 140.741 54.7856 140.898L54.6172 140.976V144.289C54.9166 144.348 55.2459 144.378 55.6052 144.378C56.1142 144.378 56.466 144.232 56.6606 143.94C56.8552 143.649 56.9525 143.151 56.9525 142.447C56.9525 141.257 56.582 140.662 55.841 140.662ZM63.1964 144.3L63.5108 144.266L63.5332 145.176C62.6799 145.348 61.9239 145.434 61.2652 145.434C60.4344 145.434 59.8356 145.205 59.4688 144.749C59.1095 144.292 58.9299 143.562 58.9299 142.559C58.9299 140.568 59.742 139.573 61.3663 139.573C62.9382 139.573 63.7241 140.43 63.7241 142.144L63.6455 143.02H60.1649C60.1724 143.484 60.2734 143.824 60.4681 144.042C60.6627 144.259 61.0257 144.367 61.5572 144.367C62.0886 144.367 62.635 144.345 63.1964 144.3ZM62.5227 142.077C62.5227 141.523 62.4329 141.137 62.2533 140.92C62.0811 140.696 61.7855 140.583 61.3663 140.583C60.9471 140.583 60.6402 140.699 60.4456 140.931C60.2585 141.163 60.1612 141.545 60.1537 142.077H62.5227ZM64.6764 145.31V139.696H65.889V140.37C66.5252 139.958 67.1615 139.693 67.7977 139.573V140.797C67.154 140.924 66.6038 141.089 66.1472 141.291L65.9002 141.392V145.31H64.6764ZM74.6473 140.853C73.764 140.733 73.124 140.673 72.7273 140.673C72.3306 140.673 72.0536 140.722 71.8964 140.819C71.7467 140.909 71.6719 141.055 71.6719 141.257C71.6719 141.459 71.7542 141.601 71.9189 141.684C72.0911 141.766 72.4878 141.863 73.109 141.976C73.7378 142.08 74.1832 142.249 74.4452 142.481C74.7071 142.713 74.8381 143.125 74.8381 143.716C74.8381 144.307 74.6473 144.741 74.2655 145.018C73.8913 145.295 73.3411 145.434 72.615 145.434C72.1584 145.434 71.5821 145.37 70.8859 145.243L70.5379 145.187L70.5828 144.165C71.481 144.285 72.1285 144.345 72.5252 144.345C72.9219 144.345 73.2026 144.296 73.3673 144.199C73.5394 144.101 73.6255 143.94 73.6255 143.716C73.6255 143.491 73.5432 143.338 73.3785 143.256C73.2213 143.166 72.8358 143.072 72.2221 142.975C71.6158 142.87 71.1704 142.709 70.8859 142.492C70.6015 142.275 70.4593 141.878 70.4593 141.302C70.4593 140.726 70.6539 140.295 71.0431 140.011C71.4399 139.726 71.9451 139.584 72.5589 139.584C73.0379 139.584 73.6255 139.644 74.3216 139.764L74.6697 139.831L74.6473 140.853ZM78.81 140.741H77.2605V143.211C77.2605 143.667 77.2942 143.97 77.3616 144.12C77.4289 144.27 77.6011 144.345 77.878 144.345L78.7987 144.311L78.8549 145.288C78.3534 145.385 77.9716 145.434 77.7096 145.434C77.0734 145.434 76.6355 145.288 76.396 144.996C76.1639 144.704 76.0479 144.154 76.0479 143.345V140.741H75.3293V139.696H76.0479V138.068H77.2605V139.696H78.81V140.741ZM83.7434 141.425V143.985C83.7509 144.15 83.7921 144.274 83.8669 144.356C83.9493 144.431 84.0728 144.479 84.2374 144.502L84.2038 145.434C83.56 145.434 83.0623 145.295 82.7105 145.018C82.1117 145.295 81.5091 145.434 80.9028 145.434C79.7875 145.434 79.2299 144.839 79.2299 143.649C79.2299 143.08 79.3796 142.668 79.679 142.414C79.9859 142.159 80.4537 142.006 81.0824 141.953L82.5308 141.83V141.425C82.5308 141.126 82.4635 140.916 82.3287 140.797C82.2015 140.677 82.0106 140.617 81.7561 140.617C81.2771 140.617 80.6782 140.647 79.9597 140.707L79.6004 140.729L79.5555 139.865C80.3713 139.67 81.1199 139.573 81.801 139.573C82.4897 139.573 82.9837 139.723 83.2831 140.022C83.59 140.314 83.7434 140.782 83.7434 141.425ZM81.2284 142.818C80.7119 142.863 80.4537 143.143 80.4537 143.66C80.4537 144.176 80.682 144.435 81.1386 144.435C81.5128 144.435 81.9096 144.375 82.3287 144.255L82.5308 144.187V142.694L81.2284 142.818ZM88.0755 140.741H86.5261V143.211C86.5261 143.667 86.5598 143.97 86.6271 144.12C86.6945 144.27 86.8666 144.345 87.1436 144.345L88.0643 144.311L88.1204 145.288C87.6189 145.385 87.2372 145.434 86.9752 145.434C86.3389 145.434 85.9011 145.288 85.6615 144.996C85.4295 144.704 85.3135 144.154 85.3135 143.345V140.741H84.5949V139.696H85.3135V138.068H86.5261V139.696H88.0755V140.741ZM92.8518 144.3L93.1662 144.266L93.1886 145.176C92.3353 145.348 91.5793 145.434 90.9206 145.434C90.0897 145.434 89.4909 145.205 89.1242 144.749C88.7649 144.292 88.5852 143.562 88.5852 142.559C88.5852 140.568 89.3974 139.573 91.0217 139.573C92.5935 139.573 93.3795 140.43 93.3795 142.144L93.3009 143.02H89.8203C89.8278 143.484 89.9288 143.824 90.1234 144.042C90.318 144.259 90.6811 144.367 91.2125 144.367C91.744 144.367 92.2904 144.345 92.8518 144.3ZM92.1781 142.077C92.1781 141.523 92.0883 141.137 91.9086 140.92C91.7365 140.696 91.4408 140.583 91.0217 140.583C90.6025 140.583 90.2956 140.699 90.101 140.931C89.9138 141.163 89.8165 141.545 89.8091 142.077H92.1781ZM101.155 137.361V145.31H99.9426V145.018C99.3961 145.295 98.8946 145.434 98.438 145.434C97.7045 145.434 97.1656 145.213 96.8212 144.771C96.4844 144.33 96.316 143.589 96.316 142.548C96.316 141.508 96.5031 140.752 96.8774 140.28C97.2591 139.809 97.8505 139.573 98.6514 139.573C98.9208 139.573 99.3475 139.622 99.9313 139.719V137.361H101.155ZM99.7405 144.143L99.9313 144.064V140.741C99.4822 140.666 99.0668 140.628 98.6851 140.628C97.9291 140.628 97.551 141.257 97.551 142.515C97.551 143.203 97.6371 143.682 97.8093 143.952C97.9889 144.214 98.2696 144.345 98.6514 144.345C99.0331 144.345 99.3961 144.277 99.7405 144.143ZM102.413 145.31V139.696H103.626V140.37C104.262 139.958 104.898 139.693 105.534 139.573V140.797C104.891 140.924 104.341 141.089 103.884 141.291L103.637 141.392V145.31H102.413ZM110.4 141.425V143.985C110.407 144.15 110.448 144.274 110.523 144.356C110.606 144.431 110.729 144.479 110.894 144.502L110.86 145.434C110.216 145.434 109.719 145.295 109.367 145.018C108.768 145.295 108.165 145.434 107.559 145.434C106.444 145.434 105.886 144.839 105.886 143.649C105.886 143.08 106.036 142.668 106.335 142.414C106.642 142.159 107.11 142.006 107.739 141.953L109.187 141.83V141.425C109.187 141.126 109.12 140.916 108.985 140.797C108.858 140.677 108.667 140.617 108.412 140.617C107.933 140.617 107.335 140.647 106.616 140.707L106.257 140.729L106.212 139.865C107.028 139.67 107.776 139.573 108.457 139.573C109.146 139.573 109.64 139.723 109.939 140.022C110.246 140.314 110.4 140.782 110.4 141.425ZM107.885 142.818C107.368 142.863 107.11 143.143 107.11 143.66C107.11 144.176 107.338 144.435 107.795 144.435C108.169 144.435 108.566 144.375 108.985 144.255L109.187 144.187V142.694L107.885 142.818ZM111.241 139.696H112.442L113.329 144.266H113.554L114.62 139.809H115.878L116.944 144.266H117.169L118.045 139.696H119.257L118.067 145.31H116.125L115.249 141.459L114.373 145.31H112.431L111.241 139.696Z" fill="white"/>
<path d="M42.0462 34.5694H40.7887V31.4032L38.3747 26.8784H39.7782L41.4062 30.1793L43.0455 26.8784H44.4377L42.0462 31.4032V34.5694ZM44.5221 29.5618C44.9114 29.0753 45.5551 28.832 46.4533 28.832C47.3515 28.832 47.9915 29.0753 48.3733 29.5618C48.7625 30.0483 48.9571 30.7782 48.9571 31.7512C48.9571 32.7243 48.77 33.4578 48.3957 33.9519C48.0215 34.4459 47.374 34.6929 46.4533 34.6929C45.5326 34.6929 44.8852 34.4459 44.5109 33.9519C44.1366 33.4578 43.9495 32.7243 43.9495 31.7512C43.9495 30.7782 44.1404 30.0483 44.5221 29.5618ZM45.4428 33.2108C45.615 33.5102 45.9518 33.6599 46.4533 33.6599C46.9548 33.6599 47.2916 33.5102 47.4638 33.2108C47.636 32.9114 47.722 32.4211 47.722 31.74C47.722 31.0588 47.6285 30.5761 47.4414 30.2916C47.2617 30.0072 46.9324 29.865 46.4533 29.865C45.9743 29.865 45.6412 30.0072 45.454 30.2916C45.2744 30.5761 45.1846 31.0588 45.1846 31.74C45.1846 32.4211 45.2706 32.9114 45.4428 33.2108ZM53.3502 28.9555H54.5628V34.5694H53.3502V34.2213C52.8038 34.5357 52.2986 34.6929 51.8345 34.6929C51.0635 34.6929 50.547 34.4871 50.285 34.0754C50.0231 33.6562 49.8921 32.9264 49.8921 31.886V28.9555H51.1159V31.8972C51.1159 32.5709 51.172 33.0237 51.2843 33.2557C51.3966 33.4878 51.6586 33.6038 52.0703 33.6038C52.4745 33.6038 52.845 33.529 53.1818 33.3793L53.3502 33.3119V28.9555ZM55.82 34.5694V28.9555H57.0326V29.6292C57.6688 29.2175 58.3051 28.9518 58.9413 28.832V30.0558C58.2976 30.1831 57.7474 30.3478 57.2908 30.5499L57.0438 30.6509V34.5694H55.82ZM63.9944 28.832C64.3911 28.832 64.859 28.8844 65.3979 28.9892L65.6786 29.0453L65.6337 30.0109C65.0424 29.951 64.6045 29.9211 64.32 29.9211C63.7512 29.9211 63.3694 30.0483 63.1748 30.3028C62.9802 30.5573 62.8829 31.0364 62.8829 31.74C62.8829 32.4436 62.9764 32.9301 63.1636 33.1996C63.3507 33.4691 63.7399 33.6038 64.3313 33.6038L65.6449 33.514L65.6786 34.4908C64.9226 34.6255 64.3537 34.6929 63.972 34.6929C63.1187 34.6929 62.5161 34.4646 62.1643 34.008C61.82 33.5439 61.6478 32.7879 61.6478 31.74C61.6478 30.6921 61.8312 29.9473 62.198 29.5057C62.5648 29.0566 63.1636 28.832 63.9944 28.832ZM67.8611 34.5694H66.6373V26.6201H67.8611V29.2474C68.415 28.9705 68.9277 28.832 69.3993 28.832C70.1478 28.832 70.6568 29.0453 70.9263 29.472C71.2032 29.8912 71.3417 30.5873 71.3417 31.5604V34.5694H70.1179V31.594C70.1179 30.9877 70.0542 30.5573 69.927 30.3028C69.7997 30.0483 69.5303 29.9211 69.1186 29.9211C68.7593 29.9211 68.4 29.981 68.0407 30.1007L67.8611 30.1681V34.5694ZM76.6962 30.6846V33.2445C76.7037 33.4092 76.7449 33.5327 76.8197 33.615C76.9021 33.6899 77.0256 33.7385 77.1902 33.761L77.1565 34.6929C76.5128 34.6929 76.0151 34.5544 75.6633 34.2775C75.0644 34.5544 74.4619 34.6929 73.8556 34.6929C72.7403 34.6929 72.1826 34.0978 72.1826 32.9077C72.1826 32.3388 72.3323 31.9271 72.6318 31.6726C72.9386 31.4181 73.4065 31.2647 74.0352 31.2123L75.4836 31.0888V30.6846C75.4836 30.3852 75.4162 30.1756 75.2815 30.0558C75.1543 29.9361 74.9634 29.8762 74.7089 29.8762C74.2298 29.8762 73.631 29.9061 72.9124 29.966L72.5532 29.9885L72.5082 29.1239C73.3241 28.9293 74.0726 28.832 74.7538 28.832C75.4424 28.832 75.9365 28.9817 76.2359 29.2811C76.5428 29.573 76.6962 30.0409 76.6962 30.6846ZM74.1812 32.0768C73.6647 32.1217 73.4065 32.4024 73.4065 32.9189C73.4065 33.4354 73.6348 33.6936 74.0914 33.6936C74.4656 33.6936 74.8623 33.6337 75.2815 33.514L75.4836 33.4466V31.9533L74.1812 32.0768ZM79.2318 34.5694H78.008V28.9555H79.2206V29.3036C79.767 28.9892 80.2835 28.832 80.77 28.832C81.5186 28.832 82.0276 29.0453 82.297 29.472C82.574 29.8912 82.7125 30.5873 82.7125 31.5604V34.5694H81.4999V31.594C81.4999 30.9877 81.4325 30.5573 81.2978 30.3028C81.1705 30.0483 80.9048 29.9211 80.5006 29.9211C80.1188 29.9211 79.7521 29.9959 79.4003 30.1457L79.2318 30.213V34.5694ZM86.0123 28.832C86.409 28.832 86.8768 28.8844 87.4158 28.9892L87.6964 29.0453L87.6515 30.0109C87.0602 29.951 86.6223 29.9211 86.3379 29.9211C85.769 29.9211 85.3873 30.0483 85.1927 30.3028C84.998 30.5573 84.9007 31.0364 84.9007 31.74C84.9007 32.4436 84.9943 32.9301 85.1814 33.1996C85.3686 33.4691 85.7578 33.6038 86.3491 33.6038L87.6628 33.514L87.6964 34.4908C86.9404 34.6255 86.3716 34.6929 85.9898 34.6929C85.1365 34.6929 84.534 34.4646 84.1822 34.008C83.8378 33.5439 83.6657 32.7879 83.6657 31.74C83.6657 30.6921 83.8491 29.9473 84.2158 29.5057C84.5826 29.0566 85.1814 28.832 86.0123 28.832ZM92.5974 33.5589L92.9117 33.5252L92.9342 34.4347C92.0809 34.6068 91.3249 34.6929 90.6662 34.6929C89.8353 34.6929 89.2365 34.4646 88.8697 34.008C88.5105 33.5514 88.3308 32.8216 88.3308 31.8186C88.3308 29.8275 89.143 28.832 90.7672 28.832C92.3391 28.832 93.1251 29.6891 93.1251 31.4032L93.0465 32.2789H89.5659C89.5734 32.743 89.6744 33.0836 89.869 33.3007C90.0636 33.5177 90.4267 33.6263 90.9581 33.6263C91.4896 33.6263 92.036 33.6038 92.5974 33.5589ZM91.9237 31.3358C91.9237 30.7819 91.8339 30.3964 91.6542 30.1793C91.4821 29.9548 91.1864 29.8425 90.7672 29.8425C90.3481 29.8425 90.0412 29.9585 89.8466 30.1906C89.6594 30.4226 89.5621 30.8043 89.5546 31.3358H91.9237ZM99.3401 29.9997H97.7907V32.4698C97.7907 32.9264 97.8243 33.2295 97.8917 33.3793C97.9591 33.529 98.1312 33.6038 98.4082 33.6038L99.3289 33.5701L99.385 34.5469C98.8835 34.6442 98.5018 34.6929 98.2398 34.6929C97.6035 34.6929 97.1656 34.5469 96.9261 34.255C96.6941 33.9631 96.5781 33.4129 96.5781 32.6045V29.9997H95.8595V28.9555H96.5781V27.3275H97.7907V28.9555H99.3401V29.9997ZM100.422 29.5618C100.812 29.0753 101.455 28.832 102.354 28.832C103.252 28.832 103.892 29.0753 104.274 29.5618C104.663 30.0483 104.857 30.7782 104.857 31.7512C104.857 32.7243 104.67 33.4578 104.296 33.9519C103.922 34.4459 103.274 34.6929 102.354 34.6929C101.433 34.6929 100.785 34.4459 100.411 33.9519C100.037 33.4578 99.8498 32.7243 99.8498 31.7512C99.8498 30.7782 100.041 30.0483 100.422 29.5618ZM101.343 33.2108C101.515 33.5102 101.852 33.6599 102.354 33.6599C102.855 33.6599 103.192 33.5102 103.364 33.2108C103.536 32.9114 103.622 32.4211 103.622 31.74C103.622 31.0588 103.529 30.5761 103.342 30.2916C103.162 30.0072 102.833 29.865 102.354 29.865C101.875 29.865 101.541 30.0072 101.354 30.2916C101.175 30.5761 101.085 31.0588 101.085 31.74C101.085 32.4211 101.171 32.9114 101.343 33.2108Z" fill="white"/>
</svg>
