<?xml version="1.0" encoding="utf-8"?>
<!-- Generator: Adobe Illustrator 27.7.0, SVG Export Plug-In . SVG Version: 6.00 Build 0)  -->
<svg version="1.1" id="Layer_1" xmlns="http://www.w3.org/2000/svg" xmlns:xlink="http://www.w3.org/1999/xlink" x="0px" y="0px"
	 viewBox="0 0 199 29" style="enable-background:new 0 0 199 29;" xml:space="preserve">
<path d="M0.7,26.5v-7.3h1.7v1.4c0.5-0.9,1.1-1.5,2.4-1.5v1.6c-1.5,0-2.4,0.5-2.4,2v3.8H0.7z M9.1,26.6c-2.2,0-3.7-1.4-3.7-3.7v-0.1
	C5.4,20.5,7,19,9,19c1.8,0,3.5,1.1,3.5,3.7v0.5H7.1c0.1,1.4,0.8,2.2,2,2.2c1,0,1.6-0.4,1.7-1.1h1.6C12.2,25.8,11,26.6,9.1,26.6z
	 M7.2,22.1h3.7c-0.1-1.3-0.7-1.8-1.8-1.8C8,20.3,7.3,20.9,7.2,22.1z M16.3,26.6c-1.9,0-3-0.9-3.1-2.4h1.6c0.1,0.7,0.5,1.2,1.5,1.2
	c0.9,0,1.3-0.3,1.3-0.9c0-0.6-0.5-0.8-1.6-1c-1.9-0.3-2.6-0.9-2.6-2.2c0-1.5,1.4-2.2,2.7-2.2c1.5,0,2.7,0.6,2.9,2.2h-1.6
	c-0.1-0.7-0.5-1-1.3-1c-0.7,0-1.2,0.4-1.2,0.9c0,0.5,0.4,0.7,1.5,0.9c1.7,0.3,2.7,0.7,2.7,2.2C19.2,25.8,18.2,26.6,16.3,26.6z
	 M20.4,29v-9.8h1.7v1.2c0.4-0.7,1.3-1.3,2.4-1.3c1.8,0,3.2,1.4,3.2,3.7v0.1c0,2.4-1.4,3.8-3.2,3.8c-1.2,0-2-0.6-2.4-1.3V29H20.4z
	 M24.1,25.3c1.2,0,1.9-0.8,1.9-2.4v-0.1c0-1.6-0.8-2.4-1.9-2.4c-1.2,0-2,0.8-2,2.4v0.1C22.1,24.5,22.9,25.3,24.1,25.3z M32.3,25.3
	c1.3,0,2-0.9,2-2.4v-0.1c0-1.5-0.8-2.4-2-2.4c-1.3,0-2,0.9-2,2.4v0.1C30.3,24.4,31,25.3,32.3,25.3z M32.3,26.6
	c-2.2,0-3.8-1.5-3.8-3.7v-0.1c0-2.3,1.6-3.8,3.8-3.8c2.1,0,3.8,1.5,3.8,3.7v0.1C36,25.2,34.4,26.6,32.3,26.6z M37.3,26.5v-7.3H39
	v1.2c0.3-0.7,1.2-1.3,2.4-1.3c1.5,0,2.5,0.9,2.5,2.9v4.6h-1.7V22c0-1.1-0.4-1.6-1.5-1.6c-1,0-1.7,0.6-1.7,1.8v4.3H37.3z M48,26.6
	c-1.9,0-3-0.9-3.1-2.4h1.6c0.1,0.7,0.5,1.2,1.5,1.2c0.9,0,1.3-0.3,1.3-0.9c0-0.6-0.5-0.8-1.6-1c-1.9-0.3-2.6-0.9-2.6-2.2
	c0-1.5,1.4-2.2,2.7-2.2c1.5,0,2.7,0.6,2.9,2.2h-1.6c-0.1-0.7-0.5-1-1.3-1c-0.7,0-1.2,0.4-1.2,0.9c0,0.5,0.4,0.7,1.5,0.9
	c1.7,0.3,2.7,0.7,2.7,2.2C51,25.8,49.9,26.6,48,26.6z M54.1,26.6c-1.3,0-2.5-0.6-2.5-2.2c0-1.7,1.7-2.3,3.8-2.3h0.9v-0.4
	c0-1-0.3-1.5-1.3-1.5c-0.9,0-1.3,0.4-1.4,1.1h-1.6c0.1-1.7,1.5-2.4,3.1-2.4s2.9,0.7,2.9,2.7v4.8h-1.7v-0.9
	C55.9,26.2,55.2,26.6,54.1,26.6z M54.5,25.4c1,0,1.8-0.5,1.8-1.5v-0.7h-0.9c-1.3,0-2.1,0.3-2.1,1.2C53.3,25,53.7,25.4,54.5,25.4z
	 M63.7,26.6c-1.2,0-2-0.6-2.4-1.3v1.2h-1.7V15.8h1.7v4.6c0.4-0.7,1.3-1.3,2.4-1.3c1.8,0,3.2,1.4,3.2,3.7v0.1
	C67,25.2,65.6,26.6,63.7,26.6z M63.3,25.3c1.2,0,1.9-0.8,1.9-2.4v-0.1c0-1.6-0.8-2.4-1.9-2.4c-1.2,0-2,0.8-2,2.4v0.1
	C61.3,24.5,62.1,25.3,63.3,25.3z M68.3,26.5v-7.3H70v7.3H68.3z M69.1,18c-0.6,0-1-0.4-1-1c0-0.6,0.4-1,1-1c0.6,0,1,0.4,1,1
	C70.1,17.6,69.7,18,69.1,18z M71.8,26.5V15.8h1.7v10.7H71.8z M75.3,26.5v-7.3H77v7.3H75.3z M76.2,18c-0.6,0-1-0.4-1-1
	c0-0.6,0.4-1,1-1c0.6,0,1,0.4,1,1C77.2,17.6,76.7,18,76.2,18z M81.5,26.6c-1.8,0-3.2-1.3-3.2-3.7v-0.1c0-2.3,1.4-3.8,3.3-3.8
	c1.2,0,1.9,0.5,2.3,1.3v-4.5h1.7v10.7H84v-1.2C83.6,26,82.6,26.6,81.5,26.6z M82,25.3c1.2,0,2-0.8,2-2.4v-0.1c0-1.6-0.7-2.4-2-2.4
	c-1.2,0-2,0.9-2,2.5v0.1C80.1,24.5,80.9,25.3,82,25.3z M89.3,26.6c-1.3,0-2.4-0.6-2.4-2.2c0-1.7,1.7-2.3,3.8-2.3h0.9v-0.4
	c0-1-0.3-1.5-1.3-1.5c-0.9,0-1.3,0.4-1.4,1.1h-1.6c0.1-1.7,1.5-2.4,3.1-2.4s2.9,0.7,2.9,2.7v4.8h-1.7v-0.9
	C91.1,26.2,90.4,26.6,89.3,26.6z M89.7,25.4c1,0,1.8-0.5,1.8-1.5v-0.7h-0.9c-1.3,0-2.1,0.3-2.1,1.2C88.5,25,88.9,25.4,89.7,25.4z
	 M97.6,26.6c-1.8,0-3.2-1.3-3.2-3.7v-0.1c0-2.3,1.4-3.8,3.3-3.8c1.2,0,1.9,0.5,2.3,1.3v-4.5h1.7v10.7H100v-1.2
	C99.6,26,98.7,26.6,97.6,26.6z M98,25.3c1.2,0,2-0.8,2-2.4v-0.1c0-1.6-0.7-2.4-2-2.4c-1.2,0-2,0.9-2,2.5v0.1
	C96.1,24.5,96.9,25.3,98,25.3z M106.7,26.6c-2.2,0-3.7-1.4-3.7-3.7v-0.1c0-2.3,1.6-3.8,3.6-3.8c1.8,0,3.5,1.1,3.5,3.7v0.5h-5.4
	c0.1,1.4,0.8,2.2,2,2.2c1,0,1.6-0.4,1.7-1.1h1.6C109.8,25.8,108.5,26.6,106.7,26.6z M104.7,22.1h3.7c-0.1-1.3-0.7-1.8-1.8-1.8
	C105.6,20.3,104.9,20.9,104.7,22.1z M117.1,26.6c-1.8,0-3.2-1.3-3.2-3.7v-0.1c0-2.3,1.4-3.8,3.3-3.8c1.2,0,1.9,0.5,2.3,1.3v-4.5h1.7
	v10.7h-1.7v-1.2C119.1,26,118.2,26.6,117.1,26.6z M117.5,25.3c1.2,0,2-0.8,2-2.4v-0.1c0-1.6-0.7-2.4-2-2.4c-1.2,0-2,0.9-2,2.5v0.1
	C115.6,24.5,116.4,25.3,117.5,25.3z M126.1,26.6c-2.2,0-3.7-1.4-3.7-3.7v-0.1c0-2.3,1.6-3.8,3.6-3.8c1.8,0,3.5,1.1,3.5,3.7v0.5h-5.4
	c0.1,1.4,0.8,2.2,2,2.2c1,0,1.6-0.4,1.7-1.1h1.6C129.3,25.8,128,26.6,126.1,26.6z M124.2,22.1h3.7c-0.1-1.3-0.7-1.8-1.8-1.8
	C125.1,20.3,124.4,20.9,124.2,22.1z M136.3,26.6c-1.5,0-2.2-0.8-2.2-2.2v-4h-1v-1.3h1v-1.6h1.7v1.6h1.6v1.3h-1.6v3.9
	c0,0.6,0.3,0.9,0.8,0.9c0.3,0,0.6,0,0.8-0.1v1.3C137.2,26.5,136.8,26.6,136.3,26.6z M142,25.3c1.3,0,2-0.9,2-2.4v-0.1
	c0-1.5-0.8-2.4-2-2.4s-2,0.9-2,2.4v0.1C140,24.4,140.7,25.3,142,25.3z M142,26.6c-2.2,0-3.8-1.5-3.8-3.7v-0.1c0-2.3,1.6-3.8,3.8-3.8
	c2.1,0,3.8,1.5,3.8,3.7v0.1C145.7,25.2,144.1,26.6,142,26.6z M149.7,26.6c-1.8,0-3.2-1.3-3.2-3.7v-0.1c0-2.3,1.4-3.8,3.3-3.8
	c1.2,0,1.9,0.5,2.3,1.3v-4.5h1.7v10.7h-1.7v-1.2C151.7,26,150.8,26.6,149.7,26.6z M150.2,25.3c1.2,0,2-0.8,2-2.4v-0.1
	c0-1.6-0.7-2.4-2-2.4c-1.2,0-2,0.9-2,2.5v0.1C148.2,24.5,149.1,25.3,150.2,25.3z M158.8,25.3c1.3,0,2-0.9,2-2.4v-0.1
	c0-1.5-0.8-2.4-2-2.4c-1.3,0-2,0.9-2,2.4v0.1C156.8,24.4,157.6,25.3,158.8,25.3z M158.8,26.6c-2.2,0-3.8-1.5-3.8-3.7v-0.1
	c0-2.3,1.6-3.8,3.8-3.8c2.1,0,3.8,1.5,3.8,3.7v0.1C162.6,25.2,161,26.6,158.8,26.6z M166.4,26.6c-1.9,0-3-0.9-3.1-2.4h1.6
	c0.1,0.7,0.5,1.2,1.5,1.2c0.9,0,1.3-0.3,1.3-0.9c0-0.6-0.5-0.8-1.6-1c-1.9-0.3-2.6-0.9-2.6-2.2c0-1.5,1.4-2.2,2.7-2.2
	c1.5,0,2.7,0.6,2.9,2.2h-1.6c-0.1-0.7-0.5-1-1.3-1c-0.7,0-1.2,0.4-1.2,0.9c0,0.5,0.4,0.7,1.5,0.9c1.7,0.3,2.7,0.7,2.7,2.2
	C169.3,25.8,168.2,26.6,166.4,26.6z M173.5,26.5v-7.3h1.7v1.2c0.3-0.7,1.2-1.3,2.4-1.3c1.5,0,2.5,0.9,2.5,2.9v4.6h-1.7V22
	c0-1.1-0.4-1.6-1.5-1.6c-1,0-1.7,0.6-1.7,1.8v4.3H173.5z M184.3,18.1l0.8-2.2h1.9l-1.5,2.2H184.3z M185.1,25.3c1.3,0,2-0.9,2-2.4
	v-0.1c0-1.5-0.8-2.4-2-2.4c-1.3,0-2,0.9-2,2.4v0.1C183,24.4,183.8,25.3,185.1,25.3z M185,26.6c-2.2,0-3.8-1.5-3.8-3.7v-0.1
	c0-2.3,1.6-3.8,3.8-3.8c2.1,0,3.8,1.5,3.8,3.7v0.1C188.8,25.2,187.2,26.6,185,26.6z M192.6,26.6c-1.9,0-3-0.9-3.1-2.4h1.6
	c0.1,0.7,0.5,1.2,1.5,1.2c0.9,0,1.3-0.3,1.3-0.9c0-0.6-0.5-0.8-1.6-1c-1.9-0.3-2.6-0.9-2.6-2.2c0-1.5,1.4-2.2,2.7-2.2
	c1.5,0,2.7,0.6,2.9,2.2h-1.6c-0.1-0.7-0.5-1-1.3-1c-0.7,0-1.2,0.4-1.2,0.9c0,0.5,0.4,0.7,1.5,0.9c1.7,0.3,2.7,0.7,2.7,2.2
	C195.5,25.8,194.4,26.6,192.6,26.6z M197.7,26.6c-0.6,0-1.1-0.5-1.1-1.1c0-0.6,0.5-1.1,1.1-1.1c0.6,0,1.1,0.5,1.1,1.1
	C198.8,26.1,198.3,26.6,197.7,26.6z"/>
</svg>
