<svg width="115" height="30" viewBox="0 0 115 30" fill="none" xmlns="http://www.w3.org/2000/svg">
<g id="CTA Button">
<rect width="114.29" height="29.4553" rx="4.15176" fill="white"/>
<g id="Group 944">
<path id="Vector 13" d="M8.30347 20.5528H18.6829" stroke="#DC1928" stroke-width="0.998851" stroke-linecap="round"/>
<g id="Group 13562">
<path id="Vector 14" d="M8.55347 15.227L13.4935 18.4344L18.542 15.227" stroke="#DC1928" stroke-width="0.998851" stroke-linecap="round"/>
<path id="Vector 15" d="M13.4849 8.9024V18.4345" stroke="#DC1928" stroke-width="0.998851" stroke-linecap="round"/>
</g>
</g>
<path id="Download the eCommer" d="M27.6343 9.70764H30.8023C33.1783 9.70764 34.9303 11.1476 34.9303 13.9676C34.9303 16.7756 33.1783 18.2276 30.8023 18.2276H27.6343V9.70764ZM30.6583 10.9316H29.1103V17.0036H30.6583C32.4103 17.0036 33.4183 16.0796 33.4183 13.9676C33.4183 11.8556 32.4103 10.9316 30.6583 10.9316ZM35.7518 15.1076C35.7518 13.1276 36.9398 11.8436 38.7158 11.8436C40.4798 11.8436 41.6798 13.1276 41.6798 15.1076C41.6798 17.0876 40.4798 18.3716 38.7158 18.3716C36.9398 18.3716 35.7518 17.0876 35.7518 15.1076ZM40.2398 14.8436C40.2398 13.6556 39.6278 12.9716 38.7158 12.9716C37.7918 12.9716 37.1918 13.6556 37.1918 14.8436V15.3596C37.1918 16.5476 37.7918 17.2436 38.7158 17.2436C39.6278 17.2436 40.2398 16.5476 40.2398 15.3596V14.8436ZM49.1705 18.2276H47.6585L46.4585 14.0876L45.3185 18.2276H43.7345L42.0185 11.9876H43.4225L44.5865 16.5236L45.8345 11.9876H47.0705L48.3905 16.5236L49.5425 11.9876H50.8745L49.1705 18.2276ZM52.9955 14.3756V18.2276H51.5795V11.9876H52.9955V12.7196H53.0435C53.4515 12.1796 53.9675 11.8436 54.7955 11.8436C56.0315 11.8436 56.8235 12.7556 56.8235 14.1596V18.2276H55.4075V14.2796C55.4075 13.5596 55.0955 13.0436 54.2795 13.0436C53.4395 13.0436 52.9955 13.6436 52.9955 14.3756ZM59.9579 18.2276C58.8299 18.2276 58.1819 17.5796 58.1819 16.5596V9.34764H59.5979V16.4396C59.5979 16.8476 59.7539 17.0876 60.1979 17.0876H60.6179V18.2276H59.9579ZM61.2977 15.1076C61.2977 13.1276 62.4857 11.8436 64.2617 11.8436C66.0257 11.8436 67.2257 13.1276 67.2257 15.1076C67.2257 17.0876 66.0257 18.3716 64.2617 18.3716C62.4857 18.3716 61.2977 17.0876 61.2977 15.1076ZM65.7857 14.8436C65.7857 13.6556 65.1737 12.9716 64.2617 12.9716C63.3377 12.9716 62.7377 13.6556 62.7377 14.8436V15.3596C62.7377 16.5476 63.3377 17.2436 64.2617 17.2436C65.1737 17.2436 65.7857 16.5476 65.7857 15.3596V14.8436ZM71.8233 17.3996C71.4993 17.9516 70.8753 18.3716 69.9753 18.3716C68.7993 18.3716 67.9833 17.6636 67.9833 16.5116C67.9833 15.2876 68.9073 14.8196 69.9153 14.6876L71.2233 14.5196C71.7273 14.4596 71.8353 14.2556 71.8353 13.8596C71.8353 13.2956 71.4993 12.8876 70.7433 12.8876C69.9873 12.8876 69.6033 13.3076 69.5553 13.9076H68.1033C68.1393 12.8636 69.0153 11.8436 70.7073 11.8436C72.3273 11.8436 73.2513 12.7916 73.2513 14.1716V17.1596C73.2513 17.5436 73.3113 17.9276 73.3713 18.2276H71.9193C71.8833 17.9876 71.8593 17.7236 71.8593 17.3996H71.8233ZM71.8473 14.9996C71.6433 15.1916 71.3793 15.2876 71.0553 15.3476L70.4313 15.4916C69.7953 15.6236 69.4113 15.8756 69.4113 16.4516C69.4113 17.0396 69.7593 17.3396 70.4073 17.3396C71.1873 17.3396 71.8473 16.8116 71.8473 15.9836V14.9996ZM78.7096 17.3876C78.3616 17.9636 77.6656 18.3716 76.8496 18.3716C75.3496 18.3716 74.2816 17.0876 74.2816 15.1076C74.2816 13.1276 75.3496 11.8436 76.8496 11.8436C77.6656 11.8436 78.3616 12.2516 78.7096 12.8276H78.7576V9.34764H80.1736V18.2276H78.7576V17.3876H78.7096ZM75.7216 15.3476C75.7216 16.5716 76.2856 17.2436 77.2456 17.2436C78.1336 17.2436 78.7576 16.5356 78.7576 15.4316V14.7836C78.7576 13.6796 78.1336 12.9716 77.2456 12.9716C76.2856 12.9716 75.7216 13.6556 75.7216 14.8796V15.3476ZM85.2558 14.3756V18.2276H83.8398V11.9876H85.2558V12.7196H85.3038C85.7118 12.1796 86.2278 11.8436 87.0558 11.8436C88.2918 11.8436 89.0838 12.7556 89.0838 14.1596V18.2276H87.6678V14.2796C87.6678 13.5596 87.3558 13.0436 86.5398 13.0436C85.6998 13.0436 85.2558 13.6436 85.2558 14.3756ZM90.1422 15.1076C90.1422 13.1276 91.3302 11.8436 93.1062 11.8436C94.8702 11.8436 96.0702 13.1276 96.0702 15.1076C96.0702 17.0876 94.8702 18.3716 93.1062 18.3716C91.3302 18.3716 90.1422 17.0876 90.1422 15.1076ZM94.6302 14.8436C94.6302 13.6556 94.0182 12.9716 93.1062 12.9716C92.1822 12.9716 91.5822 13.6556 91.5822 14.8436V15.3596C91.5822 16.5476 92.1822 17.2436 93.1062 17.2436C94.0182 17.2436 94.6302 16.5476 94.6302 15.3596V14.8436ZM103.561 18.2276H102.049L100.849 14.0876L99.709 18.2276H98.125L96.409 11.9876H97.813L98.977 16.5236L100.225 11.9876H101.461L102.781 16.5236L103.933 11.9876H105.265L103.561 18.2276Z" fill="#DC1928"/>
</g>
</svg>
