<svg width="240" height="26" viewBox="0 0 240 26" fill="none" xmlns="http://www.w3.org/2000/svg">
<rect x="0.628906" y="0.908203" width="238" height="24.1833" rx="3.26667" stroke="#222222"/>
<path d="M92.7789 17.12C90.4389 17.12 89.4549 15.956 89.3349 14.336H90.8709C90.9789 15.2 91.3269 15.92 92.7789 15.92C93.7269 15.92 94.3989 15.392 94.3989 14.6C94.3989 13.808 94.0029 13.508 92.6109 13.28C90.5589 13.004 89.5869 12.38 89.5869 10.772C89.5869 9.368 90.7869 8.312 92.5749 8.312C94.4229 8.312 95.5269 9.152 95.6949 10.796H94.2309C94.0749 9.896 93.5589 9.512 92.5749 9.512C91.6029 9.512 91.0989 9.98 91.0989 10.64C91.0989 11.336 91.3869 11.684 92.8749 11.9C94.8909 12.176 95.9349 12.752 95.9349 14.468C95.9349 15.956 94.6749 17.12 92.7789 17.12ZM99.0041 17.12C97.8521 17.12 96.9041 16.568 96.9041 15.26C96.9041 13.796 98.3201 13.268 100.12 13.268H100.9V12.944C100.9 12.104 100.612 11.684 99.7601 11.684C99.0041 11.684 98.6321 12.044 98.5601 12.668H97.1561C97.2761 11.204 98.4401 10.592 99.8441 10.592C101.248 10.592 102.352 11.168 102.352 12.884V17H100.924V16.232C100.516 16.772 99.9641 17.12 99.0041 17.12ZM99.3521 16.076C100.24 16.076 100.9 15.608 100.9 14.804V14.18H100.156C99.0521 14.18 98.3441 14.432 98.3441 15.2C98.3441 15.728 98.6321 16.076 99.3521 16.076ZM104.052 17V10.724H105.504V17H104.052ZM104.76 9.692C104.28 9.692 103.896 9.332 103.896 8.864C103.896 8.384 104.28 8.024 104.76 8.024C105.24 8.024 105.624 8.384 105.624 8.864C105.624 9.332 105.24 9.692 104.76 9.692ZM110.778 17.12C109.782 17.12 109.062 16.628 108.726 15.992V17H107.274V7.82H108.726V11.732C109.074 11.132 109.854 10.592 110.778 10.592C112.35 10.592 113.562 11.756 113.562 13.784V13.88C113.562 15.896 112.398 17.12 110.778 17.12ZM110.418 15.968C111.486 15.968 112.074 15.248 112.074 13.904V13.808C112.074 12.416 111.354 11.732 110.406 11.732C109.398 11.732 108.678 12.416 108.678 13.808V13.904C108.678 15.308 109.362 15.968 110.418 15.968ZM116.512 17.12C115.36 17.12 114.412 16.568 114.412 15.26C114.412 13.796 115.828 13.268 117.628 13.268H118.408V12.944C118.408 12.104 118.12 11.684 117.268 11.684C116.512 11.684 116.14 12.044 116.068 12.668H114.664C114.784 11.204 115.948 10.592 117.352 10.592C118.756 10.592 119.86 11.168 119.86 12.884V17H118.432V16.232C118.024 16.772 117.472 17.12 116.512 17.12ZM116.86 16.076C117.748 16.076 118.408 15.608 118.408 14.804V14.18H117.664C116.56 14.18 115.852 14.432 115.852 15.2C115.852 15.728 116.14 16.076 116.86 16.076ZM124.384 17V10.724H125.836V11.684C126.136 11.096 126.82 10.592 127.744 10.592C128.56 10.592 129.208 10.94 129.52 11.72C130 10.94 130.864 10.592 131.644 10.592C132.796 10.592 133.732 11.3 133.732 13.028V17H132.28V13.124C132.28 12.2 131.884 11.804 131.164 11.804C130.444 11.804 129.784 12.284 129.784 13.244V17H128.332V13.124C128.332 12.2 127.924 11.804 127.216 11.804C126.496 11.804 125.836 12.284 125.836 13.244V17H124.384ZM137.043 17.12C135.891 17.12 134.943 16.568 134.943 15.26C134.943 13.796 136.359 13.268 138.159 13.268H138.939V12.944C138.939 12.104 138.651 11.684 137.799 11.684C137.043 11.684 136.671 12.044 136.599 12.668H135.195C135.315 11.204 136.479 10.592 137.883 10.592C139.287 10.592 140.391 11.168 140.391 12.884V17H138.963V16.232C138.555 16.772 138.003 17.12 137.043 17.12ZM137.391 16.076C138.279 16.076 138.939 15.608 138.939 14.804V14.18H138.195C137.091 14.18 136.383 14.432 136.383 15.2C136.383 15.728 136.671 16.076 137.391 16.076ZM142.091 17V10.724H143.543V17H142.091ZM142.799 9.692C142.319 9.692 141.935 9.332 141.935 8.864C141.935 8.384 142.319 8.024 142.799 8.024C143.279 8.024 143.663 8.384 143.663 8.864C143.663 9.332 143.279 9.692 142.799 9.692ZM147.461 17.12C145.841 17.12 144.893 16.376 144.833 15.044H146.201C146.273 15.68 146.597 16.052 147.449 16.052C148.229 16.052 148.577 15.776 148.577 15.248C148.577 14.732 148.157 14.54 147.233 14.384C145.577 14.12 144.965 13.652 144.965 12.476C144.965 11.216 146.141 10.592 147.317 10.592C148.601 10.592 149.621 11.072 149.777 12.488H148.433C148.313 11.912 147.989 11.648 147.317 11.648C146.693 11.648 146.321 11.948 146.321 12.392C146.321 12.848 146.621 13.028 147.617 13.196C149.093 13.424 149.969 13.784 149.969 15.116C149.969 16.388 149.069 17.12 147.461 17.12Z" fill="#222222"/>
</svg>
