<svg width="48" height="20" viewBox="0 0 48 20" fill="none" xmlns="http://www.w3.org/2000/svg">
<path d="M47.7391 6.63177C47.7391 9.81438 45.193 12.3605 42.0104 12.3605H38.0852V19.0439H33.5765V0.903076H41.9574C45.193 0.903076 47.7391 3.50221 47.7391 6.63177ZM41.2678 4.66916H38.1383V8.43525H41.2678C42.2757 8.43525 43.0713 7.53351 43.0713 6.57873C43.0713 5.5709 42.2757 4.66916 41.2678 4.66916ZM26.4687 0.903076V8.27612H20.2096V0.903076H15.7009V19.097H20.2096V12.4135H26.4687V19.097H30.9774V0.903076H26.4687ZM13.9504 14.1639C13.9504 17.1874 11.2452 19.097 8.38087 19.097H0V0.903076H8.11565C11.0861 0.903076 13.5261 3.07786 13.5261 5.78308C13.5261 7.90482 12.5183 9.07177 11.1391 9.92047C12.7304 10.61 13.9504 11.6179 13.9504 14.1639ZM7.47913 11.777H4.5087V15.2779H7.47913C8.64609 15.2779 9.28261 14.4822 9.28261 13.5274C9.28261 12.5726 8.43391 11.777 7.47913 11.777ZM7.05478 4.66916H4.5087V8.43525H7.05478C8.22174 8.43525 8.85826 7.53351 8.85826 6.57873C8.85826 5.5709 8.22174 4.66916 7.05478 4.66916Z" fill="#DD5900"/>
</svg>
