<svg width="117" height="10" viewBox="0 0 117 10" fill="none" xmlns="http://www.w3.org/2000/svg">
<path d="M4.02314 9.62C1.87514 9.62 0.651136 8.444 0.651136 6.236V0.92H2.25914V6.116C2.25914 7.688 2.76314 8.336 4.03514 8.336C5.27114 8.336 5.89514 7.784 5.89514 6.008V0.92H7.50314V6.14C7.50314 8.384 6.29114 9.62 4.02314 9.62ZM8.97642 9.5V3.224H10.4284V4.184C10.7284 3.596 11.4124 3.092 12.3364 3.092C13.1524 3.092 13.8004 3.44 14.1124 4.22C14.5924 3.44 15.4564 3.092 16.2364 3.092C17.3884 3.092 18.3244 3.8 18.3244 5.528V9.5H16.8724V5.624C16.8724 4.7 16.4764 4.304 15.7564 4.304C15.0364 4.304 14.3764 4.784 14.3764 5.744V9.5H12.9244V5.624C12.9244 4.7 12.5164 4.304 11.8084 4.304C11.0884 4.304 10.4284 4.784 10.4284 5.744V9.5H8.97642ZM24.0154 9.62C22.8634 9.62 21.9154 9.068 21.9154 7.76C21.9154 6.296 23.3314 5.768 25.1314 5.768H25.9114V5.444C25.9114 4.604 25.6234 4.184 24.7714 4.184C24.0154 4.184 23.6434 4.544 23.5714 5.168H22.1674C22.2874 3.704 23.4514 3.092 24.8554 3.092C26.2594 3.092 27.3634 3.668 27.3634 5.384V9.5H25.9354V8.732C25.5274 9.272 24.9754 9.62 24.0154 9.62ZM24.3634 8.576C25.2514 8.576 25.9114 8.108 25.9114 7.304V6.68H25.1674C24.0634 6.68 23.3554 6.932 23.3554 7.7C23.3554 8.228 23.6434 8.576 24.3634 8.576ZM28.7877 9.5V3.224H30.2397V4.184C30.5397 3.596 31.2237 3.092 32.1477 3.092C32.9637 3.092 33.6117 3.44 33.9237 4.22C34.4037 3.44 35.2677 3.092 36.0477 3.092C37.1997 3.092 38.1357 3.8 38.1357 5.528V9.5H36.6837V5.624C36.6837 4.7 36.2877 4.304 35.5677 4.304C34.8477 4.304 34.1877 4.784 34.1877 5.744V9.5H32.7357V5.624C32.7357 4.7 32.3277 4.304 31.6197 4.304C30.8997 4.304 30.2397 4.784 30.2397 5.744V9.5H28.7877ZM41.2073 9.62C40.0553 9.62 39.1073 9.068 39.1073 7.76C39.1073 6.296 40.5233 5.768 42.3233 5.768H43.1033V5.444C43.1033 4.604 42.8153 4.184 41.9633 4.184C41.2073 4.184 40.8353 4.544 40.7633 5.168H39.3593C39.4793 3.704 40.6433 3.092 42.0473 3.092C43.4513 3.092 44.5553 3.668 44.5553 5.384V9.5H43.1273V8.732C42.7193 9.272 42.1673 9.62 41.2073 9.62ZM41.5553 8.576C42.4433 8.576 43.1033 8.108 43.1033 7.304V6.68H42.3593C41.2553 6.68 40.5473 6.932 40.5473 7.7C40.5473 8.228 40.8353 8.576 41.5553 8.576ZM45.9795 9.5V3.224H47.4315V4.22C47.7315 3.608 48.4275 3.092 49.4595 3.092C50.7195 3.092 51.6075 3.824 51.6075 5.552V9.5H50.1555V5.684C50.1555 4.736 49.7715 4.304 48.9075 4.304C48.0915 4.304 47.4315 4.808 47.4315 5.804V9.5H45.9795ZM53.0403 9.5V0.319999H54.4923V4.22C54.7923 3.608 55.4883 3.092 56.5203 3.092C57.7803 3.092 58.6683 3.824 58.6683 5.552V9.5H57.2163V5.684C57.2163 4.736 56.8323 4.304 55.9683 4.304C55.1523 4.304 54.4923 4.808 54.4923 5.804V9.5H53.0403ZM61.7451 9.62C60.5931 9.62 59.6451 9.068 59.6451 7.76C59.6451 6.296 61.0611 5.768 62.8611 5.768H63.6411V5.444C63.6411 4.604 63.3531 4.184 62.5011 4.184C61.7451 4.184 61.3731 4.544 61.3011 5.168H59.8971C60.0171 3.704 61.1811 3.092 62.5851 3.092C63.9891 3.092 65.0931 3.668 65.0931 5.384V9.5H63.6651V8.732C63.2571 9.272 62.7051 9.62 61.7451 9.62ZM62.0931 8.576C62.9811 8.576 63.6411 8.108 63.6411 7.304V6.68H62.8971C61.7931 6.68 61.0851 6.932 61.0851 7.7C61.0851 8.228 61.3731 8.576 62.0931 8.576ZM63.2811 2.228C62.7051 2.228 62.2971 1.748 61.9491 1.748C61.7331 1.748 61.5531 1.952 61.5051 2.228H60.6051C60.7011 1.22 61.2171 0.655999 61.8891 0.655999C62.4411 0.655999 62.8611 1.124 63.2331 1.124C63.4491 1.124 63.6171 0.931999 63.6651 0.644H64.5651C64.4691 1.652 63.9411 2.228 63.2811 2.228ZM69.1367 9.5V3.224H70.5887V4.184C70.8887 3.596 71.5727 3.092 72.4967 3.092C73.3127 3.092 73.9607 3.44 74.2727 4.22C74.7527 3.44 75.6167 3.092 76.3967 3.092C77.5487 3.092 78.4847 3.8 78.4847 5.528V9.5H77.0327V5.624C77.0327 4.7 76.6367 4.304 75.9167 4.304C75.1967 4.304 74.5367 4.784 74.5367 5.744V9.5H73.0847V5.624C73.0847 4.7 72.6767 4.304 71.9687 4.304C71.2487 4.304 70.5887 4.784 70.5887 5.744V9.5H69.1367ZM82.6724 9.62C80.8244 9.62 79.4924 8.408 79.4924 6.428V6.332C79.4924 4.388 80.8244 3.092 82.6124 3.092C84.1724 3.092 85.5764 4.016 85.5764 6.26V6.68H80.9804C81.0284 7.868 81.6284 8.54 82.7084 8.54C83.5844 8.54 84.0404 8.192 84.1484 7.58H85.5524C85.3484 8.9 84.2804 9.62 82.6724 9.62ZM81.0044 5.708H84.1364C84.0644 4.628 83.5124 4.148 82.6124 4.148C81.7364 4.148 81.1484 4.736 81.0044 5.708ZM86.6693 9.5V0.319999H88.1213V9.5H86.6693ZM89.6511 9.5V0.319999H91.1031V4.22C91.4031 3.608 92.0991 3.092 93.1311 3.092C94.3911 3.092 95.2791 3.824 95.2791 5.552V9.5H93.8271V5.684C93.8271 4.736 93.4431 4.304 92.5791 4.304C91.7631 4.304 91.1031 4.808 91.1031 5.804V9.5H89.6511ZM99.5199 8.492C100.6 8.492 101.248 7.688 101.248 6.404V6.32C101.248 5.024 100.6 4.232 99.5199 4.232C98.4399 4.232 97.7799 5.012 97.7799 6.308V6.404C97.7799 7.688 98.4159 8.492 99.5199 8.492ZM99.5079 9.62C97.6599 9.62 96.2919 8.336 96.2919 6.428V6.332C96.2919 4.388 97.6719 3.092 99.5199 3.092C101.356 3.092 102.736 4.376 102.736 6.296V6.392C102.736 8.348 101.356 9.62 99.5079 9.62ZM103.808 9.5V3.224H105.26V4.4C105.656 3.608 106.244 3.14 107.3 3.128V4.484C106.028 4.496 105.26 4.904 105.26 6.236V9.5H103.808ZM113.033 2.288L113.741 0.427999H115.349L114.101 2.288H113.033ZM113.717 9.62C111.869 9.62 110.537 8.408 110.537 6.428V6.332C110.537 4.388 111.869 3.092 113.657 3.092C115.217 3.092 116.621 4.016 116.621 6.26V6.68H112.025C112.073 7.868 112.673 8.54 113.753 8.54C114.629 8.54 115.085 8.192 115.193 7.58H116.597C116.393 8.9 115.325 9.62 113.717 9.62ZM112.049 5.708H115.181C115.109 4.628 114.557 4.148 113.657 4.148C112.781 4.148 112.193 4.736 112.049 5.708Z" fill="black"/>
</svg>
