<?xml version="1.0" encoding="utf-8"?>
<!-- Generator: Adobe Illustrator 27.7.0, SVG Export Plug-In . SVG Version: 6.00 Build 0)  -->
<svg version="1.1" id="Layer_1" xmlns="http://www.w3.org/2000/svg" xmlns:xlink="http://www.w3.org/1999/xlink" x="0px" y="0px"
	 viewBox="0 0 263.1 57.3" style="enable-background:new 0 0 263.1 57.3;" xml:space="preserve">
<style type="text/css">
	.st0{fill:#FFD000;}
</style>
<path class="st0" d="M2,24.7v-24h16.7v5.6H8.4v4.6h8v5.3h-8v8.5H2z M21.2,24.7v-24h6.4v24H21.2z M37.5,24.7V6.2h-7.4V0.6h21.1v5.6
	h-7.3v18.4H37.5z M51.8,21.7l3.9-4.6c0.7,0.7,1.5,1.3,2.6,1.8c1.1,0.6,2.3,0.8,3.6,0.8c0.6,0,1.3-0.1,1.9-0.4s0.9-0.8,0.9-1.5
	c0-0.6-0.3-1.1-1-1.5c-0.6-0.4-1.6-0.8-2.8-1.2l-1.3-0.4c-1-0.3-2-0.8-3-1.3c-1-0.6-1.8-1.3-2.4-2.2c-0.6-0.9-0.9-2-0.9-3.3
	c0-1.5,0.3-2.8,1-4C55,2.6,56.1,1.7,57.4,1c1.4-0.7,3.1-1,5.1-1c1.6,0,3,0.2,4.1,0.5c1.2,0.4,2.1,0.8,2.9,1.3
	c0.8,0.5,1.3,0.9,1.7,1.3L68,7.2c-0.8-0.6-1.7-1.1-2.6-1.5c-0.9-0.4-1.8-0.6-2.8-0.6c-0.6,0-1.2,0.1-1.8,0.4
	c-0.6,0.3-0.8,0.7-0.8,1.4c0,0.7,0.3,1.3,1,1.6s1.5,0.7,2.6,1l1.2,0.4c0.8,0.2,1.6,0.6,2.4,0.9c0.8,0.4,1.6,0.8,2.3,1.4
	c0.7,0.6,1.2,1.3,1.7,2.2c0.4,0.9,0.6,1.9,0.6,3.2c0,1.5-0.4,2.8-1.3,3.9c-0.9,1.2-2,2.1-3.5,2.7c-1.5,0.6-3.1,1-4.9,1
	c-2.4,0-4.4-0.3-6-1C54.3,23.6,52.9,22.8,51.8,21.7z M80.8,24.7v-24h6.4v24H80.8z M91.1,24.7v-24h5.8l9.2,13.4V0.6h6.3v24H107
	l-9.6-13.8v13.8H91.1z M122.3,24.7V6.2h-7.4V0.6h21.1v5.6h-7.3v18.4H122.3z M149.1,25.2c-1.8,0-3.5-0.3-5-0.9
	c-1.5-0.6-2.8-1.5-4-2.6c-1.1-1.2-2-2.5-2.6-4c-0.6-1.5-0.9-3.2-0.9-5c0-1.8,0.3-3.5,0.9-5c0.6-1.5,1.5-2.9,2.6-4
	c1.1-1.1,2.4-2,4-2.6c1.5-0.6,3.2-0.9,5-0.9s3.5,0.3,5,0.9c1.5,0.6,2.9,1.5,4,2.6c1.1,1.1,2,2.5,2.6,4c0.6,1.5,0.9,3.2,0.9,5
	c0,1.8-0.3,3.5-0.9,5c-0.6,1.5-1.5,2.9-2.6,4c-1.1,1.1-2.5,2-4,2.6C152.5,24.9,150.9,25.2,149.1,25.2z M149.1,19.3
	c1.3,0,2.3-0.3,3.2-0.9c0.9-0.6,1.6-1.4,2-2.4c0.5-1,0.7-2.1,0.7-3.3s-0.2-2.3-0.7-3.3c-0.5-1-1.1-1.8-2-2.4
	c-0.9-0.6-1.9-0.9-3.2-0.9c-1.2,0-2.3,0.3-3.2,0.9c-0.9,0.6-1.5,1.4-2,2.4c-0.5,1-0.7,2.1-0.7,3.3s0.2,2.3,0.7,3.3
	c0.5,1,1.2,1.8,2,2.4C146.8,19,147.8,19.3,149.1,19.3z M177.4,24.7v-9.6l-8.5-14.4h7.3l4.7,8.6l4.4-8.6h7.1L183.7,15v9.6H177.4z
	 M203.4,25.2c-1.8,0-3.5-0.3-5-0.9c-1.5-0.6-2.8-1.5-4-2.6c-1.1-1.2-2-2.5-2.6-4c-0.6-1.5-0.9-3.2-0.9-5c0-1.8,0.3-3.5,0.9-5
	c0.6-1.5,1.5-2.9,2.6-4c1.1-1.1,2.4-2,4-2.6c1.5-0.6,3.2-0.9,5-0.9s3.5,0.3,5,0.9c1.5,0.6,2.9,1.5,4,2.6c1.1,1.1,2,2.5,2.6,4
	c0.6,1.5,0.9,3.2,0.9,5c0,1.8-0.3,3.5-0.9,5c-0.6,1.5-1.5,2.9-2.6,4c-1.1,1.1-2.5,2-4,2.6C206.9,24.9,205.2,25.2,203.4,25.2z
	 M203.4,19.3c1.3,0,2.3-0.3,3.2-0.9c0.9-0.6,1.6-1.4,2-2.4c0.5-1,0.7-2.1,0.7-3.3s-0.2-2.3-0.7-3.3c-0.5-1-1.1-1.8-2-2.4
	c-0.9-0.6-1.9-0.9-3.2-0.9c-1.2,0-2.3,0.3-3.2,0.9c-0.9,0.6-1.5,1.4-2,2.4c-0.5,1-0.7,2.1-0.7,3.3s0.2,2.3,0.7,3.3
	c0.5,1,1.2,1.8,2,2.4C201.1,19,202.2,19.3,203.4,19.3z M218.8,15.3V0.6h6.4v14.1c0,1.3,0.3,2.4,0.9,3.2c0.6,0.8,1.6,1.3,3.1,1.3
	s2.4-0.4,3-1.3c0.6-0.9,0.9-1.9,0.9-3.2V0.6h6.4v14.7c0,2-0.4,3.8-1.3,5.3c-0.9,1.5-2.1,2.6-3.7,3.5c-1.5,0.8-3.3,1.2-5.3,1.2
	c-2,0-3.8-0.4-5.4-1.2c-1.6-0.8-2.8-1.9-3.7-3.4C219.2,19.2,218.8,17.4,218.8,15.3z M243.3,24.7v-24h9.9c2.6,0,4.6,0.7,6.2,2
	c1.6,1.3,2.3,3.3,2.3,5.9c0,1.6-0.3,2.9-1,4.1c-0.7,1.2-1.6,2.1-2.8,2.8l5.1,9.2h-6.8l-4.1-8.2h-2.7v8.2H243.3z M249.5,11.5h3.1
	c0.8,0,1.5-0.3,2.1-0.8c0.5-0.5,0.8-1.2,0.8-2.1c0-0.9-0.3-1.6-0.8-2.2s-1.2-0.8-2.1-0.8h-3.1V11.5z M0,53.7l3.9-4.6
	c0.7,0.7,1.5,1.3,2.6,1.8c1.1,0.6,2.3,0.8,3.6,0.8c0.6,0,1.3-0.1,1.9-0.4c0.6-0.3,0.9-0.8,0.9-1.5c0-0.6-0.3-1.1-1-1.5
	c-0.6-0.4-1.6-0.8-2.8-1.2l-1.3-0.4c-1-0.3-2-0.8-3-1.3c-1-0.6-1.8-1.3-2.4-2.2c-0.6-0.9-0.9-2-0.9-3.3c0-1.5,0.3-2.8,1-4
	c0.7-1.2,1.8-2.1,3.2-2.8c1.4-0.7,3.1-1,5.1-1c1.6,0,3,0.2,4.1,0.5c1.2,0.4,2.1,0.8,2.9,1.3c0.8,0.5,1.3,0.9,1.7,1.3l-3.2,4.1
	c-0.8-0.6-1.7-1.1-2.6-1.5c-0.9-0.4-1.8-0.6-2.8-0.6c-0.6,0-1.2,0.1-1.8,0.4c-0.6,0.3-0.8,0.7-0.8,1.4c0,0.7,0.3,1.3,1,1.6
	s1.5,0.7,2.6,1l1.2,0.4c0.8,0.2,1.6,0.6,2.4,0.9c0.8,0.4,1.6,0.8,2.3,1.4c0.7,0.6,1.2,1.3,1.7,2.2c0.4,0.9,0.6,1.9,0.6,3.2
	c0,1.5-0.4,2.8-1.3,3.9c-0.9,1.2-2,2.1-3.5,2.7c-1.5,0.6-3.1,1-4.9,1c-2.4,0-4.4-0.3-6-1C2.5,55.6,1.1,54.8,0,53.7z M40.8,48.2
	l4.3,4c-2.7,3.4-6.3,5.1-10.7,5.1c-2.4,0-4.6-0.5-6.5-1.6c-1.9-1.1-3.3-2.6-4.4-4.4c-1.1-1.9-1.6-4.1-1.6-6.5c0-2.4,0.5-4.6,1.6-6.5
	c1.1-1.9,2.5-3.4,4.4-4.5c1.9-1.1,4-1.7,6.5-1.7c2.1,0,4,0.3,5.8,1c1.8,0.7,3.3,1.9,4.5,3.6l-4.2,4.2c-0.7-0.9-1.5-1.6-2.4-2.2
	c-0.9-0.6-2-0.8-3.2-0.8c-1.3,0-2.5,0.3-3.5,0.9c-0.9,0.6-1.7,1.4-2.2,2.4c-0.5,1-0.8,2.1-0.8,3.3c0,1.3,0.3,2.4,0.8,3.5
	c0.5,1,1.3,1.8,2.2,2.4c1,0.6,2.1,0.9,3.3,0.9c1.4,0,2.6-0.3,3.4-0.8C39.1,50,40,49.2,40.8,48.2z M47.1,56.7v-24h6.4v8.8h8.9v-8.8
	h6.4v24h-6.4v-9.4h-8.9v9.4H47.1z M72.6,56.7v-24h17.3v5.5H79v3.7h9V47h-9v4.1h11.7v5.5H72.6z M93.6,56.7v-24h9.2
	c2.5,0,4.7,0.4,6.6,1.3c1.9,0.8,3.5,2.2,4.6,4c1.1,1.8,1.7,4.1,1.7,6.9c0,2.6-0.6,4.8-1.7,6.6c-1.1,1.8-2.7,3.1-4.6,4
	c-1.9,0.9-4.1,1.3-6.6,1.3H93.6z M100,51h2.6c2.1,0,3.7-0.6,4.8-1.8c1.2-1.2,1.7-2.7,1.7-4.6c0-1.9-0.5-3.5-1.6-4.6s-2.7-1.8-5-1.8
	H100V51z M118.6,47.3V32.6h6.4v14.1c0,1.3,0.3,2.4,0.9,3.2c0.6,0.8,1.6,1.3,3.1,1.3c1.4,0,2.4-0.4,3-1.3c0.6-0.9,0.9-1.9,0.9-3.2
	V32.6h6.4v14.7c0,2-0.4,3.8-1.3,5.3c-0.9,1.5-2.1,2.6-3.7,3.5c-1.5,0.8-3.3,1.2-5.3,1.2s-3.8-0.4-5.4-1.2c-1.6-0.8-2.8-1.9-3.7-3.4
	C119,51.2,118.6,49.4,118.6,47.3z M143.1,56.7v-24h6.4V51h11.1v5.6H143.1z M163.1,56.7v-24h17.3v5.5h-10.9v3.7h9V47h-9v4.1h11.7v5.5
	H163.1z"/>
</svg>
