<?xml version="1.0" encoding="utf-8"?>
<!-- Generator: Adobe Illustrator 27.7.0, SVG Export Plug-In . SVG Version: 6.00 Build 0)  -->
<svg version="1.1" id="Layer_1" xmlns="http://www.w3.org/2000/svg" xmlns:xlink="http://www.w3.org/1999/xlink" x="0px" y="0px"
	 viewBox="0 0 180.4 57.3" style="enable-background:new 0 0 180.4 57.3;" xml:space="preserve">
<style type="text/css">
	.st0{fill:#FFFFFF;}
</style>
<path class="st0" d="M2,24.7v-24h6.4v8.8h8.9V0.6h6.4v24h-6.4v-9.4H8.4v9.4H2z M39.1,25.2c-1.8,0-3.5-0.3-5-0.9
	c-1.5-0.6-2.8-1.5-4-2.6c-1.1-1.2-2-2.5-2.6-4c-0.6-1.5-0.9-3.2-0.9-5s0.3-3.5,0.9-5c0.6-1.5,1.5-2.9,2.6-4c1.1-1.1,2.4-2,4-2.6
	c1.5-0.6,3.2-0.9,5-0.9s3.5,0.3,5,0.9c1.5,0.6,2.9,1.5,4,2.6c1.1,1.1,2,2.5,2.6,4c0.6,1.5,0.9,3.2,0.9,5s-0.3,3.5-0.9,5
	c-0.6,1.5-1.5,2.9-2.6,4c-1.1,1.1-2.5,2-4,2.6C42.6,24.9,40.9,25.2,39.1,25.2z M39.1,19.3c1.3,0,2.3-0.3,3.2-0.9
	c0.9-0.6,1.6-1.4,2-2.4c0.5-1,0.7-2.1,0.7-3.3s-0.2-2.3-0.7-3.3c-0.5-1-1.1-1.8-2-2.4c-0.9-0.6-1.9-0.9-3.2-0.9
	c-1.2,0-2.3,0.3-3.2,0.9c-0.9,0.6-1.5,1.4-2,2.4c-0.5,1-0.7,2.1-0.7,3.3s0.2,2.3,0.7,3.3c0.5,1,1.2,1.8,2,2.4
	C36.8,19,37.9,19.3,39.1,19.3z M52.3,21.7l3.9-4.6c0.7,0.7,1.5,1.3,2.6,1.8c1.1,0.6,2.3,0.8,3.6,0.8c0.6,0,1.3-0.1,1.9-0.4
	c0.6-0.3,0.9-0.8,0.9-1.5c0-0.6-0.3-1.1-1-1.5c-0.6-0.4-1.6-0.8-2.8-1.2L60,14.6c-1-0.3-2-0.8-3-1.3c-1-0.6-1.8-1.3-2.4-2.2
	c-0.6-0.9-0.9-2-0.9-3.3c0-1.5,0.3-2.8,1-4c0.7-1.2,1.8-2.1,3.2-2.8C59.3,0.3,61,0,63,0c1.6,0,3,0.2,4.1,0.5
	c1.2,0.4,2.1,0.8,2.9,1.3s1.3,0.9,1.7,1.3l-3.2,4.1c-0.8-0.6-1.7-1.1-2.6-1.5C65,5.3,64,5.1,63.1,5.1c-0.6,0-1.2,0.1-1.8,0.4
	c-0.6,0.3-0.8,0.7-0.8,1.4c0,0.7,0.3,1.3,1,1.6c0.7,0.3,1.5,0.7,2.6,1l1.2,0.4c0.8,0.2,1.6,0.6,2.4,0.9c0.8,0.4,1.6,0.8,2.3,1.4
	s1.2,1.3,1.7,2.2c0.4,0.9,0.6,1.9,0.6,3.2c0,1.5-0.4,2.8-1.3,3.9c-0.9,1.2-2,2.1-3.5,2.7c-1.5,0.6-3.1,1-4.9,1c-2.4,0-4.4-0.3-6-1
	C54.8,23.6,53.4,22.8,52.3,21.7z M81.1,24.7V6.2h-7.4V0.6h21.1v5.6h-7.3v18.4H81.1z M97.4,24.7v-24h9.8c2.6,0,4.6,0.7,6.2,2.1
	c1.6,1.3,2.3,3.3,2.3,5.9c0,1.6-0.4,3.1-1.1,4.3c-0.7,1.2-1.7,2.1-3,2.8c-1.2,0.6-2.7,1-4.3,1h-3.7v8H97.4z M103.6,11.7h3
	c0.9,0,1.5-0.3,2.1-0.8c0.5-0.6,0.8-1.3,0.8-2.1c0-0.9-0.2-1.6-0.7-2.2c-0.5-0.6-1.2-0.8-2.1-0.8h-3V11.7z M118.5,24.7v-24h6.4V19
	H136v5.6H118.5z M138,15.3V0.6h6.4v14.1c0,1.3,0.3,2.4,0.9,3.2c0.6,0.8,1.6,1.3,3.1,1.3s2.4-0.4,3-1.3c0.6-0.9,0.9-1.9,0.9-3.2V0.6
	h6.4v14.7c0,2-0.4,3.8-1.3,5.3c-0.9,1.5-2.1,2.6-3.7,3.5c-1.5,0.8-3.3,1.2-5.3,1.2c-2,0-3.8-0.4-5.4-1.2c-1.6-0.8-2.8-1.9-3.7-3.4
	C138.5,19.2,138,17.4,138,15.3z M160.5,21.7l3.9-4.6c0.7,0.7,1.5,1.3,2.6,1.8c1.1,0.6,2.3,0.8,3.6,0.8c0.6,0,1.3-0.1,1.9-0.4
	c0.6-0.3,0.9-0.8,0.9-1.5c0-0.6-0.3-1.1-1-1.5c-0.6-0.4-1.6-0.8-2.8-1.2l-1.3-0.4c-1-0.3-2-0.8-3-1.3c-1-0.6-1.8-1.3-2.4-2.2
	c-0.6-0.9-0.9-2-0.9-3.3c0-1.5,0.3-2.8,1-4c0.7-1.2,1.8-2.1,3.2-2.8c1.4-0.7,3.1-1,5.1-1c1.6,0,3,0.2,4.1,0.5
	c1.2,0.4,2.1,0.8,2.9,1.3c0.8,0.5,1.3,0.9,1.7,1.3l-3.2,4.1c-0.8-0.6-1.7-1.1-2.6-1.5c-0.9-0.4-1.8-0.6-2.8-0.6
	c-0.6,0-1.2,0.1-1.8,0.4c-0.6,0.3-0.8,0.7-0.8,1.4c0,0.7,0.3,1.3,1,1.6c0.7,0.3,1.5,0.7,2.6,1l1.2,0.4c0.8,0.2,1.6,0.6,2.4,0.9
	c0.8,0.4,1.6,0.8,2.3,1.4s1.2,1.3,1.7,2.2c0.4,0.9,0.6,1.9,0.6,3.2c0,1.5-0.4,2.8-1.3,3.9c-0.9,1.2-2,2.1-3.5,2.7
	c-1.5,0.6-3.1,1-4.9,1c-2.4,0-4.4-0.3-6-1C163,23.6,161.7,22.8,160.5,21.7z M0,56.7l8.8-24h7.3l8.5,24h-6.9l-1.5-5h-8l-1.6,5H0z
	 M9.5,47h5.4l-2.7-8.8L9.5,47z M26.6,56.7v-24h9.2c2.5,0,4.7,0.4,6.6,1.3c1.9,0.8,3.5,2.2,4.6,4c1.1,1.8,1.7,4.1,1.7,6.9
	c0,2.6-0.6,4.8-1.7,6.6c-1.1,1.8-2.7,3.1-4.6,4c-1.9,0.9-4.1,1.3-6.6,1.3H26.6z M33,51h2.6c2.1,0,3.7-0.6,4.8-1.8
	c1.2-1.2,1.7-2.7,1.7-4.6c0-1.9-0.5-3.5-1.6-4.6c-1.1-1.2-2.7-1.8-5-1.8H33V51z M57,56.7l-8.7-24h6.9l5.4,16.7l5-16.7h6.8l-8.7,24
	H57z M74.4,56.7v-24h6.4v24H74.4z M102.7,48.2l4.3,4c-2.7,3.4-6.3,5.1-10.7,5.1c-2.4,0-4.6-0.5-6.5-1.6c-1.9-1.1-3.3-2.6-4.4-4.4
	c-1.1-1.9-1.6-4.1-1.6-6.5c0-2.4,0.5-4.6,1.6-6.5c1.1-1.9,2.5-3.4,4.4-4.5s4-1.7,6.5-1.7c2.1,0,4,0.3,5.8,1c1.8,0.7,3.3,1.9,4.5,3.6
	l-4.2,4.2c-0.7-0.9-1.5-1.6-2.4-2.2c-0.9-0.6-2-0.8-3.2-0.8c-1.3,0-2.5,0.3-3.5,0.9c-0.9,0.6-1.7,1.4-2.2,2.4
	c-0.5,1-0.8,2.1-0.8,3.3c0,1.3,0.3,2.4,0.8,3.5c0.5,1,1.3,1.8,2.2,2.4s2.1,0.9,3.3,0.9c1.4,0,2.6-0.3,3.4-0.8
	C101,50,101.8,49.2,102.7,48.2z M108.9,56.7v-24h17.3v5.5h-10.9v3.7h9V47h-9v4.1H127v5.5H108.9z"/>
</svg>
