<svg width="514" height="78" viewBox="0 0 514 78" fill="none" xmlns="http://www.w3.org/2000/svg">
<path d="M17.04 32.718C15.516 32.718 14.754 33.252 14.754 34.32C14.754 34.872 14.934 35.268 15.294 35.508C15.654 35.736 16.446 36.024 17.67 36.372C18.906 36.708 19.776 37.116 20.28 37.596C20.784 38.064 21.036 38.808 21.036 39.828C21.036 41.124 20.664 42.096 19.92 42.744C19.188 43.38 18.186 43.698 16.914 43.698C15.894 43.698 14.766 43.578 13.53 43.338L12.882 43.212L13.08 41.61C14.7 41.826 15.936 41.934 16.788 41.934C18.276 41.934 19.02 41.274 19.02 39.954C19.02 39.438 18.852 39.06 18.516 38.82C18.18 38.568 17.424 38.298 16.248 38.01C15.072 37.71 14.196 37.302 13.62 36.786C13.044 36.27 12.756 35.454 12.756 34.338C12.756 33.222 13.116 32.382 13.836 31.818C14.568 31.242 15.576 30.954 16.86 30.954C17.784 30.954 18.876 31.062 20.136 31.278L20.766 31.386L20.604 33.006C18.924 32.814 17.736 32.718 17.04 32.718ZM21.7588 34.5H23.6848L25.1068 41.826H25.4668L27.1768 34.68H29.1928L30.9028 41.826H31.2628L32.6668 34.5H34.6108L32.7028 43.5H29.5888L28.1848 37.326L26.7808 43.5H23.6668L21.7588 34.5ZM35.9172 43.5V34.5H37.8792V43.5H35.9172ZM35.9172 32.97V30.9H37.8792V32.97H35.9172ZM44.741 36.174H42.257V40.134C42.257 40.866 42.311 41.352 42.419 41.592C42.527 41.832 42.803 41.952 43.247 41.952L44.723 41.898L44.813 43.464C44.009 43.62 43.397 43.698 42.977 43.698C41.957 43.698 41.255 43.464 40.871 42.996C40.499 42.528 40.313 41.646 40.313 40.35V36.174H39.161V34.5H40.313V31.89H42.257V34.5H44.741V36.174ZM49.3562 34.302C49.9922 34.302 50.7422 34.386 51.6062 34.554L52.0562 34.644L51.9842 36.192C51.0362 36.096 50.3342 36.048 49.8782 36.048C48.9662 36.048 48.3542 36.252 48.0422 36.66C47.7302 37.068 47.5742 37.836 47.5742 38.964C47.5742 40.092 47.7242 40.872 48.0242 41.304C48.3242 41.736 48.9482 41.952 49.8962 41.952L52.0022 41.808L52.0562 43.374C50.8442 43.59 49.9322 43.698 49.3202 43.698C47.9522 43.698 46.9862 43.332 46.4222 42.6C45.8702 41.856 45.5942 40.644 45.5942 38.964C45.5942 37.284 45.8882 36.09 46.4762 35.382C47.0642 34.662 48.0242 34.302 49.3562 34.302ZM55.5551 43.5H53.5931V30.756H55.5551V34.968C56.4431 34.524 57.2651 34.302 58.0211 34.302C59.2211 34.302 60.0371 34.644 60.4691 35.328C60.9131 36 61.1351 37.116 61.1351 38.676V43.5H59.1731V38.73C59.1731 37.758 59.0711 37.068 58.8671 36.66C58.6631 36.252 58.2311 36.048 57.5711 36.048C56.9951 36.048 56.4191 36.144 55.8431 36.336L55.5551 36.444V43.5ZM73.3143 37.272V41.376C73.3263 41.64 73.3923 41.838 73.5123 41.97C73.6443 42.09 73.8423 42.168 74.1063 42.204L74.0523 43.698C73.0203 43.698 72.2223 43.476 71.6583 43.032C70.6983 43.476 69.7323 43.698 68.7603 43.698C66.9723 43.698 66.0783 42.744 66.0783 40.836C66.0783 39.924 66.3183 39.264 66.7983 38.856C67.2903 38.448 68.0403 38.202 69.0483 38.118L71.3703 37.92V37.272C71.3703 36.792 71.2623 36.456 71.0463 36.264C70.8423 36.072 70.5363 35.976 70.1283 35.976C69.3603 35.976 68.4003 36.024 67.2483 36.12L66.6723 36.156L66.6003 34.77C67.9083 34.458 69.1083 34.302 70.2003 34.302C71.3043 34.302 72.0963 34.542 72.5763 35.022C73.0683 35.49 73.3143 36.24 73.3143 37.272ZM69.2823 39.504C68.4543 39.576 68.0403 40.026 68.0403 40.854C68.0403 41.682 68.4063 42.096 69.1383 42.096C69.7383 42.096 70.3743 42 71.0463 41.808L71.3703 41.7V39.306L69.2823 39.504ZM77.3794 43.5H75.4174V34.5H77.3614V35.058C78.2374 34.554 79.0654 34.302 79.8454 34.302C81.0454 34.302 81.8614 34.644 82.2934 35.328C82.7374 36 82.9594 37.116 82.9594 38.676V43.5H81.0154V38.73C81.0154 37.758 80.9074 37.068 80.6914 36.66C80.4874 36.252 80.0614 36.048 79.4134 36.048C78.8014 36.048 78.2134 36.168 77.6494 36.408L77.3794 36.516V43.5ZM92.2275 30.756V43.5H90.2835V43.032C89.4075 43.476 88.6035 43.698 87.8715 43.698C86.6955 43.698 85.8315 43.344 85.2795 42.636C84.7395 41.928 84.4695 40.74 84.4695 39.072C84.4695 37.404 84.7695 36.192 85.3695 35.436C85.9815 34.68 86.9295 34.302 88.2135 34.302C88.6455 34.302 89.3295 34.38 90.2655 34.536V30.756H92.2275ZM89.9595 41.628L90.2655 41.502V36.174C89.5455 36.054 88.8795 35.994 88.2675 35.994C87.0555 35.994 86.4495 37.002 86.4495 39.018C86.4495 40.122 86.5875 40.89 86.8635 41.322C87.1515 41.742 87.6015 41.952 88.2135 41.952C88.8255 41.952 89.4075 41.844 89.9595 41.628ZM104.085 36.354C102.669 36.162 101.643 36.066 101.007 36.066C100.371 36.066 99.9273 36.144 99.6753 36.3C99.4353 36.444 99.3153 36.678 99.3153 37.002C99.3153 37.326 99.4473 37.554 99.7113 37.686C99.9873 37.818 100.623 37.974 101.619 38.154C102.627 38.322 103.341 38.592 103.761 38.964C104.181 39.336 104.391 39.996 104.391 40.944C104.391 41.892 104.085 42.588 103.473 43.032C102.873 43.476 101.991 43.698 100.827 43.698C100.095 43.698 99.1713 43.596 98.0553 43.392L97.4973 43.302L97.5693 41.664C99.0093 41.856 100.047 41.952 100.683 41.952C101.319 41.952 101.769 41.874 102.033 41.718C102.309 41.562 102.447 41.304 102.447 40.944C102.447 40.584 102.315 40.338 102.051 40.206C101.799 40.062 101.181 39.912 100.197 39.756C99.2253 39.588 98.5113 39.33 98.0553 38.982C97.5993 38.634 97.3713 37.998 97.3713 37.074C97.3713 36.15 97.6833 35.46 98.3073 35.004C98.9433 34.548 99.7533 34.32 100.737 34.32C101.505 34.32 102.447 34.416 103.563 34.608L104.121 34.716L104.085 36.354ZM110.759 36.174H108.275V40.134C108.275 40.866 108.329 41.352 108.437 41.592C108.545 41.832 108.821 41.952 109.265 41.952L110.741 41.898L110.831 43.464C110.027 43.62 109.415 43.698 108.995 43.698C107.975 43.698 107.273 43.464 106.889 42.996C106.517 42.528 106.331 41.646 106.331 40.35V36.174H105.179V34.5H106.331V31.89H108.275V34.5H110.759V36.174ZM118.668 37.272V41.376C118.68 41.64 118.746 41.838 118.866 41.97C118.998 42.09 119.196 42.168 119.46 42.204L119.406 43.698C118.374 43.698 117.576 43.476 117.012 43.032C116.052 43.476 115.086 43.698 114.114 43.698C112.326 43.698 111.432 42.744 111.432 40.836C111.432 39.924 111.672 39.264 112.152 38.856C112.644 38.448 113.394 38.202 114.402 38.118L116.724 37.92V37.272C116.724 36.792 116.616 36.456 116.4 36.264C116.196 36.072 115.89 35.976 115.482 35.976C114.714 35.976 113.754 36.024 112.602 36.12L112.026 36.156L111.954 34.77C113.262 34.458 114.462 34.302 115.554 34.302C116.658 34.302 117.45 34.542 117.93 35.022C118.422 35.49 118.668 36.24 118.668 37.272ZM114.636 39.504C113.808 39.576 113.394 40.026 113.394 40.854C113.394 41.682 113.76 42.096 114.492 42.096C115.092 42.096 115.728 42 116.4 41.808L116.724 41.7V39.306L114.636 39.504ZM119.838 34.5H121.764L123.672 41.826H124.158L126.066 34.5H128.01L124.59 47.37H122.664L123.744 43.5H122.196L119.838 34.5ZM15.546 54.174V61.5H13.602V54.174H12.558V52.5H13.602V51.924C13.602 50.64 13.788 49.758 14.16 49.278C14.532 48.798 15.192 48.558 16.14 48.558L18.084 48.738L18.066 50.34C17.478 50.316 16.986 50.304 16.59 50.304C16.206 50.304 15.936 50.424 15.78 50.664C15.624 50.892 15.546 51.318 15.546 51.942V52.5H17.922V54.174H15.546ZM19.4312 53.472C20.0552 52.692 21.0872 52.302 22.5272 52.302C23.9672 52.302 24.9932 52.692 25.6052 53.472C26.2292 54.252 26.5412 55.422 26.5412 56.982C26.5412 58.542 26.2412 59.718 25.6412 60.51C25.0412 61.302 24.0032 61.698 22.5272 61.698C21.0512 61.698 20.0132 61.302 19.4132 60.51C18.8132 59.718 18.5132 58.542 18.5132 56.982C18.5132 55.422 18.8192 54.252 19.4312 53.472ZM20.9072 59.322C21.1832 59.802 21.7232 60.042 22.5272 60.042C23.3312 60.042 23.8712 59.802 24.1472 59.322C24.4232 58.842 24.5612 58.056 24.5612 56.964C24.5612 55.872 24.4112 55.098 24.1112 54.642C23.8232 54.186 23.2952 53.958 22.5272 53.958C21.7592 53.958 21.2252 54.186 20.9252 54.642C20.6372 55.098 20.4932 55.872 20.4932 56.964C20.4932 58.056 20.6312 58.842 20.9072 59.322ZM28.1301 61.5V52.5H30.0741V53.58C31.0941 52.92 32.1141 52.494 33.1341 52.302V54.264C32.1021 54.468 31.2201 54.732 30.4881 55.056L30.0921 55.218V61.5H28.1301ZM43.3231 52.5H45.2671V61.5H43.3231V60.942C42.4471 61.446 41.6371 61.698 40.8931 61.698C39.6571 61.698 38.8291 61.368 38.4091 60.708C37.9891 60.036 37.7791 58.866 37.7791 57.198V52.5H39.7411V57.216C39.7411 58.296 39.8311 59.022 40.0111 59.394C40.1911 59.766 40.6111 59.952 41.2711 59.952C41.9191 59.952 42.5131 59.832 43.0531 59.592L43.3231 59.484V52.5ZM47.2825 65.37V52.5H49.2265V53.058C50.0545 52.554 50.8285 52.302 51.5485 52.302C52.7365 52.302 53.6065 52.668 54.1585 53.4C54.7105 54.12 54.9865 55.338 54.9865 57.054C54.9865 58.758 54.6685 59.958 54.0325 60.654C53.4085 61.35 52.3825 61.698 50.9545 61.698C50.4625 61.698 49.8925 61.644 49.2445 61.536V65.37H47.2825ZM51.2065 54.048C50.6425 54.048 50.0785 54.174 49.5145 54.426L49.2445 54.552V59.862C49.7245 59.958 50.2525 60.006 50.8285 60.006C51.6445 60.006 52.2085 59.772 52.5205 59.304C52.8325 58.836 52.9885 58.038 52.9885 56.91C52.9885 55.002 52.3945 54.048 51.2065 54.048ZM65.0276 54.174H62.5436V58.134C62.5436 58.866 62.5976 59.352 62.7056 59.592C62.8136 59.832 63.0896 59.952 63.5336 59.952L65.0096 59.898L65.0996 61.464C64.2956 61.62 63.6836 61.698 63.2636 61.698C62.2436 61.698 61.5416 61.464 61.1576 60.996C60.7856 60.528 60.5996 59.646 60.5996 58.35V54.174H59.4476V52.5H60.5996V49.89H62.5436V52.5H65.0276V54.174ZM66.7627 53.472C67.3867 52.692 68.4187 52.302 69.8587 52.302C71.2987 52.302 72.3247 52.692 72.9367 53.472C73.5607 54.252 73.8727 55.422 73.8727 56.982C73.8727 58.542 73.5727 59.718 72.9727 60.51C72.3727 61.302 71.3347 61.698 69.8587 61.698C68.3827 61.698 67.3447 61.302 66.7447 60.51C66.1447 59.718 65.8447 58.542 65.8447 56.982C65.8447 55.422 66.1507 54.252 66.7627 53.472ZM68.2387 59.322C68.5147 59.802 69.0547 60.042 69.8587 60.042C70.6627 60.042 71.2027 59.802 71.4787 59.322C71.7547 58.842 71.8927 58.056 71.8927 56.964C71.8927 55.872 71.7427 55.098 71.4427 54.642C71.1547 54.186 70.6267 53.958 69.8587 53.958C69.0907 53.958 68.5567 54.186 68.2567 54.642C67.9687 55.098 67.8247 55.872 67.8247 56.964C67.8247 58.056 67.9627 58.842 68.2387 59.322Z" fill="white"/>
<path d="M149.92 21.8101C151.367 21.9501 152.697 22.1363 153.91 22.3696L154.505 22.5103L154.12 26.2202C152.417 26.0336 150.842 25.8936 149.396 25.8003L148.695 31.4351C151.122 32.205 152.767 33.0565 153.63 33.9897C154.517 34.8997 154.96 36.2881 154.96 38.1548C154.96 40.5815 154.225 42.4251 152.755 43.6851C151.285 44.9215 149.36 45.5395 146.98 45.5396H146.945L146.42 49.6694C144.696 49.5996 143.833 49.5184 143.83 49.4253L144.32 45.3647C142.594 45.1548 141.147 44.9094 139.98 44.6294L139.28 44.4897L139.735 40.8501C141.579 41.1068 143.282 41.2812 144.846 41.3745L145.615 35.2847C143.212 34.5613 141.508 33.6863 140.505 32.6597C139.502 31.633 139 30.2327 139 28.4595C139 26.1497 139.701 24.4349 141.101 23.3149C142.501 22.1717 144.425 21.6001 146.875 21.6001H147.33L147.96 16.77H150.55L149.92 21.8101ZM147.471 41.4097C149.36 41.1996 150.306 40.2198 150.306 38.4702C150.306 37.9103 150.142 37.455 149.815 37.105C149.512 36.7316 148.951 36.3818 148.135 36.0552L147.471 41.4097ZM146.806 25.73C144.706 25.8233 143.655 26.6284 143.655 28.145C143.655 28.7049 143.831 29.1603 144.181 29.5103C144.531 29.8601 145.207 30.222 146.21 30.5952L146.806 25.73Z" fill="#FFE344"/>
<path d="M186.56 25.3501H167.385L166.279 34.645C168.966 33.6051 171.523 33.0855 173.949 33.0854C183.222 33.0854 187.859 37.3969 187.859 46.02C187.859 50.8734 186.581 54.6218 184.024 57.2651C181.468 59.9084 177.85 61.2299 173.17 61.23C171.177 61.23 168.901 61.035 166.345 60.645C163.832 60.255 161.816 59.844 160.3 59.4106L157.96 58.8257L158.935 52.1958C164.178 53.0191 168.554 53.4302 172.064 53.4302C174.188 53.4302 175.813 52.8672 176.939 51.7407C178.066 50.6141 178.63 49.0102 178.63 46.9302C178.63 44.8069 178.153 43.2682 177.199 42.3149C176.246 41.3619 174.903 40.8853 173.17 40.8853C170.267 40.8853 167.71 41.1667 165.5 41.73L164.524 41.9907L159.194 40.7554L160.364 17.5503H186.56V25.3501ZM207.981 16.77C213.485 16.77 217.623 18.547 220.396 22.1001C223.213 25.6534 224.622 31.3736 224.622 39.2603C224.622 47.1036 223.235 52.7373 220.462 56.1606C217.689 59.5406 213.528 61.23 207.981 61.23C202.435 61.2299 198.275 59.5404 195.502 56.1606C192.729 52.7373 191.342 47.1036 191.342 39.2603C191.342 31.3736 192.729 25.6534 195.502 22.1001C198.319 18.547 202.478 16.7701 207.981 16.77ZM243.054 16.77C248.557 16.77 252.695 18.5469 255.469 22.1001C258.285 25.6534 259.693 31.3736 259.693 39.2603C259.693 47.1036 258.307 52.7373 255.534 56.1606C252.761 59.5406 248.6 61.23 243.054 61.23C237.507 61.23 233.348 59.5404 230.574 56.1606C227.801 52.7373 226.414 47.1036 226.414 39.2603C226.414 31.3736 227.801 25.6534 230.574 22.1001C233.391 18.547 237.551 16.77 243.054 16.77ZM207.981 24.5708C205.338 24.5709 203.432 25.6542 202.262 27.8208C201.135 29.9875 200.571 33.7354 200.571 39.0649C200.571 44.3949 201.157 48.1223 202.327 50.2456C203.497 52.3687 205.404 53.4302 208.047 53.4302C210.69 53.4301 212.576 52.3689 213.702 50.2456C214.829 48.1223 215.392 44.3949 215.392 39.0649C215.392 33.6923 214.829 29.9442 213.702 27.8208C212.575 25.6541 210.668 24.5708 207.981 24.5708ZM243.054 24.5708C240.41 24.5708 238.504 25.6542 237.334 27.8208C236.207 29.9874 235.644 33.7354 235.644 39.0649C235.644 44.3949 236.228 48.1223 237.398 50.2456C238.568 52.3689 240.476 53.4302 243.119 53.4302C245.762 53.4301 247.647 52.3686 248.773 50.2456C249.9 48.1223 250.464 44.3949 250.464 39.0649C250.464 33.692 249.9 29.9441 248.773 27.8208C247.647 25.6541 245.74 24.5708 243.054 24.5708Z" fill="#FFE344"/>
<path d="M264.881 43.5V34.5H266.843V43.5H264.881ZM264.881 32.97V30.9H266.843V32.97H264.881ZM270.825 43.5H268.863V34.5H270.807V35.058C271.683 34.554 272.511 34.302 273.291 34.302C274.491 34.302 275.307 34.644 275.739 35.328C276.183 36 276.405 37.116 276.405 38.676V43.5H274.461V38.73C274.461 37.758 274.353 37.068 274.137 36.66C273.933 36.252 273.507 36.048 272.859 36.048C272.247 36.048 271.659 36.168 271.095 36.408L270.825 36.516V43.5ZM288.332 41.88L288.836 41.826L288.872 43.284C287.504 43.56 286.292 43.698 285.236 43.698C283.904 43.698 282.944 43.332 282.356 42.6C281.78 41.868 281.492 40.698 281.492 39.09C281.492 35.898 282.794 34.302 285.398 34.302C287.918 34.302 289.178 35.676 289.178 38.424L289.052 39.828H283.472C283.484 40.572 283.646 41.118 283.958 41.466C284.27 41.814 284.852 41.988 285.704 41.988C286.556 41.988 287.432 41.952 288.332 41.88ZM287.252 38.316C287.252 37.428 287.108 36.81 286.82 36.462C286.544 36.102 286.07 35.922 285.398 35.922C284.726 35.922 284.234 36.108 283.922 36.48C283.622 36.852 283.466 37.464 283.454 38.316H287.252ZM292.667 43.5H290.705V34.5H292.649V35.058C293.525 34.554 294.353 34.302 295.133 34.302C296.333 34.302 297.149 34.644 297.581 35.328C298.025 36 298.247 37.116 298.247 38.676V43.5H296.303V38.73C296.303 37.758 296.195 37.068 295.979 36.66C295.775 36.252 295.349 36.048 294.701 36.048C294.089 36.048 293.501 36.168 292.937 36.408L292.667 36.516V43.5ZM306.579 41.88L307.083 41.826L307.119 43.284C305.751 43.56 304.539 43.698 303.483 43.698C302.151 43.698 301.191 43.332 300.603 42.6C300.027 41.868 299.739 40.698 299.739 39.09C299.739 35.898 301.041 34.302 303.645 34.302C306.165 34.302 307.425 35.676 307.425 38.424L307.299 39.828H301.719C301.731 40.572 301.893 41.118 302.205 41.466C302.517 41.814 303.099 41.988 303.951 41.988C304.803 41.988 305.679 41.952 306.579 41.88ZM305.499 38.316C305.499 37.428 305.355 36.81 305.067 36.462C304.791 36.102 304.317 35.922 303.645 35.922C302.973 35.922 302.481 36.108 302.169 36.48C301.869 36.852 301.713 37.464 301.701 38.316H305.499ZM308.952 43.5V34.5H310.896V35.58C311.916 34.92 312.936 34.494 313.956 34.302V36.264C312.924 36.468 312.042 36.732 311.31 37.056L310.914 37.218V43.5H308.952ZM322.909 44.724C322.909 46.692 321.487 47.676 318.643 47.676C317.275 47.676 316.261 47.49 315.601 47.118C314.941 46.746 314.611 46.068 314.611 45.084C314.611 44.64 314.719 44.256 314.935 43.932C315.151 43.62 315.499 43.278 315.979 42.906C315.583 42.642 315.385 42.204 315.385 41.592C315.385 41.352 315.547 40.962 315.871 40.422L316.033 40.152C315.169 39.636 314.737 38.736 314.737 37.452C314.737 36.372 315.061 35.58 315.709 35.076C316.357 34.572 317.233 34.32 318.337 34.32C318.865 34.32 319.387 34.38 319.903 34.5L320.173 34.554L322.963 34.482V36.066L321.469 35.976C321.793 36.396 321.955 36.888 321.955 37.452C321.955 38.628 321.655 39.444 321.055 39.9C320.467 40.344 319.543 40.566 318.283 40.566C317.971 40.566 317.707 40.542 317.491 40.494C317.323 40.902 317.239 41.22 317.239 41.448C317.239 41.664 317.347 41.814 317.563 41.898C317.791 41.982 318.331 42.03 319.183 42.042C320.611 42.054 321.589 42.246 322.117 42.618C322.645 42.99 322.909 43.692 322.909 44.724ZM316.537 44.904C316.537 45.324 316.705 45.624 317.041 45.804C317.377 45.984 317.953 46.074 318.769 46.074C320.221 46.074 320.947 45.66 320.947 44.832C320.947 44.364 320.815 44.064 320.551 43.932C320.299 43.812 319.789 43.746 319.021 43.734L317.257 43.626C316.993 43.842 316.807 44.04 316.699 44.22C316.591 44.412 316.537 44.64 316.537 44.904ZM316.681 37.452C316.681 38.004 316.813 38.412 317.077 38.676C317.341 38.928 317.767 39.054 318.355 39.054C318.943 39.054 319.363 38.928 319.615 38.676C319.879 38.412 320.011 38.004 320.011 37.452C320.011 36.9 319.879 36.498 319.615 36.246C319.351 35.982 318.925 35.85 318.337 35.85C317.233 35.85 316.681 36.384 316.681 37.452ZM323.312 34.5H325.238L327.146 41.826H327.632L329.54 34.5H331.484L328.064 47.37H326.138L327.218 43.5H325.67L323.312 34.5ZM340.428 34.302C341.664 34.302 342.552 34.65 343.092 35.346C343.644 36.03 343.92 37.248 343.92 39C343.92 40.752 343.596 41.976 342.948 42.672C342.3 43.356 341.16 43.698 339.528 43.698C338.964 43.698 338.07 43.644 336.846 43.536L336.234 43.482V30.756H338.178V34.842C339.006 34.482 339.756 34.302 340.428 34.302ZM339.528 41.952C340.488 41.952 341.124 41.73 341.436 41.286C341.76 40.83 341.922 40.062 341.922 38.982C341.922 37.902 341.784 37.146 341.508 36.714C341.244 36.27 340.806 36.048 340.194 36.048C339.618 36.048 339.042 36.138 338.466 36.318L338.178 36.408V41.88C338.838 41.928 339.288 41.952 339.528 41.952ZM345.525 43.5V34.5H347.487V43.5H345.525ZM345.525 32.97V30.9H347.487V32.97H345.525ZM349.615 43.5V30.756H351.577V43.5H349.615ZM353.807 43.5V30.756H355.769V43.5H353.807ZM364.853 34.302C365.489 34.302 366.239 34.386 367.103 34.554L367.553 34.644L367.481 36.192C366.533 36.096 365.831 36.048 365.375 36.048C364.463 36.048 363.851 36.252 363.539 36.66C363.227 37.068 363.071 37.836 363.071 38.964C363.071 40.092 363.221 40.872 363.521 41.304C363.821 41.736 364.445 41.952 365.393 41.952L367.499 41.808L367.553 43.374C366.341 43.59 365.429 43.698 364.817 43.698C363.449 43.698 362.483 43.332 361.919 42.6C361.367 41.856 361.091 40.644 361.091 38.964C361.091 37.284 361.385 36.09 361.973 35.382C362.561 34.662 363.521 34.302 364.853 34.302ZM369.09 43.5V34.5H371.034V35.58C372.054 34.92 373.074 34.494 374.094 34.302V36.264C373.062 36.468 372.18 36.732 371.448 37.056L371.052 37.218V43.5H369.09ZM381.572 41.88L382.076 41.826L382.112 43.284C380.744 43.56 379.532 43.698 378.476 43.698C377.144 43.698 376.184 43.332 375.596 42.6C375.02 41.868 374.732 40.698 374.732 39.09C374.732 35.898 376.034 34.302 378.638 34.302C381.158 34.302 382.418 35.676 382.418 38.424L382.292 39.828H376.712C376.724 40.572 376.886 41.118 377.198 41.466C377.51 41.814 378.092 41.988 378.944 41.988C379.796 41.988 380.672 41.952 381.572 41.88ZM380.492 38.316C380.492 37.428 380.348 36.81 380.06 36.462C379.784 36.102 379.31 35.922 378.638 35.922C377.966 35.922 377.474 36.108 377.162 36.48C376.862 36.852 376.706 37.464 376.694 38.316H380.492ZM391.288 30.756V43.5H389.344V43.032C388.468 43.476 387.664 43.698 386.932 43.698C385.756 43.698 384.892 43.344 384.34 42.636C383.8 41.928 383.53 40.74 383.53 39.072C383.53 37.404 383.83 36.192 384.43 35.436C385.042 34.68 385.99 34.302 387.274 34.302C387.706 34.302 388.39 34.38 389.326 34.536V30.756H391.288ZM389.02 41.628L389.326 41.502V36.174C388.606 36.054 387.94 35.994 387.328 35.994C386.116 35.994 385.51 37.002 385.51 39.018C385.51 40.122 385.648 40.89 385.924 41.322C386.212 41.742 386.662 41.952 387.274 41.952C387.886 41.952 388.468 41.844 389.02 41.628ZM393.305 43.5V34.5H395.267V43.5H393.305ZM393.305 32.97V30.9H395.267V32.97H393.305ZM402.129 36.174H399.645V40.134C399.645 40.866 399.699 41.352 399.807 41.592C399.915 41.832 400.191 41.952 400.635 41.952L402.111 41.898L402.201 43.464C401.397 43.62 400.785 43.698 400.365 43.698C399.345 43.698 398.643 43.464 398.259 42.996C397.887 42.528 397.701 41.646 397.701 40.35V36.174H396.549V34.5H397.701V31.89H399.645V34.5H402.129V36.174ZM409.624 36.354C408.208 36.162 407.182 36.066 406.546 36.066C405.91 36.066 405.466 36.144 405.214 36.3C404.974 36.444 404.854 36.678 404.854 37.002C404.854 37.326 404.986 37.554 405.25 37.686C405.526 37.818 406.162 37.974 407.158 38.154C408.166 38.322 408.88 38.592 409.3 38.964C409.72 39.336 409.93 39.996 409.93 40.944C409.93 41.892 409.624 42.588 409.012 43.032C408.412 43.476 407.53 43.698 406.366 43.698C405.634 43.698 404.71 43.596 403.594 43.392L403.036 43.302L403.108 41.664C404.548 41.856 405.586 41.952 406.222 41.952C406.858 41.952 407.308 41.874 407.572 41.718C407.848 41.562 407.986 41.304 407.986 40.944C407.986 40.584 407.854 40.338 407.59 40.206C407.338 40.062 406.72 39.912 405.736 39.756C404.764 39.588 404.05 39.33 403.594 38.982C403.138 38.634 402.91 37.998 402.91 37.074C402.91 36.15 403.222 35.46 403.846 35.004C404.482 34.548 405.292 34.32 406.276 34.32C407.044 34.32 407.986 34.416 409.102 34.608L409.66 34.716L409.624 36.354Z" fill="#FFE344"/>
<path d="M263.862 53.193V52.465H270.362V53.193H267.528V61.5H266.722V53.193H263.862ZM272.018 61.5H271.251V52.114H272.018V55.377C272.746 55.039 273.448 54.87 274.124 54.87C274.991 54.87 275.567 55.0997 275.853 55.559C276.148 56.0183 276.295 56.859 276.295 58.081V61.5H275.515V58.12C275.515 57.1233 275.42 56.4517 275.229 56.105C275.047 55.7497 274.644 55.572 274.02 55.572C273.717 55.572 273.396 55.611 273.058 55.689C272.729 55.7583 272.473 55.832 272.291 55.91L272.018 56.014V61.5ZM282.395 56.937V60.421C282.429 60.7417 282.711 60.9323 283.24 60.993L283.201 61.617C282.533 61.617 282.044 61.4437 281.732 61.097C280.917 61.4523 280.102 61.63 279.288 61.63C278.707 61.63 278.265 61.4653 277.962 61.136C277.658 60.798 277.507 60.3213 277.507 59.706C277.507 59.082 277.658 58.6227 277.962 58.328C278.274 58.0247 278.759 57.8383 279.418 57.769L281.628 57.548V56.937C281.628 56.4517 281.519 56.105 281.303 55.897C281.095 55.6803 280.813 55.572 280.458 55.572C279.903 55.572 279.184 55.624 278.3 55.728L277.897 55.767L277.858 55.143C278.811 54.961 279.643 54.87 280.354 54.87C281.073 54.87 281.593 55.039 281.914 55.377C282.234 55.715 282.395 56.235 282.395 56.937ZM278.313 59.654C278.313 60.5293 278.672 60.967 279.392 60.967C279.704 60.967 280.046 60.9323 280.419 60.863C280.791 60.785 281.086 60.707 281.303 60.629L281.628 60.512V58.159L279.509 58.38C279.084 58.4147 278.776 58.536 278.586 58.744C278.404 58.952 278.313 59.2553 278.313 59.654ZM287.439 55.689H285.268V58.9C285.268 59.7407 285.329 60.291 285.45 60.551C285.571 60.811 285.857 60.941 286.308 60.941L287.504 60.85L287.556 61.513C286.984 61.5997 286.546 61.643 286.243 61.643C285.584 61.643 285.125 61.4827 284.865 61.162C284.614 60.8327 284.488 60.2087 284.488 59.29V55.689H283.526V55H284.488V52.959H285.268V55H287.439V55.689ZM288.163 54.961L288.709 52.218H289.541L288.787 54.961H288.163ZM292.576 55.585C291.553 55.585 291.042 55.9533 291.042 56.69C291.042 57.028 291.154 57.2663 291.38 57.405C291.605 57.5437 292.112 57.6823 292.901 57.821C293.698 57.951 294.257 58.133 294.578 58.367C294.907 58.601 295.072 59.0517 295.072 59.719C295.072 60.3777 294.859 60.863 294.435 61.175C294.01 61.4783 293.386 61.63 292.563 61.63C292.086 61.63 291.471 61.5693 290.717 61.448L290.34 61.396L290.392 60.707C291.362 60.8543 292.108 60.928 292.628 60.928C293.148 60.928 293.551 60.837 293.837 60.655C294.131 60.473 294.279 60.1653 294.279 59.732C294.279 59.2987 294.157 59.0127 293.915 58.874C293.681 58.7267 293.169 58.5923 292.381 58.471C291.601 58.3497 291.05 58.1763 290.73 57.951C290.409 57.7257 290.249 57.301 290.249 56.677C290.249 56.053 290.47 55.598 290.912 55.312C291.354 55.026 291.9 54.883 292.55 54.883C293.07 54.883 293.72 54.9393 294.5 55.052L294.851 55.104L294.825 55.793C293.897 55.6543 293.148 55.585 292.576 55.585ZM304.374 58.991C304.374 59.9097 304.145 60.577 303.685 60.993C303.235 61.4003 302.567 61.604 301.683 61.604H301.462L301.267 63.099C300.877 63.073 300.682 63.0427 300.682 63.008L300.864 61.565L299.005 61.37L299.096 60.707C299.764 60.7937 300.383 60.8543 300.955 60.889L301.41 57.405C300.968 57.3183 300.609 57.2273 300.331 57.132C300.063 57.028 299.816 56.8893 299.59 56.716C299.157 56.3953 298.94 55.8363 298.94 55.039C298.94 53.5397 299.846 52.79 301.657 52.79C301.805 52.79 301.922 52.7943 302.008 52.803L302.216 51.165H302.801L302.58 52.842L304.179 53.024L304.127 53.687C303.538 53.6177 302.992 53.5613 302.489 53.518L302.073 56.781C302.897 56.9543 303.486 57.197 303.841 57.509C304.197 57.8123 304.374 58.3063 304.374 58.991ZM299.72 54.987C299.72 55.533 299.846 55.9143 300.097 56.131C300.357 56.3477 300.825 56.5253 301.501 56.664L301.917 53.479H301.709C300.383 53.479 299.72 53.9817 299.72 54.987ZM301.657 60.915C302.949 60.915 303.594 60.3387 303.594 59.186C303.594 58.6227 303.473 58.237 303.23 58.029C302.996 57.821 302.58 57.652 301.982 57.522L301.553 60.915H301.657ZM305.994 53.115C306.808 52.8983 307.671 52.79 308.581 52.79C309.499 52.79 310.162 52.9633 310.57 53.31C310.986 53.6567 311.194 54.2157 311.194 54.987C311.194 55.845 310.795 56.4733 309.998 56.872L309.842 56.95C310.37 57.1147 310.765 57.3443 311.025 57.639C311.285 57.9337 311.415 58.4147 311.415 59.082C311.415 59.94 311.189 60.5813 310.739 61.006C310.297 61.422 309.603 61.63 308.659 61.63C307.844 61.63 307.038 61.5433 306.241 61.37L305.851 61.292L305.929 60.616C306.856 60.8067 307.744 60.902 308.594 60.902C309.92 60.902 310.583 60.3083 310.583 59.121C310.583 58.0117 309.954 57.4267 308.698 57.366H306.956V56.664H308.685C309.075 56.664 309.452 56.5123 309.816 56.209C310.18 55.9057 310.362 55.494 310.362 54.974C310.362 54.454 310.219 54.0813 309.933 53.856C309.655 53.622 309.174 53.505 308.49 53.505C307.805 53.505 307.107 53.5743 306.397 53.713L306.072 53.778L305.994 53.115ZM312.969 54.584C313.22 53.8993 313.558 53.4313 313.983 53.18C314.416 52.92 314.932 52.79 315.53 52.79C316.137 52.79 316.622 52.8637 316.986 53.011C317.35 53.1497 317.666 53.388 317.935 53.726C318.472 54.3847 318.741 55.5503 318.741 57.223C318.741 58.887 318.481 60.0397 317.961 60.681C317.45 61.3137 316.683 61.63 315.66 61.63C314.637 61.63 313.87 61.318 313.359 60.694C312.848 60.0613 312.592 58.952 312.592 57.366C312.592 56.196 312.718 55.2687 312.969 54.584ZM316.934 53.83C316.622 53.6133 316.197 53.505 315.66 53.505C315.131 53.505 314.711 53.609 314.399 53.817C313.749 54.259 313.424 55.4463 313.424 57.379C313.424 58.7223 313.606 59.6453 313.97 60.148C314.334 60.6507 314.902 60.902 315.673 60.902C316.176 60.902 316.583 60.8067 316.895 60.616C317.571 60.2 317.909 59.1167 317.909 57.366C317.909 55.4593 317.584 54.2807 316.934 53.83ZM319.983 54.584C320.235 53.8993 320.573 53.4313 320.997 53.18C321.431 52.92 321.946 52.79 322.544 52.79C323.151 52.79 323.636 52.8637 324 53.011C324.364 53.1497 324.681 53.388 324.949 53.726C325.487 54.3847 325.755 55.5503 325.755 57.223C325.755 58.887 325.495 60.0397 324.975 60.681C324.464 61.3137 323.697 61.63 322.674 61.63C321.652 61.63 320.885 61.318 320.373 60.694C319.862 60.0613 319.606 58.952 319.606 57.366C319.606 56.196 319.732 55.2687 319.983 54.584ZM323.948 53.83C323.636 53.6133 323.212 53.505 322.674 53.505C322.146 53.505 321.725 53.609 321.413 53.817C320.763 54.259 320.438 55.4463 320.438 57.379C320.438 58.7223 320.62 59.6453 320.984 60.148C321.348 60.6507 321.916 60.902 322.687 60.902C323.19 60.902 323.597 60.8067 323.909 60.616C324.585 60.2 324.923 59.1167 324.923 57.366C324.923 55.4593 324.598 54.2807 323.948 53.83ZM330.673 55.689V61.5H329.893V55.689H329.048V55H329.893V54.337C329.893 53.4183 330.019 52.7987 330.27 52.478C330.522 52.1487 330.968 51.984 331.609 51.984L332.87 52.049V52.712C332.359 52.6947 331.978 52.686 331.726 52.686C331.319 52.686 331.042 52.7987 330.894 53.024C330.747 53.2493 330.673 53.6913 330.673 54.35V55H332.636V55.689H330.673ZM333.188 58.237C333.188 57.015 333.392 56.1483 333.799 55.637C334.215 55.1257 334.917 54.87 335.905 54.87C336.902 54.87 337.604 55.1257 338.011 55.637C338.427 56.1483 338.635 57.015 338.635 58.237C338.635 59.459 338.445 60.33 338.063 60.85C337.691 61.37 336.976 61.63 335.918 61.63C334.861 61.63 334.142 61.37 333.76 60.85C333.379 60.33 333.188 59.459 333.188 58.237ZM333.994 58.224C333.994 59.2467 334.111 59.9573 334.345 60.356C334.588 60.746 335.108 60.941 335.905 60.941C336.711 60.941 337.236 60.7417 337.478 60.343C337.721 59.9443 337.842 59.238 337.842 58.224C337.842 57.2013 337.704 56.5037 337.426 56.131C337.158 55.7497 336.655 55.559 335.918 55.559C335.182 55.559 334.675 55.7453 334.397 56.118C334.129 56.4907 333.994 57.1927 333.994 58.224ZM340.057 61.5V55H340.824V55.936C341.144 55.7107 341.534 55.494 341.994 55.286C342.462 55.078 342.891 54.9393 343.281 54.87V55.65C342.908 55.728 342.518 55.8493 342.111 56.014C341.703 56.17 341.387 56.3087 341.162 56.43L340.824 56.625V61.5H340.057ZM351.101 60.85L351.491 60.811L351.517 61.448C350.538 61.5693 349.71 61.63 349.034 61.63C348.098 61.6213 347.444 61.344 347.071 60.798C346.699 60.252 346.512 59.4113 346.512 58.276C346.512 56.0053 347.405 54.87 349.19 54.87C350.048 54.87 350.69 55.117 351.114 55.611C351.539 56.0963 351.751 56.8763 351.751 57.951L351.725 58.575H347.305C347.305 59.3723 347.44 59.966 347.708 60.356C347.986 60.7373 348.454 60.928 349.112 60.928C349.78 60.928 350.443 60.902 351.101 60.85ZM347.305 57.925H350.971C350.971 57.067 350.828 56.456 350.542 56.092C350.265 55.728 349.814 55.546 349.19 55.546C348.575 55.546 348.107 55.7367 347.786 56.118C347.466 56.4907 347.305 57.093 347.305 57.925ZM353.167 61.5V52.114H353.934V61.5H353.167ZM360.001 60.85L360.391 60.811L360.417 61.448C359.438 61.5693 358.61 61.63 357.934 61.63C356.998 61.6213 356.344 61.344 355.971 60.798C355.599 60.252 355.412 59.4113 355.412 58.276C355.412 56.0053 356.305 54.87 358.09 54.87C358.948 54.87 359.59 55.117 360.014 55.611C360.439 56.0963 360.651 56.8763 360.651 57.951L360.625 58.575H356.205C356.205 59.3723 356.34 59.966 356.608 60.356C356.886 60.7373 357.354 60.928 358.012 60.928C358.68 60.928 359.343 60.902 360.001 60.85ZM356.205 57.925H359.871C359.871 57.067 359.728 56.456 359.442 56.092C359.165 55.728 358.714 55.546 358.09 55.546C357.475 55.546 357.007 55.7367 356.686 56.118C356.366 56.4907 356.205 57.093 356.205 57.925ZM364.407 54.87C364.797 54.87 365.261 54.9133 365.798 55L366.097 55.039L366.058 55.702C365.373 55.6153 364.866 55.572 364.537 55.572C363.766 55.572 363.237 55.7627 362.951 56.144C362.665 56.5167 362.522 57.21 362.522 58.224C362.522 59.2293 362.652 59.9313 362.912 60.33C363.172 60.7287 363.714 60.928 364.537 60.928L366.084 60.811L366.11 61.474C365.339 61.578 364.767 61.63 364.394 61.63C363.363 61.63 362.656 61.3743 362.275 60.863C361.902 60.3517 361.716 59.472 361.716 58.224C361.716 56.976 361.92 56.105 362.327 55.611C362.743 55.117 363.436 54.87 364.407 54.87ZM370.642 55.689H368.471V58.9C368.471 59.7407 368.532 60.291 368.653 60.551C368.774 60.811 369.06 60.941 369.511 60.941L370.707 60.85L370.759 61.513C370.187 61.5997 369.749 61.643 369.446 61.643C368.787 61.643 368.328 61.4827 368.068 61.162C367.817 60.8327 367.691 60.2087 367.691 59.29V55.689H366.729V55H367.691V52.959H368.471V55H370.642V55.689ZM371.6 61.5V55H372.367V55.936C372.688 55.7107 373.078 55.494 373.537 55.286C374.005 55.078 374.434 54.9393 374.824 54.87V55.65C374.451 55.728 374.061 55.8493 373.654 56.014C373.247 56.17 372.93 56.3087 372.705 56.43L372.367 56.625V61.5H371.6ZM375.745 61.5V55H376.512V61.5H375.745ZM375.745 53.375V52.4H376.512V53.375H375.745ZM380.62 54.87C381.01 54.87 381.474 54.9133 382.011 55L382.31 55.039L382.271 55.702C381.586 55.6153 381.079 55.572 380.75 55.572C379.979 55.572 379.45 55.7627 379.164 56.144C378.878 56.5167 378.735 57.21 378.735 58.224C378.735 59.2293 378.865 59.9313 379.125 60.33C379.385 60.7287 379.927 60.928 380.75 60.928L382.297 60.811L382.323 61.474C381.552 61.578 380.98 61.63 380.607 61.63C379.576 61.63 378.869 61.3743 378.488 60.863C378.115 60.3517 377.929 59.472 377.929 58.224C377.929 56.976 378.133 56.105 378.54 55.611C378.956 55.117 379.649 54.87 380.62 54.87ZM383.566 61.5V55H384.333V61.5H383.566ZM383.566 53.375V52.4H384.333V53.375H383.566ZM389.312 55.689H387.141V58.9C387.141 59.7407 387.202 60.291 387.323 60.551C387.444 60.811 387.73 60.941 388.181 60.941L389.377 60.85L389.429 61.513C388.857 61.5997 388.419 61.643 388.116 61.643C387.457 61.643 386.998 61.4827 386.738 61.162C386.487 60.8327 386.361 60.2087 386.361 59.29V55.689H385.399V55H386.361V52.959H387.141V55H389.312V55.689ZM389.646 55H390.439L392.168 60.824H392.636L394.378 55H395.171L392.363 64.425H391.583L392.454 61.5H391.557L389.646 55ZM403.286 56.937V60.421C403.321 60.7417 403.602 60.9323 404.131 60.993L404.092 61.617C403.425 61.617 402.935 61.4437 402.623 61.097C401.808 61.4523 400.994 61.63 400.179 61.63C399.598 61.63 399.156 61.4653 398.853 61.136C398.55 60.798 398.398 60.3213 398.398 59.706C398.398 59.082 398.55 58.6227 398.853 58.328C399.165 58.0247 399.65 57.8383 400.309 57.769L402.519 57.548V56.937C402.519 56.4517 402.411 56.105 402.194 55.897C401.986 55.6803 401.704 55.572 401.349 55.572C400.794 55.572 400.075 55.624 399.191 55.728L398.788 55.767L398.749 55.143C399.702 54.961 400.534 54.87 401.245 54.87C401.964 54.87 402.484 55.039 402.805 55.377C403.126 55.715 403.286 56.235 403.286 56.937ZM399.204 59.654C399.204 60.5293 399.564 60.967 400.283 60.967C400.595 60.967 400.937 60.9323 401.31 60.863C401.683 60.785 401.977 60.707 402.194 60.629L402.519 60.512V58.159L400.4 58.38C399.975 58.4147 399.668 58.536 399.477 58.744C399.295 58.952 399.204 59.2553 399.204 59.654ZM405.808 61.5H405.041V55H405.808V55.481C406.536 55.0737 407.243 54.87 407.927 54.87C408.794 54.87 409.37 55.0997 409.656 55.559C409.951 56.0183 410.098 56.859 410.098 58.081V61.5H409.318V58.12C409.318 57.1233 409.223 56.4517 409.032 56.105C408.842 55.7497 408.434 55.572 407.81 55.572C407.507 55.572 407.186 55.6197 406.848 55.715C406.519 55.8017 406.263 55.8927 406.081 55.988L405.808 56.118V61.5ZM416.575 52.114V61.5H415.795V61.019C415.11 61.4263 414.417 61.63 413.715 61.63C413.394 61.63 413.117 61.591 412.883 61.513C412.649 61.4437 412.411 61.3007 412.168 61.084C411.674 60.642 411.427 59.7797 411.427 58.497C411.427 57.2057 411.635 56.2783 412.051 55.715C412.467 55.1517 413.169 54.87 414.157 54.87C414.538 54.87 415.084 54.9263 415.795 55.039V52.114H416.575ZM412.74 60.499C412.905 60.6637 413.065 60.7763 413.221 60.837C413.386 60.8977 413.594 60.928 413.845 60.928C414.105 60.928 414.4 60.8803 414.729 60.785C415.067 60.6897 415.331 60.5987 415.522 60.512L415.795 60.369V55.715C415.102 55.611 414.564 55.559 414.183 55.559C413.446 55.559 412.935 55.7843 412.649 56.235C412.372 56.6857 412.233 57.3833 412.233 58.328C412.233 59.4373 412.402 60.161 412.74 60.499ZM426.249 58.991C426.249 59.9097 426.02 60.577 425.56 60.993C425.11 61.4003 424.442 61.604 423.558 61.604H423.337L423.142 63.099C422.752 63.073 422.557 63.0427 422.557 63.008L422.739 61.565L420.88 61.37L420.971 60.707C421.639 60.7937 422.258 60.8543 422.83 60.889L423.285 57.405C422.843 57.3183 422.484 57.2273 422.206 57.132C421.938 57.028 421.691 56.8893 421.465 56.716C421.032 56.3953 420.815 55.8363 420.815 55.039C420.815 53.5397 421.721 52.79 423.532 52.79C423.68 52.79 423.797 52.7943 423.883 52.803L424.091 51.165H424.676L424.455 52.842L426.054 53.024L426.002 53.687C425.413 53.6177 424.867 53.5613 424.364 53.518L423.948 56.781C424.772 56.9543 425.361 57.197 425.716 57.509C426.072 57.8123 426.249 58.3063 426.249 58.991ZM421.595 54.987C421.595 55.533 421.721 55.9143 421.972 56.131C422.232 56.3477 422.7 56.5253 423.376 56.664L423.792 53.479H423.584C422.258 53.479 421.595 53.9817 421.595 54.987ZM423.532 60.915C424.824 60.915 425.469 60.3387 425.469 59.186C425.469 58.6227 425.348 58.237 425.105 58.029C424.871 57.821 424.455 57.652 423.857 57.522L423.428 60.915H423.532ZM433.277 61.5H427.804V60.824L430.482 57.99C430.915 57.5307 431.227 57.1883 431.418 56.963C431.617 56.729 431.795 56.4473 431.951 56.118C432.115 55.7887 432.198 55.455 432.198 55.117C432.198 54.5363 432.033 54.1247 431.704 53.882C431.383 53.6393 430.885 53.518 430.209 53.518C429.637 53.518 429 53.596 428.298 53.752L427.947 53.83L427.882 53.141C428.696 52.907 429.533 52.79 430.391 52.79C431.257 52.79 431.912 52.972 432.354 53.336C432.804 53.6913 433.03 54.2633 433.03 55.052C433.03 55.65 432.895 56.17 432.627 56.612C432.358 57.054 431.907 57.5913 431.275 58.224L428.779 60.798H433.277V61.5ZM434.844 54.584C435.095 53.8993 435.433 53.4313 435.858 53.18C436.291 52.92 436.807 52.79 437.405 52.79C438.012 52.79 438.497 52.8637 438.861 53.011C439.225 53.1497 439.541 53.388 439.81 53.726C440.347 54.3847 440.616 55.5503 440.616 57.223C440.616 58.887 440.356 60.0397 439.836 60.681C439.325 61.3137 438.558 61.63 437.535 61.63C436.512 61.63 435.745 61.318 435.234 60.694C434.723 60.0613 434.467 58.952 434.467 57.366C434.467 56.196 434.593 55.2687 434.844 54.584ZM438.809 53.83C438.497 53.6133 438.072 53.505 437.535 53.505C437.006 53.505 436.586 53.609 436.274 53.817C435.624 54.259 435.299 55.4463 435.299 57.379C435.299 58.7223 435.481 59.6453 435.845 60.148C436.209 60.6507 436.777 60.902 437.548 60.902C438.051 60.902 438.458 60.8067 438.77 60.616C439.446 60.2 439.784 59.1167 439.784 57.366C439.784 55.4593 439.459 54.2807 438.809 53.83ZM441.858 54.584C442.11 53.8993 442.448 53.4313 442.872 53.18C443.306 52.92 443.821 52.79 444.419 52.79C445.026 52.79 445.511 52.8637 445.875 53.011C446.239 53.1497 446.556 53.388 446.824 53.726C447.362 54.3847 447.63 55.5503 447.63 57.223C447.63 58.887 447.37 60.0397 446.85 60.681C446.339 61.3137 445.572 61.63 444.549 61.63C443.527 61.63 442.76 61.318 442.248 60.694C441.737 60.0613 441.481 58.952 441.481 57.366C441.481 56.196 441.607 55.2687 441.858 54.584ZM445.823 53.83C445.511 53.6133 445.087 53.505 444.549 53.505C444.021 53.505 443.6 53.609 443.288 53.817C442.638 54.259 442.313 55.4463 442.313 57.379C442.313 58.7223 442.495 59.6453 442.859 60.148C443.223 60.6507 443.791 60.902 444.562 60.902C445.065 60.902 445.472 60.8067 445.784 60.616C446.46 60.2 446.798 59.1167 446.798 57.366C446.798 55.4593 446.473 54.2807 445.823 53.83ZM452.548 55.689V61.5H451.768V55.689H450.923V55H451.768V54.337C451.768 53.4183 451.894 52.7987 452.145 52.478C452.397 52.1487 452.843 51.984 453.484 51.984L454.745 52.049V52.712C454.234 52.6947 453.853 52.686 453.601 52.686C453.194 52.686 452.917 52.7987 452.769 53.024C452.622 53.2493 452.548 53.6913 452.548 54.35V55H454.511V55.689H452.548ZM455.063 58.237C455.063 57.015 455.267 56.1483 455.674 55.637C456.09 55.1257 456.792 54.87 457.78 54.87C458.777 54.87 459.479 55.1257 459.886 55.637C460.302 56.1483 460.51 57.015 460.51 58.237C460.51 59.459 460.32 60.33 459.938 60.85C459.566 61.37 458.851 61.63 457.793 61.63C456.736 61.63 456.017 61.37 455.635 60.85C455.254 60.33 455.063 59.459 455.063 58.237ZM455.869 58.224C455.869 59.2467 455.986 59.9573 456.22 60.356C456.463 60.746 456.983 60.941 457.78 60.941C458.586 60.941 459.111 60.7417 459.353 60.343C459.596 59.9443 459.717 59.238 459.717 58.224C459.717 57.2013 459.579 56.5037 459.301 56.131C459.033 55.7497 458.53 55.559 457.793 55.559C457.057 55.559 456.55 55.7453 456.272 56.118C456.004 56.4907 455.869 57.1927 455.869 58.224ZM461.932 61.5V55H462.699V55.936C463.019 55.7107 463.409 55.494 463.869 55.286C464.337 55.078 464.766 54.9393 465.156 54.87V55.65C464.783 55.728 464.393 55.8493 463.986 56.014C463.578 56.17 463.262 56.3087 463.037 56.43L462.699 56.625V61.5H461.932ZM473.938 62.488C473.938 63.2247 473.7 63.7577 473.223 64.087C472.755 64.4163 472.023 64.581 471.026 64.581C470.03 64.581 469.341 64.438 468.959 64.152C468.578 63.866 468.387 63.3417 468.387 62.579C468.387 62.215 468.465 61.9203 468.621 61.695C468.777 61.4783 469.05 61.227 469.44 60.941C469.224 60.8023 469.115 60.5077 469.115 60.057C469.115 59.9183 469.219 59.6453 469.427 59.238L469.531 59.043C468.821 58.7483 468.465 58.094 468.465 57.08C468.465 55.6067 469.25 54.87 470.818 54.87C471.26 54.87 471.65 54.9133 471.988 55L472.183 55.039L474.068 55V55.689L472.768 55.663C473.08 55.975 473.236 56.4907 473.236 57.21C473.236 57.9207 473.037 58.4407 472.638 58.77C472.248 59.0907 471.629 59.251 470.779 59.251C470.528 59.251 470.307 59.2337 470.116 59.199C469.943 59.6237 469.856 59.8923 469.856 60.005C469.856 60.291 469.939 60.4687 470.103 60.538C470.277 60.5987 470.784 60.6333 471.624 60.642C472.465 60.642 473.059 60.7677 473.405 61.019C473.761 61.2617 473.938 61.7513 473.938 62.488ZM469.167 62.527C469.167 63.047 469.297 63.4067 469.557 63.606C469.817 63.8053 470.32 63.905 471.065 63.905C471.811 63.905 472.344 63.7967 472.664 63.58C472.985 63.372 473.145 63.0167 473.145 62.514C473.145 62.02 473.028 61.6993 472.794 61.552C472.56 61.4047 472.114 61.331 471.455 61.331L469.986 61.279C469.666 61.5043 469.449 61.6993 469.336 61.864C469.224 62.0373 469.167 62.2583 469.167 62.527ZM469.258 57.08C469.258 57.6347 469.38 58.029 469.622 58.263C469.865 58.4883 470.272 58.601 470.844 58.601C471.425 58.601 471.837 58.4883 472.079 58.263C472.322 58.0377 472.443 57.6433 472.443 57.08C472.443 56.508 472.322 56.105 472.079 55.871C471.837 55.637 471.425 55.52 470.844 55.52C470.272 55.52 469.865 55.6413 469.622 55.884C469.38 56.118 469.258 56.5167 469.258 57.08ZM479.5 56.937V60.421C479.534 60.7417 479.816 60.9323 480.345 60.993L480.306 61.617C479.638 61.617 479.149 61.4437 478.837 61.097C478.022 61.4523 477.207 61.63 476.393 61.63C475.812 61.63 475.37 61.4653 475.067 61.136C474.763 60.798 474.612 60.3213 474.612 59.706C474.612 59.082 474.763 58.6227 475.067 58.328C475.379 58.0247 475.864 57.8383 476.523 57.769L478.733 57.548V56.937C478.733 56.4517 478.624 56.105 478.408 55.897C478.2 55.6803 477.918 55.572 477.563 55.572C477.008 55.572 476.289 55.624 475.405 55.728L475.002 55.767L474.963 55.143C475.916 54.961 476.748 54.87 477.459 54.87C478.178 54.87 478.698 55.039 479.019 55.377C479.339 55.715 479.5 56.235 479.5 56.937ZM475.418 59.654C475.418 60.5293 475.777 60.967 476.497 60.967C476.809 60.967 477.151 60.9323 477.524 60.863C477.896 60.785 478.191 60.707 478.408 60.629L478.733 60.512V58.159L476.614 58.38C476.189 58.4147 475.881 58.536 475.691 58.744C475.509 58.952 475.418 59.2553 475.418 59.654ZM483.218 55.585C482.195 55.585 481.684 55.9533 481.684 56.69C481.684 57.028 481.797 57.2663 482.022 57.405C482.247 57.5437 482.754 57.6823 483.543 57.821C484.34 57.951 484.899 58.133 485.22 58.367C485.549 58.601 485.714 59.0517 485.714 59.719C485.714 60.3777 485.502 60.863 485.077 61.175C484.652 61.4783 484.028 61.63 483.205 61.63C482.728 61.63 482.113 61.5693 481.359 61.448L480.982 61.396L481.034 60.707C482.005 60.8543 482.75 60.928 483.27 60.928C483.79 60.928 484.193 60.837 484.479 60.655C484.774 60.473 484.921 60.1653 484.921 59.732C484.921 59.2987 484.8 59.0127 484.557 58.874C484.323 58.7267 483.812 58.5923 483.023 58.471C482.243 58.3497 481.693 58.1763 481.372 57.951C481.051 57.7257 480.891 57.301 480.891 56.677C480.891 56.053 481.112 55.598 481.554 55.312C481.996 55.026 482.542 54.883 483.192 54.883C483.712 54.883 484.362 54.9393 485.142 55.052L485.493 55.104L485.467 55.793C484.54 55.6543 483.79 55.585 483.218 55.585ZM488.928 53.4908H487.883L488.203 54.4814L487.875 54.5828L487.548 53.5844L486.705 54.2006L486.503 53.9276L487.353 53.3114L486.51 52.6952L486.721 52.4144L487.563 53.0306L487.883 52.04L488.219 52.1492L487.899 53.1476H488.928V53.4908Z" fill="white"/>
</svg>
