<svg width="166" height="24" viewBox="0 0 166 24" fill="none" xmlns="http://www.w3.org/2000/svg">
<path d="M0.656 22.117V5.971H3.439V7.903C4.106 6.753 5.601 5.718 7.372 5.718C10.385 5.718 12.708 7.949 12.708 11.836V12.02C12.708 15.884 10.477 18.23 7.372 18.23C5.463 18.23 4.083 17.287 3.439 16.114V22.117H0.656ZM6.682 16.022C8.729 16.022 9.856 14.642 9.856 12.066V11.882C9.856 9.214 8.476 7.903 6.659 7.903C4.727 7.903 3.347 9.214 3.347 11.882V12.066C3.347 14.757 4.658 16.022 6.682 16.022ZM17.9017 18.23C15.6937 18.23 13.8767 17.172 13.8767 14.665C13.8767 11.859 16.5907 10.847 20.0407 10.847H21.5357V10.226C21.5357 8.616 20.9837 7.811 19.3507 7.811C17.9017 7.811 17.1887 8.501 17.0507 9.697H14.3597C14.5897 6.891 16.8207 5.718 19.5117 5.718C22.2027 5.718 24.3187 6.822 24.3187 10.111V18H21.5817V16.528C20.7997 17.563 19.7417 18.23 17.9017 18.23ZM18.5687 16.229C20.2707 16.229 21.5357 15.332 21.5357 13.791V12.595H20.1097C17.9937 12.595 16.6367 13.078 16.6367 14.55C16.6367 15.562 17.1887 16.229 18.5687 16.229ZM27.0485 18V5.971H29.8315V8.225C30.5905 6.707 31.7175 5.81 33.7415 5.787V8.386C31.3035 8.409 29.8315 9.191 29.8315 11.744V18H27.0485ZM38.6565 18.23C36.4485 18.23 34.6315 17.172 34.6315 14.665C34.6315 11.859 37.3455 10.847 40.7955 10.847H42.2905V10.226C42.2905 8.616 41.7385 7.811 40.1055 7.811C38.6565 7.811 37.9435 8.501 37.8055 9.697H35.1145C35.3445 6.891 37.5755 5.718 40.2665 5.718C42.9575 5.718 45.0735 6.822 45.0735 10.111V18H42.3365V16.528C41.5545 17.563 40.4965 18.23 38.6565 18.23ZM39.3235 16.229C41.0255 16.229 42.2905 15.332 42.2905 13.791V12.595H40.8645C38.7485 12.595 37.3915 13.078 37.3915 14.55C37.3915 15.562 37.9435 16.229 39.3235 16.229ZM55.9748 18.23C53.7668 18.23 51.9498 17.172 51.9498 14.665C51.9498 11.859 54.6638 10.847 58.1138 10.847H59.6088V10.226C59.6088 8.616 59.0568 7.811 57.4238 7.811C55.9748 7.811 55.2618 8.501 55.1238 9.697H52.4328C52.6628 6.891 54.8938 5.718 57.5848 5.718C60.2758 5.718 62.3918 6.822 62.3918 10.111V18H59.6548V16.528C58.8728 17.563 57.8148 18.23 55.9748 18.23ZM56.6418 16.229C58.3438 16.229 59.6088 15.332 59.6088 13.791V12.595H58.1828C56.0668 12.595 54.7098 13.078 54.7098 14.55C54.7098 15.562 55.2618 16.229 56.6418 16.229ZM74.2361 18.207C71.8441 18.207 70.6021 16.919 70.6021 14.642V8.064H68.9921V5.971H70.6021V3.326H73.3851V5.971H76.0301V8.064H73.3851V14.389C73.3851 15.447 73.8911 15.93 74.7651 15.93C75.3171 15.93 75.7311 15.861 76.1221 15.7V17.908C75.6851 18.069 75.0871 18.207 74.2361 18.207ZM78.1723 18V5.971H80.9553V8.225C81.7143 6.707 82.8413 5.81 84.8653 5.787V8.386C82.4273 8.409 80.9553 9.191 80.9553 11.744V18H78.1723ZM89.7803 18.23C87.5723 18.23 85.7553 17.172 85.7553 14.665C85.7553 11.859 88.4693 10.847 91.9193 10.847H93.4143V10.226C93.4143 8.616 92.8623 7.811 91.2293 7.811C89.7803 7.811 89.0673 8.501 88.9293 9.697H86.2383C86.4683 6.891 88.6993 5.718 91.3903 5.718C94.0813 5.718 96.1973 6.822 96.1973 10.111V18H93.4603V16.528C92.6783 17.563 91.6203 18.23 89.7803 18.23ZM90.4473 16.229C92.1493 16.229 93.4143 15.332 93.4143 13.791V12.595H91.9883C89.8723 12.595 88.5153 13.078 88.5153 14.55C88.5153 15.562 89.0673 16.229 90.4473 16.229ZM98.9271 18V5.971H101.71V7.88C102.285 6.707 103.619 5.718 105.597 5.718C108.012 5.718 109.714 7.121 109.714 10.433V18H106.931V10.686C106.931 8.869 106.195 8.041 104.539 8.041C102.975 8.041 101.71 9.007 101.71 10.916V18H98.9271ZM116.577 18.23C113.472 18.23 111.655 16.804 111.54 14.251H114.162C114.3 15.47 114.921 16.183 116.554 16.183C118.049 16.183 118.716 15.654 118.716 14.642C118.716 13.653 117.911 13.285 116.14 12.986C112.966 12.48 111.793 11.583 111.793 9.329C111.793 6.914 114.047 5.718 116.301 5.718C118.762 5.718 120.717 6.638 121.016 9.352H118.44C118.21 8.248 117.589 7.742 116.301 7.742C115.105 7.742 114.392 8.317 114.392 9.168C114.392 10.042 114.967 10.387 116.876 10.709C119.705 11.146 121.384 11.836 121.384 14.389C121.384 16.827 119.659 18.23 116.577 18.23ZM123.434 18V5.971H126.217V18H123.434ZM124.791 3.993C123.871 3.993 123.135 3.303 123.135 2.406C123.135 1.486 123.871 0.795999 124.791 0.795999C125.711 0.795999 126.447 1.486 126.447 2.406C126.447 3.303 125.711 3.993 124.791 3.993ZM134.003 23.037C132.554 23.037 131.611 22.255 131.473 21.013H132.991C133.06 21.404 133.359 21.772 133.911 21.772C134.44 21.772 134.762 21.45 134.762 20.99C134.762 20.553 134.44 20.254 133.957 20.254C133.635 20.254 133.405 20.369 133.267 20.461L132.485 19.725L133.405 18.161C130.461 17.77 128.345 15.608 128.345 12.135V11.951C128.345 8.133 131.059 5.718 134.417 5.718C137.085 5.718 139.592 6.914 139.914 10.226H137.223C136.993 8.616 135.935 7.949 134.463 7.949C132.554 7.949 131.197 9.421 131.197 11.905V12.089C131.197 14.711 132.485 16.091 134.532 16.091C136.004 16.091 137.269 15.217 137.43 13.515H139.983C139.776 16.183 137.821 18.092 134.739 18.23L134.21 19.15C135.36 19.012 136.51 19.61 136.51 21.059C136.51 22.347 135.429 23.037 134.003 23.037ZM145.07 18.23C142.862 18.23 141.045 17.172 141.045 14.665C141.045 11.859 143.759 10.847 147.209 10.847H148.704V10.226C148.704 8.616 148.152 7.811 146.519 7.811C145.07 7.811 144.357 8.501 144.219 9.697H141.528C141.758 6.891 143.989 5.718 146.68 5.718C149.371 5.718 151.487 6.822 151.487 10.111V18H148.75V16.528C147.968 17.563 146.91 18.23 145.07 18.23ZM145.737 16.229C147.439 16.229 148.704 15.332 148.704 13.791V12.595H147.278C145.162 12.595 143.805 13.078 143.805 14.55C143.805 15.562 144.357 16.229 145.737 16.229ZM148.014 4.062C146.91 4.062 146.128 3.142 145.461 3.142C145.047 3.142 144.702 3.533 144.61 4.062H142.885C143.069 2.13 144.058 1.049 145.346 1.049C146.404 1.049 147.209 1.946 147.922 1.946C148.336 1.946 148.658 1.578 148.75 1.026H150.475C150.291 2.958 149.279 4.062 148.014 4.062ZM159.599 16.068C161.669 16.068 162.911 14.527 162.911 12.066V11.905C162.911 9.421 161.669 7.903 159.599 7.903C157.529 7.903 156.264 9.398 156.264 11.882V12.066C156.264 14.527 157.483 16.068 159.599 16.068ZM159.576 18.23C156.034 18.23 153.412 15.769 153.412 12.112V11.928C153.412 8.202 156.057 5.718 159.599 5.718C163.118 5.718 165.763 8.179 165.763 11.859V12.043C165.763 15.792 163.118 18.23 159.576 18.23Z" fill="black"/>
</svg>
