<svg width="119" height="23" viewBox="0 0 119 23" fill="none" xmlns="http://www.w3.org/2000/svg">
<path d="M6.946 18.23C3.404 18.23 0.851 15.907 0.851 12.112V11.928C0.851 8.202 3.404 5.718 6.831 5.718C9.821 5.718 12.512 7.489 12.512 11.79V12.595H3.703C3.795 14.872 4.945 16.16 7.015 16.16C8.694 16.16 9.568 15.493 9.775 14.32H12.466C12.075 16.85 10.028 18.23 6.946 18.23ZM3.749 10.732H9.752C9.614 8.662 8.556 7.742 6.831 7.742C5.152 7.742 4.025 8.869 3.749 10.732ZM14.5378 18V5.971H17.3208V7.88C17.8958 6.707 19.2298 5.718 21.2078 5.718C23.6228 5.718 25.3248 7.121 25.3248 10.433V18H22.5418V10.686C22.5418 8.869 21.8058 8.041 20.1498 8.041C18.5858 8.041 17.3208 9.007 17.3208 10.916V18H14.5378ZM33.361 18.23C29.819 18.23 27.266 15.907 27.266 12.112V11.928C27.266 8.202 29.819 5.718 33.246 5.718C36.236 5.718 38.927 7.489 38.927 11.79V12.595H30.118C30.21 14.872 31.36 16.16 33.43 16.16C35.109 16.16 35.983 15.493 36.19 14.32H38.881C38.49 16.85 36.443 18.23 33.361 18.23ZM30.164 10.732H36.167C36.029 8.662 34.971 7.742 33.246 7.742C31.567 7.742 30.44 8.869 30.164 10.732ZM40.9528 18V5.971H43.7358V8.225C44.4948 6.707 45.6218 5.81 47.6458 5.787V8.386C45.2078 8.409 43.7358 9.191 43.7358 11.744V18H40.9528ZM54.5388 22.416C50.7668 22.416 49.0647 20.714 48.7427 18.414H51.5487C51.7788 19.61 52.6987 20.3 54.5157 20.3C56.6778 20.3 57.8738 19.219 57.8738 17.057V15.286C57.2068 16.436 55.7118 17.517 53.9408 17.517C50.9278 17.517 48.6047 15.263 48.6047 11.79V11.629C48.6047 8.248 50.9048 5.718 54.0098 5.718C55.9878 5.718 57.1838 6.615 57.8738 7.811V5.971H60.6568V17.103C60.6337 20.645 58.2648 22.416 54.5388 22.416ZM54.6308 15.378C56.5628 15.378 57.9658 13.998 57.9658 11.698V11.537C57.9658 9.26 56.7238 7.903 54.7227 7.903C52.6528 7.903 51.4568 9.398 51.4568 11.583V11.767C51.4568 13.998 52.8368 15.378 54.6308 15.378ZM67.4834 4.177L68.8404 0.611999H71.9224L69.5304 4.177H67.4834ZM68.7944 18.23C65.2524 18.23 62.6994 15.907 62.6994 12.112V11.928C62.6994 8.202 65.2524 5.718 68.6794 5.718C71.6694 5.718 74.3604 7.489 74.3604 11.79V12.595H65.5514C65.6434 14.872 66.7934 16.16 68.8634 16.16C70.5424 16.16 71.4164 15.493 71.6234 14.32H74.3144C73.9234 16.85 71.8764 18.23 68.7944 18.23ZM65.5974 10.732H71.6004C71.4624 8.662 70.4044 7.742 68.6794 7.742C67.0004 7.742 65.8734 8.869 65.5974 10.732ZM80.4802 18.207C78.0882 18.207 76.8462 16.919 76.8462 14.642V8.064H75.2362V5.971H76.8462V3.326H79.6292V5.971H82.2742V8.064H79.6292V14.389C79.6292 15.447 80.1352 15.93 81.0092 15.93C81.5612 15.93 81.9752 15.861 82.3662 15.7V17.908C81.9292 18.069 81.3312 18.207 80.4802 18.207ZM84.4855 18V5.971H87.2685V18H84.4855ZM85.8425 3.993C84.9225 3.993 84.1865 3.303 84.1865 2.406C84.1865 1.486 84.9225 0.795999 85.8425 0.795999C86.7625 0.795999 87.4985 1.486 87.4985 2.406C87.4985 3.303 86.7625 3.993 85.8425 3.993ZM95.4676 18.23C92.0176 18.23 89.3956 15.976 89.3956 12.135V11.951C89.3956 8.133 92.1096 5.718 95.4676 5.718C98.1356 5.718 100.643 6.914 100.965 10.226H98.2736C98.0436 8.616 96.9856 7.949 95.5136 7.949C93.6046 7.949 92.2476 9.421 92.2476 11.905V12.089C92.2476 14.711 93.5356 16.091 95.5826 16.091C97.0546 16.091 98.3196 15.217 98.4806 13.515H101.034C100.827 16.275 98.7336 18.23 95.4676 18.23ZM106.121 18.23C103.913 18.23 102.096 17.172 102.096 14.665C102.096 11.859 104.81 10.847 108.26 10.847H109.755V10.226C109.755 8.616 109.203 7.811 107.57 7.811C106.121 7.811 105.408 8.501 105.27 9.697H102.579C102.809 6.891 105.04 5.718 107.731 5.718C110.422 5.718 112.538 6.822 112.538 10.111V18H109.801V16.528C109.019 17.563 107.961 18.23 106.121 18.23ZM106.788 16.229C108.49 16.229 109.755 15.332 109.755 13.791V12.595H108.329C106.213 12.595 104.856 13.078 104.856 14.55C104.856 15.562 105.408 16.229 106.788 16.229ZM116.924 18.161C115.912 18.161 115.107 17.379 115.107 16.367C115.107 15.355 115.912 14.55 116.924 14.55C117.959 14.55 118.764 15.355 118.764 16.367C118.764 17.379 117.959 18.161 116.924 18.161Z" fill="black"/>
</svg>
