<svg width="204" height="19" viewBox="0 0 204 19" fill="none" xmlns="http://www.w3.org/2000/svg">
<path d="M8.43 16.0659C11.535 16.0659 13.49 13.6969 13.49 10.1319V9.94787C13.49 6.56687 11.604 4.05987 8.384 4.05987C5.164 4.05987 3.255 6.42887 3.255 9.97087V10.1549C3.255 13.7429 5.44 16.0659 8.43 16.0659ZM8.384 18.5269C3.347 18.5269 0.0580001 14.9159 0.0580001 10.1779V9.99387C0.0580001 5.18687 3.508 1.62187 8.384 1.62187C13.283 1.62187 16.664 5.09487 16.664 9.92487V10.1089C16.664 14.9159 13.375 18.5269 8.384 18.5269ZM29.2159 18.5269C25.7659 18.5269 23.1439 16.2729 23.1439 12.4319V12.2479C23.1439 8.42987 25.8579 6.01487 29.2159 6.01487C31.8839 6.01487 34.3909 7.21087 34.7129 10.5229H32.0219C31.7919 8.91287 30.7339 8.24587 29.2619 8.24587C27.3529 8.24587 25.9959 9.71787 25.9959 12.2019V12.3859C25.9959 15.0079 27.2839 16.3879 29.3309 16.3879C30.8029 16.3879 32.0679 15.5139 32.2289 13.8119H34.7819C34.5749 16.5719 32.4819 18.5269 29.2159 18.5269ZM42.1004 16.3649C44.1704 16.3649 45.4124 14.8239 45.4124 12.3629V12.2019C45.4124 9.71787 44.1704 8.19987 42.1004 8.19987C40.0304 8.19987 38.7654 9.69487 38.7654 12.1789V12.3629C38.7654 14.8239 39.9844 16.3649 42.1004 16.3649ZM42.0774 18.5269C38.5354 18.5269 35.9134 16.0659 35.9134 12.4089V12.2249C35.9134 8.49887 38.5584 6.01487 42.1004 6.01487C45.6194 6.01487 48.2644 8.47587 48.2644 12.1559V12.3399C48.2644 16.0889 45.6194 18.5269 42.0774 18.5269ZM57.0349 18.5269C55.1259 18.5269 53.7459 17.5839 53.1019 16.3649V18.2969H50.3189V0.701874H53.1019V8.19987C53.7689 7.04987 55.2639 6.01487 57.0349 6.01487C60.0479 6.01487 62.3709 8.24587 62.3709 12.1329V12.3169C62.3709 16.1809 60.1399 18.5269 57.0349 18.5269ZM56.3449 16.3189C58.3919 16.3189 59.5189 14.9389 59.5189 12.3629V12.1789C59.5189 9.51087 58.1389 8.19987 56.3219 8.19987C54.3899 8.19987 53.0099 9.51087 53.0099 12.1789V12.3629C53.0099 15.0539 54.3209 16.3189 56.3449 16.3189ZM64.4136 18.2969V6.26787H67.1966V8.52187C67.9556 7.00387 69.0826 6.10687 71.1066 6.08387V8.68287C68.6686 8.70587 67.1966 9.48787 67.1966 12.0409V18.2969H64.4136ZM78.1606 18.5269C74.6186 18.5269 72.0656 16.2039 72.0656 12.4089V12.2249C72.0656 8.49887 74.6186 6.01487 78.0456 6.01487C81.0356 6.01487 83.7266 7.78587 83.7266 12.0869V12.8919H74.9176C75.0096 15.1689 76.1596 16.4569 78.2296 16.4569C79.9086 16.4569 80.7826 15.7899 80.9896 14.6169H83.6806C83.2896 17.1469 81.2426 18.5269 78.1606 18.5269ZM74.9636 11.0289H80.9666C80.8286 8.95887 79.7706 8.03887 78.0456 8.03887C76.3666 8.03887 75.2396 9.16587 74.9636 11.0289ZM94.7519 4.47387L96.1089 0.908874H99.1909L96.7989 4.47387H94.7519ZM96.0629 18.5269C92.5209 18.5269 89.9679 16.2039 89.9679 12.4089V12.2249C89.9679 8.49887 92.5209 6.01487 95.9479 6.01487C98.9379 6.01487 101.629 7.78587 101.629 12.0869V12.8919H92.8199C92.9119 15.1689 94.0619 16.4569 96.1319 16.4569C97.8109 16.4569 98.6849 15.7899 98.8919 14.6169H101.583C101.192 17.1469 99.1449 18.5269 96.0629 18.5269ZM92.8659 11.0289H98.8689C98.7309 8.95887 97.6729 8.03887 95.9479 8.03887C94.2689 8.03887 93.1419 9.16587 92.8659 11.0289ZM113.965 18.5269C110.423 18.5269 107.87 16.2039 107.87 12.4089V12.2249C107.87 8.49887 110.423 6.01487 113.85 6.01487C116.84 6.01487 119.531 7.78587 119.531 12.0869V12.8919H110.722C110.814 15.1689 111.964 16.4569 114.034 16.4569C115.713 16.4569 116.587 15.7899 116.794 14.6169H119.485C119.094 17.1469 117.047 18.5269 113.965 18.5269ZM110.768 11.0289H116.771C116.633 8.95887 115.575 8.03887 113.85 8.03887C112.171 8.03887 111.044 9.16587 110.768 11.0289ZM125.786 18.5269C122.681 18.5269 120.864 17.1009 120.749 14.5479H123.371C123.509 15.7669 124.13 16.4799 125.763 16.4799C127.258 16.4799 127.925 15.9509 127.925 14.9389C127.925 13.9499 127.12 13.5819 125.349 13.2829C122.175 12.7769 121.002 11.8799 121.002 9.62587C121.002 7.21087 123.256 6.01487 125.51 6.01487C127.971 6.01487 129.926 6.93487 130.225 9.64887H127.649C127.419 8.54487 126.798 8.03887 125.51 8.03887C124.314 8.03887 123.601 8.61387 123.601 9.46487C123.601 10.3389 124.176 10.6839 126.085 11.0059C128.914 11.4429 130.593 12.1329 130.593 14.6859C130.593 17.1239 128.868 18.5269 125.786 18.5269ZM136.691 18.5269C133.586 18.5269 131.769 17.1009 131.654 14.5479H134.276C134.414 15.7669 135.035 16.4799 136.668 16.4799C138.163 16.4799 138.83 15.9509 138.83 14.9389C138.83 13.9499 138.025 13.5819 136.254 13.2829C133.08 12.7769 131.907 11.8799 131.907 9.62587C131.907 7.21087 134.161 6.01487 136.415 6.01487C138.876 6.01487 140.831 6.93487 141.13 9.64887H138.554C138.324 8.54487 137.703 8.03887 136.415 8.03887C135.219 8.03887 134.506 8.61387 134.506 9.46487C134.506 10.3389 135.081 10.6839 136.99 11.0059C139.819 11.4429 141.498 12.1329 141.498 14.6859C141.498 17.1239 139.773 18.5269 136.691 18.5269ZM148.77 18.5269C145.228 18.5269 142.675 16.2039 142.675 12.4089V12.2249C142.675 8.49887 145.228 6.01487 148.655 6.01487C151.645 6.01487 154.336 7.78587 154.336 12.0869V12.8919H145.527C145.619 15.1689 146.769 16.4569 148.839 16.4569C150.518 16.4569 151.392 15.7899 151.599 14.6169H154.29C153.899 17.1469 151.852 18.5269 148.77 18.5269ZM145.573 11.0289H151.576C151.438 8.95887 150.38 8.03887 148.655 8.03887C146.976 8.03887 145.849 9.16587 145.573 11.0289ZM156.362 18.2969V6.26787H159.145V8.17687C159.72 7.00387 161.054 6.01487 163.032 6.01487C165.447 6.01487 167.149 7.41787 167.149 10.7299V18.2969H164.366V10.9829C164.366 9.16587 163.63 8.33787 161.974 8.33787C160.41 8.33787 159.145 9.30387 159.145 11.2129V18.2969H156.362ZM175.162 18.5269C171.712 18.5269 169.09 16.2729 169.09 12.4319V12.2479C169.09 8.42987 171.804 6.01487 175.162 6.01487C177.83 6.01487 180.337 7.21087 180.659 10.5229H177.968C177.738 8.91287 176.68 8.24587 175.208 8.24587C173.299 8.24587 171.942 9.71787 171.942 12.2019V12.3859C171.942 15.0079 173.23 16.3879 175.277 16.3879C176.749 16.3879 178.014 15.5139 178.175 13.8119H180.728C180.521 16.5719 178.428 18.5269 175.162 18.5269ZM182.733 18.2969V6.26787H185.516V18.2969H182.733ZM184.09 4.28987C183.17 4.28987 182.434 3.59987 182.434 2.70287C182.434 1.78287 183.17 1.09287 184.09 1.09287C185.01 1.09287 185.746 1.78287 185.746 2.70287C185.746 3.59987 185.01 4.28987 184.09 4.28987ZM191.599 18.5269C189.391 18.5269 187.574 17.4689 187.574 14.9619C187.574 12.1559 190.288 11.1439 193.738 11.1439H195.233V10.5229C195.233 8.91287 194.681 8.10787 193.048 8.10787C191.599 8.10787 190.886 8.79787 190.748 9.99387H188.057C188.287 7.18787 190.518 6.01487 193.209 6.01487C195.9 6.01487 198.016 7.11887 198.016 10.4079V18.2969H195.279V16.8249C194.497 17.8599 193.439 18.5269 191.599 18.5269ZM192.266 16.5259C193.968 16.5259 195.233 15.6289 195.233 14.0879V12.8919H193.807C191.691 12.8919 190.334 13.3749 190.334 14.8469C190.334 15.8589 190.886 16.5259 192.266 16.5259ZM200.815 18.2969V0.701874H203.598V18.2969H200.815Z" fill="black"/>
</svg>
