<svg width="103" height="27" viewBox="0 0 103 27" fill="none" xmlns="http://www.w3.org/2000/svg">
<rect width="102.878" height="26.2511" rx="3.75035" fill="white"/>
<path d="M7.50079 18.3872H16.8767" stroke="#DC1928" stroke-width="0.902279" stroke-linecap="round"/>
<path d="M7.72644 13.5762L12.1888 16.4735L16.7492 13.5762" stroke="#DC1928" stroke-width="0.902279" stroke-linecap="round"/>
<path d="M12.181 7.86328V16.4738" stroke="#DC1928" stroke-width="0.902279" stroke-linecap="round"/>
<path d="M24.9626 8.92923H27.8243C29.9706 8.92923 31.5532 10.23 31.5532 12.7774C31.5532 15.3139 29.9706 16.6255 27.8243 16.6255H24.9626V8.92923ZM27.6942 10.0349H26.2959V15.5198H27.6942C29.2768 15.5198 30.1874 14.6852 30.1874 12.7774C30.1874 10.8696 29.2768 10.0349 27.6942 10.0349ZM32.2952 13.8071C32.2952 12.0186 33.3684 10.8587 34.9727 10.8587C36.5661 10.8587 37.6501 12.0186 37.6501 13.8071C37.6501 15.5957 36.5661 16.7556 34.9727 16.7556C33.3684 16.7556 32.2952 15.5957 32.2952 13.8071ZM36.3493 13.5687C36.3493 12.4955 35.7965 11.8777 34.9727 11.8777C34.138 11.8777 33.596 12.4955 33.596 13.5687V14.0348C33.596 15.1079 34.138 15.7366 34.9727 15.7366C35.7965 15.7366 36.3493 15.1079 36.3493 14.0348V13.5687ZM44.4166 16.6255H43.0508L41.9668 12.8858L40.937 16.6255H39.5061L37.9561 10.9888H39.2243L40.2758 15.0862L41.4031 10.9888H42.5196L43.712 15.0862L44.7526 10.9888H45.9558L44.4166 16.6255ZM47.8718 13.1459V16.6255H46.5927V10.9888H47.8718V11.65H47.9151C48.2837 11.1622 48.7498 10.8587 49.4977 10.8587C50.6142 10.8587 51.3297 11.6825 51.3297 12.9508V16.6255H50.0506V13.0592C50.0506 12.4088 49.7687 11.9427 49.0316 11.9427C48.2728 11.9427 47.8718 12.4847 47.8718 13.1459ZM54.161 16.6255C53.1421 16.6255 52.5568 16.0401 52.5568 15.1188V8.60404H53.8359V15.0104C53.8359 15.3789 53.9768 15.5957 54.3778 15.5957H54.7572V16.6255H54.161ZM55.3713 13.8071C55.3713 12.0186 56.4444 10.8587 58.0487 10.8587C59.6422 10.8587 60.7262 12.0186 60.7262 13.8071C60.7262 15.5957 59.6422 16.7556 58.0487 16.7556C56.4444 16.7556 55.3713 15.5957 55.3713 13.8071ZM59.4254 13.5687C59.4254 12.4955 58.8725 11.8777 58.0487 11.8777C57.2141 11.8777 56.6721 12.4955 56.6721 13.5687V14.0348C56.6721 15.1079 57.2141 15.7366 58.0487 15.7366C58.8725 15.7366 59.4254 15.1079 59.4254 14.0348V13.5687ZM64.8792 15.8775C64.5866 16.3762 64.0229 16.7556 63.2099 16.7556C62.1476 16.7556 61.4105 16.116 61.4105 15.0754C61.4105 13.9697 62.2452 13.547 63.1557 13.4277L64.3372 13.276C64.7925 13.2218 64.8901 13.0375 64.8901 12.6798C64.8901 12.1703 64.5866 11.8018 63.9037 11.8018C63.2207 11.8018 62.8739 12.1812 62.8305 12.7232H61.5189C61.5514 11.7801 62.3427 10.8587 63.8711 10.8587C65.3345 10.8587 66.1692 11.7151 66.1692 12.9616V15.6607C66.1692 16.0076 66.2234 16.3545 66.2776 16.6255H64.966C64.9334 16.4087 64.9118 16.1702 64.9118 15.8775H64.8792ZM64.9009 13.7096C64.7166 13.883 64.4782 13.9697 64.1855 14.0239L63.6218 14.154C63.0473 14.2733 62.7004 14.5009 62.7004 15.0212C62.7004 15.5523 63.0148 15.8233 63.6001 15.8233C64.3047 15.8233 64.9009 15.3464 64.9009 14.5984V13.7096ZM71.0998 15.8667C70.7854 16.387 70.1567 16.7556 69.4196 16.7556C68.0646 16.7556 67.0999 15.5957 67.0999 13.8071C67.0999 12.0186 68.0646 10.8587 69.4196 10.8587C70.1567 10.8587 70.7854 11.2273 71.0998 11.7476H71.1431V8.60404H72.4222V16.6255H71.1431V15.8667H71.0998ZM68.4006 14.0239C68.4006 15.1296 68.9101 15.7366 69.7773 15.7366C70.5794 15.7366 71.1431 15.0971 71.1431 14.0998V13.5145C71.1431 12.5172 70.5794 11.8777 69.7773 11.8777C68.9101 11.8777 68.4006 12.4955 68.4006 13.6012V14.0239ZM77.013 13.1459V16.6255H75.7339V10.9888H77.013V11.65H77.0564C77.4249 11.1622 77.8911 10.8587 78.639 10.8587C79.7555 10.8587 80.4709 11.6825 80.4709 12.9508V16.6255H79.1918V13.0592C79.1918 12.4088 78.91 11.9427 78.1729 11.9427C77.4141 11.9427 77.013 12.4847 77.013 13.1459ZM81.427 13.8071C81.427 12.0186 82.5002 10.8587 84.1045 10.8587C85.6979 10.8587 86.7819 12.0186 86.7819 13.8071C86.7819 15.5957 85.6979 16.7556 84.1045 16.7556C82.5002 16.7556 81.427 15.5957 81.427 13.8071ZM85.4811 13.5687C85.4811 12.4955 84.9283 11.8777 84.1045 11.8777C83.2698 11.8777 82.7278 12.4955 82.7278 13.5687V14.0348C82.7278 15.1079 83.2698 15.7366 84.1045 15.7366C84.9283 15.7366 85.4811 15.1079 85.4811 14.0348V13.5687ZM93.5484 16.6255H92.1826L91.0986 12.8858L90.0688 16.6255H88.638L87.0879 10.9888H88.3561L89.4076 15.0862L90.5349 10.9888H91.6514L92.8438 15.0862L93.8844 10.9888H95.0876L93.5484 16.6255Z" fill="#DC1928"/>
</svg>
