<?xml version="1.0" encoding="utf-8"?>
<!-- Generator: Adobe Illustrator 27.7.0, SVG Export Plug-In . SVG Version: 6.00 Build 0)  -->
<svg version="1.1" id="Layer_1" xmlns="http://www.w3.org/2000/svg" xmlns:xlink="http://www.w3.org/1999/xlink" x="0px" y="0px"
	 viewBox="0 0 95 29" style="enable-background:new 0 0 95 29;" xml:space="preserve">
<style type="text/css">
	.st0{fill:#FFFFFF;}
	.st1{fill:none;stroke:#FFFFFF;}
	.st2{fill:#002855;}
</style>
<rect x="0.9" y="1.3" class="st0" width="93.6" height="27.2"/>
<rect x="0.9" y="1.3" class="st1" width="93.6" height="27.2"/>
<path class="st2" d="M12.4,19.4v-8.6h2v6.9h4.1v1.7H12.4z M19.4,16.4c0-0.6,0.1-1.1,0.4-1.6s0.7-0.9,1.1-1.2
	c0.5-0.3,1.1-0.4,1.7-0.4s1.2,0.1,1.7,0.4c0.5,0.3,0.9,0.7,1.1,1.2c0.3,0.5,0.4,1,0.4,1.6s-0.1,1.1-0.4,1.6s-0.6,0.9-1.1,1.2
	c-0.5,0.3-1,0.4-1.7,0.4c-0.6,0-1.2-0.1-1.7-0.4S20,18.5,19.8,18C19.5,17.5,19.4,17,19.4,16.4z M22.6,18c0.3,0,0.6-0.1,0.8-0.2
	c0.2-0.2,0.4-0.4,0.5-0.6c0.1-0.3,0.2-0.5,0.2-0.8s-0.1-0.5-0.2-0.8s-0.3-0.5-0.5-0.6c-0.2-0.2-0.5-0.2-0.8-0.2S22,14.9,21.8,15
	c-0.2,0.2-0.4,0.4-0.5,0.6c-0.1,0.2-0.2,0.5-0.2,0.8c0,0.3,0.1,0.5,0.2,0.8s0.3,0.5,0.5,0.6C22.1,17.9,22.3,18,22.6,18z M27.3,21.5
	l0.8-1.3c0.2,0.1,0.5,0.3,0.8,0.3c0.3,0.1,0.6,0.1,0.9,0.1c0.4,0,0.8-0.1,1-0.3c0.2-0.2,0.4-0.6,0.4-1v-0.4
	c-0.4,0.3-0.9,0.5-1.6,0.5c-0.6,0-1.1-0.1-1.5-0.4s-0.7-0.6-0.9-1c-0.2-0.4-0.3-0.9-0.3-1.5c0-0.7,0.1-1.2,0.4-1.7s0.7-0.9,1.2-1.1
	c0.5-0.3,1.1-0.4,1.8-0.4c0.5,0,1,0,1.4,0.1c0.5,0.1,0.9,0.2,1.2,0.3v5.6c0,1-0.3,1.7-0.8,2.2c-0.6,0.5-1.3,0.7-2.3,0.7
	C28.7,22.2,27.9,21.9,27.3,21.5z M31.1,16.7v-1.8c-0.1,0-0.2-0.1-0.4-0.1c-0.1,0-0.3,0-0.5,0c-0.5,0-0.9,0.2-1.2,0.5
	c-0.3,0.3-0.4,0.7-0.4,1.2c0,0.4,0.1,0.8,0.3,1c0.2,0.3,0.5,0.4,0.9,0.4s0.7-0.1,0.9-0.3C31,17.4,31.1,17.1,31.1,16.7z M36.6,12.4
	v-1.7h2v1.7H36.6z M36.7,19.4v-6.1h1.9v6.1H36.7z M40,19.4v-6.1h1.8l0.1,0.7c0.2-0.2,0.5-0.4,0.8-0.6c0.3-0.1,0.7-0.2,1-0.2
	c0.7,0,1.2,0.2,1.7,0.6c0.4,0.4,0.6,1,0.6,1.8v3.8h-2v-3.5c0-0.3-0.1-0.6-0.3-0.8s-0.4-0.3-0.7-0.3c-0.4,0-0.7,0.1-0.9,0.4
	c-0.2,0.3-0.3,0.6-0.3,0.9v3.3C41.8,19.4,40,19.4,40,19.4z M49.6,19.4v-6.1h1.8l0.1,0.7c0.2-0.2,0.5-0.4,0.8-0.6
	c0.3-0.1,0.7-0.2,1-0.2c0.7,0,1.2,0.2,1.7,0.6c0.4,0.4,0.6,1,0.6,1.8v3.8h-1.9v-3.5c0-0.3-0.1-0.6-0.3-0.8s-0.4-0.3-0.7-0.3
	c-0.4,0-0.7,0.1-0.9,0.4c-0.2,0.3-0.3,0.6-0.3,0.9v3.3C51.5,19.4,49.6,19.4,49.6,19.4z M56.6,16.4c0-0.6,0.1-1.1,0.4-1.6
	c0.3-0.5,0.7-0.9,1.1-1.2c0.5-0.3,1.1-0.4,1.7-0.4c0.6,0,1.2,0.1,1.7,0.4c0.5,0.3,0.9,0.7,1.1,1.2c0.3,0.5,0.4,1,0.4,1.6
	s0,1.1-0.3,1.6s-0.6,0.9-1.1,1.2c-0.5,0.3-1,0.4-1.7,0.4c-0.6,0-1.2-0.1-1.7-0.4s-0.9-0.7-1.1-1.2C56.7,17.5,56.6,17,56.6,16.4z
	 M59.9,18c0.3,0,0.6-0.1,0.8-0.2c0.2-0.2,0.4-0.4,0.5-0.6c0.1-0.3,0.2-0.5,0.2-0.8s-0.1-0.5-0.2-0.8c-0.1-0.3-0.3-0.5-0.5-0.6
	c-0.2-0.2-0.5-0.2-0.8-0.2s-0.6,0.1-0.8,0.2c-0.2,0.2-0.4,0.4-0.5,0.6c-0.1,0.2-0.2,0.5-0.2,0.8c0,0.3,0.1,0.5,0.2,0.8
	c0.1,0.3,0.3,0.5,0.5,0.6C59.3,17.9,59.5,18,59.9,18z M65.5,19.4l-2.1-6.1h1.9l1.1,3.9l1.2-3.9h1.5l1.2,3.9l1.1-3.9h1.9l-2.1,6.1
	h-1.7L68.3,16l-1.1,3.4H65.5z"/>
</svg>
