<svg width="200" height="23" viewBox="0 0 200 23" fill="none" xmlns="http://www.w3.org/2000/svg">
<path d="M5.635 4.177L6.992 0.611999H10.074L7.682 4.177H5.635ZM6.946 18.23C3.404 18.23 0.851 15.907 0.851 12.112V11.928C0.851 8.202 3.404 5.718 6.831 5.718C9.821 5.718 12.512 7.489 12.512 11.79V12.595H3.703C3.795 14.872 4.945 16.16 7.015 16.16C8.694 16.16 9.568 15.493 9.775 14.32H12.466C12.075 16.85 10.028 18.23 6.946 18.23ZM3.749 10.732H9.752C9.614 8.662 8.556 7.742 6.831 7.742C5.152 7.742 4.025 8.869 3.749 10.732ZM19.5583 18V5.971H22.3413V8.225C23.1003 6.707 24.2273 5.81 26.2513 5.787V8.386C23.8133 8.409 22.3413 9.191 22.3413 11.744V18H19.5583ZM33.3053 18.23C29.7633 18.23 27.2103 15.907 27.2103 12.112V11.928C27.2103 8.202 29.7633 5.718 33.1903 5.718C36.1803 5.718 38.8713 7.489 38.8713 11.79V12.595H30.0623C30.1543 14.872 31.3043 16.16 33.3743 16.16C35.0533 16.16 35.9273 15.493 36.1343 14.32H38.8253C38.4343 16.85 36.3873 18.23 33.3053 18.23ZM30.1083 10.732H36.1113C35.9733 8.662 34.9153 7.742 33.1903 7.742C31.5113 7.742 30.3843 8.869 30.1083 10.732ZM45.1264 18.23C42.0214 18.23 40.2044 16.804 40.0894 14.251H42.7114C42.8494 15.47 43.4704 16.183 45.1034 16.183C46.5984 16.183 47.2654 15.654 47.2654 14.642C47.2654 13.653 46.4604 13.285 44.6894 12.986C41.5154 12.48 40.3424 11.583 40.3424 9.329C40.3424 6.914 42.5964 5.718 44.8504 5.718C47.3114 5.718 49.2664 6.638 49.5654 9.352H46.9894C46.7594 8.248 46.1384 7.742 44.8504 7.742C43.6544 7.742 42.9414 8.317 42.9414 9.168C42.9414 10.042 43.5164 10.387 45.4254 10.709C48.2544 11.146 49.9334 11.836 49.9334 14.389C49.9334 16.827 48.2084 18.23 45.1264 18.23ZM51.9146 22.117V5.971H54.6976V7.903C55.3646 6.753 56.8596 5.718 58.6306 5.718C61.6436 5.718 63.9666 7.949 63.9666 11.836V12.02C63.9666 15.884 61.7356 18.23 58.6306 18.23C56.7216 18.23 55.3416 17.287 54.6976 16.114V22.117H51.9146ZM57.9406 16.022C59.9876 16.022 61.1146 14.642 61.1146 12.066V11.882C61.1146 9.214 59.7346 7.903 57.9176 7.903C55.9856 7.903 54.6056 9.214 54.6056 11.882V12.066C54.6056 14.757 55.9166 16.022 57.9406 16.022ZM71.3913 16.068C73.4613 16.068 74.7033 14.527 74.7033 12.066V11.905C74.7033 9.421 73.4613 7.903 71.3913 7.903C69.3213 7.903 68.0563 9.398 68.0563 11.882V12.066C68.0563 14.527 69.2753 16.068 71.3913 16.068ZM71.3683 18.23C67.8263 18.23 65.2043 15.769 65.2043 12.112V11.928C65.2043 8.202 67.8493 5.718 71.3913 5.718C74.9103 5.718 77.5553 8.179 77.5553 11.859V12.043C77.5553 15.792 74.9103 18.23 71.3683 18.23ZM79.6098 18V5.971H82.3928V7.88C82.9678 6.707 84.3018 5.718 86.2798 5.718C88.6948 5.718 90.3968 7.121 90.3968 10.433V18H87.6138V10.686C87.6138 8.869 86.8778 8.041 85.2218 8.041C83.6578 8.041 82.3928 9.007 82.3928 10.916V18H79.6098ZM97.26 18.23C94.155 18.23 92.338 16.804 92.223 14.251H94.845C94.983 15.47 95.604 16.183 97.237 16.183C98.732 16.183 99.399 15.654 99.399 14.642C99.399 13.653 98.594 13.285 96.823 12.986C93.649 12.48 92.476 11.583 92.476 9.329C92.476 6.914 94.73 5.718 96.984 5.718C99.445 5.718 101.4 6.638 101.699 9.352H99.123C98.893 8.248 98.272 7.742 96.984 7.742C95.788 7.742 95.075 8.317 95.075 9.168C95.075 10.042 95.65 10.387 97.559 10.709C100.388 11.146 102.067 11.836 102.067 14.389C102.067 16.827 100.342 18.23 97.26 18.23ZM107.199 18.23C104.991 18.23 103.174 17.172 103.174 14.665C103.174 11.859 105.888 10.847 109.338 10.847H110.833V10.226C110.833 8.616 110.281 7.811 108.648 7.811C107.199 7.811 106.486 8.501 106.348 9.697H103.657C103.887 6.891 106.118 5.718 108.809 5.718C111.5 5.718 113.616 6.822 113.616 10.111V18H110.879V16.528C110.097 17.563 109.039 18.23 107.199 18.23ZM107.866 16.229C109.568 16.229 110.833 15.332 110.833 13.791V12.595H109.407C107.291 12.595 105.934 13.078 105.934 14.55C105.934 15.562 106.486 16.229 107.866 16.229ZM123.062 18.23C121.153 18.23 119.773 17.287 119.129 16.068V18H116.346V0.404999H119.129V7.903C119.796 6.753 121.291 5.718 123.062 5.718C126.075 5.718 128.398 7.949 128.398 11.836V12.02C128.398 15.884 126.167 18.23 123.062 18.23ZM122.372 16.022C124.419 16.022 125.546 14.642 125.546 12.066V11.882C125.546 9.214 124.166 7.903 122.349 7.903C120.417 7.903 119.037 9.214 119.037 11.882V12.066C119.037 14.757 120.348 16.022 122.372 16.022ZM130.51 18V5.971H133.293V18H130.51ZM131.867 3.993C130.947 3.993 130.211 3.303 130.211 2.406C130.211 1.486 130.947 0.795999 131.867 0.795999C132.787 0.795999 133.523 1.486 133.523 2.406C133.523 3.303 132.787 3.993 131.867 3.993ZM136.294 18V0.404999H139.077V18H136.294ZM142.078 18V5.971H144.861V18H142.078ZM143.435 3.993C142.515 3.993 141.779 3.303 141.779 2.406C141.779 1.486 142.515 0.795999 143.435 0.795999C144.355 0.795999 145.091 1.486 145.091 2.406C145.091 3.303 144.355 3.993 143.435 3.993ZM152.301 18.23C149.288 18.23 147.011 16.091 147.011 12.181V11.997C147.011 8.156 149.288 5.718 152.416 5.718C154.371 5.718 155.59 6.615 156.257 7.811V0.404999H159.04V18H156.257V15.976C155.613 17.172 154.072 18.23 152.301 18.23ZM152.991 16.022C154.923 16.022 156.349 14.734 156.349 12.043V11.859C156.349 9.214 155.13 7.903 153.106 7.903C151.059 7.903 149.863 9.329 149.863 11.928V12.112C149.863 14.757 151.197 16.022 152.991 16.022ZM165.039 18.23C162.831 18.23 161.014 17.172 161.014 14.665C161.014 11.859 163.728 10.847 167.178 10.847H168.673V10.226C168.673 8.616 168.121 7.811 166.488 7.811C165.039 7.811 164.326 8.501 164.188 9.697H161.497C161.727 6.891 163.958 5.718 166.649 5.718C169.34 5.718 171.456 6.822 171.456 10.111V18H168.719V16.528C167.937 17.563 166.879 18.23 165.039 18.23ZM165.706 16.229C167.408 16.229 168.673 15.332 168.673 13.791V12.595H167.247C165.131 12.595 163.774 13.078 163.774 14.55C163.774 15.562 164.326 16.229 165.706 16.229ZM178.694 18.23C175.681 18.23 173.404 16.091 173.404 12.181V11.997C173.404 8.156 175.681 5.718 178.809 5.718C180.764 5.718 181.983 6.615 182.65 7.811V0.404999H185.433V18H182.65V15.976C182.006 17.172 180.465 18.23 178.694 18.23ZM179.384 16.022C181.316 16.022 182.742 14.734 182.742 12.043V11.859C182.742 9.214 181.523 7.903 179.499 7.903C177.452 7.903 176.256 9.329 176.256 11.928V12.112C176.256 14.757 177.59 16.022 179.384 16.022ZM193.57 18.23C190.028 18.23 187.475 15.907 187.475 12.112V11.928C187.475 8.202 190.028 5.718 193.455 5.718C196.445 5.718 199.136 7.489 199.136 11.79V12.595H190.327C190.419 14.872 191.569 16.16 193.639 16.16C195.318 16.16 196.192 15.493 196.399 14.32H199.09C198.699 16.85 196.652 18.23 193.57 18.23ZM190.373 10.732H196.376C196.238 8.662 195.18 7.742 193.455 7.742C191.776 7.742 190.649 8.869 190.373 10.732Z" fill="black"/>
</svg>
