<svg width="219" height="19" viewBox="0 0 219 19" fill="none" xmlns="http://www.w3.org/2000/svg">
<path d="M4.7025 18.225C2.5425 18.225 0.765 17.19 0.765 14.7375C0.765 11.9925 3.42 11.0025 6.795 11.0025H8.2575V10.395C8.2575 8.82 7.7175 8.0325 6.12 8.0325C4.7025 8.0325 4.005 8.7075 3.87 9.8775H1.2375C1.4625 7.1325 3.645 5.985 6.2775 5.985C8.91 5.985 10.98 7.065 10.98 10.2825V18H8.3025V16.56C7.5375 17.5725 6.5025 18.225 4.7025 18.225ZM5.355 16.2675C7.02 16.2675 8.2575 15.39 8.2575 13.8825V12.7125H6.8625C4.7925 12.7125 3.465 13.185 3.465 14.625C3.465 15.615 4.005 16.2675 5.355 16.2675ZM18.803 18.225C15.428 18.225 12.863 16.02 12.863 12.2625V12.0825C12.863 8.3475 15.518 5.985 18.803 5.985C21.413 5.985 23.8655 7.155 24.1805 10.395H21.548C21.323 8.82 20.288 8.1675 18.848 8.1675C16.9805 8.1675 15.653 9.6075 15.653 12.0375V12.2175C15.653 14.7825 16.913 16.1325 18.9155 16.1325C20.3555 16.1325 21.593 15.2775 21.7505 13.6125H24.248C24.0455 16.3125 21.998 18.225 18.803 18.225ZM31.4074 16.11C33.4324 16.11 34.6474 14.6025 34.6474 12.195V12.0375C34.6474 9.6075 33.4324 8.1225 31.4074 8.1225C29.3824 8.1225 28.1449 9.585 28.1449 12.015V12.195C28.1449 14.6025 29.3374 16.11 31.4074 16.11ZM31.3849 18.225C27.9199 18.225 25.3549 15.8175 25.3549 12.24V12.06C25.3549 8.415 27.9424 5.985 31.4074 5.985C34.8499 5.985 37.4374 8.3925 37.4374 11.9925V12.1725C37.4374 15.84 34.8499 18.225 31.3849 18.225ZM39.4472 18V6.2325H42.1697V8.1C42.7322 6.9525 44.0372 5.985 45.9722 5.985C48.3347 5.985 49.9997 7.3575 49.9997 10.5975V18H47.2772V10.845C47.2772 9.0675 46.5572 8.2575 44.9372 8.2575C43.4072 8.2575 42.1697 9.2025 42.1697 11.07V18H39.4472ZM56.6912 18.2025C54.3512 18.2025 53.1362 16.9425 53.1362 14.715V8.28H51.5612V6.2325H53.1362V3.645H55.8587V6.2325H58.4462V8.28H55.8587V14.4675C55.8587 15.5025 56.3537 15.975 57.2087 15.975C57.7487 15.975 58.1537 15.9075 58.5362 15.75V17.91C58.1087 18.0675 57.5237 18.2025 56.6912 18.2025ZM65.7169 18.225C62.2519 18.225 59.7544 15.9525 59.7544 12.24V12.06C59.7544 8.415 62.2519 5.985 65.6044 5.985C68.5294 5.985 71.1619 7.7175 71.1619 11.925V12.7125H62.5444C62.6344 14.94 63.7594 16.2 65.7844 16.2C67.4269 16.2 68.2819 15.5475 68.4844 14.4H71.1169C70.7344 16.875 68.7319 18.225 65.7169 18.225ZM62.5894 10.89H68.4619C68.3269 8.865 67.2919 7.965 65.6044 7.965C63.9619 7.965 62.8594 9.0675 62.5894 10.89ZM78.2961 18.225C74.9211 18.225 72.3561 16.02 72.3561 12.2625V12.0825C72.3561 8.3475 75.0111 5.985 78.2961 5.985C80.9061 5.985 83.3586 7.155 83.6736 10.395H81.0411C80.8161 8.82 79.7811 8.1675 78.3411 8.1675C76.4736 8.1675 75.1461 9.6075 75.1461 12.0375V12.2175C75.1461 14.7825 76.4061 16.1325 78.4086 16.1325C79.8486 16.1325 81.0861 15.2775 81.2436 13.6125H83.7411C83.5386 16.3125 81.4911 18.225 78.2961 18.225ZM90.8105 18.225C87.3455 18.225 84.848 15.9525 84.848 12.24V12.06C84.848 8.415 87.3455 5.985 90.698 5.985C93.623 5.985 96.2555 7.7175 96.2555 11.925V12.7125H87.638C87.728 14.94 88.853 16.2 90.878 16.2C92.5205 16.2 93.3755 15.5475 93.578 14.4H96.2105C95.828 16.875 93.8255 18.225 90.8105 18.225ZM87.683 10.89H93.5555C93.4205 8.865 92.3855 7.965 90.698 7.965C89.0555 7.965 87.953 9.0675 87.683 10.89ZM98.2373 18V6.2325H100.96V8.1C101.522 6.9525 102.827 5.985 104.762 5.985C107.125 5.985 108.79 7.3575 108.79 10.5975V18H106.067V10.845C106.067 9.0675 105.347 8.2575 103.727 8.2575C102.197 8.2575 100.96 9.2025 100.96 11.07V18H98.2373ZM115.886 18.225C112.939 18.225 110.711 16.1325 110.711 12.3075V12.1275C110.711 8.37 112.939 5.985 115.999 5.985C117.911 5.985 119.104 6.8625 119.756 8.0325V0.787499H122.479V18H119.756V16.02C119.126 17.19 117.619 18.225 115.886 18.225ZM116.561 16.065C118.451 16.065 119.846 14.805 119.846 12.1725V11.9925C119.846 9.405 118.654 8.1225 116.674 8.1225C114.671 8.1225 113.501 9.5175 113.501 12.06V12.24C113.501 14.8275 114.806 16.065 116.561 16.065ZM130.53 16.11C132.555 16.11 133.77 14.6025 133.77 12.195V12.0375C133.77 9.6075 132.555 8.1225 130.53 8.1225C128.505 8.1225 127.267 9.585 127.267 12.015V12.195C127.267 14.6025 128.46 16.11 130.53 16.11ZM130.507 18.225C127.042 18.225 124.477 15.8175 124.477 12.24V12.06C124.477 8.415 127.065 5.985 130.53 5.985C133.972 5.985 136.56 8.3925 136.56 11.9925V12.1725C136.56 15.84 133.972 18.225 130.507 18.225ZM143.481 18V6.2325H146.203V8.1C146.766 6.9525 148.071 5.985 150.006 5.985C152.368 5.985 154.033 7.3575 154.033 10.5975V18H151.311V10.845C151.311 9.0675 150.591 8.2575 148.971 8.2575C147.441 8.2575 146.203 9.2025 146.203 11.07V18H143.481ZM159.802 18.225C157.642 18.225 155.865 17.19 155.865 14.7375C155.865 11.9925 158.52 11.0025 161.895 11.0025H163.357V10.395C163.357 8.82 162.817 8.0325 161.22 8.0325C159.802 8.0325 159.105 8.7075 158.97 9.8775H156.337C156.562 7.1325 158.745 5.985 161.377 5.985C164.01 5.985 166.08 7.065 166.08 10.2825V18H163.402V16.56C162.637 17.5725 161.602 18.225 159.802 18.225ZM160.455 16.2675C162.12 16.2675 163.357 15.39 163.357 13.8825V12.7125H161.962C159.892 12.7125 158.565 13.185 158.565 14.625C158.565 15.615 159.105 16.2675 160.455 16.2675ZM173.887 18V1.9125H179.647C182.954 1.9125 184.912 3.1725 184.912 6.0975V6.1875C184.912 7.785 184.192 9.045 182.369 9.6075C184.552 10.08 185.587 11.2725 185.587 13.41V13.5C185.587 16.4925 183.607 18 180.074 18H173.887ZM176.812 15.8625H179.714C181.717 15.8625 182.639 14.9625 182.639 13.2975V13.2075C182.639 11.5425 181.717 10.71 179.512 10.71H176.812V15.8625ZM176.812 8.685H179.287C181.267 8.685 182.032 7.965 182.032 6.3225V6.2325C182.032 4.7025 181.154 4.05 179.242 4.05H176.812V8.685ZM187.938 18V1.9125H190.931V8.7525H198.153V1.9125H201.168V18H198.153V11.16H190.931V18H187.938ZM204.385 18V1.9125H209.56C213.16 1.9125 215.523 3.51 215.523 6.885V6.975C215.523 10.3725 213.07 11.88 209.628 11.88H207.378V18H204.385ZM207.378 9.72H209.56C211.54 9.72 212.598 8.7525 212.598 6.975V6.885C212.598 4.9725 211.473 4.23 209.56 4.23H207.378V9.72ZM216.558 18.1575C215.568 18.1575 214.781 17.3925 214.781 16.4025C214.781 15.4125 215.568 14.625 216.558 14.625C217.571 14.625 218.358 15.4125 218.358 16.4025C218.358 17.3925 217.571 18.1575 216.558 18.1575Z" fill="#DD5900"/>
</svg>
