<?xml version="1.0" encoding="UTF-8"?>
<svg id="Layer_1" data-name="Layer 1" xmlns="http://www.w3.org/2000/svg" version="1.1" viewBox="0 0 254 15">
  <path d="M6.2,10.5c2,0,3.3-1.5,3.3-3.9h0c0-2.3-1.2-4-3.3-4s-3.3,1.5-3.3,3.9h0c0,2.5,1.4,4,3.4,4ZM6.1,12.1c-3.3,0-5.4-2.4-5.4-5.4h0C.7,3.5,2.9,1.1,6.1,1.1s5.4,2.3,5.4,5.4h0c0,3.3-2.1,5.6-5.4,5.6ZM16.6,12v-6.5h-1.1v-1.4h1.1v-1.1c0-1.7,1-2.7,2.6-2.7s.7,0,1,.2v1.4c-.2,0-.5-.1-.8-.1-.7,0-1,.5-1,1.2v1.1h1.8v1.4h-1.8v6.5h-1.8ZM24,12.1c-1.5,0-2.7-.9-2.7-3v-5h1.8v4.8c0,1.2.5,1.7,1.5,1.7s1.8-.6,1.8-1.9v-4.7h1.8v7.8h-1.8v-1.2c-.4.8-1.2,1.4-2.5,1.4ZM32.9,12.1c-1.6,0-2.4-.8-2.4-2.3v-4.3h-1.1v-1.4h1.1v-1.7h1.8v1.7h1.7v1.4h-1.7v4.1c0,.7.3,1,.9,1s.6,0,.9-.1v1.4c-.3.1-.7.2-1.2.2ZM38,12.1c-1.5,0-2.7-.9-2.7-3v-5h1.8v4.8c0,1.2.5,1.7,1.5,1.7s1.8-.6,1.8-1.9v-4.7h1.8v7.8h-1.8v-1.2c-.4.8-1.2,1.4-2.5,1.4ZM44.2,12v-7.8h1.8v1.5c.5-1,1.2-1.6,2.5-1.6v1.7c-1.6,0-2.5.5-2.5,2.2v4.1h-1.8ZM53.2,10.7c1.3,0,2.2-1,2.2-2.6h0c0-1.7-.8-2.7-2.2-2.7s-2.2,1-2.2,2.6h0c0,1.7.8,2.7,2.2,2.7ZM53.2,12.1c-2.3,0-4-1.6-4-4h0c0-2.5,1.7-4.2,4-4.2s4,1.6,4,4h0c0,2.6-1.7,4.2-4,4.2ZM60.8,14.8v-1.4c.8,0,1.1-.4,1.1-1.1V4.2h1.8v8.1c0,1.6-.7,2.5-2.9,2.5ZM62.8,2.9c-.6,0-1.1-.5-1.1-1s.5-1.1,1.1-1.1,1.1.5,1.1,1.1-.5,1-1.1,1ZM67.7,12.1c-1.4,0-2.6-.7-2.6-2.3s1.8-2.5,4-2.5h1v-.4c0-1-.4-1.6-1.4-1.6s-1.4.4-1.5,1.2h-1.8c.2-1.8,1.6-2.6,3.4-2.6s3.1.7,3.1,2.9v5.1h-1.8v-1c-.5.7-1.2,1.1-2.4,1.1ZM68.1,10.8c1.1,0,1.9-.6,1.9-1.6v-.8h-.9c-1.4,0-2.3.3-2.3,1.3s.4,1.1,1.3,1.1ZM68,3l.9-2.3h2l-1.6,2.3h-1.3ZM80.4,12.1c-2.3,0-4-1.5-4-4h0c0-2.5,1.7-4.2,3.9-4.2s3.7,1.2,3.7,4v.5h-5.7c0,1.5.8,2.3,2.2,2.3s1.7-.4,1.8-1.2h1.8c-.3,1.6-1.6,2.5-3.6,2.5ZM78.3,7.3h3.9c0-1.4-.8-2-1.9-2s-1.8.7-2,2ZM88.1,12.1c-2,0-3.2-.9-3.3-2.6h1.7c0,.8.5,1.3,1.6,1.3s1.4-.3,1.4-1-.5-.9-1.7-1.1c-2.1-.3-2.8-.9-2.8-2.4s1.5-2.4,2.9-2.4,2.9.6,3.1,2.4h-1.7c-.2-.7-.6-1.1-1.4-1.1s-1.2.4-1.2.9.4.8,1.6,1c1.8.3,2.9.7,2.9,2.4s-1.1,2.5-3.1,2.5ZM95.2,12.1c-1.6,0-2.4-.8-2.4-2.3v-4.3h-1.1v-1.4h1.1v-1.7h1.8v1.7h1.7v1.4h-1.7v4.1c0,.7.3,1,.9,1s.6,0,.9-.1v1.4c-.3.1-.7.2-1.2.2ZM99.9,12.1c-1.4,0-2.6-.7-2.6-2.3s1.8-2.5,4-2.5h1v-.4c0-1-.4-1.6-1.4-1.6s-1.4.4-1.5,1.2h-1.8c.2-1.8,1.6-2.6,3.4-2.6s3.1.7,3.1,2.9v5.1h-1.8v-1c-.5.7-1.2,1.1-2.4,1.1ZM100.3,10.8c1.1,0,1.9-.6,1.9-1.6v-.8h-.9c-1.4,0-2.3.3-2.3,1.3s.4,1.1,1.3,1.1ZM100.2,3l.9-2.3h2l-1.6,2.3h-1.3ZM111.2,12.1c-1.4,0-2.6-.7-2.6-2.3s1.8-2.5,4-2.5h1v-.4c0-1-.4-1.6-1.4-1.6s-1.4.4-1.5,1.2h-1.8c.1-1.8,1.6-2.6,3.4-2.6s3.1.7,3.1,2.9v5.1h-1.8v-1c-.5.7-1.2,1.1-2.4,1.1ZM111.6,10.8c1.1,0,1.9-.6,1.9-1.6v-.8h-.9c-1.4,0-2.3.3-2.3,1.3s.4,1.1,1.3,1.1ZM120.6,12.1c-2.2,0-4-1.5-4-4h0c0-2.6,1.8-4.2,4-4.2s3.4.8,3.6,2.9h-1.8c-.2-1-.8-1.5-1.8-1.5s-2.1,1-2.1,2.6h0c0,1.8.8,2.7,2.2,2.7s1.8-.6,1.9-1.7h1.7c-.1,1.8-1.5,3.1-3.6,3.1ZM129,10.7c1.3,0,2.2-1,2.2-2.6h0c0-1.7-.8-2.7-2.2-2.7s-2.2,1-2.2,2.6h0c0,1.7.8,2.7,2.2,2.7ZM129,12.1c-2.3,0-4-1.6-4-4h0c0-2.5,1.7-4.2,4-4.2s4,1.6,4,4h0c0,2.6-1.7,4.2-4,4.2ZM134.3,12v-7.8h1.8v1.2c.4-.8,1.2-1.4,2.5-1.4s2.7.9,2.7,3.1v4.9h-1.8v-4.8c0-1.2-.5-1.7-1.6-1.7s-1.8.6-1.8,1.9v4.6h-1.8ZM145.8,12.1c-1.6,0-2.4-.8-2.4-2.3v-4.3h-1v-1.4h1v-1.7h1.8v1.7h1.7v1.4h-1.7v4.1c0,.7.3,1,.9,1s.6,0,.9-.1v1.4c-.3.1-.7.2-1.2.2ZM151.9,12.1c-2.3,0-4-1.5-4-4h0c0-2.5,1.7-4.2,3.9-4.2s3.7,1.2,3.7,4v.5h-5.7c0,1.5.8,2.3,2.2,2.3s1.7-.4,1.8-1.2h1.8c-.3,1.6-1.6,2.5-3.6,2.5ZM149.8,7.3h3.9c0-1.4-.8-2-1.9-2s-1.8.7-2,2ZM160.2,12.1c-2.2,0-4-1.5-4-4h0c0-2.6,1.8-4.2,4-4.2s3.4.8,3.6,2.9h-1.8c-.2-1-.8-1.5-1.8-1.5s-2.1,1-2.1,2.6h0c0,1.8.8,2.7,2.2,2.7s1.8-.6,1.9-1.7h1.7c-.1,1.8-1.5,3.1-3.6,3.1ZM168.6,12.1c-2.3,0-4-1.5-4-4h0c0-2.5,1.7-4.2,3.9-4.2s3.7,1.2,3.7,4v.5h-5.7c0,1.5.8,2.3,2.2,2.3s1.7-.4,1.8-1.2h1.8c-.3,1.6-1.6,2.5-3.6,2.5ZM166.5,7.3h3.9c0-1.4-.8-2-1.9-2s-1.8.7-2,2ZM173.5,12v-7.8h1.8v1.2c.4-.8,1.2-1.4,2.5-1.4s2.7.9,2.7,3.1v4.9h-1.8v-4.8c0-1.2-.5-1.7-1.6-1.7s-1.8.6-1.8,1.9v4.6h-1.8ZM185.3,12.1c-2,0-3.4-1.4-3.4-3.9h0c0-2.6,1.5-4.2,3.5-4.2s2.1.6,2.5,1.4V.5h1.8v11.5h-1.8v-1.3c-.4.8-1.4,1.5-2.6,1.5ZM185.8,10.7c1.3,0,2.2-.8,2.2-2.6h0c0-1.8-.8-2.7-2.1-2.7s-2.1.9-2.1,2.6h0c0,1.8.9,2.7,2,2.7ZM195.1,10.7c1.4,0,2.2-1,2.2-2.6h0c0-1.7-.8-2.7-2.2-2.7s-2.2,1-2.2,2.6h0c0,1.7.8,2.7,2.2,2.7ZM195,12.1c-2.3,0-4-1.6-4-4h0c0-2.5,1.7-4.2,4-4.2s4,1.6,4,4h0c0,2.6-1.7,4.2-4,4.2ZM203.7,12v-7.8h1.8v1.2c.4-.8,1.2-1.4,2.5-1.4s2.7.9,2.7,3.1v4.9h-1.8v-4.8c0-1.2-.5-1.7-1.6-1.7s-1.8.6-1.8,1.9v4.6h-1.8ZM214.6,12.1c-1.4,0-2.6-.7-2.6-2.3s1.8-2.5,4-2.5h1v-.4c0-1-.4-1.6-1.4-1.6s-1.4.4-1.5,1.2h-1.8c.2-1.8,1.6-2.6,3.4-2.6s3.1.7,3.1,2.9v5.1h-1.8v-1c-.5.7-1.2,1.1-2.4,1.1ZM215,10.8c1.1,0,1.9-.6,1.9-1.6v-.8h-.9c-1.4,0-2.3.3-2.3,1.3s.4,1.1,1.3,1.1ZM224,12V1.3h3.8c2.2,0,3.5.8,3.5,2.8h0c0,1.1-.5,2-1.7,2.3,1.5.3,2.1,1.1,2.1,2.5h0c0,2.1-1.3,3.1-3.7,3.1h-4.1ZM225.9,10.6h1.9c1.3,0,1.9-.6,1.9-1.7h0c0-1.2-.6-1.7-2.1-1.7h-1.8v3.4ZM225.9,5.8h1.6c1.3,0,1.8-.5,1.8-1.6h0c0-1.1-.6-1.5-1.9-1.5h-1.6v3.1ZM233.3,12V1.3h2v4.6h4.8V1.3h2v10.7h-2v-4.6h-4.8v4.6h-2ZM244.3,12V1.3h3.4c2.4,0,4,1.1,4,3.3h0c0,2.3-1.6,3.3-3.9,3.3h-1.5v4.1h-2ZM246.3,6.5h1.5c1.3,0,2-.6,2-1.8h0c0-1.3-.8-1.8-2-1.8h-1.5v3.7ZM252.4,12.1c-.7,0-1.2-.5-1.2-1.2s.5-1.2,1.2-1.2,1.2.5,1.2,1.2-.5,1.2-1.2,1.2Z" fill="#dd5900" stroke-width="0"/>
</svg>