<svg width="155" height="14" viewBox="0 0 155 14" fill="none" xmlns="http://www.w3.org/2000/svg">
<path d="M4.712 13.16C1.848 13.16 0.216 11.592 0.216 8.648V1.56H2.36V8.488C2.36 10.584 3.032 11.448 4.728 11.448C6.376 11.448 7.208 10.712 7.208 8.344V1.56H9.352V8.52C9.352 11.512 7.736 13.16 4.712 13.16ZM11.3164 13V4.632H13.2524V5.912C13.6524 5.128 14.5644 4.456 15.7964 4.456C16.8844 4.456 17.7484 4.92 18.1644 5.96C18.8044 4.92 19.9564 4.456 20.9964 4.456C22.5324 4.456 23.7804 5.4 23.7804 7.704V13H21.8444V7.832C21.8444 6.6 21.3164 6.072 20.3564 6.072C19.3964 6.072 18.5164 6.712 18.5164 7.992V13H16.5804V7.832C16.5804 6.6 16.0364 6.072 15.0924 6.072C14.1324 6.072 13.2524 6.712 13.2524 7.992V13H11.3164ZM31.3684 13.16C29.8324 13.16 28.5684 12.424 28.5684 10.68C28.5684 8.728 30.4564 8.024 32.8564 8.024H33.8964V7.592C33.8964 6.472 33.5124 5.912 32.3764 5.912C31.3684 5.912 30.8724 6.392 30.7764 7.224H28.9044C29.0644 5.272 30.6164 4.456 32.4884 4.456C34.3604 4.456 35.8324 5.224 35.8324 7.512V13H33.9284V11.976C33.3844 12.696 32.6484 13.16 31.3684 13.16ZM31.8324 11.768C33.0164 11.768 33.8964 11.144 33.8964 10.072V9.24H32.9044C31.4324 9.24 30.4884 9.576 30.4884 10.6C30.4884 11.304 30.8724 11.768 31.8324 11.768ZM37.7314 13V4.632H39.6674V5.912C40.0674 5.128 40.9794 4.456 42.2114 4.456C43.2994 4.456 44.1634 4.92 44.5794 5.96C45.2194 4.92 46.3714 4.456 47.4114 4.456C48.9474 4.456 50.1954 5.4 50.1954 7.704V13H48.2594V7.832C48.2594 6.6 47.7314 6.072 46.7714 6.072C45.8114 6.072 44.9314 6.712 44.9314 7.992V13H42.9954V7.832C42.9954 6.6 42.4514 6.072 41.5074 6.072C40.5474 6.072 39.6674 6.712 39.6674 7.992V13H37.7314ZM54.2909 13.16C52.7549 13.16 51.4909 12.424 51.4909 10.68C51.4909 8.728 53.3789 8.024 55.7789 8.024H56.8189V7.592C56.8189 6.472 56.4349 5.912 55.2989 5.912C54.2909 5.912 53.7949 6.392 53.6989 7.224H51.8269C51.9869 5.272 53.5389 4.456 55.4109 4.456C57.2829 4.456 58.7549 5.224 58.7549 7.512V13H56.8509V11.976C56.3069 12.696 55.5709 13.16 54.2909 13.16ZM54.7549 11.768C55.9389 11.768 56.8189 11.144 56.8189 10.072V9.24H55.8269C54.3549 9.24 53.4109 9.576 53.4109 10.6C53.4109 11.304 53.7949 11.768 54.7549 11.768ZM60.6539 13V4.632H62.5899V5.96C62.9899 5.144 63.9179 4.456 65.2939 4.456C66.9739 4.456 68.1579 5.432 68.1579 7.736V13H66.2219V7.912C66.2219 6.648 65.7099 6.072 64.5579 6.072C63.4699 6.072 62.5899 6.744 62.5899 8.072V13H60.6539ZM70.0683 13V0.759999H72.0043V5.96C72.4043 5.144 73.3323 4.456 74.7083 4.456C76.3883 4.456 77.5723 5.432 77.5723 7.736V13H75.6363V7.912C75.6363 6.648 75.1243 6.072 73.9723 6.072C72.8843 6.072 72.0043 6.744 72.0043 8.072V13H70.0683ZM81.6746 13.16C80.1386 13.16 78.8746 12.424 78.8746 10.68C78.8746 8.728 80.7626 8.024 83.1626 8.024H84.2026V7.592C84.2026 6.472 83.8186 5.912 82.6826 5.912C81.6746 5.912 81.1786 6.392 81.0826 7.224H79.2106C79.3706 5.272 80.9226 4.456 82.7946 4.456C84.6666 4.456 86.1386 5.224 86.1386 7.512V13H84.2346V11.976C83.6906 12.696 82.9546 13.16 81.6746 13.16ZM82.1386 11.768C83.3226 11.768 84.2026 11.144 84.2026 10.072V9.24H83.2106C81.7386 9.24 80.7946 9.576 80.7946 10.6C80.7946 11.304 81.1786 11.768 82.1386 11.768ZM83.7226 3.304C82.9546 3.304 82.4106 2.664 81.9466 2.664C81.6586 2.664 81.4186 2.936 81.3546 3.304H80.1546C80.2826 1.96 80.9706 1.208 81.8666 1.208C82.6026 1.208 83.1626 1.832 83.6586 1.832C83.9466 1.832 84.1706 1.576 84.2346 1.192H85.4346C85.3066 2.536 84.6026 3.304 83.7226 3.304ZM91.5301 13V4.632H93.4661V5.912C93.8661 5.128 94.7781 4.456 96.0101 4.456C97.0981 4.456 97.9621 4.92 98.3781 5.96C99.0181 4.92 100.17 4.456 101.21 4.456C102.746 4.456 103.994 5.4 103.994 7.704V13H102.058V7.832C102.058 6.6 101.53 6.072 100.57 6.072C99.6101 6.072 98.7301 6.712 98.7301 7.992V13H96.7941V7.832C96.7941 6.6 96.2501 6.072 95.3061 6.072C94.3461 6.072 93.4661 6.712 93.4661 7.992V13H91.5301ZM109.578 13.16C107.114 13.16 105.338 11.544 105.338 8.904V8.776C105.338 6.184 107.114 4.456 109.498 4.456C111.578 4.456 113.45 5.688 113.45 8.68V9.24H107.322C107.386 10.824 108.186 11.72 109.626 11.72C110.794 11.72 111.402 11.256 111.546 10.44H113.418C113.146 12.2 111.722 13.16 109.578 13.16ZM107.354 7.944H111.53C111.434 6.504 110.698 5.864 109.498 5.864C108.33 5.864 107.546 6.648 107.354 7.944ZM114.907 13V0.759999H116.843V13H114.907ZM118.883 13V0.759999H120.819V5.96C121.219 5.144 122.147 4.456 123.523 4.456C125.203 4.456 126.387 5.432 126.387 7.736V13H124.451V7.912C124.451 6.648 123.939 6.072 122.787 6.072C121.699 6.072 120.819 6.744 120.819 8.072V13H118.883ZM132.041 11.656C133.481 11.656 134.345 10.584 134.345 8.872V8.76C134.345 7.032 133.481 5.976 132.041 5.976C130.601 5.976 129.721 7.016 129.721 8.744V8.872C129.721 10.584 130.569 11.656 132.041 11.656ZM132.025 13.16C129.561 13.16 127.737 11.448 127.737 8.904V8.776C127.737 6.184 129.577 4.456 132.041 4.456C134.489 4.456 136.329 6.168 136.329 8.728V8.856C136.329 11.464 134.489 13.16 132.025 13.16ZM137.758 13V4.632H139.694V6.2C140.222 5.144 141.006 4.52 142.414 4.504V6.312C140.718 6.328 139.694 6.872 139.694 8.648V13H137.758ZM150.058 3.384L151.002 0.903999H153.146L151.482 3.384H150.058ZM150.97 13.16C148.506 13.16 146.73 11.544 146.73 8.904V8.776C146.73 6.184 148.506 4.456 150.89 4.456C152.97 4.456 154.842 5.688 154.842 8.68V9.24H148.714C148.778 10.824 149.578 11.72 151.018 11.72C152.186 11.72 152.794 11.256 152.938 10.44H154.81C154.538 12.2 153.114 13.16 150.97 13.16ZM148.746 7.944H152.922C152.826 6.504 152.09 5.864 150.89 5.864C149.722 5.864 148.938 6.648 148.746 7.944Z" fill="black"/>
</svg>
