<svg width="111" height="16" viewBox="0 0 111 16" fill="none" xmlns="http://www.w3.org/2000/svg">
<path d="M6.56 11.448C8.72 11.448 10.08 9.8 10.08 7.32V7.192C10.08 4.84 8.768 3.096 6.528 3.096C4.288 3.096 2.96 4.744 2.96 7.208V7.336C2.96 9.832 4.48 11.448 6.56 11.448ZM6.528 13.16C3.024 13.16 0.736 10.648 0.736 7.352V7.224C0.736 3.88 3.136 1.4 6.528 1.4C9.936 1.4 12.288 3.816 12.288 7.176V7.304C12.288 10.648 10 13.16 6.528 13.16ZM17.6918 13V6.088H16.5558V4.632H17.6918V3.512C17.6918 1.672 18.7158 0.679999 20.5078 0.679999C20.9718 0.679999 21.2598 0.728 21.6118 0.839999V2.344C21.3878 2.264 21.0838 2.2 20.7318 2.2C19.9478 2.2 19.6278 2.712 19.6278 3.432V4.632H21.5318V6.088H19.6278V13H17.6918ZM25.6326 13.16C23.9846 13.16 22.7526 12.216 22.7526 9.992V4.632H24.6886V9.768C24.6886 11.032 25.2166 11.608 26.3366 11.608C27.3766 11.608 28.2886 10.936 28.2886 9.608V4.632H30.2246V13H28.2886V11.688C27.8726 12.504 26.9926 13.16 25.6326 13.16ZM35.0481 13.144C33.3841 13.144 32.5201 12.248 32.5201 10.664V6.088H31.4001V4.632H32.5201V2.792H34.4561V4.632H36.2961V6.088H34.4561V10.488C34.4561 11.224 34.8081 11.56 35.4161 11.56C35.8001 11.56 36.0881 11.512 36.3601 11.4V12.936C36.0561 13.048 35.6401 13.144 35.0481 13.144ZM40.5864 13.16C38.9384 13.16 37.7064 12.216 37.7064 9.992V4.632H39.6424V9.768C39.6424 11.032 40.1704 11.608 41.2904 11.608C42.3304 11.608 43.2424 10.936 43.2424 9.608V4.632H45.1784V13H43.2424V11.688C42.8264 12.504 41.9464 13.16 40.5864 13.16ZM47.1539 13V4.632H49.0899V6.2C49.6179 5.144 50.4019 4.52 51.8099 4.504V6.312C50.1139 6.328 49.0899 6.872 49.0899 8.648V13H47.1539ZM56.781 11.656C58.221 11.656 59.085 10.584 59.085 8.872V8.76C59.085 7.032 58.221 5.976 56.781 5.976C55.341 5.976 54.461 7.016 54.461 8.744V8.872C54.461 10.584 55.309 11.656 56.781 11.656ZM56.765 13.16C54.301 13.16 52.477 11.448 52.477 8.904V8.776C52.477 6.184 54.317 4.456 56.781 4.456C59.229 4.456 61.069 6.168 61.069 8.728V8.856C61.069 11.464 59.229 13.16 56.765 13.16ZM64.8868 16.008V14.52C65.7348 14.456 66.0388 14.04 66.0388 13.336V4.632H67.9748V13.288C67.9748 14.984 67.2068 15.976 64.8868 16.008ZM66.9828 3.256C66.3428 3.256 65.8308 2.776 65.8308 2.152C65.8308 1.512 66.3428 1.032 66.9828 1.032C67.6228 1.032 68.1348 1.512 68.1348 2.152C68.1348 2.776 67.6228 3.256 66.9828 3.256ZM72.2065 13.16C70.6705 13.16 69.4065 12.424 69.4065 10.68C69.4065 8.728 71.2945 8.024 73.6945 8.024H74.7345V7.592C74.7345 6.472 74.3505 5.912 73.2145 5.912C72.2065 5.912 71.7105 6.392 71.6145 7.224H69.7425C69.9025 5.272 71.4545 4.456 73.3265 4.456C75.1985 4.456 76.6705 5.224 76.6705 7.512V13H74.7665V11.976C74.2225 12.696 73.4865 13.16 72.2065 13.16ZM72.6705 11.768C73.8545 11.768 74.7345 11.144 74.7345 10.072V9.24H73.7425C72.2705 9.24 71.3265 9.576 71.3265 10.6C71.3265 11.304 71.7105 11.768 72.6705 11.768ZM72.5265 3.384L73.4705 0.903999H75.6145L73.9505 3.384H72.5265ZM85.742 13.16C83.278 13.16 81.502 11.544 81.502 8.904V8.776C81.502 6.184 83.278 4.456 85.662 4.456C87.742 4.456 89.614 5.688 89.614 8.68V9.24H83.486C83.55 10.824 84.35 11.72 85.79 11.72C86.958 11.72 87.566 11.256 87.71 10.44H89.582C89.31 12.2 87.886 13.16 85.742 13.16ZM83.518 7.944H87.694C87.598 6.504 86.862 5.864 85.662 5.864C84.494 5.864 83.71 6.648 83.518 7.944ZM93.9654 13.16C91.8054 13.16 90.5414 12.168 90.4614 10.392H92.2854C92.3814 11.24 92.8134 11.736 93.9494 11.736C94.9894 11.736 95.4534 11.368 95.4534 10.664C95.4534 9.976 94.8934 9.72 93.6614 9.512C91.4534 9.16 90.6374 8.536 90.6374 6.968C90.6374 5.288 92.2054 4.456 93.7734 4.456C95.4854 4.456 96.8454 5.096 97.0534 6.984H95.2614C95.1014 6.216 94.6694 5.864 93.7734 5.864C92.9414 5.864 92.4454 6.264 92.4454 6.856C92.4454 7.464 92.8454 7.704 94.1734 7.928C96.1414 8.232 97.3094 8.712 97.3094 10.488C97.3094 12.184 96.1094 13.16 93.9654 13.16ZM101.536 13.144C99.8716 13.144 99.0076 12.248 99.0076 10.664V6.088H97.8876V4.632H99.0076V2.792H100.944V4.632H102.784V6.088H100.944V10.488C100.944 11.224 101.296 11.56 101.904 11.56C102.288 11.56 102.576 11.512 102.848 11.4V12.936C102.544 13.048 102.128 13.144 101.536 13.144ZM106.544 13.16C105.008 13.16 103.744 12.424 103.744 10.68C103.744 8.728 105.632 8.024 108.032 8.024H109.072V7.592C109.072 6.472 108.688 5.912 107.552 5.912C106.544 5.912 106.048 6.392 105.952 7.224H104.08C104.24 5.272 105.792 4.456 107.664 4.456C109.536 4.456 111.008 5.224 111.008 7.512V13H109.104V11.976C108.56 12.696 107.824 13.16 106.544 13.16ZM107.008 11.768C108.192 11.768 109.072 11.144 109.072 10.072V9.24H108.08C106.608 9.24 105.664 9.576 105.664 10.6C105.664 11.304 106.048 11.768 107.008 11.768ZM106.864 3.384L107.808 0.903999H109.952L108.288 3.384H106.864Z" fill="#DD5900"/>
</svg>
