<svg width="190" height="37" viewBox="0 0 190 37" fill="none" xmlns="http://www.w3.org/2000/svg">
<path d="M0 0H171.852C181.329 0 189.011 7.6824 189.011 17.1591V18.8521C189.011 28.3288 181.329 36.0112 171.852 36.0112H0V0Z" fill="#00DFED"/>
<path d="M48.4338 25.5056L52.0996 10.6472H56.8934L60.5809 25.5056H58.1514L57.3489 22.317H51.6441L50.8415 25.5056H48.4338ZM53.9651 12.6645L52.1213 20.1913H56.8717L55.0496 12.6645H53.9651ZM68.0836 19.8225V17.6968H72.3134V25.2453C71.9229 25.3465 71.1276 25.455 69.9274 25.5707C68.7416 25.6864 67.8812 25.7442 67.3461 25.7442C65.0902 25.7442 63.5357 25.1224 62.6825 23.8788C61.8293 22.6352 61.4027 20.6902 61.4027 18.0439C61.4027 15.3831 61.8366 13.4453 62.7042 12.2306C63.5863 11.0159 65.1047 10.4086 67.2594 10.4086C68.5319 10.4086 69.9635 10.5532 71.5542 10.8424L72.3134 10.9942L72.2266 12.9031C70.4769 12.6717 68.9079 12.556 67.5196 12.556C66.1314 12.556 65.177 12.9465 64.6564 13.7273C64.1503 14.5082 63.8972 15.9543 63.8972 18.0656C63.8972 20.1768 64.1358 21.6374 64.613 22.4472C65.1047 23.2425 66.088 23.6402 67.563 23.6402C68.6187 23.6402 69.4068 23.5751 69.9274 23.445V19.8225H68.0836ZM83.2301 25.5056H74.9007V10.6472H77.3084V23.3582H83.2301V25.5056ZM89.094 10.6472H94.7337C96.2521 10.6472 97.3873 10.9581 98.1392 11.5799C98.8912 12.1873 99.2672 13.1634 99.2672 14.5082C99.2672 15.3903 99.1225 16.0844 98.8333 16.5906C98.5586 17.0967 98.1175 17.516 97.5102 17.8486C98.9273 18.3982 99.6359 19.5478 99.6359 21.2975C99.6359 24.1029 98.0597 25.5056 94.9072 25.5056H89.094V10.6472ZM94.7337 19.02H91.5017V23.4233H94.7771C95.5724 23.4233 96.1653 23.257 96.5558 22.9244C96.9607 22.5918 97.1631 22.0206 97.1631 21.2108C97.1631 20.401 96.9317 19.837 96.469 19.5189C96.0063 19.1863 95.4278 19.02 94.7337 19.02ZM94.6036 12.7295H91.5017V16.981H94.6903C96.1075 16.981 96.8161 16.2507 96.8161 14.7902C96.8161 13.4164 96.0786 12.7295 94.6036 12.7295ZM108.232 14.6601H110.575V25.5056H108.232V24.8332C107.177 25.4405 106.2 25.7442 105.304 25.7442C103.814 25.7442 102.817 25.3465 102.311 24.5512C101.804 23.7414 101.551 22.3315 101.551 20.3214V14.6601H103.916V20.3431C103.916 21.6446 104.024 22.5195 104.241 22.9678C104.458 23.416 104.964 23.6402 105.759 23.6402C106.54 23.6402 107.256 23.4956 107.907 23.2064L108.232 23.0762V14.6601ZM120.53 16.8942C118.824 16.6629 117.588 16.5472 116.821 16.5472C116.055 16.5472 115.52 16.6412 115.216 16.8292C114.927 17.0027 114.782 17.2847 114.782 17.6751C114.782 18.0656 114.941 18.3403 115.259 18.4994C115.592 18.6584 116.358 18.8464 117.559 19.0633C118.773 19.2658 119.634 19.5912 120.14 20.0395C120.646 20.4877 120.899 21.2831 120.899 22.4255C120.899 23.5679 120.53 24.4066 119.793 24.9416C119.07 25.4767 118.007 25.7442 116.604 25.7442C115.722 25.7442 114.609 25.6213 113.264 25.3755L112.591 25.267L112.678 23.2931C114.413 23.5245 115.664 23.6402 116.431 23.6402C117.197 23.6402 117.739 23.5462 118.058 23.3582C118.39 23.1702 118.557 22.8593 118.557 22.4255C118.557 21.9917 118.397 21.6952 118.079 21.5361C117.776 21.3626 117.031 21.1818 115.845 20.9939C114.674 20.7914 113.813 20.4805 113.264 20.0611C112.714 19.6418 112.44 18.8754 112.44 17.7619C112.44 16.6484 112.816 15.8169 113.568 15.2674C114.334 14.7179 115.31 14.4431 116.496 14.4431C117.421 14.4431 118.557 14.5588 119.901 14.7902L120.574 14.9203L120.53 16.8942ZM122.737 25.5056V14.6601H125.102V25.5056H122.737ZM122.737 12.8163V10.3218H125.102V12.8163H122.737ZM129.9 25.5056H127.536V14.6601H129.878V15.3325C130.934 14.7251 131.932 14.4214 132.872 14.4214C134.318 14.4214 135.301 14.8336 135.822 15.6578C136.357 16.4676 136.624 17.8125 136.624 19.6924V25.5056H134.282V19.7575C134.282 18.5861 134.152 17.7547 133.891 17.263C133.645 16.7713 133.132 16.5255 132.351 16.5255C131.614 16.5255 130.905 16.6701 130.225 16.9593L129.9 17.0895V25.5056ZM146.665 23.5534L147.273 23.4883L147.316 25.2453C145.667 25.5779 144.207 25.7442 142.934 25.7442C141.329 25.7442 140.172 25.3032 139.464 24.4211C138.77 23.539 138.423 22.129 138.423 20.1913C138.423 16.3447 139.992 14.4214 143.13 14.4214C146.166 14.4214 147.685 16.0772 147.685 19.3887L147.533 21.0806H140.809C140.823 21.9772 141.018 22.6352 141.394 23.0545C141.77 23.4739 142.472 23.6836 143.498 23.6836C144.525 23.6836 145.581 23.6402 146.665 23.5534ZM145.364 19.2586C145.364 18.1885 145.19 17.4437 144.843 17.0244C144.511 16.5906 143.939 16.3736 143.13 16.3736C142.32 16.3736 141.727 16.5978 141.351 17.0461C140.989 17.4944 140.801 18.2319 140.787 19.2586H145.364ZM157.051 16.8942C155.345 16.6629 154.108 16.5472 153.342 16.5472C152.576 16.5472 152.04 16.6412 151.737 16.8292C151.448 17.0027 151.303 17.2847 151.303 17.6751C151.303 18.0656 151.462 18.3403 151.78 18.4994C152.113 18.6584 152.879 18.8464 154.079 19.0633C155.294 19.2658 156.155 19.5912 156.661 20.0395C157.167 20.4877 157.42 21.2831 157.42 22.4255C157.42 23.5679 157.051 24.4066 156.314 24.9416C155.591 25.4767 154.528 25.7442 153.125 25.7442C152.243 25.7442 151.129 25.6213 149.785 25.3755L149.112 25.267L149.199 23.2931C150.934 23.5245 152.185 23.6402 152.952 23.6402C153.718 23.6402 154.26 23.5462 154.578 23.3582C154.911 23.1702 155.077 22.8593 155.077 22.4255C155.077 21.9917 154.918 21.6952 154.6 21.5361C154.296 21.3626 153.552 21.1818 152.366 20.9939C151.195 20.7914 150.334 20.4805 149.785 20.0611C149.235 19.6418 148.96 18.8754 148.96 17.7619C148.96 16.6484 149.336 15.8169 150.088 15.2674C150.855 14.7179 151.831 14.4431 153.017 14.4431C153.942 14.4431 155.077 14.5588 156.422 14.7902L157.095 14.9203L157.051 16.8942ZM166.785 16.8942C165.079 16.6629 163.842 16.5472 163.076 16.5472C162.309 16.5472 161.774 16.6412 161.471 16.8292C161.181 17.0027 161.037 17.2847 161.037 17.6751C161.037 18.0656 161.196 18.3403 161.514 18.4994C161.847 18.6584 162.613 18.8464 163.813 19.0633C165.028 19.2658 165.888 19.5912 166.395 20.0395C166.901 20.4877 167.154 21.2831 167.154 22.4255C167.154 23.5679 166.785 24.4066 166.048 24.9416C165.325 25.4767 164.262 25.7442 162.859 25.7442C161.977 25.7442 160.863 25.6213 159.519 25.3755L158.846 25.267L158.933 23.2931C160.668 23.5245 161.919 23.6402 162.685 23.6402C163.452 23.6402 163.994 23.5462 164.312 23.3582C164.645 23.1702 164.811 22.8593 164.811 22.4255C164.811 21.9917 164.652 21.6952 164.334 21.5361C164.03 21.3626 163.286 21.1818 162.1 20.9939C160.928 20.7914 160.068 20.4805 159.519 20.0611C158.969 19.6418 158.694 18.8754 158.694 17.7619C158.694 16.6484 159.07 15.8169 159.822 15.2674C160.589 14.7179 161.565 14.4431 162.75 14.4431C163.676 14.4431 164.811 14.5588 166.156 14.7902L166.828 14.9203L166.785 16.8942Z" fill="#001CB0"/>
</svg>
