<svg width="271" height="108" viewBox="0 0 271 108" fill="none" xmlns="http://www.w3.org/2000/svg">
<path d="M15.3262 21.3191C17.3564 21.5156 19.223 21.7778 20.9258 22.1052L21.7607 22.3015L21.2207 27.5085C18.8301 27.2466 16.6192 27.0497 14.5889 26.9187L13.6064 34.8279C17.0122 35.9085 19.3206 37.1039 20.5322 38.4138C21.7766 39.6909 22.3994 41.6389 22.3994 44.2585C22.3994 47.6643 21.3678 50.2519 19.3047 52.0203C17.2416 53.7558 14.5394 54.6238 11.1992 54.6238H11.1504L10.4141 60.4197C7.99102 60.3214 6.77859 60.2069 6.77832 60.0759L7.4668 54.3777C5.04348 54.083 3.01237 53.7394 1.375 53.3464L0.392578 53.1501L1.03125 48.0408C3.61828 48.401 6.00906 48.6471 8.20312 48.7781L9.28418 40.2312C5.91119 39.216 3.52045 37.9875 2.1123 36.5466C0.704171 35.1057 0 33.1409 0 30.6521C3.25852e-05 27.4102 0.982449 25.0032 2.94727 23.4314C4.91202 21.8269 7.61352 21.0242 11.0518 21.0242H11.6904L12.5752 14.2458H16.21L15.3262 21.3191ZM11.8877 48.8269C14.5399 48.5321 15.8662 47.1569 15.8662 44.7009C15.8662 43.915 15.6372 43.2761 15.1787 42.7849C14.753 42.261 13.9665 41.7697 12.8203 41.3113L11.8877 48.8269ZM10.9541 26.821C8.00704 26.952 6.53341 28.0814 6.5332 30.2097C6.5332 30.9955 6.77849 31.6346 7.26953 32.1257C7.76074 32.6169 8.711 33.1242 10.1191 33.6482L10.9541 26.821Z" fill="#FFE344"/>
<path d="M69.3101 27.2129H40.3286L38.6587 41.2617C42.7194 39.6899 46.5838 38.9043 50.2515 38.9043C64.2672 38.9043 71.2748 45.4209 71.2749 58.4541C71.2749 65.7895 69.3431 71.455 65.479 75.4502C61.6149 79.4453 56.1461 81.4433 49.0728 81.4434C46.0601 81.4434 42.6214 81.148 38.7573 80.5586C34.9587 79.9692 31.9129 79.3473 29.6206 78.6924L26.0835 77.8086L27.5571 67.7871C35.4818 69.0315 42.0968 69.6543 47.4019 69.6543C50.611 69.6543 53.0672 68.8024 54.77 67.0996C56.4728 65.3968 57.3247 62.9737 57.3247 59.8301C57.3247 56.6208 56.6045 54.2954 55.1636 52.8545C53.7227 51.4137 51.6924 50.6934 49.0728 50.6934C44.6846 50.6934 40.8202 51.1193 37.48 51.9707L36.0063 52.3633L27.9507 50.4971L29.7183 15.4238H69.3101V27.2129ZM101.688 14.2451C110.006 14.2451 116.261 16.9303 120.453 22.3008C124.71 27.6714 126.838 36.3172 126.838 48.2373C126.838 60.0919 124.742 68.6062 120.55 73.7803C116.359 78.8887 110.071 81.4434 101.688 81.4434C93.3047 81.4433 87.0173 78.8888 82.8257 73.7803C78.634 68.6062 76.5386 60.0919 76.5386 48.2373C76.5386 36.3172 78.634 27.6714 82.8257 22.3008C87.0828 16.9304 93.3704 14.2452 101.688 14.2451ZM154.697 14.2451C163.015 14.2451 169.27 16.9303 173.461 22.3008C177.719 27.6714 179.847 36.3172 179.847 48.2373C179.847 60.0919 177.751 68.6062 173.559 73.7803C169.367 78.8888 163.08 81.4434 154.697 81.4434C146.314 81.4433 140.026 78.8888 135.834 73.7803C131.643 68.6062 129.546 60.0919 129.546 48.2373C129.546 36.3172 131.643 27.6714 135.834 22.3008C140.092 16.9304 146.379 14.2451 154.697 14.2451ZM101.688 26.0342C97.6929 26.0342 94.8108 27.6716 93.0425 30.9463C91.3396 34.221 90.4888 39.8866 90.4888 47.9424C90.4888 55.998 91.3729 61.6305 93.1411 64.8398C94.9095 68.0491 97.7914 69.6543 101.787 69.6543C105.782 69.6542 108.631 68.049 110.333 64.8398C112.036 61.6305 112.888 55.998 112.888 47.9424C112.888 39.8211 112.036 34.1555 110.333 30.9463C108.631 27.6717 105.749 26.0342 101.688 26.0342ZM154.697 26.0342C150.702 26.0342 147.82 27.6716 146.051 30.9463C144.348 34.221 143.498 39.8866 143.498 47.9424C143.498 55.9981 144.382 61.6305 146.15 64.8398C147.918 68.0491 150.8 69.6543 154.795 69.6543C158.79 69.6542 161.639 68.049 163.342 64.8398C165.045 61.6305 165.897 55.998 165.897 47.9424C165.897 39.8211 165.045 34.1555 163.342 30.9463C161.639 27.6717 158.757 26.0342 154.697 26.0342Z" fill="#FFE344"/>
<path d="M189.721 74.8335C190.549 74.4735 191.299 74.2935 191.971 74.2935C193.207 74.2935 194.095 74.6414 194.635 75.3374C195.187 76.0214 195.463 77.2397 195.463 78.9917C195.463 80.7434 195.139 81.9676 194.491 82.6636C193.843 83.3475 192.703 83.6889 191.071 83.689C190.507 83.689 189.613 83.6349 188.389 83.5269L187.777 83.4731V70.7476H189.721V74.8335ZM216.396 74.2935C217.031 74.2935 217.782 74.3774 218.646 74.5454L219.096 74.6353L219.023 76.1831C218.076 76.0871 217.374 76.0396 216.918 76.0396C216.006 76.0396 215.394 76.2432 215.082 76.6509C214.77 77.0589 214.613 77.8276 214.613 78.9556C214.613 80.0834 214.764 80.8635 215.063 81.2954C215.363 81.7274 215.988 81.9429 216.936 81.9429L219.042 81.7993L219.096 83.3647C217.884 83.5807 216.971 83.689 216.359 83.689C214.992 83.6889 214.026 83.3231 213.462 82.5913C212.91 81.8474 212.634 80.6354 212.634 78.9556C212.634 77.2757 212.928 76.0816 213.516 75.3735C214.104 74.6536 215.064 74.2935 216.396 74.2935ZM230.18 74.2935C232.7 74.2935 233.96 75.6675 233.96 78.4155L233.834 79.8188H228.254C228.266 80.5628 228.428 81.1095 228.74 81.4575C229.052 81.8054 229.635 81.979 230.486 81.979C231.338 81.979 232.214 81.9436 233.114 81.8716L233.618 81.8169L233.654 83.2749C232.286 83.5509 231.074 83.6889 230.019 83.689C228.687 83.689 227.726 83.3233 227.138 82.5913C226.562 81.8593 226.274 80.6893 226.274 79.0815C226.274 75.8897 227.576 74.2936 230.18 74.2935ZM242.831 83.4917H240.887V83.0229C240.011 83.4669 239.207 83.689 238.475 83.689C237.299 83.6889 236.435 83.3353 235.883 82.6274C235.343 81.9194 235.072 80.731 235.072 79.063C235.072 77.3951 235.373 76.1832 235.973 75.4272C236.585 74.6713 237.533 74.2935 238.816 74.2935C239.248 74.2935 239.933 74.3709 240.869 74.5269V70.7476H242.831V83.4917ZM251.188 74.4917H253.671V76.1655H251.188V80.1255C251.188 80.8573 251.242 81.3435 251.35 81.5835C251.458 81.8232 251.733 81.9428 252.177 81.9429L253.653 81.8892L253.743 83.4556C252.939 83.6115 252.327 83.689 251.907 83.689C250.887 83.689 250.185 83.4548 249.801 82.9868C249.429 82.5187 249.243 81.6368 249.243 80.3413V76.1655H248.091V74.4917H249.243V71.8813H251.188V74.4917ZM257.818 74.311C258.586 74.311 259.529 74.4071 260.645 74.5991L261.202 74.7075L261.166 76.3452C259.751 76.1533 258.725 76.0572 258.089 76.0571C257.453 76.0571 257.009 76.1356 256.757 76.2915C256.517 76.4355 256.396 76.6697 256.396 76.9937C256.397 77.3173 256.528 77.5453 256.792 77.6772C257.068 77.8092 257.704 77.965 258.7 78.145C259.708 78.313 260.423 78.5836 260.843 78.9556C261.263 79.3276 261.473 79.9874 261.473 80.9351C261.473 81.8829 261.166 82.5789 260.555 83.0229C259.955 83.4669 259.072 83.689 257.908 83.689C257.176 83.6889 256.252 83.5872 255.137 83.3833L254.578 83.2935L254.65 81.6548C256.09 81.8468 257.129 81.9429 257.765 81.9429C258.4 81.9429 258.85 81.8654 259.114 81.7095C259.39 81.5535 259.528 81.2951 259.528 80.9351C259.528 80.5752 259.397 80.3288 259.133 80.1968C258.881 80.0528 258.262 79.9036 257.278 79.7476C256.306 79.5796 255.593 79.3211 255.137 78.9731C254.681 78.6251 254.452 77.9889 254.452 77.0649C254.452 76.1411 254.765 75.4516 255.389 74.9956C256.025 74.5396 256.834 74.311 257.818 74.311ZM199.029 83.4917H197.067V74.4917H199.029V83.4917ZM203.119 83.4917H201.157V70.7476H203.119V83.4917ZM207.312 83.4917H205.35V70.7476H207.312V83.4917ZM225.637 76.2554C224.605 76.4594 223.722 76.7234 222.99 77.0474L222.595 77.2095V83.4917H220.633V74.4917H222.576V75.5708C223.596 74.9108 224.617 74.4855 225.637 74.2935V76.2554ZM246.81 83.4917H244.848V74.4917H246.81V83.4917ZM191.737 76.0396C191.161 76.0396 190.585 76.1291 190.009 76.3091L189.721 76.3989V81.8716C190.381 81.9196 190.831 81.9429 191.071 81.9429C192.031 81.9428 192.667 81.7208 192.979 81.2769C193.302 80.8208 193.465 80.0531 193.465 78.9731C193.465 77.8933 193.327 77.1376 193.051 76.7056C192.787 76.2617 192.349 76.0397 191.737 76.0396ZM238.871 75.9849C237.659 75.9849 237.053 76.9933 237.053 79.0093C237.053 80.1131 237.191 80.881 237.467 81.313C237.755 81.7329 238.205 81.9428 238.816 81.9429C239.428 81.9429 240.011 81.8355 240.562 81.6196L240.869 81.4937V76.1655C240.149 76.0456 239.483 75.9849 238.871 75.9849ZM230.18 75.9136C229.508 75.9137 229.016 76.0993 228.704 76.4712C228.404 76.8432 228.248 77.4552 228.236 78.3071H232.034C232.034 77.4196 231.89 76.8017 231.603 76.4536C231.327 76.0936 230.852 75.9136 230.18 75.9136ZM199.029 72.9614H197.067V70.8911H199.029V72.9614ZM246.81 72.9614H244.848V70.8911H246.81V72.9614ZM241.232 56.311C241.76 56.311 242.283 56.3717 242.799 56.4917L243.068 56.5454L245.858 56.4731V58.0571L244.364 57.9673C244.688 58.3872 244.851 58.879 244.851 59.4429C244.851 60.6189 244.55 61.4351 243.95 61.8911C243.362 62.335 242.439 62.5571 241.179 62.5571C240.867 62.5571 240.603 62.5328 240.387 62.4849C240.219 62.8927 240.135 63.211 240.135 63.439C240.135 63.655 240.243 63.8052 240.459 63.8892C240.687 63.9731 241.227 64.0217 242.078 64.0337C243.506 64.0457 244.485 64.2369 245.013 64.6089C245.541 64.9809 245.805 65.6833 245.805 66.7153C245.805 68.6833 244.382 69.6675 241.538 69.6675C240.17 69.6674 239.156 69.4808 238.496 69.1089C237.837 68.7369 237.507 68.0592 237.507 67.0757C237.507 66.6318 237.614 66.2473 237.83 65.9233C238.046 65.6113 238.395 65.269 238.875 64.897C238.479 64.633 238.28 64.1954 238.28 63.5835C238.28 63.3435 238.443 62.9535 238.767 62.4136L238.929 62.1431C238.065 61.6271 237.633 60.7269 237.633 59.4429C237.633 58.3631 237.957 57.5708 238.604 57.0669C239.252 56.563 240.129 56.3111 241.232 56.311ZM250.042 63.8169H250.527L252.436 56.4917H254.38L250.96 69.3608H249.033L250.113 65.4917H248.565L246.208 56.4917H248.134L250.042 63.8169ZM240.152 65.6177C239.889 65.8336 239.703 66.0315 239.595 66.2114C239.487 66.4034 239.433 66.6311 239.433 66.895C239.433 67.315 239.601 67.6154 239.937 67.7954C240.272 67.9754 240.848 68.0649 241.664 68.0649C243.116 68.0649 243.843 67.6508 243.843 66.8228C243.843 66.355 243.71 66.0553 243.446 65.9233C243.194 65.8034 242.685 65.7371 241.917 65.7251L240.152 65.6177ZM208.294 56.2935C210.814 56.2935 212.074 57.6675 212.074 60.4155L211.948 61.8188H206.368C206.38 62.5628 206.542 63.1095 206.854 63.4575C207.165 63.8055 207.748 63.979 208.6 63.979C209.451 63.979 210.328 63.9436 211.228 63.8716L211.732 63.8169L211.768 65.2749C210.4 65.5509 209.188 65.689 208.132 65.689C206.8 65.6889 205.84 65.3233 205.252 64.5913C204.676 63.8594 204.388 62.6894 204.388 61.0815C204.388 57.8895 205.69 56.2935 208.294 56.2935ZM226.541 56.2935C229.061 56.2936 230.32 57.6676 230.32 60.4155L230.194 61.8188H224.614C224.626 62.5628 224.789 63.1095 225.101 63.4575C225.413 63.8055 225.995 63.979 226.847 63.979C227.699 63.979 228.575 63.9436 229.475 63.8716L229.979 63.8169L230.015 65.2749C228.647 65.5509 227.435 65.689 226.379 65.689C225.047 65.689 224.087 65.3232 223.499 64.5913C222.923 63.8594 222.635 62.6894 222.635 61.0815C222.635 57.8895 223.937 56.2935 226.541 56.2935ZM189.739 65.4917H187.777V56.4917H189.739V65.4917ZM196.187 56.2935C197.386 56.2935 198.203 56.635 198.635 57.3188C199.079 57.9908 199.301 59.1075 199.301 60.6675V65.4917H197.356V60.7212C197.356 59.7492 197.248 59.0589 197.032 58.6509C196.828 58.2432 196.403 58.0396 195.755 58.0396C195.143 58.0396 194.554 58.1589 193.99 58.3989L193.721 58.5073V65.4917H191.759V56.4917H193.703V57.0493C194.579 56.5455 195.407 56.2935 196.187 56.2935ZM218.028 56.2935C219.228 56.2935 220.045 56.635 220.477 57.3188C220.921 57.9908 221.143 59.1075 221.143 60.6675V65.4917H219.198V60.7212C219.198 59.7492 219.091 59.0589 218.875 58.6509C218.671 58.243 218.245 58.0396 217.597 58.0396C216.985 58.0396 216.397 58.1591 215.833 58.3989L215.562 58.5073V65.4917H213.601V56.4917H215.545V57.0493C216.421 56.5455 217.248 56.2935 218.028 56.2935ZM236.852 58.2554C235.82 58.4594 234.937 58.7234 234.205 59.0474L233.81 59.2095V65.4917H231.848V56.4917H233.791V57.5708C234.811 56.9108 235.832 56.4855 236.852 56.2935V58.2554ZM241.232 57.8413C240.129 57.8413 239.576 58.3751 239.576 59.4429C239.576 59.9949 239.709 60.4035 239.973 60.6675C240.237 60.9194 240.663 61.0454 241.251 61.0454C241.839 61.0453 242.259 60.9194 242.511 60.6675C242.775 60.4035 242.906 59.9949 242.906 59.4429C242.906 58.8911 242.775 58.4888 242.511 58.2368C242.247 57.9729 241.82 57.8413 241.232 57.8413ZM208.294 57.9136C207.622 57.9136 207.13 58.0993 206.818 58.4712C206.518 58.8432 206.362 59.4552 206.35 60.3071H210.147C210.147 59.4193 210.004 58.8016 209.716 58.4536C209.44 58.0936 208.966 57.9136 208.294 57.9136ZM226.541 57.9136C225.869 57.9136 225.376 58.0992 225.064 58.4712C224.765 58.8432 224.609 59.4553 224.597 60.3071H228.395C228.395 59.4194 228.251 58.8017 227.963 58.4536C227.687 58.0937 227.213 57.9136 226.541 57.9136ZM189.739 54.9614H187.777V52.8911H189.739V54.9614Z" fill="#FFE344"/>
<path d="M0.195 94.344V93.309H7.695V94.344H4.53V103.689H3.39V94.344H0.195ZM9.80051 103.689H8.67551V92.919H9.80051V96.609C10.6005 96.229 11.3705 96.039 12.1105 96.039C13.1105 96.039 13.7805 96.309 14.1205 96.849C14.4705 97.389 14.6455 98.349 14.6455 99.729V103.689H13.5205V99.759C13.5205 98.719 13.4155 98.009 13.2055 97.629C13.0055 97.239 12.5755 97.044 11.9155 97.044C11.2855 97.044 10.6755 97.159 10.0855 97.389L9.80051 97.494V103.689ZM21.7271 98.454V102.294C21.7571 102.664 22.0471 102.884 22.5971 102.954L22.5521 103.839C21.7621 103.839 21.1671 103.639 20.7671 103.239C19.8671 103.639 18.9671 103.839 18.0671 103.839C17.3771 103.839 16.8521 103.644 16.4921 103.254C16.1321 102.864 15.9521 102.304 15.9521 101.574C15.9521 100.844 16.1371 100.309 16.5071 99.969C16.8771 99.619 17.4571 99.404 18.2471 99.324L20.6021 99.099V98.454C20.6021 97.944 20.4921 97.579 20.2721 97.359C20.0521 97.139 19.7521 97.029 19.3721 97.029C18.5721 97.029 17.7421 97.079 16.8821 97.179L16.4171 97.224L16.3721 96.369C17.4721 96.149 18.4471 96.039 19.2971 96.039C20.1471 96.039 20.7621 96.234 21.1421 96.624C21.5321 97.014 21.7271 97.624 21.7271 98.454ZM17.1071 101.514C17.1071 102.434 17.4871 102.894 18.2471 102.894C18.9271 102.894 19.5971 102.779 20.2571 102.549L20.6021 102.429V99.954L18.3821 100.164C17.9321 100.204 17.6071 100.334 17.4071 100.554C17.2071 100.774 17.1071 101.094 17.1071 101.514ZM27.5318 97.164H25.1468V100.749C25.1468 101.609 25.2068 102.174 25.3268 102.444C25.4568 102.714 25.7568 102.849 26.2268 102.849L27.5618 102.759L27.6368 103.689C26.9668 103.799 26.4568 103.854 26.1068 103.854C25.3268 103.854 24.7868 103.664 24.4868 103.284C24.1868 102.904 24.0368 102.179 24.0368 101.109V97.164H22.9718V96.189H24.0368V93.894H25.1468V96.189H27.5318V97.164ZM28.3206 96.354L28.9806 93.069H30.1656L29.2056 96.354H28.3206ZM33.6489 97.044C32.5589 97.044 32.0139 97.424 32.0139 98.184C32.0139 98.534 32.1389 98.784 32.3889 98.934C32.6389 99.074 33.2089 99.224 34.0989 99.384C34.9889 99.534 35.6189 99.749 35.9889 100.029C36.3589 100.309 36.5439 100.834 36.5439 101.604C36.5439 102.374 36.2939 102.939 35.7939 103.299C35.3039 103.659 34.5839 103.839 33.6339 103.839C33.0139 103.839 32.2839 103.769 31.4439 103.629L30.9939 103.554L31.0539 102.579C32.1939 102.749 33.0539 102.834 33.6339 102.834C34.2139 102.834 34.6539 102.744 34.9539 102.564C35.2639 102.374 35.4189 102.064 35.4189 101.634C35.4189 101.194 35.2889 100.899 35.0289 100.749C34.7689 100.589 34.1989 100.439 33.3189 100.299C32.4389 100.159 31.8139 99.954 31.4439 99.684C31.0739 99.414 30.8889 98.914 30.8889 98.184C30.8889 97.454 31.1439 96.914 31.6539 96.564C32.1739 96.214 32.8189 96.039 33.5889 96.039C34.1989 96.039 34.9639 96.109 35.8839 96.249L36.3039 96.324L36.2739 97.284C35.1639 97.124 34.2889 97.044 33.6489 97.044ZM47.2924 100.779C47.2924 102.809 46.2374 103.824 44.1274 103.824H43.9024L43.6924 105.549C43.1824 105.519 42.9274 105.484 42.9274 105.444L43.1374 103.779L40.9924 103.509L41.1124 102.594C41.8824 102.704 42.5974 102.779 43.2574 102.819L43.7524 99.069C42.7324 98.829 42.0024 98.524 41.5624 98.154C41.1324 97.774 40.9174 97.154 40.9174 96.294C40.9174 94.524 41.9774 93.639 44.0974 93.639C44.2474 93.639 44.3624 93.644 44.4424 93.654L44.6974 91.719H45.4624L45.2074 93.699L47.0824 93.924L46.9924 94.854C46.3024 94.774 45.6674 94.709 45.0874 94.659L44.6374 98.154C45.6074 98.384 46.2924 98.679 46.6924 99.039C47.0924 99.399 47.2924 99.979 47.2924 100.779ZM42.0274 96.234C42.0274 96.774 42.1624 97.159 42.4324 97.389C42.7024 97.619 43.1874 97.819 43.8874 97.989L44.3224 94.614H44.1724C42.7424 94.614 42.0274 95.154 42.0274 96.234ZM46.1824 100.854C46.1824 100.374 46.0574 100.019 45.8074 99.789C45.5574 99.559 45.1224 99.369 44.5024 99.219L44.0374 102.849H44.0674C45.4774 102.849 46.1824 102.184 46.1824 100.854ZM49.056 94.044C49.996 93.764 51.001 93.624 52.071 93.624C53.151 93.624 53.931 93.829 54.411 94.239C54.891 94.649 55.131 95.304 55.131 96.204C55.131 96.664 55.066 96.999 54.936 97.209C54.816 97.409 54.716 97.564 54.636 97.674C54.566 97.784 54.471 97.889 54.351 97.989C54.131 98.159 53.956 98.279 53.826 98.349L53.661 98.454C54.241 98.664 54.671 98.934 54.951 99.264C55.231 99.584 55.371 100.114 55.371 100.854C55.371 101.864 55.111 102.614 54.591 103.104C54.081 103.594 53.271 103.839 52.161 103.839C51.281 103.839 50.351 103.739 49.371 103.539L48.906 103.434L49.011 102.489C50.091 102.709 51.101 102.819 52.041 102.819C53.471 102.809 54.186 102.169 54.186 100.899C54.186 99.709 53.506 99.089 52.146 99.039H50.151V98.049H52.146C52.566 98.049 52.971 97.884 53.361 97.554C53.751 97.214 53.946 96.769 53.946 96.219C53.946 95.669 53.791 95.274 53.481 95.034C53.171 94.784 52.651 94.659 51.921 94.659C51.121 94.659 50.331 94.734 49.551 94.884L49.161 94.959L49.056 94.044ZM60.2545 93.624C61.0745 93.624 61.7395 93.779 62.2495 94.089C63.3295 94.729 63.8695 96.329 63.8695 98.889C63.8695 100.699 63.5695 101.979 62.9695 102.729C62.3695 103.469 61.4695 103.839 60.2695 103.839C59.0695 103.839 58.1645 103.474 57.5545 102.744C56.9545 102.004 56.6545 100.694 56.6545 98.814C56.6545 96.924 56.9495 95.589 57.5395 94.809C58.1395 94.019 59.0445 93.624 60.2545 93.624ZM60.2695 94.659C59.6995 94.659 59.2495 94.779 58.9195 95.019C58.2095 95.509 57.8545 96.804 57.8545 98.904C57.8545 100.384 58.0495 101.409 58.4395 101.979C58.8295 102.539 59.4395 102.819 60.2695 102.819C61.0995 102.819 61.7095 102.534 62.0995 101.964C62.4895 101.394 62.6845 100.339 62.6845 98.799C62.6845 97.249 62.4945 96.174 62.1145 95.574C61.7445 94.964 61.1295 94.659 60.2695 94.659ZM68.3481 93.624C69.1681 93.624 69.8331 93.779 70.3431 94.089C71.4231 94.729 71.9631 96.329 71.9631 98.889C71.9631 100.699 71.6631 101.979 71.0631 102.729C70.4631 103.469 69.5631 103.839 68.3631 103.839C67.1631 103.839 66.2581 103.474 65.6481 102.744C65.0481 102.004 64.7481 100.694 64.7481 98.814C64.7481 96.924 65.0431 95.589 65.6331 94.809C66.2331 94.019 67.1381 93.624 68.3481 93.624ZM68.3631 94.659C67.7931 94.659 67.3431 94.779 67.0131 95.019C66.3031 95.509 65.9481 96.804 65.9481 98.904C65.9481 100.384 66.1431 101.409 66.5331 101.979C66.9231 102.539 67.5331 102.819 68.3631 102.819C69.1931 102.819 69.8031 102.534 70.1931 101.964C70.5831 101.394 70.7781 100.339 70.7781 98.799C70.7781 97.249 70.5881 96.174 70.2081 95.574C69.8381 94.964 69.2231 94.659 68.3631 94.659ZM77.7725 97.164V103.689H76.6475V97.164H75.7025V96.189H76.6475V95.514C76.6475 94.454 76.7975 93.734 77.0975 93.354C77.3975 92.964 77.9225 92.769 78.6725 92.769L80.1875 92.874L80.1725 93.804C79.6125 93.784 79.1475 93.774 78.7775 93.774C78.4175 93.774 78.1575 93.894 77.9975 94.134C77.8475 94.374 77.7725 94.839 77.7725 95.529V96.189H79.9475V97.164H77.7725ZM80.5365 99.924C80.5365 98.554 80.7815 97.564 81.2715 96.954C81.7615 96.344 82.5865 96.039 83.7465 96.039C84.9165 96.039 85.7415 96.344 86.2215 96.954C86.7115 97.564 86.9565 98.554 86.9565 99.924C86.9565 101.294 86.7265 102.289 86.2665 102.909C85.8065 103.529 84.9665 103.839 83.7465 103.839C82.5265 103.839 81.6865 103.529 81.2265 102.909C80.7665 102.289 80.5365 101.294 80.5365 99.924ZM81.6915 99.909C81.6915 100.999 81.8215 101.764 82.0815 102.204C82.3515 102.644 82.9065 102.864 83.7465 102.864C84.5965 102.864 85.1515 102.649 85.4115 102.219C85.6715 101.779 85.8015 101.009 85.8015 99.909C85.8015 98.809 85.6565 98.054 85.3665 97.644C85.0765 97.224 84.5365 97.014 83.7465 97.014C82.9665 97.014 82.4265 97.224 82.1265 97.644C81.8365 98.054 81.6915 98.809 81.6915 99.909ZM88.4913 103.689V96.189H89.6013V97.209C90.4713 96.609 91.3863 96.214 92.3463 96.024V97.164C91.9263 97.244 91.4863 97.369 91.0263 97.539C90.5763 97.709 90.2313 97.859 89.9913 97.989L89.6163 98.184V103.689H88.4913ZM101.473 102.759L101.908 102.714L101.938 103.599C100.798 103.759 99.8228 103.839 99.0128 103.839C97.9328 103.839 97.1678 103.529 96.7178 102.909C96.2678 102.279 96.0428 101.304 96.0428 99.984C96.0428 97.354 97.0878 96.039 99.1778 96.039C100.188 96.039 100.943 96.324 101.443 96.894C101.943 97.454 102.193 98.339 102.193 99.549L102.133 100.404H97.1828C97.1828 101.234 97.3328 101.849 97.6328 102.249C97.9328 102.649 98.4528 102.849 99.1928 102.849C99.9428 102.849 100.703 102.819 101.473 102.759ZM101.068 99.504C101.068 98.584 100.918 97.934 100.618 97.554C100.328 97.174 99.8478 96.984 99.1778 96.984C98.5178 96.984 98.0178 97.184 97.6778 97.584C97.3478 97.984 97.1778 98.624 97.1678 99.504H101.068ZM103.736 103.689V92.919H104.861V103.689H103.736ZM111.918 102.759L112.353 102.714L112.383 103.599C111.243 103.759 110.268 103.839 109.458 103.839C108.378 103.839 107.613 103.529 107.163 102.909C106.713 102.279 106.488 101.304 106.488 99.984C106.488 97.354 107.533 96.039 109.623 96.039C110.633 96.039 111.388 96.324 111.888 96.894C112.388 97.454 112.638 98.339 112.638 99.549L112.578 100.404H107.628C107.628 101.234 107.778 101.849 108.078 102.249C108.378 102.649 108.898 102.849 109.638 102.849C110.388 102.849 111.148 102.819 111.918 102.759ZM111.513 99.504C111.513 98.584 111.363 97.934 111.063 97.554C110.773 97.174 110.293 96.984 109.623 96.984C108.963 96.984 108.463 97.184 108.123 97.584C107.793 97.984 107.623 98.624 107.613 99.504H111.513ZM116.896 96.039C117.226 96.039 117.786 96.099 118.576 96.219L118.936 96.264L118.891 97.179C118.091 97.089 117.501 97.044 117.121 97.044C116.271 97.044 115.691 97.249 115.381 97.659C115.081 98.059 114.931 98.809 114.931 99.909C114.931 100.999 115.071 101.759 115.351 102.189C115.641 102.619 116.236 102.834 117.136 102.834L118.906 102.699L118.951 103.629C118.021 103.769 117.326 103.839 116.866 103.839C115.696 103.839 114.886 103.539 114.436 102.939C113.996 102.339 113.776 101.329 113.776 99.909C113.776 98.479 114.016 97.479 114.496 96.909C114.976 96.329 115.776 96.039 116.896 96.039ZM124.209 97.164H121.824V100.749C121.824 101.609 121.884 102.174 122.004 102.444C122.134 102.714 122.434 102.849 122.904 102.849L124.239 102.759L124.314 103.689C123.644 103.799 123.134 103.854 122.784 103.854C122.004 103.854 121.464 103.664 121.164 103.284C120.864 102.904 120.714 102.179 120.714 101.109V97.164H119.649V96.189H120.714V93.894H121.824V96.189H124.209V97.164ZM125.283 103.689V96.189H126.393V97.209C127.263 96.609 128.178 96.214 129.138 96.024V97.164C128.718 97.244 128.278 97.369 127.818 97.539C127.368 97.709 127.023 97.859 126.783 97.989L126.408 98.184V103.689H125.283ZM130.168 103.689V96.189H131.293V103.689H130.168ZM130.168 94.494V93.189H131.293V94.494H130.168ZM135.955 96.039C136.285 96.039 136.845 96.099 137.635 96.219L137.995 96.264L137.95 97.179C137.15 97.089 136.56 97.044 136.18 97.044C135.33 97.044 134.75 97.249 134.44 97.659C134.14 98.059 133.99 98.809 133.99 99.909C133.99 100.999 134.13 101.759 134.41 102.189C134.7 102.619 135.295 102.834 136.195 102.834L137.965 102.699L138.01 103.629C137.08 103.769 136.385 103.839 135.925 103.839C134.755 103.839 133.945 103.539 133.495 102.939C133.055 102.339 132.835 101.329 132.835 99.909C132.835 98.479 133.075 97.479 133.555 96.909C134.035 96.329 134.835 96.039 135.955 96.039ZM139.383 103.689V96.189H140.508V103.689H139.383ZM139.383 94.494V93.189H140.508V94.494H139.383ZM146.249 97.164H143.864V100.749C143.864 101.609 143.924 102.174 144.044 102.444C144.174 102.714 144.474 102.849 144.944 102.849L146.279 102.759L146.354 103.689C145.684 103.799 145.174 103.854 144.824 103.854C144.044 103.854 143.504 103.664 143.204 103.284C142.904 102.904 142.754 102.179 142.754 101.109V97.164H141.689V96.189H142.754V93.894H143.864V96.189H146.249V97.164ZM146.618 96.189H147.743L149.618 102.714H150.113L152.003 96.189H153.128L150.008 107.019H148.883L149.858 103.689H148.748L146.618 96.189ZM162.565 98.454V102.294C162.595 102.664 162.885 102.884 163.435 102.954L163.39 103.839C162.6 103.839 162.005 103.639 161.605 103.239C160.705 103.639 159.805 103.839 158.905 103.839C158.215 103.839 157.69 103.644 157.33 103.254C156.97 102.864 156.79 102.304 156.79 101.574C156.79 100.844 156.975 100.309 157.345 99.969C157.715 99.619 158.295 99.404 159.085 99.324L161.44 99.099V98.454C161.44 97.944 161.33 97.579 161.11 97.359C160.89 97.139 160.59 97.029 160.21 97.029C159.41 97.029 158.58 97.079 157.72 97.179L157.255 97.224L157.21 96.369C158.31 96.149 159.285 96.039 160.135 96.039C160.985 96.039 161.6 96.234 161.98 96.624C162.37 97.014 162.565 97.624 162.565 98.454ZM157.945 101.514C157.945 102.434 158.325 102.894 159.085 102.894C159.765 102.894 160.435 102.779 161.095 102.549L161.44 102.429V99.954L159.22 100.164C158.77 100.204 158.445 100.334 158.245 100.554C158.045 100.774 157.945 101.094 157.945 101.514ZM165.609 103.689H164.484V96.189H165.594V96.714C166.404 96.264 167.179 96.039 167.919 96.039C168.919 96.039 169.589 96.309 169.929 96.849C170.279 97.389 170.454 98.349 170.454 99.729V103.689H169.344V99.759C169.344 98.719 169.239 98.009 169.029 97.629C168.829 97.239 168.394 97.044 167.724 97.044C167.404 97.044 167.064 97.094 166.704 97.194C166.354 97.284 166.084 97.374 165.894 97.464L165.609 97.599V103.689ZM178.001 92.919V103.689H176.891V103.179C176.121 103.619 175.361 103.839 174.611 103.839C174.211 103.839 173.861 103.789 173.561 103.689C173.261 103.589 172.981 103.409 172.721 103.149C172.181 102.609 171.911 101.614 171.911 100.164C171.911 98.704 172.151 97.654 172.631 97.014C173.121 96.364 173.926 96.039 175.046 96.039C175.626 96.039 176.241 96.104 176.891 96.234V92.919H178.001ZM173.591 102.339C173.751 102.529 173.921 102.659 174.101 102.729C174.281 102.799 174.511 102.834 174.791 102.834C175.081 102.834 175.401 102.789 175.751 102.699C176.111 102.599 176.391 102.504 176.591 102.414L176.891 102.279V97.194C176.251 97.074 175.656 97.014 175.106 97.014C174.346 97.014 173.816 97.259 173.516 97.749C173.216 98.229 173.066 98.979 173.066 99.999C173.066 101.159 173.241 101.939 173.591 102.339ZM189.206 100.779C189.206 102.809 188.151 103.824 186.041 103.824H185.816L185.606 105.549C185.096 105.519 184.841 105.484 184.841 105.444L185.051 103.779L182.906 103.509L183.026 102.594C183.796 102.704 184.511 102.779 185.171 102.819L185.666 99.069C184.646 98.829 183.916 98.524 183.476 98.154C183.046 97.774 182.831 97.154 182.831 96.294C182.831 94.524 183.891 93.639 186.011 93.639C186.161 93.639 186.276 93.644 186.356 93.654L186.611 91.719H187.376L187.121 93.699L188.996 93.924L188.906 94.854C188.216 94.774 187.581 94.709 187.001 94.659L186.551 98.154C187.521 98.384 188.206 98.679 188.606 99.039C189.006 99.399 189.206 99.979 189.206 100.779ZM183.941 96.234C183.941 96.774 184.076 97.159 184.346 97.389C184.616 97.619 185.101 97.819 185.801 97.989L186.236 94.614H186.086C184.656 94.614 183.941 95.154 183.941 96.234ZM188.096 100.854C188.096 100.374 187.971 100.019 187.721 99.789C187.471 99.559 187.036 99.369 186.416 99.219L185.951 102.849H185.981C187.391 102.849 188.096 102.184 188.096 100.854ZM197.255 103.689H190.925V102.714L193.82 99.669C194.32 99.149 194.685 98.754 194.915 98.484C195.145 98.214 195.35 97.894 195.53 97.524C195.72 97.154 195.815 96.784 195.815 96.414C195.815 95.774 195.64 95.324 195.29 95.064C194.94 94.804 194.395 94.674 193.655 94.674C193.005 94.674 192.28 94.759 191.48 94.929L191.09 95.004L191 94.044C191.95 93.774 192.93 93.639 193.94 93.639C194.95 93.639 195.71 93.854 196.22 94.284C196.74 94.704 197 95.374 197 96.294C197 96.994 196.845 97.604 196.535 98.124C196.225 98.644 195.69 99.269 194.93 99.999L192.29 102.684H197.255V103.689ZM202.169 93.624C202.989 93.624 203.654 93.779 204.164 94.089C205.244 94.729 205.784 96.329 205.784 98.889C205.784 100.699 205.484 101.979 204.884 102.729C204.284 103.469 203.384 103.839 202.184 103.839C200.984 103.839 200.079 103.474 199.469 102.744C198.869 102.004 198.569 100.694 198.569 98.814C198.569 96.924 198.864 95.589 199.454 94.809C200.054 94.019 200.959 93.624 202.169 93.624ZM202.184 94.659C201.614 94.659 201.164 94.779 200.834 95.019C200.124 95.509 199.769 96.804 199.769 98.904C199.769 100.384 199.964 101.409 200.354 101.979C200.744 102.539 201.354 102.819 202.184 102.819C203.014 102.819 203.624 102.534 204.014 101.964C204.404 101.394 204.599 100.339 204.599 98.799C204.599 97.249 204.409 96.174 204.029 95.574C203.659 94.964 203.044 94.659 202.184 94.659ZM210.262 93.624C211.082 93.624 211.747 93.779 212.257 94.089C213.337 94.729 213.877 96.329 213.877 98.889C213.877 100.699 213.577 101.979 212.977 102.729C212.377 103.469 211.477 103.839 210.277 103.839C209.077 103.839 208.172 103.474 207.562 102.744C206.962 102.004 206.662 100.694 206.662 98.814C206.662 96.924 206.957 95.589 207.547 94.809C208.147 94.019 209.052 93.624 210.262 93.624ZM210.277 94.659C209.707 94.659 209.257 94.779 208.927 95.019C208.217 95.509 207.862 96.804 207.862 98.904C207.862 100.384 208.057 101.409 208.447 101.979C208.837 102.539 209.447 102.819 210.277 102.819C211.107 102.819 211.717 102.534 212.107 101.964C212.497 101.394 212.692 100.339 212.692 98.799C212.692 97.249 212.502 96.174 212.122 95.574C211.752 94.964 211.137 94.659 210.277 94.659ZM219.687 97.164V103.689H218.562V97.164H217.617V96.189H218.562V95.514C218.562 94.454 218.712 93.734 219.012 93.354C219.312 92.964 219.837 92.769 220.587 92.769L222.102 92.874L222.087 93.804C221.527 93.784 221.062 93.774 220.692 93.774C220.332 93.774 220.072 93.894 219.912 94.134C219.762 94.374 219.687 94.839 219.687 95.529V96.189H221.862V97.164H219.687ZM222.451 99.924C222.451 98.554 222.696 97.564 223.186 96.954C223.676 96.344 224.501 96.039 225.661 96.039C226.831 96.039 227.656 96.344 228.136 96.954C228.626 97.564 228.871 98.554 228.871 99.924C228.871 101.294 228.641 102.289 228.181 102.909C227.721 103.529 226.881 103.839 225.661 103.839C224.441 103.839 223.601 103.529 223.141 102.909C222.681 102.289 222.451 101.294 222.451 99.924ZM223.606 99.909C223.606 100.999 223.736 101.764 223.996 102.204C224.266 102.644 224.821 102.864 225.661 102.864C226.511 102.864 227.066 102.649 227.326 102.219C227.586 101.779 227.716 101.009 227.716 99.909C227.716 98.809 227.571 98.054 227.281 97.644C226.991 97.224 226.451 97.014 225.661 97.014C224.881 97.014 224.341 97.224 224.041 97.644C223.751 98.054 223.606 98.809 223.606 99.909ZM230.405 103.689V96.189H231.515V97.209C232.385 96.609 233.3 96.214 234.26 96.024V97.164C233.84 97.244 233.4 97.369 232.94 97.539C232.49 97.709 232.145 97.859 231.905 97.989L231.53 98.184V103.689H230.405ZM241.182 107.214C239.982 107.214 239.142 107.049 238.662 106.719C238.192 106.399 237.957 105.809 237.957 104.949C237.957 104.539 238.047 104.204 238.227 103.944C238.407 103.694 238.712 103.409 239.142 103.089C238.862 102.899 238.722 102.554 238.722 102.054C238.722 101.884 238.847 101.569 239.097 101.109L239.232 100.869C238.442 100.509 238.047 99.754 238.047 98.604C238.047 96.894 238.982 96.039 240.852 96.039C241.332 96.039 241.777 96.089 242.187 96.189L242.412 96.234L244.632 96.174V97.134L243.207 97.104C243.537 97.434 243.702 97.934 243.702 98.604C243.702 99.544 243.467 100.204 242.997 100.584C242.537 100.954 241.807 101.139 240.807 101.139C240.537 101.139 240.292 101.119 240.072 101.079C239.892 101.519 239.802 101.804 239.802 101.934C239.802 102.244 239.897 102.439 240.087 102.519C240.277 102.589 240.852 102.624 241.812 102.624C242.772 102.624 243.462 102.774 243.882 103.074C244.302 103.374 244.512 103.959 244.512 104.829C244.512 106.419 243.402 107.214 241.182 107.214ZM239.067 104.859C239.067 105.389 239.212 105.754 239.502 105.954C239.802 106.164 240.347 106.269 241.137 106.269C241.937 106.269 242.507 106.159 242.847 105.939C243.197 105.719 243.372 105.349 243.372 104.829C243.372 104.319 243.247 103.989 242.997 103.839C242.747 103.689 242.257 103.614 241.527 103.614L239.907 103.539C239.577 103.779 239.352 103.989 239.232 104.169C239.122 104.349 239.067 104.579 239.067 104.859ZM239.172 98.604C239.172 99.194 239.302 99.614 239.562 99.864C239.832 100.114 240.272 100.239 240.882 100.239C241.492 100.239 241.927 100.114 242.187 99.864C242.447 99.614 242.577 99.194 242.577 98.604C242.577 98.004 242.447 97.579 242.187 97.329C241.927 97.079 241.492 96.954 240.882 96.954C240.272 96.954 239.832 97.084 239.562 97.344C239.302 97.594 239.172 98.014 239.172 98.604ZM250.987 98.454V102.294C251.017 102.664 251.307 102.884 251.857 102.954L251.812 103.839C251.022 103.839 250.427 103.639 250.027 103.239C249.127 103.639 248.227 103.839 247.327 103.839C246.637 103.839 246.112 103.644 245.752 103.254C245.392 102.864 245.212 102.304 245.212 101.574C245.212 100.844 245.397 100.309 245.767 99.969C246.137 99.619 246.717 99.404 247.507 99.324L249.862 99.099V98.454C249.862 97.944 249.752 97.579 249.532 97.359C249.312 97.139 249.012 97.029 248.632 97.029C247.832 97.029 247.002 97.079 246.142 97.179L245.677 97.224L245.632 96.369C246.732 96.149 247.707 96.039 248.557 96.039C249.407 96.039 250.022 96.234 250.402 96.624C250.792 97.014 250.987 97.624 250.987 98.454ZM246.367 101.514C246.367 102.434 246.747 102.894 247.507 102.894C248.187 102.894 248.857 102.779 249.517 102.549L249.862 102.429V99.954L247.642 100.164C247.192 100.204 246.867 100.334 246.667 100.554C246.467 100.774 246.367 101.094 246.367 101.514ZM255.262 97.044C254.172 97.044 253.627 97.424 253.627 98.184C253.627 98.534 253.752 98.784 254.002 98.934C254.252 99.074 254.822 99.224 255.712 99.384C256.602 99.534 257.232 99.749 257.602 100.029C257.972 100.309 258.157 100.834 258.157 101.604C258.157 102.374 257.907 102.939 257.407 103.299C256.917 103.659 256.197 103.839 255.247 103.839C254.627 103.839 253.897 103.769 253.057 103.629L252.607 103.554L252.667 102.579C253.807 102.749 254.667 102.834 255.247 102.834C255.827 102.834 256.267 102.744 256.567 102.564C256.877 102.374 257.032 102.064 257.032 101.634C257.032 101.194 256.902 100.899 256.642 100.749C256.382 100.589 255.812 100.439 254.932 100.299C254.052 100.159 253.427 99.954 253.057 99.684C252.687 99.414 252.502 98.914 252.502 98.184C252.502 97.454 252.757 96.914 253.267 96.564C253.787 96.214 254.432 96.039 255.202 96.039C255.812 96.039 256.577 96.109 257.497 96.249L257.917 96.324L257.887 97.284C256.777 97.124 255.902 97.044 255.262 97.044ZM261.856 94.09H260.668L261.037 95.215L260.596 95.35L260.227 94.216L259.264 94.927L258.985 94.567L259.957 93.856L259.003 93.163L259.282 92.785L260.236 93.487L260.605 92.353L261.046 92.497L260.686 93.64H261.856V94.09Z" fill="white"/>
</svg>
