<svg width="123" height="69" viewBox="0 0 123 69" fill="none" xmlns="http://www.w3.org/2000/svg">
  <!-- Generator: Adobe Illustrator 30.1.0, SVG Export Plug-In . SVG Version: 2.1.1 Build 136)  -->
  <path d="M59.67,3.86v8.05h-11.71V.2h8.05c2.02,0,3.66,1.64,3.66,3.66Z" fill="#fff"/>
  <path d="M59.67,23.62h-11.71v11.71h11.71v-11.71Z" fill="#fff"/>
  <path d="M36.25.2h-11.71v11.71h11.71V.2Z" fill="#ffd000"/>
  <path d="M12.83,9.58V.2H1.12v31.47c0,2.02,1.64,3.66,3.66,3.66h8.05v-9.39c0-1.28,1.04-2.32,2.32-2.32h9.39v-11.71h-9.39c-1.28,0-2.32-1.04-2.32-2.32Z" fill="#fff"/>
  <path d="M36.25,23.62h-11.71v11.71h11.71v-11.71Z" fill="#fff"/>
  <path d="M13.89,48.21c-.8,0-1.46-.26-1.99-.8-.53-.54-.79-1.2-.79-2.02s.25-1.52.79-2.06c.53-.54,1.2-.8,2.03-.8s1.43.27,1.97.81c.54.54.8,1.2.8,2s-.26,1.5-.8,2.05c-.54.55-1.19.82-2,.82ZM17.06,42.3c-.85-.81-1.92-1.21-3.19-1.21s-2.34.41-3.18,1.21c-.84.81-1.26,1.85-1.26,3.08s.43,2.22,1.25,3.03c.83.8,1.88,1.21,3.12,1.21s2.38-.4,3.24-1.21c.86-.8,1.3-1.83,1.3-3.05s-.43-2.25-1.28-3.06ZM51.85,41.18v4.66c0,1.33-.51,2.25-2,2.25s-2-.91-2-2.25v-4.66h-1.62v5c0,2.46,1.66,3.43,3.62,3.43s3.62-.96,3.62-3.43v-5h-1.62ZM42.11,41.18v6.88h3.5v1.44h-5.11v-8.32h1.61ZM36.31,44.94c.8,0,1.47-.37,1.47-1.16s-.46-1.16-1.47-1.16h-.97v2.32h.97ZM36.76,41.18c1.75,0,2.62,1.13,2.62,2.59s-1.09,2.61-2.69,2.61h-1.36v3.12h-1.61v-8.32h3.03ZM32.63,41.18v1.44h-2.73v6.88h-1.61v-6.88h-2.73v-1.44h7.08ZM57.33,41.07c.81,0,1.59.2,2.34.61v1.64c-.87-.52-1.44-.84-2.32-.84s-1.17.3-1.2.71c-.02.32.17.58.59.85.12.08.56.31,1.35.69.67.33,1.17.68,1.47,1.07.3.39.46.87.46,1.42,0,.72-.26,1.29-.77,1.73-.51.44-1.18.66-2,.66-.53,0-.99-.06-1.37-.17-.39-.12-.81-.32-1.29-.61v-1.83c.89.74,1.7,1.2,2.49,1.2.74,0,1.24-.28,1.24-.79,0-.34-.16-.65-.57-.89-.34-.2-.79-.43-1.32-.72-.63-.35-1.14-.66-1.47-1.06-.32-.4-.49-.84-.49-1.36,0-.7.26-1.25.78-1.67.52-.42,1.21-.62,2.06-.62M22.11,41.07c.81,0,1.59.2,2.34.61v1.64c-.86-.52-1.44-.84-2.32-.84s-1.17.3-1.2.71c-.02.32.17.58.59.85.12.08.56.31,1.35.69.67.33,1.17.68,1.48,1.07.3.39.45.87.45,1.42,0,.72-.26,1.29-.77,1.73-.51.44-1.18.66-2,.66-.54,0-.99-.06-1.37-.17-.38-.12-.81-.32-1.29-.61v-1.83c.89.74,1.7,1.2,2.49,1.2.74,0,1.24-.28,1.24-.79,0-.34-.15-.65-.57-.89-.34-.2-.79-.43-1.32-.72-.63-.35-1.14-.66-1.47-1.06-.32-.4-.49-.84-.49-1.36,0-.7.26-1.25.78-1.67.52-.42,1.21-.62,2.06-.62M2.73,41.18v3.32h3.95v-3.32h1.61v8.32h-1.61v-3.33h-3.95v3.33h-1.61v-8.32h1.61Z" fill="#fff"/>
  <line x1="73.34" y1=".08" x2="73.34" y2="49.92" fill="none" stroke="#fff" stroke-width=".4"/>
  <g>
    <path d="M121.34,7.56l-.06-.26-.23-.12c-.11-.06-1.92-.94-6.31-1.58.4-.71.67-1.58.81-2.64.06-.47-.03-.86-.29-1.15-.29-.33-.76-.5-1.38-.5-1.88,0-3-.1-4.35-.3-1.04-.61-2.18-.93-3.39-.93-.86,0-1.52.16-1.82.25-.63-.15-1.29-.23-1.97-.23-1.93,0-3.47.64-3.91.84h-.14c-1.39,0-2.83-.08-3.76-.22-.07,0-.13-.02-.19-.03-.29-.05-.54-.09-.82-.09-.13,0-.26,0-.39.03-.2.03-.56.15-.8.67-.39.85-.28,2.64.49,3.84.09.16.23.35.38.54-4.04.63-5.72,1.45-5.83,1.5l-.23.12-.06.26c-1.42,5.98-1.12,11.93.87,17.22,1.87,4.97,5.17,9.26,9.55,12.4,2.56,1.93,4.7,3.09,6.46,3.98l.25.12.25-.12c2.37-1.17,4.31-2.36,6.46-3.98,4.38-3.14,7.68-7.43,9.55-12.4,1.98-5.28,2.29-11.23.87-17.22h0Z" fill="#fff"/>
    <path d="M114.42,24.19c.67.71,1.32,1.62,1.69,2.83.03.07.08.31.13.54.34-.92.63-1.85.87-2.79-.49-.68-1.29-1.36-1.8-1.82-1.19-1.08-2.19-2.08-2.26-3.72,0-.19-.03-.53-.04-.64.25-.26.41-.46.58-.71.24.29.48.51.63.66.85.85,1.11,1.7,1.7,2.73.3.54.91,1.34,1.53,2,.09-.46.17-.92.24-1.39-.8-.75-1.81-2.05-2.19-2.79.75.67,1.61,1.4,2.33,1.76.15-1.33.23-2.66.23-4,0-2.85-.24-6.28-1.04-10.27-.91-.19-2-.37-3.29-.54.52-.58,1.03-1.5,1.25-3.16.1-.72-.34-1.01-1.12-1.01-1.89,0-3.03-.1-4.54-.32-2.52-1.55-5.01-.63-5.01-.63-3.04-.82-5.77.58-5.77.58-1.42,0-3.03-.07-4.13-.23-.5-.08-.81-.15-1.23-.09-.7.1-.75,2.34.1,3.66.18.31.59.81,1.02,1.25-1.14.15-2.12.32-2.95.5-.8,3.99-1.04,7.42-1.04,10.27,0,4.95,1.01,9.9,3.46,14.26-.19-1.91-.13-3.81.05-5.26.19-1.47.51-2.7.81-3.65,0,0-.33.52-.61,1.03.4-1.48,1.16-2.87,1.71-3.85.32.51.76,1.06,1.31,1.5-.88,1.72-1.77,4.57-1.73,6.48.15-.6.35-1.04.35-1.04-.25,2.74.6,6.54,1.93,8.83.65,1.16,1.4,2.17,2.39,3.08.25.16.5.32.75.48-1.09-3.15-.66-4.87,1.11-9.14-1.29,1.29-2.29,1.83-2.9,3.91.03-.51.12-.99.23-1.24-.71-.84-1.2-1.85-1.45-3.31-.16.26-.31.54-.43.91.02-.61.11-.9.35-1.47,0-.06-.01-.11-.02-.17-.15.25-.3.49-.35.7-.6-1.76-.88-4.52-.3-6.56.15,3.01,1.02,4.87,2.48,6.44.12-.19.26-.37.44-.54-.14.23-.23.44-.32.64-.11.25-.18.46-.3.9.28-.46.43-.71.6-.96,1.45-2.02,3.5-2.69,4.87-4.06,0,0-.78.31-1.43.8.98-.94,2.05-1.23,2.93-2.55.07-.11.17-.25.26-.4.02.17-.02.41-.08.61.37-.31.65-.66.75-.89-.01.22-.14.81-.23,1.08.37-.32.58-.72.74-1.03.1.07.19.26.23.42.32-.14.63-.38.84-.72.08.06.2.23.23.31.26-.18.48-.49.56-.82.04.06.09.14.11.21.27-.07.59-.37.72-.52.33-.38.48-.94.53-1.13.41-.18.81-.43,1.18-.71-.07.16-.11.35-.13.57,0,.04,0,.08,0,.11-.14,1.73.49,2.28,1.65,3.28.27.23.55.49.83.79h.01Z" fill="#231f20"/>
    <path d="M107.22,32.72c3.31-3.49,4.05-6.46,2.77-9.81.03,2.74-5.97,6.79-6.9,8.29.32-.24,1.42-.92,1.64-1.08-.83.67-1.29,1.09-1.86,1.95.57-.56,1.09-.85,1.54-1.16-2.24,1.96-2.9,5.19-2.23,8.66.67.38,1.32.72,1.97,1.05-.25-3.26,1.29-6.02,3.07-7.9Z" fill="#231f20"/>
    <path d="M89.67,18.54c-.27-4.56.21-8.34.83-11.76-.31.07-.59.14-.85.21-2.15,9.65-.74,18.38,3.77,24.88-2.24-3.81-3.52-8.31-3.75-13.32Z" fill="#ffd200"/>
    <path d="M93.42,31.87c-4.5-6.5-5.91-15.23-3.77-24.88-1.43.39-2.04.7-2.04.7-2.63,11.13.93,20.87,7.82,27.11-.74-.93-1.41-1.9-2.01-2.93Z" fill="#231f20"/>
    <path d="M118.73,18.54c.27-4.56-.21-8.34-.83-11.76.31.07.59.14.85.21,2.15,9.65.74,18.38-3.77,24.88,2.24-3.81,3.52-8.31,3.75-13.32Z" fill="#ffd200"/>
    <path d="M114.98,31.87c4.51-6.5,5.91-15.23,3.77-24.88,1.42.39,2.04.7,2.04.7,2.63,11.13-.93,20.87-7.82,27.11.74-.93,1.41-1.9,2.01-2.93Z" fill="#231f20"/>
    <path d="M98.54,48.36c.08,0,.23,0,.35,0h.46c.09,0,.22,0,.3,0,0,0,0,0,0,0-.01.07-.03.23-.04.35-.01,0-.05,0-.07,0,0-.09-.03-.15-.05-.19-.02-.04-.06-.05-.09-.06-.05,0-.29,0-.33,0,0,0-.02.03-.02.04v.49s.01.02.01.02h.32s.07-.03.09-.09c0-.02,0-.04.01-.07h.07c0,.06-.01.14-.01.23,0,.06,0,.16,0,.23-.01,0-.06,0-.07,0-.01-.07-.01-.06-.02-.09,0-.03-.03-.07-.08-.07h-.31s-.01.02-.01.02v.46s.02.07.05.08c.04,0,.15.01.27.01.13,0,.16,0,.2-.06.05-.05.09-.14.13-.23.01,0,.06,0,.06.02,0,.04-.06.27-.1.35-.01.02-.02.04-.13.04-.21,0-.44-.01-.66-.01-.12,0-.28.01-.41.01v-.06c.07,0,.13-.01.17-.02.04-.01.07-.04.07-.12,0-.13,0-.34,0-.6,0-.18,0-.37,0-.46,0-.06-.01-.08-.06-.1-.03,0-.07-.01-.12-.02,0-.01,0-.06,0-.06v-.02Z" fill="#fff"/>
    <path d="M100.52,49.72c.07.04.14.06.22.06.12,0,.2-.07.2-.2s-.05-.2-.26-.33c-.22-.14-.37-.26-.37-.49,0-.28.23-.43.5-.43.17,0,.27.03.38.04-.01.09-.03.19-.04.35-.01,0-.06,0-.07,0-.02-.14-.05-.21-.11-.26-.06-.04-.11-.05-.18-.05-.13,0-.21.09-.21.21,0,.1.05.17.14.24.1.07.16.1.26.17.18.11.25.22.25.39,0,.26-.2.45-.56.45-.15,0-.31-.04-.36-.07-.03-.03-.06-.29-.07-.37,0,0,.05-.02.06-.01.06.17.11.25.2.32h-.01Z" fill="#fff"/>
    <path d="M102.72,49.83c-.09,0-.21,0-.36,0-.22,0-.33,0-.41,0,0,0,0-.06,0-.06.06,0,.12-.01.15-.02.06-.01.07-.04.08-.15.01-.24.01-.72.01-1.09,0,0,0-.01-.01-.01h-.24c-.06,0-.09.03-.12.08-.03.05-.06.13-.09.2,0,0-.07,0-.07-.01.02-.09.04-.3.04-.39,0,0,.01-.01.02-.01.08.02.16.03.21.03h.85c.12,0,.19,0,.26-.03.01,0,.01,0,.01.01-.03.09-.04.25-.06.4,0,0-.06.01-.07,0-.01-.08-.03-.15-.05-.21-.02-.05-.05-.07-.09-.07h-.26s-.01,0-.01.02c0,.33,0,.97,0,1.13,0,.06.01.09.07.11.04,0,.06,0,.13.02,0,0,0,.06,0,.06h-.01Z" fill="#fff"/>
    <path d="M105.06,49.83c-.09,0-.24-.01-.38-.01-.18,0-.27.01-.34.01,0-.01-.01-.06,0-.06.06-.01.08-.01.12-.01.07-.01.07-.08.08-.15,0-.1,0-.24,0-.47,0-.19,0-.37,0-.44,0-.04-.01-.08-.06-.09-.03,0-.07-.01-.11-.02,0,0,0-.06,0-.06.19,0,.37-.07.47-.11,0,0,.03,0,.03.01,0,.1-.01.18-.01.38s0,.6.01.79c0,.08.01.15.07.16.05,0,.08,0,.12.01,0,0,0,.05,0,.06h0Z" fill="#fff"/>
    <path d="M106.49,48.73c0,.09-.06.17-.23.28h0c.19.13.29.23.29.4,0,.21-.2.42-.52.42-.34,0-.46-.19-.46-.36,0-.1.07-.19.29-.32h0c-.13-.1-.24-.21-.24-.37,0-.12.06-.23.14-.3.08-.06.19-.1.32-.1.23,0,.4.13.4.35h0ZM106.28,49.58c0-.13-.08-.22-.35-.38h-.01c-.06.07-.1.15-.1.24,0,.15.11.32.27.32.11,0,.19-.07.19-.18ZM105.87,48.65c0,.12.06.19.31.34h.01c.06-.07.08-.15.08-.23,0-.15-.08-.29-.23-.29-.1,0-.17.09-.17.19Z" fill="#fff"/>
    <path d="M107.97,48.73c0,.09-.06.17-.24.28h0c.19.13.29.23.29.4,0,.21-.2.42-.51.42-.34,0-.46-.19-.46-.36,0-.1.06-.19.29-.32h0c-.13-.1-.24-.21-.24-.37,0-.12.06-.23.14-.3.08-.06.19-.1.32-.1.23,0,.4.13.4.35h0ZM107.76,49.58c0-.13-.08-.22-.35-.38h0c-.06.07-.1.15-.1.24,0,.15.11.32.27.32.11,0,.19-.07.19-.18ZM107.35,48.65c0,.12.06.19.31.34h.01c.05-.07.08-.15.08-.23,0-.15-.08-.29-.23-.29-.11,0-.17.09-.17.19Z" fill="#fff"/>
    <path d="M109.33,48.41s-.05.15-.11.23c-.03.03-.08.05-.12.05-.15,0-.26-.01-.3-.01,0,0-.02,0-.02.01-.02.04-.03.07-.04.11,0,0,0,.02.01.02.07.03.33.14.44.2.15.08.25.18.25.37,0,.32-.34.51-.62.51-.14,0-.25-.05-.31-.11-.01-.01-.04-.05-.04-.08,0-.04.04-.12.07-.15,0,0,.02-.01.03-.02.1.14.24.25.41.25.12,0,.19-.09.19-.2,0-.1-.04-.2-.18-.3-.12-.08-.36-.18-.41-.21,0-.01,0-.06,0-.08.04-.14.18-.47.24-.56.03-.03.04-.04.06-.04.04,0,.15,0,.28,0,.08,0,.11,0,.14-.04.01,0,.04.02.04.03h0Z" fill="#fff"/>
    <path d="M96.48,45.84c-.18.29-.41.58-.59.72-.21.17-.41.19-.59.19-1.16,0-1.54-1.09-1.54-1.87,0-1.21.48-1.77,1.21-1.77.29,0,.55.05.77.17.28.16.32.38.42.83.01.05.31.02.35-.03,0-.38.05-.97.09-1.22-.26,0-.81-.12-1.48-.12-.57,0-1.02.1-1.41.29-.78.37-1.18,1.11-1.18,1.92,0,1.52.97,2.29,2.56,2.29.52,0,.81-.1,1.04-.18.21-.12.52-.69.63-1-.05-.09-.2-.19-.29-.21h0Z" fill="#fff"/>
    <path d="M92.11,46.7c-.18-.05-.19-.19-.2-.32-.01-.27,0-.97,0-1.62,0-.6,0-.96,0-1.19,0-.12,0-.26.17-.31.11-.03.26-.05.41-.07.03-.04.03-.29,0-.33-.18,0-.41.02-1.16.02-.51,0-.86-.02-1.1-.02-.04.05-.04.29-.01.33.14.02.26.03.43.08.12.03.17.13.18.28.01.28.01.52.01,1.28,0,.34,0,1.39-.01,1.55-.02.26-.06.32-.26.36-.03,0-.11,0-.15,0-.16-.04-.22-.1-.38-.26-.31-.31-.92-1.1-1.07-1.39-.01-.02-.01-.04,0-.05.47-.2.82-.51.82-1.07,0-.62-.5-1.12-1.4-1.12-.24,0-.66.02-1.38.02-.28,0-.88-.02-1.05-.02-.05.03-.07.27-.03.33.15.03.31.05.4.08.12.03.18.11.19.26.01.25.01.74.01,1.43,0,.43,0,1.23-.02,1.45,0,.19-.05.29-.21.32-.09.02-.26.05-.36.06-.05.03-.03.31,0,.33.2,0,.57-.02,1.14-.02s.97.02,1.09.02c.05,0,.06-.33.02-.33-.19-.03-.26-.03-.42-.08-.13-.04-.17-.15-.18-.3,0-.22-.01-.55-.01-.97,0-.01.02-.05.03-.05.02,0,.13,0,.2,0,.1,0,.14.02.2.1.23.36.48.8.78,1.16.04.07.17.21.37.31.35.18,1.05.17,1.45.14.18,0,.42,0,.78,0,.62,0,.92.01,1.14.02.05-.03.08-.28.05-.33-.16-.03-.38-.06-.47-.09h0ZM88.36,44.87c-.11.06-.45.08-.74.08-.03,0-.05-.04-.05-.07,0-.51,0-1.29.01-1.5,0-.03.03-.08.05-.1.03-.02.15-.03.22-.03.5,0,.85.34.85.92,0,.43-.15.61-.35.71Z" fill="#fff"/>
    <path d="M107.72,46.69c-.18-.05-.23-.2-.24-.37-.04-.48-.1-2.19-.09-2.71,0-.15.02-.28.18-.33.1-.03.26-.05.47-.1.05-.03.04-.32,0-.33-.35,0-.66.02-1.68.02-.01.13-.07.28-.14.44-.2.5-.77,1.68-.97,2.04-.01.02-.04.02-.06,0-.21-.4-.67-1.38-.95-2-.07-.14-.13-.31-.15-.48-.52,0-1.28-.02-1.82-.02-.02.02-.05.29-.03.33.23.04.43.08.56.12.14.05.18.2.17.32-.02.5-.17,2.13-.23,2.67-.03.26-.1.37-.31.43-.07.02-.19.04-.31.05-.06,0-.15,0-.2,0-.2-.03-.31-.05-.4-.09-.12-.05-.14-.19-.15-.32-.01-.31-.01-.88-.01-1.36,0-.58,0-.92,0-1.38,0-.22.03-.31.16-.36.07-.04.24-.07.38-.08.05-.05.05-.29,0-.33-.26,0-.46.02-1.08.02-.57,0-.76-.02-1.11-.02-.05.03-.05.3-.01.33.22.03.36.04.45.09.1.03.12.16.12.25,0,.4,0,.76,0,1.11,0,.01-.03.03-.05.04-.07.01-.25.01-.76.01-.69,0-.79,0-.85-.01-.01-.01-.02-.02-.03-.05,0-.39,0-.74,0-1.04,0-.17.02-.27.16-.33.07-.03.23-.05.36-.07.04-.03.04-.29,0-.33-.15,0-.51.02-1.11.02-.66,0-.89-.02-1.07-.02-.03.03-.05.31-.01.33.12.01.26.03.41.07.14.04.17.12.17.35,0,.21,0,.62,0,1.31,0,.63,0,1.28,0,1.39-.01.24-.06.36-.25.41-.1.03-.19.05-.35.07-.05.05-.03.3,0,.33.12,0,.48-.02,1.06-.02.75,0,1.09.02,1.21.02.04-.03.07-.28.03-.33-.15-.03-.35-.06-.44-.1-.16-.05-.18-.18-.18-.35,0-.25,0-.62,0-1.07,0,0,0-.03.01-.04.03-.02.1-.02.85-.02.31,0,.66,0,.8,0,.02,0,.04.03.04.04,0,.45,0,.83,0,1.16,0,.15-.06.25-.16.29-.11.03-.24.05-.4.07-.05.05-.04.29,0,.33.14,0,.51-.02,1.11-.02s.97.02,1.14.02h.06c.26,0,.59-.02.87-.02.58,0,.95.02,1.11.02.04-.04.06-.3.02-.33-.19-.03-.34-.05-.48-.1-.22-.07-.24-.17-.24-.38,0-.49.04-1.47.09-2.2,0-.01.04-.02.05-.01.44,1,1.02,2.35,1.21,2.94.03.01.34.02.37,0,.21-.54,1-2.27,1.3-2.98,0,0,.03,0,.03,0-.01.83,0,1.71-.01,2.28,0,.26-.04.32-.15.36-.1.03-.22.05-.4.08-.03.05-.04.29,0,.33.38,0,.67-.02,1.07-.02.68,0,1.03.02,1.28.02.05-.04.06-.28.03-.33-.19-.03-.36-.07-.46-.1l.02.02Z" fill="#fff"/>
    <path d="M110.51,42.74c-.65,0-1.19.19-1.59.48-.66.47-.85,1.19-.85,1.77,0,.54.14,1.16.59,1.61.38.38.9.64,1.75.64.7,0,1.4-.27,1.9-.89.29-.38.43-.9.43-1.43,0-1.16-.77-2.18-2.24-2.18h0ZM111.13,46.62c-.14.13-.33.19-.5.19-.29,0-.48-.1-.68-.25-.48-.4-.65-1.19-.65-1.78,0-.64.12-1.23.51-1.5.13-.1.32-.14.5-.14.26,0,.44.08.64.24.42.36.61,1.06.61,1.79,0,.6-.1,1.16-.42,1.46Z" fill="#fff"/>
    <path d="M121.68,43.28c-.38-.31-.88-.44-1.52-.44-.56,0-.71.01-1.3.02-.21,0-.93-.02-1.09-.02-.17,0-.4.02-.91.02s-.85-.02-1-.02c-.02.01-.04.31,0,.33.16.02.29.04.45.07.24.05.31.17.32.41.03.54.03,1.09.04,1.98-.01,0-.03,0-.04,0-.43-.48-1.36-1.65-1.95-2.38-.14-.18-.22-.29-.28-.42-.14,0-.4.01-.64.01-.55,0-.82-.02-1.06-.02-.02.03-.03.31,0,.35.21.02.36.07.48.12.18.06.24.27.24.43,0,.74-.02,2.16-.07,2.54-.01.19-.07.34-.24.41-.16.05-.27.07-.44.1-.02.03-.04.29,0,.33.3,0,.71-.02,1-.02.32,0,.65.02.97.02.04-.06.05-.3.01-.33-.19-.03-.32-.05-.44-.08-.19-.05-.31-.16-.32-.48-.01-.3-.03-1.43-.02-2.2,0,0,.01-.03.04,0,.62.77,1.9,2.46,2.43,3.14.1-.01.66-.03.78,0,0-.27-.01-.67-.01-.99,0-.92.01-1.93.05-2.49.04-.35.14-.38.33-.44.04,0,.09-.02.12-.02.06-.01.21-.01.28,0,.08.01.16.03.2.04.19.05.21.14.23.33.01.33,0,.66,0,1.43,0,.55,0,1.25-.01,1.37-.01.19-.1.29-.26.33-.15.03-.22.05-.41.07-.04,0-.04.26,0,.33h.33c.63,0,1.28.03,1.66.03.73,0,1.42-.11,1.99-.57.43-.34.78-.89.78-1.72,0-.65-.28-1.22-.73-1.58h0ZM120.89,46.34c-.23.29-.46.41-.79.41-.12,0-.42-.05-.55-.17-.05-.05-.11-.15-.12-.23-.02-.2-.01-.68-.01-1.35,0-.63,0-1.45,0-1.69,0-.01.03-.07.06-.07.03-.01.14-.03.21-.03.29,0,.64.06.9.25.45.32.69.91.69,1.51,0,.69-.16,1.07-.39,1.37h.01Z" fill="#fff"/>
    <path d="M93.76,16.23c.11.76.33,1.47.66,2.07.26-.56.73-1,1.07-1.23.01.06.03.1.04.15-.3.3-.54.66-.76,1.06.29-.34.57-.56.86-.78.44,1.14,1.26,1.85,2.14,2.34.21-1.08.59-2.01,1.06-2.47.02.03.05.09.07.12-.34.54-.44.82-.58,1.39.28-.48.51-.79.78-1.09.25.35.49.59.71.81.8-.8,2.47-.83,3.38-.92-1.06-.85-5.01-.1-6.6-2.37.09-.18.22-.35.41-.56-.4.24-1.09.86-1.51,1.36.09-.26.19-.47.31-.65-.65-1.25-.54-2.83-.41-4.02.18-.13.38-.26.6-.36-.58.13-1.02.34-1.56.72-.2-1.55.44-3.25.98-4.4-.24.04-.42.13-.63.26.27-1.29.74-2.38,1.68-3.4-1.14.99-2.01,2.27-2.48,3.87.26-.13.36-.17.56-.22-.02.03-.05.08-.07.12-.37.2-.59.37-.93.74.33-.21.52-.31.74-.4-.83,1.49-1.59,3.07-1.23,5.4.23-.28.58-.56.77-.64,0,.04-.01.08-.02.13-.39.37-.66.8-.84,1.21.22-.3.46-.54.77-.74-.1.84-.09,1.7.03,2.51" fill="#fff"/>
    <path d="M110.71,14.21c-.04.24-.05.5-.04.7.47.12,1.01-.59,1.25-1.67.21.18.41.37.64.63-.17-.42-.32-.65-.58-.95.01-.05.04-.12.05-.17,0,0,.19.14.34.34.12-.33.21-1.08.26-2.1-.18.34-.49.61-.8.76-.26,1.41-.74,2.21-1.1,2.46h-.01Z" fill="#ffd200"/>
    <path d="M112.7,7.93c0-.32-.02-.56-.11-.83.07.02.19.08.25.11-.05-.67,0-1.02-.26-1.63,0,.35-.03.79-.24.99-.18.16-.36.28-.55.37.32.22.68.56.91,1h0Z" fill="#ffd200"/>
    <path d="M96.6,13.77c.2-.17.41-.28.65-.36,0,.02.02.05.04.07-.39.26-.64.48-.97.93.43-.31.78-.49,1.14-.66.74,1.06,2.31,1.9,4.07,2.13-.24-.5-1.14-1.13-1.46-1.62-.61-.94-.25-2.04.28-2.71-1.27.56-1.6.96-1.77,1.82-1.53-1.5-1.72-5.28-1.46-7.36-.85,1.54-1.53,2.67-1.53,4.84.25-.1.52-.21.82-.25-.16.83-.12,2.16.2,3.16h0Z" fill="#ffd200"/>
    <path d="M100.9,4.95c.5.42.75.73,1.78.95.17.03.42.03.62.02-.41.3-.97.42-1.56.49-.76.09-1.94-.5-2.8-.66-.32-.33-.38-.68-.23-.91.06-.09.14-.32.35-.5h.13c.27.02.54.05.81.12.31.07.65.29.89.49h0Z" fill="#fff"/>
    <path d="M101.71,8.19c.8.04,1.48.25,2.07.4.09.02.18.05.28.07,1.05.29,2.05.62,2.92.94.32.21-1.23-.18-2.92-.64.03.15.11.29.25.42.15.14.27.27.35.39-.46-.13-.93-.24-1.39-.31-.58-.09-1.15-.12-1.66-.07.66.04,1.49.15,2.35.36.02,0,.04,0,.06,0s.04,0,.06,0c1.08.22,2.11.47,3.01.74.3.17-.8,0-2.21-.26.11.44.05.77.83,1.01.96.29,2.45.14,3.04-.12.39-.17.81-.54.88-.7.02-.06.05-.11.07-.16-.54-.17-.35-.82-.97-1.2-.44-.27-.44-.53-.67-.97-.09-.16-.21-.34-.38-.56-.63-.75-.89-.86-1.51-.8-.41.04-1.07.19-1.56.81-.15-.06-.3-.12-.46-.18-.81-.3-1.64-.51-2.45-.53.84.11,1.41.29,2.46.66,1.09.36,2.11.75,2.99,1.14.29.22-1.17-.21-2.79-.74-.11.18-.22.38-.28.6-.23-.07-.46-.13-.69-.18-.57-.13-1.14-.19-1.68-.16h-.01Z" fill="#fff"/>
    <path d="M104.94,4.72s-.1-.05-.14-.08c0,.04-.01.09-.03.14-.48.03-1.11-.64-1.41-.91-.45-.41-.92-.51-1.58-.57-.31.02-.36-.08.01-.18.44-.06.82-.04,1.15.04-.23-.2-.48-.38-.78-.48-.23-.08-.48-.18-.72-.19-.14,0-.33.03-.5.08-.28.09-.62.24-.83.36.01.3-.1.61-.06.92.02.16-.01.26.12.35.08.05.17.14.24.18.08.04.27.02.41,0,.34-.06.61-.18.89-.2.76-.05,1.49.06,1.98.41.48.37,1.08.74,1.23.82.06.03.13.09.21.09.06-.03.11-.06.17-.09v-.08c0-.15-.08-.47-.38-.63h.01Z" fill="#fff"/>
    <path d="M111.61,4.12c-.03-.17-.09-.44-.16-.55-.14-.23-.26-.39-.41-.54-.27-.17-.62-.3-1.1-.43-.22-.06-.68-.1-.77-.09-.14.02-.21.12-.25.21-.07.14.23.49.44.82.17-.24.4-.35.83-.38.31,0,.31.1.08.14-.14.02-.38.18-.55.59-.12.27-.12.71-.56.83-.04-.04-.07-.09-.09-.13-.06.09-.17.28-.08.46l.11.09s.08.04.12.06c-.03-.33.42-.61.6-.79.39-.38.93-.24,1.18-.15.18.06.32.23.49.3.15.03.15-.14.17-.21.02-.07-.04-.15-.05-.23h0Z" fill="#fff"/>
    <path d="M104.99,18.89c-.01.22.09.48.23.74.14.25.35.45.58.53.05.18.07.35.05.54.32.08.56,0,.84-.14.07.14.09.33.07.59.27-.02.45-.07.66-.22.01.12,0,.3-.03.46.13-.2.2-.34.23-.52.02-.01.06-.02.08-.03.03.21.04.4-.02.75.21-.37.28-.59.32-.94.03-.02.03,0,.06-.03.05.18.09.36.08.63.57-.11.85-.4,1.06-.88.09.08.21.23.29.38.48-.23.67-.8.75-1.17.04-.2.09-.57.04-.71.05.02.1.04.14.07.19-.4.09-.96.33-1.29.19-.27.04-.54-.04-.85-.08,1.63-.69.92-.84.84-.54-.28-2.45-.26-3.22-.05-.32.08-.56.13-.74.31-.55.53-.74.32-.84-.15-.01-.19-.04-.35-.08-.52,0-.03-.01-.06-.01-.09v.06c.01.42-.45.43-.48.82,0,.05,0,.11.01.18.04.16.47.48.46.71h0Z" fill="#fff"/>
    <path d="M103.14,4.98c-.15-.02-.26-.11-.24-.19.02-.08.14-.12.29-.09.15.02.26.11.24.19-.01.08-.14.12-.29.09Z" fill="#fff"/>
    <path d="M110.67,4.63c.02.07-.07.15-.21.19-.13.04-.25.01-.27-.05-.02-.07.07-.15.2-.19.13-.04.25-.01.27.05h0Z" fill="#fff"/>
    <path d="M111.89,6.13c.05-.17.18-.37.19-.53.01-.16-.06-.45-.14-.74-.39-.09-.48.02-.63.2-.28.34-.33.43-.65.59-.23.11-.44.11-.66.06.27.22.6.38.92.41.34.03.68.15.96,0h0Z" fill="#fff"/>
    <path d="M112.1,4.39c0,.19.18.4.11.5-.06.02-.16,0-.26-.01.07.29.15.57.13.74-.01.16-.14.36-.19.53,0,0,0,0,.01,0,.04-.02.08-.05.12-.09.35-.37.49-.57.45-.99-.03-.11.26.02.46.38-.18-.39-.38-.75-.56-1.03-.07-.1-.12-.18-.18-.27-.07-.06-.1.11-.1.26h0Z" fill="#ffd200"/>
    <path d="M110.84,4.64s-.01-.04-.02-.06h-.08c.06.28-.11.56-.4.65-.3.09-.61-.07-.7-.36h0c-.07.04-.12.11-.15.17.11.37.5.59.88.48.37-.11.59-.5.48-.88h0Z" fill="#7e5300"/>
    <path d="M103.67,4.83c-.07.37-.44.61-.82.55-.39-.07-.65-.43-.59-.8,0-.01,0-.03.01-.05-.09,0-.17,0-.25.02-.01.04-.03.09-.04.14-.08.49.24.95.73,1.04.49.08.95-.24,1.04-.73,0-.03.01-.07.01-.1-.03-.02-.06-.04-.09-.06h0Z" fill="#7e5300"/>
    <path d="M106.27,16.95c-.34.2-.25-.09-.33-.29-.14-.34-.41-.65-.46-1.42-.04-.33-.06-.88.28-.98.53-.16,1.32.36,1.77.36s.89-.46,1.34-.38c.3.05.42.44.52.81.1.4.07.7.11.97.03.18.05.23.1.32,0,0-.11.14-.11.15,0,0-.01-.01,0,0-.04-.04-.1-.06-.16-.06s-.12.02-.17.07c-.03.03-.07.07-.1.12-.03-.02-.06-.02-.1-.02-.05,0-.11.02-.15.06-.04-.02-.08-.04-.12-.04-.05,0-.1.02-.14.05-.04-.03-.08-.05-.14-.05-.04,0-.09.01-.13.04-.04-.04-.09-.06-.15-.06-.03,0-.07.01-.1.03-.03-.04-.07-.09-.11-.13-.04-.04-.1-.06-.16-.06s-.12.02-.17.07c-.02.01-.03.03-.05.06-.11-.36-.18-.63-.24-.89-.02-.09-.04-.18-.07-.27-.05-.21-.13-.42-.32-.42-.22,0-.31.27-.35.43-.12.42-.24,1.12-.27,1.55h-.02Z" fill="#d71921"/>
    <path d="M106.58,11.88c0-.15.4-.25.58-.25s.55.12.53.29c-.17.78-.2,1.22-.26,1.72-.07.49-.23.46-.41,0-.16-.42-.32-.9-.43-1.76h0ZM107.98,11.69s.13-.1.22-.1.24.05.24.1c0,.1-.04.25-.19.4-.03.02-.06.02-.1,0-.1-.08-.17-.3-.16-.39ZM108.51,11.65s.09-.06.14-.06.14.03.14.06c0,.06-.03.16-.12.25-.01.02-.04.02-.06,0-.06-.05-.1-.19-.1-.24h0ZM108.83,11.62s.08-.06.14-.06c.06,0,.14.03.14.06,0,.06-.03.16-.12.25-.01.02-.04.02-.07,0-.06-.05-.1-.19-.1-.24h0ZM109.15,11.62s.08-.06.14-.06.14.03.14.06c0,.06-.03.16-.12.25-.01.02-.04.02-.07,0-.06-.05-.1-.19-.1-.24h0ZM111.46,11.91c-.16.66-.37,1.14-.63,1.57-.33.55-.42.46-.39.12.04-.45.12-.91.03-1.69,0-.14.3-.27.5-.27s.52.11.49.27h0ZM107.45,16.85c.04.14-.24.22-.38.22s-.44-.05-.46-.18c-.01-.71.07-1.11.14-1.45.08-.39.2-.41.3,0,.11.42.18.78.39,1.43h0ZM109.58,16.85c.38-.65.5-1.04.65-1.42.11-.28.22-.36.25.1.03.36.04.77-.1,1.32-.05.13-.3.2-.45.2s-.41-.09-.36-.21h0ZM110.04,11.59c.09,0,.23.05.23.1,0,.1-.04.25-.19.4-.03.02-.07.02-.11,0-.09-.08-.16-.3-.16-.39,0-.04.14-.1.22-.1ZM109.48,11.65s.08-.06.14-.06.14.03.14.06c0,.06-.03.16-.12.25-.01.02-.04.02-.07,0-.06-.05-.1-.19-.1-.24h0ZM109.08,16.98s-.07.05-.12.05-.12-.02-.12-.05c0-.05.04-.16.09-.21.02-.02.04-.02.06,0,.08.07.1.15.1.21h0ZM108.81,17s-.07.05-.12.05-.12-.02-.12-.05c0-.05.03-.16.08-.21.02-.02.04-.02.06,0,.08.07.1.15.1.21h0ZM108.43,16.78c.08.07.1.15.1.21,0,.03-.07.05-.12.05s-.12-.02-.12-.05c0-.05.04-.16.08-.21.02-.02.04-.02.06,0h0ZM108.25,16.98s-.07.05-.12.05-.12-.02-.12-.05c0-.05.03-.16.08-.21.02-.02.04-.02.06,0,.08.07.1.15.1.21h0ZM107.95,16.94s-.12.09-.2.09-.19-.04-.19-.08c0-.07.06-.26.14-.34.03-.03.06-.03.09-.01.12.12.16.25.16.34h0ZM109.27,16.61s.07-.03.09-.01c.12.12.16.25.16.34,0,.05-.12.09-.2.09s-.19-.04-.19-.08c0-.07.06-.26.14-.34h0Z" fill="#fff"/>
    <path d="M116.23,27.56c-.04-.23-.1-.47-.13-.54-.37-1.21-1.02-2.12-1.69-2.83-.28-.29-.56-.56-.83-.79-1.16-1-1.78-1.54-1.65-3.28,0-.04,0-.07.01-.11.02-.22.07-.41.13-.57-.37.28-.77.53-1.18.71-.04.18-.19.74-.53,1.13.37,1.25,1.3,2.56,1.78,3.15-.26-.51-.33-.83-.53-1.4.75.97,1.63,2.35,1.71,3.78-.47-.5-.97-.92-1.32-1.1.66,1.48.59,2.44.18,3.86-.81,2.85-2.22,3.3-3.98,6.35.41-.45.77-.79,1.19-1.05-.84.94-1.62,2.45-1.61,3.87,4.16-3.06,6.86-6.95,8.44-11.19h0Z" fill="#ffd200"/>
    <path d="M115.91,21.27c-.59-1.03-.85-1.88-1.7-2.73-.15-.15-.39-.37-.63-.66-.16.25-.33.45-.58.71.01.11.04.45.04.64.07,1.64,1.07,2.65,2.26,3.72.51.46,1.31,1.15,1.8,1.82.12-.5.24-1,.34-1.5-.62-.67-1.23-1.47-1.53-2h0Z" fill="#ffd200"/>
    <path d="M115.5,19.1c.38.74,1.39,2.03,2.19,2.79.05-.34.1-.68.14-1.03-.71-.36-1.57-1.09-2.33-1.76Z" fill="#ffd200"/>
    <path d="M96.48,20.34c-.28-.31-.53-.64-.73-.95-.55.98-1.32,2.37-1.71,3.84.28-.5.61-1.03.61-1.03-.29.95-.61,2.18-.81,3.65-.19,1.45-.25,3.34-.05,5.26.57,1.02,1.23,2,1.96,2.94-1.51-4.6-1.61-9.55.74-13.72h0Z" fill="#ffd200"/>
    <path d="M104.62,22.16c-.18-.22-.33-.45-.46-.66-.4-.18-.75-.37-.99-.56-.45.24-.93.57-1.5,1.02.37-.46.8-.85,1.28-1.19-.23-.18-.41-.37-.56-.57-.46.22-.88.38-1.37.78.36-.53.64-.69,1.2-1.06-.01-.03-.06-.09-.08-.12-.77.27-1.39.61-1.81.98-.23-.23-.5-.59-.74-.97-.15.33-.3.7-.42,1.09-.08.32-.15.58-.17.7,0,0,0,0,0,.01-.01.05-.02.1-.03.16-.24-.03-.66-.16-1.01-.32-.13,1.07.01,2.44.52,3.81-.05-.48-.06-.74-.02-1.11.24,1.04.51,1.68,1.03,2.23.77-1.14,2.26-2.35,3.74-2.92-.56.09-.98.21-1.56.42.75-.5,1.34-.77,2.04-1.15.38-.2.7-.4.94-.59h0Z" fill="#ffd200"/>
    <path d="M113.95,17.21c.71-1.07.64-2.99.44-4.47.15.08.29.18.45.32-.15-.3-.28-.46-.5-.66-.01-.05-.01-.12-.03-.17.13.09.23.17.32.27.11-1.29.07-2.31-.34-3.46,0,0,.13-.02.25.03-.03-.08-.07-.2-.12-.35-.18.1-.38.18-.59.27.04.22.08.44.1.67-.36,0-.76.09-1.18.23v-.04c0-.19,0-.36,0-.51-.78.24-1.47.42-1.3.26.32-.15.66-.3,1.02-.43.02,0,.05-.02.07-.03.06-.02.11-.04.17-.06.61-.21,1.26-.38,1.88-.47-.08-.01-.16-.02-.24-.03-.08-.23-.19-.52-.3-.8-.13.08-.29.17-.47.26.06.18.1.38.15.59-.33.07-.68.19-1.04.35-.03-.18-.09-.33-.16-.48-.58.22-1,.36-.87.22.89-.52,1.62-.91,2.69-1.19.03,0,.05,0,.07-.01-.14-.01-.35,0-.47.02-.03-.09-.07-.18-.11-.27-.01-.03-.09-.22-.1-.25h.1c-.47-1.29-1.18-2.61-2.18-3.62.34.47.45.64.69,1.02.48.76,1.06,2.04,1.35,3.19-.43.12-.85.37-1.31.66-.03-.05-.06-.11-.1-.17-.08-.12-.36-.37-.59-.49.08.16.11.4.03.67-.14.49-.38.76-.65,1.1-.23.28-.52.94-1.04.99v.13c0,.32.36.75.55.84.38.18.45.19.9.09.45-.1.7-.4.85-.59.12-.15.22-.32.3-.51-.8.2-1.53.35-1.34.19.34-.15.72-.28,1.11-.4,0,0,.01,0,.02,0,.64-.19,1.33-.33,1.98-.38-.14.08-.29.15-.46.21.04.44.04.87-.01,1.22.15.14.28.31.42.56-.11-.09-.21-.17-.32-.25-.38-.27-.65-.41-1.07-.48.24.11.45.26.64.41-.03,1.13-.18,2.75-.55,3.57-.13-.18-.25-.31-.45-.45,0,.01-.04.07-.04.08.28.33.43.56.59,1.02-.26-.3-.48-.53-.69-.72-.39,1.12-.92,1.36-1.36,1.39,0,0,.42.87.04,1.71-.03.06-.04.15-.06.25.11.23.08.36.17.63.7-.29,1.52-1.14,2-1.82.21.19.41.4.69.71-.16-.41-.3-.64-.54-.92.03-.04.05-.05.07-.09.19.14.3.24.45.47h.01Z" fill="#fff"/>
    <path d="M114.25,2.95c-.68.08-1.43,0-2.02-.32.5.01.88-.07,1.8-.35-.28.02-3.06.1-4.69-.31-.71-.32-3.01-1.24-4.4-.47-2.27-.74-5.13.02-5.97.66-1.52,0-3.13-.11-4.04-.4.74.52,1.32.6,1.76.7-1.12.04-1.91-.12-3.11-.38.4.39.69.55,1.28.73-.35.03-.71.01-1.1-.05.46.38,1.62,1.01,2.61.57.28-.12,1.2-.61,1.96-.7-.42.23-1.1.84-1.48,1.28-.01.02-.02.04-.04.06.35-.25.77-.45,1.18-.53-.62.46-.89.93-.91,1.44.21-.23.38-.47.63-.55.06-.02.1.04.15.15.09.12.15.42.27.69.13.27.31.51.6.54.07,0,.14.02.21.03-.32-.33-.38-.68-.23-.91.06-.09.14-.32.35-.5-.13,0-.25,0-.33-.11-.06-.09-.11-.21-.14-.32-.03-.11-.14-.3-.11-.41.26,0,.52.08.79,0,.4-.11.3-.53.79-.87.04.1.06.2.06.3.21-.12.55-.27.83-.36.16-.05.35-.09.5-.08.24.01.49.11.72.19.3.1.55.28.78.48.7.17,1.21.61,1.71,1.1.12.12.18.22.16.37.04.03.09.06.14.08.3.15.38.48.38.63v.08c.76-.43,1.4-.69,2.18-.34-.72-.05-1.43.32-2.02.82-.39.33-1.2,1.08-1.81,1.1-.06-.26.03-.4.23-.59.25-.2.51-.39.77-.57-.14-.03-.29-.02-.46,0-.22.3-.54.47-.75.57-.71.32-1.08.47-2.43.37-.86-.06-1.49.07-1.94.07s-.68-.1-.94-.33c-.26-.23-.38-.56-.51-.95-.02,1.16.29,4.04,1.48,4.69.19-.13.55-.23.87-.23-.46.22-.96.67-1.24,1.22,1.08-.94,1.89-1.17,3.23-1.18-.55.95-.68,1.77-.65,2.58.01.5.08.9.19,1.21.21.67.57,1.36,1.01,1.86-.11-.24-.2-.49-.28-.74.32.34.69.69,1.09,1.24.51.7.85.8,1.21,1.76.03-.39.49-.4.48-.82-.07-.27-.18-.53-.37-.92-.36-.73-1.61-3.23-1.66-4.77-.02-.53.32-.83.44-1.07.08-.15.08-.3.05-.45-.64-.15-1.36-.37-1.82-.57.52-.06,1.09-.02,1.66.07-.07-.21-.11-.43-.05-.71,0,0,0-.02.01-.03-.56-.17-1.05-.34-1.54-.54.55-.03,1.12.03,1.68.16.11-.2.25-.4.42-.6-.96-.33-1.68-.65-2.11-.88.81.01,1.64.23,2.45.53.18-.17.4-.36.63-.54.21-.16.44-.39.65-.55.66-.45,1.54-1.04,2.31-.55-.12,0-.26.01-.39.03-.45.05-.18.71.33,1.24.28.28.55.69.87,1.15.21.3.23.4.47.47.4.12.83.31.74.56-.07.18-.36.1-.3.32.12.46.46.55.74.5.04-.02.09-.03.14-.04.04-.01.08-.03.12-.05.14-.09.19-.23.33-.45.06-.14-.04-.13-.04-.25,0-.08.15-.27.36-.45.26-.22.42-.65.42-.84,0-.23,0-.39-.1-.56-.4-.56-1.45-1.21-1.58-1.3-.36-.27-.7-.31-1.08-.33.2-.18.36-.17.52-.11-.11-.11-.17-.18-.27-.24-.32-.22-.69-.3-1.15-.33.51-.23.8-.22,1.23.07l-.11-.09c-.09-.18.02-.36.08-.46-.06-.13-.06-.26-.01-.38.11-.29.19-.5.31-.66-.21-.33-.51-.68-.44-.82.04-.09.11-.19.25-.21.08-.01.54.02.77.09.48.13.83.26,1.1.43-.03-.03-.06-.06-.1-.09-.27-.21-.59-.43-1-.65.49.22,1.08.49,1.42.66.65.33,1.16.83,2.29.77-.29-.06-.76-.28-1.21-.6.2,0,.78.18,1.81-.15h-.02ZM101.89,7.65c-.4.3-1.03.54-1.62.43-.08.25-.04.69.14,1.2-1.01-.45-1.62-1.22-1.69-1.78.65-.31,2.03.15,3.17.16ZM110.35,8c.26.01.66,0,.89-.11.01.17-.62.46-.76.46-.15,0-.31-.1-.45-.14-.18-.04-.38-.09-.5-.11-.1-.01-.22-.06-.24-.19.35.02.7.07,1.06.09ZM102.5,1.69c1.03-.2,2.42-.05,2.93.33.4-.28,1.1-.46,2.28-.27-.98.06-1.26.12-1.49.3.29-.06.61-.08,1.16.05-.65.04-1.46.23-1.46.6-.43-.32-1.37-.59-2.21-.59.43-.13.75-.12,1-.06-.52-.24-.98-.35-2.21-.37h0ZM106.85,3.88c-.48-.5-1.08-.83-2.25-1.03.64-.11,1.52.03,1.94.29.45-.36.93-.44,1.47-.37-.53.16-1.28.59-1.17,1.1h0Z" fill="#ffd200"/>
  </g>
  <path d="M2.66,68.27c-.34,0-.66-.06-.94-.18-.29-.12-.54-.3-.77-.52-.22-.22-.38-.48-.5-.77-.12-.29-.18-.61-.18-.95s.06-.66.18-.95c.12-.29.29-.55.5-.77.22-.22.47-.39.76-.51.29-.12.61-.19.95-.19s.66.06.94.19c.29.12.54.29.76.51.22.22.39.48.51.77.12.29.18.61.18.95s-.06.66-.18.95c-.12.29-.29.55-.51.77-.22.22-.47.39-.76.52-.29.12-.6.18-.94.18ZM2.66,67.29c.27,0,.5-.07.7-.2.2-.13.35-.31.45-.53.11-.22.16-.46.16-.72s-.05-.5-.16-.72c-.1-.22-.25-.4-.45-.52-.19-.13-.43-.2-.7-.2s-.51.07-.7.2c-.19.13-.34.3-.45.52-.11.22-.16.46-.16.72s.05.5.16.72c.11.22.26.4.45.53.2.13.43.2.7.2ZM5.78,68.16v-4.6h3.09v.92h-2.05v1.04h1.56v.89h-1.56v1.75h-1.04ZM9.49,68.16v-4.6h3.09v.92h-2.05v1.04h1.56v.89h-1.56v1.75h-1.04ZM13.21,68.16v-4.6h1.04v4.6h-1.04ZM18.59,66.66l.71.65c-.13.17-.29.34-.5.48-.2.15-.42.26-.67.35-.25.09-.51.13-.8.13-.46,0-.88-.1-1.23-.31-.35-.21-.63-.49-.83-.85-.2-.36-.3-.78-.3-1.24,0-.34.06-.66.17-.95.11-.3.28-.56.48-.78.21-.22.46-.39.75-.52.29-.12.62-.19.97-.19.42,0,.8.08,1.12.23.32.16.59.38.8.68l-.71.68c-.14-.19-.3-.35-.49-.46-.19-.12-.41-.18-.68-.18-.28,0-.51.07-.72.2-.2.13-.35.3-.46.52-.11.22-.16.46-.16.73s.05.51.16.73c.11.22.26.39.46.52.2.12.43.19.7.19.22,0,.4-.03.55-.09.15-.06.27-.14.37-.23.11-.1.2-.2.3-.3ZM19.84,68.16v-4.6h1.04v4.6h-1.04ZM21.38,68.16l1.72-4.6h1.15l1.68,4.6h-1.14l-.35-1.06h-1.62l-.35,1.06h-1.09ZM23.07,66.29h1.13l-.56-1.74-.57,1.74ZM26.43,68.16v-4.6h1.04v3.68h2.2v.92h-3.24ZM31.21,67.51l.67-.72c.12.13.28.26.48.38.2.12.44.19.7.19.11,0,.21-.02.31-.06.1-.04.18-.1.25-.17.07-.08.1-.17.1-.28,0-.17-.08-.3-.25-.4-.17-.1-.43-.19-.79-.28-.35-.09-.64-.24-.87-.46-.23-.22-.34-.51-.34-.86,0-.26.06-.49.19-.7.12-.22.31-.39.56-.52.25-.13.56-.2.94-.2.31,0,.57.04.79.12.22.08.39.17.52.26.13.1.22.17.27.23l-.6.66c-.1-.08-.23-.17-.4-.26-.17-.1-.36-.15-.59-.15-.15,0-.28.04-.41.13-.12.08-.19.18-.19.3,0,.16.08.28.25.38.17.1.39.18.68.24.23.06.44.14.65.25.21.11.38.26.52.46.13.2.2.46.2.77,0,.28-.08.52-.23.74-.16.22-.37.39-.63.51-.27.12-.57.19-.9.19-.3,0-.57-.04-.81-.11-.23-.07-.44-.17-.61-.28-.17-.12-.32-.24-.44-.37ZM35.57,66.41v-2.86h1.05v2.72c0,.3.06.54.19.72.13.18.36.28.69.28s.55-.09.68-.28c.13-.18.19-.43.19-.72v-2.72h1.06v2.86c0,.37-.08.69-.24.97-.16.28-.38.5-.67.66-.28.16-.63.23-1.02.23s-.73-.08-1.02-.23c-.29-.16-.51-.37-.68-.66-.16-.29-.23-.61-.23-.98ZM40.29,68.16v-4.6h1.68c.38,0,.69.07.92.21.24.14.41.32.52.54.11.23.17.47.17.72,0,.33-.07.6-.22.83-.15.22-.34.39-.58.5-.23.11-.49.17-.77.17h-.71v1.62h-1.01ZM41.31,65.69h.61c.19,0,.34-.06.46-.18.11-.12.17-.27.17-.46,0-.19-.06-.35-.17-.47-.11-.12-.27-.19-.46-.19h-.6v1.29ZM44.28,68.16v-4.6h3.14v.91h-2.1v.9h1.63v.88h-1.63v.99h2.26v.92h-3.3ZM48.28,68.16v-4.6h1.71c.36,0,.66.07.9.2.24.13.42.3.54.52.12.22.18.46.18.72,0,.29-.07.55-.2.78-.13.23-.31.4-.55.54l1.02,1.84h-1.14l-.86-1.69h-.58v1.69h-1.01ZM49.29,65.63h.64c.19,0,.34-.06.46-.17.11-.11.17-.26.17-.43,0-.19-.06-.34-.17-.45-.11-.11-.26-.17-.45-.17h-.64v1.22ZM52.07,68.16l1.72-4.6h1.15l1.68,4.6h-1.14l-.35-1.06h-1.62l-.35,1.06h-1.09ZM53.75,66.29h1.13l-.56-1.74-.57,1.74ZM57.12,68.16v-4.6h.99l1.99,2.99v-2.99h1.03v4.6h-.94l-2.04-3.04v3.04h-1.03ZM62.02,68.16v-4.6h.99l1.99,2.99v-2.99h1.03v4.6h-.94l-2.04-3.04v3.04h-1.03ZM66.9,66.41v-2.86h1.05v2.72c0,.3.06.54.19.72.13.18.36.28.69.28s.55-.09.68-.28.19-.43.19-.72v-2.72h1.06v2.86c0,.37-.08.69-.24.97-.16.28-.38.5-.67.66-.28.16-.63.23-1.02.23s-.73-.08-1.02-.23c-.29-.16-.51-.37-.68-.66-.16-.29-.23-.61-.23-.98ZM71.01,68.16l1.72-4.6h1.15l1.68,4.6h-1.14l-.35-1.06h-1.62l-.35,1.06h-1.09ZM72.7,66.29h1.13l-.56-1.74-.57,1.74ZM76.5,68.16v-3.68h-1.49v-.92h4.02v.92h-1.48v3.68h-1.05ZM79.62,68.16v-4.6h1.04v4.6h-1.04ZM83.78,68.27c-.34,0-.66-.06-.94-.18-.29-.12-.54-.3-.77-.52-.22-.22-.38-.48-.5-.77-.12-.29-.18-.61-.18-.95s.06-.66.18-.95c.12-.29.29-.55.5-.77.22-.22.47-.39.76-.51.29-.12.61-.19.95-.19s.66.06.94.19c.29.12.54.29.76.51.22.22.39.48.51.77.12.29.18.61.18.95s-.06.66-.18.95c-.12.29-.29.55-.51.77-.22.22-.47.39-.76.52-.29.12-.6.18-.94.18ZM83.78,67.29c.27,0,.5-.07.7-.2.2-.13.35-.31.45-.53.11-.22.16-.46.16-.72s-.05-.5-.16-.72c-.1-.22-.25-.4-.45-.52-.19-.13-.43-.2-.7-.2s-.51.07-.7.2c-.19.13-.34.3-.45.52-.11.22-.16.46-.16.72s.05.5.16.72c.11.22.26.4.45.53.2.13.43.2.7.2ZM86.89,68.16v-4.6h.99l1.99,2.99v-2.99h1.03v4.6h-.94l-2.04-3.04v3.04h-1.03ZM93.05,68.16v-4.6h1.68c.38,0,.69.07.92.21.24.14.41.32.52.54.11.23.17.47.17.72,0,.33-.07.6-.22.83-.15.22-.34.39-.58.5-.23.11-.49.17-.77.17h-.71v1.62h-1.01ZM94.06,65.69h.61c.19,0,.34-.06.46-.18.11-.12.17-.27.17-.46,0-.19-.06-.35-.17-.47-.11-.12-.27-.19-.46-.19h-.6v1.29ZM96.05,68.16l1.72-4.6h1.15l1.68,4.6h-1.14l-.35-1.06h-1.62l-.35,1.06h-1.09ZM97.73,66.29h1.13l-.56-1.74-.57,1.74ZM101.09,68.16v-4.6h1.71c.36,0,.66.07.9.2.24.13.42.3.54.52.12.22.18.46.18.72,0,.29-.07.55-.2.78-.13.23-.31.4-.55.54l1.02,1.84h-1.14l-.86-1.69h-.58v1.69h-1.01ZM102.11,65.63h.64c.19,0,.35-.06.46-.17.11-.11.17-.26.17-.43,0-.19-.06-.34-.17-.45-.11-.11-.26-.17-.45-.17h-.64v1.22ZM106.33,68.16v-3.68h-1.49v-.92h4.02v.92h-1.48v3.68h-1.05ZM109.46,68.16v-4.6h.99l1.99,2.99v-2.99h1.03v4.6h-.94l-2.04-3.04v3.04h-1.03ZM114.37,68.16v-4.6h3.15v.91h-2.1v.9h1.64v.88h-1.64v.99h2.26v.92h-3.3ZM118.37,68.16v-4.6h1.71c.36,0,.66.07.9.2.24.13.42.3.54.52.12.22.18.46.18.72,0,.29-.07.55-.2.78-.13.23-.31.4-.55.54l1.02,1.84h-1.14l-.86-1.69h-.58v1.69h-1.01ZM119.38,65.63h.64c.19,0,.35-.06.45-.17.11-.11.17-.26.17-.43,0-.19-.06-.34-.17-.45-.11-.11-.26-.17-.45-.17h-.64v1.22Z" fill="#fff"/>
</svg>