<svg width="160" height="600" viewBox="0 0 160 600" fill="none" xmlns="http://www.w3.org/2000/svg">
<g clip-path="url(#clip0_10479_4862)">
<path d="M16 117.613C16.0116 127.665 23.9921 135.901 34.0317 136.221V135.057C24.4051 134.737 16.8551 126.67 17.175 117.031C17.4774 107.847 24.853 100.467 34.0317 100.164V99C23.9921 99.3259 16.0116 107.556 16 117.613Z" fill="white"/>
<path d="M35.1953 99V100.164C44.8219 100.49 52.3662 108.563 52.0404 118.195C51.7321 127.374 44.3682 134.743 35.1953 135.051V136.215C45.4676 135.895 53.5353 127.304 53.2154 117.026C52.9071 107.201 45.0197 99.3085 35.1953 99Z" fill="white"/>
<path d="M43.3383 113.522H38.1033C38.1033 111.915 36.8004 110.612 35.195 110.612C33.5896 110.612 32.2866 111.915 32.2866 113.522H27.1156C26.8189 113.533 26.5514 113.33 26.4816 113.044C26.4234 112.73 26.6328 112.428 26.9527 112.369C26.9876 112.364 27.0225 112.358 27.0516 112.358H29.3841C29.4888 112.358 29.5935 112.323 29.6807 112.265L38.4523 106.788L41.2908 112.364H42.5938L39.2027 105.699C39.0572 105.414 38.7082 105.298 38.4174 105.443C38.4 105.449 38.3883 105.461 38.3709 105.466L29.2038 111.199H27.0458C26.0919 111.199 25.3182 111.962 25.3008 112.916V125.75C25.3008 126.716 26.0802 127.496 27.0458 127.496H43.3325C43.6524 127.496 43.9142 127.234 43.9142 126.914V114.11C43.9142 113.79 43.6524 113.528 43.3325 113.528L43.3383 113.522ZM33.45 113.522C33.45 112.556 34.2294 111.776 35.195 111.776C36.1605 111.776 36.94 112.556 36.94 113.522H33.45ZM42.7566 126.326H27.0516C26.7317 126.326 26.4699 126.065 26.4699 125.744V114.569C26.6735 114.645 26.8946 114.686 27.1156 114.686H42.7566V117.596H39.7145L39.5924 117.66C38.6035 118.26 38.0335 119.354 38.1091 120.506C38.0335 121.659 38.6035 122.759 39.5924 123.358L39.7145 123.416H42.7625V126.326H42.7566ZM40.017 122.252C39.0514 121.338 39.0165 119.814 39.9297 118.847C39.9588 118.818 39.9879 118.789 40.017 118.76H42.7566V122.252H40.017Z" fill="white"/>
</g>
<path d="M16.442 151.718H17.963C18.067 152.472 18.418 153.057 19.276 153.226V150.262L19.107 150.236C17.56 149.924 16.624 149.183 16.624 147.766C16.624 146.271 17.69 145.14 19.302 144.971V143.853H20.225V144.971C21.915 145.153 22.708 146.31 22.825 147.35H21.304C21.187 146.778 20.875 146.336 20.225 146.193V149.079L20.654 149.157C22.188 149.456 23.072 150.301 23.072 151.64C23.072 153.304 21.902 154.37 20.186 154.474V155.878H19.276V154.448C17.469 154.24 16.572 153.057 16.442 151.718ZM18.067 147.597C18.067 148.325 18.405 148.676 19.302 148.897V146.167C18.509 146.297 18.067 146.817 18.067 147.597ZM21.629 151.848C21.629 150.977 21.239 150.652 20.186 150.431V153.265C21.096 153.161 21.629 152.68 21.629 151.848ZM30.0809 154.331H23.7239C23.8279 152.719 24.5299 151.796 26.3369 150.405C27.6369 149.391 28.3129 148.871 28.3129 147.766C28.3129 146.804 27.7279 146.219 26.8569 146.219C25.8429 146.219 25.3099 146.986 25.2579 147.987H23.6589C23.6979 146.466 24.7639 144.945 26.8829 144.945C29.0019 144.945 29.8859 146.336 29.8859 147.766C29.8859 149.638 28.5989 150.379 27.2599 151.406C26.3239 152.121 25.8429 152.576 25.5829 153.018H30.0809V154.331ZM32.8674 153.434C32.8674 154.006 32.3994 154.487 31.8274 154.487C31.2424 154.487 30.7874 154.006 30.7874 153.434C30.7874 152.849 31.2424 152.368 31.8274 152.368C32.3994 152.368 32.8674 152.849 32.8674 153.434ZM33.6293 151.666H35.2023C35.2933 152.563 35.8003 153.252 36.8663 153.252C37.9063 153.252 38.5173 152.537 38.5173 151.224C38.5173 149.976 38.0103 149.274 36.9573 149.274C36.1513 149.274 35.6703 149.742 35.4103 150.262H33.9803V145.101H39.7003V146.414H35.3843V148.858C35.8523 148.39 36.4893 148.104 37.2563 148.104C38.9593 148.104 40.0773 149.261 40.0773 151.224C40.0773 153.148 38.8293 154.487 36.8663 154.487C34.8253 154.487 33.7593 153.213 33.6293 151.666ZM41.0262 145.101H42.6382V149.586L46.5252 145.101H48.4102L44.3022 149.742L48.5532 154.331H46.5642L42.6382 150.041V154.331H41.0262V145.101ZM57.7185 145.101V146.427H54.7935V154.331H53.1685V146.427H50.2305V145.101H57.7185ZM58.8976 150.73V154.331H57.3636V147.571H58.8976V148.572H58.9496C59.2746 147.844 59.8206 147.571 60.3926 147.571H61.1206V149.001H60.4576C59.4046 149.001 58.8976 149.508 58.8976 150.73ZM65.5398 153.434C65.1888 154.032 64.5128 154.487 63.5378 154.487C62.2638 154.487 61.3798 153.72 61.3798 152.472C61.3798 151.146 62.3808 150.639 63.4728 150.496L64.8898 150.314C65.4358 150.249 65.5528 150.028 65.5528 149.599C65.5528 148.988 65.1888 148.546 64.3698 148.546C63.5508 148.546 63.1348 149.001 63.0828 149.651H61.5098C61.5488 148.52 62.4978 147.415 64.3308 147.415C66.0858 147.415 67.0868 148.442 67.0868 149.937V153.174C67.0868 153.59 67.1518 154.006 67.2168 154.331H65.6438C65.6048 154.071 65.5788 153.785 65.5788 153.434H65.5398ZM65.5658 150.834C65.3448 151.042 65.0588 151.146 64.7078 151.211L64.0318 151.367C63.3428 151.51 62.9268 151.783 62.9268 152.407C62.9268 153.044 63.3038 153.369 64.0058 153.369C64.8508 153.369 65.5658 152.797 65.5658 151.9V150.834ZM67.4269 147.571H69.0519L70.8719 152.667L72.6789 147.571H74.2389L71.7689 154.331H69.9099L67.4269 147.571ZM80.5439 152.329C80.2189 153.473 79.1659 154.487 77.5539 154.487C75.5649 154.487 74.2779 153.096 74.2779 150.951C74.2779 148.806 75.5909 147.415 77.4889 147.415C79.4129 147.415 80.5959 148.806 80.5959 150.951V151.315H75.8379C75.8639 152.55 76.5269 153.291 77.5539 153.291C78.3599 153.291 78.8019 152.914 79.0229 152.329H80.5439ZM77.4889 148.611C76.6049 148.611 75.9809 149.209 75.8639 150.262H79.0489C78.9579 149.248 78.4119 148.611 77.4889 148.611ZM83.395 154.331C82.173 154.331 81.471 153.629 81.471 152.524V144.711H83.005V152.394C83.005 152.836 83.174 153.096 83.655 153.096H84.11V154.331H83.395ZM90.8525 152.329C90.5275 153.473 89.4745 154.487 87.8625 154.487C85.8735 154.487 84.5865 153.096 84.5865 150.951C84.5865 148.806 85.8995 147.415 87.7975 147.415C89.7215 147.415 90.9045 148.806 90.9045 150.951V151.315H86.1465C86.1725 152.55 86.8355 153.291 87.8625 153.291C88.6685 153.291 89.1105 152.914 89.3315 152.329H90.8525ZM87.7975 148.611C86.9135 148.611 86.2895 149.209 86.1725 150.262H89.3575C89.2665 149.248 88.7205 148.611 87.7975 148.611ZM90.8636 147.571H92.5536L94.1136 149.846L95.6216 147.571H97.2726L94.9976 150.886L97.4286 154.331H95.7256L94.0486 151.9L92.4106 154.331H90.7466L93.1516 150.847L90.8636 147.571ZM22.318 161.04V162.34H18.314V166.331H16.702V157.101H22.669V158.427H18.314V161.04H22.318ZM23.0396 162.951C23.0396 160.806 24.3266 159.415 26.2506 159.415C28.1616 159.415 29.4616 160.806 29.4616 162.951C29.4616 165.096 28.1616 166.487 26.2506 166.487C24.3266 166.487 23.0396 165.096 23.0396 162.951ZM27.9016 162.665C27.9016 161.378 27.2386 160.637 26.2506 160.637C25.2496 160.637 24.5996 161.378 24.5996 162.665V163.224C24.5996 164.511 25.2496 165.265 26.2506 165.265C27.2386 165.265 27.9016 164.511 27.9016 163.224V162.665ZM31.9073 162.73V166.331H30.3733V159.571H31.9073V160.572H31.9593C32.2843 159.844 32.8303 159.571 33.4023 159.571H34.1303V161.001H33.4673C32.4143 161.001 31.9073 161.508 31.9073 162.73ZM40.6806 164.329C40.3556 165.473 39.3026 166.487 37.6906 166.487C35.7016 166.487 34.4146 165.096 34.4146 162.951C34.4146 160.806 35.7276 159.415 37.6256 159.415C39.5496 159.415 40.7326 160.806 40.7326 162.951V163.315H35.9746C36.0006 164.55 36.6636 165.291 37.6906 165.291C38.4966 165.291 38.9386 164.914 39.1596 164.329H40.6806ZM37.6256 160.611C36.7416 160.611 36.1176 161.209 36.0006 162.262H39.1856C39.0946 161.248 38.5486 160.611 37.6256 160.611ZM41.4518 157.569C41.4518 157.023 41.8678 156.607 42.4138 156.607C42.9468 156.607 43.3758 157.023 43.3758 157.569C43.3758 158.102 42.9468 158.531 42.4138 158.531C41.8678 158.531 41.4518 158.102 41.4518 157.569ZM41.6468 159.571H43.1808V166.331H41.6468V159.571ZM44.2444 166.591H45.9344C46.0644 167.254 46.4544 167.67 47.3514 167.67C48.4044 167.67 48.7944 166.994 48.7944 166.019V164.979H48.7424C48.3524 165.616 47.6764 166.032 46.8054 166.032C45.2064 166.032 44.0884 164.823 44.0884 162.73C44.0884 160.637 45.2064 159.415 46.8054 159.415C47.6764 159.415 48.3524 159.831 48.7424 160.481H48.7944V159.571H50.3414V166.045C50.3414 167.605 49.3794 168.697 47.2604 168.697C45.3364 168.697 44.4134 167.722 44.2444 166.591ZM45.6484 162.951C45.6484 164.225 46.2334 164.836 47.2214 164.836C48.1704 164.836 48.7944 164.069 48.7944 162.925V162.522C48.7944 161.378 48.1704 160.611 47.2214 160.611C46.2334 160.611 45.6484 161.235 45.6484 162.509V162.951ZM53.1212 162.158V166.331H51.5872V159.571H53.1212V160.364H53.1732C53.6152 159.779 54.1742 159.415 55.0712 159.415C56.4102 159.415 57.2682 160.403 57.2682 161.924V166.331H55.7342V162.054C55.7342 161.274 55.3962 160.715 54.5122 160.715C53.6022 160.715 53.1212 161.365 53.1212 162.158ZM64.7714 156.945C66.9814 156.945 68.3464 158.206 68.6714 159.974H66.9944C66.8254 159.09 66.1364 158.284 64.7584 158.284C63.1204 158.284 62.0544 159.506 62.0544 161.43V161.989C62.0544 163.926 63.1204 165.148 64.7584 165.148C66.1364 165.148 66.8254 164.342 66.9944 163.458H68.6714C68.3464 165.213 66.9814 166.487 64.7714 166.487C62.1714 166.487 60.4164 164.641 60.4164 161.716C60.4164 158.778 62.1714 156.945 64.7714 156.945ZM73.3601 165.434C73.0091 166.032 72.3331 166.487 71.3581 166.487C70.0841 166.487 69.2001 165.72 69.2001 164.472C69.2001 163.146 70.2011 162.639 71.2931 162.496L72.7101 162.314C73.2561 162.249 73.3731 162.028 73.3731 161.599C73.3731 160.988 73.0091 160.546 72.1901 160.546C71.3711 160.546 70.9551 161.001 70.9031 161.651H69.3301C69.3691 160.52 70.3181 159.415 72.1511 159.415C73.9061 159.415 74.9071 160.442 74.9071 161.937V165.174C74.9071 165.59 74.9721 166.006 75.0371 166.331H73.4641C73.4251 166.071 73.3991 165.785 73.3991 165.434H73.3601ZM73.3861 162.834C73.1651 163.042 72.8791 163.146 72.5281 163.211L71.8521 163.367C71.1631 163.51 70.7471 163.783 70.7471 164.407C70.7471 165.044 71.1241 165.369 71.8261 165.369C72.6711 165.369 73.3861 164.797 73.3861 163.9V162.834ZM75.7372 164.407H77.2842C77.3882 164.992 77.7912 165.369 78.6362 165.369C79.4292 165.369 79.8712 165.031 79.8712 164.446C79.8712 163.991 79.6762 163.705 78.9612 163.627L77.7782 163.484C76.4262 163.315 75.8802 162.652 75.8802 161.612C75.8802 160.338 76.9462 159.415 78.5842 159.415C80.3132 159.415 81.1712 160.442 81.2492 161.43H79.7412C79.6632 160.897 79.2732 160.533 78.5582 160.533C77.8302 160.533 77.3622 160.897 77.3622 161.443C77.3622 161.859 77.6092 162.132 78.3632 162.223L79.5332 162.366C80.8462 162.522 81.3792 163.146 81.3792 164.251C81.3792 165.642 80.1832 166.487 78.6232 166.487C76.8162 166.487 75.8672 165.577 75.7372 164.407ZM83.8312 162.158V166.331H82.2972V156.711H83.8312V160.364H83.8832C84.3252 159.779 84.8842 159.415 85.7812 159.415C87.1202 159.415 87.9782 160.403 87.9782 161.924V166.331H86.4442V162.054C86.4442 161.274 86.1062 160.715 85.2222 160.715C84.3122 160.715 83.8312 161.365 83.8312 162.158Z" fill="white"/>
<g clip-path="url(#clip1_10479_4862)">
<path d="M16 209.939C16.0116 219.99 23.9921 228.226 34.0317 228.546V227.382C24.4051 227.062 16.8551 218.995 17.175 209.357C17.4774 200.178 24.853 192.798 34.0317 192.495V191.331C23.9921 191.657 16.0116 199.887 16 209.939Z" fill="white"/>
<path d="M35.1953 191.331V192.495C44.8219 192.815 52.372 200.882 52.0521 210.521C51.7496 219.705 44.374 227.085 35.1953 227.388V228.552C45.4676 228.232 53.5353 219.641 53.2154 209.362C52.9071 199.532 45.0197 191.64 35.1953 191.331Z" fill="white"/>
<path d="M25.8888 214.001H29.9605V215.165H25.8888V214.001ZM31.1238 211.673H25.8888V212.837H31.1238V211.673ZM40.4305 214.001C40.4305 214.641 40.954 215.165 41.5939 215.165C42.2337 215.165 42.7572 214.641 42.7572 214.001C42.7572 213.361 42.2337 212.837 41.5939 212.837C40.954 212.837 40.4305 213.361 40.4305 214.001ZM45.0839 208.181H24.1438V216.911C24.1438 217.231 24.4056 217.493 24.7255 217.493H44.5022C44.8221 217.493 45.0839 217.231 45.0839 216.911V209.345H46.2472V216.911C46.2472 217.877 45.4678 218.657 44.5022 218.657H24.7255C23.7599 218.657 22.9805 217.877 22.9805 216.911V207.017H45.0839V205.853H22.9805V202.942C22.9805 201.976 23.7599 201.196 24.7255 201.196H44.5022C45.4678 201.196 46.2472 201.976 46.2472 202.942V208.181H45.0839ZM45.0839 204.688V202.942C45.0839 202.622 44.8221 202.36 44.5022 202.36H24.7255C24.4056 202.36 24.1438 202.622 24.1438 202.942V204.688H45.0839Z" fill="white"/>
</g>
<path d="M16.442 244.049H17.963C18.067 244.803 18.418 245.388 19.276 245.557V242.593L19.107 242.567C17.56 242.255 16.624 241.514 16.624 240.097C16.624 238.602 17.69 237.471 19.302 237.302V236.184H20.225V237.302C21.915 237.484 22.708 238.641 22.825 239.681H21.304C21.187 239.109 20.875 238.667 20.225 238.524V241.41L20.654 241.488C22.188 241.787 23.072 242.632 23.072 243.971C23.072 245.635 21.902 246.701 20.186 246.805V248.209H19.276V246.779C17.469 246.571 16.572 245.388 16.442 244.049ZM18.067 239.928C18.067 240.656 18.405 241.007 19.302 241.228V238.498C18.509 238.628 18.067 239.148 18.067 239.928ZM21.629 244.179C21.629 243.308 21.239 242.983 20.186 242.762V245.596C21.096 245.492 21.629 245.011 21.629 244.179ZM30.0809 246.662H23.7239C23.8279 245.05 24.5299 244.127 26.3369 242.736C27.6369 241.722 28.3129 241.202 28.3129 240.097C28.3129 239.135 27.7279 238.55 26.8569 238.55C25.8429 238.55 25.3099 239.317 25.2579 240.318H23.6589C23.6979 238.797 24.7639 237.276 26.8829 237.276C29.0019 237.276 29.8859 238.667 29.8859 240.097C29.8859 241.969 28.5989 242.71 27.2599 243.737C26.3239 244.452 25.8429 244.907 25.5829 245.349H30.0809V246.662ZM32.8674 245.765C32.8674 246.337 32.3994 246.818 31.8274 246.818C31.2424 246.818 30.7874 246.337 30.7874 245.765C30.7874 245.18 31.2424 244.699 31.8274 244.699C32.3994 244.699 32.8674 245.18 32.8674 245.765ZM33.6293 243.997H35.2023C35.2933 244.894 35.8003 245.583 36.8663 245.583C37.9063 245.583 38.5173 244.868 38.5173 243.555C38.5173 242.307 38.0103 241.605 36.9573 241.605C36.1513 241.605 35.6703 242.073 35.4103 242.593H33.9803V237.432H39.7003V238.745H35.3843V241.189C35.8523 240.721 36.4893 240.435 37.2563 240.435C38.9593 240.435 40.0773 241.592 40.0773 243.555C40.0773 245.479 38.8293 246.818 36.8663 246.818C34.8253 246.818 33.7593 245.544 33.6293 243.997ZM41.0262 237.432H42.6382V241.917L46.5252 237.432H48.4102L44.3022 242.073L48.5532 246.662H46.5642L42.6382 242.372V246.662H41.0262V237.432ZM57.7185 237.432V238.758H54.7935V246.662H53.1685V238.758H50.2305V237.432H57.7185ZM58.8976 243.061V246.662H57.3636V239.902H58.8976V240.903H58.9496C59.2746 240.175 59.8206 239.902 60.3926 239.902H61.1206V241.332H60.4576C59.4046 241.332 58.8976 241.839 58.8976 243.061ZM65.5398 245.765C65.1888 246.363 64.5128 246.818 63.5378 246.818C62.2638 246.818 61.3798 246.051 61.3798 244.803C61.3798 243.477 62.3808 242.97 63.4728 242.827L64.8898 242.645C65.4358 242.58 65.5528 242.359 65.5528 241.93C65.5528 241.319 65.1888 240.877 64.3698 240.877C63.5508 240.877 63.1348 241.332 63.0828 241.982H61.5098C61.5488 240.851 62.4978 239.746 64.3308 239.746C66.0858 239.746 67.0868 240.773 67.0868 242.268V245.505C67.0868 245.921 67.1518 246.337 67.2168 246.662H65.6438C65.6048 246.402 65.5788 246.116 65.5788 245.765H65.5398ZM65.5658 243.165C65.3448 243.373 65.0588 243.477 64.7078 243.542L64.0318 243.698C63.3428 243.841 62.9268 244.114 62.9268 244.738C62.9268 245.375 63.3038 245.7 64.0058 245.7C64.8508 245.7 65.5658 245.128 65.5658 244.231V243.165ZM67.4269 239.902H69.0519L70.8719 244.998L72.6789 239.902H74.2389L71.7689 246.662H69.9099L67.4269 239.902ZM80.5439 244.66C80.2189 245.804 79.1659 246.818 77.5539 246.818C75.5649 246.818 74.2779 245.427 74.2779 243.282C74.2779 241.137 75.5909 239.746 77.4889 239.746C79.4129 239.746 80.5959 241.137 80.5959 243.282V243.646H75.8379C75.8639 244.881 76.5269 245.622 77.5539 245.622C78.3599 245.622 78.8019 245.245 79.0229 244.66H80.5439ZM77.4889 240.942C76.6049 240.942 75.9809 241.54 75.8639 242.593H79.0489C78.9579 241.579 78.4119 240.942 77.4889 240.942ZM83.395 246.662C82.173 246.662 81.471 245.96 81.471 244.855V237.042H83.005V244.725C83.005 245.167 83.174 245.427 83.655 245.427H84.11V246.662H83.395ZM16.702 249.432H20.55C22.552 249.432 23.787 250.563 23.787 252.409C23.787 254.294 22.539 255.412 20.55 255.412H18.314V258.662H16.702V249.432ZM20.277 254.099C21.447 254.099 22.149 253.631 22.149 252.409C22.149 251.226 21.447 250.745 20.277 250.745H18.314V254.099H20.277ZM26.4312 258.662C25.2092 258.662 24.5072 257.96 24.5072 256.855V249.042H26.0412V256.725C26.0412 257.167 26.2102 257.427 26.6912 257.427H27.1462V258.662H26.4312ZM31.821 257.765C31.47 258.363 30.794 258.818 29.819 258.818C28.545 258.818 27.661 258.051 27.661 256.803C27.661 255.477 28.662 254.97 29.754 254.827L31.171 254.645C31.717 254.58 31.834 254.359 31.834 253.93C31.834 253.319 31.47 252.877 30.651 252.877C29.832 252.877 29.416 253.332 29.364 253.982H27.791C27.83 252.851 28.779 251.746 30.612 251.746C32.367 251.746 33.368 252.773 33.368 254.268V257.505C33.368 257.921 33.433 258.337 33.498 258.662H31.925C31.886 258.402 31.86 258.116 31.86 257.765H31.821ZM31.847 255.165C31.626 255.373 31.34 255.477 30.989 255.542L30.313 255.698C29.624 255.841 29.208 256.114 29.208 256.738C29.208 257.375 29.585 257.7 30.287 257.7C31.132 257.7 31.847 257.128 31.847 256.231V255.165ZM35.1759 256.699V253.059H33.8889V251.902H35.1759V249.432H36.7099V251.902H38.2439V253.059H36.7099V256.556C36.7099 257.154 37.0089 257.401 37.6069 257.401H38.2439V258.662H37.3469C35.8909 258.662 35.1759 257.999 35.1759 256.699ZM39.1412 249.9C39.1412 249.354 39.5572 248.938 40.1032 248.938C40.6362 248.938 41.0652 249.354 41.0652 249.9C41.0652 250.433 40.6362 250.862 40.1032 250.862C39.5572 250.862 39.1412 250.433 39.1412 249.9ZM39.3362 251.902H40.8702V258.662H39.3362V251.902ZM43.6759 254.489V258.662H42.1419V251.902H43.6759V252.695H43.7279C44.1699 252.11 44.7289 251.746 45.6259 251.746C46.9649 251.746 47.8229 252.734 47.8229 254.255V258.662H46.2889V254.385C46.2889 253.605 45.9509 253.046 45.0669 253.046C44.1569 253.046 43.6759 253.696 43.6759 254.489ZM53.1945 256.075V251.902H54.7285V258.662H53.1945V257.869H53.1425C52.7135 258.454 52.1675 258.818 51.2445 258.818C49.9185 258.818 49.0475 257.83 49.0475 256.309V251.902H50.5815V256.179C50.5815 256.959 50.9195 257.518 51.7905 257.518C52.7135 257.518 53.1945 256.868 53.1945 256.075ZM57.5522 254.424V258.662H56.0182V251.902H57.5522V252.695H57.6042C57.9682 252.188 58.5402 251.746 59.4372 251.746C60.2562 251.746 60.8802 252.149 61.2182 252.838H61.2572C61.6862 252.227 62.3362 251.746 63.3242 251.746C64.6502 251.746 65.4562 252.734 65.4562 254.216V258.662H63.9222V254.424C63.9222 253.631 63.5972 253.046 62.8042 253.046C61.9982 253.046 61.5042 253.67 61.5042 254.424V258.662H59.9702V254.424C59.9702 253.631 59.6452 253.046 58.8522 253.046C58.0332 253.046 57.5522 253.67 57.5522 254.424ZM73.2329 257.154L70.4899 251.629V258.662H68.9559V249.432H70.9449L73.5579 254.723L76.1579 249.432H78.1339V258.662H76.5999V251.603L73.8569 257.154H73.2329ZM83.2116 257.765C82.8606 258.363 82.1846 258.818 81.2096 258.818C79.9356 258.818 79.0516 258.051 79.0516 256.803C79.0516 255.477 80.0526 254.97 81.1446 254.827L82.5616 254.645C83.1076 254.58 83.2246 254.359 83.2246 253.93C83.2246 253.319 82.8606 252.877 82.0416 252.877C81.2226 252.877 80.8066 253.332 80.7546 253.982H79.1816C79.2206 252.851 80.1696 251.746 82.0026 251.746C83.7576 251.746 84.7586 252.773 84.7586 254.268V257.505C84.7586 257.921 84.8236 258.337 84.8886 258.662H83.3156C83.2766 258.402 83.2506 258.116 83.2506 257.765H83.2116ZM83.2376 255.165C83.0166 255.373 82.7306 255.477 82.3796 255.542L81.7036 255.698C81.0146 255.841 80.5986 256.114 80.5986 256.738C80.5986 257.375 80.9756 257.7 81.6776 257.7C82.5226 257.7 83.2376 257.128 83.2376 256.231V255.165ZM85.5888 256.738H87.1358C87.2398 257.323 87.6428 257.7 88.4878 257.7C89.2808 257.7 89.7228 257.362 89.7228 256.777C89.7228 256.322 89.5278 256.036 88.8128 255.958L87.6298 255.815C86.2778 255.646 85.7318 254.983 85.7318 253.943C85.7318 252.669 86.7978 251.746 88.4358 251.746C90.1648 251.746 91.0228 252.773 91.1008 253.761H89.5928C89.5148 253.228 89.1248 252.864 88.4098 252.864C87.6818 252.864 87.2138 253.228 87.2138 253.774C87.2138 254.19 87.4608 254.463 88.2148 254.554L89.3848 254.697C90.6978 254.853 91.2308 255.477 91.2308 256.582C91.2308 257.973 90.0348 258.818 88.4748 258.818C86.6678 258.818 85.7188 257.908 85.5888 256.738ZM92.7365 256.699V253.059H91.4495V251.902H92.7365V249.432H94.2705V251.902H95.8045V253.059H94.2705V256.556C94.2705 257.154 94.5695 257.401 95.1675 257.401H95.8045V258.662H94.9075C93.4515 258.662 92.7365 257.999 92.7365 256.699ZM102.608 256.66C102.283 257.804 101.23 258.818 99.6183 258.818C97.6293 258.818 96.3423 257.427 96.3423 255.282C96.3423 253.137 97.6553 251.746 99.5533 251.746C101.477 251.746 102.66 253.137 102.66 255.282V255.646H97.9023C97.9283 256.881 98.5913 257.622 99.6183 257.622C100.424 257.622 100.866 257.245 101.087 256.66H102.608ZM99.5533 252.942C98.6693 252.942 98.0453 253.54 97.9283 254.593H101.113C101.022 253.579 100.476 252.942 99.5533 252.942ZM105.109 255.061V258.662H103.575V251.902H105.109V252.903H105.161C105.486 252.175 106.032 251.902 106.604 251.902H107.332V253.332H106.669C105.616 253.332 105.109 253.839 105.109 255.061ZM107.616 255.282C107.616 253.137 108.877 251.746 110.801 251.746C112.478 251.746 113.544 252.773 113.739 254.125H112.205C112.075 253.384 111.568 252.968 110.801 252.968C109.826 252.968 109.176 253.722 109.176 255.009V255.568C109.176 256.855 109.826 257.596 110.801 257.596C111.62 257.596 112.075 257.115 112.218 256.413H113.752C113.557 257.726 112.478 258.818 110.801 258.818C108.877 258.818 107.616 257.427 107.616 255.282ZM118.403 257.765C118.052 258.363 117.376 258.818 116.401 258.818C115.127 258.818 114.243 258.051 114.243 256.803C114.243 255.477 115.244 254.97 116.336 254.827L117.753 254.645C118.299 254.58 118.416 254.359 118.416 253.93C118.416 253.319 118.052 252.877 117.233 252.877C116.414 252.877 115.998 253.332 115.946 253.982H114.373C114.412 252.851 115.361 251.746 117.194 251.746C118.949 251.746 119.95 252.773 119.95 254.268V257.505C119.95 257.921 120.015 258.337 120.08 258.662H118.507C118.468 258.402 118.442 258.116 118.442 257.765H118.403ZM118.429 255.165C118.208 255.373 117.922 255.477 117.571 255.542L116.895 255.698C116.206 255.841 115.79 256.114 115.79 256.738C115.79 257.375 116.167 257.7 116.869 257.7C117.714 257.7 118.429 257.128 118.429 256.231V255.165ZM122.704 255.061V258.662H121.17V251.902H122.704V252.903H122.756C123.081 252.175 123.627 251.902 124.199 251.902H124.927V253.332H124.264C123.211 253.332 122.704 253.839 122.704 255.061ZM130.008 257.752C129.631 258.376 128.877 258.818 127.993 258.818C126.368 258.818 125.211 257.427 125.211 255.282C125.211 253.137 126.368 251.746 127.993 251.746C128.877 251.746 129.631 252.188 130.008 252.812H130.06V249.042H131.594V258.662H130.06V257.752H130.008ZM126.771 255.542C126.771 256.868 127.382 257.596 128.422 257.596C129.384 257.596 130.06 256.829 130.06 255.633V254.931C130.06 253.735 129.384 252.968 128.422 252.968C127.382 252.968 126.771 253.709 126.771 255.035V255.542Z" fill="white"/>
<g clip-path="url(#clip2_10479_4862)">
<path d="M16 302.27C16 312.345 24.0374 320.569 34.0289 320.877V319.713C24.6771 319.405 17.1632 311.699 17.1632 302.27C17.1632 292.841 24.6771 285.135 34.0289 284.826V283.662C24.0374 283.971 16 292.201 16 302.27Z" fill="white"/>
<path d="M35.1924 283.662V284.826C44.5441 285.135 52.0581 292.841 52.0581 302.27C52.0581 311.699 44.5441 319.405 35.1924 319.713V320.877C45.1839 320.569 53.2213 312.339 53.2213 302.27C53.2213 292.201 45.1839 283.971 35.1924 283.662Z" fill="white"/>
<path d="M26.2344 297.414V298.599H27.3364V297.414H26.2344ZM26.2344 297.414V301.274H27.3364V297.414H26.2344ZM26.2344 297.414V301.274H27.3364V297.414H26.2344Z" fill="white"/>
<path d="M43.971 294.408H25.237C24.3278 294.408 23.584 295.147 23.584 296.062V309.297C23.584 310.207 24.3278 310.951 25.237 310.951H43.971C44.8856 310.951 45.624 310.207 45.624 309.297V296.062C45.624 295.147 44.8856 294.408 43.971 294.408ZM44.522 309.297C44.522 309.6 44.274 309.848 43.971 309.848H25.237C24.9339 309.848 24.686 309.6 24.686 309.297V299.685H26.2398V298.599H24.686V296.062C24.686 295.754 24.9339 295.511 25.237 295.511H43.971C44.274 295.511 44.522 295.754 44.522 296.062V298.599H27.3418V299.685H44.522V309.297Z" fill="white"/>
<path d="M36.8076 291.331H32.3996C30.7301 291.331 29.3691 292.693 29.3691 294.364V294.64H30.4711V294.364C30.4711 293.3 31.3362 292.434 32.3996 292.434H36.8076C37.8711 292.434 38.7361 293.3 38.7361 294.364V294.64H39.8381V294.364C39.8381 292.693 38.4772 291.331 36.8076 291.331Z" fill="white"/>
<path d="M29.9917 312.076H28.4213C28.1017 312.076 27.8428 311.817 27.8428 311.497V310.659C27.8428 310.339 28.1017 310.08 28.4213 310.08H29.9917C30.3113 310.08 30.5702 310.339 30.5702 310.659V311.497C30.5702 311.817 30.3113 312.076 29.9917 312.076ZM28.6748 311.249H29.7492V310.907H28.6748V311.249Z" fill="white"/>
<path d="M40.7807 312.076H39.2104C38.8908 312.076 38.6318 311.817 38.6318 311.497V310.659C38.6318 310.339 38.8908 310.08 39.2104 310.08H40.7807C41.1003 310.08 41.3593 310.339 41.3593 310.659V311.497C41.3593 311.817 41.1003 312.076 40.7807 312.076ZM39.4583 311.249H40.5328V310.907H39.4583V311.249Z" fill="white"/>
</g>
<path d="M16.442 336.38H17.963C18.067 337.134 18.418 337.719 19.276 337.888V334.924L19.107 334.898C17.56 334.586 16.624 333.845 16.624 332.428C16.624 330.933 17.69 329.802 19.302 329.633V328.515H20.225V329.633C21.915 329.815 22.708 330.972 22.825 332.012H21.304C21.187 331.44 20.875 330.998 20.225 330.855V333.741L20.654 333.819C22.188 334.118 23.072 334.963 23.072 336.302C23.072 337.966 21.902 339.032 20.186 339.136V340.54H19.276V339.11C17.469 338.902 16.572 337.719 16.442 336.38ZM18.067 332.259C18.067 332.987 18.405 333.338 19.302 333.559V330.829C18.509 330.959 18.067 331.479 18.067 332.259ZM21.629 336.51C21.629 335.639 21.239 335.314 20.186 335.093V337.927C21.096 337.823 21.629 337.342 21.629 336.51ZM30.0809 338.993H23.7239C23.8279 337.381 24.5299 336.458 26.3369 335.067C27.6369 334.053 28.3129 333.533 28.3129 332.428C28.3129 331.466 27.7279 330.881 26.8569 330.881C25.8429 330.881 25.3099 331.648 25.2579 332.649H23.6589C23.6979 331.128 24.7639 329.607 26.8829 329.607C29.0019 329.607 29.8859 330.998 29.8859 332.428C29.8859 334.3 28.5989 335.041 27.2599 336.068C26.3239 336.783 25.8429 337.238 25.5829 337.68H30.0809V338.993ZM30.9334 329.763H32.5454V334.248L36.4324 329.763H38.3174L34.2094 334.404L38.4604 338.993H36.4714L32.5454 334.703V338.993H30.9334V329.763ZM46.8406 337.641V338.993H40.8866V329.763H42.4986V337.641H46.8406ZM51.925 336.406V332.233H53.459V338.993H51.925V338.2H51.873C51.444 338.785 50.898 339.149 49.975 339.149C48.649 339.149 47.778 338.161 47.778 336.64V332.233H49.312V336.51C49.312 337.29 49.65 337.849 50.521 337.849C51.444 337.849 51.925 337.199 51.925 336.406ZM54.5276 339.253H56.2176C56.3476 339.916 56.7376 340.332 57.6346 340.332C58.6876 340.332 59.0776 339.656 59.0776 338.681V337.641H59.0256C58.6356 338.278 57.9596 338.694 57.0886 338.694C55.4896 338.694 54.3716 337.485 54.3716 335.392C54.3716 333.299 55.4896 332.077 57.0886 332.077C57.9596 332.077 58.6356 332.493 59.0256 333.143H59.0776V332.233H60.6246V338.707C60.6246 340.267 59.6626 341.359 57.5436 341.359C55.6196 341.359 54.6966 340.384 54.5276 339.253ZM55.9316 335.613C55.9316 336.887 56.5166 337.498 57.5046 337.498C58.4536 337.498 59.0776 336.731 59.0776 335.587V335.184C59.0776 334.04 58.4536 333.273 57.5046 333.273C56.5166 333.273 55.9316 333.897 55.9316 335.171V335.613ZM61.6624 339.253H63.3524C63.4824 339.916 63.8724 340.332 64.7694 340.332C65.8224 340.332 66.2124 339.656 66.2124 338.681V337.641H66.1604C65.7704 338.278 65.0944 338.694 64.2234 338.694C62.6244 338.694 61.5064 337.485 61.5064 335.392C61.5064 333.299 62.6244 332.077 64.2234 332.077C65.0944 332.077 65.7704 332.493 66.1604 333.143H66.2124V332.233H67.7594V338.707C67.7594 340.267 66.7974 341.359 64.6784 341.359C62.7544 341.359 61.8314 340.384 61.6624 339.253ZM63.0664 335.613C63.0664 336.887 63.6514 337.498 64.6394 337.498C65.5884 337.498 66.2124 336.731 66.2124 335.587V335.184C66.2124 334.04 65.5884 333.273 64.6394 333.273C63.6514 333.273 63.0664 333.897 63.0664 335.171V335.613ZM72.8142 338.096C72.4632 338.694 71.7872 339.149 70.8122 339.149C69.5382 339.149 68.6542 338.382 68.6542 337.134C68.6542 335.808 69.6552 335.301 70.7472 335.158L72.1642 334.976C72.7102 334.911 72.8272 334.69 72.8272 334.261C72.8272 333.65 72.4632 333.208 71.6442 333.208C70.8252 333.208 70.4092 333.663 70.3572 334.313H68.7842C68.8232 333.182 69.7722 332.077 71.6052 332.077C73.3602 332.077 74.3612 333.104 74.3612 334.599V337.836C74.3612 338.252 74.4262 338.668 74.4912 338.993H72.9182C72.8792 338.733 72.8532 338.447 72.8532 338.096H72.8142ZM72.8402 335.496C72.6192 335.704 72.3332 335.808 71.9822 335.873L71.3062 336.029C70.6172 336.172 70.2012 336.445 70.2012 337.069C70.2012 337.706 70.5782 338.031 71.2802 338.031C72.1252 338.031 72.8402 337.459 72.8402 336.562V335.496ZM75.3733 339.253H77.0633C77.1933 339.916 77.5833 340.332 78.4803 340.332C79.5333 340.332 79.9233 339.656 79.9233 338.681V337.641H79.8713C79.4813 338.278 78.8053 338.694 77.9343 338.694C76.3353 338.694 75.2173 337.485 75.2173 335.392C75.2173 333.299 76.3353 332.077 77.9343 332.077C78.8053 332.077 79.4813 332.493 79.8713 333.143H79.9233V332.233H81.4703V338.707C81.4703 340.267 80.5083 341.359 78.3893 341.359C76.4653 341.359 75.5423 340.384 75.3733 339.253ZM76.7773 335.613C76.7773 336.887 77.3623 337.498 78.3503 337.498C79.2993 337.498 79.9233 336.731 79.9233 335.587V335.184C79.9233 334.04 79.2993 333.273 78.3503 333.273C77.3623 333.273 76.7773 333.897 76.7773 335.171V335.613ZM88.6181 336.991C88.2931 338.135 87.2401 339.149 85.6281 339.149C83.6391 339.149 82.3521 337.758 82.3521 335.613C82.3521 333.468 83.6651 332.077 85.5631 332.077C87.4871 332.077 88.6701 333.468 88.6701 335.613V335.977H83.9121C83.9381 337.212 84.6011 337.953 85.6281 337.953C86.4341 337.953 86.8761 337.576 87.0971 336.991H88.6181ZM85.5631 333.273C84.6791 333.273 84.0551 333.871 83.9381 334.924H87.1231C87.0321 333.91 86.4861 333.273 85.5631 333.273ZM18.223 350.083H18.171V353.203H16.637V344.233H18.171V345.143H18.223C18.6 344.519 19.354 344.077 20.225 344.077C21.863 344.077 23.02 345.468 23.02 347.613C23.02 349.758 21.863 351.149 20.225 351.149C19.354 351.149 18.6 350.707 18.223 350.083ZM18.171 347.964C18.171 349.16 18.834 349.927 19.809 349.927C20.849 349.927 21.46 349.199 21.46 347.873V347.366C21.46 346.04 20.849 345.299 19.809 345.299C18.834 345.299 18.171 346.066 18.171 347.262V347.964ZM27.7331 350.096C27.3821 350.694 26.7061 351.149 25.7311 351.149C24.4571 351.149 23.5731 350.382 23.5731 349.134C23.5731 347.808 24.5741 347.301 25.6661 347.158L27.0831 346.976C27.6291 346.911 27.7461 346.69 27.7461 346.261C27.7461 345.65 27.3821 345.208 26.5631 345.208C25.7441 345.208 25.3281 345.663 25.2761 346.313H23.7031C23.7421 345.182 24.6911 344.077 26.5241 344.077C28.2791 344.077 29.2801 345.104 29.2801 346.599V349.836C29.2801 350.252 29.3451 350.668 29.4101 350.993H27.8371C27.7981 350.733 27.7721 350.447 27.7721 350.096H27.7331ZM27.7591 347.496C27.5381 347.704 27.2521 347.808 26.9011 347.873L26.2251 348.029C25.5361 348.172 25.1201 348.445 25.1201 349.069C25.1201 349.706 25.4971 350.031 26.1991 350.031C27.0441 350.031 27.7591 349.459 27.7591 348.562V347.496ZM30.1363 347.613C30.1363 345.468 31.3973 344.077 33.3213 344.077C34.9983 344.077 36.0643 345.104 36.2593 346.456H34.7253C34.5953 345.715 34.0883 345.299 33.3213 345.299C32.3463 345.299 31.6963 346.053 31.6963 347.34V347.899C31.6963 349.186 32.3463 349.927 33.3213 349.927C34.1403 349.927 34.5953 349.446 34.7383 348.744H36.2723C36.0773 350.057 34.9983 351.149 33.3213 351.149C31.3973 351.149 30.1363 349.758 30.1363 347.613ZM37.1145 341.373H38.6485V347.301L41.0145 344.233H42.7825L40.1825 347.483L42.9255 350.993H41.1185L38.6485 347.743V350.993H37.1145V341.373ZM47.1062 350.096C46.7552 350.694 46.0792 351.149 45.1042 351.149C43.8302 351.149 42.9462 350.382 42.9462 349.134C42.9462 347.808 43.9472 347.301 45.0392 347.158L46.4562 346.976C47.0022 346.911 47.1192 346.69 47.1192 346.261C47.1192 345.65 46.7552 345.208 45.9362 345.208C45.1172 345.208 44.7012 345.663 44.6492 346.313H43.0762C43.1152 345.182 44.0642 344.077 45.8972 344.077C47.6522 344.077 48.6532 345.104 48.6532 346.599V349.836C48.6532 350.252 48.7182 350.668 48.7832 350.993H47.2102C47.1712 350.733 47.1452 350.447 47.1452 350.096H47.1062ZM47.1322 347.496C46.9112 347.704 46.6252 347.808 46.2742 347.873L45.5982 348.029C44.9092 348.172 44.4932 348.445 44.4932 349.069C44.4932 349.706 44.8702 350.031 45.5722 350.031C46.4172 350.031 47.1322 349.459 47.1322 348.562V347.496ZM49.6653 351.253H51.3553C51.4853 351.916 51.8753 352.332 52.7723 352.332C53.8253 352.332 54.2153 351.656 54.2153 350.681V349.641H54.1633C53.7733 350.278 53.0973 350.694 52.2263 350.694C50.6273 350.694 49.5093 349.485 49.5093 347.392C49.5093 345.299 50.6273 344.077 52.2263 344.077C53.0973 344.077 53.7733 344.493 54.1633 345.143H54.2153V344.233H55.7623V350.707C55.7623 352.267 54.8003 353.359 52.6813 353.359C50.7573 353.359 49.8343 352.384 49.6653 351.253ZM51.0693 347.613C51.0693 348.887 51.6543 349.498 52.6423 349.498C53.5913 349.498 54.2153 348.731 54.2153 347.587V347.184C54.2153 346.04 53.5913 345.273 52.6423 345.273C51.6543 345.273 51.0693 345.897 51.0693 347.171V347.613ZM62.9101 348.991C62.5851 350.135 61.5321 351.149 59.9201 351.149C57.9311 351.149 56.6441 349.758 56.6441 347.613C56.6441 345.468 57.9571 344.077 59.8551 344.077C61.7791 344.077 62.9621 345.468 62.9621 347.613V347.977H58.2041C58.2301 349.212 58.8931 349.953 59.9201 349.953C60.7261 349.953 61.1681 349.576 61.3891 348.991H62.9101ZM59.8551 345.273C58.9711 345.273 58.3471 345.871 58.2301 346.924H61.4151C61.3241 345.91 60.7781 345.273 59.8551 345.273ZM65.5399 344.233H66.6709V343.388C66.6709 341.997 67.5289 341.373 68.7769 341.373H69.5699V342.556H69.0239C68.5559 342.556 68.2049 342.79 68.2049 343.453V344.233H69.5699V345.39H68.2049V350.993H66.6709V345.39H65.5399V344.233ZM71.9483 347.392V350.993H70.4143V344.233H71.9483V345.234H72.0003C72.3253 344.506 72.8713 344.233 73.4433 344.233H74.1713V345.663H73.5083C72.4553 345.663 71.9483 346.17 71.9483 347.392ZM74.4556 347.613C74.4556 345.468 75.7426 344.077 77.6666 344.077C79.5776 344.077 80.8776 345.468 80.8776 347.613C80.8776 349.758 79.5776 351.149 77.6666 351.149C75.7426 351.149 74.4556 349.758 74.4556 347.613ZM79.3176 347.327C79.3176 346.04 78.6546 345.299 77.6666 345.299C76.6656 345.299 76.0156 346.04 76.0156 347.327V347.886C76.0156 349.173 76.6656 349.927 77.6666 349.927C78.6546 349.927 79.3176 349.173 79.3176 347.886V347.327ZM83.3363 346.755V350.993H81.8023V344.233H83.3363V345.026H83.3883C83.7523 344.519 84.3243 344.077 85.2213 344.077C86.0403 344.077 86.6643 344.48 87.0023 345.169H87.0413C87.4703 344.558 88.1203 344.077 89.1083 344.077C90.4343 344.077 91.2403 345.065 91.2403 346.547V350.993H89.7063V346.755C89.7063 345.962 89.3813 345.377 88.5883 345.377C87.7823 345.377 87.2883 346.001 87.2883 346.755V350.993H85.7543V346.755C85.7543 345.962 85.4293 345.377 84.6363 345.377C83.8173 345.377 83.3363 346.001 83.3363 346.755ZM94.2201 348.172H95.8451C96.0011 349.186 96.6901 349.849 97.9901 349.849C99.1211 349.849 99.9401 349.407 99.9401 348.406C99.9401 347.626 99.5631 347.223 98.5751 347.119L96.8461 346.937C95.2861 346.768 94.4281 345.962 94.4281 344.493C94.4281 342.816 95.8191 341.607 97.8861 341.607C100.109 341.607 101.162 342.946 101.344 344.207H99.7191C99.5501 343.388 98.9131 342.894 97.8471 342.894C96.7941 342.894 96.0271 343.427 96.0271 344.337C96.0271 345.065 96.4301 345.455 97.4701 345.559L99.1991 345.741C100.746 345.91 101.552 346.846 101.552 348.211C101.552 350.044 100.096 351.149 98.0291 351.149C95.6241 351.149 94.3761 349.836 94.2201 348.172ZM103.109 349.03V345.39H101.822V344.233H103.109V341.763H104.643V344.233H106.177V345.39H104.643V348.887C104.643 349.485 104.942 349.732 105.54 349.732H106.177V350.993H105.28C103.824 350.993 103.109 350.33 103.109 349.03ZM108.803 347.392V350.993H107.269V344.233H108.803V345.234H108.855C109.18 344.506 109.726 344.233 110.298 344.233H111.026V345.663H110.363C109.31 345.663 108.803 346.17 108.803 347.392ZM115.445 350.096C115.094 350.694 114.418 351.149 113.443 351.149C112.169 351.149 111.285 350.382 111.285 349.134C111.285 347.808 112.286 347.301 113.378 347.158L114.795 346.976C115.341 346.911 115.458 346.69 115.458 346.261C115.458 345.65 115.094 345.208 114.275 345.208C113.456 345.208 113.04 345.663 112.988 346.313H111.415C111.454 345.182 112.403 344.077 114.236 344.077C115.991 344.077 116.992 345.104 116.992 346.599V349.836C116.992 350.252 117.057 350.668 117.122 350.993H115.549C115.51 350.733 115.484 350.447 115.484 350.096H115.445ZM115.471 347.496C115.25 347.704 114.964 347.808 114.613 347.873L113.937 348.029C113.248 348.172 112.832 348.445 112.832 349.069C112.832 349.706 113.209 350.031 113.911 350.031C114.756 350.031 115.471 349.459 115.471 348.562V347.496ZM119.746 346.82V350.993H118.212V344.233H119.746V345.026H119.798C120.24 344.441 120.799 344.077 121.696 344.077C123.035 344.077 123.893 345.065 123.893 346.586V350.993H122.359V346.716C122.359 345.936 122.021 345.377 121.137 345.377C120.227 345.377 119.746 346.027 119.746 346.82ZM129.577 350.083C129.2 350.707 128.446 351.149 127.562 351.149C125.937 351.149 124.78 349.758 124.78 347.613C124.78 345.468 125.937 344.077 127.562 344.077C128.446 344.077 129.2 344.519 129.577 345.143H129.629V341.373H131.163V350.993H129.629V350.083H129.577ZM126.34 347.873C126.34 349.199 126.951 349.927 127.991 349.927C128.953 349.927 129.629 349.16 129.629 347.964V347.262C129.629 346.066 128.953 345.299 127.991 345.299C126.951 345.299 126.34 346.04 126.34 347.366V347.873Z" fill="white"/>
<defs>
<clipPath id="clip0_10479_4862">
<rect width="37.221" height="37.221" fill="white" transform="translate(16 99)"/>
</clipPath>
<clipPath id="clip1_10479_4862">
<rect width="37.221" height="37.221" fill="white" transform="translate(16 191.331)"/>
</clipPath>
<clipPath id="clip2_10479_4862">
<rect width="37.221" height="37.221" fill="white" transform="translate(16 283.662)"/>
</clipPath>
</defs>
</svg>
