<svg width="154" height="23" viewBox="0 0 154 23" fill="none" xmlns="http://www.w3.org/2000/svg">
<path d="M0.656 22.117V5.971H3.439V7.903C4.106 6.753 5.601 5.718 7.372 5.718C10.385 5.718 12.708 7.949 12.708 11.836V12.02C12.708 15.884 10.477 18.23 7.372 18.23C5.463 18.23 4.083 17.287 3.439 16.114V22.117H0.656ZM6.682 16.022C8.729 16.022 9.856 14.642 9.856 12.066V11.882C9.856 9.214 8.476 7.903 6.659 7.903C4.727 7.903 3.347 9.214 3.347 11.882V12.066C3.347 14.757 4.658 16.022 6.682 16.022ZM17.9017 18.23C15.6937 18.23 13.8767 17.172 13.8767 14.665C13.8767 11.859 16.5907 10.847 20.0407 10.847H21.5357V10.226C21.5357 8.616 20.9837 7.811 19.3507 7.811C17.9017 7.811 17.1887 8.501 17.0507 9.697H14.3597C14.5897 6.891 16.8207 5.718 19.5117 5.718C22.2027 5.718 24.3187 6.822 24.3187 10.111V18H21.5817V16.528C20.7997 17.563 19.7417 18.23 17.9017 18.23ZM18.5687 16.229C20.2707 16.229 21.5357 15.332 21.5357 13.791V12.595H20.1097C17.9937 12.595 16.6367 13.078 16.6367 14.55C16.6367 15.562 17.1887 16.229 18.5687 16.229ZM27.0485 18V5.971H29.8315V8.225C30.5905 6.707 31.7175 5.81 33.7415 5.787V8.386C31.3035 8.409 29.8315 9.191 29.8315 11.744V18H27.0485ZM38.6565 18.23C36.4485 18.23 34.6315 17.172 34.6315 14.665C34.6315 11.859 37.3455 10.847 40.7955 10.847H42.2905V10.226C42.2905 8.616 41.7385 7.811 40.1055 7.811C38.6565 7.811 37.9435 8.501 37.8055 9.697H35.1145C35.3445 6.891 37.5755 5.718 40.2665 5.718C42.9575 5.718 45.0735 6.822 45.0735 10.111V18H42.3365V16.528C41.5545 17.563 40.4965 18.23 38.6565 18.23ZM39.3235 16.229C41.0255 16.229 42.2905 15.332 42.2905 13.791V12.595H40.8645C38.7485 12.595 37.3915 13.078 37.3915 14.55C37.3915 15.562 37.9435 16.229 39.3235 16.229ZM58.2058 16.068C60.2758 16.068 61.5178 14.527 61.5178 12.066V11.905C61.5178 9.421 60.2758 7.903 58.2058 7.903C56.1358 7.903 54.8708 9.398 54.8708 11.882V12.066C54.8708 14.527 56.0898 16.068 58.2058 16.068ZM58.1828 18.23C54.6408 18.23 52.0188 15.769 52.0188 12.112V11.928C52.0188 8.202 54.6638 5.718 58.2058 5.718C61.7248 5.718 64.3698 8.179 64.3698 11.859V12.043C64.3698 15.792 61.7248 18.23 58.1828 18.23ZM71.4448 22.117V5.971H74.2278V7.903C74.8948 6.753 76.3898 5.718 78.1608 5.718C81.1738 5.718 83.4968 7.949 83.4968 11.836V12.02C83.4968 15.884 81.2658 18.23 78.1608 18.23C76.2518 18.23 74.8718 17.287 74.2278 16.114V22.117H71.4448ZM77.4708 16.022C79.5178 16.022 80.6448 14.642 80.6448 12.066V11.882C80.6448 9.214 79.2648 7.903 77.4478 7.903C75.5158 7.903 74.1358 9.214 74.1358 11.882V12.066C74.1358 14.757 75.4468 16.022 77.4708 16.022ZM85.6085 18V0.404999H88.3915V18H85.6085ZM94.4746 18.23C92.2666 18.23 90.4496 17.172 90.4496 14.665C90.4496 11.859 93.1636 10.847 96.6136 10.847H98.1086V10.226C98.1086 8.616 97.5566 7.811 95.9236 7.811C94.4746 7.811 93.7616 8.501 93.6236 9.697H90.9326C91.1626 6.891 93.3936 5.718 96.0846 5.718C98.7756 5.718 100.892 6.822 100.892 10.111V18H98.1546V16.528C97.3726 17.563 96.3146 18.23 94.4746 18.23ZM95.1416 16.229C96.8436 16.229 98.1086 15.332 98.1086 13.791V12.595H96.6826C94.5666 12.595 93.2096 13.078 93.2096 14.55C93.2096 15.562 93.7616 16.229 95.1416 16.229ZM103.621 18V5.971H106.404V7.88C106.979 6.707 108.313 5.718 110.291 5.718C112.706 5.718 114.408 7.121 114.408 10.433V18H111.625V10.686C111.625 8.869 110.889 8.041 109.233 8.041C107.669 8.041 106.404 9.007 106.404 10.916V18H103.621ZM122.445 18.23C118.903 18.23 116.35 15.907 116.35 12.112V11.928C116.35 8.202 118.903 5.718 122.33 5.718C125.32 5.718 128.011 7.489 128.011 11.79V12.595H119.202C119.294 14.872 120.444 16.16 122.514 16.16C124.193 16.16 125.067 15.493 125.274 14.32H127.965C127.574 16.85 125.527 18.23 122.445 18.23ZM119.248 10.732H125.251C125.113 8.662 124.055 7.742 122.33 7.742C120.651 7.742 119.524 8.869 119.248 10.732ZM134.13 18.207C131.738 18.207 130.496 16.919 130.496 14.642V8.064H128.886V5.971H130.496V3.326H133.279V5.971H135.924V8.064H133.279V14.389C133.279 15.447 133.785 15.93 134.659 15.93C135.211 15.93 135.625 15.861 136.016 15.7V17.908C135.579 18.069 134.981 18.207 134.13 18.207ZM141.33 18.23C139.122 18.23 137.305 17.172 137.305 14.665C137.305 11.859 140.019 10.847 143.469 10.847H144.964V10.226C144.964 8.616 144.412 7.811 142.779 7.811C141.33 7.811 140.617 8.501 140.479 9.697H137.788C138.018 6.891 140.249 5.718 142.94 5.718C145.631 5.718 147.747 6.822 147.747 10.111V18H145.01V16.528C144.228 17.563 143.17 18.23 141.33 18.23ZM141.997 16.229C143.699 16.229 144.964 15.332 144.964 13.791V12.595H143.538C141.422 12.595 140.065 13.078 140.065 14.55C140.065 15.562 140.617 16.229 141.997 16.229ZM152.133 18.161C151.121 18.161 150.316 17.379 150.316 16.367C150.316 15.355 151.121 14.55 152.133 14.55C153.168 14.55 153.973 15.355 153.973 16.367C153.973 17.379 153.168 18.161 152.133 18.161Z" fill="black"/>
</svg>
