<svg width="93" height="19" viewBox="0 0 93 19" fill="none" xmlns="http://www.w3.org/2000/svg">
<path d="M0.886 18.2969V1.85187H6.176C9.856 1.85187 12.271 3.48487 12.271 6.93487V7.02687C12.271 10.4999 9.764 12.0409 6.245 12.0409H3.945V18.2969H0.886ZM3.945 9.83287H6.176C8.2 9.83287 9.281 8.84387 9.281 7.02687V6.93487C9.281 4.97987 8.131 4.22087 6.176 4.22087H3.945V9.83287ZM19.2567 16.3649C21.3267 16.3649 22.5687 14.8239 22.5687 12.3629V12.2019C22.5687 9.71787 21.3267 8.19987 19.2567 8.19987C17.1867 8.19987 15.9217 9.69487 15.9217 12.1789V12.3629C15.9217 14.8239 17.1407 16.3649 19.2567 16.3649ZM19.2337 18.5269C15.6917 18.5269 13.0697 16.0659 13.0697 12.4089V12.2249C13.0697 8.49887 15.7147 6.01487 19.2567 6.01487C22.7757 6.01487 25.4207 8.47587 25.4207 12.1559V12.3399C25.4207 16.0889 22.7757 18.5269 19.2337 18.5269ZM31.5693 18.5039C29.1773 18.5039 27.9353 17.2159 27.9353 14.9389V8.36087H26.3253V6.26787H27.9353V3.62287H30.7183V6.26787H33.3633V8.36087H30.7183V14.6859C30.7183 15.7439 31.2243 16.2269 32.0983 16.2269C32.6503 16.2269 33.0643 16.1579 33.4553 15.9969V18.2049C33.0183 18.3659 32.4203 18.5039 31.5693 18.5039ZM38.7688 18.5269C36.5608 18.5269 34.7438 17.4689 34.7438 14.9619C34.7438 12.1559 37.4578 11.1439 40.9078 11.1439H42.4028V10.5229C42.4028 8.91287 41.8508 8.10787 40.2178 8.10787C38.7688 8.10787 38.0558 8.79787 37.9178 9.99387H35.2268C35.4568 7.18787 37.6878 6.01487 40.3788 6.01487C43.0698 6.01487 45.1858 7.11887 45.1858 10.4079V18.2969H42.4488V16.8249C41.6668 17.8599 40.6088 18.5269 38.7688 18.5269ZM39.4358 16.5259C41.1378 16.5259 42.4028 15.6289 42.4028 14.0879V12.8919H40.9768C38.8608 12.8919 37.5038 13.3749 37.5038 14.8469C37.5038 15.8589 38.0558 16.5259 39.4358 16.5259ZM39.2288 4.47387L40.5858 0.908874H43.6678L41.2758 4.47387H39.2288ZM52.0326 18.5269C48.9276 18.5269 47.1106 17.1009 46.9956 14.5479H49.6176C49.7556 15.7669 50.3766 16.4799 52.0096 16.4799C53.5046 16.4799 54.1716 15.9509 54.1716 14.9389C54.1716 13.9499 53.3666 13.5819 51.5956 13.2829C48.4216 12.7769 47.2486 11.8799 47.2486 9.62587C47.2486 7.21087 49.5026 6.01487 51.7566 6.01487C54.2176 6.01487 56.1726 6.93487 56.4716 9.64887H53.8956C53.6656 8.54487 53.0446 8.03887 51.7566 8.03887C50.5606 8.03887 49.8476 8.61387 49.8476 9.46487C49.8476 10.3389 50.4226 10.6839 52.3316 11.0059C55.1606 11.4429 56.8396 12.1329 56.8396 14.6859C56.8396 17.1239 55.1146 18.5269 52.0326 18.5269ZM62.9378 18.5269C59.8328 18.5269 58.0158 17.1009 57.9008 14.5479H60.5228C60.6608 15.7669 61.2818 16.4799 62.9148 16.4799C64.4098 16.4799 65.0768 15.9509 65.0768 14.9389C65.0768 13.9499 64.2718 13.5819 62.5008 13.2829C59.3268 12.7769 58.1538 11.8799 58.1538 9.62587C58.1538 7.21087 60.4078 6.01487 62.6618 6.01487C65.1228 6.01487 67.0778 6.93487 67.3768 9.64887H64.8008C64.5708 8.54487 63.9498 8.03887 62.6618 8.03887C61.4658 8.03887 60.7528 8.61387 60.7528 9.46487C60.7528 10.3389 61.3278 10.6839 63.2368 11.0059C66.0658 11.4429 67.7448 12.1329 67.7448 14.6859C67.7448 17.1239 66.0198 18.5269 62.9378 18.5269ZM69.7951 18.2969V6.26787H72.5781V18.2969H69.7951ZM71.1521 4.28987C70.2321 4.28987 69.4961 3.59987 69.4961 2.70287C69.4961 1.78287 70.2321 1.09287 71.1521 1.09287C72.0721 1.09287 72.8081 1.78287 72.8081 2.70287C72.8081 3.59987 72.0721 4.28987 71.1521 4.28987ZM80.8922 16.3649C82.9622 16.3649 84.2042 14.8239 84.2042 12.3629V12.2019C84.2042 9.71787 82.9622 8.19987 80.8922 8.19987C78.8222 8.19987 77.5572 9.69487 77.5572 12.1789V12.3629C77.5572 14.8239 78.7762 16.3649 80.8922 16.3649ZM80.8692 18.5269C77.3272 18.5269 74.7052 16.0659 74.7052 12.4089V12.2249C74.7052 8.49887 77.3502 6.01487 80.8922 6.01487C84.4112 6.01487 87.0562 8.47587 87.0562 12.1559V12.3399C87.0562 16.0889 84.4112 18.5269 80.8692 18.5269ZM90.1828 18.4579C89.1708 18.4579 88.3658 17.6759 88.3658 16.6639C88.3658 15.6519 89.1708 14.8469 90.1828 14.8469C91.2178 14.8469 92.0228 15.6519 92.0228 16.6639C92.0228 17.6759 91.2178 18.4579 90.1828 18.4579Z" fill="black"/>
</svg>
