<svg width="100" height="55" viewBox="0 0 100 55" fill="none" xmlns="http://www.w3.org/2000/svg">
  <defs>
    <clipPath id="clippath">
      <rect x="68" width="31" height="40" fill="none" stroke-width="0"/>
    </clipPath>
  </defs>
  <path d="M47.5,3.1v6.4h-9.4V.2h6.4c1.6,0,2.9,1.3,2.9,2.9Z" fill="#fff" stroke-width="0"/>
  <path d="M47.5,18.9h-9.4v9.4h9.4v-9.4Z" fill="#fff" stroke-width="0"/>
  <path d="M28.7.2h-9.4v9.4h9.4V.2Z" fill="#ffd000" stroke-width="0"/>
  <path d="M10,7.7V.2H.6v25.2c0,1.6,1.3,2.9,2.9,2.9h6.4v-7.5c0-1,.8-1.9,1.9-1.9h7.5v-9.4h-7.5c-1,0-1.9-.8-1.9-1.9Z" fill="#fff" stroke-width="0"/>
  <path d="M28.7,18.9h-9.4v9.4h9.4v-9.4Z" fill="#fff" stroke-width="0"/>
  <path d="M10.9,38.6c-.6,0-1.2-.2-1.6-.6-.4-.4-.6-1-.6-1.6s.2-1.2.6-1.6c.4-.4,1-.6,1.6-.6s1.1.2,1.6.6c.4.4.6,1,.6,1.6s-.2,1.2-.6,1.6c-.4.4-1,.7-1.6.7ZM13.4,33.8c-.7-.6-1.5-1-2.6-1s-1.9.3-2.5,1c-.7.6-1,1.5-1,2.5s.3,1.8,1,2.4c.7.6,1.5,1,2.5,1s1.9-.3,2.6-1c.7-.6,1-1.5,1-2.4s-.3-1.8-1-2.4ZM41.2,32.9v3.7c0,1.1-.4,1.8-1.6,1.8s-1.6-.7-1.6-1.8v-3.7h-1.3v4c0,2,1.3,2.7,2.9,2.7s2.9-.8,2.9-2.7v-4h-1.3ZM33.4,32.9v5.5h2.8v1.2h-4.1v-6.7h1.3ZM28.8,36c.6,0,1.2-.3,1.2-.9s-.4-.9-1.2-.9h-.8v1.9h.8ZM29.2,32.9c1.4,0,2.1.9,2.1,2.1s-.9,2.1-2.1,2.1h-1.1v2.5h-1.3v-6.7h2.4ZM25.9,32.9v1.2h-2.2v5.5h-1.3v-5.5h-2.2v-1.2h5.7ZM45.6,32.9c.6,0,1.3.2,1.9.5v1.3c-.7-.4-1.2-.7-1.9-.7s-.9.2-1,.6c0,.3.1.5.5.7,0,0,.4.2,1.1.6.5.3.9.5,1.2.9.2.3.4.7.4,1.1s-.2,1-.6,1.4c-.4.4-.9.5-1.6.5s-.8,0-1.1-.1c-.3,0-.6-.3-1-.5v-1.5c.7.6,1.4,1,2,1s1-.2,1-.6-.1-.5-.5-.7c-.3-.2-.6-.3-1.1-.6-.5-.3-.9-.5-1.2-.9-.3-.3-.4-.7-.4-1.1s.2-1,.6-1.3c.4-.3,1-.5,1.7-.5M17.4,32.9c.6,0,1.3.2,1.9.5v1.3c-.7-.4-1.2-.7-1.9-.7s-.9.2-1,.6c0,.3.1.5.5.7,0,0,.4.2,1.1.6.5.3.9.5,1.2.9.2.3.4.7.4,1.1s-.2,1-.6,1.4c-.4.4-.9.5-1.6.5s-.8,0-1.1-.1c-.3,0-.6-.3-1-.5v-1.5c.7.6,1.4,1,2,1s1-.2,1-.6-.1-.5-.5-.7c-.3-.2-.6-.3-1.1-.6-.5-.3-.9-.5-1.2-.9s-.4-.7-.4-1.1.2-1,.6-1.3c.4-.3,1-.5,1.7-.5M1.9,32.9v2.7h3.2v-2.7h1.3v6.7h-1.3v-2.7H1.9v2.7H.6v-6.7h1.3Z" fill="#fff" stroke-width="0"/>
  <line x1="58.4" y1="0" x2="58.4" y2="39.9" fill="none" stroke="#fff" stroke-width=".3"/>
  <g clip-path="url(#clippath)">
    <g>
      <path d="M99,24.8V1c-1.7-.2-3.4-.4-5.1-.5-1.1,0-2.2-.2-3.3-.2-.9,0-1.8,0-2.8-.1-.6,0-1.3,0-1.9,0-1.7,0-3.3,0-5,0-1.4,0-2.9.1-4.3.2-1.2,0-2.4.2-3.6.3-1.7.2-3.4.4-5.1.5v19.8c0,3.6-.3,7.4,1,9.7,1.2,2.1,3.2,2.9,5.2,4.2,3.1,1.8,9.3,5.4,9.3,5.4,0,0,1.3-.8,1.6-1,1.3-.8,2.6-1.5,3.9-2.3,1.7-1,3.4-2,5.1-3,1.7-1,3.2-1.9,4-3.8.3-.7.5-1.4.7-2.3.2-.9.1-1.9.1-3ZM96.9,30.2c-1,1.6-2.8,2.4-4.4,3.4-3,1.8-6,3.5-9,5.3-2.9-1.7-5.8-3.4-8.6-5.1-2-1.2-3.9-2-5.1-4-1.1-2-.8-5.7-.8-8.8V1.9c.7,0,1.5-.2,2.2-.2,2.9-.3,7.1-.5,7.6-.6,1.2,0,5.8,0,7.1,0,.5,0,.9,0,1.4,0,.9,0,1.7,0,2.6.1.9,0,1.8.1,2.7.2,1.8.2,3.6.3,5.4.5,0,2.4,0,4.7,0,7.1v13.6c0,3.2.2,5.7-1.1,7.7Z" fill="#fff" stroke-width="0"/>
      <path d="M82.2,2c-1.3,0-2.6,0-3.9.1-1.1,0-2.2.1-3.4.2-1.6.2-3.3.3-4.9.5v13c4.5,2.6,9,5.2,13.5,7.9,4.5-2.6,9-5.2,13.5-7.9V2.8c-4.7-.5-9.6-.8-14.8-.8ZM86.1,13.4c-.7-.8-1.3-1.6-2-2.4h-1v2.4h-2.1v-5.5h2.1v1.3c.6,0,1.5,0,1.9-.2.5-.3.6-1.5,0-1.8-.4-.3-1-.2-1.6-.2h-3.6c0,2.1,0,4.3,0,6.4-.6,0-1.3,0-1.9,0-.9-1.5-1.9-3-2.8-4.5,0,0,0,0,0,0,0,1.5,0,3,0,4.5h-2V5.3h1.9c.9,1.5,1.8,3,2.7,4.5,0,0,0,0,0,0,0-1.5,0-3,0-4.5h4.3c2.4,0,4.3-.2,5,1.6.2.4.3,1,.2,1.6,0,.3-.1.5-.2.8-.2.5-.6.8-.9,1.2h0c.1.3.5.6.7.9.5.7,1.1,1.3,1.6,2,0,0,0,0,0,0h-2.5ZM94.6,13.4c-1.6,0-3.3,0-4.9,0-.4-.5-.9-1-1.3-1.6v-6.6h2.1v6.3h4.1v1.8Z" fill="#fff" stroke-width="0"/>
      <path d="M70,20.3c4.5,2.6,9,5.3,13.5,7.9,4.5-2.6,9-5.2,13.5-7.9,0,.5.1,2.1,0,2.5-4.5,2.6-9,5.2-13.4,7.9-4.5-2.6-9-5.3-13.5-7.9v-2.5Z" fill="#fff" stroke-width="0"/>
      <path d="M70.1,27.4c4.5,2.6,8.9,5.2,13.4,7.8,4.5-2.6,9-5.2,13.4-7.8-.4,2.9-2.4,3.8-4.5,5.1-1.7,1-3.4,2-5.1,3-1.3.8-2.6,1.5-3.9,2.3-3-1.7-6-3.5-8.9-5.2-2.1-1.3-4-2-4.5-5.1Z" fill="#fff" stroke-width="0"/>
    </g>
  </g>
  <path d="M2.2,54.6c-.3,0-.5,0-.8-.2-.2-.1-.4-.2-.6-.4-.2-.2-.3-.4-.4-.6,0-.2-.1-.5-.1-.8s0-.5.1-.8c.1-.2.2-.4.4-.6.2-.2.4-.3.6-.4.2-.1.5-.2.8-.2s.5,0,.8.2c.2.1.4.2.6.4.2.2.3.4.4.6.1.2.2.5.2.8s0,.5-.2.8c0,.2-.2.4-.4.6-.2.2-.4.3-.6.4-.2.1-.5.2-.8.2ZM2.2,53.8c.2,0,.3,0,.4,0,.1,0,.2-.1.3-.3,0-.1.2-.2.2-.4,0-.1,0-.3,0-.5s0-.3,0-.5c0-.1-.1-.3-.2-.4,0-.1-.2-.2-.3-.3-.1,0-.3,0-.4,0s-.3,0-.4,0c-.1,0-.2.1-.3.3,0,.1-.2.2-.2.4,0,.1,0,.3,0,.5s0,.3,0,.5c0,.1.1.3.2.4,0,.1.2.2.3.3.1,0,.3,0,.4,0ZM4.7,50.8h2.5v.7h-1.7v.8h1.3v.7h-1.3v1.4h-.8v-3.7ZM7.7,50.8h2.5v.7h-1.7v.8h1.3v.7h-1.3v1.4h-.8v-3.7ZM10.8,50.8h.8v3.7h-.8v-3.7ZM15.7,53.8c0,.1-.2.2-.3.3-.1,0-.2.2-.4.2-.1,0-.3.1-.4.2-.2,0-.3,0-.5,0-.3,0-.5,0-.8-.1-.2,0-.4-.2-.6-.4-.2-.2-.3-.4-.4-.6,0-.2-.1-.5-.1-.8s0-.5.1-.8c0-.2.2-.5.4-.6.2-.2.4-.3.6-.4.2-.1.5-.2.8-.2s.7,0,.9.2c.3.1.5.3.7.6l-.6.6c-.1-.2-.2-.3-.4-.4-.2,0-.3-.1-.6-.1s-.3,0-.5,0c-.1,0-.2.1-.3.3,0,.1-.2.2-.2.4,0,.1,0,.3,0,.5s0,.3,0,.5c0,.1.1.3.2.4,0,.1.2.2.3.2.1,0,.3,0,.4,0s.3,0,.3,0c.1,0,.2,0,.3-.1,0,0,.1-.1.2-.2,0,0,.1-.1.2-.2l.6.5ZM16.2,50.8h.8v3.7h-.8v-3.7ZM18.8,50.8h.9l1.4,3.7h-.9l-.3-.9h-1.3l-.3.9h-.9l1.4-3.7ZM19.7,53l-.5-1.4-.5,1.4h.9ZM21.5,50.8h.8v3h1.8v.8h-2.6v-3.7ZM25.9,53.4c0,0,.1.1.2.2,0,0,.1.1.2.1,0,0,.2,0,.3.1,0,0,.2,0,.3,0s.1,0,.2,0c0,0,.1,0,.2,0,0,0,0,0,.1-.1,0,0,0-.1,0-.2,0-.1,0-.2-.2-.3-.1,0-.3-.2-.6-.2-.1,0-.3,0-.4-.1-.1,0-.2-.1-.3-.2,0,0-.2-.2-.2-.3,0-.1,0-.2,0-.4s0-.3,0-.4c0-.1.1-.3.3-.4.1-.1.3-.2.4-.3.2,0,.4,0,.6,0s.4,0,.5,0c.1,0,.3,0,.4.1.1,0,.2.1.3.2,0,0,.1.1.2.1l-.5.5s0,0-.1-.1c0,0-.1,0-.2-.1,0,0-.1,0-.2,0,0,0-.2,0-.3,0s-.1,0-.2,0c0,0-.1,0-.2,0,0,0,0,0-.1.1,0,0,0,0,0,.1,0,.1,0,.2.2.3.1,0,.3.1.6.2.1,0,.3,0,.4.1.1,0,.3.1.4.2.1,0,.2.2.3.3,0,.1,0,.3,0,.5s0,.3-.1.5c0,.1-.2.3-.3.4-.1.1-.3.2-.5.2-.2,0-.4,0-.6,0s-.4,0-.5,0c-.2,0-.3,0-.4-.1-.1,0-.2-.1-.3-.2,0,0-.2-.2-.3-.2l.5-.6ZM29,50.8h.9v2.2c0,.1,0,.2,0,.3,0,0,0,.2.1.3,0,0,.1.1.2.2,0,0,.2,0,.3,0s.2,0,.3,0c0,0,.2,0,.2-.2,0,0,0-.2.1-.3,0-.1,0-.2,0-.3v-2.2h.9v2.3c0,.2,0,.4-.1.6,0,.2-.2.3-.3.5-.1.1-.3.2-.5.3-.2,0-.4.1-.7.1s-.5,0-.7-.1c-.2,0-.4-.2-.5-.3-.1-.1-.2-.3-.3-.5,0-.2-.1-.4-.1-.6v-2.3ZM32.8,50.8h1.4c.2,0,.4,0,.6.1.2,0,.3.2.4.3.1.1.2.2.2.4,0,.1,0,.3,0,.5s0,.4-.1.5c0,.1-.2.3-.3.4-.1.1-.3.2-.4.2-.2,0-.3,0-.5,0h-.6v1.3h-.8v-3.7ZM34.1,52.5c.2,0,.3,0,.4-.1,0,0,.1-.2.1-.4s0-.3-.1-.4c0-.1-.2-.2-.4-.2h-.5v1h.5ZM36,50.8h2.6v.7h-1.7v.7h1.3v.7h-1.3v.8h1.8v.7h-2.7v-3.7ZM39.3,50.8h1.4c.2,0,.4,0,.6,0,.2,0,.3.1.4.3.1.1.2.2.2.4,0,.1,0,.3,0,.5,0,.2,0,.5-.2.6-.1.2-.3.3-.4.4l.8,1.5h-.9l-.7-1.4h-.5v1.4h-.8v-3.7ZM40.6,52.5c.2,0,.3,0,.4-.1,0,0,.1-.2.1-.4s0-.3-.1-.4c0,0-.2-.1-.4-.1h-.5v1h.5ZM43.8,50.8h.9l1.4,3.7h-.9l-.3-.9h-1.3l-.3.9h-.9l1.4-3.7ZM44.7,53l-.5-1.4-.5,1.4h.9ZM46.5,50.8h.8l1.6,2.4v-2.4h.8v3.7h-.8l-1.7-2.5v2.5h-.8v-3.7ZM50.5,50.8h.8l1.6,2.4v-2.4h.8v3.7h-.8l-1.7-2.5v2.5h-.8v-3.7ZM54.5,50.8h.9v2.2c0,.1,0,.2,0,.3,0,0,0,.2.1.3,0,0,.1.1.2.2,0,0,.2,0,.3,0s.2,0,.3,0c0,0,.2,0,.2-.2,0,0,0-.2.1-.3,0-.1,0-.2,0-.3v-2.2h.9v2.3c0,.2,0,.4-.1.6,0,.2-.2.3-.3.5-.1.1-.3.2-.5.3-.2,0-.4.1-.7.1s-.5,0-.7-.1c-.2,0-.4-.2-.5-.3-.1-.1-.2-.3-.3-.5,0-.2-.1-.4-.1-.6v-2.3ZM59.2,50.8h.9l1.4,3.7h-.9l-.3-.9h-1.3l-.3.9h-.9l1.4-3.7ZM60.1,53l-.5-1.4-.5,1.4h.9ZM62.3,51.5h-1.2v-.7h3.3v.7h-1.2v3h-.9v-3ZM64.8,50.8h.8v3.7h-.8v-3.7ZM68.2,54.6c-.3,0-.5,0-.8-.2-.2-.1-.4-.2-.6-.4-.2-.2-.3-.4-.4-.6,0-.2-.1-.5-.1-.8s0-.5.1-.8c.1-.2.2-.4.4-.6.2-.2.4-.3.6-.4.2-.1.5-.2.8-.2s.5,0,.8.2c.2.1.4.2.6.4.2.2.3.4.4.6.1.2.2.5.2.8s0,.5-.2.8c0,.2-.2.4-.4.6-.2.2-.4.3-.6.4-.2.1-.5.2-.8.2ZM68.2,53.8c.2,0,.3,0,.4,0,.1,0,.2-.1.3-.3,0-.1.2-.2.2-.4,0-.1,0-.3,0-.5s0-.3,0-.5c0-.1-.1-.3-.2-.4,0-.1-.2-.2-.3-.3-.1,0-.3,0-.4,0s-.3,0-.4,0c-.1,0-.2.1-.3.3,0,.1-.2.2-.2.4,0,.1,0,.3,0,.5s0,.3,0,.5c0,.1.1.3.2.4,0,.1.2.2.3.3.1,0,.3,0,.4,0ZM70.7,50.8h.8l1.6,2.4v-2.4h.8v3.7h-.8l-1.7-2.5v2.5h-.8v-3.7ZM75.7,50.8h1.4c.2,0,.4,0,.6.1.2,0,.3.2.4.3.1.1.2.2.2.4,0,.1,0,.3,0,.5s0,.4-.1.5c0,.1-.2.3-.3.4-.1.1-.3.2-.4.2-.2,0-.3,0-.5,0h-.6v1.3h-.8v-3.7ZM77.1,52.5c.2,0,.3,0,.4-.1,0,0,.1-.2.1-.4s0-.3-.1-.4c0-.1-.2-.2-.4-.2h-.5v1h.5ZM79.6,50.8h.9l1.4,3.7h-.9l-.3-.9h-1.3l-.3.9h-.9l1.4-3.7ZM80.5,53l-.5-1.4-.5,1.4h.9ZM82.3,50.8h1.4c.2,0,.4,0,.6,0,.2,0,.3.1.4.3.1.1.2.2.2.4,0,.1,0,.3,0,.5,0,.2,0,.5-.2.6-.1.2-.3.3-.4.4l.8,1.5h-.9l-.7-1.4h-.5v1.4h-.8v-3.7ZM83.6,52.5c.2,0,.3,0,.4-.1,0,0,.1-.2.1-.4s0-.3-.1-.4c0,0-.2-.1-.4-.1h-.5v1h.5ZM86.6,51.5h-1.2v-.7h3.3v.7h-1.2v3h-.9v-3ZM89.1,50.8h.8l1.6,2.4v-2.4h.8v3.7h-.8l-1.7-2.5v2.5h-.8v-3.7ZM93.1,50.8h2.6v.7h-1.7v.7h1.3v.7h-1.3v.8h1.8v.7h-2.7v-3.7ZM96.4,50.8h1.4c.2,0,.4,0,.6,0,.2,0,.3.1.4.3.1.1.2.2.2.4,0,.1,0,.3,0,.5,0,.2,0,.5-.2.6-.1.2-.3.3-.4.4l.8,1.5h-.9l-.7-1.4h-.5v1.4h-.8v-3.7ZM97.7,52.5c.2,0,.3,0,.4-.1,0,0,.1-.2.1-.4s0-.3-.1-.4c0,0-.2-.1-.4-.1h-.5v1h.5Z" fill="#fff" stroke-width="0"/>
</svg>