<svg width="300" height="91" viewBox="0 0 300 91" fill="none" xmlns="http://www.w3.org/2000/svg">
<path d="M300 91L0 67V91H300Z" fill="#F9DD3E"/>
<path d="M170.713 91H300L0 77.8L0 91H170.713Z" fill="url(#paint0_linear_5325_11164)"/>
<g clip-path="url(#clip0_5325_11164)">
<path d="M192.352 32.3146L192.369 32.2862L175.276 62.0811C175.041 62.4977 174.92 62.9617 174.92 63.4313C174.92 64.9369 176.145 66.1622 177.651 66.1622H211.966C213.472 66.1622 214.697 64.9369 214.697 63.4313C214.697 62.9219 214.557 62.4257 214.29 61.9959L214.313 62.0337L197.13 32.271L197.143 32.2937C196.662 31.4245 195.746 30.8848 194.752 30.8848C193.757 30.8848 192.829 31.4321 192.35 32.3146" fill="white"/>
<path d="M209.901 57.8598C210.241 57.8598 210.52 58.1382 210.52 58.4791C210.52 58.82 210.241 59.0983 209.901 59.0983C209.56 59.0983 209.281 58.82 209.281 58.4791C209.281 58.1382 209.56 57.8598 209.901 57.8598ZM209.901 58.962C210.147 58.962 210.342 58.765 210.342 58.4791C210.342 58.1931 210.147 57.9962 209.901 57.9962C209.654 57.9962 209.459 58.1931 209.459 58.4791C209.459 58.765 209.652 58.962 209.901 58.962ZM209.652 58.1325H209.912C210.086 58.1325 210.186 58.1836 210.186 58.3389C210.186 58.4639 210.111 58.5132 210.005 58.5226L210.186 58.8218H210.035L209.87 58.5302H209.8V58.8218H209.652V58.1325ZM209.921 58.4147C209.991 58.4147 210.041 58.4033 210.041 58.3238C210.041 58.2537 209.965 58.2442 209.906 58.2442H209.802V58.4147H209.921Z" fill="#007A53"/>
<path d="M209.355 56.4433L195.687 32.8145C195.487 32.4528 195.102 32.2085 194.661 32.2085C194.22 32.2085 193.83 32.4566 193.629 32.8221L184.01 49.6029C187.054 49.7733 188.523 48.4079 189.945 47.0842C191.211 45.91 192.515 44.6942 194.695 44.6942C197.507 44.6942 198.945 47.3114 199.005 47.4307C199.2 47.8227 199.041 48.3038 198.649 48.5007C198.255 48.6977 197.793 48.5424 197.576 48.1504C197.492 48.0027 196.432 46.2926 194.693 46.2926C193.144 46.2926 192.212 47.158 191.034 48.2545C189.485 49.6957 187.194 51.1255 183.378 50.7013L180.066 56.4811C179.969 56.6516 179.916 56.8485 179.916 57.0568C179.916 57.7045 180.441 58.2291 181.088 58.2291H194.854C194.695 58.0056 193.038 55.6668 193.038 55.6668C192.341 54.5892 192.915 53.6954 193.102 53.4113L195.104 50.2032C195.218 50.0214 195.396 49.8945 195.602 49.8472C195.811 49.7999 196.025 49.8339 196.206 49.9476C196.579 50.1824 196.695 50.6767 196.46 51.0498L194.439 54.2881C194.294 54.5097 194.254 54.5911 194.398 54.8203C194.778 55.4301 196.627 58.1723 196.665 58.2291H208.359C209.006 58.2291 209.531 57.7045 209.531 57.0568C209.531 56.8315 209.467 56.6194 209.357 56.4414M203.84 49.9911C203.624 50.2146 203.357 50.2657 203.104 50.1275C202.886 50.0082 202.433 49.8093 201.85 49.8093C201.267 49.8093 200.429 49.993 199.837 50.6975C199.837 50.6975 197.077 54.1688 197.076 54.1688C197.032 54.2313 196.86 54.3544 196.661 54.3639C196.509 54.3733 196.373 54.3127 196.263 54.1915C196.163 54.0779 196.123 53.9491 196.123 53.8298C196.123 53.7105 196.159 53.6045 196.208 53.5193C197.428 51.4512 198.03 50.4305 198.032 50.4267C199.024 48.8075 200.272 48.3871 201.374 48.3473C201.276 47.9913 200.852 46.4725 200.852 46.4687C200.81 46.302 200.748 46.0123 201.02 45.8418C201.35 45.6316 201.624 45.8248 201.729 45.9952L203.905 49.2999C204.003 49.4514 204.026 49.7923 203.84 49.9873" fill="#007A53"/>
<path d="M201.729 45.999C201.623 45.8267 201.35 45.6354 201.02 45.8456C200.75 46.018 200.81 46.3058 200.852 46.4725C200.852 46.4744 201.276 47.9932 201.375 48.3511C200.27 48.3909 199.022 48.8113 198.032 50.4305C198.032 50.4343 197.428 51.455 196.208 53.523C196.159 53.6064 196.123 53.7162 196.123 53.8336C196.123 53.951 196.161 54.0817 196.263 54.1953C196.371 54.3165 196.507 54.3752 196.661 54.3677C196.862 54.3582 197.032 54.2332 197.076 54.1726L199.837 50.7013C200.43 49.9968 201.236 49.8131 201.85 49.8131C202.463 49.8131 202.886 50.012 203.104 50.1313C203.357 50.2695 203.624 50.2184 203.84 49.9949C204.028 49.7999 204.003 49.4571 203.905 49.3075L201.729 46.0028V45.999Z" fill="#FFA400"/>
<path d="M191.037 48.2583C192.215 47.1618 193.145 46.2964 194.696 46.2964C196.435 46.2964 197.495 48.0064 197.579 48.1542C197.796 48.5462 198.258 48.7015 198.652 48.5045C199.044 48.3057 199.203 47.8246 199.008 47.4345C198.948 47.3152 197.509 44.698 194.698 44.698C192.52 44.698 191.214 45.9138 189.949 47.088C188.526 48.4117 187.057 49.7771 184.013 49.6067L183.383 50.707C187.199 51.1312 189.49 49.7014 191.039 48.2602" fill="#FFA400"/>
<path d="M194.44 54.2919L196.461 51.0535C196.696 50.6805 196.58 50.1862 196.207 49.9514C196.026 49.8377 195.812 49.8018 195.603 49.851C195.397 49.8983 195.219 50.0252 195.105 50.207L193.103 53.4151C192.916 53.6992 192.342 54.593 193.039 55.6706C193.039 55.6706 194.696 58.0113 194.855 58.2329H196.664C196.626 58.178 194.778 55.4339 194.397 54.8241C194.255 54.5949 194.293 54.5135 194.439 54.2919" fill="#FFA400"/>
<path d="M179.197 59.5604H179.964L180.869 61.9087H180.181L180.007 61.4069H179.125L178.939 61.9087H178.303L179.195 59.5604H179.197ZM179.579 60.0452H179.572L179.269 60.9637H179.858L179.579 60.0452Z" fill="#007A53"/>
<path d="M183.074 61.0167C183.074 61.6587 182.657 61.9485 182.044 61.9485C181.43 61.9485 181.014 61.6587 181.014 61.0167V59.5585H181.641V60.9107C181.641 61.2194 181.724 61.4826 182.044 61.4826C182.364 61.4826 182.447 61.2194 182.447 60.9107V59.5585H183.074V61.0167Z" fill="#007A53"/>
<path d="M183.416 61.3292C183.577 61.4163 183.802 61.4845 184.061 61.4845C184.26 61.4845 184.448 61.4447 184.448 61.2553C184.448 60.8179 183.338 61.0944 183.338 60.2384C183.338 59.6721 183.889 59.5187 184.361 59.5187C184.586 59.5187 184.807 59.5528 184.967 59.6059L184.927 60.0907C184.766 60.0168 184.584 59.9827 184.406 59.9827C184.247 59.9827 183.986 59.996 183.986 60.2024C183.986 60.583 185.095 60.3274 185.095 61.1758C185.095 61.7856 184.584 61.9504 184.061 61.9504C183.842 61.9504 183.571 61.9163 183.361 61.85L183.414 61.3311L183.416 61.3292Z" fill="#007A53"/>
<path d="M185.802 60.0244H185.223V59.5604H187.007V60.0244H186.427V61.9087H185.8V60.0244H185.802Z" fill="#007A53"/>
<path d="M187.254 59.5604H188.371C188.788 59.5604 189.129 59.7498 189.129 60.1532C189.129 60.4657 188.981 60.674 188.678 60.7459V60.7535C188.881 60.8065 188.894 60.9864 189.011 61.2724L189.24 61.9125H188.587L188.453 61.4883C188.324 61.0849 188.244 60.9827 188.011 60.9827H187.881V61.9106H187.254V59.5623V59.5604ZM187.879 60.5357H188.044C188.246 60.5357 188.502 60.5281 188.502 60.263C188.502 60.0433 188.282 60.0036 188.044 60.0036H187.879V60.5357Z" fill="#007A53"/>
<path d="M190.214 59.5604H190.981L191.886 61.9087H191.199L191.025 61.4069H190.142L189.957 61.9087H189.32L190.212 59.5604H190.214ZM190.597 60.0452H190.589L190.286 60.9637H190.875L190.597 60.0452Z" fill="#007A53"/>
<path d="M192.064 59.5604H192.691V61.4447H193.661V61.9087H192.066V59.5604H192.064Z" fill="#007A53"/>
<path d="M193.9 59.5604H194.527V61.9087H193.9V59.5604Z" fill="#007A53"/>
<path d="M195.56 59.5604H196.327L197.232 61.9087H196.545L196.37 61.4069H195.488L195.302 61.9087H194.666L195.558 59.5604H195.56ZM195.942 60.0452H195.935L195.632 60.9637H196.221L195.942 60.0452Z" fill="#007A53"/>
<path d="M197.354 59.5604H198.151L198.944 61.155H198.952L198.942 59.5604H199.514V61.9087H198.738L197.916 60.3028H197.908L197.929 61.9087H197.354V59.5604Z" fill="#007A53"/>
<path d="M201.043 59.5604H202.03L202.528 61.1228H202.535L203.056 59.5604H204.005V61.9087H203.391L203.401 60.1039H203.393L202.795 61.9087H202.219L201.647 60.1039H201.639L201.653 61.9087H201.041V59.5604H201.043Z" fill="#007A53"/>
<path d="M205.056 59.5604H205.823L206.728 61.9087H206.041L205.867 61.4069H204.984L204.798 61.9087H204.162L205.054 59.5604H205.056ZM205.439 60.0452H205.431L205.128 60.9637H205.717L205.439 60.0452Z" fill="#007A53"/>
<path d="M206.906 59.5604H207.76C208.578 59.5604 209.15 59.8161 209.15 60.7251C209.15 61.6341 208.561 61.9106 207.76 61.9106H206.906V59.5623V59.5604ZM207.533 61.4447H207.775C208.243 61.4447 208.506 61.2023 208.506 60.7346C208.506 60.2668 208.234 60.0244 207.775 60.0244H207.533V61.4447Z" fill="#007A53"/>
<path d="M209.441 59.5604H211.097V60.0055H210.066V60.4903H211.04V60.9353H210.066V61.4675H211.132V61.9125H209.439V59.5642L209.441 59.5604Z" fill="#007A53"/>
<path d="M184.995 62.4465H185.762L186.668 64.7948H185.98L185.806 64.293H184.923L184.738 64.7948H184.102L184.994 62.4465H184.995ZM185.378 62.9313H185.37L185.067 63.8498H185.656L185.378 62.9313Z" fill="#007A53"/>
<path d="M186.855 62.4465H187.653L188.446 64.0411H188.454L188.444 62.4465H189.016V64.7948H188.238L187.416 63.1889H187.408L187.429 64.7948H186.854V62.4465H186.855Z" fill="#007A53"/>
<path d="M189.396 62.4465H190.251C191.069 62.4465 191.641 62.7022 191.641 63.6112C191.641 64.5202 191.052 64.7967 190.251 64.7967H189.396V62.4484V62.4465ZM190.021 64.3308H190.264C190.732 64.3308 190.995 64.0884 190.995 63.6207C190.995 63.1529 190.722 62.9105 190.264 62.9105H190.021V64.3308Z" fill="#007A53"/>
<path d="M194 62.4068C194.775 62.4068 195.178 62.867 195.178 63.6226C195.178 64.3782 194.767 64.8365 194 64.8365C193.233 64.8365 192.822 64.3688 192.822 63.6226C192.822 62.8765 193.226 62.4068 194 62.4068ZM194 64.3725C194.381 64.3725 194.532 64.0089 194.532 63.6226C194.532 63.2154 194.381 62.8727 194 62.8727C193.62 62.8727 193.468 63.2154 193.468 63.6226C193.468 64.0298 193.62 64.3725 194 64.3725Z" fill="#007A53"/>
<path d="M195.135 62.4465H195.775L196.078 64.2513H196.085L196.402 62.4465H197.195L197.525 64.2513H197.532L197.839 62.4465H198.449L197.924 64.7948H197.119L196.786 62.99H196.779L196.47 64.7948H195.659L195.139 62.4465H195.135Z" fill="#007A53"/>
<path d="M198.635 62.4465H199.432L200.225 64.0411H200.231L200.222 62.4465H200.794V64.7948H200.015L199.195 63.1889H199.188L199.209 64.7948H198.633V62.4465H198.635Z" fill="#007A53"/>
<path d="M201.16 62.4465H202.817V62.8916H201.787V63.3764H202.759V63.8214H201.787V64.3536H202.853V64.7986H201.16V62.4503V62.4465Z" fill="#007A53"/>
<path d="M203.096 62.4465H203.95C204.768 62.4465 205.34 62.7022 205.34 63.6112C205.34 64.5202 204.751 64.7967 203.95 64.7967H203.096V62.4484V62.4465ZM203.723 64.3308H203.965C204.433 64.3308 204.696 64.0884 204.696 63.6207C204.696 63.1529 204.423 62.9105 203.965 62.9105H203.723V64.3308Z" fill="#007A53"/>
</g>
<line x1="226.877" y1="26.4247" x2="226.877" y2="71" stroke="#A7A9B3" stroke-width="0.37146"/>
<path d="M284.035 50.1375H285.251V66.1413H284.035V50.1375ZM279.97 58.1345V61.0822C279.97 61.5907 279.889 62.0992 279.727 62.5914C279.566 63.0828 279.325 63.5311 279.01 63.9236C278.696 64.3147 278.3 64.6336 277.834 64.8715C277.369 65.1086 276.822 65.2291 276.208 65.2291C275.732 65.2291 275.262 65.1436 274.811 64.9748C274.361 64.8076 273.959 64.528 273.615 64.1452C273.27 63.7615 272.991 63.2545 272.783 62.6382C272.576 62.0204 272.47 61.2517 272.47 60.3529C272.47 59.5315 272.571 58.8103 272.771 58.2081C272.971 57.6075 273.243 57.1042 273.581 56.7124C273.917 56.3228 274.308 56.0277 274.743 55.8359C275.179 55.6448 275.649 55.5474 276.137 55.5474C276.933 55.5474 277.662 55.7846 278.306 56.2529C278.95 56.7205 279.509 57.3539 279.971 58.1345H279.97ZM279.996 56.7324C279.855 56.5035 279.686 56.2737 279.49 56.047C279.244 55.7608 278.948 55.4954 278.608 55.259C278.267 55.0211 277.88 54.8241 277.453 54.6739C277.024 54.523 276.543 54.4471 276.02 54.4471C275.371 54.4471 274.753 54.5802 274.183 54.8419C273.613 55.1036 273.103 55.4946 272.668 56.0009C272.233 56.5079 271.885 57.1332 271.633 57.8595C271.381 58.5858 271.253 59.4244 271.253 60.3537C271.253 61.4086 271.377 62.3223 271.621 63.0709C271.865 63.8225 272.209 64.4485 272.645 64.9325C273.081 65.4172 273.604 65.7755 274.199 65.9978C274.791 66.2193 275.443 66.3316 276.137 66.3316C277.039 66.3316 277.831 66.1056 278.489 65.661C279.079 65.2618 279.576 64.7347 279.969 64.0909V65.5346C279.969 66.3071 279.879 66.9739 279.702 67.5144C279.526 68.0504 279.278 68.4898 278.966 68.8191C278.655 69.1469 278.273 69.3856 277.831 69.5313C277.385 69.6778 276.878 69.7521 276.325 69.7521C275.599 69.7521 274.921 69.6659 274.311 69.4956C273.698 69.3246 273.17 69.1202 272.739 68.889L272.667 68.8503L272.343 69.8525L272.393 69.8785C272.832 70.1149 273.394 70.3379 274.062 70.5424C274.732 70.7475 275.477 70.8516 276.279 70.8516C277.81 70.8516 279.023 70.4093 279.887 69.5365C280.749 68.6637 281.186 67.3248 281.186 65.5569V54.6352H280.26L279.995 56.7332L279.996 56.7324ZM268.317 60.2786V61.4822C268.317 61.9416 268.225 62.4011 268.041 62.8449C267.857 63.2902 267.589 63.6991 267.244 64.0604C266.899 64.421 266.468 64.7169 265.962 64.9399C265.457 65.1629 264.865 65.2752 264.203 65.2752C263.867 65.2752 263.541 65.2291 263.235 65.1376C262.932 65.0469 262.664 64.9042 262.437 64.7146C262.211 64.5258 262.031 64.2849 261.903 63.9972C261.775 63.7095 261.709 63.3623 261.709 62.9653C261.709 62.0353 262.012 61.3491 262.609 60.9254C263.213 60.4957 264.223 60.2786 265.612 60.2786H268.317ZM265.33 54.4442C264.529 54.4442 263.788 54.5438 263.125 54.7415C262.465 54.9385 261.915 55.1668 261.489 55.4188L261.443 55.4471L261.743 56.3778L261.815 56.3377C262.263 56.0909 262.777 55.8864 263.339 55.7318C263.903 55.5772 264.574 55.4984 265.33 55.4984C266.295 55.4984 267.043 55.7229 267.553 56.1645C268.059 56.6038 268.317 57.3874 268.317 58.4907V59.2237H265.611C263.959 59.2237 262.69 59.5374 261.836 60.1552C260.975 60.7774 260.539 61.7231 260.539 62.9646C260.539 63.5058 260.632 63.9905 260.815 64.4046C260.998 64.8195 261.256 65.1756 261.583 65.464C261.91 65.751 262.301 65.9695 262.747 66.1138C263.189 66.2572 263.671 66.3294 264.177 66.3294C265.156 66.3294 266.014 66.1123 266.727 65.6833C267.383 65.2886 267.926 64.7369 268.341 64.0448L268.606 66.1405H269.508V58.4907C269.508 57.2543 269.158 56.2604 268.468 55.5363C267.778 54.8114 266.721 54.4442 265.33 54.4442Z" fill="white"/>
<path d="M243.007 35.3909C242.183 36.0533 242.05 37.2702 242.711 38.0947L253.078 51.0422C253.738 51.8675 254.953 52.0013 255.776 51.3389C256.6 50.6765 256.733 49.4595 256.072 48.635L245.705 35.6875C245.327 35.2154 244.769 34.9701 244.205 34.9701C243.784 34.9701 243.359 35.1076 243.007 35.3909" fill="white"/>
<path d="M238.753 56.9599C238.579 58.0037 239.288 58.9999 240.33 59.1739L252.329 61.1796C253.371 61.3536 254.365 60.6421 254.539 59.5984C254.713 58.5546 254.003 57.5584 252.961 57.3844L240.962 55.3787C240.857 55.3608 240.751 55.3526 240.647 55.3526C239.727 55.3526 238.909 56.0217 238.753 56.9592" fill="white"/>
<path d="M258.274 26.5857C257.225 26.7084 256.467 27.6674 256.588 28.7186L258.5 45.2078C258.622 46.259 259.58 47.0181 260.628 46.8961C261.676 46.7735 262.435 45.8145 262.313 44.7633L260.401 28.2748C260.288 27.2979 259.453 26.5731 258.494 26.5731C258.421 26.5731 258.347 26.5775 258.273 26.5857" fill="white"/>
<path d="M269.733 32.1265L265.194 44.59C264.832 45.584 265.347 46.6939 266.338 47.056C267.331 47.418 268.439 46.9028 268.8 45.9081L273.339 33.4446C273.701 32.4506 273.186 31.3407 272.194 30.9786C271.979 30.8998 271.759 30.8626 271.541 30.8626C270.757 30.8626 270.017 31.3481 269.733 32.1265Z" fill="white"/>
<path d="M277.058 41.1829L271.815 46.9787C271.107 47.7622 271.166 48.9844 271.948 49.6952C272.73 50.4051 273.95 50.3457 274.659 49.5613L279.902 43.7656C280.61 42.982 280.551 41.7598 279.768 41.0491C279.403 40.7168 278.941 40.5532 278.481 40.5532C277.957 40.5532 277.435 40.7651 277.058 41.1822" fill="white"/>
<defs>
<linearGradient id="paint0_linear_5325_11164" x1="-1.79311" y1="91.2082" x2="374.713" y2="89.2441" gradientUnits="userSpaceOnUse">
<stop offset="0.238363" stop-color="#00CEED"/>
<stop offset="0.473958" stop-color="#0076BF"/>
<stop offset="0.733675" stop-color="#00168D"/>
</linearGradient>
<clipPath id="clip0_5325_11164">
<rect width="40.1612" height="35.5859" fill="white" transform="translate(174.688 30.6965)"/>
</clipPath>
</defs>
</svg>
