<svg width="244" height="24" viewBox="0 0 244 24" fill="none" xmlns="http://www.w3.org/2000/svg">
<path d="M5.346 23L1.02445e-08 0.988998H6.171L9.009 15.74L12.474 1.517H17.787L21.285 15.74L24.09 0.988998H30.063L24.585 23H18.48L15.015 9.074L11.55 23H5.346ZM32.0319 23V0.988998H37.8729V23H32.0319ZM41.4988 23V0.988998H46.8118L55.2598 13.265V0.988998H61.0348V23H56.0518L47.2738 10.361V23H41.4988ZM64.662 23V0.988998H69.975L78.423 13.265V0.988998H84.198V23H79.215L70.437 10.361V23H64.662ZM87.8251 23V0.988998H93.6661V23H87.8251ZM97.292 23V0.988998H102.605L111.053 13.265V0.988998H116.828V23H111.845L103.067 10.361V23H97.292ZM131.675 14.948V10.427H140.717V20.36C139.397 21.482 137.879 22.296 136.163 22.802C134.447 23.286 132.742 23.528 131.048 23.528C128.672 23.528 126.626 23.055 124.91 22.109C123.194 21.163 121.874 19.832 120.95 18.116C120.048 16.378 119.597 14.321 119.597 11.945C119.597 9.701 120.081 7.71 121.049 5.972C122.017 4.234 123.359 2.87 125.075 1.88C126.813 0.889998 128.804 0.394998 131.048 0.394998C132.874 0.394998 134.579 0.702999 136.163 1.319C137.769 1.913 139.111 2.914 140.189 4.322L136.394 8.15C135.712 7.468 134.975 6.907 134.183 6.467C133.413 6.027 132.511 5.807 131.477 5.807C130.223 5.807 129.156 6.093 128.276 6.665C127.396 7.215 126.725 7.963 126.263 8.909C125.823 9.833 125.603 10.878 125.603 12.044C125.603 13.914 126.142 15.421 127.22 16.565C128.298 17.687 129.728 18.248 131.51 18.248C132.236 18.248 132.929 18.16 133.589 17.984C134.249 17.786 134.887 17.478 135.503 17.06V14.948H131.675ZM149.605 23V0.988998H165.445V6.038H155.446V9.437H163.663V14.189H155.446V17.951H166.138V23H149.605ZM168.836 23V0.988998H174.677V23H168.836ZM189.523 14.948V10.427H198.565V20.36C197.245 21.482 195.727 22.296 194.011 22.802C192.295 23.286 190.59 23.528 188.896 23.528C186.52 23.528 184.474 23.055 182.758 22.109C181.042 21.163 179.722 19.832 178.798 18.116C177.896 16.378 177.445 14.321 177.445 11.945C177.445 9.701 177.929 7.71 178.897 5.972C179.865 4.234 181.207 2.87 182.923 1.88C184.661 0.889998 186.652 0.394998 188.896 0.394998C190.722 0.394998 192.427 0.702999 194.011 1.319C195.617 1.913 196.959 2.914 198.037 4.322L194.242 8.15C193.56 7.468 192.823 6.907 192.031 6.467C191.261 6.027 190.359 5.807 189.325 5.807C188.071 5.807 187.004 6.093 186.124 6.665C185.244 7.215 184.573 7.963 184.111 8.909C183.671 9.833 183.451 10.878 183.451 12.044C183.451 13.914 183.99 15.421 185.068 16.565C186.146 17.687 187.576 18.248 189.358 18.248C190.084 18.248 190.777 18.16 191.437 17.984C192.097 17.786 192.735 17.478 193.351 17.06V14.948H189.523ZM201.821 23V0.988998H207.662V9.041H215.78V0.988998H221.621V23H215.78V14.387H207.662V23H201.821ZM230.687 23V6.104H223.922V0.988998H243.293V6.104H236.594V23H230.687Z" fill="white"/>
</svg>
