<svg width="232" height="33" viewBox="0 0 232 33" fill="none" xmlns="http://www.w3.org/2000/svg">
<path d="M0.76 32V1.318H8.902V12.542H20.218V1.318H28.36V32H20.218V19.994H8.902V32H0.76ZM48.6334 32.736C46.3334 32.736 44.2021 32.3373 42.2394 31.54C40.3074 30.7427 38.6208 29.6233 37.1794 28.182C35.7688 26.71 34.6648 24.9927 33.8674 23.03C33.0701 21.0673 32.6714 18.9207 32.6714 16.59C32.6714 14.2593 33.0701 12.1127 33.8674 10.15C34.6648 8.18733 35.7688 6.48533 37.1794 5.044C38.6208 3.60267 40.3074 2.48333 42.2394 1.686C44.2021 0.888664 46.3334 0.489997 48.6334 0.489997C50.9334 0.489997 53.0494 0.888664 54.9814 1.686C56.9441 2.48333 58.6461 3.60267 60.0874 5.044C61.5288 6.48533 62.6328 8.18733 63.3994 10.15C64.1968 12.1127 64.5954 14.2593 64.5954 16.59C64.5954 18.9207 64.1968 21.0673 63.3994 23.03C62.6328 24.9927 61.5288 26.71 60.0874 28.182C58.6461 29.6233 56.9441 30.7427 54.9814 31.54C53.0494 32.3373 50.9334 32.736 48.6334 32.736ZM48.6334 25.1C50.2588 25.1 51.6234 24.7167 52.7274 23.95C53.8621 23.1833 54.7208 22.156 55.3034 20.868C55.8861 19.58 56.1774 18.154 56.1774 16.59C56.1774 15.026 55.8861 13.6 55.3034 12.312C54.7208 11.024 53.8621 9.99667 52.7274 9.23C51.6234 8.46333 50.2588 8.08 48.6334 8.08C47.0388 8.08 45.6741 8.46333 44.5394 9.23C43.4354 9.99667 42.5768 11.024 41.9634 12.312C41.3808 13.6 41.0894 15.026 41.0894 16.59C41.0894 18.154 41.3808 19.58 41.9634 20.868C42.5768 22.156 43.4354 23.1833 44.5394 23.95C45.6741 24.7167 47.0388 25.1 48.6334 25.1ZM65.9273 28.228L70.8493 22.294C71.7079 23.1527 72.8273 23.9347 74.2073 24.64C75.6179 25.3453 77.1359 25.698 78.7613 25.698C79.5893 25.698 80.3866 25.5293 81.1533 25.192C81.9199 24.8547 82.3033 24.2107 82.3033 23.26C82.3033 22.4627 81.8893 21.8033 81.0613 21.282C80.2333 20.73 79.0526 20.2087 77.5193 19.718L75.8173 19.166C74.5599 18.7367 73.3026 18.1693 72.0453 17.464C70.8186 16.728 69.7913 15.7927 68.9633 14.658C68.1659 13.5233 67.7673 12.128 67.7673 10.472C67.7673 8.57067 68.2119 6.86866 69.1013 5.366C70.0213 3.86333 71.3706 2.68267 73.1493 1.824C74.9279 0.934664 77.0899 0.489997 79.6353 0.489997C81.6593 0.489997 83.4073 0.719998 84.8793 1.18C86.3819 1.64 87.6239 2.17666 88.6053 2.79C89.5866 3.40333 90.3073 3.95533 90.7673 4.446L86.6273 9.69C85.5539 8.89267 84.4346 8.24867 83.2693 7.758C82.1039 7.23667 80.9079 6.976 79.6813 6.976C78.8839 6.976 78.1173 7.16 77.3813 7.528C76.6759 7.86533 76.3233 8.46333 76.3233 9.322C76.3233 10.2727 76.7526 10.9627 77.6113 11.392C78.4699 11.8213 79.5586 12.2507 80.8773 12.68L82.3493 13.14C83.3919 13.4467 84.4346 13.8453 85.4773 14.336C86.5506 14.796 87.5319 15.394 88.4213 16.13C89.3106 16.866 90.0159 17.8013 90.5373 18.936C91.0893 20.04 91.3653 21.4047 91.3653 23.03C91.3653 24.9007 90.7979 26.572 89.6633 28.044C88.5593 29.516 87.0566 30.666 85.1553 31.494C83.2846 32.322 81.1993 32.736 78.8993 32.736C75.8326 32.736 73.2566 32.322 71.1713 31.494C69.1166 30.666 67.3686 29.5773 65.9273 28.228ZM103.18 32V8.448H93.7501V1.318H120.752V8.448H111.414V32H103.18ZM124.43 32V1.318H136.942C140.223 1.318 142.861 2.192 144.854 3.94C146.847 5.65733 147.844 8.172 147.844 11.484C147.844 13.5693 147.384 15.394 146.464 16.958C145.544 18.4913 144.287 19.6873 142.692 20.546C141.097 21.374 139.257 21.788 137.172 21.788H132.388V32H124.43ZM132.388 15.394H136.252C137.356 15.394 138.23 15.0413 138.874 14.336C139.518 13.6307 139.84 12.726 139.84 11.622C139.84 10.4567 139.533 9.52133 138.92 8.816C138.307 8.11067 137.402 7.758 136.206 7.758H132.388V15.394ZM151.877 32V1.318H160.019V24.824H174.233V32H151.877ZM177.299 20.04V1.318H185.441V19.304C185.441 20.9907 185.824 22.3707 186.591 23.444C187.388 24.5173 188.691 25.054 190.501 25.054C192.31 25.054 193.598 24.5173 194.365 23.444C195.131 22.34 195.515 20.96 195.515 19.304V1.318H203.749V20.04C203.749 22.6467 203.181 24.916 202.047 26.848C200.912 28.7493 199.348 30.2213 197.355 31.264C195.392 32.276 193.123 32.782 190.547 32.782C187.971 32.782 185.686 32.276 183.693 31.264C181.699 30.252 180.135 28.7953 179.001 26.894C177.866 24.962 177.299 22.6773 177.299 20.04ZM206.533 28.228L211.455 22.294C212.313 23.1527 213.433 23.9347 214.813 24.64C216.223 25.3453 217.741 25.698 219.367 25.698C220.195 25.698 220.992 25.5293 221.759 25.192C222.525 24.8547 222.909 24.2107 222.909 23.26C222.909 22.4627 222.495 21.8033 221.667 21.282C220.839 20.73 219.658 20.2087 218.125 19.718L216.423 19.166C215.165 18.7367 213.908 18.1693 212.651 17.464C211.424 16.728 210.397 15.7927 209.569 14.658C208.771 13.5233 208.373 12.128 208.373 10.472C208.373 8.57067 208.817 6.86866 209.707 5.366C210.627 3.86333 211.976 2.68267 213.755 1.824C215.533 0.934664 217.695 0.489997 220.241 0.489997C222.265 0.489997 224.013 0.719998 225.485 1.18C226.987 1.64 228.229 2.17666 229.211 2.79C230.192 3.40333 230.913 3.95533 231.373 4.446L227.233 9.69C226.159 8.89267 225.04 8.24867 223.875 7.758C222.709 7.23667 221.513 6.976 220.287 6.976C219.489 6.976 218.723 7.16 217.987 7.528C217.281 7.86533 216.929 8.46333 216.929 9.322C216.929 10.2727 217.358 10.9627 218.217 11.392C219.075 11.8213 220.164 12.2507 221.483 12.68L222.955 13.14C223.997 13.4467 225.04 13.8453 226.083 14.336C227.156 14.796 228.137 15.394 229.027 16.13C229.916 16.866 230.621 17.8013 231.143 18.936C231.695 20.04 231.971 21.4047 231.971 23.03C231.971 24.9007 231.403 26.572 230.269 28.044C229.165 29.516 227.662 30.666 225.761 31.494C223.89 32.322 221.805 32.736 219.505 32.736C216.438 32.736 213.862 32.322 211.777 31.494C209.722 30.666 207.974 29.5773 206.533 28.228Z" fill="white"/>
</svg>
