<svg width="215" height="54" viewBox="0 0 215 54" fill="none" xmlns="http://www.w3.org/2000/svg">
<path d="M5.89646 23.5433L0.550459 1.5323H6.72146L9.55946 16.2833L13.0245 2.0603H18.3375L21.8355 16.2833L24.6405 1.5323H30.6135L25.1355 23.5433H19.0305L15.5655 9.6173L12.1005 23.5433H5.89646ZM32.5824 23.5433V1.5323H38.4234V9.5843H46.5414V1.5323H52.3824V23.5433H46.5414V14.9303H38.4234V23.5433H32.5824ZM54.1553 23.5433L62.2404 1.5323H68.9394L76.7274 23.5433H70.4244L69.0054 18.9893H61.6463L60.1943 23.5433H54.1553ZM62.8344 14.7323H67.8174L65.3754 6.6473L62.8344 14.7323ZM80.3254 23.5433V6.6473H73.5604V1.5323H92.9314V6.6473H86.2324V23.5433H80.3254ZM94.9758 9.7163L95.8338 1.5323H101.642L99.1008 9.7163H94.9758ZM102.827 20.8373L106.358 16.5803C106.974 17.1963 107.777 17.7573 108.767 18.2633C109.779 18.7693 110.868 19.0223 112.034 19.0223C112.628 19.0223 113.2 18.9013 113.75 18.6593C114.3 18.4173 114.575 17.9553 114.575 17.2733C114.575 16.7013 114.278 16.2283 113.684 15.8543C113.09 15.4583 112.243 15.0843 111.143 14.7323L109.922 14.3363C109.02 14.0283 108.118 13.6213 107.216 13.1153C106.336 12.5873 105.599 11.9163 105.005 11.1023C104.433 10.2883 104.147 9.2873 104.147 8.0993C104.147 6.7353 104.466 5.5143 105.104 4.4363C105.764 3.3583 106.732 2.5113 108.008 1.8953C109.284 1.2573 110.835 0.938302 112.661 0.938302C114.113 0.938302 115.367 1.1033 116.423 1.4333C117.501 1.7633 118.392 2.1483 119.096 2.5883C119.8 3.0283 120.317 3.4243 120.647 3.7763L117.677 7.5383C116.907 6.9663 116.104 6.5043 115.268 6.1523C114.432 5.7783 113.574 5.5913 112.694 5.5913C112.122 5.5913 111.572 5.7233 111.044 5.9873C110.538 6.2293 110.285 6.6583 110.285 7.2743C110.285 7.9563 110.593 8.4513 111.209 8.7593C111.825 9.0673 112.606 9.3753 113.552 9.6833L114.608 10.0133C115.356 10.2333 116.104 10.5193 116.852 10.8713C117.622 11.2013 118.326 11.6303 118.964 12.1583C119.602 12.6863 120.108 13.3573 120.482 14.1713C120.878 14.9633 121.076 15.9423 121.076 17.1083C121.076 18.4503 120.669 19.6493 119.855 20.7053C119.063 21.7613 117.985 22.5863 116.621 23.1803C115.279 23.7743 113.783 24.0713 112.133 24.0713C109.933 24.0713 108.085 23.7743 106.589 23.1803C105.115 22.5863 103.861 21.8053 102.827 20.8373ZM2.20046 53.5433V31.5323H11.1435C12.7055 31.5323 13.9925 31.6973 15.0045 32.0273C16.0165 32.3573 16.8085 32.8083 17.3805 33.3803C17.9525 33.9303 18.3595 34.5463 18.6015 35.2283C18.8435 35.8883 18.9645 36.5703 18.9645 37.2743C18.9645 38.1103 18.7885 38.8473 18.4365 39.4853C18.0845 40.1013 17.6555 40.6183 17.1495 41.0363C16.6655 41.4323 16.2035 41.7073 15.7635 41.8613C16.3135 42.0153 16.9295 42.3123 17.6115 42.7523C18.2935 43.1703 18.8875 43.7533 19.3935 44.5013C19.8995 45.2273 20.1525 46.1403 20.1525 47.2403C20.1525 49.4183 19.3825 51.0133 17.8425 52.0253C16.3245 53.0373 14.0915 53.5433 11.1435 53.5433H2.20046ZM7.90946 40.3763H10.4505C11.1325 40.3763 11.7375 40.2113 12.2655 39.8813C12.8155 39.5293 13.0905 38.9353 13.0905 38.0993C13.0905 37.1533 12.8045 36.5153 12.2325 36.1853C11.6825 35.8553 11.0885 35.6903 10.4505 35.6903H7.90946V40.3763ZM7.90946 49.3853H10.8795C11.3415 49.3853 11.8255 49.3303 12.3315 49.2203C12.8595 49.1103 13.2995 48.8683 13.6515 48.4943C14.0255 48.1203 14.2125 47.5373 14.2125 46.7453C14.2125 45.9973 14.0255 45.4473 13.6515 45.0953C13.2995 44.7213 12.8595 44.4793 12.3315 44.3693C11.8255 44.2373 11.3415 44.1713 10.8795 44.1713H7.90946V49.3853ZM22.7533 53.5433V31.5323H38.5933V36.5813H28.5943V39.9803H36.8113V44.7323H28.5943V48.4943H39.2863V53.5433H22.7533ZM47.4298 53.5433V36.6473H40.6648V31.5323H60.0358V36.6473H53.3368V53.5433H47.4298ZM68.1115 53.5433V36.6473H61.3465V31.5323H80.7175V36.6473H74.0185V53.5433H68.1115ZM83.026 53.5433V31.5323H98.866V36.5813H88.867V39.9803H97.084V44.7323H88.867V48.4943H99.559V53.5433H83.026ZM102.257 53.5433V31.5323H111.365C113.719 31.5323 115.611 32.1483 117.041 33.3803C118.471 34.5903 119.186 36.3833 119.186 38.7593C119.186 40.1893 118.867 41.4433 118.229 42.5213C117.591 43.5993 116.744 44.4573 115.688 45.0953L120.407 53.5433H114.137L110.408 46.0523H107.966V53.5433H102.257ZM107.966 41.4653H110.804C111.574 41.4653 112.201 41.2343 112.685 40.7723C113.169 40.2883 113.411 39.6503 113.411 38.8583C113.411 38.0223 113.18 37.3623 112.718 36.8783C112.256 36.3943 111.607 36.1523 110.771 36.1523H107.966V41.4653ZM133.726 53.5433V36.6473H126.961V31.5323H146.332V36.6473H139.633V53.5433H133.726ZM148.641 53.5433V31.5323H154.482V39.5843H162.6V31.5323H168.441V53.5433H162.6V44.9303H154.482V53.5433H148.641ZM170.214 53.5433L178.299 31.5323H184.998L192.786 53.5433H186.483L185.064 48.9893H177.705L176.253 53.5433H170.214ZM178.893 44.7323H183.876L181.434 36.6473L178.893 44.7323ZM194.58 53.5433V31.5323H199.893L208.341 43.8083V31.5323H214.116V53.5433H209.133L200.355 40.9043V53.5433H194.58Z" fill="white"/>
</svg>
