<svg width="257" height="81" viewBox="0 0 257 81" fill="none" xmlns="http://www.w3.org/2000/svg">
<path d="M8.99246 35.5433L0.730459 1.5263H10.2675L14.6535 24.3233L20.0085 2.3423H28.2195L33.6255 24.3233L37.9605 1.5263H47.1915L38.7255 35.5433H29.2905L23.9355 14.0213L18.5805 35.5433H8.99246ZM50.2343 35.5433V1.5263H59.2613V35.5433H50.2343ZM64.865 35.5433V1.5263H73.076L86.132 20.4983V1.5263H95.057V35.5433H87.356L73.79 16.0103V35.5433H64.865ZM100.663 35.5433V1.5263H108.874L121.93 20.4983V1.5263H130.855V35.5433H123.154L109.588 16.0103V35.5433H100.663ZM136.46 35.5433V1.5263H145.487V35.5433H136.46ZM151.091 35.5433V1.5263H159.302L172.358 20.4983V1.5263H181.283V35.5433H173.582L160.016 16.0103V35.5433H151.091ZM204.228 23.0993V16.1123H218.202V31.4633C216.162 33.1973 213.816 34.4553 211.164 35.2373C208.512 35.9853 205.877 36.3593 203.259 36.3593C199.587 36.3593 196.425 35.6283 193.773 34.1663C191.121 32.7043 189.081 30.6473 187.653 27.9953C186.259 25.3093 185.562 22.1303 185.562 18.4583C185.562 14.9903 186.31 11.9133 187.806 9.2273C189.302 6.5413 191.376 4.4333 194.028 2.9033C196.714 1.3733 199.791 0.608301 203.259 0.608301C206.081 0.608301 208.716 1.0843 211.164 2.0363C213.646 2.9543 215.72 4.5013 217.386 6.6773L211.521 12.5933C210.467 11.5393 209.328 10.6723 208.104 9.9923C206.914 9.3123 205.52 8.9723 203.922 8.9723C201.984 8.9723 200.335 9.4143 198.975 10.2983C197.615 11.1483 196.578 12.3043 195.864 13.7663C195.184 15.1943 194.844 16.8093 194.844 18.6113C194.844 21.5013 195.677 23.8303 197.343 25.5983C199.009 27.3323 201.219 28.1993 203.973 28.1993C205.095 28.1993 206.166 28.0633 207.186 27.7913C208.206 27.4853 209.192 27.0093 210.144 26.3633V23.0993H204.228ZM11.6955 79.5433V53.4313H1.24046V45.5263H31.1775V53.4313H20.8245V79.5433H11.6955ZM34.7451 79.5433V45.5263H43.7721V57.9703H56.3181V45.5263H65.3451V79.5433H56.3181V66.2323H43.7721V79.5433H34.7451ZM70.9411 79.5433V45.5263H95.4211V53.3293H79.9681V58.5823H92.6671V65.9263H79.9681V71.7403H96.4921V79.5433H70.9411ZM109.366 79.5433V45.5263H133.081V53.4313H118.393V60.0103H129.766V67.4563H118.393V79.5433H109.366ZM136.647 79.5433V45.5263H145.674V71.5873H161.433V79.5433H136.647ZM162.915 79.5433L175.41 45.5263H185.763L197.799 79.5433H188.058L185.865 72.5053H174.492L172.248 79.5433H162.915ZM176.328 65.9263H184.029L180.255 53.4313L176.328 65.9263ZM215.871 67.0993V60.1123H229.845V75.4633C227.805 77.1973 225.459 78.4553 222.807 79.2373C220.155 79.9853 217.52 80.3593 214.902 80.3593C211.23 80.3593 208.068 79.6283 205.416 78.1663C202.764 76.7043 200.724 74.6473 199.296 71.9953C197.902 69.3093 197.205 66.1303 197.205 62.4583C197.205 58.9903 197.953 55.9133 199.449 53.2273C200.945 50.5413 203.019 48.4333 205.671 46.9033C208.357 45.3733 211.434 44.6083 214.902 44.6083C217.724 44.6083 220.359 45.0843 222.807 46.0363C225.289 46.9543 227.363 48.5013 229.029 50.6773L223.164 56.5933C222.11 55.5393 220.971 54.6723 219.747 53.9923C218.557 53.3123 217.163 52.9723 215.565 52.9723C213.627 52.9723 211.978 53.4143 210.618 54.2983C209.258 55.1483 208.221 56.3043 207.507 57.7663C206.827 59.1943 206.487 60.8093 206.487 62.6113C206.487 65.5013 207.32 67.8303 208.986 69.5983C210.652 71.3323 212.862 72.1993 215.616 72.1993C216.738 72.1993 217.809 72.0633 218.829 71.7913C219.849 71.4853 220.835 71.0093 221.787 70.3633V67.0993H215.871ZM240.6 68.0683V67.8133C240.6 66.2153 240.787 64.9063 241.161 63.8863C241.569 62.8323 242.062 61.9653 242.64 61.2853C243.252 60.5713 243.864 59.9763 244.476 59.5003C245.36 58.8203 246.159 58.1913 246.873 57.6133C247.621 57.0353 247.995 56.2703 247.995 55.3183C247.995 54.6043 247.774 54.0433 247.332 53.6353C246.924 53.2273 246.414 52.9553 245.802 52.8193C245.224 52.6493 244.646 52.5643 244.068 52.5643C242.878 52.5643 241.722 52.8533 240.6 53.4313C239.478 54.0093 238.475 54.7403 237.591 55.6243L232.593 49.7083C234.089 48.1443 235.874 46.9033 237.948 45.9853C240.022 45.0333 242.385 44.5573 245.037 44.5573C247.077 44.5573 248.981 44.8973 250.749 45.5773C252.517 46.2573 253.945 47.3453 255.033 48.8413C256.155 50.3033 256.716 52.2243 256.716 54.6043C256.716 56.5763 256.308 58.1233 255.492 59.2453C254.676 60.3333 253.792 61.2683 252.84 62.0503C252.16 62.6283 251.48 63.1723 250.8 63.6823C250.12 64.1923 249.559 64.7703 249.117 65.4163C248.709 66.0623 248.505 66.8783 248.505 67.8643V68.0683H240.6ZM240.141 79.5433V70.8733H248.862V79.5433H240.141Z" fill="#FFD000"/>
</svg>
