<svg width="168" height="169" viewBox="0 0 168 169" fill="none" xmlns="http://www.w3.org/2000/svg">
<path d="M106.265 60.3126C98.2199 53.6906 82.2678 58.0109 69.8677 70.4123C57.4664 82.8148 53.1487 98.7662 59.7715 106.81C60.5995 100.003 68.5986 88.9984 78.5261 79.0699C88.4548 69.1403 99.4578 61.1413 106.265 60.3126Z" fill="#7F93AA"/>
<path d="M106.266 60.3136C99.4576 61.1412 88.4535 69.1413 78.526 79.0698C68.5973 88.9994 60.5993 100.003 59.7713 106.81C60.0173 107.11 60.2777 107.399 60.5539 107.675C68.2722 115.393 84.9543 111.221 97.8161 98.3581C110.678 85.495 114.848 68.8125 107.13 61.095C106.854 60.8189 106.565 60.5595 106.266 60.3136Z" fill="#4D6988"/>
<path d="M78.5259 73.6951L73.1514 79.0702L78.5265 84.4448L83.901 79.0697L78.5259 73.6951Z" fill="#FFD000"/>
<path d="M83.6859 68.5347L82.7715 69.4492L88.1466 74.8237L89.061 73.9092L83.6859 68.5347Z" fill="#002855"/>
<path d="M81.0733 71.1473L80.1589 72.0618L85.534 77.4363L86.4484 76.5219L81.0733 71.1473Z" fill="#002855"/>
<path d="M71.5181 80.7035L70.6038 81.618L75.9788 86.9925L76.8932 86.0781L71.5181 80.7035Z" fill="#002855"/>
<path d="M68.9058 83.3161L67.9915 84.2306L73.3665 89.6052L74.2809 88.6907L68.9058 83.3161Z" fill="#002855"/>
</svg>
