<svg width="634" height="46" viewBox="0 0 634 46" fill="none" xmlns="http://www.w3.org/2000/svg">
<path d="M33.2358 29.0896L40.7368 36.1494C36.0303 42.0746 29.79 45.0371 22.0158 45.0371C17.7295 45.0371 13.9265 44.0916 10.6067 42.2006C7.32898 40.3096 4.76561 37.7252 2.91662 34.4475C1.06764 31.1277 0.143144 27.3247 0.143144 23.0384C0.143144 18.7521 1.06764 14.9491 2.91662 11.6293C4.76561 8.26752 7.32898 5.62011 10.6067 3.68708C13.8845 1.75404 17.6875 0.787528 22.0158 0.787528C25.6297 0.787528 28.9915 1.39685 32.1012 2.61551C35.2529 3.83416 37.9003 5.95629 40.0434 8.9819L32.6685 16.4199C31.4919 14.823 30.0841 13.5413 28.4452 12.5748C26.8064 11.6083 24.9364 11.125 22.8353 11.125C20.482 11.125 18.4649 11.6503 16.784 12.7009C15.1452 13.7094 13.8845 15.0962 13.002 16.8611C12.1195 18.584 11.6783 20.5381 11.6783 22.7232C11.6783 24.9504 12.1195 26.9675 13.002 28.7745C13.9265 30.5394 15.2292 31.9261 16.9101 32.9347C18.591 33.9432 20.545 34.4475 22.7722 34.4475C25.2515 34.4475 27.2476 34.0063 28.7604 33.1238C30.2732 32.2413 31.765 30.8966 33.2358 29.0896ZM63.9357 44.9741C60.784 44.9741 57.8634 44.4278 55.174 43.3352C52.5266 42.2427 50.2153 40.7088 48.2403 38.7338C46.3072 36.7167 44.7944 34.3635 43.7019 31.674C42.6093 28.9846 42.063 26.043 42.063 22.8493C42.063 19.6556 42.6093 16.714 43.7019 14.0246C44.7944 11.3352 46.3072 9.00291 48.2403 7.02786C50.2153 5.05281 52.5266 3.51899 55.174 2.4264C57.8634 1.33382 60.784 0.787528 63.9357 0.787528C67.0873 0.787528 69.9869 1.33382 72.6343 2.4264C75.3237 3.51899 77.656 5.05281 79.631 7.02786C81.6061 9.00291 83.1189 11.3352 84.1695 14.0246C85.262 16.714 85.8083 19.6556 85.8083 22.8493C85.8083 26.043 85.262 28.9846 84.1695 31.674C83.1189 34.3635 81.6061 36.7167 79.631 38.7338C77.656 40.7088 75.3237 42.2427 72.6343 43.3352C69.9869 44.4278 67.0873 44.9741 63.9357 44.9741ZM63.9357 34.5105C66.1628 34.5105 68.0328 33.9852 69.5456 32.9347C71.1005 31.8841 72.2771 30.4764 73.0755 28.7114C73.874 26.9465 74.2732 24.9924 74.2732 22.8493C74.2732 20.7062 73.874 18.7521 73.0755 16.9872C72.2771 15.2222 71.1005 13.8145 69.5456 12.7639C68.0328 11.7134 66.1628 11.1881 63.9357 11.1881C61.7505 11.1881 59.8805 11.7134 58.3257 12.7639C56.8129 13.8145 55.6362 15.2222 54.7958 16.9872C53.9973 18.7521 53.5981 20.7062 53.5981 22.8493C53.5981 24.9924 53.9973 26.9465 54.7958 28.7114C55.6362 30.4764 56.8129 31.8841 58.3257 32.9347C59.8805 33.9852 61.7505 34.5105 63.9357 34.5105ZM91.7158 43.9656V1.92213H101.864L118.001 25.3707V1.92213H129.032V43.9656H119.514L102.747 19.8237V43.9656H91.7158ZM146.991 43.9656V11.6924H134.069V1.92213H171.07V11.6924H158.274V43.9656H146.991ZM176.109 43.9656V1.92213H193.507C198.003 1.92213 201.617 3.09876 204.349 5.45202C207.08 7.76325 208.446 11.1881 208.446 15.7265C208.446 18.458 207.836 20.8532 206.618 22.9123C205.399 24.9714 203.781 26.6103 201.764 27.829L210.778 43.9656H198.802L191.679 29.6569H187.014V43.9656H176.109ZM187.014 20.8953H192.435C193.906 20.8953 195.104 20.454 196.028 19.5716C196.953 18.6471 197.415 17.4284 197.415 15.9156C197.415 14.3188 196.974 13.0581 196.091 12.1336C195.209 11.2091 193.969 10.7468 192.372 10.7468H187.014V20.8953ZM235.001 44.9741C231.849 44.9741 228.928 44.4278 226.239 43.3352C223.592 42.2427 221.28 40.7088 219.305 38.7338C217.372 36.7167 215.859 34.3635 214.767 31.674C213.674 28.9846 213.128 26.043 213.128 22.8493C213.128 19.6556 213.674 16.714 214.767 14.0246C215.859 11.3352 217.372 9.00291 219.305 7.02786C221.28 5.05281 223.592 3.51899 226.239 2.4264C228.928 1.33382 231.849 0.787528 235.001 0.787528C238.152 0.787528 241.052 1.33382 243.699 2.4264C246.389 3.51899 248.721 5.05281 250.696 7.02786C252.671 9.00291 254.184 11.3352 255.234 14.0246C256.327 16.714 256.873 19.6556 256.873 22.8493C256.873 26.043 256.327 28.9846 255.234 31.674C254.184 34.3635 252.671 36.7167 250.696 38.7338C248.721 40.7088 246.389 42.2427 243.699 43.3352C241.052 44.4278 238.152 44.9741 235.001 44.9741ZM235.001 34.5105C237.228 34.5105 239.098 33.9852 240.611 32.9347C242.165 31.8841 243.342 30.4764 244.14 28.7114C244.939 26.9465 245.338 24.9924 245.338 22.8493C245.338 20.7062 244.939 18.7521 244.14 16.9872C243.342 15.2222 242.165 13.8145 240.611 12.7639C239.098 11.7134 237.228 11.1881 235.001 11.1881C232.815 11.1881 230.945 11.7134 229.391 12.7639C227.878 13.8145 226.701 15.2222 225.861 16.9872C225.062 18.7521 224.663 20.7062 224.663 22.8493C224.663 24.9924 225.062 26.9465 225.861 28.7114C226.701 30.4764 227.878 31.8841 229.391 32.9347C230.945 33.9852 232.815 34.5105 235.001 34.5105ZM262.781 43.9656V1.92213H273.938V34.1323H293.415V43.9656H262.781ZM330.105 44.9741C326.953 44.9741 324.033 44.4278 321.343 43.3352C318.696 42.2427 316.385 40.7088 314.41 38.7338C312.477 36.7167 310.964 34.3635 309.871 31.674C308.779 28.9846 308.232 26.043 308.232 22.8493C308.232 19.6556 308.779 16.714 309.871 14.0246C310.964 11.3352 312.477 9.00291 314.41 7.02786C316.385 5.05281 318.696 3.51899 321.343 2.4264C324.033 1.33382 326.953 0.787528 330.105 0.787528C333.257 0.787528 336.156 1.33382 338.804 2.4264C341.493 3.51899 343.825 5.05281 345.8 7.02786C347.775 9.00291 349.288 11.3352 350.339 14.0246C351.431 16.714 351.978 19.6556 351.978 22.8493C351.978 26.043 351.431 28.9846 350.339 31.674C349.288 34.3635 347.775 36.7167 345.8 38.7338C343.825 40.7088 341.493 42.2427 338.804 43.3352C336.156 44.4278 333.257 44.9741 330.105 44.9741ZM330.105 34.5105C332.332 34.5105 334.202 33.9852 335.715 32.9347C337.27 31.8841 338.447 30.4764 339.245 28.7114C340.043 26.9465 340.443 24.9924 340.443 22.8493C340.443 20.7062 340.043 18.7521 339.245 16.9872C338.447 15.2222 337.27 13.8145 335.715 12.7639C334.202 11.7134 332.332 11.1881 330.105 11.1881C327.92 11.1881 326.05 11.7134 324.495 12.7639C322.982 13.8145 321.806 15.2222 320.965 16.9872C320.167 18.7521 319.768 20.7062 319.768 22.8493C319.768 24.9924 320.167 26.9465 320.965 28.7114C321.806 30.4764 322.982 31.8841 324.495 32.9347C326.05 33.9852 327.92 34.5105 330.105 34.5105ZM367.086 43.9656L351.831 1.92213H363.997L373.452 31.1697L382.277 1.92213H394.19L378.873 43.9656H367.086ZM398.205 43.9656V1.92213H428.461V11.5663H409.361V18.0587H425.057V27.1356H409.361V34.3214H429.784V43.9656H398.205ZM435.569 43.9656V1.92213H452.966C457.463 1.92213 461.077 3.09876 463.808 5.45202C466.54 7.76325 467.905 11.1881 467.905 15.7265C467.905 18.458 467.296 20.8532 466.077 22.9123C464.859 24.9714 463.241 26.6103 461.224 27.829L470.238 43.9656H458.261L451.138 29.6569H446.474V43.9656H435.569ZM446.474 20.8953H451.895C453.366 20.8953 454.563 20.454 455.488 19.5716C456.412 18.6471 456.875 17.4284 456.875 15.9156C456.875 14.3188 456.433 13.0581 455.551 12.1336C454.668 11.2091 453.429 10.7468 451.832 10.7468H446.474V20.8953ZM486.538 43.9656V1.92213H497.695V17.3023H513.201V1.92213H524.358V43.9656H513.201V27.5138H497.695V43.9656H486.538ZM552.139 44.9741C548.987 44.9741 546.066 44.4278 543.377 43.3352C540.73 42.2427 538.418 40.7088 536.443 38.7338C534.51 36.7167 532.997 34.3635 531.905 31.674C530.812 28.9846 530.266 26.043 530.266 22.8493C530.266 19.6556 530.812 16.714 531.905 14.0246C532.997 11.3352 534.51 9.00291 536.443 7.02786C538.418 5.05281 540.73 3.51899 543.377 2.4264C546.066 1.33382 548.987 0.787528 552.139 0.787528C555.29 0.787528 558.19 1.33382 560.837 2.4264C563.527 3.51899 565.859 5.05281 567.834 7.02786C569.809 9.00291 571.322 11.3352 572.372 14.0246C573.465 16.714 574.011 19.6556 574.011 22.8493C574.011 26.043 573.465 28.9846 572.372 31.674C571.322 34.3635 569.809 36.7167 567.834 38.7338C565.859 40.7088 563.527 42.2427 560.837 43.3352C558.19 44.4278 555.29 44.9741 552.139 44.9741ZM552.139 34.5105C554.366 34.5105 556.236 33.9852 557.749 32.9347C559.303 31.8841 560.48 30.4764 561.278 28.7114C562.077 26.9465 562.476 24.9924 562.476 22.8493C562.476 20.7062 562.077 18.7521 561.278 16.9872C560.48 15.2222 559.303 13.8145 557.749 12.7639C556.236 11.7134 554.366 11.1881 552.139 11.1881C549.953 11.1881 548.083 11.7134 546.529 12.7639C545.016 13.8145 543.839 15.2222 542.999 16.9872C542.2 18.7521 541.801 20.7062 541.801 22.8493C541.801 24.9924 542.2 26.9465 542.999 28.7114C543.839 30.4764 545.016 31.8841 546.529 32.9347C548.083 33.9852 549.953 34.5105 552.139 34.5105ZM586.178 43.9656L575.967 1.92213H587.754L593.175 30.0982L599.793 2.93067H609.942L616.623 30.0982L621.981 1.92213H633.39L622.927 43.9656H611.266L604.647 17.3654L598.029 43.9656H586.178Z" fill="white"/>
</svg>
