<svg width="640" height="38" viewBox="0 0 640 38" fill="none" xmlns="http://www.w3.org/2000/svg">
<path d="M13.1003 36.9656V22.7424L0.427765 1.30067H11.2823L18.2335 14.0267L24.7569 1.30067H35.2906L22.5646 22.6889V36.9656H13.1003ZM52.3294 37.8211C49.6558 37.8211 47.1784 37.3577 44.8969 36.4309C42.6512 35.504 40.6906 34.2029 39.0152 32.5275C37.3754 30.8165 36.0921 28.8202 35.1653 26.5388C34.2385 24.2574 33.7751 21.7621 33.7751 19.0529C33.7751 16.3437 34.2385 13.8484 35.1653 11.567C36.0921 9.28561 37.3754 7.3072 39.0152 5.63179C40.6906 3.95637 42.6512 2.65526 44.8969 1.72843C47.1784 0.801606 49.6558 0.338193 52.3294 0.338193C55.0029 0.338193 57.4625 0.801606 59.7083 1.72843C61.9897 2.65526 63.9681 3.95637 65.6436 5.63179C67.319 7.3072 68.6023 9.28561 69.4934 11.567C70.4203 13.8484 70.8837 16.3437 70.8837 19.0529C70.8837 21.7621 70.4203 24.2574 69.4934 26.5388C68.6023 28.8202 67.319 30.8165 65.6436 32.5275C63.9681 34.2029 61.9897 35.504 59.7083 36.4309C57.4625 37.3577 55.0029 37.8211 52.3294 37.8211ZM52.3294 28.945C54.2187 28.945 55.805 28.4994 57.0883 27.6082C58.4072 26.717 59.4053 25.5229 60.0826 24.0257C60.7599 22.5285 61.0985 20.8709 61.0985 19.0529C61.0985 17.2349 60.7599 15.5773 60.0826 14.0801C59.4053 12.583 58.4072 11.3888 57.0883 10.4976C55.805 9.60644 54.2187 9.16085 52.3294 9.16085C50.4757 9.16085 48.8894 9.60644 47.5705 10.4976C46.2872 11.3888 45.2891 12.583 44.5761 14.0801C43.8988 15.5773 43.5602 17.2349 43.5602 19.0529C43.5602 20.8709 43.8988 22.5285 44.5761 24.0257C45.2891 25.5229 46.2872 26.717 47.5705 27.6082C48.8894 28.4994 50.4757 28.945 52.3294 28.945ZM75.681 23.0632V1.30067H85.1453V22.2077C85.1453 24.1683 85.5909 25.7724 86.4821 27.02C87.4089 28.2677 88.9239 28.8915 91.0271 28.8915C93.1302 28.8915 94.6274 28.2677 95.5186 27.02C96.4098 25.7367 96.8554 24.1326 96.8554 22.2077V1.30067H106.427V23.0632C106.427 26.0932 105.767 28.7311 104.448 30.9769C103.129 33.187 101.311 34.898 98.9942 36.11C96.7128 37.2864 94.0749 37.8746 91.0805 37.8746C88.0862 37.8746 85.4305 37.2864 83.1134 36.11C80.7963 34.9337 78.9783 33.2405 77.6594 31.0303C76.3405 28.7846 75.681 26.1289 75.681 23.0632ZM112.604 36.9656V1.30067H127.362C131.176 1.30067 134.241 2.29878 136.559 4.29502C138.876 6.25561 140.034 9.16085 140.034 13.0107C140.034 15.3278 139.517 17.3597 138.483 19.1064C137.45 20.8531 136.077 22.2433 134.366 23.2771L142.013 36.9656H131.853L125.811 24.8277H121.854V36.9656H112.604ZM121.854 17.3953H126.453C127.7 17.3953 128.716 17.021 129.5 16.2724C130.285 15.4882 130.677 14.4544 130.677 13.1711C130.677 11.8166 130.302 10.7471 129.554 9.96291C128.805 9.17867 127.754 8.78656 126.399 8.78656H121.854V17.3953ZM152.899 32.581L158.62 25.6833C159.618 26.6814 160.919 27.5904 162.524 28.4103C164.163 29.2302 165.928 29.6401 167.817 29.6401C168.78 29.6401 169.706 29.444 170.598 29.0519C171.489 28.6598 171.934 27.9112 171.934 26.8062C171.934 25.8793 171.453 25.1129 170.491 24.5069C169.528 23.8653 168.156 23.2593 166.373 22.6889L164.395 22.0473C162.933 21.5482 161.472 20.8887 160.01 20.0689C158.585 19.2133 157.39 18.1261 156.428 16.8071C155.501 15.4882 155.038 13.8663 155.038 11.9413C155.038 9.7312 155.555 7.75279 156.588 6.00608C157.658 4.25937 159.226 2.88696 161.294 1.88884C163.361 0.855077 165.874 0.338193 168.833 0.338193C171.186 0.338193 173.218 0.605547 174.929 1.14026C176.675 1.67496 178.119 2.29878 179.26 3.01173C180.401 3.72467 181.238 4.36632 181.773 4.93667L176.961 11.0323C175.713 10.1055 174.412 9.35691 173.057 8.78656C171.703 8.18055 170.312 7.87755 168.887 7.87755C167.96 7.87755 167.069 8.09144 166.213 8.5192C165.393 8.91132 164.983 9.60644 164.983 10.6046C164.983 11.7096 165.482 12.5117 166.48 13.0107C167.478 13.5098 168.744 14.0089 170.277 14.5079L171.988 15.0426C173.2 15.3991 174.412 15.8625 175.624 16.4329C176.872 16.9676 178.012 17.6627 179.046 18.5182C180.08 19.3737 180.9 20.461 181.506 21.7799C182.147 23.0632 182.468 24.6495 182.468 26.5388C182.468 28.7133 181.809 30.656 180.49 32.3671C179.206 34.0782 177.46 35.4149 175.25 36.3774C173.075 37.3399 170.651 37.8211 167.978 37.8211C164.413 37.8211 161.418 37.3399 158.994 36.3774C156.606 35.4149 154.574 34.1495 152.899 32.581ZM187.165 23.0632V1.30067H196.629V22.2077C196.629 24.1683 197.075 25.7724 197.966 27.02C198.893 28.2677 200.408 28.8915 202.511 28.8915C204.614 28.8915 206.112 28.2677 207.003 27.02C207.894 25.7367 208.34 24.1326 208.34 22.2077V1.30067H217.911V23.0632C217.911 26.0932 217.251 28.7311 215.932 30.9769C214.613 33.187 212.795 34.898 210.478 36.11C208.197 37.2864 205.559 37.8746 202.565 37.8746C199.57 37.8746 196.915 37.2864 194.598 36.11C192.281 34.9337 190.463 33.2405 189.144 31.0303C187.825 28.7846 187.165 26.1289 187.165 23.0632ZM224.088 36.9656V1.30067H238.632C242.446 1.30067 245.512 2.31661 247.829 4.34849C250.146 6.34473 251.304 9.26779 251.304 13.1177C251.304 15.5417 250.77 17.6627 249.7 19.4807C248.631 21.263 247.169 22.6533 245.316 23.6514C243.462 24.6139 241.323 25.0951 238.899 25.0951H233.338V36.9656H224.088ZM233.338 17.6627H237.83C239.113 17.6627 240.129 17.2527 240.878 16.4329C241.626 15.613 242.001 14.5614 242.001 13.2781C242.001 11.9235 241.644 10.8363 240.931 10.0164C240.218 9.1965 239.167 8.78656 237.776 8.78656H233.338V17.6627ZM255.993 36.9656V1.30067H281.659V9.48167H265.457V14.9891H278.771V22.6889H265.457V28.7846H282.782V36.9656H255.993ZM287.689 36.9656V1.30067H302.447C306.261 1.30067 309.326 2.29878 311.644 4.29502C313.961 6.25561 315.119 9.16085 315.119 13.0107C315.119 15.3278 314.602 17.3597 313.568 19.1064C312.535 20.8531 311.162 22.2433 309.451 23.2771L317.098 36.9656H306.938L300.896 24.8277H296.939V36.9656H287.689ZM296.939 17.3953H301.538C302.785 17.3953 303.801 17.021 304.585 16.2724C305.37 15.4882 305.762 14.4544 305.762 13.1711C305.762 11.8166 305.387 10.7471 304.639 9.96291C303.89 9.17867 302.839 8.78656 301.484 8.78656H296.939V17.3953ZM330.925 36.9656V1.30067H340.389V36.9656H330.925ZM343.858 32.581L349.579 25.6833C350.577 26.6814 351.878 27.5904 353.483 28.4103C355.122 29.2302 356.887 29.6401 358.776 29.6401C359.739 29.6401 360.666 29.444 361.557 29.0519C362.448 28.6598 362.893 27.9112 362.893 26.8062C362.893 25.8793 362.412 25.1129 361.45 24.5069C360.487 23.8653 359.115 23.2593 357.332 22.6889L355.354 22.0473C353.893 21.5482 352.431 20.8887 350.969 20.0689C349.544 19.2133 348.349 18.1261 347.387 16.8071C346.46 15.4882 345.997 13.8663 345.997 11.9413C345.997 9.7312 346.514 7.75279 347.547 6.00608C348.617 4.25937 350.185 2.88696 352.253 1.88884C354.32 0.855077 356.833 0.338193 359.792 0.338193C362.145 0.338193 364.177 0.605547 365.888 1.14026C367.635 1.67496 369.078 2.29878 370.219 3.01173C371.36 3.72467 372.197 4.36632 372.732 4.93667L367.92 11.0323C366.672 10.1055 365.371 9.35691 364.016 8.78656C362.662 8.18055 361.272 7.87755 359.846 7.87755C358.919 7.87755 358.028 8.09144 357.172 8.5192C356.352 8.91132 355.942 9.60644 355.942 10.6046C355.942 11.7096 356.441 12.5117 357.439 13.0107C358.438 13.5098 359.703 14.0089 361.236 14.5079L362.947 15.0426C364.159 15.3991 365.371 15.8625 366.583 16.4329C367.831 16.9676 368.971 17.6627 370.005 18.5182C371.039 19.3737 371.859 20.461 372.465 21.7799C373.106 23.0632 373.427 24.6495 373.427 26.5388C373.427 28.7133 372.768 30.656 371.449 32.3671C370.165 34.0782 368.419 35.4149 366.209 36.3774C364.034 37.3399 361.61 37.8211 358.937 37.8211C355.372 37.8211 352.378 37.3399 349.954 36.3774C347.565 35.4149 345.533 34.1495 343.858 32.581ZM387.998 36.9656V1.30067H397.463V36.9656H387.998ZM403.872 36.9656V1.30067H412.481L426.17 21.1917V1.30067H435.527V36.9656H427.453L413.23 16.4863V36.9656H403.872ZM451.884 36.9656L438.945 1.30067H449.264L457.285 26.111L464.771 1.30067H474.877L461.883 36.9656H451.884ZM478.282 36.9656V1.30067H503.948V9.48167H487.747V14.9891H501.061V22.6889H487.747V28.7846H505.071V36.9656H478.282ZM507.037 32.581L512.759 25.6833C513.757 26.6814 515.058 27.5904 516.662 28.4103C518.302 29.2302 520.066 29.6401 521.956 29.6401C522.918 29.6401 523.845 29.444 524.736 29.0519C525.627 28.6598 526.073 27.9112 526.073 26.8062C526.073 25.8793 525.592 25.1129 524.629 24.5069C523.667 23.8653 522.294 23.2593 520.512 22.6889L518.533 22.0473C517.072 21.5482 515.61 20.8887 514.149 20.0689C512.723 19.2133 511.529 18.1261 510.566 16.8071C509.64 15.4882 509.176 13.8663 509.176 11.9413C509.176 9.7312 509.693 7.75279 510.727 6.00608C511.796 4.25937 513.365 2.88696 515.432 1.88884C517.5 0.855077 520.013 0.338193 522.972 0.338193C525.324 0.338193 527.356 0.605547 529.067 1.14026C530.814 1.67496 532.258 2.29878 533.398 3.01173C534.539 3.72467 535.377 4.36632 535.911 4.93667L531.099 11.0323C529.851 10.1055 528.55 9.35691 527.196 8.78656C525.841 8.18055 524.451 7.87755 523.025 7.87755C522.098 7.87755 521.207 8.09144 520.351 8.5192C519.532 8.91132 519.122 9.60644 519.122 10.6046C519.122 11.7096 519.621 12.5117 520.619 13.0107C521.617 13.5098 522.882 14.0089 524.415 14.5079L526.126 15.0426C527.338 15.3991 528.55 15.8625 529.762 16.4329C531.01 16.9676 532.151 17.6627 533.184 18.5182C534.218 19.3737 535.038 20.461 535.644 21.7799C536.286 23.0632 536.607 24.6495 536.607 26.5388C536.607 28.7133 535.947 30.656 534.628 32.3671C533.345 34.0782 531.598 35.4149 529.388 36.3774C527.214 37.3399 524.79 37.8211 522.116 37.8211C518.551 37.8211 515.557 37.3399 513.133 36.3774C510.745 35.4149 508.713 34.1495 507.037 32.581ZM550.34 36.9656V9.58861H539.379V1.30067H570.766V9.58861H559.911V36.9656H550.34ZM575.041 36.9656V1.30067H600.707V9.48167H584.505V14.9891H597.82V22.6889H584.505V28.7846H601.83V36.9656H575.041ZM606.737 36.9656V1.30067H620.426C624.097 1.30067 627.359 1.94231 630.211 3.22561C633.098 4.47326 635.379 6.43385 637.055 9.10738C638.73 11.7453 639.568 15.1496 639.568 19.3203C639.568 23.2414 638.73 26.521 637.055 29.1589C635.379 31.7611 633.08 33.7217 630.157 35.0406C627.27 36.3239 624.008 36.9656 620.372 36.9656H606.737ZM616.201 28.6242H620.051C623.117 28.6242 625.505 27.7508 627.216 26.0041C628.927 24.2217 629.783 21.9225 629.783 19.1064C629.783 16.2546 628.999 13.9554 627.43 12.2087C625.862 10.462 623.402 9.58861 620.051 9.58861H616.201V28.6242Z" fill="#FFD100"/>
</svg>
