<?xml version="1.0" encoding="utf-8"?>
<!-- Generator: Adobe Illustrator 27.7.0, SVG Export Plug-In . SVG Version: 6.00 Build 0)  -->
<svg version="1.1" id="Layer_1" xmlns="http://www.w3.org/2000/svg" xmlns:xlink="http://www.w3.org/1999/xlink" x="0px" y="0px"
	 viewBox="0 0 219 22.1" style="enable-background:new 0 0 219 22.1;" xml:space="preserve">
<style type="text/css">
	.st0{fill:#FFFFFF;}
	.st1{fill:#FFD000;}
</style>
<path class="st0" d="M6.5,21.6V5.5H0V0.6h18.5v4.9h-6.4v16.1H6.5z"/>
<path class="st0" d="M20.4,21.6v-21H26v7.7h7.8V0.6h5.6v21h-5.6v-8.2H26v8.2H20.4z"/>
<path class="st0" d="M40.7,21.6l7.7-21h6.4l7.4,21h-6l-1.4-4.3h-7l-1.4,4.3H40.7z M48.9,13.2h4.8l-2.3-7.7L48.9,13.2z"/>
<path class="st0" d="M65.3,21.6V5.5h-6.5V0.6h18.5v4.9H71v16.1H65.3z"/>
<path class="st0" d="M78.7,8.4l0.8-7.8h5.5l-2.4,7.8H78.7z"/>
<path class="st0" d="M83.7,19l3.4-4.1c0.6,0.6,1.4,1.1,2.3,1.6c1,0.5,2,0.7,3.1,0.7c0.6,0,1.1-0.1,1.6-0.3c0.5-0.2,0.8-0.7,0.8-1.3
	c0-0.5-0.3-1-0.9-1.4c-0.6-0.4-1.4-0.7-2.4-1.1l-1.2-0.4c-0.9-0.3-1.7-0.7-2.6-1.2c-0.8-0.5-1.5-1.1-2.1-1.9
	c-0.5-0.8-0.8-1.7-0.8-2.9c0-1.3,0.3-2.5,0.9-3.5c0.6-1,1.6-1.8,2.8-2.4C89.8,0.3,91.3,0,93.1,0c1.4,0,2.6,0.2,3.6,0.5
	c1,0.3,1.9,0.7,2.6,1.1c0.7,0.4,1.2,0.8,1.5,1.1l-2.8,3.6c-0.7-0.5-1.5-1-2.3-1.3c-0.8-0.4-1.6-0.5-2.5-0.5c-0.5,0-1.1,0.1-1.6,0.4
	c-0.5,0.2-0.7,0.6-0.7,1.2c0,0.7,0.3,1.1,0.9,1.4c0.6,0.3,1.3,0.6,2.2,0.9l1,0.3c0.7,0.2,1.4,0.5,2.1,0.8c0.7,0.3,1.4,0.7,2,1.2
	c0.6,0.5,1.1,1.1,1.4,1.9c0.4,0.8,0.6,1.7,0.6,2.8c0,1.3-0.4,2.4-1.2,3.4c-0.8,1-1.8,1.8-3.1,2.4c-1.3,0.6-2.7,0.9-4.3,0.9
	c-2.1,0-3.9-0.3-5.3-0.9C85.8,20.7,84.7,19.9,83.7,19z"/>
<path class="st1" d="M105.5,21.6l7.7-21h6.4l7.4,21h-6l-1.4-4.3h-7l-1.4,4.3H105.5z M113.8,13.2h4.8l-2.3-7.7L113.8,13.2z"/>
<path class="st1" d="M134.5,21.6v-21h8.6c2.2,0,4,0.6,5.4,1.8c1.4,1.2,2,2.9,2,5.2c0,1.4-0.3,2.7-0.9,3.7c-0.6,1-1.5,1.9-2.6,2.5
	c-1.1,0.6-2.4,0.8-3.8,0.8h-3.3v7H134.5z M139.9,10.2h2.6c0.8,0,1.4-0.2,1.8-0.7c0.4-0.5,0.7-1.1,0.7-1.9c0-0.8-0.2-1.4-0.6-1.9
	c-0.4-0.5-1-0.7-1.9-0.7h-2.6V10.2z"/>
<path class="st1" d="M152.3,21.6v-21h5.6v16.1h9.7v4.9H152.3z"/>
<path class="st1" d="M169.1,13.4V0.6h5.6v12.3c0,1.2,0.3,2.1,0.8,2.8c0.5,0.7,1.4,1.1,2.7,1.1c1.2,0,2.1-0.4,2.6-1.1
	c0.5-0.8,0.8-1.7,0.8-2.8V0.6h5.6v12.8c0,1.8-0.4,3.3-1.2,4.7c-0.8,1.3-1.8,2.3-3.2,3c-1.3,0.7-2.9,1-4.7,1c-1.8,0-3.3-0.3-4.7-1
	c-1.4-0.7-2.4-1.7-3.2-3C169.4,16.7,169.1,15.2,169.1,13.4z"/>
<path class="st1" d="M188.7,19l3.4-4.1c0.6,0.6,1.4,1.1,2.3,1.6c1,0.5,2,0.7,3.1,0.7c0.6,0,1.1-0.1,1.6-0.3c0.5-0.2,0.8-0.7,0.8-1.3
	c0-0.5-0.3-1-0.8-1.4c-0.6-0.4-1.4-0.7-2.4-1.1l-1.2-0.4c-0.9-0.3-1.7-0.7-2.6-1.2c-0.8-0.5-1.5-1.1-2.1-1.9
	C190.3,8.9,190,8,190,6.8c0-1.3,0.3-2.5,0.9-3.5c0.6-1,1.6-1.8,2.8-2.4c1.2-0.6,2.7-0.9,4.4-0.9c1.4,0,2.6,0.2,3.6,0.5
	c1,0.3,1.9,0.7,2.5,1.1c0.7,0.4,1.2,0.8,1.5,1.1l-2.8,3.6c-0.7-0.5-1.5-1-2.3-1.3c-0.8-0.4-1.6-0.5-2.5-0.5c-0.5,0-1.1,0.1-1.6,0.4
	c-0.5,0.2-0.7,0.6-0.7,1.2c0,0.7,0.3,1.1,0.9,1.4c0.6,0.3,1.3,0.6,2.2,0.9l1,0.3c0.7,0.2,1.4,0.5,2.1,0.8c0.7,0.3,1.4,0.7,2,1.2
	c0.6,0.5,1.1,1.1,1.4,1.9c0.4,0.8,0.6,1.7,0.6,2.8c0,1.3-0.4,2.4-1.2,3.4c-0.8,1-1.8,1.8-3.1,2.4c-1.3,0.6-2.7,0.8-4.3,0.8
	c-2.1,0-3.9-0.3-5.3-0.8C190.9,20.6,189.7,19.9,188.7,19z"/>
<path class="st1" d="M212.5,21.7v-3.2h-3.2v-3.2h3.2V12h3.3v3.3h3.2v3.2h-3.2v3.2H212.5z"/>
</svg>
