<svg width="125" height="68" viewBox="0 0 125 68" fill="none" xmlns="http://www.w3.org/2000/svg">
  <path d="M59.09,3.86v8.05h-11.71V.2h8.05c2.02,0,3.66,1.64,3.66,3.66Z" fill="#fff"/>
  <path d="M59.09,23.62h-11.71v11.71h11.71v-11.71Z" fill="#fff"/>
  <path d="M35.67.2h-11.71v11.71h11.71V.2Z" fill="#ffd000"/>
  <path d="M12.25,9.58V.2H.54v31.47c0,2.02,1.64,3.66,3.66,3.66h8.05v-9.39c0-1.28,1.04-2.32,2.32-2.32h9.39v-11.71h-9.39c-1.28,0-2.32-1.04-2.32-2.32Z" fill="#fff"/>
  <path d="M35.67,23.62h-11.71v11.71h11.71v-11.71Z" fill="#fff"/>
  <path d="M13.3,48.21c-.8,0-1.46-.26-1.99-.8-.53-.54-.79-1.2-.79-2.02s.25-1.52.79-2.06c.53-.54,1.2-.8,2.03-.8s1.43.27,1.97.81c.54.54.8,1.2.8,2s-.26,1.5-.8,2.05c-.54.55-1.19.82-2,.82ZM16.48,42.3c-.85-.81-1.92-1.21-3.19-1.21s-2.34.41-3.18,1.21c-.84.81-1.26,1.85-1.26,3.08s.43,2.22,1.25,3.03c.83.8,1.88,1.21,3.12,1.21s2.38-.4,3.24-1.21c.86-.8,1.3-1.83,1.3-3.05s-.43-2.25-1.28-3.06ZM51.27,41.18v4.66c0,1.33-.51,2.25-2,2.25s-2-.91-2-2.25v-4.66h-1.62v5c0,2.46,1.66,3.43,3.62,3.43s3.62-.96,3.62-3.43v-5h-1.62ZM41.53,41.18v6.88h3.5v1.44h-5.11v-8.32h1.61ZM35.72,44.94c.8,0,1.47-.37,1.47-1.16s-.46-1.16-1.47-1.16h-.97v2.32h.97ZM36.18,41.18c1.75,0,2.62,1.13,2.62,2.59s-1.09,2.61-2.69,2.61h-1.36v3.12h-1.61v-8.32h3.03ZM32.05,41.18v1.44h-2.73v6.88h-1.61v-6.88h-2.73v-1.44h7.08ZM56.75,41.07c.81,0,1.59.2,2.34.61v1.64c-.87-.52-1.44-.84-2.32-.84s-1.17.3-1.2.71c-.02.32.17.58.59.85.12.08.56.31,1.35.69.67.33,1.17.68,1.47,1.07.3.39.46.87.46,1.42,0,.72-.26,1.29-.77,1.73-.51.44-1.18.66-2,.66-.53,0-.99-.06-1.37-.17-.39-.12-.81-.32-1.29-.61v-1.83c.89.74,1.7,1.2,2.49,1.2.74,0,1.24-.28,1.24-.79,0-.34-.16-.65-.57-.89-.34-.2-.79-.43-1.32-.73-.63-.35-1.14-.66-1.47-1.06-.32-.4-.49-.84-.49-1.36,0-.7.26-1.25.78-1.67.52-.42,1.21-.62,2.06-.62M21.52,41.07c.81,0,1.59.2,2.34.61v1.64c-.86-.52-1.44-.84-2.32-.84s-1.17.3-1.2.71c-.02.32.17.58.59.85.12.08.56.31,1.35.69.67.33,1.17.68,1.48,1.07.3.39.45.87.45,1.42,0,.72-.26,1.29-.77,1.73-.51.44-1.18.66-2,.66-.54,0-.99-.06-1.37-.17-.38-.12-.81-.32-1.29-.61v-1.83c.89.74,1.7,1.2,2.49,1.2.74,0,1.24-.28,1.24-.79,0-.34-.15-.65-.57-.89-.34-.2-.79-.43-1.32-.73-.63-.35-1.14-.66-1.47-1.06-.32-.4-.49-.84-.49-1.36,0-.7.26-1.25.78-1.67.52-.42,1.21-.62,2.06-.62M2.14,41.18v3.32h3.95v-3.32h1.61v8.32h-1.61v-3.33h-3.95v3.33H.54v-8.32h1.61Z" fill="#fff"/>
  <line x1="72.75" y1=".08" x2="72.75" y2="49.92" fill="none" stroke="#fff" stroke-width=".4"/>
  <path d="M2.7,67.08c-.35,0-.67-.06-.96-.18-.29-.13-.55-.3-.78-.53-.22-.22-.39-.49-.51-.78-.12-.3-.18-.62-.18-.97s.06-.67.18-.97c.12-.3.29-.56.51-.78.22-.22.48-.4.77-.52.3-.13.62-.19.97-.19s.67.06.96.19c.29.12.55.29.77.52.22.22.4.49.52.78.12.29.18.62.18.97s-.06.67-.18.97c-.12.3-.29.56-.52.78-.22.22-.48.4-.77.53-.29.12-.61.18-.96.18ZM2.7,66.08c.28,0,.51-.07.71-.2.2-.14.35-.32.46-.54.11-.22.16-.47.16-.74s-.05-.51-.16-.73c-.1-.22-.25-.4-.46-.53-.2-.14-.43-.2-.71-.2s-.51.07-.71.2c-.2.13-.35.31-.46.53-.11.22-.16.46-.16.73s.05.51.16.74c.11.22.26.4.46.54.2.14.44.2.71.2ZM5.87,66.96v-4.67h3.14v.93h-2.08v1.06h1.58v.9h-1.58v1.78h-1.06ZM9.64,66.96v-4.67h3.14v.93h-2.08v1.06h1.58v.9h-1.58v1.78h-1.06ZM13.42,66.96v-4.67h1.06v4.67h-1.06ZM18.88,65.44l.72.66c-.13.18-.3.34-.5.49-.2.15-.43.27-.68.36-.25.09-.52.13-.81.13-.47,0-.89-.11-1.25-.32-.36-.21-.64-.5-.85-.86-.2-.37-.3-.79-.3-1.26,0-.35.06-.67.18-.97.12-.3.28-.57.49-.79.21-.22.47-.4.76-.53.3-.13.63-.19.99-.19.43,0,.81.08,1.13.24.33.16.6.39.81.69l-.72.69c-.14-.2-.31-.35-.5-.47-.19-.12-.42-.18-.69-.18-.28,0-.52.07-.73.2-.2.13-.36.31-.47.53-.11.22-.16.47-.16.74s.05.52.16.74c.11.22.27.39.47.53.2.13.44.19.71.19.22,0,.41-.03.56-.09.15-.06.28-.14.38-.23.11-.1.21-.2.3-.31ZM20.15,66.96v-4.67h1.06v4.67h-1.06ZM21.72,66.96l1.74-4.67h1.17l1.71,4.67h-1.16l-.36-1.07h-1.65l-.36,1.07h-1.11ZM23.43,65.07h1.15l-.57-1.76-.58,1.76ZM26.84,66.96v-4.67h1.06v3.73h2.23v.94h-3.29ZM31.69,66.3l.68-.74c.12.13.28.26.48.39.21.13.44.19.71.19.11,0,.21-.02.32-.06.1-.04.19-.1.25-.18.07-.08.1-.17.1-.28,0-.17-.08-.31-.25-.41-.17-.1-.43-.19-.8-.28-.35-.09-.65-.25-.88-.47-.23-.22-.35-.51-.35-.87,0-.26.06-.5.19-.71.13-.22.32-.39.57-.53.25-.14.57-.2.95-.2.32,0,.58.04.8.13.22.08.39.17.53.27.13.1.22.18.27.24l-.61.67c-.1-.08-.24-.17-.41-.27-.17-.1-.37-.15-.6-.15-.15,0-.29.04-.42.13-.13.08-.19.19-.19.31,0,.16.08.29.25.39.17.1.4.18.69.25.23.06.45.14.66.25.21.11.39.27.53.47s.2.46.2.78c0,.28-.08.53-.24.75-.16.22-.37.39-.64.52-.27.13-.57.19-.91.19-.31,0-.58-.04-.82-.11-.24-.07-.45-.17-.62-.29-.18-.12-.33-.25-.45-.38ZM36.12,65.19v-2.9h1.06v2.77c0,.3.07.55.2.74.14.19.37.28.7.28s.56-.09.69-.28c.13-.19.2-.43.2-.74v-2.77h1.07v2.9c0,.37-.08.7-.25.99-.16.28-.39.51-.68.67-.29.16-.63.24-1.04.24s-.74-.08-1.04-.24c-.29-.16-.52-.38-.69-.67-.16-.29-.24-.62-.24-.99ZM40.92,66.96v-4.67h1.7c.39,0,.7.07.94.22.24.14.42.32.53.55.11.23.17.47.17.74,0,.33-.07.61-.22.84-.15.22-.35.39-.59.51-.24.11-.5.17-.78.17h-.72v1.65h-1.03ZM41.95,64.46h.62c.19,0,.35-.06.46-.18.12-.12.18-.28.18-.46,0-.2-.06-.35-.18-.48-.12-.13-.27-.19-.47-.19h-.61v1.31ZM44.97,66.96v-4.67h3.19v.92h-2.14v.91h1.66v.9h-1.66v1.01h2.29v.93h-3.35ZM49.03,66.96v-4.67h1.74c.36,0,.67.07.91.2.24.13.42.31.55.53.12.22.18.46.18.73,0,.3-.07.56-.2.79-.13.23-.32.41-.56.55l1.04,1.87h-1.16l-.87-1.72h-.59v1.72h-1.03ZM50.06,64.4h.65c.2,0,.35-.06.46-.18.11-.12.17-.26.17-.44,0-.19-.06-.34-.18-.46-.11-.11-.26-.17-.46-.17h-.65v1.24ZM52.88,66.96l1.74-4.67h1.17l1.71,4.67h-1.16l-.36-1.07h-1.65l-.36,1.07h-1.11ZM54.59,65.07h1.15l-.57-1.76-.58,1.76ZM58,66.96v-4.67h1.01l2.02,3.03v-3.03h1.04v4.67h-.96l-2.07-3.09v3.09h-1.04ZM62.99,66.96v-4.67h1.01l2.02,3.03v-3.03h1.04v4.67h-.96l-2.07-3.09v3.09h-1.04ZM67.94,65.19v-2.9h1.06v2.77c0,.3.07.55.2.74.14.19.37.28.7.28s.56-.09.69-.28c.13-.19.2-.43.2-.74v-2.77h1.07v2.9c0,.37-.08.7-.25.99-.16.28-.39.51-.68.67-.29.16-.64.24-1.04.24s-.74-.08-1.04-.24c-.29-.16-.52-.38-.69-.67-.16-.29-.24-.62-.24-.99ZM72.12,66.96l1.74-4.67h1.17l1.71,4.67h-1.16l-.36-1.07h-1.65l-.36,1.07h-1.11ZM73.82,65.07h1.15l-.57-1.76-.58,1.76ZM77.69,66.96v-3.74h-1.51v-.93h4.08v.93h-1.51v3.74h-1.06ZM80.86,66.96v-4.67h1.06v4.67h-1.06ZM85.08,67.08c-.35,0-.67-.06-.96-.18-.29-.13-.55-.3-.78-.53-.22-.22-.39-.49-.51-.78-.12-.3-.18-.62-.18-.97s.06-.67.18-.97c.12-.3.29-.56.51-.78.22-.22.48-.4.77-.52.3-.13.62-.19.97-.19s.67.06.96.19c.29.12.55.29.77.52.22.22.4.49.52.78.12.29.18.62.18.97s-.06.67-.18.97c-.12.3-.29.56-.52.78-.22.22-.48.4-.77.53-.29.12-.61.18-.96.18ZM85.08,66.08c.28,0,.51-.07.71-.2.2-.14.35-.32.46-.54.11-.22.16-.47.16-.74s-.05-.51-.16-.73c-.1-.22-.25-.4-.46-.53-.2-.14-.43-.2-.71-.2s-.51.07-.71.2c-.2.13-.35.31-.46.53-.11.22-.16.46-.16.73s.05.51.16.74c.11.22.26.4.46.54.2.14.44.2.71.2ZM88.24,66.96v-4.67h1.01l2.02,3.03v-3.03h1.04v4.67h-.96l-2.07-3.09v3.09h-1.04ZM94.49,66.96v-4.67h1.7c.39,0,.7.07.94.22.24.14.42.32.53.55.11.23.17.47.17.74,0,.33-.07.61-.22.84-.15.22-.35.39-.59.51-.24.11-.5.17-.78.17h-.72v1.65h-1.03ZM95.52,64.46h.62c.19,0,.35-.06.46-.18.12-.12.17-.28.17-.46,0-.2-.06-.35-.17-.48-.12-.13-.27-.19-.47-.19h-.61v1.31ZM97.54,66.96l1.74-4.67h1.17l1.71,4.67h-1.16l-.36-1.07h-1.65l-.36,1.07h-1.11ZM99.25,65.07h1.15l-.57-1.76-.58,1.76ZM102.66,66.96v-4.67h1.74c.36,0,.67.07.91.2.24.13.43.31.55.53.12.22.18.46.18.73,0,.3-.07.56-.2.79-.13.23-.32.41-.56.55l1.04,1.87h-1.16l-.87-1.72h-.59v1.72h-1.03ZM103.69,64.4h.65c.2,0,.35-.06.46-.18.11-.12.17-.26.17-.44,0-.19-.06-.34-.17-.46-.11-.11-.26-.17-.46-.17h-.65v1.24ZM107.99,66.96v-3.74h-1.51v-.93h4.08v.93h-1.51v3.74h-1.06ZM111.16,66.96v-4.67h1.01l2.02,3.03v-3.03h1.04v4.67h-.96l-2.07-3.09v3.09h-1.04ZM116.14,66.96v-4.67h3.19v.92h-2.14v.91h1.66v.9h-1.66v1.01h2.29v.93h-3.35ZM120.21,66.96v-4.67h1.74c.36,0,.67.07.91.2.24.13.43.31.55.53.12.22.18.46.18.73,0,.3-.07.56-.2.79-.13.23-.32.41-.56.55l1.04,1.87h-1.16l-.87-1.72h-.59v1.72h-1.03ZM121.24,64.4h.65c.2,0,.35-.06.46-.18.11-.12.17-.26.17-.44,0-.19-.06-.34-.17-.46-.11-.11-.26-.17-.46-.17h-.65v1.24Z" fill="#fff"/>
  <path d="M124,0v32.85c0,4.98-2.91,7.62-4.88,8.73l-14.62,8.41-14.62-8.41c-1.96-1.12-4.88-3.75-4.88-8.73V0h39Z" fill="#970e48"/>
  <path d="M88.05,3.03v29.82c0,3.65,2.09,5.39,3.34,6.1l13.11,7.54,13.11-7.54c1.25-.71,3.34-2.44,3.34-6.1V3.03h-32.91ZM119.31,32.85c0,2.68-1.36,4.02-2.51,4.68l-12.3,7.08-12.3-7.08c-1.15-.65-2.51-1.99-2.51-4.68V4.67h29.62v28.18ZM96.07,15.15s.36.49.36,1c.18-.34.53-.79,1.33-.94,0,0-.03,1.32-.99,1.67.68.48.66,2.08.76,3.27.19,2.27,2,3.26,2.52,5.07.42,1.46.06,3.04.5,4.5.63,2.09,2.52,3.06,4.53,3.5,1.12.24,2.01.4,2,.81h-2.93c-3.63.03-4.84-.96-6.37-4.02-.15.09-.41.43-.02,1.31.66,1.51,1.07,2.71-.17,2.71h-4.32c.51-.91,2.19-.72,3.21-.85,1-.13-.03-1.22-1.2-2.54-2.19-2.47-1.77-4.48.85-6.52-.22-.12-1.18.36-1.5.66-.13-.26-.18-.96-.19-1.26-.31.27-.72.79-.9,1.08-.14.22-.12,1.01-.12,1.01-.36-.18-.54-.71-.46-1.12.08-.45.75-1.32,1.26-2.1.24-.36.75-2.6.96-2.73.34-.23.78-.65.89-.94.04-.11,0-.2,0-.2,0,0-.42.48-1,.65-.17.05-.36,0-.53.08-.16.07-.3.17-.46.22-.29.09-.61-.29-.76-.47-.21-.25-.12-.43.1-.62.47-.4.73-.62,1.1-1.11.24-.32.75-.67,1.27-.64-.06-.41.03-1.13.29-1.47h0ZM116.07,26.89v-6.07c0-3.87-3.15-5.3-7.03-5.3s-7.03,1.43-7.03,5.3v6.07c0,3.6,2.72,5.09,6.23,5.28,2.01,1.98,5.86,2.53,7.83-.19v-.96c-.92.53-2.08.71-3.04.49,1.84-.77,3.04-2.23,3.04-4.62h0ZM113.44,27.8c0,.96-.67,1.79-1.59,2.08-.54.17-1.22.28-1.91.33-1.12-.69-2.62-1.49-3.12-1.68-.5-.19-1.33-.2-2.1-.2,0,0-.06-.11-.06-.7v-7.72c0-.96.67-1.8,1.59-2.08.78-.24,1.84-.36,2.81-.36s2.03.12,2.81.36c.93.29,1.58,1.12,1.59,2.08v7.9h0ZM98.31,8.04h-.8l-1.34,3.61h.92l.21-.66h1.23l.21.66h.92l-1.35-3.61ZM97.52,10.3l.39-1.22.39,1.22h-.78ZM102.23,10.15c.38-.18.63-.47.63-1.02,0-.71-.53-1.09-1.37-1.09h-1.41v3.61h.86v-1.27h.49l.64,1.27h.92v-.04l-.76-1.46ZM101.49,9.69h-.55v-.96h.55c.34,0,.51.18.51.49s-.17.48-.51.48h0ZM104.92,7.99c-.93,0-1.58.68-1.58,1.79v.13c0,1.11.66,1.79,1.58,1.79s1.58-.68,1.58-1.79v-.13c0-1.11-.66-1.79-1.58-1.79ZM105.63,9.91c0,.7-.25,1.09-.71,1.09s-.71-.39-.71-1.09v-.14c0-.71.24-1.09.71-1.09s.71.38.71,1.09v.14ZM108.57,7.99c-.93,0-1.58.68-1.58,1.79v.13c0,1.11.65,1.79,1.58,1.79s1.58-.68,1.58-1.79v-.13c0-1.11-.66-1.79-1.58-1.79ZM109.29,9.91c0,.7-.25,1.09-.71,1.09s-.71-.39-.71-1.09v-.14c0-.71.24-1.09.71-1.09s.71.38.71,1.09v.14ZM116.31,10.68c0-.22-.1-.34-.65-.52-.64-.21-1.23-.51-1.23-1.16s.58-1.02,1.38-1.02,1.35.44,1.35,1.12h-.85c0-.27-.17-.45-.52-.45s-.51.16-.51.35c0,.21.25.34.67.47.78.24,1.21.59,1.21,1.2,0,.65-.53,1.02-1.34,1.02-.74,0-1.51-.37-1.51-1.23h.86c0,.41.24.55.65.55.34,0,.48-.16.48-.34h0ZM111.6,11.65h-.86v-3.61h.86l1.38,2.34-.07-.84v-1.5h.86v3.61h-.86l-1.38-2.34.07.85v1.49ZM92.69,11.65h-.86v-3.61h1.12l.83,1.78.83-1.78h1.13v3.61h-.86v-.81l.09-1.86-.89,1.94h-.57l-.89-1.94.09,1.86v.81h0Z" fill="#fff"/>
</svg>