<?xml version="1.0" encoding="utf-8"?>
<!-- Generator: Adobe Illustrator 27.7.0, SVG Export Plug-In . SVG Version: 6.00 Build 0)  -->
<svg version="1.1" id="Layer_1" xmlns="http://www.w3.org/2000/svg" xmlns:xlink="http://www.w3.org/1999/xlink" x="0px" y="0px"
	 viewBox="0 0 299.2 16.8" style="enable-background:new 0 0 299.2 16.8;" xml:space="preserve">
<style type="text/css">
	.st0{fill:#FFD000;}
</style>
<path class="st0" d="M0,16.4v-16h11.2v3.7H4.2v3.1h5.4v3.5H4.2v5.7H0z M12.8,16.4v-16h4.2v16H12.8z M23.7,16.4V4.2h-4.9V0.4h14.1
	v3.7H28v12.3H23.7z M33.2,14.5l2.6-3.1c0.4,0.4,1,0.9,1.8,1.2c0.7,0.4,1.5,0.6,2.4,0.6c0.4,0,0.8-0.1,1.2-0.3c0.4-0.2,0.6-0.5,0.6-1
	c0-0.4-0.2-0.8-0.6-1c-0.4-0.3-1-0.6-1.8-0.8l-0.9-0.3c-0.7-0.2-1.3-0.5-2-0.9c-0.6-0.4-1.2-0.9-1.6-1.5c-0.4-0.6-0.6-1.3-0.6-2.2
	c0-1,0.2-1.9,0.7-2.7c0.5-0.8,1.2-1.4,2.1-1.8C37.9,0.2,39,0,40.4,0c1.1,0,2,0.1,2.7,0.4c0.8,0.2,1.4,0.5,1.9,0.8
	c0.5,0.3,0.9,0.6,1.1,0.9L44,4.8c-0.6-0.4-1.1-0.8-1.8-1c-0.6-0.3-1.2-0.4-1.9-0.4c-0.4,0-0.8,0.1-1.2,0.3c-0.4,0.2-0.6,0.5-0.6,0.9
	c0,0.5,0.2,0.9,0.7,1.1c0.4,0.2,1,0.4,1.7,0.7l0.8,0.2c0.5,0.2,1.1,0.4,1.6,0.6c0.6,0.2,1.1,0.6,1.5,0.9c0.5,0.4,0.8,0.9,1.1,1.5
	c0.3,0.6,0.4,1.3,0.4,2.1c0,1-0.3,1.8-0.9,2.6c-0.6,0.8-1.4,1.4-2.4,1.8c-1,0.4-2.1,0.6-3.3,0.6c-1.6,0-2.9-0.2-4-0.6
	C34.9,15.7,34,15.2,33.2,14.5z M52.5,16.4v-16h4.2v16H52.5z M59.4,16.4v-16h3.9l6.1,8.9V0.4h4.2v16H70l-6.4-9.2v9.2H59.4z
	 M80.2,16.4V4.2h-4.9V0.4h14.1v3.7h-4.9v12.3H80.2z M98.1,16.8c-1.2,0-2.3-0.2-3.3-0.6c-1-0.4-1.9-1-2.6-1.8
	c-0.7-0.8-1.3-1.7-1.7-2.7c-0.4-1-0.6-2.1-0.6-3.4s0.2-2.3,0.6-3.4c0.4-1,1-1.9,1.7-2.7c0.8-0.8,1.6-1.3,2.6-1.8
	c1-0.4,2.1-0.6,3.3-0.6c1.2,0,2.3,0.2,3.3,0.6c1,0.4,1.9,1,2.7,1.8c0.8,0.8,1.3,1.6,1.7,2.7c0.4,1,0.6,2.1,0.6,3.4s-0.2,2.3-0.6,3.4
	c-0.4,1-1,1.9-1.7,2.7c-0.8,0.8-1.6,1.3-2.7,1.8C100.4,16.6,99.3,16.8,98.1,16.8z M98.1,12.8c0.8,0,1.6-0.2,2.1-0.6
	c0.6-0.4,1-0.9,1.3-1.6c0.3-0.7,0.5-1.4,0.5-2.2s-0.2-1.6-0.5-2.2c-0.3-0.7-0.8-1.2-1.3-1.6C99.6,4.2,98.9,4,98.1,4
	c-0.8,0-1.5,0.2-2.1,0.6c-0.6,0.4-1,0.9-1.3,1.6c-0.3,0.7-0.5,1.4-0.5,2.2s0.2,1.6,0.5,2.2c0.3,0.7,0.8,1.2,1.3,1.6
	C96.5,12.6,97.2,12.8,98.1,12.8z M116.9,16.4v-6.4l-5.7-9.6h4.9l3.1,5.7l2.9-5.7h4.7l-5.7,9.6v6.4H116.9z M134.3,16.8
	c-1.2,0-2.3-0.2-3.3-0.6c-1-0.4-1.9-1-2.6-1.8c-0.7-0.8-1.3-1.7-1.7-2.7c-0.4-1-0.6-2.1-0.6-3.4s0.2-2.3,0.6-3.4s1-1.9,1.7-2.7
	c0.8-0.8,1.6-1.3,2.6-1.8c1-0.4,2.1-0.6,3.3-0.6c1.2,0,2.3,0.2,3.3,0.6c1,0.4,1.9,1,2.7,1.8C141,3.1,141.6,4,142,5
	c0.4,1,0.6,2.1,0.6,3.4s-0.2,2.3-0.6,3.4c-0.4,1-1,1.9-1.7,2.7c-0.8,0.8-1.6,1.3-2.7,1.8C136.6,16.6,135.5,16.8,134.3,16.8z
	 M134.3,12.8c0.8,0,1.6-0.2,2.1-0.6c0.6-0.4,1-0.9,1.3-1.6c0.3-0.7,0.5-1.4,0.5-2.2s-0.2-1.6-0.5-2.2c-0.3-0.7-0.8-1.2-1.3-1.6
	c-0.6-0.4-1.3-0.6-2.1-0.6c-0.8,0-1.5,0.2-2.1,0.6c-0.6,0.4-1,0.9-1.3,1.6c-0.3,0.7-0.5,1.4-0.5,2.2s0.2,1.6,0.5,2.2
	c0.3,0.7,0.8,1.2,1.3,1.6C132.8,12.6,133.5,12.8,134.3,12.8z M144.5,10.2V0.4h4.2v9.4c0,0.9,0.2,1.6,0.6,2.2c0.4,0.6,1.1,0.8,2,0.8
	s1.6-0.3,2-0.8c0.4-0.6,0.6-1.3,0.6-2.2V0.4h4.3v9.8c0,1.4-0.3,2.5-0.9,3.6c-0.6,1-1.4,1.8-2.4,2.3c-1,0.5-2.2,0.8-3.6,0.8
	s-2.5-0.3-3.6-0.8c-1-0.5-1.9-1.3-2.4-2.3C144.8,12.8,144.5,11.6,144.5,10.2z M160.9,16.4v-16h6.6c1.7,0,3.1,0.4,4.1,1.3
	c1,0.9,1.6,2.2,1.6,3.9c0,1-0.2,2-0.7,2.7c-0.5,0.8-1.1,1.4-1.8,1.9l3.4,6.1h-4.6l-2.7-5.4H165v5.4H160.9z M165,7.7h2.1
	c0.6,0,1-0.2,1.4-0.5c0.4-0.4,0.5-0.8,0.5-1.4c0-0.6-0.2-1.1-0.5-1.4c-0.3-0.4-0.8-0.5-1.4-0.5h-2V7.7z M178.5,14.5l2.6-3.1
	c0.4,0.4,1,0.9,1.8,1.2c0.7,0.4,1.5,0.6,2.4,0.6c0.4,0,0.8-0.1,1.2-0.3c0.4-0.2,0.6-0.5,0.6-1c0-0.4-0.2-0.8-0.6-1
	c-0.4-0.3-1-0.6-1.8-0.8l-0.9-0.3c-0.7-0.2-1.3-0.5-2-0.9c-0.6-0.4-1.2-0.9-1.6-1.5c-0.4-0.6-0.6-1.3-0.6-2.2c0-1,0.2-1.9,0.7-2.7
	c0.5-0.8,1.2-1.4,2.1-1.8c0.9-0.5,2.1-0.7,3.4-0.7c1.1,0,2,0.1,2.7,0.4c0.8,0.2,1.4,0.5,1.9,0.8s0.9,0.6,1.1,0.9l-2.2,2.7
	c-0.6-0.4-1.1-0.8-1.8-1c-0.6-0.3-1.2-0.4-1.9-0.4c-0.4,0-0.8,0.1-1.2,0.3c-0.4,0.2-0.6,0.5-0.6,0.9c0,0.5,0.2,0.9,0.7,1.1
	c0.4,0.2,1,0.4,1.7,0.7l0.8,0.2c0.5,0.2,1.1,0.4,1.6,0.6c0.6,0.2,1.1,0.6,1.5,0.9c0.5,0.4,0.8,0.9,1.1,1.5c0.3,0.6,0.4,1.3,0.4,2.1
	c0,1-0.3,1.8-0.9,2.6c-0.6,0.8-1.4,1.4-2.4,1.8c-1,0.4-2.1,0.6-3.3,0.6c-1.6,0-2.9-0.2-4-0.6C180.1,15.7,179.2,15.2,178.5,14.5z
	 M205.7,10.8l2.9,2.7c-1.8,2.3-4.2,3.4-7.1,3.4c-1.6,0-3.1-0.4-4.3-1.1c-1.2-0.7-2.2-1.7-2.9-3c-0.7-1.3-1.1-2.7-1.1-4.3
	c0-1.6,0.4-3.1,1.1-4.3c0.7-1.3,1.7-2.3,2.9-3s2.7-1.1,4.3-1.1c1.4,0,2.7,0.2,3.8,0.7c1.2,0.5,2.2,1.3,3,2.4L205.5,6
	c-0.4-0.6-1-1.1-1.6-1.5c-0.6-0.4-1.3-0.6-2.1-0.6c-0.9,0-1.7,0.2-2.3,0.6c-0.6,0.4-1.1,0.9-1.4,1.6c-0.3,0.7-0.5,1.4-0.5,2.2
	c0,0.8,0.2,1.6,0.5,2.3c0.4,0.7,0.8,1.2,1.5,1.6s1.4,0.6,2.2,0.6c0.9,0,1.7-0.2,2.3-0.5C204.6,12,205.1,11.5,205.7,10.8z
	 M209.9,16.4v-16h4.2v5.9h5.9V0.4h4.2v16H220v-6.3h-5.9v6.3H209.9z M226.9,16.4v-16h11.5v3.7h-7.3v2.5h6V10h-6v2.7h7.8v3.7H226.9z
	 M240.9,16.4v-16h6.1c1.6,0,3.1,0.3,4.4,0.9c1.3,0.6,2.3,1.4,3.1,2.6c0.8,1.2,1.1,2.7,1.1,4.6c0,1.8-0.4,3.2-1.1,4.4
	c-0.8,1.2-1.8,2-3.1,2.6c-1.3,0.6-2.8,0.9-4.4,0.9H240.9z M245.1,12.7h1.7c1.4,0,2.4-0.4,3.2-1.2c0.8-0.8,1.2-1.8,1.2-3.1
	c0-1.3-0.4-2.3-1.1-3.1c-0.7-0.8-1.8-1.2-3.3-1.2h-1.7V12.7z M257.5,10.2V0.4h4.2v9.4c0,0.9,0.2,1.6,0.6,2.2c0.4,0.6,1.1,0.8,2,0.8
	s1.6-0.3,2-0.8c0.4-0.6,0.6-1.3,0.6-2.2V0.4h4.3v9.8c0,1.4-0.3,2.5-0.9,3.6c-0.6,1-1.4,1.8-2.4,2.3c-1,0.5-2.2,0.8-3.6,0.8
	c-1.3,0-2.5-0.3-3.6-0.8s-1.9-1.3-2.4-2.3C257.8,12.8,257.5,11.6,257.5,10.2z M273.9,16.4v-16h4.2v12.3h7.4v3.7H273.9z M287.2,16.4
	v-16h11.5v3.7h-7.3v2.5h6V10h-6v2.7h7.8v3.7H287.2z"/>
</svg>
