<svg fill="none" height="252" viewBox="0 0 305 252" width="305" xmlns="http://www.w3.org/2000/svg" xmlns:xlink="http://www.w3.org/1999/xlink"><linearGradient id="a" gradientUnits="userSpaceOnUse" x1="-1.79311" x2="374.709" y1="250.173" y2="247.817"><stop offset=".238363" stop-color="#00ceed"/><stop offset=".473958" stop-color="#0076bf"/><stop offset=".733675" stop-color="#00168d"/></linearGradient><clipPath id="b"><path d="m175.4 194.251h39.2736v35.8585h-39.2736z"/></clipPath><clipPath id="c"><path d="m175.4 194.351h39.2736v35.8585h-39.2736z"/></clipPath><path d="m226.793 189.9v44.917" stroke="#fff" stroke-width=".539001"/><g clip-path="url(#b)"><path d="m192.673 195.881.017-.028-16.715 30.023c-.23.42-.349.887-.349 1.361 0 1.517 1.199 2.751 2.671 2.751h33.557c1.472 0 2.67-1.234 2.67-2.751 0-.514-.137-1.014-.398-1.447l.022.038-16.802-29.99.013.022c-.471-.875-1.367-1.419-2.339-1.419s-1.88.551-2.348 1.44" fill="#fff"/><path d="m209.835 221.622c.333 0 .606.281.606.624 0 .344-.273.624-.606.624s-.606-.28-.606-.624c0-.343.273-.624.606-.624zm0 1.111c.241 0 .432-.199.432-.487s-.191-.486-.432-.486-.431.198-.431.486.188.487.431.487zm-.243-.836h.254c.171 0 .269.052.269.208 0 .126-.074.176-.178.185l.178.302h-.148l-.162-.294h-.068v.294h-.145zm.263.284c.069 0 .117-.011.117-.091 0-.071-.074-.08-.131-.08h-.102v.171z" fill="#007a53"/><path d="m209.302 220.195-13.365-23.81c-.197-.364-.573-.61-1.004-.61-.432 0-.813.25-1.01.618l-9.405 16.909c2.976.172 4.413-1.204 5.803-2.538 1.238-1.183 2.514-2.408 4.645-2.408 2.75 0 4.156 2.637 4.215 2.758.191.395.035.879-.348 1.078-.385.198-.837.042-1.05-.353-.082-.149-1.119-1.872-2.819-1.872-1.515 0-2.426.872-3.578 1.977-1.515 1.452-3.755 2.893-7.487 2.465l-3.239 5.824c-.094.172-.146.37-.146.58 0 .653.513 1.182 1.146 1.182h13.462c-.156-.226-1.776-2.582-1.776-2.582-.682-1.086-.121-1.987.063-2.273l1.957-3.233c.111-.183.285-.311.487-.359.204-.047.413-.013.591.102.365.236.478.734.248 1.11l-1.976 3.263c-.142.224-.181.306-.041.537.373.614 2.18 3.377 2.217 3.435h11.436c.633 0 1.146-.529 1.146-1.182 0-.227-.063-.44-.17-.62m-5.395-6.499c-.211.225-.472.276-.72.137-.213-.12-.656-.321-1.226-.321-.571 0-1.389.185-1.969.895 0 0-2.698 3.498-2.7 3.498-.043.063-.211.187-.406.197-.148.009-.281-.052-.388-.174-.099-.114-.138-.244-.138-.364 0-.121.036-.227.084-.313 1.192-2.084 1.781-3.113 1.783-3.117.971-1.631 2.191-2.055 3.269-2.095-.096-.359-.511-1.889-.511-1.893-.041-.168-.102-.46.165-.632.322-.211.59-.017.692.155l2.128 3.33c.096.153.119.496-.063.693" fill="#007a53"/><path d="m201.844 209.671c-.104-.174-.37-.367-.693-.155-.264.174-.205.464-.164.632 0 .002.414 1.532.511 1.893-1.08.04-2.3.463-3.269 2.095 0 .004-.591 1.032-1.783 3.116-.049.084-.084.195-.084.313 0 .119.037.25.137.365.106.122.239.181.389.173.197-.009.363-.135.406-.196l2.7-3.498c.58-.71 1.369-.895 1.969-.895s1.013.2 1.226.321c.248.139.509.087.72-.138.183-.196.159-.542.063-.693l-2.128-3.33z" fill="#ffa400"/><path d="m191.388 211.947c1.152-1.105 2.062-1.977 3.578-1.977 1.7 0 2.737 1.723 2.819 1.872.213.395.665.552 1.05.353.383-.2.539-.685.348-1.078-.059-.12-1.467-2.757-4.215-2.757-2.13 0-3.407 1.225-4.645 2.408-1.39 1.334-2.827 2.71-5.803 2.538l-.617 1.109c3.731.427 5.972-1.014 7.487-2.466" fill="#ffa400"/><path d="m194.716 218.027 1.976-3.263c.23-.376.117-.874-.248-1.111-.178-.114-.387-.15-.591-.101-.202.048-.376.176-.487.359l-1.957 3.233c-.184.286-.745 1.187-.063 2.272 0 0 1.62 2.359 1.776 2.582h1.768c-.037-.055-1.844-2.82-2.217-3.435-.138-.231-.101-.313.041-.536" fill="#ffa400"/><g fill="#007a53"><path d="m179.81 223.336h.75l.885 2.366h-.672l-.171-.505h-.863l-.181.505h-.622l.872-2.366zm.374.488h-.008l-.296.926h.576z"/><path d="m183.601 224.803c0 .647-.408.939-1.008.939s-1.007-.292-1.007-.939v-1.469h.613v1.363c0 .311.081.576.394.576s.395-.265.395-.576v-1.363h.613z"/><path d="m183.936 225.118c.158.088.378.157.632.157.194 0 .378-.04.378-.231 0-.441-1.086-.162-1.086-1.025 0-.57.539-.725 1-.725.221 0 .437.034.593.088l-.039.488c-.157-.074-.335-.109-.509-.109-.156 0-.411.014-.411.222 0 .383 1.085.126 1.085.981 0 .614-.5.78-1.011.78-.215 0-.48-.034-.685-.101l.051-.523z"/><path d="m186.269 223.803h-.566v-.467h1.744v.467h-.567v1.899h-.613v-1.899z"/><path d="m187.688 223.336h1.093c.407 0 .74.191.74.597 0 .315-.144.525-.44.598v.007c.198.054.211.235.326.523l.224.645h-.639l-.132-.427c-.126-.407-.203-.51-.431-.51h-.128v.935h-.613v-2.366zm.611.983h.161c.198 0 .448-.008.448-.275 0-.221-.214-.262-.448-.262h-.161z"/><path d="m190.585 223.336h.75l.885 2.366h-.672l-.171-.505h-.863l-.181.505h-.623l.873-2.366zm.374.488h-.008l-.296.926h.576z"/><path d="m192.394 223.336h.613v1.899h.948v.467h-1.56v-2.366z"/><path d="m194.188 223.336h.613v2.366h-.613z"/><path d="m195.811 223.336h.75l.885 2.366h-.672l-.171-.505h-.863l-.181.505h-.622l.872-2.366zm.374.488h-.008l-.296.926h.576z"/><path d="m197.564 223.336h.78l.776 1.607h.007l-.009-1.607h.559v2.366h-.759l-.804-1.618h-.007l.02 1.618h-.563z"/><path d="m201.172 223.336h.965l.487 1.574h.007l.509-1.574h.928v2.366h-.6l.009-1.818h-.007l-.585 1.818h-.563l-.559-1.818h-.008l.013 1.818h-.598v-2.366z"/><path d="m205.098 223.336h.75l.885 2.366h-.672l-.17-.505h-.863l-.182.505h-.622l.872-2.366zm.374.488h-.007l-.296.926h.576z"/><path d="m206.907 223.336h.835c.8 0 1.36.258 1.36 1.174s-.576 1.194-1.36 1.194h-.835v-2.366zm.613 1.899h.237c.458 0 .715-.245.715-.716s-.267-.716-.715-.716h-.237z"/><path d="m209.385 223.336h1.619v.448h-1.008v.489h.952v.448h-.952v.537h1.043v.448h-1.656v-2.366z"/><path d="m185.481 226.244h.75l.885 2.366h-.672l-.171-.505h-.863l-.181.505h-.623l.873-2.366zm.374.489h-.008l-.296.925h.576z"/><path d="m187.299 226.244h.78l.776 1.607h.007l-.009-1.607h.559v2.366h-.761l-.804-1.618h-.007l.02 1.618h-.563v-2.366z"/><path d="m189.784 226.244h.835c.8 0 1.36.258 1.36 1.174s-.576 1.194-1.36 1.194h-.835v-2.366zm.611 1.899h.237c.458 0 .715-.244.715-.716 0-.471-.266-.715-.715-.715h-.237z"/><path d="m194.286 226.204c.758 0 1.152.464 1.152 1.225 0 .762-.402 1.223-1.152 1.223s-1.152-.471-1.152-1.223.395-1.225 1.152-1.225zm0 1.981c.372 0 .521-.366.521-.756 0-.41-.149-.755-.521-.755s-.52.345-.52.755c0 .411.148.756.52.756z"/><path d="m195.396 226.244h.626l.296 1.819h.008l.309-1.819h.776l.322 1.819h.008l.3-1.819h.596l-.513 2.366h-.787l-.326-1.818h-.008l-.301 1.818h-.793l-.509-2.366z"/><path d="m198.818 226.244h.779l.776 1.607h.006l-.009-1.607h.559v2.366h-.761l-.802-1.618h-.007l.02 1.618h-.563v-2.366z"/><path d="m201.287 226.244h1.62v.449h-1.007v.488h.95v.449h-.95v.536h1.042v.448h-1.655v-2.366z"/><path d="m203.181 226.244h.835c.8 0 1.36.258 1.36 1.174s-.576 1.194-1.36 1.194h-.835v-2.366zm.613 1.899h.237c.458 0 .715-.244.715-.716 0-.471-.267-.715-.715-.715h-.237z"/></g></g><g fill="#fff"><path d="m284.362 214.009h1.224v16.126h-1.224zm-4.097 8.058v2.971c0 .512-.081 1.024-.245 1.52-.162.496-.405.947-.722 1.343-.316.394-.715.715-1.185.955-.469.239-1.02.36-1.638.36-.48 0-.954-.086-1.409-.256-.453-.168-.857-.45-1.204-.836-.348-.386-.629-.897-.838-1.518-.209-.623-.317-1.397-.317-2.303 0-.828.102-1.555.305-2.161.201-.606.475-1.113.815-1.508.339-.392.733-.69 1.171-.883.44-.192.913-.291 1.405-.291.802 0 1.537.239 2.186.711s1.212 1.11 1.677 1.896zm.027-1.412c-.142-.231-.313-.463-.51-.691-.248-.289-.547-.556-.889-.794-.343-.24-.733-.438-1.164-.59-.432-.152-.917-.228-1.444-.228-.654 0-1.277.134-1.851.398-.574.263-1.088.657-1.526 1.167-.439.511-.789 1.141-1.043 1.873s-.383 1.577-.383 2.514c0 1.063.125 1.983.37 2.738.246.757.593 1.388 1.032 1.875.439.489.967.85 1.566 1.074.597.223 1.254.336 1.953.336.909 0 1.707-.227 2.37-.675.594-.403 1.095-.934 1.492-1.583v1.455c0 .779-.091 1.45-.269 1.995-.178.54-.428.983-.742 1.315-.314.33-.699.571-1.144.717-.449.148-.96.223-1.518.223-.731 0-1.415-.087-2.029-.258-.617-.173-1.15-.379-1.584-.612l-.072-.039-.327 1.01.05.026c.443.239 1.009.463 1.682.669.676.207 1.426.312 2.234.312 1.542 0 2.765-.446 3.635-1.325.869-.88 1.31-2.229 1.31-4.01v-11.006h-.933l-.267 2.114zm-11.768 3.573v1.213c0 .463-.094.926-.279 1.373-.186.449-.456.861-.803 1.225-.348.363-.782.661-1.292.886-.509.225-1.105.338-1.772.338-.339 0-.667-.047-.975-.139-.306-.091-.576-.235-.805-.426-.228-.19-.409-.433-.538-.723s-.195-.64-.195-1.04c0-.937.305-1.628.906-2.055.609-.433 1.627-.652 3.027-.652zm-3.01-5.879c-.808 0-1.555.1-2.222.299-.665.199-1.22.429-1.649.683l-.047.028.303.938.073-.04c.451-.249.968-.455 1.535-.611.568-.156 1.244-.235 2.007-.235.971 0 1.726.226 2.24.671.51.443.769 1.233.769 2.344v.739h-2.726c-1.665 0-2.944.316-3.805.939-.867.627-1.306 1.579-1.306 2.83 0 .546.093 1.034.277 1.452.185.418.445.776.775 1.067.329.289.723.509 1.172.655.446.144.932.217 1.442.217.986 0 1.851-.219 2.569-.651.661-.398 1.209-.954 1.627-1.651l.266 2.112h.91v-7.709c0-1.246-.353-2.247-1.048-2.977-.696-.73-1.761-1.1-3.162-1.1z"/><path d="m243.019 199.15c-.83.667-.964 1.893-.298 2.724l10.446 13.047c.666.831 1.89.966 2.719.299.83-.668.964-1.894.298-2.725l-10.446-13.047c-.381-.475-.944-.722-1.511-.722-.425 0-.853.138-1.207.424"/><path d="m238.733 220.884c-.176 1.052.539 2.055 1.588 2.231l12.092 2.021c1.05.175 2.051-.542 2.226-1.594.176-1.051-.54-2.055-1.589-2.23l-12.091-2.022c-.106-.018-.213-.026-.318-.026-.926 0-1.751.674-1.908 1.619"/><path d="m258.403 190.277c-1.057.124-1.82 1.09-1.698 2.149l1.926 16.616c.123 1.059 1.088 1.824 2.144 1.701 1.057-.124 1.821-1.09 1.698-2.149l-1.926-16.615c-.115-.984-.956-1.715-1.922-1.715-.074 0-.148.005-.223.013"/><path d="m269.95 195.86-4.574 12.559c-.364 1.002.154 2.12 1.153 2.485 1.001.365 2.117-.154 2.481-1.157l4.574-12.559c.365-1.001-.154-2.12-1.154-2.485-.217-.079-.439-.116-.658-.116-.79 0-1.536.489-1.822 1.273z"/><path d="m277.331 204.986-5.283 5.84c-.714.79-.654 2.021.134 2.737s2.017.656 2.732-.134l5.282-5.841c.714-.789.654-2.021-.134-2.737-.368-.335-.833-.5-1.297-.5-.527 0-1.054.214-1.434.634"/></g><path d="m226.793 190v44.917" stroke="#fff" stroke-width=".539001"/><g clip-path="url(#c)"><path d="m192.673 195.981.017-.028-16.715 30.023c-.23.42-.349.887-.349 1.36 0 1.518 1.199 2.752 2.671 2.752h33.557c1.472 0 2.67-1.234 2.67-2.752 0-.513-.137-1.013-.398-1.446l.022.038-16.802-29.991.013.023c-.471-.876-1.367-1.419-2.339-1.419s-1.88.551-2.348 1.44" fill="#fff"/><path d="m209.835 221.723c.333 0 .606.28.606.624 0 .343-.273.624-.606.624s-.606-.281-.606-.624c0-.344.273-.624.606-.624zm0 1.11c.241 0 .432-.198.432-.486s-.191-.487-.432-.487-.431.199-.431.487.188.486.431.486zm-.243-.836h.254c.171 0 .269.052.269.208 0 .126-.074.176-.178.186l.178.301h-.148l-.162-.294h-.068v.294h-.145zm.263.285c.069 0 .117-.012.117-.092 0-.07-.074-.08-.131-.08h-.102v.172z" fill="#007a53"/><path d="m209.302 220.295-13.365-23.81c-.197-.364-.573-.61-1.004-.61-.432 0-.813.249-1.01.618l-9.405 16.909c2.976.172 4.413-1.204 5.803-2.538 1.238-1.183 2.514-2.408 4.645-2.408 2.75 0 4.156 2.637 4.215 2.757.191.395.035.88-.348 1.079-.385.198-.837.042-1.05-.353-.082-.149-1.119-1.873-2.819-1.873-1.515 0-2.426.873-3.578 1.977-1.515 1.453-3.755 2.893-7.487 2.466l-3.239 5.824c-.094.172-.146.37-.146.58 0 .653.513 1.181 1.146 1.181h13.462c-.156-.225-1.776-2.581-1.776-2.581-.682-1.086-.121-1.987.063-2.273l1.957-3.233c.111-.183.285-.311.487-.359.204-.047.413-.013.591.101.365.237.478.735.248 1.111l-1.976 3.263c-.142.224-.181.306-.041.537.373.614 2.18 3.377 2.217 3.434h11.436c.633 0 1.146-.528 1.146-1.181 0-.227-.063-.441-.17-.62m-5.395-6.5c-.211.226-.472.277-.72.138-.213-.12-.656-.321-1.226-.321-.571 0-1.389.185-1.969.895 0 0-2.698 3.498-2.7 3.498-.043.063-.211.187-.406.197-.148.009-.281-.052-.388-.174-.099-.115-.138-.244-.138-.365 0-.12.036-.227.084-.312 1.192-2.084 1.781-3.113 1.783-3.117.971-1.631 2.191-2.055 3.269-2.095-.096-.359-.511-1.889-.511-1.893-.041-.168-.102-.46.165-.632.322-.212.59-.017.692.155l2.128 3.33c.096.153.119.496-.063.693" fill="#007a53"/><path d="m201.844 209.771c-.104-.174-.37-.367-.693-.155-.264.174-.205.464-.164.632 0 .002.414 1.532.511 1.893-1.08.04-2.3.464-3.269 2.095 0 .004-.591 1.033-1.783 3.116-.049.084-.084.195-.084.313 0 .119.037.25.137.365.106.122.239.181.389.173.197-.009.363-.135.406-.196l2.7-3.498c.58-.71 1.369-.895 1.969-.895s1.013.2 1.226.321c.248.139.509.087.72-.138.183-.196.159-.542.063-.692l-2.128-3.33z" fill="#ffa400"/><path d="m191.388 212.047c1.152-1.105 2.062-1.977 3.578-1.977 1.7 0 2.737 1.724 2.819 1.872.213.395.665.552 1.05.353.383-.2.539-.685.348-1.078-.059-.12-1.467-2.757-4.215-2.757-2.13 0-3.407 1.225-4.645 2.408-1.39 1.334-2.827 2.71-5.803 2.538l-.617 1.109c3.731.427 5.972-1.014 7.487-2.466" fill="#ffa400"/><path d="m194.717 218.127 1.976-3.263c.229-.376.116-.874-.249-1.111-.177-.114-.387-.15-.59-.101-.202.048-.376.176-.487.359l-1.958 3.233c-.183.286-.744 1.187-.063 2.272 0 0 1.621 2.359 1.776 2.582h1.769c-.037-.055-1.845-2.82-2.217-3.435-.139-.23-.102-.312.041-.536" fill="#ffa400"/><g fill="#007a53"><path d="m179.81 223.436h.75l.885 2.367h-.672l-.171-.506h-.863l-.181.506h-.622l.872-2.367zm.374.489h-.008l-.296.925h.576z"/><path d="m183.601 224.904c0 .647-.408.939-1.008.939s-1.007-.292-1.007-.939v-1.47h.613v1.363c0 .311.081.576.394.576s.395-.265.395-.576v-1.363h.613z"/><path d="m183.936 225.218c.157.088.378.157.631.157.195 0 .378-.04.378-.231 0-.441-1.085-.162-1.085-1.025 0-.57.539-.725 1-.725.22 0 .437.034.593.088l-.039.488c-.158-.074-.336-.108-.51-.108-.155 0-.411.013-.411.221 0 .384 1.085.126 1.085.981 0 .614-.5.78-1.011.78-.215 0-.479-.034-.685-.101l.052-.523z"/><path d="m186.27 223.904h-.567v-.468h1.745v.468h-.567v1.899h-.613v-1.899z"/><path d="m187.688 223.436h1.093c.407 0 .74.191.74.598 0 .314-.144.524-.44.597v.008c.198.053.211.234.326.522l.224.645h-.639l-.132-.427c-.126-.407-.203-.51-.431-.51h-.128v.935h-.613v-2.366zm.611.983h.161c.198 0 .448-.008.448-.275 0-.221-.214-.261-.448-.261h-.161z"/><path d="m190.585 223.436h.75l.885 2.367h-.672l-.171-.506h-.863l-.181.506h-.623l.873-2.367zm.374.489h-.008l-.296.925h.576z"/><path d="m192.394 223.436h.613v1.899h.948v.468h-1.56v-2.367z"/><path d="m194.188 223.436h.613v2.367h-.613z"/><path d="m195.811 223.436h.75l.885 2.367h-.672l-.171-.506h-.863l-.181.506h-.622l.872-2.367zm.374.489h-.008l-.296.925h.576z"/><path d="m197.564 223.436h.78l.776 1.607h.007l-.009-1.607h.56v2.367h-.76l-.804-1.619h-.007l.02 1.619h-.563z"/><path d="m201.172 223.436h.965l.487 1.575h.008l.509-1.575h.928v2.367h-.6l.009-1.819h-.007l-.586 1.819h-.563l-.559-1.819h-.007l.013 1.819h-.599v-2.367z"/><path d="m205.098 223.436h.75l.885 2.367h-.672l-.171-.506h-.863l-.181.506h-.622l.872-2.367zm.374.489h-.008l-.296.925h.576z"/><path d="m206.907 223.436h.835c.8 0 1.359.258 1.359 1.174s-.576 1.194-1.359 1.194h-.835v-2.366zm.613 1.899h.237c.457 0 .715-.244.715-.716 0-.471-.267-.715-.715-.715h-.237z"/><path d="m209.385 223.436h1.619v.449h-1.008v.488h.952v.449h-.952v.536h1.043v.448h-1.656v-2.366z"/><path d="m185.48 226.344h.75l.885 2.367h-.672l-.17-.506h-.863l-.182.506h-.622l.872-2.367zm.374.489h-.007l-.297.926h.576z"/><path d="m187.299 226.344h.78l.776 1.607h.007l-.009-1.607h.559v2.367h-.761l-.804-1.618h-.007l.02 1.618h-.563v-2.367z"/><path d="m189.784 226.344h.835c.8 0 1.36.258 1.36 1.174s-.576 1.195-1.36 1.195h-.835v-2.367zm.611 1.899h.237c.458 0 .715-.244.715-.715 0-.472-.266-.716-.715-.716h-.237z"/><path d="m194.287 226.304c.757 0 1.152.464 1.152 1.225 0 .762-.402 1.224-1.152 1.224s-1.152-.472-1.152-1.224.394-1.225 1.152-1.225zm0 1.981c.372 0 .52-.366.52-.756 0-.41-.148-.755-.52-.755-.373 0-.521.345-.521.755 0 .411.148.756.521.756z"/><path d="m195.396 226.344h.626l.296 1.819h.008l.309-1.819h.776l.322 1.819h.008l.3-1.819h.596l-.513 2.367h-.787l-.326-1.819h-.008l-.301 1.819h-.793l-.509-2.367z"/><path d="m198.818 226.344h.779l.776 1.607h.006l-.009-1.607h.559v2.367h-.761l-.802-1.618h-.007l.02 1.618h-.563v-2.367z"/><path d="m201.287 226.344h1.62v.449h-1.007v.488h.95v.449h-.95v.536h1.042v.449h-1.655v-2.367z"/><path d="m203.181 226.344h.835c.8 0 1.36.258 1.36 1.174s-.576 1.195-1.36 1.195h-.835v-2.367zm.613 1.899h.237c.458 0 .715-.244.715-.715 0-.472-.267-.716-.715-.716h-.237z"/></g></g><path d="m300 250-300-20v20z" fill="#f9dd3e"/><path d="m170.713 250h129.287l-300-11v11z" fill="url(#a)"/></svg>