<svg width="124" height="66" viewBox="0 0 124 66" fill="none" xmlns="http://www.w3.org/2000/svg">
<path d="M4.09342 15.8007V12.105H0.480436V8.46444H4.09342V4.71356H7.8443V8.46444H11.4849V12.105H7.8443V15.8007H4.09342ZM13.8442 16.7384L16.7953 13.1806C17.3101 13.6954 17.9812 14.1643 18.8086 14.5872C19.6544 15.0101 20.5646 15.2215 21.5391 15.2215C22.0355 15.2215 22.5136 15.1204 22.9732 14.9182C23.4329 14.7159 23.6627 14.3298 23.6627 13.7598C23.6627 13.2817 23.4145 12.8864 22.9181 12.5739C22.4216 12.2429 21.7137 11.9303 20.7944 11.6361L19.7739 11.3052C19.0201 11.0478 18.2662 10.7076 17.5124 10.2847C16.7769 9.84344 16.161 9.28265 15.6645 8.60234C15.1865 7.92203 14.9474 7.08544 14.9474 6.09256C14.9474 4.95259 15.214 3.93213 15.7473 3.03118C16.2989 2.13023 17.1079 1.42235 18.1743 0.90752C19.2407 0.374305 20.537 0.107698 22.0631 0.107698C23.2766 0.107698 24.3246 0.245599 25.2072 0.5214C26.1081 0.797199 26.8528 1.11897 27.4412 1.4867C28.0296 1.85443 28.4616 2.18539 28.7374 2.47958L26.2552 5.6237C25.6117 5.14565 24.9406 4.75953 24.2419 4.46534C23.5432 4.15277 22.8261 3.99648 22.0907 3.99648C21.6126 3.99648 21.1529 4.1068 20.7117 4.32744C20.2888 4.52969 20.0773 4.88823 20.0773 5.40306C20.0773 5.97305 20.3347 6.38675 20.8496 6.64416C21.3644 6.90157 22.0171 7.15899 22.8077 7.4164L23.6903 7.6922C24.3154 7.87607 24.9406 8.11509 25.5657 8.40928C26.2093 8.68508 26.7976 9.04362 27.3309 9.4849C27.8641 9.92618 28.287 10.487 28.5995 11.1673C28.9305 11.8292 29.096 12.6474 29.096 13.6219C29.096 14.7435 28.7558 15.7456 28.0755 16.6281C27.4136 17.5107 26.5127 18.2002 25.3727 18.6966C24.2511 19.1931 23.0008 19.4413 21.6218 19.4413C19.7831 19.4413 18.2387 19.1931 16.9884 18.6966C15.7565 18.2002 14.7084 17.5475 13.8442 16.7384ZM36.1797 19V4.87904H30.5258V0.604139H46.7153V4.87904H41.1165V19H36.1797ZM48.9204 19V0.604139H56.5325C58.4999 0.604139 60.0811 1.11897 61.2762 2.14862C62.4714 3.15989 63.0689 4.6584 63.0689 6.64416C63.0689 7.83929 62.8023 8.88733 62.2691 9.78828C61.7359 10.6892 61.028 11.4063 60.1455 11.9395L64.0894 19H58.8492L55.7327 12.7393H53.6917V19H48.9204ZM53.6917 8.90572H56.0636C56.7072 8.90572 57.2312 8.71266 57.6357 8.32654C58.0402 7.92203 58.2424 7.38882 58.2424 6.7269C58.2424 6.02821 58.0494 5.47661 57.6633 5.0721C57.2771 4.66759 56.7347 4.46534 56.036 4.46534H53.6917V8.90572ZM74.6879 19.4413C73.3089 19.4413 72.031 19.2023 70.8543 18.7242C69.6959 18.2461 68.6846 17.575 67.8205 16.7109C66.9747 15.8283 66.3128 14.7986 65.8347 13.6219C65.3566 12.4452 65.1176 11.1581 65.1176 9.7607C65.1176 8.36331 65.3566 7.07625 65.8347 5.8995C66.3128 4.72275 66.9747 3.70229 67.8205 2.83812C68.6846 1.97395 69.6959 1.30283 70.8543 0.824779C72.031 0.346725 73.3089 0.107698 74.6879 0.107698C76.0669 0.107698 77.3356 0.346725 78.4939 0.824779C79.6707 1.30283 80.6911 1.97395 81.5553 2.83812C82.4195 3.70229 83.0814 4.72275 83.5411 5.8995C84.0191 7.07625 84.2581 8.36331 84.2581 9.7607C84.2581 11.1581 84.0191 12.4452 83.5411 13.6219C83.0814 14.7986 82.4195 15.8283 81.5553 16.7109C80.6911 17.575 79.6707 18.2461 78.4939 18.7242C77.3356 19.2023 76.0669 19.4413 74.6879 19.4413ZM74.6879 14.863C75.6624 14.863 76.4806 14.6332 77.1425 14.1735C77.8228 13.7138 78.3376 13.0979 78.687 12.3256C79.0363 11.5534 79.211 10.6984 79.211 9.7607C79.211 8.82298 79.0363 7.968 78.687 7.19576C78.3376 6.42352 77.8228 5.80757 77.1425 5.3479C76.4806 4.88823 75.6624 4.6584 74.6879 4.6584C73.7318 4.6584 72.9136 4.88823 72.2333 5.3479C71.5713 5.80757 71.0565 6.42352 70.6888 7.19576C70.3394 7.968 70.1648 8.82298 70.1648 9.7607C70.1648 10.6984 70.3394 11.5534 70.6888 12.3256C71.0565 13.0979 71.5713 13.7138 72.2333 14.1735C72.9136 14.6332 73.7318 14.863 74.6879 14.863ZM86.8429 19V0.604139H91.2833L98.3438 10.8639V0.604139H103.17V19H99.0057L91.6694 8.43686V19H86.8429ZM115.855 12.2705V8.49202H123.412V16.7936C122.308 17.7313 121.04 18.4116 119.606 18.8345C118.171 19.239 116.746 19.4413 115.331 19.4413C113.345 19.4413 111.635 19.046 110.201 18.2553C108.767 17.4647 107.663 16.3523 106.891 14.9182C106.137 13.4656 105.76 11.7465 105.76 9.7607C105.76 7.88526 106.165 6.22127 106.974 4.76872C107.783 3.31617 108.905 2.1762 110.339 1.3488C111.791 0.521398 113.455 0.107698 115.331 0.107698C116.857 0.107698 118.282 0.365112 119.606 0.87994C120.948 1.37638 122.069 2.21297 122.97 3.38972L119.799 6.589C119.229 6.01901 118.613 5.55015 117.951 5.18242C117.307 4.81469 116.553 4.63082 115.689 4.63082C114.641 4.63082 113.749 4.86985 113.014 5.3479C112.278 5.80757 111.718 6.43271 111.332 7.22334C110.964 7.99558 110.78 8.86895 110.78 9.84344C110.78 11.4063 111.23 12.6658 112.131 13.6219C113.032 14.5596 114.227 15.0285 115.717 15.0285C116.324 15.0285 116.903 14.9549 117.454 14.8078C118.006 14.6424 118.539 14.3849 119.054 14.0356V12.2705H115.855ZM0.97358 40V25.6061H4.79324V36.6335H11.4615V40H0.97358ZM19.5759 40.3453C18.4969 40.3453 17.497 40.1583 16.5763 39.7842C15.6699 39.4101 14.8786 38.885 14.2025 38.2089C13.5407 37.5183 13.0228 36.7126 12.6487 35.7919C12.2746 34.8712 12.0876 33.8641 12.0876 32.7707C12.0876 31.6773 12.2746 30.6702 12.6487 29.7495C13.0228 28.8288 13.5407 28.0303 14.2025 27.3541C14.8786 26.6779 15.6699 26.1528 16.5763 25.7788C17.497 25.4047 18.4969 25.2177 19.5759 25.2177C20.6549 25.2177 21.6476 25.4047 22.5539 25.7788C23.4747 26.1528 24.2731 26.6779 24.9493 27.3541C25.6255 28.0303 26.1434 28.8288 26.5031 29.7495C26.8771 30.6702 27.0641 31.6773 27.0641 32.7707C27.0641 33.8641 26.8771 34.8712 26.5031 35.7919C26.1434 36.7126 25.6255 37.5183 24.9493 38.2089C24.2731 38.885 23.4747 39.4101 22.5539 39.7842C21.6476 40.1583 20.6549 40.3453 19.5759 40.3453ZM19.5759 36.763C20.3384 36.763 20.9786 36.5832 21.4965 36.2235C22.0288 35.8638 22.4316 35.3819 22.705 34.7776C22.9783 34.1734 23.115 33.5044 23.115 32.7707C23.115 32.037 22.9783 31.368 22.705 30.7638C22.4316 30.1595 22.0288 29.6776 21.4965 29.3179C20.9786 28.9582 20.3384 28.7784 19.5759 28.7784C18.8278 28.7784 18.1876 28.9582 17.6553 29.3179C17.1373 29.6776 16.7345 30.1595 16.4468 30.7638C16.1734 31.368 16.0368 32.037 16.0368 32.7707C16.0368 33.5044 16.1734 34.1734 16.4468 34.7776C16.7345 35.3819 17.1373 35.8638 17.6553 36.2235C18.1876 36.5832 18.8278 36.763 19.5759 36.763ZM29.0866 40V25.6061H32.561L38.0854 33.6339V25.6061H41.8619V40H38.6034L32.8631 31.7349V40H29.0866ZM51.7869 34.7345V31.778H57.6998V38.2736C56.8366 39.0073 55.8439 39.5396 54.7218 39.8705C53.5996 40.187 52.4846 40.3453 51.3769 40.3453C49.8231 40.3453 48.4852 40.036 47.363 39.4173C46.2408 38.7987 45.3776 37.9283 44.7734 36.8062C44.1835 35.6696 43.8886 34.3245 43.8886 32.7707C43.8886 31.3033 44.2051 30.0013 44.8381 28.8647C45.4711 27.7282 46.3487 26.8362 47.4709 26.1888C48.6074 25.5414 49.9094 25.2177 51.3769 25.2177C52.571 25.2177 53.6859 25.4191 54.7218 25.8219C55.772 26.2104 56.6496 26.865 57.3545 27.7857L54.8728 30.289C54.4268 29.843 53.9449 29.4762 53.427 29.1884C52.9234 28.9007 52.3336 28.7568 51.6574 28.7568C50.8374 28.7568 50.1396 28.9438 49.5642 29.3179C48.9887 29.6776 48.5499 30.1667 48.2478 30.7853C47.96 31.3896 47.8162 32.0729 47.8162 32.8354C47.8162 34.0583 48.1686 35.0438 48.8736 35.7919C49.5785 36.5256 50.5137 36.8925 51.679 36.8925C52.1538 36.8925 52.6069 36.8349 53.0385 36.7198C53.4701 36.5904 53.8873 36.3889 54.2902 36.1156V34.7345H51.7869ZM60.0446 35.7056V32.2096H67.166V35.7056H60.0446ZM70.7284 40V28.951H66.3045V25.6061H78.972V28.951H74.5912V40H70.7284ZM80.6973 40V25.6061H91.0558V28.9079H84.517V31.1306H89.8904V34.2381H84.517V36.6983H91.5089V40H80.6973ZM93.4894 40V25.6061H99.4455C100.985 25.6061 102.222 26.009 103.157 26.8146C104.092 27.6059 104.56 28.7784 104.56 30.3322C104.56 31.2673 104.351 32.0873 103.934 32.7923C103.517 33.4972 102.963 34.0583 102.272 34.4755L105.358 40H101.258L98.8197 35.1013H97.2227V40H93.4894ZM97.2227 32.1017H99.0786C99.5822 32.1017 99.9922 31.9507 100.309 31.6485C100.625 31.332 100.783 30.9148 100.783 30.3969C100.783 29.8502 100.632 29.4186 100.33 29.1021C100.028 28.7856 99.6037 28.6273 99.057 28.6273H97.2227V32.1017ZM106.738 40L107.407 25.6061H111.054L114.55 31.8859L117.981 25.6061H121.65L122.319 40H118.456L118.111 31.5622L115.586 36.4825H113.493L110.687 31.5622L110.407 40H106.738ZM1.59807 65V46.6041H9.21015C11.1775 46.6041 12.7588 47.119 13.9539 48.1486C15.149 49.1599 15.7466 50.6584 15.7466 52.6442C15.7466 53.8393 15.48 54.8873 14.9468 55.7883C14.4136 56.6892 13.7057 57.4063 12.8231 57.9395L16.7671 65H11.5269L8.41033 58.7393H6.36941V65H1.59807ZM6.36941 54.9057H8.74129C9.38483 54.9057 9.90885 54.7127 10.3134 54.3265C10.7179 53.922 10.9201 53.3888 10.9201 52.7269C10.9201 52.0282 10.7271 51.4766 10.3409 51.0721C9.95481 50.6676 9.41241 50.4653 8.71371 50.4653H6.36941V54.9057ZM18.9164 65V46.6041H32.1548V50.8239H23.798V53.6646H30.6655V57.6361H23.798V60.7803H32.734V65H18.9164ZM39.8158 65V50.879H34.1619V46.6041H50.3513V50.879H44.7526V65H39.8158ZM52.4461 57.8292V46.6041H57.3278V57.3879C57.3278 58.3992 57.5576 59.2266 58.0173 59.8701C58.4953 60.5137 59.2768 60.8354 60.3616 60.8354C61.4464 60.8354 62.2186 60.5137 62.6783 59.8701C63.138 59.2082 63.3678 58.3808 63.3678 57.3879V46.6041H68.3046V57.8292C68.3046 59.3921 67.9645 60.7527 67.2842 61.911C66.6038 63.051 65.6661 63.9336 64.471 64.5587C63.2942 65.1655 61.9336 65.4689 60.3892 65.4689C58.8447 65.4689 57.4749 65.1655 56.2797 64.5587C55.0846 63.952 54.1469 63.0786 53.4666 61.9386C52.7863 60.7803 52.4461 59.4105 52.4461 57.8292ZM71.4908 65V46.6041H79.1028C81.0702 46.6041 82.6515 47.119 83.8466 48.1486C85.0417 49.1599 85.6393 50.6584 85.6393 52.6442C85.6393 53.8393 85.3727 54.8873 84.8395 55.7883C84.3063 56.6892 83.5984 57.4063 82.7158 57.9395L86.6598 65H81.4196L78.303 58.7393H76.2621V65H71.4908ZM76.2621 54.9057H78.634C79.2775 54.9057 79.8015 54.7127 80.206 54.3265C80.6105 53.922 80.8128 53.3888 80.8128 52.7269C80.8128 52.0282 80.6197 51.4766 80.2336 51.0721C79.8475 50.6676 79.3051 50.4653 78.6064 50.4653H76.2621V54.9057ZM88.8091 65V46.6041H93.2494L100.31 56.8639V46.6041H105.136V65H100.972L93.6356 54.4369V65H88.8091ZM106.927 62.7384L109.878 59.1806C110.393 59.6954 111.064 60.1643 111.891 60.5872C112.737 61.0101 113.647 61.2215 114.622 61.2215C115.118 61.2215 115.596 61.1204 116.056 60.9182C116.515 60.7159 116.745 60.3298 116.745 59.7598C116.745 59.2817 116.497 58.8864 116.001 58.5739C115.504 58.2429 114.796 57.9303 113.877 57.6361L112.856 57.3052C112.103 57.0478 111.349 56.7076 110.595 56.2847C109.859 55.8434 109.243 55.2826 108.747 54.6023C108.269 53.922 108.03 53.0854 108.03 52.0926C108.03 50.9526 108.297 49.9321 108.83 49.0312C109.381 48.1302 110.19 47.4223 111.257 46.9075C112.323 46.3743 113.619 46.1077 115.146 46.1077C116.359 46.1077 117.407 46.2456 118.29 46.5214C119.191 46.7972 119.935 47.119 120.524 47.4867C121.112 47.8544 121.544 48.1854 121.82 48.4796L119.338 51.6237C118.694 51.1456 118.023 50.7595 117.324 50.4653C116.626 50.1528 115.909 49.9965 115.173 49.9965C114.695 49.9965 114.235 50.1068 113.794 50.3274C113.371 50.5297 113.16 50.8882 113.16 51.4031C113.16 51.973 113.417 52.3867 113.932 52.6442C114.447 52.9016 115.1 53.159 115.89 53.4164L116.773 53.6922C117.398 53.8761 118.023 54.1151 118.648 54.4093C119.292 54.6851 119.88 55.0436 120.413 55.4849C120.947 55.9262 121.369 56.487 121.682 57.1673C122.013 57.8292 122.178 58.6474 122.178 59.6219C122.178 60.7435 121.838 61.7456 121.158 62.6281C120.496 63.5107 119.595 64.2002 118.455 64.6966C117.334 65.1931 116.083 65.4413 114.704 65.4413C112.866 65.4413 111.321 65.1931 110.071 64.6966C108.839 64.2002 107.791 63.5475 106.927 62.7384Z" fill="#FFD100"/>
</svg>
