<svg width="127" height="38" viewBox="0 0 127 38" fill="none" xmlns="http://www.w3.org/2000/svg">
<path d="M3.77473 15L0.259332 0.526098H4.31723L6.18343 10.226L8.46193 0.873299H11.9556L14.2558 10.226L16.1003 0.526098H20.028L16.4258 15H12.4113L10.1328 5.8426L7.85433 15H3.77473ZM21.5397 15V0.526098H25.3806V15H21.5397ZM31.5624 15V3.8896H27.1139V0.526098H39.8518V3.8896H35.4467V15H31.5624ZM41.5868 15V0.526098H45.4277V5.8209H50.7659V0.526098H54.6068V15H50.7659V9.3363H45.4277V15H41.5868ZM59.9101 15L65.2266 0.526098H69.6317L74.7529 15H70.6082L69.6751 12.0054H64.836L63.8812 15H59.9101ZM65.6172 9.2061H68.8939L67.2881 3.8896L65.6172 9.2061ZM80.0704 15V0.526098H83.9113V11.6148H90.6166V15H80.0704ZM98.7762 15.3472C97.6912 15.3472 96.6857 15.1591 95.7599 14.783C94.8485 14.4069 94.0528 13.8788 93.3729 13.1989C92.7074 12.5045 92.1866 11.6944 91.8105 10.7685C91.4343 9.84263 91.2463 8.82997 91.2463 7.7305C91.2463 6.63103 91.4343 5.61837 91.8105 4.6925C92.1866 3.76663 92.7074 2.96373 93.3729 2.2838C94.0528 1.60387 94.8485 1.07583 95.7599 0.699699C96.6857 0.323565 97.6912 0.135498 98.7762 0.135498C99.8612 0.135498 100.859 0.323565 101.771 0.699699C102.697 1.07583 103.5 1.60387 104.179 2.2838C104.859 2.96373 105.38 3.76663 105.742 4.6925C106.118 5.61837 106.306 6.63103 106.306 7.7305C106.306 8.82997 106.118 9.84263 105.742 10.7685C105.38 11.6944 104.859 12.5045 104.179 13.1989C103.5 13.8788 102.697 14.4069 101.771 14.783C100.859 15.1591 99.8612 15.3472 98.7762 15.3472ZM98.7762 11.745C99.5429 11.745 100.187 11.5642 100.707 11.2025C101.243 10.8408 101.648 10.3562 101.923 9.7486C102.198 9.141 102.335 8.4683 102.335 7.7305C102.335 6.9927 102.198 6.32 101.923 5.7124C101.648 5.1048 101.243 4.62017 100.707 4.2585C100.187 3.89683 99.5429 3.716 98.7762 3.716C98.0239 3.716 97.3801 3.89683 96.8449 4.2585C96.3241 4.62017 95.919 5.1048 95.6297 5.7124C95.3548 6.32 95.2174 6.9927 95.2174 7.7305C95.2174 8.4683 95.3548 9.141 95.6297 9.7486C95.919 10.3562 96.3241 10.8408 96.8449 11.2025C97.3801 11.5642 98.0239 11.745 98.7762 11.745ZM110.495 15L106.979 0.526098H111.037L112.903 10.226L115.182 0.873299H118.676L120.976 10.226L122.82 0.526098H126.748L123.146 15H119.131L116.853 5.8426L114.574 15H110.495ZM0.697121 38L6.69962 21.6585H11.6731L17.4551 38H12.7756L11.7221 34.619H6.25862L5.18062 38H0.697121ZM7.14062 31.4585H10.8401L9.02712 25.456L7.14062 31.4585ZM19.0325 38V21.6585H25.3045C26.9868 21.6585 28.4813 21.9525 29.788 22.5405C31.111 23.1122 32.1563 24.0105 32.924 25.2355C33.6917 26.4442 34.0755 28.004 34.0755 29.915C34.0755 31.7117 33.6917 33.2143 32.924 34.423C32.1563 35.6153 31.1028 36.5137 29.7635 37.118C28.4405 37.706 26.946 38 25.28 38H19.0325ZM23.369 34.178H25.133C26.5377 34.178 27.632 33.7778 28.416 32.9775C29.2 32.1608 29.592 31.1073 29.592 29.817C29.592 28.5103 29.2327 27.4568 28.514 26.6565C27.7953 25.8562 26.6683 25.456 25.133 25.456H23.369V34.178ZM36.0357 38L36.7952 21.6585H40.9357L44.9047 28.788L48.8002 21.6585H52.9652L53.7247 38H49.3392L48.9472 28.4205L46.0807 34.0065H43.7042L40.5192 28.4205L40.2007 38H36.0357ZM56.3328 38V21.6585H60.6693V38H56.3328ZM63.6062 38V21.6585H67.5507L73.8227 30.7725V21.6585H78.1102V38H74.4107L67.8937 28.6165V38H63.6062ZM85.4744 38V21.6585H96.8669V25.456H89.8109V28.6165H95.2744V32.1935H89.8109V38H85.4744ZM98.825 38V21.6585H110.585V25.407H103.161V27.9305H109.262V31.4585H103.161V34.2515H111.099V38H98.825ZM113.348 38V21.6585H125.108V25.407H117.684V27.9305H123.785V31.4585H117.684V34.2515H125.622V38H113.348Z" fill="white"/>
</svg>
