<svg width="114" height="30" viewBox="0 0 114 30" fill="none" xmlns="http://www.w3.org/2000/svg">
<g id="970x250_cta">
<rect width="113.161" height="29.0569" rx="4.01897" fill="white"/>
<g id="Group 944">
<path id="Vector 13" d="M8.03802 20.167H18.0854" stroke="#DC1928" stroke-width="0.966904" stroke-linecap="round"/>
<g id="Group 13562">
<path id="Vector 14" d="M8.27985 15.0117L13.0618 18.1166L17.9489 15.0117" stroke="#DC1928" stroke-width="0.966904" stroke-linecap="round"/>
<path id="Vector 15" d="M13.0534 8.88965V18.1169" stroke="#DC1928" stroke-width="0.966904" stroke-linecap="round"/>
</g>
</g>
<path id="Download the eCommer" d="M26.7713 9.50832H29.9393C32.3153 9.50832 34.0673 10.9483 34.0673 13.7683C34.0673 16.5763 32.3153 18.0283 29.9393 18.0283H26.7713V9.50832ZM29.7953 10.7323H28.2473V16.8043H29.7953C31.5473 16.8043 32.5553 15.8803 32.5553 13.7683C32.5553 11.6563 31.5473 10.7323 29.7953 10.7323ZM34.8887 14.9083C34.8887 12.9283 36.0767 11.6443 37.8527 11.6443C39.6167 11.6443 40.8167 12.9283 40.8167 14.9083C40.8167 16.8883 39.6167 18.1723 37.8527 18.1723C36.0767 18.1723 34.8887 16.8883 34.8887 14.9083ZM39.3767 14.6443C39.3767 13.4563 38.7647 12.7723 37.8527 12.7723C36.9287 12.7723 36.3287 13.4563 36.3287 14.6443V15.1603C36.3287 16.3483 36.9287 17.0443 37.8527 17.0443C38.7647 17.0443 39.3767 16.3483 39.3767 15.1603V14.6443ZM48.3074 18.0283H46.7954L45.5954 13.8883L44.4554 18.0283H42.8714L41.1554 11.7883H42.5594L43.7234 16.3243L44.9714 11.7883H46.2074L47.5274 16.3243L48.6794 11.7883H50.0114L48.3074 18.0283ZM52.1324 14.1763V18.0283H50.7164V11.7883H52.1324V12.5203H52.1804C52.5884 11.9803 53.1044 11.6443 53.9324 11.6443C55.1684 11.6443 55.9604 12.5563 55.9604 13.9603V18.0283H54.5444V14.0803C54.5444 13.3603 54.2324 12.8443 53.4164 12.8443C52.5764 12.8443 52.1324 13.4443 52.1324 14.1763ZM59.0949 18.0283C57.9669 18.0283 57.3189 17.3803 57.3189 16.3603V9.14832H58.7349V16.2403C58.7349 16.6483 58.8909 16.8883 59.3349 16.8883H59.7549V18.0283H59.0949ZM60.4347 14.9083C60.4347 12.9283 61.6227 11.6443 63.3987 11.6443C65.1627 11.6443 66.3627 12.9283 66.3627 14.9083C66.3627 16.8883 65.1627 18.1723 63.3987 18.1723C61.6227 18.1723 60.4347 16.8883 60.4347 14.9083ZM64.9227 14.6443C64.9227 13.4563 64.3107 12.7723 63.3987 12.7723C62.4747 12.7723 61.8747 13.4563 61.8747 14.6443V15.1603C61.8747 16.3483 62.4747 17.0443 63.3987 17.0443C64.3107 17.0443 64.9227 16.3483 64.9227 15.1603V14.6443ZM70.9603 17.2003C70.6363 17.7523 70.0123 18.1723 69.1123 18.1723C67.9363 18.1723 67.1203 17.4643 67.1203 16.3123C67.1203 15.0883 68.0443 14.6203 69.0523 14.4883L70.3603 14.3203C70.8643 14.2603 70.9723 14.0563 70.9723 13.6603C70.9723 13.0963 70.6363 12.6883 69.8803 12.6883C69.1243 12.6883 68.7403 13.1083 68.6923 13.7083H67.2403C67.2763 12.6643 68.1523 11.6443 69.8443 11.6443C71.4643 11.6443 72.3883 12.5923 72.3883 13.9723V16.9603C72.3883 17.3443 72.4483 17.7283 72.5083 18.0283H71.0563C71.0203 17.7883 70.9963 17.5243 70.9963 17.2003H70.9603ZM70.9843 14.8003C70.7803 14.9923 70.5163 15.0883 70.1923 15.1483L69.5683 15.2923C68.9323 15.4243 68.5483 15.6763 68.5483 16.2523C68.5483 16.8403 68.8963 17.1403 69.5443 17.1403C70.3243 17.1403 70.9843 16.6123 70.9843 15.7843V14.8003ZM77.8466 17.1883C77.4986 17.7643 76.8026 18.1723 75.9866 18.1723C74.4866 18.1723 73.4186 16.8883 73.4186 14.9083C73.4186 12.9283 74.4866 11.6443 75.9866 11.6443C76.8026 11.6443 77.4986 12.0523 77.8466 12.6283H77.8946V9.14832H79.3106V18.0283H77.8946V17.1883H77.8466ZM74.8586 15.1483C74.8586 16.3723 75.4226 17.0443 76.3826 17.0443C77.2706 17.0443 77.8946 16.3363 77.8946 15.2323V14.5843C77.8946 13.4803 77.2706 12.7723 76.3826 12.7723C75.4226 12.7723 74.8586 13.4563 74.8586 14.6803V15.1483ZM84.3928 14.1763V18.0283H82.9768V11.7883H84.3928V12.5203H84.4408C84.8488 11.9803 85.3648 11.6443 86.1928 11.6443C87.4288 11.6443 88.2208 12.5563 88.2208 13.9603V18.0283H86.8048V14.0803C86.8048 13.3603 86.4928 12.8443 85.6768 12.8443C84.8368 12.8443 84.3928 13.4443 84.3928 14.1763ZM89.2792 14.9083C89.2792 12.9283 90.4672 11.6443 92.2432 11.6443C94.0072 11.6443 95.2072 12.9283 95.2072 14.9083C95.2072 16.8883 94.0072 18.1723 92.2432 18.1723C90.4672 18.1723 89.2792 16.8883 89.2792 14.9083ZM93.7672 14.6443C93.7672 13.4563 93.1552 12.7723 92.2432 12.7723C91.3192 12.7723 90.7192 13.4563 90.7192 14.6443V15.1603C90.7192 16.3483 91.3192 17.0443 92.2432 17.0443C93.1552 17.0443 93.7672 16.3483 93.7672 15.1603V14.6443ZM102.698 18.0283H101.186L99.9859 13.8883L98.8459 18.0283H97.2619L95.5459 11.7883H96.9499L98.1139 16.3243L99.3619 11.7883H100.598L101.918 16.3243L103.07 11.7883H104.402L102.698 18.0283Z" fill="#DC1928"/>
</g>
</svg>
