<svg width="119" height="68" viewBox="0 0 119 68" fill="none" xmlns="http://www.w3.org/2000/svg">
  <path d="M59.2,3.86v8.05h-11.71V.2h8.05c2.02,0,3.66,1.64,3.66,3.66Z" fill="#fff"/>
  <path d="M59.2,23.62h-11.71v11.71h11.71v-11.71Z" fill="#fff"/>
  <path d="M35.78.2h-11.71v11.71h11.71V.2Z" fill="#ffd000"/>
  <path d="M12.36,9.59V.2H.65v31.47c0,2.02,1.64,3.66,3.66,3.66h8.05v-9.39c0-1.28,1.04-2.32,2.32-2.32h9.39v-11.71h-9.39c-1.28,0-2.32-1.04-2.32-2.32Z" fill="#fff"/>
  <path d="M35.78,23.62h-11.71v11.71h11.71v-11.71Z" fill="#fff"/>
  <path d="M13.41,48.21c-.8,0-1.46-.26-1.99-.8-.53-.54-.79-1.2-.79-2.02s.25-1.52.79-2.06c.53-.54,1.2-.8,2.03-.8s1.43.27,1.97.81c.54.54.8,1.2.8,2s-.26,1.5-.8,2.05c-.54.55-1.19.82-2,.82ZM16.59,42.3c-.85-.81-1.92-1.21-3.19-1.21s-2.34.41-3.18,1.21c-.84.81-1.26,1.85-1.26,3.08s.43,2.22,1.25,3.03c.83.8,1.88,1.21,3.12,1.21s2.38-.4,3.24-1.21c.86-.8,1.3-1.83,1.3-3.05s-.43-2.25-1.28-3.06ZM51.38,41.19v4.66c0,1.33-.51,2.25-2,2.25s-2-.91-2-2.25v-4.66h-1.62v5c0,2.46,1.66,3.43,3.62,3.43s3.62-.96,3.62-3.43v-5h-1.62ZM41.64,41.19v6.88h3.5v1.44h-5.11v-8.32h1.61ZM35.83,44.94c.8,0,1.47-.37,1.47-1.16s-.46-1.16-1.47-1.16h-.97v2.32h.97ZM36.29,41.19c1.75,0,2.62,1.13,2.62,2.59s-1.09,2.61-2.69,2.61h-1.36v3.12h-1.61v-8.32h3.03ZM32.16,41.19v1.44h-2.73v6.88h-1.61v-6.88h-2.73v-1.44h7.08ZM56.86,41.08c.81,0,1.59.2,2.34.61v1.64c-.87-.52-1.44-.84-2.32-.84s-1.17.3-1.2.71c-.02.32.17.58.59.85.12.08.56.31,1.35.69.67.33,1.17.68,1.47,1.07.3.39.46.87.46,1.42,0,.72-.26,1.29-.77,1.73-.51.44-1.18.66-2,.66-.53,0-.99-.06-1.37-.17-.39-.12-.81-.32-1.29-.61v-1.83c.89.74,1.7,1.2,2.49,1.2.74,0,1.24-.28,1.24-.79,0-.34-.16-.65-.57-.89-.34-.2-.79-.43-1.32-.73-.63-.35-1.14-.66-1.47-1.06-.32-.4-.49-.84-.49-1.36,0-.7.26-1.25.78-1.67.52-.42,1.21-.62,2.06-.62M21.63,41.08c.81,0,1.59.2,2.34.61v1.64c-.86-.52-1.44-.84-2.32-.84s-1.17.3-1.2.71c-.02.32.17.58.59.85.12.08.56.31,1.35.69.67.33,1.17.68,1.48,1.07.3.39.45.87.45,1.42,0,.72-.26,1.29-.77,1.73-.51.44-1.18.66-2,.66-.54,0-.99-.06-1.37-.17-.38-.12-.81-.32-1.29-.61v-1.83c.89.74,1.7,1.2,2.49,1.2.74,0,1.24-.28,1.24-.79,0-.34-.15-.65-.57-.89-.34-.2-.79-.43-1.32-.73-.63-.35-1.14-.66-1.47-1.06-.32-.4-.49-.84-.49-1.36,0-.7.26-1.25.78-1.67.52-.42,1.21-.62,2.06-.62M2.25,41.19v3.32h3.95v-3.32h1.61v8.32h-1.61v-3.33h-3.95v3.33H.65v-8.32h1.61Z" fill="#fff"/>
  <line x1="72.86" y1=".09" x2="72.86" y2="49.92" fill="none" stroke="#fff" stroke-width=".4"/>
  <path d="M102.15,6.72c-9.71,0-16.74,4.05-16.74,4.05v20.04c0,2.89,1.07,5.61,3.28,8.31,1.61,1.98,3.76,3.9,6.99,6.25l6.48,4.62,6.45-4.62c3.23-2.35,5.39-4.28,6.99-6.25,2.2-2.71,3.28-5.43,3.28-8.31V10.78s-7-4.05-16.74-4.05ZM87.7,12.8c4.57-2.33,9.51-3.49,14.46-3.49,1.25,0,2.51.08,3.76.23-6.78.29-13.98,2.84-18.22,6.56v-3.29ZM102.16,46.69h0l-5.12-3.66c-5.07-3.69-9.34-7.67-9.34-12.73v-4.64c.54,4.56,4.62,8.24,9.34,11.67l9.11,6.51-3.99,2.85ZM116.48,29.37h0c-.3.8-.76,2.16-1.12,2.98-.17.38-.78.25-.97.53-.57.85-1.72,1.03-2.42.92-.99-.16-1.59-.51-2.17-.97-.63-.5-.64-.92-.62-1.27.02-.36.06-.81.03-1.29,0-.61-1.59-2.23-2.79-4.23.55-.04.81-.19.81-.19-.15-.04-.3-.08-.45-.12-1.05-.28-2.05-.69-2.96-1.29-.48-.32-.93-.77-1.3-1.29-.43-.67-.97-1.94-.44-3.73-.7,1.12-.69,2.6-.05,3.86-1.77,2.24-1.79,6.42,6.96,12.59h0s3.68,2.63,3.68,2.63c-1.05,1.09-2.26,2.14-3.56,3.15l-12.08-8.63c-4.9-3.56-9.04-7.4-9.32-12.22,1.47-4.13,6.56-9.03,18.85-10.76l.3-.03c.78-.09,1.5-.07,2.27.08.68.16,1.37.33,2.04.53.07.02.14.04.2.07,1.78.54,3.52,1.24,5.22,2.1-.43,1.23-3.41,1.54-3.81,1.58.39.49,1.26,1.65,2.41,3.53.52.85.89,1.65,1.04,2.01.06.13.08.28.05.42-.06.34-.22.91-.72,1.43,0,0,.76,5.08,1.02,6.77.04.28-.02.56-.11.82ZM116.6,15.15h0c-.1.94-1.52,1.41-1.52,1.41-.49-.77-1.25-1.81-1.25-1.81,0,0,1.33-.16,2.77.41Z" fill="#fff"/>
  <path d="M110.42,18.39c-.12-.19-.24-.37-.37-.47-.54-.4-1.35-.96-2.04-1.12-.06.42.26,1.23.51,1.52.25.29,1.4.29,1.4.29l1.13.78-.63-1h0Z" fill="#fff"/>
  <path d="M114.56,21.59c.55-.59.71-1.08.75-1.35.01-.08,0-.16-.03-.23-.15-.4-.82-1.84-3.04-3.65-2.24-1.83-4.8-2.3-4.8-2.3,0,0,3.7,1.05,6.27,5.92.04.08.06.18.03.27-.15.58-.6.92-.6.92,0,0-.56-.44-1.23-.79,1.45,1.82,1.69,2.68,1.97,4.03l.33,1.97c.07.44.31.34.38.84-.19-.17-.5-.19-.5-.19-.37-.03-1.07.04-1.45.67-.42.7-.18,1.53-.18,1.53,0,0,.07-1.05.81-1.41.52-.25,1.07-.17,1.51.17.49.38.79.38.79.38l-1.02-6.77h0Z" fill="#fff"/>
  <path d="M89.19,5.23c0-.51-.27-.75-.59-.79.22-.21.49-.6.49-1.07,0-.75-.45-1.01-1.24-.71-.82.32-1.63.66-2.43,1.04v1.63c.05-.51.25-.77.65-.95.04-.02,1.17-.51,1.68-.72.27-.11.42-.04.42.2s-.15.42-.42.53c-.54.22-1.07.44-1.59.69-.42.19-.66.69-.72,1.11-.01.07-.02.15-.02.21v1.7c.83-.42,1.66-.81,2.51-1.16.43-.18.76-.44.97-.76.19-.28.29-.6.29-.95h0ZM86.33,6.67v-.79c.5-.23,1-.45,1.51-.65.26-.11.41,0,.41.23s-.14.45-.41.55c-.13.05-.26.11-.39.16-.37.16-.75.33-1.12.5Z" fill="#fff"/>
  <path d="M92.93,3.74c.5-.33.82-.85.82-1.46,0-.72-.39-1.1-1.01-1.1-.15,0-.31.02-.48.07-.79.2-1.58.43-2.36.68v4.25c.33-.12.66-.23.99-.33h0s0-1.4,0-1.4c.33-.1.66-.2.99-.29.26.39.53.78.79,1.17.39-.1.77-.2,1.16-.29-.3-.43-.6-.86-.9-1.29ZM92.2,3.15c-.44.12-.88.24-1.32.38v-.95c.44-.13.88-.26,1.32-.37h0c.35-.09.55.04.55.33,0,.28-.19.51-.55.61Z" fill="#fff"/>
  <path d="M95.48,4.69V.56c-.34.06-.68.12-1.02.19v4.15c.34-.07.68-.14,1.02-.2Z" fill="#fff"/>
  <path d="M98.3,3.42c-.54.05-1.2-.03-1.65-.45-.2.31-.4.63-.6.94.4.39,1.37.53,2.19.44,1.18-.13,2.02-.61,2.02-1.56s-.89-1.05-1.76-1.07c-.89-.02-1.16-.02-1.16-.24,0-.22.28-.38.77-.43.6-.06,1.17.11,1.48.41.2-.27.4-.55.61-.81-.39-.37-1.15-.61-2.01-.52-1.12.11-1.88.74-1.88,1.61s.76.95,1.61.95c.94.01,1.25.02,1.25.3,0,.23-.35.38-.86.43Z" fill="#fff"/>
  <path d="M108.24.46c-.39-.06-.78-.11-1.18-.16-.62,1.29-1.24,2.59-1.85,3.91.36.03.73.07,1.09.11.11-.24.23-.49.34-.73h0c.66.08,1.32.18,1.97.29.11.28.23.56.34.84.37.07.75.15,1.12.23-.61-1.52-1.22-3.01-1.83-4.48ZM107.05,2.74c.2-.42.4-.84.59-1.26.19.47.39.95.58,1.43-.39-.06-.78-.12-1.18-.17Z" fill="#fff"/>
  <path d="M114.57,1.98v4.25c-.06-.02-.11-.04-.17-.06-.23-.08-.47-.16-.7-.24-.7-1.15-1.42-2.26-2.13-3.34v2.71c-.33-.09-.65-.17-.98-.25V.9c.34.07.67.15,1.01.23.67,1.02,1.35,2.07,2.01,3.15V1.68c.32.1.64.2.97.31Z" fill="#fff"/>
  <path d="M104.36,2.03c.23-.11.51-.37.51-.82,0-.72-.47-1.15-1.31-1.18-.87-.03-1.74-.03-2.61,0v4.08c.9-.03,1.81-.03,2.71.01h0c.84.03,1.33-.36,1.33-1.08,0-.48-.28-.84-.62-1ZM101.94.9c.51,0,1.01,0,1.52.02h0c.28,0,.44.14.44.36s-.16.34-.44.33c-.45-.02-.9-.02-1.35-.02-.06,0-.11,0-.17,0v-.69ZM103.55,3.2c-.54-.02-1.08-.03-1.61-.03v-.74c.54,0,1.08,0,1.61.03.28,0,.43.17.43.39s-.15.36-.43.35Z" fill="#fff"/>
  <path d="M116.4,3.63v.64c.74.29,1.48.61,2.2.96v.99s-.07-.03-.1-.05c-.69-.33-1.39-.64-2.1-.93v.7c.18.07.36.15.54.22.65.28,1.3.58,1.94.9v1.02c-1.12-.57-2.27-1.08-3.43-1.53V2.28c1.17.41,2.31.88,3.43,1.41v1.02c-.81-.39-1.64-.75-2.48-1.08Z" fill="#fff"/>
  <path d="M2.59,67.27c-.33,0-.64-.06-.93-.18-.28-.12-.53-.29-.74-.5-.21-.21-.37-.46-.49-.75-.12-.29-.17-.6-.17-.93s.06-.65.17-.93c.12-.29.28-.54.49-.75.21-.21.46-.38.74-.5.29-.12.6-.18.93-.18s.64.06.92.18c.29.12.53.29.74.5.21.21.37.46.49.75.12.29.18.6.18.93s-.06.64-.18.93c-.12.29-.28.54-.49.75-.21.21-.45.38-.74.5-.28.12-.59.18-.92.18ZM2.59,66.32c.2,0,.37-.04.53-.11.16-.08.29-.18.4-.31.11-.13.2-.28.26-.45.06-.17.09-.35.09-.54s-.03-.37-.09-.54c-.06-.17-.14-.32-.26-.44-.11-.13-.24-.23-.4-.3-.16-.08-.33-.11-.53-.11s-.38.04-.54.11c-.16.07-.29.17-.4.3-.11.13-.19.27-.25.44-.06.17-.09.35-.09.54s.03.37.09.54c.06.17.14.32.25.45.11.13.25.23.4.31.16.08.34.11.54.11ZM5.63,62.68h3.01v.89h-1.99v1.01h1.52v.87h-1.52v1.71h-1.01v-4.48ZM9.25,62.68h3.01v.89h-1.99v1.01h1.52v.87h-1.52v1.71h-1.01v-4.48ZM12.87,62.68h1.01v4.48h-1.01v-4.48ZM18.8,66.33c-.09.13-.21.25-.34.37-.13.11-.28.21-.45.3-.16.09-.34.15-.53.2-.19.05-.39.07-.59.07-.34,0-.65-.06-.93-.17-.28-.12-.53-.28-.73-.48-.2-.21-.36-.46-.47-.74-.11-.29-.17-.6-.17-.94s.06-.64.17-.93c.11-.29.27-.54.47-.75.21-.22.45-.38.73-.5.29-.13.6-.19.95-.19.42,0,.78.08,1.09.23.31.15.57.37.78.66l-.69.67c-.13-.19-.29-.34-.48-.45-.18-.12-.4-.17-.66-.17-.2,0-.38.04-.54.11-.16.07-.3.17-.41.3-.11.13-.2.28-.26.46-.06.17-.09.35-.09.54s.03.38.09.55c.06.17.15.32.26.44.11.13.25.22.4.3.16.07.33.11.53.11.16,0,.3-.02.42-.05.12-.04.23-.08.32-.13.09-.06.18-.12.25-.19.07-.08.14-.15.21-.23l.69.63ZM19.33,62.68h1.01v4.48h-1.01v-4.48ZM22.5,62.68h1.12l1.64,4.48h-1.11l-.34-1.03h-1.58l-.34,1.03h-1.06l1.67-4.48ZM23.57,65.34l-.54-1.69-.56,1.69h1.1ZM25.75,62.68h1.01v3.58h2.14v.9h-3.16v-4.48ZM31.05,65.82c.06.06.13.13.2.19.08.06.17.12.26.17.1.05.2.1.32.13.12.03.24.05.37.05.08,0,.15-.01.23-.03.08-.02.15-.05.21-.09.06-.04.11-.1.15-.15.04-.06.06-.13.06-.21,0-.17-.08-.29-.24-.38-.16-.09-.42-.19-.77-.28-.17-.04-.33-.1-.48-.17-.14-.08-.27-.17-.38-.28-.1-.11-.18-.23-.24-.37-.06-.14-.09-.29-.09-.46,0-.19.03-.36.1-.53s.17-.31.3-.44c.14-.13.31-.23.51-.3.21-.08.45-.11.73-.11.23,0,.43.02.6.07.17.04.32.1.44.17.13.06.23.13.3.2.08.07.14.12.18.16l-.58.64s-.11-.08-.17-.13c-.06-.05-.13-.09-.22-.13-.08-.04-.17-.07-.27-.1-.09-.03-.19-.04-.3-.04-.07,0-.14.01-.22.03-.07.02-.13.05-.19.09-.05.04-.1.08-.13.13-.03.05-.05.1-.05.16,0,.15.08.28.24.37.16.09.38.17.67.24.17.04.33.1.48.17.16.07.3.16.43.27.13.11.23.25.3.42.08.16.11.36.11.59,0,.2-.04.39-.13.56-.09.17-.21.32-.37.44-.15.13-.33.22-.54.29-.21.07-.43.11-.67.11-.22,0-.43-.02-.61-.07-.18-.04-.35-.09-.5-.16-.15-.07-.28-.15-.4-.24-.12-.09-.22-.18-.3-.28l.65-.71ZM34.65,62.68h1.02v2.65c0,.15.01.28.04.4.03.12.08.22.15.3.07.09.15.15.26.2.11.04.25.07.41.07s.29-.02.4-.07c.11-.05.2-.12.27-.2.07-.09.11-.19.14-.3.03-.12.05-.26.05-.4v-2.65h1.03v2.78c0,.27-.04.51-.13.74-.09.22-.21.42-.38.58-.16.16-.36.28-.59.37-.23.09-.49.13-.78.13s-.55-.04-.78-.13c-.23-.09-.43-.21-.6-.38-.16-.16-.29-.35-.38-.58-.09-.22-.13-.47-.13-.74v-2.78ZM39.25,62.68h1.63c.28,0,.51.04.71.12.2.08.36.19.48.32.13.13.22.28.28.46.06.17.09.36.09.54,0,.24-.04.45-.13.64-.08.18-.19.33-.34.45-.14.12-.3.21-.48.28s-.38.09-.58.09h-.69v1.58h-.99v-4.48ZM40.83,64.76c.19,0,.34-.06.44-.17.11-.12.17-.27.17-.45s-.06-.34-.17-.46c-.11-.12-.26-.18-.45-.18h-.58v1.26h.59ZM43.13,62.68h3.06v.89h-2.05v.87h1.59v.86h-1.59v.97h2.2v.89h-3.21v-4.48ZM47.03,62.68h1.67c.26,0,.49.04.69.11.2.07.36.17.49.3.13.13.23.27.3.44.07.17.1.35.1.54,0,.29-.06.55-.19.77-.13.21-.3.39-.54.52l.99,1.79h-1.12l-.83-1.65h-.56v1.65h-.99v-4.48ZM48.64,64.7c.19,0,.34-.06.44-.17.11-.11.16-.25.16-.42,0-.18-.05-.33-.16-.44-.11-.11-.26-.16-.44-.16h-.62v1.19h.62ZM52.39,62.68h1.12l1.64,4.48h-1.11l-.34-1.03h-1.58l-.34,1.03h-1.06l1.67-4.48ZM53.46,65.34l-.54-1.69-.56,1.69h1.1ZM55.64,62.68h.97l1.94,2.91v-2.91h1v4.48h-.92l-1.99-2.96v2.96h-1v-4.48ZM60.42,62.68h.97l1.94,2.91v-2.91h1v4.48h-.92l-1.99-2.96v2.96h-1v-4.48ZM65.17,62.68h1.02v2.65c0,.15.01.28.04.4.03.12.08.22.15.3.07.09.15.15.26.2.11.04.25.07.41.07s.29-.02.4-.07c.11-.05.2-.12.27-.2.07-.09.11-.19.14-.3.03-.12.05-.26.05-.4v-2.65h1.03v2.78c0,.27-.04.51-.13.74-.09.22-.21.42-.38.58-.16.16-.36.28-.59.37-.23.09-.49.13-.78.13s-.55-.04-.78-.13c-.23-.09-.43-.21-.6-.38-.16-.16-.29-.35-.38-.58-.09-.22-.13-.47-.13-.74v-2.78ZM70.85,62.68h1.12l1.64,4.48h-1.11l-.34-1.03h-1.58l-.34,1.03h-1.06l1.67-4.48ZM71.92,65.34l-.54-1.69-.56,1.69h1.1ZM74.53,63.57h-1.45v-.89h3.92v.89h-1.44v3.59h-1.02v-3.59ZM77.57,62.68h1.01v4.48h-1.01v-4.48ZM81.62,67.27c-.33,0-.64-.06-.93-.18-.28-.12-.53-.29-.74-.5-.21-.21-.37-.46-.49-.75-.12-.29-.17-.6-.17-.93s.06-.65.17-.93c.12-.29.28-.54.49-.75.21-.21.46-.38.74-.5.29-.12.6-.18.93-.18s.64.06.92.18c.29.12.53.29.74.5.21.21.37.46.49.75.12.29.18.6.18.93s-.06.64-.18.93c-.12.29-.28.54-.49.75-.21.21-.45.38-.74.5-.28.12-.59.18-.92.18ZM81.62,66.32c.2,0,.37-.04.53-.11.16-.08.29-.18.4-.31.11-.13.2-.28.26-.45.06-.17.09-.35.09-.54s-.03-.37-.09-.54c-.06-.17-.14-.32-.26-.44-.11-.13-.24-.23-.4-.3-.16-.08-.33-.11-.53-.11s-.38.04-.54.11c-.16.07-.29.17-.4.3-.11.13-.19.27-.25.44-.06.17-.09.35-.09.54s.03.37.09.54c.06.17.14.32.25.45.11.13.25.23.4.31.16.08.34.11.54.11ZM84.65,62.68h.97l1.94,2.91v-2.91h1v4.48h-.92l-1.99-2.96v2.96h-1v-4.48ZM90.64,62.68h1.63c.28,0,.51.04.71.12.2.08.36.19.48.32.13.13.22.28.28.46.06.17.09.36.09.54,0,.24-.04.45-.13.64-.08.18-.19.33-.34.45-.14.12-.3.21-.48.28s-.38.09-.58.09h-.69v1.58h-.99v-4.48ZM92.22,64.76c.19,0,.34-.06.44-.17.11-.12.17-.27.17-.45s-.06-.34-.17-.46c-.11-.12-.26-.18-.45-.18h-.58v1.26h.59ZM95.24,62.68h1.12l1.64,4.48h-1.11l-.34-1.03h-1.58l-.34,1.03h-1.06l1.67-4.48ZM96.31,65.34l-.54-1.69-.56,1.69h1.1ZM98.49,62.68h1.67c.26,0,.49.04.69.11.2.07.36.17.49.3.13.13.23.27.29.44.07.17.1.35.1.54,0,.29-.06.55-.19.77-.12.21-.3.39-.54.52l.99,1.79h-1.11l-.83-1.65h-.56v1.65h-.99v-4.48ZM100.1,64.7c.19,0,.34-.06.44-.17.11-.11.16-.25.16-.42,0-.18-.05-.33-.16-.44-.11-.11-.25-.16-.44-.16h-.62v1.19h.62ZM103.6,63.57h-1.45v-.89h3.92v.89h-1.44v3.59h-1.02v-3.59ZM106.64,62.68h.97l1.94,2.91v-2.91h1v4.48h-.92l-1.99-2.96v2.96h-1v-4.48ZM111.42,62.68h3.06v.89h-2.05v.87h1.59v.86h-1.59v.97h2.2v.89h-3.21v-4.48ZM115.32,62.68h1.67c.26,0,.49.04.68.11.2.07.36.17.49.3.14.13.23.27.3.44.07.17.1.35.1.54,0,.29-.07.55-.19.77-.13.21-.31.39-.54.52l.99,1.79h-1.12l-.83-1.65h-.56v1.65h-.99v-4.48ZM116.93,64.7c.19,0,.34-.06.44-.17.11-.11.16-.25.16-.42,0-.18-.05-.33-.16-.44-.11-.11-.26-.16-.44-.16h-.62v1.19h.62Z" fill="#fff"/>
</svg>