<svg width="144" height="33" viewBox="0 0 144 33" fill="none" xmlns="http://www.w3.org/2000/svg">
<path d="M0 0H128.175C136.915 0 144 7.08499 144 15.8248V17.1752C144 25.915 136.915 33 128.175 33H0V0Z" fill="#00DFED"/>
<path d="M14.3913 23.6886L17.772 9.98566H22.193L25.5937 23.6886H23.3532L22.6131 20.748H17.3519L16.6118 23.6886H14.3913ZM19.4924 11.8461L17.792 18.7876H22.173L20.4926 11.8461H19.4924ZM32.513 18.4475V16.4871H36.4139V23.4486C36.0538 23.5419 35.3203 23.642 34.2134 23.7486C33.1198 23.8553 32.3263 23.9087 31.8329 23.9087C29.7524 23.9087 28.3188 23.3352 27.532 22.1883C26.7451 21.0414 26.3517 19.2477 26.3517 16.8071C26.3517 14.3533 26.7518 12.5662 27.552 11.446C28.3655 10.3257 29.7658 9.76561 31.7529 9.76561C32.9265 9.76561 34.2467 9.89897 35.7137 10.1657L36.4139 10.3057L36.3339 12.0661C34.7202 11.8527 33.2732 11.746 31.9929 11.746C30.7126 11.746 29.8325 12.1061 29.3524 12.8263C28.8856 13.5464 28.6522 14.8801 28.6522 16.8271C28.6522 18.7742 28.8722 20.1212 29.3123 20.868C29.7658 21.6015 30.6726 21.9683 32.0329 21.9683C33.0065 21.9683 33.7333 21.9082 34.2134 21.7882V18.4475H32.513ZM46.4817 23.6886H38.8V9.98566H41.0205V21.7082H46.4817V23.6886ZM51.8896 9.98566H57.0907C58.491 9.98566 59.5379 10.2724 60.2314 10.8458C60.9249 11.406 61.2716 12.3062 61.2716 13.5464C61.2716 14.3599 61.1382 15.0001 60.8715 15.4668C60.6181 15.9336 60.2114 16.3204 59.6513 16.6271C60.9582 17.1339 61.6117 18.1941 61.6117 19.8078C61.6117 22.395 60.158 23.6886 57.2507 23.6886H51.8896V9.98566ZM57.0907 17.7073H54.1101V21.7682H57.1307C57.8642 21.7682 58.411 21.6148 58.7711 21.3081C59.1445 21.0014 59.3312 20.4746 59.3312 19.7278C59.3312 18.9809 59.1178 18.4608 58.6911 18.1674C58.2643 17.8607 57.7308 17.7073 57.0907 17.7073ZM56.9707 11.9061H54.1101V15.8269H57.0507C58.3576 15.8269 59.0111 15.1534 59.0111 13.8065C59.0111 12.5395 58.331 11.9061 56.9707 11.9061ZM69.5395 13.6865H71.7V23.6886H69.5395V23.0685C68.5659 23.6286 67.6658 23.9087 66.8389 23.9087C65.4653 23.9087 64.5451 23.5419 64.0783 22.8084C63.6115 22.0616 63.3782 20.7613 63.3782 18.9076V13.6865H65.5586V18.9276C65.5586 20.1279 65.6587 20.9347 65.8587 21.3481C66.0587 21.7615 66.5255 21.9683 67.259 21.9683C67.9792 21.9683 68.6393 21.8349 69.2394 21.5682L69.5395 21.4481V13.6865ZM80.8813 15.7469C79.3077 15.5335 78.1674 15.4268 77.4606 15.4268C76.7538 15.4268 76.2603 15.5135 75.9803 15.6869C75.7135 15.8469 75.5802 16.107 75.5802 16.4671C75.5802 16.8271 75.7269 17.0805 76.0203 17.2272C76.327 17.3739 77.0338 17.5473 78.1407 17.7473C79.261 17.934 80.0545 18.2341 80.5212 18.6475C80.988 19.061 81.2214 19.7945 81.2214 20.848C81.2214 21.9016 80.8813 22.6751 80.2012 23.1685C79.5344 23.662 78.5542 23.9087 77.2605 23.9087C76.447 23.9087 75.4201 23.7953 74.1799 23.5686L73.5597 23.4686L73.6398 21.6482C75.2401 21.8616 76.3937 21.9683 77.1005 21.9683C77.8073 21.9683 78.3074 21.8816 78.6008 21.7082C78.9076 21.5348 79.0609 21.2481 79.0609 20.848C79.0609 20.4479 78.9142 20.1745 78.6208 20.0278C78.3408 19.8678 77.654 19.7011 76.5604 19.5277C75.4802 19.341 74.6867 19.0543 74.1799 18.6675C73.6731 18.2808 73.4197 17.574 73.4197 16.5471C73.4197 15.5202 73.7665 14.7534 74.4599 14.2466C75.1668 13.7398 76.067 13.4864 77.1605 13.4864C78.014 13.4864 79.0609 13.5931 80.3012 13.8065L80.9213 13.9265L80.8813 15.7469ZM82.9168 23.6886V13.6865H85.0972V23.6886H82.9168ZM82.9168 11.9861V9.68559H85.0972V11.9861H82.9168ZM89.5224 23.6886H87.3419V13.6865H89.5024V14.3066C90.476 13.7465 91.3962 13.4664 92.263 13.4664C93.5966 13.4664 94.5035 13.8465 94.9836 14.6067C95.477 15.3535 95.7238 16.5938 95.7238 18.3275V23.6886H93.5633V18.3875C93.5633 17.3072 93.4433 16.5404 93.2032 16.087C92.9765 15.6336 92.5031 15.4068 91.7829 15.4068C91.1028 15.4068 90.4493 15.5402 89.8225 15.8069L89.5224 15.9269V23.6886ZM104.984 21.8882L105.544 21.8282L105.584 23.4486C104.064 23.7553 102.717 23.9087 101.543 23.9087C100.063 23.9087 98.9958 23.5019 98.3423 22.6884C97.7022 21.8749 97.3821 20.5746 97.3821 18.7876C97.3821 15.2401 98.8291 13.4664 101.723 13.4664C104.524 13.4664 105.924 14.9934 105.924 18.0474L105.784 19.6077H99.5826C99.5959 20.4346 99.7759 21.0414 100.123 21.4281C100.469 21.8149 101.116 22.0083 102.063 22.0083C103.01 22.0083 103.984 21.9683 104.984 21.8882ZM103.783 17.9274C103.783 16.9405 103.623 16.2537 103.303 15.8669C102.997 15.4668 102.47 15.2668 101.723 15.2668C100.976 15.2668 100.429 15.4735 100.083 15.8869C99.7493 16.3004 99.5759 16.9805 99.5626 17.9274H103.783ZM114.562 15.7469C112.988 15.5335 111.848 15.4268 111.141 15.4268C110.434 15.4268 109.941 15.5135 109.661 15.6869C109.394 15.8469 109.261 16.107 109.261 16.4671C109.261 16.8271 109.408 17.0805 109.701 17.2272C110.008 17.3739 110.715 17.5473 111.821 17.7473C112.942 17.934 113.735 18.2341 114.202 18.6475C114.669 19.061 114.902 19.7945 114.902 20.848C114.902 21.9016 114.562 22.6751 113.882 23.1685C113.215 23.662 112.235 23.9087 110.941 23.9087C110.128 23.9087 109.101 23.7953 107.861 23.5686L107.24 23.4686L107.32 21.6482C108.921 21.8616 110.074 21.9683 110.781 21.9683C111.488 21.9683 111.988 21.8816 112.282 21.7082C112.588 21.5348 112.742 21.2481 112.742 20.848C112.742 20.4479 112.595 20.1745 112.302 20.0278C112.022 19.8678 111.335 19.7011 110.241 19.5277C109.161 19.341 108.367 19.0543 107.861 18.6675C107.354 18.2808 107.1 17.574 107.1 16.5471C107.1 15.5202 107.447 14.7534 108.141 14.2466C108.847 13.7398 109.748 13.4864 110.841 13.4864C111.695 13.4864 112.742 13.5931 113.982 13.8065L114.602 13.9265L114.562 15.7469ZM123.539 15.7469C121.965 15.5335 120.825 15.4268 120.118 15.4268C119.411 15.4268 118.918 15.5135 118.638 15.6869C118.371 15.8469 118.238 16.107 118.238 16.4671C118.238 16.8271 118.385 17.0805 118.678 17.2272C118.985 17.3739 119.692 17.5473 120.798 17.7473C121.919 17.934 122.712 18.2341 123.179 18.6475C123.646 19.061 123.879 19.7945 123.879 20.848C123.879 21.9016 123.539 22.6751 122.859 23.1685C122.192 23.662 121.212 23.9087 119.918 23.9087C119.105 23.9087 118.078 23.7953 116.838 23.5686L116.217 23.4686L116.297 21.6482C117.898 21.8616 119.051 21.9683 119.758 21.9683C120.465 21.9683 120.965 21.8816 121.259 21.7082C121.565 21.5348 121.719 21.2481 121.719 20.848C121.719 20.4479 121.572 20.1745 121.279 20.0278C120.998 19.8678 120.312 19.7011 119.218 19.5277C118.138 19.341 117.344 19.0543 116.838 18.6675C116.331 18.2808 116.077 17.574 116.077 16.5471C116.077 15.5202 116.424 14.7534 117.118 14.2466C117.824 13.7398 118.725 13.4864 119.818 13.4864C120.672 13.4864 121.719 13.5931 122.959 13.8065L123.579 13.9265L123.539 15.7469Z" fill="#001CB0"/>
</svg>
