<?xml version="1.0" encoding="utf-8"?>
<!-- Generator: Adobe Illustrator 27.7.0, SVG Export Plug-In . SVG Version: 6.00 Build 0)  -->
<svg version="1.1" id="Layer_1" xmlns="http://www.w3.org/2000/svg" xmlns:xlink="http://www.w3.org/1999/xlink" x="0px" y="0px"
	 viewBox="0 0 162 55" style="enable-background:new 0 0 162 55;" xml:space="preserve">
<path d="M4.8,54.7c-2.4,0-4.1-1.7-4.1-4.7v-0.1c0-3,1.8-4.9,4.2-4.9c1.5,0,2.5,0.7,3,1.6v-5.8h2.2v13.8H7.9v-1.6
	C7.4,53.9,6.2,54.7,4.8,54.7z M5.4,53c1.5,0,2.6-1,2.6-3.1v-0.1c0-2.1-1-3.1-2.5-3.1c-1.6,0-2.5,1.1-2.5,3.2v0.1C2.9,52,4,53,5.4,53
	z M16.5,54.7c-2.8,0-4.8-1.8-4.8-4.8v-0.1c0-2.9,2-4.9,4.7-4.9c2.3,0,4.4,1.4,4.4,4.8v0.6h-6.9c0.1,1.8,1,2.8,2.6,2.8
	c1.3,0,2-0.5,2.2-1.4h2.1C20.5,53.6,18.9,54.7,16.5,54.7z M14,48.8h4.7c-0.1-1.6-0.9-2.3-2.3-2.3C15.1,46.5,14.2,47.4,14,48.8z
	 M29.5,54.7c-1.9,0-2.8-1-2.8-2.8v-5.1h-1.3v-1.6h1.3V43h2.2v2.1h2.1v1.6h-2.1v5c0,0.8,0.4,1.2,1.1,1.2c0.4,0,0.8-0.1,1.1-0.2v1.7
	C30.7,54.6,30.2,54.7,29.5,54.7z M36.8,53c1.6,0,2.6-1.2,2.6-3.1v-0.1c0-1.9-1-3.1-2.6-3.1c-1.6,0-2.6,1.2-2.6,3.1v0.1
	C34.2,51.8,35.2,53,36.8,53z M36.8,54.7c-2.8,0-4.8-1.9-4.8-4.8v-0.1c0-2.9,2.1-4.9,4.8-4.9c2.8,0,4.8,1.9,4.8,4.8v0.1
	C41.7,52.8,39.6,54.7,36.8,54.7z M46.8,54.7c-2.4,0-4.1-1.7-4.1-4.7v-0.1c0-3,1.8-4.9,4.2-4.9c1.5,0,2.5,0.7,3,1.6v-5.8h2.2v13.8
	h-2.2v-1.6C49.4,53.9,48.2,54.7,46.8,54.7z M47.3,53c1.5,0,2.6-1,2.6-3.1v-0.1c0-2.1-1-3.1-2.5-3.1c-1.6,0-2.5,1.1-2.5,3.2v0.1
	C44.9,52,45.9,53,47.3,53z M58.5,53c1.6,0,2.6-1.2,2.6-3.1v-0.1c0-1.9-1-3.1-2.6-3.1c-1.6,0-2.6,1.2-2.6,3.1v0.1
	C55.9,51.8,56.9,53,58.5,53z M58.5,54.7c-2.8,0-4.8-1.9-4.8-4.8v-0.1c0-2.9,2.1-4.9,4.8-4.9c2.8,0,4.8,1.9,4.8,4.8v0.1
	C63.3,52.8,61.3,54.7,58.5,54.7z M68.2,54.7c-2.4,0-3.9-1.1-3.9-3.1h2.1c0.1,1,0.6,1.5,1.9,1.5c1.2,0,1.7-0.4,1.7-1.2
	c0-0.8-0.6-1.1-2-1.3c-2.5-0.4-3.4-1.1-3.4-2.9c0-1.9,1.8-2.8,3.5-2.8c1.9,0,3.5,0.7,3.7,2.8h-2c-0.2-0.9-0.7-1.3-1.7-1.3
	c-0.9,0-1.5,0.5-1.5,1.1c0,0.7,0.4,1,1.9,1.2c2.2,0.3,3.5,0.9,3.5,2.9C71.9,53.6,70.6,54.7,68.2,54.7z M77.4,54.5v-9.4h2.2v1.5
	c0.4-0.9,1.5-1.7,3-1.7c1.9,0,3.2,1.1,3.2,3.7v5.9h-2.2v-5.7c0-1.4-0.6-2.1-1.9-2.1c-1.2,0-2.2,0.8-2.2,2.2v5.5H77.4z M91.3,43.7
	l1.1-2.8h2.4l-1.9,2.8H91.3z M92.2,53c1.6,0,2.6-1.2,2.6-3.1v-0.1c0-1.9-1-3.1-2.6-3.1c-1.6,0-2.6,1.2-2.6,3.1v0.1
	C89.6,51.8,90.6,53,92.2,53z M92.2,54.7c-2.8,0-4.8-1.9-4.8-4.8v-0.1c0-2.9,2.1-4.9,4.8-4.9c2.8,0,4.8,1.9,4.8,4.8v0.1
	C97,52.8,95,54.7,92.2,54.7z M101.9,54.7c-2.4,0-3.9-1.1-3.9-3.1h2.1c0.1,1,0.6,1.5,1.9,1.5c1.2,0,1.7-0.4,1.7-1.2
	c0-0.8-0.6-1.1-2-1.3c-2.5-0.4-3.4-1.1-3.4-2.9c0-1.9,1.8-2.8,3.5-2.8c1.9,0,3.5,0.7,3.7,2.8h-2c-0.2-0.9-0.7-1.3-1.7-1.3
	c-0.9,0-1.5,0.5-1.5,1.1c0,0.7,0.4,1,1.9,1.2c2.2,0.3,3.5,0.9,3.5,2.9C105.6,53.6,104.3,54.7,101.9,54.7z M108.5,54.6
	c-0.8,0-1.4-0.6-1.4-1.4s0.6-1.4,1.4-1.4c0.8,0,1.4,0.6,1.4,1.4S109.3,54.6,108.5,54.6z"/>
</svg>
