<?xml version="1.0" encoding="utf-8"?>
<!-- Generator: Adobe Illustrator 27.7.0, SVG Export Plug-In . SVG Version: 6.00 Build 0)  -->
<svg version="1.1" id="Layer_1" xmlns="http://www.w3.org/2000/svg" xmlns:xlink="http://www.w3.org/1999/xlink" x="0px" y="0px"
	 viewBox="0 0 162 55" style="enable-background:new 0 0 162 55;" xml:space="preserve">
<path d="M6.4,14.7c-3.2,0-5.1-1.8-5.1-5.1v-8h2.4v7.8c0,2.4,0.8,3.3,2.7,3.3c1.9,0,2.8-0.8,2.8-3.5V1.6h2.4v7.8
	C11.6,12.8,9.8,14.7,6.4,14.7z M13.9,14.5V5.1H16v1.4c0.5-0.9,1.5-1.6,2.9-1.6c1.2,0,2.2,0.5,2.7,1.7c0.7-1.2,2-1.7,3.2-1.7
	c1.7,0,3.1,1.1,3.1,3.7v6h-2.2V8.7c0-1.4-0.6-2-1.7-2S22,7.4,22,8.9v5.6h-2.2V8.7c0-1.4-0.6-2-1.7-2C17,6.7,16,7.4,16,8.9v5.6H13.9z
	 M36.4,14.7c-1.7,0-3.1-0.8-3.1-2.8c0-2.2,2.1-3,4.8-3h1.2V8.4c0-1.3-0.4-1.9-1.7-1.9c-1.1,0-1.7,0.5-1.8,1.5h-2.1
	c0.2-2.2,1.9-3.1,4-3.1s3.8,0.9,3.8,3.4v6.2h-2.1v-1.2C38.7,14.2,37.9,14.7,36.4,14.7z M36.9,13.1c1.3,0,2.3-0.7,2.3-1.9v-0.9h-1.1
	c-1.7,0-2.7,0.4-2.7,1.5C35.4,12.6,35.9,13.1,36.9,13.1z M43.6,14.5V5.1h2.2v1.4c0.5-0.9,1.5-1.6,2.9-1.6c1.2,0,2.2,0.5,2.7,1.7
	c0.7-1.2,2-1.7,3.2-1.7c1.7,0,3.1,1.1,3.1,3.7v6h-2.2V8.7c0-1.4-0.6-2-1.7-2c-1.1,0-2.1,0.7-2.1,2.2v5.6h-2.2V8.7c0-1.4-0.6-2-1.7-2
	c-1.1,0-2.1,0.7-2.1,2.2v5.6H43.6z M62.2,14.7c-1.7,0-3.2-0.8-3.2-2.8c0-2.2,2.1-3,4.8-3H65V8.4c0-1.3-0.4-1.9-1.7-1.9
	c-1.1,0-1.7,0.5-1.8,1.5h-2.1c0.2-2.2,1.9-3.1,4-3.1s3.8,0.9,3.8,3.4v6.2h-2.1v-1.2C64.5,14.2,63.6,14.7,62.2,14.7z M62.7,13.1
	c1.3,0,2.3-0.7,2.3-1.9v-0.9h-1.1c-1.7,0-2.7,0.4-2.7,1.5C61.2,12.6,61.6,13.1,62.7,13.1z M69.4,14.5V5.1h2.2v1.5
	c0.5-0.9,1.5-1.7,3-1.7c1.9,0,3.2,1.1,3.2,3.7v5.9h-2.2V8.8c0-1.4-0.6-2.1-1.9-2.1c-1.2,0-2.2,0.8-2.2,2.3v5.5H69.4z M80,14.5V0.7
	h2.2v5.9c0.5-0.9,1.5-1.7,3-1.7c1.9,0,3.2,1.1,3.2,3.7v5.9h-2.2V8.8c0-1.4-0.6-2.1-1.9-2.1c-1.2,0-2.2,0.8-2.2,2.3v5.5H80z M93,14.7
	c-1.7,0-3.2-0.8-3.2-2.8c0-2.2,2.1-3,4.8-3h1.2V8.4c0-1.3-0.4-1.9-1.7-1.9c-1.1,0-1.7,0.5-1.8,1.5h-2.1c0.2-2.2,1.9-3.1,4-3.1
	c2.1,0,3.8,0.9,3.8,3.4v6.2h-2.1v-1.2C95.3,14.2,94.4,14.7,93,14.7z M93.5,13.1c1.3,0,2.3-0.7,2.3-1.9v-0.9h-1.1
	c-1.7,0-2.7,0.4-2.7,1.5C92,12.6,92.5,13.1,93.5,13.1z M95.3,3.6c-0.9,0-1.5-0.7-2-0.7c-0.3,0-0.6,0.3-0.7,0.7h-1.3
	c0.1-1.5,0.9-2.4,1.9-2.4c0.8,0,1.5,0.7,2,0.7c0.3,0,0.6-0.3,0.6-0.7h1.3C97.1,2.7,96.3,3.6,95.3,3.6z M104.1,14.5V5.1h2.2v1.4
	c0.4-0.9,1.5-1.6,2.9-1.6c1.2,0,2.2,0.5,2.7,1.7c0.7-1.2,2-1.7,3.2-1.7c1.7,0,3.1,1.1,3.1,3.7v6h-2.2V8.7c0-1.4-0.6-2-1.7-2
	s-2.1,0.7-2.1,2.2v5.6H110V8.7c0-1.4-0.6-2-1.7-2c-1.1,0-2.1,0.7-2.1,2.2v5.6H104.1z M124.4,14.7c-2.8,0-4.8-1.8-4.8-4.8V9.7
	c0-2.9,2-4.9,4.7-4.9c2.3,0,4.4,1.4,4.4,4.8v0.6h-6.9c0.1,1.8,1,2.8,2.6,2.8c1.3,0,2-0.5,2.2-1.4h2.1
	C128.4,13.6,126.8,14.7,124.4,14.7z M121.9,8.8h4.7c-0.1-1.6-0.9-2.3-2.3-2.3C123,6.5,122.1,7.4,121.9,8.8z M130.4,14.5V0.7h2.2
	v13.8H130.4z M134.9,14.5V0.7h2.2v5.9c0.4-0.9,1.5-1.7,3-1.7c1.9,0,3.2,1.1,3.2,3.7v5.9h-2.2V8.8c0-1.4-0.6-2.1-1.9-2.1
	C138,6.7,137,7.5,137,9v5.5H134.9z M149.7,13c1.6,0,2.6-1.2,2.6-3.1V9.7c0-1.9-1-3.1-2.6-3.1c-1.6,0-2.6,1.2-2.6,3.1v0.1
	C147.1,11.8,148,13,149.7,13z M149.7,14.7c-2.8,0-4.8-1.9-4.8-4.8V9.7c0-2.9,2.1-4.9,4.8-4.9c2.8,0,4.8,1.9,4.8,4.8v0.1
	C154.5,12.8,152.4,14.7,149.7,14.7z M156.1,14.5V5.1h2.2v1.8c0.6-1.2,1.5-1.9,3.1-1.9v2c-1.9,0-3.1,0.6-3.1,2.6v4.9H156.1z"/>
</svg>
