<svg width="105" height="16" viewBox="0 0 105 16" fill="none" xmlns="http://www.w3.org/2000/svg">
<path d="M6.16494 11.045C8.18994 11.045 9.46494 9.5 9.46494 7.175V7.055C9.46494 4.85 8.23494 3.215 6.13494 3.215C4.03494 3.215 2.78994 4.76 2.78994 7.07V7.19C2.78994 9.53 4.21494 11.045 6.16494 11.045ZM6.13494 12.65C2.84994 12.65 0.704938 10.295 0.704938 7.205V7.085C0.704938 3.95 2.95494 1.625 6.13494 1.625C9.32994 1.625 11.5349 3.89 11.5349 7.04V7.16C11.5349 10.295 9.38994 12.65 6.13494 12.65ZM16.601 12.5V6.02H15.536V4.655H16.601V3.605C16.601 1.88 17.561 0.949999 19.241 0.949999C19.676 0.949999 19.946 0.995 20.276 1.1V2.51C20.066 2.435 19.781 2.375 19.451 2.375C18.716 2.375 18.416 2.855 18.416 3.53V4.655H20.201V6.02H18.416V12.5H16.601ZM24.0455 12.65C22.5005 12.65 21.3455 11.765 21.3455 9.68V4.655H23.1605V9.47C23.1605 10.655 23.6555 11.195 24.7055 11.195C25.6805 11.195 26.5355 10.565 26.5355 9.32V4.655H28.3505V12.5H26.5355V11.27C26.1455 12.035 25.3205 12.65 24.0455 12.65ZM32.8726 12.635C31.3126 12.635 30.5026 11.795 30.5026 10.31V6.02H29.4526V4.655H30.5026V2.93H32.3176V4.655H34.0426V6.02H32.3176V10.145C32.3176 10.835 32.6476 11.15 33.2176 11.15C33.5776 11.15 33.8476 11.105 34.1026 11V12.44C33.8176 12.545 33.4276 12.635 32.8726 12.635ZM38.0647 12.65C36.5197 12.65 35.3647 11.765 35.3647 9.68V4.655H37.1797V9.47C37.1797 10.655 37.6747 11.195 38.7247 11.195C39.6997 11.195 40.5547 10.565 40.5547 9.32V4.655H42.3697V12.5H40.5547V11.27C40.1647 12.035 39.3397 12.65 38.0647 12.65ZM44.2217 12.5V4.655H46.0367V6.125C46.5317 5.135 47.2667 4.55 48.5867 4.535V6.23C46.9967 6.245 46.0367 6.755 46.0367 8.42V12.5H44.2217ZM53.2471 11.24C54.5971 11.24 55.4071 10.235 55.4071 8.63V8.525C55.4071 6.905 54.5971 5.915 53.2471 5.915C51.8971 5.915 51.0721 6.89 51.0721 8.51V8.63C51.0721 10.235 51.8671 11.24 53.2471 11.24ZM53.2321 12.65C50.9221 12.65 49.2121 11.045 49.2121 8.66V8.54C49.2121 6.11 50.9371 4.49 53.2471 4.49C55.5421 4.49 57.2671 6.095 57.2671 8.495V8.615C57.2671 11.06 55.5421 12.65 53.2321 12.65ZM60.8463 15.32V13.925C61.6413 13.865 61.9263 13.475 61.9263 12.815V4.655H63.7413V12.77C63.7413 14.36 63.0213 15.29 60.8463 15.32ZM62.8113 3.365C62.2113 3.365 61.7313 2.915 61.7313 2.33C61.7313 1.73 62.2113 1.28 62.8113 1.28C63.4113 1.28 63.8913 1.73 63.8913 2.33C63.8913 2.915 63.4113 3.365 62.8113 3.365ZM67.7085 12.65C66.2685 12.65 65.0835 11.96 65.0835 10.325C65.0835 8.495 66.8535 7.835 69.1035 7.835H70.0785V7.43C70.0785 6.38 69.7185 5.855 68.6535 5.855C67.7085 5.855 67.2435 6.305 67.1535 7.085H65.3985C65.5485 5.255 67.0035 4.49 68.7585 4.49C70.5135 4.49 71.8935 5.21 71.8935 7.355V12.5H70.1085V11.54C69.5985 12.215 68.9085 12.65 67.7085 12.65ZM68.1435 11.345C69.2535 11.345 70.0785 10.76 70.0785 9.755V8.975H69.1485C67.7685 8.975 66.8835 9.29 66.8835 10.25C66.8835 10.91 67.2435 11.345 68.1435 11.345ZM68.0085 3.485L68.8935 1.16H70.9035L69.3435 3.485H68.0085ZM80.3981 12.65C78.0881 12.65 76.4231 11.135 76.4231 8.66V8.54C76.4231 6.11 78.0881 4.49 80.3231 4.49C82.2731 4.49 84.0281 5.645 84.0281 8.45V8.975H78.2831C78.3431 10.46 79.0931 11.3 80.4431 11.3C81.5381 11.3 82.1081 10.865 82.2431 10.1H83.9981C83.7431 11.75 82.4081 12.65 80.3981 12.65ZM78.3131 7.76H82.2281C82.1381 6.41 81.4481 5.81 80.3231 5.81C79.2281 5.81 78.4931 6.545 78.3131 7.76ZM88.1075 12.65C86.0825 12.65 84.8975 11.72 84.8225 10.055H86.5325C86.6225 10.85 87.0275 11.315 88.0925 11.315C89.0675 11.315 89.5025 10.97 89.5025 10.31C89.5025 9.665 88.9775 9.425 87.8225 9.23C85.7525 8.9 84.9875 8.315 84.9875 6.845C84.9875 5.27 86.4575 4.49 87.9275 4.49C89.5325 4.49 90.8075 5.09 91.0025 6.86H89.3225C89.1725 6.14 88.7675 5.81 87.9275 5.81C87.1475 5.81 86.6825 6.185 86.6825 6.74C86.6825 7.31 87.0575 7.535 88.3025 7.745C90.1475 8.03 91.2425 8.48 91.2425 10.145C91.2425 11.735 90.1175 12.65 88.1075 12.65ZM95.2046 12.635C93.6446 12.635 92.8346 11.795 92.8346 10.31V6.02H91.7846V4.655H92.8346V2.93H94.6496V4.655H96.3746V6.02H94.6496V10.145C94.6496 10.835 94.9796 11.15 95.5496 11.15C95.9096 11.15 96.1796 11.105 96.4346 11V12.44C96.1496 12.545 95.7596 12.635 95.2046 12.635ZM99.8999 12.65C98.4599 12.65 97.2749 11.96 97.2749 10.325C97.2749 8.495 99.0449 7.835 101.295 7.835H102.27V7.43C102.27 6.38 101.91 5.855 100.845 5.855C99.8999 5.855 99.4349 6.305 99.3449 7.085H97.5899C97.7399 5.255 99.1949 4.49 100.95 4.49C102.705 4.49 104.085 5.21 104.085 7.355V12.5H102.3V11.54C101.79 12.215 101.1 12.65 99.8999 12.65ZM100.335 11.345C101.445 11.345 102.27 10.76 102.27 9.755V8.975H101.34C99.9599 8.975 99.0749 9.29 99.0749 10.25C99.0749 10.91 99.4349 11.345 100.335 11.345ZM100.2 3.485L101.085 1.16H103.095L101.535 3.485H100.2Z" fill="#DD5900"/>
</svg>
