<svg width="213" height="15" viewBox="0 0 213 15" fill="none" xmlns="http://www.w3.org/2000/svg">
<path d="M0.0949384 12V4.155H1.90994V5.625C2.40494 4.635 3.13994 4.05 4.45994 4.035V5.73C2.86994 5.745 1.90994 6.255 1.90994 7.92V12H0.0949384ZM9.06037 12.15C6.75037 12.15 5.08537 10.635 5.08537 8.16V8.04C5.08537 5.61 6.75037 3.99 8.98537 3.99C10.9354 3.99 12.6904 5.145 12.6904 7.95V8.475H6.94537C7.00537 9.96 7.75537 10.8 9.10537 10.8C10.2004 10.8 10.7704 10.365 10.9054 9.6H12.6604C12.4054 11.25 11.0704 12.15 9.06037 12.15ZM6.97537 7.26H10.8904C10.8004 5.91 10.1104 5.31 8.98537 5.31C7.89037 5.31 7.15537 6.045 6.97537 7.26ZM16.7698 12.15C14.7448 12.15 13.5598 11.22 13.4848 9.555H15.1948C15.2848 10.35 15.6898 10.815 16.7548 10.815C17.7298 10.815 18.1648 10.47 18.1648 9.81C18.1648 9.165 17.6398 8.925 16.4848 8.73C14.4148 8.4 13.6498 7.815 13.6498 6.345C13.6498 4.77 15.1198 3.99 16.5898 3.99C18.1948 3.99 19.4698 4.59 19.6648 6.36H17.9848C17.8348 5.64 17.4298 5.31 16.5898 5.31C15.8098 5.31 15.3448 5.685 15.3448 6.24C15.3448 6.81 15.7198 7.035 16.9648 7.245C18.8098 7.53 19.9048 7.98 19.9048 9.645C19.9048 11.235 18.7798 12.15 16.7698 12.15ZM21.1969 14.685V4.155H23.0119V5.415C23.4469 4.665 24.4219 3.99 25.5769 3.99C27.5419 3.99 29.0569 5.445 29.0569 7.98V8.1C29.0569 10.62 27.6019 12.15 25.5769 12.15C24.3319 12.15 23.4319 11.535 23.0119 10.77V14.685H21.1969ZM25.1269 10.71C26.4619 10.71 27.1969 9.81 27.1969 8.13V8.01C27.1969 6.27 26.2969 5.415 25.1119 5.415C23.8519 5.415 22.9519 6.27 22.9519 8.01V8.13C22.9519 9.885 23.8069 10.71 25.1269 10.71ZM33.8991 10.74C35.2491 10.74 36.0591 9.735 36.0591 8.13V8.025C36.0591 6.405 35.2491 5.415 33.8991 5.415C32.5491 5.415 31.7241 6.39 31.7241 8.01V8.13C31.7241 9.735 32.5191 10.74 33.8991 10.74ZM33.8841 12.15C31.5741 12.15 29.8641 10.545 29.8641 8.16V8.04C29.8641 5.61 31.5891 3.99 33.8991 3.99C36.1941 3.99 37.9191 5.595 37.9191 7.995V8.115C37.9191 10.56 36.1941 12.15 33.8841 12.15ZM39.259 12V4.155H41.074V5.4C41.449 4.635 42.319 3.99 43.609 3.99C45.184 3.99 46.294 4.905 46.294 7.065V12H44.479V7.23C44.479 6.045 43.999 5.505 42.919 5.505C41.899 5.505 41.074 6.135 41.074 7.38V12H39.259ZM50.77 12.15C48.745 12.15 47.56 11.22 47.485 9.555H49.195C49.285 10.35 49.69 10.815 50.755 10.815C51.73 10.815 52.165 10.47 52.165 9.81C52.165 9.165 51.64 8.925 50.485 8.73C48.415 8.4 47.65 7.815 47.65 6.345C47.65 4.77 49.12 3.99 50.59 3.99C52.195 3.99 53.47 4.59 53.665 6.36H51.985C51.835 5.64 51.43 5.31 50.59 5.31C49.81 5.31 49.345 5.685 49.345 6.24C49.345 6.81 49.72 7.035 50.965 7.245C52.81 7.53 53.905 7.98 53.905 9.645C53.905 11.235 52.78 12.15 50.77 12.15ZM57.2521 12.15C55.8121 12.15 54.6271 11.46 54.6271 9.825C54.6271 7.995 56.3971 7.335 58.6471 7.335H59.6221V6.93C59.6221 5.88 59.2621 5.355 58.1971 5.355C57.2521 5.355 56.7871 5.805 56.6971 6.585H54.9421C55.0921 4.755 56.5471 3.99 58.3021 3.99C60.0571 3.99 61.4371 4.71 61.4371 6.855V12H59.6521V11.04C59.1421 11.715 58.4521 12.15 57.2521 12.15ZM57.6871 10.845C58.7971 10.845 59.6221 10.26 59.6221 9.255V8.475H58.6921C57.3121 8.475 56.4271 8.79 56.4271 9.75C56.4271 10.41 56.7871 10.845 57.6871 10.845ZM67.5974 12.15C66.3524 12.15 65.4524 11.535 65.0324 10.74V12H63.2174V0.524999H65.0324V5.415C65.4674 4.665 66.4424 3.99 67.5974 3.99C69.5624 3.99 71.0774 5.445 71.0774 7.98V8.1C71.0774 10.62 69.6224 12.15 67.5974 12.15ZM67.1474 10.71C68.4824 10.71 69.2174 9.81 69.2174 8.13V8.01C69.2174 6.27 68.3174 5.415 67.1324 5.415C65.8724 5.415 64.9724 6.27 64.9724 8.01V8.13C64.9724 9.885 65.8274 10.71 67.1474 10.71ZM72.4546 12V4.155H74.2696V12H72.4546ZM73.3396 2.865C72.7396 2.865 72.2596 2.415 72.2596 1.83C72.2596 1.23 72.7396 0.78 73.3396 0.78C73.9396 0.78 74.4196 1.23 74.4196 1.83C74.4196 2.415 73.9396 2.865 73.3396 2.865ZM76.2269 12V0.524999H78.0419V12H76.2269ZM79.9991 12V4.155H81.8141V12H79.9991ZM80.8841 2.865C80.2841 2.865 79.8041 2.415 79.8041 1.83C79.8041 1.23 80.2841 0.78 80.8841 0.78C81.4841 0.78 81.9641 1.23 81.9641 1.83C81.9641 2.415 81.4841 2.865 80.8841 2.865ZM86.6664 12.15C84.7014 12.15 83.2164 10.755 83.2164 8.205V8.085C83.2164 5.58 84.7014 3.99 86.7414 3.99C88.0164 3.99 88.8114 4.575 89.2464 5.355V0.524999H91.0614V12H89.2464V10.68C88.8264 11.46 87.8214 12.15 86.6664 12.15ZM87.1164 10.71C88.3764 10.71 89.3064 9.87 89.3064 8.115V7.995C89.3064 6.27 88.5114 5.415 87.1914 5.415C85.8564 5.415 85.0764 6.345 85.0764 8.04V8.16C85.0764 9.885 85.9464 10.71 87.1164 10.71ZM94.9736 12.15C93.5336 12.15 92.3486 11.46 92.3486 9.825C92.3486 7.995 94.1186 7.335 96.3686 7.335H97.3436V6.93C97.3436 5.88 96.9836 5.355 95.9186 5.355C94.9736 5.355 94.5086 5.805 94.4186 6.585H92.6636C92.8136 4.755 94.2686 3.99 96.0236 3.99C97.7786 3.99 99.1586 4.71 99.1586 6.855V12H97.3736V11.04C96.8636 11.715 96.1736 12.15 94.9736 12.15ZM95.4086 10.845C96.5186 10.845 97.3436 10.26 97.3436 9.255V8.475H96.4136C95.0336 8.475 94.1486 8.79 94.1486 9.75C94.1486 10.41 94.5086 10.845 95.4086 10.845ZM103.879 12.15C101.914 12.15 100.429 10.755 100.429 8.205V8.085C100.429 5.58 101.914 3.99 103.954 3.99C105.229 3.99 106.024 4.575 106.459 5.355V0.524999H108.274V12H106.459V10.68C106.039 11.46 105.034 12.15 103.879 12.15ZM104.329 10.71C105.589 10.71 106.519 9.87 106.519 8.115V7.995C106.519 6.27 105.724 5.415 104.404 5.415C103.069 5.415 102.289 6.345 102.289 8.04V8.16C102.289 9.885 103.159 10.71 104.329 10.71ZM113.581 12.15C111.271 12.15 109.606 10.635 109.606 8.16V8.04C109.606 5.61 111.271 3.99 113.506 3.99C115.456 3.99 117.211 5.145 117.211 7.95V8.475H111.466C111.526 9.96 112.276 10.8 113.626 10.8C114.721 10.8 115.291 10.365 115.426 9.6H117.181C116.926 11.25 115.591 12.15 113.581 12.15ZM111.496 7.26H115.411C115.321 5.91 114.631 5.31 113.506 5.31C112.411 5.31 111.676 6.045 111.496 7.26ZM124.746 12.15C122.781 12.15 121.296 10.755 121.296 8.205V8.085C121.296 5.58 122.781 3.99 124.821 3.99C126.096 3.99 126.891 4.575 127.326 5.355V0.524999H129.141V12H127.326V10.68C126.906 11.46 125.901 12.15 124.746 12.15ZM125.196 10.71C126.456 10.71 127.386 9.87 127.386 8.115V7.995C127.386 6.27 126.591 5.415 125.271 5.415C123.936 5.415 123.156 6.345 123.156 8.04V8.16C123.156 9.885 124.026 10.71 125.196 10.71ZM134.449 12.15C132.139 12.15 130.474 10.635 130.474 8.16V8.04C130.474 5.61 132.139 3.99 134.374 3.99C136.324 3.99 138.079 5.145 138.079 7.95V8.475H132.334C132.394 9.96 133.144 10.8 134.494 10.8C135.589 10.8 136.159 10.365 136.294 9.6H138.049C137.794 11.25 136.459 12.15 134.449 12.15ZM132.364 7.26H136.279C136.189 5.91 135.499 5.31 134.374 5.31C133.279 5.31 132.544 6.045 132.364 7.26ZM145.344 12.135C143.784 12.135 142.974 11.295 142.974 9.81V5.52H141.924V4.155H142.974V2.43H144.789V4.155H146.514V5.52H144.789V9.645C144.789 10.335 145.119 10.65 145.689 10.65C146.049 10.65 146.319 10.605 146.574 10.5V11.94C146.289 12.045 145.899 12.135 145.344 12.135ZM151.421 10.74C152.771 10.74 153.581 9.735 153.581 8.13V8.025C153.581 6.405 152.771 5.415 151.421 5.415C150.071 5.415 149.246 6.39 149.246 8.01V8.13C149.246 9.735 150.041 10.74 151.421 10.74ZM151.406 12.15C149.096 12.15 147.386 10.545 147.386 8.16V8.04C147.386 5.61 149.111 3.99 151.421 3.99C153.716 3.99 155.441 5.595 155.441 7.995V8.115C155.441 10.56 153.716 12.15 151.406 12.15ZM159.721 12.15C157.756 12.15 156.271 10.755 156.271 8.205V8.085C156.271 5.58 157.756 3.99 159.796 3.99C161.071 3.99 161.866 4.575 162.301 5.355V0.524999H164.116V12H162.301V10.68C161.881 11.46 160.876 12.15 159.721 12.15ZM160.171 10.71C161.431 10.71 162.361 9.87 162.361 8.115V7.995C162.361 6.27 161.566 5.415 160.246 5.415C158.911 5.415 158.131 6.345 158.131 8.04V8.16C158.131 9.885 159.001 10.71 160.171 10.71ZM169.483 10.74C170.833 10.74 171.643 9.735 171.643 8.13V8.025C171.643 6.405 170.833 5.415 169.483 5.415C168.133 5.415 167.308 6.39 167.308 8.01V8.13C167.308 9.735 168.103 10.74 169.483 10.74ZM169.468 12.15C167.158 12.15 165.448 10.545 165.448 8.16V8.04C165.448 5.61 167.173 3.99 169.483 3.99C171.778 3.99 173.503 5.595 173.503 7.995V8.115C173.503 10.56 171.778 12.15 169.468 12.15ZM177.528 12.15C175.503 12.15 174.318 11.22 174.243 9.555H175.953C176.043 10.35 176.448 10.815 177.513 10.815C178.488 10.815 178.923 10.47 178.923 9.81C178.923 9.165 178.398 8.925 177.243 8.73C175.173 8.4 174.408 7.815 174.408 6.345C174.408 4.77 175.878 3.99 177.348 3.99C178.953 3.99 180.228 4.59 180.423 6.36H178.743C178.593 5.64 178.188 5.31 177.348 5.31C176.568 5.31 176.103 5.685 176.103 6.24C176.103 6.81 176.478 7.035 177.723 7.245C179.568 7.53 180.663 7.98 180.663 9.645C180.663 11.235 179.538 12.15 177.528 12.15ZM185.23 12V4.155H187.045V5.4C187.42 4.635 188.29 3.99 189.58 3.99C191.155 3.99 192.265 4.905 192.265 7.065V12H190.45V7.23C190.45 6.045 189.97 5.505 188.89 5.505C187.87 5.505 187.045 6.135 187.045 7.38V12H185.23ZM196.8 2.985L197.685 0.659999H199.695L198.135 2.985H196.8ZM197.565 10.74C198.915 10.74 199.725 9.735 199.725 8.13V8.025C199.725 6.405 198.915 5.415 197.565 5.415C196.215 5.415 195.39 6.39 195.39 8.01V8.13C195.39 9.735 196.185 10.74 197.565 10.74ZM197.55 12.15C195.24 12.15 193.53 10.545 193.53 8.16V8.04C193.53 5.61 195.255 3.99 197.565 3.99C199.86 3.99 201.585 5.595 201.585 7.995V8.115C201.585 10.56 199.86 12.15 197.55 12.15ZM205.61 12.15C203.585 12.15 202.4 11.22 202.325 9.555H204.035C204.125 10.35 204.53 10.815 205.595 10.815C206.57 10.815 207.005 10.47 207.005 9.81C207.005 9.165 206.48 8.925 205.325 8.73C203.255 8.4 202.49 7.815 202.49 6.345C202.49 4.77 203.96 3.99 205.43 3.99C207.035 3.99 208.31 4.59 208.505 6.36H206.825C206.675 5.64 206.27 5.31 205.43 5.31C204.65 5.31 204.185 5.685 204.185 6.24C204.185 6.81 204.56 7.035 205.805 7.245C207.65 7.53 208.745 7.98 208.745 9.645C208.745 11.235 207.62 12.15 205.61 12.15ZM211.118 12.105C210.458 12.105 209.933 11.595 209.933 10.935C209.933 10.275 210.458 9.75 211.118 9.75C211.793 9.75 212.318 10.275 212.318 10.935C212.318 11.595 211.793 12.105 211.118 12.105Z" fill="black"/>
</svg>
