<svg width="146" height="13" viewBox="0 0 146 13" fill="none" xmlns="http://www.w3.org/2000/svg">
<path d="M3.14994 12.15C1.70994 12.15 0.524938 11.46 0.524938 9.825C0.524938 7.995 2.29494 7.335 4.54494 7.335H5.51994V6.93C5.51994 5.88 5.15994 5.355 4.09494 5.355C3.14994 5.355 2.68494 5.805 2.59494 6.585H0.839938C0.989938 4.755 2.44494 3.99 4.19994 3.99C5.95494 3.99 7.33494 4.71 7.33494 6.855V12H5.54994V11.04C5.03994 11.715 4.34994 12.15 3.14994 12.15ZM3.58494 10.845C4.69494 10.845 5.51994 10.26 5.51994 9.255V8.475H4.58994C3.20994 8.475 2.32494 8.79 2.32494 9.75C2.32494 10.41 2.68494 10.845 3.58494 10.845ZM12.5503 12.15C10.3003 12.15 8.59025 10.68 8.59025 8.175V8.055C8.59025 5.565 10.3603 3.99 12.5503 3.99C14.2903 3.99 15.9253 4.77 16.1353 6.93H14.3803C14.2303 5.88 13.5403 5.445 12.5803 5.445C11.3353 5.445 10.4503 6.405 10.4503 8.025V8.145C10.4503 9.855 11.2903 10.755 12.6253 10.755C13.5853 10.755 14.4103 10.185 14.5153 9.075H16.1803C16.0453 10.875 14.6803 12.15 12.5503 12.15ZM20.9532 10.74C22.3032 10.74 23.1132 9.735 23.1132 8.13V8.025C23.1132 6.405 22.3032 5.415 20.9532 5.415C19.6032 5.415 18.7782 6.39 18.7782 8.01V8.13C18.7782 9.735 19.5732 10.74 20.9532 10.74ZM20.9382 12.15C18.6282 12.15 16.9182 10.545 16.9182 8.16V8.04C16.9182 5.61 18.6432 3.99 20.9532 3.99C23.2482 3.99 24.9732 5.595 24.9732 7.995V8.115C24.9732 10.56 23.2482 12.15 20.9382 12.15ZM26.3131 12V4.155H28.1281V5.4C28.5031 4.635 29.3731 3.99 30.6631 3.99C32.2381 3.99 33.3481 4.905 33.3481 7.065V12H31.5331V7.23C31.5331 6.045 31.0531 5.505 29.9731 5.505C28.9531 5.505 28.1281 6.135 28.1281 7.38V12H26.3131ZM37.8091 12.135C36.2491 12.135 35.4391 11.295 35.4391 9.81V5.52H34.3891V4.155H35.4391V2.43H37.2541V4.155H38.9791V5.52H37.2541V9.645C37.2541 10.335 37.5841 10.65 38.1541 10.65C38.5141 10.65 38.7841 10.605 39.0391 10.5V11.94C38.7541 12.045 38.3641 12.135 37.8091 12.135ZM43.8262 12.15C41.5162 12.15 39.8512 10.635 39.8512 8.16V8.04C39.8512 5.61 41.5162 3.99 43.7512 3.99C45.7012 3.99 47.4562 5.145 47.4562 7.95V8.475H41.7112C41.7712 9.96 42.5212 10.8 43.8712 10.8C44.9662 10.8 45.5362 10.365 45.6712 9.6H47.4262C47.1712 11.25 45.8362 12.15 43.8262 12.15ZM41.7412 7.26H45.6562C45.5662 5.91 44.8762 5.31 43.7512 5.31C42.6562 5.31 41.9212 6.045 41.7412 7.26ZM52.2124 12.15C49.9624 12.15 48.2524 10.68 48.2524 8.175V8.055C48.2524 5.565 50.0224 3.99 52.2124 3.99C53.9524 3.99 55.5874 4.77 55.7974 6.93H54.0424C53.8924 5.88 53.2024 5.445 52.2424 5.445C50.9974 5.445 50.1124 6.405 50.1124 8.025V8.145C50.1124 9.855 50.9524 10.755 52.2874 10.755C53.2474 10.755 54.0724 10.185 54.1774 9.075H55.8424C55.7074 10.875 54.3424 12.15 52.2124 12.15ZM60.5553 12.15C58.2453 12.15 56.5803 10.635 56.5803 8.16V8.04C56.5803 5.61 58.2453 3.99 60.4803 3.99C62.4303 3.99 64.1853 5.145 64.1853 7.95V8.475H58.4403C58.5003 9.96 59.2503 10.8 60.6003 10.8C61.6953 10.8 62.2653 10.365 62.4003 9.6H64.1553C63.9003 11.25 62.5653 12.15 60.5553 12.15ZM58.4703 7.26H62.3853C62.2953 5.91 61.6053 5.31 60.4803 5.31C59.3853 5.31 58.6503 6.045 58.4703 7.26ZM65.5065 12V4.155H67.3215V5.4C67.6965 4.635 68.5665 3.99 69.8565 3.99C71.4315 3.99 72.5415 4.905 72.5415 7.065V12H70.7265V7.23C70.7265 6.045 70.2465 5.505 69.1665 5.505C68.1465 5.505 67.3215 6.135 67.3215 7.38V12H65.5065ZM77.2724 12.15C75.3074 12.15 73.8224 10.755 73.8224 8.205V8.085C73.8224 5.58 75.3074 3.99 77.3474 3.99C78.6224 3.99 79.4174 4.575 79.8524 5.355V0.524999H81.6674V12H79.8524V10.68C79.4324 11.46 78.4274 12.15 77.2724 12.15ZM77.7224 10.71C78.9824 10.71 79.9124 9.87 79.9124 8.115V7.995C79.9124 6.27 79.1174 5.415 77.7974 5.415C76.4624 5.415 75.6824 6.345 75.6824 8.04V8.16C75.6824 9.885 76.5524 10.71 77.7224 10.71ZM87.0346 10.74C88.3846 10.74 89.1946 9.735 89.1946 8.13V8.025C89.1946 6.405 88.3846 5.415 87.0346 5.415C85.6846 5.415 84.8596 6.39 84.8596 8.01V8.13C84.8596 9.735 85.6546 10.74 87.0346 10.74ZM87.0196 12.15C84.7096 12.15 82.9996 10.545 82.9996 8.16V8.04C82.9996 5.61 84.7246 3.99 87.0346 3.99C89.3296 3.99 91.0546 5.595 91.0546 7.995V8.115C91.0546 10.56 89.3296 12.15 87.0196 12.15ZM95.6688 12V4.155H97.4838V5.4C97.8588 4.635 98.7288 3.99 100.019 3.99C101.594 3.99 102.704 4.905 102.704 7.065V12H100.889V7.23C100.889 6.045 100.409 5.505 99.3288 5.505C98.3088 5.505 97.4838 6.135 97.4838 7.38V12H95.6688ZM106.55 12.15C105.11 12.15 103.925 11.46 103.925 9.825C103.925 7.995 105.695 7.335 107.945 7.335H108.92V6.93C108.92 5.88 108.56 5.355 107.495 5.355C106.55 5.355 106.085 5.805 105.995 6.585H104.24C104.39 4.755 105.845 3.99 107.6 3.99C109.355 3.99 110.735 4.71 110.735 6.855V12H108.95V11.04C108.44 11.715 107.75 12.15 106.55 12.15ZM106.985 10.845C108.095 10.845 108.92 10.26 108.92 9.255V8.475H107.99C106.61 8.475 105.725 8.79 105.725 9.75C105.725 10.41 106.085 10.845 106.985 10.845ZM115.939 12V1.275H119.779C121.984 1.275 123.289 2.115 123.289 4.065V4.125C123.289 5.19 122.809 6.03 121.594 6.405C123.049 6.72 123.739 7.515 123.739 8.94V9C123.739 10.995 122.419 12 120.064 12H115.939ZM117.889 10.575H119.824C121.159 10.575 121.774 9.975 121.774 8.865V8.805C121.774 7.695 121.159 7.14 119.689 7.14H117.889V10.575ZM117.889 5.79H119.539C120.859 5.79 121.369 5.31 121.369 4.215V4.155C121.369 3.135 120.784 2.7 119.509 2.7H117.889V5.79ZM125.307 12V1.275H127.302V5.835H132.117V1.275H134.127V12H132.117V7.44H127.302V12H125.307ZM136.272 12V1.275H139.722C142.122 1.275 143.697 2.34 143.697 4.59V4.65C143.697 6.915 142.062 7.92 139.767 7.92H138.267V12H136.272ZM138.267 6.48H139.722C141.042 6.48 141.747 5.835 141.747 4.65V4.59C141.747 3.315 140.997 2.82 139.722 2.82H138.267V6.48ZM144.387 12.105C143.727 12.105 143.202 11.595 143.202 10.935C143.202 10.275 143.727 9.75 144.387 9.75C145.062 9.75 145.587 10.275 145.587 10.935C145.587 11.595 145.062 12.105 144.387 12.105Z" fill="#DD5900"/>
</svg>
