<svg width="728" height="90" viewBox="0 0 728 90" fill="none" xmlns="http://www.w3.org/2000/svg">
<g clip-path="url(#clip0_8393_15028)">
<path d="M169.577 15.8047C171.243 15.9659 172.775 16.1815 174.173 16.4502L174.857 16.6113L174.414 20.8838C172.452 20.6688 170.639 20.5079 168.973 20.4004L168.166 26.8906C170.961 27.7774 172.855 28.7581 173.85 29.833C174.871 30.8811 175.382 32.4801 175.382 34.6299C175.382 37.4248 174.535 39.5478 172.842 40.999C171.149 42.4232 168.932 43.1357 166.191 43.1357H166.15L165.546 47.8926C163.558 47.812 162.563 47.7178 162.562 47.6104L163.127 42.9346C161.139 42.6927 159.473 42.4103 158.129 42.0879L157.322 41.9268L157.847 37.7344C159.97 38.03 161.932 38.2314 163.732 38.3389L164.619 31.3242C161.851 30.4911 159.889 29.4832 158.733 28.3008C157.578 27.1183 157 25.5062 157 23.4639C157 20.8034 157.807 18.828 159.419 17.5381C161.031 16.2214 163.249 15.5625 166.07 15.5625H166.594L167.319 10H170.303L169.577 15.8047ZM166.755 38.3789C168.932 38.1371 170.02 37.0085 170.021 34.9932C170.021 34.3482 169.832 33.824 169.456 33.4209C169.107 32.9909 168.462 32.5872 167.521 32.2109L166.755 38.3789ZM165.989 20.3193C163.571 20.4269 162.361 21.3548 162.361 23.1016C162.361 23.7462 162.563 24.2699 162.966 24.6729C163.369 25.0759 164.148 25.4929 165.304 25.9229L165.989 20.3193Z" fill="#FFE344"/>
<path d="M240.651 10C247.477 10 252.611 12.204 256.051 16.6113C259.544 21.0187 261.291 28.1137 261.291 37.8955C261.291 47.6237 259.571 54.6114 256.131 58.8574C252.691 63.0495 247.531 65.1455 240.651 65.1455C233.772 65.1455 228.612 63.0496 225.172 58.8574C221.732 54.6114 220.013 47.6237 220.013 37.8955C220.013 28.1136 221.732 21.0187 225.172 16.6113C228.665 12.204 233.825 10 240.651 10ZM284.153 10C290.979 10.0001 296.112 12.2041 299.552 16.6113C303.045 21.0187 304.792 28.1136 304.792 37.8955C304.792 47.6237 303.072 54.6114 299.632 58.8574C296.192 63.0493 291.033 65.1454 284.153 65.1455C277.274 65.1455 272.114 63.0494 268.674 58.8574C265.234 54.6114 263.514 47.6237 263.514 37.8955C263.514 28.1134 265.234 21.0187 268.674 16.6113C272.167 12.204 277.327 10 284.153 10ZM190.539 45.7158H201.987V30.8008H213.113V45.7158H218.192V55.3906H213.113V64.1777H201.987V55.3906H179.413V46.9248L192.555 10.9678H204.81L190.539 45.7158ZM240.651 19.6748C237.373 19.6749 235.008 21.0187 233.557 23.7061C232.159 26.3935 231.461 31.0426 231.461 37.6533C231.461 44.2643 232.186 48.8869 233.638 51.5205C235.089 54.154 237.454 55.4707 240.732 55.4707C244.011 55.4706 246.349 54.1539 247.746 51.5205C249.144 48.8869 249.843 44.2643 249.843 37.6533C249.843 30.9887 249.143 26.3397 247.746 23.7061C246.349 21.0187 243.984 19.6748 240.651 19.6748ZM284.153 19.6748C280.875 19.6748 278.51 21.0187 277.059 23.7061C275.661 26.3935 274.962 31.0424 274.962 37.6533C274.962 44.2643 275.687 48.8869 277.139 51.5205C278.59 54.1541 280.955 55.4707 284.233 55.4707C287.512 55.4707 289.851 54.1542 291.248 51.5205C292.645 48.8868 293.344 44.2643 293.344 37.6533C293.344 30.9889 292.645 26.3398 291.248 23.7061C289.851 21.0188 287.485 19.6749 284.153 19.6748Z" fill="#FFE344"/>
</g>
<defs>
<clipPath id="clip0_8393_15028">
<rect width="728" height="90" fill="white"/>
</clipPath>
</defs>
</svg>
