<svg width="728" height="90" viewBox="0 0 728 90" fill="none" xmlns="http://www.w3.org/2000/svg">
<g clip-path="url(#clip0_8393_15029)">
<path d="M315.724 36V26H317.904V36H315.724ZM315.724 24.3V22H317.904V24.3H315.724ZM322.329 36H320.149V26H322.309V26.62C323.282 26.06 324.202 25.78 325.069 25.78C326.402 25.78 327.309 26.16 327.789 26.92C328.282 27.6667 328.529 28.9067 328.529 30.64V36H326.369V30.7C326.369 29.62 326.249 28.8533 326.009 28.4C325.782 27.9467 325.309 27.72 324.589 27.72C323.909 27.72 323.255 27.8533 322.629 28.12L322.329 28.24V36ZM341.781 34.2L342.341 34.14L342.381 35.76C340.861 36.0667 339.514 36.22 338.341 36.22C336.861 36.22 335.794 35.8133 335.141 35C334.501 34.1867 334.181 32.8867 334.181 31.1C334.181 27.5533 335.628 25.78 338.521 25.78C341.321 25.78 342.721 27.3067 342.721 30.36L342.581 31.92H336.381C336.394 32.7467 336.574 33.3533 336.921 33.74C337.268 34.1267 337.914 34.32 338.861 34.32C339.808 34.32 340.781 34.28 341.781 34.2ZM340.581 30.24C340.581 29.2533 340.421 28.5667 340.101 28.18C339.794 27.78 339.268 27.58 338.521 27.58C337.774 27.58 337.228 27.7867 336.881 28.2C336.548 28.6133 336.374 29.2933 336.361 30.24H340.581ZM344.537 36V21.84H346.717V36H344.537ZM356.196 34.2L356.756 34.14L356.796 35.76C355.276 36.0667 353.929 36.22 352.756 36.22C351.276 36.22 350.209 35.8133 349.556 35C348.916 34.1867 348.596 32.8867 348.596 31.1C348.596 27.5533 350.043 25.78 352.936 25.78C355.736 25.78 357.136 27.3067 357.136 30.36L356.996 31.92H350.796C350.809 32.7467 350.989 33.3533 351.336 33.74C351.683 34.1267 352.329 34.32 353.276 34.32C354.223 34.32 355.196 34.28 356.196 34.2ZM354.996 30.24C354.996 29.2533 354.836 28.5667 354.516 28.18C354.209 27.78 353.683 27.58 352.936 27.58C352.189 27.58 351.643 27.7867 351.296 28.2C350.963 28.6133 350.789 29.2933 350.776 30.24H354.996ZM362.572 25.78C363.279 25.78 364.112 25.8733 365.072 26.06L365.572 26.16L365.492 27.88C364.439 27.7733 363.659 27.72 363.152 27.72C362.139 27.72 361.459 27.9467 361.112 28.4C360.765 28.8533 360.592 29.7067 360.592 30.96C360.592 32.2133 360.759 33.08 361.092 33.56C361.425 34.04 362.119 34.28 363.172 34.28L365.512 34.12L365.572 35.86C364.225 36.1 363.212 36.22 362.532 36.22C361.012 36.22 359.939 35.8133 359.312 35C358.699 34.1733 358.392 32.8267 358.392 30.96C358.392 29.0933 358.719 27.7667 359.372 26.98C360.025 26.18 361.092 25.78 362.572 25.78ZM372.66 27.86H369.9V32.26C369.9 33.0733 369.96 33.6133 370.08 33.88C370.2 34.1467 370.506 34.28 371 34.28L372.64 34.22L372.74 35.96C371.846 36.1333 371.166 36.22 370.7 36.22C369.566 36.22 368.786 35.96 368.36 35.44C367.946 34.92 367.74 33.94 367.74 32.5V27.86H366.46V26H367.74V23.1H369.9V26H372.66V27.86ZM374.048 36V26H376.208V27.2C377.341 26.4667 378.474 25.9933 379.608 25.78V27.96C378.461 28.1867 377.481 28.48 376.668 28.84L376.228 29.02V36H374.048ZM380.874 36V26H383.054V36H380.874ZM380.874 24.3V22H383.054V24.3H380.874ZM389.039 25.78C389.745 25.78 390.579 25.8733 391.539 26.06L392.039 26.16L391.959 27.88C390.905 27.7733 390.125 27.72 389.619 27.72C388.605 27.72 387.925 27.9467 387.579 28.4C387.232 28.8533 387.059 29.7067 387.059 30.96C387.059 32.2133 387.225 33.08 387.559 33.56C387.892 34.04 388.585 34.28 389.639 34.28L391.979 34.12L392.039 35.86C390.692 36.1 389.679 36.22 388.999 36.22C387.479 36.22 386.405 35.8133 385.779 35C385.165 34.1733 384.859 32.8267 384.859 30.96C384.859 29.0933 385.185 27.7667 385.839 26.98C386.492 26.18 387.559 25.78 389.039 25.78ZM393.746 36V26H395.926V36H393.746ZM393.746 24.3V22H395.926V24.3H393.746ZM403.55 27.86H400.79V32.26C400.79 33.0733 400.85 33.6133 400.97 33.88C401.09 34.1467 401.397 34.28 401.89 34.28L403.53 34.22L403.63 35.96C402.737 36.1333 402.057 36.22 401.59 36.22C400.457 36.22 399.677 35.96 399.25 35.44C398.837 34.92 398.63 33.94 398.63 32.5V27.86H397.35V26H398.63V23.1H400.79V26H403.55V27.86ZM404.018 26H406.158L408.278 34.14H408.818L410.938 26H413.098L409.298 40.3H407.158L408.358 36H406.638L404.018 26ZM423.037 25.78C424.41 25.78 425.397 26.1667 425.997 26.94C426.61 27.7 426.917 29.0533 426.917 31C426.917 32.9467 426.557 34.3067 425.837 35.08C425.117 35.84 423.85 36.22 422.037 36.22C421.41 36.22 420.417 36.16 419.057 36.04L418.377 35.98V21.84H420.537V26.38C421.457 25.98 422.29 25.78 423.037 25.78ZM422.037 34.28C423.103 34.28 423.81 34.0333 424.157 33.54C424.517 33.0333 424.697 32.18 424.697 30.98C424.697 29.78 424.543 28.94 424.237 28.46C423.943 27.9667 423.457 27.72 422.777 27.72C422.137 27.72 421.497 27.82 420.857 28.02L420.537 28.12V34.2C421.27 34.2533 421.77 34.28 422.037 34.28ZM428.699 36V26H430.879V36H428.699ZM428.699 24.3V22H430.879V24.3H428.699ZM433.244 36V21.84H435.424V36H433.244ZM437.902 36V21.84H440.082V36H437.902ZM450.175 25.78C450.882 25.78 451.715 25.8733 452.675 26.06L453.175 26.16L453.095 27.88C452.042 27.7733 451.262 27.72 450.755 27.72C449.742 27.72 449.062 27.9467 448.715 28.4C448.369 28.8533 448.195 29.7067 448.195 30.96C448.195 32.2133 448.362 33.08 448.695 33.56C449.029 34.04 449.722 34.28 450.775 34.28L453.115 34.12L453.175 35.86C451.829 36.1 450.815 36.22 450.135 36.22C448.615 36.22 447.542 35.8133 446.915 35C446.302 34.1733 445.995 32.8267 445.995 30.96C445.995 29.0933 446.322 27.7667 446.975 26.98C447.629 26.18 448.695 25.78 450.175 25.78ZM454.883 36V26H457.043V27.2C458.176 26.4667 459.31 25.9933 460.443 25.78V27.96C459.296 28.1867 458.316 28.48 457.503 28.84L457.063 29.02V36H454.883ZM468.751 34.2L469.311 34.14L469.351 35.76C467.831 36.0667 466.485 36.22 465.311 36.22C463.831 36.22 462.765 35.8133 462.111 35C461.471 34.1867 461.151 32.8867 461.151 31.1C461.151 27.5533 462.598 25.78 465.491 25.78C468.291 25.78 469.691 27.3067 469.691 30.36L469.551 31.92H463.351C463.365 32.7467 463.545 33.3533 463.891 33.74C464.238 34.1267 464.885 34.32 465.831 34.32C466.778 34.32 467.751 34.28 468.751 34.2ZM467.551 30.24C467.551 29.2533 467.391 28.5667 467.071 28.18C466.765 27.78 466.238 27.58 465.491 27.58C464.745 27.58 464.198 27.7867 463.851 28.2C463.518 28.6133 463.345 29.2933 463.331 30.24H467.551ZM479.548 21.84V36H477.388V35.48C476.414 35.9733 475.521 36.22 474.708 36.22C473.401 36.22 472.441 35.8267 471.828 35.04C471.228 34.2533 470.928 32.9333 470.928 31.08C470.928 29.2267 471.261 27.88 471.928 27.04C472.608 26.2 473.661 25.78 475.088 25.78C475.568 25.78 476.328 25.8667 477.368 26.04V21.84H479.548ZM477.028 33.92L477.368 33.78V27.86C476.568 27.7267 475.828 27.66 475.148 27.66C473.801 27.66 473.128 28.78 473.128 31.02C473.128 32.2467 473.281 33.1 473.588 33.58C473.908 34.0467 474.408 34.28 475.088 34.28C475.768 34.28 476.414 34.16 477.028 33.92ZM481.788 36V26H483.968V36H481.788ZM481.788 24.3V22H483.968V24.3H481.788ZM491.593 27.86H488.833V32.26C488.833 33.0733 488.893 33.6133 489.013 33.88C489.133 34.1467 489.439 34.28 489.933 34.28L491.573 34.22L491.673 35.96C490.779 36.1333 490.099 36.22 489.633 36.22C488.499 36.22 487.719 35.96 487.293 35.44C486.879 34.92 486.673 33.94 486.673 32.5V27.86H485.393V26H486.673V23.1H488.833V26H491.593V27.86ZM499.921 28.06C498.347 27.8467 497.207 27.74 496.501 27.74C495.794 27.74 495.301 27.8267 495.021 28C494.754 28.16 494.621 28.42 494.621 28.78C494.621 29.14 494.767 29.3933 495.061 29.54C495.367 29.6867 496.074 29.86 497.181 30.06C498.301 30.2467 499.094 30.5467 499.561 30.96C500.027 31.3733 500.261 32.1067 500.261 33.16C500.261 34.2133 499.921 34.9867 499.241 35.48C498.574 35.9733 497.594 36.22 496.301 36.22C495.487 36.22 494.461 36.1067 493.221 35.88L492.601 35.78L492.681 33.96C494.281 34.1733 495.434 34.28 496.141 34.28C496.847 34.28 497.347 34.1933 497.641 34.02C497.947 33.8467 498.101 33.56 498.101 33.16C498.101 32.76 497.954 32.4867 497.661 32.34C497.381 32.18 496.694 32.0133 495.601 31.84C494.521 31.6533 493.727 31.3667 493.221 30.98C492.714 30.5933 492.461 29.8867 492.461 28.86C492.461 27.8333 492.807 27.0667 493.501 26.56C494.207 26.0533 495.107 25.8 496.201 25.8C497.054 25.8 498.101 25.9067 499.341 26.12L499.961 26.24L499.921 28.06Z" fill="#FFE344"/>
<path d="M314.9 48H316.1L317.716 54.96H317.972L319.876 48.16H321.124L323.028 54.96H323.3L324.9 48H326.1L324.196 56H322.196L320.5 49.744L318.804 56H316.804L314.9 48ZM327.424 56V48H328.624V56H327.424ZM327.424 46.192V44.8H328.624V46.192H327.424ZM334.748 49.04H332.204V52.864C332.204 53.7813 332.268 54.384 332.396 54.672C332.534 54.96 332.854 55.104 333.356 55.104L334.78 55.008L334.86 56C334.145 56.1173 333.601 56.176 333.228 56.176C332.396 56.176 331.82 55.9733 331.5 55.568C331.18 55.1627 331.02 54.3893 331.02 53.248V49.04H329.884V48H331.02V45.552H332.204V48H334.748V49.04ZM337.093 56H335.893V44.512H337.093V48.448C337.947 48.0427 338.768 47.84 339.557 47.84C340.624 47.84 341.339 48.128 341.701 48.704C342.075 49.28 342.261 50.304 342.261 51.776V56H341.061V51.808C341.061 50.6987 340.949 49.9413 340.725 49.536C340.512 49.12 340.053 48.912 339.349 48.912C338.677 48.912 338.027 49.0347 337.397 49.28L337.093 49.392V56ZM349.875 48.912C348.712 48.912 348.131 49.3173 348.131 50.128C348.131 50.5013 348.264 50.768 348.531 50.928C348.797 51.0773 349.405 51.2373 350.355 51.408C351.304 51.568 351.976 51.7973 352.371 52.096C352.765 52.3947 352.963 52.9547 352.963 53.776C352.963 54.5973 352.696 55.2 352.163 55.584C351.64 55.968 350.872 56.16 349.859 56.16C349.197 56.16 348.419 56.0853 347.523 55.936L347.043 55.856L347.107 54.816C348.323 54.9973 349.24 55.088 349.859 55.088C350.477 55.088 350.947 54.992 351.267 54.8C351.597 54.5973 351.763 54.2667 351.763 53.808C351.763 53.3387 351.624 53.024 351.347 52.864C351.069 52.6933 350.461 52.5333 349.523 52.384C348.584 52.2347 347.917 52.016 347.523 51.728C347.128 51.44 346.931 50.9067 346.931 50.128C346.931 49.3493 347.203 48.7733 347.747 48.4C348.301 48.0267 348.989 47.84 349.811 47.84C350.461 47.84 351.277 47.9147 352.259 48.064L352.707 48.144L352.675 49.168C351.491 48.9973 350.557 48.912 349.875 48.912ZM359.92 55.008L360.384 54.96L360.416 55.904C359.2 56.0747 358.16 56.16 357.296 56.16C356.144 56.16 355.328 55.8293 354.848 55.168C354.368 54.496 354.128 53.456 354.128 52.048C354.128 49.2427 355.243 47.84 357.472 47.84C358.549 47.84 359.355 48.144 359.888 48.752C360.421 49.3493 360.688 50.2933 360.688 51.584L360.624 52.496H355.344C355.344 53.3813 355.504 54.0373 355.824 54.464C356.144 54.8907 356.699 55.104 357.488 55.104C358.288 55.104 359.099 55.072 359.92 55.008ZM359.488 51.536C359.488 50.5547 359.328 49.8613 359.008 49.456C358.699 49.0507 358.187 48.848 357.472 48.848C356.768 48.848 356.235 49.0613 355.872 49.488C355.52 49.9147 355.339 50.5973 355.328 51.536H359.488ZM362.334 56V44.512H363.534V56H362.334ZM371.061 55.008L371.525 54.96L371.557 55.904C370.341 56.0747 369.301 56.16 368.437 56.16C367.285 56.16 366.469 55.8293 365.989 55.168C365.509 54.496 365.269 53.456 365.269 52.048C365.269 49.2427 366.384 47.84 368.613 47.84C369.691 47.84 370.496 48.144 371.029 48.752C371.563 49.3493 371.829 50.2933 371.829 51.584L371.765 52.496H366.485C366.485 53.3813 366.645 54.0373 366.965 54.464C367.285 54.8907 367.84 55.104 368.629 55.104C369.429 55.104 370.24 55.072 371.061 55.008ZM370.629 51.536C370.629 50.5547 370.469 49.8613 370.149 49.456C369.84 49.0507 369.328 48.848 368.613 48.848C367.909 48.848 367.376 49.0613 367.013 49.488C366.661 49.9147 366.48 50.5973 366.469 51.536H370.629ZM376.371 47.84C376.723 47.84 377.321 47.904 378.163 48.032L378.547 48.08L378.499 49.056C377.646 48.96 377.017 48.912 376.611 48.912C375.705 48.912 375.086 49.1307 374.755 49.568C374.435 49.9947 374.275 50.7947 374.275 51.968C374.275 53.1307 374.425 53.9413 374.723 54.4C375.033 54.8587 375.667 55.088 376.627 55.088L378.515 54.944L378.563 55.936C377.571 56.0853 376.83 56.16 376.339 56.16C375.091 56.16 374.227 55.84 373.747 55.2C373.278 54.56 373.043 53.4827 373.043 51.968C373.043 50.4427 373.299 49.376 373.811 48.768C374.323 48.1493 375.177 47.84 376.371 47.84ZM384.172 49.04H381.628V52.864C381.628 53.7813 381.692 54.384 381.82 54.672C381.959 54.96 382.279 55.104 382.78 55.104L384.204 55.008L384.284 56C383.57 56.1173 383.026 56.176 382.652 56.176C381.82 56.176 381.244 55.9733 380.924 55.568C380.604 55.1627 380.444 54.3893 380.444 53.248V49.04H379.308V48H380.444V45.552H381.628V48H384.172V49.04ZM390.758 55.008L391.222 54.96L391.254 55.904C390.038 56.0747 388.998 56.16 388.134 56.16C386.982 56.16 386.166 55.8293 385.686 55.168C385.206 54.496 384.966 53.456 384.966 52.048C384.966 49.2427 386.08 47.84 388.31 47.84C389.387 47.84 390.192 48.144 390.726 48.752C391.259 49.3493 391.526 50.2933 391.526 51.584L391.462 52.496H386.182C386.182 53.3813 386.342 54.0373 386.662 54.464C386.982 54.8907 387.536 55.104 388.326 55.104C389.126 55.104 389.936 55.072 390.758 55.008ZM390.326 51.536C390.326 50.5547 390.166 49.8613 389.846 49.456C389.536 49.0507 389.024 48.848 388.31 48.848C387.606 48.848 387.072 49.0613 386.71 49.488C386.358 49.9147 386.176 50.5973 386.166 51.536H390.326ZM399.22 44.512V56H398.036V55.456C397.214 55.9253 396.404 56.16 395.604 56.16C395.177 56.16 394.804 56.1067 394.484 56C394.164 55.8933 393.865 55.7013 393.588 55.424C393.012 54.848 392.724 53.7867 392.724 52.24C392.724 50.6827 392.98 49.5627 393.492 48.88C394.014 48.1867 394.873 47.84 396.068 47.84C396.686 47.84 397.342 47.9093 398.036 48.048V44.512H399.22ZM394.516 54.56C394.686 54.7627 394.868 54.9013 395.06 54.976C395.252 55.0507 395.497 55.088 395.796 55.088C396.105 55.088 396.446 55.04 396.82 54.944C397.204 54.8373 397.502 54.736 397.716 54.64L398.036 54.496V49.072C397.353 48.944 396.718 48.88 396.132 48.88C395.321 48.88 394.756 49.1413 394.436 49.664C394.116 50.176 393.956 50.976 393.956 52.064C393.956 53.3013 394.142 54.1333 394.516 54.56ZM404.42 59.552V48H405.604V48.576C406.415 48.0853 407.215 47.84 408.004 47.84C409.017 47.84 409.753 48.1653 410.212 48.816C410.671 49.456 410.9 50.5173 410.9 52C410.9 53.4827 410.628 54.5493 410.084 55.2C409.551 55.84 408.66 56.16 407.412 56.16C406.761 56.16 406.164 56.1013 405.62 55.984V59.552H404.42ZM407.828 48.912C407.508 48.912 407.161 48.9653 406.788 49.072C406.425 49.1787 406.137 49.2853 405.924 49.392L405.62 49.552V54.944C406.377 55.0613 406.953 55.12 407.348 55.12C408.212 55.12 408.815 54.8747 409.156 54.384C409.508 53.8933 409.684 53.0933 409.684 51.984C409.684 50.8747 409.524 50.0853 409.204 49.616C408.895 49.1467 408.436 48.912 407.828 48.912ZM412.634 56V44.512H413.834V56H412.634ZM421.569 50.416V54.512C421.601 54.9067 421.91 55.1413 422.497 55.216L422.449 56.16C421.606 56.16 420.971 55.9467 420.545 55.52C419.585 55.9467 418.625 56.16 417.665 56.16C416.929 56.16 416.369 55.952 415.985 55.536C415.601 55.12 415.409 54.5227 415.409 53.744C415.409 52.9653 415.606 52.3947 416.001 52.032C416.395 51.6587 417.014 51.4293 417.857 51.344L420.369 51.104V50.416C420.369 49.872 420.251 49.4827 420.017 49.248C419.782 49.0133 419.462 48.896 419.057 48.896C418.203 48.896 417.318 48.9493 416.401 49.056L415.905 49.104L415.857 48.192C417.03 47.9573 418.07 47.84 418.977 47.84C419.883 47.84 420.539 48.048 420.945 48.464C421.361 48.88 421.569 49.5307 421.569 50.416ZM416.641 53.68C416.641 54.6613 417.046 55.152 417.857 55.152C418.582 55.152 419.297 55.0293 420.001 54.784L420.369 54.656V52.016L418.001 52.24C417.521 52.2827 417.174 52.4213 416.961 52.656C416.747 52.8907 416.641 53.232 416.641 53.68ZM424.816 56H423.616V48H424.8V48.56C425.664 48.08 426.491 47.84 427.28 47.84C428.347 47.84 429.062 48.128 429.424 48.704C429.798 49.28 429.984 50.304 429.984 51.776V56H428.8V51.808C428.8 50.6987 428.688 49.9413 428.464 49.536C428.251 49.12 427.787 48.912 427.072 48.912C426.731 48.912 426.368 48.9653 425.984 49.072C425.611 49.168 425.323 49.264 425.12 49.36L424.816 49.504V56ZM434.402 48.912C433.239 48.912 432.658 49.3173 432.658 50.128C432.658 50.5013 432.791 50.768 433.058 50.928C433.325 51.0773 433.933 51.2373 434.882 51.408C435.831 51.568 436.503 51.7973 436.898 52.096C437.293 52.3947 437.49 52.9547 437.49 53.776C437.49 54.5973 437.223 55.2 436.69 55.584C436.167 55.968 435.399 56.16 434.386 56.16C433.725 56.16 432.946 56.0853 432.05 55.936L431.57 55.856L431.634 54.816C432.85 54.9973 433.767 55.088 434.386 55.088C435.005 55.088 435.474 54.992 435.794 54.8C436.125 54.5973 436.29 54.2667 436.29 53.808C436.29 53.3387 436.151 53.024 435.874 52.864C435.597 52.6933 434.989 52.5333 434.05 52.384C433.111 52.2347 432.445 52.016 432.05 51.728C431.655 51.44 431.458 50.9067 431.458 50.128C431.458 49.3493 431.73 48.7733 432.274 48.4C432.829 48.0267 433.517 47.84 434.338 47.84C434.989 47.84 435.805 47.9147 436.786 48.064L437.234 48.144L437.202 49.168C436.018 48.9973 435.085 48.912 434.402 48.912Z" fill="white"/>
</g>
<defs>
<clipPath id="clip0_8393_15029">
<rect width="728" height="90" fill="white"/>
</clipPath>
</defs>
</svg>
