<svg width="251" height="196" viewBox="0 0 251 196" fill="none" xmlns="http://www.w3.org/2000/svg">
  <path d="M20.2,25.9c2.7.3,5.1.6,7.4,1l1.1.3-.7,6.9c-3.1-.3-6.1-.6-8.7-.8l-1.3,10.4c4.5,1.4,7.5,3,9.1,4.7,1.6,1.7,2.5,4.2,2.5,7.7s-1.4,7.9-4.1,10.2c-2.7,2.3-6.3,3.4-10.7,3.4h0l-1,7.6c-3.2-.1-4.8-.3-4.8-.5l.9-7.5c-3.2-.4-5.9-.8-8-1.4l-1.3-.3.8-6.7c3.4.5,6.6.8,9.4,1l1.4-11.2c-4.4-1.3-7.6-3-9.4-4.8-1.9-1.9-2.8-4.5-2.8-7.8,0-4.3,1.3-7.4,3.9-9.5,2.6-2.1,6.1-3.2,10.7-3.2h.8l1.2-8.9h4.8l-1.2,9.3ZM15.6,62.1c3.5-.4,5.2-2.2,5.2-5.4,0-1-.3-1.9-.9-2.5-.6-.7-1.6-1.3-3.1-1.9l-1.2,9.9ZM14.4,33.2c-3.9.2-5.8,1.7-5.8,4.5,0,1,.3,1.9,1,2.5.6.6,1.9,1.3,3.7,2l1.1-9Z" fill="#ffe344" stroke-width="0"/>
  <path d="M91.2,33.7h-38.1l-2.2,18.5c5.3-2.1,10.4-3.1,15.3-3.1,18.4,0,27.7,8.6,27.7,25.7s-2.5,17.1-7.6,22.4c-5.1,5.3-12.3,7.9-21.6,7.9s-8.5-.4-13.6-1.2c-5-.8-9-1.6-12-2.5l-4.7-1.2,1.9-13.2c10.4,1.6,19.1,2.5,26.1,2.5s7.5-1.1,9.7-3.4c2.2-2.2,3.4-5.4,3.4-9.6s-.9-7.3-2.8-9.2c-1.9-1.9-4.6-2.8-8-2.8-5.8,0-10.9.6-15.3,1.7l-1.9.5-10.6-2.5,2.3-46.2h52.1v15.5ZM133.8,16.6c10.9,0,19.2,3.5,24.7,10.6,5.6,7.1,8.4,18.4,8.4,34.1s-2.8,26.8-8.3,33.6c-5.5,6.7-13.8,10.1-24.8,10.1s-19.3-3.4-24.8-10.1c-5.5-6.8-8.3-18-8.3-33.6s2.8-27.1,8.3-34.1c5.6-7.1,13.9-10.6,24.8-10.6ZM203.6,16.6c10.9,0,19.2,3.5,24.7,10.6,5.6,7.1,8.4,18.4,8.4,34.1s-2.8,26.8-8.3,33.6c-5.5,6.7-13.8,10.1-24.8,10.1s-19.3-3.4-24.8-10.1c-5.5-6.8-8.3-18-8.3-33.6s2.8-27.1,8.3-34.1c5.6-7.1,13.9-10.6,24.8-10.6ZM133.8,32.1c-5.3,0-9.1,2.2-11.4,6.5-2.2,4.3-3.4,11.8-3.4,22.4s1.2,18,3.5,22.2c2.3,4.2,6.1,6.3,11.4,6.3,5.3,0,9-2.1,11.3-6.3,2.2-4.2,3.4-11.6,3.4-22.2s-1.1-18.1-3.4-22.4c-2.2-4.3-6-6.5-11.4-6.5ZM203.6,32.1c-5.3,0-9.1,2.2-11.4,6.5-2.2,4.3-3.4,11.8-3.4,22.4s1.2,18,3.5,22.2c2.3,4.2,6.1,6.3,11.4,6.3s9-2.1,11.2-6.3c2.2-4.2,3.4-11.6,3.4-22.2s-1.1-18.1-3.4-22.4c-2.2-4.3-6-6.5-11.4-6.5Z" fill="#ffe344" stroke-width="0"/>
  <path d="M1.9,135.1v-14.5h3.2v14.5H1.9ZM1.9,118.1v-3.3h3.2v3.3H1.9ZM11.5,135.1h-3.2v-14.5h3.1v.9c1.4-.8,2.7-1.2,4-1.2,1.9,0,3.2.6,3.9,1.7.7,1.1,1.1,2.9,1.1,5.4v7.8h-3.1v-7.7c0-1.6-.2-2.7-.5-3.3-.3-.7-1-1-2.1-1s-1.9.2-2.8.6l-.4.2v11.3ZM39.7,132.5h.8c0,0,0,2.3,0,2.3-2.2.4-4.2.7-5.9.7s-3.7-.6-4.6-1.8c-.9-1.2-1.4-3.1-1.4-5.7,0-5.1,2.1-7.7,6.3-7.7s6.1,2.2,6.1,6.6l-.2,2.3h-9c0,1.2.3,2.1.8,2.6.5.6,1.4.8,2.8.8s2.8,0,4.2-.2ZM38,126.7c0-1.4-.2-2.4-.7-3-.4-.6-1.2-.9-2.3-.9s-1.9.3-2.4.9c-.5.6-.7,1.6-.8,3h6.1ZM46.7,135.1h-3.2v-14.5h3.1v.9c1.4-.8,2.7-1.2,4-1.2,1.9,0,3.2.6,3.9,1.7.7,1.1,1.1,2.9,1.1,5.4v7.8h-3.1v-7.7c0-1.6-.2-2.7-.5-3.3-.3-.7-1-1-2.1-1s-1.9.2-2.8.6l-.4.2v11.3ZM69.1,132.5h.8c0,0,0,2.3,0,2.3-2.2.4-4.2.7-5.9.7s-3.7-.6-4.6-1.8c-.9-1.2-1.4-3.1-1.4-5.7,0-5.1,2.1-7.7,6.3-7.7s6.1,2.2,6.1,6.6l-.2,2.3h-9c0,1.2.3,2.1.8,2.6.5.6,1.4.8,2.8.8s2.8,0,4.2-.2ZM67.4,126.7c0-1.4-.2-2.4-.7-3-.4-.6-1.2-.9-2.3-.9s-1.9.3-2.4.9c-.5.6-.7,1.6-.8,3h6.1ZM72.9,135.1v-14.5h3.1v1.7c1.6-1.1,3.3-1.7,4.9-2.1v3.2c-1.7.3-3.1.8-4.3,1.3l-.6.3v10.1h-3.2ZM95.4,137.1c0,3.2-2.3,4.8-6.9,4.8s-3.8-.3-4.9-.9c-1.1-.6-1.6-1.7-1.6-3.3s.2-1.3.5-1.9c.3-.5.9-1.1,1.7-1.7-.6-.4-1-1.1-1-2.1s.3-1,.8-1.9l.3-.4c-1.4-.8-2.1-2.3-2.1-4.3s.5-3,1.6-3.8c1-.8,2.5-1.2,4.2-1.2s1.7,0,2.5.3h.4c0,0,4.5,0,4.5,0v2.6h-2.4c.5.5.8,1.3.8,2.2,0,1.9-.5,3.2-1.4,3.9-.9.7-2.4,1.1-4.5,1.1s-.9,0-1.3-.1c-.3.7-.4,1.2-.4,1.5s.2.6.5.7c.4.1,1.2.2,2.6.2,2.3,0,3.9.3,4.7.9.9.6,1.3,1.7,1.3,3.4ZM85.1,137.3c0,.7.3,1.2.8,1.4.5.3,1.5.4,2.8.4,2.3,0,3.5-.7,3.5-2s-.2-1.2-.6-1.5c-.4-.2-1.2-.3-2.5-.3l-2.8-.2c-.4.3-.7.7-.9,1-.2.3-.3.7-.3,1.1ZM85.4,125.3c0,.9.2,1.5.6,2,.4.4,1.1.6,2.1.6s1.6-.2,2-.6c.4-.4.6-1.1.6-2s-.2-1.5-.6-1.9c-.4-.4-1.1-.6-2.1-.6-1.8,0-2.7.9-2.7,2.6ZM96.1,120.6h3.1l3.1,11.8h.8l3.1-11.8h3.1l-5.5,20.7h-3.1l1.7-6.2h-2.5l-3.8-14.5ZM123.6,120.3c2,0,3.4.6,4.3,1.7.9,1.1,1.3,3.1,1.3,5.9s-.5,4.8-1.6,5.9c-1,1.1-2.9,1.7-5.5,1.7s-2.3,0-4.3-.3h-1v-20.6h3.1v6.6c1.3-.6,2.5-.9,3.6-.9ZM122.2,132.6c1.5,0,2.6-.4,3.1-1.1.5-.7.8-2,.8-3.7s-.2-3-.7-3.7c-.4-.7-1.1-1.1-2.1-1.1s-1.9.1-2.8.4h-.5v9c1.1,0,1.8.1,2.2.1ZM131.8,135.1v-14.5h3.2v14.5h-3.2ZM131.8,118.1v-3.3h3.2v3.3h-3.2ZM138.4,135.1v-20.5h3.2v20.5h-3.2ZM145.2,135.1v-20.5h3.2v20.5h-3.2ZM163,120.3c1,0,2.2.1,3.6.4h.7c0,.1-.1,2.6-.1,2.6-1.5-.2-2.7-.2-3.4-.2-1.5,0-2.5.3-3,1-.5.7-.8,1.9-.8,3.7s.2,3.1.7,3.8c.5.7,1.5,1,3,1l3.4-.2v2.5c-1.9.3-3.3.5-4.3.5-2.2,0-3.8-.6-4.7-1.8-.9-1.2-1.3-3.2-1.3-5.9s.5-4.6,1.4-5.8c.9-1.2,2.5-1.7,4.6-1.7ZM169.8,135.1v-14.5h3.1v1.7c1.6-1.1,3.3-1.7,4.9-2.1v3.2c-1.7.3-3.1.8-4.3,1.3l-.6.3v10.1h-3.2ZM189.9,132.5h.8c0,0,0,2.3,0,2.3-2.2.4-4.2.7-5.9.7s-3.7-.6-4.6-1.8c-.9-1.2-1.4-3.1-1.4-5.7,0-5.1,2.1-7.7,6.3-7.7s6.1,2.2,6.1,6.6l-.2,2.3h-9c0,1.2.3,2.1.8,2.6.5.6,1.4.8,2.8.8s2.8,0,4.2-.2ZM188.2,126.7c0-1.4-.2-2.4-.7-3-.4-.6-1.2-.9-2.3-.9s-1.9.3-2.4.9c-.5.6-.7,1.6-.8,3h6.1ZM205.6,114.5v20.5h-3.1v-.8c-1.4.7-2.7,1.1-3.9,1.1-1.9,0-3.3-.6-4.2-1.7-.9-1.1-1.3-3.1-1.3-5.7s.5-4.6,1.4-5.9c1-1.2,2.5-1.8,4.6-1.8s1.8.1,3.3.4v-6.1h3.2ZM201.9,132.1l.5-.2v-8.6c-1.2-.2-2.2-.3-3.2-.3-2,0-2.9,1.6-2.9,4.9s.2,3,.7,3.7c.5.7,1.2,1,2.2,1s1.9-.2,2.8-.5ZM208.8,135.1v-14.5h3.2v14.5h-3.2ZM208.8,118.1v-3.3h3.2v3.3h-3.2ZM223,123.3h-4v6.4c0,1.2,0,2,.3,2.3.2.4.6.6,1.3.6h2.4c0,0,.1,2.4.1,2.4-1.3.3-2.3.4-3,.4-1.6,0-2.8-.4-3.4-1.1-.6-.8-.9-2.2-.9-4.3v-6.7h-1.9v-2.7h1.9v-4.2h3.1v4.2h4v2.7ZM235.1,123.6c-2.3-.3-3.9-.5-5-.5s-1.7.1-2.1.4c-.4.2-.6.6-.6,1.1s.2.9.6,1.1c.4.2,1.5.5,3.1.8,1.6.3,2.8.7,3.5,1.3.7.6,1,1.7,1,3.2s-.5,2.6-1.5,3.4c-1,.7-2.4,1.1-4.3,1.1s-2.7-.2-4.5-.5h-.9c0-.1.1-2.8.1-2.8,2.3.3,4,.5,5,.5s1.8-.1,2.2-.4c.4-.3.7-.7.7-1.2s-.2-1-.6-1.2c-.4-.2-1.4-.5-3-.7-1.6-.3-2.7-.7-3.5-1.2-.7-.6-1.1-1.6-1.1-3.1s.5-2.6,1.5-3.3c1-.7,2.3-1.1,3.9-1.1s2.8.2,4.6.5l.9.2v2.6Z" fill="#ffe344" stroke-width="0"/>
  <path d="M.3,152.4v-1.3h11.5v1.3h-5v14.7h-1.4v-14.7H.3ZM14.7,167.1h-1.4v-16.6h1.4v5.8c1.3-.6,2.5-.9,3.7-.9s2.6.4,3.1,1.2c.5.8.8,2.3.8,4.5v6h-1.4v-6c0-1.8-.2-3-.5-3.6-.3-.6-1-.9-2.1-.9s-1.1,0-1.7.2c-.6.1-1,.3-1.4.4l-.5.2v9.7ZM33.1,159v6.2c0,.6.6.9,1.5,1v1.1c-1.2,0-2.1-.3-2.7-.9-1.4.6-2.9.9-4.3.9s-1.8-.3-2.3-.9c-.5-.6-.8-1.4-.8-2.5s.3-1.9.8-2.4c.6-.5,1.4-.9,2.6-1l3.9-.4v-1.1c0-.9-.2-1.5-.6-1.8-.4-.4-.9-.6-1.5-.6-1,0-2.3,0-3.8.3h-.7c0,0,0-1,0-1,1.7-.3,3.2-.5,4.4-.5s2.2.3,2.8.9c.6.6.9,1.5.9,2.8ZM25.9,163.8c0,1.5.6,2.3,1.9,2.3s1.2,0,1.8-.2c.7-.1,1.2-.3,1.6-.4l.6-.2v-4.2l-3.7.4c-.8,0-1.3.3-1.6.6-.3.4-.5.9-.5,1.6ZM42,156.8h-3.8v5.7c0,1.5.1,2.5.3,2.9.2.5.7.7,1.5.7l2.1-.2v1.2c-.9.2-1.7.2-2.2.2-1.2,0-2-.3-2.4-.9-.4-.6-.7-1.7-.7-3.3v-6.4h-1.7v-1.2h1.7v-3.6h1.4v3.6h3.8v1.2ZM43.3,155.5l1-4.9h1.5l-1.3,4.9h-1.1ZM51.1,156.6c-1.8,0-2.7.7-2.7,2s.2,1,.6,1.3c.4.2,1.3.5,2.7.7,1.4.2,2.4.6,3,1,.6.4.9,1.2.9,2.4s-.4,2-1.1,2.6c-.8.5-1.9.8-3.3.8s-1.9-.1-3.3-.3h-.7c0,0,0-1.3,0-1.3,1.7.3,3,.4,4,.4s1.6-.2,2.1-.5c.5-.3.8-.9.8-1.6s-.2-1.3-.6-1.5c-.4-.3-1.3-.5-2.7-.7-1.4-.2-2.4-.5-2.9-.9-.6-.4-.9-1.2-.9-2.3s.4-1.9,1.2-2.4c.8-.5,1.7-.8,2.9-.8s2.1.1,3.5.3h.6c0,0,0,1.3,0,1.3-1.6-.2-3-.4-4-.4ZM72,162.6c0,1.6-.4,2.8-1.2,3.5-.8.7-2,1.1-3.5,1.1h-.4l-.3,2.6c-.7,0-1,0-1-.2l.3-2.6-3.3-.3.2-1.2c1.2.2,2.3.3,3.3.3l.8-6.2c-.8-.2-1.4-.3-1.9-.5-.5-.2-.9-.4-1.3-.7-.8-.6-1.2-1.6-1.2-3,0-2.7,1.6-4,4.8-4s.5,0,.6,0l.4-2.9h1l-.4,3,2.8.3v1.2c-1.1-.1-2.1-.2-3-.3l-.7,5.8c1.5.3,2.5.7,3.1,1.3.6.5.9,1.4.9,2.6ZM63.7,155.6c0,1,.2,1.6.7,2,.5.4,1.3.7,2.5.9l.7-5.6h-.4c-2.3,0-3.5.9-3.5,2.7ZM67.2,166c2.3,0,3.4-1,3.4-3.1s-.2-1.7-.6-2c-.4-.4-1.2-.7-2.2-.9l-.8,6h.2ZM74.8,152.2c1.4-.4,3-.6,4.6-.6s2.8.3,3.5.9c.7.6,1.1,1.6,1.1,3s-.7,2.6-2.1,3.3h-.3c.9.4,1.6.8,2.1,1.4.5.5.7,1.4.7,2.6s-.4,2.7-1.2,3.4c-.8.7-2,1.1-3.7,1.1s-2.9-.2-4.3-.5h-.7c0-.1.1-1.3.1-1.3,1.6.3,3.2.5,4.7.5,2.3,0,3.5-1,3.5-3.2s-1.1-3-3.3-3.1h-3.1v-1.2h3.1c.7,0,1.4-.3,2-.8.6-.5,1-1.3,1-2.2s-.3-1.6-.8-2c-.5-.4-1.3-.6-2.6-.6s-2.4.1-3.7.4h-.6c0,.1-.1-1.1-.1-1.1ZM87.2,154.8c.4-1.2,1-2,1.8-2.5.8-.5,1.7-.7,2.7-.7s1.9.1,2.6.4c.6.2,1.2.7,1.7,1.3,1,1.2,1.4,3.2,1.4,6.2s-.5,5-1.4,6.1c-.9,1.1-2.3,1.7-4.1,1.7s-3.2-.6-4.1-1.7c-.9-1.1-1.4-3.1-1.4-5.9s.2-3.7.7-4.9ZM94.2,153.5c-.6-.4-1.3-.6-2.3-.6s-1.7.2-2.2.6c-1.2.8-1.7,2.9-1.7,6.3s.3,4,1,4.9c.6.9,1.6,1.3,3,1.3s1.6-.2,2.2-.5c1.2-.7,1.8-2.7,1.8-5.8s-.6-5.5-1.7-6.3ZM99.6,154.8c.4-1.2,1-2,1.8-2.5.8-.5,1.7-.7,2.7-.7s1.9.1,2.6.4c.6.2,1.2.7,1.7,1.3,1,1.2,1.4,3.2,1.4,6.2s-.5,5-1.4,6.1c-.9,1.1-2.3,1.7-4.1,1.7s-3.2-.6-4.1-1.7c-.9-1.1-1.4-3.1-1.4-5.9s.2-3.7.7-4.9ZM106.6,153.5c-.6-.4-1.3-.6-2.3-.6s-1.7.2-2.2.6c-1.2.8-1.7,2.9-1.7,6.3s.3,4,1,4.9c.6.9,1.6,1.3,3,1.3s1.6-.2,2.2-.5c1.2-.7,1.8-2.7,1.8-5.8s-.6-5.5-1.7-6.3ZM118.5,156.8v10.3h-1.4v-10.3h-1.5v-1.2h1.5v-1.2c0-1.6.2-2.7.7-3.3.4-.6,1.2-.9,2.4-.9h2.2v1.3c-.9,0-1.6,0-2,0-.7,0-1.2.2-1.5.6-.3.4-.4,1.2-.4,2.3v1.1h3.5v1.2h-3.5ZM123,161.3c0-2.2.4-3.7,1.1-4.6.7-.9,2-1.4,3.7-1.4s3,.5,3.7,1.4c.7.9,1.1,2.4,1.1,4.6s-.3,3.7-1,4.6c-.7.9-1.9,1.4-3.8,1.4s-3.1-.5-3.8-1.4c-.7-.9-1-2.5-1-4.6ZM124.4,161.3c0,1.8.2,3.1.6,3.8.4.7,1.3,1,2.8,1s2.4-.4,2.8-1.1c.4-.7.6-2,.6-3.7s-.2-3-.7-3.7c-.5-.7-1.4-1-2.7-1s-2.2.3-2.7,1c-.5.7-.7,1.9-.7,3.7ZM135.1,167.1v-11.5h1.4v1.7c.6-.4,1.3-.8,2.1-1.1.8-.4,1.6-.6,2.3-.7v1.4c-.7.1-1.3.4-2.1.6-.7.3-1.3.5-1.7.7l-.6.3v8.6h-1.4ZM154.6,165.9h.7c0,0,0,1.1,0,1.1-1.7.2-3.2.3-4.4.3-1.7,0-2.8-.5-3.5-1.5-.7-1-1-2.5-1-4.5,0-4,1.6-6,4.7-6s2.7.4,3.4,1.3c.8.9,1.1,2.2,1.1,4.1v1.1h-7.9c0,1.4.2,2.5.7,3.2.5.7,1.3,1,2.5,1s2.4,0,3.5-.1ZM147.9,160.8h6.5c0-1.5-.3-2.6-.8-3.2-.5-.6-1.3-1-2.4-1s-1.9.3-2.5,1c-.6.7-.9,1.7-.9,3.2ZM158.3,167.1v-16.6h1.4v16.6h-1.4ZM170.4,165.9h.7c0,0,0,1.1,0,1.1-1.7.2-3.2.3-4.4.3-1.7,0-2.8-.5-3.5-1.5-.7-1-1-2.5-1-4.5,0-4,1.6-6,4.7-6s2.7.4,3.4,1.3c.8.9,1.1,2.2,1.1,4.1v1.1h-7.9c0,1.4.2,2.5.7,3.2.5.7,1.3,1,2.5,1s2.4,0,3.5-.1ZM163.7,160.8h6.5c0-1.5-.3-2.6-.8-3.2-.5-.6-1.3-1-2.4-1s-1.9.3-2.5,1c-.6.7-.9,1.7-.9,3.2ZM178.2,155.4c.7,0,1.5,0,2.5.2h.5c0,0,0,1.2,0,1.2-1.2-.2-2.1-.2-2.7-.2-1.4,0-2.3.3-2.8,1-.5.7-.8,1.9-.8,3.7s.2,3,.7,3.7c.5.7,1.4,1.1,2.9,1.1l2.7-.2v1.2c-1.3.2-2.3.3-3,.3-1.8,0-3.1-.5-3.7-1.4-.7-.9-1-2.5-1-4.7s.4-3.7,1.1-4.6c.7-.9,2-1.3,3.7-1.3ZM189.2,156.8h-3.8v5.7c0,1.5.1,2.5.3,2.9.2.5.7.7,1.5.7l2.1-.2v1.2c-.9.2-1.7.2-2.2.2-1.2,0-2-.3-2.4-.9-.4-.6-.7-1.7-.7-3.3v-6.4h-1.7v-1.2h1.7v-3.6h1.4v3.6h3.8v1.2ZM190.9,167.1v-11.5h1.4v1.7c.6-.4,1.3-.8,2.1-1.1.8-.4,1.6-.6,2.3-.7v1.4c-.7.1-1.3.4-2.1.6-.7.3-1.3.5-1.7.7l-.6.3v8.6h-1.4ZM198.2,167.1v-11.5h1.4v11.5h-1.4ZM198.2,152.7v-1.7h1.4v1.7h-1.4ZM206.9,155.4c.7,0,1.5,0,2.5.2h.5c0,0,0,1.2,0,1.2-1.2-.2-2.1-.2-2.7-.2-1.4,0-2.3.3-2.8,1-.5.7-.8,1.9-.8,3.7s.2,3,.7,3.7c.5.7,1.4,1.1,2.9,1.1l2.7-.2v1.2c-1.3.2-2.3.3-3,.3-1.8,0-3.1-.5-3.7-1.4-.7-.9-1-2.5-1-4.7s.4-3.7,1.1-4.6c.7-.9,2-1.3,3.7-1.3ZM212.1,167.1v-11.5h1.4v11.5h-1.4ZM212.1,152.7v-1.7h1.4v1.7h-1.4ZM222.2,156.8h-3.8v5.7c0,1.5.1,2.5.3,2.9.2.5.7.7,1.5.7l2.1-.2v1.2c-.9.2-1.7.2-2.2.2-1.2,0-2-.3-2.4-.9-.4-.6-.7-1.7-.7-3.3v-6.4h-1.7v-1.2h1.7v-3.6h1.4v3.6h3.8v1.2ZM222.8,155.6h1.4l3.1,10.3h.8l3.1-10.3h1.4l-5,16.7h-1.4l1.5-5.2h-1.6l-3.4-11.5ZM9.6,182v6.2c0,.6.6.9,1.5,1v1.1c-1.2,0-2.1-.3-2.7-.9-1.4.6-2.9.9-4.3.9s-1.8-.3-2.3-.9c-.5-.6-.8-1.4-.8-2.5s.3-1.9.8-2.4c.6-.5,1.4-.9,2.6-1l3.9-.4v-1.1c0-.9-.2-1.5-.6-1.8-.4-.4-.9-.6-1.5-.6-1,0-2.3,0-3.8.3h-.7c0,0,0-1,0-1,1.7-.3,3.2-.5,4.4-.5s2.2.3,2.8.9c.6.6.9,1.5.9,2.8ZM2.4,186.8c0,1.5.6,2.3,1.9,2.3s1.2,0,1.8-.2c.7-.1,1.2-.3,1.6-.4l.6-.2v-4.2l-3.7.4c-.8,0-1.3.3-1.6.6-.3.4-.5.9-.5,1.6ZM14.1,190.1h-1.4v-11.5h1.4v.9c1.3-.7,2.5-1.1,3.7-1.1s2.6.4,3.1,1.2c.5.8.8,2.3.8,4.5v6h-1.4v-6c0-1.8-.2-3-.5-3.6-.3-.6-1.1-.9-2.2-.9s-1.1,0-1.7.3c-.6.2-1,.3-1.4.5l-.5.2v9.5ZM33.1,173.5v16.6h-1.4v-.9c-1.2.7-2.4,1.1-3.7,1.1s-1.1,0-1.5-.2c-.4-.1-.8-.4-1.3-.8-.9-.8-1.3-2.3-1.3-4.6s.4-3.9,1.1-4.9c.7-1,2-1.5,3.7-1.5s1.6.1,2.9.3v-5.2h1.4ZM26.4,188.3c.3.3.6.5.9.6.3.1.7.2,1.1.2s1,0,1.6-.3c.6-.2,1.1-.3,1.4-.5l.5-.3v-8.2c-1.2-.2-2.2-.3-2.9-.3-1.3,0-2.2.4-2.7,1.2-.5.8-.7,2-.7,3.7s.3,3.2.9,3.8ZM50.3,185.6c0,1.6-.4,2.8-1.2,3.5-.8.7-2,1.1-3.5,1.1h-.4l-.3,2.6c-.7,0-1,0-1-.2l.3-2.6-3.3-.3.2-1.2c1.2.2,2.3.3,3.3.3l.8-6.2c-.8-.2-1.4-.3-1.9-.5-.5-.2-.9-.4-1.3-.7-.8-.6-1.1-1.6-1.1-3,0-2.7,1.6-4,4.8-4s.5,0,.6,0l.4-2.9h1l-.4,3,2.8.3v1.2c-1.1-.1-2.1-.2-3-.3l-.7,5.8c1.5.3,2.5.7,3.1,1.3.6.5.9,1.4.9,2.6ZM42,178.6c0,1,.2,1.6.7,2,.5.4,1.3.7,2.5.9l.7-5.6h-.4c-2.3,0-3.5.9-3.5,2.7ZM45.5,189c2.3,0,3.4-1,3.4-3.1s-.2-1.7-.6-2c-.4-.4-1.2-.7-2.2-.9l-.8,6h.2ZM62.7,190.1h-9.7v-1.2l4.7-5c.8-.8,1.3-1.4,1.7-1.8.4-.4.7-.9.9-1.5.3-.6.4-1.2.4-1.8,0-1-.3-1.8-.9-2.2-.6-.4-1.4-.6-2.6-.6s-2.1.1-3.4.4h-.6c0,.1-.1-1.1-.1-1.1,1.4-.4,2.9-.6,4.4-.6s2.7.3,3.5,1c.8.6,1.2,1.6,1.2,3s-.2,2-.7,2.8-1.3,1.7-2.4,2.9l-4.4,4.6h8v1.2ZM65.5,177.8c.4-1.2,1-2,1.8-2.5.8-.5,1.7-.7,2.7-.7s1.9.1,2.6.4c.6.2,1.2.7,1.7,1.3,1,1.2,1.4,3.2,1.4,6.2s-.5,5-1.4,6.1c-.9,1.1-2.3,1.7-4.1,1.7s-3.2-.6-4.1-1.7c-.9-1.1-1.4-3.1-1.4-5.9s.2-3.7.7-4.9ZM72.5,176.5c-.6-.4-1.3-.6-2.3-.6s-1.7.2-2.2.6c-1.2.8-1.7,2.9-1.7,6.3s.3,4,1,4.9c.6.9,1.6,1.3,3,1.3s1.6-.2,2.2-.5c1.2-.7,1.8-2.7,1.8-5.8s-.6-5.5-1.7-6.3ZM77.9,177.8c.4-1.2,1-2,1.8-2.5.8-.5,1.7-.7,2.7-.7s1.9.1,2.6.4c.6.2,1.2.7,1.7,1.3,1,1.2,1.4,3.2,1.4,6.2s-.5,5-1.4,6.1c-.9,1.1-2.3,1.7-4.1,1.7s-3.2-.6-4.1-1.7c-.9-1.1-1.4-3.1-1.4-5.9s.2-3.7.7-4.9ZM84.9,176.5c-.6-.4-1.3-.6-2.3-.6s-1.7.2-2.2.6c-1.2.8-1.7,2.9-1.7,6.3s.3,4,1,4.9c.6.9,1.6,1.3,3,1.3s1.6-.2,2.2-.5c1.2-.7,1.8-2.7,1.8-5.8s-.6-5.5-1.7-6.3ZM96.8,179.8v10.3h-1.4v-10.3h-1.5v-1.2h1.5v-1.2c0-1.6.2-2.7.7-3.3.4-.6,1.2-.9,2.4-.9h2.2v1.3c-.9,0-1.6,0-2,0-.7,0-1.2.2-1.5.6-.3.4-.4,1.2-.4,2.3v1.1h3.5v1.2h-3.5ZM101.2,184.3c0-2.2.4-3.7,1.1-4.6.7-.9,2-1.4,3.7-1.4s3,.5,3.7,1.4c.7.9,1.1,2.4,1.1,4.6s-.3,3.7-1,4.6c-.7.9-1.9,1.4-3.8,1.4s-3.1-.5-3.8-1.4c-.7-.9-1-2.5-1-4.6ZM102.7,184.3c0,1.8.2,3.1.6,3.8.4.7,1.3,1,2.8,1s2.4-.4,2.8-1.1c.4-.7.6-2,.6-3.7s-.2-3-.7-3.7c-.5-.7-1.4-1-2.7-1s-2.2.3-2.7,1c-.5.7-.7,1.9-.7,3.7ZM113.4,190.1v-11.5h1.4v1.7c.6-.4,1.3-.8,2.1-1.1.8-.4,1.6-.6,2.3-.7v1.4c-.7.1-1.3.4-2.1.6-.7.3-1.3.5-1.7.7l-.6.3v8.6h-1.4ZM134.6,191.8c0,1.3-.4,2.2-1.3,2.8-.8.6-2.1.9-3.9.9s-3-.3-3.7-.8c-.7-.5-1-1.4-1-2.8s.1-1.2.4-1.6c.3-.4.8-.8,1.4-1.3-.4-.2-.6-.8-.6-1.6s.2-.7.6-1.4l.2-.3c-1.3-.5-1.9-1.7-1.9-3.5,0-2.6,1.4-3.9,4.2-3.9s1.5,0,2.1.2h.3c0,0,3.3,0,3.3,0v1.2h-2.3c.6.5.8,1.4.8,2.7s-.4,2.2-1.1,2.8c-.7.6-1.8.9-3.3.9s-.8,0-1.2,0c-.3.8-.5,1.2-.5,1.4,0,.5.1.8.4.9.3.1,1.2.2,2.7.2,1.5,0,2.5.2,3.2.7.6.4.9,1.3.9,2.6ZM126.2,191.9c0,.9.2,1.6.7,1.9.5.4,1.3.5,2.7.5s2.3-.2,2.8-.6c.6-.4.9-1,.9-1.9s-.2-1.4-.6-1.7c-.4-.3-1.2-.4-2.4-.4h-2.6c-.6.3-1,.7-1.1.9-.2.3-.3.7-.3,1.2ZM126.4,182.3c0,1,.2,1.7.6,2.1.4.4,1.2.6,2.2.6s1.8-.2,2.2-.6c.4-.4.6-1.1.6-2.1s-.2-1.7-.6-2.1c-.4-.4-1.2-.6-2.2-.6s-1.7.2-2.2.6c-.4.4-.6,1.1-.6,2.1ZM144.5,182v6.2c0,.6.6.9,1.5,1v1.1c-1.2,0-2.1-.3-2.7-.9-1.4.6-2.9.9-4.3.9s-1.8-.3-2.3-.9c-.5-.6-.8-1.4-.8-2.5s.3-1.9.8-2.4c.6-.5,1.4-.9,2.6-1l3.9-.4v-1.1c0-.9-.2-1.5-.6-1.8-.4-.4-.9-.6-1.5-.6-1,0-2.3,0-3.8.3h-.7c0,0,0-1,0-1,1.7-.3,3.2-.5,4.4-.5s2.2.3,2.8.9c.6.6.9,1.5.9,2.8ZM137.3,186.8c0,1.5.6,2.3,1.9,2.3s1.2,0,1.8-.2c.7-.1,1.2-.3,1.6-.4l.6-.2v-4.2l-3.7.4c-.8,0-1.3.3-1.6.6-.3.4-.5.9-.5,1.6ZM151.1,179.6c-1.8,0-2.7.7-2.7,2s.2,1,.6,1.3c.4.2,1.3.5,2.7.7,1.4.2,2.4.6,3,1,.6.4.9,1.2.9,2.4s-.4,2-1.1,2.6c-.8.5-1.9.8-3.3.8s-1.9-.1-3.3-.3h-.7c0,0,0-1.3,0-1.3,1.7.3,3,.4,4,.4s1.6-.2,2.1-.5c.5-.3.8-.9.8-1.6s-.2-1.3-.6-1.5c-.4-.3-1.3-.5-2.7-.7-1.4-.2-2.4-.5-2.9-.9-.6-.4-.9-1.2-.9-2.3s.4-1.9,1.2-2.4c.8-.5,1.7-.8,2.9-.8s2.1.1,3.4.3h.6c0,0,0,1.3,0,1.3-1.6-.2-3-.4-4-.4ZM161.2,175h-1.8l.6,1.8-.6.2-.6-1.8-1.5,1.1-.4-.5,1.5-1.1-1.5-1.1.4-.5,1.5,1.1.6-1.8.6.2-.6,1.8h1.8v.6Z" fill="#fff" stroke-width="0"/>
</svg>