<svg width="142" height="31" viewBox="0 0 142 31" fill="none" xmlns="http://www.w3.org/2000/svg">
<path d="M0.0400391 0H125.54C134.1 0 141.04 6.93959 141.04 15.5C141.04 24.0604 134.1 31 125.54 31H0.0400391V0Z" fill="#00DFED"/>
<path d="M38.36 21L41.064 10.04H44.6L47.32 21H45.528L44.936 18.648H40.728L40.136 21H38.36ZM42.44 11.528L41.08 17.08H44.584L43.24 11.528H42.44ZM52.8543 16.808V15.24H55.9743V20.808C55.6863 20.8827 55.0996 20.9627 54.2143 21.048C53.3396 21.1333 52.705 21.176 52.3103 21.176C50.6463 21.176 49.4996 20.7173 48.8703 19.8C48.241 18.8827 47.9263 17.448 47.9263 15.496C47.9263 13.5333 48.2463 12.104 48.8863 11.208C49.537 10.312 50.657 9.864 52.2463 9.864C53.185 9.864 54.241 9.97067 55.4143 10.184L55.9743 10.296L55.9103 11.704C54.6196 11.5333 53.4623 11.448 52.4383 11.448C51.4143 11.448 50.7103 11.736 50.3263 12.312C49.953 12.888 49.7663 13.9547 49.7663 15.512C49.7663 17.0693 49.9423 18.1467 50.2943 18.744C50.657 19.3307 51.3823 19.624 52.4703 19.624C53.249 19.624 53.8303 19.576 54.2143 19.48V16.808H52.8543ZM64.0268 21H57.8828V10.04H59.6588V19.416H64.0268V21ZM68.3522 10.04H72.5122C73.6322 10.04 74.4695 10.2693 75.0242 10.728C75.5788 11.176 75.8562 11.896 75.8562 12.888C75.8562 13.5387 75.7495 14.0507 75.5362 14.424C75.3335 14.7973 75.0082 15.1067 74.5602 15.352C75.6055 15.7573 76.1282 16.6053 76.1282 17.896C76.1282 19.9653 74.9655 21 72.6402 21H68.3522V10.04ZM72.5122 16.216H70.1282V19.464H72.5442C73.1308 19.464 73.5682 19.3413 73.8562 19.096C74.1548 18.8507 74.3042 18.4293 74.3042 17.832C74.3042 17.2347 74.1335 16.8187 73.7922 16.584C73.4508 16.3387 73.0242 16.216 72.5122 16.216ZM72.4162 11.576H70.1282V14.712H72.4802C73.5255 14.712 74.0482 14.1733 74.0482 13.096C74.0482 12.0827 73.5042 11.576 72.4162 11.576ZM82.469 13H84.197V21H82.469V20.504C81.6904 20.952 80.9704 21.176 80.309 21.176C79.2104 21.176 78.4744 20.8827 78.101 20.296C77.7277 19.6987 77.541 18.6587 77.541 17.176V13H79.285V17.192C79.285 18.152 79.365 18.7973 79.525 19.128C79.685 19.4587 80.0584 19.624 80.645 19.624C81.221 19.624 81.749 19.5173 82.229 19.304L82.469 19.208V13ZM91.5405 14.648C90.2819 14.4773 89.3699 14.392 88.8045 14.392C88.2392 14.392 87.8445 14.4613 87.6205 14.6C87.4072 14.728 87.3005 14.936 87.3005 15.224C87.3005 15.512 87.4179 15.7147 87.6525 15.832C87.8979 15.9493 88.4632 16.088 89.3485 16.248C90.2445 16.3973 90.8792 16.6373 91.2525 16.968C91.6259 17.2987 91.8125 17.8853 91.8125 18.728C91.8125 19.5707 91.5405 20.1893 90.9965 20.584C90.4632 20.9787 89.6792 21.176 88.6445 21.176C87.9939 21.176 87.1725 21.0853 86.1805 20.904L85.6845 20.824L85.7485 19.368C87.0285 19.5387 87.9512 19.624 88.5165 19.624C89.0819 19.624 89.4819 19.5547 89.7165 19.416C89.9619 19.2773 90.0845 19.048 90.0845 18.728C90.0845 18.408 89.9672 18.1893 89.7325 18.072C89.5085 17.944 88.9592 17.8107 88.0845 17.672C87.2205 17.5227 86.5859 17.2933 86.1805 16.984C85.7752 16.6747 85.5725 16.1093 85.5725 15.288C85.5725 14.4667 85.8499 13.8533 86.4045 13.448C86.9699 13.0427 87.6899 12.84 88.5645 12.84C89.2472 12.84 90.0845 12.9253 91.0765 13.096L91.5725 13.192L91.5405 14.648ZM93.1685 21V13H94.9125V21H93.1685ZM93.1685 11.64V9.8H94.9125V11.64H93.1685ZM98.4519 21H96.7079V13H98.4359V13.496C99.2146 13.048 99.9506 12.824 100.644 12.824C101.711 12.824 102.436 13.128 102.82 13.736C103.215 14.3333 103.412 15.3253 103.412 16.712V21H101.684V16.76C101.684 15.896 101.588 15.2827 101.396 14.92C101.215 14.5573 100.836 14.376 100.26 14.376C99.7159 14.376 99.1932 14.4827 98.6919 14.696L98.4519 14.792V21ZM110.818 19.56L111.266 19.512L111.298 20.808C110.082 21.0533 109.005 21.176 108.066 21.176C106.882 21.176 106.029 20.8507 105.506 20.2C104.994 19.5493 104.738 18.5093 104.738 17.08C104.738 14.2427 105.896 12.824 108.21 12.824C110.45 12.824 111.57 14.0453 111.57 16.488L111.458 17.736H106.498C106.509 18.3973 106.653 18.8827 106.93 19.192C107.208 19.5013 107.725 19.656 108.482 19.656C109.24 19.656 110.018 19.624 110.818 19.56ZM109.858 16.392C109.858 15.6027 109.73 15.0533 109.474 14.744C109.229 14.424 108.808 14.264 108.21 14.264C107.613 14.264 107.176 14.4293 106.898 14.76C106.632 15.0907 106.493 15.6347 106.482 16.392H109.858ZM118.479 14.648C117.221 14.4773 116.309 14.392 115.743 14.392C115.178 14.392 114.783 14.4613 114.559 14.6C114.346 14.728 114.239 14.936 114.239 15.224C114.239 15.512 114.357 15.7147 114.591 15.832C114.837 15.9493 115.402 16.088 116.287 16.248C117.183 16.3973 117.818 16.6373 118.191 16.968C118.565 17.2987 118.751 17.8853 118.751 18.728C118.751 19.5707 118.479 20.1893 117.935 20.584C117.402 20.9787 116.618 21.176 115.583 21.176C114.933 21.176 114.111 21.0853 113.119 20.904L112.623 20.824L112.687 19.368C113.967 19.5387 114.89 19.624 115.455 19.624C116.021 19.624 116.421 19.5547 116.655 19.416C116.901 19.2773 117.023 19.048 117.023 18.728C117.023 18.408 116.906 18.1893 116.671 18.072C116.447 17.944 115.898 17.8107 115.023 17.672C114.159 17.5227 113.525 17.2933 113.119 16.984C112.714 16.6747 112.511 16.1093 112.511 15.288C112.511 14.4667 112.789 13.8533 113.343 13.448C113.909 13.0427 114.629 12.84 115.503 12.84C116.186 12.84 117.023 12.9253 118.015 13.096L118.511 13.192L118.479 14.648ZM125.659 14.648C124.401 14.4773 123.489 14.392 122.923 14.392C122.358 14.392 121.963 14.4613 121.739 14.6C121.526 14.728 121.419 14.936 121.419 15.224C121.419 15.512 121.537 15.7147 121.771 15.832C122.017 15.9493 122.582 16.088 123.467 16.248C124.363 16.3973 124.998 16.6373 125.371 16.968C125.745 17.2987 125.931 17.8853 125.931 18.728C125.931 19.5707 125.659 20.1893 125.115 20.584C124.582 20.9787 123.798 21.176 122.763 21.176C122.113 21.176 121.291 21.0853 120.299 20.904L119.803 20.824L119.867 19.368C121.147 19.5387 122.07 19.624 122.635 19.624C123.201 19.624 123.601 19.5547 123.835 19.416C124.081 19.2773 124.203 19.048 124.203 18.728C124.203 18.408 124.086 18.1893 123.851 18.072C123.627 17.944 123.078 17.8107 122.203 17.672C121.339 17.5227 120.705 17.2933 120.299 16.984C119.894 16.6747 119.691 16.1093 119.691 15.288C119.691 14.4667 119.969 13.8533 120.523 13.448C121.089 13.0427 121.809 12.84 122.683 12.84C123.366 12.84 124.203 12.9253 125.195 13.096L125.691 13.192L125.659 14.648Z" fill="#001CB0"/>
</svg>
