<svg width="642" height="71" viewBox="0 0 642 71" fill="none" xmlns="http://www.w3.org/2000/svg">
<path d="M640.159 66.9379L0.15918 46.9379V66.9379H640.159Z" fill="#F9DD3E"/>
<path d="M364.346 66.9379H640.159L0.15918 55.9379L0.15918 66.9379H364.346Z" fill="url(#paint0_linear_5771_12994)"/>
<path d="M618.542 27.9998H619.926V46.2183H618.542V27.9998ZM613.915 37.1035V40.4591C613.915 41.038 613.823 41.6169 613.638 42.1771C613.454 42.7365 613.18 43.2469 612.822 43.6937C612.465 44.1389 612.014 44.5019 611.483 44.7728C610.954 45.0427 610.331 45.1798 609.632 45.1798C609.091 45.1798 608.555 45.0825 608.041 44.8904C607.529 44.7 607.072 44.3818 606.681 43.9459C606.288 43.5092 605.97 42.932 605.734 42.2305C605.497 41.5272 605.376 40.6521 605.376 39.6289C605.376 38.6937 605.491 37.8728 605.72 37.1873C605.948 36.5035 606.257 35.9305 606.642 35.4845C607.024 35.0411 607.469 34.7051 607.964 34.4867C608.461 34.2692 608.996 34.1584 609.551 34.1584C610.458 34.1584 611.288 34.4283 612.021 34.9615C612.754 35.4938 613.39 36.2149 613.916 37.1035H613.915ZM613.944 35.5074C613.784 35.2467 613.592 34.9852 613.369 34.7271C613.089 34.4012 612.751 34.0991 612.364 33.83C611.977 33.5592 611.536 33.3349 611.049 33.1639C610.561 32.9921 610.013 32.9058 609.418 32.9058C608.68 32.9058 607.975 33.0573 607.327 33.3552C606.678 33.6531 606.097 34.0983 605.602 34.6746C605.107 35.2518 604.711 35.9635 604.424 36.7904C604.137 37.6172 603.992 38.5719 603.992 39.6297C603.992 40.8307 604.133 41.8708 604.41 42.723C604.688 43.5786 605.08 44.2912 605.576 44.8422C606.072 45.394 606.668 45.8019 607.345 46.0549C608.019 46.3071 608.762 46.4349 609.551 46.4349C610.579 46.4349 611.48 46.1776 612.229 45.6715C612.9 45.2171 613.466 44.617 613.914 43.8841V45.5277C613.914 46.407 613.812 47.1661 613.61 47.7814C613.41 48.3916 613.127 48.8918 612.772 49.2667C612.418 49.6399 611.983 49.9115 611.48 50.0774C610.972 50.2441 610.395 50.3288 609.765 50.3288C608.939 50.3288 608.167 50.2306 607.473 50.0368C606.775 49.8422 606.174 49.6094 605.683 49.3462L605.602 49.3022L605.233 50.443L605.289 50.4727C605.789 50.7418 606.428 50.9957 607.189 51.2284C607.953 51.462 608.801 51.5805 609.713 51.5805C611.455 51.5805 612.837 51.0769 613.82 50.0834C614.802 49.0898 615.299 47.5656 615.299 45.5531V33.1199H614.245L613.944 35.5082L613.944 35.5074ZM600.65 39.5443V40.9144C600.65 41.4375 600.544 41.9605 600.335 42.4657C600.125 42.9727 599.82 43.4381 599.428 43.8494C599.035 44.2599 598.544 44.5967 597.969 44.8506C597.393 45.1045 596.72 45.2323 595.966 45.2323C595.583 45.2323 595.212 45.1798 594.864 45.0757C594.519 44.9725 594.214 44.81 593.955 44.5942C593.698 44.3792 593.493 44.105 593.348 43.7775C593.201 43.45 593.127 43.0548 593.127 42.6028C593.127 41.5441 593.471 40.763 594.151 40.2806C594.839 39.7914 595.989 39.5443 597.57 39.5443H600.65ZM597.249 32.9024C596.337 32.9024 595.493 33.0158 594.739 33.241C593.988 33.4652 593.361 33.725 592.876 34.0119L592.824 34.0441L593.166 35.1037L593.248 35.058C593.757 34.777 594.342 34.5443 594.982 34.3682C595.624 34.1922 596.388 34.1025 597.249 34.1025C598.347 34.1025 599.199 34.3581 599.78 34.8608C600.356 35.361 600.649 36.253 600.649 37.5089V38.3434H597.569C595.689 38.3434 594.243 38.7005 593.271 39.4038C592.291 40.1121 591.795 41.1886 591.795 42.602C591.795 43.2181 591.901 43.7699 592.109 44.2413C592.317 44.7135 592.612 45.1189 592.984 45.4473C593.355 45.7739 593.801 46.0228 594.308 46.1869C594.812 46.3503 595.36 46.4324 595.937 46.4324C597.05 46.4324 598.028 46.1853 598.839 45.6969C599.586 45.2475 600.205 44.6196 600.677 43.8317L600.978 46.2174H602.006V37.5089C602.006 36.1015 601.607 34.97 600.822 34.1457C600.035 33.3205 598.833 32.9024 597.249 32.9024Z" fill="white"/>
<path d="M571.836 11.2124C570.899 11.9664 570.747 13.3519 571.499 14.2904L583.301 29.0297C584.053 29.9691 585.436 30.1215 586.373 29.3674C587.31 28.6133 587.462 27.2279 586.709 26.2894L574.908 11.5501C574.478 11.0127 573.842 10.7334 573.201 10.7334C572.721 10.7334 572.237 10.8899 571.837 11.2124" fill="white"/>
<path d="M566.994 35.7663C566.796 36.9546 567.603 38.0886 568.789 38.2867L582.449 40.57C583.635 40.768 584.766 39.9581 584.964 38.7699C585.162 37.5817 584.354 36.4476 583.168 36.2496L569.509 33.9662C569.389 33.9459 569.269 33.9366 569.15 33.9366C568.103 33.9366 567.171 34.6983 566.994 35.7655" fill="white"/>
<path d="M589.216 1.1887C588.022 1.32834 587.16 2.42008 587.298 3.61676L589.473 22.3879C589.613 23.5846 590.703 24.4487 591.896 24.3099C593.09 24.1702 593.953 23.0785 593.814 21.8818L591.638 3.11152C591.509 1.99947 590.558 1.17432 589.467 1.17432C589.384 1.17432 589.3 1.17939 589.215 1.1887" fill="white"/>
<path d="M602.261 7.49624L597.094 21.6846C596.682 22.8161 597.268 24.0797 598.397 24.4918C599.527 24.904 600.788 24.3175 601.199 23.1851L606.367 8.99675C606.779 7.86523 606.192 6.6017 605.063 6.18954C604.818 6.09983 604.567 6.05752 604.319 6.05752C603.427 6.05752 602.584 6.61016 602.261 7.49624Z" fill="white"/>
<path d="M610.6 17.806L604.632 24.4038C603.825 25.2958 603.893 26.6871 604.783 27.4962C605.673 28.3044 607.061 28.2367 607.869 27.3439L613.837 20.7461C614.643 19.854 614.576 18.4627 613.685 17.6536C613.269 17.2753 612.744 17.0892 612.22 17.0892C611.624 17.0892 611.029 17.3304 610.6 17.8051" fill="white"/>
<line x1="553.505" y1="0.875732" x2="553.505" y2="51.6196" stroke="white" stroke-width="0.608927"/>
<g clip-path="url(#clip0_5771_12994)">
<path d="M514.959 7.61168L514.978 7.57935L496.094 41.4975C495.834 41.9718 495.7 42.5 495.7 43.0346C495.7 44.7485 497.054 46.1434 498.717 46.1434H536.628C538.291 46.1434 539.644 44.7485 539.644 43.0346C539.644 42.4547 539.49 41.8899 539.195 41.4005L539.22 41.4436L520.237 7.5621L520.252 7.58797C519.721 6.59843 518.708 5.98401 517.61 5.98401C516.511 5.98401 515.486 6.60705 514.957 7.61168" fill="white"/>
<path d="M534.347 36.6921C534.723 36.6921 535.031 37.009 535.031 37.397C535.031 37.7851 534.723 38.102 534.347 38.102C533.97 38.102 533.663 37.7851 533.663 37.397C533.663 37.009 533.97 36.6921 534.347 36.6921ZM534.347 37.9468C534.619 37.9468 534.834 37.7226 534.834 37.397C534.834 37.0715 534.619 36.8473 534.347 36.8473C534.075 36.8473 533.859 37.0715 533.859 37.397C533.859 37.7226 534.073 37.9468 534.347 37.9468ZM534.073 37.0025H534.359C534.552 37.0025 534.663 37.0607 534.663 37.2375C534.663 37.3798 534.579 37.4358 534.462 37.4466L534.663 37.7873H534.495L534.313 37.4553H534.236V37.7873H534.073V37.0025ZM534.37 37.3237C534.447 37.3237 534.502 37.3108 534.502 37.2203C534.502 37.1405 534.418 37.1297 534.353 37.1297H534.238V37.3237H534.37Z" fill="#007A53"/>
<path d="M533.744 35.0794L518.645 8.18078C518.423 7.76901 517.998 7.49091 517.511 7.49091C517.023 7.49091 516.592 7.77332 516.371 8.1894L505.744 27.2925C509.107 27.4865 510.73 25.9321 512.301 24.4252C513.699 23.0886 515.14 21.7045 517.549 21.7045C520.655 21.7045 522.243 24.6839 522.31 24.8197C522.526 25.266 522.35 25.8136 521.917 26.0378C521.482 26.262 520.971 26.0852 520.731 25.6389C520.639 25.4708 519.467 23.524 517.547 23.524C515.835 23.524 514.806 24.5093 513.504 25.7575C511.793 27.3981 509.261 29.0258 505.046 28.5429L501.386 35.1226C501.28 35.3166 501.221 35.5408 501.221 35.7779C501.221 36.5153 501.801 37.1124 502.516 37.1124H517.724C517.549 36.858 515.718 34.1955 515.718 34.1955C514.948 32.9689 515.582 31.9513 515.789 31.6279L518.001 27.9759C518.126 27.7689 518.323 27.6245 518.551 27.5706C518.781 27.5167 519.017 27.5555 519.218 27.6848C519.63 27.9522 519.758 28.5149 519.499 28.9396L517.266 32.6261C517.105 32.8783 517.061 32.971 517.22 33.2319C517.641 33.9261 519.683 37.0477 519.724 37.1124H532.644C533.359 37.1124 533.939 36.5153 533.939 35.7779C533.939 35.5214 533.868 35.2799 533.746 35.0773M527.652 27.7344C527.413 27.9888 527.118 28.047 526.838 27.8897C526.597 27.7538 526.097 27.5275 525.453 27.5275C524.808 27.5275 523.884 27.7366 523.229 28.5386C523.229 28.5386 520.181 32.4903 520.178 32.4903C520.13 32.5614 519.94 32.7015 519.72 32.7123C519.553 32.7231 519.402 32.6541 519.281 32.5161C519.17 32.3868 519.126 32.2402 519.126 32.1044C519.126 31.9685 519.166 31.8478 519.22 31.7508C520.568 29.3966 521.233 28.2346 521.235 28.2303C522.331 26.387 523.71 25.9084 524.928 25.8631C524.819 25.4578 524.35 23.7288 524.35 23.7245C524.304 23.5348 524.235 23.205 524.537 23.0109C524.901 22.7716 525.204 22.9915 525.319 23.1856L527.723 26.9475C527.832 27.12 527.857 27.5081 527.652 27.7301" fill="#007A53"/>
<path d="M525.319 23.1899C525.202 22.9937 524.901 22.776 524.537 23.0153C524.238 23.2115 524.305 23.5391 524.351 23.7289C524.351 23.731 524.819 25.46 524.928 25.8675C523.708 25.9127 522.33 26.3913 521.235 28.2346C521.235 28.2389 520.568 29.4009 519.221 31.7551C519.166 31.85 519.126 31.975 519.126 32.1087C519.126 32.2424 519.168 32.3911 519.281 32.5205C519.401 32.6584 519.551 32.7253 519.721 32.7166C519.942 32.7059 520.131 32.5636 520.179 32.4946L523.229 28.5429C523.884 27.7409 524.775 27.5318 525.453 27.5318C526.131 27.5318 526.598 27.7582 526.838 27.894C527.119 28.0514 527.414 27.9931 527.652 27.7388C527.859 27.5167 527.832 27.1265 527.723 26.9562L525.319 23.1942V23.1899Z" fill="#FFA400"/>
<path d="M513.507 25.7618C514.808 24.5136 515.836 23.5283 517.549 23.5283C519.47 23.5283 520.641 25.4751 520.733 25.6432C520.974 26.0895 521.484 26.2663 521.92 26.0421C522.353 25.8157 522.528 25.2681 522.313 24.824C522.246 24.6882 520.656 21.7088 517.551 21.7088C515.145 21.7088 513.701 23.0929 512.304 24.4295C510.733 25.9364 509.109 27.4908 505.747 27.2968L505.05 28.5493C509.266 29.0323 511.798 27.4046 513.509 25.764" fill="#FFA400"/>
<path d="M517.267 32.6305L519.499 28.9439C519.759 28.5192 519.631 27.9566 519.219 27.6892C519.018 27.5599 518.782 27.5189 518.552 27.575C518.324 27.6289 518.127 27.7733 518.001 27.9803L515.79 31.6323C515.583 31.9557 514.949 32.9732 515.719 34.1999C515.719 34.1999 517.549 36.8646 517.725 37.1168H519.723C519.681 37.0543 517.639 33.9305 517.219 33.2363C517.062 32.9754 517.104 32.8827 517.265 32.6305" fill="#FFA400"/>
<path d="M500.426 38.628H501.274L502.274 41.3013H501.514L501.322 40.73H500.347L500.142 41.3013H499.439L500.424 38.628H500.426ZM500.849 39.1799H500.841L500.506 40.2255H501.157L500.849 39.1799Z" fill="#007A53"/>
<path d="M504.709 40.2859C504.709 41.0167 504.249 41.3465 503.571 41.3465C502.893 41.3465 502.433 41.0167 502.433 40.2859V38.6259H503.126V40.1651C503.126 40.5165 503.218 40.8162 503.571 40.8162C503.925 40.8162 504.017 40.5165 504.017 40.1651V38.6259H504.709V40.2859Z" fill="#007A53"/>
<path d="M505.088 40.6416C505.266 40.7407 505.515 40.8183 505.801 40.8183C506.021 40.8183 506.228 40.7731 506.228 40.5575C506.228 40.0595 505.002 40.3742 505.002 39.3998C505.002 38.7552 505.611 38.5806 506.132 38.5806C506.381 38.5806 506.625 38.6194 506.801 38.6797L506.757 39.2316C506.579 39.1476 506.379 39.1088 506.182 39.1088C506.006 39.1088 505.717 39.1238 505.717 39.3588C505.717 39.7922 506.944 39.5011 506.944 40.4669C506.944 41.1611 506.379 41.3487 505.801 41.3487C505.558 41.3487 505.259 41.3099 505.027 41.2344L505.086 40.6437L505.088 40.6416Z" fill="#007A53"/>
<path d="M507.724 39.1562H507.084V38.628H509.055V39.1562H508.415V41.3013H507.722V39.1562H507.724Z" fill="#007A53"/>
<path d="M509.327 38.628H510.561C511.021 38.628 511.398 38.8436 511.398 39.3028C511.398 39.6585 511.235 39.8956 510.9 39.9776V39.9862C511.124 40.0465 511.138 40.2514 511.268 40.5769L511.521 41.3056H510.8L510.651 40.8227C510.509 40.3635 510.421 40.247 510.164 40.247H510.019V41.3034H509.327V38.6301V38.628ZM510.017 39.7383H510.199C510.423 39.7383 510.705 39.7296 510.705 39.4278C510.705 39.1777 510.463 39.1325 510.199 39.1325H510.017V39.7383Z" fill="#007A53"/>
<path d="M512.599 38.628H513.446L514.446 41.3013H513.687L513.494 40.73H512.519L512.314 41.3013H511.611L512.597 38.628H512.599ZM513.021 39.1799H513.013L512.678 40.2255H513.329L513.021 39.1799Z" fill="#007A53"/>
<path d="M514.643 38.628H515.335V40.7731H516.406V41.3013H514.645V38.628H514.643Z" fill="#007A53"/>
<path d="M516.67 38.628H517.362V41.3013H516.67V38.628Z" fill="#007A53"/>
<path d="M518.503 38.628H519.35L520.351 41.3013H519.591L519.399 40.73H518.424L518.219 41.3013H517.516L518.501 38.628H518.503ZM518.926 39.1799H518.917L518.583 40.2255H519.233L518.926 39.1799Z" fill="#007A53"/>
<path d="M520.484 38.628H521.365L522.242 40.4432H522.25L522.24 38.628H522.872V41.3013H522.014L521.106 39.4731H521.097L521.12 41.3013H520.484V38.628Z" fill="#007A53"/>
<path d="M524.56 38.628H525.65L526.2 40.4066H526.209L526.784 38.628H527.832V41.3013H527.155L527.165 39.2467H527.157L526.495 41.3013H525.859L525.228 39.2467H525.219L525.234 41.3013H524.558V38.628H524.56Z" fill="#007A53"/>
<path d="M528.995 38.628H529.843L530.843 41.3013H530.083L529.891 40.73H528.916L528.711 41.3013H528.008L528.993 38.628H528.995ZM529.418 39.1799H529.41L529.075 40.2255H529.725L529.418 39.1799Z" fill="#007A53"/>
<path d="M531.039 38.628H531.983C532.886 38.628 533.518 38.919 533.518 39.9538C533.518 40.9887 532.868 41.3034 531.983 41.3034H531.039V38.6301V38.628ZM531.732 40.7731H531.999C532.516 40.7731 532.807 40.4971 532.807 39.9646C532.807 39.4321 532.506 39.1562 531.999 39.1562H531.732V40.7731Z" fill="#007A53"/>
<path d="M533.839 38.628H535.668V39.1346H534.529V39.6865H535.605V40.1931H534.529V40.7989H535.707V41.3056H533.837V38.6323L533.839 38.628Z" fill="#007A53"/>
<path d="M506.832 41.9135H507.68L508.68 44.5868H507.92L507.728 44.0155H506.753L506.548 44.5868H505.845L506.83 41.9135H506.832ZM507.255 42.4654H507.246L506.912 43.511H507.562L507.255 42.4654Z" fill="#007A53"/>
<path d="M508.887 41.9135H509.768L510.645 43.7287H510.653L510.643 41.9135H511.275V44.5868H510.415L509.507 42.7586H509.498L509.521 44.5868H508.885V41.9135H508.887Z" fill="#007A53"/>
<path d="M511.695 41.9135H512.638C513.542 41.9135 514.174 42.2046 514.174 43.2394C514.174 44.2742 513.523 44.5889 512.638 44.5889H511.695V41.9157V41.9135ZM512.385 44.0586H512.653C513.17 44.0586 513.461 43.7826 513.461 43.2501C513.461 42.7176 513.159 42.4417 512.653 42.4417H512.385V44.0586Z" fill="#007A53"/>
<path d="M516.781 41.8683C517.637 41.8683 518.083 42.3922 518.083 43.2523C518.083 44.1125 517.629 44.6343 516.781 44.6343C515.934 44.6343 515.48 44.1018 515.48 43.2523C515.48 42.4029 515.926 41.8683 516.781 41.8683ZM516.781 44.1061C517.202 44.1061 517.369 43.6921 517.369 43.2523C517.369 42.7888 517.202 42.3986 516.781 42.3986C516.361 42.3986 516.193 42.7888 516.193 43.2523C516.193 43.7159 516.361 44.1061 516.781 44.1061Z" fill="#007A53"/>
<path d="M518.035 41.9135H518.742L519.077 43.968H519.085L519.434 41.9135H520.311L520.675 43.968H520.683L521.022 41.9135H521.696L521.116 44.5868H520.227L519.859 42.5322H519.851L519.51 44.5868H518.614L518.039 41.9135H518.035Z" fill="#007A53"/>
<path d="M521.901 41.9135H522.781L523.658 43.7287H523.664L523.654 41.9135H524.286V44.5868H523.426L522.52 42.7586H522.511L522.534 44.5868H521.898V41.9135H521.901Z" fill="#007A53"/>
<path d="M524.689 41.9135H526.52V42.4201H525.382V42.972H526.455V43.4787H525.382V44.0845H526.56V44.5911H524.689V41.9178V41.9135Z" fill="#007A53"/>
<path d="M526.83 41.9135H527.773C528.677 41.9135 529.309 42.2046 529.309 43.2394C529.309 44.2742 528.658 44.5889 527.773 44.5889H526.83V41.9157V41.9135ZM527.522 44.0586H527.79C528.307 44.0586 528.597 43.7826 528.597 43.2501C528.597 42.7176 528.296 42.4417 527.79 42.4417H527.522V44.0586Z" fill="#007A53"/>
</g>
<defs>
<linearGradient id="paint0_linear_5771_12994" x1="-3.66611" y1="67.1113" x2="799.426" y2="56.3864" gradientUnits="userSpaceOnUse">
<stop offset="0.238363" stop-color="#00CEED"/>
<stop offset="0.473958" stop-color="#0076BF"/>
<stop offset="0.733675" stop-color="#00168D"/>
</linearGradient>
<clipPath id="clip0_5771_12994">
<rect width="44.3687" height="40.5105" fill="white" transform="translate(495.444 5.76971)"/>
</clipPath>
</defs>
</svg>
