<?xml version="1.0" encoding="utf-8"?>
<!-- Generator: Adobe Illustrator 27.7.0, SVG Export Plug-In . SVG Version: 6.00 Build 0)  -->
<svg version="1.1" id="Layer_1" xmlns="http://www.w3.org/2000/svg" xmlns:xlink="http://www.w3.org/1999/xlink" x="0px" y="0px"
	 viewBox="0 0 229.5 99.5" style="enable-background:new 0 0 229.5 99.5;" xml:space="preserve">
<style type="text/css">
	.st0{fill:#FFFFFF;}
</style>
<path class="st0" d="M14.3,26.6c-1.9,0-3.7-0.3-5.3-1c-1.6-0.7-3-1.6-4.2-2.8c-1.2-1.2-2.1-2.6-2.7-4.3c-0.7-1.6-1-3.4-1-5.3
	s0.3-3.7,1-5.3c0.7-1.6,1.6-3,2.7-4.2C6.1,2.6,7.4,1.6,9,1c1.6-0.7,3.4-1,5.3-1c1.9,0,3.6,0.3,5.2,1c1.6,0.7,3,1.6,4.2,2.8
	C25,5,25.9,6.4,26.5,8c0.7,1.6,1,3.4,1,5.3s-0.3,3.7-1,5.3c-0.6,1.6-1.5,3-2.7,4.3c-1.2,1.2-2.6,2.1-4.2,2.8
	C18,26.3,16.2,26.6,14.3,26.6z M14.3,20.3c1.3,0,2.5-0.3,3.4-0.9c0.9-0.6,1.6-1.5,2.1-2.5c0.5-1.1,0.7-2.2,0.7-3.5
	c0-1.3-0.2-2.5-0.7-3.5c-0.5-1.1-1.2-1.9-2.1-2.5c-0.9-0.6-2-0.9-3.4-0.9c-1.3,0-2.4,0.3-3.4,0.9C10,7.9,9.3,8.7,8.8,9.8
	c-0.5,1.1-0.7,2.2-0.7,3.5c0,1.3,0.2,2.5,0.7,3.5c0.5,1.1,1.2,1.9,2.1,2.5C11.9,20,13,20.3,14.3,20.3z M30.7,26V0.7h6.1l9.7,14.1
	V0.7h6.7V26h-5.7L37.3,11.5V26H30.7z M57.4,26V0.7h6.7v19.4h11.7V26H57.4z M78.5,26V0.7h6.7V26H78.5z M89.4,26V0.7h6.1l9.7,14.1V0.7
	h6.7V26h-5.7L96.1,11.5V26H89.4z M116.1,26V0.7h18.2v5.8h-11.5v3.9h9.5v5.5h-9.5v4.3h12.3V26H116.1z M2.1,60V34.7h6.7v19.4h11.7V60
	H2.1z M23.3,60V34.7h18.2v5.8H30v3.9h9.5v5.5H30v4.3h12.3V60H23.3z M43.3,60l9.3-25.3h7.7l9,25.3H62l-1.6-5.2h-8.5L50.2,60H43.3z
	 M53.3,49.9H59l-2.8-9.3L53.3,49.9z M71.3,60V34.7h10.5c2.7,0,4.9,0.7,6.5,2.1c1.6,1.4,2.5,3.5,2.5,6.2c0,1.6-0.4,3.1-1.1,4.3
	c-0.7,1.2-1.7,2.2-2.9,3l5.4,9.7H85l-4.3-8.6h-2.8V60H71.3z M77.9,46.1h3.3c0.9,0,1.6-0.3,2.2-0.8c0.6-0.6,0.8-1.3,0.8-2.2
	c0-1-0.3-1.7-0.8-2.3c-0.5-0.6-1.3-0.8-2.2-0.8h-3.2V46.1z M94.8,60V34.7h6.1l9.7,14.1V34.7h6.7V60h-5.7l-10.1-14.6V60H94.8z
	 M121.5,60V34.7h6.7V60H121.5z M132.4,60V34.7h6.1l9.7,14.1V34.7h6.6V60h-5.7l-10.1-14.6V60H132.4z M172,50.8v-5.2h10.4V57
	c-1.5,1.3-3.3,2.2-5.2,2.8c-2,0.6-3.9,0.8-5.9,0.8c-2.7,0-5.1-0.5-7.1-1.6c-2-1.1-3.5-2.6-4.6-4.6c-1-2-1.6-4.4-1.6-7.1
	c0-2.6,0.6-4.9,1.7-6.9c1.1-2,2.7-3.6,4.6-4.7c2-1.1,4.3-1.7,6.9-1.7c2.1,0,4.1,0.4,5.9,1.1c1.9,0.7,3.4,1.8,4.6,3.5l-4.4,4.4
	c-0.8-0.8-1.6-1.4-2.5-1.9c-0.9-0.5-1.9-0.8-3.1-0.8c-1.4,0-2.7,0.3-3.7,1c-1,0.6-1.8,1.5-2.3,2.6c-0.5,1.1-0.8,2.3-0.8,3.6
	c0,2.2,0.6,3.9,1.9,5.2c1.2,1.3,2.9,1.9,4.9,1.9c0.8,0,1.6-0.1,2.4-0.3c0.8-0.2,1.5-0.6,2.2-1.1v-2.4H172z M0,94l9.3-25.3H17L26,94
	h-7.3l-1.6-5.2H8.6L7,94H0z M10,83.9h5.7l-2.8-9.3L10,83.9z M28.1,94V68.7h6.1l9.7,14.1V68.7h6.6V94h-5.7L34.7,79.5V94H28.1z
	 M54.7,94V68.7h9.7c2.6,0,4.9,0.5,7,1.4c2.1,0.9,3.7,2.3,4.9,4.2c1.2,1.9,1.8,4.3,1.8,7.3c0,2.8-0.6,5.1-1.8,7
	c-1.2,1.8-2.8,3.2-4.9,4.2c-2.1,0.9-4.4,1.4-7,1.4H54.7z M61.5,88.1h2.7c2.2,0,3.9-0.6,5.1-1.9c1.2-1.3,1.8-2.9,1.8-4.9
	c0-2-0.6-3.7-1.7-4.9s-2.9-1.9-5.2-1.9h-2.7V88.1z M85.6,94l9.3-25.3h7.7l9,25.3h-7.3l-1.6-5.2h-8.5L92.6,94H85.6z M95.6,83.9h5.7
	l-2.8-9.3L95.6,83.9z M113.7,94V68.7h9.7c2.6,0,4.9,0.5,7,1.4c2.1,0.9,3.7,2.3,4.9,4.2c1.2,1.9,1.8,4.3,1.8,7.3c0,2.8-0.6,5.1-1.8,7
	c-1.2,1.8-2.8,3.2-4.9,4.2c-2.1,0.9-4.4,1.4-7,1.4H113.7z M120.4,88.1h2.7c2.2,0,3.9-0.6,5.1-1.9c1.2-1.3,1.8-2.9,1.8-4.9
	c0-2-0.6-3.7-1.7-4.9c-1.1-1.2-2.9-1.9-5.2-1.9h-2.7V88.1z M145.7,94l-9.2-25.3h7.3l5.7,17.6l5.3-17.6h7.2L152.8,94H145.7z
	 M164.1,94V68.7h6.7V94H164.1z M194,85.1l4.5,4.3c-2.8,3.6-6.6,5.4-11.3,5.4c-2.6,0-4.9-0.6-6.9-1.7c-2-1.1-3.5-2.7-4.6-4.7
	c-1.1-2-1.7-4.3-1.7-6.9c0-2.6,0.6-4.9,1.7-6.9c1.1-2,2.7-3.6,4.6-4.8c2-1.2,4.3-1.7,6.9-1.7c2.2,0,4.2,0.4,6.1,1.1
	c1.9,0.7,3.5,2,4.8,3.8l-4.4,4.5c-0.7-1-1.6-1.7-2.5-2.3c-1-0.6-2.1-0.9-3.4-0.9c-1.4,0-2.6,0.3-3.6,1c-1,0.6-1.7,1.4-2.3,2.5
	c-0.5,1-0.8,2.2-0.8,3.5c0,1.3,0.3,2.6,0.8,3.6c0.6,1.1,1.3,1.9,2.4,2.5c1,0.6,2.2,0.9,3.5,0.9c1.5,0,2.7-0.3,3.6-0.8
	C192.2,87,193.1,86.2,194,85.1z M200.6,94V68.7h18.2v5.8h-11.5v3.9h9.5v5.5h-9.5v4.3h12.3V94H200.6z M222.4,99.5l2.4-5.4h-2.4v-6.9
	h7.1V94l-3.2,5.4H222.4z"/>
</svg>
