<svg width="177" height="46" viewBox="0 0 177 46" fill="none" xmlns="http://www.w3.org/2000/svg">
<path d="M1.68 20V1.324H6.636V8.156H13.524V1.324H18.48V20H13.524V12.692H6.636V20H1.68ZM30.5403 20.448C29.1403 20.448 27.843 20.2053 26.6483 19.72C25.4723 19.2347 24.4457 18.5533 23.5683 17.676C22.7097 16.78 22.0377 15.7347 21.5523 14.54C21.067 13.3453 20.8243 12.0387 20.8243 10.62C20.8243 9.20133 21.067 7.89467 21.5523 6.7C22.0377 5.50533 22.7097 4.46933 23.5683 3.592C24.4457 2.71467 25.4723 2.03333 26.6483 1.548C27.843 1.06267 29.1403 0.819998 30.5403 0.819998C31.9403 0.819998 33.2283 1.06267 34.4043 1.548C35.599 2.03333 36.635 2.71467 37.5123 3.592C38.3897 4.46933 39.0617 5.50533 39.5283 6.7C40.0137 7.89467 40.2563 9.20133 40.2563 10.62C40.2563 12.0387 40.0137 13.3453 39.5283 14.54C39.0617 15.7347 38.3897 16.78 37.5123 17.676C36.635 18.5533 35.599 19.2347 34.4043 19.72C33.2283 20.2053 31.9403 20.448 30.5403 20.448ZM30.5403 15.8C31.5297 15.8 32.3603 15.5667 33.0323 15.1C33.723 14.6333 34.2457 14.008 34.6003 13.224C34.955 12.44 35.1323 11.572 35.1323 10.62C35.1323 9.668 34.955 8.8 34.6003 8.016C34.2457 7.232 33.723 6.60667 33.0323 6.14C32.3603 5.67333 31.5297 5.44 30.5403 5.44C29.5697 5.44 28.739 5.67333 28.0483 6.14C27.3763 6.60667 26.8537 7.232 26.4803 8.016C26.1257 8.8 25.9483 9.668 25.9483 10.62C25.9483 11.572 26.1257 12.44 26.4803 13.224C26.8537 14.008 27.3763 14.6333 28.0483 15.1C28.739 15.5667 29.5697 15.8 30.5403 15.8ZM40.787 17.704L43.783 14.092C44.3057 14.6147 44.987 15.0907 45.827 15.52C46.6857 15.9493 47.6097 16.164 48.599 16.164C49.103 16.164 49.5884 16.0613 50.055 15.856C50.5217 15.6507 50.755 15.2587 50.755 14.68C50.755 14.1947 50.503 13.7933 49.999 13.476C49.495 13.14 48.7764 12.8227 47.843 12.524L46.807 12.188C46.0417 11.9267 45.2764 11.5813 44.511 11.152C43.7644 10.704 43.139 10.1347 42.635 9.444C42.1497 8.75333 41.907 7.904 41.907 6.896C41.907 5.73867 42.1777 4.70267 42.719 3.788C43.279 2.87333 44.1004 2.15467 45.183 1.632C46.2657 1.09067 47.5817 0.819998 49.131 0.819998C50.363 0.819998 51.427 0.959999 52.323 1.24C53.2377 1.52 53.9937 1.84667 54.591 2.22C55.1884 2.59333 55.627 2.92933 55.907 3.228L53.387 6.42C52.7337 5.93467 52.0524 5.54267 51.343 5.244C50.6337 4.92667 49.9057 4.768 49.159 4.768C48.6737 4.768 48.207 4.88 47.759 5.104C47.3297 5.30933 47.115 5.67333 47.115 6.196C47.115 6.77467 47.3764 7.19467 47.899 7.456C48.4217 7.71733 49.0844 7.97867 49.887 8.24L50.783 8.52C51.4177 8.70667 52.0524 8.94933 52.687 9.248C53.3404 9.528 53.9377 9.892 54.479 10.34C55.0204 10.788 55.4497 11.3573 55.767 12.048C56.103 12.72 56.271 13.5507 56.271 14.54C56.271 15.6787 55.9257 16.696 55.235 17.592C54.563 18.488 53.6484 19.188 52.491 19.692C51.3524 20.196 50.083 20.448 48.683 20.448C46.8164 20.448 45.2484 20.196 43.979 19.692C42.7284 19.188 41.6644 18.5253 40.787 17.704ZM63.1827 20V5.664H57.4427V1.324H73.8787V5.664H68.1947V20H63.1827ZM75.8373 20V1.324H83.4533C85.4507 1.324 87.056 1.856 88.2693 2.92C89.4827 3.96533 90.0893 5.496 90.0893 7.512C90.0893 8.78133 89.8093 9.892 89.2493 10.844C88.6893 11.7773 87.924 12.5053 86.9533 13.028C85.9827 13.532 84.8627 13.784 83.5933 13.784H80.6813V20H75.8373ZM80.6813 9.892H83.0333C83.7053 9.892 84.2373 9.67733 84.6293 9.248C85.0213 8.81867 85.2173 8.268 85.2173 7.596C85.2173 6.88667 85.0307 6.31733 84.6573 5.888C84.284 5.45867 83.7333 5.244 83.0053 5.244H80.6813V9.892ZM92.2644 20V1.324H97.2204V15.632H105.872V20H92.2644ZM107.458 12.72V1.324H112.414V12.272C112.414 13.2987 112.648 14.1387 113.114 14.792C113.6 15.4453 114.393 15.772 115.494 15.772C116.596 15.772 117.38 15.4453 117.846 14.792C118.313 14.12 118.546 13.28 118.546 12.272V1.324H123.558V12.72C123.558 14.3067 123.213 15.688 122.522 16.864C121.832 18.0213 120.88 18.9173 119.666 19.552C118.472 20.168 117.09 20.476 115.522 20.476C113.954 20.476 112.564 20.168 111.35 19.552C110.137 18.936 109.185 18.0493 108.494 16.892C107.804 15.716 107.458 14.3253 107.458 12.72ZM124.973 17.704L127.969 14.092C128.492 14.6147 129.173 15.0907 130.013 15.52C130.872 15.9493 131.796 16.164 132.785 16.164C133.289 16.164 133.774 16.0613 134.241 15.856C134.708 15.6507 134.941 15.2587 134.941 14.68C134.941 14.1947 134.689 13.7933 134.185 13.476C133.681 13.14 132.962 12.8227 132.029 12.524L130.993 12.188C130.228 11.9267 129.462 11.5813 128.697 11.152C127.95 10.704 127.325 10.1347 126.821 9.444C126.336 8.75333 126.093 7.904 126.093 6.896C126.093 5.73867 126.364 4.70267 126.905 3.788C127.465 2.87333 128.286 2.15467 129.369 1.632C130.452 1.09067 131.768 0.819998 133.317 0.819998C134.549 0.819998 135.613 0.959999 136.509 1.24C137.424 1.52 138.18 1.84667 138.777 2.22C139.374 2.59333 139.813 2.92933 140.093 3.228L137.573 6.42C136.92 5.93467 136.238 5.54267 135.529 5.244C134.82 4.92667 134.092 4.768 133.345 4.768C132.86 4.768 132.393 4.88 131.945 5.104C131.516 5.30933 131.301 5.67333 131.301 6.196C131.301 6.77467 131.562 7.19467 132.085 7.456C132.608 7.71733 133.27 7.97867 134.073 8.24L134.969 8.52C135.604 8.70667 136.238 8.94933 136.873 9.248C137.526 9.528 138.124 9.892 138.665 10.34C139.206 10.788 139.636 11.3573 139.953 12.048C140.289 12.72 140.457 13.5507 140.457 14.54C140.457 15.6787 140.112 16.696 139.421 17.592C138.749 18.488 137.834 19.188 136.677 19.692C135.538 20.196 134.269 20.448 132.869 20.448C131.002 20.448 129.434 20.196 128.165 19.692C126.914 19.188 125.85 18.5253 124.973 17.704ZM0.14 42.704L3.136 39.092C3.65867 39.6147 4.34 40.0907 5.18 40.52C6.03867 40.9493 6.96267 41.164 7.952 41.164C8.456 41.164 8.94133 41.0613 9.408 40.856C9.87467 40.6507 10.108 40.2587 10.108 39.68C10.108 39.1947 9.856 38.7933 9.352 38.476C8.848 38.14 8.12933 37.8227 7.196 37.524L6.16 37.188C5.39467 36.9267 4.62933 36.5813 3.864 36.152C3.11733 35.704 2.492 35.1347 1.988 34.444C1.50267 33.7533 1.26 32.904 1.26 31.896C1.26 30.7387 1.53067 29.7027 2.072 28.788C2.632 27.8733 3.45333 27.1547 4.536 26.632C5.61867 26.0907 6.93467 25.82 8.484 25.82C9.716 25.82 10.78 25.96 11.676 26.24C12.5907 26.52 13.3467 26.8467 13.944 27.22C14.5413 27.5933 14.98 27.9293 15.26 28.228L12.74 31.42C12.0867 30.9347 11.4053 30.5427 10.696 30.244C9.98667 29.9267 9.25867 29.768 8.512 29.768C8.02667 29.768 7.56 29.88 7.112 30.104C6.68267 30.3093 6.468 30.6733 6.468 31.196C6.468 31.7747 6.72933 32.1947 7.252 32.456C7.77467 32.7173 8.43733 32.9787 9.24 33.24L10.136 33.52C10.7707 33.7067 11.4053 33.9493 12.04 34.248C12.6933 34.528 13.2907 34.892 13.832 35.34C14.3733 35.788 14.8027 36.3573 15.12 37.048C15.456 37.72 15.624 38.5507 15.624 39.54C15.624 40.6787 15.2787 41.696 14.588 42.592C13.916 43.488 13.0013 44.188 11.844 44.692C10.7053 45.196 9.436 45.448 8.036 45.448C6.16933 45.448 4.60133 45.196 3.332 44.692C2.08133 44.188 1.01733 43.5253 0.14 42.704ZM17.8036 37.72V26.324H22.7596V37.272C22.7596 38.2987 22.993 39.1387 23.4596 39.792C23.945 40.4453 24.7383 40.772 25.8396 40.772C26.941 40.772 27.725 40.4453 28.1916 39.792C28.6583 39.12 28.8916 38.28 28.8916 37.272V26.324H33.9036V37.72C33.9036 39.3067 33.5583 40.688 32.8676 41.864C32.177 43.0213 31.225 43.9173 30.0116 44.552C28.817 45.168 27.4356 45.476 25.8676 45.476C24.2996 45.476 22.909 45.168 21.6956 44.552C20.4823 43.936 19.5303 43.0493 18.8396 41.892C18.149 40.716 17.8036 39.3253 17.8036 37.72ZM36.8583 45V26.324H44.4743C46.4716 26.324 48.0769 26.856 49.2903 27.92C50.5036 28.9653 51.1103 30.496 51.1103 32.512C51.1103 33.7813 50.8303 34.892 50.2703 35.844C49.7103 36.7773 48.9449 37.5053 47.9743 38.028C47.0036 38.532 45.8836 38.784 44.6143 38.784H41.7023V45H36.8583ZM41.7023 34.892H44.0543C44.7263 34.892 45.2583 34.6773 45.6503 34.248C46.0423 33.8187 46.2383 33.268 46.2383 32.596C46.2383 31.8867 46.0516 31.3173 45.6783 30.888C45.3049 30.4587 44.7543 30.244 44.0263 30.244H41.7023V34.892ZM53.2853 45V26.324H66.7253V30.608H58.2413V33.492H65.2133V37.524H58.2413V40.716H67.3133V45H53.2853ZM69.603 45V26.324H77.331C79.3283 26.324 80.9336 26.8467 82.147 27.892C83.3603 28.9187 83.967 30.44 83.967 32.456C83.967 33.6693 83.6963 34.7333 83.155 35.648C82.6136 36.5627 81.895 37.2907 80.999 37.832L85.003 45H79.683L76.519 38.644H74.447V45H69.603ZM74.447 34.752H76.855C77.5083 34.752 78.0403 34.556 78.451 34.164C78.8616 33.7533 79.067 33.212 79.067 32.54C79.067 31.8307 78.871 31.2707 78.479 30.86C78.087 30.4493 77.5363 30.244 76.827 30.244H74.447V34.752ZM85.0916 42.704L88.0876 39.092C88.6102 39.6147 89.2916 40.0907 90.1316 40.52C90.9902 40.9493 91.9142 41.164 92.9036 41.164C93.4076 41.164 93.8929 41.0613 94.3596 40.856C94.8262 40.6507 95.0596 40.2587 95.0596 39.68C95.0596 39.1947 94.8076 38.7933 94.3036 38.476C93.7996 38.14 93.0809 37.8227 92.1476 37.524L91.1116 37.188C90.3462 36.9267 89.5809 36.5813 88.8156 36.152C88.0689 35.704 87.4436 35.1347 86.9396 34.444C86.4542 33.7533 86.2116 32.904 86.2116 31.896C86.2116 30.7387 86.4822 29.7027 87.0236 28.788C87.5836 27.8733 88.4049 27.1547 89.4876 26.632C90.5702 26.0907 91.8862 25.82 93.4356 25.82C94.6676 25.82 95.7316 25.96 96.6276 26.24C97.5422 26.52 98.2982 26.8467 98.8956 27.22C99.4929 27.5933 99.9316 27.9293 100.212 28.228L97.6916 31.42C97.0382 30.9347 96.3569 30.5427 95.6476 30.244C94.9382 29.9267 94.2102 29.768 93.4636 29.768C92.9782 29.768 92.5116 29.88 92.0636 30.104C91.6342 30.3093 91.4196 30.6733 91.4196 31.196C91.4196 31.7747 91.6809 32.1947 92.2036 32.456C92.7262 32.7173 93.3889 32.9787 94.1916 33.24L95.0876 33.52C95.7222 33.7067 96.3569 33.9493 96.9916 34.248C97.6449 34.528 98.2422 34.892 98.7836 35.34C99.3249 35.788 99.7542 36.3573 100.072 37.048C100.408 37.72 100.576 38.5507 100.576 39.54C100.576 40.6787 100.23 41.696 99.5396 42.592C98.8676 43.488 97.9529 44.188 96.7956 44.692C95.6569 45.196 94.3876 45.448 92.9876 45.448C91.1209 45.448 89.5529 45.196 88.2836 44.692C87.0329 44.188 85.9689 43.5253 85.0916 42.704ZM102.475 45L103.343 26.324H108.075L112.611 34.472L117.063 26.324H121.823L122.691 45H117.679L117.231 34.052L113.955 40.436H111.239L107.599 34.052L107.235 45H102.475ZM123.824 45L130.684 26.324H136.368L142.976 45H137.628L136.424 41.136H130.18L128.948 45H123.824ZM131.188 37.524H135.416L133.344 30.664L131.188 37.524ZM144.499 45V26.324H152.227C154.224 26.324 155.829 26.8467 157.043 27.892C158.256 28.9187 158.863 30.44 158.863 32.456C158.863 33.6693 158.592 34.7333 158.051 35.648C157.509 36.5627 156.791 37.2907 155.895 37.832L159.899 45H154.579L151.415 38.644H149.343V45H144.499ZM149.343 34.752H151.751C152.404 34.752 152.936 34.556 153.347 34.164C153.757 33.7533 153.963 33.212 153.963 32.54C153.963 31.8307 153.767 31.2707 153.375 30.86C152.983 30.4493 152.432 30.244 151.723 30.244H149.343V34.752ZM165.874 45V30.664H160.134V26.324H176.57V30.664H170.886V45H165.874Z" fill="white"/>
</svg>
