<?xml version="1.0" encoding="utf-8"?>
<!-- Generator: Adobe Illustrator 27.7.0, SVG Export Plug-In . SVG Version: 6.00 Build 0)  -->
<svg version="1.1" id="Layer_1" xmlns="http://www.w3.org/2000/svg" xmlns:xlink="http://www.w3.org/1999/xlink" x="0px" y="0px"
	 viewBox="0 0 153.2 46.1" style="enable-background:new 0 0 153.2 46.1;" xml:space="preserve">
<style type="text/css">
	.st0{fill:#FFFFFF;}
</style>
<path class="st0" d="M0.7,19.2V0.5h13v4.3H5.7v3.6h6.2v4.1H5.7v6.6H0.7z M15.7,19.2V0.5h5v18.7H15.7z M23.7,19.2V0.5h4.5l7.2,10.4
	V0.5h4.9v18.7h-4.2L28.6,8.5v10.7H23.7z M41.8,19.2l6.9-18.7h5.7L61,19.2h-5.3l-1.2-3.9h-6.2l-1.2,3.9H41.8z M49.2,11.7h4.2
	l-2.1-6.9L49.2,11.7z M62.5,19.2V0.5H67l7.2,10.4V0.5h4.9v18.7h-4.2L67.4,8.5v10.7H62.5z M96.1,12.6l3.3,3.1
	c-2.1,2.6-4.9,3.9-8.3,3.9c-1.9,0-3.6-0.4-5.1-1.3c-1.5-0.8-2.6-2-3.4-3.4c-0.8-1.5-1.2-3.2-1.2-5.1s0.4-3.6,1.2-5.1
	c0.8-1.5,2-2.7,3.4-3.5S89.2,0,91.1,0c1.6,0,3.1,0.3,4.5,0.8c1.4,0.5,2.6,1.5,3.5,2.8l-3.3,3.3c-0.5-0.7-1.1-1.3-1.9-1.7
	c-0.7-0.4-1.6-0.6-2.5-0.6c-1,0-1.9,0.2-2.7,0.7c-0.7,0.4-1.3,1.1-1.7,1.8c-0.4,0.8-0.6,1.6-0.6,2.6c0,1,0.2,1.9,0.6,2.7
	c0.4,0.8,1,1.4,1.7,1.8c0.7,0.4,1.6,0.7,2.6,0.7c1.1,0,2-0.2,2.7-0.6C94.8,14,95.5,13.4,96.1,12.6z M101,19.2V0.5h5v18.7H101z
	 M107.5,19.2l6.9-18.7h5.7l6.6,18.7h-5.3l-1.2-3.9h-6.2l-1.2,3.9H107.5z M114.8,11.7h4.2L117,4.8L114.8,11.7z M128.1,19.2V0.5h5
	v14.3h8.7v4.4H128.1z M16,46.1l-2-2.4c-0.6,0.3-1.3,0.5-2,0.7c-0.7,0.2-1.5,0.3-2.3,0.3c-1.4,0-2.7-0.2-3.9-0.7
	c-1.2-0.5-2.2-1.2-3.1-2c-0.9-0.9-1.5-1.9-2-3.1C0.2,37.5,0,36.2,0,34.8c0-1.4,0.2-2.7,0.7-3.9c0.5-1.2,1.2-2.2,2-3.1
	c0.9-0.9,1.9-1.6,3.1-2C7,25.2,8.3,25,9.7,25c1.4,0,2.7,0.2,3.9,0.7c1.2,0.5,2.2,1.2,3.1,2c0.9,0.9,1.5,1.9,2,3.1
	c0.5,1.2,0.7,2.5,0.7,3.9c0,1.4-0.2,2.7-0.7,3.9c-0.5,1.2-1.1,2.2-2,3.1l1.8,2.2L16,46.1z M10.9,39.8L9,37.5l2.5-2l2,2.5
	c0.3-0.4,0.5-0.9,0.6-1.5c0.1-0.6,0.2-1.1,0.2-1.7c0-1-0.2-1.8-0.5-2.6c-0.4-0.8-0.9-1.4-1.6-1.9c-0.7-0.5-1.5-0.7-2.5-0.7
	c-1,0-1.8,0.2-2.5,0.7c-0.7,0.5-1.2,1.1-1.6,1.9c-0.4,0.8-0.5,1.7-0.5,2.6s0.2,1.8,0.5,2.6c0.4,0.8,0.9,1.4,1.6,1.9
	C7.9,39.7,8.7,40,9.7,40c0.2,0,0.4,0,0.6,0C10.5,39.9,10.7,39.9,10.9,39.8z M21.7,36.9V25.5h5v10.9c0,1,0.2,1.9,0.7,2.5
	c0.5,0.7,1.3,1,2.4,1c1.1,0,1.9-0.3,2.4-1c0.5-0.7,0.7-1.5,0.7-2.5V25.5h5v11.4c0,1.6-0.3,3-1,4.1c-0.7,1.2-1.6,2.1-2.9,2.7
	c-1.2,0.6-2.6,0.9-4.1,0.9s-3-0.3-4.2-0.9c-1.2-0.6-2.2-1.5-2.9-2.7C22,39.9,21.7,38.5,21.7,36.9z M40.7,44.2V25.5h13.4v4.3h-8.5
	v2.9h7v4h-7v3.2h9.1v4.3H40.7z M55.5,41.9l3-3.6c0.5,0.5,1.2,1,2,1.4c0.9,0.4,1.8,0.6,2.8,0.6c0.5,0,1-0.1,1.5-0.3
	c0.5-0.2,0.7-0.6,0.7-1.2c0-0.5-0.3-0.9-0.8-1.2c-0.5-0.3-1.2-0.7-2.2-1l-1-0.3c-0.8-0.3-1.5-0.6-2.3-1c-0.7-0.4-1.4-1-1.9-1.7
	c-0.5-0.7-0.7-1.5-0.7-2.5c0-1.2,0.3-2.2,0.8-3.1c0.6-0.9,1.4-1.6,2.5-2.2c1.1-0.5,2.4-0.8,3.9-0.8c1.2,0,2.3,0.1,3.2,0.4
	c0.9,0.3,1.7,0.6,2.3,1c0.6,0.4,1,0.7,1.3,1l-2.5,3.2c-0.7-0.5-1.3-0.9-2-1.2c-0.7-0.3-1.4-0.5-2.2-0.5c-0.5,0-1,0.1-1.4,0.3
	c-0.4,0.2-0.6,0.6-0.6,1.1c0,0.6,0.3,1,0.8,1.3c0.5,0.3,1.2,0.5,2,0.8l0.9,0.3c0.6,0.2,1.3,0.4,1.9,0.7c0.7,0.3,1.3,0.6,1.8,1.1
	c0.5,0.4,1,1,1.3,1.7c0.3,0.7,0.5,1.5,0.5,2.5c0,1.1-0.3,2.2-1,3.1c-0.7,0.9-1.6,1.6-2.7,2.1c-1.1,0.5-2.4,0.8-3.8,0.8
	c-1.9,0-3.4-0.3-4.7-0.8C57.4,43.4,56.4,42.7,55.5,41.9z M77.9,44.2V29.8h-5.7v-4.3h16.4v4.3h-5.7v14.3H77.9z M90.5,44.2V25.5h5
	v18.7H90.5z M107.6,44.6c-1.4,0-2.7-0.2-3.9-0.7c-1.2-0.5-2.2-1.2-3.1-2c-0.9-0.9-1.5-1.9-2-3.1c-0.5-1.2-0.7-2.5-0.7-3.9
	c0-1.4,0.2-2.7,0.7-3.9c0.5-1.2,1.2-2.2,2-3.1c0.9-0.9,1.9-1.6,3.1-2c1.2-0.5,2.5-0.7,3.9-0.7c1.4,0,2.7,0.2,3.9,0.7
	c1.2,0.5,2.2,1.2,3.1,2c0.9,0.9,1.5,1.9,2,3.1c0.5,1.2,0.7,2.5,0.7,3.9c0,1.4-0.2,2.7-0.7,3.9c-0.5,1.2-1.1,2.2-2,3.1
	c-0.9,0.9-1.9,1.6-3.1,2C110.3,44.4,109,44.6,107.6,44.6z M107.6,40c1,0,1.8-0.2,2.5-0.7c0.7-0.5,1.2-1.1,1.6-1.9
	c0.4-0.8,0.5-1.7,0.5-2.6s-0.2-1.8-0.5-2.6c-0.4-0.8-0.9-1.4-1.6-1.9c-0.7-0.5-1.5-0.7-2.5-0.7c-1,0-1.8,0.2-2.5,0.7
	c-0.7,0.5-1.2,1.1-1.6,1.9c-0.4,0.8-0.5,1.7-0.5,2.6s0.2,1.8,0.5,2.6c0.4,0.8,0.9,1.4,1.6,1.9C105.8,39.7,106.6,40,107.6,40z
	 M119.6,44.2V25.5h4.5l7.2,10.4V25.5h4.9v18.7H132l-7.4-10.7v10.7H119.6z M137.7,41.9l3-3.6c0.5,0.5,1.2,1,2,1.4
	c0.9,0.4,1.8,0.6,2.8,0.6c0.5,0,1-0.1,1.5-0.3c0.5-0.2,0.7-0.6,0.7-1.2c0-0.5-0.3-0.9-0.8-1.2c-0.5-0.3-1.2-0.7-2.2-1l-1-0.3
	c-0.8-0.3-1.5-0.6-2.3-1c-0.7-0.4-1.4-1-1.9-1.7c-0.5-0.7-0.7-1.5-0.7-2.5c0-1.2,0.3-2.2,0.8-3.1c0.6-0.9,1.4-1.6,2.5-2.2
	c1.1-0.5,2.4-0.8,3.9-0.8c1.2,0,2.3,0.1,3.2,0.4c0.9,0.3,1.7,0.6,2.3,1c0.6,0.4,1,0.7,1.3,1l-2.5,3.2c-0.7-0.5-1.3-0.9-2-1.2
	c-0.7-0.3-1.4-0.5-2.2-0.5c-0.5,0-1,0.1-1.4,0.3c-0.4,0.2-0.6,0.6-0.6,1.1c0,0.6,0.3,1,0.8,1.3c0.5,0.3,1.2,0.5,2,0.8l0.9,0.3
	c0.6,0.2,1.3,0.4,1.9,0.7c0.7,0.3,1.2,0.6,1.8,1.1c0.5,0.4,1,1,1.3,1.7c0.3,0.7,0.5,1.5,0.5,2.5c0,1.1-0.3,2.2-1,3.1
	c-0.7,0.9-1.6,1.6-2.7,2.1c-1.1,0.5-2.4,0.8-3.8,0.8c-1.9,0-3.4-0.3-4.7-0.8C139.7,43.4,138.6,42.7,137.7,41.9z"/>
</svg>
