<svg fill="none" height="76" viewBox="0 0 127 76" width="127" xmlns="http://www.w3.org/2000/svg"><path d="m1.37785 28.6962 4.31103-5.1974c.75208.7521 1.73247 1.437 2.94117 2.0548 1.23556.6178 2.56515.9267 3.98875.9267.7252 0 1.4235-.1478 2.095-.4432.6715-.2955 1.0073-.8595 1.0073-1.6922 0-.6984-.3626-1.2759-1.0878-1.7325-.7253-.4835-1.7594-.9401-3.1024-1.3698l-1.4907-.4835c-1.10126-.3761-2.20252-.873-3.30378-1.4907-1.0744-.6447-1.97421-1.4639-2.69943-2.4577-.69836-.9939-1.04754-2.216-1.04754-3.6664 0-1.6653.38947-3.15607 1.16841-4.47221.8058-1.31614 1.98764-2.35025 3.54552-3.10233 1.55788-.77894 3.45152-1.16841 5.68092-1.16841 1.7727 0 3.3038.20145 4.593.60435 1.3162.4029 2.404.87295 3.2635 1.41015s1.4908 1.02068 1.8937 1.45044l-3.6261 4.59301c-.9401-.6983-1.9205-1.2624-2.9412-1.6921-1.0207-.4567-2.0682-.685-3.1426-.685-.6984 0-1.3699.1612-2.0145.4835-.6178.2955-.9267.8192-.9267 1.5713 0 .8327.376 1.437 1.1281 1.8131.7521.376 1.7056.7521 2.8606 1.1281l1.2893.4029c.9132.2686 1.8265.6178 2.7397 1.0475.9401.4029 1.7996.9267 2.5786 1.5713.7789.6447 1.3967 1.4639 1.8533 2.4577.4835.967.7252 2.1623.7252 3.5858 0 1.6385-.4969 3.1024-1.4907 4.3917-.967 1.2892-2.2831 2.2965-3.9484 3.0217-1.6385.7252-3.465 1.0878-5.4795 1.0878-2.686 0-4.94221-.3626-6.76869-1.0878-1.79962-.7252-3.33064-1.6787-4.59306-2.8606zm25.81955-7.1716v-16.39803h7.1314v15.75343c0 1.4773.3357 2.686 1.0072 3.6261.6984.9401 1.8399 1.4101 3.4247 1.4101 1.5847 0 2.7128-.47 3.3843-1.4101.6715-.967 1.0073-2.1757 1.0073-3.6261v-15.75343h7.2119v16.39803c0 2.2831-.4969 4.2707-1.4907 5.9629-.9938 1.6653-2.3637 2.9546-4.1096 3.8679-1.7191.8863-3.7067 1.3295-5.9629 1.3295-2.2563 0-4.2573-.4432-6.0032-1.3295-1.7459-.8864-3.1158-2.1623-4.1096-3.8276-.9938-1.6922-1.4908-3.6932-1.4908-6.0032zm27.8212 10.4754v-26.87343h10.9589c2.874 0 5.184.76551 6.9299 2.29653 1.7459 1.50416 2.6188 3.7067 2.6188 6.6076 0 1.8264-.4029 3.4246-1.2086 4.7945-.8059 1.343-1.9071 2.3905-3.3038 3.1426-1.3968.7252-3.0084 1.0878-4.8348 1.0878h-4.1902v8.9444zm6.9702-14.5447h3.3844c.9669 0 1.7324-.3089 2.2965-.9267.5641-.6177.8461-1.4101.8461-2.3771 0-1.0207-.2686-1.8399-.8058-2.4577-.5372-.6177-1.3296-.9266-2.3771-.9266h-3.3441zm17.0701 14.5447v-26.87343h19.3392v6.16433h-12.2079v4.1499h10.0322v5.8018h-10.0322v4.593h13.054v6.1644zm23.8831 0v-26.87343h11.12c2.874 0 5.184.75208 6.93 2.25624 1.746 1.4773 2.618 3.66639 2.618 6.56729 0 1.7459-.389 3.2769-1.168 4.593-.779 1.3162-1.813 2.3637-3.102 3.1427l5.761 10.3142h-7.655l-4.553-9.1458h-2.981v9.1458zm6.97-14.7461h3.465c.94 0 1.705-.2821 2.296-.8461.591-.591.887-1.3699.887-2.3369 0-1.0206-.282-1.8264-.846-2.4174-.564-.5909-1.357-.8863-2.377-.8863h-3.425zm-106.26618 54.7461v-31.5424h21.98988v7.3299h-13.6195v6.1004h10.5456v6.9044h-10.5456v11.2077zm25.58018-12.2954v-19.247h8.3703v18.4904c0 1.7339.3941 3.1526 1.1823 4.2561.8197 1.1034 2.1596 1.6551 4.0196 1.6551 1.8601 0 3.1842-.5517 3.9724-1.6551.7882-1.135 1.1823-2.5537 1.1823-4.2561v-18.4904h8.4649v19.247c0 2.6798-.5833 5.0127-1.7498 6.9989-1.1664 1.9547-2.7743 3.468-4.8235 4.5399-2.0177 1.0403-4.3507 1.5605-6.999 1.5605-2.6482 0-4.9969-.5202-7.0462-1.5605-2.0492-1.0404-3.6571-2.5379-4.8236-4.4926-1.1664-1.9862-1.7497-4.3349-1.7497-7.0462zm32.6549 12.2954v-31.5424h7.6137l12.1062 17.5918v-17.5918h8.2758v31.5424h-7.1408l-12.5792-18.1121v18.1121zm33.6664 0v-31.5424h12.1067c3.247 0 6.131.5674 8.654 1.7024 2.553 1.1034 4.571 2.8374 6.053 5.2019 1.481 2.333 2.222 5.3438 2.222 9.0324 0 3.4679-.741 6.3684-2.222 8.7014-1.482 2.3014-3.516 4.0354-6.101 5.2019-2.553 1.1349-5.438 1.7024-8.654 1.7024zm8.3707-7.3772h3.404c2.712 0 4.824-.7724 6.337-2.3173 1.514-1.5763 2.27-3.6098 2.27-6.1004 0-2.5221-.693-4.5556-2.08-6.1004-1.388-1.5448-3.563-2.3172-6.527-2.3172h-3.404z" fill="#fff"/></svg>