<?xml version="1.0" encoding="UTF-8"?>
<svg id="Layer_1" data-name="Layer 1" xmlns="http://www.w3.org/2000/svg" width="160" height="600" version="1.1" viewBox="0 0 160 600">
  <path d="M17.8,491v-6.7h1v2.8h3.6v-2.8h1v6.7h-1v-3h-3.6v3h-1ZM27,491.1c-.5,0-.9-.1-1.3-.3-.4-.2-.7-.5-.9-.9-.2-.4-.3-.8-.3-1.2s.1-.9.3-1.2c.2-.4.5-.7.9-.9.4-.2.8-.3,1.3-.3s.9.1,1.3.3c.4.2.7.5.9.9.2.4.3.8.3,1.2s-.1.9-.3,1.2c-.2.4-.5.7-.9.9-.4.2-.8.3-1.3.3ZM27,490.4c.3,0,.6,0,.8-.2.2-.2.4-.4.5-.6.1-.3.2-.5.2-.8s0-.6-.2-.8c-.1-.3-.3-.5-.5-.6-.2-.2-.5-.2-.8-.2s-.6,0-.8.2c-.2.2-.4.4-.5.6-.1.3-.2.5-.2.8s0,.5.2.8c.1.3.3.5.5.6.2.2.5.2.8.2ZM30.2,490.4l.5-.6c.2.2.4.3.6.4.2,0,.5.1.8.1s.5,0,.8-.1c.2,0,.3-.3.3-.5s0-.3-.1-.4c0,0-.2-.2-.4-.2-.2,0-.5-.2-.8-.2-.2,0-.5-.1-.7-.2-.2-.1-.4-.2-.6-.4-.1-.2-.2-.4-.2-.7s0-.6.3-.8c.2-.2.4-.4.7-.5.3-.1.6-.2.9-.2s.7,0,1,.2c.3.1.5.2.7.4l-.5.6c-.1-.1-.3-.2-.5-.3-.2,0-.5-.1-.7-.1s-.5,0-.7.1c-.2,0-.3.2-.3.5s.1.4.3.5c.2,0,.5.2.9.3.3,0,.6.2.8.3.2.1.4.3.6.4.1.2.2.4.2.7s0,.6-.3.8c-.2.2-.4.4-.7.5-.3.1-.6.2-1,.2-.9,0-1.5-.2-2-.7ZM35.6,489.5v-2.4h-.8v-.8h.8v-1.5h.9v1.5h1.4v.8h-1.4v2.3c0,.4,0,.6.2.8.1.1.3.2.5.2s.3,0,.4,0c.1,0,.2-.1.3-.2l.4.6c-.2.2-.4.3-.6.4-.2,0-.4.1-.7.1-.5,0-.8-.1-1.1-.4-.2-.3-.3-.7-.3-1.2ZM39.9,493h-.9v-6.4c0,0,0-.2,0-.3h.9v.7c0,0,.2-.2.3-.3.1-.1.3-.2.5-.3.2,0,.5-.1.8-.1.5,0,.9.1,1.2.3.3.2.5.5.7.9.2.4.2.8.2,1.2s0,.8-.2,1.1c-.1.3-.3.6-.6.8-.2.2-.5.3-.8.4-.3,0-.6.1-.8.1s-.6,0-.8-.1c-.2,0-.4-.1-.5-.2v2.2ZM39.9,488.8v1.2c.1,0,.3.2.5.2.2,0,.5.1.8.1s.6,0,.8-.2c.2-.1.4-.3.5-.6.1-.3.2-.5.2-.8s0-.6-.1-.8c0-.3-.2-.5-.4-.6-.2-.2-.5-.2-.8-.2s-.6,0-.8.3c-.2.2-.4.4-.5.8,0,.1,0,.2,0,.4,0,.1,0,.2,0,.4ZM44.6,491v-6.7h.9v6.7h-.9ZM46.7,489.1v-2.8h.9v2.7c0,.4,0,.8.3,1,.2.2.4.3.8.3s.6,0,.8-.3c.2-.2.3-.4.4-.7,0-.3.1-.6.1-.9v-2.2h.9v4.4c0,0,0,.2,0,.3h-.9v-.7c-.1.1-.2.2-.3.4-.1.1-.3.2-.5.3-.2,0-.4.1-.7.1-.6,0-1.1-.2-1.3-.5-.3-.4-.4-.8-.4-1.4ZM51.9,490.4l.5-.6c.2.2.4.3.6.4.2,0,.5.1.8.1s.5,0,.8-.1c.2,0,.3-.3.3-.5s0-.3-.1-.4c0,0-.2-.2-.4-.2-.2,0-.5-.2-.8-.2-.2,0-.5-.1-.7-.2-.2-.1-.4-.2-.6-.4-.1-.2-.2-.4-.2-.7s0-.6.3-.8c.2-.2.4-.4.7-.5.3-.1.6-.2.9-.2s.7,0,1,.2c.3.1.5.2.7.4l-.5.6c-.1-.1-.3-.2-.5-.3-.2,0-.5-.1-.7-.1s-.5,0-.7.1c-.2,0-.3.2-.3.5s.1.4.3.5c.2,0,.5.2.9.3.3,0,.6.2.8.3.2.1.4.3.6.4.1.2.2.4.2.7s0,.6-.3.8c-.2.2-.4.4-.7.5-.3.1-.6.2-1,.2-.9,0-1.5-.2-2-.7ZM58.8,491v-6.7h2.3c.5,0,.8,0,1.1.2.3.2.5.4.7.6.1.3.2.5.2.9s0,.5-.2.7-.3.4-.4.5c-.2.1-.3.2-.5.2.1,0,.3,0,.5.1.2,0,.3.2.5.3.2.1.3.3.4.5,0,.2.1.4.1.8,0,.5-.1.8-.3,1.1-.2.3-.5.5-.9.6-.4.1-.8.2-1.3.2h-2.1ZM59.7,487.1h1.2c.2,0,.4,0,.6,0,.2,0,.3-.2.5-.3.1-.1.2-.3.2-.6s0-.5-.2-.6c-.1-.1-.3-.2-.5-.3-.2,0-.4,0-.6,0h-1.2v1.9ZM59.7,490.2h1.2c.2,0,.4,0,.5,0,.2,0,.4,0,.5-.1s.3-.2.4-.3c.1-.1.2-.3.2-.6s0-.6-.2-.7c-.2-.2-.4-.3-.6-.3-.2,0-.5,0-.7,0h-1.2v2.2ZM67.5,491v-.6c-.2.2-.4.4-.7.5-.3.1-.6.2-.9.2s-.5,0-.8-.1c-.2,0-.5-.2-.6-.5-.2-.2-.2-.5-.2-.9,0-.5.2-.9.5-1.2.4-.3.9-.5,1.5-.5s.3,0,.4,0c.2,0,.3,0,.4,0,.1,0,.2,0,.2,0v-.2c0-.3-.1-.6-.3-.7-.2-.2-.5-.2-.8-.2s-.6,0-.8.1c-.2,0-.4.2-.5.3l-.4-.6c.2-.1.4-.3.7-.4.3-.1.7-.2,1.2-.2s1.1.1,1.4.4c.3.3.5.7.5,1.2v2.9c0,0,0,.1,0,.2h-.8ZM67.4,489.3v-.5s-.1,0-.2,0c-.1,0-.3,0-.4,0-.1,0-.3,0-.4,0-.3,0-.6,0-.8.1-.2,0-.3.2-.4.4,0,.1,0,.3,0,.4,0,.2,0,.4.3.6s.4.2.7.2.4,0,.6-.2c.2-.1.4-.2.5-.4.1-.2.2-.3.2-.5ZM69.5,491v-6.7h.9v6.7h-.9ZM74.6,491v-.6c-.2.2-.4.4-.7.5-.3.1-.6.2-.9.2s-.5,0-.8-.1c-.2,0-.5-.2-.6-.5-.2-.2-.2-.5-.2-.9,0-.5.2-.9.5-1.2.4-.3.9-.5,1.5-.5s.3,0,.5,0c.2,0,.3,0,.4,0,.1,0,.2,0,.2,0v-.2c0-.3-.1-.6-.3-.7-.2-.2-.5-.2-.9-.2s-.6,0-.8.1c-.2,0-.4.2-.5.3l-.4-.6c.2-.1.4-.3.7-.4.3-.1.7-.2,1.2-.2s1.1.1,1.4.4c.3.3.5.7.5,1.2v2.9c0,0,0,.1,0,.2h-.8ZM74.5,489.3v-.5s-.1,0-.2,0c-.1,0-.3,0-.4,0-.1,0-.3,0-.4,0-.3,0-.6,0-.8.1-.2,0-.3.2-.4.4,0,.1,0,.3,0,.4,0,.2,0,.4.3.6.2.1.4.2.7.2s.4,0,.6-.2c.2-.1.4-.2.5-.4.1-.2.2-.3.2-.5ZM77.5,491h-.9v-4.4c0,0,0-.2,0-.3h.9v.7c.1-.1.2-.2.3-.3.1-.1.3-.2.5-.3.2,0,.5-.1.7-.1.6,0,1.1.2,1.3.5.3.4.4.8.4,1.4v2.8h-.9v-2.7c0-.4,0-.8-.3-1-.2-.2-.4-.3-.8-.3s-.6,0-.8.3c-.2.2-.3.4-.4.7,0,.3-.1.6-.1.9v2.2ZM85.6,489.8l.5.6c-.2.2-.5.4-.8.6-.3.1-.7.2-1.1.2s-.9-.1-1.3-.3c-.4-.2-.6-.5-.8-.9-.2-.4-.3-.8-.3-1.3s.1-.9.3-1.2c.2-.4.5-.7.9-.9.4-.2.8-.3,1.3-.3s.7,0,1,.2c.3.1.6.3.8.6l-.6.6c-.1-.2-.3-.3-.5-.4-.2-.1-.4-.2-.7-.2s-.6,0-.8.2c-.2.2-.4.4-.5.6-.1.3-.2.5-.2.8s0,.6.2.8c.1.3.3.5.5.6.2.2.5.2.8.2s.5,0,.7-.1c.2-.1.4-.2.5-.4ZM90.5,489.8l.5.5c0,0-.2.2-.4.3-.2.1-.4.2-.7.3-.3.1-.6.2-1,.2s-.9-.1-1.3-.3c-.4-.2-.7-.5-.9-.9-.2-.4-.3-.8-.3-1.3s0-.9.3-1.2c.2-.4.5-.7.8-.9.4-.2.8-.3,1.2-.3s1,.1,1.3.4c.3.3.6.6.7,1,.2.4.2.9.2,1.3h-3.7c0,.3,0,.5.2.7.1.2.3.4.6.5.2.1.5.2.8.2.4,0,.7,0,1-.2.3-.1.4-.3.5-.4ZM87.4,488.3h2.7c0-.4-.2-.7-.4-.9-.2-.3-.5-.4-1-.4s-.5,0-.7.2c-.2.1-.4.3-.5.5-.1.2-.2.4-.2.6ZM95.5,491v-.6c0,0-.2.1-.3.3-.1.1-.3.2-.5.3-.2,0-.5.1-.8.1s-.7,0-1.1-.3c-.3-.2-.6-.5-.7-.8-.2-.4-.3-.8-.3-1.3s0-.8.2-1.1c.2-.3.3-.6.6-.8.2-.2.5-.3.8-.4.3-.1.5-.2.8-.2s.5,0,.7,0c.2,0,.4.1.6.2v-2.2h.9v6.4c0,0,0,.2,0,.3h-.9ZM95.4,489v-1.7c-.1-.1-.3-.2-.5-.2-.2,0-.4-.1-.7-.1-.4,0-.8.2-1.1.5-.3.3-.4.7-.4,1.3s0,.6.1.8c0,.2.2.4.4.6.2.1.5.2.8.2s.6,0,.8-.2c.2-.1.3-.3.4-.5,0-.2.1-.4.1-.6ZM101.3,491.9h-.9c-.1-.2-.2-.5-.4-.9-.2-.4-.3-.8-.4-1.4-.1-.5-.2-1.1-.2-1.8s0-1.2.2-1.8c.1-.5.3-1,.4-1.4.2-.4.3-.7.4-.9h.9c-.1.3-.3.6-.4,1-.1.4-.3.9-.3,1.4,0,.5-.1,1.1-.1,1.6s0,1.1.1,1.6c0,.5.2,1,.3,1.4.1.4.3.7.4,1ZM102.3,491l.3-6.7h.9l2,3.5,2-3.5h.9l.3,6.7h-.9l-.2-5.1-1.9,3.1h-.5l-1.8-3.1-.2,5.1h-.9ZM109.7,492.8l.4-.6c0,0,.1.1.2.2,0,0,.2,0,.3,0,.2,0,.4,0,.5-.3.1-.2.2-.5.4-.8v-.3c.1,0-2-4.6-2-4.6h1l1.5,3.5,1.3-3.5h1l-1.9,4.5c0,.2-.2.4-.3.7,0,.3-.2.5-.3.7-.1.2-.3.4-.5.6-.2.2-.4.2-.7.2s-.4,0-.6-.1c-.2,0-.3-.1-.4-.2ZM114.8,490l.7-.6c.1.1.3.3.4.4.2.1.4.3.6.4.2,0,.5.1.8.1.4,0,.8-.1,1-.3.2-.2.4-.5.4-.8s-.1-.6-.4-.8c-.3-.2-.7-.3-1.2-.4-.6-.1-1-.3-1.4-.6-.4-.3-.5-.7-.5-1.3s0-.6.2-.9c.2-.3.4-.5.8-.7.3-.2.7-.3,1.2-.3s.8,0,1.1.2c.3.1.5.2.7.4.2.1.3.3.3.4l-.6.6c0,0-.1-.2-.3-.3-.1-.1-.3-.2-.5-.3-.2,0-.4-.1-.7-.1s-.5,0-.7.1c-.2,0-.3.2-.4.4,0,.1-.1.3-.1.4,0,.3.1.6.4.7.3.2.7.3,1.2.4.3,0,.6.2.9.4.3.2.5.4.7.6.2.3.3.6.3,1.1s-.1.7-.3,1-.5.5-.8.7c-.4.2-.8.2-1.2.2s-.8,0-1.1-.2c-.3-.1-.6-.3-.8-.4-.2-.2-.4-.4-.6-.5ZM120.7,489.1v-2.8h.9v2.7c0,.4,0,.8.3,1s.4.3.8.3.6,0,.8-.3c.2-.2.3-.4.4-.7,0-.3.1-.6.1-.9v-2.2h.9v4.4c0,0,0,.2,0,.3h-.9v-.7c-.1.1-.2.2-.3.4-.1.1-.3.2-.5.3-.2,0-.4.1-.7.1-.6,0-1.1-.2-1.3-.5-.3-.4-.4-.8-.4-1.4ZM127,493h-.9v-6.4c0,0,0-.2,0-.3h.9v.7c0,0,.2-.2.3-.3.1-.1.3-.2.5-.3.2,0,.5-.1.8-.1.5,0,.9.1,1.2.3.3.2.5.5.7.9.2.4.2.8.2,1.2s0,.8-.2,1.1c-.1.3-.3.6-.6.8-.2.2-.5.3-.8.4-.3,0-.6.1-.8.1s-.6,0-.8-.1c-.2,0-.4-.1-.5-.2v2.2ZM127,488.8v1.2c.1,0,.3.2.5.2.2,0,.5.1.8.1s.6,0,.8-.2c.2-.1.4-.3.5-.6.1-.3.2-.5.2-.8s0-.6-.1-.8c0-.3-.2-.5-.4-.6-.2-.2-.5-.2-.8-.2s-.6,0-.8.3c-.2.2-.4.4-.5.8,0,.1,0,.2,0,.4,0,.1,0,.2,0,.4ZM135.4,489.8l.5.5c0,0-.2.2-.4.3-.2.1-.4.2-.7.3-.3.1-.6.2-1,.2s-.9-.1-1.3-.3c-.4-.2-.7-.5-.9-.9-.2-.4-.3-.8-.3-1.3s0-.9.3-1.2c.2-.4.5-.7.8-.9.4-.2.8-.3,1.2-.3s1,.1,1.3.4c.3.3.6.6.7,1,.2.4.2.9.2,1.3h-3.7c0,.3,0,.5.2.7.1.2.3.4.6.5.2.1.5.2.8.2.4,0,.7,0,1-.2.3-.1.4-.3.6-.4ZM132.4,488.3h2.7c0-.4-.2-.7-.4-.9-.2-.3-.5-.4-1-.4s-.5,0-.7.2c-.2.1-.4.3-.5.5-.1.2-.2.4-.2.6ZM138,491h-.9v-4.4c0,0,0-.2,0-.3h.9v.8c.1-.1.2-.2.3-.4.1-.1.3-.2.5-.3.2,0,.4-.1.7-.1s.2,0,.3,0c0,0,.2,0,.2,0l-.2.8c-.1,0-.3,0-.5,0s-.5,0-.7.2c-.2.1-.4.3-.5.5-.1.2-.2.5-.2.7v2.5ZM140.5,483.9h.9c.1.2.2.5.4.9.2.4.3.8.4,1.4.1.5.2,1.1.2,1.8s0,1.2-.2,1.8c-.1.5-.3,1-.4,1.4-.2.4-.3.7-.4.9h-.9c.1-.3.3-.6.4-1,.1-.4.3-.9.4-1.4,0-.5.1-1.1.1-1.7s0-1.1-.1-1.6-.2-1-.4-1.4c-.1-.4-.3-.7-.4-1ZM12.5,494.5v-1h1v1h-1ZM12.6,500v-4.6h.9v4.6h-.9ZM15.7,500h-.9v-4.4c0,0,0-.2,0-.3h.9v.7c.1-.1.2-.2.3-.3.1-.1.3-.2.5-.3.2,0,.5-.1.7-.1.6,0,1.1.2,1.4.5.3.4.4.8.4,1.4v2.8h-.9v-2.7c0-.4,0-.8-.3-1-.2-.2-.4-.3-.8-.3s-.6,0-.8.3c-.2.2-.3.4-.4.7,0,.3-.1.6-.1.9v2.2ZM21.4,500l-2-4.6h1l1.5,3.6,1.4-3.6h1l-2,4.6h-.9ZM28.5,498.8l.5.5c0,0-.2.2-.4.3-.2.1-.4.2-.7.3-.3.1-.6.2-1,.2s-.9-.1-1.3-.3c-.4-.2-.7-.5-.9-.9-.2-.4-.3-.8-.3-1.3s0-.9.3-1.2c.2-.4.5-.7.8-.9.4-.2.8-.3,1.2-.3s1,.1,1.3.4c.3.3.6.6.7,1,.2.4.2.9.2,1.3h-3.7c0,.3,0,.5.2.7.1.2.3.4.5.5.2.1.5.2.8.2.4,0,.7,0,1-.2.3-.1.4-.3.6-.4ZM25.5,497.3h2.7c0-.4-.2-.7-.4-.9-.2-.3-.5-.4-1-.4s-.5,0-.7.2c-.2.1-.4.3-.5.5-.1.2-.2.4-.2.6ZM29.9,499.4l.5-.6c.2.2.4.3.6.4.2,0,.5.1.8.1s.6,0,.8-.1c.2,0,.3-.3.3-.5s0-.3-.1-.4c0,0-.2-.2-.4-.2-.2,0-.5-.2-.8-.2-.2,0-.5-.1-.7-.2-.2-.1-.4-.2-.6-.4-.1-.2-.2-.4-.2-.7s0-.6.3-.8c.2-.2.4-.4.7-.5.3-.1.6-.2.9-.2s.7,0,1,.2c.3.1.5.2.7.4l-.5.6c-.1-.1-.3-.2-.5-.3-.2,0-.5-.1-.7-.1s-.5,0-.7.1c-.2,0-.3.2-.3.5s.1.4.3.5c.2,0,.5.2.9.3.3,0,.6.2.8.3.2.1.4.3.6.4.1.2.2.4.2.7s0,.6-.3.8c-.2.2-.4.4-.7.5-.3.1-.6.2-.9.2-.9,0-1.5-.2-2-.7ZM35.2,498.5v-2.4h-.8v-.8h.8v-1.5h.9v1.5h1.4v.8h-1.4v2.3c0,.4,0,.6.2.8.1.1.3.2.5.2s.3,0,.4,0c.1,0,.2-.1.3-.2l.4.6c-.2.2-.4.3-.6.4-.2,0-.4.1-.7.1-.5,0-.8-.1-1.1-.4-.2-.3-.3-.7-.3-1.2ZM39.6,500h-.9v-4.4c0,0,0-.2,0-.3h.9v.7c.1-.1.2-.2.3-.3.1-.1.3-.2.5-.3.2,0,.4-.1.7-.1s.7,0,.9.2c.2.1.4.3.6.6.2-.2.4-.4.7-.6.3-.2.6-.3,1-.3.6,0,1,.2,1.3.5.3.4.4.8.4,1.4v2.8h-.9v-2.7c0-.8-.3-1.3-1-1.3s-.5,0-.7.2c-.2.1-.3.3-.5.5-.1.2-.2.4-.2.7v2.6h-.9v-2.7c0-.4,0-.8-.3-1-.2-.2-.4-.3-.7-.3s-.6,0-.8.3c-.2.2-.3.4-.4.7,0,.3-.1.6-.1.9v2.2ZM50.9,498.8l.5.5c0,0-.2.2-.4.3-.2.1-.4.2-.7.3-.3.1-.6.2-1,.2s-.9-.1-1.3-.3c-.4-.2-.7-.5-.9-.9-.2-.4-.3-.8-.3-1.3s0-.9.3-1.2c.2-.4.5-.7.8-.9.4-.2.8-.3,1.2-.3s1,.1,1.3.4c.3.3.6.6.7,1,.2.4.2.9.2,1.3h-3.7c0,.3,0,.5.2.7.1.2.3.4.6.5.2.1.5.2.8.2.4,0,.7,0,1-.2.3-.1.4-.3.5-.4ZM47.9,497.3h2.7c0-.4-.2-.7-.4-.9-.2-.3-.5-.4-1-.4s-.5,0-.7.2c-.2.1-.4.3-.5.5-.1.2-.2.4-.2.6ZM53.4,500h-.9v-4.4c0,0,0-.2,0-.3h.9v.7c.1-.1.2-.2.4-.3.1-.1.3-.2.5-.3.2,0,.5-.1.7-.1.6,0,1.1.2,1.4.5.3.4.4.8.4,1.4v2.8h-.9v-2.7c0-.4,0-.8-.3-1-.2-.2-.4-.3-.8-.3s-.6,0-.8.3c-.2.2-.3.4-.4.7,0,.3-.1.6-.1.9v2.2ZM58.4,498.5v-2.4h-.8v-.8h.8v-1.5h.9v1.5h1.4v.8h-1.4v2.3c0,.4,0,.6.2.8.1.1.3.2.5.2s.3,0,.4,0c.1,0,.2-.1.3-.2l.4.6c-.2.2-.4.3-.6.4-.2,0-.4.1-.7.1-.5,0-.8-.1-1.1-.4-.2-.3-.3-.7-.3-1.2ZM65.9,500.1c-.5,0-.9-.1-1.3-.3-.4-.2-.7-.5-.9-.9-.2-.4-.3-.8-.3-1.2s.1-.9.3-1.2c.2-.4.5-.7.9-.9.4-.2.8-.3,1.3-.3s.9.1,1.3.3c.4.2.7.5.9.9.2.4.3.8.3,1.2s-.1.9-.3,1.2c-.2.4-.5.7-.9.9-.4.2-.8.3-1.3.3ZM65.9,499.4c.3,0,.6,0,.8-.2.2-.2.4-.4.5-.6.1-.3.2-.5.2-.8s0-.6-.2-.8c-.1-.3-.3-.5-.5-.6-.2-.2-.5-.2-.8-.2s-.6,0-.8.2c-.2.2-.4.4-.5.6-.1.3-.2.5-.2.8s0,.5.2.8c.1.3.3.5.5.6.2.2.5.2.8.2ZM70.2,502h-.9v-6.4c0,0,0-.2,0-.3h.9v.7c0,0,.2-.2.3-.3.1-.1.3-.2.5-.3.2,0,.5-.1.8-.1.5,0,.9.1,1.2.3.3.2.5.5.7.9.2.4.2.8.2,1.2s0,.8-.2,1.1c-.1.3-.3.6-.6.8-.2.2-.5.3-.8.4-.3,0-.6.1-.8.1s-.6,0-.8-.1c-.2,0-.4-.1-.5-.2v2.2ZM70.2,497.8v1.2c.1,0,.3.2.5.2.2,0,.4.1.8.1s.6,0,.8-.2c.2-.1.4-.3.5-.6.1-.3.2-.5.2-.8s0-.6-.1-.8c0-.3-.2-.5-.4-.6-.2-.2-.5-.2-.8-.2s-.6,0-.8.3c-.2.2-.4.4-.5.8,0,.1,0,.2,0,.4,0,.1,0,.2,0,.4ZM75.3,498.5v-2.4h-.8v-.8h.8v-1.5h.9v1.5h1.4v.8h-1.4v2.3c0,.4,0,.6.2.8.1.1.3.2.5.2s.3,0,.4,0c.1,0,.2-.1.3-.2l.4.6c-.2.2-.4.3-.6.4-.2,0-.4.1-.7.1-.5,0-.8-.1-1.1-.4-.2-.3-.3-.7-.3-1.2ZM78.7,494.5v-1h1v1h-1ZM78.8,500v-4.6h.9v4.6h-.9ZM83.2,500.1c-.5,0-.9-.1-1.3-.3-.4-.2-.7-.5-.9-.9-.2-.4-.3-.8-.3-1.2s.1-.9.3-1.2c.2-.4.5-.7.9-.9.4-.2.8-.3,1.3-.3s.9.1,1.3.3c.4.2.7.5.9.9.2.4.3.8.3,1.2s-.1.9-.3,1.2c-.2.4-.5.7-.9.9-.4.2-.8.3-1.3.3ZM83.2,499.4c.3,0,.6,0,.8-.2.2-.2.4-.4.5-.6.1-.3.2-.5.2-.8s0-.6-.2-.8c-.1-.3-.3-.5-.5-.6-.2-.2-.5-.2-.8-.2s-.6,0-.8.2c-.2.2-.4.4-.5.6-.1.3-.2.5-.2.8s0,.5.2.8c.1.3.3.5.5.6.2.2.5.2.8.2ZM87.6,500h-.9v-4.4c0,0,0-.2,0-.3h.9v.7c.1-.1.2-.2.3-.3.1-.1.3-.2.5-.3.2,0,.5-.1.7-.1.6,0,1.1.2,1.4.5.3.4.4.8.4,1.4v2.8h-.9v-2.7c0-.4,0-.8-.3-1-.2-.2-.4-.3-.8-.3s-.6,0-.8.3c-.2.2-.3.4-.4.7,0,.3-.1.6-.1.9v2.2ZM97.4,498.8l.5.6c-.2.2-.5.4-.8.6-.3.1-.7.2-1.1.2s-.9-.1-1.3-.3c-.4-.2-.6-.5-.8-.9-.2-.4-.3-.8-.3-1.3s.1-.9.3-1.2c.2-.4.5-.7.9-.9.4-.2.8-.3,1.3-.3s.7,0,1,.2c.3.1.6.3.8.6l-.6.6c-.1-.2-.3-.3-.5-.4-.2-.1-.4-.2-.7-.2s-.6,0-.8.2c-.2.2-.4.4-.5.6-.1.3-.2.5-.2.8s0,.6.2.8c.1.3.3.5.5.6.2.2.5.2.8.2s.5,0,.7-.1c.2-.1.4-.2.5-.4ZM100.8,500.1c-.5,0-.9-.1-1.3-.3-.4-.2-.7-.5-.9-.9-.2-.4-.3-.8-.3-1.2s.1-.9.3-1.2c.2-.4.5-.7.9-.9.4-.2.8-.3,1.3-.3s.9.1,1.3.3c.4.2.7.5.9.9.2.4.3.8.3,1.2s-.1.9-.3,1.2c-.2.4-.5.7-.9.9-.4.2-.8.3-1.3.3ZM100.8,499.4c.3,0,.6,0,.8-.2.2-.2.4-.4.5-.6.1-.3.2-.5.2-.8s0-.6-.2-.8c-.1-.3-.3-.5-.5-.6-.2-.2-.5-.2-.8-.2s-.6,0-.8.2c-.2.2-.4.4-.5.6-.1.3-.2.5-.2.8s0,.5.2.8c.1.3.3.5.5.6.2.2.5.2.8.2ZM105.2,500h-.9v-4.4c0,0,0-.2,0-.3h.9v.7c.1-.1.2-.2.3-.3.1-.1.3-.2.5-.3.2,0,.4-.1.7-.1s.7,0,.9.2c.2.1.4.3.6.6.2-.2.4-.4.7-.6.3-.2.6-.3,1-.3.6,0,1,.2,1.3.5.3.4.4.8.4,1.4v2.8h-.9v-2.7c0-.8-.3-1.3-1-1.3s-.5,0-.7.2c-.2.1-.3.3-.5.5-.1.2-.2.4-.2.7v2.6h-.9v-2.7c0-.4,0-.8-.3-1-.2-.2-.4-.3-.7-.3s-.6,0-.8.3c-.2.2-.3.4-.4.7,0,.3-.1.6-.1.9v2.2ZM113.7,502h-.9v-6.4c0,0,0-.2,0-.3h.9v.7c0,0,.2-.2.3-.3.1-.1.3-.2.5-.3.2,0,.5-.1.8-.1.5,0,.9.1,1.2.3.3.2.5.5.7.9.2.4.2.8.2,1.2s0,.8-.2,1.1c-.1.3-.3.6-.6.8-.2.2-.5.3-.8.4-.3,0-.6.1-.8.1s-.6,0-.8-.1c-.2,0-.4-.1-.5-.2v2.2ZM113.7,497.8v1.2c.1,0,.3.2.5.2.2,0,.4.1.8.1s.6,0,.8-.2c.2-.1.4-.3.5-.6.1-.3.2-.5.2-.8s0-.6-.1-.8c0-.3-.2-.5-.4-.6-.2-.2-.5-.2-.8-.2s-.6,0-.8.3c-.2.2-.4.4-.5.8,0,.1,0,.2,0,.4,0,.1,0,.2,0,.4ZM121.3,500v-.6c-.2.2-.4.4-.7.5-.3.1-.6.2-.9.2s-.5,0-.8-.1c-.2,0-.5-.2-.6-.5-.2-.2-.2-.5-.2-.9,0-.5.2-.9.5-1.2.4-.3.9-.5,1.5-.5s.3,0,.4,0c.2,0,.3,0,.4,0,.1,0,.2,0,.2,0v-.2c0-.3-.1-.6-.3-.7-.2-.2-.5-.2-.8-.2s-.6,0-.8.1c-.2,0-.4.2-.5.3l-.4-.6c.2-.1.4-.3.7-.4.3-.1.7-.2,1.2-.2s1.1.1,1.4.4c.3.3.5.7.5,1.2v2.9c0,0,0,.1,0,.2h-.8ZM121.3,498.3v-.5s-.1,0-.2,0c-.1,0-.3,0-.4,0-.1,0-.3,0-.4,0-.3,0-.6,0-.8.1-.2,0-.3.2-.4.4,0,.1,0,.3,0,.4,0,.2,0,.4.3.6.2.1.4.2.7.2s.4,0,.6-.2c.2-.1.4-.2.5-.4.1-.2.2-.3.2-.5ZM124.3,500h-.9v-4.4c0,0,0-.2,0-.3h.9v.8c.1-.1.2-.2.3-.4.1-.1.3-.2.5-.3.2,0,.4-.1.7-.1s.2,0,.3,0c0,0,.2,0,.2,0l-.2.8c-.1,0-.3,0-.5,0s-.5,0-.7.2c-.2.1-.4.3-.5.5-.1.2-.2.5-.2.7v2.5ZM130.5,498.8l.5.5c0,0-.2.2-.4.3-.2.1-.4.2-.7.3-.3.1-.6.2-1,.2s-.9-.1-1.3-.3c-.4-.2-.7-.5-.9-.9-.2-.4-.3-.8-.3-1.3s0-.9.3-1.2c.2-.4.5-.7.8-.9.4-.2.8-.3,1.2-.3s1,.1,1.3.4c.3.3.6.6.7,1,.2.4.2.9.2,1.3h-3.7c0,.3,0,.5.2.7.1.2.3.4.5.5.2.1.5.2.8.2.4,0,.7,0,1-.2.3-.1.4-.3.6-.4ZM127.5,497.3h2.7c0-.4-.2-.7-.4-.9-.2-.3-.5-.4-1-.4s-.5,0-.7.2c-.2.1-.4.3-.5.5-.1.2-.2.4-.2.6ZM135.5,500v-.6c0,0-.2.1-.3.3-.1.1-.3.2-.5.3-.2,0-.5.1-.8.1s-.7,0-1.1-.3c-.3-.2-.6-.5-.7-.8-.2-.4-.3-.8-.3-1.3s0-.8.2-1.1c.2-.3.4-.6.6-.8.2-.2.5-.3.8-.4.3-.1.5-.2.8-.2s.5,0,.6,0c.2,0,.4.1.6.2v-2.2h.9v6.4c0,0,0,.2,0,.3h-.9ZM135.5,498v-1.7c-.1-.1-.3-.2-.5-.2-.2,0-.4-.1-.7-.1-.4,0-.8.2-1.1.5-.3.3-.4.7-.4,1.3s0,.6.1.8c0,.2.2.4.4.6.2.1.5.2.8.2s.6,0,.8-.2c.2-.1.3-.3.4-.5,0-.2.1-.4.1-.6ZM139.8,498.5v-2.4h-.8v-.8h.8v-1.5h.9v1.5h1.4v.8h-1.4v2.3c0,.4,0,.6.2.8.1.1.3.2.5.2s.3,0,.4,0c.1,0,.2-.1.3-.2l.4.6c-.2.2-.4.3-.6.4-.2,0-.4.1-.7.1-.5,0-.8-.1-1.1-.4-.2-.3-.4-.7-.4-1.2ZM145.2,500.1c-.5,0-.9-.1-1.3-.3-.4-.2-.7-.5-.9-.9-.2-.4-.3-.8-.3-1.2s.1-.9.3-1.2c.2-.4.5-.7.9-.9.4-.2.8-.3,1.3-.3s.9.1,1.3.3c.4.2.7.5.9.9.2.4.3.8.3,1.2s-.1.9-.3,1.2c-.2.4-.5.7-.9.9-.4.2-.8.3-1.3.3ZM145.2,499.4c.3,0,.6,0,.8-.2.2-.2.4-.4.5-.6.1-.3.2-.5.2-.8s0-.6-.2-.8c-.1-.3-.3-.5-.5-.6-.2-.2-.5-.2-.8-.2s-.6,0-.8.2c-.2.2-.4.4-.5.6-.1.3-.2.5-.2.8s0,.5.2.8c.1.3.3.5.5.6.2.2.5.2.8.2ZM13.2,507.5v-2.4h-.8v-.8h.8v-1.5h.9v1.5h1.4v.8h-1.4v2.3c0,.4,0,.6.2.8.1.1.3.2.5.2s.3,0,.4,0c.1,0,.2-.1.3-.2l.4.6c-.2.2-.4.3-.6.4-.2,0-.4.1-.7.1-.5,0-.8-.1-1.1-.4-.2-.3-.4-.7-.4-1.2ZM16.6,509v-6.7h.9v2.7c0-.1.2-.2.3-.4.1-.1.3-.2.5-.3.2,0,.5-.1.7-.1.6,0,1.1.2,1.4.5.3.4.4.8.4,1.4v2.8h-.9v-2.7c0-.4,0-.8-.3-1-.2-.2-.4-.3-.8-.3s-.6,0-.8.3c-.2.2-.3.4-.4.7,0,.3-.1.6-.1.9v2.2h-.9ZM25.8,507.8l.5.5c0,0-.2.2-.4.3-.2.1-.4.2-.7.3-.3.1-.6.2-1,.2s-.9-.1-1.3-.3c-.4-.2-.7-.5-.9-.9-.2-.4-.3-.8-.3-1.3s0-.9.3-1.2c.2-.4.5-.7.8-.9.4-.2.8-.3,1.2-.3s1,.1,1.3.4c.3.3.6.6.7,1,.2.4.2.9.2,1.3h-3.7c0,.3,0,.5.2.7.1.2.3.4.5.5.2.1.5.2.8.2.4,0,.7,0,1-.2.3-.1.4-.3.5-.4ZM22.7,506.3h2.7c0-.4-.2-.7-.4-.9-.2-.3-.5-.4-1-.4s-.5,0-.7.2c-.2.1-.4.3-.5.5-.1.2-.2.4-.2.6ZM28.9,508l.7-.6c.1.1.3.3.4.4.2.1.4.3.6.4.2,0,.5.1.8.1.4,0,.8-.1,1-.3.2-.2.4-.5.4-.8s-.1-.6-.4-.8c-.3-.2-.7-.3-1.2-.4-.6-.1-1-.3-1.4-.6-.4-.3-.5-.7-.5-1.3s0-.6.2-.9c.2-.3.4-.5.8-.7.3-.2.7-.3,1.2-.3s.8,0,1.1.2c.3.1.5.2.7.4s.3.3.3.4l-.6.6c0,0-.1-.2-.3-.3-.1-.1-.3-.2-.5-.3-.2,0-.4-.1-.7-.1s-.5,0-.7.1c-.2,0-.3.2-.4.4,0,.1-.1.3-.1.4,0,.3.1.6.4.7.3.2.7.3,1.2.4.3,0,.6.2.9.4.3.2.5.4.7.6.2.3.3.6.3,1.1s-.1.7-.3,1c-.2.3-.5.5-.8.7-.4.2-.8.2-1.2.2s-.8,0-1.1-.2c-.3-.1-.6-.3-.8-.4-.2-.2-.4-.4-.5-.5ZM34.8,507.1v-2.8h.9v2.7c0,.4,0,.8.3,1,.2.2.4.3.8.3s.6,0,.8-.3c.2-.2.3-.4.4-.7,0-.3.1-.6.1-.9v-2.2h.9v4.4c0,0,0,.2,0,.3h-.9v-.7c-.1.1-.2.2-.3.4-.1.1-.3.2-.5.3-.2,0-.4.1-.7.1-.6,0-1.1-.2-1.3-.5-.3-.4-.4-.8-.4-1.4ZM41.1,511h-.9v-6.4c0,0,0-.2,0-.3h.9v.7c0,0,.2-.2.3-.3.1-.1.3-.2.5-.3.2,0,.5-.1.8-.1.5,0,.9.1,1.2.3.3.2.5.5.7.9.2.4.2.8.2,1.2s0,.8-.2,1.1c-.1.3-.3.6-.6.8-.2.2-.5.3-.8.4-.3,0-.6.1-.8.1s-.6,0-.8-.1c-.2,0-.4-.1-.5-.2v2.2ZM41.1,506.8v1.2c.1,0,.3.2.5.2.2,0,.5.1.8.1s.6,0,.8-.2c.2-.1.4-.3.5-.6.1-.3.2-.5.2-.8s0-.6-.1-.8c0-.3-.2-.5-.4-.6-.2-.2-.5-.2-.8-.2s-.6,0-.8.3c-.2.2-.4.4-.5.8,0,.1,0,.2,0,.4,0,.1,0,.2,0,.4ZM49.5,507.8l.5.5c0,0-.2.2-.4.3-.2.1-.4.2-.7.3-.3.1-.6.2-1,.2s-.9-.1-1.3-.3c-.4-.2-.7-.5-.9-.9-.2-.4-.3-.8-.3-1.3s0-.9.3-1.2c.2-.4.5-.7.8-.9.4-.2.8-.3,1.2-.3s1,.1,1.3.4c.3.3.6.6.7,1,.2.4.2.9.2,1.3h-3.7c0,.3,0,.5.2.7.1.2.3.4.5.5.2.1.5.2.8.2.4,0,.7,0,1-.2.3-.1.4-.3.5-.4ZM46.5,506.3h2.7c0-.4-.2-.7-.4-.9-.2-.3-.5-.4-1-.4s-.5,0-.7.2c-.2.1-.4.3-.5.5-.1.2-.2.4-.2.6ZM52.1,509h-.9v-4.4c0,0,0-.2,0-.3h.9v.8c.1-.1.2-.2.3-.4.1-.1.3-.2.5-.3.2,0,.4-.1.7-.1s.2,0,.3,0c0,0,.2,0,.2,0l-.2.8c-.1,0-.3,0-.5,0s-.5,0-.7.2c-.2.1-.4.3-.5.5-.1.2-.2.5-.2.7v2.5ZM55,509v-6.7h2.1c.6,0,1,0,1.4.3s.6.4.7.7c.2.3.2.6.2.9s0,.8-.3,1.1c-.2.3-.5.6-.9.7l1.6,2.9h-1.1l-1.4-2.7h-1.3v2.7h-.9ZM55.9,505.5h1.3c.4,0,.7-.1.9-.3.2-.2.3-.5.3-.8s-.1-.6-.3-.9c-.2-.2-.5-.3-.9-.3h-1.3v2.3ZM63.5,509v-.6c-.2.2-.4.4-.7.5-.3.1-.6.2-.9.2s-.5,0-.8-.1c-.2,0-.5-.2-.6-.5-.2-.2-.2-.5-.2-.9,0-.5.2-.9.5-1.2.4-.3.9-.5,1.5-.5s.3,0,.4,0c.2,0,.3,0,.4,0,.1,0,.2,0,.2,0v-.2c0-.3-.1-.6-.3-.7-.2-.2-.5-.2-.8-.2s-.6,0-.8.1c-.2,0-.4.2-.5.3l-.4-.6c.2-.1.4-.3.7-.4.3-.1.7-.2,1.2-.2s1.1.1,1.4.4c.3.3.5.7.5,1.2v2.9c0,0,0,.1,0,.2h-.8ZM63.4,507.3v-.5s-.1,0-.2,0c-.1,0-.3,0-.4,0-.1,0-.3,0-.4,0-.3,0-.6,0-.8.1-.2,0-.3.2-.4.4,0,.1,0,.3,0,.4,0,.2,0,.4.3.6.2.1.4.2.7.2s.4,0,.6-.2c.2-.1.4-.2.5-.4.1-.2.2-.3.2-.5ZM65.9,507.5v-2.4h-.8v-.8h.8v-1.5h.9v1.5h1.4v.8h-1.4v2.3c0,.4,0,.6.2.8.1.1.3.2.5.2s.3,0,.4,0c.1,0,.2-.1.3-.2l.4.6c-.2.2-.4.3-.6.4-.2,0-.4.1-.7.1-.5,0-.8-.1-1.1-.4-.2-.3-.4-.7-.4-1.2ZM69.3,503.5v-1h1v1h-1ZM69.4,509v-4.6h.9v4.6h-.9ZM72.5,509h-.9v-4.4c0,0,0-.2,0-.3h.9v.7c.1-.1.2-.2.4-.3.1-.1.3-.2.5-.3.2,0,.5-.1.7-.1.6,0,1.1.2,1.3.5.3.4.4.8.4,1.4v2.8h-.9v-2.7c0-.4,0-.8-.3-1-.2-.2-.4-.3-.8-.3s-.6,0-.8.3c-.2.2-.3.4-.4.7,0,.3-.1.6-.1.9v2.2ZM77.2,510.6l.4-.7c.2.1.3.2.6.3.2,0,.5.1.8.1s.8-.1,1-.4.3-.6.3-1v-.6c0,0-.2.1-.3.2-.1,0-.3.2-.5.3-.2,0-.4.1-.7.1-.5,0-.8-.1-1.2-.3-.3-.2-.6-.5-.7-.8-.2-.4-.2-.8-.2-1.2s.1-.9.3-1.3c.2-.4.5-.7.9-.9.4-.2.8-.3,1.4-.3s.7,0,1.1.1c.3,0,.6.1.8.2v4.4c0,.7-.2,1.2-.6,1.6-.4.4-.9.6-1.6.6s-.8,0-1.1-.2c-.3-.1-.5-.2-.7-.4ZM80.3,507.1v-1.9c0,0-.2,0-.3,0-.1,0-.4,0-.6,0s-.6,0-.9.2c-.3.1-.5.3-.6.6-.1.3-.2.5-.2.9s0,.5.1.8c0,.2.2.4.4.6.2.1.5.2.8.2s.5,0,.7-.2c.2-.1.3-.3.4-.4,0-.2.1-.4.1-.6ZM82.2,508.4l.5-.6c.2.2.4.3.6.4.2,0,.5.1.8.1s.5,0,.8-.1c.2,0,.3-.3.3-.5s0-.3-.1-.4-.2-.2-.4-.2c-.2,0-.5-.2-.8-.2-.2,0-.5-.1-.7-.2-.2-.1-.4-.2-.6-.4-.1-.2-.2-.4-.2-.7s0-.6.3-.8c.2-.2.4-.4.7-.5.3-.1.6-.2.9-.2s.7,0,1,.2c.3.1.5.2.7.4l-.5.6c-.1-.1-.3-.2-.5-.3-.2,0-.4-.1-.7-.1s-.5,0-.7.1c-.2,0-.3.2-.3.5s.1.4.3.5c.2,0,.5.2.9.3.3,0,.6.2.8.3.2.1.4.3.6.4.1.2.2.4.2.7s0,.6-.3.8c-.2.2-.4.4-.7.5-.3.1-.6.2-1,.2-.9,0-1.5-.2-2-.7ZM88.5,509l2.6-6.7h1l2.6,6.7h-1.1l-.7-1.9h-2.7l-.7,1.9h-1ZM90.5,506.3h2.2l-1.1-2.9-1.1,2.9ZM98.7,507.8l.5.6c-.2.2-.5.4-.8.6-.3.1-.7.2-1.1.2s-.9-.1-1.3-.3c-.4-.2-.6-.5-.8-.9-.2-.4-.3-.8-.3-1.3s.1-.9.3-1.2c.2-.4.5-.7.9-.9.4-.2.8-.3,1.3-.3s.7,0,1,.2c.3.1.6.3.8.6l-.6.6c-.1-.2-.3-.3-.5-.4-.2-.1-.4-.2-.7-.2s-.6,0-.8.2c-.2.2-.4.4-.5.6s-.2.5-.2.8,0,.6.2.8c.1.3.3.5.5.6.2.2.5.2.8.2s.5,0,.7-.1c.2-.1.4-.2.5-.4ZM103.4,507.8l.6.6c-.2.2-.5.4-.8.6-.3.1-.7.2-1,.2s-.9-.1-1.3-.3c-.4-.2-.6-.5-.8-.9-.2-.4-.3-.8-.3-1.3s.1-.9.3-1.2c.2-.4.5-.7.9-.9.4-.2.8-.3,1.3-.3s.7,0,1,.2c.3.1.6.3.8.6l-.6.6c-.1-.2-.3-.3-.5-.4-.2-.1-.4-.2-.7-.2s-.6,0-.8.2c-.2.2-.4.4-.5.6-.1.3-.2.5-.2.8s0,.6.2.8c.1.3.3.5.5.6.2.2.5.2.8.2s.5,0,.7-.1c.2-.1.4-.2.5-.4ZM104.8,507.1v-2.8h.9v2.7c0,.4,0,.8.3,1s.4.3.8.3.6,0,.8-.3c.2-.2.3-.4.4-.7,0-.3.1-.6.1-.9v-2.2h.9v4.4c0,0,0,.2,0,.3h-.9v-.7c-.1.1-.2.2-.3.4-.1.1-.3.2-.5.3-.2,0-.4.1-.7.1-.6,0-1.1-.2-1.3-.5-.3-.4-.4-.8-.4-1.4ZM111.1,509h-.9v-4.4c0,0,0-.2,0-.3h.9v.7c.1-.1.2-.2.3-.3.1-.1.3-.2.5-.3.2,0,.4-.1.7-.1s.7,0,.9.2c.2.1.4.3.6.6.2-.2.4-.4.7-.6.3-.2.6-.3,1-.3.6,0,1,.2,1.3.5.3.4.4.8.4,1.4v2.8h-.9v-2.7c0-.8-.3-1.3-1-1.3s-.5,0-.7.2c-.2.1-.3.3-.5.5-.1.2-.2.4-.2.7v2.6h-.9v-2.7c0-.4,0-.8-.3-1-.2-.2-.4-.3-.7-.3s-.6,0-.8.3c-.2.2-.3.4-.4.7,0,.3-.1.6-.1.9v2.2ZM118.7,507.1v-2.8h.9v2.7c0,.4,0,.8.3,1s.4.3.8.3.6,0,.8-.3c.2-.2.3-.4.4-.7,0-.3.1-.6.1-.9v-2.2h.9v4.4c0,0,0,.2,0,.3h-.9v-.7c-.1.1-.2.2-.3.4-.1.1-.3.2-.5.3-.2,0-.4.1-.7.1-.6,0-1.1-.2-1.3-.5-.3-.4-.4-.8-.4-1.4ZM124.1,509v-6.7h.9v6.7h-.9ZM129.2,509v-.6c-.2.2-.4.4-.7.5-.3.1-.6.2-.9.2s-.5,0-.8-.1c-.2,0-.5-.2-.6-.5-.2-.2-.2-.5-.2-.9,0-.5.2-.9.5-1.2.4-.3.9-.5,1.5-.5s.3,0,.4,0c.2,0,.3,0,.4,0,.1,0,.2,0,.2,0v-.2c0-.3-.1-.6-.3-.7-.2-.2-.5-.2-.9-.2s-.6,0-.8.1c-.2,0-.4.2-.5.3l-.4-.6c.2-.1.4-.3.7-.4.3-.1.7-.2,1.2-.2s1.1.1,1.4.4c.3.3.5.7.5,1.2v2.9c0,0,0,.1,0,.2h-.8ZM129.2,507.3v-.5s-.1,0-.2,0c-.1,0-.3,0-.4,0-.1,0-.3,0-.4,0-.3,0-.6,0-.8.1-.2,0-.3.2-.4.4,0,.1,0,.3,0,.4,0,.2,0,.4.3.6.2.1.4.2.7.2s.4,0,.6-.2c.2-.1.4-.2.5-.4.1-.2.2-.3.2-.5ZM131.7,507.5v-2.4h-.8v-.8h.8v-1.5h.9v1.5h1.4v.8h-1.4v2.3c0,.4,0,.6.2.8.1.1.3.2.5.2s.3,0,.4,0c.1,0,.2-.1.3-.2l.4.6c-.2.2-.4.3-.6.4-.2,0-.4.1-.7.1-.5,0-.8-.1-1.1-.4-.2-.3-.4-.7-.4-1.2ZM135.1,503.5v-1h1v1h-1ZM135.1,509v-4.6h.9v4.6h-.9ZM139.6,509.1c-.5,0-.9-.1-1.3-.3-.4-.2-.7-.5-.9-.9-.2-.4-.3-.8-.3-1.2s.1-.9.3-1.2c.2-.4.5-.7.9-.9.4-.2.8-.3,1.3-.3s.9.1,1.3.3c.4.2.7.5.9.9.2.4.3.8.3,1.2s-.1.9-.3,1.2c-.2.4-.5.7-.9.9-.4.2-.8.3-1.3.3ZM139.6,508.4c.3,0,.6,0,.8-.2.2-.2.4-.4.5-.6.1-.3.2-.5.2-.8s0-.6-.2-.8c-.1-.3-.3-.5-.5-.6-.2-.2-.5-.2-.8-.2s-.6,0-.8.2c-.2.2-.4.4-.5.6-.1.3-.2.5-.2.8s0,.5.2.8c.1.3.3.5.5.6.2.2.5.2.8.2ZM143.9,509h-.9v-4.4c0,0,0-.2,0-.3h.9v.7c.1-.1.2-.2.4-.3.1-.1.3-.2.5-.3.2,0,.5-.1.7-.1.6,0,1.1.2,1.4.5.3.4.4.8.4,1.4v2.8h-.9v-2.7c0-.4,0-.8-.3-1-.2-.2-.4-.3-.8-.3s-.6,0-.8.3c-.2.2-.3.4-.4.7,0,.3-.1.6-.1.9v2.2ZM19.5,518v-6.7h4.2v.9h-3.2v2h2.5v.9h-2.5v2.9h-1ZM24,516.1v-2.8h.9v2.7c0,.4,0,.8.3,1,.2.2.4.3.8.3s.6,0,.8-.3c.2-.2.3-.4.4-.7,0-.3.1-.6.1-.9v-2.2h.9v4.4c0,0,0,.2,0,.3h-.9v-.7c-.1.1-.2.2-.3.3-.1.1-.3.2-.5.3-.2,0-.4.1-.7.1-.6,0-1.1-.2-1.3-.5-.3-.4-.4-.8-.4-1.4ZM30.3,518h-.9v-4.3c0,0,0-.2,0-.3h.9v.7c.1-.1.2-.2.4-.3.1-.1.3-.2.5-.3.2,0,.5-.1.7-.1.6,0,1.1.2,1.3.5.3.4.4.8.4,1.4v2.8h-.9v-2.7c0-.4,0-.8-.3-1-.2-.2-.4-.3-.8-.3s-.6,0-.8.3c-.2.2-.3.4-.4.7,0,.3-.1.6-.1.9v2.2ZM38.2,518v-.6c0,0-.2.1-.3.3-.1.1-.3.2-.5.3-.2,0-.5.1-.8.1s-.7,0-1.1-.3c-.3-.2-.6-.5-.7-.8-.2-.4-.3-.8-.3-1.3s0-.8.2-1.1c.2-.3.4-.6.6-.8.2-.2.5-.3.8-.4.3-.1.5-.2.8-.2s.5,0,.6,0c.2,0,.4.1.6.2v-2.2h.9v6.4c0,0,0,.2,0,.3h-.9ZM38.2,516v-1.7c-.1,0-.3-.2-.5-.2-.2,0-.4,0-.7,0-.4,0-.8.2-1.1.5-.3.3-.4.7-.4,1.3s0,.6.1.8c.1.2.2.4.5.6.2.1.5.2.8.2s.6,0,.8-.2c.2-.1.3-.3.4-.5,0-.2.1-.4.1-.6ZM47.3,516.3l.7.6c-.1.2-.3.3-.5.5-.2.2-.5.4-.9.5-.4.2-.8.2-1.2.2s-1.2-.1-1.7-.4c-.5-.3-.9-.7-1.2-1.2-.3-.5-.4-1.1-.4-1.8s0-.9.2-1.4c.2-.4.4-.8.7-1.1.3-.3.7-.6,1.1-.8.4-.2.9-.3,1.4-.3s.9,0,1.2.2c.3.1.6.3.8.5.2.2.4.4.5.6l-.7.6c-.1-.2-.2-.3-.4-.5-.2-.2-.4-.3-.6-.4-.2-.1-.5-.2-.9-.2s-.9.1-1.3.4c-.3.2-.6.6-.8,1-.2.4-.3.8-.3,1.3s0,.9.3,1.3c.2.4.5.7.8.9.3.2.8.3,1.2.3s.7,0,1-.2c.3-.1.5-.3.6-.4.2-.2.3-.3.4-.4ZM49.7,518h-.9v-4.4c0,0,0-.2,0-.3h.9v.8c.1-.1.2-.2.3-.3.1-.1.3-.2.5-.3.2,0,.4-.1.7-.1s.2,0,.3,0c0,0,.2,0,.2,0l-.2.8c-.1,0-.3,0-.5,0s-.5,0-.7.2c-.2.1-.4.3-.5.5-.1.2-.2.4-.2.7v2.5ZM55.9,516.8l.5.5c0,0-.2.2-.4.3-.2.1-.4.2-.7.3-.3.1-.6.2-1,.2s-.9-.1-1.3-.3c-.4-.2-.7-.5-.9-.9-.2-.4-.3-.8-.3-1.3s0-.9.3-1.2c.2-.4.5-.7.8-.9.4-.2.8-.3,1.2-.3s1,.1,1.3.4c.3.3.6.6.7,1,.2.4.2.9.2,1.3h-3.7c0,.3,0,.5.2.7.1.2.3.4.5.5.2.1.5.2.8.2.4,0,.7,0,1-.2.3-.1.4-.3.5-.4ZM52.8,515.3h2.7c0-.4-.2-.7-.4-.9-.2-.3-.5-.4-1-.4s-.5,0-.7.2c-.2.1-.4.3-.5.5-.1.2-.2.4-.2.6ZM60.9,518v-.6c0,0-.2.1-.3.3-.1.1-.3.2-.5.3-.2,0-.5.1-.8.1s-.7,0-1.1-.3c-.3-.2-.6-.5-.7-.8s-.3-.8-.3-1.3,0-.8.2-1.1c.2-.3.4-.6.6-.8.2-.2.5-.3.8-.4.3-.1.5-.2.8-.2s.5,0,.6,0c.2,0,.4.1.6.2v-2.2h.9v6.4c0,0,0,.2,0,.3h-.9ZM60.9,516v-1.7c-.1,0-.3-.2-.5-.2-.2,0-.4,0-.7,0-.4,0-.8.2-1.1.5-.3.3-.4.7-.4,1.3s0,.6.1.8c.1.2.2.4.5.6.2.1.5.2.8.2s.6,0,.8-.2c.2-.1.3-.3.4-.5,0-.2.1-.4.1-.6ZM63,512.5v-1h1v1h-1ZM63.1,518v-4.7h.9v4.7h-.9ZM65.6,516.5v-2.4h-.8v-.8h.8v-1.5h.9v1.5h1.4v.8h-1.4v2.3c0,.4,0,.6.2.8.1.1.3.2.5.2s.3,0,.4,0c.1,0,.2-.1.3-.2l.4.5c-.2.2-.4.3-.6.4-.2,0-.4.1-.7.1-.5,0-.8-.1-1.1-.4-.2-.3-.3-.7-.3-1.2ZM69.1,512.5v-1h1v1h-1ZM69.1,518v-4.7h.9v4.7h-.9ZM72.2,518h-.9v-4.3c0,0,0-.2,0-.3h.9v.7c.1-.1.2-.2.3-.3.1-.1.3-.2.5-.3.2,0,.5-.1.7-.1.6,0,1.1.2,1.4.5.3.4.4.8.4,1.4v2.8h-.9v-2.7c0-.4,0-.8-.3-1-.2-.2-.4-.3-.8-.3s-.6,0-.8.3c-.2.2-.3.4-.4.7,0,.3-.1.6-.1.9v2.2ZM76.9,519.6l.4-.7c.2.1.3.2.6.3.2,0,.5.1.8.1s.8-.1,1-.4c.2-.2.3-.6.3-1v-.6c0,0-.2.1-.3.2-.1,0-.3.2-.5.3-.2,0-.4.1-.7.1-.5,0-.8,0-1.2-.3-.3-.2-.6-.5-.7-.8-.2-.4-.2-.8-.2-1.2s.1-.9.3-1.3c.2-.4.5-.7.9-.9.4-.2.8-.3,1.4-.3s.7,0,1.1.1c.3,0,.6.1.8.2v4.4c0,.7-.2,1.2-.6,1.6-.4.4-.9.6-1.6.6s-.9,0-1.1-.2-.5-.2-.7-.4ZM80.1,516.1v-1.9c0,0-.2,0-.3,0-.1,0-.4,0-.6,0s-.6,0-.9.2c-.3.1-.5.3-.6.6-.1.3-.2.5-.2.9s0,.5.1.8c0,.2.2.4.4.6.2.1.5.2.8.2s.5,0,.7-.2c.2-.1.3-.3.4-.4,0-.2.1-.4.1-.6ZM84.1,518v-6.7h2.1c.6,0,1,0,1.4.3.3.2.6.4.7.7.2.3.2.6.2.9s-.1.8-.3,1.1c-.2.3-.5.6-.9.7l1.6,2.8h-1.1l-1.4-2.7h-1.3v2.7h-.9ZM85.1,514.5h1.3c.4,0,.7-.1.9-.3.2-.2.3-.5.3-.8s-.1-.7-.3-.9c-.2-.2-.5-.3-.9-.3h-1.3v2.3ZM92.6,518v-.6c-.2.2-.4.4-.7.5-.3.1-.6.2-.9.2s-.5,0-.8-.1c-.2,0-.5-.2-.6-.5-.2-.2-.2-.5-.2-.9,0-.5.2-.9.5-1.2.4-.3.9-.4,1.5-.4s.3,0,.5,0c.2,0,.3,0,.4,0,.1,0,.2,0,.2,0v-.2c0-.3-.1-.6-.3-.7-.2-.2-.5-.2-.9-.2s-.6,0-.8.1c-.2,0-.4.2-.5.3l-.4-.6c.2-.1.4-.3.7-.4.3-.1.7-.2,1.2-.2s1.1.1,1.4.4c.3.3.5.7.5,1.2v2.9c0,0,0,.1,0,.2h-.8ZM92.6,516.3v-.5s-.1,0-.2,0c-.1,0-.3,0-.4,0-.1,0-.3,0-.4,0-.3,0-.6,0-.8.2-.2,0-.3.2-.4.4,0,.1,0,.3,0,.4,0,.2,0,.4.3.6.2.1.4.2.7.2s.4,0,.6-.1c.2-.1.4-.2.5-.4.1-.2.2-.3.2-.5ZM95.1,516.5v-2.4h-.8v-.8h.8v-1.5h.9v1.5h1.4v.8h-1.4v2.3c0,.4,0,.6.2.8.1.1.3.2.5.2s.3,0,.4,0c.1,0,.2-.1.3-.2l.4.5c-.2.2-.4.3-.6.4-.2,0-.4.1-.7.1-.5,0-.8-.1-1.1-.4-.2-.3-.3-.7-.3-1.2ZM102,516.8l.5.5c0,0-.2.2-.4.3-.2.1-.4.2-.7.3-.3.1-.6.2-1,.2s-.9-.1-1.3-.3c-.4-.2-.7-.5-.9-.9-.2-.4-.3-.8-.3-1.3s0-.9.3-1.2c.2-.4.5-.7.8-.9.4-.2.8-.3,1.2-.3s1,.1,1.3.4c.3.3.6.6.7,1,.2.4.2.9.2,1.3h-3.7c0,.3,0,.5.2.7.1.2.3.4.5.5.2.1.5.2.7.2.4,0,.7,0,1-.2.3-.1.4-.3.5-.4ZM98.9,515.3h2.7c0-.4-.2-.7-.4-.9-.2-.3-.5-.4-1-.4s-.5,0-.7.2c-.2.1-.4.3-.5.5-.1.2-.2.4-.2.6ZM105.2,517l.7-.6c.1.1.3.3.4.4.2.1.4.3.6.4.2,0,.5.1.8.1.4,0,.8,0,1-.3.2-.2.4-.5.4-.8s-.1-.6-.4-.8c-.3-.2-.7-.3-1.2-.4-.6-.1-1-.3-1.4-.6-.4-.3-.5-.7-.5-1.3s0-.6.2-.9c.2-.3.4-.5.8-.7.3-.2.7-.3,1.2-.3s.8,0,1.1.2c.3.1.5.2.7.4.2.1.3.3.3.4l-.6.6c0,0-.1-.2-.3-.3-.1-.1-.3-.2-.5-.3-.2,0-.4-.1-.7-.1s-.5,0-.7.1c-.2,0-.3.2-.4.4,0,.1-.1.3-.1.4,0,.3.1.6.4.7.3.2.7.3,1.2.4.3,0,.7.2,1,.4.3.2.5.4.7.6.2.3.3.6.3,1.1s-.1.7-.3,1c-.2.3-.5.5-.8.7-.4.2-.8.2-1.2.2s-.8,0-1.1-.2c-.3-.1-.6-.3-.8-.5-.2-.2-.4-.4-.5-.5ZM111,516.1v-2.8h.9v2.7c0,.4,0,.8.3,1,.2.2.4.3.8.3s.6,0,.8-.3c.2-.2.3-.4.4-.7,0-.3.1-.6.1-.9v-2.2h.9v4.4c0,0,0,.2,0,.3h-.9v-.7c-.1.1-.2.2-.3.3-.1.1-.3.2-.5.3-.2,0-.4.1-.7.1-.6,0-1.1-.2-1.3-.5-.3-.4-.4-.8-.4-1.4ZM117.3,518h-.9v-4.4c0,0,0-.2,0-.3h.9v.8c.1-.1.2-.2.3-.3.1-.1.3-.2.5-.3.2,0,.4-.1.7-.1s.2,0,.3,0c0,0,.2,0,.2,0l-.2.8c-.1,0-.3,0-.5,0s-.5,0-.7.2c-.2.1-.4.3-.5.5-.1.2-.2.4-.2.7v2.5ZM121.5,518l-2-4.7h1l1.5,3.6,1.4-3.6h1l-2,4.7h-.9ZM128.6,516.8l.5.5c0,0-.2.2-.4.3-.2.1-.4.2-.7.3-.3.1-.6.2-1,.2s-.9-.1-1.3-.3c-.4-.2-.7-.5-.9-.9-.2-.4-.3-.8-.3-1.3s0-.9.3-1.2c.2-.4.5-.7.8-.9.4-.2.8-.3,1.2-.3s1,.1,1.3.4c.3.3.6.6.7,1,.2.4.2.9.2,1.3h-3.7c0,.3,0,.5.2.7.1.2.3.4.6.5.2.1.5.2.8.2.4,0,.7,0,1-.2.3-.1.4-.3.5-.4ZM125.5,515.3h2.7c0-.4-.2-.7-.4-.9-.2-.3-.5-.4-1-.4s-.5,0-.7.2c-.2.1-.4.3-.5.5-.1.2-.2.4-.2.6ZM129.6,519.8l.4-.6c0,0,.1.1.2.2,0,0,.2,0,.3,0,.2,0,.4,0,.5-.3.1-.2.2-.5.4-.8v-.3c.1,0-2-4.6-2-4.6h1l1.5,3.5,1.3-3.5h1l-1.9,4.5c0,.2-.2.4-.3.7,0,.3-.2.5-.3.7-.1.2-.3.4-.5.6-.2.2-.4.2-.7.2s-.4,0-.6,0c-.2,0-.3-.1-.4-.2ZM136.2,515.6v-.9h5v.9h-5ZM13.8,526l.7-.6c.1.1.3.3.4.4.2.1.4.3.6.4.2,0,.5.1.8.1.4,0,.8,0,1-.3.2-.2.4-.5.4-.8s-.1-.6-.4-.8c-.3-.2-.7-.3-1.2-.4-.6-.1-1-.3-1.4-.6-.4-.3-.5-.7-.5-1.3s0-.6.2-.9c.2-.3.4-.5.8-.7.3-.2.7-.3,1.2-.3s.8,0,1.1.2c.3.1.5.2.7.4.2.1.3.3.3.4l-.6.6c0,0-.1-.2-.3-.3-.1-.1-.3-.2-.5-.3-.2,0-.4-.1-.7-.1s-.5,0-.7.1c-.2,0-.3.2-.4.4,0,.1-.1.3-.1.4,0,.3.1.6.4.7.3.2.7.3,1.2.4.3,0,.6.2.9.4.3.2.5.4.7.6.2.3.3.6.3,1.1s-.1.7-.3,1c-.2.3-.5.5-.8.7-.4.2-.8.2-1.2.2s-.8,0-1.1-.2c-.3-.1-.6-.3-.8-.5-.2-.2-.4-.4-.6-.5ZM20,527v-6.7h2.1c.6,0,1,0,1.4.3s.6.4.7.7c.2.3.2.6.2.9s0,.8-.3,1.1c-.2.3-.5.6-.9.7l1.6,2.8h-1.1l-1.4-2.7h-1.3v2.7h-.9ZM20.9,523.5h1.3c.4,0,.7-.1.9-.3.2-.2.3-.5.3-.8s-.1-.7-.3-.9c-.2-.2-.5-.3-.9-.3h-1.3v2.3ZM25.5,526.5l.5-.7c.2.1.4.3.6.4.2.1.5.2.8.2.5,0,.8-.1,1-.4.2-.3.3-.6.3-.9s0-.4-.1-.5c0-.2-.2-.4-.4-.5-.2-.1-.5-.2-.8-.2s-.5,0-.6,0c-.2,0-.3.1-.4.2l-.5-.3.6-3h3.1v.8h-2.5l-.3,1.7c0,0,.2,0,.3-.1.1,0,.3,0,.5,0,.6,0,1.1.2,1.5.5.4.3.6.8.6,1.5s0,.7-.2,1.1c-.2.3-.4.6-.8.8-.3.2-.8.3-1.3.3s-.8,0-1.1-.2c-.3-.1-.6-.3-.8-.5ZM33.3,527.1c-.5,0-1-.1-1.3-.4-.4-.3-.6-.7-.8-1.2-.2-.5-.3-1.1-.3-1.8s0-1.2.3-1.7c.2-.5.5-.9.8-1.1.4-.3.8-.4,1.3-.4s1,.1,1.3.4c.4.3.6.6.8,1.1.2.5.3,1.1.3,1.7s0,1.3-.3,1.8c-.2.5-.5.9-.8,1.2-.4.3-.8.4-1.3.4ZM33.3,526.3c.3,0,.6-.1.8-.3.2-.2.4-.5.5-.9.1-.4.2-.8.2-1.3,0-.7-.1-1.3-.4-1.8-.3-.4-.6-.7-1.1-.7s-.8.2-1.1.7c-.2.4-.4,1-.4,1.8s0,.9.2,1.3c.1.4.3.7.5.9.2.2.5.3.8.3ZM38.6,527v-6.7h2.3c.5,0,.8,0,1.1.2s.5.4.7.6c.1.3.2.5.2.9s0,.5-.2.7c-.1.2-.3.4-.4.5-.2.1-.3.2-.5.2.1,0,.3,0,.5.1.2,0,.3.2.5.3.2.1.3.3.4.5,0,.2.1.5.1.8,0,.5-.1.8-.3,1.1-.2.3-.5.5-.9.6-.4.1-.8.2-1.3.2h-2.1ZM39.5,523.1h1.2c.2,0,.4,0,.6,0,.2,0,.3-.2.5-.3.1-.1.2-.3.2-.6s0-.5-.2-.6c-.1-.1-.3-.2-.5-.3-.2,0-.4,0-.6,0h-1.2v2ZM39.5,526.2h1.2c.2,0,.4,0,.5,0,.2,0,.4,0,.5-.1s.3-.2.4-.3c0-.1.1-.3.1-.6s0-.6-.2-.7c-.2-.2-.4-.3-.6-.3s-.5,0-.7,0h-1.2v2.2ZM47.3,527v-.6c-.2.2-.4.4-.7.5-.3.1-.6.2-.9.2s-.5,0-.8-.1c-.2,0-.5-.2-.6-.5-.2-.2-.2-.5-.2-.9,0-.5.2-.9.5-1.2.4-.3.9-.4,1.5-.4s.3,0,.5,0c.2,0,.3,0,.4,0,.1,0,.2,0,.2,0v-.2c0-.3-.1-.6-.3-.7-.2-.2-.5-.2-.9-.2s-.6,0-.8.1c-.2,0-.4.2-.5.3l-.4-.6c.2-.1.4-.3.7-.4.3-.1.7-.2,1.2-.2s1.1.1,1.4.4c.3.3.5.7.5,1.2v2.9c0,0,0,.1,0,.2h-.8ZM47.3,525.3v-.5s-.1,0-.2,0c-.1,0-.3,0-.4,0-.1,0-.3,0-.4,0-.3,0-.6,0-.8.2-.2,0-.3.2-.4.4,0,.1,0,.3,0,.4,0,.2,0,.4.3.6.2.1.4.2.7.2s.4,0,.6-.1c.2-.1.4-.2.5-.4.1-.2.2-.3.2-.5ZM49.3,527v-6.7h.9v6.7h-.9ZM54.4,527v-.6c-.2.2-.4.4-.7.5-.3.1-.6.2-.9.2s-.5,0-.8-.1c-.2,0-.5-.2-.6-.5-.2-.2-.2-.5-.2-.9,0-.5.2-.9.5-1.2.4-.3.9-.4,1.5-.4s.3,0,.5,0c.2,0,.3,0,.4,0,.1,0,.2,0,.2,0v-.2c0-.3-.1-.6-.3-.7-.2-.2-.5-.2-.8-.2s-.6,0-.8.1c-.2,0-.4.2-.5.3l-.4-.6c.2-.1.4-.3.7-.4.3-.1.7-.2,1.2-.2s1.1.1,1.4.4c.3.3.5.7.5,1.2v2.9c0,0,0,.1,0,.2h-.8ZM54.4,525.3v-.5s-.1,0-.2,0c-.1,0-.3,0-.4,0-.1,0-.3,0-.4,0-.3,0-.6,0-.8.2-.2,0-.3.2-.4.4,0,.1,0,.3,0,.4,0,.2,0,.4.3.6.2.1.4.2.7.2s.4,0,.6-.1c.2-.1.4-.2.5-.4.1-.2.2-.3.2-.5ZM57.4,527h-.9v-4.3c0,0,0-.2,0-.3h.9v.7c.1-.1.2-.2.4-.3.1-.1.3-.2.5-.3.2,0,.5-.1.7-.1.6,0,1.1.2,1.4.5.3.4.4.8.4,1.4v2.8h-.9v-2.7c0-.4,0-.8-.3-1-.2-.2-.4-.3-.8-.3s-.6,0-.8.3c-.2.2-.3.4-.4.7,0,.3-.1.6-.1.9v2.2ZM65.4,525.8l.6.6c-.2.2-.5.4-.8.6-.3.1-.7.2-1,.2s-.9-.1-1.3-.3c-.4-.2-.6-.5-.8-.9-.2-.4-.3-.8-.3-1.3s.1-.9.3-1.2.5-.7.9-.9c.4-.2.8-.3,1.3-.3s.7,0,1,.2c.3.1.6.3.8.6l-.6.6c-.1-.2-.3-.3-.5-.4-.2-.1-.4-.2-.7-.2s-.6,0-.8.2c-.2.2-.4.4-.5.6-.1.3-.2.5-.2.8s0,.6.2.8c.1.3.3.5.5.6.2.2.5.2.8.2s.5,0,.7-.1c.2-.1.4-.2.5-.4ZM70.3,525.8l.5.5c0,0-.2.2-.4.3-.2.1-.4.2-.7.3-.3.1-.6.2-1,.2s-.9-.1-1.3-.3c-.4-.2-.7-.5-.9-.9-.2-.4-.3-.8-.3-1.3s0-.9.3-1.2c.2-.4.5-.7.8-.9.4-.2.8-.3,1.2-.3s1,.1,1.3.4c.3.3.6.6.7,1,.2.4.2.9.2,1.3h-3.7c0,.3,0,.5.2.7.1.2.3.4.5.5.2.1.5.2.8.2.4,0,.7,0,1-.2.3-.1.4-.3.6-.4ZM67.2,524.3h2.7c0-.4-.2-.7-.4-.9-.2-.3-.5-.4-1-.4s-.5,0-.7.2c-.2.1-.4.3-.5.5-.1.2-.2.4-.2.6ZM75.3,527v-.6c0,0-.2.1-.3.3-.1.1-.3.2-.5.3-.2,0-.5.1-.8.1s-.7,0-1.1-.3c-.3-.2-.6-.5-.7-.8s-.3-.8-.3-1.3,0-.8.2-1.1c.2-.3.3-.6.6-.8.2-.2.5-.3.8-.4.3-.1.5-.2.8-.2s.5,0,.6,0c.2,0,.4.1.6.2v-2.2h.9v6.4c0,0,0,.2,0,.3h-.9ZM75.3,525v-1.7c-.1,0-.3-.2-.5-.2-.2,0-.4,0-.7,0-.4,0-.8.2-1.1.5-.3.3-.4.7-.4,1.3s0,.6.1.8c.1.2.2.4.5.6.2.1.5.2.8.2s.6,0,.8-.2c.2-.1.3-.3.4-.5,0-.2.1-.4.1-.6ZM81.1,527.9h-.9c-.1-.2-.2-.5-.4-.9-.2-.4-.3-.8-.4-1.3-.1-.5-.2-1.1-.2-1.8s0-1.2.2-1.8c.1-.5.3-1,.4-1.4.2-.4.3-.7.4-.9h.9c-.1.3-.3.6-.4,1-.1.4-.3.9-.3,1.4,0,.5-.1,1.1-.1,1.7s0,1.1.1,1.7c0,.5.2,1,.3,1.4.1.4.3.7.4,1ZM86.3,521l-.4.7s-.1,0-.3-.2c-.2,0-.4-.1-.7-.1s-.7.1-.9.3c-.3.2-.4.5-.6.8-.1.3-.2.7-.2,1,.1,0,.3-.2.6-.3.2-.1.5-.2.9-.2.6,0,1.1.2,1.4.6.3.4.5.9.5,1.5s0,.8-.3,1.1c-.2.3-.4.6-.7.7-.3.2-.7.3-1.1.3-.7,0-1.3-.2-1.7-.8-.4-.5-.6-1.3-.6-2.3s.1-1.4.3-1.9c.2-.5.5-1,.9-1.2.4-.3.9-.4,1.5-.4s.6,0,.9.1c.3.1.4.2.6.3ZM83,524.3c0,.7.1,1.2.3,1.5.2.4.6.6,1,.6s.6-.1.9-.3c.2-.2.4-.6.4-1s0-.7-.3-.9c-.2-.2-.5-.4-.9-.4s-.6,0-.8.1c-.2,0-.4.2-.6.3ZM89.7,527.1c-.5,0-1-.1-1.3-.4-.4-.3-.6-.7-.8-1.2-.2-.5-.3-1.1-.3-1.8s0-1.2.3-1.7c.2-.5.5-.9.8-1.1.4-.3.8-.4,1.3-.4s1,.1,1.3.4c.4.3.6.6.8,1.1.2.5.3,1.1.3,1.7s0,1.3-.3,1.8c-.2.5-.5.9-.8,1.2-.4.3-.8.4-1.3.4ZM89.7,526.3c.3,0,.6-.1.8-.3.2-.2.4-.5.5-.9.1-.4.2-.8.2-1.3,0-.7-.1-1.3-.4-1.8-.3-.4-.6-.7-1.1-.7s-.8.2-1.1.7c-.2.4-.4,1-.4,1.8s0,.9.2,1.3c.1.4.3.7.5.9.2.2.5.3.8.3ZM93.1,524.6v-.9h2.9v.9h-2.9ZM99.2,527h-1c.2-.5.3-1,.5-1.5.2-.5.4-1.1.7-1.6s.4-1,.6-1.4c.2-.4.4-.8.5-1h-3.1v-.8h4v.8c-.1.2-.3.4-.4.8-.2.3-.3.7-.5,1.1-.2.4-.4.8-.5,1.3-.2.4-.3.9-.5,1.3-.1.4-.3.8-.4,1.1ZM107,521l-.4.7s-.1,0-.3-.2c-.2,0-.4-.1-.7-.1s-.7.1-1,.3c-.3.2-.4.5-.6.8-.1.3-.2.7-.2,1,.1,0,.3-.2.6-.3.2-.1.5-.2.9-.2.6,0,1.1.2,1.4.6.3.4.5.9.5,1.5s0,.8-.3,1.1c-.2.3-.4.6-.7.7-.3.2-.7.3-1.1.3-.7,0-1.3-.2-1.7-.8-.4-.5-.6-1.3-.6-2.3s.1-1.4.3-1.9c.2-.5.5-1,.9-1.2.4-.3.9-.4,1.5-.4s.6,0,.9.1c.3.1.4.2.6.3ZM103.8,524.3c0,.7.1,1.2.3,1.5.2.4.6.6,1,.6s.6-.1.8-.3c.2-.2.4-.6.4-1s0-.7-.3-.9c-.2-.2-.5-.4-.9-.4s-.6,0-.8.1c-.2,0-.4.2-.6.3ZM108.1,519.9h.9c.1.2.2.5.4.9.2.4.3.8.4,1.4.1.5.2,1.1.2,1.8s0,1.2-.2,1.8c-.1.5-.3,1-.4,1.3-.2.4-.3.7-.4.9h-.9c.1-.3.3-.6.4-1,.1-.4.3-.9.3-1.4,0-.5.1-1.1.1-1.7s0-1.1-.1-1.6c0-.5-.2-1-.3-1.4-.1-.4-.3-.7-.4-1ZM113.2,527v-6.7h1v6.7h-1ZM116.4,527h-.9v-4.3c0,0,0-.2,0-.3h.9v.7c.1-.1.2-.2.3-.3.1-.1.3-.2.5-.3.2,0,.5-.1.7-.1.6,0,1.1.2,1.3.5.3.4.4.8.4,1.4v2.8h-.9v-2.7c0-.4,0-.8-.3-1-.2-.2-.4-.3-.8-.3s-.6,0-.8.3c-.2.2-.3.4-.4.7,0,.3-.1.6-.1.9v2.2ZM124.3,527v-.6c0,0-.2.1-.3.3-.1.1-.3.2-.5.3-.2,0-.5.1-.8.1s-.7,0-1.1-.3c-.3-.2-.6-.5-.7-.8-.2-.4-.3-.8-.3-1.3s0-.8.2-1.1c.2-.3.4-.6.6-.8s.5-.3.8-.4c.3-.1.5-.2.8-.2s.5,0,.7,0c.2,0,.4.1.6.2v-2.2h.9v6.4c0,0,0,.2,0,.3h-.9ZM124.3,525v-1.7c-.1,0-.3-.2-.5-.2-.2,0-.4,0-.7,0-.4,0-.8.2-1.1.5-.3.3-.4.7-.4,1.3s0,.6.1.8c0,.2.2.4.4.6.2.1.5.2.8.2s.6,0,.8-.2c.2-.1.3-.3.4-.5,0-.2.1-.4.1-.6ZM130.2,525.8l.5.5c0,0-.2.2-.4.3-.2.1-.4.2-.7.3-.3.1-.6.2-1,.2s-.9-.1-1.3-.3c-.4-.2-.7-.5-.9-.9-.2-.4-.3-.8-.3-1.3s0-.9.3-1.2c.2-.4.5-.7.8-.9.4-.2.8-.3,1.2-.3s1,.1,1.3.4c.3.3.6.6.7,1,.2.4.2.9.2,1.3h-3.7c0,.3,0,.5.2.7.1.2.3.4.5.5.2.1.5.2.8.2.4,0,.7,0,1-.2.3-.1.4-.3.6-.4ZM127.1,524.3h2.7c0-.4-.2-.7-.4-.9-.2-.3-.5-.4-1-.4s-.5,0-.7.2c-.2.1-.4.3-.5.5-.1.2-.2.4-.2.6ZM131.2,527l1.8-2.4-1.7-2.2h1.1l1.1,1.5,1.1-1.5h1l-1.6,2.2,1.9,2.5h-1.1l-1.3-1.8-1.3,1.8h-1ZM141.3,527v-.6c-.2.2-.4.4-.7.5-.3.1-.6.2-.9.2s-.5,0-.8-.1c-.2,0-.5-.2-.6-.5-.2-.2-.2-.5-.2-.9,0-.5.2-.9.5-1.2.4-.3.9-.4,1.5-.4s.3,0,.4,0c.2,0,.3,0,.4,0,.1,0,.2,0,.2,0v-.2c0-.3-.1-.6-.3-.7-.2-.2-.5-.2-.8-.2s-.6,0-.8.1c-.2,0-.4.2-.5.3l-.4-.6c.2-.1.4-.3.7-.4.3-.1.7-.2,1.2-.2s1.1.1,1.4.4c.3.3.5.7.5,1.2v2.9c0,0,0,.1,0,.2h-.8ZM141.3,525.3v-.5s-.1,0-.2,0c-.1,0-.3,0-.4,0-.1,0-.3,0-.4,0-.3,0-.6,0-.8.2-.2,0-.3.2-.4.4,0,.1,0,.3,0,.4,0,.2,0,.4.3.6.2.1.4.2.7.2s.4,0,.6-.1c.2-.1.4-.2.5-.4.1-.2.2-.3.2-.5ZM143.8,525.5v-2.4h-.8v-.8h.8v-1.5h.9v1.5h1.4v.8h-1.4v2.3c0,.4,0,.6.2.8.1.1.3.2.5.2s.3,0,.4,0c.1,0,.2-.1.3-.2l.4.5c-.2.2-.4.3-.6.4-.2,0-.4.1-.7.1-.5,0-.8-.1-1.1-.4-.2-.3-.3-.7-.3-1.2ZM13.5,535l.7-.6c.1.1.3.3.4.4.2.1.4.3.6.4.2,0,.5.1.8.1.4,0,.8,0,1-.3.2-.2.4-.5.4-.8s-.1-.6-.4-.8c-.3-.2-.7-.3-1.2-.4-.6-.1-1-.3-1.4-.6-.4-.3-.5-.7-.5-1.3s0-.6.2-.9c.2-.3.4-.5.8-.7.3-.2.7-.3,1.2-.3s.8,0,1.1.2c.3.1.5.2.7.4.2.1.3.3.3.4l-.6.6c0,0-.1-.2-.3-.3-.1-.1-.3-.2-.5-.3-.2,0-.4-.1-.7-.1s-.5,0-.7.1c-.2,0-.3.2-.4.4,0,.1-.1.3-.1.4,0,.3.1.6.4.7.3.2.7.3,1.2.4.3,0,.6.2.9.4.3.2.5.4.7.6.2.3.3.6.3,1.1s-.1.7-.3,1c-.2.3-.5.5-.8.7-.4.2-.8.2-1.2.2s-.8,0-1.1-.2c-.3-.1-.6-.3-.8-.5-.2-.2-.4-.4-.6-.5ZM23.2,534.8l.5.5c0,0-.2.2-.4.3-.2.1-.4.2-.7.3-.3.1-.6.2-1,.2s-.9-.1-1.3-.3c-.4-.2-.7-.5-.9-.9-.2-.4-.3-.8-.3-1.3s0-.9.3-1.2c.2-.4.5-.7.8-.9.4-.2.8-.3,1.2-.3s1,.1,1.3.4c.3.3.6.6.7,1,.2.4.2.9.2,1.3h-3.7c0,.3,0,.5.2.7.1.2.3.4.5.5.2.1.5.2.8.2.4,0,.7,0,1-.2.3-.1.4-.3.6-.4ZM20.1,533.3h2.7c0-.4-.2-.7-.4-.9-.2-.3-.5-.4-1-.4s-.5,0-.7.2c-.2.1-.4.3-.5.5-.1.2-.2.4-.2.6ZM25.7,538h-.9v-6.3c0,0,0-.2,0-.3h.9v.7c0,0,.2-.2.3-.3.1-.1.3-.2.5-.3.2,0,.5-.1.8-.1.5,0,.9.1,1.2.3.3.2.5.5.7.9.2.4.2.8.2,1.2s0,.8-.2,1.1c-.1.3-.3.6-.6.8-.2.2-.5.3-.8.4-.3,0-.6.1-.8.1s-.6,0-.8-.1c-.2,0-.4-.1-.5-.2v2.2ZM25.7,533.8v1.2c.1,0,.3.2.5.2.2,0,.4.1.8.1s.6,0,.8-.2c.2-.1.4-.3.5-.6.1-.3.2-.5.2-.8s0-.6-.1-.8c0-.3-.2-.5-.4-.6-.2-.2-.5-.2-.8-.2s-.6,0-.8.3c-.2.2-.4.4-.5.8,0,.1,0,.2,0,.3,0,.1,0,.2,0,.4ZM30.8,534.5v-2.4h-.8v-.8h.8v-1.5h.9v1.5h1.4v.8h-1.4v2.3c0,.4,0,.6.2.8.1.1.3.2.5.2s.3,0,.4,0c.1,0,.2-.1.3-.2l.4.5c-.2.2-.4.3-.6.4-.2,0-.4.1-.7.1-.5,0-.8-.1-1.1-.4-.2-.3-.3-.7-.3-1.2ZM36.1,536v-.7c0-.4,0-.7.2-.9.2-.3.4-.5.6-.8.3-.3.6-.5.8-.7.3-.2.5-.4.7-.6.2-.2.3-.3.4-.5.1-.2.2-.4.2-.6s0-.3-.1-.4c0-.1-.2-.3-.3-.4-.2,0-.4-.1-.6-.1s-.4,0-.6.1c-.2,0-.3.2-.4.3-.1.1-.2.2-.3.3l-.7-.5c0-.2.2-.3.4-.5.2-.2.4-.3.7-.4.3-.1.6-.2,1-.2s.8,0,1.1.2c.3.2.5.4.6.6.1.3.2.5.2.8s0,.6-.2.8c-.1.3-.3.5-.5.7-.2.2-.4.4-.7.6-.4.3-.8.6-1.1.9-.3.3-.4.6-.4.9h3v.8h-4ZM43.6,536.1c-.5,0-1-.1-1.3-.4-.4-.3-.6-.7-.8-1.2-.2-.5-.3-1.1-.3-1.8s0-1.2.3-1.7c.2-.5.5-.9.8-1.1.4-.3.8-.4,1.3-.4s1,.1,1.3.4c.4.3.6.6.8,1.1.2.5.3,1.1.3,1.7s0,1.3-.3,1.8c-.2.5-.5.9-.8,1.2-.4.3-.8.4-1.3.4ZM43.6,535.3c.3,0,.6-.1.8-.3.2-.2.4-.5.5-.9.1-.4.2-.8.2-1.3,0-.7-.1-1.3-.4-1.8-.3-.4-.6-.7-1.1-.7s-.8.2-1.1.7c-.2.4-.4,1-.4,1.8s0,.9.2,1.3c.1.4.3.7.5.9.2.2.5.3.8.3ZM47,536v-.7c0-.4,0-.7.2-.9.2-.3.4-.5.6-.8.3-.3.6-.5.8-.7.3-.2.5-.4.7-.6.2-.2.3-.3.5-.5.1-.2.2-.4.2-.6s0-.3-.1-.4c0-.1-.2-.3-.3-.4-.2,0-.4-.1-.6-.1s-.4,0-.6.1c-.2,0-.3.2-.4.3-.1.1-.2.2-.3.3l-.7-.5c0-.2.2-.3.4-.5.2-.2.4-.3.7-.4.3-.1.6-.2,1-.2s.8,0,1.1.2c.3.2.5.4.7.6s.2.5.2.8,0,.6-.2.8c-.1.3-.3.5-.5.7-.2.2-.4.4-.7.6-.4.3-.8.6-1.1.9-.3.3-.4.6-.4.9h3v.8h-4ZM52.1,535.5l.5-.7c.2.1.4.3.6.4s.5.2.8.2c.5,0,.8-.1,1-.4.2-.3.3-.6.3-.9s0-.4-.1-.5c0-.2-.2-.4-.4-.5-.2-.1-.5-.2-.8-.2s-.5,0-.6,0c-.2,0-.3.1-.4.2l-.5-.3.6-3h3.1v.8h-2.5l-.3,1.7c0,0,.2,0,.3-.1.1,0,.3,0,.5,0,.6,0,1.1.2,1.5.5.4.3.6.8.6,1.5s0,.7-.2,1.1c-.2.3-.4.6-.8.8-.3.2-.8.3-1.3.3s-.8,0-1.1-.2c-.3-.1-.6-.3-.8-.5ZM57.9,536v-1.1h1.1v1.1h-1.1ZM65.7,533.4v-.8h2.3v2.7c-.2.2-.6.4-1,.6-.4.2-1,.3-1.6.3s-1.3-.1-1.8-.4c-.5-.3-.9-.7-1.2-1.2-.3-.5-.4-1.1-.4-1.8s0-.9.2-1.4c.2-.4.4-.8.7-1.1.3-.3.7-.6,1.1-.8.4-.2.9-.3,1.4-.3s.9,0,1.2.2c.3.1.6.3.8.5.2.2.4.4.5.6l-.7.6c-.1-.2-.2-.3-.4-.5-.2-.2-.4-.3-.6-.4-.2-.1-.5-.2-.9-.2-.5,0-.9.1-1.3.4-.4.2-.6.6-.8,1-.2.4-.3.8-.3,1.3s.1,1,.3,1.4c.2.4.5.7.9.9.4.2.8.3,1.2.3s.7,0,1-.1c.3,0,.5-.2.7-.4v-1.4h-1.4ZM73.1,534.8l.5.5c0,0-.2.2-.4.3-.2.1-.4.2-.7.3-.3.1-.6.2-1,.2s-.9-.1-1.3-.3c-.4-.2-.7-.5-.9-.9-.2-.4-.3-.8-.3-1.3s0-.9.3-1.2c.2-.4.5-.7.8-.9.4-.2.8-.3,1.2-.3s1,.1,1.3.4c.3.3.6.6.7,1,.2.4.2.9.2,1.3h-3.7c0,.3,0,.5.2.7.1.2.3.4.6.5.2.1.5.2.8.2.4,0,.7,0,1-.2.3-.1.4-.3.5-.4ZM70.1,533.3h2.7c0-.4-.2-.7-.4-.9-.2-.3-.5-.4-1-.4s-.5,0-.7.2c-.2.1-.4.3-.5.5-.1.2-.2.4-.2.6ZM75.7,536h-.9v-4.3c0,0,0-.2,0-.3h.9v.7c.1-.1.2-.2.4-.3.1-.1.3-.2.5-.3.2,0,.5-.1.7-.1.6,0,1.1.2,1.3.5.3.4.4.8.4,1.4v2.8h-.9v-2.7c0-.4,0-.8-.3-1-.2-.2-.4-.3-.8-.3s-.6,0-.8.3c-.2.2-.3.4-.4.7,0,.3-.1.6-.1.9v2.2ZM83.9,534.8l.5.5c0,0-.2.2-.4.3-.2.1-.4.2-.7.3-.3.1-.6.2-1,.2s-.9-.1-1.3-.3c-.4-.2-.7-.5-.9-.9-.2-.4-.3-.8-.3-1.3s0-.9.3-1.2c.2-.4.5-.7.8-.9.4-.2.8-.3,1.2-.3s1,.1,1.3.4c.3.3.6.6.7,1,.2.4.2.9.2,1.3h-3.7c0,.3,0,.5.2.7.1.2.3.4.5.5.2.1.5.2.8.2.4,0,.7,0,1-.2.3-.1.4-.3.6-.4ZM80.9,533.3h2.7c0-.4-.2-.7-.4-.9-.2-.3-.5-.4-1-.4s-.5,0-.7.2c-.2.1-.4.3-.5.5-.1.2-.2.4-.2.6ZM86.5,536h-.9v-4.4c0,0,0-.2,0-.3h.9v.8c.1-.1.2-.2.3-.3.1-.1.3-.2.5-.3.2,0,.4-.1.7-.1s.2,0,.3,0c0,0,.2,0,.2,0l-.2.8c-.1,0-.3,0-.5,0s-.5,0-.7.2c-.2.1-.4.3-.5.5-.1.2-.2.4-.2.7v2.5ZM92,536v-.6c-.2.2-.4.4-.7.5-.3.1-.6.2-.9.2s-.5,0-.8-.1c-.2,0-.5-.2-.6-.5-.2-.2-.2-.5-.2-.9,0-.5.2-.9.5-1.2.4-.3.9-.4,1.5-.4s.3,0,.4,0c.2,0,.3,0,.4,0,.1,0,.2,0,.2,0v-.2c0-.3-.1-.6-.3-.7-.2-.2-.5-.2-.8-.2s-.6,0-.8.1c-.2,0-.4.2-.5.3l-.4-.6c.2-.1.4-.3.7-.4.3-.1.7-.2,1.2-.2s1.1.1,1.4.4c.3.3.5.7.5,1.2v2.9c0,0,0,.1,0,.2h-.8ZM92,534.3v-.5s-.1,0-.2,0c-.1,0-.3,0-.4,0-.1,0-.3,0-.4,0-.3,0-.6,0-.8.2-.2,0-.3.2-.4.4,0,.1,0,.3,0,.4,0,.2,0,.4.3.6.2.1.4.2.7.2s.4,0,.6-.1c.2-.1.4-.2.5-.4.1-.2.2-.3.2-.5ZM94,536v-6.7h.9v6.7h-.9ZM100.9,536v-.6c-.2.2-.4.4-.7.5-.3.1-.6.2-.9.2s-.5,0-.8-.1c-.2,0-.5-.2-.6-.5-.2-.2-.2-.5-.2-.9,0-.5.2-.9.5-1.2.4-.3.9-.4,1.5-.4s.3,0,.5,0c.2,0,.3,0,.4,0,.1,0,.2,0,.2,0v-.2c0-.3-.1-.6-.3-.7-.2-.2-.5-.2-.9-.2s-.6,0-.8.1c-.2,0-.4.2-.5.3l-.4-.6c.2-.1.4-.3.7-.4.3-.1.7-.2,1.2-.2s1.1.1,1.4.4c.3.3.5.7.5,1.2v2.9c0,0,0,.1,0,.2h-.8ZM100.9,534.3v-.5s-.1,0-.2,0c-.1,0-.3,0-.4,0-.1,0-.3,0-.4,0-.3,0-.6,0-.8.2-.2,0-.3.2-.4.4,0,.1,0,.3,0,.4,0,.2,0,.4.3.6.2.1.4.2.7.2s.4,0,.6-.1c.2-.1.4-.2.5-.4.1-.2.2-.3.2-.5ZM106.3,536v-.6c0,0-.2.1-.3.3-.1.1-.3.2-.5.3-.2,0-.5.1-.8.1s-.7,0-1.1-.3c-.3-.2-.6-.5-.7-.8s-.3-.8-.3-1.3,0-.8.2-1.1c.2-.3.4-.6.6-.8s.5-.3.8-.4c.3-.1.5-.2.8-.2s.5,0,.7,0c.2,0,.4.1.6.2v-2.2h.9v6.4c0,0,0,.2,0,.3h-.9ZM106.3,534v-1.7c-.1,0-.3-.2-.5-.2-.2,0-.4,0-.7,0-.4,0-.8.2-1.1.5-.3.3-.4.7-.4,1.3s0,.6.1.8c0,.2.2.4.4.6.2.1.5.2.8.2s.6,0,.8-.2c.2-.1.3-.3.4-.5,0-.2.1-.4.1-.6ZM109.9,536l-2-4.7h1l1.4,3.6,1.4-3.6h1l-2,4.7h-.9ZM113.5,530.5v-1h1v1h-1ZM113.5,536v-4.7h.9v4.7h-.9ZM119.2,534.8l.6.6c-.2.2-.5.4-.8.6-.3.1-.7.2-1,.2s-.9-.1-1.3-.3c-.4-.2-.6-.5-.8-.9-.2-.4-.3-.8-.3-1.3s.1-.9.3-1.2c.2-.4.5-.7.9-.9.4-.2.8-.3,1.3-.3s.7,0,1,.2c.3.1.6.3.8.6l-.6.6c-.1-.2-.3-.3-.5-.4-.2-.1-.4-.2-.7-.2s-.6,0-.8.2c-.2.2-.4.4-.5.6-.1.3-.2.5-.2.8s0,.6.2.8c.1.3.3.5.5.6.2.2.5.2.8.2s.5,0,.7-.1c.2-.1.4-.2.5-.4ZM124.1,534.8l.5.5c0,0-.2.2-.4.3-.2.1-.4.2-.7.3-.3.1-.6.2-1,.2s-.9-.1-1.3-.3c-.4-.2-.7-.5-.9-.9-.2-.4-.3-.8-.3-1.3s0-.9.3-1.2c.2-.4.5-.7.8-.9.4-.2.8-.3,1.2-.3s1,.1,1.3.4c.3.3.6.6.7,1,.2.4.2.9.2,1.3h-3.7c0,.3,0,.5.2.7.1.2.3.4.6.5.2.1.5.2.8.2.4,0,.7,0,1-.2.3-.1.4-.3.5-.4ZM121,533.3h2.7c0-.4-.2-.7-.4-.9-.2-.3-.5-.4-1-.4s-.5,0-.7.2c-.2.1-.4.3-.5.5-.1.2-.2.4-.2.6ZM129.8,536.1c-.5,0-.9-.1-1.3-.3-.4-.2-.7-.5-.9-.9-.2-.4-.3-.8-.3-1.2s.1-.9.3-1.2c.2-.4.5-.7.9-.9.4-.2.8-.3,1.3-.3s.9.1,1.3.3c.4.2.7.5.9.9.2.4.3.8.3,1.2s-.1.9-.3,1.2c-.2.4-.5.7-.9.9-.4.2-.8.3-1.3.3ZM129.8,535.4c.3,0,.6,0,.8-.2.2-.2.4-.4.5-.6.1-.3.2-.5.2-.8s0-.5-.2-.8c-.1-.3-.3-.5-.5-.6-.2-.2-.5-.2-.8-.2s-.6,0-.8.2c-.2.2-.4.4-.5.6-.1.3-.2.5-.2.8s0,.5.2.8c.1.3.3.5.5.6.2.2.5.2.8.2ZM134.1,536h-.9v-4.3c0,0,0-.2,0-.3h.9v.7c.1-.1.2-.2.4-.3.1-.1.3-.2.5-.3.2,0,.5-.1.7-.1.6,0,1.1.2,1.4.5.3.4.4.8.4,1.4v2.8h-.9v-2.7c0-.4,0-.8-.3-1-.2-.2-.4-.3-.8-.3s-.6,0-.8.3c-.2.2-.3.4-.4.7,0,.3-.1.6-.1.9v2.2ZM138.7,536v-6.7h.9v6.7h-.9ZM140.4,537.8l.4-.6c0,0,.1.1.2.2s.2,0,.3,0c.2,0,.4,0,.5-.3.1-.2.2-.5.4-.8v-.3c.1,0-2-4.6-2-4.6h1l1.5,3.5,1.3-3.5h1l-1.9,4.5c0,.2-.2.4-.3.7,0,.3-.2.5-.3.7-.1.2-.3.4-.5.6-.2.2-.4.2-.7.2s-.4,0-.6,0c-.2,0-.3-.1-.4-.2ZM145.1,536v-1.1h1.1v1.1h-1.1ZM22.1,543.3l.7.6c0,.2-.3.3-.5.5-.2.2-.5.4-.9.5-.4.2-.8.2-1.2.2s-1.2-.1-1.7-.4c-.5-.3-.9-.7-1.2-1.2-.3-.5-.4-1.1-.4-1.8s0-.9.2-1.4c.2-.4.4-.8.7-1.1.3-.3.7-.6,1.1-.8.4-.2.9-.3,1.4-.3s.9,0,1.2.2c.3.1.6.3.8.5.2.2.4.4.5.6l-.7.6c-.1-.2-.2-.3-.4-.5-.2-.2-.4-.3-.6-.4-.2-.1-.5-.2-.9-.2s-.9.1-1.3.4c-.3.2-.6.6-.8,1-.2.4-.3.8-.3,1.3s0,.9.3,1.3c.2.4.5.7.8.9.3.2.8.3,1.2.3s.7,0,1-.2.5-.3.6-.4c.2-.2.3-.3.4-.4ZM25.8,545.1c-.5,0-.9-.1-1.3-.3-.4-.2-.7-.5-.9-.9-.2-.4-.3-.8-.3-1.2s.1-.9.3-1.2c.2-.4.5-.7.9-.9.4-.2.8-.3,1.3-.3s.9.1,1.3.3c.4.2.7.5.9.9.2.4.3.8.3,1.2s-.1.9-.3,1.2c-.2.4-.5.7-.9.9-.4.2-.8.3-1.3.3ZM25.8,544.4c.3,0,.6,0,.8-.2.2-.2.4-.4.5-.6.1-.3.2-.5.2-.8s0-.5-.2-.8c-.1-.3-.3-.5-.5-.6-.2-.2-.5-.2-.8-.2s-.6,0-.8.2c-.2.2-.4.4-.5.6-.1.3-.2.5-.2.8s0,.5.2.8c.1.3.3.5.5.6.2.2.5.2.8.2ZM30.2,545h-.9v-4.3c0,0,0-.2,0-.3h.9v.7c.1-.1.2-.2.4-.3.1-.1.3-.2.5-.3.2,0,.5-.1.7-.1.6,0,1.1.2,1.4.5.3.4.4.8.4,1.4v2.8h-.9v-2.7c0-.4,0-.8-.3-1-.2-.2-.4-.3-.8-.3s-.6,0-.8.3c-.2.2-.3.4-.4.7,0,.3-.1.6-.1.9v2.2ZM34.5,544.4l.5-.6c.2.2.4.3.6.4.2.1.5.2.8.2s.5,0,.8-.1c.2,0,.3-.3.3-.5s0-.3-.1-.4c0,0-.2-.2-.4-.2-.2,0-.5-.2-.8-.2-.2,0-.5-.1-.7-.2-.2-.1-.4-.2-.6-.4-.1-.2-.2-.4-.2-.7s0-.6.3-.8c.2-.2.4-.4.7-.5.3-.1.6-.2.9-.2s.7,0,1,.2c.3.1.5.2.7.4l-.5.6c-.1-.1-.3-.2-.5-.3-.2,0-.5-.1-.7-.1s-.5,0-.7.1c-.2,0-.3.2-.3.5s.1.3.3.5c.2,0,.5.2.9.3.3,0,.6.2.8.3.2.1.4.3.6.4.1.2.2.4.2.7s0,.6-.3.8c-.2.2-.4.4-.7.5-.3.1-.6.2-1,.2-.9,0-1.5-.2-2-.7ZM39.4,539.5v-1h1v1h-1ZM39.5,545v-4.7h.9v4.7h-.9ZM45,545v-.6c0,0-.2.1-.3.3-.1.1-.3.2-.5.3-.2,0-.5.1-.8.1s-.7,0-1.1-.3c-.3-.2-.6-.5-.7-.8s-.3-.8-.3-1.3,0-.8.2-1.1c.2-.3.4-.6.6-.8.2-.2.5-.3.8-.4.3-.1.5-.2.8-.2s.5,0,.6,0c.2,0,.4.1.6.2v-2.2h.9v6.4c0,0,0,.2,0,.3h-.9ZM45,543v-1.7c-.1,0-.3-.2-.5-.2-.2,0-.4,0-.7,0-.4,0-.8.2-1.1.5-.3.3-.4.7-.4,1.3s0,.6.1.8c0,.2.2.4.5.6.2.1.5.2.8.2s.6,0,.8-.2c.2-.1.3-.3.4-.5,0-.2.1-.4.1-.6ZM50.9,543.8l.5.5c0,0-.2.2-.4.3-.2.1-.4.2-.7.3-.3.1-.6.2-1,.2s-.9-.1-1.3-.3c-.4-.2-.7-.5-.9-.9-.2-.4-.3-.8-.3-1.3s0-.9.3-1.2c.2-.4.5-.7.8-.9.4-.2.8-.3,1.2-.3s1,.1,1.3.4c.3.3.6.6.7,1,.2.4.2.9.2,1.3h-3.7c0,.3,0,.5.2.7.1.2.3.4.5.5.2.1.5.2.8.2.4,0,.7,0,1-.2.3-.1.4-.3.6-.4ZM47.9,542.3h2.7c0-.4-.2-.7-.4-.9-.2-.3-.5-.4-1-.4s-.5,0-.7.2c-.2.1-.4.3-.5.5-.1.2-.2.4-.2.6ZM53.4,545h-.9v-4.4c0,0,0-.2,0-.3h.9v.8c.1-.1.2-.2.3-.3.1-.1.3-.2.5-.3.2,0,.4-.1.7-.1s.2,0,.3,0c0,0,.2,0,.2,0l-.2.8c-.1,0-.3,0-.5,0s-.5,0-.7.2c-.2.1-.4.3-.5.5-.1.2-.2.4-.2.7v2.5ZM58.4,543.5v-2.4h-.8v-.8h.8v-1.5h.9v1.5h1.4v.8h-1.4v2.3c0,.4,0,.6.2.8.1.1.3.2.5.2s.3,0,.4,0c.1,0,.2-.1.3-.2l.4.5c-.2.2-.4.3-.6.4-.2,0-.4.1-.7.1-.5,0-.8-.1-1.1-.4-.2-.3-.3-.7-.3-1.2ZM61.8,545v-6.7h.9v2.7c0-.1.2-.2.3-.3.1-.1.3-.2.5-.3.2,0,.5-.1.7-.1.6,0,1.1.2,1.3.5.3.4.4.8.4,1.4v2.8h-.9v-2.7c0-.4,0-.8-.3-1-.2-.2-.4-.3-.8-.3s-.6,0-.8.3c-.2.2-.3.4-.4.7,0,.3-.1.6-.1.9v2.2h-.9ZM71,543.8l.5.5c0,0-.2.2-.4.3-.2.1-.4.2-.7.3-.3.1-.6.2-1,.2s-.9-.1-1.3-.3c-.4-.2-.7-.5-.9-.9-.2-.4-.3-.8-.3-1.3s0-.9.3-1.2c.2-.4.5-.7.8-.9.4-.2.8-.3,1.2-.3s1,.1,1.3.4c.3.3.6.6.7,1,.2.4.2.9.2,1.3h-3.7c0,.3,0,.5.2.7.1.2.3.4.6.5.2.1.5.2.8.2.4,0,.7,0,1-.2.3-.1.4-.3.6-.4ZM67.9,542.3h2.7c0-.4-.2-.7-.4-.9-.2-.3-.5-.4-1-.4s-.5,0-.7.2c-.2.1-.4.3-.5.5-.1.2-.2.4-.2.6ZM74.5,545v-6.7h2.1c.5,0,.8,0,1.1.2.3.1.5.3.7.5.2.2.3.4.4.7,0,.2.1.5.1.7,0,.4,0,.8-.3,1.1-.2.3-.5.5-.8.7-.3.2-.7.2-1.2.2h-1.2v2.6h-.9ZM75.5,541.6h1.2c.4,0,.7-.1,1-.3.2-.2.3-.5.3-.9s-.1-.7-.3-.9c-.2-.2-.5-.3-.9-.3h-1.2v2.4ZM80.2,545v-6.7h2.2c.7,0,1.3.1,1.9.4.5.2,1,.6,1.3,1.1.3.5.5,1.1.5,1.9s-.2,1.4-.5,1.9c-.3.5-.7.9-1.3,1.1-.5.2-1.2.4-1.9.4h-2.2ZM81.2,544.1h1.2c.8,0,1.5-.2,1.9-.6.5-.4.7-1,.7-1.8s-.2-1.4-.7-1.9c-.4-.4-1.1-.7-2-.7h-1.2v5ZM86.9,544l.7-.6c.1.1.3.3.4.4.2.1.4.3.6.4.2,0,.5.1.8.1.4,0,.8,0,1-.3.2-.2.4-.5.4-.8s-.1-.6-.4-.8c-.3-.2-.7-.3-1.2-.4-.6-.1-1-.3-1.4-.6-.4-.3-.5-.7-.5-1.3s0-.6.2-.9c.2-.3.4-.5.8-.7.3-.2.7-.3,1.2-.3s.8,0,1.1.2c.3.1.5.2.7.4.2.1.3.3.3.4l-.6.6c0,0-.1-.2-.3-.3-.1-.1-.3-.2-.5-.3-.2,0-.4-.1-.7-.1s-.5,0-.7.1c-.2,0-.3.2-.4.4,0,.1-.1.3-.1.4,0,.3.1.6.4.7.3.2.7.3,1.2.4.3,0,.7.2.9.4.3.2.5.4.7.6.2.3.3.6.3,1.1s-.1.7-.3,1c-.2.3-.5.5-.8.7-.4.2-.8.2-1.2.2s-.8,0-1.1-.2c-.3-.1-.6-.3-.8-.5-.2-.2-.4-.4-.6-.5ZM97.7,545v-.6c-.2.2-.4.4-.7.5-.3.1-.6.2-.9.2s-.5,0-.8-.1c-.2,0-.5-.2-.6-.5-.2-.2-.2-.5-.2-.9,0-.5.2-.9.5-1.2.4-.3.9-.4,1.5-.4s.3,0,.4,0c.2,0,.3,0,.4,0,.1,0,.2,0,.2,0v-.2c0-.3-.1-.6-.3-.7-.2-.2-.5-.2-.8-.2s-.6,0-.8.1c-.2,0-.4.2-.5.3l-.4-.6c.2-.1.4-.3.7-.4.3-.1.7-.2,1.2-.2s1.1.1,1.4.4c.3.3.5.7.5,1.2v2.9c0,0,0,.1,0,.2h-.8ZM97.7,543.3v-.5s-.1,0-.2,0c-.1,0-.3,0-.4,0-.1,0-.3,0-.4,0-.3,0-.6,0-.8.2-.2,0-.3.2-.4.4,0,.1,0,.3,0,.4,0,.2,0,.4.3.6.2.1.4.2.7.2s.4,0,.6-.1c.2-.1.4-.2.5-.4.1-.2.2-.3.2-.5ZM100.7,545h-.9v-4.3c0,0,0-.2,0-.3h.9v.7c.1-.1.2-.2.3-.3.1-.1.3-.2.5-.3.2,0,.5-.1.7-.1.6,0,1.1.2,1.3.5.3.4.4.8.4,1.4v2.8h-.9v-2.7c0-.4,0-.8-.3-1-.2-.2-.4-.3-.8-.3s-.6,0-.8.3c-.2.2-.3.4-.4.7,0,.3-.1.6-.1.9v2.2ZM108.6,545v-.6c0,0-.2.1-.3.3-.1.1-.3.2-.5.3-.2,0-.5.1-.8.1s-.7,0-1.1-.3c-.3-.2-.6-.5-.7-.8s-.3-.8-.3-1.3,0-.8.2-1.1c.2-.3.3-.6.6-.8.2-.2.5-.3.8-.4.3-.1.5-.2.8-.2s.5,0,.6,0c.2,0,.4.1.6.2v-2.2h.9v6.4c0,0,0,.2,0,.3h-.9ZM108.6,543v-1.7c-.1,0-.3-.2-.5-.2-.2,0-.4,0-.7,0-.4,0-.8.2-1.1.5-.3.3-.4.7-.4,1.3s0,.6.1.8c0,.2.2.4.5.6.2.1.5.2.8.2s.6,0,.8-.2c.2-.1.3-.3.4-.5,0-.2.1-.4.1-.6ZM114.5,545v-5.8h-2.4v-.8h5.7v.8h-2.4v5.8h-1ZM118.7,545l.3-6.7h.9l2,3.5,2-3.5h.9l.3,6.7h-.9l-.2-5.1-1.9,3.2h-.5l-1.8-3.1-.2,5.1h-.9ZM126.7,545v-6.7h2.2c.7,0,1.3.1,1.9.4.5.2,1,.6,1.3,1.1.3.5.5,1.1.5,1.9s-.2,1.4-.5,1.9c-.3.5-.7.9-1.3,1.1-.5.2-1.2.4-1.9.4h-2.2ZM127.6,544.1h1.2c.8,0,1.5-.2,1.9-.6.5-.4.7-1,.7-1.8s-.2-1.4-.7-1.9c-.4-.4-1.1-.7-2-.7h-1.2v5ZM138.4,545v-.6c-.2.2-.4.4-.7.5-.3.1-.6.2-.9.2s-.5,0-.8-.1c-.2,0-.5-.2-.6-.5-.2-.2-.2-.5-.2-.9,0-.5.2-.9.5-1.2.4-.3.9-.4,1.5-.4s.3,0,.4,0c.2,0,.3,0,.4,0,.1,0,.2,0,.2,0v-.2c0-.3-.1-.6-.3-.7-.2-.2-.5-.2-.9-.2s-.6,0-.8.1c-.2,0-.4.2-.5.3l-.4-.6c.2-.1.4-.3.7-.4.3-.1.7-.2,1.2-.2s1.1.1,1.4.4c.3.3.5.7.5,1.2v2.9c0,0,0,.1,0,.2h-.8ZM138.3,543.3v-.5s-.1,0-.2,0c-.1,0-.3,0-.4,0-.1,0-.3,0-.4,0-.3,0-.6,0-.8.2-.2,0-.3.2-.4.4,0,.1,0,.3,0,.4,0,.2,0,.4.3.6.2.1.4.2.7.2s.4,0,.6-.1c.2-.1.4-.2.5-.4.1-.2.2-.3.2-.5ZM140.8,543.5v-2.4h-.8v-.8h.8v-1.5h.9v1.5h1.4v.8h-1.4v2.3c0,.4,0,.6.2.8.1.1.3.2.5.2s.3,0,.4,0c.1,0,.2-.1.3-.2l.4.5c-.2.2-.4.3-.6.4-.2,0-.4.1-.7.1-.5,0-.8-.1-1.1-.4-.2-.3-.3-.7-.3-1.2ZM13.2,554v-6.7h.9v2.7c0-.1.2-.2.3-.3.1-.1.3-.2.5-.3.2,0,.5-.1.7-.1.6,0,1.1.2,1.3.5.3.4.4.8.4,1.4v2.8h-.9v-2.7c0-.4,0-.8-.3-1-.2-.2-.4-.3-.8-.3s-.6,0-.8.3c-.2.2-.3.4-.4.7,0,.3-.1.6-.1.9v2.2h-.9ZM20.9,554.1c-.5,0-.9-.1-1.3-.3-.4-.2-.7-.5-.9-.9-.2-.4-.3-.8-.3-1.2s.1-.9.3-1.2c.2-.4.5-.7.9-.9.4-.2.8-.3,1.3-.3s.9.1,1.3.3c.4.2.7.5.9.9.2.4.3.8.3,1.2s-.1.9-.3,1.2c-.2.4-.5.7-.9.9-.4.2-.8.3-1.3.3ZM20.9,553.4c.3,0,.6,0,.8-.2.2-.2.4-.4.5-.6.1-.3.2-.5.2-.8s0-.5-.2-.8c-.1-.3-.3-.5-.5-.6-.2-.2-.5-.2-.8-.2s-.6,0-.8.2c-.2.2-.4.4-.5.6-.1.3-.2.5-.2.8s0,.5.2.8c.1.3.3.5.5.6.2.2.5.2.8.2ZM24.1,553.4l.5-.6c.2.2.4.3.6.4.2.1.5.2.8.2s.6,0,.8-.1c.2,0,.3-.3.3-.5s0-.3-.1-.4c0,0-.2-.2-.4-.2-.2,0-.5-.2-.8-.2-.2,0-.5-.1-.7-.2-.2-.1-.4-.2-.6-.4-.1-.2-.2-.4-.2-.7s0-.6.3-.8c.2-.2.4-.4.7-.5.3-.1.6-.2.9-.2s.7,0,1,.2c.3.1.5.2.7.4l-.5.6c-.1-.1-.3-.2-.5-.3-.2,0-.5-.1-.7-.1s-.5,0-.7.1c-.2,0-.3.2-.3.5s.1.3.4.5c.2,0,.5.2.9.3.3,0,.6.2.8.3.2.1.4.3.6.4.1.2.2.4.2.7s0,.6-.3.8c-.2.2-.4.4-.7.5-.3.1-.6.2-1,.2-.9,0-1.5-.2-2-.7ZM29.5,552.5v-2.4h-.8v-.8h.8v-1.5h.9v1.5h1.4v.8h-1.4v2.3c0,.4,0,.6.2.8.1.1.3.2.5.2s.3,0,.4,0c.1,0,.2-.1.3-.2l.4.5c-.2.2-.4.3-.6.4-.2,0-.4.1-.7.1-.5,0-.8-.1-1.1-.4-.2-.3-.4-.7-.4-1.2ZM33.8,556h-.9v-6.3c0,0,0-.2,0-.3h.9v.7c0,0,.2-.2.3-.3.1-.1.3-.2.5-.3.2,0,.5-.1.8-.1.5,0,.9.1,1.2.3.3.2.5.5.7.9.2.4.2.8.2,1.2s0,.8-.2,1.1c-.1.3-.3.6-.6.8-.2.2-.5.3-.8.4-.3,0-.6.1-.8.1s-.6,0-.8-.1c-.2,0-.4-.1-.5-.2v2.2ZM33.8,551.8v1.2c.1,0,.3.2.5.2s.5.1.8.1.6,0,.8-.2c.2-.1.4-.3.5-.6.1-.3.2-.5.2-.8s0-.6-.1-.8c0-.3-.2-.5-.4-.6s-.5-.2-.8-.2-.6,0-.8.3c-.2.2-.4.4-.5.8,0,.1,0,.2,0,.3,0,.1,0,.2,0,.4ZM38.5,554v-6.7h.9v6.7h-.9ZM40.6,552.1v-2.8h.9v2.7c0,.4,0,.8.3,1,.2.2.4.3.8.3s.6,0,.8-.3c.2-.2.3-.4.4-.7,0-.3.1-.6.1-.9v-2.2h.9v4.4c0,0,0,.2,0,.3h-.9v-.7c-.1.1-.2.2-.3.3-.1.1-.3.2-.5.3-.2,0-.4.1-.7.1-.6,0-1.1-.2-1.3-.5-.3-.4-.4-.8-.4-1.4ZM45.8,553.4l.5-.6c.2.2.4.3.6.4.2.1.5.2.8.2s.5,0,.8-.1c.2,0,.3-.3.3-.5s0-.3-.1-.4c0,0-.2-.2-.4-.2-.2,0-.5-.2-.8-.2-.2,0-.5-.1-.7-.2-.2-.1-.4-.2-.6-.4-.1-.2-.2-.4-.2-.7s0-.6.3-.8c.2-.2.4-.4.7-.5.3-.1.6-.2.9-.2s.7,0,1,.2c.3.1.5.2.7.4l-.5.6c-.1-.1-.3-.2-.5-.3-.2,0-.5-.1-.7-.1s-.5,0-.7.1c-.2,0-.3.2-.3.5s.1.3.3.5c.2,0,.5.2.9.3.3,0,.6.2.8.3.2.1.4.3.6.4.1.2.2.4.2.7s0,.6-.3.8c-.2.2-.4.4-.7.5-.3.1-.6.2-1,.2-.9,0-1.5-.2-2-.7ZM50.6,554v-1.1h1.1v1.1h-1.1ZM56.2,552.8l.5.6c-.2.2-.5.4-.8.6-.3.1-.7.2-1,.2s-.9-.1-1.3-.3c-.4-.2-.6-.5-.8-.9-.2-.4-.3-.8-.3-1.3s.1-.9.3-1.2c.2-.4.5-.7.9-.9.4-.2.8-.3,1.3-.3s.7,0,1,.2c.3.1.6.3.8.6l-.6.6c-.1-.2-.3-.3-.5-.4-.2-.1-.4-.2-.7-.2s-.6,0-.8.2c-.2.2-.4.4-.5.6-.1.3-.2.5-.2.8s0,.6.2.8c.1.3.3.5.5.6.2.2.5.2.8.2s.5,0,.7-.1c.2-.1.4-.2.5-.4ZM59.6,554.1c-.5,0-.9-.1-1.3-.3-.4-.2-.7-.5-.9-.9-.2-.4-.3-.8-.3-1.2s.1-.9.3-1.2c.2-.4.5-.7.9-.9.4-.2.8-.3,1.3-.3s.9.1,1.3.3c.4.2.7.5.9.9s.3.8.3,1.2-.1.9-.3,1.2c-.2.4-.5.7-.9.9-.4.2-.8.3-1.3.3ZM59.6,553.4c.3,0,.6,0,.8-.2.2-.2.4-.4.5-.6.1-.3.2-.5.2-.8s0-.5-.2-.8c-.1-.3-.3-.5-.5-.6-.2-.2-.5-.2-.8-.2s-.6,0-.8.2c-.2.2-.4.4-.5.6-.1.3-.2.5-.2.8s0,.5.2.8c.1.3.3.5.5.6.2.2.5.2.8.2ZM64,554h-.9v-4.3c0,0,0-.2,0-.3h.9v.7c.1-.1.2-.2.3-.3.1-.1.3-.2.5-.3.2,0,.4-.1.7-.1s.7,0,.9.2c.2.1.4.3.6.6.2-.2.4-.4.7-.6.3-.2.6-.3,1-.3.6,0,1,.2,1.3.5.3.4.4.8.4,1.4v2.8h-.9v-2.7c0-.8-.3-1.3-1-1.3s-.5,0-.7.2c-.2.1-.3.3-.5.5-.1.2-.2.4-.2.7v2.6h-.9v-2.7c0-.4,0-.8-.3-1-.2-.2-.4-.3-.7-.3s-.6,0-.8.3c-.2.2-.3.4-.4.7,0,.3-.1.6-.1.9v2.2ZM71.6,554v-1.1h1.1v1.1h-1.1ZM77,554v-.6c-.2.2-.4.4-.7.5-.3.1-.6.2-.9.2s-.5,0-.8-.1c-.2,0-.5-.2-.6-.5-.2-.2-.2-.5-.2-.9,0-.5.2-.9.5-1.2.4-.3.9-.4,1.5-.4s.3,0,.4,0c.2,0,.3,0,.4,0,.1,0,.2,0,.2,0v-.2c0-.3-.1-.6-.3-.7-.2-.2-.5-.2-.8-.2s-.6,0-.8.1c-.2,0-.4.2-.5.3l-.4-.6c.2-.1.4-.3.7-.4.3-.1.7-.2,1.2-.2s1.1.1,1.4.4c.3.3.5.7.5,1.2v2.9c0,0,0,.1,0,.2h-.8ZM77,552.3v-.5s-.1,0-.2,0c-.1,0-.3,0-.4,0-.1,0-.3,0-.4,0-.3,0-.6,0-.8.2-.2,0-.3.2-.4.4,0,.1,0,.3,0,.4,0,.2,0,.4.3.6.2.1.4.2.7.2s.4,0,.6-.1c.2-.1.4-.2.5-.4.1-.2.2-.3.2-.5ZM79.1,552.1v-2.8h.9v2.7c0,.4,0,.8.3,1,.2.2.4.3.8.3s.6,0,.8-.3c.2-.2.3-.4.4-.7,0-.3.1-.6.1-.9v-2.2h.9v4.4c0,0,0,.2,0,.3h-.9v-.7c-.1.1-.2.2-.3.3-.1.1-.3.2-.5.3-.2,0-.4.1-.7.1-.6,0-1.1-.2-1.3-.5-.3-.4-.4-.8-.4-1.4ZM86.3,553.8v-6.5h.9v2.5c0-.1.3-.3.5-.4.2-.1.6-.2.9-.2s.8.1,1.2.3c.3.2.6.5.7.9.2.4.2.8.2,1.2s-.1.9-.3,1.3c-.2.4-.5.7-.9.9-.4.2-.8.3-1.4.3s-.7,0-1.1,0c-.3,0-.6-.1-.8-.2ZM87.2,551.4v1.8c0,0,.2,0,.3,0,.1,0,.3,0,.6,0,.5,0,.9-.2,1.2-.5.3-.3.5-.7.5-1.2s0-.6-.1-.8c0-.2-.2-.4-.4-.6-.2-.2-.5-.2-.8-.2s-.5,0-.7.2c-.2.1-.3.3-.4.5,0,.2-.1.4-.1.7ZM95.5,552.8l.5.5c0,0-.2.2-.4.3-.2.1-.4.2-.7.3-.3.1-.6.2-1,.2s-.9-.1-1.3-.3c-.4-.2-.7-.5-.9-.9-.2-.4-.3-.8-.3-1.3s0-.9.3-1.2c.2-.4.5-.7.8-.9.4-.2.8-.3,1.2-.3s1,.1,1.3.4c.3.3.6.6.7,1,.2.4.2.9.2,1.3h-3.7c0,.3,0,.5.2.7.1.2.3.4.6.5.2.1.5.2.8.2.4,0,.7,0,1-.2.3-.1.4-.3.5-.4ZM92.5,551.3h2.7c0-.4-.2-.7-.4-.9-.2-.3-.5-.4-1-.4s-.5,0-.7.2c-.2.1-.4.3-.5.5-.1.2-.2.4-.2.6ZM97.5,554v-3.9h-.8v-.8h.8v-.4c0-.4,0-.8.2-1,.2-.3.4-.5.6-.6.2-.1.5-.2.8-.2s.5,0,.7.1c.2,0,.5.2.7.4l-.4.6c-.2-.2-.5-.3-.8-.3s-.5,0-.6.2c-.2.2-.2.5-.2.9v.3h1.3v.8h-1.3v3.9h-.9ZM102.5,554.1c-.5,0-.9-.1-1.3-.3-.4-.2-.7-.5-.9-.9-.2-.4-.3-.8-.3-1.2s.1-.9.3-1.2c.2-.4.5-.7.9-.9.4-.2.8-.3,1.3-.3s.9.1,1.3.3c.4.2.7.5.9.9.2.4.3.8.3,1.2s-.1.9-.3,1.2c-.2.4-.5.7-.9.9-.4.2-.8.3-1.3.3ZM102.5,553.4c.3,0,.6,0,.8-.2.2-.2.4-.4.5-.6.1-.3.2-.5.2-.8s0-.5-.2-.8c-.1-.3-.3-.5-.5-.6-.2-.2-.5-.2-.8-.2s-.6,0-.8.2c-.2.2-.4.4-.5.6-.1.3-.2.5-.2.8s0,.5.2.8c.1.3.3.5.5.6.2.2.5.2.8.2ZM106.9,554h-.9v-4.4c0,0,0-.2,0-.3h.9v.8c.1-.1.2-.2.3-.3.1-.1.3-.2.5-.3.2,0,.4-.1.7-.1s.2,0,.3,0c0,0,.2,0,.2,0l-.2.8c-.1,0-.3,0-.5,0s-.5,0-.7.2c-.2.1-.4.3-.5.5-.1.2-.2.4-.2.7v2.5ZM113.1,552.8l.5.5c0,0-.2.2-.4.3-.2.1-.4.2-.7.3-.3.1-.6.2-1,.2s-.9-.1-1.3-.3c-.4-.2-.7-.5-.9-.9-.2-.4-.3-.8-.3-1.3s0-.9.3-1.2c.2-.4.5-.7.8-.9.4-.2.8-.3,1.2-.3s1,.1,1.3.4c.3.3.6.6.7,1,.2.4.2.9.2,1.3h-3.7c0,.3,0,.5.2.7.1.2.3.4.6.5.2.1.5.2.8.2.4,0,.7,0,1-.2.3-.1.4-.3.5-.4ZM110.1,551.3h2.7c0-.4-.2-.7-.4-.9-.2-.3-.5-.4-1-.4s-.5,0-.7.2c-.2.1-.4.3-.5.5-.1.2-.2.4-.2.6ZM117.4,554h-.9v-4.3c0,0,0-.2,0-.3h.9v.7c.1-.1.2-.2.3-.3.1-.1.3-.2.5-.3.2,0,.4-.1.7-.1s.7,0,.9.2c.2.1.4.3.6.6.2-.2.4-.4.7-.6.3-.2.6-.3,1-.3.6,0,1,.2,1.3.5.3.4.4.8.4,1.4v2.8h-.9v-2.7c0-.8-.3-1.3-1-1.3s-.5,0-.7.2c-.2.1-.3.3-.5.5-.1.2-.2.4-.2.7v2.6h-.9v-2.7c0-.4,0-.8-.3-1-.2-.2-.4-.3-.7-.3s-.6,0-.8.3-.3.4-.4.7c0,.3-.1.6-.1.9v2.2ZM128,554v-.6c-.2.2-.4.4-.7.5-.3.1-.6.2-.9.2s-.5,0-.8-.1c-.2,0-.5-.2-.6-.5-.2-.2-.2-.5-.2-.9,0-.5.2-.9.5-1.2.4-.3.9-.4,1.5-.4s.3,0,.4,0c.2,0,.3,0,.4,0,.1,0,.2,0,.2,0v-.2c0-.3-.1-.6-.3-.7-.2-.2-.5-.2-.8-.2s-.6,0-.8.1c-.2,0-.4.2-.5.3l-.4-.6c.2-.1.4-.3.7-.4.3-.1.7-.2,1.2-.2s1.1.1,1.4.4c.3.3.5.7.5,1.2v2.9c0,0,0,.1,0,.2h-.8ZM127.9,552.3v-.5s-.1,0-.2,0c-.1,0-.3,0-.4,0-.1,0-.3,0-.4,0-.3,0-.6,0-.8.2-.2,0-.3.2-.4.4,0,.1,0,.3,0,.4,0,.2,0,.4.3.6.2.1.4.2.7.2s.4,0,.6-.1c.2-.1.4-.2.5-.4.1-.2.2-.3.2-.5ZM130,554v-6.7h.9v3.9l1.9-1.9h1.1l-1.8,1.7,2,2.9h-1.1l-1.6-2.3-.6.6v1.7h-.9ZM134.9,548.5v-1h1v1h-1ZM135,554v-4.7h.9v4.7h-.9ZM138,554h-.9v-4.3c0,0,0-.2,0-.3h.9v.7c.1-.1.2-.2.4-.3.1-.1.3-.2.5-.3.2,0,.5-.1.7-.1.6,0,1.1.2,1.3.5.3.4.4.8.4,1.4v2.8h-.9v-2.7c0-.4,0-.8-.3-1-.2-.2-.4-.3-.8-.3s-.6,0-.8.3c-.2.2-.3.4-.4.7,0,.3-.1.6-.1.9v2.2ZM142.8,555.6l.4-.7c.2.1.3.2.6.3.2,0,.5.1.8.1s.8-.1,1-.4c.2-.2.3-.6.3-1v-.6c0,0-.1.1-.3.2-.1,0-.3.2-.5.3-.2,0-.4.1-.7.1-.5,0-.8,0-1.2-.3-.3-.2-.6-.5-.7-.8-.2-.4-.2-.8-.2-1.2s.1-.9.3-1.3c.2-.4.5-.7.9-.9.4-.2.8-.3,1.4-.3s.7,0,1.1.1c.3,0,.6.1.8.2v4.4c0,.7-.2,1.2-.6,1.6-.4.4-.9.6-1.6.6s-.8,0-1.1-.2-.5-.2-.7-.4ZM145.9,552.1v-1.9c0,0-.2,0-.3,0-.1,0-.4,0-.6,0s-.6,0-.9.2c-.3.1-.5.3-.6.6-.1.3-.2.5-.2.9s0,.5.1.8c0,.2.2.4.4.6.2.1.5.2.8.2s.5,0,.7-.2c.2-.1.3-.3.4-.4,0-.2.1-.4.1-.6ZM16.5,563v-.6c-.2.2-.4.4-.7.5-.3.1-.6.2-.9.2s-.5,0-.8-.1c-.2,0-.5-.2-.6-.5-.2-.2-.2-.5-.2-.9,0-.5.2-.9.5-1.2.4-.3.9-.4,1.5-.4s.3,0,.4,0c.2,0,.3,0,.4,0,.1,0,.2,0,.2,0v-.2c0-.3-.1-.6-.3-.7-.2-.2-.5-.2-.9-.2s-.6,0-.8.1c-.2,0-.4.2-.5.3l-.4-.6c.2-.1.4-.3.7-.4.3-.1.7-.2,1.2-.2s1.1.1,1.4.4c.3.3.5.7.5,1.2v2.9c0,0,0,.1,0,.2h-.8ZM16.5,561.3v-.5s-.1,0-.2,0c-.1,0-.3,0-.4,0-.1,0-.3,0-.4,0-.3,0-.6,0-.8.2-.2,0-.3.2-.4.4,0,.1,0,.3,0,.4,0,.2,0,.4.3.6.2.1.4.2.7.2s.4,0,.6-.1c.2-.1.4-.2.5-.4.1-.2.2-.3.2-.5ZM23.8,563v-.6c0,0-.2.1-.3.3-.1.1-.3.2-.5.3-.2,0-.5.1-.8.1s-.7,0-1.1-.3c-.3-.2-.6-.5-.7-.8s-.3-.8-.3-1.3,0-.8.2-1.1c.2-.3.3-.6.6-.8.2-.2.5-.3.8-.4.3-.1.5-.2.8-.2s.5,0,.6,0c.2,0,.4.1.6.2v-2.2h.9v6.4c0,0,0,.2,0,.3h-.9ZM23.7,561v-1.7c-.1,0-.3-.2-.5-.2-.2,0-.4,0-.7,0-.4,0-.8.2-1.1.5-.3.3-.4.7-.4,1.3s0,.6.1.8c.1.2.2.4.5.6.2.1.5.2.8.2s.6,0,.8-.2c.2-.1.3-.3.4-.5,0-.2.1-.4.1-.6ZM29.6,561.8l.5.5c0,0-.2.2-.4.3-.2.1-.4.2-.7.3-.3.1-.6.2-1,.2s-.9-.1-1.3-.3c-.4-.2-.7-.5-.9-.9-.2-.4-.3-.8-.3-1.3s0-.9.3-1.2c.2-.4.5-.7.8-.9.4-.2.8-.3,1.2-.3s1,.1,1.3.4c.3.3.6.6.7,1,.2.4.2.9.2,1.3h-3.7c0,.3,0,.5.2.7.1.2.3.4.6.5.2.1.5.2.8.2.4,0,.7,0,1-.2.3-.1.4-.3.6-.4ZM26.6,560.3h2.7c0-.4-.2-.7-.4-.9-.2-.3-.5-.4-1-.4s-.5,0-.7.2c-.2.1-.4.3-.5.5-.1.2-.2.4-.2.6ZM34.7,561.8l.6.6c-.2.2-.5.4-.8.6-.3.1-.7.2-1.1.2s-.9-.1-1.3-.3c-.4-.2-.6-.5-.8-.9-.2-.4-.3-.8-.3-1.3s.1-.9.3-1.2c.2-.4.5-.7.9-.9.4-.2.8-.3,1.3-.3s.7,0,1,.2c.3.1.6.3.8.6l-.6.6c-.1-.2-.3-.3-.5-.4-.2-.1-.4-.2-.7-.2s-.6,0-.8.2c-.2.2-.4.4-.5.6-.1.3-.2.5-.2.8s0,.6.2.8c.1.3.3.5.5.6.2.2.5.2.8.2s.5,0,.7-.1c.2-.1.4-.2.5-.4ZM36.2,557.5v-1h1v1h-1ZM36.2,563v-4.7h.9v4.7h-.9ZM38.1,562.4l.5-.6c.2.2.4.3.6.4.2.1.5.2.8.2s.6,0,.8-.1c.2,0,.3-.3.3-.5s0-.3-.1-.4c0,0-.2-.2-.4-.2-.2,0-.5-.2-.8-.2-.2,0-.5-.1-.7-.2-.2-.1-.4-.2-.6-.4-.1-.2-.2-.4-.2-.7s0-.6.3-.8c.2-.2.4-.4.7-.5.3-.1.6-.2.9-.2s.7,0,1,.2c.3.1.5.2.7.4l-.5.6c-.1-.1-.3-.2-.5-.3-.2,0-.5-.1-.7-.1s-.5,0-.7.1c-.2,0-.3.2-.3.5s.1.3.4.5c.2,0,.5.2.9.3.3,0,.6.2.8.3.2.1.4.3.6.4.1.2.2.4.2.7s0,.6-.3.8c-.2.2-.4.4-.7.5-.3.1-.6.2-1,.2-.9,0-1.5-.2-2-.7ZM43.1,557.5v-1h1v1h-1ZM43.1,563v-4.7h.9v4.7h-.9ZM47.6,563.1c-.5,0-.9-.1-1.3-.3-.4-.2-.7-.5-.9-.9-.2-.4-.3-.8-.3-1.2s.1-.9.3-1.2c.2-.4.5-.7.9-.9.4-.2.8-.3,1.3-.3s.9.1,1.3.3c.4.2.7.5.9.9.2.4.3.8.3,1.2s-.1.9-.3,1.2c-.2.4-.5.7-.9.9-.4.2-.8.3-1.3.3ZM47.6,562.4c.3,0,.6,0,.8-.2.2-.2.4-.4.5-.6.1-.3.2-.5.2-.8s0-.5-.2-.8c-.1-.3-.3-.5-.5-.6-.2-.2-.5-.2-.8-.2s-.6,0-.8.2c-.2.2-.4.4-.5.6-.1.3-.2.5-.2.8s0,.5.2.8c.1.3.3.5.5.6.2.2.5.2.8.2ZM51.9,563h-.9v-4.3c0,0,0-.2,0-.3h.9v.7c.1-.1.2-.2.4-.3.1-.1.3-.2.5-.3.2,0,.5-.1.7-.1.6,0,1.1.2,1.4.5.3.4.4.8.4,1.4v2.8h-.9v-2.7c0-.4,0-.8-.3-1-.2-.2-.4-.3-.8-.3s-.6,0-.8.3c-.2.2-.3.4-.4.7,0,.3-.1.6-.1.9v2.2ZM61.2,563v-.6c-.2.2-.4.4-.7.5-.3.1-.6.2-.9.2s-.5,0-.8-.1c-.2,0-.5-.2-.6-.5-.2-.2-.2-.5-.2-.9,0-.5.2-.9.5-1.2.4-.3.9-.4,1.5-.4s.3,0,.4,0c.2,0,.3,0,.4,0,.1,0,.2,0,.2,0v-.2c0-.3-.1-.6-.3-.7-.2-.2-.5-.2-.8-.2s-.6,0-.8.1c-.2,0-.4.2-.5.3l-.4-.6c.2-.1.4-.3.7-.4.3-.1.7-.2,1.2-.2s1.1.1,1.4.4c.3.3.5.7.5,1.2v2.9c0,0,0,.1,0,.2h-.8ZM61.2,561.3v-.5s-.1,0-.2,0c-.1,0-.3,0-.4,0-.1,0-.3,0-.4,0-.3,0-.6,0-.8.2-.2,0-.3.2-.4.4,0,.1,0,.3,0,.4,0,.2,0,.4.3.6.2.1.4.2.7.2s.4,0,.6-.1c.2-.1.4-.2.5-.4.1-.2.2-.3.2-.5ZM63.3,562.8v-6.5h.9v2.5c0-.1.3-.3.5-.4.2-.1.6-.2.9-.2s.8.1,1.2.3c.3.2.6.5.7.9.2.4.2.8.2,1.2s-.1.9-.3,1.3c-.2.4-.5.7-.9.9-.4.2-.8.3-1.4.3s-.7,0-1.1,0c-.3,0-.6-.1-.8-.2ZM64.2,560.4v1.8c0,0,.2,0,.3,0,.1,0,.3,0,.6,0,.5,0,.9-.2,1.2-.5.3-.3.5-.7.5-1.2s0-.6-.1-.8c0-.2-.2-.4-.4-.6-.2-.2-.4-.2-.8-.2s-.5,0-.7.2c-.2.1-.3.3-.4.5,0,.2-.1.4-.1.7ZM71,563.1c-.5,0-.9-.1-1.3-.3-.4-.2-.7-.5-.9-.9-.2-.4-.3-.8-.3-1.2s.1-.9.3-1.2c.2-.4.5-.7.9-.9.4-.2.8-.3,1.3-.3s.9.1,1.3.3c.4.2.7.5.9.9.2.4.3.8.3,1.2s-.1.9-.3,1.2c-.2.4-.5.7-.9.9-.4.2-.8.3-1.3.3ZM71,562.4c.3,0,.6,0,.8-.2.2-.2.4-.4.5-.6.1-.3.2-.5.2-.8s0-.5-.2-.8c-.1-.3-.3-.5-.5-.6-.2-.2-.5-.2-.8-.2s-.6,0-.8.2c-.2.2-.4.4-.5.6-.1.3-.2.5-.2.8s0,.5.2.8c.1.3.3.5.5.6.2.2.5.2.8.2ZM74.5,561.1v-2.8h.9v2.7c0,.4,0,.8.3,1,.2.2.4.3.8.3s.6,0,.8-.3c.2-.2.3-.4.4-.7,0-.3.1-.6.1-.9v-2.2h.9v4.4c0,0,0,.2,0,.3h-.9v-.7c-.1.1-.2.2-.3.3-.1.1-.3.2-.5.3-.2,0-.4.1-.7.1-.6,0-1.1-.2-1.3-.5-.3-.4-.4-.8-.4-1.4ZM80.3,561.5v-2.4h-.8v-.8h.8v-1.5h.9v1.5h1.4v.8h-1.4v2.3c0,.4,0,.6.2.8.1.1.3.2.5.2s.3,0,.4,0c.1,0,.2-.1.3-.2l.4.5c-.2.2-.4.3-.6.4-.2,0-.4.1-.7.1-.5,0-.8-.1-1.1-.4-.2-.3-.3-.7-.3-1.2ZM85.7,563v-6.7h1v2.8h3.7v-2.8h1v6.7h-1v-3h-3.7v3h-1ZM94.9,563.1c-.5,0-.9-.1-1.3-.3-.4-.2-.7-.5-.9-.9-.2-.4-.3-.8-.3-1.2s.1-.9.3-1.2c.2-.4.5-.7.9-.9.4-.2.8-.3,1.3-.3s.9.1,1.3.3c.4.2.7.5.9.9.2.4.3.8.3,1.2s-.1.9-.3,1.2c-.2.4-.5.7-.9.9-.4.2-.8.3-1.3.3ZM94.9,562.4c.3,0,.6,0,.8-.2.2-.2.4-.4.5-.6.1-.3.2-.5.2-.8s0-.5-.2-.8c-.1-.3-.3-.5-.5-.6-.2-.2-.5-.2-.8-.2s-.6,0-.8.2c-.2.2-.4.4-.5.6-.1.3-.2.5-.2.8s0,.5.2.8c.1.3.3.5.5.6.2.2.5.2.8.2ZM98.1,562.4l.6-.6c.2.2.4.3.6.4.2.1.5.2.8.2s.6,0,.8-.1c.2,0,.3-.3.3-.5s0-.3-.1-.4c0,0-.2-.2-.4-.2-.2,0-.5-.2-.8-.2-.2,0-.5-.1-.7-.2-.2-.1-.4-.2-.6-.4-.1-.2-.2-.4-.2-.7s0-.6.3-.8c.2-.2.4-.4.7-.5.3-.1.6-.2.9-.2s.7,0,1,.2c.3.1.5.2.7.4l-.5.6c-.1-.1-.3-.2-.5-.3-.2,0-.4-.1-.7-.1s-.5,0-.7.1c-.2,0-.3.2-.3.5s.1.3.3.5c.2,0,.5.2.9.3.3,0,.6.2.8.3.2.1.4.3.6.4.1.2.2.4.2.7s0,.6-.3.8c-.2.2-.4.4-.7.5-.3.1-.6.2-1,.2-.9,0-1.5-.2-2-.7ZM103.5,561.5v-2.4h-.8v-.8h.8v-1.5h.9v1.5h1.4v.8h-1.4v2.3c0,.4,0,.6.2.8.1.1.3.2.5.2s.3,0,.4,0c.1,0,.2-.1.3-.2l.4.5c-.2.2-.4.3-.6.4-.2,0-.4.1-.7.1-.5,0-.8-.1-1.1-.4-.2-.3-.3-.7-.3-1.2ZM107.8,565h-.9v-6.3c0,0,0-.2,0-.3h.9v.7c0,0,.2-.2.3-.3.1-.1.3-.2.5-.3.2,0,.5-.1.8-.1.5,0,.9.1,1.2.3.3.2.5.5.7.9.2.4.2.8.2,1.2s0,.8-.2,1.1c-.1.3-.3.6-.6.8-.2.2-.5.3-.8.4-.3,0-.6.1-.8.1s-.6,0-.8-.1c-.2,0-.4-.1-.5-.2v2.2ZM107.8,560.8v1.2c.1,0,.3.2.5.2s.4.1.8.1.6,0,.8-.2c.2-.1.4-.3.5-.6.1-.3.2-.5.2-.8s0-.6-.1-.8c0-.3-.2-.5-.4-.6-.2-.2-.5-.2-.8-.2s-.6,0-.8.3c-.2.2-.4.4-.5.8,0,.1,0,.2,0,.3,0,.1,0,.2,0,.4ZM112.5,563v-6.7h.9v6.7h-.9ZM114.6,561.1v-2.8h.9v2.7c0,.4,0,.8.3,1,.2.2.4.3.8.3s.6,0,.8-.3c.2-.2.3-.4.4-.7,0-.3.1-.6.1-.9v-2.2h.9v4.4c0,0,0,.2,0,.3h-.9v-.7c-.1.1-.2.2-.3.3-.1.1-.3.2-.5.3-.2,0-.4.1-.7.1-.6,0-1.1-.2-1.3-.5-.3-.4-.4-.8-.4-1.4ZM119.8,562.4l.6-.6c.2.2.4.3.6.4.2.1.5.2.8.2s.6,0,.8-.1c.2,0,.3-.3.3-.5s0-.3-.1-.4c0,0-.2-.2-.4-.2-.2,0-.5-.2-.8-.2-.2,0-.5-.1-.7-.2-.2-.1-.4-.2-.6-.4-.1-.2-.2-.4-.2-.7s0-.6.3-.8c.2-.2.4-.4.7-.5.3-.1.6-.2.9-.2s.7,0,1,.2c.3.1.5.2.7.4l-.5.6c-.1-.1-.3-.2-.5-.3-.2,0-.5-.1-.7-.1s-.5,0-.7.1c-.2,0-.3.2-.3.5s.1.3.3.5c.2,0,.5.2.9.3.3,0,.6.2.8.3.2.1.4.3.6.4.1.2.2.4.2.7s0,.6-.3.8c-.2.2-.4.4-.7.5-.3.1-.6.2-.9.2-.9,0-1.5-.2-2-.7ZM124.6,563v-1.1h1.1v1.1h-1.1ZM129,563v-6.7h2.1c.5,0,.8,0,1.1.2.3.1.5.3.7.5.2.2.3.4.4.7,0,.2.1.5.1.7,0,.4,0,.8-.3,1.1-.2.3-.5.5-.8.7-.3.2-.7.2-1.2.2h-1.2v2.6h-.9ZM129.9,559.6h1.2c.4,0,.7-.1.9-.3.2-.2.3-.5.3-.9s-.1-.7-.3-.9c-.2-.2-.5-.3-.9-.3h-1.2v2.4ZM137,563v-.6c-.2.2-.4.4-.7.5-.3.1-.6.2-.9.2s-.5,0-.8-.1c-.2,0-.5-.2-.6-.5-.2-.2-.2-.5-.2-.9,0-.5.2-.9.5-1.2.4-.3.9-.4,1.5-.4s.3,0,.4,0c.2,0,.3,0,.4,0,.1,0,.2,0,.2,0v-.2c0-.3-.1-.6-.3-.7-.2-.2-.5-.2-.8-.2s-.6,0-.8.1c-.2,0-.4.2-.5.3l-.4-.6c.2-.1.4-.3.7-.4.3-.1.7-.2,1.2-.2s1.1.1,1.4.4c.3.3.5.7.5,1.2v2.9c0,0,0,.1,0,.2h-.8ZM137,561.3v-.5s-.1,0-.2,0c-.1,0-.3,0-.4,0-.1,0-.3,0-.4,0-.3,0-.6,0-.8.2-.2,0-.3.2-.4.4,0,.1,0,.3,0,.4,0,.2,0,.4.3.6.2.1.4.2.7.2s.4,0,.6-.1c.2-.1.4-.2.5-.4.1-.2.2-.3.2-.5ZM138.9,562.4l.6-.6c.2.2.4.3.6.4.2.1.5.2.8.2s.5,0,.8-.1c.2,0,.3-.3.3-.5s0-.3-.1-.4c0,0-.2-.2-.4-.2-.2,0-.5-.2-.8-.2-.2,0-.5-.1-.7-.2-.2-.1-.4-.2-.6-.4-.1-.2-.2-.4-.2-.7s0-.6.3-.8c.2-.2.4-.4.7-.5.3-.1.6-.2.9-.2s.7,0,1,.2c.3.1.5.2.7.4l-.5.6c-.1-.1-.3-.2-.5-.3-.2,0-.4-.1-.7-.1s-.5,0-.7.1c-.2,0-.3.2-.3.5s.1.3.4.5c.2,0,.5.2.9.3.3,0,.6.2.8.3.2.1.4.3.6.4.1.2.2.4.2.7s0,.6-.3.8c-.2.2-.4.4-.7.5-.3.1-.6.2-1,.2-.9,0-1.5-.2-2-.7ZM144.2,561.5v-2.4h-.8v-.8h.8v-1.5h.9v1.5h1.4v.8h-1.4v2.3c0,.4,0,.6.2.8.1.1.3.2.5.2s.3,0,.4,0c.1,0,.2-.1.3-.2l.4.5c-.2.2-.4.3-.6.4-.2,0-.4.1-.7.1-.5,0-.8-.1-1.1-.4-.2-.3-.3-.7-.3-1.2ZM20.9,574h-.9v-6.3c0,0,0-.2,0-.3h.9v.7c0,0,.2-.2.3-.3.1-.1.3-.2.5-.3.2,0,.5-.1.8-.1.5,0,.9.1,1.2.3.3.2.5.5.7.9.2.4.2.8.2,1.2s0,.8-.2,1.1c-.1.3-.3.6-.6.8-.2.2-.5.3-.8.4-.3,0-.6.1-.8.1s-.6,0-.8-.1c-.2,0-.4-.1-.5-.2v2.2ZM20.9,569.8v1.2c.1,0,.3.2.5.2s.5.1.8.1.6,0,.8-.2c.2-.1.4-.3.5-.6.1-.3.2-.5.2-.8s0-.6-.1-.8c0-.3-.2-.5-.4-.6-.2-.2-.5-.2-.8-.2s-.6,0-.8.3c-.2.2-.4.4-.5.8,0,.1,0,.2,0,.3,0,.1,0,.2,0,.4ZM29.3,570.8l.5.5c0,0-.2.2-.4.3-.2.1-.4.2-.7.3-.3.1-.6.2-1,.2s-.9-.1-1.3-.3c-.4-.2-.7-.5-.9-.9-.2-.4-.3-.8-.3-1.3s0-.9.3-1.2c.2-.4.5-.7.8-.9.4-.2.8-.3,1.2-.3s1,.1,1.3.4c.3.3.6.6.7,1,.2.4.2.9.2,1.3h-3.7c0,.3,0,.5.2.7.1.2.3.4.5.5.2.1.5.2.8.2.4,0,.7,0,1-.2.3-.1.4-.3.6-.4ZM26.3,569.3h2.7c0-.4-.2-.7-.4-.9-.2-.3-.5-.4-1-.4s-.5,0-.7.2c-.2.1-.4.3-.5.5-.1.2-.2.4-.2.6ZM31.9,572h-.9v-4.4c0,0,0-.2,0-.3h.9v.8c.1-.1.2-.2.3-.3.1-.1.3-.2.5-.3.2,0,.4-.1.7-.1s.2,0,.3,0c0,0,.2,0,.2,0l-.2.8c-.1,0-.3,0-.5,0s-.5,0-.7.2c-.2.1-.4.3-.5.5-.1.2-.2.4-.2.7v2.5ZM35,572v-3.9h-.8v-.8h.8v-.4c0-.4,0-.8.2-1,.2-.3.4-.5.6-.6.2-.1.5-.2.8-.2s.5,0,.7.1c.2,0,.5.2.7.4l-.5.6c-.2-.2-.5-.3-.8-.3s-.5,0-.6.2c-.2.2-.2.5-.2.9v.3h1.3v.8h-1.3v3.9h-.9ZM40,572.1c-.5,0-.9-.1-1.3-.3-.4-.2-.7-.5-.9-.9-.2-.4-.3-.8-.3-1.2s.1-.9.3-1.2c.2-.4.5-.7.9-.9.4-.2.8-.3,1.3-.3s.9.1,1.3.3c.4.2.7.5.9.9.2.4.3.8.3,1.2s-.1.9-.3,1.2c-.2.4-.5.7-.9.9-.4.2-.8.3-1.3.3ZM40,571.4c.3,0,.6,0,.8-.2.2-.2.4-.4.5-.6.1-.3.2-.5.2-.8s0-.5-.2-.8c-.1-.3-.3-.5-.5-.6-.2-.2-.5-.2-.8-.2s-.6,0-.8.2c-.2.2-.4.4-.5.6-.1.3-.2.5-.2.8s0,.5.2.8c.1.3.3.5.5.6.2.2.5.2.8.2ZM44.3,572h-.9v-4.4c0,0,0-.2,0-.3h.9v.8c.1-.1.2-.2.3-.3.1-.1.3-.2.5-.3.2,0,.4-.1.7-.1s.2,0,.3,0c0,0,.2,0,.2,0l-.2.8c-.1,0-.3,0-.5,0s-.5,0-.7.2c-.2.1-.4.3-.5.5-.1.2-.2.4-.2.7v2.5ZM48,572h-.9v-4.3c0,0,0-.2,0-.3h.9v.7c.1-.1.2-.2.3-.3.1-.1.3-.2.5-.3.2,0,.4-.1.7-.1s.7,0,.9.2c.2.1.4.3.6.6.2-.2.4-.4.7-.6.3-.2.6-.3,1-.3.6,0,1,.2,1.3.5.3.4.4.8.4,1.4v2.8h-.9v-2.7c0-.8-.3-1.3-1-1.3s-.5,0-.7.2c-.2.1-.3.3-.5.5-.1.2-.2.4-.2.7v2.6h-.9v-2.7c0-.4,0-.8-.3-1-.2-.2-.4-.3-.7-.3s-.6,0-.8.3c-.2.2-.3.4-.4.7,0,.3-.1.6-.1.9v2.2ZM58.5,572v-.6c-.2.2-.4.4-.7.5-.3.1-.6.2-.9.2s-.5,0-.8-.1c-.2,0-.5-.2-.6-.5-.2-.2-.2-.5-.2-.9,0-.5.2-.9.5-1.2.4-.3.9-.4,1.5-.4s.3,0,.5,0c.2,0,.3,0,.4,0,.1,0,.2,0,.2,0v-.2c0-.3-.1-.6-.3-.7-.2-.2-.5-.2-.8-.2s-.6,0-.8.1c-.2,0-.4.2-.5.3l-.4-.6c.2-.1.4-.3.7-.4.3-.1.7-.2,1.2-.2s1.1.1,1.4.4c.3.3.5.7.5,1.2v2.9c0,0,0,.1,0,.2h-.8ZM58.5,570.3v-.5s-.1,0-.2,0c-.1,0-.3,0-.4,0-.1,0-.3,0-.4,0-.3,0-.6,0-.8.2-.2,0-.3.2-.4.4,0,.1,0,.3,0,.4,0,.2,0,.4.3.6.2.1.4.2.7.2s.4,0,.6-.1c.2-.1.4-.2.5-.4.1-.2.2-.3.2-.5ZM61.5,572h-.9v-4.3c0,0,0-.2,0-.3h.9v.7c.1-.1.2-.2.3-.3.1-.1.3-.2.5-.3.2,0,.5-.1.7-.1.6,0,1.1.2,1.3.5.3.4.4.8.4,1.4v2.8h-.9v-2.7c0-.4,0-.8-.3-1-.2-.2-.4-.3-.8-.3s-.6,0-.8.3c-.2.2-.3.4-.4.7,0,.3-.1.6-.1.9v2.2ZM69.5,570.8l.5.6c-.2.2-.5.4-.8.6-.3.1-.7.2-1.1.2s-.9-.1-1.3-.3c-.4-.2-.6-.5-.8-.9-.2-.4-.3-.8-.3-1.3s.1-.9.3-1.2c.2-.4.5-.7.9-.9.4-.2.8-.3,1.3-.3s.7,0,1,.2c.3.1.6.3.8.6l-.6.6c-.1-.2-.3-.3-.5-.4-.2-.1-.4-.2-.7-.2s-.6,0-.8.2c-.2.2-.4.4-.5.6-.1.3-.2.5-.2.8s0,.6.2.8c.1.3.3.5.5.6.2.2.5.2.8.2s.5,0,.7-.1c.2-.1.4-.2.5-.4ZM74.4,570.8l.5.5c0,0-.2.2-.4.3-.2.1-.4.2-.7.3-.3.1-.6.2-1,.2s-.9-.1-1.3-.3c-.4-.2-.7-.5-.9-.9-.2-.4-.3-.8-.3-1.3s0-.9.3-1.2c.2-.4.5-.7.8-.9.4-.2.8-.3,1.2-.3s1,.1,1.3.4c.3.3.6.6.7,1,.2.4.2.9.2,1.3h-3.7c0,.3,0,.5.2.7.1.2.3.4.6.5.2.1.5.2.8.2.4,0,.7,0,1-.2.3-.1.4-.3.5-.4ZM71.3,569.3h2.7c0-.4-.2-.7-.4-.9-.2-.3-.5-.4-1-.4s-.5,0-.7.2c-.2.1-.4.3-.5.5-.1.2-.2.4-.2.6ZM77.8,566.5v-1h1v1h-1ZM77.9,572v-4.7h.9v4.7h-.9ZM79.8,571.4l.6-.6c.2.2.4.3.6.4.2.1.5.2.8.2s.6,0,.8-.1c.2,0,.3-.3.3-.5s0-.3-.1-.4c0,0-.2-.2-.4-.2-.2,0-.5-.2-.8-.2-.2,0-.5-.1-.7-.2-.2-.1-.4-.2-.6-.4-.1-.2-.2-.4-.2-.7s0-.6.3-.8c.2-.2.4-.4.7-.5.3-.1.6-.2.9-.2s.7,0,1,.2c.3.1.5.2.7.4l-.5.6c-.1-.1-.3-.2-.5-.3-.2,0-.4-.1-.7-.1s-.5,0-.7.1c-.2,0-.3.2-.3.5s.1.3.4.5c.2,0,.5.2.9.3.3,0,.6.2.8.3.2.1.4.3.6.4.1.2.2.4.2.7s0,.6-.3.8c-.2.2-.4.4-.7.5-.3.1-.6.2-.9.2-.9,0-1.5-.2-2-.7ZM87.5,572h-.9v-4.3c0,0,0-.2,0-.3h.9v.7c.1-.1.2-.2.4-.3.1-.1.3-.2.5-.3.2,0,.5-.1.7-.1.6,0,1.1.2,1.3.5.3.4.4.8.4,1.4v2.8h-.9v-2.7c0-.4,0-.8-.3-1-.2-.2-.4-.3-.8-.3s-.6,0-.8.3c-.2.2-.3.4-.4.7,0,.3-.1.6-.1.9v2.2ZM94.2,572.1c-.5,0-.9-.1-1.3-.3-.4-.2-.7-.5-.9-.9-.2-.4-.3-.8-.3-1.2s.1-.9.3-1.2c.2-.4.5-.7.9-.9.4-.2.8-.3,1.3-.3s.9.1,1.3.3c.4.2.7.5.9.9.2.4.3.8.3,1.2s-.1.9-.3,1.2c-.2.4-.5.7-.9.9-.4.2-.8.3-1.3.3ZM94.2,571.4c.3,0,.6,0,.8-.2.2-.2.4-.4.5-.6.1-.3.2-.5.2-.8s0-.5-.2-.8c-.1-.3-.3-.5-.5-.6-.2-.2-.5-.2-.8-.2s-.6,0-.8.2c-.2.2-.4.4-.5.6-.1.3-.2.5-.2.8s0,.5.2.8c.1.3.3.5.5.6.2.2.5.2.8.2ZM98.1,570.5v-2.4h-.8v-.8h.8v-1.5h.9v1.5h1.4v.8h-1.4v2.3c0,.4,0,.6.2.8.1.1.3.2.5.2s.3,0,.4,0c.1,0,.2-.1.3-.2l.4.5c-.2.2-.4.3-.6.4-.2,0-.4.1-.7.1-.5,0-.8-.1-1.1-.4-.2-.3-.3-.7-.3-1.2ZM106.3,572v-.6c-.2.2-.4.4-.7.5-.3.1-.6.2-.9.2s-.5,0-.8-.1c-.2,0-.5-.2-.6-.5-.2-.2-.2-.5-.2-.9,0-.5.2-.9.5-1.2.4-.3.9-.4,1.5-.4s.3,0,.5,0c.2,0,.3,0,.4,0,.1,0,.2,0,.2,0v-.2c0-.3-.1-.6-.3-.7-.2-.2-.5-.2-.9-.2s-.6,0-.8.1c-.2,0-.4.2-.5.3l-.4-.6c.2-.1.4-.3.7-.4.3-.1.7-.2,1.2-.2s1.1.1,1.4.4c.3.3.5.7.5,1.2v2.9c0,0,0,.1,0,.2h-.8ZM106.3,570.3v-.5s-.1,0-.2,0c-.1,0-.3,0-.4,0-.1,0-.3,0-.4,0-.3,0-.6,0-.8.2-.2,0-.3.2-.4.4,0,.1,0,.3,0,.4,0,.2,0,.4.3.6.2.1.4.2.7.2s.4,0,.6-.1c.2-.1.4-.2.5-.4.1-.2.2-.3.2-.5ZM111.1,572h-.9v-4.4c0,0,0-.2,0-.3h.9v.8c.1-.1.2-.2.3-.3.1-.1.3-.2.5-.3.2,0,.4-.1.7-.1s.2,0,.3,0c0,0,.2,0,.2,0l-.2.8c-.1,0-.3,0-.5,0s-.5,0-.7.2c-.2.1-.4.3-.5.5-.1.2-.2.4-.2.7v2.5ZM117.3,570.8l.5.5c0,0-.2.2-.4.3-.2.1-.4.2-.7.3-.3.1-.6.2-1,.2s-.9-.1-1.3-.3c-.4-.2-.7-.5-.9-.9-.2-.4-.3-.8-.3-1.3s0-.9.3-1.2c.2-.4.5-.7.8-.9.4-.2.8-.3,1.2-.3s1,.1,1.3.4c.3.3.6.6.7,1,.2.4.2.9.2,1.3h-3.7c0,.3,0,.5.2.7.1.2.3.4.5.5.2.1.5.2.8.2.4,0,.7,0,1-.2.3-.1.4-.3.6-.4ZM114.2,569.3h2.7c0-.4-.2-.7-.4-.9-.2-.3-.5-.4-1-.4s-.5,0-.7.2c-.2.1-.4.3-.5.5-.1.2-.2.4-.2.6ZM118.9,572v-6.7h.9v6.7h-.9ZM121,566.5v-1h1v1h-1ZM121.1,572v-4.7h.9v4.7h-.9ZM126.2,572v-.6c-.2.2-.4.4-.7.5-.3.1-.6.2-.9.2s-.5,0-.8-.1c-.2,0-.5-.2-.6-.5-.2-.2-.2-.5-.2-.9,0-.5.2-.9.5-1.2.4-.3.9-.4,1.5-.4s.3,0,.4,0c.2,0,.3,0,.4,0,.1,0,.2,0,.2,0v-.2c0-.3-.1-.6-.3-.7-.2-.2-.5-.2-.8-.2s-.6,0-.8.1c-.2,0-.4.2-.5.3l-.4-.6c.2-.1.4-.3.7-.4.3-.1.7-.2,1.2-.2s1.1.1,1.4.4c.3.3.5.7.5,1.2v2.9c0,0,0,.1,0,.2h-.8ZM126.2,570.3v-.5s-.1,0-.2,0c-.1,0-.3,0-.4,0-.1,0-.3,0-.4,0-.3,0-.6,0-.8.2-.2,0-.3.2-.4.4,0,.1,0,.3,0,.4,0,.2,0,.4.3.6.2.1.4.2.7.2s.4,0,.6-.1c.2-.1.4-.2.5-.4.1-.2.2-.3.2-.5ZM128.2,571.8v-6.5h.9v2.5c0-.1.3-.3.5-.4.2-.1.6-.2.9-.2s.8.1,1.2.3c.3.2.6.5.7.9.2.4.2.8.2,1.2s-.1.9-.3,1.3c-.2.4-.5.7-.9.9-.4.2-.8.3-1.4.3s-.7,0-1.1,0-.6-.1-.8-.2ZM129.1,569.4v1.8c0,0,.2,0,.3,0,.1,0,.3,0,.6,0,.5,0,.9-.2,1.2-.5.3-.3.5-.7.5-1.2s0-.6-.1-.8c0-.2-.2-.4-.4-.6-.2-.2-.4-.2-.8-.2s-.5,0-.7.2c-.2.1-.3.3-.4.5,0,.2-.1.4-.1.7ZM133.7,572v-6.7h.9v6.7h-.9ZM139.6,570.8l.5.5c0,0-.2.2-.4.3-.2.1-.4.2-.7.3-.3.1-.6.2-1,.2s-.9-.1-1.3-.3c-.4-.2-.7-.5-.9-.9-.2-.4-.3-.8-.3-1.3s0-.9.3-1.2c.2-.4.5-.7.8-.9.4-.2.8-.3,1.2-.3s1,.1,1.3.4c.3.3.6.6.7,1,.2.4.2.9.2,1.3h-3.7c0,.3,0,.5.2.7.1.2.3.4.5.5.2.1.5.2.8.2.4,0,.7,0,1-.2.3-.1.4-.3.6-.4ZM136.5,569.3h2.7c0-.4-.2-.7-.4-.9-.2-.3-.5-.4-1-.4s-.5,0-.7.2c-.2.1-.4.3-.5.5-.1.2-.2.4-.2.6ZM11.7,575.5v-1h1v1h-1ZM11.8,581v-4.7h.9v4.7h-.9ZM14.8,581h-.9v-4.3c0,0,0-.2,0-.3h.9v.7c.1-.1.2-.2.3-.3.1-.1.3-.2.5-.3.2,0,.5-.1.7-.1.6,0,1.1.2,1.4.5.3.4.4.8.4,1.4v2.8h-.9v-2.7c0-.4,0-.8-.3-1-.2-.2-.4-.3-.8-.3s-.6,0-.8.3c-.2.2-.3.4-.4.7,0,.3-.1.6-.1.9v2.2ZM22.8,581v-.6c0,0-.2.1-.3.3-.1.1-.3.2-.5.3-.2,0-.5.1-.8.1s-.7,0-1.1-.3c-.3-.2-.6-.5-.7-.8s-.3-.8-.3-1.3,0-.8.2-1.1c.2-.3.3-.6.6-.8.2-.2.5-.3.8-.4.3-.1.5-.2.8-.2s.5,0,.6,0c.2,0,.4.1.6.2v-2.2h.9v6.4c0,0,0,.2,0,.3h-.9ZM22.7,579v-1.7c-.1,0-.3-.2-.5-.2-.2,0-.4,0-.7,0-.4,0-.8.2-1.1.5-.3.3-.4.7-.4,1.3s0,.6.1.8c0,.2.2.4.4.6.2.1.5.2.8.2s.6,0,.8-.2c.2-.1.3-.3.4-.5,0-.2.1-.4.1-.6ZM24.9,575.5v-1h1v1h-1ZM24.9,581v-4.7h.9v4.7h-.9ZM30.6,579.8l.5.6c-.2.2-.5.4-.8.6-.3.1-.7.2-1,.2s-.9-.1-1.3-.3c-.4-.2-.6-.5-.8-.9-.2-.4-.3-.8-.3-1.3s.1-.9.3-1.2c.2-.4.5-.7.9-.9.4-.2.8-.3,1.3-.3s.7,0,1,.2c.3.1.6.3.8.6l-.6.6c-.1-.2-.3-.3-.5-.4-.2-.1-.4-.2-.7-.2s-.6,0-.8.2c-.2.2-.4.4-.5.6-.1.3-.2.5-.2.8s0,.6.2.8c.1.3.3.5.5.6.2.2.5.2.8.2s.5,0,.7-.1c.2-.1.4-.2.5-.4ZM35,581v-.6c-.2.2-.4.4-.7.5-.3.1-.6.2-.9.2s-.5,0-.8-.1c-.2,0-.5-.2-.6-.5-.2-.2-.2-.5-.2-.9,0-.5.2-.9.5-1.2.4-.3.9-.4,1.5-.4s.3,0,.5,0c.2,0,.3,0,.4,0,.1,0,.2,0,.2,0v-.2c0-.3-.1-.6-.3-.7-.2-.2-.5-.2-.8-.2s-.6,0-.8.1c-.2,0-.4.2-.5.3l-.4-.6c.2-.1.4-.3.7-.4.3-.1.7-.2,1.2-.2s1.1.1,1.4.4c.3.3.5.7.5,1.2v2.9c0,0,0,.1,0,.2h-.8ZM34.9,579.3v-.5s-.1,0-.2,0c-.1,0-.3,0-.4,0-.1,0-.3,0-.4,0-.3,0-.6,0-.8.2-.2,0-.3.2-.4.4,0,.1,0,.3,0,.4,0,.2,0,.4.3.6.2.1.4.2.7.2s.4,0,.6-.1c.2-.1.4-.2.5-.4.1-.2.2-.3.2-.5ZM37.4,579.5v-2.4h-.8v-.8h.8v-1.5h.9v1.5h1.4v.8h-1.4v2.3c0,.4,0,.6.2.8.1.1.3.2.5.2s.3,0,.4,0c.1,0,.2-.1.3-.2l.4.5c-.2.2-.4.3-.6.4-.2,0-.4.1-.7.1-.5,0-.8-.1-1.1-.4-.2-.3-.4-.7-.4-1.2ZM42.8,581.1c-.5,0-.9-.1-1.3-.3-.4-.2-.7-.5-.9-.9-.2-.4-.3-.8-.3-1.2s.1-.9.3-1.2c.2-.4.5-.7.9-.9.4-.2.8-.3,1.3-.3s.9.1,1.3.3c.4.2.7.5.9.9.2.4.3.8.3,1.2s-.1.9-.3,1.2c-.2.4-.5.7-.9.9-.4.2-.8.3-1.3.3ZM42.8,580.4c.3,0,.6,0,.8-.2.2-.2.4-.4.5-.6.1-.3.2-.5.2-.8s0-.5-.2-.8c-.1-.3-.3-.5-.5-.6-.2-.2-.5-.2-.8-.2s-.6,0-.8.2c-.2.2-.4.4-.5.6-.1.3-.2.5-.2.8s0,.5.2.8c.1.3.3.5.5.6.2.2.5.2.8.2ZM47.2,581h-.9v-4.4c0,0,0-.2,0-.3h.9v.8c.1-.1.2-.2.3-.3.1-.1.3-.2.5-.3.2,0,.4-.1.7-.1s.2,0,.3,0c0,0,.2,0,.2,0l-.2.8c-.1,0-.3,0-.5,0s-.5,0-.7.2c-.2.1-.4.3-.5.5-.1.2-.2.4-.2.7v2.5ZM54,581.1c-.5,0-.9-.1-1.3-.3-.4-.2-.7-.5-.9-.9-.2-.4-.3-.8-.3-1.2s.1-.9.3-1.2c.2-.4.5-.7.9-.9.4-.2.8-.3,1.3-.3s.9.1,1.3.3c.4.2.7.5.9.9.2.4.3.8.3,1.2s-.1.9-.3,1.2c-.2.4-.5.7-.9.9-.4.2-.8.3-1.3.3ZM54,580.4c.3,0,.6,0,.8-.2.2-.2.4-.4.5-.6.1-.3.2-.5.2-.8s0-.5-.2-.8c-.1-.3-.3-.5-.5-.6-.2-.2-.5-.2-.8-.2s-.6,0-.8.2c-.2.2-.4.4-.5.6-.1.3-.2.5-.2.8s0,.5.2.8c.1.3.3.5.5.6.2.2.5.2.8.2ZM57.8,581v-3.9h-.8v-.8h.8v-.4c0-.4,0-.8.2-1,.2-.3.4-.5.6-.6.2-.1.5-.2.8-.2s.5,0,.7.1c.2,0,.5.2.7.4l-.5.6c-.2-.2-.5-.3-.8-.3s-.5,0-.6.2c-.2.2-.2.5-.2.9v.3h1.3v.8h-1.3v3.9h-.9ZM62.9,581v-3.9h-.8v-.8h.8v-.4c0-.4,0-.8.2-1,.2-.3.4-.5.6-.6.2-.1.5-.2.8-.2s.5,0,.7.1c.2,0,.5.2.7.4l-.4.6c-.2-.2-.5-.3-.8-.3s-.5,0-.6.2c-.2.2-.2.5-.2.9v.3h1.3v.8h-1.3v3.9h-.9ZM65.8,579.1v-2.8h.9v2.7c0,.4,0,.8.3,1,.2.2.4.3.8.3s.6,0,.8-.3.3-.4.4-.7c0-.3.1-.6.1-.9v-2.2h.9v4.4c0,0,0,.2,0,.3h-.9v-.7c-.1.1-.2.2-.3.3-.1.1-.3.2-.5.3-.2,0-.4.1-.7.1-.6,0-1.1-.2-1.3-.5-.3-.4-.4-.8-.4-1.4ZM71.7,579.5v-2.4h-.8v-.8h.8v-1.5h.9v1.5h1.4v.8h-1.4v2.3c0,.4,0,.6.2.8.1.1.3.2.5.2s.3,0,.4,0c.1,0,.2-.1.3-.2l.4.5c-.2.2-.4.3-.6.4-.2,0-.4.1-.7.1-.5,0-.8-.1-1.1-.4-.2-.3-.3-.7-.3-1.2ZM75,579.1v-2.8h.9v2.7c0,.4,0,.8.3,1,.2.2.4.3.8.3s.6,0,.8-.3c.2-.2.3-.4.4-.7,0-.3.1-.6.1-.9v-2.2h.9v4.4c0,0,0,.2,0,.3h-.9v-.7c-.1.1-.2.2-.3.3-.1.1-.3.2-.5.3-.2,0-.4.1-.7.1-.6,0-1.1-.2-1.3-.5-.3-.4-.4-.8-.4-1.4ZM81.3,581h-.9v-4.4c0,0,0-.2,0-.3h.9v.8c.1-.1.2-.2.3-.3.1-.1.3-.2.5-.3.2,0,.4-.1.7-.1s.2,0,.3,0c0,0,.2,0,.2,0l-.2.8c-.1,0-.3,0-.5,0s-.5,0-.7.2c-.2.1-.4.3-.5.5-.1.2-.2.4-.2.7v2.5ZM87.5,579.8l.5.5c0,0-.2.2-.4.3-.2.1-.4.2-.7.3-.3.1-.6.2-1,.2s-.9-.1-1.3-.3c-.4-.2-.7-.5-.9-.9-.2-.4-.3-.8-.3-1.3s0-.9.3-1.2c.2-.4.5-.7.8-.9.4-.2.8-.3,1.2-.3s1,.1,1.3.4c.3.3.6.6.7,1,.2.4.2.9.2,1.3h-3.7c0,.3,0,.5.2.7.1.2.3.4.5.5.2.1.5.2.8.2.4,0,.7,0,1-.2.3-.1.4-.3.6-.4ZM84.5,578.3h2.7c0-.4-.2-.7-.4-.9-.2-.3-.5-.4-1-.4s-.5,0-.7.2c-.2.1-.4.3-.5.5-.1.2-.2.4-.2.6ZM91.9,583h-.9v-6.3c0,0,0-.2,0-.3h.9v.7c0,0,.2-.2.3-.3.1-.1.3-.2.5-.3.2,0,.5-.1.8-.1.5,0,.9.1,1.2.3.3.2.5.5.7.9.2.4.2.8.2,1.2s0,.8-.2,1.1c-.1.3-.3.6-.6.8-.2.2-.5.3-.8.4-.3,0-.6.1-.8.1s-.6,0-.8-.1c-.2,0-.4-.1-.5-.2v2.2ZM91.9,578.8v1.2c.1,0,.3.2.5.2.2,0,.5.1.8.1s.6,0,.8-.2c.2-.1.4-.3.5-.6.1-.3.2-.5.2-.8s0-.6-.1-.8c0-.3-.2-.5-.4-.6-.2-.2-.5-.2-.8-.2s-.6,0-.8.3c-.2.2-.4.4-.5.8,0,.1,0,.2,0,.3,0,.1,0,.2,0,.4ZM100.3,579.8l.5.5c0,0-.2.2-.4.3-.2.1-.4.2-.7.3-.3.1-.6.2-1,.2s-.9-.1-1.3-.3c-.4-.2-.7-.5-.9-.9-.2-.4-.3-.8-.3-1.3s0-.9.3-1.2c.2-.4.5-.7.8-.9.4-.2.8-.3,1.2-.3s1,.1,1.3.4c.3.3.6.6.7,1,.2.4.2.9.2,1.3h-3.7c0,.3,0,.5.2.7.1.2.3.4.6.5.2.1.5.2.8.2.4,0,.7,0,1-.2.3-.1.4-.3.5-.4ZM97.3,578.3h2.7c0-.4-.2-.7-.4-.9-.2-.3-.5-.4-1-.4s-.5,0-.7.2c-.2.1-.4.3-.5.5-.1.2-.2.4-.2.6ZM102.8,581h-.9v-4.4c0,0,0-.2,0-.3h.9v.8c.1-.1.2-.2.3-.3.1-.1.3-.2.5-.3.2,0,.4-.1.7-.1s.2,0,.3,0c0,0,.2,0,.2,0l-.2.8c-.1,0-.3,0-.5,0s-.5,0-.7.2c-.2.1-.4.3-.5.5-.1.2-.2.4-.2.7v2.5ZM105.9,581v-3.9h-.8v-.8h.8v-.4c0-.4,0-.8.2-1,.2-.3.4-.5.6-.6.2-.1.5-.2.8-.2s.5,0,.7.1c.2,0,.5.2.7.4l-.4.6c-.2-.2-.5-.3-.8-.3s-.5,0-.6.2c-.2.2-.2.5-.2.9v.3h1.3v.8h-1.3v3.9h-.9ZM110.9,581.1c-.5,0-.9-.1-1.3-.3-.4-.2-.7-.5-.9-.9-.2-.4-.3-.8-.3-1.2s.1-.9.3-1.2c.2-.4.5-.7.9-.9.4-.2.8-.3,1.3-.3s.9.1,1.3.3c.4.2.7.5.9.9.2.4.3.8.3,1.2s-.1.9-.3,1.2c-.2.4-.5.7-.9.9-.4.2-.8.3-1.3.3ZM110.9,580.4c.3,0,.6,0,.8-.2.2-.2.4-.4.5-.6.1-.3.2-.5.2-.8s0-.5-.2-.8c-.1-.3-.3-.5-.5-.6-.2-.2-.5-.2-.8-.2s-.6,0-.8.2c-.2.2-.4.4-.5.6-.1.3-.2.5-.2.8s0,.5.2.8c.1.3.3.5.5.6.2.2.5.2.8.2ZM115.3,581h-.9v-4.4c0,0,0-.2,0-.3h.9v.8c.1-.1.2-.2.3-.3.1-.1.3-.2.5-.3.2,0,.4-.1.7-.1s.2,0,.3,0c0,0,.2,0,.2,0l-.2.8c-.1,0-.3,0-.5,0s-.5,0-.7.2c-.2.1-.4.3-.5.5-.1.2-.2.4-.2.7v2.5ZM118.9,581h-.9v-4.3c0,0,0-.2,0-.3h.9v.7c.1-.1.2-.2.3-.3.1-.1.3-.2.5-.3.2,0,.4-.1.7-.1s.7,0,.9.2c.2.1.4.3.6.6.2-.2.4-.4.7-.6.3-.2.6-.3,1-.3.6,0,1,.2,1.3.5.3.4.4.8.4,1.4v2.8h-.9v-2.7c0-.8-.3-1.3-1-1.3s-.5,0-.7.2c-.2.1-.3.3-.5.5-.1.2-.2.4-.2.7v2.6h-.9v-2.7c0-.4,0-.8-.3-1-.2-.2-.4-.3-.7-.3s-.6,0-.8.3-.3.4-.4.7c0,.3-.1.6-.1.9v2.2ZM129.5,581v-.6c-.2.2-.4.4-.7.5-.3.1-.6.2-.9.2s-.5,0-.8-.1c-.2,0-.5-.2-.6-.5-.2-.2-.2-.5-.2-.9,0-.5.2-.9.5-1.2.4-.3.9-.4,1.5-.4s.3,0,.5,0c.2,0,.3,0,.4,0,.1,0,.2,0,.2,0v-.2c0-.3-.1-.6-.3-.7-.2-.2-.5-.2-.9-.2s-.6,0-.8.1c-.2,0-.4.2-.5.3l-.4-.6c.2-.1.4-.3.7-.4.3-.1.7-.2,1.2-.2s1.1.1,1.4.4c.3.3.5.7.5,1.2v2.9c0,0,0,.1,0,.2h-.8ZM129.4,579.3v-.5s-.1,0-.2,0c-.1,0-.3,0-.4,0-.1,0-.3,0-.4,0-.3,0-.6,0-.8.2-.2,0-.3.2-.4.4,0,.1,0,.3,0,.4,0,.2,0,.4.3.6.2.1.4.2.7.2s.4,0,.6-.1c.2-.1.4-.2.5-.4.1-.2.2-.3.2-.5ZM132.4,581h-.9v-4.3c0,0,0-.2,0-.3h.9v.7c.1-.1.2-.2.4-.3.1-.1.3-.2.5-.3.2,0,.5-.1.7-.1.6,0,1.1.2,1.4.5.3.4.4.8.4,1.4v2.8h-.9v-2.7c0-.4,0-.8-.3-1-.2-.2-.4-.3-.8-.3s-.6,0-.8.3c-.2.2-.3.4-.4.7,0,.3-.1.6-.1.9v2.2ZM140.5,579.8l.6.6c-.2.2-.5.4-.8.6-.3.1-.7.2-1.1.2s-.9-.1-1.3-.3c-.4-.2-.6-.5-.8-.9-.2-.4-.3-.8-.3-1.3s.1-.9.3-1.2c.2-.4.5-.7.9-.9.4-.2.8-.3,1.3-.3s.7,0,1,.2c.3.1.6.3.8.6l-.6.6c-.1-.2-.3-.3-.5-.4-.2-.1-.4-.2-.7-.2s-.6,0-.8.2c-.2.2-.4.4-.5.6-.1.3-.2.5-.2.8s0,.6.2.8c.1.3.3.5.5.6.2.2.5.2.8.2s.5,0,.7-.1c.2-.1.4-.2.5-.4ZM145.3,579.8l.5.5c0,0-.2.2-.4.3-.2.1-.4.2-.7.3-.3.1-.6.2-1,.2s-.9-.1-1.3-.3c-.4-.2-.7-.5-.9-.9-.2-.4-.3-.8-.3-1.3s0-.9.3-1.2c.2-.4.5-.7.8-.9.4-.2.8-.3,1.2-.3s1,.1,1.3.4c.3.3.6.6.7,1,.2.4.2.9.2,1.3h-3.7c0,.3,0,.5.2.7.1.2.3.4.6.5.2.1.5.2.8.2.4,0,.7,0,1-.2.3-.1.4-.3.6-.4ZM142.3,578.3h2.7c0-.4-.2-.7-.4-.9-.2-.3-.5-.4-1-.4s-.5,0-.7.2c-.2.1-.4.3-.5.5-.1.2-.2.4-.2.6ZM147.1,581v-1.1h1.1v1.1h-1.1ZM11.5,590v-6.7h1v6.7h-1ZM13.6,589.4l.6-.6c.2.2.4.3.6.4.2.1.5.2.8.2s.5,0,.8-.1c.2,0,.3-.3.3-.5s0-.3-.1-.4c0,0-.2-.2-.4-.2-.2,0-.5-.2-.8-.2-.2,0-.5-.1-.7-.2-.2-.1-.4-.2-.6-.4-.1-.2-.2-.4-.2-.7s0-.6.3-.8c.2-.2.4-.4.7-.5.3-.1.6-.2.9-.2s.7,0,1,.2c.3.1.5.2.7.4l-.5.6c-.1-.1-.3-.2-.5-.3-.2,0-.4-.1-.7-.1s-.5,0-.7.1c-.2,0-.3.2-.3.5s.1.3.3.5c.2,0,.5.2.9.3.3,0,.6.2.8.3.2.1.4.3.6.4.1.2.2.4.2.7s0,.6-.3.8c-.2.2-.4.4-.7.5-.3.1-.6.2-.9.2-.9,0-1.5-.2-2-.7ZM18.3,589.4l.6-.6c.2.2.4.3.6.4.2.1.5.2.8.2s.5,0,.8-.1c.2,0,.3-.3.3-.5s0-.3-.1-.4c0,0-.2-.2-.4-.2-.2,0-.5-.2-.8-.2-.2,0-.5-.1-.7-.2-.2-.1-.4-.2-.6-.4-.1-.2-.2-.4-.2-.7s0-.6.3-.8c.2-.2.4-.4.7-.5.3-.1.6-.2.9-.2s.7,0,1,.2c.3.1.5.2.7.4l-.5.6c-.1-.1-.3-.2-.5-.3-.2,0-.5-.1-.7-.1s-.5,0-.7.1c-.2,0-.3.2-.3.5s.1.3.4.5c.2,0,.5.2.9.3.3,0,.6.2.8.3.2.1.4.3.6.4.1.2.2.4.2.7s0,.6-.3.8c-.2.2-.4.4-.7.5-.3.1-.6.2-1,.2-.9,0-1.5-.2-2-.7ZM23.2,588.1v-2.8h.9v2.7c0,.4,0,.8.3,1,.2.2.4.3.8.3s.6,0,.8-.3c.2-.2.3-.4.4-.7,0-.3.1-.6.1-.9v-2.2h.9v4.4c0,0,0,.2,0,.3h-.9v-.7c-.1.1-.2.2-.3.3-.1.1-.3.2-.5.3-.2,0-.4.1-.7.1-.6,0-1.1-.2-1.3-.5-.3-.4-.4-.8-.4-1.4ZM32.4,588.8l.5.5c0,0-.2.2-.4.3-.2.1-.4.2-.7.3-.3.1-.6.2-1,.2s-.9-.1-1.3-.3c-.4-.2-.7-.5-.9-.9-.2-.4-.3-.8-.3-1.3s0-.9.3-1.2c.2-.4.5-.7.8-.9.4-.2.8-.3,1.2-.3s1,.1,1.3.4c.3.3.6.6.7,1,.2.4.2.9.2,1.3h-3.7c0,.3,0,.5.2.7.1.2.3.4.6.5.2.1.5.2.8.2.4,0,.7,0,1-.2.3-.1.4-.3.5-.4ZM29.4,587.3h2.7c0-.4-.2-.7-.4-.9-.2-.3-.5-.4-1-.4s-.5,0-.7.2c-.2.1-.4.3-.5.5-.1.2-.2.4-.2.6ZM37.4,590v-.6c0,0-.2.1-.3.3-.1.1-.3.2-.5.3-.2,0-.5.1-.8.1s-.7,0-1.1-.3c-.3-.2-.6-.5-.7-.8-.2-.4-.3-.8-.3-1.3s0-.8.2-1.1c.2-.3.4-.6.6-.8.2-.2.5-.3.8-.4.3-.1.5-.2.8-.2s.5,0,.7,0c.2,0,.4.1.6.2v-2.2h.9v6.4c0,0,0,.2,0,.3h-.9ZM37.4,588v-1.7c-.1,0-.3-.2-.5-.2-.2,0-.4,0-.7,0-.4,0-.8.2-1.1.5-.3.3-.4.7-.4,1.3s0,.6.1.8c.1.2.2.4.5.6.2.1.5.2.8.2s.6,0,.8-.2c.2-.1.3-.3.4-.5,0-.2.1-.4.1-.6ZM41.4,589.8v-6.5h.9v2.5c0-.1.3-.3.5-.4.2-.1.6-.2.9-.2s.8.1,1.2.3c.3.2.6.5.7.9.2.4.2.8.2,1.2s-.1.9-.3,1.3c-.2.4-.5.7-.9.9-.4.2-.8.3-1.4.3s-.7,0-1.1,0c-.3,0-.6-.1-.8-.2ZM42.2,587.4v1.8c0,0,.2,0,.3,0,.1,0,.3,0,.6,0,.5,0,.9-.2,1.2-.5.3-.3.5-.7.5-1.2s0-.6-.1-.8c0-.2-.2-.4-.4-.6-.2-.2-.5-.2-.8-.2s-.5,0-.7.2c-.2.1-.3.3-.4.5,0,.2-.1.4-.1.7ZM46.2,591.8l.4-.6c0,0,.1.1.2.2,0,0,.2,0,.3,0,.2,0,.4,0,.5-.3.1-.2.2-.5.4-.8v-.3c.1,0-2-4.6-2-4.6h1l1.5,3.5,1.3-3.5h1l-1.9,4.5c0,.2-.2.4-.3.7,0,.3-.2.5-.3.7-.1.2-.3.4-.5.6-.2.2-.4.2-.7.2s-.4,0-.6,0c-.2,0-.3-.1-.4-.2ZM53.5,590v-6.7h1v2.8h3.7v-2.8h1v6.7h-1v-3h-3.7v3h-1ZM62.7,590.1c-.5,0-.9-.1-1.3-.3-.4-.2-.7-.5-.9-.9-.2-.4-.3-.8-.3-1.2s.1-.9.3-1.2c.2-.4.5-.7.9-.9.4-.2.8-.3,1.3-.3s.9.1,1.3.3c.4.2.7.5.9.9.2.4.3.8.3,1.2s-.1.9-.3,1.2c-.2.4-.5.7-.9.9-.4.2-.8.3-1.3.3ZM62.7,589.4c.3,0,.6,0,.8-.2.2-.2.4-.4.5-.6.1-.3.2-.5.2-.8s0-.5-.2-.8c-.1-.3-.3-.5-.5-.6-.2-.2-.5-.2-.8-.2s-.6,0-.8.2c-.2.2-.4.4-.5.6-.1.3-.2.5-.2.8s0,.5.2.8c.1.3.3.5.5.6.2.2.5.2.8.2ZM66,589.4l.6-.6c.2.2.4.3.6.4.2.1.5.2.8.2s.5,0,.8-.1c.2,0,.3-.3.3-.5s0-.3-.1-.4c0,0-.2-.2-.4-.2-.2,0-.5-.2-.8-.2-.2,0-.5-.1-.7-.2-.2-.1-.4-.2-.6-.4-.1-.2-.2-.4-.2-.7s0-.6.3-.8c.2-.2.4-.4.7-.5.3-.1.6-.2.9-.2s.7,0,1,.2c.3.1.5.2.7.4l-.5.6c-.1-.1-.3-.2-.5-.3-.2,0-.4-.1-.7-.1s-.5,0-.7.1c-.2,0-.3.2-.3.5s.1.3.3.5c.2,0,.5.2.9.3.3,0,.6.2.8.3.2.1.4.3.6.4.1.2.2.4.2.7s0,.6-.3.8c-.2.2-.4.4-.7.5-.3.1-.6.2-.9.2-.9,0-1.5-.2-2-.7ZM71.3,588.5v-2.4h-.8v-.8h.8v-1.5h.9v1.5h1.4v.8h-1.4v2.3c0,.4,0,.6.2.8.1.1.3.2.5.2s.3,0,.4,0c.1,0,.2-.1.3-.2l.4.5c-.2.2-.4.3-.6.4-.2,0-.4.1-.7.1-.5,0-.8-.1-1.1-.4-.2-.3-.3-.7-.3-1.2ZM74.6,587.6v-.9h2.9v.9h-2.9ZM79,590v-6.7h2.1c.5,0,.8,0,1.1.2.3.1.5.3.7.5.2.2.3.4.4.7,0,.2.1.5.1.7,0,.4,0,.8-.3,1.1-.2.3-.5.5-.8.7-.3.2-.7.2-1.2.2h-1.2v2.6h-.9ZM80,586.6h1.2c.4,0,.7-.1,1-.3.2-.2.3-.5.3-.9s-.1-.7-.3-.9c-.2-.2-.5-.3-.9-.3h-1.2v2.4ZM84.3,590v-6.7h.9v6.7h-.9ZM86.4,588.1v-2.8h.9v2.7c0,.4,0,.8.3,1,.2.2.4.3.8.3s.6,0,.8-.3c.2-.2.3-.4.4-.7,0-.3.1-.6.1-.9v-2.2h.9v4.4c0,0,0,.2,0,.3h-.9v-.7c-.1.1-.2.2-.3.3-.1.1-.3.2-.5.3-.2,0-.4.1-.7.1-.6,0-1.1-.2-1.3-.5-.3-.4-.4-.8-.4-1.4ZM91.6,589.4l.5-.6c.2.2.4.3.6.4.2.1.5.2.8.2s.6,0,.8-.1c.2,0,.3-.3.3-.5s0-.3-.1-.4c0,0-.2-.2-.4-.2-.2,0-.5-.2-.8-.2-.2,0-.5-.1-.7-.2-.2-.1-.4-.2-.6-.4-.1-.2-.2-.4-.2-.7s0-.6.3-.8c.2-.2.4-.4.7-.5.3-.1.6-.2.9-.2s.7,0,1,.2c.3.1.5.2.7.4l-.5.6c-.1-.1-.3-.2-.5-.3-.2,0-.4-.1-.7-.1s-.5,0-.7.1c-.2,0-.3.2-.3.5s.1.3.4.5c.2,0,.5.2.9.3.3,0,.6.2.8.3.2.1.4.3.6.4.1.2.2.4.2.7s0,.6-.3.8c-.2.2-.4.4-.7.5-.3.1-.6.2-1,.2-.9,0-1.5-.2-2-.7ZM98.5,590v-6.7h2.1c.5,0,.8,0,1.1.2.3.1.5.3.7.5.2.2.3.4.4.7,0,.2.1.5.1.7,0,.4,0,.8-.3,1.1-.2.3-.5.5-.8.7-.3.2-.7.2-1.2.2h-1.2v2.6h-.9ZM99.5,586.6h1.2c.4,0,.7-.1.9-.3.2-.2.3-.5.3-.9s-.1-.7-.3-.9c-.2-.2-.5-.3-.9-.3h-1.2v2.4ZM104.5,588.5v-2.4h-.8v-.8h.8v-1.5h.9v1.5h1.4v.8h-1.4v2.3c0,.4,0,.6.2.8.1.1.3.2.5.2s.3,0,.4,0c.1,0,.2-.1.3-.2l.4.5c-.2.2-.4.3-.6.4-.2,0-.4.1-.7.1-.5,0-.8-.1-1.1-.4-.2-.3-.3-.7-.3-1.2ZM107.3,591.8l.4-.6c0,0,.1.1.2.2,0,0,.2,0,.3,0,.2,0,.4,0,.5-.3.1-.2.2-.5.4-.8v-.3c.1,0-2-4.6-2-4.6h1l1.5,3.5,1.3-3.5h1l-1.9,4.5c0,.2-.2.4-.3.7,0,.3-.2.5-.3.7-.1.2-.3.4-.5.6-.2.2-.4.2-.7.2s-.4,0-.6,0c-.2,0-.3-.1-.4-.2ZM114.7,590v-6.7h1v5.8h3.5v.8h-4.4ZM120,584.5v-1h1v1h-1ZM120.1,590v-4.7h.9v4.7h-.9ZM123.1,590h-.9v-4.3c0,0,0-.2,0-.3h.9v.7c.1-.1.2-.2.3-.3.1-.1.3-.2.5-.3.2,0,.4-.1.7-.1s.7,0,.9.2c.2.1.4.3.6.6.2-.2.4-.4.7-.6.3-.2.6-.3,1-.3.6,0,1,.2,1.3.5.3.4.4.8.4,1.4v2.8h-.9v-2.7c0-.8-.3-1.3-1-1.3s-.5,0-.7.2c-.2.1-.3.3-.5.5-.1.2-.2.4-.2.7v2.6h-.9v-2.7c0-.4,0-.8-.3-1-.2-.2-.4-.3-.7-.3s-.6,0-.8.3c-.2.2-.3.4-.4.7,0,.3-.1.6-.1.9v2.2ZM130.7,584.5v-1h1v1h-1ZM130.8,590v-4.7h.9v4.7h-.9ZM133.3,588.5v-2.4h-.8v-.8h.8v-1.5h.9v1.5h1.4v.8h-1.4v2.3c0,.4,0,.6.2.8.1.1.3.2.5.2s.3,0,.4,0c.1,0,.2-.1.3-.2l.4.5c-.2.2-.4.3-.6.4-.2,0-.4.1-.7.1-.5,0-.8-.1-1.1-.4-.2-.3-.3-.7-.3-1.2ZM140.2,588.8l.5.5c0,0-.2.2-.4.3-.2.1-.4.2-.7.3-.3.1-.6.2-1,.2s-.9-.1-1.3-.3c-.4-.2-.7-.5-.9-.9-.2-.4-.3-.8-.3-1.3s0-.9.3-1.2c.2-.4.5-.7.8-.9.4-.2.8-.3,1.2-.3s1,.1,1.3.4c.3.3.6.6.7,1,.2.4.2.9.2,1.3h-3.7c0,.3,0,.5.2.7.1.2.3.4.6.5.2.1.5.2.8.2.4,0,.7,0,1-.2.3-.1.4-.3.5-.4ZM137.2,587.3h2.7c0-.4-.2-.7-.4-.9-.2-.3-.5-.4-1-.4s-.5,0-.7.2c-.2.1-.4.3-.5.5-.1.2-.2.4-.2.6ZM145.2,590v-.6c0,0-.2.1-.3.3-.1.1-.3.2-.5.3-.2,0-.5.1-.8.1s-.7,0-1.1-.3c-.3-.2-.6-.5-.7-.8-.2-.4-.3-.8-.3-1.3s0-.8.2-1.1c.2-.3.3-.6.6-.8s.5-.3.8-.4c.3-.1.5-.2.8-.2s.5,0,.7,0c.2,0,.4.1.6.2v-2.2h.9v6.4c0,0,0,.2,0,.3h-.9ZM145.2,588v-1.7c-.1,0-.3-.2-.5-.2-.2,0-.4,0-.7,0-.4,0-.8.2-1.1.5-.3.3-.4.7-.4,1.3s0,.6.1.8c.1.2.2.4.4.6.2.1.5.2.8.2s.6,0,.8-.2c.2-.1.3-.3.4-.5,0-.2.1-.4.1-.6ZM147.4,590v-1.1h1.1v1.1h-1.1Z" fill="#99a9bb" stroke-width="0"/>
</svg>