<svg width="300" height="66" viewBox="0 0 300 66" fill="none" xmlns="http://www.w3.org/2000/svg">
<path d="M300 66L0 46V66H300Z" fill="#F9DD3E"/>
<path d="M170.713 66H300L0 55L0 66H170.713Z" fill="url(#paint0_linear_5325_11165)"/>
<g clip-path="url(#clip0_5325_11165)">
<path d="M198.014 12.2009L198.031 12.1725L180.938 41.9674C180.703 42.384 180.582 42.848 180.582 43.3176C180.582 44.8232 181.807 46.0485 183.313 46.0485H217.628C219.134 46.0485 220.359 44.8232 220.359 43.3176C220.359 42.8082 220.219 42.312 219.952 41.8821L219.975 41.92L202.792 12.1573L202.806 12.18C202.325 11.3108 201.408 10.7711 200.414 10.7711C199.42 10.7711 198.492 11.3184 198.012 12.2009" fill="white"/>
<path d="M215.563 37.7461C215.904 37.7461 216.182 38.0245 216.182 38.3654C216.182 38.7062 215.904 38.9846 215.563 38.9846C215.222 38.9846 214.943 38.7062 214.943 38.3654C214.943 38.0245 215.222 37.7461 215.563 37.7461ZM215.563 38.8483C215.809 38.8483 216.004 38.6513 216.004 38.3654C216.004 38.0794 215.809 37.8824 215.563 37.8824C215.316 37.8824 215.121 38.0794 215.121 38.3654C215.121 38.6513 215.315 38.8483 215.563 38.8483ZM215.315 38.0188H215.574C215.748 38.0188 215.849 38.0699 215.849 38.2252C215.849 38.3502 215.773 38.3994 215.667 38.4089L215.849 38.7081H215.697L215.532 38.4165H215.462V38.7081H215.315V38.0188ZM215.583 38.301C215.654 38.301 215.703 38.2896 215.703 38.2101C215.703 38.14 215.627 38.1305 215.568 38.1305H215.464V38.301H215.583Z" fill="#007A53"/>
<path d="M215.017 36.3295L201.35 12.7008C201.149 12.3391 200.764 12.0948 200.323 12.0948C199.882 12.0948 199.492 12.3429 199.291 12.7084L189.672 29.4892C192.716 29.6596 194.185 28.2942 195.608 26.9705C196.873 25.7963 198.177 24.5805 200.357 24.5805C203.169 24.5805 204.607 27.1977 204.667 27.317C204.863 27.709 204.703 28.1901 204.311 28.387C203.918 28.584 203.455 28.4287 203.238 28.0367C203.154 27.8889 202.094 26.1789 200.355 26.1789C198.806 26.1789 197.874 27.0443 196.697 28.1408C195.147 29.582 192.856 31.0118 189.04 30.5876L185.728 36.3674C185.631 36.5379 185.578 36.7348 185.578 36.9431C185.578 37.5908 186.103 38.1154 186.75 38.1154H200.516C200.357 37.8919 198.7 35.5531 198.7 35.5531C198.003 34.4755 198.577 33.5817 198.765 33.2976L200.766 30.0895C200.88 29.9077 201.058 29.7808 201.264 29.7335C201.473 29.6861 201.687 29.7202 201.868 29.8339C202.242 30.0687 202.357 30.563 202.122 30.936L200.102 34.1744C199.956 34.396 199.916 34.4774 200.06 34.7066C200.441 35.3164 202.289 38.0586 202.327 38.1154H214.021C214.669 38.1154 215.193 37.5908 215.193 36.9431C215.193 36.7178 215.129 36.5057 215.019 36.3277M209.502 29.8774C209.286 30.1009 209.019 30.152 208.766 30.0138C208.548 29.8945 208.095 29.6956 207.512 29.6956C206.929 29.6956 206.092 29.8793 205.499 30.5838C205.499 30.5838 202.74 34.0551 202.738 34.0551C202.694 34.1176 202.522 34.2407 202.323 34.2502C202.171 34.2596 202.035 34.199 201.925 34.0778C201.825 33.9642 201.785 33.8354 201.785 33.7161C201.785 33.5968 201.821 33.4908 201.87 33.4055C203.09 31.3375 203.692 30.3168 203.694 30.313C204.686 28.6938 205.934 28.2734 207.037 28.2336C206.938 27.8776 206.514 26.3588 206.514 26.355C206.472 26.1883 206.41 25.8986 206.682 25.7281C207.012 25.5179 207.287 25.7111 207.391 25.8815L209.567 29.1862C209.665 29.3377 209.688 29.6786 209.502 29.8736" fill="#007A53"/>
<path d="M207.391 25.8853C207.285 25.713 207.012 25.5217 206.682 25.7319C206.412 25.9043 206.472 26.1921 206.514 26.3588C206.514 26.3607 206.938 27.8795 207.037 28.2374C205.933 28.2772 204.685 28.6976 203.694 30.3168C203.694 30.3206 203.09 31.3413 201.87 33.4093C201.821 33.4927 201.785 33.6025 201.785 33.7199C201.785 33.8373 201.823 33.968 201.925 34.0816C202.033 34.2028 202.17 34.2615 202.323 34.254C202.524 34.2445 202.694 34.1195 202.738 34.0589L205.499 30.5876C206.092 29.8831 206.898 29.6994 207.512 29.6994C208.126 29.6994 208.548 29.8983 208.766 30.0176C209.019 30.1558 209.286 30.1047 209.502 29.8812C209.69 29.6861 209.665 29.3434 209.567 29.1938L207.391 25.8891V25.8853Z" fill="#FFA400"/>
<path d="M196.7 28.1446C197.878 27.0481 198.807 26.1826 200.358 26.1826C202.097 26.1826 203.157 27.8927 203.241 28.0404C203.459 28.4325 203.921 28.5878 204.315 28.3908C204.707 28.1919 204.866 27.7109 204.671 27.3208C204.61 27.2015 203.171 24.5843 200.36 24.5843C198.182 24.5843 196.876 25.8001 195.611 26.9742C194.188 28.298 192.719 29.6634 189.676 29.493L189.045 30.5933C192.861 31.0175 195.152 29.5877 196.701 28.1465" fill="#FFA400"/>
<path d="M200.103 34.1782L202.123 30.9398C202.358 30.5668 202.243 30.0725 201.869 29.8377C201.688 29.724 201.474 29.688 201.265 29.7373C201.059 29.7846 200.881 29.9115 200.767 30.0933L198.766 33.3014C198.578 33.5854 198.004 34.4793 198.701 35.5569C198.701 35.5569 200.358 37.8976 200.517 38.1192H202.326C202.288 38.0642 200.44 35.3202 200.059 34.7104C199.917 34.4812 199.955 34.3998 200.101 34.1782" fill="#FFA400"/>
<path d="M184.859 39.4467H185.626L186.531 41.795H185.843L185.669 41.2932H184.787L184.601 41.795H183.965L184.857 39.4467H184.859ZM185.241 39.9315H185.234L184.931 40.85H185.52L185.241 39.9315Z" fill="#007A53"/>
<path d="M188.736 40.903C188.736 41.545 188.32 41.8348 187.706 41.8348C187.092 41.8348 186.676 41.545 186.676 40.903V39.4448H187.303V40.797C187.303 41.1057 187.386 41.3689 187.706 41.3689C188.026 41.3689 188.109 41.1057 188.109 40.797V39.4448H188.736V40.903Z" fill="#007A53"/>
<path d="M189.078 41.2155C189.239 41.3026 189.464 41.3708 189.723 41.3708C189.922 41.3708 190.11 41.331 190.11 41.1416C190.11 40.7042 189 40.9807 189 40.1247C189 39.5584 189.551 39.405 190.023 39.405C190.248 39.405 190.47 39.4391 190.629 39.4921L190.589 39.9769C190.428 39.9031 190.246 39.869 190.068 39.869C189.909 39.869 189.648 39.8823 189.648 40.0887C189.648 40.4693 190.757 40.2137 190.757 41.0621C190.757 41.6719 190.246 41.8366 189.723 41.8366C189.504 41.8366 189.233 41.8026 189.023 41.7363L189.076 41.2174L189.078 41.2155Z" fill="#007A53"/>
<path d="M191.464 39.9107H190.885V39.4467H192.669V39.9107H192.089V41.795H191.462V39.9107H191.464Z" fill="#007A53"/>
<path d="M192.916 39.4467H194.033C194.45 39.4467 194.791 39.6361 194.791 40.0395C194.791 40.3519 194.643 40.5603 194.34 40.6322V40.6398C194.543 40.6928 194.556 40.8727 194.673 41.1587L194.903 41.7988H194.249L194.115 41.3746C193.986 40.9712 193.906 40.869 193.674 40.869H193.543V41.7969H192.916V39.4486V39.4467ZM193.541 40.422H193.706C193.908 40.422 194.164 40.4144 194.164 40.1493C194.164 39.9296 193.944 39.8899 193.706 39.8899H193.541V40.422Z" fill="#007A53"/>
<path d="M195.876 39.4467H196.643L197.548 41.795H196.861L196.687 41.2932H195.804L195.619 41.795H194.982L195.874 39.4467H195.876ZM196.259 39.9315H196.251L195.948 40.85H196.537L196.259 39.9315Z" fill="#007A53"/>
<path d="M197.727 39.4467H198.353V41.331H199.323V41.795H197.728V39.4467H197.727Z" fill="#007A53"/>
<path d="M199.562 39.4467H200.189V41.795H199.562V39.4467Z" fill="#007A53"/>
<path d="M201.222 39.4467H201.989L202.894 41.795H202.207L202.033 41.2932H201.15L200.964 41.795H200.328L201.22 39.4467H201.222ZM201.605 39.9315H201.597L201.294 40.85H201.883L201.605 39.9315Z" fill="#007A53"/>
<path d="M203.016 39.4467H203.813L204.606 41.0413H204.614L204.605 39.4467H205.176V41.795H204.4L203.578 40.1891H203.571L203.591 41.795H203.016V39.4467Z" fill="#007A53"/>
<path d="M206.705 39.4467H207.692L208.19 41.0091H208.197L208.718 39.4467H209.667V41.795H209.053L209.063 39.9902H209.055L208.457 41.795H207.881L207.309 39.9902H207.302L207.315 41.795H206.703V39.4467H206.705Z" fill="#007A53"/>
<path d="M210.718 39.4467H211.485L212.39 41.795H211.703L211.529 41.2932H210.646L210.461 41.795H209.824L210.716 39.4467H210.718ZM211.101 39.9315H211.093L210.79 40.85H211.379L211.101 39.9315Z" fill="#007A53"/>
<path d="M212.568 39.4467H213.422C214.241 39.4467 214.812 39.7024 214.812 40.6114C214.812 41.5204 214.224 41.7969 213.422 41.7969H212.568V39.4486V39.4467ZM213.195 41.331H213.438C213.905 41.331 214.169 41.0886 214.169 40.6209C214.169 40.1531 213.896 39.9107 213.438 39.9107H213.195V41.331Z" fill="#007A53"/>
<path d="M215.103 39.4467H216.759V39.8918H215.728V40.3766H216.702V40.8216H215.728V41.3538H216.795V41.7988H215.102V39.4505L215.103 39.4467Z" fill="#007A53"/>
<path d="M190.658 42.3328H191.425L192.33 44.6811H191.642L191.468 44.1793H190.586L190.4 44.6811H189.764L190.656 42.3328H190.658ZM191.04 42.8176H191.033L190.73 43.7361H191.318L191.04 42.8176Z" fill="#007A53"/>
<path d="M192.518 42.3328H193.315L194.108 43.9274H194.116L194.106 42.3328H194.678V44.6811H193.9L193.078 43.0752H193.071L193.091 44.6811H192.516V42.3328H192.518Z" fill="#007A53"/>
<path d="M195.059 42.3328H195.913C196.731 42.3328 197.303 42.5885 197.303 43.4975C197.303 44.4065 196.714 44.683 195.913 44.683H195.059V42.3347V42.3328ZM195.684 44.2171H195.926C196.394 44.2171 196.657 43.9747 196.657 43.507C196.657 43.0392 196.384 42.7968 195.926 42.7968H195.684V44.2171Z" fill="#007A53"/>
<path d="M199.662 42.293C200.437 42.293 200.84 42.7532 200.84 43.5088C200.84 44.2645 200.429 44.7228 199.662 44.7228C198.895 44.7228 198.484 44.255 198.484 43.5088C198.484 42.7627 198.888 42.293 199.662 42.293ZM199.662 44.2588C200.043 44.2588 200.194 43.8952 200.194 43.5088C200.194 43.1017 200.043 42.7589 199.662 42.7589C199.282 42.7589 199.13 43.1017 199.13 43.5088C199.13 43.916 199.282 44.2588 199.662 44.2588Z" fill="#007A53"/>
<path d="M200.797 42.3328H201.437L201.74 44.1376H201.748L202.064 42.3328H202.857L203.187 44.1376H203.194L203.501 42.3328H204.111L203.586 44.6811H202.782L202.448 42.8763H202.441L202.132 44.6811H201.321L200.801 42.3328H200.797Z" fill="#007A53"/>
<path d="M204.297 42.3328H205.094L205.888 43.9274H205.893L205.884 42.3328H206.456V44.6811H205.677L204.857 43.0752H204.85L204.871 44.6811H204.295V42.3328H204.297Z" fill="#007A53"/>
<path d="M206.822 42.3328H208.479V42.7779H207.449V43.2627H208.421V43.7077H207.449V44.2399H208.515V44.6849H206.822V42.3366V42.3328Z" fill="#007A53"/>
<path d="M208.758 42.3328H209.612C210.43 42.3328 211.002 42.5885 211.002 43.4975C211.002 44.4065 210.413 44.683 209.612 44.683H208.758V42.3347V42.3328ZM209.385 44.2171H209.627C210.095 44.2171 210.358 43.9747 210.358 43.507C210.358 43.0392 210.085 42.7968 209.627 42.7968H209.385V44.2171Z" fill="#007A53"/>
</g>
<line x1="232.539" y1="6.31104" x2="232.539" y2="50.8863" stroke="#A7A9B3" stroke-width="0.37146"/>
<path d="M289.697 30.0238H290.913V46.0276H289.697V30.0238ZM285.632 38.0208V40.9685C285.632 41.477 285.551 41.9855 285.389 42.4777C285.228 42.9691 284.987 43.4174 284.672 43.8099C284.359 44.201 283.962 44.5199 283.496 44.7578C283.031 44.9949 282.484 45.1154 281.87 45.1154C281.395 45.1154 280.924 45.0299 280.473 44.8611C280.023 44.6938 279.621 44.4143 279.277 44.0315C278.932 43.6478 278.653 43.1408 278.445 42.5245C278.238 41.9067 278.132 41.138 278.132 40.2392C278.132 39.4177 278.233 38.6966 278.433 38.0944C278.633 37.4938 278.906 36.9904 279.243 36.5987C279.579 36.2091 279.97 35.914 280.405 35.7222C280.841 35.5311 281.311 35.4337 281.799 35.4337C282.595 35.4337 283.324 35.6709 283.968 36.1392C284.612 36.6068 285.171 37.2402 285.633 38.0208H285.632ZM285.658 36.6187C285.518 36.3898 285.348 36.16 285.153 35.9333C284.906 35.6471 284.61 35.3817 284.27 35.1453C283.93 34.9074 283.542 34.7104 283.115 34.5602C282.686 34.4093 282.205 34.3334 281.682 34.3334C281.033 34.3334 280.415 34.4665 279.845 34.7282C279.275 34.9899 278.765 35.3809 278.33 35.8872C277.895 36.3942 277.547 37.0194 277.295 37.7458C277.043 38.4721 276.915 39.3107 276.915 40.24C276.915 41.2949 277.04 42.2086 277.283 42.9572C277.527 43.7088 277.871 44.3348 278.307 44.8187C278.743 45.3035 279.266 45.6618 279.861 45.8841C280.453 46.1056 281.105 46.2179 281.799 46.2179C282.701 46.2179 283.493 45.9919 284.151 45.5473C284.741 45.1481 285.238 44.621 285.631 43.9772V45.4209C285.631 46.1933 285.541 46.8602 285.364 47.4007C285.188 47.9367 284.94 48.376 284.628 48.7054C284.317 49.0332 283.935 49.2719 283.493 49.4176C283.047 49.564 282.54 49.6384 281.987 49.6384C281.261 49.6384 280.583 49.5522 279.973 49.3819C279.36 49.2109 278.832 49.0065 278.401 48.7753L278.329 48.7366L278.005 49.7388L278.055 49.7648C278.494 50.0012 279.056 50.2242 279.724 50.4287C280.395 50.6338 281.14 50.7379 281.941 50.7379C283.472 50.7379 284.685 50.2956 285.549 49.4228C286.411 48.55 286.848 47.2111 286.848 45.4432V34.5215H285.922L285.657 36.6195L285.658 36.6187ZM273.98 40.1649V41.3685C273.98 41.8279 273.887 42.2874 273.703 42.7312C273.519 43.1765 273.251 43.5854 272.906 43.9467C272.561 44.3073 272.13 44.6031 271.624 44.8262C271.119 45.0492 270.527 45.1615 269.865 45.1615C269.529 45.1615 269.203 45.1154 268.897 45.0239C268.594 44.9332 268.326 44.7905 268.099 44.6009C267.873 44.4121 267.693 44.1712 267.565 43.8835C267.437 43.5958 267.371 43.2486 267.371 42.8516C267.371 41.9216 267.674 41.2354 268.271 40.8117C268.875 40.382 269.886 40.1649 271.274 40.1649H273.98ZM270.992 34.3305C270.191 34.3305 269.45 34.4301 268.787 34.6278C268.127 34.8248 267.577 35.0531 267.151 35.3051L267.105 35.3333L267.405 36.2641L267.478 36.224C267.925 35.9772 268.439 35.7727 269.001 35.6181C269.565 35.4634 270.236 35.3846 270.992 35.3846C271.957 35.3846 272.705 35.6092 273.215 36.0508C273.722 36.4901 273.979 37.2737 273.979 38.3769V39.11H271.273C269.622 39.11 268.352 39.4237 267.498 40.0415C266.637 40.6637 266.201 41.6094 266.201 42.8509C266.201 43.3921 266.294 43.8768 266.477 44.2909C266.66 44.7057 266.918 45.0618 267.246 45.3503C267.572 45.6373 267.963 45.8558 268.409 46C268.851 46.1435 269.333 46.2156 269.839 46.2156C270.818 46.2156 271.676 45.9986 272.389 45.5696C273.045 45.1748 273.589 44.6232 274.003 43.9311L274.268 46.0268H275.171V38.3769C275.171 37.1406 274.82 36.1467 274.13 35.4226C273.44 34.6977 272.383 34.3305 270.992 34.3305Z" fill="white"/>
<path d="M248.669 15.2771C247.845 15.9395 247.712 17.1565 248.373 17.981L258.74 30.9285C259.4 31.7537 260.615 31.8876 261.438 31.2252C262.262 30.5628 262.395 29.3458 261.734 28.5213L251.367 15.5738C250.989 15.1017 250.431 14.8564 249.867 14.8564C249.446 14.8564 249.021 14.9939 248.67 15.2771" fill="white"/>
<path d="M244.415 36.8462C244.241 37.89 244.95 38.8862 245.992 39.0602L257.991 41.0659C259.033 41.2399 260.027 40.5284 260.201 39.4846C260.375 38.4409 259.665 37.4447 258.623 37.2707L246.624 35.265C246.519 35.2471 246.413 35.2389 246.309 35.2389C245.39 35.2389 244.571 35.908 244.415 36.8455" fill="white"/>
<path d="M263.936 6.47199C262.887 6.59465 262.129 7.55368 262.251 8.60488L264.162 25.0941C264.285 26.1453 265.242 26.9044 266.29 26.7824C267.339 26.6598 268.097 25.7008 267.975 24.6495L266.064 8.16106C265.95 7.18419 265.115 6.45935 264.156 6.45935C264.083 6.45935 264.009 6.46381 263.935 6.47199" fill="white"/>
<path d="M275.395 12.0128L270.856 24.4763C270.494 25.4703 271.009 26.5802 272.001 26.9423C272.993 27.3043 274.101 26.7891 274.462 25.7944L279.001 13.3309C279.363 12.3369 278.848 11.227 277.857 10.8649C277.641 10.7861 277.421 10.7489 277.203 10.7489C276.419 10.7489 275.679 11.2344 275.395 12.0128Z" fill="white"/>
<path d="M282.72 21.0692L277.477 26.865C276.769 27.6485 276.828 28.8707 277.61 29.5814C278.393 30.2914 279.612 30.2319 280.321 29.4476L285.564 23.6519C286.272 22.8683 286.213 21.6461 285.431 20.9354C285.065 20.6031 284.603 20.4395 284.143 20.4395C283.62 20.4395 283.097 20.6514 282.72 21.0685" fill="white"/>
<defs>
<linearGradient id="paint0_linear_5325_11165" x1="-1.79311" y1="66.1735" x2="374.709" y2="63.8166" gradientUnits="userSpaceOnUse">
<stop offset="0.238363" stop-color="#00CEED"/>
<stop offset="0.473958" stop-color="#0076BF"/>
<stop offset="0.733675" stop-color="#00168D"/>
</linearGradient>
<clipPath id="clip0_5325_11165">
<rect width="40.1612" height="35.5859" fill="white" transform="translate(180.35 10.5828)"/>
</clipPath>
</defs>
</svg>
