<?xml version="1.0" encoding="utf-8"?>
<!-- Generator: Adobe Illustrator 27.7.0, SVG Export Plug-In . SVG Version: 6.00 Build 0)  -->
<svg version="1.1" id="Layer_1" xmlns="http://www.w3.org/2000/svg" xmlns:xlink="http://www.w3.org/1999/xlink" x="0px" y="0px"
	 viewBox="0 0 364.9 80.1" style="enable-background:new 0 0 364.9 80.1;" xml:space="preserve">
<style type="text/css">
	.st0{fill:#FFD000;}
</style>
<path class="st0" d="M2.7,34.2V0.9H26v7.7H11.6v6.4h11.1v7.3H11.6v11.8H2.7z M29.5,34.2V0.9h8.8v33.3H29.5z M52,34.2V8.6H41.8V0.9
	h29.3v7.7H61v25.6H52z M71.8,30.1l5.3-6.4c0.9,0.9,2.1,1.8,3.6,2.5c1.5,0.8,3.2,1.1,4.9,1.1c0.9,0,1.8-0.2,2.6-0.5
	c0.8-0.4,1.2-1.1,1.2-2.1c0-0.9-0.4-1.6-1.3-2.1c-0.9-0.6-2.2-1.2-3.8-1.7l-1.8-0.6c-1.4-0.5-2.7-1.1-4.1-1.8
	c-1.3-0.8-2.4-1.8-3.3-3c-0.9-1.2-1.3-2.7-1.3-4.5c0-2.1,0.5-3.9,1.4-5.5c1-1.6,2.5-2.9,4.4-3.8c1.9-1,4.3-1.4,7-1.4
	c2.2,0,4.1,0.2,5.7,0.7c1.6,0.5,3,1.1,4,1.7c1.1,0.7,1.8,1.3,2.3,1.8L94.3,10c-1.2-0.9-2.4-1.6-3.6-2.1C89.4,7.3,88.1,7,86.8,7
	c-0.9,0-1.7,0.2-2.5,0.6c-0.8,0.4-1.1,1-1.1,1.9c0,1,0.5,1.8,1.4,2.2c0.9,0.5,2.1,0.9,3.5,1.4l1.6,0.5c1.1,0.3,2.3,0.8,3.4,1.3
	c1.2,0.5,2.2,1.1,3.2,1.9s1.7,1.8,2.3,3c0.6,1.2,0.9,2.7,0.9,4.4c0,2-0.6,3.8-1.8,5.4c-1.2,1.6-2.8,2.8-4.9,3.7
	c-2,0.9-4.3,1.3-6.8,1.3c-3.3,0-6.1-0.4-8.4-1.3C75.3,32.8,73.4,31.6,71.8,30.1z M112.1,34.2V0.9h8.8v33.3H112.1z M126.4,34.2V0.9h8
	l12.8,18.6V0.9h8.7v33.3h-7.5l-13.3-19.1v19.1H126.4z M169.7,34.2V8.6h-10.2V0.9h29.3v7.7h-10.1v25.6H169.7z M206.8,35
	c-2.5,0-4.8-0.4-6.9-1.3c-2.1-0.9-3.9-2.1-5.5-3.6c-1.5-1.6-2.7-3.5-3.6-5.6c-0.9-2.1-1.3-4.5-1.3-7c0-2.5,0.4-4.9,1.3-7
	c0.9-2.1,2.1-4,3.6-5.5c1.6-1.6,3.4-2.8,5.5-3.6c2.1-0.9,4.4-1.3,6.9-1.3c2.5,0,4.8,0.4,6.9,1.3c2.1,0.9,4,2.1,5.5,3.6
	c1.6,1.6,2.8,3.4,3.6,5.5c0.9,2.1,1.3,4.5,1.3,7c0,2.5-0.4,4.9-1.3,7c-0.8,2.1-2,4-3.6,5.6c-1.6,1.6-3.4,2.8-5.5,3.6
	C211.5,34.6,209.2,35,206.8,35z M206.8,26.7c1.8,0,3.2-0.4,4.4-1.2c1.2-0.8,2.2-1.9,2.8-3.3c0.6-1.4,0.9-2.9,0.9-4.6
	c0-1.7-0.3-3.2-0.9-4.6c-0.6-1.4-1.6-2.5-2.8-3.3c-1.2-0.8-2.7-1.2-4.4-1.2c-1.7,0-3.2,0.4-4.4,1.2c-1.2,0.8-2.1,1.9-2.8,3.3
	c-0.6,1.4-0.9,2.9-0.9,4.6c0,1.7,0.3,3.2,0.9,4.6c0.7,1.4,1.6,2.5,2.8,3.3C203.5,26.3,205,26.7,206.8,26.7z M246,34.2V20.9l-11.8-20
	h10.1l6.5,11.9l6.1-11.9h9.8l-11.9,20v13.3H246z M282.2,35c-2.5,0-4.8-0.4-6.9-1.3c-2.1-0.9-3.9-2.1-5.5-3.6
	c-1.5-1.6-2.7-3.5-3.6-5.6c-0.9-2.1-1.3-4.5-1.3-7c0-2.5,0.4-4.9,1.3-7c0.9-2.1,2.1-4,3.6-5.5c1.6-1.6,3.4-2.8,5.5-3.6
	c2.1-0.9,4.4-1.3,6.9-1.3c2.5,0,4.8,0.4,6.9,1.3c2.1,0.9,4,2.1,5.5,3.6c1.6,1.6,2.8,3.4,3.6,5.5c0.9,2.1,1.3,4.5,1.3,7
	c0,2.5-0.4,4.9-1.3,7c-0.8,2.1-2,4-3.6,5.6c-1.6,1.6-3.4,2.8-5.5,3.6C286.9,34.6,284.6,35,282.2,35z M282.2,26.7
	c1.8,0,3.2-0.4,4.4-1.2c1.2-0.8,2.2-1.9,2.8-3.3c0.6-1.4,0.9-2.9,0.9-4.6c0-1.7-0.3-3.2-0.9-4.6c-0.6-1.4-1.6-2.5-2.8-3.3
	c-1.2-0.8-2.7-1.2-4.4-1.2c-1.7,0-3.2,0.4-4.4,1.2c-1.2,0.8-2.1,1.9-2.8,3.3c-0.6,1.4-0.9,2.9-0.9,4.6c0,1.7,0.3,3.2,0.9,4.6
	c0.7,1.4,1.6,2.5,2.8,3.3C278.9,26.3,280.4,26.7,282.2,26.7z M303.5,21.2V0.9h8.8v19.5c0,1.8,0.4,3.3,1.2,4.5
	c0.9,1.2,2.3,1.7,4.2,1.7c2,0,3.4-0.6,4.2-1.7c0.8-1.2,1.2-2.7,1.2-4.5V0.9h8.9v20.3c0,2.8-0.6,5.3-1.8,7.4
	c-1.2,2.1-2.9,3.7-5.1,4.8c-2.1,1.1-4.6,1.6-7.4,1.6c-2.8,0-5.3-0.5-7.4-1.6c-2.2-1.1-3.9-2.7-5.1-4.7
	C304.1,26.6,303.5,24.1,303.5,21.2z M337.4,34.2V0.9h13.8c3.6,0,6.4,0.9,8.6,2.8c2.2,1.8,3.2,4.5,3.2,8.1c0,2.2-0.5,4.1-1.4,5.7
	c-1,1.6-2.2,2.9-3.8,3.9l7.1,12.8h-9.5l-5.6-11.3h-3.7v11.3H337.4z M346.1,15.9h4.3c1.2,0,2.1-0.3,2.8-1c0.7-0.7,1.1-1.7,1.1-2.9
	c0-1.3-0.4-2.3-1-3s-1.7-1.1-2.9-1.1h-4.2V15.9z M0,75.1l5.3-6.4c0.9,0.9,2.1,1.8,3.6,2.5c1.5,0.8,3.2,1.1,4.9,1.1
	c0.9,0,1.8-0.2,2.6-0.5c0.8-0.4,1.2-1.1,1.2-2.1c0-0.9-0.4-1.6-1.3-2.1c-0.9-0.6-2.2-1.2-3.8-1.7l-1.8-0.6c-1.4-0.5-2.7-1.1-4.1-1.8
	c-1.3-0.8-2.4-1.8-3.3-3C2.4,59.1,2,57.6,2,55.8c0-2.1,0.5-3.9,1.4-5.5c1-1.6,2.5-2.9,4.4-3.8c1.9-1,4.3-1.4,7-1.4
	c2.2,0,4.1,0.2,5.7,0.7c1.6,0.5,3,1.1,4,1.7c1.1,0.7,1.8,1.3,2.3,1.8L22.5,55c-1.2-0.9-2.4-1.6-3.6-2.1c-1.3-0.6-2.6-0.8-3.9-0.8
	c-0.9,0-1.7,0.2-2.5,0.6c-0.8,0.4-1.1,1-1.1,1.9c0,1,0.5,1.8,1.4,2.2c0.9,0.5,2.1,0.9,3.5,1.4l1.6,0.5c1.1,0.3,2.3,0.8,3.4,1.3
	c1.2,0.5,2.2,1.1,3.2,1.9c1,0.8,1.7,1.8,2.3,3c0.6,1.2,0.9,2.7,0.9,4.4c0,2-0.6,3.8-1.8,5.4c-1.2,1.6-2.8,2.8-4.9,3.7
	c-2,0.9-4.3,1.3-6.8,1.3c-3.3,0-6.1-0.5-8.4-1.3C3.5,77.8,1.6,76.6,0,75.1z M56.6,67.4l5.9,5.6c-3.7,4.7-8.7,7-14.8,7
	c-3.4,0-6.4-0.7-9-2.2c-2.6-1.5-4.6-3.5-6.1-6.1c-1.5-2.6-2.2-5.6-2.2-9c0-3.4,0.7-6.4,2.2-9c1.5-2.7,3.5-4.8,6.1-6.3
	c2.6-1.5,5.6-2.3,9-2.3c2.9,0,5.5,0.5,8,1.4c2.5,1,4.6,2.6,6.3,5l-5.8,5.9c-0.9-1.3-2-2.3-3.3-3c-1.3-0.8-2.8-1.1-4.4-1.1
	c-1.9,0-3.5,0.4-4.8,1.2c-1.3,0.8-2.3,1.9-3,3.3c-0.7,1.4-1,2.9-1,4.6c0,1.8,0.3,3.4,1,4.8c0.7,1.4,1.8,2.5,3.1,3.3s2.9,1.2,4.6,1.2
	c2,0,3.5-0.3,4.7-1C54.3,69.9,55.4,68.9,56.6,67.4z M65.3,79.2V45.9h8.8v12.2h12.3V45.9h8.8v33.3h-8.8v-13H74.1v13H65.3z
	 M100.7,79.2V45.9h24v7.6h-15.1v5.1H122v7.2h-12.4v5.7h16.2v7.6H100.7z M129.8,79.2V45.9h12.8c3.4,0,6.5,0.6,9.1,1.8
	c2.7,1.2,4.8,3,6.4,5.5c1.6,2.5,2.3,5.6,2.3,9.5c0,3.7-0.8,6.7-2.3,9.2c-1.6,2.4-3.7,4.3-6.4,5.5c-2.7,1.2-5.7,1.8-9.1,1.8H129.8z
	 M138.7,71.4h3.6c2.9,0,5.1-0.8,6.7-2.4c1.6-1.7,2.4-3.8,2.4-6.4c0-2.7-0.7-4.8-2.2-6.4c-1.5-1.6-3.8-2.4-6.9-2.4h-3.6V71.4z
	 M164.5,66.2V45.9h8.8v19.5c0,1.8,0.4,3.3,1.2,4.5c0.9,1.2,2.3,1.7,4.2,1.7c2,0,3.4-0.6,4.2-1.7c0.8-1.2,1.2-2.7,1.2-4.5V45.9h8.9
	v20.3c0,2.8-0.6,5.3-1.8,7.4c-1.2,2.1-2.9,3.7-5.1,4.8c-2.1,1.1-4.6,1.6-7.4,1.6c-2.8,0-5.3-0.5-7.4-1.6c-2.2-1.1-3.9-2.7-5.1-4.7
	C165.1,71.6,164.5,69.1,164.5,66.2z M198.5,79.2V45.9h8.8v25.5h15.4v7.8H198.5z M226.2,79.2V45.9h24v7.6h-15.1v5.1h12.4v7.2h-12.4
	v5.7h16.2v7.6H226.2z"/>
</svg>
