<svg width="96" height="26" viewBox="0 0 96 26" fill="none" xmlns="http://www.w3.org/2000/svg">
<path d="M10.7149 17.5V8.829H12.6779V15.758H16.8249V17.5H10.7149ZM22.9395 15.654L23.7065 16.837C23.6199 16.8977 23.4639 16.9973 23.2385 17.136C23.0219 17.2747 22.7315 17.4047 22.3675 17.526C22.0035 17.6473 21.5572 17.708 21.0285 17.708C20.3352 17.708 19.7372 17.5693 19.2345 17.292C18.7319 17.0147 18.3462 16.629 18.0775 16.135C17.8089 15.641 17.6745 15.0733 17.6745 14.432C17.6745 13.86 17.7959 13.327 18.0385 12.833C18.2899 12.339 18.6495 11.9447 19.1175 11.65C19.5942 11.3467 20.1619 11.195 20.8205 11.195C21.4792 11.195 22.0295 11.3467 22.4715 11.65C22.9222 11.9447 23.2602 12.3563 23.4855 12.885C23.7195 13.405 23.8365 14.0073 23.8365 14.692V15.004H19.4945C19.5032 15.3247 19.6505 15.6107 19.9365 15.862C20.2225 16.1133 20.6082 16.239 21.0935 16.239C21.5789 16.239 21.9732 16.1697 22.2765 16.031C22.5799 15.8837 22.8009 15.758 22.9395 15.654ZM19.4945 13.808H22.0685C22.0685 13.6347 22.0209 13.4613 21.9255 13.288C21.8389 13.106 21.7002 12.9543 21.5095 12.833C21.3275 12.7117 21.0935 12.651 20.8075 12.651C20.5215 12.651 20.2789 12.7117 20.0795 12.833C19.8889 12.9543 19.7415 13.106 19.6375 13.288C19.5422 13.4613 19.4945 13.6347 19.4945 13.808ZM28.4926 17.5L28.4406 16.928C28.0072 17.4307 27.3919 17.682 26.5946 17.682C26.3086 17.682 26.0052 17.6257 25.6846 17.513C25.3726 17.409 25.1039 17.2183 24.8786 16.941C24.6532 16.6637 24.5406 16.2823 24.5406 15.797C24.5406 15.3203 24.6619 14.9173 24.9046 14.588C25.1559 14.2587 25.4939 14.0117 25.9186 13.847C26.3432 13.6737 26.8199 13.587 27.3486 13.587C27.5652 13.587 27.7819 13.5913 27.9986 13.6C28.2239 13.6087 28.3712 13.6217 28.4406 13.639V13.509C28.4406 13.197 28.3192 12.976 28.0766 12.846C27.8426 12.7073 27.5739 12.638 27.2706 12.638C26.8632 12.638 26.5209 12.69 26.2436 12.794C25.9662 12.898 25.7322 13.015 25.5416 13.145L24.7746 12.001C25.0259 11.8017 25.3682 11.6197 25.8016 11.455C26.2349 11.2817 26.8112 11.195 27.5306 11.195C28.4579 11.195 29.1426 11.4463 29.5846 11.949C30.0266 12.443 30.2476 13.1103 30.2476 13.951V17.5H28.4926ZM28.4406 15.303V14.809C28.3972 14.8003 28.3149 14.7917 28.1936 14.783C28.0722 14.7657 27.9336 14.757 27.7776 14.757C27.2576 14.757 26.8892 14.8307 26.6726 14.978C26.4559 15.1253 26.3476 15.3333 26.3476 15.602C26.3476 16.1047 26.6509 16.356 27.2576 16.356C27.5522 16.356 27.8209 16.265 28.0636 16.083C28.3149 15.901 28.4406 15.641 28.4406 15.303ZM31.595 17.5V11.403H33.389L33.454 12.17C33.61 11.962 33.8223 11.7627 34.091 11.572C34.3683 11.3813 34.7237 11.286 35.157 11.286C35.3217 11.286 35.4603 11.2947 35.573 11.312C35.6943 11.3293 35.8113 11.3597 35.924 11.403L35.625 13.054C35.4343 12.9933 35.209 12.963 34.949 12.963C34.507 12.963 34.1473 13.0973 33.87 13.366C33.6013 13.626 33.467 13.9987 33.467 14.484V17.5H31.595ZM36.7115 17.5V11.403H38.5055L38.5575 12.066C38.7569 11.8233 39.0212 11.6283 39.3505 11.481C39.6799 11.3337 40.0179 11.26 40.3645 11.26C41.0579 11.26 41.6125 11.468 42.0285 11.884C42.4445 12.3 42.6525 12.9153 42.6525 13.73V17.5H40.7805V13.99C40.7805 13.652 40.6939 13.3833 40.5205 13.184C40.3559 12.9847 40.1219 12.885 39.8185 12.885C39.4112 12.885 39.0992 13.0193 38.8825 13.288C38.6745 13.5567 38.5705 13.8687 38.5705 14.224V17.5H36.7115ZM46.347 17.5V11.403H48.141L48.206 12.079C48.3966 11.845 48.6393 11.65 48.934 11.494C49.2286 11.338 49.5753 11.26 49.974 11.26C50.4593 11.26 50.845 11.351 51.131 11.533C51.417 11.715 51.6293 11.9057 51.768 12.105C52.0193 11.8363 52.3226 11.6283 52.678 11.481C53.042 11.3337 53.419 11.26 53.809 11.26C54.5803 11.26 55.174 11.4853 55.59 11.936C56.006 12.378 56.214 12.976 56.214 13.73V17.5H54.342V14.029C54.342 13.6737 54.2596 13.3963 54.095 13.197C53.939 12.989 53.7006 12.885 53.38 12.885C53.0246 12.885 52.7343 13.0107 52.509 13.262C52.2923 13.5133 52.184 13.834 52.184 14.224V17.5H50.377V14.029C50.377 13.6737 50.2946 13.3963 50.13 13.197C49.974 12.989 49.7356 12.885 49.415 12.885C49.0683 12.885 48.7823 13.0107 48.557 13.262C48.3316 13.5133 48.219 13.834 48.219 14.224V17.5H46.347ZM57.2966 14.445C57.2966 13.847 57.4353 13.301 57.7126 12.807C57.9899 12.313 58.3713 11.923 58.8566 11.637C59.3506 11.3423 59.9226 11.195 60.5726 11.195C61.2226 11.195 61.7903 11.3423 62.2756 11.637C62.7696 11.923 63.1509 12.313 63.4196 12.807C63.6969 13.301 63.8356 13.847 63.8356 14.445C63.8356 15.043 63.6969 15.589 63.4196 16.083C63.1509 16.577 62.7696 16.9713 62.2756 17.266C61.7903 17.5607 61.2226 17.708 60.5726 17.708C59.9226 17.708 59.3506 17.5607 58.8566 17.266C58.3713 16.9713 57.9899 16.577 57.7126 16.083C57.4353 15.589 57.2966 15.043 57.2966 14.445ZM60.5726 16.083C60.8933 16.083 61.1576 16.005 61.3656 15.849C61.5823 15.693 61.7469 15.4893 61.8596 15.238C61.9723 14.9867 62.0286 14.7223 62.0286 14.445C62.0286 14.1677 61.9723 13.9077 61.8596 13.665C61.7469 13.4137 61.5823 13.21 61.3656 13.054C61.1576 12.898 60.8933 12.82 60.5726 12.82C60.2606 12.82 59.9919 12.898 59.7666 13.054C59.5499 13.21 59.3853 13.4137 59.2726 13.665C59.1599 13.9077 59.1036 14.1677 59.1036 14.445C59.1036 14.7223 59.1599 14.9867 59.2726 15.238C59.3853 15.4893 59.5499 15.693 59.7666 15.849C59.9919 16.005 60.2606 16.083 60.5726 16.083ZM64.9456 17.5V11.403H66.7396L66.8046 12.17C66.9606 11.962 67.1729 11.7627 67.4416 11.572C67.7189 11.3813 68.0743 11.286 68.5076 11.286C68.6723 11.286 68.8109 11.2947 68.9236 11.312C69.0449 11.3293 69.1619 11.3597 69.2746 11.403L68.9756 13.054C68.7849 12.9933 68.5596 12.963 68.2996 12.963C67.8576 12.963 67.4979 13.0973 67.2206 13.366C66.9519 13.626 66.8176 13.9987 66.8176 14.484V17.5H64.9456ZM74.7872 15.654L75.5542 16.837C75.4675 16.8977 75.3115 16.9973 75.0862 17.136C74.8695 17.2747 74.5792 17.4047 74.2152 17.526C73.8512 17.6473 73.4049 17.708 72.8762 17.708C72.1829 17.708 71.5849 17.5693 71.0822 17.292C70.5795 17.0147 70.1939 16.629 69.9252 16.135C69.6565 15.641 69.5222 15.0733 69.5222 14.432C69.5222 13.86 69.6435 13.327 69.8862 12.833C70.1375 12.339 70.4972 11.9447 70.9652 11.65C71.4419 11.3467 72.0095 11.195 72.6682 11.195C73.3269 11.195 73.8772 11.3467 74.3192 11.65C74.7699 11.9447 75.1079 12.3563 75.3332 12.885C75.5672 13.405 75.6842 14.0073 75.6842 14.692V15.004H71.3422C71.3509 15.3247 71.4982 15.6107 71.7842 15.862C72.0702 16.1133 72.4559 16.239 72.9412 16.239C73.4265 16.239 73.8209 16.1697 74.1242 16.031C74.4275 15.8837 74.6485 15.758 74.7872 15.654ZM71.3422 13.808H73.9162C73.9162 13.6347 73.8685 13.4613 73.7732 13.288C73.6865 13.106 73.5479 12.9543 73.3572 12.833C73.1752 12.7117 72.9412 12.651 72.6552 12.651C72.3692 12.651 72.1265 12.7117 71.9272 12.833C71.7365 12.9543 71.5892 13.106 71.4852 13.288C71.3899 13.4613 71.3422 13.6347 71.3422 13.808Z" fill="#002855"/>
<path d="M81.333 8.66602L85.6663 12.9993L81.333 17.3327" stroke="#002855" stroke-width="1.81212" stroke-linecap="round"/>
</svg>
