<svg width="100" height="29" viewBox="0 0 100 29" fill="none" xmlns="http://www.w3.org/2000/svg">
<rect x="0.5" y="0.5" width="98.5556" height="27.1852" fill="white"/>
<rect x="0.5" y="0.5" width="98.5556" height="27.1852" stroke="white"/>
<path d="M12.3402 18.5926V9.94629H14.2976V16.8556H18.4328V18.5926H12.3402ZM24.53 16.7518L25.2949 17.9315C25.2084 17.992 25.0529 18.0914 24.8282 18.2296C24.6121 18.3679 24.3226 18.4975 23.9597 18.6185C23.5967 18.7395 23.1517 18.8 22.6245 18.8C21.9331 18.8 21.3368 18.6617 20.8356 18.3852C20.3344 18.1086 19.9498 17.7241 19.6819 17.2315C19.414 16.7389 19.28 16.1728 19.28 15.5333C19.28 14.963 19.401 14.4315 19.643 13.9389C19.8936 13.4463 20.2523 13.0531 20.7189 12.7593C21.1942 12.4568 21.7603 12.3056 22.4171 12.3056C23.0739 12.3056 23.6226 12.4568 24.0634 12.7593C24.5128 13.0531 24.8498 13.4636 25.0745 13.9907C25.3078 14.5093 25.4245 15.1099 25.4245 15.7926V16.1037H21.0949C21.1035 16.4235 21.2504 16.7086 21.5356 16.9593C21.8208 17.2099 22.2054 17.3352 22.6893 17.3352C23.1733 17.3352 23.5665 17.266 23.8689 17.1278C24.1714 16.9809 24.3918 16.8556 24.53 16.7518ZM21.0949 14.9111H23.6615C23.6615 14.7383 23.614 14.5654 23.5189 14.3926C23.4325 14.2111 23.2942 14.0599 23.1041 13.9389C22.9226 13.8179 22.6893 13.7574 22.4041 13.7574C22.1189 13.7574 21.877 13.8179 21.6782 13.9389C21.4881 14.0599 21.3412 14.2111 21.2375 14.3926C21.1424 14.5654 21.0949 14.7383 21.0949 14.9111ZM30.0673 18.5926L30.0154 18.0222C29.5833 18.5235 28.9697 18.7741 28.1747 18.7741C27.8895 18.7741 27.587 18.7179 27.2673 18.6056C26.9561 18.5018 26.6882 18.3117 26.4636 18.0352C26.2389 17.7586 26.1265 17.3784 26.1265 16.8944C26.1265 16.4191 26.2475 16.0173 26.4895 15.6889C26.7401 15.3605 27.0771 15.1142 27.5006 14.95C27.924 14.7772 28.3994 14.6907 28.9265 14.6907C29.1426 14.6907 29.3586 14.6951 29.5747 14.7037C29.7994 14.7123 29.9463 14.7253 30.0154 14.7426V14.613C30.0154 14.3018 29.8944 14.0815 29.6524 13.9518C29.4191 13.8136 29.1512 13.7444 28.8487 13.7444C28.4426 13.7444 28.1012 13.7963 27.8247 13.9C27.5481 14.0037 27.3148 14.1204 27.1247 14.25L26.3599 13.1093C26.6105 12.9105 26.9518 12.729 27.3839 12.5648C27.816 12.392 28.3907 12.3056 29.108 12.3056C30.0327 12.3056 30.7154 12.5562 31.1561 13.0574C31.5969 13.55 31.8173 14.2154 31.8173 15.0537V18.5926H30.0673ZM30.0154 16.4018V15.9093C29.9722 15.9006 29.8901 15.892 29.7691 15.8833C29.6481 15.866 29.5099 15.8574 29.3543 15.8574C28.8358 15.8574 28.4685 15.9309 28.2524 16.0778C28.0364 16.2247 27.9284 16.4321 27.9284 16.7C27.9284 17.2012 28.2308 17.4518 28.8358 17.4518C29.1296 17.4518 29.3975 17.3611 29.6395 17.1796C29.8901 16.9981 30.0154 16.7389 30.0154 16.4018ZM33.1608 18.5926V12.513H34.9497L35.0146 13.2778C35.1701 13.0704 35.3818 12.8716 35.6497 12.6815C35.9263 12.4914 36.2806 12.3963 36.7127 12.3963C36.8769 12.3963 37.0152 12.4049 37.1275 12.4222C37.2485 12.4395 37.3652 12.4698 37.4775 12.513L37.1794 14.1593C36.9892 14.0988 36.7646 14.0685 36.5053 14.0685C36.0646 14.0685 35.7059 14.2025 35.4294 14.4704C35.1615 14.7296 35.0275 15.1012 35.0275 15.5852V18.5926H33.1608ZM38.2628 18.5926V12.513H40.0517L40.1035 13.1741C40.3023 12.9321 40.5659 12.7377 40.8943 12.5907C41.2227 12.4438 41.5597 12.3704 41.9054 12.3704C42.5967 12.3704 43.1498 12.5778 43.5646 12.9926C43.9795 13.4074 44.1869 14.021 44.1869 14.8333V18.5926H42.3202V15.0926C42.3202 14.7556 42.2338 14.4877 42.0609 14.2889C41.8967 14.0901 41.6634 13.9907 41.3609 13.9907C40.9548 13.9907 40.6437 14.1247 40.4276 14.3926C40.2202 14.6605 40.1165 14.9716 40.1165 15.3259V18.5926H38.2628ZM47.8708 18.5926V12.513H49.6597L49.7245 13.187C49.9146 12.9537 50.1566 12.7593 50.4504 12.6037C50.7442 12.4481 51.0899 12.3704 51.4874 12.3704C51.9714 12.3704 52.356 12.4611 52.6411 12.6426C52.9263 12.8241 53.1381 13.0142 53.2763 13.213C53.5269 12.9451 53.8294 12.7377 54.1837 12.5907C54.5467 12.4438 54.9226 12.3704 55.3115 12.3704C56.0807 12.3704 56.6726 12.5951 57.0874 13.0444C57.5023 13.4852 57.7097 14.0815 57.7097 14.8333V18.5926H55.843V15.1315C55.843 14.7772 55.7609 14.5006 55.5967 14.3018C55.4411 14.0944 55.2035 13.9907 54.8837 13.9907C54.5294 13.9907 54.2399 14.116 54.0152 14.3667C53.7992 14.6173 53.6911 14.937 53.6911 15.3259V18.5926H51.8893V15.1315C51.8893 14.7772 51.8072 14.5006 51.643 14.3018C51.4874 14.0944 51.2498 13.9907 50.93 13.9907C50.5844 13.9907 50.2992 14.116 50.0745 14.3667C49.8498 14.6173 49.7374 14.937 49.7374 15.3259V18.5926H47.8708ZM58.7892 15.5463C58.7892 14.95 58.9275 14.4056 59.204 13.913C59.4806 13.4204 59.8608 13.0315 60.3448 12.7463C60.8374 12.4525 61.4078 12.3056 62.0559 12.3056C62.7041 12.3056 63.2701 12.4525 63.7541 12.7463C64.2466 13.0315 64.6269 13.4204 64.8948 13.913C65.1713 14.4056 65.3096 14.95 65.3096 15.5463C65.3096 16.1426 65.1713 16.687 64.8948 17.1796C64.6269 17.6722 64.2466 18.0654 63.7541 18.3593C63.2701 18.6531 62.7041 18.8 62.0559 18.8C61.4078 18.8 60.8374 18.6531 60.3448 18.3593C59.8608 18.0654 59.4806 17.6722 59.204 17.1796C58.9275 16.687 58.7892 16.1426 58.7892 15.5463ZM62.0559 17.1796C62.3757 17.1796 62.6392 17.1018 62.8466 16.9463C63.0627 16.7907 63.2269 16.5877 63.3392 16.337C63.4516 16.0864 63.5078 15.8228 63.5078 15.5463C63.5078 15.2698 63.4516 15.0105 63.3392 14.7685C63.2269 14.5179 63.0627 14.3148 62.8466 14.1593C62.6392 14.0037 62.3757 13.9259 62.0559 13.9259C61.7448 13.9259 61.4769 14.0037 61.2522 14.1593C61.0361 14.3148 60.872 14.5179 60.7596 14.7685C60.6473 15.0105 60.5911 15.2698 60.5911 15.5463C60.5911 15.8228 60.6473 16.0864 60.7596 16.337C60.872 16.5877 61.0361 16.7907 61.2522 16.9463C61.4769 17.1018 61.7448 17.1796 62.0559 17.1796ZM66.4164 18.5926V12.513H68.2053L68.2701 13.2778C68.4257 13.0704 68.6374 12.8716 68.9053 12.6815C69.1819 12.4914 69.5362 12.3963 69.9683 12.3963C70.1325 12.3963 70.2707 12.4049 70.3831 12.4222C70.5041 12.4395 70.6207 12.4698 70.7331 12.513L70.4349 14.1593C70.2448 14.0988 70.0201 14.0685 69.7609 14.0685C69.3201 14.0685 68.9615 14.2025 68.6849 14.4704C68.417 14.7296 68.2831 15.1012 68.2831 15.5852V18.5926H66.4164ZM76.23 16.7518L76.9948 17.9315C76.9084 17.992 76.7528 18.0914 76.5281 18.2296C76.3121 18.3679 76.0226 18.4975 75.6596 18.6185C75.2967 18.7395 74.8516 18.8 74.3244 18.8C73.6331 18.8 73.0368 18.6617 72.5355 18.3852C72.0343 18.1086 71.6497 17.7241 71.3818 17.2315C71.1139 16.7389 70.98 16.1728 70.98 15.5333C70.98 14.963 71.101 14.4315 71.343 13.9389C71.5936 13.4463 71.9522 13.0531 72.4189 12.7593C72.8942 12.4568 73.4602 12.3056 74.117 12.3056C74.7738 12.3056 75.3226 12.4568 75.7633 12.7593C76.2127 13.0531 76.5497 13.4636 76.7744 13.9907C77.0078 14.5093 77.1244 15.1099 77.1244 15.7926V16.1037H72.7948C72.8034 16.4235 72.9504 16.7086 73.2355 16.9593C73.5207 17.2099 73.9053 17.3352 74.3893 17.3352C74.8732 17.3352 75.2664 17.266 75.5689 17.1278C75.8714 16.9809 76.0917 16.8556 76.23 16.7518ZM72.7948 14.9111H75.3615C75.3615 14.7383 75.3139 14.5654 75.2189 14.3926C75.1325 14.2111 74.9942 14.0599 74.8041 13.9389C74.6226 13.8179 74.3893 13.7574 74.1041 13.7574C73.8189 13.7574 73.5769 13.8179 73.3781 13.9389C73.188 14.0599 73.0411 14.2111 72.9374 14.3926C72.8423 14.5654 72.7948 14.7383 72.7948 14.9111Z" fill="#002855"/>
</svg>
