<svg width="100" height="54" viewBox="0 0 100 54" fill="none" xmlns="http://www.w3.org/2000/svg">
  <path d="M47.27,3.08v6.44h-9.37V.16h6.44c1.61,0,2.93,1.31,2.93,2.93Z" fill="#fff"/>
  <path d="M47.27,18.9h-9.37v9.37h9.37v-9.37Z" fill="#fff"/>
  <path d="M28.53.16h-9.37v9.37h9.37V.16Z" fill="#ffd000"/>
  <path d="M9.8,7.67V.16H.43v25.18c0,1.61,1.31,2.93,2.93,2.93h6.44v-7.51c0-1.03.83-1.86,1.86-1.86h7.51v-9.37h-7.51c-1.03,0-1.86-.83-1.86-1.86Z" fill="#fff"/>
  <path d="M28.53,18.9h-9.37v9.37h9.37v-9.37Z" fill="#fff"/>
  <path d="M10.64,38.57c-.64,0-1.17-.21-1.6-.64-.42-.43-.63-.96-.63-1.61s.2-1.22.63-1.65c.42-.44.96-.64,1.62-.64s1.15.21,1.58.65c.43.44.64.96.64,1.6s-.21,1.2-.64,1.64c-.43.44-.95.66-1.6.66ZM13.18,33.84c-.68-.65-1.54-.97-2.55-.97s-1.87.33-2.54.97c-.67.65-1.01,1.48-1.01,2.47s.34,1.78,1,2.42c.66.64,1.51.96,2.5.96s1.9-.32,2.59-.96c.69-.64,1.04-1.46,1.04-2.44s-.35-1.8-1.03-2.45ZM41.02,32.95v3.73c0,1.07-.41,1.8-1.6,1.8s-1.6-.73-1.6-1.8v-3.73h-1.29v4c0,1.97,1.33,2.74,2.89,2.74s2.89-.77,2.89-2.74v-4h-1.29ZM33.22,32.95v5.5h2.8v1.15h-4.09v-6.66h1.29ZM28.58,35.95c.64,0,1.18-.3,1.18-.93s-.37-.93-1.18-.93h-.78v1.85h.78ZM28.94,32.95c1.4,0,2.1.91,2.1,2.07s-.87,2.09-2.15,2.09h-1.09v2.5h-1.29v-6.66h2.43ZM25.64,32.95v1.15h-2.19v5.5h-1.29v-5.5h-2.19v-1.15h5.66ZM45.4,32.86c.65,0,1.27.16,1.87.49v1.31c-.69-.42-1.15-.67-1.85-.67s-.94.24-.96.57c-.02.25.14.47.47.68.09.06.45.25,1.08.55.54.26.94.54,1.18.86.24.32.37.69.37,1.13,0,.57-.21,1.03-.62,1.39-.41.35-.95.53-1.6.53-.42,0-.79-.04-1.1-.14-.31-.09-.65-.25-1.03-.49v-1.46c.71.59,1.36.96,1.99.96.59,0,.99-.23.99-.63,0-.27-.13-.52-.45-.71-.27-.16-.63-.35-1.05-.58-.5-.28-.91-.53-1.17-.85-.26-.32-.39-.67-.39-1.09,0-.56.21-1,.62-1.34.42-.33.96-.5,1.65-.5M17.22,32.86c.65,0,1.27.16,1.87.49v1.31c-.69-.42-1.15-.67-1.85-.67s-.94.24-.96.57c-.02.25.14.47.47.68.09.06.45.25,1.08.55.54.26.94.54,1.19.86.24.32.36.69.36,1.13,0,.57-.21,1.03-.62,1.39s-.95.53-1.6.53c-.43,0-.79-.04-1.1-.14-.3-.09-.65-.25-1.03-.49v-1.46c.71.59,1.36.96,1.99.96.59,0,.99-.23.99-.63,0-.27-.12-.52-.45-.71-.27-.16-.63-.35-1.05-.58-.5-.28-.91-.53-1.17-.85-.26-.32-.39-.67-.39-1.09,0-.56.21-1,.62-1.34.42-.33.96-.5,1.65-.5M1.72,32.95v2.65h3.16v-2.65h1.29v6.66h-1.29v-2.66H1.72v2.66H.43v-6.66h1.29Z" fill="#fff"/>
  <line x1="58.2" y1=".07" x2="58.2" y2="39.93" fill="none" stroke="#fff" stroke-width=".32"/>
  <path d="M2.16,53.66c-.28,0-.53-.05-.77-.15-.24-.1-.44-.24-.62-.42-.18-.18-.31-.39-.41-.63-.1-.24-.15-.5-.15-.77s.05-.54.15-.77c.1-.24.23-.45.41-.63.18-.18.38-.32.62-.41.24-.1.5-.15.77-.15s.53.05.77.15c.24.1.44.24.62.41.18.18.32.39.41.63.1.24.15.49.15.77s-.05.53-.15.77c-.1.24-.24.45-.41.63-.18.18-.38.32-.62.42-.24.1-.49.15-.77.15ZM2.16,52.87c.22,0,.41-.05.57-.16.16-.11.28-.25.36-.43.09-.18.13-.38.13-.59s-.04-.41-.13-.58c-.08-.18-.2-.32-.36-.43-.16-.11-.35-.16-.57-.16s-.41.05-.57.16c-.16.1-.28.25-.36.43-.09.18-.13.37-.13.58s.04.41.13.59c.09.18.21.32.36.43.16.11.35.16.57.16ZM4.69,53.57v-3.74h2.51v.75h-1.66v.85h1.27v.72h-1.27v1.42h-.85ZM7.71,53.57v-3.74h2.51v.75h-1.66v.85h1.27v.72h-1.27v1.42h-.85ZM10.73,53.57v-3.74h.85v3.74h-.85ZM15.1,52.35l.58.53c-.1.14-.24.27-.4.39-.16.12-.34.21-.54.29-.2.07-.42.11-.65.11-.38,0-.71-.08-1-.25-.29-.17-.51-.4-.68-.69-.16-.3-.24-.63-.24-1.01,0-.28.05-.53.14-.77.09-.24.22-.45.39-.63.17-.18.38-.32.61-.42.24-.1.5-.15.79-.15.34,0,.65.06.91.19.26.13.48.31.65.55l-.58.55c-.11-.16-.24-.28-.4-.38-.15-.1-.34-.15-.55-.15-.22,0-.42.05-.58.16-.16.1-.29.25-.38.43-.09.18-.13.38-.13.59s.04.42.13.59c.09.18.21.32.38.42.16.1.35.15.57.15.18,0,.33-.02.45-.07.12-.05.22-.11.3-.18.09-.08.17-.16.24-.25ZM16.12,53.57v-3.74h.85v3.74h-.85ZM17.37,53.57l1.4-3.74h.94l1.37,3.74h-.92l-.29-.86h-1.32l-.29.86h-.89ZM18.74,52.05h.92l-.45-1.41-.47,1.41ZM21.47,53.57v-3.74h.85v2.99h1.79v.75h-2.63ZM25.35,53.04l.54-.59c.1.1.23.21.39.31.16.1.35.15.57.15.09,0,.17-.01.25-.04.08-.03.15-.08.2-.14.06-.06.08-.14.08-.22,0-.14-.07-.25-.2-.32-.13-.08-.35-.15-.64-.22-.28-.07-.52-.2-.71-.38-.19-.18-.28-.41-.28-.69,0-.21.05-.4.15-.57.1-.18.25-.32.45-.42.2-.11.46-.16.76-.16.25,0,.47.03.64.1.18.06.32.13.42.21.1.08.18.14.22.19l-.49.54c-.08-.06-.19-.13-.32-.21-.13-.08-.29-.12-.48-.12-.12,0-.23.04-.34.11-.1.07-.15.15-.15.25,0,.13.07.23.2.31.13.08.32.14.55.2.18.04.36.11.53.2.17.09.31.21.42.38.11.16.16.37.16.63,0,.22-.06.42-.19.6-.13.18-.3.31-.52.41-.22.1-.46.15-.73.15-.25,0-.47-.03-.66-.09-.19-.06-.36-.14-.5-.23-.14-.1-.26-.2-.36-.3ZM28.9,52.15v-2.32h.85v2.21c0,.24.05.44.16.59.11.15.3.22.56.22s.45-.07.55-.22c.1-.15.16-.35.16-.59v-2.21h.86v2.32c0,.3-.07.56-.2.79-.13.23-.31.41-.54.54-.23.13-.51.19-.83.19s-.59-.06-.83-.19-.42-.3-.55-.53c-.13-.23-.19-.5-.19-.8ZM32.73,53.57v-3.74h1.36c.31,0,.56.06.75.17.19.11.34.26.43.44.09.18.13.38.13.59,0,.27-.06.49-.18.67-.12.18-.28.32-.47.41-.19.09-.4.13-.62.13h-.58v1.32h-.82ZM33.56,51.57h.49c.15,0,.28-.05.37-.15s.14-.22.14-.37c0-.16-.05-.28-.14-.38-.09-.1-.22-.15-.38-.15h-.49v1.05ZM35.97,53.57v-3.74h2.55v.74h-1.71v.73h1.33v.72h-1.33v.81h1.83v.75h-2.68ZM39.22,53.57v-3.74h1.39c.29,0,.53.05.73.16.19.1.34.25.44.43.1.18.15.37.15.58,0,.24-.05.45-.16.63-.1.18-.25.33-.45.44l.83,1.5h-.93l-.69-1.37h-.47v1.37h-.82ZM40.05,51.52h.52c.16,0,.28-.05.37-.14.09-.09.13-.21.13-.35,0-.15-.05-.27-.14-.36-.09-.09-.21-.13-.36-.13h-.52v.99ZM42.3,53.57l1.4-3.74h.94l1.37,3.74h-.92l-.29-.86h-1.32l-.29.86h-.89ZM43.67,52.05h.92l-.45-1.41-.47,1.41ZM46.4,53.57v-3.74h.81l1.62,2.43v-2.43h.83v3.74h-.77l-1.66-2.47v2.47h-.83ZM50.39,53.57v-3.74h.81l1.62,2.43v-2.43h.83v3.74h-.77l-1.66-2.47v2.47h-.83ZM54.35,52.15v-2.32h.85v2.21c0,.24.05.44.16.59.11.15.3.22.56.22s.45-.07.55-.22c.1-.15.16-.35.16-.59v-2.21h.86v2.32c0,.3-.07.56-.2.79-.13.23-.31.41-.54.54-.23.13-.51.19-.83.19s-.59-.06-.83-.19c-.24-.13-.42-.3-.55-.53-.13-.23-.19-.5-.19-.8ZM57.69,53.57l1.4-3.74h.94l1.37,3.74h-.92l-.29-.86h-1.32l-.29.86h-.89ZM59.06,52.05h.92l-.45-1.41-.47,1.41ZM62.15,53.57v-2.99h-1.21v-.75h3.27v.75h-1.2v2.99h-.85ZM64.69,53.57v-3.74h.85v3.74h-.85ZM68.06,53.66c-.28,0-.53-.05-.77-.15-.24-.1-.44-.24-.62-.42-.18-.18-.31-.39-.41-.63-.1-.24-.15-.5-.15-.77s.05-.54.15-.77c.1-.24.23-.45.41-.63.18-.18.38-.32.62-.41.24-.1.5-.15.77-.15s.53.05.77.15c.24.1.44.24.62.41.18.18.32.39.41.63.1.24.15.49.15.77s-.05.53-.15.77c-.1.24-.24.45-.41.63-.18.18-.38.32-.62.42-.24.1-.49.15-.77.15ZM68.06,52.87c.22,0,.41-.05.57-.16.16-.11.28-.25.36-.43.09-.18.13-.38.13-.59s-.04-.41-.13-.58c-.08-.18-.2-.32-.36-.43-.16-.11-.35-.16-.57-.16s-.41.05-.57.16c-.16.1-.28.25-.36.43-.09.18-.13.37-.13.58s.04.41.13.59c.09.18.21.32.36.43.16.11.35.16.57.16ZM70.59,53.57v-3.74h.81l1.62,2.43v-2.43h.83v3.74h-.77l-1.66-2.47v2.47h-.83ZM75.59,53.57v-3.74h1.36c.31,0,.56.06.75.17.19.11.34.26.43.44.09.18.13.38.13.59,0,.27-.06.49-.18.67-.12.18-.28.32-.47.41-.19.09-.4.13-.62.13h-.58v1.32h-.82ZM76.42,51.57h.49c.15,0,.28-.05.37-.15s.14-.22.14-.37c0-.16-.05-.28-.14-.38-.09-.1-.22-.15-.38-.15h-.49v1.05ZM78.03,53.57l1.4-3.74h.94l1.37,3.74h-.92l-.29-.86h-1.32l-.29.86h-.89ZM79.4,52.05h.92l-.45-1.41-.47,1.41ZM82.13,53.57v-3.74h1.39c.29,0,.53.05.73.16.19.1.34.25.44.43.1.18.15.37.15.58,0,.24-.05.45-.16.63-.1.18-.25.33-.45.44l.83,1.5h-.93l-.69-1.37h-.47v1.37h-.82ZM82.95,51.52h.52c.16,0,.28-.05.37-.14.09-.09.13-.21.13-.35,0-.15-.05-.27-.14-.36-.09-.09-.21-.13-.36-.13h-.52v.99ZM86.39,53.57v-2.99h-1.21v-.75h3.27v.75h-1.2v2.99h-.85ZM88.93,53.57v-3.74h.81l1.62,2.43v-2.43h.83v3.74h-.77l-1.66-2.47v2.47h-.83ZM92.92,53.57v-3.74h2.55v.74h-1.71v.73h1.33v.72h-1.33v.81h1.83v.75h-2.68ZM96.17,53.57v-3.74h1.39c.29,0,.53.05.73.16.19.1.34.25.44.43.1.18.15.37.15.58,0,.24-.05.45-.16.63-.1.18-.25.33-.45.44l.83,1.5h-.93l-.69-1.37h-.47v1.37h-.82ZM96.99,51.52h.52c.16,0,.28-.05.37-.14.09-.09.13-.21.13-.35,0-.15-.05-.27-.14-.36-.09-.09-.21-.13-.36-.13h-.52v.99Z" fill="#fff"/>
  <path d="M99,0v26.28c0,3.98-2.32,6.09-3.88,6.99l-11.62,6.73-11.62-6.73c-1.56-.89-3.88-3-3.88-6.99V0h31Z" fill="#970e48"/>
  <path d="M70.42,2.43v23.86c0,2.92,1.66,4.31,2.65,4.88l10.42,6.04,10.42-6.04c.99-.57,2.65-1.96,2.65-4.88V2.43h-26.16ZM95.27,26.28c0,2.15-1.08,3.22-1.99,3.74l-9.78,5.66-9.77-5.66c-.91-.52-2-1.59-2-3.74V3.74h23.54v22.54ZM76.8,12.12s.29.4.29.8c.14-.27.42-.63,1.06-.76,0,0-.03,1.06-.78,1.34.54.39.52,1.66.6,2.61.15,1.81,1.59,2.61,2,4.05.34,1.17.05,2.43.4,3.6.5,1.67,2,2.45,3.6,2.8.89.19,1.6.32,1.59.65h-2.33c-2.88.02-3.85-.77-5.07-3.22-.12.07-.32.35-.02,1.05.53,1.21.85,2.17-.13,2.17h-3.43c.4-.72,1.74-.57,2.55-.68.79-.11-.02-.97-.95-2.03-1.74-1.98-1.41-3.59.68-5.21-.18-.1-.93.29-1.19.53-.1-.21-.14-.77-.15-1-.25.22-.58.63-.72.86-.11.18-.1.81-.1.81-.29-.14-.43-.57-.36-.9.07-.36.59-1.06,1-1.68.19-.29.6-2.08.77-2.18.27-.19.62-.52.71-.75.03-.08,0-.16,0-.16,0,0-.33.39-.8.52-.14.04-.29,0-.42.06-.12.05-.24.13-.37.17-.23.07-.49-.23-.61-.37-.17-.2-.09-.34.08-.49.37-.32.58-.49.88-.89.19-.26.59-.53,1.01-.51-.05-.33.02-.91.23-1.18h0ZM92.7,21.51v-4.86c0-3.09-2.5-4.24-5.59-4.24s-5.59,1.15-5.59,4.24v4.86c0,2.88,2.17,4.07,4.95,4.22,1.6,1.58,4.66,2.03,6.22-.16v-.77c-.73.43-1.66.57-2.42.39,1.46-.61,2.42-1.78,2.42-3.69h0ZM90.61,22.24c0,.77-.53,1.44-1.26,1.66-.43.13-.97.22-1.52.27-.89-.55-2.08-1.19-2.48-1.35-.4-.15-1.05-.16-1.67-.16,0,0-.05-.08-.05-.56v-6.18c0-.77.53-1.44,1.26-1.67.62-.19,1.47-.29,2.23-.29s1.61.1,2.23.29c.74.23,1.26.9,1.26,1.67v6.32h0ZM78.58,6.43h-.64l-1.06,2.89h.73l.17-.53h.97l.17.53h.73l-1.07-2.89ZM77.95,8.24l.31-.97.31.97h-.62ZM81.7,8.12c.31-.14.5-.37.5-.82,0-.57-.42-.88-1.09-.88h-1.12v2.89h.68v-1.01h.39l.51,1.01h.73v-.03l-.6-1.17ZM81.11,7.75h-.44v-.77h.44c.27,0,.41.15.41.39s-.14.38-.41.38h0ZM83.84,6.39c-.74,0-1.26.54-1.26,1.43v.1c0,.89.52,1.43,1.26,1.43s1.25-.54,1.25-1.43v-.1c0-.89-.52-1.43-1.26-1.43ZM84.4,7.93c0,.56-.2.87-.56.87s-.57-.31-.57-.87v-.11c0-.57.19-.87.56-.87s.56.3.56.87v.11ZM86.74,6.39c-.74,0-1.26.54-1.26,1.43v.1c0,.89.52,1.43,1.26,1.43s1.25-.54,1.25-1.43v-.1c0-.89-.52-1.43-1.26-1.43ZM87.3,7.93c0,.56-.2.87-.56.87s-.57-.31-.57-.87v-.11c0-.57.19-.87.56-.87s.56.3.56.87v.11ZM92.88,8.55c0-.17-.08-.27-.52-.41-.51-.17-.98-.41-.98-.93s.46-.82,1.1-.82,1.08.35,1.08.9h-.68c0-.21-.13-.36-.41-.36s-.41.13-.41.28c0,.17.2.27.53.37.62.19.96.47.96.96,0,.52-.42.81-1.06.81-.59,0-1.2-.29-1.2-.98h.68c0,.33.19.44.52.44.27,0,.38-.13.38-.27h0ZM89.14,9.32h-.68v-2.89h.68l1.1,1.87-.06-.67v-1.2h.68v2.89h-.68l-1.1-1.87.06.68v1.19ZM74.12,9.32h-.68v-2.89h.89l.66,1.42.66-1.42h.9v2.89h-.68v-.65l.07-1.49-.71,1.55h-.46l-.71-1.55.07,1.49v.65h0Z" fill="#fff"/>
</svg>