<?xml version="1.0" encoding="utf-8"?>
<!-- Generator: Adobe Illustrator 27.7.0, SVG Export Plug-In . SVG Version: 6.00 Build 0)  -->
<svg version="1.1" id="Layer_1" xmlns="http://www.w3.org/2000/svg" xmlns:xlink="http://www.w3.org/1999/xlink" x="0px" y="0px"
	 viewBox="0 0 300 600" style="enable-background:new 0 0 300 600;" xml:space="preserve">
<style type="text/css">
	.st0{fill:none;stroke:#000000;}
	.st1{fill:#FFFFFF;}
	.st2{fill:#99A9BB;}
</style>
<rect x="0.5" y="0.5" class="st0" width="299" height="599"/>
<path class="st1" d="M283.7,17.8l-4.9,5l4.7,4.9l-1.8,1.8l-4.7-4.8l-4.8,5l-1.8-1.8l4.9-5l-4.9-5l1.8-1.8l4.8,5l4.8-5L283.7,17.8z"
	/>
<path class="st2" d="M15.9,51v-8h2.7c0.6,0,1,0.1,1.4,0.3c0.4,0.2,0.6,0.4,0.8,0.7c0.2,0.3,0.3,0.6,0.3,1c0,0.3-0.1,0.6-0.2,0.9
	c-0.1,0.2-0.3,0.4-0.5,0.6c-0.2,0.1-0.4,0.2-0.6,0.3c0.2,0,0.3,0.1,0.5,0.2c0.2,0.1,0.4,0.2,0.6,0.3c0.2,0.1,0.3,0.3,0.4,0.6
	c0.1,0.2,0.2,0.5,0.2,0.9c0,0.6-0.1,1-0.4,1.3c-0.3,0.3-0.6,0.6-1.1,0.7c-0.4,0.1-1,0.2-1.5,0.2H15.9z M17,46.3h1.4
	c0.2,0,0.5,0,0.7-0.1c0.2-0.1,0.4-0.2,0.6-0.4c0.2-0.2,0.2-0.4,0.2-0.7c0-0.3-0.1-0.6-0.2-0.7c-0.1-0.2-0.3-0.3-0.6-0.3
	C18.9,44,18.7,44,18.5,44H17V46.3z M17,50h1.4c0.2,0,0.4,0,0.6,0c0.2,0,0.4-0.1,0.6-0.2c0.2-0.1,0.3-0.2,0.5-0.4
	c0.1-0.2,0.2-0.4,0.2-0.7c0-0.4-0.1-0.7-0.3-0.9c-0.2-0.2-0.4-0.3-0.7-0.4c-0.3-0.1-0.6-0.1-0.8-0.1H17V50z M23.9,51h-1.1v-5
	c0-0.1,0-0.1,0-0.2c0-0.1,0-0.2,0-0.3h1l0,0.9c0.1-0.1,0.2-0.3,0.4-0.4c0.2-0.2,0.4-0.3,0.6-0.4c0.2-0.1,0.5-0.2,0.9-0.2
	c0.1,0,0.2,0,0.3,0c0.1,0,0.2,0,0.3,0.1l-0.2,1c-0.1-0.1-0.3-0.1-0.6-0.1c-0.3,0-0.6,0.1-0.8,0.2c-0.2,0.2-0.4,0.4-0.6,0.6
	c-0.1,0.3-0.2,0.5-0.2,0.9V51z M29.6,51.2c-0.6,0-1.1-0.1-1.5-0.4c-0.4-0.3-0.8-0.6-1.1-1.1c-0.2-0.5-0.4-1-0.4-1.5
	c0-0.5,0.1-1,0.4-1.5c0.3-0.4,0.6-0.8,1.1-1.1c0.4-0.3,1-0.4,1.5-0.4s1.1,0.1,1.5,0.4c0.4,0.3,0.8,0.6,1.1,1.1
	c0.3,0.4,0.4,0.9,0.4,1.5c0,0.5-0.1,1-0.4,1.5c-0.3,0.4-0.6,0.8-1.1,1.1C30.6,51,30.1,51.2,29.6,51.2z M29.6,50.2
	c0.4,0,0.7-0.1,1-0.3c0.3-0.2,0.5-0.5,0.6-0.8c0.2-0.3,0.2-0.6,0.2-1c0-0.3-0.1-0.7-0.2-1c-0.1-0.3-0.4-0.6-0.6-0.8
	c-0.3-0.2-0.6-0.3-1-0.3s-0.7,0.1-1,0.3c-0.3,0.2-0.5,0.4-0.6,0.8c-0.1,0.3-0.2,0.6-0.2,1c0,0.3,0.1,0.7,0.2,1
	c0.2,0.3,0.4,0.6,0.6,0.8C28.9,50.1,29.2,50.2,29.6,50.2z M33.7,48.8v-3.3h1.1v3.3c0,0.5,0.1,0.9,0.3,1.1c0.2,0.2,0.5,0.4,0.9,0.4
	c0.4,0,0.7-0.1,1-0.3c0.2-0.2,0.4-0.5,0.5-0.8c0.1-0.3,0.2-0.7,0.2-1v-2.6h1.1v5c0,0,0,0.1,0,0.2c0,0.1,0,0.2,0,0.3h-1l0-0.8
	c-0.1,0.1-0.2,0.3-0.4,0.4c-0.2,0.1-0.4,0.3-0.6,0.4c-0.2,0.1-0.5,0.2-0.9,0.2c-0.7,0-1.3-0.2-1.6-0.6
	C33.9,50.1,33.7,49.5,33.7,48.8z M40.5,52.9l0.5-0.8c0.2,0.1,0.4,0.2,0.7,0.3c0.3,0.1,0.6,0.1,1,0.1c0.5,0,0.9-0.1,1.2-0.4
	c0.3-0.3,0.4-0.7,0.4-1.2v-0.7c-0.1,0.1-0.2,0.2-0.3,0.3c-0.1,0.1-0.3,0.2-0.6,0.3C43.1,51,42.9,51,42.5,51c-0.5,0-1-0.1-1.4-0.4
	c-0.4-0.2-0.7-0.6-0.9-1c-0.2-0.4-0.3-0.9-0.3-1.4c0-0.6,0.1-1.1,0.4-1.5c0.3-0.5,0.6-0.8,1.1-1.1s1-0.4,1.6-0.4
	c0.4,0,0.9,0,1.3,0.1c0.4,0.1,0.7,0.2,1,0.3V51c0,0.8-0.2,1.4-0.7,1.9c-0.5,0.4-1.1,0.7-2,0.7c-0.6,0-1-0.1-1.4-0.2
	C41,53.2,40.7,53.1,40.5,52.9z M44.3,48.7v-2.3c-0.1,0-0.2-0.1-0.4-0.1c-0.2,0-0.4-0.1-0.8-0.1c-0.4,0-0.8,0.1-1.1,0.3
	c-0.3,0.2-0.5,0.4-0.7,0.7c-0.2,0.3-0.3,0.7-0.3,1.1c0,0.3,0.1,0.6,0.2,0.9c0.1,0.3,0.3,0.5,0.5,0.7c0.2,0.2,0.5,0.3,0.9,0.3
	c0.4,0,0.7-0.1,0.9-0.2c0.2-0.1,0.4-0.3,0.5-0.5C44.2,49.2,44.3,49,44.3,48.7z M46.8,51v-8h1.1v3.3c0.1-0.1,0.2-0.3,0.4-0.4
	c0.2-0.2,0.4-0.3,0.6-0.4c0.2-0.1,0.5-0.2,0.9-0.2c0.7,0,1.3,0.2,1.6,0.6c0.4,0.4,0.5,1,0.5,1.7V51h-1.1v-3.3c0-0.5-0.1-0.9-0.3-1.1
	c-0.2-0.2-0.5-0.4-0.9-0.4c-0.4,0-0.7,0.1-1,0.3c-0.2,0.2-0.4,0.5-0.5,0.8c-0.1,0.3-0.1,0.7-0.1,1V51H46.8z M53.8,49.2v-2.9h-1v-0.9
	h1v-1.8h1.1v1.8h1.6v0.9h-1.6v2.7c0,0.4,0.1,0.8,0.2,0.9c0.1,0.2,0.3,0.3,0.6,0.3c0.2,0,0.4,0,0.5-0.1c0.1-0.1,0.3-0.2,0.4-0.3
	l0.5,0.7c-0.2,0.2-0.5,0.4-0.7,0.5c-0.2,0.1-0.5,0.2-0.9,0.2c-0.6,0-1-0.2-1.3-0.5C54,50.3,53.8,49.8,53.8,49.2z M60.6,49.2v-2.9h-1
	v-0.9h1v-1.8h1.1v1.8h1.6v0.9h-1.6v2.7c0,0.4,0.1,0.8,0.2,0.9c0.1,0.2,0.3,0.3,0.6,0.3c0.2,0,0.4,0,0.5-0.1c0.1-0.1,0.3-0.2,0.4-0.3
	l0.5,0.7c-0.2,0.2-0.5,0.4-0.7,0.5c-0.2,0.1-0.5,0.2-0.9,0.2c-0.6,0-1-0.2-1.3-0.5C60.7,50.3,60.6,49.8,60.6,49.2z M67,51.2
	c-0.6,0-1.1-0.1-1.5-0.4c-0.4-0.3-0.8-0.6-1.1-1.1c-0.2-0.5-0.4-1-0.4-1.5c0-0.5,0.1-1,0.4-1.5c0.3-0.4,0.6-0.8,1.1-1.1
	c0.4-0.3,1-0.4,1.5-0.4s1.1,0.1,1.5,0.4c0.4,0.3,0.8,0.6,1.1,1.1c0.3,0.4,0.4,0.9,0.4,1.5c0,0.5-0.1,1-0.4,1.5
	c-0.3,0.4-0.6,0.8-1.1,1.1C68.1,51,67.6,51.2,67,51.2z M67,50.2c0.4,0,0.7-0.1,1-0.3c0.3-0.2,0.5-0.5,0.6-0.8c0.2-0.3,0.2-0.6,0.2-1
	c0-0.3-0.1-0.7-0.2-1c-0.1-0.3-0.4-0.6-0.6-0.8c-0.3-0.2-0.6-0.3-1-0.3c-0.4,0-0.7,0.1-1,0.3c-0.3,0.2-0.5,0.4-0.6,0.8
	c-0.1,0.3-0.2,0.6-0.2,1c0,0.3,0.1,0.7,0.2,1c0.2,0.3,0.4,0.6,0.6,0.8C66.3,50.1,66.7,50.2,67,50.2z M72.9,53.1l0.5-0.8
	c0.1,0.1,0.2,0.1,0.3,0.2c0.1,0.1,0.2,0.1,0.4,0.1c0.3,0,0.4-0.1,0.6-0.3c0.1-0.2,0.3-0.6,0.5-1l0.1-0.4l-2.5-5.5H74l1.8,4.2
	l1.6-4.2h1.2l-2.2,5.4c-0.1,0.2-0.2,0.5-0.3,0.8c-0.1,0.3-0.2,0.6-0.4,0.9c-0.2,0.3-0.3,0.5-0.6,0.7c-0.2,0.2-0.5,0.3-0.9,0.3
	c-0.3,0-0.5,0-0.7-0.1C73.2,53.4,73.1,53.3,72.9,53.1z M81.8,51.2c-0.6,0-1.1-0.1-1.5-0.4c-0.4-0.3-0.8-0.6-1.1-1.1
	c-0.2-0.5-0.4-1-0.4-1.5c0-0.5,0.1-1,0.4-1.5c0.3-0.4,0.6-0.8,1.1-1.1c0.4-0.3,1-0.4,1.5-0.4c0.6,0,1.1,0.1,1.5,0.4
	c0.4,0.3,0.8,0.6,1.1,1.1c0.3,0.4,0.4,0.9,0.4,1.5c0,0.5-0.1,1-0.4,1.5c-0.3,0.4-0.6,0.8-1.1,1.1C82.9,51,82.4,51.2,81.8,51.2z
	 M81.8,50.2c0.4,0,0.7-0.1,1-0.3c0.3-0.2,0.5-0.5,0.6-0.8c0.2-0.3,0.2-0.6,0.2-1c0-0.3-0.1-0.7-0.2-1c-0.1-0.3-0.4-0.6-0.6-0.8
	c-0.3-0.2-0.6-0.3-1-0.3c-0.4,0-0.7,0.1-1,0.3c-0.3,0.2-0.5,0.4-0.6,0.8c-0.1,0.3-0.2,0.6-0.2,1c0,0.3,0.1,0.7,0.2,1
	c0.2,0.3,0.4,0.6,0.6,0.8C81.1,50.1,81.4,50.2,81.8,50.2z M85.9,48.8v-3.3H87v3.3c0,0.5,0.1,0.9,0.3,1.1c0.2,0.2,0.5,0.4,0.9,0.4
	c0.4,0,0.7-0.1,1-0.3c0.2-0.2,0.4-0.5,0.5-0.8c0.1-0.3,0.2-0.7,0.2-1v-2.6H91v5c0,0,0,0.1,0,0.2c0,0.1,0,0.2,0,0.3h-1l0-0.8
	c-0.1,0.1-0.2,0.3-0.4,0.4c-0.2,0.1-0.4,0.3-0.6,0.4c-0.2,0.1-0.5,0.2-0.9,0.2c-0.7,0-1.3-0.2-1.6-0.6S85.9,49.5,85.9,48.8z
	 M94.6,50.8V43h1.1v3c0.1-0.2,0.3-0.3,0.6-0.5c0.3-0.2,0.7-0.3,1.1-0.3c0.6,0,1,0.1,1.4,0.4c0.4,0.3,0.7,0.6,0.9,1
	c0.2,0.4,0.3,0.9,0.3,1.5c0,0.6-0.1,1.1-0.4,1.6c-0.3,0.4-0.6,0.8-1.1,1.1c-0.5,0.3-1,0.4-1.6,0.4c-0.5,0-0.9,0-1.3-0.1
	C95.2,51,94.9,50.9,94.6,50.8z M95.7,47.9v2.2c0.1,0,0.2,0.1,0.4,0.1c0.2,0,0.4,0,0.7,0c0.6,0,1.1-0.2,1.5-0.6
	c0.4-0.4,0.6-0.9,0.6-1.5c0-0.3-0.1-0.7-0.2-1c-0.1-0.3-0.3-0.5-0.5-0.7c-0.2-0.2-0.5-0.3-0.9-0.3c-0.3,0-0.6,0.1-0.9,0.2
	c-0.2,0.2-0.4,0.4-0.5,0.6C95.8,47.3,95.7,47.6,95.7,47.9z M100.4,53.1l0.5-0.8c0.1,0.1,0.2,0.1,0.3,0.2c0.1,0.1,0.2,0.1,0.4,0.1
	c0.3,0,0.4-0.1,0.6-0.3c0.1-0.2,0.3-0.6,0.5-1l0.1-0.4l-2.5-5.5h1.2l1.8,4.2l1.6-4.2h1.2l-2.2,5.4c-0.1,0.2-0.2,0.5-0.3,0.8
	c-0.1,0.3-0.2,0.6-0.4,0.9c-0.2,0.3-0.3,0.5-0.6,0.7c-0.2,0.2-0.5,0.3-0.9,0.3c-0.3,0-0.5,0-0.7-0.1
	C100.8,53.4,100.6,53.3,100.4,53.1z M109.3,51v-8h1.2v3.3h4.4V43h1.2v8h-1.2v-3.6h-4.4V51H109.3z M120.3,51.2
	c-0.6,0-1.1-0.1-1.5-0.4c-0.4-0.3-0.8-0.6-1.1-1.1c-0.2-0.5-0.4-1-0.4-1.5c0-0.5,0.1-1,0.4-1.5c0.3-0.4,0.6-0.8,1.1-1.1
	c0.4-0.3,1-0.4,1.5-0.4s1.1,0.1,1.5,0.4c0.4,0.3,0.8,0.6,1.1,1.1c0.3,0.4,0.4,0.9,0.4,1.5c0,0.5-0.1,1-0.4,1.5
	c-0.3,0.4-0.6,0.8-1.1,1.1C121.4,51,120.9,51.2,120.3,51.2z M120.3,50.2c0.4,0,0.7-0.1,1-0.3c0.3-0.2,0.5-0.5,0.6-0.8
	c0.2-0.3,0.2-0.6,0.2-1c0-0.3-0.1-0.7-0.2-1c-0.1-0.3-0.4-0.6-0.6-0.8c-0.3-0.2-0.6-0.3-1-0.3c-0.4,0-0.7,0.1-1,0.3
	c-0.3,0.2-0.5,0.4-0.6,0.8c-0.1,0.3-0.2,0.6-0.2,1c0,0.3,0.1,0.7,0.2,1c0.2,0.3,0.4,0.6,0.6,0.8C119.6,50.1,119.9,50.2,120.3,50.2z
	 M124.2,50.3l0.7-0.7c0.2,0.2,0.4,0.4,0.7,0.5c0.3,0.1,0.6,0.2,1,0.2c0.4,0,0.7-0.1,0.9-0.2c0.2-0.1,0.4-0.3,0.4-0.6
	c0-0.2,0-0.3-0.1-0.4s-0.3-0.2-0.5-0.3c-0.2-0.1-0.6-0.2-1-0.3c-0.3-0.1-0.6-0.2-0.8-0.3c-0.3-0.1-0.5-0.3-0.7-0.5
	c-0.2-0.2-0.3-0.5-0.3-0.9c0-0.4,0.1-0.7,0.3-0.9c0.2-0.2,0.5-0.4,0.8-0.6c0.3-0.1,0.7-0.2,1.1-0.2c0.5,0,0.9,0.1,1.2,0.2
	c0.3,0.1,0.6,0.3,0.9,0.5l-0.6,0.7c-0.2-0.2-0.4-0.3-0.6-0.4c-0.2-0.1-0.5-0.2-0.9-0.2c-0.3,0-0.6,0.1-0.8,0.2s-0.3,0.3-0.3,0.6
	c0,0.2,0.1,0.4,0.4,0.5c0.3,0.1,0.6,0.2,1.1,0.3c0.4,0.1,0.7,0.2,0.9,0.3c0.3,0.1,0.5,0.3,0.7,0.5c0.2,0.2,0.3,0.5,0.3,0.9
	c0,0.4-0.1,0.7-0.3,0.9c-0.2,0.2-0.5,0.4-0.9,0.6c-0.4,0.1-0.7,0.2-1.1,0.2C125.5,51.2,124.7,50.9,124.2,50.3z M130.6,49.2v-2.9h-1
	v-0.9h1v-1.8h1.1v1.8h1.6v0.9h-1.6v2.7c0,0.4,0.1,0.8,0.2,0.9c0.1,0.2,0.3,0.3,0.6,0.3c0.2,0,0.4,0,0.5-0.1c0.1-0.1,0.3-0.2,0.4-0.3
	l0.5,0.7c-0.2,0.2-0.5,0.4-0.7,0.5c-0.2,0.1-0.5,0.2-0.9,0.2c-0.6,0-1-0.2-1.3-0.5C130.8,50.3,130.6,49.8,130.6,49.2z M134.5,48.2
	v-1h3.5v1H134.5z M139.8,51v-8h2.5c0.5,0,1,0.1,1.3,0.2c0.4,0.1,0.6,0.3,0.9,0.6c0.2,0.2,0.4,0.5,0.4,0.8c0.1,0.3,0.1,0.6,0.1,0.8
	c0,0.5-0.1,1-0.3,1.3c-0.2,0.4-0.6,0.6-1,0.8c-0.4,0.2-0.9,0.3-1.4,0.3H141V51H139.8z M141,46.9h1.4c0.5,0,0.9-0.1,1.1-0.4
	c0.3-0.3,0.4-0.6,0.4-1c0-0.4-0.1-0.8-0.4-1.1c-0.3-0.3-0.6-0.4-1.1-0.4H141V46.9z M146.2,51v-8h1.1v8H146.2z M148.7,48.8v-3.3h1.1
	v3.3c0,0.5,0.1,0.9,0.3,1.1c0.2,0.2,0.5,0.4,0.9,0.4c0.4,0,0.7-0.1,1-0.3c0.2-0.2,0.4-0.5,0.5-0.8c0.1-0.3,0.2-0.7,0.2-1v-2.6h1.1v5
	c0,0,0,0.1,0,0.2c0,0.1,0,0.2,0,0.3h-1l0-0.8c-0.1,0.1-0.2,0.3-0.4,0.4c-0.2,0.1-0.4,0.3-0.6,0.4c-0.2,0.1-0.5,0.2-0.9,0.2
	c-0.7,0-1.3-0.2-1.6-0.6C148.9,50.1,148.7,49.5,148.7,48.8z M155,50.3l0.7-0.7c0.2,0.2,0.4,0.4,0.7,0.5s0.6,0.2,1,0.2
	c0.4,0,0.7-0.1,0.9-0.2c0.2-0.1,0.4-0.3,0.4-0.6c0-0.2,0-0.3-0.1-0.4c-0.1-0.1-0.3-0.2-0.5-0.3c-0.2-0.1-0.6-0.2-1-0.3
	c-0.3-0.1-0.6-0.2-0.8-0.3c-0.3-0.1-0.5-0.3-0.7-0.5c-0.2-0.2-0.3-0.5-0.3-0.9c0-0.4,0.1-0.7,0.3-0.9c0.2-0.2,0.5-0.4,0.8-0.6
	c0.3-0.1,0.7-0.2,1.1-0.2c0.5,0,0.9,0.1,1.2,0.2c0.3,0.1,0.6,0.3,0.9,0.5l-0.6,0.7c-0.2-0.2-0.4-0.3-0.6-0.4
	c-0.2-0.1-0.5-0.2-0.9-0.2c-0.3,0-0.6,0.1-0.8,0.2c-0.2,0.1-0.3,0.3-0.3,0.6c0,0.2,0.1,0.4,0.4,0.5c0.3,0.1,0.6,0.2,1.1,0.3
	c0.4,0.1,0.7,0.2,0.9,0.3c0.3,0.1,0.5,0.3,0.7,0.5c0.2,0.2,0.3,0.5,0.3,0.9c0,0.4-0.1,0.7-0.3,0.9c-0.2,0.2-0.5,0.4-0.9,0.6
	c-0.4,0.1-0.7,0.2-1.1,0.2C156.3,51.2,155.5,50.9,155,50.3z M163.3,51v-8h2.5c0.5,0,1,0.1,1.3,0.2c0.4,0.1,0.6,0.3,0.9,0.6
	c0.2,0.2,0.4,0.5,0.4,0.8c0.1,0.3,0.1,0.6,0.1,0.8c0,0.5-0.1,1-0.3,1.3c-0.2,0.4-0.6,0.6-1,0.8c-0.4,0.2-0.9,0.3-1.4,0.3h-1.5V51
	H163.3z M164.4,46.9h1.4c0.5,0,0.9-0.1,1.1-0.4c0.3-0.3,0.4-0.6,0.4-1c0-0.4-0.1-0.8-0.4-1.1c-0.3-0.3-0.6-0.4-1.1-0.4h-1.4V46.9z
	 M170.4,49.2v-2.9h-1v-0.9h1v-1.8h1.1v1.8h1.6v0.9h-1.6v2.7c0,0.4,0.1,0.8,0.2,0.9c0.1,0.2,0.3,0.3,0.6,0.3c0.2,0,0.4,0,0.5-0.1
	c0.1-0.1,0.3-0.2,0.4-0.3l0.5,0.7c-0.2,0.2-0.5,0.4-0.7,0.5c-0.2,0.1-0.5,0.2-0.9,0.2c-0.6,0-1-0.2-1.3-0.5
	C170.5,50.3,170.4,49.8,170.4,49.2z M173.8,53.1l0.5-0.8c0.1,0.1,0.2,0.1,0.3,0.2c0.1,0.1,0.2,0.1,0.4,0.1c0.3,0,0.4-0.1,0.6-0.3
	c0.1-0.2,0.3-0.6,0.5-1l0.1-0.4l-2.5-5.5h1.2l1.8,4.2l1.6-4.2h1.2l-2.2,5.4c-0.1,0.2-0.2,0.5-0.3,0.8c-0.1,0.3-0.2,0.6-0.4,0.9
	c-0.2,0.3-0.3,0.5-0.6,0.7c-0.2,0.2-0.5,0.3-0.9,0.3c-0.3,0-0.5,0-0.7-0.1C174.1,53.4,173.9,53.3,173.8,53.1z M182.6,51v-8h1.2v7
	h4.2v1H182.6z M189,44.4v-1.2h1.2v1.2H189z M189.1,51v-5.6h1.1V51H189.1z M192.8,51h-1.1v-5c0-0.1,0-0.1,0-0.2c0-0.1,0-0.2,0-0.4h1
	l0,0.8c0.1-0.1,0.2-0.3,0.4-0.4c0.2-0.2,0.3-0.3,0.6-0.4c0.2-0.1,0.5-0.2,0.9-0.2c0.4,0,0.8,0.1,1.1,0.3c0.3,0.2,0.5,0.4,0.7,0.7
	c0.2-0.3,0.5-0.5,0.8-0.7c0.3-0.2,0.7-0.3,1.2-0.3c0.7,0,1.3,0.2,1.6,0.6c0.3,0.4,0.5,1,0.5,1.7V51h-1.1v-3.3c0-1-0.4-1.5-1.2-1.5
	c-0.3,0-0.6,0.1-0.8,0.2c-0.2,0.2-0.4,0.4-0.6,0.6c-0.1,0.2-0.2,0.5-0.2,0.8V51h-1.1v-3.3c0-0.5-0.1-0.9-0.3-1.1
	c-0.2-0.2-0.5-0.4-0.9-0.4c-0.4,0-0.7,0.1-0.9,0.3s-0.4,0.5-0.5,0.8c-0.1,0.3-0.1,0.7-0.1,1V51z M201.9,44.4v-1.2h1.2v1.2H201.9z
	 M201.9,51v-5.6h1.1V51H201.9z M205,49.2v-2.9h-1v-0.9h1v-1.8h1.1v1.8h1.6v0.9h-1.6v2.7c0,0.4,0.1,0.8,0.2,0.9
	c0.1,0.2,0.3,0.3,0.6,0.3c0.2,0,0.4,0,0.5-0.1c0.1-0.1,0.3-0.2,0.4-0.3l0.5,0.7c-0.2,0.2-0.5,0.4-0.7,0.5c-0.2,0.1-0.5,0.2-0.9,0.2
	c-0.6,0-1-0.2-1.3-0.5C205.2,50.3,205,49.8,205,49.2z M213.3,49.5l0.6,0.6c-0.1,0.1-0.2,0.2-0.4,0.4c-0.2,0.2-0.5,0.3-0.8,0.4
	c-0.3,0.1-0.7,0.2-1.2,0.2c-0.6,0-1.1-0.1-1.5-0.4c-0.4-0.3-0.8-0.6-1-1.1c-0.2-0.5-0.4-1-0.4-1.6c0-0.5,0.1-1,0.3-1.5
	c0.2-0.4,0.6-0.8,1-1c0.4-0.3,0.9-0.4,1.5-0.4c0.6,0,1.2,0.2,1.6,0.5c0.4,0.3,0.7,0.7,0.9,1.2c0.2,0.5,0.3,1,0.3,1.6h-4.4
	c0,0.3,0.1,0.6,0.3,0.9c0.2,0.3,0.4,0.5,0.7,0.6c0.3,0.1,0.6,0.2,0.9,0.2c0.5,0,0.9-0.1,1.2-0.2C212.9,49.8,213.1,49.7,213.3,49.5z
	 M209.6,47.7h3.3c0-0.4-0.2-0.8-0.5-1.1c-0.3-0.3-0.7-0.5-1.2-0.5c-0.3,0-0.6,0.1-0.9,0.2c-0.2,0.2-0.4,0.3-0.6,0.6
	C209.7,47.2,209.6,47.5,209.6,47.7z M219.3,51l0-0.7c-0.1,0.1-0.2,0.2-0.3,0.3c-0.1,0.1-0.3,0.3-0.6,0.4c-0.2,0.1-0.6,0.2-0.9,0.2
	c-0.5,0-0.9-0.1-1.3-0.3c-0.4-0.2-0.7-0.6-0.9-1s-0.3-0.9-0.3-1.5c0-0.5,0.1-1,0.3-1.4c0.2-0.4,0.4-0.7,0.7-0.9
	c0.3-0.2,0.6-0.4,0.9-0.5c0.3-0.1,0.7-0.2,0.9-0.2c0.3,0,0.6,0,0.8,0.1c0.2,0.1,0.4,0.2,0.7,0.3V43h1.1v7.4c0,0,0,0.1,0,0.2
	c0,0.1,0,0.2,0,0.3H219.3z M219.2,48.6v-2c-0.1-0.1-0.3-0.2-0.6-0.3c-0.2-0.1-0.5-0.1-0.8-0.1c-0.5,0-1,0.2-1.3,0.6
	c-0.3,0.4-0.5,0.9-0.5,1.5c0,0.4,0.1,0.7,0.2,1c0.1,0.3,0.3,0.5,0.5,0.7c0.2,0.2,0.5,0.3,0.9,0.3c0.4,0,0.7-0.1,0.9-0.3
	c0.2-0.2,0.4-0.4,0.5-0.6C219.2,49.1,219.2,48.9,219.2,48.6z M221.9,51v-1.3h1.4V51H221.9z M227.2,51v-8h5v1h-3.9v2.4h3v1h-3V51
	H227.2z M235.2,51.2c-0.6,0-1.1-0.1-1.5-0.4c-0.4-0.3-0.8-0.6-1.1-1.1c-0.2-0.5-0.4-1-0.4-1.5c0-0.5,0.1-1,0.4-1.5
	c0.3-0.4,0.6-0.8,1.1-1.1c0.4-0.3,1-0.4,1.5-0.4c0.6,0,1.1,0.1,1.5,0.4c0.4,0.3,0.8,0.6,1.1,1.1c0.3,0.4,0.4,0.9,0.4,1.5
	c0,0.5-0.1,1-0.4,1.5c-0.3,0.4-0.6,0.8-1.1,1.1C236.3,51,235.8,51.2,235.2,51.2z M235.2,50.2c0.4,0,0.7-0.1,1-0.3
	c0.3-0.2,0.5-0.5,0.6-0.8c0.2-0.3,0.2-0.6,0.2-1c0-0.3-0.1-0.7-0.2-1c-0.1-0.3-0.4-0.6-0.6-0.8c-0.3-0.2-0.6-0.3-1-0.3
	s-0.7,0.1-1,0.3c-0.3,0.2-0.5,0.4-0.6,0.8c-0.1,0.3-0.2,0.6-0.2,1c0,0.3,0.1,0.7,0.2,1c0.2,0.3,0.4,0.6,0.6,0.8
	C234.5,50.1,234.9,50.2,235.2,50.2z M240.5,51h-1.1v-5c0-0.1,0-0.1,0-0.2c0-0.1,0-0.2,0-0.3h1l0,0.9c0.1-0.1,0.2-0.3,0.4-0.4
	c0.2-0.2,0.4-0.3,0.6-0.4c0.2-0.1,0.5-0.2,0.9-0.2c0.1,0,0.2,0,0.3,0c0.1,0,0.2,0,0.3,0.1l-0.2,1c-0.1-0.1-0.3-0.1-0.6-0.1
	c-0.3,0-0.6,0.1-0.8,0.2c-0.2,0.2-0.4,0.4-0.6,0.6s-0.2,0.5-0.2,0.9V51z M247,51H246v-5c0-0.1,0-0.1,0-0.2c0-0.1,0-0.2,0-0.4h1
	l0,0.8c0.1-0.1,0.2-0.3,0.4-0.4c0.2-0.2,0.3-0.3,0.6-0.4c0.2-0.1,0.5-0.2,0.9-0.2c0.4,0,0.8,0.1,1.1,0.3c0.3,0.2,0.5,0.4,0.7,0.7
	c0.2-0.3,0.5-0.5,0.8-0.7c0.3-0.2,0.7-0.3,1.2-0.3c0.7,0,1.3,0.2,1.6,0.6c0.3,0.4,0.5,1,0.5,1.7V51h-1.1v-3.3c0-1-0.4-1.5-1.2-1.5
	c-0.3,0-0.6,0.1-0.8,0.2c-0.2,0.2-0.4,0.4-0.6,0.6c-0.1,0.2-0.2,0.5-0.2,0.8V51h-1.1v-3.3c0-0.5-0.1-0.9-0.3-1.1
	c-0.2-0.2-0.5-0.4-0.9-0.4c-0.4,0-0.7,0.1-0.9,0.3c-0.2,0.2-0.4,0.5-0.5,0.8c-0.1,0.3-0.1,0.7-0.1,1V51z M258.8,51.2
	c-0.6,0-1.1-0.1-1.5-0.4c-0.4-0.3-0.8-0.6-1.1-1.1c-0.2-0.5-0.4-1-0.4-1.5c0-0.5,0.1-1,0.4-1.5c0.3-0.4,0.6-0.8,1.1-1.1
	c0.4-0.3,1-0.4,1.5-0.4c0.6,0,1.1,0.1,1.5,0.4c0.4,0.3,0.8,0.6,1.1,1.1c0.3,0.4,0.4,0.9,0.4,1.5c0,0.5-0.1,1-0.4,1.5
	c-0.3,0.4-0.6,0.8-1.1,1.1C259.9,51,259.4,51.2,258.8,51.2z M258.8,50.2c0.4,0,0.7-0.1,1-0.3c0.3-0.2,0.5-0.5,0.6-0.8
	c0.2-0.3,0.2-0.6,0.2-1c0-0.3-0.1-0.7-0.2-1c-0.1-0.3-0.4-0.6-0.6-0.8c-0.3-0.2-0.6-0.3-1-0.3s-0.7,0.1-1,0.3
	c-0.3,0.2-0.5,0.4-0.6,0.8c-0.1,0.3-0.2,0.6-0.2,1c0,0.3,0.1,0.7,0.2,1c0.2,0.3,0.4,0.6,0.6,0.8C258.1,50.1,258.5,50.2,258.8,50.2z
	 M264.1,51H263v-5c0-0.1,0-0.1,0-0.2c0-0.1,0-0.2,0-0.3h1l0,0.9c0.1-0.1,0.2-0.3,0.4-0.4c0.2-0.2,0.4-0.3,0.6-0.4
	c0.2-0.1,0.5-0.2,0.9-0.2c0.1,0,0.2,0,0.3,0c0.1,0,0.2,0,0.3,0.1l-0.2,1c-0.1-0.1-0.3-0.1-0.6-0.1c-0.3,0-0.6,0.1-0.8,0.2
	c-0.2,0.2-0.4,0.4-0.6,0.6c-0.1,0.3-0.2,0.5-0.2,0.9V51z M271.6,49.5l0.6,0.6c-0.1,0.1-0.2,0.2-0.4,0.4c-0.2,0.2-0.5,0.3-0.8,0.4
	c-0.3,0.1-0.7,0.2-1.2,0.2c-0.6,0-1.1-0.1-1.5-0.4c-0.4-0.3-0.8-0.6-1-1.1c-0.2-0.5-0.4-1-0.4-1.6c0-0.5,0.1-1,0.3-1.5
	c0.2-0.4,0.6-0.8,1-1c0.4-0.3,0.9-0.4,1.5-0.4c0.6,0,1.2,0.2,1.6,0.5s0.7,0.7,0.9,1.2c0.2,0.5,0.3,1,0.3,1.6h-4.4
	c0,0.3,0.1,0.6,0.3,0.9c0.2,0.3,0.4,0.5,0.7,0.6c0.3,0.1,0.6,0.2,0.9,0.2c0.5,0,0.9-0.1,1.2-0.2C271.2,49.8,271.4,49.7,271.6,49.5z
	 M267.9,47.7h3.3c0-0.4-0.2-0.8-0.5-1.1c-0.3-0.3-0.7-0.5-1.2-0.5c-0.3,0-0.6,0.1-0.9,0.2c-0.2,0.2-0.4,0.3-0.6,0.6
	C268,47.2,267.9,47.5,267.9,47.7z M15.7,56.4v-1.2h1.2v1.2H15.7z M15.8,63v-5.6h1.1V63H15.8z M19.5,63h-1.1v-5c0-0.1,0-0.1,0-0.2
	c0-0.1,0-0.2,0-0.4h1l0,0.8c0.1-0.1,0.2-0.3,0.4-0.4c0.2-0.2,0.4-0.3,0.6-0.4c0.2-0.1,0.5-0.2,0.9-0.2c0.7,0,1.3,0.2,1.6,0.6
	c0.4,0.4,0.5,1,0.5,1.7V63h-1.1v-3.3c0-0.5-0.1-0.9-0.3-1.1c-0.2-0.2-0.5-0.4-0.9-0.4c-0.4,0-0.7,0.1-1,0.3
	c-0.2,0.2-0.4,0.5-0.5,0.8c-0.1,0.3-0.1,0.7-0.1,1V63z M25.4,63v-4.7h-1v-0.9h1V57c0-0.5,0.1-0.9,0.3-1.2s0.4-0.6,0.7-0.7
	s0.6-0.2,0.9-0.2c0.3,0,0.6,0,0.9,0.1c0.3,0.1,0.6,0.2,0.8,0.5l-0.5,0.7c-0.3-0.2-0.6-0.4-0.9-0.4c-0.3,0-0.6,0.1-0.8,0.3
	c-0.2,0.2-0.3,0.5-0.3,1v0.4H28v0.9h-1.6V63H25.4z M31.3,63.2c-0.6,0-1.1-0.1-1.5-0.4c-0.4-0.3-0.8-0.6-1.1-1.1
	c-0.2-0.5-0.4-1-0.4-1.5c0-0.5,0.1-1,0.4-1.5c0.3-0.4,0.6-0.8,1.1-1.1c0.4-0.3,1-0.4,1.5-0.4s1.1,0.1,1.5,0.4
	c0.4,0.3,0.8,0.6,1.1,1.1c0.3,0.4,0.4,0.9,0.4,1.5c0,0.5-0.1,1-0.4,1.5c-0.3,0.4-0.6,0.8-1.1,1.1C32.4,63,31.9,63.2,31.3,63.2z
	 M31.3,62.2c0.4,0,0.7-0.1,1-0.3c0.3-0.2,0.5-0.5,0.6-0.8c0.2-0.3,0.2-0.6,0.2-1c0-0.3-0.1-0.7-0.2-1c-0.1-0.3-0.4-0.6-0.6-0.8
	c-0.3-0.2-0.6-0.3-1-0.3s-0.7,0.1-1,0.3c-0.3,0.2-0.5,0.4-0.6,0.8c-0.1,0.3-0.2,0.6-0.2,1c0,0.3,0.1,0.7,0.2,1
	c0.2,0.3,0.4,0.6,0.6,0.8C30.6,62.1,31,62.2,31.3,62.2z M36.6,63h-1.1v-5c0-0.1,0-0.1,0-0.2c0-0.1,0-0.2,0-0.3h1l0,0.9
	c0.1-0.1,0.2-0.3,0.4-0.4c0.2-0.2,0.4-0.3,0.6-0.4c0.2-0.1,0.5-0.2,0.9-0.2c0.1,0,0.2,0,0.3,0c0.1,0,0.2,0,0.3,0.1l-0.2,1
	c-0.1-0.1-0.3-0.1-0.6-0.1c-0.3,0-0.6,0.1-0.8,0.2c-0.2,0.2-0.4,0.4-0.6,0.6s-0.2,0.5-0.2,0.9V63z M41,63h-1.1v-5c0-0.1,0-0.1,0-0.2
	c0-0.1,0-0.2,0-0.4h1l0,0.8c0.1-0.1,0.2-0.3,0.4-0.4c0.2-0.2,0.3-0.3,0.6-0.4c0.2-0.1,0.5-0.2,0.9-0.2c0.4,0,0.8,0.1,1.1,0.3
	c0.3,0.2,0.5,0.4,0.7,0.7c0.2-0.3,0.5-0.5,0.8-0.7c0.3-0.2,0.7-0.3,1.2-0.3c0.7,0,1.3,0.2,1.6,0.6c0.3,0.4,0.5,1,0.5,1.7V63h-1.1
	v-3.3c0-1-0.4-1.5-1.2-1.5c-0.3,0-0.6,0.1-0.8,0.2c-0.2,0.2-0.4,0.4-0.6,0.6c-0.1,0.2-0.2,0.5-0.2,0.8V63h-1.1v-3.3
	c0-0.5-0.1-0.9-0.3-1.1c-0.2-0.2-0.5-0.4-0.9-0.4c-0.4,0-0.7,0.1-0.9,0.3c-0.2,0.2-0.4,0.5-0.5,0.8C41,59.7,41,60,41,60.4V63z
	 M53.6,63l0-0.7c-0.2,0.3-0.5,0.5-0.8,0.6c-0.3,0.1-0.7,0.2-1,0.2c-0.3,0-0.6-0.1-0.9-0.2c-0.3-0.1-0.5-0.3-0.7-0.6
	c-0.2-0.3-0.3-0.6-0.3-1c0-0.6,0.2-1.1,0.6-1.4c0.4-0.4,1-0.5,1.8-0.5c0.2,0,0.4,0,0.5,0c0.2,0,0.4,0,0.5,0c0.2,0,0.3,0,0.3,0v-0.2
	c0-0.4-0.1-0.7-0.4-0.9c-0.2-0.2-0.6-0.3-1-0.3c-0.4,0-0.8,0.1-1,0.2c-0.2,0.1-0.5,0.2-0.6,0.3L50,57.9c0.2-0.2,0.5-0.3,0.8-0.5
	c0.4-0.2,0.8-0.2,1.4-0.2c0.7,0,1.3,0.2,1.7,0.5c0.4,0.3,0.6,0.8,0.6,1.5v3.3c0,0.1,0,0.1,0,0.2c0,0.1,0,0.2,0,0.3H53.6z M53.6,61
	v-0.6c0,0-0.1,0-0.3,0c-0.1,0-0.3,0-0.5,0c-0.2,0-0.3,0-0.5,0c-0.4,0-0.7,0.1-0.9,0.2c-0.2,0.1-0.4,0.3-0.4,0.4
	c-0.1,0.2-0.1,0.3-0.1,0.5c0,0.3,0.1,0.5,0.3,0.7s0.5,0.2,0.9,0.2c0.3,0,0.5-0.1,0.8-0.2c0.2-0.1,0.4-0.3,0.6-0.5
	C53.5,61.4,53.6,61.2,53.6,61z M56.6,61.2v-2.9h-1v-0.9h1v-1.8h1.1v1.8h1.6v0.9h-1.6v2.7c0,0.4,0.1,0.8,0.2,0.9
	c0.1,0.2,0.3,0.3,0.6,0.3c0.2,0,0.4,0,0.5-0.1c0.1-0.1,0.3-0.2,0.4-0.3l0.5,0.7c-0.2,0.2-0.5,0.4-0.7,0.5c-0.2,0.1-0.5,0.2-0.9,0.2
	c-0.6,0-1-0.2-1.3-0.5C56.7,62.3,56.6,61.8,56.6,61.2z M60.7,56.4v-1.2h1.2v1.2H60.7z M60.7,63v-5.6h1.1V63H60.7z M66,63.2
	c-0.6,0-1.1-0.1-1.5-0.4c-0.4-0.3-0.8-0.6-1.1-1.1c-0.2-0.5-0.4-1-0.4-1.5c0-0.5,0.1-1,0.4-1.5c0.3-0.4,0.6-0.8,1.1-1.1
	c0.4-0.3,1-0.4,1.5-0.4s1.1,0.1,1.5,0.4c0.4,0.3,0.8,0.6,1.1,1.1c0.3,0.4,0.4,0.9,0.4,1.5c0,0.5-0.1,1-0.4,1.5
	c-0.3,0.4-0.6,0.8-1.1,1.1C67.1,63,66.6,63.2,66,63.2z M66,62.2c0.4,0,0.7-0.1,1-0.3c0.3-0.2,0.5-0.5,0.6-0.8c0.2-0.3,0.2-0.6,0.2-1
	c0-0.3-0.1-0.7-0.2-1c-0.1-0.3-0.4-0.6-0.6-0.8c-0.3-0.2-0.6-0.3-1-0.3s-0.7,0.1-1,0.3c-0.3,0.2-0.5,0.4-0.6,0.8
	c-0.1,0.3-0.2,0.6-0.2,1c0,0.3,0.1,0.7,0.2,1c0.2,0.3,0.4,0.6,0.6,0.8C65.3,62.1,65.6,62.2,66,62.2z M71.3,63h-1.1v-5
	c0-0.1,0-0.1,0-0.2c0-0.1,0-0.2,0-0.4h1l0,0.8c0.1-0.1,0.2-0.3,0.4-0.4c0.2-0.2,0.4-0.3,0.6-0.4c0.2-0.1,0.5-0.2,0.9-0.2
	c0.7,0,1.3,0.2,1.6,0.6c0.4,0.4,0.5,1,0.5,1.7V63h-1.1v-3.3c0-0.5-0.1-0.9-0.3-1.1c-0.2-0.2-0.5-0.4-0.9-0.4c-0.4,0-0.7,0.1-1,0.3
	c-0.2,0.2-0.4,0.5-0.5,0.8c-0.1,0.3-0.1,0.7-0.1,1V63z M80.6,63l-2.4-5.6h1.2l1.7,4.4l1.7-4.4h1.2L81.7,63H80.6z M84.9,56.4v-1.2
	h1.2v1.2H84.9z M85,63v-5.6h1.1V63H85z M87.3,62.3l0.7-0.7c0.2,0.2,0.4,0.4,0.7,0.5s0.6,0.2,1,0.2c0.4,0,0.7-0.1,0.9-0.2
	c0.2-0.1,0.4-0.3,0.4-0.6c0-0.2,0-0.3-0.1-0.4s-0.3-0.2-0.5-0.3c-0.2-0.1-0.6-0.2-1-0.3c-0.3-0.1-0.6-0.2-0.8-0.3
	c-0.3-0.1-0.5-0.3-0.7-0.5c-0.2-0.2-0.3-0.5-0.3-0.9c0-0.4,0.1-0.7,0.3-0.9c0.2-0.2,0.5-0.4,0.8-0.6c0.3-0.1,0.7-0.2,1.1-0.2
	c0.5,0,0.9,0.1,1.2,0.2c0.3,0.1,0.6,0.3,0.9,0.5l-0.6,0.7c-0.2-0.2-0.4-0.3-0.6-0.4c-0.2-0.1-0.5-0.2-0.9-0.2
	c-0.3,0-0.6,0.1-0.8,0.2s-0.3,0.3-0.3,0.6c0,0.2,0.1,0.4,0.4,0.5c0.3,0.1,0.6,0.2,1.1,0.3c0.4,0.1,0.7,0.2,0.9,0.3
	c0.3,0.1,0.5,0.3,0.7,0.5c0.2,0.2,0.3,0.5,0.3,0.9c0,0.4-0.1,0.7-0.3,0.9c-0.2,0.2-0.5,0.4-0.9,0.6c-0.4,0.1-0.7,0.2-1.1,0.2
	C88.6,63.2,87.8,62.9,87.3,62.3z M93.2,56.4v-1.2h1.2v1.2H93.2z M93.3,63v-5.6h1.1V63H93.3z M96.4,61.2v-2.9h-1v-0.9h1v-1.8h1.1v1.8
	h1.6v0.9h-1.6v2.7c0,0.4,0.1,0.8,0.2,0.9c0.1,0.2,0.3,0.3,0.6,0.3c0.2,0,0.4,0,0.5-0.1c0.1-0.1,0.3-0.2,0.4-0.3l0.5,0.7
	c-0.2,0.2-0.5,0.4-0.7,0.5c-0.2,0.1-0.5,0.2-0.9,0.2c-0.6,0-1-0.2-1.3-0.5C96.5,62.3,96.4,61.8,96.4,61.2z M102.7,63v-8h1.1v3.3
	c0.1-0.1,0.2-0.3,0.4-0.4c0.2-0.2,0.4-0.3,0.6-0.4c0.2-0.1,0.5-0.2,0.9-0.2c0.7,0,1.3,0.2,1.6,0.6c0.4,0.4,0.5,1,0.5,1.7V63h-1.1
	v-3.3c0-0.5-0.1-0.9-0.3-1.1c-0.2-0.2-0.5-0.4-0.9-0.4c-0.4,0-0.7,0.1-1,0.3c-0.2,0.2-0.4,0.5-0.5,0.8c-0.1,0.3-0.1,0.7-0.1,1V63
	H102.7z M111.9,63.2c-0.6,0-1.1-0.1-1.5-0.4c-0.4-0.3-0.8-0.6-1.1-1.1c-0.2-0.5-0.4-1-0.4-1.5c0-0.5,0.1-1,0.4-1.5
	c0.3-0.4,0.6-0.8,1.1-1.1c0.4-0.3,1-0.4,1.5-0.4s1.1,0.1,1.5,0.4c0.4,0.3,0.8,0.6,1.1,1.1c0.3,0.4,0.4,0.9,0.4,1.5
	c0,0.5-0.1,1-0.4,1.5c-0.3,0.4-0.6,0.8-1.1,1.1C113,63,112.5,63.2,111.9,63.2z M111.9,62.2c0.4,0,0.7-0.1,1-0.3
	c0.3-0.2,0.5-0.5,0.6-0.8c0.2-0.3,0.2-0.6,0.2-1c0-0.3-0.1-0.7-0.2-1c-0.1-0.3-0.4-0.6-0.6-0.8c-0.3-0.2-0.6-0.3-1-0.3
	s-0.7,0.1-1,0.3c-0.3,0.2-0.5,0.4-0.6,0.8c-0.1,0.3-0.2,0.6-0.2,1c0,0.3,0.1,0.7,0.2,1c0.2,0.3,0.4,0.6,0.6,0.8
	C111.2,62.1,111.5,62.2,111.9,62.2z M115.8,62.3l0.7-0.7c0.2,0.2,0.4,0.4,0.7,0.5c0.3,0.1,0.6,0.2,1,0.2c0.4,0,0.7-0.1,0.9-0.2
	c0.2-0.1,0.4-0.3,0.4-0.6c0-0.2,0-0.3-0.1-0.4s-0.3-0.2-0.5-0.3c-0.2-0.1-0.6-0.2-1-0.3c-0.3-0.1-0.6-0.2-0.8-0.3
	c-0.3-0.1-0.5-0.3-0.7-0.5c-0.2-0.2-0.3-0.5-0.3-0.9c0-0.4,0.1-0.7,0.3-0.9c0.2-0.2,0.5-0.4,0.8-0.6c0.3-0.1,0.7-0.2,1.1-0.2
	c0.5,0,0.9,0.1,1.2,0.2c0.3,0.1,0.6,0.3,0.9,0.5l-0.6,0.7c-0.2-0.2-0.4-0.3-0.6-0.4c-0.2-0.1-0.5-0.2-0.9-0.2
	c-0.3,0-0.6,0.1-0.8,0.2s-0.3,0.3-0.3,0.6c0,0.2,0.1,0.4,0.4,0.5c0.3,0.1,0.6,0.2,1.1,0.3c0.4,0.1,0.7,0.2,0.9,0.3
	c0.3,0.1,0.5,0.3,0.7,0.5c0.2,0.2,0.3,0.5,0.3,0.9c0,0.4-0.1,0.7-0.3,0.9c-0.2,0.2-0.5,0.4-0.9,0.6c-0.4,0.1-0.7,0.2-1.1,0.2
	C117.1,63.2,116.3,62.9,115.8,62.3z M122.2,61.2v-2.9h-1v-0.9h1v-1.8h1.1v1.8h1.6v0.9h-1.6v2.7c0,0.4,0.1,0.8,0.2,0.9
	c0.1,0.2,0.3,0.3,0.6,0.3c0.2,0,0.4,0,0.5-0.1c0.1-0.1,0.3-0.2,0.4-0.3l0.5,0.7c-0.2,0.2-0.5,0.4-0.7,0.5c-0.2,0.1-0.5,0.2-0.9,0.2
	c-0.6,0-1-0.2-1.3-0.5C122.3,62.3,122.2,61.8,122.2,61.2z M127.4,65.4h-1.1V58c0-0.1,0-0.1,0-0.2c0-0.1,0-0.2,0-0.4h1l0,0.8
	c0.1-0.1,0.2-0.2,0.3-0.4c0.2-0.1,0.4-0.3,0.6-0.4c0.3-0.1,0.6-0.2,0.9-0.2c0.6,0,1,0.1,1.4,0.4c0.4,0.3,0.7,0.6,0.8,1.1
	c0.2,0.4,0.3,0.9,0.3,1.5c0,0.5-0.1,0.9-0.3,1.3c-0.2,0.4-0.4,0.7-0.7,0.9c-0.3,0.2-0.6,0.4-0.9,0.5c-0.3,0.1-0.7,0.2-1,0.2
	c-0.4,0-0.7,0-0.9-0.1c-0.2-0.1-0.4-0.2-0.6-0.2V65.4z M127.4,60.4v1.4c0.1,0.1,0.3,0.2,0.6,0.3c0.2,0.1,0.5,0.1,0.9,0.1
	c0.4,0,0.7-0.1,1-0.3c0.3-0.2,0.5-0.4,0.6-0.7c0.2-0.3,0.2-0.6,0.2-1c0-0.4-0.1-0.7-0.2-1c-0.1-0.3-0.3-0.5-0.5-0.7
	c-0.2-0.2-0.6-0.3-1-0.3c-0.4,0-0.7,0.1-1,0.3c-0.3,0.2-0.5,0.5-0.6,0.9c0,0.1-0.1,0.3-0.1,0.4C127.4,60,127.4,60.2,127.4,60.4z
	 M133,63v-8h1.1v8H133z M135.5,60.8v-3.3h1.1v3.3c0,0.5,0.1,0.9,0.3,1.1c0.2,0.2,0.5,0.4,0.9,0.4c0.4,0,0.7-0.1,1-0.3
	c0.2-0.2,0.4-0.5,0.5-0.8c0.1-0.3,0.2-0.7,0.2-1v-2.6h1.1v5c0,0,0,0.1,0,0.2c0,0.1,0,0.2,0,0.3h-1l0-0.8c-0.1,0.1-0.2,0.3-0.4,0.4
	c-0.2,0.1-0.4,0.3-0.6,0.4c-0.2,0.1-0.5,0.2-0.9,0.2c-0.7,0-1.3-0.2-1.6-0.6C135.7,62.1,135.5,61.5,135.5,60.8z M141.8,62.3l0.7-0.7
	c0.2,0.2,0.4,0.4,0.7,0.5c0.3,0.1,0.6,0.2,1,0.2c0.4,0,0.7-0.1,0.9-0.2c0.2-0.1,0.4-0.3,0.4-0.6c0-0.2,0-0.3-0.1-0.4
	c-0.1-0.1-0.3-0.2-0.5-0.3c-0.2-0.1-0.6-0.2-1-0.3c-0.3-0.1-0.6-0.2-0.8-0.3c-0.3-0.1-0.5-0.3-0.7-0.5c-0.2-0.2-0.3-0.5-0.3-0.9
	c0-0.4,0.1-0.7,0.3-0.9c0.2-0.2,0.5-0.4,0.8-0.6c0.3-0.1,0.7-0.2,1.1-0.2c0.5,0,0.9,0.1,1.2,0.2c0.3,0.1,0.6,0.3,0.9,0.5l-0.6,0.7
	c-0.2-0.2-0.4-0.3-0.6-0.4c-0.2-0.1-0.5-0.2-0.9-0.2c-0.3,0-0.6,0.1-0.8,0.2c-0.2,0.1-0.3,0.3-0.3,0.6c0,0.2,0.1,0.4,0.4,0.5
	c0.3,0.1,0.6,0.2,1.1,0.3c0.4,0.1,0.7,0.2,0.9,0.3c0.3,0.1,0.5,0.3,0.7,0.5c0.2,0.2,0.3,0.5,0.3,0.9c0,0.4-0.1,0.7-0.3,0.9
	c-0.2,0.2-0.5,0.4-0.9,0.6c-0.4,0.1-0.7,0.2-1.1,0.2C143.1,63.2,142.3,62.9,141.8,62.3z M147.5,63v-1.3h1.4V63H147.5z M154.3,61.5
	l0.7,0.7c-0.2,0.3-0.6,0.5-0.9,0.7c-0.4,0.2-0.8,0.3-1.3,0.3c-0.6,0-1.1-0.1-1.6-0.4c-0.4-0.3-0.8-0.6-1-1c-0.2-0.4-0.4-1-0.4-1.5
	c0-0.5,0.1-1,0.4-1.5c0.2-0.4,0.6-0.8,1-1.1c0.4-0.3,1-0.4,1.5-0.4c0.5,0,0.9,0.1,1.2,0.3s0.7,0.4,0.9,0.7l-0.7,0.7
	c-0.2-0.2-0.4-0.4-0.6-0.5s-0.5-0.2-0.9-0.2c-0.4,0-0.7,0.1-1,0.3c-0.3,0.2-0.5,0.4-0.6,0.7s-0.2,0.6-0.2,1c0,0.3,0.1,0.7,0.2,1
	c0.2,0.3,0.4,0.6,0.6,0.7c0.3,0.2,0.6,0.3,1,0.3c0.3,0,0.6-0.1,0.9-0.2C153.9,61.9,154.1,61.7,154.3,61.5z M158.3,63.2
	c-0.6,0-1.1-0.1-1.5-0.4c-0.4-0.3-0.8-0.6-1.1-1.1c-0.2-0.5-0.4-1-0.4-1.5c0-0.5,0.1-1,0.4-1.5c0.3-0.4,0.6-0.8,1.1-1.1
	c0.4-0.3,1-0.4,1.5-0.4c0.6,0,1.1,0.1,1.5,0.4c0.4,0.3,0.8,0.6,1.1,1.1c0.3,0.4,0.4,0.9,0.4,1.5c0,0.5-0.1,1-0.4,1.5
	c-0.3,0.4-0.6,0.8-1.1,1.1C159.4,63,158.9,63.2,158.3,63.2z M158.3,62.2c0.4,0,0.7-0.1,1-0.3c0.3-0.2,0.5-0.5,0.6-0.8
	c0.2-0.3,0.2-0.6,0.2-1c0-0.3-0.1-0.7-0.2-1c-0.1-0.3-0.4-0.6-0.6-0.8c-0.3-0.2-0.6-0.3-1-0.3s-0.7,0.1-1,0.3
	c-0.3,0.2-0.5,0.4-0.6,0.8c-0.1,0.3-0.2,0.6-0.2,1c0,0.3,0.1,0.7,0.2,1c0.2,0.3,0.4,0.6,0.6,0.8C157.6,62.1,157.9,62.2,158.3,62.2z
	 M163.6,63h-1.1v-5c0-0.1,0-0.1,0-0.2c0-0.1,0-0.2,0-0.4h1l0,0.8c0.1-0.1,0.2-0.3,0.4-0.4c0.2-0.2,0.3-0.3,0.6-0.4
	c0.2-0.1,0.5-0.2,0.9-0.2c0.4,0,0.8,0.1,1.1,0.3c0.3,0.2,0.5,0.4,0.7,0.7c0.2-0.3,0.5-0.5,0.8-0.7c0.3-0.2,0.7-0.3,1.2-0.3
	c0.7,0,1.3,0.2,1.6,0.6c0.3,0.4,0.5,1,0.5,1.7V63h-1.1v-3.3c0-1-0.4-1.5-1.2-1.5c-0.3,0-0.6,0.1-0.8,0.2c-0.2,0.2-0.4,0.4-0.6,0.6
	c-0.1,0.2-0.2,0.5-0.2,0.8V63h-1.1v-3.3c0-0.5-0.1-0.9-0.3-1.1c-0.2-0.2-0.5-0.4-0.9-0.4c-0.4,0-0.7,0.1-0.9,0.3s-0.4,0.5-0.5,0.8
	c-0.1,0.3-0.1,0.7-0.1,1V63z M172.8,63v-1.3h1.4V63H172.8z M179.3,63l0-0.7c-0.2,0.3-0.5,0.5-0.8,0.6c-0.3,0.1-0.7,0.2-1,0.2
	c-0.3,0-0.6-0.1-0.9-0.2c-0.3-0.1-0.5-0.3-0.7-0.6c-0.2-0.3-0.3-0.6-0.3-1c0-0.6,0.2-1.1,0.6-1.4c0.4-0.4,1-0.5,1.8-0.5
	c0.2,0,0.4,0,0.5,0c0.2,0,0.4,0,0.5,0c0.2,0,0.3,0,0.3,0v-0.2c0-0.4-0.1-0.7-0.4-0.9c-0.2-0.2-0.6-0.3-1-0.3c-0.4,0-0.8,0.1-1,0.2
	c-0.2,0.1-0.5,0.2-0.6,0.3l-0.5-0.7c0.2-0.2,0.5-0.3,0.8-0.5s0.8-0.2,1.4-0.2c0.7,0,1.3,0.2,1.7,0.5c0.4,0.3,0.6,0.8,0.6,1.5v3.3
	c0,0.1,0,0.1,0,0.2c0,0.1,0,0.2,0,0.3H179.3z M179.2,61v-0.6c0,0-0.1,0-0.3,0c-0.1,0-0.3,0-0.5,0c-0.2,0-0.3,0-0.5,0
	c-0.4,0-0.7,0.1-0.9,0.2c-0.2,0.1-0.4,0.3-0.4,0.4c-0.1,0.2-0.1,0.3-0.1,0.5c0,0.3,0.1,0.5,0.3,0.7c0.2,0.2,0.5,0.2,0.9,0.2
	c0.3,0,0.5-0.1,0.8-0.2c0.2-0.1,0.4-0.3,0.6-0.5C179.2,61.4,179.2,61.2,179.2,61z M181.7,60.8v-3.3h1.1v3.3c0,0.5,0.1,0.9,0.3,1.1
	c0.2,0.2,0.5,0.4,0.9,0.4c0.4,0,0.7-0.1,1-0.3c0.2-0.2,0.4-0.5,0.5-0.8c0.1-0.3,0.2-0.7,0.2-1v-2.6h1.1v5c0,0,0,0.1,0,0.2
	c0,0.1,0,0.2,0,0.3h-1l0-0.8c-0.1,0.1-0.2,0.3-0.4,0.4c-0.2,0.1-0.4,0.3-0.6,0.4c-0.2,0.1-0.5,0.2-0.9,0.2c-0.7,0-1.3-0.2-1.6-0.6
	C181.9,62.1,181.7,61.5,181.7,60.8z M187.8,63.2l3.2-8.4h1.1l-3.2,8.4H187.8z M195.6,63l0-0.7c-0.2,0.3-0.5,0.5-0.8,0.6
	c-0.3,0.1-0.7,0.2-1,0.2c-0.3,0-0.6-0.1-0.9-0.2c-0.3-0.1-0.5-0.3-0.7-0.6c-0.2-0.3-0.3-0.6-0.3-1c0-0.6,0.2-1.1,0.6-1.4
	c0.4-0.4,1-0.5,1.8-0.5c0.2,0,0.4,0,0.5,0c0.2,0,0.4,0,0.5,0c0.2,0,0.3,0,0.3,0v-0.2c0-0.4-0.1-0.7-0.4-0.9c-0.2-0.2-0.6-0.3-1-0.3
	c-0.4,0-0.8,0.1-1,0.2c-0.2,0.1-0.5,0.2-0.6,0.3l-0.5-0.7c0.2-0.2,0.5-0.3,0.8-0.5s0.8-0.2,1.4-0.2c0.7,0,1.3,0.2,1.7,0.5
	c0.4,0.3,0.6,0.8,0.6,1.5v3.3c0,0.1,0,0.1,0,0.2c0,0.1,0,0.2,0,0.3H195.6z M195.5,61v-0.6c0,0-0.1,0-0.3,0c-0.1,0-0.3,0-0.5,0
	c-0.2,0-0.3,0-0.5,0c-0.4,0-0.7,0.1-0.9,0.2c-0.2,0.1-0.4,0.3-0.4,0.4c-0.1,0.2-0.1,0.3-0.1,0.5c0,0.3,0.1,0.5,0.3,0.7
	s0.5,0.2,0.9,0.2c0.3,0,0.5-0.1,0.8-0.2c0.2-0.1,0.4-0.3,0.6-0.5C195.5,61.4,195.5,61.2,195.5,61z M202.1,63l0-0.7
	c-0.1,0.1-0.2,0.2-0.3,0.3c-0.1,0.1-0.3,0.3-0.6,0.4c-0.2,0.1-0.6,0.2-0.9,0.2c-0.5,0-0.9-0.1-1.3-0.3c-0.4-0.2-0.7-0.6-0.9-1
	c-0.2-0.4-0.3-0.9-0.3-1.5c0-0.5,0.1-1,0.3-1.4c0.2-0.4,0.4-0.7,0.7-0.9c0.3-0.2,0.6-0.4,0.9-0.5c0.3-0.1,0.7-0.2,0.9-0.2
	c0.3,0,0.6,0,0.8,0.1c0.2,0.1,0.4,0.2,0.7,0.3V55h1.1v7.4c0,0,0,0.1,0,0.2c0,0.1,0,0.2,0,0.3H202.1z M202.1,60.6v-2
	c-0.1-0.1-0.3-0.2-0.6-0.3c-0.2-0.1-0.5-0.1-0.8-0.1c-0.5,0-1,0.2-1.3,0.6c-0.3,0.4-0.5,0.9-0.5,1.5c0,0.4,0.1,0.7,0.2,1
	c0.1,0.3,0.3,0.5,0.5,0.7c0.2,0.2,0.5,0.3,0.9,0.3c0.4,0,0.7-0.1,0.9-0.3c0.2-0.2,0.4-0.4,0.5-0.6C202,61.1,202.1,60.9,202.1,60.6z
	 M206.4,63l-2.4-5.6h1.2l1.7,4.4l1.7-4.4h1.2l-2.4,5.6H206.4z M210.6,56.4v-1.2h1.2v1.2H210.6z M210.7,63v-5.6h1.1V63H210.7z
	 M217.5,61.5l0.7,0.7c-0.2,0.3-0.6,0.5-0.9,0.7c-0.4,0.2-0.8,0.3-1.3,0.3c-0.6,0-1.1-0.1-1.6-0.4c-0.4-0.3-0.8-0.6-1-1
	c-0.2-0.4-0.4-1-0.4-1.5c0-0.5,0.1-1,0.4-1.5c0.2-0.4,0.6-0.8,1-1.1c0.4-0.3,1-0.4,1.5-0.4c0.5,0,0.9,0.1,1.2,0.3s0.7,0.4,0.9,0.7
	l-0.7,0.7c-0.2-0.2-0.4-0.4-0.6-0.5c-0.2-0.1-0.5-0.2-0.9-0.2c-0.4,0-0.7,0.1-1,0.3c-0.3,0.2-0.5,0.4-0.6,0.7s-0.2,0.6-0.2,1
	c0,0.3,0.1,0.7,0.2,1c0.2,0.3,0.4,0.6,0.6,0.7c0.3,0.2,0.6,0.3,1,0.3c0.3,0,0.6-0.1,0.9-0.2C217.1,61.9,217.3,61.7,217.5,61.5z
	 M223.4,61.5l0.6,0.6c-0.1,0.1-0.2,0.2-0.4,0.4c-0.2,0.2-0.5,0.3-0.8,0.4c-0.3,0.1-0.7,0.2-1.2,0.2c-0.6,0-1.1-0.1-1.5-0.4
	c-0.4-0.3-0.8-0.6-1-1.1c-0.2-0.5-0.4-1-0.4-1.6c0-0.5,0.1-1,0.3-1.5c0.2-0.4,0.6-0.8,1-1c0.4-0.3,0.9-0.4,1.5-0.4
	c0.6,0,1.2,0.2,1.6,0.5c0.4,0.3,0.7,0.7,0.9,1.2c0.2,0.5,0.3,1,0.3,1.6h-4.4c0,0.3,0.1,0.6,0.3,0.9c0.2,0.3,0.4,0.5,0.7,0.6
	c0.3,0.1,0.6,0.2,0.9,0.2c0.5,0,0.9-0.1,1.2-0.2C223,61.8,223.2,61.7,223.4,61.5z M219.7,59.7h3.3c0-0.4-0.2-0.8-0.5-1.1
	c-0.3-0.3-0.7-0.5-1.2-0.5c-0.3,0-0.6,0.1-0.9,0.2c-0.2,0.2-0.4,0.3-0.6,0.6C219.8,59.2,219.7,59.5,219.7,59.7z M225.4,63v-1.3h1.4
	V63H225.4z"/>
</svg>
