<svg width="92" height="27" viewBox="0 0 92 27" fill="none" xmlns="http://www.w3.org/2000/svg">
<path d="M10.9795 17.6855V9.01455H12.9425V15.9435H17.0895V17.6855H10.9795ZM17.9392 14.6305C17.9392 14.0325 18.0779 13.4865 18.3552 12.9925C18.6325 12.4985 19.0139 12.1085 19.4992 11.8225C19.9932 11.5279 20.5652 11.3805 21.2152 11.3805C21.8652 11.3805 22.4329 11.5279 22.9182 11.8225C23.4122 12.1085 23.7935 12.4985 24.0622 12.9925C24.3395 13.4865 24.4782 14.0325 24.4782 14.6305C24.4782 15.2285 24.3395 15.7745 24.0622 16.2685C23.7935 16.7625 23.4122 17.1569 22.9182 17.4515C22.4329 17.7462 21.8652 17.8935 21.2152 17.8935C20.5652 17.8935 19.9932 17.7462 19.4992 17.4515C19.0139 17.1569 18.6325 16.7625 18.3552 16.2685C18.0779 15.7745 17.9392 15.2285 17.9392 14.6305ZM21.2152 16.2685C21.5359 16.2685 21.8002 16.1905 22.0082 16.0345C22.2249 15.8785 22.3895 15.6749 22.5022 15.4235C22.6149 15.1722 22.6712 14.9079 22.6712 14.6305C22.6712 14.3532 22.6149 14.0932 22.5022 13.8505C22.3895 13.5992 22.2249 13.3955 22.0082 13.2395C21.8002 13.0835 21.5359 13.0055 21.2152 13.0055C20.9032 13.0055 20.6345 13.0835 20.4092 13.2395C20.1925 13.3955 20.0279 13.5992 19.9152 13.8505C19.8025 14.0932 19.7462 14.3532 19.7462 14.6305C19.7462 14.9079 19.8025 15.1722 19.9152 15.4235C20.0279 15.6749 20.1925 15.8785 20.4092 16.0345C20.6345 16.1905 20.9032 16.2685 21.2152 16.2685ZM25.8352 19.7915L26.5892 18.4655C26.8318 18.6129 27.0875 18.7255 27.3562 18.8035C27.6335 18.8902 27.9368 18.9335 28.2662 18.9335C28.6908 18.9335 29.0245 18.8209 29.2672 18.5955C29.5098 18.3702 29.6312 18.0322 29.6312 17.5815V17.1525C29.2412 17.4905 28.7212 17.6595 28.0712 17.6595C27.4905 17.6595 26.9922 17.5382 26.5762 17.2955C26.1688 17.0442 25.8568 16.6975 25.6402 16.2555C25.4235 15.8135 25.3152 15.3109 25.3152 14.7475C25.3152 14.0889 25.4625 13.5125 25.7572 13.0185C26.0518 12.5245 26.4592 12.1432 26.9792 11.8745C27.5078 11.5972 28.1232 11.4585 28.8252 11.4585C29.3278 11.4585 29.8088 11.5019 30.2682 11.5885C30.7275 11.6752 31.1348 11.7835 31.4902 11.9135V17.4905C31.4902 18.4959 31.2128 19.2369 30.6582 19.7135C30.1035 20.1989 29.3452 20.4415 28.3832 20.4415C27.3258 20.4415 26.4765 20.2249 25.8352 19.7915ZM29.6442 14.9685V13.1355C29.5228 13.0922 29.4015 13.0619 29.2802 13.0445C29.1588 13.0185 28.9985 13.0055 28.7992 13.0055C28.2618 13.0055 27.8588 13.1702 27.5902 13.4995C27.3302 13.8289 27.2002 14.2232 27.2002 14.6825C27.2002 15.1159 27.3085 15.4669 27.5252 15.7355C27.7418 15.9955 28.0495 16.1255 28.4482 16.1255C28.8295 16.1255 29.1242 16.0345 29.3322 15.8525C29.5402 15.6619 29.6442 15.3672 29.6442 14.9685ZM35.2109 10.6915V9.01455H37.2129V10.6915H35.2109ZM35.2759 17.6855V11.5885H37.1479V17.6855H35.2759ZM38.5885 17.6855V11.5885H40.3825L40.4345 12.2515C40.6338 12.0089 40.8981 11.8139 41.2275 11.6665C41.5568 11.5192 41.8948 11.4455 42.2415 11.4455C42.9348 11.4455 43.4895 11.6535 43.9055 12.0695C44.3215 12.4855 44.5295 13.1009 44.5295 13.9155V17.6855H42.6575V14.1755C42.6575 13.8375 42.5708 13.5689 42.3975 13.3695C42.2328 13.1702 41.9988 13.0705 41.6955 13.0705C41.2881 13.0705 40.9761 13.2049 40.7595 13.4735C40.5515 13.7422 40.4475 14.0542 40.4475 14.4095V17.6855H38.5885ZM48.2369 17.6855V11.5885H50.0309L50.0829 12.2515C50.2822 12.0089 50.5466 11.8139 50.8759 11.6665C51.2052 11.5192 51.5432 11.4455 51.8899 11.4455C52.5832 11.4455 53.1379 11.6535 53.5539 12.0695C53.9699 12.4855 54.1779 13.1009 54.1779 13.9155V17.6855H52.3059V14.1755C52.3059 13.8375 52.2192 13.5689 52.0459 13.3695C51.8812 13.1702 51.6472 13.0705 51.3439 13.0705C50.9366 13.0705 50.6246 13.2049 50.4079 13.4735C50.1999 13.7422 50.0959 14.0542 50.0959 14.4095V17.6855H48.2369ZM55.2507 14.6305C55.2507 14.0325 55.3894 13.4865 55.6667 12.9925C55.9441 12.4985 56.3254 12.1085 56.8107 11.8225C57.3047 11.5279 57.8767 11.3805 58.5267 11.3805C59.1767 11.3805 59.7444 11.5279 60.2297 11.8225C60.7237 12.1085 61.1051 12.4985 61.3737 12.9925C61.6511 13.4865 61.7897 14.0325 61.7897 14.6305C61.7897 15.2285 61.6511 15.7745 61.3737 16.2685C61.1051 16.7625 60.7237 17.1569 60.2297 17.4515C59.7444 17.7462 59.1767 17.8935 58.5267 17.8935C57.8767 17.8935 57.3047 17.7462 56.8107 17.4515C56.3254 17.1569 55.9441 16.7625 55.6667 16.2685C55.3894 15.7745 55.2507 15.2285 55.2507 14.6305ZM58.5267 16.2685C58.8474 16.2685 59.1117 16.1905 59.3197 16.0345C59.5364 15.8785 59.7011 15.6749 59.8137 15.4235C59.9264 15.1722 59.9827 14.9079 59.9827 14.6305C59.9827 14.3532 59.9264 14.0932 59.8137 13.8505C59.7011 13.5992 59.5364 13.3955 59.3197 13.2395C59.1117 13.0835 58.8474 13.0055 58.5267 13.0055C58.2147 13.0055 57.9461 13.0835 57.7207 13.2395C57.5041 13.3955 57.3394 13.5992 57.2267 13.8505C57.1141 14.0932 57.0577 14.3532 57.0577 14.6305C57.0577 14.9079 57.1141 15.1722 57.2267 15.4235C57.3394 15.6749 57.5041 15.8785 57.7207 16.0345C57.9461 16.1905 58.2147 16.2685 58.5267 16.2685ZM64.1916 17.6855L62.0986 11.5885H64.0226L65.0886 15.5015L66.2716 11.5885H67.7666L68.9626 15.5015L70.0286 11.5885H71.9136L69.8206 17.6855H68.1306L66.9866 14.2795L65.8556 17.6855H64.1916Z" fill="#002855"/>
<path d="M77.2664 8.85254L81.5997 13.1859L77.2664 17.5192" stroke="#002855" stroke-width="1.81212" stroke-linecap="round"/>
</svg>
