<?xml version="1.0" encoding="utf-8"?>
<!-- Generator: Adobe Illustrator 27.7.0, SVG Export Plug-In . SVG Version: 6.00 Build 0)  -->
<svg version="1.1" id="Layer_1" xmlns="http://www.w3.org/2000/svg" xmlns:xlink="http://www.w3.org/1999/xlink" x="0px" y="0px"
	 viewBox="0 0 190 40" style="enable-background:new 0 0 190 40;" xml:space="preserve">
<style type="text/css">
	.st0{fill:#DD5900;}
</style>
<path class="st0" d="M5.6,39.6c-3.1,0-4.5-1.4-4.8-3.3h2.3c0.2,1,1,1.6,2.5,1.6c1.8,0,2.8-0.9,2.8-2.7v-1.5c-0.6,1-1.8,1.8-3.2,1.8
	c-2.5,0-4.4-1.9-4.4-4.7v-0.1c0-2.8,1.9-4.9,4.5-4.9c1.6,0,2.6,0.7,3.2,1.7v-1.5h2.3v9.2C10.6,38.2,8.7,39.6,5.6,39.6z M5.7,33.8
	c1.6,0,2.8-1.1,2.8-3v-0.1c0-1.9-1-3-2.7-3c-1.7,0-2.7,1.2-2.7,3v0.2C3.1,32.7,4.2,33.8,5.7,33.8z M17.4,36.2c-2.9,0-5-1.9-5-5.1V31
	c0-3.1,2.1-5.1,4.9-5.1c2.5,0,4.7,1.5,4.7,5v0.7h-7.3c0.1,1.9,1,2.9,2.7,2.9c1.4,0,2.1-0.6,2.3-1.5h2.2C21.6,35,19.9,36.2,17.4,36.2
	z M14.7,30h5c-0.1-1.7-1-2.5-2.4-2.5C15.9,27.5,15,28.5,14.7,30z M23.7,36v-9.9H26v1.6c0.5-1,1.6-1.8,3.2-1.8c2,0,3.4,1.2,3.4,3.9
	V36h-2.3v-6c0-1.5-0.6-2.2-2-2.2c-1.3,0-2.3,0.8-2.3,2.4V36H23.7z M39.2,36.2c-2.9,0-5-1.9-5-5.1V31c0-3.1,2.1-5.1,4.9-5.1
	c2.5,0,4.7,1.5,4.7,5v0.7h-7.3c0.1,1.9,1,2.9,2.7,2.9c1.4,0,2.1-0.6,2.3-1.5h2.2C43.4,35,41.7,36.2,39.2,36.2z M36.6,30h5
	c-0.1-1.7-1-2.5-2.4-2.5C37.7,27.5,36.8,28.5,36.6,30z M45.5,36v-9.9h2.3v1.9c0.6-1.3,1.6-2,3.2-2v2.1c-2,0-3.2,0.7-3.2,2.8V36H45.5
	z M55.1,36.2c-1.8,0-3.3-0.9-3.3-2.9c0-2.3,2.2-3.2,5.1-3.2h1.2v-0.5c0-1.3-0.5-2-1.8-2c-1.2,0-1.8,0.6-1.9,1.6h-2.2
	c0.2-2.3,2-3.3,4.3-3.3s4,0.9,4,3.6V36h-2.3v-1.2C57.5,35.6,56.6,36.2,55.1,36.2z M55.6,34.5c1.4,0,2.5-0.7,2.5-2v-1h-1.2
	c-1.7,0-2.9,0.4-2.9,1.6C54,34,54.5,34.5,55.6,34.5z M66,36.2c-2,0-3-1.1-3-2.9v-5.4h-1.3v-1.7H63v-2.2h2.3v2.2h2.2v1.7h-2.2V33
	c0,0.9,0.4,1.3,1.1,1.3c0.5,0,0.8-0.1,1.1-0.2v1.8C67.2,36.1,66.7,36.2,66,36.2z M69.3,36v-9.9h2.3V36H69.3z M70.4,24.4
	c-0.8,0-1.4-0.6-1.4-1.3c0-0.8,0.6-1.3,1.4-1.3s1.4,0.6,1.4,1.3C71.8,23.9,71.2,24.4,70.4,24.4z M78.5,34.4c1.7,0,2.7-1.3,2.7-3.3
	V31c0-2.1-1-3.3-2.7-3.3c-1.7,0-2.8,1.2-2.8,3.3v0.2C75.7,33.1,76.7,34.4,78.5,34.4z M78.5,36.2c-2.9,0-5.1-2-5.1-5.1V31
	c0-3.1,2.2-5.1,5.1-5.1c2.9,0,5.1,2,5.1,5.1v0.2C83.6,34.2,81.4,36.2,78.5,36.2z M85.3,36v-9.9h2.3v1.6c0.5-1,1.6-1.8,3.2-1.8
	c2,0,3.4,1.2,3.4,3.9V36h-2.3v-6c0-1.5-0.6-2.2-2-2.2c-1.3,0-2.3,0.8-2.3,2.4V36H85.3z M105,34.4c1.7,0,2.7-1.3,2.7-3.3V31
	c0-2.1-1-3.3-2.7-3.3s-2.8,1.2-2.8,3.3v0.2C102.3,33.1,103.3,34.4,105,34.4z M105,36.2c-2.9,0-5.1-2-5.1-5.1V31
	c0-3.1,2.2-5.1,5.1-5.1c2.9,0,5.1,2,5.1,5.1v0.2C110.1,34.2,107.9,36.2,105,36.2z M112.2,36v-8.2h-1.3v-1.7h1.3v-1.3
	c0-2.2,1.2-3.4,3.3-3.4c0.6,0,0.9,0.1,1.3,0.2v1.8c-0.3-0.1-0.6-0.2-1-0.2c-0.9,0-1.3,0.6-1.3,1.5v1.4h2.3v1.7h-2.3V36H112.2z
	 M122.5,36V21.5h2.3V36H122.5z M131.6,36.2c-2.9,0-5-1.9-5-5.1V31c0-3.1,2.1-5.1,4.9-5.1c2.5,0,4.7,1.5,4.7,5v0.7h-7.3
	c0.1,1.9,1,2.9,2.7,2.9c1.4,0,2.1-0.6,2.3-1.5h2.2C135.9,35,134.2,36.2,131.6,36.2z M129,30h5c-0.1-1.7-1-2.5-2.4-2.5
	C130.1,27.5,129.2,28.5,129,30z M140.6,36.2c-1.8,0-3.3-0.9-3.3-2.9c0-2.3,2.2-3.2,5.1-3.2h1.2v-0.5c0-1.3-0.5-2-1.8-2
	c-1.2,0-1.8,0.6-1.9,1.6h-2.2c0.2-2.3,2-3.3,4.3-3.3c2.2,0,4,0.9,4,3.6V36h-2.3v-1.2C143,35.6,142.1,36.2,140.6,36.2z M141.1,34.5
	c1.4,0,2.5-0.7,2.5-2v-1h-1.2c-1.7,0-2.9,0.4-2.9,1.6C139.6,34,140,34.5,141.1,34.5z M151.9,36.2c-2.5,0-4.4-1.8-4.4-5V31
	c0-3.2,1.9-5.2,4.5-5.2c1.6,0,2.6,0.7,3.2,1.7v-6.1h2.3V36h-2.3v-1.7C154.6,35.3,153.3,36.2,151.9,36.2z M152.4,34.4
	c1.6,0,2.8-1.1,2.8-3.3v-0.2c0-2.2-1-3.3-2.7-3.3c-1.7,0-2.7,1.2-2.7,3.3v0.2C149.9,33.3,151,34.4,152.4,34.4z M164.2,36.2
	c-2.9,0-5-1.9-5-5.1V31c0-3.1,2.1-5.1,4.9-5.1c2.5,0,4.7,1.5,4.7,5v0.7h-7.3c0.1,1.9,1,2.9,2.7,2.9c1.4,0,2.1-0.6,2.3-1.5h2.2
	C168.4,35,166.7,36.2,164.2,36.2z M161.5,30h5c-0.1-1.7-1-2.5-2.4-2.5C162.7,27.5,161.8,28.5,161.5,30z M170.4,36v-9.9h2.3v1.9
	c0.6-1.3,1.6-2,3.2-2v2.1c-2,0-3.2,0.7-3.2,2.8V36H170.4z M181,36.2c-2.6,0-4.1-1.2-4.2-3.3h2.2c0.1,1,0.6,1.6,2,1.6
	c1.2,0,1.8-0.4,1.8-1.3c0-0.8-0.7-1.1-2.1-1.4c-2.6-0.4-3.6-1.2-3.6-3c0-2,1.9-3,3.7-3c2,0,3.6,0.8,3.9,3h-2.1
	c-0.2-0.9-0.7-1.3-1.8-1.3c-1,0-1.6,0.5-1.6,1.2c0,0.7,0.5,1,2.1,1.3c2.3,0.4,3.7,0.9,3.7,3C185,35,183.6,36.2,181,36.2z M188,36.1
	c-0.8,0-1.5-0.6-1.5-1.5c0-0.8,0.7-1.5,1.5-1.5c0.9,0,1.5,0.7,1.5,1.5C189.5,35.5,188.8,36.1,188,36.1z"/>
</svg>
