<svg width="184" height="99" viewBox="0 0 184 99" fill="none" xmlns="http://www.w3.org/2000/svg">
<path d="M85.1553 5.54719V17.134H68.3079V0.286621H79.8947C82.7971 0.286621 85.1553 2.64481 85.1553 5.54719Z" fill="white"/>
<path d="M85.1553 33.981H68.3079V50.8284H85.1553V33.981Z" fill="white"/>
<path d="M51.4607 0.286621H34.6133V17.134H51.4607V0.286621Z" fill="#FFD000"/>
<path d="M17.7659 13.7895V0.286621H0.918457V45.5683C0.918457 48.4707 3.27664 50.8289 6.17902 50.8289H17.7659V37.326C17.7659 35.478 19.2624 33.9814 21.1104 33.9814H34.6133V17.134H21.1104C19.2624 17.134 17.7659 15.6375 17.7659 13.7895Z" fill="white"/>
<path d="M51.4607 33.981H34.6133V50.8284H51.4607V33.981Z" fill="white"/>
<path d="M19.2851 69.3659C18.1287 69.3659 17.1877 68.9918 16.4167 68.2095C15.6571 67.4386 15.283 66.4862 15.283 65.3071C15.283 64.1281 15.6458 63.119 16.4167 62.3481C17.1763 61.5658 18.14 61.1917 19.3304 61.1917C20.4642 61.1917 21.3938 61.5771 22.1648 62.3594C22.9357 63.1417 23.3099 64.0827 23.3099 65.2391C23.3099 66.3955 22.9357 67.3932 22.1648 68.1869C21.3938 68.9805 20.4528 69.3659 19.2851 69.3659ZM23.8541 60.8629C22.6296 59.6951 21.0877 59.1169 19.2624 59.1169C17.4371 59.1169 15.8952 59.7065 14.6934 60.8629C13.4917 62.0306 12.8794 63.5272 12.8794 65.2958C12.8794 67.0644 13.4917 68.493 14.6821 69.6494C15.8725 70.7945 17.3917 71.384 19.1717 71.384C20.9517 71.384 22.5956 70.8058 23.8314 69.6494C25.0672 68.493 25.7021 67.0191 25.7021 65.2618C25.7021 63.5045 25.0785 62.0306 23.8541 60.8629ZM73.9088 59.253V65.9534C73.9088 67.8694 73.1718 69.1845 71.0291 69.1845C68.8863 69.1845 68.1494 67.8694 68.1494 65.9534V59.253H65.8252V66.4522C65.8252 69.9895 68.2174 71.384 71.0291 71.384C73.8408 71.384 76.233 70.0008 76.233 66.4522V59.253H73.9088ZM59.8957 59.253V69.1505H64.9295V71.2253H57.5829V59.253H59.8957ZM51.54 64.6609C52.6851 64.6609 53.6601 64.1281 53.6601 62.9943C53.6601 61.8606 53.0026 61.3277 51.54 61.3277H50.1455V64.6609H51.54ZM52.1976 59.253C54.7145 59.253 55.973 60.8856 55.973 62.983C55.973 65.0804 54.4084 66.7357 52.1069 66.7357H50.1455V71.2253H47.8327V59.253H52.1976ZM46.2568 59.253V61.3277H42.3227V71.2253H40.0099V61.3277H36.0758V59.253H46.2568ZM81.7883 59.0942C82.956 59.0942 84.0785 59.389 85.1555 59.9672V62.3254C83.9084 61.5771 83.0808 61.1123 81.8223 61.1123C80.5638 61.1123 80.133 61.5431 80.099 62.1327C80.065 62.5862 80.3484 62.9716 80.9493 63.3571C81.1194 63.4705 81.7543 63.7993 82.888 64.3548C83.8517 64.831 84.5773 65.3298 85.0081 65.8967C85.4389 66.4636 85.6657 67.1438 85.6657 67.9374C85.6657 68.9691 85.2915 69.7968 84.5546 70.4317C83.8177 71.0666 82.854 71.384 81.6749 71.384C80.9153 71.384 80.2464 71.3046 79.7022 71.1346C79.1467 70.9645 78.5344 70.6811 77.8429 70.2616V67.6313C79.124 68.697 80.2918 69.3546 81.4255 69.3546C82.4912 69.3546 83.2055 68.9465 83.2055 68.2209C83.2055 67.7334 82.9787 67.2912 82.3892 66.9397C81.9017 66.645 81.2554 66.3162 80.4958 65.8967C79.5888 65.3978 78.8519 64.9443 78.3871 64.3661C77.9222 63.7879 77.6841 63.153 77.6841 62.4048C77.6841 61.3957 78.0583 60.6021 78.8065 60.0012C79.5548 59.4003 80.5412 59.1056 81.777 59.1056M31.11 59.0942C32.2778 59.0942 33.4002 59.389 34.4772 59.9672V62.3254C33.2414 61.5771 32.4025 61.1123 31.144 61.1123C29.8856 61.1123 29.4547 61.5431 29.4207 62.1327C29.3867 62.5862 29.6702 62.9716 30.271 63.3571C30.4411 63.4705 31.076 63.7993 32.2097 64.3548C33.1734 64.831 33.899 65.3298 34.3412 65.8967C34.772 66.4636 34.9874 67.1438 34.9874 67.9374C34.9874 68.9691 34.6133 69.7968 33.8763 70.4317C33.1394 71.0666 32.1757 71.384 30.9966 71.384C30.2257 71.384 29.5681 71.3046 29.0239 71.1346C28.4797 70.9645 27.8562 70.6811 27.1646 70.2616V67.6313C28.4457 68.697 29.6135 69.3546 30.7472 69.3546C31.8129 69.3546 32.5272 68.9465 32.5272 68.2209C32.5272 67.7334 32.3118 67.2912 31.7109 66.9397C31.2234 66.645 30.5772 66.3162 29.8175 65.8967C28.9106 65.3978 28.1736 64.9443 27.7088 64.3661C27.244 63.7879 27.0059 63.153 27.0059 62.4048C27.0059 61.3957 27.38 60.6021 28.1283 60.0012C28.8765 59.4003 29.8629 59.1056 31.0987 59.1056M3.23129 59.253V64.026H8.91134V59.253H11.2242V71.2253H8.91134V66.4409H3.23129V71.2253H0.918457V59.253H3.23129Z" fill="white"/>
<line x1="104.815" y1="0.12207" x2="104.815" y2="71.8128" stroke="white" stroke-width="0.573526"/>
<g clip-path="url(#clip0_18708_5509)">
<g clip-path="url(#clip1_18708_5509)">
<path d="M172.041 58.6758C172.116 58.3155 171.906 58.103 171.433 58.103H170.486L170.019 60.308H171.03C171.503 60.308 171.82 60.074 171.901 59.6949C171.963 59.4099 171.812 59.2405 171.592 59.1705V59.1652C171.809 59.0872 171.99 58.9151 172.041 58.6785V58.6758ZM171.403 59.6384C171.363 59.824 171.234 59.8885 171.059 59.8885H170.616L170.723 59.3857H171.148C171.342 59.3857 171.444 59.461 171.406 59.6384H171.403ZM171.53 58.743C171.495 58.9043 171.387 58.9662 171.212 58.9662H170.809L170.903 58.5198H171.304C171.479 58.5198 171.557 58.5951 171.524 58.743H171.53Z" fill="white"/>
<path d="M172.089 45.2959C166.225 52.3088 151.403 54.1642 151.403 54.1642C151.403 54.1642 160.489 46.0381 161.922 36.6267L152.904 35.2769V45.3282L142.559 57.0844H154.13C157.612 57.0844 167.776 56.7052 176.053 48.9422L172.089 45.2959Z" fill="white"/>
<path d="M167.773 58.5201L167.862 58.1006H166.343L165.875 60.3055H167.41L167.499 59.8861H166.472L166.582 59.3752H167.443L167.531 58.9557H166.671L166.762 58.5201H167.773Z" fill="white"/>
<path d="M164.77 60.3055H165.278L165.746 58.1006H165.041L164.35 59.2999H164.342L164.1 58.1006H163.442L162.974 60.3055H163.436L163.675 59.16L163.735 58.8401H163.743L164.036 60.2087H164.232L165.084 58.8401H165.09L165.006 59.16L164.77 60.3055Z" fill="white"/>
<path d="M168.44 58.1006L167.972 60.3055H169.454L169.543 59.8861H168.569L168.948 58.1006H168.44Z" fill="white"/>
<path d="M167.612 56.5862C173.348 55.707 176.87 53.4213 179.121 51.7703L177.642 50.3936C176.171 51.6735 173.038 54.4001 167.612 56.5862Z" fill="white"/>
<path d="M172.463 59.2004C172.328 59.8296 172.506 60.3378 173.221 60.3378C173.936 60.3378 174.332 59.8296 174.463 59.2004C174.595 58.5739 174.418 58.0684 173.702 58.0684C172.987 58.0684 172.595 58.5739 172.46 59.2004H172.463ZM173.958 59.2004C173.866 59.6307 173.665 59.9211 173.313 59.9211C172.96 59.9211 172.882 59.6333 172.974 59.2004C173.065 58.7648 173.264 58.4878 173.619 58.4878C173.974 58.4878 174.052 58.7675 173.961 59.2004H173.958Z" fill="white"/>
<path d="M179.215 58.8132C179.306 58.3775 179.061 58.1006 178.591 58.1006H177.634L177.166 60.3055H177.674L178.053 58.5201H178.473C178.631 58.5201 178.75 58.6088 178.704 58.8159C178.661 59.0202 178.505 59.1116 178.327 59.1116H178.075L178.327 60.3082H178.838L178.658 59.4585C178.959 59.351 179.148 59.1278 179.215 58.8159V58.8132Z" fill="white"/>
<path d="M180.03 59.4746L180.121 58.9826H180.129L180.737 60.3055H181.232L181.699 58.1006H181.237L181.059 58.9315L180.955 59.4746H180.947L180.323 58.1006H179.86L179.39 60.3055H179.855L180.03 59.4746Z" fill="white"/>
<path d="M150.147 38.4063L141.567 31.2725L139.937 32.6035C142.435 37.0053 147.533 40.4391 147.533 40.4391L147.523 44.2709L139.639 57.0838L150.12 44.685L150.15 38.4036L150.147 38.4063Z" fill="white"/>
<path d="M175.735 58.1006H175.227L174.929 59.5042C174.808 60.077 175.109 60.3378 175.655 60.3378C176.201 60.3378 176.615 60.0797 176.736 59.5042L177.034 58.1006H176.526L176.227 59.5042C176.187 59.6951 176.085 59.9183 175.746 59.9183C175.407 59.9183 175.394 59.6951 175.437 59.5042L175.735 58.1006Z" fill="white"/>
<path d="M159.991 62.761C159.429 62.1507 158.636 61.6935 157.41 61.6182C153.568 61.3816 151.392 64.1297 150.86 67.3242C150.459 69.7228 151.355 71.6508 154.242 71.8309C155.754 71.925 157.055 71.6346 158.053 70.9597C159.591 69.9164 160.47 68.061 160.793 66.1249C161.021 64.7455 160.752 63.5892 159.991 62.7637V62.761ZM157.83 66.1169C157.477 68.2358 156.533 69.5453 154.977 69.4485C153.979 69.3867 153.597 68.6499 153.82 67.3242C154.175 65.1892 155.116 63.8958 156.673 63.9899C157.671 64.0517 158.053 64.7751 157.83 66.1142V66.1169Z" fill="white"/>
<path d="M151.282 63.9866L151.774 61.6714H143.922L143.43 63.9866H146.081L144.476 71.6313H147.415L148.577 66.1136L148.101 63.9866H151.282Z" fill="white"/>
<path d="M170.204 64.5943C170.333 62.7631 169.231 61.6714 167.066 61.6714H162.697L160.599 71.6313H163.525L164.727 66.0786L164.283 63.8333H166.329C167.133 63.8333 167.66 64.113 167.588 64.8847C167.496 65.8393 166.784 66.0786 165.835 66.0786H164.751L165.899 71.634H168.854L168.029 67.7C169.438 67.0305 170.107 65.963 170.201 64.597L170.204 64.5943Z" fill="white"/>
<path d="M136.337 62.5321C135.589 63.0753 135.178 63.9734 135.097 65.1001C134.92 67.6169 137.665 67.8589 138.816 68.394C139.131 68.5392 139.324 68.7086 139.308 68.9533C139.289 69.2007 139.082 69.5153 138.843 69.6632C138.52 69.8649 137.732 69.8649 137.383 69.8649C137.375 69.8649 134.487 69.8649 134.487 69.8649L134 72.1613C134 72.1613 137.517 72.1613 137.531 72.1613C138.878 72.1478 140.166 71.9058 141.064 71.2175C141.83 70.6286 142.314 69.5422 142.395 68.3806C142.618 65.2506 138.047 65.8368 138.128 64.7209C138.146 64.4655 138.214 64.2826 138.461 64.1428C138.684 64.0164 139.136 63.9922 139.555 63.9895C139.558 63.9895 142.47 63.9895 142.47 63.9895L142.954 61.6743H139.566C138.375 61.6958 137.168 61.9325 136.339 62.5348L136.337 62.5321Z" fill="white"/>
<path d="M176.79 66.1781H176.76L175.819 61.6714H171.966L169.871 71.6313H172.796L173.799 66.7508L173.923 65.8769H173.953L175.047 71.1849H175.916L179.298 65.8769H179.328L179.11 66.6675L178.078 71.6313H181.017L183.114 61.6714H179.333L176.79 66.1781Z" fill="white"/>
<path d="M145.802 42.5182C141.768 40.0955 137.81 34.3276 137.81 34.3276C140.201 39.9314 144.788 42.7602 145.797 43.3814L145.805 42.5209L145.802 42.5182Z" fill="white"/>
<path d="M145.476 20.4928L122.881 44.2928L144.495 26.7608L145.191 29.1728L152.785 20.9876L152.825 21.1166C152.825 21.1166 153.382 21.1919 153.336 20.9284C153.288 20.6568 152.92 18.8714 152.809 18.269C152.785 18.1426 152.747 18.0593 152.613 17.9921C151.779 17.5968 148.082 15.97 148.429 15.5209C148.8 15.045 151.269 12.7109 151.269 12.7109C151.269 12.7109 148.859 13.8806 146.681 15.4833C141.666 19.1779 138.932 22.5015 137.934 24.2708C137.246 25.4889 136.705 27.4411 136.705 27.4411L146.842 16.8116C146.842 16.8116 149.096 17.2768 151.86 18.4223L146.264 23.4453L145.474 20.4955L145.476 20.4928Z" fill="white"/>
<path d="M183.762 58.5201L183.853 58.1006H182.331L181.864 60.3055H183.399L183.488 59.8861H182.46L182.571 59.3752H183.431L183.52 58.9557H182.659L182.751 58.5201H183.762Z" fill="white"/>
<path d="M174.391 27.9302C173.286 28.7449 171.958 30.0007 171.958 30.0007L174.181 31.9367L174.391 27.9302Z" fill="white"/>
<path d="M174.869 27.5406L175.173 32.7142L175.765 33.4079L174.057 34.4486L171.551 30.4044C171.551 30.4044 168.666 33.1149 166.827 37.3527L164.307 36.9762C164.307 36.9762 163.767 41.2678 160.604 46.4951C160.642 46.4683 160.68 46.4387 160.717 46.4118C164.576 43.5669 165.969 39.6517 165.969 39.6517C165.969 39.6517 169.416 42.8086 169.728 43.064C169.838 43.1528 170.083 43.3329 170.395 43.4889C170.734 43.6583 171.057 43.669 171.46 43.6583C171.753 43.6502 172.094 43.6368 172.328 43.3948C172.893 42.744 173.339 42.0906 173.339 42.0906L172.151 40.7139L172.369 40.0873L173.923 41.0607L174.528 40.4611L172.092 38.9472L170.688 39.3425L171.048 38.5035L172.084 37.9039L174.111 39.3963L174.748 39.84L175.179 38.716L174.259 37.8689L174.224 37.2693L175.921 38.0599L176.547 37.8394L176.773 34.1232L178.104 34.22L178.916 28.6243C178.916 28.6243 173.649 23.8729 169.448 21.8965C170.839 23.4749 174.864 27.5433 174.864 27.5433L174.869 27.5406Z" fill="white"/>
<path d="M162.046 35.1712C163.312 25.5958 167.846 21.2666 167.846 21.2666C163.191 24.0873 161.777 31.5385 161.333 34.2059L153.328 32.9098C152.132 31.1459 150.846 29.2152 148.819 27.6475L148.327 28.1746C150.217 29.8525 151.906 32.1919 152.874 33.7058C153.285 33.7757 161.882 35.1497 162.046 35.1739V35.1712Z" fill="white"/>
<path d="M157.993 14.7353C158.007 15.343 158.066 17.8545 158.071 18.0186C158.077 18.2068 158.762 17.7792 158.765 17.4996C158.765 17.2791 158.754 15.3403 158.749 14.5579L172.56 -0.226074L157.353 13.493C156.48 13.0305 155.479 12.5035 155.479 12.5035C155.479 12.5035 157.851 14.4772 157.894 14.5202C157.937 14.5632 157.991 14.6493 157.993 14.7326V14.7353Z" fill="white"/>
<path d="M156.122 15.7734C156.163 16.3731 156.348 19.1078 156.362 19.2476C156.375 19.4062 157.08 18.9814 157.069 18.7152C157.058 18.4759 156.926 16.0181 156.897 15.4696C156.894 15.3997 156.856 15.3432 156.794 15.3083C156.735 15.2706 153.882 13.6572 153.882 13.6572C153.882 13.6572 155.996 15.5529 156.039 15.5906C156.082 15.6309 156.117 15.7008 156.122 15.7734Z" fill="white"/>
<path d="M153.952 16.841C154.051 16.9458 154.084 17.0292 154.1 17.1448C154.188 17.8628 154.517 20.4549 154.53 20.5571C154.546 20.6781 155.232 20.3259 155.208 20.0328C155.189 19.7827 155.006 17.5804 154.958 16.962C154.949 16.8598 154.909 16.7791 154.81 16.7146C154.74 16.6716 151.879 14.8027 151.879 14.8027C151.879 14.8027 153.885 16.7657 153.952 16.841Z" fill="white"/>
</g>
</g>
<path d="M4.96272 98.0363C4.45626 98.0363 3.98744 97.9474 3.55626 97.7694C3.12509 97.5846 2.74524 97.328 2.41672 96.9995C2.09505 96.6709 1.84524 96.2877 1.6673 95.8497C1.48935 95.4116 1.40038 94.9394 1.40038 94.4329C1.40038 93.9196 1.48935 93.4474 1.6673 93.0162C1.84524 92.5782 2.09505 92.1949 2.41672 91.8664C2.7384 91.5379 3.11482 91.2847 3.546 91.1067C3.98402 90.9219 4.45626 90.8295 4.96272 90.8295C5.46918 90.8295 5.938 90.9219 6.36918 91.1067C6.80036 91.2847 7.17678 91.5379 7.49845 91.8664C7.82697 92.1949 8.0802 92.5782 8.25814 93.0162C8.43609 93.4474 8.52506 93.9196 8.52506 94.4329C8.52506 94.9394 8.43609 95.4116 8.25814 95.8497C8.0802 96.2877 7.82697 96.6709 7.49845 96.9995C7.17678 97.328 6.80036 97.5846 6.36918 97.7694C5.938 97.9474 5.46918 98.0363 4.96272 98.0363ZM4.96272 96.5786C5.36652 96.5786 5.71215 96.4793 5.9996 96.2808C6.29389 96.0824 6.51633 95.8189 6.6669 95.4903C6.82431 95.1618 6.90302 94.8025 6.90302 94.4124C6.90302 94.0223 6.82431 93.6664 6.6669 93.3447C6.51633 93.0162 6.29389 92.7561 5.9996 92.5645C5.71215 92.366 5.36652 92.2668 4.96272 92.2668C4.55892 92.2668 4.20987 92.366 3.91558 92.5645C3.62813 92.7561 3.40569 93.0162 3.24828 93.3447C3.09087 93.6664 3.01216 94.0223 3.01216 94.4124C3.01216 94.8025 3.09087 95.1618 3.24828 95.4903C3.40569 95.8189 3.62813 96.0824 3.91558 96.2808C4.20987 96.4793 4.55892 96.5786 4.96272 96.5786ZM9.59747 97.8618V91.0143H14.1967V92.3797H11.1477V93.9299H13.4678V95.2542H11.1477V97.8618H9.59747ZM15.1316 97.8618V91.0143H19.7308V92.3797H16.6817V93.9299H19.0019V95.2542H16.6817V97.8618H15.1316ZM20.6656 97.8618V91.0143H22.2158V97.8618H20.6656ZM28.6758 95.6341L29.7332 96.5991C29.5415 96.8592 29.2952 97.0987 28.994 97.3177C28.6997 97.5367 28.3678 97.7112 27.9982 97.8413C27.6286 97.9713 27.2317 98.0363 26.8073 98.0363C26.1161 98.0363 25.5035 97.8823 24.9697 97.5744C24.4427 97.2664 24.0286 96.8455 23.7275 96.3116C23.4332 95.771 23.2861 95.155 23.2861 94.4637C23.2861 93.9573 23.3716 93.485 23.5427 93.047C23.7138 92.6021 23.9534 92.2155 24.2613 91.8869C24.5762 91.5584 24.9492 91.3018 25.3803 91.117C25.8184 90.9322 26.3009 90.8398 26.8279 90.8398C27.4575 90.8398 28.0119 90.9561 28.491 91.1888C28.9701 91.4215 29.367 91.7569 29.6818 92.1949L28.6244 93.2113C28.4191 92.9238 28.1762 92.6945 27.8955 92.5234C27.6149 92.3455 27.2796 92.2565 26.8895 92.2565C26.4788 92.2565 26.1229 92.3558 25.8218 92.5542C25.5275 92.7459 25.2982 93.0059 25.134 93.3345C24.9765 93.663 24.8978 94.0257 24.8978 94.4227C24.8978 94.8265 24.9765 95.1892 25.134 95.5109C25.2982 95.8325 25.5275 96.0892 25.8218 96.2808C26.1161 96.4656 26.4617 96.558 26.8587 96.558C27.1872 96.558 27.4609 96.5135 27.68 96.4246C27.899 96.3356 28.0838 96.2227 28.2343 96.0858C28.3917 95.9421 28.5389 95.7915 28.6758 95.6341ZM30.5408 97.8618V91.0143H32.0909V97.8618H30.5408ZM32.8327 97.8618L35.3889 91.0143H37.1034L39.6083 97.8618H37.9144L37.3908 96.2911H34.9783L34.4547 97.8618H32.8327ZM35.3376 95.09H37.0212L36.1897 92.5029L35.3376 95.09ZM40.3457 97.8618V91.0143H41.8959V96.4862H45.1708V97.8618H40.3457ZM47.4525 96.8968L48.4483 95.8189C48.6263 96.0105 48.8624 96.1987 49.1567 96.3835C49.4578 96.5683 49.8069 96.6607 50.2038 96.6607C50.3612 96.6607 50.5152 96.6333 50.6658 96.5786C50.8164 96.517 50.9396 96.4314 51.0354 96.3219C51.138 96.2055 51.1894 96.0687 51.1894 95.9113C51.1894 95.658 51.0662 95.4595 50.8198 95.3158C50.5734 95.1721 50.1833 95.0352 49.6494 94.9052C49.1293 94.7751 48.6981 94.5459 48.3559 94.2173C48.0137 93.8888 47.8426 93.4645 47.8426 92.9443C47.8426 92.5611 47.935 92.212 48.1198 91.8972C48.3046 91.5755 48.5818 91.3189 48.9513 91.1272C49.3209 90.9288 49.7863 90.8295 50.3475 90.8295C50.8129 90.8295 51.203 90.8911 51.5179 91.0143C51.8395 91.1307 52.0962 91.2607 52.2878 91.4044C52.4795 91.5482 52.6129 91.6645 52.6882 91.7535L51.7951 92.739C51.6445 92.6227 51.446 92.4926 51.1996 92.3489C50.9532 92.1983 50.6624 92.1231 50.327 92.1231C50.108 92.1231 49.9027 92.1881 49.711 92.3181C49.5262 92.4413 49.4339 92.5919 49.4339 92.7698C49.4339 93.0025 49.557 93.1907 49.8034 93.3345C50.0498 93.4782 50.3886 93.598 50.8198 93.6938C51.1551 93.7759 51.4768 93.8991 51.7848 94.0634C52.0996 94.2276 52.3563 94.4569 52.5548 94.7512C52.7532 95.0455 52.8525 95.4287 52.8525 95.901C52.8525 96.3116 52.7361 96.6778 52.5034 96.9995C52.2707 97.3211 51.9559 97.5744 51.5589 97.7592C51.162 97.9439 50.7171 98.0363 50.2243 98.0363C49.7726 98.0363 49.3723 97.9816 49.0232 97.8721C48.6742 97.7626 48.3696 97.6223 48.1095 97.4512C47.8495 97.2732 47.6304 97.0884 47.4525 96.8968ZM53.9491 95.2645V91.0143H55.5096V95.0694C55.5096 95.5143 55.6054 95.8736 55.797 96.1474C55.9955 96.4211 56.3377 96.558 56.8236 96.558C57.3095 96.558 57.6483 96.4211 57.84 96.1474C58.0316 95.8736 58.1274 95.5143 58.1274 95.0694V91.0143H59.6981V95.2645C59.6981 95.812 59.5784 96.2945 59.3388 96.712C59.1061 97.1295 58.7742 97.458 58.343 97.6976C57.9187 97.9303 57.4122 98.0466 56.8236 98.0466C56.2419 98.0466 55.7354 97.9303 55.3042 97.6976C54.8731 97.4649 54.5377 97.1398 54.2981 96.7223C54.0655 96.2979 53.9491 95.812 53.9491 95.2645ZM60.9782 97.8618V91.0143H63.4729C64.0409 91.0143 64.4995 91.1204 64.8485 91.3326C65.2044 91.5379 65.4645 91.8082 65.6287 92.1436C65.793 92.4789 65.8751 92.8383 65.8751 93.2215C65.8751 93.7075 65.7656 94.1181 65.5466 94.4535C65.3276 94.782 65.0401 95.0318 64.6843 95.2029C64.3352 95.3671 63.9554 95.4493 63.5447 95.4493H62.4873V97.8618H60.9782ZM62.4873 94.1968H63.3907C63.6713 94.1968 63.8972 94.1078 64.0683 93.9299C64.2394 93.7519 64.3249 93.5261 64.3249 93.2523C64.3249 92.9649 64.2394 92.7322 64.0683 92.5542C63.8972 92.3694 63.6679 92.277 63.3805 92.277H62.4873V94.1968ZM66.9133 97.8618V91.0143H71.5946V92.3694H68.4635V93.704H70.8965V95.0181H68.4635V96.4964H71.8205V97.8618H66.9133ZM72.8684 97.8618V91.0143H75.4144C75.9483 91.0143 76.3931 91.1136 76.749 91.312C77.1049 91.5037 77.3718 91.7637 77.5498 92.0923C77.7277 92.4139 77.8167 92.7698 77.8167 93.1599C77.8167 93.598 77.7175 93.9846 77.519 94.32C77.3273 94.6554 77.0536 94.9223 76.6977 95.1208L78.2171 97.8618H76.5129L75.2399 95.3466H74.3776V97.8618H72.8684ZM74.3776 94.1044H75.3323C75.6198 94.1044 75.8456 94.0189 76.0099 93.8478C76.1741 93.6767 76.2563 93.4611 76.2563 93.201C76.2563 92.9204 76.1707 92.698 75.9996 92.5337C75.8353 92.3694 75.6129 92.2873 75.3323 92.2873H74.3776V94.1044ZM78.5089 97.8618L81.0651 91.0143H82.7796L85.2845 97.8618H83.5906L83.067 96.2911H80.6545L80.1309 97.8618H78.5089ZM81.0138 95.09H82.6974L81.8659 92.5029L81.0138 95.09ZM86.0219 97.8618V91.0143H87.5002L90.4671 95.4595V91.0143H91.9968V97.8618H90.5903L87.5515 93.3345V97.8618H86.0219ZM93.3305 97.8618V91.0143H94.8088L97.7757 95.4595V91.0143H99.3054V97.8618H97.8989L94.8601 93.3345V97.8618H93.3305ZM100.588 95.2645V91.0143H102.148V95.0694C102.148 95.5143 102.244 95.8736 102.436 96.1474C102.634 96.4211 102.976 96.558 103.462 96.558C103.948 96.558 104.287 96.4211 104.479 96.1474C104.67 95.8736 104.766 95.5143 104.766 95.0694V91.0143H106.337V95.2645C106.337 95.812 106.217 96.2945 105.977 96.712C105.745 97.1295 105.413 97.458 104.982 97.6976C104.557 97.9303 104.051 98.0466 103.462 98.0466C102.881 98.0466 102.374 97.9303 101.943 97.6976C101.512 97.4649 101.176 97.1398 100.937 96.7223C100.704 96.2979 100.588 95.812 100.588 95.2645ZM106.711 97.8618L109.267 91.0143H110.981L113.486 97.8618H111.792L111.269 96.2911H108.856L108.333 97.8618H106.711ZM109.216 95.09H110.899L110.068 92.5029L109.216 95.09ZM114.877 97.8618V92.3797H112.659V91.0143H118.644V92.3797H116.437V97.8618H114.877ZM119.527 97.8618V91.0143H121.077V97.8618H119.527ZM125.71 98.0363C125.203 98.0363 124.735 97.9474 124.303 97.7694C123.872 97.5846 123.492 97.328 123.164 96.9995C122.842 96.6709 122.592 96.2877 122.414 95.8497C122.237 95.4116 122.148 94.9394 122.148 94.4329C122.148 93.9196 122.237 93.4474 122.414 93.0162C122.592 92.5782 122.842 92.1949 123.164 91.8664C123.486 91.5379 123.862 91.2847 124.293 91.1067C124.731 90.9219 125.203 90.8295 125.71 90.8295C126.216 90.8295 126.685 90.9219 127.116 91.1067C127.548 91.2847 127.924 91.5379 128.246 91.8664C128.574 92.1949 128.827 92.5782 129.005 93.0162C129.183 93.4474 129.272 93.9196 129.272 94.4329C129.272 94.9394 129.183 95.4116 129.005 95.8497C128.827 96.2877 128.574 96.6709 128.246 96.9995C127.924 97.328 127.548 97.5846 127.116 97.7694C126.685 97.9474 126.216 98.0363 125.71 98.0363ZM125.71 96.5786C126.114 96.5786 126.459 96.4793 126.747 96.2808C127.041 96.0824 127.264 95.8189 127.414 95.4903C127.571 95.1618 127.65 94.8025 127.65 94.4124C127.65 94.0223 127.571 93.6664 127.414 93.3447C127.264 93.0162 127.041 92.7561 126.747 92.5645C126.459 92.366 126.114 92.2668 125.71 92.2668C125.306 92.2668 124.957 92.366 124.663 92.5645C124.375 92.7561 124.153 93.0162 123.995 93.3447C123.838 93.6664 123.759 94.0223 123.759 94.4124C123.759 94.8025 123.838 95.1618 123.995 95.4903C124.153 95.8189 124.375 96.0824 124.663 96.2808C124.957 96.4793 125.306 96.5786 125.71 96.5786ZM130.345 97.8618V91.0143H131.823L134.79 95.4595V91.0143H136.32V97.8618H134.913L131.874 93.3345V97.8618H130.345ZM139.508 97.8618V91.0143H142.003C142.571 91.0143 143.029 91.1204 143.378 91.3326C143.734 91.5379 143.994 91.8082 144.159 92.1436C144.323 92.4789 144.405 92.8383 144.405 93.2215C144.405 93.7075 144.295 94.1181 144.076 94.4535C143.857 94.782 143.57 95.0318 143.214 95.2029C142.865 95.3671 142.485 95.4493 142.074 95.4493H141.017V97.8618H139.508ZM141.017 94.1968H141.921C142.201 94.1968 142.427 94.1078 142.598 93.9299C142.769 93.7519 142.855 93.5261 142.855 93.2523C142.855 92.9649 142.769 92.7322 142.598 92.5542C142.427 92.3694 142.198 92.277 141.91 92.277H141.017V94.1968ZM143.975 97.8618L146.532 91.0143H148.246L150.751 97.8618H149.057L148.534 96.2911H146.121L145.597 97.8618H143.975ZM146.48 95.09H148.164L147.332 92.5029L146.48 95.09ZM151.488 97.8618V91.0143H154.034C154.568 91.0143 155.013 91.1136 155.369 91.312C155.725 91.5037 155.992 91.7637 156.17 92.0923C156.348 92.4139 156.437 92.7698 156.437 93.1599C156.437 93.598 156.337 93.9846 156.139 94.32C155.947 94.6554 155.674 94.9223 155.318 95.1208L156.837 97.8618H155.133L153.86 95.3466H152.998V97.8618H151.488ZM152.998 94.1044H153.952C154.24 94.1044 154.466 94.0189 154.63 93.8478C154.794 93.6767 154.876 93.4611 154.876 93.201C154.876 92.9204 154.791 92.698 154.62 92.5337C154.455 92.3694 154.233 92.2873 153.952 92.2873H152.998V94.1044ZM159.29 97.8618V92.3797H157.072V91.0143H163.057V92.3797H160.85V97.8618H159.29ZM163.94 97.8618V91.0143H165.418L168.385 95.4595V91.0143H169.915V97.8618H168.509L165.47 93.3345V97.8618H163.94ZM171.249 97.8618V91.0143H175.93V92.3694H172.799V93.704H175.232V95.0181H172.799V96.4964H176.156V97.8618H171.249ZM177.204 97.8618V91.0143H179.75C180.284 91.0143 180.729 91.1136 181.084 91.312C181.44 91.5037 181.707 91.7637 181.885 92.0923C182.063 92.4139 182.152 92.7698 182.152 93.1599C182.152 93.598 182.053 93.9846 181.854 94.32C181.663 94.6554 181.389 94.9223 181.033 95.1208L182.553 97.8618H180.848L179.575 95.3466H178.713V97.8618H177.204ZM178.713 94.1044H179.668C179.955 94.1044 180.181 94.0189 180.345 93.8478C180.51 93.6767 180.592 93.4611 180.592 93.201C180.592 92.9204 180.506 92.698 180.335 92.5337C180.171 92.3694 179.948 92.2873 179.668 92.2873H178.713V94.1044Z" fill="white"/>
<defs>
<clipPath id="clip0_18708_5509">
<rect width="60.9723" height="71.6908" fill="white" transform="translate(122.881 0.12207)"/>
</clipPath>
<clipPath id="clip1_18708_5509">
<rect width="60.9723" height="72.387" fill="white" transform="translate(122.881 -0.226074)"/>
</clipPath>
</defs>
</svg>
