<svg width="103" height="55" viewBox="0 0 103 55" fill="none" xmlns="http://www.w3.org/2000/svg">
<path d="M47.2697 3.08434V9.52727H37.9016V0.15918H44.3445C45.9584 0.15918 47.2697 1.47046 47.2697 3.08434Z" fill="white"/>
<path d="M47.2697 18.8955H37.9016V28.2636H47.2697V18.8955Z" fill="white"/>
<path d="M28.5334 0.15918H19.1653V9.52727H28.5334V0.15918Z" fill="#FFD000"/>
<path d="M9.79729 7.66752V0.15918H0.429199V25.3383C0.429199 26.9522 1.74048 28.2635 3.35436 28.2635H9.79729V20.7551C9.79729 19.7275 10.6294 18.8954 11.657 18.8954H19.1654V9.52727H11.657C10.6294 9.52727 9.79729 8.69511 9.79729 7.66752Z" fill="white"/>
<path d="M28.5334 18.8955H19.1653V28.2636H28.5334V18.8955Z" fill="white"/>
<path d="M10.6421 38.571C9.99903 38.571 9.47577 38.363 9.04709 37.928C8.6247 37.4993 8.41666 36.9697 8.41666 36.3141C8.41666 35.6585 8.6184 35.0974 9.04709 34.6687C9.46947 34.2337 10.0053 34.0257 10.6673 34.0257C11.2977 34.0257 11.8146 34.24 12.2433 34.675C12.672 35.11 12.8801 35.6332 12.8801 36.2763C12.8801 36.9193 12.672 37.4741 12.2433 37.9154C11.8146 38.3567 11.2914 38.571 10.6421 38.571ZM13.1827 33.8428C12.5018 33.1935 11.6444 32.872 10.6294 32.872C9.61447 32.872 8.75709 33.1998 8.08884 33.8428C7.42059 34.4922 7.08017 35.3243 7.08017 36.3078C7.08017 37.2913 7.42059 38.0856 8.08254 38.7286C8.74448 39.3653 9.58925 39.6932 10.579 39.6932C11.5688 39.6932 12.4829 39.3716 13.1701 38.7286C13.8572 38.0856 14.2103 37.266 14.2103 36.2889C14.2103 35.3117 13.8635 34.4922 13.1827 33.8428ZM41.0159 32.9476V36.6734C41.0159 37.7389 40.6061 38.4701 39.4146 38.4701C38.2231 38.4701 37.8133 37.7389 37.8133 36.6734V32.9476H36.5209V36.9508C36.5209 38.9177 37.8511 39.6932 39.4146 39.6932C40.978 39.6932 42.3082 38.924 42.3082 36.9508V32.9476H41.0159ZM33.2238 32.9476V38.4512H36.0229V39.6049H31.9378V32.9476H33.2238ZM28.5776 35.9548C29.2143 35.9548 29.7565 35.6585 29.7565 35.028C29.7565 34.3976 29.3908 34.1013 28.5776 34.1013H27.8022V35.9548H28.5776ZM28.9432 32.9476C30.3428 32.9476 31.0426 33.8554 31.0426 35.0217C31.0426 36.188 30.1726 37.1084 28.8928 37.1084H27.8022V39.6049H26.5161V32.9476H28.9432ZM25.6398 32.9476V34.1013H23.4523V39.6049H22.1662V34.1013H19.9786V32.9476H25.6398ZM45.3973 32.8594C46.0466 32.8594 46.6708 33.0233 47.2697 33.3448V34.6561C46.5762 34.24 46.116 33.9815 45.4162 33.9815C44.7164 33.9815 44.4769 34.2211 44.458 34.5489C44.4391 34.8011 44.5967 35.0154 44.9308 35.2298C45.0253 35.2928 45.3784 35.4756 46.0088 35.7845C46.5447 36.0493 46.9481 36.3267 47.1877 36.6419C47.4273 36.9571 47.5533 37.3354 47.5533 37.7767C47.5533 38.3504 47.3453 38.8106 46.9355 39.1636C46.5258 39.5166 45.9899 39.6932 45.3343 39.6932C44.9119 39.6932 44.5399 39.649 44.2373 39.5545C43.9284 39.4599 43.588 39.3023 43.2034 39.069V37.6065C43.9158 38.1991 44.5651 38.5647 45.1956 38.5647C45.7882 38.5647 46.1853 38.3378 46.1853 37.9343C46.1853 37.6632 46.0592 37.4173 45.7314 37.2219C45.4603 37.058 45.101 36.8752 44.6786 36.6419C44.1743 36.3645 43.7645 36.1124 43.506 35.7908C43.2476 35.4693 43.1152 35.1163 43.1152 34.7002C43.1152 34.1391 43.3232 33.6978 43.7393 33.3637C44.1554 33.0296 44.7038 32.8657 45.391 32.8657M17.2174 32.8594C17.8667 32.8594 18.4908 33.0233 19.0897 33.3448V34.6561C18.4026 34.24 17.9361 33.9815 17.2363 33.9815C16.5365 33.9815 16.297 34.2211 16.278 34.5489C16.2591 34.8011 16.4167 35.0154 16.7509 35.2298C16.8454 35.2928 17.1985 35.4756 17.8289 35.7845C18.3647 36.0493 18.7682 36.3267 19.0141 36.6419C19.2536 36.9571 19.3734 37.3354 19.3734 37.7767C19.3734 38.3504 19.1654 38.8106 18.7556 39.1636C18.3458 39.5166 17.81 39.6932 17.1543 39.6932C16.7256 39.6932 16.36 39.649 16.0574 39.5545C15.7548 39.4599 15.4081 39.3023 15.0235 39.069V37.6065C15.7359 38.1991 16.3852 38.5647 17.0156 38.5647C17.6082 38.5647 18.0054 38.3378 18.0054 37.9343C18.0054 37.6632 17.8856 37.4173 17.5515 37.2219C17.2804 37.058 16.9211 36.8752 16.4987 36.6419C15.9944 36.3645 15.5846 36.1124 15.3261 35.7908C15.0676 35.4693 14.9352 35.1163 14.9352 34.7002C14.9352 34.1391 15.1433 33.6978 15.5594 33.3637C15.9754 33.0296 16.5239 32.8657 17.2111 32.8657M1.71526 32.9476V35.6017H4.87368V32.9476H6.15975V39.6049H4.87368V36.9445H1.71526V39.6049H0.429199V32.9476H1.71526Z" fill="white"/>
<line x1="58.2014" y1="0.0678711" x2="58.2014" y2="39.9319" stroke="white" stroke-width="0.318912"/>
<g clip-path="url(#clip0_18708_5586)">
<g clip-path="url(#clip1_18708_5586)">
<path d="M95.5829 32.6276C95.6248 32.4272 95.5081 32.3091 95.245 32.3091H94.7187L94.4585 33.5352H95.0207C95.2839 33.5352 95.4603 33.4051 95.5051 33.1942C95.5395 33.0358 95.4558 32.9416 95.3332 32.9027V32.8997C95.4543 32.8563 95.5545 32.7606 95.5829 32.6291V32.6276ZM95.2285 33.1628C95.2061 33.266 95.1343 33.3019 95.0371 33.3019H94.7904L94.8502 33.0223H95.0865C95.1941 33.0223 95.251 33.0642 95.23 33.1628H95.2285ZM95.2988 32.6649C95.2794 32.7547 95.2196 32.789 95.1224 32.789H94.8981L94.9504 32.5408H95.1732C95.2704 32.5408 95.3138 32.5827 95.2958 32.6649H95.2988Z" fill="white"/>
<path d="M95.6096 25.1874C92.3486 29.0869 84.107 30.1186 84.107 30.1186C84.107 30.1186 89.1593 25.6001 89.9562 20.3668L84.9413 19.6162V25.2053L79.1892 31.7424H85.6231C87.5594 31.7424 93.2113 31.5316 97.8136 27.2149L95.6096 25.1874Z" fill="white"/>
<path d="M93.2099 32.5404L93.2593 32.3071H92.4145L92.1543 33.5332H93.0081L93.0574 33.3H92.4862L92.5475 33.0159H93.026L93.0753 32.7826H92.5969L92.6477 32.5404H93.2099Z" fill="white"/>
<path d="M91.5398 33.5332H91.8224L92.0826 32.3071H91.6908L91.3066 32.974H91.3021L91.1675 32.3071H90.8012L90.541 33.5332H90.7982L90.9313 32.8962L90.9642 32.7183H90.9686L91.1316 33.4794H91.2408L91.7148 32.7183H91.7177L91.6714 32.8962L91.5398 33.5332Z" fill="white"/>
<path d="M93.5807 32.3071L93.3206 33.5332H94.1444L94.1938 33.3H93.6525L93.8633 32.3071H93.5807Z" fill="white"/>
<path d="M93.1201 31.4654C96.3094 30.9765 98.2681 29.7056 99.5196 28.7875L98.6973 28.022C97.8794 28.7337 96.1375 30.2498 93.1201 31.4654Z" fill="white"/>
<path d="M95.8175 32.919C95.7427 33.2689 95.8414 33.5515 96.2391 33.5515C96.6369 33.5515 96.8566 33.2689 96.9299 32.919C97.0032 32.5707 96.9045 32.2896 96.5068 32.2896C96.109 32.2896 95.8907 32.5707 95.816 32.919H95.8175ZM96.6488 32.919C96.598 33.1583 96.4858 33.3198 96.29 33.3198C96.0941 33.3198 96.0507 33.1598 96.1016 32.919C96.1524 32.6768 96.263 32.5228 96.4604 32.5228C96.6578 32.5228 96.7011 32.6783 96.6503 32.919H96.6488Z" fill="white"/>
<path d="M99.572 32.7034C99.6228 32.4611 99.4867 32.3071 99.2251 32.3071H98.6928L98.4326 33.5332H98.7152L98.926 32.5404H99.1593C99.2475 32.5404 99.3133 32.5897 99.2879 32.7049C99.264 32.8185 99.1772 32.8693 99.0785 32.8693H98.938L99.0785 33.5347H99.3626L99.2625 33.0622C99.4299 33.0024 99.5346 32.8783 99.572 32.7049V32.7034Z" fill="white"/>
<path d="M100.025 33.0712L100.076 32.7976H100.08L100.418 33.5332H100.693L100.954 32.3071H100.696L100.598 32.7691L100.539 33.0712H100.535L100.188 32.3071H99.9309L99.6692 33.5332H99.9279L100.025 33.0712Z" fill="white"/>
<path d="M83.4087 21.3565L78.6375 17.3896L77.7314 18.1298C79.1205 20.5774 81.9554 22.4868 81.9554 22.4868L81.9494 24.6175L77.5654 31.7422L83.3938 24.8478L83.4102 21.355L83.4087 21.3565Z" fill="white"/>
<path d="M97.6372 32.3071H97.3546L97.1886 33.0876C97.1213 33.4061 97.2888 33.5511 97.5923 33.5511C97.8958 33.5511 98.1261 33.4076 98.1934 33.0876L98.3593 32.3071H98.0768L97.9108 33.0876C97.8884 33.1938 97.8315 33.3179 97.6431 33.3179C97.4547 33.3179 97.4473 33.1938 97.4712 33.0876L97.6372 32.3071Z" fill="white"/>
<path d="M88.8827 34.8988C88.5702 34.5593 88.1291 34.3052 87.4473 34.2633C85.3106 34.1317 84.101 35.6598 83.8049 37.4361C83.5822 38.7699 84.0801 39.8419 85.6859 39.9421C86.5262 39.9944 87.2499 39.833 87.8046 39.4577C88.6599 38.8775 89.1488 37.8458 89.3283 36.7693C89.4554 36.0022 89.3058 35.3593 88.8827 34.9002V34.8988ZM87.6805 36.7648C87.4847 37.943 86.9598 38.6712 86.0941 38.6173C85.5394 38.583 85.3271 38.1733 85.4512 37.4361C85.6485 36.2489 86.1719 35.5297 87.0376 35.5821C87.5923 35.6165 87.8046 36.0187 87.6805 36.7633V36.7648Z" fill="white"/>
<path d="M84.0396 35.5803L84.3132 34.293H79.9472L79.6736 35.5803H81.1479L80.2552 39.8312H81.8895L82.5354 36.7631L82.2708 35.5803H84.0396Z" fill="white"/>
<path d="M94.5616 35.9183C94.6334 34.9 94.0203 34.293 92.8167 34.293H90.387L89.2207 39.8312H90.8475L91.5159 36.7436L91.2691 35.4951H92.407C92.8541 35.4951 93.1471 35.6506 93.1068 36.0797C93.0559 36.6105 92.6597 36.7436 92.1319 36.7436H91.5293L92.1678 39.8327H93.811L93.352 37.6452C94.1355 37.2729 94.5078 36.6793 94.5601 35.9198L94.5616 35.9183Z" fill="white"/>
<path d="M75.7293 34.7714C75.3136 35.0734 75.0848 35.5728 75.04 36.1993C74.9413 37.5989 76.4679 37.7334 77.1079 38.031C77.2828 38.1117 77.3905 38.2059 77.3815 38.342C77.371 38.4795 77.2559 38.6545 77.1228 38.7367C76.9434 38.8489 76.5053 38.8489 76.3109 38.8489C76.3064 38.8489 74.7006 38.8489 74.7006 38.8489L74.4299 40.1258C74.4299 40.1258 76.3857 40.1258 76.3931 40.1258C77.1422 40.1183 77.8585 39.9837 78.3579 39.6009C78.784 39.2735 79.0531 38.6694 79.098 38.0235C79.2221 36.2831 76.6802 36.609 76.7251 35.9885C76.7356 35.8465 76.7729 35.7448 76.9105 35.667C77.0346 35.5968 77.2858 35.5833 77.519 35.5818C77.5205 35.5818 79.1399 35.5818 79.1399 35.5818L79.409 34.2944H77.525C76.8626 34.3064 76.1913 34.438 75.7308 34.7729L75.7293 34.7714Z" fill="white"/>
<path d="M98.2234 36.7989H98.207L97.6836 34.293H95.541L94.3762 39.8312H96.003L96.5607 37.1174L96.6295 36.6315H96.646L97.2545 39.583H97.7375L99.6184 36.6315H99.6349L99.5138 37.0711L98.9396 39.8312H100.574L101.74 34.293H99.6379L98.2234 36.7989Z" fill="white"/>
<path d="M80.9926 23.6428C78.7498 22.2956 76.5488 19.0884 76.5488 19.0884C77.8781 22.2044 80.4289 23.7774 80.9896 24.1228L80.9941 23.6443L80.9926 23.6428Z" fill="white"/>
<path d="M80.8116 11.395L68.2473 24.6292L80.2658 14.8804L80.6531 16.2216L84.8756 11.6701L84.898 11.7419C84.898 11.7419 85.2075 11.7838 85.1821 11.6372C85.1552 11.4862 84.9503 10.4934 84.889 10.1585C84.8756 10.0882 84.8547 10.0419 84.7799 10.0045C84.3164 9.78467 82.2605 8.88007 82.4533 8.63037C82.6597 8.36572 84.0323 7.06787 84.0323 7.06787C84.0323 7.06787 82.6926 7.71829 81.4815 8.60944C78.6929 10.6639 77.1722 12.5119 76.6175 13.4958C76.2347 14.1731 75.9342 15.2587 75.9342 15.2587L81.5712 9.34807C81.5712 9.34807 82.8242 9.60674 84.3612 10.2437L81.2497 13.0368L80.8101 11.3965L80.8116 11.395Z" fill="white"/>
<path d="M102.101 32.5404L102.151 32.3071H101.305L101.045 33.5332H101.899L101.948 33.3H101.377L101.438 33.0159H101.917L101.966 32.7826H101.488L101.538 32.5404H102.101Z" fill="white"/>
<path d="M96.8895 15.5312C96.275 15.9843 95.5364 16.6826 95.5364 16.6826L96.7729 17.7591L96.8895 15.5312Z" fill="white"/>
<path d="M97.1557 15.3142L97.3247 18.191L97.6536 18.5768L96.7042 19.1554L95.3106 16.9066C95.3106 16.9066 93.7063 18.4138 92.6836 20.7703L91.2825 20.5609C91.2825 20.5609 90.982 22.9473 89.2236 25.854C89.2446 25.839 89.2655 25.8226 89.2864 25.8076C91.4321 24.2257 92.2066 22.0487 92.2066 22.0487C92.2066 22.0487 94.1234 23.8041 94.2969 23.9461C94.3582 23.9954 94.4943 24.0956 94.6677 24.1823C94.8561 24.2765 95.0355 24.2825 95.2598 24.2765C95.4228 24.2721 95.6127 24.2646 95.7428 24.13C96.0568 23.7682 96.305 23.4048 96.305 23.4048L95.6441 22.6393L95.7652 22.2909L96.6294 22.8322L96.9659 22.4987L95.6112 21.6569L94.8307 21.8767L95.031 21.4102L95.6067 21.0768L96.7341 21.9066L97.0885 22.1533L97.3277 21.5283L96.8163 21.0574L96.7969 20.7239L97.7404 21.1635L98.0888 21.0409L98.2144 18.9745L98.9545 19.0283L99.406 15.9168C99.406 15.9168 96.4769 13.2748 94.1414 12.1758C94.9144 13.0535 97.1528 15.3157 97.1528 15.3157L97.1557 15.3142Z" fill="white"/>
<path d="M90.0251 19.5574C90.7293 14.233 93.2502 11.8257 93.2502 11.8257C90.662 13.3942 89.8755 17.5374 89.6288 19.0207L85.1776 18.3C84.5122 17.3191 83.7975 16.2455 82.6701 15.3738L82.3965 15.6669C83.4476 16.5999 84.3866 17.9007 84.9249 18.7425C85.1537 18.7814 89.9339 19.5455 90.0251 19.5589V19.5574Z" fill="white"/>
<path d="M87.7718 8.19388C87.7793 8.5318 87.8122 9.92833 87.8152 10.0195C87.8182 10.1242 88.1994 9.88646 88.2009 9.73096C88.2009 9.60835 88.1949 8.5303 88.192 8.0952L95.8714 -0.125488L87.4159 7.50309C86.93 7.24592 86.3738 6.95285 86.3738 6.95285C86.3738 6.95285 87.6926 8.05034 87.7165 8.07426C87.7404 8.09819 87.7703 8.14603 87.7718 8.19239V8.19388Z" fill="white"/>
<path d="M86.7311 8.77097C86.7535 9.1044 86.8567 10.625 86.8642 10.7028C86.8717 10.791 87.2634 10.5548 87.2574 10.4067C87.2514 10.2737 87.1782 8.90704 87.1617 8.60201C87.1602 8.56314 87.1393 8.53174 87.1049 8.5123C87.072 8.49137 85.4856 7.59424 85.4856 7.59424C85.4856 7.59424 86.6608 8.64836 86.6848 8.6693C86.7087 8.69172 86.7281 8.7306 86.7311 8.77097Z" fill="white"/>
<path d="M85.5244 9.36482C85.5797 9.42313 85.5977 9.46948 85.6066 9.53378C85.656 9.933 85.8384 11.3744 85.8459 11.4312C85.8548 11.4985 86.2361 11.3026 86.2227 11.1396C86.2122 11.0006 86.1105 9.776 86.0836 9.4321C86.0791 9.37528 86.0567 9.33043 86.0014 9.29454C85.9625 9.27062 84.3716 8.23145 84.3716 8.23145C84.3716 8.23145 85.487 9.32295 85.5244 9.36482Z" fill="white"/>
</g>
</g>
<path d="M2.27918 54.621C1.99755 54.621 1.73687 54.5715 1.49711 54.4725C1.25735 54.3698 1.04613 54.2271 0.863461 54.0444C0.684593 53.8617 0.545686 53.6486 0.446738 53.4051C0.34779 53.1615 0.298316 52.8989 0.298316 52.6173C0.298316 52.3319 0.34779 52.0693 0.446738 51.8295C0.545686 51.5859 0.684593 51.3728 0.863461 51.1901C1.04233 51.0075 1.25164 50.8667 1.4914 50.7677C1.73496 50.665 1.99755 50.6136 2.27918 50.6136C2.5608 50.6136 2.82149 50.665 3.06124 50.7677C3.301 50.8667 3.51032 51.0075 3.68918 51.1901C3.87186 51.3728 4.01267 51.5859 4.11161 51.8295C4.21056 52.0693 4.26004 52.3319 4.26004 52.6173C4.26004 52.8989 4.21056 53.1615 4.11161 53.4051C4.01267 53.6486 3.87186 53.8617 3.68918 54.0444C3.51032 54.2271 3.301 54.3698 3.06124 54.4725C2.82149 54.5715 2.5608 54.621 2.27918 54.621ZM2.27918 53.8104C2.50371 53.8104 2.6959 53.7552 2.85574 53.6448C3.01938 53.5344 3.14307 53.3879 3.22679 53.2053C3.31432 53.0226 3.35809 52.8228 3.35809 52.6059C3.35809 52.3889 3.31432 52.191 3.22679 52.0122C3.14307 51.8295 3.01938 51.6849 2.85574 51.5783C2.6959 51.468 2.50371 51.4128 2.27918 51.4128C2.05464 51.4128 1.86055 51.468 1.69691 51.5783C1.53707 51.6849 1.41338 51.8295 1.32585 52.0122C1.23832 52.191 1.19456 52.3889 1.19456 52.6059C1.19456 52.8228 1.23832 53.0226 1.32585 53.2053C1.41338 53.3879 1.53707 53.5344 1.69691 53.6448C1.86055 53.7552 2.05464 53.8104 2.27918 53.8104ZM4.85635 54.5239V50.7163H7.41377V51.4756H5.71834V52.3376H7.00847V53.074H5.71834V54.5239H4.85635ZM7.93361 54.5239V50.7163H10.491V51.4756H8.79559V52.3376H10.0857V53.074H8.79559V54.5239H7.93361ZM11.0109 54.5239V50.7163H11.8728V54.5239H11.0109ZM15.4649 53.2852L16.0529 53.8218C15.9464 53.9664 15.8094 54.0996 15.6419 54.2214C15.4783 54.3432 15.2937 54.4402 15.0882 54.5125C14.8827 54.5848 14.6619 54.621 14.426 54.621C14.0416 54.621 13.701 54.5353 13.4042 54.3641C13.1111 54.1928 12.8809 53.9588 12.7134 53.6619C12.5498 53.3613 12.468 53.0188 12.468 52.6344C12.468 52.3528 12.5155 52.0902 12.6107 51.8466C12.7058 51.5993 12.839 51.3842 13.0103 51.2016C13.1853 51.0189 13.3927 50.8762 13.6325 50.7734C13.8761 50.6707 14.1444 50.6193 14.4374 50.6193C14.7875 50.6193 15.0958 50.684 15.3622 50.8134C15.6286 50.9428 15.8493 51.1293 16.0244 51.3728L15.4364 51.938C15.3222 51.7781 15.1871 51.6506 15.0311 51.5555C14.8751 51.4565 14.6886 51.4071 14.4717 51.4071C14.2433 51.4071 14.0454 51.4623 13.878 51.5726C13.7143 51.6792 13.5868 51.8238 13.4955 52.0065C13.408 52.1891 13.3642 52.3908 13.3642 52.6116C13.3642 52.8361 13.408 53.0378 13.4955 53.2167C13.5868 53.3955 13.7143 53.5383 13.878 53.6448C14.0416 53.7476 14.2338 53.7989 14.4545 53.7989C14.6372 53.7989 14.7894 53.7742 14.9112 53.7247C15.033 53.6753 15.1357 53.6125 15.2195 53.5364C15.307 53.4564 15.3888 53.3727 15.4649 53.2852ZM16.502 54.5239V50.7163H17.364V54.5239H16.502ZM17.7764 54.5239L19.1978 50.7163H20.1512L21.544 54.5239H20.6021L20.311 53.6505H18.9695L18.6784 54.5239H17.7764ZM19.1693 52.9826H20.1055L19.6431 51.5441L19.1693 52.9826ZM21.9541 54.5239V50.7163H22.8161V53.759H24.6371V54.5239H21.9541ZM25.9058 53.9873L26.4596 53.3879C26.5585 53.4945 26.6898 53.5991 26.8535 53.7019C27.0209 53.8047 27.215 53.856 27.4357 53.856C27.5233 53.856 27.6089 53.8408 27.6926 53.8104C27.7763 53.7761 27.8448 53.7285 27.8981 53.6676C27.9552 53.6029 27.9837 53.5268 27.9837 53.4393C27.9837 53.2985 27.9152 53.1881 27.7782 53.1082C27.6412 53.0283 27.4243 52.9522 27.1275 52.8799C26.8382 52.8076 26.5985 52.6801 26.4082 52.4974C26.2179 52.3147 26.1228 52.0788 26.1228 51.7895C26.1228 51.5764 26.1741 51.3823 26.2769 51.2073C26.3796 51.0284 26.5338 50.8857 26.7393 50.7791C26.9448 50.6688 27.2036 50.6136 27.5156 50.6136C27.7744 50.6136 27.9914 50.6478 28.1664 50.7163C28.3453 50.781 28.488 50.8533 28.5946 50.9333C28.7011 51.0132 28.7753 51.0779 28.8172 51.1274L28.3205 51.6754C28.2368 51.6107 28.1265 51.5384 27.9895 51.4584C27.8524 51.3747 27.6907 51.3329 27.5042 51.3329C27.3824 51.3329 27.2683 51.369 27.1617 51.4413C27.059 51.5098 27.0076 51.5935 27.0076 51.6925C27.0076 51.8219 27.0761 51.9265 27.2131 52.0065C27.3501 52.0864 27.5385 52.153 27.7782 52.2063C27.9647 52.2519 28.1436 52.3204 28.3148 52.4118C28.4899 52.5031 28.6326 52.6306 28.743 52.7942C28.8533 52.9579 28.9085 53.171 28.9085 53.4336C28.9085 53.6619 28.8438 53.8655 28.7144 54.0444C28.585 54.2233 28.41 54.3641 28.1893 54.4668C27.9685 54.5696 27.7212 54.621 27.4471 54.621C27.196 54.621 26.9733 54.5905 26.7792 54.5296C26.5852 54.4687 26.4158 54.3907 26.2712 54.2956C26.1266 54.1966 26.0048 54.0939 25.9058 53.9873ZM29.5183 53.0797V50.7163H30.386V52.9712C30.386 53.2186 30.4393 53.4184 30.5458 53.5706C30.6562 53.7228 30.8465 53.7989 31.1167 53.7989C31.3869 53.7989 31.5753 53.7228 31.6818 53.5706C31.7884 53.4184 31.8417 53.2186 31.8417 52.9712V50.7163H32.7151V53.0797C32.7151 53.3841 32.6485 53.6524 32.5153 53.8846C32.3859 54.1167 32.2013 54.2994 31.9616 54.4326C31.7256 54.562 31.444 54.6267 31.1167 54.6267C30.7932 54.6267 30.5116 54.562 30.2718 54.4326C30.0321 54.3032 29.8456 54.1224 29.7124 53.8903C29.583 53.6543 29.5183 53.3841 29.5183 53.0797ZM33.4269 54.5239V50.7163H34.814C35.1299 50.7163 35.3849 50.7753 35.579 50.8933C35.7769 51.0075 35.9215 51.1578 36.0128 51.3443C36.1042 51.5308 36.1498 51.7306 36.1498 51.9437C36.1498 52.2139 36.0889 52.4422 35.9672 52.6287C35.8454 52.8114 35.6855 52.9503 35.4876 53.0454C35.2936 53.1368 35.0823 53.1824 34.854 53.1824H34.266V54.5239H33.4269ZM34.266 52.486H34.7684C34.9244 52.486 35.05 52.4365 35.1451 52.3376C35.2403 52.2386 35.2879 52.113 35.2879 51.9608C35.2879 51.801 35.2403 51.6716 35.1451 51.5726C35.05 51.4699 34.9225 51.4185 34.7627 51.4185H34.266V52.486ZM36.7271 54.5239V50.7163H39.3302V51.4699H37.5891V52.212H38.942V52.9427H37.5891V53.7647H39.4558V54.5239H36.7271ZM40.0385 54.5239V50.7163H41.4542C41.7511 50.7163 41.9984 50.7715 42.1963 50.8819C42.3942 50.9884 42.5426 51.1331 42.6416 51.3157C42.7405 51.4946 42.79 51.6925 42.79 51.9094C42.79 52.153 42.7348 52.368 42.6245 52.5545C42.5179 52.741 42.3657 52.8894 42.1678 52.9997L43.0126 54.5239H42.065L41.3572 53.1253H40.8777V54.5239H40.0385ZM40.8777 52.4346H41.4086C41.5684 52.4346 41.694 52.387 41.7853 52.2919C41.8767 52.1967 41.9223 52.0769 41.9223 51.9323C41.9223 51.7762 41.8747 51.6525 41.7796 51.5612C41.6883 51.4699 41.5646 51.4242 41.4086 51.4242H40.8777V52.4346ZM43.1749 54.5239L44.5963 50.7163H45.5496L46.9425 54.5239H46.0006L45.7095 53.6505H44.368L44.0768 54.5239H43.1749ZM44.5678 52.9826H45.504L45.0416 51.5441L44.5678 52.9826ZM47.3526 54.5239V50.7163H48.1746L49.8243 53.1881V50.7163H50.6749V54.5239H49.8929L48.2031 52.0065V54.5239H47.3526ZM51.4165 54.5239V50.7163H52.2386L53.8883 53.1881V50.7163H54.7389V54.5239H53.9568L52.2671 52.0065V54.5239H51.4165ZM55.452 53.0797V50.7163H56.3197V52.9712C56.3197 53.2186 56.373 53.4184 56.4795 53.5706C56.5899 53.7228 56.7802 53.7989 57.0504 53.7989C57.3206 53.7989 57.509 53.7228 57.6155 53.5706C57.7221 53.4184 57.7753 53.2186 57.7753 52.9712V50.7163H58.6488V53.0797C58.6488 53.3841 58.5822 53.6524 58.449 53.8846C58.3196 54.1167 58.135 54.2994 57.8952 54.4326C57.6593 54.562 57.3777 54.6267 57.0504 54.6267C56.7269 54.6267 56.4453 54.562 56.2055 54.4326C55.9657 54.3032 55.7793 54.1224 55.6461 53.8903C55.5167 53.6543 55.452 53.3841 55.452 53.0797ZM58.8566 54.5239L60.278 50.7163H61.2314L62.6243 54.5239H61.6823L61.3912 53.6505H60.0497L59.7586 54.5239H58.8566ZM60.2495 52.9826H61.1857L60.7233 51.5441L60.2495 52.9826ZM63.3974 54.5239V51.4756H62.1643V50.7163H65.4924V51.4756H64.2651V54.5239H63.3974ZM65.9833 54.5239V50.7163H66.8453V54.5239H65.9833ZM69.4213 54.621C69.1397 54.621 68.879 54.5715 68.6392 54.4725C68.3995 54.3698 68.1882 54.2271 68.0056 54.0444C67.8267 53.8617 67.6878 53.6486 67.5888 53.4051C67.4899 53.1615 67.4404 52.8989 67.4404 52.6173C67.4404 52.3319 67.4899 52.0693 67.5888 51.8295C67.6878 51.5859 67.8267 51.3728 68.0056 51.1901C68.1844 51.0075 68.3937 50.8667 68.6335 50.7677C68.8771 50.665 69.1397 50.6136 69.4213 50.6136C69.7029 50.6136 69.9636 50.665 70.2033 50.7677C70.4431 50.8667 70.6524 51.0075 70.8313 51.1901C71.014 51.3728 71.1548 51.5859 71.2537 51.8295C71.3527 52.0693 71.4021 52.3319 71.4021 52.6173C71.4021 52.8989 71.3527 53.1615 71.2537 53.4051C71.1548 53.6486 71.014 53.8617 70.8313 54.0444C70.6524 54.2271 70.4431 54.3698 70.2033 54.4725C69.9636 54.5715 69.7029 54.621 69.4213 54.621ZM69.4213 53.8104C69.6458 53.8104 69.838 53.7552 69.9978 53.6448C70.1615 53.5344 70.2852 53.3879 70.3689 53.2053C70.4564 53.0226 70.5002 52.8228 70.5002 52.6059C70.5002 52.3889 70.4564 52.191 70.3689 52.0122C70.2852 51.8295 70.1615 51.6849 69.9978 51.5783C69.838 51.468 69.6458 51.4128 69.4213 51.4128C69.1967 51.4128 69.0027 51.468 68.839 51.5783C68.6792 51.6849 68.5555 51.8295 68.468 52.0122C68.3804 52.191 68.3367 52.3889 68.3367 52.6059C68.3367 52.8228 68.3804 53.0226 68.468 53.2053C68.5555 53.3879 68.6792 53.5344 68.839 53.6448C69.0027 53.7552 69.1967 53.8104 69.4213 53.8104ZM71.9985 54.5239V50.7163H72.8205L74.4703 53.1881V50.7163H75.3208V54.5239H74.5388L72.849 52.0065V54.5239H71.9985ZM77.0938 54.5239V50.7163H78.4809C78.7968 50.7163 79.0518 50.7753 79.2459 50.8933C79.4438 51.0075 79.5884 51.1578 79.6797 51.3443C79.7711 51.5308 79.8167 51.7306 79.8167 51.9437C79.8167 52.2139 79.7558 52.4422 79.6341 52.6287C79.5123 52.8114 79.3524 52.9503 79.1545 53.0454C78.9605 53.1368 78.7492 53.1824 78.5209 53.1824H77.9329V54.5239H77.0938ZM77.9329 52.486H78.4353C78.5913 52.486 78.7169 52.4365 78.812 52.3376C78.9072 52.2386 78.9547 52.113 78.9547 51.9608C78.9547 51.801 78.9072 51.6716 78.812 51.5726C78.7169 51.4699 78.5894 51.4185 78.4296 51.4185H77.9329V52.486ZM79.5779 54.5239L80.9993 50.7163H81.9527L83.3455 54.5239H82.4036L82.1125 53.6505H80.771L80.4799 54.5239H79.5779ZM80.9708 52.9826H81.907L81.4446 51.5441L80.9708 52.9826ZM83.7556 54.5239V50.7163H85.1713C85.4681 50.7163 85.7155 50.7715 85.9134 50.8819C86.1113 50.9884 86.2597 51.1331 86.3587 51.3157C86.4576 51.4946 86.5071 51.6925 86.5071 51.9094C86.5071 52.153 86.4519 52.368 86.3415 52.5545C86.235 52.741 86.0828 52.8894 85.8849 52.9997L86.7297 54.5239H85.7821L85.0742 53.1253H84.5947V54.5239H83.7556ZM84.5947 52.4346H85.1256C85.2855 52.4346 85.411 52.387 85.5024 52.2919C85.5937 52.1967 85.6394 52.0769 85.6394 51.9323C85.6394 51.7762 85.5918 51.6525 85.4967 51.5612C85.4053 51.4699 85.2817 51.4242 85.1256 51.4242H84.5947V52.4346ZM88.0934 54.5239V51.4756H86.8604V50.7163H90.1885V51.4756H88.9611V54.5239H88.0934ZM90.6794 54.5239V50.7163H91.5014L93.1512 53.1881V50.7163H94.0018V54.5239H93.2197L91.53 52.0065V54.5239H90.6794ZM94.7434 54.5239V50.7163H97.3465V51.4699H95.6054V52.212H96.9583V52.9427H95.6054V53.7647H97.4721V54.5239H94.7434ZM98.0548 54.5239V50.7163H99.4705C99.7673 50.7163 100.015 50.7715 100.213 50.8819C100.41 50.9884 100.559 51.1331 100.658 51.3157C100.757 51.4946 100.806 51.6925 100.806 51.9094C100.806 52.153 100.751 52.368 100.641 52.5545C100.534 52.741 100.382 52.8894 100.184 52.9997L101.029 54.5239H100.081L99.3734 53.1253H98.8939V54.5239H98.0548ZM98.8939 52.4346H99.4248C99.5847 52.4346 99.7102 52.387 99.8016 52.2919C99.8929 52.1967 99.9386 52.0769 99.9386 51.9323C99.9386 51.7762 99.891 51.6525 99.7959 51.5612C99.7045 51.4699 99.5809 51.4242 99.4248 51.4242H98.8939V52.4346Z" fill="white"/>
<defs>
<clipPath id="clip0_18708_5586">
<rect width="33.904" height="39.864" fill="white" transform="translate(68.2473 0.0678711)"/>
</clipPath>
<clipPath id="clip1_18708_5586">
<rect width="33.904" height="40.2512" fill="white" transform="translate(68.2473 -0.125488)"/>
</clipPath>
</defs>
</svg>
