<svg width="372" height="23" viewBox="0 0 372 23" fill="none" xmlns="http://www.w3.org/2000/svg">
<path d="M7.644 22V13.7008L0.2496 1.1896H6.5832L10.6392 8.6152L14.4456 1.1896H20.592L13.1664 13.6696V22H7.644ZM30.4561 22.4992C28.8961 22.4992 27.4505 22.2288 26.1193 21.688C24.8089 21.1472 23.6649 20.388 22.6873 19.4104C21.7305 18.412 20.9817 17.2472 20.4409 15.916C19.9001 14.5848 19.6297 13.1288 19.6297 11.548C19.6297 9.9672 19.9001 8.5112 20.4409 7.18C20.9817 5.8488 21.7305 4.6944 22.6873 3.7168C23.6649 2.7392 24.8089 1.98 26.1193 1.4392C27.4505 0.898398 28.8961 0.627998 30.4561 0.627998C32.0161 0.627998 33.4513 0.898398 34.7617 1.4392C36.0929 1.98 37.2473 2.7392 38.2249 3.7168C39.2025 4.6944 39.9513 5.8488 40.4713 7.18C41.0121 8.5112 41.2825 9.9672 41.2825 11.548C41.2825 13.1288 41.0121 14.5848 40.4713 15.916C39.9513 17.2472 39.2025 18.412 38.2249 19.4104C37.2473 20.388 36.0929 21.1472 34.7617 21.688C33.4513 22.2288 32.0161 22.4992 30.4561 22.4992ZM30.4561 17.32C31.5585 17.32 32.4841 17.06 33.2329 16.54C34.0025 16.02 34.5849 15.3232 34.9801 14.4496C35.3753 13.576 35.5729 12.6088 35.5729 11.548C35.5729 10.4872 35.3753 9.52 34.9801 8.6464C34.5849 7.7728 34.0025 7.076 33.2329 6.556C32.4841 6.036 31.5585 5.776 30.4561 5.776C29.3745 5.776 28.4489 6.036 27.6793 6.556C26.9305 7.076 26.3481 7.7728 25.9321 8.6464C25.5369 9.52 25.3393 10.4872 25.3393 11.548C25.3393 12.6088 25.5369 13.576 25.9321 14.4496C26.3481 15.3232 26.9305 16.02 27.6793 16.54C28.4489 17.06 29.3745 17.32 30.4561 17.32ZM44.0037 13.888V1.1896H49.5261V13.3888C49.5261 14.5328 49.7861 15.4688 50.3061 16.1968C50.8469 16.9248 51.7309 17.2888 52.9581 17.2888C54.1853 17.2888 55.0589 16.9248 55.5789 16.1968C56.0989 15.448 56.3589 14.512 56.3589 13.3888V1.1896H61.9437V13.888C61.9437 15.656 61.5589 17.1952 60.7893 18.5056C60.0197 19.7952 58.9589 20.7936 57.6069 21.5008C56.2757 22.1872 54.7365 22.5304 52.9893 22.5304C51.2421 22.5304 49.6925 22.1872 48.3405 21.5008C46.9885 20.8144 45.9277 19.8264 45.1581 18.5368C44.3885 17.2264 44.0037 15.6768 44.0037 13.888ZM65.47 22V1.1896H74.0812C76.3068 1.1896 78.0956 1.772 79.4476 2.9368C80.7996 4.0808 81.4756 5.776 81.4756 8.0224C81.4756 9.3744 81.174 10.56 80.5708 11.5792C79.9676 12.5984 79.1668 13.4096 78.1684 14.0128L82.63 22H76.702L73.1764 14.9176H70.8676V22H65.47ZM70.8676 10.5808H73.5508C74.2788 10.5808 74.8716 10.3624 75.3292 9.9256C75.7868 9.468 76.0156 8.8648 76.0156 8.116C76.0156 7.3256 75.7972 6.7016 75.3604 6.244C74.9236 5.7864 74.31 5.5576 73.5196 5.5576H70.8676V10.5808ZM88.8262 19.4416L92.1646 15.4168C92.747 15.9992 93.5062 16.5296 94.4422 17.008C95.399 17.4864 96.4286 17.7256 97.531 17.7256C98.0926 17.7256 98.6334 17.6112 99.1534 17.3824C99.6734 17.1536 99.9334 16.7168 99.9334 16.072C99.9334 15.5312 99.6526 15.084 99.091 14.7304C98.5294 14.356 97.7286 14.0024 96.6886 13.6696L95.5342 13.2952C94.6814 13.004 93.8286 12.6192 92.9758 12.1408C92.1438 11.6416 91.447 11.0072 90.8854 10.2376C90.3446 9.468 90.0742 8.5216 90.0742 7.3984C90.0742 6.1088 90.3758 4.9544 90.979 3.9352C91.603 2.916 92.5182 2.1152 93.7246 1.5328C94.931 0.929598 96.3974 0.627998 98.1238 0.627998C99.4966 0.627998 100.682 0.783998 101.681 1.096C102.7 1.408 103.542 1.772 104.208 2.188C104.873 2.604 105.362 2.9784 105.674 3.3112L102.866 6.868C102.138 6.3272 101.379 5.8904 100.589 5.5576C99.7982 5.204 98.987 5.0272 98.155 5.0272C97.6142 5.0272 97.0942 5.152 96.595 5.4016C96.1166 5.6304 95.8774 6.036 95.8774 6.6184C95.8774 7.2632 96.1686 7.7312 96.751 8.0224C97.3334 8.3136 98.0718 8.6048 98.9662 8.896L99.9646 9.208C100.672 9.416 101.379 9.6864 102.086 10.0192C102.814 10.3312 103.48 10.7368 104.083 11.236C104.686 11.7352 105.165 12.3696 105.518 13.1392C105.893 13.888 106.08 14.8136 106.08 15.916C106.08 17.1848 105.695 18.3184 104.925 19.3168C104.177 20.3152 103.157 21.0952 101.868 21.6568C100.599 22.2184 99.1846 22.4992 97.6246 22.4992C95.5446 22.4992 93.7974 22.2184 92.383 21.6568C90.9894 21.0952 89.8038 20.3568 88.8262 19.4416ZM108.742 13.888V1.1896H114.265V13.3888C114.265 14.5328 114.525 15.4688 115.045 16.1968C115.586 16.9248 116.47 17.2888 117.697 17.2888C118.924 17.2888 119.798 16.9248 120.318 16.1968C120.838 15.448 121.098 14.512 121.098 13.3888V1.1896H126.682V13.888C126.682 15.656 126.298 17.1952 125.528 18.5056C124.758 19.7952 123.698 20.7936 122.346 21.5008C121.014 22.1872 119.475 22.5304 117.728 22.5304C115.981 22.5304 114.431 22.1872 113.079 21.5008C111.727 20.8144 110.666 19.8264 109.897 18.5368C109.127 17.2264 108.742 15.6768 108.742 13.888ZM130.209 22V1.1896H138.695C140.921 1.1896 142.71 1.7824 144.062 2.968C145.414 4.1328 146.09 5.8384 146.09 8.0848C146.09 9.4992 145.778 10.7368 145.154 11.7976C144.53 12.8376 143.677 13.6488 142.595 14.2312C141.514 14.7928 140.266 15.0736 138.851 15.0736H135.606V22H130.209ZM135.606 10.7368H138.227C138.976 10.7368 139.569 10.4976 140.006 10.0192C140.442 9.5408 140.661 8.9272 140.661 8.1784C140.661 7.388 140.453 6.7536 140.037 6.2752C139.621 5.7968 139.007 5.5576 138.196 5.5576H135.606V10.7368ZM148.747 22V1.1896H163.723V5.9632H154.27V9.1768H162.038V13.6696H154.27V17.2264H164.378V22H148.747ZM167.164 22V1.1896H175.775C178.001 1.1896 179.789 1.772 181.141 2.9368C182.493 4.0808 183.169 5.776 183.169 8.0224C183.169 9.3744 182.868 10.56 182.265 11.5792C181.661 12.5984 180.861 13.4096 179.862 14.0128L184.324 22H178.396L174.87 14.9176H172.561V22H167.164ZM172.561 10.5808H175.245C175.973 10.5808 176.565 10.3624 177.023 9.9256C177.481 9.468 177.709 8.8648 177.709 8.116C177.709 7.3256 177.491 6.7016 177.054 6.244C176.617 5.7864 176.004 5.5576 175.213 5.5576H172.561V10.5808ZM192.236 22V1.1896H197.758V22H192.236ZM199.704 19.4416L203.043 15.4168C203.625 15.9992 204.384 16.5296 205.32 17.008C206.277 17.4864 207.307 17.7256 208.409 17.7256C208.971 17.7256 209.512 17.6112 210.032 17.3824C210.552 17.1536 210.812 16.7168 210.812 16.072C210.812 15.5312 210.531 15.084 209.969 14.7304C209.408 14.356 208.607 14.0024 207.567 13.6696L206.412 13.2952C205.56 13.004 204.707 12.6192 203.854 12.1408C203.022 11.6416 202.325 11.0072 201.764 10.2376C201.223 9.468 200.952 8.5216 200.952 7.3984C200.952 6.1088 201.254 4.9544 201.857 3.9352C202.481 2.916 203.396 2.1152 204.603 1.5328C205.809 0.929598 207.276 0.627998 209.002 0.627998C210.375 0.627998 211.56 0.783998 212.559 1.096C213.578 1.408 214.42 1.772 215.086 2.188C215.752 2.604 216.24 2.9784 216.552 3.3112L213.744 6.868C213.016 6.3272 212.257 5.8904 211.467 5.5576C210.676 5.204 209.865 5.0272 209.033 5.0272C208.492 5.0272 207.972 5.152 207.473 5.4016C206.995 5.6304 206.756 6.036 206.756 6.6184C206.756 7.2632 207.047 7.7312 207.629 8.0224C208.212 8.3136 208.95 8.6048 209.844 8.896L210.843 9.208C211.55 9.416 212.257 9.6864 212.964 10.0192C213.692 10.3312 214.358 10.7368 214.961 11.236C215.564 11.7352 216.043 12.3696 216.396 13.1392C216.771 13.888 216.958 14.8136 216.958 15.916C216.958 17.1848 216.573 18.3184 215.804 19.3168C215.055 20.3152 214.036 21.0952 212.746 21.6568C211.477 22.2184 210.063 22.4992 208.503 22.4992C206.423 22.4992 204.676 22.2184 203.261 21.6568C201.868 21.0952 200.682 20.3568 199.704 19.4416ZM225.304 22V1.1896H230.827V22H225.304ZM234.489 22V1.1896H239.512L247.499 12.796V1.1896H252.959V22H248.248L239.949 10.0504V22H234.489ZM262.426 22L254.875 1.1896H260.897L265.577 15.6664L269.945 1.1896H275.842L268.26 22H262.426ZM277.751 22V1.1896H292.727V5.9632H283.273V9.1768H291.042V13.6696H283.273V17.2264H293.382V22H277.751ZM294.451 19.4416L297.79 15.4168C298.372 15.9992 299.131 16.5296 300.067 17.008C301.024 17.4864 302.054 17.7256 303.156 17.7256C303.718 17.7256 304.258 17.6112 304.778 17.3824C305.298 17.1536 305.558 16.7168 305.558 16.072C305.558 15.5312 305.278 15.084 304.716 14.7304C304.154 14.356 303.354 14.0024 302.314 13.6696L301.159 13.2952C300.306 13.004 299.454 12.6192 298.601 12.1408C297.769 11.6416 297.072 11.0072 296.51 10.2376C295.97 9.468 295.699 8.5216 295.699 7.3984C295.699 6.1088 296.001 4.9544 296.604 3.9352C297.228 2.916 298.143 2.1152 299.35 1.5328C300.556 0.929598 302.022 0.627998 303.749 0.627998C305.122 0.627998 306.307 0.783998 307.306 1.096C308.325 1.408 309.167 1.772 309.833 2.188C310.498 2.604 310.987 2.9784 311.299 3.3112L308.491 6.868C307.763 6.3272 307.004 5.8904 306.214 5.5576C305.423 5.204 304.612 5.0272 303.78 5.0272C303.239 5.0272 302.719 5.152 302.22 5.4016C301.742 5.6304 301.502 6.036 301.502 6.6184C301.502 7.2632 301.794 7.7312 302.376 8.0224C302.958 8.3136 303.697 8.6048 304.591 8.896L305.59 9.208C306.297 9.416 307.004 9.6864 307.711 10.0192C308.439 10.3312 309.105 10.7368 309.708 11.236C310.311 11.7352 310.79 12.3696 311.143 13.1392C311.518 13.888 311.705 14.8136 311.705 15.916C311.705 17.1848 311.32 18.3184 310.55 19.3168C309.802 20.3152 308.782 21.0952 307.493 21.6568C306.224 22.2184 304.81 22.4992 303.25 22.4992C301.17 22.4992 299.422 22.2184 298.008 21.6568C296.614 21.0952 295.429 20.3568 294.451 19.4416ZM319.64 22V6.0256H313.244V1.1896H331.559V6.0256H325.225V22H319.64ZM333.975 22V1.1896H348.951V5.9632H339.498V9.1768H347.266V13.6696H339.498V17.2264H349.606V22H333.975ZM352.392 22V1.1896H360.379C362.521 1.1896 364.425 1.564 366.089 2.3128C367.773 3.0408 369.105 4.1848 370.082 5.7448C371.06 7.284 371.549 9.2704 371.549 11.704C371.549 13.992 371.06 15.9056 370.082 17.4448C369.105 18.9632 367.763 20.1072 366.057 20.8768C364.373 21.6256 362.469 22 360.348 22H352.392ZM357.914 17.1328H360.161C361.949 17.1328 363.343 16.6232 364.341 15.604C365.34 14.564 365.839 13.2224 365.839 11.5792C365.839 9.9152 365.381 8.5736 364.466 7.5544C363.551 6.5352 362.116 6.0256 360.161 6.0256H357.914V17.1328Z" fill="#FFD100"/>
</svg>
