<svg id="Layer_1" data-name="Layer 1" xmlns="http://www.w3.org/2000/svg" width="970" height="250" version="1.1" viewBox="0 0 970 250">
  <path d="M197.1,230v-6.7h1v6.7h-1ZM199.2,229.4l.6-.6c.2.2.4.3.6.4.2.1.5.2.8.2s.5,0,.8-.1c.2-.1.3-.3.3-.5s0-.3-.1-.4c0,0-.2-.2-.4-.2-.2,0-.5-.1-.8-.2-.2,0-.5-.1-.7-.2-.2-.1-.4-.2-.6-.4-.1-.2-.2-.4-.2-.7s0-.6.3-.8c.2-.2.4-.4.7-.5.3-.1.6-.2.9-.2s.7,0,1,.2c.3.1.5.2.7.4l-.5.6c-.1-.1-.3-.2-.5-.3-.2,0-.4-.1-.7-.1s-.5,0-.7.1c-.2,0-.3.2-.3.5s.1.4.4.4c.2,0,.5.2.9.3.3,0,.6.2.8.3.2.1.4.3.6.4.1.2.2.4.2.7s0,.6-.3.8c-.2.2-.4.4-.7.5-.3.1-.6.2-1,.2-.9,0-1.5-.2-2-.7ZM203.9,229.4l.6-.6c.2.2.4.3.6.4.2.1.5.2.8.2s.6,0,.8-.1c.2-.1.3-.3.3-.5s0-.3-.1-.4c0,0-.2-.2-.4-.2-.2,0-.5-.1-.8-.2-.2,0-.5-.1-.7-.2-.2-.1-.4-.2-.6-.4-.1-.2-.2-.4-.2-.7s0-.6.3-.8c.2-.2.4-.4.7-.5.3-.1.6-.2.9-.2s.7,0,1,.2c.3.1.5.2.7.4l-.5.6c-.1-.1-.3-.2-.5-.3-.2,0-.4-.1-.7-.1s-.5,0-.7.1c-.2,0-.3.2-.3.5s.1.4.3.4c.2,0,.5.2.9.3.3,0,.6.2.8.3.2.1.4.3.6.4.1.2.2.4.2.7s0,.6-.3.8c-.2.2-.4.4-.7.5-.3.1-.6.2-.9.2-.9,0-1.5-.2-2-.7ZM208.8,228.1v-2.8h.9v2.7c0,.4,0,.8.3.9.2.2.4.3.8.3s.6,0,.8-.3c.2-.2.3-.4.4-.7,0-.3.1-.6.1-.9v-2.2h.9v4.4c0,0,0,.2,0,.3h-.9v-.7c-.1.1-.2.2-.3.4-.1.1-.3.2-.5.3-.2,0-.4.1-.7.1-.6,0-1.1-.2-1.3-.5-.3-.4-.4-.8-.4-1.4ZM218,228.8l.5.5c0,0-.2.2-.4.3-.2.1-.4.2-.7.4-.3,0-.6.1-1,.1s-.9-.1-1.3-.3c-.4-.2-.7-.5-.9-.9-.2-.4-.3-.8-.3-1.3s0-.9.3-1.2c.2-.4.5-.7.8-.9.4-.2.8-.3,1.2-.3s1,.1,1.3.4c.3.3.6.6.7,1s.2.9.2,1.3h-3.7c0,.3,0,.5.2.7.1.2.3.4.5.5.2.1.5.2.8.2.4,0,.7,0,1-.2.3-.1.4-.3.6-.4ZM215,227.3h2.7c0-.4-.2-.7-.4-.9-.2-.3-.5-.4-1-.4s-.5,0-.7.2-.4.3-.5.5c-.1.2-.2.4-.2.6ZM223,230v-.6c0,0-.2.1-.3.3-.1.1-.3.2-.5.3-.2,0-.5.1-.8.1s-.7,0-1.1-.3c-.3-.2-.6-.5-.7-.8-.2-.4-.3-.8-.3-1.3s0-.8.2-1.1c.2-.3.4-.6.6-.8.2-.2.5-.3.8-.4.3-.1.5-.1.8-.1s.5,0,.7,0c.2,0,.4.1.6.2v-2.2h.9v6.4c0,0,0,.2,0,.3h-.9ZM223,228v-1.7c-.1-.1-.3-.2-.5-.2-.2,0-.4-.1-.7-.1-.4,0-.8.2-1.1.5-.3.3-.4.7-.4,1.3s0,.6.1.8c.1.2.2.4.4.6.2.1.5.2.8.2s.6,0,.8-.2c.2-.1.3-.3.4-.5,0-.2.1-.4.1-.6ZM227,229.8v-6.5h.9v2.5c0-.1.3-.3.5-.4.2-.1.6-.2.9-.2s.8.1,1.2.3c.3.2.6.5.7.9.2.4.2.8.2,1.2s-.1.9-.3,1.3c-.2.4-.5.7-.9.9-.4.2-.8.3-1.4.3s-.7,0-1.1,0c-.3,0-.6-.1-.8-.2ZM227.8,227.4v1.8c0,0,.2,0,.3,0,.1,0,.3,0,.6,0,.5,0,.9-.2,1.2-.5.3-.3.5-.7.5-1.2s0-.6-.1-.8c0-.2-.2-.4-.4-.6-.2-.2-.4-.2-.8-.2s-.5,0-.7.2c-.2.1-.3.3-.4.5,0,.2-.1.4-.1.7ZM231.8,231.8l.4-.6c0,0,.1.1.2.2,0,0,.2,0,.3,0,.2,0,.4,0,.5-.3.1-.2.2-.5.4-.8v-.3c.1,0-2-4.6-2-4.6h1l1.5,3.5,1.3-3.5h1l-1.9,4.5c0,.2-.2.4-.3.7,0,.3-.2.5-.3.7-.1.2-.3.4-.5.6-.2.2-.4.2-.7.2s-.4,0-.6,0c-.2,0-.3-.1-.4-.2ZM239.1,230v-6.7h1v2.8h3.6v-2.8h1v6.7h-1v-3h-3.6v3h-1ZM248.3,230.1c-.5,0-.9-.1-1.3-.3-.4-.2-.7-.5-.9-.9-.2-.4-.3-.8-.3-1.2s.1-.9.3-1.2c.2-.4.5-.7.9-.9.4-.2.8-.3,1.3-.3s.9.1,1.3.3c.4.2.7.5.9.9.2.4.3.8.3,1.2s-.1.9-.3,1.2c-.2.4-.5.7-.9.9-.4.2-.8.3-1.3.3ZM248.3,229.4c.3,0,.6,0,.8-.2.2-.2.4-.4.5-.6.1-.3.2-.5.2-.8s0-.6-.2-.8c-.1-.3-.3-.5-.5-.6-.2-.2-.5-.2-.8-.2s-.6,0-.8.2c-.2.2-.4.4-.5.6-.1.3-.2.5-.2.8s0,.6.2.8c.1.3.3.5.5.6.2.2.5.2.8.2ZM251.6,229.4l.6-.6c.2.2.4.3.6.4.2.1.5.2.8.2s.6,0,.8-.1c.2-.1.3-.3.3-.5s0-.3-.1-.4c0,0-.2-.2-.4-.2-.2,0-.5-.1-.8-.2-.2,0-.5-.1-.7-.2-.2-.1-.4-.2-.6-.4-.1-.2-.2-.4-.2-.7s0-.6.3-.8c.2-.2.4-.4.7-.5.3-.1.6-.2.9-.2s.7,0,1,.2c.3.1.5.2.7.4l-.5.6c-.1-.1-.3-.2-.5-.3-.2,0-.4-.1-.7-.1s-.5,0-.7.1c-.2,0-.3.2-.3.5s.1.4.3.4c.2,0,.5.2.9.3.3,0,.6.2.8.3.2.1.4.3.6.4.1.2.2.4.2.7s0,.6-.3.8c-.2.2-.4.4-.7.5-.3.1-.6.2-.9.2-.9,0-1.5-.2-2-.7ZM256.9,228.5v-2.4h-.8v-.8h.8v-1.5h.9v1.5h1.4v.8h-1.4v2.3c0,.4,0,.6.2.8.1.1.3.2.5.2s.3,0,.4,0c.1,0,.2-.1.3-.2l.4.6c-.2.2-.4.3-.6.4-.2,0-.4.1-.7.1-.5,0-.8-.1-1.1-.4-.2-.3-.3-.7-.3-1.2ZM260.2,227.6v-.9h2.9v.9h-2.9ZM264.6,230v-6.7h2.1c.5,0,.8,0,1.1.2.3.1.5.3.7.5.2.2.3.4.4.7,0,.2.1.5.1.7,0,.4,0,.8-.3,1.1-.2.3-.5.5-.8.7-.3.2-.7.2-1.2.2h-1.2v2.6h-1ZM265.6,226.6h1.2c.4,0,.7-.1,1-.3.2-.2.3-.5.3-.9s-.1-.7-.4-.9c-.2-.2-.5-.3-.9-.3h-1.2v2.4ZM269.9,230v-6.7h.9v6.7h-.9ZM272,228.1v-2.8h.9v2.7c0,.4,0,.8.3.9.2.2.4.3.8.3s.6,0,.8-.3c.2-.2.3-.4.4-.7,0-.3.1-.6.1-.9v-2.2h.9v4.4c0,0,0,.2,0,.3h-.9v-.7c-.1.1-.2.2-.3.4-.1.1-.3.2-.5.3-.2,0-.4.1-.7.1-.6,0-1.1-.2-1.3-.5-.3-.4-.4-.8-.4-1.4ZM277.2,229.4l.5-.6c.2.2.4.3.6.4.2.1.5.2.8.2s.5,0,.8-.1c.2-.1.3-.3.3-.5s0-.3-.1-.4c0,0-.2-.2-.4-.2-.2,0-.5-.1-.8-.2-.2,0-.5-.1-.7-.2-.2-.1-.4-.2-.6-.4-.1-.2-.2-.4-.2-.7s0-.6.3-.8c.2-.2.4-.4.7-.5.3-.1.6-.2.9-.2s.7,0,1,.2c.3.1.5.2.7.4l-.5.6c-.1-.1-.3-.2-.5-.3-.2,0-.5-.1-.7-.1s-.5,0-.7.1c-.2,0-.3.2-.3.5s.1.4.4.4c.2,0,.5.2.9.3.3,0,.6.2.8.3.2.1.4.3.6.4.1.2.2.4.2.7s0,.6-.3.8c-.2.2-.4.4-.7.5-.3.1-.6.2-1,.2-.9,0-1.5-.2-2-.7ZM284.1,230v-6.7h2.1c.5,0,.8,0,1.1.2.3.1.5.3.7.5s.3.4.4.7c0,.2.1.5.1.7,0,.4,0,.8-.3,1.1-.2.3-.5.5-.8.7s-.7.2-1.2.2h-1.2v2.6h-1ZM285.1,226.6h1.2c.4,0,.7-.1,1-.3.2-.2.3-.5.3-.9s-.1-.7-.4-.9c-.2-.2-.5-.3-.9-.3h-1.2v2.4ZM290.1,228.5v-2.4h-.8v-.8h.8v-1.5h.9v1.5h1.4v.8h-1.4v2.3c0,.4,0,.6.2.8.1.1.3.2.5.2s.3,0,.4,0c.1,0,.2-.1.3-.2l.4.6c-.2.2-.4.3-.6.4-.2,0-.4.1-.7.1-.5,0-.8-.1-1.1-.4-.2-.3-.3-.7-.3-1.2ZM292.9,231.8l.4-.6c0,0,.1.1.2.2,0,0,.2,0,.3,0,.2,0,.4,0,.5-.3.1-.2.2-.5.4-.8v-.3c.1,0-2-4.6-2-4.6h1l1.5,3.5,1.3-3.5h1l-1.9,4.5c0,.2-.2.4-.3.7,0,.3-.2.5-.3.7-.1.2-.3.4-.5.6-.2.2-.4.2-.7.2s-.4,0-.6,0c-.2,0-.3-.1-.4-.2ZM300.3,230v-6.7h1v5.8h3.5v.9h-4.4ZM305.6,224.5v-1h1v1h-1ZM305.6,230v-4.6h.9v4.6h-.9ZM308.7,230h-.9v-4.4c0,0,0-.2,0-.3h.9v.7c.1-.1.2-.2.3-.4.1-.1.3-.2.5-.3.2,0,.4-.1.7-.1s.7,0,.9.2c.2.1.4.3.6.6.2-.2.4-.4.7-.6.3-.2.6-.3,1-.3.6,0,1,.2,1.3.5.3.4.4.8.4,1.4v2.8h-.9v-2.7c0-.8-.3-1.3-1-1.3s-.5,0-.7.2c-.2.1-.3.3-.5.5-.1.2-.2.4-.2.7v2.6h-.9v-2.7c0-.4,0-.8-.3-.9-.2-.2-.4-.3-.7-.3s-.6,0-.8.3c-.2.2-.3.4-.4.7,0,.3-.1.6-.1.9v2.2ZM316.3,224.5v-1h1v1h-1ZM316.4,230v-4.6h.9v4.6h-.9ZM318.9,228.5v-2.4h-.8v-.8h.8v-1.5h.9v1.5h1.4v.8h-1.4v2.3c0,.4,0,.6.2.8.1.1.3.2.5.2s.3,0,.4,0c.1,0,.2-.1.3-.2l.4.6c-.2.2-.4.3-.6.4-.2,0-.4.1-.7.1-.5,0-.8-.1-1.1-.4-.2-.3-.4-.7-.4-1.2ZM325.8,228.8l.5.5c0,0-.2.2-.4.3-.2.1-.4.2-.7.4-.3,0-.6.1-1,.1s-.9-.1-1.3-.3c-.4-.2-.7-.5-.9-.9-.2-.4-.3-.8-.3-1.3s0-.9.3-1.2c.2-.4.5-.7.8-.9.4-.2.8-.3,1.2-.3s1,.1,1.3.4c.3.3.6.6.7,1,.2.4.2.9.2,1.3h-3.7c0,.3,0,.5.2.7.1.2.3.4.5.5.2.1.5.2.8.2.4,0,.7,0,1-.2.3-.1.4-.3.5-.4ZM322.8,227.3h2.7c0-.4-.2-.7-.4-.9-.2-.3-.5-.4-1-.4s-.5,0-.7.2c-.2.1-.4.3-.5.5-.1.2-.2.4-.2.6ZM330.8,230v-.6c0,0-.2.1-.3.3-.1.1-.3.2-.5.3-.2,0-.5.1-.8.1s-.7,0-1.1-.3c-.3-.2-.6-.5-.7-.8-.2-.4-.3-.8-.3-1.3s0-.8.2-1.1c.2-.3.4-.6.6-.8.2-.2.5-.3.8-.4.3-.1.5-.1.8-.1s.5,0,.6,0c.2,0,.4.1.6.2v-2.2h.9v6.4c0,0,0,.2,0,.3h-.9ZM330.8,228v-1.7c-.1-.1-.3-.2-.5-.2-.2,0-.4-.1-.7-.1-.4,0-.8.2-1.1.5-.3.3-.4.7-.4,1.3s0,.6.1.8c.1.2.2.4.5.6.2.1.5.2.8.2s.6,0,.8-.2c.2-.1.3-.3.4-.5,0-.2.1-.4.1-.6ZM333,230v-1.1h1.1v1.1h-1.1ZM340.8,227.4v-.8h2.3v2.7c-.2.2-.6.4-1,.6-.4.2-1,.3-1.6.3s-1.3-.2-1.8-.4c-.5-.3-.9-.7-1.2-1.2-.3-.5-.4-1.1-.4-1.8s0-.9.2-1.4c.2-.4.4-.8.7-1.1.3-.3.7-.6,1.1-.8.4-.2.9-.3,1.4-.3s.9,0,1.2.2c.3.1.6.3.9.5.2.2.4.4.5.6l-.7.6c-.1-.2-.2-.3-.4-.5s-.4-.3-.6-.4c-.2-.1-.5-.2-.9-.2-.5,0-.9.1-1.3.4-.4.2-.6.6-.8,1-.2.4-.3.8-.3,1.3s.1,1,.3,1.4c.2.4.5.7.9.9.4.2.8.3,1.2.3s.7,0,1-.1c.3,0,.5-.2.7-.4v-1.4h-1.4ZM348.2,228.8l.5.5c0,0-.2.2-.4.3-.2.1-.4.2-.7.4-.3,0-.6.1-1,.1s-.9-.1-1.3-.3c-.4-.2-.7-.5-.9-.9-.2-.4-.3-.8-.3-1.3s0-.9.3-1.2c.2-.4.5-.7.8-.9.4-.2.8-.3,1.2-.3s1,.1,1.3.4c.3.3.6.6.7,1,.2.4.2.9.2,1.3h-3.7c0,.3,0,.5.2.7.1.2.3.4.5.5.2.1.5.2.8.2.4,0,.7,0,1-.2.3-.1.4-.3.5-.4ZM345.2,227.3h2.7c0-.4-.2-.7-.4-.9-.2-.3-.5-.4-1-.4s-.5,0-.7.2-.4.3-.5.5c-.1.2-.2.4-.2.6ZM350.8,230h-.9v-4.4c0,0,0-.2,0-.3h.9v.7c.1-.1.2-.2.4-.4.1-.1.3-.2.5-.3.2,0,.5-.1.7-.1.6,0,1.1.2,1.4.5.3.4.4.8.4,1.4v2.8h-.9v-2.7c0-.4,0-.8-.3-.9-.2-.2-.4-.3-.8-.3s-.6,0-.8.3c-.2.2-.3.4-.4.7,0,.3-.1.6-.1.9v2.2ZM359,228.8l.5.5c0,0-.2.2-.4.3-.2.1-.4.2-.7.4-.3,0-.6.1-1,.1s-.9-.1-1.3-.3c-.4-.2-.7-.5-.9-.9-.2-.4-.3-.8-.3-1.3s0-.9.3-1.2c.2-.4.5-.7.8-.9.4-.2.8-.3,1.2-.3s1,.1,1.3.4c.3.3.6.6.7,1,.2.4.2.9.2,1.3h-3.7c0,.3,0,.5.2.7.1.2.3.4.5.5.2.1.5.2.8.2.4,0,.7,0,1-.2.3-.1.4-.3.6-.4ZM356,227.3h2.7c0-.4-.2-.7-.4-.9-.2-.3-.5-.4-1-.4s-.5,0-.7.2-.4.3-.5.5c-.1.2-.2.4-.2.6ZM361.6,230h-.9v-4.4c0,0,0-.2,0-.3h.9v.8c.1-.1.2-.2.3-.4.1-.1.3-.2.5-.3.2,0,.4-.1.7-.1s.2,0,.3,0c0,0,.2,0,.2,0l-.2.8c-.1,0-.3,0-.5,0s-.5,0-.7.2c-.2.1-.4.3-.5.5s-.2.4-.2.7v2.4ZM367.1,230v-.6c-.2.2-.4.4-.7.5-.3.1-.6.2-.9.2s-.5,0-.8-.1c-.2,0-.5-.2-.6-.5-.2-.2-.2-.5-.2-.9,0-.5.2-.9.5-1.2.4-.3.9-.4,1.5-.4s.3,0,.4,0c.2,0,.3,0,.4,0,.1,0,.2,0,.2,0v-.2c0-.3-.1-.6-.3-.7-.2-.2-.5-.2-.9-.2s-.6,0-.8.1c-.2,0-.4.2-.5.3l-.4-.6c.2-.1.4-.3.7-.4.3-.1.7-.2,1.2-.2s1.1.1,1.4.4c.3.3.5.7.5,1.2v2.9c0,0,0,.1,0,.2h-.8ZM367,228.3v-.5s-.1,0-.2,0c-.1,0-.3,0-.4,0-.1,0-.3,0-.4,0-.3,0-.6,0-.8.1-.2,0-.3.2-.4.4,0,.1,0,.3,0,.4,0,.2,0,.4.3.6.2.1.4.2.7.2s.4,0,.6-.1c.2-.1.4-.2.5-.4.1-.2.2-.3.2-.5ZM369.1,230v-6.7h.9v6.7h-.9ZM376,230v-.6c-.2.2-.4.4-.7.5-.3.1-.6.2-.9.2s-.5,0-.8-.1c-.2,0-.5-.2-.6-.5-.2-.2-.2-.5-.2-.9,0-.5.2-.9.5-1.2.4-.3.9-.4,1.5-.4s.3,0,.5,0c.2,0,.3,0,.4,0,.1,0,.2,0,.2,0v-.2c0-.3-.1-.6-.3-.7-.2-.2-.5-.2-.9-.2s-.6,0-.8.1c-.2,0-.4.2-.5.3l-.4-.6c.2-.1.4-.3.7-.4.3-.1.7-.2,1.2-.2s1.1.1,1.4.4c.3.3.5.7.5,1.2v2.9c0,0,0,.1,0,.2h-.8ZM376,228.3v-.5s-.1,0-.2,0c-.1,0-.3,0-.4,0-.1,0-.3,0-.4,0-.3,0-.6,0-.8.1-.2,0-.3.2-.4.4,0,.1,0,.3,0,.4,0,.2,0,.4.3.6.2.1.4.2.7.2s.4,0,.6-.1c.2-.1.4-.2.5-.4.1-.2.2-.3.2-.5ZM381.4,230v-.6c0,0-.2.1-.3.3-.1.1-.3.2-.5.3-.2,0-.5.1-.8.1s-.7,0-1.1-.3c-.3-.2-.6-.5-.7-.8-.2-.4-.3-.8-.3-1.3s0-.8.2-1.1c.2-.3.4-.6.6-.8.2-.2.5-.3.8-.4.3-.1.5-.1.8-.1s.5,0,.6,0c.2,0,.4.1.6.2v-2.2h.9v6.4c0,0,0,.2,0,.3h-.9ZM381.4,228v-1.7c-.1-.1-.3-.2-.5-.2-.2,0-.4-.1-.7-.1-.4,0-.8.2-1.1.5-.3.3-.4.7-.4,1.3s0,.6.1.8c.1.2.2.4.5.6.2.1.5.2.8.2s.6,0,.8-.2c.2-.1.3-.3.4-.5,0-.2.1-.4.1-.6ZM385,230l-2-4.6h1l1.5,3.6,1.4-3.6h1l-2,4.6h-.9ZM388.6,224.5v-1h1v1h-1ZM388.6,230v-4.6h.9v4.6h-.9ZM394.3,228.8l.5.6c-.2.2-.5.4-.8.6-.3.1-.7.2-1.1.2s-.9-.1-1.3-.3c-.4-.2-.6-.5-.8-.9-.2-.4-.3-.8-.3-1.3s.1-.9.3-1.2c.2-.4.5-.7.9-.9.4-.2.8-.3,1.3-.3s.7,0,1,.2c.3.1.6.3.8.6l-.6.6c-.1-.2-.3-.3-.5-.4-.2-.1-.4-.1-.7-.1s-.6,0-.8.2c-.2.2-.4.4-.5.6-.1.3-.2.5-.2.8s0,.6.2.8c.1.3.3.5.5.6.2.2.5.2.8.2s.5,0,.7-.2c.2-.1.4-.2.5-.4ZM399.2,228.8l.5.5c0,0-.2.2-.4.3-.2.1-.4.2-.7.4-.3,0-.6.1-1,.1s-.9-.1-1.3-.3c-.4-.2-.7-.5-.9-.9-.2-.4-.3-.8-.3-1.3s0-.9.3-1.2c.2-.4.5-.7.8-.9.4-.2.8-.3,1.2-.3s1,.1,1.3.4c.3.3.6.6.7,1,.2.4.2.9.2,1.3h-3.7c0,.3,0,.5.2.7.1.2.3.4.5.5.2.1.5.2.8.2.4,0,.7,0,1-.2.3-.1.4-.3.6-.4ZM396.1,227.3h2.7c0-.4-.2-.7-.4-.9-.2-.3-.5-.4-1-.4s-.5,0-.7.2c-.2.1-.4.3-.5.5-.1.2-.2.4-.2.6ZM404.8,230.1c-.5,0-.9-.1-1.3-.3-.4-.2-.7-.5-.9-.9-.2-.4-.3-.8-.3-1.2s.1-.9.3-1.2c.2-.4.5-.7.9-.9.4-.2.8-.3,1.3-.3s.9.1,1.3.3c.4.2.7.5.9.9.2.4.3.8.3,1.2s-.1.9-.3,1.2c-.2.4-.5.7-.9.9-.4.2-.8.3-1.3.3ZM404.8,229.4c.3,0,.6,0,.8-.2.2-.2.4-.4.5-.6.1-.3.2-.5.2-.8s0-.6-.2-.8c-.1-.3-.3-.5-.5-.6-.2-.2-.5-.2-.8-.2s-.6,0-.8.2c-.2.2-.4.4-.5.6-.1.3-.2.5-.2.8s0,.6.2.8c.1.3.3.5.5.6.2.2.5.2.8.2ZM409.2,230h-.9v-4.4c0,0,0-.2,0-.3h.9v.7c.1-.1.2-.2.4-.4.1-.1.3-.2.5-.3.2,0,.5-.1.7-.1.6,0,1.1.2,1.4.5.3.4.4.8.4,1.4v2.8h-.9v-2.7c0-.4,0-.8-.3-.9-.2-.2-.4-.3-.8-.3s-.6,0-.8.3c-.2.2-.3.4-.4.7,0,.3-.1.6-.1.9v2.2ZM413.8,230v-6.7h.9v6.7h-.9ZM415.5,231.8l.4-.6c0,0,.1.1.2.2,0,0,.2,0,.3,0,.2,0,.4,0,.5-.3.1-.2.2-.5.4-.8v-.3c.1,0-2-4.6-2-4.6h1l1.5,3.5,1.3-3.5h1l-1.9,4.5c0,.2-.2.4-.3.7,0,.3-.2.5-.3.7-.1.2-.3.4-.5.6-.2.2-.4.2-.7.2s-.4,0-.6,0c-.2,0-.3-.1-.4-.2ZM420.1,230v-1.1h1.1v1.1h-1.1ZM429.6,228.3l.7.6c-.1.2-.3.3-.5.6-.2.2-.5.4-.9.5-.4.2-.8.2-1.2.2s-1.2-.2-1.7-.4c-.5-.3-.9-.7-1.2-1.2-.3-.5-.4-1.1-.4-1.8s0-.9.2-1.4c.2-.4.4-.8.7-1.1.3-.3.7-.6,1.1-.8.4-.2.9-.3,1.4-.3s.9,0,1.2.2c.3.1.6.3.8.5.2.2.4.4.5.6l-.7.6c-.1-.2-.2-.3-.4-.5-.2-.2-.4-.3-.6-.4-.2-.1-.5-.2-.9-.2s-.9.1-1.3.4c-.3.2-.6.6-.8,1-.2.4-.3.8-.3,1.3s0,.9.3,1.3c.2.4.5.7.8.9.3.2.8.3,1.2.3s.7,0,1-.2c.3-.1.5-.3.6-.4.2-.2.3-.3.4-.4ZM433.2,230.1c-.5,0-.9-.1-1.3-.3-.4-.2-.7-.5-.9-.9-.2-.4-.3-.8-.3-1.2s.1-.9.3-1.2c.2-.4.5-.7.9-.9.4-.2.8-.3,1.3-.3s.9.1,1.3.3c.4.2.7.5.9.9.2.4.3.8.3,1.2s-.1.9-.3,1.2c-.2.4-.5.7-.9.9-.4.2-.8.3-1.3.3ZM433.2,229.4c.3,0,.6,0,.8-.2.2-.2.4-.4.5-.6.1-.3.2-.5.2-.8s0-.6-.2-.8c-.1-.3-.3-.5-.5-.6-.2-.2-.5-.2-.8-.2s-.6,0-.8.2c-.2.2-.4.4-.5.6-.1.3-.2.5-.2.8s0,.6.2.8c.1.3.3.5.5.6.2.2.5.2.8.2ZM437.6,230h-.9v-4.4c0,0,0-.2,0-.3h.9v.7c.1-.1.2-.2.4-.4.1-.1.3-.2.5-.3.2,0,.5-.1.7-.1.6,0,1.1.2,1.4.5.3.4.4.8.4,1.4v2.8h-.9v-2.7c0-.4,0-.8-.3-.9-.2-.2-.4-.3-.8-.3s-.6,0-.8.3c-.2.2-.3.4-.4.7,0,.3-.1.6-.1.9v2.2ZM441.9,229.4l.6-.6c.2.2.4.3.6.4.2.1.5.2.8.2s.5,0,.8-.1c.2-.1.3-.3.3-.5s0-.3-.1-.4c0,0-.2-.2-.4-.2-.2,0-.5-.1-.8-.2-.2,0-.5-.1-.7-.2-.2-.1-.4-.2-.6-.4-.1-.2-.2-.4-.2-.7s0-.6.3-.8c.2-.2.4-.4.7-.5.3-.1.6-.2.9-.2s.7,0,1,.2c.3.1.5.2.7.4l-.5.6c-.1-.1-.3-.2-.5-.3-.2,0-.5-.1-.7-.1s-.5,0-.7.1c-.2,0-.3.2-.3.5s.1.4.4.4c.2,0,.5.2.9.3.3,0,.6.2.8.3.2.1.4.3.6.4.1.2.2.4.2.7s0,.6-.3.8c-.2.2-.4.4-.7.5-.3.1-.6.2-1,.2-.9,0-1.5-.2-2-.7ZM446.9,224.5v-1h1v1h-1ZM446.9,230v-4.6h.9v4.6h-.9ZM452.5,230v-.6c0,0-.2.1-.3.3-.1.1-.3.2-.5.3-.2,0-.5.1-.8.1s-.7,0-1.1-.3c-.3-.2-.6-.5-.7-.8-.2-.4-.3-.8-.3-1.3s0-.8.2-1.1c.2-.3.4-.6.6-.8s.5-.3.8-.4c.3-.1.5-.1.8-.1s.5,0,.6,0c.2,0,.4.1.6.2v-2.2h.9v6.4c0,0,0,.2,0,.3h-.9ZM452.4,228v-1.7c-.1-.1-.3-.2-.5-.2-.2,0-.4-.1-.7-.1-.4,0-.8.2-1.1.5-.3.3-.4.7-.4,1.3s0,.6.1.8c.1.2.2.4.5.6.2.1.5.2.8.2s.6,0,.8-.2c.2-.1.3-.3.4-.5,0-.2.1-.4.1-.6ZM458.3,228.8l.5.5c0,0-.2.2-.4.3-.2.1-.4.2-.7.4-.3,0-.6.1-1,.1s-.9-.1-1.3-.3c-.4-.2-.7-.5-.9-.9-.2-.4-.3-.8-.3-1.3s0-.9.3-1.2c.2-.4.5-.7.8-.9.4-.2.8-.3,1.2-.3s1,.1,1.3.4c.3.3.6.6.7,1,.2.4.2.9.2,1.3h-3.7c0,.3,0,.5.2.7.1.2.3.4.5.5.2.1.5.2.8.2.4,0,.7,0,1-.2.3-.1.4-.3.6-.4ZM455.3,227.3h2.7c0-.4-.2-.7-.4-.9-.2-.3-.5-.4-1-.4s-.5,0-.7.2c-.2.1-.4.3-.5.5-.1.2-.2.4-.2.6ZM460.9,230h-.9v-4.4c0,0,0-.2,0-.3h.9v.8c.1-.1.2-.2.3-.4.1-.1.3-.2.5-.3.2,0,.4-.1.7-.1s.2,0,.3,0c0,0,.2,0,.2,0l-.2.8c-.1,0-.3,0-.5,0s-.5,0-.7.2c-.2.1-.4.3-.5.5s-.2.4-.2.7v2.4ZM465.8,228.5v-2.4h-.8v-.8h.8v-1.5h.9v1.5h1.4v.8h-1.4v2.3c0,.4,0,.6.2.8.1.1.3.2.5.2s.3,0,.4,0c.1,0,.2-.1.3-.2l.4.6c-.2.2-.4.3-.6.4-.2,0-.4.1-.7.1-.5,0-.8-.1-1.1-.4-.2-.3-.4-.7-.4-1.2ZM469.2,230v-6.7h.9v2.7c0-.1.2-.2.3-.3.1-.1.3-.2.5-.3.2,0,.5-.1.7-.1.6,0,1.1.2,1.4.5.3.4.4.8.4,1.4v2.8h-.9v-2.7c0-.4,0-.8-.3-.9-.2-.2-.4-.3-.8-.3s-.6,0-.8.3c-.2.2-.3.4-.4.7,0,.3-.1.6-.1.9v2.2h-.9ZM478.4,228.8l.5.5c0,0-.2.2-.4.3-.2.1-.4.2-.7.4-.3,0-.6.1-1,.1s-.9-.1-1.3-.3c-.4-.2-.7-.5-.9-.9-.2-.4-.3-.8-.3-1.3s0-.9.3-1.2c.2-.4.5-.7.8-.9.4-.2.8-.3,1.2-.3s1,.1,1.3.4c.3.3.6.6.7,1,.2.4.2.9.2,1.3h-3.7c0,.3,0,.5.2.7.1.2.3.4.5.5.2.1.5.2.8.2.4,0,.7,0,1-.2.3-.1.4-.3.6-.4ZM475.4,227.3h2.7c0-.4-.2-.7-.4-.9-.2-.3-.5-.4-1-.4s-.5,0-.7.2-.4.3-.5.5c-.1.2-.2.4-.2.6ZM482,230v-6.7h2.1c.5,0,.8,0,1.1.2.3.1.5.3.7.5.2.2.3.4.4.7,0,.2.1.5.1.7,0,.4,0,.8-.3,1.1-.2.3-.5.5-.8.7s-.7.2-1.2.2h-1.2v2.6h-.9ZM482.9,226.6h1.2c.4,0,.7-.1.9-.3.2-.2.3-.5.3-.9s-.1-.7-.3-.9c-.2-.2-.5-.3-.9-.3h-1.2v2.4ZM487.6,230v-6.7h2.2c.7,0,1.3.1,1.9.4.5.2,1,.6,1.3,1.1.3.5.5,1.1.5,1.9s-.2,1.4-.5,1.9c-.3.5-.7.9-1.3,1.1s-1.2.4-1.9.4h-2.2ZM488.6,229.1h1.2c.8,0,1.5-.2,1.9-.6.5-.4.7-1,.7-1.8s-.2-1.4-.7-1.9c-.4-.4-1.1-.6-2-.6h-1.2v4.9ZM494.3,229l.7-.6c.1.1.3.3.4.4.2.1.4.3.6.3.2,0,.5.1.8.1.4,0,.8,0,1-.3.2-.2.4-.5.4-.8s-.1-.6-.4-.8c-.3-.2-.7-.3-1.2-.4-.6-.1-1-.3-1.4-.7-.4-.3-.5-.7-.5-1.3s0-.6.2-.9c.2-.3.4-.5.8-.7.3-.2.7-.3,1.2-.3s.8,0,1.1.2c.3.1.5.2.7.4s.3.3.3.4l-.6.6c0,0-.1-.2-.3-.3-.1-.1-.3-.2-.5-.3-.2,0-.4-.1-.7-.1s-.5,0-.7.2c-.2,0-.3.2-.4.4,0,.1-.1.3-.1.4,0,.3.1.6.4.7.3.2.7.3,1.2.4.3,0,.6.2,1,.4.3.2.5.4.7.6.2.3.3.6.3,1.1s-.1.7-.3,1c-.2.3-.5.5-.8.7-.4.2-.8.2-1.2.2s-.8,0-1.1-.2c-.3-.1-.6-.3-.8-.5-.2-.2-.4-.4-.5-.5ZM505.2,230v-.6c-.2.2-.4.4-.7.5-.3.1-.6.2-.9.2s-.5,0-.8-.1c-.2,0-.5-.2-.6-.5-.2-.2-.2-.5-.2-.9,0-.5.2-.9.5-1.2.4-.3.9-.4,1.5-.4s.3,0,.5,0c.2,0,.3,0,.4,0,.1,0,.2,0,.2,0v-.2c0-.3-.1-.6-.3-.7-.2-.2-.5-.2-.9-.2s-.6,0-.8.1c-.2,0-.4.2-.5.3l-.4-.6c.2-.1.4-.3.7-.4.3-.1.7-.2,1.2-.2s1.1.1,1.4.4c.3.3.5.7.5,1.2v2.9c0,0,0,.1,0,.2h-.8ZM505.1,228.3v-.5s-.1,0-.2,0c-.1,0-.3,0-.4,0-.1,0-.3,0-.4,0-.3,0-.6,0-.8.1-.2,0-.3.2-.4.4,0,.1,0,.3,0,.4,0,.2,0,.4.3.6.2.1.4.2.7.2s.4,0,.6-.1c.2-.1.4-.2.5-.4.1-.2.2-.3.2-.5ZM508.1,230h-.9v-4.4c0,0,0-.2,0-.3h.9v.7c.1-.1.2-.2.4-.4.1-.1.3-.2.5-.3.2,0,.5-.1.7-.1.6,0,1.1.2,1.3.5.3.4.4.8.4,1.4v2.8h-.9v-2.7c0-.4,0-.8-.3-.9-.2-.2-.4-.3-.8-.3s-.6,0-.8.3c-.2.2-.3.4-.4.7,0,.3-.1.6-.1.9v2.2ZM516,230v-.6c0,0-.2.1-.3.3-.1.1-.3.2-.5.3-.2,0-.5.1-.8.1s-.7,0-1.1-.3c-.3-.2-.6-.5-.7-.8s-.3-.8-.3-1.3,0-.8.2-1.1c.2-.3.3-.6.6-.8.2-.2.5-.3.8-.4.3-.1.5-.1.8-.1s.5,0,.6,0c.2,0,.4.1.6.2v-2.2h.9v6.4c0,0,0,.2,0,.3h-.9ZM516,228v-1.7c-.1-.1-.3-.2-.5-.2-.2,0-.4-.1-.7-.1-.4,0-.8.2-1.1.5-.3.3-.4.7-.4,1.3s0,.6.1.8c0,.2.2.4.4.6.2.1.5.2.8.2s.6,0,.8-.2c.2-.1.3-.3.4-.5,0-.2.1-.4.1-.6ZM522,230v-5.8h-2.4v-.8h5.7v.8h-2.4v5.8h-1ZM526.1,230l.3-6.7h.9l2,3.5,2-3.5h.9l.3,6.7h-.9l-.2-5.1-1.9,3.1h-.5l-1.9-3.1-.2,5.1h-.9ZM534.1,230v-6.7h2.2c.7,0,1.3.1,1.9.4.5.2,1,.6,1.3,1.1.3.5.5,1.1.5,1.9s-.2,1.4-.5,1.9c-.3.5-.7.9-1.3,1.1-.5.2-1.2.4-1.9.4h-2.2ZM535,229.1h1.2c.8,0,1.5-.2,1.9-.6.5-.4.7-1,.7-1.8s-.2-1.4-.7-1.9c-.4-.4-1.1-.6-2-.6h-1.2v4.9ZM545.8,230v-.6c-.2.2-.4.4-.7.5-.3.1-.6.2-.9.2s-.5,0-.8-.1c-.2,0-.5-.2-.6-.5-.2-.2-.2-.5-.2-.9,0-.5.2-.9.5-1.2.4-.3.9-.4,1.5-.4s.3,0,.5,0c.2,0,.3,0,.4,0,.1,0,.2,0,.2,0v-.2c0-.3-.1-.6-.3-.7-.2-.2-.5-.2-.9-.2s-.6,0-.8.1c-.2,0-.4.2-.5.3l-.4-.6c.2-.1.4-.3.7-.4.3-.1.7-.2,1.2-.2s1.1.1,1.4.4c.3.3.5.7.5,1.2v2.9c0,0,0,.1,0,.2h-.8ZM545.8,228.3v-.5s-.1,0-.2,0c-.1,0-.3,0-.4,0-.1,0-.3,0-.4,0-.3,0-.6,0-.8.1-.2,0-.3.2-.4.4,0,.1,0,.3,0,.4,0,.2,0,.4.3.6.2.1.4.2.7.2s.4,0,.6-.1c.2-.1.4-.2.5-.4.1-.2.2-.3.2-.5ZM549.1,230l-2-4.6h1l1.4,3.6,1.4-3.6h1l-2,4.6h-.9ZM555.4,230v-.6c-.2.2-.4.4-.7.5-.3.1-.6.2-.9.2s-.5,0-.8-.1c-.2,0-.5-.2-.6-.5-.2-.2-.2-.5-.2-.9,0-.5.2-.9.5-1.2.4-.3.9-.4,1.5-.4s.3,0,.4,0c.2,0,.3,0,.4,0,.1,0,.2,0,.2,0v-.2c0-.3-.1-.6-.3-.7-.2-.2-.5-.2-.9-.2s-.6,0-.8.1c-.2,0-.4.2-.5.3l-.4-.6c.2-.1.4-.3.7-.4.3-.1.7-.2,1.2-.2s1.1.1,1.4.4c.3.3.5.7.5,1.2v2.9c0,0,0,.1,0,.2h-.8ZM555.4,228.3v-.5s-.1,0-.2,0c-.1,0-.3,0-.4,0-.1,0-.3,0-.4,0-.3,0-.6,0-.8.1-.2,0-.3.2-.4.4,0,.1,0,.3,0,.4,0,.2,0,.4.3.6.2.1.4.2.7.2s.4,0,.6-.1c.2-.1.4-.2.5-.4.1-.2.2-.3.2-.5ZM557.4,224.5v-1h1v1h-1ZM557.5,230v-4.6h.9v4.6h-.9ZM559.7,230v-6.7h.9v6.7h-.9ZM564.7,230v-.6c-.2.2-.4.4-.7.5-.3.1-.6.2-.9.2s-.5,0-.8-.1c-.2,0-.5-.2-.6-.5-.2-.2-.2-.5-.2-.9,0-.5.2-.9.5-1.2.4-.3.9-.4,1.5-.4s.3,0,.5,0c.2,0,.3,0,.4,0,.1,0,.2,0,.2,0v-.2c0-.3-.1-.6-.3-.7-.2-.2-.5-.2-.9-.2s-.6,0-.8.1c-.2,0-.4.2-.5.3l-.4-.6c.2-.1.4-.3.7-.4.3-.1.7-.2,1.2-.2s1.1.1,1.4.4c.3.3.5.7.5,1.2v2.9c0,0,0,.1,0,.2h-.8ZM564.7,228.3v-.5s-.1,0-.2,0c-.1,0-.3,0-.4,0-.1,0-.3,0-.4,0-.3,0-.6,0-.8.1-.2,0-.3.2-.4.4,0,.1,0,.3,0,.4,0,.2,0,.4.3.6.2.1.4.2.7.2s.4,0,.6-.1c.2-.1.4-.2.5-.4.1-.2.2-.3.2-.5ZM566.8,229.8v-6.5h.9v2.5c0-.1.3-.3.5-.4.2-.1.6-.2.9-.2s.8.1,1.2.3c.3.2.6.5.7.9.2.4.2.8.2,1.2s-.1.9-.3,1.3c-.2.4-.5.7-.9.9-.4.2-.8.3-1.4.3s-.7,0-1.1,0c-.3,0-.6-.1-.8-.2ZM567.7,227.4v1.8c0,0,.2,0,.3,0,.1,0,.3,0,.6,0,.5,0,.9-.2,1.2-.5.3-.3.5-.7.5-1.2s0-.6-.1-.8c0-.2-.2-.4-.4-.6-.2-.2-.5-.2-.8-.2s-.5,0-.7.2c-.2.1-.3.3-.4.5,0,.2-.1.4-.1.7ZM572.3,230v-6.7h.9v6.7h-.9ZM578.1,228.8l.5.5c0,0-.2.2-.4.3-.2.1-.4.2-.7.4-.3,0-.6.1-1,.1s-.9-.1-1.3-.3c-.4-.2-.7-.5-.9-.9-.2-.4-.3-.8-.3-1.3s0-.9.3-1.2c.2-.4.5-.7.8-.9.4-.2.8-.3,1.2-.3s1,.1,1.3.4c.3.3.6.6.7,1,.2.4.2.9.2,1.3h-3.7c0,.3,0,.5.2.7.1.2.3.4.5.5.2.1.5.2.8.2.4,0,.7,0,1-.2.3-.1.4-.3.5-.4ZM575.1,227.3h2.7c0-.4-.2-.7-.4-.9-.2-.3-.5-.4-1-.4s-.5,0-.7.2c-.2.1-.4.3-.5.5-.1.2-.2.4-.2.6ZM584.5,230v-.6c-.2.2-.4.4-.7.5-.3.1-.6.2-.9.2s-.5,0-.8-.1c-.2,0-.5-.2-.6-.5-.2-.2-.2-.5-.2-.9,0-.5.2-.9.5-1.2.4-.3.9-.4,1.5-.4s.3,0,.5,0c.2,0,.3,0,.4,0,.1,0,.2,0,.2,0v-.2c0-.3-.1-.6-.3-.7-.2-.2-.5-.2-.8-.2s-.6,0-.8.1c-.2,0-.4.2-.5.3l-.4-.6c.2-.1.4-.3.7-.4.3-.1.7-.2,1.2-.2s1.1.1,1.4.4c.3.3.5.7.5,1.2v2.9c0,0,0,.1,0,.2h-.8ZM584.5,228.3v-.5s-.1,0-.2,0c-.1,0-.3,0-.4,0-.1,0-.3,0-.4,0-.3,0-.6,0-.8.1-.2,0-.3.2-.4.4,0,.1,0,.3,0,.4,0,.2,0,.4.3.6.2.1.4.2.7.2s.4,0,.6-.1c.2-.1.4-.2.5-.4.1-.2.2-.3.2-.5ZM586.9,228.5v-2.4h-.8v-.8h.8v-1.5h.9v1.5h1.4v.8h-1.4v2.3c0,.4,0,.6.2.8.1.1.3.2.5.2s.3,0,.4,0c.1,0,.2-.1.3-.2l.4.6c-.2.2-.4.3-.6.4-.2,0-.4.1-.7.1-.5,0-.8-.1-1.1-.4-.2-.3-.4-.7-.4-1.2ZM592.2,230v-6.7h.9v2.7c0-.1.2-.2.3-.3.1-.1.3-.2.5-.3.2,0,.5-.1.7-.1.6,0,1.1.2,1.3.5.3.4.4.8.4,1.4v2.8h-.9v-2.7c0-.4,0-.8-.3-.9-.2-.2-.4-.3-.8-.3s-.6,0-.8.3c-.2.2-.3.4-.4.7,0,.3-.1.6-.1.9v2.2h-.9ZM599.9,230.1c-.5,0-.9-.1-1.3-.3-.4-.2-.7-.5-.9-.9-.2-.4-.3-.8-.3-1.2s.1-.9.3-1.2c.2-.4.5-.7.9-.9.4-.2.8-.3,1.3-.3s.9.1,1.3.3c.4.2.7.5.9.9.2.4.3.8.3,1.2s-.1.9-.3,1.2c-.2.4-.5.7-.9.9-.4.2-.8.3-1.3.3ZM599.9,229.4c.3,0,.6,0,.8-.2.2-.2.4-.4.5-.6.1-.3.2-.5.2-.8s0-.6-.2-.8c-.1-.3-.3-.5-.5-.6-.2-.2-.5-.2-.8-.2s-.6,0-.8.2c-.2.2-.4.4-.5.6-.1.3-.2.5-.2.8s0,.6.2.8c.1.3.3.5.5.6.2.2.5.2.8.2ZM603.1,229.4l.5-.6c.2.2.4.3.6.4.2.1.5.2.8.2s.5,0,.8-.1c.2-.1.3-.3.3-.5s0-.3-.1-.4c0,0-.2-.2-.4-.2-.2,0-.5-.1-.8-.2-.2,0-.5-.1-.7-.2-.2-.1-.4-.2-.6-.4-.1-.2-.2-.4-.2-.7s0-.6.3-.8c.2-.2.4-.4.7-.5.3-.1.6-.2.9-.2s.7,0,1,.2c.3.1.5.2.7.4l-.5.6c-.1-.1-.3-.2-.5-.3-.2,0-.5-.1-.7-.1s-.5,0-.7.1c-.2,0-.3.2-.3.5s.1.4.4.4c.2,0,.5.2.9.3.3,0,.6.2.8.3.2.1.4.3.6.4.1.2.2.4.2.7s0,.6-.3.8c-.2.2-.4.4-.7.5-.3.1-.6.2-1,.2-.9,0-1.5-.2-2-.7ZM608.5,228.5v-2.4h-.8v-.8h.8v-1.5h.9v1.5h1.4v.8h-1.4v2.3c0,.4,0,.6.2.8.1.1.3.2.5.2s.3,0,.4,0c.1,0,.2-.1.3-.2l.4.6c-.2.2-.4.3-.6.4-.2,0-.4.1-.7.1-.5,0-.8-.1-1.1-.4-.2-.3-.4-.7-.4-1.2ZM612.8,232h-.9v-6.4c0,0,0-.2,0-.3h.9v.7c0,0,.2-.2.3-.3.1-.1.3-.2.5-.3.2,0,.5-.1.8-.1.5,0,.9.1,1.2.3.3.2.5.5.7.9.2.4.2.8.2,1.2s0,.8-.2,1.1c-.1.3-.3.6-.6.8-.2.2-.5.3-.8.4-.3,0-.6.1-.8.1s-.6,0-.8-.1c-.2,0-.4-.1-.5-.2v2.2ZM612.8,227.8v1.2c.1,0,.3.2.5.2.2,0,.4.1.8.1s.6,0,.8-.2c.2-.1.4-.3.5-.6.1-.3.2-.5.2-.9s0-.6-.1-.8c0-.3-.2-.5-.4-.6s-.5-.2-.8-.2-.6,0-.8.3c-.2.2-.4.4-.5.8,0,.1,0,.2,0,.3,0,.1,0,.2,0,.4ZM617.5,230v-6.7h.9v6.7h-.9ZM619.6,228.1v-2.8h.9v2.7c0,.4,0,.8.3.9s.4.3.8.3.6,0,.8-.3c.2-.2.3-.4.4-.7,0-.3.1-.6.1-.9v-2.2h.9v4.4c0,0,0,.2,0,.3h-.9v-.7c-.1.1-.2.2-.3.4-.1.1-.3.2-.5.3-.2,0-.4.1-.7.1-.6,0-1.1-.2-1.3-.5-.3-.4-.4-.8-.4-1.4ZM624.8,229.4l.5-.6c.2.2.4.3.6.4.2.1.5.2.8.2s.6,0,.8-.1c.2-.1.3-.3.3-.5s0-.3-.1-.4c0,0-.2-.2-.4-.2-.2,0-.5-.1-.8-.2-.2,0-.5-.1-.7-.2-.2-.1-.4-.2-.6-.4-.1-.2-.2-.4-.2-.7s0-.6.3-.8c.2-.2.4-.4.7-.5.3-.1.6-.2.9-.2s.7,0,1,.2c.3.1.5.2.7.4l-.5.6c-.1-.1-.3-.2-.5-.3-.2,0-.5-.1-.7-.1s-.5,0-.7.1c-.2,0-.3.2-.3.5s.1.4.4.4c.2,0,.5.2.9.3.3,0,.6.2.8.3.2.1.4.3.6.4.1.2.2.4.2.7s0,.6-.3.8c-.2.2-.4.4-.7.5-.3.1-.6.2-1,.2-.9,0-1.5-.2-2-.7ZM629.6,230v-1.1h1.1v1.1h-1.1ZM635.2,228.8l.6.6c-.2.2-.5.4-.8.6-.3.1-.7.2-1,.2s-.9-.1-1.3-.3c-.4-.2-.6-.5-.8-.9-.2-.4-.3-.8-.3-1.3s.1-.9.3-1.2c.2-.4.5-.7.9-.9.4-.2.8-.3,1.3-.3s.7,0,1,.2.6.3.8.6l-.6.6c-.1-.2-.3-.3-.5-.4-.2-.1-.4-.1-.7-.1s-.6,0-.8.2c-.2.2-.4.4-.5.6-.1.3-.2.5-.2.8s0,.6.2.8c.1.3.3.5.5.6.2.2.5.2.8.2s.5,0,.7-.2c.2-.1.4-.2.5-.4ZM638.6,230.1c-.5,0-.9-.1-1.3-.3-.4-.2-.7-.5-.9-.9-.2-.4-.3-.8-.3-1.2s.1-.9.3-1.2c.2-.4.5-.7.9-.9.4-.2.8-.3,1.3-.3s.9.1,1.3.3c.4.2.7.5.9.9.2.4.3.8.3,1.2s-.1.9-.3,1.2c-.2.4-.5.7-.9.9-.4.2-.8.3-1.3.3ZM638.6,229.4c.3,0,.6,0,.8-.2.2-.2.4-.4.5-.6.1-.3.2-.5.2-.8s0-.6-.2-.8c-.1-.3-.3-.5-.5-.6-.2-.2-.5-.2-.8-.2s-.6,0-.8.2c-.2.2-.4.4-.5.6-.1.3-.2.5-.2.8s0,.6.2.8c.1.3.3.5.5.6.2.2.5.2.8.2ZM642.9,230h-.9v-4.4c0,0,0-.2,0-.3h.9v.7c.1-.1.2-.2.3-.4.1-.1.3-.2.5-.3.2,0,.4-.1.7-.1s.7,0,.9.2c.2.1.4.3.6.6.2-.2.4-.4.7-.6.3-.2.6-.3,1-.3.6,0,1,.2,1.3.5.3.4.4.8.4,1.4v2.8h-.9v-2.7c0-.8-.3-1.3-1-1.3s-.5,0-.7.2c-.2.1-.3.3-.5.5-.1.2-.2.4-.2.7v2.6h-.9v-2.7c0-.4,0-.8-.3-.9-.2-.2-.4-.3-.7-.3s-.6,0-.8.3c-.2.2-.3.4-.4.7,0,.3-.1.6-.1.9v2.2ZM650.6,230v-1.1h1.1v1.1h-1.1ZM656,230v-.6c-.2.2-.4.4-.7.5-.3.1-.6.2-.9.2s-.5,0-.8-.1c-.2,0-.5-.2-.6-.5-.2-.2-.2-.5-.2-.9,0-.5.2-.9.5-1.2.4-.3.9-.4,1.5-.4s.3,0,.5,0c.2,0,.3,0,.4,0,.1,0,.2,0,.2,0v-.2c0-.3-.1-.6-.3-.7-.2-.2-.5-.2-.9-.2s-.6,0-.8.1c-.2,0-.4.2-.5.3l-.4-.6c.2-.1.4-.3.7-.4.3-.1.7-.2,1.2-.2s1.1.1,1.4.4c.3.3.5.7.5,1.2v2.9c0,0,0,.1,0,.2h-.8ZM656,228.3v-.5s-.1,0-.2,0c-.1,0-.3,0-.4,0-.1,0-.3,0-.4,0-.3,0-.6,0-.8.1-.2,0-.3.2-.4.4,0,.1,0,.3,0,.4,0,.2,0,.4.3.6.2.1.4.2.7.2s.4,0,.6-.1c.2-.1.4-.2.5-.4.1-.2.2-.3.2-.5ZM658,228.1v-2.8h.9v2.7c0,.4,0,.8.3.9s.4.3.8.3.6,0,.8-.3c.2-.2.3-.4.4-.7,0-.3.1-.6.1-.9v-2.2h.9v4.4c0,0,0,.2,0,.3h-.9v-.7c-.1.1-.2.2-.3.4-.1.1-.3.2-.5.3-.2,0-.4.1-.7.1-.6,0-1.1-.2-1.3-.5-.3-.4-.4-.8-.4-1.4ZM665.3,229.8v-6.5h.9v2.5c0-.1.3-.3.5-.4.2-.1.6-.2.9-.2s.8.1,1.2.3c.3.2.6.5.7.9.2.4.2.8.2,1.2s-.1.9-.3,1.3c-.2.4-.5.7-.9.9-.4.2-.8.3-1.4.3s-.7,0-1.1,0c-.3,0-.6-.1-.8-.2ZM666.2,227.4v1.8c0,0,.2,0,.3,0,.1,0,.3,0,.6,0,.5,0,.9-.2,1.2-.5.3-.3.5-.7.5-1.2s0-.6-.1-.8c0-.2-.2-.4-.4-.6-.2-.2-.5-.2-.8-.2s-.5,0-.7.2c-.2.1-.3.3-.4.5,0,.2-.1.4-.1.7ZM674.5,228.8l.5.5c0,0-.2.2-.4.3-.2.1-.4.2-.7.4-.3,0-.6.1-1,.1s-.9-.1-1.3-.3c-.4-.2-.7-.5-.9-.9-.2-.4-.3-.8-.3-1.3s0-.9.3-1.2c.2-.4.5-.7.8-.9.4-.2.8-.3,1.2-.3s1,.1,1.3.4c.3.3.6.6.7,1s.2.9.2,1.3h-3.7c0,.3,0,.5.2.7.1.2.3.4.6.5.2.1.5.2.8.2.4,0,.7,0,1-.2.3-.1.4-.3.5-.4ZM671.5,227.3h2.7c0-.4-.2-.7-.4-.9-.2-.3-.5-.4-1-.4s-.5,0-.7.2c-.2.1-.4.3-.5.5-.1.2-.2.4-.2.6ZM676.5,230v-3.9h-.8v-.8h.8v-.4c0-.4,0-.8.2-1,.2-.3.4-.5.6-.6.2-.1.5-.2.8-.2s.5,0,.7.1c.2,0,.5.2.7.4l-.5.6c-.2-.2-.5-.3-.8-.3s-.5,0-.6.2c-.2.2-.2.5-.2.9v.3h1.3v.8h-1.3v3.9h-.9ZM681.5,230.1c-.5,0-.9-.1-1.3-.3-.4-.2-.7-.5-.9-.9-.2-.4-.3-.8-.3-1.2s.1-.9.3-1.2c.2-.4.5-.7.9-.9.4-.2.8-.3,1.3-.3s.9.1,1.3.3c.4.2.7.5.9.9.2.4.3.8.3,1.2s-.1.9-.3,1.2c-.2.4-.5.7-.9.9-.4.2-.8.3-1.3.3ZM681.5,229.4c.3,0,.6,0,.8-.2.2-.2.4-.4.5-.6.1-.3.2-.5.2-.8s0-.6-.2-.8c-.1-.3-.3-.5-.5-.6-.2-.2-.5-.2-.8-.2s-.6,0-.8.2c-.2.2-.4.4-.5.6-.1.3-.2.5-.2.8s0,.6.2.8c.1.3.3.5.5.6.2.2.5.2.8.2ZM685.9,230h-.9v-4.4c0,0,0-.2,0-.3h.9v.8c.1-.1.2-.2.3-.4.1-.1.3-.2.5-.3s.4-.1.7-.1.2,0,.3,0c0,0,.2,0,.2,0l-.2.8c-.1,0-.3,0-.5,0s-.5,0-.7.2c-.2.1-.4.3-.5.5s-.2.4-.2.7v2.4ZM692.1,228.8l.5.5c0,0-.2.2-.4.3-.2.1-.4.2-.7.4-.3,0-.6.1-1,.1s-.9-.1-1.3-.3c-.4-.2-.7-.5-.9-.9-.2-.4-.3-.8-.3-1.3s0-.9.3-1.2c.2-.4.5-.7.8-.9.4-.2.8-.3,1.2-.3s1,.1,1.3.4c.3.3.6.6.7,1,.2.4.2.9.2,1.3h-3.7c0,.3,0,.5.2.7.1.2.3.4.5.5.2.1.5.2.8.2.4,0,.7,0,1-.2.3-.1.4-.3.5-.4ZM689,227.3h2.7c0-.4-.2-.7-.4-.9-.2-.3-.5-.4-1-.4s-.5,0-.7.2c-.2.1-.4.3-.5.5-.1.2-.2.4-.2.6ZM696.4,230h-.9v-4.4c0,0,0-.2,0-.3h.9v.7c.1-.1.2-.2.3-.4.1-.1.3-.2.5-.3.2,0,.4-.1.7-.1s.7,0,.9.2c.2.1.4.3.6.6.2-.2.4-.4.7-.6.3-.2.6-.3,1-.3.6,0,1,.2,1.3.5.3.4.4.8.4,1.4v2.8h-.9v-2.7c0-.8-.3-1.3-1-1.3s-.5,0-.7.2c-.2.1-.3.3-.5.5-.1.2-.2.4-.2.7v2.6h-.9v-2.7c0-.4,0-.8-.3-.9-.2-.2-.4-.3-.7-.3s-.6,0-.8.3c-.2.2-.3.4-.4.7,0,.3-.1.6-.1.9v2.2ZM707,230v-.6c-.2.2-.4.4-.7.5-.3.1-.6.2-.9.2s-.5,0-.8-.1c-.2,0-.5-.2-.6-.5-.2-.2-.2-.5-.2-.9,0-.5.2-.9.5-1.2.4-.3.9-.4,1.5-.4s.3,0,.4,0c.2,0,.3,0,.4,0,.1,0,.2,0,.2,0v-.2c0-.3-.1-.6-.3-.7-.2-.2-.5-.2-.9-.2s-.6,0-.8.1c-.2,0-.4.2-.5.3l-.4-.6c.2-.1.4-.3.7-.4.3-.1.7-.2,1.2-.2s1.1.1,1.4.4c.3.3.5.7.5,1.2v2.9c0,0,0,.1,0,.2h-.8ZM706.9,228.3v-.5s-.1,0-.2,0c-.1,0-.3,0-.4,0-.1,0-.3,0-.4,0-.3,0-.6,0-.8.1-.2,0-.3.2-.4.4,0,.1,0,.3,0,.4,0,.2,0,.4.3.6.2.1.4.2.7.2s.4,0,.6-.1c.2-.1.4-.2.5-.4.1-.2.2-.3.2-.5ZM709,230v-6.7h.9v3.9l2-1.9h1.1l-1.8,1.7,2,2.9h-1.1l-1.6-2.3-.6.6v1.7h-.9ZM713.9,224.5v-1h1v1h-1ZM713.9,230v-4.6h.9v4.6h-.9ZM717,230h-.9v-4.4c0,0,0-.2,0-.3h.9v.7c.1-.1.2-.2.3-.4.1-.1.3-.2.5-.3.2,0,.5-.1.7-.1.6,0,1.1.2,1.4.5.3.4.4.8.4,1.4v2.8h-.9v-2.7c0-.4,0-.8-.3-.9-.2-.2-.4-.3-.8-.3s-.6,0-.8.3c-.2.2-.3.4-.4.7,0,.3-.1.6-.1.9v2.2ZM721.8,231.6l.4-.7c.2.1.3.2.6.3.2,0,.5.1.8.1s.8-.1,1-.4c.2-.2.3-.6.3-1v-.6c0,0-.2.1-.3.2-.1,0-.3.2-.5.3-.2,0-.4.1-.7.1-.5,0-.8,0-1.2-.3-.3-.2-.6-.5-.7-.8-.2-.4-.2-.8-.2-1.2s.1-.9.3-1.3c.2-.4.5-.7.9-.9.4-.2.9-.3,1.4-.3s.7,0,1,0c.3,0,.6.1.8.2v4.4c0,.7-.2,1.2-.6,1.6-.4.4-.9.6-1.6.6s-.9,0-1.1-.2c-.3-.1-.5-.2-.7-.4ZM724.9,228.1v-1.9c0,0-.2,0-.3,0-.1,0-.4,0-.6,0s-.6,0-.9.2c-.3.1-.5.3-.6.6-.1.3-.2.5-.2.9s0,.5.1.8c0,.2.2.4.4.6.2.1.5.2.8.2s.5,0,.7-.2c.2-.1.3-.3.4-.4,0-.2.1-.4.1-.6ZM731.8,230v-.6c-.2.2-.4.4-.7.5-.3.1-.6.2-.9.2s-.5,0-.8-.1c-.2,0-.5-.2-.6-.5-.2-.2-.2-.5-.2-.9,0-.5.2-.9.5-1.2.4-.3.9-.4,1.5-.4s.3,0,.5,0c.2,0,.3,0,.4,0,.1,0,.2,0,.2,0v-.2c0-.3-.1-.6-.3-.7-.2-.2-.5-.2-.9-.2s-.6,0-.8.1c-.2,0-.4.2-.5.3l-.4-.6c.2-.1.4-.3.7-.4.3-.1.7-.2,1.2-.2s1.1.1,1.4.4c.3.3.5.7.5,1.2v2.9c0,0,0,.1,0,.2h-.8ZM731.7,228.3v-.5s-.1,0-.2,0c-.1,0-.3,0-.4,0-.1,0-.3,0-.4,0-.3,0-.6,0-.8.1-.2,0-.3.2-.4.4,0,.1,0,.3,0,.4,0,.2,0,.4.3.6.2.1.4.2.7.2s.4,0,.6-.1c.2-.1.4-.2.5-.4.1-.2.2-.3.2-.5ZM739,230v-.6c0,0-.2.1-.3.3-.1.1-.3.2-.5.3-.2,0-.5.1-.8.1s-.7,0-1.1-.3c-.3-.2-.6-.5-.7-.8s-.3-.8-.3-1.3,0-.8.2-1.1c.2-.3.3-.6.6-.8.2-.2.5-.3.8-.4.3-.1.5-.1.8-.1s.5,0,.6,0c.2,0,.4.1.6.2v-2.2h.9v6.4c0,0,0,.2,0,.3h-.9ZM739,228v-1.7c-.1-.1-.3-.2-.5-.2-.2,0-.4-.1-.7-.1-.4,0-.8.2-1.1.5-.3.3-.4.7-.4,1.3s0,.6.1.8c0,.2.2.4.4.6.2.1.5.2.8.2s.6,0,.8-.2c.2-.1.3-.3.4-.5,0-.2.1-.4.1-.6ZM744.9,228.8l.5.5c0,0-.2.2-.4.3-.2.1-.4.2-.7.4-.3,0-.6.1-1,.1s-.9-.1-1.3-.3c-.4-.2-.7-.5-.9-.9-.2-.4-.3-.8-.3-1.3s0-.9.3-1.2c.2-.4.5-.7.8-.9.4-.2.8-.3,1.2-.3s1,.1,1.3.4c.3.3.6.6.7,1,.2.4.2.9.2,1.3h-3.7c0,.3,0,.5.2.7.1.2.3.4.5.5.2.1.5.2.8.2.4,0,.7,0,1-.2.3-.1.4-.3.5-.4ZM741.8,227.3h2.7c0-.4-.2-.7-.4-.9-.2-.3-.5-.4-1-.4s-.5,0-.7.2c-.2.1-.4.3-.5.5-.1.2-.2.4-.2.6ZM750,228.8l.5.6c-.2.2-.5.4-.8.6-.3.1-.7.2-1,.2s-.9-.1-1.3-.3c-.4-.2-.6-.5-.8-.9-.2-.4-.3-.8-.3-1.3s.1-.9.3-1.2c.2-.4.5-.7.9-.9.4-.2.8-.3,1.3-.3s.7,0,1,.2c.3.1.6.3.8.6l-.6.6c-.1-.2-.3-.3-.5-.4s-.4-.1-.7-.1-.6,0-.8.2c-.2.2-.4.4-.5.6-.1.3-.2.5-.2.8s0,.6.2.8c.1.3.3.5.5.6s.5.2.8.2.5,0,.7-.2c.2-.1.4-.2.5-.4ZM751.4,224.5v-1h1v1h-1ZM751.5,230v-4.6h.9v4.6h-.9ZM753.4,229.4l.5-.6c.2.2.4.3.6.4.2.1.5.2.8.2s.5,0,.8-.1c.2-.1.3-.3.3-.5s0-.3-.1-.4c0,0-.2-.2-.4-.2-.2,0-.5-.1-.8-.2-.2,0-.5-.1-.7-.2-.2-.1-.4-.2-.6-.4-.1-.2-.2-.4-.2-.7s0-.6.3-.8c.2-.2.4-.4.7-.5.3-.1.6-.2.9-.2s.7,0,1,.2c.3.1.5.2.7.4l-.5.6c-.1-.1-.3-.2-.5-.3-.2,0-.5-.1-.7-.1s-.5,0-.7.1c-.2,0-.3.2-.3.5s.1.4.3.4c.2,0,.5.2.9.3.3,0,.6.2.8.3.2.1.4.3.6.4.1.2.2.4.2.7s0,.6-.3.8c-.2.2-.4.4-.7.5-.3.1-.6.2-1,.2-.9,0-1.5-.2-2-.7ZM758.3,224.5v-1h1v1h-1ZM758.4,230v-4.6h.9v4.6h-.9ZM762.8,230.1c-.5,0-.9-.1-1.3-.3-.4-.2-.7-.5-.9-.9-.2-.4-.3-.8-.3-1.2s.1-.9.3-1.2c.2-.4.5-.7.9-.9.4-.2.8-.3,1.3-.3s.9.1,1.3.3c.4.2.7.5.9.9.2.4.3.8.3,1.2s-.1.9-.3,1.2c-.2.4-.5.7-.9.9-.4.2-.8.3-1.3.3ZM762.8,229.4c.3,0,.6,0,.8-.2.2-.2.4-.4.5-.6.1-.3.2-.5.2-.8s0-.6-.2-.8c-.1-.3-.3-.5-.5-.6-.2-.2-.5-.2-.8-.2s-.6,0-.8.2c-.2.2-.4.4-.5.6-.1.3-.2.5-.2.8s0,.6.2.8c.1.3.3.5.5.6.2.2.5.2.8.2ZM767.2,230h-.9v-4.4c0,0,0-.2,0-.3h.9v.7c.1-.1.2-.2.4-.4.1-.1.3-.2.5-.3.2,0,.5-.1.7-.1.6,0,1.1.2,1.3.5.3.4.4.8.4,1.4v2.8h-.9v-2.7c0-.4,0-.8-.3-.9-.2-.2-.4-.3-.8-.3s-.6,0-.8.3c-.2.2-.3.4-.4.7,0,.3-.1.6-.1.9v2.2ZM771.8,230v-1.1h1.1v1.1h-1.1Z" fill="#99a9bb" stroke-width="0"/>
</svg>