<svg width="160" height="179" viewBox="0 0 160 179" fill="none" xmlns="http://www.w3.org/2000/svg">
<path d="M160 179L0 155V179H160Z" fill="#F9DD3E"/>
<path d="M91.0468 179H160L0 165.8L0 179H91.0468Z" fill="url(#paint0_linear_5325_11163)"/>
<g clip-path="url(#clip0_5325_11163)">
<path d="M39.0504 105.13L39.069 105.099L20.4465 137.559C20.1906 138.013 20.0586 138.518 20.0586 139.03C20.0586 140.67 21.3935 142.005 23.0337 142.005H60.419C62.0593 142.005 63.3942 140.67 63.3942 139.03C63.3942 138.475 63.2415 137.935 62.9506 137.466L62.9754 137.507L44.2559 105.082L44.2703 105.107C43.7463 104.16 42.7477 103.572 41.6645 103.572C40.5813 103.572 39.5703 104.168 39.0483 105.13" fill="white"/>
<path d="M58.1708 132.96C58.5421 132.96 58.8454 133.263 58.8454 133.635C58.8454 134.006 58.5421 134.31 58.1708 134.31C57.7994 134.31 57.4961 134.006 57.4961 133.635C57.4961 133.263 57.7994 132.96 58.1708 132.96ZM58.1708 134.161C58.439 134.161 58.6515 133.946 58.6515 133.635C58.6515 133.323 58.439 133.109 58.1708 133.109C57.9025 133.109 57.69 133.323 57.69 133.635C57.69 133.946 57.9005 134.161 58.1708 134.161ZM57.9005 133.257H58.1831C58.373 133.257 58.4823 133.313 58.4823 133.482C58.4823 133.618 58.3998 133.672 58.2842 133.682L58.4823 134.008H58.3172L58.1378 133.691H58.0614V134.008H57.9005V133.257ZM58.1935 133.565C58.2698 133.565 58.3234 133.552 58.3234 133.466C58.3234 133.389 58.2409 133.379 58.177 133.379H58.0635V133.565H58.1935Z" fill="#007A53"/>
<path d="M57.5765 131.417L42.6863 105.674C42.4676 105.28 42.0488 105.014 41.568 105.014C41.0873 105.014 40.6623 105.284 40.4436 105.683L29.9646 123.965C33.2801 124.15 34.8812 122.663 36.4306 121.221C37.8089 119.941 39.2304 118.617 41.6052 118.617C44.669 118.617 46.235 121.468 46.301 121.598C46.5135 122.025 46.3402 122.549 45.9131 122.764C45.484 122.978 44.9806 122.809 44.7433 122.382C44.6525 122.221 43.4971 120.358 41.6031 120.358C39.9154 120.358 38.9003 121.301 37.617 122.496C35.9293 124.066 33.4328 125.623 29.2754 125.161L25.6669 131.458C25.5617 131.644 25.5039 131.858 25.5039 132.085C25.5039 132.791 26.0754 133.362 26.781 133.362H41.7785C41.6052 133.119 39.7999 130.571 39.7999 130.571C39.0406 129.397 39.6658 128.423 39.87 128.114L42.0508 124.619C42.1746 124.421 42.3686 124.282 42.5934 124.231C42.8204 124.179 43.0535 124.216 43.2516 124.34C43.6581 124.596 43.7839 125.134 43.5281 125.541L41.3266 129.069C41.1678 129.31 41.1244 129.399 41.2812 129.649C41.696 130.313 43.7096 133.301 43.7509 133.362H56.4912C57.1968 133.362 57.7683 132.791 57.7683 132.085C57.7683 131.84 57.6982 131.609 57.5785 131.415M51.5684 124.388C51.3332 124.631 51.0423 124.687 50.7658 124.536C50.5285 124.406 50.0354 124.189 49.4 124.189C48.7645 124.189 47.8526 124.39 47.2068 125.157C47.2068 125.157 44.2007 128.939 44.1986 128.939C44.1512 129.007 43.9634 129.141 43.7468 129.151C43.5817 129.162 43.4332 129.096 43.3135 128.964C43.2042 128.84 43.1608 128.7 43.1608 128.57C43.1608 128.44 43.2 128.324 43.2537 128.231C44.5824 125.978 45.2385 124.866 45.2405 124.862C46.3217 123.098 47.6813 122.64 48.8821 122.597C48.7748 122.209 48.3127 120.554 48.3127 120.55C48.2673 120.368 48.1992 120.053 48.4963 119.867C48.8553 119.638 49.1544 119.848 49.2679 120.034L51.6385 123.634C51.7458 123.8 51.7706 124.171 51.5684 124.383" fill="#007A53"/>
<path d="M49.2672 120.038C49.1517 119.851 48.8546 119.642 48.4956 119.871C48.2006 120.059 48.2666 120.373 48.312 120.554C48.312 120.556 48.7741 122.211 48.8814 122.601C47.6786 122.644 46.3189 123.102 45.2399 124.866C45.2399 124.87 44.5817 125.982 43.253 128.235C43.1994 128.326 43.1602 128.446 43.1602 128.574C43.1602 128.702 43.2014 128.844 43.3128 128.968C43.4304 129.1 43.579 129.164 43.7461 129.156C43.9648 129.145 44.1505 129.009 44.1979 128.943L47.2061 125.161C47.8519 124.394 48.7308 124.194 49.3993 124.194C50.0678 124.194 50.5279 124.41 50.7651 124.54C51.0416 124.691 51.3325 124.635 51.5677 124.392C51.772 124.179 51.7452 123.806 51.6379 123.643L49.2672 120.042V120.038Z" fill="#FFA400"/>
<path d="M37.6188 122.5C38.9021 121.305 39.9151 120.362 41.6049 120.362C43.4989 120.362 44.6543 122.225 44.7451 122.386C44.9824 122.813 45.4858 122.983 45.9149 122.768C46.342 122.551 46.5153 122.027 46.3028 121.602C46.2368 121.472 44.6688 118.621 41.607 118.621C39.2343 118.621 37.8107 119.945 36.4324 121.225C34.883 122.667 33.2819 124.154 29.9663 123.969L29.2793 125.167C33.4367 125.63 35.9331 124.072 37.6208 122.502" fill="#FFA400"/>
<path d="M41.3263 129.073L43.5278 125.545C43.7836 125.139 43.6578 124.6 43.2513 124.344C43.0533 124.22 42.8201 124.181 42.5932 124.235C42.3683 124.286 42.1743 124.425 42.0505 124.623L39.8697 128.118C39.6655 128.427 39.0403 129.401 39.7996 130.575C39.7996 130.575 41.6049 133.125 41.7782 133.367H43.7486C43.7073 133.307 41.6936 130.317 41.2789 129.653C41.1242 129.403 41.1654 129.314 41.3243 129.073" fill="#FFA400"/>
<path d="M24.7199 134.813H25.5555L26.5417 137.371H25.7928L25.603 136.825H24.6415L24.4393 137.371H23.7461L24.7179 134.813H24.7199ZM25.1367 135.341H25.1284L24.7983 136.342H25.44L25.1367 135.341Z" fill="#007A53"/>
<path d="M28.944 136.4C28.944 137.099 28.4901 137.415 27.8216 137.415C27.1531 137.415 26.6992 137.099 26.6992 136.4V134.811H27.3821V136.284C27.3821 136.62 27.4729 136.907 27.8216 136.907C28.1703 136.907 28.2611 136.62 28.2611 136.284V134.811H28.944V136.4Z" fill="#007A53"/>
<path d="M29.317 136.74C29.4924 136.835 29.7379 136.909 30.0206 136.909C30.2372 136.909 30.4415 136.866 30.4415 136.659C30.4415 136.183 29.2324 136.484 29.2324 135.552C29.2324 134.935 29.8328 134.768 30.3466 134.768C30.5921 134.768 30.8335 134.805 31.0068 134.862L30.9635 135.391C30.7881 135.31 30.59 135.273 30.3961 135.273C30.2228 135.273 29.938 135.287 29.938 135.512C29.938 135.927 31.1471 135.649 31.1471 136.573C31.1471 137.237 30.59 137.417 30.0206 137.417C29.7812 137.417 29.4862 137.38 29.2572 137.307L29.315 136.742L29.317 136.74Z" fill="#007A53"/>
<path d="M31.9165 135.318H31.2852V134.813H33.2287V135.318H32.5974V137.371H31.9144V135.318H31.9165Z" fill="#007A53"/>
<path d="M33.4961 134.813H34.7134C35.1673 134.813 35.5387 135.019 35.5387 135.459C35.5387 135.799 35.3777 136.026 35.0476 136.104V136.113C35.2684 136.171 35.2828 136.367 35.4107 136.678L35.6604 137.375H34.9486L34.8021 136.913C34.6618 136.474 34.5752 136.362 34.3214 136.362H34.179V137.373H33.4961V134.815V134.813ZM34.177 135.875H34.3565C34.5772 135.875 34.8557 135.867 34.8557 135.578C34.8557 135.339 34.6164 135.296 34.3565 135.296H34.177V135.875Z" fill="#007A53"/>
<path d="M36.7238 134.813H37.5594L38.5456 137.371H37.7967L37.6069 136.825H36.6454L36.4432 137.371H35.75L36.7218 134.813H36.7238ZM37.1406 135.341H37.1323L36.8022 136.342H37.4439L37.1406 135.341Z" fill="#007A53"/>
<path d="M38.7383 134.813H39.4212V136.866H40.4776V137.371H38.7403V134.813H38.7383Z" fill="#007A53"/>
<path d="M40.7383 134.813H41.4212V137.371H40.7383V134.813Z" fill="#007A53"/>
<path d="M42.5461 134.813H43.3817L44.3679 137.371H43.619L43.4292 136.825H42.4677L42.2655 137.371H41.5723L42.544 134.813H42.5461ZM42.9629 135.341H42.9546L42.6245 136.342H43.2662L42.9629 135.341Z" fill="#007A53"/>
<path d="M44.5 134.813H45.3686L46.2331 136.55H46.2413L46.231 134.813H46.8541V137.371H46.0082L45.1128 135.622H45.1045L45.1272 137.371H44.5V134.813Z" fill="#007A53"/>
<path d="M48.5196 134.813H49.5946L50.1372 136.515H50.1454L50.7128 134.813H51.7465V137.371H51.078L51.0883 135.405H51.0801L50.4281 137.371H49.8009L49.1778 135.405H49.1696L49.184 137.371H48.5176V134.813H48.5196Z" fill="#007A53"/>
<path d="M52.8938 134.813H53.7294L54.7156 137.371H53.9666L53.7768 136.825H52.8154L52.6132 137.371H51.9199L52.8917 134.813H52.8938ZM53.3105 135.341H53.3023L52.9722 136.342H53.6138L53.3105 135.341Z" fill="#007A53"/>
<path d="M54.9082 134.813H55.8387C56.73 134.813 57.3531 135.091 57.3531 136.082C57.3531 137.072 56.7114 137.373 55.8387 137.373H54.9082V134.815V134.813ZM55.5911 136.866H55.8552C56.3648 136.866 56.6516 136.602 56.6516 136.092C56.6516 135.583 56.3545 135.318 55.8552 135.318H55.5911V136.866Z" fill="#007A53"/>
<path d="M57.67 134.813H59.4733V135.298H58.3509V135.826H59.4114V136.311H58.3509V136.891H59.5125V137.375H57.668V134.817L57.67 134.813Z" fill="#007A53"/>
<path d="M31.0363 137.957H31.8719L32.8581 140.516H32.1092L31.9194 139.969H30.9579L30.7557 140.516H30.0625L31.0343 137.957H31.0363ZM31.4531 138.485H31.4448L31.1147 139.486H31.7564L31.4531 138.485Z" fill="#007A53"/>
<path d="M33.0626 137.957H33.9312L34.7957 139.694H34.804L34.7936 137.957H35.4167V140.516H34.5688L33.6733 138.766H33.6651L33.6878 140.516H33.0605V137.957H33.0626Z" fill="#007A53"/>
<path d="M35.832 137.957H36.7625C37.6538 137.957 38.2769 138.236 38.2769 139.226C38.2769 140.216 37.6353 140.518 36.7625 140.518H35.832V137.959V137.957ZM36.5129 140.01H36.777C37.2866 140.01 37.5734 139.746 37.5734 139.236C37.5734 138.727 37.2763 138.463 36.777 138.463H36.5129V140.01Z" fill="#007A53"/>
<path d="M40.8478 137.914C41.6916 137.914 42.1311 138.415 42.1311 139.239C42.1311 140.062 41.6834 140.561 40.8478 140.561C40.0122 140.561 39.5645 140.051 39.5645 139.239C39.5645 138.426 40.0039 137.914 40.8478 137.914ZM40.8478 140.056C41.2625 140.056 41.4275 139.659 41.4275 139.239C41.4275 138.795 41.2625 138.421 40.8478 138.421C40.4331 138.421 40.268 138.795 40.268 139.239C40.268 139.682 40.4331 140.056 40.8478 140.056Z" fill="#007A53"/>
<path d="M42.084 137.957H42.7813L43.1115 139.924H43.1197L43.4643 137.957H44.3288L44.6878 139.924H44.696L45.0302 137.957H45.6946L45.1231 140.516H44.2462L43.8831 138.549H43.8748L43.5385 140.516H42.6555L42.0881 137.957H42.084Z" fill="#007A53"/>
<path d="M45.8966 137.957H46.7652L47.6297 139.694H47.6359L47.6256 137.957H48.2486V140.516H47.4007L46.5073 138.766H46.499L46.5217 140.516H45.8945V137.957H45.8966Z" fill="#007A53"/>
<path d="M48.6465 137.957H50.4518V138.442H49.3294V138.97H50.3878V139.455H49.3294V140.035H50.491V140.52H48.6465V137.961V137.957Z" fill="#007A53"/>
<path d="M50.7578 137.957H51.6883C52.5796 137.957 53.2027 138.236 53.2027 139.226C53.2027 140.216 52.5611 140.518 51.6883 140.518H50.7578V137.959V137.957ZM51.4407 140.01H51.7048C52.2144 140.01 52.5012 139.746 52.5012 139.236C52.5012 138.727 52.2041 138.463 51.7048 138.463H51.4407V140.01Z" fill="#007A53"/>
</g>
<line x1="76.6652" y1="98.7129" x2="76.6652" y2="147.276" stroke="#A7A9B3" stroke-width="0.404692"/>
<path d="M138.938 124.547H140.262V141.983H138.938V124.547ZM134.509 133.26V136.471C134.509 137.025 134.421 137.579 134.244 138.115C134.069 138.651 133.806 139.139 133.464 139.567C133.122 139.993 132.69 140.34 132.182 140.599C131.675 140.858 131.079 140.989 130.411 140.989C129.893 140.989 129.38 140.896 128.888 140.712C128.398 140.53 127.961 140.225 127.586 139.808C127.21 139.39 126.906 138.838 126.68 138.166C126.454 137.493 126.338 136.656 126.338 135.676C126.338 134.781 126.448 133.996 126.667 133.34C126.885 132.685 127.181 132.137 127.549 131.71C127.915 131.286 128.341 130.964 128.815 130.755C129.29 130.547 129.802 130.441 130.333 130.441C131.201 130.441 131.995 130.699 132.697 131.21C133.398 131.719 134.007 132.409 134.51 133.26H134.509ZM134.538 131.732C134.385 131.483 134.2 131.232 133.987 130.985C133.719 130.673 133.396 130.384 133.025 130.127C132.655 129.868 132.233 129.653 131.767 129.489C131.3 129.325 130.775 129.242 130.206 129.242C129.499 129.242 128.825 129.387 128.205 129.672C127.584 129.957 127.028 130.383 126.554 130.935C126.08 131.487 125.701 132.169 125.427 132.96C125.152 133.751 125.013 134.665 125.013 135.677C125.013 136.827 125.148 137.822 125.413 138.638C125.679 139.456 126.054 140.138 126.529 140.666C127.004 141.194 127.574 141.584 128.222 141.826C128.867 142.068 129.578 142.19 130.333 142.19C131.317 142.19 132.179 141.944 132.896 141.459C133.538 141.024 134.08 140.45 134.508 139.749V141.322C134.508 142.163 134.41 142.89 134.218 143.479C134.026 144.062 133.755 144.541 133.416 144.9C133.076 145.257 132.66 145.517 132.179 145.676C131.693 145.835 131.141 145.916 130.538 145.916C129.747 145.916 129.008 145.822 128.344 145.637C127.677 145.451 127.101 145.228 126.631 144.976L126.553 144.934L126.2 146.026L126.254 146.054C126.733 146.312 127.345 146.555 128.073 146.777C128.803 147.001 129.615 147.114 130.488 147.114C132.156 147.114 133.477 146.632 134.419 145.682C135.358 144.731 135.834 143.272 135.834 141.346V129.447H134.825L134.537 131.733L134.538 131.732ZM121.814 135.595V136.907C121.814 137.407 121.713 137.908 121.513 138.391C121.312 138.876 121.021 139.322 120.645 139.716C120.269 140.108 119.799 140.431 119.248 140.674C118.698 140.917 118.053 141.039 117.332 141.039C116.965 141.039 116.61 140.989 116.278 140.889C115.947 140.79 115.655 140.635 115.408 140.428C115.162 140.223 114.966 139.96 114.826 139.647C114.686 139.333 114.615 138.955 114.615 138.523C114.615 137.509 114.944 136.762 115.595 136.3C116.253 135.832 117.354 135.595 118.867 135.595H121.814ZM118.56 129.239C117.687 129.239 116.879 129.348 116.158 129.563C115.439 129.778 114.839 130.026 114.375 130.301L114.325 130.332L114.652 131.346L114.731 131.302C115.218 131.033 115.778 130.81 116.39 130.642C117.005 130.473 117.735 130.388 118.56 130.388C119.61 130.388 120.426 130.632 120.982 131.113C121.533 131.592 121.814 132.446 121.814 133.648V134.446H118.866C117.066 134.446 115.683 134.788 114.752 135.461C113.815 136.139 113.34 137.169 113.34 138.522C113.34 139.111 113.441 139.639 113.64 140.091C113.84 140.543 114.122 140.93 114.478 141.245C114.833 141.557 115.26 141.795 115.745 141.953C116.227 142.109 116.752 142.187 117.304 142.187C118.37 142.187 119.305 141.951 120.081 141.484C120.796 141.054 121.388 140.453 121.84 139.699L122.129 141.982H123.112V133.648C123.112 132.301 122.73 131.218 121.979 130.429C121.226 129.639 120.075 129.239 118.56 129.239Z" fill="white"/>
<path d="M94.2392 108.481C93.3418 109.203 93.1968 110.529 93.9169 111.427L105.211 125.533C105.931 126.432 107.254 126.578 108.151 125.856C109.048 125.134 109.193 123.808 108.473 122.91L97.1793 108.804C96.767 108.29 96.1588 108.023 95.5448 108.023C95.0856 108.023 94.6231 108.173 94.24 108.481" fill="white"/>
<path d="M89.6048 131.98C89.4152 133.117 90.1879 134.202 91.3226 134.392L104.396 136.577C105.531 136.767 106.613 135.991 106.803 134.854C106.992 133.717 106.219 132.632 105.084 132.442L92.0119 130.257C91.8969 130.238 91.7819 130.229 91.6685 130.229C90.6666 130.229 89.7749 130.958 89.6048 131.979" fill="white"/>
<path d="M110.872 98.8883C109.729 99.0219 108.904 100.067 109.036 101.212L111.118 119.176C111.252 120.322 112.295 121.149 113.437 121.016C114.579 120.882 115.405 119.837 115.272 118.692L113.19 100.728C113.066 99.6642 112.157 98.8745 111.112 98.8745C111.032 98.8745 110.952 98.8794 110.871 98.8883" fill="white"/>
<path d="M123.356 104.925L118.411 118.503C118.017 119.586 118.578 120.795 119.658 121.19C120.74 121.584 121.946 121.023 122.34 119.939L127.285 106.361C127.68 105.278 127.119 104.069 126.038 103.674C125.803 103.588 125.564 103.548 125.326 103.548C124.472 103.548 123.666 104.077 123.356 104.925Z" fill="white"/>
<path d="M131.337 114.791L125.625 121.106C124.853 121.959 124.918 123.291 125.77 124.065C126.622 124.839 127.95 124.774 128.723 123.919L134.435 117.605C135.207 116.751 135.142 115.42 134.29 114.646C133.891 114.284 133.388 114.105 132.887 114.105C132.317 114.105 131.747 114.336 131.337 114.791" fill="white"/>
<defs>
<linearGradient id="paint0_linear_5325_11163" x1="-0.956323" y1="179.208" x2="199.851" y2="178.649" gradientUnits="userSpaceOnUse">
<stop offset="0.238363" stop-color="#00CEED"/>
<stop offset="0.473958" stop-color="#0076BF"/>
<stop offset="0.733675" stop-color="#00168D"/>
</linearGradient>
<clipPath id="clip0_5325_11163">
<rect width="43.7542" height="38.7695" fill="white" transform="translate(19.8066 103.367)"/>
</clipPath>
</defs>
</svg>
