<svg width="640" height="200" viewBox="0 0 640 200" fill="none" xmlns="http://www.w3.org/2000/svg">
<path d="M640 200L0 176V200H640Z" fill="#F9DD3E"/>
<path d="M364.187 200H640L0 186.8L0 200H364.187Z" fill="url(#paint0_linear_5510_9506)"/>
<path d="M506.494 163.732H507.711V179.749H506.494V163.732ZM502.426 171.736V174.686C502.426 175.195 502.345 175.704 502.183 176.197C502.021 176.688 501.78 177.137 501.465 177.53C501.151 177.921 500.755 178.24 500.288 178.479C499.823 178.716 499.275 178.836 498.661 178.836C498.185 178.836 497.714 178.751 497.262 178.582C496.812 178.415 496.41 178.135 496.066 177.752C495.721 177.368 495.441 176.86 495.233 176.243C495.026 175.625 494.919 174.856 494.919 173.956C494.919 173.134 495.021 172.412 495.221 171.81C495.422 171.209 495.694 170.705 496.032 170.313C496.368 169.923 496.759 169.627 497.195 169.435C497.631 169.244 498.102 169.147 498.59 169.147C499.387 169.147 500.116 169.384 500.761 169.853C501.405 170.321 501.965 170.955 502.427 171.736H502.426ZM502.452 170.333C502.311 170.104 502.142 169.874 501.946 169.647C501.7 169.36 501.403 169.095 501.063 168.858C500.722 168.62 500.334 168.423 499.907 168.273C499.477 168.122 498.996 168.046 498.473 168.046C497.823 168.046 497.204 168.179 496.634 168.441C496.064 168.703 495.553 169.094 495.118 169.601C494.683 170.108 494.335 170.734 494.082 171.461C493.83 172.188 493.702 173.027 493.702 173.957C493.702 175.013 493.826 175.927 494.07 176.677C494.314 177.429 494.659 178.055 495.095 178.54C495.531 179.025 496.055 179.383 496.65 179.606C497.243 179.828 497.895 179.94 498.59 179.94C499.493 179.94 500.285 179.714 500.944 179.269C501.534 178.869 502.032 178.342 502.425 177.697V179.142C502.425 179.915 502.335 180.583 502.158 181.124C501.982 181.66 501.733 182.1 501.422 182.429C501.11 182.758 500.727 182.996 500.285 183.142C499.839 183.289 499.332 183.363 498.778 183.363C498.051 183.363 497.372 183.277 496.762 183.107C496.149 182.935 495.62 182.731 495.189 182.499L495.117 182.461L494.793 183.464L494.843 183.49C495.282 183.726 495.844 183.95 496.513 184.154C497.184 184.36 497.93 184.464 498.732 184.464C500.264 184.464 501.478 184.021 502.343 183.147C503.206 182.274 503.643 180.934 503.643 179.165V168.234H502.716L502.451 170.334L502.452 170.333ZM490.764 173.882V175.086C490.764 175.546 490.671 176.006 490.487 176.45C490.303 176.896 490.035 177.305 489.689 177.667C489.344 178.028 488.913 178.324 488.407 178.547C487.901 178.77 487.308 178.883 486.646 178.883C486.309 178.883 485.983 178.836 485.678 178.745C485.374 178.654 485.105 178.511 484.878 178.322C484.652 178.133 484.472 177.892 484.344 177.604C484.216 177.316 484.15 176.968 484.15 176.571C484.15 175.64 484.453 174.953 485.05 174.529C485.655 174.099 486.666 173.882 488.056 173.882H490.764ZM487.774 168.043C486.972 168.043 486.23 168.142 485.567 168.34C484.907 168.537 484.356 168.766 483.93 169.018L483.884 169.046L484.184 169.978L484.256 169.938C484.704 169.691 485.218 169.486 485.781 169.331C486.346 169.177 487.017 169.098 487.774 169.098C488.739 169.098 489.489 169.322 489.999 169.764C490.506 170.204 490.763 170.988 490.763 172.092V172.826H488.056C486.402 172.826 485.131 173.14 484.277 173.758C483.415 174.381 482.979 175.328 482.979 176.57C482.979 177.112 483.072 177.597 483.255 178.011C483.438 178.427 483.697 178.783 484.024 179.072C484.351 179.359 484.742 179.578 485.189 179.722C485.631 179.865 486.114 179.938 486.62 179.938C487.599 179.938 488.459 179.72 489.172 179.291C489.829 178.896 490.372 178.344 490.788 177.651L491.053 179.749H491.956V172.092C491.956 170.855 491.605 169.86 490.915 169.136C490.224 168.41 489.166 168.043 487.774 168.043Z" fill="white"/>
<path d="M465.432 148.974C464.608 149.636 464.475 150.854 465.136 151.68L475.512 164.638C476.172 165.464 477.388 165.598 478.212 164.935C479.036 164.272 479.169 163.054 478.508 162.229L468.133 149.27C467.754 148.798 467.196 148.552 466.632 148.552C466.21 148.552 465.785 148.69 465.433 148.974" fill="white"/>
<path d="M461.175 170.56C461.001 171.605 461.71 172.602 462.753 172.776L474.762 174.784C475.805 174.958 476.8 174.246 476.974 173.201C477.148 172.156 476.437 171.159 475.395 170.985L463.386 168.978C463.28 168.96 463.175 168.952 463.071 168.952C462.15 168.952 461.331 169.621 461.175 170.56" fill="white"/>
<path d="M480.712 140.161C479.662 140.284 478.904 141.244 479.025 142.296L480.938 158.799C481.061 159.851 482.019 160.61 483.068 160.488C484.117 160.366 484.876 159.406 484.754 158.354L482.841 141.852C482.727 140.874 481.892 140.148 480.932 140.148C480.859 140.148 480.785 140.153 480.711 140.161" fill="white"/>
<path d="M492.18 145.706L487.637 158.18C487.276 159.175 487.791 160.286 488.783 160.648C489.776 161.011 490.885 160.495 491.247 159.5L495.79 147.026C496.152 146.031 495.637 144.92 494.644 144.558C494.428 144.479 494.208 144.442 493.99 144.442C493.205 144.442 492.465 144.927 492.18 145.706Z" fill="white"/>
<path d="M499.512 154.77L494.265 160.571C493.555 161.355 493.615 162.578 494.398 163.29C495.18 164 496.401 163.941 497.111 163.156L502.358 157.355C503.067 156.571 503.007 155.348 502.224 154.636C501.858 154.304 501.396 154.14 500.936 154.14C500.412 154.14 499.889 154.352 499.512 154.77" fill="white"/>
<line x1="525.916" y1="141.069" x2="525.916" y2="183.542" stroke="#A7A9B3" stroke-width="0.424727"/>
<g clip-path="url(#clip0_5510_9506)">
<path d="M615.91 161.81L619.999 172.637C618.794 172.465 617.589 172.249 616.362 172.055L614.059 166.072L611.691 171.561C610.529 171.367 609.388 171.302 608.226 171.152L612.38 161.681L608.613 151.975H612.101L614.21 157.398L616.47 151.975H619.999L615.91 161.81ZM605.859 151.975H602.695V170.743C603.728 170.807 604.804 170.85 605.859 170.979V151.975ZM599.961 170.527C597.077 170.334 594.193 170.162 591.245 170.097V151.975H594.472V167.041C596.324 167.084 598.175 167.234 599.961 167.32V170.527ZM587.801 159.314V162.542H583.389V169.882H580.203V151.975H589.243V155.203H583.389V159.314H587.801ZM574.779 155.203V170.054C573.703 170.054 572.605 170.054 571.551 170.097V155.203H568.214V151.975H578.137V155.203H574.779ZM564.728 162.714C563.307 162.714 561.628 162.714 560.423 162.779V167.579C562.317 167.449 564.211 167.299 566.127 167.234V170.334L557.195 171.044V151.975H566.127V155.203H560.423V159.55C561.672 159.55 563.587 159.486 564.728 159.486V162.714ZM546.842 160.907V172.184C545.68 172.314 544.646 172.465 543.549 172.637V151.975H546.627L550.824 163.705V151.975H554.052V171.302C552.911 171.496 551.749 171.561 550.522 171.733L546.842 160.907Z" fill="#E50914"/>
</g>
<defs>
<linearGradient id="paint0_linear_5510_9506" x1="-3.82529" y1="200.208" x2="799.31" y2="191.27" gradientUnits="userSpaceOnUse">
<stop offset="0.238363" stop-color="#00CEED"/>
<stop offset="0.473958" stop-color="#0076BF"/>
<stop offset="0.733675" stop-color="#00168D"/>
</linearGradient>
<clipPath id="clip0_5510_9506">
<rect width="76.4509" height="20.6624" fill="white" transform="translate(543.549 151.975)"/>
</clipPath>
</defs>
</svg>
