<svg width="225" height="24" viewBox="0 0 225 24" fill="none" xmlns="http://www.w3.org/2000/svg">
<path d="M0.271274 23L8.40527 0.855598H15.1449L22.9801 23H16.6389L15.2113 18.4184H7.80767L6.34687 23H0.271274ZM9.00287 14.1356H14.0161L11.5593 6.0016L9.00287 14.1356ZM29.2896 20.2776L32.842 15.9948C33.4618 16.6145 34.2696 17.1789 35.2656 17.688C36.2838 18.1971 37.3794 18.4516 38.5524 18.4516C39.15 18.4516 39.7255 18.3299 40.2788 18.0864C40.8322 17.8429 41.1088 17.3781 41.1088 16.692C41.1088 16.1165 40.81 15.6407 40.2124 15.2644C39.6148 14.866 38.7627 14.4897 37.656 14.1356L36.4276 13.7372C35.5202 13.4273 34.6127 13.0179 33.7052 12.5088C32.8199 11.9776 32.0784 11.3025 31.4808 10.4836C30.9054 9.66467 30.6176 8.6576 30.6176 7.4624C30.6176 6.09013 30.9386 4.86173 31.5804 3.7772C32.2444 2.69267 33.2183 1.84053 34.502 1.2208C35.7858 0.578931 37.3462 0.257997 39.1832 0.257997C40.644 0.257997 41.9056 0.423998 42.968 0.755999C44.0526 1.088 44.949 1.47533 45.6572 1.918C46.3655 2.36067 46.8856 2.75907 47.2176 3.1132L44.2296 6.898C43.455 6.32253 42.6471 5.85773 41.806 5.5036C40.965 5.12733 40.1018 4.9392 39.2164 4.9392C38.641 4.9392 38.0876 5.072 37.5564 5.3376C37.0474 5.58107 36.7928 6.01267 36.7928 6.6324C36.7928 7.31853 37.1027 7.81653 37.7224 8.1264C38.3422 8.43627 39.1279 8.74613 40.0796 9.056L41.142 9.388C41.8946 9.60933 42.6471 9.89707 43.3996 10.2512C44.1743 10.5832 44.8826 11.0148 45.5244 11.546C46.1663 12.0772 46.6754 12.7523 47.0516 13.5712C47.45 14.368 47.6492 15.3529 47.6492 16.526C47.6492 17.8761 47.2398 19.0824 46.4208 20.1448C45.624 21.2072 44.5395 22.0372 43.1672 22.6348C41.8171 23.2324 40.312 23.5312 38.652 23.5312C36.4387 23.5312 34.5795 23.2324 33.0744 22.6348C31.5915 22.0372 30.3299 21.2515 29.2896 20.2776ZM50.5656 14.368V0.855598H56.442V13.8368C56.442 15.0541 56.7187 16.0501 57.272 16.8248C57.8475 17.5995 58.7882 17.9868 60.094 17.9868C61.3999 17.9868 62.3295 17.5995 62.8828 16.8248C63.4362 16.028 63.7128 15.032 63.7128 13.8368V0.855598H69.6556V14.368C69.6556 16.2493 69.2462 17.8872 68.4272 19.2816C67.6083 20.6539 66.4795 21.7163 65.0408 22.4688C63.6243 23.1992 61.9864 23.5644 60.1272 23.5644C58.268 23.5644 56.6191 23.1992 55.1804 22.4688C53.7418 21.7384 52.613 20.6871 51.794 19.3148C50.9751 17.9204 50.5656 16.2715 50.5656 14.368ZM73.491 23V0.855598H82.5214C84.8897 0.855598 86.7932 1.4864 88.2318 2.748C89.6705 3.98747 90.3898 5.8024 90.3898 8.1928C90.3898 9.69787 90.0578 11.0148 89.3938 12.1436C88.7298 13.2503 87.8224 14.1135 86.6714 14.7332C85.5205 15.3308 84.1925 15.6296 82.6874 15.6296H79.2346V23H73.491ZM79.2346 11.0148H82.0234C82.8202 11.0148 83.451 10.7603 83.9158 10.2512C84.3806 9.74213 84.613 9.0892 84.613 8.2924C84.613 7.45133 84.3917 6.77627 83.949 6.2672C83.5064 5.75813 82.8534 5.5036 81.9902 5.5036H79.2346V11.0148ZM93.3008 23V0.855598H109.237V5.9352H99.1772V9.3548H107.444V14.1356H99.1772V17.9204H109.934V23H93.3008ZM112.981 23V0.855598H122.144C124.512 0.855598 126.416 1.47533 127.854 2.7148C129.293 3.93213 130.012 5.736 130.012 8.1264C130.012 9.56507 129.692 10.8267 129.05 11.9112C128.408 12.9957 127.556 13.8589 126.493 14.5008L131.241 23H124.933L121.181 15.4636H118.724V23H112.981ZM118.724 10.8488H121.58C122.354 10.8488 122.985 10.6164 123.472 10.1516C123.959 9.66467 124.202 9.0228 124.202 8.226C124.202 7.38493 123.97 6.72093 123.505 6.234C123.04 5.74707 122.388 5.5036 121.546 5.5036H118.724V10.8488ZM139.826 23V0.855598H155.264V6.0016H145.703V10.2844H153.106V15.1316H145.703V23H139.826ZM157.785 14.368V0.855598H163.661V13.8368C163.661 15.0541 163.938 16.0501 164.491 16.8248C165.067 17.5995 166.007 17.9868 167.313 17.9868C168.619 17.9868 169.549 17.5995 170.102 16.8248C170.655 16.028 170.932 15.032 170.932 13.8368V0.855598H176.875V14.368C176.875 16.2493 176.465 17.8872 175.646 19.2816C174.827 20.6539 173.699 21.7163 172.26 22.4688C170.843 23.1992 169.206 23.5644 167.346 23.5644C165.487 23.5644 163.838 23.1992 162.4 22.4688C160.961 21.7384 159.832 20.6871 159.013 19.3148C158.194 17.9204 157.785 16.2715 157.785 14.368ZM180.71 23V0.855598H186.055L194.555 13.206V0.855598H200.365V23H195.351L186.52 10.2844V23H180.71ZM204.346 23V0.855598H212.845C215.125 0.855598 217.15 1.254 218.921 2.0508C220.713 2.82547 222.13 4.0428 223.17 5.7028C224.21 7.34067 224.731 9.4544 224.731 12.044C224.731 14.4787 224.21 16.5149 223.17 18.1528C222.13 19.7685 220.702 20.9859 218.887 21.8048C217.095 22.6016 215.069 23 212.812 23H204.346ZM210.222 17.8208H212.613C214.516 17.8208 215.999 17.2785 217.061 16.194C218.124 15.0873 218.655 13.6597 218.655 11.9112C218.655 10.1405 218.168 8.71293 217.194 7.6284C216.22 6.54387 214.693 6.0016 212.613 6.0016H210.222V17.8208Z" fill="white"/>
</svg>
