<svg id="Layer_1" data-name="Layer 1" xmlns="http://www.w3.org/2000/svg" width="300" height="600" version="1.1" viewBox="0 0 300 600">
  <path id="termsCopy1" d="M13.6,536v-6.7h1v2.8h3.7v-2.8h1v6.7h-1v-3h-3.7v3h-1ZM22.7,536.1c-.5,0-.9-.1-1.3-.3-.4-.2-.7-.5-.9-.9-.2-.4-.3-.8-.3-1.2s.1-.9.3-1.2c.2-.4.5-.7.9-.9.4-.2.8-.3,1.3-.3s.9.1,1.3.3c.4.2.7.5.9.9.2.4.3.8.3,1.2s-.1.9-.3,1.2c-.2.4-.5.7-.9.9-.4.2-.8.3-1.3.3ZM22.7,535.4c.3,0,.6,0,.8-.2.2-.2.4-.4.5-.6.1-.3.2-.5.2-.8s0-.5-.2-.8c-.1-.3-.3-.5-.5-.6-.2-.2-.5-.2-.8-.2s-.6,0-.8.2c-.2.2-.4.4-.5.6-.1.3-.2.5-.2.8s0,.5.2.8c.1.3.3.5.5.6.2.2.5.2.8.2ZM25.8,535.4l.5-.6c.2.2.4.3.6.4.2.1.5.2.8.2s.6,0,.8-.1c.2,0,.3-.3.3-.5s0-.3-.1-.4c0,0-.2-.2-.4-.2-.2,0-.5-.2-.8-.2-.2,0-.5-.1-.7-.2-.2-.1-.4-.2-.6-.4-.1-.2-.2-.4-.2-.7s0-.6.3-.8c.2-.2.4-.4.7-.5.3-.1.6-.2.9-.2s.7,0,1,.2c.3.1.5.2.7.4l-.5.6c-.1-.1-.3-.2-.5-.3-.2,0-.5-.1-.7-.1s-.5,0-.7.1c-.2,0-.3.2-.3.5s.1.3.4.5c.2,0,.5.2.9.3.3,0,.6.2.8.3.2.1.4.3.6.4.1.2.2.4.2.7s0,.6-.3.8c-.2.2-.4.4-.7.5-.3.1-.6.2-1,.2-.9,0-1.5-.2-2-.7ZM31.1,534.5v-2.4h-.8v-.8h.8v-1.5h.9v1.5h1.4v.8h-1.4v2.3c0,.4,0,.6.2.8.1.1.3.2.5.2s.3,0,.4,0c.1,0,.2-.1.3-.2l.4.5c-.2.2-.4.3-.6.4-.2,0-.4.1-.7.1-.5,0-.8-.1-1.1-.4-.2-.3-.4-.7-.4-1.2ZM35.3,538h-.9v-6.3c0,0,0-.2,0-.3h.9v.7c0,0,.2-.2.3-.3.1-.1.3-.2.5-.3.2,0,.5-.1.8-.1.5,0,.9.1,1.2.3.3.2.5.5.7.9.2.4.2.8.2,1.2s0,.8-.2,1.1c-.1.3-.3.6-.6.8-.2.2-.5.3-.8.4-.3,0-.6.1-.8.1s-.6,0-.8-.1c-.2,0-.4-.1-.5-.2v2.2ZM35.3,533.8v1.2c.1,0,.3.2.5.2.2,0,.4.1.8.1s.6,0,.8-.2c.2-.1.4-.3.5-.6.1-.3.2-.5.2-.8s0-.6-.1-.8c0-.3-.2-.5-.4-.6-.2-.2-.5-.2-.8-.2s-.6,0-.8.3c-.2.2-.4.4-.5.8,0,.1,0,.2,0,.3,0,.1,0,.2,0,.4ZM39.9,536v-6.7h.9v6.7h-.9ZM41.9,534.1v-2.8h.9v2.7c0,.4,0,.8.3,1,.2.2.4.3.8.3s.6,0,.8-.3c.2-.2.3-.4.4-.7,0-.3.1-.6.1-.9v-2.2h.9v4.4c0,0,0,.2,0,.3h-.9v-.7c-.1.1-.2.2-.3.3-.1.1-.3.2-.5.3-.2,0-.4.1-.7.1-.6,0-1.1-.2-1.3-.5-.3-.4-.4-.8-.4-1.4ZM47,535.4l.5-.6c.2.2.4.3.6.4.2.1.5.2.8.2s.6,0,.8-.1c.2,0,.3-.3.3-.5s0-.3-.1-.4c0,0-.2-.2-.4-.2-.2,0-.5-.2-.8-.2-.2,0-.5-.1-.7-.2-.2-.1-.4-.2-.6-.4-.1-.2-.2-.4-.2-.7s0-.6.3-.8c.2-.2.4-.4.7-.5.3-.1.6-.2.9-.2s.7,0,1,.2c.3.1.5.2.7.4l-.5.6c-.1-.1-.3-.2-.5-.3-.2,0-.5-.1-.7-.1s-.5,0-.7.1c-.2,0-.3.2-.3.5s.1.3.4.5c.2,0,.5.2.9.3.3,0,.6.2.8.3.2.1.4.3.6.4.1.2.2.4.2.7s0,.6-.3.8c-.2.2-.4.4-.7.5-.3.1-.6.2-1,.2-.9,0-1.5-.2-2-.7ZM53.7,536v-6.7h2.3c.5,0,.8,0,1.1.2.3.2.5.4.7.6.1.3.2.5.2.9s0,.5-.2.7c-.1.2-.3.4-.4.5-.2.1-.3.2-.5.2.1,0,.3,0,.4.1.2,0,.3.2.5.3.2.1.3.3.4.5.1.2.2.5.2.8,0,.5-.1.8-.3,1.1-.2.3-.5.5-.9.6-.4.1-.8.2-1.3.2h-2.1ZM54.7,532.1h1.2c.2,0,.4,0,.6,0,.2,0,.3-.2.5-.3.1-.1.2-.3.2-.6s0-.5-.2-.6c-.1-.1-.3-.2-.5-.3-.2,0-.4,0-.6,0h-1.2v2ZM54.7,535.2h1.2c.2,0,.3,0,.5,0,.2,0,.4,0,.5-.1s.3-.2.4-.3c0-.1.2-.3.2-.6s0-.6-.2-.7c-.2-.2-.4-.3-.6-.3s-.5,0-.7,0h-1.2v2.2ZM62.3,536v-.6c-.2.2-.4.4-.7.5-.3.1-.6.2-.9.2s-.5,0-.8-.1c-.2,0-.5-.2-.6-.5-.2-.2-.2-.5-.2-.9,0-.5.2-.9.5-1.2.4-.3.9-.4,1.5-.4s.3,0,.5,0c.2,0,.3,0,.4,0,.1,0,.2,0,.2,0v-.2c0-.3-.1-.6-.3-.7-.2-.2-.5-.2-.8-.2s-.6,0-.8.1c-.2,0-.4.2-.5.3l-.4-.6c.2-.1.4-.3.7-.4.3-.1.7-.2,1.2-.2s1.1.1,1.4.4c.3.3.5.7.5,1.2v2.9c0,0,0,.1,0,.2h-.8ZM62.3,534.3v-.5s-.1,0-.2,0c-.1,0-.3,0-.4,0-.1,0-.3,0-.4,0-.3,0-.6,0-.8.2-.2,0-.3.2-.4.4,0,.1,0,.3,0,.4,0,.2,0,.4.3.6.2.1.4.2.7.2s.4,0,.6-.1c.2-.1.4-.2.5-.4.1-.2.2-.3.2-.5ZM64.3,536v-6.7h.9v6.7h-.9ZM69.2,536v-.6c-.2.2-.4.4-.7.5-.3.1-.6.2-.9.2s-.5,0-.8-.1c-.2,0-.5-.2-.6-.5-.2-.2-.2-.5-.2-.9,0-.5.2-.9.5-1.2.4-.3.9-.4,1.5-.4s.3,0,.4,0c.2,0,.3,0,.4,0,.1,0,.2,0,.2,0v-.2c0-.3-.1-.6-.3-.7-.2-.2-.5-.2-.8-.2s-.6,0-.8.1c-.2,0-.4.2-.5.3l-.4-.6c.2-.1.4-.3.7-.4.3-.1.7-.2,1.2-.2s1.1.1,1.4.4c.3.3.5.7.5,1.2v2.9c0,0,0,.1,0,.2h-.8ZM69.2,534.3v-.5s-.1,0-.2,0c-.1,0-.3,0-.4,0-.1,0-.3,0-.4,0-.3,0-.6,0-.8.2-.2,0-.3.2-.4.4,0,.1,0,.3,0,.4,0,.2,0,.4.3.6.2.1.4.2.7.2s.4,0,.6-.1c.2-.1.4-.2.5-.4.1-.2.2-.3.2-.5ZM72.1,536h-.9v-4.3c0,0,0-.2,0-.3h.9v.7c.1-.1.2-.2.3-.3.1-.1.3-.2.5-.3.2,0,.5-.1.7-.1.6,0,1.1.2,1.3.5.3.4.4.8.4,1.4v2.8h-.9v-2.7c0-.4,0-.8-.3-1-.2-.2-.4-.3-.8-.3s-.6,0-.8.3c-.2.2-.3.4-.4.7,0,.3-.1.6-.1.9v2.2ZM80,534.8l.6.6c-.2.2-.5.4-.8.6-.3.1-.7.2-1,.2s-.9-.1-1.3-.3c-.4-.2-.6-.5-.8-.9-.2-.4-.3-.8-.3-1.3s.1-.9.3-1.2c.2-.4.5-.7.9-.9.4-.2.8-.3,1.3-.3s.7,0,1,.2c.3.1.6.3.8.6l-.6.6c-.1-.2-.3-.3-.5-.4-.2-.1-.4-.2-.7-.2s-.6,0-.8.2c-.2.2-.4.4-.5.6-.1.3-.2.5-.2.8s0,.6.2.8c.1.3.3.5.5.6.2.2.5.2.8.2s.5,0,.7-.1c.2-.1.4-.2.5-.4ZM84.8,534.8l.5.5c0,0-.2.2-.4.3-.2.1-.4.2-.7.3-.3.1-.6.2-1,.2s-.9-.1-1.3-.3c-.4-.2-.7-.5-.9-.9-.2-.4-.3-.8-.3-1.3s0-.9.3-1.2c.2-.4.5-.7.8-.9.4-.2.8-.3,1.2-.3s1,.1,1.3.4c.3.3.6.6.7,1,.2.4.2.9.2,1.3h-3.7c0,.3,0,.5.2.7.1.2.3.4.6.5.2.1.5.2.8.2.4,0,.7,0,1-.2.3-.1.4-.3.5-.4ZM81.8,533.3h2.7c0-.4-.2-.7-.4-.9-.2-.3-.5-.4-1-.4s-.5,0-.7.2c-.2.1-.4.3-.5.5-.1.2-.2.4-.2.6ZM89.7,536v-.6c0,0-.2.1-.3.3-.1.1-.3.2-.5.3-.2,0-.5.1-.8.1s-.7,0-1.1-.3c-.3-.2-.6-.5-.7-.8s-.3-.8-.3-1.3,0-.8.2-1.1c.2-.3.3-.6.6-.8.2-.2.5-.3.8-.4.3-.1.5-.2.8-.2s.5,0,.7,0c.2,0,.4.1.6.2v-2.2h.9v6.4c0,0,0,.2,0,.3h-.9ZM89.7,534v-1.7c-.1,0-.3-.2-.5-.2-.2,0-.4,0-.7,0-.4,0-.8.2-1.1.5-.3.3-.4.7-.4,1.3s0,.6.1.8c0,.2.2.4.4.6.2.1.5.2.8.2s.6,0,.8-.2c.2-.1.3-.3.4-.5,0-.2.1-.4.1-.6ZM95.3,536.9h-.9c-.1-.2-.2-.5-.4-.9-.2-.4-.3-.8-.4-1.3-.1-.5-.2-1.1-.2-1.8s0-1.2.2-1.8c.1-.5.3-1,.4-1.4.2-.4.3-.7.4-.9h.9c-.1.3-.3.6-.4,1-.1.4-.3.9-.3,1.4,0,.5-.1,1.1-.1,1.7s0,1.1.1,1.7c0,.5.2,1,.3,1.4.1.4.3.7.4,1ZM96.3,536l.3-6.7h.9l2,3.5,2-3.5h.9l.3,6.7h-.9l-.2-5.1-1.9,3.2h-.5l-1.8-3.1-.2,5.1h-.9ZM103.5,537.8l.4-.6c0,0,.1.1.2.2s.2,0,.3,0c.2,0,.4,0,.5-.3.1-.2.2-.5.4-.8v-.3c.1,0-2-4.6-2-4.6h1l1.5,3.5,1.3-3.5h1l-1.9,4.5c0,.2-.2.4-.3.7,0,.3-.2.5-.3.7-.1.2-.3.4-.5.6-.2.2-.4.2-.7.2s-.4,0-.6,0c-.2,0-.3-.1-.4-.2ZM108.6,535l.7-.6c.1.1.3.3.4.4.2.1.4.3.6.4.2,0,.5.1.8.1.4,0,.8,0,1-.3.2-.2.4-.5.4-.8s-.1-.6-.4-.8c-.3-.2-.7-.3-1.2-.4-.6-.1-1-.3-1.4-.6-.4-.3-.5-.7-.5-1.3s0-.6.2-.9c.2-.3.4-.5.8-.7.3-.2.7-.3,1.2-.3s.8,0,1.1.2c.3.1.5.2.7.4.2.1.3.3.3.4l-.6.6c0,0-.1-.2-.3-.3-.1-.1-.3-.2-.5-.3-.2,0-.4-.1-.7-.1s-.5,0-.7.1c-.2,0-.3.2-.4.4,0,.1-.1.3-.1.4,0,.3.1.6.4.7.3.2.7.3,1.2.4.3,0,.7.2.9.4.3.2.5.4.7.6.2.3.3.6.3,1.1s-.1.7-.3,1c-.2.3-.5.5-.8.7-.4.2-.8.2-1.2.2s-.8,0-1.1-.2c-.3-.1-.6-.3-.8-.5-.2-.2-.4-.4-.6-.5ZM114.3,534.1v-2.8h.9v2.7c0,.4,0,.8.3,1,.2.2.4.3.8.3s.6,0,.8-.3c.2-.2.3-.4.4-.7,0-.3.1-.6.1-.9v-2.2h.9v4.4c0,0,0,.2,0,.3h-.9v-.7c-.1.1-.2.2-.3.3-.1.1-.3.2-.5.3-.2,0-.4.1-.7.1-.6,0-1.1-.2-1.3-.5-.3-.4-.4-.8-.4-1.4ZM120.6,538h-.9v-6.3c0,0,0-.2,0-.3h.9v.7c0,0,.2-.2.3-.3.1-.1.3-.2.5-.3.2,0,.5-.1.8-.1.5,0,.9.1,1.2.3.3.2.5.5.7.9.2.4.2.8.2,1.2s0,.8-.2,1.1c-.1.3-.3.6-.6.8-.2.2-.5.3-.8.4-.3,0-.6.1-.8.1s-.6,0-.8-.1c-.2,0-.4-.1-.5-.2v2.2ZM120.6,533.8v1.2c.1,0,.3.2.5.2.2,0,.5.1.8.1s.6,0,.8-.2c.2-.1.4-.3.5-.6.1-.3.2-.5.2-.8s0-.6-.1-.8c0-.3-.2-.5-.4-.6s-.5-.2-.8-.2-.6,0-.8.3c-.2.2-.4.4-.5.8,0,.1,0,.2,0,.3,0,.1,0,.2,0,.4ZM128.9,534.8l.5.5c0,0-.2.2-.4.3-.2.1-.4.2-.7.3-.3.1-.6.2-1,.2s-.9-.1-1.3-.3c-.4-.2-.7-.5-.9-.9-.2-.4-.3-.8-.3-1.3s0-.9.3-1.2c.2-.4.5-.7.8-.9.4-.2.8-.3,1.2-.3s1,.1,1.3.4c.3.3.6.6.7,1,.2.4.2.9.2,1.3h-3.7c0,.3,0,.5.2.7.1.2.3.4.5.5.2.1.5.2.8.2.4,0,.7,0,1-.2.3-.1.4-.3.5-.4ZM125.8,533.3h2.7c0-.4-.2-.7-.4-.9-.2-.3-.5-.4-1-.4s-.5,0-.7.2c-.2.1-.4.3-.5.5-.1.2-.2.4-.2.6ZM131.3,536h-.9v-4.4c0,0,0-.2,0-.3h.9v.8c.1-.1.2-.2.3-.3.1-.1.3-.2.5-.3.2,0,.4-.1.7-.1s.2,0,.3,0c0,0,.2,0,.2,0l-.2.8c-.1,0-.3,0-.5,0s-.5,0-.7.2c-.2.1-.4.3-.5.5-.1.2-.2.4-.2.7v2.5ZM133.7,528.9h.9c.1.2.2.5.4.9s.3.8.4,1.4c.1.5.2,1.1.2,1.8s0,1.2-.2,1.8c-.1.5-.3,1-.4,1.3-.2.4-.3.7-.4.9h-.9c.1-.3.3-.6.4-1,.1-.4.3-.9.4-1.4,0-.5.1-1.1.1-1.7s0-1.1-.1-1.6c0-.5-.2-1-.4-1.4-.1-.4-.3-.7-.4-1ZM138.4,530.5v-1h1v1h-1ZM138.5,536v-4.7h.9v4.7h-.9ZM141.5,536h-.9v-4.3c0,0,0-.2,0-.3h.9v.7c.1-.1.2-.2.3-.3.1-.1.3-.2.5-.3.2,0,.5-.1.7-.1.6,0,1.1.2,1.3.5.3.4.4.8.4,1.4v2.8h-.9v-2.7c0-.4,0-.8-.3-1-.2-.2-.4-.3-.8-.3s-.6,0-.8.3c-.2.2-.3.4-.4.7,0,.3-.1.6-.1.9v2.2ZM147.2,536l-2-4.7h1l1.4,3.6,1.4-3.6h1l-2,4.7h-.9ZM154.1,534.8l.5.5c0,0-.2.2-.4.3-.2.1-.4.2-.7.3-.3.1-.6.2-1,.2s-.9-.1-1.3-.3c-.4-.2-.7-.5-.9-.9-.2-.4-.3-.8-.3-1.3s0-.9.3-1.2c.2-.4.5-.7.8-.9.4-.2.8-.3,1.2-.3s1,.1,1.3.4c.3.3.6.6.7,1,.2.4.2.9.2,1.3h-3.7c0,.3,0,.5.2.7.1.2.3.4.6.5.2.1.5.2.8.2.4,0,.7,0,1-.2.3-.1.4-.3.5-.4ZM151.1,533.3h2.7c0-.4-.2-.7-.4-.9-.2-.3-.5-.4-1-.4s-.5,0-.7.2c-.2.1-.4.3-.5.5-.1.2-.2.4-.2.6ZM155.4,535.4l.5-.6c.2.2.4.3.6.4.2.1.5.2.8.2s.6,0,.8-.1c.2,0,.3-.3.3-.5s0-.3-.1-.4c0,0-.2-.2-.4-.2-.2,0-.5-.2-.8-.2-.2,0-.5-.1-.7-.2-.2-.1-.4-.2-.6-.4-.1-.2-.2-.4-.2-.7s0-.6.3-.8c.2-.2.4-.4.7-.5.3-.1.6-.2.9-.2s.7,0,1,.2c.3.1.5.2.7.4l-.5.6c-.1-.1-.3-.2-.5-.3-.2,0-.4-.1-.7-.1s-.5,0-.7.1c-.2,0-.3.2-.3.5s.1.3.3.5c.2,0,.5.2.9.3.3,0,.6.2.8.3.2.1.4.3.6.4.1.2.2.4.2.7s0,.6-.3.8c-.2.2-.4.4-.7.5-.3.1-.6.2-.9.2-.9,0-1.5-.2-2-.7ZM160.7,534.5v-2.4h-.8v-.8h.8v-1.5h.9v1.5h1.4v.8h-1.4v2.3c0,.4,0,.6.2.8.1.1.3.2.5.2s.3,0,.4,0c.1,0,.2-.1.3-.2l.4.5c-.2.2-.4.3-.6.4-.2,0-.4.1-.7.1-.5,0-.8-.1-1.1-.4-.2-.3-.4-.7-.4-1.2ZM164.9,536h-.9v-4.3c0,0,0-.2,0-.3h.9v.7c.1-.1.2-.2.3-.3.1-.1.3-.2.5-.3.2,0,.4-.1.7-.1s.7,0,.9.2c.2.1.4.3.6.6.2-.2.4-.4.7-.6.3-.2.6-.3,1-.3.6,0,1,.2,1.3.5.3.4.4.8.4,1.4v2.8h-.9v-2.7c0-.8-.3-1.3-1-1.3s-.5,0-.7.2c-.2.1-.3.3-.5.5-.1.2-.2.4-.2.7v2.6h-.9v-2.7c0-.4,0-.8-.3-1-.2-.2-.4-.3-.7-.3s-.6,0-.8.3c-.2.2-.3.4-.4.7,0,.3-.1.6-.1.9v2.2ZM176.1,534.8l.5.5c0,0-.2.2-.4.3-.2.1-.4.2-.7.3-.3.1-.6.2-1,.2s-.9-.1-1.3-.3c-.4-.2-.7-.5-.9-.9-.2-.4-.3-.8-.3-1.3s0-.9.3-1.2c.2-.4.5-.7.8-.9.4-.2.8-.3,1.2-.3s1,.1,1.3.4c.3.3.6.6.7,1,.2.4.2.9.2,1.3h-3.7c0,.3,0,.5.2.7.1.2.3.4.6.5.2.1.5.2.8.2.4,0,.7,0,1-.2.3-.1.4-.3.6-.4ZM173.1,533.3h2.7c0-.4-.2-.7-.4-.9-.2-.3-.5-.4-1-.4s-.5,0-.7.2c-.2.1-.4.3-.5.5-.1.2-.2.4-.2.6ZM178.6,536h-.9v-4.3c0,0,0-.2,0-.3h.9v.7c.1-.1.2-.2.3-.3.1-.1.3-.2.5-.3.2,0,.5-.1.7-.1.6,0,1.1.2,1.3.5.3.4.4.8.4,1.4v2.8h-.9v-2.7c0-.4,0-.8-.3-1-.2-.2-.4-.3-.8-.3s-.6,0-.8.3c-.2.2-.3.4-.4.7,0,.3-.1.6-.1.9v2.2ZM183.4,534.5v-2.4h-.8v-.8h.8v-1.5h.9v1.5h1.4v.8h-1.4v2.3c0,.4,0,.6.2.8.1.1.3.2.5.2s.3,0,.4,0c.1,0,.2-.1.3-.2l.4.5c-.2.2-.4.3-.6.4-.2,0-.4.1-.7.1-.5,0-.8-.1-1.1-.4-.2-.3-.4-.7-.4-1.2ZM190.7,536.1c-.5,0-.9-.1-1.3-.3-.4-.2-.7-.5-.9-.9-.2-.4-.3-.8-.3-1.2s.1-.9.3-1.2c.2-.4.5-.7.9-.9.4-.2.8-.3,1.3-.3s.9.1,1.3.3c.4.2.7.5.9.9.2.4.3.8.3,1.2s-.1.9-.3,1.2c-.2.4-.5.7-.9.9-.4.2-.8.3-1.3.3ZM190.7,535.4c.3,0,.6,0,.8-.2.2-.2.4-.4.5-.6.1-.3.2-.5.2-.8s0-.5-.2-.8c-.1-.3-.3-.5-.5-.6-.2-.2-.5-.2-.8-.2s-.6,0-.8.2c-.2.2-.4.4-.5.6-.1.3-.2.5-.2.8s0,.5.2.8c.1.3.3.5.5.6.2.2.5.2.8.2ZM195,538h-.9v-6.3c0,0,0-.2,0-.3h.9v.7c0,0,.2-.2.3-.3.1-.1.3-.2.5-.3.2,0,.5-.1.8-.1.5,0,.9.1,1.2.3.3.2.5.5.7.9.2.4.2.8.2,1.2s0,.8-.2,1.1c-.1.3-.3.6-.6.8-.2.2-.5.3-.8.4-.3,0-.6.1-.8.1s-.6,0-.8-.1c-.2,0-.4-.1-.5-.2v2.2ZM195,533.8v1.2c.1,0,.3.2.5.2s.4.1.8.1.6,0,.8-.2c.2-.1.4-.3.5-.6.1-.3.2-.5.2-.8s0-.6-.1-.8c0-.3-.2-.5-.4-.6s-.5-.2-.8-.2-.6,0-.8.3c-.2.2-.4.4-.5.8,0,.1,0,.2,0,.3,0,.1,0,.2,0,.4ZM199.9,534.5v-2.4h-.8v-.8h.8v-1.5h.9v1.5h1.4v.8h-1.4v2.3c0,.4,0,.6.2.8.1.1.3.2.5.2s.3,0,.4,0c.1,0,.2-.1.3-.2l.4.5c-.2.2-.4.3-.6.4-.2,0-.4.1-.7.1-.5,0-.8-.1-1.1-.4-.2-.3-.4-.7-.4-1.2ZM203.3,530.5v-1h1v1h-1ZM203.3,536v-4.7h.9v4.7h-.9ZM207.6,536.1c-.5,0-.9-.1-1.3-.3-.4-.2-.7-.5-.9-.9-.2-.4-.3-.8-.3-1.2s.1-.9.3-1.2c.2-.4.5-.7.9-.9.4-.2.8-.3,1.3-.3s.9.1,1.3.3c.4.2.7.5.9.9s.3.8.3,1.2-.1.9-.3,1.2c-.2.4-.5.7-.9.9-.4.2-.8.3-1.3.3ZM207.6,535.4c.3,0,.6,0,.8-.2.2-.2.4-.4.5-.6.1-.3.2-.5.2-.8s0-.5-.2-.8c-.1-.3-.3-.5-.5-.6-.2-.2-.5-.2-.8-.2s-.6,0-.8.2c-.2.2-.4.4-.5.6-.1.3-.2.5-.2.8s0,.5.2.8c.1.3.3.5.5.6.2.2.5.2.8.2ZM211.9,536h-.9v-4.3c0,0,0-.2,0-.3h.9v.7c.1-.1.2-.2.3-.3.1-.1.3-.2.5-.3.2,0,.5-.1.7-.1.6,0,1.1.2,1.3.5.3.4.4.8.4,1.4v2.8h-.9v-2.7c0-.4,0-.8-.3-1-.2-.2-.4-.3-.8-.3s-.6,0-.8.3c-.2.2-.3.4-.4.7,0,.3-.1.6-.1.9v2.2ZM221.6,534.8l.6.6c-.2.2-.5.4-.8.6-.3.1-.7.2-1,.2s-.9-.1-1.3-.3c-.4-.2-.6-.5-.8-.9-.2-.4-.3-.8-.3-1.3s.1-.9.3-1.2.5-.7.9-.9c.4-.2.8-.3,1.3-.3s.7,0,1,.2c.3.1.6.3.8.6l-.6.6c-.1-.2-.3-.3-.5-.4-.2-.1-.4-.2-.7-.2s-.6,0-.8.2c-.2.2-.4.4-.5.6-.1.3-.2.5-.2.8s0,.6.2.8c.1.3.3.5.5.6.2.2.5.2.8.2s.5,0,.7-.1c.2-.1.4-.2.5-.4ZM224.9,536.1c-.5,0-.9-.1-1.3-.3-.4-.2-.7-.5-.9-.9-.2-.4-.3-.8-.3-1.2s.1-.9.3-1.2c.2-.4.5-.7.9-.9.4-.2.8-.3,1.3-.3s.9.1,1.3.3c.4.2.7.5.9.9.2.4.3.8.3,1.2s-.1.9-.3,1.2c-.2.4-.5.7-.9.9-.4.2-.8.3-1.3.3ZM224.9,535.4c.3,0,.6,0,.8-.2.2-.2.4-.4.5-.6.1-.3.2-.5.2-.8s0-.5-.2-.8c-.1-.3-.3-.5-.5-.6-.2-.2-.5-.2-.8-.2s-.6,0-.8.2c-.2.2-.4.4-.5.6-.1.3-.2.5-.2.8s0,.5.2.8c.1.3.3.5.5.6.2.2.5.2.8.2ZM229.1,536h-.9v-4.3c0,0,0-.2,0-.3h.9v.7c.1-.1.2-.2.3-.3.1-.1.3-.2.5-.3.2,0,.4-.1.7-.1s.7,0,.9.2c.2.1.4.3.6.6.2-.2.4-.4.7-.6.3-.2.6-.3,1-.3.6,0,1,.2,1.3.5.3.4.4.8.4,1.4v2.8h-.9v-2.7c0-.8-.3-1.3-1-1.3s-.5,0-.7.2c-.2.1-.3.3-.5.5-.1.2-.2.4-.2.7v2.6h-.9v-2.7c0-.4,0-.8-.3-1-.2-.2-.4-.3-.7-.3s-.6,0-.8.3c-.2.2-.3.4-.4.7,0,.3-.1.6-.1.9v2.2ZM237.5,538h-.9v-6.3c0,0,0-.2,0-.3h.9v.7c0,0,.2-.2.3-.3.1-.1.3-.2.5-.3.2,0,.5-.1.8-.1.5,0,.9.1,1.2.3.3.2.5.5.7.9.2.4.2.8.2,1.2s0,.8-.2,1.1c-.1.3-.3.6-.6.8-.2.2-.5.3-.8.4-.3,0-.6.1-.8.1s-.6,0-.8-.1c-.2,0-.4-.1-.5-.2v2.2ZM237.5,533.8v1.2c.1,0,.3.2.5.2s.4.1.8.1.6,0,.8-.2c.2-.1.4-.3.5-.6.1-.3.2-.5.2-.8s0-.6-.1-.8c0-.3-.2-.5-.4-.6s-.5-.2-.8-.2-.6,0-.8.3c-.2.2-.4.4-.5.8,0,.1,0,.2,0,.3,0,.1,0,.2,0,.4ZM245,536v-.6c-.2.2-.4.4-.7.5-.3.1-.6.2-.9.2s-.5,0-.8-.1c-.2,0-.5-.2-.6-.5-.2-.2-.2-.5-.2-.9,0-.5.2-.9.5-1.2.4-.3.9-.4,1.5-.4s.3,0,.5,0c.2,0,.3,0,.4,0,.1,0,.2,0,.2,0v-.2c0-.3-.1-.6-.3-.7-.2-.2-.5-.2-.9-.2s-.6,0-.8.1c-.2,0-.4.2-.5.3l-.4-.6c.2-.1.4-.3.7-.4.3-.1.7-.2,1.2-.2s1.1.1,1.4.4c.3.3.5.7.5,1.2v2.9c0,0,0,.1,0,.2h-.8ZM245,534.3v-.5s-.1,0-.2,0c-.1,0-.3,0-.4,0-.1,0-.3,0-.4,0-.3,0-.6,0-.8.2-.2,0-.3.2-.4.4,0,.1,0,.3,0,.4,0,.2,0,.4.3.6.2.1.4.2.7.2s.4,0,.6-.1c.2-.1.4-.2.5-.4.1-.2.2-.3.2-.5ZM247.9,536h-.9v-4.4c0,0,0-.2,0-.3h.9v.8c.1-.1.2-.2.3-.3.1-.1.3-.2.5-.3.2,0,.4-.1.7-.1s.2,0,.3,0c0,0,.2,0,.2,0l-.2.8c-.1,0-.3,0-.5,0s-.5,0-.7.2c-.2.1-.4.3-.5.5-.1.2-.2.4-.2.7v2.5ZM254,534.8l.5.5c0,0-.2.2-.4.3-.2.1-.4.2-.7.3-.3.1-.6.2-1,.2s-.9-.1-1.3-.3c-.4-.2-.7-.5-.9-.9-.2-.4-.3-.8-.3-1.3s0-.9.3-1.2c.2-.4.5-.7.8-.9.4-.2.8-.3,1.2-.3s1,.1,1.3.4c.3.3.6.6.7,1,.2.4.2.9.2,1.3h-3.7c0,.3,0,.5.2.7.1.2.3.4.6.5.2.1.5.2.8.2.4,0,.7,0,1-.2.3-.1.4-.3.6-.4ZM251,533.3h2.7c0-.4-.2-.7-.4-.9-.2-.3-.5-.4-1-.4s-.5,0-.7.2c-.2.1-.4.3-.5.5-.1.2-.2.4-.2.6ZM258.9,536v-.6c0,0-.2.1-.3.3-.1.1-.3.2-.5.3-.2,0-.5.1-.8.1s-.7,0-1.1-.3c-.3-.2-.6-.5-.7-.8-.2-.4-.3-.8-.3-1.3s0-.8.2-1.1c.2-.3.3-.6.6-.8.2-.2.5-.3.8-.4.3-.1.5-.2.8-.2s.5,0,.6,0c.2,0,.4.1.6.2v-2.2h.9v6.4c0,0,0,.2,0,.3h-.9ZM258.9,534v-1.7c-.1,0-.3-.2-.5-.2-.2,0-.4,0-.7,0-.4,0-.8.2-1.1.5-.3.3-.4.7-.4,1.3s0,.6.1.8c.1.2.2.4.5.6.2.1.5.2.8.2s.6,0,.8-.2c.2-.1.3-.3.4-.5,0-.2.1-.4.1-.6ZM263.1,534.5v-2.4h-.8v-.8h.8v-1.5h.9v1.5h1.4v.8h-1.4v2.3c0,.4,0,.6.2.8.1.1.3.2.5.2s.3,0,.4,0c.1,0,.2-.1.3-.2l.4.5c-.2.2-.4.3-.6.4-.2,0-.4.1-.7.1-.5,0-.8-.1-1.1-.4-.2-.3-.3-.7-.3-1.2ZM268.3,536.1c-.5,0-.9-.1-1.3-.3-.4-.2-.7-.5-.9-.9-.2-.4-.3-.8-.3-1.2s.1-.9.3-1.2c.2-.4.5-.7.9-.9.4-.2.8-.3,1.3-.3s.9.1,1.3.3c.4.2.7.5.9.9.2.4.3.8.3,1.2s-.1.9-.3,1.2c-.2.4-.5.7-.9.9-.4.2-.8.3-1.3.3ZM268.3,535.4c.3,0,.6,0,.8-.2.2-.2.4-.4.5-.6.1-.3.2-.5.2-.8s0-.5-.2-.8c-.1-.3-.3-.5-.5-.6-.2-.2-.5-.2-.8-.2s-.6,0-.8.2c-.2.2-.4.4-.5.6-.1.3-.2.5-.2.8s0,.5.2.8c.1.3.3.5.5.6.2.2.5.2.8.2ZM273.8,534.5v-2.4h-.8v-.8h.8v-1.5h.9v1.5h1.4v.8h-1.4v2.3c0,.4,0,.6.2.8.1.1.3.2.5.2s.3,0,.4,0c.1,0,.2-.1.3-.2l.4.5c-.2.2-.4.3-.6.4-.2,0-.4.1-.7.1-.5,0-.8-.1-1.1-.4-.2-.3-.4-.7-.4-1.2ZM277.2,536v-6.7h.9v2.7c0-.1.2-.2.3-.3.1-.1.3-.2.5-.3.2,0,.5-.1.7-.1.6,0,1.1.2,1.4.5.3.4.4.8.4,1.4v2.8h-.9v-2.7c0-.4,0-.8-.3-1-.2-.2-.4-.3-.8-.3s-.6,0-.8.3c-.2.2-.3.4-.4.7,0,.3-.1.6-.1.9v2.2h-.9ZM286.2,534.8l.5.5c0,0-.2.2-.4.3-.2.1-.4.2-.7.3-.3.1-.6.2-1,.2s-.9-.1-1.3-.3c-.4-.2-.7-.5-.9-.9-.2-.4-.3-.8-.3-1.3s0-.9.3-1.2c.2-.4.5-.7.8-.9.4-.2.8-.3,1.2-.3s1,.1,1.3.4c.3.3.6.6.7,1,.2.4.2.9.2,1.3h-3.7c0,.3,0,.5.2.7.1.2.3.4.6.5.2.1.5.2.8.2.4,0,.7,0,1-.2.3-.1.4-.3.5-.4ZM283.2,533.3h2.7c0-.4-.2-.7-.4-.9-.2-.3-.5-.4-1-.4s-.5,0-.7.2c-.2.1-.4.3-.5.5-.1.2-.2.4-.2.6ZM19.3,544l.7-.6c.1.1.3.3.4.4.2.1.4.3.6.4.2,0,.5.1.8.1.4,0,.8,0,1-.3.2-.2.4-.5.4-.8s-.1-.6-.4-.8c-.3-.2-.7-.3-1.2-.4-.6-.1-1-.3-1.4-.6-.4-.3-.5-.7-.5-1.3s0-.6.2-.9c.2-.3.4-.5.8-.7.3-.2.7-.3,1.2-.3s.8,0,1.1.2c.3.1.5.2.7.4.2.1.3.3.3.4l-.6.6c0,0-.1-.2-.3-.3-.1-.1-.3-.2-.5-.3-.2,0-.4-.1-.7-.1s-.5,0-.7.1c-.2,0-.3.2-.4.4,0,.1-.1.3-.1.4,0,.3.1.6.4.7.3.2.7.3,1.2.4.3,0,.6.2.9.4.3.2.5.4.7.6.2.3.3.6.3,1.1s-.1.7-.3,1c-.2.3-.5.5-.8.7-.4.2-.8.2-1.2.2s-.8,0-1.1-.2c-.3-.1-.6-.3-.8-.5-.2-.2-.4-.4-.5-.5ZM25.1,543.1v-2.8h.9v2.7c0,.4,0,.8.3,1,.2.2.4.3.8.3s.6,0,.8-.3c.2-.2.3-.4.4-.7,0-.3.1-.6.1-.9v-2.2h.9v4.4c0,0,0,.2,0,.3h-.9v-.7c-.1.1-.2.2-.3.3-.1.1-.3.2-.5.3-.2,0-.4.1-.7.1-.6,0-1.1-.2-1.3-.5-.3-.4-.4-.8-.4-1.4ZM31.3,547h-.9v-6.3c0,0,0-.2,0-.3h.9v.7c0,0,.2-.2.3-.3.1-.1.3-.2.5-.3.2,0,.5-.1.8-.1.5,0,.9.1,1.2.3.3.2.5.5.7.9.2.4.2.8.2,1.2s0,.8-.2,1.1c-.1.3-.3.6-.6.8-.2.2-.5.3-.8.4-.3,0-.6.1-.8.1s-.6,0-.8-.1c-.2,0-.4-.1-.5-.2v2.2ZM31.3,542.8v1.2c.1,0,.3.2.5.2.2,0,.4.1.7.1s.6,0,.8-.2c.2-.1.4-.3.5-.6.1-.3.2-.5.2-.8s0-.6-.1-.8c0-.3-.2-.5-.4-.6s-.5-.2-.8-.2-.6,0-.8.3c-.2.2-.4.4-.5.8,0,.1,0,.2,0,.3,0,.1,0,.2,0,.4ZM39.6,543.8l.5.5c0,0-.2.2-.4.3-.2.1-.4.2-.7.3-.3.1-.6.2-1,.2s-.9-.1-1.3-.3c-.4-.2-.7-.5-.9-.9-.2-.4-.3-.8-.3-1.3s0-.9.3-1.2c.2-.4.5-.7.8-.9.4-.2.8-.3,1.2-.3s1,.1,1.3.4c.3.3.6.6.7,1,.2.4.2.9.2,1.3h-3.7c0,.3,0,.5.2.7.1.2.3.4.5.5.2.1.5.2.8.2.4,0,.7,0,1-.2.3-.1.4-.3.5-.4ZM36.6,542.3h2.7c0-.4-.2-.7-.4-.9-.2-.3-.5-.4-1-.4s-.5,0-.7.2c-.2.1-.4.3-.5.5-.1.2-.2.4-.2.6ZM42.1,545h-.9v-4.4c0,0,0-.2,0-.3h.9v.8c.1-.1.2-.2.3-.3.1-.1.3-.2.5-.3.2,0,.4-.1.7-.1s.2,0,.3,0c0,0,.2,0,.2,0l-.2.8c-.1,0-.3,0-.5,0s-.5,0-.7.2c-.2.1-.4.3-.5.5-.1.2-.2.4-.2.7v2.5ZM44.9,545v-6.7h2.1c.6,0,1,0,1.4.3s.6.4.7.7c.2.3.2.6.2.9s0,.8-.3,1.1c-.2.3-.5.6-.9.7l1.6,2.8h-1.1l-1.4-2.7h-1.3v2.7h-.9ZM45.8,541.5h1.3c.4,0,.7-.1.9-.3.2-.2.3-.5.3-.8s-.1-.7-.3-.9c-.2-.2-.5-.3-.9-.3h-1.3v2.3ZM53.2,545v-.6c-.2.2-.4.4-.7.5-.3.1-.6.2-.9.2s-.5,0-.8-.1c-.2,0-.5-.2-.6-.5-.2-.2-.2-.5-.2-.9,0-.5.2-.9.5-1.2.4-.3.9-.4,1.5-.4s.3,0,.5,0c.2,0,.3,0,.4,0,.1,0,.2,0,.2,0v-.2c0-.3-.1-.6-.3-.7-.2-.2-.5-.2-.8-.2s-.6,0-.8.1c-.2,0-.4.2-.5.3l-.4-.6c.2-.1.4-.3.7-.4.3-.1.7-.2,1.2-.2s1.1.1,1.4.4c.3.3.5.7.5,1.2v2.9c0,0,0,.1,0,.2h-.8ZM53.2,543.3v-.5s-.1,0-.2,0c-.1,0-.3,0-.4,0-.1,0-.3,0-.4,0-.3,0-.6,0-.8.2-.2,0-.3.2-.4.4,0,.1,0,.3,0,.4,0,.2,0,.4.3.6.2.1.4.2.7.2s.4,0,.6-.1c.2-.1.4-.2.5-.4.1-.2.2-.3.2-.5ZM55.6,543.5v-2.4h-.8v-.8h.8v-1.5h.9v1.5h1.4v.8h-1.4v2.3c0,.4,0,.6.2.8.1.1.3.2.5.2s.3,0,.4,0c.1,0,.2-.1.3-.2l.4.5c-.2.2-.4.3-.6.4-.2,0-.4.1-.7.1-.5,0-.8-.1-1.1-.4-.2-.3-.3-.7-.3-1.2ZM58.9,539.5v-1h1v1h-1ZM59,545v-4.7h.9v4.7h-.9ZM62,545h-.9v-4.3c0,0,0-.2,0-.3h.9v.7c.1-.1.2-.2.4-.3.1-.1.3-.2.5-.3.2,0,.5-.1.7-.1.6,0,1.1.2,1.4.5.3.4.4.8.4,1.4v2.8h-.9v-2.7c0-.4,0-.8-.3-1-.2-.2-.4-.3-.8-.3s-.6,0-.8.3c-.2.2-.3.4-.4.7,0,.3-.1.6-.1.9v2.2ZM66.6,546.6l.4-.7c.2.1.3.2.6.3.2,0,.5.1.8.1s.8-.1,1-.4c.2-.2.3-.6.3-1v-.6c0,0-.2.1-.3.2-.1,0-.3.2-.5.3-.2,0-.4.1-.7.1-.5,0-.8,0-1.2-.3-.3-.2-.6-.5-.7-.8-.2-.4-.2-.8-.2-1.2s.1-.9.3-1.3c.2-.4.5-.7.9-.9.4-.2.8-.3,1.4-.3s.7,0,1,.1c.3,0,.6.1.8.2v4.4c0,.7-.2,1.2-.6,1.6-.4.4-.9.6-1.6.6s-.8,0-1.1-.2-.5-.2-.7-.4ZM69.7,543.1v-1.9c0,0-.2,0-.3,0-.1,0-.4,0-.6,0s-.6,0-.9.2c-.3.1-.5.3-.6.6-.1.3-.2.5-.2.9s0,.5.1.8c0,.2.2.4.4.6.2.1.5.2.8.2s.5,0,.7-.2c.2-.1.3-.3.4-.4,0-.2.1-.4.1-.6ZM71.5,544.4l.6-.6c.2.2.4.3.6.4.2.1.5.2.8.2s.6,0,.8-.1c.2,0,.3-.3.3-.5s0-.3-.1-.4c0,0-.2-.2-.4-.2-.2,0-.5-.2-.8-.2-.2,0-.5-.1-.7-.2-.2-.1-.4-.2-.6-.4-.1-.2-.2-.4-.2-.7s0-.6.3-.8c.2-.2.4-.4.7-.5.3-.1.6-.2.9-.2s.7,0,1,.2c.3.1.5.2.7.4l-.5.6c-.1-.1-.3-.2-.5-.3-.2,0-.5-.1-.7-.1s-.5,0-.7.1c-.2,0-.3.2-.3.5s.1.3.3.5c.2,0,.5.2.9.3.3,0,.6.2.8.3.2.1.4.3.6.4.1.2.2.4.2.7s0,.6-.3.8c-.2.2-.4.4-.7.5-.3.1-.6.2-.9.2-.9,0-1.5-.2-2-.7ZM77.6,545l2.6-6.7h1l2.6,6.7h-1.1l-.7-1.9h-2.7l-.7,1.9h-1ZM79.6,542.3h2.2l-1.1-2.9-1.1,2.9ZM87.7,543.8l.6.6c-.2.2-.5.4-.8.6-.3.1-.7.2-1.1.2s-.9-.1-1.3-.3c-.4-.2-.6-.5-.8-.9-.2-.4-.3-.8-.3-1.3s.1-.9.3-1.2c.2-.4.5-.7.9-.9.4-.2.8-.3,1.3-.3s.7,0,1,.2c.3.1.6.3.8.6l-.6.6c-.1-.2-.3-.3-.5-.4-.2-.1-.4-.2-.7-.2s-.6,0-.8.2c-.2.2-.4.4-.5.6-.1.3-.2.5-.2.8s0,.6.2.8c.1.3.3.5.5.6.2.2.5.2.8.2s.5,0,.7-.1c.2-.1.4-.2.5-.4ZM92.3,543.8l.6.6c-.2.2-.5.4-.8.6-.3.1-.7.2-1.1.2s-.9-.1-1.3-.3c-.4-.2-.6-.5-.8-.9-.2-.4-.3-.8-.3-1.3s.1-.9.3-1.2c.2-.4.5-.7.9-.9.4-.2.8-.3,1.3-.3s.7,0,1,.2c.3.1.6.3.8.6l-.6.6c-.1-.2-.3-.3-.5-.4-.2-.1-.4-.2-.7-.2s-.6,0-.8.2c-.2.2-.4.4-.5.6-.1.3-.2.5-.2.8s0,.6.2.8c.1.3.3.5.5.6.2.2.5.2.8.2s.5,0,.7-.1c.2-.1.4-.2.5-.4ZM93.6,543.1v-2.8h.9v2.7c0,.4,0,.8.3,1,.2.2.4.3.8.3s.6,0,.8-.3c.2-.2.3-.4.4-.7,0-.3.1-.6.1-.9v-2.2h.9v4.4c0,0,0,.2,0,.3h-.9v-.7c-.1.1-.2.2-.3.3-.1.1-.3.2-.5.3-.2,0-.4.1-.7.1-.6,0-1.1-.2-1.3-.5-.3-.4-.4-.8-.4-1.4ZM99.8,545h-.9v-4.3c0,0,0-.2,0-.3h.9v.7c.1-.1.2-.2.3-.3.1-.1.3-.2.5-.3.2,0,.4-.1.7-.1s.7,0,.9.2c.2.1.4.3.6.6.2-.2.4-.4.7-.6.3-.2.6-.3,1-.3.6,0,1,.2,1.3.5.3.4.4.8.4,1.4v2.8h-.9v-2.7c0-.8-.3-1.3-1-1.3s-.5,0-.7.2c-.2.1-.3.3-.5.5-.1.2-.2.4-.2.7v2.6h-.9v-2.7c0-.4,0-.8-.3-1-.2-.2-.4-.3-.7-.3s-.6,0-.8.3c-.2.2-.3.4-.4.7,0,.3-.1.6-.1.9v2.2ZM107.3,543.1v-2.8h.9v2.7c0,.4,0,.8.3,1,.2.2.4.3.8.3s.6,0,.8-.3c.2-.2.3-.4.4-.7,0-.3.1-.6.1-.9v-2.2h.9v4.4c0,0,0,.2,0,.3h-.9v-.7c-.1.1-.2.2-.3.3-.1.1-.3.2-.5.3-.2,0-.4.1-.7.1-.6,0-1.1-.2-1.3-.5-.3-.4-.4-.8-.4-1.4ZM112.6,545v-6.7h.9v6.7h-.9ZM117.6,545v-.6c-.2.2-.4.4-.7.5-.3.1-.6.2-.9.2s-.5,0-.8-.1c-.2,0-.5-.2-.6-.5-.2-.2-.2-.5-.2-.9,0-.5.2-.9.5-1.2.4-.3.9-.4,1.5-.4s.3,0,.5,0c.2,0,.3,0,.4,0,.1,0,.2,0,.2,0v-.2c0-.3-.1-.6-.3-.7-.2-.2-.5-.2-.8-.2s-.6,0-.8.1c-.2,0-.4.2-.5.3l-.4-.6c.2-.1.4-.3.7-.4.3-.1.7-.2,1.2-.2s1.1.1,1.4.4c.3.3.5.7.5,1.2v2.9c0,0,0,.1,0,.2h-.8ZM117.6,543.3v-.5s-.1,0-.2,0c-.1,0-.3,0-.4,0-.1,0-.3,0-.4,0-.3,0-.6,0-.8.2-.2,0-.3.2-.4.4,0,.1,0,.3,0,.4,0,.2,0,.4.3.6.2.1.4.2.7.2s.4,0,.6-.1c.2-.1.4-.2.5-.4.1-.2.2-.3.2-.5ZM120,543.5v-2.4h-.8v-.8h.8v-1.5h.9v1.5h1.4v.8h-1.4v2.3c0,.4,0,.6.2.8.1.1.3.2.5.2s.3,0,.4,0c.1,0,.2-.1.3-.2l.4.5c-.2.2-.4.3-.6.4-.2,0-.4.1-.7.1-.5,0-.8-.1-1.1-.4-.2-.3-.3-.7-.3-1.2ZM123.3,539.5v-1h1v1h-1ZM123.3,545v-4.7h.9v4.7h-.9ZM127.7,545.1c-.5,0-.9-.1-1.3-.3-.4-.2-.7-.5-.9-.9-.2-.4-.3-.8-.3-1.2s.1-.9.3-1.2c.2-.4.5-.7.9-.9.4-.2.8-.3,1.3-.3s.9.1,1.3.3c.4.2.7.5.9.9.2.4.3.8.3,1.2s-.1.9-.3,1.2c-.2.4-.5.7-.9.9-.4.2-.8.3-1.3.3ZM127.7,544.4c.3,0,.6,0,.8-.2.2-.2.4-.4.5-.6.1-.3.2-.5.2-.8s0-.5-.2-.8c-.1-.3-.3-.5-.5-.6-.2-.2-.5-.2-.8-.2s-.6,0-.8.2c-.2.2-.4.4-.5.6-.1.3-.2.5-.2.8s0,.5.2.8c.1.3.3.5.5.6.2.2.5.2.8.2ZM131.9,545h-.9v-4.3c0,0,0-.2,0-.3h.9v.7c.1-.1.2-.2.4-.3.1-.1.3-.2.5-.3.2,0,.5-.1.7-.1.6,0,1.1.2,1.3.5.3.4.4.8.4,1.4v2.8h-.9v-2.7c0-.4,0-.8-.3-1-.2-.2-.4-.3-.8-.3s-.6,0-.8.3c-.2.2-.3.4-.4.7,0,.3-.1.6-.1.9v2.2ZM138.2,545v-6.7h4.2v.9h-3.2v2h2.5v.9h-2.5v2.9h-1ZM142.5,543.1v-2.8h.9v2.7c0,.4,0,.8.3,1,.2.2.4.3.8.3s.6,0,.8-.3c.2-.2.3-.4.4-.7,0-.3.1-.6.1-.9v-2.2h.9v4.4c0,0,0,.2,0,.3h-.9v-.7c-.1.1-.2.2-.3.3-.1.1-.3.2-.5.3-.2,0-.4.1-.7.1-.6,0-1.1-.2-1.3-.5-.3-.4-.4-.8-.4-1.4ZM148.8,545h-.9v-4.3c0,0,0-.2,0-.3h.9v.7c.1-.1.2-.2.4-.3.1-.1.3-.2.5-.3.2,0,.5-.1.7-.1.6,0,1.1.2,1.4.5.3.4.4.8.4,1.4v2.8h-.9v-2.7c0-.4,0-.8-.3-1-.2-.2-.4-.3-.8-.3s-.6,0-.8.3c-.2.2-.3.4-.4.7,0,.3-.1.6-.1.9v2.2ZM156.6,545v-.6c0,0-.2.1-.3.3-.1.1-.3.2-.5.3-.2,0-.5.1-.8.1s-.7,0-1.1-.3c-.3-.2-.6-.5-.7-.8-.2-.4-.3-.8-.3-1.3s0-.8.2-1.1c.2-.3.4-.6.6-.8.2-.2.5-.3.8-.4.3-.1.5-.2.8-.2s.5,0,.6,0c.2,0,.4.1.6.2v-2.2h.9v6.4c0,0,0,.2,0,.3h-.9ZM156.6,543v-1.7c-.1,0-.3-.2-.5-.2-.2,0-.4,0-.7,0-.4,0-.8.2-1.1.5-.3.3-.4.7-.4,1.3s0,.6.1.8c0,.2.2.4.4.6.2.1.5.2.8.2s.6,0,.8-.2c.2-.1.3-.3.4-.5,0-.2.1-.4.1-.6ZM165.5,543.3l.7.6c-.1.2-.3.3-.5.5-.2.2-.5.4-.9.5-.4.2-.8.2-1.2.2s-1.2-.1-1.7-.4c-.5-.3-.9-.7-1.2-1.2-.3-.5-.4-1.1-.4-1.8s0-.9.2-1.4c.2-.4.4-.8.7-1.1.3-.3.7-.6,1.1-.8.4-.2.9-.3,1.4-.3s.9,0,1.2.2c.3.1.6.3.8.5.2.2.4.4.5.6l-.7.6c-.1-.2-.2-.3-.4-.5-.2-.2-.4-.3-.6-.4-.2-.1-.5-.2-.9-.2s-.9.1-1.3.4c-.3.2-.6.6-.8,1-.2.4-.3.8-.3,1.3s0,.9.3,1.3c.2.4.5.7.8.9.3.2.8.3,1.2.3s.7,0,1-.2c.3-.1.5-.3.6-.4.2-.2.3-.3.4-.4ZM167.8,545h-.9v-4.4c0,0,0-.2,0-.3h.9v.8c.1-.1.2-.2.3-.3.1-.1.3-.2.5-.3.2,0,.4-.1.7-.1s.2,0,.3,0c0,0,.2,0,.2,0l-.2.8c-.1,0-.3,0-.5,0s-.5,0-.7.2c-.2.1-.4.3-.5.5-.1.2-.2.4-.2.7v2.5ZM173.9,543.8l.5.5c0,0-.2.2-.4.3-.2.1-.4.2-.7.3-.3.1-.6.2-1,.2s-.9-.1-1.3-.3c-.4-.2-.7-.5-.9-.9-.2-.4-.3-.8-.3-1.3s0-.9.3-1.2c.2-.4.5-.7.8-.9.4-.2.8-.3,1.2-.3s1,.1,1.3.4c.3.3.6.6.7,1,.2.4.2.9.2,1.3h-3.7c0,.3,0,.5.2.7.1.2.3.4.6.5.2.1.5.2.8.2.4,0,.7,0,1-.2.3-.1.4-.3.6-.4ZM170.8,542.3h2.7c0-.4-.2-.7-.4-.9-.2-.3-.5-.4-1-.4s-.5,0-.7.2c-.2.1-.4.3-.5.5-.1.2-.2.4-.2.6ZM178.8,545v-.6c0,0-.2.1-.3.3-.1.1-.3.2-.5.3-.2,0-.5.1-.8.1s-.7,0-1.1-.3c-.3-.2-.6-.5-.7-.8s-.3-.8-.3-1.3,0-.8.2-1.1c.2-.3.4-.6.6-.8.2-.2.5-.3.8-.4.3-.1.5-.2.8-.2s.5,0,.6,0c.2,0,.4.1.6.2v-2.2h.9v6.4c0,0,0,.2,0,.3h-.9ZM178.8,543v-1.7c-.1,0-.3-.2-.5-.2-.2,0-.4,0-.7,0-.4,0-.8.2-1.1.5-.3.3-.4.7-.4,1.3s0,.6.1.8c.1.2.2.4.5.6.2.1.5.2.8.2s.6,0,.8-.2c.2-.1.3-.3.4-.5,0-.2.1-.4.1-.6ZM180.8,539.5v-1h1v1h-1ZM180.8,545v-4.7h.9v4.7h-.9ZM183.3,543.5v-2.4h-.8v-.8h.8v-1.5h.9v1.5h1.4v.8h-1.4v2.3c0,.4,0,.6.2.8.1.1.3.2.5.2s.3,0,.4,0c.1,0,.2-.1.3-.2l.4.5c-.2.2-.4.3-.6.4-.2,0-.4.1-.7.1-.5,0-.8-.1-1.1-.4-.2-.3-.4-.7-.4-1.2ZM186.6,539.5v-1h1v1h-1ZM186.7,545v-4.7h.9v4.7h-.9ZM189.7,545h-.9v-4.3c0,0,0-.2,0-.3h.9v.7c.1-.1.2-.2.4-.3.1-.1.3-.2.5-.3.2,0,.5-.1.7-.1.6,0,1.1.2,1.3.5.3.4.4.8.4,1.4v2.8h-.9v-2.7c0-.4,0-.8-.3-1-.2-.2-.4-.3-.8-.3s-.6,0-.8.3c-.2.2-.3.4-.4.7,0,.3-.1.6-.1.9v2.2ZM194.3,546.6l.4-.7c.2.1.3.2.6.3.2,0,.5.1.8.1s.8-.1,1-.4c.2-.2.3-.6.3-1v-.6c0,0-.1.1-.3.2-.1,0-.3.2-.5.3-.2,0-.4.1-.7.1-.5,0-.8,0-1.2-.3-.3-.2-.6-.5-.7-.8-.2-.4-.2-.8-.2-1.2s.1-.9.3-1.3c.2-.4.5-.7.9-.9.4-.2.9-.3,1.4-.3s.7,0,1,.1c.3,0,.6.1.8.2v4.4c0,.7-.2,1.2-.6,1.6-.4.4-.9.6-1.6.6s-.9,0-1.1-.2-.5-.2-.7-.4ZM197.5,543.1v-1.9c0,0-.2,0-.3,0-.1,0-.4,0-.6,0s-.6,0-.9.2c-.3.1-.5.3-.6.6-.1.3-.2.5-.2.9s0,.5.1.8c0,.2.2.4.4.6s.5.2.8.2.5,0,.7-.2c.2-.1.3-.3.4-.4,0-.2.1-.4.1-.6ZM201.3,545v-6.7h2.1c.6,0,1,0,1.4.3s.6.4.7.7c.2.3.2.6.2.9s-.1.8-.3,1.1c-.2.3-.5.6-.9.7l1.6,2.8h-1.1l-1.4-2.7h-1.3v2.7h-.9ZM202.3,541.5h1.3c.4,0,.7-.1.9-.3.2-.2.3-.5.3-.8s-.1-.7-.3-.9c-.2-.2-.5-.3-.9-.3h-1.3v2.3ZM209.7,545v-.6c-.2.2-.4.4-.7.5-.3.1-.6.2-.9.2s-.5,0-.8-.1c-.2,0-.5-.2-.6-.5-.2-.2-.2-.5-.2-.9,0-.5.2-.9.5-1.2.4-.3.9-.4,1.5-.4s.3,0,.4,0c.2,0,.3,0,.4,0,.1,0,.2,0,.2,0v-.2c0-.3-.1-.6-.3-.7-.2-.2-.5-.2-.8-.2s-.6,0-.8.1c-.2,0-.4.2-.5.3l-.4-.6c.2-.1.4-.3.7-.4.3-.1.7-.2,1.2-.2s1.1.1,1.4.4c.3.3.5.7.5,1.2v2.9c0,0,0,.1,0,.2h-.8ZM209.7,543.3v-.5s-.1,0-.2,0c-.1,0-.3,0-.4,0-.1,0-.3,0-.4,0-.3,0-.6,0-.8.2-.2,0-.3.2-.4.4,0,.1,0,.3,0,.4,0,.2,0,.4.3.6.2.1.4.2.7.2s.4,0,.6-.1c.2-.1.4-.2.5-.4.1-.2.2-.3.2-.5ZM212.1,543.5v-2.4h-.8v-.8h.8v-1.5h.9v1.5h1.4v.8h-1.4v2.3c0,.4,0,.6.2.8.1.1.3.2.5.2s.3,0,.4,0c.1,0,.2-.1.3-.2l.4.5c-.2.2-.4.3-.6.4-.2,0-.4.1-.7.1-.5,0-.8-.1-1.1-.4-.2-.3-.4-.7-.4-1.2ZM218.8,543.8l.5.5c0,0-.2.2-.4.3-.2.1-.4.2-.7.3-.3.1-.6.2-1,.2s-.9-.1-1.3-.3c-.4-.2-.7-.5-.9-.9-.2-.4-.3-.8-.3-1.3s0-.9.3-1.2c.2-.4.5-.7.8-.9.4-.2.8-.3,1.2-.3s1,.1,1.3.4c.3.3.6.6.7,1,.2.4.2.9.2,1.3h-3.7c0,.3,0,.5.2.7.1.2.3.4.6.5.2.1.5.2.8.2.4,0,.7,0,1-.2.3-.1.4-.3.6-.4ZM215.8,542.3h2.7c0-.4-.2-.7-.4-.9-.2-.3-.5-.4-1-.4s-.5,0-.7.2c-.2.1-.4.3-.5.5-.1.2-.2.4-.2.6ZM221.8,544l.7-.6c.1.1.3.3.4.4.2.1.4.3.6.4.2,0,.5.1.8.1.4,0,.8,0,1-.3.2-.2.4-.5.4-.8s-.1-.6-.4-.8c-.3-.2-.7-.3-1.2-.4-.6-.1-1-.3-1.4-.6-.4-.3-.5-.7-.5-1.3s0-.6.2-.9c.2-.3.4-.5.8-.7.3-.2.7-.3,1.2-.3s.8,0,1.1.2c.3.1.5.2.7.4.2.1.3.3.3.4l-.6.6c0,0-.1-.2-.3-.3-.1-.1-.3-.2-.5-.3-.2,0-.4-.1-.7-.1s-.5,0-.7.1c-.2,0-.3.2-.4.4,0,.1-.1.3-.1.4,0,.3.1.6.4.7.3.2.7.3,1.2.4.3,0,.6.2.9.4.3.2.5.4.7.6.2.3.3.6.3,1.1s-.1.7-.3,1c-.2.3-.5.5-.8.7-.4.2-.8.2-1.2.2s-.8,0-1.1-.2c-.3-.1-.6-.3-.8-.5-.2-.2-.4-.4-.5-.5ZM227.6,543.1v-2.8h.9v2.7c0,.4,0,.8.3,1,.2.2.4.3.8.3s.6,0,.8-.3c.2-.2.3-.4.4-.7,0-.3.1-.6.1-.9v-2.2h.9v4.4c0,0,0,.2,0,.3h-.9v-.7c-.1.1-.2.2-.3.3-.1.1-.3.2-.5.3-.2,0-.4.1-.7.1-.6,0-1.1-.2-1.3-.5-.3-.4-.4-.8-.4-1.4ZM233.8,545h-.9v-4.4c0,0,0-.2,0-.3h.9v.8c.1-.1.2-.2.3-.3.1-.1.3-.2.5-.3.2,0,.4-.1.7-.1s.2,0,.3,0c0,0,.2,0,.2,0l-.2.8c-.1,0-.3,0-.5,0s-.5,0-.7.2c-.2.1-.4.3-.5.5-.1.2-.2.4-.2.7v2.5ZM237.9,545l-2-4.7h1l1.5,3.6,1.4-3.6h1l-2,4.7h-.9ZM244.9,543.8l.5.5c0,0-.2.2-.4.3-.2.1-.4.2-.7.3-.3.1-.6.2-1,.2s-.9-.1-1.3-.3c-.4-.2-.7-.5-.9-.9-.2-.4-.3-.8-.3-1.3s0-.9.3-1.2c.2-.4.5-.7.8-.9.4-.2.8-.3,1.2-.3s1,.1,1.3.4c.3.3.6.6.7,1,.2.4.2.9.2,1.3h-3.7c0,.3,0,.5.2.7.1.2.3.4.6.5.2.1.5.2.8.2.4,0,.7,0,1-.2.3-.1.4-.3.6-.4ZM241.8,542.3h2.7c0-.4-.2-.7-.4-.9-.2-.3-.5-.4-1-.4s-.5,0-.7.2c-.2.1-.4.3-.5.5-.1.2-.2.4-.2.6ZM245.8,546.8l.4-.6c0,0,.1.1.2.2,0,0,.2,0,.3,0,.2,0,.4,0,.5-.3.1-.2.2-.5.4-.8v-.3c.1,0-2-4.6-2-4.6h1l1.5,3.5,1.3-3.5h1l-1.9,4.5c0,.2-.2.4-.3.7,0,.3-.2.5-.3.7-.1.2-.3.4-.5.6-.2.2-.4.2-.7.2s-.4,0-.6,0c-.2,0-.3-.1-.4-.2ZM252.2,542.6v-.9h5v.9h-5ZM259.2,544l.7-.6c.1.1.3.3.4.4.2.1.4.3.6.4.2,0,.5.1.8.1.4,0,.8,0,1-.3.2-.2.4-.5.4-.8s-.1-.6-.4-.8c-.3-.2-.7-.3-1.2-.4-.6-.1-1-.3-1.4-.6-.4-.3-.5-.7-.5-1.3s0-.6.2-.9c.2-.3.4-.5.8-.7.3-.2.7-.3,1.2-.3s.8,0,1.1.2c.3.1.5.2.7.4.2.1.3.3.3.4l-.6.6c0,0-.1-.2-.3-.3-.1-.1-.3-.2-.5-.3-.2,0-.4-.1-.7-.1s-.5,0-.7.1c-.2,0-.3.2-.4.4,0,.1-.1.3-.1.4,0,.3.1.6.4.7.3.2.7.3,1.2.4.3,0,.6.2.9.4.3.2.5.4.7.6.2.3.3.6.3,1.1s-.1.7-.3,1c-.2.3-.5.5-.8.7-.4.2-.8.2-1.2.2s-.8,0-1.1-.2c-.3-.1-.6-.3-.8-.5-.2-.2-.4-.4-.5-.5ZM265.3,545v-6.7h2.1c.6,0,1,0,1.4.3.3.2.6.4.7.7.2.3.2.6.2.9s-.1.8-.3,1.1c-.2.3-.5.6-.9.7l1.6,2.8h-1.1l-1.4-2.7h-1.3v2.7h-.9ZM266.2,541.5h1.3c.4,0,.7-.1.9-.3.2-.2.3-.5.3-.8s-.1-.7-.3-.9c-.2-.2-.5-.3-.9-.3h-1.3v2.3ZM270.7,544.5l.5-.7c.2.1.4.3.6.4.2.1.5.2.8.2.5,0,.8-.1,1-.4.2-.3.4-.6.4-.9s0-.4-.1-.5c0-.2-.2-.4-.4-.5-.2-.1-.5-.2-.8-.2s-.5,0-.7,0c-.2,0-.3.1-.4.2l-.5-.3.6-3h3.1v.8h-2.5l-.3,1.7c0,0,.2,0,.3-.1.1,0,.3,0,.5,0,.6,0,1.1.2,1.5.5.4.3.6.8.6,1.5s0,.7-.2,1.1c-.2.3-.4.6-.8.8-.3.2-.8.3-1.4.3s-.8,0-1.1-.2c-.3-.1-.6-.3-.8-.5ZM278.4,545.1c-.5,0-1-.1-1.3-.4-.4-.3-.6-.7-.8-1.2-.2-.5-.3-1.1-.3-1.8s0-1.2.3-1.7c.2-.5.5-.9.8-1.1.4-.3.8-.4,1.3-.4s1,.1,1.3.4c.4.3.6.6.8,1.1.2.5.3,1.1.3,1.7s0,1.3-.3,1.8c-.2.5-.5.9-.8,1.2-.4.3-.8.4-1.3.4ZM278.4,544.3c.3,0,.6-.1.8-.3s.4-.5.5-.9c.1-.4.2-.8.2-1.3,0-.7-.1-1.3-.4-1.8-.3-.4-.6-.7-1.1-.7s-.8.2-1.1.7c-.2.4-.4,1-.4,1.8s0,.9.2,1.3c.1.4.3.7.5.9s.5.3.8.3ZM30.5,554v-6.7h2.3c.5,0,.8,0,1.1.2s.5.4.7.6c.1.3.2.5.2.9s0,.5-.2.7c-.1.2-.3.4-.4.5-.2.1-.3.2-.5.2.1,0,.3,0,.5.1.2,0,.3.2.5.3.2.1.3.3.4.5,0,.2.2.5.2.8,0,.5-.1.8-.3,1.1-.2.3-.5.5-.9.6-.4.1-.8.2-1.3.2h-2.1ZM31.5,550.1h1.2c.2,0,.4,0,.6,0,.2,0,.4-.2.5-.3.1-.1.2-.3.2-.6s0-.5-.2-.6c-.1-.1-.3-.2-.5-.3-.2,0-.4,0-.6,0h-1.2v2ZM31.5,553.2h1.2c.2,0,.4,0,.5,0,.2,0,.4,0,.5-.1s.3-.2.4-.3c0-.1.1-.3.1-.6s0-.6-.2-.7c-.2-.2-.4-.3-.6-.3-.2,0-.5,0-.7,0h-1.2v2.2ZM39.1,554v-.6c-.2.2-.4.4-.7.5-.3.1-.6.2-.9.2s-.5,0-.8-.1c-.2,0-.5-.2-.6-.5-.2-.2-.2-.5-.2-.9,0-.5.2-.9.5-1.2.4-.3.9-.4,1.5-.4s.3,0,.5,0c.2,0,.3,0,.4,0,.1,0,.2,0,.2,0v-.2c0-.3-.1-.6-.3-.7-.2-.2-.5-.2-.9-.2s-.6,0-.8.1c-.2,0-.4.2-.5.3l-.4-.6c.2-.1.4-.3.7-.4.3-.1.7-.2,1.2-.2s1.1.1,1.4.4c.3.3.5.7.5,1.2v2.9c0,0,0,.1,0,.2h-.8ZM39.1,552.3v-.5s-.1,0-.2,0c-.1,0-.3,0-.4,0-.1,0-.3,0-.4,0-.3,0-.6,0-.8.2-.2,0-.3.2-.4.4,0,.1,0,.3,0,.4,0,.2,0,.4.3.6.2.1.4.2.7.2s.4,0,.6-.1c.2-.1.4-.2.5-.4.1-.2.2-.3.2-.5ZM41.1,554v-6.7h.9v6.7h-.9ZM46,554v-.6c-.2.2-.4.4-.7.5-.3.1-.6.2-.9.2s-.5,0-.8-.1c-.2,0-.5-.2-.6-.5-.2-.2-.2-.5-.2-.9,0-.5.2-.9.5-1.2.4-.3.9-.4,1.5-.4s.3,0,.5,0c.2,0,.3,0,.4,0,.1,0,.2,0,.2,0v-.2c0-.3-.1-.6-.3-.7-.2-.2-.5-.2-.8-.2s-.6,0-.8.1c-.2,0-.4.2-.5.3l-.4-.6c.2-.1.4-.3.7-.4.3-.1.7-.2,1.2-.2s1.1.1,1.4.4c.3.3.5.7.5,1.2v2.9c0,0,0,.1,0,.2h-.8ZM46,552.3v-.5s-.1,0-.2,0c-.1,0-.3,0-.4,0-.1,0-.3,0-.4,0-.3,0-.6,0-.8.2-.2,0-.3.2-.4.4,0,.1,0,.3,0,.4,0,.2,0,.4.3.6.2.1.4.2.7.2s.4,0,.6-.1c.2-.1.4-.2.5-.4.1-.2.2-.3.2-.5ZM48.9,554h-.9v-4.3c0,0,0-.2,0-.3h.9v.7c.1-.1.2-.2.3-.3.1-.1.3-.2.5-.3.2,0,.5-.1.7-.1.6,0,1.1.2,1.3.5.3.4.4.8.4,1.4v2.8h-.9v-2.7c0-.4,0-.8-.3-1-.2-.2-.4-.3-.8-.3s-.6,0-.8.3c-.2.2-.3.4-.4.7,0,.3-.1.6-.1.9v2.2ZM56.8,552.8l.5.6c-.2.2-.5.4-.8.6-.3.1-.7.2-1,.2s-.9-.1-1.3-.3c-.4-.2-.6-.5-.8-.9-.2-.4-.3-.8-.3-1.3s.1-.9.3-1.2.5-.7.9-.9c.4-.2.8-.3,1.3-.3s.7,0,1,.2c.3.1.6.3.8.6l-.6.6c-.1-.2-.3-.3-.5-.4-.2-.1-.4-.2-.7-.2s-.6,0-.8.2c-.2.2-.4.4-.5.6-.1.3-.2.5-.2.8s0,.6.2.8c.1.3.3.5.5.6.2.2.5.2.8.2s.5,0,.7-.1c.2-.1.4-.2.5-.4ZM61.6,552.8l.5.5c0,0-.2.2-.4.3-.2.1-.4.2-.7.3-.3.1-.6.2-1,.2s-.9-.1-1.3-.3c-.4-.2-.7-.5-.9-.9-.2-.4-.3-.8-.3-1.3s0-.9.3-1.2c.2-.4.5-.7.8-.9.4-.2.8-.3,1.2-.3s1,.1,1.3.4c.3.3.6.6.7,1,.2.4.2.9.2,1.3h-3.7c0,.3,0,.5.2.7.1.2.3.4.5.5.2.1.5.2.8.2.4,0,.7,0,1-.2.3-.1.4-.3.5-.4ZM58.6,551.3h2.7c0-.4-.2-.7-.4-.9-.2-.3-.5-.4-1-.4s-.5,0-.7.2c-.2.1-.4.3-.5.5-.1.2-.2.4-.2.6ZM66.5,554v-.6c0,0-.2.1-.3.3-.1.1-.3.2-.5.3-.2,0-.5.1-.8.1s-.7,0-1.1-.3c-.3-.2-.6-.5-.7-.8s-.3-.8-.3-1.3,0-.8.2-1.1c.2-.3.3-.6.6-.8s.5-.3.8-.4c.3-.1.5-.2.8-.2s.5,0,.7,0c.2,0,.4.1.6.2v-2.2h.9v6.4c0,0,0,.2,0,.3h-.9ZM66.5,552v-1.7c-.1,0-.3-.2-.5-.2-.2,0-.4,0-.7,0-.4,0-.8.2-1.1.5-.3.3-.4.7-.4,1.3s0,.6.1.8c.1.2.3.4.5.6.2.1.5.2.8.2s.6,0,.8-.2c.2-.1.3-.3.4-.5,0-.2.1-.4.1-.6ZM72.2,554.9h-.9c-.1-.2-.2-.5-.4-.9-.2-.4-.3-.8-.4-1.3-.1-.5-.2-1.1-.2-1.8s0-1.2.2-1.8c.1-.5.3-1,.4-1.4.2-.4.3-.7.4-.9h.9c-.1.3-.3.6-.4,1-.1.4-.3.9-.3,1.4,0,.5-.1,1.1-.1,1.7s0,1.1.1,1.7c0,.5.2,1,.3,1.4.1.4.3.7.4,1ZM77.2,548l-.4.7s-.1,0-.3-.2c-.2,0-.4-.1-.7-.1s-.7.1-1,.3c-.3.2-.4.5-.6.8-.1.3-.2.7-.2,1,.1,0,.3-.2.6-.3.2-.1.5-.2.9-.2.6,0,1.1.2,1.4.6.3.4.5.9.5,1.5s0,.8-.3,1.1c-.2.3-.4.6-.7.7-.3.2-.7.3-1.1.3-.7,0-1.3-.2-1.7-.8-.4-.5-.6-1.3-.6-2.3s.1-1.4.3-1.9c.2-.5.5-1,.9-1.2.4-.3.9-.4,1.5-.4s.6,0,.9.1c.3.1.4.2.6.3ZM74,551.3c0,.7.1,1.2.3,1.5.2.4.6.6,1,.6s.6-.1.8-.3c.2-.2.4-.6.4-1s0-.7-.3-.9c-.2-.2-.5-.4-.9-.4s-.6,0-.8.1c-.2,0-.4.2-.6.3ZM80.5,554.1c-.5,0-1-.1-1.3-.4-.4-.3-.6-.7-.8-1.2-.2-.5-.3-1.1-.3-1.8s0-1.2.3-1.7c.2-.5.5-.9.8-1.1.4-.3.8-.4,1.3-.4s1,.1,1.3.4c.4.3.6.6.8,1.1.2.5.3,1.1.3,1.7s0,1.3-.3,1.8c-.2.5-.5.9-.8,1.2-.4.3-.8.4-1.3.4ZM80.5,553.3c.3,0,.6-.1.8-.3s.4-.5.5-.9c.1-.4.2-.8.2-1.3,0-.7-.1-1.3-.4-1.8-.3-.4-.6-.7-1.1-.7s-.8.2-1.1.7c-.2.4-.4,1-.4,1.8s0,.9.2,1.3c.1.4.3.7.5.9s.5.3.8.3ZM83.9,551.6v-.9h2.9v.9h-2.9ZM89.8,554h-1c.2-.5.3-1,.5-1.5.2-.5.4-1.1.7-1.6s.4-1,.7-1.4c.2-.4.4-.8.5-1h-3.1v-.8h4v.8c-.1.2-.3.4-.4.8-.2.3-.3.7-.5,1.1-.2.4-.4.8-.5,1.3-.2.4-.3.9-.5,1.3-.1.4-.3.8-.4,1.1ZM97.6,548l-.4.7s-.1,0-.3-.2c-.2,0-.4-.1-.7-.1s-.7.1-1,.3c-.3.2-.4.5-.6.8-.1.3-.2.7-.2,1,.1,0,.3-.2.6-.3.2-.1.5-.2.9-.2.6,0,1.1.2,1.4.6.3.4.5.9.5,1.5s0,.8-.3,1.1c-.2.3-.4.6-.7.7-.3.2-.7.3-1.1.3-.7,0-1.3-.2-1.7-.8-.4-.5-.6-1.3-.6-2.3s.1-1.4.3-1.9c.2-.5.5-1,.9-1.2.4-.3.9-.4,1.5-.4s.6,0,.9.1c.3.1.4.2.6.3ZM94.3,551.3c0,.7.1,1.2.3,1.5.2.4.6.6,1,.6s.6-.1.8-.3c.2-.2.4-.6.4-1s0-.7-.3-.9c-.2-.2-.5-.4-.9-.4s-.6,0-.8.1c-.2,0-.4.2-.6.3ZM98.5,546.9h.9c.1.2.2.5.4.9.2.4.3.8.4,1.4.1.5.2,1.1.2,1.8s0,1.2-.2,1.8c-.1.5-.3,1-.4,1.3-.2.4-.3.7-.4.9h-.9c.1-.3.3-.6.4-1,.1-.4.3-.9.3-1.4,0-.5.1-1.1.1-1.7s0-1.1-.1-1.6c0-.5-.2-1-.3-1.4-.1-.4-.3-.7-.4-1ZM103.4,554v-6.7h1v6.7h-1ZM106.5,554h-.9v-4.3c0,0,0-.2,0-.3h.9v.7c.1-.1.2-.2.3-.3.1-.1.3-.2.5-.3.2,0,.5-.1.7-.1.6,0,1.1.2,1.4.5.3.4.4.8.4,1.4v2.8h-.9v-2.7c0-.4,0-.8-.3-1-.2-.2-.4-.3-.8-.3s-.6,0-.8.3c-.2.2-.3.4-.4.7,0,.3-.1.6-.1.9v2.2ZM114.4,554v-.6c0,0-.2.1-.3.3-.1.1-.3.2-.5.3-.2,0-.5.1-.8.1s-.7,0-1.1-.3c-.3-.2-.6-.5-.7-.8s-.3-.8-.3-1.3,0-.8.2-1.1c.2-.3.4-.6.6-.8s.5-.3.8-.4c.3-.1.5-.2.8-.2s.5,0,.7,0c.2,0,.4.1.6.2v-2.2h.9v6.4c0,0,0,.2,0,.3h-.9ZM114.3,552v-1.7c-.1,0-.3-.2-.5-.2-.2,0-.4,0-.7,0-.4,0-.8.2-1.1.5-.3.3-.4.7-.4,1.3s0,.6.1.8c0,.2.2.4.4.6.2.1.5.2.8.2s.6,0,.8-.2c.2-.1.3-.3.4-.5,0-.2.1-.4.1-.6ZM120.1,552.8l.5.5c0,0-.2.2-.4.3-.2.1-.4.2-.7.3-.3.1-.6.2-1,.2s-.9-.1-1.3-.3c-.4-.2-.7-.5-.9-.9-.2-.4-.3-.8-.3-1.3s0-.9.3-1.2c.2-.4.5-.7.8-.9.4-.2.8-.3,1.2-.3s1,.1,1.3.4c.3.3.6.6.7,1,.2.4.2.9.2,1.3h-3.7c0,.3,0,.5.2.7.1.2.3.4.6.5.2.1.5.2.8.2.4,0,.7,0,1-.2.3-.1.4-.3.5-.4ZM117.1,551.3h2.7c0-.4-.2-.7-.4-.9-.2-.3-.5-.4-1-.4s-.5,0-.7.2c-.2.1-.4.3-.5.5-.1.2-.2.4-.2.6ZM121,554l1.8-2.4-1.7-2.2h1.1l1.1,1.5,1.1-1.5h1l-1.6,2.2,1.8,2.5h-1.1l-1.3-1.8-1.3,1.8h-1ZM130.9,554v-.6c-.2.2-.4.4-.7.5-.3.1-.6.2-.9.2s-.5,0-.8-.1c-.2,0-.5-.2-.6-.5-.2-.2-.2-.5-.2-.9,0-.5.2-.9.5-1.2.4-.3.9-.4,1.5-.4s.3,0,.4,0c.2,0,.3,0,.4,0,.1,0,.2,0,.2,0v-.2c0-.3-.1-.6-.3-.7-.2-.2-.5-.2-.8-.2s-.6,0-.8.1c-.2,0-.4.2-.5.3l-.4-.6c.2-.1.4-.3.7-.4.3-.1.7-.2,1.2-.2s1.1.1,1.4.4c.3.3.5.7.5,1.2v2.9c0,0,0,.1,0,.2h-.8ZM130.9,552.3v-.5s-.1,0-.2,0c-.1,0-.3,0-.4,0-.1,0-.3,0-.4,0-.3,0-.6,0-.8.2-.2,0-.3.2-.4.4,0,.1,0,.3,0,.4,0,.2,0,.4.3.6.2.1.4.2.7.2s.4,0,.6-.1c.2-.1.4-.2.5-.4.1-.2.2-.3.2-.5ZM133.3,552.5v-2.4h-.8v-.8h.8v-1.5h.9v1.5h1.4v.8h-1.4v2.3c0,.4,0,.6.2.8.1.1.3.2.5.2s.3,0,.4,0c.1,0,.2-.1.3-.2l.4.5c-.2.2-.4.3-.6.4-.2,0-.4.1-.7.1-.5,0-.8-.1-1.1-.4-.2-.3-.4-.7-.4-1.2ZM138.1,553l.7-.6c.1.1.3.3.4.4.2.1.4.3.6.4.2,0,.5.1.8.1.4,0,.8,0,1-.3.2-.2.4-.5.4-.8s-.1-.6-.4-.8c-.3-.2-.7-.3-1.2-.4-.6-.1-1-.3-1.4-.6-.4-.3-.5-.7-.5-1.3s0-.6.2-.9c.2-.3.4-.5.8-.7.3-.2.7-.3,1.2-.3s.8,0,1.1.2c.3.1.5.2.7.4.2.1.3.3.3.4l-.6.6c0,0-.1-.2-.3-.3-.1-.1-.3-.2-.5-.3-.2,0-.4-.1-.7-.1s-.5,0-.7.1c-.2,0-.3.2-.4.4,0,.1-.1.3-.1.4,0,.3.1.6.4.7.3.2.7.3,1.2.4.3,0,.6.2.9.4.3.2.5.4.7.6.2.3.3.6.3,1.1s-.1.7-.3,1c-.2.3-.5.5-.8.7-.4.2-.8.2-1.2.2s-.8,0-1.1-.2c-.3-.1-.6-.3-.8-.5-.2-.2-.4-.4-.5-.5ZM147.7,552.8l.5.5c0,0-.2.2-.4.3-.2.1-.4.2-.7.3-.3.1-.6.2-1,.2s-.9-.1-1.3-.3c-.4-.2-.7-.5-.9-.9-.2-.4-.3-.8-.3-1.3s0-.9.3-1.2c.2-.4.5-.7.8-.9.4-.2.8-.3,1.2-.3s1,.1,1.3.4c.3.3.6.6.7,1,.2.4.2.9.2,1.3h-3.7c0,.3,0,.5.2.7.1.2.3.4.6.5.2.1.5.2.8.2.4,0,.7,0,1-.2.3-.1.4-.3.6-.4ZM144.7,551.3h2.7c0-.4-.2-.7-.4-.9-.2-.3-.5-.4-1-.4s-.5,0-.7.2c-.2.1-.4.3-.5.5-.1.2-.2.4-.2.6ZM150.1,556h-.9v-6.3c0,0,0-.2,0-.3h.9v.7c0,0,.2-.2.3-.3.1-.1.3-.2.5-.3.2,0,.5-.1.8-.1.5,0,.9.1,1.2.3.3.2.5.5.7.9.2.4.2.8.2,1.2s0,.8-.2,1.1c-.1.3-.3.6-.6.8-.2.2-.5.3-.8.4-.3,0-.6.1-.8.1s-.6,0-.8-.1c-.2,0-.4-.1-.5-.2v2.2ZM150.1,551.8v1.2c.1,0,.3.2.5.2s.4.1.8.1.6,0,.8-.2c.2-.1.4-.3.5-.6.1-.3.2-.5.2-.8s0-.6-.1-.8c0-.3-.2-.5-.4-.6s-.5-.2-.8-.2-.6,0-.8.3c-.2.2-.4.4-.5.8,0,.1,0,.2,0,.3,0,.1,0,.2,0,.4ZM155.1,552.5v-2.4h-.8v-.8h.8v-1.5h.9v1.5h1.4v.8h-1.4v2.3c0,.4,0,.6.2.8.1.1.3.2.5.2s.3,0,.4,0c.1,0,.2-.1.3-.2l.4.5c-.2.2-.4.3-.6.4-.2,0-.4.1-.7.1-.5,0-.8-.1-1.1-.4-.2-.3-.4-.7-.4-1.2ZM160.2,554v-.7c0-.4,0-.7.2-.9.2-.3.4-.5.6-.8.3-.3.6-.5.8-.7.3-.2.5-.4.7-.6.2-.2.3-.3.5-.5.1-.2.2-.4.2-.6s0-.3-.1-.4c0-.1-.2-.3-.3-.4-.2,0-.4-.1-.6-.1s-.4,0-.6.1c-.2,0-.3.2-.4.3-.1.1-.2.2-.3.3l-.7-.5c0-.2.2-.3.4-.5.2-.2.4-.3.7-.4.3-.1.6-.2,1-.2s.8,0,1.1.2c.3.2.5.4.6.6s.2.5.2.8,0,.6-.2.8c-.1.3-.3.5-.5.7-.2.2-.4.4-.7.6-.4.3-.8.6-1.1.9-.3.3-.4.6-.4.9h3v.8h-4ZM167.6,554.1c-.5,0-1-.1-1.3-.4-.4-.3-.6-.7-.8-1.2-.2-.5-.3-1.1-.3-1.8s0-1.2.3-1.7c.2-.5.5-.9.8-1.1.4-.3.8-.4,1.3-.4s1,.1,1.3.4c.4.3.6.6.8,1.1.2.5.3,1.1.3,1.7s0,1.3-.3,1.8c-.2.5-.5.9-.8,1.2-.4.3-.8.4-1.3.4ZM167.6,553.3c.3,0,.6-.1.8-.3s.4-.5.5-.9c.1-.4.2-.8.2-1.3,0-.7-.1-1.3-.4-1.8-.3-.4-.6-.7-1.1-.7s-.8.2-1.1.7c-.2.4-.4,1-.4,1.8s0,.9.2,1.3c.1.4.3.7.5.9s.5.3.8.3ZM170.9,554v-.7c0-.4,0-.7.2-.9.2-.3.4-.5.6-.8.3-.3.6-.5.8-.7.3-.2.5-.4.7-.6.2-.2.3-.3.4-.5.1-.2.2-.4.2-.6s0-.3-.1-.4c0-.1-.2-.3-.3-.4-.2,0-.4-.1-.6-.1s-.4,0-.6.1c-.2,0-.3.2-.4.3-.1.1-.2.2-.3.3l-.7-.5c0-.2.2-.3.4-.5.2-.2.4-.3.7-.4.3-.1.6-.2,1-.2s.8,0,1.1.2c.3.2.5.4.7.6s.2.5.2.8,0,.6-.2.8c-.1.3-.3.5-.5.7-.2.2-.4.4-.7.6-.4.3-.8.6-1.1.9-.3.3-.4.6-.4.9h3v.8h-4ZM176,553.5l.5-.7c.2.1.4.3.6.4.2.1.5.2.8.2.5,0,.8-.1,1-.4.2-.3.4-.6.4-.9s0-.4-.1-.5c0-.2-.2-.4-.4-.5-.2-.1-.5-.2-.8-.2s-.5,0-.7,0c-.2,0-.3.1-.4.2l-.5-.3.6-3h3.1v.8h-2.5l-.3,1.7c0,0,.2,0,.3-.1.1,0,.3,0,.5,0,.6,0,1.1.2,1.5.5.4.3.6.8.6,1.5s0,.7-.2,1.1c-.2.3-.4.6-.8.8-.3.2-.8.3-1.4.3s-.8,0-1.1-.2c-.3-.1-.6-.3-.8-.5ZM181.6,554v-1.1h1.1v1.1h-1.1ZM189.3,551.4v-.8h2.3v2.7c-.2.2-.6.4-1,.6-.4.2-1,.3-1.6.3s-1.3-.1-1.8-.4c-.5-.3-.9-.7-1.2-1.2-.3-.5-.4-1.1-.4-1.8s0-.9.2-1.4c.2-.4.4-.8.7-1.1.3-.3.7-.6,1.1-.8.4-.2.9-.3,1.4-.3s.9,0,1.2.2c.3.1.6.3.9.5.2.2.4.4.5.6l-.7.6c-.1-.2-.2-.3-.4-.5-.2-.2-.4-.3-.6-.4-.2-.1-.5-.2-.9-.2-.5,0-.9.1-1.3.4-.4.2-.6.6-.8,1-.2.4-.3.8-.3,1.3s.1,1,.3,1.4c.2.4.5.7.9.9.4.2.8.3,1.2.3s.7,0,1-.1c.3,0,.5-.2.7-.4v-1.4h-1.4ZM196.5,552.8l.5.5c0,0-.2.2-.4.3-.2.1-.4.2-.7.3-.3.1-.6.2-1,.2s-.9-.1-1.3-.3c-.4-.2-.7-.5-.9-.9-.2-.4-.3-.8-.3-1.3s0-.9.3-1.2c.2-.4.5-.7.8-.9.4-.2.8-.3,1.2-.3s1,.1,1.3.4c.3.3.6.6.7,1,.2.4.2.9.2,1.3h-3.7c0,.3,0,.5.2.7.1.2.3.4.5.5.2.1.5.2.8.2.4,0,.7,0,1-.2.3-.1.4-.3.6-.4ZM193.5,551.3h2.7c0-.4-.2-.7-.4-.9-.2-.3-.5-.4-1-.4s-.5,0-.7.2c-.2.1-.4.3-.5.5-.1.2-.2.4-.2.6ZM199,554h-.9v-4.3c0,0,0-.2,0-.3h.9v.7c.1-.1.2-.2.4-.3.1-.1.3-.2.5-.3.2,0,.5-.1.7-.1.6,0,1.1.2,1.3.5.3.4.4.8.4,1.4v2.8h-.9v-2.7c0-.4,0-.8-.3-1-.2-.2-.4-.3-.8-.3s-.6,0-.8.3c-.2.2-.3.4-.4.7,0,.3-.1.6-.1.9v2.2ZM207.1,552.8l.5.5c0,0-.2.2-.4.3-.2.1-.4.2-.7.3-.3.1-.6.2-1,.2s-.9-.1-1.3-.3c-.4-.2-.7-.5-.9-.9-.2-.4-.3-.8-.3-1.3s0-.9.3-1.2c.2-.4.5-.7.8-.9.4-.2.8-.3,1.2-.3s1,.1,1.3.4c.3.3.6.6.7,1,.2.4.2.9.2,1.3h-3.7c0,.3,0,.5.2.7.1.2.3.4.6.5.2.1.5.2.8.2.4,0,.7,0,1-.2.3-.1.4-.3.6-.4ZM204.1,551.3h2.7c0-.4-.2-.7-.4-.9-.2-.3-.5-.4-1-.4s-.5,0-.7.2c-.2.1-.4.3-.5.5-.1.2-.2.4-.2.6ZM209.6,554h-.9v-4.4c0,0,0-.2,0-.3h.9v.8c.1-.1.2-.2.3-.3.1-.1.3-.2.5-.3.2,0,.4-.1.7-.1s.2,0,.3,0c0,0,.2,0,.2,0l-.2.8c-.1,0-.3,0-.5,0s-.5,0-.7.2c-.2.1-.4.3-.5.5-.1.2-.2.4-.2.7v2.5ZM215,554v-.6c-.2.2-.4.4-.7.5-.3.1-.6.2-.9.2s-.5,0-.8-.1c-.2,0-.5-.2-.6-.5-.2-.2-.2-.5-.2-.9,0-.5.2-.9.5-1.2.4-.3.9-.4,1.5-.4s.3,0,.4,0c.2,0,.3,0,.4,0,.1,0,.2,0,.2,0v-.2c0-.3-.1-.6-.3-.7-.2-.2-.5-.2-.9-.2s-.6,0-.8.1c-.2,0-.4.2-.5.3l-.4-.6c.2-.1.4-.3.7-.4.3-.1.7-.2,1.2-.2s1.1.1,1.4.4c.3.3.5.7.5,1.2v2.9c0,0,0,.1,0,.2h-.8ZM215,552.3v-.5s-.1,0-.2,0c-.1,0-.3,0-.4,0-.1,0-.3,0-.4,0-.3,0-.6,0-.8.2-.2,0-.3.2-.4.4,0,.1,0,.3,0,.4,0,.2,0,.4.3.6.2.1.4.2.7.2s.4,0,.6-.1c.2-.1.4-.2.5-.4.1-.2.2-.3.2-.5ZM217,554v-6.7h.9v6.7h-.9ZM223.6,554v-.6c-.2.2-.4.4-.7.5-.3.1-.6.2-.9.2s-.5,0-.8-.1c-.2,0-.5-.2-.6-.5-.2-.2-.2-.5-.2-.9,0-.5.2-.9.5-1.2.4-.3.9-.4,1.5-.4s.3,0,.4,0c.2,0,.3,0,.4,0,.1,0,.2,0,.2,0v-.2c0-.3-.1-.6-.3-.7-.2-.2-.5-.2-.8-.2s-.6,0-.8.1c-.2,0-.4.2-.5.3l-.4-.6c.2-.1.4-.3.7-.4.3-.1.7-.2,1.2-.2s1.1.1,1.4.4c.3.3.5.7.5,1.2v2.9c0,0,0,.1,0,.2h-.8ZM223.6,552.3v-.5s-.1,0-.2,0c-.1,0-.3,0-.4,0-.1,0-.3,0-.4,0-.3,0-.6,0-.8.2-.2,0-.3.2-.4.4,0,.1,0,.3,0,.4,0,.2,0,.4.3.6.2.1.4.2.7.2s.4,0,.6-.1c.2-.1.4-.2.5-.4.1-.2.2-.3.2-.5ZM229,554v-.6c0,0-.2.1-.3.3-.1.1-.3.2-.5.3-.2,0-.5.1-.8.1s-.7,0-1.1-.3c-.3-.2-.6-.5-.7-.8-.2-.4-.3-.8-.3-1.3s0-.8.2-1.1c.2-.3.4-.6.6-.8.2-.2.5-.3.8-.4.3-.1.5-.2.8-.2s.5,0,.7,0c.2,0,.4.1.6.2v-2.2h.9v6.4c0,0,0,.2,0,.3h-.9ZM228.9,552v-1.7c-.1,0-.3-.2-.5-.2-.2,0-.4,0-.7,0-.4,0-.8.2-1.1.5-.3.3-.4.7-.4,1.3s0,.6.1.8c.1.2.2.4.4.6.2.1.5.2.8.2s.6,0,.8-.2c.2-.1.3-.3.4-.5,0-.2.1-.4.1-.6ZM232.4,554l-2-4.7h1l1.4,3.6,1.4-3.6h1l-2,4.7h-.9ZM235.9,548.5v-1h1v1h-1ZM235.9,554v-4.7h.9v4.7h-.9ZM241.5,552.8l.5.6c-.2.2-.5.4-.8.6-.3.1-.7.2-1.1.2s-.9-.1-1.3-.3c-.4-.2-.6-.5-.8-.9-.2-.4-.3-.8-.3-1.3s.1-.9.3-1.2c.2-.4.5-.7.9-.9.4-.2.8-.3,1.3-.3s.7,0,1,.2c.3.1.6.3.8.6l-.6.6c-.1-.2-.3-.3-.5-.4-.2-.1-.4-.2-.7-.2s-.6,0-.8.2c-.2.2-.4.4-.5.6-.1.3-.2.5-.2.8s0,.6.2.8c.1.3.3.5.5.6.2.2.5.2.8.2s.5,0,.7-.1c.2-.1.4-.2.5-.4ZM246.3,552.8l.5.5c0,0-.2.2-.4.3-.2.1-.4.2-.7.3-.3.1-.6.2-1,.2s-.9-.1-1.3-.3c-.4-.2-.7-.5-.9-.9-.2-.4-.3-.8-.3-1.3s0-.9.3-1.2c.2-.4.5-.7.8-.9.4-.2.8-.3,1.2-.3s1,.1,1.3.4c.3.3.6.6.7,1,.2.4.2.9.2,1.3h-3.7c0,.3,0,.5.2.7.1.2.3.4.6.5.2.1.5.2.8.2.4,0,.7,0,1-.2.3-.1.4-.3.6-.4ZM243.3,551.3h2.7c0-.4-.2-.7-.4-.9-.2-.3-.5-.4-1-.4s-.5,0-.7.2c-.2.1-.4.3-.5.5-.1.2-.2.4-.2.6ZM251.8,554.1c-.5,0-.9-.1-1.3-.3-.4-.2-.7-.5-.9-.9-.2-.4-.3-.8-.3-1.2s.1-.9.3-1.2c.2-.4.5-.7.9-.9.4-.2.8-.3,1.3-.3s.9.1,1.3.3c.4.2.7.5.9.9.2.4.3.8.3,1.2s-.1.9-.3,1.2c-.2.4-.5.7-.9.9-.4.2-.8.3-1.3.3ZM251.8,553.4c.3,0,.6,0,.8-.2.2-.2.4-.4.5-.6.1-.3.2-.5.2-.8s0-.5-.2-.8c-.1-.3-.3-.5-.5-.6-.2-.2-.5-.2-.8-.2s-.6,0-.8.2c-.2.2-.4.4-.5.6-.1.3-.2.5-.2.8s0,.5.2.8c.1.3.3.5.5.6.2.2.5.2.8.2ZM256.1,554h-.9v-4.3c0,0,0-.2,0-.3h.9v.7c.1-.1.2-.2.3-.3.1-.1.3-.2.5-.3.2,0,.5-.1.7-.1.6,0,1.1.2,1.3.5.3.4.4.8.4,1.4v2.8h-.9v-2.7c0-.4,0-.8-.3-1-.2-.2-.4-.3-.8-.3s-.6,0-.8.3c-.2.2-.3.4-.4.7,0,.3-.1.6-.1.9v2.2ZM260.5,554v-6.7h.9v6.7h-.9ZM262.1,555.8l.4-.6c0,0,.1.1.2.2,0,0,.2,0,.3,0,.2,0,.4,0,.5-.3.1-.2.2-.5.4-.8v-.3c.1,0-2-4.6-2-4.6h1l1.5,3.5,1.3-3.5h1l-1.9,4.5c0,.2-.2.4-.3.7,0,.3-.2.5-.3.7-.1.2-.3.4-.5.6-.2.2-.4.2-.7.2s-.4,0-.6,0c-.2,0-.3-.1-.4-.2ZM266.7,554v-1.1h1.1v1.1h-1.1ZM23.4,561.3l.7.6c-.1.2-.3.3-.5.5-.2.2-.5.4-.9.5-.4.2-.8.2-1.2.2s-1.2-.1-1.7-.4c-.5-.3-.9-.7-1.2-1.2-.3-.5-.4-1.1-.4-1.8s0-.9.2-1.4c.2-.4.4-.8.7-1.1.3-.3.7-.6,1.1-.8.4-.2.9-.3,1.4-.3s.9,0,1.2.2c.3.1.6.3.8.5.2.2.4.4.5.6l-.7.6c-.1-.2-.2-.3-.4-.5-.2-.2-.4-.3-.6-.4-.2-.1-.5-.2-.9-.2s-.9.1-1.3.4c-.3.2-.6.6-.8,1-.2.4-.3.8-.3,1.3s0,.9.3,1.3c.2.4.5.7.8.9.3.2.8.3,1.2.3s.7,0,1-.2c.3-.1.5-.3.6-.4.2-.2.3-.3.4-.4ZM26.9,563.1c-.5,0-.9-.1-1.3-.3-.4-.2-.7-.5-.9-.9-.2-.4-.3-.8-.3-1.2s.1-.9.3-1.2c.2-.4.5-.7.9-.9.4-.2.8-.3,1.3-.3s.9.1,1.3.3c.4.2.7.5.9.9.2.4.3.8.3,1.2s-.1.9-.3,1.2c-.2.4-.5.7-.9.9-.4.2-.8.3-1.3.3ZM26.9,562.4c.3,0,.6,0,.8-.2.2-.2.4-.4.5-.6.1-.3.2-.5.2-.8s0-.5-.2-.8c-.1-.3-.3-.5-.5-.6-.2-.2-.5-.2-.8-.2s-.6,0-.8.2c-.2.2-.4.4-.5.6-.1.3-.2.5-.2.8s0,.5.2.8c.1.3.3.5.5.6.2.2.5.2.8.2ZM31.2,563h-.9v-4.3c0,0,0-.2,0-.3h.9v.7c.1-.1.2-.2.4-.3.1-.1.3-.2.5-.3.2,0,.5-.1.7-.1.6,0,1.1.2,1.3.5.3.4.4.8.4,1.4v2.8h-.9v-2.7c0-.4,0-.8-.3-1-.2-.2-.4-.3-.8-.3s-.6,0-.8.3c-.2.2-.3.4-.4.7,0,.3-.1.6-.1.9v2.2ZM35.4,562.4l.5-.6c.2.2.4.3.6.4.2.1.5.2.8.2s.6,0,.8-.1c.2,0,.3-.3.3-.5s0-.3-.1-.4c0,0-.2-.2-.4-.2-.2,0-.5-.2-.8-.2-.2,0-.5-.1-.7-.2-.2-.1-.4-.2-.6-.4-.1-.2-.2-.4-.2-.7s0-.6.3-.8c.2-.2.4-.4.7-.5.3-.1.6-.2.9-.2s.7,0,1,.2c.3.1.5.2.7.4l-.5.6c-.1-.1-.3-.2-.5-.3-.2,0-.5-.1-.7-.1s-.5,0-.7.1c-.2,0-.3.2-.3.5s.1.3.3.5c.2,0,.5.2.9.3.3,0,.6.2.8.3.2.1.4.3.6.4.1.2.2.4.2.7s0,.6-.3.8c-.2.2-.4.4-.7.5-.3.1-.6.2-1,.2-.9,0-1.5-.2-2-.7ZM40.3,557.5v-1h1v1h-1ZM40.3,563v-4.7h.9v4.7h-.9ZM45.8,563v-.6c0,0-.2.1-.3.3-.1.1-.3.2-.5.3-.2,0-.5.1-.8.1s-.7,0-1.1-.3c-.3-.2-.6-.5-.7-.8s-.3-.8-.3-1.3,0-.8.2-1.1c.2-.3.3-.6.6-.8.2-.2.5-.3.8-.4.3-.1.5-.2.8-.2s.5,0,.7,0c.2,0,.4.1.6.2v-2.2h.9v6.4c0,0,0,.2,0,.3h-.9ZM45.7,561v-1.7c-.1,0-.3-.2-.5-.2s-.4,0-.7,0c-.4,0-.8.2-1.1.5-.3.3-.4.7-.4,1.3s0,.6.1.8c.1.2.2.4.5.6.2.1.5.2.8.2s.6,0,.8-.2c.2-.1.3-.3.4-.5,0-.2.1-.4.1-.6ZM51.5,561.8l.5.5c0,0-.2.2-.4.3-.2.1-.4.2-.7.3-.3.1-.6.2-1,.2s-.9-.1-1.3-.3c-.4-.2-.7-.5-.9-.9-.2-.4-.3-.8-.3-1.3s0-.9.3-1.2c.2-.4.5-.7.8-.9.4-.2.8-.3,1.2-.3s1,.1,1.3.4c.3.3.6.6.7,1,.2.4.2.9.2,1.3h-3.7c0,.3,0,.5.2.7.1.2.3.4.5.5.2.1.5.2.8.2.4,0,.7,0,1-.2.3-.1.4-.3.5-.4ZM48.5,560.3h2.7c0-.4-.2-.7-.4-.9-.2-.3-.5-.4-1-.4s-.5,0-.7.2c-.2.1-.4.3-.5.5-.1.2-.2.4-.2.6ZM54,563h-.9v-4.4c0,0,0-.2,0-.3h.9v.8c.1-.1.2-.2.3-.3.1-.1.3-.2.5-.3.2,0,.4-.1.7-.1s.2,0,.3,0c0,0,.2,0,.2,0l-.2.8c-.1,0-.3,0-.5,0s-.5,0-.7.2c-.2.1-.4.3-.5.5-.1.2-.2.4-.2.7v2.5ZM58.7,561.5v-2.4h-.8v-.8h.8v-1.5h.9v1.5h1.4v.8h-1.4v2.3c0,.4,0,.6.2.8.1.1.3.2.5.2s.3,0,.4,0c.1,0,.2-.1.3-.2l.4.5c-.2.2-.4.3-.6.4-.2,0-.4.1-.7.1-.5,0-.8-.1-1.1-.4-.2-.3-.3-.7-.3-1.2ZM62,563v-6.7h.9v2.7c0-.1.2-.2.3-.3.1-.1.3-.2.5-.3.2,0,.5-.1.7-.1.6,0,1.1.2,1.4.5.3.4.4.8.4,1.4v2.8h-.9v-2.7c0-.4,0-.8-.3-1-.2-.2-.4-.3-.8-.3s-.6,0-.8.3c-.2.2-.3.4-.4.7,0,.3-.1.6-.1.9v2.2h-.9ZM71.1,561.8l.5.5c0,0-.2.2-.4.3-.2.1-.4.2-.7.3-.3.1-.6.2-1,.2s-.9-.1-1.3-.3c-.4-.2-.7-.5-.9-.9-.2-.4-.3-.8-.3-1.3s0-.9.3-1.2c.2-.4.5-.7.8-.9.4-.2.8-.3,1.2-.3s1,.1,1.3.4c.3.3.6.6.7,1,.2.4.2.9.2,1.3h-3.7c0,.3,0,.5.2.7.1.2.3.4.6.5.2.1.5.2.8.2.4,0,.7,0,1-.2.3-.1.4-.3.6-.4ZM68.1,560.3h2.7c0-.4-.2-.7-.4-.9-.2-.3-.5-.4-1-.4s-.5,0-.7.2c-.2.1-.4.3-.5.5-.1.2-.2.4-.2.6ZM74.5,563v-6.7h2.1c.5,0,.8,0,1.1.2.3.1.5.3.7.5.2.2.3.4.4.7,0,.2.1.5.1.7,0,.4,0,.8-.3,1.1-.2.3-.5.5-.8.7-.3.2-.7.2-1.2.2h-1.2v2.6h-.9ZM75.4,559.6h1.2c.4,0,.7-.1,1-.3.2-.2.3-.5.3-.9s-.1-.7-.3-.9c-.2-.2-.5-.3-.9-.3h-1.2v2.4ZM80,563v-6.7h2.2c.7,0,1.3.1,1.9.4.5.2,1,.6,1.3,1.1.3.5.5,1.1.5,1.9s-.2,1.4-.5,1.9c-.3.5-.7.9-1.3,1.1-.5.2-1.2.4-1.9.4h-2.2ZM81,562.1h1.2c.8,0,1.5-.2,1.9-.6.5-.4.7-1,.7-1.8s-.2-1.4-.7-1.9c-.4-.4-1.1-.7-2-.7h-1.2v5ZM86.6,562l.7-.6c.1.1.3.3.4.4.2.1.4.3.6.4.2,0,.5.1.8.1.4,0,.8,0,1-.3.2-.2.4-.5.4-.8s-.1-.6-.4-.8c-.3-.2-.7-.3-1.2-.4-.6-.1-1-.3-1.4-.6-.4-.3-.5-.7-.5-1.3s0-.6.2-.9c.2-.3.4-.5.8-.7.3-.2.7-.3,1.2-.3s.8,0,1.1.2c.3.1.5.2.7.4.2.1.3.3.3.4l-.6.6c0,0-.1-.2-.3-.3-.1-.1-.3-.2-.5-.3-.2,0-.4-.1-.7-.1s-.5,0-.7.1c-.2,0-.3.2-.4.4,0,.1-.1.3-.1.4,0,.3.1.6.4.7.3.2.7.3,1.2.4.3,0,.7.2,1,.4.3.2.5.4.7.6.2.3.3.6.3,1.1s-.1.7-.3,1c-.2.3-.5.5-.8.7-.4.2-.8.2-1.2.2s-.8,0-1.1-.2c-.3-.1-.6-.3-.8-.5-.2-.2-.4-.4-.5-.5ZM97.3,563v-.6c-.2.2-.4.4-.7.5-.3.1-.6.2-.9.2s-.5,0-.8-.1c-.2,0-.5-.2-.6-.5-.2-.2-.2-.5-.2-.9,0-.5.2-.9.5-1.2.4-.3.9-.4,1.5-.4s.3,0,.4,0c.2,0,.3,0,.4,0,.1,0,.2,0,.2,0v-.2c0-.3-.1-.6-.3-.7-.2-.2-.5-.2-.8-.2s-.6,0-.8.1c-.2,0-.4.2-.5.3l-.4-.6c.2-.1.4-.3.7-.4.3-.1.7-.2,1.2-.2s1.1.1,1.4.4c.3.3.5.7.5,1.2v2.9c0,0,0,.1,0,.2h-.8ZM97.2,561.3v-.5s-.1,0-.2,0c-.1,0-.3,0-.4,0-.1,0-.3,0-.4,0-.3,0-.6,0-.8.2-.2,0-.3.2-.4.4,0,.1,0,.3,0,.4,0,.2,0,.4.3.6.2.1.4.2.7.2s.4,0,.6-.1c.2-.1.4-.2.5-.4.1-.2.2-.3.2-.5ZM100.1,563h-.9v-4.3c0,0,0-.2,0-.3h.9v.7c.1-.1.2-.2.3-.3.1-.1.3-.2.5-.3.2,0,.5-.1.7-.1.6,0,1.1.2,1.3.5.3.4.4.8.4,1.4v2.8h-.9v-2.7c0-.4,0-.8-.3-1-.2-.2-.4-.3-.8-.3s-.6,0-.8.3c-.2.2-.3.4-.4.7,0,.3-.1.6-.1.9v2.2ZM107.9,563v-.6c0,0-.2.1-.3.3-.1.1-.3.2-.5.3-.2,0-.5.1-.8.1s-.7,0-1.1-.3c-.3-.2-.6-.5-.7-.8s-.3-.8-.3-1.3,0-.8.2-1.1c.2-.3.4-.6.6-.8s.5-.3.8-.4c.3-.1.5-.2.8-.2s.5,0,.7,0c.2,0,.4.1.6.2v-2.2h.9v6.4c0,0,0,.2,0,.3h-.9ZM107.9,561v-1.7c-.1,0-.3-.2-.5-.2-.2,0-.4,0-.7,0-.4,0-.8.2-1.1.5-.3.3-.4.7-.4,1.3s0,.6.1.8c0,.2.2.4.4.6.2.1.5.2.8.2s.6,0,.8-.2c.2-.1.3-.3.4-.5,0-.2.1-.4.1-.6ZM113.7,563v-5.8h-2.4v-.8h5.7v.8h-2.4v5.8h-1ZM117.7,563l.3-6.7h.9l2,3.5,2-3.5h.9l.3,6.7h-.9l-.2-5.1-1.9,3.2h-.5l-1.8-3.1-.2,5.1h-.9ZM125.6,563v-6.7h2.2c.7,0,1.3.1,1.9.4.5.2,1,.6,1.3,1.1.3.5.5,1.1.5,1.9s-.2,1.4-.5,1.9c-.3.5-.7.9-1.3,1.1-.5.2-1.2.4-1.9.4h-2.2ZM126.5,562.1h1.2c.8,0,1.5-.2,1.9-.6.5-.4.7-1,.7-1.8s-.2-1.4-.7-1.9c-.4-.4-1.1-.7-2-.7h-1.2v5ZM137.1,563v-.6c-.2.2-.4.4-.7.5-.3.1-.6.2-.9.2s-.5,0-.8-.1c-.2,0-.5-.2-.6-.5-.2-.2-.2-.5-.2-.9,0-.5.2-.9.5-1.2.4-.3.9-.4,1.5-.4s.3,0,.4,0c.2,0,.3,0,.4,0,.1,0,.2,0,.2,0v-.2c0-.3-.1-.6-.3-.7-.2-.2-.5-.2-.9-.2s-.6,0-.8.1c-.2,0-.4.2-.5.3l-.4-.6c.2-.1.4-.3.7-.4.3-.1.7-.2,1.2-.2s1.1.1,1.4.4c.3.3.5.7.5,1.2v2.9c0,0,0,.1,0,.2h-.8ZM137.1,561.3v-.5s-.1,0-.2,0c-.1,0-.3,0-.4,0-.1,0-.3,0-.4,0-.3,0-.6,0-.8.2-.2,0-.3.2-.4.4,0,.1,0,.3,0,.4,0,.2,0,.4.3.6.2.1.4.2.7.2s.4,0,.6-.1c.2-.1.4-.2.5-.4.1-.2.2-.3.2-.5ZM139.4,561.5v-2.4h-.8v-.8h.8v-1.5h.9v1.5h1.4v.8h-1.4v2.3c0,.4,0,.6.2.8.1.1.3.2.5.2s.3,0,.4,0c.1,0,.2-.1.3-.2l.4.5c-.2.2-.4.3-.6.4-.2,0-.4.1-.7.1-.5,0-.8-.1-1.1-.4-.2-.3-.4-.7-.4-1.2ZM144.5,563v-6.7h.9v2.7c0-.1.2-.2.3-.3.1-.1.3-.2.5-.3.2,0,.5-.1.7-.1.6,0,1.1.2,1.4.5.3.4.4.8.4,1.4v2.8h-.9v-2.7c0-.4,0-.8-.3-1-.2-.2-.4-.3-.8-.3s-.6,0-.8.3c-.2.2-.3.4-.4.7,0,.3-.1.6-.1.9v2.2h-.9ZM152.1,563.1c-.5,0-.9-.1-1.3-.3-.4-.2-.7-.5-.9-.9-.2-.4-.3-.8-.3-1.2s.1-.9.3-1.2c.2-.4.5-.7.9-.9.4-.2.8-.3,1.3-.3s.9.1,1.3.3c.4.2.7.5.9.9.2.4.3.8.3,1.2s-.1.9-.3,1.2c-.2.4-.5.7-.9.9-.4.2-.8.3-1.3.3ZM152.1,562.4c.3,0,.6,0,.8-.2.2-.2.4-.4.5-.6.1-.3.2-.5.2-.8s0-.5-.2-.8c-.1-.3-.3-.5-.5-.6-.2-.2-.5-.2-.8-.2s-.6,0-.8.2c-.2.2-.4.4-.5.6-.1.3-.2.5-.2.8s0,.5.2.8c.1.3.3.5.5.6.2.2.5.2.8.2ZM155.2,562.4l.6-.6c.2.2.4.3.6.4.2.1.5.2.8.2s.6,0,.8-.1c.2,0,.3-.3.3-.5s0-.3-.1-.4c0,0-.2-.2-.4-.2-.2,0-.5-.2-.8-.2-.2,0-.5-.1-.7-.2-.2-.1-.4-.2-.6-.4-.1-.2-.2-.4-.2-.7s0-.6.3-.8c.2-.2.4-.4.7-.5.3-.1.6-.2.9-.2s.7,0,1,.2c.3.1.5.2.7.4l-.5.6c-.1-.1-.3-.2-.5-.3-.2,0-.4-.1-.7-.1s-.5,0-.7.1c-.2,0-.3.2-.3.5s.1.3.4.5c.2,0,.5.2.9.3.3,0,.6.2.8.3.2.1.4.3.6.4.1.2.2.4.2.7s0,.6-.3.8c-.2.2-.4.4-.7.5-.3.1-.6.2-.9.2-.9,0-1.5-.2-2-.7ZM160.5,561.5v-2.4h-.8v-.8h.8v-1.5h.9v1.5h1.4v.8h-1.4v2.3c0,.4,0,.6.2.8.1.1.3.2.5.2s.3,0,.4,0c.1,0,.2-.1.3-.2l.4.5c-.2.2-.4.3-.6.4-.2,0-.4.1-.7.1-.5,0-.8-.1-1.1-.4-.2-.3-.3-.7-.3-1.2ZM164.7,565h-.9v-6.3c0,0,0-.2,0-.3h.9v.7c0,0,.2-.2.3-.3.1-.1.3-.2.5-.3.2,0,.5-.1.8-.1.5,0,.9.1,1.2.3.3.2.5.5.7.9.2.4.2.8.2,1.2s0,.8-.2,1.1c-.1.3-.3.6-.6.8-.2.2-.5.3-.8.4-.3,0-.6.1-.8.1s-.6,0-.8-.1c-.2,0-.4-.1-.5-.2v2.2ZM164.7,560.8v1.2c.1,0,.3.2.5.2.2,0,.4.1.8.1s.6,0,.8-.2c.2-.1.4-.3.5-.6.1-.3.2-.5.2-.8s0-.6-.1-.8c0-.3-.2-.5-.4-.6-.2-.2-.5-.2-.8-.2s-.6,0-.8.3c-.2.2-.4.4-.5.8,0,.1,0,.2,0,.3,0,.1,0,.2,0,.4ZM169.3,563v-6.7h.9v6.7h-.9ZM171.3,561.1v-2.8h.9v2.7c0,.4,0,.8.3,1,.2.2.4.3.8.3s.6,0,.8-.3c.2-.2.3-.4.4-.7,0-.3.1-.6.1-.9v-2.2h.9v4.4c0,0,0,.2,0,.3h-.9v-.7c-.1.1-.2.2-.3.3-.1.1-.3.2-.5.3-.2,0-.4.1-.7.1-.6,0-1.1-.2-1.3-.5-.3-.4-.4-.8-.4-1.4ZM176.4,562.4l.6-.6c.2.2.4.3.6.4.2.1.5.2.8.2s.6,0,.8-.1c.2,0,.3-.3.3-.5s0-.3-.1-.4c0,0-.2-.2-.4-.2-.2,0-.5-.2-.8-.2-.2,0-.5-.1-.7-.2-.2-.1-.4-.2-.6-.4-.1-.2-.2-.4-.2-.7s0-.6.3-.8c.2-.2.4-.4.7-.5.3-.1.6-.2.9-.2s.7,0,1,.2c.3.1.5.2.7.4l-.5.6c-.1-.1-.3-.2-.5-.3-.2,0-.5-.1-.7-.1s-.5,0-.7.1c-.2,0-.3.2-.3.5s.1.3.4.5c.2,0,.5.2.9.3.3,0,.6.2.8.3.2.1.4.3.6.4.1.2.2.4.2.7s0,.6-.3.8c-.2.2-.4.4-.7.5-.3.1-.6.2-.9.2-.9,0-1.5-.2-2-.7ZM181.1,563v-1.1h1.1v1.1h-1.1ZM186.6,561.8l.6.6c-.2.2-.5.4-.8.6-.3.1-.7.2-1.1.2s-.9-.1-1.3-.3c-.4-.2-.6-.5-.8-.9-.2-.4-.3-.8-.3-1.3s.1-.9.3-1.2c.2-.4.5-.7.9-.9.4-.2.8-.3,1.3-.3s.7,0,1,.2c.3.1.6.3.8.6l-.6.6c-.1-.2-.3-.3-.5-.4-.2-.1-.4-.2-.7-.2s-.6,0-.8.2c-.2.2-.4.4-.5.6-.1.3-.2.5-.2.8s0,.6.2.8c.1.3.3.5.5.6.2.2.5.2.8.2s.5,0,.7-.1c.2-.1.4-.2.5-.4ZM189.9,563.1c-.5,0-.9-.1-1.3-.3-.4-.2-.7-.5-.9-.9-.2-.4-.3-.8-.3-1.2s.1-.9.3-1.2c.2-.4.5-.7.9-.9.4-.2.8-.3,1.3-.3s.9.1,1.3.3c.4.2.7.5.9.9.2.4.3.8.3,1.2s-.1.9-.3,1.2c-.2.4-.5.7-.9.9-.4.2-.8.3-1.3.3ZM189.9,562.4c.3,0,.6,0,.8-.2.2-.2.4-.4.5-.6.1-.3.2-.5.2-.8s0-.5-.2-.8c-.1-.3-.3-.5-.5-.6-.2-.2-.5-.2-.8-.2s-.6,0-.8.2c-.2.2-.4.4-.5.6-.1.3-.2.5-.2.8s0,.5.2.8c.1.3.3.5.5.6.2.2.5.2.8.2ZM194.1,563h-.9v-4.3c0,0,0-.2,0-.3h.9v.7c.1-.1.2-.2.3-.3.1-.1.3-.2.5-.3.2,0,.4-.1.7-.1s.7,0,.9.2c.2.1.4.3.6.6.2-.2.4-.4.7-.6.3-.2.6-.3,1-.3.6,0,1,.2,1.3.5.3.4.4.8.4,1.4v2.8h-.9v-2.7c0-.8-.3-1.3-1-1.3s-.5,0-.7.2c-.2.1-.3.3-.5.5-.1.2-.2.4-.2.7v2.6h-.9v-2.7c0-.4,0-.8-.3-1-.2-.2-.4-.3-.7-.3s-.6,0-.8.3c-.2.2-.3.4-.4.7,0,.3-.1.6-.1.9v2.2ZM201.7,563v-1.1h1.1v1.1h-1.1ZM207,563v-.6c-.2.2-.4.4-.7.5-.3.1-.6.2-.9.2s-.5,0-.8-.1c-.2,0-.5-.2-.6-.5-.2-.2-.2-.5-.2-.9,0-.5.2-.9.5-1.2.4-.3.9-.4,1.5-.4s.3,0,.4,0c.2,0,.3,0,.4,0,.1,0,.2,0,.2,0v-.2c0-.3-.1-.6-.3-.7-.2-.2-.5-.2-.9-.2s-.6,0-.8.1c-.2,0-.4.2-.5.3l-.4-.6c.2-.1.4-.3.7-.4.3-.1.7-.2,1.2-.2s1.1.1,1.4.4c.3.3.5.7.5,1.2v2.9c0,0,0,.1,0,.2h-.8ZM207,561.3v-.5s-.1,0-.2,0c-.1,0-.3,0-.4,0-.1,0-.3,0-.4,0-.3,0-.6,0-.8.2-.2,0-.3.2-.4.4,0,.1,0,.3,0,.4,0,.2,0,.4.3.6.2.1.4.2.7.2s.4,0,.6-.1c.2-.1.4-.2.5-.4.1-.2.2-.3.2-.5ZM208.9,561.1v-2.8h.9v2.7c0,.4,0,.8.3,1,.2.2.4.3.8.3s.6,0,.8-.3c.2-.2.3-.4.4-.7,0-.3.1-.6.1-.9v-2.2h.9v4.4c0,0,0,.2,0,.3h-.9v-.7c-.1.1-.2.2-.3.3-.1.1-.3.2-.5.3-.2,0-.4.1-.7.1-.6,0-1.1-.2-1.3-.5-.3-.4-.4-.8-.4-1.4ZM216,562.8v-6.5h.9v2.5c0-.1.3-.3.5-.4.2-.1.6-.2.9-.2s.8.1,1.2.3c.3.2.6.5.7.9.2.4.2.8.2,1.2s-.1.9-.3,1.3c-.2.4-.5.7-.9.9-.4.2-.8.3-1.4.3s-.7,0-1.1,0-.6-.1-.8-.2ZM216.9,560.4v1.8c0,0,.2,0,.3,0,.1,0,.3,0,.6,0,.5,0,.9-.2,1.2-.5.3-.3.5-.7.5-1.2s0-.6-.1-.8c0-.2-.2-.4-.4-.6-.2-.2-.4-.2-.8-.2s-.5,0-.7.2c-.2.1-.3.3-.4.5,0,.2-.1.4-.1.7ZM225.1,561.8l.5.5c0,0-.2.2-.4.3-.2.1-.4.2-.7.3-.3.1-.6.2-1,.2s-.9-.1-1.3-.3c-.4-.2-.7-.5-.9-.9-.2-.4-.3-.8-.3-1.3s0-.9.3-1.2c.2-.4.5-.7.8-.9.4-.2.8-.3,1.2-.3s1,.1,1.3.4c.3.3.6.6.7,1,.2.4.2.9.2,1.3h-3.7c0,.3,0,.5.2.7.1.2.3.4.6.5.2.1.5.2.8.2.4,0,.7,0,1-.2.3-.1.4-.3.6-.4ZM222.1,560.3h2.7c0-.4-.2-.7-.4-.9-.2-.3-.5-.4-1-.4s-.5,0-.7.2c-.2.1-.4.3-.5.5-.1.2-.2.4-.2.6ZM227,563v-3.9h-.8v-.8h.8v-.4c0-.4,0-.8.2-1,.2-.3.4-.5.6-.6.2-.1.5-.2.8-.2s.5,0,.7.1c.2,0,.5.2.7.4l-.4.6c-.2-.2-.5-.3-.8-.3s-.5,0-.6.2c-.2.2-.2.5-.2.9v.3h1.3v.8h-1.3v3.9h-.9ZM231.9,563.1c-.5,0-.9-.1-1.3-.3-.4-.2-.7-.5-.9-.9-.2-.4-.3-.8-.3-1.2s.1-.9.3-1.2c.2-.4.5-.7.9-.9.4-.2.8-.3,1.3-.3s.9.1,1.3.3c.4.2.7.5.9.9.2.4.3.8.3,1.2s-.1.9-.3,1.2c-.2.4-.5.7-.9.9-.4.2-.8.3-1.3.3ZM231.9,562.4c.3,0,.6,0,.8-.2.2-.2.4-.4.5-.6.1-.3.2-.5.2-.8s0-.5-.2-.8c-.1-.3-.3-.5-.5-.6-.2-.2-.5-.2-.8-.2s-.6,0-.8.2c-.2.2-.4.4-.5.6-.1.3-.2.5-.2.8s0,.5.2.8c.1.3.3.5.5.6.2.2.5.2.8.2ZM236.2,563h-.9v-4.4c0,0,0-.2,0-.3h.9v.8c.1-.1.2-.2.3-.3.1-.1.3-.2.5-.3.2,0,.4-.1.7-.1s.2,0,.3,0c0,0,.2,0,.2,0l-.2.8c-.1,0-.3,0-.5,0s-.5,0-.7.2c-.2.1-.4.3-.5.5-.1.2-.2.4-.2.7v2.5ZM242.3,561.8l.5.5c0,0-.2.2-.4.3-.2.1-.4.2-.7.3-.3.1-.6.2-1,.2s-.9-.1-1.3-.3c-.4-.2-.7-.5-.9-.9-.2-.4-.3-.8-.3-1.3s0-.9.3-1.2c.2-.4.5-.7.8-.9.4-.2.8-.3,1.2-.3s1,.1,1.3.4c.3.3.6.6.7,1,.2.4.2.9.2,1.3h-3.7c0,.3,0,.5.2.7.1.2.3.4.6.5.2.1.5.2.8.2.4,0,.7,0,1-.2.3-.1.4-.3.5-.4ZM239.2,560.3h2.7c0-.4-.2-.7-.4-.9-.2-.3-.5-.4-1-.4s-.5,0-.7.2c-.2.1-.4.3-.5.5-.1.2-.2.4-.2.6ZM246.4,563h-.9v-4.3c0,0,0-.2,0-.3h.9v.7c.1-.1.2-.2.3-.3.1-.1.3-.2.5-.3.2,0,.4-.1.7-.1s.7,0,.9.2c.2.1.4.3.6.6.2-.2.4-.4.7-.6.3-.2.6-.3,1-.3.6,0,1,.2,1.3.5.3.4.4.8.4,1.4v2.8h-.9v-2.7c0-.8-.3-1.3-1-1.3s-.5,0-.7.2c-.2.1-.3.3-.5.5-.1.2-.2.4-.2.7v2.6h-.9v-2.7c0-.4,0-.8-.3-1-.2-.2-.4-.3-.7-.3s-.6,0-.8.3c-.2.2-.3.4-.4.7,0,.3-.1.6-.1.9v2.2ZM256.9,563v-.6c-.2.2-.4.4-.7.5-.3.1-.6.2-.9.2s-.5,0-.8-.1c-.2,0-.5-.2-.6-.5-.2-.2-.2-.5-.2-.9,0-.5.2-.9.5-1.2.4-.3.9-.4,1.5-.4s.3,0,.4,0c.2,0,.3,0,.4,0,.1,0,.2,0,.2,0v-.2c0-.3-.1-.6-.3-.7-.2-.2-.5-.2-.9-.2s-.6,0-.8.1c-.2,0-.4.2-.5.3l-.4-.6c.2-.1.4-.3.7-.4.3-.1.7-.2,1.2-.2s1.1.1,1.4.4c.3.3.5.7.5,1.2v2.9c0,0,0,.1,0,.2h-.8ZM256.8,561.3v-.5s-.1,0-.2,0c-.1,0-.3,0-.4,0-.1,0-.3,0-.4,0-.3,0-.6,0-.8.2-.2,0-.3.2-.4.4,0,.1,0,.3,0,.4,0,.2,0,.4.3.6.2.1.4.2.7.2s.4,0,.6-.1c.2-.1.4-.2.5-.4.1-.2.2-.3.2-.5ZM258.8,563v-6.7h.9v3.9l2-1.9h1.1l-1.8,1.7,2,2.9h-1.1l-1.6-2.3-.6.6v1.7h-.9ZM263.6,557.5v-1h1v1h-1ZM263.6,563v-4.7h.9v4.7h-.9ZM266.6,563h-.9v-4.3c0,0,0-.2,0-.3h.9v.7c.1-.1.2-.2.3-.3.1-.1.3-.2.5-.3.2,0,.5-.1.7-.1.6,0,1.1.2,1.3.5.3.4.4.8.4,1.4v2.8h-.9v-2.7c0-.4,0-.8-.3-1-.2-.2-.4-.3-.8-.3s-.6,0-.8.3c-.2.2-.3.4-.4.7,0,.3-.1.6-.1.9v2.2ZM271.3,564.6l.4-.7c.2.1.3.2.6.3.2,0,.5.1.8.1s.8-.1,1-.4c.2-.2.3-.6.3-1v-.6c0,0-.1.1-.3.2-.1,0-.3.2-.5.3-.2,0-.4.1-.7.1-.5,0-.8,0-1.2-.3-.3-.2-.6-.5-.7-.8-.2-.4-.2-.8-.2-1.2s.1-.9.3-1.3c.2-.4.5-.7.9-.9.4-.2.9-.3,1.4-.3s.7,0,1.1.1c.3,0,.6.1.8.2v4.4c0,.7-.2,1.2-.6,1.6-.4.4-.9.6-1.6.6s-.9,0-1.1-.2-.5-.2-.7-.4ZM274.4,561.1v-1.9c0,0-.2,0-.3,0-.1,0-.4,0-.6,0s-.6,0-.9.2c-.3.1-.5.3-.6.6-.1.3-.2.5-.2.9s0,.5.1.8c0,.2.2.4.4.6.2.1.5.2.8.2s.5,0,.7-.2c.2-.1.3-.3.4-.4,0-.2.1-.4.1-.6ZM281.1,563v-.6c-.2.2-.4.4-.7.5-.3.1-.6.2-.9.2s-.5,0-.8-.1c-.2,0-.5-.2-.6-.5-.2-.2-.2-.5-.2-.9,0-.5.2-.9.5-1.2.4-.3.9-.4,1.5-.4s.3,0,.4,0c.2,0,.3,0,.4,0,.1,0,.2,0,.2,0v-.2c0-.3-.1-.6-.3-.7-.2-.2-.5-.2-.9-.2s-.6,0-.8.1c-.2,0-.4.2-.5.3l-.4-.6c.2-.1.4-.3.7-.4.3-.1.7-.2,1.2-.2s1.1.1,1.4.4c.3.3.5.7.5,1.2v2.9c0,0,0,.1,0,.2h-.8ZM281,561.3v-.5s-.1,0-.2,0c-.1,0-.3,0-.4,0-.1,0-.3,0-.4,0-.3,0-.6,0-.8.2-.2,0-.3.2-.4.4,0,.1,0,.3,0,.4,0,.2,0,.4.3.6.2.1.4.2.7.2s.4,0,.6-.1c.2-.1.4-.2.5-.4.1-.2.2-.3.2-.5ZM34.1,572v-.6c0,0-.2.1-.3.3-.1.1-.3.2-.5.3-.2,0-.5.1-.8.1s-.7,0-1.1-.3c-.3-.2-.6-.5-.7-.8s-.3-.8-.3-1.3,0-.8.2-1.1c.2-.3.4-.6.6-.8s.5-.3.8-.4c.3-.1.5-.2.8-.2s.5,0,.7,0c.2,0,.4.1.6.2v-2.2h.9v6.4c0,0,0,.2,0,.3h-.9ZM34.1,570v-1.7c-.1,0-.3-.2-.5-.2-.2,0-.4,0-.7,0-.4,0-.8.2-1.1.5-.3.3-.4.7-.4,1.3s0,.6.1.8c.1.2.2.4.4.6.2.1.5.2.8.2s.6,0,.8-.2c.2-.1.3-.3.4-.5,0-.2.1-.4.1-.6ZM39.9,570.8l.5.5c0,0-.2.2-.4.3-.2.1-.4.2-.7.3-.3.1-.6.2-1,.2s-.9-.1-1.3-.3c-.4-.2-.7-.5-.9-.9-.2-.4-.3-.8-.3-1.3s0-.9.3-1.2c.2-.4.5-.7.8-.9.4-.2.8-.3,1.2-.3s1,.1,1.3.4c.3.3.6.6.7,1,.2.4.2.9.2,1.3h-3.7c0,.3,0,.5.2.7.1.2.3.4.5.5.2.1.5.2.8.2.4,0,.7,0,1-.2.3-.1.4-.3.5-.4ZM36.8,569.3h2.7c0-.4-.2-.7-.4-.9-.2-.3-.5-.4-1-.4s-.5,0-.7.2c-.2.1-.4.3-.5.5-.1.2-.2.4-.2.6ZM44.9,570.8l.6.6c-.2.2-.5.4-.8.6-.3.1-.7.2-1,.2s-.9-.1-1.3-.3c-.4-.2-.6-.5-.8-.9-.2-.4-.3-.8-.3-1.3s.1-.9.3-1.2.5-.7.9-.9c.4-.2.8-.3,1.3-.3s.7,0,1,.2c.3.1.6.3.8.6l-.6.6c-.1-.2-.3-.3-.5-.4-.2-.1-.4-.2-.7-.2s-.6,0-.8.2c-.2.2-.4.4-.5.6-.1.3-.2.5-.2.8s0,.6.2.8c.1.3.3.5.5.6.2.2.5.2.8.2s.5,0,.7-.1c.2-.1.4-.2.5-.4ZM46.2,566.5v-1h1v1h-1ZM46.3,572v-4.7h.9v4.7h-.9ZM48.1,571.4l.5-.6c.2.2.4.3.6.4.2.1.5.2.8.2s.6,0,.8-.1c.2,0,.3-.3.3-.5s0-.3-.1-.4c0,0-.2-.2-.4-.2-.2,0-.5-.2-.8-.2-.2,0-.5-.1-.7-.2-.2-.1-.4-.2-.6-.4-.1-.2-.2-.4-.2-.7s0-.6.3-.8c.2-.2.4-.4.7-.5.3-.1.6-.2.9-.2s.7,0,1,.2c.3.1.5.2.7.4l-.5.6c-.1-.1-.3-.2-.5-.3-.2,0-.5-.1-.7-.1s-.5,0-.7.1c-.2,0-.3.2-.3.5s.1.3.4.5c.2,0,.5.2.9.3.3,0,.6.2.8.3.2.1.4.3.6.4.1.2.2.4.2.7s0,.6-.3.8c-.2.2-.4.4-.7.5-.3.1-.6.2-1,.2-.9,0-1.5-.2-2-.7ZM52.9,566.5v-1h1v1h-1ZM53,572v-4.7h.9v4.7h-.9ZM57.3,572.1c-.5,0-.9-.1-1.3-.3-.4-.2-.7-.5-.9-.9-.2-.4-.3-.8-.3-1.2s.1-.9.3-1.2c.2-.4.5-.7.9-.9.4-.2.8-.3,1.3-.3s.9.1,1.3.3c.4.2.7.5.9.9.2.4.3.8.3,1.2s-.1.9-.3,1.2c-.2.4-.5.7-.9.9-.4.2-.8.3-1.3.3ZM57.3,571.4c.3,0,.6,0,.8-.2.2-.2.4-.4.5-.6.1-.3.2-.5.2-.8s0-.5-.2-.8c-.1-.3-.3-.5-.5-.6-.2-.2-.5-.2-.8-.2s-.6,0-.8.2c-.2.2-.4.4-.5.6-.1.3-.2.5-.2.8s0,.5.2.8c.1.3.3.5.5.6.2.2.5.2.8.2ZM61.6,572h-.9v-4.3c0,0,0-.2,0-.3h.9v.7c.1-.1.2-.2.3-.3.1-.1.3-.2.5-.3.2,0,.5-.1.7-.1.6,0,1.1.2,1.3.5.3.4.4.8.4,1.4v2.8h-.9v-2.7c0-.4,0-.8-.3-1-.2-.2-.4-.3-.8-.3s-.6,0-.8.3c-.2.2-.3.4-.4.7,0,.3-.1.6-.1.9v2.2ZM70.7,572v-.6c-.2.2-.4.4-.7.5-.3.1-.6.2-.9.2s-.5,0-.8-.1c-.2,0-.5-.2-.6-.5-.2-.2-.2-.5-.2-.9,0-.5.2-.9.5-1.2.4-.3.9-.4,1.5-.4s.3,0,.4,0c.2,0,.3,0,.4,0,.1,0,.2,0,.2,0v-.2c0-.3-.1-.6-.3-.7-.2-.2-.5-.2-.8-.2s-.6,0-.8.1c-.2,0-.4.2-.5.3l-.4-.6c.2-.1.4-.3.7-.4.3-.1.7-.2,1.2-.2s1.1.1,1.4.4c.3.3.5.7.5,1.2v2.9c0,0,0,.1,0,.2h-.8ZM70.6,570.3v-.5s-.1,0-.2,0c-.1,0-.3,0-.4,0-.1,0-.3,0-.4,0-.3,0-.6,0-.8.2-.2,0-.3.2-.4.4,0,.1,0,.3,0,.4,0,.2,0,.4.3.6.2.1.4.2.7.2s.4,0,.6-.1c.2-.1.4-.2.5-.4.1-.2.2-.3.2-.5ZM72.6,571.8v-6.5h.9v2.5c0-.1.3-.3.5-.4.2-.1.6-.2.9-.2s.8.1,1.2.3c.3.2.6.5.7.9.2.4.2.8.2,1.2s-.1.9-.3,1.3c-.2.4-.5.7-.9.9-.4.2-.8.3-1.4.3s-.7,0-1.1,0c-.3,0-.6-.1-.8-.2ZM73.5,569.4v1.8c0,0,.2,0,.3,0,.1,0,.3,0,.6,0,.5,0,.9-.2,1.2-.5.3-.3.5-.7.5-1.2s0-.6-.1-.8c0-.2-.2-.4-.4-.6-.2-.2-.5-.2-.8-.2s-.5,0-.7.2c-.2.1-.3.3-.4.5,0,.2-.1.4-.1.7ZM80.3,572.1c-.5,0-.9-.1-1.3-.3-.4-.2-.7-.5-.9-.9-.2-.4-.3-.8-.3-1.2s.1-.9.3-1.2c.2-.4.5-.7.9-.9.4-.2.8-.3,1.3-.3s.9.1,1.3.3c.4.2.7.5.9.9.2.4.3.8.3,1.2s-.1.9-.3,1.2c-.2.4-.5.7-.9.9-.4.2-.8.3-1.3.3ZM80.3,571.4c.3,0,.6,0,.8-.2.2-.2.4-.4.5-.6.1-.3.2-.5.2-.8s0-.5-.2-.8c-.1-.3-.3-.5-.5-.6-.2-.2-.5-.2-.8-.2s-.6,0-.8.2c-.2.2-.4.4-.5.6-.1.3-.2.5-.2.8s0,.5.2.8c.1.3.3.5.5.6.2.2.5.2.8.2ZM83.6,570.1v-2.8h.9v2.7c0,.4,0,.8.3,1,.2.2.4.3.8.3s.6,0,.8-.3c.2-.2.3-.4.4-.7,0-.3.1-.6.1-.9v-2.2h.9v4.4c0,0,0,.2,0,.3h-.9v-.7c-.1.1-.2.2-.3.3-.1.1-.3.2-.5.3-.2,0-.4.1-.7.1-.6,0-1.1-.2-1.3-.5-.3-.4-.4-.8-.4-1.4ZM89.4,570.5v-2.4h-.8v-.8h.8v-1.5h.9v1.5h1.4v.8h-1.4v2.3c0,.4,0,.6.2.8.1.1.3.2.5.2s.3,0,.4,0c.1,0,.2-.1.3-.2l.4.5c-.2.2-.4.3-.6.4-.2,0-.4.1-.7.1-.5,0-.8-.1-1.1-.4-.2-.3-.3-.7-.3-1.2ZM94.5,572v-6.7h1v2.8h3.7v-2.8h1v6.7h-1v-3h-3.7v3h-1ZM103.6,572.1c-.5,0-.9-.1-1.3-.3-.4-.2-.7-.5-.9-.9-.2-.4-.3-.8-.3-1.2s.1-.9.3-1.2c.2-.4.5-.7.9-.9.4-.2.8-.3,1.3-.3s.9.1,1.3.3c.4.2.7.5.9.9.2.4.3.8.3,1.2s-.1.9-.3,1.2c-.2.4-.5.7-.9.9-.4.2-.8.3-1.3.3ZM103.6,571.4c.3,0,.6,0,.8-.2.2-.2.4-.4.5-.6.1-.3.2-.5.2-.8s0-.5-.2-.8c-.1-.3-.3-.5-.5-.6-.2-.2-.5-.2-.8-.2s-.6,0-.8.2c-.2.2-.4.4-.5.6-.1.3-.2.5-.2.8s0,.5.2.8c.1.3.3.5.5.6.2.2.5.2.8.2ZM106.8,571.4l.6-.6c.2.2.4.3.6.4.2.1.5.2.8.2s.6,0,.8-.1c.2,0,.3-.3.3-.5s0-.3-.1-.4c0,0-.2-.2-.4-.2-.2,0-.5-.2-.8-.2-.2,0-.5-.1-.7-.2-.2-.1-.4-.2-.6-.4-.1-.2-.2-.4-.2-.7s0-.6.3-.8c.2-.2.4-.4.7-.5.3-.1.6-.2.9-.2s.7,0,1,.2c.3.1.5.2.7.4l-.5.6c-.1-.1-.3-.2-.5-.3-.2,0-.4-.1-.7-.1s-.5,0-.7.1c-.2,0-.3.2-.3.5s.1.3.4.5c.2,0,.5.2.9.3.3,0,.6.2.8.3.2.1.4.3.6.4.1.2.2.4.2.7s0,.6-.3.8c-.2.2-.4.4-.7.5-.3.1-.6.2-.9.2-.9,0-1.5-.2-2-.7ZM112,570.5v-2.4h-.8v-.8h.8v-1.5h.9v1.5h1.4v.8h-1.4v2.3c0,.4,0,.6.2.8.1.1.3.2.5.2s.3,0,.4,0c.1,0,.2-.1.3-.2l.4.5c-.2.2-.4.3-.6.4-.2,0-.4.1-.7.1-.5,0-.8-.1-1.1-.4-.2-.3-.3-.7-.3-1.2ZM116.3,574h-.9v-6.3c0,0,0-.2,0-.3h.9v.7c0,0,.2-.2.3-.3.1-.1.3-.2.5-.3.2,0,.5-.1.8-.1.5,0,.9.1,1.2.3.3.2.5.5.7.9.2.4.2.8.2,1.2s0,.8-.2,1.1c-.1.3-.3.6-.6.8-.2.2-.5.3-.8.4-.3,0-.6.1-.8.1s-.6,0-.8-.1c-.2,0-.4-.1-.5-.2v2.2ZM116.3,569.8v1.2c.1,0,.3.2.5.2.2,0,.4.1.8.1s.6,0,.8-.2c.2-.1.4-.3.5-.6.1-.3.2-.5.2-.8s0-.6-.1-.8c0-.3-.2-.5-.4-.6-.2-.2-.5-.2-.8-.2s-.6,0-.8.3c-.2.2-.4.4-.5.8,0,.1,0,.2,0,.3,0,.1,0,.2,0,.4ZM120.8,572v-6.7h.9v6.7h-.9ZM122.8,570.1v-2.8h.9v2.7c0,.4,0,.8.3,1,.2.2.4.3.8.3s.6,0,.8-.3.3-.4.4-.7c0-.3.1-.6.1-.9v-2.2h.9v4.4c0,0,0,.2,0,.3h-.9v-.7c-.1.1-.2.2-.3.3-.1.1-.3.2-.5.3-.2,0-.4.1-.7.1-.6,0-1.1-.2-1.3-.5-.3-.4-.4-.8-.4-1.4ZM127.9,571.4l.5-.6c.2.2.4.3.6.4.2.1.5.2.8.2s.6,0,.8-.1c.2,0,.3-.3.3-.5s0-.3-.1-.4c0,0-.2-.2-.4-.2-.2,0-.5-.2-.8-.2-.2,0-.5-.1-.7-.2-.2-.1-.4-.2-.6-.4-.1-.2-.2-.4-.2-.7s0-.6.3-.8c.2-.2.4-.4.7-.5.3-.1.6-.2.9-.2s.7,0,1,.2c.3.1.5.2.7.4l-.5.6c-.1-.1-.3-.2-.5-.3-.2,0-.4-.1-.7-.1s-.5,0-.7.1c-.2,0-.3.2-.3.5s.1.3.3.5c.2,0,.5.2.9.3.3,0,.6.2.8.3.2.1.4.3.6.4.1.2.2.4.2.7s0,.6-.3.8c-.2.2-.4.4-.7.5-.3.1-.6.2-.9.2-.9,0-1.5-.2-2-.7ZM132.6,572v-1.1h1.1v1.1h-1.1ZM140,572.2c-.5,0-.9,0-1.3-.3-.4-.2-.8-.4-1.1-.8-.3-.3-.5-.7-.7-1.1-.2-.4-.3-.9-.3-1.4s0-.9.2-1.4c.2-.4.4-.8.7-1.1.3-.3.7-.6,1.1-.8.4-.2.9-.3,1.3-.3s.9,0,1.3.3c.4.2.8.4,1.1.8.3.3.6.7.7,1.1.2.4.3.9.3,1.4s0,.9-.3,1.4c-.2.4-.4.8-.7,1.1-.3.3-.7.6-1.1.8-.4.2-.9.3-1.3.3ZM140,571.3c.5,0,.9-.1,1.3-.4.4-.2.6-.6.8-.9.2-.4.3-.8.3-1.3s-.1-.9-.3-1.3c-.2-.4-.5-.7-.8-1-.4-.2-.8-.4-1.3-.4s-.9.1-1.3.4c-.4.2-.6.5-.8,1-.2.4-.3.8-.3,1.3s0,.9.3,1.3c.2.4.5.7.8.9.4.2.8.4,1.3.4ZM144.8,570.5v-2.4h-.8v-.8h.8v-1.5h.9v1.5h1.4v.8h-1.4v2.3c0,.4,0,.6.2.8.1.1.3.2.5.2s.3,0,.4,0c.1,0,.2-.1.3-.2l.4.5c-.2.2-.4.3-.6.4-.2,0-.4.1-.7.1-.5,0-.8-.1-1.1-.4-.2-.3-.4-.7-.4-1.2ZM148.1,572v-6.7h.9v2.7c0-.1.2-.2.3-.3.1-.1.3-.2.5-.3.2,0,.5-.1.7-.1.6,0,1.1.2,1.3.5.3.4.4.8.4,1.4v2.8h-.9v-2.7c0-.4,0-.8-.3-1-.2-.2-.4-.3-.8-.3s-.6,0-.8.3c-.2.2-.3.4-.4.7,0,.3-.1.6-.1.9v2.2h-.9ZM157.2,570.8l.5.5c0,0-.2.2-.4.3-.2.1-.4.2-.7.3-.3.1-.6.2-1,.2s-.9-.1-1.3-.3c-.4-.2-.7-.5-.9-.9-.2-.4-.3-.8-.3-1.3s0-.9.3-1.2c.2-.4.5-.7.8-.9.4-.2.8-.3,1.2-.3s1,.1,1.3.4c.3.3.6.6.7,1,.2.4.2.9.2,1.3h-3.7c0,.3,0,.5.2.7.1.2.3.4.6.5.2.1.5.2.8.2.4,0,.7,0,1-.2.3-.1.4-.3.5-.4ZM154.2,569.3h2.7c0-.4-.2-.7-.4-.9-.2-.3-.5-.4-1-.4s-.5,0-.7.2c-.2.1-.4.3-.5.5-.1.2-.2.4-.2.6ZM159.6,572h-.9v-4.4c0,0,0-.2,0-.3h.9v.8c.1-.1.2-.2.3-.3.1-.1.3-.2.5-.3.2,0,.4-.1.7-.1s.2,0,.3,0c0,0,.2,0,.2,0l-.2.8c-.1,0-.3,0-.5,0s-.5,0-.7.2c-.2.1-.4.3-.5.5-.1.2-.2.4-.2.7v2.5ZM164.3,572v-3.9h-.8v-.8h.8v-.4c0-.4,0-.8.2-1,.2-.3.4-.5.6-.6.2-.1.5-.2.8-.2s.5,0,.7.1c.2,0,.5.2.7.4l-.5.6c-.2-.2-.5-.3-.8-.3s-.5,0-.6.2c-.2.2-.2.5-.2.9v.3h1.3v.8h-1.3v3.9h-.9ZM170.7,570.8l.5.5c0,0-.2.2-.4.3-.2.1-.4.2-.7.3-.3.1-.6.2-1,.2s-.9-.1-1.3-.3c-.4-.2-.7-.5-.9-.9-.2-.4-.3-.8-.3-1.3s0-.9.3-1.2c.2-.4.5-.7.8-.9.4-.2.8-.3,1.2-.3s1,.1,1.3.4c.3.3.6.6.7,1,.2.4.2.9.2,1.3h-3.7c0,.3,0,.5.2.7.1.2.3.4.5.5.2.1.5.2.8.2.4,0,.7,0,1-.2.3-.1.4-.3.6-.4ZM167.7,569.3h2.7c0-.4-.2-.7-.4-.9-.2-.3-.5-.4-1-.4s-.5,0-.7.2c-.2.1-.4.3-.5.5-.1.2-.2.4-.2.6ZM176,570.8l.5.5c0,0-.2.2-.4.3-.2.1-.4.2-.7.3-.3.1-.6.2-1,.2s-.9-.1-1.3-.3c-.4-.2-.7-.5-.9-.9-.2-.4-.3-.8-.3-1.3s0-.9.3-1.2c.2-.4.5-.7.8-.9.4-.2.8-.3,1.2-.3s1,.1,1.3.4c.3.3.6.6.7,1,.2.4.2.9.2,1.3h-3.7c0,.3,0,.5.2.7.1.2.3.4.6.5.2.1.5.2.8.2.4,0,.7,0,1-.2.3-.1.4-.3.6-.4ZM172.9,569.3h2.7c0-.4-.2-.7-.4-.9-.2-.3-.5-.4-1-.4s-.5,0-.7.2c-.2.1-.4.3-.5.5-.1.2-.2.4-.2.6ZM177.3,571.4l.6-.6c.2.2.4.3.6.4.2.1.5.2.8.2s.5,0,.8-.1c.2,0,.3-.3.3-.5s0-.3-.1-.4c0,0-.2-.2-.4-.2-.2,0-.5-.2-.8-.2-.2,0-.5-.1-.7-.2-.2-.1-.4-.2-.6-.4-.1-.2-.2-.4-.2-.7s0-.6.3-.8c.2-.2.4-.4.7-.5.3-.1.6-.2.9-.2s.7,0,1,.2c.3.1.5.2.7.4l-.5.6c-.1-.1-.3-.2-.5-.3-.2,0-.4-.1-.7-.1s-.5,0-.7.1c-.2,0-.3.2-.3.5s.1.3.4.5c.2,0,.5.2.9.3.3,0,.6.2.8.3.2.1.4.3.6.4.1.2.2.4.2.7s0,.6-.3.8c-.2.2-.4.4-.7.5-.3.1-.6.2-1,.2-.9,0-1.5-.2-2-.7ZM186.8,572v-.6c-.2.2-.4.4-.7.5-.3.1-.6.2-.9.2s-.5,0-.8-.1c-.2,0-.5-.2-.6-.5-.2-.2-.2-.5-.2-.9,0-.5.2-.9.5-1.2.4-.3.9-.4,1.5-.4s.3,0,.4,0c.2,0,.3,0,.4,0,.1,0,.2,0,.2,0v-.2c0-.3-.1-.6-.3-.7-.2-.2-.5-.2-.9-.2s-.6,0-.8.1c-.2,0-.4.2-.5.3l-.4-.6c.2-.1.4-.3.7-.4.3-.1.7-.2,1.2-.2s1.1.1,1.4.4c.3.3.5.7.5,1.2v2.9c0,0,0,.1,0,.2h-.8ZM186.7,570.3v-.5s-.1,0-.2,0c-.1,0-.3,0-.4,0-.1,0-.3,0-.4,0-.3,0-.6,0-.8.2-.2,0-.3.2-.4.4,0,.1,0,.3,0,.4,0,.2,0,.4.3.6.2.1.4.2.7.2s.4,0,.6-.1c.2-.1.4-.2.5-.4.1-.2.2-.3.2-.5ZM189.6,572h-.9v-4.3c0,0,0-.2,0-.3h.9v.7c.1-.1.2-.2.3-.3.1-.1.3-.2.5-.3.2,0,.5-.1.7-.1.6,0,1.1.2,1.4.5.3.4.4.8.4,1.4v2.8h-.9v-2.7c0-.4,0-.8-.3-1-.2-.2-.4-.3-.8-.3s-.6,0-.8.3c-.2.2-.3.4-.4.7,0,.3-.1.6-.1.9v2.2ZM197.4,572v-.6c0,0-.2.1-.3.3-.1.1-.3.2-.5.3-.2,0-.5.1-.8.1s-.7,0-1.1-.3c-.3-.2-.6-.5-.7-.8-.2-.4-.3-.8-.3-1.3s0-.8.2-1.1c.2-.3.4-.6.6-.8.2-.2.5-.3.8-.4.3-.1.5-.2.8-.2s.5,0,.6,0c.2,0,.4.1.6.2v-2.2h.9v6.4c0,0,0,.2,0,.3h-.9ZM197.4,570v-1.7c-.1,0-.3-.2-.5-.2-.2,0-.4,0-.7,0-.4,0-.8.2-1.1.5-.3.3-.4.7-.4,1.3s0,.6.1.8c.1.2.2.4.5.6.2.1.5.2.8.2s.6,0,.8-.2c.2-.1.3-.3.4-.5,0-.2.1-.4.1-.6ZM204.6,570.8l.6.6c-.2.2-.5.4-.8.6-.3.1-.7.2-1.1.2s-.9-.1-1.3-.3c-.4-.2-.6-.5-.8-.9-.2-.4-.3-.8-.3-1.3s.1-.9.3-1.2c.2-.4.5-.7.9-.9.4-.2.8-.3,1.3-.3s.7,0,1,.2c.3.1.6.3.8.6l-.6.6c-.1-.2-.3-.3-.5-.4-.2-.1-.4-.2-.7-.2s-.6,0-.8.2c-.2.2-.4.4-.5.6-.1.3-.2.5-.2.8s0,.6.2.8c.1.3.3.5.5.6.2.2.5.2.8.2s.5,0,.7-.1c.2-.1.4-.2.5-.4ZM207.9,572.1c-.5,0-.9-.1-1.3-.3-.4-.2-.7-.5-.9-.9-.2-.4-.3-.8-.3-1.2s.1-.9.3-1.2c.2-.4.5-.7.9-.9.4-.2.8-.3,1.3-.3s.9.1,1.3.3c.4.2.7.5.9.9s.3.8.3,1.2-.1.9-.3,1.2c-.2.4-.5.7-.9.9-.4.2-.8.3-1.3.3ZM207.9,571.4c.3,0,.6,0,.8-.2.2-.2.4-.4.5-.6.1-.3.2-.5.2-.8s0-.5-.2-.8c-.1-.3-.3-.5-.5-.6-.2-.2-.5-.2-.8-.2s-.6,0-.8.2c-.2.2-.4.4-.5.6-.1.3-.2.5-.2.8s0,.5.2.8c.1.3.3.5.5.6.2.2.5.2.8.2ZM211.1,571.4l.6-.6c.2.2.4.3.6.4.2.1.5.2.8.2s.6,0,.8-.1c.2,0,.3-.3.3-.5s0-.3-.1-.4c0,0-.2-.2-.4-.2-.2,0-.5-.2-.8-.2-.2,0-.5-.1-.7-.2-.2-.1-.4-.2-.6-.4-.1-.2-.2-.4-.2-.7s0-.6.3-.8c.2-.2.4-.4.7-.5.3-.1.6-.2.9-.2s.7,0,1,.2c.3.1.5.2.7.4l-.5.6c-.1-.1-.3-.2-.5-.3-.2,0-.4-.1-.7-.1s-.5,0-.7.1c-.2,0-.3.2-.3.5s.1.3.3.5c.2,0,.5.2.9.3.3,0,.6.2.8.3.2.1.4.3.6.4.1.2.2.4.2.7s0,.6-.3.8c-.2.2-.4.4-.7.5-.3.1-.6.2-.9.2-.9,0-1.5-.2-2-.7ZM216.3,570.5v-2.4h-.8v-.8h.8v-1.5h.9v1.5h1.4v.8h-1.4v2.3c0,.4,0,.6.2.8.1.1.3.2.5.2s.3,0,.4,0c.1,0,.2-.1.3-.2l.4.5c-.2.2-.4.3-.6.4-.2,0-.4.1-.7.1-.5,0-.8-.1-1.1-.4-.2-.3-.4-.7-.4-1.2ZM219.4,571.4l.6-.6c.2.2.4.3.6.4.2.1.5.2.8.2s.6,0,.8-.1c.2,0,.3-.3.3-.5s0-.3-.1-.4c0,0-.2-.2-.4-.2-.2,0-.5-.2-.8-.2-.2,0-.5-.1-.7-.2-.2-.1-.4-.2-.6-.4-.1-.2-.2-.4-.2-.7s0-.6.3-.8c.2-.2.4-.4.7-.5.3-.1.6-.2.9-.2s.7,0,1,.2c.3.1.5.2.7.4l-.5.6c-.1-.1-.3-.2-.5-.3-.2,0-.4-.1-.7-.1s-.5,0-.7.1c-.2,0-.3.2-.3.5s.1.3.4.5c.2,0,.5.2.9.3.3,0,.6.2.8.3.2.1.4.3.6.4.1.2.2.4.2.7s0,.6-.3.8c-.2.2-.4.4-.7.5-.3.1-.6.2-1,.2-.9,0-1.5-.2-2-.7ZM228.9,572v-.6c-.2.2-.4.4-.7.5-.3.1-.6.2-.9.2s-.5,0-.8-.1c-.2,0-.5-.2-.6-.5-.2-.2-.2-.5-.2-.9,0-.5.2-.9.5-1.2.4-.3.9-.4,1.5-.4s.3,0,.4,0c.2,0,.3,0,.4,0,.1,0,.2,0,.2,0v-.2c0-.3-.1-.6-.3-.7-.2-.2-.5-.2-.9-.2s-.6,0-.8.1c-.2,0-.4.2-.5.3l-.4-.6c.2-.1.4-.3.7-.4.3-.1.7-.2,1.2-.2s1.1.1,1.4.4c.3.3.5.7.5,1.2v2.9c0,0,0,.1,0,.2h-.8ZM228.9,570.3v-.5s-.1,0-.2,0c-.1,0-.3,0-.4,0-.1,0-.3,0-.4,0-.3,0-.6,0-.8.2-.2,0-.3.2-.4.4,0,.1,0,.3,0,.4,0,.2,0,.4.3.6.2.1.4.2.7.2s.4,0,.6-.1c.2-.1.4-.2.5-.4.1-.2.2-.3.2-.5ZM231.8,574h-.9v-6.3c0,0,0-.2,0-.3h.9v.7c0,0,.2-.2.3-.3.1-.1.3-.2.5-.3.2,0,.5-.1.8-.1.5,0,.9.1,1.2.3.3.2.5.5.7.9.2.4.2.8.2,1.2s0,.8-.2,1.1c-.1.3-.3.6-.6.8-.2.2-.5.3-.8.4-.3,0-.6.1-.8.1s-.6,0-.8-.1c-.2,0-.4-.1-.5-.2v2.2ZM231.8,569.8v1.2c.1,0,.3.2.5.2.2,0,.5.1.8.1s.6,0,.8-.2c.2-.1.4-.3.5-.6.1-.3.2-.5.2-.8s0-.6-.1-.8c0-.3-.2-.5-.4-.6-.2-.2-.5-.2-.8-.2s-.6,0-.8.3c-.2.2-.4.4-.5.8,0,.1,0,.2,0,.3,0,.1,0,.2,0,.4ZM237.3,574h-.9v-6.3c0,0,0-.2,0-.3h.9v.7c0,0,.2-.2.3-.3.1-.1.3-.2.5-.3.2,0,.5-.1.8-.1.5,0,.9.1,1.2.3.3.2.5.5.7.9.2.4.2.8.2,1.2s0,.8-.2,1.1c-.1.3-.3.6-.6.8-.2.2-.5.3-.8.4-.3,0-.6.1-.8.1s-.6,0-.8-.1c-.2,0-.4-.1-.5-.2v2.2ZM237.3,569.8v1.2c.1,0,.3.2.5.2.2,0,.4.1.8.1s.6,0,.8-.2c.2-.1.4-.3.5-.6.1-.3.2-.5.2-.8s0-.6-.1-.8c0-.3-.2-.5-.4-.6-.2-.2-.5-.2-.8-.2s-.6,0-.8.3c-.2.2-.4.4-.5.8,0,.1,0,.2,0,.3,0,.1,0,.2,0,.4ZM241.8,572v-6.7h.9v6.7h-.9ZM243.5,573.8l.4-.6c0,0,.1.1.2.2,0,0,.2,0,.3,0,.2,0,.4,0,.5-.3.1-.2.2-.5.4-.8v-.3c.1,0-2-4.6-2-4.6h1l1.5,3.5,1.3-3.5h1l-1.9,4.5c0,.2-.2.4-.3.7,0,.3-.2.5-.3.7-.1.2-.3.4-.5.6-.2.2-.4.2-.7.2s-.4,0-.6,0c-.2,0-.3-.1-.4-.2ZM248,572v-1.1h1.1v1.1h-1.1ZM252.2,572v-6.7h2.1c.5,0,.8,0,1.1.2.3.1.5.3.7.5.2.2.3.4.4.7,0,.2.1.5.1.7,0,.4,0,.8-.3,1.1-.2.3-.5.5-.8.7-.3.2-.7.2-1.2.2h-1.2v2.6h-1ZM253.2,568.6h1.2c.4,0,.7-.1.9-.3.2-.2.3-.5.3-.9s-.1-.7-.3-.9c-.2-.2-.5-.3-.9-.3h-1.2v2.4ZM260.2,572v-.6c-.2.2-.4.4-.7.5-.3.1-.6.2-.9.2s-.5,0-.8-.1c-.2,0-.5-.2-.6-.5-.2-.2-.2-.5-.2-.9,0-.5.2-.9.5-1.2.4-.3.9-.4,1.5-.4s.3,0,.5,0c.2,0,.3,0,.4,0,.1,0,.2,0,.2,0v-.2c0-.3-.1-.6-.3-.7-.2-.2-.5-.2-.8-.2s-.6,0-.8.1c-.2,0-.4.2-.5.3l-.4-.6c.2-.1.4-.3.7-.4.3-.1.7-.2,1.2-.2s1.1.1,1.4.4c.3.3.5.7.5,1.2v2.9c0,0,0,.1,0,.2h-.8ZM260.2,570.3v-.5s-.1,0-.2,0c-.1,0-.3,0-.4,0-.1,0-.3,0-.4,0-.3,0-.6,0-.8.2-.2,0-.3.2-.4.4,0,.1,0,.3,0,.4,0,.2,0,.4.3.6.2.1.4.2.7.2s.4,0,.6-.1c.2-.1.4-.2.5-.4.1-.2.2-.3.2-.5ZM261.9,571.4l.6-.6c.2.2.4.3.6.4.2.1.5.2.8.2s.6,0,.8-.1c.2,0,.3-.3.3-.5s0-.3-.1-.4c0,0-.2-.2-.4-.2-.2,0-.5-.2-.8-.2-.2,0-.5-.1-.7-.2-.2-.1-.4-.2-.6-.4-.1-.2-.2-.4-.2-.7s0-.6.3-.8c.2-.2.4-.4.7-.5.3-.1.6-.2.9-.2s.7,0,1,.2c.3.1.5.2.7.4l-.5.6c-.1-.1-.3-.2-.5-.3-.2,0-.5-.1-.7-.1s-.5,0-.7.1c-.2,0-.3.2-.3.5s.1.3.4.5c.2,0,.5.2.9.3.3,0,.6.2.8.3.2.1.4.3.6.4.1.2.2.4.2.7s0,.6-.3.8c-.2.2-.4.4-.7.5-.3.1-.6.2-.9.2-.9,0-1.5-.2-2-.7ZM267.2,570.5v-2.4h-.8v-.8h.8v-1.5h.9v1.5h1.4v.8h-1.4v2.3c0,.4,0,.6.2.8.1.1.3.2.5.2s.3,0,.4,0c.1,0,.2-.1.3-.2l.4.5c-.2.2-.4.3-.6.4-.2,0-.4.1-.7.1-.5,0-.8-.1-1.1-.4-.2-.3-.4-.7-.4-1.2ZM24.2,583h-.9v-6.3c0,0,0-.2,0-.3h.9v.7c0,0,.2-.2.3-.3.1-.1.3-.2.5-.3.2,0,.5-.1.8-.1.5,0,.9.1,1.2.3.3.2.5.5.7.9.2.4.2.8.2,1.2s0,.8-.2,1.1c-.1.3-.3.6-.6.8-.2.2-.5.3-.8.4-.3,0-.6.1-.8.1s-.6,0-.8-.1c-.2,0-.4-.1-.5-.2v2.2ZM24.2,578.8v1.2c.1,0,.3.2.5.2.2,0,.5.1.8.1s.6,0,.8-.2c.2-.1.4-.3.5-.6.1-.3.2-.5.2-.8s0-.6-.1-.8c0-.3-.2-.5-.4-.6-.2-.2-.5-.2-.8-.2s-.6,0-.8.3c-.2.2-.4.4-.5.8,0,.1,0,.2,0,.3,0,.1,0,.2,0,.4ZM32.5,579.8l.5.5c0,0-.2.2-.4.3-.2.1-.4.2-.7.3-.3.1-.6.2-1,.2s-.9-.1-1.3-.3c-.4-.2-.7-.5-.9-.9-.2-.4-.3-.8-.3-1.3s0-.9.3-1.2c.2-.4.5-.7.8-.9.4-.2.8-.3,1.2-.3s1,.1,1.3.4c.3.3.6.6.7,1,.2.4.2.9.2,1.3h-3.7c0,.3,0,.5.2.7.1.2.3.4.5.5.2.1.5.2.8.2.4,0,.7,0,1-.2.3-.1.4-.3.5-.4ZM29.5,578.3h2.7c0-.4-.2-.7-.4-.9-.2-.3-.5-.4-1-.4s-.5,0-.7.2c-.2.1-.4.3-.5.5-.1.2-.2.4-.2.6ZM35,581h-.9v-4.4c0,0,0-.2,0-.3h.9v.8c.1-.1.2-.2.3-.3.1-.1.3-.2.5-.3.2,0,.4-.1.7-.1s.2,0,.3,0c0,0,.2,0,.2,0l-.2.8c-.1,0-.3,0-.5,0s-.5,0-.7.2c-.2.1-.4.3-.5.5-.1.2-.2.4-.2.7v2.5ZM38,581v-3.9h-.8v-.8h.8v-.4c0-.4,0-.8.2-1,.2-.3.4-.5.6-.6.2-.1.5-.2.8-.2s.5,0,.7.1c.2,0,.5.2.7.4l-.5.6c-.2-.2-.5-.3-.8-.3s-.5,0-.6.2c-.2.2-.2.5-.2.9v.3h1.3v.8h-1.3v3.9h-.9ZM42.9,581.1c-.5,0-.9-.1-1.3-.3-.4-.2-.7-.5-.9-.9-.2-.4-.3-.8-.3-1.2s.1-.9.3-1.2c.2-.4.5-.7.9-.9.4-.2.8-.3,1.3-.3s.9.1,1.3.3c.4.2.7.5.9.9.2.4.3.8.3,1.2s-.1.9-.3,1.2c-.2.4-.5.7-.9.9-.4.2-.8.3-1.3.3ZM42.9,580.4c.3,0,.6,0,.8-.2.2-.2.4-.4.5-.6.1-.3.2-.5.2-.8s0-.5-.2-.8c-.1-.3-.3-.5-.5-.6-.2-.2-.5-.2-.8-.2s-.6,0-.8.2c-.2.2-.4.4-.5.6-.1.3-.2.5-.2.8s0,.5.2.8c.1.3.3.5.5.6.2.2.5.2.8.2ZM47.1,581h-.9v-4.4c0,0,0-.2,0-.3h.9v.8c.1-.1.2-.2.3-.3.1-.1.3-.2.5-.3.2,0,.4-.1.7-.1s.2,0,.3,0c0,0,.2,0,.2,0l-.2.8c-.1,0-.3,0-.5,0s-.5,0-.7.2c-.2.1-.4.3-.5.5-.1.2-.2.4-.2.7v2.5ZM50.7,581h-.9v-4.3c0,0,0-.2,0-.3h.9v.7c.1-.1.2-.2.3-.3.1-.1.3-.2.5-.3.2,0,.4-.1.7-.1s.7,0,.9.2c.2.1.4.3.6.6.2-.2.4-.4.7-.6.3-.2.6-.3,1-.3.6,0,1,.2,1.3.5.3.4.4.8.4,1.4v2.8h-.9v-2.7c0-.8-.3-1.3-1-1.3s-.5,0-.7.2c-.2.1-.3.3-.5.5-.1.2-.2.4-.2.7v2.6h-.9v-2.7c0-.4,0-.8-.3-1-.2-.2-.4-.3-.7-.3s-.6,0-.8.3c-.2.2-.3.4-.4.7,0,.3-.1.6-.1.9v2.2ZM61.1,581v-.6c-.2.2-.4.4-.7.5-.3.1-.6.2-.9.2s-.5,0-.8-.1c-.2,0-.5-.2-.6-.5-.2-.2-.2-.5-.2-.9,0-.5.2-.9.5-1.2.4-.3.9-.4,1.5-.4s.3,0,.4,0c.2,0,.3,0,.4,0,.1,0,.2,0,.2,0v-.2c0-.3-.1-.6-.3-.7-.2-.2-.5-.2-.8-.2s-.6,0-.8.1c-.2,0-.4.2-.5.3l-.4-.6c.2-.1.4-.3.7-.4.3-.1.7-.2,1.2-.2s1.1.1,1.4.4c.3.3.5.7.5,1.2v2.9c0,0,0,.1,0,.2h-.8ZM61.1,579.3v-.5s-.1,0-.2,0c-.1,0-.3,0-.4,0-.1,0-.3,0-.4,0-.3,0-.6,0-.8.2-.2,0-.3.2-.4.4,0,.1,0,.3,0,.4,0,.2,0,.4.3.6.2.1.4.2.7.2s.4,0,.6-.1c.2-.1.4-.2.5-.4.1-.2.2-.3.2-.5ZM64,581h-.9v-4.3c0,0,0-.2,0-.3h.9v.7c.1-.1.2-.2.4-.3.1-.1.3-.2.5-.3.2,0,.5-.1.7-.1.6,0,1.1.2,1.3.5.3.4.4.8.4,1.4v2.8h-.9v-2.7c0-.4,0-.8-.3-1-.2-.2-.4-.3-.8-.3s-.6,0-.8.3c-.2.2-.3.4-.4.7,0,.3-.1.6-.1.9v2.2ZM71.9,579.8l.6.6c-.2.2-.5.4-.8.6-.3.1-.7.2-1.1.2s-.9-.1-1.3-.3c-.4-.2-.6-.5-.8-.9-.2-.4-.3-.8-.3-1.3s.1-.9.3-1.2c.2-.4.5-.7.9-.9.4-.2.8-.3,1.3-.3s.7,0,1,.2c.3.1.6.3.8.6l-.6.6c-.1-.2-.3-.3-.5-.4-.2-.1-.4-.2-.7-.2s-.6,0-.8.2c-.2.2-.4.4-.5.6-.1.3-.2.5-.2.8s0,.6.2.8c.1.3.3.5.5.6.2.2.5.2.8.2s.5,0,.7-.1c.2-.1.4-.2.5-.4ZM76.7,579.8l.5.5c0,0-.2.2-.4.3-.2.1-.4.2-.7.3-.3.1-.6.2-1,.2s-.9-.1-1.3-.3c-.4-.2-.7-.5-.9-.9-.2-.4-.3-.8-.3-1.3s0-.9.3-1.2c.2-.4.5-.7.8-.9.4-.2.8-.3,1.2-.3s1,.1,1.3.4c.3.3.6.6.7,1,.2.4.2.9.2,1.3h-3.7c0,.3,0,.5.2.7.1.2.3.4.5.5.2.1.5.2.8.2.4,0,.7,0,1-.2.3-.1.4-.3.6-.4ZM73.6,578.3h2.7c0-.4-.2-.7-.4-.9-.2-.3-.5-.4-1-.4s-.5,0-.7.2c-.2.1-.4.3-.5.5-.1.2-.2.4-.2.6ZM79.9,575.5v-1h1v1h-1ZM80,581v-4.7h.9v4.7h-.9ZM81.8,580.4l.6-.6c.2.2.4.3.6.4.2.1.5.2.8.2s.6,0,.8-.1c.2,0,.3-.3.3-.5s0-.3-.1-.4c0,0-.2-.2-.4-.2-.2,0-.5-.2-.8-.2-.2,0-.5-.1-.7-.2-.2-.1-.4-.2-.6-.4-.1-.2-.2-.4-.2-.7s0-.6.3-.8c.2-.2.4-.4.7-.5.3-.1.6-.2.9-.2s.7,0,1,.2c.3.1.5.2.7.4l-.5.6c-.1-.1-.3-.2-.5-.3-.2,0-.4-.1-.7-.1s-.5,0-.7.1c-.2,0-.3.2-.3.5s.1.3.4.5c.2,0,.5.2.9.3.3,0,.6.2.8.3.2.1.4.3.6.4.1.2.2.4.2.7s0,.6-.3.8c-.2.2-.4.4-.7.5-.3.1-.6.2-1,.2-.9,0-1.5-.2-2-.7ZM89.3,581h-.9v-4.3c0,0,0-.2,0-.3h.9v.7c.1-.1.2-.2.3-.3.1-.1.3-.2.5-.3.2,0,.5-.1.7-.1.6,0,1.1.2,1.4.5.3.4.4.8.4,1.4v2.8h-.9v-2.7c0-.4,0-.8-.3-1-.2-.2-.4-.3-.8-.3s-.6,0-.8.3c-.2.2-.3.4-.4.7,0,.3-.1.6-.1.9v2.2ZM95.9,581.1c-.5,0-.9-.1-1.3-.3-.4-.2-.7-.5-.9-.9-.2-.4-.3-.8-.3-1.2s.1-.9.3-1.2c.2-.4.5-.7.9-.9.4-.2.8-.3,1.3-.3s.9.1,1.3.3c.4.2.7.5.9.9.2.4.3.8.3,1.2s-.1.9-.3,1.2c-.2.4-.5.7-.9.9-.4.2-.8.3-1.3.3ZM95.9,580.4c.3,0,.6,0,.8-.2.2-.2.4-.4.5-.6.1-.3.2-.5.2-.8s0-.5-.2-.8c-.1-.3-.3-.5-.5-.6-.2-.2-.5-.2-.8-.2s-.6,0-.8.2c-.2.2-.4.4-.5.6-.1.3-.2.5-.2.8s0,.5.2.8c.1.3.3.5.5.6.2.2.5.2.8.2ZM99.7,579.5v-2.4h-.8v-.8h.8v-1.5h.9v1.5h1.4v.8h-1.4v2.3c0,.4,0,.6.2.8.1.1.3.2.5.2s.3,0,.4,0c.1,0,.2-.1.3-.2l.4.5c-.2.2-.4.3-.6.4-.2,0-.4.1-.7.1-.5,0-.8-.1-1.1-.4-.2-.3-.4-.7-.4-1.2ZM107.7,581v-.6c-.2.2-.4.4-.7.5-.3.1-.6.2-.9.2s-.5,0-.8-.1c-.2,0-.5-.2-.6-.5-.2-.2-.2-.5-.2-.9,0-.5.2-.9.5-1.2.4-.3.9-.4,1.5-.4s.3,0,.4,0c.2,0,.3,0,.4,0,.1,0,.2,0,.2,0v-.2c0-.3-.1-.6-.3-.7-.2-.2-.5-.2-.8-.2s-.6,0-.8.1c-.2,0-.4.2-.5.3l-.4-.6c.2-.1.4-.3.7-.4.3-.1.7-.2,1.2-.2s1.1.1,1.4.4c.3.3.5.7.5,1.2v2.9c0,0,0,.1,0,.2h-.8ZM107.7,579.3v-.5s-.1,0-.2,0c-.1,0-.3,0-.4,0-.1,0-.3,0-.4,0-.3,0-.6,0-.8.2-.2,0-.3.2-.4.4,0,.1,0,.3,0,.4,0,.2,0,.4.3.6.2.1.4.2.7.2s.4,0,.6-.1c.2-.1.4-.2.5-.4.1-.2.2-.3.2-.5ZM112.3,581h-.9v-4.4c0,0,0-.2,0-.3h.9v.8c.1-.1.2-.2.3-.3.1-.1.3-.2.5-.3.2,0,.4-.1.7-.1s.2,0,.3,0c0,0,.2,0,.2,0l-.2.8c-.1,0-.3,0-.5,0s-.5,0-.7.2c-.2.1-.4.3-.5.5-.1.2-.2.4-.2.7v2.5ZM118.4,579.8l.5.5c0,0-.2.2-.4.3-.2.1-.4.2-.7.3-.3.1-.6.2-1,.2s-.9-.1-1.3-.3c-.4-.2-.7-.5-.9-.9-.2-.4-.3-.8-.3-1.3s0-.9.3-1.2c.2-.4.5-.7.8-.9.4-.2.8-.3,1.2-.3s1,.1,1.3.4c.3.3.6.6.7,1,.2.4.2.9.2,1.3h-3.7c0,.3,0,.5.2.7.1.2.3.4.5.5.2.1.5.2.8.2.4,0,.7,0,1-.2.3-.1.4-.3.6-.4ZM115.3,578.3h2.7c0-.4-.2-.7-.4-.9-.2-.3-.5-.4-1-.4s-.5,0-.7.2c-.2.1-.4.3-.5.5-.1.2-.2.4-.2.6ZM119.9,581v-6.7h.9v6.7h-.9ZM121.9,575.5v-1h1v1h-1ZM122,581v-4.7h.9v4.7h-.9ZM127,581v-.6c-.2.2-.4.4-.7.5-.3.1-.6.2-.9.2s-.5,0-.8-.1c-.2,0-.5-.2-.6-.5-.2-.2-.2-.5-.2-.9,0-.5.2-.9.5-1.2.4-.3.9-.4,1.5-.4s.3,0,.5,0c.2,0,.3,0,.4,0,.1,0,.2,0,.2,0v-.2c0-.3-.1-.6-.3-.7-.2-.2-.5-.2-.9-.2s-.6,0-.8.1c-.2,0-.4.2-.5.3l-.4-.6c.2-.1.4-.3.7-.4.3-.1.7-.2,1.2-.2s1.1.1,1.4.4c.3.3.5.7.5,1.2v2.9c0,0,0,.1,0,.2h-.8ZM127,579.3v-.5s-.1,0-.2,0c-.1,0-.3,0-.4,0-.1,0-.3,0-.4,0-.3,0-.6,0-.8.2-.2,0-.3.2-.4.4,0,.1,0,.3,0,.4,0,.2,0,.4.3.6.2.1.4.2.7.2s.4,0,.6-.1c.2-.1.4-.2.5-.4.1-.2.2-.3.2-.5ZM128.9,580.8v-6.5h.9v2.5c0-.1.3-.3.5-.4.2-.1.6-.2.9-.2s.8.1,1.2.3c.3.2.6.5.7.9.2.4.2.8.2,1.2s-.1.9-.3,1.3c-.2.4-.5.7-.9.9-.4.2-.8.3-1.4.3s-.7,0-1.1,0c-.3,0-.6-.1-.8-.2ZM129.8,578.4v1.8c0,0,.2,0,.3,0,.1,0,.3,0,.6,0,.5,0,.9-.2,1.2-.5.3-.3.5-.7.5-1.2s0-.6-.1-.8c0-.2-.2-.4-.4-.6-.2-.2-.4-.2-.8-.2s-.5,0-.7.2c-.2.1-.3.3-.4.5,0,.2-.1.4-.1.7ZM134.3,581v-6.7h.9v6.7h-.9ZM140.1,579.8l.5.5c0,0-.2.2-.4.3-.2.1-.4.2-.7.3-.3.1-.6.2-1,.2s-.9-.1-1.3-.3c-.4-.2-.7-.5-.9-.9-.2-.4-.3-.8-.3-1.3s0-.9.3-1.2c.2-.4.5-.7.8-.9.4-.2.8-.3,1.2-.3s1,.1,1.3.4c.3.3.6.6.7,1,.2.4.2.9.2,1.3h-3.7c0,.3,0,.5.2.7.1.2.3.4.6.5.2.1.5.2.8.2.4,0,.7,0,1-.2.3-.1.4-.3.6-.4ZM137,578.3h2.7c0-.4-.2-.7-.4-.9-.2-.3-.5-.4-1-.4s-.5,0-.7.2c-.2.1-.4.3-.5.5-.1.2-.2.4-.2.6ZM143.3,575.5v-1h1v1h-1ZM143.3,581v-4.7h.9v4.7h-.9ZM146.3,581h-.9v-4.3c0,0,0-.2,0-.3h.9v.7c.1-.1.2-.2.4-.3.1-.1.3-.2.5-.3.2,0,.5-.1.7-.1.6,0,1.1.2,1.3.5.3.4.4.8.4,1.4v2.8h-.9v-2.7c0-.4,0-.8-.3-1-.2-.2-.4-.3-.8-.3s-.6,0-.8.3c-.2.2-.3.4-.4.7,0,.3-.1.6-.1.9v2.2ZM154.1,581v-.6c0,0-.2.1-.3.3-.1.1-.3.2-.5.3-.2,0-.5.1-.8.1s-.7,0-1.1-.3c-.3-.2-.6-.5-.7-.8-.2-.4-.3-.8-.3-1.3s0-.8.2-1.1c.2-.3.4-.6.6-.8.2-.2.5-.3.8-.4.3-.1.5-.2.8-.2s.5,0,.6,0c.2,0,.4.1.6.2v-2.2h.9v6.4c0,0,0,.2,0,.3h-.9ZM154.1,579v-1.7c-.1,0-.3-.2-.5-.2-.2,0-.4,0-.7,0-.4,0-.8.2-1.1.5-.3.3-.4.7-.4,1.3s0,.6.1.8c.1.2.2.4.5.6.2.1.5.2.8.2s.6,0,.8-.2c.2-.1.3-.3.4-.5,0-.2.1-.4.1-.6ZM156.1,575.5v-1h1v1h-1ZM156.2,581v-4.7h.9v4.7h-.9ZM161.8,579.8l.6.6c-.2.2-.5.4-.8.6-.3.1-.7.2-1.1.2s-.9-.1-1.3-.3c-.4-.2-.6-.5-.8-.9-.2-.4-.3-.8-.3-1.3s.1-.9.3-1.2.5-.7.9-.9c.4-.2.8-.3,1.3-.3s.7,0,1,.2c.3.1.6.3.8.6l-.6.6c-.1-.2-.3-.3-.5-.4-.2-.1-.4-.2-.7-.2s-.6,0-.8.2c-.2.2-.4.4-.5.6-.1.3-.2.5-.2.8s0,.6.2.8c.1.3.3.5.5.6.2.2.5.2.8.2s.5,0,.7-.1c.2-.1.4-.2.5-.4ZM166,581v-.6c-.2.2-.4.4-.7.5-.3.1-.6.2-.9.2s-.5,0-.8-.1c-.2,0-.5-.2-.6-.5-.2-.2-.2-.5-.2-.9,0-.5.2-.9.5-1.2.4-.3.9-.4,1.5-.4s.3,0,.4,0c.2,0,.3,0,.4,0,.1,0,.2,0,.2,0v-.2c0-.3-.1-.6-.3-.7-.2-.2-.5-.2-.8-.2s-.6,0-.8.1c-.2,0-.4.2-.5.3l-.4-.6c.2-.1.4-.3.7-.4.3-.1.7-.2,1.2-.2s1.1.1,1.4.4c.3.3.5.7.5,1.2v2.9c0,0,0,.1,0,.2h-.8ZM166,579.3v-.5s-.1,0-.2,0c-.1,0-.3,0-.4,0-.1,0-.3,0-.4,0-.3,0-.6,0-.8.2-.2,0-.3.2-.4.4,0,.1,0,.3,0,.4,0,.2,0,.4.3.6.2.1.4.2.7.2s.4,0,.6-.1c.2-.1.4-.2.5-.4.1-.2.2-.3.2-.5ZM168.4,579.5v-2.4h-.8v-.8h.8v-1.5h.9v1.5h1.4v.8h-1.4v2.3c0,.4,0,.6.2.8.1.1.3.2.5.2s.3,0,.4,0c.1,0,.2-.1.3-.2l.4.5c-.2.2-.4.3-.6.4-.2,0-.4.1-.7.1-.5,0-.8-.1-1.1-.4-.2-.3-.4-.7-.4-1.2ZM173.7,581.1c-.5,0-.9-.1-1.3-.3-.4-.2-.7-.5-.9-.9-.2-.4-.3-.8-.3-1.2s.1-.9.3-1.2c.2-.4.5-.7.9-.9.4-.2.8-.3,1.3-.3s.9.1,1.3.3c.4.2.7.5.9.9.2.4.3.8.3,1.2s-.1.9-.3,1.2c-.2.4-.5.7-.9.9-.4.2-.8.3-1.3.3ZM173.7,580.4c.3,0,.6,0,.8-.2.2-.2.4-.4.5-.6.1-.3.2-.5.2-.8s0-.5-.2-.8c-.1-.3-.3-.5-.5-.6-.2-.2-.5-.2-.8-.2s-.6,0-.8.2c-.2.2-.4.4-.5.6-.1.3-.2.5-.2.8s0,.5.2.8c.1.3.3.5.5.6.2.2.5.2.8.2ZM178,581h-.9v-4.4c0,0,0-.2,0-.3h.9v.8c.1-.1.2-.2.3-.3.1-.1.3-.2.5-.3.2,0,.4-.1.7-.1s.2,0,.3,0c0,0,.2,0,.2,0l-.2.8c-.1,0-.3,0-.5,0s-.5,0-.7.2c-.2.1-.4.3-.5.5-.1.2-.2.4-.2.7v2.5ZM184.5,581.1c-.5,0-.9-.1-1.3-.3-.4-.2-.7-.5-.9-.9-.2-.4-.3-.8-.3-1.2s.1-.9.3-1.2c.2-.4.5-.7.9-.9.4-.2.8-.3,1.3-.3s.9.1,1.3.3c.4.2.7.5.9.9s.3.8.3,1.2-.1.9-.3,1.2c-.2.4-.5.7-.9.9-.4.2-.8.3-1.3.3ZM184.5,580.4c.3,0,.6,0,.8-.2.2-.2.4-.4.5-.6.1-.3.2-.5.2-.8s0-.5-.2-.8c-.1-.3-.3-.5-.5-.6-.2-.2-.5-.2-.8-.2s-.6,0-.8.2c-.2.2-.4.4-.5.6-.1.3-.2.5-.2.8s0,.5.2.8c.1.3.3.5.5.6.2.2.5.2.8.2ZM188.3,581v-3.9h-.8v-.8h.8v-.4c0-.4,0-.8.2-1,.2-.3.4-.5.6-.6.2-.1.5-.2.8-.2s.5,0,.7.1c.2,0,.5.2.7.4l-.5.6c-.2-.2-.5-.3-.8-.3s-.5,0-.6.2c-.2.2-.2.5-.2.9v.3h1.3v.8h-1.3v3.9h-.9ZM193.2,581v-3.9h-.8v-.8h.8v-.4c0-.4,0-.8.2-1,.2-.3.4-.5.6-.6.2-.1.5-.2.8-.2s.5,0,.7.1c.2,0,.5.2.7.4l-.4.6c-.2-.2-.5-.3-.8-.3s-.5,0-.6.2c-.2.2-.2.5-.2.9v.3h1.3v.8h-1.3v3.9h-.9ZM196,579.1v-2.8h.9v2.7c0,.4,0,.8.3,1,.2.2.4.3.8.3s.6,0,.8-.3c.2-.2.3-.4.4-.7,0-.3.1-.6.1-.9v-2.2h.9v4.4c0,0,0,.2,0,.3h-.9v-.7c-.1.1-.2.2-.3.3-.1.1-.3.2-.5.3-.2,0-.4.1-.7.1-.6,0-1.1-.2-1.3-.5-.3-.4-.4-.8-.4-1.4ZM201.8,579.5v-2.4h-.8v-.8h.8v-1.5h.9v1.5h1.4v.8h-1.4v2.3c0,.4,0,.6.2.8.1.1.3.2.5.2s.3,0,.4,0c.1,0,.2-.1.3-.2l.4.5c-.2.2-.4.3-.6.4-.2,0-.4.1-.7.1-.5,0-.8-.1-1.1-.4-.2-.3-.3-.7-.3-1.2ZM205,579.1v-2.8h.9v2.7c0,.4,0,.8.3,1,.2.2.4.3.8.3s.6,0,.8-.3c.2-.2.3-.4.4-.7,0-.3.1-.6.1-.9v-2.2h.9v4.4c0,0,0,.2,0,.3h-.9v-.7c-.1.1-.2.2-.3.3-.1.1-.3.2-.5.3-.2,0-.4.1-.7.1-.6,0-1.1-.2-1.3-.5-.3-.4-.4-.8-.4-1.4ZM211.2,581h-.9v-4.4c0,0,0-.2,0-.3h.9v.8c.1-.1.2-.2.3-.3.1-.1.3-.2.5-.3.2,0,.4-.1.7-.1s.2,0,.3,0c0,0,.2,0,.2,0l-.2.8c-.1,0-.3,0-.5,0s-.5,0-.7.2c-.2.1-.4.3-.5.5-.1.2-.2.4-.2.7v2.5ZM217.3,579.8l.5.5c0,0-.2.2-.4.3-.2.1-.4.2-.7.3-.3.1-.6.2-1,.2s-.9-.1-1.3-.3c-.4-.2-.7-.5-.9-.9-.2-.4-.3-.8-.3-1.3s0-.9.3-1.2c.2-.4.5-.7.8-.9.4-.2.8-.3,1.2-.3s1,.1,1.3.4c.3.3.6.6.7,1,.2.4.2.9.2,1.3h-3.7c0,.3,0,.5.2.7.1.2.3.4.6.5.2.1.5.2.8.2.4,0,.7,0,1-.2.3-.1.4-.3.6-.4ZM214.3,578.3h2.7c0-.4-.2-.7-.4-.9-.2-.3-.5-.4-1-.4s-.5,0-.7.2c-.2.1-.4.3-.5.5-.1.2-.2.4-.2.6ZM221.5,583h-.9v-6.3c0,0,0-.2,0-.3h.9v.7c0,0,.2-.2.3-.3.1-.1.3-.2.5-.3.2,0,.5-.1.8-.1.5,0,.9.1,1.2.3.3.2.5.5.7.9.2.4.2.8.2,1.2s0,.8-.2,1.1c-.1.3-.3.6-.6.8-.2.2-.5.3-.8.4-.3,0-.6.1-.8.1s-.6,0-.8-.1c-.2,0-.4-.1-.5-.2v2.2ZM221.5,578.8v1.2c.1,0,.3.2.5.2s.4.1.8.1.6,0,.8-.2c.2-.1.4-.3.5-.6.1-.3.2-.5.2-.8s0-.6-.1-.8c0-.3-.2-.5-.4-.6s-.5-.2-.8-.2-.6,0-.8.3c-.2.2-.4.4-.5.8,0,.1,0,.2,0,.3,0,.1,0,.2,0,.4ZM229.8,579.8l.5.5c0,0-.2.2-.4.3-.2.1-.4.2-.7.3-.3.1-.6.2-1,.2s-.9-.1-1.3-.3c-.4-.2-.7-.5-.9-.9-.2-.4-.3-.8-.3-1.3s0-.9.3-1.2c.2-.4.5-.7.8-.9.4-.2.8-.3,1.2-.3s1,.1,1.3.4c.3.3.6.6.7,1,.2.4.2.9.2,1.3h-3.7c0,.3,0,.5.2.7.1.2.3.4.5.5.2.1.5.2.8.2.4,0,.7,0,1-.2.3-.1.4-.3.6-.4ZM226.7,578.3h2.7c0-.4-.2-.7-.4-.9-.2-.3-.5-.4-1-.4s-.5,0-.7.2c-.2.1-.4.3-.5.5-.1.2-.2.4-.2.6ZM232.2,581h-.9v-4.4c0,0,0-.2,0-.3h.9v.8c.1-.1.2-.2.3-.3.1-.1.3-.2.5-.3.2,0,.4-.1.7-.1s.2,0,.3,0c0,0,.2,0,.2,0l-.2.8c-.1,0-.3,0-.5,0s-.5,0-.7.2c-.2.1-.4.3-.5.5-.1.2-.2.4-.2.7v2.5ZM235.2,581v-3.9h-.8v-.8h.8v-.4c0-.4,0-.8.2-1,.2-.3.4-.5.6-.6.2-.1.5-.2.8-.2s.5,0,.7.1c.2,0,.5.2.7.4l-.4.6c-.2-.2-.5-.3-.8-.3s-.5,0-.6.2c-.2.2-.2.5-.2.9v.3h1.3v.8h-1.3v3.9h-.9ZM240.1,581.1c-.5,0-.9-.1-1.3-.3-.4-.2-.7-.5-.9-.9-.2-.4-.3-.8-.3-1.2s.1-.9.3-1.2c.2-.4.5-.7.9-.9.4-.2.8-.3,1.3-.3s.9.1,1.3.3c.4.2.7.5.9.9s.3.8.3,1.2-.1.9-.3,1.2c-.2.4-.5.7-.9.9-.4.2-.8.3-1.3.3ZM240.1,580.4c.3,0,.6,0,.8-.2.2-.2.4-.4.5-.6.1-.3.2-.5.2-.8s0-.5-.2-.8c-.1-.3-.3-.5-.5-.6-.2-.2-.5-.2-.8-.2s-.6,0-.8.2c-.2.2-.4.4-.5.6-.1.3-.2.5-.2.8s0,.5.2.8c.1.3.3.5.5.6.2.2.5.2.8.2ZM244.4,581h-.9v-4.4c0,0,0-.2,0-.3h.9v.8c.1-.1.2-.2.3-.3.1-.1.3-.2.5-.3.2,0,.4-.1.7-.1s.2,0,.3,0c0,0,.2,0,.2,0l-.2.8c-.1,0-.3,0-.5,0s-.5,0-.7.2c-.2.1-.4.3-.5.5-.1.2-.2.4-.2.7v2.5ZM247.9,581h-.9v-4.3c0,0,0-.2,0-.3h.9v.7c.1-.1.2-.2.3-.3.1-.1.3-.2.5-.3.2,0,.4-.1.7-.1s.7,0,.9.2c.2.1.4.3.6.6.2-.2.4-.4.7-.6.3-.2.6-.3,1-.3.6,0,1,.2,1.3.5.3.4.4.8.4,1.4v2.8h-.9v-2.7c0-.8-.3-1.3-1-1.3s-.5,0-.7.2c-.2.1-.3.3-.5.5-.1.2-.2.4-.2.7v2.6h-.9v-2.7c0-.4,0-.8-.3-1-.2-.2-.4-.3-.7-.3s-.6,0-.8.3c-.2.2-.3.4-.4.7,0,.3-.1.6-.1.9v2.2ZM258.4,581v-.6c-.2.2-.4.4-.7.5-.3.1-.6.2-.9.2s-.5,0-.8-.1c-.2,0-.5-.2-.6-.5-.2-.2-.2-.5-.2-.9,0-.5.2-.9.5-1.2.4-.3.9-.4,1.5-.4s.3,0,.5,0c.2,0,.3,0,.4,0,.1,0,.2,0,.2,0v-.2c0-.3-.1-.6-.3-.7-.2-.2-.5-.2-.9-.2s-.6,0-.8.1c-.2,0-.4.2-.5.3l-.4-.6c.2-.1.4-.3.7-.4.3-.1.7-.2,1.2-.2s1.1.1,1.4.4c.3.3.5.7.5,1.2v2.9c0,0,0,.1,0,.2h-.8ZM258.3,579.3v-.5s-.1,0-.2,0c-.1,0-.3,0-.4,0-.1,0-.3,0-.4,0-.3,0-.6,0-.8.2-.2,0-.3.2-.4.4,0,.1,0,.3,0,.4,0,.2,0,.4.3.6.2.1.4.2.7.2s.4,0,.6-.1c.2-.1.4-.2.5-.4.1-.2.2-.3.2-.5ZM261.2,581h-.9v-4.3c0,0,0-.2,0-.3h.9v.7c.1-.1.2-.2.4-.3.1-.1.3-.2.5-.3.2,0,.5-.1.7-.1.6,0,1.1.2,1.4.5.3.4.4.8.4,1.4v2.8h-.9v-2.7c0-.4,0-.8-.3-1-.2-.2-.4-.3-.8-.3s-.6,0-.8.3c-.2.2-.3.4-.4.7,0,.3-.1.6-.1.9v2.2ZM269.1,579.8l.5.6c-.2.2-.5.4-.8.6-.3.1-.7.2-1,.2s-.9-.1-1.3-.3c-.4-.2-.6-.5-.8-.9-.2-.4-.3-.8-.3-1.3s.1-.9.3-1.2.5-.7.9-.9c.4-.2.8-.3,1.3-.3s.7,0,1,.2c.3.1.6.3.8.6l-.6.6c-.1-.2-.3-.3-.5-.4-.2-.1-.4-.2-.7-.2s-.6,0-.8.2c-.2.2-.4.4-.5.6-.1.3-.2.5-.2.8s0,.6.2.8c.1.3.3.5.5.6.2.2.5.2.8.2s.5,0,.7-.1c.2-.1.4-.2.5-.4ZM273.9,579.8l.5.5c0,0-.2.2-.4.3-.2.1-.4.2-.7.3-.3.1-.6.2-1,.2s-.9-.1-1.3-.3c-.4-.2-.7-.5-.9-.9-.2-.4-.3-.8-.3-1.3s0-.9.3-1.2c.2-.4.5-.7.8-.9.4-.2.8-.3,1.2-.3s1,.1,1.3.4c.3.3.6.6.7,1,.2.4.2.9.2,1.3h-3.7c0,.3,0,.5.2.7.1.2.3.4.6.5.2.1.5.2.8.2.4,0,.7,0,1-.2.3-.1.4-.3.5-.4ZM270.9,578.3h2.7c0-.4-.2-.7-.4-.9-.2-.3-.5-.4-1-.4s-.5,0-.7.2c-.2.1-.4.3-.5.5-.1.2-.2.4-.2.6ZM275.6,581v-1.1h1.1v1.1h-1.1ZM83,590v-6.7h1v6.7h-1ZM85,589.4l.5-.6c.2.2.4.3.6.4.2.1.5.2.8.2s.5,0,.8-.1c.2,0,.3-.3.3-.5s0-.3-.1-.4c0,0-.2-.2-.4-.2-.2,0-.5-.2-.8-.2-.2,0-.5-.1-.7-.2-.2-.1-.4-.2-.6-.4-.1-.2-.2-.4-.2-.7s0-.6.3-.8c.2-.2.4-.4.7-.5.3-.1.6-.2.9-.2s.7,0,1,.2c.3.1.5.2.7.4l-.5.6c-.1-.1-.3-.2-.5-.3-.2,0-.4-.1-.7-.1s-.5,0-.7.1c-.2,0-.3.2-.3.5s.1.3.3.5c.2,0,.5.2.9.3.3,0,.6.2.8.3.2.1.4.3.6.4.1.2.2.4.2.7s0,.6-.3.8c-.2.2-.4.4-.7.5-.3.1-.6.2-.9.2-.9,0-1.5-.2-2-.7ZM89.7,589.4l.5-.6c.2.2.4.3.6.4.2.1.5.2.8.2s.5,0,.8-.1c.2,0,.3-.3.3-.5s0-.3-.1-.4c0,0-.2-.2-.4-.2-.2,0-.5-.2-.8-.2-.2,0-.5-.1-.7-.2-.2-.1-.4-.2-.6-.4-.1-.2-.2-.4-.2-.7s0-.6.3-.8c.2-.2.4-.4.7-.5.3-.1.6-.2.9-.2s.7,0,1,.2c.3.1.5.2.7.4l-.5.6c-.1-.1-.3-.2-.5-.3-.2,0-.4-.1-.7-.1s-.5,0-.7.1c-.2,0-.3.2-.3.5s.1.3.3.5c.2,0,.5.2.9.3.3,0,.6.2.8.3.2.1.4.3.6.4.1.2.2.4.2.7s0,.6-.3.8c-.2.2-.4.4-.7.5-.3.1-.6.2-1,.2-.9,0-1.5-.2-2-.7ZM94.5,588.1v-2.8h.9v2.7c0,.4,0,.8.3,1,.2.2.4.3.8.3s.6,0,.8-.3c.2-.2.3-.4.4-.7,0-.3.1-.6.1-.9v-2.2h.9v4.4c0,0,0,.2,0,.3h-.9v-.7c-.1.1-.2.2-.3.3-.1.1-.3.2-.5.3-.2,0-.4.1-.7.1-.6,0-1.1-.2-1.3-.5-.3-.4-.4-.8-.4-1.4ZM103.6,588.8l.5.5c0,0-.2.2-.4.3-.2.1-.4.2-.7.3-.3.1-.6.2-1,.2s-.9-.1-1.3-.3c-.4-.2-.7-.5-.9-.9-.2-.4-.3-.8-.3-1.3s0-.9.3-1.2c.2-.4.5-.7.8-.9.4-.2.8-.3,1.2-.3s1,.1,1.3.4c.3.3.6.6.7,1,.2.4.2.9.2,1.3h-3.7c0,.3,0,.5.2.7.1.2.3.4.6.5.2.1.5.2.8.2.4,0,.7,0,1-.2.3-.1.4-.3.5-.4ZM100.5,587.3h2.7c0-.4-.2-.7-.4-.9-.2-.3-.5-.4-1-.4s-.5,0-.7.2c-.2.1-.4.3-.5.5-.1.2-.2.4-.2.6ZM108.5,590v-.6c0,0-.2.1-.3.3-.1.1-.3.2-.5.3-.2,0-.5.1-.8.1s-.7,0-1.1-.3c-.3-.2-.6-.5-.7-.8s-.3-.8-.3-1.3,0-.8.2-1.1c.2-.3.3-.6.6-.8s.5-.3.8-.4c.3-.1.5-.2.8-.2s.5,0,.7,0c.2,0,.4.1.6.2v-2.2h.9v6.4c0,0,0,.2,0,.3h-.9ZM108.5,588v-1.7c-.1,0-.3-.2-.5-.2-.2,0-.4,0-.7,0-.4,0-.8.2-1.1.5-.3.3-.4.7-.4,1.3s0,.6.1.8c0,.2.2.4.5.6.2.1.5.2.8.2s.6,0,.8-.2c.2-.1.3-.3.4-.5,0-.2.1-.4.1-.6ZM112.2,589.8v-6.5h.9v2.5c0-.1.3-.3.5-.4.2-.1.6-.2.9-.2s.8.1,1.2.3c.3.2.6.5.7.9.2.4.2.8.2,1.2s-.1.9-.3,1.3c-.2.4-.5.7-.9.9-.4.2-.8.3-1.4.3s-.7,0-1.1,0c-.3,0-.6-.1-.8-.2ZM113.1,587.4v1.8c0,0,.2,0,.3,0,.1,0,.3,0,.6,0,.5,0,.9-.2,1.2-.5.3-.3.5-.7.5-1.2s0-.6-.1-.8c0-.2-.2-.4-.4-.6-.2-.2-.5-.2-.8-.2s-.5,0-.7.2c-.2.1-.3.3-.4.5,0,.2-.1.4-.1.7ZM116.9,591.8l.4-.6c0,0,.1.1.2.2s.2,0,.3,0c.2,0,.4,0,.5-.3.1-.2.2-.5.4-.8v-.3c.1,0-2-4.6-2-4.6h1l1.5,3.5,1.3-3.5h1l-1.9,4.5c0,.2-.2.4-.3.7,0,.3-.2.5-.3.7-.1.2-.3.4-.5.6-.2.2-.4.2-.7.2s-.4,0-.6,0c-.2,0-.3-.1-.4-.2ZM124.1,590v-6.7h1v2.8h3.6v-2.8h1v6.7h-1v-3h-3.6v3h-1ZM133.2,590.1c-.5,0-.9-.1-1.3-.3-.4-.2-.7-.5-.9-.9-.2-.4-.3-.8-.3-1.2s.1-.9.3-1.2c.2-.4.5-.7.9-.9.4-.2.8-.3,1.3-.3s.9.1,1.3.3c.4.2.7.5.9.9s.3.8.3,1.2-.1.9-.3,1.2c-.2.4-.5.7-.9.9-.4.2-.8.3-1.3.3ZM133.2,589.4c.3,0,.6,0,.8-.2.2-.2.4-.4.5-.6.1-.3.2-.5.2-.8s0-.5-.2-.8c-.1-.3-.3-.5-.5-.6-.2-.2-.5-.2-.8-.2s-.6,0-.8.2c-.2.2-.4.4-.5.6-.1.3-.2.5-.2.8s0,.5.2.8c.1.3.3.5.5.6.2.2.5.2.8.2ZM136.3,589.4l.6-.6c.2.2.4.3.6.4.2.1.5.2.8.2s.5,0,.8-.1c.2,0,.3-.3.3-.5s0-.3-.1-.4c0,0-.2-.2-.4-.2-.2,0-.5-.2-.8-.2-.2,0-.5-.1-.7-.2-.2-.1-.4-.2-.6-.4-.1-.2-.2-.4-.2-.7s0-.6.3-.8c.2-.2.4-.4.7-.5.3-.1.6-.2.9-.2s.7,0,1,.2c.3.1.5.2.7.4l-.5.6c-.1-.1-.3-.2-.5-.3-.2,0-.4-.1-.7-.1s-.5,0-.7.1c-.2,0-.3.2-.3.5s.1.3.4.5c.2,0,.5.2.9.3.3,0,.6.2.8.3.2.1.4.3.6.4.1.2.2.4.2.7s0,.6-.3.8c-.2.2-.4.4-.7.5-.3.1-.6.2-1,.2-.9,0-1.5-.2-2-.7ZM141.6,588.5v-2.4h-.8v-.8h.8v-1.5h.9v1.5h1.4v.8h-1.4v2.3c0,.4,0,.6.2.8.1.1.3.2.5.2s.3,0,.4,0c.1,0,.2-.1.3-.2l.4.5c-.2.2-.4.3-.6.4-.2,0-.4.1-.7.1-.5,0-.8-.1-1.1-.4-.2-.3-.3-.7-.3-1.2ZM144.7,587.6v-.9h2.9v.9h-2.9ZM149.1,590v-6.7h2.1c.5,0,.8,0,1.1.2.3.1.5.3.7.5.2.2.3.4.4.7,0,.2.1.5.1.7,0,.4,0,.8-.3,1.1-.2.3-.5.5-.8.7-.3.2-.7.2-1.2.2h-1.2v2.6h-.9ZM150,586.6h1.2c.4,0,.7-.1.9-.3.2-.2.3-.5.3-.9s-.1-.7-.3-.9c-.2-.2-.5-.3-.9-.3h-1.2v2.4ZM154.3,590v-6.7h.9v6.7h-.9ZM156.3,588.1v-2.8h.9v2.7c0,.4,0,.8.3,1,.2.2.4.3.8.3s.6,0,.8-.3c.2-.2.3-.4.4-.7,0-.3.1-.6.1-.9v-2.2h.9v4.4c0,0,0,.2,0,.3h-.9v-.7c-.1.1-.2.2-.3.3-.1.1-.3.2-.5.3-.2,0-.4.1-.7.1-.6,0-1.1-.2-1.3-.5-.3-.4-.4-.8-.4-1.4ZM161.4,589.4l.6-.6c.2.2.4.3.6.4.2.1.5.2.8.2s.5,0,.8-.1c.2,0,.3-.3.3-.5s0-.3-.1-.4c0,0-.2-.2-.4-.2-.2,0-.5-.2-.8-.2-.2,0-.5-.1-.7-.2-.2-.1-.4-.2-.6-.4-.1-.2-.2-.4-.2-.7s0-.6.3-.8c.2-.2.4-.4.7-.5.3-.1.6-.2.9-.2s.7,0,1,.2c.3.1.5.2.7.4l-.5.6c-.1-.1-.3-.2-.5-.3-.2,0-.4-.1-.7-.1s-.5,0-.7.1c-.2,0-.3.2-.3.5s.1.3.4.5c.2,0,.5.2.9.3.3,0,.6.2.8.3.2.1.4.3.6.4.1.2.2.4.2.7s0,.6-.3.8c-.2.2-.4.4-.7.5-.3.1-.6.2-.9.2-.9,0-1.5-.2-2-.7ZM168.1,590v-6.7h2.1c.5,0,.8,0,1.1.2.3.1.5.3.7.5.2.2.3.4.4.7,0,.2.1.5.1.7,0,.4,0,.8-.3,1.1-.2.3-.5.5-.8.7-.3.2-.7.2-1.2.2h-1.2v2.6h-.9ZM169,586.6h1.2c.4,0,.7-.1.9-.3.2-.2.3-.5.3-.9s-.1-.7-.4-.9c-.2-.2-.5-.3-.9-.3h-1.2v2.4ZM173.9,588.5v-2.4h-.8v-.8h.8v-1.5h.9v1.5h1.4v.8h-1.4v2.3c0,.4,0,.6.2.8.1.1.3.2.5.2s.3,0,.4,0c.1,0,.2-.1.3-.2l.4.5c-.2.2-.4.3-.6.4-.2,0-.4.1-.7.1-.5,0-.8-.1-1.1-.4-.2-.3-.3-.7-.3-1.2ZM176.7,591.8l.4-.6c0,0,.1.1.2.2,0,0,.2,0,.3,0,.2,0,.4,0,.5-.3.1-.2.2-.5.4-.8v-.3c.1,0-2-4.6-2-4.6h1l1.5,3.5,1.3-3.5h1l-1.9,4.5c0,.2-.2.4-.3.7,0,.3-.2.5-.3.7-.1.2-.3.4-.5.6-.2.2-.4.2-.7.2s-.4,0-.6,0c-.2,0-.3-.1-.4-.2ZM183.8,590v-6.7h1v5.8h3.5v.8h-4.4ZM189,584.5v-1h1v1h-1ZM189.1,590v-4.7h.9v4.7h-.9ZM192.1,590h-.9v-4.3c0,0,0-.2,0-.3h.9v.7c.1-.1.2-.2.3-.3.1-.1.3-.2.5-.3.2,0,.4-.1.7-.1s.7,0,.9.2c.2.1.4.3.6.6.2-.2.4-.4.7-.6.3-.2.6-.3,1-.3.6,0,1,.2,1.3.5.3.4.4.8.4,1.4v2.8h-.9v-2.7c0-.8-.3-1.3-1-1.3s-.5,0-.7.2c-.2.1-.3.3-.5.5-.1.2-.2.4-.2.7v2.6h-.9v-2.7c0-.4,0-.8-.3-1-.2-.2-.4-.3-.7-.3s-.6,0-.8.3c-.2.2-.3.4-.4.7,0,.3-.1.6-.1.9v2.2ZM199.6,584.5v-1h1v1h-1ZM199.6,590v-4.7h.9v4.7h-.9ZM202.1,588.5v-2.4h-.8v-.8h.8v-1.5h.9v1.5h1.4v.8h-1.4v2.3c0,.4,0,.6.2.8.1.1.3.2.5.2s.3,0,.4,0c.1,0,.2-.1.3-.2l.4.5c-.2.2-.4.3-.6.4-.2,0-.4.1-.7.1-.5,0-.8-.1-1.1-.4-.2-.3-.3-.7-.3-1.2ZM208.9,588.8l.5.5c0,0-.2.2-.4.3-.2.1-.4.2-.7.3-.3.1-.6.2-1,.2s-.9-.1-1.3-.3c-.4-.2-.7-.5-.9-.9-.2-.4-.3-.8-.3-1.3s0-.9.3-1.2c.2-.4.5-.7.8-.9.4-.2.8-.3,1.2-.3s1,.1,1.3.4c.3.3.6.6.7,1,.2.4.2.9.2,1.3h-3.7c0,.3,0,.5.2.7.1.2.3.4.6.5.2.1.5.2.8.2.4,0,.7,0,1-.2.3-.1.4-.3.6-.4ZM205.8,587.3h2.7c0-.4-.2-.7-.4-.9-.2-.3-.5-.4-1-.4s-.5,0-.7.2c-.2.1-.4.3-.5.5-.1.2-.2.4-.2.6ZM213.8,590v-.6c0,0-.2.1-.3.3-.1.1-.3.2-.5.3-.2,0-.5.1-.8.1s-.7,0-1.1-.3c-.3-.2-.6-.5-.7-.8-.2-.4-.3-.8-.3-1.3s0-.8.2-1.1c.2-.3.3-.6.6-.8.2-.2.5-.3.8-.4.3-.1.5-.2.8-.2s.5,0,.6,0c.2,0,.4.1.6.2v-2.2h.9v6.4c0,0,0,.2,0,.3h-.9ZM213.7,588v-1.7c-.1,0-.3-.2-.5-.2-.2,0-.4,0-.7,0-.4,0-.8.2-1.1.5-.3.3-.4.7-.4,1.3s0,.6.1.8c0,.2.2.4.4.6.2.1.5.2.8.2s.6,0,.8-.2c.2-.1.3-.3.4-.5,0-.2.1-.4.1-.6ZM215.9,590v-1.1h1.1v1.1h-1.1Z" fill="#99a9bb" stroke-width="0"/>
</svg>