<?xml version="1.0" encoding="utf-8"?>
<!-- Generator: Adobe Illustrator 27.7.0, SVG Export Plug-In . SVG Version: 6.00 Build 0)  -->
<svg version="1.1" id="Layer_1" xmlns="http://www.w3.org/2000/svg" xmlns:xlink="http://www.w3.org/1999/xlink" x="0px" y="0px"
	 viewBox="0 0 970 250" style="enable-background:new 0 0 970 250;" xml:space="preserve">
<style type="text/css">
	.st0{fill:#FFFFFF;}
	.st1{fill:#99A9BB;}
</style>
<path class="st0" d="M953.7,17.8l-4.9,5l4.7,4.9l-1.8,1.8l-4.7-4.8l-4.8,5l-1.8-1.8l4.9-5l-4.9-5l1.8-1.8l4.8,5l4.8-5L953.7,17.8z"
	/>
<path class="st1" d="M15.1,51l3.1-8h1.2l3.1,8h-1.3l-0.8-2.2h-3.3L16.4,51H15.1z M17.5,47.8h2.6l-1.3-3.5L17.5,47.8z M24.4,51
	l-1.9-5.6h1.2l1.2,4.3l1.3-4.3h0.9l1.3,4.3l1.2-4.3h1.1L29,51H28l-1.3-3.9L25.4,51H24.4z M35.3,51l0-0.7c-0.2,0.3-0.5,0.5-0.8,0.6
	c-0.3,0.1-0.7,0.2-1,0.2c-0.3,0-0.6-0.1-0.9-0.2c-0.3-0.1-0.5-0.3-0.7-0.6c-0.2-0.3-0.3-0.6-0.3-1c0-0.6,0.2-1.1,0.6-1.4
	c0.4-0.4,1-0.5,1.8-0.5c0.2,0,0.4,0,0.5,0c0.2,0,0.4,0,0.5,0c0.2,0,0.3,0,0.3,0v-0.2c0-0.4-0.1-0.7-0.4-0.9c-0.2-0.2-0.6-0.3-1-0.3
	c-0.4,0-0.8,0.1-1,0.2c-0.2,0.1-0.5,0.2-0.6,0.3l-0.5-0.7c0.2-0.2,0.5-0.3,0.8-0.5c0.4-0.2,0.8-0.2,1.4-0.2c0.7,0,1.3,0.2,1.7,0.5
	c0.4,0.3,0.6,0.8,0.6,1.5v3.3c0,0.1,0,0.1,0,0.2c0,0.1,0,0.2,0,0.3H35.3z M35.2,49v-0.6c0,0-0.1,0-0.3,0c-0.1,0-0.3,0-0.5,0
	c-0.2,0-0.3,0-0.5,0c-0.4,0-0.7,0.1-0.9,0.2c-0.2,0.1-0.4,0.3-0.4,0.4c-0.1,0.2-0.1,0.3-0.1,0.5c0,0.3,0.1,0.5,0.3,0.7
	s0.5,0.2,0.9,0.2c0.3,0,0.5-0.1,0.8-0.2c0.2-0.1,0.4-0.3,0.6-0.5C35.2,49.4,35.2,49.2,35.2,49z M38.8,51h-1.1v-5c0-0.1,0-0.1,0-0.2
	c0-0.1,0-0.2,0-0.3h1l0,0.9c0.1-0.1,0.2-0.3,0.4-0.4c0.2-0.2,0.4-0.3,0.6-0.4c0.2-0.1,0.5-0.2,0.9-0.2c0.1,0,0.2,0,0.3,0
	c0.1,0,0.2,0,0.3,0.1l-0.2,1c-0.1-0.1-0.3-0.1-0.6-0.1c-0.3,0-0.6,0.1-0.8,0.2c-0.2,0.2-0.4,0.4-0.6,0.6c-0.1,0.3-0.2,0.5-0.2,0.9
	V51z M45.9,51l0-0.7c-0.1,0.1-0.2,0.2-0.3,0.3c-0.1,0.1-0.3,0.3-0.6,0.4c-0.2,0.1-0.6,0.2-0.9,0.2c-0.5,0-0.9-0.1-1.3-0.3
	c-0.4-0.2-0.7-0.6-0.9-1s-0.3-0.9-0.3-1.5c0-0.5,0.1-1,0.3-1.4c0.2-0.4,0.4-0.7,0.7-0.9c0.3-0.2,0.6-0.4,0.9-0.5
	c0.3-0.1,0.7-0.2,0.9-0.2c0.3,0,0.6,0,0.8,0.1c0.2,0.1,0.4,0.2,0.7,0.3V43h1.1v7.4c0,0,0,0.1,0,0.2c0,0.1,0,0.2,0,0.3H45.9z
	 M45.8,48.6v-2c-0.1-0.1-0.3-0.2-0.6-0.3c-0.2-0.1-0.5-0.1-0.8-0.1c-0.5,0-1,0.2-1.3,0.6c-0.3,0.4-0.5,0.9-0.5,1.5
	c0,0.4,0.1,0.7,0.2,1c0.1,0.3,0.3,0.5,0.5,0.7c0.2,0.2,0.5,0.3,0.9,0.3c0.4,0,0.7-0.1,0.9-0.3c0.2-0.2,0.4-0.4,0.5-0.6
	C45.8,49.1,45.8,48.9,45.8,48.6z M48.1,50.3l0.7-0.7c0.2,0.2,0.4,0.4,0.7,0.5c0.3,0.1,0.6,0.2,1,0.2c0.4,0,0.7-0.1,0.9-0.2
	c0.2-0.1,0.4-0.3,0.4-0.6c0-0.2,0-0.3-0.1-0.4s-0.3-0.2-0.5-0.3c-0.2-0.1-0.6-0.2-1-0.3c-0.3-0.1-0.6-0.2-0.8-0.3
	c-0.3-0.1-0.5-0.3-0.7-0.5c-0.2-0.2-0.3-0.5-0.3-0.9c0-0.4,0.1-0.7,0.3-0.9c0.2-0.2,0.5-0.4,0.8-0.6c0.3-0.1,0.7-0.2,1.1-0.2
	c0.5,0,0.9,0.1,1.2,0.2c0.3,0.1,0.6,0.3,0.9,0.5l-0.6,0.7c-0.2-0.2-0.4-0.3-0.6-0.4c-0.2-0.1-0.5-0.2-0.9-0.2
	c-0.3,0-0.6,0.1-0.8,0.2s-0.3,0.3-0.3,0.6c0,0.2,0.1,0.4,0.4,0.5c0.3,0.1,0.6,0.2,1.1,0.3c0.4,0.1,0.7,0.2,0.9,0.3
	c0.3,0.1,0.5,0.3,0.7,0.5c0.2,0.2,0.3,0.5,0.3,0.9c0,0.4-0.1,0.7-0.3,0.9c-0.2,0.2-0.5,0.4-0.9,0.6c-0.4,0.1-0.7,0.2-1.1,0.2
	C49.4,51.2,48.6,50.9,48.1,50.3z M59.8,51l0-0.7c-0.2,0.3-0.5,0.5-0.8,0.6c-0.3,0.1-0.7,0.2-1,0.2c-0.3,0-0.6-0.1-0.9-0.2
	c-0.3-0.1-0.5-0.3-0.7-0.6c-0.2-0.3-0.3-0.6-0.3-1c0-0.6,0.2-1.1,0.6-1.4c0.4-0.4,1-0.5,1.8-0.5c0.2,0,0.4,0,0.5,0
	c0.2,0,0.4,0,0.5,0c0.2,0,0.3,0,0.3,0v-0.2c0-0.4-0.1-0.7-0.4-0.9c-0.2-0.2-0.6-0.3-1-0.3c-0.4,0-0.8,0.1-1,0.2
	c-0.2,0.1-0.5,0.2-0.6,0.3l-0.5-0.7c0.2-0.2,0.5-0.3,0.8-0.5c0.4-0.2,0.8-0.2,1.4-0.2c0.7,0,1.3,0.2,1.7,0.5
	c0.4,0.3,0.6,0.8,0.6,1.5v3.3c0,0.1,0,0.1,0,0.2c0,0.1,0,0.2,0,0.3H59.8z M59.7,49v-0.6c0,0-0.1,0-0.3,0c-0.1,0-0.3,0-0.5,0
	c-0.2,0-0.3,0-0.5,0c-0.4,0-0.7,0.1-0.9,0.2c-0.2,0.1-0.4,0.3-0.4,0.4C57,49,57,49.2,57,49.4c0,0.3,0.1,0.5,0.3,0.7
	c0.2,0.2,0.5,0.2,0.9,0.2c0.3,0,0.5-0.1,0.8-0.2c0.2-0.1,0.4-0.3,0.6-0.5C59.6,49.4,59.7,49.2,59.7,49z M63.3,51h-1.1v-5
	c0-0.1,0-0.1,0-0.2c0-0.1,0-0.2,0-0.4h1l0,0.8c0.1-0.1,0.2-0.3,0.4-0.4c0.2-0.2,0.4-0.3,0.6-0.4c0.2-0.1,0.5-0.2,0.9-0.2
	c0.7,0,1.3,0.2,1.6,0.6c0.4,0.4,0.5,1,0.5,1.7V51h-1.1v-3.3c0-0.5-0.1-0.9-0.3-1.1c-0.2-0.2-0.5-0.4-0.9-0.4c-0.4,0-0.7,0.1-1,0.3
	c-0.2,0.2-0.4,0.5-0.5,0.8c-0.1,0.3-0.1,0.7-0.1,1V51z M72.8,51l0-0.7c-0.1,0.1-0.2,0.2-0.3,0.3c-0.1,0.1-0.3,0.3-0.6,0.4
	c-0.2,0.1-0.6,0.2-0.9,0.2c-0.5,0-0.9-0.1-1.3-0.3c-0.4-0.2-0.7-0.6-0.9-1c-0.2-0.4-0.3-0.9-0.3-1.5c0-0.5,0.1-1,0.3-1.4
	c0.2-0.4,0.4-0.7,0.7-0.9c0.3-0.2,0.6-0.4,0.9-0.5c0.3-0.1,0.7-0.2,0.9-0.2c0.3,0,0.6,0,0.8,0.1c0.2,0.1,0.4,0.2,0.7,0.3V43h1.1v7.4
	c0,0,0,0.1,0,0.2c0,0.1,0,0.2,0,0.3H72.8z M72.8,48.6v-2c-0.1-0.1-0.3-0.2-0.6-0.3c-0.2-0.1-0.5-0.1-0.8-0.1c-0.5,0-1,0.2-1.3,0.6
	c-0.3,0.4-0.5,0.9-0.5,1.5c0,0.4,0.1,0.7,0.2,1c0.1,0.3,0.3,0.5,0.5,0.7c0.2,0.2,0.5,0.3,0.9,0.3c0.4,0,0.7-0.1,0.9-0.3
	c0.2-0.2,0.4-0.4,0.5-0.6C72.7,49.1,72.8,48.9,72.8,48.6z M78.6,51h-1.1v-5c0-0.1,0-0.1,0-0.2c0-0.1,0-0.2,0-0.3h1l0,0.9
	c0.1-0.1,0.2-0.3,0.4-0.4c0.2-0.2,0.4-0.3,0.6-0.4c0.2-0.1,0.5-0.2,0.9-0.2c0.1,0,0.2,0,0.3,0c0.1,0,0.2,0,0.3,0.1l-0.2,1
	c-0.1-0.1-0.3-0.1-0.6-0.1c-0.3,0-0.6,0.1-0.8,0.2c-0.2,0.2-0.4,0.4-0.6,0.6c-0.1,0.3-0.2,0.5-0.2,0.9V51z M85.2,51l0-0.7
	c-0.2,0.3-0.5,0.5-0.8,0.6c-0.3,0.1-0.7,0.2-1,0.2c-0.3,0-0.6-0.1-0.9-0.2c-0.3-0.1-0.5-0.3-0.7-0.6c-0.2-0.3-0.3-0.6-0.3-1
	c0-0.6,0.2-1.1,0.6-1.4c0.4-0.4,1-0.5,1.8-0.5c0.2,0,0.4,0,0.5,0c0.2,0,0.4,0,0.5,0c0.2,0,0.3,0,0.3,0v-0.2c0-0.4-0.1-0.7-0.4-0.9
	c-0.2-0.2-0.6-0.3-1-0.3c-0.4,0-0.8,0.1-1,0.2c-0.2,0.1-0.5,0.2-0.6,0.3l-0.5-0.7c0.2-0.2,0.5-0.3,0.8-0.5c0.4-0.2,0.8-0.2,1.4-0.2
	c0.7,0,1.3,0.2,1.7,0.5c0.4,0.3,0.6,0.8,0.6,1.5v3.3c0,0.1,0,0.1,0,0.2c0,0.1,0,0.2,0,0.3H85.2z M85.2,49v-0.6c0,0-0.1,0-0.3,0
	c-0.1,0-0.3,0-0.5,0c-0.2,0-0.3,0-0.5,0c-0.4,0-0.7,0.1-0.9,0.2c-0.2,0.1-0.4,0.3-0.4,0.4c-0.1,0.2-0.1,0.3-0.1,0.5
	c0,0.3,0.1,0.5,0.3,0.7s0.5,0.2,0.9,0.2c0.3,0,0.5-0.1,0.8-0.2c0.2-0.1,0.4-0.3,0.6-0.5C85.1,49.4,85.2,49.2,85.2,49z M88.2,49.2
	v-2.9h-1v-0.9h1v-1.8h1.1v1.8h1.6v0.9h-1.6v2.7c0,0.4,0.1,0.8,0.2,0.9c0.1,0.2,0.3,0.3,0.6,0.3c0.2,0,0.4,0,0.5-0.1
	c0.1-0.1,0.3-0.2,0.4-0.3l0.5,0.7c-0.2,0.2-0.5,0.4-0.7,0.5c-0.2,0.1-0.5,0.2-0.9,0.2c-0.6,0-1-0.2-1.3-0.5
	C88.3,50.3,88.2,49.8,88.2,49.2z M92.3,44.4v-1.2h1.2v1.2H92.3z M92.4,51v-5.6h1.1V51H92.4z M96.1,51H95v-5c0-0.1,0-0.1,0-0.2
	c0-0.1,0-0.2,0-0.4h1l0,0.8c0.1-0.1,0.2-0.3,0.4-0.4c0.2-0.2,0.4-0.3,0.6-0.4c0.2-0.1,0.5-0.2,0.9-0.2c0.7,0,1.3,0.2,1.6,0.6
	c0.4,0.4,0.5,1,0.5,1.7V51H99v-3.3c0-0.5-0.1-0.9-0.3-1.1c-0.2-0.2-0.5-0.4-0.9-0.4c-0.4,0-0.7,0.1-1,0.3c-0.2,0.2-0.4,0.5-0.5,0.8
	c-0.1,0.3-0.1,0.7-0.1,1V51z M101.7,52.9l0.5-0.8c0.2,0.1,0.4,0.2,0.7,0.3c0.3,0.1,0.6,0.1,1,0.1c0.5,0,0.9-0.1,1.2-0.4
	c0.3-0.3,0.4-0.7,0.4-1.2v-0.7c-0.1,0.1-0.2,0.2-0.3,0.3c-0.1,0.1-0.3,0.2-0.6,0.3c-0.2,0.1-0.5,0.1-0.8,0.1c-0.5,0-1-0.1-1.4-0.4
	c-0.4-0.2-0.7-0.6-0.9-1c-0.2-0.4-0.3-0.9-0.3-1.4c0-0.6,0.1-1.1,0.4-1.5c0.3-0.5,0.6-0.8,1.1-1.1s1-0.4,1.6-0.4
	c0.4,0,0.9,0,1.3,0.1c0.4,0.1,0.7,0.2,1,0.3V51c0,0.8-0.2,1.4-0.7,1.9c-0.5,0.4-1.1,0.7-2,0.7c-0.6,0-1-0.1-1.4-0.2
	C102.2,53.2,101.9,53.1,101.7,52.9z M105.5,48.7v-2.3c-0.1,0-0.2-0.1-0.4-0.1c-0.2,0-0.4-0.1-0.8-0.1c-0.4,0-0.8,0.1-1.1,0.3
	c-0.3,0.2-0.5,0.4-0.7,0.7c-0.2,0.3-0.3,0.7-0.3,1.1c0,0.3,0.1,0.6,0.2,0.9c0.1,0.3,0.3,0.5,0.5,0.7s0.5,0.3,0.9,0.3
	c0.4,0,0.7-0.1,0.9-0.2c0.2-0.1,0.4-0.3,0.5-0.5C105.5,49.2,105.5,49,105.5,48.7z M107.8,50.3l0.7-0.7c0.2,0.2,0.4,0.4,0.7,0.5
	c0.3,0.1,0.6,0.2,1,0.2c0.4,0,0.7-0.1,0.9-0.2c0.2-0.1,0.4-0.3,0.4-0.6c0-0.2,0-0.3-0.1-0.4s-0.3-0.2-0.5-0.3
	c-0.2-0.1-0.6-0.2-1-0.3c-0.3-0.1-0.6-0.2-0.8-0.3c-0.3-0.1-0.5-0.3-0.7-0.5c-0.2-0.2-0.3-0.5-0.3-0.9c0-0.4,0.1-0.7,0.3-0.9
	c0.2-0.2,0.5-0.4,0.8-0.6c0.3-0.1,0.7-0.2,1.1-0.2c0.5,0,0.9,0.1,1.2,0.2c0.3,0.1,0.6,0.3,0.9,0.5l-0.6,0.7
	c-0.2-0.2-0.4-0.3-0.6-0.4c-0.2-0.1-0.5-0.2-0.9-0.2c-0.3,0-0.6,0.1-0.8,0.2s-0.3,0.3-0.3,0.6c0,0.2,0.1,0.4,0.4,0.5
	c0.3,0.1,0.6,0.2,1.1,0.3c0.4,0.1,0.7,0.2,0.9,0.3c0.3,0.1,0.5,0.3,0.7,0.5c0.2,0.2,0.3,0.5,0.3,0.9c0,0.4-0.1,0.7-0.3,0.9
	c-0.2,0.2-0.5,0.4-0.9,0.6c-0.4,0.1-0.7,0.2-1.1,0.2C109.1,51.2,108.3,50.9,107.8,50.3z M119.4,51l0-0.7c-0.2,0.3-0.5,0.5-0.8,0.6
	c-0.3,0.1-0.7,0.2-1,0.2c-0.3,0-0.6-0.1-0.9-0.2c-0.3-0.1-0.5-0.3-0.7-0.6c-0.2-0.3-0.3-0.6-0.3-1c0-0.6,0.2-1.1,0.6-1.4
	c0.4-0.4,1-0.5,1.8-0.5c0.2,0,0.4,0,0.5,0c0.2,0,0.4,0,0.5,0c0.2,0,0.3,0,0.3,0v-0.2c0-0.4-0.1-0.7-0.4-0.9c-0.2-0.2-0.6-0.3-1-0.3
	c-0.4,0-0.8,0.1-1,0.2c-0.2,0.1-0.5,0.2-0.6,0.3l-0.5-0.7c0.2-0.2,0.5-0.3,0.8-0.5c0.4-0.2,0.8-0.2,1.4-0.2c0.7,0,1.3,0.2,1.7,0.5
	c0.4,0.3,0.6,0.8,0.6,1.5v3.3c0,0.1,0,0.1,0,0.2c0,0.1,0,0.2,0,0.3H119.4z M119.4,49v-0.6c0,0-0.1,0-0.3,0c-0.1,0-0.3,0-0.5,0
	c-0.2,0-0.3,0-0.5,0c-0.4,0-0.7,0.1-0.9,0.2c-0.2,0.1-0.4,0.3-0.4,0.4c-0.1,0.2-0.1,0.3-0.1,0.5c0,0.3,0.1,0.5,0.3,0.7
	s0.5,0.2,0.9,0.2c0.3,0,0.5-0.1,0.8-0.2c0.2-0.1,0.4-0.3,0.6-0.5C119.3,49.4,119.4,49.2,119.4,49z M123,51h-1.1v-5
	c0-0.1,0-0.1,0-0.2c0-0.1,0-0.2,0-0.3h1l0,0.9c0.1-0.1,0.2-0.3,0.4-0.4c0.2-0.2,0.4-0.3,0.6-0.4c0.2-0.1,0.5-0.2,0.9-0.2
	c0.1,0,0.2,0,0.3,0c0.1,0,0.2,0,0.3,0.1l-0.2,1c-0.1-0.1-0.3-0.1-0.6-0.1c-0.3,0-0.6,0.1-0.8,0.2c-0.2,0.2-0.4,0.4-0.6,0.6
	c-0.1,0.3-0.2,0.5-0.2,0.9V51z M130.4,49.5l0.6,0.6c-0.1,0.1-0.2,0.2-0.4,0.4c-0.2,0.2-0.5,0.3-0.8,0.4c-0.3,0.1-0.7,0.2-1.2,0.2
	c-0.6,0-1.1-0.1-1.5-0.4c-0.4-0.3-0.8-0.6-1-1.1c-0.2-0.5-0.4-1-0.4-1.6c0-0.5,0.1-1,0.3-1.5c0.2-0.4,0.6-0.8,1-1
	c0.4-0.3,0.9-0.4,1.5-0.4c0.6,0,1.2,0.2,1.6,0.5c0.4,0.3,0.7,0.7,0.9,1.2c0.2,0.5,0.3,1,0.3,1.6h-4.4c0,0.3,0.1,0.6,0.3,0.9
	c0.2,0.3,0.4,0.5,0.7,0.6c0.3,0.1,0.6,0.2,0.9,0.2c0.5,0,0.9-0.1,1.2-0.2C130.1,49.8,130.3,49.7,130.4,49.5z M126.8,47.7h3.3
	c0-0.4-0.2-0.8-0.5-1.1c-0.3-0.3-0.7-0.5-1.2-0.5c-0.3,0-0.6,0.1-0.9,0.2c-0.2,0.2-0.4,0.3-0.6,0.6
	C126.9,47.2,126.8,47.5,126.8,47.7z M137.2,51.2c-0.6,0-1.1-0.1-1.5-0.4c-0.4-0.3-0.8-0.6-1.1-1.1c-0.2-0.5-0.4-1-0.4-1.5
	c0-0.5,0.1-1,0.4-1.5c0.3-0.4,0.6-0.8,1.1-1.1c0.4-0.3,1-0.4,1.5-0.4s1.1,0.1,1.5,0.4c0.4,0.3,0.8,0.6,1.1,1.1
	c0.3,0.4,0.4,0.9,0.4,1.5c0,0.5-0.1,1-0.4,1.5c-0.3,0.4-0.6,0.8-1.1,1.1C138.3,51,137.8,51.2,137.2,51.2z M137.2,50.2
	c0.4,0,0.7-0.1,1-0.3c0.3-0.2,0.5-0.5,0.6-0.8c0.2-0.3,0.2-0.6,0.2-1c0-0.3-0.1-0.7-0.2-1c-0.1-0.3-0.4-0.6-0.6-0.8
	c-0.3-0.2-0.6-0.3-1-0.3s-0.7,0.1-1,0.3c-0.3,0.2-0.5,0.4-0.6,0.8c-0.1,0.3-0.2,0.6-0.2,1c0,0.3,0.1,0.7,0.2,1
	c0.2,0.3,0.4,0.6,0.6,0.8C136.5,50.1,136.9,50.2,137.2,50.2z M142.5,51h-1.1v-5c0-0.1,0-0.1,0-0.2c0-0.1,0-0.2,0-0.4h1l0,0.8
	c0.1-0.1,0.2-0.3,0.4-0.4c0.2-0.2,0.4-0.3,0.6-0.4c0.2-0.1,0.5-0.2,0.9-0.2c0.7,0,1.3,0.2,1.6,0.6c0.4,0.4,0.5,1,0.5,1.7V51h-1.1
	v-3.3c0-0.5-0.1-0.9-0.3-1.1c-0.2-0.2-0.5-0.4-0.9-0.4c-0.4,0-0.7,0.1-1,0.3c-0.2,0.2-0.4,0.5-0.5,0.8c-0.1,0.3-0.1,0.7-0.1,1V51z
	 M147.9,51v-8h1.1v8H147.9z M150,53.1l0.5-0.8c0.1,0.1,0.2,0.1,0.3,0.2c0.1,0.1,0.2,0.1,0.4,0.1c0.3,0,0.4-0.1,0.6-0.3
	c0.1-0.2,0.3-0.6,0.5-1l0.1-0.4l-2.5-5.5h1.2l1.8,4.2l1.6-4.2h1.2l-2.2,5.4c-0.1,0.2-0.2,0.5-0.3,0.8c-0.1,0.3-0.2,0.6-0.4,0.9
	c-0.2,0.3-0.3,0.5-0.6,0.7c-0.2,0.2-0.5,0.3-0.9,0.3c-0.3,0-0.5,0-0.7-0.1C150.3,53.4,150.2,53.3,150,53.1z M161.4,51.2
	c-0.6,0-1.1-0.1-1.5-0.4c-0.4-0.3-0.8-0.6-1.1-1.1c-0.2-0.5-0.4-1-0.4-1.5c0-0.5,0.1-1,0.4-1.5c0.3-0.4,0.6-0.8,1.1-1.1
	c0.4-0.3,1-0.4,1.5-0.4c0.6,0,1.1,0.1,1.5,0.4c0.4,0.3,0.8,0.6,1.1,1.1c0.3,0.4,0.4,0.9,0.4,1.5c0,0.5-0.1,1-0.4,1.5
	c-0.3,0.4-0.6,0.8-1.1,1.1C162.4,51,161.9,51.2,161.4,51.2z M161.4,50.2c0.4,0,0.7-0.1,1-0.3c0.3-0.2,0.5-0.5,0.6-0.8
	c0.2-0.3,0.2-0.6,0.2-1c0-0.3-0.1-0.7-0.2-1c-0.1-0.3-0.4-0.6-0.6-0.8c-0.3-0.2-0.6-0.3-1-0.3s-0.7,0.1-1,0.3
	c-0.3,0.2-0.5,0.4-0.6,0.8c-0.1,0.3-0.2,0.6-0.2,1c0,0.3,0.1,0.7,0.2,1c0.2,0.3,0.4,0.6,0.6,0.8C160.6,50.1,161,50.2,161.4,50.2z
	 M166.6,51h-1.1v-5c0-0.1,0-0.1,0-0.2c0-0.1,0-0.2,0-0.4h1l0,0.8c0.1-0.1,0.2-0.3,0.4-0.4c0.2-0.2,0.4-0.3,0.6-0.4
	c0.2-0.1,0.5-0.2,0.9-0.2c0.7,0,1.3,0.2,1.6,0.6c0.4,0.4,0.5,1,0.5,1.7V51h-1.1v-3.3c0-0.5-0.1-0.9-0.3-1.1
	c-0.2-0.2-0.5-0.4-0.9-0.4c-0.4,0-0.7,0.1-1,0.3c-0.2,0.2-0.4,0.5-0.5,0.8c-0.1,0.3-0.1,0.7-0.1,1V51z M176.5,49.5l0.6,0.6
	c-0.1,0.1-0.2,0.2-0.4,0.4c-0.2,0.2-0.5,0.3-0.8,0.4c-0.3,0.1-0.7,0.2-1.2,0.2c-0.6,0-1.1-0.1-1.5-0.4c-0.4-0.3-0.8-0.6-1-1.1
	c-0.2-0.5-0.4-1-0.4-1.6c0-0.5,0.1-1,0.3-1.5c0.2-0.4,0.6-0.8,1-1c0.4-0.3,0.9-0.4,1.5-0.4c0.6,0,1.2,0.2,1.6,0.5
	c0.4,0.3,0.7,0.7,0.9,1.2c0.2,0.5,0.3,1,0.3,1.6h-4.4c0,0.3,0.1,0.6,0.3,0.9c0.2,0.3,0.4,0.5,0.7,0.6c0.3,0.1,0.6,0.2,0.9,0.2
	c0.5,0,0.9-0.1,1.2-0.2C176.2,49.8,176.4,49.7,176.5,49.5z M172.9,47.7h3.3c0-0.4-0.2-0.8-0.5-1.1c-0.3-0.3-0.7-0.5-1.2-0.5
	c-0.3,0-0.6,0.1-0.9,0.2c-0.2,0.2-0.4,0.3-0.6,0.6C173,47.2,172.9,47.5,172.9,47.7z M181.1,51v-4.7h-1v-0.9h1V45
	c0-0.5,0.1-0.9,0.3-1.2c0.2-0.3,0.4-0.6,0.7-0.7c0.3-0.2,0.6-0.2,0.9-0.2c0.3,0,0.6,0,0.9,0.1c0.3,0.1,0.6,0.2,0.8,0.5l-0.5,0.7
	c-0.3-0.2-0.6-0.4-0.9-0.4c-0.3,0-0.6,0.1-0.8,0.3c-0.2,0.2-0.3,0.5-0.3,1v0.4h1.6v0.9h-1.6V51H181.1z M187.9,51l0-0.7
	c-0.2,0.3-0.5,0.5-0.8,0.6c-0.3,0.1-0.7,0.2-1,0.2c-0.3,0-0.6-0.1-0.9-0.2c-0.3-0.1-0.5-0.3-0.7-0.6c-0.2-0.3-0.3-0.6-0.3-1
	c0-0.6,0.2-1.1,0.6-1.4c0.4-0.4,1-0.5,1.8-0.5c0.2,0,0.4,0,0.5,0c0.2,0,0.4,0,0.5,0c0.2,0,0.3,0,0.3,0v-0.2c0-0.4-0.1-0.7-0.4-0.9
	c-0.2-0.2-0.6-0.3-1-0.3c-0.4,0-0.8,0.1-1,0.2c-0.2,0.1-0.5,0.2-0.6,0.3l-0.5-0.7c0.2-0.2,0.5-0.3,0.8-0.5s0.8-0.2,1.4-0.2
	c0.7,0,1.3,0.2,1.7,0.5c0.4,0.3,0.6,0.8,0.6,1.5v3.3c0,0.1,0,0.1,0,0.2c0,0.1,0,0.2,0,0.3H187.9z M187.9,49v-0.6c0,0-0.1,0-0.3,0
	c-0.1,0-0.3,0-0.5,0c-0.2,0-0.3,0-0.5,0c-0.4,0-0.7,0.1-0.9,0.2c-0.2,0.1-0.4,0.3-0.4,0.4c-0.1,0.2-0.1,0.3-0.1,0.5
	c0,0.3,0.1,0.5,0.3,0.7c0.2,0.2,0.5,0.2,0.9,0.2c0.3,0,0.5-0.1,0.8-0.2c0.2-0.1,0.4-0.3,0.6-0.5C187.8,49.4,187.9,49.2,187.9,49z
	 M194.6,49.5l0.7,0.7c-0.2,0.3-0.6,0.5-0.9,0.7c-0.4,0.2-0.8,0.3-1.3,0.3c-0.6,0-1.1-0.1-1.6-0.4c-0.4-0.3-0.8-0.6-1-1
	c-0.2-0.4-0.4-1-0.4-1.5c0-0.5,0.1-1,0.4-1.5c0.2-0.4,0.6-0.8,1-1.1c0.4-0.3,1-0.4,1.5-0.4c0.5,0,0.9,0.1,1.2,0.3s0.7,0.4,0.9,0.7
	l-0.7,0.7c-0.2-0.2-0.4-0.4-0.6-0.5s-0.5-0.2-0.9-0.2c-0.4,0-0.7,0.1-1,0.3c-0.3,0.2-0.5,0.4-0.6,0.7s-0.2,0.6-0.2,1
	c0,0.3,0.1,0.7,0.2,1c0.2,0.3,0.4,0.6,0.6,0.7c0.3,0.2,0.6,0.3,1,0.3c0.3,0,0.6-0.1,0.9-0.2C194.2,49.9,194.4,49.7,194.6,49.5z
	 M196.8,49.2v-2.9h-1v-0.9h1v-1.8h1.1v1.8h1.6v0.9h-1.6v2.7c0,0.4,0.1,0.8,0.2,0.9c0.1,0.2,0.3,0.3,0.6,0.3c0.2,0,0.4,0,0.5-0.1
	c0.1-0.1,0.3-0.2,0.4-0.3l0.5,0.7c-0.2,0.2-0.5,0.4-0.7,0.5c-0.2,0.1-0.5,0.2-0.9,0.2c-0.6,0-1-0.2-1.3-0.5
	C196.9,50.3,196.8,49.8,196.8,49.2z M203.2,51.2c-0.6,0-1.1-0.1-1.5-0.4c-0.4-0.3-0.8-0.6-1.1-1.1c-0.2-0.5-0.4-1-0.4-1.5
	c0-0.5,0.1-1,0.4-1.5c0.3-0.4,0.6-0.8,1.1-1.1c0.4-0.3,1-0.4,1.5-0.4s1.1,0.1,1.5,0.4c0.4,0.3,0.8,0.6,1.1,1.1
	c0.3,0.4,0.4,0.9,0.4,1.5c0,0.5-0.1,1-0.4,1.5c-0.3,0.4-0.6,0.8-1.1,1.1C204.3,51,203.8,51.2,203.2,51.2z M203.2,50.2
	c0.4,0,0.7-0.1,1-0.3c0.3-0.2,0.5-0.5,0.6-0.8c0.2-0.3,0.2-0.6,0.2-1c0-0.3-0.1-0.7-0.2-1c-0.1-0.3-0.4-0.6-0.6-0.8
	c-0.3-0.2-0.6-0.3-1-0.3s-0.7,0.1-1,0.3c-0.3,0.2-0.5,0.4-0.6,0.8c-0.1,0.3-0.2,0.6-0.2,1c0,0.3,0.1,0.7,0.2,1
	c0.2,0.3,0.4,0.6,0.6,0.8C202.5,50.1,202.9,50.2,203.2,50.2z M208.5,51h-1.1v-5c0-0.1,0-0.1,0-0.2c0-0.1,0-0.2,0-0.3h1l0,0.9
	c0.1-0.1,0.2-0.3,0.4-0.4c0.2-0.2,0.4-0.3,0.6-0.4c0.2-0.1,0.5-0.2,0.9-0.2c0.1,0,0.2,0,0.3,0c0.1,0,0.2,0,0.3,0.1l-0.2,1
	c-0.1-0.1-0.3-0.1-0.6-0.1c-0.3,0-0.6,0.1-0.8,0.2c-0.2,0.2-0.4,0.4-0.6,0.6c-0.1,0.3-0.2,0.5-0.2,0.9V51z M214.4,49.2v-2.9h-1v-0.9
	h1v-1.8h1.1v1.8h1.6v0.9h-1.6v2.7c0,0.4,0.1,0.8,0.2,0.9c0.1,0.2,0.3,0.3,0.6,0.3c0.2,0,0.4,0,0.5-0.1c0.1-0.1,0.3-0.2,0.4-0.3
	l0.5,0.7c-0.2,0.2-0.5,0.4-0.7,0.5c-0.2,0.1-0.5,0.2-0.9,0.2c-0.6,0-1-0.2-1.3-0.5C214.6,50.3,214.4,49.8,214.4,49.2z M220.9,51.2
	c-0.6,0-1.1-0.1-1.5-0.4c-0.4-0.3-0.8-0.6-1.1-1.1c-0.2-0.5-0.4-1-0.4-1.5c0-0.5,0.1-1,0.4-1.5c0.3-0.4,0.6-0.8,1.1-1.1
	c0.4-0.3,1-0.4,1.5-0.4c0.6,0,1.1,0.1,1.5,0.4c0.4,0.3,0.8,0.6,1.1,1.1c0.3,0.4,0.4,0.9,0.4,1.5c0,0.5-0.1,1-0.4,1.5
	c-0.3,0.4-0.6,0.8-1.1,1.1C222,51,221.5,51.2,220.9,51.2z M220.9,50.2c0.4,0,0.7-0.1,1-0.3c0.3-0.2,0.5-0.5,0.6-0.8
	c0.2-0.3,0.2-0.6,0.2-1c0-0.3-0.1-0.7-0.2-1c-0.1-0.3-0.4-0.6-0.6-0.8c-0.3-0.2-0.6-0.3-1-0.3c-0.4,0-0.7,0.1-1,0.3
	c-0.3,0.2-0.5,0.4-0.6,0.8c-0.1,0.3-0.2,0.6-0.2,1c0,0.3,0.1,0.7,0.2,1c0.2,0.3,0.4,0.6,0.6,0.8C220.2,50.1,220.5,50.2,220.9,50.2z
	 M231.4,49.5l0.7,0.7c-0.2,0.3-0.6,0.5-0.9,0.7c-0.4,0.2-0.8,0.3-1.3,0.3c-0.6,0-1.1-0.1-1.6-0.4c-0.4-0.3-0.8-0.6-1-1
	c-0.2-0.4-0.4-1-0.4-1.5c0-0.5,0.1-1,0.4-1.5c0.2-0.4,0.6-0.8,1-1.1c0.4-0.3,1-0.4,1.5-0.4c0.5,0,0.9,0.1,1.2,0.3s0.7,0.4,0.9,0.7
	l-0.7,0.7c-0.2-0.2-0.4-0.4-0.6-0.5s-0.5-0.2-0.9-0.2c-0.4,0-0.7,0.1-1,0.3c-0.3,0.2-0.5,0.4-0.6,0.7s-0.2,0.6-0.2,1
	c0,0.3,0.1,0.7,0.2,1c0.2,0.3,0.4,0.6,0.6,0.7c0.3,0.2,0.6,0.3,1,0.3c0.3,0,0.6-0.1,0.9-0.2C231,49.9,231.3,49.7,231.4,49.5z
	 M235.5,51.2c-0.6,0-1.1-0.1-1.5-0.4c-0.4-0.3-0.8-0.6-1.1-1.1c-0.2-0.5-0.4-1-0.4-1.5c0-0.5,0.1-1,0.4-1.5c0.3-0.4,0.6-0.8,1.1-1.1
	c0.4-0.3,1-0.4,1.5-0.4c0.6,0,1.1,0.1,1.5,0.4c0.4,0.3,0.8,0.6,1.1,1.1c0.3,0.4,0.4,0.9,0.4,1.5c0,0.5-0.1,1-0.4,1.5
	c-0.3,0.4-0.6,0.8-1.1,1.1C236.6,51,236.1,51.2,235.5,51.2z M235.5,50.2c0.4,0,0.7-0.1,1-0.3c0.3-0.2,0.5-0.5,0.6-0.8
	c0.2-0.3,0.2-0.6,0.2-1c0-0.3-0.1-0.7-0.2-1c-0.1-0.3-0.4-0.6-0.6-0.8c-0.3-0.2-0.6-0.3-1-0.3s-0.7,0.1-1,0.3
	c-0.3,0.2-0.5,0.4-0.6,0.8c-0.1,0.3-0.2,0.6-0.2,1c0,0.3,0.1,0.7,0.2,1c0.2,0.3,0.4,0.6,0.6,0.8C234.8,50.1,235.1,50.2,235.5,50.2z
	 M240.8,51h-1.1v-5c0-0.1,0-0.1,0-0.2c0-0.1,0-0.2,0-0.4h1l0,0.8c0.1-0.1,0.2-0.3,0.4-0.4c0.2-0.2,0.4-0.3,0.6-0.4
	c0.2-0.1,0.5-0.2,0.9-0.2c0.7,0,1.3,0.2,1.6,0.6c0.4,0.4,0.5,1,0.5,1.7V51h-1.1v-3.3c0-0.5-0.1-0.9-0.3-1.1
	c-0.2-0.2-0.5-0.4-0.9-0.4c-0.4,0-0.7,0.1-1,0.3c-0.2,0.2-0.4,0.5-0.5,0.8c-0.1,0.3-0.1,0.7-0.1,1V51z M245.9,50.3l0.7-0.7
	c0.2,0.2,0.4,0.4,0.7,0.5s0.6,0.2,1,0.2c0.4,0,0.7-0.1,0.9-0.2c0.2-0.1,0.4-0.3,0.4-0.6c0-0.2,0-0.3-0.1-0.4
	c-0.1-0.1-0.3-0.2-0.5-0.3c-0.2-0.1-0.6-0.2-1-0.3c-0.3-0.1-0.6-0.2-0.8-0.3c-0.3-0.1-0.5-0.3-0.7-0.5c-0.2-0.2-0.3-0.5-0.3-0.9
	c0-0.4,0.1-0.7,0.3-0.9c0.2-0.2,0.5-0.4,0.8-0.6c0.3-0.1,0.7-0.2,1.1-0.2c0.5,0,0.9,0.1,1.2,0.2c0.3,0.1,0.6,0.3,0.9,0.5l-0.6,0.7
	c-0.2-0.2-0.4-0.3-0.6-0.4c-0.2-0.1-0.5-0.2-0.9-0.2c-0.3,0-0.6,0.1-0.8,0.2c-0.2,0.1-0.3,0.3-0.3,0.6c0,0.2,0.1,0.4,0.4,0.5
	c0.3,0.1,0.6,0.2,1.1,0.3c0.4,0.1,0.7,0.2,0.9,0.3c0.3,0.1,0.5,0.3,0.7,0.5c0.2,0.2,0.3,0.5,0.3,0.9c0,0.4-0.1,0.7-0.3,0.9
	c-0.2,0.2-0.5,0.4-0.9,0.6c-0.4,0.1-0.7,0.2-1.1,0.2C247.2,51.2,246.4,50.9,245.9,50.3z M251.8,44.4v-1.2h1.2v1.2H251.8z M251.9,51
	v-5.6h1.1V51H251.9z M258.6,51l0-0.7c-0.1,0.1-0.2,0.2-0.3,0.3c-0.1,0.1-0.3,0.3-0.6,0.4c-0.2,0.1-0.6,0.2-0.9,0.2
	c-0.5,0-0.9-0.1-1.3-0.3c-0.4-0.2-0.7-0.6-0.9-1s-0.3-0.9-0.3-1.5c0-0.5,0.1-1,0.3-1.4c0.2-0.4,0.4-0.7,0.7-0.9
	c0.3-0.2,0.6-0.4,0.9-0.5c0.3-0.1,0.7-0.2,0.9-0.2c0.3,0,0.6,0,0.8,0.1c0.2,0.1,0.4,0.2,0.7,0.3V43h1.1v7.4c0,0,0,0.1,0,0.2
	c0,0.1,0,0.2,0,0.3H258.6z M258.5,48.6v-2c-0.1-0.1-0.3-0.2-0.6-0.3c-0.2-0.1-0.5-0.1-0.8-0.1c-0.5,0-1,0.2-1.3,0.6
	c-0.3,0.4-0.5,0.9-0.5,1.5c0,0.4,0.1,0.7,0.2,1c0.1,0.3,0.3,0.5,0.5,0.7c0.2,0.2,0.5,0.3,0.9,0.3c0.4,0,0.7-0.1,0.9-0.3
	c0.2-0.2,0.4-0.4,0.5-0.6C258.5,49.1,258.5,48.9,258.5,48.6z M265.6,49.5l0.6,0.6c-0.1,0.1-0.2,0.2-0.4,0.4
	c-0.2,0.2-0.5,0.3-0.8,0.4c-0.3,0.1-0.7,0.2-1.2,0.2c-0.6,0-1.1-0.1-1.5-0.4c-0.4-0.3-0.8-0.6-1-1.1c-0.2-0.5-0.4-1-0.4-1.6
	c0-0.5,0.1-1,0.3-1.5c0.2-0.4,0.6-0.8,1-1c0.4-0.3,0.9-0.4,1.5-0.4c0.6,0,1.2,0.2,1.6,0.5s0.7,0.7,0.9,1.2c0.2,0.5,0.3,1,0.3,1.6
	H262c0,0.3,0.1,0.6,0.3,0.9c0.2,0.3,0.4,0.5,0.7,0.6c0.3,0.1,0.6,0.2,0.9,0.2c0.5,0,0.9-0.1,1.2-0.2
	C265.3,49.8,265.5,49.7,265.6,49.5z M262,47.7h3.3c0-0.4-0.2-0.8-0.5-1.1c-0.3-0.3-0.7-0.5-1.2-0.5c-0.3,0-0.6,0.1-0.9,0.2
	c-0.2,0.2-0.4,0.3-0.6,0.6C262,47.2,262,47.5,262,47.7z M268.6,51h-1.1v-5c0-0.1,0-0.1,0-0.2c0-0.1,0-0.2,0-0.3h1l0,0.9
	c0.1-0.1,0.2-0.3,0.4-0.4c0.2-0.2,0.4-0.3,0.6-0.4c0.2-0.1,0.5-0.2,0.9-0.2c0.1,0,0.2,0,0.3,0c0.1,0,0.2,0,0.3,0.1l-0.2,1
	c-0.1-0.1-0.3-0.1-0.6-0.1c-0.3,0-0.6,0.1-0.8,0.2c-0.2,0.2-0.4,0.4-0.6,0.6c-0.1,0.3-0.2,0.5-0.2,0.9V51z M275.4,51l-1.9-5.6h1.2
	l1.2,4.3l1.3-4.3h0.9l1.3,4.3l1.2-4.3h1.1L280,51H279l-1.3-3.9l-1.3,3.9H275.4z M282.7,51v-8h1.1v3.3c0.1-0.1,0.2-0.3,0.4-0.4
	c0.2-0.2,0.4-0.3,0.6-0.4c0.2-0.1,0.5-0.2,0.9-0.2c0.7,0,1.3,0.2,1.6,0.6c0.4,0.4,0.5,1,0.5,1.7V51h-1.1v-3.3c0-0.5-0.1-0.9-0.3-1.1
	c-0.2-0.2-0.5-0.4-0.9-0.4c-0.4,0-0.7,0.1-1,0.3c-0.2,0.2-0.4,0.5-0.5,0.8c-0.1,0.3-0.1,0.7-0.1,1V51H282.7z M293.7,49.5l0.6,0.6
	c-0.1,0.1-0.2,0.2-0.4,0.4c-0.2,0.2-0.5,0.3-0.8,0.4c-0.3,0.1-0.7,0.2-1.2,0.2c-0.6,0-1.1-0.1-1.5-0.4c-0.4-0.3-0.8-0.6-1-1.1
	c-0.2-0.5-0.4-1-0.4-1.6c0-0.5,0.1-1,0.3-1.5c0.2-0.4,0.6-0.8,1-1c0.4-0.3,0.9-0.4,1.5-0.4c0.6,0,1.2,0.2,1.6,0.5
	c0.4,0.3,0.7,0.7,0.9,1.2c0.2,0.5,0.3,1,0.3,1.6h-4.4c0,0.3,0.1,0.6,0.3,0.9c0.2,0.3,0.4,0.5,0.7,0.6c0.3,0.1,0.6,0.2,0.9,0.2
	c0.5,0,0.9-0.1,1.2-0.2C293.4,49.8,293.6,49.7,293.7,49.5z M290.1,47.7h3.3c0-0.4-0.2-0.8-0.5-1.1c-0.3-0.3-0.7-0.5-1.2-0.5
	c-0.3,0-0.6,0.1-0.9,0.2c-0.2,0.2-0.4,0.3-0.6,0.6C290.2,47.2,290.1,47.5,290.1,47.7z M296.8,51h-1.1v-5c0-0.1,0-0.1,0-0.2
	c0-0.1,0-0.2,0-0.4h1l0,0.8c0.1-0.1,0.2-0.3,0.4-0.4c0.2-0.2,0.4-0.3,0.6-0.4c0.2-0.1,0.5-0.2,0.9-0.2c0.7,0,1.3,0.2,1.6,0.6
	c0.4,0.4,0.5,1,0.5,1.7V51h-1.1v-3.3c0-0.5-0.1-0.9-0.3-1.1c-0.2-0.2-0.5-0.4-0.9-0.4c-0.4,0-0.7,0.1-1,0.3
	c-0.2,0.2-0.4,0.5-0.5,0.8c-0.1,0.3-0.1,0.7-0.1,1V51z M308.6,49.5l0.7,0.7c-0.2,0.3-0.6,0.5-0.9,0.7c-0.4,0.2-0.8,0.3-1.3,0.3
	c-0.6,0-1.1-0.1-1.6-0.4c-0.4-0.3-0.8-0.6-1-1c-0.2-0.4-0.4-1-0.4-1.5c0-0.5,0.1-1,0.4-1.5c0.2-0.4,0.6-0.8,1-1.1
	c0.4-0.3,1-0.4,1.5-0.4c0.5,0,0.9,0.1,1.2,0.3c0.4,0.2,0.7,0.4,0.9,0.7l-0.7,0.7c-0.2-0.2-0.4-0.4-0.6-0.5c-0.2-0.1-0.5-0.2-0.9-0.2
	c-0.4,0-0.7,0.1-1,0.3c-0.3,0.2-0.5,0.4-0.6,0.7s-0.2,0.6-0.2,1c0,0.3,0.1,0.7,0.2,1c0.2,0.3,0.4,0.6,0.6,0.7c0.3,0.2,0.6,0.3,1,0.3
	c0.3,0,0.6-0.1,0.9-0.2C308.2,49.9,308.4,49.7,308.6,49.5z M310.3,51v-8h1.1v3.3c0.1-0.1,0.2-0.3,0.4-0.4c0.2-0.2,0.4-0.3,0.6-0.4
	c0.2-0.1,0.5-0.2,0.9-0.2c0.7,0,1.3,0.2,1.6,0.6c0.4,0.4,0.5,1,0.5,1.7V51h-1.1v-3.3c0-0.5-0.1-0.9-0.3-1.1
	c-0.2-0.2-0.5-0.4-0.9-0.4c-0.4,0-0.7,0.1-1,0.3c-0.2,0.2-0.4,0.5-0.5,0.8c-0.1,0.3-0.1,0.7-0.1,1V51H310.3z M319.5,51.2
	c-0.6,0-1.1-0.1-1.5-0.4c-0.4-0.3-0.8-0.6-1.1-1.1c-0.2-0.5-0.4-1-0.4-1.5c0-0.5,0.1-1,0.4-1.5c0.3-0.4,0.6-0.8,1.1-1.1
	c0.4-0.3,1-0.4,1.5-0.4s1.1,0.1,1.5,0.4c0.4,0.3,0.8,0.6,1.1,1.1c0.3,0.4,0.4,0.9,0.4,1.5c0,0.5-0.1,1-0.4,1.5
	c-0.3,0.4-0.6,0.8-1.1,1.1C320.6,51,320.1,51.2,319.5,51.2z M319.5,50.2c0.4,0,0.7-0.1,1-0.3c0.3-0.2,0.5-0.5,0.6-0.8
	c0.2-0.3,0.2-0.6,0.2-1c0-0.3-0.1-0.7-0.2-1c-0.1-0.3-0.4-0.6-0.6-0.8c-0.3-0.2-0.6-0.3-1-0.3s-0.7,0.1-1,0.3
	c-0.3,0.2-0.5,0.4-0.6,0.8c-0.1,0.3-0.2,0.6-0.2,1c0,0.3,0.1,0.7,0.2,1c0.2,0.3,0.4,0.6,0.6,0.8C318.8,50.1,319.1,50.2,319.5,50.2z
	 M326.4,51.2c-0.6,0-1.1-0.1-1.5-0.4c-0.4-0.3-0.8-0.6-1.1-1.1c-0.2-0.5-0.4-1-0.4-1.5c0-0.5,0.1-1,0.4-1.5c0.3-0.4,0.6-0.8,1.1-1.1
	c0.4-0.3,1-0.4,1.5-0.4s1.1,0.1,1.5,0.4c0.4,0.3,0.8,0.6,1.1,1.1c0.3,0.4,0.4,0.9,0.4,1.5c0,0.5-0.1,1-0.4,1.5
	c-0.3,0.4-0.6,0.8-1.1,1.1C327.5,51,327,51.2,326.4,51.2z M326.4,50.2c0.4,0,0.7-0.1,1-0.3c0.3-0.2,0.5-0.5,0.6-0.8
	c0.2-0.3,0.2-0.6,0.2-1c0-0.3-0.1-0.7-0.2-1c-0.1-0.3-0.4-0.6-0.6-0.8c-0.3-0.2-0.6-0.3-1-0.3s-0.7,0.1-1,0.3
	c-0.3,0.2-0.5,0.4-0.6,0.8c-0.1,0.3-0.2,0.6-0.2,1c0,0.3,0.1,0.7,0.2,1c0.2,0.3,0.4,0.6,0.6,0.8C325.7,50.1,326,50.2,326.4,50.2z
	 M330.3,50.3l0.7-0.7c0.2,0.2,0.4,0.4,0.7,0.5s0.6,0.2,1,0.2c0.4,0,0.7-0.1,0.9-0.2c0.2-0.1,0.4-0.3,0.4-0.6c0-0.2,0-0.3-0.1-0.4
	c-0.1-0.1-0.3-0.2-0.5-0.3c-0.2-0.1-0.6-0.2-1-0.3c-0.3-0.1-0.6-0.2-0.8-0.3c-0.3-0.1-0.5-0.3-0.7-0.5c-0.2-0.2-0.3-0.5-0.3-0.9
	c0-0.4,0.1-0.7,0.3-0.9c0.2-0.2,0.5-0.4,0.8-0.6c0.3-0.1,0.7-0.2,1.1-0.2c0.5,0,0.9,0.1,1.2,0.2c0.3,0.1,0.6,0.3,0.9,0.5l-0.6,0.7
	c-0.2-0.2-0.4-0.3-0.6-0.4c-0.2-0.1-0.5-0.2-0.9-0.2c-0.3,0-0.6,0.1-0.8,0.2s-0.3,0.3-0.3,0.6c0,0.2,0.1,0.4,0.4,0.5
	c0.3,0.1,0.6,0.2,1.1,0.3c0.4,0.1,0.7,0.2,0.9,0.3c0.3,0.1,0.5,0.3,0.7,0.5c0.2,0.2,0.3,0.5,0.3,0.9c0,0.4-0.1,0.7-0.3,0.9
	c-0.2,0.2-0.5,0.4-0.9,0.6c-0.4,0.1-0.7,0.2-1.1,0.2C331.6,51.2,330.8,50.9,330.3,50.3z M336.2,44.4v-1.2h1.2v1.2H336.2z M336.3,51
	v-5.6h1.1V51H336.3z M340,51h-1.1v-5c0-0.1,0-0.1,0-0.2c0-0.1,0-0.2,0-0.4h1l0,0.8c0.1-0.1,0.2-0.3,0.4-0.4c0.2-0.2,0.4-0.3,0.6-0.4
	c0.2-0.1,0.5-0.2,0.9-0.2c0.7,0,1.3,0.2,1.6,0.6c0.4,0.4,0.5,1,0.5,1.7V51h-1.1v-3.3c0-0.5-0.1-0.9-0.3-1.1
	c-0.2-0.2-0.5-0.4-0.9-0.4c-0.4,0-0.7,0.1-1,0.3c-0.2,0.2-0.4,0.5-0.5,0.8c-0.1,0.3-0.1,0.7-0.1,1V51z M345.7,52.9l0.5-0.8
	c0.2,0.1,0.4,0.2,0.7,0.3c0.3,0.1,0.6,0.1,1,0.1c0.5,0,0.9-0.1,1.2-0.4c0.3-0.3,0.4-0.7,0.4-1.2v-0.7c-0.1,0.1-0.2,0.2-0.3,0.3
	c-0.1,0.1-0.3,0.2-0.6,0.3c-0.2,0.1-0.5,0.1-0.8,0.1c-0.5,0-1-0.1-1.4-0.4c-0.4-0.2-0.7-0.6-0.9-1c-0.2-0.4-0.3-0.9-0.3-1.4
	c0-0.6,0.1-1.1,0.4-1.5c0.3-0.5,0.6-0.8,1.1-1.1c0.5-0.3,1-0.4,1.6-0.4c0.4,0,0.9,0,1.3,0.1c0.4,0.1,0.7,0.2,1,0.3V51
	c0,0.8-0.2,1.4-0.7,1.9c-0.5,0.4-1.1,0.7-2,0.7c-0.6,0-1-0.1-1.4-0.2C346.1,53.2,345.9,53.1,345.7,52.9z M349.4,48.7v-2.3
	c-0.1,0-0.2-0.1-0.4-0.1c-0.2,0-0.4-0.1-0.8-0.1c-0.4,0-0.8,0.1-1.1,0.3c-0.3,0.2-0.5,0.4-0.7,0.7c-0.2,0.3-0.3,0.7-0.3,1.1
	c0,0.3,0.1,0.6,0.2,0.9c0.1,0.3,0.3,0.5,0.5,0.7c0.2,0.2,0.5,0.3,0.9,0.3c0.4,0,0.7-0.1,0.9-0.2c0.2-0.1,0.4-0.3,0.5-0.5
	C349.4,49.2,349.4,49,349.4,48.7z M357.7,51l0-0.7c-0.2,0.3-0.5,0.5-0.8,0.6c-0.3,0.1-0.7,0.2-1,0.2c-0.3,0-0.6-0.1-0.9-0.2
	c-0.3-0.1-0.5-0.3-0.7-0.6c-0.2-0.3-0.3-0.6-0.3-1c0-0.6,0.2-1.1,0.6-1.4c0.4-0.4,1-0.5,1.8-0.5c0.2,0,0.4,0,0.5,0
	c0.2,0,0.4,0,0.5,0c0.2,0,0.3,0,0.3,0v-0.2c0-0.4-0.1-0.7-0.4-0.9c-0.2-0.2-0.6-0.3-1-0.3c-0.4,0-0.8,0.1-1,0.2
	c-0.2,0.1-0.5,0.2-0.6,0.3l-0.5-0.7c0.2-0.2,0.5-0.3,0.8-0.5s0.8-0.2,1.4-0.2c0.7,0,1.3,0.2,1.7,0.5c0.4,0.3,0.6,0.8,0.6,1.5v3.3
	c0,0.1,0,0.1,0,0.2c0,0.1,0,0.2,0,0.3H357.7z M357.6,49v-0.6c0,0-0.1,0-0.3,0c-0.1,0-0.3,0-0.5,0c-0.2,0-0.3,0-0.5,0
	c-0.4,0-0.7,0.1-0.9,0.2c-0.2,0.1-0.4,0.3-0.4,0.4c-0.1,0.2-0.1,0.3-0.1,0.5c0,0.3,0.1,0.5,0.3,0.7s0.5,0.2,0.9,0.2
	c0.3,0,0.5-0.1,0.8-0.2c0.2-0.1,0.4-0.3,0.6-0.5C357.5,49.4,357.6,49.2,357.6,49z M362,50.3l0.7-0.7c0.2,0.2,0.4,0.4,0.7,0.5
	s0.6,0.2,1,0.2c0.4,0,0.7-0.1,0.9-0.2c0.2-0.1,0.4-0.3,0.4-0.6c0-0.2,0-0.3-0.1-0.4c-0.1-0.1-0.3-0.2-0.5-0.3
	c-0.2-0.1-0.6-0.2-1-0.3c-0.3-0.1-0.6-0.2-0.8-0.3c-0.3-0.1-0.5-0.3-0.7-0.5c-0.2-0.2-0.3-0.5-0.3-0.9c0-0.4,0.1-0.7,0.3-0.9
	c0.2-0.2,0.5-0.4,0.8-0.6c0.3-0.1,0.7-0.2,1.1-0.2c0.5,0,0.9,0.1,1.2,0.2c0.3,0.1,0.6,0.3,0.9,0.5l-0.6,0.7
	c-0.2-0.2-0.4-0.3-0.6-0.4c-0.2-0.1-0.5-0.2-0.9-0.2c-0.3,0-0.6,0.1-0.8,0.2c-0.2,0.1-0.3,0.3-0.3,0.6c0,0.2,0.1,0.4,0.4,0.5
	c0.3,0.1,0.6,0.2,1.1,0.3c0.4,0.1,0.7,0.2,0.9,0.3c0.3,0.1,0.5,0.3,0.7,0.5c0.2,0.2,0.3,0.5,0.3,0.9c0,0.4-0.1,0.7-0.3,0.9
	c-0.2,0.2-0.5,0.4-0.9,0.6c-0.4,0.1-0.7,0.2-1.1,0.2C363.3,51.2,362.5,50.9,362,50.3z M367.9,48.8v-3.3h1.1v3.3
	c0,0.5,0.1,0.9,0.3,1.1c0.2,0.2,0.5,0.4,0.9,0.4c0.4,0,0.7-0.1,1-0.3c0.2-0.2,0.4-0.5,0.5-0.8c0.1-0.3,0.2-0.7,0.2-1v-2.6h1.1v5
	c0,0,0,0.1,0,0.2c0,0.1,0,0.2,0,0.3h-1l0-0.8c-0.1,0.1-0.2,0.3-0.4,0.4c-0.2,0.1-0.4,0.3-0.6,0.4c-0.2,0.1-0.5,0.2-0.9,0.2
	c-0.7,0-1.3-0.2-1.6-0.6S367.9,49.5,367.9,48.8z M375.5,53.4h-1.1V46c0-0.1,0-0.1,0-0.2c0-0.1,0-0.2,0-0.4h1l0,0.8
	c0.1-0.1,0.2-0.2,0.3-0.4c0.2-0.1,0.4-0.3,0.6-0.4c0.3-0.1,0.6-0.2,0.9-0.2c0.6,0,1,0.1,1.4,0.4c0.4,0.3,0.7,0.6,0.8,1.1
	c0.2,0.4,0.3,0.9,0.3,1.5c0,0.5-0.1,0.9-0.3,1.3c-0.2,0.4-0.4,0.7-0.7,0.9c-0.3,0.2-0.6,0.4-0.9,0.5c-0.3,0.1-0.7,0.2-1,0.2
	c-0.4,0-0.7,0-0.9-0.1c-0.2-0.1-0.4-0.2-0.6-0.2V53.4z M375.5,48.4v1.4c0.1,0.1,0.3,0.2,0.6,0.3c0.2,0.1,0.5,0.1,0.9,0.1
	c0.4,0,0.7-0.1,1-0.3c0.3-0.2,0.5-0.4,0.6-0.7c0.2-0.3,0.2-0.6,0.2-1c0-0.4-0.1-0.7-0.2-1c-0.1-0.3-0.3-0.5-0.5-0.7
	c-0.2-0.2-0.6-0.3-1-0.3c-0.4,0-0.7,0.1-1,0.3c-0.3,0.2-0.5,0.5-0.6,0.9c0,0.1-0.1,0.3-0.1,0.4C375.5,48,375.5,48.2,375.5,48.4z
	 M385.6,49.5l0.6,0.6c-0.1,0.1-0.2,0.2-0.4,0.4c-0.2,0.2-0.5,0.3-0.8,0.4c-0.3,0.1-0.7,0.2-1.2,0.2c-0.6,0-1.1-0.1-1.5-0.4
	c-0.4-0.3-0.8-0.6-1-1.1c-0.2-0.5-0.4-1-0.4-1.6c0-0.5,0.1-1,0.3-1.5c0.2-0.4,0.6-0.8,1-1c0.4-0.3,0.9-0.4,1.5-0.4
	c0.6,0,1.2,0.2,1.6,0.5s0.7,0.7,0.9,1.2c0.2,0.5,0.3,1,0.3,1.6H382c0,0.3,0.1,0.6,0.3,0.9c0.2,0.3,0.4,0.5,0.7,0.6
	c0.3,0.1,0.6,0.2,0.9,0.2c0.5,0,0.9-0.1,1.2-0.2C385.3,49.8,385.5,49.7,385.6,49.5z M382,47.7h3.3c0-0.4-0.2-0.8-0.5-1.1
	c-0.3-0.3-0.7-0.5-1.2-0.5c-0.3,0-0.6,0.1-0.9,0.2c-0.2,0.2-0.4,0.3-0.6,0.6C382.1,47.2,382,47.5,382,47.7z M388.7,51h-1.1v-5
	c0-0.1,0-0.1,0-0.2c0-0.1,0-0.2,0-0.3h1l0,0.9c0.1-0.1,0.2-0.3,0.4-0.4c0.2-0.2,0.4-0.3,0.6-0.4c0.2-0.1,0.5-0.2,0.9-0.2
	c0.1,0,0.2,0,0.3,0c0.1,0,0.2,0,0.3,0.1l-0.2,1c-0.1-0.1-0.3-0.1-0.6-0.1c-0.3,0-0.6,0.1-0.8,0.2c-0.2,0.2-0.4,0.4-0.6,0.6
	s-0.2,0.5-0.2,0.9V51z M394.6,51v-4.7h-1v-0.9h1V45c0-0.5,0.1-0.9,0.3-1.2s0.4-0.6,0.7-0.7s0.6-0.2,0.9-0.2c0.3,0,0.6,0,0.9,0.1
	c0.3,0.1,0.6,0.2,0.8,0.5l-0.5,0.7c-0.3-0.2-0.6-0.4-0.9-0.4c-0.3,0-0.6,0.1-0.8,0.3c-0.2,0.2-0.3,0.5-0.3,1v0.4h1.6v0.9h-1.6V51
	H394.6z M398.1,48.8v-3.3h1.1v3.3c0,0.5,0.1,0.9,0.3,1.1c0.2,0.2,0.5,0.4,0.9,0.4c0.4,0,0.7-0.1,1-0.3c0.2-0.2,0.4-0.5,0.5-0.8
	c0.1-0.3,0.2-0.7,0.2-1v-2.6h1.1v5c0,0,0,0.1,0,0.2c0,0.1,0,0.2,0,0.3h-1l0-0.8c-0.1,0.1-0.2,0.3-0.4,0.4c-0.2,0.1-0.4,0.3-0.6,0.4
	c-0.2,0.1-0.5,0.2-0.9,0.2c-0.7,0-1.3-0.2-1.6-0.6S398.1,49.5,398.1,48.8z M405.7,51h-1.1v-5c0-0.1,0-0.1,0-0.2c0-0.1,0-0.2,0-0.4h1
	l0,0.8c0.1-0.1,0.2-0.3,0.4-0.4c0.2-0.2,0.4-0.3,0.6-0.4c0.2-0.1,0.5-0.2,0.9-0.2c0.7,0,1.3,0.2,1.6,0.6c0.4,0.4,0.5,1,0.5,1.7V51
	h-1.1v-3.3c0-0.5-0.1-0.9-0.3-1.1c-0.2-0.2-0.5-0.4-0.9-0.4c-0.4,0-0.7,0.1-1,0.3c-0.2,0.2-0.4,0.5-0.5,0.8c-0.1,0.3-0.1,0.7-0.1,1
	V51z M415.2,51l0-0.7c-0.1,0.1-0.2,0.2-0.3,0.3c-0.1,0.1-0.3,0.3-0.6,0.4c-0.2,0.1-0.6,0.2-0.9,0.2c-0.5,0-0.9-0.1-1.3-0.3
	c-0.4-0.2-0.7-0.6-0.9-1s-0.3-0.9-0.3-1.5c0-0.5,0.1-1,0.3-1.4c0.2-0.4,0.4-0.7,0.7-0.9c0.3-0.2,0.6-0.4,0.9-0.5
	c0.3-0.1,0.7-0.2,0.9-0.2c0.3,0,0.6,0,0.8,0.1c0.2,0.1,0.4,0.2,0.7,0.3V43h1.1v7.4c0,0,0,0.1,0,0.2c0,0.1,0,0.2,0,0.3H415.2z
	 M415.1,48.6v-2c-0.1-0.1-0.3-0.2-0.6-0.3c-0.2-0.1-0.5-0.1-0.8-0.1c-0.5,0-1,0.2-1.3,0.6c-0.3,0.4-0.5,0.9-0.5,1.5
	c0,0.4,0.1,0.7,0.2,1c0.1,0.3,0.3,0.5,0.5,0.7c0.2,0.2,0.5,0.3,0.9,0.3c0.4,0,0.7-0.1,0.9-0.3c0.2-0.2,0.4-0.4,0.5-0.6
	C415.1,49.1,415.1,48.9,415.1,48.6z M417.8,51v-1.3h1.4V51H417.8z M425.4,51l-3.1-8h1.3l2.4,6.6l2.4-6.6h1.2l-3.1,8H425.4z
	 M430.6,44.4v-1.2h1.2v1.2H430.6z M430.6,51v-5.6h1.1V51H430.6z M433,50.3l0.7-0.7c0.2,0.2,0.4,0.4,0.7,0.5s0.6,0.2,1,0.2
	c0.4,0,0.7-0.1,0.9-0.2c0.2-0.1,0.4-0.3,0.4-0.6c0-0.2,0-0.3-0.1-0.4c-0.1-0.1-0.3-0.2-0.5-0.3c-0.2-0.1-0.6-0.2-1-0.3
	c-0.3-0.1-0.6-0.2-0.8-0.3c-0.3-0.1-0.5-0.3-0.7-0.5c-0.2-0.2-0.3-0.5-0.3-0.9c0-0.4,0.1-0.7,0.3-0.9c0.2-0.2,0.5-0.4,0.8-0.6
	c0.3-0.1,0.7-0.2,1.1-0.2c0.5,0,0.9,0.1,1.2,0.2c0.3,0.1,0.6,0.3,0.9,0.5l-0.6,0.7c-0.2-0.2-0.4-0.3-0.6-0.4
	c-0.2-0.1-0.5-0.2-0.9-0.2c-0.3,0-0.6,0.1-0.8,0.2c-0.2,0.1-0.3,0.3-0.3,0.6c0,0.2,0.1,0.4,0.4,0.5c0.3,0.1,0.6,0.2,1.1,0.3
	c0.4,0.1,0.7,0.2,0.9,0.3c0.3,0.1,0.5,0.3,0.7,0.5c0.2,0.2,0.3,0.5,0.3,0.9c0,0.4-0.1,0.7-0.3,0.9c-0.2,0.2-0.5,0.4-0.9,0.6
	c-0.4,0.1-0.7,0.2-1.1,0.2C434.3,51.2,433.5,50.9,433,50.3z M438.9,44.4v-1.2h1.2v1.2H438.9z M439,51v-5.6h1.1V51H439z M442.1,49.2
	v-2.9h-1v-0.9h1v-1.8h1.1v1.8h1.6v0.9h-1.6v2.7c0,0.4,0.1,0.8,0.2,0.9c0.1,0.2,0.3,0.3,0.6,0.3c0.2,0,0.4,0,0.5-0.1
	c0.1-0.1,0.3-0.2,0.4-0.3l0.5,0.7c-0.2,0.2-0.5,0.4-0.7,0.5c-0.2,0.1-0.5,0.2-0.9,0.2c-0.6,0-1-0.2-1.3-0.5
	C442.2,50.3,442.1,49.8,442.1,49.2z M448.3,51v-8h1.1v3.3c0.1-0.1,0.2-0.3,0.4-0.4c0.2-0.2,0.4-0.3,0.6-0.4c0.2-0.1,0.5-0.2,0.9-0.2
	c0.7,0,1.3,0.2,1.6,0.6c0.4,0.4,0.5,1,0.5,1.7V51h-1.1v-3.3c0-0.5-0.1-0.9-0.3-1.1c-0.2-0.2-0.5-0.4-0.9-0.4c-0.4,0-0.7,0.1-1,0.3
	c-0.2,0.2-0.4,0.5-0.5,0.8c-0.1,0.3-0.1,0.7-0.1,1V51H448.3z M457.6,51.2c-0.6,0-1.1-0.1-1.5-0.4c-0.4-0.3-0.8-0.6-1.1-1.1
	c-0.2-0.5-0.4-1-0.4-1.5c0-0.5,0.1-1,0.4-1.5c0.3-0.4,0.6-0.8,1.1-1.1c0.4-0.3,1-0.4,1.5-0.4s1.1,0.1,1.5,0.4
	c0.4,0.3,0.8,0.6,1.1,1.1c0.3,0.4,0.4,0.9,0.4,1.5c0,0.5-0.1,1-0.4,1.5c-0.3,0.4-0.6,0.8-1.1,1.1C458.6,51,458.1,51.2,457.6,51.2z
	 M457.6,50.2c0.4,0,0.7-0.1,1-0.3c0.3-0.2,0.5-0.5,0.6-0.8c0.2-0.3,0.2-0.6,0.2-1c0-0.3-0.1-0.7-0.2-1c-0.1-0.3-0.4-0.6-0.6-0.8
	c-0.3-0.2-0.6-0.3-1-0.3s-0.7,0.1-1,0.3c-0.3,0.2-0.5,0.4-0.6,0.8c-0.1,0.3-0.2,0.6-0.2,1c0,0.3,0.1,0.7,0.2,1
	c0.2,0.3,0.4,0.6,0.6,0.8C456.8,50.1,457.2,50.2,457.6,50.2z M461.4,50.3l0.7-0.7c0.2,0.2,0.4,0.4,0.7,0.5s0.6,0.2,1,0.2
	c0.4,0,0.7-0.1,0.9-0.2c0.2-0.1,0.4-0.3,0.4-0.6c0-0.2,0-0.3-0.1-0.4c-0.1-0.1-0.3-0.2-0.5-0.3c-0.2-0.1-0.6-0.2-1-0.3
	c-0.3-0.1-0.6-0.2-0.8-0.3c-0.3-0.1-0.5-0.3-0.7-0.5c-0.2-0.2-0.3-0.5-0.3-0.9c0-0.4,0.1-0.7,0.3-0.9c0.2-0.2,0.5-0.4,0.8-0.6
	c0.3-0.1,0.7-0.2,1.1-0.2c0.5,0,0.9,0.1,1.2,0.2c0.3,0.1,0.6,0.3,0.9,0.5l-0.6,0.7c-0.2-0.2-0.4-0.3-0.6-0.4
	c-0.2-0.1-0.5-0.2-0.9-0.2c-0.3,0-0.6,0.1-0.8,0.2s-0.3,0.3-0.3,0.6c0,0.2,0.1,0.4,0.4,0.5c0.3,0.1,0.6,0.2,1.1,0.3
	c0.4,0.1,0.7,0.2,0.9,0.3c0.3,0.1,0.5,0.3,0.7,0.5c0.2,0.2,0.3,0.5,0.3,0.9c0,0.4-0.1,0.7-0.3,0.9c-0.2,0.2-0.5,0.4-0.9,0.6
	c-0.4,0.1-0.7,0.2-1.1,0.2C462.8,51.2,462,50.9,461.4,50.3z M467.9,49.2v-2.9h-1v-0.9h1v-1.8h1.1v1.8h1.6v0.9H469v2.7
	c0,0.4,0.1,0.8,0.2,0.9c0.1,0.2,0.3,0.3,0.6,0.3c0.2,0,0.4,0,0.5-0.1c0.1-0.1,0.3-0.2,0.4-0.3l0.5,0.7c-0.2,0.2-0.5,0.4-0.7,0.5
	c-0.2,0.1-0.5,0.2-0.9,0.2c-0.6,0-1-0.2-1.3-0.5C468,50.3,467.9,49.8,467.9,49.2z M473.1,53.4H472V46c0-0.1,0-0.1,0-0.2
	c0-0.1,0-0.2,0-0.4h1l0,0.8c0.1-0.1,0.2-0.2,0.3-0.4c0.2-0.1,0.4-0.3,0.6-0.4c0.3-0.1,0.6-0.2,0.9-0.2c0.6,0,1,0.1,1.4,0.4
	c0.4,0.3,0.7,0.6,0.8,1.1c0.2,0.4,0.3,0.9,0.3,1.5c0,0.5-0.1,0.9-0.3,1.3c-0.2,0.4-0.4,0.7-0.7,0.9c-0.3,0.2-0.6,0.4-0.9,0.5
	c-0.3,0.1-0.7,0.2-1,0.2c-0.4,0-0.7,0-0.9-0.1c-0.2-0.1-0.4-0.2-0.6-0.2V53.4z M473.1,48.4v1.4c0.1,0.1,0.3,0.2,0.6,0.3
	c0.2,0.1,0.5,0.1,0.9,0.1c0.4,0,0.7-0.1,1-0.3c0.3-0.2,0.5-0.4,0.6-0.7c0.2-0.3,0.2-0.6,0.2-1c0-0.4-0.1-0.7-0.2-1
	c-0.1-0.3-0.3-0.5-0.5-0.7c-0.2-0.2-0.6-0.3-1-0.3c-0.4,0-0.7,0.1-1,0.3c-0.3,0.2-0.5,0.5-0.6,0.9c0,0.1-0.1,0.3-0.1,0.4
	C473.1,48,473.1,48.2,473.1,48.4z M478.7,51v-8h1.1v8H478.7z M481.2,48.8v-3.3h1.1v3.3c0,0.5,0.1,0.9,0.3,1.1
	c0.2,0.2,0.5,0.4,0.9,0.4c0.4,0,0.7-0.1,1-0.3c0.2-0.2,0.4-0.5,0.5-0.8c0.1-0.3,0.2-0.7,0.2-1v-2.6h1.1v5c0,0,0,0.1,0,0.2
	c0,0.1,0,0.2,0,0.3h-1l0-0.8c-0.1,0.1-0.2,0.3-0.4,0.4c-0.2,0.1-0.4,0.3-0.6,0.4c-0.2,0.1-0.5,0.2-0.9,0.2c-0.7,0-1.3-0.2-1.6-0.6
	S481.2,49.5,481.2,48.8z M487.4,50.3l0.7-0.7c0.2,0.2,0.4,0.4,0.7,0.5s0.6,0.2,1,0.2c0.4,0,0.7-0.1,0.9-0.2c0.2-0.1,0.4-0.3,0.4-0.6
	c0-0.2,0-0.3-0.1-0.4c-0.1-0.1-0.3-0.2-0.5-0.3c-0.2-0.1-0.6-0.2-1-0.3c-0.3-0.1-0.6-0.2-0.8-0.3c-0.3-0.1-0.5-0.3-0.7-0.5
	c-0.2-0.2-0.3-0.5-0.3-0.9c0-0.4,0.1-0.7,0.3-0.9c0.2-0.2,0.5-0.4,0.8-0.6c0.3-0.1,0.7-0.2,1.1-0.2c0.5,0,0.9,0.1,1.2,0.2
	c0.3,0.1,0.6,0.3,0.9,0.5l-0.6,0.7c-0.2-0.2-0.4-0.3-0.6-0.4c-0.2-0.1-0.5-0.2-0.9-0.2c-0.3,0-0.6,0.1-0.8,0.2s-0.3,0.3-0.3,0.6
	c0,0.2,0.1,0.4,0.4,0.5c0.3,0.1,0.6,0.2,1.1,0.3c0.4,0.1,0.7,0.2,0.9,0.3c0.3,0.1,0.5,0.3,0.7,0.5c0.2,0.2,0.3,0.5,0.3,0.9
	c0,0.4-0.1,0.7-0.3,0.9c-0.2,0.2-0.5,0.4-0.9,0.6c-0.4,0.1-0.7,0.2-1.1,0.2C488.8,51.2,488,50.9,487.4,50.3z M493.2,51v-1.3h1.4V51
	H493.2z M499.9,49.5l0.7,0.7c-0.2,0.3-0.6,0.5-0.9,0.7c-0.4,0.2-0.8,0.3-1.3,0.3c-0.6,0-1.1-0.1-1.6-0.4c-0.4-0.3-0.8-0.6-1-1
	c-0.2-0.4-0.4-1-0.4-1.5c0-0.5,0.1-1,0.4-1.5c0.2-0.4,0.6-0.8,1-1.1c0.4-0.3,1-0.4,1.5-0.4c0.5,0,0.9,0.1,1.2,0.3
	c0.4,0.2,0.7,0.4,0.9,0.7l-0.7,0.7c-0.2-0.2-0.4-0.4-0.6-0.5c-0.2-0.1-0.5-0.2-0.9-0.2c-0.4,0-0.7,0.1-1,0.3
	c-0.3,0.2-0.5,0.4-0.6,0.7s-0.2,0.6-0.2,1c0,0.3,0.1,0.7,0.2,1c0.2,0.3,0.4,0.6,0.6,0.7c0.3,0.2,0.6,0.3,1,0.3
	c0.3,0,0.6-0.1,0.9-0.2C499.5,49.9,499.8,49.7,499.9,49.5z M504,51.2c-0.6,0-1.1-0.1-1.5-0.4c-0.4-0.3-0.8-0.6-1.1-1.1
	c-0.2-0.5-0.4-1-0.4-1.5c0-0.5,0.1-1,0.4-1.5c0.3-0.4,0.6-0.8,1.1-1.1c0.4-0.3,1-0.4,1.5-0.4c0.6,0,1.1,0.1,1.5,0.4
	c0.4,0.3,0.8,0.6,1.1,1.1c0.3,0.4,0.4,0.9,0.4,1.5c0,0.5-0.1,1-0.4,1.5c-0.3,0.4-0.6,0.8-1.1,1.1C505.1,51,504.6,51.2,504,51.2z
	 M504,50.2c0.4,0,0.7-0.1,1-0.3c0.3-0.2,0.5-0.5,0.6-0.8c0.2-0.3,0.2-0.6,0.2-1c0-0.3-0.1-0.7-0.2-1c-0.1-0.3-0.4-0.6-0.6-0.8
	c-0.3-0.2-0.6-0.3-1-0.3c-0.4,0-0.7,0.1-1,0.3c-0.3,0.2-0.5,0.4-0.6,0.8c-0.1,0.3-0.2,0.6-0.2,1c0,0.3,0.1,0.7,0.2,1
	c0.2,0.3,0.4,0.6,0.6,0.8C503.3,50.1,503.6,50.2,504,50.2z M509.3,51h-1.1v-5c0-0.1,0-0.1,0-0.2c0-0.1,0-0.2,0-0.4h1l0,0.8
	c0.1-0.1,0.2-0.3,0.4-0.4c0.2-0.2,0.3-0.3,0.6-0.4c0.2-0.1,0.5-0.2,0.9-0.2c0.4,0,0.8,0.1,1.1,0.3c0.3,0.2,0.5,0.4,0.7,0.7
	c0.2-0.3,0.5-0.5,0.8-0.7c0.3-0.2,0.7-0.3,1.2-0.3c0.7,0,1.3,0.2,1.6,0.6c0.3,0.4,0.5,1,0.5,1.7V51h-1.1v-3.3c0-1-0.4-1.5-1.2-1.5
	c-0.3,0-0.6,0.1-0.8,0.2c-0.2,0.2-0.4,0.4-0.6,0.6c-0.1,0.2-0.2,0.5-0.2,0.8V51H512v-3.3c0-0.5-0.1-0.9-0.3-1.1
	c-0.2-0.2-0.5-0.4-0.9-0.4c-0.4,0-0.7,0.1-0.9,0.3c-0.2,0.2-0.4,0.5-0.5,0.8c-0.1,0.3-0.1,0.7-0.1,1V51z M518.5,51v-1.3h1.4V51
	H518.5z M524.9,51l0-0.7c-0.2,0.3-0.5,0.5-0.8,0.6c-0.3,0.1-0.7,0.2-1,0.2c-0.3,0-0.6-0.1-0.9-0.2c-0.3-0.1-0.5-0.3-0.7-0.6
	c-0.2-0.3-0.3-0.6-0.3-1c0-0.6,0.2-1.1,0.6-1.4c0.4-0.4,1-0.5,1.8-0.5c0.2,0,0.4,0,0.5,0c0.2,0,0.4,0,0.5,0c0.2,0,0.3,0,0.3,0v-0.2
	c0-0.4-0.1-0.7-0.4-0.9c-0.2-0.2-0.6-0.3-1-0.3c-0.4,0-0.8,0.1-1,0.2c-0.2,0.1-0.5,0.2-0.6,0.3l-0.5-0.7c0.2-0.2,0.5-0.3,0.8-0.5
	s0.8-0.2,1.4-0.2c0.7,0,1.3,0.2,1.7,0.5c0.4,0.3,0.6,0.8,0.6,1.5v3.3c0,0.1,0,0.1,0,0.2c0,0.1,0,0.2,0,0.3H524.9z M524.9,49v-0.6
	c0,0-0.1,0-0.3,0c-0.1,0-0.3,0-0.5,0c-0.2,0-0.3,0-0.5,0c-0.4,0-0.7,0.1-0.9,0.2c-0.2,0.1-0.4,0.3-0.4,0.4c-0.1,0.2-0.1,0.3-0.1,0.5
	c0,0.3,0.1,0.5,0.3,0.7s0.5,0.2,0.9,0.2c0.3,0,0.5-0.1,0.8-0.2c0.2-0.1,0.4-0.3,0.6-0.5C524.8,49.4,524.9,49.2,524.9,49z
	 M527.4,48.8v-3.3h1.1v3.3c0,0.5,0.1,0.9,0.3,1.1c0.2,0.2,0.5,0.4,0.9,0.4c0.4,0,0.7-0.1,1-0.3c0.2-0.2,0.4-0.5,0.5-0.8
	c0.1-0.3,0.2-0.7,0.2-1v-2.6h1.1v5c0,0,0,0.1,0,0.2c0,0.1,0,0.2,0,0.3h-1l0-0.8c-0.1,0.1-0.2,0.3-0.4,0.4c-0.2,0.1-0.4,0.3-0.6,0.4
	c-0.2,0.1-0.5,0.2-0.9,0.2c-0.7,0-1.3-0.2-1.6-0.6S527.4,49.5,527.4,48.8z M533.5,51.2l3.2-8.4h1.1l-3.2,8.4H533.5z M541.2,51l0-0.7
	c-0.2,0.3-0.5,0.5-0.8,0.6c-0.3,0.1-0.7,0.2-1,0.2c-0.3,0-0.6-0.1-0.9-0.2c-0.3-0.1-0.5-0.3-0.7-0.6c-0.2-0.3-0.3-0.6-0.3-1
	c0-0.6,0.2-1.1,0.6-1.4c0.4-0.4,1-0.5,1.8-0.5c0.2,0,0.4,0,0.5,0c0.2,0,0.4,0,0.5,0c0.2,0,0.3,0,0.3,0v-0.2c0-0.4-0.1-0.7-0.4-0.9
	c-0.2-0.2-0.6-0.3-1-0.3c-0.4,0-0.8,0.1-1,0.2c-0.2,0.1-0.5,0.2-0.6,0.3l-0.5-0.7c0.2-0.2,0.5-0.3,0.8-0.5s0.8-0.2,1.4-0.2
	c0.7,0,1.3,0.2,1.7,0.5c0.4,0.3,0.6,0.8,0.6,1.5v3.3c0,0.1,0,0.1,0,0.2c0,0.1,0,0.2,0,0.3H541.2z M541.2,49v-0.6c0,0-0.1,0-0.3,0
	c-0.1,0-0.3,0-0.5,0c-0.2,0-0.3,0-0.5,0c-0.4,0-0.7,0.1-0.9,0.2c-0.2,0.1-0.4,0.3-0.4,0.4c-0.1,0.2-0.1,0.3-0.1,0.5
	c0,0.3,0.1,0.5,0.3,0.7s0.5,0.2,0.9,0.2c0.3,0,0.5-0.1,0.8-0.2c0.2-0.1,0.4-0.3,0.6-0.5C541.1,49.4,541.2,49.2,541.2,49z M544.8,51
	l-1.9-5.6h1.2l1.2,4.3l1.3-4.3h0.9l1.3,4.3l1.2-4.3h1.1l-1.8,5.6h-1.1l-1.3-3.9l-1.3,3.9H544.8z M555.7,51l0-0.7
	c-0.2,0.3-0.5,0.5-0.8,0.6c-0.3,0.1-0.7,0.2-1,0.2c-0.3,0-0.6-0.1-0.9-0.2c-0.3-0.1-0.5-0.3-0.7-0.6c-0.2-0.3-0.3-0.6-0.3-1
	c0-0.6,0.2-1.1,0.6-1.4c0.4-0.4,1-0.5,1.8-0.5c0.2,0,0.4,0,0.5,0c0.2,0,0.4,0,0.5,0c0.2,0,0.3,0,0.3,0v-0.2c0-0.4-0.1-0.7-0.4-0.9
	c-0.2-0.2-0.6-0.3-1-0.3c-0.4,0-0.8,0.1-1,0.2c-0.2,0.1-0.5,0.2-0.6,0.3l-0.5-0.7c0.2-0.2,0.5-0.3,0.8-0.5s0.8-0.2,1.4-0.2
	c0.7,0,1.3,0.2,1.7,0.5c0.4,0.3,0.6,0.8,0.6,1.5v3.3c0,0.1,0,0.1,0,0.2c0,0.1,0,0.2,0,0.3H555.7z M555.7,49v-0.6c0,0-0.1,0-0.3,0
	c-0.1,0-0.3,0-0.5,0c-0.2,0-0.3,0-0.5,0c-0.4,0-0.7,0.1-0.9,0.2c-0.2,0.1-0.4,0.3-0.4,0.4c-0.1,0.2-0.1,0.3-0.1,0.5
	c0,0.3,0.1,0.5,0.3,0.7s0.5,0.2,0.9,0.2c0.3,0,0.5-0.1,0.8-0.2c0.2-0.1,0.4-0.3,0.6-0.5C555.6,49.4,555.7,49.2,555.7,49z M559.3,51
	h-1.1v-5c0-0.1,0-0.1,0-0.2c0-0.1,0-0.2,0-0.3h1l0,0.9c0.1-0.1,0.2-0.3,0.4-0.4c0.2-0.2,0.4-0.3,0.6-0.4c0.2-0.1,0.5-0.2,0.9-0.2
	c0.1,0,0.2,0,0.3,0c0.1,0,0.2,0,0.3,0.1l-0.2,1c-0.1-0.1-0.3-0.1-0.6-0.1c-0.3,0-0.6,0.1-0.8,0.2c-0.2,0.2-0.4,0.4-0.6,0.6
	c-0.1,0.3-0.2,0.5-0.2,0.9V51z M566.3,51l0-0.7c-0.1,0.1-0.2,0.2-0.3,0.3c-0.1,0.1-0.3,0.3-0.6,0.4c-0.2,0.1-0.6,0.2-0.9,0.2
	c-0.5,0-0.9-0.1-1.3-0.3c-0.4-0.2-0.7-0.6-0.9-1s-0.3-0.9-0.3-1.5c0-0.5,0.1-1,0.3-1.4c0.2-0.4,0.4-0.7,0.7-0.9
	c0.3-0.2,0.6-0.4,0.9-0.5c0.3-0.1,0.7-0.2,0.9-0.2c0.3,0,0.6,0,0.8,0.1c0.2,0.1,0.4,0.2,0.7,0.3V43h1.1v7.4c0,0,0,0.1,0,0.2
	c0,0.1,0,0.2,0,0.3H566.3z M566.3,48.6v-2c-0.1-0.1-0.3-0.2-0.6-0.3c-0.2-0.1-0.5-0.1-0.8-0.1c-0.5,0-1,0.2-1.3,0.6
	c-0.3,0.4-0.5,0.9-0.5,1.5c0,0.4,0.1,0.7,0.2,1c0.1,0.3,0.3,0.5,0.5,0.7c0.2,0.2,0.5,0.3,0.9,0.3c0.4,0,0.7-0.1,0.9-0.3
	c0.2-0.2,0.4-0.4,0.5-0.6C566.2,49.1,566.3,48.9,566.3,48.6z M568.5,50.3l0.7-0.7c0.2,0.2,0.4,0.4,0.7,0.5c0.3,0.1,0.6,0.2,1,0.2
	c0.4,0,0.7-0.1,0.9-0.2c0.2-0.1,0.4-0.3,0.4-0.6c0-0.2,0-0.3-0.1-0.4c-0.1-0.1-0.3-0.2-0.5-0.3c-0.2-0.1-0.6-0.2-1-0.3
	c-0.3-0.1-0.6-0.2-0.8-0.3c-0.3-0.1-0.5-0.3-0.7-0.5c-0.2-0.2-0.3-0.5-0.3-0.9c0-0.4,0.1-0.7,0.3-0.9c0.2-0.2,0.5-0.4,0.8-0.6
	c0.3-0.1,0.7-0.2,1.1-0.2c0.5,0,0.9,0.1,1.2,0.2c0.3,0.1,0.6,0.3,0.9,0.5l-0.6,0.7c-0.2-0.2-0.4-0.3-0.6-0.4
	c-0.2-0.1-0.5-0.2-0.9-0.2c-0.3,0-0.6,0.1-0.8,0.2s-0.3,0.3-0.3,0.6c0,0.2,0.1,0.4,0.4,0.5c0.3,0.1,0.6,0.2,1.1,0.3
	c0.4,0.1,0.7,0.2,0.9,0.3c0.3,0.1,0.5,0.3,0.7,0.5c0.2,0.2,0.3,0.5,0.3,0.9c0,0.4-0.1,0.7-0.3,0.9c-0.2,0.2-0.5,0.4-0.9,0.6
	c-0.4,0.1-0.7,0.2-1.1,0.2C569.9,51.2,569.1,50.9,568.5,50.3z M577.1,51v-4.7h-1v-0.9h1V45c0-0.5,0.1-0.9,0.3-1.2s0.4-0.6,0.7-0.7
	c0.3-0.2,0.6-0.2,0.9-0.2c0.3,0,0.6,0,0.9,0.1c0.3,0.1,0.6,0.2,0.8,0.5l-0.5,0.7c-0.3-0.2-0.6-0.4-0.9-0.4c-0.3,0-0.6,0.1-0.8,0.3
	c-0.2,0.2-0.3,0.5-0.3,1v0.4h1.6v0.9h-1.6V51H577.1z M583.1,51.2c-0.6,0-1.1-0.1-1.5-0.4c-0.4-0.3-0.8-0.6-1.1-1.1
	c-0.2-0.5-0.4-1-0.4-1.5c0-0.5,0.1-1,0.4-1.5c0.3-0.4,0.6-0.8,1.1-1.1c0.4-0.3,1-0.4,1.5-0.4s1.1,0.1,1.5,0.4
	c0.4,0.3,0.8,0.6,1.1,1.1c0.3,0.4,0.4,0.9,0.4,1.5c0,0.5-0.1,1-0.4,1.5c-0.3,0.4-0.6,0.8-1.1,1.1C584.2,51,583.7,51.2,583.1,51.2z
	 M583.1,50.2c0.4,0,0.7-0.1,1-0.3c0.3-0.2,0.5-0.5,0.6-0.8c0.2-0.3,0.2-0.6,0.2-1c0-0.3-0.1-0.7-0.2-1c-0.1-0.3-0.4-0.6-0.6-0.8
	c-0.3-0.2-0.6-0.3-1-0.3c-0.4,0-0.7,0.1-1,0.3c-0.3,0.2-0.5,0.4-0.6,0.8c-0.1,0.3-0.2,0.6-0.2,1c0,0.3,0.1,0.7,0.2,1
	c0.2,0.3,0.4,0.6,0.6,0.8C582.4,50.1,582.7,50.2,583.1,50.2z M588.3,51h-1.1v-5c0-0.1,0-0.1,0-0.2c0-0.1,0-0.2,0-0.3h1l0,0.9
	c0.1-0.1,0.2-0.3,0.4-0.4c0.2-0.2,0.4-0.3,0.6-0.4c0.2-0.1,0.5-0.2,0.9-0.2c0.1,0,0.2,0,0.3,0c0.1,0,0.2,0,0.3,0.1l-0.2,1
	c-0.1-0.1-0.3-0.1-0.6-0.1c-0.3,0-0.6,0.1-0.8,0.2c-0.2,0.2-0.4,0.4-0.6,0.6s-0.2,0.5-0.2,0.9V51z M597.3,51l0-0.7
	c-0.2,0.3-0.5,0.5-0.8,0.6c-0.3,0.1-0.7,0.2-1,0.2c-0.3,0-0.6-0.1-0.9-0.2c-0.3-0.1-0.5-0.3-0.7-0.6c-0.2-0.3-0.3-0.6-0.3-1
	c0-0.6,0.2-1.1,0.6-1.4c0.4-0.4,1-0.5,1.8-0.5c0.2,0,0.4,0,0.5,0c0.2,0,0.4,0,0.5,0c0.2,0,0.3,0,0.3,0v-0.2c0-0.4-0.1-0.7-0.4-0.9
	c-0.2-0.2-0.6-0.3-1-0.3c-0.4,0-0.8,0.1-1,0.2c-0.2,0.1-0.5,0.2-0.6,0.3l-0.5-0.7c0.2-0.2,0.5-0.3,0.8-0.5s0.8-0.2,1.4-0.2
	c0.7,0,1.3,0.2,1.7,0.5c0.4,0.3,0.6,0.8,0.6,1.5v3.3c0,0.1,0,0.1,0,0.2c0,0.1,0,0.2,0,0.3H597.3z M597.3,49v-0.6c0,0-0.1,0-0.3,0
	c-0.1,0-0.3,0-0.5,0c-0.2,0-0.3,0-0.5,0c-0.4,0-0.7,0.1-0.9,0.2c-0.2,0.1-0.4,0.3-0.4,0.4c-0.1,0.2-0.1,0.3-0.1,0.5
	c0,0.3,0.1,0.5,0.3,0.7s0.5,0.2,0.9,0.2c0.3,0,0.5-0.1,0.8-0.2c0.2-0.1,0.4-0.3,0.6-0.5C597.2,49.4,597.3,49.2,597.3,49z M600.9,51
	l-1.9-5.6h1.2l1.2,4.3l1.3-4.3h0.9l1.3,4.3l1.2-4.3h1.1l-1.8,5.6h-1.1l-1.3-3.9l-1.3,3.9H600.9z M611.8,51l0-0.7
	c-0.2,0.3-0.5,0.5-0.8,0.6c-0.3,0.1-0.7,0.2-1,0.2c-0.3,0-0.6-0.1-0.9-0.2c-0.3-0.1-0.5-0.3-0.7-0.6c-0.2-0.3-0.3-0.6-0.3-1
	c0-0.6,0.2-1.1,0.6-1.4c0.4-0.4,1-0.5,1.8-0.5c0.2,0,0.4,0,0.5,0c0.2,0,0.4,0,0.5,0c0.2,0,0.3,0,0.3,0v-0.2c0-0.4-0.1-0.7-0.4-0.9
	c-0.2-0.2-0.6-0.3-1-0.3c-0.4,0-0.8,0.1-1,0.2c-0.2,0.1-0.5,0.2-0.6,0.3l-0.5-0.7c0.2-0.2,0.5-0.3,0.8-0.5s0.8-0.2,1.4-0.2
	c0.7,0,1.3,0.2,1.7,0.5c0.4,0.3,0.6,0.8,0.6,1.5v3.3c0,0.1,0,0.1,0,0.2c0,0.1,0,0.2,0,0.3H611.8z M611.8,49v-0.6c0,0-0.1,0-0.3,0
	c-0.1,0-0.3,0-0.5,0c-0.2,0-0.3,0-0.5,0c-0.4,0-0.7,0.1-0.9,0.2c-0.2,0.1-0.4,0.3-0.4,0.4c-0.1,0.2-0.1,0.3-0.1,0.5
	c0,0.3,0.1,0.5,0.3,0.7s0.5,0.2,0.9,0.2c0.3,0,0.5-0.1,0.8-0.2c0.2-0.1,0.4-0.3,0.6-0.5C611.7,49.4,611.8,49.2,611.8,49z M615.3,51
	h-1.1v-5c0-0.1,0-0.1,0-0.2c0-0.1,0-0.2,0-0.3h1l0,0.9c0.1-0.1,0.2-0.3,0.4-0.4c0.2-0.2,0.4-0.3,0.6-0.4c0.2-0.1,0.5-0.2,0.9-0.2
	c0.1,0,0.2,0,0.3,0c0.1,0,0.2,0,0.3,0.1l-0.2,1c-0.1-0.1-0.3-0.1-0.6-0.1c-0.3,0-0.6,0.1-0.8,0.2c-0.2,0.2-0.4,0.4-0.6,0.6
	s-0.2,0.5-0.2,0.9V51z M622.4,51l0-0.7c-0.1,0.1-0.2,0.2-0.3,0.3c-0.1,0.1-0.3,0.3-0.6,0.4c-0.2,0.1-0.6,0.2-0.9,0.2
	c-0.5,0-0.9-0.1-1.3-0.3c-0.4-0.2-0.7-0.6-0.9-1s-0.3-0.9-0.3-1.5c0-0.5,0.1-1,0.3-1.4c0.2-0.4,0.4-0.7,0.7-0.9
	c0.3-0.2,0.6-0.4,0.9-0.5c0.3-0.1,0.7-0.2,0.9-0.2c0.3,0,0.6,0,0.8,0.1c0.2,0.1,0.4,0.2,0.7,0.3V43h1.1v7.4c0,0,0,0.1,0,0.2
	c0,0.1,0,0.2,0,0.3H622.4z M622.4,48.6v-2c-0.1-0.1-0.3-0.2-0.6-0.3c-0.2-0.1-0.5-0.1-0.8-0.1c-0.5,0-1,0.2-1.3,0.6
	c-0.3,0.4-0.5,0.9-0.5,1.5c0,0.4,0.1,0.7,0.2,1c0.1,0.3,0.3,0.5,0.5,0.7c0.2,0.2,0.5,0.3,0.9,0.3c0.4,0,0.7-0.1,0.9-0.3
	c0.2-0.2,0.4-0.4,0.5-0.6C622.3,49.1,622.4,48.9,622.4,48.6z M624.6,50.3l0.7-0.7c0.2,0.2,0.4,0.4,0.7,0.5c0.3,0.1,0.6,0.2,1,0.2
	c0.4,0,0.7-0.1,0.9-0.2c0.2-0.1,0.4-0.3,0.4-0.6c0-0.2,0-0.3-0.1-0.4c-0.1-0.1-0.3-0.2-0.5-0.3c-0.2-0.1-0.6-0.2-1-0.3
	c-0.3-0.1-0.6-0.2-0.8-0.3c-0.3-0.1-0.5-0.3-0.7-0.5c-0.2-0.2-0.3-0.5-0.3-0.9c0-0.4,0.1-0.7,0.3-0.9c0.2-0.2,0.5-0.4,0.8-0.6
	c0.3-0.1,0.7-0.2,1.1-0.2c0.5,0,0.9,0.1,1.2,0.2c0.3,0.1,0.6,0.3,0.9,0.5l-0.6,0.7c-0.2-0.2-0.4-0.3-0.6-0.4
	c-0.2-0.1-0.5-0.2-0.9-0.2c-0.3,0-0.6,0.1-0.8,0.2s-0.3,0.3-0.3,0.6c0,0.2,0.1,0.4,0.4,0.5c0.3,0.1,0.6,0.2,1.1,0.3
	c0.4,0.1,0.7,0.2,0.9,0.3c0.3,0.1,0.5,0.3,0.7,0.5c0.2,0.2,0.3,0.5,0.3,0.9c0,0.4-0.1,0.7-0.3,0.9c-0.2,0.2-0.5,0.4-0.9,0.6
	c-0.4,0.1-0.7,0.2-1.1,0.2C626,51.2,625.2,50.9,624.6,50.3z M636.9,49.5l0.7,0.7c-0.2,0.3-0.6,0.5-0.9,0.7c-0.4,0.2-0.8,0.3-1.3,0.3
	c-0.6,0-1.1-0.1-1.6-0.4c-0.4-0.3-0.8-0.6-1-1c-0.2-0.4-0.4-1-0.4-1.5c0-0.5,0.1-1,0.4-1.5c0.2-0.4,0.6-0.8,1-1.1
	c0.4-0.3,1-0.4,1.5-0.4c0.5,0,0.9,0.1,1.2,0.3s0.7,0.4,0.9,0.7l-0.7,0.7c-0.2-0.2-0.4-0.4-0.6-0.5s-0.5-0.2-0.9-0.2
	c-0.4,0-0.7,0.1-1,0.3c-0.3,0.2-0.5,0.4-0.6,0.7c-0.1,0.3-0.2,0.6-0.2,1c0,0.3,0.1,0.7,0.2,1c0.2,0.3,0.4,0.6,0.6,0.7
	c0.3,0.2,0.6,0.3,1,0.3c0.3,0,0.6-0.1,0.9-0.2C636.6,49.9,636.8,49.7,636.9,49.5z M639.8,51h-1.1v-5c0-0.1,0-0.1,0-0.2
	c0-0.1,0-0.2,0-0.3h1l0,0.9c0.1-0.1,0.2-0.3,0.4-0.4c0.2-0.2,0.4-0.3,0.6-0.4c0.2-0.1,0.5-0.2,0.9-0.2c0.1,0,0.2,0,0.3,0
	c0.1,0,0.2,0,0.3,0.1l-0.2,1c-0.1-0.1-0.3-0.1-0.6-0.1c-0.3,0-0.6,0.1-0.8,0.2c-0.2,0.2-0.4,0.4-0.6,0.6s-0.2,0.5-0.2,0.9V51z
	 M643,44.4v-1.2h1.2v1.2H643z M643.1,51v-5.6h1.1V51H643.1z M646.2,49.2v-2.9h-1v-0.9h1v-1.8h1.1v1.8h1.6v0.9h-1.6v2.7
	c0,0.4,0.1,0.8,0.2,0.9c0.1,0.2,0.3,0.3,0.6,0.3c0.2,0,0.4,0,0.5-0.1c0.1-0.1,0.3-0.2,0.4-0.3l0.5,0.7c-0.2,0.2-0.5,0.4-0.7,0.5
	c-0.2,0.1-0.5,0.2-0.9,0.2c-0.6,0-1-0.2-1.3-0.5C646.3,50.3,646.2,49.8,646.2,49.2z M654.4,49.5l0.6,0.6c-0.1,0.1-0.2,0.2-0.4,0.4
	c-0.2,0.2-0.5,0.3-0.8,0.4c-0.3,0.1-0.7,0.2-1.2,0.2c-0.6,0-1.1-0.1-1.5-0.4c-0.4-0.3-0.8-0.6-1-1.1c-0.2-0.5-0.4-1-0.4-1.6
	c0-0.5,0.1-1,0.3-1.5c0.2-0.4,0.6-0.8,1-1c0.4-0.3,0.9-0.4,1.5-0.4c0.6,0,1.2,0.2,1.6,0.5s0.7,0.7,0.9,1.2c0.2,0.5,0.3,1,0.3,1.6
	h-4.4c0,0.3,0.1,0.6,0.3,0.9c0.2,0.3,0.4,0.5,0.7,0.6c0.3,0.1,0.6,0.2,0.9,0.2c0.5,0,0.9-0.1,1.2-0.2
	C654.1,49.8,654.3,49.7,654.4,49.5z M650.8,47.7h3.3c0-0.4-0.2-0.8-0.5-1.1c-0.3-0.3-0.7-0.5-1.2-0.5c-0.3,0-0.6,0.1-0.9,0.2
	c-0.2,0.2-0.4,0.3-0.6,0.6C650.9,47.2,650.8,47.5,650.8,47.7z M657.5,51h-1.1v-5c0-0.1,0-0.1,0-0.2c0-0.1,0-0.2,0-0.3h1l0,0.9
	c0.1-0.1,0.2-0.3,0.4-0.4c0.2-0.2,0.4-0.3,0.6-0.4c0.2-0.1,0.5-0.2,0.9-0.2c0.1,0,0.2,0,0.3,0c0.1,0,0.2,0,0.3,0.1l-0.2,1
	c-0.1-0.1-0.3-0.1-0.6-0.1c-0.3,0-0.6,0.1-0.8,0.2c-0.2,0.2-0.4,0.4-0.6,0.6c-0.1,0.3-0.2,0.5-0.2,0.9V51z M660.7,44.4v-1.2h1.2v1.2
	H660.7z M660.8,51v-5.6h1.1V51H660.8z M666.9,51l0-0.7c-0.2,0.3-0.5,0.5-0.8,0.6c-0.3,0.1-0.7,0.2-1,0.2c-0.3,0-0.6-0.1-0.9-0.2
	c-0.3-0.1-0.5-0.3-0.7-0.6c-0.2-0.3-0.3-0.6-0.3-1c0-0.6,0.2-1.1,0.6-1.4c0.4-0.4,1-0.5,1.8-0.5c0.2,0,0.4,0,0.5,0
	c0.2,0,0.4,0,0.5,0c0.2,0,0.3,0,0.3,0v-0.2c0-0.4-0.1-0.7-0.4-0.9c-0.2-0.2-0.6-0.3-1-0.3c-0.4,0-0.8,0.1-1,0.2
	c-0.2,0.1-0.5,0.2-0.6,0.3l-0.5-0.7c0.2-0.2,0.5-0.3,0.8-0.5c0.4-0.2,0.8-0.2,1.4-0.2c0.7,0,1.3,0.2,1.7,0.5
	c0.4,0.3,0.6,0.8,0.6,1.5v3.3c0,0.1,0,0.1,0,0.2c0,0.1,0,0.2,0,0.3H666.9z M666.9,49v-0.6c0,0-0.1,0-0.3,0c-0.1,0-0.3,0-0.5,0
	c-0.2,0-0.3,0-0.5,0c-0.4,0-0.7,0.1-0.9,0.2c-0.2,0.1-0.4,0.3-0.4,0.4c-0.1,0.2-0.1,0.3-0.1,0.5c0,0.3,0.1,0.5,0.3,0.7
	s0.5,0.2,0.9,0.2c0.3,0,0.5-0.1,0.8-0.2c0.2-0.1,0.4-0.3,0.6-0.5C666.8,49.4,666.9,49.2,666.9,49z M675.1,51l0-0.7
	c-0.2,0.3-0.5,0.5-0.8,0.6c-0.3,0.1-0.7,0.2-1,0.2c-0.3,0-0.6-0.1-0.9-0.2c-0.3-0.1-0.5-0.3-0.7-0.6c-0.2-0.3-0.3-0.6-0.3-1
	c0-0.6,0.2-1.1,0.6-1.4c0.4-0.4,1-0.5,1.8-0.5c0.2,0,0.4,0,0.5,0c0.2,0,0.4,0,0.5,0c0.2,0,0.3,0,0.3,0v-0.2c0-0.4-0.1-0.7-0.4-0.9
	c-0.2-0.2-0.6-0.3-1-0.3c-0.4,0-0.8,0.1-1,0.2c-0.2,0.1-0.5,0.2-0.6,0.3l-0.5-0.7c0.2-0.2,0.5-0.3,0.8-0.5c0.4-0.2,0.8-0.2,1.4-0.2
	c0.7,0,1.3,0.2,1.7,0.5c0.4,0.3,0.6,0.8,0.6,1.5v3.3c0,0.1,0,0.1,0,0.2c0,0.1,0,0.2,0,0.3H675.1z M675.1,49v-0.6c0,0-0.1,0-0.3,0
	c-0.1,0-0.3,0-0.5,0c-0.2,0-0.3,0-0.5,0c-0.4,0-0.7,0.1-0.9,0.2c-0.2,0.1-0.4,0.3-0.4,0.4c-0.1,0.2-0.1,0.3-0.1,0.5
	c0,0.3,0.1,0.5,0.3,0.7c0.2,0.2,0.5,0.2,0.9,0.2c0.3,0,0.5-0.1,0.8-0.2c0.2-0.1,0.4-0.3,0.6-0.5C675,49.4,675.1,49.2,675.1,49z
	 M678.6,51h-1.1v-5c0-0.1,0-0.1,0-0.2c0-0.1,0-0.2,0-0.4h1l0,0.8c0.1-0.1,0.2-0.3,0.4-0.4c0.2-0.2,0.4-0.3,0.6-0.4
	c0.2-0.1,0.5-0.2,0.9-0.2c0.7,0,1.3,0.2,1.6,0.6c0.4,0.4,0.5,1,0.5,1.7V51h-1.1v-3.3c0-0.5-0.1-0.9-0.3-1.1
	c-0.2-0.2-0.5-0.4-0.9-0.4c-0.4,0-0.7,0.1-1,0.3c-0.2,0.2-0.4,0.5-0.5,0.8c-0.1,0.3-0.1,0.7-0.1,1V51z M688.1,51l0-0.7
	c-0.1,0.1-0.2,0.2-0.3,0.3c-0.1,0.1-0.3,0.3-0.6,0.4c-0.2,0.1-0.6,0.2-0.9,0.2c-0.5,0-0.9-0.1-1.3-0.3c-0.4-0.2-0.7-0.6-0.9-1
	s-0.3-0.9-0.3-1.5c0-0.5,0.1-1,0.3-1.4c0.2-0.4,0.4-0.7,0.7-0.9c0.3-0.2,0.6-0.4,0.9-0.5c0.3-0.1,0.7-0.2,0.9-0.2
	c0.3,0,0.6,0,0.8,0.1c0.2,0.1,0.4,0.2,0.7,0.3V43h1.1v7.4c0,0,0,0.1,0,0.2c0,0.1,0,0.2,0,0.3H688.1z M688.1,48.6v-2
	c-0.1-0.1-0.3-0.2-0.6-0.3c-0.2-0.1-0.5-0.1-0.8-0.1c-0.5,0-1,0.2-1.3,0.6c-0.3,0.4-0.5,0.9-0.5,1.5c0,0.4,0.1,0.7,0.2,1
	c0.1,0.3,0.3,0.5,0.5,0.7c0.2,0.2,0.5,0.3,0.9,0.3c0.4,0,0.7-0.1,0.9-0.3c0.2-0.2,0.4-0.4,0.5-0.6C688.1,49.1,688.1,48.9,688.1,48.6
	z M696.9,51l0-0.7c-0.1,0.1-0.2,0.2-0.3,0.3c-0.1,0.1-0.3,0.3-0.6,0.4c-0.2,0.1-0.6,0.2-0.9,0.2c-0.5,0-0.9-0.1-1.3-0.3
	c-0.4-0.2-0.7-0.6-0.9-1s-0.3-0.9-0.3-1.5c0-0.5,0.1-1,0.3-1.4c0.2-0.4,0.4-0.7,0.7-0.9c0.3-0.2,0.6-0.4,0.9-0.5
	c0.3-0.1,0.7-0.2,0.9-0.2c0.3,0,0.6,0,0.8,0.1c0.2,0.1,0.4,0.2,0.7,0.3V43h1.1v7.4c0,0,0,0.1,0,0.2c0,0.1,0,0.2,0,0.3H696.9z
	 M696.9,48.6v-2c-0.1-0.1-0.3-0.2-0.6-0.3c-0.2-0.1-0.5-0.1-0.8-0.1c-0.5,0-1,0.2-1.3,0.6c-0.3,0.4-0.5,0.9-0.5,1.5
	c0,0.4,0.1,0.7,0.2,1c0.1,0.3,0.3,0.5,0.5,0.7c0.2,0.2,0.5,0.3,0.9,0.3c0.4,0,0.7-0.1,0.9-0.3c0.2-0.2,0.4-0.4,0.5-0.6
	C696.8,49.1,696.9,48.9,696.9,48.6z M699.4,44.4v-1.2h1.2v1.2H699.4z M699.5,51v-5.6h1.1V51H699.5z M701.8,50.3l0.7-0.7
	c0.2,0.2,0.4,0.4,0.7,0.5c0.3,0.1,0.6,0.2,1,0.2c0.4,0,0.7-0.1,0.9-0.2c0.2-0.1,0.4-0.3,0.4-0.6c0-0.2,0-0.3-0.1-0.4
	s-0.3-0.2-0.5-0.3c-0.2-0.1-0.6-0.2-1-0.3c-0.3-0.1-0.6-0.2-0.8-0.3c-0.3-0.1-0.5-0.3-0.7-0.5c-0.2-0.2-0.3-0.5-0.3-0.9
	c0-0.4,0.1-0.7,0.3-0.9c0.2-0.2,0.5-0.4,0.8-0.6c0.3-0.1,0.7-0.2,1.1-0.2c0.5,0,0.9,0.1,1.2,0.2c0.3,0.1,0.6,0.3,0.9,0.5l-0.6,0.7
	c-0.2-0.2-0.4-0.3-0.6-0.4c-0.2-0.1-0.5-0.2-0.9-0.2c-0.3,0-0.6,0.1-0.8,0.2c-0.2,0.1-0.3,0.3-0.3,0.6c0,0.2,0.1,0.4,0.4,0.5
	c0.3,0.1,0.6,0.2,1.1,0.3c0.4,0.1,0.7,0.2,0.9,0.3c0.3,0.1,0.5,0.3,0.7,0.5c0.2,0.2,0.3,0.5,0.3,0.9c0,0.4-0.1,0.7-0.3,0.9
	c-0.2,0.2-0.5,0.4-0.9,0.6c-0.4,0.1-0.7,0.2-1.1,0.2C703.1,51.2,702.3,50.9,701.8,50.3z M712,49.5l0.7,0.7c-0.2,0.3-0.6,0.5-0.9,0.7
	c-0.4,0.2-0.8,0.3-1.3,0.3c-0.6,0-1.1-0.1-1.6-0.4c-0.4-0.3-0.8-0.6-1-1c-0.2-0.4-0.4-1-0.4-1.5c0-0.5,0.1-1,0.4-1.5
	c0.2-0.4,0.6-0.8,1-1.1c0.4-0.3,1-0.4,1.5-0.4c0.5,0,0.9,0.1,1.2,0.3c0.4,0.2,0.7,0.4,0.9,0.7l-0.7,0.7c-0.2-0.2-0.4-0.4-0.6-0.5
	s-0.5-0.2-0.9-0.2c-0.4,0-0.7,0.1-1,0.3c-0.3,0.2-0.5,0.4-0.6,0.7s-0.2,0.6-0.2,1c0,0.3,0.1,0.7,0.2,1c0.2,0.3,0.4,0.6,0.6,0.7
	c0.3,0.2,0.6,0.3,1,0.3c0.3,0,0.6-0.1,0.9-0.2C711.6,49.9,711.8,49.7,712,49.5z M713.7,51v-8h1.1v8H713.7z M719.7,51l0-0.7
	c-0.2,0.3-0.5,0.5-0.8,0.6c-0.3,0.1-0.7,0.2-1,0.2c-0.3,0-0.6-0.1-0.9-0.2c-0.3-0.1-0.5-0.3-0.7-0.6c-0.2-0.3-0.3-0.6-0.3-1
	c0-0.6,0.2-1.1,0.6-1.4c0.4-0.4,1-0.5,1.8-0.5c0.2,0,0.4,0,0.5,0c0.2,0,0.4,0,0.5,0c0.2,0,0.3,0,0.3,0v-0.2c0-0.4-0.1-0.7-0.4-0.9
	c-0.2-0.2-0.6-0.3-1-0.3c-0.4,0-0.8,0.1-1,0.2c-0.2,0.1-0.5,0.2-0.6,0.3l-0.5-0.7c0.2-0.2,0.5-0.3,0.8-0.5s0.8-0.2,1.4-0.2
	c0.7,0,1.3,0.2,1.7,0.5c0.4,0.3,0.6,0.8,0.6,1.5v3.3c0,0.1,0,0.1,0,0.2c0,0.1,0,0.2,0,0.3H719.7z M719.7,49v-0.6c0,0-0.1,0-0.3,0
	c-0.1,0-0.3,0-0.5,0c-0.2,0-0.3,0-0.5,0c-0.4,0-0.7,0.1-0.9,0.2c-0.2,0.1-0.4,0.3-0.4,0.4c-0.1,0.2-0.1,0.3-0.1,0.5
	c0,0.3,0.1,0.5,0.3,0.7s0.5,0.2,0.9,0.2c0.3,0,0.5-0.1,0.8-0.2c0.2-0.1,0.4-0.3,0.6-0.5C719.6,49.4,719.7,49.2,719.7,49z
	 M722.2,44.4v-1.2h1.2v1.2H722.2z M722.3,51v-5.6h1.1V51H722.3z M726,51h-1.1v-5c0-0.1,0-0.1,0-0.2c0-0.1,0-0.2,0-0.4h1l0,0.8
	c0.1-0.1,0.2-0.3,0.4-0.4c0.2-0.2,0.3-0.3,0.6-0.4c0.2-0.1,0.5-0.2,0.9-0.2c0.4,0,0.8,0.1,1.1,0.3c0.3,0.2,0.5,0.4,0.7,0.7
	c0.2-0.3,0.5-0.5,0.8-0.7c0.3-0.2,0.7-0.3,1.2-0.3c0.7,0,1.3,0.2,1.6,0.6c0.3,0.4,0.5,1,0.5,1.7V51h-1.1v-3.3c0-1-0.4-1.5-1.2-1.5
	c-0.3,0-0.6,0.1-0.8,0.2c-0.2,0.2-0.4,0.4-0.6,0.6c-0.1,0.2-0.2,0.5-0.2,0.8V51h-1.1v-3.3c0-0.5-0.1-0.9-0.3-1.1
	c-0.2-0.2-0.5-0.4-0.9-0.4c-0.4,0-0.7,0.1-0.9,0.3s-0.4,0.5-0.5,0.8c-0.1,0.3-0.1,0.7-0.1,1V51z M739.6,49.5l0.6,0.6
	c-0.1,0.1-0.2,0.2-0.4,0.4c-0.2,0.2-0.5,0.3-0.8,0.4c-0.3,0.1-0.7,0.2-1.2,0.2c-0.6,0-1.1-0.1-1.5-0.4c-0.4-0.3-0.8-0.6-1-1.1
	c-0.2-0.5-0.4-1-0.4-1.6c0-0.5,0.1-1,0.3-1.5c0.2-0.4,0.6-0.8,1-1c0.4-0.3,0.9-0.4,1.5-0.4c0.6,0,1.2,0.2,1.6,0.5s0.7,0.7,0.9,1.2
	c0.2,0.5,0.3,1,0.3,1.6h-4.4c0,0.3,0.1,0.6,0.3,0.9c0.2,0.3,0.4,0.5,0.7,0.6c0.3,0.1,0.6,0.2,0.9,0.2c0.5,0,0.9-0.1,1.2-0.2
	C739.2,49.8,739.4,49.7,739.6,49.5z M735.9,47.7h3.3c0-0.4-0.2-0.8-0.5-1.1c-0.3-0.3-0.7-0.5-1.2-0.5c-0.3,0-0.6,0.1-0.9,0.2
	c-0.2,0.2-0.4,0.3-0.6,0.6C736,47.2,735.9,47.5,735.9,47.7z M742.6,51h-1.1v-5c0-0.1,0-0.1,0-0.2c0-0.1,0-0.2,0-0.3h1l0,0.9
	c0.1-0.1,0.2-0.3,0.4-0.4c0.2-0.2,0.4-0.3,0.6-0.4c0.2-0.1,0.5-0.2,0.9-0.2c0.1,0,0.2,0,0.3,0c0.1,0,0.2,0,0.3,0.1l-0.2,1
	c-0.1-0.1-0.3-0.1-0.6-0.1c-0.3,0-0.6,0.1-0.8,0.2c-0.2,0.2-0.4,0.4-0.6,0.6c-0.1,0.3-0.2,0.5-0.2,0.9V51z M745.3,50.3l0.7-0.7
	c0.2,0.2,0.4,0.4,0.7,0.5c0.3,0.1,0.6,0.2,1,0.2c0.4,0,0.7-0.1,0.9-0.2c0.2-0.1,0.4-0.3,0.4-0.6c0-0.2,0-0.3-0.1-0.4
	s-0.3-0.2-0.5-0.3c-0.2-0.1-0.6-0.2-1-0.3c-0.3-0.1-0.6-0.2-0.8-0.3c-0.3-0.1-0.5-0.3-0.7-0.5c-0.2-0.2-0.3-0.5-0.3-0.9
	c0-0.4,0.1-0.7,0.3-0.9c0.2-0.2,0.5-0.4,0.8-0.6c0.3-0.1,0.7-0.2,1.1-0.2c0.5,0,0.9,0.1,1.2,0.2c0.3,0.1,0.6,0.3,0.9,0.5l-0.6,0.7
	c-0.2-0.2-0.4-0.3-0.6-0.4c-0.2-0.1-0.5-0.2-0.9-0.2c-0.3,0-0.6,0.1-0.8,0.2s-0.3,0.3-0.3,0.6c0,0.2,0.1,0.4,0.4,0.5
	c0.3,0.1,0.6,0.2,1.1,0.3c0.4,0.1,0.7,0.2,0.9,0.3c0.3,0.1,0.5,0.3,0.7,0.5c0.2,0.2,0.3,0.5,0.3,0.9c0,0.4-0.1,0.7-0.3,0.9
	c-0.2,0.2-0.5,0.4-0.9,0.6c-0.4,0.1-0.7,0.2-1.1,0.2C746.6,51.2,745.8,50.9,745.3,50.3z M751,51v-1.3h1.4V51H751z M756.3,51v-8h1.2
	v8H756.3z M758.8,50.3l0.7-0.7c0.2,0.2,0.4,0.4,0.7,0.5c0.3,0.1,0.6,0.2,1,0.2c0.4,0,0.7-0.1,0.9-0.2c0.2-0.1,0.4-0.3,0.4-0.6
	c0-0.2,0-0.3-0.1-0.4s-0.3-0.2-0.5-0.3c-0.2-0.1-0.6-0.2-1-0.3c-0.3-0.1-0.6-0.2-0.8-0.3c-0.3-0.1-0.5-0.3-0.7-0.5
	c-0.2-0.2-0.3-0.5-0.3-0.9c0-0.4,0.1-0.7,0.3-0.9c0.2-0.2,0.5-0.4,0.8-0.6c0.3-0.1,0.7-0.2,1.1-0.2c0.5,0,0.9,0.1,1.2,0.2
	c0.3,0.1,0.6,0.3,0.9,0.5l-0.6,0.7c-0.2-0.2-0.4-0.3-0.6-0.4c-0.2-0.1-0.5-0.2-0.9-0.2c-0.3,0-0.6,0.1-0.8,0.2s-0.3,0.3-0.3,0.6
	c0,0.2,0.1,0.4,0.4,0.5c0.3,0.1,0.6,0.2,1.1,0.3c0.4,0.1,0.7,0.2,0.9,0.3c0.3,0.1,0.5,0.3,0.7,0.5c0.2,0.2,0.3,0.5,0.3,0.9
	c0,0.4-0.1,0.7-0.3,0.9c-0.2,0.2-0.5,0.4-0.9,0.6c-0.4,0.1-0.7,0.2-1.1,0.2C760.2,51.2,759.4,50.9,758.8,50.3z M764.5,50.3l0.7-0.7
	c0.2,0.2,0.4,0.4,0.7,0.5s0.6,0.2,1,0.2c0.4,0,0.7-0.1,0.9-0.2c0.2-0.1,0.4-0.3,0.4-0.6c0-0.2,0-0.3-0.1-0.4s-0.3-0.2-0.5-0.3
	c-0.2-0.1-0.6-0.2-1-0.3c-0.3-0.1-0.6-0.2-0.8-0.3c-0.3-0.1-0.5-0.3-0.7-0.5c-0.2-0.2-0.3-0.5-0.3-0.9c0-0.4,0.1-0.7,0.3-0.9
	c0.2-0.2,0.5-0.4,0.8-0.6c0.3-0.1,0.7-0.2,1.1-0.2c0.5,0,0.9,0.1,1.2,0.2c0.3,0.1,0.6,0.3,0.9,0.5l-0.6,0.7
	c-0.2-0.2-0.4-0.3-0.6-0.4c-0.2-0.1-0.5-0.2-0.9-0.2c-0.3,0-0.6,0.1-0.8,0.2s-0.3,0.3-0.3,0.6c0,0.2,0.1,0.4,0.4,0.5
	c0.3,0.1,0.6,0.2,1.1,0.3c0.4,0.1,0.7,0.2,0.9,0.3c0.3,0.1,0.5,0.3,0.7,0.5c0.2,0.2,0.3,0.5,0.3,0.9c0,0.4-0.1,0.7-0.3,0.9
	c-0.2,0.2-0.5,0.4-0.9,0.6c-0.4,0.1-0.7,0.2-1.1,0.2C765.8,51.2,765,50.9,764.5,50.3z M770.4,48.8v-3.3h1.1v3.3
	c0,0.5,0.1,0.9,0.3,1.1c0.2,0.2,0.5,0.4,0.9,0.4c0.4,0,0.7-0.1,1-0.3c0.2-0.2,0.4-0.5,0.5-0.8c0.1-0.3,0.2-0.7,0.2-1v-2.6h1.1v5
	c0,0,0,0.1,0,0.2c0,0.1,0,0.2,0,0.3h-1l0-0.8c-0.1,0.1-0.2,0.3-0.4,0.4c-0.2,0.1-0.4,0.3-0.6,0.4c-0.2,0.1-0.5,0.2-0.9,0.2
	c-0.7,0-1.3-0.2-1.6-0.6S770.4,49.5,770.4,48.8z M781.4,49.5l0.6,0.6c-0.1,0.1-0.2,0.2-0.4,0.4c-0.2,0.2-0.5,0.3-0.8,0.4
	c-0.3,0.1-0.7,0.2-1.2,0.2c-0.6,0-1.1-0.1-1.5-0.4c-0.4-0.3-0.8-0.6-1-1.1c-0.2-0.5-0.4-1-0.4-1.6c0-0.5,0.1-1,0.3-1.5
	c0.2-0.4,0.6-0.8,1-1c0.4-0.3,0.9-0.4,1.5-0.4c0.6,0,1.2,0.2,1.6,0.5s0.7,0.7,0.9,1.2c0.2,0.5,0.3,1,0.3,1.6h-4.4
	c0,0.3,0.1,0.6,0.3,0.9c0.2,0.3,0.4,0.5,0.7,0.6c0.3,0.1,0.6,0.2,0.9,0.2c0.5,0,0.9-0.1,1.2-0.2C781.1,49.8,781.3,49.7,781.4,49.5z
	 M777.8,47.7h3.3c0-0.4-0.2-0.8-0.5-1.1c-0.3-0.3-0.7-0.5-1.2-0.5c-0.3,0-0.6,0.1-0.9,0.2c-0.2,0.2-0.4,0.3-0.6,0.6
	C777.9,47.2,777.8,47.5,777.8,47.7z M787.4,51l0-0.7c-0.1,0.1-0.2,0.2-0.3,0.3c-0.1,0.1-0.3,0.3-0.6,0.4c-0.2,0.1-0.6,0.2-0.9,0.2
	c-0.5,0-0.9-0.1-1.3-0.3c-0.4-0.2-0.7-0.6-0.9-1s-0.3-0.9-0.3-1.5c0-0.5,0.1-1,0.3-1.4c0.2-0.4,0.4-0.7,0.7-0.9
	c0.3-0.2,0.6-0.4,0.9-0.5c0.3-0.1,0.7-0.2,0.9-0.2c0.3,0,0.6,0,0.8,0.1c0.2,0.1,0.4,0.2,0.7,0.3V43h1.1v7.4c0,0,0,0.1,0,0.2
	c0,0.1,0,0.2,0,0.3H787.4z M787.4,48.6v-2c-0.1-0.1-0.3-0.2-0.6-0.3c-0.2-0.1-0.5-0.1-0.8-0.1c-0.5,0-1,0.2-1.3,0.6
	c-0.3,0.4-0.5,0.9-0.5,1.5c0,0.4,0.1,0.7,0.2,1c0.1,0.3,0.3,0.5,0.5,0.7c0.2,0.2,0.5,0.3,0.9,0.3c0.4,0,0.7-0.1,0.9-0.3
	c0.2-0.2,0.4-0.4,0.5-0.6C787.4,49.1,787.4,48.9,787.4,48.6z M792.2,50.8V43h1.1v3c0.1-0.2,0.3-0.3,0.6-0.5c0.3-0.2,0.7-0.3,1.1-0.3
	c0.6,0,1,0.1,1.4,0.4c0.4,0.3,0.7,0.6,0.9,1c0.2,0.4,0.3,0.9,0.3,1.5c0,0.6-0.1,1.1-0.4,1.6c-0.3,0.4-0.6,0.8-1.1,1.1
	c-0.5,0.3-1,0.4-1.6,0.4c-0.5,0-0.9,0-1.3-0.1C792.7,51,792.4,50.9,792.2,50.8z M793.2,47.9v2.2c0.1,0,0.2,0.1,0.4,0.1
	c0.2,0,0.4,0,0.7,0c0.6,0,1.1-0.2,1.5-0.6c0.4-0.4,0.6-0.9,0.6-1.5c0-0.3-0.1-0.7-0.2-1c-0.1-0.3-0.3-0.5-0.5-0.7
	c-0.2-0.2-0.5-0.3-0.9-0.3c-0.3,0-0.6,0.1-0.9,0.2c-0.2,0.2-0.4,0.4-0.5,0.6C793.3,47.3,793.2,47.6,793.2,47.9z M798,53.1l0.5-0.8
	c0.1,0.1,0.2,0.1,0.3,0.2c0.1,0.1,0.2,0.1,0.4,0.1c0.3,0,0.4-0.1,0.6-0.3c0.1-0.2,0.3-0.6,0.5-1l0.1-0.4l-2.5-5.5h1.2l1.8,4.2
	l1.6-4.2h1.2l-2.2,5.4c-0.1,0.2-0.2,0.5-0.3,0.8c-0.1,0.3-0.2,0.6-0.4,0.9c-0.2,0.3-0.3,0.5-0.6,0.7c-0.2,0.2-0.5,0.3-0.9,0.3
	c-0.3,0-0.5,0-0.7-0.1C798.3,53.4,798.1,53.3,798,53.1z M806.8,51v-8h1.2v3.3h4.4V43h1.2v8h-1.2v-3.6h-4.4V51H806.8z M817.8,51.2
	c-0.6,0-1.1-0.1-1.5-0.4c-0.4-0.3-0.8-0.6-1.1-1.1c-0.2-0.5-0.4-1-0.4-1.5c0-0.5,0.1-1,0.4-1.5c0.3-0.4,0.6-0.8,1.1-1.1
	c0.4-0.3,1-0.4,1.5-0.4s1.1,0.1,1.5,0.4c0.4,0.3,0.8,0.6,1.1,1.1c0.3,0.4,0.4,0.9,0.4,1.5c0,0.5-0.1,1-0.4,1.5
	c-0.3,0.4-0.6,0.8-1.1,1.1C818.9,51,818.4,51.2,817.8,51.2z M817.8,50.2c0.4,0,0.7-0.1,1-0.3c0.3-0.2,0.5-0.5,0.6-0.8
	c0.2-0.3,0.2-0.6,0.2-1c0-0.3-0.1-0.7-0.2-1c-0.1-0.3-0.4-0.6-0.6-0.8c-0.3-0.2-0.6-0.3-1-0.3s-0.7,0.1-1,0.3
	c-0.3,0.2-0.5,0.4-0.6,0.8c-0.1,0.3-0.2,0.6-0.2,1c0,0.3,0.1,0.7,0.2,1c0.2,0.3,0.4,0.6,0.6,0.8C817.1,50.1,817.4,50.2,817.8,50.2z
	 M821.7,50.3l0.7-0.7c0.2,0.2,0.4,0.4,0.7,0.5c0.3,0.1,0.6,0.2,1,0.2c0.4,0,0.7-0.1,0.9-0.2c0.2-0.1,0.4-0.3,0.4-0.6
	c0-0.2,0-0.3-0.1-0.4s-0.3-0.2-0.5-0.3c-0.2-0.1-0.6-0.2-1-0.3c-0.3-0.1-0.6-0.2-0.8-0.3c-0.3-0.1-0.5-0.3-0.7-0.5
	c-0.2-0.2-0.3-0.5-0.3-0.9c0-0.4,0.1-0.7,0.3-0.9c0.2-0.2,0.5-0.4,0.8-0.6c0.3-0.1,0.7-0.2,1.1-0.2c0.5,0,0.9,0.1,1.2,0.2
	c0.3,0.1,0.6,0.3,0.9,0.5l-0.6,0.7c-0.2-0.2-0.4-0.3-0.6-0.4c-0.2-0.1-0.5-0.2-0.9-0.2c-0.3,0-0.6,0.1-0.8,0.2
	c-0.2,0.1-0.3,0.3-0.3,0.6c0,0.2,0.1,0.4,0.4,0.5c0.3,0.1,0.6,0.2,1.1,0.3c0.4,0.1,0.7,0.2,0.9,0.3c0.3,0.1,0.5,0.3,0.7,0.5
	c0.2,0.2,0.3,0.5,0.3,0.9c0,0.4-0.1,0.7-0.3,0.9c-0.2,0.2-0.5,0.4-0.9,0.6c-0.4,0.1-0.7,0.2-1.1,0.2C823,51.2,822.2,50.9,821.7,50.3
	z M828.1,49.2v-2.9h-1v-0.9h1v-1.8h1.1v1.8h1.6v0.9h-1.6v2.7c0,0.4,0.1,0.8,0.2,0.9c0.1,0.2,0.3,0.3,0.6,0.3c0.2,0,0.4,0,0.5-0.1
	c0.1-0.1,0.3-0.2,0.4-0.3l0.5,0.7c-0.2,0.2-0.5,0.4-0.7,0.5c-0.2,0.1-0.5,0.2-0.9,0.2c-0.6,0-1-0.2-1.3-0.5
	C828.3,50.3,828.1,49.8,828.1,49.2z M832,48.2v-1h3.5v1H832z M837.3,51v-8h2.5c0.5,0,1,0.1,1.3,0.2c0.4,0.1,0.6,0.3,0.9,0.6
	c0.2,0.2,0.4,0.5,0.4,0.8c0.1,0.3,0.1,0.6,0.1,0.8c0,0.5-0.1,1-0.3,1.3c-0.2,0.4-0.6,0.6-1,0.8c-0.4,0.2-0.9,0.3-1.4,0.3h-1.5V51
	H837.3z M838.5,46.9h1.4c0.5,0,0.9-0.1,1.1-0.4c0.3-0.3,0.4-0.6,0.4-1c0-0.4-0.1-0.8-0.4-1.1c-0.3-0.3-0.6-0.4-1.1-0.4h-1.4V46.9z
	 M843.7,51v-8h1.1v8H843.7z M846.2,48.8v-3.3h1.1v3.3c0,0.5,0.1,0.9,0.3,1.1c0.2,0.2,0.5,0.4,0.9,0.4c0.4,0,0.7-0.1,1-0.3
	c0.2-0.2,0.4-0.5,0.5-0.8c0.1-0.3,0.2-0.7,0.2-1v-2.6h1.1v5c0,0,0,0.1,0,0.2c0,0.1,0,0.2,0,0.3h-1l0-0.8c-0.1,0.1-0.2,0.3-0.4,0.4
	c-0.2,0.1-0.4,0.3-0.6,0.4c-0.2,0.1-0.5,0.2-0.9,0.2c-0.7,0-1.3-0.2-1.6-0.6S846.2,49.5,846.2,48.8z M852.5,50.3l0.7-0.7
	c0.2,0.2,0.4,0.4,0.7,0.5c0.3,0.1,0.6,0.2,1,0.2c0.4,0,0.7-0.1,0.9-0.2c0.2-0.1,0.4-0.3,0.4-0.6c0-0.2,0-0.3-0.1-0.4
	s-0.3-0.2-0.5-0.3c-0.2-0.1-0.6-0.2-1-0.3c-0.3-0.1-0.6-0.2-0.8-0.3c-0.3-0.1-0.5-0.3-0.7-0.5c-0.2-0.2-0.3-0.5-0.3-0.9
	c0-0.4,0.1-0.7,0.3-0.9c0.2-0.2,0.5-0.4,0.8-0.6c0.3-0.1,0.7-0.2,1.1-0.2c0.5,0,0.9,0.1,1.2,0.2c0.3,0.1,0.6,0.3,0.9,0.5l-0.6,0.7
	c-0.2-0.2-0.4-0.3-0.6-0.4c-0.2-0.1-0.5-0.2-0.9-0.2c-0.3,0-0.6,0.1-0.8,0.2s-0.3,0.3-0.3,0.6c0,0.2,0.1,0.4,0.4,0.5
	c0.3,0.1,0.6,0.2,1.1,0.3c0.4,0.1,0.7,0.2,0.9,0.3c0.3,0.1,0.5,0.3,0.7,0.5c0.2,0.2,0.3,0.5,0.3,0.9c0,0.4-0.1,0.7-0.3,0.9
	c-0.2,0.2-0.5,0.4-0.9,0.6c-0.4,0.1-0.7,0.2-1.1,0.2C853.8,51.2,853,50.9,852.5,50.3z M860.8,51v-8h2.5c0.5,0,1,0.1,1.3,0.2
	c0.4,0.1,0.6,0.3,0.9,0.6c0.2,0.2,0.4,0.5,0.4,0.8c0.1,0.3,0.1,0.6,0.1,0.8c0,0.5-0.1,1-0.3,1.3c-0.2,0.4-0.6,0.6-1,0.8
	c-0.4,0.2-0.9,0.3-1.4,0.3h-1.5V51H860.8z M861.9,46.9h1.4c0.5,0,0.9-0.1,1.1-0.4c0.3-0.3,0.4-0.6,0.4-1c0-0.4-0.1-0.8-0.4-1.1
	c-0.3-0.3-0.6-0.4-1.1-0.4h-1.4V46.9z M867.9,49.2v-2.9h-1v-0.9h1v-1.8h1.1v1.8h1.6v0.9H869v2.7c0,0.4,0.1,0.8,0.2,0.9
	c0.1,0.2,0.3,0.3,0.6,0.3c0.2,0,0.4,0,0.5-0.1c0.1-0.1,0.3-0.2,0.4-0.3l0.5,0.7c-0.2,0.2-0.5,0.4-0.7,0.5c-0.2,0.1-0.5,0.2-0.9,0.2
	c-0.6,0-1-0.2-1.3-0.5C868,50.3,867.9,49.8,867.9,49.2z M871.3,53.1l0.5-0.8c0.1,0.1,0.2,0.1,0.3,0.2s0.2,0.1,0.4,0.1
	c0.3,0,0.4-0.1,0.6-0.3c0.1-0.2,0.3-0.6,0.5-1l0.1-0.4l-2.5-5.5h1.2l1.8,4.2l1.6-4.2h1.2l-2.2,5.4c-0.1,0.2-0.2,0.5-0.3,0.8
	c-0.1,0.3-0.2,0.6-0.4,0.9c-0.2,0.3-0.3,0.5-0.6,0.7c-0.2,0.2-0.5,0.3-0.9,0.3c-0.3,0-0.5,0-0.7-0.1
	C871.6,53.4,871.5,53.3,871.3,53.1z M880.1,51v-8h1.2v7h4.2v1H880.1z M886.5,44.4v-1.2h1.2v1.2H886.5z M886.6,51v-5.6h1.1V51H886.6z
	 M890.3,51h-1.1v-5c0-0.1,0-0.1,0-0.2c0-0.1,0-0.2,0-0.4h1l0,0.8c0.1-0.1,0.2-0.3,0.4-0.4c0.2-0.2,0.3-0.3,0.6-0.4
	c0.2-0.1,0.5-0.2,0.9-0.2c0.4,0,0.8,0.1,1.1,0.3c0.3,0.2,0.5,0.4,0.7,0.7c0.2-0.3,0.5-0.5,0.8-0.7c0.3-0.2,0.7-0.3,1.2-0.3
	c0.7,0,1.3,0.2,1.6,0.6c0.3,0.4,0.5,1,0.5,1.7V51h-1.1v-3.3c0-1-0.4-1.5-1.2-1.5c-0.3,0-0.6,0.1-0.8,0.2c-0.2,0.2-0.4,0.4-0.6,0.6
	c-0.1,0.2-0.2,0.5-0.2,0.8V51H893v-3.3c0-0.5-0.1-0.9-0.3-1.1c-0.2-0.2-0.5-0.4-0.9-0.4c-0.4,0-0.7,0.1-0.9,0.3s-0.4,0.5-0.5,0.8
	c-0.1,0.3-0.1,0.7-0.1,1V51z M899.4,44.4v-1.2h1.2v1.2H899.4z M899.4,51v-5.6h1.1V51H899.4z M902.5,49.2v-2.9h-1v-0.9h1v-1.8h1.1
	v1.8h1.6v0.9h-1.6v2.7c0,0.4,0.1,0.8,0.2,0.9c0.1,0.2,0.3,0.3,0.6,0.3c0.2,0,0.4,0,0.5-0.1c0.1-0.1,0.3-0.2,0.4-0.3l0.5,0.7
	c-0.2,0.2-0.5,0.4-0.7,0.5c-0.2,0.1-0.5,0.2-0.9,0.2c-0.6,0-1-0.2-1.3-0.5C902.7,50.3,902.5,49.8,902.5,49.2z M910.8,49.5l0.6,0.6
	c-0.1,0.1-0.2,0.2-0.4,0.4c-0.2,0.2-0.5,0.3-0.8,0.4c-0.3,0.1-0.7,0.2-1.2,0.2c-0.6,0-1.1-0.1-1.5-0.4c-0.4-0.3-0.8-0.6-1-1.1
	c-0.2-0.5-0.4-1-0.4-1.6c0-0.5,0.1-1,0.3-1.5c0.2-0.4,0.6-0.8,1-1c0.4-0.3,0.9-0.4,1.5-0.4c0.6,0,1.2,0.2,1.6,0.5
	c0.4,0.3,0.7,0.7,0.9,1.2c0.2,0.5,0.3,1,0.3,1.6h-4.4c0,0.3,0.1,0.6,0.3,0.9c0.2,0.3,0.4,0.5,0.7,0.6c0.3,0.1,0.6,0.2,0.9,0.2
	c0.5,0,0.9-0.1,1.2-0.2C910.4,49.8,910.6,49.7,910.8,49.5z M907.1,47.7h3.3c0-0.4-0.2-0.8-0.5-1.1c-0.3-0.3-0.7-0.5-1.2-0.5
	c-0.3,0-0.6,0.1-0.9,0.2c-0.2,0.2-0.4,0.3-0.6,0.6C907.2,47.2,907.1,47.5,907.1,47.7z M916.8,51l0-0.7c-0.1,0.1-0.2,0.2-0.3,0.3
	c-0.1,0.1-0.3,0.3-0.6,0.4c-0.2,0.1-0.6,0.2-0.9,0.2c-0.5,0-0.9-0.1-1.3-0.3c-0.4-0.2-0.7-0.6-0.9-1c-0.2-0.4-0.3-0.9-0.3-1.5
	c0-0.5,0.1-1,0.3-1.4c0.2-0.4,0.4-0.7,0.7-0.9c0.3-0.2,0.6-0.4,0.9-0.5c0.3-0.1,0.7-0.2,0.9-0.2c0.3,0,0.6,0,0.8,0.1
	c0.2,0.1,0.4,0.2,0.7,0.3V43h1.1v7.4c0,0,0,0.1,0,0.2c0,0.1,0,0.2,0,0.3H916.8z M916.8,48.6v-2c-0.1-0.1-0.3-0.2-0.6-0.3
	c-0.2-0.1-0.5-0.1-0.8-0.1c-0.5,0-1,0.2-1.3,0.6c-0.3,0.4-0.5,0.9-0.5,1.5c0,0.4,0.1,0.7,0.2,1c0.1,0.3,0.3,0.5,0.5,0.7
	c0.2,0.2,0.5,0.3,0.9,0.3c0.4,0,0.7-0.1,0.9-0.3c0.2-0.2,0.4-0.4,0.5-0.6C916.7,49.1,916.8,48.9,916.8,48.6z M919.4,51v-1.3h1.4V51
	H919.4z M21.9,60.9l0.8,0.7c-0.1,0.2-0.3,0.4-0.6,0.7c-0.3,0.2-0.6,0.5-1.1,0.7c-0.4,0.2-0.9,0.3-1.5,0.3c-0.8,0-1.5-0.2-2.1-0.5
	c-0.6-0.4-1.1-0.9-1.4-1.5c-0.3-0.6-0.5-1.3-0.5-2.1c0-0.6,0.1-1.1,0.3-1.6c0.2-0.5,0.5-1,0.8-1.3c0.4-0.4,0.8-0.7,1.3-0.9
	c0.5-0.2,1-0.3,1.6-0.3c0.6,0,1.1,0.1,1.5,0.3c0.4,0.2,0.7,0.4,1,0.6c0.3,0.2,0.5,0.5,0.6,0.7l-0.8,0.7c-0.1-0.2-0.3-0.4-0.5-0.6
	c-0.2-0.2-0.4-0.4-0.7-0.5c-0.3-0.1-0.6-0.2-1.1-0.2c-0.6,0-1.1,0.1-1.5,0.4c-0.4,0.3-0.7,0.7-1,1.2c-0.2,0.5-0.3,1-0.3,1.6
	c0,0.6,0.1,1.1,0.3,1.6c0.2,0.5,0.6,0.8,1,1.1c0.4,0.3,0.9,0.4,1.5,0.4c0.5,0,0.9-0.1,1.2-0.2c0.3-0.2,0.5-0.3,0.7-0.5
	C21.7,61.2,21.8,61,21.9,60.9z M26.3,63.2c-0.6,0-1.1-0.1-1.5-0.4c-0.4-0.3-0.8-0.6-1.1-1.1c-0.2-0.5-0.4-1-0.4-1.5
	c0-0.5,0.1-1,0.4-1.5c0.3-0.4,0.6-0.8,1.1-1.1c0.4-0.3,1-0.4,1.5-0.4c0.6,0,1.1,0.1,1.5,0.4c0.4,0.3,0.8,0.6,1.1,1.1
	c0.3,0.4,0.4,0.9,0.4,1.5c0,0.5-0.1,1-0.4,1.5c-0.3,0.4-0.6,0.8-1.1,1.1C27.4,63,26.9,63.2,26.3,63.2z M26.3,62.2
	c0.4,0,0.7-0.1,1-0.3c0.3-0.2,0.5-0.5,0.6-0.8c0.2-0.3,0.2-0.6,0.2-1c0-0.3-0.1-0.7-0.2-1c-0.1-0.3-0.4-0.6-0.6-0.8
	c-0.3-0.2-0.6-0.3-1-0.3c-0.4,0-0.7,0.1-1,0.3c-0.3,0.2-0.5,0.4-0.6,0.8c-0.1,0.3-0.2,0.6-0.2,1c0,0.3,0.1,0.7,0.2,1
	c0.2,0.3,0.4,0.6,0.6,0.8C25.6,62.1,25.9,62.2,26.3,62.2z M31.6,63h-1.1v-5c0-0.1,0-0.1,0-0.2c0-0.1,0-0.2,0-0.4h1l0,0.8
	c0.1-0.1,0.2-0.3,0.4-0.4c0.2-0.2,0.4-0.3,0.6-0.4c0.2-0.1,0.5-0.2,0.9-0.2c0.7,0,1.3,0.2,1.6,0.6c0.4,0.4,0.5,1,0.5,1.7V63h-1.1
	v-3.3c0-0.5-0.1-0.9-0.3-1.1c-0.2-0.2-0.5-0.4-0.9-0.4c-0.4,0-0.7,0.1-1,0.3c-0.2,0.2-0.4,0.5-0.5,0.8c-0.1,0.3-0.1,0.7-0.1,1V63z
	 M36.7,62.3l0.7-0.7c0.2,0.2,0.4,0.4,0.7,0.5s0.6,0.2,1,0.2c0.4,0,0.7-0.1,0.9-0.2c0.2-0.1,0.4-0.3,0.4-0.6c0-0.2,0-0.3-0.1-0.4
	c-0.1-0.1-0.3-0.2-0.5-0.3c-0.2-0.1-0.6-0.2-1-0.3c-0.3-0.1-0.6-0.2-0.8-0.3c-0.3-0.1-0.5-0.3-0.7-0.5c-0.2-0.2-0.3-0.5-0.3-0.9
	c0-0.4,0.1-0.7,0.3-0.9c0.2-0.2,0.5-0.4,0.8-0.6c0.3-0.1,0.7-0.2,1.1-0.2c0.5,0,0.9,0.1,1.2,0.2c0.3,0.1,0.6,0.3,0.9,0.5l-0.6,0.7
	c-0.2-0.2-0.4-0.3-0.6-0.4c-0.2-0.1-0.5-0.2-0.9-0.2c-0.3,0-0.6,0.1-0.8,0.2S38,58.6,38,58.9c0,0.2,0.1,0.4,0.4,0.5
	c0.3,0.1,0.6,0.2,1.1,0.3c0.4,0.1,0.7,0.2,0.9,0.3c0.3,0.1,0.5,0.3,0.7,0.5c0.2,0.2,0.3,0.5,0.3,0.9c0,0.4-0.1,0.7-0.3,0.9
	c-0.2,0.2-0.5,0.4-0.9,0.6c-0.4,0.1-0.7,0.2-1.1,0.2C38.1,63.2,37.3,62.9,36.7,62.3z M42.7,56.4v-1.2h1.2v1.2H42.7z M42.7,63v-5.6
	h1.1V63H42.7z M49.4,63l0-0.7c-0.1,0.1-0.2,0.2-0.3,0.3c-0.1,0.1-0.3,0.3-0.6,0.4c-0.2,0.1-0.6,0.2-0.9,0.2c-0.5,0-0.9-0.1-1.3-0.3
	c-0.4-0.2-0.7-0.6-0.9-1s-0.3-0.9-0.3-1.5c0-0.5,0.1-1,0.3-1.4c0.2-0.4,0.4-0.7,0.7-0.9c0.3-0.2,0.6-0.4,0.9-0.5
	c0.3-0.1,0.7-0.2,0.9-0.2c0.3,0,0.6,0,0.8,0.1c0.2,0.1,0.4,0.2,0.7,0.3V55h1.1v7.4c0,0,0,0.1,0,0.2c0,0.1,0,0.2,0,0.3H49.4z
	 M49.4,60.6v-2c-0.1-0.1-0.3-0.2-0.6-0.3c-0.2-0.1-0.5-0.1-0.8-0.1c-0.5,0-1,0.2-1.3,0.6c-0.3,0.4-0.5,0.9-0.5,1.5
	c0,0.4,0.1,0.7,0.2,1c0.1,0.3,0.3,0.5,0.5,0.7c0.2,0.2,0.5,0.3,0.9,0.3c0.4,0,0.7-0.1,0.9-0.3c0.2-0.2,0.4-0.4,0.5-0.6
	C49.3,61.1,49.4,60.9,49.4,60.6z M56.4,61.5l0.6,0.6c-0.1,0.1-0.2,0.2-0.4,0.4c-0.2,0.2-0.5,0.3-0.8,0.4c-0.3,0.1-0.7,0.2-1.2,0.2
	c-0.6,0-1.1-0.1-1.5-0.4c-0.4-0.3-0.8-0.6-1-1.1c-0.2-0.5-0.4-1-0.4-1.6c0-0.5,0.1-1,0.3-1.5c0.2-0.4,0.6-0.8,1-1
	c0.4-0.3,0.9-0.4,1.5-0.4c0.6,0,1.2,0.2,1.6,0.5c0.4,0.3,0.7,0.7,0.9,1.2c0.2,0.5,0.3,1,0.3,1.6h-4.4c0,0.3,0.1,0.6,0.3,0.9
	c0.2,0.3,0.4,0.5,0.7,0.6c0.3,0.1,0.6,0.2,0.9,0.2c0.5,0,0.9-0.1,1.2-0.2C56.1,61.8,56.3,61.7,56.4,61.5z M52.8,59.7h3.3
	c0-0.4-0.2-0.8-0.5-1.1c-0.3-0.3-0.7-0.5-1.2-0.5c-0.3,0-0.6,0.1-0.9,0.2c-0.2,0.2-0.4,0.3-0.6,0.6C52.9,59.2,52.8,59.5,52.8,59.7z
	 M59.5,63h-1.1v-5c0-0.1,0-0.1,0-0.2c0-0.1,0-0.2,0-0.3h1l0,0.9c0.1-0.1,0.2-0.3,0.4-0.4c0.2-0.2,0.4-0.3,0.6-0.4
	c0.2-0.1,0.5-0.2,0.9-0.2c0.1,0,0.2,0,0.3,0c0.1,0,0.2,0,0.3,0.1l-0.2,1c-0.1-0.1-0.3-0.1-0.6-0.1c-0.3,0-0.6,0.1-0.8,0.2
	c-0.2,0.2-0.4,0.4-0.6,0.6c-0.1,0.3-0.2,0.5-0.2,0.9V63z M65.4,61.2v-2.9h-1v-0.9h1v-1.8h1.1v1.8h1.6v0.9h-1.6v2.7
	c0,0.4,0.1,0.8,0.2,0.9c0.1,0.2,0.3,0.3,0.6,0.3c0.2,0,0.4,0,0.5-0.1c0.1-0.1,0.3-0.2,0.4-0.3l0.5,0.7c-0.2,0.2-0.5,0.4-0.7,0.5
	c-0.2,0.1-0.5,0.2-0.9,0.2c-0.6,0-1-0.2-1.3-0.5C65.5,62.3,65.4,61.8,65.4,61.2z M69.5,63v-8h1.1v3.3c0.1-0.1,0.2-0.3,0.4-0.4
	c0.2-0.2,0.4-0.3,0.6-0.4c0.2-0.1,0.5-0.2,0.9-0.2c0.7,0,1.3,0.2,1.6,0.6c0.4,0.4,0.5,1,0.5,1.7V63h-1.1v-3.3c0-0.5-0.1-0.9-0.3-1.1
	c-0.2-0.2-0.5-0.4-0.9-0.4c-0.4,0-0.7,0.1-1,0.3c-0.2,0.2-0.4,0.5-0.5,0.8c-0.1,0.3-0.1,0.7-0.1,1V63H69.5z M80.5,61.5l0.6,0.6
	c-0.1,0.1-0.2,0.2-0.4,0.4c-0.2,0.2-0.5,0.3-0.8,0.4c-0.3,0.1-0.7,0.2-1.2,0.2c-0.6,0-1.1-0.1-1.5-0.4c-0.4-0.3-0.8-0.6-1-1.1
	c-0.2-0.5-0.4-1-0.4-1.6c0-0.5,0.1-1,0.3-1.5c0.2-0.4,0.6-0.8,1-1c0.4-0.3,0.9-0.4,1.5-0.4c0.6,0,1.2,0.2,1.6,0.5s0.7,0.7,0.9,1.2
	c0.2,0.5,0.3,1,0.3,1.6h-4.4c0,0.3,0.1,0.6,0.3,0.9c0.2,0.3,0.4,0.5,0.7,0.6c0.3,0.1,0.6,0.2,0.9,0.2c0.5,0,0.9-0.1,1.2-0.2
	C80.2,61.8,80.4,61.7,80.5,61.5z M76.9,59.7h3.3c0-0.4-0.2-0.8-0.5-1.1c-0.3-0.3-0.7-0.5-1.2-0.5c-0.3,0-0.6,0.1-0.9,0.2
	c-0.2,0.2-0.4,0.3-0.6,0.6C77,59.2,76.9,59.5,76.9,59.7z M84.8,63v-8h2.5c0.5,0,1,0.1,1.3,0.2c0.4,0.1,0.6,0.3,0.9,0.6
	c0.2,0.2,0.4,0.5,0.4,0.8c0.1,0.3,0.1,0.6,0.1,0.8c0,0.5-0.1,1-0.3,1.3c-0.2,0.4-0.6,0.6-1,0.8c-0.4,0.2-0.9,0.3-1.4,0.3H86V63H84.8
	z M86,58.9h1.4c0.5,0,0.9-0.1,1.1-0.4c0.3-0.3,0.4-0.6,0.4-1c0-0.4-0.1-0.8-0.4-1.1c-0.3-0.3-0.6-0.4-1.1-0.4H86V58.9z M91.6,63v-8
	h2.7c0.8,0,1.6,0.1,2.2,0.4c0.7,0.3,1.2,0.7,1.5,1.3c0.4,0.6,0.6,1.4,0.6,2.3c0,0.9-0.2,1.6-0.6,2.2c-0.4,0.6-0.9,1-1.5,1.3
	c-0.7,0.3-1.4,0.4-2.3,0.4H91.6z M92.8,62h1.5c1,0,1.8-0.2,2.3-0.7c0.6-0.5,0.8-1.2,0.8-2.2c0-1-0.3-1.7-0.8-2.2
	c-0.5-0.5-1.3-0.8-2.4-0.8h-1.5V62z M99.7,61.8l0.8-0.7c0.2,0.2,0.3,0.3,0.5,0.5c0.2,0.2,0.4,0.3,0.7,0.4c0.3,0.1,0.6,0.2,0.9,0.2
	c0.5,0,0.9-0.1,1.2-0.4c0.3-0.2,0.4-0.6,0.4-1c0-0.4-0.2-0.8-0.5-1c-0.3-0.2-0.8-0.4-1.5-0.5c-0.7-0.1-1.2-0.4-1.7-0.8
	c-0.4-0.4-0.6-0.9-0.6-1.5c0-0.4,0.1-0.8,0.3-1.1c0.2-0.3,0.5-0.6,0.9-0.8c0.4-0.2,0.9-0.3,1.5-0.3c0.5,0,0.9,0.1,1.3,0.2
	c0.3,0.1,0.6,0.3,0.8,0.5c0.2,0.2,0.3,0.3,0.4,0.4l-0.8,0.7c-0.1-0.1-0.2-0.2-0.3-0.3c-0.2-0.1-0.3-0.2-0.6-0.3
	c-0.2-0.1-0.5-0.2-0.9-0.2c-0.3,0-0.6,0.1-0.8,0.2c-0.2,0.1-0.4,0.3-0.5,0.4c-0.1,0.2-0.2,0.3-0.2,0.5c0,0.4,0.2,0.7,0.5,0.9
	c0.3,0.2,0.8,0.4,1.4,0.5c0.4,0.1,0.8,0.2,1.1,0.4c0.4,0.2,0.7,0.4,0.9,0.8c0.2,0.3,0.3,0.8,0.3,1.3c0,0.5-0.1,0.9-0.4,1.2
	c-0.2,0.4-0.6,0.6-1,0.8c-0.4,0.2-0.9,0.3-1.4,0.3c-0.5,0-0.9-0.1-1.3-0.2c-0.4-0.1-0.7-0.3-1-0.5C100.1,62.2,99.8,62,99.7,61.8z
	 M112.6,63l0-0.7c-0.2,0.3-0.5,0.5-0.8,0.6c-0.3,0.1-0.7,0.2-1,0.2c-0.3,0-0.6-0.1-0.9-0.2c-0.3-0.1-0.5-0.3-0.7-0.6
	c-0.2-0.3-0.3-0.6-0.3-1c0-0.6,0.2-1.1,0.6-1.4c0.4-0.4,1-0.5,1.8-0.5c0.2,0,0.4,0,0.5,0c0.2,0,0.4,0,0.5,0c0.2,0,0.3,0,0.3,0v-0.2
	c0-0.4-0.1-0.7-0.4-0.9c-0.2-0.2-0.6-0.3-1-0.3c-0.4,0-0.8,0.1-1,0.2c-0.2,0.1-0.5,0.2-0.6,0.3l-0.5-0.7c0.2-0.2,0.5-0.3,0.8-0.5
	s0.8-0.2,1.4-0.2c0.7,0,1.3,0.2,1.7,0.5c0.4,0.3,0.6,0.8,0.6,1.5v3.3c0,0.1,0,0.1,0,0.2c0,0.1,0,0.2,0,0.3H112.6z M112.6,61v-0.6
	c0,0-0.1,0-0.3,0c-0.1,0-0.3,0-0.5,0c-0.2,0-0.3,0-0.5,0c-0.4,0-0.7,0.1-0.9,0.2c-0.2,0.1-0.4,0.3-0.4,0.4c-0.1,0.2-0.1,0.3-0.1,0.5
	c0,0.3,0.1,0.5,0.3,0.7s0.5,0.2,0.9,0.2c0.3,0,0.5-0.1,0.8-0.2c0.2-0.1,0.4-0.3,0.6-0.5C112.5,61.4,112.6,61.2,112.6,61z M116.2,63
	h-1.1v-5c0-0.1,0-0.1,0-0.2c0-0.1,0-0.2,0-0.4h1l0,0.8c0.1-0.1,0.2-0.3,0.4-0.4c0.2-0.2,0.4-0.3,0.6-0.4c0.2-0.1,0.5-0.2,0.9-0.2
	c0.7,0,1.3,0.2,1.6,0.6c0.4,0.4,0.5,1,0.5,1.7V63h-1.1v-3.3c0-0.5-0.1-0.9-0.3-1.1c-0.2-0.2-0.5-0.4-0.9-0.4c-0.4,0-0.7,0.1-1,0.3
	c-0.2,0.2-0.4,0.5-0.5,0.8c-0.1,0.3-0.1,0.7-0.1,1V63z M125.7,63l0-0.7c-0.1,0.1-0.2,0.2-0.3,0.3c-0.1,0.1-0.3,0.3-0.6,0.4
	c-0.2,0.1-0.6,0.2-0.9,0.2c-0.5,0-0.9-0.1-1.3-0.3c-0.4-0.2-0.7-0.6-0.9-1c-0.2-0.4-0.3-0.9-0.3-1.5c0-0.5,0.1-1,0.3-1.4
	c0.2-0.4,0.4-0.7,0.7-0.9c0.3-0.2,0.6-0.4,0.9-0.5c0.3-0.1,0.7-0.2,0.9-0.2c0.3,0,0.6,0,0.8,0.1c0.2,0.1,0.4,0.2,0.7,0.3V55h1.1v7.4
	c0,0,0,0.1,0,0.2c0,0.1,0,0.2,0,0.3H125.7z M125.7,60.6v-2c-0.1-0.1-0.3-0.2-0.6-0.3c-0.2-0.1-0.5-0.1-0.8-0.1c-0.5,0-1,0.2-1.3,0.6
	c-0.3,0.4-0.5,0.9-0.5,1.5c0,0.4,0.1,0.7,0.2,1c0.1,0.3,0.3,0.5,0.5,0.7c0.2,0.2,0.5,0.3,0.9,0.3c0.4,0,0.7-0.1,0.9-0.3
	c0.2-0.2,0.4-0.4,0.5-0.6C125.6,61.1,125.7,60.9,125.7,60.6z M132.8,63v-7h-2.9v-1h6.9v1H134v7H132.8z M137.8,63l0.4-8h1.1l2.4,4.2
	l2.4-4.2h1.1l0.4,8h-1.1l-0.3-6.1l-2.3,3.8h-0.6l-2.2-3.7l-0.3,6.1H137.8z M147.4,63v-8h2.7c0.8,0,1.6,0.1,2.2,0.4
	c0.7,0.3,1.2,0.7,1.5,1.3c0.4,0.6,0.6,1.4,0.6,2.3c0,0.9-0.2,1.6-0.6,2.2c-0.4,0.6-0.9,1-1.5,1.3c-0.7,0.3-1.4,0.4-2.3,0.4H147.4z
	 M148.5,62h1.5c1,0,1.8-0.2,2.3-0.7c0.6-0.5,0.8-1.2,0.8-2.2c0-1-0.3-1.7-0.8-2.2c-0.5-0.5-1.3-0.8-2.4-0.8h-1.5V62z M161.4,63
	l0-0.7c-0.2,0.3-0.5,0.5-0.8,0.6c-0.3,0.1-0.7,0.2-1,0.2c-0.3,0-0.6-0.1-0.9-0.2c-0.3-0.1-0.5-0.3-0.7-0.6c-0.2-0.3-0.3-0.6-0.3-1
	c0-0.6,0.2-1.1,0.6-1.4c0.4-0.4,1-0.5,1.8-0.5c0.2,0,0.4,0,0.5,0c0.2,0,0.4,0,0.5,0c0.2,0,0.3,0,0.3,0v-0.2c0-0.4-0.1-0.7-0.4-0.9
	c-0.2-0.2-0.6-0.3-1-0.3c-0.4,0-0.8,0.1-1,0.2c-0.2,0.1-0.5,0.2-0.6,0.3l-0.5-0.7c0.2-0.2,0.5-0.3,0.8-0.5c0.4-0.2,0.8-0.2,1.4-0.2
	c0.7,0,1.3,0.2,1.7,0.5c0.4,0.3,0.6,0.8,0.6,1.5v3.3c0,0.1,0,0.1,0,0.2c0,0.1,0,0.2,0,0.3H161.4z M161.3,61v-0.6c0,0-0.1,0-0.3,0
	c-0.1,0-0.3,0-0.5,0c-0.2,0-0.3,0-0.5,0c-0.4,0-0.7,0.1-0.9,0.2c-0.2,0.1-0.4,0.3-0.4,0.4c-0.1,0.2-0.1,0.3-0.1,0.5
	c0,0.3,0.1,0.5,0.3,0.7c0.2,0.2,0.5,0.2,0.9,0.2c0.3,0,0.5-0.1,0.8-0.2c0.2-0.1,0.4-0.3,0.6-0.5C161.3,61.4,161.3,61.2,161.3,61z
	 M164.3,61.2v-2.9h-1v-0.9h1v-1.8h1.1v1.8h1.6v0.9h-1.6v2.7c0,0.4,0.1,0.8,0.2,0.9c0.1,0.2,0.3,0.3,0.6,0.3c0.2,0,0.4,0,0.5-0.1
	c0.1-0.1,0.3-0.2,0.4-0.3l0.5,0.7c-0.2,0.2-0.5,0.4-0.7,0.5c-0.2,0.1-0.5,0.2-0.9,0.2c-0.6,0-1-0.2-1.3-0.5
	C164.5,62.3,164.3,61.8,164.3,61.2z M170.6,63v-8h1.1v3.3c0.1-0.1,0.2-0.3,0.4-0.4c0.2-0.2,0.4-0.3,0.6-0.4c0.2-0.1,0.5-0.2,0.9-0.2
	c0.7,0,1.3,0.2,1.6,0.6c0.4,0.4,0.5,1,0.5,1.7V63h-1.1v-3.3c0-0.5-0.1-0.9-0.3-1.1c-0.2-0.2-0.5-0.4-0.9-0.4c-0.4,0-0.7,0.1-1,0.3
	c-0.2,0.2-0.4,0.5-0.5,0.8c-0.1,0.3-0.1,0.7-0.1,1V63H170.6z M179.8,63.2c-0.6,0-1.1-0.1-1.5-0.4c-0.4-0.3-0.8-0.6-1.1-1.1
	c-0.2-0.5-0.4-1-0.4-1.5c0-0.5,0.1-1,0.4-1.5c0.3-0.4,0.6-0.8,1.1-1.1c0.4-0.3,1-0.4,1.5-0.4s1.1,0.1,1.5,0.4
	c0.4,0.3,0.8,0.6,1.1,1.1c0.3,0.4,0.4,0.9,0.4,1.5c0,0.5-0.1,1-0.4,1.5c-0.3,0.4-0.6,0.8-1.1,1.1C180.9,63,180.4,63.2,179.8,63.2z
	 M179.8,62.2c0.4,0,0.7-0.1,1-0.3c0.3-0.2,0.5-0.5,0.6-0.8c0.2-0.3,0.2-0.6,0.2-1c0-0.3-0.1-0.7-0.2-1c-0.1-0.3-0.4-0.6-0.6-0.8
	c-0.3-0.2-0.6-0.3-1-0.3s-0.7,0.1-1,0.3c-0.3,0.2-0.5,0.4-0.6,0.8c-0.1,0.3-0.2,0.6-0.2,1c0,0.3,0.1,0.7,0.2,1
	c0.2,0.3,0.4,0.6,0.6,0.8C179.1,62.1,179.4,62.2,179.8,62.2z M183.7,62.3l0.7-0.7c0.2,0.2,0.4,0.4,0.7,0.5s0.6,0.2,1,0.2
	c0.4,0,0.7-0.1,0.9-0.2c0.2-0.1,0.4-0.3,0.4-0.6c0-0.2,0-0.3-0.1-0.4c-0.1-0.1-0.3-0.2-0.5-0.3c-0.2-0.1-0.6-0.2-1-0.3
	c-0.3-0.1-0.6-0.2-0.8-0.3c-0.3-0.1-0.5-0.3-0.7-0.5c-0.2-0.2-0.3-0.5-0.3-0.9c0-0.4,0.1-0.7,0.3-0.9c0.2-0.2,0.5-0.4,0.8-0.6
	c0.3-0.1,0.7-0.2,1.1-0.2c0.5,0,0.9,0.1,1.2,0.2c0.3,0.1,0.6,0.3,0.9,0.5l-0.6,0.7c-0.2-0.2-0.4-0.3-0.6-0.4
	c-0.2-0.1-0.5-0.2-0.9-0.2c-0.3,0-0.6,0.1-0.8,0.2c-0.2,0.1-0.3,0.3-0.3,0.6c0,0.2,0.1,0.4,0.4,0.5c0.3,0.1,0.6,0.2,1.1,0.3
	c0.4,0.1,0.7,0.2,0.9,0.3c0.3,0.1,0.5,0.3,0.7,0.5c0.2,0.2,0.3,0.5,0.3,0.9c0,0.4-0.1,0.7-0.3,0.9c-0.2,0.2-0.5,0.4-0.9,0.6
	c-0.4,0.1-0.7,0.2-1.1,0.2C185,63.2,184.2,62.9,183.7,62.3z M190.2,61.2v-2.9h-1v-0.9h1v-1.8h1.1v1.8h1.6v0.9h-1.6v2.7
	c0,0.4,0.1,0.8,0.2,0.9c0.1,0.2,0.3,0.3,0.6,0.3c0.2,0,0.4,0,0.5-0.1c0.1-0.1,0.3-0.2,0.4-0.3l0.5,0.7c-0.2,0.2-0.5,0.4-0.7,0.5
	c-0.2,0.1-0.5,0.2-0.9,0.2c-0.6,0-1-0.2-1.3-0.5C190.3,62.3,190.2,61.8,190.2,61.2z M195.3,65.4h-1.1V58c0-0.1,0-0.1,0-0.2
	c0-0.1,0-0.2,0-0.4h1l0,0.8c0.1-0.1,0.2-0.2,0.3-0.4c0.2-0.1,0.4-0.3,0.6-0.4c0.3-0.1,0.6-0.2,0.9-0.2c0.6,0,1,0.1,1.4,0.4
	c0.4,0.3,0.7,0.6,0.8,1.1c0.2,0.4,0.3,0.9,0.3,1.5c0,0.5-0.1,0.9-0.3,1.3c-0.2,0.4-0.4,0.7-0.7,0.9c-0.3,0.2-0.6,0.4-0.9,0.5
	c-0.3,0.1-0.7,0.2-1,0.2c-0.4,0-0.7,0-0.9-0.1c-0.2-0.1-0.4-0.2-0.6-0.2V65.4z M195.3,60.4v1.4c0.1,0.1,0.3,0.2,0.6,0.3
	c0.2,0.1,0.5,0.1,0.9,0.1c0.4,0,0.7-0.1,1-0.3c0.3-0.2,0.5-0.4,0.6-0.7c0.2-0.3,0.2-0.6,0.2-1c0-0.4-0.1-0.7-0.2-1
	c-0.1-0.3-0.3-0.5-0.5-0.7c-0.2-0.2-0.6-0.3-1-0.3c-0.4,0-0.7,0.1-1,0.3c-0.3,0.2-0.5,0.5-0.6,0.9c0,0.1-0.1,0.3-0.1,0.4
	C195.4,60,195.3,60.2,195.3,60.4z M201,63v-8h1.1v8H201z M203.5,60.8v-3.3h1.1v3.3c0,0.5,0.1,0.9,0.3,1.1c0.2,0.2,0.5,0.4,0.9,0.4
	c0.4,0,0.7-0.1,1-0.3c0.2-0.2,0.4-0.5,0.5-0.8c0.1-0.3,0.2-0.7,0.2-1v-2.6h1.1v5c0,0,0,0.1,0,0.2c0,0.1,0,0.2,0,0.3h-1l0-0.8
	c-0.1,0.1-0.2,0.3-0.4,0.4c-0.2,0.1-0.4,0.3-0.6,0.4c-0.2,0.1-0.5,0.2-0.9,0.2c-0.7,0-1.3-0.2-1.6-0.6
	C203.6,62.1,203.5,61.5,203.5,60.8z M209.7,62.3l0.7-0.7c0.2,0.2,0.4,0.4,0.7,0.5s0.6,0.2,1,0.2c0.4,0,0.7-0.1,0.9-0.2
	c0.2-0.1,0.4-0.3,0.4-0.6c0-0.2,0-0.3-0.1-0.4c-0.1-0.1-0.3-0.2-0.5-0.3c-0.2-0.1-0.6-0.2-1-0.3c-0.3-0.1-0.6-0.2-0.8-0.3
	c-0.3-0.1-0.5-0.3-0.7-0.5c-0.2-0.2-0.3-0.5-0.3-0.9c0-0.4,0.1-0.7,0.3-0.9c0.2-0.2,0.5-0.4,0.8-0.6c0.3-0.1,0.7-0.2,1.1-0.2
	c0.5,0,0.9,0.1,1.2,0.2c0.3,0.1,0.6,0.3,0.9,0.5l-0.6,0.7c-0.2-0.2-0.4-0.3-0.6-0.4c-0.2-0.1-0.5-0.2-0.9-0.2
	c-0.3,0-0.6,0.1-0.8,0.2c-0.2,0.1-0.3,0.3-0.3,0.6c0,0.2,0.1,0.4,0.4,0.5c0.3,0.1,0.6,0.2,1.1,0.3c0.4,0.1,0.7,0.2,0.9,0.3
	c0.3,0.1,0.5,0.3,0.7,0.5c0.2,0.2,0.3,0.5,0.3,0.9c0,0.4-0.1,0.7-0.3,0.9c-0.2,0.2-0.5,0.4-0.9,0.6c-0.4,0.1-0.7,0.2-1.1,0.2
	C211,63.2,210.2,62.9,209.7,62.3z M215.5,63v-1.3h1.4V63H215.5z M222.2,61.5l0.7,0.7c-0.2,0.3-0.6,0.5-0.9,0.7
	c-0.4,0.2-0.8,0.3-1.3,0.3c-0.6,0-1.1-0.1-1.6-0.4c-0.4-0.3-0.8-0.6-1-1c-0.2-0.4-0.4-1-0.4-1.5c0-0.5,0.1-1,0.4-1.5
	c0.2-0.4,0.6-0.8,1-1.1c0.4-0.3,1-0.4,1.5-0.4c0.5,0,0.9,0.1,1.2,0.3s0.7,0.4,0.9,0.7l-0.7,0.7c-0.2-0.2-0.4-0.4-0.6-0.5
	s-0.5-0.2-0.9-0.2c-0.4,0-0.7,0.1-1,0.3c-0.3,0.2-0.5,0.4-0.6,0.7s-0.2,0.6-0.2,1c0,0.3,0.1,0.7,0.2,1c0.2,0.3,0.4,0.6,0.6,0.7
	c0.3,0.2,0.6,0.3,1,0.3c0.3,0,0.6-0.1,0.9-0.2C221.8,61.9,222,61.7,222.2,61.5z M226.3,63.2c-0.6,0-1.1-0.1-1.5-0.4
	c-0.4-0.3-0.8-0.6-1.1-1.1c-0.2-0.5-0.4-1-0.4-1.5c0-0.5,0.1-1,0.4-1.5c0.3-0.4,0.6-0.8,1.1-1.1c0.4-0.3,1-0.4,1.5-0.4
	c0.6,0,1.1,0.1,1.5,0.4c0.4,0.3,0.8,0.6,1.1,1.1c0.3,0.4,0.4,0.9,0.4,1.5c0,0.5-0.1,1-0.4,1.5c-0.3,0.4-0.6,0.8-1.1,1.1
	C227.3,63,226.8,63.2,226.3,63.2z M226.3,62.2c0.4,0,0.7-0.1,1-0.3c0.3-0.2,0.5-0.5,0.6-0.8c0.2-0.3,0.2-0.6,0.2-1
	c0-0.3-0.1-0.7-0.2-1c-0.1-0.3-0.4-0.6-0.6-0.8c-0.3-0.2-0.6-0.3-1-0.3s-0.7,0.1-1,0.3c-0.3,0.2-0.5,0.4-0.6,0.8
	c-0.1,0.3-0.2,0.6-0.2,1c0,0.3,0.1,0.7,0.2,1c0.2,0.3,0.4,0.6,0.6,0.8C225.6,62.1,225.9,62.2,226.3,62.2z M231.5,63h-1.1v-5
	c0-0.1,0-0.1,0-0.2c0-0.1,0-0.2,0-0.4h1l0,0.8c0.1-0.1,0.2-0.3,0.4-0.4c0.2-0.2,0.3-0.3,0.6-0.4c0.2-0.1,0.5-0.2,0.9-0.2
	c0.4,0,0.8,0.1,1.1,0.3c0.3,0.2,0.5,0.4,0.7,0.7c0.2-0.3,0.5-0.5,0.8-0.7c0.3-0.2,0.7-0.3,1.2-0.3c0.7,0,1.3,0.2,1.6,0.6
	c0.3,0.4,0.5,1,0.5,1.7V63h-1.1v-3.3c0-1-0.4-1.5-1.2-1.5c-0.3,0-0.6,0.1-0.8,0.2c-0.2,0.2-0.4,0.4-0.6,0.6
	c-0.1,0.2-0.2,0.5-0.2,0.8V63h-1.1v-3.3c0-0.5-0.1-0.9-0.3-1.1c-0.2-0.2-0.5-0.4-0.9-0.4c-0.4,0-0.7,0.1-0.9,0.3
	c-0.2,0.2-0.4,0.5-0.5,0.8c-0.1,0.3-0.1,0.7-0.1,1V63z M240.8,63v-1.3h1.4V63H240.8z M247.2,63l0-0.7c-0.2,0.3-0.5,0.5-0.8,0.6
	c-0.3,0.1-0.7,0.2-1,0.2c-0.3,0-0.6-0.1-0.9-0.2c-0.3-0.1-0.5-0.3-0.7-0.6c-0.2-0.3-0.3-0.6-0.3-1c0-0.6,0.2-1.1,0.6-1.4
	c0.4-0.4,1-0.5,1.8-0.5c0.2,0,0.4,0,0.5,0c0.2,0,0.4,0,0.5,0c0.2,0,0.3,0,0.3,0v-0.2c0-0.4-0.1-0.7-0.4-0.9c-0.2-0.2-0.6-0.3-1-0.3
	c-0.4,0-0.8,0.1-1,0.2c-0.2,0.1-0.5,0.2-0.6,0.3l-0.5-0.7c0.2-0.2,0.5-0.3,0.8-0.5c0.4-0.2,0.8-0.2,1.4-0.2c0.7,0,1.3,0.2,1.7,0.5
	c0.4,0.3,0.6,0.8,0.6,1.5v3.3c0,0.1,0,0.1,0,0.2c0,0.1,0,0.2,0,0.3H247.2z M247.2,61v-0.6c0,0-0.1,0-0.3,0c-0.1,0-0.3,0-0.5,0
	c-0.2,0-0.3,0-0.5,0c-0.4,0-0.7,0.1-0.9,0.2c-0.2,0.1-0.4,0.3-0.4,0.4c-0.1,0.2-0.1,0.3-0.1,0.5c0,0.3,0.1,0.5,0.3,0.7
	c0.2,0.2,0.5,0.2,0.9,0.2c0.3,0,0.5-0.1,0.8-0.2c0.2-0.1,0.4-0.3,0.6-0.5C247.1,61.4,247.2,61.2,247.2,61z M249.7,60.8v-3.3h1.1v3.3
	c0,0.5,0.1,0.9,0.3,1.1c0.2,0.2,0.5,0.4,0.9,0.4c0.4,0,0.7-0.1,1-0.3c0.2-0.2,0.4-0.5,0.5-0.8c0.1-0.3,0.2-0.7,0.2-1v-2.6h1.1v5
	c0,0,0,0.1,0,0.2c0,0.1,0,0.2,0,0.3h-1l0-0.8c-0.1,0.1-0.2,0.3-0.4,0.4c-0.2,0.1-0.4,0.3-0.6,0.4c-0.2,0.1-0.5,0.2-0.9,0.2
	c-0.7,0-1.3-0.2-1.6-0.6C249.8,62.1,249.7,61.5,249.7,60.8z M258.4,62.8V55h1.1v3c0.1-0.2,0.3-0.3,0.6-0.5c0.3-0.2,0.7-0.3,1.1-0.3
	c0.6,0,1,0.1,1.4,0.4c0.4,0.3,0.7,0.6,0.9,1c0.2,0.4,0.3,0.9,0.3,1.5c0,0.6-0.1,1.1-0.4,1.6c-0.3,0.4-0.6,0.8-1.1,1.1
	c-0.5,0.3-1,0.4-1.6,0.4c-0.5,0-0.9,0-1.3-0.1C258.9,63,258.6,62.9,258.4,62.8z M259.4,59.9v2.2c0.1,0,0.2,0.1,0.4,0.1
	c0.2,0,0.4,0,0.7,0c0.6,0,1.1-0.2,1.5-0.6c0.4-0.4,0.6-0.9,0.6-1.5c0-0.3-0.1-0.7-0.2-1c-0.1-0.3-0.3-0.5-0.5-0.7
	c-0.2-0.2-0.5-0.3-0.9-0.3c-0.3,0-0.6,0.1-0.9,0.2c-0.2,0.2-0.4,0.4-0.5,0.6C259.5,59.3,259.4,59.6,259.4,59.9z M269.4,61.5l0.6,0.6
	c-0.1,0.1-0.2,0.2-0.4,0.4c-0.2,0.2-0.5,0.3-0.8,0.4c-0.3,0.1-0.7,0.2-1.2,0.2c-0.6,0-1.1-0.1-1.5-0.4c-0.4-0.3-0.8-0.6-1-1.1
	c-0.2-0.5-0.4-1-0.4-1.6c0-0.5,0.1-1,0.3-1.5c0.2-0.4,0.6-0.8,1-1c0.4-0.3,0.9-0.4,1.5-0.4c0.6,0,1.2,0.2,1.6,0.5
	c0.4,0.3,0.7,0.7,0.9,1.2c0.2,0.5,0.3,1,0.3,1.6h-4.4c0,0.3,0.1,0.6,0.3,0.9c0.2,0.3,0.4,0.5,0.7,0.6c0.3,0.1,0.6,0.2,0.9,0.2
	c0.5,0,0.9-0.1,1.2-0.2C269.1,61.8,269.3,61.7,269.4,61.5z M265.8,59.7h3.3c0-0.4-0.2-0.8-0.5-1.1c-0.3-0.3-0.7-0.5-1.2-0.5
	c-0.3,0-0.6,0.1-0.9,0.2c-0.2,0.2-0.4,0.3-0.6,0.6C265.9,59.2,265.8,59.5,265.8,59.7z M271.8,63v-4.7h-1v-0.9h1V57
	c0-0.5,0.1-0.9,0.3-1.2s0.4-0.6,0.7-0.7s0.6-0.2,0.9-0.2c0.3,0,0.6,0,0.9,0.1c0.3,0.1,0.6,0.2,0.8,0.5l-0.5,0.7
	c-0.3-0.2-0.6-0.4-0.9-0.4c-0.3,0-0.6,0.1-0.8,0.3c-0.2,0.2-0.3,0.5-0.3,1v0.4h1.6v0.9h-1.6V63H271.8z M277.8,63.2
	c-0.6,0-1.1-0.1-1.5-0.4c-0.4-0.3-0.8-0.6-1.1-1.1c-0.2-0.5-0.4-1-0.4-1.5c0-0.5,0.1-1,0.4-1.5c0.3-0.4,0.6-0.8,1.1-1.1
	c0.4-0.3,1-0.4,1.5-0.4c0.6,0,1.1,0.1,1.5,0.4c0.4,0.3,0.8,0.6,1.1,1.1c0.3,0.4,0.4,0.9,0.4,1.5c0,0.5-0.1,1-0.4,1.5
	c-0.3,0.4-0.6,0.8-1.1,1.1C278.9,63,278.4,63.2,277.8,63.2z M277.8,62.2c0.4,0,0.7-0.1,1-0.3c0.3-0.2,0.5-0.5,0.6-0.8
	c0.2-0.3,0.2-0.6,0.2-1c0-0.3-0.1-0.7-0.2-1c-0.1-0.3-0.4-0.6-0.6-0.8c-0.3-0.2-0.6-0.3-1-0.3c-0.4,0-0.7,0.1-1,0.3
	c-0.3,0.2-0.5,0.4-0.6,0.8c-0.1,0.3-0.2,0.6-0.2,1c0,0.3,0.1,0.7,0.2,1c0.2,0.3,0.4,0.6,0.6,0.8C277.1,62.1,277.4,62.2,277.8,62.2z
	 M283.1,63H282v-5c0-0.1,0-0.1,0-0.2c0-0.1,0-0.2,0-0.3h1l0,0.9c0.1-0.1,0.2-0.3,0.4-0.4c0.2-0.2,0.4-0.3,0.6-0.4
	c0.2-0.1,0.5-0.2,0.9-0.2c0.1,0,0.2,0,0.3,0c0.1,0,0.2,0,0.3,0.1l-0.2,1c-0.1-0.1-0.3-0.1-0.6-0.1c-0.3,0-0.6,0.1-0.8,0.2
	c-0.2,0.2-0.4,0.4-0.6,0.6s-0.2,0.5-0.2,0.9V63z M290.5,61.5l0.6,0.6c-0.1,0.1-0.2,0.2-0.4,0.4c-0.2,0.2-0.5,0.3-0.8,0.4
	c-0.3,0.1-0.7,0.2-1.2,0.2c-0.6,0-1.1-0.1-1.5-0.4c-0.4-0.3-0.8-0.6-1-1.1c-0.2-0.5-0.4-1-0.4-1.6c0-0.5,0.1-1,0.3-1.5
	c0.2-0.4,0.6-0.8,1-1c0.4-0.3,0.9-0.4,1.5-0.4c0.6,0,1.2,0.2,1.6,0.5s0.7,0.7,0.9,1.2c0.2,0.5,0.3,1,0.3,1.6h-4.4
	c0,0.3,0.1,0.6,0.3,0.9c0.2,0.3,0.4,0.5,0.7,0.6c0.3,0.1,0.6,0.2,0.9,0.2c0.5,0,0.9-0.1,1.2-0.2C290.2,61.8,290.4,61.7,290.5,61.5z
	 M286.9,59.7h3.3c0-0.4-0.2-0.8-0.5-1.1c-0.3-0.3-0.7-0.5-1.2-0.5c-0.3,0-0.6,0.1-0.9,0.2c-0.2,0.2-0.4,0.3-0.6,0.6
	C287,59.2,286.9,59.5,286.9,59.7z M295.7,63h-1.1v-5c0-0.1,0-0.1,0-0.2c0-0.1,0-0.2,0-0.4h1l0,0.8c0.1-0.1,0.2-0.3,0.4-0.4
	c0.2-0.2,0.3-0.3,0.6-0.4c0.2-0.1,0.5-0.2,0.9-0.2c0.4,0,0.8,0.1,1.1,0.3c0.3,0.2,0.5,0.4,0.7,0.7c0.2-0.3,0.5-0.5,0.8-0.7
	c0.3-0.2,0.7-0.3,1.2-0.3c0.7,0,1.3,0.2,1.6,0.6c0.3,0.4,0.5,1,0.5,1.7V63h-1.1v-3.3c0-1-0.4-1.5-1.2-1.5c-0.3,0-0.6,0.1-0.8,0.2
	c-0.2,0.2-0.4,0.4-0.6,0.6c-0.1,0.2-0.2,0.5-0.2,0.8V63h-1.1v-3.3c0-0.5-0.1-0.9-0.3-1.1c-0.2-0.2-0.5-0.4-0.9-0.4
	c-0.4,0-0.7,0.1-0.9,0.3c-0.2,0.2-0.4,0.5-0.5,0.8c-0.1,0.3-0.1,0.7-0.1,1V63z M308.4,63l0-0.7c-0.2,0.3-0.5,0.5-0.8,0.6
	c-0.3,0.1-0.7,0.2-1,0.2c-0.3,0-0.6-0.1-0.9-0.2c-0.3-0.1-0.5-0.3-0.7-0.6c-0.2-0.3-0.3-0.6-0.3-1c0-0.6,0.2-1.1,0.6-1.4
	c0.4-0.4,1-0.5,1.8-0.5c0.2,0,0.4,0,0.5,0c0.2,0,0.4,0,0.5,0c0.2,0,0.3,0,0.3,0v-0.2c0-0.4-0.1-0.7-0.4-0.9c-0.2-0.2-0.6-0.3-1-0.3
	c-0.4,0-0.8,0.1-1,0.2c-0.2,0.1-0.5,0.2-0.6,0.3l-0.5-0.7c0.2-0.2,0.5-0.3,0.8-0.5c0.4-0.2,0.8-0.2,1.4-0.2c0.7,0,1.3,0.2,1.7,0.5
	c0.4,0.3,0.6,0.8,0.6,1.5v3.3c0,0.1,0,0.1,0,0.2c0,0.1,0,0.2,0,0.3H308.4z M308.3,61v-0.6c0,0-0.1,0-0.3,0c-0.1,0-0.3,0-0.5,0
	c-0.2,0-0.3,0-0.5,0c-0.4,0-0.7,0.1-0.9,0.2c-0.2,0.1-0.4,0.3-0.4,0.4c-0.1,0.2-0.1,0.3-0.1,0.5c0,0.3,0.1,0.5,0.3,0.7
	c0.2,0.2,0.5,0.2,0.9,0.2c0.3,0,0.5-0.1,0.8-0.2c0.2-0.1,0.4-0.3,0.6-0.5C308.2,61.4,308.3,61.2,308.3,61z M310.8,63v-8h1.1v4.7
	l2.3-2.3h1.3l-2.1,2.1l2.4,3.5h-1.3l-1.9-2.8l-0.8,0.7V63H310.8z M316.7,56.4v-1.2h1.2v1.2H316.7z M316.7,63v-5.6h1.1V63H316.7z
	 M320.4,63h-1.1v-5c0-0.1,0-0.1,0-0.2c0-0.1,0-0.2,0-0.4h1l0,0.8c0.1-0.1,0.2-0.3,0.4-0.4c0.2-0.2,0.4-0.3,0.6-0.4
	c0.2-0.1,0.5-0.2,0.9-0.2c0.7,0,1.3,0.2,1.6,0.6c0.4,0.4,0.5,1,0.5,1.7V63h-1.1v-3.3c0-0.5-0.1-0.9-0.3-1.1
	c-0.2-0.2-0.5-0.4-0.9-0.4c-0.4,0-0.7,0.1-1,0.3c-0.2,0.2-0.4,0.5-0.5,0.8c-0.1,0.3-0.1,0.7-0.1,1V63z M326.1,64.9l0.5-0.8
	c0.2,0.1,0.4,0.2,0.7,0.3c0.3,0.1,0.6,0.1,1,0.1c0.5,0,0.9-0.1,1.2-0.4c0.3-0.3,0.4-0.7,0.4-1.2v-0.7c-0.1,0.1-0.2,0.2-0.3,0.3
	c-0.1,0.1-0.3,0.2-0.6,0.3c-0.2,0.1-0.5,0.1-0.8,0.1c-0.5,0-1-0.1-1.4-0.4c-0.4-0.2-0.7-0.6-0.9-1c-0.2-0.4-0.3-0.9-0.3-1.4
	c0-0.6,0.1-1.1,0.4-1.5c0.3-0.5,0.6-0.8,1.1-1.1c0.5-0.3,1-0.4,1.6-0.4c0.4,0,0.9,0,1.3,0.1c0.4,0.1,0.7,0.2,1,0.3V63
	c0,0.8-0.2,1.4-0.7,1.9c-0.5,0.4-1.1,0.7-2,0.7c-0.6,0-1-0.1-1.4-0.2C326.6,65.2,326.3,65.1,326.1,64.9z M329.9,60.7v-2.3
	c-0.1,0-0.2-0.1-0.4-0.1c-0.2,0-0.4-0.1-0.8-0.1c-0.4,0-0.8,0.1-1.1,0.3c-0.3,0.2-0.5,0.4-0.7,0.7c-0.2,0.3-0.3,0.7-0.3,1.1
	c0,0.3,0.1,0.6,0.2,0.9c0.1,0.3,0.3,0.5,0.5,0.7s0.5,0.3,0.9,0.3c0.4,0,0.7-0.1,0.9-0.2c0.2-0.1,0.4-0.3,0.5-0.5
	C329.8,61.2,329.9,61,329.9,60.7z M338.1,63l0-0.7c-0.2,0.3-0.5,0.5-0.8,0.6c-0.3,0.1-0.7,0.2-1,0.2c-0.3,0-0.6-0.1-0.9-0.2
	c-0.3-0.1-0.5-0.3-0.7-0.6c-0.2-0.3-0.3-0.6-0.3-1c0-0.6,0.2-1.1,0.6-1.4c0.4-0.4,1-0.5,1.8-0.5c0.2,0,0.4,0,0.5,0
	c0.2,0,0.4,0,0.5,0c0.2,0,0.3,0,0.3,0v-0.2c0-0.4-0.1-0.7-0.4-0.9c-0.2-0.2-0.6-0.3-1-0.3c-0.4,0-0.8,0.1-1,0.2
	c-0.2,0.1-0.5,0.2-0.6,0.3l-0.5-0.7c0.2-0.2,0.5-0.3,0.8-0.5s0.8-0.2,1.4-0.2c0.7,0,1.3,0.2,1.7,0.5c0.4,0.3,0.6,0.8,0.6,1.5v3.3
	c0,0.1,0,0.1,0,0.2c0,0.1,0,0.2,0,0.3H338.1z M338.1,61v-0.6c0,0-0.1,0-0.3,0c-0.1,0-0.3,0-0.5,0c-0.2,0-0.3,0-0.5,0
	c-0.4,0-0.7,0.1-0.9,0.2c-0.2,0.1-0.4,0.3-0.4,0.4c-0.1,0.2-0.1,0.3-0.1,0.5c0,0.3,0.1,0.5,0.3,0.7s0.5,0.2,0.9,0.2
	c0.3,0,0.5-0.1,0.8-0.2c0.2-0.1,0.4-0.3,0.6-0.5C338,61.4,338.1,61.2,338.1,61z M346.8,63l0-0.7c-0.1,0.1-0.2,0.2-0.3,0.3
	c-0.1,0.1-0.3,0.3-0.6,0.4c-0.2,0.1-0.6,0.2-0.9,0.2c-0.5,0-0.9-0.1-1.3-0.3c-0.4-0.2-0.7-0.6-0.9-1s-0.3-0.9-0.3-1.5
	c0-0.5,0.1-1,0.3-1.4c0.2-0.4,0.4-0.7,0.7-0.9c0.3-0.2,0.6-0.4,0.9-0.5c0.3-0.1,0.7-0.2,0.9-0.2c0.3,0,0.6,0,0.8,0.1
	c0.2,0.1,0.4,0.2,0.7,0.3V55h1.1v7.4c0,0,0,0.1,0,0.2c0,0.1,0,0.2,0,0.3H346.8z M346.8,60.6v-2c-0.1-0.1-0.3-0.2-0.6-0.3
	c-0.2-0.1-0.5-0.1-0.8-0.1c-0.5,0-1,0.2-1.3,0.6c-0.3,0.4-0.5,0.9-0.5,1.5c0,0.4,0.1,0.7,0.2,1c0.1,0.3,0.3,0.5,0.5,0.7
	c0.2,0.2,0.5,0.3,0.9,0.3c0.4,0,0.7-0.1,0.9-0.3c0.2-0.2,0.4-0.4,0.5-0.6C346.7,61.1,346.8,60.9,346.8,60.6z M353.8,61.5l0.6,0.6
	c-0.1,0.1-0.2,0.2-0.4,0.4c-0.2,0.2-0.5,0.3-0.8,0.4c-0.3,0.1-0.7,0.2-1.2,0.2c-0.6,0-1.1-0.1-1.5-0.4c-0.4-0.3-0.8-0.6-1-1.1
	c-0.2-0.5-0.4-1-0.4-1.6c0-0.5,0.1-1,0.3-1.5c0.2-0.4,0.6-0.8,1-1c0.4-0.3,0.9-0.4,1.5-0.4c0.6,0,1.2,0.2,1.6,0.5s0.7,0.7,0.9,1.2
	c0.2,0.5,0.3,1,0.3,1.6h-4.4c0,0.3,0.1,0.6,0.3,0.9c0.2,0.3,0.4,0.5,0.7,0.6c0.3,0.1,0.6,0.2,0.9,0.2c0.5,0,0.9-0.1,1.2-0.2
	C353.5,61.8,353.7,61.7,353.8,61.5z M350.2,59.7h3.3c0-0.4-0.2-0.8-0.5-1.1c-0.3-0.3-0.7-0.5-1.2-0.5c-0.3,0-0.6,0.1-0.9,0.2
	c-0.2,0.2-0.4,0.3-0.6,0.6C350.3,59.2,350.2,59.5,350.2,59.7z M360,61.5l0.7,0.7c-0.2,0.3-0.6,0.5-0.9,0.7c-0.4,0.2-0.8,0.3-1.3,0.3
	c-0.6,0-1.1-0.1-1.6-0.4c-0.4-0.3-0.8-0.6-1-1c-0.2-0.4-0.4-1-0.4-1.5c0-0.5,0.1-1,0.4-1.5c0.2-0.4,0.6-0.8,1-1.1
	c0.4-0.3,1-0.4,1.5-0.4c0.5,0,0.9,0.1,1.2,0.3c0.4,0.2,0.7,0.4,0.9,0.7l-0.7,0.7c-0.2-0.2-0.4-0.4-0.6-0.5s-0.5-0.2-0.9-0.2
	c-0.4,0-0.7,0.1-1,0.3c-0.3,0.2-0.5,0.4-0.6,0.7c-0.1,0.3-0.2,0.6-0.2,1c0,0.3,0.1,0.7,0.2,1c0.2,0.3,0.4,0.6,0.6,0.7
	c0.3,0.2,0.6,0.3,1,0.3c0.3,0,0.6-0.1,0.9-0.2C359.6,61.9,359.8,61.7,360,61.5z M361.7,56.4v-1.2h1.2v1.2H361.7z M361.8,63v-5.6h1.1
	V63H361.8z M364.1,62.3l0.7-0.7c0.2,0.2,0.4,0.4,0.7,0.5s0.6,0.2,1,0.2c0.4,0,0.7-0.1,0.9-0.2c0.2-0.1,0.4-0.3,0.4-0.6
	c0-0.2,0-0.3-0.1-0.4c-0.1-0.1-0.3-0.2-0.5-0.3c-0.2-0.1-0.6-0.2-1-0.3c-0.3-0.1-0.6-0.2-0.8-0.3c-0.3-0.1-0.5-0.3-0.7-0.5
	c-0.2-0.2-0.3-0.5-0.3-0.9c0-0.4,0.1-0.7,0.3-0.9c0.2-0.2,0.5-0.4,0.8-0.6c0.3-0.1,0.7-0.2,1.1-0.2c0.5,0,0.9,0.1,1.2,0.2
	c0.3,0.1,0.6,0.3,0.9,0.5l-0.6,0.7c-0.2-0.2-0.4-0.3-0.6-0.4c-0.2-0.1-0.5-0.2-0.9-0.2c-0.3,0-0.6,0.1-0.8,0.2
	c-0.2,0.1-0.3,0.3-0.3,0.6c0,0.2,0.1,0.4,0.4,0.5c0.3,0.1,0.6,0.2,1.1,0.3c0.4,0.1,0.7,0.2,0.9,0.3c0.3,0.1,0.5,0.3,0.7,0.5
	c0.2,0.2,0.3,0.5,0.3,0.9c0,0.4-0.1,0.7-0.3,0.9c-0.2,0.2-0.5,0.4-0.9,0.6c-0.4,0.1-0.7,0.2-1.1,0.2
	C365.4,63.2,364.6,62.9,364.1,62.3z M370,56.4v-1.2h1.2v1.2H370z M370.1,63v-5.6h1.1V63H370.1z M375.4,63.2c-0.6,0-1.1-0.1-1.5-0.4
	c-0.4-0.3-0.8-0.6-1.1-1.1c-0.2-0.5-0.4-1-0.4-1.5c0-0.5,0.1-1,0.4-1.5c0.3-0.4,0.6-0.8,1.1-1.1c0.4-0.3,1-0.4,1.5-0.4
	c0.6,0,1.1,0.1,1.5,0.4c0.4,0.3,0.8,0.6,1.1,1.1c0.3,0.4,0.4,0.9,0.4,1.5c0,0.5-0.1,1-0.4,1.5c-0.3,0.4-0.6,0.8-1.1,1.1
	C376.5,63,376,63.2,375.4,63.2z M375.4,62.2c0.4,0,0.7-0.1,1-0.3c0.3-0.2,0.5-0.5,0.6-0.8c0.2-0.3,0.2-0.6,0.2-1
	c0-0.3-0.1-0.7-0.2-1c-0.1-0.3-0.4-0.6-0.6-0.8c-0.3-0.2-0.6-0.3-1-0.3s-0.7,0.1-1,0.3c-0.3,0.2-0.5,0.4-0.6,0.8
	c-0.1,0.3-0.2,0.6-0.2,1c0,0.3,0.1,0.7,0.2,1c0.2,0.3,0.4,0.6,0.6,0.8C374.7,62.1,375,62.2,375.4,62.2z M380.6,63h-1.1v-5
	c0-0.1,0-0.1,0-0.2c0-0.1,0-0.2,0-0.4h1l0,0.8c0.1-0.1,0.2-0.3,0.4-0.4c0.2-0.2,0.4-0.3,0.6-0.4c0.2-0.1,0.5-0.2,0.9-0.2
	c0.7,0,1.3,0.2,1.6,0.6c0.4,0.4,0.5,1,0.5,1.7V63h-1.1v-3.3c0-0.5-0.1-0.9-0.3-1.1c-0.2-0.2-0.5-0.4-0.9-0.4c-0.4,0-0.7,0.1-1,0.3
	c-0.2,0.2-0.4,0.5-0.5,0.8c-0.1,0.3-0.1,0.7-0.1,1V63z M386.2,63v-1.3h1.4V63H386.2z"/>
</svg>
