<svg width="216" height="36" viewBox="0 0 216 36" fill="none" xmlns="http://www.w3.org/2000/svg">
<path d="M0.0600001 35V0.982997H9.087V35H0.0600001ZM14.6906 35V0.982997H22.9016L35.9576 19.955V0.982997H44.8826V35H37.1816L23.6156 15.467V35H14.6906ZM56.3361 35L68.8311 0.982997H79.1841L91.2201 35H81.4791L79.2861 27.962H67.9131L65.6691 35H56.3361ZM69.7491 21.383H77.4501L73.6761 8.888L69.7491 21.383ZM102.697 35V0.982997H116.773C120.411 0.982997 123.335 1.935 125.545 3.839C127.755 5.709 128.86 8.48 128.86 12.152C128.86 14.362 128.367 16.3 127.381 17.966C126.395 19.632 125.086 20.958 123.454 21.944L130.747 35H121.057L115.294 23.423H111.52V35H102.697ZM111.52 16.334H115.906C117.096 16.334 118.065 15.977 118.813 15.263C119.561 14.515 119.935 13.529 119.935 12.305C119.935 11.013 119.578 9.993 118.864 9.245C118.15 8.497 117.147 8.123 115.855 8.123H111.52V16.334ZM149.836 35.816C147.286 35.816 144.923 35.374 142.747 34.49C140.605 33.606 138.735 32.365 137.137 30.767C135.573 29.135 134.349 27.231 133.465 25.055C132.581 22.879 132.139 20.499 132.139 17.915C132.139 15.331 132.581 12.951 133.465 10.775C134.349 8.599 135.573 6.712 137.137 5.114C138.735 3.516 140.605 2.275 142.747 1.391C144.923 0.506997 147.286 0.0649968 149.836 0.0649968C152.386 0.0649968 154.732 0.506997 156.874 1.391C159.05 2.275 160.937 3.516 162.535 5.114C164.133 6.712 165.357 8.599 166.207 10.775C167.091 12.951 167.533 15.331 167.533 17.915C167.533 20.499 167.091 22.879 166.207 25.055C165.357 27.231 164.133 29.135 162.535 30.767C160.937 32.365 159.05 33.606 156.874 34.49C154.732 35.374 152.386 35.816 149.836 35.816ZM149.836 27.35C151.638 27.35 153.151 26.925 154.375 26.075C155.633 25.225 156.585 24.086 157.231 22.658C157.877 21.23 158.2 19.649 158.2 17.915C158.2 16.181 157.877 14.6 157.231 13.172C156.585 11.744 155.633 10.605 154.375 9.755C153.151 8.905 151.638 8.48 149.836 8.48C148.068 8.48 146.555 8.905 145.297 9.755C144.073 10.605 143.121 11.744 142.441 13.172C141.795 14.6 141.472 16.181 141.472 17.915C141.472 19.649 141.795 21.23 142.441 22.658C143.121 24.086 144.073 25.225 145.297 26.075C146.555 26.925 148.068 27.35 149.836 27.35ZM176.867 35L168.605 0.982997H178.142L182.528 23.78L187.883 1.799H196.094L201.5 23.78L205.835 0.982997H215.066L206.6 35H197.165L191.81 13.478L186.455 35H176.867Z" fill="#FFD000"/>
</svg>
