<svg width="176" height="34" viewBox="0 0 176 34" fill="none" xmlns="http://www.w3.org/2000/svg">
<path d="M22.2428 18.4566L23.9423 20.0076C23.6343 20.4256 23.2383 20.8106 22.7543 21.1626C22.2813 21.5146 21.7478 21.7951 21.1538 22.0041C20.5598 22.2131 19.9218 22.3176 19.2398 22.3176C18.1288 22.3176 17.1443 22.0701 16.2863 21.5751C15.4393 21.0801 14.7738 20.4036 14.2898 19.5456C13.8168 18.6766 13.5803 17.6866 13.5803 16.5756C13.5803 15.7616 13.7178 15.0026 13.9928 14.2986C14.2678 13.5836 14.6528 12.9621 15.1478 12.4341C15.6538 11.9061 16.2533 11.4936 16.9463 11.1966C17.6503 10.8996 18.4258 10.7511 19.2728 10.7511C20.2848 10.7511 21.1758 10.9381 21.9458 11.3121C22.7158 11.6861 23.3538 12.2251 23.8598 12.9291L22.1603 14.5626C21.8303 14.1006 21.4398 13.7321 20.9888 13.4571C20.5378 13.1711 19.9988 13.0281 19.3718 13.0281C18.7118 13.0281 18.1398 13.1876 17.6558 13.5066C17.1828 13.8146 16.8143 14.2326 16.5503 14.7606C16.2973 15.2886 16.1708 15.8716 16.1708 16.5096C16.1708 17.1586 16.2973 17.7416 16.5503 18.2586C16.8143 18.7756 17.1828 19.1881 17.6558 19.4961C18.1288 19.7931 18.6843 19.9416 19.3223 19.9416C19.8503 19.9416 20.2903 19.8701 20.6423 19.7271C20.9943 19.5841 21.2913 19.4026 21.5333 19.1826C21.7863 18.9516 22.0228 18.7096 22.2428 18.4566ZM24.8569 18.1596C24.8569 17.4006 25.0329 16.7076 25.3849 16.0806C25.7369 15.4536 26.2209 14.9586 26.8369 14.5956C27.4639 14.2216 28.1899 14.0346 29.0149 14.0346C29.8399 14.0346 30.5604 14.2216 31.1764 14.5956C31.8034 14.9586 32.2874 15.4536 32.6284 16.0806C32.9804 16.7076 33.1564 17.4006 33.1564 18.1596C33.1564 18.9186 32.9804 19.6116 32.6284 20.2386C32.2874 20.8656 31.8034 21.3661 31.1764 21.7401C30.5604 22.1141 29.8399 22.3011 29.0149 22.3011C28.1899 22.3011 27.4639 22.1141 26.8369 21.7401C26.2209 21.3661 25.7369 20.8656 25.3849 20.2386C25.0329 19.6116 24.8569 18.9186 24.8569 18.1596ZM29.0149 20.2386C29.4219 20.2386 29.7574 20.1396 30.0214 19.9416C30.2964 19.7436 30.5054 19.4851 30.6484 19.1661C30.7914 18.8471 30.8629 18.5116 30.8629 18.1596C30.8629 17.8076 30.7914 17.4776 30.6484 17.1696C30.5054 16.8506 30.2964 16.5921 30.0214 16.3941C29.7574 16.1961 29.4219 16.0971 29.0149 16.0971C28.6189 16.0971 28.2779 16.1961 27.9919 16.3941C27.7169 16.5921 27.5079 16.8506 27.3649 17.1696C27.2219 17.4776 27.1504 17.8076 27.1504 18.1596C27.1504 18.5116 27.2219 18.8471 27.3649 19.1661C27.5079 19.4851 27.7169 19.7436 27.9919 19.9416C28.2779 20.1396 28.6189 20.2386 29.0149 20.2386ZM34.5652 22.0371V14.2986H36.8422L36.9247 15.1566C37.1667 14.8596 37.4747 14.6121 37.8487 14.4141C38.2227 14.2161 38.6627 14.1171 39.1687 14.1171C39.7847 14.1171 40.2742 14.2326 40.6372 14.4636C41.0002 14.6946 41.2697 14.9366 41.4457 15.1896C41.7647 14.8486 42.1497 14.5846 42.6007 14.3976C43.0627 14.2106 43.5412 14.1171 44.0362 14.1171C45.0152 14.1171 45.7687 14.4031 46.2967 14.9751C46.8247 15.5361 47.0887 16.2951 47.0887 17.2521V22.0371H44.7127V17.6316C44.7127 17.1806 44.6082 16.8286 44.3992 16.5756C44.2012 16.3116 43.8987 16.1796 43.4917 16.1796C43.0407 16.1796 42.6722 16.3391 42.3862 16.6581C42.1112 16.9771 41.9737 17.3841 41.9737 17.8791V22.0371H39.6802V17.6316C39.6802 17.1806 39.5757 16.8286 39.3667 16.5756C39.1687 16.3116 38.8662 16.1796 38.4592 16.1796C38.0192 16.1796 37.6562 16.3391 37.3702 16.6581C37.0842 16.9771 36.9412 17.3841 36.9412 17.8791V22.0371H34.5652ZM48.8093 25.3371V14.2986H51.0863C51.1083 14.4416 51.1248 14.5846 51.1358 14.7276C51.1468 14.8596 51.1578 14.9971 51.1688 15.1401C51.4218 14.8211 51.7463 14.5791 52.1423 14.4141C52.5383 14.2381 52.9508 14.1501 53.3798 14.1501C54.1388 14.1501 54.7713 14.3371 55.2773 14.7111C55.7833 15.0851 56.1628 15.5746 56.4158 16.1796C56.6688 16.7846 56.7953 17.4281 56.7953 18.1101C56.7953 18.8251 56.6743 19.4466 56.4323 19.9746C56.2013 20.5026 55.8878 20.9371 55.4918 21.2781C55.0958 21.6191 54.6613 21.8721 54.1883 22.0371C53.7153 22.2021 53.2368 22.2846 52.7528 22.2846C52.3788 22.2846 52.0708 22.2516 51.8288 22.1856C51.5868 22.1196 51.3668 22.0536 51.1688 21.9876V25.3371H48.8093ZM51.1688 17.9286V19.9911C51.4878 20.2001 51.9443 20.3046 52.5383 20.3046C53.1213 20.3046 53.5778 20.1066 53.9078 19.7106C54.2488 19.3146 54.4193 18.7976 54.4193 18.1596C54.4193 17.8186 54.3643 17.4996 54.2543 17.2026C54.1553 16.8946 53.9848 16.6471 53.7428 16.4601C53.5118 16.2731 53.1983 16.1796 52.8023 16.1796C52.2743 16.1796 51.8673 16.3611 51.5813 16.7241C51.3063 17.0871 51.1688 17.4886 51.1688 17.9286ZM62.7574 22.0371L62.6914 21.3111C62.1414 21.9491 61.3604 22.2681 60.3484 22.2681C59.9854 22.2681 59.6004 22.1966 59.1934 22.0536C58.7974 21.9216 58.4564 21.6796 58.1704 21.3276C57.8844 20.9756 57.7414 20.4916 57.7414 19.8756C57.7414 19.2706 57.8954 18.7591 58.2034 18.3411C58.5224 17.9231 58.9514 17.6096 59.4904 17.4006C60.0294 17.1806 60.6344 17.0706 61.3054 17.0706C61.5804 17.0706 61.8554 17.0761 62.1304 17.0871C62.4164 17.0981 62.6034 17.1146 62.6914 17.1366V16.9716C62.6914 16.5756 62.5374 16.2951 62.2294 16.1301C61.9324 15.9541 61.5914 15.8661 61.2064 15.8661C60.6894 15.8661 60.2549 15.9321 59.9029 16.0641C59.5509 16.1961 59.2539 16.3446 59.0119 16.5096L58.0384 15.0576C58.3574 14.8046 58.7919 14.5736 59.3419 14.3646C59.8919 14.1446 60.6234 14.0346 61.5364 14.0346C62.7134 14.0346 63.5824 14.3536 64.1434 14.9916C64.7044 15.6186 64.9849 16.4656 64.9849 17.5326V22.0371H62.7574ZM62.6914 19.2486V18.6216C62.6364 18.6106 62.5319 18.5996 62.3779 18.5886C62.2239 18.5666 62.0479 18.5556 61.8499 18.5556C61.1899 18.5556 60.7224 18.6491 60.4474 18.8361C60.1724 19.0231 60.0349 19.2871 60.0349 19.6281C60.0349 20.2661 60.4199 20.5851 61.1899 20.5851C61.5639 20.5851 61.9049 20.4696 62.2129 20.2386C62.5319 20.0076 62.6914 19.6776 62.6914 19.2486ZM66.6951 22.0371V14.2986H68.9721L69.0546 15.2721C69.2526 15.0081 69.5221 14.7551 69.8631 14.5131C70.2151 14.2711 70.6661 14.1501 71.2161 14.1501C71.4251 14.1501 71.6011 14.1611 71.7441 14.1831C71.8981 14.2051 72.0466 14.2436 72.1896 14.2986L71.8101 16.3941C71.5681 16.3171 71.2821 16.2786 70.9521 16.2786C70.3911 16.2786 69.9346 16.4491 69.5826 16.7901C69.2416 17.1201 69.0711 17.5931 69.0711 18.2091V22.0371H66.6951ZM79.1863 19.6941L80.1598 21.1956C80.0498 21.2726 79.8518 21.3991 79.5658 21.5751C79.2908 21.7511 78.9223 21.9161 78.4603 22.0701C77.9983 22.2241 77.4318 22.3011 76.7608 22.3011C75.8808 22.3011 75.1218 22.1251 74.4838 21.7731C73.8458 21.4211 73.3563 20.9316 73.0153 20.3046C72.6743 19.6776 72.5038 18.9571 72.5038 18.1431C72.5038 17.4171 72.6578 16.7406 72.9658 16.1136C73.2848 15.4866 73.7413 14.9861 74.3353 14.6121C74.9403 14.2271 75.6608 14.0346 76.4968 14.0346C77.3328 14.0346 78.0313 14.2271 78.5923 14.6121C79.1643 14.9861 79.5933 15.5086 79.8793 16.1796C80.1763 16.8396 80.3248 17.6041 80.3248 18.4731V18.8691H74.8138C74.8248 19.2761 75.0118 19.6391 75.3748 19.9581C75.7378 20.2771 76.2273 20.4366 76.8433 20.4366C77.4593 20.4366 77.9598 20.3486 78.3448 20.1726C78.7298 19.9856 79.0103 19.8261 79.1863 19.6941ZM74.8138 17.3511H78.0808C78.0808 17.1311 78.0203 16.9111 77.8993 16.6911C77.7893 16.4601 77.6133 16.2676 77.3713 16.1136C77.1403 15.9596 76.8433 15.8826 76.4803 15.8826C76.1173 15.8826 75.8093 15.9596 75.5563 16.1136C75.3143 16.2676 75.1273 16.4601 74.9953 16.6911C74.8743 16.9111 74.8138 17.1311 74.8138 17.3511ZM84.8594 22.0371V11.0316H87.3509V15.2556H92.1194V11.0316H94.6109V22.0371H92.1194V17.5161H87.3509V22.0371H84.8594ZM96.2065 18.1596C96.2065 17.4006 96.3825 16.7076 96.7345 16.0806C97.0865 15.4536 97.5705 14.9586 98.1865 14.5956C98.8135 14.2216 99.5395 14.0346 100.364 14.0346C101.189 14.0346 101.91 14.2216 102.526 14.5956C103.153 14.9586 103.637 15.4536 103.978 16.0806C104.33 16.7076 104.506 17.4006 104.506 18.1596C104.506 18.9186 104.33 19.6116 103.978 20.2386C103.637 20.8656 103.153 21.3661 102.526 21.7401C101.91 22.1141 101.189 22.3011 100.364 22.3011C99.5395 22.3011 98.8135 22.1141 98.1865 21.7401C97.5705 21.3661 97.0865 20.8656 96.7345 20.2386C96.3825 19.6116 96.2065 18.9186 96.2065 18.1596ZM100.364 20.2386C100.771 20.2386 101.107 20.1396 101.371 19.9416C101.646 19.7436 101.855 19.4851 101.998 19.1661C102.141 18.8471 102.212 18.5116 102.212 18.1596C102.212 17.8076 102.141 17.4776 101.998 17.1696C101.855 16.8506 101.646 16.5921 101.371 16.3941C101.107 16.1961 100.771 16.0971 100.364 16.0971C99.9685 16.0971 99.6275 16.1961 99.3415 16.3941C99.0665 16.5921 98.8575 16.8506 98.7145 17.1696C98.5715 17.4776 98.5 17.8076 98.5 18.1596C98.5 18.5116 98.5715 18.8471 98.7145 19.1661C98.8575 19.4851 99.0665 19.7436 99.3415 19.9416C99.6275 20.1396 99.9685 20.2386 100.364 20.2386ZM105.535 21.1626L106.707 19.6446C106.96 19.8756 107.29 20.0681 107.697 20.2221C108.115 20.3761 108.516 20.4531 108.901 20.4531C109.253 20.4531 109.545 20.4091 109.776 20.3211C110.007 20.2221 110.122 20.0516 110.122 19.8096C110.122 19.6666 110.073 19.5511 109.974 19.4631C109.886 19.3641 109.71 19.2651 109.446 19.1661C109.193 19.0671 108.819 18.9516 108.324 18.8196C107.928 18.7096 107.543 18.5611 107.169 18.3741C106.806 18.1871 106.503 17.9396 106.261 17.6316C106.03 17.3126 105.915 16.9166 105.915 16.4436C105.915 15.9596 106.058 15.5416 106.344 15.1896C106.63 14.8266 107.02 14.5461 107.515 14.3481C108.01 14.1391 108.566 14.0346 109.182 14.0346C109.842 14.0346 110.419 14.1116 110.914 14.2656C111.42 14.4086 111.877 14.6231 112.284 14.9091L111.277 16.4766C111.035 16.3116 110.749 16.1631 110.419 16.0311C110.089 15.8991 109.721 15.8331 109.314 15.8331C108.951 15.8331 108.687 15.8881 108.522 15.9981C108.357 16.0971 108.274 16.2346 108.274 16.4106C108.274 16.6636 108.445 16.8506 108.786 16.9716C109.138 17.0926 109.6 17.2301 110.172 17.3841C110.953 17.5931 111.525 17.8956 111.888 18.2916C112.251 18.6766 112.432 19.1881 112.432 19.8261C112.432 20.3871 112.267 20.8546 111.937 21.2286C111.607 21.5916 111.178 21.8611 110.65 22.0371C110.133 22.2131 109.583 22.3011 109 22.3011C108.307 22.3011 107.653 22.2076 107.037 22.0206C106.421 21.8226 105.92 21.5366 105.535 21.1626ZM114.291 19.0836V16.1631H113.07V14.2986H114.291V11.7576H116.667V14.2986H118.664V16.1631H116.667V19.2156C116.667 19.5896 116.739 19.8811 116.882 20.0901C117.036 20.2881 117.272 20.3871 117.591 20.3871C117.833 20.3871 118.042 20.3486 118.218 20.2716C118.394 20.1836 118.559 20.0846 118.713 19.9746L119.67 21.4266C118.933 22.0206 118.119 22.3176 117.228 22.3176C116.491 22.3176 115.908 22.1801 115.479 21.9051C115.05 21.6301 114.742 21.2506 114.555 20.7666C114.379 20.2826 114.291 19.7216 114.291 19.0836ZM120.61 25.3371V14.2986H122.887C122.909 14.4416 122.926 14.5846 122.937 14.7276C122.948 14.8596 122.959 14.9971 122.97 15.1401C123.223 14.8211 123.547 14.5791 123.943 14.4141C124.339 14.2381 124.752 14.1501 125.181 14.1501C125.94 14.1501 126.572 14.3371 127.078 14.7111C127.584 15.0851 127.964 15.5746 128.217 16.1796C128.47 16.7846 128.596 17.4281 128.596 18.1101C128.596 18.8251 128.475 19.4466 128.233 19.9746C128.002 20.5026 127.689 20.9371 127.293 21.2781C126.897 21.6191 126.462 21.8721 125.989 22.0371C125.516 22.2021 125.038 22.2846 124.554 22.2846C124.18 22.2846 123.872 22.2516 123.63 22.1856C123.388 22.1196 123.168 22.0536 122.97 21.9876V25.3371H120.61ZM122.97 17.9286V19.9911C123.289 20.2001 123.745 20.3046 124.339 20.3046C124.922 20.3046 125.379 20.1066 125.709 19.7106C126.05 19.3146 126.22 18.7976 126.22 18.1596C126.22 17.8186 126.165 17.4996 126.055 17.2026C125.956 16.8946 125.786 16.6471 125.544 16.4601C125.313 16.2731 124.999 16.1796 124.603 16.1796C124.075 16.1796 123.668 16.3611 123.382 16.7241C123.107 17.0871 122.97 17.4886 122.97 17.9286ZM130.004 22.0371V11.0316H132.38V22.0371H130.004ZM134.096 19.1001V14.2986H136.472V18.7536C136.472 19.1936 136.577 19.5401 136.786 19.7931C137.006 20.0461 137.325 20.1726 137.743 20.1726C138.227 20.1726 138.601 20.0021 138.865 19.6611C139.129 19.3091 139.261 18.9131 139.261 18.4731V14.2986H141.62V22.0371H139.343L139.277 21.2121C139.024 21.5091 138.689 21.7566 138.271 21.9546C137.864 22.1416 137.435 22.2351 136.984 22.2351C136.104 22.2351 135.4 21.9711 134.872 21.4431C134.355 20.9151 134.096 20.1341 134.096 19.1001ZM142.999 21.1626L144.17 19.6446C144.423 19.8756 144.753 20.0681 145.16 20.2221C145.578 20.3761 145.98 20.4531 146.365 20.4531C146.717 20.4531 147.008 20.4091 147.239 20.3211C147.47 20.2221 147.586 20.0516 147.586 19.8096C147.586 19.6666 147.536 19.5511 147.437 19.4631C147.349 19.3641 147.173 19.2651 146.909 19.1661C146.656 19.0671 146.282 18.9516 145.787 18.8196C145.391 18.7096 145.006 18.5611 144.632 18.3741C144.269 18.1871 143.967 17.9396 143.725 17.6316C143.494 17.3126 143.378 16.9166 143.378 16.4436C143.378 15.9596 143.521 15.5416 143.807 15.1896C144.093 14.8266 144.484 14.5461 144.979 14.3481C145.474 14.1391 146.029 14.0346 146.645 14.0346C147.305 14.0346 147.883 14.1116 148.378 14.2656C148.884 14.4086 149.34 14.6231 149.747 14.9091L148.741 16.4766C148.499 16.3116 148.213 16.1631 147.883 16.0311C147.553 15.8991 147.184 15.8331 146.777 15.8331C146.414 15.8331 146.15 15.8881 145.985 15.9981C145.82 16.0971 145.738 16.2346 145.738 16.4106C145.738 16.6636 145.908 16.8506 146.249 16.9716C146.601 17.0926 147.063 17.2301 147.635 17.3841C148.416 17.5931 148.988 17.8956 149.351 18.2916C149.714 18.6766 149.896 19.1881 149.896 19.8261C149.896 20.3871 149.731 20.8546 149.401 21.2286C149.071 21.5916 148.642 21.8611 148.114 22.0371C147.597 22.2131 147.047 22.3011 146.464 22.3011C145.771 22.3011 145.116 22.2076 144.5 22.0206C143.884 21.8226 143.384 21.5366 142.999 21.1626Z" fill="#002855"/>
<path d="M157.3 11.0369L162.8 16.5369L157.3 22.0369" stroke="#002855" stroke-width="2.3" stroke-linecap="round"/>
</svg>
