<svg width="241" height="144" viewBox="0 0 241 144" fill="none" xmlns="http://www.w3.org/2000/svg">
<path d="M156.993 4.60089C156.993 2.55645 158.65 0.899099 160.695 0.899099C162.739 0.899099 164.396 2.55645 164.396 4.60089L160.695 4.60089L156.993 4.60089ZM164.396 139.543L164.396 143.245L156.993 143.245L156.993 139.543L160.695 139.543L164.396 139.543ZM160.695 4.60089L164.396 4.60089L164.396 139.543L160.695 139.543L156.993 139.543L156.993 4.60089L160.695 4.60089Z" fill="white"/>
<path d="M232.784 48.757C232.784 46.7125 234.442 45.0552 236.486 45.0552C238.531 45.0552 240.188 46.7125 240.188 48.757L236.486 48.757L232.784 48.757ZM240.188 139.543L240.188 143.245L232.784 143.245L232.784 139.543L236.486 139.543L240.188 139.543ZM236.486 48.757L240.188 48.757L240.188 139.543L236.486 139.543L232.784 139.543L232.784 48.757L236.486 48.757Z" fill="white"/>
<path d="M76.1979 4.60089C76.1979 2.55645 77.8552 0.899099 79.8997 0.899099C81.9441 0.899099 83.6015 2.55645 83.6015 4.60089L79.8997 4.60089L76.1979 4.60089ZM83.6014 139.543L83.6014 143.245L76.1979 143.245L76.1979 139.543L79.8997 139.543L83.6014 139.543ZM79.8997 4.60089L83.6015 4.60089L83.6014 139.543L79.8997 139.543L76.1979 139.543L76.1979 4.60089L79.8997 4.60089Z" fill="white"/>
<path d="M0.298208 48.757C0.298208 46.7125 1.95556 45.0552 4 45.0552C6.04444 45.0552 7.70179 46.7125 7.70179 48.757L4 48.757L0.298208 48.757ZM7.70179 139.543L7.70179 143.245L0.298203 143.245L0.298203 139.543L4 139.543L7.70179 139.543ZM4 48.757L7.70179 48.757L7.70179 139.543L4 139.543L0.298203 139.543L0.298208 48.757L4 48.757Z" fill="white"/>
</svg>
