<svg width="640" height="70" viewBox="0 0 640 70" fill="none" xmlns="http://www.w3.org/2000/svg">
<g clip-path="url(#clip0_7738_28731)">
<path d="M510.285 7.08035L510.306 7.0462L489.758 42.8628C489.475 43.3637 489.33 43.9214 489.33 44.486C489.33 46.2958 490.803 47.7688 492.612 47.7688H533.863C535.673 47.7688 537.146 46.2958 537.146 44.486C537.146 43.8736 536.977 43.2772 536.656 42.7604L536.684 42.8059L516.029 7.02799L516.045 7.05531C515.466 6.01038 514.365 5.36157 513.169 5.36157C511.974 5.36157 510.859 6.01949 510.283 7.08035" fill="white"/>
<path d="M531.382 37.7883C531.791 37.7883 532.126 38.123 532.126 38.5328C532.126 38.9425 531.791 39.2772 531.382 39.2772C530.972 39.2772 530.637 38.9425 530.637 38.5328C530.637 38.123 530.972 37.7883 531.382 37.7883ZM531.382 39.1133C531.678 39.1133 531.912 38.8765 531.912 38.5328C531.912 38.189 531.678 37.9522 531.382 37.9522C531.086 37.9522 530.851 38.189 530.851 38.5328C530.851 38.8765 531.083 39.1133 531.382 39.1133ZM531.083 38.1162H531.395C531.605 38.1162 531.725 38.1776 531.725 38.3643C531.725 38.5145 531.634 38.5737 531.507 38.5851L531.725 38.9448H531.543L531.345 38.5942H531.261V38.9448H531.083V38.1162ZM531.407 38.4554C531.491 38.4554 531.55 38.4417 531.55 38.3461C531.55 38.2618 531.459 38.2505 531.388 38.2505H531.263V38.4554H531.407Z" fill="#007A53"/>
<path d="M530.726 36.0856L514.296 7.68137C514.055 7.24655 513.593 6.95288 513.062 6.95288C512.532 6.95288 512.063 7.25111 511.822 7.69048L500.259 27.8628C503.918 28.0677 505.684 26.4263 507.394 24.835C508.915 23.4236 510.483 21.962 513.103 21.962C516.484 21.962 518.212 25.1082 518.285 25.2516C518.519 25.7229 518.328 26.3011 517.857 26.5379C517.383 26.7746 516.828 26.5879 516.566 26.1167C516.466 25.9391 515.191 23.8834 513.101 23.8834C511.239 23.8834 510.119 24.9238 508.703 26.2419C506.841 27.9743 504.086 29.6931 499.499 29.1832L495.517 36.1312C495.401 36.336 495.337 36.5728 495.337 36.8232C495.337 37.6018 495.968 38.2324 496.747 38.2324H513.295C513.103 37.9638 511.111 35.1522 511.111 35.1522C510.274 33.8569 510.963 32.7824 511.189 32.4409L513.595 28.5845C513.732 28.3659 513.946 28.2134 514.194 28.1565C514.444 28.0996 514.702 28.1405 514.92 28.2771C515.369 28.5594 515.507 29.1536 515.225 29.6021L512.796 33.4949C512.621 33.7613 512.573 33.8592 512.746 34.1346C513.204 34.8677 515.425 38.1641 515.471 38.2324H529.529C530.307 38.2324 530.938 37.6018 530.938 36.8232C530.938 36.5523 530.86 36.2973 530.728 36.0833M524.097 28.3295C523.837 28.5981 523.516 28.6596 523.211 28.4934C522.949 28.35 522.405 28.1109 521.704 28.1109C521.003 28.1109 519.997 28.3318 519.284 29.1786C519.284 29.1786 515.967 33.3515 515.965 33.3515C515.913 33.4266 515.706 33.5746 515.466 33.586C515.284 33.5974 515.12 33.5245 514.988 33.3788C514.868 33.2422 514.82 33.0874 514.82 32.944C514.82 32.8006 514.863 32.6731 514.922 32.5707C516.388 30.0847 517.112 28.8576 517.115 28.8531C518.308 26.9067 519.808 26.4013 521.133 26.3535C521.014 25.9255 520.504 24.0997 520.504 24.0951C520.454 23.8948 520.379 23.5465 520.707 23.3416C521.103 23.0889 521.433 23.3211 521.558 23.526L524.174 27.4986C524.293 27.6807 524.32 28.0905 524.097 28.3249" fill="#007A53"/>
<path d="M521.558 23.5304C521.431 23.3233 521.103 23.0933 520.707 23.346C520.381 23.5532 520.454 23.8992 520.504 24.0996C520.504 24.1018 521.014 25.9276 521.133 26.3579C519.805 26.4057 518.305 26.9111 517.115 28.8575C517.115 28.8621 516.388 30.0891 514.922 32.5751C514.863 32.6753 514.82 32.8073 514.82 32.9484C514.82 33.0896 514.865 33.2467 514.988 33.3833C515.118 33.529 515.282 33.5995 515.466 33.5904C515.708 33.579 515.913 33.4288 515.965 33.3559L519.284 29.1831C519.997 28.3362 520.966 28.1154 521.704 28.1154C522.442 28.1154 522.949 28.3544 523.211 28.4978C523.516 28.664 523.837 28.6025 524.097 28.3339C524.322 28.0994 524.292 27.6874 524.174 27.5075L521.558 23.535V23.5304Z" fill="#FFA400"/>
<path d="M508.705 26.2464C510.121 24.9283 511.239 23.8879 513.103 23.8879C515.193 23.8879 516.468 25.9436 516.568 26.1212C516.83 26.5925 517.386 26.7791 517.859 26.5424C518.33 26.3033 518.522 25.7251 518.287 25.2561C518.214 25.1127 516.484 21.9666 513.106 21.9666C510.488 21.9666 508.917 23.4281 507.396 24.8395C505.686 26.4308 503.92 28.0722 500.262 27.8673L499.503 29.19C504.091 29.6999 506.845 27.9811 508.707 26.2487" fill="#FFA400"/>
<path d="M512.796 33.4993L515.225 29.6065C515.507 29.158 515.368 28.5638 514.92 28.2815C514.701 28.1449 514.444 28.1017 514.194 28.1609C513.946 28.2178 513.732 28.3703 513.595 28.5889L511.189 32.4453C510.963 32.7868 510.274 33.8613 511.111 35.1567C511.111 35.1567 513.103 37.9704 513.295 38.2368H515.469C515.423 38.1708 513.201 34.8721 512.744 34.139C512.573 33.8636 512.618 33.7657 512.794 33.4993" fill="#FFA400"/>
<path d="M494.472 39.8328H495.394L496.483 42.6557H495.656L495.447 42.0524H494.386L494.163 42.6557H493.398L494.47 39.8328H494.472ZM494.932 40.4156H494.923L494.559 41.5197H495.267L494.932 40.4156Z" fill="#007A53"/>
<path d="M499.132 41.5832C499.132 42.355 498.631 42.7033 497.894 42.7033C497.156 42.7033 496.655 42.355 496.655 41.5832V39.8303H497.409V41.4558C497.409 41.8268 497.509 42.1433 497.894 42.1433C498.278 42.1433 498.379 41.8268 498.379 41.4558V39.8303H499.132V41.5832Z" fill="#007A53"/>
<path d="M499.545 41.9591C499.738 42.0638 500.009 42.1457 500.321 42.1457C500.56 42.1457 500.785 42.0979 500.785 41.8703C500.785 41.3444 499.451 41.6768 499.451 40.6478C499.451 39.9671 500.114 39.7827 500.68 39.7827C500.951 39.7827 501.218 39.8237 501.409 39.8874L501.361 40.4702C501.168 40.3814 500.949 40.3405 500.735 40.3405C500.544 40.3405 500.23 40.3564 500.23 40.6045C500.23 41.0621 501.564 40.7548 501.564 41.7747C501.564 42.5077 500.949 42.7058 500.321 42.7058C500.057 42.7058 499.731 42.6648 499.478 42.5851L499.542 41.9614L499.545 41.9591Z" fill="#007A53"/>
<path d="M502.413 40.3905H501.716V39.8328H503.861V40.3905H503.164V42.6557H502.411V40.3905H502.413Z" fill="#007A53"/>
<path d="M504.157 39.8328H505.5C506.001 39.8328 506.411 40.0604 506.411 40.5453C506.411 40.9209 506.233 41.1714 505.869 41.2579V41.267C506.112 41.3307 506.128 41.547 506.269 41.8907L506.545 42.6602H505.759L505.598 42.1503C505.443 41.6654 505.347 41.5424 505.067 41.5424H504.91V42.6579H504.157V39.835V39.8328ZM504.908 41.0052H505.106C505.35 41.0052 505.657 40.9961 505.657 40.6774C505.657 40.4133 505.393 40.3655 505.106 40.3655H504.908V41.0052Z" fill="#007A53"/>
<path d="M507.717 39.8328H508.639L509.727 42.6557H508.901L508.691 42.0524H507.631L507.407 42.6557H506.643L507.715 39.8328H507.717ZM508.177 40.4156H508.168L507.804 41.5197H508.512L508.177 40.4156Z" fill="#007A53"/>
<path d="M509.941 39.8328H510.695V42.0979H511.861V42.6557H509.944V39.8328H509.941Z" fill="#007A53"/>
<path d="M512.147 39.8328H512.901V42.6557H512.147V39.8328Z" fill="#007A53"/>
<path d="M514.141 39.8328H515.063L516.152 42.6557H515.325L515.116 42.0524H514.055L513.832 42.6557H513.067L514.139 39.8328H514.141ZM514.601 40.4156H514.592L514.228 41.5197H514.936L514.601 40.4156Z" fill="#007A53"/>
<path d="M516.297 39.8328H517.256L518.21 41.7496H518.219L518.207 39.8328H518.895V42.6557H517.962L516.973 40.7252H516.964L516.989 42.6557H516.297V39.8328Z" fill="#007A53"/>
<path d="M520.732 39.8328H521.918L522.517 41.7109H522.526L523.152 39.8328H524.293V42.6557H523.555L523.567 40.4861H523.557L522.838 42.6557H522.146L521.458 40.4861H521.449L521.465 42.6557H520.73V39.8328H520.732Z" fill="#007A53"/>
<path d="M525.558 39.8328H526.48L527.569 42.6557H526.742L526.533 42.0524H525.472L525.249 42.6557H524.484L525.556 39.8328H525.558ZM526.018 40.4156H526.009L525.645 41.5197H526.353L526.018 40.4156Z" fill="#007A53"/>
<path d="M527.782 39.8328H528.809C529.792 39.8328 530.48 40.1401 530.48 41.2328C530.48 42.3256 529.772 42.6579 528.809 42.6579H527.782V39.835V39.8328ZM528.536 42.0979H528.827C529.389 42.0979 529.706 41.8065 529.706 41.2442C529.706 40.6819 529.378 40.3905 528.827 40.3905H528.536V42.0979Z" fill="#007A53"/>
<path d="M530.828 39.8328H532.818V40.3677H531.58V40.9505H532.75V41.4855H531.58V42.1252H532.861V42.6602H530.826V39.8373L530.828 39.8328Z" fill="#007A53"/>
<path d="M501.443 43.302H502.365L503.453 46.1249H502.627L502.418 45.5216H501.357L501.134 46.1249H500.369L501.441 43.302H501.443ZM501.903 43.8848H501.894L501.53 44.9889H502.238L501.903 43.8848Z" fill="#007A53"/>
<path d="M503.679 43.302H504.637L505.591 45.2188H505.6L505.589 43.302H506.276V46.1249H505.34L504.352 44.1944H504.343L504.368 46.1249H503.676V43.302H503.679Z" fill="#007A53"/>
<path d="M506.734 43.302H507.761C508.744 43.302 509.432 43.6093 509.432 44.7021C509.432 45.7948 508.724 46.1272 507.761 46.1272H506.734V43.3043V43.302ZM507.485 45.5671H507.777C508.339 45.5671 508.655 45.2758 508.655 44.7134C508.655 44.1511 508.327 43.8598 507.777 43.8598H507.485V45.5671Z" fill="#007A53"/>
<path d="M512.268 43.2544C513.199 43.2544 513.684 43.8076 513.684 44.7159C513.684 45.6243 513.19 46.1752 512.268 46.1752C511.346 46.1752 510.852 45.6129 510.852 44.7159C510.852 43.819 511.337 43.2544 512.268 43.2544ZM512.268 45.6174C512.726 45.6174 512.908 45.1803 512.908 44.7159C512.908 44.2265 512.726 43.8144 512.268 43.8144C511.81 43.8144 511.628 44.2265 511.628 44.7159C511.628 45.2054 511.81 45.6174 512.268 45.6174Z" fill="#007A53"/>
<path d="M513.632 43.302H514.401L514.766 45.4715H514.775L515.155 43.302H516.109L516.505 45.4715H516.514L516.883 43.302H517.616L516.985 46.1249H516.018L515.617 43.9554H515.608L515.237 46.1249H514.262L513.636 43.302H513.632Z" fill="#007A53"/>
<path d="M517.839 43.302H518.797L519.751 45.2188H519.758L519.746 43.302H520.434V46.1249H519.498L518.513 44.1944H518.503L518.528 46.1249H517.836V43.302H517.839Z" fill="#007A53"/>
<path d="M520.873 43.302H522.865V43.837H521.627V44.4198H522.794V44.9548H521.627V45.5945H522.908V46.1295H520.873V43.3066V43.302Z" fill="#007A53"/>
<path d="M523.202 43.302H524.229C525.212 43.302 525.9 43.6093 525.9 44.7021C525.9 45.7948 525.192 46.1272 524.229 46.1272H523.202V43.3043V43.302ZM523.956 45.5671H524.247C524.809 45.5671 525.126 45.2758 525.126 44.7134C525.126 44.1511 524.798 43.8598 524.247 43.8598H523.956V45.5671Z" fill="#007A53"/>
</g>
<line x1="551.789" y1="9.75933e-09" x2="551.789" y2="53.5842" stroke="white" stroke-width="0.446535"/>
<path d="M620.499 28.5052H621.96V47.7434H620.499V28.5052ZM615.613 38.1185V41.6619C615.613 42.2732 615.515 42.8845 615.32 43.4761C615.126 44.0668 614.837 44.6057 614.459 45.0776C614.082 45.5476 613.605 45.931 613.045 46.217C612.486 46.5021 611.828 46.6468 611.091 46.6468C610.519 46.6468 609.953 46.5441 609.41 46.3412C608.87 46.1401 608.387 45.8041 607.973 45.3439C607.559 44.8827 607.223 44.2732 606.973 43.5324C606.724 42.7897 606.596 41.8657 606.596 40.7852C606.596 39.7977 606.718 38.9308 606.959 38.2069C607.2 37.4849 607.527 36.8798 607.932 36.4089C608.336 35.9406 608.806 35.5858 609.329 35.3552C609.854 35.1255 610.419 35.0085 611.005 35.0085C611.962 35.0085 612.839 35.2936 613.613 35.8566C614.386 36.4187 615.059 37.1801 615.613 38.1185H615.613ZM615.644 36.433C615.475 36.1577 615.271 35.8816 615.036 35.609C614.74 35.265 614.384 34.9459 613.975 34.6617C613.566 34.3757 613.1 34.1389 612.587 33.9584C612.071 33.777 611.493 33.6858 610.864 33.6858C610.084 33.6858 609.341 33.8458 608.656 34.1604C607.971 34.4749 607.358 34.945 606.835 35.5536C606.312 36.1631 605.894 36.9147 605.591 37.7878C605.288 38.6609 605.134 39.669 605.134 40.7861C605.134 42.0542 605.283 43.1526 605.576 44.0525C605.87 44.956 606.283 45.7085 606.807 46.2903C607.331 46.873 607.96 47.3037 608.675 47.5709C609.387 47.8372 610.171 47.9722 611.005 47.9722C612.09 47.9722 613.041 47.7005 613.832 47.1661C614.541 46.6862 615.139 46.0526 615.612 45.2786V47.0142C615.612 47.9427 615.504 48.7443 615.291 49.394C615.079 50.0384 614.781 50.5665 614.406 50.9624C614.032 51.3565 613.572 51.6434 613.041 51.8186C612.505 51.9946 611.896 52.084 611.231 52.084C610.358 52.084 609.543 51.9803 608.81 51.7757C608.074 51.5701 607.438 51.3244 606.92 51.0464L606.834 51L606.444 52.2046L606.504 52.2359C607.032 52.5201 607.707 52.7882 608.511 53.034C609.317 53.2806 610.212 53.4057 611.175 53.4057C613.016 53.4057 614.474 52.874 615.513 51.8248C616.549 50.7756 617.075 49.1661 617.075 47.041V33.9119H615.961L615.643 36.4339L615.644 36.433ZM601.605 40.6958V42.1427C601.605 42.695 601.493 43.2473 601.273 43.7808C601.051 44.3161 600.729 44.8077 600.315 45.242C599.9 45.6754 599.382 46.0311 598.774 46.2992C598.166 46.5673 597.455 46.7023 596.659 46.7023C596.255 46.7023 595.863 46.6469 595.496 46.5369C595.131 46.4279 594.809 46.2563 594.536 46.0284C594.264 45.8014 594.048 45.5119 593.894 45.166C593.74 44.8202 593.661 44.4028 593.661 43.9256C593.661 42.8076 594.025 41.9827 594.743 41.4733C595.469 40.9568 596.684 40.6958 598.353 40.6958H601.605ZM598.014 33.6822C597.051 33.6822 596.16 33.802 595.364 34.0397C594.57 34.2765 593.909 34.5509 593.397 34.8539L593.341 34.8878L593.702 36.0067L593.789 35.9585C594.327 35.6617 594.944 35.416 595.62 35.2301C596.298 35.0442 597.105 34.9495 598.014 34.9495C599.173 34.9495 600.073 35.2194 600.686 35.7502C601.295 36.2784 601.604 37.2203 601.604 38.5465V39.4277H598.352C596.366 39.4277 594.84 39.8048 593.813 40.5475C592.778 41.2955 592.255 42.4323 592.255 43.9247C592.255 44.5753 592.366 45.158 592.586 45.6558C592.806 46.1544 593.117 46.5825 593.51 46.9293C593.902 47.2742 594.373 47.537 594.909 47.7103C595.44 47.8828 596.02 47.9695 596.628 47.9695C597.804 47.9695 598.836 47.7085 599.693 47.1929C600.482 46.7183 601.135 46.0552 601.634 45.2232L601.952 47.7425H603.037V38.5465C603.037 37.0604 602.616 35.8655 601.786 34.9951C600.956 34.1237 599.686 33.6822 598.014 33.6822Z" fill="white"/>
<path d="M571.179 10.7781C570.189 11.5744 570.029 13.0374 570.823 14.0285L583.286 29.5928C584.079 30.5848 585.539 30.7456 586.529 29.9494C587.519 29.1531 587.679 27.6901 586.884 26.699L574.423 11.1347C573.968 10.5672 573.297 10.2723 572.619 10.2723C572.113 10.2723 571.602 10.4377 571.18 10.7781" fill="white"/>
<path d="M566.065 36.7065C565.856 37.9612 566.709 39.1587 567.961 39.3678L582.386 41.779C583.638 41.9881 584.833 41.1328 585.042 39.8781C585.251 38.6234 584.397 37.4259 583.145 37.2167L568.721 34.8056C568.594 34.7842 568.467 34.7743 568.342 34.7743C567.237 34.7743 566.253 35.5786 566.065 36.7056" fill="white"/>
<path d="M589.531 0.193415C588.27 0.340872 587.36 1.49372 587.506 2.75738L589.803 22.5792C589.951 23.8428 591.102 24.7553 592.362 24.6087C593.622 24.4613 594.533 23.3084 594.387 22.0448L592.089 2.22385C591.952 1.04956 590.949 0.178223 589.796 0.178223C589.708 0.178223 589.62 0.183585 589.531 0.193415" fill="white"/>
<path d="M603.307 6.85401L597.85 21.8365C597.416 23.0314 598.034 24.3656 599.226 24.8009C600.419 25.2361 601.751 24.6168 602.185 23.421L607.642 8.4385C608.077 7.24365 607.458 5.90939 606.266 5.47416C606.006 5.37943 605.742 5.33475 605.48 5.33475C604.537 5.33475 603.648 5.91832 603.307 6.85401Z" fill="white"/>
<path d="M612.112 17.7408L605.81 24.7079C604.958 25.6499 605.03 27.1191 605.97 27.9734C606.91 28.8269 608.376 28.7554 609.228 27.8126L615.53 20.8454C616.382 19.9035 616.311 18.4343 615.37 17.5799C614.931 17.1805 614.376 16.9839 613.823 16.9839C613.193 16.9839 612.565 17.2386 612.112 17.7399" fill="white"/>
<path d="M640 69.213L0 47.7793V69.213H640Z" fill="#F9DD3E"/>
<path d="M364.187 69.2131H640L0 57.4246L0 69.2131H364.187Z" fill="url(#paint0_linear_7738_28731)"/>
<defs>
<linearGradient id="paint0_linear_7738_28731" x1="-3.82529" y1="69.399" x2="799.285" y2="59.3912" gradientUnits="userSpaceOnUse">
<stop offset="0.238363" stop-color="#00CEED"/>
<stop offset="0.473958" stop-color="#0076BF"/>
<stop offset="0.733675" stop-color="#00168D"/>
</linearGradient>
<clipPath id="clip0_7738_28731">
<rect width="48.2781" height="42.778" fill="white" transform="translate(489.051 5.13525)"/>
</clipPath>
</defs>
</svg>
