<svg width="128" height="69" viewBox="0 0 128 69" fill="none" xmlns="http://www.w3.org/2000/svg">
  <defs>
    <clipPath id="clippath">
      <rect x="85.3" y="0" width="42.4" height="49.8" fill="none" stroke-width="0"/>
    </clipPath>
    <clipPath id="clippath-1">
      <rect x="85.3" y="-.2" width="42.4" height="50.3" fill="none" stroke-width="0"/>
    </clipPath>
  </defs>
  <path d="M59.1,3.9v8.1h-11.7V.2h8.1c2,0,3.7,1.6,3.7,3.7Z" fill="#fff" stroke-width="0"/>
  <path d="M59.1,23.6h-11.7v11.7h11.7v-11.7Z" fill="#fff" stroke-width="0"/>
  <path d="M35.7.2h-11.7v11.7h11.7V.2Z" fill="#ffd000" stroke-width="0"/>
  <path d="M12.2,9.6V.2H.5v31.5c0,2,1.6,3.7,3.7,3.7h8.1v-9.4c0-1.3,1-2.3,2.3-2.3h9.4v-11.7h-9.4c-1.3,0-2.3-1-2.3-2.3Z" fill="#fff" stroke-width="0"/>
  <path d="M35.7,23.6h-11.7v11.7h11.7v-11.7Z" fill="#fff" stroke-width="0"/>
  <path d="M13.3,48.2c-.8,0-1.5-.3-2-.8-.5-.5-.8-1.2-.8-2s.3-1.5.8-2.1c.5-.5,1.2-.8,2-.8s1.4.3,2,.8c.5.5.8,1.2.8,2s-.3,1.5-.8,2c-.5.6-1.2.8-2,.8ZM16.5,42.3c-.9-.8-1.9-1.2-3.2-1.2s-2.3.4-3.2,1.2c-.8.8-1.3,1.9-1.3,3.1s.4,2.2,1.3,3c.8.8,1.9,1.2,3.1,1.2s2.4-.4,3.2-1.2c.9-.8,1.3-1.8,1.3-3s-.4-2.2-1.3-3.1ZM51.3,41.2v4.7c0,1.3-.5,2.2-2,2.2s-2-.9-2-2.2v-4.7h-1.6v5c0,2.5,1.7,3.4,3.6,3.4s3.6-1,3.6-3.4v-5h-1.6ZM41.5,41.2v6.9h3.5v1.4h-5.1v-8.3h1.6ZM35.7,44.9c.8,0,1.5-.4,1.5-1.2s-.5-1.2-1.5-1.2h-1v2.3h1ZM36.2,41.2c1.7,0,2.6,1.1,2.6,2.6s-1.1,2.6-2.7,2.6h-1.4v3.1h-1.6v-8.3h3ZM32,41.2v1.4h-2.7v6.9h-1.6v-6.9h-2.7v-1.4h7.1ZM56.7,41.1c.8,0,1.6.2,2.3.6v1.6c-.9-.5-1.4-.8-2.3-.8s-1.2.3-1.2.7c0,.3.2.6.6.9.1,0,.6.3,1.3.7.7.3,1.2.7,1.5,1.1.3.4.5.9.5,1.4s-.3,1.3-.8,1.7c-.5.4-1.2.7-2,.7s-1,0-1.4-.2c-.4-.1-.8-.3-1.3-.6v-1.8c.9.7,1.7,1.2,2.5,1.2s1.2-.3,1.2-.8-.2-.6-.6-.9c-.3-.2-.8-.4-1.3-.7-.6-.3-1.1-.7-1.5-1.1-.3-.4-.5-.8-.5-1.4s.3-1.3.8-1.7c.5-.4,1.2-.6,2.1-.6M21.5,41.1c.8,0,1.6.2,2.3.6v1.6c-.9-.5-1.4-.8-2.3-.8s-1.2.3-1.2.7c0,.3.2.6.6.9.1,0,.6.3,1.3.7.7.3,1.2.7,1.5,1.1.3.4.4.9.4,1.4s-.3,1.3-.8,1.7c-.5.4-1.2.7-2,.7s-1,0-1.4-.2c-.4-.1-.8-.3-1.3-.6v-1.8c.9.7,1.7,1.2,2.5,1.2s1.2-.3,1.2-.8-.1-.6-.6-.9c-.3-.2-.8-.4-1.3-.7-.6-.3-1.1-.7-1.5-1.1-.3-.4-.5-.8-.5-1.4s.3-1.3.8-1.7c.5-.4,1.2-.6,2.1-.6M2.1,41.2v3.3h3.9v-3.3h1.6v8.3h-1.6v-3.3h-3.9v3.3H.5v-8.3h1.6Z" fill="#fff" stroke-width="0"/>
  <line x1="72.8" y1="0" x2="72.8" y2="49.9" fill="none" stroke="#fff" stroke-width=".4"/>
  <g clip-path="url(#clippath)">
    <g clip-path="url(#clippath-1)">
      <g>
        <path d="M119.5,40.8c0-.3,0-.4-.4-.4h-.7l-.3,1.5h.7c.3,0,.5-.2.6-.4,0-.2,0-.3-.2-.4h0c.2,0,.3-.2.3-.3h0ZM119,41.5c0,.1-.1.2-.2.2h-.3v-.3h.4c.1,0,.2,0,.2.2h0ZM119.1,40.8c0,.1,0,.2-.2.2h-.3v-.3h.3c.1,0,.2,0,.2.2h0Z" fill="#fff" stroke-width="0"/>
        <path d="M119.5,31.5c-4.1,4.9-14.4,6.2-14.4,6.2,0,0,6.3-5.6,7.3-12.2l-6.3-.9v7l-7.2,8.2h8c2.4,0,9.5-.3,15.2-5.7l-2.8-2.5Z" fill="#fff" stroke-width="0"/>
        <path d="M116.5,40.7v-.3c0,0-1,0-1,0l-.3,1.5h1.1v-.3c0,0-.7,0-.7,0v-.4h.7v-.3c0,0-.5,0-.5,0v-.3h.8Z" fill="#fff" stroke-width="0"/>
        <path d="M114.4,41.9h.4l.3-1.5h-.5l-.5.8h0l-.2-.8h-.5l-.3,1.5h.3l.2-.8v-.2h0l.2,1h.1l.6-1h0v.2c0,0-.2.8-.2.8Z" fill="#fff" stroke-width="0"/>
        <path d="M117,40.4l-.3,1.5h1v-.3c0,0-.6,0-.6,0l.3-1.2h-.4Z" fill="#fff" stroke-width="0"/>
        <path d="M116.4,39.3c4-.6,6.4-2.2,8-3.3l-1-1c-1,.9-3.2,2.8-7,4.3Z" fill="#fff" stroke-width="0"/>
        <path d="M119.8,41.1c0,.4,0,.8.5.8s.8-.4.9-.8c0-.4,0-.8-.5-.8s-.8.4-.9.8h0ZM120.8,41.1c0,.3-.2.5-.4.5s-.3-.2-.2-.5c0-.3.2-.5.4-.5s.3.2.2.5h0Z" fill="#fff" stroke-width="0"/>
        <path d="M124.5,40.9c0-.3-.1-.5-.4-.5h-.7l-.3,1.5h.4l.3-1.2h.3c.1,0,.2,0,.2.2,0,.1-.1.2-.3.2h-.2l.2.8h.4v-.6c0,0,.2-.2.3-.4h0Z" fill="#fff" stroke-width="0"/>
        <path d="M125,41.3v-.3h0l.4.9h.3l.3-1.5h-.3v.6c-.1,0-.2.4-.2.4h0l-.4-1h-.3l-.3,1.5h.3v-.6Z" fill="#fff" stroke-width="0"/>
        <path d="M104.3,26.7l-6-5-1.1.9c1.7,3.1,5.3,5.4,5.3,5.4v2.7s-5.5,8.9-5.5,8.9l7.3-8.6v-4.4s0,0,0,0Z" fill="#fff" stroke-width="0"/>
        <path d="M122,40.4h-.4l-.2,1c0,.4.1.6.5.6s.7-.2.8-.6l.2-1h-.4l-.2,1c0,.1,0,.3-.3.3s-.2-.2-.2-.3l.2-1Z" fill="#fff" stroke-width="0"/>
        <path d="M111.1,43.6c-.4-.4-.9-.7-1.8-.8-2.7-.2-4.2,1.7-4.6,4-.3,1.7.3,3,2.4,3.1,1.1,0,2-.1,2.6-.6,1.1-.7,1.7-2,1.9-3.4.2-1,0-1.8-.6-2.3h0ZM109.6,46c-.2,1.5-.9,2.4-2,2.3-.7,0-1-.6-.8-1.5.2-1.5.9-2.4,2-2.3.7,0,1,.5.8,1.5h0Z" fill="#fff" stroke-width="0"/>
        <path d="M105.1,44.5l.3-1.6h-5.5l-.3,1.6h1.8l-1.1,5.3h2l.8-3.8-.3-1.5h2.2Z" fill="#fff" stroke-width="0"/>
        <path d="M118.2,44.9c0-1.3-.7-2-2.2-2h-3l-1.5,6.9h2l.8-3.9-.3-1.6h1.4c.6,0,.9.2.9.7,0,.7-.6.8-1.2.8h-.8l.8,3.9h2.1l-.6-2.7c1-.5,1.4-1.2,1.5-2.2h0Z" fill="#fff" stroke-width="0"/>
        <path d="M94.7,43.5c-.5.4-.8,1-.9,1.8-.1,1.7,1.8,1.9,2.6,2.3.2.1.4.2.3.4,0,.2-.2.4-.3.5-.2.1-.8.1-1,.1h-2l-.3,1.6h2.5c.9,0,1.8-.2,2.5-.7.5-.4.9-1.2.9-2,.2-2.2-3-1.8-3-2.5,0-.2,0-.3.2-.4.2,0,.5-.1.8-.1h2l.3-1.6h-2.4c-.8,0-1.7.2-2.2.6h0Z" fill="#fff" stroke-width="0"/>
        <path d="M122.8,46h0l-.7-3.1h-2.7l-1.5,6.9h2l.7-3.4v-.6h.1l.8,3.7h.6l2.4-3.7h0l-.2.5-.7,3.5h2l1.5-6.9h-2.6l-1.8,3.1Z" fill="#fff" stroke-width="0"/>
        <path d="M101.2,29.6c-2.8-1.7-5.6-5.7-5.6-5.7,1.7,3.9,4.9,5.9,5.6,6.3v-.6s0,0,0,0Z" fill="#fff" stroke-width="0"/>
        <path d="M101,14.2l-15.7,16.5,15-12.2.5,1.7,5.3-5.7h0c0,0,.4.1.4,0,0-.2-.3-1.4-.4-1.8,0,0,0-.1-.1-.2-.6-.3-3.1-1.4-2.9-1.7.3-.3,2-2,2-2,0,0-1.7.8-3.2,1.9-3.5,2.6-5.4,4.9-6.1,6.1-.5.8-.9,2.2-.9,2.2l7-7.4s1.6.3,3.5,1.1l-3.9,3.5-.5-2.1h0Z" fill="#fff" stroke-width="0"/>
        <path d="M127.6,40.7v-.3c0,0-1,0-1,0l-.3,1.5h1.1v-.3c0,0-.7,0-.7,0v-.4h.7v-.3c0,0-.5,0-.5,0v-.3h.8Z" fill="#fff" stroke-width="0"/>
        <path d="M121.1,19.4c-.8.6-1.7,1.4-1.7,1.4l1.5,1.3v-2.8Z" fill="#fff" stroke-width="0"/>
        <path d="M121.4,19.1l.2,3.6.4.5-1.2.7-1.7-2.8s-2,1.9-3.3,4.8l-1.8-.3s-.4,3-2.6,6.6c0,0,0,0,0,0,2.7-2,3.7-4.7,3.7-4.7,0,0,2.4,2.2,2.6,2.4,0,0,.2.2.5.3.2.1.5.1.7.1.2,0,.4,0,.6-.2.4-.5.7-.9.7-.9l-.8-1,.2-.4,1.1.7.4-.4-1.7-1.1-1,.3.3-.6.7-.4,1.4,1,.4.3.3-.8-.6-.6v-.4s1.2.5,1.2.5l.4-.2.2-2.6h.9c0,0,.6-3.8.6-3.8,0,0-3.7-3.3-6.6-4.7,1,1.1,3.8,3.9,3.8,3.9h0Z" fill="#fff" stroke-width="0"/>
        <path d="M112.5,24.4c.9-6.7,4-9.7,4-9.7-3.2,2-4.2,7.1-4.5,9l-5.6-.9c-.8-1.2-1.7-2.6-3.1-3.7l-.3.4c1.3,1.2,2.5,2.8,3.2,3.8.3,0,6.3,1,6.4,1h0Z" fill="#fff" stroke-width="0"/>
        <path d="M109.7,10.2c0,.4,0,2.2,0,2.3,0,.1.5-.2.5-.4,0-.2,0-1.5,0-2L119.8-.2l-10.6,9.5c-.6-.3-1.3-.7-1.3-.7,0,0,1.6,1.4,1.7,1.4,0,0,0,0,0,.1h0Z" fill="#fff" stroke-width="0"/>
        <path d="M108.4,11c0,.4.2,2.3.2,2.4,0,.1.5-.2.5-.4,0-.2,0-1.9-.1-2.3,0,0,0,0,0-.1,0,0-2-1.1-2-1.1,0,0,1.5,1.3,1.5,1.3,0,0,0,0,0,.1Z" fill="#fff" stroke-width="0"/>
        <path d="M106.9,11.7c0,0,0,.1.1.2,0,.5.3,2.3.3,2.4,0,0,.5-.2.5-.4,0-.2-.1-1.7-.2-2.1,0,0,0-.1-.1-.2,0,0-2-1.3-2-1.3,0,0,1.4,1.4,1.4,1.4Z" fill="#fff" stroke-width="0"/>
      </g>
    </g>
  </g>
  <path d="M3.1,68.3c-.4,0-.7,0-1-.2-.3-.1-.6-.3-.8-.5-.2-.2-.4-.5-.5-.8-.1-.3-.2-.6-.2-1s0-.7.2-1c.1-.3.3-.6.5-.8.2-.2.5-.4.8-.5.3-.1.6-.2,1-.2s.7,0,1,.2c.3.1.6.3.8.5.2.2.4.5.5.8.1.3.2.6.2,1s0,.7-.2,1c-.1.3-.3.6-.5.8-.2.2-.5.4-.8.5-.3.1-.6.2-1,.2ZM3.1,67.3c.3,0,.5,0,.7-.2.2-.1.4-.3.5-.5.1-.2.2-.5.2-.7s0-.5-.2-.7c-.1-.2-.3-.4-.5-.5-.2-.1-.4-.2-.7-.2s-.5,0-.7.2c-.2.1-.4.3-.5.5-.1.2-.2.5-.2.7s0,.5.2.7c.1.2.3.4.5.5.2.1.4.2.7.2ZM6.3,68.2v-4.8h3.2v.9h-2.1v1.1h1.6v.9h-1.6v1.8h-1.1ZM10.2,68.2v-4.8h3.2v.9h-2.1v1.1h1.6v.9h-1.6v1.8h-1.1ZM14,68.2v-4.8h1.1v4.8h-1.1ZM19.6,66.6l.7.7c-.1.2-.3.3-.5.5-.2.2-.4.3-.7.4-.3,0-.5.1-.8.1-.5,0-.9-.1-1.3-.3-.4-.2-.7-.5-.9-.9-.2-.4-.3-.8-.3-1.3s0-.7.2-1c.1-.3.3-.6.5-.8.2-.2.5-.4.8-.5.3-.1.6-.2,1-.2s.8,0,1.2.2c.3.2.6.4.8.7l-.7.7c-.1-.2-.3-.4-.5-.5-.2-.1-.4-.2-.7-.2s-.5,0-.7.2c-.2.1-.4.3-.5.5-.1.2-.2.5-.2.8s0,.5.2.8c.1.2.3.4.5.5.2.1.4.2.7.2s.4,0,.6,0c.2,0,.3-.1.4-.2.1,0,.2-.2.3-.3ZM20.9,68.2v-4.8h1.1v4.8h-1.1ZM22.5,68.2l1.8-4.8h1.2l1.7,4.8h-1.2l-.4-1.1h-1.7l-.4,1.1h-1.1ZM24.2,66.2h1.2l-.6-1.8-.6,1.8ZM27.7,68.2v-4.8h1.1v3.8h2.3v1h-3.4ZM32.6,67.5l.7-.7c.1.1.3.3.5.4.2.1.5.2.7.2s.2,0,.3,0c.1,0,.2-.1.3-.2,0,0,.1-.2.1-.3,0-.2,0-.3-.3-.4-.2,0-.4-.2-.8-.3-.4,0-.7-.2-.9-.5-.2-.2-.4-.5-.4-.9s0-.5.2-.7c.1-.2.3-.4.6-.5.3-.1.6-.2,1-.2s.6,0,.8.1c.2,0,.4.2.5.3.1,0,.2.2.3.2l-.6.7c-.1,0-.2-.2-.4-.3-.2-.1-.4-.2-.6-.2s-.3,0-.4.1c-.1,0-.2.2-.2.3s0,.3.3.4c.2,0,.4.2.7.2.2,0,.5.1.7.3.2.1.4.3.5.5.1.2.2.5.2.8s0,.5-.2.8c-.2.2-.4.4-.7.5-.3.1-.6.2-.9.2s-.6,0-.8-.1c-.2,0-.5-.2-.6-.3-.2-.1-.3-.3-.5-.4ZM37.1,66.3v-3h1.1v2.8c0,.3,0,.6.2.7.1.2.4.3.7.3s.6,0,.7-.3c.1-.2.2-.4.2-.7v-2.8h1.1v3c0,.4,0,.7-.2,1-.2.3-.4.5-.7.7-.3.2-.6.2-1.1.2s-.8,0-1.1-.2c-.3-.2-.5-.4-.7-.7-.2-.3-.2-.6-.2-1ZM42,68.2v-4.8h1.7c.4,0,.7,0,1,.2.2.1.4.3.5.6.1.2.2.5.2.7s0,.6-.2.9c-.2.2-.4.4-.6.5-.2.1-.5.2-.8.2h-.7v1.7h-1ZM43.1,65.6h.6c.2,0,.4,0,.5-.2.1-.1.2-.3.2-.5s0-.4-.2-.5c-.1-.1-.3-.2-.5-.2h-.6v1.3ZM46.2,68.2v-4.8h3.3v.9h-2.2v.9h1.7v.9h-1.7v1h2.3v.9h-3.4ZM50.3,68.2v-4.8h1.8c.4,0,.7,0,.9.2.2.1.4.3.6.5.1.2.2.5.2.7s0,.6-.2.8c-.1.2-.3.4-.6.6l1.1,1.9h-1.2l-.9-1.7h-.6v1.7h-1ZM51.3,65.5h.7c.2,0,.4,0,.5-.2.1-.1.2-.3.2-.4s0-.3-.2-.5c-.1-.1-.3-.2-.5-.2h-.7v1.3ZM54.2,68.2l1.8-4.8h1.2l1.7,4.8h-1.2l-.4-1.1h-1.7l-.4,1.1h-1.1ZM56,66.2h1.2l-.6-1.8-.6,1.8ZM59.4,68.2v-4.8h1l2.1,3.1v-3.1h1.1v4.8h-1l-2.1-3.1v3.1h-1.1ZM64.5,68.2v-4.8h1l2.1,3.1v-3.1h1.1v4.8h-1l-2.1-3.1v3.1h-1.1ZM69.6,66.3v-3h1.1v2.8c0,.3,0,.6.2.7.1.2.4.3.7.3s.6,0,.7-.3c.1-.2.2-.4.2-.7v-2.8h1.1v3c0,.4,0,.7-.2,1-.2.3-.4.5-.7.7-.3.2-.6.2-1.1.2s-.8,0-1.1-.2c-.3-.2-.5-.4-.7-.7-.2-.3-.2-.6-.2-1ZM73.8,68.2l1.8-4.8h1.2l1.7,4.8h-1.2l-.4-1.1h-1.7l-.4,1.1h-1.1ZM75.6,66.2h1.2l-.6-1.8-.6,1.8ZM79.5,68.2v-3.8h-1.5v-.9h4.2v.9h-1.5v3.8h-1.1ZM82.7,68.2v-4.8h1.1v4.8h-1.1ZM87,68.3c-.4,0-.7,0-1-.2-.3-.1-.6-.3-.8-.5-.2-.2-.4-.5-.5-.8-.1-.3-.2-.6-.2-1s0-.7.2-1c.1-.3.3-.6.5-.8.2-.2.5-.4.8-.5.3-.1.6-.2,1-.2s.7,0,1,.2c.3.1.6.3.8.5.2.2.4.5.5.8.1.3.2.6.2,1s0,.7-.2,1c-.1.3-.3.6-.5.8-.2.2-.5.4-.8.5-.3.1-.6.2-1,.2ZM87,67.3c.3,0,.5,0,.7-.2.2-.1.4-.3.5-.5.1-.2.2-.5.2-.7s0-.5-.2-.7c-.1-.2-.3-.4-.5-.5-.2-.1-.4-.2-.7-.2s-.5,0-.7.2c-.2.1-.4.3-.5.5-.1.2-.2.5-.2.7s0,.5.2.7c.1.2.3.4.5.5.2.1.4.2.7.2ZM90.2,68.2v-4.8h1l2.1,3.1v-3.1h1.1v4.8h-1l-2.1-3.1v3.1h-1.1ZM96.6,68.2v-4.8h1.7c.4,0,.7,0,1,.2.2.1.4.3.5.6.1.2.2.5.2.7s0,.6-.2.9c-.2.2-.4.4-.6.5-.2.1-.5.2-.8.2h-.7v1.7h-1ZM97.7,65.6h.6c.2,0,.4,0,.5-.2.1-.1.2-.3.2-.5s0-.4-.2-.5c-.1-.1-.3-.2-.5-.2h-.6v1.3ZM99.7,68.2l1.8-4.8h1.2l1.7,4.8h-1.2l-.4-1.1h-1.7l-.4,1.1h-1.1ZM101.5,66.2h1.2l-.6-1.8-.6,1.8ZM104.9,68.2v-4.8h1.8c.4,0,.7,0,.9.2.2.1.4.3.6.5.1.2.2.5.2.7s0,.6-.2.8c-.1.2-.3.4-.6.6l1.1,1.9h-1.2l-.9-1.7h-.6v1.7h-1ZM106,65.5h.7c.2,0,.4,0,.5-.2.1-.1.2-.3.2-.4s0-.3-.2-.5c-.1-.1-.3-.2-.5-.2h-.7v1.3ZM110.4,68.2v-3.8h-1.5v-.9h4.2v.9h-1.5v3.8h-1.1ZM113.6,68.2v-4.8h1l2.1,3.1v-3.1h1.1v4.8h-1l-2.1-3.1v3.1h-1.1ZM118.7,68.2v-4.8h3.3v.9h-2.2v.9h1.7v.9h-1.7v1h2.3v.9h-3.4ZM122.8,68.2v-4.8h1.8c.4,0,.7,0,.9.2.2.1.4.3.6.5.1.2.2.5.2.7s0,.6-.2.8c-.1.2-.3.4-.6.6l1.1,1.9h-1.2l-.9-1.7h-.6v1.7h-1ZM123.9,65.5h.7c.2,0,.4,0,.5-.2.1-.1.2-.3.2-.4s0-.3-.2-.5c-.1-.1-.3-.2-.5-.2h-.7v1.3Z" fill="#fff" stroke-width="0"/>
</svg>