<svg width="113" height="126" viewBox="0 0 113 126" fill="none" xmlns="http://www.w3.org/2000/svg">

  <style>
    /* Animate the element */
    #iconshine {
      transform: translate(-100 100);
      animation: moveIt 2s forwards;
      animation-delay: 1s; /* wait 4 seconds before starting */
    }

    @keyframes moveIt {
      to {
        transform: translate(200px, -200px);
      }
    }
  </style>


  <defs>
    
    <clipPath id="circleClip">
      <circle cx="56" cy="56" r="55" />
    </clipPath>

    <radialGradient id="grad1" cx="50%" cy="50%" r="50%">
      <stop offset="64%" stop-color="#001329" stop-opacity="1"/>
      <stop offset="100%" stop-color="#001329" stop-opacity="0"/>
    </radialGradient>

    <linearGradient id="shine-gradient" x1="90.5" y1="-178.9" x2="90.5" y2="-240.2" gradientTransform="translate(-211.1 179.6) rotate(-90) scale(1 -1)" gradientUnits="userSpaceOnUse">
      <stop offset=".2" stop-color="#fff" stop-opacity="0"/>
      <stop offset=".3" stop-color="#fff" stop-opacity=".6"/>
      <stop offset=".4" stop-color="#fff"/>
      <stop offset=".6" stop-color="#fff" stop-opacity=".6" />
      <stop offset=".9" stop-color="#fff" stop-opacity="0"/>
    </linearGradient>

  </defs>


  <g id="Layer_2" data-name="Layer 2">
    <ellipse cx="60" cy="103" rx="54" ry="19" fill="url(#grad1)"/>
  </g>
  
  <path d="M109.8,55.1c0,30.2-24.5,54.8-54.8,54.7-30.2,0-54.8-24.5-54.7-54.8C.3,24.8,24.9.3,55.1.3c30.2,0,54.8,24.5,54.7,54.8Z" fill="#fff" stroke="#a39161" stroke-width=".6"/>
  <path d="M99.1,55.1c0,24.3-19.7,44-44,44S11,79.4,11,55.1,30.7,11.1,55,11.1s44,19.7,44,44Z" fill="#a39161" stroke-width="0"/>
  <path d="M17.6,63.4h72" fill="none" stroke="#fff" stroke-width=".6"/>
  <path d="M29.5,74l-.3,1.1h1.1v1.8h-3.8v-1.9h.7l2.6-7.6h2.6l2.6,7.6h.7v1.9h-4.4v-1.8h1.2l-.3-1.1h-2.7ZM31.8,72.5l-.3-.8c-.2-.6-.5-1.6-.6-2.1,0,.4-.4,1.5-.6,2.1l-.3.8h1.8Z" fill="#000104" stroke-width="0"/>
  <path d="M37.3,76.8l-1.6-7.5h-.7v-1.9h4.2v1.8h-1l.4,2.1c.2.9.3,1.9.4,2.6.1-.7.3-1.7.5-2.6l.6-2.5h2.1l.6,2.5c.2.9.4,2,.5,2.6,0-.7.3-1.7.4-2.6l.4-2.1h-1v-1.8h3.6v1.9h-.7l-1.6,7.5h-2.6l-.6-2.9c-.2-.8-.4-1.8-.4-2.2,0,.4-.2,1.4-.4,2.2l-.6,2.9h-2.5,0Z" fill="#000104" stroke-width="0"/>
  <path d="M49,74l-.3,1.1h1.1v1.8h-3.8v-1.9h.7l2.6-7.6h2.6l2.6,7.6h.7v1.9h-4.4v-1.8h1.2l-.3-1.1h-2.7ZM51.2,72.5l-.3-.8c-.2-.6-.5-1.6-.6-2.1,0,.4-.4,1.5-.6,2.1l-.3.8h1.8Z" fill="#000104" stroke-width="0"/>
  <path d="M56,76.8v-1.9h.7v-5.6h-.7v-1.9h4.9c2,0,3.1.4,3.1,2.9s-.3,2.3-1.4,2.7l1.3,2h.7v1.9h-3.4v-1.6l-1.2-1.9h-.8v1.7h.9v1.8h-4.1,0ZM59.1,71.7h1.6c.5,0,.8-.3.8-1.3s-.3-1.2-.8-1.2h-1.5v2.6Z" fill="#000104" stroke-width="0"/>
  <path d="M65.2,76.8v-1.9h.7v-5.6h-.7v-1.9h4.2c3.1,0,4,.5,4,4.7s-1,4.7-4,4.7-4,0-4.2,0h0ZM68.4,75.1h1.1c1.3,0,1.5-.6,1.5-2.6v-.8c0-2-.2-2.5-1.5-2.5h-1.1v5.9h0Z" fill="#000104" stroke-width="0"/>
  <path d="M77.9,76.9c-1.8,0-3.2-.2-3.6-.3v-3h2.3v1.6c.2,0,.9,0,1.3,0,1.3,0,1.5-.2,1.5-1s-.3-.9-1.7-1.1c-2.8-.5-3.4-.9-3.4-3.2s1-2.6,3.7-2.6,3.1.2,3.6.3v2.7h-2.3v-1.3c-.2,0-.9,0-1.3,0-.9,0-1.2.1-1.2.9s.3.9,1.6,1.1c2.8.5,3.5.9,3.5,3.1s-.8,2.8-4,2.8h0Z" fill="#000104" stroke-width="0"/>
  <path d="M39.3,36.9h-1.6l-1.6,14.4h1.6l-.2,1.7h-7.1l.2-1.7h1.5l1-9.1-4.1,8.5h-3.1l-2.2-8.5-1.1,9.1h1.5l-.2,1.7h-6l.2-1.7h1.6l1.6-14.4h-1.6l.2-1.7h5.7l3,10.8,5.2-10.8h5.7l-.2,1.7h0Z" fill="#000104" stroke-width="0"/>
  <path d="M44.3,53.4c-4,0-6-2.4-6-6s1.8-8.1,7.2-8.1,6,2.2,6,6-1.9,8.1-7.2,8.1h0ZM45.5,40.4c-1.6,0-2.9,1.9-2.9,8.9s.6,3,1.8,3,2.9-.9,2.9-8.9-.7-3-1.8-3h0Z" fill="#000104" stroke-width="0"/>
  <path d="M66.3,53.1h-6.3l1.1-9.5c.1-1.1,0-1.5-.7-1.5-1.4,0-2.8,2.4-3.1,4.6l-.7,6.4h-4.2l1.3-11.6h-1.6l.2-1.7h5.8l-.3,2.9c.6-1,2.1-3.3,4.9-3.3s3,1.5,2.8,3.5l-.9,8.5h2.1l-.2,1.7h0Z" fill="#000104" stroke-width="0"/>
  <path d="M70.9,47.2c-.1,1.7.3,4.4,3.6,4.4s2.7-.2,4.1-.9v1.8c-1.5.6-3.6,1-5.5,1-3.5,0-6.4-1.5-6.4-6.2s2.3-7.9,7-7.9,5.4,3.5,5.2,6.3l-8,1.5h0ZM73.7,40.4c-1.1,0-2.3.9-2.7,5.1l4.1-.8c.3-2.4.3-4.3-1.5-4.3Z" fill="#000104" stroke-width="0"/>
  <path d="M88.9,49.3c-1.6,2.6-4.2,8-5.2,11.2h-3.5l4.2-6.9-4.4-12.2h-1.4l.2-1.7h5.3l3.2,9.4c2.1-3,2.8-5.3,2.8-6.7s-.1-1.6-1.3-2.8l2.2-2.9c1.6,1.4,2.5,2.2,2.5,3.9s-3.4,6.9-4.5,8.6h0Z" fill="#000104" stroke-width="0"/>
  <path d="M38.9,36.8h-1.6l-1.6,14.4h1.6l-.2,1.7h-7.1l.2-1.7h1.5l1-9.1-4.1,8.5h-3.1l-2.2-8.5-1.1,9.1h1.5l-.2,1.7h-6l.2-1.7h1.6l1.6-14.4h-1.6l.2-1.7h5.7l3,10.8,5.3-10.8h5.7l-.2,1.7Z" fill="#fff" stroke-width="0"/>
  <path d="M43.9,53.3c-4,0-6-2.4-6-6s1.8-8.1,7.2-8.1,6,2.2,6,6-1.9,8.1-7.2,8.1ZM45.1,40.3c-1.6,0-2.9,1.9-2.9,8.9s.6,3,1.8,3,2.9-.9,2.9-8.9-.7-3-1.8-3Z" fill="#fff" stroke-width="0"/>
  <path d="M66,53h-6.3l1.1-9.5c.1-1.1,0-1.5-.7-1.5-1.4,0-2.8,2.4-3.1,4.6l-.7,6.4h-4.2l1.3-11.6h-1.6l.2-1.7h5.8l-.3,2.9c.6-1,2.1-3.3,4.9-3.3s3,1.5,2.8,3.5l-.9,8.5h2.1l-.2,1.7h0Z" fill="#fff" stroke-width="0"/>
  <path d="M70.6,47.1c-.1,1.7.3,4.4,3.6,4.4s2.7-.2,4.1-.9v1.8c-1.5.6-3.6,1-5.5,1-3.5,0-6.4-1.5-6.4-6.2s2.3-7.9,7-7.9,5.4,3.5,5.2,6.3l-8,1.5h0ZM73.3,40.3c-1.1,0-2.3.9-2.7,5.1l4.1-.8c.3-2.4.3-4.3-1.5-4.3Z" fill="#fff" stroke-width="0"/>
  <path d="M88.6,49.2c-1.6,2.6-4.2,8-5.2,11.2h-3.5l4.2-6.9-4.4-12.2h-1.4l.2-1.7h5.3l3.2,9.4c2.1-3,2.8-5.3,2.8-6.7s-.2-1.6-1.3-2.8l2.2-2.9c1.6,1.4,2.5,2.2,2.5,3.9s-3.4,6.9-4.5,8.6h0Z" fill="#fff" stroke-width="0"/>
  <path d="M29.4,73.8l-.3,1.1h1.1v1.8h-3.8v-1.9h.7l2.6-7.6h2.6l2.6,7.6h.7v1.9h-4.4v-1.8h1.2l-.3-1.1h-2.7ZM31.6,72.4l-.3-.8c-.2-.6-.5-1.6-.6-2.1,0,.4-.4,1.5-.6,2.1l-.3.8h1.8Z" fill="#fff" stroke-width="0"/>
  <path d="M37.2,76.7l-1.6-7.5h-.7v-1.9h4.2v1.8h-1l.4,2.1c.2.9.3,1.9.4,2.6.1-.7.3-1.7.5-2.6l.6-2.5h2.1l.6,2.5c.2.9.4,2,.5,2.6,0-.7.3-1.7.4-2.6l.4-2.1h-1v-1.8h3.6v1.9h-.7l-1.6,7.5h-2.6l-.6-2.9c-.2-.8-.4-1.8-.4-2.2,0,.4-.2,1.4-.4,2.2l-.6,2.9h-2.5,0Z" fill="#fff" stroke-width="0"/>
  <path d="M48.9,73.8l-.3,1.1h1.1v1.8h-3.8v-1.9h.7l2.6-7.6h2.6l2.6,7.6h.7v1.9h-4.4v-1.8h1.2l-.3-1.1h-2.7ZM51.1,72.4l-.3-.8c-.2-.6-.5-1.6-.6-2.1,0,.4-.4,1.5-.6,2.1l-.3.8h1.8Z" fill="#fff" stroke-width="0"/>
  <path d="M55.8,76.6v-1.9h.7v-5.6h-.7v-1.9h4.9c2,0,3.1.4,3.1,2.9s-.3,2.3-1.4,2.7l1.3,2h.7v1.9h-3.4v-1.6l-1.2-1.9h-.8v1.7h.9v1.8h-4.1,0ZM59,71.6h1.6c.5,0,.8-.3.8-1.3s-.3-1.2-.8-1.2h-1.5v2.6Z" fill="#fff" stroke-width="0"/>
  <path d="M65,76.6v-1.9h.7v-5.6h-.7v-1.9h4.2c3.1,0,4,.5,4,4.7s-1,4.7-4,4.7-4,0-4.2,0h0ZM68.2,74.9h1.1c1.3,0,1.5-.6,1.5-2.6v-.8c0-2-.2-2.5-1.5-2.5h-1.1v5.9h0Z" fill="#fff" stroke-width="0"/>
  <path d="M77.8,76.8c-1.8,0-3.2-.2-3.6-.3v-3h2.3v1.6c.2,0,.9,0,1.3,0,1.3,0,1.5-.2,1.5-1s-.3-.9-1.7-1.1c-2.8-.5-3.4-.9-3.4-3.2s1-2.6,3.7-2.6,3.1.2,3.6.3v2.7h-2.3v-1.3c-.2,0-.9,0-1.3,0-.9,0-1.2.1-1.2.9s.3.9,1.6,1.1c2.8.5,3.5.9,3.5,3.1s-.8,2.8-4,2.8h0Z" fill="#fff" stroke-width="0"/>
  <path d="M31.4,60.5v-.8h.5v-1.2c0-.4,0-1.6,0-1.9,0,.2-.5,1.4-.7,1.9l-.4,1.1h-1l-.4-1.1c-.2-.4-.6-1.6-.7-1.9,0,.3,0,1.5,0,1.9v1.2h.5v.8h-1.9v-.8h.5v-3.2h-.5v-.8h2l.6,1.5c.1.3.4,1.1.5,1.3,0-.2.4-1,.5-1.2l.6-1.5h1.9v.8h-.5v3.2h.5v.8h-2.1Z" fill="#000104" stroke-width="0"/>
  <path d="M38.5,60.5v-.7h.8l-.3-.7h-1.8l-.3.7h.7v.7h-2.1v-.8h.5l1.6-4h1.2l1.6,4h.5v.8h-2.3ZM38.5,57.8c0-.2-.4-1.1-.5-1.2,0,.1-.4,1.1-.5,1.2l-.2.6h1.4l-.2-.5h0Z" fill="#000104" stroke-width="0"/>
  <path d="M46.6,58.8v1.5c-.2,0-.9.2-1.9.2-1.4,0-2.2-.5-2.2-2.5s.8-2.5,2.3-2.5,1.6.1,1.9.2v1.4h-1v-.8c-.1,0-.6,0-.9,0-.9,0-1.2.5-1.2,1.5v.4c0,1,.3,1.5,1.2,1.5s.8,0,.9,0v-.9h-.7v-.7h2v.7h-.4Z" fill="#000104" stroke-width="0"/>
  <path d="M51.9,60.5v-.7h.8l-.3-.7h-1.8l-.3.7h.7v.7h-2.1v-.8h.5l1.6-4h1.2l1.6,4h.5v.8h-2.3ZM51.9,57.8c0-.2-.4-1.1-.5-1.2,0,.1-.4,1.1-.5,1.2l-.2.6h1.4l-.2-.5Z" fill="#000104" stroke-width="0"/>
  <path d="M56.2,60.5v-.8l1.5-1.7c.5-.6,1.4-1.5,1.5-1.5h-2v.9h-1v-1.6h4v.8l-1.4,1.5c-.5.6-1.5,1.7-1.6,1.7h2.1v-1h1v1.7h-4.1,0Z" fill="#000104" stroke-width="0"/>
  <path d="M64,56.5v3.2h.6v.8h-2.2v-.8h.6v-3.2h-.6v-.8h2.2v.8h-.6Z" fill="#000104" stroke-width="0"/>
  <path d="M71.2,56.5v4h-1l-2.3-3.6c0,.2,0,1.6,0,1.8v1h.6v.8h-2v-.8h.5v-3.2h-.5v-.8h1.7l2.1,3.2c0-.2,0-1.3,0-1.6v-.8h-.6v-.8h1.9v.8h-.5Z" fill="#000104" stroke-width="0"/>
  <path d="M73.8,60.5v-.8h.5v-3.2h-.5v-.8h4.2v1.6h-1v-.8h-1.8v1.2h1.3v.7h-1.3v1.4h1.8v-1h1v1.7h-4.2Z" fill="#000104" stroke-width="0"/>
  <path d="M31.3,60.3v-.8h.5v-1.2c0-.4,0-1.6,0-1.9,0,.2-.5,1.4-.7,1.9l-.4,1.1h-1l-.4-1.1c-.2-.4-.6-1.6-.7-1.9,0,.3,0,1.5,0,1.9v1.2h.5v.8h-1.9v-.8h.5v-3.2h-.5v-.8h2l.6,1.5c.1.3.4,1.1.5,1.3,0-.2.4-1,.5-1.2l.6-1.5h1.9v.8h-.5v3.2h.5v.8h-2Z" fill="#fff" stroke-width="0"/>
  <path d="M38.4,60.3v-.7h.8l-.3-.7h-1.8l-.3.7h.7v.7h-2.1v-.8h.5l1.6-4h1.2l1.6,4h.5v.8h-2.3,0ZM38.4,57.7c0-.2-.4-1.1-.5-1.2,0,.1-.4,1.1-.5,1.2l-.2.6h1.4l-.2-.5h0Z" fill="#fff" stroke-width="0"/>
  <path d="M46.6,58.7v1.5c-.2,0-.9.2-1.9.2-1.4,0-2.2-.5-2.2-2.5s.8-2.5,2.3-2.5,1.6.1,1.9.2v1.4h-1v-.8c-.2,0-.6,0-.9,0-.9,0-1.2.5-1.2,1.5v.4c0,1,.3,1.5,1.2,1.5s.8,0,.9,0v-.9h-.7v-.7h2v.7h-.4Z" fill="#fff" stroke-width="0"/>
  <path d="M51.8,60.3v-.7h.8l-.3-.7h-1.8l-.3.7h.7v.7h-2.1v-.8h.5l1.6-4h1.2l1.6,4h.5v.8h-2.3ZM51.8,57.7c0-.2-.4-1.1-.5-1.2,0,.1-.4,1.1-.5,1.2l-.2.6h1.4l-.2-.5Z" fill="#fff" stroke-width="0"/>
  <path d="M56.1,60.3v-.8l1.5-1.7c.5-.6,1.4-1.5,1.5-1.5h-2v.9h-1v-1.6h4v.8l-1.4,1.5c-.5.6-1.5,1.7-1.6,1.7h2.1v-1h1v1.7h-4.1,0Z" fill="#fff" stroke-width="0"/>
  <path d="M63.9,56.3v3.2h.6v.8h-2.2v-.8h.6v-3.2h-.6v-.8h2.2v.8h-.6Z" fill="#fff" stroke-width="0"/>
  <path d="M71.1,56.3v4h-1l-2.3-3.6c0,.2,0,1.6,0,1.8v1h.6v.8h-2v-.8h.5v-3.2h-.5v-.8h1.7l2.1,3.2c0-.2,0-1.3,0-1.6v-.8h-.6v-.8h1.9v.8h-.5Z" fill="#fff" stroke-width="0"/>
  <path d="M73.7,60.3v-.8h.5v-3.2h-.5v-.8h4.2v1.6h-1v-.8h-1.8v1.2h1.3v.7h-1.3v1.4h1.8v-1h1v1.7h-4.2Z" fill="#fff" stroke-width="0"/>
  <path d="M39.8,88.5v-2.4l2.9-2.4c1.5-1.2,1.7-1.3,1.7-2.1s-.2-.8-1.2-.8-.8,0-1,0v1h-2.2v-2.6c.6-.1,2.1-.3,3.2-.3,2.9,0,3.6.5,3.6,2.6s-.4,1.8-2.7,3.7l-2,1.6h2.6v-1.2h2.2v2.9h-7,0Z" fill="#231f20" stroke-width="0"/>
  <path d="M51.4,88.6c-2.9,0-3.8-.9-3.8-4.9s.9-4.9,3.8-4.9,3.8.9,3.8,4.8-.9,4.9-3.8,4.9ZM51.4,86.8c1,0,1.3-.4,1.3-2.3v-1.5c0-1.9-.3-2.2-1.3-2.2s-1.3.3-1.3,2.2v1.5c0,1.9.3,2.3,1.3,2.3h0Z" fill="#231f20" stroke-width="0"/>
  <path d="M56,88.5v-2.4l2.9-2.4c1.5-1.2,1.7-1.3,1.7-2.1s-.2-.8-1.2-.8-.8,0-1,0v1h-2.2v-2.6c.6-.1,2.1-.3,3.2-.3,2.9,0,3.6.5,3.6,2.6s-.4,1.8-2.7,3.7l-2,1.6h2.6v-1.2h2.2v2.9h-7,0Z" fill="#231f20" stroke-width="0"/>
  <path d="M67.5,88.6c-3.2,0-3.6-1-3.6-4.8h0c0-2.1.1-3,.9-3.7.7-.6,2.6-.9,5.3-1.3l.3,1.9c-2.4.3-3.6.5-3.9.8-.3.2-.3.5-.3,1.1h0c.4,0,1.5-.2,2.2-.2,2.2,0,2.7.4,2.7,3s-.7,3.1-3.7,3.1h0ZM67.5,86.9c1,0,1.3-.2,1.3-1.2s-.1-1.4-1-1.4-1.2,0-1.6.1v.8c0,1.4.3,1.7,1.3,1.7h0Z" fill="#231f20" stroke-width="0"/>
  <path d="M39.6,88.3v-2.4l2.9-2.4c1.5-1.2,1.7-1.3,1.7-2.1s-.2-.8-1.2-.8-.8,0-1,0v1h-2.2v-2.6c.6-.1,2.1-.3,3.2-.3,2.9,0,3.6.5,3.6,2.6s-.4,1.8-2.7,3.7l-2,1.6h2.6v-1.2h2.2v2.9h-7,0Z" fill="#fff" stroke-width="0"/>
  <path d="M51.3,88.5c-2.9,0-3.8-.9-3.8-4.9s.9-4.9,3.8-4.9,3.8.9,3.8,4.8-.9,4.9-3.8,4.9ZM51.3,86.7c1,0,1.3-.4,1.3-2.3v-1.5c0-1.9-.3-2.2-1.3-2.2s-1.3.3-1.3,2.2v1.5c0,1.9.3,2.3,1.3,2.3h0Z" fill="#fff" stroke-width="0"/>
  <path d="M55.9,88.3v-2.4l2.9-2.4c1.5-1.2,1.7-1.3,1.7-2.1s-.2-.8-1.2-.8-.8,0-1,0v1h-2.2v-2.6c.6-.1,2.1-.3,3.2-.3,2.9,0,3.6.5,3.6,2.6s-.4,1.8-2.7,3.7l-2,1.6h2.6v-1.2h2.2v2.9h-7,0Z" fill="#fff" stroke-width="0"/>
  <path d="M67.4,88.5c-3.2,0-3.6-1-3.6-4.8h0c0-2.1.1-3,.9-3.7.7-.6,2.6-.9,5.3-1.3l.3,1.9c-2.4.3-3.6.5-3.9.8-.3.2-.3.5-.3,1.1h0c.4,0,1.5-.2,2.2-.2,2.2,0,2.7.4,2.7,3s-.7,3.1-3.7,3.1h0ZM67.4,86.8c1,0,1.3-.2,1.3-1.2s-.1-1.4-1-1.4-1.2,0-1.6.1v.8c0,1.4.3,1.7,1.3,1.7h0Z" fill="#fff" stroke-width="0"/>
  <path d="M17.7,22.8c-.3-.3-.5-.7-.6-1.2,0-.5.1-.9.5-1.2.3-.3.7-.5,1.2-.6.5,0,.9.1,1.2.5.3.3.5.7.6,1.2,0,.5-.1.9-.5,1.2-.3.3-.7.5-1.2.6-.5,0-.9-.1-1.2-.5Z" fill="#a39161" stroke-width="0"/>
  <path d="M23.9,21.3l-.8-1,.3-.3-2.6-3.1-.3.3-.8-1,2.2-1.8c1.1-.9,1.6-.8,2.4.1.6.7.8,1.2.2,1.8.7-.5,1.2-.4,1.9.5.8,1,.9,1.6-.2,2.5l-2.3,1.9h0ZM22.9,17.1l.6-.5c.2-.2.2-.4-.2-.9-.4-.4-.6-.5-.8-.3l-.6.5,1,1.2h0ZM24.6,19.1l.6-.5c.2-.2.2-.4-.2-.9-.4-.5-.7-.6-.9-.4l-.6.5,1.1,1.3Z" fill="#a39161" stroke-width="0"/>
  <path d="M27.7,18.1l-.7-1,.3-.2-2.2-3.3-.3.2-.7-1.1,3.9-2.6,1.4,2.1-1.2.8-.7-1.1-1,.7.8,1.2.6-.4.7,1-.6.4.8,1.3,1-.7-.8-1.2,1.2-.8,1.4,2.2-3.9,2.6h0Z" fill="#a39161" stroke-width="0"/>
  <path d="M33.8,14.4c-.9.5-1.7.8-1.9.9l-1-2,1.3-.7.5,1.1c.1,0,.4-.2.6-.3.6-.3.6-.4.3-1-.2-.5-.5-.5-1.3-.3-1.6.3-2,.3-2.7-1-.7-1.3-.4-1.9,1.1-2.6.7-.4,1.7-.8,2-.8l.9,1.7-1.3.7-.4-.8c-.1,0-.4.2-.6.3-.3.2-.5.3-.2.8.2.4.5.4,1.2.3,1.6-.3,2.1-.2,2.7,1,.7,1.3.5,2-1.2,2.8h0Z" fill="#a39161" stroke-width="0"/>
  <path d="M37.1,12.8l-.5-1.2.5-.2-1.5-3.9-.5.2.5,1.3-1.3.5-.9-2.3,5-2,.9,2.3-1.3.5-.5-1.3-.5.2,1.5,3.9.4-.2.5,1.2-2.4.9h0Z" fill="#a39161" stroke-width="0"/>
  <path d="M44.4,10.5c-1,.2-1.8.3-2.1.4l-.5-2.1,1.4-.3.3,1.2c.1,0,.5,0,.7-.1.6-.1.7-.2.6-.9-.1-.5-.3-.6-1.2-.6-1.6-.1-2-.3-2.4-1.7-.3-1.4,0-1.9,1.7-2.3.8-.2,1.8-.3,2.1-.3l.5,1.9-1.4.3-.2-.9c-.1,0-.5,0-.7.1-.4,0-.5.2-.4.7.1.5.4.6,1.1.6,1.7,0,2.1.3,2.4,1.6.4,1.5,0,2-1.8,2.5h0Z" fill="#a39161" stroke-width="0"/>
  <path d="M49.4,9.6c-1.9.2-2.4-.2-2.6-2.1l-.4-3h-.4s-.2-1.2-.2-1.2l2.5-.3.2,1.3h-.5c0,0,.4,3.1.4,3.1.1.9.3,1,.8.9.5,0,.7-.2.6-1.1l-.4-3h-.4c0,0-.2-1.2-.2-1.2l2.3-.3.2,1.3h-.4s.4,3,.4,3c.2,1.9,0,2.4-1.9,2.7h0Z" fill="#a39161" stroke-width="0"/>
  <path d="M52.2,9.2v-1.3s.4,0,.4,0V3.9c0,0-.5,0-.5,0v-1.3s3,0,3,0c1.3,0,1.8.3,1.8,2.2,0,1.9-.5,2.3-1.8,2.3h-1s0,.9,0,.9h.7s0,1.2,0,1.2h-2.7ZM54.1,5.9h.8c.3,0,.5-.2.4-1.1,0-.8-.2-1-.5-1h-.7s0,2.1,0,2.1h0Z" fill="#a39161" stroke-width="0"/>
  <path d="M57.1,9.1v-1.3c.1,0,.5,0,.5,0l.4-4h-.4s.1-1.3.1-1.3l4.7.4-.2,2.5h-1.5c0-.1.1-1.4.1-1.4h-1.2c0-.1-.1,1.3-.1,1.3h.8c0,0-.1,1.3-.1,1.3h-.8c0,0-.1,1.5-.1,1.5h1.2c0,.1.1-1.3.1-1.3h1.5c0,.1-.2,2.7-.2,2.7l-4.7-.4h0Z" fill="#a39161" stroke-width="0"/>
  <path d="M62,9.6l.3-1.2h.4c0,0,.8-3.9.8-3.9h-.4c0,0,.3-1.3.3-1.3l2.9.6c1.3.3,1.7.7,1.3,2.3-.2.8-.4,1.6-1.3,1.6l.5,1.6h.4c0,0-.3,1.3-.3,1.3l-2-.4.2-1-.5-1.6h-.2s-.3,1.3-.3,1.3h.5c0,0-.2,1.3-.2,1.3l-2.4-.5h0ZM64.7,6.6h.7c.3.2.5,0,.6-.7.2-.8,0-.9-.3-.9h-.7c0-.1-.4,1.7-.4,1.7h0Z" fill="#a39161" stroke-width="0"/>
  <path d="M68.3,11l.4-1.2h.4c0,.1,1.4-3.6,1.4-3.6h-.4c0-.1.4-1.4.4-1.4l4.4,1.6-.8,2.3-1.4-.5.4-1.2-1.1-.4-.5,1.4.8.3-.4,1.2-.8-.3-.4,1.2.6.2-.4,1.2-2.5-.9h0Z" fill="#a39161" stroke-width="0"/>
  <path d="M75.2,13.9c-1.7-.8-1.9-1.4-1-3.2l1.3-2.7-.3-.2.6-1.2,2.2,1.1-.6,1.2-.5-.2-1.3,2.7c-.4.8-.3,1,.2,1.2.5.2.7.2,1.1-.6l1.4-2.8-.4-.2.6-1.2,2.1,1-.6,1.2-.3-.2-1.3,2.7c-.8,1.7-1.4,2-3.1,1.2h0Z" fill="#a39161" stroke-width="0"/>
  <path d="M77.8,15.1l.7-1.1.3.2,2.2-3.4-.3-.2.7-1.1,1.9,1.3-.5,2.6c0,.5-.2.9-.3,1.2,0-.2.4-.6.6-.9l.7-1-.4-.3.7-1.1,1.7,1.1-.7,1.1-.3-.2-2.9,4.4-1.2-.8.7-3.6c0-.5.2-1,.3-1.3-.1.2-.4.6-.7,1l-1.2,1.8.4.3-.7,1.1-1.8-1.2h0Z" fill="#a39161" stroke-width="0"/>
  <path d="M82.3,18l.8-1,.3.3,2.6-3.1-.3-.3.8-1,2,1.6c1.6,1.3,1.5,1.8-.3,4-1.8,2.2-2.3,2.4-3.9,1.1-1.4-1.2-1.8-1.5-2-1.6ZM84.6,18.4l.4.4c.4.4.7.2,1.7-1l.4-.5c1-1.2,1.1-1.4.6-1.8l-.4-.4-2.7,3.3Z" fill="#a39161" stroke-width="0"/>
  <path d="M89.9,20c.3-.3.8-.5,1.2-.5.5,0,.9.2,1.2.5.3.3.5.8.5,1.2,0,.5-.2.9-.5,1.2-.3.3-.8.5-1.2.5-.5,0-.9-.2-1.2-.5-.3-.3-.5-.8-.5-1.2,0-.5.2-.9.5-1.2h0Z" fill="#a39161" stroke-width="0"/>
  <path d="M12.1,85.8l1-.8.2.3,3.2-2.5-.2-.3,1-.8,1.8,2.3c.9,1.1.8,1.6-.2,2.4-.7.6-1.2.7-1.8.2.4.8.4,1.2-.5,1.9-1,.8-1.7.9-2.5-.2l-1.9-2.4h0ZM14.2,86.6l.5.6c.2.2.4.2.9-.2.5-.4.6-.7.4-.9l-.5-.6-1.3,1.1ZM16.3,85l.4.6c.2.2.4.2.9-.2.5-.4.5-.6.3-.8l-.4-.6-1.2,1h0Z" fill="#a39161" stroke-width="0"/>
  <path d="M15.6,90.2l.9-.9.3.3,2.9-2.8-.3-.3.9-.9,3.3,3.3-1.8,1.7-1-1,.9-.9-.8-.9-1.1,1,.5.5-.9.9-.5-.5-1.1,1.1.8.9,1-1,1,1-1.9,1.8-3.3-3.3Z" fill="#a39161" stroke-width="0"/>
  <path d="M21.2,95.7c-.8-.6-1.4-1.3-1.5-1.5l1.4-1.7,1.1.9-.8.9c0,.1.3.3.5.5.5.4.6.4,1,0,.3-.4.3-.6-.2-1.3-.9-1.4-1-1.8,0-2.9.9-1.1,1.6-1.1,2.8,0,.6.5,1.4,1.2,1.5,1.5l-1.3,1.5-1.1-.9.6-.7c0,0-.3-.3-.5-.5-.3-.2-.5-.3-.8.1-.3.4-.2.6.2,1.3.9,1.4,1,1.9.1,2.9-1,1.2-1.6,1.2-3.1,0h0Z" fill="#a39161" stroke-width="0"/>
  <path d="M24.6,98.2l.7-1.1.4.3,2.4-3.5-.4-.3-.8,1.1-1.1-.8,1.4-2.1,4.4,3-1.4,2.1-1.1-.8.8-1.1-.4-.3-2.4,3.5.4.3-.7,1-2.1-1.4h0Z" fill="#a39161" stroke-width="0"/>
  <path d="M32.1,102.7c-1.7-.8-1.9-1.5-.7-4.1,1.3-2.6,1.9-2.9,3.6-2,1.7.8,1.9,1.5.6,4.1-1.3,2.6-1.9,2.9-3.6,2.1h0ZM32.7,101.6c.5.3.7.2,1.4-1.2l.4-.8c.7-1.5.6-1.7.1-1.9-.5-.3-.7-.2-1.5,1.3l-.4.8c-.7,1.5-.6,1.7,0,1.9Z" fill="#a39161" stroke-width="0"/>
  <path d="M35.1,103.9l.4-1.2h.4c0,.1,1.4-3.7,1.4-3.7h-.4c0-.1.4-1.4.4-1.4l4.4,1.6-.8,2.3-1.4-.5.4-1.2-1.1-.4-.5,1.4.8.3-.4,1.2-.8-.3-.4,1.2.6.2-.4,1.2-2.5-.9h0Z" fill="#a39161" stroke-width="0"/>
  <path d="M43.1,106.4l.3-1.2h.5c0,0,.8-4,.8-4h-.5c0,0-.3,1.2-.3,1.2l-1.3-.3.5-2.4,5.3,1-.5,2.4-1.3-.3.3-1.3h-.5c0-.1-.8,4-.8,4h.5c0,0-.3,1.3-.3,1.3l-2.5-.5h0Z" fill="#a39161" stroke-width="0"/>
  <path d="M47.9,107.3v-1.3c.1,0,.5,0,.5,0l.3-4h-.4s.1-1.3.1-1.3l2.4.2v1.3c-.1,0-.5,0-.5,0v1.3c-.1,0,1.2.1,1.2.1v-1.3c.1,0-.3,0-.3,0v-1.3c.1,0,2.5.2,2.5.2v1.3c-.1,0-.5,0-.5,0l-.3,4h.4s-.1,1.3-.1,1.3l-2.4-.2v-1.3c.1,0,.5,0,.5,0v-1.5c.1,0-1.2,0-1.2,0v1.5c-.1,0,.3,0,.3,0v1.3c-.1,0-2.5-.2-2.5-.2h0Z" fill="#a39161" stroke-width="0"/>
  <path d="M54,107.7v-1.3s.4,0,.4,0v-4c-.1,0-.5,0-.5,0v-1.3s4.7-.2,4.7-.2v2.5c0,0-1.4,0-1.4,0v-1.3s-1.2,0-1.2,0v1.5s.8,0,.8,0v1.2s-.7,0-.7,0v1.5s1.2,0,1.2,0v-1.4s1.4,0,1.4,0v2.6c0,0-4.6.2-4.6.2h0Z" fill="#a39161" stroke-width="0"/>
  <path d="M61.3,107.3l-.2-1.2h.4c0,0-.7-4-.7-4h-.4c0,0-.2-1.2-.2-1.2l2.8-.5c1.4-.2,1.8.1,2,1.3.2.9,0,1.4-.7,1.7.9,0,1.2.2,1.4,1.4.2,1.2,0,1.9-1.4,2.1l-3,.5h0ZM62.6,103.2h.7c.3-.2.4-.4.3-1,0-.6-.3-.7-.5-.7h-.7c0,.1.3,1.7.3,1.7h0ZM63,105.8h.8c.3-.2.4-.4.3-1s-.3-.8-.6-.8h-.8c0,.1.3,1.8.3,1.8Z" fill="#a39161" stroke-width="0"/>
  <path d="M66.8,106.3l-.3-1.2h.4c0-.1-1.1-4-1.1-4h-.4c0,.1-.3-1.1-.3-1.1l4.5-1.3.7,2.4-1.4.4-.3-1.2-1.2.3.4,1.4.7-.2.3,1.2-.7.2.4,1.5,1.2-.3-.4-1.4,1.4-.4.7,2.5-4.5,1.3h0Z" fill="#a39161" stroke-width="0"/>
  <path d="M74.3,104c-.9.4-1.8.6-2,.7l-.8-2,1.4-.5.4,1.1c.1,0,.5-.1.6-.2.6-.2.7-.3.4-1-.2-.5-.4-.5-1.2-.5-1.6.1-2.1,0-2.6-1.3-.5-1.3-.2-1.9,1.3-2.5.8-.3,1.7-.6,2.1-.6l.7,1.8-1.4.5-.4-.9c-.1,0-.4.1-.7.2-.4.1-.5.3-.3.8.2.5.4.5,1.2.4,1.6-.2,2.1,0,2.6,1.3.6,1.4.3,2-1.5,2.7h0Z" fill="#a39161" stroke-width="0"/>
  <path d="M78.6,101.9l-.6-1.1.4-.2-2-3.7-.5.2.6,1.2-1.2.6-1.2-2.2,4.7-2.6,1.2,2.2-1.2.6-.6-1.2-.5.2,2,3.7.4-.2.6,1.1-2.3,1.2h0Z" fill="#a39161" stroke-width="0"/>
  <path d="M84.1,98.7l-1-1.3.3-2.5c.1-.8.2-1.2,0-1.7-.3-.4-.4-.3-.8,0-.2.1-.3.3-.4.3l.4.6-1.2.8-1.1-1.5c.2-.2.9-.8,1.4-1.3,1.5-1.1,1.9-1,2.7,0,.6.8.4,1.1.2,2.9l-.2,1.9,1.2-.8-.5-.7,1.2-.8,1.1,1.5-3.4,2.5h0Z" fill="#a39161" stroke-width="0"/>
  <path d="M90,94.3c-1.3,1.2-2,1.1-3.9-1.1-1.9-2.1-1.9-2.8-.6-4,1.3-1.2,2-1.1,3.9,1s1.9,2.8.6,4ZM89.2,93.4c.4-.3.3-.6-.6-1.6l-.8-.9c-.9-1-1.1-1.1-1.5-.8-.4.3-.3.5.6,1.6l.8.9c.9,1,1.2,1.1,1.5.8h0Z" fill="#a39161" stroke-width="0"/>
  <path d="M92.1,92.2l-1.2-1.1-.2-2.6c0-.8,0-1.3-.4-1.6-.3-.3-.5-.3-.8,0-.2.2-.3.3-.4.4l.5.5-1,1-1.3-1.2c.2-.3.7-1,1.2-1.5,1.2-1.4,1.7-1.4,2.7-.5.7.7.6.9.8,2.8v1.9c.1,0,1.1-1.1,1.1-1.1l-.6-.5,1-1,1.4,1.3-2.9,3.1h0Z" fill="#a39161" stroke-width="0"/>
  <path d="M96.8,86.9c-1.1,1.4-1.8,1.4-4-.3h0c-1.2-.9-1.6-1.4-1.7-2,0-.6.5-1.7,1.4-3.1l1.1.6c-.6,1-1.1,1.8-1,2,0,.2.1.4.6.7.1-.3.4-.8.7-1.2.6-.8,1.1-1,2.6.2,1.3,1,1.5,1.7.4,3.1h0ZM95.9,86.2c.3-.4.3-.6-.4-1.1-.8-.6-1-.6-1.3-.2-.1.2-.3.4-.4.6l.7.5c.8.6,1,.6,1.3.2Z" fill="#a39161" stroke-width="0"/>
  
  <g id="iconContainer" clip-path="url(#circleClip)">
    <g id="iconshine">
    <rect x="0" y="0" width="100" height="213.7" transform="translate(-100 100) rotate(-39.4)" fill="url(#shine-gradient)" stroke-width="0"/>
  </g>
  </g>
</svg>