<svg width="99" height="14" viewBox="0 0 99 14" fill="none" xmlns="http://www.w3.org/2000/svg">
<path d="M3.39625 13.1625C1.83625 13.1625 0.5525 12.415 0.5525 10.6437C0.5525 8.66125 2.47 7.94625 4.9075 7.94625H5.96375V7.5075C5.96375 6.37 5.57375 5.80125 4.42 5.80125C3.39625 5.80125 2.8925 6.28875 2.795 7.13375H0.89375C1.05625 5.15125 2.6325 4.3225 4.53375 4.3225C6.435 4.3225 7.93 5.1025 7.93 7.42625V13H5.99625V11.96C5.44375 12.6912 4.69625 13.1625 3.39625 13.1625ZM3.8675 11.7487C5.07 11.7487 5.96375 11.115 5.96375 10.0262V9.18125H4.95625C3.46125 9.18125 2.5025 9.5225 2.5025 10.5625C2.5025 11.2775 2.8925 11.7487 3.8675 11.7487ZM13.5799 13.1625C11.1424 13.1625 9.28992 11.57 9.28992 8.85625V8.72625C9.28992 6.02875 11.2074 4.3225 13.5799 4.3225C15.4649 4.3225 17.2362 5.1675 17.4637 7.5075H15.5624C15.3999 6.37 14.6524 5.89875 13.6124 5.89875C12.2637 5.89875 11.3049 6.93875 11.3049 8.69375V8.82375C11.3049 10.6762 12.2149 11.6512 13.6612 11.6512C14.7012 11.6512 15.5949 11.0337 15.7087 9.83125H17.5124C17.3662 11.7812 15.8874 13.1625 13.5799 13.1625ZM22.6831 11.635C24.1456 11.635 25.0231 10.5462 25.0231 8.8075V8.69375C25.0231 6.93875 24.1456 5.86625 22.6831 5.86625C21.2206 5.86625 20.3268 6.9225 20.3268 8.6775V8.8075C20.3268 10.5462 21.1881 11.635 22.6831 11.635ZM22.6668 13.1625C20.1643 13.1625 18.3118 11.4237 18.3118 8.84V8.71C18.3118 6.0775 20.1806 4.3225 22.6831 4.3225C25.1693 4.3225 27.0381 6.06125 27.0381 8.66125V8.79125C27.0381 11.44 25.1693 13.1625 22.6668 13.1625ZM28.4897 13V4.50125H30.4559V5.85C30.8622 5.02125 31.8047 4.3225 33.2022 4.3225C34.9084 4.3225 36.1109 5.31375 36.1109 7.65375V13H34.1447V7.8325C34.1447 6.54875 33.6247 5.96375 32.4547 5.96375C31.3497 5.96375 30.4559 6.64625 30.4559 7.995V13H28.4897ZM40.9437 13.1463C39.2537 13.1463 38.3762 12.2362 38.3762 10.6275V5.98H37.2387V4.50125H38.3762V2.6325H40.3424V4.50125H42.2112V5.98H40.3424V10.4487C40.3424 11.1962 40.6999 11.5375 41.3174 11.5375C41.7074 11.5375 41.9999 11.4887 42.2762 11.375V12.935C41.9674 13.0488 41.5449 13.1463 40.9437 13.1463ZM47.4622 13.1625C44.9597 13.1625 43.1559 11.5212 43.1559 8.84V8.71C43.1559 6.0775 44.9597 4.3225 47.3809 4.3225C49.4934 4.3225 51.3947 5.57375 51.3947 8.6125V9.18125H45.1709C45.2359 10.79 46.0484 11.7 47.5109 11.7C48.6972 11.7 49.3147 11.2287 49.4609 10.4H51.3622C51.0859 12.1875 49.6397 13.1625 47.4622 13.1625ZM45.2034 7.865H49.4447C49.3472 6.4025 48.5997 5.7525 47.3809 5.7525C46.1947 5.7525 45.3984 6.54875 45.2034 7.865ZM56.5472 13.1625C54.1097 13.1625 52.2572 11.57 52.2572 8.85625V8.72625C52.2572 6.02875 54.1747 4.3225 56.5472 4.3225C58.4322 4.3225 60.2035 5.1675 60.431 7.5075H58.5297C58.3672 6.37 57.6197 5.89875 56.5797 5.89875C55.231 5.89875 54.2722 6.93875 54.2722 8.69375V8.82375C54.2722 10.6762 55.1822 11.6512 56.6285 11.6512C57.6685 11.6512 58.5622 11.0337 58.676 9.83125H60.4797C60.3335 11.7812 58.8547 13.1625 56.5472 13.1625ZM65.5854 13.1625C63.0829 13.1625 61.2791 11.5212 61.2791 8.84V8.71C61.2791 6.0775 63.0829 4.3225 65.5041 4.3225C67.6166 4.3225 69.5179 5.57375 69.5179 8.6125V9.18125H63.2941C63.3591 10.79 64.1716 11.7 65.6341 11.7C66.8204 11.7 67.4379 11.2287 67.5841 10.4H69.4854C69.2091 12.1875 67.7629 13.1625 65.5854 13.1625ZM63.3266 7.865H67.5679C67.4704 6.4025 66.7229 5.7525 65.5041 5.7525C64.3179 5.7525 63.5216 6.54875 63.3266 7.865ZM70.9492 13V4.50125H72.9154V5.85C73.3217 5.02125 74.2642 4.3225 75.6617 4.3225C77.3679 4.3225 78.5704 5.31375 78.5704 7.65375V13H76.6042V7.8325C76.6042 6.54875 76.0842 5.96375 74.9142 5.96375C73.8092 5.96375 72.9154 6.64625 72.9154 7.995V13H70.9492ZM83.6956 13.1625C81.5669 13.1625 79.9581 11.6512 79.9581 8.88875V8.75875C79.9581 6.045 81.5669 4.3225 83.7769 4.3225C85.1581 4.3225 86.0194 4.95625 86.4906 5.80125V0.568749H88.4569V13H86.4906V11.57C86.0356 12.415 84.9469 13.1625 83.6956 13.1625ZM84.1831 11.6025C85.5481 11.6025 86.5556 10.6925 86.5556 8.79125V8.66125C86.5556 6.7925 85.6944 5.86625 84.2644 5.86625C82.8181 5.86625 81.9731 6.87375 81.9731 8.71V8.84C81.9731 10.7087 82.9156 11.6025 84.1831 11.6025ZM94.2713 11.635C95.7338 11.635 96.6113 10.5462 96.6113 8.8075V8.69375C96.6113 6.93875 95.7338 5.86625 94.2713 5.86625C92.8088 5.86625 91.9151 6.9225 91.9151 8.6775V8.8075C91.9151 10.5462 92.7763 11.635 94.2713 11.635ZM94.2551 13.1625C91.7526 13.1625 89.9001 11.4237 89.9001 8.84V8.71C89.9001 6.0775 91.7688 4.3225 94.2713 4.3225C96.7576 4.3225 98.6263 6.06125 98.6263 8.66125V8.79125C98.6263 11.44 96.7576 13.1625 94.2551 13.1625Z" fill="#DD5900"/>
</svg>
