<svg width="117" height="17" viewBox="0 0 117 17" fill="none" xmlns="http://www.w3.org/2000/svg">
<path d="M0.17 15.9088V4.50125H2.13625V5.86625C2.6075 5.05375 3.66375 4.3225 4.915 4.3225C7.04375 4.3225 8.685 5.89875 8.685 8.645V8.775C8.685 11.505 7.10875 13.1625 4.915 13.1625C3.56625 13.1625 2.59125 12.4962 2.13625 11.6675V15.9088H0.17ZM4.4275 11.6025C5.87375 11.6025 6.67 10.6275 6.67 8.8075V8.6775C6.67 6.7925 5.695 5.86625 4.41125 5.86625C3.04625 5.86625 2.07125 6.7925 2.07125 8.6775V8.8075C2.07125 10.7087 2.9975 11.6025 4.4275 11.6025ZM12.3545 13.1625C10.7945 13.1625 9.5107 12.415 9.5107 10.6437C9.5107 8.66125 11.4282 7.94625 13.8657 7.94625H14.922V7.5075C14.922 6.37 14.532 5.80125 13.3782 5.80125C12.3545 5.80125 11.8507 6.28875 11.7532 7.13375H9.85195C10.0145 5.15125 11.5907 4.3225 13.492 4.3225C15.3932 4.3225 16.8882 5.1025 16.8882 7.42625V13H14.9545V11.96C14.402 12.6912 13.6545 13.1625 12.3545 13.1625ZM12.8257 11.7487C14.0282 11.7487 14.922 11.115 14.922 10.0262V9.18125H13.9145C12.4195 9.18125 11.4607 9.5225 11.4607 10.5625C11.4607 11.2775 11.8507 11.7487 12.8257 11.7487ZM18.8169 13V4.50125H20.7831V6.09375C21.3194 5.02125 22.1156 4.3875 23.5456 4.37125V6.2075C21.8231 6.22375 20.7831 6.77625 20.7831 8.58V13H18.8169ZM27.0182 13.1625C25.4582 13.1625 24.1744 12.415 24.1744 10.6437C24.1744 8.66125 26.0919 7.94625 28.5294 7.94625H29.5857V7.5075C29.5857 6.37 29.1957 5.80125 28.0419 5.80125C27.0182 5.80125 26.5144 6.28875 26.4169 7.13375H24.5157C24.6782 5.15125 26.2544 4.3225 28.1557 4.3225C30.0569 4.3225 31.5519 5.1025 31.5519 7.42625V13H29.6182V11.96C29.0657 12.6912 28.3182 13.1625 27.0182 13.1625ZM27.4894 11.7487C28.6919 11.7487 29.5857 11.115 29.5857 10.0262V9.18125H28.5782C27.0832 9.18125 26.1244 9.5225 26.1244 10.5625C26.1244 11.2775 26.5144 11.7487 27.4894 11.7487ZM39.2539 13.1625C37.6939 13.1625 36.4102 12.415 36.4102 10.6437C36.4102 8.66125 38.3277 7.94625 40.7652 7.94625H41.8214V7.5075C41.8214 6.37 41.4314 5.80125 40.2777 5.80125C39.2539 5.80125 38.7502 6.28875 38.6527 7.13375H36.7514C36.9139 5.15125 38.4902 4.3225 40.3914 4.3225C42.2927 4.3225 43.7877 5.1025 43.7877 7.42625V13H41.8539V11.96C41.3014 12.6912 40.5539 13.1625 39.2539 13.1625ZM39.7252 11.7487C40.9277 11.7487 41.8214 11.115 41.8214 10.0262V9.18125H40.8139C39.3189 9.18125 38.3602 9.5225 38.3602 10.5625C38.3602 11.2775 38.7502 11.7487 39.7252 11.7487ZM52.1559 13.1463C50.4659 13.1463 49.5884 12.2362 49.5884 10.6275V5.98H48.4509V4.50125H49.5884V2.6325H51.5547V4.50125H53.4234V5.98H51.5547V10.4487C51.5547 11.1962 51.9122 11.5375 52.5297 11.5375C52.9197 11.5375 53.2122 11.4887 53.4884 11.375V12.935C53.1797 13.0488 52.7572 13.1463 52.1559 13.1463ZM54.9369 13V4.50125H56.9032V6.09375C57.4394 5.02125 58.2357 4.3875 59.6657 4.37125V6.2075C57.9432 6.22375 56.9032 6.77625 56.9032 8.58V13H54.9369ZM63.1382 13.1625C61.5782 13.1625 60.2945 12.415 60.2945 10.6437C60.2945 8.66125 62.212 7.94625 64.6495 7.94625H65.7057V7.5075C65.7057 6.37 65.3157 5.80125 64.162 5.80125C63.1382 5.80125 62.6345 6.28875 62.537 7.13375H60.6357C60.7982 5.15125 62.3745 4.3225 64.2757 4.3225C66.177 4.3225 67.672 5.1025 67.672 7.42625V13H65.7382V11.96C65.1857 12.6912 64.4382 13.1625 63.1382 13.1625ZM63.6095 11.7487C64.812 11.7487 65.7057 11.115 65.7057 10.0262V9.18125H64.6982C63.2032 9.18125 62.2445 9.5225 62.2445 10.5625C62.2445 11.2775 62.6345 11.7487 63.6095 11.7487ZM69.6007 13V4.50125H71.5669V5.85C71.9732 5.02125 72.9157 4.3225 74.3132 4.3225C76.0194 4.3225 77.2219 5.31375 77.2219 7.65375V13H75.2557V7.8325C75.2557 6.54875 74.7357 5.96375 73.5657 5.96375C72.4607 5.96375 71.5669 6.64625 71.5669 7.995V13H69.6007ZM82.0709 13.1625C79.8771 13.1625 78.5934 12.155 78.5121 10.3512H80.3646C80.4621 11.2125 80.9009 11.7162 82.0546 11.7162C83.1109 11.7162 83.5821 11.3425 83.5821 10.6275C83.5821 9.92875 83.0134 9.66875 81.7621 9.4575C79.5196 9.1 78.6909 8.46625 78.6909 6.87375C78.6909 5.1675 80.2834 4.3225 81.8759 4.3225C83.6146 4.3225 84.9959 4.9725 85.2071 6.89H83.3871C83.2246 6.11 82.7859 5.7525 81.8759 5.7525C81.0309 5.7525 80.5271 6.15875 80.5271 6.76C80.5271 7.3775 80.9334 7.62125 82.2821 7.84875C84.2809 8.1575 85.4671 8.645 85.4671 10.4487C85.4671 12.1712 84.2484 13.1625 82.0709 13.1625ZM86.9157 13V4.50125H88.8819V13H86.9157ZM87.8744 3.10375C87.2244 3.10375 86.7044 2.61625 86.7044 1.9825C86.7044 1.3325 87.2244 0.845 87.8744 0.845C88.5244 0.845 89.0444 1.3325 89.0444 1.9825C89.0444 2.61625 88.5244 3.10375 87.8744 3.10375ZM94.3823 16.5588C93.3585 16.5588 92.6923 16.0063 92.5948 15.1288H93.6673C93.716 15.405 93.9273 15.665 94.3173 15.665C94.691 15.665 94.9185 15.4375 94.9185 15.1125C94.9185 14.8038 94.691 14.5925 94.3498 14.5925C94.1223 14.5925 93.9598 14.6738 93.8623 14.7388L93.3098 14.2188L93.9598 13.1138C91.8798 12.8375 90.3848 11.31 90.3848 8.85625V8.72625C90.3848 6.02875 92.3023 4.3225 94.6748 4.3225C96.5598 4.3225 98.331 5.1675 98.5585 7.5075H96.6573C96.4948 6.37 95.7473 5.89875 94.7073 5.89875C93.3585 5.89875 92.3998 6.93875 92.3998 8.69375V8.82375C92.3998 10.6762 93.3098 11.6512 94.756 11.6512C95.796 11.6512 96.6898 11.0337 96.8035 9.83125H98.6073C98.461 11.7162 97.0798 13.065 94.9023 13.1625L94.5285 13.8125C95.341 13.715 96.1535 14.1375 96.1535 15.1613C96.1535 16.0713 95.3898 16.5588 94.3823 16.5588ZM102.202 13.1625C100.642 13.1625 99.358 12.415 99.358 10.6437C99.358 8.66125 101.275 7.94625 103.713 7.94625H104.769V7.5075C104.769 6.37 104.379 5.80125 103.225 5.80125C102.202 5.80125 101.698 6.28875 101.6 7.13375H99.6992C99.8617 5.15125 101.438 4.3225 103.339 4.3225C105.24 4.3225 106.735 5.1025 106.735 7.42625V13H104.802V11.96C104.249 12.6912 103.502 13.1625 102.202 13.1625ZM102.673 11.7487C103.875 11.7487 104.769 11.115 104.769 10.0262V9.18125H103.762C102.267 9.18125 101.308 9.5225 101.308 10.5625C101.308 11.2775 101.698 11.7487 102.673 11.7487ZM104.282 3.1525C103.502 3.1525 102.949 2.5025 102.478 2.5025C102.185 2.5025 101.942 2.77875 101.877 3.1525H100.658C100.788 1.7875 101.487 1.02375 102.397 1.02375C103.144 1.02375 103.713 1.6575 104.217 1.6575C104.509 1.6575 104.737 1.3975 104.802 1.0075H106.02C105.89 2.3725 105.175 3.1525 104.282 3.1525ZM112.467 11.635C113.929 11.635 114.807 10.5462 114.807 8.8075V8.69375C114.807 6.93875 113.929 5.86625 112.467 5.86625C111.004 5.86625 110.11 6.9225 110.11 8.6775V8.8075C110.11 10.5462 110.972 11.635 112.467 11.635ZM112.45 13.1625C109.948 13.1625 108.095 11.4237 108.095 8.84V8.71C108.095 6.0775 109.964 4.3225 112.467 4.3225C114.953 4.3225 116.822 6.06125 116.822 8.66125V8.79125C116.822 11.44 114.953 13.1625 112.45 13.1625Z" fill="black"/>
</svg>
