<svg width="60" height="14" viewBox="0 0 60 14" fill="none" xmlns="http://www.w3.org/2000/svg">
<path d="M6.6625 11.4237C8.85625 11.4237 10.2375 9.75 10.2375 7.23125V7.10125C10.2375 4.7125 8.905 2.94125 6.63 2.94125C4.355 2.94125 3.00625 4.615 3.00625 7.1175V7.2475C3.00625 9.7825 4.55 11.4237 6.6625 11.4237ZM6.63 13.1625C3.07125 13.1625 0.7475 10.6113 0.7475 7.26375V7.13375C0.7475 3.7375 3.185 1.21875 6.63 1.21875C10.0913 1.21875 12.48 3.6725 12.48 7.085V7.215C12.48 10.6113 10.1562 13.1625 6.63 13.1625ZM21.3482 13.1625C18.9107 13.1625 17.0582 11.57 17.0582 8.85625V8.72625C17.0582 6.02875 18.9757 4.3225 21.3482 4.3225C23.2332 4.3225 25.0044 5.1675 25.2319 7.5075H23.3307C23.1682 6.37 22.4207 5.89875 21.3807 5.89875C20.0319 5.89875 19.0732 6.93875 19.0732 8.69375V8.82375C19.0732 10.6762 19.9832 11.6512 21.4294 11.6512C22.4694 11.6512 23.3632 11.0337 23.4769 9.83125H25.2807C25.1344 11.7812 23.6557 13.1625 21.3482 13.1625ZM30.4514 11.635C31.9139 11.635 32.7914 10.5462 32.7914 8.8075V8.69375C32.7914 6.93875 31.9139 5.86625 30.4514 5.86625C28.9889 5.86625 28.0951 6.9225 28.0951 8.6775V8.8075C28.0951 10.5462 28.9564 11.635 30.4514 11.635ZM30.4351 13.1625C27.9326 13.1625 26.0801 11.4237 26.0801 8.84V8.71C26.0801 6.0775 27.9489 4.3225 30.4514 4.3225C32.9376 4.3225 34.8064 6.06125 34.8064 8.66125V8.79125C34.8064 11.44 32.9376 13.1625 30.4351 13.1625ZM41.0029 13.1625C39.6542 13.1625 38.6792 12.4962 38.2242 11.635V13H36.2579V0.568749H38.2242V5.86625C38.6954 5.05375 39.7517 4.3225 41.0029 4.3225C43.1317 4.3225 44.7729 5.89875 44.7729 8.645V8.775C44.7729 11.505 43.1967 13.1625 41.0029 13.1625ZM40.5154 11.6025C41.9617 11.6025 42.7579 10.6275 42.7579 8.8075V8.6775C42.7579 6.7925 41.7829 5.86625 40.4992 5.86625C39.1342 5.86625 38.1592 6.7925 38.1592 8.6775V8.8075C38.1592 10.7087 39.0854 11.6025 40.5154 11.6025ZM46.2161 13V4.50125H48.1824V6.09375C48.7186 5.02125 49.5149 4.3875 50.9449 4.37125V6.2075C49.2224 6.22375 48.1824 6.77625 48.1824 8.58V13H46.2161ZM55.9287 13.1625C53.4262 13.1625 51.6224 11.5212 51.6224 8.84V8.71C51.6224 6.0775 53.4262 4.3225 55.8474 4.3225C57.9599 4.3225 59.8612 5.57375 59.8612 8.6125V9.18125H53.6374C53.7024 10.79 54.5149 11.7 55.9774 11.7C57.1637 11.7 57.7812 11.2287 57.9274 10.4H59.8287C59.5524 12.1875 58.1062 13.1625 55.9287 13.1625ZM53.6699 7.865H57.9112C57.8137 6.4025 57.0662 5.7525 55.8474 5.7525C54.6612 5.7525 53.8649 6.54875 53.6699 7.865Z" fill="black"/>
</svg>
