<svg width="55" height="13" viewBox="0 0 55 13" fill="none" xmlns="http://www.w3.org/2000/svg">
<path d="M0.17 12V3.50125H2.13625V4.85C2.5425 4.02125 3.485 3.3225 4.8825 3.3225C6.58875 3.3225 7.79125 4.31375 7.79125 6.65375V12H5.825V6.8325C5.825 5.54875 5.305 4.96375 4.135 4.96375C3.03 4.96375 2.13625 5.64625 2.13625 6.995V12H0.17ZM11.9577 12.1625C10.3977 12.1625 9.11397 11.415 9.11397 9.64375C9.11397 7.66125 11.0315 6.94625 13.469 6.94625H14.5252V6.5075C14.5252 5.37 14.1352 4.80125 12.9815 4.80125C11.9577 4.80125 11.454 5.28875 11.3565 6.13375H9.45522C9.61772 4.15125 11.194 3.3225 13.0952 3.3225C14.9965 3.3225 16.4915 4.1025 16.4915 6.42625V12H14.5577V10.96C14.0052 11.6912 13.2577 12.1625 11.9577 12.1625ZM12.429 10.7487C13.6315 10.7487 14.5252 10.115 14.5252 9.02625V8.18125H13.5177C12.0227 8.18125 11.064 8.5225 11.064 9.5625C11.064 10.2775 11.454 10.7487 12.429 10.7487ZM22.1297 12V0.381249H26.2897C28.6785 0.381249 30.0922 1.29125 30.0922 3.40375V3.46875C30.0922 4.6225 29.5722 5.5325 28.256 5.93875C29.8322 6.28 30.5797 7.14125 30.5797 8.685V8.75C30.5797 10.9112 29.1497 12 26.5985 12H22.1297ZM24.2422 10.4562H26.3385C27.7847 10.4562 28.451 9.80625 28.451 8.60375V8.53875C28.451 7.33625 27.7847 6.735 26.1922 6.735H24.2422V10.4562ZM24.2422 5.2725H26.0297C27.4597 5.2725 28.0122 4.7525 28.0122 3.56625V3.50125C28.0122 2.39625 27.3785 1.925 25.9972 1.925H24.2422V5.2725ZM32.2784 12V0.381249H34.4396V5.32125H39.6559V0.381249H41.8334V12H39.6559V7.06H34.4396V12H32.2784ZM44.1567 12V0.381249H47.8942C50.4942 0.381249 52.2005 1.535 52.2005 3.9725V4.0375C52.2005 6.49125 50.4292 7.58 47.943 7.58H46.318V12H44.1567ZM46.318 6.02H47.8942C49.3242 6.02 50.088 5.32125 50.088 4.0375V3.9725C50.088 2.59125 49.2755 2.055 47.8942 2.055H46.318V6.02ZM52.9483 12.1138C52.2333 12.1138 51.6646 11.5612 51.6646 10.8462C51.6646 10.1312 52.2333 9.5625 52.9483 9.5625C53.6796 9.5625 54.2483 10.1312 54.2483 10.8462C54.2483 11.5612 53.6796 12.1138 52.9483 12.1138Z" fill="#DD5900"/>
</svg>
