<svg width="728" height="90" viewBox="0 0 728 90" fill="none" xmlns="http://www.w3.org/2000/svg">
  <path d="M51.6,22.1l-.6-2h-3.7l-.7,2h-1.6l3.1-9.2h1.9l3.1,9.2h-1.6ZM47.7,18.8h2.8l-1.4-4.2-1.4,4.2ZM60.6,22.1h-1.6l-1.3-4.5-1.2,4.5h-1.7l-1.9-6.8h1.5l1.3,4.9,1.4-4.9h1.3l1.4,4.9,1.2-4.9h1.4l-1.8,6.8ZM66.6,21.2c-.4.6-1,1.1-2,1.1s-2.2-.8-2.2-2,1-1.8,2.1-2l1.4-.2c.5,0,.7-.3.7-.7,0-.6-.4-1.1-1.2-1.1s-1.2.5-1.3,1.1h-1.6c0-1.1,1-2.2,2.8-2.2s2.8,1,2.8,2.5v3.2c0,.4,0,.8.1,1.2h-1.6c0-.3,0-.5,0-.9h0ZM66.7,18.6c-.2.2-.5.3-.9.4l-.7.2c-.7.1-1.1.4-1.1,1s.4,1,1.1,1,1.6-.6,1.6-1.5v-1.1ZM70.9,18.5v3.6h-1.5v-6.8h1.5v1h0c.3-.7.9-1,1.4-1h.7v1.4h-.7c-1.1,0-1.6.5-1.6,1.7ZM78.2,21.1c-.4.6-1.1,1.1-2,1.1-1.6,0-2.8-1.4-2.8-3.5s1.2-3.5,2.8-3.5,1.6.4,2,1.1h0v-3.8h1.5v9.6h-1.5v-.9h0ZM75,18.9c0,1.3.6,2.1,1.7,2.1s1.6-.8,1.6-2v-.7c0-1.2-.7-2-1.6-2s-1.7.7-1.7,2.1v.5ZM81,19.2v-1.4h3.4v1.4h-3.4ZM92.5,22.1h-1.6l-1.3-4.5-1.2,4.5h-1.7l-1.9-6.8h1.5l1.3,4.9,1.4-4.9h1.3l1.4,4.9,1.2-4.9h1.4l-1.8,6.8ZM94.7,13.3c0-.5.4-1,1-1s1,.4,1,1-.4,1-1,1-1-.4-1-1ZM94.9,15.3h1.5v6.8h-1.5v-6.8ZM99.2,17.9v4.2h-1.5v-6.8h1.5v.8h0c.4-.6,1-.9,1.9-.9,1.3,0,2.2,1,2.2,2.5v4.4h-1.5v-4.3c0-.8-.3-1.3-1.2-1.3s-1.4.6-1.4,1.4ZM106.1,17.9v4.2h-1.5v-6.8h1.5v.8h0c.4-.6,1-.9,1.9-.9,1.3,0,2.2,1,2.2,2.5v4.4h-1.5v-4.3c0-.8-.3-1.3-1.2-1.3s-1.4.6-1.4,1.4ZM111.3,13.3c0-.5.4-1,1-1s1,.4,1,1-.4,1-1,1-1-.4-1-1ZM111.5,15.3h1.5v6.8h-1.5v-6.8ZM115.9,17.9v4.2h-1.5v-6.8h1.5v.8h0c.4-.6,1-.9,1.9-.9,1.3,0,2.2,1,2.2,2.5v4.4h-1.5v-4.3c0-.8-.3-1.3-1.2-1.3s-1.4.6-1.4,1.4ZM121.1,22.3h1.7c.1.7.5,1.1,1.4,1.1s1.4-.7,1.4-1.7v-1h0c-.4.6-1.1,1.1-1.9,1.1-1.6,0-2.7-1.2-2.7-3.3s1.1-3.3,2.7-3.3,1.5.4,1.9,1.1h0v-.9h1.5v6.5c0,1.6-1,2.7-3.1,2.7s-2.8-1-3-2.1ZM122.5,18.7c0,1.3.6,1.9,1.6,1.9s1.6-.8,1.6-1.9v-.4c0-1.1-.6-1.9-1.6-1.9s-1.6.6-1.6,1.9v.4ZM52.7,24.8v1.3h-2.9v7.9h-1.6v-7.9h-2.9v-1.3h7.5ZM53.9,30.5v3.6h-1.5v-6.8h1.5v1h0c.3-.7.9-1,1.4-1h.7v1.4h-.7c-1.1,0-1.6.5-1.6,1.7ZM60.5,33.2c-.4.6-1,1.1-2,1.1s-2.2-.8-2.2-2,1-1.8,2.1-2l1.4-.2c.5,0,.7-.3.7-.7,0-.6-.4-1.1-1.2-1.1s-1.2.5-1.3,1.1h-1.6c0-1.1,1-2.2,2.8-2.2s2.8,1,2.8,2.5v3.2c0,.4,0,.8.1,1.2h-1.6c0-.3,0-.5,0-.9h0ZM60.5,30.6c-.2.2-.5.3-.9.4l-.7.2c-.7.1-1.1.4-1.1,1s.4,1,1.1,1,1.6-.6,1.6-1.5v-1.1ZM62.4,27.3h1.6l1.8,5.1,1.8-5.1h1.6l-2.5,6.8h-1.9l-2.5-6.8ZM75.5,32.1c-.3,1.1-1.4,2.2-3,2.2s-3.3-1.4-3.3-3.5,1.3-3.5,3.2-3.5,3.1,1.4,3.1,3.5v.4h-4.8c0,1.2.7,2,1.7,2s1.2-.4,1.5-1h1.5ZM72.5,28.3c-.9,0-1.5.6-1.6,1.7h3.2c0-1-.6-1.7-1.6-1.7ZM78.4,34.1c-1.2,0-1.9-.7-1.9-1.8v-7.8h1.5v7.7c0,.4.2.7.7.7h.5v1.2h-.7ZM82.2,24.8h1.6v9.2h-1.6v-9.2ZM86.6,29.9v4.2h-1.5v-6.8h1.5v.8h0c.4-.6,1-.9,1.9-.9,1.3,0,2.2,1,2.2,2.5v4.4h-1.5v-4.3c0-.8-.3-1.3-1.2-1.3s-1.4.6-1.4,1.4ZM91.6,32.1h1.5c.1.6.5,1,1.4,1s1.2-.3,1.2-.9-.2-.7-.9-.8h-1.2c-1.4-.3-1.9-1-1.9-2s1.1-2.2,2.7-2.2,2.6,1,2.7,2h-1.5c0-.5-.5-.9-1.2-.9s-1.2.4-1.2.9.2.7,1,.8h1.2c1.3.3,1.8.9,1.8,2s-1.2,2.2-2.8,2.2-2.8-.9-2.9-2.1ZM102.3,31.5v-4.2h1.5v6.8h-1.5v-.8h0c-.4.6-1,.9-1.9.9-1.3,0-2.2-1-2.2-2.5v-4.4h1.5v4.3c0,.8.3,1.3,1.2,1.3s1.4-.7,1.4-1.4ZM106.6,30.5v3.6h-1.5v-6.8h1.5v1h0c.3-.7.9-1,1.4-1h.7v1.4h-.7c-1.1,0-1.6.5-1.6,1.7ZM113.3,33.2c-.4.6-1,1.1-2,1.1s-2.2-.8-2.2-2,1-1.8,2.1-2l1.4-.2c.5,0,.7-.3.7-.7,0-.6-.4-1.1-1.2-1.1s-1.2.5-1.3,1.1h-1.6c0-1.1,1-2.2,2.8-2.2s2.8,1,2.8,2.5v3.2c0,.4,0,.8.1,1.2h-1.6c0-.3,0-.5,0-.9h0ZM113.3,30.6c-.2.2-.5.3-.9.4l-.7.2c-.7.1-1.1.4-1.1,1s.4,1,1.1,1,1.6-.6,1.6-1.5v-1.1ZM117.6,29.9v4.2h-1.5v-6.8h1.5v.8h0c.4-.6,1-.9,1.9-.9,1.3,0,2.2,1,2.2,2.5v4.4h-1.5v-4.3c0-.8-.3-1.3-1.2-1.3s-1.4.6-1.4,1.4ZM122.6,30.7c0-2.1,1.3-3.5,3.2-3.5s2.7,1,2.9,2.4h-1.5c-.1-.7-.6-1.2-1.4-1.2s-1.6.8-1.6,2v.6c0,1.3.7,2,1.6,2s1.3-.5,1.4-1.2h1.5c-.2,1.3-1.3,2.4-3,2.4s-3.2-1.4-3.2-3.5ZM135.5,32.1c-.3,1.1-1.4,2.2-3,2.2s-3.3-1.4-3.3-3.5,1.3-3.5,3.2-3.5,3.1,1.4,3.1,3.5v.4h-4.8c0,1.2.7,2,1.7,2s1.2-.4,1.5-1h1.5ZM132.4,28.3c-.9,0-1.5.6-1.6,1.7h3.2c0-1-.6-1.7-1.6-1.7Z" fill="#fff" stroke-width="0"/>
  <path d="M192.6,22.1l-.7-2h-3.7l-.6,2h-1.6l3.1-9.2h1.9l3.1,9.2h-1.6ZM188.7,18.8h2.8l-1.4-4.2-1.4,4.2ZM198.9,19.5v-4.2h1.5v6.8h-1.5v-.8h0c-.4.6-1,.9-1.9.9-1.3,0-2.2-1-2.2-2.5v-4.4h1.5v4.3c0,.8.3,1.3,1.2,1.3s1.4-.6,1.4-1.4ZM201.3,20.1h1.5c.1.6.5,1,1.4,1s1.2-.3,1.2-.9-.2-.7-.9-.8h-1.2c-1.4-.3-1.9-1-1.9-2s1.1-2.2,2.7-2.2,2.6,1,2.7,2h-1.5c0-.5-.5-.9-1.2-.9s-1.2.4-1.2.9.2.7,1,.8h1.2c1.3.3,1.8.9,1.8,2s-1.2,2.2-2.8,2.2-2.8-.9-2.9-2.1ZM208.4,20.1v-3.6h-1.3v-1.2h1.3v-2.5h1.5v2.5h1.5v1.2h-1.5v3.5c0,.6.3.8.9.8h.6v1.3h-.9c-1.5,0-2.2-.7-2.2-2ZM214.1,18.5v3.6h-1.5v-6.8h1.5v1h0c.3-.7.9-1,1.4-1h.7v1.4h-.7c-1.1,0-1.6.5-1.6,1.7ZM220.8,21.2c-.4.6-1,1.1-2,1.1s-2.2-.8-2.2-2,1-1.8,2.1-2l1.4-.2c.5,0,.7-.3.7-.7,0-.6-.4-1.1-1.2-1.1s-1.2.5-1.3,1.1h-1.6c0-1.1,1-2.2,2.8-2.2s2.8,1,2.8,2.5v3.2c0,.4,0,.8.1,1.2h-1.6c0-.3,0-.5,0-.9h0ZM220.8,18.6c-.2.2-.5.3-.9.4l-.7.2c-.7.1-1.1.4-1.1,1s.4,1,1.1,1,1.6-.6,1.6-1.5v-1.1ZM225.4,22.1c-1.2,0-1.9-.7-1.9-1.8v-7.8h1.5v7.7c0,.4.2.7.6.7h.5v1.2h-.7ZM226.8,13.3c0-.5.4-1,1-1s1,.4,1,1-.4,1-1,1-1-.4-1-1ZM227,15.3h1.5v6.8h-1.5v-6.8ZM233.6,21.2c-.4.6-1,1.1-2,1.1s-2.2-.8-2.2-2,1-1.8,2.1-2l1.4-.2c.5,0,.7-.3.7-.7,0-.6-.4-1.1-1.2-1.1s-1.2.5-1.3,1.1h-1.6c0-1.1,1-2.2,2.8-2.2s2.8,1,2.8,2.5v3.2c0,.4,0,.8.1,1.2h-1.6c0-.3,0-.5,0-.9h0ZM233.6,18.6c-.2.2-.5.3-.9.4l-.7.2c-.7.1-1.1.4-1.1,1s.4,1,1.1,1,1.6-.6,1.6-1.5v-1.1ZM238.6,12.8h3.8c2,0,3.2,1.1,3.2,3s-1.2,3-3.2,3h-2.2v3.2h-1.6v-9.2ZM242.2,17.5c1.2,0,1.9-.5,1.9-1.7s-.7-1.7-1.9-1.7h-2v3.4h2ZM245.9,18.7c0-2.1,1.3-3.5,3.2-3.5s3.2,1.4,3.2,3.5-1.3,3.5-3.2,3.5-3.2-1.4-3.2-3.5ZM250.8,18.4c0-1.3-.7-2-1.7-2s-1.7.7-1.7,2v.6c0,1.3.6,2,1.7,2s1.7-.8,1.7-2v-.6ZM252.9,20.1h1.5c.1.6.5,1,1.4,1s1.2-.3,1.2-.9-.2-.7-.9-.8h-1.2c-1.4-.3-1.9-1-1.9-2s1.1-2.2,2.7-2.2,2.6,1,2.7,2h-1.5c0-.5-.5-.9-1.2-.9s-1.2.4-1.2.9.2.7,1,.8h1.2c1.3.3,1.8.9,1.8,2s-1.2,2.2-2.8,2.2-2.8-.9-2.9-2.1ZM260,20.1v-3.6h-1.3v-1.2h1.3v-2.5h1.5v2.5h1.5v1.2h-1.5v3.5c0,.6.3.8.9.8h.6v1.3h-.9c-1.5,0-2.2-.7-2.2-2ZM273.2,12.8v1.3h-2.9v7.9h-1.6v-7.9h-2.9v-1.3h7.5ZM274.3,18.5v3.6h-1.5v-6.8h1.5v1h0c.3-.7.9-1,1.4-1h.7v1.4h-.7c-1.1,0-1.6.5-1.6,1.7ZM281,21.2c-.4.6-1,1.1-2,1.1s-2.2-.8-2.2-2,1-1.8,2.1-2l1.4-.2c.5,0,.7-.3.7-.7,0-.6-.4-1.1-1.2-1.1s-1.2.5-1.3,1.1h-1.6c0-1.1,1-2.2,2.8-2.2s2.8,1,2.8,2.5v3.2c0,.4,0,.8.1,1.2h-1.6c0-.3,0-.5,0-.9h0ZM281,18.6c-.2.2-.5.3-.9.4l-.7.2c-.7.1-1.1.4-1.1,1s.4,1,1.1,1,1.6-.6,1.6-1.5v-1.1ZM282.9,15.3h1.6l1.8,5.1,1.8-5.1h1.6l-2.5,6.8h-1.9l-2.5-6.8ZM296,20.1c-.3,1.1-1.4,2.2-3,2.2s-3.3-1.4-3.3-3.5,1.3-3.5,3.2-3.5,3.1,1.4,3.1,3.5v.4h-4.8c0,1.2.7,2,1.7,2s1.2-.4,1.5-1h1.5ZM292.9,16.3c-.9,0-1.5.6-1.6,1.7h3.2c0-1-.6-1.7-1.6-1.7ZM298.8,22.1c-1.2,0-1.9-.7-1.9-1.8v-7.8h1.5v7.7c0,.4.2.7.6.7h.5v1.2h-.7ZM186.8,24.8h3.8c2,0,3.2,1.1,3.2,3s-1.2,3-3.2,3h-2.2v3.2h-1.6v-9.2ZM190.3,29.5c1.2,0,1.9-.5,1.9-1.7s-.7-1.7-1.9-1.7h-2v3.4h2ZM196.5,34.1c-1.2,0-1.9-.7-1.9-1.8v-7.8h1.5v7.7c0,.4.2.7.6.7h.5v1.2h-.7ZM201.9,33.2c-.4.6-1,1.1-2,1.1s-2.2-.8-2.2-2,1-1.8,2.1-2l1.4-.2c.5,0,.7-.3.7-.7,0-.6-.4-1.1-1.2-1.1s-1.2.5-1.3,1.1h-1.6c0-1.1,1-2.2,2.8-2.2s2.8,1,2.8,2.5v3.2c0,.4,0,.8.1,1.2h-1.6c0-.3,0-.5,0-.9h0ZM201.9,30.6c-.2.2-.5.3-.9.4l-.7.2c-.7.1-1.1.4-1.1,1s.4,1,1.1,1,1.6-.6,1.6-1.5v-1.1ZM205.2,32.1v-3.6h-1.3v-1.2h1.3v-2.5h1.5v2.5h1.5v1.2h-1.5v3.5c0,.6.3.8.9.8h.6v1.3h-.9c-1.5,0-2.2-.7-2.2-2ZM209.2,25.3c0-.5.4-1,1-1s1,.4,1,1-.4,1-1,1-1-.4-1-1ZM209.4,27.3h1.5v6.8h-1.5v-6.8ZM213.7,29.9v4.2h-1.5v-6.8h1.5v.8h0c.4-.6,1-.9,1.9-.9,1.3,0,2.2,1,2.2,2.5v4.4h-1.5v-4.3c0-.8-.3-1.3-1.2-1.3s-1.4.6-1.4,1.4ZM223.3,31.5v-4.2h1.5v6.8h-1.5v-.8h0c-.4.6-1,.9-1.9.9-1.3,0-2.2-1-2.2-2.5v-4.4h1.5v4.3c0,.8.3,1.3,1.2,1.3s1.4-.7,1.4-1.4ZM227.6,29.8v4.2h-1.5v-6.8h1.5v.8h0c.4-.5.9-.9,1.8-.9s1.4.4,1.8,1.1h0c.4-.6,1.1-1.1,2.1-1.1s2.1,1,2.1,2.5v4.4h-1.5v-4.2c0-.8-.3-1.4-1.1-1.4s-1.3.6-1.3,1.4v4.2h-1.5v-4.2c0-.8-.3-1.4-1.1-1.4s-1.3.6-1.3,1.4ZM243.3,32.5l-2.7-5.5v7h-1.5v-9.2h2l2.6,5.3,2.6-5.3h2v9.2h-1.5v-7.1l-2.7,5.6h-.6ZM253.3,33.2c-.4.6-1,1.1-2,1.1s-2.2-.8-2.2-2,1-1.8,2.1-2l1.4-.2c.5,0,.7-.3.7-.7,0-.6-.4-1.1-1.2-1.1s-1.2.5-1.3,1.1h-1.6c0-1.1,1-2.2,2.8-2.2s2.8,1,2.8,2.5v3.2c0,.4,0,.8.1,1.2h-1.6c0-.3,0-.5,0-.9h0ZM253.3,30.6c-.2.2-.5.3-.9.4l-.7.2c-.7.1-1.1.4-1.1,1s.4,1,1.1,1,1.6-.6,1.6-1.5v-1.1ZM255.7,32.1h1.5c.1.6.5,1,1.4,1s1.2-.3,1.2-.9-.2-.7-.9-.8h-1.2c-1.4-.3-1.9-1-1.9-2s1.1-2.2,2.7-2.2,2.6,1,2.7,2h-1.5c0-.5-.5-.9-1.2-.9s-1.2.4-1.2.9.2.7,1,.8h1.2c1.3.3,1.8.9,1.8,2s-1.2,2.2-2.8,2.2-2.8-.9-2.9-2.1ZM262.8,32.1v-3.6h-1.3v-1.2h1.3v-2.5h1.5v2.5h1.5v1.2h-1.5v3.5c0,.6.3.8.9.8h.6v1.3h-.9c-1.5,0-2.2-.7-2.2-2ZM272.7,32.1c-.3,1.1-1.4,2.2-3,2.2s-3.3-1.4-3.3-3.5,1.3-3.5,3.2-3.5,3.1,1.4,3.1,3.5v.4h-4.8c0,1.2.7,2,1.7,2s1.2-.4,1.5-1h1.5ZM269.6,28.3c-.9,0-1.5.6-1.6,1.7h3.2c0-1-.6-1.7-1.6-1.7ZM275.2,30.5v3.6h-1.5v-6.8h1.5v1h0c.3-.7.9-1,1.4-1h.7v1.4h-.7c-1.1,0-1.6.5-1.6,1.7ZM277.7,30.7c0-2.1,1.3-3.5,3.2-3.5s2.7,1,2.9,2.4h-1.5c-.1-.7-.6-1.2-1.4-1.2s-1.6.8-1.6,2v.6c0,1.3.6,2,1.6,2s1.3-.5,1.4-1.2h1.5c-.2,1.3-1.3,2.4-3,2.4s-3.2-1.4-3.2-3.5ZM288.5,33.2c-.4.6-1,1.1-2,1.1s-2.2-.8-2.2-2,1-1.8,2.1-2l1.4-.2c.5,0,.7-.3.7-.7,0-.6-.4-1.1-1.2-1.1s-1.2.5-1.3,1.1h-1.6c0-1.1,1-2.2,2.8-2.2s2.8,1,2.8,2.5v3.2c0,.4,0,.8.1,1.2h-1.6c0-.3,0-.5,0-.9h0ZM288.5,30.6c-.2.2-.5.3-.9.4l-.7.2c-.7.1-1.1.4-1.1,1s.4,1,1.1,1,1.6-.6,1.6-1.5v-1.1ZM292.8,30.5v3.6h-1.5v-6.8h1.5v1h0c.3-.7.9-1,1.4-1h.7v1.4h-.7c-1.1,0-1.6.5-1.6,1.7ZM300.1,33.1c-.4.6-1.1,1.1-2,1.1-1.6,0-2.8-1.4-2.8-3.5s1.2-3.5,2.8-3.5,1.6.4,2,1.1h0v-3.8h1.5v9.6h-1.5v-.9h0ZM296.8,30.9c0,1.3.6,2.1,1.7,2.1s1.6-.8,1.6-2v-.7c0-1.2-.7-2-1.6-2s-1.7.7-1.7,2.1v.5Z" fill="#fff" stroke-width="0"/>
  <path d="M360.8,12.8v1.3h-2.9v7.9h-1.6v-7.9h-2.9v-1.3h7.5ZM361.9,18.5v3.6h-1.5v-6.8h1.5v1h0c.3-.7.9-1,1.4-1h.7v1.4h-.7c-1.1,0-1.6.5-1.6,1.7ZM368.6,21.2c-.4.6-1,1.1-2,1.1s-2.2-.8-2.2-2,1-1.8,2.1-2l1.4-.2c.5,0,.7-.3.7-.7,0-.6-.4-1.1-1.2-1.1s-1.2.5-1.3,1.1h-1.6c0-1.1,1-2.2,2.8-2.2s2.8,1,2.8,2.5v3.2c0,.4,0,.8.1,1.2h-1.6c0-.3,0-.5,0-.9h0ZM368.6,18.6c-.2.2-.5.3-.9.4l-.7.2c-.7.1-1.1.4-1.1,1s.4,1,1.1,1,1.6-.6,1.6-1.5v-1.1ZM370.5,15.3h1.6l1.8,5.1,1.8-5.1h1.6l-2.5,6.8h-1.9l-2.5-6.8ZM383.6,20.1c-.3,1.1-1.4,2.2-3,2.2s-3.3-1.4-3.3-3.5,1.3-3.5,3.2-3.5,3.1,1.4,3.1,3.5v.4h-4.8c0,1.2.7,2,1.7,2s1.2-.4,1.5-1h1.5ZM380.5,16.3c-.9,0-1.5.6-1.6,1.7h3.2c0-1-.6-1.7-1.6-1.7ZM386.4,22.1c-1.2,0-1.9-.7-1.9-1.8v-7.8h1.5v7.7c0,.4.2.7.6.7h.5v1.2h-.7ZM393.9,20.1c-.3,1.1-1.4,2.2-3,2.2s-3.3-1.4-3.3-3.5,1.3-3.5,3.2-3.5,3.1,1.4,3.1,3.5v.4h-4.8c0,1.2.7,2,1.7,2s1.2-.4,1.5-1h1.5ZM390.8,16.3c-.9,0-1.5.6-1.6,1.7h3.2c0-1-.6-1.7-1.6-1.7ZM393.9,15.3h1.7l1.6,2.3,1.5-2.3h1.7l-2.3,3.3,2.4,3.4h-1.7l-1.7-2.4-1.6,2.4h-1.7l2.4-3.5-2.3-3.3ZM359.4,28.8v1.3h-4v4h-1.6v-9.2h6v1.3h-4.4v2.6h4ZM360.1,30.7c0-2.1,1.3-3.5,3.2-3.5s3.2,1.4,3.2,3.5-1.3,3.5-3.2,3.5-3.2-1.4-3.2-3.5ZM365,30.4c0-1.3-.7-2-1.7-2s-1.7.7-1.7,2v.6c0,1.3.6,2,1.7,2s1.7-.8,1.7-2v-.6ZM369,30.5v3.6h-1.5v-6.8h1.5v1h0c.3-.7.9-1,1.4-1h.7v1.4h-.7c-1.1,0-1.6.5-1.6,1.7ZM377.8,32.1c-.3,1.1-1.4,2.2-3,2.2s-3.3-1.4-3.3-3.5,1.3-3.5,3.2-3.5,3.1,1.4,3.1,3.5v.4h-4.8c0,1.2.7,2,1.7,2s1.2-.4,1.5-1h1.5ZM374.7,28.3c-.9,0-1.5.6-1.6,1.7h3.2c0-1-.6-1.7-1.6-1.7ZM378.5,25.3c0-.5.4-1,1-1s1,.4,1,1-.4,1-1,1-1-.4-1-1ZM378.7,27.3h1.5v6.8h-1.5v-6.8ZM381.3,34.3h1.7c.1.7.5,1.1,1.4,1.1s1.4-.7,1.4-1.7v-1h0c-.4.6-1.1,1.1-1.9,1.1-1.6,0-2.7-1.2-2.7-3.3s1.1-3.3,2.7-3.3,1.5.4,1.9,1.1h0v-.9h1.5v6.5c0,1.6-1,2.7-3.1,2.7s-2.8-1-3-2.1ZM382.7,30.7c0,1.3.6,1.9,1.6,1.9s1.6-.8,1.6-1.9v-.4c0-1.1-.6-1.9-1.6-1.9s-1.6.6-1.6,1.9v.4ZM390.2,29.9v4.2h-1.5v-6.8h1.5v.8h0c.4-.6,1-.9,1.9-.9,1.3,0,2.2,1,2.2,2.5v4.4h-1.5v-4.3c0-.8-.3-1.3-1.2-1.3s-1.4.6-1.4,1.4ZM401.9,24.7c2.2,0,3.6,1.3,3.9,3h-1.7c-.2-.9-.9-1.7-2.2-1.7s-2.7,1.2-2.7,3.1v.6c0,1.9,1.1,3.2,2.7,3.2s2.1-.8,2.2-1.7h1.7c-.3,1.8-1.7,3-3.9,3s-4.4-1.8-4.4-4.8,1.8-4.8,4.4-4.8ZM410.5,33.2c-.4.6-1,1.1-2,1.1s-2.2-.8-2.2-2,1-1.8,2.1-2l1.4-.2c.5,0,.7-.3.7-.7,0-.6-.4-1.1-1.2-1.1s-1.2.5-1.3,1.1h-1.6c0-1.1,1-2.2,2.8-2.2s2.8,1,2.8,2.5v3.2c0,.4,0,.8.1,1.2h-1.6c0-.3,0-.5,0-.9h0ZM410.5,30.6c-.2.2-.5.3-.9.4l-.7.2c-.7.1-1.1.4-1.1,1s.4,1,1.1,1,1.6-.6,1.6-1.5v-1.1ZM412.8,32.1h1.5c.1.6.5,1,1.4,1s1.2-.3,1.2-.9-.2-.7-.9-.8h-1.2c-1.4-.3-1.9-1-1.9-2s1.1-2.2,2.7-2.2,2.6,1,2.7,2h-1.5c0-.5-.5-.9-1.2-.9s-1.2.4-1.2.9.2.7,1,.8h1.2c1.3.3,1.8.9,1.8,2s-1.2,2.2-2.8,2.2-2.8-.9-2.9-2.1ZM420.9,29.9v4.2h-1.5v-9.6h1.5v3.7h0c.4-.6,1-.9,1.9-.9,1.3,0,2.2,1,2.2,2.5v4.4h-1.5v-4.3c0-.8-.3-1.3-1.2-1.3s-1.4.6-1.4,1.4Z" fill="#fff" stroke-width="0"/>
  <g>
    <path d="M22.3,21l-.8.5v-3.9c0-1.8.7-3.8,2.1-3.8s2.1,2,2.1,3.8v3.9l-.8-.5v-3.4c0-1.6-.6-3-1.3-3s-1.3,1.4-1.3,3v3.4ZM32.8,25.2c0-.2-.2-.4-.3-.5,0,0,0,0,0,0,0,0-.1-.1-.2-.2,0,0,0,0,0,0,0,0-.1-.1-.2-.2l-2.6-1.5v-1.3c0-.7-.6-1.3-1.3-1.3h-.4c0,0-.2,0-.2,0,0,0,0,0,0,0,0,0-.1,0-.2,0,0,0,0,0,0,0,0,0,0,0-.1,0,0,0,0,0,0,0,0,0-.1,0-.1.1,0,0,0,0,0,0,0,0,0,.1-.1.2,0,0,0,0,0,0,0,0,0,0,0,.1,0,0,0,0,0,0,0,.1,0,.3,0,.5v.6l.8.5v-1.1c0-.2.2-.4.4-.4h.4c.2,0,.4.2.4.4v1.8h.2c0,.1,2.8,1.8,2.8,1.8,0,0,0,0,.1.1,0,0,0,0,0,.1.1.1.2.3.2.5v.2h-.4c0-.1-3.4-1.1-3.4-1.1h-3.3l-.6,5.3,2,1.6c.1.1.2.3.2.4h0c0,.1-2.9-.6-2.9-.6,0,0-.1,0-.2,0l-2.9.7h0c0-.3,0-.5.2-.6l2-1.6-.6-5.3h-3.3l-3.8,1.1v-.2c0-.2,0-.4.2-.5,0,0,0,0,0-.1,0,0,0,0,.1-.1l2.8-1.6h.2v-2c0-.2.2-.4.4-.4h.4c.2,0,.4.2.4.4v1.1l.8-.5v-.6c0-.2,0-.3,0-.5,0,0,0,0,0,0,0,0,0,0,0-.1,0,0,0,0,0,0,0,0,0-.1-.1-.2,0,0,0,0,0,0,0,0,0,0-.1-.1,0,0,0,0,0,0,0,0,0,0-.1,0,0,0,0,0,0,0,0,0,0,0-.2,0,0,0,0,0,0,0,0,0-.2,0-.2,0h-.4c-.7,0-1.3.6-1.3,1.3v1.3l-2.6,1.5c0,0-.2.1-.2.2,0,0,0,0,0,0,0,0-.1.1-.2.2,0,0,0,0,0,0-.2.3-.4.7-.4,1v.8c0,.1,0,.3.2.3,0,0,.2,0,.3,0s0,0,.1,0l4.2-1.3h2.5l.5,4.1-1.7,1.3c-.3.3-.5.7-.5,1.1v.7c0,.1,0,.3.2.3.1,0,.2.1.4,0l2.9-.7h.4c0-.1.4,0,.4,0l2.9.7s0,0,.1,0c0,0,.2,0,.3,0,.1,0,.2-.2.2-.3v-.7c0-.4-.2-.8-.5-1.1l-1.7-1.3.5-4.1h2.5l4.2,1.3s0,0,.1,0c0,0,.2,0,.3,0,.1,0,.2-.2.2-.3v-.8c0-.2,0-.3,0-.5h0Z" fill="#fff" stroke-width="0"/>
    <path d="M10,23.6c0,7.3,5.9,13.3,13.1,13.6v-.8c-6.8-.2-12.3-5.8-12.3-12.7s5.5-12.5,12.3-12.7v-.8c-7.3.2-13.1,6.2-13.1,13.6Z" fill="#fff" stroke-width="0"/>
    <path d="M24,10v.8c6.8.2,12.3,5.8,12.3,12.7s-5.5,12.5-12.3,12.7v.8c7.3-.2,13.1-6.2,13.1-13.6s-5.9-13.3-13.1-13.6Z" fill="#fff" stroke-width="0"/>
  </g>
  <g>
    <path d="M151,23.6c0,7.3,5.8,13.3,13.1,13.6v-.8c-7-.2-12.5-6.1-12.3-13.1.2-6.7,5.6-12.1,12.3-12.3v-.8c-7.3.2-13.1,6.2-13.1,13.6Z" fill="#fff" stroke-width="0"/>
    <path d="M165,10v.8c7,.2,12.5,6.1,12.3,13.1-.2,6.7-5.6,12.1-12.3,12.3v.8c7.5-.2,13.4-6.5,13.1-14-.2-7.2-6-12.9-13.1-13.1Z" fill="#fff" stroke-width="0"/>
    <path d="M158.2,26.5h3v.8h-3v-.8ZM162,24.8h-3.8v.8h3.8v-.8ZM168.8,26.5c0,.5.4.8.8.8s.8-.4.8-.8-.4-.8-.8-.8-.8.4-.8.8ZM172.2,22.3h-15.3v6.4c0,.2.2.4.4.4h14.4c.2,0,.4-.2.4-.4v-5.5h.8v5.5c0,.7-.6,1.3-1.3,1.3h-14.4c-.7,0-1.3-.6-1.3-1.3v-7.2h16.1v-.8h-16.1v-2.1c0-.7.6-1.3,1.3-1.3h14.4c.7,0,1.3.6,1.3,1.3v3.8h-.8ZM172.2,19.7v-1.3c0-.2-.2-.4-.4-.4h-14.4c-.2,0-.4.2-.4.4v1.3h15.3Z" fill="#fff" stroke-width="0"/>
  </g>
  <g>
    <path d="M318.1,23.6c0,7.3,5.8,13.3,13.1,13.6v-.8c-7-.2-12.5-6.1-12.3-13.1.2-6.7,5.6-12.1,12.3-12.3v-.8c-7.3.2-13.1,6.2-13.1,13.6Z" fill="#fff" stroke-width="0"/>
    <path d="M332,10v.8c7,.2,12.5,6.1,12.3,13.1-.2,6.7-5.6,12.1-12.3,12.3v.8c7.5-.2,13.4-6.5,13.1-14-.2-7.2-6-12.9-13.1-13.1Z" fill="#fff" stroke-width="0"/>
    <path d="M338,20.6h-3.8c0-1.2-.9-2.1-2.1-2.1s-2.1.9-2.1,2.1h-3.8c-.2,0-.4-.1-.5-.3,0-.2.1-.4.3-.5,0,0,0,0,0,0h1.7c0,0,.2,0,.2,0l6.4-4,2.1,4.1h.9l-2.5-4.9c-.1-.2-.4-.3-.6-.2,0,0,0,0,0,0l-6.7,4.2h-1.6c-.7,0-1.3.6-1.3,1.3v9.3c0,.7.6,1.3,1.3,1.3h11.9c.2,0,.4-.2.4-.4v-9.3c0-.2-.2-.4-.4-.4h0ZM330.8,20.6c0-.7.6-1.3,1.3-1.3s1.3.6,1.3,1.3h-2.5ZM337.5,29.9h-11.4c-.2,0-.4-.2-.4-.4v-8.1c.1,0,.3,0,.5,0h11.4v2.1h-2.3c-.7.5-1.1,1.3-1.1,2.1,0,.8.4,1.6,1.1,2.1h0s2.2,0,2.2,0v2.1h0ZM335.6,26.9c-.7-.7-.7-1.8,0-2.5,0,0,0,0,0,0h2v2.5h-2Z" fill="#fff" stroke-width="0"/>
  </g>
  <g>
    <path d="M441.1,23.6c0,7.3,5.8,13.3,13.1,13.6v-.8c-6.8-.2-12.3-5.8-12.3-12.7s5.5-12.5,12.3-12.7v-.9c-7.3.2-13.1,6.2-13.1,13.6Z" fill="#fff" stroke-width="0"/>
    <path d="M468.2,23.6c0,7.3-5.9,13.3-13.1,13.6v-.8c6.8-.2,12.3-5.8,12.3-12.7s-5.5-12.5-12.3-12.7v-.8c7.3.2,13.1,6.2,13.1,13.6Z" fill="#fff" stroke-width="0"/>
    <path d="M450.8,26.4h.2c.1,0,.2,0,.3,0,0,0,.1,0,.2.1,0,0,0,.1,0,.2,0,.1,0,.2-.1.3,0,0-.2,0-.4,0h-.1v-.7h0ZM450.3,28.4h.5v-.9h.2c.2,0,.4,0,.5,0,.1,0,.2-.1.3-.3,0-.1.1-.3.1-.4s0-.2,0-.3c0,0,0-.2-.1-.2,0,0-.1-.1-.2-.1,0,0-.1,0-.2,0,0,0-.2,0-.4,0h-.6v2.5Z" fill="#fff" stroke-width="0"/>
    <path d="M461,16.9c-.2,0-.4.2-.4.4v13.5c0,.5-.4,1-1,1h-10c-.5,0-.8-.4-.8-.8v-14.5c0-.5.4-.8.8-.8h8.8c.5,0,.8.4.8.8v12.8c0,.5-.4.8-.8.8h-8.1c-.2,0-.4.2-.4.4s.2.4.4.4h8.1c.8,0,1.5-.7,1.5-1.5v-12.8c0-.8-.7-1.5-1.5-1.5h-8.8c-.8,0-1.5.7-1.5,1.5v14.5c0,.8.7,1.5,1.5,1.5h10c.9,0,1.7-.8,1.7-1.7v-13.5c0-.2-.2-.4-.4-.4" fill="#fff" stroke-width="0"/>
    <path d="M455.1,28c-.1,0-.2,0-.3-.1,0,0,0-.1,0-.2h-.5c0,0,0,.1,0,.2,0,0,0,.1,0,.2,0,0,.1.1.2.2,0,0,.1,0,.2.1,0,0,.2,0,.3,0,.2,0,.4,0,.5-.2.2-.1.3-.4.3-.6s0-.2,0-.3,0-.2-.1-.2c0,0-.1-.1-.2-.2,0,0-.2,0-.3-.1-.1,0-.2,0-.3-.1,0,0,0-.1,0-.2s0-.1,0-.2c0,0,.1,0,.2,0s.2,0,.2,0c0,0,0,.1,0,.2h.5c0-.1,0-.2,0-.3,0,0,0-.1-.1-.2,0,0-.1-.1-.2-.2,0,0-.2,0-.3,0s-.2,0-.4,0c-.1,0-.2.1-.3.3,0,.1,0,.2,0,.4s0,.2,0,.3c0,0,0,.2.2.2,0,0,.2.1.3.2.2,0,.3.1.4.1,0,0,.1,0,.1.1,0,0,0,0,0,.2,0,0,0,.2,0,.2,0,0-.1,0-.2,0" fill="#fff" stroke-width="0"/>
    <path d="M457,28c-.1,0-.2,0-.3-.1,0,0,0-.1,0-.2h-.5c0,0,0,.1,0,.2,0,0,0,.1,0,.2,0,0,.1.1.2.2,0,0,.1,0,.2.1,0,0,.2,0,.3,0,.2,0,.4,0,.5-.2.2-.1.3-.4.3-.6s0-.2,0-.3c0,0,0-.2-.1-.2,0,0-.1-.1-.2-.2,0,0-.2,0-.3-.1-.1,0-.2,0-.3-.1,0,0,0-.1,0-.2s0-.1,0-.2c0,0,.1,0,.2,0s.2,0,.2,0c0,0,0,.1,0,.2h.5c0-.1,0-.2,0-.3,0,0,0-.1-.1-.2,0,0-.1-.1-.2-.2,0,0-.2,0-.3,0s-.2,0-.4,0c-.1,0-.2.1-.3.3,0,.1,0,.2,0,.4s0,.2,0,.3c0,0,0,.2.2.2,0,0,.2.1.3.2.2,0,.3.1.4.1,0,0,.1,0,.1.1,0,0,0,0,0,.2,0,0,0,.2,0,.2,0,0-.1,0-.2,0" fill="#fff" stroke-width="0"/>
    <path d="M455.6,22.9c.2-.3.4-.6.5-1,.4-.1.7-.3,1-.5-.3.6-.8,1.2-1.5,1.5M451.5,21.4c.3.2.6.3,1,.5.1.4.3.7.5,1-.6-.3-1.2-.8-1.5-1.5M453,17.4c-.2.3-.4.6-.5,1-.4.1-.7.3-1,.5.3-.6.8-1.2,1.5-1.5M457.1,18.8c-.3-.2-.6-.3-1-.5-.1-.4-.3-.7-.5-1,.6.3,1.2.8,1.5,1.5M456.3,20.4h1c-.1.3-.5.6-1.1.9,0-.3,0-.6,0-.9M454.5,21.6v-1.2h1.2c0,.4,0,.7-.1,1-.3,0-.7.1-1.1.1M454.5,23.1v-1c.3,0,.6,0,.9-.1-.2.6-.6,1-.9,1.1ZM454,22.1v1c-.4-.1-.7-.5-.9-1.1.3,0,.6,0,.9.1ZM452.8,20.4h1.2v1.2c-.4,0-.8,0-1.1-.1,0-.3-.1-.7-.1-1M452.2,20.4c0,.3,0,.6,0,.9-.6-.2-.9-.5-1.1-.9h1,0ZM452.2,19.9h-1c.1-.3.5-.6,1.1-.9,0,.3,0,.6,0,.9M454,18.7v1.2h-1.2c0-.4,0-.7.1-1,.3,0,.7-.1,1.1-.1M454,17.1v1c-.3,0-.6,0-.9.1.2-.6.6-1,.9-1.1ZM454.5,18.1v-1c.4.1.7.5.9,1.1-.3,0-.6,0-.9-.1ZM455.8,19.9h-1.2v-1.2c.4,0,.8,0,1.1.1,0,.3.1.7.1,1M456.3,19.9c0-.3,0-.6,0-.9.6.2.9.5,1.1.9h-1,0ZM454.3,16.5c-2,0-3.6,1.6-3.6,3.6s1.6,3.6,3.6,3.6,3.6-1.6,3.6-3.6-1.6-3.6-3.6-3.6Z" fill="#fff" stroke-width="0"/>
    <path d="M452.9,26.6l.3.8h-.6l.3-.8h0ZM451.7,28.4h.5l.3-.6h.9l.3.6h.5l-1-2.5h-.4l-1,2.5h0Z" fill="#fff" stroke-width="0"/>
  </g>
  <path d="M476.8,12.8h3.8c2,0,3.2,1.1,3.2,3s-1.2,3-3.2,3h-2.2v3.2h-1.6v-9.2ZM480.4,17.5c1.2,0,1.9-.5,1.9-1.7s-.7-1.7-1.9-1.7h-2v3.4h2ZM488.3,21.2c-.4.6-1,1.1-2,1.1s-2.2-.8-2.2-2,1-1.8,2.1-2l1.4-.2c.5,0,.7-.3.7-.7,0-.6-.4-1.1-1.2-1.1s-1.2.5-1.3,1.1h-1.6c0-1.1,1-2.2,2.8-2.2s2.8,1,2.8,2.5v3.2c0,.4,0,.8.1,1.2h-1.6c0-.3,0-.5,0-.9h0ZM488.4,18.6c-.2.2-.5.3-.9.4l-.7.2c-.7.1-1.1.4-1.1,1s.4,1,1.1,1,1.6-.6,1.6-1.5v-1.1ZM490.7,20.1h1.5c.1.6.5,1,1.4,1s1.2-.3,1.2-.9-.2-.7-.9-.8h-1.2c-1.4-.3-1.9-1-1.9-2s1.1-2.2,2.7-2.2,2.6,1,2.7,2h-1.5c0-.5-.5-.9-1.2-.9s-1.2.4-1.2.9.2.7,1,.8h1.2c1.3.3,1.8.9,1.8,2s-1.2,2.2-2.8,2.2-2.8-.9-2.9-2.1ZM496.9,20.1h1.5c.1.6.5,1,1.4,1s1.2-.3,1.2-.9-.2-.7-.9-.8h-1.2c-1.4-.3-1.9-1-1.9-2s1.1-2.2,2.7-2.2,2.6,1,2.7,2h-1.5c0-.5-.5-.9-1.2-.9s-1.2.4-1.2.9.2.7,1,.8h1.2c1.3.3,1.8.9,1.8,2s-1.2,2.2-2.8,2.2-2.8-.9-2.9-2.1ZM505,21.1h0v3.1h-1.5v-9h1.5v.9h0c.4-.6,1.1-1.1,2-1.1,1.6,0,2.8,1.4,2.8,3.5s-1.2,3.5-2.8,3.5-1.6-.4-2-1.1ZM505,19c0,1.2.7,2,1.6,2s1.7-.7,1.7-2.1v-.5c0-1.3-.6-2.1-1.7-2.1s-1.6.8-1.6,2v.7ZM510.4,18.7c0-2.1,1.3-3.5,3.2-3.5s3.2,1.4,3.2,3.5-1.3,3.5-3.2,3.5-3.2-1.4-3.2-3.5ZM515.2,18.4c0-1.3-.7-2-1.7-2s-1.7.7-1.7,2v.6c0,1.3.6,2,1.7,2s1.7-.8,1.7-2v-.6ZM519.2,18.5v3.6h-1.5v-6.8h1.5v1h0c.3-.7.9-1,1.4-1h.7v1.4h-.7c-1.1,0-1.6.5-1.6,1.7ZM523,20.1v-3.6h-1.3v-1.2h1.3v-2.5h1.5v2.5h1.5v1.2h-1.5v3.5c0,.6.3.8.9.8h.6v1.3h-.9c-1.5,0-2.2-.7-2.2-2ZM476.4,32.1h1.5c.1.6.5,1,1.4,1s1.2-.3,1.2-.9-.2-.7-.9-.8h-1.2c-1.4-.3-1.9-1-1.9-2s1.1-2.2,2.7-2.2,2.6,1,2.7,2h-1.5c0-.5-.5-.9-1.2-.9s-1.2.4-1.2.9.2.7,1,.8h1.2c1.3.3,1.8.9,1.8,2s-1.2,2.2-2.8,2.2-2.8-.9-2.9-2.1ZM488.8,32.1c-.3,1.1-1.4,2.2-3,2.2s-3.3-1.4-3.3-3.5,1.3-3.5,3.2-3.5,3.1,1.4,3.1,3.5v.4h-4.8c0,1.2.7,2,1.7,2s1.2-.4,1.5-1h1.5ZM485.8,28.3c-.9,0-1.5.6-1.6,1.7h3.2c0-1-.6-1.7-1.6-1.7ZM491.3,30.5v3.6h-1.5v-6.8h1.5v1h0c.3-.7.9-1,1.4-1h.7v1.4h-.7c-1.1,0-1.6.5-1.6,1.7ZM493.7,27.3h1.6l1.8,5.1,1.8-5.1h1.6l-2.5,6.8h-1.9l-2.5-6.8ZM500.9,25.3c0-.5.4-1,1-1s1,.4,1,1-.4,1-1,1-1-.4-1-1ZM501.1,27.3h1.5v6.8h-1.5v-6.8ZM503.5,30.7c0-2.1,1.3-3.5,3.2-3.5s2.7,1,2.9,2.4h-1.5c-.1-.7-.6-1.2-1.4-1.2s-1.6.8-1.6,2v.6c0,1.3.7,2,1.6,2s1.3-.5,1.4-1.2h1.5c-.2,1.3-1.3,2.4-3,2.4s-3.2-1.4-3.2-3.5ZM516.4,32.1c-.3,1.1-1.4,2.2-3,2.2s-3.3-1.4-3.3-3.5,1.3-3.5,3.2-3.5,3.1,1.4,3.1,3.5v.4h-4.8c0,1.2.7,2,1.7,2s1.2-.4,1.5-1h1.5ZM513.4,28.3c-.9,0-1.5.6-1.6,1.7h3.2c0-1-.6-1.7-1.6-1.7ZM517,32.1h1.5c.1.6.5,1,1.4,1s1.2-.3,1.2-.9-.2-.7-.9-.8h-1.2c-1.4-.3-1.9-1-1.9-2s1.1-2.2,2.7-2.2,2.6,1,2.7,2h-1.5c0-.5-.5-.9-1.2-.9s-1.2.4-1.2.9.2.7,1,.8h1.2c1.3.3,1.8.9,1.8,2s-1.2,2.2-2.8,2.2-2.8-.9-2.9-2.1Z" fill="#fff" stroke-width="0"/>
</svg>