<svg width="224" height="64" viewBox="0 0 224 64" fill="none" xmlns="http://www.w3.org/2000/svg">
<path d="M6.86151 27L0.673107 1.5206H7.81651L11.1017 18.596L15.1127 2.1318H21.2629L25.3121 18.596L28.5591 1.5206H35.4733L29.1321 27H22.0651L18.0541 10.8796L14.0431 27H6.86151ZM38.1345 27V1.5206H44.8959V27H38.1345ZM55.7781 27V7.4416H47.9471V1.5206H70.3705V7.4416H62.6159V27H55.7781ZM73.4247 27V1.5206H80.1861V10.8414H89.5833V1.5206H96.3447V27H89.5833V17.0298H80.1861V27H73.4247ZM105.68 27L115.039 1.5206H122.794L131.809 27H124.513L122.87 21.7284H114.352L112.671 27H105.68ZM115.727 16.8006H121.495L118.668 7.4416L115.727 16.8006ZM141.17 27V1.5206H147.931V21.0408H159.735V27H141.17ZM174.099 27.6112C172.189 27.6112 170.419 27.2801 168.789 26.618C167.185 25.9559 165.784 25.0263 164.587 23.8294C163.416 22.607 162.499 21.1809 161.837 19.551C161.175 17.9211 160.844 16.1385 160.844 14.203C160.844 12.2675 161.175 10.4849 161.837 8.855C162.499 7.22513 163.416 5.81173 164.587 4.6148C165.784 3.41787 167.185 2.48833 168.789 1.8262C170.419 1.16406 172.189 0.832997 174.099 0.832997C176.009 0.832997 177.766 1.16406 179.371 1.8262C181 2.48833 182.414 3.41787 183.611 4.6148C184.808 5.81173 185.725 7.22513 186.361 8.855C187.023 10.4849 187.354 12.2675 187.354 14.203C187.354 16.1385 187.023 17.9211 186.361 19.551C185.725 21.1809 184.808 22.607 183.611 23.8294C182.414 25.0263 181 25.9559 179.371 26.618C177.766 27.2801 176.009 27.6112 174.099 27.6112ZM174.099 21.27C175.449 21.27 176.582 20.9517 177.499 20.315C178.441 19.6783 179.154 18.8252 179.638 17.7556C180.122 16.686 180.364 15.5018 180.364 14.203C180.364 12.9042 180.122 11.72 179.638 10.6504C179.154 9.5808 178.441 8.72767 177.499 8.091C176.582 7.45433 175.449 7.136 174.099 7.136C172.775 7.136 171.641 7.45433 170.699 8.091C169.782 8.72767 169.069 9.5808 168.56 10.6504C168.076 11.72 167.834 12.9042 167.834 14.203C167.834 15.5018 168.076 16.686 168.56 17.7556C169.069 18.8252 169.782 19.6783 170.699 20.315C171.641 20.9517 172.775 21.27 174.099 21.27ZM194.728 27L188.54 1.5206H195.683L198.968 18.596L202.979 2.1318H209.129L213.179 18.596L216.426 1.5206H223.34L216.999 27H209.932L205.921 10.8796L201.91 27H194.728ZM1.26186 64L11.8459 35.1856H20.6155L30.8107 64H22.5595L20.7019 58.0384H11.0683L9.16746 64H1.26186ZM12.6235 52.4656H19.1467L15.9499 41.8816L12.6235 52.4656ZM33.592 64V35.1856H44.6512C47.6176 35.1856 50.2528 35.704 52.5568 36.7408C54.8896 37.7488 56.7328 39.3328 58.0864 41.4928C59.44 43.624 60.1168 46.3744 60.1168 49.744C60.1168 52.912 59.44 55.5616 58.0864 57.6928C56.7328 59.7952 54.8752 61.3792 52.5136 62.4448C50.1808 63.4816 47.5456 64 44.608 64H33.592ZM41.2384 57.2608H44.3488C46.8256 57.2608 48.7552 56.5552 50.1376 55.144C51.52 53.704 52.2112 51.8464 52.2112 49.5712C52.2112 47.2672 51.5776 45.4096 50.3104 43.9984C49.0432 42.5872 47.056 41.8816 44.3488 41.8816H41.2384V57.2608ZM63.5731 64L64.9123 35.1856H72.2131L79.2115 47.7568L86.0803 35.1856H93.4243L94.7635 64H87.0307L86.3395 47.1088L81.2851 56.9584H77.0947L71.4787 47.1088L70.9171 64H63.5731ZM99.3623 64V35.1856H107.009V64H99.3623ZM112.187 64V35.1856H119.143L130.202 51.256V35.1856H137.762V64H131.239L119.747 47.4544V64H112.187ZM150.747 64V35.1856H170.835V41.8816H158.393V47.4544H168.027V53.7616H158.393V64H150.747ZM174.287 64V35.1856H195.023V41.7952H181.934V46.2448H192.691V52.4656H181.934V57.3904H195.931V64H174.287ZM199.895 64V35.1856H220.631V41.7952H207.542V46.2448H218.298V52.4656H207.542V57.3904H221.538V64H199.895Z" fill="white"/>
</svg>
