<?xml version="1.0" encoding="utf-8"?>
<!-- Generator: Adobe Illustrator 27.7.0, SVG Export Plug-In . SVG Version: 6.00 Build 0)  -->
<svg version="1.1" id="Layer_1" xmlns="http://www.w3.org/2000/svg" xmlns:xlink="http://www.w3.org/1999/xlink" x="0px" y="0px"
	 viewBox="0 0 185.6 86.2" style="enable-background:new 0 0 185.6 86.2;" xml:space="preserve">
<style type="text/css">
	.st0{fill:#FFFFFF;}
</style>
<path class="st0" d="M1.4,23.6v-23h5.6l8.8,12.8V0.6h6v23h-5.2L7.4,10.4v13.2H1.4z M36.7,24.2c-1.7,0-3.3-0.3-4.8-0.9
	c-1.4-0.6-2.7-1.4-3.8-2.5c-1.1-1.1-1.9-2.4-2.5-3.9c-0.6-1.5-0.9-3.1-0.9-4.8c0-1.7,0.3-3.4,0.9-4.8c0.6-1.5,1.4-2.7,2.5-3.8
	c1.1-1.1,2.3-1.9,3.8-2.5C33.3,0.3,34.9,0,36.7,0s3.3,0.3,4.8,0.9c1.5,0.6,2.7,1.4,3.8,2.5c1.1,1.1,1.9,2.4,2.5,3.8
	c0.6,1.5,0.9,3.1,0.9,4.8c0,1.7-0.3,3.4-0.9,4.8c-0.6,1.5-1.4,2.8-2.5,3.9c-1.1,1.1-2.4,1.9-3.8,2.5C40,23.9,38.4,24.2,36.7,24.2z
	 M36.7,18.5c1.2,0,2.2-0.3,3.1-0.9c0.9-0.6,1.5-1.3,1.9-2.3s0.7-2,0.7-3.2s-0.2-2.2-0.7-3.2s-1.1-1.7-1.9-2.3
	c-0.8-0.6-1.9-0.9-3.1-0.9c-1.2,0-2.2,0.3-3.1,0.9c-0.8,0.6-1.5,1.3-1.9,2.3c-0.4,1-0.7,2-0.7,3.2s0.2,2.2,0.7,3.2
	c0.5,1,1.1,1.7,1.9,2.3C34.5,18.2,35.5,18.5,36.7,18.5z M63.1,23.6V6H56V0.6h20.3V6h-7v17.7H63.1z M78.7,23.6v-23h6.1v23H78.7z
	 M88.1,23.6l1.1-23H95l5.6,10l5.5-10h5.9l1.1,23h-6.2l-0.6-13.5l-4,7.9h-3.3l-4.5-7.9L94,23.6H88.1z M116.4,23.6v-23h16.6v5.3h-10.5
	v3.6h8.6v5h-8.6v3.9h11.2v5.3H116.4z M148,23.6V6H141V0.6h20.3V6h-7v17.7H148z M173.7,24.2c-1.7,0-3.3-0.3-4.8-0.9
	c-1.4-0.6-2.7-1.4-3.8-2.5c-1.1-1.1-1.9-2.4-2.5-3.9s-0.9-3.1-0.9-4.8c0-1.7,0.3-3.4,0.9-4.8s1.4-2.7,2.5-3.8
	c1.1-1.1,2.3-1.9,3.8-2.5c1.5-0.6,3.1-0.9,4.8-0.9c1.7,0,3.3,0.3,4.8,0.9c1.5,0.6,2.7,1.4,3.8,2.5c1.1,1.1,1.9,2.4,2.5,3.8
	c0.6,1.5,0.9,3.1,0.9,4.8c0,1.7-0.3,3.4-0.9,4.8c-0.6,1.5-1.4,2.8-2.5,3.9c-1.1,1.1-2.4,1.9-3.8,2.5C177,23.9,175.4,24.2,173.7,24.2
	z M173.7,18.5c1.2,0,2.2-0.3,3.1-0.9c0.9-0.6,1.5-1.3,1.9-2.3c0.4-1,0.7-2,0.7-3.2s-0.2-2.2-0.7-3.2c-0.4-1-1.1-1.7-1.9-2.3
	c-0.8-0.6-1.9-0.9-3.1-0.9c-1.2,0-2.2,0.3-3.1,0.9c-0.8,0.6-1.5,1.3-1.9,2.3c-0.4,1-0.7,2-0.7,3.2s0.2,2.2,0.7,3.2
	c0.5,1,1.1,1.7,1.9,2.3C171.4,18.2,172.5,18.5,173.7,18.5z M1.4,54.6v-23h6.1V40H16v-8.4h6.1v23H16v-9H7.5v9H1.4z M36.9,55.2
	c-1.7,0-3.3-0.3-4.8-0.9c-1.4-0.6-2.7-1.4-3.8-2.5c-1.1-1.1-1.9-2.4-2.5-3.9c-0.6-1.5-0.9-3.1-0.9-4.8c0-1.7,0.3-3.4,0.9-4.8
	c0.6-1.5,1.4-2.7,2.5-3.8c1.1-1.1,2.3-1.9,3.8-2.5c1.5-0.6,3.1-0.9,4.8-0.9s3.3,0.3,4.8,0.9c1.5,0.6,2.7,1.4,3.8,2.5
	c1.1,1.1,1.9,2.4,2.5,3.8c0.6,1.5,0.9,3.1,0.9,4.8c0,1.7-0.3,3.4-0.9,4.8c-0.6,1.5-1.4,2.8-2.5,3.9c-1.1,1.1-2.4,1.9-3.8,2.5
	C40.3,54.9,38.7,55.2,36.9,55.2z M36.9,49.5c1.2,0,2.2-0.3,3.1-0.9c0.9-0.6,1.5-1.3,1.9-2.3c0.4-1,0.7-2,0.7-3.2
	c0-1.2-0.2-2.2-0.7-3.2c-0.4-1-1.1-1.7-1.9-2.3c-0.8-0.6-1.9-0.9-3.1-0.9c-1.2,0-2.2,0.3-3.1,0.9c-0.8,0.6-1.5,1.3-1.9,2.3
	c-0.4,1-0.7,2-0.7,3.2c0,1.2,0.2,2.2,0.7,3.2c0.5,1,1.1,1.7,1.9,2.3C34.7,49.2,35.7,49.5,36.9,49.5z M51.8,54.6v-23h9.4
	c2.5,0,4.4,0.7,5.9,2c1.5,1.3,2.2,3.2,2.2,5.7c0,1.6-0.3,2.9-1,4.1c-0.7,1.2-1.6,2-2.8,2.7c-1.2,0.6-2.6,0.9-4.1,0.9h-3.6v7.7H51.8z
	 M57.8,42.2h2.9c0.8,0,1.5-0.3,2-0.8c0.5-0.5,0.7-1.2,0.7-2c0-0.9-0.2-1.6-0.7-2.1c-0.5-0.5-1.1-0.8-2-0.8h-2.9V42.2z M72,54.6v-23
	h16.6v5.3H78.1v3.6h8.6v5h-8.6v3.9h11.2v5.3H72z M98,54.6v-23h16V37h-9.9v4.5h7.7v5h-7.7v8.2H98z M126.7,55.2
	c-1.7,0-3.3-0.3-4.8-0.9c-1.4-0.6-2.7-1.4-3.8-2.5c-1.1-1.1-1.9-2.4-2.5-3.9s-0.9-3.1-0.9-4.8c0-1.7,0.3-3.4,0.9-4.8
	s1.4-2.7,2.5-3.8c1.1-1.1,2.3-1.9,3.8-2.5c1.5-0.6,3.1-0.9,4.8-0.9c1.7,0,3.3,0.3,4.8,0.9c1.5,0.6,2.7,1.4,3.8,2.5
	c1.1,1.1,1.9,2.4,2.5,3.8c0.6,1.5,0.9,3.1,0.9,4.8c0,1.7-0.3,3.4-0.9,4.8c-0.6,1.5-1.4,2.8-2.5,3.9c-1.1,1.1-2.4,1.9-3.8,2.5
	C130,54.9,128.4,55.2,126.7,55.2z M126.7,49.5c1.2,0,2.2-0.3,3.1-0.9c0.9-0.6,1.5-1.3,1.9-2.3c0.4-1,0.7-2,0.7-3.2
	c0-1.2-0.2-2.2-0.7-3.2c-0.4-1-1.1-1.7-1.9-2.3c-0.8-0.6-1.9-0.9-3.1-0.9c-1.2,0-2.2,0.3-3.1,0.9c-0.8,0.6-1.5,1.3-1.9,2.3
	c-0.4,1-0.7,2-0.7,3.2c0,1.2,0.2,2.2,0.7,3.2c0.5,1,1.1,1.7,1.9,2.3C124.5,49.2,125.5,49.5,126.7,49.5z M141.5,54.6v-23h9.5
	c2.5,0,4.4,0.6,5.9,1.9c1.5,1.3,2.2,3.1,2.2,5.6c0,1.5-0.3,2.8-1,3.9c-0.7,1.1-1.6,2-2.7,2.7l4.9,8.8H154l-3.9-7.8h-2.6v7.8H141.5z
	 M147.5,42h3c0.8,0,1.5-0.2,2-0.7c0.5-0.5,0.8-1.2,0.8-2c0-0.9-0.2-1.6-0.7-2.1c-0.5-0.5-1.2-0.8-2-0.8h-2.9V42z M7.1,85.6V68H0
	v-5.3h20.3V68h-7v17.7H7.1z M22.7,85.6v-23h6.1V71h8.5v-8.4h6.1v23h-6.1v-9h-8.5v9H22.7z M47.2,85.6v-23h16.6v5.3H53.3v3.6h8.6v5
	h-8.6v3.9h11.2v5.3H47.2z M73.1,85.6v-23h9.3c1.6,0,3,0.2,4,0.5c1.1,0.3,1.9,0.8,2.5,1.4c0.6,0.6,1,1.2,1.3,1.9
	c0.3,0.7,0.4,1.4,0.4,2.1c0,0.9-0.2,1.6-0.6,2.3c-0.4,0.6-0.8,1.2-1.3,1.6c-0.5,0.4-1,0.7-1.4,0.9c0.6,0.2,1.2,0.5,1.9,0.9
	c0.7,0.4,1.3,1,1.9,1.8c0.5,0.8,0.8,1.7,0.8,2.9c0,2.3-0.8,3.9-2.4,5c-1.6,1.1-3.9,1.6-7,1.6H73.1z M79.1,71.9h2.7
	c0.7,0,1.3-0.2,1.9-0.5c0.6-0.4,0.9-1,0.9-1.9c0-1-0.3-1.7-0.9-2c-0.6-0.3-1.2-0.5-1.9-0.5h-2.7V71.9z M79.1,81.3h3.1
	c0.5,0,1-0.1,1.5-0.2c0.6-0.1,1-0.4,1.4-0.8c0.4-0.4,0.6-1,0.6-1.8c0-0.8-0.2-1.4-0.6-1.7c-0.4-0.4-0.8-0.6-1.4-0.8
	c-0.5-0.1-1-0.2-1.5-0.2h-3.1V81.3z M94.6,85.6v-23h16.6v5.3h-10.5v3.6h8.6v5h-8.6v3.9h11.2v5.3H94.6z M112.8,82.8l3.7-4.5
	c0.6,0.6,1.5,1.2,2.5,1.8c1.1,0.5,2.2,0.8,3.4,0.8c0.6,0,1.2-0.1,1.8-0.4c0.6-0.3,0.9-0.7,0.9-1.4c0-0.6-0.3-1.1-0.9-1.5
	c-0.6-0.4-1.5-0.8-2.7-1.2l-1.3-0.4c-0.9-0.3-1.9-0.7-2.8-1.3c-0.9-0.6-1.7-1.3-2.3-2.1c-0.6-0.9-0.9-1.9-0.9-3.1
	c0-1.4,0.3-2.7,1-3.8c0.7-1.1,1.7-2,3-2.7c1.3-0.7,3-1,4.9-1c1.5,0,2.8,0.2,3.9,0.5c1.1,0.3,2.1,0.7,2.8,1.2
	c0.7,0.5,1.3,0.9,1.6,1.2l-3.1,3.9c-0.8-0.6-1.6-1.1-2.5-1.4c-0.9-0.4-1.8-0.6-2.7-0.6c-0.6,0-1.2,0.1-1.7,0.4
	c-0.5,0.3-0.8,0.7-0.8,1.3c0,0.7,0.3,1.2,1,1.6s1.5,0.6,2.4,1l1.1,0.3c0.8,0.2,1.6,0.5,2.3,0.9c0.8,0.3,1.5,0.8,2.2,1.3
	c0.7,0.6,1.2,1.3,1.6,2.1c0.4,0.8,0.6,1.9,0.6,3.1c0,1.4-0.4,2.7-1.3,3.8c-0.8,1.1-2,2-3.4,2.6c-1.4,0.6-3,0.9-4.7,0.9
	c-2.3,0-4.2-0.3-5.8-0.9C115.2,84.6,113.9,83.8,112.8,82.8z M140.4,85.6V68h-7.1v-5.3h20.3V68h-7v17.7H140.4z"/>
</svg>
