<?xml version="1.0" encoding="utf-8"?>
<!-- Generator: Adobe Illustrator 27.7.0, SVG Export Plug-In . SVG Version: 6.00 Build 0)  -->
<svg version="1.1" id="Layer_1" xmlns="http://www.w3.org/2000/svg" xmlns:xlink="http://www.w3.org/1999/xlink" x="0px" y="0px"
	 viewBox="0 0 266.2 86.2" style="enable-background:new 0 0 266.2 86.2;" xml:space="preserve">
<style type="text/css">
	.st0{fill:#FFFFFF;}
</style>
<path class="st0" d="M5.8,23.6l-5.6-23h6.5l3,15.4l3.6-14.9h5.6L22.5,16l2.9-15.4h6.2l-5.7,23h-6.4L15.9,9.1l-3.6,14.6H5.8z
	 M33.7,23.6v-23h6.1v23H33.7z M49.3,23.6V6h-7.1V0.6h20.3V6h-7v17.7H49.3z M64.9,23.6v-23H71V9h8.5V0.6h6.1v23h-6.1v-9H71v9H64.9z
	 M95.3,23.6v-23h6.1V9h8.5V0.6h6.1v23h-6.1v-9h-8.5v9H95.3z M130.8,24.2c-1.7,0-3.3-0.3-4.8-0.9c-1.4-0.6-2.7-1.4-3.8-2.5
	c-1.1-1.1-1.9-2.4-2.5-3.9s-0.9-3.1-0.9-4.8c0-1.7,0.3-3.4,0.9-4.8s1.4-2.7,2.5-3.8c1.1-1.1,2.3-1.9,3.8-2.5
	c1.5-0.6,3.1-0.9,4.8-0.9c1.7,0,3.3,0.3,4.8,0.9c1.5,0.6,2.7,1.4,3.8,2.5c1.1,1.1,1.9,2.4,2.5,3.8c0.6,1.5,0.9,3.1,0.9,4.8
	c0,1.7-0.3,3.4-0.9,4.8c-0.6,1.5-1.4,2.8-2.5,3.9c-1.1,1.1-2.4,1.9-3.8,2.5C134.1,23.9,132.5,24.2,130.8,24.2z M130.8,18.5
	c1.2,0,2.2-0.3,3.1-0.9c0.9-0.6,1.5-1.3,1.9-2.3s0.7-2,0.7-3.2s-0.2-2.2-0.7-3.2s-1.1-1.7-1.9-2.3c-0.8-0.6-1.9-0.9-3.1-0.9
	c-1.2,0-2.2,0.3-3.1,0.9c-0.8,0.6-1.5,1.3-1.9,2.3c-0.4,1-0.7,2-0.7,3.2s0.2,2.2,0.7,3.2c0.5,1,1.1,1.7,1.9,2.3
	C128.6,18.2,129.6,18.5,130.8,18.5z M143.4,20.8l3.7-4.5c0.6,0.6,1.5,1.2,2.5,1.8c1.1,0.5,2.2,0.8,3.4,0.8c0.6,0,1.2-0.1,1.8-0.4
	c0.6-0.3,0.9-0.7,0.9-1.4c0-0.6-0.3-1.1-0.9-1.5c-0.6-0.4-1.5-0.8-2.7-1.2l-1.3-0.4c-0.9-0.3-1.9-0.7-2.8-1.3
	c-0.9-0.6-1.7-1.3-2.3-2.1c-0.6-0.9-0.9-1.9-0.9-3.1c0-1.4,0.3-2.7,1-3.8c0.7-1.1,1.7-2,3-2.7c1.3-0.7,3-1,4.9-1
	c1.5,0,2.8,0.2,3.9,0.5c1.1,0.3,2.1,0.7,2.8,1.2c0.7,0.5,1.3,0.9,1.6,1.2L159,6.9c-0.8-0.6-1.6-1.1-2.5-1.4
	c-0.9-0.4-1.8-0.6-2.7-0.6c-0.6,0-1.2,0.1-1.7,0.4c-0.5,0.3-0.8,0.7-0.8,1.3c0,0.7,0.3,1.2,1,1.6c0.6,0.3,1.5,0.6,2.4,1l1.1,0.3
	c0.8,0.2,1.6,0.5,2.3,0.9c0.8,0.3,1.5,0.8,2.2,1.3c0.7,0.6,1.2,1.3,1.6,2.1c0.4,0.8,0.6,1.9,0.6,3.1c0,1.4-0.4,2.7-1.3,3.8
	c-0.8,1.1-2,2-3.4,2.6c-1.4,0.6-3,0.9-4.7,0.9c-2.3,0-4.2-0.3-5.8-0.9C145.8,22.6,144.5,21.8,143.4,20.8z M171,23.6V6H164V0.6h20.3
	V6h-7v17.7H171z M186.6,23.6v-23h9.4c2.5,0,4.4,0.7,5.9,2c1.5,1.3,2.2,3.2,2.2,5.7c0,1.6-0.3,2.9-1,4.1c-0.7,1.2-1.6,2-2.8,2.7
	c-1.2,0.6-2.6,0.9-4.1,0.9h-3.6v7.7H186.6z M192.6,11.2h2.9c0.8,0,1.5-0.3,2-0.8s0.7-1.2,0.7-2c0-0.9-0.2-1.6-0.7-2.1
	c-0.5-0.5-1.1-0.8-2-0.8h-2.9V11.2z M206.9,23.6v-23h6.1v17.6h10.7v5.4H206.9z M225.6,14.7v-14h6.1v13.5c0,1.3,0.3,2.3,0.9,3.1
	c0.6,0.8,1.6,1.2,2.9,1.2c1.4,0,2.3-0.4,2.9-1.2c0.6-0.8,0.9-1.9,0.9-3.1V0.6h6.2v14c0,2-0.4,3.7-1.3,5.1c-0.9,1.4-2,2.5-3.5,3.3
	c-1.5,0.8-3.2,1.1-5.1,1.1c-1.9,0-3.6-0.4-5.1-1.1c-1.5-0.8-2.7-1.9-3.5-3.3C226,18.4,225.6,16.6,225.6,14.7z M247.2,20.8l3.7-4.5
	c0.6,0.6,1.5,1.2,2.5,1.8c1.1,0.5,2.2,0.8,3.4,0.8c0.6,0,1.2-0.1,1.8-0.4c0.6-0.3,0.9-0.7,0.9-1.4c0-0.6-0.3-1.1-0.9-1.5
	c-0.6-0.4-1.5-0.8-2.7-1.2l-1.3-0.4c-0.9-0.3-1.9-0.7-2.8-1.3c-0.9-0.6-1.7-1.3-2.3-2.1c-0.6-0.9-0.9-1.9-0.9-3.1
	c0-1.4,0.3-2.7,1-3.8c0.7-1.1,1.7-2,3-2.7c1.3-0.7,3-1,4.9-1c1.5,0,2.8,0.2,3.9,0.5c1.1,0.3,2.1,0.7,2.8,1.2
	c0.7,0.5,1.3,0.9,1.6,1.2l-3.1,3.9c-0.8-0.6-1.6-1.1-2.5-1.4c-0.9-0.4-1.8-0.6-2.7-0.6c-0.6,0-1.2,0.1-1.7,0.4
	C255.2,5.5,255,6,255,6.6c0,0.7,0.3,1.2,1,1.6c0.6,0.3,1.5,0.6,2.4,1l1.1,0.3c0.8,0.2,1.6,0.5,2.3,0.9c0.8,0.3,1.5,0.8,2.2,1.3
	c0.7,0.6,1.2,1.3,1.6,2.1c0.4,0.8,0.6,1.9,0.6,3.1c0,1.4-0.4,2.7-1.3,3.8c-0.8,1.1-2,2-3.4,2.6c-1.4,0.6-3,0.9-4.7,0.9
	c-2.3,0-4.2-0.3-5.8-0.9C249.6,22.6,248.2,21.8,247.2,20.8z M1.9,54.6v-23h16V37H8v4.5h7.7v5H8v8.2H1.9z M20.4,54.6v-23h6.1v23H20.4
	z M30.3,54.6v-23h5.6l8.8,12.8V31.6h6v23h-5.2l-9.2-13.2v13.2H30.3z M52.6,54.6l8.5-23h7l8.1,23h-6.6l-1.5-4.8h-7.7l-1.5,4.8H52.6z
	 M61.6,45.4h5.2L64.3,37L61.6,45.4z M78,54.6v-23h5.6l8.8,12.8V31.6h6v23h-5.2l-9.2-13.2v13.2H78z M119.5,46.5l4.1,3.9
	c-2.6,3.2-6,4.9-10.2,4.9c-2.3,0-4.4-0.5-6.2-1.6c-1.8-1-3.2-2.4-4.2-4.2c-1-1.8-1.5-3.9-1.5-6.2s0.5-4.4,1.5-6.2
	c1-1.8,2.4-3.3,4.2-4.3s3.9-1.6,6.2-1.6c2,0,3.8,0.3,5.5,1c1.7,0.7,3.2,1.8,4.3,3.5l-4,4.1c-0.6-0.9-1.4-1.6-2.3-2.1
	c-0.9-0.5-1.9-0.8-3.1-0.8c-1.3,0-2.4,0.3-3.3,0.9c-0.9,0.6-1.6,1.3-2.1,2.3c-0.5,0.9-0.7,2-0.7,3.2c0,1.2,0.2,2.3,0.7,3.3
	c0.5,1,1.2,1.7,2.1,2.3c0.9,0.6,2,0.8,3.2,0.8c1.4,0,2.4-0.2,3.3-0.7C117.9,48.2,118.7,47.5,119.5,46.5z M125.5,54.6v-23h6.1v23
	H125.5z M133.4,54.6l8.5-23h7l8.1,23h-6.6l-1.5-4.8h-7.7l-1.5,4.8H133.4z M142.5,45.4h5.2l-2.6-8.5L142.5,45.4z M158.9,54.6v-23h6.1
	v17.6h10.7v5.4H158.9z M0,85.6l8.5-23h7l8.1,23H17l-1.5-4.8H7.8l-1.5,4.8H0z M9.1,76.4h5.2L11.7,68L9.1,76.4z M25.5,85.6v-23h8.8
	c2.4,0,4.5,0.4,6.3,1.2c1.9,0.8,3.3,2.1,4.4,3.8c1.1,1.7,1.6,3.9,1.6,6.6c0,2.5-0.5,4.6-1.6,6.3c-1.1,1.7-2.6,2.9-4.5,3.8
	c-1.9,0.8-4,1.2-6.3,1.2H25.5z M31.6,80.3h2.5c2,0,3.5-0.6,4.6-1.7c1.1-1.2,1.7-2.6,1.7-4.5c0-1.8-0.5-3.3-1.5-4.5
	c-1-1.1-2.6-1.7-4.8-1.7h-2.5V80.3z M54.6,85.6l-8.3-23h6.7l5.2,16l4.8-16h6.5l-8.4,23H54.6z M71.3,85.6v-23h6.1v23H71.3z
	 M98.4,77.5l4.1,3.9c-2.6,3.2-6,4.9-10.2,4.9c-2.3,0-4.4-0.5-6.2-1.6c-1.8-1-3.2-2.4-4.2-4.2c-1-1.8-1.5-3.9-1.5-6.2
	s0.5-4.4,1.5-6.2c1-1.8,2.4-3.3,4.2-4.3s3.9-1.6,6.2-1.6c2,0,3.8,0.3,5.5,1c1.7,0.7,3.2,1.8,4.3,3.5l-4,4.1
	c-0.6-0.9-1.4-1.6-2.3-2.1c-0.9-0.5-1.9-0.8-3.1-0.8c-1.3,0-2.4,0.3-3.3,0.9c-0.9,0.6-1.6,1.3-2.1,2.3c-0.5,0.9-0.7,2-0.7,3.2
	c0,1.2,0.2,2.3,0.7,3.3c0.5,1,1.2,1.7,2.1,2.3c0.9,0.6,2,0.8,3.2,0.8c1.4,0,2.4-0.2,3.3-0.7C96.8,79.2,97.6,78.5,98.4,77.5z
	 M104.4,85.6v-23h16.6v5.3h-10.5v3.6h8.6v5h-8.6v3.9h11.2v5.3H104.4z"/>
</svg>
