<svg width="300" height="600" viewBox="0 0 300 600" fill="none" xmlns="http://www.w3.org/2000/svg">
<path d="M27.2656 315V295.356H39.6544V298.137H30.4488V303.701H37.9337V306.454H30.4488V312.19H39.6544V315H27.2656ZM45.2963 315H42.1704V300.661H45.2676V301.55C46.6633 300.747 47.9825 300.346 49.2252 300.346C51.137 300.346 52.4371 300.89 53.1254 301.98C53.8327 303.051 54.1864 304.829 54.1864 307.314V315H51.0892V307.4C51.0892 305.852 50.9172 304.752 50.573 304.102C50.248 303.452 49.5693 303.127 48.5369 303.127C47.5618 303.127 46.625 303.319 45.7265 303.701L45.2963 303.873V315ZM57.2807 314.455V300.661H60.3779V314.484C60.3779 316.357 60.0434 317.744 59.3742 318.642C58.7242 319.541 57.405 320.497 55.4167 321.51L54.1835 319.187C55.5218 318.346 56.3726 317.657 56.7358 317.122C57.0991 316.606 57.2807 315.717 57.2807 314.455ZM57.2807 298.223V294.926H60.3779V298.223H57.2807ZM64.3982 302.21C65.3924 300.967 67.0366 300.346 69.3308 300.346C71.625 300.346 73.2597 300.967 74.2347 302.21C75.2289 303.452 75.726 305.316 75.726 307.802C75.726 310.287 75.248 312.161 74.2921 313.423C73.3361 314.685 71.6824 315.315 69.3308 315.315C66.9792 315.315 65.3255 314.685 64.3695 313.423C63.4136 312.161 62.9356 310.287 62.9356 307.802C62.9356 305.316 63.4232 303.452 64.3982 302.21ZM66.7498 311.53C67.1895 312.295 68.0499 312.677 69.3308 312.677C70.6117 312.677 71.4721 312.295 71.9118 311.53C72.3515 310.765 72.5714 309.513 72.5714 307.773C72.5714 306.033 72.3324 304.8 71.8545 304.074C71.3956 303.347 70.5544 302.984 69.3308 302.984C68.1072 302.984 67.2564 303.347 66.7785 304.074C66.3196 304.8 66.0902 306.033 66.0902 307.773C66.0902 309.513 66.3101 310.765 66.7498 311.53ZM76.6862 300.661H79.7548L82.7946 312.333H83.5689L86.6088 300.661H89.706L84.2572 321.166H81.1886L82.9093 315H80.443L76.6862 300.661ZM105.964 300.661H109.061V315H105.964V314.111C104.568 314.914 103.278 315.315 102.092 315.315C100.123 315.315 98.8039 314.79 98.1348 313.738C97.4656 312.668 97.1311 310.803 97.1311 308.146V300.661H100.257V308.175C100.257 309.895 100.4 311.052 100.687 311.645C100.974 312.237 101.643 312.534 102.695 312.534C103.727 312.534 104.673 312.343 105.534 311.96L105.964 311.788V300.661ZM112.272 321.166V300.661H115.369V301.55C116.688 300.747 117.922 300.346 119.069 300.346C120.961 300.346 122.348 300.929 123.227 302.095C124.106 303.242 124.546 305.183 124.546 307.917C124.546 310.631 124.04 312.543 123.026 313.652C122.032 314.761 120.397 315.315 118.122 315.315C117.338 315.315 116.43 315.229 115.398 315.057V321.166H112.272ZM118.524 303.127C117.625 303.127 116.727 303.328 115.828 303.73L115.398 303.93V312.39C116.163 312.543 117.004 312.62 117.922 312.62C119.222 312.62 120.12 312.247 120.617 311.501C121.114 310.756 121.363 309.484 121.363 307.687C121.363 304.647 120.417 303.127 118.524 303.127ZM140.544 303.328H136.586V309.637C136.586 310.803 136.672 311.578 136.844 311.96C137.016 312.343 137.456 312.534 138.163 312.534L140.515 312.448L140.658 314.943C139.377 315.191 138.402 315.315 137.733 315.315C136.108 315.315 134.99 314.943 134.378 314.197C133.785 313.451 133.489 312.046 133.489 309.981V303.328H131.654V300.661H133.489V296.503H136.586V300.661H140.544V303.328ZM143.308 302.21C144.302 300.967 145.947 300.346 148.241 300.346C150.535 300.346 152.17 300.967 153.145 302.21C154.139 303.452 154.636 305.316 154.636 307.802C154.636 310.287 154.158 312.161 153.202 313.423C152.246 314.685 150.592 315.315 148.241 315.315C145.889 315.315 144.235 314.685 143.28 313.423C142.324 312.161 141.846 310.287 141.846 307.802C141.846 305.316 142.333 303.452 143.308 302.21ZM145.66 311.53C146.1 312.295 146.96 312.677 148.241 312.677C149.522 312.677 150.382 312.295 150.822 311.53C151.262 310.765 151.481 309.513 151.481 307.773C151.481 306.033 151.242 304.8 150.764 304.074C150.306 303.347 149.464 302.984 148.241 302.984C147.017 302.984 146.166 303.347 145.688 304.074C145.23 304.8 145 306.033 145 307.773C145 309.513 145.22 310.765 145.66 311.53Z" fill="#FFE344"/>
<path d="M109.869 325C116.83 325 122.065 327.248 125.573 331.742C129.136 336.237 130.918 343.474 130.918 353.45C130.918 363.372 129.164 370.498 125.656 374.828C122.148 379.104 116.885 381.241 109.869 381.241C102.853 381.241 97.5903 379.104 94.082 374.828C90.5739 370.498 88.8194 363.372 88.8193 353.45C88.8193 343.474 90.5738 336.237 94.082 331.742C97.6451 327.248 102.908 325 109.869 325ZM154.234 325C161.196 325 166.431 327.247 169.939 331.742C173.502 336.237 175.284 343.474 175.284 353.45C175.284 363.372 173.53 370.498 170.021 374.828C166.513 379.104 161.251 381.241 154.234 381.241C147.218 381.241 141.955 379.104 138.447 374.828C134.939 370.498 133.186 363.372 133.186 353.45C133.186 343.474 134.939 336.237 138.447 331.742C142.01 327.247 147.273 325 154.234 325ZM68.957 325C80.4682 325 86.2236 330.181 86.2236 340.541C86.2236 344.597 85.3468 348.105 83.5928 351.065C81.8387 354.025 78.6592 357.616 74.0547 361.837L64.5986 370.388H87.1279V380.255H51.9365V370.635L63.5303 358.877C67.6415 354.656 70.4914 351.421 72.0811 349.174C73.7255 346.926 74.5479 344.542 74.5479 342.021C74.5478 339.444 73.8626 337.635 72.4922 336.594C71.1767 335.552 69.2857 335.031 66.8193 335.031C63.1467 335.031 59.1448 335.361 54.8145 336.019L52.8408 336.265L52.2656 327.467C57.6375 325.822 63.2015 325 68.957 325ZM40.3926 332.334C42.4316 332.531 44.3064 332.794 46.0166 333.123L46.8555 333.32L46.3125 338.55C43.9116 338.287 41.6915 338.09 39.6523 337.958L38.666 345.9C42.0864 346.986 44.4052 348.186 45.6221 349.502C46.8718 350.785 47.4961 352.742 47.4961 355.373C47.4961 358.793 46.4607 361.392 44.3887 363.168C42.3166 364.911 39.6028 365.782 36.248 365.782H36.1992L35.459 371.604C33.0266 371.505 31.81 371.39 31.8086 371.259L32.499 365.536C30.0652 365.24 28.0253 364.895 26.3809 364.5L25.3945 364.303L26.0361 359.172C28.6343 359.534 31.0357 359.781 33.2393 359.912L34.3242 351.327C30.9366 350.308 28.5353 349.074 27.1211 347.627C25.7071 346.18 25 344.206 25 341.707C25 338.451 25.9867 336.034 27.96 334.455C29.9333 332.843 32.6472 332.038 36.1006 332.038H36.7412L37.6299 325.229H41.2803L40.3926 332.334ZM109.869 334.867C106.525 334.867 104.113 336.238 102.633 338.979C101.208 341.719 100.495 346.461 100.495 353.203C100.495 359.945 101.236 364.66 102.716 367.346C104.196 370.032 106.607 371.375 109.951 371.375C113.295 371.375 115.679 370.032 117.104 367.346C118.53 364.66 119.242 359.945 119.242 353.203C119.242 346.406 118.53 341.665 117.104 338.979C115.679 336.238 113.268 334.867 109.869 334.867ZM154.234 334.867C150.891 334.867 148.479 336.238 146.999 338.979C145.574 341.719 144.861 346.461 144.861 353.203C144.861 359.945 145.601 364.66 147.081 367.346C148.561 370.032 150.973 371.375 154.316 371.375C157.66 371.375 160.045 370.032 161.471 367.346C162.896 364.66 163.608 359.945 163.608 353.203C163.608 346.406 162.896 341.665 161.471 338.979C160.045 336.238 157.633 334.867 154.234 334.867ZM36.9385 359.961C39.6025 359.665 40.9346 358.283 40.9346 355.816C40.9345 355.027 40.7045 354.386 40.2441 353.893C39.8165 353.366 39.0269 352.873 37.876 352.413L36.9385 359.961ZM36.002 337.859C33.0419 337.991 31.5615 339.126 31.5615 341.264C31.5616 342.053 31.8085 342.694 32.3018 343.188C32.7952 343.681 33.7491 344.191 35.1631 344.717L36.002 337.859Z" fill="#FFE344"/>
<path d="M182.177 357.241V342.902H185.303V357.241H182.177ZM182.177 340.465V337.167H185.303V340.465H182.177ZM191.647 357.241H188.521V342.902H191.618V343.791C193.014 342.988 194.333 342.587 195.576 342.587C197.487 342.587 198.787 343.132 199.476 344.221C200.183 345.292 200.537 347.07 200.537 349.556V357.241H197.44V349.642C197.44 348.093 197.268 346.994 196.923 346.344C196.598 345.694 195.92 345.369 194.887 345.369C193.912 345.369 192.975 345.56 192.077 345.942L191.647 346.114V357.241ZM216.012 342.587C217.981 342.587 219.396 343.141 220.256 344.25C221.136 345.34 221.576 347.28 221.576 350.072C221.576 352.863 221.059 354.813 220.027 355.922C218.995 357.012 217.178 357.557 214.578 357.557C213.68 357.557 212.255 357.471 210.305 357.299L209.33 357.213V336.937H212.427V343.447C213.747 342.874 214.941 342.587 216.012 342.587ZM214.578 354.775C216.108 354.775 217.121 354.421 217.618 353.714C218.134 352.987 218.392 351.764 218.392 350.043C218.392 348.322 218.172 347.118 217.733 346.43C217.312 345.722 216.614 345.369 215.639 345.369C214.722 345.369 213.804 345.512 212.886 345.799L212.427 345.942V354.66C213.479 354.737 214.196 354.775 214.578 354.775ZM224.132 357.241V342.902H227.258V357.241H224.132ZM224.132 340.465V337.167H227.258V340.465H224.132ZM230.648 357.241V336.937H233.774V357.241H230.648ZM237.328 357.241V336.937H240.453V357.241H237.328ZM187.54 366.587C188.553 366.587 189.748 366.721 191.124 366.988L191.841 367.132L191.727 369.598C190.216 369.445 189.098 369.369 188.371 369.369C186.918 369.369 185.943 369.694 185.446 370.344C184.949 370.994 184.701 372.217 184.701 374.014C184.701 375.812 184.94 377.054 185.418 377.743C185.895 378.431 186.89 378.775 188.4 378.775L191.755 378.545L191.841 381.04C189.91 381.385 188.457 381.557 187.482 381.557C185.303 381.557 183.764 380.974 182.865 379.807C181.986 378.622 181.546 376.691 181.546 374.014C181.546 371.338 182.014 369.435 182.951 368.308C183.888 367.16 185.418 366.587 187.54 366.587ZM194.29 381.241V366.902H197.387V368.623C199.012 367.571 200.637 366.893 202.262 366.587V369.713C200.618 370.038 199.213 370.458 198.047 370.975L197.416 371.233V381.241H194.29ZM214.176 378.66L214.979 378.574L215.036 380.897C212.857 381.337 210.926 381.557 209.243 381.557C207.121 381.557 205.592 380.974 204.655 379.807C203.737 378.641 203.278 376.777 203.278 374.215C203.278 369.13 205.353 366.587 209.501 366.587C213.516 366.587 215.524 368.776 215.524 373.154L215.323 375.391H206.433C206.452 376.576 206.71 377.446 207.207 378.001C207.704 378.555 208.631 378.832 209.989 378.832C211.346 378.832 212.742 378.775 214.176 378.66ZM212.455 372.982C212.455 371.567 212.226 370.583 211.767 370.028C211.327 369.455 210.572 369.168 209.501 369.168C208.431 369.168 207.647 369.464 207.15 370.057C206.672 370.65 206.423 371.625 206.404 372.982H212.455ZM229.656 360.937V381.241H226.559V380.496C225.164 381.203 223.883 381.557 222.716 381.557C220.843 381.557 219.466 380.993 218.587 379.865C217.726 378.737 217.296 376.844 217.296 374.186C217.296 371.529 217.774 369.598 218.73 368.394C219.705 367.189 221.216 366.587 223.261 366.587C223.95 366.587 225.039 366.711 226.531 366.96V360.937H229.656ZM226.043 378.259L226.531 378.058V369.569C225.383 369.378 224.322 369.283 223.347 369.283C221.416 369.283 220.451 370.889 220.451 374.1C220.451 375.859 220.671 377.083 221.11 377.771C221.569 378.44 222.286 378.775 223.261 378.775C224.236 378.775 225.164 378.603 226.043 378.259ZM232.869 381.241V366.902H235.995V381.241H232.869ZM232.869 364.465V361.167H235.995V364.465H232.869ZM246.928 369.569H242.97V375.878C242.97 377.045 243.056 377.819 243.228 378.201C243.4 378.584 243.84 378.775 244.547 378.775L246.899 378.689L247.042 381.184C245.761 381.432 244.786 381.557 244.117 381.557C242.492 381.557 241.374 381.184 240.762 380.438C240.169 379.693 239.873 378.287 239.873 376.223V369.569H238.038V366.902H239.873V362.744H242.97V366.902H246.928V369.569ZM258.869 369.856C256.613 369.55 254.978 369.397 253.965 369.397C252.952 369.397 252.245 369.522 251.843 369.77C251.461 369.999 251.269 370.372 251.269 370.889C251.269 371.405 251.48 371.768 251.9 371.978C252.34 372.189 253.353 372.437 254.94 372.724C256.546 372.992 257.684 373.422 258.353 374.014C259.022 374.607 259.357 375.659 259.357 377.169C259.357 378.679 258.869 379.788 257.894 380.496C256.938 381.203 255.533 381.557 253.678 381.557C252.512 381.557 251.04 381.394 249.262 381.069L248.373 380.926L248.488 378.316C250.782 378.622 252.436 378.775 253.449 378.775C254.462 378.775 255.179 378.651 255.6 378.402C256.04 378.154 256.259 377.743 256.259 377.169C256.259 376.595 256.049 376.203 255.629 375.993C255.227 375.764 254.242 375.525 252.675 375.276C251.126 375.009 249.989 374.598 249.262 374.043C248.536 373.489 248.172 372.475 248.172 371.003C248.172 369.531 248.669 368.432 249.664 367.705C250.677 366.979 251.967 366.616 253.535 366.616C254.759 366.616 256.259 366.768 258.037 367.074L258.926 367.246L258.869 369.856ZM266.467 362.569H264.282L264.953 364.668L263.886 364.995L263.181 362.879L261.374 364.238L260.686 363.361L262.527 362.001L260.737 360.728L261.409 359.799L263.181 361.089L263.869 358.973L264.97 359.334L264.299 361.468H266.467V362.569Z" fill="#FFE344"/>
<path d="M27.2656 411.241V391.597H32.8004L37.1881 406.94L41.5758 391.597H47.1393V411.241H43.9274V395.124H43.4972L38.8514 410.438H35.5248L30.879 395.124H30.4488V411.241H27.2656ZM51.2904 398.451C52.2846 397.208 53.9288 396.587 56.223 396.587C58.5172 396.587 60.1519 397.208 61.1269 398.451C62.1211 399.694 62.6182 401.558 62.6182 404.043C62.6182 406.528 62.1402 408.402 61.1843 409.664C60.2283 410.926 58.5746 411.557 56.223 411.557C53.8714 411.557 52.2177 410.926 51.2617 409.664C50.3058 408.402 49.8278 406.528 49.8278 404.043C49.8278 401.558 50.3154 399.694 51.2904 398.451ZM53.642 407.771C54.0817 408.536 54.9421 408.918 56.223 408.918C57.504 408.918 58.3643 408.536 58.804 407.771C59.2437 407.006 59.4636 405.754 59.4636 404.014C59.4636 402.275 59.2246 401.041 58.7467 400.315C58.2878 399.588 57.4466 399.225 56.223 399.225C54.9994 399.225 54.1486 399.588 53.6707 400.315C53.2118 401.041 52.9824 402.275 52.9824 404.014C52.9824 405.754 53.2023 407.006 53.642 407.771ZM63.5778 396.902H66.847L69.6001 408.574H70.5178L73.3856 396.902H76.5688L72.8407 411.241H67.2772L63.5778 396.902ZM88.4242 408.66L89.2272 408.574L89.2845 410.897C87.105 411.337 85.174 411.557 83.4916 411.557C81.3694 411.557 79.84 410.974 78.9032 409.807C77.9855 408.641 77.5266 406.777 77.5266 404.215C77.5266 399.13 79.601 396.587 83.7497 396.587C87.7646 396.587 89.7721 398.776 89.7721 403.154L89.5713 405.391H80.6812C80.7003 406.576 80.9584 407.446 81.4555 408.001C81.9526 408.555 82.8798 408.832 84.2372 408.832C85.5947 408.832 86.9903 408.775 88.4242 408.66ZM86.7035 402.982C86.7035 401.567 86.4741 400.583 86.0153 400.028C85.5755 399.455 84.8204 399.168 83.7497 399.168C82.6791 399.168 81.8952 399.464 81.3981 400.057C80.9202 400.65 80.6716 401.625 80.6525 402.982H86.7035ZM101.058 411.241H97.932V390.937H101.058V397.648C102.473 396.941 103.782 396.587 104.987 396.587C106.899 396.587 108.199 397.132 108.887 398.221C109.594 399.292 109.948 401.07 109.948 403.556V411.241H106.822V403.642C106.822 402.093 106.66 400.994 106.335 400.344C106.01 399.694 105.321 399.369 104.27 399.369C103.352 399.369 102.434 399.522 101.517 399.827L101.058 399.999V411.241ZM113.788 398.451C114.782 397.208 116.426 396.587 118.721 396.587C121.015 396.587 122.649 397.208 123.624 398.451C124.619 399.694 125.116 401.558 125.116 404.043C125.116 406.528 124.638 408.402 123.682 409.664C122.726 410.926 121.072 411.557 118.721 411.557C116.369 411.557 114.715 410.926 113.759 409.664C112.803 408.402 112.325 406.528 112.325 404.043C112.325 401.558 112.813 399.694 113.788 398.451ZM116.14 407.771C116.579 408.536 117.44 408.918 118.721 408.918C120.002 408.918 120.862 408.536 121.302 407.771C121.741 407.006 121.961 405.754 121.961 404.014C121.961 402.275 121.722 401.041 121.244 400.315C120.785 399.588 119.944 399.225 118.721 399.225C117.497 399.225 116.646 399.588 116.168 400.315C115.709 401.041 115.48 402.275 115.48 404.014C115.48 405.754 115.7 407.006 116.14 407.771ZM130.773 411.241H127.647V396.902H130.744V397.791C132.102 396.988 133.345 396.587 134.473 396.587C136.136 396.587 137.35 397.055 138.115 397.992C139.854 397.055 141.585 396.587 143.305 396.587C145.026 396.587 146.24 397.122 146.947 398.193C147.655 399.244 148.008 401.032 148.008 403.556V411.241H144.911V403.642C144.911 402.093 144.749 400.994 144.424 400.344C144.118 399.694 143.468 399.369 142.474 399.369C141.613 399.369 140.686 399.56 139.692 399.942L139.204 400.143C139.357 400.525 139.434 401.749 139.434 403.814V411.241H136.337V403.871C136.337 402.169 136.184 400.994 135.878 400.344C135.572 399.694 134.903 399.369 133.87 399.369C132.914 399.369 132.025 399.56 131.203 399.942L130.773 400.114V411.241ZM161.312 408.66L162.115 408.574L162.172 410.897C159.993 411.337 158.062 411.557 156.379 411.557C154.257 411.557 152.728 410.974 151.791 409.807C150.873 408.641 150.414 406.777 150.414 404.215C150.414 399.13 152.489 396.587 156.637 396.587C160.652 396.587 162.66 398.776 162.66 403.154L162.459 405.391H153.569C153.588 406.576 153.846 407.446 154.343 408.001C154.84 408.555 155.767 408.832 157.125 408.832C158.482 408.832 159.878 408.775 161.312 408.66ZM159.591 402.982C159.591 401.567 159.362 400.583 158.903 400.028C158.463 399.455 157.708 399.168 156.637 399.168C155.567 399.168 154.783 399.464 154.286 400.057C153.808 400.65 153.559 401.625 153.54 402.982H159.591ZM37.5035 430.319V436.857C37.5227 437.278 37.6278 437.593 37.819 437.804C38.0293 437.995 38.3448 438.119 38.7654 438.176L38.6793 440.557C37.0351 440.557 35.7638 440.203 34.8652 439.496C33.3357 440.203 31.7967 440.557 30.248 440.557C27.3994 440.557 25.975 439.037 25.975 435.997C25.975 434.544 26.3574 433.492 27.1222 432.842C27.906 432.192 29.1009 431.8 30.7069 431.667L34.4063 431.351V430.319C34.4063 429.554 34.2343 429.019 33.8901 428.713C33.5651 428.407 33.0776 428.254 32.4276 428.254C31.204 428.254 29.6745 428.33 27.8391 428.483L26.9214 428.541L26.8067 426.332C28.8906 425.835 30.8025 425.587 32.5423 425.587C34.3012 425.587 35.563 425.969 36.3278 426.734C37.1116 427.48 37.5035 428.674 37.5035 430.319ZM31.0797 433.875C29.7605 433.989 29.1009 434.706 29.1009 436.026C29.1009 437.345 29.684 438.004 30.8503 438.004C31.8062 438.004 32.8195 437.851 33.8901 437.545L34.4063 437.373V433.559L31.0797 433.875ZM43.98 440.241H40.8541V425.902H43.9514V426.791C45.347 425.988 46.6662 425.587 47.9089 425.587C49.8208 425.587 51.1208 426.132 51.8091 427.221C52.5165 428.292 52.8702 430.07 52.8702 432.556V440.241H49.773V432.642C49.773 431.093 49.6009 429.994 49.2568 429.344C48.9317 428.694 48.253 428.369 47.2206 428.369C46.2456 428.369 45.3088 428.56 44.4102 428.942L43.98 429.114V440.241ZM67.6363 419.937V440.241H64.5391V439.496C63.1435 440.203 61.8625 440.557 60.6963 440.557C58.8227 440.557 57.4461 439.993 56.5667 438.865C55.7064 437.737 55.2762 435.844 55.2762 433.186C55.2762 430.529 55.7542 428.598 56.7101 427.394C57.6851 426.189 59.1955 425.587 61.2412 425.587C61.9295 425.587 63.0192 425.711 64.5105 425.96V419.937H67.6363ZM64.0229 437.259L64.5105 437.058V428.569C63.3633 428.378 62.3023 428.283 61.3272 428.283C59.3962 428.283 58.4308 429.889 58.4308 433.1C58.4308 434.859 58.6506 436.083 59.0903 436.771C59.5492 437.44 60.2661 437.775 61.2412 437.775C62.2162 437.775 63.1435 437.603 64.0229 437.259ZM86.5283 428.856C84.2723 428.55 82.6377 428.397 81.6244 428.397C80.6111 428.397 79.9037 428.522 79.5023 428.77C79.1199 428.999 78.9287 429.372 78.9287 429.889C78.9287 430.405 79.139 430.768 79.5596 430.978C79.9993 431.189 81.0126 431.437 82.5995 431.724C84.2054 431.992 85.343 432.422 86.0121 433.014C86.6813 433.607 87.0159 434.659 87.0159 436.169C87.0159 437.679 86.5283 438.788 85.5533 439.496C84.5974 440.203 83.1921 440.557 81.3376 440.557C80.1714 440.557 78.6993 440.394 76.9212 440.069L76.0322 439.926L76.1469 437.316C78.4412 437.622 80.0949 437.775 81.1082 437.775C82.1215 437.775 82.8384 437.651 83.2591 437.402C83.6988 437.154 83.9186 436.743 83.9186 436.169C83.9186 435.595 83.7083 435.203 83.2877 434.993C82.8862 434.764 81.9016 434.525 80.3339 434.276C78.7853 434.009 77.6478 433.598 76.9212 433.043C76.1947 432.489 75.8315 431.475 75.8315 430.003C75.8315 428.531 76.3286 427.432 77.3227 426.705C78.336 425.979 79.6265 425.616 81.1942 425.616C82.4178 425.616 83.9186 425.768 85.6967 426.074L86.5857 426.246L86.5283 428.856ZM97.1606 428.569H93.2031V434.878C93.2031 436.045 93.2891 436.819 93.4612 437.201C93.6333 437.584 94.073 437.775 94.7804 437.775L97.132 437.689L97.2753 440.184C95.9944 440.432 95.0194 440.557 94.3502 440.557C92.7251 440.557 91.6067 440.184 90.9949 439.438C90.4022 438.693 90.1059 437.287 90.1059 435.223V428.569H88.2705V425.902H90.1059V421.744H93.2031V425.902H97.1606V428.569ZM109.762 430.319V436.857C109.781 437.278 109.886 437.593 110.077 437.804C110.287 437.995 110.603 438.119 111.023 438.176L110.937 440.557C109.293 440.557 108.022 440.203 107.123 439.496C105.594 440.203 104.055 440.557 102.506 440.557C99.6575 440.557 98.2331 439.037 98.2331 435.997C98.2331 434.544 98.6155 433.492 99.3803 432.842C100.164 432.192 101.359 431.8 102.965 431.667L106.664 431.351V430.319C106.664 429.554 106.492 429.019 106.148 428.713C105.823 428.407 105.336 428.254 104.686 428.254C103.462 428.254 101.933 428.33 100.097 428.483L99.1795 428.541L99.0648 426.332C101.149 425.835 103.061 425.587 104.8 425.587C106.559 425.587 107.821 425.969 108.586 426.734C109.37 427.48 109.762 428.674 109.762 430.319ZM103.338 433.875C102.019 433.989 101.359 434.706 101.359 436.026C101.359 437.345 101.942 438.004 103.108 438.004C104.064 438.004 105.078 437.851 106.148 437.545L106.664 437.373V433.559L103.338 433.875ZM111.625 425.902H114.694L117.733 437.574H118.508L121.548 425.902H124.645L119.196 446.407H116.127L117.848 440.241H115.382L111.625 425.902ZM131.095 425.902H134.163L136.429 437.574H137.002L139.727 426.189H142.939L145.663 437.574H146.237L148.474 425.902H151.571L148.531 440.241H143.57L141.333 430.405L139.096 440.241H134.135L131.095 425.902ZM153.652 440.241V425.902H156.778V440.241H153.652ZM153.652 423.465V420.167H156.778V423.465H153.652ZM167.71 428.569H163.753V434.878C163.753 436.045 163.839 436.819 164.011 437.201C164.183 437.584 164.623 437.775 165.33 437.775L167.682 437.689L167.825 440.184C166.544 440.432 165.569 440.557 164.9 440.557C163.275 440.557 162.156 440.184 161.545 439.438C160.952 438.693 160.656 437.287 160.656 435.223V428.569H158.82V425.902H160.656V421.744H163.753V425.902H167.71V428.569ZM172.826 440.241H169.701V419.937H172.826V426.648C174.241 425.941 175.551 425.587 176.755 425.587C178.667 425.587 179.967 426.132 180.656 427.221C181.363 428.292 181.717 430.07 181.717 432.556V440.241H178.591V432.642C178.591 431.093 178.428 429.994 178.103 429.344C177.778 428.694 177.09 428.369 176.038 428.369C175.121 428.369 174.203 428.522 173.285 428.827L172.826 428.999V440.241ZM189.191 440.241L194.037 420.597H200.375L205.25 440.241H202.038L200.977 436.026H193.435L192.374 440.241H189.191ZM196.504 423.264L194.066 433.215H200.346L197.938 423.264H196.504ZM215.17 432.728V429.917H220.762V439.897C220.246 440.031 219.194 440.174 217.607 440.327C216.04 440.48 214.902 440.557 214.195 440.557C211.212 440.557 209.157 439.735 208.029 438.09C206.901 436.446 206.337 433.875 206.337 430.376C206.337 426.858 206.911 424.296 208.058 422.69C209.224 421.084 211.231 420.281 214.08 420.281C215.762 420.281 217.655 420.473 219.758 420.855L220.762 421.056L220.647 423.579C218.334 423.273 216.26 423.121 214.424 423.121C212.589 423.121 211.327 423.637 210.639 424.669C209.97 425.702 209.635 427.613 209.635 430.405C209.635 433.196 209.95 435.127 210.581 436.198C211.231 437.249 212.531 437.775 214.481 437.775C215.877 437.775 216.919 437.689 217.607 437.517V432.728H215.17ZM235.195 440.241H224.183V420.597H227.366V437.402H235.195V440.241Z" fill="white"/>
</svg>
