<svg width="640" height="200" viewBox="0 0 640 200" fill="none" xmlns="http://www.w3.org/2000/svg">
<g clip-path="url(#clip0_8545_27831)">
<path d="M43.4033 70.1841C46.04 70.4392 48.4643 70.7793 50.6758 71.2046L51.7607 71.4595L51.0586 78.2222C47.954 77.8819 45.083 77.6267 42.4463 77.4565L41.1709 87.7271C45.5939 89.1305 48.5924 90.6831 50.166 92.3843C51.7819 94.0429 52.5898 96.5731 52.5898 99.9751C52.5898 104.398 51.2506 107.759 48.5713 110.055C45.8919 112.309 42.3829 113.436 38.0449 113.436H37.9814L37.0244 120.963C33.8772 120.836 32.3037 120.687 32.3037 120.517L33.1963 113.117C30.0493 112.734 27.4125 112.287 25.2861 111.777L24.0107 111.522L24.8398 104.887C28.1995 105.355 31.304 105.674 34.1533 105.844L35.5566 94.7446C31.1762 93.4262 28.0719 91.8307 26.2432 89.9595C24.4145 88.0882 23.5 85.5364 23.5 82.3042C23.5001 78.0942 24.7758 74.9686 27.3271 72.9272C29.8789 70.8433 33.388 69.8013 37.8535 69.8013H38.6826L39.8311 60.9976H44.5518L43.4033 70.1841ZM38.9385 105.909C42.3831 105.526 44.1055 103.739 44.1055 100.549C44.1054 99.5288 43.8072 98.6999 43.2119 98.062C42.6591 97.3816 41.6388 96.7433 40.1504 96.1479L38.9385 105.909ZM37.7256 77.3286C33.8984 77.4988 31.9846 78.9659 31.9844 81.73C31.9844 82.7507 32.3035 83.5803 32.9414 84.2183C33.5793 84.8562 34.8128 85.5153 36.6416 86.1958L37.7256 77.3286Z" fill="#FFE344"/>
<path d="M155.881 60.9976C166.683 60.9976 174.806 64.4856 180.25 71.4604C185.779 78.4352 188.544 89.6625 188.544 105.143C188.544 120.539 185.822 131.596 180.378 138.316C174.934 144.95 166.768 148.268 155.881 148.268C144.993 148.268 136.827 144.95 131.384 138.316C125.94 131.596 123.219 120.538 123.219 105.143C123.219 89.6629 125.94 78.4353 131.384 71.4604C136.913 64.4857 145.079 60.9976 155.881 60.9976ZM224.724 60.9976C235.526 60.9976 243.649 64.4856 249.093 71.4604C254.621 78.4352 257.386 89.6626 257.386 105.143C257.386 120.539 254.664 131.596 249.221 138.316C243.777 144.95 235.611 148.268 224.724 148.268C213.836 148.268 205.67 144.95 200.227 138.316C194.783 131.596 192.062 120.538 192.062 105.143C192.062 89.6628 194.783 78.4352 200.227 71.4604C205.755 64.4857 213.921 60.9976 224.724 60.9976ZM76.5762 117.519H94.6934V93.9155H112.301V117.519H120.339V132.83H112.301V146.737H94.6934V132.83H58.9688V119.433L79.7656 62.5288H99.1592L76.5762 117.519ZM155.881 76.3081C150.692 76.3082 146.95 78.4351 144.653 82.688C142.442 86.9409 141.336 94.2983 141.336 104.76C141.336 115.222 142.485 122.538 144.781 126.706C147.078 130.873 150.82 132.958 156.009 132.958C161.197 132.957 164.897 130.873 167.108 126.706C169.32 122.538 170.426 115.222 170.426 104.76C170.426 94.2131 169.32 86.8558 167.108 82.688C164.897 78.4351 161.154 76.3081 155.881 76.3081ZM224.724 76.3081C219.535 76.3081 215.793 78.4351 213.496 82.688C211.285 86.9409 210.179 94.2983 210.179 104.76C210.179 115.222 211.327 122.538 213.624 126.706C215.921 130.873 219.663 132.958 224.852 132.958C230.04 132.957 233.74 130.873 235.951 126.706C238.163 122.538 239.269 115.222 239.269 104.76C239.269 94.2132 238.163 86.8558 235.951 82.688C233.74 78.4351 229.997 76.3081 224.724 76.3081Z" fill="#FFE344"/>
</g>
<defs>
<clipPath id="clip0_8545_27831">
<rect width="640" height="200" fill="white"/>
</clipPath>
</defs>
</svg>
