<svg width="640" height="200" viewBox="0 0 640 200" fill="none" xmlns="http://www.w3.org/2000/svg">
<g clip-path="url(#clip0_8545_27830)">
<path d="M270.521 98.7676V86.7676H273.138V98.7676H270.521ZM270.521 84.7276V81.9676H273.138V84.7276H270.521ZM278.927 98.7676H276.311V86.7676H278.903V87.5116C280.071 86.8396 281.175 86.5036 282.215 86.5036C283.815 86.5036 284.903 86.9596 285.479 87.8716C286.071 88.7676 286.367 90.2556 286.367 92.3356V98.7676H283.775V92.4076C283.775 91.1116 283.631 90.1916 283.343 89.6476C283.071 89.1036 282.503 88.8316 281.639 88.8316C280.823 88.8316 280.039 88.9916 279.287 89.3116L278.927 89.4556V98.7676ZM303.23 96.6076L303.902 96.5356L303.95 98.4796C302.126 98.8476 300.51 99.0316 299.102 99.0316C297.326 99.0316 296.046 98.5436 295.262 97.5676C294.494 96.5916 294.11 95.0316 294.11 92.8876C294.11 88.6316 295.846 86.5036 299.318 86.5036C302.678 86.5036 304.358 88.3356 304.358 91.9996L304.19 93.8716H296.75C296.766 94.8636 296.982 95.5916 297.398 96.0556C297.814 96.5196 298.59 96.7516 299.726 96.7516C300.862 96.7516 302.03 96.7036 303.23 96.6076ZM301.79 91.8556C301.79 90.6716 301.598 89.8476 301.214 89.3836C300.846 88.9036 300.214 88.6636 299.318 88.6636C298.422 88.6636 297.766 88.9116 297.35 89.4076C296.95 89.9036 296.742 90.7196 296.726 91.8556H301.79ZM307.017 98.7676V81.7756H309.633V98.7676H307.017ZM321.487 96.6076L322.159 96.5356L322.207 98.4796C320.383 98.8476 318.767 99.0316 317.359 99.0316C315.583 99.0316 314.303 98.5436 313.519 97.5676C312.751 96.5916 312.367 95.0316 312.367 92.8876C312.367 88.6316 314.103 86.5036 317.575 86.5036C320.935 86.5036 322.615 88.3356 322.615 91.9996L322.447 93.8716H315.007C315.023 94.8636 315.239 95.5916 315.655 96.0556C316.071 96.5196 316.847 96.7516 317.983 96.7516C319.119 96.7516 320.287 96.7036 321.487 96.6076ZM320.047 91.8556C320.047 90.6716 319.855 89.8476 319.471 89.3836C319.103 88.9036 318.471 88.6636 317.575 88.6636C316.679 88.6636 316.023 88.9116 315.607 89.4076C315.207 89.9036 314.999 90.7196 314.983 91.8556H320.047ZM329.619 86.5036C330.467 86.5036 331.467 86.6156 332.619 86.8396L333.219 86.9596L333.123 89.0236C331.859 88.8956 330.923 88.8316 330.315 88.8316C329.099 88.8316 328.283 89.1036 327.867 89.6476C327.451 90.1916 327.243 91.2156 327.243 92.7196C327.243 94.2236 327.443 95.2636 327.843 95.8396C328.243 96.4156 329.075 96.7036 330.339 96.7036L333.147 96.5116L333.219 98.5996C331.603 98.8876 330.387 99.0316 329.571 99.0316C327.747 99.0316 326.459 98.5436 325.707 97.5676C324.971 96.5756 324.603 94.9596 324.603 92.7196C324.603 90.4796 324.995 88.8876 325.779 87.9436C326.563 86.9836 327.843 86.5036 329.619 86.5036ZM342.204 88.9996H338.892V94.2796C338.892 95.2556 338.964 95.9036 339.108 96.2236C339.252 96.5436 339.62 96.7036 340.212 96.7036L342.18 96.6316L342.3 98.7196C341.228 98.9276 340.412 99.0316 339.852 99.0316C338.492 99.0316 337.556 98.7196 337.044 98.0956C336.548 97.4716 336.3 96.2956 336.3 94.5676V88.9996H334.764V86.7676H336.3V83.2876H338.892V86.7676H342.204V88.9996ZM344.35 98.7676V86.7676H346.942V88.2076C348.302 87.3276 349.662 86.7596 351.022 86.5036V89.1196C349.646 89.3916 348.47 89.7436 347.494 90.1756L346.966 90.3916V98.7676H344.35ZM353.021 98.7676V86.7676H355.638V98.7676H353.021ZM353.021 84.7276V81.9676H355.638V84.7276H353.021ZM363.299 86.5036C364.147 86.5036 365.147 86.6156 366.299 86.8396L366.899 86.9596L366.803 89.0236C365.539 88.8956 364.603 88.8316 363.995 88.8316C362.779 88.8316 361.963 89.1036 361.547 89.6476C361.131 90.1916 360.923 91.2156 360.923 92.7196C360.923 94.2236 361.123 95.2636 361.523 95.8396C361.923 96.4156 362.755 96.7036 364.019 96.7036L366.827 96.5116L366.899 98.5996C365.283 98.8876 364.067 99.0316 363.251 99.0316C361.427 99.0316 360.139 98.5436 359.387 97.5676C358.651 96.5756 358.283 94.9596 358.283 92.7196C358.283 90.4796 358.675 88.8876 359.459 87.9436C360.243 86.9836 361.523 86.5036 363.299 86.5036ZM369.428 98.7676V86.7676H372.044V98.7676H369.428ZM369.428 84.7276V81.9676H372.044V84.7276H369.428ZM381.673 88.9996H378.361V94.2796C378.361 95.2556 378.433 95.9036 378.577 96.2236C378.721 96.5436 379.089 96.7036 379.681 96.7036L381.649 96.6316L381.769 98.7196C380.697 98.9276 379.881 99.0316 379.321 99.0316C377.961 99.0316 377.025 98.7196 376.513 98.0956C376.017 97.4716 375.769 96.2956 375.769 94.5676V88.9996H374.233V86.7676H375.769V83.2876H378.361V86.7676H381.673V88.9996ZM382.714 86.7676H385.282L387.826 96.5356H388.474L391.018 86.7676H393.61L389.05 103.928H386.482L387.922 98.7676H385.858L382.714 86.7676ZM276.114 110.504C277.762 110.504 278.946 110.968 279.666 111.896C280.402 112.808 280.77 114.432 280.77 116.768C280.77 119.104 280.338 120.736 279.474 121.664C278.61 122.576 277.09 123.032 274.914 123.032C274.162 123.032 272.97 122.96 271.338 122.816L270.521 122.744V105.776H273.114V111.224C274.218 110.744 275.218 110.504 276.114 110.504ZM274.914 120.704C276.194 120.704 277.042 120.408 277.458 119.816C277.89 119.208 278.106 118.184 278.106 116.744C278.106 115.304 277.922 114.296 277.554 113.72C277.202 113.128 276.618 112.832 275.802 112.832C275.034 112.832 274.266 112.952 273.498 113.192L273.114 113.312V120.608C273.994 120.672 274.594 120.704 274.914 120.704ZM283.389 122.768V110.768H286.005V122.768H283.389ZM283.389 108.728V105.968H286.005V108.728H283.389ZM289.322 122.768V105.776H291.938V122.768H289.322ZM295.392 122.768V105.776H298.008V122.768H295.392ZM311.08 110.504C311.928 110.504 312.928 110.616 314.08 110.84L314.68 110.96L314.584 113.024C313.32 112.896 312.384 112.832 311.776 112.832C310.56 112.832 309.744 113.104 309.328 113.648C308.912 114.192 308.704 115.216 308.704 116.72C308.704 118.224 308.904 119.264 309.304 119.84C309.704 120.416 310.536 120.704 311.8 120.704L314.608 120.512L314.68 122.6C313.064 122.888 311.848 123.032 311.032 123.032C309.208 123.032 307.92 122.544 307.168 121.568C306.432 120.576 306.064 118.96 306.064 116.72C306.064 114.48 306.456 112.888 307.24 111.944C308.024 110.984 309.304 110.504 311.08 110.504ZM317.209 122.768V110.768H319.801V112.208C321.161 111.328 322.521 110.76 323.881 110.504V113.12C322.505 113.392 321.329 113.744 320.353 114.176L319.825 114.392V122.768H317.209ZM334.331 120.608L335.003 120.536L335.051 122.48C333.227 122.848 331.611 123.032 330.203 123.032C328.427 123.032 327.147 122.544 326.363 121.568C325.595 120.592 325.211 119.032 325.211 116.888C325.211 112.632 326.947 110.504 330.419 110.504C333.779 110.504 335.459 112.336 335.459 116L335.291 117.872H327.851C327.867 118.864 328.083 119.592 328.499 120.056C328.915 120.52 329.691 120.752 330.827 120.752C331.963 120.752 333.131 120.704 334.331 120.608ZM332.891 115.856C332.891 114.672 332.699 113.848 332.315 113.384C331.947 112.904 331.315 112.664 330.419 112.664C329.523 112.664 328.867 112.912 328.451 113.408C328.051 113.904 327.843 114.72 327.827 115.856H332.891ZM347.767 105.776V122.768H345.175V122.144C344.007 122.736 342.935 123.032 341.959 123.032C340.391 123.032 339.239 122.56 338.503 121.616C337.783 120.672 337.423 119.088 337.423 116.864C337.423 114.64 337.823 113.024 338.623 112.016C339.439 111.008 340.703 110.504 342.415 110.504C342.991 110.504 343.903 110.608 345.151 110.816V105.776H347.767ZM344.743 120.272L345.151 120.104V113C344.191 112.84 343.303 112.76 342.487 112.76C340.871 112.76 340.063 114.104 340.063 116.792C340.063 118.264 340.247 119.288 340.615 119.864C340.999 120.424 341.599 120.704 342.415 120.704C343.231 120.704 344.007 120.56 344.743 120.272ZM350.936 122.768V110.768H353.552V122.768H350.936ZM350.936 108.728V105.968H353.552V108.728H350.936ZM363.181 113H359.869V118.28C359.869 119.256 359.941 119.904 360.085 120.224C360.229 120.544 360.597 120.704 361.189 120.704L363.157 120.632L363.277 122.72C362.205 122.928 361.389 123.032 360.829 123.032C359.469 123.032 358.533 122.72 358.021 122.096C357.525 121.472 357.277 120.296 357.277 118.568V113H355.741V110.768H357.277V107.288H359.869V110.768H363.181V113ZM373.654 113.24C371.766 112.984 370.398 112.856 369.55 112.856C368.702 112.856 368.11 112.96 367.774 113.168C367.454 113.36 367.294 113.672 367.294 114.104C367.294 114.536 367.47 114.84 367.822 115.016C368.19 115.192 369.038 115.4 370.366 115.64C371.71 115.864 372.662 116.224 373.222 116.72C373.782 117.216 374.062 118.096 374.062 119.36C374.062 120.624 373.654 121.552 372.838 122.144C372.038 122.736 370.862 123.032 369.31 123.032C368.334 123.032 367.102 122.896 365.614 122.624L364.87 122.504L364.966 120.32C366.886 120.576 368.27 120.704 369.118 120.704C369.966 120.704 370.566 120.6 370.918 120.392C371.286 120.184 371.47 119.84 371.47 119.36C371.47 118.88 371.294 118.552 370.942 118.376C370.606 118.184 369.782 117.984 368.47 117.776C367.174 117.552 366.222 117.208 365.614 116.744C365.006 116.28 364.702 115.432 364.702 114.2C364.702 112.968 365.118 112.048 365.95 111.44C366.798 110.832 367.878 110.528 369.19 110.528C370.214 110.528 371.47 110.656 372.958 110.912L373.702 111.056L373.654 113.24Z" fill="#FFE344"/>
<path d="M269.558 136.768H271.058L273.078 145.468H273.398L275.778 136.968H277.338L279.718 145.468H280.058L282.058 136.768H283.558L281.178 146.768H278.678L276.558 138.948L274.438 146.768H271.938L269.558 136.768ZM285.212 146.768V136.768H286.712V146.768H285.212ZM285.212 134.508V132.768H286.712V134.508H285.212ZM294.367 138.068H291.187V142.848C291.187 143.994 291.267 144.748 291.427 145.108C291.6 145.468 292 145.648 292.627 145.648L294.407 145.528L294.507 146.768C293.614 146.914 292.934 146.988 292.467 146.988C291.427 146.988 290.707 146.734 290.307 146.228C289.907 145.721 289.707 144.754 289.707 143.328V138.068H288.287V136.768H289.707V133.708H291.187V136.768H294.367V138.068ZM297.299 146.768H295.799V132.408H297.299V137.328C298.365 136.821 299.392 136.568 300.379 136.568C301.712 136.568 302.605 136.928 303.059 137.648C303.525 138.368 303.759 139.648 303.759 141.488V146.768H302.259V141.528C302.259 140.141 302.119 139.194 301.839 138.688C301.572 138.168 300.999 137.908 300.119 137.908C299.279 137.908 298.465 138.061 297.679 138.368L297.299 138.508V146.768ZM313.275 137.908C311.822 137.908 311.095 138.414 311.095 139.428C311.095 139.894 311.262 140.228 311.595 140.428C311.929 140.614 312.689 140.814 313.875 141.028C315.062 141.228 315.902 141.514 316.395 141.888C316.889 142.261 317.135 142.961 317.135 143.988C317.135 145.014 316.802 145.768 316.135 146.248C315.482 146.728 314.522 146.968 313.255 146.968C312.429 146.968 311.455 146.874 310.335 146.688L309.735 146.588L309.815 145.288C311.335 145.514 312.482 145.628 313.255 145.628C314.029 145.628 314.615 145.508 315.015 145.268C315.429 145.014 315.635 144.601 315.635 144.028C315.635 143.441 315.462 143.048 315.115 142.848C314.769 142.634 314.009 142.434 312.835 142.248C311.662 142.061 310.829 141.788 310.335 141.428C309.842 141.068 309.595 140.401 309.595 139.428C309.595 138.454 309.935 137.734 310.615 137.268C311.309 136.801 312.169 136.568 313.195 136.568C314.009 136.568 315.029 136.661 316.255 136.848L316.815 136.948L316.775 138.228C315.295 138.014 314.129 137.908 313.275 137.908ZM325.832 145.528L326.412 145.468L326.452 146.648C324.932 146.861 323.632 146.968 322.552 146.968C321.112 146.968 320.092 146.554 319.492 145.728C318.892 144.888 318.592 143.588 318.592 141.828C318.592 138.321 319.986 136.568 322.772 136.568C324.119 136.568 325.126 136.948 325.792 137.708C326.459 138.454 326.792 139.634 326.792 141.248L326.712 142.388H320.112C320.112 143.494 320.312 144.314 320.712 144.848C321.112 145.381 321.806 145.648 322.792 145.648C323.792 145.648 324.806 145.608 325.832 145.528ZM325.292 141.188C325.292 139.961 325.092 139.094 324.692 138.588C324.306 138.081 323.666 137.828 322.772 137.828C321.892 137.828 321.226 138.094 320.772 138.628C320.332 139.161 320.106 140.014 320.092 141.188H325.292ZM328.85 146.768V132.408H330.35V146.768H328.85ZM339.759 145.528L340.339 145.468L340.379 146.648C338.859 146.861 337.559 146.968 336.479 146.968C335.039 146.968 334.019 146.554 333.419 145.728C332.819 144.888 332.519 143.588 332.519 141.828C332.519 138.321 333.912 136.568 336.699 136.568C338.045 136.568 339.052 136.948 339.719 137.708C340.385 138.454 340.719 139.634 340.719 141.248L340.639 142.388H334.039C334.039 143.494 334.239 144.314 334.639 144.848C335.039 145.381 335.732 145.648 336.719 145.648C337.719 145.648 338.732 145.608 339.759 145.528ZM339.219 141.188C339.219 139.961 339.019 139.094 338.619 138.588C338.232 138.081 337.592 137.828 336.699 137.828C335.819 137.828 335.152 138.094 334.699 138.628C334.259 139.161 334.032 140.014 334.019 141.188H339.219ZM346.396 136.568C346.836 136.568 347.583 136.648 348.636 136.808L349.116 136.868L349.056 138.088C347.99 137.968 347.203 137.908 346.696 137.908C345.563 137.908 344.79 138.181 344.376 138.728C343.976 139.261 343.776 140.261 343.776 141.728C343.776 143.181 343.963 144.194 344.336 144.768C344.723 145.341 345.516 145.628 346.716 145.628L349.076 145.448L349.136 146.688C347.896 146.874 346.97 146.968 346.356 146.968C344.796 146.968 343.716 146.568 343.116 145.768C342.53 144.968 342.236 143.621 342.236 141.728C342.236 139.821 342.556 138.488 343.196 137.728C343.836 136.954 344.903 136.568 346.396 136.568ZM356.147 138.068H352.967V142.848C352.967 143.994 353.047 144.748 353.207 145.108C353.381 145.468 353.781 145.648 354.407 145.648L356.187 145.528L356.287 146.768C355.394 146.914 354.714 146.988 354.247 146.988C353.207 146.988 352.487 146.734 352.087 146.228C351.687 145.721 351.487 144.754 351.487 143.328V138.068H350.067V136.768H351.487V133.708H352.967V136.768H356.147V138.068ZM364.379 145.528L364.959 145.468L364.999 146.648C363.479 146.861 362.179 146.968 361.099 146.968C359.659 146.968 358.639 146.554 358.039 145.728C357.439 144.888 357.139 143.588 357.139 141.828C357.139 138.321 358.532 136.568 361.319 136.568C362.666 136.568 363.672 136.948 364.339 137.708C365.006 138.454 365.339 139.634 365.339 141.248L365.259 142.388H358.659C358.659 143.494 358.859 144.314 359.259 144.848C359.659 145.381 360.352 145.648 361.339 145.648C362.339 145.648 363.352 145.608 364.379 145.528ZM363.839 141.188C363.839 139.961 363.639 139.094 363.239 138.588C362.852 138.081 362.212 137.828 361.319 137.828C360.439 137.828 359.772 138.094 359.319 138.628C358.879 139.161 358.652 140.014 358.639 141.188H363.839ZM374.957 132.408V146.768H373.477V146.088C372.45 146.674 371.437 146.968 370.437 146.968C369.903 146.968 369.437 146.901 369.037 146.768C368.637 146.634 368.263 146.394 367.917 146.048C367.197 145.328 366.837 144.001 366.837 142.068C366.837 140.121 367.157 138.721 367.797 137.868C368.45 137.001 369.523 136.568 371.017 136.568C371.79 136.568 372.61 136.654 373.477 136.828V132.408H374.957ZM369.077 144.968C369.29 145.221 369.517 145.394 369.757 145.488C369.997 145.581 370.303 145.628 370.677 145.628C371.063 145.628 371.49 145.568 371.957 145.448C372.437 145.314 372.81 145.188 373.077 145.068L373.477 144.888V138.108C372.623 137.948 371.83 137.868 371.097 137.868C370.083 137.868 369.377 138.194 368.977 138.848C368.577 139.488 368.377 140.488 368.377 141.848C368.377 143.394 368.61 144.434 369.077 144.968ZM381.457 151.208V136.768H382.937V137.488C383.951 136.874 384.951 136.568 385.937 136.568C387.204 136.568 388.124 136.974 388.697 137.788C389.271 138.588 389.557 139.914 389.557 141.768C389.557 143.621 389.217 144.954 388.537 145.768C387.871 146.568 386.757 146.968 385.197 146.968C384.384 146.968 383.637 146.894 382.957 146.748V151.208H381.457ZM385.717 137.908C385.317 137.908 384.884 137.974 384.417 138.108C383.964 138.241 383.604 138.374 383.337 138.508L382.957 138.708V145.448C383.904 145.594 384.624 145.668 385.117 145.668C386.197 145.668 386.951 145.361 387.377 144.748C387.817 144.134 388.037 143.134 388.037 141.748C388.037 140.361 387.837 139.374 387.437 138.788C387.051 138.201 386.477 137.908 385.717 137.908ZM391.724 146.768V132.408H393.224V146.768H391.724ZM402.893 139.788V144.908C402.933 145.401 403.32 145.694 404.053 145.788L403.993 146.968C402.94 146.968 402.146 146.701 401.613 146.168C400.413 146.701 399.213 146.968 398.013 146.968C397.093 146.968 396.393 146.708 395.913 146.188C395.433 145.668 395.193 144.921 395.193 143.948C395.193 142.974 395.44 142.261 395.933 141.808C396.426 141.341 397.2 141.054 398.253 140.948L401.393 140.648V139.788C401.393 139.108 401.246 138.621 400.953 138.328C400.66 138.034 400.26 137.888 399.753 137.888C398.686 137.888 397.58 137.954 396.433 138.088L395.813 138.148L395.753 137.008C397.22 136.714 398.52 136.568 399.653 136.568C400.786 136.568 401.606 136.828 402.113 137.348C402.633 137.868 402.893 138.681 402.893 139.788ZM396.733 143.868C396.733 145.094 397.24 145.708 398.253 145.708C399.16 145.708 400.053 145.554 400.933 145.248L401.393 145.088V141.788L398.433 142.068C397.833 142.121 397.4 142.294 397.133 142.588C396.866 142.881 396.733 143.308 396.733 143.868ZM406.952 146.768H405.452V136.768H406.932V137.468C408.012 136.868 409.046 136.568 410.032 136.568C411.366 136.568 412.259 136.928 412.712 137.648C413.179 138.368 413.412 139.648 413.412 141.488V146.768H411.932V141.528C411.932 140.141 411.792 139.194 411.512 138.688C411.246 138.168 410.666 137.908 409.772 137.908C409.346 137.908 408.892 137.974 408.412 138.108C407.946 138.228 407.586 138.348 407.332 138.468L406.952 138.648V146.768ZM418.935 137.908C417.481 137.908 416.755 138.414 416.755 139.428C416.755 139.894 416.921 140.228 417.255 140.428C417.588 140.614 418.348 140.814 419.535 141.028C420.721 141.228 421.561 141.514 422.055 141.888C422.548 142.261 422.795 142.961 422.795 143.988C422.795 145.014 422.461 145.768 421.795 146.248C421.141 146.728 420.181 146.968 418.915 146.968C418.088 146.968 417.115 146.874 415.995 146.688L415.395 146.588L415.475 145.288C416.995 145.514 418.141 145.628 418.915 145.628C419.688 145.628 420.275 145.508 420.675 145.268C421.088 145.014 421.295 144.601 421.295 144.028C421.295 143.441 421.121 143.048 420.775 142.848C420.428 142.634 419.668 142.434 418.495 142.248C417.321 142.061 416.488 141.788 415.995 141.428C415.501 141.068 415.255 140.401 415.255 139.428C415.255 138.454 415.595 137.734 416.275 137.268C416.968 136.801 417.828 136.568 418.855 136.568C419.668 136.568 420.688 136.661 421.915 136.848L422.475 136.948L422.435 138.228C420.955 138.014 419.788 137.908 418.935 137.908Z" fill="white"/>
</g>
<defs>
<clipPath id="clip0_8545_27830">
<rect width="640" height="200" fill="white"/>
</clipPath>
</defs>
</svg>
