<svg width="300" height="75" viewBox="0 0 300 75" fill="none" xmlns="http://www.w3.org/2000/svg">
<path d="M300 75L0 51V75H300Z" fill="#F9DD3E"/>
<path d="M170.713 75H300L0 61.8L0 75H170.713Z" fill="url(#paint0_linear_4211_3001)"/>
<path d="M183.791 34.2788H184.882V48.6399H183.791V34.2788ZM180.143 41.455V44.1002C180.143 44.5565 180.07 45.0128 179.925 45.4544C179.78 45.8954 179.564 46.2977 179.282 46.6499C179 47.0008 178.645 47.287 178.227 47.5005C177.809 47.7133 177.318 47.8214 176.768 47.8214C176.341 47.8214 175.918 47.7447 175.513 47.5932C175.11 47.4431 174.749 47.1923 174.441 46.8487C174.131 46.5045 173.88 46.0495 173.694 45.4965C173.508 44.9421 173.413 44.2523 173.413 43.4457C173.413 42.7086 173.503 42.0615 173.683 41.5211C173.863 40.9821 174.107 40.5304 174.41 40.1788C174.711 39.8293 175.062 39.5644 175.453 39.3923C175.844 39.2209 176.266 39.1335 176.703 39.1335C177.418 39.1335 178.072 39.3463 178.65 39.7666C179.228 40.1862 179.73 40.7546 180.144 41.455H180.143ZM180.167 40.1969C180.04 39.9914 179.888 39.7852 179.713 39.5818C179.492 39.3249 179.226 39.0868 178.921 38.8746C178.615 38.6611 178.268 38.4844 177.884 38.3496C177.499 38.2142 177.068 38.1461 176.599 38.1461C176.016 38.1461 175.461 38.2655 174.95 38.5004C174.439 38.7352 173.981 39.0861 173.591 39.5404C173.2 39.9954 172.888 40.5564 172.662 41.2082C172.436 41.86 172.321 42.6125 172.321 43.4464C172.321 44.393 172.433 45.2129 172.651 45.8847C172.87 46.5592 173.179 47.1209 173.57 47.5552C173.961 47.9902 174.431 48.3117 174.964 48.5112C175.496 48.71 176.081 48.8107 176.703 48.8107C177.513 48.8107 178.224 48.6079 178.814 48.209C179.343 47.8507 179.79 47.3778 180.143 46.8V48.0956C180.143 48.7887 180.062 49.3871 179.903 49.8721C179.745 50.3531 179.522 50.7474 179.243 51.0429C178.963 51.3371 178.62 51.5513 178.224 51.682C177.824 51.8134 177.369 51.8802 176.872 51.8802C176.221 51.8802 175.612 51.8028 175.065 51.65C174.515 51.4966 174.041 51.3131 173.654 51.1056L173.59 51.0709L173.299 51.9702L173.344 51.9936C173.738 52.2057 174.242 52.4059 174.842 52.5893C175.443 52.7734 176.112 52.8668 176.831 52.8668C178.205 52.8668 179.293 52.4699 180.068 51.6867C180.842 50.9035 181.235 49.702 181.235 48.1156V38.3149H180.403L180.166 40.1975L180.167 40.1969ZM169.687 43.379V44.4591C169.687 44.8714 169.603 45.2837 169.439 45.6819C169.273 46.0815 169.033 46.4485 168.723 46.7727C168.414 47.0962 168.027 47.3617 167.573 47.5619C167.12 47.762 166.589 47.8627 165.995 47.8627C165.693 47.8627 165.4 47.8214 165.126 47.7393C164.854 47.6579 164.613 47.5299 164.41 47.3597C164.207 47.1903 164.046 46.9741 163.931 46.716C163.815 46.4578 163.757 46.1462 163.757 45.79C163.757 44.9554 164.028 44.3397 164.564 43.9594C165.106 43.5738 166.013 43.379 167.259 43.379H169.687ZM167.006 38.1435C166.287 38.1435 165.622 38.2328 165.028 38.4103C164.435 38.5871 163.941 38.7919 163.559 39.018L163.518 39.0434L163.787 39.8786L163.852 39.8426C164.254 39.6211 164.715 39.4377 165.219 39.2989C165.725 39.1601 166.327 39.0894 167.006 39.0894C167.871 39.0894 168.543 39.2909 169.001 39.6872C169.455 40.0814 169.686 40.7846 169.686 41.7746V42.4324H167.258C165.776 42.4324 164.637 42.7139 163.87 43.2683C163.098 43.8267 162.707 44.6752 162.707 45.7893C162.707 46.275 162.79 46.71 162.954 47.0816C163.118 47.4538 163.35 47.7734 163.644 48.0322C163.937 48.2897 164.288 48.4858 164.688 48.6153C165.085 48.744 165.517 48.8087 165.972 48.8087C166.849 48.8087 167.62 48.6139 168.259 48.229C168.848 47.8748 169.336 47.3798 169.708 46.7587L169.946 48.6393H170.755V41.7746C170.755 40.6652 170.441 39.7732 169.822 39.1235C169.202 38.473 168.254 38.1435 167.006 38.1435Z" fill="white"/>
<path d="M146.974 21.0458C146.235 21.6402 146.115 22.7323 146.708 23.4721L156.011 35.0907C156.604 35.8312 157.694 35.9513 158.432 35.3569C159.172 34.7625 159.291 33.6704 158.698 32.9306L149.396 21.312C149.056 20.8883 148.555 20.6682 148.049 20.6682C147.671 20.6682 147.29 20.7916 146.975 21.0458" fill="white"/>
<path d="M143.157 40.401C143.001 41.3376 143.637 42.2316 144.572 42.3877L155.34 44.1876C156.274 44.3437 157.166 43.7052 157.322 42.7686C157.478 41.832 156.841 40.938 155.907 40.7819L145.139 38.982C145.045 38.966 144.95 38.9587 144.856 38.9587C144.031 38.9587 143.297 39.5591 143.157 40.4003" fill="white"/>
<path d="M160.674 13.1444C159.733 13.2545 159.053 14.1151 159.162 15.0584L160.877 29.8551C160.987 30.7984 161.846 31.4796 162.787 31.3702C163.727 31.2601 164.408 30.3995 164.298 29.4562L162.583 14.6601C162.481 13.7835 161.732 13.1331 160.871 13.1331C160.806 13.1331 160.74 13.1371 160.673 13.1444" fill="white"/>
<path d="M170.957 18.1165L166.883 29.3008C166.559 30.1927 167.021 31.1887 167.911 31.5136C168.801 31.8385 169.795 31.3762 170.12 30.4836L174.193 19.2993C174.518 18.4073 174.056 17.4113 173.166 17.0864C172.972 17.0157 172.775 16.9823 172.579 16.9823C171.876 16.9823 171.212 17.418 170.957 18.1165Z" fill="white"/>
<path d="M177.53 26.2433L172.826 31.4442C172.19 32.1474 172.243 33.2441 172.945 33.8819C173.647 34.519 174.741 34.4656 175.377 33.7618L180.082 28.5609C180.718 27.8578 180.664 26.761 179.962 26.1233C179.634 25.825 179.22 25.6783 178.807 25.6783C178.337 25.6783 177.868 25.8684 177.53 26.2427" fill="white"/>
<line x1="201.205" y1="13.9592" x2="201.205" y2="52.0409" stroke="#A7A9B3" stroke-width="0.380817"/>
<g clip-path="url(#clip0_4211_3001)">
<path d="M281.895 32.5557L285.561 42.2631C284.481 42.1085 283.401 41.9152 282.3 41.7415L280.235 36.3771L278.113 41.2982C277.071 41.1245 276.047 41.0661 275.006 40.9312L278.73 32.4399L275.353 23.7368H278.48L280.371 28.5995L282.397 23.7368H285.561L281.895 32.5557ZM272.883 23.7368H270.046V40.5648C270.972 40.6227 271.937 40.6609 272.883 40.7767V23.7368ZM267.595 40.3715C265.009 40.1978 262.423 40.0439 259.78 39.9854V23.7368H262.674V37.2453C264.334 37.2841 265.993 37.4189 267.595 37.4959V40.3715ZM256.692 30.3174V33.2121H252.736V39.7927H249.88V23.7368H257.985V26.6315H252.736V30.3174H256.692ZM245.016 26.6315V39.9472C244.052 39.9472 243.068 39.9472 242.122 39.9854V26.6315H239.13V23.7368H248.027V26.6315H245.016ZM236.004 33.366C234.731 33.366 233.225 33.366 232.145 33.4245V37.728C233.843 37.6117 235.541 37.4768 237.258 37.4189V40.1978L229.25 40.8351V23.7368H237.258V26.6315H232.145V30.5293C233.264 30.5293 234.981 30.4714 236.004 30.4714V33.366ZM219.967 31.7453V41.8573C218.926 41.9737 217.999 42.1085 217.015 42.2631V23.7368H219.775L223.538 34.2545V23.7368H226.432V41.0661C225.409 41.2403 224.368 41.2982 223.267 41.4521L219.967 31.7453Z" fill="#E50914"/>
</g>
<defs>
<linearGradient id="paint0_linear_4211_3001" x1="-1.79311" y1="75.2082" x2="374.713" y2="73.2441" gradientUnits="userSpaceOnUse">
<stop offset="0.238363" stop-color="#00CEED"/>
<stop offset="0.473958" stop-color="#0076BF"/>
<stop offset="0.733675" stop-color="#00168D"/>
</linearGradient>
<clipPath id="clip0_4211_3001">
<rect width="68.5471" height="18.5262" fill="white" transform="translate(217.015 23.7368)"/>
</clipPath>
</defs>
</svg>
