<svg width="115" height="30" viewBox="0 0 115 30" fill="none" xmlns="http://www.w3.org/2000/svg">
<rect width="114.29" height="29.4553" rx="4.15176" fill="white"/>
<path d="M8.30371 20.5527H18.6831" stroke="#DC1928" stroke-width="0.998851" stroke-linecap="round"/>
<path d="M8.55371 15.2266L13.4937 18.434L18.5422 15.2266" stroke="#DC1928" stroke-width="0.998851" stroke-linecap="round"/>
<path d="M13.4849 8.90234V18.4344" stroke="#DC1928" stroke-width="0.998851" stroke-linecap="round"/>
<path d="M27.6343 9.70754H30.8023C33.1783 9.70754 34.9303 11.1475 34.9303 13.9675C34.9303 16.7755 33.1783 18.2275 30.8023 18.2275H27.6343V9.70754ZM30.6583 10.9315H29.1103V17.0035H30.6583C32.4103 17.0035 33.4183 16.0795 33.4183 13.9675C33.4183 11.8555 32.4103 10.9315 30.6583 10.9315ZM35.7518 15.1075C35.7518 13.1275 36.9398 11.8435 38.7158 11.8435C40.4798 11.8435 41.6798 13.1275 41.6798 15.1075C41.6798 17.0875 40.4798 18.3715 38.7158 18.3715C36.9398 18.3715 35.7518 17.0875 35.7518 15.1075ZM40.2398 14.8435C40.2398 13.6555 39.6278 12.9715 38.7158 12.9715C37.7918 12.9715 37.1918 13.6555 37.1918 14.8435V15.3595C37.1918 16.5475 37.7918 17.2435 38.7158 17.2435C39.6278 17.2435 40.2398 16.5475 40.2398 15.3595V14.8435ZM49.1705 18.2275H47.6585L46.4585 14.0875L45.3185 18.2275H43.7345L42.0185 11.9875H43.4225L44.5865 16.5235L45.8345 11.9875H47.0705L48.3905 16.5235L49.5425 11.9875H50.8745L49.1705 18.2275ZM52.9955 14.3755V18.2275H51.5795V11.9875H52.9955V12.7195H53.0435C53.4515 12.1795 53.9675 11.8435 54.7955 11.8435C56.0315 11.8435 56.8235 12.7555 56.8235 14.1595V18.2275H55.4075V14.2795C55.4075 13.5595 55.0955 13.0435 54.2795 13.0435C53.4395 13.0435 52.9955 13.6435 52.9955 14.3755ZM59.9579 18.2275C58.8299 18.2275 58.1819 17.5795 58.1819 16.5595V9.34754H59.5979V16.4395C59.5979 16.8475 59.7539 17.0875 60.1979 17.0875H60.6179V18.2275H59.9579ZM61.2977 15.1075C61.2977 13.1275 62.4857 11.8435 64.2617 11.8435C66.0257 11.8435 67.2257 13.1275 67.2257 15.1075C67.2257 17.0875 66.0257 18.3715 64.2617 18.3715C62.4857 18.3715 61.2977 17.0875 61.2977 15.1075ZM65.7857 14.8435C65.7857 13.6555 65.1737 12.9715 64.2617 12.9715C63.3377 12.9715 62.7377 13.6555 62.7377 14.8435V15.3595C62.7377 16.5475 63.3377 17.2435 64.2617 17.2435C65.1737 17.2435 65.7857 16.5475 65.7857 15.3595V14.8435ZM71.8233 17.3995C71.4993 17.9515 70.8753 18.3715 69.9753 18.3715C68.7993 18.3715 67.9833 17.6635 67.9833 16.5115C67.9833 15.2875 68.9073 14.8195 69.9153 14.6875L71.2233 14.5195C71.7273 14.4595 71.8353 14.2555 71.8353 13.8595C71.8353 13.2955 71.4993 12.8875 70.7433 12.8875C69.9873 12.8875 69.6033 13.3075 69.5553 13.9075H68.1033C68.1393 12.8635 69.0153 11.8435 70.7073 11.8435C72.3273 11.8435 73.2513 12.7915 73.2513 14.1715V17.1595C73.2513 17.5435 73.3113 17.9275 73.3713 18.2275H71.9193C71.8833 17.9875 71.8593 17.7235 71.8593 17.3995H71.8233ZM71.8473 14.9995C71.6433 15.1915 71.3793 15.2875 71.0553 15.3475L70.4313 15.4915C69.7953 15.6235 69.4113 15.8755 69.4113 16.4515C69.4113 17.0395 69.7593 17.3395 70.4073 17.3395C71.1873 17.3395 71.8473 16.8115 71.8473 15.9835V14.9995ZM78.7096 17.3875C78.3616 17.9635 77.6656 18.3715 76.8496 18.3715C75.3496 18.3715 74.2816 17.0875 74.2816 15.1075C74.2816 13.1275 75.3496 11.8435 76.8496 11.8435C77.6656 11.8435 78.3616 12.2515 78.7096 12.8275H78.7576V9.34754H80.1736V18.2275H78.7576V17.3875H78.7096ZM75.7216 15.3475C75.7216 16.5715 76.2856 17.2435 77.2456 17.2435C78.1336 17.2435 78.7576 16.5355 78.7576 15.4315V14.7835C78.7576 13.6795 78.1336 12.9715 77.2456 12.9715C76.2856 12.9715 75.7216 13.6555 75.7216 14.8795V15.3475ZM85.2558 14.3755V18.2275H83.8398V11.9875H85.2558V12.7195H85.3038C85.7118 12.1795 86.2278 11.8435 87.0558 11.8435C88.2918 11.8435 89.0838 12.7555 89.0838 14.1595V18.2275H87.6678V14.2795C87.6678 13.5595 87.3558 13.0435 86.5398 13.0435C85.6998 13.0435 85.2558 13.6435 85.2558 14.3755ZM90.1422 15.1075C90.1422 13.1275 91.3302 11.8435 93.1062 11.8435C94.8702 11.8435 96.0702 13.1275 96.0702 15.1075C96.0702 17.0875 94.8702 18.3715 93.1062 18.3715C91.3302 18.3715 90.1422 17.0875 90.1422 15.1075ZM94.6302 14.8435C94.6302 13.6555 94.0182 12.9715 93.1062 12.9715C92.1822 12.9715 91.5822 13.6555 91.5822 14.8435V15.3595C91.5822 16.5475 92.1822 17.2435 93.1062 17.2435C94.0182 17.2435 94.6302 16.5475 94.6302 15.3595V14.8435ZM103.561 18.2275H102.049L100.849 14.0875L99.709 18.2275H98.125L96.409 11.9875H97.813L98.977 16.5235L100.225 11.9875H101.461L102.781 16.5235L103.933 11.9875H105.265L103.561 18.2275Z" fill="#DC1928"/>
</svg>
