<svg width="970" height="250" viewBox="0 0 970 250" fill="none" xmlns="http://www.w3.org/2000/svg">
<g clip-path="url(#clip0_7191_25852)">
<path d="M970 250L0 218V250H970Z" fill="#F9DD3E"/>
<path d="M551.971 250H970L0 232.4L0 250H551.971Z" fill="url(#paint0_linear_7191_25852)"/>
<path d="M803.565 205.273H805.077V225.188H803.565V205.273ZM798.506 215.225V218.893C798.506 219.525 798.406 220.158 798.204 220.771C798.003 221.382 797.703 221.94 797.312 222.428C796.922 222.915 796.429 223.312 795.849 223.608C795.269 223.903 794.589 224.053 793.825 224.053C793.233 224.053 792.648 223.946 792.086 223.736C791.527 223.528 791.027 223.18 790.599 222.704C790.169 222.227 789.822 221.596 789.563 220.829C789.305 220.06 789.173 219.104 789.173 217.985C789.173 216.963 789.299 216.066 789.549 215.316C789.798 214.569 790.136 213.942 790.556 213.455C790.974 212.97 791.461 212.603 792.002 212.364C792.545 212.127 793.13 212.005 793.737 212.005C794.727 212.005 795.635 212.3 796.436 212.883C797.237 213.465 797.933 214.253 798.507 215.225H798.506ZM798.539 213.48C798.364 213.195 798.153 212.909 797.91 212.627C797.603 212.271 797.234 211.941 796.812 211.646C796.388 211.35 795.906 211.105 795.374 210.918C794.84 210.731 794.242 210.636 793.591 210.636C792.784 210.636 792.014 210.802 791.305 211.127C790.596 211.453 789.961 211.94 789.42 212.57C788.879 213.201 788.446 213.979 788.132 214.882C787.819 215.786 787.66 216.83 787.66 217.986C787.66 219.299 787.814 220.436 788.117 221.367C788.421 222.303 788.849 223.081 789.391 223.684C789.933 224.287 790.585 224.733 791.325 225.009C792.062 225.285 792.873 225.425 793.737 225.425C794.86 225.425 795.845 225.144 796.664 224.59C797.397 224.094 798.016 223.438 798.505 222.637V224.433C798.505 225.394 798.393 226.224 798.173 226.897C797.954 227.564 797.645 228.11 797.257 228.52C796.87 228.928 796.394 229.225 795.845 229.406C795.29 229.589 794.659 229.681 793.971 229.681C793.067 229.681 792.223 229.574 791.465 229.362C790.702 229.149 790.045 228.895 789.508 228.607L789.419 228.559L789.016 229.806L789.078 229.838C789.625 230.133 790.323 230.41 791.155 230.665C791.989 230.92 792.916 231.049 793.913 231.049C795.818 231.049 797.328 230.499 798.403 229.413C799.476 228.327 800.02 226.661 800.02 224.461V210.87H798.867L798.538 213.481L798.539 213.48ZM784.006 217.893V219.39C784.006 219.962 783.891 220.534 783.662 221.086C783.433 221.64 783.1 222.149 782.671 222.599C782.241 223.047 781.705 223.415 781.076 223.693C780.447 223.971 779.71 224.11 778.887 224.11C778.468 224.11 778.063 224.053 777.682 223.939C777.305 223.826 776.971 223.649 776.689 223.413C776.408 223.178 776.184 222.878 776.025 222.52C775.865 222.162 775.783 221.73 775.783 221.236C775.783 220.079 776.16 219.225 776.903 218.697C777.655 218.163 778.912 217.893 780.64 217.893H784.006ZM780.289 210.632C779.292 210.632 778.37 210.756 777.546 211.003C776.724 211.248 776.039 211.532 775.509 211.845L775.452 211.88L775.826 213.039L775.916 212.989C776.472 212.682 777.112 212.427 777.811 212.235C778.513 212.042 779.348 211.944 780.289 211.944C781.489 211.944 782.421 212.224 783.055 212.773C783.685 213.32 784.005 214.295 784.005 215.668V216.58H780.639C778.584 216.58 777.003 216.97 775.941 217.739C774.869 218.513 774.327 219.69 774.327 221.235C774.327 221.908 774.443 222.512 774.67 223.027C774.898 223.543 775.22 223.986 775.627 224.345C776.033 224.702 776.52 224.974 777.075 225.154C777.625 225.332 778.225 225.422 778.855 225.422C780.072 225.422 781.14 225.152 782.027 224.618C782.844 224.127 783.52 223.44 784.036 222.579L784.365 225.187H785.488V215.668C785.488 214.129 785.053 212.892 784.194 211.991C783.335 211.089 782.02 210.632 780.289 210.632Z" fill="white"/>
<path d="M752.511 186.923C751.486 187.747 751.32 189.262 752.142 190.288L765.043 206.399C765.864 207.426 767.376 207.593 768.4 206.768C769.425 205.944 769.591 204.43 768.768 203.404L755.869 187.292C755.398 186.705 754.703 186.4 754.002 186.4C753.477 186.4 752.949 186.571 752.512 186.923" fill="white"/>
<path d="M747.217 213.763C747.001 215.062 747.883 216.301 749.179 216.518L764.111 219.014C765.407 219.23 766.644 218.345 766.861 217.046C767.077 215.747 766.194 214.508 764.898 214.291L749.967 211.795C749.835 211.773 749.704 211.763 749.574 211.763C748.43 211.763 747.412 212.596 747.217 213.762" fill="white"/>
<path d="M771.508 175.966C770.203 176.119 769.26 177.312 769.411 178.621L771.79 199.139C771.942 200.447 773.134 201.392 774.438 201.24C775.743 201.087 776.686 199.894 776.534 198.586L774.156 178.068C774.014 176.853 772.976 175.951 771.782 175.951C771.692 175.951 771.6 175.956 771.507 175.966" fill="white"/>
<path d="M785.768 182.861L780.119 198.37C779.67 199.607 780.31 200.988 781.544 201.439C782.779 201.889 784.157 201.248 784.607 200.011L790.255 184.501C790.706 183.264 790.065 181.883 788.831 181.433C788.563 181.335 788.289 181.288 788.018 181.288C787.042 181.288 786.121 181.893 785.768 182.861Z" fill="white"/>
<path d="M794.883 194.131L788.359 201.343C787.477 202.318 787.551 203.839 788.525 204.723C789.498 205.606 791.015 205.532 791.897 204.556L798.421 197.344C799.303 196.369 799.229 194.849 798.256 193.964C797.801 193.551 797.226 193.347 796.653 193.347C796.002 193.347 795.352 193.611 794.883 194.13" fill="white"/>
<line x1="827.713" y1="177.096" x2="827.713" y2="229.904" stroke="#A7A9B3" stroke-width="0.528078"/>
<g clip-path="url(#clip1_7191_25852)">
<path d="M939.605 202.884L944.689 216.345C943.19 216.131 941.693 215.863 940.167 215.622L937.303 208.183L934.36 215.007C932.915 214.766 931.496 214.685 930.051 214.498L935.216 202.723L930.533 190.655H934.869L937.491 197.398L940.301 190.655H944.689L939.605 202.884ZM927.108 190.655H923.174V213.99C924.458 214.07 925.796 214.123 927.108 214.284V190.655ZM919.775 213.722C916.189 213.481 912.603 213.268 908.938 213.187V190.655H912.951V209.387C915.253 209.441 917.554 209.628 919.775 209.734V213.722ZM904.655 199.78V203.794H899.17V212.919H895.209V190.655H906.449V194.669H899.17V199.78H904.655ZM888.465 194.669V213.134C887.127 213.134 885.763 213.134 884.451 213.187V194.669H880.303V190.655H892.64V194.669H888.465ZM875.968 204.008C874.202 204.008 872.115 204.008 870.616 204.089V210.056C872.971 209.895 875.326 209.708 877.707 209.628V213.481L866.602 214.365V190.655H877.707V194.669H870.616V200.074C872.168 200.074 874.55 199.994 875.968 199.994V204.008ZM853.73 201.76V215.782C852.285 215.944 851 216.131 849.636 216.345V190.655H853.463L858.681 205.24V190.655H862.695V214.685C861.277 214.927 859.832 215.007 858.306 215.221L853.73 201.76Z" fill="#E50914"/>
</g>
</g>
<defs>
<linearGradient id="paint0_linear_7191_25852" x1="-5.79771" y1="250.277" x2="1211.41" y2="234.879" gradientUnits="userSpaceOnUse">
<stop offset="0.238363" stop-color="#00CEED"/>
<stop offset="0.473958" stop-color="#0076BF"/>
<stop offset="0.733675" stop-color="#00168D"/>
</linearGradient>
<clipPath id="clip0_7191_25852">
<rect width="970" height="250" fill="white"/>
</clipPath>
<clipPath id="clip1_7191_25852">
<rect width="95.054" height="25.6903" fill="white" transform="translate(849.636 190.655)"/>
</clipPath>
</defs>
</svg>
