<svg width="172" height="98" viewBox="0 0 172 98" fill="none" xmlns="http://www.w3.org/2000/svg">
  <path d="M85.56,5.55v11.59h-16.85V.29h11.59c2.9,0,5.26,2.36,5.26,5.26Z" fill="#fff"/>
  <path d="M85.56,33.98h-16.85v16.85h16.85v-16.85Z" fill="#fff"/>
  <path d="M51.87.29h-16.85v16.85h16.85V.29Z" fill="#ffd000"/>
  <path d="M18.17,13.79V.29H1.33v45.28c0,2.9,2.36,5.26,5.26,5.26h11.59v-13.5c0-1.85,1.5-3.34,3.34-3.34h13.5v-16.85h-13.5c-1.85,0-3.34-1.5-3.34-3.34Z" fill="#fff"/>
  <path d="M51.87,33.98h-16.85v16.85h16.85v-16.85Z" fill="#fff"/>
  <path d="M19.69,69.37c-1.16,0-2.1-.37-2.87-1.16-.76-.77-1.13-1.72-1.13-2.9s.36-2.19,1.13-2.96c.76-.78,1.72-1.16,2.91-1.16s2.06.39,2.83,1.17c.77.78,1.15,1.72,1.15,2.88s-.37,2.15-1.15,2.95c-.77.79-1.71,1.18-2.88,1.18ZM24.26,60.86c-1.22-1.17-2.77-1.75-4.59-1.75s-3.37.59-4.57,1.75c-1.2,1.17-1.81,2.66-1.81,4.43s.61,3.2,1.8,4.35c1.19,1.15,2.71,1.73,4.49,1.73s3.42-.58,4.66-1.73c1.24-1.16,1.87-2.63,1.87-4.39s-.62-3.23-1.85-4.4ZM74.32,59.25v6.7c0,1.92-.74,3.23-2.88,3.23s-2.88-1.32-2.88-3.23v-6.7h-2.32v7.2c0,3.54,2.39,4.93,5.2,4.93s5.2-1.38,5.2-4.93v-7.2h-2.32ZM60.3,59.25v9.9h5.03v2.07h-7.35v-11.97h2.31ZM51.95,64.66c1.15,0,2.12-.53,2.12-1.67s-.66-1.67-2.12-1.67h-1.39v3.33h1.39ZM52.61,59.25c2.52,0,3.78,1.63,3.78,3.73s-1.56,3.75-3.87,3.75h-1.96v4.49h-2.31v-11.97h4.36ZM46.66,59.25v2.07h-3.93v9.9h-2.31v-9.9h-3.93v-2.07h10.18ZM82.2,59.1c1.17,0,2.29.29,3.37.87v2.36c-1.25-.75-2.07-1.21-3.33-1.21s-1.69.43-1.72,1.02c-.03.45.25.84.85,1.22.17.11.81.44,1.94,1,.96.48,1.69.98,2.12,1.54.43.57.66,1.25.66,2.04,0,1.03-.37,1.86-1.11,2.49-.74.63-1.7.95-2.88.95-.76,0-1.43-.08-1.97-.25-.56-.17-1.17-.45-1.86-.87v-2.63c1.28,1.07,2.45,1.72,3.58,1.72,1.07,0,1.78-.41,1.78-1.13,0-.49-.23-.93-.82-1.28-.49-.29-1.13-.62-1.89-1.04-.91-.5-1.64-.95-2.11-1.53-.46-.58-.7-1.21-.7-1.96,0-1.01.37-1.8,1.12-2.4.75-.6,1.73-.9,2.97-.9M31.52,59.1c1.17,0,2.29.29,3.37.87v2.36c-1.24-.75-2.07-1.21-3.33-1.21s-1.69.43-1.72,1.02c-.03.45.25.84.85,1.22.17.11.8.44,1.94,1,.96.48,1.69.98,2.13,1.54.43.57.65,1.25.65,2.04,0,1.03-.37,1.86-1.11,2.49-.74.63-1.7.95-2.88.95-.77,0-1.43-.08-1.97-.25-.54-.17-1.17-.45-1.86-.87v-2.63c1.28,1.07,2.45,1.72,3.58,1.72,1.07,0,1.78-.41,1.78-1.13,0-.49-.22-.93-.82-1.28-.49-.29-1.13-.62-1.89-1.04-.91-.5-1.64-.95-2.11-1.53-.46-.58-.7-1.21-.7-1.96,0-1.01.37-1.8,1.12-2.4.75-.6,1.73-.9,2.97-.9M3.64,59.25v4.77h5.68v-4.77h2.31v11.97h-2.31v-4.78H3.64v4.78H1.33v-11.97h2.31Z" fill="#fff"/>
  <line x1="105.22" y1=".12" x2="105.22" y2="71.81" fill="none" stroke="#fff" stroke-width=".57"/>
  <path d="M147.37,9.67c-13.98,0-24.08,5.83-24.08,5.83v28.83c0,4.15,1.54,8.07,4.71,11.96,2.31,2.84,5.42,5.61,10.06,9l9.32,6.64,9.28-6.64c4.65-3.38,7.75-6.15,10.06-9,3.17-3.9,4.72-7.81,4.72-11.96V15.5s-10.07-5.83-24.08-5.83ZM126.57,18.41c6.57-3.35,13.68-5.02,20.8-5.02,1.81,0,3.61.11,5.41.33-9.76.42-20.12,4.08-26.21,9.43v-4.74ZM147.38,67.17h0l-7.37-5.27c-7.3-5.31-13.43-11.03-13.43-18.31v-6.68c.78,6.57,6.65,11.86,13.43,16.79l13.11,9.37-5.74,4.1ZM167.99,42.26h0c-.43,1.15-1.1,3.1-1.61,4.28-.24.54-1.12.35-1.39.76-.82,1.23-2.48,1.49-3.48,1.33-1.42-.22-2.29-.74-3.12-1.4-.91-.72-.92-1.32-.89-1.83.03-.52.09-1.17.04-1.86,0-.88-2.29-3.21-4.02-6.09.8-.05,1.17-.28,1.17-.28-.22-.06-.43-.11-.65-.17-1.51-.41-2.95-1-4.25-1.86-.69-.46-1.33-1.11-1.87-1.85-.62-.96-1.4-2.8-.63-5.36-1,1.61-.99,3.73-.07,5.55-2.55,3.22-2.57,9.24,10.01,18.11h0s5.3,3.79,5.3,3.79c-1.51,1.57-3.25,3.07-5.12,4.54l-17.39-12.42c-7.05-5.13-13.01-10.65-13.41-17.57,2.12-5.93,9.43-12.99,27.12-15.47l.44-.05c1.11-.12,2.16-.1,3.27.12.99.22,1.97.48,2.94.77.1.03.2.06.28.1,2.56.78,5.07,1.79,7.51,3.03-.62,1.77-4.9,2.22-5.49,2.27.56.7,1.81,2.37,3.47,5.08.75,1.22,1.28,2.38,1.49,2.89.08.19.11.4.08.61-.08.48-.32,1.31-1.03,2.06,0,0,1.09,7.31,1.46,9.75.06.4-.02.8-.16,1.19ZM168.15,21.79h0c-.14,1.35-2.19,2.02-2.19,2.02-.7-1.11-1.79-2.61-1.79-2.61,0,0,1.91-.22,3.98.59Z" fill="#fff"/>
  <path d="M159.26,26.45c-.17-.27-.35-.53-.53-.68-.78-.58-1.94-1.39-2.93-1.61-.08.61.38,1.78.73,2.19.35.41,2.01.41,2.01.41l1.63,1.13-.91-1.44h0Z" fill="#fff"/>
  <path d="M165.22,31.06c.79-.84,1.02-1.56,1.07-1.95.02-.11,0-.23-.04-.33-.22-.58-1.17-2.64-4.38-5.25-3.22-2.63-6.9-3.31-6.9-3.31,0,0,5.32,1.51,9.02,8.51.06.12.08.26.05.39-.21.84-.87,1.33-.87,1.33,0,0-.8-.63-1.76-1.14,2.09,2.62,2.43,3.86,2.83,5.8l.48,2.84c.11.64.45.49.54,1.21-.27-.25-.72-.27-.72-.27-.54-.05-1.54.06-2.08.97-.6,1-.26,2.2-.26,2.2,0,0,.1-1.5,1.17-2.03.74-.37,1.54-.24,2.17.24.71.54,1.14.55,1.14.55l-1.46-9.74h0Z" fill="#fff"/>
  <path d="M128.71,7.52c0-.73-.39-1.08-.85-1.13.32-.3.71-.87.71-1.55,0-1.08-.65-1.46-1.79-1.02-1.18.46-2.34.95-3.49,1.49v2.34c.07-.73.36-1.11.93-1.37.06-.03,1.68-.73,2.42-1.03.39-.15.6-.05.6.29s-.21.61-.6.76c-.77.31-1.53.64-2.29.99-.61.28-.95.99-1.03,1.59-.02.11-.02.21-.02.31v2.45c1.19-.61,2.4-1.16,3.61-1.67.61-.25,1.09-.63,1.4-1.09.27-.4.41-.86.41-1.37h0ZM124.61,9.6v-1.14c.72-.33,1.44-.64,2.17-.94.38-.15.58-.01.58.33s-.21.64-.58.8c-.19.08-.38.16-.56.24-.54.23-1.07.47-1.61.72Z" fill="#fff"/>
  <path d="M134.1,5.39c.73-.48,1.17-1.22,1.17-2.11,0-1.04-.56-1.59-1.46-1.59-.21,0-.44.03-.69.09-1.14.29-2.27.62-3.39.98v6.11c.47-.17.95-.33,1.43-.48h0s0-2.01,0-2.01c.48-.15.95-.29,1.43-.42.38.56.76,1.12,1.13,1.69.55-.15,1.11-.29,1.67-.42-.43-.62-.86-1.24-1.29-1.85ZM133.05,4.54c-.64.17-1.27.35-1.89.54v-1.36c.63-.19,1.26-.37,1.89-.54h0c.51-.13.79.05.79.48,0,.4-.28.74-.79.88Z" fill="#fff"/>
  <path d="M137.76,6.75V.8c-.49.08-.98.17-1.47.27v5.97c.49-.1.98-.2,1.47-.29Z" fill="#fff"/>
  <path d="M141.83,4.92c-.77.08-1.73-.05-2.38-.64-.29.45-.58.9-.86,1.36.58.55,1.97.76,3.15.63,1.69-.18,2.91-.87,2.91-2.24s-1.27-1.51-2.53-1.55c-1.28-.02-1.67-.03-1.67-.34,0-.31.4-.55,1.1-.62.87-.09,1.68.15,2.13.59.29-.39.58-.78.87-1.17-.56-.53-1.66-.87-2.89-.75-1.62.16-2.71,1.07-2.71,2.32s1.09,1.36,2.31,1.37c1.35.02,1.79.03,1.79.43,0,.34-.51.55-1.23.62Z" fill="#fff"/>
  <path d="M156.12.66c-.56-.09-1.13-.16-1.69-.23-.89,1.86-1.78,3.73-2.67,5.62.52.04,1.05.1,1.57.16.16-.35.33-.7.49-1.05h0c.95.12,1.89.26,2.84.42.16.4.33.8.49,1.21.54.1,1.07.21,1.61.33-.88-2.18-1.75-4.33-2.63-6.44ZM154.41,3.94c.28-.61.57-1.21.85-1.81.28.68.56,1.37.84,2.06-.56-.09-1.13-.17-1.69-.25Z" fill="#fff"/>
  <path d="M165.24,2.85v6.12c-.08-.03-.16-.06-.25-.09-.34-.12-.67-.23-1.01-.35-1.01-1.65-2.04-3.25-3.06-4.81v3.9c-.47-.12-.94-.24-1.42-.35V1.29c.48.1.97.22,1.45.33.97,1.47,1.93,2.98,2.89,4.53v-3.74c.47.14.93.29,1.39.44Z" fill="#fff"/>
  <path d="M150.54,2.92c.33-.15.74-.53.74-1.18,0-1.04-.68-1.66-1.89-1.7-1.25-.05-2.51-.05-3.76,0v5.88c1.3-.04,2.6-.04,3.89.02h0c1.21.05,1.91-.51,1.91-1.55,0-.7-.41-1.2-.89-1.44ZM147.05,1.3c.73,0,1.46,0,2.19.03h0c.41.01.64.2.64.52s-.23.49-.64.48c-.65-.02-1.29-.03-1.94-.03-.08,0-.16,0-.24,0v-1ZM149.38,4.6c-.77-.03-1.55-.04-2.32-.04v-1.06c.77,0,1.55,0,2.32.04.4.01.62.24.62.56s-.22.52-.62.51Z" fill="#fff"/>
  <path d="M167.87,5.23v.92c1.07.42,2.12.88,3.17,1.38v1.42c-.05-.02-.1-.05-.15-.07-1-.48-2-.92-3.02-1.33v1.01c.26.11.51.21.77.32.94.4,1.87.84,2.79,1.3v1.47c-1.62-.82-3.27-1.56-4.94-2.21V3.29c1.68.6,3.32,1.27,4.94,2.03v1.46c-1.17-.56-2.36-1.08-3.57-1.55Z" fill="#fff"/>
  <path d="M3.73,97.03c-.48,0-.92-.09-1.33-.26-.41-.17-.76-.41-1.06-.72-.3-.3-.53-.66-.71-1.07-.17-.42-.25-.87-.25-1.34s.08-.93.25-1.34c.17-.41.41-.77.71-1.07.3-.3.66-.54,1.06-.72.41-.17.86-.26,1.33-.26s.92.09,1.32.26c.41.17.77.41,1.06.72.3.3.54.66.71,1.07.17.41.26.86.26,1.34s-.09.92-.26,1.34c-.17.41-.4.77-.71,1.07-.3.3-.65.54-1.06.72-.41.17-.85.26-1.32.26ZM3.73,95.66c.28,0,.54-.05.76-.16s.42-.26.57-.44c.16-.19.28-.4.37-.65.08-.24.13-.51.13-.78s-.04-.54-.13-.78c-.08-.24-.21-.46-.37-.64-.15-.19-.34-.33-.57-.43-.23-.11-.48-.16-.76-.16s-.54.05-.77.16c-.23.1-.42.25-.58.43-.15.18-.27.39-.36.64-.08.24-.13.51-.13.78s.04.54.13.78c.08.24.2.46.36.65.16.19.35.34.58.44.23.11.49.16.77.16ZM8.09,90.42h4.33v1.29h-2.87v1.46h2.18v1.25h-2.18v2.45h-1.46v-6.45ZM13.3,90.42h4.33v1.29h-2.87v1.46h2.18v1.25h-2.18v2.45h-1.46v-6.45ZM18.51,90.42h1.46v6.45h-1.46v-6.45ZM27.05,95.68c-.14.19-.3.36-.49.53-.19.16-.41.3-.65.43-.23.12-.49.22-.76.29-.27.07-.55.11-.85.11-.49,0-.94-.08-1.34-.25-.41-.17-.76-.4-1.05-.7-.29-.3-.52-.66-.68-1.06-.16-.41-.24-.86-.24-1.35s.08-.92.24-1.33c.16-.42.39-.78.68-1.08.3-.31.65-.55,1.05-.72.41-.18.87-.27,1.36-.27.6,0,1.12.11,1.57.33.45.22.82.53,1.12.95l-1,.96c-.19-.27-.42-.49-.69-.65-.26-.17-.58-.25-.95-.25-.29,0-.55.05-.78.16-.23.1-.43.25-.59.43-.16.19-.29.41-.38.66-.08.24-.13.51-.13.78s.04.55.13.79c.09.24.22.46.38.64.16.18.35.32.58.43.23.1.48.15.76.15.23,0,.43-.02.6-.07.17-.05.33-.12.45-.19.14-.08.25-.18.36-.28.1-.11.2-.22.3-.33l1,.91ZM27.81,90.42h1.46v6.45h-1.46v-6.45ZM32.37,90.42h1.61l2.36,6.45h-1.59l-.49-1.48h-2.27l-.49,1.48h-1.53l2.41-6.45ZM33.91,94.25l-.78-2.44-.8,2.44h1.58ZM37.05,90.42h1.46v5.15h3.08v1.29h-4.54v-6.45ZM44.67,94.94c.08.09.18.18.29.28.12.09.24.17.38.25.14.08.29.14.45.19.17.05.34.07.53.07.11,0,.22-.02.33-.05.11-.03.21-.08.3-.14.09-.06.16-.14.21-.22.06-.09.09-.19.09-.3,0-.24-.12-.42-.35-.55-.23-.14-.6-.27-1.1-.4-.24-.06-.47-.14-.69-.25-.21-.11-.39-.24-.54-.4-.15-.15-.26-.33-.35-.53-.08-.2-.13-.42-.13-.67,0-.27.05-.53.14-.76.1-.24.24-.45.43-.63.2-.19.44-.33.73-.43.3-.11.64-.16,1.04-.16.33,0,.62.04.87.11.25.06.46.14.64.24.18.09.33.19.43.29.12.1.2.17.26.23l-.84.93c-.07-.06-.15-.12-.25-.18-.09-.07-.19-.14-.31-.19-.12-.06-.24-.11-.39-.14-.14-.04-.28-.06-.43-.06-.1,0-.21.02-.31.05-.1.03-.19.08-.27.14-.08.05-.14.12-.19.19-.05.07-.07.15-.07.23,0,.22.12.4.35.53s.55.25.96.34c.24.06.47.14.7.24.23.1.44.23.62.39.18.16.33.36.43.6.11.23.16.52.16.85,0,.29-.06.56-.19.8-.13.24-.31.46-.53.64-.22.18-.48.32-.78.42-.3.1-.62.15-.97.15-.32,0-.62-.03-.88-.1-.26-.06-.5-.14-.72-.23-.21-.1-.41-.22-.58-.35-.17-.13-.31-.26-.43-.4l.94-1.01ZM49.85,90.42h1.47v3.82c0,.21.02.41.06.58.05.17.12.31.21.43.1.12.22.22.38.29.16.06.36.1.59.1s.42-.03.57-.1c.16-.07.29-.17.39-.29.1-.12.16-.27.2-.43.05-.17.07-.37.07-.58v-3.82h1.48v4c0,.39-.06.74-.19,1.06-.12.32-.3.6-.54.83-.23.23-.52.4-.85.53-.33.13-.71.19-1.12.19s-.79-.06-1.12-.18c-.33-.13-.62-.31-.86-.54-.23-.23-.41-.51-.54-.83-.12-.32-.18-.68-.18-1.06v-4ZM56.47,90.42h2.35c.4,0,.74.06,1.02.17.28.12.52.27.7.46.19.19.32.41.41.66.09.25.14.51.14.78,0,.35-.06.65-.18.92-.12.26-.28.47-.48.65-.2.17-.43.31-.7.4-.26.09-.54.14-.83.14h-1v2.27h-1.42v-6.45ZM58.74,93.41c.27,0,.48-.08.64-.24.16-.17.24-.38.24-.65s-.08-.49-.24-.66c-.16-.17-.38-.26-.65-.26h-.84v1.81h.85ZM62.06,90.42h4.41v1.28h-2.95v1.26h2.29v1.24h-2.29v1.39h3.16v1.29h-4.62v-6.45ZM67.66,90.42h2.4c.37,0,.7.05.99.16.28.1.52.25.71.43.19.18.33.39.43.64.1.24.14.51.14.78,0,.42-.09.79-.28,1.1-.18.31-.44.56-.77.74l1.43,2.58h-1.6l-1.2-2.37h-.81v2.37h-1.42v-6.45ZM69.98,93.33c.27,0,.48-.08.64-.24.15-.16.23-.36.23-.61,0-.26-.08-.47-.23-.63-.15-.15-.37-.23-.64-.23h-.9v1.71h.9ZM75.38,90.42h1.61l2.36,6.45h-1.59l-.49-1.48h-2.27l-.49,1.48h-1.53l2.41-6.45ZM76.91,94.25l-.78-2.44-.8,2.44h1.58ZM80.05,90.42h1.39l2.79,4.18v-4.18h1.44v6.45h-1.32l-2.86-4.26v4.26h-1.44v-6.45ZM86.93,90.42h1.39l2.79,4.18v-4.18h1.44v6.45h-1.32l-2.86-4.26v4.26h-1.44v-6.45ZM93.76,90.42h1.47v3.82c0,.21.02.41.06.58.05.17.12.31.21.43.1.12.22.22.38.29.16.06.36.1.59.1s.42-.03.57-.1c.16-.07.29-.17.39-.29.1-.12.16-.27.2-.43.05-.17.07-.37.07-.58v-3.82h1.48v4c0,.39-.06.74-.19,1.06-.12.32-.3.6-.54.83-.23.23-.52.4-.85.53-.33.13-.71.19-1.12.19s-.79-.06-1.12-.18c-.33-.13-.62-.31-.86-.54-.23-.23-.41-.51-.54-.83-.12-.32-.18-.68-.18-1.06v-4ZM101.93,90.42h1.61l2.36,6.45h-1.6l-.49-1.48h-2.27l-.49,1.48h-1.53l2.41-6.45ZM103.47,94.25l-.78-2.44-.8,2.44h1.58ZM107.22,91.7h-2.09v-1.29h5.63v1.29h-2.08v5.16h-1.47v-5.16ZM111.6,90.42h1.46v6.45h-1.46v-6.45ZM117.42,97.03c-.48,0-.92-.09-1.33-.26-.41-.17-.76-.41-1.06-.72-.3-.3-.53-.66-.71-1.07-.17-.42-.25-.87-.25-1.34s.08-.93.25-1.34c.17-.41.41-.77.71-1.07.3-.3.66-.54,1.06-.72.41-.17.86-.26,1.33-.26s.92.09,1.32.26c.41.17.77.41,1.06.72.3.3.54.66.71,1.07.17.41.26.86.26,1.34s-.09.92-.26,1.34c-.17.41-.4.77-.71,1.07-.3.3-.65.54-1.06.72-.41.17-.85.26-1.32.26ZM117.42,95.66c.28,0,.54-.05.76-.16.23-.11.42-.26.57-.44.16-.19.28-.4.37-.65.08-.24.12-.51.12-.78s-.04-.54-.12-.78c-.08-.24-.21-.46-.37-.64-.15-.19-.34-.33-.57-.43-.22-.11-.48-.16-.76-.16s-.54.05-.77.16c-.23.1-.42.25-.58.43-.15.18-.27.39-.36.64-.08.24-.12.51-.12.78s.04.54.12.78c.08.24.2.46.36.65.16.19.35.34.58.44.23.11.49.16.77.16ZM121.79,90.42h1.39l2.79,4.18v-4.18h1.44v6.45h-1.32l-2.86-4.26v4.26h-1.44v-6.45ZM130.41,90.42h2.35c.4,0,.74.06,1.02.17.28.12.52.27.7.46.19.19.32.41.41.66.09.25.13.51.13.78,0,.35-.06.65-.18.92-.12.26-.28.47-.48.65-.2.17-.43.31-.7.4-.26.09-.54.14-.83.14h-.99v2.27h-1.42v-6.45ZM132.68,93.41c.27,0,.48-.08.64-.24.16-.17.24-.38.24-.65s-.08-.49-.24-.66c-.16-.17-.38-.26-.65-.26h-.84v1.81h.85ZM137.02,90.42h1.61l2.36,6.45h-1.59l-.49-1.48h-2.27l-.49,1.48h-1.53l2.41-6.45ZM138.56,94.25l-.78-2.44-.8,2.44h1.58ZM141.7,90.42h2.4c.37,0,.7.05.99.16.28.1.52.25.71.43.19.18.33.39.43.64.1.24.14.51.14.78,0,.42-.09.79-.28,1.1-.18.31-.44.56-.77.74l1.43,2.58h-1.6l-1.2-2.37h-.81v2.37h-1.42v-6.45ZM144.02,93.33c.27,0,.48-.08.64-.24.15-.16.23-.36.23-.61,0-.26-.08-.47-.23-.63-.15-.15-.37-.23-.64-.23h-.9v1.71h.9ZM149.04,91.7h-2.09v-1.29h5.63v1.29h-2.08v5.16h-1.47v-5.16ZM153.42,90.42h1.39l2.79,4.18v-4.18h1.44v6.45h-1.32l-2.86-4.26v4.26h-1.44v-6.45ZM160.3,90.42h4.41v1.28h-2.95v1.26h2.29v1.24h-2.29v1.39h3.16v1.29h-4.62v-6.45ZM165.91,90.42h2.4c.37,0,.7.05.99.16.28.1.52.25.71.43.19.18.34.39.43.64.1.24.14.51.14.78,0,.42-.09.79-.28,1.1-.18.31-.44.56-.77.74l1.43,2.58h-1.6l-1.2-2.37h-.81v2.37h-1.42v-6.45ZM168.23,93.33c.27,0,.48-.08.64-.24.15-.16.23-.36.23-.61,0-.26-.08-.47-.23-.63-.16-.15-.37-.23-.64-.23h-.9v1.71h.9Z" fill="#fff"/>
</svg>