<?xml version="1.0" encoding="utf-8"?>
<!-- Generator: Adobe Illustrator 27.7.0, SVG Export Plug-In . SVG Version: 6.00 Build 0)  -->
<svg version="1.1" id="Layer_1" xmlns="http://www.w3.org/2000/svg" xmlns:xlink="http://www.w3.org/1999/xlink" x="0px" y="0px"
	 viewBox="0 0 196.2 19.7" style="enable-background:new 0 0 196.2 19.7;" xml:space="preserve">
<style type="text/css">
	.st0{fill:#FFD000;}
</style>
<path class="st0" d="M0,19.2L0.9,0.5h4.7l4.5,8.1l4.5-8.1h4.8l0.8,18.7h-5L14.7,8.3l-3.3,6.4H8.8L5.2,8.3L4.7,19.2H0z M21.3,19.2
	l6.9-18.7h5.7l6.6,18.7h-5.3L34,15.3h-6.3l-1.2,3.9H21.3z M28.7,11.7h4.2l-2.1-6.9L28.7,11.7z M42,19.2V0.5h5v7l5.6-7h5.8l-6.2,7.2
	l7.1,11.5h-6l-4.6-7.6l-1.8,2.1v5.5H42z M61,19.2V0.5h13.4v4.3h-8.5v2.9h7v4h-7v3.2H75v4.3H61z M75.8,16.9l3-3.6
	c0.5,0.5,1.2,1,2,1.4c0.9,0.4,1.8,0.6,2.8,0.6c0.5,0,1-0.1,1.5-0.3s0.7-0.6,0.7-1.2c0-0.5-0.3-0.9-0.8-1.2s-1.2-0.7-2.2-1l-1-0.3
	c-0.8-0.3-1.5-0.6-2.3-1c-0.7-0.4-1.4-1-1.9-1.7s-0.7-1.5-0.7-2.5c0-1.2,0.3-2.2,0.8-3.1c0.6-0.9,1.4-1.6,2.5-2.2
	C81.3,0.3,82.6,0,84.1,0c1.2,0,2.3,0.1,3.2,0.4c0.9,0.3,1.7,0.6,2.3,1c0.6,0.4,1,0.7,1.3,1l-2.5,3.2c-0.7-0.5-1.3-0.9-2-1.2
	c-0.7-0.3-1.4-0.5-2.2-0.5c-0.5,0-1,0.1-1.4,0.3c-0.4,0.2-0.6,0.6-0.6,1.1c0,0.6,0.3,1,0.8,1.3c0.5,0.3,1.2,0.5,2,0.8l0.9,0.3
	c0.6,0.2,1.3,0.4,1.9,0.7c0.7,0.3,1.3,0.6,1.8,1.1c0.5,0.4,1,1,1.3,1.7s0.5,1.5,0.5,2.5c0,1.1-0.3,2.2-1,3.1
	c-0.7,0.9-1.6,1.6-2.7,2.1s-2.4,0.8-3.8,0.8c-1.9,0-3.4-0.3-4.7-0.8C77.7,18.4,76.7,17.7,75.8,16.9z M98.3,19.2V0.5h5v18.7H98.3z
	 M111,19.2V4.9h-5.7V0.6h16.4v4.3H116v14.3H111z M128.4,19.2V0.5h13.4v4.3h-8.5v2.9h7v4h-7v3.2h9.1v4.3H128.4z M143.2,19.2l6.9-18.7
	h5.7l6.6,18.7h-5.3l-1.2-3.9h-6.2l-1.2,3.9H143.2z M150.5,11.7h4.2l-2.1-6.9L150.5,11.7z M162.3,16.9l3-3.6c0.5,0.5,1.2,1,2,1.4
	c0.9,0.4,1.8,0.6,2.8,0.6c0.5,0,1-0.1,1.5-0.3s0.7-0.6,0.7-1.2c0-0.5-0.3-0.9-0.8-1.2s-1.2-0.7-2.2-1l-1-0.3c-0.8-0.3-1.5-0.6-2.3-1
	c-0.7-0.4-1.4-1-1.9-1.7s-0.7-1.5-0.7-2.5c0-1.2,0.3-2.2,0.8-3.1c0.6-0.9,1.4-1.6,2.5-2.2c1.1-0.5,2.4-0.8,3.9-0.8
	c1.2,0,2.3,0.1,3.2,0.4s1.7,0.6,2.3,1s1,0.7,1.3,1l-2.5,3.2c-0.7-0.5-1.3-0.9-2-1.2c-0.7-0.3-1.4-0.5-2.2-0.5c-0.5,0-1,0.1-1.4,0.3
	c-0.4,0.2-0.6,0.6-0.6,1.1c0,0.6,0.3,1,0.8,1.3c0.5,0.3,1.2,0.5,2,0.8l0.9,0.3c0.6,0.2,1.3,0.4,1.9,0.7c0.7,0.3,1.2,0.6,1.8,1.1
	c0.5,0.4,1,1,1.3,1.7s0.5,1.5,0.5,2.5c0,1.1-0.3,2.2-1,3.1c-0.7,0.9-1.6,1.6-2.7,2.1c-1.1,0.5-2.4,0.8-3.8,0.8
	c-1.9,0-3.4-0.3-4.7-0.8C164.3,18.4,163.2,17.7,162.3,16.9z M184.6,19.2v-7.4L178,0.6h5.7l3.6,6.7l3.4-6.7h5.5l-6.7,11.2v7.4H184.6z
	"/>
</svg>
