<?xml version="1.0" encoding="utf-8"?>
<!-- Generator: Adobe Illustrator 27.7.0, SVG Export Plug-In . SVG Version: 6.00 Build 0)  -->
<svg version="1.1" id="Layer_1" xmlns="http://www.w3.org/2000/svg" xmlns:xlink="http://www.w3.org/1999/xlink" x="0px" y="0px"
	 viewBox="0 0 96.8 39.6" style="enable-background:new 0 0 96.8 39.6;" xml:space="preserve">
<style type="text/css">
	.st0{fill:#FFFFFF;}
	.st1{fill:#FFD000;}
	.st2{fill:none;stroke:#FFFFFF;stroke-width:0.3167;}
	.st3{clip-path:url(#SVGID_00000057129742067639201990000014479281888762433173_);}
	.st4{fill:#0098BB;}
	.st5{fill:#F5EB00;}
</style>
<path class="st0" d="M46.5,3v6.4h-9.3V0.1h6.4C45.2,0.1,46.5,1.4,46.5,3z"/>
<path class="st0" d="M46.5,18.7h-9.3V28h9.3V18.7z"/>
<path class="st1" d="M27.9,0.1h-9.3v9.3h9.3V0.1z"/>
<path class="st0" d="M9.3,7.5V0.1H0v25C0,26.7,1.3,28,2.9,28h6.4v-7.5c0-1,0.8-1.8,1.8-1.8h7.5V9.4h-7.5C10.1,9.4,9.3,8.6,9.3,7.5z"
	/>
<path class="st0" d="M27.9,18.7h-9.3V28h9.3V18.7z"/>
<path class="st0" d="M10.1,38.2c-0.6,0-1.2-0.2-1.6-0.6c-0.4-0.4-0.6-1-0.6-1.6c0-0.7,0.2-1.2,0.6-1.6c0.4-0.4,1-0.6,1.6-0.6
	c0.6,0,1.1,0.2,1.6,0.6c0.4,0.4,0.6,1,0.6,1.6c0,0.6-0.2,1.2-0.6,1.6S10.8,38.2,10.1,38.2z M12.7,33.5c-0.7-0.6-1.5-1-2.5-1
	c-1,0-1.9,0.3-2.5,1c-0.7,0.6-1,1.5-1,2.4s0.3,1.8,1,2.4c0.7,0.6,1.5,1,2.5,1c1,0,1.9-0.3,2.6-1c0.7-0.6,1-1.5,1-2.4
	C13.7,35,13.3,34.2,12.7,33.5z M40.3,32.7v3.7c0,1.1-0.4,1.8-1.6,1.8c-1.2,0-1.6-0.7-1.6-1.8v-3.7h-1.3v4c0,2,1.3,2.7,2.9,2.7
	c1.6,0,2.9-0.8,2.9-2.7v-4H40.3z M32.6,32.7v5.5h2.8v1.1h-4.1v-6.6H32.6z M28,35.6c0.6,0,1.2-0.3,1.2-0.9c0-0.6-0.4-0.9-1.2-0.9
	h-0.8v1.8H28z M28.3,32.7c1.4,0,2.1,0.9,2.1,2.1c0,1.2-0.9,2.1-2.1,2.1h-1.1v2.5h-1.3v-6.6H28.3z M25,32.7v1.1h-2.2v5.5h-1.3v-5.5
	h-2.2v-1.1H25z M44.7,32.6c0.6,0,1.3,0.2,1.9,0.5v1.3c-0.7-0.4-1.1-0.7-1.8-0.7s-0.9,0.2-1,0.6c0,0.3,0.1,0.5,0.5,0.7
	c0.1,0.1,0.4,0.2,1.1,0.6c0.5,0.3,0.9,0.5,1.2,0.9c0.2,0.3,0.4,0.7,0.4,1.1c0,0.6-0.2,1-0.6,1.4c-0.4,0.4-0.9,0.5-1.6,0.5
	c-0.4,0-0.8,0-1.1-0.1c-0.3-0.1-0.6-0.3-1-0.5v-1.5c0.7,0.6,1.4,1,2,1c0.6,0,1-0.2,1-0.6c0-0.3-0.1-0.5-0.5-0.7
	c-0.3-0.2-0.6-0.3-1-0.6c-0.5-0.3-0.9-0.5-1.2-0.8c-0.3-0.3-0.4-0.7-0.4-1.1c0-0.6,0.2-1,0.6-1.3C43.4,32.7,44,32.6,44.7,32.6
	 M16.7,32.6c0.6,0,1.3,0.2,1.9,0.5v1.3c-0.7-0.4-1.1-0.7-1.8-0.7s-0.9,0.2-1,0.6c0,0.3,0.1,0.5,0.5,0.7c0.1,0.1,0.4,0.2,1.1,0.6
	c0.5,0.3,0.9,0.5,1.2,0.9c0.2,0.3,0.4,0.7,0.4,1.1c0,0.6-0.2,1-0.6,1.4c-0.4,0.4-0.9,0.5-1.6,0.5c-0.4,0-0.8,0-1.1-0.1
	c-0.3-0.1-0.6-0.3-1-0.5v-1.5c0.7,0.6,1.4,1,2,1c0.6,0,1-0.2,1-0.6c0-0.3-0.1-0.5-0.5-0.7c-0.3-0.2-0.6-0.3-1-0.6
	c-0.5-0.3-0.9-0.5-1.2-0.8c-0.3-0.3-0.4-0.7-0.4-1.1c0-0.6,0.2-1,0.6-1.3C15.4,32.7,16,32.6,16.7,32.6 M1.3,32.7v2.6h3.1v-2.6h1.3
	v6.6H4.4v-2.6H1.3v2.6H0v-6.6H1.3z"/>
<line class="st2" x1="57.4" y1="0" x2="57.4" y2="39.6"/>
<g>
	<defs>
		<rect id="SVGID_1_" x="67.4" y="0" width="29.4" height="39.6"/>
	</defs>
	<clipPath id="SVGID_00000080913220075399706090000009408551307147505071_">
		<use xlink:href="#SVGID_1_"  style="overflow:visible;"/>
	</clipPath>
	<g style="clip-path:url(#SVGID_00000080913220075399706090000009408551307147505071_);">
		<path class="st4" d="M96.8,0H67.4v39.6h29.4V0z"/>
		<path class="st0" d="M82.1,9.1l3.5,3.5l5,0L82.1,4L71,15.1l2.5,2.5L82.1,9.1z"/>
		<path class="st5" d="M90.6,12.5l-8.5,8.5l-3.5-3.5l-5,0l8.5,8.5l11.1-11.1L90.6,12.5z"/>
		<path class="st0" d="M72.2,33.7c-0.9-0.2-1-0.3-1-0.5c0-0.3,0.3-0.4,0.5-0.4c0.4,0,0.7,0.1,0.7,0.5h0.7c0-0.8-0.7-1.1-1.4-1.1
			c-0.6,0-1.3,0.3-1.3,1c0,0.6,0.5,0.8,1,1c0.5,0.1,1,0.2,1,0.6c0,0.4-0.4,0.4-0.7,0.4c-0.4,0-0.8-0.2-0.8-0.6h-0.7
			c0,0.8,0.7,1.2,1.5,1.2c0.9,0,1.4-0.5,1.4-1.1C73.2,34,72.5,33.8,72.2,33.7z"/>
		<path class="st0" d="M75,34.6c0,0.5-0.2,0.7-0.5,0.7c-0.3,0-0.4-0.2-0.4-0.6v-1.4h-0.7v1.5c0,0.6,0.2,1,0.9,1
			c0.3,0,0.6-0.1,0.8-0.4h0v0.3h0.6v-2.5H75L75,34.6L75,34.6z"/>
		<path class="st0" d="M77.4,33.2c-0.3,0-0.6,0.1-0.7,0.4h0v-0.3H76v3.3h0.7v-1.2h0c0.2,0.2,0.4,0.4,0.7,0.4c0.7,0,1.1-0.6,1.1-1.3
			C78.5,33.8,78.2,33.2,77.4,33.2z M77.2,35.3c-0.4,0-0.6-0.4-0.6-0.8c0-0.4,0.1-0.8,0.6-0.8c0.4,0,0.6,0.4,0.6,0.8
			S77.7,35.3,77.2,35.3z"/>
		<path class="st0" d="M79.9,33.2c-0.7,0-1.3,0.6-1.3,1.3c0,0.7,0.5,1.3,1.3,1.3c0.6,0,1-0.2,1.2-0.8h-0.6c0,0.2-0.3,0.3-0.5,0.3
			c-0.4,0-0.6-0.2-0.6-0.6h1.8C81.1,33.9,80.7,33.2,79.9,33.2L79.9,33.2z M79.3,34.3c0-0.2,0.1-0.5,0.6-0.5c0.3,0,0.5,0.2,0.5,0.5
			H79.3z"/>
		<path class="st0" d="M81.9,33.7L81.9,33.7l0-0.5h-0.6v2.5h0.7v-1.1c0-0.4,0.2-0.8,0.7-0.8c0.1,0,0.2,0,0.3,0v-0.6c0,0-0.2,0-0.2,0
			C82.4,33.2,82,33.4,81.9,33.7z"/>
		<path class="st0" d="M83.8,32.9h1.5v-0.6H83v3.5h0.8v-1.4h1.5v-0.6h-1.5V32.9z"/>
		<path class="st0" d="M87.3,34.6c0,0.5-0.2,0.7-0.5,0.7c-0.3,0-0.4-0.2-0.4-0.6v-1.4h-0.7v1.5c0,0.6,0.2,1,0.9,1
			c0.3,0,0.6-0.1,0.8-0.4h0v0.3H88v-2.5h-0.7L87.3,34.6L87.3,34.6z"/>
		<path class="st0" d="M89.7,33.2c-0.3,0-0.6,0.1-0.8,0.4h0v-0.3h-0.7v2.5h0.7v-1.3c0-0.5,0.2-0.7,0.5-0.7c0.3,0,0.4,0.2,0.4,0.6
			v1.4h0.7v-1.5C90.6,33.6,90.4,33.2,89.7,33.2L89.7,33.2z"/>
		<path class="st0" d="M92.6,33.6L92.6,33.6c-0.2-0.2-0.5-0.4-0.8-0.4c-0.7,0-1.1,0.6-1.1,1.3s0.4,1.3,1.1,1.3
			c0.3,0,0.6-0.1,0.8-0.4h0v0.3h0.7v-3.5h-0.7L92.6,33.6L92.6,33.6z M92.1,35.3c-0.4,0-0.6-0.4-0.6-0.8c0-0.4,0.2-0.8,0.6-0.8
			c0.5,0,0.6,0.4,0.6,0.8C92.7,34.9,92.5,35.3,92.1,35.3L92.1,35.3z"/>
		<path class="st0" d="M77.9,27.7h-0.7v3.4h0.7V27.7z"/>
		<path class="st0" d="M78.8,29.9c0-0.5,0.2-0.7,0.5-0.7c0.3,0,0.4,0.2,0.4,0.6v1.4h0.7v-1.5c0-0.6-0.2-1-0.9-1
			c-0.3,0-0.6,0.1-0.8,0.4h0v-0.3h-0.6v2.5h0.7L78.8,29.9L78.8,29.9z"/>
		<path class="st0" d="M82.5,30.8L82.5,30.8l0,0.3h0.6v-3.4h-0.7V29h0c-0.2-0.2-0.4-0.4-0.7-0.4c-0.7,0-1.1,0.6-1.1,1.3
			s0.4,1.3,1.1,1.3C82.1,31.2,82.4,31.1,82.5,30.8L82.5,30.8z M81.3,29.9c0-0.4,0.2-0.8,0.6-0.8s0.6,0.4,0.6,0.8
			c0,0.4-0.1,0.8-0.6,0.8C81.5,30.7,81.3,30.3,81.3,29.9z"/>
		<path class="st0" d="M84.3,31.2c0.3,0,0.6-0.1,0.8-0.4h0v0.3h0.6v-2.5H85V30c0,0.5-0.2,0.7-0.5,0.7c-0.3,0-0.4-0.2-0.4-0.6v-1.4
			h-0.7v1.5C83.4,30.8,83.6,31.2,84.3,31.2L84.3,31.2z"/>
		<path class="st0" d="M87.3,29.7c-0.4-0.1-0.8-0.1-0.8-0.4c0-0.2,0.2-0.2,0.4-0.2c0.2,0,0.4,0.1,0.5,0.3H88
			c-0.1-0.6-0.5-0.8-1.1-0.8c-0.5,0-1.1,0.2-1.1,0.8c0,0.4,0.4,0.6,0.8,0.7c0.5,0.1,0.8,0.2,0.8,0.4c0,0.2-0.2,0.3-0.4,0.3
			c-0.3,0-0.5-0.1-0.5-0.4h-0.6c0,0.7,0.6,0.9,1.2,0.9c0.6,0,1.1-0.2,1.1-0.9C88.1,29.9,87.7,29.8,87.3,29.7L87.3,29.7z"/>
		<path class="st0" d="M88.5,30.6c0,0.5,0.4,0.6,0.8,0.6c0.1,0,0.3,0,0.4,0v-0.5c-0.1,0-0.1,0-0.2,0c-0.2,0-0.3-0.1-0.3-0.3v-1.2
			h0.5v-0.5h-0.5v-0.7h-0.7v0.7h-0.4v0.5h0.4V30.6z"/>
		<path class="st0" d="M91.4,29.3L92,31c0.1,0.2-0.1,0.5-0.4,0.5c0,0,0,0,0,0v0.6h0.1c0.4,0,0.8-0.2,1-0.6l1-2.8H93l-0.5,1.7h0
			l-0.6-1.7c0,0-0.7,0-0.7,0c-0.2,0-0.5,0.2-0.6,0.5h0v-0.5h-0.6v2.5h0.7V30c0-0.4,0.2-0.8,0.7-0.8C91.2,29.2,91.3,29.3,91.4,29.3
			L91.4,29.3z"/>
		<path class="st0" d="M71.5,30.4h1.3l0.3,0.8h0.8l-1.3-3.4h-0.8l-1.3,3.4h0.8L71.5,30.4L71.5,30.4z M72.1,28.6L72.1,28.6l0.4,1.3
			h-0.9L72.1,28.6L72.1,28.6z"/>
		<path class="st0" d="M74.5,29.9c0-0.5,0.2-0.7,0.5-0.7c0.3,0,0.4,0.2,0.4,0.6v1.4h0.7v-1.5c0-0.6-0.2-1-0.9-1
			c-0.3,0-0.6,0.1-0.8,0.4h0v-0.3h-0.6v2.5h0.7L74.5,29.9L74.5,29.9z"/>
		<path class="st4" d="M96.8,0H67.4v39.6h29.4V0z"/>
		<path class="st0" d="M82.1,9.1l3.5,3.5l5,0L82.1,4L71,15.1l2.5,2.5L82.1,9.1z"/>
		<path class="st5" d="M90.6,12.5l-8.5,8.5l-3.5-3.5l-5,0l8.5,8.5l11.1-11.1L90.6,12.5z"/>
		<path class="st0" d="M72.2,33.7c-0.9-0.2-1-0.3-1-0.5c0-0.3,0.3-0.4,0.5-0.4c0.4,0,0.7,0.1,0.7,0.5h0.7c0-0.8-0.7-1.1-1.4-1.1
			c-0.6,0-1.3,0.3-1.3,1c0,0.6,0.5,0.8,1,1c0.5,0.1,1,0.2,1,0.6c0,0.4-0.4,0.4-0.7,0.4c-0.4,0-0.8-0.2-0.8-0.6h-0.7
			c0,0.8,0.7,1.2,1.5,1.2c0.9,0,1.4-0.5,1.4-1.1C73.2,34,72.5,33.8,72.2,33.7z"/>
		<path class="st0" d="M75,34.6c0,0.5-0.2,0.7-0.5,0.7c-0.3,0-0.4-0.2-0.4-0.6v-1.4h-0.7v1.5c0,0.6,0.2,1,0.9,1
			c0.3,0,0.6-0.1,0.8-0.4h0v0.3h0.6v-2.5H75L75,34.6L75,34.6z"/>
		<path class="st0" d="M77.4,33.2c-0.3,0-0.6,0.1-0.7,0.4h0v-0.3H76v3.3h0.7v-1.2h0c0.2,0.2,0.4,0.4,0.7,0.4c0.7,0,1.1-0.6,1.1-1.3
			C78.5,33.8,78.2,33.2,77.4,33.2z M77.2,35.3c-0.4,0-0.6-0.4-0.6-0.8c0-0.4,0.1-0.8,0.6-0.8c0.4,0,0.6,0.4,0.6,0.8
			S77.7,35.3,77.2,35.3z"/>
		<path class="st0" d="M79.9,33.2c-0.7,0-1.3,0.6-1.3,1.3c0,0.7,0.5,1.3,1.3,1.3c0.6,0,1-0.2,1.2-0.8h-0.6c0,0.2-0.3,0.3-0.5,0.3
			c-0.4,0-0.6-0.2-0.6-0.6h1.8C81.1,33.9,80.7,33.2,79.9,33.2L79.9,33.2z M79.3,34.3c0-0.2,0.1-0.5,0.6-0.5c0.3,0,0.5,0.2,0.5,0.5
			H79.3z"/>
		<path class="st0" d="M81.9,33.7L81.9,33.7l0-0.5h-0.6v2.5h0.7v-1.1c0-0.4,0.2-0.8,0.7-0.8c0.1,0,0.2,0,0.3,0v-0.6c0,0-0.2,0-0.2,0
			C82.4,33.2,82,33.4,81.9,33.7z"/>
		<path class="st0" d="M83.8,32.9h1.5v-0.6H83v3.5h0.8v-1.4h1.5v-0.6h-1.5V32.9z"/>
		<path class="st0" d="M87.3,34.6c0,0.5-0.2,0.7-0.5,0.7c-0.3,0-0.4-0.2-0.4-0.6v-1.4h-0.7v1.5c0,0.6,0.2,1,0.9,1
			c0.3,0,0.6-0.1,0.8-0.4h0v0.3H88v-2.5h-0.7L87.3,34.6L87.3,34.6z"/>
		<path class="st0" d="M89.7,33.2c-0.3,0-0.6,0.1-0.8,0.4h0v-0.3h-0.7v2.5h0.7v-1.3c0-0.5,0.2-0.7,0.5-0.7c0.3,0,0.4,0.2,0.4,0.6
			v1.4h0.7v-1.5C90.6,33.6,90.4,33.2,89.7,33.2L89.7,33.2z"/>
		<path class="st0" d="M92.6,33.6L92.6,33.6c-0.2-0.2-0.5-0.4-0.8-0.4c-0.7,0-1.1,0.6-1.1,1.3s0.4,1.3,1.1,1.3
			c0.3,0,0.6-0.1,0.8-0.4h0v0.3h0.7v-3.5h-0.7L92.6,33.6L92.6,33.6z M92.1,35.3c-0.4,0-0.6-0.4-0.6-0.8c0-0.4,0.2-0.8,0.6-0.8
			c0.5,0,0.6,0.4,0.6,0.8C92.7,34.9,92.5,35.3,92.1,35.3L92.1,35.3z"/>
		<path class="st0" d="M77.9,27.7h-0.7v3.4h0.7V27.7z"/>
		<path class="st0" d="M78.8,29.9c0-0.5,0.2-0.7,0.5-0.7c0.3,0,0.4,0.2,0.4,0.6v1.4h0.7v-1.5c0-0.6-0.2-1-0.9-1
			c-0.3,0-0.6,0.1-0.8,0.4h0v-0.3h-0.6v2.5h0.7L78.8,29.9L78.8,29.9z"/>
		<path class="st0" d="M82.5,30.8L82.5,30.8l0,0.3h0.6v-3.4h-0.7V29h0c-0.2-0.2-0.4-0.4-0.7-0.4c-0.7,0-1.1,0.6-1.1,1.3
			s0.4,1.3,1.1,1.3C82.1,31.2,82.4,31.1,82.5,30.8L82.5,30.8z M81.3,29.9c0-0.4,0.2-0.8,0.6-0.8s0.6,0.4,0.6,0.8
			c0,0.4-0.1,0.8-0.6,0.8C81.5,30.7,81.3,30.3,81.3,29.9z"/>
		<path class="st0" d="M84.3,31.2c0.3,0,0.6-0.1,0.8-0.4h0v0.3h0.6v-2.5H85V30c0,0.5-0.2,0.7-0.5,0.7c-0.3,0-0.4-0.2-0.4-0.6v-1.4
			h-0.7v1.5C83.4,30.8,83.6,31.2,84.3,31.2L84.3,31.2z"/>
		<path class="st0" d="M87.3,29.7c-0.4-0.1-0.8-0.1-0.8-0.4c0-0.2,0.2-0.2,0.4-0.2c0.2,0,0.4,0.1,0.5,0.3H88
			c-0.1-0.6-0.5-0.8-1.1-0.8c-0.5,0-1.1,0.2-1.1,0.8c0,0.4,0.4,0.6,0.8,0.7c0.5,0.1,0.8,0.2,0.8,0.4c0,0.2-0.2,0.3-0.4,0.3
			c-0.3,0-0.5-0.1-0.5-0.4h-0.6c0,0.7,0.6,0.9,1.2,0.9c0.6,0,1.1-0.2,1.1-0.9C88.1,29.9,87.7,29.8,87.3,29.7L87.3,29.7z"/>
		<path class="st0" d="M88.5,30.6c0,0.5,0.4,0.6,0.8,0.6c0.1,0,0.3,0,0.4,0v-0.5c-0.1,0-0.1,0-0.2,0c-0.2,0-0.3-0.1-0.3-0.3v-1.2
			h0.5v-0.5h-0.5v-0.7h-0.7v0.7h-0.4v0.5h0.4V30.6z"/>
		<path class="st0" d="M91.4,29.3L92,31c0.1,0.2-0.1,0.5-0.4,0.5c0,0,0,0,0,0v0.6h0.1c0.4,0,0.8-0.2,1-0.6l1-2.8H93l-0.5,1.7h0
			l-0.6-1.7c0,0-0.7,0-0.7,0c-0.2,0-0.5,0.2-0.6,0.5h0v-0.5h-0.6v2.5h0.7V30c0-0.4,0.2-0.8,0.7-0.8C91.2,29.2,91.3,29.3,91.4,29.3
			L91.4,29.3z"/>
		<path class="st0" d="M71.5,30.4h1.3l0.3,0.8h0.8l-1.3-3.4h-0.8l-1.3,3.4h0.8L71.5,30.4L71.5,30.4z M72.1,28.6L72.1,28.6l0.4,1.3
			h-0.9L72.1,28.6L72.1,28.6z"/>
		<path class="st0" d="M74.5,29.9c0-0.5,0.2-0.7,0.5-0.7c0.3,0,0.4,0.2,0.4,0.6v1.4h0.7v-1.5c0-0.6-0.2-1-0.9-1
			c-0.3,0-0.6,0.1-0.8,0.4h0v-0.3h-0.6v2.5h0.7L74.5,29.9L74.5,29.9z"/>
	</g>
</g>
</svg>
