<svg id="Layer_1" data-name="Layer 1" xmlns="http://www.w3.org/2000/svg" width="300" height="250" version="1.1" viewBox="0 0 300 250">
  <path d="M14.5,214v-5.3h.8v2.2h2.9v-2.2h.8v5.3h-.8v-2.4h-2.9v2.4h-.8ZM21.9,214.1c-.4,0-.7,0-1-.3-.3-.2-.5-.4-.7-.7-.2-.3-.2-.6-.2-1s0-.7.2-1c.2-.3.4-.5.7-.7.3-.2.6-.3,1-.3s.7,0,1,.3c.3.2.5.4.7.7.2.3.3.6.3,1s0,.7-.3,1c-.2.3-.4.5-.7.7-.3.2-.6.3-1,.3ZM21.9,213.5c.3,0,.5,0,.7-.2.2-.1.3-.3.4-.5.1-.2.2-.4.2-.6s0-.4-.2-.6c0-.2-.2-.4-.4-.5-.2-.1-.4-.2-.7-.2s-.5,0-.7.2c-.2.1-.3.3-.4.5,0,.2-.1.4-.1.6s0,.4.2.6c.1.2.2.4.4.5.2.1.4.2.7.2ZM24.5,213.5l.4-.5c.1.1.3.2.5.3.2,0,.4.1.6.1s.4,0,.6-.1c.2,0,.2-.2.2-.4s0-.2,0-.3c0,0-.2-.1-.3-.2-.2,0-.4-.1-.6-.2-.2,0-.4-.1-.6-.2-.2,0-.3-.2-.4-.3-.1-.1-.2-.3-.2-.6s0-.4.2-.6c.1-.2.3-.3.6-.4.2,0,.5-.1.7-.1s.6,0,.8.1c.2,0,.4.2.6.3l-.4.5c-.1-.1-.3-.2-.4-.3-.2,0-.4-.1-.6-.1s-.4,0-.6.1c-.1,0-.2.2-.2.4s0,.3.3.4c.2,0,.4.1.7.2.2,0,.4.1.6.2.2,0,.3.2.5.4.1.1.2.3.2.6s0,.5-.2.6c-.1.2-.3.3-.6.4-.2,0-.5.1-.8.1-.7,0-1.2-.2-1.6-.6ZM28.8,212.8v-1.9h-.7v-.6h.7v-1.2h.7v1.2h1.1v.6h-1.1v1.8c0,.3,0,.5.1.6,0,.1.2.2.4.2s.3,0,.3,0c0,0,.2-.1.3-.2l.3.4c-.2.1-.3.3-.5.3-.2,0-.4.1-.6.1-.4,0-.7-.1-.9-.3-.2-.2-.3-.6-.3-1ZM32.2,215.6h-.7v-4.9h0c0-.2,0-.3,0-.4h.7v.5c0,0,.2-.1.3-.2.1,0,.2-.2.4-.3.2,0,.4-.1.6-.1.4,0,.7,0,.9.3.3.2.4.4.6.7.1.3.2.6.2,1s0,.6-.2.9c-.1.2-.3.4-.4.6-.2.2-.4.3-.6.4-.2,0-.4.1-.7.1s-.5,0-.6,0c-.1,0-.3-.1-.4-.2v1.7ZM32.2,212.2v1c0,0,.2.1.4.2s.4,0,.6,0,.5,0,.6-.2c.2-.1.3-.3.4-.5.1-.2.2-.4.2-.7s0-.5-.1-.7c0-.2-.2-.4-.3-.5s-.4-.2-.6-.2-.5,0-.7.2c-.2.1-.3.3-.4.6,0,0,0,.2,0,.3,0,0,0,.2,0,.3ZM36,214v-5.3h.7v5.3h-.7ZM37.7,212.5v-2.2h.7v2.2c0,.3,0,.6.2.8s.4.2.6.2.5,0,.6-.2c.2-.1.3-.3.3-.5,0-.2.1-.5.1-.7v-1.7h.7v3.5c0,0,0,.1,0,.2h-.7v-.6c0,0-.2.2-.3.3-.1,0-.2.2-.4.2-.2,0-.4.1-.6.1-.5,0-.8-.1-1.1-.4-.2-.3-.3-.7-.3-1.1ZM41.8,213.5l.4-.5c.1.1.3.2.5.3.2,0,.4.1.6.1s.4,0,.6-.1c.2,0,.2-.2.2-.4s0-.2,0-.3-.2-.1-.3-.2c-.2,0-.4-.1-.6-.2-.2,0-.4-.1-.6-.2-.2,0-.3-.2-.4-.3-.1-.1-.2-.3-.2-.6s0-.4.2-.6c.1-.2.3-.3.6-.4.2,0,.5-.1.7-.1s.6,0,.8.1c.2,0,.4.2.6.3l-.4.5c-.1-.1-.3-.2-.4-.3-.2,0-.4-.1-.6-.1s-.4,0-.6.1c-.1,0-.2.2-.2.4s0,.3.3.4c.2,0,.4.1.7.2.2,0,.4.1.6.2.2,0,.3.2.5.4.1.1.2.3.2.6s0,.5-.2.6c-.1.2-.3.3-.6.4-.2,0-.5.1-.8.1-.7,0-1.2-.2-1.6-.6ZM47.3,214v-5.3h1.8c.4,0,.7,0,.9.2.2.1.4.3.5.5.1.2.2.4.2.7s0,.4-.1.6c0,.2-.2.3-.4.4-.1,0-.3.2-.4.2.1,0,.2,0,.4.1.1,0,.3.1.4.2.1,0,.2.2.3.4,0,.2.1.4.1.6,0,.4,0,.7-.3.9-.2.2-.4.4-.7.5-.3,0-.6.1-1,.1h-1.7ZM48.1,210.9h1c.2,0,.3,0,.5,0,.2,0,.3-.1.4-.3.1-.1.2-.3.2-.5s0-.4-.2-.5c0-.1-.2-.2-.4-.2-.1,0-.3,0-.5,0h-1v1.6ZM48.1,213.3h.9c.1,0,.3,0,.4,0,.1,0,.3,0,.4-.1.1,0,.2-.1.3-.3,0-.1.1-.3.1-.5s0-.4-.2-.6c-.1-.1-.3-.2-.5-.3-.2,0-.4,0-.6,0h-1v1.8ZM54.3,214v-.4c-.1.2-.3.3-.6.4-.2,0-.5.1-.7.1s-.4,0-.6-.1c-.2,0-.4-.2-.5-.4-.1-.2-.2-.4-.2-.7s.1-.7.4-1c.3-.2.7-.4,1.2-.4s.2,0,.4,0c.1,0,.2,0,.3,0,.1,0,.2,0,.2,0h0c0-.4,0-.6-.3-.7-.2-.1-.4-.2-.7-.2s-.5,0-.7.1c-.2,0-.3.2-.4.2l-.3-.5c.1-.1.3-.2.6-.3.2-.1.6-.2,1-.2s.9.1,1.1.4c.3.2.4.6.4,1v2.2h0c0,.2,0,.3,0,.3h-.7ZM54.3,212.7v-.4s0,0-.2,0c0,0-.2,0-.3,0-.1,0-.2,0-.3,0-.3,0-.5,0-.6.1-.1,0-.2.2-.3.3,0,.1,0,.2,0,.3,0,.2,0,.3.2.5.1.1.3.2.6.2s.4,0,.5-.1c.2,0,.3-.2.4-.3.1-.1.2-.3.2-.4ZM55.9,214v-5.3h.7v5.3h-.7ZM60,214v-.4c-.1.2-.3.3-.6.4-.2,0-.5.1-.7.1s-.4,0-.6-.1c-.2,0-.4-.2-.5-.4-.1-.2-.2-.4-.2-.7s.1-.7.4-1c.3-.2.7-.4,1.2-.4s.2,0,.4,0c.1,0,.2,0,.3,0,.1,0,.2,0,.2,0h0c0-.4,0-.6-.3-.7-.2-.1-.4-.2-.7-.2s-.5,0-.7.1c-.2,0-.3.2-.4.2l-.3-.5c.1-.1.3-.2.6-.3.2-.1.6-.2,1-.2s.9.1,1.1.4c.3.2.4.6.4,1v2.2h0c0,.2,0,.3,0,.3h-.7ZM60,212.7v-.4s0,0-.2,0c0,0-.2,0-.3,0-.1,0-.2,0-.3,0-.3,0-.5,0-.6.1-.1,0-.2.2-.3.3,0,.1,0,.2,0,.3,0,.2,0,.3.2.5.1.1.3.2.6.2s.4,0,.5-.1c.2,0,.3-.2.4-.3.1-.1.2-.3.2-.4ZM62.3,214h-.7v-3.3h0c0-.2,0-.3,0-.4h.7v.6c0,0,.2-.2.3-.3.1-.1.2-.2.4-.3.2,0,.4-.1.6-.1.5,0,.8.1,1.1.4.2.3.4.7.4,1.1v2.2h-.7v-2.2c0-.3,0-.6-.2-.8-.1-.2-.4-.2-.6-.2s-.5,0-.6.2c-.2.1-.3.3-.3.5,0,.2,0,.5,0,.7v1.7ZM68.8,213l.4.5c-.2.2-.4.3-.6.5-.2.1-.5.2-.8.2s-.7,0-1-.3c-.3-.2-.5-.4-.7-.7-.2-.3-.2-.6-.2-1s0-.7.2-1c.2-.3.4-.5.7-.7.3-.2.6-.3,1-.3s.6,0,.8.2c.2.1.4.3.6.5l-.5.5c-.1-.1-.2-.2-.4-.3-.2,0-.3-.1-.6-.1s-.5,0-.7.2c-.2.1-.3.3-.4.5s-.1.4-.1.7,0,.4.1.7c.1.2.2.4.4.5.2.1.4.2.7.2s.4,0,.6-.1c.2,0,.3-.2.4-.3ZM72.7,213l.4.4c0,0-.1.1-.3.3-.1.1-.3.2-.5.3-.2,0-.5.1-.8.1s-.7,0-1-.2c-.3-.2-.5-.4-.7-.7-.2-.3-.2-.7-.2-1s0-.7.2-1c.2-.3.4-.5.7-.7.3-.2.6-.3,1-.3s.8.1,1,.3c.3.2.5.5.6.8.1.3.2.7.2,1.1h-2.9c0,.2,0,.4.2.6.1.2.3.3.4.4.2,0,.4.1.6.1.3,0,.6,0,.8-.2.2-.1.4-.2.4-.3ZM70.3,211.8h2.2c0-.3-.1-.5-.3-.7-.2-.2-.4-.3-.8-.3s-.4,0-.6.2c-.2.1-.3.2-.4.4,0,.2-.1.3-.1.5ZM76.7,214v-.5c0,0-.1.1-.2.2,0,0-.2.2-.4.3-.2,0-.4.1-.6.1s-.6,0-.8-.2c-.3-.2-.4-.4-.6-.7-.1-.3-.2-.6-.2-1s0-.7.2-.9c.1-.3.3-.5.5-.6s.4-.3.6-.4c.2,0,.4-.1.6-.1s.4,0,.5,0c.1,0,.3.1.4.2v-1.8h.7v5.1c0,0,0,.1,0,.2h-.7ZM76.7,212.4v-1.3c0,0-.2-.1-.4-.2-.1,0-.3,0-.5,0-.3,0-.6.1-.9.4-.2.2-.3.6-.3,1s0,.5.1.6c0,.2.2.4.4.5.2.1.4.2.6.2s.5,0,.6-.2c.2-.1.3-.3.3-.4,0-.2.1-.3.1-.5ZM81.4,214.7h-.7c0-.2-.2-.4-.3-.7-.1-.3-.2-.7-.3-1.1,0-.4-.1-.9-.1-1.4s0-1,.1-1.4c0-.4.2-.8.3-1.1s.2-.5.3-.7h.7c-.1.2-.2.5-.3.8-.1.3-.2.7-.3,1.1,0,.4-.1.8-.1,1.3s0,.9.1,1.3c0,.4.2.8.3,1.1.1.3.2.6.3.8ZM82.2,214l.2-5.3h.7l1.6,2.8,1.6-2.8h.7l.2,5.3h-.8l-.2-4.1-1.5,2.5h-.4l-1.5-2.5-.2,4.1h-.7ZM88.1,215.4l.3-.5c0,0,.1,0,.2.1,0,0,.2,0,.3,0,.2,0,.3,0,.4-.2,0-.1.2-.4.3-.7v-.2c0,0-1.6-3.7-1.6-3.7h.8l1.2,2.8,1.1-2.8h.8l-1.5,3.6c0,.2-.1.3-.2.6,0,.2-.2.4-.3.6-.1.2-.2.3-.4.5-.2.1-.3.2-.6.2s-.3,0-.5,0c-.1,0-.2-.1-.3-.2ZM92.2,213.2l.5-.5c.1.1.2.2.4.3.1.1.3.2.5.3.2,0,.4.1.6.1.4,0,.6,0,.8-.2.2-.2.3-.4.3-.6s-.1-.5-.3-.7c-.2-.1-.5-.3-1-.4-.5,0-.8-.3-1.1-.5-.3-.3-.4-.6-.4-1s0-.5.2-.7c.1-.2.3-.4.6-.5.3-.1.6-.2,1-.2s.6,0,.9.1c.2,0,.4.2.5.3.1.1.2.2.3.3l-.5.5c0,0-.1-.1-.2-.2-.1,0-.2-.2-.4-.2-.2,0-.3-.1-.6-.1s-.4,0-.6.1c-.1,0-.3.2-.3.3,0,.1-.1.2-.1.4,0,.3.1.5.3.6.2.1.5.2.9.3.3,0,.5.2.8.3.2.1.4.3.6.5.2.2.2.5.2.9s0,.6-.2.8c-.2.2-.4.4-.7.6-.3.1-.6.2-1,.2s-.6,0-.9-.1c-.3,0-.5-.2-.7-.4-.2-.1-.3-.3-.4-.4ZM96.9,212.5v-2.2h.7v2.2c0,.3,0,.6.2.8s.4.2.6.2.5,0,.6-.2c.2-.1.3-.3.3-.5,0-.2.1-.5.1-.7v-1.7h.7v3.5c0,0,0,.1,0,.2h-.7v-.6c0,0-.2.2-.3.3-.1,0-.2.2-.4.2-.2,0-.4.1-.6.1-.5,0-.8-.1-1.1-.4-.2-.3-.3-.7-.3-1.1ZM101.9,215.6h-.7v-4.9h0c0-.2,0-.3,0-.4h.7v.5c0,0,.2-.1.3-.2.1,0,.2-.2.4-.3.2,0,.4-.1.6-.1.4,0,.7,0,.9.3.2.2.4.4.6.7.1.3.2.6.2,1s0,.6-.2.9c-.1.2-.3.4-.4.6-.2.2-.4.3-.6.4-.2,0-.4.1-.7.1s-.5,0-.6,0c-.1,0-.3-.1-.4-.2v1.7ZM101.9,212.2v1c0,0,.2.1.4.2.2,0,.4,0,.6,0s.5,0,.6-.2c.2-.1.3-.3.4-.5.1-.2.2-.4.2-.7s0-.5-.1-.7c0-.2-.2-.4-.3-.5-.2-.1-.4-.2-.6-.2s-.5,0-.7.2c-.2.1-.3.3-.4.6,0,0,0,.2,0,.3,0,0,0,.2,0,.3ZM108.7,213l.4.4c0,0-.1.1-.3.3-.1.1-.3.2-.5.3-.2,0-.5.1-.8.1s-.7,0-1-.2c-.3-.2-.5-.4-.7-.7-.2-.3-.2-.7-.2-1s0-.7.2-1c.2-.3.4-.5.7-.7.3-.2.6-.3,1-.3s.8.1,1,.3c.3.2.5.5.6.8.1.3.2.7.2,1.1h-2.9c0,.2,0,.4.2.6.1.2.3.3.4.4.2,0,.4.1.6.1.3,0,.6,0,.8-.2.2-.1.4-.2.4-.3ZM106.2,211.8h2.2c0-.3-.1-.5-.3-.7-.2-.2-.4-.3-.8-.3s-.4,0-.6.2c-.2.1-.3.2-.4.4,0,.2-.1.3-.1.5ZM110.7,214h-.7v-3.4h0c0-.2,0-.3,0-.4h.7v.6c0,0,.2-.2.3-.3.1-.1.2-.2.4-.3.2,0,.4-.1.6-.1s.2,0,.2,0c0,0,.1,0,.2,0l-.2.7c0,0-.2,0-.4,0s-.4,0-.6.2c-.2.1-.3.2-.4.4s-.1.4-.1.6v2ZM112.7,208.4h.7c0,.2.2.4.3.7.1.3.2.7.3,1.1,0,.4.1.9.1,1.4s0,1-.1,1.4c0,.4-.2.8-.3,1.1-.1.3-.2.5-.3.7h-.7c.1-.2.2-.5.3-.8.1-.3.2-.7.3-1.1,0-.4.1-.9.1-1.3s0-.9-.1-1.3c0-.4-.2-.8-.3-1.1-.1-.3-.2-.6-.3-.8ZM116.6,209.6v-.8h.8v.8h-.8ZM116.7,214v-3.7h.7v3.7h-.7ZM119.1,214h-.7v-3.3h0c0-.2,0-.3,0-.4h.7v.6c0,0,.2-.2.3-.3.1-.1.2-.2.4-.3.2,0,.4-.1.6-.1.5,0,.8.1,1.1.4.2.3.4.7.4,1.1v2.2h-.7v-2.2c0-.3,0-.6-.2-.8-.2-.2-.4-.2-.6-.2s-.5,0-.6.2c-.2.1-.3.3-.3.5,0,.2,0,.5,0,.7v1.7ZM123.8,214l-1.6-3.7h.8l1.2,2.9,1.2-2.9h.8l-1.6,3.7h-.7ZM129.4,213l.4.4c0,0-.2.1-.3.3-.1.1-.3.2-.5.3-.2,0-.5.1-.8.1s-.7,0-1-.2c-.3-.2-.5-.4-.7-.7-.2-.3-.2-.7-.2-1s0-.7.2-1c.2-.3.4-.5.7-.7.3-.2.6-.3,1-.3s.8.1,1,.3c.3.2.5.5.6.8.1.3.2.7.2,1.1h-2.9c0,.2,0,.4.2.6.1.2.3.3.4.4.2,0,.4.1.6.1.3,0,.6,0,.8-.2.2-.1.4-.2.4-.3ZM127,211.8h2.2c0-.3-.1-.5-.3-.7-.2-.2-.4-.3-.8-.3s-.4,0-.6.2c-.2.1-.3.2-.4.4,0,.2-.1.3-.1.5ZM130.5,213.5l.4-.5c.1.1.3.2.5.3.2,0,.4.1.6.1s.4,0,.6-.1c.2,0,.2-.2.2-.4s0-.2,0-.3c0,0-.2-.1-.3-.2-.2,0-.4-.1-.6-.2-.2,0-.4-.1-.6-.2-.2,0-.3-.2-.4-.3-.1-.1-.2-.3-.2-.6s0-.4.2-.6c.1-.2.3-.3.6-.4.2,0,.5-.1.7-.1s.6,0,.8.1c.2,0,.4.2.6.3l-.4.5c-.1-.1-.3-.2-.4-.3-.2,0-.4-.1-.6-.1s-.4,0-.6.1c-.1,0-.2.2-.2.4s0,.3.3.4c.2,0,.4.1.7.2.2,0,.4.1.6.2.2,0,.3.2.5.4.1.1.2.3.2.6s0,.5-.2.6c-.1.2-.3.3-.6.4-.2,0-.5.1-.8.1-.7,0-1.2-.2-1.6-.6ZM134.8,212.8v-1.9h-.7v-.6h.7v-1.2h.7v1.2h1.1v.6h-1.1v1.8c0,.3,0,.5.1.6,0,.1.2.2.4.2s.3,0,.3,0c0,0,.2-.1.3-.2l.3.4c-.2.1-.3.3-.5.3-.2,0-.4.1-.6.1-.4,0-.7-.1-.9-.3-.2-.2-.3-.6-.3-1ZM138.3,214h-.7v-3.3h0c0-.2,0-.3,0-.4h.7v.6c0,0,.2-.2.3-.3.1-.1.2-.2.4-.3.2,0,.4-.1.6-.1s.5,0,.7.2c.2.1.3.3.4.5.1-.2.3-.3.6-.5.2-.1.5-.2.8-.2.5,0,.8.1,1.1.4.2.3.3.7.3,1.1v2.2h-.7v-2.2c0-.7-.3-1-.8-1s-.4,0-.5.2c-.2.1-.3.2-.4.4,0,.2-.1.3-.1.6v2.1h-.7v-2.2c0-.3,0-.6-.2-.8-.1-.2-.3-.2-.6-.2s-.5,0-.6.2c-.2.1-.3.3-.3.6,0,.2,0,.4,0,.7v1.7ZM147.3,213l.4.4c0,0-.1.1-.3.3-.1.1-.3.2-.5.3-.2,0-.5.1-.8.1s-.7,0-1-.2c-.3-.2-.5-.4-.7-.7-.2-.3-.2-.7-.2-1s0-.7.2-1c.2-.3.4-.5.7-.7.3-.2.6-.3,1-.3s.8.1,1,.3c.3.2.5.5.6.8.1.3.2.7.2,1.1h-2.9c0,.2,0,.4.2.6.1.2.3.3.4.4.2,0,.4.1.6.1.3,0,.6,0,.8-.2.2-.1.4-.2.4-.3ZM144.9,211.8h2.2c0-.3-.1-.5-.3-.7-.2-.2-.4-.3-.8-.3s-.4,0-.6.2c-.2.1-.3.2-.4.4,0,.2-.1.3-.1.5ZM149.4,214h-.7v-3.3h0c0-.2,0-.3,0-.4h.7v.6c0,0,.2-.2.3-.3.1-.1.2-.2.4-.3.2,0,.4-.1.6-.1.5,0,.8.1,1.1.4.2.3.4.7.4,1.1v2.2h-.7v-2.2c0-.3,0-.6-.2-.8-.1-.2-.4-.2-.6-.2s-.5,0-.6.2c-.2.1-.3.3-.3.5,0,.2,0,.5,0,.7v1.7ZM153.3,212.8v-1.9h-.7v-.6h.7v-1.2h.7v1.2h1.1v.6h-1.1v1.8c0,.3,0,.5.1.6,0,.1.2.2.4.2s.3,0,.3,0c0,0,.2-.1.3-.2l.3.4c-.2.1-.3.3-.5.3-.2,0-.4.1-.6.1-.4,0-.7-.1-.9-.3-.2-.2-.3-.6-.3-1ZM159.3,214.1c-.4,0-.7,0-1-.3-.3-.2-.5-.4-.7-.7-.2-.3-.2-.6-.2-1s0-.7.2-1c.2-.3.4-.5.7-.7.3-.2.6-.3,1-.3s.7,0,1,.3c.3.2.5.4.7.7.2.3.3.6.3,1s0,.7-.3,1c-.2.3-.4.5-.7.7-.3.2-.6.3-1,.3ZM159.3,213.5c.3,0,.5,0,.7-.2.2-.1.3-.3.4-.5.1-.2.2-.4.2-.6s0-.4-.2-.6c0-.2-.2-.4-.4-.5-.2-.1-.4-.2-.7-.2s-.5,0-.7.2c-.2.1-.3.3-.4.5,0,.2-.1.4-.1.6s0,.4.2.6c.1.2.2.4.4.5.2.1.4.2.7.2ZM162.8,215.6h-.7v-4.9h0c0-.2,0-.3,0-.4h.7v.5c0,0,.2-.1.3-.2.1,0,.2-.2.4-.3.2,0,.4-.1.6-.1.4,0,.7,0,.9.3.2.2.4.4.6.7.1.3.2.6.2,1s0,.6-.2.9c-.1.2-.3.4-.4.6-.2.2-.4.3-.6.4-.2,0-.4.1-.7.1s-.5,0-.6,0c-.2,0-.3-.1-.4-.2v1.7ZM162.8,212.2v1c0,0,.2.1.4.2.2,0,.4,0,.6,0s.5,0,.6-.2c.2-.1.3-.3.4-.5.1-.2.2-.4.2-.7s0-.5-.1-.7c0-.2-.2-.4-.3-.5s-.4-.2-.6-.2-.5,0-.7.2c-.2.1-.3.3-.4.6,0,0,0,.2,0,.3,0,0,0,.2,0,.3ZM166.9,212.8v-1.9h-.7v-.6h.7v-1.2h.7v1.2h1.1v.6h-1.1v1.8c0,.3,0,.5.1.6,0,.1.2.2.4.2s.3,0,.3,0c0,0,.2-.1.3-.2l.3.4c-.2.1-.3.3-.5.3-.2,0-.4.1-.6.1-.4,0-.7-.1-.9-.3-.2-.2-.3-.6-.3-1ZM169.6,209.6v-.8h.8v.8h-.8ZM169.7,214v-3.7h.7v3.7h-.7ZM173.2,214.1c-.4,0-.7,0-1-.3-.3-.2-.5-.4-.7-.7-.2-.3-.2-.6-.2-1s0-.7.2-1c.2-.3.4-.5.7-.7.3-.2.6-.3,1-.3s.7,0,1,.3c.3.2.5.4.7.7.2.3.3.6.3,1s0,.7-.3,1c-.2.3-.4.5-.7.7-.3.2-.6.3-1,.3ZM173.2,213.5c.3,0,.5,0,.7-.2.2-.1.3-.3.4-.5.1-.2.2-.4.2-.6s0-.4-.2-.6c0-.2-.2-.4-.4-.5-.2-.1-.4-.2-.7-.2s-.5,0-.7.2c-.2.1-.3.3-.4.5,0,.2-.1.4-.1.6s0,.4.2.6c.1.2.2.4.4.5.2.1.4.2.7.2ZM176.7,214h-.7v-3.3h0c0-.2,0-.3,0-.4h.7v.6c0,0,.2-.2.3-.3.1-.1.2-.2.4-.3.2,0,.4-.1.6-.1.5,0,.8.1,1.1.4.2.3.4.7.4,1.1v2.2h-.7v-2.2c0-.3,0-.6-.2-.8-.1-.2-.4-.2-.6-.2s-.5,0-.6.2c-.2.1-.3.3-.3.5,0,.2,0,.5,0,.7v1.7ZM184.6,213l.4.5c-.2.2-.4.3-.6.5-.2.1-.5.2-.8.2s-.7,0-1-.3c-.3-.2-.5-.4-.7-.7-.2-.3-.2-.6-.2-1s0-.7.2-1c.2-.3.4-.5.7-.7.3-.2.6-.3,1-.3s.6,0,.8.2c.2.1.4.3.6.5l-.5.5c-.1-.1-.2-.2-.4-.3s-.3-.1-.6-.1-.5,0-.7.2c-.2.1-.3.3-.4.5,0,.2-.1.4-.1.7s0,.4.1.7c.1.2.2.4.4.5.2.1.4.2.7.2s.4,0,.6-.1c.2,0,.3-.2.4-.3ZM187.3,214.1c-.4,0-.7,0-1-.3-.3-.2-.5-.4-.7-.7-.2-.3-.2-.6-.2-1s0-.7.2-1c.2-.3.4-.5.7-.7.3-.2.6-.3,1-.3s.7,0,1,.3c.3.2.5.4.7.7s.3.6.3,1,0,.7-.3,1c-.2.3-.4.5-.7.7-.3.2-.6.3-1,.3ZM187.3,213.5c.3,0,.5,0,.7-.2.2-.1.3-.3.4-.5.1-.2.2-.4.2-.6s0-.4-.2-.6c0-.2-.2-.4-.4-.5-.2-.1-.4-.2-.7-.2s-.5,0-.7.2c-.2.1-.3.3-.4.5,0,.2-.1.4-.1.6s0,.4.2.6c.1.2.2.4.4.5.2.1.4.2.7.2ZM190.8,214h-.7v-3.3h0c0-.2,0-.3,0-.4h.7v.6c0,0,.2-.2.3-.3.1-.1.2-.2.4-.3.2,0,.4-.1.6-.1s.5,0,.7.2c.2.1.3.3.4.5.1-.2.3-.3.6-.5.2-.1.5-.2.8-.2.5,0,.8.1,1.1.4.2.3.3.7.3,1.1v2.2h-.7v-2.2c0-.7-.3-1-.8-1s-.4,0-.5.2c-.2.1-.3.2-.4.4,0,.2-.1.3-.1.6v2.1h-.7v-2.2c0-.3,0-.6-.2-.8-.1-.2-.3-.2-.6-.2s-.5,0-.6.2-.3.3-.3.6c0,.2,0,.4,0,.7v1.7ZM197.6,215.6h-.7v-4.9h0c0-.2,0-.3,0-.4h.7v.5c0,0,.2-.1.3-.2.1,0,.2-.2.4-.3.2,0,.4-.1.6-.1.4,0,.7,0,.9.3.3.2.4.4.6.7.1.3.2.6.2,1s0,.6-.2.9c-.1.2-.3.4-.4.6-.2.2-.4.3-.6.4-.2,0-.4.1-.7.1s-.5,0-.6,0c-.1,0-.3-.1-.4-.2v1.7ZM197.6,212.2v1c0,0,.2.1.4.2.2,0,.4,0,.6,0s.5,0,.6-.2c.2-.1.3-.3.4-.5.1-.2.2-.4.2-.7s0-.5-.1-.7c0-.2-.2-.4-.3-.5-.2-.1-.4-.2-.6-.2s-.5,0-.7.2c-.2.1-.3.3-.4.6,0,0,0,.2,0,.3,0,0,0,.2,0,.3ZM203.7,214v-.4c-.1.2-.3.3-.6.4-.2,0-.5.1-.7.1s-.4,0-.6-.1c-.2,0-.4-.2-.5-.4-.1-.2-.2-.4-.2-.7s.1-.7.4-1c.3-.2.7-.4,1.2-.4s.2,0,.4,0c.1,0,.2,0,.3,0,.1,0,.2,0,.2,0h0c0-.4,0-.6-.3-.7-.2-.1-.4-.2-.7-.2s-.5,0-.7.1c-.2,0-.3.2-.4.2l-.3-.5c.1-.1.3-.2.6-.3.2-.1.6-.2,1-.2s.9.1,1.1.4c.3.2.4.6.4,1v2.2h0c0,.2,0,.3,0,.3h-.7ZM203.7,212.7v-.4s0,0-.2,0c0,0-.2,0-.3,0-.1,0-.2,0-.3,0-.3,0-.5,0-.6.1-.1,0-.2.2-.3.3,0,.1,0,.2,0,.3,0,.2,0,.3.2.5.1.1.3.2.6.2s.4,0,.5-.1c.2,0,.3-.2.4-.3.1-.1.2-.3.2-.4ZM206,214h-.7v-3.4h0c0-.2,0-.3,0-.4h.7v.6c0,0,.2-.2.3-.3.1-.1.2-.2.4-.3s.4-.1.6-.1.2,0,.2,0c0,0,.1,0,.2,0l-.2.7c0,0-.2,0-.4,0s-.4,0-.6.2c-.2.1-.3.2-.4.4,0,.2-.1.4-.1.6v2ZM211,213l.4.4c0,0-.1.1-.3.3-.1.1-.3.2-.5.3-.2,0-.5.1-.8.1s-.7,0-1-.2c-.3-.2-.5-.4-.7-.7-.2-.3-.2-.7-.2-1s0-.7.2-1c.2-.3.4-.5.7-.7.3-.2.6-.3,1-.3s.8.1,1,.3c.3.2.5.5.6.8.1.3.2.7.2,1.1h-2.9c0,.2,0,.4.2.6.1.2.3.3.4.4.2,0,.4.1.6.1.3,0,.6,0,.8-.2.2-.1.4-.2.4-.3ZM208.6,211.8h2.2c0-.3-.1-.5-.3-.7s-.4-.3-.8-.3-.4,0-.6.2c-.2.1-.3.2-.4.4,0,.2-.1.3-.1.5ZM215,214v-.5c0,0-.1.1-.2.2,0,0-.2.2-.4.3-.2,0-.4.1-.6.1s-.6,0-.8-.2c-.3-.2-.4-.4-.6-.7-.1-.3-.2-.6-.2-1s0-.7.2-.9c.1-.3.3-.5.5-.6s.4-.3.6-.4c.2,0,.4-.1.6-.1s.4,0,.5,0c.1,0,.3.1.4.2v-1.8h.7v5.1c0,0,0,.1,0,.2h-.7ZM215,212.4v-1.3c0,0-.2-.1-.4-.2-.1,0-.3,0-.5,0-.3,0-.6.1-.9.4-.2.2-.3.6-.3,1s0,.5.1.6c0,.2.2.4.4.5.2.1.4.2.6.2s.5,0,.6-.2c.2-.1.3-.3.3-.4,0-.2.1-.3.1-.5ZM218.5,212.8v-1.9h-.7v-.6h.7v-1.2h.7v1.2h1.1v.6h-1.1v1.8c0,.3,0,.5.1.6,0,.1.2.2.4.2s.3,0,.3,0c0,0,.2-.1.3-.2l.3.4c-.2.1-.3.3-.5.3-.2,0-.4.1-.6.1-.4,0-.7-.1-.9-.3-.2-.2-.3-.6-.3-1ZM222.8,214.1c-.4,0-.7,0-1-.3-.3-.2-.5-.4-.7-.7-.2-.3-.2-.6-.2-1s0-.7.2-1c.2-.3.4-.5.7-.7.3-.2.6-.3,1-.3s.7,0,1,.3c.3.2.5.4.7.7s.3.6.3,1,0,.7-.3,1c-.2.3-.4.5-.7.7-.3.2-.6.3-1,.3ZM222.8,213.5c.3,0,.5,0,.7-.2.2-.1.3-.3.4-.5.1-.2.2-.4.2-.6s0-.4-.2-.6c0-.2-.2-.4-.4-.5-.2-.1-.4-.2-.7-.2s-.5,0-.7.2c-.2.1-.3.3-.4.5,0,.2-.1.4-.1.6s0,.4.2.6c.1.2.2.4.4.5.2.1.4.2.7.2ZM227.3,212.8v-1.9h-.7v-.6h.7v-1.2h.7v1.2h1.1v.6h-1.1v1.8c0,.3,0,.5.1.6,0,.1.2.2.4.2s.3,0,.3,0c0,0,.2-.1.3-.2l.3.4c-.2.1-.3.3-.5.3-.2,0-.4.1-.6.1-.4,0-.7-.1-.9-.3-.2-.2-.3-.6-.3-1ZM230.1,214v-5.3h.7v2.2c0,0,.1-.2.2-.3.1-.1.2-.2.4-.3.2,0,.4-.1.6-.1.5,0,.8.1,1.1.4.2.3.4.7.4,1.1v2.2h-.7v-2.2c0-.3,0-.6-.2-.8-.2-.2-.4-.2-.6-.2s-.5,0-.6.2c-.2.1-.3.3-.3.5,0,.2,0,.5,0,.7v1.7h-.7ZM237.4,213l.4.4c0,0-.2.1-.3.3-.1.1-.3.2-.5.3-.2,0-.5.1-.8.1s-.7,0-1-.2c-.3-.2-.5-.4-.7-.7-.2-.3-.2-.7-.2-1s0-.7.2-1c.2-.3.4-.5.7-.7.3-.2.6-.3,1-.3s.8.1,1,.3c.3.2.5.5.6.8.1.3.2.7.2,1.1h-2.9c0,.2,0,.4.2.6.1.2.3.3.4.4.2,0,.4.1.6.1.3,0,.6,0,.8-.2.2-.1.4-.2.4-.3ZM235,211.8h2.2c0-.3-.1-.5-.3-.7-.2-.2-.4-.3-.8-.3s-.4,0-.6.2c-.2.1-.3.2-.4.4,0,.2-.1.3-.1.5ZM240,213.2l.5-.5c.1.1.2.2.4.3s.3.2.5.3c.2,0,.4.1.6.1.4,0,.6,0,.8-.2.2-.2.3-.4.3-.6s-.1-.5-.3-.7c-.2-.1-.5-.3-1-.4-.5,0-.8-.3-1.1-.5-.3-.3-.4-.6-.4-1s0-.5.2-.7c.1-.2.3-.4.6-.5.3-.1.6-.2,1-.2s.6,0,.9.1c.2,0,.4.2.5.3.1.1.2.2.3.3l-.5.5c0,0-.1-.1-.2-.2-.1,0-.2-.2-.4-.2-.2,0-.3-.1-.6-.1s-.4,0-.6.1c-.1,0-.3.2-.3.3,0,.1-.1.2-.1.4,0,.3.1.5.3.6.2.1.5.2.9.3.3,0,.5.2.8.3.2.1.4.3.6.5.2.2.2.5.2.9s0,.6-.2.8c-.2.2-.4.4-.7.6-.3.1-.6.2-1,.2s-.6,0-.9-.1c-.3,0-.5-.2-.7-.4-.2-.1-.3-.3-.4-.4ZM244.6,212.5v-2.2h.7v2.2c0,.3,0,.6.2.8s.4.2.6.2.5,0,.6-.2.3-.3.3-.5c0-.2.1-.5.1-.7v-1.7h.7v3.5c0,0,0,.1,0,.2h-.7v-.6c0,0-.2.2-.3.3-.1,0-.2.2-.4.2-.2,0-.4.1-.6.1-.5,0-.8-.1-1.1-.4-.2-.3-.3-.7-.3-1.1ZM249.7,215.6h-.7v-4.9h0c0-.2,0-.3,0-.4h.7v.5c0,0,.2-.1.3-.2.1,0,.2-.2.4-.3.2,0,.4-.1.6-.1.4,0,.7,0,.9.3.2.2.4.4.6.7.1.3.2.6.2,1s0,.6-.2.9c-.1.2-.3.4-.4.6-.2.2-.4.3-.6.4-.2,0-.4.1-.7.1s-.5,0-.6,0c-.1,0-.3-.1-.4-.2v1.7ZM249.7,212.2v1c0,0,.2.1.4.2s.4,0,.6,0,.5,0,.6-.2c.2-.1.3-.3.4-.5.1-.2.2-.4.2-.7s0-.5-.1-.7c0-.2-.2-.4-.3-.5-.2-.1-.4-.2-.6-.2s-.5,0-.7.2c-.2.1-.3.3-.4.6,0,0,0,.2,0,.3,0,0,0,.2,0,.3ZM256.4,213l.4.4c0,0-.1.1-.3.3-.1.1-.3.2-.5.3-.2,0-.5.1-.8.1s-.7,0-1-.2c-.3-.2-.5-.4-.7-.7-.2-.3-.2-.7-.2-1s0-.7.2-1c.2-.3.4-.5.7-.7.3-.2.6-.3,1-.3s.8.1,1,.3c.3.2.5.5.6.8.1.3.2.7.2,1.1h-2.9c0,.2,0,.4.2.6.1.2.3.3.4.4.2,0,.4.1.6.1.3,0,.6,0,.8-.2.2-.1.4-.2.4-.3ZM254,211.8h2.2c0-.3-.1-.5-.3-.7-.2-.2-.4-.3-.8-.3s-.4,0-.6.2c-.2.1-.3.2-.4.4,0,.2-.1.3-.1.5ZM258.5,214h-.7v-3.4h0c0-.2,0-.3,0-.4h.7v.6c0,0,.2-.2.3-.3.1-.1.2-.2.4-.3s.4-.1.6-.1.2,0,.2,0c0,0,.1,0,.2,0l-.2.7c0,0-.2,0-.4,0s-.4,0-.6.2c-.2.1-.3.2-.4.4,0,.2-.1.4-.1.6v2ZM260.8,214v-5.3h1.7c.5,0,.8,0,1.1.2s.5.4.6.6c.1.2.2.5.2.7s0,.6-.2.9-.4.5-.7.6l1.2,2.3h-.9l-1.1-2.2h-1.1v2.2h-.7ZM261.5,211.2h1c.3,0,.6,0,.8-.2.2-.2.3-.4.3-.7s0-.5-.3-.7c-.2-.2-.4-.2-.8-.2h-1v1.8ZM267.6,214v-.4c-.1.2-.3.3-.6.4-.2,0-.5.1-.7.1s-.4,0-.6-.1c-.2,0-.4-.2-.5-.4-.1-.2-.2-.4-.2-.7s.1-.7.4-1c.3-.2.7-.4,1.2-.4s.2,0,.4,0c.1,0,.2,0,.3,0,.1,0,.2,0,.2,0h0c0-.4,0-.6-.3-.7-.2-.1-.4-.2-.7-.2s-.5,0-.7.1c-.2,0-.3.2-.4.2l-.3-.5c.1-.1.3-.2.6-.3.2-.1.6-.2,1-.2s.9.1,1.1.4c.3.2.4.6.4,1v2.2h0c0,.2,0,.3,0,.3h-.7ZM267.5,212.7v-.4s0,0-.2,0c0,0-.2,0-.3,0-.1,0-.2,0-.3,0-.3,0-.5,0-.6.1-.1,0-.2.2-.3.3,0,.1,0,.2,0,.3,0,.2,0,.3.2.5.1.1.3.2.6.2s.4,0,.5-.1c.2,0,.3-.2.4-.3.1-.1.2-.3.2-.4ZM269.5,212.8v-1.9h-.7v-.6h.7v-1.2h.7v1.2h1.1v.6h-1.1v1.8c0,.3,0,.5.1.6,0,.1.2.2.4.2s.3,0,.3,0c0,0,.2-.1.3-.2l.3.4c-.2.1-.3.3-.5.3-.2,0-.4.1-.6.1-.4,0-.7-.1-.9-.3-.2-.2-.3-.6-.3-1ZM272.3,209.6v-.8h.8v.8h-.8ZM272.3,214v-3.7h.7v3.7h-.7ZM274.8,214h-.7v-3.3h0c0-.2,0-.3,0-.4h.7v.6c0,0,.2-.2.3-.3.1-.1.2-.2.4-.3.2,0,.4-.1.6-.1.5,0,.8.1,1.1.4.2.3.4.7.4,1.1v2.2h-.7v-2.2c0-.3,0-.6-.2-.8-.1-.2-.4-.2-.6-.2s-.5,0-.6.2c-.2.1-.3.3-.3.5,0,.2,0,.5,0,.7v1.7ZM278.6,215.3l.3-.5c.1,0,.3.2.4.2.2,0,.4,0,.7,0s.6,0,.8-.3.3-.5.3-.8v-.5s-.1.1-.2.2c0,0-.2.1-.4.2-.1,0-.3,0-.6,0-.4,0-.7,0-.9-.2-.3-.2-.4-.4-.6-.7-.1-.3-.2-.6-.2-1s0-.7.3-1c.2-.3.4-.5.7-.7s.7-.3,1.1-.3.6,0,.8,0c.3,0,.5.1.6.2v3.6c0,.5-.2.9-.5,1.2s-.8.4-1.3.4-.7,0-.9-.1c-.2,0-.4-.2-.5-.3ZM281.1,212.5v-1.5s-.1,0-.2,0c-.1,0-.3,0-.5,0s-.5,0-.7.2c-.2.1-.4.3-.5.5-.1.2-.2.4-.2.7s0,.4.1.6c0,.2.2.3.4.4s.4.2.6.2.4,0,.6-.1.3-.2.3-.3c0-.1.1-.3.1-.4ZM282.6,213.5l.4-.5c.1.1.3.2.5.3s.4.1.6.1.4,0,.6-.1c.2,0,.2-.2.2-.4s0-.2,0-.3-.2-.1-.3-.2c-.2,0-.4-.1-.6-.2-.2,0-.4-.1-.6-.2-.2,0-.3-.2-.4-.3-.1-.1-.2-.3-.2-.6s0-.4.2-.6c.1-.2.3-.3.6-.4.2,0,.5-.1.7-.1s.6,0,.8.1c.2,0,.4.2.6.3l-.4.5c-.1-.1-.3-.2-.4-.3-.2,0-.4-.1-.6-.1s-.4,0-.6.1c-.1,0-.2.2-.2.4s0,.3.3.4c.2,0,.4.1.7.2.2,0,.4.1.6.2.2,0,.3.2.5.4.1.1.2.3.2.6s0,.5-.2.6c-.1.2-.3.3-.6.4-.2,0-.5.1-.8.1-.7,0-1.2-.2-1.6-.6ZM13.7,221l2.1-5.3h.8l2.1,5.3h-.9l-.6-1.5h-2.2l-.6,1.5h-.8ZM15.3,218.9h1.7l-.9-2.3-.9,2.3ZM21.9,220l.4.5c-.2.2-.4.3-.6.5-.2.1-.5.2-.8.2s-.7,0-1-.3c-.3-.2-.5-.4-.7-.7-.2-.3-.2-.6-.2-1s0-.7.2-1c.2-.3.4-.5.7-.7.3-.2.6-.3,1-.3s.6,0,.8.2.4.3.6.5l-.5.5c-.1-.1-.2-.2-.4-.3s-.3-.1-.6-.1-.5,0-.7.2c-.2.1-.3.3-.4.5,0,.2-.1.4-.1.7s0,.4.1.7c.1.2.2.4.4.5.2.1.4.2.7.2s.4,0,.6-.1c.2,0,.3-.2.4-.3ZM25.6,220l.4.5c-.2.2-.4.3-.6.5-.2.1-.5.2-.8.2s-.7,0-1-.3c-.3-.2-.5-.4-.7-.7-.2-.3-.2-.6-.2-1s0-.7.2-1,.4-.5.7-.7c.3-.2.6-.3,1-.3s.6,0,.8.2c.2.1.4.3.6.5l-.5.5c-.1-.1-.2-.2-.4-.3-.2,0-.3-.1-.6-.1s-.5,0-.7.2c-.2.1-.3.3-.4.5,0,.2-.1.4-.1.7s0,.4.1.7c.1.2.2.4.4.5.2.1.4.2.7.2s.4,0,.6-.1c.2,0,.3-.2.4-.3ZM26.7,219.5v-2.2h.7v2.2c0,.3,0,.6.2.8.1.2.4.2.6.2s.5,0,.6-.2c.2-.1.3-.3.3-.5,0-.2.1-.5.1-.7v-1.7h.7v3.5c0,0,0,.1,0,.2h-.7v-.6c0,0-.2.2-.3.3-.1,0-.2.2-.4.2-.2,0-.4.1-.6.1-.5,0-.8-.1-1.1-.4-.2-.3-.3-.7-.3-1.1ZM31.8,221h-.7v-3.3h0c0-.2,0-.3,0-.4h.7v.6c0,0,.2-.2.3-.3.1-.1.2-.2.4-.3.2,0,.4-.1.6-.1s.5,0,.7.2c.2.1.3.3.4.5.1-.2.3-.3.6-.5.2-.1.5-.2.8-.2.5,0,.8.1,1.1.4.2.3.3.7.3,1.1v2.2h-.7v-2.2c0-.7-.3-1-.8-1s-.4,0-.5.2c-.2.1-.3.2-.4.4,0,.2-.1.3-.1.6v2.1h-.7v-2.2c0-.3,0-.6-.2-.8-.1-.2-.3-.2-.6-.2s-.5,0-.6.2c-.2.1-.3.3-.3.6,0,.2,0,.4,0,.7v1.7ZM37.9,219.5v-2.2h.7v2.2c0,.3,0,.6.2.8.1.2.4.2.6.2s.5,0,.6-.2c.2-.1.3-.3.3-.5,0-.2.1-.5.1-.7v-1.7h.7v3.5c0,0,0,.1,0,.2h-.7v-.6c0,0-.2.2-.3.3-.1,0-.2.2-.4.2-.2,0-.4.1-.6.1-.5,0-.8-.1-1.1-.4-.2-.3-.3-.7-.3-1.1ZM42.2,221v-5.3h.7v5.3h-.7ZM46.3,221v-.4c-.1.2-.3.3-.6.4-.2,0-.5.1-.7.1s-.4,0-.6-.1c-.2,0-.4-.2-.5-.4-.1-.2-.2-.4-.2-.7s.1-.7.4-1c.3-.2.7-.4,1.2-.4s.2,0,.4,0c.1,0,.2,0,.3,0,.1,0,.2,0,.2,0h0c0-.4,0-.6-.3-.7-.2-.1-.4-.2-.7-.2s-.5,0-.7.1c-.2,0-.3.2-.4.2l-.3-.5c.1-.1.3-.2.6-.3.2-.1.6-.2,1-.2s.9.1,1.1.4c.3.2.4.6.4,1v2.2h0c0,.2,0,.3,0,.3h-.7ZM46.2,219.7v-.4s0,0-.2,0c0,0-.2,0-.3,0-.1,0-.2,0-.3,0-.3,0-.5,0-.6.1-.1,0-.2.2-.3.3,0,.1,0,.2,0,.3,0,.2,0,.3.2.5.1.1.3.2.6.2s.4,0,.5-.1c.2,0,.3-.2.4-.3.1-.1.2-.3.2-.4ZM48.2,219.8v-1.9h-.7v-.6h.7v-1.2h.7v1.2h1.1v.6h-1.1v1.8c0,.3,0,.5.1.6,0,.1.2.2.4.2s.3,0,.3,0c0,0,.2-.1.3-.2l.3.4c-.2.1-.3.3-.5.3-.2,0-.4.1-.6.1-.4,0-.7-.1-.9-.3-.2-.2-.3-.6-.3-1ZM51,216.6v-.8h.8v.8h-.8ZM51,221v-3.7h.7v3.7h-.7ZM54.5,221.1c-.4,0-.7,0-1-.3-.3-.2-.5-.4-.7-.7-.2-.3-.2-.6-.2-1s0-.7.2-1c.2-.3.4-.5.7-.7.3-.2.6-.3,1-.3s.7,0,1,.3c.3.2.5.4.7.7s.3.6.3,1,0,.7-.3,1c-.2.3-.4.5-.7.7-.3.2-.6.3-1,.3ZM54.5,220.5c.3,0,.5,0,.7-.2.2-.1.3-.3.4-.5.1-.2.2-.4.2-.6s0-.4-.2-.6c0-.2-.2-.4-.4-.5-.2-.1-.4-.2-.7-.2s-.5,0-.7.2c-.2.1-.3.3-.4.5,0,.2-.1.4-.1.6s0,.4.2.6c.1.2.2.4.4.5.2.1.4.2.7.2ZM58,221h-.7v-3.3h0c0-.2,0-.3,0-.4h.7v.6c0,0,.2-.2.3-.3.1-.1.2-.2.4-.3.2,0,.4-.1.6-.1.5,0,.8.1,1.1.4.2.3.4.7.4,1.1v2.2h-.7v-2.2c0-.3,0-.6-.2-.8-.1-.2-.4-.2-.6-.2s-.5,0-.6.2c-.2.1-.3.3-.3.5,0,.2,0,.5,0,.7v1.7ZM63.2,221v-5.3h3.4v.7h-2.6v1.6h2v.7h-2v2.3h-.8ZM66.8,219.5v-2.2h.7v2.2c0,.3,0,.6.2.8.1.2.4.2.6.2s.5,0,.6-.2c.2-.1.3-.3.3-.5,0-.2.1-.5.1-.7v-1.7h.7v3.5c0,0,0,.1,0,.2h-.7v-.6c0,0-.2.2-.3.3-.1,0-.2.2-.4.2-.2,0-.4.1-.6.1-.5,0-.8-.1-1.1-.4-.2-.3-.3-.7-.3-1.1ZM71.8,221h-.7v-3.3h0c0-.2,0-.3,0-.4h.7v.6c0,0,.2-.2.3-.3.1-.1.2-.2.4-.3.2,0,.4-.1.6-.1.5,0,.8.1,1.1.4.2.3.4.7.4,1.1v2.2h-.7v-2.2c0-.3,0-.6-.2-.8-.1-.2-.4-.2-.6-.2s-.5,0-.6.2c-.2.1-.3.3-.3.5,0,.2,0,.5,0,.7v1.7ZM78.2,221v-.5c0,0-.1.1-.2.2,0,0-.2.2-.4.3-.2,0-.4.1-.6.1s-.6,0-.8-.2c-.3-.2-.4-.4-.6-.7s-.2-.6-.2-1,0-.7.2-.9c.1-.3.3-.5.5-.6.2-.2.4-.3.6-.4.2,0,.4-.1.6-.1s.4,0,.5,0c.1,0,.3.1.4.2v-1.8h.7v5.1c0,0,0,.1,0,.2h-.7ZM78.2,219.4v-1.3c0,0-.2-.1-.4-.2-.1,0-.3,0-.5,0-.3,0-.6.1-.9.4-.2.2-.3.6-.3,1s0,.5.1.6c0,.2.2.4.4.5.2.1.4.2.6.2s.5,0,.6-.2c.2-.1.3-.3.3-.4,0-.2.1-.3.1-.5ZM85.4,219.6l.5.4c0,.1-.2.3-.4.4-.2.2-.4.3-.7.4-.3.1-.6.2-1,.2s-1-.1-1.4-.4c-.4-.2-.7-.6-.9-1-.2-.4-.3-.9-.3-1.4s0-.8.2-1.1c.1-.3.3-.6.5-.9.2-.3.5-.5.8-.6.3-.1.7-.2,1.1-.2s.7,0,1,.2c.3.1.5.3.7.4.2.2.3.3.4.5l-.5.5c0-.1-.2-.2-.3-.4-.1-.1-.3-.2-.5-.3-.2,0-.4-.1-.7-.1s-.7,0-1,.3c-.3.2-.5.4-.6.8-.1.3-.2.7-.2,1.1s0,.7.2,1c.2.3.4.6.6.8.3.2.6.3,1,.3s.6,0,.8-.2c.2-.1.4-.2.5-.3.1-.1.2-.2.3-.3ZM87.3,221h-.7v-3.4h0c0-.2,0-.3,0-.4h.7v.6c0,0,.2-.2.3-.3.1-.1.2-.2.4-.3.2,0,.4-.1.6-.1s.2,0,.2,0c0,0,.1,0,.2,0l-.2.7c0,0-.2,0-.4,0s-.4,0-.6.2c-.2.1-.3.2-.4.4s-.1.4-.1.6v2ZM92.3,220l.4.4c0,0-.1.1-.3.3-.1.1-.3.2-.5.3-.2,0-.5.1-.8.1s-.7,0-1-.2c-.3-.2-.5-.4-.7-.7-.2-.3-.2-.7-.2-1s0-.7.2-1c.2-.3.4-.5.7-.7.3-.2.6-.3,1-.3s.8.1,1,.3c.3.2.5.5.6.8.1.3.2.7.2,1.1h-2.9c0,.2,0,.4.2.6.1.2.3.3.4.4.2,0,.4.1.6.1.3,0,.6,0,.8-.2.2-.1.4-.2.4-.3ZM89.9,218.8h2.2c0-.3-.1-.5-.3-.7-.2-.2-.4-.3-.8-.3s-.4,0-.6.2c-.2.1-.3.2-.4.4,0,.2-.1.3-.1.5ZM96.3,221v-.5c0,0-.1.1-.2.2,0,0-.2.2-.4.3-.2,0-.4.1-.6.1s-.6,0-.8-.2c-.3-.2-.4-.4-.6-.7-.1-.3-.2-.6-.2-1s0-.7.2-.9c.1-.3.3-.5.5-.6s.4-.3.6-.4c.2,0,.4-.1.6-.1s.4,0,.5,0c.1,0,.3.1.4.2v-1.8h.7v5.1c0,0,0,.1,0,.2h-.7ZM96.3,219.4v-1.3c0,0-.2-.1-.4-.2-.1,0-.3,0-.5,0-.3,0-.6.1-.9.4-.2.2-.3.6-.3,1s0,.5.1.6c0,.2.2.4.4.5.2.1.4.2.6.2s.5,0,.6-.2c.2-.1.3-.3.3-.4,0-.2.1-.3.1-.5ZM98,216.6v-.8h.8v.8h-.8ZM98.1,221v-3.7h.7v3.7h-.7ZM100.1,219.8v-1.9h-.7v-.6h.7v-1.2h.7v1.2h1.1v.6h-1.1v1.8c0,.3,0,.5.1.6,0,.1.2.2.4.2s.3,0,.3,0c0,0,.2-.1.3-.2l.3.4c-.2.1-.3.3-.5.3-.2,0-.4.1-.6.1-.4,0-.7-.1-.9-.3-.2-.2-.3-.6-.3-1ZM102.8,216.6v-.8h.8v.8h-.8ZM102.9,221v-3.7h.7v3.7h-.7ZM105.4,221h-.7v-3.3h0c0-.2,0-.3,0-.4h.7v.6c0,0,.2-.2.3-.3.1-.1.2-.2.4-.3.2,0,.4-.1.6-.1.5,0,.8.1,1.1.4.2.3.4.7.4,1.1v2.2h-.7v-2.2c0-.3,0-.6-.2-.8-.2-.2-.4-.2-.6-.2s-.5,0-.6.2c-.2.1-.3.3-.3.5,0,.2,0,.5,0,.7v1.7ZM109.1,222.3l.3-.5c.1,0,.3.2.4.2.2,0,.4,0,.7,0s.6,0,.8-.3.3-.5.3-.8v-.5s-.1.1-.2.2c0,0-.2.1-.4.2-.1,0-.3,0-.6,0-.4,0-.7,0-.9-.2-.2-.2-.4-.4-.6-.7-.1-.3-.2-.6-.2-1s0-.7.3-1c.2-.3.4-.5.7-.7.3-.2.7-.3,1.1-.3s.6,0,.8,0c.3,0,.5.1.6.2v3.6c0,.5-.2.9-.5,1.2-.3.3-.8.4-1.3.4s-.7,0-.9-.1c-.2,0-.4-.2-.5-.3ZM111.7,219.5v-1.5s-.1,0-.2,0c-.1,0-.3,0-.5,0s-.5,0-.7.2c-.2.1-.4.3-.5.5-.1.2-.2.4-.2.7s0,.4.1.6c0,.2.2.3.4.4.2.1.4.2.6.2s.4,0,.6-.1c.2,0,.3-.2.3-.3,0-.1.1-.3.1-.4ZM114.9,221v-5.3h1.7c.5,0,.8,0,1.1.2.3.2.5.4.6.6.1.2.2.5.2.7s0,.6-.2.9c-.2.3-.4.5-.7.6l1.2,2.3h-.9l-1.1-2.2h-1.1v2.2h-.7ZM115.7,218.2h1c.3,0,.6,0,.8-.2.2-.2.3-.4.3-.7s0-.5-.3-.7c-.2-.2-.4-.2-.8-.2h-1v1.8ZM121.7,221v-.4c-.1.2-.3.3-.6.4-.2,0-.5.1-.7.1s-.4,0-.6-.1c-.2,0-.4-.2-.5-.4-.1-.2-.2-.4-.2-.7s.1-.7.4-1c.3-.2.7-.4,1.2-.4s.2,0,.4,0c.1,0,.2,0,.3,0,.1,0,.2,0,.2,0h0c0-.4,0-.6-.3-.7-.2-.1-.4-.2-.7-.2s-.5,0-.7.1c-.2,0-.3.2-.4.2l-.3-.5c.1-.1.3-.2.6-.3.2-.1.6-.2,1-.2s.9.1,1.1.4c.3.2.4.6.4,1v2.2h0c0,.2,0,.3,0,.3h-.7ZM121.7,219.7v-.4s0,0-.2,0c0,0-.2,0-.3,0-.1,0-.2,0-.3,0-.3,0-.5,0-.6.1-.1,0-.2.2-.3.3,0,.1,0,.2,0,.3,0,.2,0,.3.2.5.1.1.3.2.6.2s.4,0,.5-.1c.2,0,.3-.2.4-.3.1-.1.2-.3.2-.4ZM123.7,219.8v-1.9h-.7v-.6h.7v-1.2h.7v1.2h1.1v.6h-1.1v1.8c0,.3,0,.5.1.6,0,.1.2.2.4.2s.3,0,.3,0c0,0,.2-.1.3-.2l.3.4c-.2.1-.3.3-.5.3-.2,0-.4.1-.6.1-.4,0-.7-.1-.9-.3-.2-.2-.3-.6-.3-1ZM129.2,220l.4.4c0,0-.1.1-.3.3-.1.1-.3.2-.5.3-.2,0-.5.1-.8.1s-.7,0-1-.2c-.3-.2-.5-.4-.7-.7-.2-.3-.2-.7-.2-1s0-.7.2-1c.2-.3.4-.5.7-.7.3-.2.6-.3,1-.3s.8.1,1,.3c.3.2.5.5.6.8.1.3.2.7.2,1.1h-2.9c0,.2,0,.4.2.6.1.2.3.3.4.4.2,0,.4.1.6.1.3,0,.6,0,.8-.2.2-.1.4-.2.4-.3ZM126.7,218.8h2.2c0-.3-.1-.5-.3-.7-.2-.2-.4-.3-.8-.3s-.4,0-.6.2c-.2.1-.3.2-.4.4,0,.2-.1.3-.1.5ZM131.7,220.2l.5-.5c.1.1.2.2.4.3.1.1.3.2.5.3.2,0,.4.1.6.1.4,0,.6,0,.8-.2.2-.2.3-.4.3-.6s-.1-.5-.3-.7c-.2-.1-.5-.3-1-.4-.5,0-.8-.3-1.1-.5-.3-.3-.4-.6-.4-1s0-.5.2-.7c.1-.2.3-.4.6-.5.3-.1.6-.2,1-.2s.6,0,.9.1c.2,0,.4.2.5.3.1.1.2.2.3.3l-.5.5c0,0-.1-.1-.2-.2-.1,0-.2-.2-.4-.2-.2,0-.3-.1-.6-.1s-.4,0-.6.1c-.1,0-.3.2-.3.3,0,.1-.1.2-.1.4,0,.3.1.5.3.6.2.1.5.2.9.3.3,0,.5.2.8.3.2.1.4.3.6.5.2.2.2.5.2.9s0,.6-.2.8c-.2.2-.4.4-.7.6-.3.1-.6.2-1,.2s-.6,0-.9-.1c-.3,0-.5-.2-.7-.4-.2-.1-.3-.3-.4-.4ZM136.4,219.5v-2.2h.7v2.2c0,.3,0,.6.2.8s.4.2.6.2.5,0,.6-.2c.2-.1.3-.3.3-.5,0-.2.1-.5.1-.7v-1.7h.7v3.5c0,0,0,.1,0,.2h-.7v-.6c0,0-.2.2-.3.3-.1,0-.2.2-.4.2-.2,0-.4.1-.6.1-.5,0-.8-.1-1.1-.4-.2-.3-.3-.7-.3-1.1ZM141.5,221h-.7v-3.4h0c0-.2,0-.3,0-.4h.7v.6c0,0,.2-.2.3-.3.1-.1.2-.2.4-.3s.4-.1.6-.1.2,0,.2,0c0,0,.1,0,.2,0l-.2.7c0,0-.2,0-.4,0s-.4,0-.6.2c-.2.1-.3.2-.4.4,0,.2-.1.4-.1.6v2ZM144.8,221l-1.6-3.7h.8l1.2,2.9,1.2-2.9h.8l-1.6,3.7h-.7ZM150.5,220l.4.4c0,0-.1.1-.3.3-.1.1-.3.2-.5.3-.2,0-.5.1-.8.1s-.7,0-1-.2c-.3-.2-.5-.4-.7-.7-.2-.3-.2-.7-.2-1s0-.7.2-1c.2-.3.4-.5.7-.7.3-.2.6-.3,1-.3s.8.1,1,.3c.3.2.5.5.6.8.1.3.2.7.2,1.1h-2.9c0,.2,0,.4.2.6.1.2.3.3.4.4.2,0,.4.1.6.1.3,0,.6,0,.8-.2.2-.1.4-.2.4-.3ZM148,218.8h2.2c0-.3-.1-.5-.3-.7-.2-.2-.4-.3-.8-.3s-.4,0-.6.2c-.2.1-.3.2-.4.4,0,.2-.1.3-.1.5ZM151.3,222.4l.3-.5c0,0,.1,0,.2.1,0,0,.2,0,.3,0,.2,0,.3,0,.4-.2,0-.1.2-.4.3-.7v-.2c0,0-1.6-3.7-1.6-3.7h.8l1.2,2.8,1.1-2.8h.8l-1.5,3.6c0,.2-.1.3-.2.6,0,.2-.2.4-.3.6-.1.2-.2.3-.4.5-.2.1-.3.2-.6.2s-.3,0-.5,0c-.1,0-.2-.1-.3-.2ZM156.6,219.1v-.7h4v.7h-4ZM162.3,220.2l.5-.5c.1.1.2.2.4.3.1.1.3.2.5.3.2,0,.4.1.6.1.4,0,.6,0,.8-.2.2-.2.3-.4.3-.6s-.1-.5-.3-.7c-.2-.1-.5-.3-1-.4-.5,0-.8-.3-1.1-.5-.3-.3-.4-.6-.4-1s0-.5.2-.7c.1-.2.3-.4.6-.5.3-.1.6-.2,1-.2s.6,0,.9.1c.2,0,.4.2.5.3.1.1.2.2.3.3l-.5.5c0,0-.1-.1-.2-.2-.1,0-.2-.2-.4-.2-.2,0-.3-.1-.6-.1s-.4,0-.6.1c-.1,0-.2.2-.3.3,0,.1-.1.2-.1.4,0,.3.1.5.3.6.2.1.5.2.9.3.3,0,.5.2.8.3.2.1.4.3.6.5.2.2.2.5.2.9s0,.6-.2.8c-.2.2-.4.4-.7.6-.3.1-.6.2-1,.2s-.6,0-.9-.1c-.3,0-.5-.2-.7-.4-.2-.1-.3-.3-.4-.4ZM167.3,221v-5.3h1.7c.5,0,.8,0,1.1.2s.5.4.6.6c.1.2.2.5.2.7s0,.6-.2.9-.4.5-.7.6l1.2,2.3h-.9l-1.1-2.2h-1.1v2.2h-.7ZM168,218.2h1c.3,0,.6,0,.8-.2.2-.2.3-.4.3-.7s0-.5-.3-.7c-.2-.2-.4-.2-.8-.2h-1v1.8ZM171.7,220.6l.4-.5c.2.1.3.2.5.3.2,0,.4.1.7.1.4,0,.7-.1.8-.3.2-.2.3-.5.3-.8s0-.3,0-.4c0-.2-.2-.3-.3-.4-.2-.1-.4-.2-.7-.2s-.4,0-.5,0c-.1,0-.2,0-.4.1l-.4-.3.5-2.4h2.5v.7h-2l-.2,1.3c0,0,.1,0,.3,0,.1,0,.3,0,.4,0,.5,0,.9.1,1.2.4.3.3.5.7.5,1.2s0,.6-.2.9c-.1.3-.3.5-.6.6-.3.2-.6.2-1.1.2s-.7,0-.9-.2c-.2-.1-.5-.2-.6-.4ZM177.9,221.1c-.4,0-.8-.1-1.1-.3-.3-.2-.5-.5-.6-.9-.1-.4-.2-.9-.2-1.4s0-1,.2-1.4c.1-.4.4-.7.6-.9.3-.2.6-.3,1.1-.3s.8.1,1,.3c.3.2.5.5.6.9.1.4.2.9.2,1.4s0,1-.2,1.4c-.1.4-.4.7-.7.9-.3.2-.6.3-1,.3ZM177.9,220.4c.3,0,.5,0,.6-.3.2-.2.3-.4.4-.7,0-.3.1-.7.1-1.1,0-.6-.1-1.1-.3-1.4-.2-.4-.5-.5-.9-.5s-.7.2-.9.5c-.2.4-.3.8-.3,1.4s0,.8.1,1.1c0,.3.2.5.4.7s.4.3.6.3ZM182.2,221v-5.3h1.8c.4,0,.7,0,.9.2.2.1.4.3.5.5.1.2.2.4.2.7s0,.4-.1.6c0,.2-.2.3-.4.4-.1,0-.3.2-.4.2.1,0,.2,0,.4.1.1,0,.3.1.4.2.1,0,.2.2.3.4,0,.2.1.4.1.6,0,.4,0,.7-.3.9-.2.2-.4.4-.7.5-.3,0-.6.1-1,.1h-1.7ZM182.9,217.9h1c.2,0,.3,0,.5,0,.2,0,.3-.1.4-.3.1-.1.2-.3.2-.5s0-.4-.2-.5c0-.1-.2-.2-.4-.2-.1,0-.3,0-.5,0h-1v1.6ZM182.9,220.3h.9c.1,0,.3,0,.4,0,.1,0,.3,0,.4-.1.1,0,.2-.1.3-.3,0-.1.1-.3.1-.5s0-.4-.2-.6c-.1-.1-.3-.2-.5-.3-.2,0-.4,0-.6,0h-1v1.8ZM189.1,221v-.4c-.1.2-.3.3-.6.4-.2,0-.5.1-.7.1s-.4,0-.6-.1c-.2,0-.4-.2-.5-.4-.1-.2-.2-.4-.2-.7s.1-.7.4-1c.3-.2.7-.4,1.2-.4s.2,0,.4,0c.1,0,.2,0,.3,0,.1,0,.2,0,.2,0h0c0-.4,0-.6-.3-.7-.2-.1-.4-.2-.7-.2s-.5,0-.7.1c-.2,0-.3.2-.4.2l-.3-.5c.1-.1.3-.2.6-.3.2-.1.6-.2,1-.2s.9.1,1.1.4c.3.2.4.6.4,1v2.2h0c0,.2,0,.3,0,.3h-.7ZM189.1,219.7v-.4s0,0-.2,0c0,0-.2,0-.3,0-.1,0-.2,0-.3,0-.3,0-.5,0-.6.1-.1,0-.2.2-.3.3,0,.1,0,.2,0,.3,0,.2,0,.3.2.5.1.1.3.2.6.2s.4,0,.5-.1c.2,0,.3-.2.4-.3.1-.1.2-.3.2-.4ZM190.8,221v-5.3h.7v5.3h-.7ZM194.8,221v-.4c-.1.2-.3.3-.6.4-.2,0-.5.1-.7.1s-.4,0-.6-.1c-.2,0-.4-.2-.5-.4-.1-.2-.2-.4-.2-.7s.1-.7.4-1c.3-.2.7-.4,1.2-.4s.2,0,.4,0c.1,0,.2,0,.3,0,.1,0,.2,0,.2,0h0c0-.4,0-.6-.3-.7-.2-.1-.4-.2-.7-.2s-.5,0-.7.1c-.2,0-.3.2-.4.2l-.3-.5c.1-.1.3-.2.6-.3.2-.1.6-.2,1-.2s.9.1,1.1.4c.3.2.4.6.4,1v2.2h0c0,.2,0,.3,0,.3h-.7ZM194.8,219.7v-.4s0,0-.2,0c0,0-.2,0-.3,0-.1,0-.2,0-.3,0-.3,0-.5,0-.6.1-.1,0-.2.2-.3.3,0,.1,0,.2,0,.3,0,.2,0,.3.2.5.1.1.3.2.6.2s.4,0,.5-.1c.2,0,.3-.2.4-.3.1-.1.2-.3.2-.4ZM197.2,221h-.7v-3.3h0c0-.2,0-.3,0-.4h.7v.6c0,0,.2-.2.3-.3.1-.1.2-.2.4-.3.2,0,.4-.1.6-.1.5,0,.8.1,1.1.4.2.3.4.7.4,1.1v2.2h-.7v-2.2c0-.3,0-.6-.2-.8-.2-.2-.4-.2-.6-.2s-.5,0-.6.2c-.2.1-.3.3-.3.5,0,.2,0,.5,0,.7v1.7ZM203.6,220l.4.5c-.2.2-.4.3-.6.5-.2.1-.5.2-.8.2s-.7,0-1-.3c-.3-.2-.5-.4-.7-.7-.2-.3-.2-.6-.2-1s0-.7.2-1c.2-.3.4-.5.7-.7.3-.2.6-.3,1-.3s.6,0,.8.2c.2.1.4.3.6.5l-.5.5c-.1-.1-.2-.2-.4-.3s-.3-.1-.6-.1-.5,0-.7.2c-.2.1-.3.3-.4.5,0,.2-.1.4-.1.7s0,.4.1.7c.1.2.2.4.4.5.2.1.4.2.7.2s.4,0,.6-.1c.2,0,.3-.2.4-.3ZM207.5,220l.4.4c0,0-.1.1-.3.3-.1.1-.3.2-.5.3-.2,0-.5.1-.8.1s-.7,0-1-.2c-.3-.2-.5-.4-.7-.7-.2-.3-.2-.7-.2-1s0-.7.2-1c.2-.3.4-.5.7-.7.3-.2.6-.3,1-.3s.8.1,1,.3c.3.2.5.5.6.8.1.3.2.7.2,1.1h-2.9c0,.2,0,.4.2.6.1.2.3.3.4.4.2,0,.4.1.6.1.3,0,.6,0,.8-.2.2-.1.4-.2.4-.3ZM205.1,218.8h2.2c0-.3-.1-.5-.3-.7s-.4-.3-.8-.3-.4,0-.6.2c-.2.1-.3.2-.4.4,0,.2-.1.3-.1.5ZM211.5,221v-.5c0,0-.1.1-.2.2,0,0-.2.2-.4.3-.2,0-.4.1-.6.1s-.6,0-.8-.2c-.3-.2-.4-.4-.6-.7-.1-.3-.2-.6-.2-1s0-.7.2-.9c.1-.3.3-.5.5-.6s.4-.3.6-.4c.2,0,.4-.1.6-.1s.4,0,.5,0c.1,0,.3.1.4.2v-1.8h.7v5.1c0,0,0,.1,0,.2h-.7ZM211.5,219.4v-1.3c0,0-.2-.1-.4-.2-.1,0-.3,0-.5,0-.3,0-.6.1-.9.4-.2.2-.3.6-.3,1s0,.5.1.6c0,.2.2.4.4.5.2.1.4.2.6.2s.5,0,.6-.2c.2-.1.3-.3.3-.4,0-.2.1-.3.1-.5ZM216.2,221.7h-.7c0-.2-.2-.4-.3-.7-.1-.3-.2-.7-.3-1.1,0-.4-.1-.9-.1-1.4s0-1,.1-1.4c0-.4.2-.8.3-1.1.1-.3.2-.5.3-.7h.7c-.1.2-.2.5-.3.8-.1.3-.2.7-.3,1.1,0,.4-.1.8-.1,1.3s0,.9.1,1.3c0,.4.2.8.3,1.1.1.3.2.6.3.8ZM220.3,216.2l-.3.6s-.1,0-.3-.1c-.2,0-.3-.1-.6-.1s-.6,0-.8.2c-.2.2-.4.4-.5.6-.1.3-.2.5-.2.8.1,0,.3-.2.5-.3.2,0,.4-.1.7-.1.5,0,.9.1,1.1.4.3.3.4.7.4,1.2s0,.6-.2.9c-.1.3-.3.4-.6.6-.2.1-.5.2-.9.2-.6,0-1-.2-1.3-.6-.3-.4-.5-1-.5-1.8s0-1.1.2-1.5c.2-.4.4-.8.7-1,.3-.2.7-.4,1.2-.4s.5,0,.7.1c.2,0,.4.2.5.2ZM217.7,218.8c0,.5,0,.9.2,1.2.2.3.4.4.8.4s.5,0,.7-.3c.2-.2.3-.5.3-.8s0-.5-.2-.7c-.1-.2-.4-.3-.7-.3s-.5,0-.6.1c-.2,0-.3.2-.5.3ZM223,221.1c-.4,0-.8-.1-1.1-.3-.3-.2-.5-.5-.6-.9-.1-.4-.2-.9-.2-1.4s0-1,.2-1.4c.1-.4.4-.7.6-.9.3-.2.6-.3,1.1-.3s.8.1,1,.3c.3.2.5.5.6.9.1.4.2.9.2,1.4s0,1-.2,1.4c-.1.4-.4.7-.7.9-.3.2-.6.3-1,.3ZM223,220.4c.3,0,.5,0,.6-.3.2-.2.3-.4.4-.7,0-.3.1-.7.1-1.1,0-.6-.1-1.1-.3-1.4-.2-.4-.5-.5-.9-.5s-.7.2-.9.5c-.2.4-.3.8-.3,1.4s0,.8.1,1.1c0,.3.2.5.4.7s.4.3.6.3ZM225.8,219.1v-.7h2.3v.7h-2.3ZM230.6,221h-.8c.1-.4.3-.8.4-1.2.2-.4.3-.8.5-1.3.2-.4.4-.8.5-1.1.2-.3.3-.6.4-.8h-2.5v-.7h3.2v.7c0,.1-.2.4-.3.6-.1.3-.3.6-.4.9-.1.3-.3.7-.4,1-.1.3-.3.7-.4,1-.1.3-.2.6-.3.9ZM236.9,216.2l-.3.6s-.1,0-.3-.1-.3-.1-.6-.1-.6,0-.8.2c-.2.2-.4.4-.5.6-.1.3-.2.5-.2.8.1,0,.3-.2.5-.3.2,0,.4-.1.7-.1.5,0,.9.1,1.1.4.3.3.4.7.4,1.2s0,.6-.2.9c-.1.3-.3.4-.6.6-.3.1-.5.2-.9.2-.6,0-1-.2-1.3-.6-.3-.4-.5-1-.5-1.8s0-1.1.2-1.5c.2-.4.4-.8.7-1,.3-.2.7-.4,1.2-.4s.5,0,.7.1c.2,0,.4.2.5.2ZM234.3,218.8c0,.5,0,.9.2,1.2.2.3.4.4.8.4s.5,0,.7-.3c.2-.2.3-.5.3-.8s0-.5-.2-.7c-.1-.2-.4-.3-.7-.3s-.5,0-.6.1c-.2,0-.3.2-.5.3ZM237.7,215.4h.7c0,.2.2.4.3.7.1.3.2.7.3,1.1,0,.4.1.9.1,1.4s0,1-.1,1.4c0,.4-.2.8-.3,1.1-.1.3-.2.5-.3.7h-.7c.1-.2.2-.5.3-.8.1-.3.2-.7.3-1.1,0-.4.1-.9.1-1.3s0-.9-.1-1.3c0-.4-.2-.8-.3-1.1-.1-.3-.2-.6-.3-.8ZM241.8,221v-5.3h.8v5.3h-.8ZM244.4,221h-.7v-3.3h0c0-.2,0-.3,0-.4h.7v.6c0,0,.2-.2.3-.3.1-.1.2-.2.4-.3.2,0,.4-.1.6-.1.5,0,.8.1,1.1.4.2.3.4.7.4,1.1v2.2h-.7v-2.2c0-.3,0-.6-.2-.8-.1-.2-.4-.2-.6-.2s-.5,0-.6.2c-.2.1-.3.3-.3.5,0,.2,0,.5,0,.7v1.7ZM250.7,221v-.5c0,0-.1.1-.2.2,0,0-.2.2-.4.3-.2,0-.4.1-.6.1s-.6,0-.8-.2c-.3-.2-.4-.4-.6-.7-.1-.3-.2-.6-.2-1s0-.7.2-.9c.1-.3.3-.5.5-.6s.4-.3.6-.4c.2,0,.4-.1.6-.1s.4,0,.5,0c.1,0,.3.1.4.2v-1.8h.7v5.1c0,0,0,.1,0,.2h-.7ZM250.7,219.4v-1.3c0,0-.2-.1-.4-.2-.1,0-.3,0-.5,0-.3,0-.6.1-.9.4-.2.2-.3.6-.3,1s0,.5.1.6c0,.2.2.4.4.5.2.1.4.2.6.2s.5,0,.6-.2c.2-.1.3-.3.3-.4,0-.2.1-.3.1-.5ZM255.4,220l.4.4c0,0-.1.1-.3.3-.1.1-.3.2-.5.3-.2,0-.5.1-.8.1s-.7,0-1-.2c-.3-.2-.5-.4-.7-.7-.2-.3-.2-.7-.2-1s0-.7.2-1c.2-.3.4-.5.7-.7.3-.2.6-.3,1-.3s.8.1,1,.3c.3.2.5.5.6.8.1.3.2.7.2,1.1h-2.9c0,.2,0,.4.2.6.1.2.3.3.4.4.2,0,.4.1.6.1.3,0,.6,0,.8-.2.2-.1.4-.2.4-.3ZM253,218.8h2.2c0-.3-.1-.5-.3-.7-.2-.2-.4-.3-.8-.3s-.4,0-.6.2c-.2.1-.3.2-.4.4,0,.2-.1.3-.1.5ZM256.2,221l1.4-1.9-1.3-1.8h.9l.9,1.2.9-1.2h.8l-1.3,1.7,1.5,2h-.9l-1-1.4-1,1.4h-.8ZM264.3,221v-.4c-.1.2-.3.3-.6.4-.2,0-.5.1-.7.1s-.4,0-.6-.1c-.2,0-.4-.2-.5-.4-.1-.2-.2-.4-.2-.7s.1-.7.4-1c.3-.2.7-.4,1.2-.4s.2,0,.4,0c.1,0,.2,0,.3,0,.1,0,.2,0,.2,0h0c0-.4,0-.6-.3-.7-.2-.1-.4-.2-.7-.2s-.5,0-.7.1c-.2,0-.3.2-.4.2l-.3-.5c.1-.1.3-.2.6-.3.2-.1.6-.2,1-.2s.9.1,1.1.4c.3.2.4.6.4,1v2.2h0c0,.2,0,.3,0,.3h-.7ZM264.3,219.7v-.4s0,0-.2,0c0,0-.2,0-.3,0-.1,0-.2,0-.3,0-.3,0-.5,0-.6.1-.1,0-.2.2-.3.3,0,.1,0,.2,0,.3,0,.2,0,.3.2.5.1.1.3.2.6.2s.4,0,.5-.1c.2,0,.3-.2.4-.3.1-.1.2-.3.2-.4ZM266.3,219.8v-1.9h-.7v-.6h.7v-1.2h.7v1.2h1.1v.6h-1.1v1.8c0,.3,0,.5.1.6,0,.1.2.2.4.2s.3,0,.3,0c0,0,.2-.1.3-.2l.3.4c-.2.1-.3.3-.5.3-.2,0-.4.1-.6.1-.4,0-.7-.1-.9-.3-.2-.2-.3-.6-.3-1ZM270.3,220.2l.5-.5c.1.1.2.2.4.3.1.1.3.2.5.3.2,0,.4.1.6.1.4,0,.6,0,.8-.2.2-.2.3-.4.3-.6s-.1-.5-.3-.7c-.2-.1-.5-.3-1-.4-.5,0-.8-.3-1.1-.5-.3-.3-.4-.6-.4-1s0-.5.2-.7c.1-.2.3-.4.6-.5.3-.1.6-.2,1-.2s.6,0,.9.1c.2,0,.4.2.5.3.1.1.2.2.3.3l-.5.5c0,0-.1-.1-.2-.2-.1,0-.2-.2-.4-.2-.2,0-.3-.1-.6-.1s-.4,0-.6.1c-.1,0-.3.2-.3.3,0,.1-.1.2-.1.4,0,.3.1.5.3.6.2.1.5.2.9.3.3,0,.5.2.8.3.2.1.4.3.6.5.2.2.2.5.2.9s0,.6-.2.8c-.2.2-.4.4-.7.6-.3.1-.6.2-1,.2s-.6,0-.9-.1c-.3,0-.5-.2-.7-.4-.2-.1-.3-.3-.4-.4ZM278.1,220l.4.4c0,0-.1.1-.3.3-.1.1-.3.2-.5.3-.2,0-.5.1-.8.1s-.7,0-1-.2c-.3-.2-.5-.4-.7-.7-.2-.3-.2-.7-.2-1s0-.7.2-1c.2-.3.4-.5.7-.7.3-.2.6-.3,1-.3s.8.1,1,.3c.3.2.5.5.6.8.1.3.2.7.2,1.1h-2.9c0,.2,0,.4.2.6.1.2.3.3.4.4.2,0,.4.1.6.1.3,0,.6,0,.8-.2.2-.1.4-.2.4-.3ZM275.6,218.8h2.2c0-.3-.1-.5-.3-.7s-.4-.3-.8-.3-.4,0-.6.2c-.2.1-.3.2-.4.4,0,.2-.1.3-.1.5ZM280.1,222.6h-.7v-4.9h0c0-.2,0-.3,0-.4h.7v.5c0,0,.2-.1.3-.2.1,0,.2-.2.4-.3.2,0,.4-.1.6-.1.4,0,.7,0,.9.3.3.2.4.4.6.7.1.3.2.6.2,1s0,.6-.2.9c-.1.2-.3.4-.4.6-.2.2-.4.3-.6.4-.2,0-.4.1-.7.1s-.5,0-.6,0c-.1,0-.3-.1-.4-.2v1.7ZM280.1,219.2v1c0,0,.2.1.4.2s.4,0,.6,0,.5,0,.6-.2c.2-.1.3-.3.4-.5.1-.2.2-.4.2-.7s0-.5-.1-.7c0-.2-.2-.4-.3-.5s-.4-.2-.6-.2-.5,0-.7.2c-.2.1-.3.3-.4.6,0,0,0,.2,0,.3,0,0,0,.2,0,.3ZM284.2,219.8v-1.9h-.7v-.6h.7v-1.2h.7v1.2h1.1v.6h-1.1v1.8c0,.3,0,.5.1.6,0,.1.2.2.4.2s.3,0,.3,0c0,0,.2-.1.3-.2l.3.4c-.2.1-.3.3-.5.3-.2,0-.4.1-.6.1-.4,0-.7-.1-.9-.3-.2-.2-.3-.6-.3-1ZM13,228v-.5c0-.3,0-.5.2-.7.1-.2.3-.4.5-.6.2-.2.5-.4.7-.6.2-.2.4-.3.5-.5.2-.1.3-.3.4-.4,0-.1.1-.3.1-.5s0-.2,0-.3c0-.1-.1-.2-.3-.3-.1,0-.3-.1-.5-.1s-.4,0-.5.1c-.1,0-.2.1-.3.2,0,0-.2.2-.2.3l-.5-.4c0-.1.2-.3.3-.4.1-.1.3-.3.5-.3.2,0,.5-.1.8-.1s.7,0,.9.2c.2.1.4.3.5.5s.2.4.2.7,0,.5-.2.7c-.1.2-.2.4-.4.6-.2.2-.4.3-.5.5-.3.3-.6.5-.9.7-.2.2-.3.5-.3.7h2.4v.7h-3.2ZM19,228.1c-.4,0-.8-.1-1.1-.3-.3-.2-.5-.5-.6-.9-.1-.4-.2-.9-.2-1.4s0-1,.2-1.4c.1-.4.4-.7.6-.9.3-.2.6-.3,1.1-.3s.8.1,1,.3c.3.2.5.5.6.9.1.4.2.9.2,1.4s0,1-.2,1.4-.4.7-.7.9c-.3.2-.6.3-1,.3ZM19,227.4c.3,0,.5,0,.6-.3s.3-.4.4-.7c0-.3.1-.7.1-1.1,0-.6-.1-1.1-.3-1.4-.2-.4-.5-.5-.9-.5s-.7.2-.9.5c-.2.4-.3.8-.3,1.4s0,.8.1,1.1c0,.3.2.5.4.7s.4.3.6.3ZM21.7,228v-.5c0-.3,0-.5.2-.7.1-.2.3-.4.5-.6.2-.2.5-.4.7-.6.2-.2.4-.3.5-.5.2-.1.3-.3.4-.4,0-.1.1-.3.1-.5s0-.2,0-.3c0-.1-.1-.2-.3-.3-.1,0-.3-.1-.5-.1s-.4,0-.5.1c-.1,0-.2.1-.3.2,0,0-.2.2-.2.3l-.5-.4c0-.1.2-.3.3-.4.1-.1.3-.3.5-.3.2,0,.5-.1.8-.1s.7,0,.9.2c.2.1.4.3.5.5.1.2.2.4.2.7s0,.5-.2.7c-.1.2-.2.4-.4.6-.2.2-.4.3-.5.5-.3.3-.6.5-.9.7-.2.2-.3.5-.3.7h2.4v.7h-3.2ZM25.8,227.6l.4-.5c.1.1.3.2.5.3.2,0,.4.1.7.1.4,0,.7-.1.8-.3.2-.2.3-.5.3-.8s0-.3,0-.4c0-.2-.2-.3-.3-.4-.2-.1-.4-.2-.7-.2s-.4,0-.5,0c-.1,0-.2,0-.4.1l-.4-.3.5-2.4h2.5v.7h-2l-.2,1.3c0,0,.1,0,.3,0,.1,0,.3,0,.4,0,.5,0,.9.1,1.2.4.3.3.5.7.5,1.2s0,.6-.2.9c-.1.3-.3.5-.6.6-.3.2-.6.2-1.1.2s-.7,0-.9-.2c-.2-.1-.5-.2-.6-.4ZM30.5,228v-.9h.9v.9h-.9ZM36.7,226v-.7h1.9v2.1c-.2.2-.5.3-.8.5-.3.1-.8.2-1.3.2s-1-.1-1.4-.4c-.4-.2-.7-.6-.9-1-.2-.4-.3-.9-.3-1.4s0-.8.2-1.1c.1-.3.3-.6.5-.9.2-.3.5-.5.8-.6.3-.1.7-.2,1.1-.2s.7,0,1,.2c.3.1.5.3.7.4.2.2.3.3.4.5l-.5.5c0-.1-.2-.2-.3-.4-.1-.1-.3-.2-.5-.3-.2,0-.4-.1-.7-.1-.4,0-.7,0-1,.3-.3.2-.5.4-.7.8-.1.3-.2.7-.2,1.1s0,.8.2,1.1c.2.3.4.6.7.7.3.2.6.3,1,.3s.6,0,.8-.1c.2,0,.4-.2.6-.3v-1.1h-1.1ZM42.6,227l.4.4c0,0-.1.1-.3.3-.1.1-.3.2-.5.3-.2,0-.5.1-.8.1s-.7,0-1-.2c-.3-.2-.5-.4-.7-.7-.2-.3-.2-.7-.2-1s0-.7.2-1c.2-.3.4-.5.7-.7.3-.2.6-.3,1-.3s.8.1,1,.3c.3.2.5.5.6.8.1.3.2.7.2,1.1h-2.9c0,.2,0,.4.2.6.1.2.3.3.4.4.2,0,.4.1.6.1.3,0,.6,0,.8-.2.2-.1.4-.2.4-.3ZM40.2,225.8h2.2c0-.3-.1-.5-.3-.7-.2-.2-.4-.3-.8-.3s-.4,0-.6.2c-.2.1-.3.2-.4.4,0,.2-.1.3-.1.5ZM44.6,228h-.7v-3.3h0c0-.2,0-.3,0-.4h.7v.6c0,0,.2-.2.3-.3.1-.1.2-.2.4-.3.2,0,.4-.1.6-.1.5,0,.8.1,1.1.4.2.3.4.7.4,1.1v2.2h-.7v-2.2c0-.3,0-.6-.2-.8-.1-.2-.4-.2-.6-.2s-.5,0-.6.2c-.2.1-.3.3-.3.5,0,.2,0,.5,0,.7v1.7ZM51.3,227l.4.4c0,0-.1.1-.3.3-.1.1-.3.2-.5.3-.2,0-.5.1-.8.1s-.7,0-1-.2c-.3-.2-.5-.4-.7-.7-.2-.3-.2-.7-.2-1s0-.7.2-1c.2-.3.4-.5.7-.7.3-.2.6-.3,1-.3s.8.1,1,.3c.3.2.5.5.6.8.1.3.2.7.2,1.1h-2.9c0,.2,0,.4.2.6.1.2.3.3.4.4.2,0,.4.1.6.1.3,0,.6,0,.8-.2.2-.1.4-.2.4-.3ZM48.8,225.8h2.2c0-.3-.1-.5-.3-.7-.2-.2-.4-.3-.8-.3s-.4,0-.6.2c-.2.1-.3.2-.4.4,0,.2-.1.3-.1.5ZM53.3,228h-.7v-3.4h0c0-.2,0-.3,0-.4h.7v.6c0,0,.2-.2.3-.3.1-.1.2-.2.4-.3s.4-.1.6-.1.2,0,.2,0c0,0,.1,0,.2,0l-.2.7c0,0-.2,0-.4,0s-.4,0-.6.2c-.2.1-.3.2-.4.4s-.1.4-.1.6v2ZM57.7,228v-.4c-.1.2-.3.3-.6.4-.2,0-.5.1-.7.1s-.4,0-.6-.1c-.2,0-.4-.2-.5-.4-.1-.2-.2-.4-.2-.7s.1-.7.4-1c.3-.2.7-.4,1.2-.4s.2,0,.4,0c.1,0,.2,0,.3,0,.1,0,.2,0,.2,0h0c0-.4,0-.6-.3-.7-.2-.1-.4-.2-.7-.2s-.5,0-.7.1c-.2,0-.3.2-.4.2l-.3-.5c.1-.1.3-.2.6-.3.2-.1.6-.2,1-.2s.9.1,1.1.4c.3.2.4.6.4,1v2.2h0c0,.2,0,.3,0,.3h-.7ZM57.7,226.7v-.4s0,0-.2,0c0,0-.2,0-.3,0-.1,0-.2,0-.3,0-.3,0-.5,0-.6.1-.1,0-.2.2-.3.3,0,.1,0,.2,0,.3,0,.2,0,.3.2.5.1.1.3.2.6.2s.4,0,.5-.1c.2,0,.3-.2.4-.3.1-.1.2-.3.2-.4ZM59.3,228v-5.3h.7v5.3h-.7ZM64.8,228v-.4c-.1.2-.3.3-.6.4-.2,0-.5.1-.7.1s-.4,0-.6-.1c-.2,0-.4-.2-.5-.4-.1-.2-.2-.4-.2-.7s.1-.7.4-1c.3-.2.7-.4,1.2-.4s.2,0,.4,0c.1,0,.2,0,.3,0,.1,0,.2,0,.2,0h0c0-.4,0-.6-.3-.7-.2-.1-.4-.2-.7-.2s-.5,0-.7.1c-.2,0-.3.2-.4.2l-.3-.5c.1-.1.3-.2.6-.3.2-.1.6-.2,1-.2s.9.1,1.1.4c.3.2.4.6.4,1v2.2h0c0,.2,0,.3,0,.3h-.7ZM64.8,226.7v-.4s0,0-.2,0c0,0-.2,0-.3,0-.1,0-.2,0-.3,0-.3,0-.5,0-.6.1-.1,0-.2.2-.3.3,0,.1,0,.2,0,.3,0,.2,0,.3.2.5.1.1.3.2.6.2s.4,0,.5-.1c.2,0,.3-.2.4-.3.1-.1.2-.3.2-.4ZM69.2,228v-.5c0,0-.1.1-.2.2,0,0-.2.2-.4.3-.2,0-.4.1-.6.1s-.6,0-.8-.2c-.3-.2-.4-.4-.6-.7s-.2-.6-.2-1,0-.7.2-.9c.1-.3.3-.5.5-.6.2-.2.4-.3.6-.4.2,0,.4-.1.6-.1s.4,0,.5,0c.1,0,.3.1.4.2v-1.8h.7v5.1c0,0,0,.1,0,.2h-.7ZM69.2,226.4v-1.3c0,0-.2-.1-.4-.2-.1,0-.3,0-.5,0-.3,0-.6.1-.9.4-.2.2-.3.6-.3,1s0,.5.1.6c0,.2.2.4.4.5.2.1.4.2.6.2s.5,0,.6-.2c.2-.1.3-.3.3-.4,0-.2.1-.3.1-.5ZM72,228l-1.6-3.7h.8l1.2,2.9,1.2-2.9h.8l-1.6,3.7h-.7ZM74.9,223.6v-.8h.8v.8h-.8ZM74.9,228v-3.7h.7v3.7h-.7ZM79.5,227l.4.5c-.2.2-.4.3-.6.5-.2.1-.5.2-.8.2s-.7,0-1-.3c-.3-.2-.5-.4-.7-.7-.2-.3-.2-.6-.2-1s0-.7.2-1c.2-.3.4-.5.7-.7.3-.2.6-.3,1-.3s.6,0,.8.2c.2.1.4.3.6.5l-.5.5c-.1-.1-.2-.2-.4-.3-.2,0-.3-.1-.6-.1s-.5,0-.7.2c-.2.1-.3.3-.4.5s-.1.4-.1.7,0,.4.1.7c.1.2.2.4.4.5.2.1.4.2.7.2s.4,0,.6-.1c.2,0,.3-.2.4-.3ZM83.4,227l.4.4c0,0-.1.1-.3.3-.1.1-.3.2-.5.3-.2,0-.5.1-.8.1s-.7,0-1-.2c-.3-.2-.5-.4-.7-.7-.2-.3-.2-.7-.2-1s0-.7.2-1c.2-.3.4-.5.7-.7.3-.2.6-.3,1-.3s.8.1,1,.3c.3.2.5.5.6.8.1.3.2.7.2,1.1h-2.9c0,.2,0,.4.2.6.1.2.3.3.4.4.2,0,.4.1.6.1.3,0,.6,0,.8-.2.2-.1.4-.2.4-.3ZM80.9,225.8h2.2c0-.3-.1-.5-.3-.7-.2-.2-.4-.3-.8-.3s-.4,0-.6.2c-.2.1-.3.2-.4.4,0,.2-.1.3-.1.5ZM87.9,228.1c-.4,0-.7,0-1-.3-.3-.2-.5-.4-.7-.7-.2-.3-.2-.6-.2-1s0-.7.2-1c.2-.3.4-.5.7-.7.3-.2.6-.3,1-.3s.7,0,1,.3c.3.2.5.4.7.7s.3.6.3,1,0,.7-.3,1c-.2.3-.4.5-.7.7-.3.2-.6.3-1,.3ZM87.9,227.5c.3,0,.5,0,.7-.2.2-.1.3-.3.4-.5.1-.2.2-.4.2-.6s0-.4-.2-.6c0-.2-.2-.4-.4-.5-.2-.1-.4-.2-.7-.2s-.5,0-.7.2c-.2.1-.3.3-.4.5,0,.2-.1.4-.1.6s0,.4.2.6c.1.2.2.4.4.5.2.1.4.2.7.2ZM91.4,228h-.7v-3.3h0c0-.2,0-.3,0-.4h.7v.6c0,0,.2-.2.3-.3.1-.1.2-.2.4-.3.2,0,.4-.1.6-.1.5,0,.8.1,1.1.4.2.3.4.7.4,1.1v2.2h-.7v-2.2c0-.3,0-.6-.2-.8-.1-.2-.4-.2-.6-.2s-.5,0-.6.2c-.2.1-.3.3-.3.5,0,.2,0,.5,0,.7v1.7ZM95,228v-5.3h.7v5.3h-.7ZM96.4,229.4l.3-.5c0,0,.1,0,.2.1,0,0,.2,0,.3,0,.2,0,.3,0,.4-.2,0-.1.2-.4.3-.7v-.2c0,0-1.6-3.7-1.6-3.7h.8l1.2,2.8,1.1-2.8h.8l-1.5,3.6c0,.2-.1.3-.2.6,0,.2-.2.4-.3.6-.1.2-.2.3-.4.5-.2.1-.3.2-.6.2s-.3,0-.5,0c-.1,0-.2-.1-.3-.2ZM100.2,228v-.9h.9v.9h-.9ZM107.7,226.6l.5.4c0,.1-.2.3-.4.4-.2.2-.4.3-.7.4-.3.1-.6.2-1,.2s-1-.1-1.4-.4c-.4-.2-.7-.6-.9-1-.2-.4-.3-.9-.3-1.4s0-.8.2-1.1c.1-.3.3-.6.5-.9.2-.3.5-.5.8-.6.3-.1.7-.2,1.1-.2s.7,0,1,.2c.3.1.5.3.7.4.2.2.3.3.4.5l-.5.5c0-.1-.2-.2-.3-.4-.1-.1-.3-.2-.5-.3-.2,0-.4-.1-.7-.1s-.7,0-1,.3c-.3.2-.5.4-.6.8-.1.3-.2.7-.2,1.1s0,.7.2,1c.2.3.4.6.6.8.3.2.6.3,1,.3s.6,0,.8-.2c.2-.1.4-.2.5-.3.1-.1.2-.2.3-.3ZM110.6,228.1c-.4,0-.7,0-1-.3-.3-.2-.5-.4-.7-.7-.2-.3-.2-.6-.2-1s0-.7.2-1c.2-.3.4-.5.7-.7.3-.2.6-.3,1-.3s.7,0,1,.3c.3.2.5.4.7.7.2.3.3.6.3,1s0,.7-.3,1c-.2.3-.4.5-.7.7-.3.2-.6.3-1,.3ZM110.6,227.5c.3,0,.5,0,.7-.2.2-.1.3-.3.4-.5.1-.2.2-.4.2-.6s0-.4-.2-.6c0-.2-.2-.4-.4-.5-.2-.1-.4-.2-.7-.2s-.5,0-.7.2c-.2.1-.3.3-.4.5,0,.2-.1.4-.1.6s0,.4.2.6c.1.2.2.4.4.5.2.1.4.2.7.2ZM114.1,228h-.7v-3.3h0c0-.2,0-.3,0-.4h.7v.6c0,0,.2-.2.3-.3.1-.1.2-.2.4-.3.2,0,.4-.1.6-.1.5,0,.8.1,1.1.4.2.3.4.7.4,1.1v2.2h-.7v-2.2c0-.3,0-.6-.2-.8-.1-.2-.4-.2-.6-.2s-.5,0-.6.2c-.2.1-.3.3-.3.5,0,.2,0,.5,0,.7v1.7ZM117.6,227.5l.4-.5c.1.1.3.2.5.3.2,0,.4.1.6.1s.4,0,.6-.1c.2,0,.2-.2.2-.4s0-.2,0-.3-.2-.1-.3-.2c-.2,0-.4-.1-.6-.2-.2,0-.4-.1-.6-.2-.2,0-.3-.2-.4-.3-.1-.1-.2-.3-.2-.6s0-.4.2-.6c.1-.2.3-.3.6-.4.2,0,.5-.1.7-.1s.6,0,.8.1c.2,0,.4.2.6.3l-.4.5c-.1-.1-.3-.2-.4-.3-.2,0-.4-.1-.6-.1s-.4,0-.6.1c-.1,0-.2.2-.2.4s0,.3.3.4c.2,0,.4.1.7.2.2,0,.4.1.6.2.2,0,.3.2.5.4.1.1.2.3.2.6s0,.5-.2.6c-.1.2-.3.3-.6.4-.2,0-.5.1-.8.1-.7,0-1.2-.2-1.6-.6ZM121.5,223.6v-.8h.8v.8h-.8ZM121.6,228v-3.7h.7v3.7h-.7ZM126,228v-.5c0,0-.1.1-.2.2,0,0-.2.2-.4.3-.2,0-.4.1-.6.1s-.6,0-.8-.2c-.3-.2-.4-.4-.6-.7-.1-.3-.2-.6-.2-1s0-.7.2-.9c.1-.3.3-.5.5-.6.2-.2.4-.3.6-.4.2,0,.4-.1.6-.1s.4,0,.5,0c.1,0,.3.1.4.2v-1.8h.7v5.1c0,0,0,.1,0,.2h-.7ZM126,226.4v-1.3c0,0-.2-.1-.4-.2-.2,0-.3,0-.5,0-.3,0-.6.1-.9.4-.2.2-.3.6-.3,1s0,.5.1.6c0,.2.2.4.4.5.2.1.4.2.6.2s.4,0,.6-.2c.2-.1.3-.3.3-.4,0-.2.1-.3.1-.5ZM130.7,227l.4.4c0,0-.1.1-.3.3-.1.1-.3.2-.5.3-.2,0-.5.1-.8.1s-.7,0-1-.2c-.3-.2-.5-.4-.7-.7-.2-.3-.2-.7-.2-1s0-.7.2-1c.2-.3.4-.5.7-.7.3-.2.6-.3,1-.3s.8.1,1,.3c.3.2.5.5.6.8.1.3.2.7.2,1.1h-2.9c0,.2,0,.4.2.6.1.2.3.3.4.4.2,0,.4.1.6.1.3,0,.6,0,.8-.2.2-.1.4-.2.4-.3ZM128.3,225.8h2.2c0-.3-.1-.5-.3-.7s-.4-.3-.8-.3-.4,0-.6.2c-.2.1-.3.2-.4.4,0,.2-.1.3-.1.5ZM132.7,228h-.7v-3.4h0c0-.2,0-.3,0-.4h.7v.6c0,0,.2-.2.3-.3.1-.1.2-.2.4-.3s.4-.1.6-.1.2,0,.2,0c0,0,.1,0,.2,0l-.2.7c0,0-.2,0-.4,0s-.4,0-.6.2c-.2.1-.3.2-.4.4s-.1.4-.1.6v2ZM136.7,226.8v-1.9h-.7v-.6h.7v-1.2h.7v1.2h1.1v.6h-1.1v1.8c0,.3,0,.5.1.6,0,.1.2.2.4.2s.3,0,.3,0c0,0,.2-.1.3-.2l.3.4c-.2.1-.3.3-.5.3-.2,0-.4.1-.6.1-.4,0-.7-.1-.9-.3-.2-.2-.3-.6-.3-1ZM139.4,228v-5.3h.7v2.2c0,0,.1-.2.2-.3.1-.1.2-.2.4-.3.2,0,.4-.1.6-.1.5,0,.8.1,1.1.4.2.3.4.7.4,1.1v2.2h-.7v-2.2c0-.3,0-.6-.2-.8-.2-.2-.4-.2-.6-.2s-.5,0-.6.2c-.2.1-.3.3-.3.5,0,.2,0,.5,0,.7v1.7h-.7ZM146.8,227l.4.4c0,0-.1.1-.3.3-.1.1-.3.2-.5.3-.2,0-.5.1-.8.1s-.7,0-1-.2c-.3-.2-.5-.4-.7-.7-.2-.3-.2-.7-.2-1s0-.7.2-1c.2-.3.4-.5.7-.7.3-.2.6-.3,1-.3s.8.1,1,.3c.3.2.5.5.6.8.1.3.2.7.2,1.1h-2.9c0,.2,0,.4.2.6.1.2.3.3.4.4.2,0,.4.1.6.1.3,0,.6,0,.8-.2.2-.1.4-.2.4-.3ZM144.3,225.8h2.2c0-.3-.1-.5-.3-.7-.2-.2-.4-.3-.8-.3s-.4,0-.6.2c-.2.1-.3.2-.4.4,0,.2-.1.3-.1.5ZM149.6,228v-5.3h1.7c.4,0,.7,0,.9.2.2,0,.4.2.6.4.1.2.2.3.3.5,0,.2,0,.4,0,.6,0,.4,0,.7-.2.9-.2.2-.4.4-.6.5s-.6.2-.9.2h-1v2.1h-.8ZM150.4,225.2h1c.3,0,.6,0,.8-.3.2-.2.3-.4.3-.7s0-.5-.3-.7c-.2-.2-.4-.3-.8-.3h-1v1.9ZM154.1,228v-5.3h1.8c.6,0,1.1,0,1.5.3.4.2.8.5,1,.9.3.4.4.9.4,1.5s-.1,1.1-.4,1.5c-.2.4-.6.7-1,.9s-.9.3-1.5.3h-1.8ZM154.9,227.3h1c.7,0,1.2-.2,1.6-.5.4-.3.6-.8.6-1.5s-.2-1.1-.5-1.5c-.4-.3-.9-.5-1.6-.5h-1v4ZM159.5,227.2l.5-.5c.1.1.2.2.4.3.1.1.3.2.5.3.2,0,.4.1.6.1.4,0,.6,0,.8-.2.2-.2.3-.4.3-.6s-.1-.5-.3-.7c-.2-.1-.5-.3-1-.4-.5,0-.8-.3-1.1-.5-.3-.3-.4-.6-.4-1s0-.5.2-.7c.1-.2.3-.4.6-.5.3-.1.6-.2,1-.2s.6,0,.9.1c.2,0,.4.2.5.3.1.1.2.2.3.3l-.5.5c0,0-.1-.1-.2-.2-.1,0-.2-.2-.4-.2-.2,0-.3-.1-.6-.1s-.4,0-.6.1c-.1,0-.3.2-.3.3,0,.1-.1.2-.1.4,0,.3.1.5.3.6.2.1.5.2.9.3.3,0,.5.2.8.3.2.1.4.3.6.5.2.2.2.5.2.9s0,.6-.2.8c-.2.2-.4.4-.7.6-.3.1-.6.2-1,.2s-.6,0-.9-.1c-.3,0-.5-.2-.7-.4-.2-.1-.3-.3-.4-.4ZM168.2,228v-.4c-.1.2-.3.3-.6.4-.2,0-.5.1-.7.1s-.4,0-.6-.1c-.2,0-.4-.2-.5-.4-.1-.2-.2-.4-.2-.7s.1-.7.4-1c.3-.2.7-.4,1.2-.4s.2,0,.4,0c.1,0,.2,0,.3,0,.1,0,.2,0,.2,0h0c0-.4,0-.6-.3-.7-.2-.1-.4-.2-.7-.2s-.5,0-.7.1c-.2,0-.3.2-.4.2l-.3-.5c.1-.1.3-.2.6-.3.2-.1.6-.2,1-.2s.9.1,1.1.4c.3.2.4.6.4,1v2.2h0c0,.2,0,.3,0,.3h-.7ZM168.1,226.7v-.4s0,0-.2,0c0,0-.2,0-.3,0-.1,0-.2,0-.3,0-.3,0-.5,0-.6.1-.1,0-.2.2-.3.3,0,.1,0,.2,0,.3,0,.2,0,.3.2.5.1.1.3.2.6.2s.4,0,.5-.1c.2,0,.3-.2.4-.3.1-.1.2-.3.2-.4ZM170.5,228h-.7v-3.3h0c0-.2,0-.3,0-.4h.7v.6c0,0,.2-.2.3-.3.1-.1.2-.2.4-.3.2,0,.4-.1.6-.1.5,0,.8.1,1.1.4.2.3.4.7.4,1.1v2.2h-.7v-2.2c0-.3,0-.6-.2-.8-.1-.2-.4-.2-.6-.2s-.5,0-.6.2c-.2.1-.3.3-.3.5,0,.2,0,.5,0,.7v1.7ZM176.9,228v-.5c0,0-.1.1-.2.2,0,0-.2.2-.4.3-.2,0-.4.1-.6.1s-.6,0-.8-.2c-.3-.2-.4-.4-.6-.7-.1-.3-.2-.6-.2-1s0-.7.2-.9c.1-.3.3-.5.5-.6.2-.2.4-.3.6-.4.2,0,.4-.1.6-.1s.4,0,.5,0c.1,0,.3.1.4.2v-1.8h.7v5.1c0,0,0,.1,0,.2h-.7ZM176.8,226.4v-1.3c0,0-.2-.1-.4-.2-.1,0-.3,0-.5,0-.3,0-.6.1-.9.4-.2.2-.3.6-.3,1s0,.5.1.6c0,.2.2.4.4.5.2.1.4.2.6.2s.5,0,.6-.2c.2-.1.3-.3.3-.4,0-.2.1-.3.1-.5ZM181.6,228v-4.7h-1.9v-.7h4.6v.7h-1.9v4.7h-.8ZM184.9,228l.2-5.3h.7l1.6,2.8,1.6-2.8h.7l.2,5.3h-.8l-.2-4.1-1.5,2.5h-.4l-1.5-2.5-.2,4.1h-.7ZM191.3,228v-5.3h1.8c.6,0,1.1,0,1.5.3.4.2.8.5,1,.9.3.4.4.9.4,1.5s-.1,1.1-.4,1.5c-.2.4-.6.7-1,.9-.4.2-.9.3-1.5.3h-1.8ZM192.1,227.3h1c.7,0,1.2-.2,1.6-.5.4-.3.6-.8.6-1.5s-.2-1.1-.5-1.5c-.4-.3-.9-.5-1.6-.5h-1v4ZM200.7,228v-.4c-.1.2-.3.3-.6.4-.2,0-.5.1-.7.1s-.4,0-.6-.1c-.2,0-.4-.2-.5-.4-.1-.2-.2-.4-.2-.7s.1-.7.4-1c.3-.2.7-.4,1.2-.4s.2,0,.4,0c.1,0,.2,0,.3,0,.1,0,.2,0,.2,0h0c0-.4,0-.6-.3-.7-.2-.1-.4-.2-.7-.2s-.5,0-.7.1c-.2,0-.3.2-.4.2l-.3-.5c.1-.1.3-.2.6-.3.2-.1.6-.2,1-.2s.9.1,1.1.4c.3.2.4.6.4,1v2.2h0c0,.2,0,.3,0,.3h-.7ZM200.6,226.7v-.4s0,0-.2,0c0,0-.2,0-.3,0-.1,0-.2,0-.3,0-.3,0-.5,0-.6.1-.1,0-.2.2-.3.3,0,.1,0,.2,0,.3,0,.2,0,.3.2.5.1.1.3.2.6.2s.4,0,.5-.1c.2,0,.3-.2.4-.3.1-.1.2-.3.2-.4ZM202.6,226.8v-1.9h-.7v-.6h.7v-1.2h.7v1.2h1.1v.6h-1.1v1.8c0,.3,0,.5.1.6,0,.1.2.2.4.2s.3,0,.3,0c0,0,.2-.1.3-.2l.3.4c-.2.1-.3.3-.5.3-.2,0-.4.1-.6.1-.4,0-.7-.1-.9-.3-.2-.2-.3-.6-.3-1ZM206.8,228v-5.3h.7v2.2c0,0,.1-.2.2-.3.1-.1.2-.2.4-.3.2,0,.4-.1.6-.1.5,0,.8.1,1.1.4.2.3.4.7.4,1.1v2.2h-.7v-2.2c0-.3,0-.6-.2-.8-.1-.2-.4-.2-.6-.2s-.5,0-.6.2c-.2.1-.3.3-.3.5,0,.2,0,.5,0,.7v1.7h-.7ZM213,228.1c-.4,0-.7,0-1-.3-.3-.2-.5-.4-.7-.7-.2-.3-.2-.6-.2-1s0-.7.2-1c.2-.3.4-.5.7-.7.3-.2.6-.3,1-.3s.7,0,1,.3c.3.2.5.4.7.7.2.3.3.6.3,1s0,.7-.3,1c-.2.3-.4.5-.7.7-.3.2-.6.3-1,.3ZM213,227.5c.3,0,.5,0,.7-.2.2-.1.3-.3.4-.5.1-.2.2-.4.2-.6s0-.4-.2-.6c0-.2-.2-.4-.4-.5-.2-.1-.4-.2-.7-.2s-.5,0-.7.2c-.2.1-.3.3-.4.5,0,.2-.1.4-.1.6s0,.4.2.6c.1.2.2.4.4.5.2.1.4.2.7.2ZM215.5,227.5l.4-.5c.1.1.3.2.5.3s.4.1.6.1.4,0,.6-.1c.2,0,.2-.2.2-.4s0-.2,0-.3-.2-.1-.3-.2c-.2,0-.4-.1-.6-.2-.2,0-.4-.1-.6-.2-.2,0-.3-.2-.4-.3-.1-.1-.2-.3-.2-.6s0-.4.2-.6c.1-.2.3-.3.6-.4.2,0,.5-.1.7-.1s.6,0,.8.1c.2,0,.4.2.6.3l-.4.5c-.1-.1-.3-.2-.4-.3-.2,0-.4-.1-.6-.1s-.4,0-.6.1c-.1,0-.2.2-.2.4s0,.3.3.4c.2,0,.4.1.7.2.2,0,.4.1.6.2.2,0,.3.2.5.4.1.1.2.3.2.6s0,.5-.2.6c-.1.2-.3.3-.6.4-.2,0-.5.1-.8.1-.7,0-1.2-.2-1.6-.6ZM219.8,226.8v-1.9h-.7v-.6h.7v-1.2h.7v1.2h1.1v.6h-1.1v1.8c0,.3,0,.5.1.6,0,.1.2.2.4.2s.3,0,.3,0c0,0,.2-.1.3-.2l.3.4c-.2.1-.3.3-.5.3-.2,0-.4.1-.6.1-.4,0-.7-.1-.9-.3-.2-.2-.3-.6-.3-1ZM223.3,229.6h-.7v-4.9h0c0-.2,0-.3,0-.4h.7v.5c0,0,.2-.1.3-.2.1,0,.2-.2.4-.3.2,0,.4-.1.6-.1.4,0,.7,0,.9.3.2.2.4.4.6.7.1.3.2.6.2,1s0,.6-.2.9c-.1.2-.3.4-.4.6-.2.2-.4.3-.6.4-.2,0-.4.1-.7.1s-.5,0-.6,0c-.1,0-.3-.1-.4-.2v1.7ZM223.3,226.2v1c0,0,.2.1.4.2s.4,0,.6,0,.5,0,.6-.2c.2-.1.3-.3.4-.5.1-.2.2-.4.2-.7s0-.5-.1-.7c0-.2-.2-.4-.3-.5-.2-.1-.4-.2-.6-.2s-.5,0-.7.2c-.2.1-.3.3-.4.6,0,0,0,.2,0,.3,0,0,0,.2,0,.3ZM227,228v-5.3h.7v5.3h-.7ZM228.7,226.5v-2.2h.7v2.2c0,.3,0,.6.2.8s.4.2.6.2.5,0,.6-.2c.2-.1.3-.3.3-.5,0-.2.1-.5.1-.7v-1.7h.7v3.5c0,0,0,.1,0,.2h-.7v-.6c0,0-.2.2-.3.3-.1,0-.2.2-.4.2-.2,0-.4.1-.6.1-.5,0-.8-.1-1.1-.4-.2-.3-.3-.7-.3-1.1ZM232.9,227.5l.4-.5c.1.1.3.2.5.3s.4.1.6.1.4,0,.6-.1c.2,0,.2-.2.2-.4s0-.2,0-.3-.2-.1-.3-.2c-.2,0-.4-.1-.6-.2-.2,0-.4-.1-.6-.2-.2,0-.3-.2-.4-.3-.1-.1-.2-.3-.2-.6s0-.4.2-.6c.1-.2.3-.3.6-.4.2,0,.5-.1.7-.1s.6,0,.8.1c.2,0,.4.2.6.3l-.4.5c-.1-.1-.3-.2-.4-.3-.2,0-.4-.1-.6-.1s-.4,0-.6.1c-.1,0-.2.2-.2.4s0,.3.3.4c.2,0,.4.1.7.2.2,0,.4.1.6.2.2,0,.3.2.5.4.1.1.2.3.2.6s0,.5-.2.6c-.1.2-.3.3-.6.4-.2,0-.5.1-.8.1-.7,0-1.2-.2-1.6-.6ZM236.7,228v-.9h.9v.9h-.9ZM241.2,227l.4.5c-.2.2-.4.3-.6.5-.2.1-.5.2-.8.2s-.7,0-1-.3c-.3-.2-.5-.4-.7-.7-.2-.3-.2-.6-.2-1s0-.7.2-1c.2-.3.4-.5.7-.7.3-.2.6-.3,1-.3s.6,0,.8.2c.2.1.4.3.6.5l-.5.5c-.1-.1-.2-.2-.4-.3s-.3-.1-.6-.1-.5,0-.7.2c-.2.1-.3.3-.4.5,0,.2-.1.4-.1.7s0,.4.1.7c.1.2.2.4.4.5.2.1.4.2.7.2s.4,0,.6-.1c.2,0,.3-.2.4-.3ZM243.9,228.1c-.4,0-.7,0-1-.3-.3-.2-.5-.4-.7-.7-.2-.3-.2-.6-.2-1s0-.7.2-1c.2-.3.4-.5.7-.7.3-.2.6-.3,1-.3s.7,0,1,.3c.3.2.5.4.7.7.2.3.3.6.3,1s0,.7-.3,1c-.2.3-.4.5-.7.7-.3.2-.6.3-1,.3ZM243.9,227.5c.3,0,.5,0,.7-.2.2-.1.3-.3.4-.5.1-.2.2-.4.2-.6s0-.4-.2-.6c0-.2-.2-.4-.4-.5-.2-.1-.4-.2-.7-.2s-.5,0-.7.2c-.2.1-.3.3-.4.5,0,.2-.1.4-.1.6s0,.4.2.6c.1.2.2.4.4.5.2.1.4.2.7.2ZM247.4,228h-.7v-3.3h0c0-.2,0-.3,0-.4h.7v.6c0,0,.2-.2.3-.3.1-.1.2-.2.4-.3.2,0,.4-.1.6-.1s.5,0,.7.2c.2.1.3.3.4.5.1-.2.3-.3.6-.5.2-.1.5-.2.8-.2.5,0,.8.1,1.1.4.2.3.3.7.3,1.1v2.2h-.7v-2.2c0-.7-.3-1-.8-1s-.4,0-.5.2c-.2.1-.3.2-.4.4,0,.2-.1.3-.1.6v2.1h-.7v-2.2c0-.3,0-.6-.2-.8-.1-.2-.3-.2-.6-.2s-.5,0-.6.2-.3.3-.3.6c0,.2,0,.4,0,.7v1.7ZM253.6,228v-.9h.9v.9h-.9ZM257.9,228v-.4c-.1.2-.3.3-.6.4-.2,0-.5.1-.7.1s-.4,0-.6-.1c-.2,0-.4-.2-.5-.4-.1-.2-.2-.4-.2-.7s.1-.7.4-1c.3-.2.7-.4,1.2-.4s.2,0,.4,0c.1,0,.2,0,.3,0,.1,0,.2,0,.2,0h0c0-.4,0-.6-.3-.7-.2-.1-.4-.2-.7-.2s-.5,0-.7.1c-.2,0-.3.2-.4.2l-.3-.5c.1-.1.3-.2.6-.3.2-.1.6-.2,1-.2s.9.1,1.1.4c.3.2.4.6.4,1v2.2h0c0,.2,0,.3,0,.3h-.7ZM257.9,226.7v-.4s0,0-.2,0c0,0-.2,0-.3,0-.1,0-.2,0-.3,0-.3,0-.5,0-.6.1-.1,0-.2.2-.3.3,0,.1,0,.2,0,.3,0,.2,0,.3.2.5.1.1.3.2.6.2s.4,0,.5-.1c.2,0,.3-.2.4-.3.1-.1.2-.3.2-.4ZM259.5,226.5v-2.2h.7v2.2c0,.3,0,.6.2.8.1.2.4.2.6.2s.5,0,.6-.2.3-.3.3-.5c0-.2.1-.5.1-.7v-1.7h.7v3.5c0,0,0,.1,0,.2h-.7v-.6c0,0-.2.2-.3.3-.1,0-.2.2-.4.2-.2,0-.4.1-.6.1-.5,0-.8-.1-1.1-.4-.2-.3-.3-.7-.3-1.1ZM265.3,227.9v-5.2h.7v2c0-.1.2-.2.4-.3.2-.1.4-.2.8-.2s.7,0,.9.3c.3.2.4.4.6.7.1.3.2.6.2,1s0,.7-.3,1c-.2.3-.4.5-.7.7-.3.2-.7.3-1.1.3s-.6,0-.8,0c-.3,0-.5-.1-.6-.2ZM266,225.9v1.5c0,0,.2,0,.3,0,.1,0,.3,0,.5,0,.4,0,.7-.1,1-.4.3-.3.4-.6.4-1s0-.4-.1-.6c0-.2-.2-.4-.3-.5-.2-.1-.4-.2-.6-.2s-.4,0-.6.2c-.2.1-.3.2-.4.4,0,.2-.1.3-.1.5ZM272.7,227l.4.4c0,0-.1.1-.3.3-.1.1-.3.2-.5.3-.2,0-.5.1-.8.1s-.7,0-1-.2c-.3-.2-.5-.4-.7-.7-.2-.3-.2-.7-.2-1s0-.7.2-1c.2-.3.4-.5.7-.7.3-.2.6-.3,1-.3s.8.1,1,.3c.3.2.5.5.6.8.1.3.2.7.2,1.1h-2.9c0,.2,0,.4.2.6.1.2.3.3.4.4.2,0,.4.1.6.1.3,0,.6,0,.8-.2.2-.1.4-.2.4-.3ZM270.3,225.8h2.2c0-.3-.1-.5-.3-.7s-.4-.3-.8-.3-.4,0-.6.2c-.2.1-.3.2-.4.4,0,.2-.1.3-.1.5ZM274.3,228v-3.1h-.7v-.6h.7v-.3c0-.3,0-.6.2-.8.1-.2.3-.4.5-.5.2-.1.4-.2.6-.2s.4,0,.6,0c.2,0,.4.2.5.3l-.4.5c-.2-.2-.4-.2-.6-.2s-.4,0-.5.2c-.1.1-.2.4-.2.7v.2h1.1v.6h-1.1v3.1h-.7ZM278.3,228.1c-.4,0-.7,0-1-.3-.3-.2-.5-.4-.7-.7-.2-.3-.2-.6-.2-1s0-.7.2-1c.2-.3.4-.5.7-.7.3-.2.6-.3,1-.3s.7,0,1,.3c.3.2.5.4.7.7.2.3.3.6.3,1s0,.7-.3,1c-.2.3-.4.5-.7.7-.3.2-.6.3-1,.3ZM278.3,227.5c.3,0,.5,0,.7-.2.2-.1.3-.3.4-.5.1-.2.2-.4.2-.6s0-.4-.2-.6c0-.2-.2-.4-.4-.5-.2-.1-.4-.2-.7-.2s-.5,0-.7.2c-.2.1-.3.3-.4.5,0,.2-.1.4-.1.6s0,.4.2.6c.1.2.2.4.4.5.2.1.4.2.7.2ZM281.8,228h-.7v-3.4h0c0-.2,0-.3,0-.4h.7v.6c0,0,.2-.2.3-.3.1-.1.2-.2.4-.3s.4-.1.6-.1.2,0,.2,0c0,0,.1,0,.2,0l-.2.7c0,0-.2,0-.4,0s-.4,0-.6.2c-.2.1-.3.2-.4.4,0,.2-.1.4-.1.6v2ZM286.7,227l.4.4c0,0-.1.1-.3.3-.1.1-.3.2-.5.3-.2,0-.5.1-.8.1s-.7,0-1-.2c-.3-.2-.5-.4-.7-.7-.2-.3-.2-.7-.2-1s0-.7.2-1c.2-.3.4-.5.7-.7.3-.2.6-.3,1-.3s.8.1,1,.3c.3.2.5.5.6.8.1.3.2.7.2,1.1h-2.9c0,.2,0,.4.2.6.1.2.3.3.4.4.2,0,.4.1.6.1.3,0,.6,0,.8-.2.2-.1.4-.2.4-.3ZM284.3,225.8h2.2c0-.3-.1-.5-.3-.7-.2-.2-.4-.3-.8-.3s-.4,0-.6.2c-.2.1-.3.2-.4.4,0,.2-.1.3-.1.5ZM14.7,235h-.7v-3.3h0c0-.2,0-.3,0-.4h.7v.6c0,0,.2-.2.3-.3.1-.1.2-.2.4-.3.2,0,.4-.1.6-.1s.5,0,.7.2c.2.1.3.3.4.5.1-.2.3-.3.6-.5.2-.1.5-.2.8-.2.5,0,.8.1,1.1.4.2.3.3.7.3,1.1v2.2h-.7v-2.2c0-.7-.3-1-.8-1s-.4,0-.5.2c-.2.1-.3.2-.4.4,0,.2-.1.3-.1.6v2.1h-.7v-2.2c0-.3,0-.6-.2-.8-.1-.2-.3-.2-.6-.2s-.5,0-.6.2c-.2.1-.3.3-.3.6,0,.2,0,.4,0,.7v1.7ZM23.2,235v-.4c-.1.2-.3.3-.6.4-.2,0-.5.1-.7.1s-.4,0-.6-.1c-.2,0-.4-.2-.5-.4-.1-.2-.2-.4-.2-.7s.1-.7.4-1c.3-.2.7-.4,1.2-.4s.2,0,.4,0c.1,0,.2,0,.3,0,.1,0,.2,0,.2,0h0c0-.4,0-.6-.3-.7-.2-.1-.4-.2-.7-.2s-.5,0-.7.1c-.2,0-.3.2-.4.2l-.3-.5c.1-.1.3-.2.6-.3.2-.1.6-.2,1-.2s.9.1,1.1.4c.3.2.4.6.4,1v2.2h0c0,.2,0,.3,0,.3h-.7ZM23.1,233.7v-.4s0,0-.2,0c0,0-.2,0-.3,0-.1,0-.2,0-.3,0-.3,0-.5,0-.6.1-.1,0-.2.2-.3.3,0,.1,0,.2,0,.3,0,.2,0,.3.2.5.1.1.3.2.6.2s.4,0,.5-.1c.2,0,.3-.2.4-.3.1-.1.2-.3.2-.4ZM24.8,235v-5.3h.7v3.1l1.6-1.5h.9l-1.4,1.4,1.6,2.3h-.9l-1.3-1.9-.5.5v1.4h-.7ZM28.7,230.6v-.8h.8v.8h-.8ZM28.8,235v-3.7h.7v3.7h-.7ZM31.2,235h-.7v-3.3h0c0-.2,0-.3,0-.4h.7v.6c0,0,.2-.2.3-.3.1-.1.2-.2.4-.3.2,0,.4-.1.6-.1.5,0,.8.1,1.1.4.2.3.4.7.4,1.1v2.2h-.7v-2.2c0-.3,0-.6-.2-.8-.1-.2-.4-.2-.6-.2s-.5,0-.6.2c-.2.1-.3.3-.3.5,0,.2,0,.5,0,.7v1.7ZM35,236.3l.3-.5c.1,0,.3.2.4.2.2,0,.4,0,.7,0s.6,0,.8-.3.3-.5.3-.8v-.5s-.1.1-.2.2c0,0-.2.1-.4.2-.1,0-.3,0-.6,0-.4,0-.7,0-.9-.2-.3-.2-.4-.4-.6-.7-.1-.3-.2-.6-.2-1s0-.7.3-1c.2-.3.4-.5.7-.7.3-.2.7-.3,1.1-.3s.6,0,.8,0c.3,0,.5.1.6.2v3.6c0,.5-.2.9-.5,1.2-.3.3-.8.4-1.3.4s-.7,0-.9-.1c-.2,0-.4-.2-.5-.3ZM37.5,233.5v-1.5s-.1,0-.2,0c-.1,0-.3,0-.5,0s-.5,0-.7.2c-.2.1-.4.3-.5.5-.1.2-.2.4-.2.7s0,.4.1.6c0,.2.2.3.4.4s.4.2.6.2.4,0,.6-.1c.2,0,.3-.2.3-.3,0-.1.1-.3.1-.4ZM43,235v-.4c-.1.2-.3.3-.6.4-.2,0-.5.1-.7.1s-.4,0-.6-.1c-.2,0-.4-.2-.5-.4-.1-.2-.2-.4-.2-.7s.1-.7.4-1c.3-.2.7-.4,1.2-.4s.2,0,.4,0c.1,0,.2,0,.3,0,.1,0,.2,0,.2,0h0c0-.4,0-.6-.3-.7-.2-.1-.4-.2-.7-.2s-.5,0-.7.1c-.2,0-.3.2-.4.2l-.3-.5c.1-.1.3-.2.6-.3.2-.1.6-.2,1-.2s.9.1,1.1.4c.3.2.4.6.4,1v2.2h0c0,.2,0,.3,0,.3h-.7ZM43,233.7v-.4s0,0-.2,0c0,0-.2,0-.3,0-.1,0-.2,0-.3,0-.3,0-.5,0-.6.1-.1,0-.2.2-.3.3,0,.1,0,.2,0,.3,0,.2,0,.3.2.5.1.1.3.2.6.2s.4,0,.5-.1c.2,0,.3-.2.4-.3.1-.1.2-.3.2-.4ZM48.8,235v-.5c0,0-.1.1-.2.2,0,0-.2.2-.4.3-.2,0-.4.1-.6.1s-.6,0-.8-.2c-.3-.2-.4-.4-.6-.7-.1-.3-.2-.6-.2-1s0-.7.2-.9c.1-.3.3-.5.5-.6.2-.2.4-.3.6-.4.2,0,.4-.1.6-.1s.4,0,.5,0c.1,0,.3.1.4.2v-1.8h.7v5.1c0,0,0,.1,0,.2h-.7ZM48.8,233.4v-1.3c0,0-.2-.1-.4-.2-.1,0-.3,0-.5,0-.3,0-.6.1-.9.4-.2.2-.3.6-.3,1s0,.5.1.6c0,.2.2.4.4.5.2.1.4.2.6.2s.5,0,.6-.2c.2-.1.3-.3.3-.4,0-.2.1-.3.1-.5ZM53.5,234l.4.4c0,0-.1.1-.3.3-.1.1-.3.2-.5.3-.2,0-.5.1-.8.1s-.7,0-1-.2c-.3-.2-.5-.4-.7-.7-.2-.3-.2-.7-.2-1s0-.7.2-1c.2-.3.4-.5.7-.7.3-.2.6-.3,1-.3s.8.1,1,.3c.3.2.5.5.6.8.1.3.2.7.2,1.1h-2.9c0,.2,0,.4.2.6.1.2.3.3.4.4.2,0,.4.1.6.1.3,0,.6,0,.8-.2.2-.1.4-.2.4-.3ZM51.1,232.8h2.2c0-.3-.1-.5-.3-.7-.2-.2-.4-.3-.8-.3s-.4,0-.6.2c-.2.1-.3.2-.4.4,0,.2-.1.3-.1.5ZM57.6,234l.4.5c-.2.2-.4.3-.6.5-.2.1-.5.2-.8.2s-.7,0-1-.3c-.3-.2-.5-.4-.7-.7-.2-.3-.2-.6-.2-1s0-.7.2-1c.2-.3.4-.5.7-.7.3-.2.6-.3,1-.3s.6,0,.8.2c.2.1.4.3.6.5l-.5.5c-.1-.1-.2-.2-.4-.3-.2,0-.3-.1-.6-.1s-.5,0-.7.2c-.2.1-.3.3-.4.5s-.1.4-.1.7,0,.4.1.7c.1.2.2.4.4.5.2.1.4.2.7.2s.4,0,.6-.1c.2,0,.3-.2.4-.3ZM58.7,230.6v-.8h.8v.8h-.8ZM58.8,235v-3.7h.7v3.7h-.7ZM60.3,234.5l.4-.5c.1.1.3.2.5.3.2,0,.4.1.6.1s.4,0,.6-.1c.2,0,.2-.2.2-.4s0-.2,0-.3-.2-.1-.3-.2c-.2,0-.4-.1-.6-.2-.2,0-.4-.1-.6-.2-.2,0-.3-.2-.4-.3-.1-.1-.2-.3-.2-.6s0-.4.2-.6c.1-.2.3-.3.6-.4.2,0,.5-.1.7-.1s.6,0,.8.1c.2,0,.4.2.6.3l-.4.5c-.1-.1-.3-.2-.4-.3-.2,0-.4-.1-.6-.1s-.4,0-.6.1c-.1,0-.2.2-.2.4s0,.3.3.4c.2,0,.4.1.7.2.2,0,.4.1.6.2.2,0,.3.2.5.4.1.1.2.3.2.6s0,.5-.2.6c-.1.2-.3.3-.6.4-.2,0-.5.1-.8.1-.7,0-1.2-.2-1.6-.6ZM64.3,230.6v-.8h.8v.8h-.8ZM64.3,235v-3.7h.7v3.7h-.7ZM67.9,235.1c-.4,0-.7,0-1-.3-.3-.2-.5-.4-.7-.7-.2-.3-.2-.6-.2-1s0-.7.2-1c.2-.3.4-.5.7-.7.3-.2.6-.3,1-.3s.7,0,1,.3c.3.2.5.4.7.7s.3.6.3,1,0,.7-.3,1c-.2.3-.4.5-.7.7-.3.2-.6.3-1,.3ZM67.9,234.5c.3,0,.5,0,.7-.2.2-.1.3-.3.4-.5.1-.2.2-.4.2-.6s0-.4-.2-.6c0-.2-.2-.4-.4-.5-.2-.1-.4-.2-.7-.2s-.5,0-.7.2c-.2.1-.3.3-.4.5,0,.2-.1.4-.1.6s0,.4.2.6c.1.2.2.4.4.5.2.1.4.2.7.2ZM71.4,235h-.7v-3.3h0c0-.2,0-.3,0-.4h.7v.6c0,0,.2-.2.3-.3.1-.1.2-.2.4-.3.2,0,.4-.1.6-.1.5,0,.8.1,1.1.4.2.3.4.7.4,1.1v2.2h-.7v-2.2c0-.3,0-.6-.2-.8-.1-.2-.4-.2-.6-.2s-.5,0-.6.2c-.2.1-.3.3-.3.5,0,.2,0,.5,0,.7v1.7ZM78.8,235v-.4c-.1.2-.3.3-.6.4-.2,0-.5.1-.7.1s-.4,0-.6-.1c-.2,0-.4-.2-.5-.4-.1-.2-.2-.4-.2-.7s.1-.7.4-1c.3-.2.7-.4,1.2-.4s.2,0,.4,0c.1,0,.2,0,.3,0,.1,0,.2,0,.2,0h0c0-.4,0-.6-.3-.7-.2-.1-.4-.2-.7-.2s-.5,0-.7.1c-.2,0-.3.2-.4.2l-.3-.5c.1-.1.3-.2.6-.3.2-.1.6-.2,1-.2s.9.1,1.1.4c.3.2.4.6.4,1v2.2h0c0,.2,0,.3,0,.3h-.7ZM78.8,233.7v-.4s0,0-.2,0c0,0-.2,0-.3,0-.1,0-.2,0-.3,0-.3,0-.5,0-.6.1-.1,0-.2.2-.3.3,0,.1,0,.2,0,.3,0,.2,0,.3.2.5.1.1.3.2.6.2s.4,0,.5-.1c.2,0,.3-.2.4-.3.1-.1.2-.3.2-.4ZM80.4,234.9v-5.2h.7v2c0-.1.2-.2.4-.3.2-.1.4-.2.8-.2s.7,0,.9.3c.3.2.4.4.6.7.1.3.2.6.2,1s0,.7-.3,1c-.2.3-.4.5-.7.7-.3.2-.7.3-1.1.3s-.6,0-.8,0c-.3,0-.5-.1-.6-.2ZM81.1,232.9v1.5c0,0,.2,0,.3,0,.1,0,.3,0,.5,0,.4,0,.7-.1,1-.4.3-.3.4-.6.4-1s0-.4-.1-.6c0-.2-.2-.4-.3-.5-.2-.1-.4-.2-.6-.2s-.4,0-.6.2c-.2.1-.3.2-.4.4,0,.2-.1.3-.1.5ZM86.6,235.1c-.4,0-.7,0-1-.3-.3-.2-.5-.4-.7-.7-.2-.3-.2-.6-.2-1s0-.7.2-1c.2-.3.4-.5.7-.7.3-.2.6-.3,1-.3s.7,0,1,.3c.3.2.5.4.7.7s.3.6.3,1,0,.7-.3,1c-.2.3-.4.5-.7.7-.3.2-.6.3-1,.3ZM86.6,234.5c.3,0,.5,0,.7-.2.2-.1.3-.3.4-.5.1-.2.2-.4.2-.6s0-.4-.2-.6c0-.2-.2-.4-.4-.5-.2-.1-.4-.2-.7-.2s-.5,0-.7.2c-.2.1-.3.3-.4.5,0,.2-.1.4-.1.6s0,.4.2.6c.1.2.2.4.4.5.2.1.4.2.7.2ZM89.4,233.5v-2.2h.7v2.2c0,.3,0,.6.2.8s.4.2.6.2.5,0,.6-.2c.2-.1.3-.3.3-.5,0-.2.1-.5.1-.7v-1.7h.7v3.5c0,0,0,.1,0,.2h-.7v-.6c0,0-.2.2-.3.3-.1,0-.2.2-.4.2-.2,0-.4.1-.6.1-.5,0-.8-.1-1.1-.4-.2-.3-.3-.7-.3-1.1ZM94,233.8v-1.9h-.7v-.6h.7v-1.2h.7v1.2h1.1v.6h-1.1v1.8c0,.3,0,.5.1.6,0,.1.2.2.4.2s.3,0,.3,0c0,0,.2-.1.3-.2l.3.4c-.2.1-.3.3-.5.3-.2,0-.4.1-.6.1-.4,0-.7-.1-.9-.3-.2-.2-.3-.6-.3-1ZM98.4,235v-5.3h.8v2.2h2.9v-2.2h.8v5.3h-.8v-2.4h-2.9v2.4h-.8ZM105.7,235.1c-.4,0-.7,0-1-.3-.3-.2-.5-.4-.7-.7-.2-.3-.2-.6-.2-1s0-.7.2-1c.2-.3.4-.5.7-.7.3-.2.6-.3,1-.3s.7,0,1,.3c.3.2.5.4.7.7.2.3.3.6.3,1s0,.7-.3,1c-.2.3-.4.5-.7.7-.3.2-.6.3-1,.3ZM105.7,234.5c.3,0,.5,0,.7-.2.2-.1.3-.3.4-.5.1-.2.2-.4.2-.6s0-.4-.2-.6c0-.2-.2-.4-.4-.5-.2-.1-.4-.2-.7-.2s-.5,0-.7.2c-.2.1-.3.3-.4.5,0,.2-.1.4-.1.6s0,.4.2.6c.1.2.2.4.4.5.2.1.4.2.7.2ZM108.3,234.5l.4-.5c.1.1.3.2.5.3.2,0,.4.1.6.1s.4,0,.6-.1c.2,0,.2-.2.2-.4s0-.2,0-.3c0,0-.2-.1-.3-.2-.2,0-.4-.1-.6-.2-.2,0-.4-.1-.6-.2-.2,0-.3-.2-.4-.3-.1-.1-.2-.3-.2-.6s0-.4.2-.6c.1-.2.3-.3.6-.4.2,0,.5-.1.7-.1s.6,0,.8.1c.2,0,.4.2.6.3l-.4.5c-.1-.1-.3-.2-.4-.3-.2,0-.4-.1-.6-.1s-.4,0-.6.1c-.1,0-.2.2-.2.4s0,.3.3.4c.2,0,.4.1.7.2.2,0,.4.1.6.2.2,0,.3.2.5.4.1.1.2.3.2.6s0,.5-.2.6c-.1.2-.3.3-.6.4-.2,0-.5.1-.8.1-.7,0-1.2-.2-1.6-.6ZM112.6,233.8v-1.9h-.7v-.6h.7v-1.2h.7v1.2h1.1v.6h-1.1v1.8c0,.3,0,.5.1.6,0,.1.2.2.4.2s.3,0,.3,0c0,0,.2-.1.3-.2l.3.4c-.2.1-.3.3-.5.3-.2,0-.4.1-.6.1-.4,0-.7-.1-.9-.3-.2-.2-.3-.6-.3-1ZM116,236.6h-.7v-4.9h0c0-.2,0-.3,0-.4h.7v.5c0,0,.2-.1.3-.2.1,0,.2-.2.4-.3.2,0,.4-.1.6-.1.4,0,.7,0,.9.3.3.2.4.4.6.7.1.3.2.6.2,1s0,.6-.2.9c-.1.2-.3.4-.4.6-.2.2-.4.3-.6.4-.2,0-.4.1-.7.1s-.5,0-.6,0c-.1,0-.3-.1-.4-.2v1.7ZM116,233.2v1c0,0,.2.1.4.2.2,0,.4,0,.6,0s.5,0,.6-.2c.2-.1.3-.3.4-.5.1-.2.2-.4.2-.7s0-.5-.1-.7c0-.2-.2-.4-.3-.5-.2-.1-.4-.2-.6-.2s-.5,0-.7.2c-.2.1-.3.3-.4.6,0,0,0,.2,0,.3,0,0,0,.2,0,.3ZM119.8,235v-5.3h.7v5.3h-.7ZM121.5,233.5v-2.2h.7v2.2c0,.3,0,.6.2.8.1.2.4.2.6.2s.5,0,.6-.2c.2-.1.3-.3.3-.5,0-.2.1-.5.1-.7v-1.7h.7v3.5c0,0,0,.1,0,.2h-.7v-.6c0,0-.2.2-.3.3-.1,0-.2.2-.4.2-.2,0-.4.1-.6.1-.5,0-.8-.1-1.1-.4-.2-.3-.3-.7-.3-1.1ZM125.6,234.5l.4-.5c.1.1.3.2.5.3.2,0,.4.1.6.1s.4,0,.6-.1c.2,0,.2-.2.2-.4s0-.2,0-.3c0,0-.2-.1-.3-.2-.2,0-.4-.1-.6-.2-.2,0-.4-.1-.6-.2-.2,0-.3-.2-.4-.3-.1-.1-.2-.3-.2-.6s0-.4.2-.6c.1-.2.3-.3.6-.4.2,0,.5-.1.7-.1s.6,0,.8.1c.2,0,.4.2.6.3l-.4.5c-.1-.1-.3-.2-.4-.3-.2,0-.4-.1-.6-.1s-.4,0-.6.1c-.1,0-.2.2-.2.4s0,.3.3.4c.2,0,.4.1.7.2.2,0,.4.1.6.2.2,0,.3.2.5.4.1.1.2.3.2.6s0,.5-.2.6c-.1.2-.3.3-.6.4-.2,0-.5.1-.8.1-.7,0-1.2-.2-1.6-.6ZM129.5,235v-.9h.9v.9h-.9ZM133,235v-5.3h1.7c.4,0,.7,0,.9.2.2,0,.4.2.6.4.1.2.2.3.3.5,0,.2,0,.4,0,.6,0,.4,0,.7-.2.9-.2.2-.4.4-.6.5s-.6.2-.9.2h-1v2.1h-.8ZM133.8,232.2h1c.3,0,.6,0,.8-.3.2-.2.3-.4.3-.7s0-.5-.3-.7c-.2-.2-.4-.3-.8-.3h-1v1.9ZM139.4,235v-.4c-.2.2-.3.3-.6.4-.2,0-.5.1-.7.1s-.4,0-.6-.1c-.2,0-.4-.2-.5-.4-.1-.2-.2-.4-.2-.7s.1-.7.4-1c.3-.2.7-.4,1.2-.4s.2,0,.4,0c.1,0,.2,0,.3,0,.1,0,.2,0,.2,0h0c0-.4,0-.6-.3-.7-.2-.1-.4-.2-.7-.2s-.5,0-.7.1c-.2,0-.3.2-.4.2l-.3-.5c.1-.1.3-.2.6-.3.2-.1.6-.2,1-.2s.9.1,1.1.4c.3.2.4.6.4,1v2.2h0c0,.2,0,.3,0,.3h-.7ZM139.4,233.7v-.4s0,0-.2,0c0,0-.2,0-.3,0-.1,0-.2,0-.3,0-.3,0-.5,0-.6.1-.1,0-.2.2-.3.3,0,.1,0,.2,0,.3,0,.2,0,.3.2.5.1.1.3.2.6.2s.4,0,.5-.1c.2,0,.3-.2.4-.3.1-.1.2-.3.2-.4ZM140.9,234.5l.4-.5c.1.1.3.2.5.3s.4.1.6.1.4,0,.6-.1c.2,0,.2-.2.2-.4s0-.2,0-.3-.2-.1-.3-.2c-.2,0-.4-.1-.6-.2-.2,0-.4-.1-.6-.2-.2,0-.3-.2-.4-.3-.1-.1-.2-.3-.2-.6s0-.4.2-.6c.1-.2.3-.3.6-.4.2,0,.5-.1.7-.1s.6,0,.8.1c.2,0,.4.2.6.3l-.4.5c-.1-.1-.3-.2-.4-.3-.2,0-.4-.1-.6-.1s-.4,0-.6.1c-.1,0-.2.2-.2.4s0,.3.3.4c.2,0,.4.1.7.2.2,0,.4.1.6.2.2,0,.3.2.5.4.1.1.2.3.2.6s0,.5-.2.6c-.1.2-.3.3-.6.4-.2,0-.5.1-.8.1-.7,0-1.2-.2-1.6-.6ZM145.2,233.8v-1.9h-.7v-.6h.7v-1.2h.7v1.2h1.1v.6h-1.1v1.8c0,.3,0,.5.1.6,0,.1.2.2.4.2s.3,0,.3,0c0,0,.2-.1.3-.2l.3.4c-.2.1-.3.3-.5.3-.2,0-.4.1-.6.1-.4,0-.7-.1-.9-.3-.2-.2-.3-.6-.3-1ZM150.1,236.6h-.7v-4.9h0c0-.2,0-.3,0-.4h.7v.5c0,0,.2-.1.3-.2.1,0,.2-.2.4-.3.2,0,.4-.1.6-.1.4,0,.7,0,.9.3.3.2.4.4.6.7.1.3.2.6.2,1s0,.6-.2.9c-.1.2-.3.4-.4.6-.2.2-.4.3-.6.4-.2,0-.4.1-.7.1s-.5,0-.6,0c-.1,0-.3-.1-.4-.2v1.7ZM150.1,233.2v1c0,0,.2.1.4.2.2,0,.4,0,.6,0s.5,0,.6-.2c.2-.1.3-.3.4-.5.1-.2.2-.4.2-.7s0-.5-.1-.7c0-.2-.2-.4-.3-.5-.2-.1-.4-.2-.6-.2s-.5,0-.7.2c-.2.1-.3.3-.4.6,0,0,0,.2,0,.3,0,0,0,.2,0,.3ZM156.8,234l.4.4c0,0-.1.1-.3.3-.1.1-.3.2-.5.3-.2,0-.5.1-.8.1s-.7,0-1-.2c-.3-.2-.5-.4-.7-.7-.2-.3-.2-.7-.2-1s0-.7.2-1c.2-.3.4-.5.7-.7.3-.2.6-.3,1-.3s.8.1,1,.3c.3.2.5.5.6.8.1.3.2.7.2,1.1h-2.9c0,.2,0,.4.2.6.1.2.3.3.4.4.2,0,.4.1.6.1.3,0,.6,0,.8-.2.2-.1.4-.2.4-.3ZM154.4,232.8h2.2c0-.3-.1-.5-.3-.7s-.4-.3-.8-.3-.4,0-.6.2c-.2.1-.3.2-.4.4,0,.2-.1.3-.1.5ZM158.8,235h-.7v-3.4h0c0-.2,0-.3,0-.4h.7v.6c0,0,.2-.2.3-.3.1-.1.2-.2.4-.3s.4-.1.6-.1.2,0,.2,0c0,0,.1,0,.2,0l-.2.7c0,0-.2,0-.4,0s-.4,0-.6.2c-.2.1-.3.2-.4.4s-.1.4-.1.6v2ZM161.3,235v-3.1h-.7v-.6h.7v-.3c0-.3,0-.6.2-.8.1-.2.3-.4.5-.5.2-.1.4-.2.6-.2s.4,0,.6,0c.2,0,.4.2.5.3l-.4.5c-.2-.2-.4-.2-.6-.2s-.4,0-.5.2c-.1.1-.2.4-.2.7v.2h1.1v.6h-1.1v3.1h-.7ZM165.3,235.1c-.4,0-.7,0-1-.3-.3-.2-.5-.4-.7-.7-.2-.3-.2-.6-.2-1s0-.7.2-1c.2-.3.4-.5.7-.7.3-.2.6-.3,1-.3s.7,0,1,.3c.3.2.5.4.7.7.2.3.3.6.3,1s0,.7-.3,1c-.2.3-.4.5-.7.7-.3.2-.6.3-1,.3ZM165.3,234.5c.3,0,.5,0,.7-.2.2-.1.3-.3.4-.5.1-.2.2-.4.2-.6s0-.4-.2-.6c0-.2-.2-.4-.4-.5-.2-.1-.4-.2-.7-.2s-.5,0-.7.2c-.2.1-.3.3-.4.5,0,.2-.1.4-.1.6s0,.4.2.6c.1.2.2.4.4.5.2.1.4.2.7.2ZM168.8,235h-.7v-3.4h0c0-.2,0-.3,0-.4h.7v.6c0,0,.2-.2.3-.3.1-.1.2-.2.4-.3s.4-.1.6-.1.2,0,.2,0c0,0,.1,0,.2,0l-.2.7c0,0-.2,0-.4,0s-.4,0-.6.2c-.2.1-.3.2-.4.4,0,.2-.1.4-.1.6v2ZM171.7,235h-.7v-3.3h0c0-.2,0-.3,0-.4h.7v.6c0,0,.2-.2.3-.3.1-.1.2-.2.4-.3.2,0,.4-.1.6-.1s.5,0,.7.2c.2.1.3.3.4.5.1-.2.3-.3.6-.5.2-.1.5-.2.8-.2.5,0,.8.1,1.1.4.2.3.3.7.3,1.1v2.2h-.7v-2.2c0-.7-.3-1-.8-1s-.4,0-.5.2c-.2.1-.3.2-.4.4,0,.2-.1.3-.1.6v2.1h-.7v-2.2c0-.3,0-.6-.2-.8-.1-.2-.3-.2-.6-.2s-.5,0-.6.2c-.2.1-.3.3-.3.6,0,.2,0,.4,0,.7v1.7ZM180.2,235v-.4c-.1.2-.3.3-.6.4-.2,0-.5.1-.7.1s-.4,0-.6-.1c-.2,0-.4-.2-.5-.4-.1-.2-.2-.4-.2-.7s.1-.7.4-1c.3-.2.7-.4,1.2-.4s.2,0,.4,0c.1,0,.2,0,.3,0,.1,0,.2,0,.2,0h0c0-.4,0-.6-.3-.7-.2-.1-.4-.2-.7-.2s-.5,0-.7.1c-.2,0-.3.2-.4.2l-.3-.5c.1-.1.3-.2.6-.3.2-.1.6-.2,1-.2s.9.1,1.1.4c.3.2.4.6.4,1v2.2h0c0,.2,0,.3,0,.3h-.7ZM180.1,233.7v-.4s0,0-.2,0c0,0-.2,0-.3,0-.1,0-.2,0-.3,0-.3,0-.5,0-.6.1-.1,0-.2.2-.3.3,0,.1,0,.2,0,.3,0,.2,0,.3.2.5.1.1.3.2.6.2s.4,0,.5-.1c.2,0,.3-.2.4-.3.1-.1.2-.3.2-.4ZM182.5,235h-.7v-3.3h0c0-.2,0-.3,0-.4h.7v.6c0,0,.2-.2.3-.3.1-.1.2-.2.4-.3.2,0,.4-.1.6-.1.5,0,.8.1,1.1.4.2.3.4.7.4,1.1v2.2h-.7v-2.2c0-.3,0-.6-.2-.8-.2-.2-.4-.2-.6-.2s-.5,0-.6.2c-.2.1-.3.3-.3.5,0,.2,0,.5,0,.7v1.7ZM188.9,234l.4.5c-.2.2-.4.3-.6.5-.2.1-.5.2-.8.2s-.7,0-1-.3c-.3-.2-.5-.4-.7-.7-.2-.3-.2-.6-.2-1s0-.7.2-1c.2-.3.4-.5.7-.7.3-.2.6-.3,1-.3s.6,0,.8.2c.2.1.4.3.6.5l-.5.5c-.1-.1-.2-.2-.4-.3s-.3-.1-.6-.1-.5,0-.7.2c-.2.1-.3.3-.4.5,0,.2-.1.4-.1.7s0,.4.1.7c.1.2.2.4.4.5.2.1.4.2.7.2s.4,0,.6-.1c.2,0,.3-.2.4-.3ZM192.9,234l.4.4c0,0-.1.1-.3.3-.1.1-.3.2-.5.3-.2,0-.5.1-.8.1s-.7,0-1-.2c-.3-.2-.5-.4-.7-.7-.2-.3-.2-.7-.2-1s0-.7.2-1c.2-.3.4-.5.7-.7.3-.2.6-.3,1-.3s.8.1,1,.3c.3.2.5.5.6.8.1.3.2.7.2,1.1h-2.9c0,.2,0,.4.2.6.1.2.3.3.4.4.2,0,.4.1.6.1.3,0,.6,0,.8-.2.2-.1.4-.2.4-.3ZM190.4,232.8h2.2c0-.3-.1-.5-.3-.7s-.4-.3-.8-.3-.4,0-.6.2c-.2.1-.3.2-.4.4,0,.2-.1.3-.1.5ZM195.6,230.6v-.8h.8v.8h-.8ZM195.6,235v-3.7h.7v3.7h-.7ZM197.2,234.5l.4-.5c.1.1.3.2.5.3.2,0,.4.1.6.1s.4,0,.6-.1c.2,0,.2-.2.2-.4s0-.2,0-.3-.2-.1-.3-.2c-.2,0-.4-.1-.6-.2-.2,0-.4-.1-.6-.2-.2,0-.3-.2-.4-.3-.1-.1-.2-.3-.2-.6s0-.4.2-.6c.1-.2.3-.3.6-.4.2,0,.5-.1.7-.1s.6,0,.8.1c.2,0,.4.2.6.3l-.4.5c-.1-.1-.3-.2-.4-.3-.2,0-.4-.1-.6-.1s-.4,0-.6.1c-.1,0-.2.2-.2.4s0,.3.3.4c.2,0,.4.1.7.2.2,0,.4.1.6.2.2,0,.3.2.5.4.1.1.2.3.2.6s0,.5-.2.6c-.1.2-.3.3-.6.4-.2,0-.5.1-.8.1-.7,0-1.2-.2-1.6-.6ZM203.3,235h-.7v-3.3h0c0-.2,0-.3,0-.4h.7v.6c0,0,.2-.2.3-.3.1-.1.2-.2.4-.3.2,0,.4-.1.6-.1.5,0,.8.1,1.1.4.2.3.4.7.4,1.1v2.2h-.7v-2.2c0-.3,0-.6-.2-.8-.1-.2-.4-.2-.6-.2s-.5,0-.6.2c-.2.1-.3.3-.3.5,0,.2,0,.5,0,.7v1.7ZM208.7,235.1c-.4,0-.7,0-1-.3-.3-.2-.5-.4-.7-.7-.2-.3-.2-.6-.2-1s0-.7.2-1c.2-.3.4-.5.7-.7.3-.2.6-.3,1-.3s.7,0,1,.3c.3.2.5.4.7.7.2.3.3.6.3,1s0,.7-.3,1c-.2.3-.4.5-.7.7-.3.2-.6.3-1,.3ZM208.7,234.5c.3,0,.5,0,.7-.2.2-.1.3-.3.4-.5.1-.2.2-.4.2-.6s0-.4-.2-.6c0-.2-.2-.4-.4-.5-.2-.1-.4-.2-.7-.2s-.5,0-.7.2c-.2.1-.3.3-.4.5,0,.2-.1.4-.1.6s0,.4.2.6c.1.2.2.4.4.5.2.1.4.2.7.2ZM211.8,233.8v-1.9h-.7v-.6h.7v-1.2h.7v1.2h1.1v.6h-1.1v1.8c0,.3,0,.5.1.6,0,.1.2.2.4.2s.3,0,.3,0c0,0,.2-.1.3-.2l.3.4c-.2.1-.3.3-.5.3-.2,0-.4.1-.6.1-.4,0-.7-.1-.9-.3-.2-.2-.3-.6-.3-1ZM218.4,235v-.4c-.1.2-.3.3-.6.4-.2,0-.5.1-.7.1s-.4,0-.6-.1c-.2,0-.4-.2-.5-.4-.1-.2-.2-.4-.2-.7s.1-.7.4-1c.3-.2.7-.4,1.2-.4s.2,0,.4,0c.1,0,.2,0,.3,0,.1,0,.2,0,.2,0h0c0-.4,0-.6-.3-.7-.2-.1-.4-.2-.7-.2s-.5,0-.7.1c-.2,0-.3.2-.4.2l-.3-.5c.1-.1.3-.2.6-.3.2-.1.6-.2,1-.2s.9.1,1.1.4c.3.2.4.6.4,1v2.2h0c0,.2,0,.3,0,.3h-.7ZM218.4,233.7v-.4s0,0-.2,0c0,0-.2,0-.3,0-.1,0-.2,0-.3,0-.3,0-.5,0-.6.1-.1,0-.2.2-.3.3,0,.1,0,.2,0,.3,0,.2,0,.3.2.5.1.1.3.2.6.2s.4,0,.5-.1c.2,0,.3-.2.4-.3.1-.1.2-.3.2-.4ZM222.2,235h-.7v-3.4h0c0-.2,0-.3,0-.4h.7v.6c0,0,.2-.2.3-.3.1-.1.2-.2.4-.3.2,0,.4-.1.6-.1s.2,0,.2,0c0,0,.1,0,.2,0l-.2.7c0,0-.2,0-.4,0s-.4,0-.6.2c-.2.1-.3.2-.4.4,0,.2-.1.4-.1.6v2ZM227.2,234l.4.4c0,0-.1.1-.3.3-.1.1-.3.2-.5.3-.2,0-.5.1-.8.1s-.7,0-1-.2c-.3-.2-.5-.4-.7-.7-.2-.3-.2-.7-.2-1s0-.7.2-1c.2-.3.4-.5.7-.7.3-.2.6-.3,1-.3s.8.1,1,.3c.3.2.5.5.6.8.1.3.2.7.2,1.1h-2.9c0,.2,0,.4.2.6.1.2.3.3.4.4.2,0,.4.1.6.1.3,0,.6,0,.8-.2.2-.1.4-.2.4-.3ZM224.7,232.8h2.2c0-.3-.1-.5-.3-.7-.2-.2-.4-.3-.8-.3s-.4,0-.6.2c-.2.1-.3.2-.4.4,0,.2-.1.3-.1.5ZM228.5,235v-5.3h.7v5.3h-.7ZM230.2,230.6v-.8h.8v.8h-.8ZM230.2,235v-3.7h.7v3.7h-.7ZM234.3,235v-.4c-.1.2-.3.3-.6.4-.2,0-.5.1-.7.1s-.4,0-.6-.1c-.2,0-.4-.2-.5-.4-.1-.2-.2-.4-.2-.7s.1-.7.4-1c.3-.2.7-.4,1.2-.4s.2,0,.4,0c.1,0,.2,0,.3,0,.1,0,.2,0,.2,0h0c0-.4,0-.6-.3-.7-.2-.1-.4-.2-.7-.2s-.5,0-.7.1c-.2,0-.3.2-.4.2l-.3-.5c.1-.1.3-.2.6-.3.2-.1.6-.2,1-.2s.9.1,1.1.4c.3.2.4.6.4,1v2.2h0c0,.2,0,.3,0,.3h-.7ZM234.3,233.7v-.4s0,0-.2,0c0,0-.2,0-.3,0-.1,0-.2,0-.3,0-.3,0-.5,0-.6.1-.1,0-.2.2-.3.3,0,.1,0,.2,0,.3,0,.2,0,.3.2.5.1.1.3.2.6.2s.4,0,.5-.1c.2,0,.3-.2.4-.3.1-.1.2-.3.2-.4ZM235.9,234.9v-5.2h.7v2c0-.1.2-.2.4-.3.2-.1.4-.2.8-.2s.7,0,.9.3c.3.2.4.4.6.7.1.3.2.6.2,1s0,.7-.3,1c-.2.3-.4.5-.7.7-.3.2-.7.3-1.1.3s-.6,0-.8,0c-.3,0-.5-.1-.6-.2ZM236.7,232.9v1.5c0,0,.2,0,.3,0,.1,0,.3,0,.5,0,.4,0,.7-.1,1-.4.3-.3.4-.6.4-1s0-.4-.1-.6c0-.2-.2-.4-.3-.5-.2-.1-.4-.2-.6-.2s-.4,0-.6.2c-.2.1-.3.2-.4.4,0,.2-.1.3-.1.5ZM240.3,235v-5.3h.7v5.3h-.7ZM245,234l.4.4c0,0-.1.1-.3.3-.1.1-.3.2-.5.3-.2,0-.5.1-.8.1s-.7,0-1-.2c-.3-.2-.5-.4-.7-.7-.2-.3-.2-.7-.2-1s0-.7.2-1c.2-.3.4-.5.7-.7.3-.2.6-.3,1-.3s.8.1,1,.3c.3.2.5.5.6.8.1.3.2.7.2,1.1h-2.9c0,.2,0,.4.2.6.1.2.3.3.4.4.2,0,.4.1.6.1.3,0,.6,0,.8-.2.2-.1.4-.2.4-.3ZM242.6,232.8h2.2c0-.3-.1-.5-.3-.7-.2-.2-.4-.3-.8-.3s-.4,0-.6.2c-.2.1-.3.2-.4.4,0,.2-.1.3-.1.5ZM247.7,230.6v-.8h.8v.8h-.8ZM247.8,235v-3.7h.7v3.7h-.7ZM250.2,235h-.7v-3.3h0c0-.2,0-.3,0-.4h.7v.6c0,0,.2-.2.3-.3.1-.1.2-.2.4-.3.2,0,.4-.1.6-.1.5,0,.8.1,1.1.4.2.3.4.7.4,1.1v2.2h-.7v-2.2c0-.3,0-.6-.2-.8-.1-.2-.4-.2-.6-.2s-.5,0-.6.2c-.2.1-.3.3-.3.5,0,.2,0,.5,0,.7v1.7ZM256.6,235v-.5c0,0-.1.1-.2.2,0,0-.2.2-.4.3-.2,0-.4.1-.6.1s-.6,0-.8-.2c-.3-.2-.4-.4-.6-.7-.1-.3-.2-.6-.2-1s0-.7.2-.9c.1-.3.3-.5.5-.6s.4-.3.6-.4c.2,0,.4-.1.6-.1s.4,0,.5,0c.1,0,.3.1.4.2v-1.8h.7v5.1c0,0,0,.1,0,.2h-.7ZM256.6,233.4v-1.3c0,0-.2-.1-.4-.2-.2,0-.3,0-.5,0-.3,0-.6.1-.9.4-.2.2-.3.6-.3,1s0,.5.1.6c0,.2.2.4.4.5.2.1.4.2.6.2s.4,0,.6-.2c.2-.1.3-.3.3-.4,0-.2.1-.3.1-.5ZM258.3,230.6v-.8h.8v.8h-.8ZM258.3,235v-3.7h.7v3.7h-.7ZM262.8,234l.4.5c-.2.2-.4.3-.6.5-.2.1-.5.2-.8.2s-.7,0-1-.3c-.3-.2-.5-.4-.7-.7-.2-.3-.2-.6-.2-1s0-.7.2-1c.2-.3.4-.5.7-.7.3-.2.6-.3,1-.3s.6,0,.8.2.4.3.6.5l-.5.5c-.1-.1-.2-.2-.4-.3s-.3-.1-.6-.1-.5,0-.7.2c-.2.1-.3.3-.4.5,0,.2-.1.4-.1.7s0,.4.1.7c.1.2.2.4.4.5.2.1.4.2.7.2s.4,0,.6-.1c.2,0,.3-.2.4-.3ZM266.3,235v-.4c-.1.2-.3.3-.6.4-.2,0-.5.1-.7.1s-.4,0-.6-.1c-.2,0-.4-.2-.5-.4-.1-.2-.2-.4-.2-.7s.1-.7.4-1c.3-.2.7-.4,1.2-.4s.2,0,.4,0c.1,0,.2,0,.3,0,.1,0,.2,0,.2,0h0c0-.4,0-.6-.3-.7-.2-.1-.4-.2-.7-.2s-.5,0-.7.1c-.2,0-.3.2-.4.2l-.3-.5c.1-.1.3-.2.6-.3.2-.1.6-.2,1-.2s.9.1,1.1.4c.3.2.4.6.4,1v2.2h0c0,.2,0,.3,0,.3h-.7ZM266.3,233.7v-.4s0,0-.2,0c0,0-.2,0-.3,0-.1,0-.2,0-.3,0-.3,0-.5,0-.6.1-.1,0-.2.2-.3.3,0,.1,0,.2,0,.3,0,.2,0,.3.2.5.1.1.3.2.6.2s.4,0,.5-.1c.2,0,.3-.2.4-.3.1-.1.2-.3.2-.4ZM268.3,233.8v-1.9h-.7v-.6h.7v-1.2h.7v1.2h1.1v.6h-1.1v1.8c0,.3,0,.5.1.6,0,.1.2.2.4.2s.3,0,.3,0c0,0,.2-.1.3-.2l.3.4c-.2.1-.3.3-.5.3-.2,0-.4.1-.6.1-.4,0-.7-.1-.9-.3-.2-.2-.3-.6-.3-1ZM272.6,235.1c-.4,0-.7,0-1-.3-.3-.2-.5-.4-.7-.7-.2-.3-.2-.6-.2-1s0-.7.2-1c.2-.3.4-.5.7-.7.3-.2.6-.3,1-.3s.7,0,1,.3c.3.2.5.4.7.7.2.3.3.6.3,1s0,.7-.3,1c-.2.3-.4.5-.7.7-.3.2-.6.3-1,.3ZM272.6,234.5c.3,0,.5,0,.7-.2.2-.1.3-.3.4-.5.1-.2.2-.4.2-.6s0-.4-.2-.6c0-.2-.2-.4-.4-.5-.2-.1-.4-.2-.7-.2s-.5,0-.7.2c-.2.1-.3.3-.4.5,0,.2-.1.4-.1.6s0,.4.2.6c.1.2.2.4.4.5.2.1.4.2.7.2ZM276.1,235h-.7v-3.4h0c0-.2,0-.3,0-.4h.7v.6c0,0,.2-.2.3-.3.1-.1.2-.2.4-.3s.4-.1.6-.1.2,0,.2,0c0,0,.1,0,.2,0l-.2.7c0,0-.2,0-.4,0s-.4,0-.6.2c-.2.1-.3.2-.4.4s-.1.4-.1.6v2ZM281.5,235.1c-.4,0-.7,0-1-.3-.3-.2-.5-.4-.7-.7-.2-.3-.2-.6-.2-1s0-.7.2-1c.2-.3.4-.5.7-.7.3-.2.6-.3,1-.3s.7,0,1,.3c.3.2.5.4.7.7.2.3.3.6.3,1s0,.7-.3,1c-.2.3-.4.5-.7.7-.3.2-.6.3-1,.3ZM281.5,234.5c.3,0,.5,0,.7-.2.2-.1.3-.3.4-.5.1-.2.2-.4.2-.6s0-.4-.2-.6c0-.2-.2-.4-.4-.5-.2-.1-.4-.2-.7-.2s-.5,0-.7.2c-.2.1-.3.3-.4.5,0,.2-.1.4-.1.6s0,.4.2.6c.1.2.2.4.4.5.2.1.4.2.7.2ZM284.6,235v-3.1h-.7v-.6h.7v-.3c0-.3,0-.6.2-.8.1-.2.3-.4.5-.5.2-.1.4-.2.6-.2s.4,0,.6,0c.2,0,.4.2.5.3l-.4.5c-.2-.2-.4-.2-.6-.2s-.4,0-.5.2c-.1.1-.2.4-.2.7v.2h1.1v.6h-1.1v3.1h-.7ZM59.9,242v-3.1h-.7v-.6h.7v-.3c0-.3,0-.6.2-.8.1-.2.3-.4.5-.5.2-.1.4-.2.6-.2s.4,0,.6,0c.2,0,.4.2.5.3l-.4.5c-.2-.2-.4-.2-.6-.2s-.4,0-.5.2c-.1.1-.2.4-.2.7v.2h1.1v.6h-1.1v3.1h-.7ZM62.2,240.5v-2.2h.7v2.2c0,.3,0,.6.2.8s.4.2.6.2.5,0,.6-.2c.2-.1.3-.3.3-.5,0-.2.1-.5.1-.7v-1.7h.7v3.5c0,0,0,.1,0,.2h-.7v-.6c0,0-.2.2-.3.3-.1,0-.2.2-.4.2-.2,0-.4.1-.6.1-.5,0-.8-.1-1.1-.4-.2-.3-.3-.7-.3-1.1ZM66.9,240.8v-1.9h-.7v-.6h.7v-1.2h.7v1.2h1.1v.6h-1.1v1.8c0,.3,0,.5.1.6,0,.1.2.2.4.2s.3,0,.3,0c0,0,.2-.1.3-.2l.3.4c-.2.1-.3.3-.5.3-.2,0-.4.1-.6.1-.4,0-.7-.1-.9-.3-.2-.2-.3-.6-.3-1ZM69.5,240.5v-2.2h.7v2.2c0,.3,0,.6.2.8.1.2.4.2.6.2s.5,0,.6-.2c.2-.1.3-.3.3-.5,0-.2.1-.5.1-.7v-1.7h.7v3.5c0,0,0,.1,0,.2h-.7v-.6c0,0-.2.2-.3.3-.1,0-.2.2-.4.2-.2,0-.4.1-.6.1-.5,0-.8-.1-1.1-.4-.2-.3-.3-.7-.3-1.1ZM74.6,242h-.7v-3.4h0c0-.2,0-.3,0-.4h.7v.6c0,0,.2-.2.3-.3.1-.1.2-.2.4-.3.2,0,.4-.1.6-.1s.2,0,.2,0c0,0,.1,0,.2,0l-.2.7c0,0-.2,0-.4,0s-.4,0-.6.2c-.2.1-.3.2-.4.4s-.1.4-.1.6v2ZM79.6,241l.4.4c0,0-.1.1-.3.3-.1.1-.3.2-.5.3-.2,0-.5.1-.8.1s-.7,0-1-.2c-.3-.2-.5-.4-.7-.7-.2-.3-.2-.7-.2-1s0-.7.2-1c.2-.3.4-.5.7-.7.3-.2.6-.3,1-.3s.8.1,1,.3c.3.2.5.5.6.8.1.3.2.7.2,1.1h-2.9c0,.2,0,.4.2.6.1.2.3.3.4.4.2,0,.4.1.6.1.3,0,.6,0,.8-.2.2-.1.4-.2.4-.3ZM77.1,239.8h2.2c0-.3-.1-.5-.3-.7-.2-.2-.4-.3-.8-.3s-.4,0-.6.2c-.2.1-.3.2-.4.4,0,.2-.1.3-.1.5ZM83,243.6h-.7v-4.9h0c0-.2,0-.3,0-.4h.7v.5c0,0,.2-.1.3-.2.1,0,.2-.2.4-.3.2,0,.4-.1.6-.1.4,0,.7,0,.9.3.3.2.4.4.6.7.1.3.2.6.2,1s0,.6-.2.9c-.1.2-.3.4-.4.6-.2.2-.4.3-.6.4-.2,0-.4.1-.7.1s-.5,0-.6,0c-.1,0-.3-.1-.4-.2v1.7ZM83,240.2v1c0,0,.2.1.4.2.2,0,.4,0,.6,0s.5,0,.6-.2c.2-.1.3-.3.4-.5.1-.2.2-.4.2-.7s0-.5-.1-.7c0-.2-.2-.4-.3-.5-.2-.1-.4-.2-.6-.2s-.5,0-.7.2c-.2.1-.3.3-.4.6,0,0,0,.2,0,.3,0,0,0,.2,0,.3ZM89.8,241l.4.4c0,0-.1.1-.3.3-.1.1-.3.2-.5.3-.2,0-.5.1-.8.1s-.7,0-1-.2c-.3-.2-.5-.4-.7-.7-.2-.3-.2-.7-.2-1s0-.7.2-1c.2-.3.4-.5.7-.7.3-.2.6-.3,1-.3s.8.1,1,.3c.3.2.5.5.6.8.1.3.2.7.2,1.1h-2.9c0,.2,0,.4.2.6.1.2.3.3.4.4.2,0,.4.1.6.1.3,0,.6,0,.8-.2.2-.1.4-.2.4-.3ZM87.3,239.8h2.2c0-.3-.1-.5-.3-.7-.2-.2-.4-.3-.8-.3s-.4,0-.6.2c-.2.1-.3.2-.4.4,0,.2-.1.3-.1.5ZM91.8,242h-.7v-3.4h0c0-.2,0-.3,0-.4h.7v.6c0,0,.2-.2.3-.3.1-.1.2-.2.4-.3.2,0,.4-.1.6-.1s.2,0,.2,0c0,0,.1,0,.2,0l-.2.7c0,0-.2,0-.4,0s-.4,0-.6.2c-.2.1-.3.2-.4.4s-.1.4-.1.6v2ZM94.3,242v-3.1h-.7v-.6h.7v-.3c0-.3,0-.6.2-.8.1-.2.3-.4.5-.5.2-.1.4-.2.6-.2s.4,0,.6,0c.2,0,.4.2.5.3l-.4.5c-.2-.2-.4-.2-.6-.2s-.4,0-.5.2c-.1.1-.2.4-.2.7v.2h1.1v.6h-1.1v3.1h-.7ZM98.3,242.1c-.4,0-.7,0-1-.3-.3-.2-.5-.4-.7-.7-.2-.3-.2-.6-.2-1s0-.7.2-1c.2-.3.4-.5.7-.7.3-.2.6-.3,1-.3s.7,0,1,.3c.3.2.5.4.7.7.2.3.3.6.3,1s0,.7-.3,1c-.2.3-.4.5-.7.7-.3.2-.6.3-1,.3ZM98.3,241.5c.3,0,.5,0,.7-.2.2-.1.3-.3.4-.5.1-.2.2-.4.2-.6s0-.4-.2-.6c0-.2-.2-.4-.4-.5-.2-.1-.4-.2-.7-.2s-.5,0-.7.2c-.2.1-.3.3-.4.5,0,.2-.1.4-.1.6s0,.4.2.6c.1.2.2.4.4.5.2.1.4.2.7.2ZM101.8,242h-.7v-3.4h0c0-.2,0-.3,0-.4h.7v.6c0,0,.2-.2.3-.3.1-.1.2-.2.4-.3.2,0,.4-.1.6-.1s.2,0,.2,0c0,0,.1,0,.2,0l-.2.7c0,0-.2,0-.4,0s-.4,0-.6.2c-.2.1-.3.2-.4.4s-.1.4-.1.6v2ZM104.7,242h-.7v-3.3h0c0-.2,0-.3,0-.4h.7v.6c0,0,.2-.2.3-.3.1-.1.2-.2.4-.3.2,0,.4-.1.6-.1s.5,0,.7.2c.2.1.3.3.4.5.1-.2.3-.3.6-.5.2-.1.5-.2.8-.2.5,0,.8.1,1.1.4.2.3.3.7.3,1.1v2.2h-.7v-2.2c0-.7-.3-1-.8-1s-.4,0-.5.2c-.2.1-.3.2-.4.4,0,.2-.1.3-.1.6v2.1h-.7v-2.2c0-.3,0-.6-.2-.8-.1-.2-.3-.2-.6-.2s-.5,0-.6.2c-.2.1-.3.3-.3.6,0,.2,0,.4,0,.7v1.7ZM113.1,242v-.4c-.2.2-.3.3-.6.4-.2,0-.5.1-.7.1s-.4,0-.6-.1c-.2,0-.4-.2-.5-.4-.1-.2-.2-.4-.2-.7s.1-.7.4-1c.3-.2.7-.4,1.2-.4s.2,0,.4,0c.1,0,.2,0,.3,0,.1,0,.2,0,.2,0h0c0-.4,0-.6-.3-.7-.2-.1-.4-.2-.7-.2s-.5,0-.7.1c-.2,0-.3.2-.4.2l-.3-.5c.1-.1.3-.2.6-.3.2-.1.6-.2,1-.2s.8.1,1.1.4c.3.2.4.6.4,1v2.2h0c0,.2,0,.3,0,.3h-.7ZM113.1,240.7v-.4s0,0-.2,0c0,0-.2,0-.3,0-.1,0-.2,0-.3,0-.3,0-.5,0-.6.1-.1,0-.2.2-.3.3,0,.1,0,.2,0,.3,0,.2,0,.3.2.5.1.1.3.2.6.2s.4,0,.5-.1c.2,0,.3-.2.4-.3.1-.1.2-.3.2-.4ZM115.5,242h-.7v-3.3h0c0-.2,0-.3,0-.4h.7v.6c0,0,.2-.2.3-.3.1-.1.2-.2.4-.3.2,0,.4-.1.6-.1.5,0,.8.1,1.1.4.2.3.4.7.4,1.1v2.2h-.7v-2.2c0-.3,0-.6-.2-.8-.1-.2-.4-.2-.6-.2s-.5,0-.6.2c-.2.1-.3.3-.3.5,0,.2,0,.5,0,.7v1.7ZM121.9,241l.4.5c-.2.2-.4.3-.6.5-.2.1-.5.2-.8.2s-.7,0-1-.3c-.3-.2-.5-.4-.7-.7-.2-.3-.2-.6-.2-1s0-.7.2-1c.2-.3.4-.5.7-.7.3-.2.6-.3,1-.3s.6,0,.8.2c.2.1.4.3.6.5l-.5.5c-.1-.1-.2-.2-.4-.3-.2,0-.3-.1-.6-.1s-.5,0-.7.2c-.2.1-.3.3-.4.5s-.1.4-.1.7,0,.4.1.7c.1.2.2.4.4.5.2.1.4.2.7.2s.4,0,.6-.1c.2,0,.3-.2.4-.3ZM125.8,241l.4.4c0,0-.1.1-.3.3-.1.1-.3.2-.5.3-.2,0-.5.1-.8.1s-.7,0-1-.2c-.3-.2-.5-.4-.7-.7-.2-.3-.2-.7-.2-1s0-.7.2-1c.2-.3.4-.5.7-.7.3-.2.6-.3,1-.3s.8.1,1,.3c.3.2.5.5.6.8.1.3.2.7.2,1.1h-2.9c0,.2,0,.4.2.6.1.2.3.3.4.4.2,0,.4.1.6.1.3,0,.6,0,.8-.2.2-.1.4-.2.4-.3ZM123.4,239.8h2.2c0-.3-.1-.5-.3-.7s-.4-.3-.8-.3-.4,0-.6.2c-.2.1-.3.2-.4.4,0,.2-.1.3-.1.5ZM127.2,242v-.9h.9v.9h-.9ZM130.7,242v-5.3h.8v5.3h-.8ZM132.4,241.5l.4-.5c.1.1.3.2.5.3s.4.1.6.1.4,0,.6-.1c.2,0,.2-.2.2-.4s0-.2,0-.3-.2-.1-.3-.2c-.2,0-.4-.1-.6-.2-.2,0-.4-.1-.6-.2-.2,0-.3-.2-.4-.3-.1-.1-.2-.3-.2-.6s0-.4.2-.6c.1-.2.3-.3.6-.4.2,0,.5-.1.7-.1s.6,0,.8.1c.2,0,.4.2.6.3l-.4.5c-.1-.1-.3-.2-.4-.3-.2,0-.4-.1-.6-.1s-.4,0-.6.1c-.1,0-.2.2-.2.4s0,.3.3.4c.2,0,.4.1.7.2.2,0,.4.1.6.2.2,0,.3.2.5.4.1.1.2.3.2.6s0,.5-.2.6c-.1.2-.3.3-.6.4-.2,0-.5.1-.8.1-.7,0-1.2-.2-1.6-.6ZM136.2,241.5l.4-.5c.1.1.3.2.5.3.2,0,.4.1.6.1s.4,0,.6-.1c.2,0,.2-.2.2-.4s0-.2,0-.3c0,0-.2-.1-.3-.2-.2,0-.4-.1-.6-.2-.2,0-.4-.1-.6-.2-.2,0-.3-.2-.4-.3-.1-.1-.2-.3-.2-.6s0-.4.2-.6c.1-.2.3-.3.6-.4.2,0,.5-.1.7-.1s.6,0,.8.1c.2,0,.4.2.6.3l-.4.5c-.1-.1-.3-.2-.4-.3-.2,0-.4-.1-.6-.1s-.4,0-.6.1c-.1,0-.2.2-.2.4s0,.3.3.4c.2,0,.4.1.7.2.2,0,.4.1.6.2.2,0,.3.2.5.4.1.1.2.3.2.6s0,.5-.2.6c-.1.2-.3.3-.6.4-.2,0-.5.1-.8.1-.7,0-1.2-.2-1.6-.6ZM140.1,240.5v-2.2h.7v2.2c0,.3,0,.6.2.8s.4.2.6.2.5,0,.6-.2c.2-.1.3-.3.3-.5,0-.2.1-.5.1-.7v-1.7h.7v3.5c0,0,0,.1,0,.2h-.7v-.6c0,0-.2.2-.3.3-.1,0-.2.2-.4.2-.2,0-.4.1-.6.1-.5,0-.8-.1-1.1-.4-.2-.3-.3-.7-.3-1.1ZM147.4,241l.4.4c0,0-.1.1-.3.3-.1.1-.3.2-.5.3-.2,0-.5.1-.8.1s-.7,0-1-.2c-.3-.2-.5-.4-.7-.7-.2-.3-.2-.7-.2-1s0-.7.2-1c.2-.3.4-.5.7-.7.3-.2.6-.3,1-.3s.8.1,1,.3c.3.2.5.5.6.8.1.3.2.7.2,1.1h-2.9c0,.2,0,.4.2.6.1.2.3.3.4.4.2,0,.4.1.6.1.3,0,.6,0,.8-.2.2-.1.4-.2.4-.3ZM145,239.8h2.2c0-.3-.1-.5-.3-.7-.2-.2-.4-.3-.8-.3s-.4,0-.6.2c-.2.1-.3.2-.4.4,0,.2-.1.3-.1.5ZM151.5,242v-.5c0,0-.1.1-.2.2,0,0-.2.2-.4.3-.2,0-.4.1-.6.1s-.6,0-.8-.2c-.3-.2-.4-.4-.6-.7-.1-.3-.2-.6-.2-1s0-.7.2-.9c.1-.3.3-.5.5-.6s.4-.3.6-.4c.2,0,.4-.1.6-.1s.4,0,.5,0c.1,0,.3.1.4.2v-1.8h.7v5.1c0,0,0,.1,0,.2h-.7ZM151.4,240.4v-1.3c0,0-.2-.1-.4-.2-.1,0-.3,0-.5,0-.3,0-.6.1-.9.4-.2.2-.3.6-.3,1s0,.5.1.6c0,.2.2.4.4.5.2.1.4.2.6.2s.4,0,.6-.2c.2-.1.3-.3.3-.4,0-.2.1-.3.1-.5ZM154.6,241.9v-5.2h.7v2c0-.1.2-.2.4-.3.2-.1.4-.2.8-.2s.7,0,.9.3c.3.2.4.4.6.7.1.3.2.6.2,1s0,.7-.3,1c-.2.3-.4.5-.7.7-.3.2-.7.3-1.1.3s-.6,0-.8,0c-.3,0-.5-.1-.6-.2ZM155.3,239.9v1.5c0,0,.2,0,.3,0,.1,0,.3,0,.5,0,.4,0,.7-.1,1-.4.2-.3.4-.6.4-1s0-.4-.1-.6c0-.2-.2-.4-.3-.5-.2-.1-.4-.2-.6-.2s-.4,0-.6.2c-.2.1-.3.2-.4.4,0,.2-.1.3-.1.5ZM158.5,243.4l.3-.5c0,0,.1,0,.2.1,0,0,.2,0,.3,0,.2,0,.3,0,.4-.2,0-.1.2-.4.3-.7v-.2c0,0-1.6-3.7-1.6-3.7h.8l1.2,2.8,1.1-2.8h.8l-1.5,3.6c0,.2-.1.3-.2.6,0,.2-.2.4-.3.6-.1.2-.2.3-.4.5-.2.1-.3.2-.6.2s-.3,0-.5,0c-.1,0-.2-.1-.3-.2ZM164.4,242v-5.3h.8v2.2h2.9v-2.2h.8v5.3h-.8v-2.4h-2.9v2.4h-.8ZM171.7,242.1c-.4,0-.7,0-1-.3-.3-.2-.5-.4-.7-.7-.2-.3-.2-.6-.2-1s0-.7.2-1c.2-.3.4-.5.7-.7.3-.2.6-.3,1-.3s.7,0,1,.3c.3.2.5.4.7.7s.3.6.3,1,0,.7-.3,1c-.2.3-.4.5-.7.7-.3.2-.6.3-1,.3ZM171.7,241.5c.3,0,.5,0,.7-.2.2-.1.3-.3.4-.5.1-.2.2-.4.2-.6s0-.4-.2-.6c0-.2-.2-.4-.4-.5-.2-.1-.4-.2-.7-.2s-.5,0-.7.2c-.2.1-.3.3-.4.5,0,.2-.1.4-.1.6s0,.4.2.6c.1.2.2.4.4.5.2.1.4.2.7.2ZM174.3,241.5l.4-.5c.1.1.3.2.5.3.2,0,.4.1.6.1s.4,0,.6-.1c.2,0,.2-.2.2-.4s0-.2,0-.3c0,0-.2-.1-.3-.2-.2,0-.4-.1-.6-.2-.2,0-.4-.1-.6-.2-.2,0-.3-.2-.4-.3-.1-.1-.2-.3-.2-.6s0-.4.2-.6c.1-.2.3-.3.6-.4.2,0,.5-.1.7-.1s.6,0,.8.1c.2,0,.4.2.6.3l-.4.5c-.1-.1-.3-.2-.4-.3-.2,0-.4-.1-.6-.1s-.4,0-.6.1c-.1,0-.2.2-.2.4s0,.3.3.4c.2,0,.4.1.7.2.2,0,.4.1.6.2.2,0,.3.2.5.4.1.1.2.3.2.6s0,.5-.2.6c-.1.2-.3.3-.6.4-.2,0-.5.1-.8.1-.7,0-1.2-.2-1.6-.6ZM178.6,240.8v-1.9h-.7v-.6h.7v-1.2h.7v1.2h1.1v.6h-1.1v1.8c0,.3,0,.5.1.6,0,.1.2.2.4.2s.3,0,.3,0c0,0,.2-.1.3-.2l.3.4c-.2.1-.3.3-.5.3-.2,0-.4.1-.6.1-.4,0-.7-.1-.9-.3-.2-.2-.3-.6-.3-1ZM181.2,240.1v-.7h2.3v.7h-2.3ZM184.7,242v-5.3h1.7c.4,0,.7,0,.9.2.2,0,.4.2.6.4.1.2.2.3.3.5,0,.2,0,.4,0,.6,0,.4,0,.7-.2.9-.2.2-.4.4-.6.5s-.6.2-.9.2h-1v2.1h-.8ZM185.5,239.2h1c.3,0,.6,0,.8-.3.2-.2.3-.4.3-.7s0-.5-.3-.7c-.2-.2-.4-.3-.8-.3h-1v1.9ZM189,242v-5.3h.7v5.3h-.7ZM190.7,240.5v-2.2h.7v2.2c0,.3,0,.6.2.8s.4.2.6.2.5,0,.6-.2c.2-.1.3-.3.3-.5,0-.2.1-.5.1-.7v-1.7h.7v3.5c0,0,0,.1,0,.2h-.7v-.6c0,0-.2.2-.3.3-.1,0-.2.2-.4.2-.2,0-.4.1-.6.1-.5,0-.8-.1-1.1-.4-.2-.3-.3-.7-.3-1.1ZM194.8,241.5l.4-.5c.1.1.3.2.5.3.2,0,.4.1.6.1s.4,0,.6-.1c.2,0,.2-.2.2-.4s0-.2,0-.3c0,0-.2-.1-.3-.2-.2,0-.4-.1-.6-.2-.2,0-.4-.1-.6-.2-.2,0-.3-.2-.4-.3-.1-.1-.2-.3-.2-.6s0-.4.2-.6c.1-.2.3-.3.6-.4.2,0,.5-.1.7-.1s.6,0,.8.1c.2,0,.4.2.6.3l-.4.5c-.1-.1-.3-.2-.4-.3-.2,0-.4-.1-.6-.1s-.4,0-.6.1c-.1,0-.2.2-.2.4s0,.3.3.4c.2,0,.4.1.7.2.2,0,.4.1.6.2.2,0,.3.2.5.4.1.1.2.3.2.6s0,.5-.2.6c-.1.2-.3.3-.6.4-.2,0-.5.1-.8.1-.7,0-1.2-.2-1.6-.6ZM200.3,242v-5.3h1.7c.4,0,.7,0,.9.2.2,0,.4.2.6.4.1.2.2.3.3.5,0,.2,0,.4,0,.6,0,.4,0,.7-.2.9-.2.2-.4.4-.6.5s-.6.2-.9.2h-1v2.1h-.8ZM201.1,239.2h1c.3,0,.6,0,.8-.3.2-.2.3-.4.3-.7s0-.5-.3-.7c-.2-.2-.4-.3-.8-.3h-1v1.9ZM205.1,240.8v-1.9h-.7v-.6h.7v-1.2h.7v1.2h1.1v.6h-1.1v1.8c0,.3,0,.5.1.6,0,.1.2.2.4.2s.3,0,.3,0c0,0,.2-.1.3-.2l.3.4c-.2.1-.3.3-.5.3-.2,0-.4.1-.6.1-.4,0-.7-.1-.9-.3-.2-.2-.3-.6-.3-1ZM207.4,243.4l.3-.5c0,0,.1,0,.2.1,0,0,.2,0,.3,0,.2,0,.3,0,.4-.2,0-.1.2-.4.3-.7v-.2c0,0-1.6-3.7-1.6-3.7h.8l1.2,2.8,1.1-2.8h.8l-1.5,3.6c0,.2-.1.3-.2.6,0,.2-.2.4-.3.6-.1.2-.2.3-.4.5-.2.1-.3.2-.6.2s-.3,0-.5,0c-.1,0-.2-.1-.3-.2ZM213.2,242v-5.3h.8v4.7h2.8v.7h-3.5ZM217.5,237.6v-.8h.8v.8h-.8ZM217.6,242v-3.7h.7v3.7h-.7ZM220,242h-.7v-3.3h0c0-.2,0-.3,0-.4h.7v.6c0,0,.2-.2.3-.3.1-.1.2-.2.4-.3.2,0,.4-.1.6-.1s.5,0,.7.2c.2.1.3.3.4.5.1-.2.3-.3.6-.5.2-.1.5-.2.8-.2.5,0,.8.1,1.1.4.2.3.3.7.3,1.1v2.2h-.7v-2.2c0-.7-.3-1-.8-1s-.4,0-.5.2c-.2.1-.3.2-.4.4,0,.2-.1.3-.1.6v2.1h-.7v-2.2c0-.3,0-.6-.2-.8-.1-.2-.3-.2-.6-.2s-.5,0-.6.2-.3.3-.3.6c0,.2,0,.4,0,.7v1.7ZM226.1,237.6v-.8h.8v.8h-.8ZM226.1,242v-3.7h.7v3.7h-.7ZM228.2,240.8v-1.9h-.7v-.6h.7v-1.2h.7v1.2h1.1v.6h-1.1v1.8c0,.3,0,.5.1.6,0,.1.2.2.4.2s.3,0,.3,0c0,0,.2-.1.3-.2l.3.4c-.2.1-.3.3-.5.3-.2,0-.4.1-.6.1-.4,0-.7-.1-.9-.3-.2-.2-.3-.6-.3-1ZM233.7,241l.4.4c0,0-.1.1-.3.3-.1.1-.3.2-.5.3-.2,0-.5.1-.8.1s-.7,0-1-.2c-.3-.2-.5-.4-.7-.7-.2-.3-.2-.7-.2-1s0-.7.2-1c.2-.3.4-.5.7-.7.3-.2.6-.3,1-.3s.8.1,1,.3c.3.2.5.5.6.8.1.3.2.7.2,1.1h-2.9c0,.2,0,.4.2.6.1.2.3.3.4.4.2,0,.4.1.6.1.3,0,.6,0,.8-.2.2-.1.4-.2.4-.3ZM231.2,239.8h2.2c0-.3-.1-.5-.3-.7-.2-.2-.4-.3-.8-.3s-.4,0-.6.2c-.2.1-.3.2-.4.4,0,.2-.1.3-.1.5ZM237.7,242v-.5c0,0-.1.1-.2.2,0,0-.2.2-.4.3-.2,0-.4.1-.6.1s-.6,0-.8-.2c-.2-.2-.4-.4-.6-.7-.1-.3-.2-.6-.2-1s0-.7.2-.9c.1-.3.3-.5.5-.6s.4-.3.6-.4c.2,0,.4-.1.6-.1s.4,0,.5,0c.1,0,.3.1.4.2v-1.8h.7v5.1c0,0,0,.1,0,.2h-.7ZM237.7,240.4v-1.3c0,0-.2-.1-.4-.2-.1,0-.3,0-.5,0-.3,0-.6.1-.9.4-.2.2-.3.6-.3,1s0,.5.1.6c0,.2.2.4.4.5.2.1.4.2.6.2s.5,0,.6-.2c.2-.1.3-.3.3-.4,0-.2.1-.3.1-.5ZM239.5,242v-.9h.9v.9h-.9Z" fill="#99a9bb" stroke-width="0"/>
</svg>