<svg width="20" height="20" viewBox="0 0 20 20" xmlns="http://www.w3.org/2000/svg" xmlns:xlink="http://www.w3.org/1999/xlink" fill="none" overflow="hidden"><path d="M9.92328 1.24133C14.7185 1.24133 18.6057 5.12859 18.6057 9.92377 18.6057 14.719 14.7185 18.6062 9.92328 18.6062 5.1281 18.6062 1.24084 14.719 1.24084 9.92377 1.24084 5.12859 5.1281 1.24133 9.92328 1.24133ZM9.92328 2.54386C5.84738 2.54386 2.54338 5.84787 2.54338 9.92377 2.54338 13.9996 5.84738 17.3037 9.92328 17.3037 13.9991 17.3037 17.3032 13.9996 17.3032 9.92377 17.3032 5.84787 13.9991 2.54386 9.92328 2.54386ZM8.83798 13.3969 7.53544 13.3969 7.53544 6.45063 8.83798 6.45063 8.83798 13.3969ZM12.3111 13.3969 11.0086 13.3969 11.0086 6.45063 12.3111 6.45063 12.3111 13.3969Z" fill="#00A3AD"/></svg>