<svg width="147" height="17" viewBox="0 0 147 17" fill="none" xmlns="http://www.w3.org/2000/svg">
<path d="M0.312 13V1.56H3.992C6.552 1.56 8.232 2.696 8.232 5.096V5.16C8.232 7.576 6.488 8.648 4.04 8.648H2.44V13H0.312ZM2.44 7.112H3.992C5.4 7.112 6.152 6.424 6.152 5.16V5.096C6.152 3.736 5.352 3.208 3.992 3.208H2.44V7.112ZM13.0916 11.656C14.5316 11.656 15.3956 10.584 15.3956 8.872V8.76C15.3956 7.032 14.5316 5.976 13.0916 5.976C11.6516 5.976 10.7716 7.016 10.7716 8.744V8.872C10.7716 10.584 11.6196 11.656 13.0916 11.656ZM13.0756 13.16C10.6116 13.16 8.78763 11.448 8.78763 8.904V8.776C8.78763 6.184 10.6276 4.456 13.0916 4.456C15.5396 4.456 17.3796 6.168 17.3796 8.728V8.856C17.3796 11.464 15.5396 13.16 13.0756 13.16ZM21.6569 13.144C19.9929 13.144 19.1289 12.248 19.1289 10.664V6.088H18.0089V4.632H19.1289V2.792H21.0649V4.632H22.9049V6.088H21.0649V10.488C21.0649 11.224 21.4169 11.56 22.0249 11.56C22.4089 11.56 22.6969 11.512 22.9689 11.4V12.936C22.6649 13.048 22.2489 13.144 21.6569 13.144ZM26.6653 13.16C25.1293 13.16 23.8653 12.424 23.8653 10.68C23.8653 8.728 25.7533 8.024 28.1533 8.024H29.1933V7.592C29.1933 6.472 28.8093 5.912 27.6733 5.912C26.6653 5.912 26.1693 6.392 26.0733 7.224H24.2013C24.3613 5.272 25.9133 4.456 27.7853 4.456C29.6573 4.456 31.1293 5.224 31.1293 7.512V13H29.2253V11.976C28.6813 12.696 27.9453 13.16 26.6653 13.16ZM27.1293 11.768C28.3133 11.768 29.1933 11.144 29.1933 10.072V9.24H28.2013C26.7293 9.24 25.7853 9.576 25.7853 10.6C25.7853 11.304 26.1693 11.768 27.1293 11.768ZM26.9853 3.384L27.9293 0.903999H30.0733L28.4093 3.384H26.9853ZM35.8923 13.16C33.7323 13.16 32.4683 12.168 32.3883 10.392H34.2123C34.3083 11.24 34.7403 11.736 35.8763 11.736C36.9163 11.736 37.3803 11.368 37.3803 10.664C37.3803 9.976 36.8203 9.72 35.5883 9.512C33.3803 9.16 32.5643 8.536 32.5643 6.968C32.5643 5.288 34.1323 4.456 35.7003 4.456C37.4123 4.456 38.7723 5.096 38.9803 6.984H37.1883C37.0283 6.216 36.5963 5.864 35.7003 5.864C34.8683 5.864 34.3723 6.264 34.3723 6.856C34.3723 7.464 34.7723 7.704 36.1003 7.928C38.0683 8.232 39.2363 8.712 39.2363 10.488C39.2363 12.184 38.0363 13.16 35.8923 13.16ZM43.4785 13.16C41.3185 13.16 40.0545 12.168 39.9745 10.392H41.7985C41.8945 11.24 42.3265 11.736 43.4625 11.736C44.5025 11.736 44.9665 11.368 44.9665 10.664C44.9665 9.976 44.4065 9.72 43.1745 9.512C40.9665 9.16 40.1505 8.536 40.1505 6.968C40.1505 5.288 41.7185 4.456 43.2865 4.456C44.9985 4.456 46.3585 5.096 46.5665 6.984H44.7745C44.6145 6.216 44.1825 5.864 43.2865 5.864C42.4545 5.864 41.9585 6.264 41.9585 6.856C41.9585 7.464 42.3585 7.704 43.6865 7.928C45.6545 8.232 46.8225 8.712 46.8225 10.488C46.8225 12.184 45.6225 13.16 43.4785 13.16ZM48.2488 13V4.632H50.1848V13H48.2488ZM49.1928 3.256C48.5528 3.256 48.0408 2.776 48.0408 2.152C48.0408 1.512 48.5528 1.032 49.1928 1.032C49.8328 1.032 50.3448 1.512 50.3448 2.152C50.3448 2.776 49.8328 3.256 49.1928 3.256ZM55.9685 11.656C57.4085 11.656 58.2725 10.584 58.2725 8.872V8.76C58.2725 7.032 57.4085 5.976 55.9685 5.976C54.5285 5.976 53.6485 7.016 53.6485 8.744V8.872C53.6485 10.584 54.4965 11.656 55.9685 11.656ZM55.9525 13.16C53.4885 13.16 51.6645 11.448 51.6645 8.904V8.776C51.6645 6.184 53.5045 4.456 55.9685 4.456C58.4165 4.456 60.2565 6.168 60.2565 8.728V8.856C60.2565 11.464 58.4165 13.16 55.9525 13.16ZM62.4315 13.112C61.7275 13.112 61.1675 12.568 61.1675 11.864C61.1675 11.16 61.7275 10.6 62.4315 10.6C63.1515 10.6 63.7115 11.16 63.7115 11.864C63.7115 12.568 63.1515 13.112 62.4315 13.112ZM73.125 13.16C70.005 13.16 68.693 11.608 68.533 9.448H70.581C70.725 10.6 71.189 11.56 73.125 11.56C74.389 11.56 75.285 10.856 75.285 9.8C75.285 8.744 74.757 8.344 72.901 8.04C70.165 7.672 68.869 6.84 68.869 4.696C68.869 2.824 70.469 1.416 72.853 1.416C75.317 1.416 76.789 2.536 77.013 4.728H75.061C74.853 3.528 74.165 3.016 72.853 3.016C71.557 3.016 70.885 3.64 70.885 4.52C70.885 5.448 71.269 5.912 73.253 6.2C75.941 6.568 77.333 7.336 77.333 9.624C77.333 11.608 75.653 13.16 73.125 13.16ZM82.5933 13.16C80.1293 13.16 78.3533 11.544 78.3533 8.904V8.776C78.3533 6.184 80.1293 4.456 82.5133 4.456C84.5933 4.456 86.4653 5.688 86.4653 8.68V9.24H80.3373C80.4013 10.824 81.2013 11.72 82.6413 11.72C83.8093 11.72 84.4173 11.256 84.5613 10.44H86.4333C86.1613 12.2 84.7373 13.16 82.5933 13.16ZM80.3693 7.944H84.5453C84.4493 6.504 83.7133 5.864 82.5133 5.864C81.3453 5.864 80.5613 6.648 80.3693 7.944ZM91.4425 16.072C88.8185 16.072 87.6345 14.888 87.4105 13.288H89.3625C89.5225 14.12 90.1625 14.6 91.4265 14.6C92.9305 14.6 93.7625 13.848 93.7625 12.344V11.112C93.2985 11.912 92.2585 12.664 91.0265 12.664C88.9305 12.664 87.3145 11.096 87.3145 8.68V8.568C87.3145 6.216 88.9145 4.456 91.0745 4.456C92.4505 4.456 93.2825 5.08 93.7625 5.912V4.632H95.6985V12.376C95.6825 14.84 94.0345 16.072 91.4425 16.072ZM91.5065 11.176C92.8505 11.176 93.8265 10.216 93.8265 8.616V8.504C93.8265 6.92 92.9625 5.976 91.5705 5.976C90.1305 5.976 89.2985 7.016 89.2985 8.536V8.664C89.2985 10.216 90.2585 11.176 91.5065 11.176ZM100.479 13.16C98.8315 13.16 97.5995 12.216 97.5995 9.992V4.632H99.5355V9.768C99.5355 11.032 100.063 11.608 101.183 11.608C102.223 11.608 103.135 10.936 103.135 9.608V4.632H105.071V13H103.135V11.688C102.719 12.504 101.839 13.16 100.479 13.16ZM107.047 13V4.632H108.983V6.2C109.511 5.144 110.295 4.52 111.703 4.504V6.312C110.007 6.328 108.983 6.872 108.983 8.648V13H107.047ZM115.122 13.16C113.586 13.16 112.322 12.424 112.322 10.68C112.322 8.728 114.21 8.024 116.61 8.024H117.65V7.592C117.65 6.472 117.266 5.912 116.13 5.912C115.122 5.912 114.626 6.392 114.53 7.224H112.658C112.818 5.272 114.37 4.456 116.242 4.456C118.114 4.456 119.586 5.224 119.586 7.512V13H117.682V11.976C117.138 12.696 116.402 13.16 115.122 13.16ZM115.586 11.768C116.77 11.768 117.65 11.144 117.65 10.072V9.24H116.658C115.186 9.24 114.242 9.576 114.242 10.6C114.242 11.304 114.626 11.768 115.586 11.768ZM121.485 13V4.632H123.421V5.96C123.821 5.144 124.749 4.456 126.125 4.456C127.805 4.456 128.989 5.432 128.989 7.736V13H127.053V7.912C127.053 6.648 126.541 6.072 125.389 6.072C124.301 6.072 123.421 6.744 123.421 8.072V13H121.485ZM134.275 16.504C133.267 16.504 132.611 15.96 132.515 15.096H133.571C133.619 15.368 133.827 15.624 134.211 15.624C134.579 15.624 134.803 15.4 134.803 15.08C134.803 14.776 134.579 14.568 134.243 14.568C134.019 14.568 133.859 14.648 133.763 14.712L133.219 14.2L133.859 13.112C131.811 12.84 130.339 11.336 130.339 8.92V8.792C130.339 6.136 132.227 4.456 134.563 4.456C136.419 4.456 138.163 5.288 138.387 7.592H136.515C136.355 6.472 135.619 6.008 134.595 6.008C133.267 6.008 132.323 7.032 132.323 8.76V8.888C132.323 10.712 133.219 11.672 134.643 11.672C135.667 11.672 136.547 11.064 136.659 9.88H138.435C138.291 11.736 136.931 13.064 134.787 13.16L134.419 13.8C135.219 13.704 136.019 14.12 136.019 15.128C136.019 16.024 135.267 16.504 134.275 16.504ZM141.975 13.16C140.439 13.16 139.175 12.424 139.175 10.68C139.175 8.728 141.063 8.024 143.463 8.024H144.503V7.592C144.503 6.472 144.119 5.912 142.983 5.912C141.975 5.912 141.479 6.392 141.383 7.224H139.511C139.671 5.272 141.223 4.456 143.095 4.456C144.967 4.456 146.439 5.224 146.439 7.512V13H144.535V11.976C143.991 12.696 143.255 13.16 141.975 13.16ZM142.439 11.768C143.623 11.768 144.503 11.144 144.503 10.072V9.24H143.511C142.039 9.24 141.095 9.576 141.095 10.6C141.095 11.304 141.479 11.768 142.439 11.768Z" fill="black"/>
</svg>
