<svg width="181" height="16" viewBox="0 0 181 16" fill="none" xmlns="http://www.w3.org/2000/svg">
<path d="M3.344 13.16C1.808 13.16 0.544 12.424 0.544 10.68C0.544 8.728 2.432 8.024 4.832 8.024H5.872V7.592C5.872 6.472 5.488 5.912 4.352 5.912C3.344 5.912 2.848 6.392 2.752 7.224H0.88C1.04 5.272 2.592 4.456 4.464 4.456C6.336 4.456 7.808 5.224 7.808 7.512V13H5.904V11.976C5.36 12.696 4.624 13.16 3.344 13.16ZM3.808 11.768C4.992 11.768 5.872 11.144 5.872 10.072V9.24H4.88C3.408 9.24 2.464 9.576 2.464 10.6C2.464 11.304 2.848 11.768 3.808 11.768ZM9.755 13V0.759999H11.691V13H9.755ZM13.7787 13V4.632H15.7147V13H13.7787ZM14.7227 3.256C14.0827 3.256 13.5707 2.776 13.5707 2.152C13.5707 1.512 14.0827 1.032 14.7227 1.032C15.3627 1.032 15.8747 1.512 15.8747 2.152C15.8747 2.776 15.3627 3.256 14.7227 3.256ZM17.7545 13V4.632H19.6905V5.912C20.0905 5.128 21.0025 4.456 22.2345 4.456C23.3225 4.456 24.1865 4.92 24.6025 5.96C25.2425 4.92 26.3945 4.456 27.4345 4.456C28.9705 4.456 30.2185 5.4 30.2185 7.704V13H28.2825V7.832C28.2825 6.6 27.7545 6.072 26.7945 6.072C25.8345 6.072 24.9545 6.712 24.9545 7.992V13H23.0185V7.832C23.0185 6.6 22.4745 6.072 21.5305 6.072C20.5705 6.072 19.6905 6.712 19.6905 7.992V13H17.7545ZM35.802 13.16C33.338 13.16 31.562 11.544 31.562 8.904V8.776C31.562 6.184 33.338 4.456 35.722 4.456C37.802 4.456 39.674 5.688 39.674 8.68V9.24H33.546C33.61 10.824 34.41 11.72 35.85 11.72C37.018 11.72 37.626 11.256 37.77 10.44H39.642C39.37 12.2 37.946 13.16 35.802 13.16ZM33.578 7.944H37.754C37.658 6.504 36.922 5.864 35.722 5.864C34.554 5.864 33.77 6.648 33.578 7.944ZM41.0833 13V4.632H43.0193V5.96C43.4193 5.144 44.3473 4.456 45.7233 4.456C47.4033 4.456 48.5873 5.432 48.5873 7.736V13H46.6513V7.912C46.6513 6.648 46.1393 6.072 44.9873 6.072C43.8993 6.072 43.0193 6.744 43.0193 8.072V13H41.0833ZM53.3456 13.144C51.6816 13.144 50.8176 12.248 50.8176 10.664V6.088H49.6976V4.632H50.8176V2.792H52.7536V4.632H54.5936V6.088H52.7536V10.488C52.7536 11.224 53.1056 11.56 53.7136 11.56C54.0976 11.56 54.3856 11.512 54.6576 11.4V12.936C54.3536 13.048 53.9376 13.144 53.3456 13.144ZM58.354 13.16C56.818 13.16 55.554 12.424 55.554 10.68C55.554 8.728 57.442 8.024 59.842 8.024H60.882V7.592C60.882 6.472 60.498 5.912 59.362 5.912C58.354 5.912 57.858 6.392 57.762 7.224H55.89C56.05 5.272 57.602 4.456 59.474 4.456C61.346 4.456 62.818 5.224 62.818 7.512V13H60.914V11.976C60.37 12.696 59.634 13.16 58.354 13.16ZM58.818 11.768C60.002 11.768 60.882 11.144 60.882 10.072V9.24H59.89C58.418 9.24 57.474 9.576 57.474 10.6C57.474 11.304 57.858 11.768 58.818 11.768ZM64.717 13V4.632H66.653V6.2C67.181 5.144 67.965 4.52 69.373 4.504V6.312C67.677 6.328 66.653 6.872 66.653 8.648V13H64.717ZM74.2489 15.864V4.632H76.1849V5.976C76.6489 5.176 77.6889 4.456 78.9209 4.456C81.0169 4.456 82.6329 6.008 82.6329 8.712V8.84C82.6329 11.528 81.0809 13.16 78.9209 13.16C77.5929 13.16 76.6329 12.504 76.1849 11.688V15.864H74.2489ZM78.4409 11.624C79.8649 11.624 80.6489 10.664 80.6489 8.872V8.744C80.6489 6.888 79.6889 5.976 78.4249 5.976C77.0809 5.976 76.1209 6.888 76.1209 8.744V8.872C76.1209 10.744 77.0329 11.624 78.4409 11.624ZM86.2459 13.16C84.7099 13.16 83.4459 12.424 83.4459 10.68C83.4459 8.728 85.3339 8.024 87.7339 8.024H88.7739V7.592C88.7739 6.472 88.3899 5.912 87.2539 5.912C86.2459 5.912 85.7499 6.392 85.6539 7.224H83.7819C83.9419 5.272 85.4939 4.456 87.3659 4.456C89.2379 4.456 90.7099 5.224 90.7099 7.512V13H88.8059V11.976C88.2619 12.696 87.5259 13.16 86.2459 13.16ZM86.7099 11.768C87.8939 11.768 88.7739 11.144 88.7739 10.072V9.24H87.7819C86.3099 9.24 85.3659 9.576 85.3659 10.6C85.3659 11.304 85.7499 11.768 86.7099 11.768ZM92.6089 13V4.632H94.5449V6.2C95.0729 5.144 95.8569 4.52 97.2649 4.504V6.312C95.5689 6.328 94.5449 6.872 94.5449 8.648V13H92.6089ZM100.684 13.16C99.148 13.16 97.884 12.424 97.884 10.68C97.884 8.728 99.772 8.024 102.172 8.024H103.212V7.592C103.212 6.472 102.828 5.912 101.692 5.912C100.684 5.912 100.188 6.392 100.092 7.224H98.22C98.38 5.272 99.932 4.456 101.804 4.456C103.676 4.456 105.148 5.224 105.148 7.512V13H103.244V11.976C102.7 12.696 101.964 13.16 100.684 13.16ZM101.148 11.768C102.332 11.768 103.212 11.144 103.212 10.072V9.24H102.22C100.748 9.24 99.804 9.576 99.804 10.6C99.804 11.304 100.188 11.768 101.148 11.768ZM114.283 11.656C115.723 11.656 116.587 10.584 116.587 8.872V8.76C116.587 7.032 115.723 5.976 114.283 5.976C112.843 5.976 111.963 7.016 111.963 8.744V8.872C111.963 10.584 112.811 11.656 114.283 11.656ZM114.267 13.16C111.803 13.16 109.979 11.448 109.979 8.904V8.776C109.979 6.184 111.819 4.456 114.283 4.456C116.731 4.456 118.571 6.168 118.571 8.728V8.856C118.571 11.464 116.731 13.16 114.267 13.16ZM123.493 15.864V4.632H125.429V5.976C125.893 5.176 126.933 4.456 128.165 4.456C130.261 4.456 131.877 6.008 131.877 8.712V8.84C131.877 11.528 130.325 13.16 128.165 13.16C126.837 13.16 125.877 12.504 125.429 11.688V15.864H123.493ZM127.685 11.624C129.109 11.624 129.893 10.664 129.893 8.872V8.744C129.893 6.888 128.933 5.976 127.669 5.976C126.325 5.976 125.365 6.888 125.365 8.744V8.872C125.365 10.744 126.277 11.624 127.685 11.624ZM133.346 13V0.759999H135.282V13H133.346ZM139.514 13.16C137.978 13.16 136.714 12.424 136.714 10.68C136.714 8.728 138.602 8.024 141.002 8.024H142.042V7.592C142.042 6.472 141.658 5.912 140.522 5.912C139.514 5.912 139.018 6.392 138.922 7.224H137.05C137.21 5.272 138.762 4.456 140.634 4.456C142.506 4.456 143.978 5.224 143.978 7.512V13H142.074V11.976C141.53 12.696 140.794 13.16 139.514 13.16ZM139.978 11.768C141.162 11.768 142.042 11.144 142.042 10.072V9.24H141.05C139.578 9.24 138.634 9.576 138.634 10.6C138.634 11.304 139.018 11.768 139.978 11.768ZM145.877 13V4.632H147.813V5.96C148.213 5.144 149.141 4.456 150.517 4.456C152.197 4.456 153.381 5.432 153.381 7.736V13H151.445V7.912C151.445 6.648 150.933 6.072 149.781 6.072C148.693 6.072 147.813 6.744 147.813 8.072V13H145.877ZM158.971 13.16C156.507 13.16 154.731 11.544 154.731 8.904V8.776C154.731 6.184 156.507 4.456 158.891 4.456C160.971 4.456 162.843 5.688 162.843 8.68V9.24H156.715C156.779 10.824 157.579 11.72 159.019 11.72C160.187 11.72 160.795 11.256 160.939 10.44H162.811C162.539 12.2 161.115 13.16 158.971 13.16ZM156.747 7.944H160.923C160.827 6.504 160.091 5.864 158.891 5.864C157.723 5.864 156.939 6.648 156.747 7.944ZM167.101 13.144C165.437 13.144 164.573 12.248 164.573 10.664V6.088H163.453V4.632H164.573V2.792H166.509V4.632H168.349V6.088H166.509V10.488C166.509 11.224 166.861 11.56 167.469 11.56C167.853 11.56 168.141 11.512 168.413 11.4V12.936C168.109 13.048 167.693 13.144 167.101 13.144ZM172.109 13.16C170.573 13.16 169.309 12.424 169.309 10.68C169.309 8.728 171.197 8.024 173.597 8.024H174.637V7.592C174.637 6.472 174.253 5.912 173.117 5.912C172.109 5.912 171.613 6.392 171.517 7.224H169.645C169.805 5.272 171.357 4.456 173.229 4.456C175.101 4.456 176.573 5.224 176.573 7.512V13H174.669V11.976C174.125 12.696 173.389 13.16 172.109 13.16ZM172.573 11.768C173.757 11.768 174.637 11.144 174.637 10.072V9.24H173.645C172.173 9.24 171.229 9.576 171.229 10.6C171.229 11.304 171.613 11.768 172.573 11.768ZM179.624 13.112C178.92 13.112 178.36 12.568 178.36 11.864C178.36 11.16 178.92 10.6 179.624 10.6C180.344 10.6 180.904 11.16 180.904 11.864C180.904 12.568 180.344 13.112 179.624 13.112Z" fill="black"/>
</svg>
