<svg width="168" height="30" viewBox="0 0 168 30" fill="none" xmlns="http://www.w3.org/2000/svg">
<rect x="1.25549" y="1.26648" width="166.245" height="27.4672" rx="4.24453" stroke="#DD5900"/>
<path d="M53.0527 19.14C50.3227 19.14 49.1747 17.782 49.0347 15.892H50.8267C50.9527 16.9 51.3587 17.74 53.0527 17.74C54.1587 17.74 54.9427 17.124 54.9427 16.2C54.9427 15.276 54.4807 14.926 52.8567 14.66C50.4627 14.338 49.3287 13.61 49.3287 11.734C49.3287 10.096 50.7287 8.864 52.8147 8.864C54.9707 8.864 56.2587 9.844 56.4547 11.762H54.7467C54.5647 10.712 53.9627 10.264 52.8147 10.264C51.6807 10.264 51.0927 10.81 51.0927 11.58C51.0927 12.392 51.4287 12.798 53.1647 13.05C55.5167 13.372 56.7347 14.044 56.7347 16.046C56.7347 17.782 55.2647 19.14 53.0527 19.14ZM60.3155 19.14C58.9715 19.14 57.8655 18.496 57.8655 16.97C57.8655 15.262 59.5175 14.646 61.6175 14.646H62.5275V14.268C62.5275 13.288 62.1915 12.798 61.1975 12.798C60.3155 12.798 59.8815 13.218 59.7975 13.946H58.1595C58.2995 12.238 59.6575 11.524 61.2955 11.524C62.9335 11.524 64.2215 12.196 64.2215 14.198V19H62.5555V18.104C62.0795 18.734 61.4355 19.14 60.3155 19.14ZM60.7215 17.922C61.7575 17.922 62.5275 17.376 62.5275 16.438V15.71H61.6595C60.3715 15.71 59.5455 16.004 59.5455 16.9C59.5455 17.516 59.8815 17.922 60.7215 17.922ZM66.2051 19V11.678H67.8991V19H66.2051ZM67.0311 10.474C66.4711 10.474 66.0231 10.054 66.0231 9.508C66.0231 8.948 66.4711 8.528 67.0311 8.528C67.5911 8.528 68.0391 8.948 68.0391 9.508C68.0391 10.054 67.5911 10.474 67.0311 10.474ZM74.0519 19.14C72.8899 19.14 72.0499 18.566 71.6579 17.824V19H69.9639V8.29H71.6579V12.854C72.0639 12.154 72.9739 11.524 74.0519 11.524C75.8859 11.524 77.2999 12.882 77.2999 15.248V15.36C77.2999 17.712 75.9419 19.14 74.0519 19.14ZM73.6319 17.796C74.8779 17.796 75.5639 16.956 75.5639 15.388V15.276C75.5639 13.652 74.7239 12.854 73.6179 12.854C72.4419 12.854 71.6019 13.652 71.6019 15.276V15.388C71.6019 17.026 72.3999 17.796 73.6319 17.796ZM80.7412 19.14C79.3972 19.14 78.2912 18.496 78.2912 16.97C78.2912 15.262 79.9432 14.646 82.0432 14.646H82.9532V14.268C82.9532 13.288 82.6172 12.798 81.6232 12.798C80.7412 12.798 80.3072 13.218 80.2232 13.946H78.5852C78.7252 12.238 80.0832 11.524 81.7212 11.524C83.3592 11.524 84.6472 12.196 84.6472 14.198V19H82.9812V18.104C82.5052 18.734 81.8612 19.14 80.7412 19.14ZM81.1472 17.922C82.1832 17.922 82.9532 17.376 82.9532 16.438V15.71H82.0852C80.7972 15.71 79.9712 16.004 79.9712 16.9C79.9712 17.516 80.3072 17.922 81.1472 17.922ZM89.9248 19V11.678H91.6188V12.798C91.9688 12.112 92.7668 11.524 93.8448 11.524C94.7968 11.524 95.5528 11.93 95.9168 12.84C96.4768 11.93 97.4848 11.524 98.3948 11.524C99.7388 11.524 100.831 12.35 100.831 14.366V19H99.1368V14.478C99.1368 13.4 98.6748 12.938 97.8348 12.938C96.9948 12.938 96.2248 13.498 96.2248 14.618V19H94.5308V14.478C94.5308 13.4 94.0548 12.938 93.2288 12.938C92.3888 12.938 91.6188 13.498 91.6188 14.618V19H89.9248ZM104.694 19.14C103.35 19.14 102.244 18.496 102.244 16.97C102.244 15.262 103.896 14.646 105.996 14.646H106.906V14.268C106.906 13.288 106.57 12.798 105.576 12.798C104.694 12.798 104.26 13.218 104.176 13.946H102.538C102.678 12.238 104.036 11.524 105.674 11.524C107.312 11.524 108.6 12.196 108.6 14.198V19H106.934V18.104C106.458 18.734 105.814 19.14 104.694 19.14ZM105.1 17.922C106.136 17.922 106.906 17.376 106.906 16.438V15.71H106.038C104.75 15.71 103.924 16.004 103.924 16.9C103.924 17.516 104.26 17.922 105.1 17.922ZM110.584 19V11.678H112.278V19H110.584ZM111.41 10.474C110.85 10.474 110.402 10.054 110.402 9.508C110.402 8.948 110.85 8.528 111.41 8.528C111.97 8.528 112.418 8.948 112.418 9.508C112.418 10.054 111.97 10.474 111.41 10.474ZM116.849 19.14C114.959 19.14 113.853 18.272 113.783 16.718H115.379C115.463 17.46 115.841 17.894 116.835 17.894C117.745 17.894 118.151 17.572 118.151 16.956C118.151 16.354 117.661 16.13 116.583 15.948C114.651 15.64 113.937 15.094 113.937 13.722C113.937 12.252 115.309 11.524 116.681 11.524C118.179 11.524 119.369 12.084 119.551 13.736H117.983C117.843 13.064 117.465 12.756 116.681 12.756C115.953 12.756 115.519 13.106 115.519 13.624C115.519 14.156 115.869 14.366 117.031 14.562C118.753 14.828 119.775 15.248 119.775 16.802C119.775 18.286 118.725 19.14 116.849 19.14Z" fill="#DD5900"/>
</svg>
