<svg width="284" height="20" viewBox="0 0 284 20" fill="none" xmlns="http://www.w3.org/2000/svg">
<path d="M0.195463 16V5.54H2.61546V7.5C3.27546 6.18 4.25546 5.4 6.01546 5.38V7.64C3.89546 7.66 2.61546 8.34 2.61546 10.56V16H0.195463ZM12.1494 16.2C9.06937 16.2 6.84937 14.18 6.84937 10.88V10.72C6.84937 7.48 9.06937 5.32 12.0494 5.32C14.6494 5.32 16.9894 6.86 16.9894 10.6V11.3H9.32937C9.40937 13.28 10.4094 14.4 12.2094 14.4C13.6694 14.4 14.4294 13.82 14.6094 12.8H16.9494C16.6094 15 14.8294 16.2 12.1494 16.2ZM9.36937 9.68H14.5894C14.4694 7.88 13.5494 7.08 12.0494 7.08C10.5894 7.08 9.60937 8.06 9.36937 9.68ZM22.4286 16.2C19.7286 16.2 18.1486 14.96 18.0486 12.74H20.3286C20.4486 13.8 20.9886 14.42 22.4086 14.42C23.7086 14.42 24.2886 13.96 24.2886 13.08C24.2886 12.22 23.5886 11.9 22.0486 11.64C19.2886 11.2 18.2686 10.42 18.2686 8.46C18.2686 6.36 20.2286 5.32 22.1886 5.32C24.3286 5.32 26.0286 6.12 26.2886 8.48H24.0486C23.8486 7.52 23.3086 7.08 22.1886 7.08C21.1486 7.08 20.5286 7.58 20.5286 8.32C20.5286 9.08 21.0286 9.38 22.6886 9.66C25.1486 10.04 26.6086 10.64 26.6086 12.86C26.6086 14.98 25.1086 16.2 22.4286 16.2ZM28.3314 19.58V5.54H30.7514V7.22C31.3314 6.22 32.6314 5.32 34.1714 5.32C36.7914 5.32 38.8114 7.26 38.8114 10.64V10.8C38.8114 14.16 36.8714 16.2 34.1714 16.2C32.5114 16.2 31.3114 15.38 30.7514 14.36V19.58H28.3314ZM33.5714 14.28C35.3514 14.28 36.3314 13.08 36.3314 10.84V10.68C36.3314 8.36 35.1314 7.22 33.5514 7.22C31.8714 7.22 30.6714 8.36 30.6714 10.68V10.84C30.6714 13.18 31.8114 14.28 33.5714 14.28ZM45.2676 14.32C47.0676 14.32 48.1476 12.98 48.1476 10.84V10.7C48.1476 8.54 47.0676 7.22 45.2676 7.22C43.4676 7.22 42.3676 8.52 42.3676 10.68V10.84C42.3676 12.98 43.4276 14.32 45.2676 14.32ZM45.2476 16.2C42.1676 16.2 39.8876 14.06 39.8876 10.88V10.72C39.8876 7.48 42.1876 5.32 45.2676 5.32C48.3276 5.32 50.6276 7.46 50.6276 10.66V10.82C50.6276 14.08 48.3276 16.2 45.2476 16.2ZM52.4142 16V5.54H54.8342V7.2C55.3342 6.18 56.4942 5.32 58.2142 5.32C60.3142 5.32 61.7942 6.54 61.7942 9.42V16H59.3742V9.64C59.3742 8.06 58.7342 7.34 57.2942 7.34C55.9342 7.34 54.8342 8.18 54.8342 9.84V16H52.4142ZM67.7622 16.2C65.0622 16.2 63.4822 14.96 63.3822 12.74H65.6622C65.7822 13.8 66.3222 14.42 67.7422 14.42C69.0422 14.42 69.6222 13.96 69.6222 13.08C69.6222 12.22 68.9222 11.9 67.3822 11.64C64.6222 11.2 63.6022 10.42 63.6022 8.46C63.6022 6.36 65.5622 5.32 67.5222 5.32C69.6622 5.32 71.3622 6.12 71.6222 8.48H69.3822C69.1822 7.52 68.6422 7.08 67.5222 7.08C66.4822 7.08 65.8622 7.58 65.8622 8.32C65.8622 9.08 66.3622 9.38 68.0222 9.66C70.4822 10.04 71.9422 10.64 71.9422 12.86C71.9422 14.98 70.4422 16.2 67.7622 16.2ZM76.405 16.2C74.485 16.2 72.905 15.28 72.905 13.1C72.905 10.66 75.265 9.78 78.265 9.78H79.565V9.24C79.565 7.84 79.085 7.14 77.665 7.14C76.405 7.14 75.785 7.74 75.665 8.78H73.325C73.525 6.34 75.465 5.32 77.805 5.32C80.145 5.32 81.985 6.28 81.985 9.14V16H79.605V14.72C78.925 15.62 78.005 16.2 76.405 16.2ZM76.985 14.46C78.465 14.46 79.565 13.68 79.565 12.34V11.3H78.325C76.485 11.3 75.305 11.72 75.305 13C75.305 13.88 75.785 14.46 76.985 14.46ZM90.1987 16.2C88.5387 16.2 87.3387 15.38 86.7787 14.32V16H84.3587V0.700001H86.7787V7.22C87.3587 6.22 88.6587 5.32 90.1987 5.32C92.8187 5.32 94.8387 7.26 94.8387 10.64V10.8C94.8387 14.16 92.8987 16.2 90.1987 16.2ZM89.5987 14.28C91.3787 14.28 92.3587 13.08 92.3587 10.84V10.68C92.3587 8.36 91.1587 7.22 89.5787 7.22C87.8987 7.22 86.6987 8.36 86.6987 10.68V10.84C86.6987 13.18 87.8387 14.28 89.5987 14.28ZM96.675 16V5.54H99.095V16H96.675ZM97.855 3.82C97.055 3.82 96.415 3.22 96.415 2.44C96.415 1.64 97.055 1.04 97.855 1.04C98.655 1.04 99.295 1.64 99.295 2.44C99.295 3.22 98.655 3.82 97.855 3.82ZM101.705 16V0.700001H104.125V16H101.705ZM106.734 16V5.54H109.154V16H106.734ZM107.914 3.82C107.114 3.82 106.474 3.22 106.474 2.44C106.474 1.64 107.114 1.04 107.914 1.04C108.714 1.04 109.354 1.64 109.354 2.44C109.354 3.22 108.714 3.82 107.914 3.82ZM115.624 16.2C113.004 16.2 111.024 14.34 111.024 10.94V10.78C111.024 7.44 113.004 5.32 115.724 5.32C117.424 5.32 118.484 6.1 119.064 7.14V0.700001H121.484V16H119.064V14.24C118.504 15.28 117.164 16.2 115.624 16.2ZM116.224 14.28C117.904 14.28 119.144 13.16 119.144 10.82V10.66C119.144 8.36 118.084 7.22 116.324 7.22C114.544 7.22 113.504 8.46 113.504 10.72V10.88C113.504 13.18 114.664 14.28 116.224 14.28ZM126.7 16.2C124.78 16.2 123.2 15.28 123.2 13.1C123.2 10.66 125.56 9.78 128.56 9.78H129.86V9.24C129.86 7.84 129.38 7.14 127.96 7.14C126.7 7.14 126.08 7.74 125.96 8.78H123.62C123.82 6.34 125.76 5.32 128.1 5.32C130.44 5.32 132.28 6.28 132.28 9.14V16H129.9V14.72C129.22 15.62 128.3 16.2 126.7 16.2ZM127.28 14.46C128.76 14.46 129.86 13.68 129.86 12.34V11.3H128.62C126.78 11.3 125.6 11.72 125.6 13C125.6 13.88 126.08 14.46 127.28 14.46ZM138.574 16.2C135.954 16.2 133.974 14.34 133.974 10.94V10.78C133.974 7.44 135.954 5.32 138.674 5.32C140.374 5.32 141.434 6.1 142.014 7.14V0.700001H144.434V16H142.014V14.24C141.454 15.28 140.114 16.2 138.574 16.2ZM139.174 14.28C140.854 14.28 142.094 13.16 142.094 10.82V10.66C142.094 8.36 141.034 7.22 139.274 7.22C137.494 7.22 136.454 8.46 136.454 10.72V10.88C136.454 13.18 137.614 14.28 139.174 14.28ZM151.51 16.2C148.43 16.2 146.21 14.18 146.21 10.88V10.72C146.21 7.48 148.43 5.32 151.41 5.32C154.01 5.32 156.35 6.86 156.35 10.6V11.3H148.69C148.77 13.28 149.77 14.4 151.57 14.4C153.03 14.4 153.79 13.82 153.97 12.8H156.31C155.97 15 154.19 16.2 151.51 16.2ZM148.73 9.68H153.95C153.83 7.88 152.91 7.08 151.41 7.08C149.95 7.08 148.97 8.06 148.73 9.68ZM166.397 16.2C163.777 16.2 161.797 14.34 161.797 10.94V10.78C161.797 7.44 163.777 5.32 166.497 5.32C168.197 5.32 169.257 6.1 169.837 7.14V0.700001H172.257V16H169.837V14.24C169.277 15.28 167.937 16.2 166.397 16.2ZM166.997 14.28C168.677 14.28 169.917 13.16 169.917 10.82V10.66C169.917 8.36 168.857 7.22 167.097 7.22C165.317 7.22 164.277 8.46 164.277 10.72V10.88C164.277 13.18 165.437 14.28 166.997 14.28ZM179.334 16.2C176.254 16.2 174.034 14.18 174.034 10.88V10.72C174.034 7.48 176.254 5.32 179.234 5.32C181.834 5.32 184.174 6.86 184.174 10.6V11.3H176.514C176.594 13.28 177.594 14.4 179.394 14.4C180.854 14.4 181.614 13.82 181.794 12.8H184.134C183.794 15 182.014 16.2 179.334 16.2ZM176.554 9.68H181.774C181.654 7.88 180.734 7.08 179.234 7.08C177.774 7.08 176.794 8.06 176.554 9.68ZM193.861 16.18C191.781 16.18 190.701 15.06 190.701 13.08V7.36H189.301V5.54H190.701V3.24H193.121V5.54H195.421V7.36H193.121V12.86C193.121 13.78 193.561 14.2 194.321 14.2C194.801 14.2 195.161 14.14 195.501 14V15.92C195.121 16.06 194.601 16.18 193.861 16.18ZM201.964 14.32C203.764 14.32 204.844 12.98 204.844 10.84V10.7C204.844 8.54 203.764 7.22 201.964 7.22C200.164 7.22 199.064 8.52 199.064 10.68V10.84C199.064 12.98 200.124 14.32 201.964 14.32ZM201.944 16.2C198.864 16.2 196.584 14.06 196.584 10.88V10.72C196.584 7.48 198.884 5.32 201.964 5.32C205.024 5.32 207.324 7.46 207.324 10.66V10.82C207.324 14.08 205.024 16.2 201.944 16.2ZM213.03 16.2C210.41 16.2 208.43 14.34 208.43 10.94V10.78C208.43 7.44 210.41 5.32 213.13 5.32C214.83 5.32 215.89 6.1 216.47 7.14V0.700001H218.89V16H216.47V14.24C215.91 15.28 214.57 16.2 213.03 16.2ZM213.63 14.28C215.31 14.28 216.55 13.16 216.55 10.82V10.66C216.55 8.36 215.49 7.22 213.73 7.22C211.95 7.22 210.91 8.46 210.91 10.72V10.88C210.91 13.18 212.07 14.28 213.63 14.28ZM226.047 14.32C227.847 14.32 228.927 12.98 228.927 10.84V10.7C228.927 8.54 227.847 7.22 226.047 7.22C224.247 7.22 223.147 8.52 223.147 10.68V10.84C223.147 12.98 224.207 14.32 226.047 14.32ZM226.027 16.2C222.947 16.2 220.667 14.06 220.667 10.88V10.72C220.667 7.48 222.967 5.32 226.047 5.32C229.107 5.32 231.407 7.46 231.407 10.66V10.82C231.407 14.08 229.107 16.2 226.027 16.2ZM236.773 16.2C234.073 16.2 232.493 14.96 232.393 12.74H234.673C234.793 13.8 235.333 14.42 236.753 14.42C238.053 14.42 238.633 13.96 238.633 13.08C238.633 12.22 237.933 11.9 236.393 11.64C233.633 11.2 232.613 10.42 232.613 8.46C232.613 6.36 234.573 5.32 236.533 5.32C238.673 5.32 240.373 6.12 240.633 8.48H238.393C238.193 7.52 237.653 7.08 236.533 7.08C235.493 7.08 234.873 7.58 234.873 8.32C234.873 9.08 235.373 9.38 237.033 9.66C239.493 10.04 240.953 10.64 240.953 12.86C240.953 14.98 239.453 16.2 236.773 16.2ZM247.042 16V5.54H249.462V7.2C249.962 6.18 251.122 5.32 252.842 5.32C254.942 5.32 256.422 6.54 256.422 9.42V16H254.002V9.64C254.002 8.06 253.362 7.34 251.922 7.34C250.562 7.34 249.462 8.18 249.462 9.84V16H247.042ZM262.47 3.98L263.65 0.880001H266.33L264.25 3.98H262.47ZM263.49 14.32C265.29 14.32 266.37 12.98 266.37 10.84V10.7C266.37 8.54 265.29 7.22 263.49 7.22C261.69 7.22 260.59 8.52 260.59 10.68V10.84C260.59 12.98 261.65 14.32 263.49 14.32ZM263.47 16.2C260.39 16.2 258.11 14.06 258.11 10.88V10.72C258.11 7.48 260.41 5.32 263.49 5.32C266.55 5.32 268.85 7.46 268.85 10.66V10.82C268.85 14.08 266.55 16.2 263.47 16.2ZM274.216 16.2C271.516 16.2 269.936 14.96 269.836 12.74H272.116C272.236 13.8 272.776 14.42 274.196 14.42C275.496 14.42 276.076 13.96 276.076 13.08C276.076 12.22 275.376 11.9 273.836 11.64C271.076 11.2 270.056 10.42 270.056 8.46C270.056 6.36 272.016 5.32 273.976 5.32C276.116 5.32 277.816 6.12 278.076 8.48H275.836C275.636 7.52 275.096 7.08 273.976 7.08C272.936 7.08 272.316 7.58 272.316 8.32C272.316 9.08 272.816 9.38 274.476 9.66C276.936 10.04 278.396 10.64 278.396 12.86C278.396 14.98 276.896 16.2 274.216 16.2ZM281.559 16.14C280.679 16.14 279.979 15.46 279.979 14.58C279.979 13.7 280.679 13 281.559 13C282.459 13 283.159 13.7 283.159 14.58C283.159 15.46 282.459 16.14 281.559 16.14Z" fill="black"/>
</svg>
