<svg width="194" height="17" viewBox="0 0 194 17" fill="none" xmlns="http://www.w3.org/2000/svg">
<path d="M6.14 16.2C2.56 16.2 0.52 14.24 0.52 10.56V1.7H3.2V10.36C3.2 12.98 4.04 14.06 6.16 14.06C8.22 14.06 9.26 13.14 9.26 10.18V1.7H11.94V10.4C11.94 14.14 9.92 16.2 6.14 16.2ZM14.3955 16V5.54H16.8155V7.14C17.3155 6.16 18.4555 5.32 19.9955 5.32C21.3555 5.32 22.4355 5.9 22.9555 7.2C23.7555 5.9 25.1955 5.32 26.4955 5.32C28.4155 5.32 29.9755 6.5 29.9755 9.38V16H27.5555V9.54C27.5555 8 26.8955 7.34 25.6955 7.34C24.4955 7.34 23.3955 8.14 23.3955 9.74V16H20.9755V9.54C20.9755 8 20.2955 7.34 19.1155 7.34C17.9155 7.34 16.8155 8.14 16.8155 9.74V16H14.3955ZM39.4605 16.2C37.5405 16.2 35.9605 15.28 35.9605 13.1C35.9605 10.66 38.3205 9.78 41.3205 9.78H42.6205V9.24C42.6205 7.84 42.1405 7.14 40.7205 7.14C39.4605 7.14 38.8405 7.74 38.7205 8.78H36.3805C36.5805 6.34 38.5205 5.32 40.8605 5.32C43.2005 5.32 45.0405 6.28 45.0405 9.14V16H42.6605V14.72C41.9805 15.62 41.0605 16.2 39.4605 16.2ZM40.0405 14.46C41.5205 14.46 42.6205 13.68 42.6205 12.34V11.3H41.3805C39.5405 11.3 38.3605 11.72 38.3605 13C38.3605 13.88 38.8405 14.46 40.0405 14.46ZM47.4142 16V5.54H49.8342V7.14C50.3342 6.16 51.4742 5.32 53.0142 5.32C54.3742 5.32 55.4542 5.9 55.9742 7.2C56.7742 5.9 58.2142 5.32 59.5142 5.32C61.4342 5.32 62.9942 6.5 62.9942 9.38V16H60.5742V9.54C60.5742 8 59.9142 7.34 58.7142 7.34C57.5142 7.34 56.4142 8.14 56.4142 9.74V16H53.9942V9.54C53.9942 8 53.3142 7.34 52.1342 7.34C50.9342 7.34 49.8342 8.14 49.8342 9.74V16H47.4142ZM68.1136 16.2C66.1936 16.2 64.6136 15.28 64.6136 13.1C64.6136 10.66 66.9736 9.78 69.9736 9.78H71.2736V9.24C71.2736 7.84 70.7936 7.14 69.3736 7.14C68.1136 7.14 67.4936 7.74 67.3736 8.78H65.0336C65.2336 6.34 67.1736 5.32 69.5136 5.32C71.8536 5.32 73.6936 6.28 73.6936 9.14V16H71.3136V14.72C70.6336 15.62 69.7136 16.2 68.1136 16.2ZM68.6936 14.46C70.1736 14.46 71.2736 13.68 71.2736 12.34V11.3H70.0336C68.1936 11.3 67.0136 11.72 67.0136 13C67.0136 13.88 67.4936 14.46 68.6936 14.46ZM76.0673 16V5.54H78.4873V7.2C78.9873 6.18 80.1473 5.32 81.8673 5.32C83.9673 5.32 85.4473 6.54 85.4473 9.42V16H83.0273V9.64C83.0273 8.06 82.3873 7.34 80.9473 7.34C79.5873 7.34 78.4873 8.18 78.4873 9.84V16H76.0673ZM87.8353 16V0.700001H90.2553V7.2C90.7553 6.18 91.9153 5.32 93.6353 5.32C95.7353 5.32 97.2153 6.54 97.2153 9.42V16H94.7953V9.64C94.7953 8.06 94.1553 7.34 92.7153 7.34C91.3553 7.34 90.2553 8.18 90.2553 9.84V16H87.8353ZM102.343 16.2C100.423 16.2 98.8433 15.28 98.8433 13.1C98.8433 10.66 101.203 9.78 104.203 9.78H105.503V9.24C105.503 7.84 105.023 7.14 103.603 7.14C102.343 7.14 101.723 7.74 101.603 8.78H99.2633C99.4633 6.34 101.403 5.32 103.743 5.32C106.083 5.32 107.923 6.28 107.923 9.14V16H105.543V14.72C104.863 15.62 103.943 16.2 102.343 16.2ZM102.923 14.46C104.403 14.46 105.503 13.68 105.503 12.34V11.3H104.263C102.423 11.3 101.243 11.72 101.243 13C101.243 13.88 101.723 14.46 102.923 14.46ZM104.903 3.88C103.943 3.88 103.263 3.08 102.683 3.08C102.323 3.08 102.023 3.42 101.943 3.88H100.443C100.603 2.2 101.463 1.26 102.583 1.26C103.503 1.26 104.203 2.04 104.823 2.04C105.183 2.04 105.463 1.72 105.543 1.24H107.043C106.883 2.92 106.003 3.88 104.903 3.88ZM114.663 16V5.54H117.083V7.14C117.583 6.16 118.723 5.32 120.263 5.32C121.623 5.32 122.703 5.9 123.223 7.2C124.023 5.9 125.463 5.32 126.763 5.32C128.683 5.32 130.243 6.5 130.243 9.38V16H127.823V9.54C127.823 8 127.163 7.34 125.963 7.34C124.763 7.34 123.663 8.14 123.663 9.74V16H121.243V9.54C121.243 8 120.563 7.34 119.383 7.34C118.183 7.34 117.083 8.14 117.083 9.74V16H114.663ZM137.222 16.2C134.142 16.2 131.922 14.18 131.922 10.88V10.72C131.922 7.48 134.142 5.32 137.122 5.32C139.722 5.32 142.062 6.86 142.062 10.6V11.3H134.402C134.482 13.28 135.482 14.4 137.282 14.4C138.742 14.4 139.502 13.82 139.682 12.8H142.022C141.682 15 139.902 16.2 137.222 16.2ZM134.442 9.68H139.662C139.542 7.88 138.622 7.08 137.122 7.08C135.662 7.08 134.682 8.06 134.442 9.68ZM143.884 16V0.700001H146.304V16H143.884ZM148.853 16V0.700001H151.273V7.2C151.773 6.18 152.933 5.32 154.653 5.32C156.753 5.32 158.233 6.54 158.233 9.42V16H155.813V9.64C155.813 8.06 155.173 7.34 153.733 7.34C152.373 7.34 151.273 8.18 151.273 9.84V16H148.853ZM165.301 14.32C167.101 14.32 168.181 12.98 168.181 10.84V10.7C168.181 8.54 167.101 7.22 165.301 7.22C163.501 7.22 162.401 8.52 162.401 10.68V10.84C162.401 12.98 163.461 14.32 165.301 14.32ZM165.281 16.2C162.201 16.2 159.921 14.06 159.921 10.88V10.72C159.921 7.48 162.221 5.32 165.301 5.32C168.361 5.32 170.661 7.46 170.661 10.66V10.82C170.661 14.08 168.361 16.2 165.281 16.2ZM172.448 16V5.54H174.868V7.5C175.528 6.18 176.508 5.4 178.268 5.38V7.64C176.148 7.66 174.868 8.34 174.868 10.56V16H172.448ZM187.823 3.98L189.003 0.880001H191.683L189.603 3.98H187.823ZM188.963 16.2C185.883 16.2 183.663 14.18 183.663 10.88V10.72C183.663 7.48 185.883 5.32 188.863 5.32C191.463 5.32 193.803 6.86 193.803 10.6V11.3H186.143C186.223 13.28 187.223 14.4 189.023 14.4C190.483 14.4 191.243 13.82 191.423 12.8H193.763C193.423 15 191.643 16.2 188.963 16.2ZM186.183 9.68H191.403C191.283 7.88 190.363 7.08 188.863 7.08C187.403 7.08 186.423 8.06 186.183 9.68Z" fill="black"/>
</svg>
