<svg width="195" height="17" viewBox="0 0 195 17" fill="none" xmlns="http://www.w3.org/2000/svg">
<path d="M4.18 16.2C2.26 16.2 0.68 15.28 0.68 13.1C0.68 10.66 3.04 9.78 6.04 9.78H7.34V9.24C7.34 7.84 6.86 7.14 5.44 7.14C4.18 7.14 3.56 7.74 3.44 8.78H1.1C1.3 6.34 3.24 5.32 5.58 5.32C7.92 5.32 9.76 6.28 9.76 9.14V16H7.38V14.72C6.7 15.62 5.78 16.2 4.18 16.2ZM4.76 14.46C6.24 14.46 7.34 13.68 7.34 12.34V11.3H6.1C4.26 11.3 3.08 11.72 3.08 13C3.08 13.88 3.56 14.46 4.76 14.46ZM16.7137 16.2C13.7137 16.2 11.4337 14.24 11.4337 10.9V10.74C11.4337 7.42 13.7937 5.32 16.7137 5.32C19.0337 5.32 21.2137 6.36 21.4937 9.24H19.1537C18.9537 7.84 18.0337 7.26 16.7537 7.26C15.0937 7.26 13.9137 8.54 13.9137 10.7V10.86C13.9137 13.14 15.0337 14.34 16.8137 14.34C18.0937 14.34 19.1937 13.58 19.3337 12.1H21.5537C21.3737 14.5 19.5537 16.2 16.7137 16.2ZM27.9177 14.32C29.7177 14.32 30.7977 12.98 30.7977 10.84V10.7C30.7977 8.54 29.7177 7.22 27.9177 7.22C26.1177 7.22 25.0177 8.52 25.0177 10.68V10.84C25.0177 12.98 26.0777 14.32 27.9177 14.32ZM27.8977 16.2C24.8177 16.2 22.5377 14.06 22.5377 10.88V10.72C22.5377 7.48 24.8377 5.32 27.9177 5.32C30.9777 5.32 33.2777 7.46 33.2777 10.66V10.82C33.2777 14.08 30.9777 16.2 27.8977 16.2ZM35.0642 16V5.54H37.4842V7.2C37.9842 6.18 39.1442 5.32 40.8642 5.32C42.9642 5.32 44.4442 6.54 44.4442 9.42V16H42.0242V9.64C42.0242 8.06 41.3842 7.34 39.9442 7.34C38.5842 7.34 37.4842 8.18 37.4842 9.84V16H35.0642ZM50.3922 16.18C48.3122 16.18 47.2322 15.06 47.2322 13.08V7.36H45.8322V5.54H47.2322V3.24H49.6522V5.54H51.9522V7.36H49.6522V12.86C49.6522 13.78 50.0922 14.2 50.8522 14.2C51.3322 14.2 51.6922 14.14 52.0322 14V15.92C51.6522 16.06 51.1322 16.18 50.3922 16.18ZM58.415 16.2C55.335 16.2 53.115 14.18 53.115 10.88V10.72C53.115 7.48 55.335 5.32 58.315 5.32C60.915 5.32 63.255 6.86 63.255 10.6V11.3H55.595C55.675 13.28 56.675 14.4 58.475 14.4C59.935 14.4 60.695 13.82 60.875 12.8H63.215C62.875 15 61.095 16.2 58.415 16.2ZM55.635 9.68H60.855C60.735 7.88 59.815 7.08 58.315 7.08C56.855 7.08 55.875 8.06 55.635 9.68ZM69.5966 16.2C66.5966 16.2 64.3166 14.24 64.3166 10.9V10.74C64.3166 7.42 66.6766 5.32 69.5966 5.32C71.9166 5.32 74.0966 6.36 74.3766 9.24H72.0366C71.8366 7.84 70.9166 7.26 69.6366 7.26C67.9766 7.26 66.7966 8.54 66.7966 10.7V10.86C66.7966 13.14 67.9166 14.34 69.6966 14.34C70.9766 14.34 72.0766 13.58 72.2166 12.1H74.4366C74.2566 14.5 72.4366 16.2 69.5966 16.2ZM80.7205 16.2C77.6405 16.2 75.4205 14.18 75.4205 10.88V10.72C75.4205 7.48 77.6405 5.32 80.6205 5.32C83.2205 5.32 85.5605 6.86 85.5605 10.6V11.3H77.9005C77.9805 13.28 78.9805 14.4 80.7805 14.4C82.2405 14.4 83.0005 13.82 83.1805 12.8H85.5205C85.1805 15 83.4005 16.2 80.7205 16.2ZM77.9405 9.68H83.1605C83.0405 7.88 82.1205 7.08 80.6205 7.08C79.1605 7.08 78.1805 8.06 77.9405 9.68ZM87.322 16V5.54H89.742V7.2C90.242 6.18 91.402 5.32 93.122 5.32C95.222 5.32 96.702 6.54 96.702 9.42V16H94.282V9.64C94.282 8.06 93.642 7.34 92.202 7.34C90.842 7.34 89.742 8.18 89.742 9.84V16H87.322ZM103.01 16.2C100.39 16.2 98.41 14.34 98.41 10.94V10.78C98.41 7.44 100.39 5.32 103.11 5.32C104.81 5.32 105.87 6.1 106.45 7.14V0.700001H108.87V16H106.45V14.24C105.89 15.28 104.55 16.2 103.01 16.2ZM103.61 14.28C105.29 14.28 106.53 13.16 106.53 10.82V10.66C106.53 8.36 105.47 7.22 103.71 7.22C101.93 7.22 100.89 8.46 100.89 10.72V10.88C100.89 13.18 102.05 14.28 103.61 14.28ZM116.026 14.32C117.826 14.32 118.906 12.98 118.906 10.84V10.7C118.906 8.54 117.826 7.22 116.026 7.22C114.226 7.22 113.126 8.52 113.126 10.68V10.84C113.126 12.98 114.186 14.32 116.026 14.32ZM116.006 16.2C112.926 16.2 110.646 14.06 110.646 10.88V10.72C110.646 7.48 112.946 5.32 116.026 5.32C119.086 5.32 121.386 7.46 121.386 10.66V10.82C121.386 14.08 119.086 16.2 116.006 16.2ZM127.538 16V5.54H129.958V7.2C130.458 6.18 131.618 5.32 133.338 5.32C135.438 5.32 136.918 6.54 136.918 9.42V16H134.498V9.64C134.498 8.06 133.858 7.34 132.418 7.34C131.058 7.34 129.958 8.18 129.958 9.84V16H127.538ZM142.046 16.2C140.126 16.2 138.546 15.28 138.546 13.1C138.546 10.66 140.906 9.78 143.906 9.78H145.206V9.24C145.206 7.84 144.726 7.14 143.306 7.14C142.046 7.14 141.426 7.74 141.306 8.78H138.966C139.166 6.34 141.106 5.32 143.446 5.32C145.786 5.32 147.626 6.28 147.626 9.14V16H145.246V14.72C144.566 15.62 143.646 16.2 142.046 16.2ZM142.626 14.46C144.106 14.46 145.206 13.68 145.206 12.34V11.3H143.966C142.126 11.3 140.946 11.72 140.946 13C140.946 13.88 141.426 14.46 142.626 14.46ZM154.566 16V1.7H159.686C162.626 1.7 164.366 2.82 164.366 5.42V5.5C164.366 6.92 163.726 8.04 162.106 8.54C164.046 8.96 164.966 10.02 164.966 11.92V12C164.966 14.66 163.206 16 160.066 16H154.566ZM157.166 14.1H159.746C161.526 14.1 162.346 13.3 162.346 11.82V11.74C162.346 10.26 161.526 9.52 159.566 9.52H157.166V14.1ZM157.166 7.72H159.366C161.126 7.72 161.806 7.08 161.806 5.62V5.54C161.806 4.18 161.026 3.6 159.326 3.6H157.166V7.72ZM167.056 16V1.7H169.716V7.78H176.136V1.7H178.816V16H176.136V9.92H169.716V16H167.056ZM181.676 16V1.7H186.276C189.476 1.7 191.576 3.12 191.576 6.12V6.2C191.576 9.22 189.396 10.56 186.336 10.56H184.336V16H181.676ZM184.336 8.64H186.276C188.036 8.64 188.976 7.78 188.976 6.2V6.12C188.976 4.42 187.976 3.76 186.276 3.76H184.336V8.64ZM192.496 16.14C191.616 16.14 190.916 15.46 190.916 14.58C190.916 13.7 191.616 13 192.496 13C193.396 13 194.096 13.7 194.096 14.58C194.096 15.46 193.396 16.14 192.496 16.14Z" fill="#DD5900"/>
</svg>
