<svg width="194" height="17" viewBox="0 0 194 17" fill="none" xmlns="http://www.w3.org/2000/svg">
<path d="M5.89546 16.2C2.31546 16.2 0.275463 14.24 0.275463 10.56V1.7H2.95546V10.36C2.95546 12.98 3.79546 14.06 5.91546 14.06C7.97546 14.06 9.01546 13.14 9.01546 10.18V1.7H11.6955V10.4C11.6955 14.14 9.67546 16.2 5.89546 16.2ZM14.1509 16V5.54H16.5709V7.14C17.0709 6.16 18.2109 5.32 19.7509 5.32C21.1109 5.32 22.1909 5.9 22.7109 7.2C23.5109 5.9 24.9509 5.32 26.2509 5.32C28.1709 5.32 29.7309 6.5 29.7309 9.38V16H27.3109V9.54C27.3109 8 26.6509 7.34 25.4509 7.34C24.2509 7.34 23.1509 8.14 23.1509 9.74V16H20.7309V9.54C20.7309 8 20.0509 7.34 18.8709 7.34C17.6709 7.34 16.5709 8.14 16.5709 9.74V16H14.1509ZM39.2159 16.2C37.2959 16.2 35.7159 15.28 35.7159 13.1C35.7159 10.66 38.0759 9.78 41.0759 9.78H42.3759V9.24C42.3759 7.84 41.8959 7.14 40.4759 7.14C39.2159 7.14 38.5959 7.74 38.4759 8.78H36.1359C36.3359 6.34 38.2759 5.32 40.6159 5.32C42.9559 5.32 44.7959 6.28 44.7959 9.14V16H42.4159V14.72C41.7359 15.62 40.8159 16.2 39.2159 16.2ZM39.7959 14.46C41.2759 14.46 42.3759 13.68 42.3759 12.34V11.3H41.1359C39.2959 11.3 38.1159 11.72 38.1159 13C38.1159 13.88 38.5959 14.46 39.7959 14.46ZM47.1697 16V5.54H49.5897V7.14C50.0897 6.16 51.2297 5.32 52.7697 5.32C54.1297 5.32 55.2097 5.9 55.7297 7.2C56.5297 5.9 57.9697 5.32 59.2697 5.32C61.1897 5.32 62.7497 6.5 62.7497 9.38V16H60.3297V9.54C60.3297 8 59.6697 7.34 58.4697 7.34C57.2697 7.34 56.1697 8.14 56.1697 9.74V16H53.7497V9.54C53.7497 8 53.0697 7.34 51.8897 7.34C50.6897 7.34 49.5897 8.14 49.5897 9.74V16H47.1697ZM67.869 16.2C65.949 16.2 64.369 15.28 64.369 13.1C64.369 10.66 66.729 9.78 69.729 9.78H71.029V9.24C71.029 7.84 70.549 7.14 69.129 7.14C67.869 7.14 67.249 7.74 67.129 8.78H64.789C64.989 6.34 66.929 5.32 69.269 5.32C71.609 5.32 73.449 6.28 73.449 9.14V16H71.069V14.72C70.389 15.62 69.469 16.2 67.869 16.2ZM68.449 14.46C69.929 14.46 71.029 13.68 71.029 12.34V11.3H69.789C67.949 11.3 66.769 11.72 66.769 13C66.769 13.88 67.249 14.46 68.449 14.46ZM75.8228 16V5.54H78.2428V7.2C78.7428 6.18 79.9028 5.32 81.6228 5.32C83.7228 5.32 85.2028 6.54 85.2028 9.42V16H82.7828V9.64C82.7828 8.06 82.1428 7.34 80.7028 7.34C79.3428 7.34 78.2428 8.18 78.2428 9.84V16H75.8228ZM87.5908 16V0.700001H90.0108V7.2C90.5108 6.18 91.6708 5.32 93.3908 5.32C95.4908 5.32 96.9708 6.54 96.9708 9.42V16H94.5508V9.64C94.5508 8.06 93.9108 7.34 92.4708 7.34C91.1108 7.34 90.0108 8.18 90.0108 9.84V16H87.5908ZM102.099 16.2C100.179 16.2 98.5987 15.28 98.5987 13.1C98.5987 10.66 100.959 9.78 103.959 9.78H105.259V9.24C105.259 7.84 104.779 7.14 103.359 7.14C102.099 7.14 101.479 7.74 101.359 8.78H99.0187C99.2187 6.34 101.159 5.32 103.499 5.32C105.839 5.32 107.679 6.28 107.679 9.14V16H105.299V14.72C104.619 15.62 103.699 16.2 102.099 16.2ZM102.679 14.46C104.159 14.46 105.259 13.68 105.259 12.34V11.3H104.019C102.179 11.3 100.999 11.72 100.999 13C100.999 13.88 101.479 14.46 102.679 14.46ZM104.659 3.88C103.699 3.88 103.019 3.08 102.439 3.08C102.079 3.08 101.779 3.42 101.699 3.88H100.199C100.359 2.2 101.219 1.26 102.339 1.26C103.259 1.26 103.959 2.04 104.579 2.04C104.939 2.04 105.219 1.72 105.299 1.24H106.799C106.639 2.92 105.759 3.88 104.659 3.88ZM114.418 16V5.54H116.838V7.14C117.338 6.16 118.478 5.32 120.018 5.32C121.378 5.32 122.458 5.9 122.978 7.2C123.778 5.9 125.218 5.32 126.518 5.32C128.438 5.32 129.998 6.5 129.998 9.38V16H127.578V9.54C127.578 8 126.918 7.34 125.718 7.34C124.518 7.34 123.418 8.14 123.418 9.74V16H120.998V9.54C120.998 8 120.318 7.34 119.138 7.34C117.938 7.34 116.838 8.14 116.838 9.74V16H114.418ZM136.977 16.2C133.897 16.2 131.677 14.18 131.677 10.88V10.72C131.677 7.48 133.897 5.32 136.877 5.32C139.477 5.32 141.817 6.86 141.817 10.6V11.3H134.157C134.237 13.28 135.237 14.4 137.037 14.4C138.497 14.4 139.257 13.82 139.437 12.8H141.777C141.437 15 139.657 16.2 136.977 16.2ZM134.197 9.68H139.417C139.297 7.88 138.377 7.08 136.877 7.08C135.417 7.08 134.437 8.06 134.197 9.68ZM143.639 16V0.700001H146.059V16H143.639ZM148.609 16V0.700001H151.029V7.2C151.529 6.18 152.689 5.32 154.409 5.32C156.509 5.32 157.989 6.54 157.989 9.42V16H155.569V9.64C155.569 8.06 154.929 7.34 153.489 7.34C152.129 7.34 151.029 8.18 151.029 9.84V16H148.609ZM165.057 14.32C166.857 14.32 167.937 12.98 167.937 10.84V10.7C167.937 8.54 166.857 7.22 165.057 7.22C163.257 7.22 162.157 8.52 162.157 10.68V10.84C162.157 12.98 163.217 14.32 165.057 14.32ZM165.037 16.2C161.957 16.2 159.677 14.06 159.677 10.88V10.72C159.677 7.48 161.977 5.32 165.057 5.32C168.117 5.32 170.417 7.46 170.417 10.66V10.82C170.417 14.08 168.117 16.2 165.037 16.2ZM172.203 16V5.54H174.623V7.5C175.283 6.18 176.263 5.4 178.023 5.38V7.64C175.903 7.66 174.623 8.34 174.623 10.56V16H172.203ZM187.578 3.98L188.758 0.880001H191.438L189.358 3.98H187.578ZM188.718 16.2C185.638 16.2 183.418 14.18 183.418 10.88V10.72C183.418 7.48 185.638 5.32 188.618 5.32C191.218 5.32 193.558 6.86 193.558 10.6V11.3H185.898C185.978 13.28 186.978 14.4 188.778 14.4C190.238 14.4 190.998 13.82 191.178 12.8H193.518C193.178 15 191.398 16.2 188.718 16.2ZM185.938 9.68H191.158C191.038 7.88 190.118 7.08 188.618 7.08C187.158 7.08 186.178 8.06 185.938 9.68Z" fill="black"/>
</svg>
