<svg width="338" height="20" viewBox="0 0 338 20" fill="none" xmlns="http://www.w3.org/2000/svg">
<path d="M7.95546 14.06C10.6555 14.06 12.3555 12 12.3555 8.9V8.74C12.3555 5.8 10.7155 3.62 7.91546 3.62C5.11546 3.62 3.45546 5.68 3.45546 8.76V8.92C3.45546 12.04 5.35546 14.06 7.95546 14.06ZM7.91546 16.2C3.53546 16.2 0.675463 13.06 0.675463 8.94V8.78C0.675463 4.6 3.67546 1.5 7.91546 1.5C12.1755 1.5 15.1155 4.52 15.1155 8.72V8.88C15.1155 13.06 12.2555 16.2 7.91546 16.2ZM21.8701 16V7.36H20.4501V5.54H21.8701V4.14C21.8701 1.84 23.1501 0.600001 25.3901 0.600001C25.9701 0.600001 26.3301 0.660001 26.7701 0.8V2.68C26.4901 2.58 26.1101 2.5 25.6701 2.5C24.6901 2.5 24.2901 3.14 24.2901 4.04V5.54H26.6701V7.36H24.2901V16H21.8701ZM31.7962 16.2C29.7362 16.2 28.1962 15.02 28.1962 12.24V5.54H30.6162V11.96C30.6162 13.54 31.2762 14.26 32.6762 14.26C33.9762 14.26 35.1162 13.42 35.1162 11.76V5.54H37.5362V16H35.1162V14.36C34.5962 15.38 33.4962 16.2 31.7962 16.2ZM43.5656 16.18C41.4856 16.18 40.4056 15.06 40.4056 13.08V7.36H39.0056V5.54H40.4056V3.24H42.8256V5.54H45.1256V7.36H42.8256V12.86C42.8256 13.78 43.2656 14.2 44.0256 14.2C44.5056 14.2 44.8656 14.14 45.2056 14V15.92C44.8256 16.06 44.3056 16.18 43.5656 16.18ZM50.4884 16.2C48.4284 16.2 46.8884 15.02 46.8884 12.24V5.54H49.3084V11.96C49.3084 13.54 49.9684 14.26 51.3684 14.26C52.6684 14.26 53.8084 13.42 53.8084 11.76V5.54H56.2284V16H53.8084V14.36C53.2884 15.38 52.1884 16.2 50.4884 16.2ZM58.6978 16V5.54H61.1178V7.5C61.7778 6.18 62.7578 5.4 64.5178 5.38V7.64C62.3978 7.66 61.1178 8.34 61.1178 10.56V16H58.6978ZM70.7317 14.32C72.5317 14.32 73.6117 12.98 73.6117 10.84V10.7C73.6117 8.54 72.5317 7.22 70.7317 7.22C68.9317 7.22 67.8317 8.52 67.8317 10.68V10.84C67.8317 12.98 68.8917 14.32 70.7317 14.32ZM70.7117 16.2C67.6317 16.2 65.3517 14.06 65.3517 10.88V10.72C65.3517 7.48 67.6517 5.32 70.7317 5.32C73.7917 5.32 76.0917 7.46 76.0917 10.66V10.82C76.0917 14.08 73.7917 16.2 70.7117 16.2ZM80.8639 19.76V17.9C81.9239 17.82 82.3039 17.3 82.3039 16.42V5.54H84.7239V16.36C84.7239 18.48 83.7639 19.72 80.8639 19.76ZM83.4839 3.82C82.6839 3.82 82.0439 3.22 82.0439 2.44C82.0439 1.64 82.6839 1.04 83.4839 1.04C84.2839 1.04 84.9239 1.64 84.9239 2.44C84.9239 3.22 84.2839 3.82 83.4839 3.82ZM90.0136 16.2C88.0936 16.2 86.5136 15.28 86.5136 13.1C86.5136 10.66 88.8736 9.78 91.8736 9.78H93.1736V9.24C93.1736 7.84 92.6936 7.14 91.2736 7.14C90.0136 7.14 89.3936 7.74 89.2736 8.78H86.9336C87.1336 6.34 89.0736 5.32 91.4136 5.32C93.7536 5.32 95.5936 6.28 95.5936 9.14V16H93.2136V14.72C92.5336 15.62 91.6136 16.2 90.0136 16.2ZM90.5936 14.46C92.0736 14.46 93.1736 13.68 93.1736 12.34V11.3H91.9336C90.0936 11.3 88.9136 11.72 88.9136 13C88.9136 13.88 89.3936 14.46 90.5936 14.46ZM90.4136 3.98L91.5936 0.880001H94.2736L92.1936 3.98H90.4136ZM106.933 16.2C103.853 16.2 101.633 14.18 101.633 10.88V10.72C101.633 7.48 103.853 5.32 106.833 5.32C109.433 5.32 111.773 6.86 111.773 10.6V11.3H104.113C104.193 13.28 105.193 14.4 106.993 14.4C108.453 14.4 109.213 13.82 109.393 12.8H111.733C111.393 15 109.613 16.2 106.933 16.2ZM104.153 9.68H109.373C109.253 7.88 108.333 7.08 106.833 7.08C105.373 7.08 104.393 8.06 104.153 9.68ZM117.212 16.2C114.512 16.2 112.932 14.96 112.832 12.74H115.112C115.232 13.8 115.772 14.42 117.192 14.42C118.492 14.42 119.072 13.96 119.072 13.08C119.072 12.22 118.372 11.9 116.832 11.64C114.072 11.2 113.052 10.42 113.052 8.46C113.052 6.36 115.012 5.32 116.972 5.32C119.112 5.32 120.812 6.12 121.072 8.48H118.832C118.632 7.52 118.092 7.08 116.972 7.08C115.932 7.08 115.312 7.58 115.312 8.32C115.312 9.08 115.812 9.38 117.472 9.66C119.932 10.04 121.392 10.64 121.392 12.86C121.392 14.98 119.892 16.2 117.212 16.2ZM126.675 16.18C124.595 16.18 123.515 15.06 123.515 13.08V7.36H122.115V5.54H123.515V3.24H125.935V5.54H128.235V7.36H125.935V12.86C125.935 13.78 126.375 14.2 127.135 14.2C127.615 14.2 127.975 14.14 128.315 14V15.92C127.935 16.06 127.415 16.18 126.675 16.18ZM132.935 16.2C131.015 16.2 129.435 15.28 129.435 13.1C129.435 10.66 131.795 9.78 134.795 9.78H136.095V9.24C136.095 7.84 135.615 7.14 134.195 7.14C132.935 7.14 132.315 7.74 132.195 8.78H129.855C130.055 6.34 131.995 5.32 134.335 5.32C136.675 5.32 138.515 6.28 138.515 9.14V16H136.135V14.72C135.455 15.62 134.535 16.2 132.935 16.2ZM133.515 14.46C134.995 14.46 136.095 13.68 136.095 12.34V11.3H134.855C133.015 11.3 131.835 11.72 131.835 13C131.835 13.88 132.315 14.46 133.515 14.46ZM133.335 3.98L134.515 0.880001H137.195L135.115 3.98H133.335ZM147.995 16.2C146.075 16.2 144.495 15.28 144.495 13.1C144.495 10.66 146.855 9.78 149.855 9.78H151.155V9.24C151.155 7.84 150.675 7.14 149.255 7.14C147.995 7.14 147.375 7.74 147.255 8.78H144.915C145.115 6.34 147.055 5.32 149.395 5.32C151.735 5.32 153.575 6.28 153.575 9.14V16H151.195V14.72C150.515 15.62 149.595 16.2 147.995 16.2ZM148.575 14.46C150.055 14.46 151.155 13.68 151.155 12.34V11.3H149.915C148.075 11.3 146.895 11.72 146.895 13C146.895 13.88 147.375 14.46 148.575 14.46ZM160.529 16.2C157.529 16.2 155.249 14.24 155.249 10.9V10.74C155.249 7.42 157.609 5.32 160.529 5.32C162.849 5.32 165.029 6.36 165.309 9.24H162.969C162.769 7.84 161.849 7.26 160.569 7.26C158.909 7.26 157.729 8.54 157.729 10.7V10.86C157.729 13.14 158.849 14.34 160.629 14.34C161.909 14.34 163.009 13.58 163.149 12.1H165.369C165.189 14.5 163.369 16.2 160.529 16.2ZM171.732 14.32C173.532 14.32 174.612 12.98 174.612 10.84V10.7C174.612 8.54 173.532 7.22 171.732 7.22C169.932 7.22 168.832 8.52 168.832 10.68V10.84C168.832 12.98 169.892 14.32 171.732 14.32ZM171.712 16.2C168.632 16.2 166.352 14.06 166.352 10.88V10.72C166.352 7.48 168.652 5.32 171.732 5.32C174.792 5.32 177.092 7.46 177.092 10.66V10.82C177.092 14.08 174.792 16.2 171.712 16.2ZM178.879 16V5.54H181.299V7.2C181.799 6.18 182.959 5.32 184.679 5.32C186.779 5.32 188.259 6.54 188.259 9.42V16H185.839V9.64C185.839 8.06 185.199 7.34 183.759 7.34C182.399 7.34 181.299 8.18 181.299 9.84V16H178.879ZM194.207 16.18C192.127 16.18 191.047 15.06 191.047 13.08V7.36H189.647V5.54H191.047V3.24H193.467V5.54H195.767V7.36H193.467V12.86C193.467 13.78 193.907 14.2 194.667 14.2C195.147 14.2 195.507 14.14 195.847 14V15.92C195.467 16.06 194.947 16.18 194.207 16.18ZM202.23 16.2C199.15 16.2 196.93 14.18 196.93 10.88V10.72C196.93 7.48 199.15 5.32 202.13 5.32C204.73 5.32 207.07 6.86 207.07 10.6V11.3H199.41C199.49 13.28 200.49 14.4 202.29 14.4C203.75 14.4 204.51 13.82 204.69 12.8H207.03C206.69 15 204.91 16.2 202.23 16.2ZM199.45 9.68H204.67C204.55 7.88 203.63 7.08 202.13 7.08C200.67 7.08 199.69 8.06 199.45 9.68ZM213.411 16.2C210.411 16.2 208.131 14.24 208.131 10.9V10.74C208.131 7.42 210.491 5.32 213.411 5.32C215.731 5.32 217.911 6.36 218.191 9.24H215.851C215.651 7.84 214.731 7.26 213.451 7.26C211.791 7.26 210.611 8.54 210.611 10.7V10.86C210.611 13.14 211.731 14.34 213.511 14.34C214.791 14.34 215.891 13.58 216.031 12.1H218.251C218.071 14.5 216.251 16.2 213.411 16.2ZM224.535 16.2C221.455 16.2 219.235 14.18 219.235 10.88V10.72C219.235 7.48 221.455 5.32 224.435 5.32C227.035 5.32 229.375 6.86 229.375 10.6V11.3H221.715C221.795 13.28 222.795 14.4 224.595 14.4C226.055 14.4 226.815 13.82 226.995 12.8H229.335C228.995 15 227.215 16.2 224.535 16.2ZM221.755 9.68H226.975C226.855 7.88 225.935 7.08 224.435 7.08C222.975 7.08 221.995 8.06 221.755 9.68ZM231.137 16V5.54H233.557V7.2C234.057 6.18 235.217 5.32 236.937 5.32C239.037 5.32 240.517 6.54 240.517 9.42V16H238.097V9.64C238.097 8.06 237.457 7.34 236.017 7.34C234.657 7.34 233.557 8.18 233.557 9.84V16H231.137ZM246.825 16.2C244.205 16.2 242.225 14.34 242.225 10.94V10.78C242.225 7.44 244.205 5.32 246.925 5.32C248.625 5.32 249.685 6.1 250.265 7.14V0.700001H252.685V16H250.265V14.24C249.705 15.28 248.365 16.2 246.825 16.2ZM247.425 14.28C249.105 14.28 250.345 13.16 250.345 10.82V10.66C250.345 8.36 249.285 7.22 247.525 7.22C245.745 7.22 244.705 8.46 244.705 10.72V10.88C244.705 13.18 245.865 14.28 247.425 14.28ZM259.841 14.32C261.641 14.32 262.721 12.98 262.721 10.84V10.7C262.721 8.54 261.641 7.22 259.841 7.22C258.041 7.22 256.941 8.52 256.941 10.68V10.84C256.941 12.98 258.001 14.32 259.841 14.32ZM259.821 16.2C256.741 16.2 254.461 14.06 254.461 10.88V10.72C254.461 7.48 256.761 5.32 259.841 5.32C262.901 5.32 265.201 7.46 265.201 10.66V10.82C265.201 14.08 262.901 16.2 259.821 16.2ZM271.353 16V5.54H273.773V7.2C274.273 6.18 275.433 5.32 277.153 5.32C279.253 5.32 280.733 6.54 280.733 9.42V16H278.313V9.64C278.313 8.06 277.673 7.34 276.233 7.34C274.873 7.34 273.773 8.18 273.773 9.84V16H271.353ZM285.861 16.2C283.941 16.2 282.361 15.28 282.361 13.1C282.361 10.66 284.721 9.78 287.721 9.78H289.021V9.24C289.021 7.84 288.541 7.14 287.121 7.14C285.861 7.14 285.241 7.74 285.121 8.78H282.781C282.981 6.34 284.921 5.32 287.261 5.32C289.601 5.32 291.441 6.28 291.441 9.14V16H289.061V14.72C288.381 15.62 287.461 16.2 285.861 16.2ZM286.441 14.46C287.921 14.46 289.021 13.68 289.021 12.34V11.3H287.781C285.941 11.3 284.761 11.72 284.761 13C284.761 13.88 285.241 14.46 286.441 14.46ZM298.381 16V1.7H303.501C306.441 1.7 308.181 2.82 308.181 5.42V5.5C308.181 6.92 307.541 8.04 305.921 8.54C307.861 8.96 308.781 10.02 308.781 11.92V12C308.781 14.66 307.021 16 303.881 16H298.381ZM300.981 14.1H303.561C305.341 14.1 306.161 13.3 306.161 11.82V11.74C306.161 10.26 305.341 9.52 303.381 9.52H300.981V14.1ZM300.981 7.72H303.181C304.941 7.72 305.621 7.08 305.621 5.62V5.54C305.621 4.18 304.841 3.6 303.141 3.6H300.981V7.72ZM310.871 16V1.7H313.531V7.78H319.951V1.7H322.631V16H319.951V9.92H313.531V16H310.871ZM325.491 16V1.7H330.091C333.291 1.7 335.391 3.12 335.391 6.12V6.2C335.391 9.22 333.211 10.56 330.151 10.56H328.151V16H325.491ZM328.151 8.64H330.091C331.851 8.64 332.791 7.78 332.791 6.2V6.12C332.791 4.42 331.791 3.76 330.091 3.76H328.151V8.64ZM336.311 16.14C335.431 16.14 334.731 15.46 334.731 14.58C334.731 13.7 335.431 13 336.311 13C337.211 13 337.911 13.7 337.911 14.58C337.911 15.46 337.211 16.14 336.311 16.14Z" fill="#DD5900"/>
</svg>
