<svg width="168" height="90" viewBox="0 0 168 90" fill="none" xmlns="http://www.w3.org/2000/svg">
<path d="M146.61 46.7719H148.252V68.3937H146.61V46.7719ZM141.118 57.5763V61.5587C141.118 62.2457 141.008 62.9327 140.789 63.5977C140.571 64.2616 140.246 64.8672 139.821 65.3975C139.397 65.9259 138.862 66.3567 138.232 66.6782C137.603 66.9986 136.864 67.1613 136.035 67.1613C135.392 67.1613 134.757 67.0458 134.147 66.8178C133.539 66.5918 132.997 66.2141 132.532 65.6969C132.066 65.1786 131.688 64.4936 131.408 63.6609C131.128 62.8263 130.984 61.7877 130.984 60.5734C130.984 59.4635 131.121 58.4893 131.392 57.6757C131.662 56.8641 132.03 56.1842 132.486 55.6548C132.94 55.1285 133.468 54.7298 134.056 54.4706C134.645 54.2125 135.28 54.0809 135.939 54.0809C137.015 54.0809 138 54.4013 138.87 55.0341C139.739 55.6659 140.495 56.5216 141.119 57.5763H141.118ZM141.153 55.682C140.963 55.3726 140.734 55.0622 140.47 54.7559C140.137 54.3692 139.736 54.0106 139.277 53.6912C138.817 53.3698 138.294 53.1037 137.717 52.9008C137.137 52.6969 136.487 52.5944 135.781 52.5944C134.904 52.5944 134.069 52.7742 133.299 53.1278C132.529 53.4813 131.84 54.0096 131.252 54.6936C130.665 55.3786 130.195 56.2233 129.854 57.2046C129.514 58.1859 129.341 59.3189 129.341 60.5744C129.341 61.9996 129.509 63.2341 129.837 64.2455C130.168 65.2609 130.633 66.1067 131.221 66.7605C131.81 67.4154 132.517 67.8995 133.32 68.1998C134.121 68.4991 135.002 68.6508 135.939 68.6508C137.158 68.6508 138.228 68.3455 139.117 67.7448C139.913 67.2055 140.585 66.4933 141.117 65.6235V67.5741C141.117 68.6177 140.995 69.5186 140.756 70.2488C140.518 70.973 140.182 71.5666 139.762 72.0115C139.341 72.4545 138.824 72.7769 138.228 72.9738C137.625 73.1716 136.94 73.2721 136.193 73.2721C135.212 73.2721 134.296 73.1556 133.472 72.9255C132.644 72.6945 131.93 72.4183 131.348 72.106L131.251 72.0537L130.813 73.4077L130.881 73.4428C131.474 73.7622 132.233 74.0635 133.136 74.3397C134.042 74.617 135.048 74.7576 136.131 74.7576C138.199 74.7576 139.838 74.16 141.005 72.9808C142.17 71.8016 142.761 69.9927 142.761 67.6042V52.8485H141.509L141.152 55.683L141.153 55.682ZM125.375 60.473V62.0991C125.375 62.7198 125.249 63.3405 125.001 63.9402C124.752 64.5418 124.39 65.0942 123.924 65.5824C123.458 66.0695 122.876 66.4692 122.193 66.7706C121.51 67.0719 120.71 67.2235 119.816 67.2235C119.361 67.2235 118.921 67.1613 118.508 67.0377C118.099 66.9152 117.736 66.7224 117.43 66.4662C117.124 66.2111 116.881 65.8857 116.709 65.497C116.535 65.1083 116.446 64.6392 116.446 64.1029C116.446 62.8464 116.855 61.9193 117.662 61.3468C118.478 60.7662 119.843 60.473 121.72 60.473H125.375ZM121.339 52.5904C120.256 52.5904 119.255 52.725 118.36 52.9922C117.468 53.2583 116.725 53.5667 116.149 53.9072L116.087 53.9453L116.493 55.2029L116.59 55.1486C117.195 54.8152 117.889 54.539 118.648 54.33C119.41 54.1211 120.316 54.0147 121.339 54.0147C122.642 54.0147 123.653 54.318 124.342 54.9146C125.026 55.5082 125.374 56.5668 125.374 58.0574V59.0477H121.719C119.487 59.0477 117.771 59.4716 116.617 60.3062C115.454 61.1469 114.865 62.4245 114.865 64.1019C114.865 64.8331 114.991 65.4879 115.238 66.0474C115.485 66.6079 115.835 67.089 116.277 67.4787C116.718 67.8664 117.246 68.1617 117.849 68.3565C118.446 68.5504 119.097 68.6478 119.781 68.6478C121.103 68.6478 122.263 68.3545 123.225 67.775C124.112 67.2416 124.846 66.4964 125.407 65.5613L125.764 68.3927H126.984V58.0574C126.984 56.3871 126.511 55.0442 125.578 54.0659C124.645 53.0866 123.218 52.5904 121.339 52.5904Z" fill="white"/>
<path d="M91.1786 26.8486C90.0658 27.7435 89.886 29.3877 90.7789 30.5016L104.785 47.9943C105.677 49.1092 107.318 49.2899 108.43 48.395C109.543 47.5001 109.723 45.8559 108.83 44.742L94.8246 27.2493C94.3134 26.6115 93.5591 26.2801 92.7977 26.2801C92.2282 26.2801 91.6547 26.4659 91.1797 26.8486" fill="white"/>
<path d="M85.4315 55.9893C85.1964 57.3995 86.1546 58.7454 87.5618 58.9804L103.774 61.6903C105.181 61.9253 106.524 60.9641 106.759 59.5539C106.994 58.1437 106.035 56.7978 104.628 56.5628L88.4165 53.8529C88.2739 53.8288 88.1313 53.8178 87.9907 53.8178C86.7482 53.8178 85.6424 54.7217 85.4315 55.9883" fill="white"/>
<path d="M111.805 14.9524C110.388 15.1182 109.364 16.4138 109.528 17.8341L112.11 40.1117C112.276 41.5319 113.57 42.5574 114.986 42.3927C116.402 42.227 117.427 40.9313 117.262 39.5111L114.68 17.2344C114.526 15.9147 113.398 14.9354 112.102 14.9354C112.004 14.9354 111.905 14.9414 111.804 14.9524" fill="white"/>
<path d="M127.287 22.4383L121.154 39.2771C120.666 40.6199 121.361 42.1195 122.701 42.6087C124.042 43.0978 125.538 42.4018 126.026 41.0579L132.159 24.2191C132.648 22.8762 131.952 21.3766 130.612 20.8875C130.321 20.781 130.024 20.7308 129.73 20.7308C128.67 20.7308 127.671 21.3866 127.287 22.4383Z" fill="white"/>
<path d="M137.183 34.6739L130.1 42.5042C129.143 43.5628 129.223 45.2141 130.28 46.1743C131.337 47.1335 132.984 47.0531 133.942 45.9935L141.025 38.1632C141.982 37.1045 141.902 35.4533 140.845 34.4931C140.351 34.0441 139.727 33.8232 139.106 33.8232C138.399 33.8232 137.693 34.1094 137.183 34.6729" fill="white"/>
<line x1="69.4224" y1="14.5807" x2="69.4224" y2="74.8038" stroke="white" stroke-width="0.722676"/>
<g clip-path="url(#clip0_5505_14273)">
<path d="M23.676 22.5173L23.6983 22.4789L1.28663 62.7331C0.978737 63.296 0.819824 63.9228 0.819824 64.5574C0.819824 66.5914 2.42633 68.2468 4.40033 68.2468H49.3925C51.3665 68.2468 52.973 66.5914 52.973 64.5574C52.973 63.8691 52.7893 63.1988 52.4392 62.618L52.469 62.6691L29.9406 22.4585L29.958 22.4892C29.3273 21.3148 28.1255 20.5856 26.8219 20.5856C25.5183 20.5856 24.3017 21.325 23.6735 22.5173" fill="white"/>
<path d="M46.686 57.03C47.1329 57.03 47.4979 57.4061 47.4979 57.8667C47.4979 58.3272 47.1329 58.7033 46.686 58.7033C46.239 58.7033 45.874 58.3272 45.874 57.8667C45.874 57.4061 46.239 57.03 46.686 57.03ZM46.686 58.5191C47.0088 58.5191 47.2645 58.253 47.2645 57.8667C47.2645 57.4803 47.0088 57.2142 46.686 57.2142C46.3632 57.2142 46.1074 57.4803 46.1074 57.8667C46.1074 58.253 46.3607 58.5191 46.686 58.5191ZM46.3607 57.3985H46.7009C46.9293 57.3985 47.0609 57.4675 47.0609 57.6774C47.0609 57.8462 46.9616 57.9127 46.8225 57.9255L47.0609 58.3298H46.8623L46.6462 57.9358H46.5544V58.3298H46.3607V57.3985ZM46.7133 57.7797C46.8052 57.7797 46.8697 57.7643 46.8697 57.6569C46.8697 57.5622 46.7704 57.5494 46.6934 57.5494H46.5569V57.7797H46.7133Z" fill="#007A53"/>
<path d="M45.971 55.1162L28.0511 23.1928C27.7879 22.7041 27.2838 22.374 26.7053 22.374C26.1268 22.374 25.6152 22.7092 25.352 23.203L12.7408 45.8746C16.731 46.1049 18.6578 44.2601 20.5226 42.4717C22.1812 40.8854 23.892 39.2428 26.75 39.2428C30.4373 39.2428 32.3219 42.7787 32.4013 42.9399C32.6571 43.4695 32.4485 44.1194 31.9345 44.3855C31.4181 44.6516 30.8122 44.4418 30.5266 43.9122C30.4174 43.7126 29.0269 41.4022 26.7475 41.4022C24.7164 41.4022 23.4948 42.5715 21.9503 44.0529C19.9192 46 16.9148 47.9317 11.9115 47.3586L7.56872 55.1674C7.44208 55.3976 7.37256 55.6637 7.37256 55.9452C7.37256 56.8202 8.06035 57.5289 8.90954 57.5289H26.9586C26.75 57.227 24.5774 54.0672 24.5774 54.0672C23.6636 52.6113 24.416 51.4037 24.6618 51.0199L27.2863 46.6857C27.4353 46.44 27.6687 46.2686 27.9394 46.2047C28.2125 46.1407 28.4931 46.1867 28.7314 46.3403C29.2206 46.6575 29.372 47.3253 29.0642 47.8294L26.4148 52.2045C26.2236 52.5039 26.1714 52.6139 26.3602 52.9235C26.8592 53.7474 29.2827 57.4522 29.3323 57.5289H44.6649C45.5141 57.5289 46.2019 56.8202 46.2019 55.9452C46.2019 55.6407 46.1175 55.3541 45.9735 55.1136M38.7405 46.3991C38.4574 46.701 38.1073 46.7701 37.7746 46.5833C37.489 46.4221 36.8956 46.1535 36.1308 46.1535C35.366 46.1535 34.2685 46.4017 33.4914 47.3535C33.4914 47.3535 29.8736 52.0433 29.8711 52.0433C29.814 52.1278 29.5881 52.2941 29.3274 52.3069C29.1287 52.3197 28.9499 52.2378 28.8059 52.074C28.6743 51.9205 28.6222 51.7465 28.6222 51.5854C28.6222 51.4242 28.6694 51.2809 28.7339 51.1657C30.333 48.3718 31.1226 46.9927 31.1251 46.9876C32.4262 44.8 34.0625 44.232 35.5076 44.1783C35.3785 43.6972 34.8223 41.6453 34.8223 41.6401C34.7676 41.415 34.6857 41.0235 35.0432 40.7933C35.4753 40.5093 35.8353 40.7702 35.9719 41.0005L38.8249 45.4652C38.954 45.6699 38.9838 46.1305 38.7405 46.394" fill="#007A53"/>
<path d="M35.9718 41.0056C35.8327 40.7727 35.4752 40.5143 35.0431 40.7983C34.6881 41.0312 34.7675 41.4201 34.8222 41.6452C34.8222 41.6478 35.3783 43.6998 35.5075 44.1833C34.0599 44.2371 32.4236 44.8051 31.1249 46.9926C31.1249 46.9978 30.3329 48.3768 28.7338 51.1708C28.6692 51.2834 28.6221 51.4318 28.6221 51.5904C28.6221 51.7491 28.6717 51.9256 28.8058 52.0791C28.9473 52.2429 29.1261 52.3222 29.3272 52.3119C29.5904 52.2991 29.8139 52.1303 29.871 52.0484L33.4913 47.3585C34.2684 46.4067 35.3262 46.1586 36.1307 46.1586C36.9352 46.1586 37.4889 46.4272 37.7745 46.5884C38.1072 46.7752 38.4573 46.7061 38.7403 46.4042C38.9862 46.1406 38.9539 45.6775 38.8248 45.4754L35.9718 41.0107V41.0056Z" fill="#FFA400"/>
<path d="M21.9528 44.0581C23.4973 42.5766 24.7164 41.4074 26.75 41.4074C29.0294 41.4074 30.4199 43.7178 30.5292 43.9173C30.8147 44.447 31.4206 44.6568 31.937 44.3907C32.451 44.122 32.6596 43.4721 32.4038 42.9451C32.3244 42.7839 30.4373 39.2479 26.7525 39.2479C23.897 39.2479 22.1838 40.8905 20.5251 42.4769C18.6604 44.2653 16.7335 46.11 12.7433 45.8798L11.9165 47.3663C16.9198 47.9394 19.9242 46.0077 21.9553 44.0606" fill="#FFA400"/>
<path d="M26.4146 52.2097L29.064 47.8345C29.3719 47.3305 29.2204 46.6627 28.7312 46.3454C28.4929 46.1919 28.2123 46.1433 27.9392 46.2098C27.6685 46.2738 27.4351 46.4452 27.2861 46.6908L24.6616 51.0251C24.4158 51.4088 23.6634 52.6165 24.5772 54.0723C24.5772 54.0723 26.7498 57.2347 26.9584 57.5341H29.3297C29.28 57.4599 26.8566 53.7525 26.3575 52.9286C26.1713 52.619 26.2209 52.509 26.4121 52.2097" fill="#FFA400"/>
<path d="M6.42882 59.3276H7.43444L8.62132 62.5003H7.71998L7.49155 61.8223H6.33446L6.09113 62.5003H5.25684L6.42633 59.3276H6.42882ZM6.93039 59.9826H6.92045L6.52317 61.2235H7.29539L6.93039 59.9826Z" fill="#007A53"/>
<path d="M11.5116 61.2951C11.5116 62.1625 10.9653 62.5539 10.1608 62.5539C9.35632 62.5539 8.81006 62.1625 8.81006 61.2951V59.325H9.63193V61.1518C9.63193 61.5689 9.74119 61.9245 10.1608 61.9245C10.5804 61.9245 10.6897 61.5689 10.6897 61.1518V59.325H11.5116V61.2951Z" fill="#007A53"/>
<path d="M11.9612 61.7173C12.1722 61.835 12.4677 61.9271 12.8079 61.9271C13.0686 61.9271 13.3144 61.8734 13.3144 61.6175C13.3144 61.0265 11.8594 61.4 11.8594 60.2436C11.8594 59.4785 12.5819 59.2713 13.2002 59.2713C13.4957 59.2713 13.7862 59.3174 13.9948 59.389L13.9426 60.044C13.7316 59.9442 13.4932 59.8982 13.2598 59.8982C13.0512 59.8982 12.7086 59.9161 12.7086 60.195C12.7086 60.7092 14.1636 60.3638 14.1636 61.5101C14.1636 62.3339 13.4932 62.5565 12.8079 62.5565C12.5199 62.5565 12.1648 62.5105 11.8892 62.4209L11.9587 61.7199L11.9612 61.7173Z" fill="#007A53"/>
<path d="M15.0894 59.9545H14.3296V59.3276H16.6686V59.9545H15.9088V62.5003H15.0869V59.9545H15.0894Z" fill="#007A53"/>
<path d="M16.9912 59.3276H18.4562C19.0025 59.3276 19.4494 59.5835 19.4494 60.1285C19.4494 60.5506 19.2557 60.8321 18.8584 60.9293V60.9395C19.1241 61.0112 19.1415 61.2543 19.2954 61.6406L19.5959 62.5054H18.7393L18.563 61.9323C18.3941 61.3873 18.2898 61.2491 17.9844 61.2491H17.8131V62.5028H16.9912V59.3302V59.3276ZM17.8106 60.6453H18.0266C18.2923 60.6453 18.6275 60.6351 18.6275 60.2769C18.6275 59.9801 18.3395 59.9263 18.0266 59.9263H17.8106V60.6453Z" fill="#007A53"/>
<path d="M20.8751 59.3276H21.8807L23.0676 62.5003H22.1663L21.9378 61.8223H20.7808L20.5374 62.5003H19.7031L20.8726 59.3276H20.8751ZM21.3767 59.9826H21.3667L20.9695 61.2235H21.7417L21.3767 59.9826Z" fill="#007A53"/>
<path d="M23.3008 59.3276H24.1227V61.8734H25.394V62.5003H23.3033V59.3276H23.3008Z" fill="#007A53"/>
<path d="M25.707 59.3276H26.5289V62.5003H25.707V59.3276Z" fill="#007A53"/>
<path d="M27.8824 59.3276H28.8881L30.0749 62.5003H29.1736L28.9452 61.8223H27.7881L27.5447 62.5003H26.7104L27.8799 59.3276H27.8824ZM28.384 59.9826H28.3741L27.9768 61.2235H28.749L28.384 59.9826Z" fill="#007A53"/>
<path d="M30.2334 59.3276H31.2787L32.3191 61.482H32.3291L32.3166 59.3276H33.0665V62.5003H32.0485L30.9709 60.3306H30.9609L30.9882 62.5003H30.2334V59.3276Z" fill="#007A53"/>
<path d="M35.0704 59.3276H36.364L37.017 61.4385H37.027L37.7098 59.3276H38.9538V62.5003H38.1493L38.1617 60.062H38.1518L37.3671 62.5003H36.6123L35.8624 60.062H35.8525L35.8699 62.5003H35.0679V59.3276H35.0704Z" fill="#007A53"/>
<path d="M40.3346 59.3276H41.3402L42.5271 62.5003H41.6257L41.3973 61.8223H40.2402L39.9969 62.5003H39.1626L40.3321 59.3276H40.3346ZM40.8361 59.9826H40.8262L40.4289 61.2235H41.2011L40.8361 59.9826Z" fill="#007A53"/>
<path d="M42.7603 59.3276H43.8801C44.9528 59.3276 45.7026 59.673 45.7026 60.9012C45.7026 62.1293 44.9304 62.5028 43.8801 62.5028H42.7603V59.3302V59.3276ZM43.5821 61.8734H43.9C44.5133 61.8734 44.8584 61.5459 44.8584 60.914C44.8584 60.282 44.5008 59.9545 43.9 59.9545H43.5821V61.8734Z" fill="#007A53"/>
<path d="M46.0826 59.3276H48.2527V59.9289H46.902V60.5839H48.1782V61.1852H46.902V61.9041H48.2999V62.5054H46.0801V59.3328L46.0826 59.3276Z" fill="#007A53"/>
<path d="M14.0318 63.2269H15.0375L16.2243 66.3995H15.323L15.0946 65.7215H13.9375L13.6942 66.3995H12.8599L14.0294 63.2269H14.0318ZM14.5334 63.8819H14.5235L14.1262 65.1228H14.8984L14.5334 63.8819Z" fill="#007A53"/>
<path d="M16.4703 63.2269H17.5156L18.556 65.3812H18.5659L18.5535 63.2269H19.3034V66.3995H18.2829L17.2052 64.2298H17.1953L17.2226 66.3995H16.4678V63.2269H16.4703Z" fill="#007A53"/>
<path d="M19.8022 63.2269H20.9221C21.9947 63.2269 22.7446 63.5723 22.7446 64.8004C22.7446 66.0285 21.9724 66.4021 20.9221 66.4021H19.8022V63.2294V63.2269ZM20.6216 65.7727H20.9395C21.5528 65.7727 21.8979 65.4452 21.8979 64.8132C21.8979 64.1812 21.5404 63.8537 20.9395 63.8537H20.6216V65.7727Z" fill="#007A53"/>
<path d="M25.8384 63.1732C26.8539 63.1732 27.3828 63.7949 27.3828 64.8158C27.3828 65.8366 26.844 66.4558 25.8384 66.4558C24.8328 66.4558 24.2939 65.8238 24.2939 64.8158C24.2939 63.8077 24.8228 63.1732 25.8384 63.1732ZM25.8384 65.829C26.3375 65.829 26.5361 65.3377 26.5361 64.8158C26.5361 64.2657 26.3375 63.8026 25.8384 63.8026C25.3393 63.8026 25.1407 64.2657 25.1407 64.8158C25.1407 65.3659 25.3393 65.829 25.8384 65.829Z" fill="#007A53"/>
<path d="M27.3262 63.2269H28.1654L28.5627 65.6652H28.5726L28.9873 63.2269H30.0277L30.4597 65.6652H30.4697L30.8719 63.2269H31.6714L30.9836 66.3995H29.9284L29.4914 63.9612H29.4814L29.0767 66.3995H28.014L27.3311 63.2269H27.3262Z" fill="#007A53"/>
<path d="M31.9146 63.2269H32.9599L34.0003 65.3812H34.0078L33.9954 63.2269H34.7452V66.3995H33.7247L32.6496 64.2298H32.6396L32.6669 66.3995H31.9121V63.2269H31.9146Z" fill="#007A53"/>
<path d="M35.2246 63.2269H37.3972V63.8281H36.0465V64.4831H37.3203V65.0844H36.0465V65.8034H37.4444V66.4046H35.2246V63.232V63.2269Z" fill="#007A53"/>
<path d="M37.7646 63.2269H38.8845C39.9571 63.2269 40.707 63.5723 40.707 64.8004C40.707 66.0285 39.9348 66.4021 38.8845 66.4021H37.7646V63.2294V63.2269ZM38.5865 65.7727H38.9043C39.5177 65.7727 39.8628 65.4452 39.8628 64.8132C39.8628 64.1812 39.5052 63.8537 38.9043 63.8537H38.5865V65.7727Z" fill="#007A53"/>
</g>
<defs>
<clipPath id="clip0_5505_14273">
<rect width="52.6569" height="48.0781" fill="white" transform="translate(0.516113 20.3313)"/>
</clipPath>
</defs>
</svg>
