<svg width="126" height="43" viewBox="0 0 126 43" fill="none" xmlns="http://www.w3.org/2000/svg">
<path d="M14.6905 12.6899L17.8723 15.6845C15.8759 18.1979 13.2288 19.4545 9.93119 19.4545C8.11303 19.4545 6.49986 19.0535 5.09168 18.2513C3.70132 17.4492 2.61399 16.353 1.82969 14.9626C1.04538 13.5544 0.653228 11.9413 0.653228 10.1231C0.653228 8.30494 1.04538 6.69177 1.82969 5.28358C2.61399 3.85758 3.70132 2.73459 5.09168 1.91464C6.48204 1.09468 8.09521 0.684707 9.93119 0.684707C11.4642 0.684707 12.8902 0.943171 14.2092 1.4601C15.5461 1.97703 16.6691 2.8772 17.5782 4.1606L14.4499 7.31565C13.9508 6.63829 13.3536 6.09463 12.6584 5.68465C11.9633 5.27467 11.17 5.06968 10.2788 5.06968C9.28058 5.06968 8.42497 5.2925 7.71197 5.73812C7.01679 6.16593 6.48204 6.75415 6.10771 7.50281C5.73338 8.23364 5.54622 9.06251 5.54622 9.98941C5.54622 10.9341 5.73338 11.7897 6.10771 12.5562C6.49986 13.3049 7.05244 13.8931 7.76544 14.3209C8.47845 14.7487 9.30732 14.9626 10.252 14.9626C11.3037 14.9626 12.1504 14.7755 12.7921 14.4011C13.4338 14.0268 14.0666 13.4564 14.6905 12.6899ZM27.7128 19.4278C26.3759 19.4278 25.1371 19.1961 23.9962 18.7326C22.8733 18.2692 21.8929 17.6186 21.0551 16.7808C20.2351 15.9252 19.5934 14.927 19.13 13.7862C18.6665 12.6454 18.4348 11.3976 18.4348 10.0429C18.4348 8.68818 18.6665 7.44042 19.13 6.29961C19.5934 5.15881 20.2351 4.16951 21.0551 3.33174C21.8929 2.49396 22.8733 1.84334 23.9962 1.37989C25.1371 0.916433 26.3759 0.684707 27.7128 0.684707C29.0497 0.684707 30.2796 0.916433 31.4026 1.37989C32.5434 1.84334 33.5327 2.49396 34.3705 3.33174C35.2082 4.16951 35.8499 5.15881 36.2956 6.29961C36.759 7.44042 36.9907 8.68818 36.9907 10.0429C36.9907 11.3976 36.759 12.6454 36.2956 13.7862C35.8499 14.927 35.2082 15.9252 34.3705 16.7808C33.5327 17.6186 32.5434 18.2692 31.4026 18.7326C30.2796 19.1961 29.0497 19.4278 27.7128 19.4278ZM27.7128 14.9894C28.6575 14.9894 29.4507 14.7665 30.0924 14.3209C30.752 13.8753 31.2511 13.2781 31.5897 12.5295C31.9284 11.7808 32.0978 10.952 32.0978 10.0429C32.0978 9.13381 31.9284 8.30494 31.5897 7.55628C31.2511 6.80763 30.752 6.21049 30.0924 5.76486C29.4507 5.31923 28.6575 5.09642 27.7128 5.09642C26.7859 5.09642 25.9927 5.31923 25.3331 5.76486C24.6914 6.21049 24.1923 6.80763 23.8358 7.55628C23.4971 8.30494 23.3278 9.13381 23.3278 10.0429C23.3278 10.952 23.4971 11.7808 23.8358 12.5295C24.1923 13.2781 24.6914 13.8753 25.3331 14.3209C25.9927 14.7665 26.7859 14.9894 27.7128 14.9894ZM39.4966 19V1.16598H43.8013L50.6462 11.1124V1.16598H55.3253V19H51.2879L44.1757 8.75948V19H39.4966ZM62.9432 19V5.31032H57.462V1.16598H73.157V5.31032H67.7292V19H62.9432ZM75.2947 19V1.16598H82.6743C84.5816 1.16598 86.1146 1.66509 87.2732 2.66329C88.4318 3.64367 89.0111 5.09642 89.0111 7.02153C89.0111 8.18016 88.7527 9.19619 88.2358 10.0696C87.7188 10.9431 87.0326 11.6382 86.177 12.1552L90.0004 19H84.9203L81.8989 12.9306H79.9203V19H75.2947ZM79.9203 9.21402H82.2198C82.8437 9.21402 83.3517 9.02686 83.7438 8.65253C84.136 8.26038 84.3321 7.74345 84.3321 7.10174C84.3321 6.42439 84.1449 5.88964 83.7706 5.49749C83.3962 5.10533 82.8704 4.90926 82.193 4.90926H79.9203V9.21402ZM100.275 19.4278C98.9383 19.4278 97.6995 19.1961 96.5587 18.7326C95.4357 18.2692 94.4553 17.6186 93.6175 16.7808C92.7976 15.9252 92.1559 14.927 91.6924 13.7862C91.229 12.6454 90.9973 11.3976 90.9973 10.0429C90.9973 8.68818 91.229 7.44042 91.6924 6.29961C92.1559 5.15881 92.7976 4.16951 93.6175 3.33174C94.4553 2.49396 95.4357 1.84334 96.5587 1.37989C97.6995 0.916433 98.9383 0.684707 100.275 0.684707C101.612 0.684707 102.842 0.916433 103.965 1.37989C105.106 1.84334 106.095 2.49396 106.933 3.33174C107.771 4.16951 108.412 5.15881 108.858 6.29961C109.321 7.44042 109.553 8.68818 109.553 10.0429C109.553 11.3976 109.321 12.6454 108.858 13.7862C108.412 14.927 107.771 15.9252 106.933 16.7808C106.095 17.6186 105.106 18.2692 103.965 18.7326C102.842 19.1961 101.612 19.4278 100.275 19.4278ZM100.275 14.9894C101.22 14.9894 102.013 14.7665 102.655 14.3209C103.314 13.8753 103.814 13.2781 104.152 12.5295C104.491 11.7808 104.66 10.952 104.66 10.0429C104.66 9.13381 104.491 8.30494 104.152 7.55628C103.814 6.80763 103.314 6.21049 102.655 5.76486C102.013 5.31923 101.22 5.09642 100.275 5.09642C99.3483 5.09642 98.5551 5.31923 97.8956 5.76486C97.2539 6.21049 96.7548 6.80763 96.3983 7.55628C96.0596 8.30494 95.8902 9.13381 95.8902 10.0429C95.8902 10.952 96.0596 11.7808 96.3983 12.5295C96.7548 13.2781 97.2539 13.8753 97.8956 14.3209C98.5551 14.7665 99.3483 14.9894 100.275 14.9894ZM112.059 19V1.16598H116.792V14.8289H125.054V19H112.059ZM8.74188 42.3887C7.52729 42.3887 6.40177 42.1781 5.36531 41.7571C4.34506 41.336 3.45435 40.7449 2.69321 39.9838C1.94826 39.2064 1.36525 38.2995 0.944195 37.2631C0.523136 36.2266 0.312606 35.093 0.312606 33.8622C0.312606 32.6314 0.523136 31.4978 0.944195 30.4614C1.36525 29.4249 1.94826 28.5261 2.69321 27.765C3.45435 27.0038 4.34506 26.4127 5.36531 25.9917C6.40177 25.5706 7.52729 25.3601 8.74188 25.3601C9.95648 25.3601 11.0739 25.5706 12.0942 25.9917C13.1306 26.4127 14.0294 27.0038 14.7906 27.765C15.5517 28.5261 16.1347 29.4249 16.5396 30.4614C16.9606 31.4978 17.1712 32.6314 17.1712 33.8622C17.1712 35.093 16.9606 36.2266 16.5396 37.2631C16.1347 38.2995 15.5517 39.2064 14.7906 39.9838C14.0294 40.7449 13.1306 41.336 12.0942 41.7571C11.0739 42.1781 9.95648 42.3887 8.74188 42.3887ZM8.74188 38.3562C9.6002 38.3562 10.3209 38.1538 10.9039 37.7489C11.5031 37.3441 11.9565 36.8015 12.2642 36.1214C12.5719 35.4412 12.7258 34.6881 12.7258 33.8622C12.7258 33.0363 12.5719 32.2833 12.2642 31.6031C11.9565 30.9229 11.5031 30.3804 10.9039 29.9755C10.3209 29.5707 9.6002 29.3682 8.74188 29.3682C7.89977 29.3682 7.17911 29.5707 6.57991 29.9755C5.9969 30.3804 5.54346 30.9229 5.21956 31.6031C4.91187 32.2833 4.75802 33.0363 4.75802 33.8622C4.75802 34.6881 4.91187 35.4412 5.21956 36.1214C5.54346 36.8015 5.9969 37.3441 6.57991 37.7489C7.17911 38.1538 7.89977 38.3562 8.74188 38.3562ZM22.9934 42L17.1148 25.7973H21.8031L25.4469 37.0688L28.8478 25.7973H33.4389L27.536 42H22.9934ZM34.986 42V25.7973H46.6461V29.514H39.2857V32.016H45.3344V35.5141H39.2857V38.2833H47.1562V42H34.986ZM49.3856 42V25.7973H56.0901C57.823 25.7973 59.2157 26.2508 60.2683 27.1577C61.321 28.0484 61.8473 29.3682 61.8473 31.1172C61.8473 32.1699 61.6125 33.093 61.1429 33.8865C60.6732 34.6801 60.0497 35.3116 59.2724 35.7813L62.7461 42H58.1307L55.3857 36.4857H53.5881V42H49.3856ZM53.5881 33.1092H55.6772C56.244 33.1092 56.7055 32.9391 57.0618 32.599C57.4181 32.2428 57.5962 31.7731 57.5962 31.1901C57.5962 30.5747 57.4262 30.0889 57.0861 29.7326C56.746 29.3763 56.2683 29.1982 55.6529 29.1982H53.5881V33.1092ZM69.0278 42V25.7973H73.3275V31.7245H79.3033V25.7973H83.603V42H79.3033V35.6598H73.3275V42H69.0278ZM94.309 42.3887C93.0944 42.3887 91.9689 42.1781 90.9325 41.7571C89.9122 41.336 89.0215 40.7449 88.2604 39.9838C87.5154 39.2064 86.9324 38.2995 86.5113 37.2631C86.0903 36.2266 85.8798 35.093 85.8798 33.8622C85.8798 32.6314 86.0903 31.4978 86.5113 30.4614C86.9324 29.4249 87.5154 28.5261 88.2604 27.765C89.0215 27.0038 89.9122 26.4127 90.9325 25.9917C91.9689 25.5706 93.0944 25.3601 94.309 25.3601C95.5236 25.3601 96.6411 25.5706 97.6613 25.9917C98.6978 26.4127 99.5966 27.0038 100.358 27.765C101.119 28.5261 101.702 29.4249 102.107 30.4614C102.528 31.4978 102.738 32.6314 102.738 33.8622C102.738 35.093 102.528 36.2266 102.107 37.2631C101.702 38.2995 101.119 39.2064 100.358 39.9838C99.5966 40.7449 98.6978 41.336 97.6613 41.7571C96.6411 42.1781 95.5236 42.3887 94.309 42.3887ZM94.309 38.3562C95.1673 38.3562 95.888 38.1538 96.471 37.7489C97.0702 37.3441 97.5237 36.8015 97.8314 36.1214C98.1391 35.4412 98.2929 34.6881 98.2929 33.8622C98.2929 33.0363 98.1391 32.2833 97.8314 31.6031C97.5237 30.9229 97.0702 30.3804 96.471 29.9755C95.888 29.5707 95.1673 29.3682 94.309 29.3682C93.4669 29.3682 92.7463 29.5707 92.1471 29.9755C91.5641 30.3804 91.1106 30.9229 90.7867 31.6031C90.479 32.2833 90.3252 33.0363 90.3252 33.8622C90.3252 34.6881 90.479 35.4412 90.7867 36.1214C91.1106 36.8015 91.5641 37.3441 92.1471 37.7489C92.7463 38.1538 93.4669 38.3562 94.309 38.3562ZM107.427 42L103.492 25.7973H108.035L110.124 36.6558L112.674 26.186H116.585L119.16 36.6558L121.225 25.7973H125.622L121.589 42H117.095L114.545 31.7488L111.994 42H107.427Z" fill="white"/>
</svg>
