<svg width="137" height="57" viewBox="0 0 137 57" fill="none" xmlns="http://www.w3.org/2000/svg">
<path d="M7.845 26.2138V6.62042H0V0.68883H22.4635V6.62042H14.695V26.2138H7.845Z" fill="white"/>
<path d="M24.7578 26.2138V0.68883H31.5313V10.0263H40.9453V0.68883H47.7188V26.2138H40.9453V16.2258H31.5313V26.2138H24.7578Z" fill="white"/>
<path d="M49.3921 26.2138L58.7679 0.68883H66.5363L75.5677 26.2138H68.2584L66.6129 20.9328H58.079L56.3952 26.2138H49.3921ZM59.4567 15.9962H65.2352L62.4034 6.62042L59.4567 15.9962Z" fill="white"/>
<path d="M79.3574 26.2138V6.62042H71.5124V0.68883H93.9759V6.62042H86.2075V26.2138H79.3574Z" fill="white"/>
<path d="M95.5814 10.1794L96.5764 0.68883H103.312L100.365 10.1794H95.5814Z" fill="white"/>
<path d="M101.625 23.0758L105.72 18.1392C106.434 18.8535 107.365 19.5041 108.513 20.0909C109.687 20.6776 110.95 20.971 112.302 20.971C112.99 20.971 113.654 20.8307 114.292 20.5501C114.929 20.2695 115.248 19.7337 115.248 18.9428C115.248 18.2795 114.904 17.731 114.215 17.2973C113.526 16.8381 112.544 16.4044 111.268 15.9962L109.852 15.5369C108.806 15.1798 107.76 14.7078 106.714 14.121C105.694 13.5087 104.839 12.7306 104.151 11.7866C103.487 10.8427 103.156 9.68188 103.156 8.30423C103.156 6.72247 103.525 5.30654 104.265 4.05644C105.031 2.80634 106.153 1.82412 107.633 1.10978C109.113 0.369928 110.911 0 113.029 0C114.713 0 116.167 0.191342 117.391 0.574026C118.641 0.956709 119.675 1.40317 120.491 1.91342C121.307 2.42366 121.907 2.88288 122.29 3.29108L118.846 7.65366C117.953 6.99035 117.021 6.45459 116.052 6.0464C115.082 5.61269 114.088 5.39583 113.067 5.39583C112.404 5.39583 111.766 5.54891 111.154 5.85505C110.567 6.13569 110.273 6.63318 110.273 7.34752C110.273 8.1384 110.631 8.71242 111.345 9.06959C112.059 9.42676 112.965 9.78393 114.062 10.1411L115.287 10.5238C116.154 10.7789 117.021 11.1106 117.889 11.5188C118.782 11.9014 119.598 12.3989 120.338 13.0112C121.078 13.6235 121.665 14.4016 122.098 15.3456C122.558 16.264 122.787 17.3993 122.787 18.7515C122.787 20.3077 122.315 21.6981 121.371 22.9227C120.453 24.1473 119.203 25.104 117.621 25.7928C116.065 26.4817 114.33 26.8261 112.416 26.8261C109.865 26.8261 107.722 26.4817 105.987 25.7928C104.278 25.104 102.824 24.1983 101.625 23.0758Z" fill="white"/>
<path d="M0 55.6874L9.37574 30.1625H17.1442L26.1755 55.6874H18.8663L17.2207 50.4064H8.68691L7.0031 55.6874H0ZM10.0646 45.4698H15.8431L13.0112 36.0941L10.0646 45.4698Z" fill="#FFD000"/>
<path d="M35.9357 55.6874V30.1625H46.3447C49.0745 30.1625 51.2686 30.8896 52.9269 32.3438C54.5852 33.7724 55.4143 35.8644 55.4143 38.6198C55.4143 40.3546 55.0316 41.8726 54.2663 43.1737C53.5009 44.4493 52.4549 45.4443 51.1283 46.1586C49.8016 46.8474 48.2709 47.1919 46.5361 47.1919H42.5562V55.6874H35.9357ZM42.5562 41.8726H45.7707C46.6891 41.8726 47.4162 41.5792 47.952 40.9924C48.4877 40.4056 48.7556 39.653 48.7556 38.7346C48.7556 37.7651 48.5005 36.987 47.9903 36.4002C47.48 35.8134 46.7274 35.52 45.7324 35.52H42.5562V41.8726Z" fill="#FFD000"/>
<path d="M57.6216 55.6874V30.1625H64.3951V49.7176H76.22V55.6874H57.6216Z" fill="#FFD000"/>
<path d="M78.0049 45.7377V30.1625H84.7784V45.1254C84.7784 46.5285 85.0973 47.6766 85.7351 48.5695C86.3984 49.4625 87.4827 49.9089 88.9879 49.9089C90.4931 49.9089 91.5646 49.4625 92.2024 48.5695C92.8402 47.6511 93.1591 46.503 93.1591 45.1254V30.1625H100.009V45.7377C100.009 47.9062 99.5372 49.7941 98.5932 51.4014C97.6493 52.9831 96.3482 54.2077 94.6899 55.0751C93.0571 55.917 91.1692 56.338 89.0262 56.338C86.8831 56.338 84.9825 55.917 83.3242 55.0751C81.6659 54.2332 80.3648 53.0214 79.4208 51.4396C78.4769 49.8324 78.0049 47.9317 78.0049 45.7377Z" fill="#FFD000"/>
<path d="M101.943 52.5494L106.037 47.6128C106.752 48.3272 107.683 48.9777 108.831 49.5645C110.004 50.1513 111.267 50.4447 112.619 50.4447C113.308 50.4447 113.972 50.3044 114.609 50.0237C115.247 49.7431 115.566 49.2073 115.566 48.4165C115.566 47.7531 115.222 47.2046 114.533 46.7709C113.844 46.3117 112.862 45.878 111.586 45.4698L110.17 45.0106C109.124 44.6534 108.078 44.1814 107.032 43.5946C106.012 42.9824 105.157 42.2042 104.468 41.2603C103.805 40.3163 103.473 39.1555 103.473 37.7779C103.473 36.1961 103.843 34.7802 104.583 33.5301C105.348 32.28 106.471 31.2978 107.951 30.5834C109.43 29.8436 111.229 29.4736 113.347 29.4736C115.03 29.4736 116.485 29.665 117.709 30.0477C118.959 30.4303 119.992 30.8768 120.809 31.387C121.625 31.8973 122.225 32.3565 122.607 32.7647L119.163 37.1273C118.27 36.464 117.339 35.9282 116.37 35.52C115.4 35.0863 114.405 34.8695 113.385 34.8695C112.722 34.8695 112.084 35.0225 111.471 35.3287C110.885 35.6093 110.591 36.1068 110.591 36.8212C110.591 37.612 110.948 38.1861 111.663 38.5432C112.377 38.9004 113.283 39.2576 114.38 39.6147L115.604 39.9974C116.472 40.2525 117.339 40.5842 118.207 40.9924C119.1 41.3751 119.916 41.8726 120.656 42.4849C121.396 43.0972 121.982 43.8753 122.416 44.8192C122.875 45.7377 123.105 46.873 123.105 48.2251C123.105 49.7814 122.633 51.1718 121.689 52.3964C120.771 53.6209 119.521 54.5777 117.939 55.2665C116.383 55.9553 114.648 56.2997 112.734 56.2997C110.183 56.2997 108.04 55.9553 106.305 55.2665C104.596 54.5777 103.142 53.672 101.943 52.5494Z" fill="#FFD000"/>
<path d="M128.74 55.5359V51.5861H124.879V47.6953H128.74V43.6865H132.749V47.6953H136.64V51.5861H132.749V55.5359H128.74Z" fill="#FFD000"/>
</svg>
