<svg width="126" height="16" viewBox="0 0 126 16" fill="none" xmlns="http://www.w3.org/2000/svg">
<path d="M0.683575 15V0.609272H4.5024V15H0.683575ZM5.9021 13.2308L8.21066 10.4476C8.6134 10.8503 9.1384 11.2171 9.78566 11.548C10.4473 11.8788 11.1593 12.0442 11.9216 12.0442C12.31 12.0442 12.6839 11.9651 13.0435 11.8069C13.4031 11.6486 13.5829 11.3466 13.5829 10.9007C13.5829 10.5267 13.3887 10.2175 13.0004 9.97295C12.612 9.71405 12.0583 9.46953 11.3391 9.23939L10.5408 8.98049C9.95107 8.77912 9.36134 8.51303 8.77162 8.1822C8.19628 7.837 7.71443 7.3983 7.32607 6.86611C6.9521 6.33392 6.76511 5.67947 6.76511 4.90276C6.76511 4.01098 6.97367 3.21269 7.3908 2.5079C7.8223 1.80311 8.45518 1.24934 9.28942 0.846601C10.1237 0.429478 11.1377 0.220917 12.3315 0.220917C13.2809 0.220917 14.1007 0.328794 14.7911 0.544547C15.4959 0.7603 16.0785 1.01201 16.5387 1.29968C16.999 1.58735 17.337 1.84626 17.5528 2.07639L15.611 4.53598C15.1076 4.16201 14.5826 3.85995 14.036 3.62982C13.4894 3.3853 12.9285 3.26304 12.3531 3.26304C11.9791 3.26304 11.6196 3.34934 11.2744 3.52194C10.9435 3.68016 10.7781 3.96064 10.7781 4.36338C10.7781 4.80927 10.9795 5.13289 11.3822 5.33426C11.785 5.53563 12.2956 5.737 12.9141 5.93837L13.6045 6.15413C14.0935 6.29796 14.5826 6.48495 15.0716 6.71508C15.575 6.93084 16.0353 7.21132 16.4524 7.55652C16.8695 7.90173 17.2004 8.34042 17.4449 8.87261C17.7038 9.39042 17.8332 10.0305 17.8332 10.7928C17.8332 11.6702 17.5671 12.4541 17.035 13.1445C16.5172 13.8349 15.8124 14.3743 14.9206 14.7627C14.0432 15.151 13.0651 15.3452 11.9863 15.3452C10.548 15.3452 9.33977 15.151 8.36169 14.7627C7.39799 14.3743 6.57813 13.8637 5.9021 13.2308ZM23.7127 15V0.609272H27.5315V15H23.7127ZM30.1179 15V0.609272H33.5915L39.1148 8.63529V0.609272H42.8904V15H39.6326L33.8935 6.73666V15H30.1179ZM49.4906 15L44.2694 0.609272H48.4334L51.6697 10.6202L54.6903 0.609272H58.768L53.5252 15H49.4906ZM60.1421 15V0.609272H70.4982V3.91029H63.9609V6.13255H69.3332V9.23939H63.9609V11.699H70.9513V15H60.1421ZM71.7447 13.2308L74.0533 10.4476C74.456 10.8503 74.981 11.2171 75.6283 11.548C76.2899 11.8788 77.0019 12.0442 77.7642 12.0442C78.1526 12.0442 78.5265 11.9651 78.8861 11.8069C79.2457 11.6486 79.4255 11.3466 79.4255 10.9007C79.4255 10.5267 79.2313 10.2175 78.843 9.97295C78.4546 9.71405 77.9009 9.46953 77.1817 9.23939L76.3834 8.98049C75.7937 8.77912 75.2039 8.51303 74.6142 8.1822C74.0389 7.837 73.557 7.3983 73.1687 6.86611C72.7947 6.33392 72.6077 5.67947 72.6077 4.90276C72.6077 4.01098 72.8163 3.21269 73.2334 2.5079C73.6649 1.80311 74.2978 1.24934 75.132 0.846601C75.9663 0.429478 76.9803 0.220917 78.1741 0.220917C79.1235 0.220917 79.9433 0.328794 80.6337 0.544547C81.3385 0.7603 81.9211 1.01201 82.3813 1.29968C82.8416 1.58735 83.1796 1.84626 83.3954 2.07639L81.4536 4.53598C80.9502 4.16201 80.4252 3.85995 79.8786 3.62982C79.332 3.3853 78.7711 3.26304 78.1957 3.26304C77.8217 3.26304 77.4622 3.34934 77.117 3.52194C76.7861 3.68016 76.6207 3.96064 76.6207 4.36338C76.6207 4.80927 76.8221 5.13289 77.2248 5.33426C77.6276 5.53563 78.1382 5.737 78.7567 5.93837L79.4471 6.15413C79.9361 6.29796 80.4252 6.48495 80.9142 6.71508C81.4176 6.93084 81.8779 7.21132 82.295 7.55652C82.7121 7.90173 83.043 8.34042 83.2875 8.87261C83.5464 9.39042 83.6758 10.0305 83.6758 10.7928C83.6758 11.6702 83.4097 12.4541 82.8776 13.1445C82.3598 13.8349 81.655 14.3743 80.7632 14.7627C79.8858 15.151 78.9077 15.3452 77.8289 15.3452C76.3906 15.3452 75.1824 15.151 74.2043 14.7627C73.2406 14.3743 72.4207 13.8637 71.7447 13.2308ZM89.2173 15V3.95344H84.7944V0.609272H97.4591V3.95344H93.0793V15H89.2173ZM99.1841 15V0.609272H109.54V3.91029H103.003V6.13255H108.375V9.23939H103.003V11.699H109.993V15H99.1841ZM111.973 15V0.609272H117.497C118.978 0.609272 120.294 0.868176 121.445 1.38598C122.61 1.88941 123.531 2.6805 124.207 3.75927C124.883 4.82365 125.221 6.19728 125.221 7.88015C125.221 9.46234 124.883 10.7856 124.207 11.85C123.531 12.9 122.603 13.6911 121.423 14.2233C120.258 14.7411 118.942 15 117.475 15H111.973ZM115.792 11.6343H117.346C118.583 11.6343 119.546 11.2819 120.237 10.5771C120.927 9.85789 121.272 8.93015 121.272 7.79385C121.272 6.64317 120.956 5.71543 120.323 5.01063C119.69 4.30584 118.698 3.95344 117.346 3.95344H115.792V11.6343Z" fill="#FFD100"/>
</svg>
