<svg viewBox="0 0 103.14 64.45" xmlns="http://www.w3.org/2000/svg"><path d="m55.25 15.72v6.33h-9.21v-9.21h6.33c1.59 0 2.88 1.29 2.88 2.88z" fill="#fff"/><path d="m55.25 31.26h-9.21v9.2h9.21z" fill="#fff"/><path d="m36.83 12.84h-9.21v9.21h9.21z" fill="#ffd817"/><path d="m18.42 20.22v-7.38h-9.21v24.75c0 1.59 1.29 2.88 2.88 2.88h6.33v-7.38c0-1.01.82-1.82 1.83-1.82h7.38v-9.21h-7.38c-1.01 0-1.83-.82-1.83-1.82z" fill="#fff"/><path d="m36.83 31.26h-9.21v9.2h9.21z" fill="#fff"/><path d="m19.24 50.6c-.63 0-1.15-.21-1.57-.63s-.62-.94-.62-1.59.2-1.19.62-1.62.94-.63 1.59-.63c.62 0 1.13.21 1.55.64s.63.94.63 1.57-.21 1.18-.63 1.61c-.42.44-.94.65-1.58.65zm2.5-4.65c-.67-.63-1.51-.96-2.51-.96s-1.84.32-2.5.96-.99 1.45-.99 2.42.33 1.75.99 2.38c.65.63 1.48.95 2.45.95s1.87-.32 2.55-.95 1.02-1.44 1.02-2.4-.34-1.77-1.01-2.41zm27.36-.88v3.66c0 1.04-.4 1.76-1.57 1.76s-1.57-.72-1.57-1.76v-3.66h-1.27v3.94c0 1.94 1.31 2.69 2.84 2.69s2.84-.76 2.84-2.69v-3.94zm-7.66 0v5.41h2.75v1.13h-4.02v-6.55h1.27zm-4.57 2.95c.62 0 1.16-.29 1.16-.91s-.36-.91-1.16-.91h-.76v1.82zm.36-2.95c1.38 0 2.07.89 2.07 2.04s-.85 2.05-2.11 2.05h-1.07v2.45h-1.27v-6.55h2.38zm-3.24 0v1.13h-2.15v5.41h-1.27v-5.41h-2.15v-1.13h5.56zm19.42-.09c.64 0 1.25.16 1.84.48v1.29c-.68-.41-1.13-.66-1.82-.66s-.92.23-.94.56c-.02.25.13.46.47.67.09.06.44.24 1.06.55.52.26.92.53 1.16.84s.36.68.36 1.12c0 .56-.2 1.02-.61 1.36-.4.35-.93.52-1.57.52-.42 0-.78-.05-1.08-.14s-.64-.25-1.01-.48v-1.44c.7.58 1.34.94 1.96.94.58 0 .97-.22.97-.62 0-.27-.12-.51-.45-.7-.27-.16-.62-.34-1.03-.57-.5-.27-.9-.52-1.15-.83s-.38-.66-.38-1.07c0-.55.2-.99.61-1.31.41-.33.95-.49 1.62-.49zm-27.7 0c.64 0 1.25.16 1.84.48v1.29c-.68-.41-1.13-.66-1.82-.66s-.92.23-.94.56c-.02.25.13.46.47.67.09.06.44.24 1.06.55.52.26.92.53 1.16.84s.36.68.36 1.12c0 .56-.2 1.02-.61 1.36-.4.35-.93.52-1.57.52-.42 0-.78-.05-1.08-.14s-.64-.25-1.01-.48v-1.44c.7.58 1.34.94 1.96.94.58 0 .97-.22.97-.62 0-.27-.12-.51-.45-.7-.27-.16-.62-.34-1.03-.57-.5-.27-.9-.52-1.15-.83s-.38-.66-.38-1.07c0-.55.2-.99.61-1.31.41-.33.95-.49 1.62-.49zm-15.24.09v2.61h3.1v-2.61h1.27v6.55h-1.27v-2.62h-3.1v2.62h-1.27v-6.55z" fill="#fff"/><path d="m64.77 12.96v38.78" fill="none" stroke="#fff" stroke-miterlimit="10" stroke-width=".68"/><path d="m74.31 12.98h28.83v38.76h-28.83z" fill="#0085ac"/><path d="m88.77 21.83 3.43 3.43 4.93-.02-8.36-8.36-10.84 10.84 2.47 2.47z" fill="#fff"/><path d="m97.13 25.25-8.36 8.36-3.4-3.4h-4.95l8.35 8.35 10.83-10.84z" fill="#f1db38"/><g fill="#fff"><path d="m79.08 46.02c-.84-.22-1-.25-1-.51s.28-.38.5-.38c.35 0 .64.1.66.51h.71c0-.77-.64-1.08-1.34-1.08-.6 0-1.25.33-1.25 1.01 0 .63.5.82 1 .95s.99.19.99.55-.39.42-.65.42c-.39 0-.74-.17-.74-.62h-.71c0 .82.68 1.19 1.42 1.19.91 0 1.39-.46 1.39-1.07 0-.75-.75-.91-.99-.97z"/><path d="m81.84 46.84c0 .49-.15.69-.52.69-.31 0-.43-.2-.43-.6v-1.37h-.66v1.49c0 .6.18 1 .89 1 .3 0 .58-.15.74-.4v.34h.63v-2.42h-.66v1.27z"/><path d="m84.13 45.51c-.29-.01-.57.13-.72.37v-.31h-.64v3.27h.66v-1.14c.17.24.44.37.73.36.71 0 1.06-.6 1.06-1.25s-.33-1.31-1.09-1.31zm-.13 2.05c-.43 0-.57-.38-.57-.77s.14-.78.57-.78.57.4.57.78-.14.77-.57.77z"/><path d="m86.58 45.51c-.67-.01-1.22.52-1.24 1.19v.09c-.05.65.44 1.22 1.09 1.27h.15c.53.04 1.01-.3 1.14-.81h-.59c-.09.2-.3.33-.52.31-.37 0-.57-.19-.6-.61h1.75c.05-.75-.34-1.44-1.17-1.44zm-.57 1.02c.01-.29.25-.52.54-.5.32 0 .47.18.53.52h-1.08z"/><path d="m88.55 46.02v-.45h-.64v2.42h.66v-1.09c0-.43.17-.78.66-.78.1 0 .19.02.28.05v-.63c-.07-.02-.13-.03-.2-.03-.33 0-.64.21-.77.51z"/><path d="m90.43 45.24h1.5v-.62h-2.25v3.39h.75v-1.4h1.51v-.58h-1.51z"/><path d="m93.84 46.84c0 .5-.16.7-.52.7-.31 0-.43-.2-.43-.6v-1.39h-.67v1.51c0 .61.18 1.01.9 1.01.3 0 .59-.15.75-.41v.35h.64v-2.46h-.66v1.28z"/><path d="m96.2 45.49c-.3 0-.59.15-.75.41v-.34h-.66v2.46h.68v-1.29c0-.5.16-.7.52-.7.31 0 .43.2.43.6v1.39h.68v-1.51c0-.61-.19-1.02-.9-1.02z"/><path d="m99.09 45.85c-.17-.24-.44-.38-.73-.36-.72 0-1.09.61-1.09 1.27s.36 1.32 1.1 1.32c.3.02.59-.12.75-.38v.32h.64v-3.4h-.67zm-.57 1.71c-.42 0-.6-.4-.6-.79s.15-.78.6-.78.57.38.57.78-.11.8-.57.8z"/><path d="m83.91 40.14h.73v3.34h-.73z"/><path d="m85.57 42.22c0-.49.15-.69.52-.69.31 0 .43.2.43.6v1.37h.66v-1.49c0-.6-.18-1-.89-1-.3 0-.58.15-.74.4v-.34h-.65v2.42h.66v-1.27z"/><path d="m89.17 43.17v.31h.64v-3.34h-.66v1.22c-.16-.23-.44-.37-.72-.36-.71 0-1.07.6-1.07 1.25s.36 1.3 1.09 1.3c.29.02.57-.13.73-.38zm-1.16-.9c0-.4.15-.77.58-.77s.57.37.57.77-.13.78-.57.78-.58-.4-.58-.77z"/><path d="m90.89 43.55c.3 0 .58-.15.74-.4v.34h.63v-2.42h-.65v1.27c0 .49-.15.69-.52.69-.31 0-.43-.2-.43-.6v-1.36h-.66v1.49c0 .6.18 1 .89 1z"/><path d="m93.88 42.03c-.38-.09-.75-.12-.75-.36s.22-.23.37-.23c.24 0 .44.07.45.33h.63c-.05-.6-.54-.77-1.07-.77s-1.05.16-1.05.78c0 .43.38.57.77.65.48.1.75.17.75.37s-.24.31-.44.31c-.26 0-.5-.12-.51-.41h-.64c.03.64.57.85 1.14.85s1.11-.21 1.11-.85c0-.44-.38-.58-.77-.66z"/><path d="m95.03 42.94c0 .48.36.57.76.57.13 0 .26 0 .39-.02v-.52c-.07.01-.14.02-.21.02-.23 0-.28-.06-.28-.28v-1.2h.49v-.44h-.48v-.72h-.66v.72h-.4v.44h.4v1.43z"/><path d="m97.84 41.63.63 1.71c.06.19-.05.4-.24.46-.04.01-.07.02-.11.02h-.03v.63h.07c.41.02.79-.22.94-.6l1.01-2.77h-.69l-.53 1.66-.55-1.68h-.73c-.29.02-.54.22-.64.49v-.47h-.65v2.42h.66v-1.09c0-.43.17-.78.66-.78.07 0 .13 0 .2.01z"/><path d="m78.37 42.75h1.25l.25.75h.77l-1.25-3.35h-.75l-1.27 3.35h.75l.26-.75zm.63-1.78.44 1.23h-.85z"/><path d="m81.31 42.22c0-.49.15-.7.52-.7.31 0 .43.2.43.6v1.37h.67v-1.49c0-.6-.18-1-.89-1-.3 0-.58.15-.74.4v-.34h-.65v2.43h.67v-1.27z"/></g></svg>