<svg width="212" height="38" viewBox="0 0 212 38" fill="none" xmlns="http://www.w3.org/2000/svg">
<path d="M8.33607 9.1896H14.6697L22.0329 30H16.0737L14.7321 25.6944H7.77447L6.40167 30H0.692074L8.33607 9.1896ZM13.6089 21.6696L11.3001 14.0256L8.89767 21.6696H13.6089ZM30.8393 23.4168C31.4217 23.9992 32.1809 24.5296 33.1169 25.008C34.0529 25.4864 35.0825 25.7256 36.2057 25.7256C36.4761 25.7256 36.7569 25.7048 37.0481 25.6632C37.3393 25.6008 37.5993 25.5072 37.8281 25.3824C38.0569 25.2576 38.2441 25.0912 38.3897 24.8832C38.5353 24.6752 38.6081 24.4048 38.6081 24.072C38.6081 23.5312 38.3273 23.084 37.7657 22.7304C37.2249 22.3768 36.4241 22.0232 35.3633 21.6696L34.2089 21.2952C33.5641 21.0872 32.9089 20.8168 32.2433 20.484C31.5985 20.1512 31.0161 19.756 30.4961 19.2984C29.9761 18.82 29.5497 18.2688 29.2169 17.6448C28.9049 17 28.7489 16.2512 28.7489 15.3984C28.7489 14.4416 28.9257 13.5576 29.2793 12.7464C29.6329 11.9144 30.1425 11.1968 30.8081 10.5936C31.4945 9.9696 32.3369 9.4912 33.3353 9.1584C34.3337 8.8048 35.4881 8.628 36.7985 8.628C37.8177 8.628 38.7433 8.7216 39.5753 8.9088C40.4073 9.096 41.1353 9.3248 41.7593 9.5952C42.3833 9.8656 42.9137 10.1568 43.3505 10.4688C43.7873 10.7808 44.1201 11.0616 44.3489 11.3112L41.5409 14.868C40.8129 14.3272 40.0537 13.8904 39.2633 13.5576C38.4729 13.204 37.6617 13.0272 36.8297 13.0272C36.5593 13.0272 36.2889 13.0584 36.0185 13.1208C35.7481 13.1832 35.4985 13.2768 35.2697 13.4016C35.0617 13.5264 34.8849 13.6928 34.7393 13.9008C34.6145 14.088 34.5521 14.3272 34.5521 14.6184C34.5521 14.9304 34.6249 15.2008 34.7705 15.4296C34.9369 15.6584 35.1553 15.856 35.4257 16.0224C35.6961 16.1888 36.0185 16.3448 36.3929 16.4904C36.7881 16.6152 37.2041 16.7504 37.6409 16.896L38.6393 17.208C39.3465 17.4368 40.0641 17.7072 40.7921 18.0192C41.5201 18.3104 42.1753 18.716 42.7577 19.236C43.3401 19.7352 43.8185 20.3696 44.1929 21.1392C44.5673 21.888 44.7545 22.8136 44.7545 23.916C44.7545 24.8728 44.5257 25.7568 44.0681 26.568C43.6313 27.3792 43.0281 28.076 42.2585 28.6584C41.5097 29.2408 40.6153 29.688 39.5753 30C38.5561 30.3328 37.4641 30.4992 36.2993 30.4992C34.2193 30.4992 32.4721 30.2288 31.0577 29.688C29.6641 29.1264 28.4785 28.3776 27.5009 27.4416L30.8393 23.4168ZM47.4952 9.1896H53.0176V21.3888C53.0176 22.5328 53.2776 23.4688 53.7976 24.1968C54.3384 24.9248 55.2224 25.2888 56.4496 25.2888C57.6768 25.2888 58.5504 24.9248 59.0704 24.1968C59.5904 23.448 59.8504 22.512 59.8504 21.3888V9.1896H65.4352V21.888C65.4352 23.2192 65.2168 24.4256 64.78 25.5072C64.3432 26.568 63.7192 27.4728 62.908 28.2216C62.1176 28.9704 61.1712 29.5424 60.0688 29.9376C58.9872 30.3328 57.7912 30.5304 56.4808 30.5304C55.1704 30.5304 53.964 30.3328 52.8616 29.9376C51.7592 29.5424 50.8024 28.9808 49.9912 28.2528C49.2008 27.504 48.5872 26.5992 48.1504 25.5384C47.7136 24.4568 47.4952 23.24 47.4952 21.888V9.1896ZM69.0708 9.1896H77.5572C78.6804 9.1896 79.6892 9.3456 80.5836 9.6576C81.4988 9.9488 82.2788 10.3856 82.9236 10.968C83.5684 11.5296 84.0676 12.2472 84.4212 13.1208C84.7748 13.9736 84.9516 14.9616 84.9516 16.0848C84.9516 17.1456 84.7644 18.1128 84.39 18.9864C84.0364 19.8392 83.5372 20.5776 82.8924 21.2016C82.2684 21.8048 81.5092 22.2728 80.6148 22.6056C79.7412 22.9176 78.774 23.0736 77.7132 23.0736H74.4684V30H69.0708V9.1896ZM77.0892 18.7368C77.838 18.7368 78.4308 18.4976 78.8676 18.0192C79.3044 17.5408 79.5228 16.9272 79.5228 16.1784C79.5228 15.388 79.3148 14.7536 78.8988 14.2752C78.4828 13.7968 77.8692 13.5576 77.058 13.5576H74.4684V18.7368H77.0892ZM87.6865 9.1896H102.662V13.9632H93.2089V17.1768H100.978V21.6696H93.2089V25.2264H103.318V30H87.6865V9.1896ZM106.181 9.1896H114.792C115.915 9.1896 116.924 9.3352 117.819 9.6264C118.734 9.9176 119.514 10.3544 120.159 10.9368C120.803 11.4984 121.303 12.2056 121.656 13.0584C122.01 13.9112 122.187 14.8992 122.187 16.0224C122.187 17.3952 121.885 18.5912 121.282 19.6104C120.679 20.6088 119.878 21.4096 118.879 22.0128L123.341 30H117.413L113.887 22.9176H111.579V30H106.181V9.1896ZM114.262 18.5808C114.99 18.5808 115.583 18.3624 116.04 17.9256C116.498 17.468 116.727 16.8648 116.727 16.116C116.727 15.3256 116.508 14.7016 116.071 14.244C115.635 13.7864 115.021 13.5576 114.231 13.5576H111.579V18.5808H114.262ZM130.769 9.1896H145.277V14.0256H136.292V18.0504H143.249V22.6056H136.292V30H130.769V9.1896ZM147.646 9.1896H153.168V21.3888C153.168 22.5328 153.428 23.4688 153.948 24.1968C154.489 24.9248 155.373 25.2888 156.6 25.2888C157.828 25.2888 158.701 24.9248 159.221 24.1968C159.741 23.448 160.001 22.512 160.001 21.3888V9.1896H165.586V21.888C165.586 23.2192 165.368 24.4256 164.931 25.5072C164.494 26.568 163.87 27.4728 163.059 28.2216C162.268 28.9704 161.322 29.5424 160.22 29.9376C159.138 30.3328 157.942 30.5304 156.632 30.5304C155.321 30.5304 154.115 30.3328 153.012 29.9376C151.91 29.5424 150.953 28.9808 150.142 28.2528C149.352 27.504 148.738 26.5992 148.301 25.5384C147.864 24.4568 147.646 23.24 147.646 21.888V9.1896ZM169.19 9.1896H174.214L182.201 20.796V9.1896H187.661V30H182.95L174.65 18.0504V30H169.19V9.1896ZM191.402 9.1896H199.389C200.991 9.1896 202.468 9.3976 203.82 9.8136C205.192 10.2296 206.378 10.864 207.376 11.7168C208.375 12.5696 209.155 13.6616 209.716 14.9928C210.278 16.324 210.559 17.8944 210.559 19.704C210.559 21.4304 210.268 22.9384 209.685 24.228C209.124 25.4968 208.344 26.568 207.345 27.4416C206.347 28.2944 205.161 28.9392 203.788 29.376C202.416 29.792 200.939 30 199.358 30H191.402V9.1896ZM199.171 25.1328C200.98 25.1328 202.374 24.6232 203.352 23.604C204.35 22.564 204.849 21.2224 204.849 19.5792C204.849 18.7472 204.735 17.9984 204.506 17.3328C204.277 16.6464 203.924 16.064 203.445 15.5856C202.988 15.0864 202.405 14.7016 201.698 14.4312C200.991 14.1608 200.148 14.0256 199.171 14.0256H196.924V25.1328H199.171Z" fill="white"/>
</svg>
