<?xml version="1.0" encoding="utf-8"?>
<!-- Generator: Adobe Illustrator 27.7.0, SVG Export Plug-In . SVG Version: 6.00 Build 0)  -->
<svg version="1.1" id="Layer_1" xmlns="http://www.w3.org/2000/svg" xmlns:xlink="http://www.w3.org/1999/xlink" x="0px" y="0px"
	 viewBox="0 0 127.1 55.4" style="enable-background:new 0 0 127.1 55.4;" xml:space="preserve">
<style type="text/css">
	.st0{fill:#FFFFFF;}
</style>
<path class="st0" d="M8.3,15.4c-1.1,0-2.1-0.2-3.1-0.6c-0.9-0.4-1.7-0.9-2.4-1.6c-0.7-0.7-1.2-1.5-1.6-2.5c-0.4-0.9-0.6-2-0.6-3.1
	s0.2-2.1,0.6-3.1c0.4-0.9,0.9-1.8,1.6-2.4C3.5,1.5,4.3,1,5.2,0.6C6.2,0.2,7.2,0,8.3,0s2.1,0.2,3,0.6c0.9,0.4,1.8,0.9,2.4,1.6
	c0.7,0.7,1.2,1.5,1.6,2.4c0.4,0.9,0.6,2,0.6,3.1s-0.2,2.1-0.6,3.1c-0.4,0.9-0.9,1.8-1.6,2.5c-0.7,0.7-1.5,1.2-2.4,1.6
	C10.4,15.2,9.4,15.4,8.3,15.4z M8.3,11.8c0.8,0,1.4-0.2,2-0.6c0.5-0.4,1-0.9,1.2-1.5c0.3-0.6,0.4-1.3,0.4-2s-0.1-1.4-0.4-2
	c-0.3-0.6-0.7-1.1-1.2-1.5c-0.5-0.4-1.2-0.6-2-0.6c-0.8,0-1.4,0.2-2,0.6C5.8,4.5,5.4,5,5.1,5.7C4.8,6.3,4.7,7,4.7,7.7s0.1,1.4,0.4,2
	c0.3,0.6,0.7,1.1,1.2,1.5C6.9,11.6,7.5,11.8,8.3,11.8z M17.8,15.1V0.4h3.5l5.6,8.2V0.4h3.9v14.7h-3.3l-5.9-8.4v8.4H17.8z M33.2,15.1
	V0.4h3.9v11.2h6.8v3.4H33.2z M45.5,15.1V0.4h3.9v14.7H45.5z M51.8,15.1V0.4h3.5l5.6,8.2V0.4h3.9v14.7h-3.3l-5.9-8.4v8.4H51.8z
	 M67.2,15.1V0.4h10.6v3.4h-6.7V6h5.5v3.2h-5.5v2.5h7.1v3.4H67.2z M1.2,35.1V20.4h3.9v11.2h6.8v3.4H1.2z M13.5,35.1V20.4H24v3.4h-6.7
	V26h5.5v3.2h-5.5v2.5h7.1v3.4H13.5z M25.1,35.1l5.4-14.7h4.5l5.2,14.7h-4.2L35,32h-4.9l-1,3H25.1z M30.8,29.2h3.3l-1.6-5.4
	L30.8,29.2z M41.3,35.1V20.4h6.1c1.6,0,2.8,0.4,3.8,1.2c1,0.8,1.4,2,1.4,3.6c0,1-0.2,1.8-0.6,2.5c-0.4,0.7-1,1.3-1.7,1.7l3.1,5.6
	h-4.2l-2.5-5h-1.6v5H41.3z M45.1,27H47c0.5,0,0.9-0.2,1.3-0.5c0.3-0.3,0.5-0.7,0.5-1.3c0-0.6-0.2-1-0.5-1.3
	c-0.3-0.3-0.7-0.5-1.3-0.5h-1.9V27z M54.9,35.1V20.4h3.5l5.6,8.2v-8.2h3.8v14.7h-3.3l-5.9-8.4v8.4H54.9z M70.3,35.1V20.4h3.9v14.7
	H70.3z M76.7,35.1V20.4h3.5l5.6,8.2v-8.2h3.8v14.7h-3.3l-5.9-8.4v8.4H76.7z M99.6,29.7v-3h6v6.6c-0.9,0.7-1.9,1.3-3,1.6
	c-1.1,0.3-2.3,0.5-3.4,0.5c-1.6,0-2.9-0.3-4.1-0.9c-1.1-0.6-2-1.5-2.6-2.7c-0.6-1.2-0.9-2.5-0.9-4.1c0-1.5,0.3-2.8,1-4
	c0.6-1.2,1.5-2.1,2.7-2.7c1.2-0.7,2.5-1,4-1c1.2,0,2.4,0.2,3.4,0.6c1.1,0.4,2,1.1,2.7,2l-2.5,2.6c-0.5-0.5-0.9-0.8-1.5-1.1
	c-0.5-0.3-1.1-0.4-1.8-0.4c-0.8,0-1.5,0.2-2.1,0.6c-0.6,0.4-1,0.9-1.3,1.5c-0.3,0.6-0.4,1.3-0.4,2.1c0,1.2,0.4,2.3,1.1,3
	c0.7,0.7,1.7,1.1,2.9,1.1c0.5,0,0.9-0.1,1.4-0.2c0.4-0.1,0.9-0.3,1.3-0.6v-1.4H99.6z M0,55.1l5.4-14.7h4.5L15,55.1h-4.2l-0.9-3H5
	l-1,3H0z M5.8,49.2h3.3l-1.6-5.4L5.8,49.2z M16.2,55.1V40.4h3.5l5.6,8.2v-8.2h3.9v14.7h-3.3l-5.9-8.4v8.4H16.2z M31.7,55.1V40.4h5.6
	c1.5,0,2.9,0.3,4,0.8c1.2,0.5,2.1,1.3,2.8,2.4c0.7,1.1,1,2.5,1,4.2c0,1.6-0.3,3-1,4c-0.7,1.1-1.6,1.9-2.8,2.4
	c-1.2,0.5-2.5,0.8-4,0.8H31.7z M35.6,51.6h1.6c1.3,0,2.2-0.4,2.9-1.1c0.7-0.7,1.1-1.7,1.1-2.8c0-1.2-0.3-2.1-1-2.8
	c-0.6-0.7-1.7-1.1-3-1.1h-1.6V51.6z M49.6,55.1L55,40.4h4.5l5.2,14.7h-4.2l-0.9-3h-4.9l-1,3H49.6z M55.4,49.2h3.3L57,43.8L55.4,49.2
	z M65.8,55.1V40.4h5.6c1.5,0,2.9,0.3,4,0.8c1.2,0.5,2.1,1.3,2.8,2.4c0.7,1.1,1,2.5,1,4.2c0,1.6-0.3,3-1,4c-0.7,1.1-1.6,1.9-2.8,2.4
	c-1.2,0.5-2.5,0.8-4,0.8H65.8z M69.7,51.6h1.6c1.3,0,2.2-0.4,2.9-1.1c0.7-0.7,1.1-1.7,1.1-2.8c0-1.2-0.3-2.1-1-2.8
	c-0.6-0.7-1.7-1.1-3-1.1h-1.6V51.6z M84.4,55.1l-5.3-14.7h4.2l3.3,10.2l3.1-10.2h4.2l-5.3,14.7H84.4z M95,55.1V40.4h3.9v14.7H95z
	 M112.3,49.9l2.6,2.5c-1.6,2.1-3.8,3.1-6.5,3.1c-1.5,0-2.8-0.3-4-1c-1.1-0.7-2-1.6-2.7-2.7c-0.6-1.2-1-2.5-1-4c0-1.5,0.3-2.8,1-4
	c0.6-1.2,1.5-2.1,2.7-2.8c1.1-0.7,2.5-1,4-1c1.3,0,2.4,0.2,3.5,0.6c1.1,0.4,2,1.2,2.8,2.2l-2.6,2.6c-0.4-0.6-0.9-1-1.5-1.3
	c-0.6-0.3-1.2-0.5-2-0.5c-0.8,0-1.5,0.2-2.1,0.6c-0.6,0.4-1,0.8-1.3,1.5c-0.3,0.6-0.5,1.3-0.5,2c0,0.8,0.2,1.5,0.5,2.1
	c0.3,0.6,0.8,1.1,1.4,1.5c0.6,0.4,1.3,0.5,2,0.5c0.9,0,1.6-0.2,2.1-0.5S111.8,50.5,112.3,49.9z M116.1,55.1V40.4h10.6v3.4H120V46
	h5.5v3.2H120v2.5h7.1v3.4H116.1z"/>
</svg>
