<?xml version="1.0" encoding="utf-8"?>
<!-- Generator: Adobe Illustrator 27.7.0, SVG Export Plug-In . SVG Version: 6.00 Build 0)  -->
<svg version="1.1" id="Layer_1" xmlns="http://www.w3.org/2000/svg" xmlns:xlink="http://www.w3.org/1999/xlink" x="0px" y="0px"
	 viewBox="0 0 123.3 55.4" style="enable-background:new 0 0 123.3 55.4;" xml:space="preserve">
<style type="text/css">
	.st0{fill:#FFD000;}
</style>
<path class="st0" d="M0.6,15.1V0.4h5.6c1.5,0,2.9,0.3,4,0.8c1.2,0.5,2.1,1.3,2.8,2.4c0.7,1.1,1,2.5,1,4.2c0,1.6-0.3,3-1,4
	c-0.7,1.1-1.6,1.9-2.8,2.4c-1.2,0.5-2.5,0.8-4,0.8H0.6z M4.5,11.6H6c1.3,0,2.2-0.4,2.9-1.1c0.7-0.7,1.1-1.7,1.1-2.8
	c0-1.2-0.3-2.1-1-2.8C8.4,4.2,7.4,3.8,6,3.8H4.5V11.6z M23,15.4c-1.1,0-2.1-0.2-3.1-0.6c-0.9-0.4-1.7-0.9-2.4-1.6
	c-0.7-0.7-1.2-1.5-1.6-2.5c-0.4-0.9-0.6-2-0.6-3.1s0.2-2.1,0.6-3.1c0.4-0.9,0.9-1.8,1.6-2.4C18.2,1.5,19,1,19.9,0.6
	C20.9,0.2,21.9,0,23,0c1.1,0,2.1,0.2,3,0.6C27,1,27.8,1.5,28.5,2.2c0.7,0.7,1.2,1.5,1.6,2.4c0.4,0.9,0.6,2,0.6,3.1s-0.2,2.1-0.6,3.1
	c-0.4,0.9-0.9,1.8-1.6,2.5c-0.7,0.7-1.5,1.2-2.4,1.6C25.1,15.2,24.1,15.4,23,15.4z M23,11.8c0.8,0,1.4-0.2,2-0.5
	c0.5-0.4,1-0.9,1.2-1.5c0.3-0.6,0.4-1.3,0.4-2c0-0.7-0.1-1.4-0.4-2c-0.3-0.6-0.7-1.1-1.2-1.5c-0.5-0.4-1.2-0.5-2-0.5
	c-0.8,0-1.4,0.2-2,0.5c-0.5,0.4-0.9,0.9-1.2,1.5c-0.3,0.6-0.4,1.3-0.4,2c0,0.7,0.1,1.4,0.4,2c0.3,0.6,0.7,1.1,1.2,1.5
	C21.6,11.6,22.2,11.8,23,11.8z M32.5,15.1V0.4H36l5.6,8.2V0.4h3.8v14.7h-3.3l-5.9-8.4v8.4H32.5z M47.7,5.9l0.6-5.5h3.9l-1.7,5.5
	H47.7z M57.8,15.1V3.8h-4.5V0.4h12.9v3.4h-4.5v11.3H57.8z M71.5,15.1V0.4h3.9v5.5l4.4-5.5h4.6L79.4,6l5.7,9h-4.7l-3.6-5.9l-1.4,1.6
	v4.3H71.5z M86.4,15.1V0.4H97v3.4h-6.7V6h5.5v3.2h-5.5v2.5h7.1v3.4H86.4z M99.3,15.1V0.4h10.6v3.4h-6.7V6h5.5v3.2h-5.5v2.5h7.1v3.4
	H99.3z M112.1,15.1V0.4h6c1.6,0,2.8,0.4,3.8,1.3c1,0.8,1.4,2,1.4,3.6c0,1-0.2,1.9-0.7,2.6c-0.4,0.7-1,1.3-1.8,1.7
	c-0.8,0.4-1.6,0.6-2.6,0.6h-2.3v4.9H112.1z M115.9,7.1h1.8c0.5,0,0.9-0.2,1.3-0.5c0.3-0.3,0.5-0.8,0.5-1.3c0-0.6-0.1-1-0.4-1.3
	c-0.3-0.3-0.7-0.5-1.3-0.5h-1.8V7.1z M7.6,35.4c-1.1,0-2.1-0.2-3.1-0.6c-0.9-0.4-1.7-0.9-2.4-1.6c-0.7-0.7-1.2-1.5-1.6-2.5
	c-0.4-0.9-0.6-2-0.6-3.1s0.2-2.1,0.6-3.1c0.4-0.9,0.9-1.8,1.6-2.4c0.7-0.7,1.5-1.2,2.4-1.6c0.9-0.4,2-0.6,3.1-0.6s2.1,0.2,3,0.6
	c0.9,0.4,1.8,0.9,2.4,1.6c0.7,0.7,1.2,1.5,1.6,2.4c0.4,0.9,0.6,2,0.6,3.1s-0.2,2.1-0.6,3.1c-0.4,0.9-0.9,1.8-1.6,2.5
	c-0.7,0.7-1.5,1.2-2.4,1.6C9.7,35.2,8.7,35.4,7.6,35.4z M7.6,31.8c0.8,0,1.4-0.2,2-0.5c0.5-0.4,1-0.9,1.2-1.5c0.3-0.6,0.4-1.3,0.4-2
	c0-0.7-0.1-1.4-0.4-2c-0.3-0.6-0.7-1.1-1.2-1.5c-0.5-0.4-1.2-0.6-2-0.6c-0.8,0-1.4,0.2-2,0.6c-0.5,0.4-0.9,0.9-1.2,1.5
	C4.2,26.3,4,27,4,27.7c0,0.7,0.1,1.4,0.4,2c0.3,0.6,0.7,1.1,1.2,1.5C6.2,31.6,6.9,31.8,7.6,31.8z M17.1,35.1V20.4h10.2v3.4H21v2.8
	h4.9v3.2H21v5.2H17.1z M28.9,35.1V20.4h10.2v3.4h-6.3v2.8h4.9v3.2h-4.9v5.2H28.9z M40.6,35.1V20.4h3.9v14.7H40.6z M57.9,29.9
	l2.6,2.5c-1.6,2.1-3.8,3.1-6.5,3.1c-1.5,0-2.8-0.3-4-1c-1.1-0.7-2-1.6-2.7-2.7c-0.6-1.2-1-2.5-1-4s0.3-2.8,1-4
	c0.6-1.2,1.5-2.1,2.7-2.8c1.1-0.7,2.5-1,4-1c1.3,0,2.4,0.2,3.5,0.6c1.1,0.4,2,1.2,2.8,2.2l-2.6,2.6c-0.4-0.6-0.9-1-1.5-1.3
	c-0.6-0.3-1.2-0.5-2-0.5c-0.8,0-1.5,0.2-2.1,0.5c-0.6,0.4-1,0.8-1.3,1.5c-0.3,0.6-0.5,1.3-0.5,2c0,0.8,0.2,1.5,0.5,2.1
	c0.3,0.6,0.8,1.1,1.4,1.5c0.6,0.4,1.3,0.5,2,0.5c0.9,0,1.6-0.2,2.1-0.5C56.9,31,57.4,30.5,57.9,29.9z M61.8,35.1V20.4h10.6v3.4h-6.7
	V26h5.5v3.2h-5.5v2.5h7.1v3.4H61.8z M0.6,55.1V40.4h3.9v5.4h5.4v-5.4h3.9v14.7H9.9v-5.7H4.5v5.7H0.6z M23.2,55.4
	c-1.1,0-2.1-0.2-3.1-0.6c-0.9-0.4-1.7-0.9-2.4-1.6c-0.7-0.7-1.2-1.5-1.6-2.5c-0.4-0.9-0.6-2-0.6-3.1s0.2-2.1,0.6-3.1
	c0.4-0.9,0.9-1.8,1.6-2.4c0.7-0.7,1.5-1.2,2.4-1.6c0.9-0.4,2-0.6,3.1-0.6s2.1,0.2,3,0.6c0.9,0.4,1.8,0.9,2.4,1.6
	c0.7,0.7,1.2,1.5,1.6,2.4c0.4,0.9,0.6,2,0.6,3.1s-0.2,2.1-0.6,3.1c-0.4,0.9-0.9,1.8-1.6,2.5c-0.7,0.7-1.5,1.2-2.4,1.6
	C25.4,55.2,24.3,55.4,23.2,55.4z M23.2,51.8c0.8,0,1.4-0.2,2-0.5c0.5-0.4,1-0.9,1.2-1.5c0.3-0.6,0.4-1.3,0.4-2c0-0.7-0.1-1.4-0.4-2
	s-0.7-1.1-1.2-1.5c-0.5-0.4-1.2-0.6-2-0.6c-0.8,0-1.4,0.2-2,0.6c-0.5,0.4-0.9,0.9-1.2,1.5c-0.3,0.6-0.4,1.3-0.4,2
	c0,0.7,0.1,1.4,0.4,2c0.3,0.6,0.7,1.1,1.2,1.5C21.8,51.6,22.5,51.8,23.2,51.8z M32.6,49.3v-9h3.9V49c0,0.8,0.2,1.5,0.5,2
	c0.4,0.5,1,0.8,1.9,0.8s1.5-0.3,1.8-0.8c0.4-0.5,0.5-1.2,0.5-2v-8.6h3.9v9c0,1.2-0.3,2.3-0.8,3.3c-0.5,0.9-1.3,1.6-2.2,2.1
	c-0.9,0.5-2,0.7-3.3,0.7c-1.2,0-2.3-0.2-3.3-0.7s-1.7-1.2-2.2-2.1C32.9,51.7,32.6,50.6,32.6,49.3z M47.6,55.1V40.4h6.1
	c1.6,0,2.8,0.4,3.8,1.2c1,0.8,1.4,2,1.4,3.6c0,1-0.2,1.8-0.6,2.5c-0.4,0.7-1,1.3-1.7,1.7l3.1,5.6h-4.2l-2.5-5h-1.6v5H47.6z M51.4,47
	h1.9c0.5,0,0.9-0.2,1.3-0.5c0.3-0.3,0.5-0.7,0.5-1.3c0-0.6-0.2-1-0.5-1.3s-0.7-0.5-1.3-0.5h-1.9V47z M59.8,53.3l2.4-2.8
	c0.4,0.4,0.9,0.8,1.6,1.1c0.7,0.3,1.4,0.5,2.2,0.5c0.4,0,0.8-0.1,1.1-0.2c0.4-0.2,0.6-0.5,0.6-0.9c0-0.4-0.2-0.7-0.6-0.9
	c-0.4-0.3-1-0.5-1.7-0.7l-0.8-0.3c-0.6-0.2-1.2-0.5-1.8-0.8c-0.6-0.4-1.1-0.8-1.5-1.3c-0.4-0.5-0.6-1.2-0.6-2c0-0.9,0.2-1.7,0.6-2.4
	c0.4-0.7,1.1-1.3,1.9-1.7c0.9-0.4,1.9-0.6,3.1-0.6c1,0,1.8,0.1,2.5,0.3c0.7,0.2,1.3,0.5,1.8,0.8c0.5,0.3,0.8,0.6,1,0.8l-2,2.5
	c-0.5-0.4-1-0.7-1.6-0.9c-0.6-0.2-1.1-0.4-1.7-0.4c-0.4,0-0.7,0.1-1.1,0.3c-0.3,0.2-0.5,0.4-0.5,0.9c0,0.5,0.2,0.8,0.6,1
	c0.4,0.2,0.9,0.4,1.6,0.6l0.7,0.2c0.5,0.1,1,0.3,1.5,0.6c0.5,0.2,1,0.5,1.4,0.9c0.4,0.4,0.8,0.8,1,1.3c0.3,0.5,0.4,1.2,0.4,2
	c0,0.9-0.3,1.7-0.8,2.4c-0.5,0.7-1.2,1.3-2.2,1.7c-0.9,0.4-1.9,0.6-3,0.6c-1.5,0-2.7-0.2-3.7-0.6C61.3,54.4,60.5,53.9,59.8,53.3z"/>
</svg>
