<svg width="300" height="250" viewBox="0 0 300 250" fill="none" xmlns="http://www.w3.org/2000/svg">
<path d="M288.734 12.791L283.87 17.8105L288.59 22.6826L286.799 24.4736L282.106 19.6309L277.271 24.623L275.479 22.8311L280.343 17.8105L275.479 12.791L277.271 11L282.106 15.9902L286.942 11L288.734 12.791Z" fill="white"/>
<path d="M10.912 46V37.996H13.624C14.176 37.996 14.632 38.088 14.992 38.272C15.352 38.456 15.62 38.704 15.796 39.016C15.972 39.32 16.06 39.66 16.06 40.036C16.06 40.372 15.988 40.664 15.844 40.912C15.7 41.16 15.524 41.356 15.316 41.5C15.116 41.644 14.928 41.732 14.752 41.764C14.912 41.788 15.092 41.84 15.292 41.92C15.492 42 15.68 42.116 15.856 42.268C16.04 42.412 16.188 42.608 16.3 42.856C16.42 43.096 16.48 43.396 16.48 43.756C16.48 44.324 16.344 44.772 16.072 45.1C15.808 45.428 15.448 45.66 14.992 45.796C14.544 45.932 14.04 46 13.48 46H10.912ZM12.028 41.332H13.456C13.696 41.332 13.928 41.292 14.152 41.212C14.384 41.132 14.572 41.004 14.716 40.828C14.868 40.652 14.944 40.42 14.944 40.132C14.944 39.812 14.868 39.572 14.716 39.412C14.572 39.244 14.384 39.132 14.152 39.076C13.928 39.02 13.696 38.992 13.456 38.992H12.028V41.332ZM12.028 45.004H13.42C13.628 45.004 13.84 44.992 14.056 44.968C14.28 44.944 14.488 44.888 14.68 44.8C14.872 44.712 15.028 44.58 15.148 44.404C15.268 44.228 15.328 43.992 15.328 43.696C15.328 43.312 15.228 43.024 15.028 42.832C14.836 42.632 14.6 42.496 14.32 42.424C14.04 42.352 13.764 42.316 13.492 42.316H12.028V45.004ZM18.9021 46H17.8221V40.96C17.8221 40.904 17.8221 40.84 17.8221 40.768C17.8221 40.696 17.8181 40.58 17.8101 40.42H18.8421L18.8781 41.32C18.9661 41.192 19.0861 41.052 19.2381 40.9C19.3981 40.748 19.5981 40.616 19.8381 40.504C20.0781 40.392 20.3661 40.336 20.7021 40.336C20.8221 40.336 20.9301 40.344 21.0261 40.36C21.1301 40.376 21.2261 40.4 21.3141 40.432L21.0741 41.44C20.9301 41.384 20.7461 41.356 20.5221 41.356C20.2181 41.356 19.9421 41.436 19.6941 41.596C19.4541 41.748 19.2621 41.952 19.1181 42.208C18.9741 42.464 18.9021 42.748 18.9021 43.06V46ZM24.5765 46.168C24.0085 46.168 23.5005 46.036 23.0525 45.772C22.6045 45.5 22.2525 45.14 21.9965 44.692C21.7485 44.236 21.6245 43.74 21.6245 43.204C21.6245 42.66 21.7485 42.164 21.9965 41.716C22.2525 41.268 22.6045 40.912 23.0525 40.648C23.5005 40.376 24.0085 40.24 24.5765 40.24C25.1445 40.24 25.6485 40.376 26.0885 40.648C26.5365 40.912 26.8885 41.268 27.1445 41.716C27.4005 42.164 27.5285 42.66 27.5285 43.204C27.5285 43.74 27.4005 44.236 27.1445 44.692C26.8885 45.14 26.5365 45.5 26.0885 45.772C25.6485 46.036 25.1445 46.168 24.5765 46.168ZM24.5765 45.232C24.9685 45.232 25.3005 45.136 25.5725 44.944C25.8525 44.744 26.0645 44.488 26.2085 44.176C26.3605 43.864 26.4365 43.54 26.4365 43.204C26.4365 42.868 26.3605 42.544 26.2085 42.232C26.0645 41.92 25.8525 41.668 25.5725 41.476C25.2925 41.276 24.9605 41.176 24.5765 41.176C24.1925 41.176 23.8605 41.276 23.5805 41.476C23.3005 41.668 23.0845 41.92 22.9325 42.232C22.7885 42.536 22.7165 42.86 22.7165 43.204C22.7165 43.54 22.7925 43.864 22.9445 44.176C23.0965 44.48 23.3085 44.732 23.5805 44.932C23.8605 45.132 24.1925 45.232 24.5765 45.232ZM28.7197 43.768V40.42H29.7997V43.696C29.7997 44.216 29.9077 44.596 30.1237 44.836C30.3397 45.076 30.6517 45.196 31.0597 45.196C31.4757 45.196 31.7997 45.088 32.0317 44.872C32.2637 44.656 32.4277 44.384 32.5237 44.056C32.6277 43.72 32.6797 43.372 32.6797 43.012V40.42H33.7597V45.436C33.7597 45.468 33.7597 45.544 33.7597 45.664C33.7597 45.776 33.7637 45.888 33.7717 46H32.7397L32.7037 45.172C32.6157 45.3 32.4917 45.44 32.3317 45.592C32.1717 45.736 31.9677 45.86 31.7197 45.964C31.4797 46.068 31.1877 46.12 30.8437 46.12C30.1157 46.12 29.5797 45.908 29.2357 45.484C28.8917 45.06 28.7197 44.488 28.7197 43.768ZM35.4996 47.932L36.0036 47.14C36.1876 47.268 36.4116 47.376 36.6756 47.464C36.9476 47.56 37.2756 47.608 37.6596 47.608C38.1956 47.608 38.5956 47.46 38.8596 47.164C39.1236 46.868 39.2556 46.48 39.2556 46V45.316C39.1836 45.38 39.0756 45.472 38.9316 45.592C38.7876 45.704 38.5996 45.808 38.3676 45.904C38.1436 46 37.8636 46.048 37.5276 46.048C36.9836 46.048 36.5196 45.928 36.1356 45.688C35.7596 45.448 35.4716 45.12 35.2716 44.704C35.0796 44.28 34.9836 43.804 34.9836 43.276C34.9836 42.7 35.1156 42.188 35.3796 41.74C35.6436 41.284 36.0116 40.928 36.4836 40.672C36.9556 40.416 37.5036 40.288 38.1276 40.288C38.5756 40.288 38.9956 40.328 39.3876 40.408C39.7876 40.488 40.1076 40.576 40.3476 40.672V46C40.3476 46.8 40.1116 47.424 39.6396 47.872C39.1676 48.32 38.5116 48.544 37.6716 48.544C37.1036 48.544 36.6516 48.48 36.3156 48.352C35.9796 48.224 35.7076 48.084 35.4996 47.932ZM39.2676 43.72V41.404C39.1956 41.38 39.0716 41.348 38.8956 41.308C38.7276 41.26 38.4716 41.236 38.1276 41.236C37.7196 41.236 37.3636 41.324 37.0596 41.5C36.7556 41.668 36.5156 41.904 36.3396 42.208C36.1716 42.512 36.0876 42.864 36.0876 43.264C36.0876 43.6 36.1396 43.908 36.2436 44.188C36.3556 44.468 36.5316 44.692 36.7716 44.86C37.0116 45.028 37.3196 45.112 37.6956 45.112C38.0556 45.112 38.3516 45.044 38.5836 44.908C38.8156 44.772 38.9876 44.6 39.0996 44.392C39.2116 44.176 39.2676 43.952 39.2676 43.72ZM41.8101 46V37.996H42.8781V41.248C42.9741 41.112 43.0981 40.972 43.2501 40.828C43.4101 40.676 43.6101 40.548 43.8501 40.444C44.0981 40.34 44.3941 40.288 44.7381 40.288C45.4661 40.288 46.0061 40.504 46.3581 40.936C46.7101 41.36 46.8861 41.932 46.8861 42.652V46H45.8061V42.736C45.8061 42.216 45.6901 41.836 45.4581 41.596C45.2341 41.348 44.9221 41.224 44.5221 41.224C44.1141 41.224 43.7901 41.332 43.5501 41.548C43.3101 41.756 43.1381 42.028 43.0341 42.364C42.9381 42.7 42.8901 43.048 42.8901 43.408V46H41.8101ZM48.8178 44.176V41.32H47.8098V40.42H48.8178V38.596H49.8978V40.42H51.5298V41.32H49.8978V44.068C49.8978 44.516 49.9658 44.824 50.1018 44.992C50.2458 45.16 50.4458 45.244 50.7018 45.244C50.9098 45.244 51.0818 45.212 51.2178 45.148C51.3618 45.084 51.4978 44.988 51.6258 44.86L52.1178 45.52C51.8858 45.744 51.6458 45.904 51.3978 46C51.1578 46.104 50.8698 46.156 50.5338 46.156C49.9498 46.156 49.5178 45.996 49.2378 45.676C48.9578 45.348 48.8178 44.848 48.8178 44.176ZM55.5912 44.176V41.32H54.5832V40.42H55.5912V38.596H56.6712V40.42H58.3032V41.32H56.6712V44.068C56.6712 44.516 56.7392 44.824 56.8752 44.992C57.0192 45.16 57.2192 45.244 57.4752 45.244C57.6832 45.244 57.8552 45.212 57.9912 45.148C58.1352 45.084 58.2712 44.988 58.3992 44.86L58.8912 45.52C58.6592 45.744 58.4192 45.904 58.1712 46C57.9312 46.104 57.6432 46.156 57.3072 46.156C56.7232 46.156 56.2912 45.996 56.0112 45.676C55.7312 45.348 55.5912 44.848 55.5912 44.176ZM62.0414 46.168C61.4734 46.168 60.9654 46.036 60.5174 45.772C60.0694 45.5 59.7174 45.14 59.4614 44.692C59.2134 44.236 59.0894 43.74 59.0894 43.204C59.0894 42.66 59.2134 42.164 59.4614 41.716C59.7174 41.268 60.0694 40.912 60.5174 40.648C60.9654 40.376 61.4734 40.24 62.0414 40.24C62.6094 40.24 63.1134 40.376 63.5534 40.648C64.0014 40.912 64.3534 41.268 64.6094 41.716C64.8654 42.164 64.9934 42.66 64.9934 43.204C64.9934 43.74 64.8654 44.236 64.6094 44.692C64.3534 45.14 64.0014 45.5 63.5534 45.772C63.1134 46.036 62.6094 46.168 62.0414 46.168ZM62.0414 45.232C62.4334 45.232 62.7654 45.136 63.0374 44.944C63.3174 44.744 63.5294 44.488 63.6734 44.176C63.8254 43.864 63.9014 43.54 63.9014 43.204C63.9014 42.868 63.8254 42.544 63.6734 42.232C63.5294 41.92 63.3174 41.668 63.0374 41.476C62.7574 41.276 62.4254 41.176 62.0414 41.176C61.6574 41.176 61.3254 41.276 61.0454 41.476C60.7654 41.668 60.5494 41.92 60.3974 42.232C60.2534 42.536 60.1814 42.86 60.1814 43.204C60.1814 43.54 60.2574 43.864 60.4094 44.176C60.5614 44.48 60.7734 44.732 61.0454 44.932C61.3254 45.132 61.6574 45.232 62.0414 45.232ZM67.9205 48.124L68.4125 47.368C68.4925 47.44 68.5845 47.504 68.6885 47.56C68.7925 47.616 68.9205 47.644 69.0725 47.644C69.3285 47.644 69.5205 47.528 69.6485 47.296C69.7765 47.072 69.9285 46.744 70.1045 46.312L70.2485 45.952L67.7525 40.42H68.9885L70.7885 44.632L72.3725 40.42H73.5485L71.3165 45.856C71.2125 46.104 71.1045 46.38 70.9925 46.684C70.8805 46.996 70.7485 47.292 70.5965 47.572C70.4445 47.86 70.2485 48.092 70.0085 48.268C69.7765 48.452 69.4845 48.544 69.1325 48.544C68.8525 48.544 68.6165 48.504 68.4245 48.424C68.2325 48.352 68.0645 48.252 67.9205 48.124ZM76.7953 46.168C76.2273 46.168 75.7193 46.036 75.2713 45.772C74.8233 45.5 74.4713 45.14 74.2153 44.692C73.9673 44.236 73.8433 43.74 73.8433 43.204C73.8433 42.66 73.9673 42.164 74.2153 41.716C74.4713 41.268 74.8233 40.912 75.2713 40.648C75.7193 40.376 76.2273 40.24 76.7953 40.24C77.3633 40.24 77.8673 40.376 78.3073 40.648C78.7553 40.912 79.1073 41.268 79.3633 41.716C79.6193 42.164 79.7473 42.66 79.7473 43.204C79.7473 43.74 79.6193 44.236 79.3633 44.692C79.1073 45.14 78.7553 45.5 78.3073 45.772C77.8673 46.036 77.3633 46.168 76.7953 46.168ZM76.7953 45.232C77.1873 45.232 77.5193 45.136 77.7913 44.944C78.0713 44.744 78.2833 44.488 78.4273 44.176C78.5793 43.864 78.6553 43.54 78.6553 43.204C78.6553 42.868 78.5793 42.544 78.4273 42.232C78.2833 41.92 78.0713 41.668 77.7913 41.476C77.5113 41.276 77.1793 41.176 76.7953 41.176C76.4113 41.176 76.0793 41.276 75.7993 41.476C75.5193 41.668 75.3033 41.92 75.1513 42.232C75.0073 42.536 74.9353 42.86 74.9353 43.204C74.9353 43.54 75.0113 43.864 75.1633 44.176C75.3153 44.48 75.5273 44.732 75.7993 44.932C76.0793 45.132 76.4113 45.232 76.7953 45.232ZM80.9385 43.768V40.42H82.0185V43.696C82.0185 44.216 82.1265 44.596 82.3425 44.836C82.5585 45.076 82.8705 45.196 83.2785 45.196C83.6945 45.196 84.0185 45.088 84.2505 44.872C84.4825 44.656 84.6465 44.384 84.7425 44.056C84.8465 43.72 84.8985 43.372 84.8985 43.012V40.42H85.9785V45.436C85.9785 45.468 85.9785 45.544 85.9785 45.664C85.9785 45.776 85.9825 45.888 85.9905 46H84.9585L84.9225 45.172C84.8345 45.3 84.7105 45.44 84.5505 45.592C84.3905 45.736 84.1865 45.86 83.9385 45.964C83.6985 46.068 83.4065 46.12 83.0625 46.12C82.3345 46.12 81.7985 45.908 81.4545 45.484C81.1105 45.06 80.9385 44.488 80.9385 43.768ZM89.6463 45.808V37.996H90.7263V41.032C90.8383 40.88 91.0383 40.72 91.3263 40.552C91.6143 40.376 91.9903 40.288 92.4543 40.288C93.0063 40.288 93.4703 40.416 93.8463 40.672C94.2303 40.928 94.5183 41.276 94.7103 41.716C94.9023 42.148 94.9983 42.632 94.9983 43.168C94.9983 43.752 94.8663 44.272 94.6023 44.728C94.3383 45.176 93.9703 45.528 93.4983 45.784C93.0343 46.04 92.4903 46.168 91.8663 46.168C91.4103 46.168 90.9863 46.132 90.5943 46.06C90.2023 45.988 89.8863 45.904 89.6463 45.808ZM90.7143 42.856V45.076C90.8263 45.108 90.9623 45.144 91.1223 45.184C91.2903 45.216 91.5343 45.232 91.8543 45.232C92.4703 45.232 92.9623 45.04 93.3303 44.656C93.7063 44.272 93.8943 43.784 93.8943 43.192C93.8943 42.848 93.8383 42.528 93.7263 42.232C93.6223 41.936 93.4503 41.696 93.2103 41.512C92.9783 41.328 92.6703 41.236 92.2863 41.236C91.9423 41.236 91.6503 41.312 91.4103 41.464C91.1783 41.616 91.0023 41.816 90.8823 42.064C90.7703 42.312 90.7143 42.576 90.7143 42.856ZM95.4479 48.124L95.9399 47.368C96.0199 47.44 96.1119 47.504 96.2159 47.56C96.3199 47.616 96.4479 47.644 96.5999 47.644C96.8559 47.644 97.0479 47.528 97.1759 47.296C97.3039 47.072 97.4559 46.744 97.6319 46.312L97.7759 45.952L95.2799 40.42H96.5159L98.3159 44.632L99.8999 40.42H101.076L98.8439 45.856C98.7399 46.104 98.6319 46.38 98.5199 46.684C98.4079 46.996 98.2759 47.292 98.1239 47.572C97.9719 47.86 97.7759 48.092 97.5359 48.268C97.3039 48.452 97.0119 48.544 96.6599 48.544C96.3799 48.544 96.1439 48.504 95.9519 48.424C95.7599 48.352 95.5919 48.252 95.4479 48.124ZM104.275 46V37.996H105.427V41.344H109.807V37.996H110.959V46H109.807V42.376H105.427V46H104.275ZM115.303 46.168C114.735 46.168 114.227 46.036 113.779 45.772C113.331 45.5 112.979 45.14 112.723 44.692C112.475 44.236 112.351 43.74 112.351 43.204C112.351 42.66 112.475 42.164 112.723 41.716C112.979 41.268 113.331 40.912 113.779 40.648C114.227 40.376 114.735 40.24 115.303 40.24C115.871 40.24 116.375 40.376 116.815 40.648C117.263 40.912 117.615 41.268 117.871 41.716C118.127 42.164 118.255 42.66 118.255 43.204C118.255 43.74 118.127 44.236 117.871 44.692C117.615 45.14 117.263 45.5 116.815 45.772C116.375 46.036 115.871 46.168 115.303 46.168ZM115.303 45.232C115.695 45.232 116.027 45.136 116.299 44.944C116.579 44.744 116.791 44.488 116.935 44.176C117.087 43.864 117.163 43.54 117.163 43.204C117.163 42.868 117.087 42.544 116.935 42.232C116.791 41.92 116.579 41.668 116.299 41.476C116.019 41.276 115.687 41.176 115.303 41.176C114.919 41.176 114.587 41.276 114.307 41.476C114.027 41.668 113.811 41.92 113.659 42.232C113.515 42.536 113.443 42.86 113.443 43.204C113.443 43.54 113.519 43.864 113.671 44.176C113.823 44.48 114.035 44.732 114.307 44.932C114.587 45.132 114.919 45.232 115.303 45.232ZM119.182 45.316L119.842 44.596C120.042 44.796 120.282 44.956 120.562 45.076C120.842 45.196 121.166 45.256 121.534 45.256C121.894 45.256 122.194 45.2 122.434 45.088C122.674 44.968 122.794 44.784 122.794 44.536C122.794 44.36 122.746 44.22 122.65 44.116C122.554 44.012 122.39 43.92 122.158 43.84C121.926 43.752 121.606 43.66 121.198 43.564C120.91 43.492 120.63 43.396 120.358 43.276C120.086 43.148 119.862 42.976 119.686 42.76C119.51 42.536 119.422 42.248 119.422 41.896C119.422 41.536 119.526 41.232 119.734 40.984C119.95 40.736 120.226 40.552 120.562 40.432C120.898 40.304 121.25 40.24 121.618 40.24C122.09 40.24 122.498 40.304 122.842 40.432C123.186 40.552 123.482 40.724 123.73 40.948L123.142 41.692C122.974 41.54 122.762 41.412 122.506 41.308C122.258 41.204 121.966 41.152 121.63 41.152C121.286 41.152 121.01 41.208 120.802 41.32C120.594 41.432 120.49 41.616 120.49 41.872C120.49 42.112 120.63 42.292 120.91 42.412C121.19 42.524 121.55 42.632 121.99 42.736C122.342 42.816 122.658 42.924 122.938 43.06C123.226 43.188 123.454 43.364 123.622 43.588C123.798 43.812 123.886 44.104 123.886 44.464C123.886 44.832 123.774 45.144 123.55 45.4C123.334 45.648 123.05 45.84 122.698 45.976C122.346 46.104 121.966 46.168 121.558 46.168C120.502 46.168 119.71 45.884 119.182 45.316ZM125.622 44.176V41.32H124.614V40.42H125.622V38.596H126.702V40.42H128.334V41.32H126.702V44.068C126.702 44.516 126.77 44.824 126.906 44.992C127.05 45.16 127.25 45.244 127.506 45.244C127.714 45.244 127.886 45.212 128.022 45.148C128.166 45.084 128.302 44.988 128.43 44.86L128.922 45.52C128.69 45.744 128.45 45.904 128.202 46C127.962 46.104 127.674 46.156 127.338 46.156C126.754 46.156 126.322 45.996 126.042 45.676C125.762 45.348 125.622 44.848 125.622 44.176ZM129.517 43.156V42.124H133.033V43.156H129.517ZM134.826 46V37.996H137.358C137.902 37.996 138.35 38.072 138.702 38.224C139.062 38.368 139.346 38.56 139.554 38.8C139.762 39.04 139.91 39.304 139.998 39.592C140.086 39.872 140.13 40.148 140.13 40.42C140.13 40.948 140.014 41.396 139.782 41.764C139.55 42.124 139.23 42.396 138.822 42.58C138.414 42.764 137.946 42.856 137.418 42.856H135.966V46H134.826ZM135.966 41.872H137.406C137.902 41.872 138.282 41.744 138.546 41.488C138.818 41.232 138.954 40.884 138.954 40.444C138.954 39.996 138.814 39.64 138.534 39.376C138.262 39.112 137.886 38.98 137.406 38.98H135.966V41.872ZM141.209 46V37.996H142.289V46H141.209ZM143.728 43.768V40.42H144.808V43.696C144.808 44.216 144.916 44.596 145.132 44.836C145.348 45.076 145.66 45.196 146.068 45.196C146.484 45.196 146.808 45.088 147.04 44.872C147.272 44.656 147.436 44.384 147.532 44.056C147.636 43.72 147.688 43.372 147.688 43.012V40.42H148.768V45.436C148.768 45.468 148.768 45.544 148.768 45.664C148.768 45.776 148.772 45.888 148.78 46H147.748L147.712 45.172C147.624 45.3 147.5 45.44 147.34 45.592C147.18 45.736 146.976 45.86 146.728 45.964C146.488 46.068 146.196 46.12 145.852 46.12C145.124 46.12 144.588 45.908 144.244 45.484C143.9 45.06 143.728 44.488 143.728 43.768ZM149.967 45.316L150.627 44.596C150.827 44.796 151.067 44.956 151.347 45.076C151.627 45.196 151.951 45.256 152.319 45.256C152.679 45.256 152.979 45.2 153.219 45.088C153.459 44.968 153.579 44.784 153.579 44.536C153.579 44.36 153.531 44.22 153.435 44.116C153.339 44.012 153.175 43.92 152.943 43.84C152.711 43.752 152.391 43.66 151.983 43.564C151.695 43.492 151.415 43.396 151.143 43.276C150.871 43.148 150.647 42.976 150.471 42.76C150.295 42.536 150.207 42.248 150.207 41.896C150.207 41.536 150.311 41.232 150.519 40.984C150.735 40.736 151.011 40.552 151.347 40.432C151.683 40.304 152.035 40.24 152.403 40.24C152.875 40.24 153.283 40.304 153.627 40.432C153.971 40.552 154.267 40.724 154.515 40.948L153.927 41.692C153.759 41.54 153.547 41.412 153.291 41.308C153.043 41.204 152.751 41.152 152.415 41.152C152.071 41.152 151.795 41.208 151.587 41.32C151.379 41.432 151.275 41.616 151.275 41.872C151.275 42.112 151.415 42.292 151.695 42.412C151.975 42.524 152.335 42.632 152.775 42.736C153.127 42.816 153.443 42.924 153.723 43.06C154.011 43.188 154.239 43.364 154.407 43.588C154.583 43.812 154.671 44.104 154.671 44.464C154.671 44.832 154.559 45.144 154.335 45.4C154.119 45.648 153.835 45.84 153.483 45.976C153.131 46.104 152.751 46.168 152.343 46.168C151.287 46.168 150.495 45.884 149.967 45.316ZM158.264 46V37.996H160.796C161.34 37.996 161.788 38.072 162.14 38.224C162.5 38.368 162.784 38.56 162.992 38.8C163.2 39.04 163.348 39.304 163.436 39.592C163.524 39.872 163.568 40.148 163.568 40.42C163.568 40.948 163.452 41.396 163.22 41.764C162.988 42.124 162.668 42.396 162.26 42.58C161.852 42.764 161.384 42.856 160.856 42.856H159.404V46H158.264ZM159.404 41.872H160.844C161.34 41.872 161.72 41.744 161.984 41.488C162.256 41.232 162.392 40.884 162.392 40.444C162.392 39.996 162.252 39.64 161.972 39.376C161.7 39.112 161.324 38.98 160.844 38.98H159.404V41.872ZM165.372 44.176V41.32H164.364V40.42H165.372V38.596H166.452V40.42H168.084V41.32H166.452V44.068C166.452 44.516 166.52 44.824 166.656 44.992C166.8 45.16 167 45.244 167.256 45.244C167.464 45.244 167.636 45.212 167.772 45.148C167.916 45.084 168.052 44.988 168.18 44.86L168.672 45.52C168.44 45.744 168.2 45.904 167.952 46C167.712 46.104 167.424 46.156 167.088 46.156C166.504 46.156 166.072 45.996 165.792 45.676C165.512 45.348 165.372 44.848 165.372 44.176ZM168.796 48.124L169.288 47.368C169.368 47.44 169.46 47.504 169.564 47.56C169.668 47.616 169.796 47.644 169.948 47.644C170.204 47.644 170.396 47.528 170.524 47.296C170.652 47.072 170.804 46.744 170.98 46.312L171.124 45.952L168.628 40.42H169.864L171.664 44.632L173.248 40.42H174.424L172.192 45.856C172.088 46.104 171.98 46.38 171.868 46.684C171.756 46.996 171.624 47.292 171.472 47.572C171.32 47.86 171.124 48.092 170.884 48.268C170.652 48.452 170.36 48.544 170.008 48.544C169.728 48.544 169.492 48.504 169.3 48.424C169.108 48.352 168.94 48.252 168.796 48.124ZM177.623 46V37.996H178.775V44.98H182.939V46H177.623ZM184.005 39.424V38.212H185.217V39.424H184.005ZM184.077 46V40.42H185.157V46H184.077ZM187.769 46H186.689V40.996C186.689 40.924 186.689 40.852 186.689 40.78C186.689 40.7 186.685 40.58 186.677 40.42H187.709L187.745 41.26C187.833 41.124 187.953 40.984 188.105 40.84C188.257 40.688 188.453 40.56 188.693 40.456C188.933 40.344 189.221 40.288 189.557 40.288C189.989 40.288 190.345 40.376 190.625 40.552C190.913 40.72 191.137 40.968 191.297 41.296C191.521 41.032 191.797 40.8 192.125 40.6C192.453 40.392 192.853 40.288 193.325 40.288C194.045 40.288 194.577 40.504 194.921 40.936C195.265 41.36 195.437 41.932 195.437 42.652V46H194.357V42.736C194.357 41.728 193.957 41.224 193.157 41.224C192.861 41.224 192.597 41.304 192.365 41.464C192.133 41.616 191.949 41.82 191.813 42.076C191.677 42.324 191.609 42.6 191.609 42.904V46H190.529V42.736C190.529 42.216 190.425 41.836 190.217 41.596C190.009 41.348 189.717 41.224 189.341 41.224C188.949 41.224 188.637 41.332 188.405 41.548C188.173 41.764 188.009 42.04 187.913 42.376C187.817 42.704 187.769 43.048 187.769 43.408V46ZM196.861 39.424V38.212H198.073V39.424H196.861ZM196.933 46V40.42H198.013V46H196.933ZM200.025 44.176V41.32H199.017V40.42H200.025V38.596H201.105V40.42H202.737V41.32H201.105V44.068C201.105 44.516 201.173 44.824 201.309 44.992C201.453 45.16 201.653 45.244 201.909 45.244C202.117 45.244 202.289 45.212 202.425 45.148C202.569 45.084 202.705 44.988 202.833 44.86L203.325 45.52C203.093 45.744 202.853 45.904 202.605 46C202.365 46.104 202.077 46.156 201.741 46.156C201.157 46.156 200.725 45.996 200.445 45.676C200.165 45.348 200.025 44.848 200.025 44.176ZM208.263 44.536L208.875 45.184C208.795 45.28 208.651 45.408 208.443 45.568C208.235 45.72 207.963 45.86 207.627 45.988C207.299 46.108 206.899 46.168 206.427 46.168C205.851 46.168 205.343 46.044 204.903 45.796C204.463 45.54 204.119 45.188 203.871 44.74C203.631 44.284 203.511 43.76 203.511 43.168C203.511 42.624 203.627 42.132 203.859 41.692C204.099 41.252 204.427 40.904 204.843 40.648C205.267 40.384 205.751 40.252 206.295 40.252C206.943 40.252 207.467 40.408 207.867 40.72C208.267 41.032 208.559 41.436 208.743 41.932C208.927 42.428 209.019 42.96 209.019 43.528H204.615C204.623 43.856 204.711 44.152 204.879 44.416C205.047 44.672 205.267 44.876 205.539 45.028C205.819 45.172 206.119 45.244 206.439 45.244C206.911 45.244 207.299 45.164 207.603 45.004C207.915 44.844 208.135 44.688 208.263 44.536ZM204.615 42.724H207.903C207.871 42.292 207.719 41.924 207.447 41.62C207.175 41.316 206.791 41.164 206.295 41.164C205.951 41.164 205.655 41.24 205.407 41.392C205.159 41.544 204.967 41.74 204.831 41.98C204.703 42.212 204.631 42.46 204.615 42.724ZM214.277 46L214.241 45.292C214.185 45.356 214.081 45.46 213.929 45.604C213.785 45.748 213.589 45.88 213.341 46C213.093 46.112 212.789 46.168 212.429 46.168C211.957 46.168 211.533 46.052 211.157 45.82C210.781 45.58 210.485 45.244 210.269 44.812C210.053 44.38 209.945 43.872 209.945 43.288C209.945 42.76 210.033 42.308 210.209 41.932C210.393 41.548 210.629 41.236 210.917 40.996C211.205 40.756 211.513 40.58 211.841 40.468C212.177 40.348 212.493 40.288 212.789 40.288C213.093 40.288 213.353 40.32 213.569 40.384C213.793 40.448 214.017 40.536 214.241 40.648V37.996H215.321V45.436C215.321 45.468 215.321 45.544 215.321 45.664C215.321 45.776 215.325 45.888 215.333 46H214.277ZM214.241 43.648V41.656C214.097 41.536 213.913 41.436 213.689 41.356C213.465 41.276 213.193 41.236 212.873 41.236C212.353 41.236 211.917 41.42 211.565 41.788C211.221 42.156 211.049 42.66 211.049 43.3C211.049 43.652 211.105 43.976 211.217 44.272C211.337 44.568 211.517 44.804 211.757 44.98C211.997 45.148 212.301 45.232 212.669 45.232C213.045 45.232 213.345 45.148 213.569 44.98C213.801 44.804 213.969 44.592 214.073 44.344C214.185 44.096 214.241 43.864 214.241 43.648ZM216.926 46V44.656H218.282V46H216.926ZM222.213 46V37.996H227.241V39.028H223.365V41.476H226.317V42.496H223.365V46H222.213ZM230.241 46.168C229.673 46.168 229.165 46.036 228.717 45.772C228.269 45.5 227.917 45.14 227.661 44.692C227.413 44.236 227.289 43.74 227.289 43.204C227.289 42.66 227.413 42.164 227.661 41.716C227.917 41.268 228.269 40.912 228.717 40.648C229.165 40.376 229.673 40.24 230.241 40.24C230.809 40.24 231.313 40.376 231.753 40.648C232.201 40.912 232.553 41.268 232.809 41.716C233.065 42.164 233.193 42.66 233.193 43.204C233.193 43.74 233.065 44.236 232.809 44.692C232.553 45.14 232.201 45.5 231.753 45.772C231.313 46.036 230.809 46.168 230.241 46.168ZM230.241 45.232C230.633 45.232 230.965 45.136 231.237 44.944C231.517 44.744 231.729 44.488 231.873 44.176C232.025 43.864 232.101 43.54 232.101 43.204C232.101 42.868 232.025 42.544 231.873 42.232C231.729 41.92 231.517 41.668 231.237 41.476C230.957 41.276 230.625 41.176 230.241 41.176C229.857 41.176 229.525 41.276 229.245 41.476C228.965 41.668 228.749 41.92 228.597 42.232C228.453 42.536 228.381 42.86 228.381 43.204C228.381 43.54 228.457 43.864 228.609 44.176C228.761 44.48 228.973 44.732 229.245 44.932C229.525 45.132 229.857 45.232 230.241 45.232ZM235.5 46H234.42V40.96C234.42 40.904 234.42 40.84 234.42 40.768C234.42 40.696 234.416 40.58 234.408 40.42H235.44L235.476 41.32C235.564 41.192 235.684 41.052 235.836 40.9C235.996 40.748 236.196 40.616 236.436 40.504C236.676 40.392 236.964 40.336 237.3 40.336C237.42 40.336 237.528 40.344 237.624 40.36C237.728 40.376 237.824 40.4 237.912 40.432L237.672 41.44C237.528 41.384 237.344 41.356 237.12 41.356C236.816 41.356 236.54 41.436 236.292 41.596C236.052 41.748 235.86 41.952 235.716 42.208C235.572 42.464 235.5 42.748 235.5 43.06V46ZM242.039 46H240.959V40.996C240.959 40.924 240.959 40.852 240.959 40.78C240.959 40.7 240.955 40.58 240.947 40.42H241.979L242.015 41.26C242.103 41.124 242.223 40.984 242.375 40.84C242.527 40.688 242.723 40.56 242.963 40.456C243.203 40.344 243.491 40.288 243.827 40.288C244.259 40.288 244.615 40.376 244.895 40.552C245.183 40.72 245.407 40.968 245.567 41.296C245.791 41.032 246.067 40.8 246.395 40.6C246.723 40.392 247.123 40.288 247.595 40.288C248.315 40.288 248.847 40.504 249.191 40.936C249.535 41.36 249.707 41.932 249.707 42.652V46H248.627V42.736C248.627 41.728 248.227 41.224 247.427 41.224C247.131 41.224 246.867 41.304 246.635 41.464C246.403 41.616 246.219 41.82 246.083 42.076C245.947 42.324 245.879 42.6 245.879 42.904V46H244.799V42.736C244.799 42.216 244.695 41.836 244.487 41.596C244.279 41.348 243.987 41.224 243.611 41.224C243.219 41.224 242.907 41.332 242.675 41.548C242.443 41.764 242.279 42.04 242.183 42.376C242.087 42.704 242.039 43.048 242.039 43.408V46ZM253.842 46.168C253.274 46.168 252.766 46.036 252.318 45.772C251.87 45.5 251.518 45.14 251.262 44.692C251.014 44.236 250.89 43.74 250.89 43.204C250.89 42.66 251.014 42.164 251.262 41.716C251.518 41.268 251.87 40.912 252.318 40.648C252.766 40.376 253.274 40.24 253.842 40.24C254.41 40.24 254.914 40.376 255.354 40.648C255.802 40.912 256.154 41.268 256.41 41.716C256.666 42.164 256.794 42.66 256.794 43.204C256.794 43.74 256.666 44.236 256.41 44.692C256.154 45.14 255.802 45.5 255.354 45.772C254.914 46.036 254.41 46.168 253.842 46.168ZM253.842 45.232C254.234 45.232 254.566 45.136 254.838 44.944C255.118 44.744 255.33 44.488 255.474 44.176C255.626 43.864 255.702 43.54 255.702 43.204C255.702 42.868 255.626 42.544 255.474 42.232C255.33 41.92 255.118 41.668 254.838 41.476C254.558 41.276 254.226 41.176 253.842 41.176C253.458 41.176 253.126 41.276 252.846 41.476C252.566 41.668 252.35 41.92 252.198 42.232C252.054 42.536 251.982 42.86 251.982 43.204C251.982 43.54 252.058 43.864 252.21 44.176C252.362 44.48 252.574 44.732 252.846 44.932C253.126 45.132 253.458 45.232 253.842 45.232ZM259.101 46H258.021V40.96C258.021 40.904 258.021 40.84 258.021 40.768C258.021 40.696 258.017 40.58 258.009 40.42H259.041L259.077 41.32C259.165 41.192 259.285 41.052 259.437 40.9C259.597 40.748 259.797 40.616 260.037 40.504C260.277 40.392 260.565 40.336 260.901 40.336C261.021 40.336 261.129 40.344 261.225 40.36C261.329 40.376 261.425 40.4 261.513 40.432L261.273 41.44C261.129 41.384 260.945 41.356 260.721 41.356C260.417 41.356 260.141 41.436 259.893 41.596C259.653 41.748 259.461 41.952 259.317 42.208C259.173 42.464 259.101 42.748 259.101 43.06V46ZM266.564 44.536L267.176 45.184C267.096 45.28 266.952 45.408 266.744 45.568C266.536 45.72 266.264 45.86 265.928 45.988C265.6 46.108 265.2 46.168 264.728 46.168C264.152 46.168 263.644 46.044 263.204 45.796C262.764 45.54 262.42 45.188 262.172 44.74C261.932 44.284 261.812 43.76 261.812 43.168C261.812 42.624 261.928 42.132 262.16 41.692C262.4 41.252 262.728 40.904 263.144 40.648C263.568 40.384 264.052 40.252 264.596 40.252C265.244 40.252 265.768 40.408 266.168 40.72C266.568 41.032 266.86 41.436 267.044 41.932C267.228 42.428 267.32 42.96 267.32 43.528H262.916C262.924 43.856 263.012 44.152 263.18 44.416C263.348 44.672 263.568 44.876 263.84 45.028C264.12 45.172 264.42 45.244 264.74 45.244C265.212 45.244 265.6 45.164 265.904 45.004C266.216 44.844 266.436 44.688 266.564 44.536ZM262.916 42.724H266.204C266.172 42.292 266.02 41.924 265.748 41.62C265.476 41.316 265.092 41.164 264.596 41.164C264.252 41.164 263.956 41.24 263.708 41.392C263.46 41.544 263.268 41.74 263.132 41.98C263.004 42.212 262.932 42.46 262.916 42.724ZM10.72 51.424V50.212H11.932V51.424H10.72ZM10.792 58V52.42H11.872V58H10.792ZM14.4842 58H13.4042V52.996C13.4042 52.924 13.4042 52.852 13.4042 52.78C13.4042 52.7 13.4002 52.58 13.3922 52.42H14.4242L14.4602 53.26C14.5562 53.124 14.6842 52.984 14.8442 52.84C15.0042 52.688 15.2042 52.56 15.4442 52.456C15.6922 52.344 15.9882 52.288 16.3322 52.288C17.0602 52.288 17.6002 52.504 17.9522 52.936C18.3042 53.36 18.4802 53.932 18.4802 54.652V58H17.4002V54.736C17.4002 54.216 17.2842 53.836 17.0522 53.596C16.8282 53.348 16.5162 53.224 16.1162 53.224C15.7082 53.224 15.3842 53.332 15.1442 53.548C14.9042 53.756 14.7322 54.028 14.6282 54.364C14.5322 54.7 14.4842 55.048 14.4842 55.408V58ZM20.3515 58V53.32H19.3435V52.42H20.3515V51.964C20.3515 51.46 20.4435 51.048 20.6275 50.728C20.8115 50.408 21.0515 50.172 21.3475 50.02C21.6435 49.868 21.9595 49.792 22.2955 49.792C22.5915 49.792 22.8795 49.84 23.1595 49.936C23.4475 50.024 23.7115 50.18 23.9515 50.404L23.4115 51.1C23.1155 50.852 22.7995 50.728 22.4635 50.728C22.1515 50.728 21.8995 50.828 21.7075 51.028C21.5235 51.228 21.4315 51.572 21.4315 52.06V52.42H23.0275V53.32H21.4315V58H20.3515ZM26.3461 58.168C25.7781 58.168 25.2701 58.036 24.8221 57.772C24.3741 57.5 24.0221 57.14 23.7661 56.692C23.5181 56.236 23.3941 55.74 23.3941 55.204C23.3941 54.66 23.5181 54.164 23.7661 53.716C24.0221 53.268 24.3741 52.912 24.8221 52.648C25.2701 52.376 25.7781 52.24 26.3461 52.24C26.9141 52.24 27.4181 52.376 27.8581 52.648C28.3061 52.912 28.6581 53.268 28.9141 53.716C29.1701 54.164 29.2981 54.66 29.2981 55.204C29.2981 55.74 29.1701 56.236 28.9141 56.692C28.6581 57.14 28.3061 57.5 27.8581 57.772C27.4181 58.036 26.9141 58.168 26.3461 58.168ZM26.3461 57.232C26.7381 57.232 27.0701 57.136 27.3421 56.944C27.6221 56.744 27.8341 56.488 27.9781 56.176C28.1301 55.864 28.2061 55.54 28.2061 55.204C28.2061 54.868 28.1301 54.544 27.9781 54.232C27.8341 53.92 27.6221 53.668 27.3421 53.476C27.0621 53.276 26.7301 53.176 26.3461 53.176C25.9621 53.176 25.6301 53.276 25.3501 53.476C25.0701 53.668 24.8541 53.92 24.7021 54.232C24.5581 54.536 24.4861 54.86 24.4861 55.204C24.4861 55.54 24.5621 55.864 24.7141 56.176C24.8661 56.48 25.0781 56.732 25.3501 56.932C25.6301 57.132 25.9621 57.232 26.3461 57.232ZM31.6053 58H30.5253V52.96C30.5253 52.904 30.5253 52.84 30.5253 52.768C30.5253 52.696 30.5213 52.58 30.5133 52.42H31.5452L31.5813 53.32C31.6693 53.192 31.7893 53.052 31.9413 52.9C32.1013 52.748 32.3013 52.616 32.5413 52.504C32.7813 52.392 33.0693 52.336 33.4053 52.336C33.5253 52.336 33.6333 52.344 33.7293 52.36C33.8333 52.376 33.9293 52.4 34.0173 52.432L33.7773 53.44C33.6333 53.384 33.4493 53.356 33.2253 53.356C32.9213 53.356 32.6453 53.436 32.3973 53.596C32.1573 53.748 31.9653 53.952 31.8213 54.208C31.6773 54.464 31.6053 54.748 31.6053 55.06V58ZM35.9763 58H34.8963V52.996C34.8963 52.924 34.8963 52.852 34.8963 52.78C34.8963 52.7 34.8923 52.58 34.8843 52.42H35.9163L35.9523 53.26C36.0403 53.124 36.1603 52.984 36.3123 52.84C36.4643 52.688 36.6603 52.56 36.9003 52.456C37.1403 52.344 37.4283 52.288 37.7643 52.288C38.1963 52.288 38.5523 52.376 38.8323 52.552C39.1203 52.72 39.3443 52.968 39.5043 53.296C39.7283 53.032 40.0043 52.8 40.3323 52.6C40.6603 52.392 41.0603 52.288 41.5323 52.288C42.2523 52.288 42.7843 52.504 43.1283 52.936C43.4723 53.36 43.6443 53.932 43.6443 54.652V58H42.5643V54.736C42.5643 53.728 42.1643 53.224 41.3643 53.224C41.0683 53.224 40.8043 53.304 40.5723 53.464C40.3403 53.616 40.1563 53.82 40.0203 54.076C39.8843 54.324 39.8163 54.6 39.8163 54.904V58H38.7363V54.736C38.7363 54.216 38.6323 53.836 38.4243 53.596C38.2163 53.348 37.9243 53.224 37.5483 53.224C37.1563 53.224 36.8443 53.332 36.6123 53.548C36.3803 53.764 36.2163 54.04 36.1203 54.376C36.0243 54.704 35.9763 55.048 35.9763 55.408V58ZM48.6077 58L48.5837 57.328C48.3837 57.6 48.1077 57.808 47.7557 57.952C47.4117 58.088 47.0637 58.156 46.7117 58.156C46.4077 58.156 46.1037 58.1 45.7997 57.988C45.5037 57.876 45.2557 57.692 45.0557 57.436C44.8637 57.18 44.7677 56.84 44.7677 56.416C44.7677 55.816 44.9797 55.336 45.4037 54.976C45.8277 54.616 46.4317 54.436 47.2157 54.436C47.3917 54.436 47.5717 54.444 47.7557 54.46C47.9477 54.468 48.1197 54.48 48.2717 54.496C48.4237 54.504 48.5237 54.512 48.5717 54.52V54.316C48.5717 53.9 48.4437 53.604 48.1877 53.428C47.9397 53.244 47.5997 53.152 47.1677 53.152C46.7517 53.152 46.4157 53.212 46.1597 53.332C45.9117 53.444 45.7037 53.56 45.5357 53.68L45.0317 52.948C45.2317 52.788 45.5077 52.632 45.8597 52.48C46.2117 52.328 46.6877 52.252 47.2877 52.252C47.9997 52.252 48.5637 52.428 48.9797 52.78C49.3957 53.124 49.6037 53.616 49.6037 54.256V57.508C49.6037 57.564 49.6037 57.632 49.6037 57.712C49.6037 57.792 49.6077 57.888 49.6157 58H48.6077ZM48.5717 55.996V55.36C48.5317 55.344 48.4397 55.332 48.2957 55.324C48.1517 55.308 47.9877 55.296 47.8037 55.288C47.6277 55.272 47.4557 55.264 47.2877 55.264C46.8877 55.264 46.5797 55.324 46.3637 55.444C46.1557 55.556 46.0117 55.7 45.9317 55.876C45.8597 56.044 45.8237 56.212 45.8237 56.38C45.8237 56.676 45.9277 56.904 46.1357 57.064C46.3437 57.224 46.6317 57.304 46.9997 57.304C47.2797 57.304 47.5357 57.244 47.7677 57.124C48.0077 56.996 48.1997 56.832 48.3437 56.632C48.4957 56.432 48.5717 56.22 48.5717 55.996ZM51.5599 56.176V53.32H50.5519V52.42H51.5599V50.596H52.6399V52.42H54.2719V53.32H52.6399V56.068C52.6399 56.516 52.7079 56.824 52.8439 56.992C52.9879 57.16 53.1879 57.244 53.4439 57.244C53.6519 57.244 53.8239 57.212 53.9599 57.148C54.1039 57.084 54.2399 56.988 54.3679 56.86L54.8599 57.52C54.6279 57.744 54.3879 57.904 54.1399 58C53.8999 58.104 53.6119 58.156 53.2759 58.156C52.6919 58.156 52.2599 57.996 51.9799 57.676C51.6999 57.348 51.5599 56.848 51.5599 56.176ZM55.6614 51.424V50.212H56.8734V51.424H55.6614ZM55.7334 58V52.42H56.8134V58H55.7334ZM61.0336 58.168C60.4656 58.168 59.9576 58.036 59.5096 57.772C59.0616 57.5 58.7096 57.14 58.4536 56.692C58.2056 56.236 58.0816 55.74 58.0816 55.204C58.0816 54.66 58.2056 54.164 58.4536 53.716C58.7096 53.268 59.0616 52.912 59.5096 52.648C59.9576 52.376 60.4656 52.24 61.0336 52.24C61.6016 52.24 62.1056 52.376 62.5456 52.648C62.9936 52.912 63.3456 53.268 63.6016 53.716C63.8576 54.164 63.9856 54.66 63.9856 55.204C63.9856 55.74 63.8576 56.236 63.6016 56.692C63.3456 57.14 62.9936 57.5 62.5456 57.772C62.1056 58.036 61.6016 58.168 61.0336 58.168ZM61.0336 57.232C61.4256 57.232 61.7576 57.136 62.0296 56.944C62.3096 56.744 62.5216 56.488 62.6656 56.176C62.8176 55.864 62.8936 55.54 62.8936 55.204C62.8936 54.868 62.8176 54.544 62.6656 54.232C62.5216 53.92 62.3096 53.668 62.0296 53.476C61.7496 53.276 61.4176 53.176 61.0336 53.176C60.6496 53.176 60.3176 53.276 60.0376 53.476C59.7576 53.668 59.5416 53.92 59.3896 54.232C59.2456 54.536 59.1736 54.86 59.1736 55.204C59.1736 55.54 59.2496 55.864 59.4016 56.176C59.5536 56.48 59.7656 56.732 60.0376 56.932C60.3176 57.132 60.6496 57.232 61.0336 57.232ZM66.2928 58H65.2128V52.996C65.2128 52.924 65.2128 52.852 65.2128 52.78C65.2128 52.7 65.2088 52.58 65.2008 52.42H66.2327L66.2688 53.26C66.3648 53.124 66.4928 52.984 66.6528 52.84C66.8128 52.688 67.0128 52.56 67.2528 52.456C67.5008 52.344 67.7968 52.288 68.1408 52.288C68.8688 52.288 69.4088 52.504 69.7608 52.936C70.1128 53.36 70.2888 53.932 70.2888 54.652V58H69.2088V54.736C69.2088 54.216 69.0928 53.836 68.8608 53.596C68.6368 53.348 68.3248 53.224 67.9248 53.224C67.5168 53.224 67.1928 53.332 66.9528 53.548C66.7128 53.756 66.5408 54.028 66.4368 54.364C66.3408 54.7 66.2928 55.048 66.2928 55.408V58ZM75.6361 58L73.2361 52.42H74.4721L76.2121 56.776L77.9401 52.42H79.1041L76.7161 58H75.6361ZM79.9075 51.424V50.212H81.1195V51.424H79.9075ZM79.9795 58V52.42H81.0595V58H79.9795ZM82.2917 57.316L82.9517 56.596C83.1517 56.796 83.3917 56.956 83.6717 57.076C83.9517 57.196 84.2757 57.256 84.6437 57.256C85.0037 57.256 85.3037 57.2 85.5437 57.088C85.7837 56.968 85.9037 56.784 85.9037 56.536C85.9037 56.36 85.8557 56.22 85.7597 56.116C85.6637 56.012 85.4997 55.92 85.2677 55.84C85.0357 55.752 84.7157 55.66 84.3077 55.564C84.0197 55.492 83.7397 55.396 83.4677 55.276C83.1957 55.148 82.9717 54.976 82.7957 54.76C82.6197 54.536 82.5317 54.248 82.5317 53.896C82.5317 53.536 82.6357 53.232 82.8437 52.984C83.0597 52.736 83.3357 52.552 83.6717 52.432C84.0077 52.304 84.3597 52.24 84.7277 52.24C85.1997 52.24 85.6077 52.304 85.9517 52.432C86.2957 52.552 86.5917 52.724 86.8397 52.948L86.2517 53.692C86.0837 53.54 85.8717 53.412 85.6157 53.308C85.3677 53.204 85.0757 53.152 84.7397 53.152C84.3957 53.152 84.1197 53.208 83.9117 53.32C83.7037 53.432 83.5997 53.616 83.5997 53.872C83.5997 54.112 83.7397 54.292 84.0197 54.412C84.2997 54.524 84.6597 54.632 85.0997 54.736C85.4517 54.816 85.7677 54.924 86.0477 55.06C86.3357 55.188 86.5637 55.364 86.7317 55.588C86.9077 55.812 86.9957 56.104 86.9957 56.464C86.9957 56.832 86.8837 57.144 86.6597 57.4C86.4437 57.648 86.1597 57.84 85.8077 57.976C85.4557 58.104 85.0757 58.168 84.6677 58.168C83.6117 58.168 82.8197 57.884 82.2917 57.316ZM88.2278 51.424V50.212H89.4398V51.424H88.2278ZM88.2998 58V52.42H89.3798V58H88.2998ZM91.392 56.176V53.32H90.384V52.42H91.392V50.596H92.472V52.42H94.104V53.32H92.472V56.068C92.472 56.516 92.54 56.824 92.676 56.992C92.82 57.16 93.02 57.244 93.276 57.244C93.484 57.244 93.656 57.212 93.792 57.148C93.936 57.084 94.072 56.988 94.2 56.86L94.692 57.52C94.46 57.744 94.22 57.904 93.972 58C93.732 58.104 93.444 58.156 93.108 58.156C92.524 58.156 92.092 57.996 91.812 57.676C91.532 57.348 91.392 56.848 91.392 56.176ZM97.6734 58V49.996H98.7414V53.248C98.8374 53.112 98.9614 52.972 99.1134 52.828C99.2734 52.676 99.4734 52.548 99.7134 52.444C99.9614 52.34 100.257 52.288 100.601 52.288C101.329 52.288 101.869 52.504 102.221 52.936C102.573 53.36 102.749 53.932 102.749 54.652V58H101.669V54.736C101.669 54.216 101.553 53.836 101.321 53.596C101.097 53.348 100.785 53.224 100.385 53.224C99.9774 53.224 99.6534 53.332 99.4134 53.548C99.1734 53.756 99.0014 54.028 98.8974 54.364C98.8014 54.7 98.7534 55.048 98.7534 55.408V58H97.6734ZM106.889 58.168C106.321 58.168 105.813 58.036 105.365 57.772C104.917 57.5 104.565 57.14 104.309 56.692C104.061 56.236 103.937 55.74 103.937 55.204C103.937 54.66 104.061 54.164 104.309 53.716C104.565 53.268 104.917 52.912 105.365 52.648C105.813 52.376 106.321 52.24 106.889 52.24C107.457 52.24 107.961 52.376 108.401 52.648C108.849 52.912 109.201 53.268 109.457 53.716C109.713 54.164 109.841 54.66 109.841 55.204C109.841 55.74 109.713 56.236 109.457 56.692C109.201 57.14 108.849 57.5 108.401 57.772C107.961 58.036 107.457 58.168 106.889 58.168ZM106.889 57.232C107.281 57.232 107.613 57.136 107.885 56.944C108.165 56.744 108.377 56.488 108.521 56.176C108.673 55.864 108.749 55.54 108.749 55.204C108.749 54.868 108.673 54.544 108.521 54.232C108.377 53.92 108.165 53.668 107.885 53.476C107.605 53.276 107.273 53.176 106.889 53.176C106.505 53.176 106.173 53.276 105.893 53.476C105.613 53.668 105.397 53.92 105.245 54.232C105.101 54.536 105.029 54.86 105.029 55.204C105.029 55.54 105.105 55.864 105.257 56.176C105.409 56.48 105.621 56.732 105.893 56.932C106.173 57.132 106.505 57.232 106.889 57.232ZM110.768 57.316L111.428 56.596C111.628 56.796 111.868 56.956 112.148 57.076C112.428 57.196 112.752 57.256 113.12 57.256C113.48 57.256 113.78 57.2 114.02 57.088C114.26 56.968 114.38 56.784 114.38 56.536C114.38 56.36 114.332 56.22 114.236 56.116C114.14 56.012 113.976 55.92 113.744 55.84C113.512 55.752 113.192 55.66 112.784 55.564C112.496 55.492 112.216 55.396 111.944 55.276C111.672 55.148 111.448 54.976 111.272 54.76C111.096 54.536 111.008 54.248 111.008 53.896C111.008 53.536 111.112 53.232 111.32 52.984C111.536 52.736 111.812 52.552 112.148 52.432C112.484 52.304 112.836 52.24 113.204 52.24C113.676 52.24 114.084 52.304 114.428 52.432C114.772 52.552 115.068 52.724 115.316 52.948L114.728 53.692C114.56 53.54 114.348 53.412 114.092 53.308C113.844 53.204 113.552 53.152 113.216 53.152C112.872 53.152 112.596 53.208 112.388 53.32C112.18 53.432 112.076 53.616 112.076 53.872C112.076 54.112 112.216 54.292 112.496 54.412C112.776 54.524 113.136 54.632 113.576 54.736C113.928 54.816 114.244 54.924 114.524 55.06C114.812 55.188 115.04 55.364 115.208 55.588C115.384 55.812 115.472 56.104 115.472 56.464C115.472 56.832 115.36 57.144 115.136 57.4C114.92 57.648 114.636 57.84 114.284 57.976C113.932 58.104 113.552 58.168 113.144 58.168C112.088 58.168 111.296 57.884 110.768 57.316ZM117.208 56.176V53.32H116.2V52.42H117.208V50.596H118.288V52.42H119.92V53.32H118.288V56.068C118.288 56.516 118.356 56.824 118.492 56.992C118.636 57.16 118.836 57.244 119.092 57.244C119.3 57.244 119.472 57.212 119.608 57.148C119.752 57.084 119.888 56.988 120.016 56.86L120.508 57.52C120.276 57.744 120.036 57.904 119.788 58C119.548 58.104 119.26 58.156 118.924 58.156C118.34 58.156 117.908 57.996 117.628 57.676C117.348 57.348 117.208 56.848 117.208 56.176ZM122.402 60.4H121.334V52.996C121.334 52.924 121.334 52.852 121.334 52.78C121.334 52.7 121.33 52.58 121.322 52.42H122.354L122.39 53.212C122.47 53.108 122.586 52.988 122.738 52.852C122.898 52.708 123.106 52.58 123.362 52.468C123.618 52.356 123.926 52.3 124.286 52.3C124.862 52.3 125.334 52.436 125.702 52.708C126.078 52.98 126.354 53.34 126.53 53.788C126.714 54.236 126.806 54.72 126.806 55.24C126.806 55.744 126.718 56.184 126.542 56.56C126.374 56.928 126.15 57.232 125.87 57.472C125.59 57.704 125.282 57.88 124.946 58C124.61 58.112 124.278 58.168 123.95 58.168C123.574 58.168 123.274 58.128 123.05 58.048C122.826 57.976 122.61 57.896 122.402 57.808V60.4ZM122.402 55.36V56.788C122.53 56.892 122.714 56.992 122.954 57.088C123.194 57.184 123.494 57.232 123.854 57.232C124.222 57.232 124.542 57.148 124.814 56.98C125.094 56.804 125.31 56.564 125.462 56.26C125.622 55.956 125.702 55.616 125.702 55.24C125.702 54.88 125.646 54.548 125.534 54.244C125.43 53.94 125.258 53.696 125.018 53.512C124.778 53.328 124.454 53.236 124.046 53.236C123.67 53.236 123.342 53.344 123.062 53.56C122.79 53.776 122.598 54.084 122.486 54.484C122.454 54.612 122.43 54.752 122.414 54.904C122.406 55.048 122.402 55.2 122.402 55.36ZM128.013 58V49.996H129.093V58H128.013ZM130.532 55.768V52.42H131.612V55.696C131.612 56.216 131.72 56.596 131.936 56.836C132.152 57.076 132.464 57.196 132.872 57.196C133.288 57.196 133.612 57.088 133.844 56.872C134.076 56.656 134.24 56.384 134.336 56.056C134.44 55.72 134.492 55.372 134.492 55.012V52.42H135.572V57.436C135.572 57.468 135.572 57.544 135.572 57.664C135.572 57.776 135.576 57.888 135.584 58H134.552L134.516 57.172C134.428 57.3 134.304 57.44 134.144 57.592C133.984 57.736 133.78 57.86 133.532 57.964C133.292 58.068 133 58.12 132.656 58.12C131.928 58.12 131.392 57.908 131.048 57.484C130.704 57.06 130.532 56.488 130.532 55.768ZM136.772 57.316L137.432 56.596C137.632 56.796 137.872 56.956 138.152 57.076C138.432 57.196 138.756 57.256 139.124 57.256C139.484 57.256 139.784 57.2 140.024 57.088C140.264 56.968 140.384 56.784 140.384 56.536C140.384 56.36 140.336 56.22 140.24 56.116C140.144 56.012 139.98 55.92 139.748 55.84C139.516 55.752 139.196 55.66 138.788 55.564C138.5 55.492 138.22 55.396 137.948 55.276C137.676 55.148 137.452 54.976 137.276 54.76C137.1 54.536 137.012 54.248 137.012 53.896C137.012 53.536 137.116 53.232 137.324 52.984C137.54 52.736 137.816 52.552 138.152 52.432C138.488 52.304 138.84 52.24 139.208 52.24C139.68 52.24 140.088 52.304 140.432 52.432C140.776 52.552 141.072 52.724 141.32 52.948L140.732 53.692C140.564 53.54 140.352 53.412 140.096 53.308C139.848 53.204 139.556 53.152 139.22 53.152C138.876 53.152 138.6 53.208 138.392 53.32C138.184 53.432 138.08 53.616 138.08 53.872C138.08 54.112 138.22 54.292 138.5 54.412C138.78 54.524 139.14 54.632 139.58 54.736C139.932 54.816 140.248 54.924 140.528 55.06C140.816 55.188 141.044 55.364 141.212 55.588C141.388 55.812 141.476 56.104 141.476 56.464C141.476 56.832 141.364 57.144 141.14 57.4C140.924 57.648 140.64 57.84 140.288 57.976C139.936 58.104 139.556 58.168 139.148 58.168C138.092 58.168 137.3 57.884 136.772 57.316ZM142.536 58V56.656H143.892V58H142.536ZM149.252 56.536L149.912 57.232C149.664 57.512 149.356 57.74 148.988 57.916C148.62 58.084 148.2 58.168 147.728 58.168C147.128 58.168 146.608 58.04 146.168 57.784C145.736 57.528 145.4 57.18 145.16 56.74C144.92 56.292 144.8 55.78 144.8 55.204C144.8 54.66 144.924 54.164 145.172 53.716C145.42 53.268 145.764 52.912 146.204 52.648C146.652 52.376 147.16 52.24 147.728 52.24C148.2 52.24 148.616 52.324 148.976 52.492C149.336 52.66 149.644 52.888 149.9 53.176L149.192 53.86C149.024 53.652 148.82 53.488 148.58 53.368C148.34 53.248 148.056 53.188 147.728 53.188C147.344 53.188 147.012 53.284 146.732 53.476C146.46 53.66 146.252 53.904 146.108 54.208C145.964 54.512 145.892 54.844 145.892 55.204C145.892 55.548 145.964 55.876 146.108 56.188C146.26 56.492 146.472 56.74 146.744 56.932C147.016 57.124 147.344 57.22 147.728 57.22C148.056 57.22 148.348 57.16 148.604 57.04C148.868 56.912 149.084 56.744 149.252 56.536ZM153.33 58.168C152.762 58.168 152.254 58.036 151.806 57.772C151.358 57.5 151.006 57.14 150.75 56.692C150.502 56.236 150.378 55.74 150.378 55.204C150.378 54.66 150.502 54.164 150.75 53.716C151.006 53.268 151.358 52.912 151.806 52.648C152.254 52.376 152.762 52.24 153.33 52.24C153.898 52.24 154.402 52.376 154.842 52.648C155.29 52.912 155.642 53.268 155.898 53.716C156.154 54.164 156.282 54.66 156.282 55.204C156.282 55.74 156.154 56.236 155.898 56.692C155.642 57.14 155.29 57.5 154.842 57.772C154.402 58.036 153.898 58.168 153.33 58.168ZM153.33 57.232C153.722 57.232 154.054 57.136 154.326 56.944C154.606 56.744 154.818 56.488 154.962 56.176C155.114 55.864 155.19 55.54 155.19 55.204C155.19 54.868 155.114 54.544 154.962 54.232C154.818 53.92 154.606 53.668 154.326 53.476C154.046 53.276 153.714 53.176 153.33 53.176C152.946 53.176 152.614 53.276 152.334 53.476C152.054 53.668 151.838 53.92 151.686 54.232C151.542 54.536 151.47 54.86 151.47 55.204C151.47 55.54 151.546 55.864 151.698 56.176C151.85 56.48 152.062 56.732 152.334 56.932C152.614 57.132 152.946 57.232 153.33 57.232ZM158.59 58H157.51V52.996C157.51 52.924 157.51 52.852 157.51 52.78C157.51 52.7 157.506 52.58 157.498 52.42H158.53L158.566 53.26C158.654 53.124 158.774 52.984 158.926 52.84C159.078 52.688 159.274 52.56 159.514 52.456C159.754 52.344 160.042 52.288 160.378 52.288C160.81 52.288 161.166 52.376 161.446 52.552C161.734 52.72 161.958 52.968 162.118 53.296C162.342 53.032 162.618 52.8 162.946 52.6C163.274 52.392 163.674 52.288 164.146 52.288C164.866 52.288 165.398 52.504 165.742 52.936C166.086 53.36 166.258 53.932 166.258 54.652V58H165.178V54.736C165.178 53.728 164.778 53.224 163.978 53.224C163.682 53.224 163.418 53.304 163.186 53.464C162.954 53.616 162.77 53.82 162.634 54.076C162.498 54.324 162.43 54.6 162.43 54.904V58H161.35V54.736C161.35 54.216 161.246 53.836 161.038 53.596C160.83 53.348 160.538 53.224 160.162 53.224C159.77 53.224 159.458 53.332 159.226 53.548C158.994 53.764 158.83 54.04 158.734 54.376C158.638 54.704 158.59 55.048 158.59 55.408V58ZM167.813 58V56.656H169.169V58H167.813ZM174.28 58L174.256 57.328C174.056 57.6 173.78 57.808 173.428 57.952C173.084 58.088 172.736 58.156 172.384 58.156C172.08 58.156 171.776 58.1 171.472 57.988C171.176 57.876 170.928 57.692 170.728 57.436C170.536 57.18 170.44 56.84 170.44 56.416C170.44 55.816 170.652 55.336 171.076 54.976C171.5 54.616 172.104 54.436 172.888 54.436C173.064 54.436 173.244 54.444 173.428 54.46C173.62 54.468 173.792 54.48 173.944 54.496C174.096 54.504 174.196 54.512 174.244 54.52V54.316C174.244 53.9 174.116 53.604 173.86 53.428C173.612 53.244 173.272 53.152 172.84 53.152C172.424 53.152 172.088 53.212 171.832 53.332C171.584 53.444 171.376 53.56 171.208 53.68L170.704 52.948C170.904 52.788 171.18 52.632 171.532 52.48C171.884 52.328 172.36 52.252 172.96 52.252C173.672 52.252 174.236 52.428 174.652 52.78C175.068 53.124 175.276 53.616 175.276 54.256V57.508C175.276 57.564 175.276 57.632 175.276 57.712C175.276 57.792 175.28 57.888 175.288 58H174.28ZM174.244 55.996V55.36C174.204 55.344 174.112 55.332 173.968 55.324C173.824 55.308 173.66 55.296 173.476 55.288C173.3 55.272 173.128 55.264 172.96 55.264C172.56 55.264 172.252 55.324 172.036 55.444C171.828 55.556 171.684 55.7 171.604 55.876C171.532 56.044 171.496 56.212 171.496 56.38C171.496 56.676 171.6 56.904 171.808 57.064C172.016 57.224 172.304 57.304 172.672 57.304C172.952 57.304 173.208 57.244 173.44 57.124C173.68 56.996 173.872 56.832 174.016 56.632C174.168 56.432 174.244 56.22 174.244 55.996ZM176.716 55.768V52.42H177.796V55.696C177.796 56.216 177.904 56.596 178.12 56.836C178.336 57.076 178.648 57.196 179.056 57.196C179.472 57.196 179.796 57.088 180.028 56.872C180.26 56.656 180.424 56.384 180.52 56.056C180.624 55.72 180.676 55.372 180.676 55.012V52.42H181.756V57.436C181.756 57.468 181.756 57.544 181.756 57.664C181.756 57.776 181.76 57.888 181.768 58H180.736L180.7 57.172C180.612 57.3 180.488 57.44 180.328 57.592C180.168 57.736 179.964 57.86 179.716 57.964C179.476 58.068 179.184 58.12 178.84 58.12C178.112 58.12 177.576 57.908 177.232 57.484C176.888 57.06 176.716 56.488 176.716 55.768ZM182.812 58.192L186.004 49.78H187.072L183.904 58.192H182.812ZM190.569 58L190.545 57.328C190.345 57.6 190.069 57.808 189.717 57.952C189.373 58.088 189.025 58.156 188.673 58.156C188.369 58.156 188.065 58.1 187.761 57.988C187.465 57.876 187.217 57.692 187.017 57.436C186.825 57.18 186.729 56.84 186.729 56.416C186.729 55.816 186.941 55.336 187.365 54.976C187.789 54.616 188.393 54.436 189.177 54.436C189.353 54.436 189.533 54.444 189.717 54.46C189.909 54.468 190.081 54.48 190.233 54.496C190.385 54.504 190.485 54.512 190.533 54.52V54.316C190.533 53.9 190.405 53.604 190.149 53.428C189.901 53.244 189.561 53.152 189.129 53.152C188.713 53.152 188.377 53.212 188.121 53.332C187.873 53.444 187.665 53.56 187.497 53.68L186.993 52.948C187.193 52.788 187.469 52.632 187.821 52.48C188.173 52.328 188.649 52.252 189.249 52.252C189.961 52.252 190.525 52.428 190.941 52.78C191.357 53.124 191.565 53.616 191.565 54.256V57.508C191.565 57.564 191.565 57.632 191.565 57.712C191.565 57.792 191.569 57.888 191.577 58H190.569ZM190.533 55.996V55.36C190.493 55.344 190.401 55.332 190.257 55.324C190.113 55.308 189.949 55.296 189.765 55.288C189.589 55.272 189.417 55.264 189.249 55.264C188.849 55.264 188.541 55.324 188.325 55.444C188.117 55.556 187.973 55.7 187.893 55.876C187.821 56.044 187.785 56.212 187.785 56.38C187.785 56.676 187.889 56.904 188.097 57.064C188.305 57.224 188.593 57.304 188.961 57.304C189.241 57.304 189.497 57.244 189.729 57.124C189.969 56.996 190.161 56.832 190.305 56.632C190.457 56.432 190.533 56.22 190.533 55.996ZM197.097 58L197.061 57.292C197.005 57.356 196.901 57.46 196.749 57.604C196.605 57.748 196.409 57.88 196.161 58C195.913 58.112 195.609 58.168 195.249 58.168C194.777 58.168 194.353 58.052 193.977 57.82C193.601 57.58 193.305 57.244 193.089 56.812C192.873 56.38 192.765 55.872 192.765 55.288C192.765 54.76 192.853 54.308 193.029 53.932C193.213 53.548 193.449 53.236 193.737 52.996C194.025 52.756 194.333 52.58 194.661 52.468C194.997 52.348 195.313 52.288 195.609 52.288C195.913 52.288 196.173 52.32 196.389 52.384C196.613 52.448 196.837 52.536 197.061 52.648V49.996H198.141V57.436C198.141 57.468 198.141 57.544 198.141 57.664C198.141 57.776 198.145 57.888 198.153 58H197.097ZM197.061 55.648V53.656C196.917 53.536 196.733 53.436 196.509 53.356C196.285 53.276 196.013 53.236 195.693 53.236C195.173 53.236 194.737 53.42 194.385 53.788C194.041 54.156 193.869 54.66 193.869 55.3C193.869 55.652 193.925 55.976 194.037 56.272C194.157 56.568 194.337 56.804 194.577 56.98C194.817 57.148 195.121 57.232 195.489 57.232C195.865 57.232 196.165 57.148 196.389 56.98C196.621 56.804 196.789 56.592 196.893 56.344C197.005 56.096 197.061 55.864 197.061 55.648ZM201.367 58L198.967 52.42H200.203L201.943 56.776L203.671 52.42H204.835L202.447 58H201.367ZM205.638 51.424V50.212H206.85V51.424H205.638ZM205.71 58V52.42H206.79V58H205.71ZM212.51 56.536L213.17 57.232C212.922 57.512 212.614 57.74 212.246 57.916C211.878 58.084 211.458 58.168 210.986 58.168C210.386 58.168 209.866 58.04 209.426 57.784C208.994 57.528 208.658 57.18 208.418 56.74C208.178 56.292 208.058 55.78 208.058 55.204C208.058 54.66 208.182 54.164 208.43 53.716C208.678 53.268 209.022 52.912 209.462 52.648C209.91 52.376 210.418 52.24 210.986 52.24C211.458 52.24 211.874 52.324 212.234 52.492C212.594 52.66 212.902 52.888 213.158 53.176L212.45 53.86C212.282 53.652 212.078 53.488 211.838 53.368C211.598 53.248 211.314 53.188 210.986 53.188C210.602 53.188 210.27 53.284 209.99 53.476C209.718 53.66 209.51 53.904 209.366 54.208C209.222 54.512 209.15 54.844 209.15 55.204C209.15 55.548 209.222 55.876 209.366 56.188C209.518 56.492 209.73 56.74 210.002 56.932C210.274 57.124 210.602 57.22 210.986 57.22C211.314 57.22 211.606 57.16 211.862 57.04C212.126 56.912 212.342 56.744 212.51 56.536ZM218.376 56.536L218.988 57.184C218.908 57.28 218.764 57.408 218.556 57.568C218.348 57.72 218.076 57.86 217.74 57.988C217.412 58.108 217.012 58.168 216.54 58.168C215.964 58.168 215.456 58.044 215.016 57.796C214.576 57.54 214.232 57.188 213.984 56.74C213.744 56.284 213.624 55.76 213.624 55.168C213.624 54.624 213.74 54.132 213.972 53.692C214.212 53.252 214.54 52.904 214.956 52.648C215.38 52.384 215.864 52.252 216.408 52.252C217.056 52.252 217.58 52.408 217.98 52.72C218.38 53.032 218.672 53.436 218.856 53.932C219.04 54.428 219.132 54.96 219.132 55.528H214.728C214.736 55.856 214.824 56.152 214.992 56.416C215.16 56.672 215.38 56.876 215.652 57.028C215.932 57.172 216.232 57.244 216.552 57.244C217.024 57.244 217.412 57.164 217.716 57.004C218.028 56.844 218.248 56.688 218.376 56.536ZM214.728 54.724H218.016C217.984 54.292 217.832 53.924 217.56 53.62C217.288 53.316 216.904 53.164 216.408 53.164C216.064 53.164 215.768 53.24 215.52 53.392C215.272 53.544 215.08 53.74 214.944 53.98C214.816 54.212 214.744 54.46 214.728 54.724ZM220.442 58V56.656H221.798V58H220.442Z" fill="#99A9BB"/>
</svg>
