<svg width="29" height="29" viewBox="0 0 29 29" xmlns="http://www.w3.org/2000/svg" xmlns:xlink="http://www.w3.org/1999/xlink" fill="none" overflow="hidden"><path d="M27.8457 14.4229C27.8457 7.00968 21.836 1.00004 14.4229 1 7.00965 1 1 7.00965 1 14.4229 1.00004 21.836 7.00968 27.8457 14.4229 27.8457 21.836 27.8457 27.8457 21.836 27.8457 14.4229ZM28.8457 14.4229C28.8457 22.3883 22.3883 28.8457 14.4229 28.8457 6.45739 28.8457 3.71091e-05 22.3883 0 14.4229 0 6.45737 6.45737 0 14.4229 0 22.3883 3.71115e-05 28.8457 6.45739 28.8457 14.4229Z" fill="#00A3AD"/><path d="M20.4168 7.80658 8.4268 7.80658C7.16992 7.80658 6.15283 8.82366 6.15283 10.0806L6.15283 18.763C6.15283 20.0199 7.16992 21.037 8.4268 21.037L20.4168 21.037C21.6737 21.037 22.6908 20.0199 22.6908 18.763L22.6908 10.0806C22.6908 8.82366 21.6737 7.80658 20.4168 7.80658ZM20.268 9.04693 14.7939 13.3633C14.5789 13.5287 14.273 13.5287 14.0497 13.3633L8.57564 9.04693 20.2763 9.04693 20.268 9.04693ZM21.4505 18.763C21.4505 19.3335 20.9874 19.7966 20.4168 19.7966L8.4268 19.7966C7.85624 19.7966 7.39318 19.3335 7.39318 18.763L7.39318 10.0806C7.39318 9.96478 7.42626 9.86556 7.45933 9.75806L13.3055 14.3556C13.6363 14.6037 14.0332 14.7277 14.4218 14.7277 14.8105 14.7277 15.2074 14.6037 15.5381 14.3556L21.3843 9.75806C21.4174 9.85729 21.4505 9.96478 21.4505 10.0806L21.4505 18.763Z" fill="#00A3AD"/></svg>