<svg width="30" height="20" viewBox="0 0 30 20" xmlns="http://www.w3.org/2000/svg" xmlns:xlink="http://www.w3.org/1999/xlink" fill="none" overflow="hidden"><path d="M1.65424 3.30761C1.65424 2.39424 2.39467 1.65381 3.30803 1.65381L26.4612 1.65381C27.3746 1.65381 28.115 2.39424 28.115 3.30761L28.115 16.538C28.115 17.4514 27.3746 18.1918 26.4612 18.1918L3.30803 18.1918C2.39467 18.1918 1.65424 17.4514 1.65424 16.538L1.65424 3.30761Z" fill="#FFFFFF"/><path d="M26.4612 2.48071 3.30803 2.48071C2.85135 2.48071 2.48113 2.85093 2.48113 3.30761L2.48113 16.538C2.48113 16.9947 2.85135 17.3649 3.30803 17.3649L26.4612 17.3649C26.9179 17.3649 27.2881 16.9947 27.2881 16.538L27.2881 3.30761C27.2881 2.85093 26.9179 2.48071 26.4612 2.48071ZM3.30803 1.65381C2.39467 1.65381 1.65424 2.39424 1.65424 3.30761L1.65424 16.538C1.65424 17.4514 2.39467 18.1918 3.30803 18.1918L26.4612 18.1918C27.3746 18.1918 28.115 17.4514 28.115 16.538L28.115 3.30761C28.115 2.39424 27.3746 1.65381 26.4612 1.65381L3.30803 1.65381Z" fill="#D9E4E9" fill-rule="evenodd" clip-rule="evenodd"/><path d="M18.0563 4.1344 11.7123 4.1344C11.0186 4.13499 10.3535 4.41077 9.86296 4.9012 9.37244 5.39162 9.09659 6.05661 9.09601 6.75017L9.09601 13.0953C9.09601 13.7889 9.37161 14.4543 9.86229 14.9449 10.353 15.4354 11.0184 15.711 11.7123 15.711L18.0563 15.711C18.7502 15.711 19.4156 15.4354 19.9063 14.9449 20.397 14.4543 20.6726 13.7889 20.6726 13.0953L20.6726 6.75243C20.6729 6.40873 20.6054 6.06834 20.474 5.75072 20.3427 5.4331 20.1501 5.14447 19.9071 4.90134 19.6641 4.6582 19.3756 4.46532 19.0581 4.33373 18.7405 4.20213 18.4001 4.1344 18.0563 4.1344Z" fill="#FFFFFF"/><path d="M18.0563 4.1344 11.7123 4.1344C11.0186 4.13499 10.3535 4.41077 9.86296 4.9012 9.37244 5.39162 9.09659 6.05661 9.09601 6.75017L9.09601 13.0953C9.09601 13.7889 9.37161 14.4543 9.86229 14.9449 10.353 15.4354 11.0184 15.711 11.7123 15.711L18.0563 15.711C18.7502 15.711 19.4156 15.4354 19.9063 14.9449 20.397 14.4543 20.6726 13.7889 20.6726 13.0953L20.6726 6.75243C20.6729 6.40873 20.6054 6.06834 20.474 5.75072 20.3427 5.4331 20.1501 5.14447 19.9071 4.90134 19.6641 4.6582 19.3756 4.46532 19.0581 4.33373 18.7405 4.20213 18.4001 4.1344 18.0563 4.1344ZM15.8257 12.7746C15.5331 12.7787 15.2426 12.7247 14.971 12.6156 14.6996 12.5066 14.4524 12.3447 14.244 12.1393 14.0357 11.9339 13.8702 11.6892 13.7572 11.4193 13.6443 11.1494 13.5861 10.8597 13.5861 10.5672 13.5861 10.2746 13.6443 9.98496 13.7572 9.71506 13.8702 9.44516 14.0357 9.20039 14.244 8.99499 14.4524 8.78967 14.6996 8.62768 14.971 8.51862 15.2426 8.40963 15.5331 8.35555 15.8257 8.35977L18.3166 8.35977 18.3166 7.67381 19.5972 8.73948 18.3144 9.80659 18.3144 9.10613 15.7937 9.10613C15.0219 9.10613 14.3836 9.79576 14.3836 10.5669 14.3752 10.7615 14.4062 10.9558 14.4749 11.1381 14.5435 11.3204 14.6484 11.4869 14.7832 11.6276 14.9179 11.7682 15.0798 11.8802 15.2589 11.9567 15.4381 12.0332 15.6309 12.0726 15.8257 12.0726 16.0205 12.0726 16.2133 12.0332 16.3925 11.9567 16.5717 11.8802 16.7335 11.7682 16.8683 11.6276 17.003 11.4869 17.1078 11.3204 17.1765 11.1381 17.2452 10.9558 17.2763 10.7615 17.2678 10.5669 17.2636 10.2381 17.1653 9.91723 16.9845 9.64237L17.8308 9.64237C17.9642 9.93236 18.0335 10.2477 18.0338 10.5669 18.0363 10.8576 17.9809 11.1458 17.8708 11.4147 17.7607 11.6837 17.5982 11.9281 17.3927 12.1336 17.1871 12.3391 16.9427 12.5016 16.6737 12.6117 16.4046 12.7217 16.1164 12.7771 15.8257 12.7746ZM12.7583 12.0079C12.935 11.9991 13.1094 11.9656 13.2766 11.9082L13.2766 12.6668C13.1117 12.7333 12.9362 12.7701 12.7583 12.7755 12.3929 12.7725 12.0436 12.6247 11.7869 12.3646 11.5302 12.1045 11.3873 11.7531 11.3893 11.3877L11.3893 9.10613 10.5264 9.10613 10.5264 8.35977 11.3902 8.35977 11.3902 7.41268 12.1395 7.41268 12.1395 8.35977 14.1842 8.35977C13.8924 8.55988 13.6408 8.81307 13.4426 9.10613L12.1395 9.10613 12.1395 11.3869C12.1405 11.5509 12.2061 11.708 12.3222 11.824 12.4382 11.9401 12.5952 12.0058 12.7593 12.007L12.7583 12.0079Z" fill="#231F20"/></svg>