<?xml version="1.0" encoding="utf-8"?>
<!-- Generator: Adobe Illustrator 27.7.0, SVG Export Plug-In . SVG Version: 6.00 Build 0)  -->
<svg version="1.1" id="Layer_1" xmlns="http://www.w3.org/2000/svg" xmlns:xlink="http://www.w3.org/1999/xlink" x="0px" y="0px"
	 viewBox="0 0 173.7 19.7" style="enable-background:new 0 0 173.7 19.7;" xml:space="preserve">
<style type="text/css">
	.st0{fill:#FFFFFF;}
</style>
<path class="st0" d="M0,19.3V0.6h4.5L11.7,11V0.6h4.9v18.7h-4.3L4.9,8.6v10.7H0z M19.6,19.3V0.6H33v4.3h-8.5v2.9h7v4h-7V15h9.1v4.3
	H19.6z M36,19.3V0.6h13.4v4.3h-8.5v2.9h7v4h-7V15H50v4.3H36z M52.3,19.3V0.6h7.2c1.9,0,3.6,0.3,5.1,1c1.5,0.7,2.7,1.7,3.5,3.1
	c0.9,1.4,1.3,3.2,1.3,5.3s-0.4,3.8-1.3,5.2s-2.1,2.4-3.6,3.1c-1.5,0.7-3.2,1-5.1,1H52.3z M57.2,14.9h2c1.6,0,2.9-0.5,3.8-1.4
	s1.3-2.1,1.3-3.6c0-1.4-0.4-2.6-1.2-3.6c-0.8-0.9-2.1-1.4-3.9-1.4h-2V14.9z M75,19.3l6.9-18.7h5.7l6.6,18.7h-5.3l-1.2-3.9h-6.2
	l-1.4,3.9H75z M82.4,11.8h4.2l-2.1-6.9L82.4,11.8z M95.7,19.3V0.6h7.2c1.9,0,3.6,0.3,5.1,1s2.7,1.7,3.6,3.1s1.3,3.2,1.3,5.3
	s-0.4,3.8-1.3,5.2s-2.1,2.4-3.6,3.1s-3.2,1-5.1,1H95.7z M100.7,14.9h2c1.6,0,2.9-0.5,3.8-1.4s1.3-2.1,1.3-3.6s-0.4-2.7-1.2-3.6
	c-0.8-0.9-2.1-1.4-3.9-1.4h-2C100.7,4.9,100.7,14.9,100.7,14.9z M119.3,19.3l-6.8-18.7h5.4l4.2,13l3.9-13h5.3l-6.7,18.7H119.3z
	 M132.9,19.3V0.6h5v18.7H132.9z M154.9,12.7l3.3,3.1c-2.1,2.6-4.9,3.9-8.3,3.9c-1.9,0-3.6-0.4-5.1-1.3c-1.5-0.8-2.6-2-3.4-3.4
	c-0.8-1.5-1.2-3.2-1.2-5.1s0.4-3.6,1.2-5.1s2-2.7,3.4-3.5c1.5-0.9,3.1-1.3,5.1-1.3c1.6,0,3.1,0.3,4.5,0.8s2.6,1.5,3.5,2.8l-3.3,3.3
	c-0.5-0.7-1.1-1.3-1.9-1.7c-0.7-0.4-1.6-0.6-2.5-0.6c-1,0-1.9,0.2-2.7,0.7c-0.7,0.4-1.3,1.1-1.7,1.8c-0.4,0.8-0.6,1.6-0.6,2.6
	s0.2,1.9,0.6,2.7c0.4,0.8,1,1.4,1.7,1.8c0.7,0.4,1.6,0.7,2.6,0.7c1.1,0,2-0.2,2.7-0.6S154.2,13.5,154.9,12.7z M159.7,19.3V0.6h13.4
	v4.3h-8.5v2.9h7v4h-7V15h9.1v4.3H159.7z"/>
</svg>
