<svg width="120" height="26" viewBox="0 0 120 26" fill="none" xmlns="http://www.w3.org/2000/svg">
<rect x="0.5" y="0.5" width="119" height="25" rx="3.5" stroke="#222222"/>
<path d="M33.15 17.12C30.81 17.12 29.826 15.956 29.706 14.336H31.242C31.35 15.2 31.698 15.92 33.15 15.92C34.098 15.92 34.77 15.392 34.77 14.6C34.77 13.808 34.374 13.508 32.982 13.28C30.93 13.004 29.958 12.38 29.958 10.772C29.958 9.368 31.158 8.312 32.946 8.312C34.794 8.312 35.898 9.152 36.066 10.796H34.602C34.446 9.896 33.93 9.512 32.946 9.512C31.974 9.512 31.47 9.98 31.47 10.64C31.47 11.336 31.758 11.684 33.246 11.9C35.262 12.176 36.306 12.752 36.306 14.468C36.306 15.956 35.046 17.12 33.15 17.12ZM39.3752 17.12C38.2232 17.12 37.2752 16.568 37.2752 15.26C37.2752 13.796 38.6912 13.268 40.4912 13.268H41.2712V12.944C41.2712 12.104 40.9832 11.684 40.1312 11.684C39.3752 11.684 39.0032 12.044 38.9312 12.668H37.5272C37.6472 11.204 38.8112 10.592 40.2152 10.592C41.6192 10.592 42.7232 11.168 42.7232 12.884V17H41.2952V16.232C40.8872 16.772 40.3352 17.12 39.3752 17.12ZM39.7232 16.076C40.6112 16.076 41.2712 15.608 41.2712 14.804V14.18H40.5272C39.4232 14.18 38.7152 14.432 38.7152 15.2C38.7152 15.728 39.0032 16.076 39.7232 16.076ZM44.4234 17V10.724H45.8754V17H44.4234ZM45.1314 9.692C44.6514 9.692 44.2674 9.332 44.2674 8.864C44.2674 8.384 44.6514 8.024 45.1314 8.024C45.6114 8.024 45.9954 8.384 45.9954 8.864C45.9954 9.332 45.6114 9.692 45.1314 9.692ZM51.1493 17.12C50.1533 17.12 49.4333 16.628 49.0973 15.992V17H47.6453V7.82H49.0973V11.732C49.4453 11.132 50.2253 10.592 51.1493 10.592C52.7213 10.592 53.9333 11.756 53.9333 13.784V13.88C53.9333 15.896 52.7693 17.12 51.1493 17.12ZM50.7893 15.968C51.8573 15.968 52.4453 15.248 52.4453 13.904V13.808C52.4453 12.416 51.7253 11.732 50.7773 11.732C49.7693 11.732 49.0493 12.416 49.0493 13.808V13.904C49.0493 15.308 49.7333 15.968 50.7893 15.968ZM56.883 17.12C55.731 17.12 54.783 16.568 54.783 15.26C54.783 13.796 56.199 13.268 57.999 13.268H58.779V12.944C58.779 12.104 58.491 11.684 57.639 11.684C56.883 11.684 56.511 12.044 56.439 12.668H55.035C55.155 11.204 56.319 10.592 57.723 10.592C59.127 10.592 60.231 11.168 60.231 12.884V17H58.803V16.232C58.395 16.772 57.843 17.12 56.883 17.12ZM57.231 16.076C58.119 16.076 58.779 15.608 58.779 14.804V14.18H58.035C56.931 14.18 56.223 14.432 56.223 15.2C56.223 15.728 56.511 16.076 57.231 16.076ZM64.7546 17V10.724H66.2066V11.684C66.5066 11.096 67.1906 10.592 68.1146 10.592C68.9306 10.592 69.5786 10.94 69.8906 11.72C70.3706 10.94 71.2346 10.592 72.0146 10.592C73.1666 10.592 74.1026 11.3 74.1026 13.028V17H72.6506V13.124C72.6506 12.2 72.2546 11.804 71.5346 11.804C70.8146 11.804 70.1546 12.284 70.1546 13.244V17H68.7026V13.124C68.7026 12.2 68.2946 11.804 67.5866 11.804C66.8666 11.804 66.2066 12.284 66.2066 13.244V17H64.7546ZM77.4143 17.12C76.2623 17.12 75.3143 16.568 75.3143 15.26C75.3143 13.796 76.7303 13.268 78.5303 13.268H79.3103V12.944C79.3103 12.104 79.0223 11.684 78.1703 11.684C77.4143 11.684 77.0423 12.044 76.9703 12.668H75.5663C75.6863 11.204 76.8503 10.592 78.2543 10.592C79.6583 10.592 80.7623 11.168 80.7623 12.884V17H79.3343V16.232C78.9263 16.772 78.3743 17.12 77.4143 17.12ZM77.7623 16.076C78.6503 16.076 79.3103 15.608 79.3103 14.804V14.18H78.5663C77.4623 14.18 76.7543 14.432 76.7543 15.2C76.7543 15.728 77.0423 16.076 77.7623 16.076ZM82.4625 17V10.724H83.9145V17H82.4625ZM83.1705 9.692C82.6905 9.692 82.3065 9.332 82.3065 8.864C82.3065 8.384 82.6905 8.024 83.1705 8.024C83.6505 8.024 84.0345 8.384 84.0345 8.864C84.0345 9.332 83.6505 9.692 83.1705 9.692ZM87.8323 17.12C86.2123 17.12 85.2643 16.376 85.2043 15.044H86.5723C86.6443 15.68 86.9683 16.052 87.8203 16.052C88.6003 16.052 88.9483 15.776 88.9483 15.248C88.9483 14.732 88.5283 14.54 87.6043 14.384C85.9483 14.12 85.3363 13.652 85.3363 12.476C85.3363 11.216 86.5123 10.592 87.6883 10.592C88.9723 10.592 89.9923 11.072 90.1483 12.488H88.8043C88.6843 11.912 88.3603 11.648 87.6883 11.648C87.0643 11.648 86.6923 11.948 86.6923 12.392C86.6923 12.848 86.9923 13.028 87.9883 13.196C89.4643 13.424 90.3403 13.784 90.3403 15.116C90.3403 16.388 89.4403 17.12 87.8323 17.12Z" fill="#222222"/>
</svg>
