<svg width="156" height="18" viewBox="0 0 156 18" fill="none" xmlns="http://www.w3.org/2000/svg">
<path d="M0.394 13.5V1.345H4.304C7.024 1.345 8.809 2.552 8.809 5.102V5.17C8.809 7.737 6.956 8.876 4.355 8.876H2.655V13.5H0.394ZM2.655 7.244H4.304C5.8 7.244 6.599 6.513 6.599 5.17V5.102C6.599 3.657 5.749 3.096 4.304 3.096H2.655V7.244ZM13.9724 12.072C15.5024 12.072 16.4204 10.933 16.4204 9.114V8.995C16.4204 7.159 15.5024 6.037 13.9724 6.037C12.4424 6.037 11.5074 7.142 11.5074 8.978V9.114C11.5074 10.933 12.4084 12.072 13.9724 12.072ZM13.9554 13.67C11.3374 13.67 9.39935 11.851 9.39935 9.148V9.012C9.39935 6.258 11.3544 4.422 13.9724 4.422C16.5734 4.422 18.5284 6.241 18.5284 8.961V9.097C18.5284 11.868 16.5734 13.67 13.9554 13.67ZM23.0729 13.653C21.3049 13.653 20.3869 12.701 20.3869 11.018V6.156H19.1969V4.609H20.3869V2.654H22.4439V4.609H24.3989V6.156H22.4439V10.831C22.4439 11.613 22.8179 11.97 23.4639 11.97C23.8719 11.97 24.1779 11.919 24.4669 11.8V13.432C24.1439 13.551 23.7019 13.653 23.0729 13.653ZM28.3943 13.67C26.7623 13.67 25.4193 12.888 25.4193 11.035C25.4193 8.961 27.4253 8.213 29.9753 8.213H31.0803V7.754C31.0803 6.564 30.6723 5.969 29.4653 5.969C28.3943 5.969 27.8673 6.479 27.7653 7.363H25.7763C25.9463 5.289 27.5953 4.422 29.5843 4.422C31.5733 4.422 33.1373 5.238 33.1373 7.669V13.5H31.1143V12.412C30.5363 13.177 29.7543 13.67 28.3943 13.67ZM28.8873 12.191C30.1453 12.191 31.0803 11.528 31.0803 10.389V9.505H30.0263C28.4623 9.505 27.4593 9.862 27.4593 10.95C27.4593 11.698 27.8673 12.191 28.8873 12.191ZM28.7343 3.283L29.7373 0.647999H32.0153L30.2473 3.283H28.7343ZM38.198 13.67C35.903 13.67 34.56 12.616 34.475 10.729H36.413C36.515 11.63 36.974 12.157 38.181 12.157C39.286 12.157 39.779 11.766 39.779 11.018C39.779 10.287 39.184 10.015 37.875 9.794C35.529 9.42 34.662 8.757 34.662 7.091C34.662 5.306 36.328 4.422 37.994 4.422C39.813 4.422 41.258 5.102 41.479 7.108H39.575C39.405 6.292 38.946 5.918 37.994 5.918C37.11 5.918 36.583 6.343 36.583 6.972C36.583 7.618 37.008 7.873 38.419 8.111C40.51 8.434 41.751 8.944 41.751 10.831C41.751 12.633 40.476 13.67 38.198 13.67ZM46.2584 13.67C43.9634 13.67 42.6204 12.616 42.5354 10.729H44.4734C44.5754 11.63 45.0344 12.157 46.2414 12.157C47.3464 12.157 47.8394 11.766 47.8394 11.018C47.8394 10.287 47.2444 10.015 45.9354 9.794C43.5894 9.42 42.7224 8.757 42.7224 7.091C42.7224 5.306 44.3884 4.422 46.0544 4.422C47.8734 4.422 49.3184 5.102 49.5394 7.108H47.6354C47.4654 6.292 47.0064 5.918 46.0544 5.918C45.1704 5.918 44.6434 6.343 44.6434 6.972C44.6434 7.618 45.0684 7.873 46.4794 8.111C48.5704 8.434 49.8114 8.944 49.8114 10.831C49.8114 12.633 48.5364 13.67 46.2584 13.67ZM51.3268 13.5V4.609H53.3838V13.5H51.3268ZM52.3298 3.147C51.6498 3.147 51.1058 2.637 51.1058 1.974C51.1058 1.294 51.6498 0.784 52.3298 0.784C53.0098 0.784 53.5538 1.294 53.5538 1.974C53.5538 2.637 53.0098 3.147 52.3298 3.147ZM59.529 12.072C61.059 12.072 61.977 10.933 61.977 9.114V8.995C61.977 7.159 61.059 6.037 59.529 6.037C57.999 6.037 57.064 7.142 57.064 8.978V9.114C57.064 10.933 57.965 12.072 59.529 12.072ZM59.512 13.67C56.894 13.67 54.956 11.851 54.956 9.148V9.012C54.956 6.258 56.911 4.422 59.529 4.422C62.13 4.422 64.085 6.241 64.085 8.961V9.097C64.085 11.868 62.13 13.67 59.512 13.67ZM66.396 13.619C65.648 13.619 65.053 13.041 65.053 12.293C65.053 11.545 65.648 10.95 66.396 10.95C67.161 10.95 67.756 11.545 67.756 12.293C67.756 13.041 67.161 13.619 66.396 13.619ZM77.7578 13.67C74.4428 13.67 73.0488 12.021 72.8788 9.726H75.0548C75.2078 10.95 75.7008 11.97 77.7578 11.97C79.1008 11.97 80.0528 11.222 80.0528 10.1C80.0528 8.978 79.4918 8.553 77.5198 8.23C74.6128 7.839 73.2358 6.955 73.2358 4.677C73.2358 2.688 74.9358 1.192 77.4688 1.192C80.0868 1.192 81.6508 2.382 81.8888 4.711H79.8148C79.5938 3.436 78.8628 2.892 77.4688 2.892C76.0918 2.892 75.3778 3.555 75.3778 4.49C75.3778 5.476 75.7858 5.969 77.8938 6.275C80.7498 6.666 82.2288 7.482 82.2288 9.913C82.2288 12.021 80.4438 13.67 77.7578 13.67ZM87.8178 13.67C85.1998 13.67 83.3128 11.953 83.3128 9.148V9.012C83.3128 6.258 85.1998 4.422 87.7328 4.422C89.9428 4.422 91.9318 5.731 91.9318 8.91V9.505H85.4208C85.4888 11.188 86.3388 12.14 87.8688 12.14C89.1098 12.14 89.7558 11.647 89.9088 10.78H91.8978C91.6088 12.65 90.0958 13.67 87.8178 13.67ZM85.4548 8.128H89.8918C89.7898 6.598 89.0078 5.918 87.7328 5.918C86.4918 5.918 85.6588 6.751 85.4548 8.128ZM97.2202 16.764C94.4322 16.764 93.1742 15.506 92.9362 13.806H95.0102C95.1802 14.69 95.8602 15.2 97.2032 15.2C98.8012 15.2 99.6852 14.401 99.6852 12.803V11.494C99.1922 12.344 98.0872 13.143 96.7782 13.143C94.5512 13.143 92.8342 11.477 92.8342 8.91V8.791C92.8342 6.292 94.5342 4.422 96.8292 4.422C98.2912 4.422 99.1752 5.085 99.6852 5.969V4.609H101.742V12.837C101.725 15.455 99.9742 16.764 97.2202 16.764ZM97.2882 11.562C98.7162 11.562 99.7532 10.542 99.7532 8.842V8.723C99.7532 7.04 98.8352 6.037 97.3562 6.037C95.8262 6.037 94.9422 7.142 94.9422 8.757V8.893C94.9422 10.542 95.9622 11.562 97.2882 11.562ZM106.822 13.67C105.071 13.67 103.762 12.667 103.762 10.304V4.609H105.819V10.066C105.819 11.409 106.38 12.021 107.57 12.021C108.675 12.021 109.644 11.307 109.644 9.896V4.609H111.701V13.5H109.644V12.106C109.202 12.973 108.267 13.67 106.822 13.67ZM113.8 13.5V4.609H115.857V6.275C116.418 5.153 117.251 4.49 118.747 4.473V6.394C116.945 6.411 115.857 6.989 115.857 8.876V13.5H113.8ZM122.38 13.67C120.748 13.67 119.405 12.888 119.405 11.035C119.405 8.961 121.411 8.213 123.961 8.213H125.066V7.754C125.066 6.564 124.658 5.969 123.451 5.969C122.38 5.969 121.853 6.479 121.751 7.363H119.762C119.932 5.289 121.581 4.422 123.57 4.422C125.559 4.422 127.123 5.238 127.123 7.669V13.5H125.1V12.412C124.522 13.177 123.74 13.67 122.38 13.67ZM122.873 12.191C124.131 12.191 125.066 11.528 125.066 10.389V9.505H124.012C122.448 9.505 121.445 9.862 121.445 10.95C121.445 11.698 121.853 12.191 122.873 12.191ZM129.14 13.5V4.609H131.197V6.02C131.622 5.153 132.608 4.422 134.07 4.422C135.855 4.422 137.113 5.459 137.113 7.907V13.5H135.056V8.094C135.056 6.751 134.512 6.139 133.288 6.139C132.132 6.139 131.197 6.853 131.197 8.264V13.5H129.14ZM142.73 17.223C141.659 17.223 140.962 16.645 140.86 15.727H141.982C142.033 16.016 142.254 16.288 142.662 16.288C143.053 16.288 143.291 16.05 143.291 15.71C143.291 15.387 143.053 15.166 142.696 15.166C142.458 15.166 142.288 15.251 142.186 15.319L141.608 14.775L142.288 13.619C140.112 13.33 138.548 11.732 138.548 9.165V9.029C138.548 6.207 140.554 4.422 143.036 4.422C145.008 4.422 146.861 5.306 147.099 7.754H145.11C144.94 6.564 144.158 6.071 143.07 6.071C141.659 6.071 140.656 7.159 140.656 8.995V9.131C140.656 11.069 141.608 12.089 143.121 12.089C144.209 12.089 145.144 11.443 145.263 10.185H147.15C146.997 12.157 145.552 13.568 143.274 13.67L142.883 14.35C143.733 14.248 144.583 14.69 144.583 15.761C144.583 16.713 143.784 17.223 142.73 17.223ZM150.911 13.67C149.279 13.67 147.936 12.888 147.936 11.035C147.936 8.961 149.942 8.213 152.492 8.213H153.597V7.754C153.597 6.564 153.189 5.969 151.982 5.969C150.911 5.969 150.384 6.479 150.282 7.363H148.293C148.463 5.289 150.112 4.422 152.101 4.422C154.09 4.422 155.654 5.238 155.654 7.669V13.5H153.631V12.412C153.053 13.177 152.271 13.67 150.911 13.67ZM151.404 12.191C152.662 12.191 153.597 11.528 153.597 10.389V9.505H152.543C150.979 9.505 149.976 9.862 149.976 10.95C149.976 11.698 150.384 12.191 151.404 12.191Z" fill="black"/>
</svg>
