<svg width="193" height="17" viewBox="0 0 193 17" fill="none" xmlns="http://www.w3.org/2000/svg">
<path d="M3.553 13.17C1.921 13.17 0.578 12.388 0.578 10.535C0.578 8.461 2.584 7.713 5.134 7.713H6.239V7.254C6.239 6.064 5.831 5.469 4.624 5.469C3.553 5.469 3.026 5.979 2.924 6.863H0.935C1.105 4.789 2.754 3.922 4.743 3.922C6.732 3.922 8.296 4.738 8.296 7.169V13H6.273V11.912C5.695 12.677 4.913 13.17 3.553 13.17ZM4.046 11.691C5.304 11.691 6.239 11.028 6.239 9.889V9.005H5.185C3.621 9.005 2.618 9.362 2.618 10.45C2.618 11.198 3.026 11.691 4.046 11.691ZM10.3647 13V-0.00500077H12.4217V13H10.3647ZM14.6399 13V4.109H16.6969V13H14.6399ZM15.6429 2.647C14.9629 2.647 14.4189 2.137 14.4189 1.474C14.4189 0.793999 14.9629 0.284 15.6429 0.284C16.3229 0.284 16.8669 0.793999 16.8669 1.474C16.8669 2.137 16.3229 2.647 15.6429 2.647ZM18.8642 13V4.109H20.9212V5.469C21.3462 4.636 22.3152 3.922 23.6242 3.922C24.7802 3.922 25.6982 4.415 26.1402 5.52C26.8202 4.415 28.0442 3.922 29.1492 3.922C30.7812 3.922 32.1072 4.925 32.1072 7.373V13H30.0502V7.509C30.0502 6.2 29.4892 5.639 28.4692 5.639C27.4492 5.639 26.5142 6.319 26.5142 7.679V13H24.4572V7.509C24.4572 6.2 23.8792 5.639 22.8762 5.639C21.8562 5.639 20.9212 6.319 20.9212 7.679V13H18.8642ZM38.0396 13.17C35.4216 13.17 33.5346 11.453 33.5346 8.648V8.512C33.5346 5.758 35.4216 3.922 37.9546 3.922C40.1646 3.922 42.1536 5.231 42.1536 8.41V9.005H35.6426C35.7106 10.688 36.5606 11.64 38.0906 11.64C39.3316 11.64 39.9776 11.147 40.1306 10.28H42.1196C41.8306 12.15 40.3176 13.17 38.0396 13.17ZM35.6766 7.628H40.1136C40.0116 6.098 39.2296 5.418 37.9546 5.418C36.7136 5.418 35.8806 6.251 35.6766 7.628ZM43.651 13V4.109H45.708V5.52C46.133 4.653 47.119 3.922 48.581 3.922C50.366 3.922 51.624 4.959 51.624 7.407V13H49.567V7.594C49.567 6.251 49.023 5.639 47.799 5.639C46.643 5.639 45.708 6.353 45.708 7.764V13H43.651ZM56.6797 13.153C54.9117 13.153 53.9937 12.201 53.9937 10.518V5.656H52.8037V4.109H53.9937V2.154H56.0507V4.109H58.0057V5.656H56.0507V10.331C56.0507 11.113 56.4247 11.47 57.0707 11.47C57.4787 11.47 57.7847 11.419 58.0737 11.3V12.932C57.7507 13.051 57.3087 13.153 56.6797 13.153ZM62.0011 13.17C60.3691 13.17 59.0261 12.388 59.0261 10.535C59.0261 8.461 61.0321 7.713 63.5821 7.713H64.6871V7.254C64.6871 6.064 64.2791 5.469 63.0721 5.469C62.0011 5.469 61.4741 5.979 61.3721 6.863H59.3831C59.5531 4.789 61.2021 3.922 63.1911 3.922C65.1801 3.922 66.7441 4.738 66.7441 7.169V13H64.7211V11.912C64.1431 12.677 63.3611 13.17 62.0011 13.17ZM62.4941 11.691C63.7521 11.691 64.6871 11.028 64.6871 9.889V9.005H63.6331C62.0691 9.005 61.0661 9.362 61.0661 10.45C61.0661 11.198 61.4741 11.691 62.4941 11.691ZM68.7618 13V4.109H70.8188V5.775C71.3798 4.653 72.2128 3.99 73.7088 3.973V5.894C71.9068 5.911 70.8188 6.489 70.8188 8.376V13H68.7618ZM78.8894 16.043V4.109H80.9464V5.537C81.4394 4.687 82.5444 3.922 83.8534 3.922C86.0804 3.922 87.7974 5.571 87.7974 8.444V8.58C87.7974 11.436 86.1484 13.17 83.8534 13.17C82.4424 13.17 81.4224 12.473 80.9464 11.606V16.043H78.8894ZM83.3434 11.538C84.8564 11.538 85.6894 10.518 85.6894 8.614V8.478C85.6894 6.506 84.6694 5.537 83.3264 5.537C81.8984 5.537 80.8784 6.506 80.8784 8.478V8.614C80.8784 10.603 81.8474 11.538 83.3434 11.538ZM91.6362 13.17C90.0042 13.17 88.6612 12.388 88.6612 10.535C88.6612 8.461 90.6672 7.713 93.2172 7.713H94.3222V7.254C94.3222 6.064 93.9142 5.469 92.7072 5.469C91.6362 5.469 91.1092 5.979 91.0072 6.863H89.0182C89.1882 4.789 90.8372 3.922 92.8262 3.922C94.8152 3.922 96.3792 4.738 96.3792 7.169V13H94.3562V11.912C93.7782 12.677 92.9962 13.17 91.6362 13.17ZM92.1292 11.691C93.3872 11.691 94.3222 11.028 94.3222 9.889V9.005H93.2682C91.7042 9.005 90.7012 9.362 90.7012 10.45C90.7012 11.198 91.1092 11.691 92.1292 11.691ZM98.3969 13V4.109H100.454V5.775C101.015 4.653 101.848 3.99 103.344 3.973V5.894C101.542 5.911 100.454 6.489 100.454 8.376V13H98.3969ZM106.977 13.17C105.345 13.17 104.002 12.388 104.002 10.535C104.002 8.461 106.008 7.713 108.558 7.713H109.663V7.254C109.663 6.064 109.255 5.469 108.048 5.469C106.977 5.469 106.45 5.979 106.348 6.863H104.359C104.529 4.789 106.178 3.922 108.167 3.922C110.156 3.922 111.72 4.738 111.72 7.169V13H109.697V11.912C109.119 12.677 108.337 13.17 106.977 13.17ZM107.47 11.691C108.728 11.691 109.663 11.028 109.663 9.889V9.005H108.609C107.045 9.005 106.042 9.362 106.042 10.45C106.042 11.198 106.45 11.691 107.47 11.691ZM121.426 11.572C122.956 11.572 123.874 10.433 123.874 8.614V8.495C123.874 6.659 122.956 5.537 121.426 5.537C119.896 5.537 118.961 6.642 118.961 8.478V8.614C118.961 10.433 119.862 11.572 121.426 11.572ZM121.409 13.17C118.791 13.17 116.853 11.351 116.853 8.648V8.512C116.853 5.758 118.808 3.922 121.426 3.922C124.027 3.922 125.982 5.741 125.982 8.461V8.597C125.982 11.368 124.027 13.17 121.409 13.17ZM131.212 16.043V4.109H133.269V5.537C133.762 4.687 134.867 3.922 136.176 3.922C138.403 3.922 140.12 5.571 140.12 8.444V8.58C140.12 11.436 138.471 13.17 136.176 13.17C134.765 13.17 133.745 12.473 133.269 11.606V16.043H131.212ZM135.666 11.538C137.179 11.538 138.012 10.518 138.012 8.614V8.478C138.012 6.506 136.992 5.537 135.649 5.537C134.221 5.537 133.201 6.506 133.201 8.478V8.614C133.201 10.603 134.17 11.538 135.666 11.538ZM141.68 13V-0.00500077H143.737V13H141.68ZM148.234 13.17C146.602 13.17 145.259 12.388 145.259 10.535C145.259 8.461 147.265 7.713 149.815 7.713H150.92V7.254C150.92 6.064 150.512 5.469 149.305 5.469C148.234 5.469 147.707 5.979 147.605 6.863H145.616C145.786 4.789 147.435 3.922 149.424 3.922C151.413 3.922 152.977 4.738 152.977 7.169V13H150.954V11.912C150.376 12.677 149.594 13.17 148.234 13.17ZM148.727 11.691C149.985 11.691 150.92 11.028 150.92 9.889V9.005H149.866C148.302 9.005 147.299 9.362 147.299 10.45C147.299 11.198 147.707 11.691 148.727 11.691ZM154.994 13V4.109H157.051V5.52C157.476 4.653 158.462 3.922 159.924 3.922C161.709 3.922 162.967 4.959 162.967 7.407V13H160.91V7.594C160.91 6.251 160.366 5.639 159.142 5.639C157.986 5.639 157.051 6.353 157.051 7.764V13H154.994ZM168.907 13.17C166.289 13.17 164.402 11.453 164.402 8.648V8.512C164.402 5.758 166.289 3.922 168.822 3.922C171.032 3.922 173.021 5.231 173.021 8.41V9.005H166.51C166.578 10.688 167.428 11.64 168.958 11.64C170.199 11.64 170.845 11.147 170.998 10.28H172.987C172.698 12.15 171.185 13.17 168.907 13.17ZM166.544 7.628H170.981C170.879 6.098 170.097 5.418 168.822 5.418C167.581 5.418 166.748 6.251 166.544 7.628ZM177.544 13.153C175.776 13.153 174.858 12.201 174.858 10.518V5.656H173.668V4.109H174.858V2.154H176.915V4.109H178.87V5.656H176.915V10.331C176.915 11.113 177.289 11.47 177.935 11.47C178.343 11.47 178.649 11.419 178.938 11.3V12.932C178.615 13.051 178.173 13.153 177.544 13.153ZM182.866 13.17C181.234 13.17 179.891 12.388 179.891 10.535C179.891 8.461 181.897 7.713 184.447 7.713H185.552V7.254C185.552 6.064 185.144 5.469 183.937 5.469C182.866 5.469 182.339 5.979 182.237 6.863H180.248C180.418 4.789 182.067 3.922 184.056 3.922C186.045 3.922 187.609 4.738 187.609 7.169V13H185.586V11.912C185.008 12.677 184.226 13.17 182.866 13.17ZM183.359 11.691C184.617 11.691 185.552 11.028 185.552 9.889V9.005H184.498C182.934 9.005 181.931 9.362 181.931 10.45C181.931 11.198 182.339 11.691 183.359 11.691ZM190.85 13.119C190.102 13.119 189.507 12.541 189.507 11.793C189.507 11.045 190.102 10.45 190.85 10.45C191.615 10.45 192.21 11.045 192.21 11.793C192.21 12.541 191.615 13.119 190.85 13.119Z" fill="black"/>
</svg>
