<svg width="151" height="34" viewBox="0 0 151 34" fill="none" xmlns="http://www.w3.org/2000/svg">
<rect x="1.16663" y="0.928589" width="148.918" height="32.1429" rx="4.39796" stroke="#DD5900"/>
<path d="M39.8258 22.16C36.7058 22.16 35.3938 20.608 35.2338 18.448H37.2818C37.4258 19.6 37.8898 20.56 39.8258 20.56C41.0898 20.56 41.9858 19.856 41.9858 18.8C41.9858 17.744 41.4578 17.344 39.6018 17.04C36.8658 16.672 35.5698 15.84 35.5698 13.696C35.5698 11.824 37.1698 10.416 39.5538 10.416C42.0178 10.416 43.4898 11.536 43.7138 13.728H41.7618C41.5538 12.528 40.8658 12.016 39.5538 12.016C38.2578 12.016 37.5858 12.64 37.5858 13.52C37.5858 14.448 37.9698 14.912 39.9538 15.2C42.6418 15.568 44.0338 16.336 44.0338 18.624C44.0338 20.608 42.3538 22.16 39.8258 22.16ZM48.126 22.16C46.59 22.16 45.326 21.424 45.326 19.68C45.326 17.728 47.214 17.024 49.614 17.024H50.654V16.592C50.654 15.472 50.27 14.912 49.134 14.912C48.126 14.912 47.63 15.392 47.534 16.224H45.662C45.822 14.272 47.374 13.456 49.246 13.456C51.118 13.456 52.59 14.224 52.59 16.512V22H50.686V20.976C50.142 21.696 49.406 22.16 48.126 22.16ZM48.59 20.768C49.774 20.768 50.654 20.144 50.654 19.072V18.24H49.662C48.19 18.24 47.246 18.576 47.246 19.6C47.246 20.304 47.63 20.768 48.59 20.768ZM54.857 22V13.632H56.793V22H54.857ZM55.801 12.256C55.161 12.256 54.649 11.776 54.649 11.152C54.649 10.512 55.161 10.032 55.801 10.032C56.441 10.032 56.953 10.512 56.953 11.152C56.953 11.776 56.441 12.256 55.801 12.256ZM63.8248 22.16C62.4968 22.16 61.5368 21.504 61.0888 20.656V22H59.1528V9.76H61.0888V14.976C61.5528 14.176 62.5928 13.456 63.8248 13.456C65.9208 13.456 67.5368 15.008 67.5368 17.712V17.84C67.5368 20.528 65.9848 22.16 63.8248 22.16ZM63.3448 20.624C64.7688 20.624 65.5528 19.664 65.5528 17.872V17.744C65.5528 15.888 64.5928 14.976 63.3288 14.976C61.9848 14.976 61.0248 15.888 61.0248 17.744V17.872C61.0248 19.744 61.9368 20.624 63.3448 20.624ZM71.4698 22.16C69.9338 22.16 68.6698 21.424 68.6698 19.68C68.6698 17.728 70.5578 17.024 72.9578 17.024H73.9978V16.592C73.9978 15.472 73.6138 14.912 72.4778 14.912C71.4698 14.912 70.9738 15.392 70.8778 16.224H69.0058C69.1658 14.272 70.7178 13.456 72.5898 13.456C74.4618 13.456 75.9338 14.224 75.9338 16.512V22H74.0298V20.976C73.4858 21.696 72.7498 22.16 71.4698 22.16ZM71.9338 20.768C73.1178 20.768 73.9978 20.144 73.9978 19.072V18.24H73.0058C71.5338 18.24 70.5898 18.576 70.5898 19.6C70.5898 20.304 70.9738 20.768 71.9338 20.768ZM81.9653 22V13.632H83.9013V14.912C84.3013 14.128 85.2133 13.456 86.4453 13.456C87.5333 13.456 88.3973 13.92 88.8133 14.96C89.4533 13.92 90.6053 13.456 91.6453 13.456C93.1813 13.456 94.4293 14.4 94.4293 16.704V22H92.4933V16.832C92.4933 15.6 91.9653 15.072 91.0053 15.072C90.0453 15.072 89.1653 15.712 89.1653 16.992V22H87.2293V16.832C87.2293 15.6 86.6853 15.072 85.7413 15.072C84.7813 15.072 83.9013 15.712 83.9013 16.992V22H81.9653ZM98.8448 22.16C97.3088 22.16 96.0448 21.424 96.0448 19.68C96.0448 17.728 97.9328 17.024 100.333 17.024H101.373V16.592C101.373 15.472 100.989 14.912 99.8528 14.912C98.8448 14.912 98.3488 15.392 98.2528 16.224H96.3808C96.5408 14.272 98.0928 13.456 99.9648 13.456C101.837 13.456 103.309 14.224 103.309 16.512V22H101.405V20.976C100.861 21.696 100.125 22.16 98.8448 22.16ZM99.3088 20.768C100.493 20.768 101.373 20.144 101.373 19.072V18.24H100.381C98.9088 18.24 97.9648 18.576 97.9648 19.6C97.9648 20.304 98.3488 20.768 99.3088 20.768ZM105.576 22V13.632H107.512V22H105.576ZM106.52 12.256C105.88 12.256 105.368 11.776 105.368 11.152C105.368 10.512 105.88 10.032 106.52 10.032C107.16 10.032 107.672 10.512 107.672 11.152C107.672 11.776 107.16 12.256 106.52 12.256ZM112.736 22.16C110.576 22.16 109.312 21.168 109.232 19.392H111.056C111.152 20.24 111.584 20.736 112.72 20.736C113.76 20.736 114.224 20.368 114.224 19.664C114.224 18.976 113.664 18.72 112.432 18.512C110.224 18.16 109.408 17.536 109.408 15.968C109.408 14.288 110.976 13.456 112.544 13.456C114.256 13.456 115.616 14.096 115.824 15.984H114.032C113.872 15.216 113.44 14.864 112.544 14.864C111.712 14.864 111.216 15.264 111.216 15.856C111.216 16.464 111.616 16.704 112.944 16.928C114.912 17.232 116.08 17.712 116.08 19.488C116.08 21.184 114.88 22.16 112.736 22.16Z" fill="#DD5900"/>
</svg>