<svg width="272" height="24" viewBox="0 0 272 24" fill="none" xmlns="http://www.w3.org/2000/svg">
<path d="M4.68299 19.24C2.37899 19.24 0.482992 18.136 0.482992 15.52C0.482992 12.592 3.31499 11.536 6.91499 11.536H8.47499V10.888C8.47499 9.208 7.89899 8.368 6.19499 8.368C4.68299 8.368 3.93899 9.088 3.79499 10.336H0.986992C1.22699 7.408 3.55499 6.184 6.36299 6.184C9.17099 6.184 11.379 7.336 11.379 10.768V19H8.52299V17.464C7.70699 18.544 6.60299 19.24 4.68299 19.24ZM5.37899 17.152C7.15499 17.152 8.47499 16.216 8.47499 14.608V13.36H6.98699C4.77899 13.36 3.36299 13.864 3.36299 15.4C3.36299 16.456 3.93899 17.152 5.37899 17.152ZM14.2995 19V0.639999H17.2035V19H14.2995ZM20.3351 19V6.448H23.2391V19H20.3351ZM21.7511 4.384C20.7911 4.384 20.0231 3.664 20.0231 2.728C20.0231 1.768 20.7911 1.048 21.7511 1.048C22.7111 1.048 23.4791 1.768 23.4791 2.728C23.4791 3.664 22.7111 4.384 21.7511 4.384ZM26.2987 19V6.448H29.2027V8.368C29.8027 7.192 31.1707 6.184 33.0187 6.184C34.6507 6.184 35.9467 6.88 36.5707 8.44C37.5307 6.88 39.2587 6.184 40.8187 6.184C43.1227 6.184 44.9947 7.6 44.9947 11.056V19H42.0907V11.248C42.0907 9.4 41.2987 8.608 39.8587 8.608C38.4187 8.608 37.0987 9.568 37.0987 11.488V19H34.1947V11.248C34.1947 9.4 33.3787 8.608 31.9627 8.608C30.5227 8.608 29.2027 9.568 29.2027 11.488V19H26.2987ZM53.37 19.24C49.674 19.24 47.01 16.816 47.01 12.856V12.664C47.01 8.776 49.674 6.184 53.25 6.184C56.37 6.184 59.178 8.032 59.178 12.52V13.36H49.986C50.082 15.736 51.282 17.08 53.442 17.08C55.194 17.08 56.106 16.384 56.322 15.16H59.13C58.722 17.8 56.586 19.24 53.37 19.24ZM50.034 11.416H56.298C56.154 9.256 55.05 8.296 53.25 8.296C51.498 8.296 50.322 9.472 50.034 11.416ZM61.2919 19V6.448H64.1959V8.44C64.7959 7.216 66.1879 6.184 68.2519 6.184C70.7719 6.184 72.5479 7.648 72.5479 11.104V19H69.6439V11.368C69.6439 9.472 68.8759 8.608 67.1479 8.608C65.5159 8.608 64.1959 9.616 64.1959 11.608V19H61.2919ZM79.6854 19.216C77.1894 19.216 75.8934 17.872 75.8934 15.496V8.632H74.2134V6.448H75.8934V3.688H78.7974V6.448H81.5574V8.632H78.7974V15.232C78.7974 16.336 79.3254 16.84 80.2374 16.84C80.8134 16.84 81.2454 16.768 81.6534 16.6V18.904C81.1974 19.072 80.5734 19.216 79.6854 19.216ZM87.198 19.24C84.894 19.24 82.998 18.136 82.998 15.52C82.998 12.592 85.83 11.536 89.43 11.536H90.99V10.888C90.99 9.208 90.414 8.368 88.71 8.368C87.198 8.368 86.454 9.088 86.31 10.336H83.502C83.742 7.408 86.07 6.184 88.878 6.184C91.686 6.184 93.894 7.336 93.894 10.768V19H91.038V17.464C90.222 18.544 89.118 19.24 87.198 19.24ZM87.894 17.152C89.67 17.152 90.99 16.216 90.99 14.608V13.36H89.502C87.294 13.36 85.878 13.864 85.878 15.4C85.878 16.456 86.454 17.152 87.894 17.152ZM96.7425 19V6.448H99.6465V8.8C100.438 7.216 101.614 6.28 103.726 6.256V8.968C101.182 8.992 99.6465 9.808 99.6465 12.472V19H96.7425ZM111.04 23.296V6.448H113.944V8.464C114.64 7.264 116.2 6.184 118.048 6.184C121.192 6.184 123.616 8.512 123.616 12.568V12.76C123.616 16.792 121.288 19.24 118.048 19.24C116.056 19.24 114.616 18.256 113.944 17.032V23.296H111.04ZM117.328 16.936C119.464 16.936 120.64 15.496 120.64 12.808V12.616C120.64 9.832 119.2 8.464 117.304 8.464C115.288 8.464 113.848 9.832 113.848 12.616V12.808C113.848 15.616 115.216 16.936 117.328 16.936ZM129.036 19.24C126.732 19.24 124.836 18.136 124.836 15.52C124.836 12.592 127.668 11.536 131.268 11.536H132.828V10.888C132.828 9.208 132.252 8.368 130.548 8.368C129.036 8.368 128.292 9.088 128.148 10.336H125.34C125.58 7.408 127.908 6.184 130.716 6.184C133.524 6.184 135.732 7.336 135.732 10.768V19H132.876V17.464C132.06 18.544 130.956 19.24 129.036 19.24ZM129.732 17.152C131.508 17.152 132.828 16.216 132.828 14.608V13.36H131.34C129.132 13.36 127.716 13.864 127.716 15.4C127.716 16.456 128.292 17.152 129.732 17.152ZM138.58 19V6.448H141.484V8.8C142.276 7.216 143.452 6.28 145.564 6.256V8.968C143.02 8.992 141.484 9.808 141.484 12.472V19H138.58ZM150.693 19.24C148.389 19.24 146.493 18.136 146.493 15.52C146.493 12.592 149.325 11.536 152.925 11.536H154.485V10.888C154.485 9.208 153.909 8.368 152.205 8.368C150.693 8.368 149.949 9.088 149.805 10.336H146.997C147.237 7.408 149.565 6.184 152.373 6.184C155.181 6.184 157.389 7.336 157.389 10.768V19H154.533V17.464C153.717 18.544 152.613 19.24 150.693 19.24ZM151.389 17.152C153.165 17.152 154.485 16.216 154.485 14.608V13.36H152.997C150.789 13.36 149.373 13.864 149.373 15.4C149.373 16.456 149.949 17.152 151.389 17.152ZM171.092 16.984C173.252 16.984 174.548 15.376 174.548 12.808V12.64C174.548 10.048 173.252 8.464 171.092 8.464C168.932 8.464 167.612 10.024 167.612 12.616V12.808C167.612 15.376 168.884 16.984 171.092 16.984ZM171.068 19.24C167.372 19.24 164.636 16.672 164.636 12.856V12.664C164.636 8.776 167.396 6.184 171.092 6.184C174.764 6.184 177.524 8.752 177.524 12.592V12.784C177.524 16.696 174.764 19.24 171.068 19.24ZM184.907 23.296V6.448H187.811V8.464C188.507 7.264 190.067 6.184 191.915 6.184C195.059 6.184 197.483 8.512 197.483 12.568V12.76C197.483 16.792 195.155 19.24 191.915 19.24C189.923 19.24 188.483 18.256 187.811 17.032V23.296H184.907ZM191.195 16.936C193.331 16.936 194.507 15.496 194.507 12.808V12.616C194.507 9.832 193.067 8.464 191.171 8.464C189.155 8.464 187.715 9.832 187.715 12.616V12.808C187.715 15.616 189.083 16.936 191.195 16.936ZM199.686 19V0.639999H202.59V19H199.686ZM208.938 19.24C206.634 19.24 204.738 18.136 204.738 15.52C204.738 12.592 207.57 11.536 211.17 11.536H212.73V10.888C212.73 9.208 212.154 8.368 210.45 8.368C208.938 8.368 208.194 9.088 208.05 10.336H205.242C205.482 7.408 207.81 6.184 210.618 6.184C213.426 6.184 215.634 7.336 215.634 10.768V19H212.778V17.464C211.962 18.544 210.858 19.24 208.938 19.24ZM209.634 17.152C211.41 17.152 212.73 16.216 212.73 14.608V13.36H211.242C209.034 13.36 207.618 13.864 207.618 15.4C207.618 16.456 208.194 17.152 209.634 17.152ZM218.482 19V6.448H221.386V8.44C221.986 7.216 223.378 6.184 225.442 6.184C227.962 6.184 229.738 7.648 229.738 11.104V19H226.834V11.368C226.834 9.472 226.066 8.608 224.338 8.608C222.706 8.608 221.386 9.616 221.386 11.608V19H218.482ZM238.124 19.24C234.428 19.24 231.764 16.816 231.764 12.856V12.664C231.764 8.776 234.428 6.184 238.004 6.184C241.124 6.184 243.932 8.032 243.932 12.52V13.36H234.74C234.836 15.736 236.036 17.08 238.196 17.08C239.948 17.08 240.86 16.384 241.076 15.16H243.884C243.476 17.8 241.34 19.24 238.124 19.24ZM234.788 11.416H241.052C240.908 9.256 239.804 8.296 238.004 8.296C236.252 8.296 235.076 9.472 234.788 11.416ZM250.318 19.216C247.822 19.216 246.526 17.872 246.526 15.496V8.632H244.846V6.448H246.526V3.688H249.43V6.448H252.19V8.632H249.43V15.232C249.43 16.336 249.958 16.84 250.87 16.84C251.446 16.84 251.878 16.768 252.286 16.6V18.904C251.83 19.072 251.206 19.216 250.318 19.216ZM257.83 19.24C255.526 19.24 253.63 18.136 253.63 15.52C253.63 12.592 256.462 11.536 260.062 11.536H261.622V10.888C261.622 9.208 261.046 8.368 259.342 8.368C257.83 8.368 257.086 9.088 256.942 10.336H254.134C254.374 7.408 256.702 6.184 259.51 6.184C262.318 6.184 264.526 7.336 264.526 10.768V19H261.67V17.464C260.854 18.544 259.75 19.24 257.83 19.24ZM258.526 17.152C260.302 17.152 261.622 16.216 261.622 14.608V13.36H260.134C257.926 13.36 256.51 13.864 256.51 15.4C256.51 16.456 257.086 17.152 258.526 17.152ZM269.103 19.168C268.047 19.168 267.207 18.352 267.207 17.296C267.207 16.24 268.047 15.4 269.103 15.4C270.183 15.4 271.023 16.24 271.023 17.296C271.023 18.352 270.183 19.168 269.103 19.168Z" fill="black"/>
</svg>
