<svg width="214" height="19" viewBox="0 0 214 19" fill="none" xmlns="http://www.w3.org/2000/svg">
<path d="M9.5065 16.1006C12.7465 16.1006 14.7865 13.6286 14.7865 9.90859V9.71659C14.7865 6.18859 12.8185 3.57259 9.4585 3.57259C6.0985 3.57259 4.1065 6.04459 4.1065 9.74059V9.93259C4.1065 13.6766 6.3865 16.1006 9.5065 16.1006ZM9.4585 18.6686C4.2025 18.6686 0.770504 14.9006 0.770504 9.95659V9.76459C0.770504 4.74859 4.3705 1.02859 9.4585 1.02859C14.5705 1.02859 18.0985 4.65259 18.0985 9.69259V9.88459C18.0985 14.9006 14.6665 18.6686 9.4585 18.6686ZM31.1961 18.6686C27.5961 18.6686 24.8601 16.3166 24.8601 12.3086V12.1166C24.8601 8.13259 27.6921 5.61259 31.1961 5.61259C33.9801 5.61259 36.5961 6.86059 36.9321 10.3166H34.1241C33.8841 8.63659 32.7801 7.94059 31.2441 7.94059C29.2521 7.94059 27.8361 9.47659 27.8361 12.0686V12.2606C27.8361 14.9966 29.1801 16.4366 31.3161 16.4366C32.8521 16.4366 34.1721 15.5246 34.3401 13.7486H37.0041C36.7881 16.6286 34.6041 18.6686 31.1961 18.6686ZM44.6408 16.4126C46.8008 16.4126 48.0968 14.8046 48.0968 12.2366V12.0686C48.0968 9.47659 46.8008 7.89259 44.6408 7.89259C42.4808 7.89259 41.1608 9.45259 41.1608 12.0446V12.2366C41.1608 14.8046 42.4328 16.4126 44.6408 16.4126ZM44.6168 18.6686C40.9208 18.6686 38.1848 16.1006 38.1848 12.2846V12.0926C38.1848 8.20459 40.9448 5.61259 44.6408 5.61259C48.3128 5.61259 51.0728 8.18059 51.0728 12.0206V12.2126C51.0728 16.1246 48.3128 18.6686 44.6168 18.6686ZM60.2247 18.6686C58.2327 18.6686 56.7927 17.6846 56.1207 16.4126V18.4286H53.2167V0.0685878H56.1207V7.89259C56.8167 6.69259 58.3767 5.61259 60.2247 5.61259C63.3687 5.61259 65.7927 7.94059 65.7927 11.9966V12.1886C65.7927 16.2206 63.4647 18.6686 60.2247 18.6686ZM59.5047 16.3646C61.6407 16.3646 62.8167 14.9246 62.8167 12.2366V12.0446C62.8167 9.26059 61.3767 7.89259 59.4807 7.89259C57.4647 7.89259 56.0247 9.26059 56.0247 12.0446V12.2366C56.0247 15.0446 57.3927 16.3646 59.5047 16.3646ZM67.9242 18.4286V5.87659H70.8282V8.22859C71.6202 6.64459 72.7962 5.70859 74.9082 5.68459V8.39659C72.3642 8.42059 70.8282 9.23659 70.8282 11.9006V18.4286H67.9242ZM82.2689 18.6686C78.5729 18.6686 75.9089 16.2446 75.9089 12.2846V12.0926C75.9089 8.20459 78.5729 5.61259 82.1489 5.61259C85.2689 5.61259 88.0769 7.46059 88.0769 11.9486V12.7886H78.8849C78.9809 15.1646 80.1809 16.5086 82.3409 16.5086C84.0929 16.5086 85.0049 15.8126 85.2209 14.5886H88.0289C87.6209 17.2286 85.4849 18.6686 82.2689 18.6686ZM78.9329 10.8446H85.1969C85.0529 8.68459 83.9489 7.72459 82.1489 7.72459C80.3969 7.72459 79.2209 8.90059 78.9329 10.8446ZM99.5815 4.00459L100.998 0.284588H104.214L101.718 4.00459H99.5815ZM100.95 18.6686C97.2535 18.6686 94.5895 16.2446 94.5895 12.2846V12.0926C94.5895 8.20459 97.2535 5.61259 100.83 5.61259C103.95 5.61259 106.758 7.46059 106.758 11.9486V12.7886H97.5655C97.6615 15.1646 98.8615 16.5086 101.022 16.5086C102.774 16.5086 103.686 15.8126 103.902 14.5886H106.71C106.302 17.2286 104.166 18.6686 100.95 18.6686ZM97.6135 10.8446H103.878C103.734 8.68459 102.63 7.72459 100.83 7.72459C99.0775 7.72459 97.9015 8.90059 97.6135 10.8446ZM119.63 18.6686C115.934 18.6686 113.27 16.2446 113.27 12.2846V12.0926C113.27 8.20459 115.934 5.61259 119.51 5.61259C122.63 5.61259 125.438 7.46059 125.438 11.9486V12.7886H116.246C116.342 15.1646 117.542 16.5086 119.702 16.5086C121.454 16.5086 122.366 15.8126 122.582 14.5886H125.39C124.982 17.2286 122.846 18.6686 119.63 18.6686ZM116.294 10.8446H122.558C122.414 8.68459 121.31 7.72459 119.51 7.72459C117.758 7.72459 116.582 8.90059 116.294 10.8446ZM131.965 18.6686C128.725 18.6686 126.829 17.1806 126.709 14.5166H129.445C129.589 15.7886 130.237 16.5326 131.941 16.5326C133.501 16.5326 134.197 15.9806 134.197 14.9246C134.197 13.8926 133.357 13.5086 131.509 13.1966C128.197 12.6686 126.973 11.7326 126.973 9.38059C126.973 6.86059 129.325 5.61259 131.677 5.61259C134.245 5.61259 136.285 6.57259 136.597 9.40459H133.909C133.669 8.25259 133.021 7.72459 131.677 7.72459C130.429 7.72459 129.685 8.32459 129.685 9.21259C129.685 10.1246 130.285 10.4846 132.277 10.8206C135.229 11.2766 136.981 11.9966 136.981 14.6606C136.981 17.2046 135.181 18.6686 131.965 18.6686ZM143.345 18.6686C140.105 18.6686 138.209 17.1806 138.089 14.5166H140.825C140.969 15.7886 141.617 16.5326 143.321 16.5326C144.881 16.5326 145.577 15.9806 145.577 14.9246C145.577 13.8926 144.737 13.5086 142.889 13.1966C139.577 12.6686 138.353 11.7326 138.353 9.38059C138.353 6.86059 140.705 5.61259 143.057 5.61259C145.625 5.61259 147.665 6.57259 147.977 9.40459H145.289C145.049 8.25259 144.401 7.72459 143.057 7.72459C141.809 7.72459 141.065 8.32459 141.065 9.21259C141.065 10.1246 141.665 10.4846 143.657 10.8206C146.609 11.2766 148.361 11.9966 148.361 14.6606C148.361 17.2046 146.561 18.6686 143.345 18.6686ZM155.948 18.6686C152.252 18.6686 149.588 16.2446 149.588 12.2846V12.0926C149.588 8.20459 152.252 5.61259 155.828 5.61259C158.948 5.61259 161.756 7.46059 161.756 11.9486V12.7886H152.564C152.66 15.1646 153.86 16.5086 156.02 16.5086C157.772 16.5086 158.684 15.8126 158.9 14.5886H161.708C161.3 17.2286 159.164 18.6686 155.948 18.6686ZM152.612 10.8446H158.876C158.732 8.68459 157.628 7.72459 155.828 7.72459C154.076 7.72459 152.9 8.90059 152.612 10.8446ZM163.87 18.4286V5.87659H166.774V7.86859C167.374 6.64459 168.766 5.61259 170.83 5.61259C173.35 5.61259 175.126 7.07659 175.126 10.5326V18.4286H172.222V10.7966C172.222 8.90059 171.454 8.03659 169.726 8.03659C168.094 8.03659 166.774 9.04459 166.774 11.0366V18.4286H163.87ZM183.487 18.6686C179.887 18.6686 177.151 16.3166 177.151 12.3086V12.1166C177.151 8.13259 179.983 5.61259 183.487 5.61259C186.271 5.61259 188.887 6.86059 189.223 10.3166H186.415C186.175 8.63659 185.071 7.94059 183.535 7.94059C181.543 7.94059 180.127 9.47659 180.127 12.0686V12.2606C180.127 14.9966 181.471 16.4366 183.607 16.4366C185.143 16.4366 186.463 15.5246 186.631 13.7486H189.295C189.079 16.6286 186.895 18.6686 183.487 18.6686ZM191.388 18.4286V5.87659H194.292V18.4286H191.388ZM192.804 3.81259C191.844 3.81259 191.076 3.09259 191.076 2.15659C191.076 1.19659 191.844 0.476588 192.804 0.476588C193.764 0.476588 194.532 1.19659 194.532 2.15659C194.532 3.09259 193.764 3.81259 192.804 3.81259ZM200.64 18.6686C198.336 18.6686 196.44 17.5646 196.44 14.9486C196.44 12.0206 199.272 10.9646 202.872 10.9646H204.432V10.3166C204.432 8.63659 203.856 7.79659 202.152 7.79659C200.64 7.79659 199.896 8.51659 199.752 9.76459H196.944C197.184 6.83659 199.512 5.61259 202.32 5.61259C205.128 5.61259 207.336 6.76459 207.336 10.1966V18.4286H204.48V16.8926C203.664 17.9726 202.56 18.6686 200.64 18.6686ZM201.336 16.5806C203.112 16.5806 204.432 15.6446 204.432 14.0366V12.7886H202.944C200.736 12.7886 199.32 13.2926 199.32 14.8286C199.32 15.8846 199.896 16.5806 201.336 16.5806ZM210.256 18.4286V0.0685878H213.16V18.4286H210.256Z" fill="black"/>
</svg>
