<svg width="220" height="24" viewBox="0 0 220 24" fill="none" xmlns="http://www.w3.org/2000/svg">
<path d="M0.634992 18.4286V1.26859H6.15499C9.99499 1.26859 12.515 2.97259 12.515 6.57259V6.66859C12.515 10.2926 9.89899 11.9006 6.22699 11.9006H3.82699V18.4286H0.634992ZM3.82699 9.59659H6.15499C8.26699 9.59659 9.39499 8.56459 9.39499 6.66859V6.57259C9.39499 4.53259 8.19499 3.74059 6.15499 3.74059H3.82699V9.59659ZM19.8044 16.4126C21.9644 16.4126 23.2604 14.8046 23.2604 12.2366V12.0686C23.2604 9.47659 21.9644 7.89259 19.8044 7.89259C17.6444 7.89259 16.3244 9.45259 16.3244 12.0446V12.2366C16.3244 14.8046 17.5964 16.4126 19.8044 16.4126ZM19.7804 18.6686C16.0844 18.6686 13.3484 16.1006 13.3484 12.2846V12.0926C13.3484 8.20459 16.1084 5.61259 19.8044 5.61259C23.4764 5.61259 26.2364 8.18059 26.2364 12.0206V12.2126C26.2364 16.1246 23.4764 18.6686 19.7804 18.6686ZM32.6523 18.6446C30.1563 18.6446 28.8603 17.3006 28.8603 14.9246V8.06059H27.1803V5.87659H28.8603V3.11659H31.7643V5.87659H34.5243V8.06059H31.7643V14.6606C31.7643 15.7646 32.2923 16.2686 33.2043 16.2686C33.7803 16.2686 34.2123 16.1966 34.6203 16.0286V18.3326C34.1643 18.5006 33.5403 18.6446 32.6523 18.6446ZM40.1649 18.6686C37.8609 18.6686 35.9649 17.5646 35.9649 14.9486C35.9649 12.0206 38.7969 10.9646 42.3969 10.9646H43.9569V10.3166C43.9569 8.63659 43.3809 7.79659 41.6769 7.79659C40.1649 7.79659 39.4209 8.51659 39.2769 9.76459H36.4689C36.7089 6.83659 39.0369 5.61259 41.8449 5.61259C44.6529 5.61259 46.8609 6.76459 46.8609 10.1966V18.4286H44.0049V16.8926C43.1889 17.9726 42.0849 18.6686 40.1649 18.6686ZM40.8609 16.5806C42.6369 16.5806 43.9569 15.6446 43.9569 14.0366V12.7886H42.4689C40.2609 12.7886 38.8449 13.2926 38.8449 14.8286C38.8449 15.8846 39.4209 16.5806 40.8609 16.5806ZM40.6449 4.00459L42.0609 0.284588H45.2769L42.7809 4.00459H40.6449ZM54.0054 18.6686C50.7654 18.6686 48.8694 17.1806 48.7494 14.5166H51.4854C51.6294 15.7886 52.2774 16.5326 53.9814 16.5326C55.5414 16.5326 56.2374 15.9806 56.2374 14.9246C56.2374 13.8926 55.3974 13.5086 53.5494 13.1966C50.2374 12.6686 49.0134 11.7326 49.0134 9.38059C49.0134 6.86059 51.3654 5.61259 53.7174 5.61259C56.2854 5.61259 58.3254 6.57259 58.6374 9.40459H55.9494C55.7094 8.25259 55.0614 7.72459 53.7174 7.72459C52.4694 7.72459 51.7254 8.32459 51.7254 9.21259C51.7254 10.1246 52.3254 10.4846 54.3174 10.8206C57.2694 11.2766 59.0214 11.9966 59.0214 14.6606C59.0214 17.2046 57.2214 18.6686 54.0054 18.6686ZM65.3847 18.6686C62.1447 18.6686 60.2487 17.1806 60.1287 14.5166H62.8647C63.0087 15.7886 63.6567 16.5326 65.3607 16.5326C66.9207 16.5326 67.6167 15.9806 67.6167 14.9246C67.6167 13.8926 66.7767 13.5086 64.9287 13.1966C61.6167 12.6686 60.3927 11.7326 60.3927 9.38059C60.3927 6.86059 62.7447 5.61259 65.0967 5.61259C67.6647 5.61259 69.7047 6.57259 70.0167 9.40459H67.3287C67.0887 8.25259 66.4407 7.72459 65.0967 7.72459C63.8487 7.72459 63.1047 8.32459 63.1047 9.21259C63.1047 10.1246 63.7047 10.4846 65.6967 10.8206C68.6487 11.2766 70.4007 11.9966 70.4007 14.6606C70.4007 17.2046 68.6007 18.6686 65.3847 18.6686ZM72.5401 18.4286V5.87659H75.4441V18.4286H72.5401ZM73.9561 3.81259C72.9961 3.81259 72.2281 3.09259 72.2281 2.15659C72.2281 1.19659 72.9961 0.476588 73.9561 0.476588C74.9161 0.476588 75.6841 1.19659 75.6841 2.15659C75.6841 3.09259 74.9161 3.81259 73.9561 3.81259ZM84.1197 16.4126C86.2797 16.4126 87.5757 14.8046 87.5757 12.2366V12.0686C87.5757 9.47659 86.2797 7.89259 84.1197 7.89259C81.9597 7.89259 80.6397 9.45259 80.6397 12.0446V12.2366C80.6397 14.8046 81.9117 16.4126 84.1197 16.4126ZM84.0957 18.6686C80.3997 18.6686 77.6637 16.1006 77.6637 12.2846V12.0926C77.6637 8.20459 80.4237 5.61259 84.1197 5.61259C87.7917 5.61259 90.5517 8.18059 90.5517 12.0206V12.2126C90.5517 16.1246 87.7917 18.6686 84.0957 18.6686ZM93.8142 18.5966C92.7582 18.5966 91.9182 17.7806 91.9182 16.7246C91.9182 15.6686 92.7582 14.8286 93.8142 14.8286C94.8942 14.8286 95.7342 15.6686 95.7342 16.7246C95.7342 17.7806 94.8942 18.5966 93.8142 18.5966ZM109.854 18.6686C105.174 18.6686 103.206 16.3406 102.966 13.1006H106.038C106.254 14.8286 106.95 16.2686 109.854 16.2686C111.75 16.2686 113.094 15.2126 113.094 13.6286C113.094 12.0446 112.302 11.4446 109.518 10.9886C105.414 10.4366 103.47 9.18859 103.47 5.97259C103.47 3.16459 105.87 1.05259 109.446 1.05259C113.142 1.05259 115.35 2.73259 115.686 6.02059H112.758C112.446 4.22059 111.414 3.45259 109.446 3.45259C107.502 3.45259 106.494 4.38859 106.494 5.70859C106.494 7.10059 107.07 7.79659 110.046 8.22859C114.078 8.78059 116.166 9.93259 116.166 13.3646C116.166 16.3406 113.646 18.6686 109.854 18.6686ZM124.057 18.6686C120.361 18.6686 117.697 16.2446 117.697 12.2846V12.0926C117.697 8.20459 120.361 5.61259 123.937 5.61259C127.057 5.61259 129.865 7.46059 129.865 11.9486V12.7886H120.673C120.769 15.1646 121.969 16.5086 124.129 16.5086C125.881 16.5086 126.793 15.8126 127.009 14.5886H129.817C129.409 17.2286 127.273 18.6686 124.057 18.6686ZM120.721 10.8446H126.985C126.841 8.68459 125.737 7.72459 123.937 7.72459C122.185 7.72459 121.009 8.90059 120.721 10.8446ZM137.331 23.0366C133.395 23.0366 131.619 21.2606 131.283 18.8606H134.211C134.451 20.1086 135.411 20.8286 137.307 20.8286C139.563 20.8286 140.811 19.7006 140.811 17.4446V15.5966C140.115 16.7966 138.555 17.9246 136.707 17.9246C133.563 17.9246 131.139 15.5726 131.139 11.9486V11.7806C131.139 8.25259 133.539 5.61259 136.779 5.61259C138.843 5.61259 140.091 6.54859 140.811 7.79659V5.87659H143.715V17.4926C143.691 21.1886 141.219 23.0366 137.331 23.0366ZM137.427 15.6926C139.443 15.6926 140.907 14.2526 140.907 11.8526V11.6846C140.907 9.30859 139.611 7.89259 137.523 7.89259C135.363 7.89259 134.115 9.45259 134.115 11.7326V11.9246C134.115 14.2526 135.555 15.6926 137.427 15.6926ZM150.886 18.6686C148.414 18.6686 146.566 17.2526 146.566 13.9166V5.87659H149.47V13.5806C149.47 15.4766 150.262 16.3406 151.942 16.3406C153.502 16.3406 154.87 15.3326 154.87 13.3406V5.87659H157.774V18.4286H154.87V16.4606C154.246 17.6846 152.926 18.6686 150.886 18.6686ZM160.737 18.4286V5.87659H163.641V8.22859C164.433 6.64459 165.609 5.70859 167.721 5.68459V8.39659C165.177 8.42059 163.641 9.23659 163.641 11.9006V18.4286H160.737ZM172.85 18.6686C170.546 18.6686 168.65 17.5646 168.65 14.9486C168.65 12.0206 171.482 10.9646 175.082 10.9646H176.642V10.3166C176.642 8.63659 176.066 7.79659 174.362 7.79659C172.85 7.79659 172.106 8.51659 171.962 9.76459H169.154C169.394 6.83659 171.722 5.61259 174.53 5.61259C177.338 5.61259 179.546 6.76459 179.546 10.1966V18.4286H176.69V16.8926C175.874 17.9726 174.77 18.6686 172.85 18.6686ZM173.546 16.5806C175.322 16.5806 176.642 15.6446 176.642 14.0366V12.7886H175.154C172.946 12.7886 171.53 13.2926 171.53 14.8286C171.53 15.8846 172.106 16.5806 173.546 16.5806ZM182.395 18.4286V5.87659H185.299V7.86859C185.899 6.64459 187.291 5.61259 189.355 5.61259C191.875 5.61259 193.651 7.07659 193.651 10.5326V18.4286H190.747V10.7966C190.747 8.90059 189.979 8.03659 188.251 8.03659C186.619 8.03659 185.299 9.04459 185.299 11.0366V18.4286H182.395ZM201.58 23.6846C200.068 23.6846 199.084 22.8686 198.94 21.5726H200.524C200.596 21.9806 200.908 22.3646 201.484 22.3646C202.036 22.3646 202.372 22.0286 202.372 21.5486C202.372 21.0926 202.036 20.7806 201.532 20.7806C201.196 20.7806 200.956 20.9006 200.812 20.9966L199.996 20.2286L200.956 18.5966C197.884 18.1886 195.676 15.9326 195.676 12.3086V12.1166C195.676 8.13259 198.508 5.61259 202.012 5.61259C204.796 5.61259 207.412 6.86059 207.748 10.3166H204.94C204.7 8.63659 203.596 7.94059 202.06 7.94059C200.068 7.94059 198.652 9.47659 198.652 12.0686V12.2606C198.652 14.9966 199.996 16.4366 202.132 16.4366C203.668 16.4366 204.988 15.5246 205.156 13.7486H207.82C207.604 16.5326 205.564 18.5246 202.348 18.6686L201.796 19.6286C202.996 19.4846 204.196 20.1086 204.196 21.6206C204.196 22.9646 203.068 23.6846 201.58 23.6846ZM213.129 18.6686C210.825 18.6686 208.929 17.5646 208.929 14.9486C208.929 12.0206 211.761 10.9646 215.361 10.9646H216.921V10.3166C216.921 8.63659 216.345 7.79659 214.641 7.79659C213.129 7.79659 212.385 8.51659 212.241 9.76459H209.433C209.673 6.83659 212.001 5.61259 214.809 5.61259C217.617 5.61259 219.825 6.76459 219.825 10.1966V18.4286H216.969V16.8926C216.153 17.9726 215.049 18.6686 213.129 18.6686ZM213.825 16.5806C215.601 16.5806 216.921 15.6446 216.921 14.0366V12.7886H215.433C213.225 12.7886 211.809 13.2926 211.809 14.8286C211.809 15.8846 212.385 16.5806 213.825 16.5806Z" fill="black"/>
</svg>
