<svg width="166" height="24" viewBox="0 0 166 24" fill="none" xmlns="http://www.w3.org/2000/svg">
<path d="M8.84 16.672C12.08 16.672 14.12 14.2 14.12 10.48V10.288C14.12 6.76 12.152 4.144 8.792 4.144C5.432 4.144 3.44 6.616 3.44 10.312V10.504C3.44 14.248 5.72 16.672 8.84 16.672ZM8.792 19.24C3.536 19.24 0.104 15.472 0.104 10.528V10.336C0.104 5.32 3.704 1.6 8.792 1.6C13.904 1.6 17.432 5.224 17.432 10.264V10.456C17.432 15.472 14 19.24 8.792 19.24ZM25.5376 19V8.632H23.8336V6.448H25.5376V4.768C25.5376 2.008 27.0736 0.519999 29.7616 0.519999C30.4576 0.519999 30.8896 0.592 31.4176 0.759999V3.016C31.0816 2.896 30.6256 2.8 30.0976 2.8C28.9216 2.8 28.4416 3.568 28.4416 4.648V6.448H31.2976V8.632H28.4416V19H25.5376ZM37.4489 19.24C34.9769 19.24 33.1289 17.824 33.1289 14.488V6.448H36.0329V14.152C36.0329 16.048 36.8249 16.912 38.5049 16.912C40.0649 16.912 41.4329 15.904 41.4329 13.912V6.448H44.3369V19H41.4329V17.032C40.8089 18.256 39.4889 19.24 37.4489 19.24ZM51.5722 19.216C49.0762 19.216 47.7802 17.872 47.7802 15.496V8.632H46.1002V6.448H47.7802V3.688H50.6842V6.448H53.4442V8.632H50.6842V15.232C50.6842 16.336 51.2122 16.84 52.1242 16.84C52.7002 16.84 53.1322 16.768 53.5402 16.6V18.904C53.0842 19.072 52.4602 19.216 51.5722 19.216ZM59.8796 19.24C57.4076 19.24 55.5596 17.824 55.5596 14.488V6.448H58.4636V14.152C58.4636 16.048 59.2556 16.912 60.9356 16.912C62.4956 16.912 63.8636 15.904 63.8636 13.912V6.448H66.7676V19H63.8636V17.032C63.2396 18.256 61.9196 19.24 59.8796 19.24ZM69.7308 19V6.448H72.6348V8.8C73.4268 7.216 74.6028 6.28 76.7148 6.256V8.968C74.1708 8.992 72.6348 9.808 72.6348 12.472V19H69.7308ZM84.1715 16.984C86.3315 16.984 87.6275 15.376 87.6275 12.808V12.64C87.6275 10.048 86.3315 8.464 84.1715 8.464C82.0115 8.464 80.6915 10.024 80.6915 12.616V12.808C80.6915 15.376 81.9635 16.984 84.1715 16.984ZM84.1475 19.24C80.4515 19.24 77.7155 16.672 77.7155 12.856V12.664C77.7155 8.776 80.4755 6.184 84.1715 6.184C87.8435 6.184 90.6035 8.752 90.6035 12.592V12.784C90.6035 16.696 87.8435 19.24 84.1475 19.24ZM96.3301 23.512V21.28C97.6021 21.184 98.0581 20.56 98.0581 19.504V6.448H100.962V19.432C100.962 21.976 99.8101 23.464 96.3301 23.512ZM99.4741 4.384C98.5141 4.384 97.7461 3.664 97.7461 2.728C97.7461 1.768 98.5141 1.048 99.4741 1.048C100.434 1.048 101.202 1.768 101.202 2.728C101.202 3.664 100.434 4.384 99.4741 4.384ZM107.31 19.24C105.006 19.24 103.11 18.136 103.11 15.52C103.11 12.592 105.942 11.536 109.542 11.536H111.102V10.888C111.102 9.208 110.526 8.368 108.822 8.368C107.31 8.368 106.566 9.088 106.422 10.336H103.614C103.854 7.408 106.182 6.184 108.99 6.184C111.798 6.184 114.006 7.336 114.006 10.768V19H111.15V17.464C110.334 18.544 109.23 19.24 107.31 19.24ZM108.006 17.152C109.782 17.152 111.102 16.216 111.102 14.608V13.36H109.614C107.406 13.36 105.99 13.864 105.99 15.4C105.99 16.456 106.566 17.152 108.006 17.152ZM107.79 4.576L109.206 0.855999H112.422L109.926 4.576H107.79ZM127.613 19.24C123.917 19.24 121.253 16.816 121.253 12.856V12.664C121.253 8.776 123.917 6.184 127.493 6.184C130.613 6.184 133.421 8.032 133.421 12.52V13.36H124.229C124.325 15.736 125.525 17.08 127.685 17.08C129.437 17.08 130.349 16.384 130.565 15.16H133.373C132.965 17.8 130.829 19.24 127.613 19.24ZM124.277 11.416H130.541C130.397 9.256 129.293 8.296 127.493 8.296C125.741 8.296 124.565 9.472 124.277 11.416ZM139.948 19.24C136.708 19.24 134.812 17.752 134.692 15.088H137.428C137.572 16.36 138.22 17.104 139.924 17.104C141.484 17.104 142.18 16.552 142.18 15.496C142.18 14.464 141.34 14.08 139.492 13.768C136.18 13.24 134.956 12.304 134.956 9.952C134.956 7.432 137.308 6.184 139.66 6.184C142.228 6.184 144.268 7.144 144.58 9.976H141.892C141.652 8.824 141.004 8.296 139.66 8.296C138.412 8.296 137.668 8.896 137.668 9.784C137.668 10.696 138.268 11.056 140.26 11.392C143.212 11.848 144.964 12.568 144.964 15.232C144.964 17.776 143.164 19.24 139.948 19.24ZM151.303 19.216C148.807 19.216 147.511 17.872 147.511 15.496V8.632H145.831V6.448H147.511V3.688H150.415V6.448H153.175V8.632H150.415V15.232C150.415 16.336 150.943 16.84 151.855 16.84C152.431 16.84 152.863 16.768 153.271 16.6V18.904C152.815 19.072 152.191 19.216 151.303 19.216ZM158.816 19.24C156.512 19.24 154.616 18.136 154.616 15.52C154.616 12.592 157.448 11.536 161.048 11.536H162.608V10.888C162.608 9.208 162.032 8.368 160.328 8.368C158.816 8.368 158.072 9.088 157.928 10.336H155.12C155.36 7.408 157.688 6.184 160.496 6.184C163.304 6.184 165.512 7.336 165.512 10.768V19H162.656V17.464C161.84 18.544 160.736 19.24 158.816 19.24ZM159.512 17.152C161.288 17.152 162.608 16.216 162.608 14.608V13.36H161.12C158.912 13.36 157.496 13.864 157.496 15.4C157.496 16.456 158.072 17.152 159.512 17.152ZM159.296 4.576L160.712 0.855999H163.928L161.432 4.576H159.296Z" fill="#DD5900"/>
</svg>
