<?xml version="1.0" encoding="utf-8"?>
<!-- Generator: Adobe Illustrator 27.7.0, SVG Export Plug-In . SVG Version: 6.00 Build 0)  -->
<svg version="1.1" id="Layer_1" xmlns="http://www.w3.org/2000/svg" xmlns:xlink="http://www.w3.org/1999/xlink" x="0px" y="0px"
	 viewBox="0 0 59.8 57" style="enable-background:new 0 0 59.8 57;" xml:space="preserve">
<style type="text/css">
	.st0{fill:#B2BECC;}
	.st1{fill:#4D6989;}
</style>
<g>
	<g>
		<path class="st0" d="M28.5,57C12.8,57,0,44.2,0,28.5S12.8,0,28.5,0S57,12.8,57,28.5S44.2,57,28.5,57z"/>
		<path class="st0" d="M0,28.5C0,12.8,12.8,0,28.5,0c14.1,0,25.8,10.2,28.1,23.7l0,0l3.2,18.1L53,43c-3.9,6.6-10.5,11.5-18.2,13.3
			L18,55C7.4,50.8,0,40.5,0,28.5z"/>
		<path class="st1" d="M42.2,26.7h4.1v4.1h-4.1V26.7z"/>
	</g>
</g>
</svg>
