<svg width="122" height="60" viewBox="0 0 122 60" fill="none" xmlns="http://www.w3.org/2000/svg">
<path d="M57.0842 13.1995V19.5986H47.7798V10.2942H54.1789C55.7819 10.2942 57.0842 11.5966 57.0842 13.1995Z" fill="white"/>
<path d="M57.0842 28.9029H47.7798V38.2074H57.0842V28.9029Z" fill="white"/>
<path d="M38.4754 10.2942H29.1709V19.5986H38.4754V10.2942Z" fill="#FFD000"/>
<path d="M19.8665 17.7515V10.2942H10.562V35.3022C10.562 36.9052 11.8644 38.2075 13.4673 38.2075H19.8665V30.7502C19.8665 29.7296 20.693 28.9031 21.7136 28.9031H29.1709V19.5986H21.7136C20.693 19.5986 19.8665 18.7721 19.8665 17.7515Z" fill="white"/>
<path d="M38.4754 28.9029H29.1709V38.2074H38.4754V28.9029Z" fill="white"/>
<path d="M20.7055 48.445C20.0668 48.445 19.5471 48.2384 19.1214 47.8064C18.7018 47.3806 18.4952 46.8546 18.4952 46.2034C18.4952 45.5523 18.6956 44.995 19.1214 44.5692C19.5409 44.1372 20.0731 43.9305 20.7305 43.9305C21.3567 43.9305 21.8701 44.1434 22.2959 44.5755C22.7217 45.0075 22.9283 45.5272 22.9283 46.1659C22.9283 46.8045 22.7217 47.3555 22.2959 47.7938C21.8701 48.2321 21.3504 48.445 20.7055 48.445ZM23.2288 43.749C22.5526 43.104 21.7011 42.7847 20.693 42.7847C19.6849 42.7847 18.8333 43.1103 18.1696 43.749C17.5059 44.3939 17.1678 45.2204 17.1678 46.1972C17.1678 47.174 17.5059 47.9629 18.1634 48.6016C18.8208 49.234 19.6598 49.5596 20.6429 49.5596C21.6259 49.5596 22.5338 49.2402 23.2163 48.6016C23.8988 47.9629 24.2494 47.1489 24.2494 46.1784C24.2494 45.2079 23.9051 44.3939 23.2288 43.749ZM50.8729 42.8598V46.5603C50.8729 47.6185 50.466 48.3448 49.2826 48.3448C48.0991 48.3448 47.6922 47.6185 47.6922 46.5603V42.8598H46.4086V46.8358C46.4086 48.7894 47.7297 49.5596 49.2826 49.5596C50.8354 49.5596 52.1565 48.7957 52.1565 46.8358V42.8598H50.8729ZM43.1339 42.8598V48.3261H45.9139V49.4719H41.8565V42.8598H43.1339ZM38.5192 45.8465C39.1516 45.8465 39.6901 45.5523 39.6901 44.9261C39.6901 44.3 39.3269 44.0057 38.5192 44.0057H37.749V45.8465H38.5192ZM38.8824 42.8598C40.2724 42.8598 40.9674 43.7615 40.9674 44.9198C40.9674 46.0782 40.1033 46.9924 38.8323 46.9924H37.749V49.4719H36.4717V42.8598H38.8824ZM35.6014 42.8598V44.0057H33.4287V49.4719H32.1513V44.0057H29.9786V42.8598H35.6014ZM55.2246 42.7722C55.8696 42.7722 56.4894 42.935 57.0843 43.2543V44.5567C56.3955 44.1434 55.9384 43.8867 55.2434 43.8867C54.5484 43.8867 54.3105 44.1247 54.2917 44.4502C54.2729 44.7007 54.4294 44.9136 54.7613 45.1265C54.8552 45.1891 55.2058 45.3707 55.832 45.6775C56.3642 45.9405 56.7649 46.216 57.0029 46.529C57.2408 46.8421 57.366 47.2178 57.366 47.6561C57.366 48.2259 57.1594 48.683 56.7524 49.0336C56.3454 49.3842 55.8132 49.5596 55.162 49.5596C54.7425 49.5596 54.3731 49.5157 54.0725 49.4218C53.7657 49.3279 53.4276 49.1713 53.0457 48.9397V47.487C53.7532 48.0756 54.3981 48.4388 55.0243 48.4388C55.6128 48.4388 56.0073 48.2133 56.0073 47.8126C56.0073 47.5434 55.8821 47.2992 55.5565 47.1051C55.2872 46.9423 54.9303 46.7607 54.5108 46.529C54.0099 46.2535 53.6029 46.0031 53.3462 45.6837C53.0895 45.3644 52.958 45.0138 52.958 44.6005C52.958 44.0433 53.1646 43.605 53.5779 43.2731C53.9911 42.9412 54.5359 42.7784 55.2184 42.7784M27.2361 42.7722C27.8811 42.7722 28.5009 42.935 29.0958 43.2543V44.5567C28.4133 44.1434 27.9499 43.8867 27.2549 43.8867C26.5599 43.8867 26.322 44.1247 26.3032 44.4502C26.2844 44.7007 26.4409 44.9136 26.7728 45.1265C26.8667 45.1891 27.2174 45.3707 27.8435 45.6775C28.3757 45.9405 28.7764 46.216 29.0206 46.529C29.2586 46.8421 29.3775 47.2178 29.3775 47.6561C29.3775 48.2259 29.1709 48.683 28.7639 49.0336C28.3569 49.3842 27.8247 49.5596 27.1735 49.5596C26.7477 49.5596 26.3846 49.5157 26.084 49.4218C25.7835 49.3279 25.4391 49.1713 25.0572 48.9397V47.487C25.7647 48.0756 26.4096 48.4388 27.0358 48.4388C27.6243 48.4388 28.0188 48.2133 28.0188 47.8126C28.0188 47.5434 27.8998 47.2992 27.568 47.1051C27.2988 46.9423 26.9419 46.7607 26.5223 46.529C26.0214 46.2535 25.6144 46.0031 25.3577 45.6837C25.101 45.3644 24.9695 45.0138 24.9695 44.6005C24.9695 44.0433 25.1761 43.605 25.5894 43.2731C26.0026 42.9412 26.5474 42.7784 27.2299 42.7784M11.8393 42.8598V45.4959H14.9763V42.8598H16.2536V49.4719H14.9763V46.8296H11.8393V49.4719H10.562V42.8598H11.8393Z" fill="white"/>
<line x1="67.9421" y1="10.2034" x2="67.9421" y2="49.7966" stroke="white" stroke-width="0.316746"/>
<g clip-path="url(#clip0_16733_107395)">
<path d="M107.337 10.2247H77.9194V49.7753H107.337V10.2247Z" fill="#0098BB"/>
<path d="M92.6716 19.2563L96.1773 22.7619L101.203 22.7416L92.6716 14.21L81.6111 25.2676L84.1371 27.7908L92.6716 19.2563Z" fill="white"/>
<path d="M101.206 22.7444L92.6716 31.279L89.2067 27.814L84.1575 27.8111L92.6716 36.3252L103.729 25.2676L101.206 22.7444Z" fill="#F5EB00"/>
<path d="M82.7826 43.9529C81.928 43.732 81.7652 43.7 81.7652 43.4355C81.7652 43.1477 82.0413 43.0489 82.2797 43.0489C82.6372 43.0489 82.9308 43.1535 82.9541 43.5663H83.6808C83.6808 42.7785 83.0268 42.4675 82.3146 42.4675C81.6983 42.4675 81.0385 42.8018 81.0385 43.4994C81.0385 44.1389 81.5501 44.3366 82.0559 44.4703C82.5588 44.604 83.0675 44.6651 83.0675 45.0342C83.0675 45.4034 82.6663 45.4586 82.4047 45.4586C82.0035 45.4586 81.6489 45.2813 81.6489 44.8279H80.9222C80.9135 45.6679 81.6198 46.04 82.3756 46.04C83.3029 46.04 83.7942 45.572 83.7942 44.947C83.7942 44.1738 83.0297 44.0139 82.7826 43.9529Z" fill="white"/>
<path d="M85.6024 44.7814C85.6024 45.2843 85.4454 45.4877 85.0762 45.4877C84.7623 45.4877 84.6402 45.2872 84.6402 44.8802V43.4849H83.9629V45.0052C83.9629 45.6156 84.1431 46.0226 84.8669 46.0226C85.1547 46.0226 85.4512 45.8889 85.6227 45.6127H85.6372V45.9557H86.2826V43.4849H85.6053V44.7785L85.6024 44.7814Z" fill="white"/>
<path d="M87.9395 43.421C87.6343 43.421 87.3669 43.5402 87.2041 43.8018H87.1954V43.4878H86.55V46.8278H87.2273V45.6534H87.2361C87.3988 45.8976 87.6808 46.0255 87.9773 46.0255C88.6982 46.0255 89.0616 45.4093 89.0616 44.7494C89.0616 44.046 88.7127 43.421 87.9395 43.421ZM87.7971 45.5139C87.3582 45.5139 87.2041 45.1302 87.2041 44.7291C87.2041 44.3279 87.3465 43.9326 87.7913 43.9326C88.236 43.9326 88.3843 44.3396 88.3843 44.7291C88.3843 45.1186 88.2418 45.5139 87.7971 45.5139Z" fill="white"/>
<path d="M90.4422 43.421C89.6923 43.421 89.1807 43.9849 89.1807 44.7262C89.1807 45.4674 89.6632 46.0255 90.4422 46.0255C91.0004 46.0255 91.4073 45.7784 91.5992 45.1942H91.0033C90.9597 45.3482 90.7416 45.5139 90.4684 45.5139C90.0905 45.5139 89.8812 45.3192 89.8609 44.8889H91.6428C91.6893 44.1303 91.2852 43.421 90.4451 43.421H90.4422ZM89.8609 44.4587C89.8696 44.2669 89.9946 43.9326 90.4248 43.9326C90.7533 43.9326 90.9015 44.1128 90.9655 44.4587H89.8609Z" fill="white"/>
<path d="M92.4595 43.9471H92.4507V43.4878H91.8054V45.9587H92.4827V44.8453C92.4827 44.4093 92.6542 44.0518 93.1513 44.0518C93.2327 44.0518 93.3897 44.0838 93.4507 44.0983V43.453C93.4071 43.4384 93.2937 43.421 93.2472 43.421C92.9187 43.421 92.5845 43.6361 92.4595 43.9471Z" fill="white"/>
<path d="M94.3637 43.1477H95.9043V42.5111H93.605V45.9731H94.3637V44.543H95.9101V43.95H94.3637V43.1477Z" fill="white"/>
<path d="M97.8458 44.7784C97.8458 45.2871 97.6859 45.4964 97.3109 45.4964C96.9912 45.4964 96.8691 45.2929 96.8691 44.8801V43.4645H96.1802V45.0051C96.1802 45.6272 96.3633 46.0371 97.0958 46.0371C97.3865 46.0371 97.6888 45.9004 97.8632 45.6214H97.8778V45.9702H98.5318V43.4645H97.8429V44.7784H97.8458Z" fill="white"/>
<path d="M100.253 43.3977C99.9622 43.3977 99.6628 43.5343 99.4855 43.8134H99.4709V43.4645H98.8169V45.9702H99.5058V44.6563C99.5058 44.1476 99.6657 43.9384 100.038 43.9384C100.358 43.9384 100.48 44.1418 100.48 44.5546V45.9702H101.169V44.4267C101.169 43.8046 100.985 43.3948 100.253 43.3948V43.3977Z" fill="white"/>
<path d="M103.206 43.7697H103.2C103.04 43.5227 102.75 43.3977 102.453 43.3977C101.715 43.3977 101.343 44.0226 101.343 44.697C101.343 45.3714 101.712 46.04 102.468 46.04C102.787 46.04 103.069 45.9237 103.229 45.6534H103.238V45.9731H103.892V42.5111H103.203V43.7727L103.206 43.7697ZM102.636 45.5226C102.209 45.5226 102.029 45.1098 102.029 44.7174C102.029 44.3046 102.183 43.918 102.636 43.918C103.09 43.918 103.229 44.3046 103.229 44.7145C103.229 45.1243 103.093 45.5255 102.636 45.5255V45.5226Z" fill="white"/>
<path d="M88.4655 37.9473H87.7156V41.3571H88.4655V37.9473Z" fill="white"/>
<path d="M89.4073 40.0636C89.4073 39.5607 89.5642 39.3572 89.9334 39.3572C90.2473 39.3572 90.3694 39.5578 90.3694 39.9647V41.36H91.0467V39.8397C91.0467 39.2293 90.8665 38.8223 90.1427 38.8223C89.8549 38.8223 89.5584 38.956 89.3869 39.2322H89.3724V38.8892H88.7271V41.36H89.4043V40.0665L89.4073 40.0636Z" fill="white"/>
<path d="M93.0787 41.0431H93.0874V41.3571H93.7327V37.9473H93.0554V39.1885H93.0496C92.8926 38.9444 92.6049 38.8194 92.3142 38.8194C91.5875 38.8194 91.2212 39.4356 91.2212 40.0984C91.2212 40.7612 91.5845 41.421 92.3287 41.421C92.6426 41.421 92.9217 41.3076 93.0787 41.0402V41.0431ZM91.8985 40.1187C91.8985 39.7118 92.0526 39.331 92.4944 39.331C92.9362 39.331 93.0787 39.7118 93.0787 40.1158C93.0787 40.5199 92.945 40.9123 92.4944 40.9123C92.0729 40.9123 91.8985 40.5054 91.8985 40.1187Z" fill="white"/>
<path d="M94.8372 41.4239C95.1249 41.4239 95.4214 41.2902 95.5929 41.0141H95.6075V41.3571H96.2528V38.8863H95.5755V40.1798C95.5755 40.6827 95.4185 40.8862 95.0494 40.8862C94.7325 40.8862 94.6133 40.6856 94.6133 40.2786V38.8834H93.936V40.4036C93.936 41.0141 94.1163 41.421 94.8401 41.421L94.8372 41.4239Z" fill="white"/>
<path d="M97.8895 39.8717C97.5029 39.7816 97.1192 39.7467 97.1192 39.5025C97.1192 39.3019 97.343 39.2729 97.4971 39.2729C97.7413 39.2729 97.9419 39.3455 97.9593 39.6072H98.6046C98.5523 38.9996 98.0552 38.8194 97.5146 38.8194C96.9739 38.8194 96.439 38.9822 96.439 39.613C96.439 40.049 96.8314 40.1856 97.2239 40.2728C97.7122 40.3775 97.9942 40.4501 97.9942 40.6536C97.9942 40.892 97.7471 40.9676 97.5494 40.9676C97.282 40.9676 97.0349 40.8484 97.0291 40.5519H96.3838C96.4129 41.2059 96.971 41.421 97.5436 41.421C98.1163 41.421 98.6715 41.2117 98.6715 40.5606C98.6715 40.1013 98.2849 39.9589 97.8866 39.8688L97.8895 39.8717Z" fill="white"/>
<path d="M99.0581 40.7989C99.0581 41.2902 99.4214 41.3861 99.8371 41.3861C99.9708 41.3861 100.119 41.3803 100.232 41.3629V40.8338C100.16 40.8484 100.093 40.8542 100.023 40.8542C99.7935 40.8542 99.7354 40.796 99.7354 40.5664V39.3426H100.232V38.8891H99.7354V38.1479H99.0581V38.8891H98.6482V39.3426H99.0581V40.7989Z" fill="white"/>
<path d="M101.93 39.4647L102.572 41.203C102.648 41.3978 102.511 41.6652 102.212 41.6856C102.2 41.6856 102.189 41.6856 102.177 41.6856V42.3251H102.25C102.657 42.3047 103.017 42.1739 103.206 41.7117L104.238 38.8863H103.535L102.994 40.5781H102.985L102.427 38.8601C102.427 38.8601 101.689 38.8456 101.683 38.8456C101.436 38.8456 101.157 39.0345 101.035 39.3456H101.026V38.8863H100.381V41.3571H101.058V40.2438C101.058 39.8077 101.229 39.4502 101.726 39.4502C101.779 39.4502 101.86 39.456 101.927 39.4647H101.93Z" fill="white"/>
<path d="M82.0588 40.6042H83.3378L83.5966 41.3658H84.3785L83.0995 37.9473H82.3292L81.0327 41.3658H81.7943L82.0617 40.6042H82.0588ZM82.7012 38.7903H82.71L83.1402 40.0461H82.2536L82.6983 38.7903H82.7012Z" fill="white"/>
<path d="M85.0674 40.0664C85.0674 39.5636 85.2244 39.3572 85.5936 39.3572C85.9104 39.3572 86.0296 39.5577 86.0296 39.9647V41.3629H86.7098V39.8397C86.7098 39.2264 86.5267 38.8194 85.8058 38.8194C85.518 38.8194 85.2215 38.9531 85.05 39.2322H85.0355V38.8863H84.3901V41.3629H85.0703V40.0635L85.0674 40.0664Z" fill="white"/>
<path d="M107.337 10.2247H77.9194V49.7753H107.337V10.2247Z" fill="#0098BB"/>
<path d="M92.6716 19.2563L96.1773 22.7619L101.203 22.7416L92.6716 14.21L81.6111 25.2676L84.1371 27.7908L92.6716 19.2563Z" fill="white"/>
<path d="M101.206 22.7444L92.6716 31.279L89.2067 27.814L84.1575 27.8111L92.6716 36.3252L103.729 25.2676L101.206 22.7444Z" fill="#F5EB00"/>
<path d="M82.7826 43.9529C81.928 43.732 81.7652 43.7 81.7652 43.4355C81.7652 43.1477 82.0413 43.0489 82.2797 43.0489C82.6372 43.0489 82.9308 43.1535 82.9541 43.5663H83.6808C83.6808 42.7785 83.0268 42.4675 82.3146 42.4675C81.6983 42.4675 81.0385 42.8018 81.0385 43.4994C81.0385 44.1389 81.5501 44.3366 82.0559 44.4703C82.5588 44.604 83.0675 44.6651 83.0675 45.0342C83.0675 45.4034 82.6663 45.4586 82.4047 45.4586C82.0035 45.4586 81.6489 45.2813 81.6489 44.8279H80.9222C80.9135 45.6679 81.6198 46.04 82.3756 46.04C83.3029 46.04 83.7942 45.572 83.7942 44.947C83.7942 44.1738 83.0297 44.0139 82.7826 43.9529Z" fill="white"/>
<path d="M85.6024 44.7814C85.6024 45.2843 85.4454 45.4877 85.0762 45.4877C84.7623 45.4877 84.6402 45.2872 84.6402 44.8802V43.4849H83.9629V45.0052C83.9629 45.6156 84.1431 46.0226 84.8669 46.0226C85.1547 46.0226 85.4512 45.8889 85.6227 45.6127H85.6372V45.9557H86.2826V43.4849H85.6053V44.7785L85.6024 44.7814Z" fill="white"/>
<path d="M87.9395 43.421C87.6343 43.421 87.3669 43.5402 87.2041 43.8018H87.1954V43.4878H86.55V46.8278H87.2273V45.6534H87.2361C87.3988 45.8976 87.6808 46.0255 87.9773 46.0255C88.6982 46.0255 89.0616 45.4093 89.0616 44.7494C89.0616 44.046 88.7127 43.421 87.9395 43.421ZM87.7971 45.5139C87.3582 45.5139 87.2041 45.1302 87.2041 44.7291C87.2041 44.3279 87.3465 43.9326 87.7913 43.9326C88.236 43.9326 88.3843 44.3396 88.3843 44.7291C88.3843 45.1186 88.2418 45.5139 87.7971 45.5139Z" fill="white"/>
<path d="M90.4422 43.421C89.6923 43.421 89.1807 43.9849 89.1807 44.7262C89.1807 45.4674 89.6632 46.0255 90.4422 46.0255C91.0004 46.0255 91.4073 45.7784 91.5992 45.1942H91.0033C90.9597 45.3482 90.7416 45.5139 90.4684 45.5139C90.0905 45.5139 89.8812 45.3192 89.8609 44.8889H91.6428C91.6893 44.1303 91.2852 43.421 90.4451 43.421H90.4422ZM89.8609 44.4587C89.8696 44.2669 89.9946 43.9326 90.4248 43.9326C90.7533 43.9326 90.9015 44.1128 90.9655 44.4587H89.8609Z" fill="white"/>
<path d="M92.4595 43.9471H92.4507V43.4878H91.8054V45.9587H92.4827V44.8453C92.4827 44.4093 92.6542 44.0518 93.1513 44.0518C93.2327 44.0518 93.3897 44.0838 93.4507 44.0983V43.453C93.4071 43.4384 93.2937 43.421 93.2472 43.421C92.9187 43.421 92.5845 43.6361 92.4595 43.9471Z" fill="white"/>
<path d="M94.3637 43.1477H95.9043V42.5111H93.605V45.9731H94.3637V44.543H95.9101V43.95H94.3637V43.1477Z" fill="white"/>
<path d="M97.8458 44.7784C97.8458 45.2871 97.6859 45.4964 97.3109 45.4964C96.9912 45.4964 96.8691 45.2929 96.8691 44.8801V43.4645H96.1802V45.0051C96.1802 45.6272 96.3633 46.0371 97.0958 46.0371C97.3865 46.0371 97.6888 45.9004 97.8632 45.6214H97.8778V45.9702H98.5318V43.4645H97.8429V44.7784H97.8458Z" fill="white"/>
<path d="M100.253 43.3977C99.9622 43.3977 99.6628 43.5343 99.4855 43.8134H99.4709V43.4645H98.8169V45.9702H99.5058V44.6563C99.5058 44.1476 99.6657 43.9384 100.038 43.9384C100.358 43.9384 100.48 44.1418 100.48 44.5546V45.9702H101.169V44.4267C101.169 43.8046 100.985 43.3948 100.253 43.3948V43.3977Z" fill="white"/>
<path d="M103.206 43.7697H103.2C103.04 43.5227 102.75 43.3977 102.453 43.3977C101.715 43.3977 101.343 44.0226 101.343 44.697C101.343 45.3714 101.712 46.04 102.468 46.04C102.787 46.04 103.069 45.9237 103.229 45.6534H103.238V45.9731H103.892V42.5111H103.203V43.7727L103.206 43.7697ZM102.636 45.5226C102.209 45.5226 102.029 45.1098 102.029 44.7174C102.029 44.3046 102.183 43.918 102.636 43.918C103.09 43.918 103.229 44.3046 103.229 44.7145C103.229 45.1243 103.093 45.5255 102.636 45.5255V45.5226Z" fill="white"/>
<path d="M88.4655 37.9473H87.7156V41.3571H88.4655V37.9473Z" fill="white"/>
<path d="M89.4073 40.0636C89.4073 39.5607 89.5642 39.3572 89.9334 39.3572C90.2473 39.3572 90.3694 39.5578 90.3694 39.9647V41.36H91.0467V39.8397C91.0467 39.2293 90.8665 38.8223 90.1427 38.8223C89.8549 38.8223 89.5584 38.956 89.3869 39.2322H89.3724V38.8892H88.7271V41.36H89.4043V40.0665L89.4073 40.0636Z" fill="white"/>
<path d="M93.0787 41.0431H93.0874V41.3571H93.7327V37.9473H93.0554V39.1885H93.0496C92.8926 38.9444 92.6049 38.8194 92.3142 38.8194C91.5875 38.8194 91.2212 39.4356 91.2212 40.0984C91.2212 40.7612 91.5845 41.421 92.3287 41.421C92.6426 41.421 92.9217 41.3076 93.0787 41.0402V41.0431ZM91.8985 40.1187C91.8985 39.7118 92.0526 39.331 92.4944 39.331C92.9362 39.331 93.0787 39.7118 93.0787 40.1158C93.0787 40.5199 92.945 40.9123 92.4944 40.9123C92.0729 40.9123 91.8985 40.5054 91.8985 40.1187Z" fill="white"/>
<path d="M94.8372 41.4239C95.1249 41.4239 95.4214 41.2902 95.5929 41.0141H95.6075V41.3571H96.2528V38.8863H95.5755V40.1798C95.5755 40.6827 95.4185 40.8862 95.0494 40.8862C94.7325 40.8862 94.6133 40.6856 94.6133 40.2786V38.8834H93.936V40.4036C93.936 41.0141 94.1163 41.421 94.8401 41.421L94.8372 41.4239Z" fill="white"/>
<path d="M97.8895 39.8717C97.5029 39.7816 97.1192 39.7467 97.1192 39.5025C97.1192 39.3019 97.343 39.2729 97.4971 39.2729C97.7413 39.2729 97.9419 39.3455 97.9593 39.6072H98.6046C98.5523 38.9996 98.0552 38.8194 97.5146 38.8194C96.9739 38.8194 96.439 38.9822 96.439 39.613C96.439 40.049 96.8314 40.1856 97.2239 40.2728C97.7122 40.3775 97.9942 40.4501 97.9942 40.6536C97.9942 40.892 97.7471 40.9676 97.5494 40.9676C97.282 40.9676 97.0349 40.8484 97.0291 40.5519H96.3838C96.4129 41.2059 96.971 41.421 97.5436 41.421C98.1163 41.421 98.6715 41.2117 98.6715 40.5606C98.6715 40.1013 98.2849 39.9589 97.8866 39.8688L97.8895 39.8717Z" fill="white"/>
<path d="M99.0581 40.7989C99.0581 41.2902 99.4214 41.3861 99.8371 41.3861C99.9708 41.3861 100.119 41.3803 100.232 41.3629V40.8338C100.16 40.8484 100.093 40.8542 100.023 40.8542C99.7935 40.8542 99.7354 40.796 99.7354 40.5664V39.3426H100.232V38.8891H99.7354V38.1479H99.0581V38.8891H98.6482V39.3426H99.0581V40.7989Z" fill="white"/>
<path d="M101.93 39.4647L102.572 41.203C102.648 41.3978 102.511 41.6652 102.212 41.6856C102.2 41.6856 102.189 41.6856 102.177 41.6856V42.3251H102.25C102.657 42.3047 103.017 42.1739 103.206 41.7117L104.238 38.8863H103.535L102.994 40.5781H102.985L102.427 38.8601C102.427 38.8601 101.689 38.8456 101.683 38.8456C101.436 38.8456 101.157 39.0345 101.035 39.3456H101.026V38.8863H100.381V41.3571H101.058V40.2438C101.058 39.8077 101.229 39.4502 101.726 39.4502C101.779 39.4502 101.86 39.456 101.927 39.4647H101.93Z" fill="white"/>
<path d="M82.0588 40.6042H83.3378L83.5966 41.3658H84.3785L83.0995 37.9473H82.3292L81.0327 41.3658H81.7943L82.0617 40.6042H82.0588ZM82.7012 38.7903H82.71L83.1402 40.0461H82.2536L82.6983 38.7903H82.7012Z" fill="white"/>
<path d="M85.0674 40.0664C85.0674 39.5636 85.2244 39.3572 85.5936 39.3572C85.9104 39.3572 86.0296 39.5577 86.0296 39.9647V41.3629H86.7098V39.8397C86.7098 39.2264 86.5267 38.8194 85.8058 38.8194C85.518 38.8194 85.2215 38.9531 85.05 39.2322H85.0355V38.8863H84.3901V41.3629H85.0703V40.0635L85.0674 40.0664Z" fill="white"/>
</g>
<defs>
<clipPath id="clip0_16733_107395">
<rect width="29.4173" height="39.5506" fill="white" transform="translate(77.9194 10.2247)"/>
</clipPath>
</defs>
</svg>
