<?xml version="1.0" encoding="UTF-8"?>
<svg id="Layer_1" data-name="Layer 1" xmlns="http://www.w3.org/2000/svg" width="1280" height="100" version="1.1" viewBox="0 0 1280 100">
  <rect width="1280" height="100" fill="#002855" stroke-width="0"/>
  <path id="F1_text_02" d="M12.2,66v-24h9.8c1.7,0,3.1.2,4.2.5s2,.9,2.6,1.5c.6.6,1.1,1.3,1.3,2,.3.7.4,1.5.4,2.2s-.2,1.7-.6,2.4c-.4.7-.9,1.2-1.4,1.7-.5.4-1,.7-1.5.9.6.2,1.3.5,2,1,.7.5,1.4,1.1,1.9,1.9.6.8.8,1.8.8,3,0,2.4-.8,4.1-2.5,5.2-1.7,1.1-4.1,1.7-7.3,1.7h-9.8ZM18.4,51.6h2.8c.7,0,1.4-.2,2-.5.6-.4.9-1,.9-1.9s-.3-1.7-.9-2.1c-.6-.4-1.2-.5-1.9-.5h-2.8v5.1ZM18.4,61.5h3.2c.5,0,1,0,1.6-.2.6-.1,1.1-.4,1.4-.8.4-.4.6-1,.6-1.9s-.2-1.4-.6-1.8c-.4-.4-.9-.7-1.4-.8-.6-.1-1.1-.2-1.6-.2h-3.2v5.7ZM34.6,66v-24h17.3v5.5h-10.9v3.7h9v5.2h-9v4.1h11.7v5.5h-18ZM53.6,63l3.9-4.6c.7.7,1.5,1.3,2.6,1.8,1.1.6,2.3.8,3.6.8s1.3-.1,1.9-.4.9-.8.9-1.5-.3-1.1-1-1.5c-.6-.4-1.6-.8-2.8-1.2l-1.3-.4c-1-.3-2-.8-3-1.3-1-.6-1.8-1.3-2.4-2.2-.6-.9-.9-2-.9-3.3s.3-2.8,1-4c.7-1.2,1.8-2.1,3.2-2.8,1.4-.7,3.1-1,5.1-1s3,.2,4.1.5c1.2.4,2.1.8,2.9,1.3.8.5,1.3.9,1.7,1.3l-3.2,4.1c-.8-.6-1.7-1.1-2.6-1.5-.9-.4-1.8-.6-2.8-.6s-1.2.1-1.8.4c-.6.3-.8.7-.8,1.4s.3,1.3,1,1.6c.7.3,1.5.7,2.6,1l1.2.4c.8.2,1.6.6,2.4.9.8.4,1.6.8,2.3,1.4.7.6,1.2,1.3,1.7,2.2.4.9.6,1.9.6,3.2s-.4,2.8-1.3,3.9c-.9,1.2-2,2.1-3.5,2.7-1.5.6-3.1,1-4.9,1s-4.4-.3-6-1c-1.6-.6-3-1.5-4.1-2.6ZM82.4,66v-18.4h-7.4v-5.6h21.1v5.6h-7.3v18.4h-6.4ZM102.8,63l3.9-4.6c.7.7,1.5,1.3,2.6,1.8,1.1.6,2.3.8,3.6.8s1.3-.1,1.9-.4.9-.8.9-1.5-.3-1.1-1-1.5c-.6-.4-1.6-.8-2.8-1.2l-1.3-.4c-1-.3-2-.8-3-1.3-1-.6-1.8-1.3-2.4-2.2-.6-.9-.9-2-.9-3.3s.3-2.8,1-4c.7-1.2,1.8-2.1,3.2-2.8,1.4-.7,3.1-1,5.1-1s3,.2,4.1.5c1.2.4,2.1.8,2.9,1.3s1.3.9,1.7,1.3l-3.2,4.1c-.8-.6-1.7-1.1-2.6-1.5-.9-.4-1.8-.6-2.8-.6s-1.2.1-1.8.4c-.6.3-.8.7-.8,1.4s.3,1.3,1,1.6,1.5.7,2.6,1l1.2.4c.8.2,1.6.6,2.4.9.8.4,1.6.8,2.3,1.4.7.6,1.2,1.3,1.7,2.2.4.9.6,1.9.6,3.2s-.4,2.8-1.3,3.9c-.9,1.2-2,2.1-3.5,2.7-1.5.6-3.1,1-4.9,1s-4.4-.3-6-1c-1.6-.6-3-1.5-4.1-2.6ZM125.5,56.6v-14.7h6.4v14.1c0,1.3.3,2.4.9,3.2.6.8,1.6,1.3,3.1,1.3s2.4-.4,3-1.3c.6-.9.9-1.9.9-3.2v-14.1h6.4v14.7c0,2-.4,3.8-1.3,5.3-.9,1.5-2.1,2.6-3.7,3.5-1.5.8-3.3,1.2-5.3,1.2s-3.8-.4-5.4-1.2-2.8-1.9-3.7-3.4c-.9-1.5-1.3-3.3-1.3-5.4ZM150,66v-24h9.8c2.6,0,4.6.7,6.2,2.1,1.6,1.3,2.3,3.3,2.3,5.9s-.4,3.1-1.1,4.3c-.7,1.2-1.7,2.1-3,2.8-1.2.6-2.7,1-4.3,1h-3.7v8h-6.2ZM156.2,53h3c.9,0,1.5-.3,2.1-.8.5-.6.8-1.3.8-2.1s-.2-1.6-.7-2.2c-.5-.6-1.2-.8-2.1-.8h-3v6ZM171.1,66v-24h17.3v5.5h-10.9v3.7h9v5.2h-9v4.1h11.7v5.5h-18ZM192.1,66v-24h9.9c2.6,0,4.6.7,6.2,2,1.6,1.3,2.3,3.3,2.3,5.9s-.3,2.9-1,4.1c-.7,1.2-1.6,2.1-2.8,2.8l5.1,9.2h-6.8l-4.1-8.2h-2.7v8.2h-6.2ZM198.3,52.8h3.1c.8,0,1.5-.3,2.1-.8.5-.5.8-1.2.8-2.1s-.3-1.6-.8-2.2c-.5-.5-1.2-.8-2.1-.8h-3.1v5.8ZM220.5,66v-24h16.7v5.6h-10.4v4.6h8v5.3h-8v8.5h-6.4ZM239.6,56.6v-14.7h6.4v14.1c0,1.3.3,2.4.9,3.2.6.8,1.6,1.3,3.1,1.3s2.4-.4,3-1.3c.6-.9.9-1.9.9-3.2v-14.1h6.4v14.7c0,2-.4,3.8-1.3,5.3-.9,1.5-2.1,2.6-3.7,3.5-1.5.8-3.3,1.2-5.3,1.2s-3.8-.4-5.4-1.2c-1.6-.8-2.8-1.9-3.7-3.4-.9-1.5-1.3-3.3-1.3-5.4ZM264.1,66v-24h5.8l9.2,13.4v-13.4h6.3v24h-5.4l-9.6-13.8v13.8h-6.3ZM289.4,66v-24h9.2c2.5,0,4.7.4,6.6,1.3,1.9.8,3.5,2.2,4.6,4,1.1,1.8,1.7,4.1,1.7,6.9s-.6,4.8-1.7,6.6c-1.1,1.8-2.7,3.1-4.6,4-1.9.9-4.1,1.3-6.6,1.3h-9.2ZM295.8,60.4h2.6c2.1,0,3.7-.6,4.8-1.8,1.2-1.2,1.7-2.7,1.7-4.6s-.5-3.5-1.6-4.6c-1.1-1.2-2.7-1.8-5-1.8h-2.6v12.8ZM324.7,66l-5.8-24h6.7l3.1,16.1,3.8-15.5h5.8l3.8,15.5,3.1-16.1h6.5l-6,24h-6.7l-3.8-15.2-3.8,15.2h-6.8ZM353.8,66v-24h6.4v24h-6.4ZM364.1,66v-24h5.8l9.2,13.4v-13.4h6.3v24h-5.4l-9.6-13.8v13.8h-6.3ZM389.4,66v-24h5.8l9.2,13.4v-13.4h6.3v24h-5.4l-9.6-13.8v13.8h-6.3ZM414.7,66v-24h17.3v5.5h-10.9v3.7h9v5.2h-9v4.1h11.7v5.5h-18ZM435.7,66v-24h9.9c2.6,0,4.6.7,6.2,2,1.6,1.3,2.3,3.3,2.3,5.9s-.3,2.9-1,4.1c-.7,1.2-1.6,2.1-2.8,2.8l5.1,9.2h-6.8l-4.1-8.2h-2.7v8.2h-6.2ZM441.9,52.8h3.1c.8,0,1.5-.3,2.1-.8.5-.5.8-1.2.8-2.1s-.3-1.6-.8-2.2-1.2-.8-2.1-.8h-3.1v5.8Z" fill="#ffd000" stroke-width="0"/>
  <path id="F1_text_01" d="M12.2,34V10h6.4v8.8h8.9v-8.8h6.4v24h-6.4v-9.4h-8.9v9.4h-6.4ZM49.3,34.6c-1.8,0-3.5-.3-5-.9-1.5-.6-2.8-1.5-4-2.6-1.1-1.2-2-2.5-2.6-4-.6-1.5-.9-3.2-.9-5s.3-3.5.9-5c.6-1.5,1.5-2.9,2.6-4,1.1-1.1,2.4-2,4-2.6,1.5-.6,3.2-.9,5-.9s3.5.3,5,.9c1.5.6,2.9,1.5,4,2.6,1.1,1.1,2,2.5,2.6,4,.6,1.5.9,3.2.9,5s-.3,3.5-.9,5c-.6,1.5-1.5,2.9-2.6,4-1.1,1.1-2.5,2-4,2.6-1.5.6-3.2.9-5,.9ZM49.3,28.6c1.3,0,2.3-.3,3.2-.9.9-.6,1.6-1.4,2-2.4.5-1,.7-2.1.7-3.3s-.2-2.3-.7-3.3c-.5-1-1.1-1.8-2-2.4-.9-.6-1.9-.9-3.2-.9s-2.3.3-3.2.9c-.9.6-1.5,1.4-2,2.4-.5,1-.7,2.1-.7,3.3s.2,2.3.7,3.3c.5,1,1.2,1.8,2,2.4.9.6,2,.9,3.2.9ZM62.4,31l3.9-4.6c.7.7,1.5,1.3,2.6,1.8,1.1.6,2.3.8,3.6.8s1.3-.1,1.9-.4.9-.8.9-1.5-.3-1.1-1-1.5c-.6-.4-1.6-.8-2.8-1.2l-1.3-.4c-1-.3-2-.8-3-1.3-1-.6-1.8-1.3-2.4-2.2-.6-.9-.9-2-.9-3.3s.3-2.8,1-4c.7-1.2,1.8-2.1,3.2-2.8,1.4-.7,3.1-1,5.1-1s3,.2,4.1.5c1.2.4,2.1.8,2.9,1.3.8.5,1.3.9,1.7,1.3l-3.2,4.1c-.8-.6-1.7-1.1-2.6-1.5-.9-.4-1.8-.6-2.8-.6s-1.2.1-1.8.4c-.6.3-.8.7-.8,1.4s.3,1.3,1,1.6c.7.3,1.5.7,2.6,1l1.2.4c.8.2,1.6.6,2.4.9.8.4,1.6.8,2.3,1.4s1.2,1.3,1.7,2.2c.4.9.6,1.9.6,3.2s-.4,2.8-1.3,3.9c-.9,1.2-2,2.1-3.5,2.7-1.5.6-3.1,1-4.9,1s-4.4-.3-6-1c-1.6-.6-3-1.5-4.1-2.6ZM91.2,34V15.6h-7.4v-5.6h21.1v5.6h-7.3v18.4h-6.4ZM107.5,34V10h9.8c2.6,0,4.6.7,6.2,2.1,1.6,1.3,2.3,3.3,2.3,5.9s-.4,3.1-1.1,4.3c-.7,1.2-1.7,2.1-3,2.8-1.2.6-2.7,1-4.3,1h-3.7v8h-6.2ZM113.7,21h3c.9,0,1.5-.3,2.1-.8.5-.6.8-1.3.8-2.1s-.2-1.6-.7-2.2c-.5-.6-1.2-.8-2.1-.8h-3v6ZM128.6,34V10h6.4v18.4h11.1v5.6h-17.5ZM148.2,24.6v-14.7h6.4v14.1c0,1.3.3,2.4.9,3.2.6.8,1.6,1.3,3.1,1.3s2.4-.4,3-1.3c.6-.9.9-1.9.9-3.2v-14.1h6.4v14.7c0,2-.4,3.8-1.3,5.3-.9,1.5-2.1,2.6-3.7,3.5-1.5.8-3.3,1.2-5.3,1.2s-3.8-.4-5.4-1.2c-1.6-.8-2.8-1.9-3.7-3.4-.9-1.5-1.3-3.3-1.3-5.4ZM170.7,31l3.9-4.6c.7.7,1.5,1.3,2.6,1.8,1.1.6,2.3.8,3.6.8s1.3-.1,1.9-.4c.6-.3.9-.8.9-1.5s-.3-1.1-1-1.5c-.6-.4-1.6-.8-2.8-1.2l-1.3-.4c-1-.3-2-.8-3-1.3-1-.6-1.8-1.3-2.4-2.2-.6-.9-.9-2-.9-3.3s.3-2.8,1-4c.7-1.2,1.8-2.1,3.2-2.8,1.4-.7,3.1-1,5.1-1s3,.2,4.1.5c1.2.4,2.1.8,2.9,1.3.8.5,1.3.9,1.7,1.3l-3.2,4.1c-.8-.6-1.7-1.1-2.6-1.5-.9-.4-1.8-.6-2.8-.6s-1.2.1-1.8.4c-.6.3-.8.7-.8,1.4s.3,1.3,1,1.6c.7.3,1.5.7,2.6,1l1.2.4c.8.2,1.6.6,2.4.9.8.4,1.6.8,2.3,1.4s1.2,1.3,1.7,2.2c.4.9.6,1.9.6,3.2s-.4,2.8-1.3,3.9c-.9,1.2-2,2.1-3.5,2.7-1.5.6-3.1,1-4.9,1s-4.4-.3-6-1c-1.6-.6-3-1.5-4.1-2.6Z" fill="#fff" stroke-width="0"/>
  <g id="CTA">
    <rect x="873" y="26" width="166.5" height="50" fill="#ffd000" stroke-width="0"/>
    <path d="M896.8,52.8l1.5,1.4c-.3.4-.6.7-1.1,1-.4.3-.9.6-1.4.8-.5.2-1.1.3-1.7.3-1,0-1.9-.2-2.7-.7-.8-.4-1.4-1.1-1.8-1.8-.4-.8-.6-1.7-.6-2.7s.1-1.4.4-2.1c.2-.6.6-1.2,1-1.7.5-.5,1-.8,1.6-1.1.6-.3,1.3-.4,2.1-.4s1.7.2,2.4.5c.7.3,1.3.8,1.7,1.5l-1.5,1.5c-.3-.4-.6-.7-1.1-1-.4-.3-.9-.4-1.5-.4s-1.1.1-1.5.4c-.4.3-.8.7-1,1.1-.2.5-.3,1-.3,1.6s.1,1.1.3,1.6c.2.5.6.8,1,1.1.4.3.9.4,1.5.4s.9,0,1.2-.2c.3-.1.6-.3.8-.5.2-.2.4-.4.6-.7ZM899.1,52.5c0-.7.2-1.3.5-1.9.3-.6.8-1,1.3-1.3.6-.3,1.2-.5,2-.5s1.4.2,1.9.5c.6.3,1,.8,1.3,1.3.3.6.5,1.2.5,1.9s-.2,1.3-.5,1.9c-.3.6-.7,1-1.3,1.4-.6.3-1.2.5-1.9.5s-1.4-.2-2-.5c-.6-.3-1-.8-1.3-1.4-.3-.6-.5-1.2-.5-1.9ZM902.9,54.4c.4,0,.7,0,.9-.3.2-.2.4-.4.6-.7.1-.3.2-.6.2-.9s0-.6-.2-.9c-.1-.3-.3-.5-.6-.7-.2-.2-.5-.3-.9-.3s-.7,0-.9.3c-.2.2-.4.4-.6.7-.1.3-.2.6-.2.9s0,.6.2.9c.1.3.3.5.6.7.3.2.6.3.9.3ZM907.9,56v-7h2.1v.8c.3-.3.6-.5.9-.7.3-.2.7-.3,1.2-.3s1,.1,1.3.3c.3.2.6.4.7.7.3-.3.6-.5,1-.7.4-.2.8-.3,1.3-.3.9,0,1.6.3,2,.8.5.5.7,1.2.7,2.1v4.3h-2.1v-4c0-.4,0-.7-.3-1-.2-.2-.5-.4-.8-.4s-.7.1-1,.4c-.2.3-.4.7-.4,1.1v3.7h-2.1v-4c0-.4,0-.7-.3-1-.2-.2-.5-.4-.8-.4s-.7.1-1,.4c-.3.3-.4.7-.4,1.1v3.7h-2.1ZM920.7,59v-10h2.1c0,.1,0,.3,0,.4,0,.1,0,.2,0,.4.2-.3.5-.5.9-.7.4-.2.7-.2,1.1-.2.7,0,1.3.2,1.7.5s.8.8,1,1.3c.2.5.3,1.1.3,1.7s-.1,1.2-.3,1.7c-.2.5-.5.9-.8,1.2-.4.3-.7.5-1.2.7-.4.1-.9.2-1.3.2s-.6,0-.8,0c-.2,0-.4-.1-.6-.2v3h-2.1ZM922.8,52.3v1.9c.3.2.7.3,1.2.3s.9-.2,1.2-.5c.3-.4.5-.8.5-1.4s0-.6-.1-.9c0-.3-.2-.5-.5-.7-.2-.2-.5-.3-.8-.3s-.8.2-1.1.5c-.2.3-.4.7-.4,1.1ZM933.3,56v-.7c-.6.6-1.3.9-2.2.9s-.7,0-1-.2c-.4-.1-.7-.3-.9-.7-.3-.3-.4-.8-.4-1.3s.1-1,.4-1.4c.3-.4.7-.7,1.2-.8.5-.2,1-.3,1.6-.3s.5,0,.7,0c.3,0,.4,0,.5,0h0c0-.5-.1-.8-.4-.9-.3-.2-.6-.2-.9-.2s-.9,0-1.2.2c-.3.1-.6.3-.8.4l-.9-1.3c.3-.2.7-.4,1.2-.6.5-.2,1.2-.3,2-.3s1.8.3,2.3.9c.5.6.8,1.3.8,2.3v4.1h-2ZM933.2,53.5v-.6s-.1,0-.3,0c-.1,0-.3,0-.5,0-.6,0-1,0-1.3.3-.2.2-.4.4-.4.7,0,.6.3.9,1,.9s.6-.1.9-.3c.3-.2.4-.5.4-.9ZM936.8,56v-7h2.1v.9c.3-.2.5-.5.8-.7.3-.2.7-.3,1.2-.3s.3,0,.5,0c.1,0,.3,0,.4.1l-.3,1.9c-.2,0-.5-.1-.8-.1-.5,0-.9.2-1.2.5-.3.3-.5.7-.5,1.3v3.5h-2.1ZM948.1,53.9l.9,1.4c0,0-.3.2-.5.3-.2.2-.6.3-1,.4-.4.1-.9.2-1.5.2s-1.5-.2-2.1-.5c-.6-.3-1-.8-1.3-1.3-.3-.6-.5-1.2-.5-1.9s.1-1.3.4-1.8c.3-.6.7-1,1.2-1.4.5-.3,1.2-.5,1.9-.5s1.4.2,1.9.5c.5.3.9.8,1.2,1.4.3.6.4,1.3.4,2.1v.4h-5c0,.4.2.7.5,1,.3.3.8.4,1.3.4s1,0,1.4-.2c.3-.2.6-.3.8-.4ZM944.2,51.8h2.9c0-.2,0-.4-.2-.6,0-.2-.3-.4-.5-.5-.2-.1-.5-.2-.8-.2s-.6,0-.8.2c-.2.1-.4.3-.5.5-.1.2-.2.4-.2.6ZM953.2,56v-9.9h2.2v3.8h4.3v-3.8h2.2v9.9h-2.2v-4.1h-4.3v4.1h-2.2ZM963.5,52.5c0-.7.2-1.3.5-1.9.3-.6.8-1,1.3-1.3.6-.3,1.2-.5,2-.5s1.4.2,1.9.5c.6.3,1,.8,1.3,1.3.3.6.5,1.2.5,1.9s-.2,1.3-.5,1.9c-.3.6-.7,1-1.3,1.4-.6.3-1.2.5-1.9.5s-1.4-.2-2-.5c-.6-.3-1-.8-1.3-1.4-.3-.6-.5-1.2-.5-1.9ZM967.2,54.4c.4,0,.7,0,.9-.3.2-.2.4-.4.6-.7.1-.3.2-.6.2-.9s0-.6-.2-.9c-.1-.3-.3-.5-.6-.7-.2-.2-.5-.3-.9-.3s-.7,0-.9.3c-.2.2-.4.4-.6.7-.1.3-.2.6-.2.9s0,.6.2.9c.1.3.3.5.6.7.3.2.6.3.9.3ZM971.9,55.2l1.1-1.4c.2.2.5.4.9.5.4.1.7.2,1.1.2s.6,0,.8-.1c.2,0,.3-.2.3-.5s0-.2-.1-.3c0,0-.2-.2-.5-.3-.2,0-.6-.2-1-.3-.4,0-.7-.2-1-.4-.3-.2-.6-.4-.8-.7-.2-.3-.3-.6-.3-1.1s.1-.8.4-1.1c.3-.3.6-.6,1.1-.8.4-.2.9-.3,1.5-.3s1.1,0,1.6.2c.5.1.9.3,1.2.6l-.9,1.4c-.2-.1-.5-.3-.8-.4-.3-.1-.6-.2-1-.2s-.6,0-.7.1c-.1,0-.2.2-.2.4,0,.2.2.4.5.5.3.1.7.2,1.2.4.7.2,1.2.5,1.5.8.3.3.5.8.5,1.4s-.1.9-.4,1.3c-.3.3-.7.6-1.2.7-.5.2-1,.2-1.5.2s-1.2,0-1.8-.3c-.6-.2-1-.4-1.4-.8ZM979.8,53.3v-2.6h-1.1v-1.7h1.1v-2.3h2.1v2.3h1.8v1.7h-1.8v2.8c0,.3,0,.6.2.8.1.2.4.3.6.3s.4,0,.6-.1c.2,0,.3-.2.4-.3l.9,1.3c-.7.5-1.4.8-2.2.8s-1.2-.1-1.6-.4c-.4-.2-.7-.6-.8-1-.2-.4-.2-.9-.2-1.5ZM985.5,59v-10h2.1c0,.1,0,.3,0,.4,0,.1,0,.2,0,.4.2-.3.5-.5.9-.7.4-.2.7-.2,1.1-.2.7,0,1.3.2,1.7.5s.8.8,1,1.3c.2.5.3,1.1.3,1.7s-.1,1.2-.3,1.7c-.2.5-.5.9-.8,1.2-.4.3-.7.5-1.2.7-.4.1-.9.2-1.3.2s-.6,0-.8,0c-.2,0-.4-.1-.6-.2v3h-2.1ZM987.6,52.3v1.9c.3.2.7.3,1.2.3s.9-.2,1.2-.5c.3-.4.5-.8.5-1.4s0-.6-.1-.9c0-.3-.2-.5-.5-.7-.2-.2-.5-.3-.8-.3s-.8.2-1.1.5c-.2.3-.4.7-.4,1.1ZM993.9,56v-9.9h2.1v9.9h-2.1ZM997.6,53.4v-4.3h2.1v4c0,.4,0,.7.3.9.2.2.5.3.9.3s.8-.2,1-.5c.2-.3.4-.7.4-1.1v-3.8h2.1v7h-2.1v-.7c-.3.3-.6.5-1,.7-.4.2-.8.3-1.2.3-.8,0-1.4-.2-1.9-.7-.5-.5-.7-1.2-.7-2.1ZM1005.7,55.2l1-1.4c.2.2.5.4.9.5.4.1.7.2,1.1.2s.6,0,.8-.1c.2,0,.3-.2.3-.5s0-.2-.1-.3c0,0-.2-.2-.5-.3-.2,0-.6-.2-1-.3-.4,0-.7-.2-1-.4-.3-.2-.6-.4-.8-.7-.2-.3-.3-.6-.3-1.1s.1-.8.4-1.1c.2-.3.6-.6,1-.8.5-.2,1-.3,1.5-.3s1.1,0,1.6.2c.5.1.9.3,1.2.6l-.9,1.4c-.2-.1-.5-.3-.8-.4-.3-.1-.6-.2-1-.2s-.6,0-.7.1c-.2,0-.2.2-.2.4,0,.2.2.4.5.5.3.1.7.2,1.2.4.7.2,1.2.5,1.5.8.3.3.5.8.5,1.4s-.2.9-.5,1.3c-.3.3-.7.6-1.2.7-.5.2-1,.2-1.5.2s-1.2,0-1.8-.3c-.5-.2-1-.4-1.3-.8Z" fill="#002855" stroke-width="0"/>
    <path d="M1019.5,45.8l5.2,5.2-5.2,5.2" fill="none" stroke="#002855" stroke-linecap="round" stroke-width="2.2"/>
  </g>
  <g id="ClickTerms">
    <path d="M18.2,86.9l.8.7c-.1.2-.3.4-.6.7-.3.3-.6.5-1.1.7-.4.2-.9.3-1.5.3s-1.5-.2-2.1-.5c-.6-.4-1.1-.9-1.4-1.5-.3-.6-.5-1.4-.5-2.2s0-1.1.3-1.7c.2-.5.5-1,.8-1.4.4-.4.8-.7,1.3-.9.5-.2,1.1-.3,1.7-.3s1.1,0,1.5.3c.4.2.8.4,1,.6.3.2.5.5.6.7l-.8.7c-.1-.2-.3-.4-.5-.6-.2-.2-.4-.4-.7-.5-.3-.1-.7-.2-1.1-.2s-1.1.1-1.5.4c-.4.3-.8.7-1,1.2-.2.5-.3,1-.3,1.6s.1,1.1.3,1.6c.2.5.6.9,1,1.1.4.3.9.4,1.5.4s.9,0,1.2-.2c.3-.2.6-.3.7-.5.2-.2.3-.4.4-.5ZM20.1,89v-8.2h1.1v8.2h-1.1ZM22.7,82.3v-1.2h1.2v1.2h-1.2ZM22.8,89v-5.7h1.1v5.7h-1.1ZM29.7,87.5l.7.7c-.3.3-.6.5-.9.7-.4.2-.8.3-1.3.3s-1.1-.1-1.6-.4c-.4-.3-.8-.6-1-1.1-.2-.5-.4-1-.4-1.6s.1-1.1.4-1.5c.3-.5.6-.8,1.1-1.1.5-.3,1-.4,1.6-.4s.9,0,1.3.3c.4.2.7.4.9.7l-.7.7c-.2-.2-.4-.4-.6-.5-.2-.1-.5-.2-.9-.2s-.7,0-1,.3c-.3.2-.5.4-.6.7-.1.3-.2.6-.2,1s0,.7.2,1c.2.3.4.6.6.8.3.2.6.3,1,.3s.6,0,.9-.2c.3-.1.5-.3.7-.5ZM31.5,89v-8.2h1.1v4.8l2.4-2.3h1.3l-2.2,2.1,2.5,3.6h-1.3l-1.9-2.8-.8.8v2.1h-1.1ZM40.1,89v-4.8h-1v-.9h1v-.5c0-.5,0-.9.3-1.3.2-.3.4-.6.7-.7.3-.2.6-.2,1-.2s.6,0,.9.1c.3,0,.6.2.8.5l-.5.7c-.3-.3-.6-.4-1-.4s-.6.1-.8.3c-.2.2-.3.6-.3,1.1v.4h1.6v.9h-1.6v4.8h-1.1ZM46.2,89.2c-.6,0-1.1-.1-1.6-.4-.5-.3-.8-.6-1.1-1.1-.3-.5-.4-1-.4-1.5s.1-1.1.4-1.5c.3-.5.6-.8,1.1-1.1.5-.3,1-.4,1.6-.4s1.1.1,1.5.4c.5.3.8.6,1.1,1.1.3.5.4,1,.4,1.5s-.1,1.1-.4,1.5c-.3.5-.6.8-1.1,1.1-.4.3-1,.4-1.5.4ZM46.2,88.2c.4,0,.7,0,1-.3.3-.2.5-.5.6-.8.2-.3.2-.6.2-1s0-.7-.2-1c-.1-.3-.4-.6-.6-.8-.3-.2-.6-.3-1-.3s-.7.1-1,.3c-.3.2-.5.5-.7.8-.1.3-.2.6-.2,1s0,.7.2,1c.2.3.4.6.6.8.3.2.6.3,1,.3ZM51.6,89h-1.1v-5.3c0,0,0-.2,0-.4h1.1v.9c.1-.1.2-.3.4-.4.2-.2.4-.3.6-.4.2-.1.5-.2.9-.2s.2,0,.3,0c.1,0,.2,0,.3,0l-.2,1c-.1,0-.3,0-.6,0s-.6,0-.8.2c-.2.2-.4.4-.6.6-.1.3-.2.6-.2.9v3ZM57.6,87.1v-2.9h-1v-.9h1v-1.9h1.1v1.9h1.7v.9h-1.7v2.8c0,.5,0,.8.2.9.1.2.4.3.6.3s.4,0,.5,0c.1,0,.3-.2.4-.3l.5.7c-.2.2-.5.4-.7.5-.2.1-.5.2-.9.2-.6,0-1-.2-1.3-.5-.3-.3-.4-.8-.4-1.5ZM66,87.5l.6.7c0,0-.2.2-.4.4-.2.2-.5.3-.8.4-.3.1-.7.2-1.2.2s-1.1-.1-1.6-.4c-.4-.3-.8-.6-1.1-1.1-.2-.5-.4-1-.4-1.6s.1-1.1.4-1.5c.2-.4.6-.8,1-1.1.4-.3.9-.4,1.5-.4s1.2.2,1.6.5c.4.3.7.7.9,1.2.2.5.3,1,.3,1.6h-4.5c0,.3,0,.6.3.9.2.3.4.5.7.6.3.1.6.2.9.2.5,0,.9,0,1.2-.2.3-.2.5-.3.7-.5ZM62.3,85.7h3.3c0-.4-.2-.8-.5-1.1-.3-.3-.7-.5-1.2-.5s-.7,0-.9.2c-.3.2-.4.4-.6.6-.1.2-.2.5-.2.8ZM69.1,89h-1.1v-5.3c0,0,0-.2,0-.4h1.1v.9c.1-.1.2-.3.4-.4.2-.2.4-.3.6-.4.2-.1.5-.2.9-.2s.2,0,.3,0c.1,0,.2,0,.3,0l-.2,1c-.1,0-.3,0-.6,0s-.6,0-.8.2c-.2.2-.4.4-.6.6-.1.3-.2.6-.2.9v3ZM73.5,89h-1.1v-5.3c0,0,0-.2,0-.4h1.1v.9c.1-.1.2-.3.4-.4.2-.2.4-.3.6-.4.2-.1.5-.2.9-.2s.8,0,1.1.3c.3.2.5.4.7.8.2-.3.5-.5.8-.7.3-.2.7-.3,1.2-.3.7,0,1.3.2,1.6.7.4.4.5,1,.5,1.7v3.4h-1.1v-3.3c0-1-.4-1.5-1.2-1.5s-.6,0-.8.2c-.2.2-.4.4-.6.6-.1.3-.2.5-.2.8v3.2h-1.1v-3.3c0-.5-.1-.9-.3-1.2-.2-.3-.5-.4-.9-.4s-.7.1-1,.3c-.2.2-.4.5-.5.8,0,.3-.1.7-.1,1.1v2.6ZM82.5,88.3l.7-.7c.2.2.4.4.7.5s.6.2,1,.2.7,0,.9-.2c.2-.1.4-.3.4-.6s0-.3-.1-.4c0-.1-.3-.2-.5-.3-.2,0-.6-.2-1-.3-.3,0-.6-.2-.9-.3-.3-.1-.5-.3-.7-.5-.2-.2-.3-.5-.3-.9s.1-.7.3-.9c.2-.3.5-.4.8-.6.3-.1.7-.2,1.1-.2s.9,0,1.2.2c.4.1.7.3.9.5l-.6.8c-.2-.2-.4-.3-.6-.4-.3-.1-.6-.2-.9-.2s-.6,0-.8.2c-.2.1-.3.3-.3.6s.1.4.4.6c.3.1.7.2,1.1.3.4,0,.7.2,1,.3.3.1.5.3.7.5.2.2.3.5.3.9s-.1.7-.3,1c-.2.3-.5.4-.9.6-.4.1-.7.2-1.2.2-1.1,0-1.9-.3-2.4-.9Z" fill="#99a9bb" stroke-width="0"/>
    <path d="M11.1,90.5h76.7v.6H11.1v-.6Z" fill="#99a9bb" stroke-width="0"/>
  </g>
  <g id="Logo">
    <path d="M1191.4,16.4v9h-13.1v-13.1h9c2.3,0,4.1,1.8,4.1,4.1Z" fill="#fff" stroke-width="0"/>
    <path d="M1191.4,38.6h-13.1v13.1h13.1v-13.1Z" fill="#fff" stroke-width="0"/>
    <path d="M1165.1,12.3h-13.1v13.1h13.1v-13.1Z" fill="#ffd000" stroke-width="0"/>
    <path d="M1138.9,22.9v-10.5h-13.1v35.3c0,2.3,1.8,4.1,4.1,4.1h9v-10.5c0-1.4,1.2-2.6,2.6-2.6h10.5v-13.1h-10.5c-1.4,0-2.6-1.2-2.6-2.6Z" fill="#fff" stroke-width="0"/>
    <path d="M1165.1,38.6h-13.1v13.1h13.1v-13.1Z" fill="#fff" stroke-width="0"/>
    <path d="M1140.1,66.1c-.9,0-1.6-.3-2.2-.9-.6-.6-.9-1.3-.9-2.3s.3-1.7.9-2.3c.6-.6,1.3-.9,2.3-.9s1.6.3,2.2.9c.6.6.9,1.3.9,2.2s-.3,1.7-.9,2.3c-.6.6-1.3.9-2.2.9ZM1143.6,59.5c-.9-.9-2.2-1.4-3.6-1.4s-2.6.5-3.6,1.4c-.9.9-1.4,2.1-1.4,3.5s.5,2.5,1.4,3.4c.9.9,2.1,1.4,3.5,1.4s2.7-.5,3.6-1.4c1-.9,1.5-2,1.5-3.4s-.5-2.5-1.4-3.4ZM1182.6,58.3v5.2c0,1.5-.6,2.5-2.2,2.5s-2.2-1-2.2-2.5v-5.2h-1.8v5.6c0,2.8,1.9,3.8,4.1,3.8s4.1-1.1,4.1-3.8v-5.6h-1.8ZM1171.7,58.3v7.7h3.9v1.6h-5.7v-9.3h1.8ZM1165.2,62.5c.9,0,1.6-.4,1.6-1.3s-.5-1.3-1.6-1.3h-1.1v2.6h1.1ZM1165.7,58.3c2,0,2.9,1.3,2.9,2.9s-1.2,2.9-3,2.9h-1.5v3.5h-1.8v-9.3h3.4ZM1161.1,58.3v1.6h-3.1v7.7h-1.8v-7.7h-3.1v-1.6h7.9ZM1188.7,58.1c.9,0,1.8.2,2.6.7v1.8c-1-.6-1.6-.9-2.6-.9s-1.3.3-1.3.8c0,.4.2.7.7,1,.1,0,.6.3,1.5.8.8.4,1.3.8,1.7,1.2.3.4.5,1,.5,1.6s-.3,1.4-.9,1.9c-.6.5-1.3.7-2.2.7s-1.1,0-1.5-.2c-.4-.1-.9-.4-1.4-.7v-2c1,.8,1.9,1.3,2.8,1.3s1.4-.3,1.4-.9-.2-.7-.6-1c-.4-.2-.9-.5-1.5-.8-.7-.4-1.3-.7-1.6-1.2-.4-.5-.5-.9-.5-1.5s.3-1.4.9-1.9c.6-.5,1.3-.7,2.3-.7M1149.3,58.1c.9,0,1.8.2,2.6.7v1.8c-1-.6-1.6-.9-2.6-.9s-1.3.3-1.3.8c0,.4.2.7.7,1,.1,0,.6.3,1.5.8.8.4,1.3.8,1.7,1.2.3.4.5,1,.5,1.6s-.3,1.4-.9,1.9c-.6.5-1.3.7-2.2.7s-1.1,0-1.5-.2c-.4-.1-.9-.4-1.5-.7v-2c1,.8,1.9,1.3,2.8,1.3s1.4-.3,1.4-.9-.2-.7-.6-1c-.4-.2-.9-.5-1.5-.8-.7-.4-1.3-.7-1.7-1.2-.4-.5-.5-.9-.5-1.5s.3-1.4.9-1.9c.6-.5,1.4-.7,2.3-.7M1127.6,58.3v3.7h4.4v-3.7h1.8v9.3h-1.8v-3.7h-4.4v3.7h-1.8v-9.3h1.8Z" fill="#fff" stroke-width="0"/>
    <line x1="1206.7" y1="12.2" x2="1206.7" y2="68" fill="none" stroke="#fff" stroke-width=".4"/>
    <path d="M1128.2,88c-.4,0-.8,0-1.1-.2-.3-.1-.6-.4-.9-.6-.3-.3-.5-.6-.6-.9s-.2-.7-.2-1.1,0-.8.2-1.1c.1-.3.3-.7.6-.9.2-.3.6-.5.9-.6.3-.1.7-.2,1.1-.2s.8,0,1.1.2c.3.1.6.3.9.6.3.3.5.6.6.9.1.3.2.7.2,1.1s0,.8-.2,1.1-.3.7-.6.9c-.3.3-.6.5-.9.6-.3.1-.7.2-1.1.2ZM1128.2,86.9c.3,0,.6,0,.8-.2.2-.2.4-.4.5-.6.1-.3.2-.5.2-.9s0-.6-.2-.8c-.1-.3-.3-.5-.5-.6-.2-.2-.5-.2-.8-.2s-.6,0-.8.2c-.2.2-.4.4-.5.6-.1.3-.2.5-.2.8s0,.6.2.9c.1.3.3.5.5.6.2.2.5.2.8.2ZM1131.8,87.9v-5.4h3.7v1.1h-2.4v1.2h1.8v1.1h-1.8v2.1h-1.2ZM1136.2,87.9v-5.4h3.7v1.1h-2.4v1.2h1.8v1.1h-1.8v2.1h-1.2ZM1140.6,87.9v-5.4h1.2v5.4h-1.2ZM1147,86.1l.8.8c-.2.2-.3.4-.6.6-.2.2-.5.3-.8.4-.3.1-.6.2-.9.2-.6,0-1-.1-1.5-.4-.4-.2-.8-.6-1-1-.2-.4-.3-.9-.3-1.5s0-.8.2-1.1c.1-.4.3-.7.6-.9.2-.3.6-.5.9-.6.3-.1.7-.2,1.2-.2s.9,0,1.3.3c.4.2.7.5,1,.8l-.8.8c-.2-.2-.4-.4-.6-.5-.2-.1-.5-.2-.8-.2s-.6,0-.8.2c-.2.2-.4.4-.5.6-.1.3-.2.5-.2.9s0,.6.2.9c.1.3.3.5.5.6.2.1.5.2.8.2s.5,0,.6-.1c.2,0,.3-.2.4-.3.1-.1.2-.2.3-.4ZM1148.5,87.9v-5.4h1.2v5.4h-1.2ZM1150.3,87.9l2-5.4h1.4l2,5.4h-1.3l-.4-1.2h-1.9l-.4,1.2h-1.3ZM1152.3,85.7h1.3l-.7-2.1-.7,2.1ZM1156.3,87.9v-5.4h1.2v4.3h2.6v1.1h-3.8ZM1161.9,87.1l.8-.9c.1.2.3.3.6.4.2.1.5.2.8.2s.2,0,.4,0c.1,0,.2-.1.3-.2,0,0,.1-.2.1-.3,0-.2,0-.4-.3-.5-.2-.1-.5-.2-.9-.3-.4-.1-.8-.3-1-.5-.3-.3-.4-.6-.4-1s0-.6.2-.8c.2-.3.4-.5.7-.6.3-.2.7-.2,1.1-.2s.7,0,.9.1c.3,0,.5.2.6.3.2.1.3.2.3.3l-.7.8c-.1,0-.3-.2-.5-.3-.2-.1-.4-.2-.7-.2s-.3,0-.5.2c-.1,0-.2.2-.2.4s0,.3.3.4c.2.1.5.2.8.3.3,0,.5.2.8.3.2.1.5.3.6.5.2.2.2.5.2.9s0,.6-.3.9c-.2.3-.4.5-.8.6-.3.1-.7.2-1.1.2s-.7,0-.9-.1c-.3,0-.5-.2-.7-.3-.2-.1-.4-.3-.5-.4ZM1167.1,85.8v-3.4h1.2v3.2c0,.4,0,.6.2.9.2.2.4.3.8.3s.7-.1.8-.3c.2-.2.2-.5.2-.9v-3.2h1.2v3.4c0,.4,0,.8-.3,1.2-.2.3-.4.6-.8.8-.3.2-.7.3-1.2.3s-.9,0-1.2-.3c-.3-.2-.6-.4-.8-.8-.2-.3-.3-.7-.3-1.2ZM1172.7,87.9v-5.4h2c.5,0,.8,0,1.1.3.3.2.5.4.6.6.1.3.2.6.2.9s0,.7-.3,1c-.2.3-.4.5-.7.6-.3.1-.6.2-.9.2h-.8v1.9h-1.2ZM1173.9,85h.7c.2,0,.4,0,.5-.2.1-.1.2-.3.2-.5s0-.4-.2-.6c-.1-.1-.3-.2-.6-.2h-.7v1.5ZM1177.4,87.9v-5.4h3.7v1.1h-2.5v1.1h1.9v1h-1.9v1.2h2.7v1.1h-3.9ZM1182.1,87.9v-5.4h2c.4,0,.8,0,1.1.2.3.2.5.4.6.6.1.3.2.5.2.8s0,.7-.2.9c-.1.3-.4.5-.6.6l1.2,2.2h-1.4l-1-2h-.7v2h-1.2ZM1183.3,84.9h.8c.2,0,.4,0,.5-.2s.2-.3.2-.5,0-.4-.2-.5c-.1-.1-.3-.2-.5-.2h-.8v1.4ZM1186.6,87.9l2-5.4h1.4l2,5.4h-1.3l-.4-1.2h-1.9l-.4,1.2h-1.3ZM1188.6,85.7h1.3l-.7-2.1-.7,2.1ZM1192.6,87.9v-5.4h1.2l2.3,3.5v-3.5h1.2v5.4h-1.1l-2.4-3.6v3.6h-1.2ZM1198.4,87.9v-5.4h1.2l2.4,3.5v-3.5h1.2v5.4h-1.1l-2.4-3.6v3.6h-1.2ZM1204.2,85.8v-3.4h1.2v3.2c0,.4,0,.6.2.9.2.2.4.3.8.3s.7-.1.8-.3c.2-.2.2-.5.2-.9v-3.2h1.2v3.4c0,.4,0,.8-.3,1.2-.2.3-.4.6-.8.8-.3.2-.7.3-1.2.3s-.9,0-1.2-.3c-.3-.2-.6-.4-.8-.8-.2-.3-.3-.7-.3-1.2ZM1209,87.9l2-5.4h1.4l2,5.4h-1.3l-.4-1.2h-1.9l-.4,1.2h-1.3ZM1211,85.7h1.3l-.7-2.1-.7,2.1ZM1215.5,87.9v-4.4h-1.8v-1.1h4.8v1.1h-1.8v4.4h-1.2ZM1219.2,87.9v-5.4h1.2v5.4h-1.2ZM1224.1,88c-.4,0-.8,0-1.1-.2-.3-.1-.6-.4-.9-.6-.3-.3-.5-.6-.6-.9s-.2-.7-.2-1.1,0-.8.2-1.1c.1-.3.3-.7.6-.9.2-.3.6-.5.9-.6.3-.1.7-.2,1.1-.2s.8,0,1.1.2c.3.1.6.3.9.6.3.3.5.6.6.9.1.3.2.7.2,1.1s0,.8-.2,1.1-.3.7-.6.9c-.3.3-.6.5-.9.6-.3.1-.7.2-1.1.2ZM1224.1,86.9c.3,0,.6,0,.8-.2.2-.2.4-.4.5-.6.1-.3.2-.5.2-.9s0-.6-.2-.8c-.1-.3-.3-.5-.5-.6-.2-.2-.5-.2-.8-.2s-.6,0-.8.2c-.2.2-.4.4-.5.6-.1.3-.2.5-.2.8s0,.6.2.9c.1.3.3.5.5.6.2.2.5.2.8.2ZM1227.8,87.9v-5.4h1.2l2.4,3.5v-3.5h1.2v5.4h-1.1l-2.4-3.6v3.6h-1.2ZM1235.1,87.9v-5.4h2c.5,0,.8,0,1.1.3.3.2.5.4.6.6.1.3.2.6.2.9s0,.7-.3,1c-.2.3-.4.5-.7.6-.3.1-.6.2-.9.2h-.8v1.9h-1.2ZM1236.3,85h.7c.2,0,.4,0,.5-.2.1-.1.2-.3.2-.5s0-.4-.2-.6c-.1-.1-.3-.2-.5-.2h-.7v1.5ZM1238.7,87.9l2-5.4h1.4l2,5.4h-1.4l-.4-1.2h-1.9l-.4,1.2h-1.3ZM1240.7,85.7h1.3l-.7-2.1-.7,2.1ZM1244.6,87.9v-5.4h2c.4,0,.8,0,1.1.2.3.2.5.4.6.6.1.3.2.5.2.8s0,.7-.2.9c-.1.3-.4.5-.6.6l1.2,2.2h-1.4l-1-2h-.7v2h-1.2ZM1245.8,84.9h.8c.2,0,.4,0,.5-.2s.2-.3.2-.5,0-.4-.2-.5c-.1-.1-.3-.2-.5-.2h-.8v1.4ZM1250.8,87.9v-4.4h-1.8v-1.1h4.8v1.1h-1.8v4.4h-1.2ZM1254.5,87.9v-5.4h1.2l2.4,3.5v-3.5h1.2v5.4h-1.1l-2.4-3.6v3.6h-1.2ZM1260.3,87.9v-5.4h3.7v1.1h-2.5v1.1h1.9v1h-1.9v1.2h2.7v1.1h-3.9ZM1265.1,87.9v-5.4h2c.4,0,.8,0,1.1.2.3.2.5.4.6.6.1.3.2.5.2.8s0,.7-.2.9c-.2.3-.4.5-.7.6l1.2,2.2h-1.3l-1-2h-.7v2h-1.2ZM1266.3,84.9h.8c.2,0,.4,0,.5-.2.1-.1.2-.3.2-.5s0-.4-.2-.5c-.1-.1-.3-.2-.5-.2h-.8v1.4Z" fill="#fff" stroke-width="0"/>
    <g id="FreoLogo">
      <path d="M1245.3,12.2c-8.9,0-14.8,1.5-14.8,1.5v25.8c0,2.3.3,4.1,3,5.9,1.3.9,11.8,7.7,11.8,7.7,0,0,10.5-6.8,11.8-7.7,2.7-1.8,3-3.6,3-5.9V13.7s-5.9-1.5-14.8-1.5Z" fill="#a5acaf" stroke-width="0"/>
      <path d="M1259.2,39.5c0,1.1,0,2-.4,2.8-.4.9-1.1,1.6-2.2,2.3-1.2.8-9.3,6-11.3,7.4-2.1-1.4-10.2-6.6-11.4-7.4-1.1-.7-1.8-1.5-2.1-2.3-.3-.8-.4-1.7-.4-2.8v-21.1c2-.4,7-1.2,13.9-1.2s11.9.8,13.9,1.2v21.1Z" fill="#331c54" stroke-width="0"/>
      <path d="M1239.7,38.9v1.8h8.6l2.6-2.3v-6.4l-2.6-2.3h-1.5v1.8h.8l1.5,1.3v4.8l-1.5,1.3h-4.7v-7.4h.9v-1.8h-4.1v1.8h1.5v7.4h-1.5Z" fill="#fff" stroke-width="0"/>
      <path d="M1244.4,38.3h1.8v-10.1h6.5v-1.8h-6.5v-.7c1.1-.4,2-1.4,2-2.7s-1.3-2.8-2.8-2.8-2.8,1.3-2.8,2.8.8,2.3,2,2.7v.7h-6.5v1.8h6.5v10.1ZM1245.3,22c.6,0,1.1.5,1.1,1.1s-.5,1.1-1.1,1.1-1.1-.5-1.1-1.1.5-1.1,1.1-1.1Z" fill="#fff" stroke-width="0"/>
      <path d="M1253.6,36.5v2.4c0,.8-.2,1.2-1,1.7-.5.3-4.6,2.9-6.4,4.1v-3.5h-1.8v3.5c-1.8-1.2-5.9-3.8-6.4-4.1-.8-.5-1-.9-1-1.7v-2.4h-1.8v3c0,.8.1,1.6,1.3,2.3,1.2.7,8.8,5.7,8.8,5.7,0,0,7.6-4.9,8.8-5.7,1.2-.7,1.3-1.5,1.3-2.3v-3h-1.8Z" fill="#fff" stroke-width="0"/>
      <path d="M1235.8,16.1v-1.8c.5,0,1.1-.1,1.6-.2v.4c-.4,0-.7,0-1.1.1v.3c.3,0,.5,0,.8,0v.3c-.3,0-.5,0-.8,0v.3c.4,0,.7,0,1.1-.1v.4c-.5,0-1.1.1-1.6.2h0Z" fill="#331c54" stroke-width="0"/>
      <path d="M1239.4,15.8c-.4,0-.7,0-1-.2,0-.1.1-.2.2-.3.2.1.5.2.8.2.3,0,.4-.1.4-.2,0-.3-1.2,0-1.2-.7s.3-.6.9-.6c.4,0,.7,0,.9.2,0,0-.2.2-.2.3-.2-.1-.4-.2-.7-.2-.2,0-.4.1-.4.2,0,.3,1.3,0,1.3.7s-.4.6-.9.6h0Z" fill="#331c54" stroke-width="0"/>
      <path d="M1242.3,14.2v1.4c-.2,0-.3,0-.5,0v-1.4c-.2,0-.4,0-.7,0v-.4c.6,0,1.2,0,1.8,0v.4c-.2,0-.4,0-.7,0Z" fill="#331c54" stroke-width="0"/>
      <path d="M1243.6,15.5v-.4c.1,0,.2,0,.4,0v.4c-.1,0-.2,0-.4,0Z" fill="#331c54" stroke-width="0"/>
      <path d="M1246.3,15.5v-1.5c.2,0,.2,0,.2-.2,0,0,.2,0,.2,0v1.8c-.2,0-.3,0-.5,0h0Z" fill="#331c54" stroke-width="0"/>
      <path d="M1248.7,15.7c-.3,0-.6-.1-.8-.3,0,0,.1-.2.2-.3.2.1.3.2.5.2.3,0,.4-.2.4-.4h0c-.1,0-.3,0-.5,0-.4,0-.7-.2-.7-.5h0c0-.4.3-.7.8-.6.5,0,.8.4.8.9v.2c0,.5-.3.8-.9.8h0ZM1249.1,14.5c0-.2-.1-.3-.4-.4-.2,0-.4,0-.4.2h0c0,.2.1.3.3.3.2,0,.3,0,.4-.1h0c0,0,0,0,0,0Z" fill="#331c54" stroke-width="0"/>
      <path d="M1251.4,15.8c-.3,0-.6-.1-.8-.3,0,0,.1-.2.2-.3.2.1.4.2.5.2.3,0,.4-.1.4-.4h0c-.1,0-.3,0-.5,0-.4,0-.7-.3-.7-.6h0c0-.4.3-.6.8-.6.5,0,.8.4.8.9v.2c0,.5-.3.8-.9.8h0ZM1251.8,14.7c0-.2-.1-.3-.4-.4-.2,0-.4,0-.4.2h0c0,.2.1.3.3.3.2,0,.3,0,.4-.1h0c0,0,0,0,0,0Z" fill="#331c54" stroke-width="0"/>
      <path d="M1254.5,15.7v.4c-.2,0-.3,0-.5,0v-.4c-.3,0-.6,0-1-.1v-.3c.3-.3.7-.6,1-.9.1,0,.3,0,.4,0v1c0,0,.2,0,.3,0v.3c0,0-.2,0-.3,0h0ZM1254.1,14.7c-.2.2-.3.3-.5.5.2,0,.3,0,.5,0v-.5Z" fill="#331c54" stroke-width="0"/>
      <path d="M1230.5,56.9h1.9v.6h-1.2v.4h1.2v.6h-1.2v.9h-.7v-2.5Z" fill="#a5acaf" stroke-width="0"/>
      <path d="M1234.8,58.7h-.4v.8h-.7v-2.5h1.3c.9,0,1.1.4,1.1.9s0,.6-.5.8l.4.8h-.8l-.4-.8h0ZM1235,58.1c.3,0,.4,0,.4-.3s0-.3-.4-.3h-.6v.6h.6Z" fill="#a5acaf" stroke-width="0"/>
      <path d="M1237.3,56.9h2v.6h-1.3v.3h1.3v.6h-1.3v.4h1.3v.6h-2v-2.5h0Z" fill="#a5acaf" stroke-width="0"/>
      <path d="M1240.7,56.9h.9l.6,1.5.6-1.5h.9v2.5h-.7v-1.5l-.6,1.5h-.5l-.6-1.4v1.4h-.6v-2.5Z" fill="#a5acaf" stroke-width="0"/>
      <path d="M1245.7,56.9h.7l1,2.5h-.7v-.3h-1.2v.3h-.8l1-2.5h0ZM1246.3,58.5l-.3-.8-.3.8h.6Z" fill="#a5acaf" stroke-width="0"/>
      <path d="M1248.4,56.9h.8l1,1.3v-1.3h.7v2.5h-.6l-1.1-1.5v1.5h-.7v-2.5h0Z" fill="#a5acaf" stroke-width="0"/>
      <path d="M1252.7,57.5h-.8v-.6h2.4v.6h-.8v1.9h-.7v-1.9Z" fill="#a5acaf" stroke-width="0"/>
      <path d="M1255.2,56.9h.7v1.9h1.2v.6h-1.9v-2.5Z" fill="#a5acaf" stroke-width="0"/>
      <path d="M1258.1,56.9h2v.6h-1.3v.3h1.3v.6h-1.3v.4h1.3v.6h-2v-2.5h0Z" fill="#a5acaf" stroke-width="0"/>
      <path d="M1262,66.2l1.1-.9v-2.3l-1-1h-5v1.3h.9v3.8h-.9v1.3h2.1v-2h1.3l1.4,2h1.6v-1.3h-.9l-.6-.8h0ZM1261.5,63.2l.3.3v1.2l-.4.3h-2.3v-1.8h2.4,0Z" fill="#fff" stroke-width="0"/>
      <path d="M1220.8,61.9v1.3h.9v3.8h-.9v1.3h4.8l1.5-1.5v-3.3l-1.5-1.5h-4.8ZM1225.8,66.2l-.8.8h-2.1v-3.8h2.1l.8.8v2.2h0Z" fill="#fff" stroke-width="0"/>
      <path d="M1229.9,61.9l-1.5,1.5v3.3l1.5,1.5h2.8l1.5-1.5v-3.3l-1.5-1.5h-2.8ZM1232.9,66.2l-.8.8h-1.8l-.8-.8v-2.2l.8-.8h1.8l.8.8v2.2h0Z" fill="#fff" stroke-width="0"/>
      <path d="M1269.8,64v-1l-1-1h-3.3l-1,1v1.8l1,1h2.8l.3.3v.7l-.3.3h-2.2l-.3-.3v-.5h-1.3v1l1,1h3.3l1-1v-1.8l-1-1h-2.8l-.3-.3v-.7l.3-.3h2.2l.3.3v.5h1.2Z" fill="#fff" stroke-width="0"/>
      <path d="M1237,61.9l-1.5,1.5v3.3l1.5,1.5h2.8l1.5-1.5v-.9h-1.3v.4l-.8.8h-1.8l-.8-.8v-2.2l.8-.8h1.8l.8.8v.4h1.3v-.9l-1.5-1.5h-2.8Z" fill="#fff" stroke-width="0"/>
      <path d="M1248.7,63.2v-1.3h-1.2l-2.9,2.6v-2.6h-2.1v1.3h.9v3.8h-.9v1.3h2.1v-2l.8-.7,2,2.7h1.3v-1.3h-.7l-1.7-2.3,1.6-1.5h.8Z" fill="#fff" stroke-width="0"/>
      <path d="M1250,63.2h1v3.8h-1v1.3h5.7v-1.9h-1.3v.6h-2.1v-1.3h2v-1.3h-2v-1.3h2.1v.6h1.3v-1.9h-5.7v1.3Z" fill="#fff" stroke-width="0"/>
    </g>
  </g>
</svg>