<?xml version="1.0" encoding="UTF-8"?>
<svg id="Layer_1" data-name="Layer 1" xmlns="http://www.w3.org/2000/svg" width="1280" height="100" xmlns:xlink="http://www.w3.org/1999/xlink" version="1.1" viewBox="0 0 1280 100">
  <defs>
    <linearGradient id="linear-gradient" x1="541.8" y1="-81.9" x2="562.2" y2="134.7" gradientTransform="translate(0 102) scale(1 -1)" gradientUnits="userSpaceOnUse">
      <stop offset="0" stop-color="#002855"/>
      <stop offset=".2" stop-color="#012855"/>
      <stop offset=".7" stop-color="#022348"/>
      <stop offset="1" stop-color="#001a36"/>
    </linearGradient>
  </defs>
  <rect width="1280" height="100" fill="#002855" stroke-width="0"/>
  <path id="BG_over" d="M.1,100h1108v-47.3c0-25.8-20.9-46.7-46.7-46.7H.1v94Z" fill="url(#linear-gradient)" stroke-width="0"/>
  <path id="F1_text_01" d="M18.1,55.6v-18.4h-7.4v-5.6h21.1v5.6h-7.3v18.4h-6.4ZM34.4,55.6v-24h6.4v8.8h8.9v-8.8h6.4v24h-6.4v-9.4h-8.9v9.4h-6.4ZM59.9,55.6v-24h9.9c2.6,0,4.6.7,6.2,2,1.6,1.3,2.3,3.3,2.3,5.9s-.3,2.9-1,4.1c-.7,1.2-1.6,2.1-2.8,2.8l5.1,9.2h-6.8l-4.1-8.2h-2.7v8.2h-6.2ZM66.1,42.4h3.1c.8,0,1.5-.3,2.1-.8.5-.5.8-1.2.8-2.1s-.3-1.6-.8-2.2c-.5-.5-1.2-.8-2.1-.8h-3.1v5.8ZM82.2,55.6v-24h17.3v5.5h-10.9v3.7h9v5.2h-9v4.1h11.7v5.5h-18ZM103.1,55.6v-24h17.3v5.5h-10.9v3.7h9v5.2h-9v4.1h11.7v5.5h-18ZM130.3,55.6v-24h16.7v5.6h-10.4v4.6h8v5.3h-8v8.5h-6.4ZM149.5,55.6v-24h6.4v18.4h11.1v5.6h-17.5ZM168.1,55.6l8.8-24h7.3l8.5,24h-6.9l-1.5-5h-8l-1.6,5h-6.6ZM177.5,45.9h5.4l-2.7-8.8-2.8,8.8ZM205.4,46.8v-4.9h9.9v10.8c-1.4,1.2-3.1,2.1-5,2.7-1.9.5-3.7.8-5.6.8s-4.8-.5-6.7-1.5c-1.9-1-3.3-2.5-4.3-4.4-1-1.9-1.5-4.1-1.5-6.7s.5-4.6,1.6-6.5,2.5-3.4,4.4-4.5c1.9-1.1,4.1-1.6,6.5-1.6s3.9.3,5.6,1c1.8.6,3.2,1.7,4.4,3.3l-4.1,4.2c-.7-.7-1.5-1.4-2.4-1.8-.8-.5-1.8-.7-3-.7s-2.5.3-3.5.9c-1,.6-1.7,1.4-2.2,2.4-.5,1-.7,2.1-.7,3.4,0,2,.6,3.7,1.8,4.9,1.2,1.2,2.7,1.8,4.7,1.8s1.5,0,2.3-.3c.7-.2,1.4-.6,2.1-1v-2.3h-4.2ZM216.9,52.6l3.9-4.6c.7.7,1.5,1.3,2.6,1.8,1.1.6,2.3.8,3.6.8s1.3-.1,1.9-.4c.6-.3.9-.8.9-1.5s-.3-1.1-1-1.5c-.6-.4-1.6-.8-2.8-1.2l-1.3-.4c-1-.3-2-.8-3-1.3-1-.6-1.8-1.3-2.4-2.2-.6-.9-.9-2-.9-3.3s.3-2.8,1-4c.7-1.2,1.8-2.1,3.2-2.8,1.4-.7,3.1-1,5.1-1s3,.2,4.1.5c1.2.4,2.1.8,2.9,1.3.8.5,1.3.9,1.7,1.3l-3.2,4.1c-.8-.6-1.7-1.1-2.6-1.5-.9-.4-1.8-.6-2.8-.6s-1.2.1-1.8.4c-.6.3-.8.7-.8,1.4s.3,1.3,1,1.6c.7.3,1.5.7,2.6,1l1.2.4c.8.2,1.6.6,2.4.9.8.4,1.6.8,2.3,1.4s1.2,1.3,1.7,2.2c.4.9.6,1.9.6,3.2s-.4,2.8-1.3,3.9c-.9,1.2-2,2.1-3.5,2.7-1.5.6-3.1,1-4.9,1s-4.4-.3-6-1c-1.6-.6-3-1.5-4.1-2.6ZM245.9,55.6v-24h6.4v24h-6.4ZM256.2,55.6v-24h5.8l9.2,13.4v-13.4h6.3v24h-5.4l-9.6-13.8v13.8h-6.3ZM285.6,55.6l8.8-24h7.3l8.5,24h-6.9l-1.5-5h-8l-1.6,5h-6.6ZM295.1,45.9h5.4l-2.7-8.8-2.8,8.8ZM316.4,52.6l3.9-4.6c.7.7,1.5,1.3,2.6,1.8,1.1.6,2.3.8,3.6.8s1.3-.1,1.9-.4c.6-.3.9-.8.9-1.5s-.3-1.1-1-1.5c-.6-.4-1.6-.8-2.8-1.2l-1.3-.4c-1-.3-2-.8-3-1.3-1-.6-1.8-1.3-2.4-2.2-.6-.9-.9-2-.9-3.3s.3-2.8,1-4c.7-1.2,1.8-2.1,3.2-2.8,1.4-.7,3.1-1,5.1-1s3,.2,4.1.5c1.2.4,2.1.8,2.9,1.3.8.5,1.3.9,1.7,1.3l-3.2,4.1c-.8-.6-1.7-1.1-2.6-1.5-.9-.4-1.8-.6-2.8-.6s-1.2.1-1.8.4c-.6.3-.8.7-.8,1.4s.3,1.3,1,1.6c.7.3,1.5.7,2.6,1l1.2.4c.8.2,1.6.6,2.4.9.8.4,1.6.8,2.3,1.4s1.2,1.3,1.7,2.2c.4.9.6,1.9.6,3.2s-.4,2.8-1.3,3.9c-.9,1.2-2,2.1-3.5,2.7-1.5.6-3.1,1-4.9,1s-4.4-.3-6-1c-1.6-.6-3-1.5-4.1-2.6ZM339.2,55.6v-24h17.3v5.5h-10.9v3.7h9v5.2h-9v4.1h11.7v5.5h-18ZM358.2,55.6l8.8-24h7.3l8.5,24h-6.9l-1.5-5h-8l-1.6,5h-6.6ZM367.6,45.9h5.4l-2.7-8.8-2.8,8.8ZM382.8,52.6l3.9-4.6c.7.7,1.5,1.3,2.6,1.8,1.1.6,2.3.8,3.6.8s1.3-.1,1.9-.4.9-.8.9-1.5-.3-1.1-1-1.5c-.6-.4-1.6-.8-2.8-1.2l-1.3-.4c-1-.3-2-.8-3-1.3-1-.6-1.8-1.3-2.4-2.2-.6-.9-.9-2-.9-3.3s.3-2.8,1-4c.7-1.2,1.8-2.1,3.2-2.8,1.4-.7,3.1-1,5.1-1s3,.2,4.1.5c1.2.4,2.1.8,2.9,1.3s1.3.9,1.7,1.3l-3.2,4.1c-.8-.6-1.7-1.1-2.6-1.5-.9-.4-1.8-.6-2.8-.6s-1.2.1-1.8.4c-.6.3-.8.7-.8,1.4s.3,1.3,1,1.6c.7.3,1.5.7,2.6,1l1.2.4c.8.2,1.6.6,2.4.9.8.4,1.6.8,2.3,1.4.7.6,1.2,1.3,1.7,2.2.4.9.6,1.9.6,3.2s-.4,2.8-1.3,3.9c-.9,1.2-2,2.1-3.5,2.7-1.5.6-3.1,1-4.9,1s-4.4-.3-6-1c-1.6-.6-3-1.5-4.1-2.6ZM417.2,56.1c-1.8,0-3.5-.3-5-.9-1.5-.6-2.8-1.5-4-2.6-1.1-1.2-2-2.5-2.6-4-.6-1.5-.9-3.2-.9-5s.3-3.5.9-5c.6-1.5,1.5-2.9,2.6-4,1.1-1.1,2.4-2,4-2.6,1.5-.6,3.2-.9,5-.9s3.5.3,5,.9c1.5.6,2.9,1.5,4,2.6,1.1,1.1,2,2.5,2.6,4,.6,1.5.9,3.2.9,5s-.3,3.5-.9,5c-.6,1.5-1.5,2.9-2.6,4-1.1,1.1-2.5,2-4,2.6-1.5.6-3.2.9-5,.9ZM417.2,50.2c1.3,0,2.3-.3,3.2-.9.9-.6,1.6-1.4,2-2.4.5-1,.7-2.1.7-3.3s-.2-2.3-.7-3.3c-.5-1-1.1-1.8-2-2.4-.9-.6-1.9-.9-3.2-.9s-2.3.3-3.2.9c-.9.6-1.5,1.4-2,2.4-.5,1-.7,2.1-.7,3.3s.2,2.3.7,3.3c.5,1,1.2,1.8,2,2.4.9.6,2,.9,3.2.9ZM432.7,55.6v-24h5.8l9.2,13.4v-13.4h6.3v24h-5.4l-9.6-13.8v13.8h-6.3ZM462.4,47.5v-.2c0-1.1.1-2.1.4-2.8.3-.7.6-1.4,1-1.8.4-.5.9-.9,1.3-1.3.6-.5,1.2-.9,1.7-1.3.5-.4.8-.9.8-1.6s-.2-.9-.5-1.2c-.3-.3-.6-.5-1.1-.6-.4-.1-.8-.2-1.2-.2-.8,0-1.7.2-2.4.6-.8.4-1.5.9-2.1,1.5l-3.5-4.2c1.1-1.1,2.3-2,3.8-2.6,1.5-.7,3.1-1,5-1s2.8.2,4,.7c1.2.5,2.3,1.2,3,2.3.8,1,1.2,2.4,1.2,4.1s-.3,2.5-.9,3.3c-.6.8-1.2,1.4-1.9,2-.5.4-1,.8-1.4,1.2-.5.4-.9.8-1.2,1.2-.3.5-.4,1-.4,1.7h0c0,.1-5.6.1-5.6.1ZM462,55.6v-6.1h6.2v6.1h-6.2Z" fill="#ffd000" stroke-width="0"/>
</svg>