<svg width="1280" height="100" viewBox="0 0 1280 100" fill="none" xmlns="http://www.w3.org/2000/svg">
<g clip-path="url(#clip0_18024_40124)">
<rect width="1280" height="100" fill="#002855"/>
<path d="M0.113281 100H1108.11V52.6667C1108.11 26.8934 1087.22 6 1061.45 6H0.113281V100Z" fill="url(#paint0_linear_18024_40124)"/>
<path d="M18.1 55.56V37.128H10.72V31.548H31.852V37.128H24.544V55.56H18.1ZM34.3703 55.56V31.548H40.7423V40.332H49.5983V31.548H55.9703V55.56H49.5983V46.164H40.7423V55.56H34.3703ZM59.9205 55.56V31.548H69.8565C72.4245 31.548 74.4885 32.22 76.0485 33.564C77.6085 34.884 78.3885 36.84 78.3885 39.432C78.3885 40.992 78.0405 42.36 77.3445 43.536C76.6485 44.712 75.7245 45.648 74.5725 46.344L79.7205 55.56H72.8805L68.8125 47.388H66.1485V55.56H59.9205ZM66.1485 42.384H69.2445C70.0845 42.384 70.7685 42.132 71.2965 41.628C71.8245 41.1 72.0885 40.404 72.0885 39.54C72.0885 38.628 71.8365 37.908 71.3325 37.38C70.8285 36.852 70.1205 36.588 69.2085 36.588H66.1485V42.384ZM82.1659 55.56V31.548H99.4459V37.056H88.5379V40.764H97.5019V45.948H88.5379V50.052H100.202V55.56H82.1659ZM103.146 55.56V31.548H120.426V37.056H109.518V40.764H118.482V45.948H109.518V50.052H121.182V55.56H103.146ZM130.27 55.56V31.548H147.01V37.128H136.642V41.772H144.67V47.028H136.642V55.56H130.27ZM149.527 55.56V31.548H155.899V49.944H167.023V55.56H149.527ZM168.069 55.56L176.889 31.548H184.197L192.693 55.56H185.817L184.269 50.592H176.241L174.657 55.56H168.069ZM177.537 45.948H182.973L180.309 37.128L177.537 45.948ZM205.449 46.776V41.844H215.313V52.68C213.873 53.904 212.217 54.792 210.345 55.344C208.473 55.872 206.613 56.136 204.765 56.136C202.173 56.136 199.941 55.62 198.069 54.588C196.197 53.556 194.757 52.104 193.749 50.232C192.765 48.336 192.273 46.092 192.273 43.5C192.273 41.052 192.801 38.88 193.857 36.984C194.913 35.088 196.377 33.6 198.249 32.52C200.145 31.44 202.317 30.9 204.765 30.9C206.757 30.9 208.617 31.236 210.345 31.908C212.097 32.556 213.561 33.648 214.737 35.184L210.597 39.36C209.853 38.616 209.049 38.004 208.185 37.524C207.345 37.044 206.361 36.804 205.233 36.804C203.865 36.804 202.701 37.116 201.741 37.74C200.781 38.34 200.049 39.156 199.545 40.188C199.065 41.196 198.825 42.336 198.825 43.608C198.825 45.648 199.413 47.292 200.589 48.54C201.765 49.764 203.325 50.376 205.269 50.376C206.061 50.376 206.817 50.28 207.537 50.088C208.257 49.872 208.953 49.536 209.625 49.08V46.776H205.449ZM216.885 52.608L220.737 47.964C221.409 48.636 222.285 49.248 223.365 49.8C224.469 50.352 225.657 50.628 226.929 50.628C227.577 50.628 228.201 50.496 228.801 50.232C229.401 49.968 229.701 49.464 229.701 48.72C229.701 48.096 229.377 47.58 228.729 47.172C228.081 46.74 227.157 46.332 225.957 45.948L224.625 45.516C223.641 45.18 222.657 44.736 221.673 44.184C220.713 43.608 219.909 42.876 219.261 41.988C218.637 41.1 218.325 40.008 218.325 38.712C218.325 37.224 218.673 35.892 219.369 34.716C220.089 33.54 221.145 32.616 222.537 31.944C223.929 31.248 225.621 30.9 227.613 30.9C229.197 30.9 230.565 31.08 231.717 31.44C232.893 31.8 233.865 32.22 234.633 32.7C235.401 33.18 235.965 33.612 236.325 33.996L233.085 38.1C232.245 37.476 231.369 36.972 230.457 36.588C229.545 36.18 228.609 35.976 227.649 35.976C227.025 35.976 226.425 36.12 225.849 36.408C225.297 36.672 225.021 37.14 225.021 37.812C225.021 38.556 225.357 39.096 226.029 39.432C226.701 39.768 227.553 40.104 228.585 40.44L229.737 40.8C230.553 41.04 231.369 41.352 232.185 41.736C233.025 42.096 233.793 42.564 234.489 43.14C235.185 43.716 235.737 44.448 236.145 45.336C236.577 46.2 236.793 47.268 236.793 48.54C236.793 50.004 236.349 51.312 235.461 52.464C234.597 53.616 233.421 54.516 231.933 55.164C230.469 55.812 228.837 56.136 227.037 56.136C224.637 56.136 222.621 55.812 220.989 55.164C219.381 54.516 218.013 53.664 216.885 52.608ZM245.883 55.56V31.548H252.255V55.56H245.883ZM256.21 55.56V31.548H262.006L271.222 44.94V31.548H277.522V55.56H272.086L262.51 41.772V55.56H256.21ZM285.607 55.56L294.427 31.548H301.735L310.231 55.56H303.355L301.807 50.592H293.779L292.195 55.56H285.607ZM295.075 45.948H300.511L297.847 37.128L295.075 45.948ZM316.353 52.608L320.205 47.964C320.877 48.636 321.753 49.248 322.833 49.8C323.937 50.352 325.125 50.628 326.397 50.628C327.045 50.628 327.669 50.496 328.269 50.232C328.869 49.968 329.169 49.464 329.169 48.72C329.169 48.096 328.845 47.58 328.197 47.172C327.549 46.74 326.625 46.332 325.425 45.948L324.093 45.516C323.109 45.18 322.125 44.736 321.141 44.184C320.181 43.608 319.377 42.876 318.729 41.988C318.105 41.1 317.793 40.008 317.793 38.712C317.793 37.224 318.141 35.892 318.837 34.716C319.557 33.54 320.613 32.616 322.005 31.944C323.397 31.248 325.089 30.9 327.081 30.9C328.665 30.9 330.033 31.08 331.185 31.44C332.361 31.8 333.333 32.22 334.101 32.7C334.869 33.18 335.433 33.612 335.793 33.996L332.553 38.1C331.713 37.476 330.837 36.972 329.925 36.588C329.013 36.18 328.077 35.976 327.117 35.976C326.493 35.976 325.893 36.12 325.317 36.408C324.765 36.672 324.489 37.14 324.489 37.812C324.489 38.556 324.825 39.096 325.497 39.432C326.169 39.768 327.021 40.104 328.053 40.44L329.205 40.8C330.021 41.04 330.837 41.352 331.653 41.736C332.493 42.096 333.261 42.564 333.957 43.14C334.653 43.716 335.205 44.448 335.613 45.336C336.045 46.2 336.261 47.268 336.261 48.54C336.261 50.004 335.817 51.312 334.929 52.464C334.065 53.616 332.889 54.516 331.401 55.164C329.937 55.812 328.305 56.136 326.505 56.136C324.105 56.136 322.089 55.812 320.457 55.164C318.849 54.516 317.481 53.664 316.353 52.608ZM339.207 55.56V31.548H356.487V37.056H345.579V40.764H354.543V45.948H345.579V50.052H357.243V55.56H339.207ZM358.171 55.56L366.991 31.548H374.299L382.795 55.56H375.919L374.371 50.592H366.343L364.759 55.56H358.171ZM367.639 45.948H373.075L370.411 37.128L367.639 45.948ZM382.773 52.608L386.625 47.964C387.297 48.636 388.173 49.248 389.253 49.8C390.357 50.352 391.545 50.628 392.817 50.628C393.465 50.628 394.089 50.496 394.689 50.232C395.289 49.968 395.589 49.464 395.589 48.72C395.589 48.096 395.265 47.58 394.617 47.172C393.969 46.74 393.045 46.332 391.845 45.948L390.513 45.516C389.529 45.18 388.545 44.736 387.561 44.184C386.601 43.608 385.797 42.876 385.149 41.988C384.525 41.1 384.213 40.008 384.213 38.712C384.213 37.224 384.561 35.892 385.257 34.716C385.977 33.54 387.033 32.616 388.425 31.944C389.817 31.248 391.509 30.9 393.501 30.9C395.085 30.9 396.453 31.08 397.605 31.44C398.781 31.8 399.753 32.22 400.521 32.7C401.289 33.18 401.853 33.612 402.213 33.996L398.973 38.1C398.133 37.476 397.257 36.972 396.345 36.588C395.433 36.18 394.497 35.976 393.537 35.976C392.913 35.976 392.313 36.12 391.737 36.408C391.185 36.672 390.909 37.14 390.909 37.812C390.909 38.556 391.245 39.096 391.917 39.432C392.589 39.768 393.441 40.104 394.473 40.44L395.625 40.8C396.441 41.04 397.257 41.352 398.073 41.736C398.913 42.096 399.681 42.564 400.377 43.14C401.073 43.716 401.625 44.448 402.033 45.336C402.465 46.2 402.681 47.268 402.681 48.54C402.681 50.004 402.237 51.312 401.349 52.464C400.485 53.616 399.309 54.516 397.821 55.164C396.357 55.812 394.725 56.136 392.925 56.136C390.525 56.136 388.509 55.812 386.877 55.164C385.269 54.516 383.901 53.664 382.773 52.608ZM417.183 56.136C415.383 56.136 413.715 55.824 412.179 55.2C410.667 54.576 409.347 53.7 408.219 52.572C407.115 51.42 406.251 50.076 405.627 48.54C405.003 47.004 404.691 45.324 404.691 43.5C404.691 41.676 405.003 39.996 405.627 38.46C406.251 36.924 407.115 35.592 408.219 34.464C409.347 33.336 410.667 32.46 412.179 31.836C413.715 31.212 415.383 30.9 417.183 30.9C418.983 30.9 420.639 31.212 422.151 31.836C423.687 32.46 425.019 33.336 426.147 34.464C427.275 35.592 428.139 36.924 428.739 38.46C429.363 39.996 429.675 41.676 429.675 43.5C429.675 45.324 429.363 47.004 428.739 48.54C428.139 50.076 427.275 51.42 426.147 52.572C425.019 53.7 423.687 54.576 422.151 55.2C420.639 55.824 418.983 56.136 417.183 56.136ZM417.183 50.16C418.455 50.16 419.523 49.86 420.387 49.26C421.275 48.66 421.947 47.856 422.403 46.848C422.859 45.84 423.087 44.724 423.087 43.5C423.087 42.276 422.859 41.16 422.403 40.152C421.947 39.144 421.275 38.34 420.387 37.74C419.523 37.14 418.455 36.84 417.183 36.84C415.935 36.84 414.867 37.14 413.979 37.74C413.115 38.34 412.443 39.144 411.963 40.152C411.507 41.16 411.279 42.276 411.279 43.5C411.279 44.724 411.507 45.84 411.963 46.848C412.443 47.856 413.115 48.66 413.979 49.26C414.867 49.86 415.935 50.16 417.183 50.16ZM432.689 55.56V31.548H438.485L447.701 44.94V31.548H454.001V55.56H448.565L438.989 41.772V55.56H432.689ZM462.35 47.46V47.28C462.35 46.152 462.482 45.228 462.746 44.508C463.034 43.764 463.382 43.152 463.79 42.672C464.222 42.168 464.654 41.748 465.086 41.412C465.71 40.932 466.274 40.488 466.778 40.08C467.306 39.672 467.57 39.132 467.57 38.46C467.57 37.956 467.414 37.56 467.102 37.272C466.814 36.984 466.454 36.792 466.022 36.696C465.614 36.576 465.206 36.516 464.798 36.516C463.958 36.516 463.142 36.72 462.35 37.128C461.558 37.536 460.85 38.052 460.226 38.676L456.698 34.5C457.754 33.396 459.014 32.52 460.478 31.872C461.942 31.2 463.61 30.864 465.482 30.864C466.922 30.864 468.266 31.104 469.514 31.584C470.762 32.064 471.77 32.832 472.538 33.888C473.33 34.92 473.726 36.276 473.726 37.956C473.726 39.348 473.438 40.44 472.862 41.232C472.286 42 471.662 42.66 470.99 43.212C470.51 43.62 470.03 44.004 469.55 44.364C469.07 44.724 468.674 45.132 468.362 45.588C468.074 46.044 467.93 46.62 467.93 47.316V47.46H462.35ZM462.026 55.56V49.44H468.182V55.56H462.026Z" fill="#FFD000"/>
<path d="M17.04 84.7745L17.8589 85.4589C17.7367 85.6463 17.533 85.8704 17.2478 86.1311C16.9626 86.3837 16.6041 86.6078 16.1722 86.8034C15.7404 86.9908 15.2393 87.0845 14.6689 87.0845C13.8704 87.0845 13.1615 86.9011 12.5422 86.5345C11.9311 86.1597 11.4544 85.6545 11.1122 85.0189C10.77 84.3752 10.5989 83.65 10.5989 82.8434C10.5989 82.2485 10.6967 81.6945 10.8922 81.1811C11.0878 80.6597 11.3648 80.2034 11.7233 79.8122C12.09 79.413 12.5219 79.1034 13.0189 78.8834C13.5241 78.6552 14.0822 78.5411 14.6933 78.5411C15.2719 78.5411 15.7689 78.6308 16.1844 78.81C16.6 78.9811 16.9422 79.193 17.2111 79.4456C17.4881 79.69 17.7041 79.9263 17.8589 80.1545L17.0278 80.8634C16.8974 80.676 16.7304 80.4845 16.5267 80.2889C16.3311 80.0934 16.0826 79.9304 15.7811 79.8C15.4878 79.6615 15.1293 79.5922 14.7056 79.5922C14.1107 79.5922 13.5974 79.7389 13.1656 80.0322C12.7419 80.3256 12.4119 80.7167 12.1756 81.2056C11.9474 81.6863 11.8333 82.2241 11.8333 82.8189C11.8333 83.4056 11.9474 83.9393 12.1756 84.42C12.4119 84.9008 12.7419 85.2837 13.1656 85.5689C13.5893 85.846 14.0904 85.9845 14.6689 85.9845C15.1578 85.9845 15.557 85.9071 15.8667 85.7522C16.1763 85.5974 16.4207 85.4263 16.6 85.2389C16.7874 85.0434 16.9341 84.8885 17.04 84.7745ZM19.029 86.8889V78.7367H20.129V86.8889H19.029ZM21.6068 80.1911V78.9567H22.8413V80.1911H21.6068ZM21.6801 86.8889V81.2056H22.7801V86.8889H21.6801ZM28.6062 85.3978L29.2785 86.1067C29.0259 86.3919 28.7122 86.6241 28.3373 86.8034C27.9625 86.9745 27.5347 87.06 27.054 87.06C26.4429 87.06 25.9133 86.9297 25.4651 86.6689C25.0251 86.4082 24.6829 86.0537 24.4385 85.6056C24.194 85.1493 24.0718 84.6278 24.0718 84.0411C24.0718 83.4871 24.1981 82.9819 24.4507 82.5256C24.7033 82.0693 25.0536 81.7067 25.5018 81.4378C25.9581 81.1608 26.4755 81.0222 27.054 81.0222C27.5347 81.0222 27.9585 81.1078 28.3251 81.2789C28.6918 81.45 29.0055 81.6822 29.2662 81.9756L28.5451 82.6722C28.374 82.4604 28.1662 82.2934 27.9218 82.1711C27.6773 82.0489 27.3881 81.9878 27.054 81.9878C26.6629 81.9878 26.3247 82.0856 26.0396 82.2811C25.7625 82.4685 25.5507 82.7171 25.404 83.0267C25.2573 83.3363 25.184 83.6745 25.184 84.0411C25.184 84.3915 25.2573 84.7256 25.404 85.0434C25.5588 85.353 25.7747 85.6056 26.0518 85.8011C26.3288 85.9967 26.6629 86.0945 27.054 86.0945C27.3881 86.0945 27.6855 86.0334 27.9462 85.9111C28.2151 85.7808 28.4351 85.6097 28.6062 85.3978ZM30.356 86.8889V78.7367H31.456V83.54L33.8393 81.2056H35.1593L33.0082 83.3078L35.4771 86.8889H34.1693L32.2382 84.0411L31.456 84.7989V86.8889H30.356ZM38.9839 86.8889V82.1222H37.9573V81.2056H38.9839V80.7411C38.9839 80.2278 39.0777 79.8082 39.2651 79.4822C39.4525 79.1563 39.6969 78.916 39.9984 78.7611C40.2999 78.6063 40.6217 78.5289 40.9639 78.5289C41.2654 78.5289 41.5588 78.5778 41.8439 78.6756C42.1373 78.7652 42.4062 78.9241 42.6506 79.1522L42.1006 79.8611C41.7991 79.6085 41.4773 79.4822 41.1351 79.4822C40.8173 79.4822 40.5606 79.5841 40.3651 79.7878C40.1777 79.9915 40.0839 80.3419 40.0839 80.8389V81.2056H41.7095V82.1222H40.0839V86.8889H38.9839ZM45.0895 87.06C44.511 87.06 43.9936 86.9256 43.5373 86.6567C43.081 86.3797 42.7225 86.013 42.4617 85.5567C42.2092 85.0922 42.0829 84.5871 42.0829 84.0411C42.0829 83.4871 42.2092 82.9819 42.4617 82.5256C42.7225 82.0693 43.081 81.7067 43.5373 81.4378C43.9936 81.1608 44.511 81.0222 45.0895 81.0222C45.668 81.0222 46.1814 81.1608 46.6295 81.4378C47.0858 81.7067 47.4443 82.0693 47.7051 82.5256C47.9658 82.9819 48.0962 83.4871 48.0962 84.0411C48.0962 84.5871 47.9658 85.0922 47.7051 85.5567C47.4443 86.013 47.0858 86.3797 46.6295 86.6567C46.1814 86.9256 45.668 87.06 45.0895 87.06ZM45.0895 86.1067C45.4888 86.1067 45.8269 86.0089 46.104 85.8134C46.3892 85.6097 46.6051 85.3489 46.7517 85.0311C46.9066 84.7134 46.984 84.3834 46.984 84.0411C46.984 83.6989 46.9066 83.3689 46.7517 83.0511C46.6051 82.7334 46.3892 82.4767 46.104 82.2811C45.8188 82.0774 45.4806 81.9756 45.0895 81.9756C44.6984 81.9756 44.3603 82.0774 44.0751 82.2811C43.7899 82.4767 43.5699 82.7334 43.4151 83.0511C43.2684 83.3608 43.1951 83.6908 43.1951 84.0411C43.1951 84.3834 43.2725 84.7134 43.4273 85.0311C43.5821 85.3408 43.798 85.5974 44.0751 85.8011C44.3603 86.0048 44.6984 86.1067 45.0895 86.1067ZM50.4461 86.8889H49.3461V81.7556C49.3461 81.6985 49.3461 81.6334 49.3461 81.56C49.3461 81.4867 49.342 81.3685 49.3339 81.2056H50.385L50.4217 82.1222C50.5113 81.9919 50.6335 81.8493 50.7883 81.6945C50.9513 81.5397 51.155 81.4052 51.3994 81.2911C51.6439 81.1771 51.9372 81.12 52.2794 81.12C52.4017 81.12 52.5117 81.1282 52.6094 81.1445C52.7154 81.1608 52.8131 81.1852 52.9028 81.2178L52.6583 82.2445C52.5117 82.1874 52.3242 82.1589 52.0961 82.1589C51.7865 82.1589 51.5054 82.2404 51.2528 82.4034C51.0083 82.5582 50.8128 82.766 50.6661 83.0267C50.5194 83.2874 50.4461 83.5767 50.4461 83.8945V86.8889ZM56.4951 85.0311V82.1222H55.4685V81.2056H56.4951V79.3478H57.5951V81.2056H59.2574V82.1222H57.5951V84.9211C57.5951 85.3774 57.6644 85.6911 57.8029 85.8622C57.9496 86.0334 58.1533 86.1189 58.414 86.1189C58.6259 86.1189 58.8011 86.0863 58.9396 86.0211C59.0863 85.956 59.2248 85.8582 59.3551 85.7278L59.8563 86.4C59.62 86.6282 59.3755 86.7911 59.1229 86.8889C58.8785 86.9948 58.5851 87.0478 58.2429 87.0478C57.6481 87.0478 57.2081 86.8848 56.9229 86.5589C56.6377 86.2248 56.4951 85.7156 56.4951 85.0311ZM64.8859 85.3978L65.5092 86.0578C65.4277 86.1556 65.2811 86.286 65.0692 86.4489C64.8574 86.6037 64.5803 86.7463 64.2381 86.8767C63.904 86.9989 63.4966 87.06 63.0159 87.06C62.4292 87.06 61.9118 86.9337 61.4637 86.6811C61.0155 86.4204 60.6652 86.0619 60.4126 85.6056C60.1681 85.1411 60.0459 84.6074 60.0459 84.0045C60.0459 83.4504 60.164 82.9493 60.4003 82.5011C60.6448 82.053 60.9789 81.6985 61.4026 81.4378C61.8344 81.1689 62.3274 81.0345 62.8814 81.0345C63.5414 81.0345 64.0752 81.1934 64.4826 81.5111C64.89 81.8289 65.1874 82.2404 65.3748 82.7456C65.5622 83.2508 65.6559 83.7926 65.6559 84.3711H61.1703C61.1785 84.7052 61.2681 85.0067 61.4392 85.2756C61.6103 85.5363 61.8344 85.7441 62.1114 85.8989C62.3966 86.0456 62.7022 86.1189 63.0281 86.1189C63.5089 86.1189 63.904 86.0374 64.2137 85.8745C64.5314 85.7115 64.7555 85.5526 64.8859 85.3978ZM61.1703 83.5522H64.5192C64.4866 83.1122 64.3318 82.7374 64.0548 82.4278C63.7777 82.1182 63.3866 81.9634 62.8814 81.9634C62.5311 81.9634 62.2296 82.0408 61.977 82.1956C61.7244 82.3504 61.5289 82.55 61.3903 82.7945C61.26 83.0308 61.1866 83.2834 61.1703 83.5522ZM67.9797 86.8889H66.8797V81.7556C66.8797 81.6985 66.8797 81.6334 66.8797 81.56C66.8797 81.4867 66.8757 81.3685 66.8675 81.2056H67.9186L67.9553 82.1222C68.0449 81.9919 68.1671 81.8493 68.322 81.6945C68.4849 81.5397 68.6886 81.4052 68.9331 81.2911C69.1775 81.1771 69.4708 81.12 69.8131 81.12C69.9353 81.12 70.0453 81.1282 70.1431 81.1445C70.249 81.1608 70.3468 81.1852 70.4364 81.2178L70.192 82.2445C70.0453 82.1874 69.8579 82.1589 69.6297 82.1589C69.3201 82.1589 69.039 82.2404 68.7864 82.4034C68.542 82.5582 68.3464 82.766 68.1997 83.0267C68.0531 83.2874 67.9797 83.5767 67.9797 83.8945V86.8889ZM72.4318 86.8889H71.3318V81.7922C71.3318 81.7189 71.3318 81.6456 71.3318 81.5722C71.3318 81.4908 71.3277 81.3685 71.3196 81.2056H72.3707L72.4073 82.0611C72.497 81.9226 72.6192 81.78 72.774 81.6334C72.9288 81.4785 73.1284 81.3482 73.3729 81.2422C73.6173 81.1282 73.9107 81.0711 74.2529 81.0711C74.6929 81.0711 75.0555 81.1608 75.3407 81.34C75.634 81.5111 75.8621 81.7637 76.0251 82.0978C76.2533 81.8289 76.5344 81.5926 76.8684 81.3889C77.2025 81.1771 77.6099 81.0711 78.0907 81.0711C78.824 81.0711 79.3658 81.2911 79.7162 81.7311C80.0666 82.163 80.2418 82.7456 80.2418 83.4789V86.8889H79.1418V83.5645C79.1418 82.5378 78.7344 82.0245 77.9196 82.0245C77.6181 82.0245 77.3492 82.106 77.1129 82.2689C76.8766 82.4237 76.6892 82.6315 76.5507 82.8922C76.4121 83.1448 76.3429 83.426 76.3429 83.7356V86.8889H75.2429V83.5645C75.2429 83.0348 75.137 82.6478 74.9251 82.4034C74.7133 82.1508 74.4158 82.0245 74.0329 82.0245C73.6336 82.0245 73.3158 82.1345 73.0796 82.3545C72.8433 82.5745 72.6762 82.8556 72.5784 83.1978C72.4807 83.5319 72.4318 83.8822 72.4318 84.2489V86.8889ZM81.4103 86.1922L82.0826 85.4589C82.2863 85.6626 82.5307 85.8256 82.8159 85.9478C83.1011 86.07 83.4311 86.1311 83.8059 86.1311C84.1726 86.1311 84.4781 86.0741 84.7226 85.96C84.967 85.8378 85.0892 85.6504 85.0892 85.3978C85.0892 85.2185 85.0403 85.076 84.9426 84.97C84.8448 84.8641 84.6777 84.7704 84.4414 84.6889C84.2052 84.5993 83.8792 84.5056 83.4637 84.4078C83.1703 84.3345 82.8852 84.2367 82.6081 84.1145C82.3311 83.9841 82.1029 83.8089 81.9237 83.5889C81.7444 83.3608 81.6548 83.0674 81.6548 82.7089C81.6548 82.3422 81.7607 82.0326 81.9726 81.78C82.1926 81.5274 82.4737 81.34 82.8159 81.2178C83.1581 81.0874 83.5166 81.0222 83.8914 81.0222C84.3722 81.0222 84.7877 81.0874 85.1381 81.2178C85.4885 81.34 85.79 81.5152 86.0426 81.7434L85.4437 82.5011C85.2726 82.3463 85.0566 82.216 84.7959 82.11C84.5433 82.0041 84.2459 81.9511 83.9037 81.9511C83.5533 81.9511 83.2722 82.0082 83.0603 82.1222C82.8485 82.2363 82.7426 82.4237 82.7426 82.6845C82.7426 82.9289 82.8852 83.1122 83.1703 83.2345C83.4555 83.3485 83.8222 83.4585 84.2703 83.5645C84.6289 83.646 84.9507 83.756 85.2359 83.8945C85.5292 84.0248 85.7614 84.2041 85.9326 84.4322C86.1118 84.6604 86.2014 84.9578 86.2014 85.3245C86.2014 85.6993 86.0874 86.0171 85.8592 86.2778C85.6392 86.5304 85.35 86.726 84.9914 86.8645C84.6329 86.9948 84.2459 87.06 83.8303 87.06C82.7548 87.06 81.9481 86.7708 81.4103 86.1922Z" fill="#99A9BB"/>
<path d="M10 88.3556H86.727V88.9789H10V88.3556Z" fill="#99A9BB"/>
<path d="M1191.91 14.2849V23.2334H1178.9V10.2222H1187.85C1190.09 10.2222 1191.91 12.0434 1191.91 14.2849Z" fill="white"/>
<path d="M1191.91 36.2444H1178.9V49.2556H1191.91V36.2444Z" fill="white"/>
<path d="M1165.89 10.2222H1152.88V23.2334H1165.89V10.2222Z" fill="#FFD000"/>
<path d="M1139.87 20.6504V10.2222H1126.86V45.1931C1126.86 47.4347 1128.68 49.2559 1130.92 49.2559H1139.87V38.8276C1139.87 37.4004 1141.02 36.2446 1142.45 36.2446H1152.88V23.2334H1142.45C1141.02 23.2334 1139.87 22.0776 1139.87 20.6504Z" fill="white"/>
<path d="M1165.89 36.2444H1152.88V49.2556H1165.89V36.2444Z" fill="white"/>
<path d="M1141.04 63.5719C1140.15 63.5719 1139.42 63.2829 1138.83 62.6788C1138.24 62.0834 1137.95 61.3479 1137.95 60.4373C1137.95 59.5266 1138.23 58.7474 1138.83 58.152C1139.41 57.5478 1140.16 57.2589 1141.08 57.2589C1141.95 57.2589 1142.67 57.5566 1143.26 58.1607C1143.86 58.7649 1144.15 59.4916 1144.15 60.3847C1144.15 61.2778 1143.86 62.0483 1143.26 62.6613C1142.67 63.2742 1141.94 63.5719 1141.04 63.5719ZM1144.57 57.005C1143.62 56.1031 1142.43 55.6566 1141.02 55.6566C1139.61 55.6566 1138.42 56.1119 1137.49 57.005C1136.57 57.9068 1136.09 59.0626 1136.09 60.4285C1136.09 61.7944 1136.57 62.8977 1137.49 63.7908C1138.41 64.6751 1139.58 65.1304 1140.95 65.1304C1142.33 65.1304 1143.6 64.6839 1144.55 63.7908C1145.51 62.8977 1146 61.7594 1146 60.4022C1146 59.0451 1145.52 57.9068 1144.57 57.005ZM1183.23 55.7616V60.9363C1183.23 62.4161 1182.66 63.4318 1181 63.4318C1179.35 63.4318 1178.78 62.4161 1178.78 60.9363V55.7616H1176.98V61.3216C1176.98 64.0534 1178.83 65.1304 1181 65.1304C1183.17 65.1304 1185.02 64.0622 1185.02 61.3216V55.7616H1183.23ZM1172.4 55.7616V63.4055H1176.29V65.0078H1170.62V55.7616H1172.4ZM1165.95 59.9382C1166.84 59.9382 1167.59 59.5267 1167.59 58.6511C1167.59 57.7755 1167.08 57.3639 1165.95 57.3639H1164.87V59.9382H1165.95ZM1166.46 55.7616C1168.4 55.7616 1169.37 57.0225 1169.37 58.6423C1169.37 60.2621 1168.17 61.5405 1166.39 61.5405H1164.87V65.0078H1163.09V55.7616H1166.46ZM1161.87 55.7616V57.3639H1158.83V65.0078H1157.05V57.3639H1154.01V55.7616H1161.87ZM1189.31 55.639C1190.21 55.639 1191.08 55.8667 1191.91 56.3132V58.1345C1190.95 57.5566 1190.31 57.1976 1189.34 57.1976C1188.37 57.1976 1188.03 57.5303 1188.01 57.9856C1187.98 58.3358 1188.2 58.6336 1188.66 58.9313C1188.8 59.0188 1189.29 59.2727 1190.16 59.7018C1190.91 60.0695 1191.47 60.4548 1191.8 60.8926C1192.13 61.3304 1192.31 61.8557 1192.31 62.4686C1192.31 63.2654 1192.02 63.9046 1191.45 64.3949C1190.88 64.8852 1190.14 65.1304 1189.22 65.1304C1188.64 65.1304 1188.12 65.0691 1187.7 64.9378C1187.27 64.8064 1186.8 64.5875 1186.27 64.2636V62.2322C1187.25 63.0553 1188.16 63.5631 1189.03 63.5631C1189.86 63.5631 1190.41 63.2479 1190.41 62.6875C1190.41 62.311 1190.23 61.9695 1189.78 61.6981C1189.4 61.4705 1188.9 61.2165 1188.31 60.8926C1187.61 60.5073 1187.04 60.1571 1186.69 59.7105C1186.33 59.264 1186.14 58.7736 1186.14 58.1958C1186.14 57.4165 1186.43 56.8036 1187.01 56.3395C1187.59 55.8754 1188.35 55.6478 1189.3 55.6478M1150.17 55.639C1151.08 55.639 1151.94 55.8667 1152.77 56.3132V58.1345C1151.82 57.5566 1151.17 57.1976 1150.2 57.1976C1149.23 57.1976 1148.89 57.5303 1148.87 57.9856C1148.84 58.3358 1149.06 58.6336 1149.53 58.9313C1149.66 59.0188 1150.15 59.2727 1151.02 59.7018C1151.77 60.0695 1152.33 60.4548 1152.67 60.8926C1153 61.3304 1153.17 61.8557 1153.17 62.4686C1153.17 63.2654 1152.88 63.9046 1152.31 64.3949C1151.74 64.8852 1151 65.1304 1150.09 65.1304C1149.49 65.1304 1148.98 65.0691 1148.56 64.9378C1148.14 64.8064 1147.66 64.5875 1147.13 64.2636V62.2322C1148.12 63.0553 1149.02 63.5631 1149.89 63.5631C1150.72 63.5631 1151.27 63.2479 1151.27 62.6875C1151.27 62.311 1151.1 61.9695 1150.64 61.6981C1150.26 61.4705 1149.76 61.2165 1149.18 60.8926C1148.47 60.5073 1147.91 60.1571 1147.55 59.7105C1147.19 59.264 1147 58.7736 1147 58.1958C1147 57.4165 1147.29 56.8036 1147.87 56.3395C1148.45 55.8754 1149.21 55.6478 1150.16 55.6478M1128.64 55.7616V59.4478H1133.03V55.7616H1134.82V65.0078H1133.03V61.3128H1128.64V65.0078H1126.86V55.7616H1128.64Z" fill="white"/>
<line x1="1207.1" y1="10.0952" x2="1207.1" y2="65.4619" stroke="white" stroke-width="0.442934"/>
<g clip-path="url(#clip1_18024_40124)">
<path d="M1245.39 10.0698C1236.59 10.0698 1230.73 11.5364 1230.73 11.5364V37.1318C1230.73 39.4255 1231.01 41.2119 1233.66 42.9484C1235 43.8225 1245.39 50.607 1245.39 50.607C1245.39 50.607 1255.79 43.8225 1257.13 42.9484C1259.78 41.2119 1260.06 39.4255 1260.06 37.1318V11.5364C1260.06 11.5364 1254.19 10.0698 1245.39 10.0698Z" fill="#A5ACAF"/>
<path d="M1259.18 37.1318C1259.18 38.2259 1259.11 39.1176 1258.78 39.9066C1258.41 40.7631 1257.74 41.4964 1256.65 42.2121C1255.49 42.9689 1247.46 48.2106 1245.39 49.5569C1243.33 48.2106 1235.3 42.9689 1234.14 42.2121C1233.05 41.4964 1232.37 40.7661 1232.01 39.9066C1231.68 39.1176 1231.61 38.2259 1231.61 37.1318V16.2208C1233.56 15.8395 1238.6 14.9976 1245.39 14.9976C1252.19 14.9976 1257.23 15.8365 1259.18 16.2208V37.1318Z" fill="#331C54"/>
<path d="M1239.82 36.5451V38.305H1248.36L1250.97 36.0699V29.6872L1248.36 27.4521H1246.86V29.212H1247.71L1249.21 30.4968V35.2603L1247.71 36.5451H1243.05V29.212H1243.93V27.4521H1239.82V29.212H1241.29V36.5451H1239.82Z" fill="white"/>
<path d="M1244.51 35.9585H1246.27V25.9855H1252.73V24.2255H1246.27V23.5362C1247.4 23.1666 1248.21 22.1107 1248.21 20.8641C1248.21 19.3094 1246.95 18.0511 1245.39 18.0511C1243.84 18.0511 1242.58 19.3094 1242.58 20.8641C1242.58 22.1107 1243.39 23.1666 1244.51 23.5362V24.2255H1238.06V25.9855H1244.51V35.9585ZM1245.39 19.7817C1245.99 19.7817 1246.48 20.2657 1246.48 20.8641C1246.48 21.4624 1245.99 21.9464 1245.39 21.9464C1244.8 21.9464 1244.31 21.4624 1244.31 20.8641C1244.31 20.2657 1244.8 19.7817 1245.39 19.7817Z" fill="white"/>
<path d="M1253.61 34.1809V36.5862C1253.61 37.4251 1253.39 37.7917 1252.61 38.3021C1252.1 38.6365 1248.08 41.2236 1246.27 42.391V38.8917H1244.51V42.391C1242.7 41.2236 1238.69 38.6365 1238.18 38.3021C1237.4 37.7947 1237.18 37.4251 1237.18 36.5862V34.1809H1235.42V37.1435C1235.42 37.9472 1235.55 38.6981 1236.69 39.4314C1237.83 40.1647 1245.39 45.0515 1245.39 45.0515C1245.39 45.0515 1252.96 40.1647 1254.1 39.4314C1255.23 38.6981 1255.37 37.9472 1255.37 37.1435V34.1809H1253.61Z" fill="white"/>
<path d="M1236.01 13.971V12.2316C1236.53 12.1671 1237.05 12.1055 1237.58 12.0497V12.4252C1237.22 12.4633 1236.87 12.5015 1236.51 12.5455V12.871C1236.76 12.8417 1237.02 12.8124 1237.27 12.7831V13.0764C1237.02 13.1028 1236.76 13.1321 1236.51 13.1644V13.5105C1236.87 13.4694 1237.22 13.4284 1237.58 13.3902V13.7862C1237.05 13.8419 1236.53 13.9006 1236.01 13.9681V13.971Z" fill="#331C54"/>
<path d="M1239.56 13.663C1239.19 13.6923 1238.87 13.6073 1238.61 13.4694C1238.68 13.3609 1238.75 13.2524 1238.81 13.1468C1239.06 13.27 1239.33 13.3374 1239.57 13.3198C1239.83 13.2993 1239.94 13.2025 1239.94 13.1028C1239.94 12.8094 1238.7 13.0822 1238.7 12.4516C1238.7 12.1377 1239.05 11.8532 1239.57 11.8121C1239.94 11.7828 1240.21 11.8855 1240.43 12.0351C1240.35 12.1319 1240.28 12.2257 1240.2 12.3225C1240.02 12.2111 1239.78 12.1407 1239.55 12.1583C1239.32 12.1759 1239.18 12.2668 1239.18 12.3695C1239.18 12.6481 1240.43 12.4047 1240.43 13.0265C1240.43 13.3668 1240.06 13.6278 1239.56 13.6659V13.663Z" fill="#331C54"/>
<path d="M1242.47 12.0878V13.4371C1242.3 13.443 1242.13 13.4518 1241.96 13.4577V12.1084C1241.75 12.1172 1241.53 12.1289 1241.32 12.1406V11.7505C1241.92 11.7183 1242.51 11.6919 1243.11 11.6743V12.0644C1242.9 12.0702 1242.68 12.079 1242.47 12.0878Z" fill="#331C54"/>
<path d="M1243.71 13.399V13.0264C1243.83 13.0264 1243.96 13.0206 1244.08 13.0176V13.3902C1243.96 13.3902 1243.84 13.396 1243.71 13.399Z" fill="#331C54"/>
<path d="M1246.38 13.3843V11.859C1246.54 11.859 1246.61 11.7622 1246.61 11.6478C1246.69 11.6478 1246.77 11.6478 1246.85 11.6508V13.3902C1246.69 13.3902 1246.54 13.3843 1246.38 13.3814L1246.38 13.3843Z" fill="#331C54"/>
<path d="M1248.78 13.5105C1248.46 13.4958 1248.22 13.399 1248.01 13.2377C1248.08 13.1467 1248.15 13.0588 1248.22 12.9678C1248.37 13.0822 1248.56 13.1555 1248.75 13.1643C1249.05 13.179 1249.19 13.0089 1249.19 12.7566V12.6569C1249.06 12.7654 1248.9 12.83 1248.69 12.8212C1248.27 12.8036 1248.01 12.5806 1248.01 12.2814V12.2462C1248.01 11.9089 1248.32 11.6361 1248.81 11.6567C1249.31 11.6801 1249.64 12.0175 1249.64 12.5073V12.7068C1249.64 13.1966 1249.31 13.5339 1248.78 13.5075L1248.78 13.5105ZM1249.18 12.3694C1249.18 12.1905 1249.05 12.0321 1248.8 12.0204C1248.57 12.0116 1248.44 12.1084 1248.44 12.2638V12.2961C1248.44 12.4516 1248.56 12.5601 1248.79 12.5689C1248.96 12.5777 1249.09 12.522 1249.19 12.4428V12.3724L1249.18 12.3694Z" fill="#331C54"/>
<path d="M1251.48 13.6806C1251.16 13.6542 1250.92 13.5486 1250.71 13.3785C1250.78 13.2905 1250.85 13.2025 1250.92 13.1174C1251.08 13.2377 1251.27 13.3198 1251.45 13.3345C1251.75 13.3579 1251.89 13.1937 1251.89 12.9443V12.8446C1251.76 12.9473 1251.6 13.0089 1251.39 12.9913C1250.96 12.9561 1250.71 12.7273 1250.71 12.4252V12.39C1250.71 12.0526 1251.03 11.7887 1251.51 11.8297C1252.01 11.8708 1252.34 12.2198 1252.34 12.7097V12.9121C1252.34 13.4019 1252.01 13.7275 1251.48 13.6835V13.6806ZM1251.89 12.5542C1251.89 12.3753 1251.75 12.211 1251.5 12.1905C1251.27 12.1729 1251.14 12.2638 1251.14 12.4222V12.4545C1251.14 12.61 1251.26 12.7214 1251.49 12.739C1251.66 12.7537 1251.79 12.7038 1251.88 12.6276V12.5572L1251.89 12.5542Z" fill="#331C54"/>
<path d="M1254.53 13.5339V13.9358C1254.38 13.9182 1254.23 13.9006 1254.08 13.883V13.4811C1253.77 13.4459 1253.45 13.4107 1253.14 13.3784V13.0792C1253.46 12.7683 1253.79 12.4574 1254.11 12.1494C1254.25 12.167 1254.39 12.1846 1254.53 12.1993V13.2054C1254.62 13.2171 1254.72 13.2288 1254.81 13.2406V13.572C1254.72 13.5603 1254.62 13.5486 1254.53 13.5368L1254.53 13.5339ZM1254.08 12.6099C1253.91 12.7713 1253.75 12.9297 1253.59 13.091C1253.75 13.1086 1253.91 13.1262 1254.08 13.1467V12.6099Z" fill="#331C54"/>
<path d="M1230.73 54.4173H1232.64V55.045H1231.42V55.4146H1232.61V56.0335H1231.42V56.9076H1230.73V54.4173Z" fill="#A5ACAF"/>
<path d="M1235.04 56.1626H1234.58V56.9076H1233.91V54.4173H1235.17C1236.06 54.4173 1236.21 54.8074 1236.21 55.2738C1236.21 55.5818 1236.14 55.9132 1235.73 56.0687L1236.19 56.9047H1235.44L1235.04 56.1596V56.1626ZM1235.15 55.5847C1235.42 55.5847 1235.51 55.5319 1235.51 55.3031C1235.51 55.0743 1235.42 55.0098 1235.14 55.0098H1234.58V55.5847H1235.15Z" fill="#A5ACAF"/>
<path d="M1237.42 54.4173H1239.41V55.045H1238.12V55.3471H1239.37V55.9543H1238.12V56.3034H1239.42V56.9047H1237.42V54.4144V54.4173Z" fill="#A5ACAF"/>
<path d="M1240.82 54.4173H1241.73L1242.28 55.8986L1242.84 54.4173H1243.75V56.9076H1243.07V55.4615L1242.52 56.9076H1241.99L1241.44 55.4733V56.9076H1240.82V54.4173Z" fill="#A5ACAF"/>
<path d="M1245.78 54.4026H1246.49L1247.49 56.9105H1246.77L1246.65 56.5878H1245.58L1245.46 56.9105H1244.78L1245.78 54.4026H1245.78ZM1246.42 56.0129L1246.12 55.221L1245.81 56.0129H1246.43H1246.42Z" fill="#A5ACAF"/>
<path d="M1248.45 54.4173H1249.2L1250.17 55.7343V54.4173H1250.83V56.9076H1250.19L1249.11 55.4527V56.9076H1248.45V54.4173H1248.45Z" fill="#A5ACAF"/>
<path d="M1252.69 55.045H1251.86V54.4173H1254.21V55.045H1253.38V56.9076H1252.69V55.045Z" fill="#A5ACAF"/>
<path d="M1255.24 54.4173H1255.93V56.3063H1257.11V56.9076H1255.24V54.4173Z" fill="#A5ACAF"/>
<path d="M1258.06 54.4173H1260.05V55.045H1258.76V55.3471H1260.01V55.9543H1258.76V56.3034H1260.06V56.9047H1258.06V54.4144V54.4173Z" fill="#A5ACAF"/>
<path d="M1261.91 63.5983L1263.01 62.689V60.3922L1262.02 59.4037H1257.02V60.6504H1257.89V64.3932H1257.02V65.6398H1259.14V63.6452H1260.43L1261.81 65.6398H1263.38V64.3932H1262.46L1261.92 63.5983H1261.91ZM1261.5 60.6504L1261.76 60.9085V62.1053L1261.41 62.3986H1259.14V60.6533H1261.5L1261.5 60.6504Z" fill="white"/>
<path d="M1221.05 59.4008V60.6474H1221.92V64.3902H1221.05V65.6369H1225.8L1227.28 64.1497V60.888L1225.8 59.4008H1221.05ZM1226.04 63.6335L1225.28 64.3902H1223.17V60.6474H1225.28L1226.04 61.4042V63.6305V63.6335Z" fill="white"/>
<path d="M1230.12 59.4008L1228.63 60.888V64.1468L1230.12 65.6339H1232.88L1234.37 64.1468V60.885L1232.88 59.3979H1230.12V59.4008ZM1233.12 63.6335L1232.36 64.3902H1230.63L1229.88 63.6335V61.4042L1230.63 60.6474H1232.36L1233.12 61.4042V63.6305V63.6335Z" fill="white"/>
<path d="M1269.74 61.3984V60.3923L1268.75 59.4008H1265.49L1264.5 60.3923V62.1551L1265.49 63.1436H1268.23L1268.49 63.4018V64.1321L1268.23 64.3902H1266.01L1265.75 64.1321V63.6423H1264.5V64.6484L1265.49 65.6369H1268.75L1269.74 64.6484V62.8855L1268.75 61.897H1266.01L1265.75 61.6389V60.9085L1266.01 60.6504H1268.23L1268.49 60.9085V61.3984H1269.74Z" fill="white"/>
<path d="M1237.13 59.4008L1235.64 60.8909V64.1497L1237.13 65.6369H1239.89L1241.38 64.1497V63.2698H1240.13V63.6335L1239.37 64.3902H1237.64L1236.89 63.6335V61.4072L1237.64 60.6504H1239.37L1240.13 61.4072V61.7709H1241.38V60.8909L1239.89 59.4008H1237.13Z" fill="white"/>
<path d="M1248.79 60.6504V59.4008H1247.55L1244.67 61.9938V59.4008H1242.55V60.6504H1243.43V64.3902H1242.58V65.6369H1244.67V63.6716L1245.48 62.9412L1247.47 65.6369H1248.79V64.3902H1248.1L1246.41 62.1023L1248.03 60.6504H1248.79Z" fill="white"/>
<path d="M1250.03 60.6504H1251.03V64.3902H1250.03V65.6369H1255.65V63.7684H1254.4V64.3902H1252.28V63.1436H1254.28V61.897H1252.28V60.6504H1254.4V61.2722H1255.65V59.4008H1250.03V60.6504Z" fill="white"/>
</g>
<path d="M1129.12 85.3115C1128.72 85.3115 1128.35 85.2414 1128.01 85.1011C1127.68 84.9555 1127.38 84.7532 1127.12 84.4942C1126.86 84.2353 1126.67 83.9332 1126.53 83.5879C1126.39 83.2427 1126.32 82.8704 1126.32 82.4712C1126.32 82.0666 1126.39 81.6944 1126.53 81.3545C1126.67 81.0093 1126.86 80.7072 1127.12 80.4482C1127.37 80.1893 1127.67 79.9897 1128.01 79.8494C1128.35 79.7038 1128.72 79.6309 1129.12 79.6309C1129.52 79.6309 1129.89 79.7038 1130.23 79.8494C1130.57 79.9897 1130.87 80.1893 1131.12 80.4482C1131.38 80.7072 1131.58 81.0093 1131.72 81.3545C1131.86 81.6944 1131.93 82.0666 1131.93 82.4712C1131.93 82.8704 1131.86 83.2427 1131.72 83.5879C1131.58 83.9332 1131.38 84.2353 1131.12 84.4942C1130.87 84.7532 1130.57 84.9555 1130.23 85.1011C1129.89 85.2414 1129.52 85.3115 1129.12 85.3115ZM1129.12 84.1625C1129.44 84.1625 1129.71 84.0842 1129.94 83.9278C1130.17 83.7713 1130.35 83.5636 1130.47 83.3047C1130.59 83.0458 1130.65 82.7625 1130.65 82.455C1130.65 82.1476 1130.59 81.867 1130.47 81.6135C1130.35 81.3545 1130.17 81.1495 1129.94 80.9985C1129.71 80.842 1129.44 80.7638 1129.12 80.7638C1128.81 80.7638 1128.53 80.842 1128.3 80.9985C1128.07 81.1495 1127.9 81.3545 1127.77 81.6135C1127.65 81.867 1127.59 82.1476 1127.59 82.455C1127.59 82.7625 1127.65 83.0458 1127.77 83.3047C1127.9 83.5636 1128.07 83.7713 1128.3 83.9278C1128.53 84.0842 1128.81 84.1625 1129.12 84.1625ZM1132.78 85.174V79.7766H1136.4V80.8528H1134V82.0747H1135.83V83.1186H1134V85.174H1132.78ZM1137.14 85.174V79.7766H1140.76V80.8528H1138.36V82.0747H1140.19V83.1186H1138.36V85.174H1137.14ZM1141.5 85.174V79.7766H1142.72V85.174H1141.5ZM1147.81 83.418L1148.65 84.1786C1148.5 84.3836 1148.3 84.5724 1148.07 84.7451C1147.83 84.9177 1147.57 85.0553 1147.28 85.1578C1146.99 85.2603 1146.68 85.3115 1146.34 85.3115C1145.8 85.3115 1145.31 85.1901 1144.89 84.9474C1144.48 84.7046 1144.15 84.3728 1143.91 83.9521C1143.68 83.5259 1143.57 83.0404 1143.57 82.4955C1143.57 82.0963 1143.63 81.7241 1143.77 81.3788C1143.9 81.0282 1144.09 80.7234 1144.34 80.4644C1144.58 80.2055 1144.88 80.0032 1145.22 79.8575C1145.56 79.7119 1145.94 79.639 1146.36 79.639C1146.85 79.639 1147.29 79.7307 1147.67 79.9142C1148.05 80.0976 1148.36 80.3619 1148.61 80.7072L1147.77 81.5083C1147.61 81.2817 1147.42 81.101 1147.2 80.9661C1146.98 80.8259 1146.71 80.7557 1146.41 80.7557C1146.08 80.7557 1145.8 80.834 1145.57 80.9904C1145.33 81.1414 1145.15 81.3464 1145.02 81.6054C1144.9 81.8643 1144.84 82.1502 1144.84 82.4631C1144.84 82.7814 1144.9 83.0673 1145.02 83.3209C1145.15 83.5744 1145.33 83.7767 1145.57 83.9278C1145.8 84.0734 1146.07 84.1463 1146.38 84.1463C1146.64 84.1463 1146.86 84.1112 1147.03 84.0411C1147.2 83.9709 1147.35 83.8819 1147.47 83.774C1147.59 83.6608 1147.71 83.5421 1147.81 83.418ZM1149.28 85.174V79.7766H1150.51V85.174H1149.28ZM1151.09 85.174L1153.11 79.7766H1154.46L1156.43 85.174H1155.1L1154.68 83.9359H1152.78L1152.37 85.174H1151.09ZM1153.07 82.9891H1154.39L1153.74 80.9499L1153.07 82.9891ZM1157.01 85.174V79.7766H1158.24V84.0896H1160.82V85.174H1157.01ZM1162.61 84.4133L1163.4 83.5636C1163.54 83.7147 1163.73 83.8631 1163.96 84.0087C1164.2 84.1544 1164.47 84.2272 1164.78 84.2272C1164.91 84.2272 1165.03 84.2056 1165.15 84.1625C1165.27 84.1139 1165.36 84.0465 1165.44 83.9602C1165.52 83.8684 1165.56 83.7606 1165.56 83.6365C1165.56 83.4369 1165.46 83.2804 1165.27 83.1671C1165.07 83.0539 1164.77 82.946 1164.35 82.8435C1163.94 82.741 1163.6 82.5602 1163.33 82.3013C1163.06 82.0424 1162.92 81.7079 1162.92 81.2979C1162.92 80.9958 1163 80.7207 1163.14 80.4725C1163.29 80.219 1163.5 80.0167 1163.8 79.8656C1164.09 79.7092 1164.45 79.6309 1164.9 79.6309C1165.26 79.6309 1165.57 79.6795 1165.82 79.7766C1166.07 79.8683 1166.28 79.9708 1166.43 80.0841C1166.58 80.1974 1166.68 80.2891 1166.74 80.3592L1166.04 81.1361C1165.92 81.0443 1165.76 80.9418 1165.57 80.8286C1165.37 80.7099 1165.14 80.6505 1164.88 80.6505C1164.71 80.6505 1164.55 80.7018 1164.4 80.8043C1164.25 80.9014 1164.18 81.0201 1164.18 81.1603C1164.18 81.3437 1164.27 81.4921 1164.47 81.6054C1164.66 81.7187 1164.93 81.8131 1165.27 81.8886C1165.53 81.9533 1165.79 82.0504 1166.03 82.1799C1166.28 82.3094 1166.48 82.4901 1166.64 82.7221C1166.79 82.9541 1166.87 83.2562 1166.87 83.6284C1166.87 83.9521 1166.78 84.2407 1166.6 84.4942C1166.41 84.7478 1166.16 84.9474 1165.85 85.093C1165.54 85.2387 1165.19 85.3115 1164.8 85.3115C1164.44 85.3115 1164.13 85.2684 1163.85 85.182C1163.58 85.0957 1163.34 84.9851 1163.13 84.8503C1162.93 84.71 1162.76 84.5644 1162.61 84.4133ZM1167.74 83.1267V79.7766H1168.97V82.9729C1168.97 83.3236 1169.04 83.6068 1169.19 83.8226C1169.35 84.0384 1169.62 84.1463 1170 84.1463C1170.38 84.1463 1170.65 84.0384 1170.8 83.8226C1170.95 83.6068 1171.03 83.3236 1171.03 82.9729V79.7766H1172.27V83.1267C1172.27 83.5583 1172.17 83.9386 1171.98 84.2676C1171.8 84.5967 1171.54 84.8557 1171.2 85.0445C1170.86 85.2279 1170.47 85.3196 1170 85.3196C1169.54 85.3196 1169.14 85.2279 1168.8 85.0445C1168.46 84.8611 1168.2 84.6048 1168.01 84.2757C1167.83 83.9413 1167.74 83.5583 1167.74 83.1267ZM1173.28 85.174V79.7766H1175.24C1175.69 79.7766 1176.05 79.8602 1176.33 80.0275C1176.61 80.1893 1176.81 80.4024 1176.94 80.6667C1177.07 80.9311 1177.14 81.2143 1177.14 81.5164C1177.14 81.8994 1177.05 82.2231 1176.88 82.4874C1176.7 82.7464 1176.48 82.9433 1176.2 83.0781C1175.92 83.2076 1175.62 83.2723 1175.3 83.2723H1174.47V85.174H1173.28ZM1174.47 82.2851H1175.18C1175.4 82.2851 1175.58 82.215 1175.71 82.0747C1175.85 81.9345 1175.91 81.7564 1175.91 81.5407C1175.91 81.3141 1175.85 81.1307 1175.71 80.9904C1175.58 80.8447 1175.4 80.7719 1175.17 80.7719H1174.47V82.2851ZM1177.95 85.174V79.7766H1181.64V80.8447H1179.18V81.8967H1181.09V82.9325H1179.18V84.0977H1181.82V85.174H1177.95ZM1182.65 85.174V79.7766H1184.66C1185.08 79.7766 1185.43 79.8548 1185.71 80.0113C1185.99 80.1623 1186.2 80.3673 1186.34 80.6263C1186.48 80.8798 1186.55 81.1603 1186.55 81.4678C1186.55 81.8131 1186.47 82.1179 1186.31 82.3822C1186.16 82.6466 1185.95 82.8569 1185.67 83.0134L1186.86 85.174H1185.52L1184.52 83.1914H1183.84V85.174H1182.65ZM1183.84 82.2123H1184.59C1184.82 82.2123 1184.99 82.1449 1185.12 82.01C1185.25 81.8751 1185.32 81.7052 1185.32 81.5002C1185.32 81.279 1185.25 81.1037 1185.12 80.9742C1184.99 80.8447 1184.81 80.78 1184.59 80.78H1183.84V82.2123ZM1187.09 85.174L1189.11 79.7766H1190.46L1192.43 85.174H1191.1L1190.69 83.9359H1188.79L1188.37 85.174H1187.09ZM1189.07 82.9891H1190.4L1189.74 80.9499L1189.07 82.9891ZM1193.02 85.174V79.7766H1194.18L1196.52 83.2804V79.7766H1197.73V85.174H1196.62L1194.22 81.6054V85.174H1193.02ZM1198.78 85.174V79.7766H1199.94L1202.28 83.2804V79.7766H1203.49V85.174H1202.38L1199.98 81.6054V85.174H1198.78ZM1204.5 83.1267V79.7766H1205.73V82.9729C1205.73 83.3236 1205.8 83.6068 1205.95 83.8226C1206.11 84.0384 1206.38 84.1463 1206.76 84.1463C1207.15 84.1463 1207.41 84.0384 1207.56 83.8226C1207.72 83.6068 1207.79 83.3236 1207.79 82.9729V79.7766H1209.03V83.1267C1209.03 83.5583 1208.93 83.9386 1208.75 84.2676C1208.56 84.5967 1208.3 84.8557 1207.96 85.0445C1207.63 85.2279 1207.23 85.3196 1206.76 85.3196C1206.3 85.3196 1205.91 85.2279 1205.57 85.0445C1205.23 84.8611 1204.96 84.6048 1204.77 84.2757C1204.59 83.9413 1204.5 83.5583 1204.5 83.1267ZM1209.32 85.174L1211.34 79.7766H1212.69L1214.66 85.174H1213.33L1212.92 83.9359H1211.01L1210.6 85.174H1209.32ZM1211.3 82.9891H1212.62L1211.97 80.9499L1211.3 82.9891ZM1215.76 85.174V80.8528H1214.01V79.7766H1218.73V80.8528H1216.99V85.174H1215.76ZM1219.43 85.174V79.7766H1220.65V85.174H1219.43ZM1224.3 85.3115C1223.9 85.3115 1223.53 85.2414 1223.19 85.1011C1222.85 84.9555 1222.55 84.7532 1222.29 84.4942C1222.04 84.2353 1221.84 83.9332 1221.7 83.5879C1221.56 83.2427 1221.49 82.8704 1221.49 82.4712C1221.49 82.0666 1221.56 81.6944 1221.7 81.3545C1221.84 81.0093 1222.04 80.7072 1222.29 80.4482C1222.55 80.1893 1222.84 79.9897 1223.18 79.8494C1223.53 79.7038 1223.9 79.6309 1224.3 79.6309C1224.7 79.6309 1225.07 79.7038 1225.41 79.8494C1225.75 79.9897 1226.04 80.1893 1226.3 80.4482C1226.56 80.7072 1226.76 81.0093 1226.9 81.3545C1227.04 81.6944 1227.11 82.0666 1227.11 82.4712C1227.11 82.8704 1227.04 83.2427 1226.9 83.5879C1226.76 83.9332 1226.56 84.2353 1226.3 84.4942C1226.04 84.7532 1225.75 84.9555 1225.41 85.1011C1225.07 85.2414 1224.7 85.3115 1224.3 85.3115ZM1224.3 84.1625C1224.62 84.1625 1224.89 84.0842 1225.12 83.9278C1225.35 83.7713 1225.52 83.5636 1225.64 83.3047C1225.77 83.0458 1225.83 82.7625 1225.83 82.455C1225.83 82.1476 1225.77 81.867 1225.64 81.6135C1225.52 81.3545 1225.35 81.1495 1225.12 80.9985C1224.89 80.842 1224.62 80.7638 1224.3 80.7638C1223.98 80.7638 1223.71 80.842 1223.47 80.9985C1223.25 81.1495 1223.07 81.3545 1222.95 81.6135C1222.82 81.867 1222.76 82.1476 1222.76 82.455C1222.76 82.7625 1222.82 83.0458 1222.95 83.3047C1223.07 83.5636 1223.25 83.7713 1223.47 83.9278C1223.71 84.0842 1223.98 84.1625 1224.3 84.1625ZM1227.95 85.174V79.7766H1229.12L1231.46 83.2804V79.7766H1232.66V85.174H1231.55L1229.16 81.6054V85.174H1227.95ZM1235.17 85.174V79.7766H1237.14C1237.59 79.7766 1237.95 79.8602 1238.23 80.0275C1238.51 80.1893 1238.71 80.4024 1238.84 80.6667C1238.97 80.9311 1239.03 81.2143 1239.03 81.5164C1239.03 81.8994 1238.95 82.2231 1238.78 82.4874C1238.6 82.7464 1238.38 82.9433 1238.1 83.0781C1237.82 83.2076 1237.52 83.2723 1237.2 83.2723H1236.36V85.174H1235.17ZM1236.36 82.2851H1237.08C1237.3 82.2851 1237.48 82.215 1237.61 82.0747C1237.75 81.9345 1237.81 81.7564 1237.81 81.5407C1237.81 81.3141 1237.75 81.1307 1237.61 80.9904C1237.48 80.8447 1237.3 80.7719 1237.07 80.7719H1236.36V82.2851ZM1238.7 85.174L1240.71 79.7766H1242.06L1244.04 85.174H1242.7L1242.29 83.9359H1240.39L1239.97 85.174H1238.7ZM1240.67 82.9891H1242L1241.34 80.9499L1240.67 82.9891ZM1244.62 85.174V79.7766H1246.63C1247.05 79.7766 1247.4 79.8548 1247.68 80.0113C1247.96 80.1623 1248.17 80.3673 1248.31 80.6263C1248.45 80.8798 1248.52 81.1603 1248.52 81.4678C1248.52 81.8131 1248.44 82.1179 1248.28 82.3822C1248.13 82.6466 1247.92 82.8569 1247.64 83.0134L1248.83 85.174H1247.49L1246.49 83.1914H1245.81V85.174H1244.62ZM1245.81 82.2123H1246.56C1246.79 82.2123 1246.96 82.1449 1247.09 82.01C1247.22 81.8751 1247.29 81.7052 1247.29 81.5002C1247.29 81.279 1247.22 81.1037 1247.09 80.9742C1246.96 80.8447 1246.78 80.78 1246.56 80.78H1245.81V82.2123ZM1250.77 85.174V80.8528H1249.02V79.7766H1253.74V80.8528H1252V85.174H1250.77ZM1254.43 85.174V79.7766H1255.6L1257.94 83.2804V79.7766H1259.14V85.174H1258.03L1255.64 81.6054V85.174H1254.43ZM1260.19 85.174V79.7766H1263.88V80.8447H1261.42V81.8967H1263.33V82.9325H1261.42V84.0977H1264.06V85.174H1260.19ZM1264.89 85.174V79.7766H1266.89C1267.32 79.7766 1267.67 79.8548 1267.95 80.0113C1268.23 80.1623 1268.44 80.3673 1268.58 80.6263C1268.72 80.8798 1268.79 81.1603 1268.79 81.4678C1268.79 81.8131 1268.71 82.1179 1268.55 82.3822C1268.4 82.6466 1268.19 82.8569 1267.91 83.0134L1269.1 85.174H1267.76L1266.76 83.1914H1266.08V85.174H1264.89ZM1266.08 82.2123H1266.83C1267.06 82.2123 1267.23 82.1449 1267.36 82.01C1267.49 81.8751 1267.56 81.7052 1267.56 81.5002C1267.56 81.279 1267.49 81.1037 1267.36 80.9742C1267.23 80.8447 1267.05 80.78 1266.83 80.78H1266.08V82.2123Z" fill="white"/>
</g>
<rect x="0.555556" y="0.555556" width="1278.89" height="98.8889" stroke="black" stroke-width="1.11111"/>
<defs>
<linearGradient id="paint0_linear_18024_40124" x1="-100.5" y1="123.5" x2="-80.1231" y2="-93.1545" gradientUnits="userSpaceOnUse">
<stop stop-color="#002855"/>
<stop offset="0.168944" stop-color="#012855"/>
<stop offset="0.685867" stop-color="#022348"/>
<stop offset="1" stop-color="#001A36"/>
</linearGradient>
<clipPath id="clip0_18024_40124">
<rect width="1280" height="100" fill="white"/>
</clipPath>
<clipPath id="clip1_18024_40124">
<rect width="48.6916" height="55.5671" fill="white" transform="translate(1221.05 10.0698)"/>
</clipPath>
</defs>
</svg>
