<?xml version="1.0" encoding="UTF-8"?>
<svg id="Layer_1" data-name="Layer 1" xmlns="http://www.w3.org/2000/svg" width="1280" height="100" version="1.1" viewBox="0 0 1280 100">
  <defs>
    <style>
      .cls-1 {
        fill: none;
        stroke: #000;
        stroke-width: 1.1px;
      }

      .cls-2 {
        fill: #99a9bb;
      }

      .cls-2, .cls-3, .cls-4 {
        stroke-width: 0px;
      }

      .cls-3 {
        fill: #fff;
      }

      .cls-4 {
        fill: #002855;
      }
    </style>
  </defs>
  <rect class="cls-4" x=".6" y=".6" width="1278.9" height="98.9"/>
  <rect class="cls-1" x=".6" y=".6" width="1278.9" height="98.9"/>
  <path class="cls-2" d="M10.2,19l3.5-8.9h1.3l3.5,8.9h-1.4l-.9-2.5h-3.7l-.9,2.5h-1.3ZM12.8,15.4h2.9l-1.4-3.9-1.5,3.9ZM20.4,19l-2.1-6.2h1.3l1.4,4.7,1.5-4.7h1l1.5,4.8,1.4-4.8h1.2l-2.1,6.2h-1.2l-1.4-4.3-1.4,4.3h-1.1ZM32.5,19v-.7c-.2.3-.6.5-.9.7-.4.2-.8.2-1.2.2s-.7,0-1-.2c-.3-.1-.6-.3-.8-.6-.2-.3-.3-.7-.3-1.1,0-.7.2-1.2.7-1.6s1.1-.6,2-.6.4,0,.6,0c.2,0,.4,0,.6,0,.2,0,.3,0,.3,0v-.2c0-.5-.1-.8-.4-1-.3-.2-.7-.3-1.1-.3s-.8,0-1.1.2c-.3.1-.5.3-.7.4l-.6-.8c.2-.2.5-.4.9-.5.4-.2.9-.3,1.6-.3s1.4.2,1.9.6c.5.4.7.9.7,1.6v3.8c0,0,0,.2,0,.3h-1.1ZM32.5,16.8v-.7s-.1,0-.3,0c-.2,0-.3,0-.5,0-.2,0-.4,0-.6,0-.4,0-.8,0-1,.2-.2.1-.4.3-.5.5,0,.2-.1.4-.1.6,0,.3.1.6.3.8.2.2.6.3,1,.3s.6,0,.9-.2c.3-.1.5-.3.6-.5.2-.2.3-.5.3-.7ZM36.5,19h-1.2v-5.8c0,0,0-.2,0-.4h1.1v1c.1-.1.3-.3.4-.5.2-.2.4-.3.7-.4.3-.1.6-.2,1-.2s.3,0,.4,0c.1,0,.2,0,.3,0l-.3,1.1c-.2,0-.4,0-.6,0s-.6,0-.9.3c-.3.2-.5.4-.6.7-.2.3-.2.6-.2.9v3.3ZM44.3,19v-.8c-.1,0-.2.2-.4.3-.2.2-.4.3-.7.4-.3.1-.6.2-1,.2s-1-.1-1.4-.4c-.4-.3-.7-.6-1-1.1-.2-.5-.4-1-.4-1.7s0-1.1.3-1.5c.2-.4.5-.8.8-1,.3-.3.7-.5,1-.6.4-.1.7-.2,1.1-.2s.6,0,.9.1c.2,0,.5.2.7.3v-2.9h1.2v8.5c0,.1,0,.2,0,.4h-1.2ZM44.3,16.4v-2.2c-.2-.1-.4-.2-.6-.3-.2,0-.6-.1-.9-.1-.6,0-1.1.2-1.5.6-.4.4-.6,1-.6,1.7s0,.8.2,1.1c.1.3.3.6.6.8.3.2.6.3,1,.3s.8,0,1-.3c.3-.2.4-.4.6-.7.1-.3.2-.5.2-.8ZM46.8,18.2l.7-.8c.2.2.5.4.8.5.3.1.7.2,1.1.2s.7,0,1-.2c.3-.1.4-.3.4-.6s0-.4-.2-.5c-.1-.1-.3-.2-.5-.3-.3,0-.6-.2-1.1-.3-.3,0-.6-.2-.9-.3-.3-.1-.6-.3-.7-.6-.2-.2-.3-.6-.3-1s.1-.7.3-1c.2-.3.5-.5.9-.6.4-.1.8-.2,1.2-.2s1,0,1.4.2c.4.1.7.3,1,.6l-.7.8c-.2-.2-.4-.3-.7-.4-.3-.1-.6-.2-1-.2s-.7,0-.9.2c-.2.1-.3.3-.3.6s.2.5.5.6c.3.1.7.2,1.2.4.4,0,.7.2,1.1.4.3.1.6.3.8.6.2.2.3.6.3,1s-.1.8-.4,1c-.2.3-.6.5-.9.6-.4.1-.8.2-1.3.2-1.2,0-2.1-.3-2.6-.9ZM59.7,19v-.7c-.2.3-.6.5-.9.7-.4.2-.8.2-1.2.2s-.7,0-1-.2c-.3-.1-.6-.3-.8-.6-.2-.3-.3-.7-.3-1.1,0-.7.2-1.2.7-1.6s1.1-.6,2-.6.4,0,.6,0c.2,0,.4,0,.6,0,.2,0,.3,0,.3,0v-.2c0-.5-.1-.8-.4-1-.3-.2-.7-.3-1.1-.3s-.8,0-1.1.2c-.3.1-.5.3-.7.4l-.6-.8c.2-.2.5-.4.9-.5.4-.2.9-.3,1.6-.3s1.4.2,1.9.6c.5.4.7.9.7,1.6v3.8c0,0,0,.2,0,.3h-1.1ZM59.7,16.8v-.7s-.1,0-.3,0c-.2,0-.3,0-.5,0-.2,0-.4,0-.6,0-.4,0-.8,0-1,.2-.2.1-.4.3-.5.5,0,.2-.1.4-.1.6,0,.3.1.6.3.8.2.2.6.3,1,.3s.6,0,.9-.2c.3-.1.5-.3.6-.5.2-.2.3-.5.3-.7ZM63.7,19h-1.2v-5.8c0,0,0-.2,0-.4h1.1v.9c.1-.2.3-.3.5-.5.2-.2.4-.3.7-.4.3-.1.6-.2,1-.2.8,0,1.4.2,1.8.7.4.5.6,1.1.6,1.9v3.7h-1.2v-3.6c0-.6-.1-1-.4-1.3-.2-.3-.6-.4-1-.4s-.8.1-1.1.4c-.3.2-.5.5-.6.9-.1.4-.2.8-.2,1.2v2.9ZM74.2,19v-.8c-.1,0-.2.2-.4.3-.2.2-.4.3-.7.4-.3.1-.6.2-1,.2s-1-.1-1.4-.4c-.4-.3-.7-.6-1-1.1s-.4-1-.4-1.7,0-1.1.3-1.5c.2-.4.5-.8.8-1,.3-.3.7-.5,1-.6.4-.1.7-.2,1.1-.2s.6,0,.9.1c.2,0,.5.2.7.3v-2.9h1.2v8.5c0,.1,0,.2,0,.4h-1.2ZM74.2,16.4v-2.2c-.2-.1-.4-.2-.6-.3-.2,0-.6-.1-.9-.1-.6,0-1.1.2-1.5.6-.4.4-.6,1-.6,1.7s0,.8.2,1.1c.1.3.3.6.6.8.3.2.6.3,1,.3s.8,0,1-.3c.3-.2.4-.4.6-.7.1-.3.2-.5.2-.8ZM80.7,19h-1.2v-5.8c0,0,0-.2,0-.4h1.1v1c.1-.1.3-.3.4-.5.2-.2.4-.3.7-.4.3-.1.6-.2,1-.2s.3,0,.4,0c.1,0,.2,0,.3,0l-.3,1.1c-.2,0-.4,0-.6,0s-.6,0-.9.3c-.3.2-.5.4-.6.7-.2.3-.2.6-.2.9v3.3ZM88,19v-.7c-.2.3-.6.5-.9.7-.4.2-.8.2-1.2.2s-.7,0-1-.2c-.3-.1-.6-.3-.8-.6-.2-.3-.3-.7-.3-1.1,0-.7.2-1.2.7-1.6s1.1-.6,2-.6.4,0,.6,0c.2,0,.4,0,.6,0,.2,0,.3,0,.3,0v-.2c0-.5-.1-.8-.4-1-.3-.2-.7-.3-1.1-.3s-.8,0-1.1.2c-.3.1-.5.3-.7.4l-.6-.8c.2-.2.5-.4.9-.5.4-.2.9-.3,1.6-.3s1.4.2,1.9.6c.5.4.7.9.7,1.6v3.8c0,0,0,.2,0,.3h-1.1ZM88,16.8v-.7s-.1,0-.3,0c-.2,0-.3,0-.5,0-.2,0-.4,0-.6,0-.4,0-.8,0-1,.2-.2.1-.4.3-.5.5,0,.2-.1.4-.1.6,0,.3.1.6.3.8.2.2.6.3,1,.3s.6,0,.9-.2c.3-.1.5-.3.6-.5.2-.2.3-.5.3-.7ZM91.3,17v-3.2h-1.1v-1h1.1v-2h1.2v2h1.8v1h-1.8v3.1c0,.5,0,.8.2,1,.2.2.4.3.7.3s.4,0,.6-.1c.2,0,.3-.2.5-.3l.5.7c-.3.2-.5.4-.8.5-.3.1-.6.2-1,.2-.6,0-1.1-.2-1.4-.5-.3-.4-.5-.9-.5-1.7ZM95.9,11.7v-1.3h1.3v1.3h-1.3ZM96,19v-6.2h1.2v6.2h-1.2ZM100.1,19h-1.2v-5.8c0,0,0-.2,0-.4h1.1v.9c.1-.2.3-.3.5-.5.2-.2.4-.3.7-.4.3-.1.6-.2,1-.2.8,0,1.4.2,1.8.7.4.5.6,1.1.6,1.9v3.7h-1.2v-3.6c0-.6-.1-1-.4-1.3-.2-.3-.6-.4-1-.4s-.8.1-1.1.4c-.3.2-.5.5-.6.9-.1.4-.2.8-.2,1.2v2.9ZM106.4,21.1l.6-.9c.2.1.5.3.7.4.3.1.7.2,1.1.2s1-.2,1.3-.5c.3-.3.4-.8.4-1.3v-.8c0,0-.2.2-.4.3-.2.1-.4.2-.6.3-.2.1-.6.2-.9.2-.6,0-1.1-.1-1.5-.4-.4-.3-.7-.6-1-1.1-.2-.5-.3-1-.3-1.6s.1-1.2.4-1.7c.3-.5.7-.9,1.2-1.2.5-.3,1.1-.4,1.8-.4s1,0,1.4.1c.4,0,.8.2,1.1.3v5.9c0,.9-.3,1.6-.8,2.1-.5.5-1.3.7-2.2.7s-1.1,0-1.5-.2c-.4-.1-.7-.3-.9-.5ZM110.6,16.5v-2.6c0,0-.2,0-.4-.1-.2,0-.5,0-.9,0s-.8,0-1.2.3c-.3.2-.6.4-.8.8-.2.3-.3.7-.3,1.2s0,.7.2,1c.1.3.3.6.6.7.3.2.6.3,1,.3s.7,0,1-.2c.3-.2.4-.3.6-.6.1-.2.2-.5.2-.7ZM113.1,18.2l.7-.8c.2.2.5.4.8.5.3.1.7.2,1.1.2s.7,0,1-.2c.3-.1.4-.3.4-.6s0-.4-.2-.5c-.1-.1-.3-.2-.5-.3-.3,0-.6-.2-1.1-.3-.3,0-.6-.2-.9-.3-.3-.1-.6-.3-.7-.6-.2-.2-.3-.6-.3-1s.1-.7.3-1c.2-.3.5-.5.9-.6.4-.1.8-.2,1.2-.2s1,0,1.4.2c.4.1.7.3,1,.6l-.7.8c-.2-.2-.4-.3-.7-.4-.3-.1-.6-.2-1-.2s-.7,0-.9.2c-.2.1-.3.3-.3.6s.2.5.5.6c.3.1.7.2,1.2.4.4,0,.7.2,1.1.4.3.1.6.3.8.6.2.2.3.6.3,1s-.1.8-.4,1c-.2.3-.6.5-.9.6-.4.1-.8.2-1.3.2-1.2,0-2.1-.3-2.6-.9ZM126,19v-.7c-.2.3-.6.5-.9.7-.4.2-.8.2-1.2.2s-.7,0-1-.2c-.3-.1-.6-.3-.8-.6-.2-.3-.3-.7-.3-1.1,0-.7.2-1.2.7-1.6s1.1-.6,2-.6.4,0,.6,0c.2,0,.4,0,.6,0,.2,0,.3,0,.3,0v-.2c0-.5-.1-.8-.4-1-.3-.2-.7-.3-1.1-.3s-.8,0-1.1.2c-.3.1-.5.3-.7.4l-.6-.8c.2-.2.5-.4.9-.5.4-.2.9-.3,1.6-.3s1.4.2,1.9.6c.5.4.7.9.7,1.6v3.8c0,0,0,.2,0,.3h-1.1ZM126,16.8v-.7s-.1,0-.3,0c-.2,0-.3,0-.5,0-.2,0-.4,0-.6,0-.4,0-.8,0-1,.2-.2.1-.4.3-.5.5,0,.2-.1.4-.1.6,0,.3.1.6.3.8.2.2.6.3,1,.3s.6,0,.9-.2c.3-.1.5-.3.6-.5.2-.2.3-.5.3-.7ZM130,19h-1.2v-5.8c0,0,0-.2,0-.4h1.1v1c.1-.1.3-.3.4-.5.2-.2.4-.3.7-.4.3-.1.6-.2,1-.2s.3,0,.4,0c.1,0,.2,0,.3,0l-.3,1.1c-.2,0-.4,0-.6,0s-.6,0-.9.3c-.3.2-.5.4-.6.7-.2.3-.2.6-.2.9v3.3ZM138.2,17.4l.7.7c0,.1-.2.2-.5.4-.2.2-.5.3-.9.5-.4.1-.8.2-1.3.2s-1.2-.1-1.7-.4c-.5-.3-.9-.7-1.1-1.2-.3-.5-.4-1.1-.4-1.7s.1-1.2.4-1.6c.3-.5.6-.9,1.1-1.2.5-.3,1-.4,1.6-.4s1.3.2,1.7.5c.4.3.8.8,1,1.3.2.6.3,1.1.3,1.8h-4.9c0,.4.1.7.3,1,.2.3.4.5.7.7.3.2.6.2,1,.2.5,0,1,0,1.3-.3.3-.2.6-.4.7-.5ZM134.2,15.4h3.7c0-.5-.2-.9-.5-1.2-.3-.3-.7-.5-1.3-.5s-.7,0-1,.3c-.3.2-.5.4-.6.7-.1.3-.2.5-.2.8ZM145.8,19.2c-.6,0-1.2-.1-1.7-.4-.5-.3-.9-.7-1.2-1.2-.3-.5-.4-1.1-.4-1.7s.1-1.2.4-1.7c.3-.5.7-.9,1.2-1.2.5-.3,1.1-.5,1.7-.5s1.2.2,1.7.5c.5.3.9.7,1.2,1.2.3.5.4,1,.4,1.7s-.1,1.1-.4,1.7c-.3.5-.7.9-1.2,1.2-.5.3-1,.4-1.7.4ZM145.8,18.1c.4,0,.8-.1,1.1-.3.3-.2.5-.5.7-.9.2-.3.3-.7.3-1.1s0-.7-.3-1.1c-.2-.3-.4-.6-.7-.8-.3-.2-.7-.3-1.1-.3s-.8.1-1.1.3c-.3.2-.6.5-.7.8-.2.3-.2.7-.2,1.1s0,.7.3,1.1c.2.3.4.6.7.8.3.2.7.3,1.1.3ZM151.7,19h-1.2v-5.8c0,0,0-.2,0-.4h1.1v.9c.1-.2.3-.3.5-.5.2-.2.4-.3.7-.4.3-.1.6-.2,1-.2.8,0,1.4.2,1.8.7.4.5.6,1.1.6,1.9v3.7h-1.2v-3.6c0-.6-.1-1-.4-1.3-.2-.3-.6-.4-1-.4s-.8.1-1.1.4c-.3.2-.5.5-.6.9-.1.4-.2.8-.2,1.2v2.9ZM157.7,19v-8.9h1.2v8.9h-1.2ZM160,21.4l.5-.8c0,0,.2.2.3.2.1,0,.3,0,.4,0,.3,0,.5-.1.6-.4.1-.2.3-.6.5-1.1l.2-.4-2.8-6.1h1.4l2,4.7,1.8-4.7h1.3l-2.5,6c-.1.3-.2.6-.4.9-.1.3-.3.7-.4,1-.2.3-.4.6-.7.8-.3.2-.6.3-1,.3s-.6,0-.8-.1c-.2,0-.4-.2-.6-.3ZM172.6,19.2c-.6,0-1.2-.1-1.7-.4-.5-.3-.9-.7-1.2-1.2-.3-.5-.4-1.1-.4-1.7s.1-1.2.4-1.7c.3-.5.7-.9,1.2-1.2.5-.3,1.1-.5,1.7-.5s1.2.2,1.7.5c.5.3.9.7,1.2,1.2.3.5.4,1,.4,1.7s-.1,1.1-.4,1.7c-.3.5-.7.9-1.2,1.2-.5.3-1,.4-1.7.4ZM172.6,18.1c.4,0,.8-.1,1.1-.3.3-.2.5-.5.7-.9.2-.3.3-.7.3-1.1s0-.7-.3-1.1c-.2-.3-.4-.6-.7-.8-.3-.2-.7-.3-1.1-.3s-.8.1-1.1.3c-.3.2-.6.5-.7.8-.2.3-.2.7-.2,1.1s0,.7.3,1.1c.2.3.4.6.7.8.3.2.7.3,1.1.3ZM178.5,19h-1.2v-5.8c0,0,0-.2,0-.4h1.1v.9c.1-.2.3-.3.5-.5.2-.2.4-.3.7-.4.3-.1.6-.2,1-.2.8,0,1.4.2,1.8.7.4.5.6,1.1.6,1.9v3.7h-1.2v-3.6c0-.6-.1-1-.4-1.3-.2-.3-.6-.4-1-.4s-.8.1-1.1.4c-.3.2-.5.5-.6.9-.1.4-.2.8-.2,1.2v2.9ZM189.5,17.4l.7.7c0,.1-.2.2-.5.4-.2.2-.5.3-.9.5-.4.1-.8.2-1.3.2s-1.2-.1-1.7-.4c-.5-.3-.9-.7-1.1-1.2-.3-.5-.4-1.1-.4-1.7s.1-1.2.4-1.6c.3-.5.6-.9,1.1-1.2.5-.3,1-.4,1.6-.4s1.3.2,1.7.5c.4.3.8.8,1,1.3.2.6.3,1.1.3,1.8h-4.9c0,.4.1.7.3,1,.2.3.4.5.7.7.3.2.6.2,1,.2.5,0,1,0,1.3-.3.3-.2.6-.4.7-.5ZM185.4,15.4h3.7c0-.5-.2-.9-.5-1.2-.3-.3-.7-.5-1.3-.5s-.7,0-1,.3c-.3.2-.5.4-.6.7-.1.3-.2.5-.2.8ZM194.5,19v-5.2h-1.1v-1h1.1v-.5c0-.6.1-1,.3-1.4.2-.4.5-.6.8-.8.3-.2.7-.3,1.1-.3s.6,0,1,.2c.3,0,.6.3.9.5l-.6.8c-.3-.3-.7-.4-1.1-.4s-.6.1-.8.3c-.2.2-.3.6-.3,1.1v.4h1.8v1h-1.8v5.2h-1.2ZM202.1,19v-.7c-.2.3-.6.5-.9.7-.4.2-.8.2-1.2.2s-.7,0-1-.2c-.3-.1-.6-.3-.8-.6-.2-.3-.3-.7-.3-1.1,0-.7.2-1.2.7-1.6s1.1-.6,2-.6.4,0,.6,0c.2,0,.4,0,.6,0,.2,0,.3,0,.3,0v-.2c0-.5-.1-.8-.4-1-.3-.2-.7-.3-1.1-.3s-.8,0-1.1.2c-.3.1-.5.3-.7.4l-.6-.8c.2-.2.5-.4.9-.5.4-.2.9-.3,1.6-.3s1.4.2,1.9.6c.5.4.7.9.7,1.6v3.8c0,0,0,.2,0,.3h-1.1ZM202.1,16.8v-.7s-.1,0-.3,0c-.2,0-.3,0-.5,0-.2,0-.4,0-.6,0-.4,0-.8,0-1,.2-.2.1-.4.3-.5.5,0,.2-.1.4-.1.6,0,.3.1.6.3.8.2.2.6.3,1,.3s.6,0,.9-.2c.3-.1.5-.3.6-.5.2-.2.3-.5.3-.7ZM209.5,17.4l.7.8c-.3.3-.6.6-1,.8-.4.2-.9.3-1.4.3s-1.2-.1-1.7-.4c-.5-.3-.9-.7-1.1-1.2-.3-.5-.4-1.1-.4-1.7s.1-1.2.4-1.7c.3-.5.7-.9,1.1-1.2.5-.3,1.1-.5,1.7-.5s1,0,1.4.3c.4.2.7.4,1,.8l-.8.8c-.2-.2-.4-.4-.7-.5-.3-.1-.6-.2-.9-.2s-.8.1-1.1.3c-.3.2-.5.5-.7.8-.2.3-.2.7-.2,1.1s0,.7.2,1.1c.2.3.4.6.7.8.3.2.7.3,1.1.3s.7,0,1-.2c.3-.1.5-.3.7-.6ZM212,17v-3.2h-1.1v-1h1.1v-2h1.2v2h1.8v1h-1.8v3.1c0,.5,0,.8.2,1,.2.2.4.3.7.3s.4,0,.6-.1c.2,0,.3-.2.5-.3l.5.7c-.3.2-.5.4-.8.5-.3.1-.6.2-1,.2-.6,0-1.1-.2-1.4-.5-.3-.4-.5-.9-.5-1.7ZM219.2,19.2c-.6,0-1.2-.1-1.7-.4-.5-.3-.9-.7-1.2-1.2-.3-.5-.4-1.1-.4-1.7s.1-1.2.4-1.7c.3-.5.7-.9,1.2-1.2.5-.3,1.1-.5,1.7-.5s1.2.2,1.7.5c.5.3.9.7,1.2,1.2.3.5.4,1,.4,1.7s-.1,1.1-.4,1.7c-.3.5-.7.9-1.2,1.2-.5.3-1,.4-1.7.4ZM219.2,18.1c.4,0,.8-.1,1.1-.3.3-.2.5-.5.7-.9.2-.3.3-.7.3-1.1s0-.7-.3-1.1c-.2-.3-.4-.6-.7-.8-.3-.2-.7-.3-1.1-.3s-.8.1-1.1.3c-.3.2-.6.5-.7.8-.2.3-.2.7-.2,1.1s0,.7.3,1.1c.2.3.4.6.7.8.3.2.7.3,1.1.3ZM225,19h-1.2v-5.8c0,0,0-.2,0-.4h1.1v1c.1-.1.3-.3.4-.5.2-.2.4-.3.7-.4.3-.1.6-.2,1-.2s.3,0,.4,0c.1,0,.2,0,.3,0l-.3,1.1c-.2,0-.4,0-.6,0s-.6,0-.9.3c-.3.2-.5.4-.6.7-.2.3-.2.6-.2.9v3.3ZM231.6,17v-3.2h-1.1v-1h1.1v-2h1.2v2h1.8v1h-1.8v3.1c0,.5,0,.8.2,1,.2.2.4.3.7.3s.4,0,.6-.1c.2,0,.3-.2.5-.3l.5.7c-.3.2-.5.4-.8.5-.3.1-.6.2-1,.2-.6,0-1.1-.2-1.4-.5-.3-.4-.5-.9-.5-1.7ZM238.8,19.2c-.6,0-1.2-.1-1.7-.4-.5-.3-.9-.7-1.2-1.2-.3-.5-.4-1.1-.4-1.7s.1-1.2.4-1.7c.3-.5.7-.9,1.2-1.2.5-.3,1.1-.5,1.7-.5s1.2.2,1.7.5c.5.3.9.7,1.2,1.2.3.5.4,1,.4,1.7s-.1,1.1-.4,1.7c-.3.5-.7.9-1.2,1.2-.5.3-1,.4-1.7.4ZM238.8,18.1c.4,0,.8-.1,1.1-.3.3-.2.5-.5.7-.9.2-.3.3-.7.3-1.1s0-.7-.3-1.1c-.2-.3-.4-.6-.7-.8-.3-.2-.7-.3-1.1-.3s-.8.1-1.1.3c-.3.2-.6.5-.7.8-.2.3-.2.7-.2,1.1s0,.7.3,1.1c.2.3.4.6.7.8.3.2.7.3,1.1.3ZM250.5,17.4l.7.8c-.3.3-.6.6-1,.8-.4.2-.9.3-1.4.3s-1.2-.1-1.7-.4c-.5-.3-.9-.7-1.1-1.2-.3-.5-.4-1.1-.4-1.7s.1-1.2.4-1.7c.3-.5.7-.9,1.1-1.2.5-.3,1.1-.5,1.7-.5s1,0,1.4.3c.4.2.7.4,1,.8l-.8.8c-.2-.2-.4-.4-.7-.5-.3-.1-.6-.2-.9-.2s-.8.1-1.1.3c-.3.2-.5.5-.7.8-.2.3-.2.7-.2,1.1s0,.7.2,1.1c.2.3.4.6.7.8.3.2.7.3,1.1.3s.7,0,1-.2c.3-.1.5-.3.7-.6ZM255,19.2c-.6,0-1.2-.1-1.7-.4-.5-.3-.9-.7-1.2-1.2-.3-.5-.4-1.1-.4-1.7s.1-1.2.4-1.7c.3-.5.7-.9,1.2-1.2.5-.3,1.1-.5,1.7-.5s1.2.2,1.7.5c.5.3.9.7,1.2,1.2.3.5.4,1,.4,1.7s-.1,1.1-.4,1.7c-.3.5-.7.9-1.2,1.2-.5.3-1,.4-1.7.4ZM255,18.1c.4,0,.8-.1,1.1-.3.3-.2.5-.5.7-.9.2-.3.3-.7.3-1.1s0-.7-.3-1.1c-.2-.3-.4-.6-.7-.8-.3-.2-.7-.3-1.1-.3s-.8.1-1.1.3c-.3.2-.6.5-.7.8-.2.3-.2.7-.2,1.1s0,.7.3,1.1c.2.3.4.6.7.8.3.2.7.3,1.1.3ZM260.8,19h-1.2v-5.8c0,0,0-.2,0-.4h1.1v.9c.1-.2.3-.3.5-.5.2-.2.4-.3.7-.4.3-.1.6-.2,1-.2.8,0,1.4.2,1.8.7.4.5.6,1.1.6,1.9v3.7h-1.2v-3.6c0-.6-.1-1-.4-1.3-.2-.3-.6-.4-1-.4s-.8.1-1.1.4c-.3.2-.5.5-.6.9-.1.4-.2.8-.2,1.2v2.9ZM266.6,18.2l.7-.8c.2.2.5.4.8.5.3.1.7.2,1.1.2s.7,0,1-.2c.3-.1.4-.3.4-.6s0-.4-.2-.5c-.1-.1-.3-.2-.5-.3-.3,0-.6-.2-1.1-.3-.3,0-.6-.2-.9-.3-.3-.1-.6-.3-.7-.6-.2-.2-.3-.6-.3-1s.1-.7.3-1c.2-.3.5-.5.9-.6.4-.1.8-.2,1.2-.2s1,0,1.4.2c.4.1.7.3,1,.6l-.7.8c-.2-.2-.4-.3-.7-.4-.3-.1-.6-.2-1-.2s-.7,0-.9.2c-.2.1-.3.3-.3.6s.2.5.5.6c.3.1.7.2,1.2.4.4,0,.7.2,1.1.4.3.1.6.3.8.6.2.2.3.6.3,1s-.1.8-.4,1c-.2.3-.6.5-.9.6-.4.1-.8.2-1.3.2-1.2,0-2.1-.3-2.6-.9ZM273.2,11.7v-1.3h1.3v1.3h-1.3ZM273.2,19v-6.2h1.2v6.2h-1.2ZM280.6,19v-.8c-.1,0-.2.2-.4.3-.2.2-.4.3-.7.4-.3.1-.6.2-1,.2s-1-.1-1.4-.4c-.4-.3-.7-.6-1-1.1-.2-.5-.4-1-.4-1.7s0-1.1.3-1.5c.2-.4.5-.8.8-1,.3-.3.7-.5,1-.6.4-.1.7-.2,1.1-.2s.6,0,.9.1c.2,0,.5.2.7.3v-2.9h1.2v8.5c0,.1,0,.2,0,.4h-1.2ZM280.6,16.4v-2.2c-.2-.1-.4-.2-.6-.3-.2,0-.6-.1-.9-.1-.6,0-1.1.2-1.5.6-.4.4-.6,1-.6,1.7s0,.8.2,1.1c.1.3.3.6.6.8.3.2.6.3,1,.3s.8,0,1-.3c.3-.2.4-.4.6-.7.1-.3.2-.5.2-.8ZM288.4,17.4l.7.7c0,.1-.2.2-.5.4-.2.2-.5.3-.9.5-.4.1-.8.2-1.3.2s-1.2-.1-1.7-.4c-.5-.3-.9-.7-1.1-1.2-.3-.5-.4-1.1-.4-1.7s.1-1.2.4-1.6c.3-.5.6-.9,1.1-1.2.5-.3,1-.4,1.6-.4s1.3.2,1.7.5c.4.3.8.8,1,1.3.2.6.3,1.1.3,1.8h-4.9c0,.4.1.7.3,1,.2.3.4.5.7.7.3.2.6.2,1,.2.5,0,1,0,1.3-.3.3-.2.6-.4.7-.5ZM284.4,15.4h3.7c0-.5-.2-.9-.5-1.2-.3-.3-.7-.5-1.3-.5s-.7,0-1,.3c-.3.2-.5.4-.6.7-.1.3-.2.5-.2.8ZM291.8,19h-1.2v-5.8c0,0,0-.2,0-.4h1.1v1c.1-.1.3-.3.4-.5.2-.2.4-.3.7-.4.3-.1.6-.2,1-.2s.3,0,.4,0c.1,0,.2,0,.3,0l-.3,1.1c-.2,0-.4,0-.6,0s-.6,0-.9.3c-.3.2-.5.4-.6.7-.2.3-.2.6-.2.9v3.3ZM299.3,19l-2.1-6.2h1.3l1.4,4.7,1.5-4.7h1l1.5,4.8,1.4-4.8h1.2l-2.1,6.2h-1.2l-1.4-4.3-1.4,4.3h-1.1ZM307.5,19v-8.9h1.2v3.6c.1-.2.2-.3.4-.5.2-.2.4-.3.7-.4.3-.1.6-.2,1-.2.8,0,1.4.2,1.8.7.4.5.6,1.1.6,1.9v3.7h-1.2v-3.6c0-.6-.1-1-.4-1.3-.2-.3-.6-.4-1-.4s-.8.1-1.1.4c-.3.2-.5.5-.6.9-.1.4-.2.8-.2,1.2v2.9h-1.2ZM319.7,17.4l.7.7c0,.1-.2.2-.5.4-.2.2-.5.3-.9.5-.4.1-.8.2-1.3.2s-1.2-.1-1.7-.4c-.5-.3-.9-.7-1.1-1.2-.3-.5-.4-1.1-.4-1.7s.1-1.2.4-1.6c.3-.5.6-.9,1.1-1.2.5-.3,1-.4,1.6-.4s1.3.2,1.7.5c.4.3.8.8,1,1.3.2.6.3,1.1.3,1.8h-4.9c0,.4.1.7.3,1,.2.3.4.5.7.7.3.2.6.2,1,.2.5,0,1,0,1.3-.3.3-.2.6-.4.7-.5ZM315.7,15.4h3.7c0-.5-.2-.9-.5-1.2-.3-.3-.7-.5-1.3-.5s-.7,0-1,.3c-.3.2-.5.4-.6.7-.1.3-.2.5-.2.8ZM323.1,19h-1.2v-5.8c0,0,0-.2,0-.4h1.1v.9c.1-.2.3-.3.5-.5.2-.2.4-.3.7-.4.3-.1.6-.2,1-.2.8,0,1.4.2,1.8.7.4.5.6,1.1.6,1.9v3.7h-1.2v-3.6c0-.6-.1-1-.4-1.3-.2-.3-.6-.4-1-.4s-.8.1-1.1.4c-.3.2-.5.5-.6.9-.1.4-.2.8-.2,1.2v2.9ZM336.2,17.4l.7.8c-.3.3-.6.6-1,.8-.4.2-.9.3-1.4.3s-1.2-.1-1.7-.4c-.5-.3-.9-.7-1.1-1.2-.3-.5-.4-1.1-.4-1.7s.1-1.2.4-1.7c.3-.5.7-.9,1.1-1.2.5-.3,1.1-.5,1.7-.5s1,0,1.4.3.7.4,1,.8l-.8.8c-.2-.2-.4-.4-.7-.5-.3-.1-.6-.2-.9-.2s-.8.1-1.1.3c-.3.2-.5.5-.7.8-.2.3-.2.7-.2,1.1s0,.7.2,1.1c.2.3.4.6.7.8.3.2.7.3,1.1.3s.7,0,1-.2c.3-.1.5-.3.7-.6ZM338.1,19v-8.9h1.2v3.6c.1-.2.2-.3.4-.5.2-.2.4-.3.7-.4.3-.1.6-.2,1-.2.8,0,1.4.2,1.8.7.4.5.6,1.1.6,1.9v3.7h-1.2v-3.6c0-.6-.1-1-.4-1.3-.2-.3-.6-.4-1-.4s-.8.1-1.1.4c-.3.2-.5.5-.6.9-.1.4-.2.8-.2,1.2v2.9h-1.2ZM348.4,19.2c-.6,0-1.2-.1-1.7-.4-.5-.3-.9-.7-1.2-1.2-.3-.5-.4-1.1-.4-1.7s.1-1.2.4-1.7c.3-.5.7-.9,1.2-1.2.5-.3,1.1-.5,1.7-.5s1.2.2,1.7.5c.5.3.9.7,1.2,1.2.3.5.4,1,.4,1.7s-.1,1.1-.4,1.7c-.3.5-.7.9-1.2,1.2-.5.3-1,.4-1.7.4ZM348.4,18.1c.4,0,.8-.1,1.1-.3.3-.2.5-.5.7-.9.2-.3.3-.7.3-1.1s0-.7-.3-1.1c-.2-.3-.4-.6-.7-.8-.3-.2-.7-.3-1.1-.3s-.8.1-1.1.3c-.3.2-.6.5-.7.8-.2.3-.2.7-.2,1.1s0,.7.3,1.1c.2.3.4.6.7.8.3.2.7.3,1.1.3ZM356,19.2c-.6,0-1.2-.1-1.7-.4-.5-.3-.9-.7-1.2-1.2-.3-.5-.4-1.1-.4-1.7s.1-1.2.4-1.7c.3-.5.7-.9,1.2-1.2.5-.3,1.1-.5,1.7-.5s1.2.2,1.7.5c.5.3.9.7,1.2,1.2.3.5.4,1,.4,1.7s-.1,1.1-.4,1.7c-.3.5-.7.9-1.2,1.2-.5.3-1,.4-1.7.4ZM356,18.1c.4,0,.8-.1,1.1-.3.3-.2.5-.5.7-.9.2-.3.3-.7.3-1.1s0-.7-.3-1.1c-.2-.3-.4-.6-.7-.8-.3-.2-.7-.3-1.1-.3s-.8.1-1.1.3c-.3.2-.6.5-.7.8-.2.3-.2.7-.2,1.1s0,.7.3,1.1c.2.3.4.6.7.8.3.2.7.3,1.1.3ZM360.3,18.2l.7-.8c.2.2.5.4.8.5.3.1.7.2,1.1.2s.7,0,1-.2c.3-.1.4-.3.4-.6s0-.4-.2-.5c-.1-.1-.3-.2-.5-.3-.3,0-.6-.2-1.1-.3-.3,0-.6-.2-.9-.3-.3-.1-.6-.3-.7-.6-.2-.2-.3-.6-.3-1s.1-.7.3-1c.2-.3.5-.5.9-.6.4-.1.8-.2,1.2-.2s1,0,1.4.2c.4.1.7.3,1,.6l-.7.8c-.2-.2-.4-.3-.7-.4-.3-.1-.6-.2-1-.2s-.7,0-.9.2c-.2.1-.3.3-.3.6s.2.5.5.6c.3.1.7.2,1.2.4.4,0,.7.2,1.1.4.3.1.6.3.8.6.2.2.3.6.3,1s-.1.8-.4,1c-.2.3-.6.5-.9.6-.4.1-.8.2-1.3.2-1.2,0-2.1-.3-2.6-.9ZM366.9,11.7v-1.3h1.3v1.3h-1.3ZM367,19v-6.2h1.2v6.2h-1.2ZM371.1,19h-1.2v-5.8c0,0,0-.2,0-.4h1.1v.9c.1-.2.3-.3.5-.5.2-.2.4-.3.7-.4.3-.1.6-.2,1-.2.8,0,1.4.2,1.8.7.4.5.6,1.1.6,1.9v3.7h-1.2v-3.6c0-.6-.1-1-.4-1.3-.2-.3-.6-.4-1-.4s-.8.1-1.1.4c-.3.2-.5.5-.6.9-.1.4-.2.8-.2,1.2v2.9ZM377.4,21.1l.6-.9c.2.1.5.3.7.4.3.1.7.2,1.1.2s1-.2,1.3-.5c.3-.3.4-.8.4-1.3v-.8c0,0-.2.2-.4.3-.2.1-.4.2-.6.3-.2.1-.6.2-.9.2-.6,0-1.1-.1-1.5-.4-.4-.3-.7-.6-1-1.1-.2-.5-.3-1-.3-1.6s.1-1.2.4-1.7c.3-.5.7-.9,1.2-1.2.5-.3,1.1-.4,1.8-.4s1,0,1.4.1c.4,0,.8.2,1.1.3v5.9c0,.9-.3,1.6-.8,2.1-.5.5-1.3.7-2.2.7s-1.1,0-1.5-.2c-.4-.1-.7-.3-.9-.5ZM381.6,16.5v-2.6c0,0-.2,0-.4-.1-.2,0-.5,0-.9,0s-.8,0-1.2.3c-.3.2-.6.4-.8.8-.2.3-.3.7-.3,1.2s0,.7.2,1c.1.3.3.6.6.7.3.2.6.3,1,.3s.7,0,1-.2.4-.3.6-.6c.1-.2.2-.5.2-.7ZM390.7,19v-.7c-.2.3-.6.5-.9.7-.4.2-.8.2-1.2.2s-.7,0-1-.2c-.3-.1-.6-.3-.8-.6-.2-.3-.3-.7-.3-1.1,0-.7.2-1.2.7-1.6s1.1-.6,2-.6.4,0,.6,0c.2,0,.4,0,.6,0,.2,0,.3,0,.3,0v-.2c0-.5-.1-.8-.4-1-.3-.2-.7-.3-1.1-.3s-.8,0-1.1.2c-.3.1-.5.3-.7.4l-.6-.8c.2-.2.5-.4.9-.5.4-.2.9-.3,1.6-.3s1.4.2,1.9.6c.5.4.7.9.7,1.6v3.8c0,0,0,.2,0,.3h-1.1ZM390.7,16.8v-.7s-.1,0-.3,0c-.2,0-.3,0-.5,0-.2,0-.4,0-.6,0-.4,0-.8,0-1,.2-.2.1-.4.3-.5.5,0,.2-.1.4-.1.6,0,.3.1.6.3.8.2.2.6.3,1,.3s.6,0,.9-.2c.3-.1.5-.3.6-.5.2-.2.3-.5.3-.7ZM395.6,18.2l.7-.8c.2.2.5.4.8.5.3.1.7.2,1.1.2s.7,0,1-.2c.3-.1.4-.3.4-.6s0-.4-.2-.5c-.1-.1-.3-.2-.5-.3-.3,0-.6-.2-1.1-.3-.3,0-.6-.2-.9-.3-.3-.1-.6-.3-.7-.6-.2-.2-.3-.6-.3-1s.1-.7.3-1c.2-.3.5-.5.9-.6.4-.1.8-.2,1.2-.2s1,0,1.4.2c.4.1.7.3,1,.6l-.7.8c-.2-.2-.4-.3-.7-.4-.3-.1-.6-.2-1-.2s-.7,0-.9.2c-.2.1-.3.3-.3.6s.2.5.5.6c.3.1.7.2,1.2.4.4,0,.7.2,1.1.4.3.1.6.3.8.6.2.2.3.6.3,1s-.1.8-.4,1c-.2.3-.6.5-.9.6-.4.1-.8.2-1.3.2-1.2,0-2.1-.3-2.6-.9ZM402.1,16.5v-3.7h1.2v3.6c0,.6.1,1,.4,1.3.2.3.6.4,1,.4s.8-.1,1.1-.4c.3-.2.4-.5.5-.9.1-.4.2-.8.2-1.2v-2.9h1.2v5.8c0,.1,0,.2,0,.4h-1.1v-.9c-.1.1-.3.3-.5.5-.2.2-.4.3-.7.4-.3.1-.6.2-1,.2-.8,0-1.4-.2-1.8-.7-.4-.5-.6-1.1-.6-1.9ZM410.6,21.7h-1.2v-8.5c0,0,0-.2,0-.4h1.1v.9c.1-.1.3-.2.4-.4.2-.2.4-.3.7-.4.3-.1.6-.2,1-.2.6,0,1.2.2,1.6.5.4.3.7.7.9,1.2.2.5.3,1,.3,1.6s0,1-.3,1.5c-.2.4-.4.7-.7,1-.3.3-.7.5-1,.6-.4.1-.7.2-1.1.2s-.8,0-1-.1c-.2,0-.5-.2-.7-.3v2.9ZM410.6,16.1v1.6c.1.1.3.2.6.3.3.1.6.2,1,.2s.8,0,1.1-.3c.3-.2.6-.5.7-.8.2-.3.3-.7.3-1.1s0-.8-.2-1.1c-.1-.3-.3-.6-.6-.8-.3-.2-.6-.3-1.1-.3s-.8.1-1.1.4c-.3.2-.5.6-.6,1,0,.1,0,.3,0,.5,0,.2,0,.3,0,.5ZM421.8,17.4l.7.7c0,.1-.2.2-.5.4-.2.2-.5.3-.9.5-.4.1-.8.2-1.3.2s-1.2-.1-1.7-.4c-.5-.3-.9-.7-1.1-1.2-.3-.5-.4-1.1-.4-1.7s.1-1.2.4-1.6c.3-.5.6-.9,1.1-1.2.5-.3,1-.4,1.6-.4s1.3.2,1.7.5c.4.3.8.8,1,1.3.2.6.3,1.1.3,1.8h-4.9c0,.4.1.7.3,1,.2.3.4.5.7.7.3.2.6.2,1,.2.5,0,1,0,1.3-.3.3-.2.6-.4.7-.5ZM417.8,15.4h3.7c0-.5-.2-.9-.5-1.2-.3-.3-.7-.5-1.3-.5s-.7,0-1,.3c-.3.2-.5.4-.6.7-.1.3-.2.5-.2.8ZM425.2,19h-1.2v-5.8c0,0,0-.2,0-.4h1.1v1c.1-.1.3-.3.4-.5.2-.2.4-.3.7-.4.3-.1.6-.2,1-.2s.3,0,.4,0c.1,0,.2,0,.3,0l-.3,1.1c-.2,0-.4,0-.6,0s-.6,0-.9.3c-.3.2-.5.4-.6.7-.2.3-.2.6-.2.9v3.3ZM431.7,19v-5.2h-1.1v-1h1.1v-.5c0-.6.1-1,.3-1.4.2-.4.5-.6.8-.8.3-.2.7-.3,1.1-.3s.6,0,1,.2c.3,0,.6.3.9.5l-.6.8c-.3-.3-.7-.4-1.1-.4s-.6.1-.8.3c-.2.2-.3.6-.3,1.1v.4h1.8v1h-1.8v5.2h-1.2ZM435.6,16.5v-3.7h1.2v3.6c0,.6.1,1,.4,1.3.2.3.6.4,1,.4s.8-.1,1.1-.4c.3-.2.4-.5.5-.9.1-.4.2-.8.2-1.2v-2.9h1.2v5.8c0,.1,0,.2,0,.4h-1.1v-.9c-.1.1-.3.3-.5.5-.2.2-.4.3-.7.4-.3.1-.6.2-1,.2-.8,0-1.4-.2-1.8-.7-.4-.5-.6-1.1-.6-1.9ZM444.1,19h-1.2v-5.8c0,0,0-.2,0-.4h1.1v.9c.1-.2.3-.3.5-.5.2-.2.4-.3.7-.4.3-.1.6-.2,1-.2.8,0,1.4.2,1.8.7.4.5.6,1.1.6,1.9v3.7h-1.2v-3.6c0-.6-.1-1-.4-1.3-.2-.3-.6-.4-1-.4s-.8.1-1.1.4c-.3.2-.5.5-.6.9-.1.4-.2.8-.2,1.2v2.9ZM454.6,19v-.8c-.1,0-.2.2-.4.3-.2.2-.4.3-.7.4-.3.1-.6.2-1,.2s-1-.1-1.4-.4c-.4-.3-.7-.6-1-1.1s-.4-1-.4-1.7,0-1.1.3-1.5c.2-.4.5-.8.8-1,.3-.3.7-.5,1-.6.4-.1.7-.2,1.1-.2s.6,0,.9.1c.2,0,.5.2.7.3v-2.9h1.2v8.5c0,.1,0,.2,0,.4h-1.2ZM454.6,16.4v-2.2c-.2-.1-.4-.2-.6-.3-.2,0-.6-.1-.9-.1-.6,0-1.1.2-1.5.6-.4.4-.6,1-.6,1.7s0,.8.2,1.1c.1.3.3.6.6.8.3.2.6.3,1,.3s.8,0,1-.3c.3-.2.4-.4.6-.7.1-.3.2-.5.2-.8ZM457.6,19v-1.5h1.5v1.5h-1.5ZM466,19l-3.4-8.9h1.4l2.7,7.3,2.7-7.3h1.3l-3.4,8.9h-1.3ZM471.8,11.7v-1.3h1.3v1.3h-1.3ZM471.8,19v-6.2h1.2v6.2h-1.2ZM474.4,18.2l.7-.8c.2.2.5.4.8.5.3.1.7.2,1.1.2s.7,0,1-.2c.3-.1.4-.3.4-.6s0-.4-.2-.5c-.1-.1-.3-.2-.5-.3-.3,0-.6-.2-1.1-.3-.3,0-.6-.2-.9-.3-.3-.1-.6-.3-.7-.6-.2-.2-.3-.6-.3-1s.1-.7.3-1c.2-.3.5-.5.9-.6.4-.1.8-.2,1.2-.2s1,0,1.4.2c.4.1.7.3,1,.6l-.7.8c-.2-.2-.4-.3-.7-.4-.3-.1-.6-.2-1-.2s-.7,0-.9.2c-.2.1-.3.3-.3.6s.2.5.5.6c.3.1.7.2,1.2.4.4,0,.7.2,1.1.4.3.1.6.3.8.6.2.2.3.6.3,1s-.1.8-.4,1c-.2.3-.6.5-.9.6-.4.1-.8.2-1.3.2-1.2,0-2.1-.3-2.6-.9ZM481,11.7v-1.3h1.3v1.3h-1.3ZM481.1,19v-6.2h1.2v6.2h-1.2ZM484.5,17v-3.2h-1.1v-1h1.1v-2h1.2v2h1.8v1h-1.8v3.1c0,.5,0,.8.2,1,.2.2.4.3.7.3s.4,0,.6-.1c.2,0,.3-.2.5-.3l.5.7c-.3.2-.5.4-.8.5-.3.1-.6.2-1,.2-.6,0-1.1-.2-1.4-.5-.3-.4-.5-.9-.5-1.7ZM491.5,19v-8.9h1.2v3.6c.1-.2.2-.3.4-.5.2-.2.4-.3.7-.4.3-.1.6-.2,1-.2.8,0,1.4.2,1.8.7.4.5.6,1.1.6,1.9v3.7h-1.2v-3.6c0-.6-.1-1-.4-1.3-.2-.3-.6-.4-1-.4s-.8.1-1.1.4c-.3.2-.5.5-.6.9-.1.4-.2.8-.2,1.2v2.9h-1.2ZM501.7,19.2c-.6,0-1.2-.1-1.7-.4-.5-.3-.9-.7-1.2-1.2-.3-.5-.4-1.1-.4-1.7s.1-1.2.4-1.7c.3-.5.7-.9,1.2-1.2.5-.3,1.1-.5,1.7-.5s1.2.2,1.7.5c.5.3.9.7,1.2,1.2.3.5.4,1,.4,1.7s-.1,1.1-.4,1.7c-.3.5-.7.9-1.2,1.2-.5.3-1,.4-1.7.4ZM501.7,18.1c.4,0,.8-.1,1.1-.3.3-.2.5-.5.7-.9.2-.3.3-.7.3-1.1s0-.7-.3-1.1c-.2-.3-.4-.6-.7-.8-.3-.2-.7-.3-1.1-.3s-.8.1-1.1.3c-.3.2-.6.5-.7.8-.2.3-.2.7-.2,1.1s0,.7.3,1.1c.2.3.4.6.7.8.3.2.7.3,1.1.3ZM506,18.2l.7-.8c.2.2.5.4.8.5.3.1.7.2,1.1.2s.7,0,1-.2c.3-.1.4-.3.4-.6s0-.4-.2-.5c-.1-.1-.3-.2-.5-.3-.3,0-.6-.2-1.1-.3-.3,0-.6-.2-.9-.3-.3-.1-.6-.3-.7-.6-.2-.2-.3-.6-.3-1s.1-.7.3-1c.2-.3.5-.5.9-.6.4-.1.8-.2,1.2-.2s1,0,1.4.2c.4.1.7.3,1,.6l-.7.8c-.2-.2-.4-.3-.7-.4-.3-.1-.6-.2-1-.2s-.7,0-.9.2c-.2.1-.3.3-.3.6s.2.5.5.6c.3.1.7.2,1.2.4.4,0,.7.2,1.1.4.3.1.6.3.8.6.2.2.3.6.3,1s-.1.8-.4,1c-.2.3-.6.5-.9.6-.4.1-.8.2-1.3.2-1.2,0-2.1-.3-2.6-.9ZM513.2,17v-3.2h-1.1v-1h1.1v-2h1.2v2h1.8v1h-1.8v3.1c0,.5,0,.8.2,1,.2.2.4.3.7.3s.4,0,.6-.1c.2,0,.3-.2.5-.3l.5.7c-.3.2-.5.4-.8.5-.3.1-.6.2-1,.2-.6,0-1.1-.2-1.4-.5-.3-.4-.5-.9-.5-1.7ZM519,21.7h-1.2v-8.5c0,0,0-.2,0-.4h1.1v.9c.1-.1.3-.2.4-.4.2-.2.4-.3.7-.4.3-.1.6-.2,1-.2.6,0,1.2.2,1.6.5.4.3.7.7.9,1.2.2.5.3,1,.3,1.6s0,1-.3,1.5c-.2.4-.4.7-.7,1-.3.3-.7.5-1,.6-.4.1-.7.2-1.1.2s-.8,0-1-.1c-.2,0-.5-.2-.7-.3v2.9ZM519,16.1v1.6c.1.1.3.2.6.3.3.1.6.2,1,.2s.8,0,1.1-.3c.3-.2.6-.5.7-.8.2-.3.3-.7.3-1.1s0-.8-.2-1.1c-.1-.3-.3-.6-.6-.8-.3-.2-.6-.3-1.1-.3s-.8.1-1.1.4c-.3.2-.5.6-.6,1,0,.1,0,.3,0,.5,0,.2,0,.3,0,.5ZM525.2,19v-8.9h1.2v8.9h-1.2ZM528,16.5v-3.7h1.2v3.6c0,.6.1,1,.4,1.3.2.3.6.4,1,.4s.8-.1,1.1-.4.4-.5.5-.9c.1-.4.2-.8.2-1.2v-2.9h1.2v5.8c0,.1,0,.2,0,.4h-1.1v-.9c-.1.1-.3.3-.5.5-.2.2-.4.3-.7.4-.3.1-.6.2-1,.2-.8,0-1.4-.2-1.8-.7-.4-.5-.6-1.1-.6-1.9ZM534.9,18.2l.7-.8c.2.2.5.4.8.5.3.1.7.2,1.1.2s.7,0,1-.2c.3-.1.4-.3.4-.6s0-.4-.2-.5c-.1-.1-.3-.2-.5-.3-.3,0-.6-.2-1.1-.3-.3,0-.6-.2-.9-.3-.3-.1-.6-.3-.7-.6-.2-.2-.3-.6-.3-1s.1-.7.3-1c.2-.3.5-.5.9-.6.4-.1.8-.2,1.2-.2s1,0,1.4.2c.4.1.7.3,1,.6l-.7.8c-.2-.2-.4-.3-.7-.4-.3-.1-.6-.2-1-.2s-.7,0-.9.2c-.2.1-.3.3-.3.6s.2.5.5.6c.3.1.7.2,1.2.4.4,0,.7.2,1.1.4.3.1.6.3.8.6.2.2.3.6.3,1s-.1.8-.4,1c-.2.3-.6.5-.9.6-.4.1-.8.2-1.3.2-1.2,0-2.1-.3-2.6-.9ZM541.3,19v-1.5h1.5v1.5h-1.5ZM548.8,17.4l.7.8c-.3.3-.6.6-1,.8-.4.2-.9.3-1.4.3s-1.2-.1-1.7-.4c-.5-.3-.9-.7-1.1-1.2-.3-.5-.4-1.1-.4-1.7s.1-1.2.4-1.7c.3-.5.7-.9,1.1-1.2.5-.3,1.1-.5,1.7-.5s1,0,1.4.3c.4.2.7.4,1,.8l-.8.8c-.2-.2-.4-.4-.7-.5-.3-.1-.6-.2-.9-.2s-.8.1-1.1.3c-.3.2-.5.5-.7.8-.2.3-.2.7-.2,1.1s0,.7.2,1.1c.2.3.4.6.7.8.3.2.7.3,1.1.3s.7,0,1-.2c.3-.1.5-.3.7-.6ZM553.3,19.2c-.6,0-1.2-.1-1.7-.4-.5-.3-.9-.7-1.2-1.2-.3-.5-.4-1.1-.4-1.7s.1-1.2.4-1.7c.3-.5.7-.9,1.2-1.2.5-.3,1.1-.5,1.7-.5s1.2.2,1.7.5c.5.3.9.7,1.2,1.2.3.5.4,1,.4,1.7s-.1,1.1-.4,1.7c-.3.5-.7.9-1.2,1.2-.5.3-1,.4-1.7.4ZM553.3,18.1c.4,0,.8-.1,1.1-.3.3-.2.5-.5.7-.9.2-.3.3-.7.3-1.1s0-.7-.3-1.1c-.2-.3-.4-.6-.7-.8-.3-.2-.7-.3-1.1-.3s-.8.1-1.1.3c-.3.2-.6.5-.7.8-.2.3-.2.7-.2,1.1s0,.7.3,1.1c.2.3.4.6.7.8.3.2.7.3,1.1.3ZM559.2,19h-1.2v-5.8c0,0,0-.2,0-.4h1.1v.9c.1-.2.3-.3.4-.5.2-.2.4-.3.7-.4.3-.1.6-.2,1-.2s.9,0,1.2.3c.3.2.6.5.7.8.2-.3.6-.6.9-.8.4-.2.8-.3,1.3-.3.8,0,1.4.2,1.8.7.4.5.6,1.1.6,1.9v3.7h-1.2v-3.6c0-1.1-.4-1.7-1.3-1.7s-.6,0-.9.3c-.3.2-.5.4-.6.7-.2.3-.2.6-.2.9v3.4h-1.2v-3.6c0-.6-.1-1-.3-1.3-.2-.3-.6-.4-1-.4s-.8.1-1,.4c-.3.2-.4.5-.5.9-.1.4-.2.7-.2,1.1v2.9ZM569.4,19v-1.5h1.5v1.5h-1.5ZM576.6,19v-.7c-.2.3-.6.5-.9.7-.4.2-.8.2-1.2.2s-.7,0-1-.2c-.3-.1-.6-.3-.8-.6-.2-.3-.3-.7-.3-1.1,0-.7.2-1.2.7-1.6.5-.4,1.1-.6,2-.6s.4,0,.6,0c.2,0,.4,0,.6,0,.2,0,.3,0,.3,0v-.2c0-.5-.1-.8-.4-1-.3-.2-.7-.3-1.1-.3s-.8,0-1.1.2c-.3.1-.5.3-.7.4l-.6-.8c.2-.2.5-.4.9-.5.4-.2.9-.3,1.6-.3s1.4.2,1.9.6c.5.4.7.9.7,1.6v3.8c0,0,0,.2,0,.3h-1.1ZM576.6,16.8v-.7s-.1,0-.3,0c-.2,0-.3,0-.5,0-.2,0-.4,0-.6,0-.4,0-.8,0-1,.2-.2.1-.4.3-.5.5,0,.2-.1.4-.1.6,0,.3.1.6.3.8.2.2.6.3,1,.3s.6,0,.9-.2c.3-.1.5-.3.6-.5.2-.2.3-.5.3-.7ZM579.3,16.5v-3.7h1.2v3.6c0,.6.1,1,.4,1.3.2.3.6.4,1,.4s.8-.1,1.1-.4.4-.5.5-.9c.1-.4.2-.8.2-1.2v-2.9h1.2v5.8c0,.1,0,.2,0,.4h-1.1v-.9c-.1.1-.3.3-.5.5-.2.2-.4.3-.7.4-.3.1-.6.2-1,.2-.8,0-1.4-.2-1.8-.7-.4-.5-.6-1.1-.6-1.9ZM586.1,19.2l3.5-9.3h1.2l-3.5,9.3h-1.2ZM594.7,19v-.7c-.2.3-.6.5-.9.7-.4.2-.8.2-1.2.2s-.7,0-1-.2c-.3-.1-.6-.3-.8-.6-.2-.3-.3-.7-.3-1.1,0-.7.2-1.2.7-1.6.5-.4,1.1-.6,2-.6s.4,0,.6,0c.2,0,.4,0,.6,0,.2,0,.3,0,.3,0v-.2c0-.5-.1-.8-.4-1-.3-.2-.7-.3-1.1-.3s-.8,0-1.1.2c-.3.1-.5.3-.7.4l-.6-.8c.2-.2.5-.4.9-.5.4-.2.9-.3,1.6-.3s1.4.2,1.9.6c.5.4.7.9.7,1.6v3.8c0,0,0,.2,0,.3h-1.1ZM594.7,16.8v-.7s-.1,0-.3,0c-.2,0-.3,0-.5,0-.2,0-.4,0-.6,0-.4,0-.8,0-1,.2-.2.1-.4.3-.5.5,0,.2-.1.4-.1.6,0,.3.1.6.3.8.2.2.6.3,1,.3s.6,0,.9-.2c.3-.1.5-.3.6-.5.2-.2.3-.5.3-.7ZM598.7,19l-2.1-6.2h1.3l1.4,4.7,1.5-4.7h1l1.5,4.8,1.4-4.8h1.2l-2.1,6.2h-1.2l-1.4-4.3-1.4,4.3h-1.1ZM610.8,19v-.7c-.2.3-.6.5-.9.7-.4.2-.8.2-1.2.2s-.7,0-1-.2c-.3-.1-.6-.3-.8-.6-.2-.3-.3-.7-.3-1.1,0-.7.2-1.2.7-1.6.5-.4,1.1-.6,2-.6s.4,0,.6,0c.2,0,.4,0,.6,0,.2,0,.3,0,.3,0v-.2c0-.5-.1-.8-.4-1-.3-.2-.7-.3-1.1-.3s-.8,0-1.1.2c-.3.1-.5.3-.7.4l-.6-.8c.2-.2.5-.4.9-.5.4-.2.9-.3,1.6-.3s1.4.2,1.9.6c.5.4.7.9.7,1.6v3.8c0,0,0,.2,0,.3h-1.1ZM610.7,16.8v-.7s-.1,0-.3,0c-.2,0-.3,0-.5,0-.2,0-.4,0-.6,0-.4,0-.8,0-1,.2-.2.1-.4.3-.5.5,0,.2-.1.4-.1.6,0,.3.1.6.3.8.2.2.6.3,1,.3s.6,0,.9-.2c.3-.1.5-.3.6-.5.2-.2.3-.5.3-.7ZM614.7,19h-1.2v-5.8c0,0,0-.2,0-.4h1.1v1c.1-.1.3-.3.4-.5.2-.2.4-.3.7-.4.3-.1.6-.2,1-.2s.3,0,.4,0c.1,0,.2,0,.3,0l-.3,1.1c-.2,0-.4,0-.6,0s-.6,0-.9.3c-.3.2-.5.4-.6.7-.2.3-.2.6-.2.9v3.3ZM622.6,19v-.8c-.1,0-.2.2-.4.3-.2.2-.4.3-.7.4-.3.1-.6.2-1,.2s-1-.1-1.4-.4c-.4-.3-.7-.6-1-1.1s-.4-1-.4-1.7,0-1.1.3-1.5c.2-.4.5-.8.8-1,.3-.3.7-.5,1-.6.4-.1.7-.2,1.1-.2s.6,0,.9.1c.2,0,.5.2.7.3v-2.9h1.2v8.5c0,.1,0,.2,0,.4h-1.2ZM622.5,16.4v-2.2c-.2-.1-.4-.2-.6-.3-.2,0-.6-.1-.9-.1-.6,0-1.1.2-1.5.6-.4.4-.6,1-.6,1.7s0,.8.2,1.1c.1.3.3.6.6.8.3.2.6.3,1,.3s.8,0,1-.3c.3-.2.4-.4.6-.7.1-.3.2-.5.2-.8ZM625.1,18.2l.7-.8c.2.2.5.4.8.5.3.1.7.2,1.1.2s.7,0,1-.2c.3-.1.4-.3.4-.6s0-.4-.2-.5c-.1-.1-.3-.2-.5-.3-.3,0-.6-.2-1.1-.3-.3,0-.6-.2-.9-.3-.3-.1-.6-.3-.7-.6-.2-.2-.3-.6-.3-1s.1-.7.3-1c.2-.3.5-.5.9-.6.4-.1.8-.2,1.2-.2s1,0,1.4.2c.4.1.7.3,1,.6l-.7.8c-.2-.2-.4-.3-.7-.4-.3-.1-.6-.2-1-.2s-.7,0-.9.2c-.2.1-.3.3-.3.6s.2.5.5.6c.3.1.7.2,1.2.4.4,0,.7.2,1.1.4.3.1.6.3.8.6.2.2.3.6.3,1s-.1.8-.4,1c-.2.3-.6.5-.9.6-.4.1-.8.2-1.3.2-1.2,0-2.1-.3-2.6-.9ZM634.6,17v-3.2h-1.1v-1h1.1v-2h1.2v2h1.8v1h-1.8v3.1c0,.5,0,.8.2,1,.2.2.4.3.7.3s.4,0,.6-.1c.2,0,.3-.2.5-.3l.5.7c-.3.2-.5.4-.8.5-.3.1-.6.2-1,.2-.6,0-1.1-.2-1.4-.5-.3-.4-.5-.9-.5-1.7ZM641.8,19.2c-.6,0-1.2-.1-1.7-.4-.5-.3-.9-.7-1.2-1.2-.3-.5-.4-1.1-.4-1.7s.1-1.2.4-1.7c.3-.5.7-.9,1.2-1.2.5-.3,1.1-.5,1.7-.5s1.2.2,1.7.5c.5.3.9.7,1.2,1.2.3.5.4,1,.4,1.7s-.1,1.1-.4,1.7c-.3.5-.7.9-1.2,1.2-.5.3-1,.4-1.7.4ZM641.8,18.1c.4,0,.8-.1,1.1-.3.3-.2.5-.5.7-.9.2-.3.3-.7.3-1.1s0-.7-.3-1.1c-.2-.3-.4-.6-.7-.8-.3-.2-.7-.3-1.1-.3s-.8.1-1.1.3c-.3.2-.6.5-.7.8-.2.3-.2.7-.2,1.1s0,.7.3,1.1c.2.3.4.6.7.8.3.2.7.3,1.1.3ZM648.8,19v-8.9h1.2v8.9h-1.2ZM656.6,17.4l.7.7c0,.1-.2.2-.5.4-.2.2-.5.3-.9.5-.4.1-.8.2-1.3.2s-1.2-.1-1.7-.4c-.5-.3-.9-.7-1.1-1.2-.3-.5-.4-1.1-.4-1.7s.1-1.2.4-1.6c.3-.5.6-.9,1.1-1.2.5-.3,1-.4,1.6-.4s1.3.2,1.7.5c.4.3.8.8,1,1.3.2.6.3,1.1.3,1.8h-4.9c0,.4.1.7.3,1,.2.3.4.5.7.7.3.2.6.2,1,.2.5,0,1,0,1.3-.3.3-.2.6-.4.7-.5ZM652.6,15.4h3.7c0-.5-.2-.9-.5-1.2-.3-.3-.7-.5-1.3-.5s-.7,0-1,.3c-.3.2-.5.4-.6.7-.1.3-.2.5-.2.8ZM662.7,19v-.7c-.2.3-.6.5-.9.7-.4.2-.8.2-1.2.2s-.7,0-1-.2c-.3-.1-.6-.3-.8-.6-.2-.3-.3-.7-.3-1.1,0-.7.2-1.2.7-1.6.5-.4,1.1-.6,2-.6s.4,0,.6,0c.2,0,.4,0,.6,0,.2,0,.3,0,.3,0v-.2c0-.5-.1-.8-.4-1-.3-.2-.7-.3-1.1-.3s-.8,0-1.1.2c-.3.1-.5.3-.7.4l-.6-.8c.2-.2.5-.4.9-.5.4-.2.9-.3,1.6-.3s1.4.2,1.9.6c.5.4.7.9.7,1.6v3.8c0,0,0,.2,0,.3h-1.1ZM662.7,16.8v-.7s-.1,0-.3,0c-.2,0-.3,0-.5,0-.2,0-.4,0-.6,0-.4,0-.8,0-1,.2-.2.1-.4.3-.5.5,0,.2-.1.4-.1.6,0,.3.1.6.3.8.2.2.6.3,1,.3s.6,0,.9-.2c.3-.1.5-.3.6-.5.2-.2.3-.5.3-.7ZM666.7,19h-1.2v-5.8c0,0,0-.2,0-.4h1.1v1c.1-.1.3-.3.4-.5.2-.2.4-.3.7-.4.3-.1.6-.2,1-.2s.3,0,.4,0c.1,0,.2,0,.3,0l-.3,1.1c-.2,0-.4,0-.6,0s-.6,0-.9.3c-.3.2-.5.4-.6.7-.2.3-.2.6-.2.9v3.3ZM671.5,19h-1.2v-5.8c0,0,0-.2,0-.4h1.1v.9c.1-.2.3-.3.5-.5.2-.2.4-.3.7-.4.3-.1.6-.2,1-.2.8,0,1.4.2,1.8.7.4.5.6,1.1.6,1.9v3.7h-1.2v-3.6c0-.6-.1-1-.4-1.3-.2-.3-.6-.4-1-.4s-.8.1-1.1.4c-.3.2-.5.5-.6.9-.1.4-.2.8-.2,1.2v2.9ZM681.2,19h-1.2v-5.8c0,0,0-.2,0-.4h1.1v.9c.1-.2.3-.3.4-.5.2-.2.4-.3.7-.4.3-.1.6-.2,1-.2s.9,0,1.2.3c.3.2.6.5.7.8.2-.3.6-.6.9-.8.4-.2.8-.3,1.3-.3.8,0,1.4.2,1.8.7.4.5.6,1.1.6,1.9v3.7h-1.2v-3.6c0-1.1-.4-1.7-1.3-1.7s-.6,0-.9.3c-.3.2-.5.4-.6.7-.2.3-.2.6-.2.9v3.4h-1.2v-3.6c0-.6-.1-1-.3-1.3-.2-.3-.6-.4-1-.4s-.8.1-1,.4-.4.5-.5.9c-.1.4-.2.7-.2,1.1v2.9ZM694.3,19.2c-.6,0-1.2-.1-1.7-.4-.5-.3-.9-.7-1.2-1.2-.3-.5-.4-1.1-.4-1.7s.1-1.2.4-1.7c.3-.5.7-.9,1.2-1.2.5-.3,1.1-.5,1.7-.5s1.2.2,1.7.5c.5.3.9.7,1.2,1.2.3.5.4,1,.4,1.7s-.1,1.1-.4,1.7c-.3.5-.7.9-1.2,1.2-.5.3-1,.4-1.7.4ZM694.3,18.1c.4,0,.8-.1,1.1-.3.3-.2.5-.5.7-.9.2-.3.3-.7.3-1.1s0-.7-.3-1.1c-.2-.3-.4-.6-.7-.8-.3-.2-.7-.3-1.1-.3s-.8.1-1.1.3c-.3.2-.6.5-.7.8-.2.3-.2.7-.2,1.1s0,.7.3,1.1c.2.3.4.6.7.8.3.2.7.3,1.1.3ZM700.1,19h-1.2v-5.8c0,0,0-.2,0-.4h1.1v1c.1-.1.3-.3.4-.5.2-.2.4-.3.7-.4.3-.1.6-.2,1-.2s.3,0,.4,0c.1,0,.2,0,.3,0l-.3,1.1c-.2,0-.4,0-.6,0s-.6,0-.9.3c-.3.2-.5.4-.6.7-.2.3-.2.6-.2.9v3.3ZM708.4,17.4l.7.7c0,.1-.2.2-.5.4-.2.2-.5.3-.9.5-.4.1-.8.2-1.3.2s-1.2-.1-1.7-.4c-.5-.3-.9-.7-1.1-1.2-.3-.5-.4-1.1-.4-1.7s.1-1.2.4-1.6c.3-.5.6-.9,1.1-1.2.5-.3,1-.4,1.6-.4s1.3.2,1.7.5c.4.3.8.8,1,1.3.2.6.3,1.1.3,1.8h-4.9c0,.4.1.7.3,1,.2.3.4.5.7.7.3.2.6.2,1,.2.5,0,1,0,1.3-.3.3-.2.6-.4.7-.5ZM704.4,15.4h3.7c0-.5-.2-.9-.5-1.2-.3-.3-.7-.5-1.3-.5s-.7,0-1,.3c-.3.2-.5.4-.6.7-.1.3-.2.5-.2.8ZM716.9,19v-.7c-.2.3-.6.5-.9.7-.4.2-.8.2-1.2.2s-.7,0-1-.2c-.3-.1-.6-.3-.8-.6-.2-.3-.3-.7-.3-1.1,0-.7.2-1.2.7-1.6.5-.4,1.1-.6,2-.6s.4,0,.6,0c.2,0,.4,0,.6,0,.2,0,.3,0,.3,0v-.2c0-.5-.1-.8-.4-1-.3-.2-.7-.3-1.1-.3s-.8,0-1.1.2c-.3.1-.5.3-.7.4l-.6-.8c.2-.2.5-.4.9-.5.4-.2.9-.3,1.6-.3s1.4.2,1.9.6c.5.4.7.9.7,1.6v3.8c0,0,0,.2,0,.3h-1.1ZM716.9,16.8v-.7s-.1,0-.3,0c-.2,0-.3,0-.5,0-.2,0-.4,0-.6,0-.4,0-.8,0-1,.2-.2.1-.4.3-.5.5,0,.2-.1.4-.1.6,0,.3.1.6.3.8.2.2.6.3,1,.3s.6,0,.9-.2c.3-.1.5-.3.6-.5.2-.2.3-.5.3-.7ZM719.7,18.8v-8.7h1.2v3.4c.1-.2.3-.3.7-.5.3-.2.7-.3,1.3-.3s1.1.1,1.5.4c.4.3.7.7,1,1.2.2.5.3,1,.3,1.6s-.1,1.2-.4,1.7c-.3.5-.7.9-1.2,1.2-.5.3-1.1.4-1.8.4s-1,0-1.4-.1c-.4,0-.8-.2-1.1-.3ZM720.9,15.5v2.5c.1,0,.3,0,.5.1.2,0,.5,0,.8,0,.7,0,1.2-.2,1.6-.6.4-.4.6-1,.6-1.6s0-.7-.2-1.1c-.1-.3-.3-.6-.6-.8-.3-.2-.6-.3-1-.3s-.7,0-1,.3c-.3.2-.5.4-.6.7-.1.3-.2.6-.2.9ZM730,19.2c-.6,0-1.2-.1-1.7-.4-.5-.3-.9-.7-1.2-1.2-.3-.5-.4-1.1-.4-1.7s.1-1.2.4-1.7c.3-.5.7-.9,1.2-1.2.5-.3,1.1-.5,1.7-.5s1.2.2,1.7.5c.5.3.9.7,1.2,1.2.3.5.4,1,.4,1.7s-.1,1.1-.4,1.7c-.3.5-.7.9-1.2,1.2-.5.3-1,.4-1.7.4ZM730,18.1c.4,0,.8-.1,1.1-.3.3-.2.5-.5.7-.9.2-.3.3-.7.3-1.1s0-.7-.3-1.1c-.2-.3-.4-.6-.7-.8-.3-.2-.7-.3-1.1-.3s-.8.1-1.1.3c-.3.2-.6.5-.7.8-.2.3-.2.7-.2,1.1s0,.7.3,1.1c.2.3.4.6.7.8.3.2.7.3,1.1.3ZM734.6,16.5v-3.7h1.2v3.6c0,.6.1,1,.4,1.3.2.3.6.4,1,.4s.8-.1,1.1-.4c.3-.2.4-.5.5-.9.1-.4.2-.8.2-1.2v-2.9h1.2v5.8c0,.1,0,.2,0,.4h-1.1v-.9c-.1.1-.3.3-.5.5-.2.2-.4.3-.7.4-.3.1-.6.2-1,.2-.8,0-1.4-.2-1.8-.7-.4-.5-.6-1.1-.6-1.9ZM742.4,17v-3.2h-1.1v-1h1.1v-2h1.2v2h1.8v1h-1.8v3.1c0,.5,0,.8.2,1,.2.2.4.3.7.3s.4,0,.6-.1c.2,0,.3-.2.5-.3l.5.7c-.3.2-.5.4-.8.5-.3.1-.6.2-1,.2-.6,0-1.1-.2-1.4-.5-.3-.4-.5-.9-.5-1.7ZM752.3,19.2c-.6,0-1.2-.1-1.7-.4-.5-.3-.9-.7-1.2-1.2-.3-.5-.4-1.1-.4-1.7s.1-1.2.4-1.7c.3-.5.7-.9,1.2-1.2.5-.3,1.1-.5,1.7-.5s1.2.2,1.7.5c.5.3.9.7,1.2,1.2.3.5.4,1,.4,1.7s-.1,1.1-.4,1.7c-.3.5-.7.9-1.2,1.2-.5.3-1,.4-1.7.4ZM752.3,18.1c.4,0,.8-.1,1.1-.3.3-.2.5-.5.7-.9.2-.3.3-.7.3-1.1s0-.7-.3-1.1c-.2-.3-.4-.6-.7-.8-.3-.2-.7-.3-1.1-.3s-.8.1-1.1.3c-.3.2-.6.5-.7.8-.2.3-.2.7-.2,1.1s0,.7.3,1.1c.2.3.4.6.7.8.3.2.7.3,1.1.3ZM756.9,16.5v-3.7h1.2v3.6c0,.6.1,1,.4,1.3.2.3.6.4,1,.4s.8-.1,1.1-.4c.3-.2.4-.5.5-.9.1-.4.2-.8.2-1.2v-2.9h1.2v5.8c0,.1,0,.2,0,.4h-1.1v-.9c-.1.1-.3.3-.5.5-.2.2-.4.3-.7.4-.3.1-.6.2-1,.2-.8,0-1.4-.2-1.8-.7-.4-.5-.6-1.1-.6-1.9ZM765.4,19h-1.2v-5.8c0,0,0-.2,0-.4h1.1v1c.1-.1.3-.3.4-.5.2-.2.4-.3.7-.4.3-.1.6-.2,1-.2s.3,0,.4,0c.1,0,.2,0,.3,0l-.3,1.1c-.2,0-.4,0-.6,0s-.6,0-.9.3c-.3.2-.5.4-.6.7-.2.3-.2.6-.2.9v3.3ZM775.4,19v-.7c-.2.3-.6.5-.9.7-.4.2-.8.2-1.2.2s-.7,0-1-.2c-.3-.1-.6-.3-.8-.6-.2-.3-.3-.7-.3-1.1,0-.7.2-1.2.7-1.6.5-.4,1.1-.6,2-.6s.4,0,.6,0c.2,0,.4,0,.6,0,.2,0,.3,0,.3,0v-.2c0-.5-.1-.8-.4-1-.3-.2-.7-.3-1.1-.3s-.8,0-1.1.2c-.3.1-.5.3-.7.4l-.6-.8c.2-.2.5-.4.9-.5.4-.2.9-.3,1.6-.3s1.4.2,1.9.6c.5.4.7.9.7,1.6v3.8c0,0,0,.2,0,.3h-1.1ZM775.3,16.8v-.7s-.1,0-.3,0c-.2,0-.3,0-.5,0-.2,0-.4,0-.6,0-.4,0-.8,0-1,.2-.2.1-.4.3-.5.5,0,.2-.1.4-.1.6,0,.3.1.6.3.8.2.2.6.3,1,.3s.6,0,.9-.2c.3-.1.5-.3.6-.5.2-.2.3-.5.3-.7ZM779.3,19l-2.1-6.2h1.3l1.4,4.7,1.5-4.7h1l1.5,4.8,1.4-4.8h1.2l-2.1,6.2h-1.2l-1.4-4.3-1.4,4.3h-1.1ZM791.5,19v-.7c-.2.3-.6.5-.9.7-.4.2-.8.2-1.2.2s-.7,0-1-.2c-.3-.1-.6-.3-.8-.6-.2-.3-.3-.7-.3-1.1,0-.7.2-1.2.7-1.6.5-.4,1.1-.6,2-.6s.4,0,.6,0c.2,0,.4,0,.6,0,.2,0,.3,0,.3,0v-.2c0-.5-.1-.8-.4-1-.3-.2-.7-.3-1.1-.3s-.8,0-1.1.2c-.3.1-.5.3-.7.4l-.6-.8c.2-.2.5-.4.9-.5.4-.2.9-.3,1.6-.3s1.4.2,1.9.6c.5.4.7.9.7,1.6v3.8c0,0,0,.2,0,.3h-1.1ZM791.4,16.8v-.7s-.1,0-.3,0c-.2,0-.3,0-.5,0-.2,0-.4,0-.6,0-.4,0-.8,0-1,.2-.2.1-.4.3-.5.5,0,.2-.1.4-.1.6,0,.3.1.6.3.8.2.2.6.3,1,.3s.6,0,.9-.2c.3-.1.5-.3.6-.5.2-.2.3-.5.3-.7ZM795.4,19h-1.2v-5.8c0,0,0-.2,0-.4h1.1v1c.1-.1.3-.3.4-.5.2-.2.4-.3.7-.4.3-.1.6-.2,1-.2s.3,0,.4,0c.1,0,.2,0,.3,0l-.3,1.1c-.2,0-.4,0-.6,0s-.6,0-.9.3c-.3.2-.5.4-.6.7-.2.3-.2.6-.2.9v3.3ZM803.2,19v-.8c-.1,0-.2.2-.4.3-.2.2-.4.3-.7.4-.3.1-.6.2-1,.2s-1-.1-1.4-.4c-.4-.3-.7-.6-1-1.1s-.4-1-.4-1.7,0-1.1.3-1.5c.2-.4.5-.8.8-1,.3-.3.7-.5,1-.6.4-.1.7-.2,1.1-.2s.6,0,.9.1c.2,0,.5.2.7.3v-2.9h1.2v8.5c0,.1,0,.2,0,.4h-1.2ZM803.2,16.4v-2.2c-.2-.1-.4-.2-.6-.3-.2,0-.6-.1-.9-.1-.6,0-1.1.2-1.5.6-.4.4-.6,1-.6,1.7s0,.8.2,1.1c.1.3.3.6.6.8.3.2.6.3,1,.3s.8,0,1-.3c.3-.2.4-.4.6-.7.1-.3.2-.5.2-.8ZM805.7,18.2l.7-.8c.2.2.5.4.8.5.3.1.7.2,1.1.2s.7,0,1-.2c.3-.1.4-.3.4-.6s0-.4-.2-.5c-.1-.1-.3-.2-.5-.3-.3,0-.6-.2-1.1-.3-.3,0-.6-.2-.9-.3-.3-.1-.6-.3-.7-.6-.2-.2-.3-.6-.3-1s.1-.7.3-1c.2-.3.5-.5.9-.6.4-.1.8-.2,1.2-.2s1,0,1.4.2c.4.1.7.3,1,.6l-.7.8c-.2-.2-.4-.3-.7-.4-.3-.1-.6-.2-1-.2s-.7,0-.9.2c-.2.1-.3.3-.3.6s.2.5.5.6c.3.1.7.2,1.2.4.4,0,.7.2,1.1.4.3.1.6.3.8.6.2.2.3.6.3,1s-.1.8-.4,1c-.2.3-.6.5-.9.6-.4.1-.8.2-1.3.2-1.2,0-2.1-.3-2.6-.9ZM812.1,19v-1.5h1.5v1.5h-1.5ZM818,19v-8.9h1.3v8.9h-1.3ZM820.8,18.2l.7-.8c.2.2.5.4.8.5.3.1.7.2,1.1.2s.7,0,1-.2c.3-.1.4-.3.4-.6s0-.4-.2-.5c-.1-.1-.3-.2-.5-.3-.3,0-.6-.2-1.1-.3-.3,0-.6-.2-.9-.3-.3-.1-.6-.3-.7-.6-.2-.2-.3-.6-.3-1s.1-.7.3-1c.2-.3.5-.5.9-.6.4-.1.8-.2,1.2-.2s1,0,1.4.2c.4.1.7.3,1,.6l-.7.8c-.2-.2-.4-.3-.7-.4-.3-.1-.6-.2-1-.2s-.7,0-.9.2c-.2.1-.3.3-.3.6s.2.5.5.6c.3.1.7.2,1.2.4.4,0,.7.2,1.1.4.3.1.6.3.8.6.2.2.3.6.3,1s-.1.8-.4,1c-.2.3-.6.5-.9.6-.4.1-.8.2-1.3.2-1.2,0-2.1-.3-2.6-.9ZM827.1,18.2l.7-.8c.2.2.5.4.8.5.3.1.7.2,1.1.2s.7,0,1-.2c.3-.1.4-.3.4-.6s0-.4-.2-.5c-.1-.1-.3-.2-.5-.3-.3,0-.6-.2-1.1-.3-.3,0-.6-.2-.9-.3-.3-.1-.6-.3-.7-.6-.2-.2-.3-.6-.3-1s.1-.7.3-1c.2-.3.5-.5.9-.6.4-.1.8-.2,1.2-.2s1,0,1.4.2c.4.1.7.3,1,.6l-.7.8c-.2-.2-.4-.3-.7-.4-.3-.1-.6-.2-1-.2s-.7,0-.9.2c-.2.1-.3.3-.3.6s.2.5.5.6c.3.1.7.2,1.2.4.4,0,.7.2,1.1.4.3.1.6.3.8.6.2.2.3.6.3,1s-.1.8-.4,1c-.2.3-.6.5-.9.6-.4.1-.8.2-1.3.2-1.2,0-2.1-.3-2.6-.9ZM833.7,16.5v-3.7h1.2v3.6c0,.6.1,1,.4,1.3.2.3.6.4,1,.4s.8-.1,1.1-.4.4-.5.5-.9c.1-.4.2-.8.2-1.2v-2.9h1.2v5.8c0,.1,0,.2,0,.4h-1.1v-.9c-.1.1-.3.3-.5.5-.2.2-.4.3-.7.4-.3.1-.6.2-1,.2-.8,0-1.4-.2-1.8-.7-.4-.5-.6-1.1-.6-1.9ZM845.9,17.4l.7.7c0,.1-.2.2-.5.4-.2.2-.5.3-.9.5-.4.1-.8.2-1.3.2s-1.2-.1-1.7-.4c-.5-.3-.9-.7-1.1-1.2-.3-.5-.4-1.1-.4-1.7s.1-1.2.4-1.6c.3-.5.6-.9,1.1-1.2.5-.3,1-.4,1.6-.4s1.3.2,1.7.5c.4.3.8.8,1,1.3.2.6.3,1.1.3,1.8h-4.9c0,.4.1.7.3,1,.2.3.4.5.7.7.3.2.6.2,1,.2.5,0,1,0,1.3-.3.3-.2.6-.4.7-.5ZM841.9,15.4h3.7c0-.5-.2-.9-.5-1.2-.3-.3-.7-.5-1.3-.5s-.7,0-1,.3c-.3.2-.5.4-.6.7-.1.3-.2.5-.2.8ZM852.6,19v-.8c-.1,0-.2.2-.4.3-.2.2-.4.3-.7.4-.3.1-.6.2-1,.2s-1-.1-1.4-.4c-.4-.3-.7-.6-1-1.1s-.4-1-.4-1.7,0-1.1.3-1.5c.2-.4.5-.8.8-1,.3-.3.7-.5,1-.6.4-.1.7-.2,1.1-.2s.6,0,.9.1c.2,0,.5.2.7.3v-2.9h1.2v8.5c0,.1,0,.2,0,.4h-1.2ZM852.5,16.4v-2.2c-.2-.1-.4-.2-.6-.3-.2,0-.6-.1-.9-.1-.6,0-1.1.2-1.5.6-.4.4-.6,1-.6,1.7s0,.8.2,1.1c.1.3.3.6.6.8.3.2.6.3,1,.3s.8,0,1-.3c.3-.2.4-.4.6-.7.1-.3.2-.5.2-.8ZM857.8,18.8v-8.7h1.2v3.4c.1-.2.3-.3.7-.5.3-.2.7-.3,1.3-.3s1.1.1,1.5.4c.4.3.7.7,1,1.2.2.5.3,1,.3,1.6s-.1,1.2-.4,1.7c-.3.5-.7.9-1.2,1.2-.5.3-1.1.4-1.8.4s-1,0-1.4-.1c-.4,0-.8-.2-1.1-.3ZM859,15.5v2.5c.1,0,.3,0,.5.1.2,0,.5,0,.8,0,.7,0,1.2-.2,1.6-.6.4-.4.6-1,.6-1.6s0-.7-.2-1.1c-.1-.3-.3-.6-.6-.8-.3-.2-.6-.3-1-.3s-.7,0-1,.3c-.3.2-.5.4-.6.7-.1.3-.2.6-.2.9ZM864.3,21.4l.5-.8c0,0,.2.2.3.2.1,0,.3,0,.4,0,.3,0,.5-.1.6-.4.1-.2.3-.6.5-1.1l.2-.4-2.8-6.1h1.4l2,4.7,1.8-4.7h1.3l-2.5,6c-.1.3-.2.6-.4.9-.1.3-.3.7-.4,1-.2.3-.4.6-.7.8-.3.2-.6.3-1,.3s-.6,0-.8-.1c-.2,0-.4-.2-.6-.3ZM874.1,19v-8.9h1.3v3.7h4.9v-3.7h1.3v8.9h-1.3v-4h-4.9v4h-1.3ZM886.3,19.2c-.6,0-1.2-.1-1.7-.4-.5-.3-.9-.7-1.2-1.2-.3-.5-.4-1.1-.4-1.7s.1-1.2.4-1.7c.3-.5.7-.9,1.2-1.2.5-.3,1.1-.5,1.7-.5s1.2.2,1.7.5c.5.3.9.7,1.2,1.2.3.5.4,1,.4,1.7s-.1,1.1-.4,1.7c-.3.5-.7.9-1.2,1.2-.5.3-1,.4-1.7.4ZM886.3,18.1c.4,0,.8-.1,1.1-.3.3-.2.5-.5.7-.9.2-.3.3-.7.3-1.1s0-.7-.3-1.1c-.2-.3-.4-.6-.7-.8-.3-.2-.7-.3-1.1-.3s-.8.1-1.1.3c-.3.2-.6.5-.7.8-.2.3-.2.7-.2,1.1s0,.7.3,1.1c.2.3.4.6.7.8.3.2.7.3,1.1.3ZM890.6,18.2l.7-.8c.2.2.5.4.8.5.3.1.7.2,1.1.2s.7,0,1-.2c.3-.1.4-.3.4-.6s0-.4-.2-.5c-.1-.1-.3-.2-.5-.3-.3,0-.6-.2-1.1-.3-.3,0-.6-.2-.9-.3-.3-.1-.6-.3-.7-.6-.2-.2-.3-.6-.3-1s.1-.7.3-1c.2-.3.5-.5.9-.6.4-.1.8-.2,1.2-.2s1,0,1.4.2c.4.1.7.3,1,.6l-.7.8c-.2-.2-.4-.3-.7-.4-.3-.1-.6-.2-1-.2s-.7,0-.9.2c-.2.1-.3.3-.3.6s.2.5.5.6c.3.1.7.2,1.2.4.4,0,.7.2,1.1.4.3.1.6.3.8.6.2.2.3.6.3,1s-.1.8-.4,1c-.2.3-.6.5-.9.6-.4.1-.8.2-1.3.2-1.2,0-2.1-.3-2.6-.9ZM897.8,17v-3.2h-1.1v-1h1.1v-2h1.2v2h1.8v1h-1.8v3.1c0,.5,0,.8.2,1,.2.2.4.3.7.3s.4,0,.6-.1c.2,0,.3-.2.5-.3l.5.7c-.3.2-.5.4-.8.5-.3.1-.6.2-1,.2-.6,0-1.1-.2-1.4-.5-.3-.4-.5-.9-.5-1.7ZM902.1,15.8v-1.1h3.9v1.1h-3.9ZM908,19v-8.9h2.8c.6,0,1.1,0,1.5.3.4.2.7.4.9.6.2.3.4.6.5.9,0,.3.1.6.1.9,0,.6-.1,1.1-.4,1.5-.3.4-.6.7-1.1.9-.5.2-1,.3-1.6.3h-1.6v3.5h-1.3ZM909.3,14.4h1.6c.6,0,1-.1,1.3-.4.3-.3.5-.7.5-1.2s-.2-.9-.5-1.2c-.3-.3-.7-.4-1.3-.4h-1.6v3.2ZM915.1,19v-8.9h1.2v8.9h-1.2ZM917.9,16.5v-3.7h1.2v3.6c0,.6.1,1,.4,1.3.2.3.6.4,1,.4s.8-.1,1.1-.4.4-.5.5-.9c.1-.4.2-.8.2-1.2v-2.9h1.2v5.8c0,.1,0,.2,0,.4h-1.1v-.9c-.1.1-.3.3-.5.5-.2.2-.4.3-.7.4-.3.1-.6.2-1,.2-.8,0-1.4-.2-1.8-.7-.4-.5-.6-1.1-.6-1.9ZM924.8,18.2l.7-.8c.2.2.5.4.8.5.3.1.7.2,1.1.2s.7,0,1-.2c.3-.1.4-.3.4-.6s0-.4-.2-.5c-.1-.1-.3-.2-.5-.3-.3,0-.6-.2-1.1-.3-.3,0-.6-.2-.9-.3-.3-.1-.6-.3-.7-.6-.2-.2-.3-.6-.3-1s.1-.7.3-1c.2-.3.5-.5.9-.6.4-.1.8-.2,1.2-.2s1,0,1.4.2c.4.1.7.3,1,.6l-.7.8c-.2-.2-.4-.3-.7-.4-.3-.1-.6-.2-1-.2s-.7,0-.9.2c-.2.1-.3.3-.3.6s.2.5.5.6c.3.1.7.2,1.2.4.4,0,.7.2,1.1.4.3.1.6.3.8.6.2.2.3.6.3,1s-.1.8-.4,1c-.2.3-.6.5-.9.6-.4.1-.8.2-1.3.2-1.2,0-2.1-.3-2.6-.9ZM934.1,19v-8.9h2.8c.6,0,1.1,0,1.5.3.4.2.7.4.9.6.2.3.4.6.5.9,0,.3.1.6.1.9,0,.6-.1,1.1-.4,1.5-.3.4-.6.7-1.1.9s-1,.3-1.6.3h-1.6v3.5h-1.3ZM935.3,14.4h1.6c.6,0,1-.1,1.3-.4.3-.3.5-.7.5-1.2s-.2-.9-.5-1.2c-.3-.3-.7-.4-1.3-.4h-1.6v3.2ZM942,17v-3.2h-1.1v-1h1.1v-2h1.2v2h1.8v1h-1.8v3.1c0,.5,0,.8.2,1,.2.2.4.3.7.3s.4,0,.6-.1c.2,0,.3-.2.5-.3l.5.7c-.3.2-.5.4-.8.5-.3.1-.6.2-1,.2-.6,0-1.1-.2-1.4-.5-.3-.4-.5-.9-.5-1.7ZM945.8,21.4l.5-.8c0,0,.2.2.3.2.1,0,.3,0,.4,0,.3,0,.5-.1.6-.4.1-.2.3-.6.5-1.1l.2-.4-2.8-6.1h1.4l2,4.7,1.8-4.7h1.3l-2.5,6c-.1.3-.2.6-.4.9-.1.3-.3.7-.4,1-.2.3-.4.6-.7.8-.3.2-.6.3-1,.3s-.6,0-.8-.1c-.2,0-.4-.2-.6-.3ZM955.6,19v-8.9h1.3v7.8h4.6v1.1h-5.9ZM962.7,11.7v-1.3h1.3v1.3h-1.3ZM962.7,19v-6.2h1.2v6.2h-1.2ZM966.8,19h-1.2v-5.8c0,0,0-.2,0-.4h1.1v.9c.1-.2.3-.3.4-.5.2-.2.4-.3.7-.4.3-.1.6-.2,1-.2s.9,0,1.2.3c.3.2.6.5.7.8.2-.3.6-.6.9-.8.4-.2.8-.3,1.3-.3.8,0,1.4.2,1.8.7.4.5.6,1.1.6,1.9v3.7h-1.2v-3.6c0-1.1-.4-1.7-1.3-1.7s-.6,0-.9.3c-.3.2-.5.4-.6.7-.2.3-.2.6-.2.9v3.4h-1.2v-3.6c0-.6-.1-1-.3-1.3-.2-.3-.6-.4-1-.4s-.8.1-1,.4-.4.5-.5.9c-.1.4-.2.7-.2,1.1v2.9ZM976.9,11.7v-1.3h1.3v1.3h-1.3ZM977,19v-6.2h1.2v6.2h-1.2ZM980.5,17v-3.2h-1.1v-1h1.1v-2h1.2v2h1.8v1h-1.8v3.1c0,.5,0,.8.2,1,.2.2.4.3.7.3s.4,0,.6-.1c.2,0,.3-.2.5-.3l.5.7c-.3.2-.5.4-.8.5-.3.1-.6.2-1,.2-.6,0-1.1-.2-1.4-.5-.3-.4-.5-.9-.5-1.7ZM989.6,17.4l.7.7c0,.1-.2.2-.5.4-.2.2-.5.3-.9.5-.4.1-.8.2-1.3.2s-1.2-.1-1.7-.4c-.5-.3-.9-.7-1.1-1.2-.3-.5-.4-1.1-.4-1.7s.1-1.2.4-1.6c.3-.5.6-.9,1.1-1.2.5-.3,1-.4,1.6-.4s1.3.2,1.7.5c.4.3.8.8,1,1.3.2.6.3,1.1.3,1.8h-4.9c0,.4.1.7.3,1,.2.3.4.5.7.7.3.2.6.2,1,.2.5,0,1,0,1.3-.3.3-.2.6-.4.7-.5ZM985.6,15.4h3.7c0-.5-.2-.9-.5-1.2-.3-.3-.7-.5-1.3-.5s-.7,0-1,.3c-.3.2-.5.4-.6.7-.1.3-.2.5-.2.8ZM996.3,19v-.8c-.1,0-.2.2-.4.3-.2.2-.4.3-.7.4-.3.1-.6.2-1,.2s-1-.1-1.4-.4c-.4-.3-.7-.6-1-1.1s-.4-1-.4-1.7,0-1.1.3-1.5c.2-.4.5-.8.8-1,.3-.3.7-.5,1-.6.4-.1.7-.2,1.1-.2s.6,0,.9.1c.2,0,.5.2.7.3v-2.9h1.2v8.5c0,.1,0,.2,0,.4h-1.2ZM996.3,16.4v-2.2c-.2-.1-.4-.2-.6-.3-.2,0-.6-.1-.9-.1-.6,0-1.1.2-1.5.6-.4.4-.6,1-.6,1.7s0,.8.2,1.1c.1.3.3.6.6.8.3.2.6.3,1,.3s.8,0,1-.3c.3-.2.4-.4.6-.7.1-.3.2-.5.2-.8ZM999.2,19v-1.5h1.5v1.5h-1.5ZM1009.7,15.6v-1.1h3.1v3.5c-.3.3-.8.6-1.3.8-.6.2-1.3.4-2.2.4s-1.7-.2-2.4-.6c-.7-.4-1.2-1-1.6-1.7-.4-.7-.5-1.5-.5-2.4s.1-1.3.3-1.8c.2-.6.5-1.1.9-1.5.4-.4.9-.8,1.4-1,.6-.2,1.2-.4,1.8-.4s1.2,0,1.6.3c.5.2.8.4,1.1.7.3.3.5.5.7.8l-.9.8c-.1-.2-.3-.4-.6-.6-.2-.2-.5-.4-.8-.5-.3-.2-.7-.2-1.2-.2-.7,0-1.2.2-1.7.5-.5.3-.8.7-1.1,1.3-.2.5-.4,1.1-.4,1.8s.1,1.3.4,1.8c.3.5.7.9,1.2,1.2.5.3,1,.4,1.7.4s1,0,1.3-.2c.4-.1.7-.3.9-.5v-1.8h-1.9ZM1019.5,17.4l.7.7c0,.1-.2.2-.5.4-.2.2-.5.3-.9.5-.4.1-.8.2-1.3.2s-1.2-.1-1.7-.4c-.5-.3-.9-.7-1.2-1.2-.3-.5-.4-1.1-.4-1.7s.1-1.2.4-1.6.6-.9,1.1-1.2c.5-.3,1-.4,1.6-.4s1.3.2,1.8.5c.5.3.8.8,1,1.3.2.6.3,1.1.3,1.8h-4.9c0,.4,0,.7.3,1,.2.3.4.5.7.7.3.2.7.2,1,.2.5,0,1,0,1.3-.3.3-.2.6-.4.7-.5ZM1015.5,15.4h3.6c0-.5-.2-.9-.5-1.2-.3-.3-.7-.5-1.3-.5s-.7,0-1,.3c-.3.2-.5.4-.6.7-.1.3-.2.5-.2.8ZM1022.9,19h-1.2v-5.8c0,0,0-.2,0-.4h1.2v.9c.1-.2.3-.3.5-.5.2-.2.4-.3.7-.4.3-.1.6-.2,1-.2.8,0,1.4.2,1.8.7.4.5.6,1.1.6,1.9v3.7h-1.2v-3.6c0-.6-.1-1-.4-1.3-.2-.3-.6-.4-1-.4s-.8.1-1.1.4c-.3.2-.5.5-.6.9s-.2.8-.2,1.2v2.9ZM1033.9,17.4l.7.7c0,.1-.2.2-.5.4-.2.2-.5.3-.9.5-.4.1-.8.2-1.3.2s-1.2-.1-1.7-.4c-.5-.3-.9-.7-1.2-1.2-.3-.5-.4-1.1-.4-1.7s.1-1.2.4-1.6c.3-.5.6-.9,1.1-1.2.5-.3,1-.4,1.6-.4s1.3.2,1.7.5c.5.3.8.8,1,1.3.2.6.3,1.1.3,1.8h-4.9c0,.4.1.7.3,1,.2.3.4.5.7.7.3.2.6.2,1,.2.5,0,.9,0,1.3-.3.3-.2.6-.4.7-.5ZM1029.9,15.4h3.7c0-.5-.2-.9-.5-1.2-.3-.3-.7-.5-1.3-.5s-.7,0-1,.3c-.3.2-.5.4-.6.7-.1.3-.2.5-.2.8ZM1037.3,19h-1.2v-5.8c0,0,0-.2,0-.4h1.2v1c.1-.1.3-.3.4-.5.2-.2.4-.3.7-.4.3-.1.6-.2,1-.2s.2,0,.4,0c.1,0,.2,0,.3,0l-.3,1.1c-.2,0-.4,0-.6,0s-.7,0-.9.3c-.3.2-.5.4-.6.7-.2.3-.2.6-.2.9v3.3ZM1044.7,19v-.7c-.2.3-.6.5-1,.7-.4.2-.8.2-1.2.2s-.7,0-1-.2c-.3-.1-.6-.3-.8-.6-.2-.3-.3-.7-.3-1.1,0-.7.2-1.2.7-1.6.5-.4,1.1-.6,2-.6s.4,0,.6,0c.2,0,.4,0,.6,0,.2,0,.3,0,.3,0v-.2c0-.5-.2-.8-.4-1-.3-.2-.6-.3-1.1-.3s-.8,0-1.1.2c-.3.1-.5.3-.7.4l-.6-.8c.2-.2.5-.4.9-.5.4-.2.9-.3,1.6-.3s1.4.2,1.9.6c.5.4.7.9.7,1.6v3.8c0,0,0,.2,0,.3h-1.1ZM1044.6,16.8v-.7c0,0-.2,0-.3,0-.2,0-.3,0-.6,0-.2,0-.4,0-.6,0-.4,0-.8,0-1,.2-.2.1-.4.3-.5.5,0,.2-.1.4-.1.6,0,.3.1.6.3.8.2.2.5.3,1,.3s.6,0,.8-.2c.3-.1.5-.3.6-.5.2-.2.3-.5.3-.7ZM1047.4,19v-8.9h1.2v8.9h-1.2ZM1056.5,19v-.7c-.2.3-.6.5-.9.7-.4.2-.8.2-1.2.2s-.7,0-1-.2c-.3-.1-.6-.3-.8-.6-.2-.3-.3-.7-.3-1.1,0-.7.2-1.2.7-1.6s1.2-.6,2-.6.4,0,.6,0c.2,0,.4,0,.6,0,.2,0,.3,0,.3,0v-.2c0-.5-.1-.8-.4-1-.3-.2-.7-.3-1.1-.3s-.8,0-1.1.2c-.3.1-.5.3-.7.4l-.6-.8c.2-.2.5-.4.9-.5.4-.2.9-.3,1.6-.3s1.4.2,1.9.6c.5.4.7.9.7,1.6v3.8c0,0,0,.2,0,.3h-1.1ZM1056.5,16.8v-.7s-.1,0-.3,0c-.2,0-.3,0-.5,0-.2,0-.4,0-.6,0-.4,0-.8,0-1,.2-.2.1-.4.3-.5.5,0,.2-.1.4-.1.6,0,.3.1.6.4.8.2.2.5.3,1,.3s.6,0,.8-.2c.3-.1.5-.3.6-.5.2-.2.2-.5.2-.7ZM1063.8,19v-.8c-.1,0-.2.2-.4.3-.2.2-.4.3-.7.4-.3.1-.6.2-1,.2s-1-.1-1.4-.4c-.4-.3-.8-.6-1-1.1s-.4-1-.4-1.7,0-1.1.3-1.5c.2-.4.5-.8.8-1,.3-.3.7-.5,1-.6.4-.1.7-.2,1.1-.2s.6,0,.9.1c.2,0,.5.2.8.3v-2.9h1.2v8.5c0,.1,0,.2,0,.4h-1.2ZM1063.8,16.4v-2.2c-.2-.1-.4-.2-.6-.3-.2,0-.6-.1-.9-.1-.6,0-1.1.2-1.5.6-.4.4-.6,1-.6,1.7s0,.8.2,1.1.3.6.6.8c.3.2.6.3,1,.3s.8,0,1-.3c.3-.2.4-.4.6-.7s.2-.5.2-.8ZM1068.5,19l-2.7-6.2h1.4l1.9,4.8,1.9-4.8h1.3l-2.7,6.2h-1.2ZM1073.3,11.7v-1.3h1.3v1.3h-1.3ZM1073.4,19v-6.2h1.2v6.2h-1.2ZM1080.9,17.4l.7.8c-.3.3-.6.6-1,.8-.4.2-.9.3-1.4.3s-1.2-.1-1.7-.4c-.5-.3-.9-.7-1.1-1.2-.3-.5-.4-1.1-.4-1.7s.1-1.2.4-1.7c.3-.5.7-.9,1.2-1.2.5-.3,1.1-.5,1.7-.5s1,0,1.4.3.7.4,1,.8l-.8.8c-.2-.2-.4-.4-.7-.5-.3-.1-.6-.2-1-.2s-.8.1-1.1.3c-.3.2-.5.5-.7.8-.2.3-.2.7-.2,1.1s0,.7.2,1.1c.2.3.4.6.7.8.3.2.7.3,1.1.3s.7,0,1-.2c.3-.1.5-.3.7-.6ZM1087.4,17.4l.7.7c0,.1-.2.2-.5.4-.2.2-.5.3-.9.5-.4.1-.8.2-1.3.2s-1.2-.1-1.7-.4c-.5-.3-.9-.7-1.1-1.2-.3-.5-.4-1.1-.4-1.7s.1-1.2.4-1.6.6-.9,1.1-1.2c.5-.3,1-.4,1.6-.4s1.3.2,1.8.5c.4.3.8.8,1,1.3.2.6.3,1.1.3,1.8h-4.9c0,.4,0,.7.3,1,.2.3.4.5.7.7.3.2.7.2,1,.2.5,0,1,0,1.3-.3.3-.2.6-.4.7-.5ZM1083.4,15.4h3.7c0-.5-.2-.9-.5-1.2-.3-.3-.7-.5-1.3-.5s-.7,0-1,.3c-.3.2-.5.4-.6.7-.2.3-.2.5-.2.8ZM1095,19.2c-.6,0-1.2-.1-1.7-.4-.5-.3-.9-.7-1.2-1.2-.3-.5-.4-1.1-.4-1.7s.1-1.2.4-1.7c.3-.5.7-.9,1.2-1.2.5-.3,1.1-.5,1.7-.5s1.2.2,1.7.5c.5.3.9.7,1.2,1.2.3.5.4,1,.4,1.7s-.1,1.1-.4,1.7c-.3.5-.7.9-1.2,1.2-.5.3-1,.4-1.7.4ZM1095,18.1c.4,0,.8-.1,1.1-.3.3-.2.5-.5.7-.9.2-.3.3-.7.3-1.1s0-.7-.3-1.1c-.2-.3-.4-.6-.7-.8-.3-.2-.7-.3-1.1-.3s-.8.1-1.1.3c-.3.2-.6.5-.7.8-.2.3-.2.7-.2,1.1s0,.7.3,1.1c.2.3.4.6.7.8.3.2.7.3,1.1.3ZM1100.8,19h-1.2v-5.8c0,0,0-.2,0-.4h1.2v.9c.1-.2.3-.3.5-.5.2-.2.4-.3.7-.4.3-.1.6-.2,1-.2.8,0,1.4.2,1.8.7.4.5.6,1.1.6,1.9v3.7h-1.2v-3.6c0-.6-.1-1-.4-1.3-.2-.3-.6-.4-1-.4s-.8.1-1.1.4c-.3.2-.5.5-.6.9,0,.4-.2.8-.2,1.2v2.9ZM1106.9,19v-8.9h1.2v8.9h-1.2ZM1109.2,21.4l.6-.8c0,0,.2.2.3.2.1,0,.2,0,.4,0,.3,0,.5-.1.6-.4.2-.2.3-.6.5-1.1l.2-.4-2.8-6.1h1.4l2,4.7,1.8-4.7h1.3l-2.5,6c-.1.3-.2.6-.4.9-.1.3-.3.7-.4,1-.2.3-.4.6-.7.8-.2.2-.6.3-1,.3s-.6,0-.8-.1c-.2,0-.4-.2-.6-.3ZM1115.4,19v-1.5h1.5v1.5h-1.5ZM17.7,29.7l.9.7c-.1.2-.4.4-.7.7-.3.3-.7.5-1.2.7-.5.2-1,.3-1.6.3s-1.6-.2-2.3-.6c-.7-.4-1.2-1-1.6-1.7-.4-.7-.6-1.5-.6-2.4s.1-1.3.3-1.8c.2-.6.5-1.1.9-1.5.4-.4.9-.8,1.4-1,.6-.2,1.2-.4,1.8-.4s1.2,0,1.6.3c.5.2.8.4,1.1.7.3.3.5.5.7.8l-.9.8c-.1-.2-.3-.4-.5-.6-.2-.2-.5-.4-.8-.5-.3-.2-.7-.2-1.2-.2s-1.2.2-1.7.5c-.5.3-.8.7-1.1,1.3-.2.5-.4,1.1-.4,1.8s.1,1.2.4,1.7c.3.5.6.9,1.1,1.3.5.3,1,.5,1.6.5s1,0,1.3-.3c.3-.2.6-.4.8-.6.2-.2.4-.4.5-.5ZM22.6,32.2c-.6,0-1.2-.1-1.7-.4-.5-.3-.9-.7-1.2-1.2-.3-.5-.4-1.1-.4-1.7s.1-1.2.4-1.7c.3-.5.7-.9,1.2-1.2.5-.3,1.1-.5,1.7-.5s1.2.2,1.7.5c.5.3.9.7,1.2,1.2.3.5.4,1,.4,1.7s-.1,1.1-.4,1.7c-.3.5-.7.9-1.2,1.2-.5.3-1,.4-1.7.4ZM22.6,31.1c.4,0,.8-.1,1.1-.3.3-.2.5-.5.7-.9.2-.3.3-.7.3-1.1s0-.7-.3-1.1c-.2-.3-.4-.6-.7-.8-.3-.2-.7-.3-1.1-.3s-.8.1-1.1.3c-.3.2-.6.5-.7.8-.2.3-.2.7-.2,1.1s0,.7.3,1.1c.2.3.4.6.7.8.3.2.7.3,1.1.3ZM28.4,32h-1.2v-5.8c0,0,0-.2,0-.4h1.1v.9c.1-.2.3-.3.5-.5.2-.2.4-.3.7-.4.3-.1.6-.2,1-.2.8,0,1.4.2,1.8.7.4.5.6,1.1.6,1.9v3.7h-1.2v-3.6c0-.6-.1-1-.4-1.3-.2-.3-.6-.4-1-.4s-.8.1-1.1.4c-.3.2-.5.5-.6.9-.1.4-.2.8-.2,1.2v2.9ZM34.2,31.2l.7-.8c.2.2.5.4.8.5.3.1.7.2,1.1.2s.7,0,1-.2c.3-.1.4-.3.4-.6s0-.4-.2-.5c-.1-.1-.3-.2-.5-.3-.3,0-.6-.2-1.1-.3-.3,0-.6-.2-.9-.3-.3-.1-.6-.3-.7-.6-.2-.2-.3-.6-.3-1s.1-.7.3-1c.2-.3.5-.5.9-.6.4-.1.8-.2,1.2-.2s1,0,1.4.2c.4.1.7.3,1,.6l-.7.8c-.2-.2-.4-.3-.7-.4-.3-.1-.6-.2-1-.2s-.7,0-.9.2c-.2.1-.3.3-.3.6s.2.5.5.6c.3.1.7.2,1.2.4.4,0,.7.2,1.1.4.3.1.6.3.8.6.2.2.3.6.3,1s-.1.8-.4,1c-.2.3-.6.5-.9.6-.4.1-.8.2-1.3.2-1.2,0-2.1-.3-2.6-.9ZM40.7,24.7v-1.3h1.3v1.3h-1.3ZM40.8,32v-6.2h1.2v6.2h-1.2ZM48.2,32v-.8c-.1,0-.2.2-.4.3-.2.2-.4.3-.7.4-.3.1-.6.2-1,.2s-1-.1-1.4-.4c-.4-.3-.7-.6-1-1.1s-.4-1-.4-1.7,0-1.1.3-1.5c.2-.4.5-.8.8-1,.3-.3.7-.5,1-.6.4-.1.7-.2,1.1-.2s.6,0,.9.1c.2,0,.5.2.7.3v-2.9h1.2v8.5c0,.1,0,.2,0,.4h-1.2ZM48.2,29.4v-2.2c-.2-.1-.4-.2-.6-.3-.2,0-.6-.1-.9-.1-.6,0-1.1.2-1.5.6-.4.4-.6,1-.6,1.7s0,.8.2,1.1c.1.3.3.6.6.8.3.2.6.3,1,.3s.8,0,1-.3c.3-.2.4-.4.6-.7.1-.3.2-.5.2-.8ZM56,30.4l.7.7c0,.1-.2.2-.5.4-.2.2-.5.3-.9.5-.4.1-.8.2-1.3.2s-1.2-.1-1.7-.4c-.5-.3-.9-.7-1.1-1.2-.3-.5-.4-1.1-.4-1.7s.1-1.2.4-1.6c.3-.5.6-.9,1.1-1.2.5-.3,1-.4,1.6-.4s1.3.2,1.7.5c.4.3.8.8,1,1.3s.3,1.1.3,1.8h-4.9c0,.4.1.7.3,1,.2.3.4.5.7.7.3.2.6.2,1,.2.5,0,1,0,1.3-.3.3-.2.6-.4.7-.5ZM52,28.4h3.7c0-.5-.2-.9-.5-1.2-.3-.3-.7-.5-1.3-.5s-.7,0-1,.3c-.3.2-.5.4-.6.7-.1.3-.2.5-.2.8ZM59.4,32h-1.2v-5.8c0,0,0-.2,0-.4h1.1v1c.1-.1.3-.3.4-.5.2-.2.4-.3.7-.4.3-.1.6-.2,1-.2s.3,0,.4,0c.1,0,.2,0,.3,0l-.3,1.1c-.2,0-.4,0-.6,0s-.6,0-.9.3c-.3.2-.5.4-.6.7-.2.3-.2.6-.2.9v3.3ZM66,30v-3.2h-1.1v-1h1.1v-2h1.2v2h1.8v1h-1.8v3.1c0,.5,0,.8.2,1,.2.2.4.3.7.3s.4,0,.6-.1c.2,0,.3-.2.5-.3l.5.7c-.3.2-.5.4-.8.5-.3.1-.6.2-1,.2-.6,0-1.1-.2-1.4-.5-.3-.4-.5-.9-.5-1.7ZM70.6,32v-8.9h1.2v3.6c.1-.2.2-.3.4-.5.2-.2.4-.3.7-.4.3-.1.6-.2,1-.2.8,0,1.4.2,1.8.7.4.5.6,1.1.6,1.9v3.7h-1.2v-3.6c0-.6-.1-1-.4-1.3-.2-.3-.6-.4-1-.4s-.8.1-1.1.4c-.3.2-.5.5-.6.9-.1.4-.2.8-.2,1.2v2.9h-1.2ZM82.8,30.4l.7.7c0,.1-.2.2-.5.4-.2.2-.5.3-.9.5-.4.1-.8.2-1.3.2s-1.2-.1-1.7-.4c-.5-.3-.9-.7-1.1-1.2-.3-.5-.4-1.1-.4-1.7s.1-1.2.4-1.6c.3-.5.6-.9,1.1-1.2.5-.3,1-.4,1.6-.4s1.3.2,1.7.5c.4.3.8.8,1,1.3.2.6.3,1.1.3,1.8h-4.9c0,.4.1.7.3,1,.2.3.4.5.7.7.3.2.6.2,1,.2.5,0,1,0,1.3-.3.3-.2.6-.4.7-.5ZM78.8,28.4h3.7c0-.5-.2-.9-.5-1.2-.3-.3-.7-.5-1.3-.5s-.7,0-1,.3c-.3.2-.5.4-.6.7-.1.3-.2.5-.2.8ZM88.6,32h-1.2v-5.8c0,0,0-.2,0-.4h1.1v1c.1-.1.3-.3.4-.5.2-.2.4-.3.7-.4.3-.1.6-.2,1-.2s.3,0,.4,0c.1,0,.2,0,.3,0l-.3,1.1c-.2,0-.4,0-.6,0s-.6,0-.9.3c-.3.2-.5.4-.6.7-.2.3-.2.6-.2.9v3.3ZM96.9,30.4l.7.7c0,.1-.2.2-.5.4-.2.2-.5.3-.9.5-.4.1-.8.2-1.3.2s-1.2-.1-1.7-.4c-.5-.3-.9-.7-1.1-1.2-.3-.5-.4-1.1-.4-1.7s.1-1.2.4-1.6c.3-.5.6-.9,1.1-1.2.5-.3,1-.4,1.6-.4s1.3.2,1.7.5c.4.3.8.8,1,1.3.2.6.3,1.1.3,1.8h-4.9c0,.4.1.7.3,1,.2.3.4.5.7.7.3.2.6.2,1,.2.5,0,1,0,1.3-.3.3-.2.6-.4.7-.5ZM92.8,28.4h3.7c0-.5-.2-.9-.5-1.2-.3-.3-.7-.5-1.3-.5s-.7,0-1,.3c-.3.2-.5.4-.6.7-.1.3-.2.5-.2.8ZM99,32v-8.9h1.2v8.9h-1.2ZM106.9,30.4l.7.7c0,.1-.2.2-.5.4-.2.2-.5.3-.9.5-.4.1-.8.2-1.3.2s-1.2-.1-1.7-.4c-.5-.3-.9-.7-1.1-1.2-.3-.5-.4-1.1-.4-1.7s.1-1.2.4-1.6c.3-.5.6-.9,1.1-1.2.5-.3,1-.4,1.6-.4s1.3.2,1.7.5c.4.3.8.8,1,1.3s.3,1.1.3,1.8h-4.9c0,.4.1.7.3,1,.2.3.4.5.7.7.3.2.6.2,1,.2.5,0,1,0,1.3-.3.3-.2.6-.4.7-.5ZM102.8,28.4h3.7c0-.5-.2-.9-.5-1.2-.3-.3-.7-.5-1.3-.5s-.7,0-1,.3c-.3.2-.5.4-.6.7-.1.3-.2.5-.2.8ZM110.7,32l-2.7-6.2h1.4l1.9,4.8,1.9-4.8h1.3l-2.7,6.2h-1.2ZM119.1,32v-.7c-.2.3-.6.5-.9.7-.4.2-.8.2-1.2.2s-.7,0-1-.2c-.3-.1-.6-.3-.8-.6-.2-.3-.3-.7-.3-1.1,0-.7.2-1.2.7-1.6.5-.4,1.1-.6,2-.6s.4,0,.6,0c.2,0,.4,0,.6,0,.2,0,.3,0,.3,0v-.2c0-.5-.1-.8-.4-1-.3-.2-.7-.3-1.1-.3s-.8,0-1.1.2c-.3.1-.5.3-.7.4l-.6-.8c.2-.2.5-.4.9-.5.4-.2.9-.3,1.6-.3s1.4.2,1.9.6c.5.4.7.9.7,1.6v3.8c0,0,0,.2,0,.3h-1.1ZM119.1,29.8v-.7s-.1,0-.3,0c-.2,0-.3,0-.5,0-.2,0-.4,0-.6,0-.4,0-.8,0-1,.2-.2.1-.4.3-.5.5,0,.2-.1.4-.1.6,0,.3.1.6.3.8.2.2.6.3,1,.3s.6,0,.9-.2c.3-.1.5-.3.6-.5.2-.2.3-.5.3-.7ZM123.1,32h-1.2v-5.8c0,0,0-.2,0-.4h1.1v.9c.1-.2.3-.3.5-.5.2-.2.4-.3.7-.4.3-.1.6-.2,1-.2.8,0,1.4.2,1.8.7.4.5.6,1.1.6,1.9v3.7h-1.2v-3.6c0-.6-.1-1-.4-1.3-.2-.3-.6-.4-1-.4s-.8.1-1.1.4c-.3.2-.5.5-.6.9-.1.4-.2.8-.2,1.2v2.9ZM129.6,30v-3.2h-1.1v-1h1.1v-2h1.2v2h1.8v1h-1.8v3.1c0,.5,0,.8.2,1,.2.2.4.3.7.3s.4,0,.6-.1c.2,0,.3-.2.5-.3l.5.7c-.3.2-.5.4-.8.5-.3.1-.6.2-1,.2-.6,0-1.1-.2-1.4-.5-.3-.4-.5-.9-.5-1.7ZM136.8,32v-8.9h2.8c.6,0,1.1,0,1.5.3.4.2.7.4.9.6.2.3.4.6.5.9,0,.3.1.6.1.9,0,.6-.1,1.1-.4,1.5-.3.4-.6.7-1.1.9-.5.2-1,.3-1.6.3h-1.6v3.5h-1.3ZM138.1,27.4h1.6c.6,0,1-.1,1.3-.4.3-.3.5-.7.5-1.2s-.2-.9-.5-1.2c-.3-.3-.7-.4-1.3-.4h-1.6v3.2ZM144.4,32v-8.9h3c.9,0,1.8.2,2.5.5.7.3,1.3.8,1.7,1.5.4.7.6,1.5.6,2.5s-.2,1.8-.6,2.5c-.4.7-1,1.1-1.7,1.5-.7.3-1.6.5-2.5.5h-3ZM145.7,30.9h1.7c1.1,0,2-.3,2.6-.8.6-.6.9-1.4.9-2.4s-.3-1.9-.9-2.5c-.6-.6-1.5-.9-2.7-.9h-1.6v6.6ZM153.3,30.7l.9-.8c.2.2.4.4.6.6.2.2.5.3.8.5.3.1.6.2,1,.2.6,0,1-.1,1.4-.4.3-.3.5-.6.5-1.1s-.2-.9-.6-1.1c-.4-.2-.9-.4-1.6-.6-.8-.2-1.4-.4-1.9-.9-.5-.4-.7-1-.7-1.7s.1-.8.3-1.2c.2-.4.6-.7,1-.9.4-.2,1-.3,1.6-.3s1.1,0,1.4.2c.4.2.7.3.9.5.2.2.4.4.5.5l-.9.8c0,0-.2-.2-.4-.3-.2-.1-.4-.3-.7-.4-.3-.1-.6-.2-1-.2s-.7,0-.9.2c-.2.1-.4.3-.5.5-.1.2-.2.4-.2.6,0,.4.2.8.5,1,.4.2.9.4,1.6.5.4,0,.9.3,1.3.5.4.2.7.5,1,.9.3.4.4.8.4,1.5s-.1,1-.4,1.4c-.3.4-.6.7-1.1.9-.5.2-1,.3-1.6.3s-1,0-1.5-.2c-.4-.2-.8-.4-1.1-.6-.3-.2-.5-.5-.7-.7ZM167.7,32v-.7c-.2.3-.6.5-.9.7-.4.2-.8.2-1.2.2s-.7,0-1-.2c-.3-.1-.6-.3-.8-.6-.2-.3-.3-.7-.3-1.1,0-.7.2-1.2.7-1.6.5-.4,1.1-.6,2-.6s.4,0,.6,0c.2,0,.4,0,.6,0,.2,0,.3,0,.3,0v-.2c0-.5-.1-.8-.4-1-.3-.2-.7-.3-1.1-.3s-.8,0-1.1.2c-.3.1-.5.3-.7.4l-.6-.8c.2-.2.5-.4.9-.5.4-.2.9-.3,1.6-.3s1.4.2,1.9.6c.5.4.7.9.7,1.6v3.8c0,0,0,.2,0,.3h-1.1ZM167.7,29.8v-.7s-.1,0-.3,0c-.2,0-.3,0-.5,0-.2,0-.4,0-.6,0-.4,0-.8,0-1,.2-.2.1-.4.3-.5.5,0,.2-.1.4-.1.6,0,.3.1.6.3.8.2.2.6.3,1,.3s.6,0,.9-.2c.3-.1.5-.3.6-.5.2-.2.3-.5.3-.7ZM171.7,32h-1.2v-5.8c0,0,0-.2,0-.4h1.1v.9c.1-.2.3-.3.5-.5.2-.2.4-.3.7-.4.3-.1.6-.2,1-.2.8,0,1.4.2,1.8.7.4.5.6,1.1.6,1.9v3.7h-1.2v-3.6c0-.6-.1-1-.4-1.3-.2-.3-.6-.4-1-.4s-.8.1-1.1.4c-.3.2-.5.5-.6.9-.1.4-.2.8-.2,1.2v2.9ZM182.2,32v-.8c-.1,0-.2.2-.4.3-.2.2-.4.3-.7.4-.3.1-.6.2-1,.2s-1-.1-1.4-.4c-.4-.3-.7-.6-1-1.1-.2-.5-.4-1-.4-1.7s0-1.1.3-1.5c.2-.4.5-.8.8-1,.3-.3.7-.5,1-.6.4-.1.7-.2,1.1-.2s.6,0,.9.1c.2,0,.5.2.7.3v-2.9h1.2v8.5c0,.1,0,.2,0,.4h-1.2ZM182.2,29.4v-2.2c-.2-.1-.4-.2-.6-.3-.2,0-.6-.1-.9-.1-.6,0-1.1.2-1.5.6-.4.4-.6,1-.6,1.7s0,.8.2,1.1c.1.3.3.6.6.8.3.2.6.3,1,.3s.8,0,1-.3c.3-.2.4-.4.6-.7.1-.3.2-.5.2-.8ZM190.1,32v-7.8h-3.2v-1.1h7.6v1.1h-3.2v7.8h-1.3ZM195.7,32l.4-8.9h1.2l2.7,4.6,2.7-4.6h1.2l.4,8.9h-1.3l-.3-6.8-2.5,4.2h-.6l-2.5-4.1-.3,6.8h-1.2ZM206.3,32v-8.9h3c.9,0,1.8.2,2.5.5.7.3,1.3.8,1.7,1.5.4.7.6,1.5.6,2.5s-.2,1.8-.6,2.5c-.4.7-1,1.1-1.7,1.5-.7.3-1.6.5-2.5.5h-3ZM207.6,30.9h1.7c1.1,0,2-.3,2.6-.8.6-.6.9-1.4.9-2.4s-.3-1.9-.9-2.5c-.6-.6-1.5-.9-2.7-.9h-1.6v6.6ZM221.9,32v-.7c-.2.3-.6.5-.9.7-.4.2-.8.2-1.2.2s-.7,0-1-.2c-.3-.1-.6-.3-.8-.6-.2-.3-.3-.7-.3-1.1,0-.7.2-1.2.7-1.6.5-.4,1.1-.6,2-.6s.4,0,.6,0c.2,0,.4,0,.6,0,.2,0,.3,0,.3,0v-.2c0-.5-.1-.8-.4-1-.3-.2-.7-.3-1.1-.3s-.8,0-1.1.2c-.3.1-.5.3-.7.4l-.6-.8c.2-.2.5-.4.9-.5.4-.2.9-.3,1.6-.3s1.4.2,1.9.6c.5.4.7.9.7,1.6v3.8c0,0,0,.2,0,.3h-1.1ZM221.9,29.8v-.7s-.1,0-.3,0c-.2,0-.3,0-.5,0-.2,0-.4,0-.6,0-.4,0-.8,0-1,.2-.2.1-.4.3-.5.5,0,.2-.1.4-.1.6,0,.3.1.6.3.8.2.2.6.3,1,.3s.6,0,.9-.2c.3-.1.5-.3.6-.5.2-.2.3-.5.3-.7ZM226.3,32l-2.7-6.2h1.4l1.9,4.8,1.9-4.8h1.3l-2.7,6.2h-1.2ZM234.7,32v-.7c-.2.3-.6.5-.9.7-.4.2-.8.2-1.2.2s-.7,0-1-.2c-.3-.1-.6-.3-.8-.6-.2-.3-.3-.7-.3-1.1,0-.7.2-1.2.7-1.6.5-.4,1.1-.6,2-.6s.4,0,.6,0c.2,0,.4,0,.6,0,.2,0,.3,0,.3,0v-.2c0-.5-.1-.8-.4-1-.3-.2-.7-.3-1.1-.3s-.8,0-1.1.2c-.3.1-.5.3-.7.4l-.6-.8c.2-.2.5-.4.9-.5.4-.2.9-.3,1.6-.3s1.4.2,1.9.6c.5.4.7.9.7,1.6v3.8c0,0,0,.2,0,.3h-1.1ZM234.7,29.8v-.7s-.1,0-.3,0c-.2,0-.3,0-.5,0-.2,0-.4,0-.6,0-.4,0-.8,0-1,.2-.2.1-.4.3-.5.5,0,.2-.1.4-.1.6,0,.3.1.6.3.8.2.2.6.3,1,.3s.6,0,.9-.2c.3-.1.5-.3.6-.5.2-.2.3-.5.3-.7ZM237.4,24.7v-1.3h1.3v1.3h-1.3ZM237.5,32v-6.2h1.2v6.2h-1.2ZM240.4,32v-8.9h1.2v8.9h-1.2ZM247.2,32v-.7c-.2.3-.6.5-.9.7-.4.2-.8.2-1.2.2s-.7,0-1-.2c-.3-.1-.6-.3-.8-.6-.2-.3-.3-.7-.3-1.1,0-.7.2-1.2.7-1.6.5-.4,1.1-.6,2-.6s.4,0,.6,0c.2,0,.4,0,.6,0,.2,0,.3,0,.3,0v-.2c0-.5-.1-.8-.4-1-.3-.2-.7-.3-1.1-.3s-.8,0-1.1.2c-.3.1-.5.3-.7.4l-.6-.8c.2-.2.5-.4.9-.5.4-.2.9-.3,1.6-.3s1.4.2,1.9.6c.5.4.7.9.7,1.6v3.8c0,0,0,.2,0,.3h-1.1ZM247.1,29.8v-.7s-.1,0-.3,0c-.2,0-.3,0-.5,0-.2,0-.4,0-.6,0-.4,0-.8,0-1,.2-.2.1-.4.3-.5.5,0,.2-.1.4-.1.6,0,.3.1.6.3.8.2.2.6.3,1,.3s.6,0,.9-.2c.3-.1.5-.3.6-.5.2-.2.3-.5.3-.7ZM249.9,31.8v-8.7h1.2v3.4c.1-.2.3-.3.7-.5.3-.2.7-.3,1.3-.3s1.1.1,1.5.4c.4.3.7.7,1,1.2.2.5.3,1,.3,1.6s-.1,1.2-.4,1.7c-.3.5-.7.9-1.2,1.2-.5.3-1.1.4-1.8.4s-1,0-1.4-.1c-.4,0-.8-.2-1.1-.3ZM251.1,28.5v2.5c.1,0,.3,0,.5.1.2,0,.5,0,.8,0,.7,0,1.2-.2,1.6-.6.4-.4.6-1,.6-1.6s0-.7-.2-1.1c-.1-.3-.3-.6-.6-.8-.3-.2-.6-.3-1-.3s-.7,0-1,.3c-.3.2-.5.4-.6.7-.1.3-.2.6-.2.9ZM257.2,32v-8.9h1.2v8.9h-1.2ZM265,30.4l.7.7c0,.1-.2.2-.5.4-.2.2-.5.3-.9.5-.4.1-.8.2-1.3.2s-1.2-.1-1.7-.4c-.5-.3-.9-.7-1.1-1.2-.3-.5-.4-1.1-.4-1.7s.1-1.2.4-1.6c.3-.5.6-.9,1.1-1.2.5-.3,1-.4,1.6-.4s1.3.2,1.7.5c.4.3.8.8,1,1.3s.3,1.1.3,1.8h-4.9c0,.4.1.7.3,1,.2.3.4.5.7.7.3.2.6.2,1,.2.5,0,1,0,1.3-.3.3-.2.6-.4.7-.5ZM261,28.4h3.7c0-.5-.2-.9-.5-1.2-.3-.3-.7-.5-1.3-.5s-.7,0-1,.3c-.3.2-.5.4-.6.7-.1.3-.2.5-.2.8ZM273.5,32v-.7c-.2.3-.6.5-.9.7-.4.2-.8.2-1.2.2s-.7,0-1-.2c-.3-.1-.6-.3-.8-.6-.2-.3-.3-.7-.3-1.1,0-.7.2-1.2.7-1.6.5-.4,1.1-.6,2-.6s.4,0,.6,0c.2,0,.4,0,.6,0,.2,0,.3,0,.3,0v-.2c0-.5-.1-.8-.4-1-.3-.2-.7-.3-1.1-.3s-.8,0-1.1.2c-.3.1-.5.3-.7.4l-.6-.8c.2-.2.5-.4.9-.5.4-.2.9-.3,1.6-.3s1.4.2,1.9.6c.5.4.7.9.7,1.6v3.8c0,0,0,.2,0,.3h-1.1ZM273.5,29.8v-.7s-.1,0-.3,0c-.2,0-.3,0-.5,0-.2,0-.4,0-.6,0-.4,0-.8,0-1,.2-.2.1-.4.3-.5.5,0,.2-.1.4-.1.6,0,.3.1.6.3.8.2.2.6.3,1,.3s.6,0,.9-.2c.3-.1.5-.3.6-.5.2-.2.3-.5.3-.7ZM276.8,30v-3.2h-1.1v-1h1.1v-2h1.2v2h1.8v1h-1.8v3.1c0,.5,0,.8.2,1,.2.2.4.3.7.3s.4,0,.6-.1c.2,0,.3-.2.5-.3l.5.7c-.3.2-.5.4-.8.5-.3.1-.6.2-1,.2-.6,0-1.1-.2-1.4-.5-.3-.4-.5-.9-.5-1.7ZM283.8,32v-8.9h1.2v3.6c.1-.2.2-.3.4-.5.2-.2.4-.3.7-.4.3-.1.6-.2,1-.2.8,0,1.4.2,1.8.7.4.5.6,1.1.6,1.9v3.7h-1.2v-3.6c0-.6-.1-1-.4-1.3-.2-.3-.6-.4-1-.4s-.8.1-1.1.4c-.3.2-.5.5-.6.9-.1.4-.2.8-.2,1.2v2.9h-1.2ZM294,32.2c-.6,0-1.2-.1-1.7-.4-.5-.3-.9-.7-1.2-1.2-.3-.5-.4-1.1-.4-1.7s.1-1.2.4-1.7c.3-.5.7-.9,1.2-1.2.5-.3,1.1-.5,1.7-.5s1.2.2,1.7.5c.5.3.9.7,1.2,1.2.3.5.4,1,.4,1.7s-.1,1.1-.4,1.7c-.3.5-.7.9-1.2,1.2-.5.3-1,.4-1.7.4ZM294,31.1c.4,0,.8-.1,1.1-.3.3-.2.5-.5.7-.9.2-.3.3-.7.3-1.1s0-.7-.3-1.1c-.2-.3-.4-.6-.7-.8-.3-.2-.7-.3-1.1-.3s-.8.1-1.1.3c-.3.2-.6.5-.7.8-.2.3-.2.7-.2,1.1s0,.7.3,1.1c.2.3.4.6.7.8.3.2.7.3,1.1.3ZM298.3,31.2l.7-.8c.2.2.5.4.8.5.3.1.7.2,1.1.2s.7,0,1-.2c.3-.1.4-.3.4-.6s0-.4-.2-.5c-.1-.1-.3-.2-.5-.3-.3,0-.6-.2-1.1-.3-.3,0-.6-.2-.9-.3-.3-.1-.6-.3-.7-.6-.2-.2-.3-.6-.3-1s.1-.7.3-1c.2-.3.5-.5.9-.6.4-.1.8-.2,1.2-.2s1,0,1.4.2c.4.1.7.3,1,.6l-.7.8c-.2-.2-.4-.3-.7-.4-.3-.1-.6-.2-1-.2s-.7,0-.9.2c-.2.1-.3.3-.3.6s.2.5.5.6c.3.1.7.2,1.2.4.4,0,.7.2,1.1.4.3.1.6.3.8.6.2.2.3.6.3,1s-.1.8-.4,1c-.2.3-.6.5-.9.6-.4.1-.8.2-1.3.2-1.2,0-2.1-.3-2.6-.9ZM305.5,30v-3.2h-1.1v-1h1.1v-2h1.2v2h1.8v1h-1.8v3.1c0,.5,0,.8.2,1,.2.2.4.3.7.3s.4,0,.6-.1c.2,0,.3-.2.5-.3l.5.7c-.3.2-.5.4-.8.5-.3.1-.6.2-1,.2-.6,0-1.1-.2-1.4-.5-.3-.4-.5-.9-.5-1.7ZM311.2,34.7h-1.2v-8.5c0,0,0-.2,0-.4h1.1v.9c.1-.1.3-.2.4-.4.2-.2.4-.3.7-.4.3-.1.6-.2,1-.2.6,0,1.2.2,1.6.5.4.3.7.7.9,1.2.2.5.3,1,.3,1.6s0,1-.3,1.5c-.2.4-.4.7-.7,1-.3.3-.7.5-1,.6-.4.1-.7.2-1.1.2s-.8,0-1-.1c-.2,0-.5-.2-.7-.3v2.9ZM311.2,29.1v1.6c.1.1.3.2.6.3.3.1.6.2,1,.2s.8,0,1.1-.3c.3-.2.6-.5.7-.8.2-.3.3-.7.3-1.1s0-.8-.2-1.1c-.1-.3-.3-.6-.6-.8-.3-.2-.6-.3-1.1-.3s-.8.1-1.1.4c-.3.2-.5.6-.6,1,0,.1,0,.3,0,.5,0,.2,0,.3,0,.5ZM317.5,32v-8.9h1.2v8.9h-1.2ZM320.3,29.5v-3.7h1.2v3.6c0,.6.1,1,.4,1.3.2.3.6.4,1,.4s.8-.1,1.1-.4c.3-.2.4-.5.5-.9.1-.4.2-.8.2-1.2v-2.9h1.2v5.8c0,.1,0,.2,0,.4h-1.1v-.9c-.1.1-.3.3-.5.5-.2.2-.4.3-.7.4-.3.1-.6.2-1,.2-.8,0-1.4-.2-1.8-.7-.4-.5-.6-1.1-.6-1.9ZM327.2,31.2l.7-.8c.2.2.5.4.8.5.3.1.7.2,1.1.2s.7,0,1-.2c.3-.1.4-.3.4-.6s0-.4-.2-.5c-.1-.1-.3-.2-.5-.3-.3,0-.6-.2-1.1-.3-.3,0-.6-.2-.9-.3-.3-.1-.6-.3-.7-.6-.2-.2-.3-.6-.3-1s.1-.7.3-1c.2-.3.5-.5.9-.6.4-.1.8-.2,1.2-.2s1,0,1.4.2c.4.1.7.3,1,.6l-.7.8c-.2-.2-.4-.3-.7-.4-.3-.1-.6-.2-1-.2s-.7,0-.9.2c-.2.1-.3.3-.3.6s.2.5.5.6c.3.1.7.2,1.2.4.4,0,.7.2,1.1.4.3.1.6.3.8.6.2.2.3.6.3,1s-.1.8-.4,1c-.2.3-.6.5-.9.6-.4.1-.8.2-1.3.2-1.2,0-2.1-.3-2.6-.9ZM333.6,32v-1.5h1.5v1.5h-1.5ZM341.1,30.4l.7.8c-.3.3-.6.6-1,.8-.4.2-.9.3-1.4.3s-1.2-.1-1.7-.4c-.5-.3-.9-.7-1.1-1.2-.3-.5-.4-1.1-.4-1.7s.1-1.2.4-1.7c.3-.5.7-.9,1.1-1.2.5-.3,1.1-.5,1.7-.5s1,0,1.4.3c.4.2.7.4,1,.8l-.8.8c-.2-.2-.4-.4-.7-.5-.3-.1-.6-.2-.9-.2s-.8.1-1.1.3c-.3.2-.5.5-.7.8-.2.3-.2.7-.2,1.1s0,.7.2,1.1c.2.3.4.6.7.8.3.2.7.3,1.1.3s.7,0,1-.2c.3-.1.5-.3.7-.6ZM345.6,32.2c-.6,0-1.2-.1-1.7-.4-.5-.3-.9-.7-1.2-1.2-.3-.5-.4-1.1-.4-1.7s.1-1.2.4-1.7c.3-.5.7-.9,1.2-1.2.5-.3,1.1-.5,1.7-.5s1.2.2,1.7.5c.5.3.9.7,1.2,1.2.3.5.4,1,.4,1.7s-.1,1.1-.4,1.7c-.3.5-.7.9-1.2,1.2-.5.3-1,.4-1.7.4ZM345.6,31.1c.4,0,.8-.1,1.1-.3.3-.2.5-.5.7-.9.2-.3.3-.7.3-1.1s0-.7-.3-1.1c-.2-.3-.4-.6-.7-.8-.3-.2-.7-.3-1.1-.3s-.8.1-1.1.3c-.3.2-.6.5-.7.8-.2.3-.2.7-.2,1.1s0,.7.3,1.1c.2.3.4.6.7.8.3.2.7.3,1.1.3ZM351.4,32h-1.2v-5.8c0,0,0-.2,0-.4h1.1v.9c.1-.2.3-.3.4-.5.2-.2.4-.3.7-.4.3-.1.6-.2,1-.2s.9,0,1.2.3c.3.2.6.5.7.8.2-.3.6-.6.9-.8.4-.2.8-.3,1.3-.3.8,0,1.4.2,1.8.7.4.5.6,1.1.6,1.9v3.7h-1.2v-3.6c0-1.1-.4-1.7-1.3-1.7s-.6,0-.9.3c-.3.2-.5.4-.6.7-.2.3-.2.6-.2.9v3.4h-1.2v-3.6c0-.6-.1-1-.3-1.3-.2-.3-.6-.4-1-.4s-.8.1-1,.4c-.3.2-.4.5-.5.9-.1.4-.2.7-.2,1.1v2.9ZM361.7,32v-1.5h1.5v1.5h-1.5ZM368.9,32v-.7c-.2.3-.6.5-.9.7-.4.2-.8.2-1.2.2s-.7,0-1-.2c-.3-.1-.6-.3-.8-.6-.2-.3-.3-.7-.3-1.1,0-.7.2-1.2.7-1.6.5-.4,1.1-.6,2-.6s.4,0,.6,0c.2,0,.4,0,.6,0,.2,0,.3,0,.3,0v-.2c0-.5-.1-.8-.4-1-.3-.2-.7-.3-1.1-.3s-.8,0-1.1.2c-.3.1-.5.3-.7.4l-.6-.8c.2-.2.5-.4.9-.5.4-.2.9-.3,1.6-.3s1.4.2,1.9.6c.5.4.7.9.7,1.6v3.8c0,0,0,.2,0,.3h-1.1ZM368.8,29.8v-.7s-.1,0-.3,0c-.2,0-.3,0-.5,0-.2,0-.4,0-.6,0-.4,0-.8,0-1,.2-.2.1-.4.3-.5.5,0,.2-.1.4-.1.6,0,.3.1.6.3.8.2.2.6.3,1,.3s.6,0,.9-.2c.3-.1.5-.3.6-.5.2-.2.3-.5.3-.7ZM371.6,29.5v-3.7h1.2v3.6c0,.6.1,1,.4,1.3.2.3.6.4,1,.4s.8-.1,1.1-.4c.3-.2.4-.5.5-.9.1-.4.2-.8.2-1.2v-2.9h1.2v5.8c0,.1,0,.2,0,.4h-1.1v-.9c-.1.1-.3.3-.5.5-.2.2-.4.3-.7.4-.3.1-.6.2-1,.2-.8,0-1.4-.2-1.8-.7-.4-.5-.6-1.1-.6-1.9ZM381.3,31.8v-8.7h1.2v3.4c.1-.2.3-.3.7-.5.3-.2.7-.3,1.3-.3s1.1.1,1.5.4c.4.3.7.7,1,1.2.2.5.3,1,.3,1.6s-.1,1.2-.4,1.7c-.3.5-.7.9-1.2,1.2-.5.3-1.1.4-1.8.4s-1,0-1.4-.1c-.4,0-.8-.2-1.1-.3ZM382.4,28.5v2.5c.1,0,.3,0,.5.1.2,0,.5,0,.8,0,.7,0,1.2-.2,1.6-.6.4-.4.6-1,.6-1.6s0-.7-.2-1.1c-.1-.3-.3-.6-.6-.8-.3-.2-.6-.3-1-.3s-.7,0-1,.3c-.3.2-.5.4-.6.7-.1.3-.2.6-.2.9ZM393.5,30.4l.7.7c0,.1-.2.2-.5.4-.2.2-.5.3-.9.5-.4.1-.8.2-1.3.2s-1.2-.1-1.7-.4c-.5-.3-.9-.7-1.1-1.2-.3-.5-.4-1.1-.4-1.7s.1-1.2.4-1.6c.3-.5.6-.9,1.1-1.2.5-.3,1-.4,1.6-.4s1.3.2,1.7.5c.4.3.8.8,1,1.3.2.6.3,1.1.3,1.8h-4.9c0,.4.1.7.3,1,.2.3.4.5.7.7.3.2.6.2,1,.2.5,0,1,0,1.3-.3.3-.2.6-.4.7-.5ZM389.5,28.4h3.7c0-.5-.2-.9-.5-1.2-.3-.3-.7-.5-1.3-.5s-.7,0-1,.3c-.3.2-.5.4-.6.7-.1.3-.2.5-.2.8ZM396.2,32v-5.2h-1.1v-1h1.1v-.5c0-.6.1-1,.3-1.4.2-.4.5-.6.8-.8.3-.2.7-.3,1.1-.3s.6,0,1,.2c.3,0,.6.3.9.5l-.6.8c-.3-.3-.7-.4-1.1-.4s-.6.1-.8.3c-.2.2-.3.6-.3,1.1v.4h1.8v1h-1.8v5.2h-1.2ZM402.8,32.2c-.6,0-1.2-.1-1.7-.4-.5-.3-.9-.7-1.2-1.2-.3-.5-.4-1.1-.4-1.7s.1-1.2.4-1.7c.3-.5.7-.9,1.2-1.2.5-.3,1.1-.5,1.7-.5s1.2.2,1.7.5c.5.3.9.7,1.2,1.2.3.5.4,1,.4,1.7s-.1,1.1-.4,1.7c-.3.5-.7.9-1.2,1.2-.5.3-1,.4-1.7.4ZM402.8,31.1c.4,0,.8-.1,1.1-.3.3-.2.5-.5.7-.9.2-.3.3-.7.3-1.1s0-.7-.3-1.1c-.2-.3-.4-.6-.7-.8-.3-.2-.7-.3-1.1-.3s-.8.1-1.1.3c-.3.2-.6.5-.7.8-.2.3-.2.7-.2,1.1s0,.7.3,1.1c.2.3.4.6.7.8.3.2.7.3,1.1.3ZM408.7,32h-1.2v-5.8c0,0,0-.2,0-.4h1.1v1c.1-.1.3-.3.4-.5.2-.2.4-.3.7-.4.3-.1.6-.2,1-.2s.3,0,.4,0c.1,0,.2,0,.3,0l-.3,1.1c-.2,0-.4,0-.6,0s-.6,0-.9.3c-.3.2-.5.4-.6.7-.2.3-.2.6-.2.9v3.3ZM417,30.4l.7.7c0,.1-.2.2-.5.4-.2.2-.5.3-.9.5-.4.1-.8.2-1.3.2s-1.2-.1-1.7-.4c-.5-.3-.9-.7-1.1-1.2-.3-.5-.4-1.1-.4-1.7s.1-1.2.4-1.6c.3-.5.6-.9,1.1-1.2.5-.3,1-.4,1.6-.4s1.3.2,1.7.5c.4.3.8.8,1,1.3.2.6.3,1.1.3,1.8h-4.9c0,.4.1.7.3,1,.2.3.4.5.7.7.3.2.6.2,1,.2.5,0,1,0,1.3-.3.3-.2.6-.4.7-.5ZM412.9,28.4h3.7c0-.5-.2-.9-.5-1.2-.3-.3-.7-.5-1.3-.5s-.7,0-1,.3c-.3.2-.5.4-.6.7-.1.3-.2.5-.2.8ZM422.8,32h-1.2v-5.8c0,0,0-.2,0-.4h1.1v.9c.1-.2.3-.3.4-.5.2-.2.4-.3.7-.4.3-.1.6-.2,1-.2s.9,0,1.2.3c.3.2.6.5.7.8.2-.3.6-.6.9-.8.4-.2.8-.3,1.3-.3.8,0,1.4.2,1.8.7.4.5.6,1.1.6,1.9v3.7h-1.2v-3.6c0-1.1-.4-1.7-1.3-1.7s-.6,0-.9.3c-.3.2-.5.4-.6.7-.2.3-.2.6-.2.9v3.4h-1.2v-3.6c0-.6-.1-1-.3-1.3-.2-.3-.6-.4-1-.4s-.8.1-1,.4c-.3.2-.4.5-.5.9-.1.4-.2.7-.2,1.1v2.9ZM436.8,32v-.7c-.2.3-.6.5-.9.7-.4.2-.8.2-1.2.2s-.7,0-1-.2c-.3-.1-.6-.3-.8-.6-.2-.3-.3-.7-.3-1.1,0-.7.2-1.2.7-1.6.5-.4,1.1-.6,2-.6s.4,0,.6,0c.2,0,.4,0,.6,0,.2,0,.3,0,.3,0v-.2c0-.5-.1-.8-.4-1-.3-.2-.7-.3-1.1-.3s-.8,0-1.1.2c-.3.1-.5.3-.7.4l-.6-.8c.2-.2.5-.4.9-.5.4-.2.9-.3,1.6-.3s1.4.2,1.9.6c.5.4.7.9.7,1.6v3.8c0,0,0,.2,0,.3h-1.1ZM436.8,29.8v-.7s-.1,0-.3,0c-.2,0-.3,0-.5,0-.2,0-.4,0-.6,0-.4,0-.8,0-1,.2-.2.1-.4.3-.5.5,0,.2-.1.4-.1.6,0,.3.1.6.3.8.2.2.6.3,1,.3s.6,0,.9-.2c.3-.1.5-.3.6-.5.2-.2.3-.5.3-.7ZM439.5,32v-8.9h1.2v5.2l2.6-2.5h1.4l-2.3,2.3,2.7,3.9h-1.4l-2.1-3.1-.9.8v2.3h-1.2ZM446,24.7v-1.3h1.3v1.3h-1.3ZM446.1,32v-6.2h1.2v6.2h-1.2ZM450.2,32h-1.2v-5.8c0,0,0-.2,0-.4h1.1v.9c.1-.2.3-.3.5-.5.2-.2.4-.3.7-.4.3-.1.6-.2,1-.2.8,0,1.4.2,1.8.7.4.5.6,1.1.6,1.9v3.7h-1.2v-3.6c0-.6-.1-1-.4-1.3-.2-.3-.6-.4-1-.4s-.8.1-1.1.4c-.3.2-.5.5-.6.9-.1.4-.2.8-.2,1.2v2.9ZM456.5,34.1l.6-.9c.2.1.5.3.7.4.3.1.7.2,1.1.2s1-.2,1.3-.5c.3-.3.4-.8.4-1.3v-.8c0,0-.2.2-.4.3-.2.1-.4.2-.6.3-.2.1-.6.2-.9.2-.6,0-1.1-.1-1.5-.4-.4-.3-.7-.6-1-1.1-.2-.5-.3-1-.3-1.6s.1-1.2.4-1.7c.3-.5.7-.9,1.2-1.2.5-.3,1.1-.4,1.8-.4s1,0,1.4.1c.4,0,.8.2,1.1.3v5.9c0,.9-.3,1.6-.8,2.1-.5.5-1.3.7-2.2.7s-1.1,0-1.5-.2c-.4-.1-.7-.3-.9-.5ZM460.7,29.5v-2.6c0,0-.2,0-.4-.1-.2,0-.5,0-.9,0s-.8,0-1.2.3c-.3.2-.6.4-.8.8-.2.3-.3.7-.3,1.2s0,.7.2,1c.1.3.3.6.6.7.3.2.6.3,1,.3s.7,0,1-.2c.3-.2.4-.3.6-.6.1-.2.2-.5.2-.7ZM469.9,32v-.7c-.2.3-.6.5-.9.7-.4.2-.8.2-1.2.2s-.7,0-1-.2c-.3-.1-.6-.3-.8-.6-.2-.3-.3-.7-.3-1.1,0-.7.2-1.2.7-1.6.5-.4,1.1-.6,2-.6s.4,0,.6,0c.2,0,.4,0,.6,0,.2,0,.3,0,.3,0v-.2c0-.5-.1-.8-.4-1-.3-.2-.7-.3-1.1-.3s-.8,0-1.1.2c-.3.1-.5.3-.7.4l-.6-.8c.2-.2.5-.4.9-.5.4-.2.9-.3,1.6-.3s1.4.2,1.9.6c.5.4.7.9.7,1.6v3.8c0,0,0,.2,0,.3h-1.1ZM469.8,29.8v-.7s-.1,0-.3,0c-.2,0-.3,0-.5,0-.2,0-.4,0-.6,0-.4,0-.8,0-1,.2-.2.1-.4.3-.5.5,0,.2-.1.4-.1.6,0,.3.1.6.3.8.2.2.6.3,1,.3s.6,0,.9-.2c.3-.1.5-.3.6-.5.2-.2.3-.5.3-.7ZM479.5,32v-.8c-.1,0-.2.2-.4.3-.2.2-.4.3-.7.4-.3.1-.6.2-1,.2s-1-.1-1.4-.4c-.4-.3-.7-.6-1-1.1s-.4-1-.4-1.7,0-1.1.3-1.5c.2-.4.5-.8.8-1,.3-.3.7-.5,1-.6.4-.1.7-.2,1.1-.2s.6,0,.9.1c.2,0,.5.2.7.3v-2.9h1.2v8.5c0,.1,0,.2,0,.4h-1.2ZM479.5,29.4v-2.2c-.2-.1-.4-.2-.6-.3-.2,0-.6-.1-.9-.1-.6,0-1.1.2-1.5.6-.4.4-.6,1-.6,1.7s0,.8.2,1.1c.1.3.3.6.6.8.3.2.6.3,1,.3s.8,0,1-.3c.3-.2.4-.4.6-.7.1-.3.2-.5.2-.8ZM487.3,30.4l.7.7c0,.1-.2.2-.5.4-.2.2-.5.3-.9.5-.4.1-.8.2-1.3.2s-1.2-.1-1.7-.4c-.5-.3-.9-.7-1.1-1.2-.3-.5-.4-1.1-.4-1.7s.1-1.2.4-1.6c.3-.5.6-.9,1.1-1.2.5-.3,1-.4,1.6-.4s1.3.2,1.7.5c.4.3.8.8,1,1.3.2.6.3,1.1.3,1.8h-4.9c0,.4.1.7.3,1,.2.3.4.5.7.7.3.2.6.2,1,.2.5,0,1,0,1.3-.3.3-.2.6-.4.7-.5ZM483.3,28.4h3.7c0-.5-.2-.9-.5-1.2-.3-.3-.7-.5-1.3-.5s-.7,0-1,.3c-.3.2-.5.4-.6.7-.1.3-.2.5-.2.8ZM494.2,30.4l.7.8c-.3.3-.6.6-1,.8-.4.2-.9.3-1.4.3s-1.2-.1-1.7-.4c-.5-.3-.9-.7-1.1-1.2-.3-.5-.4-1.1-.4-1.7s.1-1.2.4-1.7c.3-.5.7-.9,1.1-1.2.5-.3,1.1-.5,1.7-.5s1,0,1.4.3c.4.2.7.4,1,.8l-.8.8c-.2-.2-.4-.4-.7-.5-.3-.1-.6-.2-.9-.2s-.8.1-1.1.3c-.3.2-.5.5-.7.8-.2.3-.2.7-.2,1.1s0,.7.2,1.1c.2.3.4.6.7.8.3.2.7.3,1.1.3s.7,0,1-.2c.3-.1.5-.3.7-.6ZM496.1,24.7v-1.3h1.3v1.3h-1.3ZM496.1,32v-6.2h1.2v6.2h-1.2ZM498.7,31.2l.7-.8c.2.2.5.4.8.5.3.1.7.2,1.1.2s.7,0,1-.2c.3-.1.4-.3.4-.6s0-.4-.2-.5c-.1-.1-.3-.2-.5-.3-.3,0-.6-.2-1.1-.3-.3,0-.6-.2-.9-.3-.3-.1-.6-.3-.7-.6-.2-.2-.3-.6-.3-1s.1-.7.3-1c.2-.3.5-.5.9-.6.4-.1.8-.2,1.2-.2s1,0,1.4.2c.4.1.7.3,1,.6l-.7.8c-.2-.2-.4-.3-.7-.4-.3-.1-.6-.2-1-.2s-.7,0-.9.2c-.2.1-.3.3-.3.6s.2.5.5.6c.3.1.7.2,1.2.4.4,0,.7.2,1.1.4.3.1.6.3.8.6.2.2.3.6.3,1s-.1.8-.4,1c-.2.3-.6.5-.9.6-.4.1-.8.2-1.3.2-1.2,0-2.1-.3-2.6-.9ZM505.3,24.7v-1.3h1.3v1.3h-1.3ZM505.4,32v-6.2h1.2v6.2h-1.2ZM511.3,32.2c-.6,0-1.2-.1-1.7-.4-.5-.3-.9-.7-1.2-1.2-.3-.5-.4-1.1-.4-1.7s.1-1.2.4-1.7c.3-.5.7-.9,1.2-1.2.5-.3,1.1-.5,1.7-.5s1.2.2,1.7.5c.5.3.9.7,1.2,1.2.3.5.4,1,.4,1.7s-.1,1.1-.4,1.7c-.3.5-.7.9-1.2,1.2-.5.3-1,.4-1.7.4ZM511.3,31.1c.4,0,.8-.1,1.1-.3.3-.2.5-.5.7-.9.2-.3.3-.7.3-1.1s0-.7-.3-1.1c-.2-.3-.4-.6-.7-.8-.3-.2-.7-.3-1.1-.3s-.8.1-1.1.3c-.3.2-.6.5-.7.8-.2.3-.2.7-.2,1.1s0,.7.3,1.1c.2.3.4.6.7.8.3.2.7.3,1.1.3ZM517.1,32h-1.2v-5.8c0,0,0-.2,0-.4h1.1v.9c.1-.2.3-.3.5-.5.2-.2.4-.3.7-.4.3-.1.6-.2,1-.2.8,0,1.4.2,1.8.7.4.5.6,1.1.6,1.9v3.7h-1.2v-3.6c0-.6-.1-1-.4-1.3-.2-.3-.6-.4-1-.4s-.8.1-1.1.4c-.3.2-.5.5-.6.9-.1.4-.2.8-.2,1.2v2.9ZM523.3,32v-1.5h1.5v1.5h-1.5Z"/>
  <path class="cls-3" d="M1261.2,16.7l5.4-5.5,2,2-5.4,5.6,5.2,5.4-2,2-5.2-5.4-5.4,5.5-2-2,5.4-5.6-5.4-5.6,2-2,5.4,5.5Z"/>
</svg>