<svg width="76" height="16" viewBox="0 0 76 16" fill="none" xmlns="http://www.w3.org/2000/svg">
<path d="M56.5431 8.78737C56.5431 10.7655 55.309 11.7071 53.5354 11.7071C51.7617 11.7071 50.6047 10.7655 50.6047 8.78737V0.893945C50.6047 0.548416 50.5469 0.375647 50.1808 0.260471C49.8918 0.164491 49.4101 0.0877075 48.7733 0.0877075C48.1365 0.0877075 47.6548 0.164491 47.3658 0.260471C46.9997 0.375647 46.9419 0.548416 46.9419 0.893945V8.90351C46.9419 12.8598 49.4284 15.0107 53.5354 15.0107C57.6423 15.0107 60.1673 12.8598 60.1673 8.90351V0.893945C60.1673 0.548416 60.1095 0.375647 59.7435 0.260471C59.4544 0.164491 58.992 0.0877075 58.3552 0.0877075C57.7184 0.0877075 57.256 0.164491 56.967 0.260471C56.6009 0.375647 56.5431 0.548416 56.5431 0.893945V8.78737Z" fill="white"/>
<path d="M38.4414 14.9329C39.0773 14.9329 39.5599 14.8562 39.849 14.7602C40.2151 14.645 40.2729 14.4722 40.2729 14.1267V3.54391H44.0898C44.4559 3.54391 44.5908 3.40954 44.6871 3.1216C44.7642 2.89124 44.8413 2.46893 44.8413 1.93048C44.8413 1.39203 44.7642 0.969716 44.6871 0.739363C44.5908 0.451422 44.4559 0.317047 44.0898 0.317047H32.7931C32.427 0.317047 32.2921 0.451422 32.1958 0.739363C32.1187 0.969716 32.0416 1.39203 32.0416 1.93048C32.0416 2.46893 32.1187 2.89124 32.1958 3.1216C32.2921 3.40954 32.427 3.54391 32.7931 3.54391H36.61V14.1267C36.61 14.4722 36.6678 14.645 37.0339 14.7602C37.3229 14.8562 37.8046 14.9329 38.4414 14.9329Z" fill="white"/>
<path d="M7.98171 0.0290527C3.29673 0.0290527 0 3.19832 0 7.51936C0 11.8404 3.29673 15.0097 7.98171 15.0097C12.6667 15.0097 15.9634 11.8404 15.9634 7.51936C15.9634 3.19832 12.6667 0.0290527 7.98171 0.0290527ZM7.98171 11.707C5.553 11.707 3.81793 9.99757 3.81793 7.52032C3.81793 5.04307 5.553 3.33366 7.98171 3.33366C10.4104 3.33366 12.1455 5.04307 12.1455 7.52032C12.1455 9.99757 10.4104 11.707 7.98171 11.707Z" fill="white"/>
<path d="M24.9845 0.317047H18.9508C18.6618 0.317047 18.4691 0.489812 18.4691 0.796949V14.1267C18.4691 14.4722 18.5269 14.645 18.893 14.7602C19.182 14.8562 19.6637 14.9329 20.3005 14.9329C20.9373 14.9329 21.419 14.8562 21.708 14.7602C22.0741 14.645 22.1319 14.4722 22.1319 14.1267V10.4391H25.024C28.7832 10.4391 30.788 8.4034 30.788 5.40689C30.788 2.41038 28.7832 0.317047 24.9855 0.317047H24.9845ZM24.9267 7.38504H22.131V3.42873H24.9267C26.2379 3.42873 27.0664 4.1006 27.0664 5.40689C27.0664 6.71318 26.2379 7.38504 24.9267 7.38504Z" fill="white"/>
<path d="M62.5388 13.3003C64.4087 14.4531 66.8374 15.0097 68.9974 15.0097C72.7758 15.0097 75.456 13.1468 75.456 10.0543C75.456 7.6922 73.7402 6.46269 70.5398 5.90601L69.8847 5.79083C67.4367 5.36852 66.7806 5.06138 66.7806 4.38856C66.7806 3.60152 67.6872 3.15905 69.2479 3.15905C70.5012 3.15905 71.7151 3.42779 72.9877 4.00367C73.296 4.13805 73.4887 4.15724 73.7199 3.92689C74.1053 3.54297 74.665 2.56301 74.8577 1.87195C74.954 1.52642 74.8384 1.31527 74.5687 1.18089C73.0263 0.41305 71.1178 0.0281677 69.1901 0.0281677C65.296 0.0281677 62.9049 1.75678 62.8471 4.61891C62.7893 7.17295 64.5436 8.46005 67.6669 8.93995L68.4184 9.05512C70.7893 9.41985 71.4646 9.70779 71.4646 10.4574C71.4646 11.3212 70.5388 11.8597 68.901 11.8597C67.3972 11.8597 65.8741 11.3606 64.1197 10.4382C63.7922 10.2654 63.638 10.2846 63.3875 10.5342C63.0022 10.9181 62.4617 11.9173 62.269 12.6083C62.1727 12.9538 62.2883 13.1458 62.5388 13.2994V13.3003Z" fill="white"/>
</svg>
