<svg width="970" height="250" viewBox="0 0 970 250" fill="none" xmlns="http://www.w3.org/2000/svg">
  <g>
    <path d="M40.3,148.3l-1.1.6v-4.8c0-2.3.9-4.8,2.7-4.8s2.6,2.5,2.6,4.8v4.8l-1.1-.6v-4.2c0-1.9-.8-3.7-1.6-3.7s-1.6,1.8-1.6,3.7v4.2ZM53.5,153.6c0-.2-.2-.5-.4-.7,0,0,0,0,0,0,0,0-.1-.2-.2-.2,0,0,0,0,0,0,0,0-.2-.1-.3-.2l-3.2-1.9v-1.7c0-.9-.7-1.6-1.6-1.6h-.5c-.1,0-.2,0-.3,0,0,0,0,0,0,0,0,0-.1,0-.2,0,0,0,0,0,0,0,0,0-.1,0-.2,0,0,0,0,0,0,0,0,0-.1,0-.2.2,0,0,0,0,0,0,0,0-.1.1-.2.2,0,0,0,0,0,0,0,0,0,.1,0,.2,0,0,0,0,0,0,0,.2-.1.4-.1.6v.7l1.1.6v-1.3c0-.3.2-.5.5-.5h.5c.3,0,.5.2.5.5v2.3l.3.2,3.5,2.1c0,0,.1,0,.2.1,0,0,0,0,.1.1.1.2.2.4.2.6v.2l-.5-.2-4.2-1.2h-4.2l-.8,6.7,2.5,2c.2.1.3.3.3.6h0c0,.1-3.6-.8-3.6-.8,0,0-.2,0-.3,0l-3.6.9h0c0-.4.1-.6.3-.7l2.6-2-.8-6.7h-4.2l-4.8,1.4v-.2c0-.2,0-.5.2-.6,0,0,0,0,.1-.1,0,0,.1,0,.2-.1l3.5-2.1.3-.2v-2.3c0-.3.2-.5.5-.5h.5c.3,0,.5.2.5.5v1.3l1.1-.6v-.7c0-.2,0-.4-.1-.6,0,0,0,0,0,0,0,0,0-.1,0-.2,0,0,0,0,0,0,0,0-.1-.1-.2-.2,0,0,0,0,0,0,0,0-.1-.1-.2-.2,0,0,0,0,0,0,0,0-.1,0-.2,0,0,0,0,0,0,0,0,0-.1,0-.2,0,0,0,0,0,0,0,0,0-.2,0-.3,0h-.5c-.9,0-1.6.7-1.6,1.6v1.7l-3.2,1.9c-.1,0-.2.1-.3.2,0,0,0,0,0,0,0,0-.2.2-.2.2,0,0,0,0,0,0-.3.4-.5.8-.5,1.3v.9c0,.2,0,.3.2.4,0,0,.2.1.3.1s.1,0,.2,0l5.2-1.6h3.2l.6,5.1-2.1,1.6c-.4.3-.7.8-.7,1.4v.8c0,.2,0,.3.2.4.1.1.3.1.5,0l3.6-.9h.5c0-.1.5,0,.5,0l3.6.9s0,0,.1,0c.1,0,.2,0,.3-.1.1-.1.2-.3.2-.4v-.8c0-.6-.2-1.1-.7-1.4l-2.1-1.6.6-5.1h3.2l5.2,1.6s.1,0,.2,0c.1,0,.2,0,.3-.1.1,0,.2-.3.2-.4v-.9c0-.2,0-.4-.1-.6h0Z" fill="#fff" stroke-width="0"/>
    <path d="M25,151.5c0,9.2,7.3,16.6,16.4,16.9v-1.1c-8.5-.3-15.3-7.3-15.3-15.9s6.8-15.6,15.3-15.9v-1.1c-9.1.3-16.4,7.8-16.4,16.9Z" fill="#fff" stroke-width="0"/>
    <path d="M42.5,134.6v1.1c8.5.3,15.3,7.3,15.3,15.9s-6.8,15.6-15.3,15.9v1.1c9.1-.3,16.4-7.8,16.4-16.9s-7.3-16.6-16.4-16.9Z" fill="#fff" stroke-width="0"/>
  </g>
  <path d="M77.9,147.6l-.9-2.7h-5.1l-.9,2.7h-2.2l4.4-12.8h2.6l4.3,12.8h-2.2ZM72.6,143h3.9l-1.9-5.8-1.9,5.8ZM90.4,147.6h-2.3l-1.8-6.2-1.7,6.2h-2.4l-2.6-9.4h2.1l1.7,6.8,1.9-6.8h1.9l2,6.8,1.7-6.8h2l-2.6,9.4ZM98.8,146.3c-.5.8-1.4,1.5-2.8,1.5s-3-1.1-3-2.8,1.4-2.5,2.9-2.7l2-.3c.8,0,.9-.4.9-1,0-.8-.5-1.5-1.6-1.5s-1.7.6-1.8,1.5h-2.2c0-1.6,1.4-3.1,3.9-3.1s3.8,1.4,3.8,3.5v4.5c0,.6,0,1.2.2,1.6h-2.2c0-.4,0-.8,0-1.2h0ZM98.8,142.7c-.3.3-.7.4-1.2.5l-.9.2c-1,.2-1.5.6-1.5,1.4s.5,1.3,1.5,1.3,2.2-.8,2.2-2v-1.5ZM104.7,142.6v5h-2.1v-9.4h2.1v1.4h0c.4-1,1.2-1.4,2-1.4h1v2h-.9c-1.5,0-2.2.7-2.2,2.4ZM114.8,146.3c-.5.9-1.6,1.5-2.8,1.5-2.2,0-3.9-1.9-3.9-4.9s1.6-4.9,3.9-4.9,2.3.6,2.8,1.5h0v-5.2h2.1v13.3h-2.1v-1.3h0ZM110.3,143.3c0,1.8.8,2.8,2.3,2.8s2.3-1.1,2.3-2.7v-1c0-1.7-.9-2.7-2.3-2.7s-2.3,1-2.3,2.9v.7ZM118.7,143.6v-1.9h4.7v1.9h-4.7ZM134.6,147.6h-2.3l-1.8-6.2-1.7,6.2h-2.4l-2.6-9.4h2.1l1.7,6.8,1.9-6.8h1.9l2,6.8,1.7-6.8h2l-2.6,9.4ZM137.6,135.4c0-.8.6-1.3,1.3-1.3s1.3.6,1.3,1.3-.6,1.3-1.3,1.3-1.3-.6-1.3-1.3ZM137.9,138.2h2.1v9.4h-2.1v-9.4ZM143.9,141.8v5.8h-2.1v-9.4h2.1v1.1h0c.6-.8,1.4-1.3,2.6-1.3,1.9,0,3,1.4,3,3.5v6.1h-2.1v-5.9c0-1.1-.5-1.9-1.7-1.9s-1.9.9-1.9,2ZM153.5,141.8v5.8h-2.1v-9.4h2.1v1.1h0c.6-.8,1.4-1.3,2.6-1.3,1.9,0,3,1.4,3,3.5v6.1h-2.1v-5.9c0-1.1-.5-1.9-1.7-1.9s-1.9.9-1.9,2ZM160.7,135.4c0-.8.6-1.3,1.3-1.3s1.3.6,1.3,1.3-.6,1.3-1.3,1.3-1.3-.6-1.3-1.3ZM160.9,138.2h2.1v9.4h-2.1v-9.4ZM166.9,141.8v5.8h-2.1v-9.4h2.1v1.1h0c.6-.8,1.4-1.3,2.6-1.3,1.9,0,3,1.4,3,3.5v6.1h-2.1v-5.9c0-1.1-.5-1.9-1.7-1.9s-1.9.9-1.9,2ZM174.1,147.9h2.3c.2.9.7,1.5,2,1.5s2-.9,2-2.3v-1.4h0c-.5.9-1.5,1.5-2.7,1.5-2.2,0-3.8-1.7-3.8-4.6s1.5-4.6,3.8-4.6,2.1.6,2.7,1.5h0v-1.3h2.1v9c0,2.2-1.3,3.7-4.3,3.7s-3.9-1.4-4.2-2.9ZM176.1,142.9c0,1.8.8,2.6,2.2,2.6s2.2-1.1,2.2-2.6v-.6c0-1.6-.9-2.6-2.2-2.6s-2.2.9-2.2,2.6v.6ZM79.5,151.8v1.8h-4.1v10.9h-2.2v-10.9h-4.1v-1.8h10.4ZM81.1,159.6v5h-2.1v-9.4h2.1v1.4h0c.4-1,1.2-1.4,2-1.4h1v2h-.9c-1.5,0-2.2.7-2.2,2.4ZM90.3,163.3c-.5.8-1.4,1.5-2.8,1.5s-3-1.1-3-2.8,1.4-2.5,2.9-2.7l2-.3c.8,0,.9-.4.9-1,0-.8-.5-1.5-1.6-1.5s-1.7.6-1.8,1.5h-2.2c0-1.6,1.4-3.1,3.9-3.1s3.8,1.4,3.8,3.5v4.5c0,.6,0,1.2.2,1.6h-2.2c0-.4,0-.8,0-1.2h0ZM90.3,159.7c-.3.3-.7.4-1.2.5l-.9.2c-1,.2-1.5.6-1.5,1.4s.5,1.3,1.5,1.3,2.2-.8,2.2-2v-1.5ZM92.9,155.2h2.2l2.5,7.1,2.5-7.1h2.2l-3.4,9.4h-2.6l-3.4-9.4ZM111.1,161.8c-.4,1.6-1.9,3-4.1,3s-4.5-1.9-4.5-4.9,1.8-4.9,4.4-4.9,4.3,1.9,4.3,4.9v.5h-6.6c0,1.7,1,2.7,2.4,2.7s1.7-.5,2-1.3h2.1ZM106.8,156.7c-1.2,0-2.1.8-2.2,2.3h4.4c-.1-1.4-.9-2.3-2.2-2.3ZM115,164.6c-1.7,0-2.7-1-2.7-2.5v-10.8h2.1v10.6c0,.6.2,1,.9,1h.6v1.7h-1ZM120.3,151.8h2.2v12.8h-2.2v-12.8ZM126.4,158.8v5.8h-2.1v-9.4h2.1v1.1h0c.6-.8,1.4-1.3,2.6-1.3,1.9,0,3,1.4,3,3.5v6.1h-2.1v-5.9c0-1.1-.5-1.9-1.7-1.9s-1.9.9-1.9,2ZM133.4,161.9h2.1c.1.8.7,1.3,1.9,1.3s1.7-.5,1.7-1.3-.3-1-1.3-1.1l-1.6-.2c-1.9-.2-2.6-1.2-2.6-2.6s1.5-3,3.7-3,3.6,1.4,3.7,2.8h-2.1c-.1-.7-.6-1.2-1.6-1.2s-1.7.5-1.7,1.3.3,1,1.4,1.1l1.6.2c1.8.2,2.6,1.1,2.6,2.6s-1.7,3.1-3.8,3.1-3.8-1.3-4-2.9ZM148.1,161v-5.8h2.1v9.4h-2.1v-1.1h0c-.6.8-1.4,1.3-2.6,1.3-1.8,0-3-1.4-3-3.5v-6.1h2.1v5.9c0,1.1.5,1.9,1.7,1.9s1.9-.9,1.9-2ZM154.2,159.6v5h-2.1v-9.4h2.1v1.4h0c.5-1,1.2-1.4,2-1.4h1v2h-.9c-1.5,0-2.2.7-2.2,2.4ZM163.4,163.3c-.5.8-1.4,1.5-2.8,1.5s-3-1.1-3-2.8,1.4-2.5,2.9-2.7l2-.3c.8,0,.9-.4.9-1,0-.8-.5-1.5-1.6-1.5s-1.7.6-1.8,1.5h-2.2c0-1.6,1.4-3.1,3.9-3.1s3.8,1.4,3.8,3.5v4.5c0,.6,0,1.2.2,1.6h-2.2c0-.4,0-.8,0-1.2h0ZM163.4,159.7c-.3.3-.7.4-1.2.5l-.9.2c-1,.2-1.5.6-1.5,1.4s.5,1.3,1.5,1.3,2.2-.8,2.2-2v-1.5ZM169.3,158.8v5.8h-2.1v-9.4h2.1v1.1h0c.6-.8,1.4-1.3,2.6-1.3,1.9,0,3,1.4,3,3.5v6.1h-2.1v-5.9c0-1.1-.5-1.9-1.7-1.9s-1.9.9-1.9,2ZM176.3,159.9c0-3,1.7-4.9,4.4-4.9s3.8,1.4,4.1,3.3h-2.1c-.2-1-.9-1.6-1.9-1.6s-2.2,1-2.2,2.8v.8c0,1.8.9,2.8,2.2,2.8s1.8-.7,2-1.6h2.1c-.3,1.8-1.8,3.3-4.1,3.3s-4.4-1.9-4.4-4.9ZM194.1,161.8c-.4,1.6-1.9,3-4.1,3s-4.5-1.9-4.5-4.9,1.8-4.9,4.4-4.9,4.3,1.9,4.3,4.9v.5h-6.6c0,1.7,1,2.7,2.4,2.7s1.7-.5,2-1.3h2.1ZM189.9,156.7c-1.2,0-2.1.8-2.2,2.3h4.4c-.1-1.4-.9-2.3-2.2-2.3Z" fill="#fff" stroke-width="0"/>
  <g>
    <path d="M214.9,151.5c0,9.1,7.3,16.6,16.4,16.9v-1.1c-8.8-.3-15.6-7.6-15.3-16.4.3-8.3,7-15.1,15.3-15.3v-1.1c-9.1.3-16.4,7.8-16.4,16.9Z" fill="#fff" stroke-width="0"/>
    <path d="M232.3,134.6v1.1c8.8.3,15.6,7.6,15.3,16.4-.3,8.4-7,15.1-15.3,15.3v1.1c9.3-.3,16.7-8.1,16.4-17.5-.3-8.9-7.5-16.1-16.4-16.4Z" fill="#fff" stroke-width="0"/>
    <path d="M223.8,155.2h3.7v1.1h-3.7v-1.1ZM228.6,153.1h-4.8v1.1h4.8v-1.1ZM237.1,155.2c0,.6.5,1.1,1.1,1.1s1.1-.5,1.1-1.1-.5-1.1-1.1-1.1-1.1.5-1.1,1.1ZM241.3,149.9h-19v7.9c0,.3.2.5.5.5h18c.3,0,.5-.2.5-.5v-6.9h1.1v6.9c0,.9-.7,1.6-1.6,1.6h-18c-.9,0-1.6-.7-1.6-1.6v-9h20.1v-1.1h-20.1v-2.6c0-.9.7-1.6,1.6-1.6h18c.9,0,1.6.7,1.6,1.6v4.8h-1.1ZM241.3,146.7v-1.6c0-.3-.2-.5-.5-.5h-18c-.3,0-.5.2-.5.5v1.6h19Z" fill="#fff" stroke-width="0"/>
  </g>
  <path d="M267.8,149.5l-.9-2.7h-5.1l-.9,2.7h-2.2l4.4-12.8h2.6l4.3,12.8h-2.2ZM262.4,144.9h3.9l-1.9-5.8-1.9,5.8ZM276.4,145.9v-5.8h2.1v9.4h-2.1v-1.1h0c-.6.8-1.4,1.3-2.6,1.3-1.8,0-3-1.4-3-3.5v-6.1h2.1v5.9c0,1.1.5,1.9,1.7,1.9s1.9-.9,1.9-2ZM279.8,146.8h2.1c.1.8.7,1.3,1.9,1.3s1.7-.5,1.7-1.3-.3-1-1.3-1.1l-1.6-.2c-1.9-.2-2.6-1.2-2.6-2.6s1.5-3,3.7-3,3.6,1.4,3.7,2.8h-2.1c-.1-.7-.6-1.2-1.6-1.2s-1.7.5-1.7,1.3.3,1,1.4,1.1l1.6.2c1.8.2,2.6,1.1,2.6,2.6s-1.7,3.1-3.8,3.1-3.8-1.3-4-2.9ZM289.7,146.8v-5h-1.8v-1.6h1.8v-3.4h2.1v3.4h2.1v1.6h-2.1v4.8c0,.8.4,1.2,1.2,1.2h.9v1.7h-1.2c-2,0-3-.9-3-2.7ZM297.6,144.5v5h-2.1v-9.4h2.1v1.4h0c.4-1,1.2-1.4,2-1.4h1v2h-.9c-1.5,0-2.2.7-2.2,2.4ZM306.8,148.3c-.5.8-1.4,1.5-2.8,1.5s-3-1.1-3-2.8,1.4-2.5,2.9-2.7l2-.3c.8,0,.9-.4.9-1,0-.8-.5-1.5-1.6-1.5s-1.7.6-1.8,1.5h-2.2c0-1.6,1.4-3.1,3.9-3.1s3.8,1.4,3.8,3.5v4.5c0,.6,0,1.2.2,1.6h-2.2c0-.4,0-.8,0-1.2h0ZM306.8,144.7c-.3.3-.7.4-1.2.5l-.9.2c-1,.2-1.5.6-1.5,1.4s.5,1.3,1.5,1.3,2.2-.8,2.2-2v-1.5ZM313.2,149.5c-1.7,0-2.7-1-2.7-2.5v-10.8h2.1v10.6c0,.6.2,1,.9,1h.6v1.7h-1ZM315.1,137.4c0-.8.6-1.3,1.3-1.3s1.3.6,1.3,1.3-.6,1.3-1.3,1.3-1.3-.6-1.3-1.3ZM315.4,140.1h2.1v9.4h-2.1v-9.4ZM324.5,148.3c-.5.8-1.4,1.5-2.8,1.5s-3-1.1-3-2.8,1.4-2.5,2.9-2.7l2-.3c.8,0,.9-.4.9-1,0-.8-.5-1.5-1.6-1.5s-1.7.6-1.8,1.5h-2.2c0-1.6,1.4-3.1,3.9-3.1s3.8,1.4,3.8,3.5v4.5c0,.6,0,1.2.2,1.6h-2.2c0-.4,0-.8,0-1.2h0ZM324.6,144.7c-.3.3-.7.4-1.2.5l-.9.2c-1,.2-1.5.6-1.5,1.4s.5,1.3,1.5,1.3,2.2-.8,2.2-2v-1.5ZM331.5,136.7h5.3c2.8,0,4.5,1.6,4.5,4.1s-1.7,4.2-4.5,4.2h-3.1v4.5h-2.2v-12.8ZM336.4,143.2c1.6,0,2.6-.6,2.6-2.3s-1-2.3-2.6-2.3h-2.7v4.6h2.7ZM341.6,144.8c0-3,1.8-4.9,4.4-4.9s4.4,1.9,4.4,4.9-1.8,4.9-4.4,4.9-4.4-1.9-4.4-4.9ZM348.3,144.4c0-1.8-.9-2.8-2.3-2.8s-2.3,1-2.3,2.8v.8c0,1.8.9,2.8,2.3,2.8s2.3-1,2.3-2.8v-.8ZM351.2,146.8h2.1c.1.8.7,1.3,1.9,1.3s1.7-.5,1.7-1.3-.3-1-1.3-1.1l-1.6-.2c-1.9-.2-2.6-1.2-2.6-2.6s1.5-3,3.7-3,3.6,1.4,3.7,2.8h-2.1c-.1-.7-.6-1.2-1.6-1.2s-1.7.5-1.7,1.3.3,1,1.4,1.1l1.6.2c1.8.2,2.6,1.1,2.6,2.6s-1.7,3.1-3.8,3.1-3.8-1.3-4-2.9ZM361.1,146.8v-5h-1.8v-1.6h1.8v-3.4h2.1v3.4h2.1v1.6h-2.1v4.8c0,.8.4,1.2,1.2,1.2h.9v1.7h-1.2c-2,0-3-.9-3-2.7ZM379.3,136.7v1.8h-4.1v10.9h-2.2v-10.9h-4.1v-1.8h10.4ZM380.9,144.5v5h-2.1v-9.4h2.1v1.4h0c.5-1,1.2-1.4,2-1.4h1v2h-.9c-1.5,0-2.2.7-2.2,2.4ZM390.1,148.3c-.5.8-1.4,1.5-2.8,1.5s-3-1.1-3-2.8,1.4-2.5,2.9-2.7l2-.3c.8,0,.9-.4.9-1,0-.8-.5-1.5-1.6-1.5s-1.7.6-1.8,1.5h-2.2c0-1.6,1.4-3.1,3.9-3.1s3.8,1.4,3.8,3.5v4.5c0,.6,0,1.2.2,1.6h-2.2c0-.4,0-.8,0-1.2h0ZM390.2,144.7c-.3.3-.7.4-1.2.5l-.9.2c-1,.2-1.5.6-1.5,1.4s.5,1.3,1.5,1.3,2.2-.8,2.2-2v-1.5ZM392.8,140.1h2.2l2.5,7.1,2.5-7.1h2.2l-3.4,9.4h-2.6l-3.4-9.4ZM410.9,146.7c-.4,1.6-1.9,3-4.1,3s-4.5-1.9-4.5-4.9,1.8-4.9,4.4-4.9,4.3,1.9,4.3,4.9v.5h-6.6c0,1.7,1,2.7,2.4,2.7s1.7-.5,2-1.3h2.1ZM406.7,141.6c-1.2,0-2.1.8-2.2,2.3h4.4c-.1-1.4-.9-2.3-2.2-2.3ZM414.9,149.5c-1.7,0-2.7-1-2.7-2.5v-10.8h2.1v10.6c0,.6.2,1,.9,1h.6v1.7h-1ZM259.7,153.7h5.3c2.8,0,4.5,1.6,4.5,4.1s-1.7,4.2-4.5,4.2h-3.1v4.5h-2.2v-12.8ZM264.6,160.2c1.6,0,2.6-.6,2.6-2.3s-1-2.3-2.6-2.3h-2.7v4.6h2.7ZM273.1,166.5c-1.7,0-2.7-1-2.7-2.5v-10.8h2.1v10.6c0,.6.2,1,.9,1h.6v1.7h-1ZM280.6,165.3c-.5.8-1.4,1.5-2.8,1.5s-3-1.1-3-2.8,1.4-2.5,2.9-2.7l2-.3c.8,0,.9-.4.9-1,0-.8-.5-1.5-1.6-1.5s-1.7.6-1.8,1.5h-2.2c0-1.6,1.4-3.1,3.9-3.1s3.8,1.4,3.8,3.5v4.5c0,.6,0,1.2.2,1.6h-2.2c0-.4,0-.8,0-1.2h0ZM280.6,161.7c-.3.3-.7.4-1.2.5l-.9.2c-1,.2-1.5.6-1.5,1.4s.5,1.3,1.5,1.3,2.2-.8,2.2-2v-1.5ZM285.3,163.8v-5h-1.8v-1.6h1.8v-3.4h2.1v3.4h2.1v1.6h-2.1v4.8c0,.8.4,1.2,1.2,1.2h.9v1.7h-1.2c-2,0-3-.9-3-2.7ZM290.7,154.4c0-.8.6-1.3,1.3-1.3s1.3.6,1.3,1.3-.6,1.3-1.3,1.3-1.3-.6-1.3-1.3ZM291,157.1h2.1v9.4h-2.1v-9.4ZM297,160.7v5.8h-2.1v-9.4h2.1v1.1h0c.6-.8,1.4-1.3,2.6-1.3,1.9,0,3,1.4,3,3.5v6.1h-2.1v-5.9c0-1.1-.5-1.9-1.7-1.9s-1.9.9-1.9,2ZM310.2,162.9v-5.8h2.1v9.4h-2.1v-1.1h0c-.6.8-1.4,1.3-2.6,1.3-1.8,0-3-1.4-3-3.5v-6.1h2.1v5.9c0,1.1.5,1.9,1.7,1.9s1.9-.9,1.9-2ZM316.2,160.6v5.9h-2.1v-9.4h2.1v1.1h0c.5-.7,1.3-1.3,2.5-1.3s2,.6,2.5,1.5h0c.6-.8,1.5-1.5,2.9-1.5s3,1.4,3,3.4v6.2h-2.1v-5.9c0-1.1-.5-1.9-1.5-1.9s-1.8.9-1.8,1.9v5.9h-2.1v-5.9c0-1.1-.5-1.9-1.5-1.9s-1.8.9-1.8,1.9ZM338,164.4l-3.8-7.7v9.7h-2.1v-12.8h2.8l3.6,7.3,3.6-7.3h2.7v12.8h-2.1v-9.8l-3.8,7.7h-.9ZM351.8,165.3c-.5.8-1.4,1.5-2.8,1.5s-3-1.1-3-2.8,1.4-2.5,2.9-2.7l2-.3c.8,0,.9-.4.9-1,0-.8-.5-1.5-1.6-1.5s-1.7.6-1.8,1.5h-2.2c0-1.6,1.4-3.1,3.9-3.1s3.8,1.4,3.8,3.5v4.5c0,.6,0,1.2.2,1.6h-2.2c0-.4,0-.8,0-1.2h0ZM351.8,161.7c-.3.3-.7.4-1.2.5l-.9.2c-1,.2-1.5.6-1.5,1.4s.5,1.3,1.5,1.3,2.2-.8,2.2-2v-1.5ZM355.1,163.8h2.1c.1.8.7,1.3,1.9,1.3s1.7-.5,1.7-1.3-.3-1-1.3-1.1l-1.6-.2c-1.9-.2-2.6-1.2-2.6-2.6s1.5-3,3.7-3,3.6,1.4,3.7,2.8h-2.1c-.1-.7-.6-1.2-1.6-1.2s-1.7.5-1.7,1.3.3,1,1.4,1.1l1.6.2c1.8.2,2.6,1.1,2.6,2.6s-1.7,3.1-3.8,3.1-3.8-1.3-4-2.9ZM365,163.8v-5h-1.8v-1.6h1.8v-3.4h2.1v3.4h2.1v1.6h-2.1v4.8c0,.8.4,1.2,1.2,1.2h.9v1.7h-1.2c-2,0-3-.9-3-2.7ZM378.6,163.7c-.5,1.6-1.9,3-4.1,3s-4.5-1.9-4.5-4.9,1.8-4.9,4.4-4.9,4.3,1.9,4.3,4.9v.5h-6.6c0,1.7,1,2.7,2.4,2.7s1.7-.5,2-1.3h2.1ZM374.4,158.6c-1.2,0-2.1.8-2.2,2.3h4.4c-.1-1.4-.9-2.3-2.2-2.3ZM382.1,161.5v5h-2.1v-9.4h2.1v1.4h0c.5-1,1.2-1.4,2-1.4h1v2h-.9c-1.5,0-2.2.7-2.2,2.4ZM385.6,161.8c0-3,1.7-4.9,4.4-4.9s3.8,1.4,4.1,3.3h-2.1c-.2-1-.9-1.6-1.9-1.6s-2.2,1-2.2,2.8v.8c0,1.8.9,2.8,2.2,2.8s1.8-.7,2-1.6h2.1c-.3,1.8-1.8,3.3-4.1,3.3s-4.4-1.9-4.4-4.9ZM400.5,165.3c-.5.8-1.4,1.5-2.8,1.5s-3-1.1-3-2.8,1.4-2.5,2.9-2.7l2-.3c.8,0,.9-.4.9-1,0-.8-.5-1.5-1.6-1.5s-1.7.6-1.8,1.5h-2.2c0-1.6,1.4-3.1,3.9-3.1s3.8,1.4,3.8,3.5v4.5c0,.6,0,1.2.2,1.6h-2.2c0-.4,0-.8,0-1.2h0ZM400.5,161.7c-.3.3-.7.4-1.2.5l-.9.2c-1,.2-1.5.6-1.5,1.4s.5,1.3,1.5,1.3,2.2-.8,2.2-2v-1.5ZM406.5,161.5v5h-2.1v-9.4h2.1v1.4h0c.4-1,1.2-1.4,2-1.4h1v2h-.9c-1.5,0-2.2.7-2.2,2.4ZM416.6,165.2c-.5.9-1.6,1.5-2.8,1.5-2.2,0-3.9-1.9-3.9-4.9s1.6-4.9,3.9-4.9,2.3.6,2.8,1.5h0v-5.2h2.1v13.3h-2.1v-1.3h0ZM412.1,162.2c0,1.8.8,2.8,2.3,2.8s2.3-1.1,2.3-2.7v-1c0-1.7-.9-2.7-2.3-2.7s-2.3,1-2.3,2.9v.7Z" fill="#fff" stroke-width="0"/>
  <g>
    <path d="M439.7,151.5c0,9.1,7.3,16.6,16.4,16.9v-1.1c-8.8-.3-15.6-7.6-15.3-16.4.3-8.4,7-15.1,15.3-15.3v-1.1c-9.1.3-16.4,7.8-16.4,16.9Z" fill="#fff" stroke-width="0"/>
    <path d="M457.2,134.6v1.1c8.8.3,15.6,7.6,15.3,16.4-.3,8.3-7,15.1-15.3,15.3v1.1c9.3-.3,16.7-8.1,16.4-17.5-.3-8.9-7.5-16.1-16.4-16.4Z" fill="#fff" stroke-width="0"/>
    <path d="M464.6,147.8h-4.8c0-1.5-1.2-2.6-2.6-2.6s-2.6,1.2-2.6,2.6h-4.7c-.3,0-.5-.2-.6-.4,0-.3.1-.6.4-.6,0,0,0,0,0,0h2.1c0,0,.2,0,.3,0l8-5,2.6,5.1h1.2l-3.1-6.1c-.1-.3-.4-.4-.7-.2,0,0,0,0,0,0l-8.3,5.2h-2c-.9,0-1.6.7-1.6,1.6v11.7c0,.9.7,1.6,1.6,1.6h14.8c.3,0,.5-.2.5-.5v-11.6c0-.3-.2-.5-.5-.5h0ZM455.6,147.8c0-.9.7-1.6,1.6-1.6s1.6.7,1.6,1.6h-3.2ZM464,159.4h-14.3c-.3,0-.5-.2-.5-.5v-10.2c.2,0,.4.1.6.1h14.2v2.6h-2.9c-.9.6-1.4,1.6-1.3,2.6,0,1,.4,2,1.3,2.6h.1c0,0,2.8,0,2.8,0v2.6h0ZM461.5,155.7c-.9-.8-.9-2.2,0-3.1,0,0,0,0,0,0h2.5v3.2h-2.5Z" fill="#fff" stroke-width="0"/>
  </g>
  <path d="M494.2,136.7v1.8h-4.1v10.9h-2.2v-10.9h-4.1v-1.8h10.4ZM495.8,144.5v5h-2.1v-9.4h2.1v1.4h0c.5-1,1.2-1.4,2-1.4h1v2h-.9c-1.5,0-2.2.7-2.2,2.4ZM505,148.3c-.5.8-1.4,1.5-2.8,1.5s-3-1.1-3-2.8,1.4-2.5,2.9-2.7l2-.3c.8,0,.9-.4.9-1,0-.8-.5-1.5-1.6-1.5s-1.7.6-1.8,1.5h-2.2c0-1.6,1.4-3.1,3.9-3.1s3.8,1.4,3.8,3.5v4.5c0,.6,0,1.2.2,1.6h-2.2c0-.4,0-.8,0-1.2h0ZM505,144.7c-.3.3-.7.4-1.2.5l-.9.2c-1,.2-1.5.6-1.5,1.4s.5,1.3,1.5,1.3,2.2-.8,2.2-2v-1.5ZM507.6,140.1h2.2l2.5,7.1,2.5-7.1h2.2l-3.4,9.4h-2.6l-3.4-9.4ZM525.8,146.7c-.5,1.6-1.9,3-4.1,3s-4.5-1.9-4.5-4.9,1.8-4.9,4.4-4.9,4.3,1.9,4.3,4.9v.5h-6.6c0,1.7,1,2.7,2.4,2.7s1.7-.5,2-1.3h2.1ZM521.5,141.6c-1.2,0-2.1.8-2.2,2.3h4.4c-.1-1.4-.9-2.3-2.2-2.3ZM529.7,149.5c-1.7,0-2.7-1-2.7-2.5v-10.8h2.1v10.6c0,.6.2,1,.9,1h.6v1.7h-1ZM540,146.7c-.5,1.6-1.9,3-4.1,3s-4.5-1.9-4.5-4.9,1.8-4.9,4.4-4.9,4.3,1.9,4.3,4.9v.5h-6.6c0,1.7,1,2.7,2.4,2.7s1.7-.5,2-1.3h2.1ZM535.8,141.6c-1.2,0-2.1.8-2.2,2.3h4.4c-.1-1.4-.9-2.3-2.2-2.3ZM540.1,140.1h2.3l2.2,3.1,2.1-3.1h2.3l-3.1,4.6,3.4,4.8h-2.4l-2.3-3.4-2.3,3.4h-2.3l3.3-4.8-3.2-4.5ZM492.3,159.2v1.8h-5.5v5.5h-2.2v-12.8h8.3v1.8h-6v3.6h5.5ZM493.3,161.8c0-3,1.8-4.9,4.4-4.9s4.4,1.9,4.4,4.9-1.8,4.9-4.4,4.9-4.4-1.9-4.4-4.9ZM500,161.4c0-1.8-.9-2.8-2.3-2.8s-2.3,1-2.3,2.8v.8c0,1.8.9,2.8,2.3,2.8s2.3-1,2.3-2.8v-.8ZM505.6,161.5v5h-2.1v-9.4h2.1v1.4h0c.4-1,1.2-1.4,2-1.4h1v2h-.9c-1.5,0-2.2.7-2.2,2.4ZM517.7,163.7c-.5,1.6-1.9,3-4.1,3s-4.5-1.9-4.5-4.9,1.8-4.9,4.4-4.9,4.3,1.9,4.3,4.9v.5h-6.6c0,1.7,1,2.7,2.4,2.7s1.7-.5,2-1.3h2.1ZM513.5,158.6c-1.2,0-2.1.8-2.2,2.3h4.4c-.1-1.4-.9-2.3-2.2-2.3ZM518.8,154.4c0-.8.6-1.3,1.3-1.3s1.3.6,1.3,1.3-.6,1.3-1.3,1.3-1.3-.6-1.3-1.3ZM519.1,157.1h2.1v9.4h-2.1v-9.4ZM522.7,166.9h2.3c.2.9.7,1.5,2,1.5s2-.9,2-2.3v-1.4h0c-.5.9-1.5,1.5-2.7,1.5-2.2,0-3.8-1.7-3.8-4.6s1.5-4.6,3.8-4.6,2.1.6,2.7,1.5h0v-1.3h2.1v9c0,2.2-1.3,3.7-4.3,3.7s-3.9-1.4-4.2-2.9ZM524.6,161.8c0,1.8.8,2.6,2.2,2.6s2.2-1.1,2.2-2.6v-.6c0-1.6-.9-2.6-2.2-2.6s-2.2.9-2.2,2.6v.6ZM535,160.7v5.8h-2.1v-9.4h2.1v1.1h0c.6-.8,1.4-1.3,2.6-1.3,1.9,0,3,1.4,3,3.5v6.1h-2.1v-5.9c0-1.1-.5-1.9-1.7-1.9s-1.9.9-1.9,2ZM551.1,153.5c3.1,0,5,1.7,5.4,4.2h-2.3c-.2-1.2-1.2-2.3-3.1-2.3s-3.7,1.7-3.7,4.4v.8c0,2.7,1.5,4.4,3.7,4.4s2.9-1.1,3.1-2.3h2.3c-.5,2.4-2.3,4.2-5.4,4.2s-6-2.6-6-6.6,2.4-6.6,6-6.6ZM563,165.3c-.5.8-1.4,1.5-2.8,1.5s-3-1.1-3-2.8,1.4-2.5,2.9-2.7l2-.3c.8,0,.9-.4.9-1,0-.8-.5-1.5-1.6-1.5s-1.7.6-1.8,1.5h-2.2c0-1.6,1.4-3.1,3.9-3.1s3.8,1.4,3.8,3.5v4.5c0,.6,0,1.2.2,1.6h-2.2c0-.4,0-.8,0-1.2h0ZM563,161.7c-.3.3-.7.4-1.2.5l-.9.2c-1,.2-1.5.6-1.5,1.4s.5,1.3,1.5,1.3,2.2-.8,2.2-2v-1.5ZM566.3,163.8h2.1c.1.8.7,1.3,1.9,1.3s1.7-.5,1.7-1.3-.3-1-1.3-1.1l-1.6-.2c-1.9-.2-2.6-1.2-2.6-2.6s1.5-3,3.7-3,3.6,1.4,3.7,2.8h-2.1c-.1-.7-.6-1.2-1.6-1.2s-1.7.5-1.7,1.3.3,1,1.4,1.1l1.6.2c1.8.2,2.6,1.1,2.6,2.6s-1.7,3.1-3.8,3.1-3.8-1.3-4-2.9ZM577.5,160.7v5.8h-2.1v-13.3h2.1v5.1h0c.6-.8,1.4-1.3,2.6-1.3,1.9,0,3,1.4,3,3.5v6.1h-2.1v-5.9c0-1.1-.5-1.9-1.7-1.9s-1.9.9-1.9,2Z" fill="#fff" stroke-width="0"/>
  <g>
    <path d="M604.6,151.5c0,9.2,7.3,16.6,16.4,16.9v-1.1c-8.5-.3-15.3-7.3-15.3-15.9s6.8-15.6,15.3-15.9v-1.1c-9.1.3-16.4,7.8-16.4,16.9Z" fill="#fff" stroke-width="0"/>
    <path d="M638.4,151.5c0,9.2-7.3,16.6-16.4,16.9v-1.1c8.5-.3,15.3-7.3,15.3-15.9s-6.8-15.6-15.3-15.9v-1.1c9.1.3,16.4,7.8,16.4,16.9Z" fill="#fff" stroke-width="0"/>
    <path d="M616.7,155h.2c.2,0,.3,0,.4,0,0,0,.1,0,.2.1,0,0,0,.1,0,.2,0,.1,0,.2-.1.3,0,0-.3.1-.5.1h-.2v-.8h0ZM616.1,157.5h.6v-1.2h.2c.3,0,.5,0,.7,0,.1,0,.3-.2.4-.3,0-.2.1-.3.1-.5s0-.3,0-.4c0-.1,0-.2-.2-.3,0,0-.1-.1-.2-.2,0,0-.2,0-.3,0-.1,0-.3,0-.5,0h-.8v3.1Z" fill="#fff" stroke-width="0"/>
    <path d="M629.4,143.2c-.2,0-.4.2-.4.4v16.8c0,.7-.6,1.2-1.2,1.2h-12.4c-.6,0-1-.5-1-1v-18.1c0-.6.5-1,1-1h11c.6,0,1,.5,1,1v16c0,.6-.5,1-1,1h-10.1c-.2,0-.4.2-.4.4s.2.4.4.4h10.1c1.1,0,1.9-.9,1.9-1.9v-16c0-1.1-.9-1.9-1.9-1.9h-11c-1.1,0-1.9.9-1.9,1.9v18.1c0,1.1.9,1.9,1.9,1.9h12.4c1.2,0,2.1-1,2.1-2.1v-16.8c0-.2-.2-.4-.4-.4" fill="#fff" stroke-width="0"/>
    <path d="M622,157.1c-.1,0-.2,0-.3-.1,0,0,0-.2,0-.3h-.6c0,0,0,.2,0,.2,0,0,0,.2.1.3,0,0,.1.2.2.2,0,0,.2.1.3.2.1,0,.2,0,.3,0,.2,0,.4,0,.6-.2.2-.2.4-.4.4-.8s0-.2,0-.3c0-.1,0-.2-.2-.3,0,0-.2-.2-.3-.2,0,0-.2,0-.4-.2-.2,0-.3-.1-.3-.2,0,0-.1-.1-.1-.2s0-.2,0-.2c0,0,.1,0,.2,0s.2,0,.3.1c0,0,0,.1,0,.2h.6c0-.1,0-.2,0-.3,0,0,0-.2-.2-.3,0,0-.2-.2-.3-.2-.1,0-.2,0-.4,0s-.3,0-.4.1c-.1,0-.3.2-.3.3,0,.1-.1.3-.1.5s0,.2,0,.4c0,.1.1.2.2.3,0,0,.2.1.4.2.3,0,.4.2.4.2,0,0,.1,0,.2.1,0,0,0,.1,0,.2,0,.1,0,.2-.1.3,0,0-.2.1-.3.1" fill="#fff" stroke-width="0"/>
    <path d="M624.4,157.1c-.1,0-.2,0-.3-.1,0,0,0-.2,0-.3h-.6c0,0,0,.2,0,.2,0,0,0,.2.1.3,0,0,.1.2.2.2,0,0,.2.1.3.2.1,0,.2,0,.3,0,.2,0,.4,0,.6-.2.2-.2.4-.4.4-.8s0-.2,0-.3c0-.1,0-.2-.2-.3,0,0-.2-.2-.3-.2,0,0-.2,0-.4-.2-.2,0-.3-.1-.3-.2,0,0-.1-.1-.1-.2s0-.2,0-.2c0,0,.1,0,.2,0s.2,0,.3.1c0,0,0,.1,0,.2h.6c0-.1,0-.2,0-.3,0,0,0-.2-.2-.3,0,0-.2-.2-.3-.2-.1,0-.2,0-.4,0s-.3,0-.4.1c-.1,0-.3.2-.3.3,0,.1-.1.3-.1.5s0,.2,0,.4c0,.1.1.2.2.3,0,0,.2.1.4.2.3,0,.4.2.4.2,0,0,.1,0,.2.1,0,0,0,.1,0,.2,0,.1,0,.2-.1.3s-.2.1-.3.1" fill="#fff" stroke-width="0"/>
    <path d="M622.7,150.7c.2-.4.4-.8.6-1.3.5-.1.9-.3,1.2-.6-.4.8-1,1.5-1.8,1.8M617.6,148.8c.3.2.8.4,1.2.6.2.5.4.9.6,1.3-.8-.4-1.4-1-1.8-1.8M619.4,143.8c-.2.4-.4.8-.6,1.3-.5.1-.9.3-1.2.6.4-.8,1-1.5,1.8-1.8M624.5,145.6c-.3-.2-.8-.4-1.2-.6-.2-.5-.4-.9-.6-1.3.8.4,1.4,1,1.8,1.8M623.6,147.5h1.2c-.2.4-.6.8-1.3,1.1,0-.3.1-.7.1-1.1M621.4,149v-1.5h1.6c0,.5,0,.9-.2,1.3-.4,0-.9.2-1.4.2M621.4,151v-1.3c.4,0,.8,0,1.1-.1-.3.7-.7,1.2-1.1,1.4ZM620.7,149.7v1.3c-.5-.2-.9-.7-1.1-1.4.4,0,.7.1,1.1.1ZM619.1,147.5h1.6v1.5c-.5,0-1,0-1.4-.2,0-.4-.2-.8-.2-1.3M618.5,147.5c0,.4,0,.7.1,1.1-.7-.3-1.2-.7-1.3-1.1h1.2,0ZM618.5,146.9h-1.2c.2-.4.6-.8,1.3-1.1,0,.3-.1.7-.1,1.1M620.7,145.4v1.5h-1.6c0-.5,0-.9.2-1.3.4,0,.9-.2,1.4-.2M620.7,143.5v1.3c-.4,0-.8,0-1.1.1.3-.7.7-1.2,1.1-1.4ZM621.4,144.7v-1.3c.5.2.9.7,1.1,1.4-.4,0-.7-.1-1.1-.1ZM622.9,146.9h-1.6v-1.5c.5,0,1,0,1.4.2,0,.4.2.8.2,1.3M623.6,146.9c0-.4,0-.7-.1-1.1.7.3,1.2.7,1.3,1.1h-1.2,0ZM621,142.7c-2.5,0-4.5,2-4.5,4.5s2,4.5,4.5,4.5,4.5-2,4.5-4.5-2-4.5-4.5-4.5Z" fill="#fff" stroke-width="0"/>
    <path d="M619.4,155.3l.3.9h-.7l.3-.9h0ZM617.8,157.5h.6l.3-.8h1.1l.3.8h.6l-1.3-3.1h-.4l-1.3,3.1h0Z" fill="#fff" stroke-width="0"/>
  </g>
  <path d="M649.4,136.7h5.3c2.8,0,4.5,1.6,4.5,4.1s-1.7,4.2-4.5,4.2h-3.1v4.5h-2.2v-12.8ZM654.3,143.2c1.6,0,2.6-.6,2.6-2.3s-1-2.3-2.6-2.3h-2.7v4.6h2.7ZM665.3,148.3c-.5.8-1.4,1.5-2.8,1.5s-3-1.1-3-2.8,1.4-2.5,2.9-2.7l2-.3c.8,0,.9-.4.9-1,0-.8-.5-1.5-1.6-1.5s-1.7.6-1.8,1.5h-2.2c0-1.6,1.4-3.1,3.9-3.1s3.8,1.4,3.8,3.5v4.5c0,.6,0,1.2.2,1.6h-2.2c0-.4,0-.8,0-1.2h0ZM665.3,144.7c-.3.3-.7.4-1.2.5l-.9.2c-1,.2-1.5.6-1.5,1.4s.5,1.3,1.5,1.3,2.2-.8,2.2-2v-1.5ZM668.6,146.8h2.1c.1.8.7,1.3,1.9,1.3s1.7-.5,1.7-1.3-.3-1-1.3-1.1l-1.6-.2c-1.9-.2-2.6-1.2-2.6-2.6s1.5-3,3.7-3,3.6,1.4,3.7,2.8h-2.1c-.1-.7-.6-1.2-1.6-1.2s-1.7.5-1.7,1.3.3,1,1.4,1.1l1.6.2c1.8.2,2.6,1.1,2.6,2.6s-1.7,3.1-3.8,3.1-3.8-1.3-4-2.9ZM677.1,146.8h2.1c.1.8.7,1.3,1.9,1.3s1.7-.5,1.7-1.3-.3-1-1.3-1.1l-1.6-.2c-1.9-.2-2.6-1.2-2.6-2.6s1.5-3,3.7-3,3.6,1.4,3.7,2.8h-2.1c-.1-.7-.6-1.2-1.6-1.2s-1.7.5-1.7,1.3.3,1,1.4,1.1l1.6.2c1.8.2,2.6,1.1,2.6,2.6s-1.7,3.1-3.8,3.1-3.8-1.3-4-2.9ZM688.4,148.2h0v4.3h-2.1v-12.4h2.1v1.3h0c.5-.9,1.6-1.5,2.8-1.5,2.3,0,3.9,1.9,3.9,4.9s-1.6,4.9-3.9,4.9-2.2-.6-2.8-1.5ZM688.3,145.3c0,1.7.9,2.7,2.3,2.7s2.3-1,2.3-2.8v-.7c0-1.8-.8-2.9-2.3-2.9s-2.3,1.1-2.3,2.7v1ZM695.8,144.8c0-3,1.8-4.9,4.4-4.9s4.4,1.9,4.4,4.9-1.8,4.9-4.4,4.9-4.4-1.9-4.4-4.9ZM702.5,144.4c0-1.8-.9-2.8-2.3-2.8s-2.3,1-2.3,2.8v.8c0,1.8.9,2.8,2.3,2.8s2.3-1,2.3-2.8v-.8ZM708.1,144.5v5h-2.1v-9.4h2.1v1.4h0c.5-1,1.2-1.4,2-1.4h1v2h-.9c-1.5,0-2.2.7-2.2,2.4ZM713.3,146.8v-5h-1.8v-1.6h1.8v-3.4h2.1v3.4h2.1v1.6h-2.1v4.8c0,.8.4,1.2,1.2,1.2h.9v1.7h-1.2c-2,0-3-.9-3-2.7ZM648.8,163.8h2.1c.1.8.7,1.3,1.9,1.3s1.7-.5,1.7-1.3-.3-1-1.3-1.1l-1.6-.2c-1.9-.2-2.6-1.2-2.6-2.6s1.5-3,3.7-3,3.6,1.4,3.7,2.8h-2.1c-.1-.7-.6-1.2-1.6-1.2s-1.7.5-1.7,1.3.3,1,1.4,1.1l1.6.2c1.8.2,2.6,1.1,2.6,2.6s-1.7,3.1-3.8,3.1-3.8-1.3-4-2.9ZM666,163.7c-.4,1.6-1.9,3-4.1,3s-4.5-1.9-4.5-4.9,1.8-4.9,4.4-4.9,4.3,1.9,4.3,4.9v.5h-6.6c0,1.7,1,2.7,2.4,2.7s1.7-.5,2-1.3h2.1ZM661.8,158.6c-1.2,0-2.1.8-2.2,2.3h4.4c-.1-1.4-.9-2.3-2.2-2.3ZM669.5,161.5v5h-2.1v-9.4h2.1v1.4h0c.4-1,1.2-1.4,2-1.4h1v2h-.9c-1.5,0-2.2.7-2.2,2.4ZM672.8,157.1h2.2l2.5,7.1,2.5-7.1h2.2l-3.4,9.4h-2.6l-3.4-9.4ZM682.7,154.4c0-.8.6-1.3,1.3-1.3s1.3.6,1.3,1.3-.6,1.3-1.3,1.3-1.3-.6-1.3-1.3ZM683,157.1h2.1v9.4h-2.1v-9.4ZM686.4,161.8c0-3,1.7-4.9,4.4-4.9s3.8,1.4,4.1,3.3h-2.1c-.2-1-.9-1.6-1.9-1.6s-2.2,1-2.2,2.8v.8c0,1.8.9,2.8,2.2,2.8s1.8-.7,2-1.6h2.1c-.3,1.8-1.8,3.3-4.1,3.3s-4.4-1.9-4.4-4.9ZM704.2,163.7c-.5,1.6-1.9,3-4.1,3s-4.5-1.9-4.5-4.9,1.8-4.9,4.4-4.9,4.3,1.9,4.3,4.9v.5h-6.6c0,1.7,1,2.7,2.4,2.7s1.7-.5,2-1.3h2.1ZM700,158.6c-1.2,0-2.1.8-2.2,2.3h4.4c-.1-1.4-.9-2.3-2.2-2.3ZM705,163.8h2.1c.1.8.7,1.3,1.9,1.3s1.7-.5,1.7-1.3-.3-1-1.3-1.1l-1.6-.2c-1.9-.2-2.6-1.2-2.6-2.6s1.5-3,3.7-3,3.6,1.4,3.7,2.8h-2.1c-.1-.7-.6-1.2-1.6-1.2s-1.7.5-1.7,1.3.3,1,1.4,1.1l1.6.2c1.8.2,2.6,1.1,2.6,2.6s-1.7,3.1-3.8,3.1-3.8-1.3-4-2.9Z" fill="#fff" stroke-width="0"/>
</svg>