<svg fill="none" height="27" viewBox="0 0 345 27" width="345" xmlns="http://www.w3.org/2000/svg"><g fill="#fff"><path d="m9.486 1.1876h7.5516l8.7792 24.8124h-7.1052l-1.5996-5.1336h-8.2956l-1.6368 5.1336h-6.8076zm6.2868 14.88-2.7528-9.114-2.8644 9.114zm24.7476-9.114h-7.626v-5.766h21.8364v5.766h-7.5516v19.0464h-6.6588zm27.9997 19.6416c-1.86 0-3.5836-.3224-5.1708-.9672-1.5624-.6696-2.9264-1.5748-4.092-2.7156-1.1408-1.1656-2.0336-2.542-2.6784-4.1292-.6448-1.612-.9672-3.3604-.9672-5.2452s.3224-3.6208.9672-5.208c.6448-1.612 1.5376-2.9884 2.6784-4.1292 1.1656-1.1656 2.5296-2.0708 4.092-2.7156 1.5872-.644803 3.3108-.967203 5.1708-.967203s3.5836.3224 5.1708.967203c1.5872.6448 2.9512 1.55 4.092 2.7156 1.1408 1.1408 2.0336 2.5172 2.6784 4.1292.6448 1.5872.9672 3.3232.9672 5.208s-.3224 3.6332-.9672 5.2452c-.6448 1.5872-1.5376 2.9636-2.6784 4.1292-1.1408 1.1408-2.5048 2.046-4.092 2.7156-1.5872.6448-3.3108.9672-5.1708.9672zm0-6.1752c.9672 0 1.8228-.1736 2.5668-.5208.7688-.372 1.4136-.868 1.9344-1.488s.9176-1.3516 1.1904-2.1948.4092-1.736.4092-2.6784-.1364-1.8352-.4092-2.6784-.6696-1.5748-1.1904-2.1948-1.1656-1.1036-1.9344-1.4508c-.744-.372-1.5996-.558-2.5668-.558s-1.8352.186-2.604.558c-.744.3472-1.3764.8308-1.8972 1.4508s-.9176 1.3516-1.1904 2.1948-.4092 1.736-.4092 2.6784.1364 1.8352.4092 2.6784.6696 1.5748 1.1904 2.1948 1.1532 1.116 1.8972 1.488c.7688.3472 1.6368.5208 2.604.5208zm16.4319-19.2324h10.1184c1.3392 0 2.542.186 3.6084.558 1.0912.3472 2.0212.868 2.7902 1.5624.769.6696 1.364 1.5252 1.785 2.5668.422 1.0168.633 2.1948.633 3.534 0 1.2648-.223 2.418-.67 3.4596-.421 1.0168-1.017 1.8972-1.785 2.6412-.744.7192-1.6496 1.2772-2.716 1.674-1.0416.372-2.1948.558-3.4596.558h-3.8688v8.2584h-6.4356zm9.5604 11.3832c.8928 0 1.5996-.2852 2.1204-.8556s.7812-1.302.7812-2.1948c0-.9424-.248-1.6988-.744-2.2692s-1.2276-.8556-2.1948-.8556h-3.0876v6.1752zm18.6306-11.3832h10.118c1.339 0 2.542.186 3.608.558 1.092.3472 2.022.868 2.79 1.5624.769.6696 1.364 1.5252 1.786 2.5668.422 1.0168.632 2.1948.632 3.534 0 1.2648-.223 2.418-.669 3.4596-.422 1.0168-1.017 1.8972-1.786 2.6412-.744.7192-1.649 1.2772-2.715 1.674-1.042.372-2.195.558-3.46.558h-3.869v8.2584h-6.435zm9.56 11.3832c.893 0 1.6-.2852 2.12-.8556.521-.5704.782-1.302.782-2.1948 0-.9424-.248-1.6988-.744-2.2692s-1.228-.8556-2.195-.8556h-3.088v6.1752zm12.635-11.3832h17.856v5.6916h-11.271v3.8316h9.262v5.3568h-9.262v4.2408h12.052v5.6916h-18.637zm22.051 0h10.268c1.339 0 2.542.1736 3.608.5208 1.091.3472 2.021.868 2.79 1.5624.769.6696 1.364 1.5128 1.786 2.5296.421 1.0168.632 2.1948.632 3.534 0 1.6368-.36 3.0628-1.079 4.278-.719 1.1904-1.674 2.1452-2.864 2.8644l5.319 9.5232h-7.068l-4.203-8.4444h-2.753v8.4444h-6.436zm9.635 11.1972c.868 0 1.575-.2604 2.121-.7812.545-.5456.818-1.2648.818-2.1576 0-.9424-.26-1.6864-.781-2.232s-1.253-.8184-2.195-.8184h-3.162v5.9892zm13.724-11.1972h17.298v5.766h-10.713v4.7988h8.295v5.4312h-8.295v8.8164h-6.585zm31.268 25.4076c-1.86 0-3.583-.3224-5.171-.9672-1.562-.6696-2.926-1.5748-4.092-2.7156-1.14-1.1656-2.033-2.542-2.678-4.1292-.645-1.612-.967-3.3604-.967-5.2452s.322-3.6208.967-5.208c.645-1.612 1.538-2.9884 2.678-4.1292 1.166-1.1656 2.53-2.0708 4.092-2.7156 1.588-.644803 3.311-.967203 5.171-.967203s3.584.3224 5.171.967203c1.587.6448 2.951 1.55 4.092 2.7156 1.141 1.1408 2.034 2.5172 2.678 4.1292.645 1.5872.968 3.3232.968 5.208s-.323 3.6332-.968 5.2452c-.644 1.5872-1.537 2.9636-2.678 4.1292-1.141 1.1408-2.505 2.046-4.092 2.7156-1.587.6448-3.311.9672-5.171.9672zm0-6.1752c.967 0 1.823-.1736 2.567-.5208.769-.372 1.414-.868 1.934-1.488.521-.62.918-1.3516 1.191-2.1948s.409-1.736.409-2.6784-.136-1.8352-.409-2.6784-.67-1.5748-1.191-2.1948c-.52-.62-1.165-1.1036-1.934-1.4508-.744-.372-1.6-.558-2.567-.558s-1.835.186-2.604.558c-.744.3472-1.376.8308-1.897 1.4508s-.918 1.3516-1.19 2.1948c-.273.8432-.41 1.736-.41 2.6784s.137 1.8352.41 2.6784c.272.8432.669 1.5748 1.19 2.1948s1.153 1.116 1.897 1.488c.769.3472 1.637.5208 2.604.5208zm16.395-19.2324h10.267c1.339 0 2.542.1736 3.609.5208 1.091.3472 2.021.868 2.79 1.5624.768.6696 1.364 1.5128 1.785 2.5296.422 1.0168.633 2.1948.633 3.534 0 1.6368-.36 3.0628-1.079 4.278-.719 1.1904-1.674 2.1452-2.865 2.8644l5.32 9.5232h-7.068l-4.204-8.4444h-2.752v8.4444h-6.436zm9.635 11.1972c.868 0 1.575-.2604 2.12-.7812.546-.5456.819-1.2648.819-2.1576 0-.9424-.261-1.6864-.782-2.232-.52-.5456-1.252-.8184-2.194-.8184h-3.162v5.9892zm14.356-11.1972h6.287l6.026 10.8252 5.915-10.8252h6.324l1.153 24.8124h-6.658l-.596-14.5452-4.352 8.4816h-3.608l-4.836-8.4816-.484 14.5452h-6.324zm29.666 0h6.584v24.8124h-6.584zm11.043 0h5.99l9.523 13.8384v-13.8384h6.51v24.8124h-5.617l-9.896-14.2476v14.2476h-6.51zm39.132 10.6392h10.192v11.1972c-1.488 1.2648-3.199 2.1824-5.133 2.7528-1.91.5456-3.832.8184-5.766.8184-2.009 0-3.819-.2976-5.431-.8928-1.588-.62-2.939-1.488-4.055-2.604-1.116-1.1408-1.972-2.5172-2.567-4.1292-.57-1.612-.856-3.4224-.856-5.4312 0-1.8848.31-3.6208.93-5.208.645-1.612 1.538-2.9884 2.679-4.1292 1.141-1.1656 2.492-2.0708 4.055-2.7156 1.587-.644803 3.335-.967203 5.245-.967203 2.058 0 3.98.347201 5.766 1.041603 1.81.6696 3.323 1.798 4.538 3.3852l-4.278 4.3152c-.769-.7688-1.599-1.4012-2.492-1.8972-.868-.496-1.885-.744-3.051-.744-1.066 0-2.008.186-2.827.558-.818.372-1.513.8804-2.083 1.5252-.546.62-.967 1.364-1.265 2.232-.297.8432-.446 1.7484-.446 2.7156 0 1.0664.161 2.0336.483 2.9016.323.8432.769 1.5748 1.34 2.1948.57.5952 1.264 1.0664 2.083 1.4136.818.3224 1.736.4836 2.753.4836.818 0 1.599-.0992 2.343-.2976s1.463-.5456 2.158-1.0416v-2.3808h-4.315z"/><path d="m9.486 1.1876h7.5516l8.7792 24.8124h-7.1052l-1.5996-5.1336h-8.2956l-1.6368 5.1336h-6.8076zm6.2868 14.88-2.7528-9.114-2.8644 9.114zm24.7476-9.114h-7.626v-5.766h21.8364v5.766h-7.5516v19.0464h-6.6588zm27.9997 19.6416c-1.86 0-3.5836-.3224-5.1708-.9672-1.5624-.6696-2.9264-1.5748-4.092-2.7156-1.1408-1.1656-2.0336-2.542-2.6784-4.1292-.6448-1.612-.9672-3.3604-.9672-5.2452s.3224-3.6208.9672-5.208c.6448-1.612 1.5376-2.9884 2.6784-4.1292 1.1656-1.1656 2.5296-2.0708 4.092-2.7156 1.5872-.644803 3.3108-.967203 5.1708-.967203s3.5836.3224 5.1708.967203c1.5872.6448 2.9512 1.55 4.092 2.7156 1.1408 1.1408 2.0336 2.5172 2.6784 4.1292.6448 1.5872.9672 3.3232.9672 5.208s-.3224 3.6332-.9672 5.2452c-.6448 1.5872-1.5376 2.9636-2.6784 4.1292-1.1408 1.1408-2.5048 2.046-4.092 2.7156-1.5872.6448-3.3108.9672-5.1708.9672zm0-6.1752c.9672 0 1.8228-.1736 2.5668-.5208.7688-.372 1.4136-.868 1.9344-1.488s.9176-1.3516 1.1904-2.1948.4092-1.736.4092-2.6784-.1364-1.8352-.4092-2.6784-.6696-1.5748-1.1904-2.1948-1.1656-1.1036-1.9344-1.4508c-.744-.372-1.5996-.558-2.5668-.558s-1.8352.186-2.604.558c-.744.3472-1.3764.8308-1.8972 1.4508s-.9176 1.3516-1.1904 2.1948-.4092 1.736-.4092 2.6784.1364 1.8352.4092 2.6784.6696 1.5748 1.1904 2.1948 1.1532 1.116 1.8972 1.488c.7688.3472 1.6368.5208 2.604.5208zm16.4319-19.2324h10.1184c1.3392 0 2.542.186 3.6084.558 1.0912.3472 2.0212.868 2.7902 1.5624.769.6696 1.364 1.5252 1.785 2.5668.422 1.0168.633 2.1948.633 3.534 0 1.2648-.223 2.418-.67 3.4596-.421 1.0168-1.017 1.8972-1.785 2.6412-.744.7192-1.6496 1.2772-2.716 1.674-1.0416.372-2.1948.558-3.4596.558h-3.8688v8.2584h-6.4356zm9.5604 11.3832c.8928 0 1.5996-.2852 2.1204-.8556s.7812-1.302.7812-2.1948c0-.9424-.248-1.6988-.744-2.2692s-1.2276-.8556-2.1948-.8556h-3.0876v6.1752zm18.6306-11.3832h10.118c1.339 0 2.542.186 3.608.558 1.092.3472 2.022.868 2.79 1.5624.769.6696 1.364 1.5252 1.786 2.5668.422 1.0168.632 2.1948.632 3.534 0 1.2648-.223 2.418-.669 3.4596-.422 1.0168-1.017 1.8972-1.786 2.6412-.744.7192-1.649 1.2772-2.715 1.674-1.042.372-2.195.558-3.46.558h-3.869v8.2584h-6.435zm9.56 11.3832c.893 0 1.6-.2852 2.12-.8556.521-.5704.782-1.302.782-2.1948 0-.9424-.248-1.6988-.744-2.2692s-1.228-.8556-2.195-.8556h-3.088v6.1752zm12.635-11.3832h17.856v5.6916h-11.271v3.8316h9.262v5.3568h-9.262v4.2408h12.052v5.6916h-18.637zm22.051 0h10.268c1.339 0 2.542.1736 3.608.5208 1.091.3472 2.021.868 2.79 1.5624.769.6696 1.364 1.5128 1.786 2.5296.421 1.0168.632 2.1948.632 3.534 0 1.6368-.36 3.0628-1.079 4.278-.719 1.1904-1.674 2.1452-2.864 2.8644l5.319 9.5232h-7.068l-4.203-8.4444h-2.753v8.4444h-6.436zm9.635 11.1972c.868 0 1.575-.2604 2.121-.7812.545-.5456.818-1.2648.818-2.1576 0-.9424-.26-1.6864-.781-2.232s-1.253-.8184-2.195-.8184h-3.162v5.9892zm13.724-11.1972h17.298v5.766h-10.713v4.7988h8.295v5.4312h-8.295v8.8164h-6.585zm31.268 25.4076c-1.86 0-3.583-.3224-5.171-.9672-1.562-.6696-2.926-1.5748-4.092-2.7156-1.14-1.1656-2.033-2.542-2.678-4.1292-.645-1.612-.967-3.3604-.967-5.2452s.322-3.6208.967-5.208c.645-1.612 1.538-2.9884 2.678-4.1292 1.166-1.1656 2.53-2.0708 4.092-2.7156 1.588-.644803 3.311-.967203 5.171-.967203s3.584.3224 5.171.967203c1.587.6448 2.951 1.55 4.092 2.7156 1.141 1.1408 2.034 2.5172 2.678 4.1292.645 1.5872.968 3.3232.968 5.208s-.323 3.6332-.968 5.2452c-.644 1.5872-1.537 2.9636-2.678 4.1292-1.141 1.1408-2.505 2.046-4.092 2.7156-1.587.6448-3.311.9672-5.171.9672zm0-6.1752c.967 0 1.823-.1736 2.567-.5208.769-.372 1.414-.868 1.934-1.488.521-.62.918-1.3516 1.191-2.1948s.409-1.736.409-2.6784-.136-1.8352-.409-2.6784-.67-1.5748-1.191-2.1948c-.52-.62-1.165-1.1036-1.934-1.4508-.744-.372-1.6-.558-2.567-.558s-1.835.186-2.604.558c-.744.3472-1.376.8308-1.897 1.4508s-.918 1.3516-1.19 2.1948c-.273.8432-.41 1.736-.41 2.6784s.137 1.8352.41 2.6784c.272.8432.669 1.5748 1.19 2.1948s1.153 1.116 1.897 1.488c.769.3472 1.637.5208 2.604.5208zm16.395-19.2324h10.267c1.339 0 2.542.1736 3.609.5208 1.091.3472 2.021.868 2.79 1.5624.768.6696 1.364 1.5128 1.785 2.5296.422 1.0168.633 2.1948.633 3.534 0 1.6368-.36 3.0628-1.079 4.278-.719 1.1904-1.674 2.1452-2.865 2.8644l5.32 9.5232h-7.068l-4.204-8.4444h-2.752v8.4444h-6.436zm9.635 11.1972c.868 0 1.575-.2604 2.12-.7812.546-.5456.819-1.2648.819-2.1576 0-.9424-.261-1.6864-.782-2.232-.52-.5456-1.252-.8184-2.194-.8184h-3.162v5.9892zm14.356-11.1972h6.287l6.026 10.8252 5.915-10.8252h6.324l1.153 24.8124h-6.658l-.596-14.5452-4.352 8.4816h-3.608l-4.836-8.4816-.484 14.5452h-6.324zm29.666 0h6.584v24.8124h-6.584zm11.043 0h5.99l9.523 13.8384v-13.8384h6.51v24.8124h-5.617l-9.896-14.2476v14.2476h-6.51zm39.132 10.6392h10.192v11.1972c-1.488 1.2648-3.199 2.1824-5.133 2.7528-1.91.5456-3.832.8184-5.766.8184-2.009 0-3.819-.2976-5.431-.8928-1.588-.62-2.939-1.488-4.055-2.604-1.116-1.1408-1.972-2.5172-2.567-4.1292-.57-1.612-.856-3.4224-.856-5.4312 0-1.8848.31-3.6208.93-5.208.645-1.612 1.538-2.9884 2.679-4.1292 1.141-1.1656 2.492-2.0708 4.055-2.7156 1.587-.644803 3.335-.967203 5.245-.967203 2.058 0 3.98.347201 5.766 1.041603 1.81.6696 3.323 1.798 4.538 3.3852l-4.278 4.3152c-.769-.7688-1.599-1.4012-2.492-1.8972-.868-.496-1.885-.744-3.051-.744-1.066 0-2.008.186-2.827.558-.818.372-1.513.8804-2.083 1.5252-.546.62-.967 1.364-1.265 2.232-.297.8432-.446 1.7484-.446 2.7156 0 1.0664.161 2.0336.483 2.9016.323.8432.769 1.5748 1.34 2.1948.57.5952 1.264 1.0664 2.083 1.4136.818.3224 1.736.4836 2.753.4836.818 0 1.599-.0992 2.343-.2976s1.463-.5456 2.158-1.0416v-2.3808h-4.315z"/></g></svg>