<svg fill="none" height="19" viewBox="0 0 344 19" width="344" xmlns="http://www.w3.org/2000/svg"><path d="m.128787 15.8879 2.756053-3.3227c.4808.4808 1.10757.9187 1.88029 1.3136.7899.395 1.63989.5924 2.54999.5924.46363 0 .9101-.0944 1.33939-.2833s.64393-.5495.64393-1.0818c0-.4465-.23181-.8157-.69545-1.1076-.46363-.3091-1.12474-.601-1.98332-.8757l-.95303-.3091c-.70404-.2404-1.40807-.5581-2.11211-.95306-.68687-.41212-1.26212-.93585-1.72575-1.5712-.44646-.63535-.66969-1.41666-.66969-2.34393 0-1.06464.24898-2.01767.74696-2.85908.51515-.84141 1.2707-1.50252 2.26666-1.98332.99595-.497981 2.20655-.74697 3.6318-.74697 1.13333 0 2.11211.128788 2.93639.386363.8414.257577 1.5368.558077 2.0863.901507.5495.34344.953.65253 1.2106.92727l-2.3182 2.93635c-.601-.44646-1.2277-.80706-1.88025-1.08181-.65252-.29192-1.32222-.43788-2.00908-.43788-.44646 0-.87576.10303-1.28788.30909-.39494.18889-.59242.52374-.59242 1.00454 0 .53232.24041.91869.72121 1.15909.48081.2404 1.0904.4808 1.82878.72121l.82424.25757c.58384.17172 1.1677.39495 1.7515.6697.601.25757 1.1505.59242 1.6485 1.00454s.8929.93582 1.1848 1.57122c.3091.6182.4637 1.3823.4637 2.2924 0 1.0475-.3177 1.9833-.9531 2.8076-.6181.8242-1.4596 1.4681-2.5242 1.9318-1.04746.4636-2.21514.6954-3.50301.6954-1.71716 0-3.15958-.2318-4.32725-.6954-1.1505-.4637-2.129286-1.0733-2.936353-1.8288zm16.506513-4.5848v-10.483326h4.5591v10.071126c0 .9445.2146 1.7172.6439 2.3182.4465.601 1.1763.9015 2.1894.9015s1.7343-.3005 2.1636-.9015c.4293-.6182.6439-1.3909.6439-2.3182v-10.071126h4.6106v10.483326c0 1.4595-.3176 2.7303-.953 3.8121-.6353 1.0646-1.5111 1.8888-2.6273 2.4727-1.0989.5666-2.3696.85-3.8121.85-1.4424 0-2.7217-.2834-3.8378-.85-1.1162-.5667-1.9919-1.3823-2.6273-2.447-.6353-1.0818-.953-2.3611-.953-3.8378zm17.7861 6.6969v-17.180226h7.006c1.8374 0 3.3142.489396 4.4303 1.468176 1.1162.96161 1.6743 2.36969 1.6743 4.22422 0 1.16767-.2576 2.18939-.7728 3.06514-.5151.85859-1.2191 1.52829-2.1121 2.00909-.8929.4636-1.9232.6954-3.0909.6954h-2.6787v5.7182zm4.4561-9.29844h2.1636c.6182 0 1.1076-.19748 1.4682-.59242.3606-.39495.5409-.90152.5409-1.51969 0-.65253-.1717-1.17626-.5152-1.57121-.3434-.39495-.85-.59242-1.5197-.59242h-2.1378zm10.9129 9.29844v-17.180226h12.3636v3.940896h-7.8046v2.65301h6.4137v3.70912h-6.4137v2.9363h8.3455v3.9409zm15.2683 0v-17.180226h7.1091c1.8373 0 3.3141.480806 4.4302 1.442416 1.1162.94444 1.6743 2.34393 1.6743 4.19847 0 1.11616-.249 2.09494-.747 2.93635-.498.84139-1.1591 1.51109-1.9833 2.00909l3.6833 6.5939h-4.8939l-2.9106-5.8469h-1.9061v5.8469zm4.456-9.42723h2.2152c.601 0 1.0904-.1803 1.4682-.54091.3777-.37777.5666-.87575.5666-1.49393 0-.65252-.1803-1.16767-.5409-1.54545-.3606-.37777-.8671-.56666-1.5197-.56666h-2.1894zm16.3713 9.42723v-17.180226h11.9773v3.992406h-7.4182v3.32271h5.7439v3.76061h-5.7439v6.1045zm13.9328-6.6969v-10.483326h4.5592v10.071126c0 .9445.215 1.7172.644 2.3182.446.601 1.176.9015 2.189.9015s1.735-.3005 2.164-.9015c.429-.6182.644-1.3909.644-2.3182v-10.071126h4.61v10.483326c0 1.4595-.317 2.7303-.953 3.8121-.635 1.0646-1.511 1.8888-2.627 2.4727-1.099.5666-2.37.85-3.812.85s-2.722-.2834-3.838-.85c-1.116-.5667-1.992-1.3823-2.627-2.447-.636-1.0818-.9532-2.3611-.9532-3.8378zm17.7862 6.6969v-17.180226h4.147l6.594 9.581726v-9.581726h4.507v17.180226h-3.889l-6.852-9.86511v9.86511zm18.337 0v-17.180226h6.594c1.769 0 3.34.309086 4.714.927266 1.39.60101 2.489 1.54545 3.297 2.83332.807 1.27071 1.21 2.9106 1.21 4.91968 0 1.88886-.403 3.46866-1.21 4.73936-.808 1.2535-1.915 2.198-3.323 2.8333-1.391.6182-2.962.9273-4.714.9273zm4.559-4.0182h1.855c1.476 0 2.627-.4207 3.451-1.2621.824-.8586 1.236-1.9661 1.236-3.32269 0-1.37373-.377-2.4813-1.133-3.32271-.755-.84141-1.94-1.26212-3.554-1.26212h-1.855zm26.599 4.4303c-1.288 0-2.481-.2232-3.58-.6697-1.082-.4464-2.026-1.0732-2.834-1.8803-.789-.8242-1.408-1.7858-1.854-2.8848-.447-1.099-.67-2.301-.67-3.60605 0-1.30504.223-2.50706.67-3.60604.446-1.09899 1.065-2.05201 1.854-2.85908.808-.80707 1.752-1.43383 2.834-1.8803 1.099-.446459 2.292-.66969 3.58-.66969s2.473.223231 3.555.66969c1.099.44647 2.052 1.07323 2.859 1.8803s1.425 1.76009 1.854 2.85908c.447 1.09898.67 2.301.67 3.60604 0 1.30505-.223 2.50705-.67 3.60605-.429 1.099-1.047 2.0606-1.854 2.8848-.807.8071-1.76 1.4339-2.859 1.8803-1.082.4465-2.267.6697-3.555.6697zm0-4.2757c.91 0 1.674-.2147 2.293-.644.635-.4292 1.116-1.0045 1.442-1.7257s.489-1.5197.489-2.39545-.163-1.67423-.489-2.39544-.807-1.29646-1.442-1.72575c-.619-.42929-1.383-.64394-2.293-.64394-.893 0-1.657.21465-2.292.64394-.619.42929-1.099 1.00454-1.443 1.72575-.326.72121-.489 1.51969-.489 2.39544s.163 1.67425.489 2.39545c.344.7212.824 1.2965 1.443 1.7257.635.4293 1.399.644 2.292.644zm15.111 3.8636-6.233-17.180226h4.971l3.864 11.951426 3.606-11.951426h4.868l-6.259 17.180226zm12.717 0v-17.180226h12.363v3.940896h-7.804v2.65301h6.413v3.70912h-6.413v2.9363h8.345v3.9409zm15.268 0v-17.180226h7.109c1.837 0 3.314.480806 4.43 1.442416 1.116.94444 1.675 2.34393 1.675 4.19847 0 1.11616-.249 2.09494-.747 2.93635-.498.84139-1.16 1.51109-1.984 2.00909l3.684 6.5939h-4.894l-2.911-5.8469h-1.906v5.8469zm4.456-9.42723h2.215c.601 0 1.091-.1803 1.468-.54091.378-.37777.567-.87575.567-1.49393 0-.65252-.18-1.16767-.541-1.54545-.361-.37777-.867-.56666-1.52-.56666h-2.189zm15.959 9.42723v-2.3697c0-.8414.172-1.5969.515-2.2666.361-.6697.816-1.2707 1.365-1.8031.55-.5495 1.134-1.0474 1.752-1.4939.618-.46363 1.202-.89292 1.751-1.28787.55-.39495.996-.77272 1.34-1.13333.36-.37777.541-.76414.541-1.15908 0-.36061-.155-.68687-.464-.97879-.309-.30909-.781-.46363-1.417-.46363-.463 0-.875.10303-1.236.30909-.343.18889-.635.41212-.876.66969-.223.25758-.403.49798-.541.72121l-3.142-2.16363c.343-.56666.799-1.09898 1.365-1.59696.584-.49798 1.288-.90151 2.112-1.2106.842-.30909 1.803-.46363 2.885-.46363 1.219 0 2.25.23181 3.091.69545.841.46363 1.477 1.06464 1.906 1.80302s.644 1.5111.644 2.31817c0 .89293-.215 1.68282-.644 2.36969-.429.66969-.962 1.27928-1.597 1.8288-.635.5323-1.271 1.0131-1.906 1.4424s-1.176.8414-1.623 1.2364c-.429.3777-.661.7555-.695 1.1333h6.517v3.8636zm20.543.4121c-1.425 0-2.619-.3606-3.58-1.0818-.962-.7212-1.683-1.7257-2.164-3.0136s-.721-2.7732-.721-4.45606c0-1.69999.24-3.18534.721-4.45604.481-1.28787 1.202-2.29241 2.164-3.01362.961-.72121 2.155-1.08181 3.58-1.08181 1.511 0 2.739.3606 3.683 1.08181.945.72121 1.64 1.72575 2.087 3.01362.446 1.2707.669 2.75605.669 4.45604 0 1.68286-.223 3.16816-.669 4.45606-.447 1.2879-1.142 2.2924-2.087 3.0136-.944.7212-2.172 1.0818-3.683 1.0818zm0-3.9666c.549 0 .97-.2061 1.262-.6182s.489-.9616.592-1.6485c.121-.704.181-1.4767.181-2.31816 0-.84141-.06-1.60555-.181-2.29241-.103-.70404-.3-1.26212-.592-1.67424s-.713-.61817-1.262-.61817c-.55 0-.97.20605-1.262.61817s-.498.9702-.618 1.67424c-.103.68686-.155 1.451-.155 2.29241 0 .84146.052 1.61416.155 2.31816.12.6869.326 1.2364.618 1.6485s.712.6182 1.262.6182zm18.164 3.5545v-6.8515l-6.104-10.328726h5.229l3.348 6.130276 3.142-6.130276h5.075l-6.131 10.303026v6.8772zm12.44 0v-17.180226h12.364v3.940896h-7.805v2.65301h6.414v3.70912h-6.414v2.9363h8.346v3.9409zm13.826 0 6.311-17.180226h5.229l6.078 17.180226h-4.919l-1.108-3.5545h-5.744l-1.133 3.5545zm6.775-6.8772h3.889l-1.906-6.31062zm12.502 6.8772v-17.180226h7.109c1.837 0 3.314.480806 4.43 1.442416 1.116.94444 1.674 2.34393 1.674 4.19847 0 1.11616-.249 2.09494-.747 2.93635-.498.84139-1.159 1.51109-1.983 2.00909l3.683 6.5939h-4.894l-2.91-5.8469h-1.906v5.8469zm4.456-9.42723h2.215c.601 0 1.09-.1803 1.468-.54091.378-.37777.567-.87575.567-1.49393 0-.65252-.18-1.16767-.541-1.54545-.361-.37777-.867-.56666-1.52-.56666h-2.189zm10.049 7.31513 2.757-3.3227c.48.4808 1.107.9187 1.88 1.3136.79.395 1.64.5924 2.55.5924.463 0 .91-.0944 1.339-.2833s.644-.5495.644-1.0818c0-.4465-.232-.8157-.695-1.1076-.464-.3091-1.125-.601-1.984-.8757l-.953-.3091c-.704-.2404-1.408-.5581-2.112-.95306-.687-.41212-1.262-.93585-1.726-1.5712-.446-.63535-.669-1.41666-.669-2.34393 0-1.06464.249-2.01767.747-2.85908.515-.84141 1.27-1.50252 2.266-1.98332.996-.497981 2.207-.74697 3.632-.74697 1.134 0 2.112.128788 2.937.386363.841.257577 1.536.558077 2.086.901507.549.34344.953.65253 1.21.92727l-2.318 2.93635c-.601-.44646-1.227-.80706-1.88-1.08181-.653-.29192-1.322-.43788-2.009-.43788-.447 0-.876.10303-1.288.30909-.395.18889-.592.52374-.592 1.00454 0 .53232.24.91869.721 1.15909s1.09.4808 1.829.72121l.824.25757c.584.17172 1.168.39495 1.751.6697.601.25757 1.151.59242 1.649 1.00454s.893.93582 1.185 1.57122c.309.6182.463 1.3823.463 2.2924 0 1.0475-.317 1.9833-.953 2.8076-.618.8242-1.459 1.4681-2.524 1.9318-1.047.4636-2.215.6954-3.503.6954-1.717 0-3.16-.2318-4.327-.6954-1.151-.4637-2.129-1.0733-2.937-1.8288z" fill="#ffd100"/></svg>