<?xml version="1.0" encoding="utf-8"?>
<!-- Generator: Adobe Illustrator 27.7.0, SVG Export Plug-In . SVG Version: 6.00 Build 0)  -->
<svg version="1.1" id="Layer_1" xmlns="http://www.w3.org/2000/svg" xmlns:xlink="http://www.w3.org/1999/xlink" x="0px" y="0px"
	 viewBox="0 0 378.7 19.7" style="enable-background:new 0 0 378.7 19.7;" xml:space="preserve">
<style type="text/css">
	.st0{fill:#FFD000;}
</style>
<path class="st0" d="M9.7,19.6c-1.4,0-2.7-0.2-3.9-0.7c-1.2-0.5-2.2-1.2-3.1-2c-0.9-0.9-1.5-1.9-2-3.1C0.2,12.5,0,11.2,0,9.8
	c0-1.4,0.2-2.7,0.7-3.9c0.5-1.2,1.2-2.2,2-3.1c0.9-0.9,1.9-1.6,3.1-2C7,0.2,8.3,0,9.7,0c1.4,0,2.7,0.2,3.9,0.7
	c1.2,0.5,2.2,1.2,3.1,2c0.9,0.9,1.6,1.9,2,3.1c0.5,1.2,0.7,2.5,0.7,3.9c0,1.4-0.2,2.7-0.7,3.9c-0.5,1.2-1.1,2.2-2,3.1
	c-0.9,0.9-1.9,1.6-3.1,2C12.4,19.4,11.1,19.6,9.7,19.6z M9.7,15c1,0,1.8-0.2,2.5-0.7c0.7-0.5,1.2-1.1,1.6-1.9
	c0.4-0.8,0.5-1.7,0.5-2.6S14.1,8,13.8,7.2c-0.4-0.8-0.9-1.4-1.6-1.9c-0.7-0.5-1.5-0.7-2.5-0.7c-1,0-1.8,0.2-2.5,0.7
	C6.6,5.8,6,6.4,5.7,7.2C5.3,8,5.1,8.8,5.1,9.8s0.2,1.8,0.5,2.6c0.4,0.8,0.9,1.4,1.6,1.9C7.9,14.7,8.7,15,9.7,15z M21.9,11.9V0.5h5
	v10.9c0,1,0.2,1.9,0.7,2.5c0.5,0.7,1.3,1,2.4,1c1.1,0,1.9-0.3,2.4-1c0.5-0.7,0.7-1.5,0.7-2.5V0.5h5v11.4c0,1.6-0.3,3-1,4.1
	c-0.7,1.2-1.6,2.1-2.9,2.7c-1.2,0.6-2.6,0.9-4.1,0.9c-1.6,0-3-0.3-4.2-0.9c-1.2-0.6-2.2-1.5-2.9-2.7C22.3,14.9,21.9,13.5,21.9,11.9z
	 M45.9,19.2V4.8h-5.7V0.5h16.4v4.3h-5.7v14.3H45.9z M57.3,16.9l3-3.6c0.5,0.5,1.2,1,2,1.4c0.9,0.4,1.8,0.6,2.8,0.6
	c0.5,0,1-0.1,1.5-0.3c0.5-0.2,0.7-0.6,0.7-1.2c0-0.5-0.3-0.9-0.8-1.2c-0.5-0.3-1.2-0.7-2.2-1l-1-0.3c-0.8-0.3-1.5-0.6-2.3-1
	c-0.7-0.4-1.4-1-1.9-1.7c-0.5-0.7-0.7-1.5-0.7-2.5c0-1.2,0.3-2.2,0.8-3.1c0.6-0.9,1.4-1.6,2.5-2.2C62.8,0.3,64.1,0,65.6,0
	c1.2,0,2.3,0.1,3.2,0.4c0.9,0.3,1.7,0.6,2.3,1c0.6,0.4,1,0.7,1.3,1l-2.5,3.2c-0.7-0.5-1.3-0.9-2-1.2c-0.7-0.3-1.4-0.5-2.2-0.5
	c-0.5,0-1,0.1-1.4,0.3c-0.4,0.2-0.6,0.6-0.6,1.1c0,0.6,0.3,1,0.8,1.3c0.5,0.3,1.2,0.5,2,0.8l0.9,0.3c0.6,0.2,1.3,0.4,1.9,0.7
	c0.7,0.3,1.2,0.6,1.8,1.1c0.5,0.4,1,1,1.3,1.7c0.3,0.7,0.5,1.5,0.5,2.5c0,1.1-0.3,2.2-1,3.1c-0.7,0.9-1.6,1.6-2.7,2.1
	c-1.1,0.5-2.4,0.8-3.8,0.8c-1.9,0-3.4-0.3-4.7-0.8C59.2,18.4,58.2,17.7,57.3,16.9z M80,19.2V4.8h-5.7V0.5h16.4v4.3H85v14.3H80z
	 M88.2,19.2l6.9-18.7h5.7l6.6,18.7h-5.3l-1.2-3.9h-6.2l-1.2,3.9H88.2z M95.6,11.7h4.2l-2.1-6.9L95.6,11.7z M109.2,19.2V0.5h4.5
	l7.2,10.4V0.5h4.9v18.7h-4.2l-7.4-10.7v10.7H109.2z M129.1,19.2V0.5h7.2c1.9,0,3.6,0.3,5.1,1c1.5,0.7,2.7,1.7,3.6,3.1
	c0.9,1.4,1.3,3.2,1.3,5.3c0,2.1-0.4,3.8-1.3,5.2c-0.9,1.4-2.1,2.4-3.6,3.1c-1.5,0.7-3.2,1-5.1,1H129.1z M134.1,14.8h2
	c1.6,0,2.9-0.5,3.8-1.4c0.9-0.9,1.3-2.1,1.3-3.6c0-1.5-0.4-2.7-1.2-3.6c-0.8-0.9-2.1-1.4-3.9-1.4h-2V14.8z M149,19.2V0.5h5v18.7H149
	z M157.3,19.2V0.5h4.5l7.2,10.4V0.5h4.9v18.7h-4.2l-7.4-10.7v10.7H157.3z M186.7,12.3V8.5h7.7v8.4c-1.1,1-2.4,1.6-3.9,2.1
	c-1.5,0.4-2.9,0.6-4.3,0.6c-2,0-3.8-0.4-5.2-1.2c-1.5-0.8-2.6-1.9-3.4-3.4c-0.8-1.5-1.1-3.2-1.1-5.2c0-1.9,0.4-3.6,1.2-5.1
	c0.8-1.5,2-2.6,3.4-3.5c1.5-0.8,3.2-1.3,5.1-1.3c1.5,0,3,0.3,4.3,0.8c1.4,0.5,2.5,1.4,3.4,2.5l-3.2,3.2c-0.6-0.6-1.2-1.1-1.9-1.4
	c-0.7-0.4-1.4-0.6-2.3-0.6c-1.1,0-2,0.2-2.7,0.7c-0.7,0.5-1.3,1.1-1.7,1.9c-0.4,0.8-0.6,1.7-0.6,2.7c0,1.6,0.5,2.9,1.4,3.8
	c0.9,1,2.1,1.4,3.6,1.4c0.6,0,1.2-0.1,1.8-0.2c0.6-0.2,1.1-0.4,1.6-0.8v-1.8H186.7z M207.7,19.2l-6.8-18.7h5.4l4.2,13l3.9-13h5.3
	l-6.8,18.7H207.7z M216.9,19.2l6.9-18.7h5.7l6.6,18.7h-5.3l-1.2-3.9h-6.2l-1.2,3.9H216.9z M224.2,11.7h4.2l-2.1-6.9L224.2,11.7z
	 M237.8,19.2V0.5h5v14.3h8.7v4.4H237.8z M253.3,11.9V0.5h5v10.9c0,1,0.2,1.9,0.7,2.5c0.5,0.7,1.3,1,2.4,1c1.1,0,1.9-0.3,2.4-1
	c0.5-0.7,0.7-1.5,0.7-2.5V0.5h5v11.4c0,1.6-0.3,3-1,4.1c-0.7,1.2-1.6,2.1-2.9,2.7c-1.2,0.6-2.6,0.9-4.1,0.9c-1.6,0-3-0.3-4.2-0.9
	c-1.2-0.6-2.2-1.5-2.9-2.7C253.6,14.9,253.3,13.5,253.3,11.9z M272.6,19.2V0.5h13.4v4.3h-8.5v2.9h7v4h-7v3.2h9.1v4.3H272.6z
	 M292.8,16.9l3-3.6c0.5,0.5,1.2,1,2,1.4c0.9,0.4,1.8,0.6,2.8,0.6c0.5,0,1-0.1,1.5-0.3c0.5-0.2,0.7-0.6,0.7-1.2
	c0-0.5-0.3-0.9-0.8-1.2c-0.5-0.3-1.2-0.7-2.2-1l-1-0.3c-0.8-0.3-1.5-0.6-2.3-1c-0.7-0.4-1.4-1-1.9-1.7c-0.5-0.7-0.7-1.5-0.7-2.5
	c0-1.2,0.3-2.2,0.8-3.1c0.6-0.9,1.4-1.6,2.5-2.2c1.1-0.5,2.4-0.8,3.9-0.8c1.2,0,2.3,0.1,3.2,0.4c0.9,0.3,1.7,0.6,2.3,1
	c0.6,0.4,1,0.7,1.3,1l-2.5,3.2c-0.7-0.5-1.3-0.9-2-1.2c-0.7-0.3-1.4-0.5-2.2-0.5c-0.5,0-1,0.1-1.4,0.3c-0.4,0.2-0.6,0.6-0.6,1.1
	c0,0.6,0.3,1,0.8,1.3c0.5,0.3,1.2,0.5,2,0.8l0.9,0.3c0.6,0.2,1.3,0.4,1.9,0.7c0.7,0.3,1.2,0.6,1.8,1.1c0.5,0.4,1,1,1.3,1.7
	c0.3,0.7,0.5,1.5,0.5,2.5c0,1.1-0.3,2.2-1,3.1c-0.7,0.9-1.6,1.6-2.7,2.1c-1.1,0.5-2.4,0.8-3.8,0.8c-1.9,0-3.4-0.3-4.7-0.8
	C294.7,18.4,293.6,17.7,292.8,16.9z M310.7,11.9V0.5h5v10.9c0,1,0.2,1.9,0.7,2.5c0.5,0.7,1.3,1,2.4,1c1.1,0,1.9-0.3,2.4-1
	c0.5-0.7,0.7-1.5,0.7-2.5V0.5h5v11.4c0,1.6-0.3,3-1,4.1c-0.7,1.2-1.6,2.1-2.9,2.7c-1.2,0.6-2.6,0.9-4.1,0.9s-3-0.3-4.2-0.9
	c-1.2-0.6-2.2-1.5-2.9-2.7C311,14.9,310.7,13.5,310.7,11.9z M330,19.2V0.5h7.6c2,0,3.6,0.5,4.8,1.6c1.2,1,1.8,2.6,1.8,4.6
	c0,1.3-0.3,2.4-0.8,3.3c-0.6,0.9-1.3,1.7-2.3,2.2c-1,0.5-2.1,0.8-3.4,0.8h-2.9v6.2H330z M334.9,9.1h2.4c0.7,0,1.2-0.2,1.6-0.6
	c0.4-0.4,0.6-1,0.6-1.7c0-0.7-0.2-1.3-0.6-1.7s-0.9-0.6-1.7-0.6h-2.3V9.1z M346.7,19.2V0.5h13.4v4.3h-8.5v2.9h7v4h-7v3.2h9.1v4.3
	H346.7z M363.3,19.2V0.5h7.7c2,0,3.6,0.5,4.8,1.6c1.2,1,1.8,2.5,1.8,4.6c0,1.2-0.3,2.3-0.8,3.2c-0.5,0.9-1.3,1.6-2.2,2.2l4,7.2h-5.3
	l-3.2-6.4h-2.1v6.4H363.3z M368.2,8.9h2.4c0.7,0,1.2-0.2,1.6-0.6c0.4-0.4,0.6-1,0.6-1.6c0-0.7-0.2-1.3-0.6-1.7
	c-0.4-0.4-0.9-0.6-1.7-0.6h-2.4V8.9z"/>
</svg>
