<svg width="198" height="15" viewBox="0 0 198 15" fill="none" xmlns="http://www.w3.org/2000/svg">
<path d="M3.28824 13.75L0.191176 0.998528H3.76618L5.41029 9.54412L7.41765 1.30441H10.4956L12.5221 9.54412L14.1471 0.998528H17.6074L14.4338 13.75H10.8971L8.88971 5.68235L6.88235 13.75H3.28824ZM18.748 13.75V0.998528H22.1318V5.66324H26.8348V0.998528H30.2186V13.75H26.8348V8.76029H22.1318V13.75H18.748ZM31.2457 13.75L35.9295 0.998528H39.8104L44.3222 13.75H40.6707L39.8486 11.1118H35.5854L34.7442 13.75H31.2457ZM36.2736 8.64559H39.1604L37.7457 3.96176L36.2736 8.64559ZM46.4066 13.75V3.96176H42.4875V0.998528H53.7095V3.96176H49.8287V13.75H46.4066ZM54.8939 5.73971L55.391 0.998528H58.7557L57.2836 5.73971H54.8939ZM59.4424 12.1824L61.488 9.71618C61.8449 10.073 62.3101 10.398 62.8836 10.6912C63.4699 10.9843 64.1008 11.1309 64.7763 11.1309C65.1204 11.1309 65.4518 11.0608 65.7704 10.9206C66.089 10.7804 66.2483 10.5127 66.2483 10.1176C66.2483 9.78627 66.0763 9.51225 65.7321 9.29559C65.388 9.06618 64.8973 8.84951 64.2601 8.64559L63.5527 8.41618C63.0302 8.23774 62.5076 8.00196 61.9851 7.70882C61.4753 7.40294 61.0483 7.01422 60.7042 6.54265C60.3728 6.07108 60.2071 5.49118 60.2071 4.80294C60.2071 4.01274 60.3919 3.30539 60.7616 2.68088C61.1439 2.05637 61.7047 1.56569 62.4439 1.20882C63.1831 0.839215 64.0817 0.654411 65.1395 0.654411C65.9807 0.654411 66.7071 0.749999 67.3189 0.941176C67.9434 1.13235 68.4596 1.35539 68.8674 1.61029C69.2753 1.8652 69.5748 2.09461 69.766 2.29853L68.0454 4.47794C67.5993 4.14657 67.1341 3.87892 66.6498 3.675C66.1655 3.45833 65.6684 3.35 65.1586 3.35C64.8272 3.35 64.5086 3.42647 64.2027 3.57941C63.9096 3.71961 63.763 3.96814 63.763 4.325C63.763 4.7201 63.9415 5.00686 64.2983 5.18529C64.6552 5.36373 65.1076 5.54216 65.6557 5.72059L66.2674 5.91176C66.7008 6.03922 67.1341 6.2049 67.5674 6.40882C68.0135 6.6 68.4214 6.84853 68.791 7.15441C69.1606 7.46029 69.4537 7.84902 69.6704 8.32059C69.8998 8.77941 70.0145 9.34657 70.0145 10.0221C70.0145 10.7995 69.7787 11.4941 69.3071 12.1059C68.8483 12.7176 68.2238 13.1956 67.4336 13.5397C66.6562 13.8838 65.7895 14.0559 64.8336 14.0559C63.5591 14.0559 62.4885 13.8838 61.6219 13.5397C60.7679 13.1956 60.0415 12.7431 59.4424 12.1824ZM74.8419 13.75V0.998528H80.0227C80.9276 0.998528 81.6732 1.09412 82.2595 1.28529C82.8458 1.47647 83.3046 1.73774 83.636 2.06912C83.9673 2.38774 84.2031 2.74461 84.3433 3.13971C84.4835 3.52206 84.5536 3.91716 84.5536 4.325C84.5536 4.80931 84.4517 5.23627 84.2477 5.60588C84.0438 5.96274 83.7953 6.26225 83.5021 6.50441C83.2218 6.73382 82.9541 6.89314 82.6992 6.98235C83.0178 7.07157 83.3747 7.24363 83.7698 7.49853C84.1649 7.74069 84.509 8.07843 84.8021 8.51176C85.0953 8.93235 85.2419 9.46127 85.2419 10.0985C85.2419 11.3603 84.7958 12.2843 83.9036 12.8706C83.0242 13.4569 81.7306 13.75 80.0227 13.75H74.8419ZM78.1492 6.12206H79.6213C80.0164 6.12206 80.3669 6.02647 80.6727 5.83529C80.9914 5.63137 81.1507 5.28725 81.1507 4.80294C81.1507 4.2549 80.985 3.88529 80.6536 3.69412C80.335 3.50294 79.9909 3.40735 79.6213 3.40735H78.1492V6.12206ZM78.1492 11.3412H79.8698C80.1374 11.3412 80.4178 11.3093 80.711 11.2456C81.0169 11.1819 81.2718 11.0417 81.4757 10.825C81.6923 10.6083 81.8007 10.2706 81.8007 9.81176C81.8007 9.37843 81.6923 9.0598 81.4757 8.85588C81.2718 8.63922 81.0169 8.49902 80.711 8.43529C80.4178 8.35882 80.1374 8.32059 79.8698 8.32059H78.1492V11.3412ZM86.7486 13.75V0.998528H95.925V3.92353H90.1324V5.89265H94.8927V8.64559H90.1324V10.825H96.3265V13.75H86.7486ZM101.044 13.75V3.96176H97.1251V0.998528H108.347V3.96176H104.466V13.75H101.044ZM113.026 13.75V3.96176H109.107V0.998528H120.329V3.96176H116.448V13.75H113.026ZM121.666 13.75V0.998528H130.842V3.92353H125.05V5.89265H129.81V8.64559H125.05V10.825H131.244V13.75H121.666ZM132.807 13.75V0.998528H138.084C139.447 0.998528 140.543 1.35539 141.372 2.06912C142.2 2.7701 142.615 3.80882 142.615 5.18529C142.615 6.01373 142.43 6.7402 142.06 7.36471C141.69 7.98922 141.2 8.48627 140.588 8.85588L143.322 13.75H139.69L137.529 9.41029H136.115V13.75H132.807ZM136.115 6.75294H137.759C138.205 6.75294 138.568 6.61912 138.848 6.35147C139.129 6.07108 139.269 5.70147 139.269 5.24265C139.269 4.75833 139.135 4.37598 138.867 4.09559C138.6 3.8152 138.224 3.675 137.74 3.675H136.115V6.75294ZM151.038 13.75V3.96176H147.119V0.998528H158.341V3.96176H154.46V13.75H151.038ZM159.678 13.75V0.998528H163.062V5.66324H167.765V0.998528H171.149V13.75H167.765V8.76029H163.062V13.75H159.678ZM172.176 13.75L176.859 0.998528H180.74L185.252 13.75H181.601L180.779 11.1118H176.515L175.674 13.75H172.176ZM177.204 8.64559H180.09L178.676 3.96176L177.204 8.64559ZM186.292 13.75V0.998528H189.37L194.264 8.11029V0.998528H197.609V13.75H194.723L189.637 6.42794V13.75H186.292Z" fill="white"/>
</svg>
