<svg width="139" height="27" viewBox="0 0 139 27" fill="none" xmlns="http://www.w3.org/2000/svg">
<path d="M17.1882 15.179L18.5272 16.401C18.2845 16.7303 17.9725 17.0337 17.5912 17.311C17.2185 17.5883 16.7982 17.8093 16.3302 17.974C15.8622 18.1387 15.3595 18.221 14.8222 18.221C13.9469 18.221 13.1712 18.026 12.4952 17.636C11.8279 17.246 11.3035 16.713 10.9222 16.037C10.5495 15.3523 10.3632 14.5723 10.3632 13.697C10.3632 13.0557 10.4715 12.4577 10.6882 11.903C10.9049 11.3397 11.2082 10.85 11.5982 10.434C11.9969 10.018 12.4692 9.693 13.0152 9.459C13.5699 9.225 14.1809 9.108 14.8482 9.108C15.6455 9.108 16.3475 9.25533 16.9542 9.55C17.5609 9.84467 18.0635 10.2693 18.4622 10.824L17.1232 12.111C16.8632 11.747 16.5555 11.4567 16.2002 11.24C15.8449 11.0147 15.4202 10.902 14.9262 10.902C14.4062 10.902 13.9555 11.0277 13.5742 11.279C13.2015 11.5217 12.9112 11.851 12.7032 12.267C12.5039 12.683 12.4042 13.1423 12.4042 13.645C12.4042 14.1563 12.5039 14.6157 12.7032 15.023C12.9112 15.4303 13.2015 15.7553 13.5742 15.998C13.9469 16.232 14.3845 16.349 14.8872 16.349C15.3032 16.349 15.6499 16.2927 15.9272 16.18C16.2045 16.0673 16.4385 15.9243 16.6292 15.751C16.8285 15.569 17.0149 15.3783 17.1882 15.179ZM19.2478 14.945C19.2478 14.347 19.3865 13.801 19.6638 13.307C19.9411 12.813 20.3225 12.423 20.8078 12.137C21.3018 11.8423 21.8738 11.695 22.5238 11.695C23.1738 11.695 23.7415 11.8423 24.2268 12.137C24.7208 12.423 25.1021 12.813 25.3708 13.307C25.6481 13.801 25.7868 14.347 25.7868 14.945C25.7868 15.543 25.6481 16.089 25.3708 16.583C25.1021 17.077 24.7208 17.4713 24.2268 17.766C23.7415 18.0607 23.1738 18.208 22.5238 18.208C21.8738 18.208 21.3018 18.0607 20.8078 17.766C20.3225 17.4713 19.9411 17.077 19.6638 16.583C19.3865 16.089 19.2478 15.543 19.2478 14.945ZM22.5238 16.583C22.8445 16.583 23.1088 16.505 23.3168 16.349C23.5335 16.193 23.6981 15.9893 23.8108 15.738C23.9235 15.4867 23.9798 15.2223 23.9798 14.945C23.9798 14.6677 23.9235 14.4077 23.8108 14.165C23.6981 13.9137 23.5335 13.71 23.3168 13.554C23.1088 13.398 22.8445 13.32 22.5238 13.32C22.2118 13.32 21.9431 13.398 21.7178 13.554C21.5011 13.71 21.3365 13.9137 21.2238 14.165C21.1111 14.4077 21.0548 14.6677 21.0548 14.945C21.0548 15.2223 21.1111 15.4867 21.2238 15.738C21.3365 15.9893 21.5011 16.193 21.7178 16.349C21.9431 16.505 22.2118 16.583 22.5238 16.583ZM26.8968 18V11.903H28.6908L28.7558 12.579C28.9464 12.345 29.1891 12.15 29.4838 11.994C29.7784 11.838 30.1251 11.76 30.5238 11.76C31.0091 11.76 31.3948 11.851 31.6808 12.033C31.9668 12.215 32.1791 12.4057 32.3178 12.605C32.5691 12.3363 32.8724 12.1283 33.2278 11.981C33.5918 11.8337 33.9688 11.76 34.3588 11.76C35.1301 11.76 35.7238 11.9853 36.1398 12.436C36.5558 12.878 36.7638 13.476 36.7638 14.23V18H34.8918V14.529C34.8918 14.1737 34.8094 13.8963 34.6448 13.697C34.4888 13.489 34.2504 13.385 33.9298 13.385C33.5744 13.385 33.2841 13.5107 33.0588 13.762C32.8421 14.0133 32.7338 14.334 32.7338 14.724V18H30.9268V14.529C30.9268 14.1737 30.8444 13.8963 30.6798 13.697C30.5238 13.489 30.2854 13.385 29.9648 13.385C29.6181 13.385 29.3321 13.5107 29.1068 13.762C28.8814 14.0133 28.7688 14.334 28.7688 14.724V18H26.8968ZM38.1194 20.6V11.903H39.9134C39.9308 12.0157 39.9438 12.1283 39.9524 12.241C39.9611 12.345 39.9698 12.4533 39.9784 12.566C40.1778 12.3147 40.4334 12.124 40.7454 11.994C41.0574 11.8553 41.3824 11.786 41.7204 11.786C42.3184 11.786 42.8168 11.9333 43.2154 12.228C43.6141 12.5227 43.9131 12.9083 44.1124 13.385C44.3118 13.8617 44.4114 14.3687 44.4114 14.906C44.4114 15.4693 44.3161 15.959 44.1254 16.375C43.9434 16.791 43.6964 17.1333 43.3844 17.402C43.0724 17.6707 42.7301 17.87 42.3574 18C41.9848 18.13 41.6078 18.195 41.2264 18.195C40.9318 18.195 40.6891 18.169 40.4984 18.117C40.3078 18.065 40.1344 18.013 39.9784 17.961V20.6H38.1194ZM39.9784 14.763V16.388C40.2298 16.5527 40.5894 16.635 41.0574 16.635C41.5168 16.635 41.8764 16.479 42.1364 16.167C42.4051 15.855 42.5394 15.4477 42.5394 14.945C42.5394 14.6763 42.4961 14.425 42.4094 14.191C42.3314 13.9483 42.1971 13.7533 42.0064 13.606C41.8244 13.4587 41.5774 13.385 41.2654 13.385C40.8494 13.385 40.5288 13.528 40.3034 13.814C40.0868 14.1 39.9784 14.4163 39.9784 14.763ZM49.1088 18L49.0568 17.428C48.6235 17.9307 48.0081 18.182 47.2108 18.182C46.9248 18.182 46.6215 18.1257 46.3008 18.013C45.9888 17.909 45.7201 17.7183 45.4948 17.441C45.2695 17.1637 45.1568 16.7823 45.1568 16.297C45.1568 15.8203 45.2781 15.4173 45.5208 15.088C45.7721 14.7587 46.1101 14.5117 46.5348 14.347C46.9595 14.1737 47.4361 14.087 47.9648 14.087C48.1815 14.087 48.3981 14.0913 48.6148 14.1C48.8401 14.1087 48.9875 14.1217 49.0568 14.139V14.009C49.0568 13.697 48.9355 13.476 48.6928 13.346C48.4588 13.2073 48.1901 13.138 47.8868 13.138C47.4795 13.138 47.1371 13.19 46.8598 13.294C46.5825 13.398 46.3485 13.515 46.1578 13.645L45.3908 12.501C45.6421 12.3017 45.9845 12.1197 46.4178 11.955C46.8511 11.7817 47.4275 11.695 48.1468 11.695C49.0741 11.695 49.7588 11.9463 50.2008 12.449C50.6428 12.943 50.8638 13.6103 50.8638 14.451V18H49.1088ZM49.0568 15.803V15.309C49.0135 15.3003 48.9311 15.2917 48.8098 15.283C48.6885 15.2657 48.5498 15.257 48.3938 15.257C47.8738 15.257 47.5055 15.3307 47.2888 15.478C47.0721 15.6253 46.9638 15.8333 46.9638 16.102C46.9638 16.6047 47.2671 16.856 47.8738 16.856C48.1685 16.856 48.4371 16.765 48.6798 16.583C48.9311 16.401 49.0568 16.141 49.0568 15.803ZM52.2112 18V11.903H54.0052L54.0702 12.67C54.2262 12.462 54.4386 12.2627 54.7072 12.072C54.9846 11.8813 55.3399 11.786 55.7732 11.786C55.9379 11.786 56.0766 11.7947 56.1892 11.812C56.3106 11.8293 56.4276 11.8597 56.5402 11.903L56.2412 13.554C56.0506 13.4933 55.8252 13.463 55.5652 13.463C55.1232 13.463 54.7636 13.5973 54.4862 13.866C54.2176 14.126 54.0832 14.4987 54.0832 14.984V18H52.2112ZM62.0528 16.154L62.8198 17.337C62.7332 17.3977 62.5772 17.4973 62.3518 17.636C62.1352 17.7747 61.8448 17.9047 61.4808 18.026C61.1168 18.1473 60.6705 18.208 60.1418 18.208C59.4485 18.208 58.8505 18.0693 58.3478 17.792C57.8452 17.5147 57.4595 17.129 57.1908 16.635C56.9222 16.141 56.7878 15.5733 56.7878 14.932C56.7878 14.36 56.9092 13.827 57.1518 13.333C57.4032 12.839 57.7628 12.4447 58.2308 12.15C58.7075 11.8467 59.2752 11.695 59.9338 11.695C60.5925 11.695 61.1428 11.8467 61.5848 12.15C62.0355 12.4447 62.3735 12.8563 62.5988 13.385C62.8328 13.905 62.9498 14.5073 62.9498 15.192V15.504H58.6078C58.6165 15.8247 58.7638 16.1107 59.0498 16.362C59.3358 16.6133 59.7215 16.739 60.2068 16.739C60.6922 16.739 61.0865 16.6697 61.3898 16.531C61.6932 16.3837 61.9142 16.258 62.0528 16.154ZM58.6078 14.308H61.1818C61.1818 14.1347 61.1342 13.9613 61.0388 13.788C60.9522 13.606 60.8135 13.4543 60.6228 13.333C60.4408 13.2117 60.2068 13.151 59.9208 13.151C59.6348 13.151 59.3922 13.2117 59.1928 13.333C59.0022 13.4543 58.8548 13.606 58.7508 13.788C58.6555 13.9613 58.6078 14.1347 58.6078 14.308ZM66.5225 18V9.329H68.4855V12.657H72.2425V9.329H74.2055V18H72.2425V14.438H68.4855V18H66.5225ZM75.4626 14.945C75.4626 14.347 75.6013 13.801 75.8786 13.307C76.156 12.813 76.5373 12.423 77.0226 12.137C77.5166 11.8423 78.0886 11.695 78.7386 11.695C79.3886 11.695 79.9563 11.8423 80.4416 12.137C80.9356 12.423 81.317 12.813 81.5856 13.307C81.863 13.801 82.0016 14.347 82.0016 14.945C82.0016 15.543 81.863 16.089 81.5856 16.583C81.317 17.077 80.9356 17.4713 80.4416 17.766C79.9563 18.0607 79.3886 18.208 78.7386 18.208C78.0886 18.208 77.5166 18.0607 77.0226 17.766C76.5373 17.4713 76.156 17.077 75.8786 16.583C75.6013 16.089 75.4626 15.543 75.4626 14.945ZM78.7386 16.583C79.0593 16.583 79.3236 16.505 79.5316 16.349C79.7483 16.193 79.913 15.9893 80.0256 15.738C80.1383 15.4867 80.1946 15.2223 80.1946 14.945C80.1946 14.6677 80.1383 14.4077 80.0256 14.165C79.913 13.9137 79.7483 13.71 79.5316 13.554C79.3236 13.398 79.0593 13.32 78.7386 13.32C78.4266 13.32 78.158 13.398 77.9326 13.554C77.716 13.71 77.5513 13.9137 77.4386 14.165C77.326 14.4077 77.2696 14.6677 77.2696 14.945C77.2696 15.2223 77.326 15.4867 77.4386 15.738C77.5513 15.9893 77.716 16.193 77.9326 16.349C78.158 16.505 78.4266 16.583 78.7386 16.583ZM82.8126 17.311L83.7356 16.115C83.9349 16.297 84.1949 16.4487 84.5156 16.57C84.8449 16.6913 85.1613 16.752 85.4646 16.752C85.7419 16.752 85.9716 16.7173 86.1536 16.648C86.3356 16.57 86.4266 16.4357 86.4266 16.245C86.4266 16.1323 86.3876 16.0413 86.3096 15.972C86.2403 15.894 86.1016 15.816 85.8936 15.738C85.6943 15.66 85.3996 15.569 85.0096 15.465C84.6976 15.3783 84.3943 15.2613 84.0996 15.114C83.8136 14.9667 83.5753 14.7717 83.3846 14.529C83.2026 14.2777 83.1116 13.9657 83.1116 13.593C83.1116 13.2117 83.2243 12.8823 83.4496 12.605C83.6749 12.319 83.9826 12.098 84.3726 11.942C84.7626 11.7773 85.2003 11.695 85.6856 11.695C86.2056 11.695 86.6606 11.7557 87.0506 11.877C87.4493 11.9897 87.8089 12.1587 88.1296 12.384L87.3366 13.619C87.1459 13.489 86.9206 13.372 86.6606 13.268C86.4006 13.164 86.1103 13.112 85.7896 13.112C85.5036 13.112 85.2956 13.1553 85.1656 13.242C85.0356 13.32 84.9706 13.4283 84.9706 13.567C84.9706 13.7663 85.1049 13.9137 85.3736 14.009C85.6509 14.1043 86.0149 14.2127 86.4656 14.334C87.0809 14.4987 87.5316 14.737 87.8176 15.049C88.1036 15.3523 88.2466 15.7553 88.2466 16.258C88.2466 16.7 88.1166 17.0683 87.8566 17.363C87.5966 17.649 87.2586 17.8613 86.8426 18C86.4353 18.1387 86.0019 18.208 85.5426 18.208C84.9966 18.208 84.4809 18.1343 83.9956 17.987C83.5103 17.831 83.1159 17.6057 82.8126 17.311ZM89.7111 15.673V13.372H88.7491V11.903H89.7111V9.901H91.5831V11.903H93.1561V13.372H91.5831V15.777C91.5831 16.0717 91.6395 16.3013 91.7521 16.466C91.8735 16.622 92.0598 16.7 92.3111 16.7C92.5018 16.7 92.6665 16.6697 92.8051 16.609C92.9438 16.5397 93.0738 16.4617 93.1951 16.375L93.9491 17.519C93.3685 17.987 92.7271 18.221 92.0251 18.221C91.4445 18.221 90.9851 18.1127 90.6471 17.896C90.3091 17.6793 90.0665 17.3803 89.9191 16.999C89.7805 16.6177 89.7111 16.1757 89.7111 15.673ZM94.6897 20.6V11.903H96.4837C96.5011 12.0157 96.5141 12.1283 96.5227 12.241C96.5314 12.345 96.5401 12.4533 96.5487 12.566C96.7481 12.3147 97.0037 12.124 97.3157 11.994C97.6277 11.8553 97.9527 11.786 98.2907 11.786C98.8887 11.786 99.3871 11.9333 99.7857 12.228C100.184 12.5227 100.483 12.9083 100.683 13.385C100.882 13.8617 100.982 14.3687 100.982 14.906C100.982 15.4693 100.886 15.959 100.696 16.375C100.514 16.791 100.267 17.1333 99.9547 17.402C99.6427 17.6707 99.3004 17.87 98.9277 18C98.5551 18.13 98.1781 18.195 97.7967 18.195C97.5021 18.195 97.2594 18.169 97.0687 18.117C96.8781 18.065 96.7047 18.013 96.5487 17.961V20.6H94.6897ZM96.5487 14.763V16.388C96.8001 16.5527 97.1597 16.635 97.6277 16.635C98.0871 16.635 98.4467 16.479 98.7067 16.167C98.9754 15.855 99.1097 15.4477 99.1097 14.945C99.1097 14.6763 99.0664 14.425 98.9797 14.191C98.9017 13.9483 98.7674 13.7533 98.5767 13.606C98.3947 13.4587 98.1477 13.385 97.8357 13.385C97.4197 13.385 97.0991 13.528 96.8737 13.814C96.6571 14.1 96.5487 14.4163 96.5487 14.763ZM102.091 18V9.329H103.963V18H102.091ZM105.315 15.686V11.903H107.187V15.413C107.187 15.7597 107.269 16.0327 107.434 16.232C107.607 16.4313 107.859 16.531 108.188 16.531C108.569 16.531 108.864 16.3967 109.072 16.128C109.28 15.8507 109.384 15.5387 109.384 15.192V11.903H111.243V18H109.449L109.397 17.35C109.198 17.584 108.933 17.779 108.604 17.935C108.283 18.0823 107.945 18.156 107.59 18.156C106.897 18.156 106.342 17.948 105.926 17.532C105.519 17.116 105.315 16.5007 105.315 15.686ZM112.329 17.311L113.252 16.115C113.452 16.297 113.712 16.4487 114.032 16.57C114.362 16.6913 114.678 16.752 114.981 16.752C115.259 16.752 115.488 16.7173 115.67 16.648C115.852 16.57 115.943 16.4357 115.943 16.245C115.943 16.1323 115.904 16.0413 115.826 15.972C115.757 15.894 115.618 15.816 115.41 15.738C115.211 15.66 114.916 15.569 114.526 15.465C114.214 15.3783 113.911 15.2613 113.616 15.114C113.33 14.9667 113.092 14.7717 112.901 14.529C112.719 14.2777 112.628 13.9657 112.628 13.593C112.628 13.2117 112.741 12.8823 112.966 12.605C113.192 12.319 113.499 12.098 113.889 11.942C114.279 11.7773 114.717 11.695 115.202 11.695C115.722 11.695 116.177 11.7557 116.567 11.877C116.966 11.9897 117.326 12.1587 117.646 12.384L116.853 13.619C116.663 13.489 116.437 13.372 116.177 13.268C115.917 13.164 115.627 13.112 115.306 13.112C115.02 13.112 114.812 13.1553 114.682 13.242C114.552 13.32 114.487 13.4283 114.487 13.567C114.487 13.7663 114.622 13.9137 114.89 14.009C115.168 14.1043 115.532 14.2127 115.982 14.334C116.598 14.4987 117.048 14.737 117.334 15.049C117.62 15.3523 117.763 15.7553 117.763 16.258C117.763 16.7 117.633 17.0683 117.373 17.363C117.113 17.649 116.775 17.8613 116.359 18C115.952 18.1387 115.519 18.208 115.059 18.208C114.513 18.208 113.998 18.1343 113.512 17.987C113.027 17.831 112.633 17.6057 112.329 17.311Z" fill="#002855"/>
<path d="M123.733 9.1665L128.066 13.4998L123.733 17.8332" stroke="#002855" stroke-width="1.81212" stroke-linecap="round"/>
</svg>
