<svg width="300" height="600" viewBox="0 0 300 600" fill="none" xmlns="http://www.w3.org/2000/svg">
<g clip-path="url(#clip0_10062_429)">
<path d="M40.7381 165.433L39.239 166.325V159.468C39.239 156.196 40.5582 152.715 42.9944 152.715C45.4306 152.715 46.7348 156.196 46.7348 159.468V166.325L45.2357 165.433V159.468C45.2357 156.722 44.1638 154.216 42.9944 154.216C41.825 154.216 40.7381 156.722 40.7381 159.468V165.433ZM59.3279 172.973C59.2155 172.628 59.0506 172.305 58.8257 172.028C58.8257 172.028 58.8107 172.013 58.8107 172.005C58.7133 171.885 58.6083 171.773 58.4959 171.675C58.4659 171.645 58.4359 171.622 58.4134 171.6C58.286 171.495 58.1586 171.39 58.0087 171.307L53.4737 168.606V166.228C53.4737 164.99 52.4617 163.977 51.2249 163.977H50.4753C50.3329 163.977 50.1979 163.992 50.063 164.022C50.018 164.022 49.9806 164.045 49.9356 164.052C49.8456 164.075 49.7557 164.105 49.6657 164.135C49.6208 164.15 49.5758 164.172 49.5308 164.187C49.4484 164.225 49.3659 164.27 49.2909 164.315C49.2535 164.337 49.216 164.36 49.1785 164.382C49.0886 164.45 48.9986 164.517 48.9161 164.6C48.9012 164.615 48.8862 164.622 48.8712 164.637C48.7812 164.727 48.6988 164.832 48.6163 164.945C48.5938 164.975 48.5788 165.012 48.5563 165.042C48.5039 165.125 48.4589 165.207 48.4214 165.29C48.3989 165.335 48.3839 165.38 48.369 165.418C48.2715 165.665 48.219 165.935 48.219 166.22V167.218L49.7182 168.111V166.22C49.7182 165.808 50.0555 165.47 50.4678 165.47H51.2174C51.6297 165.47 51.967 165.808 51.967 166.22V169.454L52.3343 169.672L57.2291 172.59C57.319 172.643 57.394 172.71 57.469 172.778C57.5289 172.838 57.5889 172.905 57.6414 172.973C57.8363 173.228 57.9637 173.543 57.9637 173.881V174.218L57.2141 173.993L51.2174 172.223H45.3031L44.2162 181.661L47.8292 184.512C48.0766 184.708 48.219 185 48.219 185.308V185.503L43.1593 184.19C43.0319 184.16 42.9044 184.16 42.7845 184.19L37.7248 185.503V185.308C37.7248 184.993 37.8672 184.7 38.1146 184.505L41.7351 181.654L40.6482 172.215H34.7339L27.9876 174.211V173.873C27.9876 173.543 28.1076 173.228 28.31 172.965C28.3624 172.898 28.4224 172.83 28.4824 172.77C28.5573 172.703 28.6323 172.635 28.7222 172.583L33.617 169.664L33.9843 169.447V166.213C33.9843 165.8 34.3217 165.463 34.7339 165.463H35.4835C35.8958 165.463 36.2331 165.8 36.2331 166.213V168.104L37.7323 167.211V166.213C37.7323 165.928 37.6723 165.665 37.5824 165.41C37.5674 165.365 37.5449 165.32 37.5299 165.275C37.4924 165.185 37.4474 165.102 37.395 165.027C37.3725 164.997 37.3575 164.96 37.335 164.93C37.26 164.825 37.1776 164.72 37.0801 164.622C37.0652 164.607 37.0502 164.6 37.0352 164.585C36.9527 164.51 36.8628 164.435 36.7728 164.367C36.7353 164.345 36.6979 164.322 36.6604 164.3C36.5854 164.255 36.503 164.21 36.4205 164.172C36.3755 164.15 36.3306 164.135 36.2856 164.112C36.1956 164.082 36.1132 164.052 36.0157 164.029C35.9708 164.029 35.9333 164.007 35.8883 163.999C35.7534 163.977 35.6184 163.954 35.476 163.954H34.7264C33.4896 163.954 32.4777 164.967 32.4777 166.205V168.584L27.9427 171.285C27.8002 171.367 27.6653 171.472 27.5379 171.577C27.5079 171.6 27.4779 171.63 27.4554 171.652C27.343 171.758 27.238 171.87 27.1406 171.983C27.1406 171.983 27.1256 171.998 27.1256 172.005C26.7133 172.53 26.481 173.176 26.481 173.858V175.201C26.481 175.441 26.5934 175.659 26.7808 175.802C26.9082 175.899 27.0656 175.952 27.2305 175.952C27.3055 175.952 27.373 175.952 27.4479 175.922L34.8389 173.701H39.3064L40.146 180.979L37.1851 183.312C36.5779 183.792 36.2256 184.512 36.2256 185.293V186.463C36.2256 186.696 36.3306 186.913 36.518 187.056C36.7053 187.199 36.9377 187.244 37.1626 187.191L42.2223 185.878L42.9719 185.683L43.7215 185.878L48.7812 187.191C48.8412 187.206 48.9087 187.214 48.9686 187.214C49.1335 187.214 49.2909 187.161 49.4259 187.056C49.6058 186.913 49.7182 186.696 49.7182 186.463V185.293C49.7182 184.512 49.3659 183.792 48.7587 183.312L45.7979 180.979L46.6374 173.701H51.105L58.4959 175.922C58.5634 175.944 58.6383 175.952 58.7133 175.952C58.8707 175.952 59.0281 175.899 59.163 175.802C59.3504 175.659 59.4629 175.434 59.4629 175.201V173.858C59.4629 173.551 59.4104 173.243 59.3129 172.95L59.3279 172.973Z" fill="white"/>
<path d="M19 169.987C19 182.974 29.3593 193.576 42.2373 193.974V192.473C30.1839 192.075 20.4992 182.142 20.4992 169.987C20.4992 157.832 30.1839 147.898 42.2373 147.501V146C29.3593 146.398 19 157.007 19 169.987Z" fill="white"/>
<path d="M43.7363 146V147.501C55.7897 147.898 65.4744 157.832 65.4744 169.987C65.4744 182.142 55.7897 192.075 43.7363 192.473V193.974C56.6143 193.576 66.9736 182.967 66.9736 169.987C66.9736 157.007 56.6143 146.398 43.7363 146Z" fill="white"/>
</g>
<path d="M87.8056 167.987L86.9056 165.269H81.7936L80.8936 167.987H78.6976L83.0536 155.207H85.6816L90.0196 167.987H87.8056ZM82.4236 163.415H86.2756L84.3496 157.637L82.4236 163.415ZM100.25 167.987H97.9823L96.1823 161.777L94.4723 167.987H92.0963L89.5223 158.627H91.6283L93.3743 165.431L95.2463 158.627H97.1003L99.0803 165.431L100.808 158.627H102.806L100.25 167.987ZM108.62 166.745C108.134 167.573 107.198 168.203 105.848 168.203C104.084 168.203 102.86 167.141 102.86 165.413C102.86 163.577 104.246 162.875 105.758 162.677L107.72 162.425C108.476 162.335 108.638 162.029 108.638 161.435C108.638 160.589 108.134 159.977 107 159.977C105.866 159.977 105.29 160.607 105.218 161.507H103.04C103.094 159.941 104.408 158.411 106.946 158.411C109.376 158.411 110.762 159.833 110.762 161.903V166.385C110.762 166.961 110.852 167.537 110.942 167.987H108.764C108.71 167.627 108.674 167.231 108.674 166.745H108.62ZM108.656 163.145C108.35 163.433 107.954 163.577 107.468 163.667L106.532 163.883C105.578 164.081 105.002 164.459 105.002 165.323C105.002 166.205 105.524 166.655 106.496 166.655C107.666 166.655 108.656 165.863 108.656 164.621V163.145ZM114.575 163.001V167.987H112.451V158.627H114.575V160.013H114.647C115.097 159.005 115.853 158.627 116.645 158.627H117.653V160.607H116.735C115.277 160.607 114.575 161.309 114.575 163.001ZM124.689 166.727C124.167 167.591 123.123 168.203 121.899 168.203C119.649 168.203 118.047 166.277 118.047 163.307C118.047 160.337 119.649 158.411 121.899 158.411C123.123 158.411 124.167 159.023 124.689 159.887H124.761V154.667H126.885V167.987H124.761V166.727H124.689ZM120.207 163.667C120.207 165.503 121.053 166.511 122.493 166.511C123.825 166.511 124.761 165.449 124.761 163.793V162.821C124.761 161.165 123.825 160.103 122.493 160.103C121.053 160.103 120.207 161.129 120.207 162.965V163.667ZM128.533 164.009V162.083H133.231V164.009H128.533ZM144.459 167.987H142.191L140.391 161.777L138.681 167.987H136.305L133.731 158.627H135.837L137.583 165.431L139.455 158.627H141.309L143.289 165.431L145.017 158.627H147.015L144.459 167.987ZM147.443 155.855C147.443 155.099 148.019 154.523 148.775 154.523C149.513 154.523 150.107 155.099 150.107 155.855C150.107 156.593 149.513 157.187 148.775 157.187C148.019 157.187 147.443 156.593 147.443 155.855ZM147.713 158.627H149.837V167.987H147.713V158.627ZM153.722 162.209V167.987H151.598V158.627H153.722V159.725H153.794C154.406 158.915 155.18 158.411 156.422 158.411C158.276 158.411 159.464 159.779 159.464 161.885V167.987H157.34V162.065C157.34 160.985 156.872 160.211 155.648 160.211C154.388 160.211 153.722 161.111 153.722 162.209ZM163.319 162.209V167.987H161.195V158.627H163.319V159.725H163.391C164.003 158.915 164.777 158.411 166.019 158.411C167.873 158.411 169.061 159.779 169.061 161.885V167.987H166.937V162.065C166.937 160.985 166.469 160.211 165.245 160.211C163.985 160.211 163.319 161.111 163.319 162.209ZM170.523 155.855C170.523 155.099 171.099 154.523 171.855 154.523C172.593 154.523 173.187 155.099 173.187 155.855C173.187 156.593 172.593 157.187 171.855 157.187C171.099 157.187 170.523 156.593 170.523 155.855ZM170.793 158.627H172.917V167.987H170.793V158.627ZM176.802 162.209V167.987H174.678V158.627H176.802V159.725H176.874C177.486 158.915 178.26 158.411 179.502 158.411C181.356 158.411 182.544 159.779 182.544 161.885V167.987H180.42V162.065C180.42 160.985 179.952 160.211 178.728 160.211C177.468 160.211 176.802 161.111 176.802 162.209ZM183.987 168.347H186.327C186.507 169.265 187.047 169.841 188.289 169.841C189.747 169.841 190.287 168.905 190.287 167.555V166.115H190.215C189.675 166.997 188.739 167.573 187.533 167.573C185.319 167.573 183.771 165.899 183.771 163.001C183.771 160.103 185.319 158.411 187.533 158.411C188.739 158.411 189.675 158.987 190.215 159.887H190.287V158.627H192.429V167.591C192.429 169.751 191.097 171.263 188.163 171.263C185.499 171.263 184.221 169.913 183.987 168.347ZM185.931 163.307C185.931 165.071 186.741 165.917 188.109 165.917C189.423 165.917 190.287 164.855 190.287 163.271V162.713C190.287 161.129 189.423 160.067 188.109 160.067C186.741 160.067 185.931 160.931 185.931 162.695V163.307ZM89.3176 172.207V174.043H85.2676V184.987H83.0176V174.043H78.9496V172.207H89.3176ZM90.9501 180.001V184.987H88.8261V175.627H90.9501V177.013H91.0221C91.4721 176.005 92.2281 175.627 93.0201 175.627H94.0281V177.607H93.1101C91.6521 177.607 90.9501 178.309 90.9501 180.001ZM100.147 183.745C99.661 184.573 98.725 185.203 97.375 185.203C95.611 185.203 94.387 184.141 94.387 182.413C94.387 180.577 95.773 179.875 97.285 179.677L99.247 179.425C100.003 179.335 100.165 179.029 100.165 178.435C100.165 177.589 99.661 176.977 98.527 176.977C97.393 176.977 96.817 177.607 96.745 178.507H94.567C94.621 176.941 95.935 175.411 98.473 175.411C100.903 175.411 102.289 176.833 102.289 178.903V183.385C102.289 183.961 102.379 184.537 102.469 184.987H100.291C100.237 184.627 100.201 184.231 100.201 183.745H100.147ZM100.183 180.145C99.877 180.433 99.481 180.577 98.995 180.667L98.059 180.883C97.105 181.081 96.529 181.459 96.529 182.323C96.529 183.205 97.051 183.655 98.023 183.655C99.193 183.655 100.183 182.863 100.183 181.621V180.145ZM102.76 175.627H105.01L107.53 182.683L110.032 175.627H112.192L108.772 184.987H106.198L102.76 175.627ZM120.922 182.215C120.472 183.799 119.014 185.203 116.782 185.203C114.028 185.203 112.246 183.277 112.246 180.307C112.246 177.337 114.064 175.411 116.692 175.411C119.356 175.411 120.994 177.337 120.994 180.307V180.811H114.406C114.442 182.521 115.36 183.547 116.782 183.547C117.898 183.547 118.51 183.025 118.816 182.215H120.922ZM116.692 177.067C115.468 177.067 114.604 177.895 114.442 179.353H118.852C118.726 177.949 117.97 177.067 116.692 177.067ZM124.87 184.987C123.178 184.987 122.206 184.015 122.206 182.485V171.667H124.33V182.305C124.33 182.917 124.564 183.277 125.23 183.277H125.86V184.987H124.87ZM130.172 172.207H132.404V184.987H130.172V172.207ZM136.284 179.209V184.987H134.16V175.627H136.284V176.725H136.356C136.968 175.915 137.742 175.411 138.984 175.411C140.838 175.411 142.026 176.779 142.026 178.885V184.987H139.902V179.065C139.902 177.985 139.434 177.211 138.21 177.211C136.95 177.211 136.284 178.111 136.284 179.209ZM143.218 182.323H145.36C145.504 183.133 146.062 183.655 147.232 183.655C148.33 183.655 148.942 183.187 148.942 182.377C148.942 181.747 148.672 181.351 147.682 181.243L146.044 181.045C144.172 180.811 143.416 179.893 143.416 178.453C143.416 176.689 144.892 175.411 147.16 175.411C149.554 175.411 150.742 176.833 150.85 178.201H148.762C148.654 177.463 148.114 176.959 147.124 176.959C146.116 176.959 145.468 177.463 145.468 178.219C145.468 178.795 145.81 179.173 146.854 179.299L148.474 179.497C150.292 179.713 151.03 180.577 151.03 182.107C151.03 184.033 149.374 185.203 147.214 185.203C144.712 185.203 143.398 183.943 143.218 182.323ZM158.007 181.405V175.627H160.131V184.987H158.007V183.889H157.935C157.341 184.699 156.585 185.203 155.307 185.203C153.471 185.203 152.265 183.835 152.265 181.729V175.627H154.389V181.549C154.389 182.629 154.857 183.403 156.063 183.403C157.341 183.403 158.007 182.503 158.007 181.405ZM164.022 180.001V184.987H161.898V175.627H164.022V177.013H164.094C164.544 176.005 165.3 175.627 166.092 175.627H167.1V177.607H166.182C164.724 177.607 164.022 178.309 164.022 180.001ZM173.219 183.745C172.733 184.573 171.797 185.203 170.447 185.203C168.683 185.203 167.459 184.141 167.459 182.413C167.459 180.577 168.845 179.875 170.357 179.677L172.319 179.425C173.075 179.335 173.237 179.029 173.237 178.435C173.237 177.589 172.733 176.977 171.599 176.977C170.465 176.977 169.889 177.607 169.817 178.507H167.639C167.693 176.941 169.007 175.411 171.545 175.411C173.975 175.411 175.361 176.833 175.361 178.903V183.385C175.361 183.961 175.451 184.537 175.541 184.987H173.363C173.309 184.627 173.273 184.231 173.273 183.745H173.219ZM173.255 180.145C172.949 180.433 172.553 180.577 172.067 180.667L171.131 180.883C170.177 181.081 169.601 181.459 169.601 182.323C169.601 183.205 170.123 183.655 171.095 183.655C172.265 183.655 173.255 182.863 173.255 181.621V180.145ZM179.175 179.209V184.987H177.051V175.627H179.175V176.725H179.247C179.859 175.915 180.633 175.411 181.875 175.411C183.729 175.411 184.917 176.779 184.917 178.885V184.987H182.793V179.065C182.793 177.985 182.325 177.211 181.101 177.211C179.841 177.211 179.175 178.111 179.175 179.209ZM186.144 180.307C186.144 177.337 187.89 175.411 190.554 175.411C192.876 175.411 194.352 176.833 194.622 178.705H192.498C192.318 177.679 191.616 177.103 190.554 177.103C189.204 177.103 188.304 178.147 188.304 179.929V180.703C188.304 182.485 189.204 183.511 190.554 183.511C191.688 183.511 192.318 182.845 192.516 181.873H194.64C194.37 183.691 192.876 185.203 190.554 185.203C187.89 185.203 186.144 183.277 186.144 180.307ZM203.979 182.215C203.529 183.799 202.071 185.203 199.839 185.203C197.085 185.203 195.303 183.277 195.303 180.307C195.303 177.337 197.121 175.411 199.749 175.411C202.413 175.411 204.051 177.337 204.051 180.307V180.811H197.463C197.499 182.521 198.417 183.547 199.839 183.547C200.955 183.547 201.567 183.025 201.873 182.215H203.979ZM199.749 177.067C198.525 177.067 197.661 177.895 197.499 179.353H201.909C201.783 177.949 201.027 177.067 199.749 177.067Z" fill="white"/>
<g clip-path="url(#clip1_10062_429)">
<path d="M19 237.957C19.015 250.912 29.301 261.527 42.2409 261.94V260.439C29.8333 260.027 20.1021 249.629 20.5144 237.207C20.9043 225.376 30.4105 215.864 42.2409 215.474V213.974C29.301 214.394 19.015 225.001 19 237.957Z" fill="white"/>
<path d="M43.7402 213.974V215.474C56.1479 215.887 65.879 226.284 65.4667 238.707C65.0769 250.545 55.5706 260.057 43.7402 260.447V261.947C56.98 261.535 67.3785 250.462 66.9661 237.214C66.5688 224.544 56.4028 214.371 43.7402 213.974Z" fill="white"/>
<path d="M31.7451 243.193H36.9931V244.693H31.7451V243.193ZM38.4925 240.192H31.7451V241.693H38.4925V240.192ZM50.4878 243.193C50.4878 244.018 51.1625 244.693 51.9872 244.693C52.8118 244.693 53.4866 244.018 53.4866 243.193C53.4866 242.368 52.8118 241.693 51.9872 241.693C51.1625 241.693 50.4878 242.368 50.4878 243.193ZM56.4854 235.691H29.496V246.944C29.496 247.356 29.8334 247.694 30.2457 247.694H55.7357C56.148 247.694 56.4854 247.356 56.4854 246.944V237.192H57.9848V246.944C57.9848 248.189 56.9802 249.194 55.7357 249.194H30.2457C29.0012 249.194 27.9966 248.189 27.9966 246.944V234.191H56.4854V232.69H27.9966V228.94C27.9966 227.694 29.0012 226.689 30.2457 226.689H55.7357C56.9802 226.689 57.9848 227.694 57.9848 228.94V235.691H56.4854ZM56.4854 231.19V228.94C56.4854 228.527 56.148 228.189 55.7357 228.189H30.2457C29.8334 228.189 29.496 228.527 29.496 228.94V231.19H56.4854Z" fill="white"/>
</g>
<path d="M87.8056 235.96L86.9056 233.242H81.7936L80.8936 235.96H78.6976L83.0536 223.18H85.6816L90.0196 235.96H87.8056ZM82.4236 231.388H86.2756L84.3496 225.61L82.4236 231.388ZM96.4305 232.378V226.6H98.5545V235.96H96.4305V234.862H96.3585C95.7645 235.672 95.0085 236.176 93.7305 236.176C91.8945 236.176 90.6885 234.808 90.6885 232.702V226.6H92.8125V232.522C92.8125 233.602 93.2805 234.376 94.4865 234.376C95.7645 234.376 96.4305 233.476 96.4305 232.378ZM99.7822 233.296H101.924C102.068 234.106 102.626 234.628 103.796 234.628C104.894 234.628 105.506 234.16 105.506 233.35C105.506 232.72 105.236 232.324 104.246 232.216L102.608 232.018C100.736 231.784 99.9802 230.866 99.9802 229.426C99.9802 227.662 101.456 226.384 103.724 226.384C106.118 226.384 107.306 227.806 107.414 229.174H105.326C105.218 228.436 104.678 227.932 103.688 227.932C102.68 227.932 102.032 228.436 102.032 229.192C102.032 229.768 102.374 230.146 103.418 230.272L105.038 230.47C106.856 230.686 107.594 231.55 107.594 233.08C107.594 235.006 105.938 236.176 103.778 236.176C101.276 236.176 99.9622 234.916 99.7822 233.296ZM109.679 233.242V228.202H107.897V226.6H109.679V223.18H111.803V226.6H113.927V228.202H111.803V233.044C111.803 233.872 112.217 234.214 113.045 234.214H113.927V235.96H112.685C110.669 235.96 109.679 235.042 109.679 233.242ZM117.563 230.974V235.96H115.439V226.6H117.563V227.986H117.635C118.085 226.978 118.841 226.6 119.633 226.6H120.641V228.58H119.723C118.265 228.58 117.563 229.282 117.563 230.974ZM126.76 234.718C126.274 235.546 125.338 236.176 123.988 236.176C122.224 236.176 121 235.114 121 233.386C121 231.55 122.386 230.848 123.898 230.65L125.86 230.398C126.616 230.308 126.778 230.002 126.778 229.408C126.778 228.562 126.274 227.95 125.14 227.95C124.006 227.95 123.43 228.58 123.358 229.48H121.18C121.234 227.914 122.548 226.384 125.086 226.384C127.516 226.384 128.902 227.806 128.902 229.876V234.358C128.902 234.934 128.992 235.51 129.082 235.96H126.904C126.85 235.6 126.814 235.204 126.814 234.718H126.76ZM126.796 231.118C126.49 231.406 126.094 231.55 125.608 231.64L124.672 231.856C123.718 232.054 123.142 232.432 123.142 233.296C123.142 234.178 123.664 234.628 124.636 234.628C125.806 234.628 126.796 233.836 126.796 232.594V231.118ZM133.202 235.96C131.51 235.96 130.538 234.988 130.538 233.458V222.64H132.662V233.278C132.662 233.89 132.896 234.25 133.562 234.25H134.192V235.96H133.202ZM135.121 223.828C135.121 223.072 135.697 222.496 136.453 222.496C137.191 222.496 137.785 223.072 137.785 223.828C137.785 224.566 137.191 225.16 136.453 225.16C135.697 225.16 135.121 224.566 135.121 223.828ZM135.391 226.6H137.515V235.96H135.391V226.6ZM144.549 234.718C144.063 235.546 143.127 236.176 141.777 236.176C140.013 236.176 138.789 235.114 138.789 233.386C138.789 231.55 140.175 230.848 141.687 230.65L143.649 230.398C144.405 230.308 144.567 230.002 144.567 229.408C144.567 228.562 144.063 227.95 142.929 227.95C141.795 227.95 141.219 228.58 141.147 229.48H138.969C139.023 227.914 140.337 226.384 142.875 226.384C145.305 226.384 146.691 227.806 146.691 229.876V234.358C146.691 234.934 146.781 235.51 146.871 235.96H144.693C144.639 235.6 144.603 235.204 144.603 234.718H144.549ZM144.585 231.118C144.279 231.406 143.883 231.55 143.397 231.64L142.461 231.856C141.507 232.054 140.931 232.432 140.931 233.296C140.931 234.178 141.453 234.628 142.425 234.628C143.595 234.628 144.585 233.836 144.585 232.594V231.118ZM151.494 223.18H156.822C159.594 223.18 161.304 224.746 161.304 227.302C161.304 229.912 159.576 231.46 156.822 231.46H153.726V235.96H151.494V223.18ZM156.444 229.642C158.064 229.642 159.036 228.994 159.036 227.302C159.036 225.664 158.064 224.998 156.444 224.998H153.726V229.642H156.444ZM161.605 231.28C161.605 228.31 163.387 226.384 166.051 226.384C168.697 226.384 170.497 228.31 170.497 231.28C170.497 234.25 168.697 236.176 166.051 236.176C163.387 236.176 161.605 234.25 161.605 231.28ZM168.337 230.884C168.337 229.102 167.419 228.076 166.051 228.076C164.665 228.076 163.765 229.102 163.765 230.884V231.658C163.765 233.44 164.665 234.484 166.051 234.484C167.419 234.484 168.337 233.44 168.337 231.658V230.884ZM171.22 233.296H173.362C173.506 234.106 174.064 234.628 175.234 234.628C176.332 234.628 176.944 234.16 176.944 233.35C176.944 232.72 176.674 232.324 175.684 232.216L174.046 232.018C172.174 231.784 171.418 230.866 171.418 229.426C171.418 227.662 172.894 226.384 175.162 226.384C177.556 226.384 178.744 227.806 178.852 229.174H176.764C176.656 228.436 176.116 227.932 175.126 227.932C174.118 227.932 173.47 228.436 173.47 229.192C173.47 229.768 173.812 230.146 174.856 230.272L176.476 230.47C178.294 230.686 179.032 231.55 179.032 233.08C179.032 235.006 177.376 236.176 175.216 236.176C172.714 236.176 171.4 234.916 171.22 233.296ZM181.116 233.242V228.202H179.334V226.6H181.116V223.18H183.24V226.6H185.364V228.202H183.24V233.044C183.24 233.872 183.654 234.214 184.482 234.214H185.364V235.96H184.122C182.106 235.96 181.116 235.042 181.116 233.242ZM199.321 223.18V225.016H195.271V235.96H193.021V225.016H188.953V223.18H199.321ZM200.954 230.974V235.96H198.83V226.6H200.954V227.986H201.026C201.476 226.978 202.232 226.6 203.024 226.6H204.032V228.58H203.114C201.656 228.58 200.954 229.282 200.954 230.974ZM210.151 234.718C209.665 235.546 208.729 236.176 207.379 236.176C205.615 236.176 204.391 235.114 204.391 233.386C204.391 231.55 205.777 230.848 207.289 230.65L209.251 230.398C210.007 230.308 210.169 230.002 210.169 229.408C210.169 228.562 209.665 227.95 208.531 227.95C207.397 227.95 206.821 228.58 206.749 229.48H204.571C204.625 227.914 205.939 226.384 208.477 226.384C210.907 226.384 212.293 227.806 212.293 229.876V234.358C212.293 234.934 212.383 235.51 212.473 235.96H210.295C210.241 235.6 210.205 235.204 210.205 234.718H210.151ZM210.187 231.118C209.881 231.406 209.485 231.55 208.999 231.64L208.063 231.856C207.109 232.054 206.533 232.432 206.533 233.296C206.533 234.178 207.055 234.628 208.027 234.628C209.197 234.628 210.187 233.836 210.187 232.594V231.118ZM212.764 226.6H215.014L217.534 233.656L220.036 226.6H222.196L218.776 235.96H216.202L212.764 226.6ZM230.926 233.188C230.476 234.772 229.018 236.176 226.786 236.176C224.032 236.176 222.25 234.25 222.25 231.28C222.25 228.31 224.068 226.384 226.696 226.384C229.36 226.384 230.998 228.31 230.998 231.28V231.784H224.41C224.446 233.494 225.364 234.52 226.786 234.52C227.902 234.52 228.514 233.998 228.82 233.188H230.926ZM226.696 228.04C225.472 228.04 224.608 228.868 224.446 230.326H228.856C228.73 228.922 227.974 228.04 226.696 228.04ZM234.874 235.96C233.182 235.96 232.21 234.988 232.21 233.458V222.64H234.334V233.278C234.334 233.89 234.568 234.25 235.234 234.25H235.864V235.96H234.874ZM79.6876 240.18H85.0156C87.7876 240.18 89.4976 241.746 89.4976 244.302C89.4976 246.912 87.7696 248.46 85.0156 248.46H81.9196V252.96H79.6876V240.18ZM84.6376 246.642C86.2576 246.642 87.2296 245.994 87.2296 244.302C87.2296 242.664 86.2576 241.998 84.6376 241.998H81.9196V246.642H84.6376ZM93.1587 252.96C91.4667 252.96 90.4947 251.988 90.4947 250.458V239.64H92.6187V250.278C92.6187 250.89 92.8527 251.25 93.5187 251.25H94.1487V252.96H93.1587ZM100.622 251.718C100.136 252.546 99.1996 253.176 97.8496 253.176C96.0856 253.176 94.8616 252.114 94.8616 250.386C94.8616 248.55 96.2476 247.848 97.7596 247.65L99.7216 247.398C100.478 247.308 100.64 247.002 100.64 246.408C100.64 245.562 100.136 244.95 99.0016 244.95C97.8676 244.95 97.2916 245.58 97.2196 246.48H95.0416C95.0956 244.914 96.4096 243.384 98.9476 243.384C101.378 243.384 102.764 244.806 102.764 246.876V251.358C102.764 251.934 102.854 252.51 102.944 252.96H100.766C100.712 252.6 100.676 252.204 100.676 251.718H100.622ZM100.658 248.118C100.352 248.406 99.9556 248.55 99.4696 248.64L98.5336 248.856C97.5796 249.054 97.0036 249.432 97.0036 250.296C97.0036 251.178 97.5256 251.628 98.4976 251.628C99.6676 251.628 100.658 250.836 100.658 249.594V248.118ZM105.267 250.242V245.202H103.485V243.6H105.267V240.18H107.391V243.6H109.515V245.202H107.391V250.044C107.391 250.872 107.805 251.214 108.633 251.214H109.515V252.96H108.273C106.257 252.96 105.267 252.042 105.267 250.242ZM110.757 240.828C110.757 240.072 111.333 239.496 112.089 239.496C112.827 239.496 113.421 240.072 113.421 240.828C113.421 241.566 112.827 242.16 112.089 242.16C111.333 242.16 110.757 241.566 110.757 240.828ZM111.027 243.6H113.151V252.96H111.027V243.6ZM117.036 247.182V252.96H114.912V243.6H117.036V244.698H117.108C117.72 243.888 118.494 243.384 119.736 243.384C121.59 243.384 122.778 244.752 122.778 246.858V252.96H120.654V247.038C120.654 245.958 120.186 245.184 118.962 245.184C117.702 245.184 117.036 246.084 117.036 247.182ZM130.216 249.378V243.6H132.34V252.96H130.216V251.862H130.144C129.55 252.672 128.794 253.176 127.516 253.176C125.68 253.176 124.474 251.808 124.474 249.702V243.6H126.598V249.522C126.598 250.602 127.066 251.376 128.272 251.376C129.55 251.376 130.216 250.476 130.216 249.378ZM136.249 247.092V252.96H134.125V243.6H136.249V244.698H136.321C136.825 243.996 137.617 243.384 138.859 243.384C139.993 243.384 140.857 243.942 141.325 244.896H141.379C141.973 244.05 142.873 243.384 144.241 243.384C146.077 243.384 147.193 244.752 147.193 246.804V252.96H145.069V247.092C145.069 245.994 144.619 245.184 143.521 245.184C142.405 245.184 141.721 246.048 141.721 247.092V252.96H139.597V247.092C139.597 245.994 139.147 245.184 138.049 245.184C136.915 245.184 136.249 246.048 136.249 247.092ZM157.961 250.872L154.163 243.222V252.96H152.039V240.18H154.793L158.411 247.506L162.011 240.18H164.747V252.96H162.623V243.186L158.825 250.872H157.961ZM171.778 251.718C171.292 252.546 170.356 253.176 169.006 253.176C167.242 253.176 166.018 252.114 166.018 250.386C166.018 248.55 167.404 247.848 168.916 247.65L170.878 247.398C171.634 247.308 171.796 247.002 171.796 246.408C171.796 245.562 171.292 244.95 170.158 244.95C169.024 244.95 168.448 245.58 168.376 246.48H166.198C166.252 244.914 167.566 243.384 170.104 243.384C172.534 243.384 173.92 244.806 173.92 246.876V251.358C173.92 251.934 174.01 252.51 174.1 252.96H171.922C171.868 252.6 171.832 252.204 171.832 251.718H171.778ZM171.814 248.118C171.508 248.406 171.112 248.55 170.626 248.64L169.69 248.856C168.736 249.054 168.16 249.432 168.16 250.296C168.16 251.178 168.682 251.628 169.654 251.628C170.824 251.628 171.814 250.836 171.814 249.594V248.118ZM175.069 250.296H177.211C177.355 251.106 177.913 251.628 179.083 251.628C180.181 251.628 180.793 251.16 180.793 250.35C180.793 249.72 180.523 249.324 179.533 249.216L177.895 249.018C176.023 248.784 175.267 247.866 175.267 246.426C175.267 244.662 176.743 243.384 179.011 243.384C181.405 243.384 182.593 244.806 182.701 246.174H180.613C180.505 245.436 179.965 244.932 178.975 244.932C177.967 244.932 177.319 245.436 177.319 246.192C177.319 246.768 177.661 247.146 178.705 247.272L180.325 247.47C182.143 247.686 182.881 248.55 182.881 250.08C182.881 252.006 181.225 253.176 179.065 253.176C176.563 253.176 175.249 251.916 175.069 250.296ZM184.966 250.242V245.202H183.184V243.6H184.966V240.18H187.09V243.6H189.214V245.202H187.09V250.044C187.09 250.872 187.504 251.214 188.332 251.214H189.214V252.96H187.972C185.956 252.96 184.966 252.042 184.966 250.242ZM198.635 250.188C198.185 251.772 196.727 253.176 194.495 253.176C191.741 253.176 189.959 251.25 189.959 248.28C189.959 245.31 191.777 243.384 194.405 243.384C197.069 243.384 198.707 245.31 198.707 248.28V248.784H192.119C192.155 250.494 193.073 251.52 194.495 251.52C195.611 251.52 196.223 250.998 196.529 250.188H198.635ZM194.405 245.04C193.181 245.04 192.317 245.868 192.155 247.326H196.565C196.439 245.922 195.683 245.04 194.405 245.04ZM202.097 247.974V252.96H199.973V243.6H202.097V244.986H202.169C202.619 243.978 203.375 243.6 204.167 243.6H205.175V245.58H204.257C202.799 245.58 202.097 246.282 202.097 247.974ZM205.568 248.28C205.568 245.31 207.314 243.384 209.978 243.384C212.3 243.384 213.776 244.806 214.046 246.678H211.922C211.742 245.652 211.04 245.076 209.978 245.076C208.628 245.076 207.728 246.12 207.728 247.902V248.676C207.728 250.458 208.628 251.484 209.978 251.484C211.112 251.484 211.742 250.818 211.94 249.846H214.064C213.794 251.664 212.3 253.176 209.978 253.176C207.314 253.176 205.568 251.25 205.568 248.28ZM220.504 251.718C220.018 252.546 219.082 253.176 217.732 253.176C215.968 253.176 214.744 252.114 214.744 250.386C214.744 248.55 216.13 247.848 217.642 247.65L219.604 247.398C220.36 247.308 220.522 247.002 220.522 246.408C220.522 245.562 220.018 244.95 218.884 244.95C217.75 244.95 217.174 245.58 217.102 246.48H214.924C214.978 244.914 216.292 243.384 218.83 243.384C221.26 243.384 222.646 244.806 222.646 246.876V251.358C222.646 251.934 222.736 252.51 222.826 252.96H220.648C220.594 252.6 220.558 252.204 220.558 251.718H220.504ZM220.54 248.118C220.234 248.406 219.838 248.55 219.352 248.64L218.416 248.856C217.462 249.054 216.886 249.432 216.886 250.296C216.886 251.178 217.408 251.628 218.38 251.628C219.55 251.628 220.54 250.836 220.54 249.594V248.118ZM226.46 247.974V252.96H224.336V243.6H226.46V244.986H226.532C226.982 243.978 227.738 243.6 228.53 243.6H229.538V245.58H228.62C227.162 245.58 226.46 246.282 226.46 247.974ZM236.573 251.7C236.051 252.564 235.007 253.176 233.783 253.176C231.533 253.176 229.931 251.25 229.931 248.28C229.931 245.31 231.533 243.384 233.783 243.384C235.007 243.384 236.051 243.996 236.573 244.86H236.645V239.64H238.769V252.96H236.645V251.7H236.573ZM232.091 248.64C232.091 250.476 232.937 251.484 234.377 251.484C235.709 251.484 236.645 250.422 236.645 248.766V247.794C236.645 246.138 235.709 245.076 234.377 245.076C232.937 245.076 232.091 246.102 232.091 247.938V248.64Z" fill="white"/>
<g clip-path="url(#clip2_10062_429)">
<path d="M19 305.938C19.015 318.894 29.301 329.508 42.2409 329.921V328.421C29.8333 328.008 20.1021 317.611 20.5144 305.188C20.9043 293.35 30.4105 283.838 42.2409 283.448V281.947C29.301 282.367 19.015 292.975 19 305.938Z" fill="white"/>
<path d="M43.7402 281.947V283.448C56.1479 283.868 65.8716 294.273 65.4517 306.688C65.0544 318.518 55.5631 328.016 43.7402 328.413V329.914C56.98 329.501 67.3785 318.428 66.9661 305.18C66.5688 292.517 56.4028 282.345 43.7402 281.947Z" fill="white"/>
<path d="M54.2362 300.664H47.4888C47.4888 298.594 45.8095 296.913 43.7403 296.913C41.6711 296.913 39.9918 298.594 39.9918 300.664H33.3269C32.9445 300.679 32.5997 300.417 32.5097 300.049C32.4347 299.644 32.7046 299.254 33.117 299.179C33.1619 299.171 33.2069 299.164 33.2444 299.164H36.2507C36.3857 299.164 36.5206 299.119 36.6331 299.044L47.9386 291.985L51.5972 299.171H53.2766L48.9058 290.582C48.7183 290.214 48.2685 290.064 47.8937 290.252C47.8712 290.259 47.8562 290.274 47.8337 290.282L36.0183 297.671H33.2369C32.0074 297.671 31.0103 298.654 30.9878 299.884V316.425C30.9878 317.671 31.9924 318.676 33.2369 318.676H54.2287C54.641 318.676 54.9784 318.338 54.9784 317.926V301.422C54.9784 301.009 54.641 300.672 54.2287 300.672L54.2362 300.664ZM41.4912 300.664C41.4912 299.419 42.4958 298.414 43.7403 298.414C44.9848 298.414 45.9894 299.419 45.9894 300.664H41.4912ZM53.4865 317.168H33.2444C32.8321 317.168 32.4947 316.831 32.4947 316.418V302.015C32.7571 302.112 33.042 302.165 33.3269 302.165H53.4865V305.915H49.5655L49.4081 305.998C48.1336 306.771 47.3989 308.181 47.4963 309.666C47.3989 311.152 48.1336 312.57 49.4081 313.342L49.5655 313.417H53.494V317.168H53.4865ZM49.9554 311.917C48.7108 310.739 48.6659 308.774 49.8429 307.528C49.8804 307.491 49.9179 307.453 49.9554 307.416H53.4865V311.917H49.9554Z" fill="white"/>
</g>
<path d="M89.3176 291.154V292.99H85.2676V303.934H83.0176V292.99H78.9496V291.154H89.3176ZM90.9501 298.948V303.934H88.8261V294.574H90.9501V295.96H91.0221C91.4721 294.952 92.2281 294.574 93.0201 294.574H94.0281V296.554H93.1101C91.6521 296.554 90.9501 297.256 90.9501 298.948ZM100.147 302.692C99.661 303.52 98.725 304.15 97.375 304.15C95.611 304.15 94.387 303.088 94.387 301.36C94.387 299.524 95.773 298.822 97.285 298.624L99.247 298.372C100.003 298.282 100.165 297.976 100.165 297.382C100.165 296.536 99.661 295.924 98.527 295.924C97.393 295.924 96.817 296.554 96.745 297.454H94.567C94.621 295.888 95.935 294.358 98.473 294.358C100.903 294.358 102.289 295.78 102.289 297.85V302.332C102.289 302.908 102.379 303.484 102.469 303.934H100.291C100.237 303.574 100.201 303.178 100.201 302.692H100.147ZM100.183 299.092C99.877 299.38 99.481 299.524 98.995 299.614L98.059 299.83C97.105 300.028 96.529 300.406 96.529 301.27C96.529 302.152 97.051 302.602 98.023 302.602C99.193 302.602 100.183 301.81 100.183 300.568V299.092ZM102.76 294.574H105.01L107.53 301.63L110.032 294.574H112.192L108.772 303.934H106.198L102.76 294.574ZM120.922 301.162C120.472 302.746 119.014 304.15 116.782 304.15C114.028 304.15 112.246 302.224 112.246 299.254C112.246 296.284 114.064 294.358 116.692 294.358C119.356 294.358 120.994 296.284 120.994 299.254V299.758H114.406C114.442 301.468 115.36 302.494 116.782 302.494C117.898 302.494 118.51 301.972 118.816 301.162H120.922ZM116.692 296.014C115.468 296.014 114.604 296.842 114.442 298.3H118.852C118.726 296.896 117.97 296.014 116.692 296.014ZM124.87 303.934C123.178 303.934 122.206 302.962 122.206 301.432V290.614H124.33V301.252C124.33 301.864 124.564 302.224 125.23 302.224H125.86V303.934H124.87ZM135.195 301.162C134.745 302.746 133.287 304.15 131.055 304.15C128.301 304.15 126.519 302.224 126.519 299.254C126.519 296.284 128.337 294.358 130.965 294.358C133.629 294.358 135.267 296.284 135.267 299.254V299.758H128.679C128.715 301.468 129.633 302.494 131.055 302.494C132.171 302.494 132.783 301.972 133.089 301.162H135.195ZM130.965 296.014C129.741 296.014 128.877 296.842 128.715 298.3H133.125C132.999 296.896 132.243 296.014 130.965 296.014ZM135.211 294.574H137.551L139.711 297.724L141.799 294.574H144.085L140.935 299.164L144.301 303.934H141.943L139.621 300.568L137.353 303.934H135.049L138.379 299.11L135.211 294.574ZM87.4636 313.608V315.408H81.9196V320.934H79.6876V308.154H87.9496V309.99H81.9196V313.608H87.4636ZM88.4627 316.254C88.4627 313.284 90.2447 311.358 92.9087 311.358C95.5547 311.358 97.3547 313.284 97.3547 316.254C97.3547 319.224 95.5547 321.15 92.9087 321.15C90.2447 321.15 88.4627 319.224 88.4627 316.254ZM95.1947 315.858C95.1947 314.076 94.2767 313.05 92.9087 313.05C91.5227 313.05 90.6227 314.076 90.6227 315.858V316.632C90.6227 318.414 91.5227 319.458 92.9087 319.458C94.2767 319.458 95.1947 318.414 95.1947 316.632V315.858ZM100.741 315.948V320.934H98.6171V311.574H100.741V312.96H100.813C101.263 311.952 102.019 311.574 102.811 311.574H103.819V313.554H102.901C101.443 313.554 100.741 314.256 100.741 315.948ZM112.889 318.162C112.439 319.746 110.981 321.15 108.749 321.15C105.995 321.15 104.213 319.224 104.213 316.254C104.213 313.284 106.031 311.358 108.659 311.358C111.323 311.358 112.961 313.284 112.961 316.254V316.758H106.373C106.409 318.468 107.327 319.494 108.749 319.494C109.865 319.494 110.477 318.972 110.783 318.162H112.889ZM108.659 313.014C107.435 313.014 106.571 313.842 106.409 315.3H110.819C110.693 313.896 109.937 313.014 108.659 313.014ZM113.956 308.802C113.956 308.046 114.532 307.47 115.288 307.47C116.026 307.47 116.62 308.046 116.62 308.802C116.62 309.54 116.026 310.134 115.288 310.134C114.532 310.134 113.956 309.54 113.956 308.802ZM114.226 311.574H116.35V320.934H114.226V311.574ZM117.823 321.294H120.163C120.343 322.212 120.883 322.788 122.125 322.788C123.583 322.788 124.123 321.852 124.123 320.502V319.062H124.051C123.511 319.944 122.575 320.52 121.369 320.52C119.155 320.52 117.607 318.846 117.607 315.948C117.607 313.05 119.155 311.358 121.369 311.358C122.575 311.358 123.511 311.934 124.051 312.834H124.123V311.574H126.265V320.538C126.265 322.698 124.933 324.21 121.999 324.21C119.335 324.21 118.057 322.86 117.823 321.294ZM119.767 316.254C119.767 318.018 120.577 318.864 121.945 318.864C123.259 318.864 124.123 317.802 124.123 316.218V315.66C124.123 314.076 123.259 313.014 121.945 313.014C120.577 313.014 119.767 313.878 119.767 315.642V316.254ZM130.114 315.156V320.934H127.99V311.574H130.114V312.672H130.186C130.798 311.862 131.572 311.358 132.814 311.358C134.668 311.358 135.856 312.726 135.856 314.832V320.934H133.732V315.012C133.732 313.932 133.264 313.158 132.04 313.158C130.78 313.158 130.114 314.058 130.114 315.156ZM146.245 307.938C149.305 307.938 151.195 309.684 151.645 312.132H149.323C149.089 310.908 148.135 309.792 146.227 309.792C143.959 309.792 142.483 311.484 142.483 314.148V314.922C142.483 317.604 143.959 319.296 146.227 319.296C148.135 319.296 149.089 318.18 149.323 316.956H151.645C151.195 319.386 149.305 321.15 146.245 321.15C142.645 321.15 140.215 318.594 140.215 314.544C140.215 310.476 142.645 307.938 146.245 307.938ZM158.137 319.692C157.651 320.52 156.715 321.15 155.365 321.15C153.601 321.15 152.377 320.088 152.377 318.36C152.377 316.524 153.763 315.822 155.275 315.624L157.237 315.372C157.993 315.282 158.155 314.976 158.155 314.382C158.155 313.536 157.651 312.924 156.517 312.924C155.383 312.924 154.807 313.554 154.735 314.454H152.557C152.611 312.888 153.925 311.358 156.463 311.358C158.893 311.358 160.279 312.78 160.279 314.85V319.332C160.279 319.908 160.369 320.484 160.459 320.934H158.281C158.227 320.574 158.191 320.178 158.191 319.692H158.137ZM158.173 316.092C157.867 316.38 157.471 316.524 156.985 316.614L156.049 316.83C155.095 317.028 154.519 317.406 154.519 318.27C154.519 319.152 155.041 319.602 156.013 319.602C157.183 319.602 158.173 318.81 158.173 317.568V316.092ZM161.429 318.27H163.571C163.715 319.08 164.273 319.602 165.443 319.602C166.541 319.602 167.153 319.134 167.153 318.324C167.153 317.694 166.883 317.298 165.893 317.19L164.255 316.992C162.383 316.758 161.627 315.84 161.627 314.4C161.627 312.636 163.103 311.358 165.371 311.358C167.765 311.358 168.953 312.78 169.061 314.148H166.973C166.865 313.41 166.325 312.906 165.335 312.906C164.327 312.906 163.679 313.41 163.679 314.166C163.679 314.742 164.021 315.12 165.065 315.246L166.685 315.444C168.503 315.66 169.241 316.524 169.241 318.054C169.241 319.98 167.585 321.15 165.425 321.15C162.923 321.15 161.609 319.89 161.429 318.27ZM172.636 315.156V320.934H170.512V307.614H172.636V312.672H172.708C173.32 311.862 174.094 311.358 175.336 311.358C177.19 311.358 178.378 312.726 178.378 314.832V320.934H176.254V315.012C176.254 313.932 175.786 313.158 174.562 313.158C173.302 313.158 172.636 314.058 172.636 315.156Z" fill="white"/>
<g clip-path="url(#clip3_10062_429)">
<path d="M19 373.908C19 386.897 29.3401 397.502 42.2302 397.895V396.408C30.1808 396.015 20.4852 386.084 20.4852 373.908C20.4852 361.732 30.1808 351.829 42.2302 351.436V349.921C29.3401 350.314 19 360.918 19 373.908Z" fill="white"/>
<path d="M66.9737 373.908C66.9737 386.897 56.6055 397.502 43.7434 397.895V396.408C55.7929 396.015 65.4885 386.084 65.4885 373.908C65.4885 361.732 55.7929 351.829 43.7434 351.408V349.921C56.6335 350.314 66.9737 360.918 66.9737 373.908Z" fill="white"/>
<path d="M36.162 378.865H36.4518C36.6776 378.865 36.8524 378.886 36.9674 378.924C37.0825 378.963 37.1762 379.031 37.2402 379.125C37.3041 379.219 37.3382 379.33 37.3382 379.458C37.3382 379.658 37.27 379.807 37.1379 379.906C37.0058 380.004 36.7671 380.055 36.4262 380.055H36.1663V378.865H36.162ZM35.3523 382.47H36.162V380.806H36.4518C36.8907 380.806 37.2146 380.759 37.4234 380.669C37.6322 380.575 37.807 380.426 37.9433 380.213C38.0797 379.999 38.1479 379.752 38.1479 379.462C38.1479 379.27 38.118 379.103 38.0626 378.95C38.0072 378.801 37.9263 378.668 37.8283 378.553C37.726 378.442 37.6194 378.353 37.5001 378.289C37.3808 378.225 37.2487 378.178 37.0953 378.152C36.9419 378.122 36.7288 378.109 36.4518 378.109H35.3523V382.47Z" fill="white"/>
<path d="M54.2055 362.169C53.8603 362.169 53.5833 362.447 53.5833 362.792V386.647C53.5833 387.619 52.7907 388.413 51.8148 388.413H34.1804C33.3707 388.413 32.7102 387.756 32.7102 386.945V361.299C32.7102 360.488 33.3707 359.831 34.1804 359.831H49.7224C50.532 359.831 51.1926 360.488 51.1926 361.299V383.963C51.1926 384.769 50.532 385.431 49.7224 385.431H35.3737C35.0285 385.431 34.7515 385.708 34.7515 386.054C34.7515 386.399 35.0285 386.677 35.3737 386.677H49.7224C51.2182 386.677 52.437 385.461 52.437 383.967V361.303C52.437 359.81 51.2182 358.594 49.7224 358.594H34.1804C32.6846 358.594 31.4658 359.81 31.4658 361.303V386.95C31.4658 388.443 32.6846 389.659 34.1804 389.659H51.8148C53.4768 389.659 54.8277 388.311 54.8277 386.651V362.797C54.8277 362.455 54.5507 362.174 54.2055 362.174" fill="white"/>
<path d="M43.7817 381.808C43.5857 381.808 43.4322 381.74 43.3214 381.599C43.249 381.51 43.2064 381.386 43.1851 381.224H42.3328C42.3455 381.365 42.3626 381.484 42.3924 381.578C42.4308 381.706 42.4862 381.83 42.5629 381.945C42.6396 382.06 42.7419 382.167 42.8612 382.261C42.9848 382.355 43.1254 382.431 43.2831 382.483C43.4408 382.538 43.607 382.564 43.7732 382.564C44.1056 382.564 44.3954 382.47 44.6468 382.282C44.9962 382.022 45.171 381.659 45.171 381.203C45.171 381.019 45.1454 380.857 45.0943 380.708C45.0431 380.558 44.9664 380.43 44.8684 380.315C44.7704 380.204 44.6383 380.102 44.4721 380.012C44.3613 379.953 44.1823 379.88 43.9351 379.799C43.6879 379.714 43.526 379.641 43.4536 379.577C43.3513 379.492 43.3044 379.377 43.3044 379.231C43.3044 379.099 43.347 378.988 43.4322 378.903C43.5175 378.822 43.6283 378.779 43.7689 378.779C43.9223 378.779 44.0417 378.83 44.1269 378.929C44.1823 378.993 44.2206 379.108 44.2462 379.27H45.0729C45.0602 379.091 45.0261 378.937 44.9749 378.805C44.9238 378.673 44.8428 378.549 44.7363 378.434C44.6297 378.318 44.4891 378.22 44.3229 378.144C44.1525 378.067 43.9692 378.024 43.7689 378.024C43.5473 378.024 43.3342 378.08 43.1339 378.186C42.9336 378.293 42.776 378.446 42.6652 378.643C42.5544 378.839 42.499 379.052 42.499 379.287C42.499 379.47 42.5331 379.637 42.6012 379.795C42.6694 379.948 42.7632 380.081 42.8825 380.183C43.0018 380.285 43.1851 380.383 43.428 380.477C43.786 380.618 43.9948 380.703 44.0587 380.738C44.1695 380.797 44.2505 380.866 44.3016 380.942C44.3527 381.019 44.3783 381.117 44.3783 381.232C44.3783 381.399 44.3229 381.535 44.2121 381.646C44.1013 381.757 43.9607 381.808 43.7902 381.808" fill="white"/>
<path d="M47.1486 381.808C46.9483 381.808 46.7992 381.74 46.6884 381.599C46.6159 381.51 46.5733 381.386 46.552 381.224H45.6997C45.7125 381.365 45.7295 381.484 45.7594 381.578C45.7935 381.706 45.8531 381.83 45.9298 381.945C46.0065 382.06 46.1088 382.167 46.2281 382.261C46.3517 382.355 46.4924 382.431 46.65 382.483C46.8077 382.538 46.9739 382.564 47.1401 382.564C47.4725 382.564 47.7623 382.47 48.0137 382.282C48.3632 382.022 48.5379 381.659 48.5379 381.203C48.5379 381.019 48.5123 380.857 48.4569 380.708C48.4058 380.558 48.3291 380.43 48.2311 380.315C48.1331 380.204 48.001 380.102 47.8348 380.012C47.724 379.953 47.545 379.88 47.2978 379.799C47.0506 379.714 46.8887 379.641 46.812 379.577C46.714 379.492 46.6628 379.377 46.6628 379.231C46.6628 379.099 46.7054 378.988 46.7907 378.903C46.8759 378.822 46.9867 378.779 47.1273 378.779C47.285 378.779 47.4043 378.83 47.4853 378.929C47.5407 378.993 47.5791 379.108 47.6046 379.27H48.4271C48.4143 379.091 48.3802 378.937 48.3291 378.805C48.278 378.673 48.197 378.549 48.0904 378.434C47.9839 378.318 47.8433 378.22 47.6771 378.144C47.5066 378.067 47.3234 378.024 47.1231 378.024C46.9015 378.024 46.6884 378.08 46.4881 378.186C46.2878 378.293 46.1301 378.446 46.0193 378.643C45.9085 378.839 45.8531 379.052 45.8531 379.287C45.8531 379.47 45.8872 379.637 45.9554 379.795C46.0236 379.948 46.1173 380.081 46.2367 380.183C46.356 380.285 46.5392 380.383 46.7821 380.477C47.1444 380.618 47.3532 380.703 47.4129 380.738C47.5237 380.797 47.6046 380.866 47.6558 380.942C47.7069 381.019 47.7325 381.117 47.7325 381.232C47.7325 381.399 47.6771 381.535 47.5663 381.646C47.4555 381.757 47.3148 381.808 47.1444 381.808" fill="white"/>
<path d="M44.6722 372.716C45.0132 372.213 45.2987 371.603 45.516 370.912C46.1851 370.702 46.7732 370.429 47.259 370.101C46.7306 371.244 45.8143 372.17 44.6765 372.716M37.4191 370.101C37.9006 370.425 38.493 370.698 39.162 370.912C39.3751 371.607 39.6649 372.217 40.0058 372.716C38.868 372.17 37.9518 371.244 37.4233 370.101M40.0016 362.967C39.6606 363.471 39.3751 364.081 39.1578 364.772C38.4887 364.981 37.9006 365.254 37.4148 365.583C37.9432 364.439 38.8637 363.513 39.9973 362.967M47.259 365.583C46.7774 365.258 46.1851 364.985 45.516 364.772C45.3029 364.077 45.0174 363.466 44.6722 362.967C45.8101 363.513 46.7263 364.439 47.2547 365.583M45.9422 368.309H47.6639C47.4252 368.881 46.7604 369.435 45.7802 369.832C45.8697 369.35 45.9251 368.838 45.9464 368.309M42.8057 370.425V368.305H45.0089C44.9791 368.962 44.8896 369.585 44.7489 370.156C44.1694 370.297 43.5174 370.395 42.8057 370.421M42.8057 373.16V371.36C43.3725 371.338 43.9179 371.278 44.4293 371.18C44.0287 372.196 43.4534 372.921 42.8057 373.16ZM41.8724 371.36V373.16C41.2246 372.917 40.6493 372.191 40.2487 371.18C40.7601 371.274 41.3056 371.338 41.8724 371.36ZM39.6692 368.309H41.8724V370.429C41.1607 370.4 40.513 370.306 39.9291 370.165C39.7885 369.593 39.699 368.966 39.6692 368.313M38.7359 368.309C38.7572 368.838 38.8126 369.35 38.9021 369.832C37.9177 369.431 37.2529 368.881 37.0185 368.309H38.7401H38.7359ZM38.7359 367.375H37.0142C37.2529 366.803 37.9177 366.248 38.8978 365.851C38.8083 366.334 38.7529 366.845 38.7316 367.375M41.8724 365.258V367.379H39.6692C39.699 366.722 39.7885 366.099 39.9291 365.527C40.513 365.386 41.1607 365.288 41.8724 365.263M41.8724 362.523V364.324C41.3056 364.345 40.7601 364.405 40.2487 364.503C40.6493 363.488 41.2246 362.762 41.8724 362.523ZM42.8057 364.324V362.523C43.4534 362.767 44.0287 363.492 44.4293 364.503C43.9179 364.405 43.3725 364.345 42.8057 364.324ZM45.0089 367.375H42.8057V365.254C43.5174 365.284 44.1651 365.378 44.7489 365.519C44.8896 366.09 44.9791 366.717 45.0089 367.37M45.9422 367.375C45.9209 366.845 45.8655 366.334 45.776 365.851C46.7561 366.252 47.4252 366.803 47.6596 367.375H45.9379H45.9422ZM42.3369 361.5C38.8339 361.5 35.9829 364.345 35.9829 367.84C35.9829 371.334 38.8339 374.18 42.3369 374.18C45.8399 374.18 48.6909 371.334 48.6909 367.84C48.6909 364.345 45.8399 361.5 42.3369 361.5Z" fill="white"/>
<path d="M39.9634 379.249L40.4578 380.588H39.4563L39.9506 379.249H39.9634ZM37.8284 382.47H38.719L39.1878 381.343H40.7561L41.2206 382.47H42.1155L40.283 378.109H39.6523L37.8326 382.47H37.8284Z" fill="white"/>
</g>
<path d="M79.6876 359.128H85.0156C87.7876 359.128 89.4976 360.694 89.4976 363.25C89.4976 365.86 87.7696 367.408 85.0156 367.408H81.9196V371.908H79.6876V359.128ZM84.6376 365.59C86.2576 365.59 87.2296 364.942 87.2296 363.25C87.2296 361.612 86.2576 360.946 84.6376 360.946H81.9196V365.59H84.6376ZM95.6118 370.666C95.1258 371.494 94.1898 372.124 92.8398 372.124C91.0758 372.124 89.8518 371.062 89.8518 369.334C89.8518 367.498 91.2378 366.796 92.7498 366.598L94.7118 366.346C95.4678 366.256 95.6298 365.95 95.6298 365.356C95.6298 364.51 95.1258 363.898 93.9918 363.898C92.8578 363.898 92.2818 364.528 92.2098 365.428H90.0318C90.0858 363.862 91.3998 362.332 93.9378 362.332C96.3678 362.332 97.7538 363.754 97.7538 365.824V370.306C97.7538 370.882 97.8438 371.458 97.9338 371.908H95.7558C95.7018 371.548 95.6658 371.152 95.6658 370.666H95.6118ZM95.6478 367.066C95.3418 367.354 94.9458 367.498 94.4598 367.588L93.5238 367.804C92.5698 368.002 91.9938 368.38 91.9938 369.244C91.9938 370.126 92.5158 370.576 93.4878 370.576C94.6578 370.576 95.6478 369.784 95.6478 368.542V367.066ZM98.9033 369.244H101.045C101.189 370.054 101.747 370.576 102.917 370.576C104.015 370.576 104.627 370.108 104.627 369.298C104.627 368.668 104.357 368.272 103.367 368.164L101.729 367.966C99.8573 367.732 99.1013 366.814 99.1013 365.374C99.1013 363.61 100.577 362.332 102.845 362.332C105.239 362.332 106.427 363.754 106.535 365.122H104.447C104.339 364.384 103.799 363.88 102.809 363.88C101.801 363.88 101.153 364.384 101.153 365.14C101.153 365.716 101.495 366.094 102.539 366.22L104.159 366.418C105.977 366.634 106.715 367.498 106.715 369.028C106.715 370.954 105.059 372.124 102.899 372.124C100.397 372.124 99.0833 370.864 98.9033 369.244ZM107.446 369.244H109.588C109.732 370.054 110.29 370.576 111.46 370.576C112.558 370.576 113.17 370.108 113.17 369.298C113.17 368.668 112.9 368.272 111.91 368.164L110.272 367.966C108.4 367.732 107.644 366.814 107.644 365.374C107.644 363.61 109.12 362.332 111.388 362.332C113.782 362.332 114.97 363.754 115.078 365.122H112.99C112.882 364.384 112.342 363.88 111.352 363.88C110.344 363.88 109.696 364.384 109.696 365.14C109.696 365.716 110.038 366.094 111.082 366.22L112.702 366.418C114.52 366.634 115.258 367.498 115.258 369.028C115.258 370.954 113.602 372.124 111.442 372.124C108.94 372.124 107.626 370.864 107.446 369.244ZM118.725 370.648H118.653V374.968H116.529V362.548H118.653V363.808H118.725C119.247 362.944 120.291 362.332 121.497 362.332C123.765 362.332 125.367 364.258 125.367 367.228C125.367 370.198 123.765 372.124 121.497 372.124C120.291 372.124 119.247 371.512 118.725 370.648ZM118.653 367.714C118.653 369.37 119.571 370.432 120.921 370.432C122.361 370.432 123.207 369.424 123.207 367.588V366.886C123.207 365.05 122.361 364.024 120.921 364.024C119.571 364.024 118.653 365.086 118.653 366.742V367.714ZM126.115 367.228C126.115 364.258 127.897 362.332 130.561 362.332C133.207 362.332 135.007 364.258 135.007 367.228C135.007 370.198 133.207 372.124 130.561 372.124C127.897 372.124 126.115 370.198 126.115 367.228ZM132.847 366.832C132.847 365.05 131.929 364.024 130.561 364.024C129.175 364.024 128.275 365.05 128.275 366.832V367.606C128.275 369.388 129.175 370.432 130.561 370.432C131.929 370.432 132.847 369.388 132.847 367.606V366.832ZM138.393 366.922V371.908H136.269V362.548H138.393V363.934H138.465C138.915 362.926 139.671 362.548 140.463 362.548H141.471V364.528H140.553C139.095 364.528 138.393 365.23 138.393 366.922ZM143.622 369.19V364.15H141.84V362.548H143.622V359.128H145.746V362.548H147.87V364.15H145.746V368.992C145.746 369.82 146.16 370.162 146.988 370.162H147.87V371.908H146.628C144.612 371.908 143.622 370.99 143.622 369.19ZM79.0576 386.244H81.1996C81.3436 387.054 81.9016 387.576 83.0716 387.576C84.1696 387.576 84.7816 387.108 84.7816 386.298C84.7816 385.668 84.5116 385.272 83.5216 385.164L81.8836 384.966C80.0116 384.732 79.2556 383.814 79.2556 382.374C79.2556 380.61 80.7316 379.332 82.9996 379.332C85.3936 379.332 86.5816 380.754 86.6896 382.122H84.6016C84.4936 381.384 83.9536 380.88 82.9636 380.88C81.9556 380.88 81.3076 381.384 81.3076 382.14C81.3076 382.716 81.6496 383.094 82.6936 383.22L84.3136 383.418C86.1316 383.634 86.8696 384.498 86.8696 386.028C86.8696 387.954 85.2136 389.124 83.0536 389.124C80.5516 389.124 79.2376 387.864 79.0576 386.244ZM96.3125 386.136C95.8625 387.72 94.4045 389.124 92.1725 389.124C89.4185 389.124 87.6365 387.198 87.6365 384.228C87.6365 381.258 89.4545 379.332 92.0825 379.332C94.7465 379.332 96.3845 381.258 96.3845 384.228V384.732H89.7965C89.8325 386.442 90.7505 387.468 92.1725 387.468C93.2885 387.468 93.9005 386.946 94.2065 386.136H96.3125ZM92.0825 380.988C90.8585 380.988 89.9945 381.816 89.8325 383.274H94.2425C94.1165 381.87 93.3605 380.988 92.0825 380.988ZM99.7743 383.922V388.908H97.6503V379.548H99.7743V380.934H99.8463C100.296 379.926 101.052 379.548 101.844 379.548H102.852V381.528H101.934C100.476 381.528 99.7743 382.23 99.7743 383.922ZM103.094 379.548H105.344L107.864 386.604L110.366 379.548H112.526L109.106 388.908H106.532L103.094 379.548ZM113.025 376.776C113.025 376.02 113.601 375.444 114.357 375.444C115.095 375.444 115.689 376.02 115.689 376.776C115.689 377.514 115.095 378.108 114.357 378.108C113.601 378.108 113.025 377.514 113.025 376.776ZM113.295 379.548H115.419V388.908H113.295V379.548ZM116.676 384.228C116.676 381.258 118.422 379.332 121.086 379.332C123.408 379.332 124.884 380.754 125.154 382.626H123.03C122.85 381.6 122.148 381.024 121.086 381.024C119.736 381.024 118.836 382.068 118.836 383.85V384.624C118.836 386.406 119.736 387.432 121.086 387.432C122.22 387.432 122.85 386.766 123.048 385.794H125.172C124.902 387.612 123.408 389.124 121.086 389.124C118.422 389.124 116.676 387.198 116.676 384.228ZM134.51 386.136C134.06 387.72 132.602 389.124 130.37 389.124C127.616 389.124 125.834 387.198 125.834 384.228C125.834 381.258 127.652 379.332 130.28 379.332C132.944 379.332 134.582 381.258 134.582 384.228V384.732H127.994C128.03 386.442 128.948 387.468 130.37 387.468C131.486 387.468 132.098 386.946 132.404 386.136H134.51ZM130.28 380.988C129.056 380.988 128.192 381.816 128.03 383.274H132.44C132.314 381.87 131.558 380.988 130.28 380.988ZM135.308 386.244H137.45C137.594 387.054 138.152 387.576 139.322 387.576C140.42 387.576 141.032 387.108 141.032 386.298C141.032 385.668 140.762 385.272 139.772 385.164L138.134 384.966C136.262 384.732 135.506 383.814 135.506 382.374C135.506 380.61 136.982 379.332 139.25 379.332C141.644 379.332 142.832 380.754 142.94 382.122H140.852C140.744 381.384 140.204 380.88 139.214 380.88C138.206 380.88 137.558 381.384 137.558 382.14C137.558 382.716 137.9 383.094 138.944 383.22L140.564 383.418C142.382 383.634 143.12 384.498 143.12 386.028C143.12 387.954 141.464 389.124 139.304 389.124C136.802 389.124 135.488 387.864 135.308 386.244Z" fill="white"/>
<defs>
<clipPath id="clip0_10062_429">
<rect width="47.9737" height="47.9737" fill="white" transform="translate(19 146)"/>
</clipPath>
<clipPath id="clip1_10062_429">
<rect width="47.9737" height="47.9737" fill="white" transform="translate(19 213.974)"/>
</clipPath>
<clipPath id="clip2_10062_429">
<rect width="47.9737" height="47.9737" fill="white" transform="translate(19 281.947)"/>
</clipPath>
<clipPath id="clip3_10062_429">
<rect width="47.9737" height="47.9737" fill="white" transform="translate(19 349.921)"/>
</clipPath>
</defs>
</svg>
