<svg width="104" height="28" viewBox="0 0 104 28" fill="none" xmlns="http://www.w3.org/2000/svg">
<rect width="103.241" height="27.1393" rx="3.96798" fill="white"/>
<path d="M18.6445 12.866V14.1669H14.5887V18.0697H12.9689V9.01421H18.9889V10.3279H14.5887V12.866H18.6445ZM19.8311 9.53713C19.8311 8.9887 20.252 8.58056 20.7877 8.58056C21.3233 8.58056 21.7442 8.9887 21.7442 9.53713C21.7442 10.0728 21.3233 10.4937 20.7877 10.4937C20.252 10.4937 19.8311 10.0728 19.8311 9.53713ZM20.0224 11.5013H21.5529V18.0697H20.0224V11.5013ZM24.6109 14.0521V18.0697H23.0804V11.5013H24.6109V12.2793H24.662C25.0956 11.7053 25.6823 11.3482 26.5878 11.3482C27.927 11.3482 28.8071 12.3175 28.8071 13.8098V18.0697H27.2766V13.9501C27.2766 13.1976 26.9067 12.6492 26.0267 12.6492C25.1083 12.6492 24.6109 13.2869 24.6109 14.0521ZM29.9034 14.7791C29.9034 12.6747 31.0896 11.3482 32.6966 11.3482C33.5894 11.3482 34.3164 11.7691 34.6863 12.3813H34.75V8.44027H36.2805V18.0697H34.75V17.1897H34.6863C34.3164 17.8019 33.5894 18.2228 32.6966 18.2228C31.0896 18.2228 29.9034 16.8836 29.9034 14.7791ZM31.4722 15.0342C31.4722 16.3224 32.0972 17.0111 33.1175 17.0111C34.0868 17.0111 34.75 16.2586 34.75 15.098V14.473C34.75 13.3124 34.0868 12.5599 33.1175 12.5599C32.0972 12.5599 31.4722 13.2486 31.4722 14.5368V15.0342ZM40.0675 14.7791C40.0675 12.6747 41.3556 11.3482 43.2815 11.3482C45.2074 11.3482 46.4956 12.6747 46.4956 14.7791C46.4956 16.8836 45.2074 18.2228 43.2815 18.2228C41.3556 18.2228 40.0675 16.8836 40.0675 14.7791ZM44.9396 15.0597V14.5113C44.9396 13.2741 44.2891 12.5599 43.2815 12.5599C42.2867 12.5599 41.6235 13.2741 41.6235 14.5113V15.0597C41.6235 16.2969 42.2867 17.0111 43.2815 17.0111C44.2891 17.0111 44.9396 16.2969 44.9396 15.0597ZM51.7884 15.5444V11.5013H53.3189V18.0697H51.7884V17.3172H51.7374C51.3037 17.8911 50.717 18.2228 49.8115 18.2228C48.4723 18.2228 47.5795 17.2917 47.5795 15.7995V11.5013H49.11V15.6464C49.11 16.3989 49.4926 16.9218 50.3727 16.9218C51.2782 16.9218 51.7884 16.2969 51.7884 15.5444ZM55.3846 16.1311V12.6492H54.0836V11.5013H55.3973V9.01421H56.9151V11.5013H58.4966V12.6492H56.9151V15.978C56.9151 16.5647 57.2212 16.807 57.7951 16.807H58.4966V18.0697H57.5528C56.0988 18.0697 55.3846 17.4192 55.3846 16.1311ZM63.7659 14.0139V18.0697H62.2354V11.5013H63.7659V12.2793H63.8169C64.1868 11.7691 64.748 11.3482 65.6408 11.3482C66.4698 11.3482 67.0947 11.7436 67.4391 12.4196H67.4901C67.911 11.8074 68.5487 11.3482 69.5435 11.3482C70.8827 11.3482 71.6863 12.3175 71.6863 13.7715V18.0697H70.1558V14.0139C70.1558 13.2231 69.8241 12.6492 69.0206 12.6492C68.1916 12.6492 67.7325 13.2869 67.7325 14.0139V18.0697H66.2019V14.0139C66.2019 13.2231 65.8703 12.6492 65.0668 12.6492C64.2378 12.6492 63.7659 13.2869 63.7659 14.0139ZM72.7701 14.7791C72.7701 12.6747 74.0582 11.3482 75.9841 11.3482C77.91 11.3482 79.1982 12.6747 79.1982 14.7791C79.1982 16.8836 77.91 18.2228 75.9841 18.2228C74.0582 18.2228 72.7701 16.8836 72.7701 14.7791ZM77.6422 15.0597V14.5113C77.6422 13.2741 76.9917 12.5599 75.9841 12.5599C74.9893 12.5599 74.3261 13.2741 74.3261 14.5113V15.0597C74.3261 16.2969 74.9893 17.0111 75.9841 17.0111C76.9917 17.0111 77.6422 16.2969 77.6422 15.0597ZM81.8764 14.6388V18.0697H80.3459V11.5013H81.8764V12.4834H81.9274C82.2463 11.7691 82.7819 11.5013 83.3431 11.5013H84.1721V12.9298H83.4069C82.3738 12.9298 81.8764 13.4144 81.8764 14.6388ZM90.7032 16.0928C90.3843 17.2279 89.3385 18.2228 87.7187 18.2228C85.7163 18.2228 84.4536 16.8836 84.4536 14.7791C84.4536 12.6747 85.7418 11.3482 87.6549 11.3482C89.5808 11.3482 90.7542 12.6874 90.7542 14.7791V15.149H86.0096C86.0479 16.3351 86.6856 17.0366 87.7187 17.0366C88.535 17.0366 88.9686 16.6795 89.1727 16.0928H90.7032ZM87.6549 12.5216C86.7621 12.5216 86.1627 13.0956 86.0352 14.1031H89.211C89.1217 13.1338 88.586 12.5216 87.6549 12.5216Z" fill="#DC1928"/>
</svg>
