<svg width="103" height="55" viewBox="0 0 103 55" fill="none" xmlns="http://www.w3.org/2000/svg">
  <defs>
    <clipPath id="clippath">
      <rect x="68.2" y="0" width="33.9" height="39.9" fill="none" stroke-width="0"/>
    </clipPath>
    <clipPath id="clippath-1">
      <rect x="68.2" y="-.1" width="33.9" height="40.3" fill="none" stroke-width="0"/>
    </clipPath>
  </defs>
  <path d="M47.3,3.1v6.4h-9.4V.2h6.4c1.6,0,2.9,1.3,2.9,2.9Z" fill="#fff" stroke-width="0"/>
  <path d="M47.3,18.9h-9.4v9.4h9.4v-9.4Z" fill="#fff" stroke-width="0"/>
  <path d="M28.5.2h-9.4v9.4h9.4V.2Z" fill="#ffd000" stroke-width="0"/>
  <path d="M9.8,7.7V.2H.4v25.2c0,1.6,1.3,2.9,2.9,2.9h6.4v-7.5c0-1,.8-1.9,1.9-1.9h7.5v-9.4h-7.5c-1,0-1.9-.8-1.9-1.9Z" fill="#fff" stroke-width="0"/>
  <path d="M28.5,18.9h-9.4v9.4h9.4v-9.4Z" fill="#fff" stroke-width="0"/>
  <path d="M10.6,38.6c-.6,0-1.2-.2-1.6-.6-.4-.4-.6-1-.6-1.6s.2-1.2.6-1.6c.4-.4,1-.6,1.6-.6s1.1.2,1.6.6c.4.4.6,1,.6,1.6s-.2,1.2-.6,1.6c-.4.4-1,.7-1.6.7ZM13.2,33.8c-.7-.6-1.5-1-2.6-1s-1.9.3-2.5,1c-.7.6-1,1.5-1,2.5s.3,1.8,1,2.4c.7.6,1.5,1,2.5,1s1.9-.3,2.6-1c.7-.6,1-1.5,1-2.4s-.3-1.8-1-2.4ZM41,32.9v3.7c0,1.1-.4,1.8-1.6,1.8s-1.6-.7-1.6-1.8v-3.7h-1.3v4c0,2,1.3,2.7,2.9,2.7s2.9-.8,2.9-2.7v-4h-1.3ZM33.2,32.9v5.5h2.8v1.2h-4.1v-6.7h1.3ZM28.6,36c.6,0,1.2-.3,1.2-.9s-.4-.9-1.2-.9h-.8v1.9h.8ZM28.9,32.9c1.4,0,2.1.9,2.1,2.1s-.9,2.1-2.1,2.1h-1.1v2.5h-1.3v-6.7h2.4ZM25.6,32.9v1.2h-2.2v5.5h-1.3v-5.5h-2.2v-1.2h5.7ZM45.4,32.9c.6,0,1.3.2,1.9.5v1.3c-.7-.4-1.2-.7-1.9-.7s-.9.2-1,.6c0,.3.1.5.5.7,0,0,.4.2,1.1.6.5.3.9.5,1.2.9.2.3.4.7.4,1.1s-.2,1-.6,1.4c-.4.4-.9.5-1.6.5s-.8,0-1.1-.1c-.3,0-.6-.3-1-.5v-1.5c.7.6,1.4,1,2,1s1-.2,1-.6-.1-.5-.5-.7c-.3-.2-.6-.3-1.1-.6-.5-.3-.9-.5-1.2-.9-.3-.3-.4-.7-.4-1.1s.2-1,.6-1.3c.4-.3,1-.5,1.7-.5M17.2,32.9c.6,0,1.3.2,1.9.5v1.3c-.7-.4-1.2-.7-1.9-.7s-.9.2-1,.6c0,.3.1.5.5.7,0,0,.4.2,1.1.6.5.3.9.5,1.2.9.2.3.4.7.4,1.1s-.2,1-.6,1.4-.9.5-1.6.5-.8,0-1.1-.1c-.3,0-.6-.3-1-.5v-1.5c.7.6,1.4,1,2,1s1-.2,1-.6-.1-.5-.5-.7c-.3-.2-.6-.3-1.1-.6-.5-.3-.9-.5-1.2-.9-.3-.3-.4-.7-.4-1.1s.2-1,.6-1.3c.4-.3,1-.5,1.7-.5M1.7,32.9v2.7h3.2v-2.7h1.3v6.7h-1.3v-2.7H1.7v2.7H.4v-6.7h1.3Z" fill="#fff" stroke-width="0"/>
  <line x1="58.2" y1="0" x2="58.2" y2="39.9" fill="none" stroke="#fff" stroke-width=".3"/>
  <g clip-path="url(#clippath)">
    <g clip-path="url(#clippath-1)">
      <g>
        <path d="M95.6,32.6c0-.2,0-.3-.3-.3h-.5l-.3,1.2h.6c.3,0,.4-.1.5-.3,0-.2,0-.3-.2-.3h0c.1,0,.2-.1.2-.3h0ZM95.2,33.2c0,.1,0,.1-.2.1h-.2v-.3h.3c.1,0,.2,0,.1.1h0ZM95.3,32.7c0,0,0,.1-.2.1h-.2v-.2h.3c0,0,.1,0,.1.1h0Z" fill="#fff" stroke-width="0"/>
        <path d="M95.6,25.2c-3.3,3.9-11.5,4.9-11.5,4.9,0,0,5.1-4.5,5.8-9.8l-5-.8v5.6l-5.8,6.5h6.4c1.9,0,7.6-.2,12.2-4.5l-2.2-2Z" fill="#fff" stroke-width="0"/>
        <path d="M93.2,32.5v-.2s-.8,0-.8,0l-.3,1.2h.9v-.2s-.5,0-.5,0v-.3h.5v-.2s-.4,0-.4,0v-.2h.6Z" fill="#fff" stroke-width="0"/>
        <path d="M91.5,33.5h.3l.3-1.2h-.4l-.4.7h0v-.7h-.5l-.3,1.2h.3v-.6c.1,0,.2-.2.2-.2h0l.2.8h.1l.5-.8h0v.2s-.2.6-.2.6Z" fill="#fff" stroke-width="0"/>
        <path d="M93.6,32.3l-.3,1.2h.8v-.2s-.5,0-.5,0l.2-1h-.3Z" fill="#fff" stroke-width="0"/>
        <path d="M93.1,31.5c3.2-.5,5.1-1.8,6.4-2.7l-.8-.8c-.8.7-2.6,2.2-5.6,3.4Z" fill="#fff" stroke-width="0"/>
        <path d="M95.8,32.9c0,.3,0,.6.4.6s.6-.3.7-.6c0-.3,0-.6-.4-.6s-.6.3-.7.6h0ZM96.6,32.9c0,.2-.2.4-.4.4s-.2-.2-.2-.4c0-.2.2-.4.4-.4s.2.2.2.4h0Z" fill="#fff" stroke-width="0"/>
        <path d="M99.6,32.7c0-.2,0-.4-.3-.4h-.5l-.3,1.2h.3l.2-1h.2c0,0,.2,0,.1.2,0,.1-.1.2-.2.2h-.1v.7h.4v-.5c0,0,.2-.2.2-.4h0Z" fill="#fff" stroke-width="0"/>
        <path d="M100,33.1v-.3h0l.3.7h.3l.3-1.2h-.3v.5c0,0-.2.3-.2.3h0l-.3-.8h-.3l-.3,1.2h.3v-.5Z" fill="#fff" stroke-width="0"/>
        <path d="M83.4,21.4l-4.8-4-.9.7c1.4,2.4,4.2,4.4,4.2,4.4v2.1s-4.4,7.1-4.4,7.1l5.8-6.9v-3.5s0,0,0,0Z" fill="#fff" stroke-width="0"/>
        <path d="M97.6,32.3h-.3l-.2.8c0,.3.1.5.4.5s.5-.1.6-.5l.2-.8h-.3l-.2.8c0,.1,0,.2-.3.2s-.2-.1-.2-.2l.2-.8Z" fill="#fff" stroke-width="0"/>
        <path d="M88.9,34.9c-.3-.3-.8-.6-1.4-.6-2.1-.1-3.3,1.4-3.6,3.2-.2,1.3.3,2.4,1.9,2.5.8,0,1.6-.1,2.1-.5.9-.6,1.3-1.6,1.5-2.7.1-.8,0-1.4-.4-1.9h0ZM87.7,36.8c-.2,1.2-.7,1.9-1.6,1.9-.6,0-.8-.4-.6-1.2.2-1.2.7-1.9,1.6-1.9.6,0,.8.4.6,1.2h0Z" fill="#fff" stroke-width="0"/>
        <path d="M84,35.6l.3-1.3h-4.4l-.3,1.3h1.5l-.9,4.3h1.6l.6-3.1-.3-1.2h1.8Z" fill="#fff" stroke-width="0"/>
        <path d="M94.6,35.9c0-1-.5-1.6-1.7-1.6h-2.4l-1.2,5.5h1.6l.7-3.1-.2-1.2h1.1c.4,0,.7.2.7.6,0,.5-.4.7-1,.7h-.6l.6,3.1h1.6l-.5-2.2c.8-.4,1.2-1,1.2-1.7h0Z" fill="#fff" stroke-width="0"/>
        <path d="M75.7,34.8c-.4.3-.6.8-.7,1.4,0,1.4,1.4,1.5,2.1,1.8.2,0,.3.2.3.3,0,.1-.1.3-.3.4-.2.1-.6.1-.8.1h-1.6l-.3,1.3h2c.7,0,1.5-.1,2-.5.4-.3.7-.9.7-1.6.1-1.7-2.4-1.4-2.4-2,0-.1,0-.2.2-.3.1,0,.4,0,.6,0h1.6l.3-1.3h-1.9c-.7,0-1.3.1-1.8.5h0Z" fill="#fff" stroke-width="0"/>
        <path d="M98.2,36.8h0l-.5-2.5h-2.1l-1.2,5.5h1.6l.6-2.7v-.5h0l.6,3h.5l1.9-3h0v.4c-.1,0-.7,2.8-.7,2.8h1.6l1.2-5.5h-2.1l-1.4,2.5Z" fill="#fff" stroke-width="0"/>
        <path d="M81,23.6c-2.2-1.3-4.4-4.6-4.4-4.6,1.3,3.1,3.9,4.7,4.4,5v-.5s0,0,0,0Z" fill="#fff" stroke-width="0"/>
        <path d="M80.8,11.4l-12.6,13.2,12-9.7.4,1.3,4.2-4.6h0c0,0,.3.1.3,0,0-.2-.2-1.1-.3-1.5,0,0,0-.1-.1-.2-.5-.2-2.5-1.1-2.3-1.4.2-.3,1.6-1.6,1.6-1.6,0,0-1.3.7-2.6,1.5-2.8,2.1-4.3,3.9-4.9,4.9-.4.7-.7,1.8-.7,1.8l5.6-5.9s1.3.3,2.8.9l-3.1,2.8-.4-1.6h0Z" fill="#fff" stroke-width="0"/>
        <path d="M102.1,32.5v-.2c0,0-.8,0-.8,0l-.3,1.2h.9v-.2s-.5,0-.5,0v-.3h.5v-.2s-.4,0-.4,0v-.2h.6Z" fill="#fff" stroke-width="0"/>
        <path d="M96.9,15.5c-.6.5-1.4,1.2-1.4,1.2l1.2,1.1v-2.2Z" fill="#fff" stroke-width="0"/>
        <path d="M97.2,15.3l.2,2.9.3.4-.9.6-1.4-2.2s-1.6,1.5-2.6,3.9l-1.4-.2s-.3,2.4-2.1,5.3c0,0,0,0,0,0,2.1-1.6,2.9-3.8,2.9-3.8,0,0,1.9,1.8,2.1,1.9,0,0,.2.1.4.2s.4.1.6,0c.2,0,.4,0,.5-.1.3-.4.6-.7.6-.7l-.7-.8v-.3c.1,0,1,.5,1,.5l.3-.3-1.4-.8-.8.2.2-.5.6-.3,1.1.8.4.2.2-.6-.5-.5v-.3s.9.4.9.4h.3c0-.1.1-2.2.1-2.2h.7c0,0,.5-3.1.5-3.1,0,0-2.9-2.6-5.3-3.7.8.9,3,3.1,3,3.1h0Z" fill="#fff" stroke-width="0"/>
        <path d="M90,19.6c.7-5.3,3.2-7.7,3.2-7.7-2.6,1.6-3.4,5.7-3.6,7.2l-4.5-.7c-.7-1-1.4-2.1-2.5-2.9l-.3.3c1.1.9,2,2.2,2.5,3.1.2,0,5,.8,5.1.8h0Z" fill="#fff" stroke-width="0"/>
        <path d="M87.8,8.2c0,.3,0,1.7,0,1.8,0,.1.4-.1.4-.3,0-.1,0-1.2,0-1.6L95.9-.1l-8.5,7.6c-.5-.3-1-.6-1-.6,0,0,1.3,1.1,1.3,1.1,0,0,0,0,0,.1h0Z" fill="#fff" stroke-width="0"/>
        <path d="M86.7,8.8c0,.3.1,1.9.1,1.9,0,0,.4-.1.4-.3,0-.1,0-1.5,0-1.8,0,0,0,0,0,0,0,0-1.6-.9-1.6-.9,0,0,1.2,1.1,1.2,1.1,0,0,0,0,0,.1Z" fill="#fff" stroke-width="0"/>
        <path d="M85.5,9.4c0,0,0,.1,0,.2,0,.4.2,1.8.2,1.9,0,0,.4-.1.4-.3,0-.1-.1-1.4-.1-1.7,0,0,0-.1,0-.1,0,0-1.6-1.1-1.6-1.1,0,0,1.1,1.1,1.2,1.1Z" fill="#fff" stroke-width="0"/>
      </g>
    </g>
  </g>
  <path d="M2.3,54.6c-.3,0-.5,0-.8-.1-.2-.1-.5-.2-.6-.4-.2-.2-.3-.4-.4-.6,0-.2-.1-.5-.1-.8s0-.5.1-.8c0-.2.2-.5.4-.6.2-.2.4-.3.6-.4.2-.1.5-.2.8-.2s.5,0,.8.2c.2,0,.4.2.6.4.2.2.3.4.4.6,0,.2.1.5.1.8s0,.5-.1.8c0,.2-.2.5-.4.6-.2.2-.4.3-.6.4-.2,0-.5.1-.8.1ZM2.3,53.8c.2,0,.4,0,.6-.2.2-.1.3-.3.4-.4,0-.2.1-.4.1-.6s0-.4-.1-.6c0-.2-.2-.3-.4-.4-.2-.1-.4-.2-.6-.2s-.4,0-.6.2c-.2.1-.3.3-.4.4,0,.2-.1.4-.1.6s0,.4.1.6c0,.2.2.3.4.4.2.1.4.2.6.2ZM4.9,54.5v-3.8h2.6v.8h-1.7v.9h1.3v.7h-1.3v1.4h-.9ZM7.9,54.5v-3.8h2.6v.8h-1.7v.9h1.3v.7h-1.3v1.4h-.9ZM11,54.5v-3.8h.9v3.8h-.9ZM15.5,53.3l.6.5c-.1.1-.2.3-.4.4-.2.1-.3.2-.6.3-.2,0-.4.1-.7.1-.4,0-.7,0-1-.3-.3-.2-.5-.4-.7-.7-.2-.3-.2-.6-.2-1s0-.5.1-.8c0-.2.2-.5.4-.6.2-.2.4-.3.6-.4.2-.1.5-.2.8-.2s.7,0,.9.2c.3.1.5.3.7.6l-.6.6c-.1-.2-.2-.3-.4-.4-.2,0-.3-.1-.6-.1s-.4,0-.6.2c-.2.1-.3.3-.4.4,0,.2-.1.4-.1.6s0,.4.1.6c0,.2.2.3.4.4.2.1.4.2.6.2s.3,0,.5,0c.1,0,.2-.1.3-.2,0,0,.2-.2.2-.3ZM16.5,54.5v-3.8h.9v3.8h-.9ZM17.8,54.5l1.4-3.8h1l1.4,3.8h-.9l-.3-.9h-1.3l-.3.9h-.9ZM19.2,53h.9l-.5-1.4-.5,1.4ZM22,54.5v-3.8h.9v3h1.8v.8h-2.7ZM25.9,54l.6-.6c0,.1.2.2.4.3.2.1.4.2.6.2s.2,0,.3,0c0,0,.2,0,.2-.1,0,0,0-.1,0-.2,0-.1,0-.3-.2-.3-.1,0-.4-.2-.7-.2-.3,0-.5-.2-.7-.4-.2-.2-.3-.4-.3-.7s0-.4.2-.6c.1-.2.3-.3.5-.4.2-.1.5-.2.8-.2s.5,0,.7.1c.2,0,.3.1.4.2.1,0,.2.1.2.2l-.5.5c0,0-.2-.1-.3-.2-.1,0-.3-.1-.5-.1s-.2,0-.3.1c-.1,0-.2.2-.2.3s0,.2.2.3c.1,0,.3.1.6.2.2,0,.4.1.5.2.2,0,.3.2.4.4.1.2.2.4.2.6s0,.4-.2.6c-.1.2-.3.3-.5.4-.2.1-.5.2-.7.2s-.5,0-.7,0c-.2,0-.4-.1-.5-.2-.1,0-.3-.2-.4-.3ZM29.5,53.1v-2.4h.9v2.3c0,.2,0,.4.2.6.1.2.3.2.6.2s.5,0,.6-.2c.1-.2.2-.4.2-.6v-2.3h.9v2.4c0,.3,0,.6-.2.8-.1.2-.3.4-.6.5-.2.1-.5.2-.8.2s-.6,0-.8-.2c-.2-.1-.4-.3-.6-.5-.1-.2-.2-.5-.2-.8ZM33.4,54.5v-3.8h1.4c.3,0,.6,0,.8.2.2.1.3.3.4.5,0,.2.1.4.1.6s0,.5-.2.7c-.1.2-.3.3-.5.4-.2,0-.4.1-.6.1h-.6v1.3h-.8ZM34.3,52.5h.5c.2,0,.3,0,.4-.1,0,0,.1-.2.1-.4s0-.3-.1-.4c0-.1-.2-.2-.4-.2h-.5v1.1ZM36.7,54.5v-3.8h2.6v.8h-1.7v.7h1.4v.7h-1.4v.8h1.9v.8h-2.7ZM40,54.5v-3.8h1.4c.3,0,.5,0,.7.2.2.1.3.3.4.4,0,.2.1.4.1.6s0,.5-.2.6c-.1.2-.3.3-.5.4l.8,1.5h-.9l-.7-1.4h-.5v1.4h-.8ZM40.9,52.4h.5c.2,0,.3,0,.4-.1,0,0,.1-.2.1-.4s0-.3-.1-.4c0,0-.2-.1-.4-.1h-.5v1ZM43.2,54.5l1.4-3.8h1l1.4,3.8h-.9l-.3-.9h-1.3l-.3.9h-.9ZM44.6,53h.9l-.5-1.4-.5,1.4ZM47.4,54.5v-3.8h.8l1.6,2.5v-2.5h.9v3.8h-.8l-1.7-2.5v2.5h-.9ZM51.4,54.5v-3.8h.8l1.6,2.5v-2.5h.9v3.8h-.8l-1.7-2.5v2.5h-.9ZM55.5,53.1v-2.4h.9v2.3c0,.2,0,.4.2.6.1.2.3.2.6.2s.5,0,.6-.2c.1-.2.2-.4.2-.6v-2.3h.9v2.4c0,.3,0,.6-.2.8-.1.2-.3.4-.6.5-.2.1-.5.2-.8.2s-.6,0-.8-.2c-.2-.1-.4-.3-.6-.5-.1-.2-.2-.5-.2-.8ZM58.9,54.5l1.4-3.8h1l1.4,3.8h-.9l-.3-.9h-1.3l-.3.9h-.9ZM60.2,53h.9l-.5-1.4-.5,1.4ZM63.4,54.5v-3h-1.2v-.8h3.3v.8h-1.2v3h-.9ZM66,54.5v-3.8h.9v3.8h-.9ZM69.4,54.6c-.3,0-.5,0-.8-.1-.2-.1-.5-.2-.6-.4-.2-.2-.3-.4-.4-.6,0-.2-.1-.5-.1-.8s0-.5.1-.8c0-.2.2-.5.4-.6.2-.2.4-.3.6-.4.2-.1.5-.2.8-.2s.5,0,.8.2c.2,0,.4.2.6.4.2.2.3.4.4.6,0,.2.1.5.1.8s0,.5-.1.8c0,.2-.2.5-.4.6-.2.2-.4.3-.6.4-.2,0-.5.1-.8.1ZM69.4,53.8c.2,0,.4,0,.6-.2.2-.1.3-.3.4-.4,0-.2.1-.4.1-.6s0-.4-.1-.6c0-.2-.2-.3-.4-.4-.2-.1-.4-.2-.6-.2s-.4,0-.6.2c-.2.1-.3.3-.4.4,0,.2-.1.4-.1.6s0,.4.1.6c0,.2.2.3.4.4.2.1.4.2.6.2ZM72,54.5v-3.8h.8l1.6,2.5v-2.5h.9v3.8h-.8l-1.7-2.5v2.5h-.9ZM77.1,54.5v-3.8h1.4c.3,0,.6,0,.8.2.2.1.3.3.4.5,0,.2.1.4.1.6s0,.5-.2.7c-.1.2-.3.3-.5.4-.2,0-.4.1-.6.1h-.6v1.3h-.8ZM77.9,52.5h.5c.2,0,.3,0,.4-.1,0,0,.1-.2.1-.4s0-.3-.1-.4c0-.1-.2-.2-.4-.2h-.5v1.1ZM79.6,54.5l1.4-3.8h1l1.4,3.8h-.9l-.3-.9h-1.3l-.3.9h-.9ZM81,53h.9l-.5-1.4-.5,1.4ZM83.8,54.5v-3.8h1.4c.3,0,.5,0,.7.2.2.1.3.3.4.4,0,.2.1.4.1.6s0,.5-.2.6c-.1.2-.3.3-.5.4l.8,1.5h-.9l-.7-1.4h-.5v1.4h-.8ZM84.6,52.4h.5c.2,0,.3,0,.4-.1,0,0,.1-.2.1-.4s0-.3-.1-.4c0,0-.2-.1-.4-.1h-.5v1ZM88.1,54.5v-3h-1.2v-.8h3.3v.8h-1.2v3h-.9ZM90.7,54.5v-3.8h.8l1.6,2.5v-2.5h.9v3.8h-.8l-1.7-2.5v2.5h-.9ZM94.7,54.5v-3.8h2.6v.8h-1.7v.7h1.4v.7h-1.4v.8h1.9v.8h-2.7ZM98.1,54.5v-3.8h1.4c.3,0,.5,0,.7.2.2.1.3.3.4.4,0,.2.1.4.1.6s0,.5-.2.6c-.1.2-.3.3-.5.4l.8,1.5h-.9l-.7-1.4h-.5v1.4h-.8ZM98.9,52.4h.5c.2,0,.3,0,.4-.1,0,0,.1-.2.1-.4s0-.3-.1-.4c0,0-.2-.1-.4-.1h-.5v1Z" fill="#fff" stroke-width="0"/>
</svg>