<svg width="151" height="34" viewBox="0 0 151 34" fill="none" xmlns="http://www.w3.org/2000/svg">
<rect x="0.833496" y="0.928711" width="148.918" height="32.1429" rx="4.39796" stroke="#DD5900"/>
<path d="M39.4925 22.16C36.3725 22.16 35.0605 20.608 34.9005 18.448H36.9485C37.0925 19.6 37.5565 20.56 39.4925 20.56C40.7565 20.56 41.6525 19.856 41.6525 18.8C41.6525 17.744 41.1245 17.344 39.2685 17.04C36.5325 16.672 35.2365 15.84 35.2365 13.696C35.2365 11.824 36.8365 10.416 39.2205 10.416C41.6845 10.416 43.1565 11.536 43.3805 13.728H41.4285C41.2205 12.528 40.5325 12.016 39.2205 12.016C37.9245 12.016 37.2525 12.64 37.2525 13.52C37.2525 14.448 37.6365 14.912 39.6205 15.2C42.3085 15.568 43.7005 16.336 43.7005 18.624C43.7005 20.608 42.0205 22.16 39.4925 22.16ZM47.7927 22.16C46.2567 22.16 44.9927 21.424 44.9927 19.68C44.9927 17.728 46.8807 17.024 49.2807 17.024H50.3207V16.592C50.3207 15.472 49.9367 14.912 48.8007 14.912C47.7927 14.912 47.2967 15.392 47.2007 16.224H45.3287C45.4887 14.272 47.0407 13.456 48.9127 13.456C50.7847 13.456 52.2567 14.224 52.2567 16.512V22H50.3527V20.976C49.8087 21.696 49.0727 22.16 47.7927 22.16ZM48.2567 20.768C49.4407 20.768 50.3207 20.144 50.3207 19.072V18.24H49.3287C47.8567 18.24 46.9127 18.576 46.9127 19.6C46.9127 20.304 47.2967 20.768 48.2567 20.768ZM54.5237 22V13.632H56.4597V22H54.5237ZM55.4677 12.256C54.8277 12.256 54.3157 11.776 54.3157 11.152C54.3157 10.512 54.8277 10.032 55.4677 10.032C56.1077 10.032 56.6197 10.512 56.6197 11.152C56.6197 11.776 56.1077 12.256 55.4677 12.256ZM63.4915 22.16C62.1635 22.16 61.2035 21.504 60.7555 20.656V22H58.8195V9.76H60.7555V14.976C61.2195 14.176 62.2595 13.456 63.4915 13.456C65.5875 13.456 67.2035 15.008 67.2035 17.712V17.84C67.2035 20.528 65.6515 22.16 63.4915 22.16ZM63.0115 20.624C64.4355 20.624 65.2195 19.664 65.2195 17.872V17.744C65.2195 15.888 64.2595 14.976 62.9955 14.976C61.6515 14.976 60.6915 15.888 60.6915 17.744V17.872C60.6915 19.744 61.6035 20.624 63.0115 20.624ZM71.1365 22.16C69.6005 22.16 68.3365 21.424 68.3365 19.68C68.3365 17.728 70.2245 17.024 72.6245 17.024H73.6645V16.592C73.6645 15.472 73.2805 14.912 72.1445 14.912C71.1365 14.912 70.6405 15.392 70.5445 16.224H68.6725C68.8325 14.272 70.3845 13.456 72.2565 13.456C74.1285 13.456 75.6005 14.224 75.6005 16.512V22H73.6965V20.976C73.1525 21.696 72.4165 22.16 71.1365 22.16ZM71.6005 20.768C72.7845 20.768 73.6645 20.144 73.6645 19.072V18.24H72.6725C71.2005 18.24 70.2565 18.576 70.2565 19.6C70.2565 20.304 70.6405 20.768 71.6005 20.768ZM81.632 22V13.632H83.568V14.912C83.968 14.128 84.88 13.456 86.112 13.456C87.2 13.456 88.064 13.92 88.48 14.96C89.12 13.92 90.272 13.456 91.312 13.456C92.848 13.456 94.096 14.4 94.096 16.704V22H92.16V16.832C92.16 15.6 91.632 15.072 90.672 15.072C89.712 15.072 88.832 15.712 88.832 16.992V22H86.896V16.832C86.896 15.6 86.352 15.072 85.408 15.072C84.448 15.072 83.568 15.712 83.568 16.992V22H81.632ZM98.5115 22.16C96.9755 22.16 95.7115 21.424 95.7115 19.68C95.7115 17.728 97.5995 17.024 99.9995 17.024H101.039V16.592C101.039 15.472 100.655 14.912 99.5195 14.912C98.5115 14.912 98.0155 15.392 97.9195 16.224H96.0475C96.2075 14.272 97.7595 13.456 99.6315 13.456C101.503 13.456 102.975 14.224 102.975 16.512V22H101.071V20.976C100.527 21.696 99.7915 22.16 98.5115 22.16ZM98.9755 20.768C100.159 20.768 101.039 20.144 101.039 19.072V18.24H100.047C98.5755 18.24 97.6315 18.576 97.6315 19.6C97.6315 20.304 98.0155 20.768 98.9755 20.768ZM105.242 22V13.632H107.178V22H105.242ZM106.186 12.256C105.546 12.256 105.034 11.776 105.034 11.152C105.034 10.512 105.546 10.032 106.186 10.032C106.826 10.032 107.338 10.512 107.338 11.152C107.338 11.776 106.826 12.256 106.186 12.256ZM112.402 22.16C110.242 22.16 108.978 21.168 108.898 19.392H110.722C110.818 20.24 111.25 20.736 112.386 20.736C113.426 20.736 113.89 20.368 113.89 19.664C113.89 18.976 113.33 18.72 112.098 18.512C109.89 18.16 109.074 17.536 109.074 15.968C109.074 14.288 110.642 13.456 112.21 13.456C113.922 13.456 115.282 14.096 115.49 15.984H113.698C113.538 15.216 113.106 14.864 112.21 14.864C111.378 14.864 110.882 15.264 110.882 15.856C110.882 16.464 111.282 16.704 112.61 16.928C114.578 17.232 115.746 17.712 115.746 19.488C115.746 21.184 114.546 22.16 112.402 22.16Z" fill="#DD5900"/>
</svg>
