<svg width="179" height="21" viewBox="0 0 179 21" fill="none" xmlns="http://www.w3.org/2000/svg">
<path d="M0.68 20V1.324H5.636V20H0.68ZM7.1725 17.704L10.1685 14.092C10.6912 14.6147 11.3725 15.0907 12.2125 15.52C13.0712 15.9493 13.9952 16.164 14.9845 16.164C15.4885 16.164 15.9738 16.0613 16.4405 15.856C16.9072 15.6507 17.1405 15.2587 17.1405 14.68C17.1405 14.1947 16.8885 13.7933 16.3845 13.476C15.8805 13.14 15.1618 12.8227 14.2285 12.524L13.1925 12.188C12.4272 11.9267 11.6618 11.5813 10.8965 11.152C10.1498 10.704 9.5245 10.1347 9.0205 9.444C8.53517 8.75333 8.2925 7.904 8.2925 6.896C8.2925 5.73867 8.56317 4.70267 9.1045 3.788C9.6645 2.87333 10.4858 2.15467 11.5685 1.632C12.6512 1.09067 13.9672 0.819998 15.5165 0.819998C16.7485 0.819998 17.8125 0.959999 18.7085 1.24C19.6232 1.52 20.3792 1.84667 20.9765 2.22C21.5738 2.59333 22.0125 2.92933 22.2925 3.228L19.7725 6.42C19.1192 5.93467 18.4378 5.54267 17.7285 5.244C17.0192 4.92667 16.2912 4.768 15.5445 4.768C15.0592 4.768 14.5925 4.88 14.1445 5.104C13.7152 5.30933 13.5005 5.67333 13.5005 6.196C13.5005 6.77467 13.7618 7.19467 14.2845 7.456C14.8072 7.71733 15.4698 7.97867 16.2725 8.24L17.1685 8.52C17.8032 8.70667 18.4378 8.94933 19.0725 9.248C19.7258 9.528 20.3232 9.892 20.8645 10.34C21.4058 10.788 21.8352 11.3573 22.1525 12.048C22.4885 12.72 22.6565 13.5507 22.6565 14.54C22.6565 15.6787 22.3112 16.696 21.6205 17.592C20.9485 18.488 20.0338 19.188 18.8765 19.692C17.7378 20.196 16.4685 20.448 15.0685 20.448C13.2018 20.448 11.6338 20.196 10.3645 19.692C9.11383 19.188 8.04983 18.5253 7.1725 17.704ZM29.7267 20V1.324H37.4547C39.4521 1.324 41.0574 1.84667 42.2707 2.892C43.4841 3.91867 44.0907 5.44 44.0907 7.456C44.0907 8.66933 43.8201 9.73333 43.2787 10.648C42.7374 11.5627 42.0187 12.2907 41.1227 12.832L45.1267 20H39.8067L36.6427 13.644H34.5707V20H29.7267ZM34.5707 9.752H36.9787C37.6321 9.752 38.1641 9.556 38.5747 9.164C38.9854 8.75333 39.1907 8.212 39.1907 7.54C39.1907 6.83067 38.9947 6.27067 38.6027 5.86C38.2107 5.44933 37.6601 5.244 36.9507 5.244H34.5707V9.752ZM47.0288 20V1.324H60.4688V5.608H51.9848V8.492H58.9568V12.524H51.9848V15.716H61.0568V20H47.0288ZM61.7784 20L68.6384 1.324H74.3224L80.9304 20H75.5824L74.3784 16.136H68.1344L66.9024 20H61.7784ZM69.1424 12.524H73.3704L71.2984 5.664L69.1424 12.524ZM82.4531 20V1.324H89.6211C91.5438 1.324 93.2518 1.66 94.7451 2.332C96.2571 2.98533 97.4518 4.012 98.3291 5.412C99.2065 6.79333 99.6451 8.576 99.6451 10.76C99.6451 12.8133 99.2065 14.5307 98.3291 15.912C97.4518 17.2747 96.2478 18.3013 94.7171 18.992C93.2051 19.664 91.4971 20 89.5931 20H82.4531ZM87.4091 15.632H89.4251C91.0305 15.632 92.2811 15.1747 93.1771 14.26C94.0731 13.3267 94.5211 12.1227 94.5211 10.648C94.5211 9.15467 94.1105 7.95067 93.2891 7.036C92.4678 6.12133 91.1798 5.664 89.4251 5.664H87.4091V15.632ZM105.209 20V12.552L98.5726 1.324H104.257L107.897 7.988L111.313 1.324H116.829L110.165 12.524V20H105.209ZM122.782 20V17.424C122.782 16.5093 122.969 15.688 123.342 14.96C123.734 14.232 124.229 13.5787 124.826 13C125.424 12.4027 126.058 11.8613 126.73 11.376C127.402 10.872 128.037 10.4053 128.634 9.976C129.232 9.54667 129.717 9.136 130.09 8.744C130.482 8.33333 130.678 7.91333 130.678 7.484C130.678 7.092 130.51 6.73733 130.174 6.42C129.838 6.084 129.325 5.916 128.634 5.916C128.13 5.916 127.682 6.028 127.29 6.252C126.917 6.45733 126.6 6.7 126.338 6.98C126.096 7.26 125.9 7.52133 125.75 7.764L122.334 5.412C122.708 4.796 123.202 4.21733 123.818 3.676C124.453 3.13467 125.218 2.696 126.114 2.36C127.029 2.024 128.074 1.856 129.25 1.856C130.576 1.856 131.696 2.108 132.61 2.612C133.525 3.116 134.216 3.76933 134.682 4.572C135.149 5.37467 135.382 6.21467 135.382 7.092C135.382 8.06267 135.149 8.92133 134.682 9.668C134.216 10.396 133.637 11.0587 132.946 11.656C132.256 12.2347 131.565 12.7573 130.874 13.224C130.184 13.6907 129.596 14.1387 129.11 14.568C128.644 14.9787 128.392 15.3893 128.354 15.8H135.438V20H122.782ZM137.722 16.92V13.504L145.254 2.36H149.93V13.14H151.694V16.92H149.93V20H145.59V16.92H137.722ZM142.006 13.14H145.59V7.876L142.006 13.14ZM152.857 20.448L160.305 0.819998H165.093L157.729 20.448H152.857ZM172.897 20H168.025C168.361 18.9173 168.781 17.7413 169.285 16.472C169.789 15.2027 170.321 13.9333 170.881 12.664C171.459 11.3947 172.029 10.2187 172.589 9.136C173.149 8.03467 173.653 7.12933 174.101 6.42H166.569V2.36H178.917V6.14C177.909 7.876 177.041 9.528 176.313 11.096C175.585 12.6453 174.95 14.148 174.409 15.604C173.867 17.06 173.363 18.5253 172.897 20Z" fill="#FFD000"/>
</svg>
