<?xml version="1.0" encoding="utf-8"?>
<!-- Generator: Adobe Illustrator 27.7.0, SVG Export Plug-In . SVG Version: 6.00 Build 0)  -->
<svg version="1.1" id="Layer_1" xmlns="http://www.w3.org/2000/svg" xmlns:xlink="http://www.w3.org/1999/xlink" x="0px" y="0px"
	 viewBox="0 0 64.5 66.8" style="enable-background:new 0 0 64.5 66.8;" xml:space="preserve">
<style type="text/css">
	.st0{clip-path:url(#SVGID_00000165947839544665459940000002362777189078276259_);}
	.st1{fill:#7F93AA;}
	.st2{fill:#B2BECC;}
	.st3{fill:#F9D506;}
</style>
<g>
	<g>
		<g>
			<defs>
				<rect id="SVGID_1_" y="0" width="64.5" height="66.8"/>
			</defs>
			<clipPath id="SVGID_00000182521223530462424950000001171282282985270425_">
				<use xlink:href="#SVGID_1_"  style="overflow:visible;"/>
			</clipPath>
			<g style="clip-path:url(#SVGID_00000182521223530462424950000001171282282985270425_);">
				<path class="st1" d="M20.6,7.1L18.7,3c-1.5,0.7-2.9,1.5-4.2,2.4L17,9.2C18.1,8.4,19.3,7.7,20.6,7.1z"/>
				<path class="st1" d="M13.6,11.7l-3-3.3c-1.2,1-2.3,2.2-3.3,3.4l3.5,2.9C11.6,13.6,12.6,12.6,13.6,11.7z"/>
				<path class="st2" d="M4.5,15.8c-0.8,1.4-1.6,2.8-2.2,4.3l4.2,1.7c0.5-1.3,1.2-2.5,1.9-3.7L4.5,15.8L4.5,15.8z"/>
				<path class="st1" d="M28.5,4.8l-0.6-4.5c-1.6,0.2-3.2,0.5-4.7,1l1.3,4.3C25.8,5.3,27.2,5,28.5,4.8L28.5,4.8z"/>
				<path class="st2" d="M6.3,42.2L2,43.8c0.6,1.5,1.3,3,2.1,4.4L8,46C7.3,44.8,6.7,43.5,6.3,42.2L6.3,42.2z"/>
				<path class="st3" d="M16.4,55.1l-2.6,3.7c1.3,0.9,2.7,1.7,4.2,2.5l2-4C18.7,56.6,17.5,55.9,16.4,55.1L16.4,55.1z"/>
				<path class="st3" d="M23.8,58.8l-1.4,4.3c1.5,0.5,3.1,0.9,4.7,1.1l0.7-4.5C26.5,59.5,25.2,59.2,23.8,58.8L23.8,58.8z"/>
				<path class="st3" d="M10.3,49.4l-3.6,2.8c1,1.3,2.1,2.5,3.3,3.6l3.1-3.3C12.1,51.6,11.2,50.5,10.3,49.4z"/>
				<path class="st2" d="M0.8,24.7c-0.4,1.6-0.6,3.2-0.8,4.8l4.5,0.4c0.1-1.4,0.3-2.8,0.7-4.1L0.8,24.7z"/>
				<path class="st2" d="M4.5,34.1L0,34.4c0.1,1.6,0.3,3.2,0.7,4.8l4.4-1C4.8,36.9,4.6,35.5,4.5,34.1L4.5,34.1z"/>
			</g>
		</g>
	</g>
</g>
</svg>
