<svg width="305" height="68" viewBox="0 0 305 68" fill="none" xmlns="http://www.w3.org/2000/svg">
<path d="M300 66L0 46V66H300Z" fill="#F9DD3E"/>
<path d="M170.713 66H300L0 55L0 66H170.713Z" fill="url(#paint0_linear_5454_14264)"/>
<path d="M284.363 29.9091H285.588V46.0355H284.363V29.9091ZM280.267 37.9675V40.9377C280.267 41.4501 280.185 41.9625 280.022 42.4584C279.859 42.9536 279.617 43.4053 279.3 43.8009C278.984 44.1949 278.584 44.5163 278.115 44.756C277.646 44.995 277.094 45.1163 276.476 45.1163C275.997 45.1163 275.523 45.0302 275.068 44.8601C274.615 44.6916 274.21 44.4099 273.863 44.0241C273.516 43.6376 273.234 43.1267 273.025 42.5056C272.816 41.8831 272.709 41.1085 272.709 40.2028C272.709 39.3751 272.811 38.6484 273.013 38.0416C273.215 37.4363 273.489 36.9292 273.829 36.5344C274.167 36.1418 274.562 35.8444 275 35.6512C275.44 35.4586 275.913 35.3605 276.404 35.3605C277.207 35.3605 277.942 35.5995 278.59 36.0714C279.239 36.5426 279.802 37.1809 280.268 37.9675H280.267ZM280.293 36.5546C280.151 36.3239 279.981 36.0924 279.784 35.8639C279.536 35.5755 279.237 35.3081 278.894 35.0698C278.551 34.8301 278.161 34.6316 277.73 34.4803C277.298 34.3282 276.813 34.2518 276.287 34.2518C275.633 34.2518 275.01 34.3859 274.436 34.6496C273.861 34.9133 273.347 35.3073 272.909 35.8175C272.471 36.3284 272.12 36.9584 271.866 37.6903C271.612 38.4222 271.483 39.2672 271.483 40.2036C271.483 41.2666 271.608 42.1873 271.853 42.9416C272.1 43.699 272.447 44.3298 272.886 44.8174C273.325 45.3059 273.852 45.6669 274.451 45.8909C275.048 46.1142 275.705 46.2273 276.404 46.2273C277.314 46.2273 278.112 45.9995 278.775 45.5516C279.369 45.1493 279.87 44.6182 280.266 43.9694V45.4242C280.266 46.2026 280.175 46.8745 279.997 47.4191C279.82 47.9593 279.569 48.402 279.256 48.7339C278.942 49.0642 278.557 49.3047 278.112 49.4515C277.662 49.5991 277.151 49.674 276.594 49.674C275.862 49.674 275.179 49.5871 274.565 49.4156C273.947 49.2433 273.415 49.0372 272.98 48.8043L272.908 48.7653L272.582 49.7751L272.632 49.8014C273.075 50.0396 273.64 50.2643 274.314 50.4703C274.989 50.6771 275.74 50.7819 276.547 50.7819C278.09 50.7819 279.312 50.3362 280.183 49.4568C281.052 48.5773 281.492 47.2281 281.492 45.4467V34.4413H280.559L280.292 36.5554L280.293 36.5546ZM268.525 40.1279V41.3408C268.525 41.8037 268.431 42.2667 268.246 42.7139C268.061 43.1626 267.791 43.5746 267.443 43.9387C267.096 44.302 266.661 44.6002 266.152 44.8249C265.642 45.0497 265.046 45.1628 264.379 45.1628C264.04 45.1628 263.712 45.1163 263.404 45.0242C263.098 44.9328 262.828 44.789 262.6 44.5979C262.372 44.4077 262.191 44.1649 262.062 43.875C261.932 43.5851 261.866 43.2353 261.866 42.8353C261.866 41.8981 262.171 41.2067 262.773 40.7797C263.382 40.3467 264.4 40.1279 265.799 40.1279H268.525ZM265.515 34.2488C264.708 34.2488 263.961 34.3492 263.293 34.5485C262.628 34.747 262.074 34.977 261.644 35.2309L261.598 35.2594L261.901 36.1973L261.973 36.1568C262.424 35.9081 262.942 35.7021 263.508 35.5463C264.077 35.3905 264.753 35.3111 265.515 35.3111C266.487 35.3111 267.241 35.5373 267.755 35.9823C268.265 36.425 268.524 37.2146 268.524 38.3263V39.0649H265.798C264.134 39.0649 262.854 39.381 261.993 40.0036C261.126 40.6306 260.687 41.5835 260.687 42.8345C260.687 43.3799 260.781 43.8683 260.965 44.2856C261.149 44.7036 261.41 45.0624 261.74 45.3531C262.068 45.6422 262.462 45.8625 262.912 46.0078C263.358 46.1524 263.843 46.225 264.353 46.225C265.339 46.225 266.204 46.0063 266.922 45.5741C267.583 45.1763 268.131 44.6204 268.549 43.923L268.816 46.0348H269.725V38.3263C269.725 37.0805 269.372 36.0789 268.677 35.3493C267.981 34.6189 266.917 34.2488 265.515 34.2488Z" fill="white"/>
<path d="M243.02 15.0495C242.19 15.717 242.056 16.9433 242.722 17.7741L253.169 30.8208C253.834 31.6523 255.058 31.7872 255.887 31.1197C256.717 30.4523 256.852 29.2259 256.186 28.3952L245.74 15.3484C245.358 14.8727 244.796 14.6255 244.228 14.6255C243.803 14.6255 243.376 14.7641 243.021 15.0495" fill="white"/>
<path d="M238.734 36.7838C238.559 37.8356 239.273 38.8394 240.323 39.0147L252.414 41.0359C253.464 41.2112 254.466 40.4942 254.641 39.4425C254.816 38.3907 254.101 37.3869 253.051 37.2116L240.96 35.1905C240.854 35.1725 240.748 35.1642 240.643 35.1642C239.716 35.1642 238.891 35.8384 238.734 36.7831" fill="white"/>
<path d="M258.404 6.17692C257.347 6.30052 256.584 7.26689 256.706 8.32615L258.632 24.9417C258.756 26.001 259.721 26.7658 260.777 26.643C261.833 26.5194 262.597 25.553 262.474 24.4937L260.548 7.87893C260.434 6.89458 259.593 6.16418 258.626 6.16418C258.553 6.16418 258.479 6.16868 258.404 6.17692" fill="white"/>
<path d="M269.951 11.7601L265.377 24.3192C265.013 25.3208 265.532 26.4392 266.531 26.804C267.531 27.1688 268.647 26.6497 269.011 25.6474L273.585 13.0883C273.95 12.0868 273.431 10.9683 272.432 10.6035C272.215 10.5241 271.993 10.4866 271.773 10.4866C270.983 10.4866 270.238 10.9758 269.951 11.7601Z" fill="white"/>
<path d="M277.333 20.8859L272.05 26.7261C271.336 27.5157 271.396 28.7472 272.184 29.4634C272.972 30.1788 274.2 30.1189 274.915 29.3286L280.198 23.4884C280.912 22.6988 280.852 21.4673 280.064 20.7511C279.695 20.4162 279.23 20.2514 278.766 20.2514C278.239 20.2514 277.712 20.4649 277.333 20.8852" fill="white"/>
<line x1="226.793" y1="5.8999" x2="226.793" y2="50.8166" stroke="white" stroke-width="0.539001"/>
<g clip-path="url(#clip0_5454_14264)">
<path d="M192.674 11.8816L192.691 11.8529L175.975 41.8761C175.745 42.2959 175.627 42.7634 175.627 43.2367C175.627 44.7538 176.825 45.9885 178.297 45.9885H211.854C213.327 45.9885 214.525 44.7538 214.525 43.2367C214.525 42.7234 214.388 42.2234 214.127 41.7902L214.149 41.8284L197.346 11.8377L197.359 11.8606C196.889 10.9847 195.993 10.4408 195.02 10.4408C194.048 10.4408 193.141 10.9923 192.672 11.8816" fill="white"/>
<path d="M209.836 37.6226C210.169 37.6226 210.441 37.9031 210.441 38.2466C210.441 38.5901 210.169 38.8706 209.836 38.8706C209.502 38.8706 209.23 38.5901 209.23 38.2466C209.23 37.9031 209.502 37.6226 209.836 37.6226ZM209.836 38.7332C210.076 38.7332 210.267 38.5347 210.267 38.2466C210.267 37.9584 210.076 37.76 209.836 37.76C209.595 37.76 209.404 37.9584 209.404 38.2466C209.404 38.5347 209.593 38.7332 209.836 38.7332ZM209.593 37.8974H209.847C210.017 37.8974 210.115 37.9489 210.115 38.1054C210.115 38.2313 210.041 38.2809 209.937 38.2905L210.115 38.592H209.967L209.806 38.2981H209.737V38.592H209.593V37.8974ZM209.856 38.1817C209.924 38.1817 209.973 38.1702 209.973 38.0901C209.973 38.0195 209.899 38.0099 209.841 38.0099H209.739V38.1817H209.856Z" fill="#007A53"/>
<path d="M209.302 36.1951L195.937 12.3853C195.741 12.0208 195.365 11.7747 194.933 11.7747C194.502 11.7747 194.12 12.0246 193.924 12.3929L184.518 29.3023C187.494 29.4741 188.931 28.0982 190.322 26.7643C191.559 25.5812 192.835 24.356 194.967 24.356C197.717 24.356 199.122 26.9933 199.182 27.1135C199.372 27.5085 199.217 27.9932 198.833 28.1917C198.448 28.3902 197.996 28.2337 197.783 27.8387C197.702 27.6898 196.665 25.9666 194.965 25.9666C193.45 25.9666 192.539 26.8387 191.387 27.9436C189.872 29.3958 187.631 30.8366 183.899 30.4091L180.66 36.2332C180.566 36.405 180.514 36.6034 180.514 36.8134C180.514 37.466 181.027 37.9946 181.661 37.9946H195.122C194.967 37.7694 193.346 35.4127 193.346 35.4127C192.665 34.3269 193.226 33.4261 193.409 33.1399L195.367 29.9072C195.478 29.7241 195.652 29.5962 195.854 29.5485C196.057 29.5008 196.267 29.5351 196.444 29.6496C196.809 29.8863 196.922 30.3843 196.693 30.7603L194.717 34.0234C194.574 34.2467 194.535 34.3288 194.676 34.5597C195.048 35.1741 196.856 37.9373 196.893 37.9946H208.328C208.962 37.9946 209.475 37.466 209.475 36.8134C209.475 36.5863 209.412 36.3725 209.304 36.1932M203.91 29.6935C203.698 29.9187 203.437 29.9702 203.189 29.8309C202.976 29.7107 202.534 29.5103 201.963 29.5103C201.393 29.5103 200.574 29.6954 199.995 30.4053C199.995 30.4053 197.296 33.9032 197.294 33.9032C197.252 33.9662 197.083 34.0902 196.889 34.0998C196.741 34.1093 196.607 34.0482 196.5 33.9261C196.402 33.8116 196.363 33.6818 196.363 33.5616C196.363 33.4414 196.398 33.3345 196.446 33.2487C197.639 31.1648 198.228 30.1362 198.23 30.1324C199.2 28.5008 200.421 28.0772 201.498 28.0371C201.402 27.6784 200.987 26.1479 200.987 26.1441C200.946 25.9762 200.885 25.6842 201.152 25.5125C201.474 25.3006 201.743 25.4953 201.845 25.667L203.973 28.997C204.069 29.1497 204.091 29.4931 203.91 29.6897" fill="#007A53"/>
<path d="M201.845 25.6708C201.741 25.4972 201.474 25.3044 201.152 25.5163C200.887 25.6899 200.946 25.98 200.987 26.1479C200.987 26.1498 201.402 27.6803 201.498 28.0409C200.419 28.081 199.198 28.5047 198.23 30.1362C198.23 30.1401 197.639 31.1686 196.446 33.2525C196.398 33.3364 196.363 33.4471 196.363 33.5654C196.363 33.6838 196.4 33.8154 196.5 33.9299C196.605 34.0521 196.739 34.1112 196.889 34.1036C197.085 34.094 197.252 33.9681 197.294 33.907L199.994 30.4091C200.574 29.6992 201.363 29.5141 201.963 29.5141C202.563 29.5141 202.976 29.7145 203.189 29.8347C203.437 29.974 203.698 29.9225 203.909 29.6973C204.093 29.5008 204.069 29.1554 203.972 29.0046L201.845 25.6747V25.6708Z" fill="#FFA400"/>
<path d="M191.389 27.9475C192.541 26.8426 193.45 25.9705 194.967 25.9705C196.667 25.9705 197.704 27.6936 197.785 27.8425C197.998 28.2375 198.45 28.394 198.835 28.1955C199.219 27.9952 199.374 27.5105 199.184 27.1173C199.124 26.9971 197.717 24.3599 194.969 24.3599C192.839 24.3599 191.561 25.585 190.324 26.7681C188.933 28.102 187.496 29.4779 184.52 29.3062L183.903 30.4149C187.635 30.8423 189.876 29.4016 191.391 27.9494" fill="#FFA400"/>
<path d="M194.717 34.0273L196.693 30.7642C196.923 30.3882 196.81 29.8902 196.445 29.6535C196.267 29.539 196.058 29.5028 195.854 29.5524C195.652 29.6001 195.478 29.7279 195.367 29.9111L193.41 33.1438C193.226 33.43 192.665 34.3307 193.347 35.4166C193.347 35.4166 194.967 37.7752 195.123 37.9985H196.891C196.854 37.9431 195.047 35.178 194.674 34.5636C194.536 34.3327 194.573 34.2506 194.715 34.0273" fill="#FFA400"/>
<path d="M179.81 39.3361H180.56L181.445 41.7024H180.773L180.603 41.1967H179.74L179.558 41.7024H178.936L179.808 39.3361H179.81ZM180.184 39.8246H180.177L179.881 40.7502H180.456L180.184 39.8246Z" fill="#007A53"/>
<path d="M183.601 40.8036C183.601 41.4505 183.194 41.7425 182.594 41.7425C181.994 41.7425 181.586 41.4505 181.586 40.8036V39.3342H182.199V40.6967C182.199 41.0078 182.281 41.2731 182.594 41.2731C182.907 41.2731 182.988 41.0078 182.988 40.6967V39.3342H183.601V40.8036Z" fill="#007A53"/>
<path d="M183.936 41.1185C184.094 41.2063 184.314 41.275 184.568 41.275C184.762 41.275 184.946 41.2349 184.946 41.0441C184.946 40.6033 183.86 40.8819 183.86 40.0193C183.86 39.4488 184.399 39.2942 184.86 39.2942C185.081 39.2942 185.297 39.3285 185.453 39.382L185.414 39.8705C185.257 39.7961 185.079 39.7617 184.905 39.7617C184.749 39.7617 184.494 39.7751 184.494 39.9831C184.494 40.3667 185.579 40.109 185.579 40.9639C185.579 41.5784 185.079 41.7444 184.568 41.7444C184.353 41.7444 184.088 41.7101 183.883 41.6433L183.934 41.1204L183.936 41.1185Z" fill="#007A53"/>
<path d="M186.27 39.8037H185.704V39.3361H187.448V39.8037H186.881V41.7024H186.268V39.8037H186.27Z" fill="#007A53"/>
<path d="M187.688 39.3361H188.781C189.189 39.3361 189.522 39.527 189.522 39.9334C189.522 40.2483 189.377 40.4582 189.081 40.5307V40.5383C189.279 40.5918 189.292 40.7731 189.407 41.0612L189.631 41.7062H188.992L188.861 41.2788C188.735 40.8723 188.657 40.7692 188.429 40.7692H188.301V41.7043H187.688V39.338V39.3361ZM188.3 40.3189H188.461C188.659 40.3189 188.909 40.3113 188.909 40.0441C188.909 39.8227 188.694 39.7827 188.461 39.7827H188.3V40.3189Z" fill="#007A53"/>
<path d="M190.585 39.3361H191.335L192.22 41.7024H191.548L191.378 41.1967H190.515L190.333 41.7024H189.711L190.583 39.3361H190.585ZM190.959 39.8246H190.952L190.655 40.7502H191.231L190.959 39.8246Z" fill="#007A53"/>
<path d="M192.394 39.3361H193.007V41.2349H193.955V41.7024H192.396V39.3361H192.394Z" fill="#007A53"/>
<path d="M194.188 39.3361H194.801V41.7024H194.188V39.3361Z" fill="#007A53"/>
<path d="M195.811 39.3361H196.561L197.446 41.7024H196.774L196.604 41.1967H195.741L195.559 41.7024H194.937L195.809 39.3361H195.811ZM196.185 39.8246H196.178L195.881 40.7502H196.457L196.185 39.8246Z" fill="#007A53"/>
<path d="M197.565 39.3361H198.345L199.121 40.9429H199.128L199.119 39.3361H199.678V41.7024H198.919L198.115 40.0842H198.108L198.128 41.7024H197.565V39.3361Z" fill="#007A53"/>
<path d="M201.173 39.3361H202.138L202.625 40.9105H202.632L203.141 39.3361H204.069V41.7024H203.469L203.478 39.8838H203.471L202.886 41.7024H202.323L201.764 39.8838H201.756L201.769 41.7024H201.171V39.3361H201.173Z" fill="#007A53"/>
<path d="M205.098 39.3361H205.848L206.733 41.7024H206.061L205.891 41.1967H205.028L204.846 41.7024H204.224L205.096 39.3361H205.098ZM205.472 39.8246H205.465L205.169 40.7502H205.745L205.472 39.8246Z" fill="#007A53"/>
<path d="M206.907 39.3361H207.742C208.542 39.3361 209.102 39.5937 209.102 40.5097C209.102 41.4257 208.526 41.7043 207.742 41.7043H206.907V39.338V39.3361ZM207.52 41.2349H207.757C208.215 41.2349 208.472 40.9906 208.472 40.5193C208.472 40.0479 208.205 39.8037 207.757 39.8037H207.52V41.2349Z" fill="#007A53"/>
<path d="M209.386 39.3361H211.004V39.7846H209.997V40.2731H210.949V40.7215H209.997V41.2578H211.039V41.7062H209.384V39.3399L209.386 39.3361Z" fill="#007A53"/>
<path d="M185.481 42.2444H186.231L187.116 44.6107H186.444L186.273 44.105H185.41L185.229 44.6107H184.606L185.479 42.2444H185.481ZM185.855 42.7329H185.847L185.551 43.6584H186.127L185.855 42.7329Z" fill="#007A53"/>
<path d="M187.3 42.2444H188.079L188.855 43.8512H188.863L188.853 42.2444H189.413V44.6107H188.652L187.848 42.9924H187.84L187.861 44.6107H187.298V42.2444H187.3Z" fill="#007A53"/>
<path d="M189.785 42.2444H190.62C191.42 42.2444 191.979 42.502 191.979 43.418C191.979 44.334 191.403 44.6126 190.62 44.6126H189.785V42.2463V42.2444ZM190.396 44.1431H190.633C191.09 44.1431 191.348 43.8989 191.348 43.4275C191.348 42.9562 191.081 42.7119 190.633 42.7119H190.396V44.1431Z" fill="#007A53"/>
<path d="M194.287 42.2043C195.045 42.2043 195.439 42.6681 195.439 43.4295C195.439 44.1909 195.037 44.6527 194.287 44.6527C193.537 44.6527 193.135 44.1813 193.135 43.4295C193.135 42.6776 193.53 42.2043 194.287 42.2043ZM194.287 44.1852C194.659 44.1852 194.808 43.8188 194.808 43.4295C194.808 43.0192 194.659 42.6738 194.287 42.6738C193.915 42.6738 193.767 43.0192 193.767 43.4295C193.767 43.8398 193.915 44.1852 194.287 44.1852Z" fill="#007A53"/>
<path d="M195.396 42.2444H196.022L196.319 44.063H196.326L196.635 42.2444H197.411L197.734 44.063H197.741L198.041 42.2444H198.637L198.124 44.6107H197.337L197.011 42.7921H197.004L196.702 44.6107H195.909L195.4 42.2444H195.396Z" fill="#007A53"/>
<path d="M198.818 42.2444H199.598L200.374 43.8512H200.379L200.37 42.2444H200.929V44.6107H200.168L199.366 42.9924H199.359L199.379 44.6107H198.816V42.2444H198.818Z" fill="#007A53"/>
<path d="M201.287 42.2444H202.908V42.6928H201.9V43.1814H202.85V43.6298H201.9V44.166H202.943V44.6145H201.287V42.2482V42.2444Z" fill="#007A53"/>
<path d="M203.182 42.2444H204.017C204.817 42.2444 205.376 42.502 205.376 43.418C205.376 44.334 204.8 44.6126 204.017 44.6126H203.182V42.2463V42.2444ZM203.795 44.1431H204.032C204.489 44.1431 204.747 43.8989 204.747 43.4275C204.747 42.9562 204.48 42.7119 204.032 42.7119H203.795V44.1431Z" fill="#007A53"/>
</g>
<defs>
<linearGradient id="paint0_linear_5454_14264" x1="-1.79311" y1="66.1735" x2="374.709" y2="63.8166" gradientUnits="userSpaceOnUse">
<stop offset="0.238363" stop-color="#00CEED"/>
<stop offset="0.473958" stop-color="#0076BF"/>
<stop offset="0.733675" stop-color="#00168D"/>
</linearGradient>
<clipPath id="clip0_5454_14264">
<rect width="39.2736" height="35.8585" fill="white" transform="translate(175.4 10.2512)"/>
</clipPath>
</defs>
</svg>
