<svg width="970" height="250" viewBox="0 0 970 250" fill="none" xmlns="http://www.w3.org/2000/svg">
<path d="M150.942 58.4199V32.9145H167.027V36.5262H155.075V43.7496H164.793V47.3241H155.075V54.771H167.027V58.4199H150.942ZM174.352 58.4199H170.293V39.8028H174.315V40.9571C176.127 39.9145 177.84 39.3932 179.453 39.3932C181.935 39.3932 183.623 40.1007 184.517 41.5156C185.435 42.9057 185.895 45.2142 185.895 48.4411V58.4199H181.873V48.5528C181.873 46.5422 181.65 45.1149 181.203 44.2709C180.781 43.4269 179.9 43.0049 178.559 43.0049C177.293 43.0049 176.077 43.2532 174.91 43.7496L174.352 43.973V58.4199ZM189.912 57.7125V39.8028H193.933V57.7497C193.933 60.1823 193.499 61.982 192.63 63.1487C191.786 64.3153 190.073 65.5565 187.492 66.8721L185.891 63.8561C187.628 62.7639 188.733 61.8703 189.205 61.1753C189.676 60.505 189.912 59.3508 189.912 57.7125ZM189.912 36.6379V32.3559H193.933V36.6379H189.912ZM199.153 41.8134C200.444 40.2 202.579 39.3932 205.557 39.3932C208.536 39.3932 210.659 40.2 211.925 41.8134C213.215 43.4269 213.861 45.8472 213.861 49.0741C213.861 52.3011 213.24 54.7337 211.999 56.372C210.758 58.0103 208.611 58.8295 205.557 58.8295C202.504 58.8295 200.357 58.0103 199.116 56.372C197.875 54.7337 197.254 52.3011 197.254 49.0741C197.254 45.8472 197.887 43.4269 199.153 41.8134ZM202.206 53.9146C202.777 54.9075 203.894 55.4039 205.557 55.4039C207.221 55.4039 208.338 54.9075 208.909 53.9146C209.479 52.9217 209.765 51.2958 209.765 49.0369C209.765 46.778 209.455 45.1769 208.834 44.2337C208.238 43.2904 207.146 42.8188 205.557 42.8188C203.969 42.8188 202.864 43.2904 202.244 44.2337C201.648 45.1769 201.35 46.778 201.35 49.0369C201.35 51.2958 201.635 52.9217 202.206 53.9146ZM215.107 39.8028H219.092L223.038 54.9571H224.044L227.991 39.8028H232.012L224.937 66.4253H220.953L223.187 58.4199H219.985L215.107 39.8028ZM253.12 39.8028H257.142V58.4199H253.12V57.2657C251.308 58.3082 249.633 58.8295 248.094 58.8295C245.537 58.8295 243.824 58.1469 242.955 56.7816C242.087 55.3915 241.652 52.9713 241.652 49.5209V39.8028H245.711V49.5582C245.711 51.7922 245.897 53.294 246.269 54.0635C246.642 54.833 247.51 55.2178 248.876 55.2178C250.216 55.2178 251.445 54.9695 252.562 54.4731L253.12 54.2497V39.8028ZM261.311 66.4253V39.8028H265.332V40.9571C267.045 39.9145 268.646 39.3932 270.135 39.3932C272.593 39.3932 274.392 40.1503 275.534 41.6645C276.676 43.1539 277.247 45.6734 277.247 49.2231C277.247 52.7479 276.589 55.2302 275.274 56.6699C273.983 58.1096 271.86 58.8295 268.907 58.8295C267.889 58.8295 266.71 58.7178 265.369 58.4944V66.4253H261.311ZM269.428 43.0049C268.261 43.0049 267.095 43.2656 265.928 43.7869L265.369 44.0475V55.0316C266.362 55.2302 267.454 55.3295 268.646 55.3295C270.334 55.3295 271.501 54.8454 272.146 53.8773C272.791 52.9093 273.114 51.2585 273.114 48.9252C273.114 44.9784 271.885 43.0049 269.428 43.0049ZM298.018 43.2656H292.879V51.4571C292.879 52.9713 292.991 53.9766 293.214 54.4731C293.438 54.9695 294.009 55.2178 294.927 55.2178L297.98 55.1061L298.167 58.3455C296.503 58.6682 295.237 58.8295 294.369 58.8295C292.259 58.8295 290.807 58.3455 290.012 57.3774C289.243 56.4093 288.858 54.5848 288.858 51.9039V43.2656H286.475V39.8028H288.858V34.4038H292.879V39.8028H298.018V43.2656ZM301.607 41.8134C302.898 40.2 305.033 39.3932 308.011 39.3932C310.99 39.3932 313.112 40.2 314.378 41.8134C315.669 43.4269 316.314 45.8472 316.314 49.0741C316.314 52.3011 315.694 54.7337 314.453 56.372C313.212 58.0103 311.064 58.8295 308.011 58.8295C304.958 58.8295 302.811 58.0103 301.57 56.372C300.329 54.7337 299.708 52.3011 299.708 49.0741C299.708 45.8472 300.341 43.4269 301.607 41.8134ZM304.66 53.9146C305.231 54.9075 306.348 55.4039 308.011 55.4039C309.674 55.4039 310.791 54.9075 311.362 53.9146C311.933 52.9217 312.219 51.2958 312.219 49.0369C312.219 46.778 311.908 45.1769 311.288 44.2337C310.692 43.2904 309.6 42.8188 308.011 42.8188C306.423 42.8188 305.318 43.2904 304.697 44.2337C304.102 45.1769 303.804 46.778 303.804 49.0369C303.804 51.2958 304.089 52.9217 304.66 53.9146Z" fill="#FFE344"/>
<path d="M258.787 72.5596C267.826 72.5596 274.623 75.4774 279.178 81.3135C283.804 87.1495 286.117 96.544 286.117 109.497C286.117 122.379 283.84 131.631 279.285 137.254C274.73 142.805 267.897 145.581 258.787 145.581C249.677 145.581 242.845 142.805 238.29 137.254C233.735 131.631 231.458 122.379 231.458 109.497C231.458 96.5441 233.735 87.1495 238.29 81.3135C242.916 75.4775 249.749 72.5596 258.787 72.5596ZM316.39 72.5596C325.428 72.5596 332.225 75.4774 336.78 81.3135C341.406 87.1495 343.72 96.544 343.72 109.497C343.72 122.379 341.443 131.631 336.888 137.254C332.333 142.805 325.5 145.581 316.39 145.581C307.28 145.581 300.447 142.805 295.893 137.254C291.338 131.631 289.061 122.379 289.061 109.497C289.061 96.5442 291.338 87.1495 295.893 81.3135C300.519 75.4775 307.351 72.5597 316.39 72.5596ZM205.669 72.5596C220.615 72.5597 228.087 79.2851 228.087 92.7363C228.087 98.0029 226.948 102.558 224.671 106.401C222.393 110.245 218.265 114.906 212.287 120.386L200.011 131.488H229.262V144.3H183.57V131.809L198.623 116.543C203.961 111.063 207.662 106.863 209.726 103.945C211.861 101.027 212.928 97.931 212.928 94.6572C212.928 91.3124 212.038 88.9635 210.259 87.6113C208.551 86.2593 206.095 85.583 202.893 85.583C198.124 85.583 192.929 86.0103 187.307 86.8643L184.744 87.1846L183.997 75.7617C190.972 73.6266 198.196 72.5596 205.669 72.5596ZM258.787 85.3701C254.446 85.3702 251.314 87.1495 249.393 90.708C247.542 94.2666 246.617 100.423 246.617 109.177C246.617 117.931 247.578 124.052 249.5 127.539C251.422 131.026 254.553 132.77 258.895 132.77C263.236 132.769 266.331 131.026 268.182 127.539C270.032 124.052 270.958 117.931 270.958 109.177C270.958 100.352 270.032 94.1954 268.182 90.708C266.331 87.1495 263.2 85.3701 258.787 85.3701ZM316.39 85.3701C312.048 85.3702 308.917 87.1496 306.995 90.708C305.145 94.2666 304.22 100.423 304.22 109.177C304.22 117.931 305.181 124.052 307.103 127.539C309.024 131.026 312.156 132.77 316.497 132.77C320.838 132.769 323.935 131.026 325.785 127.539C327.636 124.052 328.561 117.931 328.561 109.177C328.561 100.352 327.635 94.1955 325.785 90.708C323.935 87.1495 320.802 85.3701 316.39 85.3701ZM167.984 81.6436C170.632 81.8998 173.067 82.2419 175.287 82.6689L176.376 82.9248L175.671 89.7148C172.554 89.3732 169.671 89.1171 167.023 88.9463L165.743 99.2588C170.184 100.668 173.194 102.227 174.774 103.935C176.397 105.6 177.208 108.141 177.208 111.557C177.208 115.998 175.863 119.372 173.173 121.678C170.483 123.941 166.96 125.072 162.604 125.072H162.54L161.579 132.631C158.421 132.503 156.841 132.353 156.839 132.183L157.736 124.752C154.576 124.368 151.928 123.92 149.793 123.407L148.512 123.15L149.345 116.489C152.718 116.959 155.835 117.279 158.696 117.45L160.105 106.305C155.707 104.981 152.59 103.38 150.754 101.501C148.918 99.6221 148 97.0597 148 93.8145C148 89.5871 149.281 86.4482 151.843 84.3984C154.405 82.306 157.928 81.2598 162.412 81.2598H163.244L164.397 72.4199H169.138L167.984 81.6436ZM163.501 117.514C166.96 117.129 168.689 115.336 168.689 112.134C168.689 111.109 168.39 110.276 167.792 109.636C167.237 108.953 166.212 108.312 164.718 107.714L163.501 117.514ZM162.284 88.8174C158.441 88.9882 156.519 90.4618 156.519 93.2373C156.519 94.262 156.839 95.0948 157.479 95.7354C158.12 96.3759 159.359 97.0384 161.195 97.7217L162.284 88.8174Z" fill="#FFE344"/>
<path d="M356.177 114.581V95.9639H360.236V114.581H356.177ZM356.177 92.799V88.5171H360.236V92.799H356.177ZM368.472 114.581H364.414V95.9639H368.435V97.1182C370.247 96.0756 371.96 95.5544 373.573 95.5544C376.056 95.5544 377.744 96.2618 378.637 97.6767C379.556 99.0668 380.015 101.375 380.015 104.602V114.581H375.994V104.714C375.994 102.703 375.77 101.276 375.323 100.432C374.901 99.5881 374.02 99.1661 372.68 99.1661C371.414 99.1661 370.198 99.4143 369.031 99.9108L368.472 100.134V114.581ZM400.107 95.5544C402.664 95.5544 404.501 96.2742 405.618 97.7139C406.76 99.1288 407.331 101.648 407.331 105.272C407.331 108.897 406.661 111.429 405.32 112.868C403.98 114.283 401.622 114.991 398.246 114.991C397.079 114.991 395.23 114.879 392.698 114.656L391.432 114.544V88.2192H395.453V96.6714C397.166 95.9267 398.717 95.5544 400.107 95.5544ZM398.246 111.379C400.232 111.379 401.547 110.92 402.193 110.001C402.863 109.058 403.198 107.469 403.198 105.235C403.198 103.001 402.912 101.437 402.342 100.544C401.795 99.6253 400.889 99.1661 399.623 99.1661C398.432 99.1661 397.24 99.3522 396.049 99.7246L395.453 99.9108V111.23C396.818 111.329 397.749 111.379 398.246 111.379ZM410.65 114.581V95.9639H414.708V114.581H410.65ZM410.65 92.799V88.5171H414.708V92.799H410.65ZM419.11 114.581V88.2192H423.168V114.581H419.11ZM427.783 114.581V88.2192H431.841V114.581H427.783ZM363.14 126.554C364.456 126.554 366.007 126.728 367.794 127.076L368.725 127.262L368.576 130.464C366.615 130.265 365.163 130.166 364.22 130.166C362.333 130.166 361.067 130.588 360.422 131.432C359.776 132.276 359.454 133.865 359.454 136.198C359.454 138.531 359.764 140.145 360.385 141.038C361.005 141.932 362.296 142.379 364.257 142.379L368.613 142.081L368.725 145.32C366.218 145.767 364.331 145.991 363.066 145.991C360.236 145.991 358.237 145.234 357.071 143.719C355.929 142.18 355.358 139.673 355.358 136.198C355.358 132.723 355.966 130.253 357.183 128.788C358.399 127.299 360.385 126.554 363.14 126.554ZM371.904 145.581V126.964H375.926V129.198C378.036 127.833 380.145 126.952 382.255 126.554V130.613C380.121 131.035 378.296 131.581 376.782 132.251L375.963 132.586V145.581H371.904ZM397.723 142.23L398.766 142.118L398.84 145.134C396.011 145.705 393.503 145.991 391.319 145.991C388.564 145.991 386.578 145.234 385.362 143.719C384.17 142.205 383.574 139.785 383.574 136.459C383.574 129.856 386.268 126.554 391.654 126.554C396.867 126.554 399.473 129.397 399.473 135.081L399.213 137.985H387.67C387.695 139.524 388.03 140.654 388.675 141.374C389.321 142.093 390.525 142.453 392.287 142.453C394.05 142.453 395.862 142.379 397.723 142.23ZM395.489 134.858C395.489 133.021 395.191 131.742 394.596 131.022C394.025 130.278 393.044 129.905 391.654 129.905C390.264 129.905 389.246 130.29 388.601 131.06C387.98 131.829 387.658 133.095 387.633 134.858H395.489ZM417.823 119.219V145.581H413.802V144.613C411.989 145.531 410.326 145.991 408.812 145.991C406.38 145.991 404.592 145.258 403.45 143.794C402.333 142.329 401.775 139.872 401.775 136.421C401.775 132.971 402.395 130.464 403.637 128.9C404.903 127.336 406.864 126.554 409.52 126.554C410.413 126.554 411.828 126.716 413.764 127.038V119.219H417.823ZM413.131 141.709L413.764 141.448V130.427C412.275 130.178 410.897 130.054 409.631 130.054C407.124 130.054 405.871 132.139 405.871 136.31C405.871 138.593 406.156 140.182 406.727 141.076C407.323 141.945 408.254 142.379 409.52 142.379C410.786 142.379 411.989 142.156 413.131 141.709ZM421.995 145.581V126.964H426.053V145.581H421.995ZM421.995 123.799V119.517H426.053V123.799H421.995ZM440.247 130.427H435.109V138.618C435.109 140.132 435.221 141.138 435.444 141.634C435.667 142.131 436.238 142.379 437.157 142.379L440.21 142.267L440.396 145.507C438.733 145.829 437.467 145.991 436.598 145.991C434.488 145.991 433.036 145.507 432.242 144.538C431.472 143.57 431.088 141.746 431.088 139.065V130.427H428.705V126.964H431.088V121.565H435.109V126.964H440.247V130.427ZM455.751 130.799C452.822 130.402 450.7 130.203 449.384 130.203C448.069 130.203 447.15 130.365 446.629 130.687C446.133 130.985 445.884 131.469 445.884 132.139C445.884 132.81 446.157 133.281 446.704 133.554C447.274 133.827 448.59 134.15 450.65 134.522C452.735 134.87 454.212 135.429 455.081 136.198C455.95 136.968 456.384 138.333 456.384 140.294C456.384 142.255 455.751 143.695 454.485 144.613C453.244 145.531 451.42 145.991 449.012 145.991C447.498 145.991 445.586 145.78 443.278 145.358L442.124 145.171L442.273 141.783C445.251 142.18 447.399 142.379 448.714 142.379C450.03 142.379 450.961 142.218 451.507 141.895C452.078 141.572 452.363 141.038 452.363 140.294C452.363 139.549 452.09 139.04 451.544 138.767C451.023 138.469 449.744 138.159 447.709 137.836C445.698 137.489 444.221 136.955 443.278 136.235C442.335 135.515 441.863 134.2 441.863 132.288C441.863 130.377 442.508 128.95 443.799 128.006C445.115 127.063 446.79 126.592 448.826 126.592C450.415 126.592 452.363 126.79 454.672 127.187L455.826 127.411L455.751 130.799ZM465.617 121.321H462.779L463.651 124.047L462.266 124.471L461.35 121.724L459.004 123.488L458.11 122.349L460.501 120.584L458.177 118.931L459.049 117.725L461.35 119.4L462.243 116.652L463.673 117.121L462.802 119.892H465.617V121.321Z" fill="#FFE344"/>
<path d="M150.942 185.581V160.076H158.128L163.825 179.996L169.521 160.076H176.745V185.581H172.575V164.655H172.016L165.984 184.538H161.665L155.633 164.655H155.075V185.581H150.942ZM182.134 168.975C183.425 167.361 185.56 166.554 188.539 166.554C191.518 166.554 193.64 167.361 194.906 168.975C196.197 170.588 196.842 173.008 196.842 176.235C196.842 179.462 196.221 181.895 194.98 183.533C193.739 185.171 191.592 185.991 188.539 185.991C185.486 185.991 183.338 185.171 182.097 183.533C180.856 181.895 180.236 179.462 180.236 176.235C180.236 173.008 180.869 170.588 182.134 168.975ZM185.188 181.076C185.759 182.069 186.876 182.565 188.539 182.565C190.202 182.565 191.319 182.069 191.89 181.076C192.461 180.083 192.746 178.457 192.746 176.198C192.746 173.939 192.436 172.338 191.815 171.395C191.22 170.452 190.127 169.98 188.539 169.98C186.95 169.98 185.846 170.452 185.225 171.395C184.629 172.338 184.331 173.939 184.331 176.198C184.331 178.457 184.617 180.083 185.188 181.076ZM198.088 166.964H202.333L205.907 182.118H207.099L210.822 166.964H214.955L210.115 185.581H202.891L198.088 166.964ZM230.348 182.23L231.39 182.118L231.465 185.134C228.635 185.705 226.128 185.991 223.943 185.991C221.188 185.991 219.202 185.234 217.986 183.719C216.794 182.205 216.199 179.785 216.199 176.459C216.199 169.856 218.892 166.554 224.278 166.554C229.491 166.554 232.098 169.397 232.098 175.081L231.837 177.985H220.294C220.319 179.524 220.654 180.654 221.3 181.374C221.945 182.093 223.149 182.453 224.911 182.453C226.674 182.453 228.486 182.379 230.348 182.23ZM228.114 174.858C228.114 173.021 227.816 171.742 227.22 171.022C226.649 170.278 225.668 169.905 224.278 169.905C222.888 169.905 221.871 170.29 221.225 171.06C220.605 171.829 220.282 173.095 220.257 174.858H228.114ZM246.751 185.581H242.692V159.219H246.751V167.932C248.588 167.014 250.288 166.554 251.852 166.554C254.334 166.554 256.022 167.262 256.916 168.677C257.834 170.067 258.293 172.375 258.293 175.602V185.581H254.235V175.714C254.235 173.703 254.024 172.276 253.602 171.432C253.18 170.588 252.286 170.166 250.921 170.166C249.729 170.166 248.538 170.365 247.346 170.762L246.751 170.985V185.581ZM263.279 168.975C264.57 167.361 266.705 166.554 269.683 166.554C272.662 166.554 274.784 167.361 276.05 168.975C277.341 170.588 277.986 173.008 277.986 176.235C277.986 179.462 277.366 181.895 276.125 183.533C274.884 185.171 272.736 185.991 269.683 185.991C266.63 185.991 264.483 185.171 263.242 183.533C262.001 181.895 261.38 179.462 261.38 176.235C261.38 173.008 262.013 170.588 263.279 168.975ZM266.332 181.076C266.903 182.069 268.02 182.565 269.683 182.565C271.346 182.565 272.463 182.069 273.034 181.076C273.605 180.083 273.891 178.457 273.891 176.198C273.891 173.939 273.58 172.338 272.96 171.395C272.364 170.452 271.272 169.98 269.683 169.98C268.095 169.98 266.99 170.452 266.369 171.395C265.774 172.338 265.476 173.939 265.476 176.198C265.476 178.457 265.761 180.083 266.332 181.076ZM285.332 185.581H281.273V166.964H285.295V168.118C287.057 167.076 288.67 166.554 290.135 166.554C292.295 166.554 293.871 167.163 294.864 168.379C297.123 167.163 299.369 166.554 301.603 166.554C303.837 166.554 305.413 167.249 306.332 168.639C307.25 170.005 307.71 172.326 307.71 175.602V185.581H303.688V175.714C303.688 173.703 303.477 172.276 303.055 171.432C302.658 170.588 301.814 170.166 300.523 170.166C299.406 170.166 298.202 170.414 296.912 170.911L296.279 171.171C296.477 171.668 296.577 173.257 296.577 175.937V185.581H292.555V176.012C292.555 173.803 292.357 172.276 291.96 171.432C291.562 170.588 290.694 170.166 289.353 170.166C288.112 170.166 286.958 170.414 285.89 170.911L285.332 171.134V185.581ZM324.982 182.23L326.025 182.118L326.099 185.134C323.269 185.705 320.762 185.991 318.578 185.991C315.823 185.991 313.837 185.234 312.62 183.719C311.429 182.205 310.833 179.785 310.833 176.459C310.833 169.856 313.526 166.554 318.913 166.554C324.126 166.554 326.732 169.397 326.732 175.081L326.472 177.985H314.929C314.954 179.524 315.289 180.654 315.934 181.374C316.58 182.093 317.784 182.453 319.546 182.453C321.308 182.453 323.121 182.379 324.982 182.23ZM322.748 174.858C322.748 173.021 322.45 171.742 321.855 171.022C321.284 170.278 320.303 169.905 318.913 169.905C317.523 169.905 316.505 170.29 315.86 171.06C315.239 171.829 314.917 173.095 314.892 174.858H322.748ZM351.104 172.698V181.187C351.128 181.734 351.265 182.143 351.513 182.416C351.786 182.664 352.196 182.826 352.742 182.9L352.63 185.991C350.495 185.991 348.845 185.531 347.678 184.613C345.692 185.531 343.694 185.991 341.683 185.991C337.985 185.991 336.135 184.017 336.135 180.07C336.135 178.184 336.632 176.819 337.625 175.975C338.642 175.131 340.194 174.622 342.279 174.448L347.082 174.038V172.698C347.082 171.705 346.859 171.01 346.412 170.613C345.99 170.216 345.357 170.017 344.513 170.017C342.924 170.017 340.939 170.116 338.556 170.315L337.364 170.389L337.215 167.522C339.921 166.877 342.403 166.554 344.662 166.554C346.946 166.554 348.584 167.051 349.577 168.044C350.595 169.012 351.104 170.563 351.104 172.698ZM342.763 177.315C341.05 177.464 340.194 178.395 340.194 180.108C340.194 181.82 340.951 182.677 342.465 182.677C343.706 182.677 345.022 182.478 346.412 182.081L347.082 181.858V176.905L342.763 177.315ZM359.512 185.581H355.454V166.964H359.475V168.118C361.287 167.076 363 166.554 364.613 166.554C367.096 166.554 368.784 167.262 369.677 168.677C370.596 170.067 371.055 172.375 371.055 175.602V185.581H367.034V175.714C367.034 173.703 366.81 172.276 366.363 171.432C365.941 170.588 365.06 170.166 363.72 170.166C362.454 170.166 361.238 170.414 360.071 170.911L359.512 171.134V185.581ZM390.227 159.219V185.581H386.206V184.613C384.393 185.531 382.73 185.991 381.216 185.991C378.783 185.991 376.996 185.258 375.854 183.794C374.737 182.329 374.179 179.872 374.179 176.421C374.179 172.971 374.799 170.464 376.041 168.9C377.307 167.336 379.268 166.554 381.924 166.554C382.817 166.554 384.232 166.716 386.168 167.038V159.219H390.227ZM385.535 181.709L386.168 181.448V170.427C384.679 170.178 383.301 170.054 382.035 170.054C379.528 170.054 378.275 172.139 378.275 176.31C378.275 178.593 378.56 180.182 379.131 181.076C379.727 181.945 380.658 182.379 381.924 182.379C383.19 182.379 384.393 182.156 385.535 181.709ZM414.755 170.799C411.826 170.402 409.704 170.203 408.388 170.203C407.073 170.203 406.154 170.365 405.633 170.687C405.137 170.985 404.888 171.469 404.888 172.139C404.888 172.81 405.161 173.281 405.708 173.554C406.278 173.827 407.594 174.15 409.654 174.522C411.739 174.87 413.216 175.429 414.085 176.198C414.954 176.968 415.388 178.333 415.388 180.294C415.388 182.255 414.755 183.695 413.489 184.613C412.248 185.531 410.424 185.991 408.016 185.991C406.502 185.991 404.59 185.78 402.282 185.358L401.128 185.171L401.277 181.783C404.255 182.18 406.403 182.379 407.718 182.379C409.034 182.379 409.965 182.218 410.511 181.895C411.082 181.572 411.367 181.038 411.367 180.294C411.367 179.549 411.094 179.04 410.548 178.767C410.027 178.469 408.748 178.159 406.713 177.836C404.702 177.489 403.225 176.955 402.282 176.235C401.339 175.515 400.867 174.2 400.867 172.288C400.867 170.377 401.512 168.95 402.803 168.006C404.119 167.063 405.794 166.592 407.83 166.592C409.419 166.592 411.367 166.79 413.676 167.187L414.83 167.411L414.755 170.799ZM428.56 170.427H423.422V178.618C423.422 180.132 423.533 181.138 423.757 181.634C423.98 182.131 424.551 182.379 425.47 182.379L428.523 182.267L428.709 185.507C427.046 185.829 425.78 185.991 424.911 185.991C422.801 185.991 421.349 185.507 420.555 184.538C419.785 183.57 419.4 181.746 419.4 179.065V170.427H417.017V166.964H419.4V161.565H423.422V166.964H428.56V170.427ZM444.921 172.698V181.187C444.946 181.734 445.082 182.143 445.33 182.416C445.603 182.664 446.013 182.826 446.559 182.9L446.447 185.991C444.313 185.991 442.662 185.531 441.495 184.613C439.509 185.531 437.511 185.991 435.5 185.991C431.802 185.991 429.953 184.017 429.953 180.07C429.953 178.184 430.449 176.819 431.442 175.975C432.46 175.131 434.011 174.622 436.096 174.448L440.899 174.038V172.698C440.899 171.705 440.676 171.01 440.229 170.613C439.807 170.216 439.174 170.017 438.33 170.017C436.742 170.017 434.756 170.116 432.373 170.315L431.181 170.389L431.032 167.522C433.738 166.877 436.22 166.554 438.479 166.554C440.763 166.554 442.401 167.051 443.394 168.044C444.412 169.012 444.921 170.563 444.921 172.698ZM436.58 177.315C434.867 177.464 434.011 178.395 434.011 180.108C434.011 181.82 434.768 182.677 436.282 182.677C437.524 182.677 438.839 182.478 440.229 182.081L440.899 181.858V176.905L436.58 177.315ZM447.34 166.964H451.324L455.271 182.118H456.276L460.223 166.964H464.244L457.17 193.586H453.186L455.42 185.581H452.218L447.34 166.964ZM472.619 166.964H476.603L479.544 182.118H480.289L483.826 167.336H487.997L491.534 182.118H492.279L495.183 166.964H499.204L495.257 185.581H488.816L485.912 172.81L483.007 185.581H476.566L472.619 166.964ZM501.907 185.581V166.964H505.965V185.581H501.907ZM501.907 163.799V159.517H505.965V163.799H501.907ZM520.159 170.427H515.021V178.618C515.021 180.132 515.133 181.138 515.356 181.634C515.579 182.131 516.15 182.379 517.069 182.379L520.122 182.267L520.308 185.507C518.645 185.829 517.379 185.991 516.51 185.991C514.4 185.991 512.948 185.507 512.154 184.538C511.384 183.57 511 181.746 511 179.065V170.427H508.617V166.964H511V161.565H515.021V166.964H520.159V170.427ZM526.802 185.581H522.743V159.219H526.802V167.932C528.639 167.014 530.339 166.554 531.903 166.554C534.385 166.554 536.073 167.262 536.967 168.677C537.885 170.067 538.344 172.375 538.344 175.602V185.581H534.286V175.714C534.286 173.703 534.075 172.276 533.653 171.432C533.231 170.588 532.337 170.166 530.972 170.166C529.78 170.166 528.589 170.365 527.397 170.762L526.802 170.985V185.581ZM548.049 185.581L554.341 160.076H562.57L568.9 185.581H564.729L563.352 180.108H553.559L552.182 185.581H548.049ZM557.543 163.538L554.378 176.459H562.533L559.405 163.538H557.543ZM581.779 175.826V172.177H589.039V185.134C588.369 185.308 587.004 185.494 584.944 185.693C582.908 185.891 581.431 185.991 580.513 185.991C576.64 185.991 573.972 184.923 572.507 182.788C571.043 180.654 570.311 177.315 570.311 172.772C570.311 168.205 571.055 164.879 572.545 162.794C574.059 160.709 576.665 159.666 580.364 159.666C582.548 159.666 585.006 159.914 587.736 160.411L589.039 160.671L588.89 163.948C585.887 163.551 583.194 163.352 580.811 163.352C578.428 163.352 576.789 164.022 575.896 165.363C575.027 166.703 574.592 169.186 574.592 172.81C574.592 176.434 575.002 178.941 575.821 180.331C576.665 181.696 578.353 182.379 580.885 182.379C582.697 182.379 584.05 182.267 584.944 182.044V175.826H581.779ZM607.779 185.581H593.481V160.076H597.614V181.895H607.779V185.581Z" fill="white"/>
</svg>
