<svg width="98" height="55" viewBox="0 0 98 55" fill="none" xmlns="http://www.w3.org/2000/svg">
  <!-- Generator: Adobe Illustrator 30.1.0, SVG Export Plug-In . SVG Version: 2.1.1 Build 136)  -->
  <path d="M47.54,3.08v6.44h-9.37V.16h6.44c1.61,0,2.93,1.31,2.93,2.93Z" fill="#fff"/>
  <path d="M47.54,18.9h-9.37v9.37h9.37v-9.37Z" fill="#fff"/>
  <path d="M28.8.16h-9.37v9.37h9.37V.16Z" fill="#ffd000"/>
  <path d="M10.07,7.67V.16H.7v25.18c0,1.61,1.31,2.93,2.93,2.93h6.44v-7.51c0-1.03.83-1.86,1.86-1.86h7.51v-9.37h-7.51c-1.03,0-1.86-.83-1.86-1.86Z" fill="#fff"/>
  <path d="M28.8,18.9h-9.37v9.37h9.37v-9.37Z" fill="#fff"/>
  <path d="M10.91,38.57c-.64,0-1.17-.21-1.59-.64-.42-.43-.63-.96-.63-1.61s.2-1.22.63-1.65c.42-.44.96-.64,1.62-.64s1.15.21,1.58.65c.43.44.64.96.64,1.6s-.21,1.2-.64,1.64c-.43.44-.95.66-1.6.66ZM13.45,33.84c-.68-.65-1.54-.97-2.55-.97s-1.87.33-2.54.97c-.67.65-1.01,1.48-1.01,2.46s.34,1.78,1,2.42c.66.64,1.51.96,2.5.96s1.9-.32,2.59-.96c.69-.64,1.04-1.46,1.04-2.44s-.35-1.8-1.03-2.45ZM41.28,32.95v3.73c0,1.07-.41,1.8-1.6,1.8s-1.6-.73-1.6-1.8v-3.73h-1.29v4c0,1.97,1.33,2.74,2.89,2.74s2.89-.77,2.89-2.74v-4h-1.29ZM33.49,32.95v5.5h2.8v1.15h-4.09v-6.66h1.29ZM28.85,35.95c.64,0,1.18-.3,1.18-.93s-.37-.93-1.18-.93h-.78v1.85h.78ZM29.21,32.95c1.4,0,2.1.91,2.1,2.07s-.87,2.09-2.15,2.09h-1.09v2.5h-1.29v-6.66h2.43ZM25.91,32.95v1.15h-2.19v5.5h-1.29v-5.5h-2.19v-1.15h5.66ZM45.67,32.86c.65,0,1.27.16,1.87.49v1.31c-.69-.42-1.15-.67-1.85-.67s-.94.24-.96.57c-.02.25.14.47.47.68.09.06.45.25,1.08.55.54.26.94.54,1.18.86.24.32.37.69.37,1.13,0,.57-.21,1.03-.62,1.39-.41.35-.95.53-1.6.53-.42,0-.79-.04-1.1-.14-.31-.09-.65-.25-1.03-.49v-1.46c.71.59,1.36.96,1.99.96.59,0,.99-.23.99-.63,0-.27-.13-.52-.45-.71-.27-.16-.63-.35-1.05-.58-.5-.28-.91-.53-1.17-.85-.26-.32-.39-.67-.39-1.09,0-.56.21-1,.62-1.34.42-.33.96-.5,1.65-.5M17.49,32.86c.65,0,1.27.16,1.87.49v1.31c-.69-.42-1.15-.67-1.85-.67s-.94.24-.96.57c-.02.25.14.47.47.68.09.06.45.25,1.08.55.54.26.94.54,1.19.86.24.32.36.69.36,1.13,0,.57-.21,1.03-.62,1.39-.41.35-.95.53-1.6.53-.43,0-.79-.04-1.1-.14-.3-.09-.65-.25-1.03-.49v-1.46c.71.59,1.36.96,1.99.96.59,0,.99-.23.99-.63,0-.27-.12-.52-.45-.71-.27-.16-.63-.35-1.05-.58-.5-.28-.91-.53-1.17-.85-.26-.32-.39-.67-.39-1.09,0-.56.21-1,.62-1.34.42-.33.96-.5,1.65-.5M1.98,32.95v2.65h3.16v-2.65h1.29v6.66h-1.29v-2.66H1.98v2.66H.7v-6.66h1.29Z" fill="#fff"/>
  <line x1="58.47" y1=".07" x2="58.47" y2="39.93" fill="none" stroke="#fff" stroke-width=".32"/>
  <g>
    <path d="M96.87,6.05l-.05-.21-.19-.1c-.09-.05-1.53-.75-5.05-1.26.32-.57.53-1.27.65-2.11.05-.37-.03-.69-.24-.92-.23-.26-.61-.4-1.11-.4-1.5,0-2.4-.08-3.48-.24-.83-.49-1.74-.74-2.71-.74-.69,0-1.22.13-1.46.2-.51-.12-1.03-.19-1.57-.19-1.55,0-2.77.51-3.13.67h-.12c-1.11,0-2.26-.07-3.01-.18-.06,0-.11-.02-.16-.02-.23-.04-.43-.07-.65-.07-.1,0-.21,0-.31.02-.16.02-.45.12-.64.53-.31.68-.22,2.11.39,3.07.08.13.18.28.3.43-3.23.51-4.57,1.16-4.66,1.2l-.19.1-.05.21c-1.13,4.78-.89,9.55.7,13.77,1.49,3.98,4.14,7.41,7.64,9.92,2.05,1.54,3.76,2.48,5.17,3.18l.2.1.2-.1c1.9-.93,3.44-1.89,5.17-3.19,3.5-2.51,6.15-5.94,7.64-9.92,1.59-4.23,1.83-8.99.7-13.77h0Z" fill="#fff"/>
    <path d="M91.34,19.35c.53.57,1.05,1.3,1.35,2.26.02.06.07.25.1.43.27-.73.5-1.48.69-2.23-.39-.54-1.03-1.08-1.44-1.46-.95-.86-1.75-1.67-1.81-2.98,0-.16-.03-.43-.04-.51.2-.21.33-.37.46-.57.19.23.39.41.51.53.68.68.89,1.36,1.36,2.18.24.43.73,1.07,1.23,1.6.07-.37.14-.74.19-1.11-.64-.6-1.45-1.64-1.75-2.23.6.54,1.29,1.12,1.86,1.41.12-1.06.18-2.13.18-3.2,0-2.28-.19-5.03-.83-8.22-.73-.15-1.6-.3-2.63-.43.41-.46.83-1.2,1-2.53.08-.58-.28-.81-.89-.81-1.51,0-2.43-.08-3.63-.26-2.02-1.24-4.01-.51-4.01-.51-2.43-.65-4.61.47-4.61.47-1.14,0-2.42-.06-3.3-.18-.4-.06-.65-.12-.98-.08-.56.08-.6,1.87.08,2.93.15.25.47.65.81,1-.91.12-1.7.26-2.36.4-.64,3.19-.83,5.94-.83,8.22,0,3.96.81,7.92,2.77,11.41-.15-1.53-.11-3.05.04-4.21.16-1.18.41-2.16.65-2.92,0,0-.27.42-.49.82.32-1.18.93-2.3,1.37-3.08.26.41.61.85,1.04,1.2-.71,1.38-1.42,3.66-1.39,5.18.12-.48.28-.83.28-.83-.2,2.19.48,5.23,1.54,7.07.52.93,1.12,1.74,1.91,2.46.2.13.4.26.6.38-.87-2.52-.53-3.89.89-7.32-1.03,1.03-1.83,1.47-2.32,3.13.02-.41.1-.79.18-.99-.57-.67-.96-1.48-1.16-2.65-.13.21-.25.43-.35.73.02-.49.09-.72.28-1.17,0-.05-.01-.09-.02-.14-.12.2-.24.39-.28.56-.48-1.41-.7-3.62-.24-5.25.12,2.41.81,3.9,1.99,5.15.1-.16.21-.3.35-.43-.11.18-.19.35-.26.51-.09.2-.14.37-.24.72.23-.37.35-.57.48-.77,1.16-1.61,2.8-2.15,3.89-3.24,0,0-.63.25-1.14.64.79-.75,1.64-.98,2.34-2.04.06-.09.13-.2.21-.32.01.14-.02.33-.06.49.29-.25.52-.53.6-.71-.01.18-.12.65-.19.86.3-.26.47-.58.59-.83.08.06.15.21.19.33.26-.12.5-.3.67-.57.07.05.16.19.19.25.21-.15.39-.39.45-.66.03.05.07.11.09.17.22-.06.47-.3.57-.41.26-.3.39-.75.42-.9.33-.15.65-.35.94-.57-.05.13-.09.28-.11.45,0,.03,0,.06,0,.09-.11,1.39.39,1.83,1.32,2.62.22.18.44.39.67.63h.01Z" fill="#231f20"/>
    <path d="M85.58,26.17c2.65-2.79,3.24-5.17,2.22-7.85.02,2.19-4.78,5.43-5.52,6.63.26-.19,1.13-.74,1.32-.86-.67.53-1.03.87-1.49,1.56.45-.45.87-.68,1.23-.92-1.79,1.57-2.32,4.15-1.79,6.93.53.3,1.06.57,1.57.84-.2-2.61,1.03-4.82,2.46-6.32Z" fill="#231f20"/>
    <path d="M71.54,14.83c-.22-3.65.17-6.67.66-9.41-.25.06-.47.12-.68.17-1.72,7.72-.59,14.7,3.01,19.9-1.79-3.05-2.81-6.65-3-10.66Z" fill="#ffd200"/>
    <path d="M74.54,25.49c-3.6-5.2-4.73-12.18-3.01-19.9-1.14.31-1.63.56-1.63.56-2.1,8.91.75,16.7,6.26,21.69-.59-.74-1.13-1.52-1.61-2.34Z" fill="#231f20"/>
    <path d="M94.78,14.83c.22-3.65-.17-6.67-.66-9.41.25.06.47.12.68.17,1.72,7.72.59,14.7-3.01,19.9,1.79-3.05,2.81-6.65,3-10.66Z" fill="#ffd200"/>
    <path d="M91.78,25.49c3.6-5.2,4.73-12.18,3.01-19.9,1.14.31,1.63.56,1.63.56,2.1,8.91-.75,16.7-6.26,21.69.59-.74,1.13-1.52,1.61-2.34Z" fill="#231f20"/>
    <path d="M78.63,38.69c.06,0,.19,0,.28,0h.37c.07,0,.18,0,.24,0,0,0,0,0,0,0-.01.06-.02.18-.03.28,0,0-.04,0-.06,0,0-.08-.02-.12-.04-.15-.02-.04-.05-.04-.07-.05-.04,0-.23,0-.26,0,0,0-.02.02-.02.03v.39s0,.02.01.02h.26s.06-.02.08-.08c0-.02,0-.04.01-.06h.06s0,.12,0,.18c0,.05,0,.13,0,.19,0,0-.05,0-.06,0-.01-.06-.01-.05-.02-.08,0-.03-.03-.06-.07-.06h-.25s-.01.01-.01.02v.37s.02.06.04.06c.04,0,.12.01.22.01.1,0,.13,0,.16-.05.04-.04.08-.12.1-.18,0,0,.05,0,.05.02,0,.04-.05.22-.08.28,0,.02-.02.03-.1.03-.17,0-.35,0-.53,0-.1,0-.23,0-.33,0v-.05c.06,0,.11-.01.14-.02.04-.01.06-.04.06-.1,0-.11,0-.27,0-.48,0-.15,0-.3,0-.37,0-.05-.01-.07-.05-.08-.03,0-.06-.01-.1-.02,0,0,0-.05,0-.05h.01Z" fill="#fff"/>
    <path d="M80.22,39.77c.05.04.12.05.18.05.1,0,.16-.06.16-.16s-.04-.16-.21-.26c-.18-.12-.3-.21-.3-.39,0-.22.18-.34.4-.34.14,0,.22.02.31.03-.01.08-.02.16-.03.28,0,0-.04,0-.05,0-.02-.12-.04-.17-.09-.21-.04-.03-.09-.04-.15-.04-.1,0-.17.07-.17.17,0,.08.04.14.12.19.08.06.13.08.21.14.14.09.2.18.2.31,0,.21-.16.36-.45.36-.12,0-.25-.04-.29-.06-.02-.03-.05-.24-.06-.3,0,0,.04-.02.05-.01.04.14.09.2.16.26h0Z" fill="#fff"/>
    <path d="M81.98,39.86c-.08,0-.17,0-.29,0-.18,0-.27,0-.33,0,0,0,0-.05,0-.05.04,0,.09,0,.12-.02.05-.01.06-.03.07-.12,0-.19,0-.58,0-.87,0,0,0-.01,0-.01h-.19s-.07.02-.1.06c-.02.04-.05.1-.07.16,0,0-.05,0-.06-.01.02-.08.03-.24.04-.31,0,0,.01-.01.02-.01.06.02.13.02.17.02h.68c.1,0,.15,0,.21-.02,0,0,0,0,.01.01-.02.07-.04.2-.04.32,0,0-.05,0-.06,0,0-.06-.02-.12-.04-.17-.02-.04-.04-.06-.08-.06h-.21s0,0,0,.02c0,.27,0,.77,0,.9,0,.05.01.08.05.09.03,0,.04,0,.11.02,0,0,0,.05,0,.05h0Z" fill="#fff"/>
    <path d="M83.85,39.86c-.07,0-.2,0-.31,0-.14,0-.22,0-.27,0,0,0,0-.05,0-.05.05,0,.06,0,.1-.01.06-.01.06-.06.06-.12,0-.08,0-.19,0-.37,0-.16,0-.3,0-.35,0-.03-.01-.06-.05-.07-.02,0-.06-.01-.09-.02,0,0,0-.05,0-.05.16,0,.3-.06.38-.09,0,0,.02,0,.02.01,0,.08,0,.15,0,.3s0,.48,0,.63c0,.07.01.12.06.13.04,0,.07,0,.1.01,0,0,0,.04,0,.05h0Z" fill="#fff"/>
    <path d="M84.99,38.99c0,.07-.04.14-.19.23h0c.15.1.24.18.24.32,0,.17-.16.33-.41.33-.27,0-.37-.16-.37-.29,0-.08.05-.15.23-.26h0c-.1-.08-.19-.17-.19-.3,0-.1.04-.19.12-.24.06-.05.16-.08.26-.08.19,0,.32.11.32.28h0ZM84.82,39.66c0-.1-.06-.18-.28-.3h0c-.05.06-.08.12-.08.2,0,.12.09.26.22.26.09,0,.15-.06.15-.15ZM84.5,38.92c0,.1.05.16.25.27h0c.05-.06.06-.12.06-.19,0-.12-.06-.24-.18-.24-.08,0-.14.08-.14.15Z" fill="#fff"/>
    <path d="M86.18,38.99c0,.07-.04.14-.19.23h0c.15.1.24.18.24.32,0,.17-.16.33-.41.33-.27,0-.37-.16-.37-.29,0-.08.05-.15.23-.26h0c-.1-.08-.19-.17-.19-.3,0-.1.04-.19.12-.24.06-.05.16-.08.26-.08.19,0,.32.11.32.28h0ZM86.01,39.66c0-.1-.06-.18-.28-.3h0c-.05.06-.08.12-.08.2,0,.12.09.26.22.26.09,0,.15-.06.15-.15ZM85.68,38.92c0,.1.05.16.25.27h0c.04-.06.06-.12.06-.19,0-.12-.06-.24-.18-.24-.08,0-.14.08-.14.15Z" fill="#fff"/>
    <path d="M87.27,38.72s-.04.12-.09.19c-.02.02-.06.04-.1.04-.12,0-.21-.01-.24-.01,0,0-.02,0-.02,0-.02.04-.02.06-.04.09,0,0,0,.02.01.02.06.03.27.12.35.16.12.06.2.15.2.3,0,.26-.27.41-.5.41-.11,0-.2-.04-.25-.09-.01-.01-.03-.04-.03-.06,0-.03.04-.1.06-.12,0,0,.02,0,.02-.01.08.11.19.2.33.2.1,0,.16-.07.16-.16,0-.08-.03-.16-.15-.24-.1-.07-.29-.14-.33-.17,0-.01,0-.05,0-.06.04-.12.14-.37.19-.45.02-.02.04-.04.05-.04.03,0,.12,0,.23,0,.06,0,.08,0,.11-.03,0,0,.03.01.03.02h0Z" fill="#fff"/>
    <path d="M76.99,36.67c-.15.23-.33.47-.47.58-.17.14-.33.15-.47.15-.93,0-1.23-.87-1.23-1.49,0-.96.38-1.42.97-1.42.23,0,.44.04.61.14.22.13.26.31.33.67.01.04.25.02.28-.03,0-.3.04-.78.07-.97-.21,0-.65-.1-1.18-.1-.46,0-.82.08-1.12.23-.63.3-.94.89-.94,1.53,0,1.22.78,1.83,2.05,1.83.41,0,.65-.08.83-.15.17-.1.42-.55.5-.8-.04-.07-.16-.15-.23-.17h0Z" fill="#fff"/>
    <path d="M73.49,37.36c-.15-.04-.16-.16-.16-.26-.01-.22,0-.78,0-1.3,0-.48,0-.77,0-.95,0-.1,0-.21.14-.25.09-.03.21-.04.33-.06.03-.03.02-.24,0-.27-.15,0-.33.02-.93.02-.41,0-.69-.02-.88-.02-.03.04-.03.23-.01.27.12.02.21.03.34.07.1.03.14.11.14.22.01.22.01.41.01,1.02,0,.27,0,1.11-.01,1.24-.02.21-.05.26-.21.29-.03,0-.09,0-.12,0-.13-.04-.18-.08-.3-.21-.25-.25-.74-.88-.86-1.11,0-.02,0-.04,0-.04.37-.16.65-.41.65-.85,0-.49-.4-.9-1.12-.9-.19,0-.53.02-1.1.02-.22,0-.7-.02-.84-.02-.04.02-.06.22-.02.27.12.02.25.04.32.07.1.02.15.09.16.21.01.2.01.59.01,1.14,0,.35,0,.98-.02,1.16,0,.15-.04.23-.17.26-.07.02-.21.04-.29.05-.04.03-.02.25,0,.27.16,0,.46-.02.91-.02s.78.02.87.02c.04,0,.05-.26.02-.27-.15-.02-.21-.03-.33-.07-.11-.03-.14-.12-.15-.24,0-.18-.01-.44-.01-.78,0-.01.02-.04.03-.04.02,0,.11,0,.16,0,.08,0,.12.02.16.08.18.29.39.64.62.93.03.06.14.17.29.25.28.14.84.14,1.16.12.15,0,.34,0,.62,0,.49,0,.74.01.91.02.04-.03.07-.22.04-.27-.13-.02-.31-.05-.37-.07h0ZM70.49,35.89c-.09.05-.36.07-.59.07-.03,0-.04-.03-.04-.06,0-.41,0-1.03.01-1.2,0-.02.02-.07.04-.08.02-.02.12-.03.18-.03.4,0,.68.28.68.74,0,.34-.12.49-.28.57Z" fill="#fff"/>
    <path d="M85.98,37.35c-.15-.04-.18-.16-.19-.29-.03-.39-.08-1.75-.07-2.17,0-.12.02-.22.15-.27.08-.03.21-.04.37-.08.04-.03.03-.26,0-.27-.28,0-.53.02-1.34.02-.01.11-.06.22-.11.35-.16.4-.61,1.34-.77,1.63-.01.01-.03.02-.04,0-.17-.32-.54-1.1-.76-1.6-.06-.12-.11-.25-.12-.39-.42,0-1.02-.02-1.46-.02-.02.02-.04.24-.02.27.18.03.35.07.45.1.11.04.15.16.14.26-.02.4-.14,1.7-.18,2.13-.02.21-.08.3-.25.34-.06.02-.16.03-.25.04-.05,0-.12,0-.16,0-.16-.03-.25-.04-.32-.07-.1-.04-.12-.16-.12-.26-.01-.25-.01-.71-.01-1.09,0-.47,0-.74,0-1.1,0-.18.02-.25.13-.29.06-.03.19-.06.31-.07.04-.04.04-.23,0-.27-.21,0-.37.02-.86.02-.46,0-.61-.02-.89-.02-.04.03-.04.24-.01.27.18.02.29.03.36.07.08.03.1.13.1.2,0,.32,0,.61,0,.88,0,.01-.02.03-.04.03-.06.01-.2.01-.61.01-.55,0-.63,0-.68-.01-.01-.01-.02-.02-.03-.04,0-.31,0-.59,0-.83,0-.14.02-.22.13-.26.06-.02.18-.04.29-.06.03-.03.03-.24,0-.27-.12,0-.41.02-.88.02-.53,0-.71-.02-.86-.02-.03.02-.04.25-.01.27.1.01.21.03.33.06.12.03.14.1.14.28,0,.17,0,.49,0,1.05,0,.5,0,1.02,0,1.11-.01.2-.05.29-.2.33-.08.02-.15.04-.28.06-.04.04-.02.24,0,.27.1,0,.38-.02.85-.02.6,0,.87.02.97.02.03-.03.06-.22.03-.27-.12-.02-.28-.05-.35-.08-.13-.04-.15-.15-.15-.28,0-.2,0-.49,0-.85,0,0,0-.03.01-.03.02-.01.08-.02.68-.02.25,0,.53,0,.64,0,.02,0,.03.02.03.03,0,.36,0,.66,0,.93,0,.12-.04.2-.13.23-.09.03-.19.04-.32.06-.04.04-.03.24,0,.27.11,0,.41-.02.89-.02s.78.02.91.02h.05c.21,0,.47-.02.69-.02.47,0,.76.02.89.02.03-.03.05-.24.02-.27-.16-.02-.28-.04-.39-.08-.18-.06-.2-.14-.2-.3,0-.39.03-1.18.07-1.76,0-.01.03-.02.04-.01.35.8.82,1.88.97,2.35.02.01.28.02.29,0,.16-.43.8-1.81,1.04-2.39,0,0,.02,0,.03,0-.01.66,0,1.37-.01,1.83,0,.21-.03.26-.12.29-.08.03-.18.04-.32.07-.02.04-.03.24,0,.27.31,0,.54-.02.85-.02.54,0,.82.02,1.02.02.04-.03.05-.22.02-.27-.15-.03-.29-.06-.37-.08l.02.02Z" fill="#fff"/>
    <path d="M88.21,34.19c-.52,0-.95.16-1.27.38-.53.37-.68.95-.68,1.42,0,.43.12.92.47,1.29.31.31.72.51,1.4.51.56,0,1.12-.22,1.52-.71.24-.31.35-.72.35-1.14,0-.93-.62-1.74-1.79-1.74h0ZM88.7,37.3c-.12.11-.27.15-.4.15-.23,0-.39-.08-.54-.2-.38-.32-.52-.95-.52-1.43,0-.51.1-.98.41-1.2.11-.08.26-.11.4-.11.21,0,.35.06.51.19.33.29.49.85.49,1.44,0,.48-.08.93-.33,1.16Z" fill="#fff"/>
    <path d="M97.15,34.63c-.31-.25-.7-.35-1.22-.35-.45,0-.57.01-1.04.02-.16,0-.75-.02-.87-.02-.14,0-.32.02-.73.02s-.68-.02-.8-.02c-.02.01-.03.25,0,.27.13.02.24.03.36.06.19.04.25.14.26.33.03.43.03.87.03,1.59-.01,0-.02,0-.03,0-.35-.39-1.09-1.32-1.56-1.91-.12-.14-.18-.24-.22-.33-.11,0-.32.01-.51.01-.44,0-.65-.02-.85-.02-.02.02-.02.25,0,.28.17.02.29.06.39.1.14.05.19.22.19.34,0,.59-.02,1.73-.05,2.03-.01.15-.06.28-.19.33-.13.04-.22.06-.35.08-.02.02-.03.24,0,.27.24,0,.57-.02.8-.02.26,0,.52.02.78.02.03-.05.04-.24.01-.27-.16-.03-.26-.04-.35-.07-.15-.04-.25-.13-.26-.38-.01-.24-.02-1.14-.02-1.76,0,0,.01-.03.03,0,.5.62,1.52,1.97,1.95,2.52.08-.01.53-.02.62,0,0-.22-.01-.54-.01-.79,0-.74.01-1.55.04-1.99.03-.28.11-.31.26-.35.03,0,.07-.02.1-.02.05-.01.17,0,.23,0,.06.01.13.02.16.03.15.04.16.11.18.27.01.26,0,.53,0,1.14,0,.44,0,1-.01,1.1-.01.15-.08.24-.21.26-.12.02-.18.04-.33.06-.03,0-.03.21,0,.27h.26c.5,0,1.02.02,1.33.02.58,0,1.13-.09,1.59-.45.35-.28.63-.71.63-1.38,0-.52-.22-.97-.59-1.26h0ZM96.51,37.07c-.18.23-.37.33-.63.33-.1,0-.33-.04-.44-.14-.04-.04-.09-.12-.1-.18-.02-.16-.01-.54-.01-1.08,0-.5,0-1.16,0-1.35,0-.01.02-.06.04-.06.02-.01.11-.02.17-.02.23,0,.51.05.72.2.36.26.55.73.55,1.21,0,.55-.13.85-.31,1.09h0Z" fill="#fff"/>
    <path d="M74.81,12.98c.09.61.26,1.18.53,1.66.21-.45.58-.8.85-.98.01.05.02.08.04.12-.24.24-.43.53-.61.85.23-.28.46-.45.69-.63.35.91,1,1.48,1.71,1.87.17-.86.47-1.61.85-1.98.02.03.04.07.06.1-.27.43-.35.66-.47,1.11.23-.39.41-.63.62-.87.2.28.39.47.57.65.64-.64,1.98-.67,2.71-.74-.85-.68-4.01-.08-5.28-1.89.08-.15.18-.28.33-.45-.32.19-.87.69-1.21,1.09.08-.21.16-.38.25-.52-.52-1-.43-2.26-.33-3.22.15-.11.3-.21.48-.29-.47.11-.81.27-1.25.58-.16-1.24.35-2.6.78-3.52-.19.04-.33.1-.51.21.22-1.03.59-1.9,1.34-2.72-.91.79-1.61,1.82-1.98,3.1.21-.1.29-.14.45-.18-.02.03-.04.07-.06.1-.29.16-.47.3-.74.59.26-.17.42-.25.59-.32-.67,1.19-1.27,2.46-.98,4.32.18-.22.47-.45.61-.51,0,.04-.01.07-.02.1-.31.3-.53.64-.67.96.18-.24.37-.43.62-.59-.08.67-.08,1.36.02,2.01" fill="#fff"/>
    <path d="M88.37,11.37c-.04.19-.04.4-.03.56.37.1.81-.47,1-1.34.17.14.33.3.51.5-.14-.34-.26-.52-.46-.76,0-.04.03-.1.04-.14,0,0,.16.11.28.27.09-.26.16-.86.21-1.68-.14.28-.39.49-.64.61-.21,1.12-.59,1.77-.88,1.97h0Z" fill="#ffd200"/>
    <path d="M89.96,6.34c0-.26-.02-.45-.08-.67.06.02.15.06.2.09-.04-.54,0-.82-.21-1.3,0,.28-.02.63-.19.79-.14.13-.29.23-.44.29.26.18.54.45.73.8h0Z" fill="#ffd200"/>
    <path d="M77.08,11.01c.16-.14.33-.23.52-.29,0,.02.02.04.03.06-.31.21-.51.39-.78.74.34-.25.62-.39.91-.53.59.85,1.85,1.52,3.25,1.7-.19-.4-.91-.9-1.17-1.3-.49-.75-.2-1.63.22-2.17-1.02.45-1.28.77-1.42,1.46-1.23-1.2-1.38-4.22-1.16-5.89-.68,1.24-1.22,2.13-1.22,3.87.2-.08.41-.17.65-.2-.13.66-.1,1.73.16,2.53h0Z" fill="#ffd200"/>
    <path d="M80.52,3.96c.4.34.6.58,1.42.76.14.03.33.03.49.02-.33.24-.78.34-1.24.39-.61.07-1.55-.4-2.24-.53-.26-.27-.3-.54-.18-.73.05-.08.12-.26.28-.4h.1c.22.02.43.04.65.1.25.06.52.24.71.39h0Z" fill="#fff"/>
    <path d="M81.17,6.55c.64.04,1.18.2,1.66.32.08.02.15.04.22.06.84.24,1.64.49,2.34.75.26.17-.98-.14-2.33-.51.03.12.09.23.2.33.12.11.22.22.28.31-.37-.1-.74-.19-1.11-.25-.47-.07-.92-.1-1.33-.06.53.04,1.19.12,1.88.29.02,0,.03,0,.04,0s.03,0,.05,0c.86.18,1.69.38,2.41.59.24.14-.64,0-1.77-.21.09.35.04.62.66.81.77.24,1.96.11,2.43-.1.31-.14.65-.43.71-.56.02-.05.04-.09.06-.13-.43-.14-.28-.65-.77-.96-.35-.22-.35-.43-.54-.78-.07-.13-.17-.28-.3-.45-.51-.6-.71-.69-1.21-.64-.33.03-.85.15-1.25.65-.12-.05-.24-.1-.37-.14-.65-.24-1.31-.41-1.96-.42.67.09,1.13.23,1.97.53.87.29,1.69.6,2.39.91.23.18-.93-.17-2.23-.59-.09.14-.18.31-.22.48-.18-.06-.37-.1-.55-.14-.46-.1-.91-.16-1.35-.13h0Z" fill="#fff"/>
    <path d="M83.75,3.78s-.08-.04-.11-.07c0,.04-.01.07-.03.11-.38.02-.89-.51-1.13-.73-.36-.33-.74-.41-1.27-.46-.25.02-.29-.07.01-.14.35-.05.65-.03.92.04-.19-.16-.38-.3-.63-.39-.18-.06-.38-.14-.57-.15-.12,0-.27.03-.4.07-.22.07-.49.19-.66.29,0,.24-.08.49-.05.74.02.13-.01.21.1.28.06.04.13.11.2.15.07.04.22.02.33,0,.27-.05.49-.14.71-.16.61-.04,1.19.05,1.58.33.39.3.86.59.98.66.04.02.1.08.17.07.04-.03.09-.05.13-.08v-.07c0-.12-.06-.38-.3-.5h0Z" fill="#fff"/>
    <path d="M89.09,3.29c-.03-.14-.08-.35-.13-.44-.11-.18-.21-.31-.33-.43-.22-.14-.5-.24-.88-.35-.18-.05-.55-.08-.61-.07-.11.02-.16.1-.2.17-.06.11.18.39.35.66.14-.19.32-.28.66-.31.25,0,.25.08.06.12-.11.02-.31.14-.44.47-.09.22-.09.57-.45.66-.03-.04-.06-.07-.07-.11-.05.08-.14.22-.06.37l.09.08s.06.04.1.05c-.03-.26.33-.49.48-.63.31-.3.74-.2.94-.12.14.05.26.18.39.24.12.03.12-.11.14-.17.02-.06-.03-.12-.04-.18h0Z" fill="#fff"/>
    <path d="M83.8,15.11c-.01.18.07.39.18.59.12.2.28.36.47.43.04.15.05.28.04.43.26.06.45,0,.67-.12.06.12.07.27.05.47.22-.02.36-.06.53-.18,0,.1,0,.24-.03.37.11-.16.16-.28.19-.42.02,0,.04-.02.06-.03.02.17.03.32-.02.6.17-.3.22-.47.26-.75.02-.02.03,0,.05-.02.04.15.08.29.07.5.45-.09.68-.32.85-.7.07.07.17.19.23.3.38-.18.53-.64.6-.94.04-.16.07-.45.04-.57.04.02.08.04.11.06.15-.32.08-.77.27-1.03.15-.22.04-.43-.03-.68-.06,1.31-.55.73-.67.67-.43-.23-1.96-.21-2.58-.04-.26.07-.45.11-.59.25-.44.43-.59.26-.67-.12-.01-.16-.03-.28-.06-.41,0-.02,0-.05,0-.08v.05c0,.33-.36.34-.38.65,0,.04,0,.09.01.15.04.13.38.38.37.57h0Z" fill="#fff"/>
    <path d="M82.31,3.98c-.12-.02-.21-.09-.2-.15.01-.06.12-.1.24-.08.12.02.21.09.2.15-.01.06-.12.1-.24.08Z" fill="#fff"/>
    <path d="M88.34,3.71c.02.06-.06.12-.16.16-.1.03-.2.01-.22-.04-.02-.06.06-.12.16-.16.1-.03.2-.01.22.04h0Z" fill="#fff"/>
    <path d="M89.31,4.91c.04-.14.14-.29.16-.43.01-.13-.05-.36-.11-.59-.31-.07-.39.02-.5.16-.22.28-.26.35-.52.47-.18.09-.35.09-.53.05.22.18.48.31.73.33.27.03.54.12.77,0h0Z" fill="#fff"/>
    <path d="M89.48,3.51c0,.16.15.32.09.4-.05.02-.13,0-.21-.01.06.23.12.45.11.59-.01.13-.12.29-.16.43,0,0,0,0,.01,0,.03-.02.06-.04.1-.08.28-.3.39-.45.36-.79-.02-.09.21.02.37.31-.15-.31-.3-.6-.45-.83-.05-.08-.1-.15-.14-.22-.06-.05-.08.09-.08.21h0Z" fill="#ffd200"/>
    <path d="M88.47,3.71s-.01-.03-.02-.05h-.07c.05.22-.09.45-.32.52-.24.07-.49-.06-.56-.29h0c-.05.04-.1.09-.12.14.09.3.4.47.7.38.3-.09.47-.4.38-.7h0Z" fill="#7e5300"/>
    <path d="M82.74,3.86c-.06.3-.35.49-.66.44-.31-.06-.52-.34-.47-.64,0-.01,0-.03,0-.04-.07,0-.14,0-.2.02-.01.04-.02.08-.03.12-.07.39.2.76.58.83.39.07.76-.2.83-.58,0-.03,0-.06,0-.08-.02-.02-.05-.03-.07-.05h0Z" fill="#7e5300"/>
    <path d="M84.82,13.56c-.28.16-.2-.07-.26-.23-.11-.28-.33-.52-.37-1.13-.03-.26-.05-.71.22-.79.42-.13,1.05.29,1.42.29s.71-.37,1.07-.31c.24.04.33.35.41.65.08.32.06.56.09.78.02.15.04.19.08.26,0,0-.09.12-.09.12,0,0,0,0,0,0-.04-.03-.08-.05-.13-.05s-.1.02-.14.06c-.03.03-.05.06-.08.1-.02-.01-.05-.02-.08-.02-.04,0-.09.02-.12.05-.03-.02-.06-.03-.1-.03-.04,0-.08.02-.11.04-.03-.03-.07-.04-.11-.04-.04,0-.07.01-.1.03-.03-.03-.07-.05-.12-.05-.03,0-.06,0-.08.02-.02-.04-.05-.07-.09-.11-.04-.03-.08-.05-.13-.05s-.1.02-.14.06c-.02.01-.03.03-.04.05-.09-.29-.14-.51-.2-.71-.02-.07-.04-.14-.05-.22-.04-.17-.1-.33-.26-.33-.18,0-.25.22-.28.34-.1.33-.19.9-.22,1.24h-.02Z" fill="#d71921"/>
    <path d="M85.07,9.5c0-.12.32-.2.47-.2s.44.1.42.24c-.14.63-.16.97-.21,1.38-.05.39-.19.37-.33,0-.13-.33-.26-.72-.34-1.41h0ZM86.19,9.35s.11-.08.18-.08.19.04.19.08c0,.08-.04.2-.16.32-.02.02-.05.02-.08,0-.08-.07-.13-.24-.13-.31ZM86.61,9.32s.07-.05.11-.05.12.02.12.05c0,.05-.02.13-.1.2-.01.01-.03.01-.05,0-.04-.04-.08-.15-.08-.2h0ZM86.87,9.3s.06-.05.11-.05c.04,0,.12.02.12.05,0,.05-.02.13-.1.2-.01.01-.03.01-.05,0-.05-.04-.08-.15-.08-.2h0ZM87.12,9.3s.07-.05.11-.05.12.02.12.05c0,.05-.02.13-.1.2-.01.01-.03.01-.05,0-.05-.04-.08-.15-.08-.2h0ZM88.97,9.53c-.13.53-.3.91-.5,1.26-.26.44-.34.37-.31.1.03-.36.1-.73.02-1.35,0-.11.24-.22.4-.22s.41.09.39.22h0ZM85.76,13.48c.03.12-.2.18-.3.18s-.35-.04-.37-.14c-.01-.57.06-.89.12-1.16.06-.31.16-.33.24,0,.08.33.14.62.31,1.14h0ZM87.46,13.48c.3-.52.4-.83.52-1.14.09-.23.18-.29.2.08.02.29.03.61-.08,1.05-.04.1-.24.16-.36.16s-.33-.08-.29-.17h0ZM87.83,9.27c.07,0,.19.04.19.08,0,.08-.04.2-.16.32-.02.02-.05.02-.08,0-.08-.07-.13-.24-.13-.31,0-.04.11-.08.18-.08ZM87.39,9.32s.07-.05.11-.05.12.02.12.05c0,.05-.02.13-.1.2-.01.01-.03.01-.05,0-.04-.04-.08-.15-.08-.2h0ZM87.07,13.58s-.06.04-.1.04-.1-.02-.1-.04c0-.04.03-.13.07-.17.02-.02.03-.02.04,0,.06.06.08.12.08.17h0ZM86.85,13.6s-.06.04-.1.04-.1-.02-.1-.04c0-.04.03-.13.07-.17.02-.02.03-.02.04,0,.06.06.08.12.08.17h0ZM86.54,13.43c.06.06.08.12.08.17,0,.02-.06.04-.1.04s-.1-.02-.1-.04c0-.04.03-.13.07-.17.02-.02.03-.02.04,0h0ZM86.4,13.58s-.06.04-.1.04-.1-.02-.1-.04c0-.04.03-.13.07-.17.02-.02.03-.02.04,0,.06.06.08.12.08.17h0ZM86.16,13.55s-.1.07-.16.07-.16-.04-.15-.07c0-.06.05-.21.11-.27.02-.02.05-.02.07,0,.1.1.13.2.13.27h0ZM87.22,13.29s.05-.02.07,0c.1.1.13.2.13.27,0,.04-.1.07-.16.07s-.16-.04-.15-.07c0-.06.05-.21.11-.27h0Z" fill="#fff"/>
    <path d="M92.79,22.05c-.04-.19-.08-.37-.1-.43-.3-.96-.82-1.69-1.35-2.26-.22-.24-.45-.45-.67-.63-.93-.8-1.42-1.24-1.32-2.62,0-.03,0-.06,0-.09.02-.18.06-.33.11-.45-.29.23-.62.42-.94.57-.03.14-.16.59-.42.9.3,1,1.04,2.05,1.42,2.52-.21-.41-.26-.66-.43-1.12.6.78,1.3,1.88,1.37,3.02-.38-.4-.77-.74-1.05-.88.53,1.19.47,1.95.15,3.09-.65,2.28-1.77,2.64-3.18,5.08.33-.36.61-.63.95-.84-.67.75-1.3,1.96-1.29,3.1,3.33-2.45,5.49-5.56,6.75-8.95h0Z" fill="#ffd200"/>
    <path d="M92.53,17.01c-.47-.82-.68-1.51-1.36-2.18-.12-.12-.32-.3-.51-.53-.13.2-.26.36-.46.57,0,.09.03.36.04.51.05,1.31.85,2.12,1.81,2.98.41.37,1.05.92,1.44,1.45.1-.4.19-.8.27-1.2-.5-.53-.98-1.17-1.23-1.6h0Z" fill="#ffd200"/>
    <path d="M92.2,15.28c.3.59,1.11,1.63,1.75,2.23.04-.28.08-.55.11-.82-.57-.29-1.26-.87-1.86-1.41Z" fill="#ffd200"/>
    <path d="M76.98,16.27c-.23-.25-.43-.51-.59-.76-.44.78-1.05,1.89-1.37,3.07.22-.4.49-.82.49-.82-.24.76-.49,1.74-.65,2.92-.16,1.16-.2,2.67-.04,4.21.46.81.98,1.6,1.57,2.36-1.21-3.68-1.29-7.64.59-10.98h0Z" fill="#ffd200"/>
    <path d="M83.5,17.73c-.14-.18-.27-.36-.37-.53-.32-.15-.6-.3-.79-.45-.36.19-.74.45-1.2.82.3-.37.64-.68,1.02-.95-.18-.14-.33-.3-.45-.45-.37.18-.7.31-1.09.62.29-.42.51-.55.96-.85-.01-.02-.05-.07-.06-.1-.61.22-1.11.49-1.45.79-.18-.18-.4-.47-.59-.78-.12.27-.24.56-.33.87-.07.26-.12.47-.14.56,0,0,0,0,0,.01,0,.04-.02.08-.02.13-.19-.03-.53-.13-.81-.26-.1.85.01,1.95.41,3.05-.04-.39-.05-.59-.02-.89.19.83.41,1.35.82,1.78.61-.91,1.81-1.88,2.99-2.34-.45.08-.79.17-1.25.33.6-.4,1.07-.61,1.63-.92.3-.16.56-.32.75-.47h0Z" fill="#ffd200"/>
    <path d="M90.96,13.77c.57-.85.51-2.39.35-3.58.12.06.24.14.36.26-.12-.24-.22-.37-.4-.53,0-.04-.01-.1-.02-.14.1.08.18.14.26.22.09-1.03.06-1.85-.28-2.77,0,0,.1-.02.2.02-.02-.07-.06-.16-.1-.28-.15.08-.3.15-.47.22.03.18.06.35.08.54-.29,0-.61.08-.94.19v-.04c0-.16,0-.29,0-.41-.63.2-1.18.33-1.04.21.26-.12.53-.24.82-.35.02,0,.04-.02.06-.02.04-.02.09-.03.14-.05.49-.17,1.01-.3,1.51-.37-.06-.01-.13-.02-.2-.02-.07-.19-.15-.41-.24-.64-.11.06-.24.14-.38.21.04.14.08.3.12.47-.27.06-.55.16-.83.28-.03-.14-.07-.27-.13-.38-.46.18-.8.29-.69.18.71-.42,1.3-.73,2.15-.95.02,0,.04,0,.06-.01-.11-.01-.28,0-.37.02-.03-.07-.06-.15-.09-.22-.01-.03-.07-.18-.08-.2h.08c-.37-1.03-.94-2.09-1.74-2.89.28.38.36.51.55.81.39.61.85,1.63,1.08,2.55-.35.1-.68.29-1.04.53-.02-.04-.05-.09-.08-.14-.06-.1-.29-.3-.47-.39.06.13.08.32.02.54-.12.39-.3.61-.52.88-.19.23-.41.75-.83.79v.11c0,.26.29.6.44.67.3.14.36.16.72.08.36-.08.56-.32.68-.47.1-.12.18-.26.24-.41-.64.16-1.22.28-1.07.15.28-.12.57-.23.88-.32,0,0,.01,0,.02,0,.51-.15,1.06-.26,1.59-.3-.11.07-.24.12-.37.17.03.35.04.7-.01.98.12.11.23.25.34.45-.09-.07-.17-.14-.26-.2-.3-.22-.52-.33-.86-.39.19.09.36.21.51.33-.02.9-.14,2.2-.44,2.85-.1-.15-.2-.25-.36-.36,0,.01-.03.06-.03.07.22.26.34.45.47.82-.21-.24-.39-.43-.55-.58-.31.9-.73,1.08-1.08,1.11,0,0,.33.69.03,1.37-.02.05-.04.12-.04.2.09.18.06.29.13.51.56-.24,1.22-.91,1.6-1.45.17.16.33.32.55.57-.13-.33-.24-.51-.43-.74.02-.03.04-.04.06-.08.15.11.24.19.36.38h.01Z" fill="#fff"/>
    <path d="M91.2,2.36c-.54.06-1.14,0-1.62-.26.4.01.7-.06,1.44-.28-.22.02-2.45.08-3.75-.25-.57-.26-2.41-.99-3.52-.38-1.82-.59-4.11.02-4.78.53-1.22,0-2.5-.09-3.23-.32.59.41,1.06.48,1.41.56-.89.04-1.53-.1-2.49-.3.32.31.55.44,1.02.58-.28.02-.57.01-.88-.04.37.3,1.3.81,2.08.45.23-.1.96-.49,1.57-.56-.34.18-.88.67-1.19,1.02-.01.02-.02.04-.03.05.28-.2.61-.36.94-.42-.49.37-.71.75-.73,1.15.17-.18.31-.37.5-.44.05-.02.08.04.12.12.07.1.12.33.22.55.1.22.25.41.48.43.06,0,.11.02.17.03-.26-.27-.3-.54-.18-.73.05-.08.12-.26.28-.4-.1,0-.2,0-.26-.09-.05-.08-.09-.17-.11-.26-.02-.09-.11-.24-.09-.33.21,0,.42.06.63,0,.32-.09.24-.42.63-.69.03.08.04.16.04.24.17-.1.44-.22.66-.29.13-.04.28-.08.4-.07.2.01.39.09.57.15.24.08.44.23.63.39.56.14.96.49,1.37.88.09.1.14.18.12.3.04.02.08.05.11.07.24.12.3.39.3.5v.07c.61-.35,1.12-.55,1.74-.28-.58-.04-1.14.26-1.61.66-.31.27-.96.86-1.45.88-.05-.21.03-.32.19-.47.2-.16.41-.31.62-.46-.11-.02-.24-.02-.37,0-.18.24-.43.37-.6.45-.57.26-.86.38-1.95.29-.69-.05-1.19.06-1.55.06s-.55-.08-.75-.26c-.21-.18-.3-.45-.41-.76-.02.93.24,3.23,1.18,3.76.15-.11.44-.18.69-.18-.37.18-.77.53-.99.97.86-.75,1.51-.94,2.58-.94-.44.76-.54,1.42-.52,2.06.01.4.06.72.15.97.17.54.45,1.09.81,1.49-.08-.2-.16-.39-.22-.59.26.27.55.55.87.99.41.56.68.64.96,1.41.02-.31.39-.32.38-.65-.06-.22-.15-.43-.3-.73-.29-.58-1.29-2.59-1.33-3.82-.02-.43.26-.67.35-.85.06-.12.06-.24.04-.36-.51-.12-1.09-.3-1.46-.46.41-.05.87-.02,1.33.06-.05-.17-.09-.35-.04-.57,0,0,0-.02,0-.03-.45-.14-.84-.27-1.23-.43.44-.03.89.03,1.35.13.08-.16.2-.32.34-.48-.77-.27-1.34-.52-1.69-.7.65.01,1.31.18,1.96.42.14-.14.32-.29.5-.43.17-.13.35-.31.52-.44.53-.36,1.24-.83,1.85-.44-.1,0-.21.01-.32.03-.36.04-.15.57.26.99.22.23.44.55.69.92.17.24.19.32.37.37.32.1.67.25.59.45-.06.14-.29.08-.24.26.1.37.37.44.59.4.04-.01.07-.02.11-.03.04-.01.07-.03.1-.04.11-.07.15-.18.27-.36.05-.11-.04-.11-.04-.2,0-.07.12-.22.29-.36.21-.18.33-.52.33-.67,0-.19,0-.31-.08-.45-.32-.45-1.16-.96-1.26-1.04-.29-.22-.56-.25-.86-.27.16-.14.29-.14.41-.09-.09-.09-.14-.14-.22-.19-.26-.18-.55-.24-.92-.26.41-.19.64-.18.98.06l-.09-.08c-.07-.14.02-.29.06-.37-.05-.11-.04-.21-.01-.3.08-.23.16-.4.25-.53-.17-.26-.41-.54-.35-.66.04-.08.09-.15.2-.17.07-.01.43.02.61.07.39.11.66.21.88.35-.02-.02-.05-.05-.08-.08-.22-.17-.47-.34-.8-.52.39.18.87.39,1.13.53.52.26.92.67,1.83.61-.24-.05-.61-.22-.96-.48.16,0,.62.14,1.45-.12h-.02ZM81.31,6.12c-.32.24-.82.43-1.3.34-.06.2-.04.55.12.96-.81-.36-1.3-.97-1.35-1.43.52-.25,1.62.12,2.54.13ZM88.08,6.4c.21.01.53,0,.71-.09.01.14-.5.37-.61.37-.12,0-.25-.08-.36-.11-.15-.04-.3-.07-.4-.09-.08-.01-.18-.05-.19-.15.28.02.56.06.85.07ZM81.8,1.35c.82-.16,1.94-.04,2.34.27.32-.22.88-.37,1.82-.22-.79.05-1,.1-1.19.24.24-.05.49-.06.93.04-.52.04-1.17.18-1.16.48-.35-.26-1.1-.47-1.77-.47.34-.1.6-.1.8-.05-.42-.2-.79-.28-1.77-.29h0ZM85.28,3.1c-.38-.4-.87-.67-1.8-.82.51-.09,1.22.02,1.55.23.36-.29.74-.35,1.18-.29-.43.13-1.02.47-.93.88h0Z" fill="#ffd200"/>
  </g>
  <path d="M2.13,54.62c-.27,0-.52-.05-.76-.14-.23-.1-.44-.24-.61-.41-.17-.18-.31-.38-.4-.62s-.14-.49-.14-.76.05-.53.14-.76c.1-.24.23-.44.4-.62.17-.18.38-.31.61-.41.24-.1.49-.15.76-.15s.52.05.76.15c.23.1.43.23.61.41.18.18.31.38.41.62.1.23.14.49.14.76s-.05.53-.14.76-.23.44-.41.62c-.17.18-.38.31-.61.41-.23.1-.48.14-.76.14ZM2.13,53.83c.22,0,.4-.05.56-.16.16-.11.28-.25.36-.42.08-.18.13-.37.13-.58s-.04-.4-.13-.57c-.08-.18-.2-.32-.36-.42-.15-.11-.34-.16-.56-.16s-.4.05-.56.16c-.15.1-.27.24-.36.42-.08.17-.13.36-.13.57s.04.4.13.58c.08.18.2.32.36.42.16.11.35.16.56.16ZM4.62,54.52v-3.68h2.47v.73h-1.64v.83h1.25v.71h-1.25v1.4h-.83ZM7.59,54.52v-3.68h2.47v.73h-1.64v.83h1.25v.71h-1.25v1.4h-.83ZM10.57,54.52v-3.68h.83v3.68h-.83ZM14.87,53.33l.57.52c-.1.14-.24.27-.4.39-.16.12-.34.21-.54.28s-.41.1-.64.1c-.37,0-.7-.08-.99-.25-.28-.17-.51-.39-.67-.68-.16-.29-.24-.62-.24-.99,0-.27.05-.53.14-.76.09-.24.22-.45.39-.62.17-.18.37-.31.6-.41.24-.1.49-.15.78-.15.34,0,.64.06.89.19.26.12.47.31.64.54l-.57.55c-.11-.15-.24-.28-.39-.37-.15-.1-.33-.14-.54-.14-.22,0-.41.05-.57.16-.16.1-.28.24-.37.42-.08.18-.13.37-.13.58s.04.41.13.58c.09.17.21.31.37.41.16.1.34.15.56.15.18,0,.32-.02.44-.07.12-.05.22-.11.3-.18.08-.08.16-.16.24-.24ZM15.88,54.52v-3.68h.83v3.68h-.83ZM17.11,54.52l1.37-3.68h.92l1.35,3.68h-.91l-.28-.84h-1.3l-.28.84h-.87ZM18.45,53.03h.9l-.45-1.39-.46,1.39ZM21.15,54.52v-3.68h.83v2.94h1.76v.74h-2.59ZM24.96,54.01l.54-.58c.1.1.22.2.38.3.16.1.35.15.56.15.08,0,.17-.01.25-.04.08-.03.15-.08.2-.14.06-.06.08-.14.08-.22,0-.14-.07-.24-.2-.32-.13-.08-.34-.15-.63-.22-.28-.07-.51-.19-.7-.37-.18-.18-.28-.4-.28-.68,0-.21.05-.39.15-.56.1-.17.25-.31.45-.41.2-.11.45-.16.75-.16.25,0,.46.03.63.1.17.06.31.13.41.21.1.08.17.14.22.19l-.48.53c-.08-.06-.19-.13-.32-.21-.13-.08-.29-.12-.47-.12-.12,0-.23.03-.33.1-.1.07-.15.15-.15.24,0,.13.07.23.2.3.13.08.31.14.55.19.18.04.35.11.52.2.17.09.31.21.41.37.11.16.16.36.16.62,0,.22-.06.42-.19.59-.13.17-.29.31-.51.41s-.45.15-.72.15c-.24,0-.46-.03-.65-.09-.19-.06-.35-.13-.49-.23-.14-.1-.26-.19-.35-.3ZM28.46,53.13v-2.28h.84v2.18c0,.24.05.43.15.58.11.15.29.22.55.22s.44-.07.55-.22c.1-.15.15-.34.15-.58v-2.18h.84v2.28c0,.29-.06.55-.19.78-.12.22-.3.4-.54.53-.23.12-.5.19-.82.19s-.58-.06-.82-.19c-.23-.13-.41-.3-.54-.52-.13-.23-.19-.49-.19-.78ZM32.23,54.52v-3.68h1.34c.31,0,.55.06.74.17.19.11.33.26.42.44.09.18.13.37.13.58,0,.26-.06.48-.18.66-.12.18-.27.31-.46.4-.19.09-.39.13-.61.13h-.57v1.3h-.81ZM33.04,52.55h.49c.15,0,.27-.05.36-.14.09-.1.14-.22.14-.36,0-.15-.05-.28-.14-.38-.09-.1-.22-.15-.37-.15h-.48v1.03ZM35.42,54.52v-3.68h2.52v.73h-1.68v.72h1.31v.71h-1.31v.79h1.8v.73h-2.64ZM38.62,54.52v-3.68h1.37c.29,0,.53.05.72.16.19.1.33.24.43.42.1.17.14.36.14.57,0,.24-.05.44-.16.62-.1.18-.25.32-.44.43l.82,1.47h-.92l-.68-1.35h-.46v1.35h-.81ZM39.43,52.5h.51c.15,0,.28-.05.36-.14.09-.09.13-.21.13-.35,0-.15-.05-.27-.14-.36-.09-.09-.21-.13-.36-.13h-.51v.98ZM41.65,54.52l1.37-3.68h.92l1.35,3.68h-.91l-.28-.84h-1.3l-.28.84h-.87ZM43,53.03h.9l-.45-1.39-.46,1.39ZM45.69,54.52v-3.68h.79l1.59,2.39v-2.39h.82v3.68h-.76l-1.63-2.43v2.43h-.82ZM49.62,54.52v-3.68h.79l1.59,2.39v-2.39h.82v3.68h-.76l-1.63-2.43v2.43h-.82ZM53.52,53.13v-2.28h.84v2.18c0,.24.05.43.15.58.11.15.29.22.55.22s.44-.07.55-.22c.1-.15.15-.34.15-.58v-2.18h.84v2.28c0,.29-.06.55-.19.78-.12.22-.3.4-.54.53-.23.12-.5.19-.82.19s-.58-.06-.82-.19c-.23-.13-.41-.3-.54-.52-.13-.23-.19-.49-.19-.78ZM56.81,54.52l1.37-3.68h.92l1.35,3.68h-.91l-.28-.84h-1.3l-.28.84h-.87ZM58.16,53.03h.9l-.45-1.39-.46,1.39ZM61.2,54.52v-2.95h-1.19v-.73h3.22v.73h-1.19v2.95h-.84ZM63.7,54.52v-3.68h.83v3.68h-.83ZM67.02,54.62c-.27,0-.52-.05-.76-.14-.23-.1-.44-.24-.61-.41-.17-.18-.31-.38-.4-.62-.1-.24-.14-.49-.14-.76s.05-.53.14-.76c.1-.24.23-.44.4-.62.17-.18.38-.31.61-.41.24-.1.49-.15.76-.15s.52.05.76.15c.23.1.43.23.61.41.18.18.31.38.41.62.1.23.14.49.14.76s-.05.53-.14.76c-.1.24-.23.44-.41.62-.17.18-.38.31-.61.41-.23.1-.48.14-.76.14ZM67.02,53.83c.22,0,.4-.05.56-.16.16-.11.28-.25.36-.42.08-.18.13-.37.13-.58s-.04-.4-.13-.57c-.08-.18-.2-.32-.36-.42-.15-.11-.34-.16-.56-.16s-.4.05-.56.16c-.15.1-.27.24-.36.42-.08.17-.13.36-.13.57s.04.4.13.58c.08.18.2.32.36.42.16.11.35.16.56.16ZM69.51,54.52v-3.68h.79l1.59,2.39v-2.39h.82v3.68h-.76l-1.63-2.43v2.43h-.82ZM74.44,54.52v-3.68h1.34c.31,0,.55.06.74.17.19.11.33.26.42.44.09.18.13.37.13.58,0,.26-.06.48-.18.66-.12.18-.27.31-.46.4-.19.09-.39.13-.61.13h-.57v1.3h-.81ZM75.25,52.55h.49c.15,0,.27-.05.36-.14.09-.1.14-.22.14-.36,0-.15-.05-.28-.14-.38-.09-.1-.22-.15-.37-.15h-.48v1.03ZM76.84,54.52l1.37-3.68h.92l1.35,3.68h-.91l-.28-.84h-1.3l-.28.84h-.87ZM78.18,53.03h.9l-.45-1.39-.46,1.39ZM80.88,54.52v-3.68h1.37c.29,0,.53.05.72.16.19.1.33.24.43.42.1.17.14.36.14.57,0,.24-.05.44-.16.62-.1.18-.25.32-.44.43l.82,1.47h-.92l-.68-1.35h-.46v1.35h-.81ZM81.69,52.5h.51c.15,0,.28-.05.36-.14.09-.09.13-.21.13-.35,0-.15-.05-.27-.14-.36-.09-.09-.21-.13-.36-.13h-.51v.98ZM85.07,54.52v-2.95h-1.19v-.73h3.22v.73h-1.19v2.95h-.84ZM87.57,54.52v-3.68h.79l1.59,2.39v-2.39h.82v3.68h-.76l-1.63-2.43v2.43h-.82ZM91.49,54.52v-3.68h2.52v.73h-1.68v.72h1.31v.71h-1.31v.79h1.8v.73h-2.64ZM94.69,54.52v-3.68h1.37c.29,0,.53.05.72.16.19.1.33.24.43.42.1.17.14.36.14.57,0,.24-.05.44-.16.62-.1.18-.25.32-.44.43l.82,1.47h-.92l-.68-1.35h-.46v1.35h-.81ZM95.51,52.5h.51c.15,0,.28-.05.36-.14.09-.09.13-.21.13-.35,0-.15-.05-.27-.14-.36-.09-.09-.21-.13-.36-.13h-.51v.98Z" fill="#fff"/>
</svg>