<svg width="359" height="37" viewBox="0 0 359 37" fill="none" xmlns="http://www.w3.org/2000/svg">
<path d="M10.5637 35.3147V8.93131H0V0.944144H30.2482V8.93131H19.7876V35.3147H10.5637Z" fill="white"/>
<path d="M33.3376 35.3147V0.944144H42.4584V13.5175H55.1348V0.944144H64.2556V35.3147H55.1348V21.8654H42.4584V35.3147H33.3376Z" fill="white"/>
<path d="M66.5089 35.3147L79.1337 0.944144H89.5943L101.755 35.3147H91.9132L89.6974 28.2036H78.2062L75.9389 35.3147H66.5089ZM80.0613 21.5562H87.8423L84.0291 8.93131L80.0613 21.5562Z" fill="white"/>
<path d="M106.859 35.3147V8.93131H96.2949V0.944144H126.543V8.93131H116.082V35.3147H106.859Z" fill="white"/>
<path d="M128.705 13.7236L130.045 0.944144H139.114L135.146 13.7236H128.705Z" fill="white"/>
<path d="M136.843 31.0893L142.356 24.4419C143.318 25.4038 144.572 26.2798 146.118 27.0699C147.698 27.86 149.399 28.2551 151.219 28.2551C152.147 28.2551 153.04 28.0662 153.899 27.6883C154.758 27.3104 155.187 26.589 155.187 25.524C155.187 24.6308 154.724 23.8922 153.796 23.3082C152.868 22.6898 151.546 22.1058 149.828 21.5562L147.922 20.9378C146.513 20.4569 145.105 19.8213 143.696 19.0312C142.322 18.2067 141.171 17.159 140.244 15.8879C139.35 14.6168 138.904 13.0537 138.904 11.1986C138.904 9.06872 139.402 7.16211 140.398 5.47879C141.429 3.79548 142.94 2.47287 144.933 1.51098C146.925 0.514727 149.347 0.0166016 152.199 0.0166016C154.466 0.0166016 156.424 0.274253 158.073 0.789555C159.756 1.30486 161.148 1.90604 162.247 2.59311C163.346 3.28018 164.154 3.89854 164.669 4.44819L160.031 10.3226C158.829 9.42943 157.575 8.70801 156.269 8.15836C154.964 7.57435 153.624 7.28235 152.25 7.28235C151.357 7.28235 150.498 7.48847 149.674 7.90071C148.883 8.2786 148.488 8.94849 148.488 9.91038C148.488 10.9753 148.969 11.7483 149.931 12.2292C150.893 12.7102 152.113 13.1911 153.59 13.6721L155.239 14.1874C156.407 14.5309 157.575 14.9775 158.743 15.5272C159.945 16.0425 161.045 16.7124 162.041 17.5368C163.037 18.3613 163.827 19.4091 164.411 20.6802C165.03 21.9169 165.339 23.4456 165.339 25.2664C165.339 27.3619 164.703 29.2342 163.432 30.8831C162.195 32.5321 160.512 33.8204 158.382 34.7479C156.287 35.6754 153.951 36.1392 151.374 36.1392C147.939 36.1392 145.053 35.6754 142.717 34.7479C140.415 33.8204 138.457 32.6008 136.843 31.0893Z" fill="white"/>
<path d="M172.608 35.264L185.221 0.926645H195.671L207.82 35.264H197.988L195.774 28.1597H184.294L182.029 35.264H172.608ZM186.147 21.5187H193.921L190.111 8.90608L186.147 21.5187Z" fill="#FFD000"/>
<path d="M219.921 35.264V0.926645H233.923C237.596 0.926645 240.547 1.90477 242.778 3.86102C245.009 5.78295 246.124 8.5972 246.124 12.3038C246.124 14.6376 245.609 16.6796 244.58 18.4299C243.55 20.1459 242.143 21.4844 240.358 22.4454C238.574 23.372 236.515 23.8354 234.181 23.8354H228.827V35.264H219.921ZM228.827 16.6796H233.151C234.387 16.6796 235.365 16.2849 236.086 15.4956C236.806 14.7062 237.167 13.6937 237.167 12.4582C237.167 11.1541 236.823 10.1073 236.137 9.31793C235.451 8.52856 234.438 8.13388 233.1 8.13388H228.827V16.6796Z" fill="#FFD000"/>
<path d="M249.094 35.264V0.926645H258.206V27.2331H274.113V35.264H249.094Z" fill="#FFD000"/>
<path d="M276.514 21.8791V0.926645H285.626V21.0554C285.626 22.943 286.055 24.4874 286.913 25.6886C287.805 26.8899 289.264 27.4905 291.289 27.4905C293.314 27.4905 294.755 26.8899 295.613 25.6886C296.471 24.4531 296.9 22.9087 296.9 21.0554V0.926645H306.115V21.8791C306.115 24.7963 305.48 27.336 304.21 29.4982C302.941 31.626 301.19 33.2734 298.959 34.4403C296.763 35.5729 294.223 36.1391 291.34 36.1391C288.457 36.1391 285.901 35.5729 283.67 34.4403C281.439 33.3077 279.689 31.6775 278.419 29.5497C277.149 27.3875 276.514 24.8306 276.514 21.8791Z" fill="#FFD000"/>
<path d="M308.716 31.0426L314.225 24.4016C315.185 25.3626 316.438 26.2378 317.983 27.0271C319.561 27.8165 321.26 28.2112 323.079 28.2112C324.006 28.2112 324.898 28.0224 325.756 27.6449C326.614 27.2674 327.043 26.5466 327.043 25.4827C327.043 24.5904 326.58 23.8525 325.653 23.2691C324.726 22.6513 323.405 22.0679 321.689 21.5187L319.784 20.901C318.377 20.4205 316.97 19.7856 315.563 18.9962C314.19 18.1725 313.04 17.1258 312.114 15.8559C311.221 14.5861 310.775 13.0245 310.775 11.1712C310.775 9.04336 311.273 7.1386 312.268 5.45691C313.298 3.77522 314.808 2.45389 316.799 1.49293C318.789 0.497643 321.209 0 324.057 0C326.322 0 328.279 0.257402 329.926 0.772206C331.608 1.28701 332.998 1.88761 334.096 2.57401C335.194 3.26042 336.001 3.87818 336.515 4.4273L331.882 10.2961C330.681 9.40373 329.428 8.683 328.124 8.13388C326.82 7.55044 325.482 7.25872 324.109 7.25872C323.216 7.25872 322.358 7.46464 321.535 7.87648C320.745 8.254 320.351 8.92324 320.351 9.88421C320.351 10.9481 320.831 11.7203 321.792 12.2008C322.753 12.6813 323.971 13.1618 325.447 13.6423L327.095 14.1571C328.261 14.5003 329.428 14.9464 330.595 15.4956C331.796 16.0104 332.895 16.6796 333.89 17.5033C334.885 18.327 335.675 19.3737 336.258 20.6436C336.876 21.8791 337.185 23.4064 337.185 25.2253C337.185 27.3189 336.55 29.1893 335.28 30.8367C334.044 32.484 332.363 33.771 330.235 34.6977C328.141 35.6243 325.808 36.0877 323.234 36.0877C319.802 36.0877 316.919 35.6243 314.585 34.6977C312.285 33.771 310.329 32.5527 308.716 31.0426Z" fill="#FFD000"/>
<path d="M347.576 35.5672V30.2538H342.381V25.0197H347.576V19.627H352.969V25.0197H358.203V30.2538H352.969V35.5672H347.576Z" fill="#FFD000"/>
</svg>
