<svg fill="none" height="76" viewBox="0 0 652 76" width="652" xmlns="http://www.w3.org/2000/svg"><path d="m.143704 31 8.801846-23.96258h7.29295l8.4785 23.96258h-6.8618l-1.5448-4.9578h-8.01152l-1.58074 4.9578zm9.448516-9.5922h5.42478l-2.6585-8.8019zm21.95238 6.6463 3.8441-4.6345c.6706.6707 1.5448 1.2814 2.6226 1.8323 1.1017.5508 2.2873.8263 3.5566.8263.6467 0 1.2694-.1318 1.8682-.3952.5988-.2635.8981-.7665.8981-1.5089 0-.6227-.3233-1.1377-.97-1.5448-.6466-.4311-1.5687-.8383-2.7662-1.2215l-1.3293-.4311c-.982-.3353-1.964-.7784-2.9459-1.3293-.9581-.5748-1.7604-1.3053-2.4071-2.1915-.6227-.8861-.934-1.9759-.934-3.2692 0-1.485.3472-2.8142 1.0418-3.9878.7185-1.17358 1.7724-2.09567 3.1615-2.76629 1.3891-.69457 3.0776-1.04185 5.0655-1.04185 1.5808 0 2.946.17963 4.0956.53889 1.1736.35926 2.1436.77839 2.91 1.2574s1.3293.91013 1.6885 1.29333l-3.2333 4.09552c-.8383-.6227-1.7125-1.1256-2.6226-1.5088-.9101-.4072-1.8442-.6108-2.8022-.6108-.6227 0-1.2215.1437-1.7963.4311-.5509.2635-.8263.7305-.8263 1.4011 0 .7425.3353 1.2814 1.0059 1.6167s1.5209.6706 2.5507 1.0059l1.1497.3593c.8143.2395 1.6286.5508 2.4429.9341.8383.3592 1.6047.8262 2.2993 1.4011.6946.5748 1.2454 1.3053 1.6526 2.1914.4311.8623.6466 1.9281.6466 3.1974 0 1.461-.443 2.7663-1.3292 3.916-.8622 1.1496-2.0358 2.0477-3.5208 2.6944-1.4609.6467-3.0896.97-4.8859.97-2.395 0-4.4069-.3233-6.0355-.97-1.6047-.6467-2.9699-1.4969-4.0956-2.5507zm23.0229-6.3948v-14.62188h6.3589v14.04708c0 1.3172.2994 2.395.8981 3.2333.6228.8383 1.6407 1.2574 3.0537 1.2574 1.4131 0 2.4191-.4191 3.0178-1.2574.5988-.8622.8982-1.94.8982-3.2333v-14.04708h6.4307v14.62188c0 2.0358-.4431 3.8081-1.3293 5.317-.8861 1.4849-2.1076 2.6346-3.6644 3.4489-1.5328.7904-3.3052 1.1855-5.317 1.1855-2.0119 0-3.7962-.3951-5.353-1.1855s-2.7783-1.928-3.6644-3.413c-.8862-1.5089-1.3293-3.2932-1.3293-5.3529zm24.8077 9.3407v-23.96258h9.7718c2.5627 0 4.6225.6826 6.1793 2.04778 1.5568 1.3412 2.3352 3.3052 2.3352 5.8918 0 1.6287-.3593 3.0537-1.0778 4.2752-.7185 1.1976-1.7005 2.1316-2.9459 2.8023-1.2455.6466-2.6825.9699-4.3111.9699h-3.7363v7.9756zm6.2152-12.9693h3.0177c.8623 0 1.5449-.2754 2.0478-.8262.503-.5509.7545-1.2575.7545-2.1197 0-.9101-.2395-1.6406-.7186-2.1915-.479-.5508-1.1855-.8262-2.1196-.8262h-2.9818zm15.2206 12.9693v-23.96258h17.245v5.49668h-10.886v3.7004h8.946v5.1733h-8.946v4.0955h11.64v5.4967zm21.296 0v-23.96258h9.916c2.563 0 4.622.67062 6.179 2.01186 1.557 1.31732 2.335 3.26922 2.335 5.85592 0 1.5568-.347 2.922-1.041 4.0955-.695 1.1736-1.617 2.1077-2.767 2.8023l5.138 9.197h-6.826l-4.06-8.1552h-2.658v8.1552zm6.216-13.1489h3.089c.838 0 1.521-.2515 2.048-.7544.527-.5269.79-1.2215.79-2.0837 0-.9101-.251-1.6287-.754-2.1556s-1.21-.7903-2.12-.7903h-3.053zm22.834 13.1489v-23.96258h16.705v5.56848h-10.346v4.6345h8.011v5.2452h-8.011v8.5144zm19.433-9.3407v-14.62188h6.359v14.04708c0 1.3172.299 2.395.898 3.2333.623.8383 1.641 1.2574 3.054 1.2574s2.419-.4191 3.017-1.2574c.599-.8622.899-1.94.899-3.2333v-14.04708h6.43v14.62188c0 2.0358-.443 3.8081-1.329 5.317-.886 1.4849-2.108 2.6346-3.664 3.4489-1.533.7904-3.306 1.1855-5.317 1.1855-2.012 0-3.797-.3951-5.353-1.1855-1.557-.7904-2.779-1.928-3.665-3.413-.886-1.5089-1.329-3.2932-1.329-5.3529zm24.808 9.3407v-23.96258h5.784l9.197 13.36448v-13.36448h6.287v23.96258h-5.425l-9.556-13.7596v13.7596zm25.576 0v-23.96258h9.197c2.467 0 4.658.43111 6.574 1.29334 1.94.83827 3.473 2.15554 4.599 3.95184 1.125 1.7723 1.688 4.0596 1.688 6.8619 0 2.6345-.563 4.838-1.688 6.6103-1.126 1.7484-2.671 3.0657-4.635 3.9519-1.94.8622-4.131 1.2933-6.574 1.2933zm6.359-5.6044h2.586c2.06 0 3.665-.5868 4.814-1.7604 1.15-1.1975 1.725-2.7424 1.725-4.6345 0-1.916-.527-3.4608-1.581-4.6344s-2.706-1.7604-4.958-1.7604h-2.586zm29.591 5.6044-5.82-23.96258h6.718l3.09 16.05888 3.772-15.48406h5.784l3.808 15.48406 3.054-16.05888h6.502l-5.963 23.96258h-6.647l-3.772-15.1607-3.772 15.1607zm29.411 0v-23.96258h6.359v23.96258zm16.593 0v-18.3941h-7.365v-5.56848h21.089v5.56848h-7.293v18.3941zm16.596 0v-23.96258h6.359v8.76588h8.838v-8.76588h6.359v23.96258h-6.359v-9.3767h-8.838v9.3767zm30.336 0 8.802-23.96258h7.293l8.478 23.96258h-6.862l-1.544-4.9578h-8.012l-1.581 4.9578zm9.448-9.5922h5.425l-2.658-8.8019zm23.929 9.5922v-23.96258h6.359v18.35818h11.101v5.6044zm30.968.5748c-1.796 0-3.46-.3113-4.993-.9341-1.509-.6227-2.826-1.4969-3.952-2.6225-1.102-1.1497-1.964-2.4909-2.587-4.0238-.623-1.5328-.934-3.2093-.934-5.0296 0-1.8202.311-3.4968.934-5.0296s1.485-2.8621 2.587-3.98778c1.126-1.12568 2.443-1.99987 3.952-2.62259 1.533-.62272 3.197-.93407 4.993-.93407 1.797 0 3.449.31135 4.958.93407 1.533.62272 2.862 1.49691 3.988 2.62259s1.988 2.45498 2.587 3.98778c.622 1.5328.934 3.2094.934 5.0296 0 1.8203-.312 3.4968-.934 5.0296-.599 1.5329-1.461 2.8741-2.587 4.0238-1.126 1.1256-2.455 1.9998-3.988 2.6225-1.509.6228-3.161.9341-4.958.9341zm0-5.9637c1.27 0 2.336-.2994 3.198-.8981.886-.5988 1.557-1.4011 2.012-2.4071.455-1.0059.682-2.1196.682-3.3411s-.227-2.3352-.682-3.3411-1.126-1.8083-2.012-2.407c-.862-.5988-1.928-.8982-3.198-.8982-1.245 0-2.311.2994-3.197.8982-.862.5987-1.533 1.4011-2.012 2.407-.455 1.0059-.682 2.1196-.682 3.3411s.227 2.3352.682 3.3411c.479 1.006 1.15 1.8083 2.012 2.4071.886.5987 1.952.8981 3.197.8981zm19.401 5.3889-5.82-23.96258h6.718l3.09 16.05888 3.772-15.48406h5.784l3.808 15.48406 3.054-16.05888h6.503l-5.964 23.96258h-6.646l-3.772-15.1607-3.773 15.1607zm33.89 0 8.802-23.96258h7.293l8.478 23.96258h-6.861l-1.545-4.9578h-8.012l-1.58 4.9578zm9.449-9.5922h5.424l-2.658-8.8019zm17.437 9.5922v-23.96258h9.198c2.466 0 4.658.43111 6.574 1.29334 1.94.83827 3.473 2.15554 4.598 3.95184 1.126 1.7723 1.689 4.0596 1.689 6.8619 0 2.6345-.563 4.838-1.689 6.6103-1.125 1.7484-2.67 3.0657-4.634 3.9519-1.94.8622-4.131 1.2933-6.574 1.2933zm6.359-5.6044h2.587c2.06 0 3.664-.5868 4.814-1.7604 1.15-1.1975 1.725-2.7424 1.725-4.6345 0-1.916-.527-3.4608-1.581-4.6344s-2.707-1.7604-4.958-1.7604h-2.587zm18.574 5.6044 1.114-23.96258h6.071l5.82 10.45448 5.713-10.45448h6.107l1.114 23.96258h-6.431l-.575-14.047-4.203 8.1911h-3.485l-4.67-8.1911-.467 14.047zm29.763 0v-23.96258h6.359v23.96258zm10.666 0v-23.96258h5.784l9.197 13.36448v-13.36448h6.287v23.96258h-5.425l-9.556-13.7596v13.7596zm32.066 0v-23.96258h16.706v5.56848h-10.347v4.6345h8.012v5.2452h-8.012v8.5144zm19.577 0v-23.96258h17.245v5.49668h-10.886v3.7004h8.946v5.1733h-8.946v4.0955h11.64v5.4967zm21.296 0v-23.96258h17.245v5.49668h-10.886v3.7004h8.946v5.1733h-8.946v4.0955h11.64v5.4967z" fill="#fff"/></svg>