<?xml version="1.0" encoding="utf-8"?>
<!-- Generator: Adobe Illustrator 28.0.0, SVG Export Plug-In . SVG Version: 6.00 Build 0)  -->
<svg version="1.1" id="Layer_1" xmlns="http://www.w3.org/2000/svg" xmlns:xlink="http://www.w3.org/1999/xlink" x="0px" y="0px"
	 viewBox="0 0 100 12" style="enable-background:new 0 0 100 12;" xml:space="preserve">
<style type="text/css">
	.st0{fill:#002855;}
</style>
<path class="st0" d="M6.8,6.4L8,7.5C7.8,7.8,7.5,8.1,7.1,8.4C6.8,8.6,6.4,8.8,6,9C5.5,9.1,5.1,9.2,4.6,9.2C3.8,9.2,3.1,9,2.4,8.7
	C1.8,8.3,1.3,7.8,1,7.2C0.6,6.6,0.5,5.8,0.5,5c0-0.6,0.1-1.1,0.3-1.7C1,2.9,1.2,2.4,1.6,2C2,1.6,2.4,1.3,2.9,1.1
	C3.4,0.9,4,0.8,4.6,0.8c0.7,0,1.4,0.1,1.9,0.4s1,0.7,1.4,1.2L6.7,3.6C6.5,3.2,6.2,3,5.9,2.8C5.5,2.6,5.1,2.4,4.7,2.4
	c-0.5,0-0.9,0.1-1.2,0.3C3.1,3,2.8,3.3,2.6,3.7C2.4,4.1,2.4,4.5,2.4,5c0,0.5,0.1,0.9,0.3,1.3c0.2,0.4,0.5,0.7,0.8,0.9
	c0.3,0.2,0.7,0.3,1.2,0.3c0.4,0,0.7-0.1,1-0.2c0.3-0.1,0.5-0.2,0.6-0.4C6.4,6.8,6.6,6.6,6.8,6.4z M8.7,6.2c0-0.6,0.1-1.1,0.4-1.5
	c0.3-0.5,0.6-0.8,1.1-1.1c0.5-0.3,1-0.4,1.6-0.4c0.6,0,1.1,0.1,1.6,0.4c0.5,0.3,0.8,0.6,1.1,1.1c0.3,0.5,0.4,1,0.4,1.5
	s-0.1,1.1-0.4,1.5c-0.2,0.5-0.6,0.8-1.1,1.1c-0.4,0.3-1,0.4-1.6,0.4c-0.6,0-1.1-0.1-1.6-0.4C9.7,8.5,9.3,8.1,9.1,7.7
	C8.8,7.2,8.7,6.7,8.7,6.2z M11.7,7.7c0.3,0,0.5-0.1,0.7-0.2c0.2-0.1,0.4-0.3,0.5-0.6C13,6.7,13,6.4,13,6.2S13,5.7,12.9,5.5
	c-0.1-0.2-0.3-0.4-0.5-0.6c-0.2-0.1-0.4-0.2-0.7-0.2c-0.3,0-0.5,0.1-0.7,0.2c-0.2,0.1-0.4,0.3-0.5,0.6c-0.1,0.2-0.2,0.5-0.2,0.7
	s0.1,0.5,0.2,0.7c0.1,0.2,0.3,0.4,0.5,0.6C11.2,7.6,11.4,7.7,11.7,7.7z M15.7,9V3.4h1.7L17.4,4c0.2-0.2,0.4-0.4,0.7-0.5
	c0.3-0.1,0.6-0.2,1-0.2c0.4,0,0.8,0.1,1.1,0.3c0.3,0.2,0.5,0.3,0.6,0.5c0.2-0.2,0.5-0.4,0.8-0.6c0.3-0.1,0.7-0.2,1-0.2
	c0.7,0,1.3,0.2,1.6,0.6c0.4,0.4,0.6,1,0.6,1.7V9h-1.7V5.8c0-0.3-0.1-0.6-0.2-0.8c-0.1-0.2-0.4-0.3-0.7-0.3c-0.3,0-0.6,0.1-0.8,0.3
	c-0.2,0.2-0.3,0.5-0.3,0.9v3h-1.7V5.8c0-0.3-0.1-0.6-0.2-0.8c-0.1-0.2-0.4-0.3-0.7-0.3c-0.3,0-0.6,0.1-0.8,0.3
	c-0.2,0.2-0.3,0.5-0.3,0.9v3H15.7z M26.1,11.4v-8h1.7c0,0.1,0,0.2,0,0.3c0,0.1,0,0.2,0,0.3c0.2-0.2,0.4-0.4,0.7-0.5
	c0.3-0.1,0.6-0.2,0.9-0.2c0.6,0,1,0.1,1.4,0.4s0.6,0.6,0.8,1.1c0.2,0.4,0.3,0.9,0.3,1.4c0,0.5-0.1,1-0.3,1.4
	c-0.2,0.4-0.4,0.7-0.7,0.9S30.3,8.9,30,9s-0.7,0.2-1,0.2c-0.3,0-0.5,0-0.7-0.1c-0.2,0-0.3-0.1-0.5-0.1v2.4H26.1z M27.8,6v1.5
	c0.2,0.2,0.6,0.2,1,0.2c0.4,0,0.8-0.1,1-0.4C30,7,30.2,6.6,30.2,6.2c0-0.2,0-0.5-0.1-0.7c-0.1-0.2-0.2-0.4-0.4-0.5
	c-0.2-0.1-0.4-0.2-0.7-0.2c-0.4,0-0.7,0.1-0.9,0.4C27.9,5.4,27.8,5.7,27.8,6z M36.2,9l0-0.5c-0.4,0.5-1,0.7-1.7,0.7
	c-0.3,0-0.5-0.1-0.8-0.2c-0.3-0.1-0.5-0.3-0.7-0.5c-0.2-0.3-0.3-0.6-0.3-1.1c0-0.4,0.1-0.8,0.3-1.1c0.2-0.3,0.5-0.5,0.9-0.7
	c0.4-0.2,0.8-0.2,1.3-0.2c0.2,0,0.4,0,0.6,0c0.2,0,0.3,0,0.4,0V5.3c0-0.3-0.1-0.5-0.3-0.6c-0.2-0.1-0.5-0.2-0.7-0.2
	c-0.4,0-0.7,0-0.9,0.1c-0.3,0.1-0.5,0.2-0.6,0.3l-0.7-1.1c0.2-0.2,0.5-0.4,0.9-0.5c0.4-0.2,0.9-0.2,1.6-0.2c0.9,0,1.5,0.2,1.9,0.7
	c0.4,0.5,0.6,1.1,0.6,1.8V9H36.2z M36.2,7V6.5c0,0-0.1,0-0.2,0c-0.1,0-0.2,0-0.4,0c-0.5,0-0.8,0.1-1,0.2S34.3,7,34.3,7.2
	c0,0.5,0.3,0.7,0.8,0.7c0.3,0,0.5-0.1,0.7-0.3C36.1,7.5,36.2,7.3,36.2,7z M39.1,9V3.4h1.7l0.1,0.7c0.1-0.2,0.3-0.4,0.6-0.6
	c0.3-0.2,0.6-0.3,1-0.3c0.2,0,0.3,0,0.4,0c0.1,0,0.2,0,0.3,0.1l-0.3,1.5c-0.2-0.1-0.4-0.1-0.6-0.1c-0.4,0-0.7,0.1-1,0.4
	c-0.2,0.2-0.4,0.6-0.4,1V9H39.1z M48.2,7.3l0.7,1.1c-0.1,0.1-0.2,0.1-0.4,0.3C48.3,8.8,48,8.9,47.7,9c-0.3,0.1-0.7,0.2-1.2,0.2
	c-0.6,0-1.2-0.1-1.7-0.4c-0.5-0.3-0.8-0.6-1.1-1.1c-0.2-0.5-0.4-1-0.4-1.6c0-0.5,0.1-1,0.3-1.5c0.2-0.5,0.6-0.8,1-1.1
	c0.4-0.3,1-0.4,1.6-0.4c0.6,0,1.1,0.1,1.5,0.4c0.4,0.3,0.7,0.7,0.9,1.1c0.2,0.5,0.3,1,0.3,1.7v0.3h-4c0,0.3,0.1,0.6,0.4,0.8
	s0.6,0.3,1.1,0.3c0.4,0,0.8-0.1,1.1-0.2C47.8,7.5,48.1,7.4,48.2,7.3z M45,5.6h2.4c0-0.2,0-0.3-0.1-0.5c-0.1-0.2-0.2-0.3-0.4-0.4
	c-0.2-0.1-0.4-0.2-0.6-0.2s-0.5,0.1-0.7,0.2c-0.2,0.1-0.3,0.3-0.4,0.4C45,5.3,45,5.4,45,5.6z M52.3,9V1h1.8v3.1h3.5V1h1.8v8h-1.8
	V5.7h-3.5V9H52.3z M60.6,6.2c0-0.6,0.1-1.1,0.4-1.5c0.3-0.5,0.6-0.8,1.1-1.1c0.5-0.3,1-0.4,1.6-0.4c0.6,0,1.1,0.1,1.6,0.4
	c0.5,0.3,0.8,0.6,1.1,1.1c0.3,0.5,0.4,1,0.4,1.5s-0.1,1.1-0.4,1.5c-0.2,0.5-0.6,0.8-1.1,1.1c-0.4,0.3-1,0.4-1.6,0.4
	c-0.6,0-1.1-0.1-1.6-0.4c-0.4-0.3-0.8-0.6-1.1-1.1C60.7,7.2,60.6,6.7,60.6,6.2z M63.6,7.7c0.3,0,0.5-0.1,0.7-0.2
	c0.2-0.1,0.4-0.3,0.5-0.6c0.1-0.2,0.2-0.5,0.2-0.7s-0.1-0.5-0.2-0.7c-0.1-0.2-0.3-0.4-0.5-0.6c-0.2-0.1-0.4-0.2-0.7-0.2
	c-0.3,0-0.5,0.1-0.7,0.2c-0.2,0.1-0.4,0.3-0.5,0.6c-0.1,0.2-0.2,0.5-0.2,0.7s0.1,0.5,0.2,0.7c0.1,0.2,0.3,0.4,0.5,0.6
	C63,7.6,63.3,7.7,63.6,7.7z M67.3,8.4l0.9-1.1c0.2,0.2,0.4,0.3,0.7,0.4c0.3,0.1,0.6,0.2,0.9,0.2c0.3,0,0.5,0,0.6-0.1
	c0.2-0.1,0.3-0.2,0.3-0.4c0-0.1,0-0.2-0.1-0.3c-0.1-0.1-0.2-0.1-0.4-0.2c-0.2-0.1-0.5-0.2-0.8-0.3c-0.3-0.1-0.6-0.2-0.8-0.3
	C68.3,6.2,68,6,67.9,5.8c-0.2-0.2-0.3-0.5-0.3-0.9c0-0.4,0.1-0.7,0.3-0.9c0.2-0.3,0.5-0.5,0.9-0.6c0.4-0.2,0.8-0.2,1.2-0.2
	c0.5,0,0.9,0.1,1.3,0.2c0.4,0.1,0.7,0.3,1,0.5L71.5,5c-0.2-0.1-0.4-0.2-0.6-0.3s-0.5-0.1-0.8-0.1c-0.3,0-0.5,0-0.6,0.1
	c-0.1,0.1-0.2,0.2-0.2,0.3c0,0.2,0.1,0.3,0.4,0.4c0.3,0.1,0.6,0.2,1,0.3c0.6,0.2,1,0.4,1.2,0.7c0.3,0.3,0.4,0.7,0.4,1.1
	c0,0.4-0.1,0.7-0.4,1c-0.2,0.3-0.6,0.5-0.9,0.6c-0.4,0.1-0.8,0.2-1.2,0.2c-0.5,0-1-0.1-1.4-0.2C68,8.8,67.6,8.6,67.3,8.4z M73.7,6.9
	V4.7h-0.9V3.4h0.9V1.5h1.7v1.8h1.5v1.4h-1.5v2.2c0,0.3,0.1,0.5,0.2,0.6c0.1,0.1,0.3,0.2,0.5,0.2c0.2,0,0.3,0,0.5-0.1
	c0.1-0.1,0.2-0.1,0.4-0.2l0.7,1.1c-0.5,0.4-1.1,0.6-1.8,0.6c-0.5,0-1-0.1-1.3-0.3c-0.3-0.2-0.5-0.5-0.7-0.8
	C73.8,7.7,73.7,7.3,73.7,6.9z M78.3,11.4v-8H80c0,0.1,0,0.2,0,0.3c0,0.1,0,0.2,0,0.3c0.2-0.2,0.4-0.4,0.7-0.5
	c0.3-0.1,0.6-0.2,0.9-0.2c0.6,0,1,0.1,1.4,0.4c0.4,0.3,0.6,0.6,0.8,1.1c0.2,0.4,0.3,0.9,0.3,1.4c0,0.5-0.1,1-0.3,1.4
	c-0.2,0.4-0.4,0.7-0.7,0.9S82.6,8.9,82.2,9s-0.7,0.2-1,0.2c-0.3,0-0.5,0-0.7-0.1C80.3,9.1,80.2,9,80,9v2.4H78.3z M80,6v1.5
	c0.2,0.2,0.6,0.2,1,0.2c0.4,0,0.8-0.1,1-0.4c0.2-0.3,0.4-0.7,0.4-1.1c0-0.2,0-0.5-0.1-0.7c-0.1-0.2-0.2-0.4-0.4-0.5
	c-0.2-0.1-0.4-0.2-0.7-0.2c-0.4,0-0.7,0.1-0.9,0.4C80.1,5.4,80,5.7,80,6z M85.1,9V1h1.7v8H85.1z M88.1,6.9V3.4h1.7v3.2
	c0,0.3,0.1,0.6,0.2,0.8c0.2,0.2,0.4,0.3,0.7,0.3c0.4,0,0.6-0.1,0.8-0.4c0.2-0.3,0.3-0.5,0.3-0.9v-3h1.7V9h-1.7l0-0.6
	c-0.2,0.2-0.4,0.4-0.7,0.5c-0.3,0.1-0.6,0.2-0.9,0.2c-0.6,0-1.2-0.2-1.5-0.6C88.3,8.2,88.1,7.6,88.1,6.9z M94.6,8.4l0.9-1.1
	c0.2,0.2,0.4,0.3,0.7,0.4c0.3,0.1,0.6,0.2,0.9,0.2c0.3,0,0.5,0,0.6-0.1c0.2-0.1,0.3-0.2,0.3-0.4c0-0.1,0-0.2-0.1-0.3
	c-0.1-0.1-0.2-0.1-0.4-0.2c-0.2-0.1-0.5-0.2-0.8-0.3c-0.3-0.1-0.6-0.2-0.8-0.3c-0.3-0.1-0.5-0.3-0.7-0.5c-0.2-0.2-0.3-0.5-0.3-0.9
	c0-0.4,0.1-0.7,0.3-0.9c0.2-0.3,0.5-0.5,0.9-0.6c0.4-0.2,0.8-0.2,1.2-0.2c0.5,0,0.9,0.1,1.3,0.2c0.4,0.1,0.7,0.3,1,0.5L98.8,5
	c-0.2-0.1-0.4-0.2-0.6-0.3c-0.2-0.1-0.5-0.1-0.8-0.1c-0.3,0-0.5,0-0.6,0.1c-0.1,0.1-0.2,0.2-0.2,0.3c0,0.2,0.1,0.3,0.4,0.4
	c0.3,0.1,0.6,0.2,1,0.3c0.6,0.2,1,0.4,1.2,0.7c0.3,0.3,0.4,0.7,0.4,1.1c0,0.4-0.1,0.7-0.4,1C99,8.7,98.7,8.9,98.3,9
	c-0.4,0.1-0.8,0.2-1.2,0.2c-0.5,0-1-0.1-1.4-0.2C95.2,8.8,94.9,8.6,94.6,8.4z"/>
</svg>
