<?xml version="1.0" encoding="UTF-8"?>
<svg id="Layer_1" data-name="Layer 1" xmlns="http://www.w3.org/2000/svg" version="1.1" viewBox="0 0 179 16">
  <path d="M6.1,15.8c-3.6,0-5.6-2-5.6-5.6V1.3h2.7v8.7c0,2.6.8,3.7,3,3.7s3.1-.9,3.1-3.9V1.3h2.7v8.7c0,3.7-2,5.8-5.8,5.8ZM14.4,15.6V5.2h2.4v1.6c.5-1,1.6-1.8,3.2-1.8s2.4.6,3,1.9c.8-1.3,2.2-1.9,3.5-1.9,1.9,0,3.5,1.2,3.5,4.1v6.6h-2.4v-6.5c0-1.5-.7-2.2-1.9-2.2s-2.3.8-2.3,2.4v6.3h-2.4v-6.5c0-1.5-.7-2.2-1.9-2.2s-2.3.8-2.3,2.4v6.3h-2.4ZM39.5,15.8c-1.9,0-3.5-.9-3.5-3.1s2.4-3.3,5.4-3.3h1.3v-.5c0-1.4-.5-2.1-1.9-2.1s-1.9.6-2,1.6h-2.3c.2-2.4,2.1-3.5,4.5-3.5s4.2,1,4.2,3.8v6.9h-2.4v-1.3c-.7.9-1.6,1.5-3.2,1.5ZM40,14.1c1.5,0,2.6-.8,2.6-2.1v-1h-1.2c-1.8,0-3,.4-3,1.7s.5,1.5,1.7,1.5ZM47.4,15.6V5.2h2.4v1.6c.5-1,1.6-1.8,3.2-1.8s2.4.6,3,1.9c.8-1.3,2.2-1.9,3.5-1.9,1.9,0,3.5,1.2,3.5,4.1v6.6h-2.4v-6.5c0-1.5-.7-2.2-1.9-2.2s-2.3.8-2.3,2.4v6.3h-2.4v-6.5c0-1.5-.7-2.2-1.9-2.2s-2.3.8-2.3,2.4v6.3h-2.4ZM68.1,15.8c-1.9,0-3.5-.9-3.5-3.1s2.4-3.3,5.4-3.3h1.3v-.5c0-1.4-.5-2.1-1.9-2.1s-1.9.6-2,1.6h-2.3c.2-2.4,2.1-3.5,4.5-3.5s4.2,1,4.2,3.8v6.9h-2.4v-1.3c-.7.9-1.6,1.5-3.2,1.5ZM68.7,14.1c1.5,0,2.6-.8,2.6-2.1v-1h-1.2c-1.8,0-3,.4-3,1.7s.5,1.5,1.7,1.5ZM76.1,15.6V5.2h2.4v1.7c.5-1,1.7-1.9,3.4-1.9s3.6,1.2,3.6,4.1v6.6h-2.4v-6.4c0-1.6-.6-2.3-2.1-2.3s-2.5.8-2.5,2.5v6.2h-2.4ZM87.8,15.6V.3h2.4v6.5c.5-1,1.7-1.9,3.4-1.9s3.6,1.2,3.6,4.1v6.6h-2.4v-6.4c0-1.6-.6-2.3-2.1-2.3s-2.5.8-2.5,2.5v6.2h-2.4ZM102.3,15.8c-1.9,0-3.5-.9-3.5-3.1s2.4-3.3,5.4-3.3h1.3v-.5c0-1.4-.5-2.1-1.9-2.1s-1.9.6-2,1.6h-2.3c.2-2.4,2.1-3.5,4.5-3.5s4.2,1,4.2,3.8v6.9h-2.4v-1.3c-.7.9-1.6,1.5-3.2,1.5ZM102.9,14.1c1.5,0,2.6-.8,2.6-2.1v-1h-1.2c-1.8,0-3,.4-3,1.7s.5,1.5,1.7,1.5ZM104.9,3.5c-1,0-1.6-.8-2.2-.8s-.7.3-.7.8h-1.5c.2-1.7,1-2.6,2.1-2.6s1.6.8,2.2.8.6-.3.7-.8h1.5c-.2,1.7-1,2.6-2.1,2.6ZM114.7,15.6V5.2h2.4v1.6c.5-1,1.6-1.8,3.2-1.8s2.4.6,3,1.9c.8-1.3,2.2-1.9,3.5-1.9,1.9,0,3.5,1.2,3.5,4.1v6.6h-2.4v-6.5c0-1.5-.7-2.2-1.9-2.2s-2.3.8-2.3,2.4v6.3h-2.4v-6.5c0-1.5-.7-2.2-1.9-2.2s-2.3.8-2.3,2.4v6.3h-2.4ZM137.2,15.8c-3.1,0-5.3-2-5.3-5.3v-.2c0-3.2,2.2-5.4,5.2-5.4s4.9,1.5,4.9,5.3v.7h-7.7c0,2,1.1,3.1,2.9,3.1s2.2-.6,2.4-1.6h2.3c-.3,2.2-2.1,3.4-4.8,3.4ZM134.4,9.3h5.2c-.1-1.8-1-2.6-2.5-2.6s-2.4,1-2.7,2.6ZM143.9,15.6V.3h2.4v15.3h-2.4ZM148.9,15.6V.3h2.4v6.5c.5-1,1.7-1.9,3.4-1.9s3.6,1.2,3.6,4.1v6.6h-2.4v-6.4c0-1.6-.6-2.3-2.1-2.3s-2.5.8-2.5,2.5v6.2h-2.4ZM165.3,13.9c1.8,0,2.9-1.3,2.9-3.5h0c0-2.3-1.1-3.6-2.9-3.6s-2.9,1.3-2.9,3.5v.2c0,2.1,1.1,3.5,2.9,3.5ZM165.3,15.8c-3.1,0-5.4-2.1-5.4-5.3v-.2c0-3.2,2.3-5.4,5.4-5.4s5.4,2.1,5.4,5.3v.2c0,3.3-2.3,5.4-5.4,5.4ZM172.4,15.6V5.2h2.4v2c.7-1.3,1.6-2.1,3.4-2.1v2.3c-2.1,0-3.4.7-3.4,2.9v5.4h-2.4Z" fill="#000" stroke-width="0"/>
</svg>