<?xml version="1.0" encoding="UTF-8"?>
<svg id="Layer_1" data-name="Layer 1" xmlns="http://www.w3.org/2000/svg" version="1.1" viewBox="0 0 123 17">
  <path d="M5.4,16.2c-2.6,0-4.6-1.9-4.6-5.3v-.2c0-3.3,2-5.5,4.7-5.5s2.8.8,3.3,1.8V.7h2.4v15.3h-2.4v-1.8c-.6,1-1.9,2-3.4,2ZM6,14.3c1.7,0,2.9-1.1,2.9-3.5v-.2c0-2.3-1.1-3.4-2.8-3.4s-2.8,1.2-2.8,3.5v.2c0,2.3,1.2,3.4,2.7,3.4ZM18.3,16.2c-3.1,0-5.3-2-5.3-5.3v-.2c0-3.2,2.2-5.4,5.2-5.4s4.9,1.5,4.9,5.3v.7h-7.7c0,2,1.1,3.1,2.9,3.1s2.2-.6,2.4-1.6h2.3c-.3,2.2-2.1,3.4-4.8,3.4ZM15.5,9.7h5.2c-.1-1.8-1-2.6-2.5-2.6s-2.4,1-2.7,2.6ZM32.8,16.2c-2.1,0-3.2-1.1-3.2-3.1v-5.7h-1.4v-1.8h1.4v-2.3h2.4v2.3h2.3v1.8h-2.3v5.5c0,.9.4,1.3,1.2,1.3s.8,0,1.2-.2v1.9c-.4.1-.9.3-1.6.3ZM40.9,14.3c1.8,0,2.9-1.3,2.9-3.5h0c0-2.3-1.1-3.6-2.9-3.6s-2.9,1.3-2.9,3.5v.2c0,2.1,1.1,3.5,2.9,3.5ZM40.9,16.2c-3.1,0-5.4-2.1-5.4-5.3v-.2c0-3.2,2.3-5.4,5.4-5.4s5.4,2.1,5.4,5.3v.2c0,3.3-2.3,5.4-5.4,5.4ZM52,16.2c-2.6,0-4.6-1.9-4.6-5.3v-.2c0-3.3,2-5.5,4.7-5.5s2.8.8,3.3,1.8V.7h2.4v15.3h-2.4v-1.8c-.6,1-1.9,2-3.4,2ZM52.6,14.3c1.7,0,2.9-1.1,2.9-3.5v-.2c0-2.3-1.1-3.4-2.8-3.4s-2.8,1.2-2.8,3.5v.2c0,2.3,1.2,3.4,2.7,3.4ZM65,14.3c1.8,0,2.9-1.3,2.9-3.5h0c0-2.3-1.1-3.6-2.9-3.6s-2.9,1.3-2.9,3.5v.2c0,2.1,1.1,3.5,2.9,3.5ZM65,16.2c-3.1,0-5.4-2.1-5.4-5.3v-.2c0-3.2,2.3-5.4,5.4-5.4s5.4,2.1,5.4,5.3v.2c0,3.3-2.3,5.4-5.4,5.4ZM75.7,16.2c-2.7,0-4.3-1.2-4.4-3.5h2.3c.1,1.1.7,1.7,2.1,1.7s1.9-.5,1.9-1.3-.7-1.2-2.2-1.4c-2.8-.4-3.8-1.2-3.8-3.2s2-3.1,3.9-3.1,3.8.8,4.1,3.2h-2.2c-.2-1-.7-1.4-1.9-1.4s-1.7.5-1.7,1.2.5,1.1,2.2,1.3c2.5.4,3.9,1,3.9,3.2s-1.5,3.3-4.2,3.3ZM86,16V5.5h2.4v1.7c.5-1,1.7-1.9,3.4-1.9s3.6,1.2,3.6,4.1v6.6h-2.4v-6.4c0-1.6-.6-2.3-2.1-2.3s-2.5.8-2.5,2.5v6.2h-2.4ZM101.4,4l1.2-3.1h2.7l-2.1,3.1h-1.8ZM102.5,14.3c1.8,0,2.9-1.3,2.9-3.5h0c0-2.3-1.1-3.6-2.9-3.6s-2.9,1.3-2.9,3.5v.2c0,2.1,1.1,3.5,2.9,3.5ZM102.4,16.2c-3.1,0-5.4-2.1-5.4-5.3v-.2c0-3.2,2.3-5.4,5.4-5.4s5.4,2.1,5.4,5.3v.2c0,3.3-2.3,5.4-5.4,5.4ZM113.2,16.2c-2.7,0-4.3-1.2-4.4-3.5h2.3c.1,1.1.7,1.7,2.1,1.7s1.9-.5,1.9-1.3-.7-1.2-2.2-1.4c-2.8-.4-3.8-1.2-3.8-3.2s2-3.1,3.9-3.1,3.8.8,4.1,3.2h-2.2c-.2-1-.7-1.4-1.9-1.4s-1.7.5-1.7,1.2.5,1.1,2.2,1.3c2.5.4,3.9,1,3.9,3.2s-1.5,3.3-4.2,3.3ZM120.5,16.1c-.9,0-1.6-.7-1.6-1.6s.7-1.6,1.6-1.6,1.6.7,1.6,1.6-.7,1.6-1.6,1.6Z" fill="#000" stroke-width="0"/>
</svg>