<?xml version="1.0" encoding="UTF-8"?>
<svg id="Layer_1" data-name="Layer 1" xmlns="http://www.w3.org/2000/svg" version="1.1" viewBox="0 0 195 17">
  <path d="M4.2,16.2c-1.9,0-3.5-.9-3.5-3.1s2.4-3.3,5.4-3.3h1.3v-.5c0-1.4-.5-2.1-1.9-2.1s-1.9.6-2,1.6H1.1c.2-2.4,2.1-3.5,4.5-3.5s4.2,1,4.2,3.8v6.9h-2.4v-1.3c-.7.9-1.6,1.5-3.2,1.5ZM4.8,14.5c1.5,0,2.6-.8,2.6-2.1v-1h-1.2c-1.8,0-3,.4-3,1.7s.5,1.5,1.7,1.5ZM16.7,16.2c-3,0-5.3-2-5.3-5.3v-.2c0-3.3,2.4-5.4,5.3-5.4s4.5,1,4.8,3.9h-2.3c-.2-1.4-1.1-2-2.4-2s-2.8,1.3-2.8,3.4v.2c0,2.3,1.1,3.5,2.9,3.5s2.4-.8,2.5-2.2h2.2c-.2,2.4-2,4.1-4.8,4.1ZM27.9,14.3c1.8,0,2.9-1.3,2.9-3.5h0c0-2.3-1.1-3.6-2.9-3.6s-2.9,1.3-2.9,3.5v.2c0,2.1,1.1,3.5,2.9,3.5ZM27.9,16.2c-3.1,0-5.4-2.1-5.4-5.3v-.2c0-3.2,2.3-5.4,5.4-5.4s5.4,2.1,5.4,5.3v.2c0,3.3-2.3,5.4-5.4,5.4ZM35.1,16V5.5h2.4v1.7c.5-1,1.7-1.9,3.4-1.9s3.6,1.2,3.6,4.1v6.6h-2.4v-6.4c0-1.6-.6-2.3-2.1-2.3s-2.5.8-2.5,2.5v6.2h-2.4ZM50.4,16.2c-2.1,0-3.2-1.1-3.2-3.1v-5.7h-1.4v-1.8h1.4v-2.3h2.4v2.3h2.3v1.8h-2.3v5.5c0,.9.4,1.3,1.2,1.3s.8,0,1.2-.2v1.9c-.4.1-.9.3-1.6.3ZM58.4,16.2c-3.1,0-5.3-2-5.3-5.3v-.2c0-3.2,2.2-5.4,5.2-5.4s4.9,1.5,4.9,5.3v.7h-7.7c0,2,1.1,3.1,2.9,3.1s2.2-.6,2.4-1.6h2.3c-.3,2.2-2.1,3.4-4.8,3.4ZM55.6,9.7h5.2c-.1-1.8-1-2.6-2.5-2.6s-2.4,1-2.7,2.6ZM69.6,16.2c-3,0-5.3-2-5.3-5.3v-.2c0-3.3,2.4-5.4,5.3-5.4s4.5,1,4.8,3.9h-2.3c-.2-1.4-1.1-2-2.4-2s-2.8,1.3-2.8,3.4v.2c0,2.3,1.1,3.5,2.9,3.5s2.4-.8,2.5-2.2h2.2c-.2,2.4-2,4.1-4.8,4.1ZM80.7,16.2c-3.1,0-5.3-2-5.3-5.3v-.2c0-3.2,2.2-5.4,5.2-5.4s4.9,1.5,4.9,5.3v.7h-7.7c0,2,1.1,3.1,2.9,3.1s2.2-.6,2.4-1.6h2.3c-.3,2.2-2.1,3.4-4.8,3.4ZM77.9,9.7h5.2c-.1-1.8-1-2.6-2.5-2.6s-2.4,1-2.7,2.6ZM87.3,16V5.5h2.4v1.7c.5-1,1.7-1.9,3.4-1.9s3.6,1.2,3.6,4.1v6.6h-2.4v-6.4c0-1.6-.6-2.3-2.1-2.3s-2.5.8-2.5,2.5v6.2h-2.4ZM103,16.2c-2.6,0-4.6-1.9-4.6-5.3v-.2c0-3.3,2-5.5,4.7-5.5s2.8.8,3.3,1.8V.7h2.4v15.3h-2.4v-1.8c-.6,1-1.9,2-3.4,2ZM103.6,14.3c1.7,0,2.9-1.1,2.9-3.5v-.2c0-2.3-1.1-3.4-2.8-3.4s-2.8,1.2-2.8,3.5v.2c0,2.3,1.2,3.4,2.7,3.4ZM116,14.3c1.8,0,2.9-1.3,2.9-3.5h0c0-2.3-1.1-3.6-2.9-3.6s-2.9,1.3-2.9,3.5v.2c0,2.1,1.1,3.5,2.9,3.5ZM116,16.2c-3.1,0-5.4-2.1-5.4-5.3v-.2c0-3.2,2.3-5.4,5.4-5.4s5.4,2.1,5.4,5.3v.2c0,3.3-2.3,5.4-5.4,5.4ZM127.5,16V5.5h2.4v1.7c.5-1,1.7-1.9,3.4-1.9s3.6,1.2,3.6,4.1v6.6h-2.4v-6.4c0-1.6-.6-2.3-2.1-2.3s-2.5.8-2.5,2.5v6.2h-2.4ZM142,16.2c-1.9,0-3.5-.9-3.5-3.1s2.4-3.3,5.4-3.3h1.3v-.5c0-1.4-.5-2.1-1.9-2.1s-1.9.6-2,1.6h-2.3c.2-2.4,2.1-3.5,4.5-3.5s4.2,1,4.2,3.8v6.9h-2.4v-1.3c-.7.9-1.6,1.5-3.2,1.5ZM142.6,14.5c1.5,0,2.6-.8,2.6-2.1v-1h-1.2c-1.8,0-3,.4-3,1.7s.5,1.5,1.7,1.5ZM154.6,16V1.7h5.1c2.9,0,4.7,1.1,4.7,3.7h0c0,1.5-.6,2.6-2.3,3.1,1.9.4,2.9,1.5,2.9,3.4h0c0,2.7-1.8,4.1-4.9,4.1h-5.5ZM157.2,14.1h2.6c1.8,0,2.6-.8,2.6-2.3h0c0-1.6-.8-2.3-2.8-2.3h-2.4v4.6ZM157.2,7.7h2.2c1.8,0,2.4-.6,2.4-2.1h0c0-1.4-.8-2-2.5-2h-2.2v4.1ZM167.1,16V1.7h2.7v6.1h6.4V1.7h2.7v14.3h-2.7v-6.1h-6.4v6.1h-2.7ZM181.7,16V1.7h4.6c3.2,0,5.3,1.4,5.3,4.4h0c0,3.1-2.2,4.4-5.2,4.4h-2v5.4h-2.7ZM184.3,8.6h1.9c1.8,0,2.7-.9,2.7-2.4h0c0-1.8-1-2.4-2.7-2.4h-1.9v4.9ZM192.5,16.1c-.9,0-1.6-.7-1.6-1.6s.7-1.6,1.6-1.6,1.6.7,1.6,1.6-.7,1.6-1.6,1.6Z" fill="#dd5900" stroke-width="0"/>
</svg>