<?xml version="1.0" encoding="UTF-8"?>
<svg id="Layer_1" data-name="Layer 1" xmlns="http://www.w3.org/2000/svg" version="1.1" viewBox="0 0 139 20">
  <path d="M8.2,13.7c2.7,0,4.4-2.1,4.4-5.2v-.2c0-2.9-1.6-5.1-4.4-5.1s-4.5,2.1-4.5,5.1v.2c0,3.1,1.9,5.1,4.5,5.1ZM8.2,15.8c-4.4,0-7.2-3.1-7.2-7.3v-.2C.9,4.2,3.9,1.1,8.2,1.1s7.2,3,7.2,7.2v.2c0,4.2-2.9,7.3-7.2,7.3ZM22.1,15.6V7h-1.4v-1.8h1.4v-1.4c0-2.3,1.3-3.5,3.5-3.5s.9,0,1.4.2v1.9c-.3,0-.7-.2-1.1-.2-1,0-1.4.6-1.4,1.5v1.5h2.4v1.8h-2.4v8.6h-2.4ZM32,15.8c-2.1,0-3.6-1.2-3.6-4v-6.7h2.4v6.4c0,1.6.7,2.3,2.1,2.3s2.4-.8,2.4-2.5v-6.2h2.4v10.5h-2.4v-1.6c-.5,1-1.6,1.8-3.3,1.8ZM43.8,15.8c-2.1,0-3.2-1.1-3.2-3.1v-5.7h-1.4v-1.8h1.4v-2.3h2.4v2.3h2.3v1.8h-2.3v5.5c0,.9.4,1.3,1.2,1.3s.8,0,1.2-.2v1.9c-.4.1-.9.3-1.6.3ZM50.7,15.8c-2.1,0-3.6-1.2-3.6-4v-6.7h2.4v6.4c0,1.6.7,2.3,2.1,2.3s2.4-.8,2.4-2.5v-6.2h2.4v10.5h-2.4v-1.6c-.5,1-1.6,1.8-3.3,1.8ZM58.9,15.6V5.2h2.4v2c.7-1.3,1.6-2.1,3.4-2.1v2.3c-2.1,0-3.4.7-3.4,2.9v5.4h-2.4ZM71,13.9c1.8,0,2.9-1.3,2.9-3.5h0c0-2.3-1.1-3.6-2.9-3.6s-2.9,1.3-2.9,3.5v.2c0,2.1,1.1,3.5,2.9,3.5ZM71,15.8c-3.1,0-5.4-2.1-5.4-5.3v-.2c0-3.2,2.3-5.4,5.4-5.4s5.4,2.1,5.4,5.3v.2c0,3.3-2.3,5.4-5.4,5.4ZM81.1,19.4v-1.9c1.1,0,1.4-.6,1.4-1.5V5.2h2.4v10.8c0,2.1-1,3.4-3.9,3.4ZM83.7,3.4c-.8,0-1.4-.6-1.4-1.4s.6-1.4,1.4-1.4,1.4.6,1.4,1.4-.6,1.4-1.4,1.4ZM90.3,15.8c-1.9,0-3.5-.9-3.5-3.1s2.4-3.3,5.4-3.3h1.3v-.5c0-1.4-.5-2.1-1.9-2.1s-1.9.6-2,1.6h-2.3c.2-2.4,2.1-3.5,4.5-3.5s4.2,1,4.2,3.8v6.9h-2.4v-1.3c-.7.9-1.6,1.5-3.2,1.5ZM90.8,14.1c1.5,0,2.6-.8,2.6-2.1v-1h-1.2c-1.8,0-3,.4-3,1.7s.5,1.5,1.7,1.5ZM90.7,3.6l1.2-3.1h2.7l-2.1,3.1h-1.8ZM107.2,15.8c-3.1,0-5.3-2-5.3-5.3v-.2c0-3.2,2.2-5.4,5.2-5.4s4.9,1.5,4.9,5.3v.7h-7.7c0,2,1.1,3.1,2.9,3.1s2.2-.6,2.4-1.6h2.3c-.3,2.2-2.1,3.4-4.8,3.4ZM104.4,9.3h5.2c-.1-1.8-1-2.6-2.5-2.6s-2.4,1-2.7,2.6ZM117.5,15.8c-2.7,0-4.3-1.2-4.4-3.5h2.3c.1,1.1.7,1.7,2.1,1.7s1.9-.5,1.9-1.3-.7-1.2-2.2-1.4c-2.8-.4-3.8-1.2-3.8-3.2s2-3.1,3.9-3.1,3.8.8,4.1,3.2h-2.2c-.2-1-.7-1.4-1.9-1.4s-1.7.5-1.7,1.2.5,1.1,2.2,1.3c2.5.4,3.9,1,3.9,3.2s-1.5,3.3-4.2,3.3ZM126.9,15.8c-2.1,0-3.2-1.1-3.2-3.1v-5.7h-1.4v-1.8h1.4v-2.3h2.4v2.3h2.3v1.8h-2.3v5.5c0,.9.4,1.3,1.2,1.3s.8,0,1.2-.2v1.9c-.4.1-.9.3-1.6.3ZM133.2,15.8c-1.9,0-3.5-.9-3.5-3.1s2.4-3.3,5.4-3.3h1.3v-.5c0-1.4-.5-2.1-1.9-2.1s-1.9.6-2,1.6h-2.3c.2-2.4,2.1-3.5,4.5-3.5s4.2,1,4.2,3.8v6.9h-2.4v-1.3c-.7.9-1.6,1.5-3.2,1.5ZM133.8,14.1c1.5,0,2.6-.8,2.6-2.1v-1h-1.2c-1.8,0-3,.4-3,1.7s.5,1.5,1.7,1.5ZM133.6,3.6l1.2-3.1h2.7l-2.1,3.1h-1.8Z" fill="#dd5900" stroke-width="0"/>
</svg>