<?xml version="1.0" encoding="UTF-8"?>
<svg id="Layer_1" data-name="Layer 1" xmlns="http://www.w3.org/2000/svg" version="1.1" viewBox="0 0 174 20">
  <path d="M4.9,4l1.2-3.1h2.7l-2.1,3.1h-1.8ZM6,16.2c-3.1,0-5.3-2-5.3-5.3v-.2c0-3.2,2.2-5.4,5.2-5.4s4.9,1.5,4.9,5.3v.7H3.2c0,2,1.1,3.1,2.9,3.1s2.2-.6,2.4-1.6h2.3c-.3,2.2-2.1,3.4-4.8,3.4ZM3.3,9.7h5.2c-.1-1.8-1-2.6-2.5-2.6s-2.4,1-2.7,2.6ZM17,16V5.5h2.4v2c.7-1.3,1.6-2.1,3.4-2.1v2.3c-2.1,0-3.4.7-3.4,2.9v5.4h-2.4ZM29,16.2c-3.1,0-5.3-2-5.3-5.3v-.2c0-3.2,2.2-5.4,5.2-5.4s4.9,1.5,4.9,5.3v.7h-7.7c0,2,1.1,3.1,2.9,3.1s2.2-.6,2.4-1.6h2.3c-.3,2.2-2.1,3.4-4.8,3.4ZM26.2,9.7h5.2c-.1-1.8-1-2.6-2.5-2.6s-2.4,1-2.7,2.6ZM39.2,16.2c-2.7,0-4.3-1.2-4.4-3.5h2.3c.1,1.1.7,1.7,2.1,1.7s1.9-.5,1.9-1.3-.7-1.2-2.2-1.4c-2.8-.4-3.8-1.2-3.8-3.2s2-3.1,3.9-3.1,3.8.8,4.1,3.2h-2.2c-.2-1-.7-1.4-1.9-1.4s-1.7.5-1.7,1.2.5,1.1,2.2,1.3c2.5.4,3.9,1,3.9,3.2s-1.5,3.3-4.2,3.3ZM45.1,19.6V5.5h2.4v1.7c.6-1,1.9-1.9,3.4-1.9,2.6,0,4.6,1.9,4.6,5.3v.2c0,3.4-1.9,5.4-4.6,5.4s-2.9-.8-3.4-1.8v5.2h-2.4ZM50.4,14.3c1.8,0,2.8-1.2,2.8-3.4v-.2c0-2.3-1.2-3.5-2.8-3.5s-2.9,1.1-2.9,3.5v.2c0,2.3,1.1,3.4,2.9,3.4ZM62.1,14.3c1.8,0,2.9-1.3,2.9-3.5h0c0-2.3-1.1-3.6-2.9-3.6s-2.9,1.3-2.9,3.5v.2c0,2.1,1.1,3.5,2.9,3.5ZM62.1,16.2c-3.1,0-5.4-2.1-5.4-5.3v-.2c0-3.2,2.3-5.4,5.4-5.4s5.4,2.1,5.4,5.3v.2c0,3.3-2.3,5.4-5.4,5.4ZM69.2,16V5.5h2.4v1.7c.5-1,1.7-1.9,3.4-1.9s3.6,1.2,3.6,4.1v6.6h-2.4v-6.4c0-1.6-.6-2.3-2.1-2.3s-2.5.8-2.5,2.5v6.2h-2.4ZM84.6,16.2c-2.7,0-4.3-1.2-4.4-3.5h2.3c.1,1.1.7,1.7,2.1,1.7s1.9-.5,1.9-1.3-.7-1.2-2.2-1.4c-2.8-.4-3.8-1.2-3.8-3.2s2-3.1,3.9-3.1,3.8.8,4.1,3.2h-2.2c-.2-1-.7-1.4-1.9-1.4s-1.7.5-1.7,1.2.5,1.1,2.2,1.3c2.5.4,3.9,1,3.9,3.2s-1.5,3.3-4.2,3.3ZM93.2,16.2c-1.9,0-3.5-.9-3.5-3.1s2.4-3.3,5.4-3.3h1.3v-.5c0-1.4-.5-2.1-1.9-2.1s-1.9.6-2,1.6h-2.3c.2-2.4,2.1-3.5,4.5-3.5s4.2,1,4.2,3.8v6.9h-2.4v-1.3c-.7.9-1.6,1.5-3.2,1.5ZM93.8,14.5c1.5,0,2.6-.8,2.6-2.1v-1h-1.2c-1.8,0-3,.4-3,1.7s.5,1.5,1.7,1.5ZM107,16.2c-1.7,0-2.9-.8-3.4-1.9v1.7h-2.4V.7h2.4v6.5c.6-1,1.9-1.9,3.4-1.9,2.6,0,4.6,1.9,4.6,5.3v.2c0,3.4-1.9,5.4-4.6,5.4ZM106.4,14.3c1.8,0,2.8-1.2,2.8-3.4v-.2c0-2.3-1.2-3.5-2.8-3.5s-2.9,1.1-2.9,3.5v.2c0,2.3,1.1,3.4,2.9,3.4ZM113.5,16V5.5h2.4v10.5h-2.4ZM114.7,3.8c-.8,0-1.4-.6-1.4-1.4s.6-1.4,1.4-1.4,1.4.6,1.4,1.4-.6,1.4-1.4,1.4ZM118.5,16V.7h2.4v15.3h-2.4ZM123.5,16V5.5h2.4v10.5h-2.4ZM124.7,3.8c-.8,0-1.4-.6-1.4-1.4s.6-1.4,1.4-1.4,1.4.6,1.4,1.4-.6,1.4-1.4,1.4ZM132.4,16.2c-2.6,0-4.6-1.9-4.6-5.3v-.2c0-3.3,2-5.5,4.7-5.5s2.8.8,3.3,1.8V.7h2.4v15.3h-2.4v-1.8c-.6,1-1.9,2-3.4,2ZM133,14.3c1.7,0,2.9-1.1,2.9-3.5v-.2c0-2.3-1.1-3.4-2.8-3.4s-2.8,1.2-2.8,3.5v.2c0,2.3,1.2,3.4,2.7,3.4ZM143.5,16.2c-1.9,0-3.5-.9-3.5-3.1s2.4-3.3,5.4-3.3h1.3v-.5c0-1.4-.5-2.1-1.9-2.1s-1.9.6-2,1.6h-2.3c.2-2.4,2.1-3.5,4.5-3.5s4.2,1,4.2,3.8v6.9h-2.4v-1.3c-.7.9-1.6,1.5-3.2,1.5ZM144.1,14.5c1.5,0,2.6-.8,2.6-2.1v-1h-1.2c-1.8,0-3,.4-3,1.7s.5,1.5,1.7,1.5ZM155.4,16.2c-2.6,0-4.6-1.9-4.6-5.3v-.2c0-3.3,2-5.5,4.7-5.5s2.8.8,3.3,1.8V.7h2.4v15.3h-2.4v-1.8c-.6,1-1.9,2-3.4,2ZM156,14.3c1.7,0,2.9-1.1,2.9-3.5v-.2c0-2.3-1.1-3.4-2.8-3.4s-2.8,1.2-2.8,3.5v.2c0,2.3,1.2,3.4,2.7,3.4ZM168.3,16.2c-3.1,0-5.3-2-5.3-5.3v-.2c0-3.2,2.2-5.4,5.2-5.4s4.9,1.5,4.9,5.3v.7h-7.7c0,2,1.1,3.1,2.9,3.1s2.2-.6,2.4-1.6h2.3c-.3,2.2-2.1,3.4-4.8,3.4ZM165.5,9.7h5.2c-.1-1.8-1-2.6-2.5-2.6s-2.4,1-2.7,2.6Z" fill="#000" stroke-width="0"/>
</svg>