<svg width="118" height="21" viewBox="0 0 118 21" fill="none" xmlns="http://www.w3.org/2000/svg">
<path d="M6.25 20.225C3.65 20.225 2.3 18.825 2.3 16.35V9.2H0.55V6.925H2.3V4.05H5.325V6.925H8.2V9.2H5.325V16.075C5.325 17.225 5.875 17.75 6.825 17.75C7.425 17.75 7.875 17.675 8.3 17.5V19.9C7.825 20.075 7.175 20.225 6.25 20.225ZM16.3785 17.9C18.6285 17.9 19.9785 16.225 19.9785 13.55V13.375C19.9785 10.675 18.6285 9.025 16.3785 9.025C14.1285 9.025 12.7535 10.65 12.7535 13.35V13.55C12.7535 16.225 14.0785 17.9 16.3785 17.9ZM16.3535 20.25C12.5035 20.25 9.65351 17.575 9.65351 13.6V13.4C9.65351 9.35 12.5285 6.65 16.3785 6.65C20.2035 6.65 23.0785 9.325 23.0785 13.325V13.525C23.0785 17.6 20.2035 20.25 16.3535 20.25ZM30.2117 20.25C26.9367 20.25 24.4617 17.925 24.4617 13.675V13.475C24.4617 9.3 26.9367 6.65 30.3367 6.65C32.4617 6.65 33.7867 7.625 34.5117 8.925V0.875H37.5367V20H34.5117V17.8C33.8117 19.1 32.1367 20.25 30.2117 20.25ZM30.9617 17.85C33.0617 17.85 34.6117 16.45 34.6117 13.525V13.325C34.6117 10.45 33.2867 9.025 31.0867 9.025C28.8617 9.025 27.5617 10.575 27.5617 13.4V13.6C27.5617 16.475 29.0117 17.85 30.9617 17.85ZM46.482 17.9C48.732 17.9 50.082 16.225 50.082 13.55V13.375C50.082 10.675 48.732 9.025 46.482 9.025C44.232 9.025 42.857 10.65 42.857 13.35V13.55C42.857 16.225 44.182 17.9 46.482 17.9ZM46.457 20.25C42.607 20.25 39.757 17.575 39.757 13.6V13.4C39.757 9.35 42.632 6.65 46.482 6.65C50.307 6.65 53.182 9.325 53.182 13.325V13.525C53.182 17.6 50.307 20.25 46.457 20.25ZM59.8902 20.25C56.5152 20.25 54.5402 18.7 54.4152 15.925H57.2652C57.4152 17.25 58.0902 18.025 59.8652 18.025C61.4902 18.025 62.2152 17.45 62.2152 16.35C62.2152 15.275 61.3402 14.875 59.4152 14.55C55.9652 14 54.6902 13.025 54.6902 10.575C54.6902 7.95 57.1402 6.65 59.5902 6.65C62.2652 6.65 64.3902 7.65 64.7152 10.6H61.9152C61.6652 9.4 60.9902 8.85 59.5902 8.85C58.2902 8.85 57.5152 9.475 57.5152 10.4C57.5152 11.35 58.1402 11.725 60.2152 12.075C63.2902 12.55 65.1152 13.3 65.1152 16.075C65.1152 18.725 63.2402 20.25 59.8902 20.25ZM72.7258 20V6.925H75.7508V9C76.3758 7.725 77.8258 6.65 79.9758 6.65C82.6008 6.65 84.4508 8.175 84.4508 11.775V20H81.4258V12.05C81.4258 10.075 80.6258 9.175 78.8258 9.175C77.1258 9.175 75.7508 10.225 75.7508 12.3V20H72.7258ZM92.0107 4.975L93.4857 1.1H96.8357L94.2357 4.975H92.0107ZM93.2857 17.9C95.5357 17.9 96.8857 16.225 96.8857 13.55V13.375C96.8857 10.675 95.5357 9.025 93.2857 9.025C91.0357 9.025 89.6607 10.65 89.6607 13.35V13.55C89.6607 16.225 90.9857 17.9 93.2857 17.9ZM93.2607 20.25C89.4107 20.25 86.5607 17.575 86.5607 13.6V13.4C86.5607 9.35 89.4357 6.65 93.2857 6.65C97.1107 6.65 99.9857 9.325 99.9857 13.325V13.525C99.9857 17.6 97.1107 20.25 93.2607 20.25ZM106.694 20.25C103.319 20.25 101.344 18.7 101.219 15.925H104.069C104.219 17.25 104.894 18.025 106.669 18.025C108.294 18.025 109.019 17.45 109.019 16.35C109.019 15.275 108.144 14.875 106.219 14.55C102.769 14 101.494 13.025 101.494 10.575C101.494 7.95 103.944 6.65 106.394 6.65C109.069 6.65 111.194 7.65 111.519 10.6H108.719C108.469 9.4 107.794 8.85 106.394 8.85C105.094 8.85 104.319 9.475 104.319 10.4C104.319 11.35 104.944 11.725 107.019 12.075C110.094 12.55 111.919 13.3 111.919 16.075C111.919 18.725 110.044 20.25 106.694 20.25ZM115.872 20.175C114.772 20.175 113.897 19.325 113.897 18.225C113.897 17.125 114.772 16.25 115.872 16.25C116.997 16.25 117.872 17.125 117.872 18.225C117.872 19.325 116.997 20.175 115.872 20.175Z" fill="black"/>
</svg>
