<?xml version="1.0" encoding="utf-8"?>
<!-- Generator: Adobe Illustrator 27.7.0, SVG Export Plug-In . SVG Version: 6.00 Build 0)  -->
<svg version="1.1" id="Layer_1" xmlns="http://www.w3.org/2000/svg" xmlns:xlink="http://www.w3.org/1999/xlink" x="0px" y="0px"
	 viewBox="0 0 240 49" style="enable-background:new 0 0 240 49;" xml:space="preserve">
<style type="text/css">
	.st0{fill:#FFFFFF;}
</style>
<path class="st0" d="M10.7,20.4c-1.4,0-2.7-0.2-3.9-0.7c-1.2-0.5-2.2-1.2-3.1-2c-0.9-0.9-1.5-1.9-2-3.1S1,12,1,10.6
	c0-1.4,0.2-2.7,0.7-3.9s1.2-2.2,2-3.1c0.9-0.9,1.9-1.6,3.1-2C8,1.1,9.3,0.8,10.7,0.8s2.7,0.2,3.9,0.7c1.2,0.5,2.2,1.2,3.1,2
	s1.5,1.9,2,3.1c0.5,1.2,0.7,2.5,0.7,3.9c0,1.4-0.2,2.7-0.7,3.9c-0.5,1.2-1.1,2.2-2,3.1c-0.9,0.9-1.9,1.6-3.1,2
	C13.4,20.2,12.1,20.4,10.7,20.4z M10.7,15.8c1,0,1.8-0.2,2.5-0.7c0.7-0.5,1.2-1.1,1.6-1.9s0.5-1.7,0.5-2.6S15.1,8.8,14.7,8
	s-0.9-1.4-1.6-1.9c-0.7-0.5-1.5-0.7-2.5-0.7c-1,0-1.8,0.2-2.5,0.7C7.5,6.6,7,7.2,6.6,8c-0.4,0.8-0.5,1.7-0.5,2.6s0.2,1.8,0.5,2.6
	C7,14,7.5,14.6,8.2,15.1C8.9,15.6,9.7,15.8,10.7,15.8z M22.7,20V1.3h4.5l7.2,10.4V1.3h4.9V20h-4.2L27.6,9.3V20H22.7z M42.4,20V1.3h5
	v14.3H56V20H42.4z M58,20V1.3h5V20H58z M66,20V1.3h4.5l7.2,10.4V1.3h4.9V20h-4.2L70.9,9.3V20H66z M85.6,20V1.3h13.4v4.3h-8.5v2.9h7
	v4h-7v3.2h9.1V20H85.6z M106.7,20V1.3h5v14.3h8.7V20H106.7z M122.3,20V1.3h13.4v4.3h-8.5v2.9h7v4h-7v3.2h9.1V20H122.3z M137.1,20
	l6.9-18.7h5.7l6.6,18.7h-5.3l-1.2-3.9h-6.2l-1.2,3.9H137.1z M144.4,12.5h4.2l-2.1-6.9L144.4,12.5z M157.7,20V1.3h7.7
	c2,0,3.6,0.5,4.8,1.6c1.2,1,1.8,2.5,1.8,4.6c0,1.2-0.3,2.3-0.8,3.2c-0.5,0.9-1.3,1.6-2.2,2.2l4,7.2h-5.3l-3.2-6.4h-2.1V20H157.7z
	 M162.6,9.8h2.4c0.7,0,1.2-0.2,1.6-0.6c0.4-0.4,0.6-1,0.6-1.6c0-0.7-0.2-1.3-0.6-1.7c-0.4-0.4-0.9-0.6-1.7-0.6h-2.4V9.8z M175,20
	V1.3h4.5l7.2,10.4V1.3h4.9V20h-4.2l-7.4-10.7V20H175z M194.7,20V1.3h5V20H194.7z M202.7,20V1.3h4.5l7.2,10.4V1.3h4.9V20h-4.2
	l-7.4-10.7V20H202.7z M231.9,13.2V9.3h7.7v8.4c-1.1,1-2.4,1.6-3.9,2.1c-1.5,0.4-2.9,0.6-4.3,0.6c-2,0-3.8-0.4-5.2-1.2
	c-1.5-0.8-2.6-1.9-3.4-3.4c-0.8-1.5-1.1-3.2-1.1-5.2c0-1.9,0.4-3.6,1.2-5.1s2-2.6,3.4-3.5c1.5-0.8,3.2-1.3,5.1-1.3
	c1.5,0,3,0.3,4.3,0.8c1.4,0.5,2.5,1.4,3.4,2.5l-3.2,3.2c-0.6-0.6-1.2-1.1-1.9-1.4c-0.7-0.4-1.4-0.6-2.3-0.6c-1.1,0-2,0.2-2.7,0.7
	c-0.7,0.5-1.3,1.1-1.7,1.9c-0.4,0.8-0.6,1.7-0.6,2.7c0,1.6,0.5,2.9,1.4,3.8c0.9,1,2.1,1.4,3.6,1.4c0.6,0,1.2-0.1,1.8-0.2
	c0.6-0.2,1.1-0.4,1.6-0.8v-1.8H231.9z M0.1,45L7,26.3h5.7L19.3,45h-5.3l-1.2-3.9H6.5L5.2,45H0.1z M7.5,37.5h4.2l-2.1-6.9L7.5,37.5z
	 M20.8,45V26.3h4.5l7.2,10.4V26.3h4.9V45h-4.2l-7.4-10.7V45H20.8z M40.4,45V26.3h7.2c1.9,0,3.6,0.3,5.1,1c1.5,0.7,2.7,1.7,3.6,3.1
	c0.9,1.4,1.3,3.2,1.3,5.3c0,2.1-0.4,3.8-1.3,5.2c-0.9,1.4-2.1,2.4-3.6,3.1c-1.5,0.7-3.2,1-5.1,1H40.4z M45.4,40.6h2
	c1.6,0,2.9-0.5,3.8-1.4c0.9-0.9,1.3-2.1,1.3-3.6c0-1.5-0.4-2.7-1.2-3.6c-0.8-0.9-2.1-1.4-3.9-1.4h-2V40.6z M63.2,45l6.9-18.7h5.7
	L82.3,45H77l-1.2-3.9h-6.2L68.3,45H63.2z M70.6,37.5h4.2l-2.1-6.9L70.6,37.5z M83.9,45V26.3H91c1.9,0,3.6,0.3,5.1,1
	c1.5,0.7,2.7,1.7,3.6,3.1c0.9,1.4,1.3,3.2,1.3,5.3c0,2.1-0.4,3.8-1.3,5.2c-0.9,1.4-2.1,2.4-3.6,3.1c-1.5,0.7-3.2,1-5.1,1H83.9z
	 M88.8,40.6h2c1.6,0,2.9-0.5,3.8-1.4c0.9-0.9,1.3-2.1,1.3-3.6c0-1.5-0.4-2.7-1.2-3.6c-0.8-0.9-2.1-1.4-3.9-1.4h-2V40.6z M107.5,45
	l-6.8-18.7h5.4l4.2,13l3.9-13h5.3L112.7,45H107.5z M121,45V26.3h5V45H121z M143,38.4l3.3,3.1c-2.1,2.6-4.9,3.9-8.3,3.9
	c-1.9,0-3.6-0.4-5.1-1.3c-1.5-0.8-2.6-2-3.4-3.4c-0.8-1.5-1.2-3.2-1.2-5.1c0-1.9,0.4-3.6,1.2-5.1c0.8-1.5,2-2.7,3.4-3.5
	c1.5-0.9,3.1-1.3,5.1-1.3c1.6,0,3.1,0.3,4.5,0.8c1.4,0.5,2.6,1.5,3.5,2.8l-3.3,3.3c-0.5-0.7-1.1-1.3-1.9-1.7
	c-0.7-0.4-1.6-0.6-2.5-0.6c-1,0-1.9,0.2-2.7,0.7c-0.7,0.4-1.3,1.1-1.7,1.8c-0.4,0.8-0.6,1.6-0.6,2.6c0,1,0.2,1.9,0.6,2.7
	c0.4,0.8,1,1.4,1.7,1.8c0.7,0.4,1.6,0.7,2.6,0.7c1.1,0,2-0.2,2.7-0.6C141.7,39.8,142.4,39.2,143,38.4z M147.9,45V26.3h13.4v4.3h-8.5
	v2.9h7v4h-7v3.2h9.1V45H147.9z"/>
</svg>
