<?xml version="1.0" encoding="utf-8"?>
<!-- Generator: Adobe Illustrator 27.7.0, SVG Export Plug-In . SVG Version: 6.00 Build 0)  -->
<svg version="1.1" id="Layer_1" xmlns="http://www.w3.org/2000/svg" xmlns:xlink="http://www.w3.org/1999/xlink" x="0px" y="0px"
	 viewBox="0 0 31.2 26.6" style="enable-background:new 0 0 31.2 26.6;" xml:space="preserve">
<style type="text/css">
	.st0{fill:#4C6888;}
	.st1{fill:#7F93AA;}
</style>
<g>
	<g>
		<g>
			<g>
				<path class="st0" d="M27.8,16.7c-0.8-1.4-1.7-2.8-2.6-4.1l-3.6,2.7c0.8,1.1,1.6,2.3,2.3,3.5L27.8,16.7L27.8,16.7z"/>
				<path class="st0" d="M12,7.4l2-4C12.6,2.7,11.1,2,9.5,1.5L8.1,5.8C9.5,6.3,10.8,6.8,12,7.4z"/>
				<path class="st0" d="M18.8,12.3l3.1-3.2C20.7,8,19.5,6.9,18.2,6l-2.6,3.7C16.7,10.4,17.8,11.3,18.8,12.3L18.8,12.3z"/>
				<path class="st1" d="M4.2,4.8l0.7-4.4C3.3,0.1,1.7,0,0.1,0L0,4.5C1.4,4.5,2.8,4.6,4.2,4.8L4.2,4.8z"/>
				<path class="st0" d="M31.2,25.7c-0.3-1.6-0.8-3.1-1.3-4.7l-4.2,1.6c0.5,1.3,0.9,2.6,1.1,4L31.2,25.7z"/>
			</g>
		</g>
	</g>
</g>
</svg>
