<?xml version="1.0" encoding="UTF-8"?>
<svg id="Layer_1" data-name="Layer 1" xmlns="http://www.w3.org/2000/svg" width="970" height="250" version="1.1" viewBox="0 0 970 250">
  <path d="M953.7,17.8l-4.9,5,4.7,4.9-1.8,1.8-4.7-4.8-4.8,5-1.8-1.8,4.9-5-4.9-5,1.8-1.8,4.8,5,4.8-5,1.8,1.8Z" fill="#fff" stroke-width="0"/>
  <rect x=".5" y=".5" width="969" height="249" fill="none" stroke="#000"/>
  <path d="M18.3,43h1.2l3.1,8h-1.3l-.8-2.2h-3.3l-.8,2.2h-1.2l3.1-8ZM20.1,47.8l-1.3-3.5-1.3,3.5h2.6ZM22.5,45.4h1.2l1.2,4.3,1.3-4.3h.9l1.3,4.3,1.2-4.3h1.1l-1.8,5.6h-1.1l-1.3-3.9-1.3,3.9h-1l-1.9-5.6ZM35.1,50.3c-.2.3-.5.5-.8.6-.3.1-.7.2-1,.2s-.5,0-.7,0c-.2,0-.4-.2-.6-.3-.2-.1-.3-.3-.5-.5-.1-.2-.2-.5-.2-.8,0-.6.2-1.1.6-1.4.4-.4,1-.5,1.8-.5s.3,0,.4,0c.1,0,.3,0,.4,0,.1,0,.2,0,.3,0,0,0,.2,0,.2,0v-.2c0-.4-.1-.7-.4-.9-.2-.2-.6-.3-1-.3s-.8,0-1,.2c-.2.1-.5.2-.6.3l-.5-.7c0,0,.2-.2.3-.2.1,0,.3-.2.5-.2.2,0,.4-.1.6-.2.2,0,.5,0,.8,0,.7,0,1.3.2,1.7.5.4.3.6.8.6,1.5v3.3c0,.2,0,.4,0,.5h-1v-.7ZM35.1,48.4s0,0-.2,0c0,0-.2,0-.3,0s-.2,0-.4,0c-.1,0-.3,0-.4,0-.3,0-.6,0-.7.1-.2,0-.3.2-.4.3s-.2.2-.2.4c0,.1,0,.3,0,.4,0,.3.1.5.3.7.2.2.5.2.9.2s.4,0,.6-.1c.2,0,.4-.2.5-.3.1-.1.3-.3.3-.4,0-.2.1-.3.1-.5v-.6ZM37.6,51v-5c0-.2,0-.4,0-.5h1v.9c.1,0,.2-.2.3-.3.1-.1.2-.2.4-.3.2,0,.3-.2.5-.2.2,0,.4-.1.7-.1s.2,0,.3,0c.1,0,.2,0,.3,0l-.2,1c-.1,0-.3,0-.6,0s-.4,0-.6.1c-.2,0-.4.2-.5.4-.1.2-.3.3-.3.5,0,.2-.1.4-.1.7v2.9h-1.1ZM45.7,50.3s-.1.1-.2.2c0,0-.2.2-.4.3-.2,0-.3.2-.5.3-.2,0-.4.1-.7.1s-.7,0-1-.2c-.3-.1-.6-.3-.8-.6s-.4-.5-.5-.9c-.1-.4-.2-.8-.2-1.2s0-1,.3-1.4c.2-.4.4-.7.7-.9.3-.2.6-.4.9-.5.3-.1.7-.2.9-.2s.7,0,.9.1c.2,0,.4.2.5.2v-2.7h1.1v7.4c0,.2,0,.4,0,.6h-1.1v-.7ZM45.7,46.7c0,0-.2-.1-.4-.3-.2-.1-.5-.2-.9-.2s-.5,0-.7.1c-.2,0-.4.2-.6.4-.2.2-.3.4-.4.6,0,.3-.1.5-.1.9s0,.5,0,.8c0,.2.2.4.3.6.1.2.3.3.5.4.2,0,.5.1.7.1s.5,0,.7-.2.4-.2.5-.4c.1-.2.2-.3.3-.5,0-.2,0-.4,0-.5v-2ZM48.6,49.6c.2.2.4.4.7.5.3.1.6.2,1,.2s.7,0,.9-.2c.2-.1.4-.3.4-.6s0-.2,0-.3c0,0-.1-.2-.3-.3-.1,0-.3-.1-.5-.2-.2,0-.5-.1-.8-.2-.2,0-.4-.1-.6-.2-.2,0-.4-.2-.6-.3-.2-.1-.3-.3-.4-.5-.1-.2-.2-.4-.2-.7s0-.5.2-.7c.1-.2.3-.4.5-.5.2-.1.4-.3.7-.3.3,0,.5-.1.8-.1.5,0,.9,0,1.2.2.3.1.6.3.9.5l-.6.7c-.2-.2-.4-.3-.6-.4-.2-.1-.5-.2-.9-.2s-.6,0-.8.2-.3.3-.3.6.1.4.4.5c.3.1.6.2,1.1.3.3,0,.5.1.7.2.2,0,.4.2.6.3.2.1.3.3.4.5.1.2.2.4.2.7s0,.5-.2.7c-.1.2-.3.4-.5.5s-.5.3-.7.3c-.3,0-.6.1-.9.1-1.1,0-1.8-.3-2.4-.9l.7-.7ZM59.6,50.3c-.2.3-.5.5-.8.6-.3.1-.7.2-1,.2s-.5,0-.7,0c-.2,0-.4-.2-.6-.3-.2-.1-.3-.3-.5-.5-.1-.2-.2-.5-.2-.8,0-.6.2-1.1.6-1.4.4-.4,1-.5,1.8-.5s.3,0,.4,0c.1,0,.3,0,.4,0s.2,0,.3,0c0,0,.2,0,.2,0v-.2c0-.4-.1-.7-.4-.9-.2-.2-.6-.3-1-.3s-.8,0-1,.2c-.2.1-.5.2-.6.3l-.5-.7c0,0,.2-.2.3-.2.1,0,.3-.2.5-.2.2,0,.4-.1.6-.2.2,0,.5,0,.8,0,.7,0,1.3.2,1.7.5.4.3.6.8.6,1.5v3.3c0,.2,0,.4,0,.5h-1v-.7ZM59.6,48.4s0,0-.2,0c0,0-.2,0-.3,0s-.2,0-.4,0c-.1,0-.3,0-.4,0-.3,0-.6,0-.7.1-.2,0-.3.2-.4.3s-.2.2-.2.4c0,.1,0,.3,0,.4,0,.3.1.5.3.7.2.2.5.2.9.2s.4,0,.6-.1c.2,0,.4-.2.5-.3.1-.1.3-.3.3-.4,0-.2.1-.3.1-.5v-.6ZM62.1,51v-5c0-.2,0-.4,0-.6h1v.8c.1,0,.2-.2.3-.3.1-.1.2-.2.4-.3s.3-.2.5-.2c.2,0,.4,0,.7,0,.7,0,1.3.2,1.6.6s.5,1,.5,1.7v3.3h-1.1v-3.3c0-.5-.1-.9-.3-1.1-.2-.2-.5-.4-.9-.4s-.6,0-.8.2c-.2.1-.4.3-.5.5-.1.2-.2.4-.3.7,0,.3,0,.5,0,.8v2.6h-1.1ZM72.6,50.3s-.1.1-.2.2c0,0-.2.2-.4.3-.2,0-.3.2-.5.3-.2,0-.4.1-.7.1s-.7,0-1-.2c-.3-.1-.6-.3-.8-.6s-.4-.5-.5-.9c-.1-.4-.2-.8-.2-1.2s0-1,.3-1.4c.2-.4.4-.7.7-.9.3-.2.6-.4.9-.5.3-.1.7-.2.9-.2s.7,0,.9.1.4.2.5.2v-2.7h1.1v7.4c0,.2,0,.4,0,.6h-1.1v-.7ZM72.6,46.7c0,0-.2-.1-.4-.3-.2-.1-.5-.2-.9-.2s-.5,0-.7.1c-.2,0-.4.2-.6.4-.2.2-.3.4-.4.6,0,.3-.1.5-.1.9s0,.5,0,.8c0,.2.2.4.3.6.1.2.3.3.5.4.2,0,.5.1.7.1s.5,0,.7-.2c.2-.1.4-.2.5-.4.1-.2.2-.3.3-.5,0-.2,0-.4,0-.5v-2ZM77.4,51v-5c0-.2,0-.4,0-.5h1v.9c0,0,.2-.2.3-.3.1-.1.2-.2.4-.3.2,0,.3-.2.5-.2.2,0,.4-.1.7-.1s.2,0,.3,0c.1,0,.2,0,.3,0l-.2,1c-.1,0-.3,0-.6,0s-.4,0-.6.1c-.2,0-.4.2-.5.4-.1.2-.3.3-.3.5,0,.2-.1.4-.1.7v2.9h-1.1ZM84.9,50.3c-.2.3-.5.5-.8.6-.3.1-.7.2-1,.2s-.5,0-.7,0c-.2,0-.4-.2-.6-.3-.2-.1-.3-.3-.5-.5-.1-.2-.2-.5-.2-.8,0-.6.2-1.1.6-1.4.4-.4,1-.5,1.8-.5s.3,0,.4,0c.1,0,.3,0,.4,0,.1,0,.2,0,.3,0,0,0,.2,0,.2,0v-.2c0-.4-.1-.7-.4-.9-.2-.2-.6-.3-1-.3s-.8,0-1,.2c-.2.1-.5.2-.6.3l-.5-.7c0,0,.2-.2.3-.2.1,0,.3-.2.5-.2.2,0,.4-.1.6-.2.2,0,.5,0,.8,0,.7,0,1.3.2,1.7.5.4.3.6.8.6,1.5v3.3c0,.2,0,.4,0,.5h-1v-.7ZM84.9,48.4s0,0-.2,0c0,0-.2,0-.3,0-.1,0-.2,0-.4,0-.1,0-.3,0-.4,0-.3,0-.6,0-.7.1-.2,0-.3.2-.4.3-.1.1-.2.2-.2.4,0,.1,0,.3,0,.4,0,.3.1.5.3.7.2.2.5.2.9.2s.4,0,.6-.1c.2,0,.4-.2.5-.3.1-.1.3-.3.3-.4s.1-.3.1-.5v-.6ZM87.9,46.3h-1v-.9h1v-1.8h1.1v1.8h1.6v.9h-1.6v2.7c0,.4,0,.8.2.9.1.2.3.3.6.3s.4,0,.5,0c.1,0,.3-.2.4-.3l.5.7c-.2.2-.5.4-.7.5-.2.1-.5.2-.9.2-.6,0-1-.2-1.3-.5-.3-.3-.4-.8-.4-1.5v-2.9ZM92,43.2h1.2v1.2h-1.2v-1.2ZM92.1,45.4h1.1v5.6h-1.1v-5.6ZM94.7,51v-5c0-.2,0-.4,0-.6h1v.8c.1,0,.2-.2.3-.3.1-.1.2-.2.4-.3s.3-.2.5-.2c.2,0,.4,0,.7,0,.7,0,1.3.2,1.6.6.4.4.5,1,.5,1.7v3.3h-1.1v-3.3c0-.5-.1-.9-.3-1.1-.2-.2-.5-.4-.9-.4s-.6,0-.8.2c-.2.1-.4.3-.5.5-.1.2-.2.4-.3.7,0,.3,0,.5,0,.8v2.6h-1.1ZM105.2,46.4c0,0-.2,0-.4,0-.2,0-.4,0-.8,0s-.6,0-.8.2c-.2,0-.5.2-.6.4-.2.2-.3.4-.4.6,0,.2-.1.5-.1.8s0,.5,0,.7c0,.2.2.4.3.6.1.2.3.3.5.4.2,0,.4.1.7.1s.5,0,.7-.1c.2,0,.4-.2.5-.3.1-.1.2-.3.3-.4,0-.2,0-.3,0-.5v-2.3ZM102,52.1c.2.1.4.2.7.3.3,0,.6.1,1,.1s.9-.1,1.2-.4c.3-.3.4-.7.4-1.2v-.7c0,0-.1.1-.2.2,0,0-.2.2-.3.2-.1,0-.3.1-.5.2-.2,0-.4,0-.7,0-.4,0-.8,0-1.1-.2-.3-.1-.6-.3-.8-.6-.2-.2-.4-.5-.5-.9-.1-.3-.2-.7-.2-1.1s0-.8.2-1.2c.2-.4.4-.7.6-.9.3-.3.6-.5,1-.6.4-.2.8-.2,1.3-.2s.9,0,1.3.1c.4,0,.7.2.9.3v5.3c0,.8-.2,1.4-.7,1.9-.5.4-1.1.7-2,.7s-1,0-1.4-.2c-.3-.1-.6-.3-.8-.4l.5-.8ZM108.1,49.6c.2.2.4.4.7.5s.6.2,1,.2.7,0,.9-.2c.2-.1.4-.3.4-.6s0-.2,0-.3c0,0-.1-.2-.3-.3-.1,0-.3-.1-.5-.2-.2,0-.5-.1-.8-.2-.2,0-.4-.1-.6-.2-.2,0-.4-.2-.6-.3-.2-.1-.3-.3-.4-.5-.1-.2-.2-.4-.2-.7s0-.5.2-.7c.1-.2.3-.4.5-.5.2-.1.4-.3.7-.3.3,0,.5-.1.8-.1.5,0,.9,0,1.2.2.3.1.6.3.9.5l-.6.7c-.2-.2-.4-.3-.6-.4-.2-.1-.5-.2-.9-.2s-.6,0-.8.2-.3.3-.3.6.1.4.4.5c.3.1.6.2,1.1.3.3,0,.5.1.7.2.2,0,.4.2.6.3.2.1.3.3.4.5.1.2.2.4.2.7s0,.5-.2.7c-.1.2-.3.4-.5.5-.2.1-.5.3-.7.3-.3,0-.6.1-.9.1-1.1,0-1.8-.3-2.4-.9l.7-.7ZM119.1,50.3c-.2.3-.5.5-.8.6-.3.1-.7.2-1,.2s-.5,0-.7,0c-.2,0-.4-.2-.6-.3-.2-.1-.3-.3-.5-.5-.1-.2-.2-.5-.2-.8,0-.6.2-1.1.6-1.4.4-.4,1-.5,1.8-.5s.3,0,.4,0c.1,0,.3,0,.4,0,.1,0,.2,0,.3,0,0,0,.2,0,.2,0v-.2c0-.4-.1-.7-.4-.9-.2-.2-.6-.3-1-.3s-.8,0-1,.2c-.2.1-.5.2-.6.3l-.5-.7c0,0,.2-.2.3-.2.1,0,.3-.2.5-.2.2,0,.4-.1.6-.2.2,0,.5,0,.8,0,.7,0,1.3.2,1.7.5.4.3.6.8.6,1.5v3.3c0,.2,0,.4,0,.5h-1v-.7ZM119.1,48.4s0,0-.2,0c0,0-.2,0-.3,0-.1,0-.2,0-.4,0-.1,0-.3,0-.4,0-.3,0-.6,0-.7.1-.2,0-.3.2-.4.3-.1.1-.2.2-.2.4,0,.1,0,.3,0,.4,0,.3.1.5.3.7.2.2.5.2.9.2s.4,0,.6-.1c.2,0,.4-.2.5-.3.1-.1.3-.3.3-.4s.1-.3.1-.5v-.6ZM121.6,51v-5c0-.2,0-.4,0-.5h1v.9c0,0,.2-.2.3-.3.1-.1.2-.2.4-.3.2,0,.3-.2.5-.2.2,0,.4-.1.7-.1s.2,0,.3,0c.1,0,.2,0,.3,0l-.2,1c-.1,0-.3,0-.6,0s-.4,0-.6.1c-.2,0-.4.2-.5.4-.1.2-.3.3-.3.5,0,.2-.1.4-.1.7v2.9h-1.1ZM130.8,50.2c0,0-.2.2-.3.3-.1.1-.3.2-.5.3-.2.1-.4.2-.7.3-.3,0-.6.1-.9.1s-.8,0-1.2-.2c-.4-.1-.7-.3-.9-.6s-.5-.6-.6-.9c-.1-.4-.2-.8-.2-1.2s0-.8.2-1.1c.1-.4.3-.7.6-.9.2-.3.5-.5.9-.6.3-.2.7-.2,1.1-.2s.9,0,1.2.3c.3.2.6.4.8.7.2.3.4.7.5,1,.1.4.2.8.2,1.2h-4.4c0,.2,0,.5.2.7.1.2.2.4.4.5s.4.3.6.4c.2,0,.4.1.7.1.5,0,.9,0,1.2-.2s.5-.3.7-.5l.6.6ZM129.8,47.7c0-.4-.2-.8-.5-1.1-.3-.3-.7-.5-1.2-.5s-.5,0-.7.1c-.2,0-.4.2-.5.3-.1.1-.3.3-.3.5,0,.2-.1.4-.1.6h3.3ZM137,51.2c-.4,0-.8,0-1.2-.2-.4-.2-.7-.4-.9-.6-.3-.3-.5-.6-.6-.9-.1-.4-.2-.7-.2-1.2s0-.8.2-1.1c.2-.4.4-.7.6-.9.3-.3.6-.5.9-.6.4-.2.8-.2,1.2-.2s.8,0,1.2.2c.4.2.7.4.9.6.3.3.5.6.6.9.2.4.2.7.2,1.1s0,.8-.2,1.2c-.1.4-.3.7-.6.9-.3.3-.6.5-.9.6-.4.2-.8.2-1.2.2ZM137,50.2c.3,0,.5,0,.8-.2.2-.1.4-.3.6-.5.2-.2.3-.4.4-.6,0-.2.1-.5.1-.8s0-.5-.1-.7c0-.2-.2-.5-.4-.7-.2-.2-.4-.3-.6-.5-.2-.1-.5-.2-.8-.2s-.5,0-.8.2c-.2.1-.4.3-.6.5-.2.2-.3.4-.4.6,0,.2-.1.5-.1.7s0,.5.1.7c0,.2.2.5.4.6.2.2.4.3.6.5.2.1.5.2.8.2ZM141.1,51v-5c0-.2,0-.4,0-.6h1v.8c.1,0,.2-.2.3-.3.1-.1.2-.2.4-.3.2,0,.3-.2.5-.2.2,0,.4,0,.7,0,.7,0,1.3.2,1.6.6s.5,1,.5,1.7v3.3h-1.1v-3.3c0-.5-.1-.9-.3-1.1-.2-.2-.5-.4-.9-.4s-.6,0-.8.2c-.2.1-.4.3-.5.5-.1.2-.2.4-.3.7,0,.3,0,.5,0,.8v2.6h-1.1ZM147.7,43h1.1v8h-1.1v-8ZM150,52.4c0,0,.2.1.3.2.1,0,.2,0,.4,0s.2,0,.3,0c0,0,.2-.1.3-.3,0-.1.2-.3.2-.4,0-.2.2-.3.2-.6v-.4c.1,0-2.4-5.5-2.4-5.5h1.2l1.8,4.2,1.6-4.2h1.2l-2.2,5.4c-.1.3-.2.5-.3.8-.1.3-.2.6-.4.9-.2.3-.4.5-.6.7-.2.2-.5.3-.9.3s-.5,0-.7-.1c-.2,0-.4-.2-.5-.3l.5-.8ZM160.9,51.2c-.4,0-.8,0-1.2-.2-.4-.2-.7-.4-.9-.6-.3-.3-.5-.6-.6-.9-.1-.4-.2-.7-.2-1.2s0-.8.2-1.1c.2-.4.4-.7.6-.9.3-.3.6-.5.9-.6.4-.2.8-.2,1.2-.2s.8,0,1.2.2c.4.2.7.4.9.6.3.3.5.6.6.9.2.4.2.7.2,1.1s0,.8-.2,1.2c-.1.4-.3.7-.6.9-.3.3-.6.5-.9.6-.4.2-.8.2-1.2.2ZM160.9,50.2c.3,0,.5,0,.8-.2.2-.1.4-.3.6-.5.2-.2.3-.4.4-.6,0-.2.1-.5.1-.8s0-.5-.1-.7c0-.2-.2-.5-.4-.7-.2-.2-.4-.3-.6-.5-.2-.1-.5-.2-.8-.2s-.5,0-.8.2c-.2.1-.4.3-.6.5-.2.2-.3.4-.4.6,0,.2-.1.5-.1.7s0,.5.1.7c0,.2.2.5.4.6.2.2.4.3.6.5.2.1.5.2.8.2ZM165.1,51v-5c0-.2,0-.4,0-.6h1v.8c.1,0,.2-.2.3-.3.1-.1.2-.2.4-.3.2,0,.3-.2.5-.2.2,0,.4,0,.7,0,.7,0,1.3.2,1.6.6s.5,1,.5,1.7v3.3h-1.1v-3.3c0-.5-.1-.9-.3-1.1-.2-.2-.5-.4-.9-.4s-.6,0-.8.2c-.2.1-.4.3-.5.5-.1.2-.2.4-.3.7,0,.3,0,.5,0,.8v2.6h-1.1ZM176.7,50.2c0,0-.2.2-.3.3-.1.1-.3.2-.5.3-.2.1-.4.2-.7.3-.3,0-.6.1-.9.1s-.8,0-1.2-.2-.7-.3-.9-.6-.5-.6-.6-.9c-.1-.4-.2-.8-.2-1.2s0-.8.2-1.1c.1-.4.3-.7.6-.9.2-.3.5-.5.9-.6.3-.2.7-.2,1.1-.2s.9,0,1.2.3c.3.2.6.4.8.7.2.3.4.7.5,1,.1.4.2.8.2,1.2h-4.4c0,.2,0,.5.2.7.1.2.2.4.4.5s.4.3.6.4.4.1.7.1c.5,0,.9,0,1.2-.2s.5-.3.7-.5l.6.6ZM175.7,47.7c0-.4-.2-.8-.5-1.1-.3-.3-.7-.5-1.2-.5s-.5,0-.7.1c-.2,0-.4.2-.5.3-.1.1-.3.3-.3.5,0,.2-.1.4-.1.6h3.3ZM180.6,46.3h-1v-.9h1v-.5c0-.4,0-.7.2-1,.1-.3.3-.5.4-.7.2-.2.4-.3.6-.4.2,0,.5-.1.7-.1s.6,0,.9.1c.3,0,.6.2.8.5l-.5.7c-.3-.2-.6-.4-.9-.4s-.6,0-.8.3c-.2.2-.3.5-.3,1v.4h1.6v.9h-1.6v4.7h-1.1v-4.7ZM187.4,50.3c-.2.3-.5.5-.8.6-.3.1-.7.2-1,.2s-.5,0-.7,0c-.2,0-.4-.2-.6-.3-.2-.1-.3-.3-.5-.5-.1-.2-.2-.5-.2-.8,0-.6.2-1.1.6-1.4.4-.4,1-.5,1.8-.5s.3,0,.4,0c.1,0,.3,0,.4,0,.1,0,.2,0,.3,0,0,0,.2,0,.2,0v-.2c0-.4-.1-.7-.4-.9-.2-.2-.6-.3-1-.3s-.8,0-1,.2c-.2.1-.5.2-.6.3l-.5-.7c0,0,.2-.2.3-.2.1,0,.3-.2.5-.2.2,0,.4-.1.6-.2.2,0,.5,0,.8,0,.7,0,1.3.2,1.7.5.4.3.6.8.6,1.5v3.3c0,.2,0,.4,0,.5h-1v-.7ZM187.4,48.4s0,0-.2,0c0,0-.2,0-.3,0s-.2,0-.4,0-.3,0-.4,0c-.3,0-.6,0-.7.1-.2,0-.3.2-.4.3-.1.1-.2.2-.2.4,0,.1,0,.3,0,.4,0,.3.1.5.3.7.2.2.5.2.9.2s.4,0,.6-.1c.2,0,.4-.2.5-.3.1-.1.3-.3.3-.4s.1-.3.1-.5v-.6ZM194.7,50.2c-.2.3-.6.5-.9.7-.4.2-.8.3-1.3.3s-.9,0-1.2-.2c-.4-.2-.7-.4-.9-.6-.2-.3-.4-.6-.6-.9-.1-.4-.2-.8-.2-1.2s0-.8.2-1.2c.1-.4.3-.7.6-.9.3-.3.6-.5.9-.6.4-.2.8-.2,1.2-.2s.9,0,1.2.3.7.4.9.7l-.7.7c-.2-.2-.4-.4-.6-.5-.2-.1-.5-.2-.9-.2s-.5,0-.8.2c-.2.1-.4.3-.6.4-.2.2-.3.4-.4.6,0,.2-.1.5-.1.8s0,.5.1.8c0,.2.2.5.4.6.2.2.4.3.6.4.2.1.5.2.8.2s.6,0,.9-.2c.3-.1.5-.3.6-.5l.7.7ZM196.3,46.3h-1v-.9h1v-1.8h1.1v1.8h1.6v.9h-1.6v2.7c0,.4,0,.8.2.9.1.2.3.3.6.3s.4,0,.5,0c.1,0,.3-.2.4-.3l.5.7c-.2.2-.5.4-.7.5-.2.1-.5.2-.9.2-.6,0-1-.2-1.3-.5-.3-.3-.4-.8-.4-1.5v-2.9ZM202.7,51.2c-.4,0-.8,0-1.2-.2-.4-.2-.7-.4-.9-.6-.3-.3-.5-.6-.6-.9-.1-.4-.2-.7-.2-1.2s0-.8.2-1.1c.2-.4.4-.7.6-.9.3-.3.6-.5.9-.6.4-.2.8-.2,1.2-.2s.8,0,1.2.2c.4.2.7.4.9.6.3.3.5.6.6.9.2.4.2.7.2,1.1s0,.8-.2,1.2c-.1.4-.3.7-.6.9-.3.3-.6.5-.9.6-.4.2-.8.2-1.2.2ZM202.7,50.2c.3,0,.5,0,.8-.2.2-.1.4-.3.6-.5.2-.2.3-.4.4-.6,0-.2.1-.5.1-.8s0-.5-.1-.7c0-.2-.2-.5-.4-.7-.2-.2-.4-.3-.6-.5-.2-.1-.5-.2-.8-.2s-.5,0-.8.2c-.2.1-.4.3-.6.5-.2.2-.3.4-.4.6,0,.2-.1.5-.1.7s0,.5.1.7c0,.2.2.5.4.6.2.2.4.3.6.5.2.1.5.2.8.2ZM206.9,51v-5c0-.2,0-.4,0-.5h1v.9c.1,0,.2-.2.3-.3.1-.1.2-.2.4-.3.2,0,.3-.2.5-.2.2,0,.4-.1.7-.1s.2,0,.3,0c.1,0,.2,0,.3,0l-.2,1c-.1,0-.3,0-.6,0s-.4,0-.6.1c-.2,0-.4.2-.5.4-.1.2-.3.3-.3.5,0,.2-.1.4-.1.7v2.9h-1.1ZM213.9,46.3h-1v-.9h1v-1.8h1.1v1.8h1.6v.9h-1.6v2.7c0,.4,0,.8.2.9.1.2.3.3.6.3s.4,0,.5,0c.1,0,.3-.2.4-.3l.5.7c-.2.2-.5.4-.7.5-.2.1-.5.2-.9.2-.6,0-1-.2-1.3-.5-.3-.3-.4-.8-.4-1.5v-2.9ZM220.4,51.2c-.4,0-.8,0-1.2-.2-.4-.2-.7-.4-.9-.6-.3-.3-.5-.6-.6-.9-.1-.4-.2-.7-.2-1.2s0-.8.2-1.1c.2-.4.4-.7.6-.9.3-.3.6-.5.9-.6.4-.2.8-.2,1.2-.2s.8,0,1.2.2c.4.2.7.4.9.6.3.3.5.6.6.9.2.4.2.7.2,1.1s0,.8-.2,1.2c-.1.4-.3.7-.6.9-.3.3-.6.5-.9.6-.4.2-.8.2-1.2.2ZM220.4,50.2c.3,0,.5,0,.8-.2.2-.1.4-.3.6-.5.2-.2.3-.4.4-.6,0-.2.1-.5.1-.8s0-.5-.1-.7c0-.2-.2-.5-.4-.7-.2-.2-.4-.3-.6-.5-.2-.1-.5-.2-.8-.2s-.5,0-.8.2c-.2.1-.4.3-.6.5-.2.2-.3.4-.4.6,0,.2-.1.5-.1.7s0,.5.1.7c0,.2.2.5.4.6.2.2.4.3.6.5.2.1.5.2.8.2ZM231.6,50.2c-.2.3-.6.5-.9.7-.4.2-.8.3-1.3.3s-.9,0-1.2-.2c-.4-.2-.7-.4-.9-.6-.2-.3-.4-.6-.6-.9-.1-.4-.2-.8-.2-1.2s0-.8.2-1.2c.1-.4.3-.7.6-.9.3-.3.6-.5.9-.6.4-.2.8-.2,1.2-.2s.9,0,1.2.3c.4.2.7.4.9.7l-.7.7c-.2-.2-.4-.4-.6-.5-.2-.1-.5-.2-.9-.2s-.5,0-.8.2c-.2.1-.4.3-.6.4-.2.2-.3.4-.4.6,0,.2-.1.5-.1.8s0,.5.1.8c0,.2.2.5.4.6.2.2.4.3.6.4.2.1.5.2.8.2s.6,0,.9-.2c.3-.1.5-.3.6-.5l.7.7ZM235,51.2c-.4,0-.8,0-1.2-.2-.4-.2-.7-.4-.9-.6-.3-.3-.5-.6-.6-.9-.1-.4-.2-.7-.2-1.2s0-.8.2-1.1c.2-.4.4-.7.6-.9.3-.3.6-.5.9-.6.4-.2.8-.2,1.2-.2s.8,0,1.2.2c.4.2.7.4.9.6.3.3.5.6.6.9.2.4.2.7.2,1.1s0,.8-.2,1.2c-.1.4-.3.7-.6.9-.3.3-.6.5-.9.6-.4.2-.8.2-1.2.2ZM235,50.2c.3,0,.5,0,.8-.2.2-.1.4-.3.6-.5.2-.2.3-.4.4-.6,0-.2.1-.5.1-.8s0-.5-.1-.7c0-.2-.2-.5-.4-.7-.2-.2-.4-.3-.6-.5-.2-.1-.5-.2-.8-.2s-.5,0-.8.2c-.2.1-.4.3-.6.5-.2.2-.3.4-.4.6,0,.2-.1.5-.1.7s0,.5.1.7c0,.2.2.5.4.6.2.2.4.3.6.5.2.1.5.2.8.2ZM239.2,51v-5c0-.2,0-.4,0-.6h1v.8c.1,0,.2-.2.3-.3.1-.1.2-.2.4-.3.2,0,.3-.2.5-.2.2,0,.4,0,.7,0,.7,0,1.3.2,1.6.6s.5,1,.5,1.7v3.3h-1.1v-3.3c0-.5-.1-.9-.3-1.1-.2-.2-.5-.4-.9-.4s-.6,0-.8.2c-.2.1-.4.3-.5.5-.1.2-.2.4-.3.7,0,.3,0,.5,0,.8v2.6h-1.1ZM246.1,49.6c.2.2.4.4.7.5s.6.2,1,.2.7,0,.9-.2c.2-.1.4-.3.4-.6s0-.2,0-.3c0,0-.1-.2-.3-.3-.1,0-.3-.1-.5-.2-.2,0-.5-.1-.8-.2-.2,0-.4-.1-.6-.2-.2,0-.4-.2-.6-.3-.2-.1-.3-.3-.4-.5-.1-.2-.2-.4-.2-.7s0-.5.2-.7c.1-.2.3-.4.5-.5.2-.1.4-.3.7-.3.3,0,.5-.1.8-.1.5,0,.9,0,1.2.2.3.1.6.3.9.5l-.6.7c-.2-.2-.4-.3-.6-.4-.2-.1-.5-.2-.9-.2s-.6,0-.8.2c-.2.1-.3.3-.3.6s.1.4.4.5c.3.1.6.2,1.1.3.3,0,.5.1.7.2.2,0,.4.2.6.3.2.1.3.3.4.5.1.2.2.4.2.7s0,.5-.2.7c-.1.2-.3.4-.5.5s-.5.3-.7.3c-.3,0-.6.1-.9.1-1.1,0-1.8-.3-2.4-.9l.7-.7ZM251.3,43.2h1.2v1.2h-1.2v-1.2ZM251.4,45.4h1.1v5.6h-1.1v-5.6ZM258.1,50.3s-.1.1-.2.2c0,0-.2.2-.4.3-.2,0-.3.2-.5.3-.2,0-.4.1-.7.1s-.7,0-1-.2c-.3-.1-.6-.3-.8-.6s-.4-.5-.5-.9c-.1-.4-.2-.8-.2-1.2s0-1,.3-1.4c.2-.4.4-.7.7-.9.3-.2.6-.4.9-.5.3-.1.7-.2.9-.2s.7,0,.9.1.4.2.5.2v-2.7h1.1v7.4c0,.2,0,.4,0,.6h-1.1v-.7ZM258.1,46.7c0,0-.2-.1-.4-.3-.2-.1-.5-.2-.9-.2s-.5,0-.7.1c-.2,0-.4.2-.6.4-.2.2-.3.4-.4.6,0,.3-.1.5-.1.9s0,.5,0,.8c0,.2.2.4.3.6.1.2.3.3.5.4.2,0,.5.1.7.1s.5,0,.7-.2c.2-.1.4-.2.5-.4.1-.2.2-.3.3-.5,0-.2,0-.4,0-.5v-2ZM265.7,50.2c0,0-.2.2-.3.3s-.3.2-.5.3c-.2.1-.4.2-.7.3-.3,0-.6.1-.9.1s-.8,0-1.2-.2c-.4-.1-.7-.3-.9-.6-.3-.3-.5-.6-.6-.9-.1-.4-.2-.8-.2-1.2s0-.8.2-1.1c.1-.4.3-.7.6-.9.2-.3.5-.5.9-.6.3-.2.7-.2,1.1-.2s.9,0,1.2.3c.3.2.6.4.8.7.2.3.4.7.5,1,.1.4.2.8.2,1.2h-4.4c0,.2,0,.5.2.7.1.2.2.4.4.5s.4.3.6.4.4.1.7.1c.5,0,.9,0,1.2-.2.3-.2.5-.3.7-.5l.6.6ZM264.7,47.7c0-.4-.2-.8-.5-1.1-.3-.3-.7-.5-1.2-.5s-.5,0-.7.1c-.2,0-.4.2-.5.3-.1.1-.3.3-.3.5,0,.2-.1.4-.1.6h3.3ZM267.1,51v-5c0-.2,0-.4,0-.5h1v.9c0,0,.2-.2.3-.3.1-.1.2-.2.4-.3.2,0,.3-.2.5-.2.2,0,.4-.1.7-.1s.2,0,.3,0c.1,0,.2,0,.3,0l-.2,1c-.1,0-.3,0-.6,0s-.4,0-.6.1c-.2,0-.4.2-.5.4-.1.2-.3.3-.3.5,0,.2-.1.4-.1.7v2.9h-1.1ZM273,45.4h1.2l1.2,4.3,1.3-4.3h.9l1.3,4.3,1.2-4.3h1.1l-1.8,5.6h-1.1l-1.3-3.9-1.3,3.9h-1l-1.9-5.6ZM282.3,43h1.1v3.3c0,0,.2-.2.3-.3.1-.1.2-.2.4-.3.2,0,.3-.2.5-.2.2,0,.4,0,.7,0,.7,0,1.3.2,1.6.6.4.4.5,1,.5,1.7v3.3h-1.1v-3.3c0-.5-.1-.9-.3-1.1-.2-.2-.5-.4-.9-.4s-.6,0-.8.2c-.2.1-.4.3-.5.5-.1.2-.2.4-.3.7,0,.3,0,.5,0,.8v2.6h-1.1v-8ZM293.9,50.2c0,0-.2.2-.3.3-.1.1-.3.2-.5.3-.2.1-.4.2-.7.3-.3,0-.6.1-.9.1s-.8,0-1.2-.2c-.4-.1-.7-.3-.9-.6-.3-.3-.5-.6-.6-.9-.1-.4-.2-.8-.2-1.2s0-.8.2-1.1c.1-.4.3-.7.6-.9.2-.3.5-.5.9-.6.3-.2.7-.2,1.1-.2s.9,0,1.2.3c.3.2.6.4.8.7.2.3.4.7.5,1,.1.4.2.8.2,1.2h-4.4c0,.2,0,.5.2.7.1.2.2.4.4.5s.4.3.6.4.4.1.7.1c.5,0,.9,0,1.2-.2.3-.2.5-.3.7-.5l.6.6ZM292.9,47.7c0-.4-.2-.8-.5-1.1-.3-.3-.7-.5-1.2-.5s-.5,0-.7.1c-.2,0-.4.2-.5.3-.1.1-.3.3-.3.5,0,.2-.1.4-.1.6h3.3ZM295.2,51v-5c0-.2,0-.4,0-.6h1v.8c.1,0,.2-.2.3-.3.1-.1.2-.2.4-.3.2,0,.3-.2.5-.2.2,0,.4,0,.7,0,.7,0,1.3.2,1.6.6.4.4.5,1,.5,1.7v3.3h-1.1v-3.3c0-.5-.1-.9-.3-1.1-.2-.2-.5-.4-.9-.4s-.6,0-.8.2c-.2.1-.4.3-.5.5-.1.2-.2.4-.3.7,0,.3,0,.5,0,.8v2.6h-1.1ZM308.8,50.2c-.2.3-.6.5-.9.7-.4.2-.8.3-1.3.3s-.9,0-1.2-.2c-.4-.2-.7-.4-.9-.6-.2-.3-.4-.6-.6-.9-.1-.4-.2-.8-.2-1.2s0-.8.2-1.2c.1-.4.3-.7.6-.9.3-.3.6-.5.9-.6.4-.2.8-.2,1.2-.2s.9,0,1.2.3c.4.2.7.4.9.7l-.7.7c-.2-.2-.4-.4-.6-.5-.2-.1-.5-.2-.9-.2s-.5,0-.8.2c-.2.1-.4.3-.6.4-.2.2-.3.4-.4.6,0,.2-.1.5-.1.8s0,.5.1.8c0,.2.2.5.4.6.2.2.4.3.6.4.2.1.5.2.8.2s.6,0,.9-.2c.3-.1.5-.3.6-.5l.7.7ZM309.8,43h1.1v3.3c0,0,.2-.2.3-.3s.2-.2.4-.3.3-.2.5-.2c.2,0,.4,0,.7,0,.7,0,1.3.2,1.6.6s.5,1,.5,1.7v3.3h-1.1v-3.3c0-.5-.1-.9-.3-1.1-.2-.2-.5-.4-.9-.4s-.6,0-.8.2c-.2.1-.4.3-.5.5-.1.2-.2.4-.3.7,0,.3,0,.5,0,.8v2.6h-1.1v-8ZM319,51.2c-.4,0-.8,0-1.2-.2-.4-.2-.7-.4-.9-.6-.3-.3-.5-.6-.6-.9-.1-.4-.2-.7-.2-1.2s0-.8.2-1.1c.2-.4.4-.7.6-.9.3-.3.6-.5.9-.6.4-.2.8-.2,1.2-.2s.8,0,1.2.2c.4.2.7.4.9.6s.5.6.6.9c.2.4.2.7.2,1.1s0,.8-.2,1.2c-.1.4-.3.7-.6.9s-.6.5-.9.6c-.4.2-.8.2-1.2.2ZM319,50.2c.3,0,.5,0,.8-.2.2-.1.4-.3.6-.5.2-.2.3-.4.4-.6,0-.2.1-.5.1-.8s0-.5-.1-.7c0-.2-.2-.5-.4-.7-.2-.2-.4-.3-.6-.5-.2-.1-.5-.2-.8-.2s-.5,0-.8.2c-.2.1-.4.3-.6.5-.2.2-.3.4-.4.6,0,.2-.1.5-.1.7s0,.5.1.7c0,.2.2.5.4.6.2.2.4.3.6.5.2.1.5.2.8.2ZM325.9,51.2c-.4,0-.8,0-1.2-.2-.4-.2-.7-.4-.9-.6-.3-.3-.5-.6-.6-.9-.1-.4-.2-.7-.2-1.2s0-.8.2-1.1c.2-.4.4-.7.6-.9.3-.3.6-.5.9-.6.4-.2.8-.2,1.2-.2s.8,0,1.2.2c.4.2.7.4.9.6s.5.6.6.9c.2.4.2.7.2,1.1s0,.8-.2,1.2c-.1.4-.3.7-.6.9s-.6.5-.9.6c-.4.2-.8.2-1.2.2ZM325.9,50.2c.3,0,.5,0,.8-.2.2-.1.4-.3.6-.5.2-.2.3-.4.4-.6,0-.2.1-.5.1-.8s0-.5-.1-.7c0-.2-.2-.5-.4-.7-.2-.2-.4-.3-.6-.5-.2-.1-.5-.2-.8-.2s-.5,0-.8.2c-.2.1-.4.3-.6.5-.2.2-.3.4-.4.6,0,.2-.1.5-.1.7s0,.5.1.7c0,.2.2.5.4.6.2.2.4.3.6.5.2.1.5.2.8.2ZM330.4,49.6c.2.2.4.4.7.5s.6.2,1,.2.7,0,.9-.2c.2-.1.4-.3.4-.6s0-.2,0-.3c0,0-.1-.2-.3-.3-.1,0-.3-.1-.5-.2-.2,0-.5-.1-.8-.2-.2,0-.4-.1-.6-.2-.2,0-.4-.2-.6-.3-.2-.1-.3-.3-.4-.5-.1-.2-.2-.4-.2-.7s0-.5.2-.7c.1-.2.3-.4.5-.5.2-.1.4-.3.7-.3.3,0,.5-.1.8-.1.5,0,.9,0,1.2.2.3.1.6.3.9.5l-.6.7c-.2-.2-.4-.3-.6-.4-.2-.1-.5-.2-.9-.2s-.6,0-.8.2-.3.3-.3.6.1.4.4.5c.3.1.6.2,1.1.3.3,0,.5.1.7.2.2,0,.4.2.6.3.2.1.3.3.4.5.1.2.2.4.2.7s0,.5-.2.7c-.1.2-.3.4-.5.5s-.5.3-.7.3c-.3,0-.6.1-.9.1-1.1,0-1.8-.3-2.4-.9l.7-.7ZM335.7,43.2h1.2v1.2h-1.2v-1.2ZM335.8,45.4h1.1v5.6h-1.1v-5.6ZM338.4,51v-5c0-.2,0-.4,0-.6h1v.8c.1,0,.2-.2.3-.3.1-.1.2-.2.4-.3s.3-.2.5-.2c.2,0,.4,0,.7,0,.7,0,1.3.2,1.6.6s.5,1,.5,1.7v3.3h-1.1v-3.3c0-.5-.1-.9-.3-1.1-.2-.2-.5-.4-.9-.4s-.6,0-.8.2c-.2.1-.4.3-.5.5-.1.2-.2.4-.3.7,0,.3,0,.5,0,.8v2.6h-1.1ZM348.9,46.4c0,0-.2,0-.4,0-.2,0-.4,0-.8,0s-.6,0-.8.2c-.2,0-.5.2-.6.4-.2.2-.3.4-.4.6,0,.2-.1.5-.1.8s0,.5,0,.7c0,.2.2.4.3.6.1.2.3.3.5.4.2,0,.4.1.7.1s.5,0,.7-.1c.2,0,.4-.2.5-.3.1-.1.2-.3.3-.4,0-.2,0-.3,0-.5v-2.3ZM345.7,52.1c.2.1.4.2.7.3.3,0,.6.1,1,.1s.9-.1,1.2-.4c.3-.3.4-.7.4-1.2v-.7c0,0-.1.1-.2.2,0,0-.2.2-.3.2-.1,0-.3.1-.5.2-.2,0-.4,0-.7,0-.4,0-.8,0-1.1-.2-.3-.1-.6-.3-.8-.6-.2-.2-.4-.5-.5-.9-.1-.3-.2-.7-.2-1.1s0-.8.2-1.2c.2-.4.4-.7.6-.9.3-.3.6-.5,1-.6.4-.2.8-.2,1.3-.2s.9,0,1.3.1c.4,0,.7.2.9.3v5.3c0,.8-.2,1.4-.7,1.9-.5.4-1.1.7-2,.7s-1,0-1.4-.2c-.3-.1-.6-.3-.8-.4l.5-.8ZM357.1,50.3c-.2.3-.5.5-.8.6-.3.1-.7.2-1,.2s-.5,0-.7,0c-.2,0-.4-.2-.6-.3-.2-.1-.3-.3-.5-.5-.1-.2-.2-.5-.2-.8,0-.6.2-1.1.6-1.4.4-.4,1-.5,1.8-.5s.3,0,.4,0c.1,0,.3,0,.4,0s.2,0,.3,0c0,0,.2,0,.2,0v-.2c0-.4-.1-.7-.4-.9-.2-.2-.6-.3-1-.3s-.8,0-1,.2c-.2.1-.5.2-.6.3l-.5-.7c0,0,.2-.2.3-.2.1,0,.3-.2.5-.2.2,0,.4-.1.6-.2.2,0,.5,0,.8,0,.7,0,1.3.2,1.7.5.4.3.6.8.6,1.5v3.3c0,.2,0,.4,0,.5h-1v-.7ZM357.1,48.4s0,0-.2,0c0,0-.2,0-.3,0s-.2,0-.4,0c-.1,0-.3,0-.4,0-.3,0-.6,0-.7.1-.2,0-.3.2-.4.3-.1.1-.2.2-.2.4,0,.1,0,.3,0,.4,0,.3.1.5.3.7.2.2.5.2.9.2s.4,0,.6-.1c.2,0,.4-.2.5-.3.1-.1.3-.3.3-.4,0-.2.1-.3.1-.5v-.6ZM362.2,49.6c.2.2.4.4.7.5.3.1.6.2,1,.2s.7,0,.9-.2c.2-.1.4-.3.4-.6s0-.2,0-.3c0,0-.1-.2-.3-.3-.1,0-.3-.1-.5-.2-.2,0-.5-.1-.8-.2-.2,0-.4-.1-.6-.2-.2,0-.4-.2-.6-.3-.2-.1-.3-.3-.4-.5-.1-.2-.2-.4-.2-.7s0-.5.2-.7c.1-.2.3-.4.5-.5.2-.1.4-.3.7-.3.3,0,.5-.1.8-.1.5,0,.9,0,1.2.2.3.1.6.3.9.5l-.6.7c-.2-.2-.4-.3-.6-.4-.2-.1-.5-.2-.9-.2s-.6,0-.8.2-.3.3-.3.6.1.4.4.5c.3.1.6.2,1.1.3.3,0,.5.1.7.2.2,0,.4.2.6.3.2.1.3.3.4.5.1.2.2.4.2.7s0,.5-.2.7c-.1.2-.3.4-.5.5-.2.1-.5.3-.7.3-.3,0-.6.1-.9.1-1.1,0-1.8-.3-2.4-.9l.7-.7ZM367.4,45.4h1.1v3.3c0,.5.1.9.3,1.2.2.2.5.3.9.3s.6,0,.8-.2c.2-.1.4-.3.5-.5.1-.2.2-.4.3-.7,0-.3,0-.5,0-.8v-2.6h1.1v5c0,.2,0,.4,0,.6h-1v-.8c-.1,0-.2.2-.3.3s-.2.2-.4.3c-.2,0-.3.2-.5.2-.2,0-.4,0-.7,0-.7,0-1.3-.2-1.6-.6-.3-.4-.5-1-.5-1.7v-3.3ZM374,53.4v-7.4c0-.2,0-.4,0-.6h1v.8c0,0,.2-.2.3-.3.1-.1.2-.2.4-.3.2,0,.3-.2.6-.2.2,0,.4-.1.7-.1.4,0,.8,0,1.1.2.3.2.6.4.8.6.2.3.4.6.5.9.1.4.2.7.2,1.1s0,.9-.3,1.3c-.2.4-.4.7-.7.9-.3.2-.6.4-.9.5-.3.1-.7.2-1,.2s-.7,0-.9-.1c-.2,0-.4-.2-.6-.2v2.6h-1.1ZM375,49.8c.1.1.3.2.6.3.2,0,.5.1.9.1s.5,0,.7-.1c.2-.1.4-.2.6-.4.2-.2.3-.4.4-.6,0-.2.1-.5.1-.8s0-.5,0-.8c0-.2-.2-.5-.3-.6-.1-.2-.3-.3-.5-.4-.2-.1-.5-.2-.8-.2s-.7.1-1,.3c-.3.2-.5.5-.6.9,0,.1,0,.3,0,.4,0,.1,0,.3,0,.5v1.4ZM385.8,50.2c0,0-.2.2-.3.3s-.3.2-.5.3c-.2.1-.4.2-.7.3-.3,0-.6.1-.9.1s-.8,0-1.2-.2c-.4-.1-.7-.3-.9-.6s-.5-.6-.6-.9c-.1-.4-.2-.8-.2-1.2s0-.8.2-1.1c.1-.4.3-.7.6-.9.2-.3.5-.5.9-.6.3-.2.7-.2,1.1-.2s.9,0,1.2.3c.3.2.6.4.8.7.2.3.4.7.5,1,.1.4.2.8.2,1.2h-4.4c0,.2,0,.5.2.7.1.2.2.4.4.5s.4.3.6.4.4.1.7.1c.5,0,.9,0,1.2-.2.3-.2.5-.3.7-.5l.6.6ZM384.8,47.7c0-.4-.2-.8-.5-1.1-.3-.3-.7-.5-1.2-.5s-.5,0-.7.1c-.2,0-.4.2-.5.3-.1.1-.3.3-.3.5,0,.2-.1.4-.1.6h3.3ZM387.1,51v-5c0-.2,0-.4,0-.5h1v.9c.1,0,.2-.2.3-.3.1-.1.2-.2.4-.3.2,0,.3-.2.5-.2.2,0,.4-.1.7-.1s.2,0,.3,0c.1,0,.2,0,.3,0l-.2,1c-.1,0-.3,0-.6,0s-.4,0-.6.1c-.2,0-.4.2-.5.4-.1.2-.3.3-.3.5,0,.2-.1.4-.1.7v2.9h-1.1ZM394.1,46.3h-1v-.9h1v-.5c0-.4,0-.7.2-1,.1-.3.3-.5.4-.7.2-.2.4-.3.6-.4.2,0,.5-.1.7-.1s.6,0,.9.1c.3,0,.6.2.8.5l-.5.7c-.3-.2-.6-.4-.9-.4s-.6,0-.8.3c-.2.2-.3.5-.3,1v.4h1.6v.9h-1.6v4.7h-1.1v-4.7ZM397.6,45.4h1.1v3.3c0,.5.1.9.3,1.2.2.2.5.3.9.3s.6,0,.8-.2c.2-.1.4-.3.5-.5.1-.2.2-.4.3-.7,0-.3,0-.5,0-.8v-2.6h1.1v5c0,.2,0,.4,0,.6h-1v-.8c-.1,0-.2.2-.3.3s-.2.2-.4.3c-.2,0-.3.2-.5.2-.2,0-.4,0-.7,0-.7,0-1.3-.2-1.6-.6-.3-.4-.5-1-.5-1.7v-3.3ZM404.1,51v-5c0-.2,0-.4,0-.6h1v.8c.1,0,.2-.2.3-.3.1-.1.2-.2.4-.3s.3-.2.5-.2c.2,0,.4,0,.7,0,.7,0,1.3.2,1.6.6s.5,1,.5,1.7v3.3h-1.1v-3.3c0-.5-.1-.9-.3-1.1-.2-.2-.5-.4-.9-.4s-.6,0-.8.2c-.2.1-.4.3-.5.5-.1.2-.2.4-.3.7,0,.3,0,.5,0,.8v2.6h-1.1ZM414.7,50.3s-.1.1-.2.2c0,0-.2.2-.4.3-.2,0-.3.2-.5.3-.2,0-.4.1-.7.1s-.7,0-1-.2c-.3-.1-.6-.3-.8-.6s-.4-.5-.5-.9c-.1-.4-.2-.8-.2-1.2s0-1,.3-1.4c.2-.4.4-.7.7-.9.3-.2.6-.4.9-.5.3-.1.7-.2.9-.2s.7,0,.9.1.4.2.5.2v-2.7h1.1v7.4c0,.2,0,.4,0,.6h-1.1v-.7ZM414.7,46.7c0,0-.2-.1-.4-.3-.2-.1-.5-.2-.9-.2s-.5,0-.7.1c-.2,0-.4.2-.6.4-.2.2-.3.4-.4.6,0,.3-.1.5-.1.9s0,.5,0,.8c0,.2.2.4.3.6.1.2.3.3.5.4.2,0,.5.1.7.1s.5,0,.7-.2c.2-.1.4-.2.5-.4.1-.2.2-.3.3-.5,0-.2,0-.4,0-.5v-2ZM417.3,49.7h1.4v1.3h-1.4v-1.3ZM421.8,43h1.3l2.4,6.6,2.4-6.6h1.2l-3.1,8h-1.2l-3.1-8ZM430,43.2h1.2v1.2h-1.2v-1.2ZM430.1,45.4h1.1v5.6h-1.1v-5.6ZM433.1,49.6c.2.2.4.4.7.5s.6.2,1,.2.7,0,.9-.2c.2-.1.4-.3.4-.6s0-.2,0-.3c0,0-.1-.2-.3-.3-.1,0-.3-.1-.5-.2-.2,0-.5-.1-.8-.2-.2,0-.4-.1-.6-.2-.2,0-.4-.2-.6-.3-.2-.1-.3-.3-.4-.5-.1-.2-.2-.4-.2-.7s0-.5.2-.7c.1-.2.3-.4.5-.5.2-.1.4-.3.7-.3.3,0,.5-.1.8-.1.5,0,.9,0,1.2.2.3.1.6.3.9.5l-.6.7c-.2-.2-.4-.3-.6-.4-.2-.1-.5-.2-.9-.2s-.6,0-.8.2-.3.3-.3.6.1.4.4.5c.3.1.6.2,1.1.3.3,0,.5.1.7.2.2,0,.4.2.6.3.2.1.3.3.4.5.1.2.2.4.2.7s0,.5-.2.7c-.1.2-.3.4-.5.5s-.5.3-.7.3c-.3,0-.6.1-.9.1-1.1,0-1.8-.3-2.4-.9l.7-.7ZM438.4,43.2h1.2v1.2h-1.2v-1.2ZM438.4,45.4h1.1v5.6h-1.1v-5.6ZM441.5,46.3h-1v-.9h1v-1.8h1.1v1.8h1.6v.9h-1.6v2.7c0,.4,0,.8.2.9.1.2.3.3.6.3s.4,0,.5,0c.1,0,.3-.2.4-.3l.5.7c-.2.2-.5.4-.7.5-.2.1-.5.2-.9.2-.6,0-1-.2-1.3-.5-.3-.3-.4-.8-.4-1.5v-2.9ZM447.8,43h1.1v3.3c0,0,.2-.2.3-.3s.2-.2.4-.3.3-.2.5-.2c.2,0,.4,0,.7,0,.7,0,1.3.2,1.6.6s.5,1,.5,1.7v3.3h-1.1v-3.3c0-.5-.1-.9-.3-1.1-.2-.2-.5-.4-.9-.4s-.6,0-.8.2c-.2.1-.4.3-.5.5-.1.2-.2.4-.3.7,0,.3,0,.5,0,.8v2.6h-1.1v-8ZM457,51.2c-.4,0-.8,0-1.2-.2-.4-.2-.7-.4-.9-.6-.3-.3-.5-.6-.6-.9-.1-.4-.2-.7-.2-1.2s0-.8.2-1.1c.2-.4.4-.7.6-.9.3-.3.6-.5.9-.6.4-.2.8-.2,1.2-.2s.8,0,1.2.2c.4.2.7.4.9.6s.5.6.6.9c.2.4.2.7.2,1.1s0,.8-.2,1.2c-.1.4-.3.7-.6.9s-.6.5-.9.6c-.4.2-.8.2-1.2.2ZM457,50.2c.3,0,.5,0,.8-.2.2-.1.4-.3.6-.5.2-.2.3-.4.4-.6,0-.2.1-.5.1-.8s0-.5-.1-.7c0-.2-.2-.5-.4-.7-.2-.2-.4-.3-.6-.5-.2-.1-.5-.2-.8-.2s-.5,0-.8.2c-.2.1-.4.3-.6.5-.2.2-.3.4-.4.6,0,.2-.1.5-.1.7s0,.5.1.7c0,.2.2.5.4.6.2.2.4.3.6.5.2.1.5.2.8.2ZM461.6,49.6c.2.2.4.4.7.5s.6.2,1,.2.7,0,.9-.2c.2-.1.4-.3.4-.6s0-.2,0-.3c0,0-.1-.2-.3-.3-.1,0-.3-.1-.5-.2-.2,0-.5-.1-.8-.2-.2,0-.4-.1-.6-.2-.2,0-.4-.2-.6-.3-.2-.1-.3-.3-.4-.5-.1-.2-.2-.4-.2-.7s0-.5.2-.7c.1-.2.3-.4.5-.5.2-.1.4-.3.7-.3.3,0,.5-.1.8-.1.5,0,.9,0,1.2.2.3.1.6.3.9.5l-.6.7c-.2-.2-.4-.3-.6-.4-.2-.1-.5-.2-.9-.2s-.6,0-.8.2c-.2.1-.3.3-.3.6s.1.4.4.5c.3.1.6.2,1.1.3.3,0,.5.1.7.2.2,0,.4.2.6.3.2.1.3.3.4.5.1.2.2.4.2.7s0,.5-.2.7c-.1.2-.3.4-.5.5s-.5.3-.7.3c-.3,0-.6.1-.9.1-1.1,0-1.8-.3-2.4-.9l.7-.7ZM467.3,46.3h-1v-.9h1v-1.8h1.1v1.8h1.6v.9h-1.6v2.7c0,.4,0,.8.2.9.1.2.3.3.6.3s.4,0,.5,0c.1,0,.3-.2.4-.3l.5.7c-.2.2-.5.4-.7.5-.2.1-.5.2-.9.2-.6,0-1-.2-1.3-.5-.3-.3-.4-.8-.4-1.5v-2.9ZM471.5,53.4v-7.4c0-.2,0-.4,0-.6h1v.8c0,0,.2-.2.3-.3.1-.1.2-.2.4-.3.2,0,.3-.2.6-.2.2,0,.4-.1.7-.1.4,0,.8,0,1.1.2.3.2.6.4.8.6.2.3.4.6.5.9.1.4.2.7.2,1.1s0,.9-.3,1.3c-.2.4-.4.7-.7.9-.3.2-.6.4-.9.5-.3.1-.7.2-1,.2s-.7,0-.9-.1c-.2,0-.4-.2-.6-.2v2.6h-1.1ZM472.5,49.8c.1.1.3.2.6.3.2,0,.5.1.9.1s.5,0,.7-.1c.2-.1.4-.2.6-.4.2-.2.3-.4.4-.6,0-.2.1-.5.1-.8s0-.5,0-.8c0-.2-.2-.5-.3-.6-.1-.2-.3-.3-.5-.4-.2-.1-.5-.2-.8-.2s-.7.1-1,.3c-.3.2-.5.5-.6.9,0,.1,0,.3,0,.4,0,.1,0,.3,0,.5v1.4ZM478.2,43h1.1v8h-1.1v-8ZM480.7,45.4h1.1v3.3c0,.5.1.9.3,1.2.2.2.5.3.9.3s.6,0,.8-.2c.2-.1.4-.3.5-.5.1-.2.2-.4.3-.7,0-.3,0-.5,0-.8v-2.6h1.1v5c0,.2,0,.4,0,.6h-1v-.8c-.1,0-.2.2-.3.3-.1.1-.2.2-.4.3-.2,0-.3.2-.5.2-.2,0-.4,0-.7,0-.7,0-1.3-.2-1.6-.6-.3-.4-.5-1-.5-1.7v-3.3ZM487.6,49.6c.2.2.4.4.7.5s.6.2,1,.2.7,0,.9-.2c.2-.1.4-.3.4-.6s0-.2,0-.3c0,0-.1-.2-.3-.3-.1,0-.3-.1-.5-.2-.2,0-.5-.1-.8-.2-.2,0-.4-.1-.6-.2-.2,0-.4-.2-.6-.3-.2-.1-.3-.3-.4-.5-.1-.2-.2-.4-.2-.7s0-.5.2-.7c.1-.2.3-.4.5-.5.2-.1.4-.3.7-.3.3,0,.5-.1.8-.1.5,0,.9,0,1.2.2.3.1.6.3.9.5l-.6.7c-.2-.2-.4-.3-.6-.4-.2-.1-.5-.2-.9-.2s-.6,0-.8.2-.3.3-.3.6.1.4.4.5c.3.1.6.2,1.1.3.3,0,.5.1.7.2.2,0,.4.2.6.3.2.1.3.3.4.5.1.2.2.4.2.7s0,.5-.2.7c-.1.2-.3.4-.5.5s-.5.3-.7.3c-.3,0-.6.1-.9.1-1.1,0-1.8-.3-2.4-.9l.7-.7ZM492.7,49.7h1.4v1.3h-1.4v-1.3ZM500.3,50.2c-.2.3-.6.5-.9.7-.4.2-.8.3-1.3.3s-.9,0-1.2-.2c-.4-.2-.7-.4-.9-.6-.2-.3-.4-.6-.6-.9-.1-.4-.2-.8-.2-1.2s0-.8.2-1.2c.1-.4.3-.7.6-.9.3-.3.6-.5.9-.6.4-.2.8-.2,1.2-.2s.9,0,1.2.3c.4.2.7.4.9.7l-.7.7c-.2-.2-.4-.4-.6-.5-.2-.1-.5-.2-.9-.2s-.5,0-.8.2c-.2.1-.4.3-.6.4-.2.2-.3.4-.4.6,0,.2-.1.5-.1.8s0,.5.1.8c0,.2.2.5.4.6.2.2.4.3.6.4.2.1.5.2.8.2s.6,0,.9-.2c.3-.1.5-.3.6-.5l.7.7ZM503.8,51.2c-.4,0-.8,0-1.2-.2-.4-.2-.7-.4-.9-.6-.3-.3-.5-.6-.6-.9-.1-.4-.2-.7-.2-1.2s0-.8.2-1.1c.2-.4.4-.7.6-.9.3-.3.6-.5.9-.6.4-.2.8-.2,1.2-.2s.8,0,1.2.2c.4.2.7.4.9.6.3.3.5.6.6.9.2.4.2.7.2,1.1s0,.8-.2,1.2c-.1.4-.3.7-.6.9-.3.3-.6.5-.9.6-.4.2-.8.2-1.2.2ZM503.8,50.2c.3,0,.5,0,.8-.2.2-.1.4-.3.6-.5.2-.2.3-.4.4-.6,0-.2.1-.5.1-.8s0-.5-.1-.7c0-.2-.2-.5-.4-.7-.2-.2-.4-.3-.6-.5-.2-.1-.5-.2-.8-.2s-.5,0-.8.2c-.2.1-.4.3-.6.5-.2.2-.3.4-.4.6,0,.2-.1.5-.1.7s0,.5.1.7c0,.2.2.5.4.6.2.2.4.3.6.5.2.1.5.2.8.2ZM507.9,51v-5c0-.2,0-.4,0-.6h1v.8c.1,0,.2-.2.3-.3.1-.1.2-.2.4-.3s.3-.2.5-.2c.2,0,.4,0,.7,0,.4,0,.8,0,1.1.3.3.2.5.4.7.7.2-.3.5-.5.8-.7.3-.2.7-.3,1.2-.3.7,0,1.3.2,1.6.6.3.4.5,1,.5,1.7v3.3h-1.1v-3.3c0-.5-.1-.9-.3-1.1-.2-.2-.5-.4-.9-.4s-.4,0-.6.1c-.2,0-.3.2-.5.4-.1.2-.2.3-.3.5,0,.2-.1.4-.1.6v3.1h-1.1v-3.3c0-.5-.1-.9-.3-1.1-.2-.2-.5-.4-.9-.4s-.5,0-.7.2c-.2.1-.4.3-.5.5-.1.2-.2.4-.3.7,0,.3,0,.5,0,.8v2.6h-1.1ZM518.2,49.7h1.4v1.3h-1.4v-1.3ZM524.5,50.3c-.2.3-.5.5-.8.6-.3.1-.7.2-1,.2s-.5,0-.7,0c-.2,0-.4-.2-.6-.3-.2-.1-.3-.3-.5-.5-.1-.2-.2-.5-.2-.8,0-.6.2-1.1.6-1.4.4-.4,1-.5,1.8-.5s.3,0,.4,0c.1,0,.3,0,.4,0s.2,0,.3,0c0,0,.2,0,.2,0v-.2c0-.4-.1-.7-.4-.9-.2-.2-.6-.3-1-.3s-.8,0-1,.2c-.2.1-.5.2-.6.3l-.5-.7c0,0,.2-.2.3-.2.1,0,.3-.2.5-.2.2,0,.4-.1.6-.2.2,0,.5,0,.8,0,.7,0,1.3.2,1.7.5.4.3.6.8.6,1.5v3.3c0,.2,0,.4,0,.5h-1v-.7ZM524.5,48.4s0,0-.2,0c0,0-.2,0-.3,0s-.2,0-.4,0c-.1,0-.3,0-.4,0-.3,0-.6,0-.7.1-.2,0-.3.2-.4.3-.1.1-.2.2-.2.4,0,.1,0,.3,0,.4,0,.3.1.5.3.7.2.2.5.2.9.2s.4,0,.6-.1c.2,0,.4-.2.5-.3.1-.1.3-.3.3-.4,0-.2.1-.3.1-.5v-.6ZM527,45.4h1.1v3.3c0,.5.1.9.3,1.2.2.2.5.3.9.3s.6,0,.8-.2c.2-.1.4-.3.5-.5.1-.2.2-.4.3-.7,0-.3,0-.5,0-.8v-2.6h1.1v5c0,.2,0,.4,0,.6h-1v-.8c-.1,0-.2.2-.3.3-.1.1-.2.2-.4.3-.2,0-.3.2-.5.2-.2,0-.4,0-.7,0-.7,0-1.3-.2-1.6-.6-.3-.4-.5-1-.5-1.7v-3.3ZM536.3,42.8h1.1l-3.2,8.4h-1.1l3.2-8.4ZM540.8,50.3c-.2.3-.5.5-.8.6-.3.1-.7.2-1,.2s-.5,0-.7,0c-.2,0-.4-.2-.6-.3-.2-.1-.3-.3-.5-.5-.1-.2-.2-.5-.2-.8,0-.6.2-1.1.6-1.4.4-.4,1-.5,1.8-.5s.3,0,.4,0c.1,0,.3,0,.4,0s.2,0,.3,0c0,0,.2,0,.2,0v-.2c0-.4-.1-.7-.4-.9-.2-.2-.6-.3-1-.3s-.8,0-1,.2c-.2.1-.5.2-.6.3l-.5-.7c0,0,.2-.2.3-.2.1,0,.3-.2.5-.2.2,0,.4-.1.6-.2.2,0,.5,0,.8,0,.7,0,1.3.2,1.7.5.4.3.6.8.6,1.5v3.3c0,.2,0,.4,0,.5h-1v-.7ZM540.8,48.4s0,0-.2,0c0,0-.2,0-.3,0s-.2,0-.4,0c-.1,0-.3,0-.4,0-.3,0-.6,0-.7.1-.2,0-.3.2-.4.3-.1.1-.2.2-.2.4,0,.1,0,.3,0,.4,0,.3.1.5.3.7.2.2.5.2.9.2s.4,0,.6-.1c.2,0,.4-.2.5-.3.1-.1.3-.3.3-.4,0-.2.1-.3.1-.5v-.6ZM542.6,45.4h1.2l1.2,4.3,1.3-4.3h.9l1.3,4.3,1.2-4.3h1.1l-1.8,5.6h-1.1l-1.3-3.9-1.3,3.9h-1l-1.9-5.6ZM555.2,50.3c-.2.3-.5.5-.8.6-.3.1-.7.2-1,.2s-.5,0-.7,0c-.2,0-.4-.2-.6-.3-.2-.1-.3-.3-.5-.5-.1-.2-.2-.5-.2-.8,0-.6.2-1.1.6-1.4.4-.4,1-.5,1.8-.5s.3,0,.4,0c.1,0,.3,0,.4,0s.2,0,.3,0c0,0,.2,0,.2,0v-.2c0-.4-.1-.7-.4-.9-.2-.2-.6-.3-1-.3s-.8,0-1,.2c-.2.1-.5.2-.6.3l-.5-.7c0,0,.2-.2.3-.2.1,0,.3-.2.5-.2.2,0,.4-.1.6-.2.2,0,.5,0,.8,0,.7,0,1.3.2,1.7.5.4.3.6.8.6,1.5v3.3c0,.2,0,.4,0,.5h-1v-.7ZM555.2,48.4s0,0-.2,0c0,0-.2,0-.3,0s-.2,0-.4,0c-.1,0-.3,0-.4,0-.3,0-.6,0-.7.1-.2,0-.3.2-.4.3-.1.1-.2.2-.2.4,0,.1,0,.3,0,.4,0,.3.1.5.3.7.2.2.5.2.9.2s.4,0,.6-.1c.2,0,.4-.2.5-.3.1-.1.3-.3.3-.4,0-.2.1-.3.1-.5v-.6ZM557.7,51v-5c0-.2,0-.4,0-.5h1v.9c.1,0,.2-.2.3-.3.1-.1.2-.2.4-.3.2,0,.3-.2.5-.2.2,0,.4-.1.7-.1s.2,0,.3,0c.1,0,.2,0,.3,0l-.2,1c-.1,0-.3,0-.6,0s-.4,0-.6.1c-.2,0-.4.2-.5.4-.1.2-.3.3-.3.5,0,.2-.1.4-.1.7v2.9h-1.1ZM565.8,50.3s-.1.1-.2.2c0,0-.2.2-.4.3-.2,0-.3.2-.5.3-.2,0-.4.1-.7.1s-.7,0-1-.2c-.3-.1-.6-.3-.8-.6s-.4-.5-.5-.9c-.1-.4-.2-.8-.2-1.2s0-1,.3-1.4c.2-.4.4-.7.7-.9.3-.2.6-.4.9-.5.3-.1.7-.2.9-.2s.7,0,.9.1.4.2.5.2v-2.7h1.1v7.4c0,.2,0,.4,0,.6h-1.1v-.7ZM565.8,46.7c0,0-.2-.1-.4-.3-.2-.1-.5-.2-.9-.2s-.5,0-.7.1c-.2,0-.4.2-.6.4-.2.2-.3.4-.4.6,0,.3-.1.5-.1.9s0,.5,0,.8c0,.2.2.4.3.6.1.2.3.3.5.4.2,0,.5.1.7.1s.5,0,.7-.2c.2-.1.4-.2.5-.4.1-.2.2-.3.3-.5,0-.2,0-.4,0-.5v-2ZM568.7,49.6c.2.2.4.4.7.5.3.1.6.2,1,.2s.7,0,.9-.2c.2-.1.4-.3.4-.6s0-.2,0-.3c0,0-.1-.2-.3-.3-.1,0-.3-.1-.5-.2-.2,0-.5-.1-.8-.2-.2,0-.4-.1-.6-.2-.2,0-.4-.2-.6-.3-.2-.1-.3-.3-.4-.5-.1-.2-.2-.4-.2-.7s0-.5.2-.7c.1-.2.3-.4.5-.5.2-.1.4-.3.7-.3.3,0,.5-.1.8-.1.5,0,.9,0,1.2.2.3.1.6.3.9.5l-.6.7c-.2-.2-.4-.3-.6-.4-.2-.1-.5-.2-.9-.2s-.6,0-.8.2-.3.3-.3.6.1.4.4.5c.3.1.6.2,1.1.3.3,0,.5.1.7.2.2,0,.4.2.6.3.2.1.3.3.4.5.1.2.2.4.2.7s0,.5-.2.7c-.1.2-.3.4-.5.5s-.5.3-.7.3c-.3,0-.6.1-.9.1-1.1,0-1.8-.3-2.4-.9l.7-.7ZM576.7,46.3h-1v-.9h1v-1.8h1.1v1.8h1.6v.9h-1.6v2.7c0,.4,0,.8.2.9.1.2.3.3.6.3s.4,0,.5,0c.1,0,.3-.2.4-.3l.5.7c-.2.2-.5.4-.7.5-.2.1-.5.2-.9.2-.6,0-1-.2-1.3-.5-.3-.3-.4-.8-.4-1.5v-2.9ZM583.1,51.2c-.4,0-.8,0-1.2-.2-.4-.2-.7-.4-.9-.6-.3-.3-.5-.6-.6-.9-.1-.4-.2-.7-.2-1.2s0-.8.2-1.1c.2-.4.4-.7.6-.9.3-.3.6-.5.9-.6.4-.2.8-.2,1.2-.2s.8,0,1.2.2c.4.2.7.4.9.6.3.3.5.6.6.9.2.4.2.7.2,1.1s0,.8-.2,1.2c-.1.4-.3.7-.6.9-.3.3-.6.5-.9.6-.4.2-.8.2-1.2.2ZM583.1,50.2c.3,0,.5,0,.8-.2.2-.1.4-.3.6-.5.2-.2.3-.4.4-.6,0-.2.1-.5.1-.8s0-.5-.1-.7c0-.2-.2-.5-.4-.7-.2-.2-.4-.3-.6-.5-.2-.1-.5-.2-.8-.2s-.5,0-.8.2c-.2.1-.4.3-.6.5-.2.2-.3.4-.4.6,0,.2-.1.5-.1.7s0,.5.1.7c0,.2.2.5.4.6.2.2.4.3.6.5.2.1.5.2.8.2ZM589.5,43h1.1v8h-1.1v-8ZM597.1,50.2c0,0-.2.2-.3.3s-.3.2-.5.3c-.2.1-.4.2-.7.3-.3,0-.6.1-.9.1s-.8,0-1.2-.2c-.4-.1-.7-.3-.9-.6-.3-.3-.5-.6-.6-.9-.1-.4-.2-.8-.2-1.2s0-.8.2-1.1c.1-.4.3-.7.6-.9.2-.3.5-.5.9-.6.3-.2.7-.2,1.1-.2s.9,0,1.2.3c.3.2.6.4.8.7.2.3.4.7.5,1,.1.4.2.8.2,1.2h-4.4c0,.2,0,.5.2.7.1.2.2.4.4.5.2.2.4.3.6.4.2,0,.4.1.7.1.5,0,.9,0,1.2-.2s.5-.3.7-.5l.6.6ZM596.2,47.7c0-.4-.2-.8-.5-1.1-.3-.3-.7-.5-1.2-.5s-.5,0-.7.1c-.2,0-.4.2-.5.3-.1.1-.3.3-.3.5,0,.2-.1.4-.1.6h3.3ZM602,50.3c-.2.3-.5.5-.8.6-.3.1-.7.2-1,.2s-.5,0-.7,0c-.2,0-.4-.2-.6-.3-.2-.1-.3-.3-.5-.5-.1-.2-.2-.5-.2-.8,0-.6.2-1.1.6-1.4.4-.4,1-.5,1.8-.5s.3,0,.4,0c.1,0,.3,0,.4,0s.2,0,.3,0c0,0,.2,0,.2,0v-.2c0-.4-.1-.7-.4-.9-.2-.2-.6-.3-1-.3s-.8,0-1,.2c-.2.1-.5.2-.6.3l-.5-.7c0,0,.2-.2.3-.2.1,0,.3-.2.5-.2.2,0,.4-.1.6-.2.2,0,.5,0,.8,0,.7,0,1.3.2,1.7.5.4.3.6.8.6,1.5v3.3c0,.2,0,.4,0,.5h-1v-.7ZM602,48.4s0,0-.2,0c0,0-.2,0-.3,0s-.2,0-.4,0c-.1,0-.3,0-.4,0-.3,0-.6,0-.7.1-.2,0-.3.2-.4.3-.1.1-.2.2-.2.4,0,.1,0,.3,0,.4,0,.3.1.5.3.7.2.2.5.2.9.2s.4,0,.6-.1c.2,0,.4-.2.5-.3.1-.1.3-.3.3-.4s.1-.3.1-.5v-.6ZM604.5,51v-5c0-.2,0-.4,0-.5h1v.9c0,0,.2-.2.3-.3.1-.1.2-.2.4-.3.2,0,.3-.2.5-.2.2,0,.4-.1.7-.1s.2,0,.3,0c.1,0,.2,0,.3,0l-.2,1c-.1,0-.3,0-.6,0s-.4,0-.6.1c-.2,0-.4.2-.5.4-.1.2-.3.3-.3.5,0,.2-.1.4-.1.7v2.9h-1.1ZM608.8,51v-5c0-.2,0-.4,0-.6h1v.8c.1,0,.2-.2.3-.3.1-.1.2-.2.4-.3.2,0,.3-.2.5-.2.2,0,.4,0,.7,0,.7,0,1.3.2,1.6.6s.5,1,.5,1.7v3.3h-1.1v-3.3c0-.5-.1-.9-.3-1.1-.2-.2-.5-.4-.9-.4s-.6,0-.8.2c-.2.1-.4.3-.5.5-.1.2-.2.4-.3.7,0,.3,0,.5,0,.8v2.6h-1.1ZM617.5,51v-5c0-.2,0-.4,0-.6h1v.8c0,0,.2-.2.3-.3.1-.1.2-.2.4-.3.1,0,.3-.2.5-.2.2,0,.4,0,.7,0,.4,0,.8,0,1.1.3.3.2.5.4.7.7.2-.3.5-.5.8-.7.3-.2.7-.3,1.2-.3.7,0,1.3.2,1.6.6.3.4.5,1,.5,1.7v3.3h-1.1v-3.3c0-.5-.1-.9-.3-1.1-.2-.2-.5-.4-.9-.4s-.4,0-.6.1c-.2,0-.3.2-.5.4-.1.2-.2.3-.3.5,0,.2-.1.4-.1.6v3.1h-1.1v-3.3c0-.5-.1-.9-.3-1.1-.2-.2-.5-.4-.9-.4s-.5,0-.7.2c-.2.1-.4.3-.5.5-.1.2-.2.4-.3.7,0,.3,0,.5,0,.8v2.6h-1.1ZM630.4,51.2c-.4,0-.8,0-1.2-.2-.4-.2-.7-.4-.9-.6-.3-.3-.5-.6-.6-.9-.1-.4-.2-.7-.2-1.2s0-.8.2-1.1c.2-.4.4-.7.6-.9.3-.3.6-.5.9-.6.4-.2.8-.2,1.2-.2s.8,0,1.2.2c.4.2.7.4.9.6.3.3.5.6.6.9.2.4.2.7.2,1.1s0,.8-.2,1.2c-.1.4-.3.7-.6.9-.3.3-.6.5-.9.6-.4.2-.8.2-1.2.2ZM630.4,50.2c.3,0,.5,0,.8-.2.2-.1.4-.3.6-.5.2-.2.3-.4.4-.6,0-.2.1-.5.1-.8s0-.5-.1-.7c0-.2-.2-.5-.4-.7-.2-.2-.4-.3-.6-.5-.2-.1-.5-.2-.8-.2s-.5,0-.8.2c-.2.1-.4.3-.6.5-.2.2-.3.4-.4.6,0,.2-.1.5-.1.7s0,.5.1.7c0,.2.2.5.4.6.2.2.4.3.6.5.2.1.5.2.8.2ZM634.6,51v-5c0-.2,0-.4,0-.5h1v.9c0,0,.2-.2.3-.3.1-.1.2-.2.4-.3.2,0,.3-.2.5-.2.2,0,.4-.1.7-.1s.2,0,.3,0c.1,0,.2,0,.3,0l-.2,1c-.1,0-.3,0-.6,0s-.4,0-.6.1c-.2,0-.4.2-.5.4-.1.2-.3.3-.3.5,0,.2-.1.4-.1.7v2.9h-1.1ZM643.8,50.2c0,0-.2.2-.3.3s-.3.2-.5.3c-.2.1-.4.2-.7.3-.3,0-.6.1-.9.1s-.8,0-1.2-.2c-.4-.1-.7-.3-.9-.6-.3-.3-.5-.6-.6-.9-.1-.4-.2-.8-.2-1.2s0-.8.2-1.1c.1-.4.3-.7.6-.9.2-.3.5-.5.9-.6.3-.2.7-.2,1.1-.2s.9,0,1.2.3c.3.2.6.4.8.7.2.3.4.7.5,1,.1.4.2.8.2,1.2h-4.4c0,.2,0,.5.2.7.1.2.2.4.4.5.2.2.4.3.6.4.2,0,.4.1.7.1.5,0,.9,0,1.2-.2s.5-.3.7-.5l.6.6ZM642.8,47.7c0-.4-.2-.8-.5-1.1-.3-.3-.7-.5-1.2-.5s-.5,0-.7.1c-.2,0-.4.2-.5.3-.1.1-.3.3-.3.5,0,.2-.1.4-.1.6h3.3ZM650.8,50.3c-.2.3-.5.5-.8.6-.3.1-.7.2-1,.2s-.5,0-.7,0c-.2,0-.4-.2-.6-.3-.2-.1-.3-.3-.5-.5-.1-.2-.2-.5-.2-.8,0-.6.2-1.1.6-1.4.4-.4,1-.5,1.8-.5s.3,0,.4,0c.1,0,.3,0,.4,0,.1,0,.2,0,.3,0,0,0,.2,0,.2,0v-.2c0-.4-.1-.7-.4-.9-.2-.2-.6-.3-1-.3s-.8,0-1,.2c-.2.1-.5.2-.6.3l-.5-.7c0,0,.2-.2.3-.2.1,0,.3-.2.5-.2.2,0,.4-.1.6-.2.2,0,.5,0,.8,0,.7,0,1.3.2,1.7.5.4.3.6.8.6,1.5v3.3c0,.2,0,.4,0,.5h-1v-.7ZM650.7,48.4s0,0-.2,0c0,0-.2,0-.3,0s-.2,0-.4,0-.3,0-.4,0c-.3,0-.6,0-.7.1-.2,0-.3.2-.4.3-.1.1-.2.2-.2.4,0,.1,0,.3,0,.4,0,.3.1.5.3.7.2.2.5.2.9.2s.4,0,.6-.1c.2,0,.4-.2.5-.3.1-.1.3-.3.3-.4s.1-.3.1-.5v-.6ZM653.3,43h1.1v3c0,0,.1-.2.2-.2.1,0,.2-.2.4-.2.1,0,.3-.1.5-.2.2,0,.4,0,.6,0,.4,0,.8,0,1.1.2.3.1.6.3.8.6.2.3.4.6.5.9.1.4.2.7.2,1.1s0,.8-.2,1.2-.4.7-.6.9c-.3.3-.6.5-1,.6-.4.1-.8.2-1.3.2s-.9,0-1.3-.1c-.4,0-.7-.2-.9-.3v-7.8ZM654.3,50.1c.1,0,.2,0,.4.1.2,0,.4,0,.7,0s.6,0,.8-.1c.2-.1.5-.2.6-.4.2-.2.3-.4.4-.6,0-.3.1-.5.1-.8s0-.5,0-.7c0-.2-.2-.4-.3-.6-.1-.2-.3-.3-.5-.4-.2-.1-.4-.2-.7-.2s-.5,0-.7.1c-.2,0-.4.2-.5.4-.1.1-.2.3-.3.5,0,.2,0,.4,0,.6v2.2ZM662.5,51.2c-.4,0-.8,0-1.2-.2-.4-.2-.7-.4-.9-.6-.3-.3-.5-.6-.6-.9-.1-.4-.2-.7-.2-1.2s0-.8.2-1.1c.2-.4.4-.7.6-.9.3-.3.6-.5.9-.6.4-.2.8-.2,1.2-.2s.8,0,1.2.2c.4.2.7.4.9.6s.5.6.6.9c.2.4.2.7.2,1.1s0,.8-.2,1.2c-.1.4-.3.7-.6.9s-.6.5-.9.6c-.4.2-.8.2-1.2.2ZM662.5,50.2c.3,0,.5,0,.8-.2.2-.1.4-.3.6-.5.2-.2.3-.4.4-.6,0-.2.1-.5.1-.8s0-.5-.1-.7c0-.2-.2-.5-.4-.7-.2-.2-.4-.3-.6-.5-.2-.1-.5-.2-.8-.2s-.5,0-.8.2c-.2.1-.4.3-.6.5-.2.2-.3.4-.4.6,0,.2-.1.5-.1.7s0,.5.1.7c0,.2.2.5.4.6.2.2.4.3.6.5.2.1.5.2.8.2ZM666.7,45.4h1.1v3.3c0,.5.1.9.3,1.2.2.2.5.3.9.3s.6,0,.8-.2c.2-.1.4-.3.5-.5.1-.2.2-.4.3-.7,0-.3,0-.5,0-.8v-2.6h1.1v5c0,.2,0,.4,0,.6h-1v-.8c-.1,0-.2.2-.3.3s-.2.2-.4.3c-.2,0-.3.2-.5.2-.2,0-.4,0-.7,0-.7,0-1.3-.2-1.6-.6-.3-.4-.5-1-.5-1.7v-3.3ZM673.7,46.3h-1v-.9h1v-1.8h1.1v1.8h1.6v.9h-1.6v2.7c0,.4,0,.8.2.9.1.2.3.3.6.3s.4,0,.5,0c.1,0,.3-.2.4-.3l.5.7c-.2.2-.5.4-.7.5-.2.1-.5.2-.9.2-.6,0-1-.2-1.3-.5-.3-.3-.4-.8-.4-1.5v-2.9ZM682.7,51.2c-.4,0-.8,0-1.2-.2-.4-.2-.7-.4-.9-.6-.3-.3-.5-.6-.6-.9-.1-.4-.2-.7-.2-1.2s0-.8.2-1.1c.2-.4.4-.7.6-.9.3-.3.6-.5.9-.6.4-.2.8-.2,1.2-.2s.8,0,1.2.2c.4.2.7.4.9.6.3.3.5.6.6.9.2.4.2.7.2,1.1s0,.8-.2,1.2c-.1.4-.3.7-.6.9-.3.3-.6.5-.9.6-.4.2-.8.2-1.2.2ZM682.7,50.2c.3,0,.5,0,.8-.2.2-.1.4-.3.6-.5.2-.2.3-.4.4-.6,0-.2.1-.5.1-.8s0-.5-.1-.7c0-.2-.2-.5-.4-.7-.2-.2-.4-.3-.6-.5-.2-.1-.5-.2-.8-.2s-.5,0-.8.2c-.2.1-.4.3-.6.5-.2.2-.3.4-.4.6,0,.2-.1.5-.1.7s0,.5.1.7c0,.2.2.5.4.6.2.2.4.3.6.5.2.1.5.2.8.2ZM686.8,45.4h1.1v3.3c0,.5.1.9.3,1.2.2.2.5.3.9.3s.6,0,.8-.2c.2-.1.4-.3.5-.5.1-.2.2-.4.3-.7,0-.3,0-.5,0-.8v-2.6h1.1v5c0,.2,0,.4,0,.6h-1v-.8c-.1,0-.2.2-.3.3s-.2.2-.4.3c-.2,0-.3.2-.5.2-.2,0-.4,0-.7,0-.7,0-1.3-.2-1.6-.6-.3-.4-.5-1-.5-1.7v-3.3ZM693.3,51v-5c0-.2,0-.4,0-.5h1v.9c0,0,.2-.2.3-.3.1-.1.2-.2.4-.3.2,0,.3-.2.5-.2.2,0,.4-.1.7-.1s.2,0,.3,0c.1,0,.2,0,.3,0l-.2,1c-.1,0-.3,0-.6,0s-.4,0-.6.1c-.2,0-.4.2-.5.4-.1.2-.3.3-.3.5,0,.2-.1.4-.1.7v2.9h-1.1ZM703.4,50.3c-.2.3-.5.5-.8.6-.3.1-.7.2-1,.2s-.5,0-.7,0c-.2,0-.4-.2-.6-.3-.2-.1-.3-.3-.5-.5-.1-.2-.2-.5-.2-.8,0-.6.2-1.1.6-1.4.4-.4,1-.5,1.8-.5s.3,0,.4,0c.1,0,.3,0,.4,0s.2,0,.3,0c0,0,.2,0,.2,0v-.2c0-.4-.1-.7-.4-.9-.2-.2-.6-.3-1-.3s-.8,0-1,.2c-.2.1-.5.2-.6.3l-.5-.7c0,0,.2-.2.3-.2.1,0,.3-.2.5-.2.2,0,.4-.1.6-.2.2,0,.5,0,.8,0,.7,0,1.3.2,1.7.5.4.3.6.8.6,1.5v3.3c0,.2,0,.4,0,.5h-1v-.7ZM703.4,48.4s0,0-.2,0c0,0-.2,0-.3,0s-.2,0-.4,0-.3,0-.4,0c-.3,0-.6,0-.7.1-.2,0-.3.2-.4.3-.1.1-.2.2-.2.4,0,.1,0,.3,0,.4,0,.3.1.5.3.7.2.2.5.2.9.2s.4,0,.6-.1c.2,0,.4-.2.5-.3.1-.1.3-.3.3-.4,0-.2.1-.3.1-.5v-.6ZM705.1,45.4h1.2l1.2,4.3,1.3-4.3h.9l1.3,4.3,1.2-4.3h1.1l-1.8,5.6h-1.1l-1.3-3.9-1.3,3.9h-1l-1.9-5.6ZM717.8,50.3c-.2.3-.5.5-.8.6-.3.1-.7.2-1,.2s-.5,0-.7,0c-.2,0-.4-.2-.6-.3-.2-.1-.3-.3-.5-.5-.1-.2-.2-.5-.2-.8,0-.6.2-1.1.6-1.4.4-.4,1-.5,1.8-.5s.3,0,.4,0c.1,0,.3,0,.4,0s.2,0,.3,0c0,0,.2,0,.2,0v-.2c0-.4-.1-.7-.4-.9-.2-.2-.6-.3-1-.3s-.8,0-1,.2c-.2.1-.5.2-.6.3l-.5-.7c0,0,.2-.2.3-.2.1,0,.3-.2.5-.2.2,0,.4-.1.6-.2.2,0,.5,0,.8,0,.7,0,1.3.2,1.7.5.4.3.6.8.6,1.5v3.3c0,.2,0,.4,0,.5h-1v-.7ZM717.8,48.4s0,0-.2,0c0,0-.2,0-.3,0s-.2,0-.4,0-.3,0-.4,0c-.3,0-.6,0-.7.1-.2,0-.3.2-.4.3-.1.1-.2.2-.2.4,0,.1,0,.3,0,.4,0,.3.1.5.3.7.2.2.5.2.9.2s.4,0,.6-.1c.2,0,.4-.2.5-.3.1-.1.3-.3.3-.4,0-.2.1-.3.1-.5v-.6ZM720.3,51v-5c0-.2,0-.4,0-.5h1v.9c0,0,.2-.2.3-.3.1-.1.2-.2.4-.3.2,0,.3-.2.5-.2.2,0,.4-.1.7-.1s.2,0,.3,0c.1,0,.2,0,.3,0l-.2,1c-.1,0-.3,0-.6,0s-.4,0-.6.1c-.2,0-.4.2-.5.4-.1.2-.3.3-.3.5,0,.2-.1.4-.1.7v2.9h-1.1ZM728.4,50.3s-.1.1-.2.2c0,0-.2.2-.4.3-.2,0-.3.2-.5.3-.2,0-.4.1-.7.1s-.7,0-1-.2c-.3-.1-.6-.3-.8-.6s-.4-.5-.5-.9c-.1-.4-.2-.8-.2-1.2s0-1,.3-1.4c.2-.4.4-.7.7-.9.3-.2.6-.4.9-.5.3-.1.7-.2.9-.2s.7,0,.9.1.4.2.5.2v-2.7h1.1v7.4c0,.2,0,.4,0,.6h-1.1v-.7ZM728.4,46.7c0,0-.2-.1-.4-.3-.2-.1-.5-.2-.9-.2s-.5,0-.7.1c-.2,0-.4.2-.6.4-.2.2-.3.4-.4.6,0,.3-.1.5-.1.9s0,.5,0,.8c0,.2.2.4.3.6.1.2.3.3.5.4.2,0,.5.1.7.1s.5,0,.7-.2.4-.2.5-.4c.1-.2.2-.3.3-.5,0-.2,0-.4,0-.5v-2ZM731.3,49.6c.2.2.4.4.7.5.3.1.6.2,1,.2s.7,0,.9-.2c.2-.1.4-.3.4-.6s0-.2,0-.3c0,0-.1-.2-.3-.3-.1,0-.3-.1-.5-.2-.2,0-.5-.1-.8-.2-.2,0-.4-.1-.6-.2-.2,0-.4-.2-.6-.3-.2-.1-.3-.3-.4-.5-.1-.2-.2-.4-.2-.7s0-.5.2-.7c.1-.2.3-.4.5-.5.2-.1.4-.3.7-.3.3,0,.5-.1.8-.1.5,0,.9,0,1.2.2.3.1.6.3.9.5l-.6.7c-.2-.2-.4-.3-.6-.4-.2-.1-.5-.2-.9-.2s-.6,0-.8.2-.3.3-.3.6.1.4.4.5c.3.1.6.2,1.1.3.3,0,.5.1.7.2.2,0,.4.2.6.3.2.1.3.3.4.5.1.2.2.4.2.7s0,.5-.2.7c-.1.2-.3.4-.5.5-.2.1-.5.3-.7.3-.3,0-.6.1-.9.1-1.1,0-1.8-.3-2.4-.9l.7-.7ZM736.4,49.7h1.4v1.3h-1.4v-1.3ZM741.7,43h1.2v8h-1.2v-8ZM744.9,49.6c.2.2.4.4.7.5.3.1.6.2,1,.2s.7,0,.9-.2c.2-.1.4-.3.4-.6s0-.2,0-.3c0,0-.1-.2-.3-.3-.1,0-.3-.1-.5-.2-.2,0-.5-.1-.8-.2-.2,0-.4-.1-.6-.2-.2,0-.4-.2-.6-.3-.2-.1-.3-.3-.4-.5-.1-.2-.2-.4-.2-.7s0-.5.2-.7c.1-.2.3-.4.5-.5.2-.1.4-.3.7-.3.3,0,.5-.1.8-.1.5,0,.9,0,1.2.2.3.1.6.3.9.5l-.6.7c-.2-.2-.4-.3-.6-.4-.2-.1-.5-.2-.9-.2s-.6,0-.8.2-.3.3-.3.6.1.4.4.5c.3.1.6.2,1.1.3.3,0,.5.1.7.2.2,0,.4.2.6.3.2.1.3.3.4.5.1.2.2.4.2.7s0,.5-.2.7c-.1.2-.3.4-.5.5s-.5.3-.7.3c-.3,0-.6.1-.9.1-1.1,0-1.8-.3-2.4-.9l.7-.7ZM750.5,49.6c.2.2.4.4.7.5.3.1.6.2,1,.2s.7,0,.9-.2c.2-.1.4-.3.4-.6s0-.2,0-.3c0,0-.1-.2-.3-.3-.1,0-.3-.1-.5-.2-.2,0-.5-.1-.8-.2-.2,0-.4-.1-.6-.2-.2,0-.4-.2-.6-.3-.2-.1-.3-.3-.4-.5-.1-.2-.2-.4-.2-.7s0-.5.2-.7c.1-.2.3-.4.5-.5.2-.1.4-.3.7-.3.3,0,.5-.1.8-.1.5,0,.9,0,1.2.2.3.1.6.3.9.5l-.6.7c-.2-.2-.4-.3-.6-.4-.2-.1-.5-.2-.9-.2s-.6,0-.8.2-.3.3-.3.6.1.4.4.5c.3.1.6.2,1.1.3.3,0,.5.1.7.2.2,0,.4.2.6.3.2.1.3.3.4.5.1.2.2.4.2.7s0,.5-.2.7c-.1.2-.3.4-.5.5s-.5.3-.7.3c-.3,0-.6.1-.9.1-1.1,0-1.8-.3-2.4-.9l.7-.7ZM755.8,45.4h1.1v3.3c0,.5.1.9.3,1.2.2.2.5.3.9.3s.6,0,.8-.2c.2-.1.4-.3.5-.5.1-.2.2-.4.3-.7,0-.3,0-.5,0-.8v-2.6h1.1v5c0,.2,0,.4,0,.6h-1v-.8c-.1,0-.2.2-.3.3s-.2.2-.4.3c-.2,0-.3.2-.5.2-.2,0-.4,0-.7,0-.7,0-1.3-.2-1.6-.6-.3-.4-.5-1-.5-1.7v-3.3ZM767.4,50.2c0,0-.2.2-.3.3s-.3.2-.5.3c-.2.1-.4.2-.7.3-.3,0-.6.1-.9.1s-.8,0-1.2-.2c-.4-.1-.7-.3-.9-.6-.3-.3-.5-.6-.6-.9-.1-.4-.2-.8-.2-1.2s0-.8.2-1.1c.1-.4.3-.7.6-.9.2-.3.5-.5.9-.6.3-.2.7-.2,1.1-.2s.9,0,1.2.3c.3.2.6.4.8.7.2.3.4.7.5,1,.1.4.2.8.2,1.2h-4.4c0,.2,0,.5.2.7.1.2.2.4.4.5.2.2.4.3.6.4s.4.1.7.1c.5,0,.9,0,1.2-.2s.5-.3.7-.5l.6.6ZM766.5,47.7c0-.4-.2-.8-.5-1.1-.3-.3-.7-.5-1.2-.5s-.5,0-.7.1c-.2,0-.4.2-.5.3-.1.1-.3.3-.3.5,0,.2-.1.4-.1.6h3.3ZM772.8,50.3s-.1.1-.2.2c0,0-.2.2-.4.3-.2,0-.3.2-.5.3-.2,0-.4.1-.7.1s-.7,0-1-.2c-.3-.1-.6-.3-.8-.6s-.4-.5-.5-.9c-.1-.4-.2-.8-.2-1.2s0-1,.3-1.4c.2-.4.4-.7.7-.9.3-.2.6-.4.9-.5.3-.1.7-.2.9-.2s.7,0,.9.1.4.2.5.2v-2.7h1.1v7.4c0,.2,0,.4,0,.6h-1.1v-.7ZM772.8,46.7c0,0-.2-.1-.4-.3-.2-.1-.5-.2-.9-.2s-.5,0-.7.1c-.2,0-.4.2-.6.4-.2.2-.3.4-.4.6,0,.3-.1.5-.1.9s0,.5,0,.8c0,.2.2.4.3.6.1.2.3.3.5.4.2,0,.5.1.7.1s.5,0,.7-.2c.2-.1.4-.2.5-.4.1-.2.2-.3.3-.5,0-.2,0-.4,0-.5v-2ZM777.5,43h1.1v3c0,0,.1-.2.2-.2.1,0,.2-.2.4-.2.1,0,.3-.1.5-.2.2,0,.4,0,.6,0,.4,0,.8,0,1.1.2.3.1.6.3.8.6.2.3.4.6.5.9.1.4.2.7.2,1.1s0,.8-.2,1.2-.4.7-.6.9c-.3.3-.6.5-1,.6-.4.1-.8.2-1.3.2s-.9,0-1.3-.1c-.4,0-.7-.2-.9-.3v-7.8ZM778.6,50.1c.1,0,.2,0,.4.1.2,0,.4,0,.7,0s.6,0,.8-.1c.2-.1.5-.2.6-.4.2-.2.3-.4.4-.6,0-.3.1-.5.1-.8s0-.5,0-.7c0-.2-.2-.4-.3-.6-.1-.2-.3-.3-.5-.4-.2-.1-.4-.2-.7-.2s-.5,0-.7.1c-.2,0-.4.2-.5.4-.1.1-.2.3-.3.5,0,.2,0,.4,0,.6v2.2ZM784.1,52.4c0,0,.2.1.3.2s.2,0,.4,0,.2,0,.3,0c0,0,.2-.1.3-.3,0-.1.2-.3.2-.4,0-.2.2-.3.2-.6v-.4c.1,0-2.4-5.5-2.4-5.5h1.2l1.8,4.2,1.6-4.2h1.2l-2.2,5.4c-.1.3-.2.5-.3.8-.1.3-.2.6-.4.9-.2.3-.4.5-.6.7-.2.2-.5.3-.9.3s-.5,0-.7-.1c-.2,0-.4-.2-.5-.3l.5-.8ZM792.5,43h1.2v3.3h4.4v-3.3h1.2v8h-1.2v-3.6h-4.4v3.6h-1.2v-8ZM803.5,51.2c-.4,0-.8,0-1.2-.2-.4-.2-.7-.4-.9-.6-.3-.3-.5-.6-.6-.9-.1-.4-.2-.7-.2-1.2s0-.8.2-1.1c.2-.4.4-.7.6-.9.3-.3.6-.5.9-.6.4-.2.8-.2,1.2-.2s.8,0,1.2.2c.4.2.7.4.9.6.3.3.5.6.6.9.2.4.2.7.2,1.1s0,.8-.2,1.2c-.1.4-.3.7-.6.9-.3.3-.6.5-.9.6-.4.2-.8.2-1.2.2ZM803.5,50.2c.3,0,.5,0,.8-.2.2-.1.4-.3.6-.5.2-.2.3-.4.4-.6,0-.2.1-.5.1-.8s0-.5-.1-.7c0-.2-.2-.5-.4-.7-.2-.2-.4-.3-.6-.5-.2-.1-.5-.2-.8-.2s-.5,0-.8.2c-.2.1-.4.3-.6.5-.2.2-.3.4-.4.6,0,.2-.1.5-.1.7s0,.5.1.7c0,.2.2.5.4.6.2.2.4.3.6.5.2.1.5.2.8.2ZM808,49.6c.2.2.4.4.7.5.3.1.6.2,1,.2s.7,0,.9-.2c.2-.1.4-.3.4-.6s0-.2,0-.3c0,0-.1-.2-.3-.3-.1,0-.3-.1-.5-.2-.2,0-.5-.1-.8-.2-.2,0-.4-.1-.6-.2-.2,0-.4-.2-.6-.3-.2-.1-.3-.3-.4-.5-.1-.2-.2-.4-.2-.7s0-.5.2-.7c.1-.2.3-.4.5-.5.2-.1.4-.3.7-.3.3,0,.5-.1.8-.1.5,0,.9,0,1.2.2.3.1.6.3.9.5l-.6.7c-.2-.2-.4-.3-.6-.4-.2-.1-.5-.2-.9-.2s-.6,0-.8.2-.3.3-.3.6.1.4.4.5c.3.1.6.2,1.1.3.3,0,.5.1.7.2.2,0,.4.2.6.3.2.1.3.3.4.5.1.2.2.4.2.7s0,.5-.2.7c-.1.2-.3.4-.5.5s-.5.3-.7.3c-.3,0-.6.1-.9.1-1.1,0-1.8-.3-2.4-.9l.7-.7ZM813.8,46.3h-1v-.9h1v-1.8h1.1v1.8h1.6v.9h-1.6v2.7c0,.4,0,.8.2.9.1.2.3.3.6.3s.4,0,.5,0c.1,0,.3-.2.4-.3l.5.7c-.2.2-.5.4-.7.5-.2.1-.5.2-.9.2-.6,0-1-.2-1.3-.5-.3-.3-.4-.8-.4-1.5v-2.9ZM817.7,47.1h3.5v1h-3.5v-1ZM823,43h2.5c.5,0,1,0,1.3.2.4.2.6.3.9.6.2.2.4.5.4.8,0,.3.1.6.1.8,0,.4,0,.8-.2,1.1-.1.3-.3.6-.6.8-.2.2-.5.4-.9.5-.3.1-.7.2-1.1.2h-1.5v3.1h-1.1v-8ZM825.6,46.9c.5,0,.9-.1,1.1-.4.3-.3.4-.6.4-1.1s-.1-.8-.4-1.1c-.3-.3-.6-.4-1.1-.4h-1.4v2.9h1.4ZM829.4,43h1.1v8h-1.1v-8ZM832,45.4h1.1v3.3c0,.5.1.9.3,1.2.2.2.5.3.9.3s.6,0,.8-.2c.2-.1.4-.3.5-.5.1-.2.2-.4.3-.7,0-.3,0-.5,0-.8v-2.6h1.1v5c0,.2,0,.4,0,.6h-1v-.8c-.1,0-.2.2-.3.3s-.2.2-.4.3c-.2,0-.3.2-.5.2-.2,0-.4,0-.7,0-.7,0-1.3-.2-1.6-.6-.3-.4-.5-1-.5-1.7v-3.3ZM838.9,49.6c.2.2.4.4.7.5.3.1.6.2,1,.2s.7,0,.9-.2c.2-.1.4-.3.4-.6s0-.2,0-.3c0,0-.1-.2-.3-.3-.1,0-.3-.1-.5-.2-.2,0-.5-.1-.8-.2-.2,0-.4-.1-.6-.2-.2,0-.4-.2-.6-.3-.2-.1-.3-.3-.4-.5-.1-.2-.2-.4-.2-.7s0-.5.2-.7c.1-.2.3-.4.5-.5.2-.1.4-.3.7-.3.3,0,.5-.1.8-.1.5,0,.9,0,1.2.2.3.1.6.3.9.5l-.6.7c-.2-.2-.4-.3-.6-.4-.2-.1-.5-.2-.9-.2s-.6,0-.8.2c-.2.1-.3.3-.3.6s.1.4.4.5c.3.1.6.2,1.1.3.3,0,.5.1.7.2.2,0,.4.2.6.3.2.1.3.3.4.5.1.2.2.4.2.7s0,.5-.2.7c-.1.2-.3.4-.5.5s-.5.3-.7.3c-.3,0-.6.1-.9.1-1.1,0-1.8-.3-2.4-.9l.7-.7ZM846.5,43h2.5c.5,0,1,0,1.3.2.4.2.6.3.9.6.2.2.4.5.4.8,0,.3.1.6.1.8,0,.4,0,.8-.2,1.1-.1.3-.3.6-.6.8-.2.2-.5.4-.9.5-.3.1-.7.2-1.1.2h-1.5v3.1h-1.1v-8ZM849.1,46.9c.5,0,.9-.1,1.1-.4.3-.3.4-.6.4-1.1s-.1-.8-.4-1.1c-.3-.3-.6-.4-1.1-.4h-1.4v2.9h1.4ZM853.6,46.3h-1v-.9h1v-1.8h1.1v1.8h1.6v.9h-1.6v2.7c0,.4,0,.8.2.9.1.2.3.3.6.3s.4,0,.5,0c.1,0,.3-.2.4-.3l.5.7c-.2.2-.5.4-.7.5-.2.1-.5.2-.9.2-.6,0-1-.2-1.3-.5-.3-.3-.4-.8-.4-1.5v-2.9ZM857.6,52.4c0,0,.2.1.3.2s.2,0,.4,0,.2,0,.3,0c0,0,.2-.1.3-.3,0-.1.2-.3.2-.4,0-.2.2-.3.2-.6v-.4c.1,0-2.4-5.5-2.4-5.5h1.2l1.8,4.2,1.6-4.2h1.2l-2.2,5.4c-.1.3-.2.5-.3.8-.1.3-.2.6-.4.9-.2.3-.4.5-.6.7-.2.2-.5.3-.9.3s-.5,0-.7-.1c-.2,0-.4-.2-.5-.3l.5-.8ZM865.9,43h1.2v7h4.2v1h-5.3v-8ZM872.3,43.2h1.2v1.2h-1.2v-1.2ZM872.4,45.4h1.1v5.6h-1.1v-5.6ZM875,51v-5c0-.2,0-.4,0-.6h1v.8c0,0,.2-.2.3-.3.1-.1.2-.2.4-.3s.3-.2.5-.2c.2,0,.4,0,.7,0,.4,0,.8,0,1.1.3.3.2.5.4.7.7.2-.3.5-.5.8-.7.3-.2.7-.3,1.2-.3.7,0,1.3.2,1.6.6.3.4.5,1,.5,1.7v3.3h-1.1v-3.3c0-.5-.1-.9-.3-1.1-.2-.2-.5-.4-.9-.4s-.4,0-.6.1c-.2,0-.3.2-.5.4-.1.2-.2.3-.3.5,0,.2-.1.4-.1.6v3.1h-1.1v-3.3c0-.5-.1-.9-.3-1.1-.2-.2-.5-.4-.9-.4s-.5,0-.7.2c-.2.1-.4.3-.5.5-.1.2-.2.4-.3.7,0,.3,0,.5,0,.8v2.6h-1.1ZM885.1,43.2h1.2v1.2h-1.2v-1.2ZM885.2,45.4h1.1v5.6h-1.1v-5.6ZM888.3,46.3h-1v-.9h1v-1.8h1.1v1.8h1.6v.9h-1.6v2.7c0,.4,0,.8.2.9.1.2.3.3.6.3s.4,0,.5,0c.1,0,.3-.2.4-.3l.5.7c-.2.2-.5.4-.7.5-.2.1-.5.2-.9.2-.6,0-1-.2-1.3-.5-.3-.3-.4-.8-.4-1.5v-2.9ZM897.5,50.2c0,0-.2.2-.3.3s-.3.2-.5.3c-.2.1-.4.2-.7.3-.3,0-.6.1-.9.1s-.8,0-1.2-.2c-.4-.1-.7-.3-.9-.6-.3-.3-.5-.6-.6-.9-.1-.4-.2-.8-.2-1.2s0-.8.2-1.1c.1-.4.3-.7.6-.9.2-.3.5-.5.9-.6.3-.2.7-.2,1.1-.2s.9,0,1.2.3c.3.2.6.4.8.7.2.3.4.7.5,1,.1.4.2.8.2,1.2h-4.4c0,.2,0,.5.2.7.1.2.2.4.4.5.2.2.4.3.6.4s.4.1.7.1c.5,0,.9,0,1.2-.2.3-.2.5-.3.7-.5l.6.6ZM896.6,47.7c0-.4-.2-.8-.5-1.1-.3-.3-.7-.5-1.2-.5s-.5,0-.7.1c-.2,0-.4.2-.5.3-.1.1-.3.3-.3.5,0,.2-.1.4-.1.6h3.3ZM902.9,50.3s-.1.1-.2.2c0,0-.2.2-.4.3-.2,0-.3.2-.5.3-.2,0-.4.1-.7.1s-.7,0-1-.2c-.3-.1-.6-.3-.8-.6s-.4-.5-.5-.9c-.1-.4-.2-.8-.2-1.2s0-1,.3-1.4c.2-.4.4-.7.7-.9.3-.2.6-.4.9-.5.3-.1.7-.2.9-.2s.7,0,.9.1.4.2.5.2v-2.7h1.1v7.4c0,.2,0,.4,0,.6h-1.1v-.7ZM902.9,46.7c0,0-.2-.1-.4-.3-.2-.1-.5-.2-.9-.2s-.5,0-.7.1c-.2,0-.4.2-.6.4-.2.2-.3.4-.4.6,0,.3-.1.5-.1.9s0,.5,0,.8c0,.2.2.4.3.6.1.2.3.3.5.4.2,0,.5.1.7.1s.5,0,.7-.2.4-.2.5-.4c.1-.2.2-.3.3-.5,0-.2,0-.4,0-.5v-2ZM905.6,49.7h1.4v1.3h-1.4v-1.3ZM20,58.9h2.8v3.2c-.2.1-.3.3-.5.4-.2.1-.4.2-.7.3-.3,0-.5.2-.9.2-.3,0-.7,0-1.1,0-.6,0-1.2-.1-1.7-.3-.5-.2-.9-.5-1.3-.9-.4-.4-.6-.8-.8-1.3-.2-.5-.3-1.1-.3-1.7s0-1.1.3-1.6c.2-.5.5-1,.8-1.3.4-.4.8-.7,1.3-.9.5-.2,1-.3,1.6-.3s.8,0,1.1.2c.3,0,.6.2.9.4.3.2.5.3.6.5.2.2.3.4.4.5l-.8.7c0-.1-.2-.3-.3-.4-.1-.2-.3-.3-.5-.4s-.4-.2-.6-.3c-.2,0-.5-.1-.8-.1-.4,0-.8,0-1.2.3-.4.2-.7.4-.9.7-.2.3-.4.6-.6,1-.1.4-.2.8-.2,1.2s0,.9.2,1.3c.1.4.3.7.6,1,.3.3.6.5.9.6.4.2.7.2,1.2.2s.9,0,1.2-.2c.3-.1.6-.2.8-.4v-1.6h-1.7v-1ZM29.5,62.2c0,0-.2.2-.3.3s-.3.2-.5.3c-.2.1-.4.2-.7.3-.3,0-.6.1-.9.1s-.8,0-1.2-.2c-.4-.1-.7-.3-.9-.6-.3-.3-.5-.6-.6-.9-.1-.4-.2-.8-.2-1.2s0-.8.2-1.1c.1-.4.3-.7.6-.9.2-.3.5-.5.9-.6.3-.2.7-.2,1.1-.2s.9,0,1.2.3c.3.2.6.4.8.7.2.3.4.7.5,1,.1.4.2.8.2,1.2h-4.4c0,.2,0,.5.2.7.1.2.2.4.4.5.2.2.4.3.6.4.2,0,.4.1.7.1.5,0,.9,0,1.2-.2.3-.2.5-.3.7-.5l.6.6ZM28.5,59.7c0-.4-.2-.8-.5-1.1-.3-.3-.7-.5-1.2-.5s-.5,0-.7.1c-.2,0-.4.2-.5.3-.1.1-.3.3-.3.5,0,.2-.1.4-.1.6h3.3ZM30.8,63v-5c0-.2,0-.4,0-.6h1v.8c.1,0,.2-.2.3-.3.1-.1.2-.2.4-.3s.3-.2.5-.2c.2,0,.4,0,.7,0,.7,0,1.3.2,1.6.6s.5,1,.5,1.7v3.3h-1.1v-3.3c0-.5-.1-.9-.3-1.1-.2-.2-.5-.4-.9-.4s-.6,0-.8.2c-.2.1-.4.3-.5.5-.1.2-.2.4-.3.7,0,.3,0,.5,0,.8v2.6h-1.1ZM42.4,62.2c0,0-.2.2-.3.3-.1.1-.3.2-.5.3-.2.1-.4.2-.7.3-.3,0-.6.1-.9.1s-.8,0-1.2-.2-.7-.3-.9-.6-.5-.6-.6-.9c-.1-.4-.2-.8-.2-1.2s0-.8.2-1.1c.1-.4.3-.7.6-.9.2-.3.5-.5.9-.6.3-.2.7-.2,1.1-.2s.9,0,1.2.3c.3.2.6.4.8.7.2.3.4.7.5,1,.1.4.2.8.2,1.2h-4.4c0,.2,0,.5.2.7.1.2.2.4.4.5s.4.3.6.4.4.1.7.1c.5,0,.9,0,1.2-.2s.5-.3.7-.5l.6.6ZM41.5,59.7c0-.4-.2-.8-.5-1.1-.3-.3-.7-.5-1.2-.5s-.5,0-.7.1c-.2,0-.4.2-.5.3s-.3.3-.3.5c0,.2-.1.4-.1.6h3.3ZM43.8,63v-5c0-.2,0-.4,0-.5h1v.9c.1,0,.2-.2.3-.3.1-.1.2-.2.4-.3.2,0,.3-.2.5-.2.2,0,.4-.1.7-.1s.2,0,.3,0c.1,0,.2,0,.3,0l-.2,1c-.1,0-.3,0-.6,0s-.4,0-.6.1c-.2,0-.4.2-.5.4-.1.2-.3.3-.3.5,0,.2-.1.4-.1.7v2.9h-1.1ZM51.3,62.3c-.2.3-.5.5-.8.6-.3.1-.7.2-1,.2s-.5,0-.7,0c-.2,0-.4-.2-.6-.3-.2-.1-.3-.3-.5-.5-.1-.2-.2-.5-.2-.8,0-.6.2-1.1.6-1.4.4-.4,1-.5,1.8-.5s.3,0,.4,0c.1,0,.3,0,.4,0s.2,0,.3,0c0,0,.2,0,.2,0v-.2c0-.4-.1-.7-.4-.9-.2-.2-.6-.3-1-.3s-.8,0-1,.2c-.2.1-.5.2-.6.3l-.5-.7c0,0,.2-.2.3-.2.1,0,.3-.2.5-.2.2,0,.4-.1.6-.2.2,0,.5,0,.8,0,.7,0,1.3.2,1.7.5.4.3.6.8.6,1.5v3.3c0,.2,0,.4,0,.5h-1v-.7ZM51.3,60.4s0,0-.2,0c0,0-.2,0-.3,0-.1,0-.2,0-.4,0s-.3,0-.4,0c-.3,0-.6,0-.7.1-.2,0-.3.2-.4.3s-.2.2-.2.4c0,.1,0,.3,0,.4,0,.3.1.5.3.7.2.2.5.2.9.2s.4,0,.6-.1c.2,0,.4-.2.5-.3.1-.1.3-.3.3-.4,0-.2.1-.3.1-.5v-.6ZM53.8,55h1.1v8h-1.1v-8ZM62.1,62.3c-.2.3-.5.5-.8.6-.3.1-.7.2-1,.2s-.5,0-.7,0c-.2,0-.4-.2-.6-.3-.2-.1-.3-.3-.5-.5-.1-.2-.2-.5-.2-.8,0-.6.2-1.1.6-1.4.4-.4,1-.5,1.8-.5s.3,0,.4,0c.1,0,.3,0,.4,0,.1,0,.2,0,.3,0,0,0,.2,0,.2,0v-.2c0-.4-.1-.7-.4-.9-.2-.2-.6-.3-1-.3s-.8,0-1,.2c-.2.1-.5.2-.6.3l-.5-.7c0,0,.2-.2.3-.2.1,0,.3-.2.5-.2.2,0,.4-.1.6-.2.2,0,.5,0,.8,0,.7,0,1.3.2,1.7.5.4.3.6.8.6,1.5v3.3c0,.2,0,.4,0,.5h-1v-.7ZM62.1,60.4s0,0-.2,0c0,0-.2,0-.3,0-.1,0-.2,0-.4,0-.1,0-.3,0-.4,0-.3,0-.6,0-.7.1-.2,0-.3.2-.4.3s-.2.2-.2.4c0,.1,0,.3,0,.4,0,.3.1.5.3.7.2.2.5.2.9.2s.4,0,.6-.1c.2,0,.4-.2.5-.3.1-.1.3-.3.3-.4s.1-.3.1-.5v-.6ZM68.6,62.3s-.1.1-.2.2c0,0-.2.2-.4.3-.2,0-.3.2-.5.3-.2,0-.4.1-.7.1s-.7,0-1-.2c-.3-.1-.6-.3-.8-.6s-.4-.5-.5-.9c-.1-.4-.2-.8-.2-1.2s0-1,.3-1.4c.2-.4.4-.7.7-.9.3-.2.6-.4.9-.5.3-.1.7-.2.9-.2s.7,0,.9.1.4.2.5.2v-2.7h1.1v7.4c0,.2,0,.4,0,.6h-1.1v-.7ZM68.6,58.7c0,0-.2-.1-.4-.3-.2-.1-.5-.2-.9-.2s-.5,0-.7.1c-.2,0-.4.2-.6.4-.2.2-.3.4-.4.6,0,.3-.1.5-.1.9s0,.5,0,.8c0,.2.2.4.3.6.1.2.3.3.5.4.2,0,.5.1.7.1s.5,0,.7-.2.4-.2.5-.4c.1-.2.2-.3.3-.5,0-.2,0-.4,0-.5v-2ZM70.3,57.4h1.2l1.7,4.4,1.7-4.4h1.2l-2.4,5.6h-1.1l-2.4-5.6ZM76.9,55.2h1.2v1.2h-1.2v-1.2ZM77,57.4h1.1v5.6h-1.1v-5.6ZM84.5,62.2c-.2.3-.6.5-.9.7-.4.2-.8.3-1.3.3s-.9,0-1.2-.2c-.4-.2-.7-.4-.9-.6-.2-.3-.4-.6-.6-.9-.1-.4-.2-.8-.2-1.2s0-.8.2-1.2c.1-.4.3-.7.6-.9.3-.3.6-.5.9-.6.4-.2.8-.2,1.2-.2s.9,0,1.2.3.7.4.9.7l-.7.7c-.2-.2-.4-.4-.6-.5-.2-.1-.5-.2-.9-.2s-.5,0-.8.2c-.2.1-.4.3-.6.4-.2.2-.3.4-.4.6,0,.2-.1.5-.1.8s0,.5.1.8c0,.2.2.5.4.6.2.2.4.3.6.4.2.1.5.2.8.2s.6,0,.9-.2c.3-.1.5-.3.6-.5l.7.7ZM90.6,62.2c0,0-.2.2-.3.3s-.3.2-.5.3c-.2.1-.4.2-.7.3-.3,0-.6.1-.9.1s-.8,0-1.2-.2-.7-.3-.9-.6c-.3-.3-.5-.6-.6-.9-.1-.4-.2-.8-.2-1.2s0-.8.2-1.1c.1-.4.3-.7.6-.9.2-.3.5-.5.9-.6.3-.2.7-.2,1.1-.2s.9,0,1.2.3c.3.2.6.4.8.7.2.3.4.7.5,1,.1.4.2.8.2,1.2h-4.4c0,.2,0,.5.2.7.1.2.2.4.4.5.2.2.4.3.6.4s.4.1.7.1c.5,0,.9,0,1.2-.2s.5-.3.7-.5l.6.6ZM89.6,59.7c0-.4-.2-.8-.5-1.1-.3-.3-.7-.5-1.2-.5s-.5,0-.7.1c-.2,0-.4.2-.5.3-.1.1-.3.3-.3.5,0,.2-.1.4-.1.6h3.3ZM96.8,63.2c-.4,0-.8,0-1.2-.2-.4-.2-.7-.4-.9-.6-.3-.3-.5-.6-.6-.9-.1-.4-.2-.7-.2-1.2s0-.8.2-1.1c.2-.4.4-.7.6-.9.3-.3.6-.5.9-.6.4-.2.8-.2,1.2-.2s.8,0,1.2.2c.4.2.7.4.9.6s.5.6.6.9c.2.4.2.7.2,1.1s0,.8-.2,1.2c-.1.4-.3.7-.6.9s-.6.5-.9.6c-.4.2-.8.2-1.2.2ZM96.8,62.2c.3,0,.5,0,.8-.2.2-.1.4-.3.6-.5.2-.2.3-.4.4-.6,0-.2.1-.5.1-.8s0-.5-.1-.7c0-.2-.2-.5-.4-.7-.2-.2-.4-.3-.6-.5-.2-.1-.5-.2-.8-.2s-.5,0-.8.2c-.2.1-.4.3-.6.5-.2.2-.3.4-.4.6,0,.2-.1.5-.1.7s0,.5.1.7c0,.2.2.5.4.6.2.2.4.3.6.5.2.1.5.2.8.2ZM101,63v-5c0-.2,0-.4,0-.6h1v.8c.1,0,.2-.2.3-.3.1-.1.2-.2.4-.3.2,0,.3-.2.5-.2.2,0,.4,0,.7,0,.7,0,1.3.2,1.6.6.4.4.5,1,.5,1.7v3.3h-1.1v-3.3c0-.5-.1-.9-.3-1.1-.2-.2-.5-.4-.9-.4s-.6,0-.8.2c-.2.1-.4.3-.5.5-.1.2-.2.4-.3.7,0,.3,0,.5,0,.8v2.6h-1.1ZM107.5,55h1.1v8h-1.1v-8ZM109.9,64.4c0,0,.2.1.3.2.1,0,.2,0,.4,0s.2,0,.3,0c0,0,.2-.1.3-.3,0-.1.2-.3.2-.4,0-.2.2-.3.2-.6v-.4c.1,0-2.4-5.5-2.4-5.5h1.2l1.8,4.2,1.6-4.2h1.2l-2.2,5.4c-.1.3-.2.5-.3.8-.1.3-.2.6-.4.9-.2.3-.4.5-.6.7-.2.2-.5.3-.9.3s-.5,0-.7-.1c-.2,0-.4-.2-.5-.3l.5-.8ZM115,61.7h1.4v1.3h-1.4v-1.3ZM127.1,61.6c0,.1-.2.3-.4.5-.2.2-.4.4-.7.5-.3.2-.6.3-.9.4-.3.1-.7.2-1.1.2-.6,0-1.1-.1-1.6-.3s-.9-.5-1.3-.9c-.4-.4-.6-.8-.8-1.3-.2-.5-.3-1.1-.3-1.7s0-1.1.3-1.6c.2-.5.5-1,.8-1.3.4-.4.8-.7,1.3-.9.5-.2,1-.3,1.6-.3s.8,0,1.1.2.6.2.9.4c.3.2.5.3.6.5.2.2.3.4.4.5l-.8.7c0-.1-.2-.3-.3-.4-.1-.2-.3-.3-.5-.4s-.4-.2-.6-.3c-.2,0-.5-.1-.8-.1s-.8,0-1.2.3c-.3.2-.6.4-.9.7-.2.3-.4.6-.6,1-.1.4-.2.8-.2,1.2s0,.8.2,1.2c.1.4.3.7.6,1,.2.3.5.5.9.7s.7.2,1.2.2.7,0,.9-.1c.3,0,.5-.2.7-.3.2-.1.3-.3.4-.4.1-.1.2-.2.3-.3l.8.7ZM130.7,63.2c-.4,0-.8,0-1.2-.2-.4-.2-.7-.4-.9-.6-.3-.3-.5-.6-.6-.9-.1-.4-.2-.7-.2-1.2s0-.8.2-1.1c.2-.4.4-.7.6-.9.3-.3.6-.5.9-.6.4-.2.8-.2,1.2-.2s.8,0,1.2.2c.4.2.7.4.9.6.3.3.5.6.6.9.2.4.2.7.2,1.1s0,.8-.2,1.2c-.1.4-.3.7-.6.9-.3.3-.6.5-.9.6-.4.2-.8.2-1.2.2ZM130.7,62.2c.3,0,.5,0,.8-.2.2-.1.4-.3.6-.5.2-.2.3-.4.4-.6,0-.2.1-.5.1-.8s0-.5-.1-.7c0-.2-.2-.5-.4-.7-.2-.2-.4-.3-.6-.5-.2-.1-.5-.2-.8-.2s-.5,0-.8.2c-.2.1-.4.3-.6.5-.2.2-.3.4-.4.6,0,.2-.1.5-.1.7s0,.5.1.7c0,.2.2.5.4.6.2.2.4.3.6.5.2.1.5.2.8.2ZM134.9,63v-5c0-.2,0-.4,0-.6h1v.8c.1,0,.2-.2.3-.3.1-.1.2-.2.4-.3.2,0,.3-.2.5-.2.2,0,.4,0,.7,0,.7,0,1.3.2,1.6.6.4.4.5,1,.5,1.7v3.3h-1.1v-3.3c0-.5-.1-.9-.3-1.1-.2-.2-.5-.4-.9-.4s-.6,0-.8.2c-.2.1-.4.3-.5.5-.1.2-.2.4-.3.7,0,.3,0,.5,0,.8v2.6h-1.1ZM141.8,61.6c.2.2.4.4.7.5s.6.2,1,.2.7,0,.9-.2c.2-.1.4-.3.4-.6s0-.2,0-.3c0,0-.1-.2-.3-.3-.1,0-.3-.1-.5-.2-.2,0-.5-.1-.8-.2-.2,0-.4-.1-.6-.2-.2,0-.4-.2-.6-.3-.2-.1-.3-.3-.4-.5-.1-.2-.2-.4-.2-.7s0-.5.2-.7c.1-.2.3-.4.5-.5.2-.1.4-.3.7-.3.3,0,.5-.1.8-.1.5,0,.9,0,1.2.2.3.1.6.3.9.5l-.6.7c-.2-.2-.4-.3-.6-.4-.2-.1-.5-.2-.9-.2s-.6,0-.8.2c-.2.1-.3.3-.3.6s.1.4.4.5c.3.1.6.2,1.1.3.3,0,.5.1.7.2.2,0,.4.2.6.3.2.1.3.3.4.5.1.2.2.4.2.7s0,.5-.2.7c-.1.2-.3.4-.5.5-.2.1-.5.3-.7.3-.3,0-.6.1-.9.1-1.1,0-1.8-.3-2.4-.9l.7-.7ZM147.1,55.2h1.2v1.2h-1.2v-1.2ZM147.1,57.4h1.1v5.6h-1.1v-5.6ZM153.8,62.3s-.1.1-.2.2c0,0-.2.2-.4.3-.2,0-.3.2-.5.3-.2,0-.4.1-.7.1s-.7,0-1-.2c-.3-.1-.6-.3-.8-.6s-.4-.5-.5-.9c-.1-.4-.2-.8-.2-1.2s0-1,.3-1.4c.2-.4.4-.7.7-.9.3-.2.6-.4.9-.5.3-.1.7-.2.9-.2s.7,0,.9.1c.2,0,.4.2.5.2v-2.7h1.1v7.4c0,.2,0,.4,0,.6h-1.1v-.7ZM153.8,58.7c0,0-.2-.1-.4-.3-.2-.1-.5-.2-.9-.2s-.5,0-.7.1c-.2,0-.4.2-.6.4-.2.2-.3.4-.4.6,0,.3-.1.5-.1.9s0,.5,0,.8c0,.2.2.4.3.6.1.2.3.3.5.4.2,0,.5.1.7.1s.5,0,.7-.2c.2-.1.4-.2.5-.4.1-.2.2-.3.3-.5,0-.2,0-.4,0-.5v-2ZM161.4,62.2c0,0-.2.2-.3.3-.1.1-.3.2-.5.3-.2.1-.4.2-.7.3-.3,0-.6.1-.9.1s-.8,0-1.2-.2-.7-.3-.9-.6c-.3-.3-.5-.6-.6-.9-.1-.4-.2-.8-.2-1.2s0-.8.2-1.1c.1-.4.3-.7.6-.9.2-.3.5-.5.9-.6.3-.2.7-.2,1.1-.2s.9,0,1.2.3c.3.2.6.4.8.7.2.3.4.7.5,1,.1.4.2.8.2,1.2h-4.4c0,.2,0,.5.2.7.1.2.2.4.4.5.2.2.4.3.6.4s.4.1.7.1c.5,0,.9,0,1.2-.2s.5-.3.7-.5l.6.6ZM160.5,59.7c0-.4-.2-.8-.5-1.1-.3-.3-.7-.5-1.2-.5s-.5,0-.7.1c-.2,0-.4.2-.5.3-.1.1-.3.3-.3.5,0,.2-.1.4-.1.6h3.3ZM162.8,63v-5c0-.2,0-.4,0-.5h1v.9c0,0,.2-.2.3-.3.1-.1.2-.2.4-.3.2,0,.3-.2.5-.2.2,0,.4-.1.7-.1s.2,0,.3,0c.1,0,.2,0,.3,0l-.2,1c-.1,0-.3,0-.6,0s-.4,0-.6.1c-.2,0-.4.2-.5.4-.1.2-.3.3-.3.5,0,.2-.1.4-.1.7v2.9h-1.1ZM169.8,58.3h-1v-.9h1v-1.8h1.1v1.8h1.6v.9h-1.6v2.7c0,.4,0,.8.2.9.1.2.3.3.6.3s.4,0,.5,0c.1,0,.3-.2.4-.3l.5.7c-.2.2-.5.4-.7.5-.2.1-.5.2-.9.2-.6,0-1-.2-1.3-.5-.3-.3-.4-.8-.4-1.5v-2.9ZM173.9,55h1.1v3.3c0,0,.2-.2.3-.3.1-.1.2-.2.4-.3.2,0,.3-.2.5-.2.2,0,.4,0,.7,0,.7,0,1.3.2,1.6.6.4.4.5,1,.5,1.7v3.3h-1.1v-3.3c0-.5-.1-.9-.3-1.1-.2-.2-.5-.4-.9-.4s-.6,0-.8.2c-.2.1-.4.3-.5.5-.1.2-.2.4-.3.7,0,.3,0,.5,0,.8v2.6h-1.1v-8ZM185.5,62.2c0,0-.2.2-.3.3-.1.1-.3.2-.5.3-.2.1-.4.2-.7.3-.3,0-.6.1-.9.1s-.8,0-1.2-.2-.7-.3-.9-.6-.5-.6-.6-.9c-.1-.4-.2-.8-.2-1.2s0-.8.2-1.1c.1-.4.3-.7.6-.9.2-.3.5-.5.9-.6.3-.2.7-.2,1.1-.2s.9,0,1.2.3c.3.2.6.4.8.7.2.3.4.7.5,1,.1.4.2.8.2,1.2h-4.4c0,.2,0,.5.2.7.1.2.2.4.4.5s.4.3.6.4c.2,0,.4.1.7.1.5,0,.9,0,1.2-.2s.5-.3.7-.5l.6.6ZM184.6,59.7c0-.4-.2-.8-.5-1.1-.3-.3-.7-.5-1.2-.5s-.5,0-.7.1c-.2,0-.4.2-.5.3-.1.1-.3.3-.3.5,0,.2-.1.4-.1.6h3.3ZM189.1,63v-5c0-.2,0-.4,0-.5h1v.9c.1,0,.2-.2.3-.3.1-.1.2-.2.4-.3.2,0,.3-.2.5-.2.2,0,.4-.1.7-.1s.2,0,.3,0c.1,0,.2,0,.3,0l-.2,1c-.1,0-.3,0-.6,0s-.4,0-.6.1c-.2,0-.4.2-.5.4-.1.2-.3.3-.3.5,0,.2-.1.4-.1.7v2.9h-1.1ZM198.2,62.2c0,0-.2.2-.3.3-.1.1-.3.2-.5.3-.2.1-.4.2-.7.3-.3,0-.6.1-.9.1s-.8,0-1.2-.2-.7-.3-.9-.6-.5-.6-.6-.9c-.1-.4-.2-.8-.2-1.2s0-.8.2-1.1c.1-.4.3-.7.6-.9.2-.3.5-.5.9-.6.3-.2.7-.2,1.1-.2s.9,0,1.2.3c.3.2.6.4.8.7.2.3.4.7.5,1,.1.4.2.8.2,1.2h-4.4c0,.2,0,.5.2.7.1.2.2.4.4.5s.4.3.6.4c.2,0,.4.1.7.1.5,0,.9,0,1.2-.2s.5-.3.7-.5l.6.6ZM197.2,59.7c0-.4-.2-.8-.5-1.1-.3-.3-.7-.5-1.2-.5s-.5,0-.7.1c-.2,0-.4.2-.5.3-.1.1-.3.3-.3.5,0,.2-.1.4-.1.6h3.3ZM199.6,55h1.1v8h-1.1v-8ZM207.2,62.2c0,0-.2.2-.3.3-.1.1-.3.2-.5.3-.2.1-.4.2-.7.3-.3,0-.6.1-.9.1s-.8,0-1.2-.2-.7-.3-.9-.6-.5-.6-.6-.9c-.1-.4-.2-.8-.2-1.2s0-.8.2-1.1c.1-.4.3-.7.6-.9.2-.3.5-.5.9-.6.3-.2.7-.2,1.1-.2s.9,0,1.2.3c.3.2.6.4.8.7.2.3.4.7.5,1,.1.4.2.8.2,1.2h-4.4c0,.2,0,.5.2.7.1.2.2.4.4.5s.4.3.6.4c.2,0,.4.1.7.1.5,0,.9,0,1.2-.2s.5-.3.7-.5l.6.6ZM206.2,59.7c0-.4-.2-.8-.5-1.1-.3-.3-.7-.5-1.2-.5s-.5,0-.7.1c-.2,0-.4.2-.5.3-.1.1-.3.3-.3.5,0,.2-.1.4-.1.6h3.3ZM207.6,57.4h1.2l1.7,4.4,1.7-4.4h1.2l-2.4,5.6h-1.1l-2.4-5.6ZM217.6,62.3c-.2.3-.5.5-.8.6-.3.1-.7.2-1,.2s-.5,0-.7,0c-.2,0-.4-.2-.6-.3-.2-.1-.3-.3-.5-.5-.1-.2-.2-.5-.2-.8,0-.6.2-1.1.6-1.4.4-.4,1-.5,1.8-.5s.3,0,.4,0c.1,0,.3,0,.4,0,.1,0,.2,0,.3,0,0,0,.2,0,.2,0v-.2c0-.4-.1-.7-.4-.9-.2-.2-.6-.3-1-.3s-.8,0-1,.2c-.2.1-.5.2-.6.3l-.5-.7c0,0,.2-.2.3-.2.1,0,.3-.2.5-.2.2,0,.4-.1.6-.2.2,0,.5,0,.8,0,.7,0,1.3.2,1.7.5.4.3.6.8.6,1.5v3.3c0,.2,0,.4,0,.5h-1v-.7ZM217.6,60.4s0,0-.2,0c0,0-.2,0-.3,0-.1,0-.2,0-.4,0s-.3,0-.4,0c-.3,0-.6,0-.7.1-.2,0-.3.2-.4.3-.1.1-.2.2-.2.4,0,.1,0,.3,0,.4,0,.3.1.5.3.7.2.2.5.2.9.2s.4,0,.6-.1c.2,0,.4-.2.5-.3.1-.1.3-.3.3-.4s.1-.3.1-.5v-.6ZM220.1,63v-5c0-.2,0-.4,0-.6h1v.8c.1,0,.2-.2.3-.3.1-.1.2-.2.4-.3.2,0,.3-.2.5-.2.2,0,.4,0,.7,0,.7,0,1.3.2,1.6.6.4.4.5,1,.5,1.7v3.3h-1.1v-3.3c0-.5-.1-.9-.3-1.1-.2-.2-.5-.4-.9-.4s-.6,0-.8.2c-.2.1-.4.3-.5.5-.1.2-.2.4-.3.7,0,.3,0,.5,0,.8v2.6h-1.1ZM227.1,58.3h-1v-.9h1v-1.8h1.1v1.8h1.6v.9h-1.6v2.7c0,.4,0,.8.2.9.1.2.3.3.6.3s.4,0,.5,0c.1,0,.3-.2.4-.3l.5.7c-.2.2-.5.4-.7.5-.2.1-.5.2-.9.2-.6,0-1-.2-1.3-.5-.3-.3-.4-.8-.4-1.5v-2.9ZM233.6,55h2.5c.5,0,1,0,1.3.2.4.2.6.3.9.6.2.2.4.5.4.8,0,.3.1.6.1.8,0,.4,0,.8-.2,1.1-.1.3-.3.6-.6.8-.2.2-.5.4-.9.5-.3.1-.7.2-1.1.2h-1.5v3.1h-1.1v-8ZM236.1,58.9c.5,0,.9-.1,1.1-.4.3-.3.4-.6.4-1.1s-.1-.8-.4-1.1c-.3-.3-.6-.4-1.1-.4h-1.4v2.9h1.4ZM240.4,55h2.7c.6,0,1.2,0,1.7.2.5.2,1,.4,1.4.7.4.3.7.7.9,1.2.2.5.3,1.1.3,1.8s-.1,1.3-.3,1.8c-.2.5-.5.9-.9,1.2-.4.3-.8.6-1.4.7-.5.2-1.1.2-1.8.2h-2.7v-8ZM243,62c1,0,1.8-.2,2.3-.7.6-.5.8-1.2.8-2.2s-.3-1.7-.8-2.2c-.5-.5-1.3-.8-2.4-.8h-1.5v5.9h1.5ZM249.3,61.1c.1.1.2.3.4.4.1.1.3.2.5.3.2.1.4.2.6.3.2,0,.5,0,.7,0,.5,0,.9-.1,1.2-.4.3-.2.4-.6.4-1s-.2-.8-.5-1c-.3-.2-.8-.4-1.5-.5-.3,0-.7-.2-.9-.3-.3-.1-.5-.3-.7-.5-.2-.2-.4-.4-.5-.7-.1-.3-.2-.5-.2-.9s0-.6.2-.8.3-.5.5-.7c.2-.2.5-.4.8-.5s.7-.2,1.2-.2.7,0,1,.1c.3,0,.5.2.7.3.2.1.4.2.5.4.1.1.2.2.3.3l-.8.7c0,0-.1-.1-.2-.2,0,0-.2-.2-.4-.3-.1,0-.3-.2-.5-.2-.2,0-.4,0-.7,0s-.5,0-.7.1c-.2,0-.3.2-.5.3-.1.1-.2.2-.3.4,0,.1,0,.3,0,.4,0,.2,0,.4.1.5,0,.1.2.3.4.4.2.1.4.2.6.3.2,0,.5.1.8.2.3,0,.6.2.9.3.3.1.5.3.8.5.2.2.4.4.5.7.1.3.2.6.2,1s0,.7-.2.9c-.1.3-.3.5-.6.8-.2.2-.5.4-.9.5-.3.1-.7.2-1.1.2s-.7,0-1-.1c-.3,0-.6-.2-.8-.3-.2-.1-.5-.3-.7-.4-.2-.2-.3-.3-.5-.5l.8-.7ZM261.4,62.3c-.2.3-.5.5-.8.6-.3.1-.7.2-1,.2s-.5,0-.7,0c-.2,0-.4-.2-.6-.3-.2-.1-.3-.3-.5-.5-.1-.2-.2-.5-.2-.8,0-.6.2-1.1.6-1.4.4-.4,1-.5,1.8-.5s.3,0,.4,0c.1,0,.3,0,.4,0,.1,0,.2,0,.3,0,0,0,.2,0,.2,0v-.2c0-.4-.1-.7-.4-.9-.2-.2-.6-.3-1-.3s-.8,0-1,.2c-.2.1-.5.2-.6.3l-.5-.7c0,0,.2-.2.3-.2.1,0,.3-.2.5-.2.2,0,.4-.1.6-.2.2,0,.5,0,.8,0,.7,0,1.3.2,1.7.5.4.3.6.8.6,1.5v3.3c0,.2,0,.4,0,.5h-1v-.7ZM261.4,60.4s0,0-.2,0c0,0-.2,0-.3,0s-.2,0-.4,0c-.1,0-.3,0-.4,0-.3,0-.6,0-.7.1-.2,0-.3.2-.4.3-.1.1-.2.2-.2.4,0,.1,0,.3,0,.4,0,.3.1.5.3.7.2.2.5.2.9.2s.4,0,.6-.1c.2,0,.4-.2.5-.3.1-.1.3-.3.3-.4,0-.2.1-.3.1-.5v-.6ZM263.9,63v-5c0-.2,0-.4,0-.6h1v.8c.1,0,.2-.2.3-.3.1-.1.2-.2.4-.3s.3-.2.5-.2c.2,0,.4,0,.7,0,.7,0,1.3.2,1.6.6.4.4.5,1,.5,1.7v3.3h-1.1v-3.3c0-.5-.1-.9-.3-1.1-.2-.2-.5-.4-.9-.4s-.6,0-.8.2c-.2.1-.4.3-.5.5-.1.2-.2.4-.3.7,0,.3,0,.5,0,.8v2.6h-1.1ZM274.5,62.3s-.1.1-.2.2c0,0-.2.2-.4.3-.2,0-.3.2-.5.3-.2,0-.4.1-.7.1s-.7,0-1-.2c-.3-.1-.6-.3-.8-.6s-.4-.5-.5-.9c-.1-.4-.2-.8-.2-1.2s0-1,.3-1.4c.2-.4.4-.7.7-.9.3-.2.6-.4.9-.5.3-.1.7-.2.9-.2s.7,0,.9.1.4.2.5.2v-2.7h1.1v7.4c0,.2,0,.4,0,.6h-1.1v-.7ZM274.5,58.7c0,0-.2-.1-.4-.3-.2-.1-.5-.2-.9-.2s-.5,0-.7.1c-.2,0-.4.2-.6.4-.2.2-.3.4-.4.6,0,.3-.1.5-.1.9s0,.5,0,.8c0,.2.2.4.3.6.1.2.3.3.5.4.2,0,.5.1.7.1s.5,0,.7-.2c.2-.1.4-.2.5-.4.1-.2.2-.3.3-.5,0-.2,0-.4,0-.5v-2ZM281.6,56h-2.9v-1h6.9v1h-2.9v7h-1.2v-7ZM287,55h1.1l2.4,4.2,2.4-4.2h1.1l.4,8h-1.1l-.3-6.1-2.3,3.8h-.6l-2.2-3.7-.3,6.1h-1.1l.4-8ZM296.2,55h2.7c.6,0,1.2,0,1.7.2.5.2,1,.4,1.4.7.4.3.7.7.9,1.2.2.5.3,1.1.3,1.8s-.1,1.3-.3,1.8c-.2.5-.5.9-.9,1.2-.4.3-.8.6-1.4.7-.5.2-1.1.2-1.8.2h-2.7v-8ZM298.8,62c1,0,1.8-.2,2.3-.7.6-.5.8-1.2.8-2.2s-.3-1.7-.8-2.2c-.5-.5-1.3-.8-2.4-.8h-1.5v5.9h1.5ZM310.2,62.3c-.2.3-.5.5-.8.6-.3.1-.7.2-1,.2s-.5,0-.7,0c-.2,0-.4-.2-.6-.3-.2-.1-.3-.3-.5-.5-.1-.2-.2-.5-.2-.8,0-.6.2-1.1.6-1.4.4-.4,1-.5,1.8-.5s.3,0,.4,0c.1,0,.3,0,.4,0s.2,0,.3,0c0,0,.2,0,.2,0v-.2c0-.4-.1-.7-.4-.9-.2-.2-.6-.3-1-.3s-.8,0-1,.2c-.2.1-.5.2-.6.3l-.5-.7c0,0,.2-.2.3-.2.1,0,.3-.2.5-.2.2,0,.4-.1.6-.2.2,0,.5,0,.8,0,.7,0,1.3.2,1.7.5.4.3.6.8.6,1.5v3.3c0,.2,0,.4,0,.5h-1v-.7ZM310.2,60.4s0,0-.2,0c0,0-.2,0-.3,0s-.2,0-.4,0c-.1,0-.3,0-.4,0-.3,0-.6,0-.7.1-.2,0-.3.2-.4.3-.1.1-.2.2-.2.4,0,.1,0,.3,0,.4,0,.3.1.5.3.7.2.2.5.2.9.2s.4,0,.6-.1c.2,0,.4-.2.5-.3.1-.1.3-.3.3-.4,0-.2.1-.3.1-.5v-.6ZM311.8,57.4h1.2l1.7,4.4,1.7-4.4h1.2l-2.4,5.6h-1.1l-2.4-5.6ZM321.8,62.3c-.2.3-.5.5-.8.6-.3.1-.7.2-1,.2s-.5,0-.7,0c-.2,0-.4-.2-.6-.3-.2-.1-.3-.3-.5-.5-.1-.2-.2-.5-.2-.8,0-.6.2-1.1.6-1.4.4-.4,1-.5,1.8-.5s.3,0,.4,0c.1,0,.3,0,.4,0s.2,0,.3,0c0,0,.2,0,.2,0v-.2c0-.4-.1-.7-.4-.9-.2-.2-.6-.3-1-.3s-.8,0-1,.2c-.2.1-.5.2-.6.3l-.5-.7c0,0,.2-.2.3-.2.1,0,.3-.2.5-.2.2,0,.4-.1.6-.2.2,0,.5,0,.8,0,.7,0,1.3.2,1.7.5.4.3.6.8.6,1.5v3.3c0,.2,0,.4,0,.5h-1v-.7ZM321.8,60.4s0,0-.2,0c0,0-.2,0-.3,0s-.2,0-.4,0c-.1,0-.3,0-.4,0-.3,0-.6,0-.7.1-.2,0-.3.2-.4.3-.1.1-.2.2-.2.4,0,.1,0,.3,0,.4,0,.3.1.5.3.7.2.2.5.2.9.2s.4,0,.6-.1c.2,0,.4-.2.5-.3.1-.1.3-.3.3-.4,0-.2.1-.3.1-.5v-.6ZM324.2,55.2h1.2v1.2h-1.2v-1.2ZM324.3,57.4h1.1v5.6h-1.1v-5.6ZM326.9,55h1.1v8h-1.1v-8ZM333,62.3c-.2.3-.5.5-.8.6-.3.1-.7.2-1,.2s-.5,0-.7,0c-.2,0-.4-.2-.6-.3-.2-.1-.3-.3-.5-.5-.1-.2-.2-.5-.2-.8,0-.6.2-1.1.6-1.4.4-.4,1-.5,1.8-.5s.3,0,.4,0c.1,0,.3,0,.4,0,.1,0,.2,0,.3,0,0,0,.2,0,.2,0v-.2c0-.4-.1-.7-.4-.9-.2-.2-.6-.3-1-.3s-.8,0-1,.2c-.2.1-.5.2-.6.3l-.5-.7c0,0,.2-.2.3-.2.1,0,.3-.2.5-.2.2,0,.4-.1.6-.2.2,0,.5,0,.8,0,.7,0,1.3.2,1.7.5.4.3.6.8.6,1.5v3.3c0,.2,0,.4,0,.5h-1v-.7ZM333,60.4s0,0-.2,0c0,0-.2,0-.3,0s-.2,0-.4,0-.3,0-.4,0c-.3,0-.6,0-.7.1-.2,0-.3.2-.4.3-.1.1-.2.2-.2.4,0,.1,0,.3,0,.4,0,.3.1.5.3.7.2.2.5.2.9.2s.4,0,.6-.1c.2,0,.4-.2.5-.3.1-.1.3-.3.3-.4,0-.2.1-.3.1-.5v-.6ZM335.5,55h1.1v3c0,0,.1-.2.2-.2.1,0,.2-.2.4-.2.1,0,.3-.1.5-.2.2,0,.4,0,.6,0,.4,0,.8,0,1.1.2.3.1.6.3.8.6.2.3.4.6.5.9.1.4.2.7.2,1.1s0,.8-.2,1.2c-.2.4-.4.7-.6.9-.3.3-.6.5-1,.6-.4.1-.8.2-1.3.2s-.9,0-1.3-.1c-.4,0-.7-.2-.9-.3v-7.8ZM336.5,62.1c.1,0,.2,0,.4.1.2,0,.4,0,.7,0s.6,0,.8-.1c.2-.1.5-.2.6-.4.2-.2.3-.4.4-.6,0-.3.1-.5.1-.8s0-.5,0-.7c0-.2-.2-.4-.3-.6-.1-.2-.3-.3-.5-.4-.2-.1-.4-.2-.7-.2s-.5,0-.7.1c-.2,0-.4.2-.5.4-.1.1-.2.3-.3.5,0,.2,0,.4,0,.6v2.2ZM342.1,55h1.1v8h-1.1v-8ZM349.7,62.2c0,0-.2.2-.3.3-.1.1-.3.2-.5.3-.2.1-.4.2-.7.3-.3,0-.6.1-.9.1s-.8,0-1.2-.2c-.4-.1-.7-.3-.9-.6s-.5-.6-.6-.9c-.1-.4-.2-.8-.2-1.2s0-.8.2-1.1c.1-.4.3-.7.6-.9.2-.3.5-.5.9-.6.3-.2.7-.2,1.1-.2s.9,0,1.2.3c.3.2.6.4.8.7.2.3.4.7.5,1,.1.4.2.8.2,1.2h-4.4c0,.2,0,.5.2.7.1.2.2.4.4.5s.4.3.6.4.4.1.7.1c.5,0,.9,0,1.2-.2.3-.2.5-.3.7-.5l.6.6ZM348.7,59.7c0-.4-.2-.8-.5-1.1-.3-.3-.7-.5-1.2-.5s-.5,0-.7.1c-.2,0-.4.2-.5.3-.1.1-.3.3-.3.5,0,.2-.1.4-.1.6h3.3ZM356.7,62.3c-.2.3-.5.5-.8.6-.3.1-.7.2-1,.2s-.5,0-.7,0c-.2,0-.4-.2-.6-.3-.2-.1-.3-.3-.5-.5-.1-.2-.2-.5-.2-.8,0-.6.2-1.1.6-1.4.4-.4,1-.5,1.8-.5s.3,0,.4,0c.1,0,.3,0,.4,0,.1,0,.2,0,.3,0,0,0,.2,0,.2,0v-.2c0-.4-.1-.7-.4-.9-.2-.2-.6-.3-1-.3s-.8,0-1,.2c-.2.1-.5.2-.6.3l-.5-.7c0,0,.2-.2.3-.2.1,0,.3-.2.5-.2.2,0,.4-.1.6-.2.2,0,.5,0,.8,0,.7,0,1.3.2,1.7.5.4.3.6.8.6,1.5v3.3c0,.2,0,.4,0,.5h-1v-.7ZM356.7,60.4s0,0-.2,0c0,0-.2,0-.3,0s-.2,0-.4,0c-.1,0-.3,0-.4,0-.3,0-.6,0-.7.1-.2,0-.3.2-.4.3-.1.1-.2.2-.2.4,0,.1,0,.3,0,.4,0,.3.1.5.3.7.2.2.5.2.9.2s.4,0,.6-.1c.2,0,.4-.2.5-.3.1-.1.3-.3.3-.4s.1-.3.1-.5v-.6ZM359.7,58.3h-1v-.9h1v-1.8h1.1v1.8h1.6v.9h-1.6v2.7c0,.4,0,.8.2.9.1.2.3.3.6.3s.4,0,.5,0c.1,0,.3-.2.4-.3l.5.7c-.2.2-.5.4-.7.5-.2.1-.5.2-.9.2-.6,0-1-.2-1.3-.5-.3-.3-.4-.8-.4-1.5v-2.9ZM366,55h1.1v3.3c0,0,.2-.2.3-.3s.2-.2.4-.3.3-.2.5-.2c.2,0,.4,0,.7,0,.7,0,1.3.2,1.6.6.4.4.5,1,.5,1.7v3.3h-1.1v-3.3c0-.5-.1-.9-.3-1.1-.2-.2-.5-.4-.9-.4s-.6,0-.8.2c-.2.1-.4.3-.5.5-.1.2-.2.4-.3.7,0,.3,0,.5,0,.8v2.6h-1.1v-8ZM375.2,63.2c-.4,0-.8,0-1.2-.2-.4-.2-.7-.4-.9-.6-.3-.3-.5-.6-.6-.9-.1-.4-.2-.7-.2-1.2s0-.8.2-1.1c.2-.4.4-.7.6-.9.3-.3.6-.5.9-.6.4-.2.8-.2,1.2-.2s.8,0,1.2.2c.4.2.7.4.9.6s.5.6.6.9c.2.4.2.7.2,1.1s0,.8-.2,1.2c-.1.4-.3.7-.6.9s-.6.5-.9.6c-.4.2-.8.2-1.2.2ZM375.2,62.2c.3,0,.5,0,.8-.2.2-.1.4-.3.6-.5.2-.2.3-.4.4-.6,0-.2.1-.5.1-.8s0-.5-.1-.7c0-.2-.2-.5-.4-.7-.2-.2-.4-.3-.6-.5-.2-.1-.5-.2-.8-.2s-.5,0-.8.2c-.2.1-.4.3-.6.5-.2.2-.3.4-.4.6,0,.2-.1.5-.1.7s0,.5.1.7c0,.2.2.5.4.6.2.2.4.3.6.5.2.1.5.2.8.2ZM379.7,61.6c.2.2.4.4.7.5s.6.2,1,.2.7,0,.9-.2c.2-.1.4-.3.4-.6s0-.2,0-.3c0,0-.1-.2-.3-.3-.1,0-.3-.1-.5-.2-.2,0-.5-.1-.8-.2-.2,0-.4-.1-.6-.2-.2,0-.4-.2-.6-.3-.2-.1-.3-.3-.4-.5-.1-.2-.2-.4-.2-.7s0-.5.2-.7c.1-.2.3-.4.5-.5.2-.1.4-.3.7-.3.3,0,.5-.1.8-.1.5,0,.9,0,1.2.2.3.1.6.3.9.5l-.6.7c-.2-.2-.4-.3-.6-.4-.2-.1-.5-.2-.9-.2s-.6,0-.8.2-.3.3-.3.6.1.4.4.5c.3.1.6.2,1.1.3.3,0,.5.1.7.2.2,0,.4.2.6.3.2.1.3.3.4.5.1.2.2.4.2.7s0,.5-.2.7c-.1.2-.3.4-.5.5s-.5.3-.7.3c-.3,0-.6.1-.9.1-1.1,0-1.8-.3-2.4-.9l.7-.7ZM385.5,58.3h-1v-.9h1v-1.8h1.1v1.8h1.6v.9h-1.6v2.7c0,.4,0,.8.2.9.1.2.3.3.6.3s.4,0,.5,0c.1,0,.3-.2.4-.3l.5.7c-.2.2-.5.4-.7.5-.2.1-.5.2-.9.2-.6,0-1-.2-1.3-.5-.3-.3-.4-.8-.4-1.5v-2.9ZM389.6,65.4v-7.4c0-.2,0-.4,0-.6h1v.8c0,0,.2-.2.3-.3.1-.1.2-.2.4-.3.2,0,.3-.2.6-.2.2,0,.4-.1.7-.1.4,0,.8,0,1.1.2.3.2.6.4.8.6s.4.6.5.9c.1.4.2.7.2,1.1s0,.9-.3,1.3c-.2.4-.4.7-.7.9-.3.2-.6.4-.9.5-.3.1-.7.2-1,.2s-.7,0-.9-.1c-.2,0-.4-.2-.6-.2v2.6h-1.1ZM390.7,61.8c.1.1.3.2.6.3.2,0,.5.1.9.1s.5,0,.7-.1c.2-.1.4-.2.6-.4.2-.2.3-.4.4-.6,0-.2.1-.5.1-.8s0-.5,0-.8c0-.2-.2-.5-.3-.6-.1-.2-.3-.3-.5-.4-.2-.1-.5-.2-.8-.2s-.7.1-1,.3c-.3.2-.5.5-.6.9,0,.1,0,.3,0,.4,0,.1,0,.3,0,.5v1.4ZM396.3,55h1.1v8h-1.1v-8ZM398.9,57.4h1.1v3.3c0,.5.1.9.3,1.2.2.2.5.3.9.3s.6,0,.8-.2c.2-.1.4-.3.5-.5.1-.2.2-.4.3-.7,0-.3,0-.5,0-.8v-2.6h1.1v5c0,.2,0,.4,0,.6h-1v-.8c-.1,0-.2.2-.3.3s-.2.2-.4.3c-.2,0-.3.2-.5.2-.2,0-.4,0-.7,0-.7,0-1.3-.2-1.6-.6-.3-.4-.5-1-.5-1.7v-3.3ZM405.8,61.6c.2.2.4.4.7.5.3.1.6.2,1,.2s.7,0,.9-.2c.2-.1.4-.3.4-.6s0-.2,0-.3c0,0-.1-.2-.3-.3-.1,0-.3-.1-.5-.2-.2,0-.5-.1-.8-.2-.2,0-.4-.1-.6-.2-.2,0-.4-.2-.6-.3-.2-.1-.3-.3-.4-.5-.1-.2-.2-.4-.2-.7s0-.5.2-.7c.1-.2.3-.4.5-.5.2-.1.4-.3.7-.3.3,0,.5-.1.8-.1.5,0,.9,0,1.2.2.3.1.6.3.9.5l-.6.7c-.2-.2-.4-.3-.6-.4-.2-.1-.5-.2-.9-.2s-.6,0-.8.2-.3.3-.3.6.1.4.4.5c.3.1.6.2,1.1.3.3,0,.5.1.7.2.2,0,.4.2.6.3.2.1.3.3.4.5.1.2.2.4.2.7s0,.5-.2.7c-.1.2-.3.4-.5.5-.2.1-.5.3-.7.3-.3,0-.6.1-.9.1-1.1,0-1.8-.3-2.4-.9l.7-.7ZM410.9,61.7h1.4v1.3h-1.4v-1.3ZM418.5,62.2c-.2.3-.6.5-.9.7-.4.2-.8.3-1.3.3s-.9,0-1.2-.2c-.4-.2-.7-.4-.9-.6-.2-.3-.4-.6-.6-.9-.1-.4-.2-.8-.2-1.2s0-.8.2-1.2c.1-.4.3-.7.6-.9.3-.3.6-.5.9-.6.4-.2.8-.2,1.2-.2s.9,0,1.2.3c.4.2.7.4.9.7l-.7.7c-.2-.2-.4-.4-.6-.5-.2-.1-.5-.2-.9-.2s-.5,0-.8.2c-.2.1-.4.3-.6.4-.2.2-.3.4-.4.6,0,.2-.1.5-.1.8s0,.5.1.8c0,.2.2.5.4.6.2.2.4.3.6.4.2.1.5.2.8.2s.6,0,.9-.2c.3-.1.5-.3.6-.5l.7.7ZM421.9,63.2c-.4,0-.8,0-1.2-.2-.4-.2-.7-.4-.9-.6-.3-.3-.5-.6-.6-.9-.1-.4-.2-.7-.2-1.2s0-.8.2-1.1c.2-.4.4-.7.6-.9.3-.3.6-.5.9-.6.4-.2.8-.2,1.2-.2s.8,0,1.2.2c.4.2.7.4.9.6s.5.6.6.9c.2.4.2.7.2,1.1s0,.8-.2,1.2c-.1.4-.3.7-.6.9s-.6.5-.9.6c-.4.2-.8.2-1.2.2ZM421.9,62.2c.3,0,.5,0,.8-.2.2-.1.4-.3.6-.5.2-.2.3-.4.4-.6,0-.2.1-.5.1-.8s0-.5-.1-.7c0-.2-.2-.5-.4-.7-.2-.2-.4-.3-.6-.5-.2-.1-.5-.2-.8-.2s-.5,0-.8.2c-.2.1-.4.3-.6.5-.2.2-.3.4-.4.6,0,.2-.1.5-.1.7s0,.5.1.7c0,.2.2.5.4.6.2.2.4.3.6.5.2.1.5.2.8.2ZM426.1,63v-5c0-.2,0-.4,0-.6h1v.8c.1,0,.2-.2.3-.3.1-.1.2-.2.4-.3.1,0,.3-.2.5-.2.2,0,.4,0,.7,0,.4,0,.8,0,1.1.3.3.2.5.4.7.7.2-.3.5-.5.8-.7.3-.2.7-.3,1.2-.3.7,0,1.3.2,1.6.6.3.4.5,1,.5,1.7v3.3h-1.1v-3.3c0-.5-.1-.9-.3-1.1-.2-.2-.5-.4-.9-.4s-.4,0-.6.1c-.2,0-.3.2-.5.4-.1.2-.2.3-.3.5,0,.2-.1.4-.1.6v3.1h-1.1v-3.3c0-.5-.1-.9-.3-1.1-.2-.2-.5-.4-.9-.4s-.5,0-.7.2c-.2.1-.4.3-.5.5-.1.2-.2.4-.3.7,0,.3,0,.5,0,.8v2.6h-1.1ZM436.4,61.7h1.4v1.3h-1.4v-1.3ZM442.7,62.3c-.2.3-.5.5-.8.6-.3.1-.7.2-1,.2s-.5,0-.7,0c-.2,0-.4-.2-.6-.3-.2-.1-.3-.3-.5-.5-.1-.2-.2-.5-.2-.8,0-.6.2-1.1.6-1.4.4-.4,1-.5,1.8-.5s.3,0,.4,0c.1,0,.3,0,.4,0,.1,0,.2,0,.3,0,0,0,.2,0,.2,0v-.2c0-.4-.1-.7-.4-.9-.2-.2-.6-.3-1-.3s-.8,0-1,.2c-.2.1-.5.2-.6.3l-.5-.7c0,0,.2-.2.3-.2.1,0,.3-.2.5-.2.2,0,.4-.1.6-.2.2,0,.5,0,.8,0,.7,0,1.3.2,1.7.5.4.3.6.8.6,1.5v3.3c0,.2,0,.4,0,.5h-1v-.7ZM442.7,60.4s0,0-.2,0c0,0-.2,0-.3,0s-.2,0-.4,0c-.1,0-.3,0-.4,0-.3,0-.6,0-.7.1-.2,0-.3.2-.4.3-.1.1-.2.2-.2.4,0,.1,0,.3,0,.4,0,.3.1.5.3.7.2.2.5.2.9.2s.4,0,.6-.1c.2,0,.4-.2.5-.3.1-.1.3-.3.3-.4s.1-.3.1-.5v-.6ZM445.1,57.4h1.1v3.3c0,.5.1.9.3,1.2.2.2.5.3.9.3s.6,0,.8-.2c.2-.1.4-.3.5-.5.1-.2.2-.4.3-.7,0-.3,0-.5,0-.8v-2.6h1.1v5c0,.2,0,.4,0,.6h-1v-.8c-.1,0-.2.2-.3.3s-.2.2-.4.3c-.2,0-.3.2-.5.2-.2,0-.4,0-.7,0-.7,0-1.3-.2-1.6-.6-.3-.4-.5-1-.5-1.7v-3.3ZM453.8,55h1.1v3c0,0,.1-.2.2-.2.1,0,.2-.2.4-.2.1,0,.3-.1.5-.2.2,0,.4,0,.6,0,.4,0,.8,0,1.1.2.3.1.6.3.8.6.2.3.4.6.5.9.1.4.2.7.2,1.1s0,.8-.2,1.2-.4.7-.6.9c-.3.3-.6.5-1,.6-.4.1-.8.2-1.3.2s-.9,0-1.3-.1c-.4,0-.7-.2-.9-.3v-7.8ZM454.9,62.1c.1,0,.2,0,.4.1.2,0,.4,0,.7,0s.6,0,.8-.1c.2-.1.5-.2.6-.4.2-.2.3-.4.4-.6,0-.3.1-.5.1-.8s0-.5,0-.7c0-.2-.2-.4-.3-.6-.1-.2-.3-.3-.5-.4-.2-.1-.4-.2-.7-.2s-.5,0-.7.1c-.2,0-.4.2-.5.4-.1.1-.2.3-.3.5,0,.2,0,.4,0,.6v2.2ZM465.5,62.2c0,0-.2.2-.3.3s-.3.2-.5.3c-.2.1-.4.2-.7.3-.3,0-.6.1-.9.1s-.8,0-1.2-.2c-.4-.1-.7-.3-.9-.6s-.5-.6-.6-.9c-.1-.4-.2-.8-.2-1.2s0-.8.2-1.1c.1-.4.3-.7.6-.9.2-.3.5-.5.9-.6.3-.2.7-.2,1.1-.2s.9,0,1.2.3c.3.2.6.4.8.7.2.3.4.7.5,1,.1.4.2.8.2,1.2h-4.4c0,.2,0,.5.2.7.1.2.2.4.4.5s.4.3.6.4.4.1.7.1c.5,0,.9,0,1.2-.2.3-.2.5-.3.7-.5l.6.6ZM464.5,59.7c0-.4-.2-.8-.5-1.1-.3-.3-.7-.5-1.2-.5s-.5,0-.7.1c-.2,0-.4.2-.5.3-.1.1-.3.3-.3.5,0,.2-.1.4-.1.6h3.3ZM467.3,58.3h-1v-.9h1v-.5c0-.4,0-.7.2-1,.1-.3.3-.5.4-.7.2-.2.4-.3.6-.4.2,0,.5-.1.7-.1s.6,0,.9.1c.3,0,.6.2.8.5l-.5.7c-.3-.2-.6-.4-.9-.4s-.6,0-.8.3c-.2.2-.3.5-.3,1v.4h1.6v.9h-1.6v4.7h-1.1v-4.7ZM473.2,63.2c-.4,0-.8,0-1.2-.2-.4-.2-.7-.4-.9-.6-.3-.3-.5-.6-.6-.9-.1-.4-.2-.7-.2-1.2s0-.8.2-1.1c.2-.4.4-.7.6-.9.3-.3.6-.5.9-.6.4-.2.8-.2,1.2-.2s.8,0,1.2.2c.4.2.7.4.9.6s.5.6.6.9c.2.4.2.7.2,1.1s0,.8-.2,1.2c-.1.4-.3.7-.6.9s-.6.5-.9.6c-.4.2-.8.2-1.2.2ZM473.2,62.2c.3,0,.5,0,.8-.2.2-.1.4-.3.6-.5.2-.2.3-.4.4-.6,0-.2.1-.5.1-.8s0-.5-.1-.7c0-.2-.2-.5-.4-.7-.2-.2-.4-.3-.6-.5-.2-.1-.5-.2-.8-.2s-.5,0-.8.2c-.2.1-.4.3-.6.5-.2.2-.3.4-.4.6,0,.2-.1.5-.1.7s0,.5.1.7c0,.2.2.5.4.6.2.2.4.3.6.5.2.1.5.2.8.2ZM477.4,63v-5c0-.2,0-.4,0-.5h1v.9c.1,0,.2-.2.3-.3.1-.1.2-.2.4-.3.2,0,.3-.2.5-.2.2,0,.4-.1.7-.1s.2,0,.3,0c.1,0,.2,0,.3,0l-.2,1c-.1,0-.3,0-.6,0s-.4,0-.6.1c-.2,0-.4.2-.5.4-.1.2-.3.3-.3.5,0,.2-.1.4-.1.7v2.9h-1.1ZM486.5,62.2c0,0-.2.2-.3.3-.1.1-.3.2-.5.3-.2.1-.4.2-.7.3-.3,0-.6.1-.9.1s-.8,0-1.2-.2c-.4-.1-.7-.3-.9-.6-.3-.3-.5-.6-.6-.9-.1-.4-.2-.8-.2-1.2s0-.8.2-1.1c.1-.4.3-.7.6-.9.2-.3.5-.5.9-.6.3-.2.7-.2,1.1-.2s.9,0,1.2.3c.3.2.6.4.8.7.2.3.4.7.5,1,.1.4.2.8.2,1.2h-4.4c0,.2,0,.5.2.7.1.2.2.4.4.5s.4.3.6.4c.2,0,.4.1.7.1.5,0,.9,0,1.2-.2.3-.2.5-.3.7-.5l.6.6ZM485.6,59.7c0-.4-.2-.8-.5-1.1-.3-.3-.7-.5-1.2-.5s-.5,0-.7.1c-.2,0-.4.2-.5.3-.1.1-.3.3-.3.5,0,.2-.1.4-.1.6h3.3ZM490,63v-5c0-.2,0-.4,0-.6h1v.8c.1,0,.2-.2.3-.3.1-.1.2-.2.4-.3.1,0,.3-.2.5-.2.2,0,.4,0,.7,0,.4,0,.8,0,1.1.3.3.2.5.4.7.7.2-.3.5-.5.8-.7.3-.2.7-.3,1.2-.3.7,0,1.3.2,1.6.6.3.4.5,1,.5,1.7v3.3h-1.1v-3.3c0-.5-.1-.9-.3-1.1-.2-.2-.5-.4-.9-.4s-.4,0-.6.1c-.2,0-.3.2-.5.4-.1.2-.2.3-.3.5,0,.2-.1.4-.1.6v3.1h-1.1v-3.3c0-.5-.1-.9-.3-1.1-.2-.2-.5-.4-.9-.4s-.5,0-.7.2c-.2.1-.4.3-.5.5-.1.2-.2.4-.3.7,0,.3,0,.5,0,.8v2.6h-1.1ZM503.7,62.3c-.2.3-.5.5-.8.6-.3.1-.7.2-1,.2s-.5,0-.7,0c-.2,0-.4-.2-.6-.3-.2-.1-.3-.3-.5-.5-.1-.2-.2-.5-.2-.8,0-.6.2-1.1.6-1.4.4-.4,1-.5,1.8-.5s.3,0,.4,0c.1,0,.3,0,.4,0s.2,0,.3,0c0,0,.2,0,.2,0v-.2c0-.4-.1-.7-.4-.9-.2-.2-.6-.3-1-.3s-.8,0-1,.2c-.2.1-.5.2-.6.3l-.5-.7c0,0,.2-.2.3-.2.1,0,.3-.2.5-.2.2,0,.4-.1.6-.2.2,0,.5,0,.8,0,.7,0,1.3.2,1.7.5.4.3.6.8.6,1.5v3.3c0,.2,0,.4,0,.5h-1v-.7ZM503.7,60.4s0,0-.2,0c0,0-.2,0-.3,0s-.2,0-.4,0c-.1,0-.3,0-.4,0-.3,0-.6,0-.7.1-.2,0-.3.2-.4.3-.1.1-.2.2-.2.4,0,.1,0,.3,0,.4,0,.3.1.5.3.7.2.2.5.2.9.2s.4,0,.6-.1c.2,0,.4-.2.5-.3.1-.1.3-.3.3-.4,0-.2.1-.3.1-.5v-.6ZM506.2,55h1.1v4.7l2.3-2.3h1.3l-2.1,2.1,2.4,3.5h-1.3l-1.9-2.8-.8.7v2.1h-1.1v-8ZM512.1,55.2h1.2v1.2h-1.2v-1.2ZM512.1,57.4h1.1v5.6h-1.1v-5.6ZM514.8,63v-5c0-.2,0-.4,0-.6h1v.8c.1,0,.2-.2.3-.3.1-.1.2-.2.4-.3s.3-.2.5-.2c.2,0,.4,0,.7,0,.7,0,1.3.2,1.6.6s.5,1,.5,1.7v3.3h-1.1v-3.3c0-.5-.1-.9-.3-1.1-.2-.2-.5-.4-.9-.4s-.6,0-.8.2c-.2.1-.4.3-.5.5-.1.2-.2.4-.3.7,0,.3,0,.5,0,.8v2.6h-1.1ZM525.3,58.4c0,0-.2,0-.4,0-.2,0-.4,0-.8,0s-.6,0-.8.2c-.2,0-.5.2-.6.4-.2.2-.3.4-.4.6,0,.2-.1.5-.1.8s0,.5,0,.7c0,.2.2.4.3.6.1.2.3.3.5.4.2,0,.4.1.7.1s.5,0,.7-.1c.2,0,.4-.2.5-.3.1-.1.2-.3.3-.4,0-.2,0-.3,0-.5v-2.3ZM522,64.1c.2.1.4.2.7.3.3,0,.6.1,1,.1s.9-.1,1.2-.4c.3-.3.4-.7.4-1.2v-.7c0,0-.1.1-.2.2,0,0-.2.2-.3.2-.1,0-.3.1-.5.2-.2,0-.4,0-.7,0-.4,0-.8,0-1.1-.2-.3-.1-.6-.3-.8-.6-.2-.2-.4-.5-.5-.9-.1-.3-.2-.7-.2-1.1s0-.8.2-1.2c.2-.4.4-.7.6-.9.3-.3.6-.5,1-.6.4-.2.8-.2,1.3-.2s.9,0,1.3.1c.4,0,.7.2.9.3v5.3c0,.8-.2,1.4-.7,1.9-.5.4-1.1.7-2,.7s-1,0-1.4-.2c-.3-.1-.6-.3-.8-.4l.5-.8ZM533.5,62.3c-.2.3-.5.5-.8.6-.3.1-.7.2-1,.2s-.5,0-.7,0c-.2,0-.4-.2-.6-.3-.2-.1-.3-.3-.5-.5-.1-.2-.2-.5-.2-.8,0-.6.2-1.1.6-1.4.4-.4,1-.5,1.8-.5s.3,0,.4,0c.1,0,.3,0,.4,0s.2,0,.3,0c0,0,.2,0,.2,0v-.2c0-.4-.1-.7-.4-.9-.2-.2-.6-.3-1-.3s-.8,0-1,.2c-.2.1-.5.2-.6.3l-.5-.7c0,0,.2-.2.3-.2.1,0,.3-.2.5-.2.2,0,.4-.1.6-.2.2,0,.5,0,.8,0,.7,0,1.3.2,1.7.5.4.3.6.8.6,1.5v3.3c0,.2,0,.4,0,.5h-1v-.7ZM533.5,60.4s0,0-.2,0c0,0-.2,0-.3,0s-.2,0-.4,0-.3,0-.4,0c-.3,0-.6,0-.7.1-.2,0-.3.2-.4.3-.1.1-.2.2-.2.4,0,.1,0,.3,0,.4,0,.3.1.5.3.7.2.2.5.2.9.2s.4,0,.6-.1c.2,0,.4-.2.5-.3.1-.1.3-.3.3-.4,0-.2.1-.3.1-.5v-.6ZM542.2,62.3s-.1.1-.2.2c0,0-.2.2-.4.3-.2,0-.3.2-.5.3-.2,0-.4.1-.7.1s-.7,0-1-.2c-.3-.1-.6-.3-.8-.6s-.4-.5-.5-.9c-.1-.4-.2-.8-.2-1.2s0-1,.3-1.4c.2-.4.4-.7.7-.9.3-.2.6-.4.9-.5.3-.1.7-.2.9-.2s.7,0,.9.1.4.2.5.2v-2.7h1.1v7.4c0,.2,0,.4,0,.6h-1.1v-.7ZM542.2,58.7c0,0-.2-.1-.4-.3-.2-.1-.5-.2-.9-.2s-.5,0-.7.1c-.2,0-.4.2-.6.4-.2.2-.3.4-.4.6,0,.3-.1.5-.1.9s0,.5,0,.8c0,.2.2.4.3.6.1.2.3.3.5.4.2,0,.5.1.7.1s.5,0,.7-.2.4-.2.5-.4c.1-.2.2-.3.3-.5,0-.2,0-.4,0-.5v-2ZM549.9,62.2c0,0-.2.2-.3.3-.1.1-.3.2-.5.3-.2.1-.4.2-.7.3-.3,0-.6.1-.9.1s-.8,0-1.2-.2-.7-.3-.9-.6-.5-.6-.6-.9c-.1-.4-.2-.8-.2-1.2s0-.8.2-1.1c.1-.4.3-.7.6-.9.2-.3.5-.5.9-.6.3-.2.7-.2,1.1-.2s.9,0,1.2.3c.3.2.6.4.8.7.2.3.4.7.5,1,.1.4.2.8.2,1.2h-4.4c0,.2,0,.5.2.7.1.2.2.4.4.5.2.2.4.3.6.4s.4.1.7.1c.5,0,.9,0,1.2-.2.3-.2.5-.3.7-.5l.6.6ZM548.9,59.7c0-.4-.2-.8-.5-1.1-.3-.3-.7-.5-1.2-.5s-.5,0-.7.1c-.2,0-.4.2-.5.3-.1.1-.3.3-.3.5,0,.2-.1.4-.1.6h3.3ZM556,62.2c-.2.3-.6.5-.9.7-.4.2-.8.3-1.3.3s-.9,0-1.2-.2c-.4-.2-.7-.4-.9-.6-.2-.3-.4-.6-.6-.9-.1-.4-.2-.8-.2-1.2s0-.8.2-1.2c.1-.4.3-.7.6-.9.3-.3.6-.5.9-.6.4-.2.8-.2,1.2-.2s.9,0,1.2.3.7.4.9.7l-.7.7c-.2-.2-.4-.4-.6-.5s-.5-.2-.9-.2-.5,0-.8.2c-.2.1-.4.3-.6.4-.2.2-.3.4-.4.6,0,.2-.1.5-.1.8s0,.5.1.8c0,.2.2.5.4.6.2.2.4.3.6.4.2.1.5.2.8.2s.6,0,.9-.2c.3-.1.5-.3.6-.5l.7.7ZM557.1,55.2h1.2v1.2h-1.2v-1.2ZM557.2,57.4h1.1v5.6h-1.1v-5.6ZM560.1,61.6c.2.2.4.4.7.5.3.1.6.2,1,.2s.7,0,.9-.2c.2-.1.4-.3.4-.6s0-.2,0-.3c0,0-.1-.2-.3-.3-.1,0-.3-.1-.5-.2-.2,0-.5-.1-.8-.2-.2,0-.4-.1-.6-.2-.2,0-.4-.2-.6-.3-.2-.1-.3-.3-.4-.5-.1-.2-.2-.4-.2-.7s0-.5.2-.7c.1-.2.3-.4.5-.5.2-.1.4-.3.7-.3.3,0,.5-.1.8-.1.5,0,.9,0,1.2.2.3.1.6.3.9.5l-.6.7c-.2-.2-.4-.3-.6-.4-.2-.1-.5-.2-.9-.2s-.6,0-.8.2c-.2.1-.3.3-.3.6s.1.4.4.5c.3.1.6.2,1.1.3.3,0,.5.1.7.2.2,0,.4.2.6.3.2.1.3.3.4.5.1.2.2.4.2.7s0,.5-.2.7c-.1.2-.3.4-.5.5s-.5.3-.7.3c-.3,0-.6.1-.9.1-1.1,0-1.8-.3-2.4-.9l.7-.7ZM565.4,55.2h1.2v1.2h-1.2v-1.2ZM565.5,57.4h1.1v5.6h-1.1v-5.6ZM570.8,63.2c-.4,0-.8,0-1.2-.2-.4-.2-.7-.4-.9-.6-.3-.3-.5-.6-.6-.9-.1-.4-.2-.7-.2-1.2s0-.8.2-1.1c.2-.4.4-.7.6-.9.3-.3.6-.5.9-.6.4-.2.8-.2,1.2-.2s.8,0,1.2.2c.4.2.7.4.9.6s.5.6.6.9c.2.4.2.7.2,1.1s0,.8-.2,1.2c-.1.4-.3.7-.6.9s-.6.5-.9.6c-.4.2-.8.2-1.2.2ZM570.8,62.2c.3,0,.5,0,.8-.2.2-.1.4-.3.6-.5.2-.2.3-.4.4-.6,0-.2.1-.5.1-.8s0-.5-.1-.7c0-.2-.2-.5-.4-.7-.2-.2-.4-.3-.6-.5-.2-.1-.5-.2-.8-.2s-.5,0-.8.2c-.2.1-.4.3-.6.5-.2.2-.3.4-.4.6,0,.2-.1.5-.1.7s0,.5.1.7c0,.2.2.5.4.6.2.2.4.3.6.5.2.1.5.2.8.2ZM575,63v-5c0-.2,0-.4,0-.6h1v.8c.1,0,.2-.2.3-.3.1-.1.2-.2.4-.3s.3-.2.5-.2c.2,0,.4,0,.7,0,.7,0,1.3.2,1.6.6s.5,1,.5,1.7v3.3h-1.1v-3.3c0-.5-.1-.9-.3-1.1-.2-.2-.5-.4-.9-.4s-.6,0-.8.2c-.2.1-.4.3-.5.5-.1.2-.2.4-.3.7,0,.3,0,.5,0,.8v2.6h-1.1ZM581.6,61.7h1.4v1.3h-1.4v-1.3Z" fill="#99a9bb" stroke-width="0"/>
</svg>