<?xml version="1.0" encoding="UTF-8"?>
<svg id="Layer_1" data-name="Layer 1" xmlns="http://www.w3.org/2000/svg" width="970" height="250" version="1.1" viewBox="0 0 970 250">
  <path d="M22.8,39.7h8.3v11.5h11.6v-11.5h8.3v31.3h-8.3v-12.3h-11.6v12.3h-8.3v-31.3ZM71.3,71.8c-2.3,0-4.5-.4-6.5-1.2-2-.8-3.7-2-5.2-3.4-1.4-1.5-2.6-3.2-3.4-5.2-.8-2-1.2-4.2-1.2-6.6s.4-4.6,1.2-6.6c.8-2,1.9-3.8,3.4-5.2,1.5-1.5,3.2-2.6,5.2-3.4,2-.8,4.2-1.2,6.5-1.2s4.5.4,6.5,1.2c2,.8,3.7,2,5.2,3.4,1.4,1.4,2.6,3.2,3.4,5.2.8,2,1.2,4.2,1.2,6.6s-.4,4.6-1.2,6.6c-.8,2-1.9,3.7-3.4,5.2-1.4,1.4-3.2,2.6-5.2,3.4-2,.8-4.2,1.2-6.5,1.2ZM71.3,64c1.2,0,2.3-.2,3.2-.7,1-.5,1.8-1.1,2.4-1.9.7-.8,1.2-1.7,1.5-2.8.3-1.1.5-2.2.5-3.4s-.2-2.3-.5-3.4c-.3-1.1-.8-2-1.5-2.8-.7-.8-1.5-1.4-2.4-1.8-.9-.5-2-.7-3.2-.7s-2.3.2-3.3.7c-.9.4-1.7,1-2.4,1.8-.7.8-1.2,1.7-1.5,2.8-.3,1.1-.5,2.2-.5,3.4s.2,2.3.5,3.4c.3,1.1.8,2,1.5,2.8.7.8,1.5,1.4,2.4,1.9,1,.4,2.1.7,3.3.7ZM93.5,61.1c.9.9,2,1.7,3.4,2.4,1.4.7,3,1.1,4.7,1.1s.8,0,1.3,0c.4,0,.8-.2,1.2-.4.3-.2.6-.4.8-.8.2-.3.3-.7.3-1.2,0-.8-.4-1.5-1.3-2-.8-.5-2-1.1-3.6-1.6l-1.7-.6c-1-.3-2-.7-3-1.2-1-.5-1.8-1.1-2.6-1.8-.8-.7-1.4-1.6-1.9-2.5-.5-1-.7-2.1-.7-3.4s.3-2.8.8-4c.5-1.3,1.3-2.3,2.3-3.2,1-.9,2.3-1.7,3.8-2.2,1.5-.5,3.2-.8,5.2-.8s2.9.1,4.2.4c1.3.3,2.3.6,3.3,1,.9.4,1.7.8,2.4,1.3.7.5,1.2.9,1.5,1.3l-4.2,5.4c-1.1-.8-2.2-1.5-3.4-2-1.2-.5-2.4-.8-3.7-.8s-.8,0-1.2.1c-.4,0-.8.2-1.1.4-.3.2-.6.4-.8.8-.2.3-.3.6-.3,1.1s.1.9.3,1.2c.3.3.6.6,1,.9.4.3.9.5,1.5.7.6.2,1.2.4,1.9.6l1.5.5c1.1.3,2.1.8,3.2,1.2,1.1.4,2.1,1,3,1.8.9.8,1.6,1.7,2.2,2.9.6,1.1.8,2.5.8,4.2s-.3,2.8-1,4c-.7,1.2-1.6,2.3-2.7,3.1-1.1.9-2.5,1.6-4,2-1.5.5-3.2.8-4.9.8-3.1,0-5.8-.4-7.9-1.2-2.1-.8-3.9-2-5.4-3.4l5-6.1ZM125.4,46.9h-9.6v-7.3h27.6v7.3h-9.5v24.1h-8.4v-24.1ZM146.7,39.7h12.8c1.7,0,3.2.2,4.6.7,1.4.4,2.6,1.1,3.5,2,1,.8,1.7,1.9,2.3,3.2.5,1.3.8,2.8.8,4.5s-.3,3.1-.8,4.4c-.5,1.3-1.3,2.4-2.3,3.3-.9.9-2.1,1.6-3.4,2.1-1.3.5-2.8.7-4.4.7h-4.9v10.4h-8.1v-31.3ZM158.7,54c1.1,0,2-.4,2.7-1.1.7-.7,1-1.6,1-2.8s-.3-2.1-.9-2.9-1.6-1.1-2.8-1.1h-3.9v7.8h3.9ZM174.2,39.7h8.3v24h14.5v7.3h-22.8v-31.3ZM199.7,39.7h8.3v18.4c0,1.7.4,3.1,1.2,4.2.8,1.1,2.1,1.6,4,1.6s3.2-.5,3.9-1.6c.8-1.1,1.2-2.5,1.2-4.2v-18.4h8.4v19.1c0,2-.3,3.8-1,5.5-.7,1.6-1.6,3-2.8,4.1-1.2,1.1-2.6,2-4.3,2.6-1.6.6-3.4.9-5.4.9s-3.8-.3-5.5-.9c-1.7-.6-3.1-1.4-4.3-2.5-1.2-1.1-2.1-2.5-2.8-4.1-.7-1.6-1-3.5-1-5.5v-19.1ZM234.2,61.1c.9.9,2,1.7,3.4,2.4s3,1.1,4.7,1.1.8,0,1.3,0c.4,0,.8-.2,1.2-.4.3-.2.6-.4.8-.8.2-.3.3-.7.3-1.2,0-.8-.4-1.5-1.3-2-.8-.5-2-1.1-3.6-1.6l-1.7-.6c-1-.3-2-.7-3-1.2-1-.5-1.8-1.1-2.6-1.8-.8-.7-1.4-1.6-1.9-2.5-.5-1-.7-2.1-.7-3.4s.3-2.8.8-4c.5-1.3,1.3-2.3,2.3-3.2,1-.9,2.3-1.7,3.8-2.2,1.5-.5,3.2-.8,5.2-.8s2.9.1,4.2.4c1.3.3,2.3.6,3.3,1,.9.4,1.7.8,2.4,1.3.7.5,1.2.9,1.5,1.3l-4.2,5.4c-1.1-.8-2.2-1.5-3.4-2-1.2-.5-2.4-.8-3.7-.8s-.8,0-1.2.1c-.4,0-.8.2-1.1.4-.3.2-.6.4-.8.8-.2.3-.3.6-.3,1.1s.1.9.3,1.2c.3.3.6.6,1,.9.4.3.9.5,1.5.7.6.2,1.2.4,1.9.6l1.5.5c1.1.3,2.1.8,3.2,1.2,1.1.4,2.1,1,3,1.8.9.8,1.6,1.7,2.2,2.9.6,1.1.8,2.5.8,4.2s-.3,2.8-1,4c-.7,1.2-1.6,2.3-2.7,3.1-1.1.9-2.5,1.6-4,2-1.5.5-3.2.8-4.9.8-3.1,0-5.8-.4-7.9-1.2-2.1-.8-3.9-2-5.4-3.4l5-6.1Z" fill="#fff" stroke-width="0"/>
  <path d="M22.8,83.2h12.7c2.2,0,4,.3,5.5.8,1.4.5,2.6,1.1,3.4,1.9.8.8,1.4,1.6,1.7,2.6.3,1,.5,1.9.5,2.9s-.2,1.7-.5,2.4c-.3.7-.7,1.4-1.1,1.9-.4.5-.9,1-1.5,1.4-.5.4-1,.6-1.5.8.6.2,1.3.5,2,.8s1.4.9,2,1.5c.6.6,1.2,1.4,1.6,2.3.4.9.7,1.9.7,3.1,0,3.1-1.1,5.4-3.3,6.9-2.2,1.4-5.3,2.1-9.5,2.1h-12.7v-31.3ZM34.6,95.7c1,0,1.8-.2,2.6-.7.8-.5,1.2-1.3,1.2-2.5s-.1-1.2-.3-1.6c-.2-.5-.5-.8-.9-1.1-.3-.3-.8-.4-1.2-.5-.4-.1-.9-.2-1.3-.2h-3.6v6.7h3.6ZM35.2,108.6c.5,0,1,0,1.6,0,.6,0,1.1-.3,1.6-.5.5-.3.9-.6,1.2-1.1s.5-1.2.5-2-.2-1.4-.5-1.9c-.3-.5-.7-.9-1.2-1.1-.5-.3-1-.4-1.6-.5-.6,0-1.1-.1-1.6-.1h-4.2v7.4h4.2ZM52.1,83.2h22.6v7.2h-14.2v4.8h11.7v6.8h-11.7v5.4h15.2v7.2h-23.5v-31.3ZM82.2,104.6c.9.9,2,1.7,3.4,2.4,1.4.7,3,1.1,4.7,1.1s.8,0,1.3,0c.4,0,.8-.2,1.2-.4.3-.2.6-.4.8-.8.2-.3.3-.7.3-1.2,0-.8-.4-1.5-1.3-2-.8-.5-2-1.1-3.6-1.6l-1.7-.6c-1-.3-2-.7-3-1.2-1-.5-1.8-1.1-2.6-1.8-.8-.7-1.4-1.6-1.9-2.5-.5-1-.7-2.1-.7-3.4s.3-2.8.8-4c.5-1.3,1.3-2.3,2.3-3.2,1-.9,2.3-1.7,3.8-2.2,1.5-.5,3.2-.8,5.2-.8s2.9.1,4.2.4c1.3.3,2.3.6,3.3,1,.9.4,1.7.8,2.4,1.3.7.5,1.2.9,1.5,1.3l-4.2,5.4c-1.1-.8-2.2-1.5-3.4-2-1.2-.5-2.4-.8-3.7-.8s-.8,0-1.2.1c-.4,0-.8.2-1.1.4-.3.2-.6.4-.8.8-.2.3-.3.6-.3,1.1s.1.9.3,1.2c.3.3.6.6,1,.9.4.3.9.5,1.5.7.6.2,1.2.4,1.9.6l1.5.5c1.1.3,2.1.8,3.2,1.2,1.1.4,2.1,1,3,1.8.9.8,1.6,1.7,2.2,2.9.6,1.1.8,2.5.8,4.2s-.3,2.8-1,4c-.7,1.2-1.6,2.3-2.7,3.1-1.1.9-2.5,1.6-4,2-1.5.5-3.2.8-4.9.8-3.1,0-5.8-.4-7.9-1.2-2.1-.8-3.9-2-5.4-3.4l5-6.1ZM114,90.4h-9.6v-7.3h27.6v7.3h-9.5v24.1h-8.4v-24.1ZM144.8,104.6c.9.9,2,1.7,3.4,2.4,1.4.7,3,1.1,4.7,1.1s.8,0,1.3,0c.4,0,.8-.2,1.2-.4.3-.2.6-.4.8-.8.2-.3.3-.7.3-1.2,0-.8-.4-1.5-1.3-2-.8-.5-2-1.1-3.6-1.6l-1.7-.6c-1-.3-2-.7-3-1.2-1-.5-1.8-1.1-2.6-1.8-.8-.7-1.4-1.6-1.9-2.5-.5-1-.7-2.1-.7-3.4s.3-2.8.8-4c.5-1.3,1.3-2.3,2.3-3.2,1-.9,2.3-1.7,3.8-2.2,1.5-.5,3.2-.8,5.2-.8s2.9.1,4.2.4c1.3.3,2.3.6,3.3,1,.9.4,1.7.8,2.4,1.3.7.5,1.2.9,1.5,1.3l-4.2,5.4c-1.1-.8-2.2-1.5-3.4-2-1.2-.5-2.4-.8-3.7-.8s-.8,0-1.2.1c-.4,0-.8.2-1.1.4-.3.2-.6.4-.8.8-.2.3-.3.6-.3,1.1s.1.9.3,1.2c.3.3.6.6,1,.9.4.3.9.5,1.5.7.6.2,1.2.4,1.9.6l1.5.5c1.1.3,2.1.8,3.2,1.2,1.1.4,2.1,1,3,1.8.9.8,1.6,1.7,2.2,2.9.6,1.1.8,2.5.8,4.2s-.3,2.8-1,4c-.7,1.2-1.6,2.3-2.7,3.1-1.1.9-2.5,1.6-4,2-1.5.5-3.2.8-4.9.8-3.1,0-5.8-.4-7.9-1.2-2.1-.8-3.9-2-5.4-3.4l5-6.1ZM169.4,83.2h8.3v18.4c0,1.7.4,3.1,1.2,4.2.8,1.1,2.1,1.6,4,1.6s3.2-.5,3.9-1.6c.8-1.1,1.2-2.5,1.2-4.2v-18.4h8.4v19.1c0,2-.3,3.8-1,5.5-.7,1.6-1.6,3-2.8,4.1-1.2,1.1-2.6,2-4.3,2.6-1.6.6-3.4.9-5.4.9s-3.8-.3-5.5-.9c-1.7-.6-3.1-1.4-4.3-2.5-1.2-1.1-2.1-2.5-2.8-4.1-.7-1.6-1-3.5-1-5.5v-19.1ZM201.4,83.2h12.8c1.7,0,3.2.2,4.6.7,1.4.4,2.6,1.1,3.5,2,1,.8,1.7,1.9,2.3,3.2.5,1.3.8,2.8.8,4.5s-.3,3.1-.8,4.4c-.5,1.3-1.3,2.4-2.3,3.3-.9.9-2.1,1.6-3.4,2.1-1.3.5-2.8.7-4.4.7h-4.9v10.4h-8.1v-31.3ZM213.5,97.5c1.1,0,2-.4,2.7-1.1.7-.7,1-1.6,1-2.8s-.3-2.1-.9-2.9c-.6-.7-1.6-1.1-2.8-1.1h-3.9v7.8h3.9ZM229,83.2h22.6v7.2h-14.2v4.8h11.7v6.8h-11.7v5.4h15.2v7.2h-23.5v-31.3ZM256.4,83.2h13c1.7,0,3.2.2,4.6.7,1.4.4,2.6,1.1,3.5,2,1,.8,1.7,1.9,2.3,3.2.5,1.3.8,2.8.8,4.5s-.5,3.9-1.4,5.4c-.9,1.5-2.1,2.7-3.6,3.6l6.7,12h-8.9l-5.3-10.7h-3.5v10.7h-8.1v-31.3ZM268.6,97.3c1.1,0,2-.3,2.7-1,.7-.7,1-1.6,1-2.7s-.3-2.1-1-2.8-1.6-1-2.8-1h-4v7.6h4ZM22.8,125.2h21.9v7.3h-13.5v6.1h10.5v6.9h-10.5v11.1h-8.3v-31.3ZM47.8,125.2h8.3v18.4c0,1.7.4,3.1,1.2,4.2.8,1.1,2.1,1.6,4,1.6s3.2-.5,3.9-1.6c.8-1.1,1.2-2.5,1.2-4.2v-18.4h8.4v19.1c0,2-.3,3.8-1,5.5-.7,1.6-1.6,3-2.8,4.1-1.2,1.1-2.6,2-4.3,2.6-1.6.6-3.4.9-5.4.9s-3.8-.3-5.5-.9c-1.7-.6-3.1-1.4-4.3-2.5-1.2-1.1-2.1-2.5-2.8-4.1-.7-1.6-1-3.5-1-5.5v-19.1ZM79.8,125.2h7.6l12,17.5v-17.5h8.2v31.3h-7.1l-12.5-18v18h-8.2v-31.3ZM112.7,125.2h12c2.4,0,4.6.3,6.7.9,2.1.6,3.9,1.6,5.4,2.9,1.5,1.3,2.7,2.9,3.5,4.9.8,2,1.3,4.4,1.3,7.1s-.4,4.9-1.3,6.8c-.8,1.9-2,3.5-3.5,4.8-1.5,1.3-3.3,2.3-5.4,2.9-2.1.6-4.3.9-6.7.9h-12v-31.3ZM124.5,149.2c2.7,0,4.8-.8,6.3-2.3,1.5-1.6,2.3-3.6,2.3-6.1s-.2-2.4-.5-3.4c-.3-1-.9-1.9-1.6-2.6-.7-.8-1.6-1.3-2.6-1.7-1.1-.4-2.3-.6-3.8-.6h-3.4v16.7h3.4ZM150.3,125.2h8.8l4,21,4.9-20.3h7.6l5,20.3,4-21h8.5l-7.8,31.3h-8.7l-4.9-19.8-4.9,19.8h-8.8l-7.6-31.3ZM195.9,125.2h8.3v31.3h-8.3v-31.3ZM209.4,125.2h7.6l12,17.5v-17.5h8.2v31.3h-7.1l-12.5-18v18h-8.2v-31.3ZM242.4,125.2h7.6l12,17.5v-17.5h8.2v31.3h-7.1l-12.5-18v18h-8.2v-31.3ZM275.3,125.2h22.6v7.2h-14.2v4.8h11.7v6.8h-11.7v5.4h15.2v7.2h-23.5v-31.3ZM302.7,125.2h13c1.7,0,3.2.2,4.6.7,1.4.4,2.6,1.1,3.5,2,1,.8,1.7,1.9,2.3,3.2.5,1.3.8,2.8.8,4.5s-.5,3.9-1.4,5.4c-.9,1.5-2.1,2.7-3.6,3.6l6.7,12h-8.9l-5.3-10.7h-3.5v10.7h-8.1v-31.3ZM314.9,139.3c1.1,0,2-.3,2.7-1,.7-.7,1-1.6,1-2.7s-.3-2.1-1-2.8c-.7-.7-1.6-1-2.8-1h-4v7.6h4Z" fill="#ffd000" stroke-width="0"/>
  <path d="M29.2,222v-22.9h-9.2v-6.9h26.2v6.9h-9.1v22.9h-8Z" fill="#fff" stroke-width="0"/>
  <path d="M48.9,222v-29.8h7.9v10.9h11v-10.9h7.9v29.8h-7.9v-11.7h-11v11.7h-7.9Z" fill="#fff" stroke-width="0"/>
  <path d="M77.7,222l10.9-29.8h9.1l10.5,29.8h-8.5l-1.9-6.2h-10l-2,6.2h-8.2ZM89.4,210.1h6.7l-3.3-10.9-3.4,10.9Z" fill="#fff" stroke-width="0"/>
  <path d="M112.6,222v-22.9h-9.2v-6.9h26.2v6.9h-9.1v22.9h-8Z" fill="#fff" stroke-width="0"/>
  <path d="M131.6,203.3l1.2-11.1h7.9l-3.4,11.1h-5.6Z" fill="#fff" stroke-width="0"/>
  <path d="M138.6,218.4l4.8-5.8c.8.8,1.9,1.6,3.3,2.3,1.4.7,2.8,1,4.4,1s1.6-.2,2.3-.5c.7-.3,1.1-1,1.1-1.9s-.4-1.4-1.2-1.9c-.8-.5-2-1-3.4-1.5l-1.7-.5c-1.2-.4-2.4-1-3.7-1.7-1.2-.7-2.2-1.6-3-2.7-.8-1.1-1.2-2.5-1.2-4.1s.4-3.5,1.3-5c.9-1.5,2.2-2.6,3.9-3.4,1.7-.9,3.8-1.3,6.3-1.3s3.7.2,5.1.7c1.5.4,2.7,1,3.6,1.6,1,.6,1.7,1.1,2.1,1.6l-4,5.1c-1-.8-2.1-1.4-3.3-1.9-1.1-.5-2.3-.8-3.5-.8s-1.5.2-2.2.5c-.7.3-1,.9-1,1.7s.4,1.6,1.3,2c.8.4,1.9.8,3.2,1.3l1.4.4c1,.3,2,.7,3,1.2,1,.4,2,1,2.9,1.7.9.7,1.5,1.6,2.1,2.7.5,1.1.8,2.4.8,4s-.6,3.4-1.7,4.9c-1.1,1.4-2.5,2.5-4.4,3.4-1.8.8-3.8,1.2-6.1,1.2s-5.5-.4-7.5-1.2c-2-.8-3.7-1.9-5.1-3.2Z" fill="#fff" stroke-width="0"/>
  <path d="M170.3,222l11-29.9h9.1l10.6,29.9h-8.6l-1.9-6.2h-10l-2,6.2h-8.2ZM182.1,210h6.8l-3.3-11-3.5,11Z" fill="#ffd000" stroke-width="0"/>
  <path d="M212.4,222v-29.9h12.2c3.2,0,5.8.9,7.7,2.6,1.9,1.7,2.9,4.1,2.9,7.4s-.4,3.8-1.3,5.3c-.9,1.5-2.1,2.7-3.7,3.5-1.6.8-3.4,1.2-5.4,1.2h-4.7v10h-7.8ZM220.2,205.8h3.8c1.1,0,1.9-.3,2.6-1,.6-.7.9-1.6.9-2.6s-.3-2-.9-2.7c-.6-.7-1.5-1-2.6-1h-3.7v7.4Z" fill="#ffd000" stroke-width="0"/>
  <path d="M237.8,222v-29.9h7.9v22.9h13.9v7h-21.8Z" fill="#ffd000" stroke-width="0"/>
  <path d="M261.7,210.3v-18.3h7.9v17.5c0,1.6.4,3,1.1,4,.8,1,2,1.6,3.8,1.6s3-.5,3.8-1.6c.7-1.1,1.1-2.4,1.1-4v-17.5h8v18.3c0,2.5-.6,4.8-1.7,6.6-1.1,1.9-2.6,3.3-4.6,4.3-1.9,1-4.1,1.5-6.6,1.5s-4.7-.5-6.7-1.5c-1.9-1-3.5-2.4-4.6-4.3-1.1-1.9-1.7-4.1-1.7-6.7Z" fill="#ffd000" stroke-width="0"/>
  <path d="M289.8,218.3l4.8-5.8c.8.8,1.9,1.6,3.3,2.3,1.4.7,2.9,1,4.4,1s1.6-.2,2.3-.5c.7-.3,1.1-1,1.1-1.9s-.4-1.4-1.2-1.9c-.8-.5-2-1-3.5-1.5l-1.7-.5c-1.2-.4-2.5-1-3.7-1.7-1.2-.7-2.2-1.6-3-2.7-.8-1.1-1.2-2.5-1.2-4.1s.4-3.5,1.3-5c.9-1.5,2.2-2.6,3.9-3.5,1.7-.9,3.8-1.3,6.3-1.3s3.7.2,5.1.7c1.5.4,2.7,1,3.6,1.6,1,.6,1.7,1.1,2.1,1.6l-4,5.1c-1-.8-2.1-1.4-3.3-1.9-1.1-.5-2.3-.8-3.5-.8s-1.5.2-2.2.5c-.7.3-1,.9-1,1.8s.4,1.6,1.3,2c.8.4,1.9.8,3.2,1.3l1.4.4c1,.3,2,.7,3.1,1.2,1,.4,2,1,2.9,1.8.9.7,1.6,1.6,2.1,2.7.5,1.1.8,2.4.8,4s-.6,3.5-1.7,4.9c-1.1,1.4-2.5,2.6-4.4,3.4-1.8.8-3.9,1.2-6.1,1.2s-5.5-.4-7.5-1.2c-2-.8-3.7-1.9-5.1-3.2Z" fill="#ffd000" stroke-width="0"/>
  <path d="M321.3,221.9v-4.6h-4.5v-4.5h4.5v-4.7h4.7v4.7h4.5v4.5h-4.5v4.6h-4.7Z" fill="#ffd000" stroke-width="0"/>
  <rect x="783" y="100.3" width="167" height="49.4" fill="#ffd000" stroke-width="0"/>
  <path d="M807.7,128.2c-.2.3-.5.6-.8.8-.3.2-.6.5-1,.7-.4.2-.8.3-1.2.4-.4.1-.9.2-1.3.2-.8,0-1.5-.1-2.1-.4-.6-.3-1.2-.6-1.6-1.1-.5-.5-.8-1-1-1.7-.2-.6-.4-1.3-.4-2.1s.1-1.4.4-2.1c.2-.6.6-1.2,1-1.7.5-.5,1-.9,1.6-1.1.6-.3,1.3-.4,2.1-.4s1.7.2,2.4.5c.7.3,1.3.8,1.7,1.5l-1.5,1.5c-.3-.4-.7-.8-1.1-1-.4-.3-.9-.4-1.5-.4s-.9,0-1.2.3c-.4.2-.7.4-.9.7s-.4.6-.6,1c-.1.4-.2.8-.2,1.2s0,.8.2,1.2c.1.4.3.7.6,1s.6.5.9.7c.3.2.7.2,1.2.2s.7,0,.9-.1c.3,0,.5-.2.7-.3.2-.1.4-.3.6-.4.2-.2.3-.3.5-.5l1.5,1.4ZM812.3,128.4c.3,0,.5,0,.7-.2.2-.1.4-.3.5-.4.1-.2.3-.4.3-.6,0-.2.1-.5.1-.7s0-.5-.1-.7c0-.2-.2-.4-.3-.6-.1-.2-.3-.3-.5-.4-.2-.1-.5-.2-.7-.2s-.5,0-.7.2c-.2,0-.4.2-.5.4-.1.2-.2.4-.3.6,0,.2-.1.4-.1.7s0,.5.1.7c0,.2.2.4.3.6.1.2.3.3.5.4.2.1.5.2.7.2ZM808.5,126.5c0-.5,0-1,.3-1.5.2-.5.4-.9.8-1.2.3-.3.7-.6,1.2-.8.5-.2,1-.3,1.5-.3s1.1,0,1.5.3c.5.2.9.5,1.2.8.3.3.6.7.8,1.2.2.5.3.9.3,1.5s0,1-.3,1.5c-.2.5-.4.8-.8,1.2-.3.3-.7.6-1.2.8s-1,.3-1.5.3-1.1-.1-1.5-.3c-.5-.2-.9-.5-1.2-.8-.3-.3-.6-.7-.8-1.2-.2-.5-.3-.9-.3-1.5ZM817.4,123h2.1v.8c.3-.3.6-.5.9-.7.3-.2.7-.3,1.2-.3s.5,0,.8,0c.2,0,.4.1.6.2.2,0,.3.2.4.3.1.1.2.2.3.3.3-.3.6-.6,1-.7.4-.2.9-.3,1.3-.3.9,0,1.6.3,2.1.8.5.5.7,1.2.7,2.1v4.3h-2.2v-4c0-.4,0-.7-.3-1-.2-.2-.5-.3-.8-.3s-.8.1-1,.4-.4.7-.4,1.1v3.8h-2.1v-4c0-.4,0-.7-.3-1-.2-.2-.5-.3-.8-.3s-.7.1-1,.4c-.2.3-.4.7-.4,1.1v3.8h-2.2v-7ZM830.3,123h2.1c0,.1,0,.3,0,.4,0,.1,0,.2,0,.4.2-.3.5-.5.9-.7.4-.2.7-.2,1.1-.2s1,0,1.3.3c.4.2.7.5,1,.8.3.3.5.7.6,1.2.1.4.2.9.2,1.3s-.1,1.2-.3,1.7c-.2.5-.5.9-.9,1.2-.3.3-.7.5-1.2.7s-.9.2-1.3.2-.6,0-.8,0c-.2,0-.4-.1-.6-.2v3h-2.1v-10ZM832.5,128.1c.3.2.7.3,1.2.3s.9-.2,1.2-.5c.3-.4.5-.8.5-1.4s0-.5,0-.7c0-.2-.1-.4-.3-.6-.1-.2-.3-.3-.5-.4-.2,0-.4-.1-.7-.1s-.5,0-.6.1c-.2,0-.3.2-.5.4-.1.2-.2.3-.3.5,0,.2,0,.4,0,.6v1.9ZM843,129.3c-.2.3-.5.5-.9.6-.4.1-.8.2-1.2.2s-.5,0-.8-.1c-.3,0-.5-.2-.8-.3-.2-.2-.4-.4-.6-.7-.2-.3-.2-.6-.2-1.1s0-.8.2-1.1c.2-.3.4-.6.7-.8.3-.2.6-.4,1-.5.4-.1.8-.2,1.3-.2s.5,0,.8,0c.3,0,.4,0,.5,0v-.2c0-.2,0-.3-.1-.4,0-.1-.2-.2-.3-.3-.1,0-.3-.1-.4-.2-.2,0-.3,0-.5,0-.5,0-.9,0-1.2.2-.3.1-.6.3-.8.4l-.9-1.3c.1-.1.3-.2.5-.3s.4-.2.7-.3c.3,0,.5-.2.9-.2.3,0,.7,0,1.1,0,1.1,0,1.9.3,2.4.9.5.6.8,1.3.8,2.3v4.1h-2v-.7ZM843,126.9s-.1,0-.3,0c-.1,0-.3,0-.5,0-.6,0-1,0-1.3.3-.2.2-.4.4-.4.7,0,.6.3.9,1,.9s.3,0,.5,0c.2,0,.3-.1.4-.2.1-.1.2-.2.3-.4s.1-.3.1-.5v-.6ZM846.6,123h2.1v.9c.3-.2.5-.5.8-.7.3-.2.7-.3,1.2-.3s.3,0,.5,0c.1,0,.3,0,.4.1l-.3,1.9c-.2,0-.5-.1-.8-.1-.5,0-.9.2-1.2.5-.3.3-.5.7-.5,1.3v3.5h-2.2v-7ZM859,129.2c0,0-.2.1-.4.3-.2.1-.4.2-.6.3-.2.1-.6.2-.9.3-.3,0-.8.1-1.2.1s-1.1,0-1.6-.3c-.5-.2-.9-.4-1.2-.8-.3-.3-.6-.7-.8-1.2-.2-.5-.3-1-.3-1.5s0-1,.2-1.4c.2-.5.4-.9.7-1.2.3-.3.7-.6,1.1-.8.5-.2,1-.3,1.5-.3s1.1,0,1.5.3c.4.2.8.5,1.1.8.3.3.5.8.7,1.3.1.5.2,1,.2,1.6v.4h-5c0,.4.2.7.5,1,.3.3.8.4,1.3.4s1,0,1.4-.2c.3-.2.6-.3.8-.4l.9,1.4ZM857.1,125.7c0-.2,0-.3,0-.4,0-.2-.1-.3-.3-.4-.1-.1-.3-.2-.5-.3-.2,0-.4-.1-.6-.1s-.5,0-.7.1c-.2,0-.4.2-.5.3-.1.1-.2.3-.3.4,0,.2,0,.3,0,.4h3ZM863.3,120h2.3v3.8h4.3v-3.8h2.3v10h-2.3v-4.1h-4.3v4.1h-2.3v-10ZM877.4,128.4c.3,0,.5,0,.7-.2.2-.1.4-.3.5-.4.2-.2.3-.4.3-.6,0-.2.1-.5.1-.7s0-.5-.1-.7c0-.2-.2-.4-.3-.6-.1-.2-.3-.3-.5-.4-.2-.1-.4-.2-.7-.2s-.5,0-.7.2c-.2,0-.4.2-.5.4-.1.2-.2.4-.3.6,0,.2-.1.4-.1.7s0,.5.1.7c0,.2.2.4.3.6s.3.3.5.4c.2.1.5.2.7.2ZM873.6,126.5c0-.5,0-1,.3-1.5.2-.5.5-.9.8-1.2.3-.3.7-.6,1.2-.8.5-.2,1-.3,1.5-.3s1.1,0,1.5.3c.5.2.9.5,1.2.8.3.3.6.7.8,1.2.2.5.3.9.3,1.5s0,1-.3,1.5c-.2.5-.4.8-.8,1.2-.3.3-.7.6-1.2.8-.5.2-1,.3-1.5.3s-1.1-.1-1.5-.3c-.5-.2-.9-.5-1.2-.8-.3-.3-.6-.7-.8-1.2-.2-.5-.3-.9-.3-1.5ZM883.2,127.8c.2.2.5.4.9.5.4.1.7.2,1.1.2s.6,0,.8-.1.3-.2.3-.5,0-.2,0-.2c0,0-.1-.2-.2-.2-.1,0-.3-.1-.5-.2-.2,0-.5-.2-.8-.2-.3,0-.5-.2-.8-.3-.3-.1-.5-.3-.7-.4-.2-.2-.4-.4-.5-.6-.1-.2-.2-.5-.2-.8s0-.6.2-.9c.2-.3.4-.5.6-.7.3-.2.6-.3.9-.4.4-.1.8-.2,1.2-.2.6,0,1.1,0,1.6.2.5.1.9.3,1.2.6l-.9,1.4c-.2-.2-.5-.3-.8-.4-.3-.1-.6-.2-1-.2s-.6,0-.7.2c-.1,0-.2.2-.2.4,0,.2.2.4.5.5.3.1.7.2,1.3.4.7.2,1.2.5,1.6.8.3.3.5.8.5,1.4s0,.7-.3,1c-.2.3-.4.5-.7.7-.3.2-.6.3-1,.4-.4,0-.8.1-1.1.1-.6,0-1.2,0-1.8-.3s-1-.4-1.4-.8l1.1-1.4ZM890.1,124.7h-1.1v-1.7h1.1v-2.1h2.2v2.1h1.8v1.7h-1.8v2.8c0,.3,0,.6.2.8.1.2.4.3.6.3s.4,0,.6-.1c.2,0,.3-.2.5-.3l.9,1.3c-.7.5-1.4.8-2.2.8s-.9,0-1.3-.2c-.3-.1-.6-.3-.8-.6-.2-.3-.4-.6-.5-.9s-.1-.8-.1-1.2v-2.7ZM895.8,123h2.1c0,.1,0,.3,0,.4,0,.1,0,.2,0,.4.2-.3.5-.5.9-.7.4-.2.7-.2,1.1-.2s1,0,1.3.3c.4.2.7.5,1,.8.3.3.5.7.6,1.2.1.4.2.9.2,1.3s-.1,1.2-.3,1.7c-.2.5-.5.9-.9,1.2s-.7.5-1.2.7-.9.2-1.3.2-.6,0-.8,0c-.2,0-.4-.1-.6-.2v3h-2.1v-10ZM898,128.1c.3.2.7.3,1.2.3s.9-.2,1.2-.5c.3-.4.5-.8.5-1.4s0-.5,0-.7c0-.2-.1-.4-.3-.6-.1-.2-.3-.3-.5-.4-.2,0-.4-.1-.7-.1s-.5,0-.6.1c-.2,0-.3.2-.5.4-.1.2-.2.3-.3.5,0,.2,0,.4,0,.6v1.9ZM904.4,120h2.2v10h-2.2v-10ZM908.1,123h2.2v4.1c0,.4,0,.7.3.9.2.2.5.3.9.3s.4,0,.6-.1c.2,0,.3-.2.4-.3.1-.1.2-.3.3-.5s0-.4,0-.6v-3.8h2.1v7h-2.1v-.8c-.3.3-.6.5-1,.7-.4.2-.8.3-1.2.3-.8,0-1.4-.2-1.9-.7-.5-.5-.7-1.2-.7-2.1v-4.4ZM917.2,127.8c.2.2.5.4.9.5.4.1.7.2,1.1.2s.6,0,.8-.1c.2,0,.3-.2.3-.5s0-.2,0-.2c0,0-.1-.2-.2-.2-.1,0-.3-.1-.5-.2-.2,0-.5-.2-.8-.2-.3,0-.5-.2-.8-.3-.3-.1-.5-.3-.7-.4-.2-.2-.4-.4-.5-.6-.1-.2-.2-.5-.2-.8s0-.6.2-.9c.2-.3.4-.5.6-.7.3-.2.6-.3.9-.4.4-.1.8-.2,1.2-.2.6,0,1.1,0,1.6.2.5.1.9.3,1.2.6l-.9,1.4c-.2-.2-.5-.3-.8-.4-.3-.1-.6-.2-1-.2s-.6,0-.7.2c-.2,0-.2.2-.2.4,0,.2.2.4.5.5.3.1.7.2,1.3.4.7.2,1.2.5,1.6.8.3.3.5.8.5,1.4s0,.7-.3,1c-.2.3-.4.5-.7.7-.3.2-.6.3-1,.4-.4,0-.8.1-1.1.1-.6,0-1.2,0-1.8-.3s-1-.4-1.4-.8l1.1-1.4Z" fill="#002855" stroke-width="0"/>
  <path d="M930.2,119.9l5.1,5.1-5.1,5.1" fill="none" stroke="#002855" stroke-linecap="round" stroke-width="2.1"/>
  <rect x=".5" y=".5" width="969" height="249" fill="none" stroke="#000"/>
</svg>