<?xml version="1.0" encoding="UTF-8"?>
<svg id="Layer_1" data-name="Layer 1" xmlns="http://www.w3.org/2000/svg" width="300" height="900" version="1.1" viewBox="0 0 300 900">
  <path id="terms" d="M185.1,743.8l2.1-5.3h.8l2.1,5.3h-.9l-.6-1.5h-2.2l-.6,1.5h-.8ZM186.7,741.6h1.7l-.9-2.3-.9,2.3ZM191.2,743.8l-1.3-3.7h.8l.8,2.8.9-2.8h.6l.9,2.9.8-2.9h.7l-1.2,3.7h-.7l-.9-2.6-.9,2.6h-.7ZM198.5,743.8v-.4c-.2.2-.3.3-.6.4-.2,0-.5.1-.7.1s-.4,0-.6-.1c-.2,0-.4-.2-.5-.4-.1-.2-.2-.4-.2-.7,0-.4.1-.7.4-1,.3-.2.7-.4,1.2-.4s.2,0,.4,0c.1,0,.2,0,.3,0,.1,0,.2,0,.2,0h0c0-.4,0-.6-.3-.7-.2-.1-.4-.2-.7-.2s-.5,0-.7.1c-.2,0-.3.2-.4.2l-.3-.5c.1-.1.3-.2.6-.3.2-.1.6-.2,1-.2s.9.1,1.1.4c.3.2.4.6.4,1v2.2h0c0,.2,0,.3,0,.3h-.7ZM198.5,742.4v-.4s0,0-.2,0c0,0-.2,0-.3,0-.1,0-.2,0-.3,0-.3,0-.5,0-.6.1-.1,0-.2.2-.3.3,0,.1,0,.2,0,.3,0,.2,0,.3.2.5.1.1.3.2.6.2s.4,0,.5-.1c.2,0,.3-.2.4-.3.1-.1.2-.3.2-.4ZM200.9,743.8h-.7v-3.4h0c0-.2,0-.3,0-.4h.7v.6c0,0,.2-.2.3-.3.1-.1.2-.2.4-.3.2,0,.4-.1.6-.1s.2,0,.2,0c0,0,.1,0,.2,0l-.2.7c0,0-.2,0-.4,0s-.4,0-.6.2c-.2.1-.3.2-.4.4,0,.2-.1.4-.1.6v2ZM205.6,743.8v-.5c0,0-.1.1-.2.2,0,0-.2.2-.4.3-.2,0-.4.1-.6.1s-.6,0-.8-.2c-.3-.2-.4-.4-.6-.7-.1-.3-.2-.6-.2-1s0-.7.2-.9c.1-.3.3-.5.5-.6.2-.2.4-.3.6-.4.2,0,.4-.1.6-.1s.4,0,.5,0c.1,0,.3.1.4.2v-1.8h.7v5.1c0,0,0,.1,0,.2h-.7ZM205.6,742.2v-1.3c0,0-.2-.1-.4-.2-.1,0-.3,0-.5,0-.3,0-.6.1-.9.4-.2.2-.3.6-.3,1s0,.4.1.6c0,.2.2.4.4.5.2.1.4.2.6.2s.4,0,.6-.2c.2-.1.3-.3.3-.4,0-.2.1-.3.1-.5ZM207.1,743.3l.4-.5c.1.1.3.2.5.3.2,0,.4.1.6.1s.4,0,.6-.1c.2,0,.2-.2.2-.4s0-.2,0-.3c0,0-.2-.1-.3-.2-.2,0-.4-.1-.6-.2-.2,0-.4-.1-.6-.2-.2,0-.3-.2-.4-.3-.1-.1-.2-.3-.2-.6s0-.4.2-.6c.1-.2.3-.3.6-.4.2,0,.5-.1.7-.1s.6,0,.8.1c.2,0,.4.2.6.3l-.4.5c-.1-.1-.3-.2-.4-.3-.2,0-.4-.1-.6-.1s-.4,0-.6.1c-.1,0-.2.2-.2.4s0,.3.3.4c.2,0,.4.1.7.2.2,0,.4.1.6.2.2,0,.3.2.5.4.1.1.2.3.2.6s0,.5-.2.6c-.1.2-.3.3-.6.4-.2,0-.5.1-.8.1-.7,0-1.2-.2-1.6-.6ZM214.8,743.8v-.4c-.1.2-.3.3-.6.4-.2,0-.5.1-.7.1s-.4,0-.6-.1c-.2,0-.4-.2-.5-.4-.1-.2-.2-.4-.2-.7,0-.4.1-.7.4-1,.3-.2.7-.4,1.2-.4s.2,0,.4,0c.1,0,.2,0,.3,0,.1,0,.2,0,.2,0h0c0-.4,0-.6-.3-.7-.2-.1-.4-.2-.7-.2s-.5,0-.7.1c-.2,0-.3.2-.4.2l-.3-.5c.1-.1.3-.2.6-.3.2-.1.6-.2,1-.2s.9.1,1.1.4c.3.2.4.6.4,1v2.2h0c0,.2,0,.3,0,.3h-.7ZM214.8,742.4v-.4s0,0-.2,0c0,0-.2,0-.3,0-.1,0-.2,0-.3,0-.3,0-.5,0-.6.1-.1,0-.2.2-.3.3,0,.1,0,.2,0,.3,0,.2,0,.3.2.5.1.1.3.2.6.2s.4,0,.5-.1c.2,0,.3-.2.4-.3.1-.1.2-.3.2-.4ZM217.2,743.8h-.7v-3.3h0c0-.2,0-.3,0-.4h.7v.6c0,0,.2-.2.3-.3.1-.1.2-.2.4-.3.2,0,.4-.1.6-.1.5,0,.8.1,1.1.4.2.3.4.7.4,1.1v2.2h-.7v-2.2c0-.3,0-.6-.2-.8-.1-.2-.4-.2-.6-.2s-.5,0-.6.2c-.2.1-.3.3-.3.5,0,.2,0,.5,0,.7v1.7ZM223.5,743.8v-.5c0,0-.1.1-.2.2,0,0-.2.2-.4.3-.2,0-.4.1-.6.1s-.6,0-.8-.2c-.3-.2-.4-.4-.6-.7-.1-.3-.2-.6-.2-1s0-.7.2-.9c.1-.3.3-.5.5-.6.2-.2.4-.3.6-.4.2,0,.4-.1.6-.1s.4,0,.5,0c.1,0,.3.1.4.2v-1.8h.7v5.1c0,0,0,.1,0,.2h-.7ZM223.5,742.2v-1.3c0,0-.2-.1-.4-.2-.1,0-.3,0-.5,0-.3,0-.6.1-.9.4-.2.2-.3.6-.3,1s0,.4.1.6c0,.2.2.4.4.5.2.1.4.2.6.2s.4,0,.6-.2c.2-.1.3-.3.3-.4,0-.2.1-.3.1-.5ZM227.4,743.8h-.7v-3.4h0c0-.2,0-.3,0-.4h.7v.6c0,0,.2-.2.3-.3.1-.1.2-.2.4-.3.2,0,.4-.1.6-.1s.2,0,.2,0c0,0,.1,0,.2,0l-.2.7c0,0-.2,0-.4,0s-.4,0-.6.2c-.2.1-.3.2-.4.4,0,.2-.1.4-.1.6v2ZM231.8,743.8v-.4c-.1.2-.3.3-.6.4-.2,0-.5.1-.7.1s-.4,0-.6-.1c-.2,0-.4-.2-.5-.4-.1-.2-.2-.4-.2-.7,0-.4.1-.7.4-1,.3-.2.7-.4,1.2-.4s.2,0,.4,0c.1,0,.2,0,.3,0,.1,0,.2,0,.2,0h0c0-.4,0-.6-.3-.7-.2-.1-.4-.2-.7-.2s-.5,0-.7.1c-.2,0-.3.2-.4.2l-.3-.5c.1-.1.3-.2.6-.3.2-.1.6-.2,1-.2s.9.1,1.1.4c.3.2.4.6.4,1v2.2h0c0,.2,0,.3,0,.3h-.7ZM231.8,742.4v-.4s0,0-.2,0c0,0-.2,0-.3,0-.1,0-.2,0-.3,0-.3,0-.5,0-.6.1-.1,0-.2.2-.3.3,0,.1,0,.2,0,.3,0,.2,0,.3.2.5.1.1.3.2.6.2s.4,0,.5-.1c.2,0,.3-.2.4-.3.1-.1.2-.3.2-.4ZM233.8,742.5v-1.9h-.7v-.6h.7v-1.2h.7v1.2h1.1v.6h-1.1v1.8c0,.3,0,.5.1.6,0,.1.2.2.4.2s.3,0,.3,0c0,0,.2-.1.3-.2l.3.4c-.2.1-.3.3-.5.3-.2,0-.4.1-.6.1-.4,0-.7-.1-.9-.3-.2-.2-.3-.6-.3-1ZM236.5,739.4v-.8h.8v.8h-.8ZM236.6,743.8v-3.7h.7v3.7h-.7ZM239,743.8h-.7v-3.3h0c0-.2,0-.3,0-.4h.7v.6c0,0,.2-.2.3-.3.1-.1.2-.2.4-.3.2,0,.4-.1.6-.1.5,0,.8.1,1.1.4.2.3.4.7.4,1.1v2.2h-.7v-2.2c0-.3,0-.6-.2-.8-.1-.2-.4-.2-.6-.2s-.5,0-.6.2c-.2.1-.3.3-.3.5,0,.2,0,.5,0,.7v1.7ZM242.8,745l.3-.5c.1,0,.3.2.4.2.2,0,.4,0,.7,0s.6,0,.8-.3c.2-.2.3-.5.3-.8v-.5s-.1.1-.2.2c0,0-.2.1-.4.2-.1,0-.3,0-.6,0-.4,0-.7,0-.9-.2-.3-.2-.4-.4-.6-.7-.1-.3-.2-.6-.2-1s0-.7.3-1c.2-.3.4-.5.7-.7.3-.2.7-.3,1.1-.3s.6,0,.8,0c.3,0,.5.1.6.2v3.6c0,.5-.2.9-.5,1.2-.3.3-.8.4-1.3.4s-.7,0-.9-.1c-.2,0-.4-.2-.5-.3ZM245.3,742.2v-1.5s-.1,0-.2,0c-.1,0-.3,0-.5,0s-.5,0-.7.2c-.2.1-.4.3-.5.5-.1.2-.2.4-.2.7s0,.4.1.6c0,.2.2.3.4.4.2.1.4.2.6.2s.4,0,.6-.1c.2,0,.3-.2.3-.3,0-.1.1-.3.1-.4ZM246.8,743.3l.4-.5c.1.1.3.2.5.3.2,0,.4.1.6.1s.4,0,.6-.1c.2,0,.2-.2.2-.4s0-.2,0-.3c0,0-.2-.1-.3-.2-.2,0-.4-.1-.6-.2-.2,0-.4-.1-.6-.2-.2,0-.3-.2-.4-.3-.1-.1-.2-.3-.2-.6s0-.4.2-.6c.1-.2.3-.3.6-.4.2,0,.5-.1.7-.1s.6,0,.8.1c.2,0,.4.2.6.3l-.4.5c-.1-.1-.3-.2-.4-.3-.2,0-.4-.1-.6-.1s-.4,0-.6.1c-.1,0-.2.2-.2.4s0,.3.3.4c.2,0,.4.1.7.2.2,0,.4.1.6.2.2,0,.3.2.5.4.1.1.2.3.2.6s0,.5-.2.6c-.1.2-.3.3-.6.4-.2,0-.5.1-.8.1-.7,0-1.2-.2-1.6-.6ZM254.6,743.8v-.4c-.2.2-.3.3-.6.4-.2,0-.5.1-.7.1s-.4,0-.6-.1c-.2,0-.4-.2-.5-.4-.1-.2-.2-.4-.2-.7,0-.4.1-.7.4-1,.3-.2.7-.4,1.2-.4s.2,0,.4,0c.1,0,.2,0,.3,0,.1,0,.2,0,.2,0h0c0-.4,0-.6-.3-.7-.2-.1-.4-.2-.7-.2s-.5,0-.7.1c-.2,0-.3.2-.4.2l-.3-.5c.1-.1.3-.2.6-.3.2-.1.6-.2,1-.2s.9.1,1.1.4c.3.2.4.6.4,1v2.2h0c0,.2,0,.3,0,.3h-.7ZM254.6,742.4v-.4s0,0-.2,0c0,0-.2,0-.3,0-.1,0-.2,0-.3,0-.3,0-.5,0-.6.1-.1,0-.2.2-.3.3,0,.1,0,.2,0,.3,0,.2,0,.3.2.5.1.1.3.2.6.2s.4,0,.5-.1c.2,0,.3-.2.4-.3.1-.1.2-.3.2-.4ZM257,743.8h-.7v-3.4h0c0-.2,0-.3,0-.4h.7v.6c0,0,.2-.2.3-.3.1-.1.2-.2.4-.3.2,0,.4-.1.6-.1s.2,0,.2,0c0,0,.1,0,.2,0l-.2.7c0,0-.2,0-.4,0s-.4,0-.6.2c-.2.1-.3.2-.4.4,0,.2-.1.4-.1.6v2ZM261.9,742.8l.4.4c0,0-.1.1-.3.3-.1.1-.3.2-.5.3-.2,0-.5.1-.8.1s-.7,0-1-.2c-.3-.2-.5-.4-.7-.7-.2-.3-.2-.7-.2-1s0-.7.2-1c.2-.3.4-.5.7-.7.3-.2.6-.3,1-.3s.8.1,1,.3c.3.2.5.5.6.8.1.3.2.7.2,1.1h-2.9c0,.2,0,.4.2.6.1.2.3.3.4.4.2,0,.4.1.6.1.3,0,.6,0,.8-.2.2-.1.4-.2.4-.3ZM259.5,741.6h2.2c0-.3-.1-.5-.3-.7-.2-.2-.4-.3-.8-.3s-.4,0-.6.2c-.2.1-.3.2-.4.4,0,.2-.1.3-.1.5ZM266.5,743.9c-.4,0-.7,0-1-.3-.3-.2-.5-.4-.7-.7-.2-.3-.2-.6-.2-1s0-.7.2-1c.2-.3.4-.5.7-.7.3-.2.6-.3,1-.3s.7,0,1,.3c.3.2.5.4.7.7.2.3.3.6.3,1s0,.7-.3,1c-.2.3-.4.5-.7.7-.3.2-.6.3-1,.3ZM266.5,743.2c.3,0,.5,0,.7-.2.2-.1.3-.3.4-.5.1-.2.2-.4.2-.6s0-.4-.2-.6c0-.2-.2-.4-.4-.5-.2-.1-.4-.2-.7-.2s-.5,0-.7.2c-.2.1-.3.3-.4.5,0,.2-.1.4-.1.6s0,.4.2.6c.1.2.2.4.4.5.2.1.4.2.7.2ZM270,743.8h-.7v-3.3h0c0-.2,0-.3,0-.4h.7v.6c0,0,.2-.2.3-.3.1-.1.2-.2.4-.3.2,0,.4-.1.6-.1.5,0,.8.1,1.1.4.2.3.4.7.4,1.1v2.2h-.7v-2.2c0-.3,0-.6-.2-.8-.1-.2-.4-.2-.6-.2s-.5,0-.6.2c-.2.1-.3.3-.3.5,0,.2,0,.5,0,.7v1.7ZM273.6,743.8v-5.3h.7v5.3h-.7ZM275,745.2l.3-.5c0,0,.1,0,.2.1,0,0,.2,0,.3,0,.2,0,.3,0,.4-.2,0-.2.2-.4.3-.7v-.2c0,0-1.6-3.7-1.6-3.7h.8l1.2,2.8,1.1-2.8h.8l-1.5,3.6c0,.2-.1.3-.2.6,0,.2-.2.4-.3.6-.1.2-.2.3-.4.5-.2.1-.3.2-.6.2s-.3,0-.5,0c-.1,0-.2-.1-.3-.2ZM187.3,750.9c-.4,0-.7,0-1-.3-.3-.2-.5-.4-.7-.7-.2-.3-.2-.6-.2-1s0-.7.2-1c.2-.3.4-.5.7-.7.3-.2.6-.3,1-.3s.7,0,1,.3c.3.2.5.4.7.7.2.3.3.6.3,1s0,.7-.3,1c-.2.3-.4.5-.7.7-.3.2-.6.3-1,.3ZM187.3,750.2c.3,0,.5,0,.7-.2.2-.1.3-.3.4-.5.1-.2.2-.4.2-.6s0-.4-.2-.6c0-.2-.2-.4-.4-.5-.2-.1-.4-.2-.7-.2s-.5,0-.7.2c-.2.1-.3.3-.4.5,0,.2-.1.4-.1.6s0,.4.2.6c.1.2.2.4.4.5.2.1.4.2.7.2ZM190.8,750.8h-.7v-3.3h0c0-.2,0-.3,0-.4h.7v.6c0,0,.2-.2.3-.3.1-.1.2-.2.4-.3.2,0,.4-.1.6-.1.5,0,.8.1,1.1.4.2.3.4.7.4,1.1v2.2h-.7v-2.2c0-.3,0-.6-.2-.8-.1-.2-.4-.2-.6-.2s-.5,0-.6.2c-.2.1-.3.3-.3.5,0,.2,0,.5,0,.7v1.7ZM197.4,749.8l.4.4c0,0-.1.1-.3.3-.1.1-.3.2-.5.3-.2,0-.5.1-.8.1s-.7,0-1-.2c-.3-.2-.5-.4-.7-.7-.2-.3-.2-.7-.2-1s0-.7.2-1c.2-.3.4-.5.7-.7.3-.2.6-.3,1-.3s.8.1,1,.3c.3.2.5.5.6.8.1.3.2.7.2,1.1h-2.9c0,.2,0,.4.2.6.1.2.3.3.4.4.2,0,.4.1.6.1.3,0,.6,0,.8-.2.2-.1.4-.2.4-.3ZM195,748.6h2.2c0-.3-.1-.5-.3-.7-.2-.2-.4-.3-.8-.3s-.4,0-.6.2c-.2.1-.3.2-.4.4,0,.2-.1.3-.1.5ZM200.4,750.8v-3.1h-.7v-.6h.7v-.3c0-.3,0-.6.2-.8.1-.2.3-.4.5-.5.2-.1.4-.2.6-.2s.4,0,.6,0c.2,0,.4.2.5.3l-.4.5c-.2-.2-.4-.2-.6-.2s-.4,0-.5.2c-.1.1-.2.4-.2.7v.2h1.1v.6h-1.1v3.1h-.7ZM205,750.8v-.4c-.1.2-.3.3-.6.4-.2,0-.5.1-.7.1s-.4,0-.6-.1c-.2,0-.4-.2-.5-.4-.1-.2-.2-.4-.2-.7,0-.4.1-.7.4-1,.3-.2.7-.4,1.2-.4s.2,0,.4,0c.1,0,.2,0,.3,0,.1,0,.2,0,.2,0h0c0-.4,0-.6-.3-.7-.2-.1-.4-.2-.7-.2s-.5,0-.7.1c-.2,0-.3.2-.4.2l-.3-.5c.1-.1.3-.2.6-.3.2-.1.6-.2,1-.2s.9.1,1.1.4c.3.2.4.6.4,1v2.2h0c0,.2,0,.3,0,.3h-.7ZM205,749.4v-.4s0,0-.2,0c0,0-.2,0-.3,0-.1,0-.2,0-.3,0-.3,0-.5,0-.6.1-.1,0-.2.2-.3.3,0,.1,0,.2,0,.3,0,.2,0,.3.2.5.1.1.3.2.6.2s.4,0,.5-.1c.2,0,.3-.2.4-.3.1-.1.2-.3.2-.4ZM209.4,749.8l.4.5c-.2.2-.4.3-.6.5-.2.1-.5.2-.8.2s-.7,0-1-.3c-.3-.2-.5-.4-.7-.7-.2-.3-.2-.6-.2-1s0-.7.2-1c.2-.3.4-.5.7-.7.3-.2.6-.3,1-.3s.6,0,.8.2c.2.1.4.3.6.5l-.5.5c-.1-.1-.2-.2-.4-.3s-.4-.1-.6-.1-.5,0-.7.2c-.2.1-.3.3-.4.5,0,.2-.1.4-.1.7s0,.4.1.7c.1.2.2.4.4.5.2.1.4.2.7.2s.4,0,.6-.1c.2,0,.3-.2.4-.3ZM210.9,749.5v-1.9h-.7v-.6h.7v-1.2h.7v1.2h1.1v.6h-1.1v1.8c0,.3,0,.5.1.6,0,.1.2.2.4.2s.3,0,.3,0c0,0,.2-.1.3-.2l.3.4c-.2.1-.3.3-.5.3-.2,0-.4.1-.6.1-.4,0-.7-.1-.9-.3-.2-.2-.3-.6-.3-1ZM215.2,750.9c-.4,0-.7,0-1-.3-.3-.2-.5-.4-.7-.7-.2-.3-.2-.6-.2-1s0-.7.2-1c.2-.3.4-.5.7-.7.3-.2.6-.3,1-.3s.7,0,1,.3c.3.2.5.4.7.7.2.3.3.6.3,1s0,.7-.3,1c-.2.3-.4.5-.7.7-.3.2-.6.3-1,.3ZM215.2,750.2c.3,0,.5,0,.7-.2.2-.1.3-.3.4-.5.1-.2.2-.4.2-.6s0-.4-.2-.6c0-.2-.2-.4-.4-.5-.2-.1-.4-.2-.7-.2s-.5,0-.7.2c-.2.1-.3.3-.4.5,0,.2-.1.4-.1.6s0,.4.2.6c.1.2.2.4.4.5.2.1.4.2.7.2ZM218.7,750.8h-.7v-3.4h0c0-.2,0-.3,0-.4h.7v.6c0,0,.2-.2.3-.3.1-.1.2-.2.4-.3.2,0,.4-.1.6-.1s.2,0,.2,0c0,0,.1,0,.2,0l-.2.7c0,0-.2,0-.4,0s-.4,0-.6.2c-.2.1-.3.2-.4.4,0,.2-.1.4-.1.6v2ZM222.7,749.5v-1.9h-.7v-.6h.7v-1.2h.7v1.2h1.1v.6h-1.1v1.8c0,.3,0,.5.1.6,0,.1.2.2.4.2s.3,0,.3,0c0,0,.2-.1.3-.2l.3.4c-.2.1-.3.3-.5.3-.2,0-.4.1-.6.1-.4,0-.7-.1-.9-.3-.2-.2-.3-.6-.3-1ZM227,750.9c-.4,0-.7,0-1-.3-.3-.2-.5-.4-.7-.7-.2-.3-.2-.6-.2-1s0-.7.2-1c.2-.3.4-.5.7-.7.3-.2.6-.3,1-.3s.7,0,1,.3c.3.2.5.4.7.7.2.3.3.6.3,1s0,.7-.3,1c-.2.3-.4.5-.7.7-.3.2-.6.3-1,.3ZM227,750.2c.3,0,.5,0,.7-.2.2-.1.3-.3.4-.5.1-.2.2-.4.2-.6s0-.4-.2-.6c0-.2-.2-.4-.4-.5-.2-.1-.4-.2-.7-.2s-.5,0-.7.2c-.2.1-.3.3-.4.5,0,.2-.1.4-.1.6s0,.4.2.6c.1.2.2.4.4.5.2.1.4.2.7.2ZM234,749.8l.4.5c-.2.2-.4.3-.6.5-.2.1-.5.2-.8.2s-.7,0-1-.3c-.3-.2-.5-.4-.7-.7-.2-.3-.2-.6-.2-1s0-.7.2-1c.2-.3.4-.5.7-.7.3-.2.6-.3,1-.3s.6,0,.8.2c.2.1.4.3.6.5l-.5.5c-.1-.1-.2-.2-.4-.3s-.3-.1-.6-.1-.5,0-.7.2c-.2.1-.3.3-.4.5,0,.2-.1.4-.1.7s0,.4.1.7c.1.2.2.4.4.5.2.1.4.2.7.2s.4,0,.6-.1c.2,0,.3-.2.4-.3ZM236.7,750.9c-.4,0-.7,0-1-.3-.3-.2-.5-.4-.7-.7-.2-.3-.2-.6-.2-1s0-.7.2-1c.2-.3.4-.5.7-.7.3-.2.6-.3,1-.3s.7,0,1,.3c.3.2.5.4.7.7.2.3.3.6.3,1s0,.7-.3,1c-.2.3-.4.5-.7.7-.3.2-.6.3-1,.3ZM236.7,750.2c.3,0,.5,0,.7-.2.2-.1.3-.3.4-.5.1-.2.2-.4.2-.6s0-.4-.2-.6c0-.2-.2-.4-.4-.5-.2-.1-.4-.2-.7-.2s-.5,0-.7.2c-.2.1-.3.3-.4.5,0,.2-.1.4-.1.6s0,.4.2.6c.1.2.2.4.4.5.2.1.4.2.7.2ZM240.2,750.8h-.7v-3.3h0c0-.2,0-.3,0-.4h.7v.6c0,0,.2-.2.3-.3.1-.1.2-.2.4-.3.2,0,.4-.1.6-.1.5,0,.8.1,1.1.4.2.3.4.7.4,1.1v2.2h-.7v-2.2c0-.3,0-.6-.2-.8-.1-.2-.4-.2-.6-.2s-.5,0-.6.2c-.2.1-.3.3-.3.5,0,.2,0,.5,0,.7v1.7ZM243.6,750.3l.4-.5c.1.1.3.2.5.3.2,0,.4.1.6.1s.4,0,.6-.1c.2,0,.2-.2.2-.4s0-.2,0-.3c0,0-.2-.1-.3-.2-.2,0-.4-.1-.6-.2-.2,0-.4-.1-.6-.2-.2,0-.3-.2-.4-.3-.1-.1-.2-.3-.2-.6s0-.4.2-.6c.1-.2.3-.3.6-.4.2,0,.5-.1.7-.1s.6,0,.8.1c.2,0,.4.2.6.3l-.4.5c-.1-.1-.3-.2-.4-.3-.2,0-.4-.1-.6-.1s-.4,0-.6.1c-.1,0-.2.2-.2.4s0,.3.3.4c.2,0,.4.1.7.2.2,0,.4.1.6.2.2,0,.3.2.5.4.1.1.2.3.2.6s0,.5-.2.6c-.1.2-.3.3-.6.4-.2,0-.5.1-.8.1-.7,0-1.2-.2-1.6-.6ZM247.6,746.4v-.8h.8v.8h-.8ZM247.7,750.8v-3.7h.7v3.7h-.7ZM252.1,750.8v-.5c0,0-.1.1-.2.2,0,0-.2.2-.4.3-.2,0-.4.1-.6.1s-.6,0-.8-.2c-.2-.2-.4-.4-.6-.7-.1-.3-.2-.6-.2-1s0-.7.2-.9c.1-.3.3-.5.5-.6.2-.2.4-.3.6-.4.2,0,.4-.1.6-.1s.4,0,.5,0c.1,0,.3.1.4.2v-1.8h.7v5.1c0,0,0,.1,0,.2h-.7ZM252.1,749.2v-1.3c0,0-.2-.1-.4-.2-.1,0-.3,0-.5,0-.3,0-.6.1-.9.4-.2.2-.3.6-.3,1s0,.4.1.6c0,.2.2.4.4.5.2.1.4.2.6.2s.5,0,.6-.2c.2-.1.3-.3.3-.4,0-.2.1-.3.1-.5ZM256.8,749.8l.4.4c0,0-.1.1-.3.3-.1.1-.3.2-.5.3-.2,0-.5.1-.8.1s-.7,0-1-.2c-.3-.2-.5-.4-.7-.7-.2-.3-.2-.7-.2-1s0-.7.2-1c.2-.3.4-.5.7-.7.3-.2.6-.3,1-.3s.8.1,1,.3.5.5.6.8c.1.3.2.7.2,1.1h-2.9c0,.2,0,.4.2.6.1.2.3.3.4.4.2,0,.4.1.6.1.3,0,.6,0,.8-.2.2-.1.4-.2.4-.3ZM254.3,748.6h2.2c0-.3-.1-.5-.3-.7-.2-.2-.4-.3-.8-.3s-.4,0-.6.2c-.2.1-.3.2-.4.4,0,.2-.1.3-.1.5ZM258.8,750.8h-.7v-3.4h0c0-.2,0-.3,0-.4h.7v.6c0,0,.2-.2.3-.3.1-.1.2-.2.4-.3.2,0,.4-.1.6-.1s.2,0,.2,0c0,0,.1,0,.2,0l-.2.7c0,0-.2,0-.4,0s-.4,0-.6.2c-.2.1-.3.2-.4.4,0,.2-.1.4-.1.6v2ZM263.3,750.8l-1.3-3.7h.8l.8,2.8.9-2.8h.6l.9,2.9.8-2.9h.7l-1.2,3.7h-.7l-.9-2.6-.9,2.6h-.7ZM268.2,750.8v-5.3h.7v2.2c0,0,.1-.2.2-.3.1-.1.2-.2.4-.3.2,0,.4-.1.6-.1.5,0,.8.1,1.1.4.2.3.4.7.4,1.1v2.2h-.7v-2.2c0-.3,0-.6-.2-.8-.1-.2-.4-.2-.6-.2s-.5,0-.6.2c-.2.1-.3.3-.3.5,0,.2,0,.5,0,.7v1.7h-.7ZM275.5,749.8l.4.4c0,0-.1.1-.3.3-.1.1-.3.2-.5.3-.2,0-.5.1-.8.1s-.7,0-1-.2c-.3-.2-.5-.4-.7-.7-.2-.3-.2-.7-.2-1s0-.7.2-1c.2-.3.4-.5.7-.7.3-.2.6-.3,1-.3s.8.1,1,.3c.3.2.5.5.6.8.1.3.2.7.2,1.1h-2.9c0,.2,0,.4.2.6.1.2.3.3.4.4.2,0,.4.1.6.1.3,0,.6,0,.8-.2.2-.1.4-.2.4-.3ZM273.1,748.6h2.2c0-.3-.1-.5-.3-.7-.2-.2-.4-.3-.8-.3s-.4,0-.6.2c-.2.1-.3.2-.4.4,0,.2-.1.3-.1.5ZM277.6,750.8h-.7v-3.3h0c0-.2,0-.3,0-.4h.7v.6c0,0,.2-.2.3-.3.1-.1.2-.2.4-.3.2,0,.4-.1.6-.1.5,0,.8.1,1.1.4.2.3.4.7.4,1.1v2.2h-.7v-2.2c0-.3,0-.6-.2-.8-.1-.2-.4-.2-.6-.2s-.5,0-.6.2c-.2.1-.3.3-.3.5,0,.2,0,.5,0,.7v1.7ZM188.3,756.8l.4.5c-.2.2-.4.3-.6.5-.2.1-.5.2-.8.2s-.7,0-1-.3c-.3-.2-.5-.4-.7-.7-.2-.3-.2-.6-.2-1s0-.7.2-1c.2-.3.4-.5.7-.7.3-.2.6-.3,1-.3s.6,0,.8.2c.2.1.4.3.6.5l-.5.5c-.1-.1-.2-.2-.4-.3s-.3-.1-.6-.1-.5,0-.7.2c-.2.1-.3.3-.4.5,0,.2-.1.4-.1.7s0,.4.1.7c.1.2.2.4.4.5.2.1.4.2.7.2s.4,0,.6-.1c.2,0,.3-.2.4-.3ZM189.4,757.8v-5.3h.7v2.2c0,0,.1-.2.2-.3.1-.1.2-.2.4-.3.2,0,.4-.1.6-.1.5,0,.8.1,1.1.4.2.3.4.7.4,1.1v2.2h-.7v-2.2c0-.3,0-.6-.2-.8-.1-.2-.4-.2-.6-.2s-.5,0-.6.2c-.2.1-.3.3-.3.5,0,.2,0,.5,0,.7v1.7h-.7ZM195.6,757.9c-.4,0-.7,0-1-.3-.3-.2-.5-.4-.7-.7-.2-.3-.2-.6-.2-1s0-.7.2-1c.2-.3.4-.5.7-.7.3-.2.6-.3,1-.3s.7,0,1,.3c.3.2.5.4.7.7.2.3.3.6.3,1s0,.7-.3,1c-.2.3-.4.5-.7.7-.3.2-.6.3-1,.3ZM195.6,757.2c.3,0,.5,0,.7-.2.2-.1.3-.3.4-.5.1-.2.2-.4.2-.6s0-.4-.2-.6c0-.2-.2-.4-.4-.5-.2-.1-.4-.2-.7-.2s-.5,0-.7.2c-.2.1-.3.3-.4.5,0,.2-.1.4-.1.6s0,.4.2.6c.1.2.2.4.4.5.2.1.4.2.7.2ZM200.2,757.9c-.4,0-.7,0-1-.3-.3-.2-.5-.4-.7-.7-.2-.3-.2-.6-.2-1s0-.7.2-1c.2-.3.4-.5.7-.7.3-.2.6-.3,1-.3s.7,0,1,.3c.3.2.5.4.7.7.2.3.3.6.3,1s0,.7-.3,1c-.2.3-.4.5-.7.7-.3.2-.6.3-1,.3ZM200.2,757.2c.3,0,.5,0,.7-.2.2-.1.3-.3.4-.5.1-.2.2-.4.2-.6s0-.4-.2-.6c0-.2-.2-.4-.4-.5-.2-.1-.4-.2-.7-.2s-.5,0-.7.2c-.2.1-.3.3-.4.5,0,.2-.1.4-.1.6s0,.4.2.6c.1.2.2.4.4.5.2.1.4.2.7.2ZM202.7,757.3l.4-.5c.1.1.3.2.5.3.2,0,.4.1.6.1s.4,0,.6-.1c.2,0,.2-.2.2-.4s0-.2,0-.3c0,0-.2-.1-.3-.2-.2,0-.4-.1-.6-.2-.2,0-.4-.1-.6-.2-.2,0-.3-.2-.4-.3-.1-.1-.2-.3-.2-.6s0-.4.2-.6c.1-.2.3-.3.6-.4.2,0,.5-.1.7-.1s.6,0,.8.1c.2,0,.4.2.6.3l-.4.5c-.1-.1-.3-.2-.4-.3-.2,0-.4-.1-.6-.1s-.4,0-.6.1c-.1,0-.2.2-.2.4s0,.3.3.4c.2,0,.4.1.7.2.2,0,.4.1.6.2.2,0,.3.2.5.4.1.1.2.3.2.6s0,.5-.2.6c-.1.2-.3.3-.6.4-.2,0-.5.1-.8.1-.7,0-1.2-.2-1.6-.6ZM206.7,753.4v-.8h.8v.8h-.8ZM206.7,757.8v-3.7h.7v3.7h-.7ZM209.2,757.8h-.7v-3.3h0c0-.2,0-.3,0-.4h.7v.6c0,0,.2-.2.3-.3.1-.1.2-.2.4-.3.2,0,.4-.1.6-.1.5,0,.8.1,1.1.4.2.3.4.7.4,1.1v2.2h-.7v-2.2c0-.3,0-.6-.2-.8-.1-.2-.4-.2-.6-.2s-.5,0-.6.2c-.2.1-.3.3-.3.5,0,.2,0,.5,0,.7v1.7ZM213,759l.3-.5c.1,0,.3.2.4.2.2,0,.4,0,.7,0s.6,0,.8-.3c.2-.2.3-.5.3-.8v-.5s-.1.1-.2.2c0,0-.2.1-.4.2-.2,0-.3,0-.6,0-.4,0-.7,0-.9-.2-.3-.2-.4-.4-.6-.7-.1-.3-.2-.6-.2-1s0-.7.3-1c.2-.3.4-.5.7-.7.3-.2.7-.3,1.1-.3s.6,0,.8,0c.3,0,.5.1.6.2v3.6c0,.5-.2.9-.5,1.2-.3.3-.8.4-1.3.4s-.7,0-.9-.1c-.2,0-.4-.2-.5-.3ZM215.5,756.2v-1.5s-.1,0-.2,0c-.1,0-.3,0-.5,0s-.5,0-.7.2c-.2.1-.4.3-.5.5-.1.2-.2.4-.2.7s0,.4.1.6c0,.2.2.3.4.4.2.1.4.2.6.2s.4,0,.6-.1c.2,0,.3-.2.3-.3,0-.1.1-.3.1-.4ZM221,757.8v-.4c-.1.2-.3.3-.6.4-.2,0-.5.1-.7.1s-.4,0-.6-.1c-.2,0-.4-.2-.5-.4-.1-.2-.2-.4-.2-.7,0-.4.1-.7.4-1,.3-.2.7-.4,1.2-.4s.2,0,.4,0c.1,0,.2,0,.3,0,.1,0,.2,0,.2,0h0c0-.4,0-.6-.3-.7-.2-.1-.4-.2-.7-.2s-.5,0-.7.1c-.2,0-.3.2-.4.2l-.3-.5c.1-.1.3-.2.6-.3.2-.1.6-.2,1-.2s.9.1,1.1.4c.3.2.4.6.4,1v2.2h0c0,.2,0,.3,0,.3h-.7ZM221,756.4v-.4s0,0-.2,0c0,0-.2,0-.3,0-.1,0-.2,0-.3,0-.3,0-.5,0-.6.1-.1,0-.2.2-.3.3,0,.1,0,.2,0,.3,0,.2,0,.3.2.5.1.1.3.2.6.2s.4,0,.5-.1c.2,0,.3-.2.4-.3.1-.1.2-.3.2-.4ZM223.9,757.3l.4-.5c.1.1.3.2.5.3.2,0,.4.1.6.1s.4,0,.6-.1c.2,0,.2-.2.2-.4s0-.2,0-.3c0,0-.2-.1-.3-.2-.2,0-.4-.1-.6-.2-.2,0-.4-.1-.6-.2-.2,0-.3-.2-.4-.3-.1-.1-.2-.3-.2-.6s0-.4.2-.6c.1-.2.3-.3.6-.4.2,0,.5-.1.7-.1s.6,0,.8.1c.2,0,.4.2.6.3l-.4.5c-.1-.1-.3-.2-.4-.3-.2,0-.4-.1-.6-.1s-.4,0-.6.1c-.1,0-.2.2-.2.4s0,.3.3.4c.2,0,.4.1.7.2.2,0,.4.1.6.2.2,0,.3.2.5.4.1.1.2.3.2.6s0,.5-.2.6c-.1.2-.3.3-.6.4-.2,0-.5.1-.8.1-.7,0-1.2-.2-1.6-.6ZM227.8,756.3v-2.2h.7v2.2c0,.3,0,.6.2.8.1.2.4.2.6.2s.5,0,.6-.2c.2-.1.3-.3.3-.5,0-.2.1-.5.1-.7v-1.7h.7v3.5c0,0,0,.1,0,.2h-.7v-.6c0,0-.2.2-.3.3-.1,0-.2.2-.4.2-.2,0-.4.1-.6.1-.5,0-.8-.1-1.1-.4-.2-.3-.3-.7-.3-1.1ZM232.9,759.4h-.7v-4.9h0c0-.2,0-.3,0-.4h.7v.5c0,0,.2-.1.3-.2.1,0,.2-.2.4-.3.2,0,.4-.1.6-.1.4,0,.7,0,.9.3.3.2.4.4.6.7.1.3.2.6.2,1s0,.6-.2.9c-.1.2-.3.4-.4.6-.2.2-.4.3-.6.4-.2,0-.4.1-.7.1s-.5,0-.6,0c-.1,0-.3-.1-.4-.2v1.7ZM232.9,756v1c0,0,.2.1.4.2.2,0,.4,0,.6,0s.5,0,.6-.2c.2-.1.3-.3.4-.5.1-.2.2-.4.2-.7s0-.5-.1-.7c0-.2-.2-.4-.3-.5-.2-.1-.4-.2-.6-.2s-.5,0-.7.2c-.2.1-.3.3-.4.6,0,0,0,.2,0,.3,0,0,0,.2,0,.3ZM239.7,756.8l.4.4c0,0-.1.1-.3.3-.1.1-.3.2-.5.3-.2,0-.5.1-.8.1s-.7,0-1-.2c-.3-.2-.5-.4-.7-.7-.2-.3-.2-.7-.2-1s0-.7.2-1c.2-.3.4-.5.7-.7.3-.2.6-.3,1-.3s.8.1,1,.3.5.5.6.8c.1.3.2.7.2,1.1h-2.9c0,.2,0,.4.2.6.1.2.3.3.4.4.2,0,.4.1.6.1.3,0,.6,0,.8-.2.2-.1.4-.2.4-.3ZM237.2,755.6h2.2c0-.3-.1-.5-.3-.7-.2-.2-.4-.3-.8-.3s-.4,0-.6.2c-.2.1-.3.2-.4.4,0,.2-.1.3-.1.5ZM241.7,757.8h-.7v-3.4h0c0-.2,0-.3,0-.4h.7v.6c0,0,.2-.2.3-.3.1-.1.2-.2.4-.3.2,0,.4-.1.6-.1s.2,0,.2,0c0,0,.1,0,.2,0l-.2.7c0,0-.2,0-.4,0s-.4,0-.6.2c-.2.1-.3.2-.4.4,0,.2-.1.4-.1.6v2ZM245.6,757.8v-3.1h-.7v-.6h.7v-.3c0-.3,0-.6.2-.8.1-.2.3-.4.5-.5.2-.1.4-.2.6-.2s.4,0,.6,0c.2,0,.4.2.5.3l-.4.5c-.2-.2-.4-.2-.6-.2s-.4,0-.5.2c-.1.1-.2.4-.2.7v.2h1.1v.6h-1.1v3.1h-.7ZM247.9,756.3v-2.2h.7v2.2c0,.3,0,.6.2.8.1.2.4.2.6.2s.5,0,.6-.2c.2-.1.3-.3.3-.5,0-.2.1-.5.1-.7v-1.7h.7v3.5c0,0,0,.1,0,.2h-.7v-.6c0,0-.2.2-.3.3-.1,0-.2.2-.4.2-.2,0-.4.1-.6.1-.5,0-.8-.1-1.1-.4-.2-.3-.3-.7-.3-1.1ZM253,757.8h-.7v-3.3h0c0-.2,0-.3,0-.4h.7v.6c0,0,.2-.2.3-.3.1-.1.2-.2.4-.3.2,0,.4-.1.6-.1.5,0,.8.1,1.1.4.2.3.4.7.4,1.1v2.2h-.7v-2.2c0-.3,0-.6-.2-.8-.1-.2-.4-.2-.6-.2s-.5,0-.6.2c-.2.1-.3.3-.3.5,0,.2,0,.5,0,.7v1.7ZM259.3,757.8v-.5c0,0-.1.1-.2.2,0,0-.2.2-.4.3-.2,0-.4.1-.6.1s-.6,0-.8-.2c-.2-.2-.4-.4-.6-.7-.1-.3-.2-.6-.2-1s0-.7.2-.9c.1-.3.3-.5.5-.6.2-.2.4-.3.6-.4.2,0,.4-.1.6-.1s.4,0,.5,0c.1,0,.3.1.4.2v-1.8h.7v5.1c0,0,0,.1,0,.2h-.7ZM259.3,756.2v-1.3c0,0-.2-.1-.4-.2-.1,0-.3,0-.5,0-.3,0-.6.1-.9.4-.2.2-.3.6-.3,1s0,.4.1.6c0,.2.2.4.4.5.2.1.4.2.6.2s.5,0,.6-.2c.2-.1.3-.3.3-.4,0-.2.1-.3.1-.5ZM261.1,757.8v-.9h.9v.9h-.9ZM266.2,757.8l-2.1-5.3h.9l1.6,4.4,1.6-4.4h.8l-2.1,5.3h-.8ZM269.6,753.4v-.8h.8v.8h-.8ZM269.7,757.8v-3.7h.7v3.7h-.7ZM271.2,757.3l.4-.5c.1.1.3.2.5.3.2,0,.4.1.6.1s.4,0,.6-.1c.2,0,.2-.2.2-.4s0-.2,0-.3c0,0-.2-.1-.3-.2-.2,0-.4-.1-.6-.2-.2,0-.4-.1-.6-.2-.2,0-.3-.2-.4-.3-.1-.1-.2-.3-.2-.6s0-.4.2-.6c.1-.2.3-.3.6-.4.2,0,.5-.1.7-.1s.6,0,.8.1c.2,0,.4.2.6.3l-.4.5c-.1-.1-.3-.2-.4-.3-.2,0-.4-.1-.6-.1s-.4,0-.6.1c-.1,0-.2.2-.2.4s0,.3.3.4c.2,0,.4.1.7.2.2,0,.4.1.6.2.2,0,.3.2.5.4.1.1.2.3.2.6s0,.5-.2.6c-.1.2-.3.3-.6.4-.2,0-.5.1-.8.1-.7,0-1.2-.2-1.6-.6ZM275.2,753.4v-.8h.8v.8h-.8ZM275.2,757.8v-3.7h.7v3.7h-.7ZM277.3,756.5v-1.9h-.7v-.6h.7v-1.2h.7v1.2h1.1v.6h-1.1v1.8c0,.3,0,.5.1.6,0,.1.2.2.4.2s.3,0,.3,0c0,0,.2-.1.3-.2l.3.4c-.2.1-.3.3-.5.3-.2,0-.4.1-.6.1-.4,0-.7-.1-.9-.3-.2-.2-.3-.6-.3-1ZM185.5,764.8v-5.3h.7v2.2c0,0,.1-.2.2-.3.1-.1.2-.2.4-.3.2,0,.4-.1.6-.1.5,0,.8.1,1.1.4.2.3.4.7.4,1.1v2.2h-.7v-2.2c0-.3,0-.6-.2-.8-.1-.2-.4-.2-.6-.2s-.5,0-.6.2c-.2.1-.3.3-.3.5,0,.2,0,.5,0,.7v1.7h-.7ZM191.6,764.9c-.4,0-.7,0-1-.3-.3-.2-.5-.4-.7-.7-.2-.3-.2-.6-.2-1s0-.7.2-1c.2-.3.4-.5.7-.7.3-.2.6-.3,1-.3s.7,0,1,.3c.3.2.5.4.7.7.2.3.3.6.3,1s0,.7-.3,1c-.2.3-.4.5-.7.7-.3.2-.6.3-1,.3ZM191.6,764.2c.3,0,.5,0,.7-.2.2-.1.3-.3.4-.5.1-.2.2-.4.2-.6s0-.4-.2-.6c0-.2-.2-.4-.4-.5-.2-.1-.4-.2-.7-.2s-.5,0-.7.2c-.2.1-.3.3-.4.5,0,.2-.1.4-.1.6s0,.4.2.6c.1.2.2.4.4.5.2.1.4.2.7.2ZM194.2,764.3l.4-.5c.1.1.3.2.5.3.2,0,.4.1.6.1s.4,0,.6-.1c.2,0,.2-.2.2-.4s0-.2,0-.3c0,0-.2-.1-.3-.2-.2,0-.4-.1-.6-.2-.2,0-.4-.1-.6-.2-.2,0-.3-.2-.4-.3-.1-.1-.2-.3-.2-.6s0-.4.2-.6c.1-.2.3-.3.6-.4.2,0,.5-.1.7-.1s.6,0,.8.1c.2,0,.4.2.6.3l-.4.5c-.1-.1-.3-.2-.4-.3-.2,0-.4-.1-.6-.1s-.4,0-.6.1c-.1,0-.2.2-.2.4s0,.3.3.4c.2,0,.4.1.7.2.2,0,.4.1.6.2.2,0,.3.2.5.4.1.1.2.3.2.6s0,.5-.2.6c-.1.2-.3.3-.6.4-.2,0-.5.1-.8.1-.7,0-1.2-.2-1.6-.6ZM198.5,763.5v-1.9h-.7v-.6h.7v-1.2h.7v1.2h1.1v.6h-1.1v1.8c0,.3,0,.5.1.6,0,.1.2.2.4.2s.3,0,.3,0c0,0,.2-.1.3-.2l.3.4c-.2.1-.3.3-.5.3-.2,0-.4.1-.6.1-.4,0-.7-.1-.9-.3-.2-.2-.3-.6-.3-1ZM202,766.4h-.7v-4.9h0c0-.2,0-.3,0-.4h.7v.5c0,0,.2-.1.3-.2.1,0,.2-.2.4-.3.2,0,.4-.1.6-.1.4,0,.7,0,.9.3.2.2.4.4.6.7.1.3.2.6.2,1s0,.6-.2.9c-.1.2-.3.4-.4.6-.2.2-.4.3-.6.4-.2,0-.4.1-.7.1s-.5,0-.6,0c-.2,0-.3-.1-.4-.2v1.7ZM202,763v1c0,0,.2.1.4.2.2,0,.4,0,.6,0s.5,0,.6-.2c.2-.1.3-.3.4-.5.1-.2.2-.4.2-.7s0-.5-.1-.7c0-.2-.2-.4-.3-.5-.2-.1-.4-.2-.6-.2s-.5,0-.7.2c-.2.1-.3.3-.4.6,0,0,0,.2,0,.3,0,0,0,.2,0,.3ZM205.7,764.8v-5.3h.7v5.3h-.7ZM207.4,763.3v-2.2h.7v2.2c0,.3,0,.6.2.8.1.2.4.2.6.2s.5,0,.6-.2.3-.3.3-.5c0-.2.1-.5.1-.7v-1.7h.7v3.5c0,0,0,.1,0,.2h-.7v-.6c0,0-.2.2-.3.3-.1,0-.2.2-.4.2-.2,0-.4.1-.6.1-.5,0-.8-.1-1.1-.4-.2-.3-.3-.7-.3-1.1ZM211.6,764.3l.4-.5c.1.1.3.2.5.3.2,0,.4.1.6.1s.4,0,.6-.1c.2,0,.2-.2.2-.4s0-.2,0-.3c0,0-.2-.1-.3-.2-.2,0-.4-.1-.6-.2-.2,0-.4-.1-.6-.2-.2,0-.3-.2-.4-.3-.1-.1-.2-.3-.2-.6s0-.4.2-.6c.1-.2.3-.3.6-.4.2,0,.5-.1.7-.1s.6,0,.8.1c.2,0,.4.2.6.3l-.4.5c-.1-.1-.3-.2-.4-.3-.2,0-.4-.1-.6-.1s-.4,0-.6.1c-.1,0-.2.2-.2.4s0,.3.3.4c.2,0,.4.1.7.2.2,0,.4.1.6.2.2,0,.3.2.5.4.1.1.2.3.2.6s0,.5-.2.6c-.1.2-.3.3-.6.4-.2,0-.5.1-.8.1-.7,0-1.2-.2-1.6-.6ZM215.4,764.8v-.9h.9v.9h-.9ZM219.9,763.8l.4.5c-.2.2-.4.3-.6.5-.2.1-.5.2-.8.2s-.7,0-1-.3c-.3-.2-.5-.4-.7-.7-.2-.3-.2-.6-.2-1s0-.7.2-1c.2-.3.4-.5.7-.7.3-.2.6-.3,1-.3s.6,0,.8.2c.2.1.4.3.6.5l-.5.5c-.1-.1-.2-.2-.4-.3-.2,0-.3-.1-.6-.1s-.5,0-.7.2c-.2.1-.3.3-.4.5,0,.2-.1.4-.1.7s0,.4.1.7c.1.2.2.4.4.5.2.1.4.2.7.2s.4,0,.6-.1c.2,0,.3-.2.4-.3ZM222.6,764.9c-.4,0-.7,0-1-.3-.3-.2-.5-.4-.7-.7-.2-.3-.2-.6-.2-1s0-.7.2-1c.2-.3.4-.5.7-.7.3-.2.6-.3,1-.3s.7,0,1,.3c.3.2.5.4.7.7.2.3.3.6.3,1s0,.7-.3,1c-.2.3-.4.5-.7.7-.3.2-.6.3-1,.3ZM222.6,764.2c.3,0,.5,0,.7-.2.2-.1.3-.3.4-.5.1-.2.2-.4.2-.6s0-.4-.2-.6c0-.2-.2-.4-.4-.5-.2-.1-.4-.2-.7-.2s-.5,0-.7.2c-.2.1-.3.3-.4.5,0,.2-.1.4-.1.6s0,.4.2.6c.1.2.2.4.4.5.2.1.4.2.7.2ZM226.1,764.8h-.7v-3.3h0c0-.2,0-.3,0-.4h.7v.6c0,0,.2-.2.3-.3.1-.1.2-.2.4-.3.2,0,.4-.1.6-.1s.5,0,.7.2c.2.1.3.3.4.5.1-.2.3-.3.6-.5.2-.1.5-.2.8-.2.5,0,.8.1,1.1.4.2.3.3.7.3,1.1v2.2h-.7v-2.2c0-.7-.3-1-.8-1s-.4,0-.5.2c-.2.1-.3.2-.4.4,0,.2-.1.3-.1.6v2.1h-.7v-2.2c0-.3,0-.6-.2-.8-.1-.2-.3-.2-.6-.2s-.5,0-.6.2c-.2.1-.3.3-.3.6,0,.2,0,.4,0,.7v1.7ZM232.2,764.8v-.9h.9v.9h-.9ZM236.6,764.8v-.4c-.2.2-.3.3-.6.4-.2,0-.5.1-.7.1s-.4,0-.6-.1c-.2,0-.4-.2-.5-.4-.1-.2-.2-.4-.2-.7,0-.4.1-.7.4-1,.3-.2.7-.4,1.2-.4s.2,0,.4,0c.1,0,.2,0,.3,0,.1,0,.2,0,.2,0h0c0-.4,0-.6-.3-.7-.2-.1-.4-.2-.7-.2s-.5,0-.7.1c-.2,0-.3.2-.4.2l-.3-.5c.1-.1.3-.2.6-.3.2-.1.6-.2,1-.2s.9.1,1.1.4c.3.2.4.6.4,1v2.2h0c0,.2,0,.3,0,.3h-.7ZM236.5,763.4v-.4s0,0-.2,0c0,0-.2,0-.3,0-.1,0-.2,0-.3,0-.3,0-.5,0-.6.1-.1,0-.2.2-.3.3,0,.1,0,.2,0,.3,0,.2,0,.3.2.5.1.1.3.2.6.2s.4,0,.5-.1c.2,0,.3-.2.4-.3.1-.1.2-.3.2-.4ZM238.2,763.3v-2.2h.7v2.2c0,.3,0,.6.2.8.1.2.4.2.6.2s.5,0,.6-.2c.2-.1.3-.3.3-.5,0-.2.1-.5.1-.7v-1.7h.7v3.5c0,0,0,.1,0,.2h-.7v-.6c0,0-.2.2-.3.3-.1,0-.2.2-.4.2-.2,0-.4.1-.6.1-.5,0-.8-.1-1.1-.4-.2-.3-.3-.7-.3-1.1ZM242.2,764.9l2.1-5.6h.7l-2.1,5.6h-.7ZM247.4,764.8v-.4c-.1.2-.3.3-.6.4-.2,0-.5.1-.7.1s-.4,0-.6-.1c-.2,0-.4-.2-.5-.4-.1-.2-.2-.4-.2-.7,0-.4.1-.7.4-1s.7-.4,1.2-.4.2,0,.4,0c.1,0,.2,0,.3,0,.1,0,.2,0,.2,0h0c0-.4,0-.6-.3-.7-.2-.1-.4-.2-.7-.2s-.5,0-.7.1c-.2,0-.3.2-.4.2l-.3-.5c.1-.1.3-.2.6-.3.2-.1.6-.2,1-.2s.9.1,1.1.4c.3.2.4.6.4,1v2.2h0c0,.2,0,.3,0,.3h-.7ZM247.4,763.4v-.4s0,0-.2,0c0,0-.2,0-.3,0-.1,0-.2,0-.3,0-.3,0-.5,0-.6.1-.1,0-.2.2-.3.3,0,.1,0,.2,0,.3,0,.2,0,.3.2.5.1.1.3.2.6.2s.4,0,.5-.1c.2,0,.3-.2.4-.3.1-.1.2-.3.2-.4ZM249.8,764.8l-1.3-3.7h.8l.8,2.8.9-2.8h.6l.9,2.9.8-2.9h.7l-1.2,3.7h-.7l-.9-2.6-.9,2.6h-.7ZM257.1,764.8v-.4c-.1.2-.3.3-.6.4-.2,0-.5.1-.7.1s-.4,0-.6-.1c-.2,0-.4-.2-.5-.4-.1-.2-.2-.4-.2-.7,0-.4.1-.7.4-1,.3-.2.7-.4,1.2-.4s.2,0,.4,0c.1,0,.2,0,.3,0,.1,0,.2,0,.2,0h0c0-.4,0-.6-.3-.7-.2-.1-.4-.2-.7-.2s-.5,0-.7.1c-.2,0-.3.2-.4.2l-.3-.5c.1-.1.3-.2.6-.3.2-.1.6-.2,1-.2s.8.1,1.1.4c.3.2.4.6.4,1v2.2h0c0,.2,0,.3,0,.3h-.7ZM257,763.4v-.4s0,0-.2,0c0,0-.2,0-.3,0-.1,0-.2,0-.3,0-.3,0-.5,0-.6.1-.1,0-.2.2-.3.3,0,.1,0,.2,0,.3,0,.2,0,.3.2.5.1.1.3.2.6.2s.4,0,.5-.1c.2,0,.3-.2.4-.3.1-.1.2-.3.2-.4ZM259.4,764.8h-.7v-3.4h0c0-.2,0-.3,0-.4h.7v.6c0,0,.2-.2.3-.3.1-.1.2-.2.4-.3.2,0,.4-.1.6-.1s.2,0,.2,0c0,0,.1,0,.2,0l-.2.7c0,0-.2,0-.4,0s-.4,0-.6.2c-.2.1-.3.2-.4.4,0,.2-.1.4-.1.6v2ZM264.1,764.8v-.5c0,0-.1.1-.2.2,0,0-.2.2-.4.3-.2,0-.4.1-.6.1s-.6,0-.8-.2c-.3-.2-.4-.4-.6-.7s-.2-.6-.2-1,0-.7.2-.9c.1-.3.3-.5.5-.6.2-.2.4-.3.6-.4.2,0,.4-.1.6-.1s.4,0,.5,0c.1,0,.3.1.4.2v-1.8h.7v5.1c0,0,0,.1,0,.2h-.7ZM264.1,763.2v-1.3c0,0-.2-.1-.4-.2-.1,0-.3,0-.5,0-.3,0-.6.1-.9.4-.2.2-.3.6-.3,1s0,.4.1.6c0,.2.2.4.4.5.2.1.4.2.6.2s.4,0,.6-.2c.2-.1.3-.3.3-.4,0-.2.1-.3.1-.5ZM265.6,764.3l.4-.5c.1.1.3.2.5.3.2,0,.4.1.6.1s.4,0,.6-.1c.2,0,.2-.2.2-.4s0-.2,0-.3c0,0-.2-.1-.3-.2-.2,0-.4-.1-.6-.2-.2,0-.4-.1-.6-.2-.2,0-.3-.2-.4-.3-.1-.1-.2-.3-.2-.6s0-.4.2-.6c.1-.2.3-.3.6-.4.2,0,.5-.1.7-.1s.6,0,.8.1c.2,0,.4.2.6.3l-.4.5c-.1-.1-.3-.2-.4-.3-.2,0-.4-.1-.6-.1s-.4,0-.6.1c-.1,0-.2.2-.2.4s0,.3.3.4c.2,0,.4.1.7.2.2,0,.4.1.6.2.2,0,.3.2.5.4.1.1.2.3.2.6s0,.5-.2.6c-.1.2-.3.3-.6.4-.2,0-.5.1-.8.1-.7,0-1.2-.2-1.6-.6ZM271.4,763.5v-1.9h-.7v-.6h.7v-1.2h.7v1.2h1.1v.6h-1.1v1.8c0,.3,0,.5.1.6,0,.1.2.2.4.2s.3,0,.3,0c0,0,.2-.1.3-.2l.3.4c-.2.1-.3.3-.5.3-.2,0-.4.1-.6.1-.4,0-.7-.1-.9-.3-.2-.2-.3-.6-.3-1ZM275.7,764.9c-.4,0-.7,0-1-.3-.3-.2-.5-.4-.7-.7-.2-.3-.2-.6-.2-1s0-.7.2-1c.2-.3.4-.5.7-.7.3-.2.6-.3,1-.3s.7,0,1,.3c.3.2.5.4.7.7.2.3.3.6.3,1s0,.7-.3,1c-.2.3-.4.5-.7.7-.3.2-.6.3-1,.3ZM275.7,764.2c.3,0,.5,0,.7-.2.2-.1.3-.3.4-.5.1-.2.2-.4.2-.6s0-.4-.2-.6c0-.2-.2-.4-.4-.5-.2-.1-.4-.2-.7-.2s-.5,0-.7.2c-.2.1-.3.3-.4.5,0,.2-.1.4-.1.6s0,.4.2.6c.1.2.2.4.4.5.2.1.4.2.7.2ZM185.5,771.8v-5.3h.7v5.3h-.7ZM190.2,770.8l.4.4c0,0-.1.1-.3.3-.1.1-.3.2-.5.3-.2,0-.5.1-.8.1s-.7,0-1-.2c-.3-.2-.5-.4-.7-.7-.2-.3-.2-.7-.2-1s0-.7.2-1c.2-.3.4-.5.7-.7.3-.2.6-.3,1-.3s.8.1,1,.3c.3.2.5.5.6.8.1.3.2.7.2,1.1h-2.9c0,.2,0,.4.2.6.1.2.3.3.4.4.2,0,.4.1.6.1.3,0,.6,0,.8-.2.2-.1.4-.2.4-.3ZM187.7,769.6h2.2c0-.3-.1-.5-.3-.7-.2-.2-.4-.3-.8-.3s-.4,0-.6.2c-.2.1-.3.2-.4.4,0,.2-.1.3-.1.5ZM193.8,771.8v-.4c-.1.2-.3.3-.6.4-.2,0-.5.1-.7.1s-.4,0-.6-.1c-.2,0-.4-.2-.5-.4-.1-.2-.2-.4-.2-.7,0-.4.1-.7.4-1,.3-.2.7-.4,1.2-.4s.2,0,.4,0c.1,0,.2,0,.3,0,.1,0,.2,0,.2,0h0c0-.4,0-.6-.3-.7-.2-.1-.4-.2-.7-.2s-.5,0-.7.1c-.2,0-.3.2-.4.2l-.3-.5c.1-.1.3-.2.6-.3.2-.1.6-.2,1-.2s.9.1,1.1.4c.3.2.4.6.4,1v2.2h0c0,.2,0,.3,0,.3h-.7ZM193.8,770.4v-.4s0,0-.2,0c0,0-.2,0-.3,0-.1,0-.2,0-.3,0-.3,0-.5,0-.6.1-.1,0-.2.2-.3.3,0,.1,0,.2,0,.3,0,.2,0,.3.2.5.1.1.3.2.6.2s.4,0,.5-.1c.2,0,.3-.2.4-.3.1-.1.2-.3.2-.4ZM196.2,771.8h-.7v-3.4h0c0-.2,0-.3,0-.4h.7v.6c0,0,.2-.2.3-.3.1-.1.2-.2.4-.3.2,0,.4-.1.6-.1s.2,0,.2,0c0,0,.1,0,.2,0l-.2.7c0,0-.2,0-.4,0s-.4,0-.6.2c-.2.1-.3.2-.4.4,0,.2-.1.4-.1.6v2ZM199.1,771.8h-.7v-3.3h0c0-.2,0-.3,0-.4h.7v.6c0,0,.2-.2.3-.3.1-.1.2-.2.4-.3.2,0,.4-.1.6-.1.5,0,.8.1,1.1.4.2.3.4.7.4,1.1v2.2h-.7v-2.2c0-.3,0-.6-.2-.8-.1-.2-.4-.2-.6-.2s-.5,0-.6.2c-.2.1-.3.3-.3.5,0,.2,0,.5,0,.7v1.7ZM204.9,771.8h-.7v-3.3h0c0-.2,0-.3,0-.4h.7v.6c0,0,.2-.2.3-.3.1-.1.2-.2.4-.3.2,0,.4-.1.6-.1s.5,0,.7.2c.2.1.3.3.4.5.1-.2.3-.3.6-.5.2-.1.5-.2.8-.2.5,0,.8.1,1.1.4.2.3.3.7.3,1.1v2.2h-.7v-2.2c0-.7-.3-1-.8-1s-.4,0-.5.2c-.2.1-.3.2-.4.4,0,.2-.1.3-.1.6v2.1h-.7v-2.2c0-.3,0-.6-.2-.8-.1-.2-.3-.2-.6-.2s-.5,0-.6.2c-.2.1-.3.3-.3.6,0,.2,0,.4,0,.7v1.7ZM212.8,771.9c-.4,0-.7,0-1-.3-.3-.2-.5-.4-.7-.7-.2-.3-.2-.6-.2-1s0-.7.2-1c.2-.3.4-.5.7-.7.3-.2.6-.3,1-.3s.7,0,1,.3c.3.2.5.4.7.7.2.3.3.6.3,1s0,.7-.3,1c-.2.3-.4.5-.7.7-.3.2-.6.3-1,.3ZM212.8,771.2c.3,0,.5,0,.7-.2.2-.1.3-.3.4-.5.1-.2.2-.4.2-.6s0-.4-.2-.6c0-.2-.2-.4-.4-.5-.2-.1-.4-.2-.7-.2s-.5,0-.7.2c-.2.1-.3.3-.4.5,0,.2-.1.4-.1.6s0,.4.2.6c.1.2.2.4.4.5.2.1.4.2.7.2ZM216.3,771.8h-.7v-3.4h0c0-.2,0-.3,0-.4h.7v.6c0,0,.2-.2.3-.3.1-.1.2-.2.4-.3.2,0,.4-.1.6-.1s.2,0,.2,0c0,0,.1,0,.2,0l-.2.7c0,0-.2,0-.4,0s-.4,0-.6.2c-.2.1-.3.2-.4.4,0,.2-.1.4-.1.6v2ZM221.3,770.8l.4.4c0,0-.1.1-.3.3-.1.1-.3.2-.5.3-.2,0-.5.1-.8.1s-.7,0-1-.2c-.3-.2-.5-.4-.7-.7-.2-.3-.2-.7-.2-1s0-.7.2-1c.2-.3.4-.5.7-.7.3-.2.6-.3,1-.3s.8.1,1,.3c.3.2.5.5.6.8.1.3.2.7.2,1.1h-2.9c0,.2,0,.4.2.6.1.2.3.3.4.4.2,0,.4.1.6.1.3,0,.6,0,.8-.2.2-.1.4-.2.4-.3ZM218.8,769.6h2.2c0-.3-.1-.5-.3-.7-.2-.2-.4-.3-.8-.3s-.4,0-.6.2c-.2.1-.3.2-.4.4,0,.2-.1.3-.1.5ZM226.3,771.8v-.4c-.2.2-.3.3-.6.4-.2,0-.5.1-.7.1s-.4,0-.6-.1c-.2,0-.4-.2-.5-.4-.1-.2-.2-.4-.2-.7,0-.4.1-.7.4-1,.3-.2.7-.4,1.2-.4s.2,0,.4,0c.1,0,.2,0,.3,0,.1,0,.2,0,.2,0h0c0-.4,0-.6-.3-.7-.2-.1-.4-.2-.7-.2s-.5,0-.7.1c-.2,0-.3.2-.4.2l-.3-.5c.1-.1.3-.2.6-.3.2-.1.6-.2,1-.2s.8.1,1.1.4c.3.2.4.6.4,1v2.2h0c0,.2,0,.3,0,.3h-.7ZM226.3,770.4v-.4s0,0-.2,0c0,0-.2,0-.3,0-.1,0-.2,0-.3,0-.3,0-.5,0-.6.1-.1,0-.2.2-.3.3,0,.1,0,.2,0,.3,0,.2,0,.3.2.5.1.1.3.2.6.2s.4,0,.5-.1c.2,0,.3-.2.4-.3.1-.1.2-.3.2-.4ZM228,771.6v-5.2h.7v2c0-.1.2-.2.4-.3.2-.1.4-.2.8-.2s.7,0,.9.3c.3.2.4.4.6.7.1.3.2.6.2,1s0,.7-.3,1c-.2.3-.4.5-.7.7-.3.2-.7.3-1.1.3s-.6,0-.8,0c-.3,0-.5-.1-.6-.2ZM228.7,769.7v1.5c0,0,.2,0,.3,0,.1,0,.3,0,.5,0,.4,0,.7-.1,1-.4.3-.3.4-.6.4-1s0-.4-.1-.6c0-.2-.2-.4-.3-.5-.2-.1-.4-.2-.6-.2s-.4,0-.6.2c-.2.1-.3.2-.4.4,0,.2-.1.3-.1.5ZM234.2,771.9c-.4,0-.7,0-1-.3-.3-.2-.5-.4-.7-.7-.2-.3-.2-.6-.2-1s0-.7.2-1c.2-.3.4-.5.7-.7.3-.2.6-.3,1-.3s.7,0,1,.3c.3.2.5.4.7.7.2.3.3.6.3,1s0,.7-.3,1c-.2.3-.4.5-.7.7-.3.2-.6.3-1,.3ZM234.2,771.2c.3,0,.5,0,.7-.2.2-.1.3-.3.4-.5.1-.2.2-.4.2-.6s0-.4-.2-.6c0-.2-.2-.4-.4-.5-.2-.1-.4-.2-.7-.2s-.5,0-.7.2c-.2.1-.3.3-.4.5,0,.2-.1.4-.1.6s0,.4.2.6c.1.2.2.4.4.5.2.1.4.2.7.2ZM236.9,770.3v-2.2h.7v2.2c0,.3,0,.6.2.8.1.2.4.2.6.2s.5,0,.6-.2c.2-.1.3-.3.3-.5,0-.2.1-.5.1-.7v-1.7h.7v3.5c0,0,0,.1,0,.2h-.7v-.6c0,0-.2.2-.3.3-.1,0-.2.2-.4.2-.2,0-.4.1-.6.1-.5,0-.8-.1-1.1-.4-.2-.3-.3-.7-.3-1.1ZM241.6,770.5v-1.9h-.7v-.6h.7v-1.2h.7v1.2h1.1v.6h-1.1v1.8c0,.3,0,.5.1.6,0,.1.2.2.4.2s.3,0,.3,0c0,0,.2-.1.3-.2l.3.4c-.2.1-.3.3-.5.3-.2,0-.4.1-.6.1-.4,0-.7-.1-.9-.3-.2-.2-.3-.6-.3-1ZM247.6,771.9c-.4,0-.7,0-1-.3-.3-.2-.5-.4-.7-.7-.2-.3-.2-.6-.2-1s0-.7.2-1c.2-.3.4-.5.7-.7.3-.2.6-.3,1-.3s.7,0,1,.3c.3.2.5.4.7.7.2.3.3.6.3,1s0,.7-.3,1c-.2.3-.4.5-.7.7-.3.2-.6.3-1,.3ZM247.6,771.2c.3,0,.5,0,.7-.2.2-.1.3-.3.4-.5.1-.2.2-.4.2-.6s0-.4-.2-.6c0-.2-.2-.4-.4-.5-.2-.1-.4-.2-.7-.2s-.5,0-.7.2c-.2.1-.3.3-.4.5,0,.2-.1.4-.1.6s0,.4.2.6c.1.2.2.4.4.5.2.1.4.2.7.2ZM250.4,770.3v-2.2h.7v2.2c0,.3,0,.6.2.8.1.2.4.2.6.2s.5,0,.6-.2c.2-.1.3-.3.3-.5,0-.2.1-.5.1-.7v-1.7h.7v3.5c0,0,0,.1,0,.2h-.7v-.6c0,0-.2.2-.3.3-.1,0-.2.2-.4.2-.2,0-.4.1-.6.1-.5,0-.8-.1-1.1-.4-.2-.3-.3-.7-.3-1.1ZM255.4,771.8h-.7v-3.4h0c0-.2,0-.3,0-.4h.7v.6c0,0,.2-.2.3-.3.1-.1.2-.2.4-.3.2,0,.4-.1.6-.1s.2,0,.2,0c0,0,.1,0,.2,0l-.2.7c0,0-.2,0-.4,0s-.4,0-.6.2c-.2.1-.3.2-.4.4,0,.2-.1.4-.1.6v2ZM261.4,771.8v-.4c-.1.2-.3.3-.6.4-.2,0-.5.1-.7.1s-.4,0-.6-.1c-.2,0-.4-.2-.5-.4-.1-.2-.2-.4-.2-.7,0-.4.1-.7.4-1,.3-.2.7-.4,1.2-.4s.2,0,.4,0c.1,0,.2,0,.3,0,.1,0,.2,0,.2,0h0c0-.4,0-.6-.3-.7-.2-.1-.4-.2-.7-.2s-.5,0-.7.1c-.2,0-.3.2-.4.2l-.3-.5c.1-.1.3-.2.6-.3.2-.1.6-.2,1-.2s.9.1,1.1.4c.3.2.4.6.4,1v2.2h0c0,.2,0,.3,0,.3h-.7ZM261.4,770.4v-.4s0,0-.2,0c0,0-.2,0-.3,0-.1,0-.2,0-.3,0-.3,0-.5,0-.6.1-.1,0-.2.2-.3.3,0,.1,0,.2,0,.3,0,.2,0,.3.2.5.1.1.3.2.6.2s.4,0,.5-.1c.2,0,.3-.2.4-.3.1-.1.2-.3.2-.4ZM263.8,771.8l-1.3-3.7h.8l.8,2.8.9-2.8h.6l.9,2.9.8-2.9h.7l-1.2,3.7h-.7l-.9-2.6-.9,2.6h-.7ZM271.1,771.8v-.4c-.1.2-.3.3-.6.4-.2,0-.5.1-.7.1s-.4,0-.6-.1c-.2,0-.4-.2-.5-.4-.1-.2-.2-.4-.2-.7,0-.4.1-.7.4-1,.3-.2.7-.4,1.2-.4s.2,0,.4,0c.1,0,.2,0,.3,0,.1,0,.2,0,.2,0h0c0-.4,0-.6-.3-.7-.2-.1-.4-.2-.7-.2s-.5,0-.7.1c-.2,0-.3.2-.4.2l-.3-.5c.1-.1.3-.2.6-.3.2-.1.6-.2,1-.2s.9.1,1.1.4c.3.2.4.6.4,1v2.2h0c0,.2,0,.3,0,.3h-.7ZM271,770.4v-.4s0,0-.2,0c0,0-.2,0-.3,0-.1,0-.2,0-.3,0-.3,0-.5,0-.6.1-.1,0-.2.2-.3.3,0,.1,0,.2,0,.3,0,.2,0,.3.2.5.1.1.3.2.6.2s.4,0,.5-.1c.2,0,.3-.2.4-.3.1-.1.2-.3.2-.4ZM273.4,771.8h-.7v-3.4h0c0-.2,0-.3,0-.4h.7v.6c0,0,.2-.2.3-.3.1-.1.2-.2.4-.3.2,0,.4-.1.6-.1s.2,0,.2,0c0,0,.1,0,.2,0l-.2.7c0,0-.2,0-.4,0s-.4,0-.6.2c-.2.1-.3.2-.4.4,0,.2-.1.4-.1.6v2ZM278.1,771.8v-.5c0,0-.1.1-.2.2,0,0-.2.2-.4.3-.2,0-.4.1-.6.1s-.6,0-.8-.2c-.3-.2-.4-.4-.6-.7-.1-.3-.2-.6-.2-1s0-.7.2-.9c.1-.3.3-.5.5-.6.2-.2.4-.3.6-.4.2,0,.4-.1.6-.1s.4,0,.5,0c.1,0,.3.1.4.2v-1.8h.7v5.1c0,0,0,.1,0,.2h-.7ZM278.1,770.2v-1.3c0,0-.2-.1-.4-.2-.1,0-.3,0-.5,0-.3,0-.6.1-.9.4-.2.2-.3.6-.3,1s0,.4.1.6c0,.2.2.4.4.5.2.1.4.2.6.2s.4,0,.6-.2c.2-.1.3-.3.3-.4,0-.2.1-.3.1-.5ZM279.6,771.3l.4-.5c.1.1.3.2.5.3.2,0,.4.1.6.1s.4,0,.6-.1c.2,0,.2-.2.2-.4s0-.2,0-.3c0,0-.2-.1-.3-.2-.2,0-.4-.1-.6-.2-.2,0-.4-.1-.6-.2-.2,0-.3-.2-.4-.3-.1-.1-.2-.3-.2-.6s0-.4.2-.6c.1-.2.3-.3.6-.4.2,0,.5-.1.7-.1s.6,0,.8.1c.2,0,.4.2.6.3l-.4.5c-.1-.1-.3-.2-.4-.3-.2,0-.4-.1-.6-.1s-.4,0-.6.1c-.1,0-.2.2-.2.4s0,.3.3.4c.2,0,.4.1.7.2.2,0,.4.1.6.2.2,0,.3.2.5.4.1.1.2.3.2.6s0,.5-.2.6c-.1.2-.3.3-.6.4-.2,0-.5.1-.8.1-.7,0-1.2-.2-1.6-.6ZM283.5,771.8v-.9h.9v.9h-.9ZM185.6,778.8v-5.3h.8v5.3h-.8ZM187.3,778.3l.4-.5c.1.1.3.2.5.3.2,0,.4.1.6.1s.4,0,.6-.1c.2,0,.2-.2.2-.4s0-.2,0-.3c0,0-.2-.1-.3-.2-.2,0-.4-.1-.6-.2-.2,0-.4-.1-.6-.2-.2,0-.3-.2-.4-.3-.1-.1-.2-.3-.2-.6s0-.4.2-.6c.1-.2.3-.3.6-.4.2,0,.5-.1.7-.1s.6,0,.8.1c.2,0,.4.2.6.3l-.4.5c-.1-.1-.3-.2-.4-.3-.2,0-.4-.1-.6-.1s-.4,0-.6.1c-.1,0-.2.2-.2.4s0,.3.3.4c.2,0,.4.1.7.2.2,0,.4.1.6.2.2,0,.3.2.5.4.1.1.2.3.2.6s0,.5-.2.6c-.1.2-.3.3-.6.4-.2,0-.5.1-.8.1-.7,0-1.2-.2-1.6-.6ZM191.1,778.3l.4-.5c.1.1.3.2.5.3.2,0,.4.1.6.1s.4,0,.6-.1c.2,0,.2-.2.2-.4s0-.2,0-.3c0,0-.2-.1-.3-.2-.2,0-.4-.1-.6-.2-.2,0-.4-.1-.6-.2-.2,0-.3-.2-.4-.3-.1-.1-.2-.3-.2-.6s0-.4.2-.6c.1-.2.3-.3.6-.4.2,0,.5-.1.7-.1s.6,0,.8.1c.2,0,.4.2.6.3l-.4.5c-.1-.1-.3-.2-.4-.3-.2,0-.4-.1-.6-.1s-.4,0-.6.1c-.1,0-.2.2-.2.4s0,.3.3.4c.2,0,.4.1.7.2.2,0,.4.1.6.2.2,0,.3.2.5.4.1.1.2.3.2.6s0,.5-.2.6c-.1.2-.3.3-.6.4-.2,0-.5.1-.8.1-.7,0-1.2-.2-1.6-.6ZM195,777.3v-2.2h.7v2.2c0,.3,0,.6.2.8.1.2.4.2.6.2s.5,0,.6-.2c.2-.1.3-.3.3-.5,0-.2.1-.5.1-.7v-1.7h.7v3.5c0,0,0,.1,0,.2h-.7v-.6c0,0-.2.2-.3.3-.1,0-.2.2-.4.2-.2,0-.4.1-.6.1-.5,0-.8-.1-1.1-.4-.2-.3-.3-.7-.3-1.1ZM202.3,777.8l.4.4c0,0-.1.1-.3.3-.1.1-.3.2-.5.3-.2,0-.5.1-.8.1s-.7,0-1-.2c-.3-.2-.5-.4-.7-.7-.2-.3-.2-.7-.2-1s0-.7.2-1c.2-.3.4-.5.7-.7.3-.2.6-.3,1-.3s.8.1,1,.3c.3.2.5.5.6.8.1.3.2.7.2,1.1h-2.9c0,.2,0,.4.2.6.1.2.3.3.4.4.2,0,.4.1.6.1.3,0,.6,0,.8-.2.2-.1.4-.2.4-.3ZM199.9,776.6h2.2c0-.3-.1-.5-.3-.7-.2-.2-.4-.3-.8-.3s-.4,0-.6.2c-.2.1-.3.2-.4.4,0,.2-.1.3-.1.5ZM206.4,778.8v-.5c0,0-.1.1-.2.2,0,0-.2.2-.4.3-.2,0-.4.1-.6.1s-.6,0-.8-.2c-.2-.2-.4-.4-.6-.7-.1-.3-.2-.6-.2-1s0-.7.2-.9c.1-.3.3-.5.5-.6.2-.2.4-.3.6-.4.2,0,.4-.1.6-.1s.4,0,.5,0c.1,0,.3.1.4.2v-1.8h.7v5.1c0,0,0,.1,0,.2h-.7ZM206.3,777.2v-1.3c0,0-.2-.1-.4-.2-.1,0-.3,0-.5,0-.3,0-.6.1-.9.4-.2.2-.3.6-.3,1s0,.4.1.6c0,.2.2.4.4.5.2.1.4.2.6.2s.5,0,.6-.2c.2-.1.3-.3.3-.4,0-.2.1-.3.1-.5ZM209.5,778.6v-5.2h.7v2c0-.1.2-.2.4-.3.2-.1.4-.2.8-.2s.7,0,.9.3c.3.2.4.4.6.7.1.3.2.6.2,1s0,.7-.3,1c-.2.3-.4.5-.7.7-.3.2-.7.3-1.1.3s-.6,0-.8,0c-.3,0-.5-.1-.6-.2ZM210.2,776.7v1.5c0,0,.2,0,.3,0,.1,0,.3,0,.5,0,.4,0,.7-.1,1-.4.3-.3.4-.6.4-1s0-.4-.1-.6c0-.2-.2-.4-.3-.5-.2-.1-.4-.2-.6-.2s-.4,0-.6.2c-.2.1-.3.2-.4.4,0,.2-.1.3-.1.5ZM213.4,780.2l.3-.5c0,0,.1,0,.2.1,0,0,.2,0,.3,0,.2,0,.3,0,.4-.2,0-.2.2-.4.3-.7v-.2c0,0-1.6-3.7-1.6-3.7h.8l1.2,2.8,1.1-2.8h.8l-1.5,3.6c0,.2-.1.3-.2.6,0,.2-.2.4-.3.6-.1.2-.2.3-.4.5-.2.1-.3.2-.6.2s-.3,0-.5,0c-.1,0-.2-.1-.3-.2ZM219.2,778.8v-5.3h.8v2.2h2.9v-2.2h.8v5.3h-.8v-2.4h-2.9v2.4h-.8ZM226.6,778.9c-.4,0-.7,0-1-.3-.3-.2-.5-.4-.7-.7-.2-.3-.2-.6-.2-1s0-.7.2-1c.2-.3.4-.5.7-.7.3-.2.6-.3,1-.3s.7,0,1,.3c.3.2.5.4.7.7.2.3.3.6.3,1s0,.7-.3,1c-.2.3-.4.5-.7.7-.3.2-.6.3-1,.3ZM226.6,778.2c.3,0,.5,0,.7-.2.2-.1.3-.3.4-.5.1-.2.2-.4.2-.6s0-.4-.2-.6c0-.2-.2-.4-.4-.5-.2-.1-.4-.2-.7-.2s-.5,0-.7.2c-.2.1-.3.3-.4.5,0,.2-.1.4-.1.6s0,.4.2.6c.1.2.2.4.4.5.2.1.4.2.7.2ZM229.2,778.3l.4-.5c.1.1.3.2.5.3.2,0,.4.1.6.1s.4,0,.6-.1c.2,0,.2-.2.2-.4s0-.2,0-.3c0,0-.2-.1-.3-.2-.2,0-.4-.1-.6-.2-.2,0-.4-.1-.6-.2-.2,0-.3-.2-.4-.3-.1-.1-.2-.3-.2-.6s0-.4.2-.6c.1-.2.3-.3.6-.4.2,0,.5-.1.7-.1s.6,0,.8.1c.2,0,.4.2.6.3l-.4.5c-.1-.1-.3-.2-.4-.3-.2,0-.4-.1-.6-.1s-.4,0-.6.1c-.1,0-.2.2-.2.4s0,.3.3.4c.2,0,.4.1.7.2.2,0,.4.1.6.2.2,0,.3.2.5.4.1.1.2.3.2.6s0,.5-.2.6c-.1.2-.3.3-.6.4-.2,0-.5.1-.8.1-.7,0-1.2-.2-1.6-.6ZM233.5,777.5v-1.9h-.7v-.6h.7v-1.2h.7v1.2h1.1v.6h-1.1v1.8c0,.3,0,.5.1.6,0,.1.2.2.4.2s.3,0,.3,0c0,0,.2-.1.3-.2l.3.4c-.2.1-.3.3-.5.3-.2,0-.4.1-.6.1-.4,0-.7-.1-.9-.3-.2-.2-.3-.6-.3-1ZM236.1,776.9v-.7h2.3v.7h-2.3ZM239.6,778.8v-5.3h1.7c.4,0,.7,0,.9.2.2,0,.4.2.6.4.1.2.2.3.3.5,0,.2,0,.4,0,.6,0,.4,0,.7-.2.9-.2.2-.4.4-.6.5-.3.1-.6.2-.9.2h-1v2.1h-.8ZM240.4,776h1c.3,0,.6,0,.8-.3.2-.2.3-.4.3-.7s0-.5-.3-.7c-.2-.2-.4-.3-.8-.3h-1v1.9ZM243.9,778.8v-5.3h.7v5.3h-.7ZM245.6,777.3v-2.2h.7v2.2c0,.3,0,.6.2.8.1.2.4.2.6.2s.5,0,.6-.2.3-.3.3-.5c0-.2.1-.5.1-.7v-1.7h.7v3.5c0,0,0,.1,0,.2h-.7v-.6c0,0-.2.2-.3.3-.1,0-.2.2-.4.2-.2,0-.4.1-.6.1-.5,0-.8-.1-1.1-.4-.2-.3-.3-.7-.3-1.1ZM249.7,778.3l.4-.5c.1.1.3.2.5.3.2,0,.4.1.6.1s.4,0,.6-.1c.2,0,.2-.2.2-.4s0-.2,0-.3c0,0-.2-.1-.3-.2-.2,0-.4-.1-.6-.2-.2,0-.4-.1-.6-.2-.2,0-.3-.2-.4-.3-.1-.1-.2-.3-.2-.6s0-.4.2-.6c.1-.2.3-.3.6-.4.2,0,.5-.1.7-.1s.6,0,.8.1c.2,0,.4.2.6.3l-.4.5c-.1-.1-.3-.2-.4-.3-.2,0-.4-.1-.6-.1s-.4,0-.6.1c-.1,0-.2.2-.2.4s0,.3.3.4c.2,0,.4.1.7.2.2,0,.4.1.6.2.2,0,.3.2.5.4.1.1.2.3.2.6s0,.5-.2.6c-.1.2-.3.3-.6.4-.2,0-.5.1-.8.1-.7,0-1.2-.2-1.6-.6ZM255.2,778.8v-5.3h1.7c.4,0,.7,0,.9.2.2,0,.4.2.6.4.1.2.2.3.3.5,0,.2,0,.4,0,.6,0,.4,0,.7-.2.9-.2.2-.4.4-.6.5-.3.1-.6.2-.9.2h-1v2.1h-.8ZM256,776h1c.3,0,.6,0,.8-.3.2-.2.3-.4.3-.7s0-.5-.3-.7c-.2-.2-.4-.3-.8-.3h-1v1.9ZM260,777.5v-1.9h-.7v-.6h.7v-1.2h.7v1.2h1.1v.6h-1.1v1.8c0,.3,0,.5.1.6,0,.1.2.2.4.2s.3,0,.3,0c0,0,.2-.1.3-.2l.3.4c-.2.1-.3.3-.5.3-.2,0-.4.1-.6.1-.4,0-.7-.1-.9-.3-.2-.2-.3-.6-.3-1ZM262.3,780.2l.3-.5c0,0,.1,0,.2.1,0,0,.2,0,.3,0,.2,0,.3,0,.4-.2,0-.2.2-.4.3-.7v-.2c0,0-1.6-3.7-1.6-3.7h.8l1.2,2.8,1.1-2.8h.8l-1.5,3.6c0,.2-.1.3-.2.6,0,.2-.2.4-.3.6-.1.2-.2.3-.4.5-.2.1-.3.2-.6.2s-.3,0-.5,0c-.1,0-.2-.1-.3-.2ZM185.6,785.8v-5.3h.8v4.7h2.8v.7h-3.5ZM189.9,781.4v-.8h.8v.8h-.8ZM189.9,785.8v-3.7h.7v3.7h-.7ZM192.4,785.8h-.7v-3.3h0c0-.2,0-.3,0-.4h.7v.6c0,0,.2-.2.3-.3.1-.1.2-.2.4-.3.2,0,.4-.1.6-.1s.5,0,.7.2c.2.1.3.3.4.5.1-.2.3-.3.6-.5.2-.1.5-.2.8-.2.5,0,.8.1,1.1.4.2.3.3.7.3,1.1v2.2h-.7v-2.2c0-.7-.3-1-.8-1s-.4,0-.5.2c-.2.1-.3.2-.4.4,0,.2-.1.3-.1.6v2.1h-.7v-2.2c0-.3,0-.6-.2-.8-.1-.2-.3-.2-.6-.2s-.5,0-.6.2c-.2.1-.3.3-.3.6,0,.2,0,.4,0,.7v1.7ZM198.4,781.4v-.8h.8v.8h-.8ZM198.5,785.8v-3.7h.7v3.7h-.7ZM200.5,784.5v-1.9h-.7v-.6h.7v-1.2h.7v1.2h1.1v.6h-1.1v1.8c0,.3,0,.5.1.6,0,.1.2.2.4.2s.3,0,.3,0c0,0,.2-.1.3-.2l.3.4c-.2.1-.3.3-.5.3-.2,0-.4.1-.6.1-.4,0-.7-.1-.9-.3-.2-.2-.3-.6-.3-1ZM206,784.8l.4.4c0,0-.1.1-.3.3-.1.1-.3.2-.5.3-.2,0-.5.1-.8.1s-.7,0-1-.2c-.3-.2-.5-.4-.7-.7-.2-.3-.2-.7-.2-1s0-.7.2-1c.2-.3.4-.5.7-.7.3-.2.6-.3,1-.3s.8.1,1,.3c.3.2.5.5.6.8.1.3.2.7.2,1.1h-2.9c0,.2,0,.4.2.6.1.2.3.3.4.4.2,0,.4.1.6.1.3,0,.6,0,.8-.2.2-.1.4-.2.4-.3ZM203.6,783.6h2.2c0-.3-.1-.5-.3-.7-.2-.2-.4-.3-.8-.3s-.4,0-.6.2c-.2.1-.3.2-.4.4,0,.2-.1.3-.1.5ZM210,785.8v-.5c0,0-.1.1-.2.2,0,0-.2.2-.4.3-.2,0-.4.1-.6.1s-.6,0-.8-.2c-.3-.2-.4-.4-.6-.7-.1-.3-.2-.6-.2-1s0-.7.2-.9c.1-.3.3-.5.5-.6.2-.2.4-.3.6-.4.2,0,.4-.1.6-.1s.4,0,.5,0c.1,0,.3.1.4.2v-1.8h.7v5.1c0,0,0,.1,0,.2h-.7ZM210,784.2v-1.3c0,0-.2-.1-.4-.2-.1,0-.3,0-.5,0-.3,0-.6.1-.9.4-.2.2-.3.6-.3,1s0,.4.1.6c0,.2.2.4.4.5.2.1.4.2.6.2s.4,0,.6-.2c.2-.1.3-.3.3-.4,0-.2.1-.3.1-.5ZM211.8,785.8v-.9h.9v.9h-.9ZM218.1,783.7v-.7h1.9v2.1c-.2.2-.5.3-.8.5-.3.1-.8.2-1.3.2s-1-.1-1.4-.4c-.4-.2-.7-.6-.9-1-.2-.4-.3-.9-.3-1.4s0-.8.2-1.1c.1-.3.3-.6.5-.9.2-.3.5-.5.8-.6.3-.1.7-.2,1.1-.2s.7,0,1,.2c.3.1.5.2.7.4.2.2.3.3.4.5l-.5.5c0-.1-.2-.2-.3-.4-.1-.1-.3-.2-.5-.3-.2,0-.4-.1-.7-.1-.4,0-.7,0-1,.3-.3.2-.5.4-.7.8-.2.3-.2.7-.2,1.1s0,.8.2,1.1c.2.3.4.6.7.7.3.2.6.3,1,.3s.6,0,.8-.1c.2,0,.4-.2.6-.3v-1.1h-1.1ZM224,784.8l.4.4c0,0-.1.1-.3.3-.1.1-.3.2-.5.3-.2,0-.5.1-.8.1s-.7,0-1-.2c-.3-.2-.5-.4-.7-.7-.2-.3-.2-.7-.2-1s0-.7.2-1c.2-.3.4-.5.7-.7.3-.2.6-.3,1-.3s.8.1,1,.3c.3.2.5.5.6.8.1.3.2.7.2,1.1h-2.9c0,.2,0,.4.2.6.1.2.3.3.4.4.2,0,.4.1.6.1.3,0,.6,0,.8-.2.2-.1.4-.2.4-.3ZM221.5,783.6h2.2c0-.3-.1-.5-.3-.7-.2-.2-.4-.3-.8-.3s-.4,0-.6.2c-.2.1-.3.2-.4.4,0,.2-.1.3-.1.5ZM226,785.8h-.7v-3.3h0c0-.2,0-.3,0-.4h.7v.6c0,0,.2-.2.3-.3.1-.1.2-.2.4-.3.2,0,.4-.1.6-.1.5,0,.8.1,1.1.4.2.3.4.7.4,1.1v2.2h-.7v-2.2c0-.3,0-.6-.2-.8-.1-.2-.4-.2-.6-.2s-.5,0-.6.2c-.2.1-.3.3-.3.5,0,.2,0,.5,0,.7v1.7ZM232.6,784.8l.4.4c0,0-.1.1-.3.3-.1.1-.3.2-.5.3-.2,0-.5.1-.8.1s-.7,0-1-.2c-.3-.2-.5-.4-.7-.7-.2-.3-.2-.7-.2-1s0-.7.2-1c.2-.3.4-.5.7-.7.3-.2.6-.3,1-.3s.8.1,1,.3c.3.2.5.5.6.8.1.3.2.7.2,1.1h-2.9c0,.2,0,.4.2.6.1.2.3.3.4.4.2,0,.4.1.6.1.3,0,.6,0,.8-.2.2-.1.4-.2.4-.3ZM230.2,783.6h2.2c0-.3-.1-.5-.3-.7-.2-.2-.4-.3-.8-.3s-.4,0-.6.2c-.2.1-.3.2-.4.4,0,.2-.1.3-.1.5ZM234.6,785.8h-.7v-3.4h0c0-.2,0-.3,0-.4h.7v.6c0,0,.2-.2.3-.3.1-.1.2-.2.4-.3.2,0,.4-.1.6-.1s.2,0,.2,0c0,0,.1,0,.2,0l-.2.7c0,0-.2,0-.4,0s-.4,0-.6.2c-.2.1-.3.2-.4.4,0,.2-.1.4-.1.6v2ZM239.1,785.8v-.4c-.2.2-.3.3-.6.4-.2,0-.5.1-.7.1s-.4,0-.6-.1c-.2,0-.4-.2-.5-.4-.1-.2-.2-.4-.2-.7,0-.4.1-.7.4-1,.3-.2.7-.4,1.2-.4s.2,0,.4,0c.1,0,.2,0,.3,0,.1,0,.2,0,.2,0h0c0-.4,0-.6-.3-.7-.2-.1-.4-.2-.7-.2s-.5,0-.7.1c-.2,0-.3.2-.4.2l-.3-.5c.1-.1.3-.2.6-.3.2-.1.6-.2,1-.2s.9.1,1.1.4c.3.2.4.6.4,1v2.2h0c0,.2,0,.3,0,.3h-.7ZM239,784.4v-.4s0,0-.2,0c0,0-.2,0-.3,0-.1,0-.2,0-.3,0-.3,0-.5,0-.6.1-.1,0-.2.2-.3.3,0,.1,0,.2,0,.3,0,.2,0,.3.2.5.1.1.3.2.6.2s.4,0,.5-.1c.2,0,.3-.2.4-.3.1-.1.2-.3.2-.4ZM240.7,785.8v-5.3h.7v5.3h-.7ZM246.2,785.8v-.4c-.1.2-.3.3-.6.4-.2,0-.5.1-.7.1s-.4,0-.6-.1c-.2,0-.4-.2-.5-.4-.1-.2-.2-.4-.2-.7,0-.4.1-.7.4-1,.3-.2.7-.4,1.2-.4s.2,0,.4,0c.1,0,.2,0,.3,0,.1,0,.2,0,.2,0h0c0-.4,0-.6-.3-.7-.2-.1-.4-.2-.7-.2s-.5,0-.7.1c-.2,0-.3.2-.4.2l-.3-.5c.1-.1.3-.2.6-.3.2-.1.6-.2,1-.2s.9.1,1.1.4c.3.2.4.6.4,1v2.2h0c0,.2,0,.3,0,.3h-.7ZM246.2,784.4v-.4s0,0-.2,0c0,0-.2,0-.3,0-.1,0-.2,0-.3,0-.3,0-.5,0-.6.1-.1,0-.2.2-.3.3,0,.1,0,.2,0,.3,0,.2,0,.3.2.5.1.1.3.2.6.2s.4,0,.5-.1c.2,0,.3-.2.4-.3.1-.1.2-.3.2-.4ZM250.5,785.8v-.5c0,0-.1.1-.2.2,0,0-.2.2-.4.3-.2,0-.4.1-.6.1s-.6,0-.8-.2c-.3-.2-.4-.4-.6-.7-.1-.3-.2-.6-.2-1s0-.7.2-.9c.1-.3.3-.5.5-.6.2-.2.4-.3.6-.4.2,0,.4-.1.6-.1s.4,0,.5,0c.1,0,.3.1.4.2v-1.8h.7v5.1c0,0,0,.1,0,.2h-.7ZM250.5,784.2v-1.3c0,0-.2-.1-.4-.2-.1,0-.3,0-.5,0-.3,0-.6.1-.9.4-.2.2-.3.6-.3,1s0,.4.1.6c0,.2.2.4.4.5.2.1.4.2.6.2s.4,0,.6-.2c.2-.1.3-.3.3-.4,0-.2.1-.3.1-.5ZM253.4,785.8l-1.6-3.7h.8l1.2,2.9,1.2-2.9h.8l-1.6,3.7h-.7ZM256.2,781.4v-.8h.8v.8h-.8ZM256.3,785.8v-3.7h.7v3.7h-.7ZM260.8,784.8l.4.5c-.2.2-.4.3-.6.5-.2.1-.5.2-.8.2s-.7,0-1-.3c-.3-.2-.5-.4-.7-.7-.2-.3-.2-.6-.2-1s0-.7.2-1c.2-.3.4-.5.7-.7.3-.2.6-.3,1-.3s.6,0,.8.2c.2.1.4.3.6.5l-.5.5c-.1-.1-.2-.2-.4-.3s-.3-.1-.6-.1-.5,0-.7.2c-.2.1-.3.3-.4.5,0,.2-.1.4-.1.7s0,.4.1.7c.1.2.2.4.4.5.2.1.4.2.7.2s.4,0,.6-.1c.2,0,.3-.2.4-.3ZM264.7,784.8l.4.4c0,0-.1.1-.3.3-.1.1-.3.2-.5.3-.2,0-.5.1-.8.1s-.7,0-1-.2c-.3-.2-.5-.4-.7-.7-.2-.3-.2-.7-.2-1s0-.7.2-1c.2-.3.4-.5.7-.7.3-.2.6-.3,1-.3s.8.1,1,.3.5.5.6.8c.1.3.2.7.2,1.1h-2.9c0,.2,0,.4.2.6.1.2.3.3.4.4.2,0,.4.1.6.1.3,0,.6,0,.8-.2.2-.1.4-.2.4-.3ZM262.3,783.6h2.2c0-.3-.1-.5-.3-.7-.2-.2-.4-.3-.8-.3s-.4,0-.6.2c-.2.1-.3.2-.4.4,0,.2-.1.3-.1.5ZM269.3,785.9c-.4,0-.7,0-1-.3-.3-.2-.5-.4-.7-.7-.2-.3-.2-.6-.2-1s0-.7.2-1c.2-.3.4-.5.7-.7.3-.2.6-.3,1-.3s.7,0,1,.3c.3.2.5.4.7.7.2.3.3.6.3,1s0,.7-.3,1c-.2.3-.4.5-.7.7-.3.2-.6.3-1,.3ZM269.3,785.2c.3,0,.5,0,.7-.2.2-.1.3-.3.4-.5.1-.2.2-.4.2-.6s0-.4-.2-.6c0-.2-.2-.4-.4-.5-.2-.1-.4-.2-.7-.2s-.5,0-.7.2c-.2.1-.3.3-.4.5,0,.2-.1.4-.1.6s0,.4.2.6c.1.2.2.4.4.5.2.1.4.2.7.2ZM272.8,785.8h-.7v-3.3h0c0-.2,0-.3,0-.4h.7v.6c0,0,.2-.2.3-.3.1-.1.2-.2.4-.3.2,0,.4-.1.6-.1.5,0,.8.1,1.1.4.2.3.4.7.4,1.1v2.2h-.7v-2.2c0-.3,0-.6-.2-.8-.1-.2-.4-.2-.6-.2s-.5,0-.6.2c-.2.1-.3.3-.3.5,0,.2,0,.5,0,.7v1.7ZM276.4,785.8v-5.3h.7v5.3h-.7ZM277.8,787.2l.3-.5c0,0,.1,0,.2.1,0,0,.2,0,.3,0,.2,0,.3,0,.4-.2,0-.2.2-.4.3-.7v-.2c0,0-1.6-3.7-1.6-3.7h.8l1.2,2.8,1.1-2.8h.8l-1.5,3.6c0,.2-.1.3-.2.6,0,.2-.2.4-.3.6-.1.2-.2.3-.4.5-.2.1-.3.2-.6.2s-.3,0-.5,0c-.1,0-.2-.1-.3-.2ZM281.5,785.8v-.9h.9v.9h-.9ZM189.6,791.4l.5.4c0,.1-.2.3-.4.4-.2.2-.4.3-.7.4-.3.1-.6.2-1,.2s-1-.1-1.4-.4c-.4-.2-.7-.6-.9-1-.2-.4-.3-.9-.3-1.4s0-.8.2-1.1c.1-.3.3-.6.5-.9.2-.3.5-.5.8-.6.3-.2.7-.2,1.1-.2s.7,0,1,.2c.3.1.5.2.7.4.2.2.3.3.4.5l-.5.5c0-.1-.2-.2-.3-.4-.1-.1-.3-.2-.5-.3-.2,0-.4-.1-.7-.1s-.7,0-1,.3c-.3.2-.5.4-.6.8-.1.3-.2.7-.2,1.1s0,.7.2,1c.2.3.4.6.6.8.3.2.6.3,1,.3s.6,0,.8-.2c.2-.1.4-.2.5-.3.1-.1.2-.2.3-.3ZM192.6,792.9c-.4,0-.7,0-1-.3-.3-.2-.5-.4-.7-.7-.2-.3-.2-.6-.2-1s0-.7.2-1c.2-.3.4-.5.7-.7.3-.2.6-.3,1-.3s.7,0,1,.3c.3.2.5.4.7.7.2.3.3.6.3,1s0,.7-.3,1c-.2.3-.4.5-.7.7-.3.2-.6.3-1,.3ZM192.6,792.2c.3,0,.5,0,.7-.2.2-.1.3-.3.4-.5.1-.2.2-.4.2-.6s0-.4-.2-.6c0-.2-.2-.4-.4-.5-.2-.1-.4-.2-.7-.2s-.5,0-.7.2c-.2.1-.3.3-.4.5,0,.2-.1.4-.1.6s0,.4.2.6c.1.2.2.4.4.5.2.1.4.2.7.2ZM196.1,792.8h-.7v-3.3h0c0-.2,0-.3,0-.4h.7v.6c0,0,.2-.2.3-.3.1-.1.2-.2.4-.3.2,0,.4-.1.6-.1.5,0,.8.1,1.1.4.2.3.4.7.4,1.1v2.2h-.7v-2.2c0-.3,0-.6-.2-.8-.2-.2-.4-.2-.6-.2s-.5,0-.6.2c-.2.1-.3.3-.3.5,0,.2,0,.5,0,.7v1.7ZM199.5,792.3l.4-.5c.1.1.3.2.5.3.2,0,.4.1.6.1s.4,0,.6-.1c.2,0,.2-.2.2-.4s0-.2,0-.3c0,0-.2-.1-.3-.2-.2,0-.4-.1-.6-.2-.2,0-.4-.1-.6-.2-.2,0-.3-.2-.4-.3-.1-.1-.2-.3-.2-.6s0-.4.2-.6c.1-.2.3-.3.6-.4.2,0,.5-.1.7-.1s.6,0,.8.1c.2,0,.4.2.6.3l-.4.5c-.1-.1-.3-.2-.4-.3-.2,0-.4-.1-.6-.1s-.4,0-.6.1c-.1,0-.2.2-.2.4s0,.3.3.4c.2,0,.4.1.7.2.2,0,.4.1.6.2.2,0,.3.2.5.4.1.1.2.3.2.6s0,.5-.2.6c-.1.2-.3.3-.6.4-.2,0-.5.1-.8.1-.7,0-1.2-.2-1.6-.6ZM203.4,788.4v-.8h.8v.8h-.8ZM203.5,792.8v-3.7h.7v3.7h-.7ZM207.9,792.8v-.5c0,0-.1.1-.2.2,0,0-.2.2-.4.3-.2,0-.4.1-.6.1s-.6,0-.8-.2c-.2-.2-.4-.4-.6-.7-.1-.3-.2-.6-.2-1s0-.7.2-.9c.1-.3.3-.5.5-.6.2-.2.4-.3.6-.4.2,0,.4-.1.6-.1s.4,0,.5,0c.1,0,.3.1.4.2v-1.8h.7v5.1c0,0,0,.1,0,.2h-.7ZM207.9,791.2v-1.3c0,0-.2-.1-.4-.2-.1,0-.3,0-.5,0-.3,0-.6.1-.9.4-.2.2-.3.6-.3,1s0,.4.1.6c0,.2.2.4.4.5.2.1.4.2.6.2s.5,0,.6-.2c.2-.1.3-.3.3-.4,0-.2.1-.3.1-.5ZM212.6,791.8l.4.4c0,0-.2.1-.3.3-.1.1-.3.2-.5.3-.2,0-.5.1-.8.1s-.7,0-1-.2c-.3-.2-.5-.4-.7-.7-.2-.3-.2-.7-.2-1s0-.7.2-1c.2-.3.4-.5.7-.7.3-.2.6-.3,1-.3s.8.1,1,.3c.3.2.5.5.6.8.1.3.2.7.2,1.1h-2.9c0,.2,0,.4.2.6.1.2.3.3.4.4.2,0,.4.1.6.1.3,0,.6,0,.8-.2.2-.1.4-.2.4-.3ZM210.2,790.6h2.2c0-.3-.1-.5-.3-.7-.2-.2-.4-.3-.8-.3s-.4,0-.6.2c-.2.1-.3.2-.4.4,0,.2-.1.3-.1.5ZM214.6,792.8h-.7v-3.4h0c0-.2,0-.3,0-.4h.7v.6c0,0,.2-.2.3-.3.1-.1.2-.2.4-.3.2,0,.4-.1.6-.1s.2,0,.2,0c0,0,.1,0,.2,0l-.2.7c0,0-.2,0-.4,0s-.4,0-.6.2c-.2.1-.3.2-.4.4,0,.2-.1.4-.1.6v2ZM218.6,791.5v-1.9h-.7v-.6h.7v-1.2h.7v1.2h1.1v.6h-1.1v1.8c0,.3,0,.5.1.6,0,.1.2.2.4.2s.3,0,.3,0c0,0,.2-.1.3-.2l.3.4c-.2.1-.3.3-.5.3-.2,0-.4.1-.6.1-.4,0-.7-.1-.9-.3-.2-.2-.3-.6-.3-1ZM221.3,792.8v-5.3h.7v2.2c0,0,.1-.2.2-.3.1-.1.2-.2.4-.3.2,0,.4-.1.6-.1.5,0,.8.1,1.1.4.2.3.4.7.4,1.1v2.2h-.7v-2.2c0-.3,0-.6-.2-.8-.1-.2-.4-.2-.6-.2s-.5,0-.6.2c-.2.1-.3.3-.3.5,0,.2,0,.5,0,.7v1.7h-.7ZM228.7,791.8l.4.4c0,0-.1.1-.3.3-.1.1-.3.2-.5.3-.2,0-.5.1-.8.1s-.7,0-1-.2c-.3-.2-.5-.4-.7-.7-.2-.3-.2-.7-.2-1s0-.7.2-1c.2-.3.4-.5.7-.7.3-.2.6-.3,1-.3s.8.1,1,.3c.3.2.5.5.6.8.1.3.2.7.2,1.1h-2.9c0,.2,0,.4.2.6.1.2.3.3.4.4.2,0,.4.1.6.1.3,0,.6,0,.8-.2.2-.1.4-.2.4-.3ZM226.3,790.6h2.2c0-.3-.1-.5-.3-.7-.2-.2-.4-.3-.8-.3s-.4,0-.6.2c-.2.1-.3.2-.4.4,0,.2-.1.3-.1.5ZM232.2,792.8h-.7v-3.4h0c0-.2,0-.3,0-.4h.7v.6c0,0,.2-.2.3-.3.1-.1.2-.2.4-.3.2,0,.4-.1.6-.1s.2,0,.2,0c0,0,.1,0,.2,0l-.2.7c0,0-.2,0-.4,0s-.4,0-.6.2c-.2.1-.3.2-.4.4,0,.2-.1.4-.1.6v2ZM237.1,791.8l.4.4c0,0-.1.1-.3.3-.1.1-.3.2-.5.3-.2,0-.5.1-.8.1s-.7,0-1-.2c-.3-.2-.5-.4-.7-.7-.2-.3-.2-.7-.2-1s0-.7.2-1c.2-.3.4-.5.7-.7.3-.2.6-.3,1-.3s.8.1,1,.3c.3.2.5.5.6.8.1.3.2.7.2,1.1h-2.9c0,.2,0,.4.2.6.1.2.3.3.4.4.2,0,.4.1.6.1.3,0,.6,0,.8-.2.2-.1.4-.2.4-.3ZM234.7,790.6h2.2c0-.3-.1-.5-.3-.7-.2-.2-.4-.3-.8-.3s-.4,0-.6.2c-.2.1-.3.2-.4.4,0,.2-.1.3-.1.5ZM238.4,792.8v-5.3h.7v5.3h-.7ZM243.1,791.8l.4.4c0,0-.1.1-.3.3-.1.1-.3.2-.5.3-.2,0-.5.1-.8.1s-.7,0-1-.2c-.3-.2-.5-.4-.7-.7-.2-.3-.2-.7-.2-1s0-.7.2-1c.2-.3.4-.5.7-.7.3-.2.6-.3,1-.3s.8.1,1,.3c.3.2.5.5.6.8.1.3.2.7.2,1.1h-2.9c0,.2,0,.4.2.6.1.2.3.3.4.4.2,0,.4.1.6.1.3,0,.6,0,.8-.2.2-.1.4-.2.4-.3ZM240.7,790.6h2.2c0-.3-.1-.5-.3-.7-.2-.2-.4-.3-.8-.3s-.4,0-.6.2c-.2.1-.3.2-.4.4,0,.2-.1.3-.1.5ZM245.4,792.8l-1.6-3.7h.8l1.2,2.9,1.2-2.9h.8l-1.6,3.7h-.7ZM250.5,792.8v-.4c-.1.2-.3.3-.6.4-.2,0-.5.1-.7.1s-.4,0-.6-.1c-.2,0-.4-.2-.5-.4-.1-.2-.2-.4-.2-.7,0-.4.1-.7.4-1,.3-.2.7-.4,1.2-.4s.2,0,.4,0c.1,0,.2,0,.3,0,.1,0,.2,0,.2,0h0c0-.4,0-.6-.3-.7-.2-.1-.4-.2-.7-.2s-.5,0-.7.1c-.2,0-.3.2-.4.2l-.3-.5c.1-.1.3-.2.6-.3.2-.1.6-.2,1-.2s.9.1,1.1.4c.3.2.4.6.4,1v2.2h0c0,.2,0,.3,0,.3h-.7ZM250.4,791.4v-.4s0,0-.2,0c0,0-.2,0-.3,0-.1,0-.2,0-.3,0-.3,0-.5,0-.6.1-.1,0-.2.2-.3.3,0,.1,0,.2,0,.3,0,.2,0,.3.2.5.1.1.3.2.6.2s.4,0,.5-.1c.2,0,.3-.2.4-.3.1-.1.2-.3.2-.4ZM252.8,792.8h-.7v-3.3h0c0-.2,0-.3,0-.4h.7v.6c0,0,.2-.2.3-.3.1-.1.2-.2.4-.3.2,0,.4-.1.6-.1.5,0,.8.1,1.1.4.2.3.4.7.4,1.1v2.2h-.7v-2.2c0-.3,0-.6-.2-.8-.1-.2-.4-.2-.6-.2s-.5,0-.6.2c-.2.1-.3.3-.3.5,0,.2,0,.5,0,.7v1.7ZM256.8,791.5v-1.9h-.7v-.6h.7v-1.2h.7v1.2h1.1v.6h-1.1v1.8c0,.3,0,.5.1.6,0,.1.2.2.4.2s.3,0,.3,0c0,0,.2-.1.3-.2l.3.4c-.2.1-.3.3-.5.3-.2,0-.4.1-.6.1-.4,0-.7-.1-.9-.3-.2-.2-.3-.6-.3-1ZM261.1,792.8v-5.3h1.7c.4,0,.7,0,.9.2.2,0,.4.2.6.4.1.2.2.3.3.5,0,.2,0,.4,0,.6,0,.4,0,.7-.2.9-.2.2-.4.4-.6.5-.3.1-.6.2-.9.2h-1v2.1h-.8ZM261.9,790h1c.3,0,.6,0,.8-.3.2-.2.3-.4.3-.7s0-.5-.3-.7c-.2-.2-.4-.3-.8-.3h-1v1.9ZM265.6,792.8v-5.3h1.8c.6,0,1.1,0,1.5.3.4.2.8.5,1,.9.2.4.4.9.4,1.5s-.1,1.1-.4,1.5c-.2.4-.6.7-1,.9-.4.2-.9.3-1.5.3h-1.8ZM266.4,792.1h1c.7,0,1.2-.2,1.6-.5.4-.3.6-.8.6-1.5s-.2-1.1-.5-1.5c-.4-.3-.9-.5-1.6-.5h-1v4ZM271,792l.5-.5c.1.1.2.2.4.3.1.1.3.2.5.3.2,0,.4.1.6.1.4,0,.6,0,.8-.2.2-.2.3-.4.3-.6s-.1-.5-.3-.7c-.2-.1-.5-.3-1-.4-.5,0-.8-.3-1.1-.5-.3-.3-.4-.6-.4-1s0-.5.2-.7c.1-.2.3-.4.6-.5.3-.1.6-.2,1-.2s.6,0,.9.1c.2,0,.4.2.5.3.1.1.2.2.3.3l-.5.5c0,0-.1-.1-.2-.2-.1,0-.2-.2-.4-.2-.2,0-.3-.1-.6-.1s-.4,0-.6.1c-.1,0-.2.2-.3.3,0,.1-.1.2-.1.4,0,.3.1.5.3.6.2.1.5.2.9.3.3,0,.5.2.8.3.2.1.4.3.6.5.2.2.2.5.2.9s0,.6-.2.8c-.2.2-.4.4-.7.6-.3.1-.6.2-1,.2s-.6,0-.9-.1c-.3,0-.5-.2-.7-.4-.2-.2-.3-.3-.4-.4ZM187.8,799.8v-.4c-.1.2-.3.3-.6.4-.2,0-.5.1-.7.1s-.4,0-.6-.1c-.2,0-.4-.2-.5-.4-.1-.2-.2-.4-.2-.7,0-.4.1-.7.4-1,.3-.2.7-.4,1.2-.4s.2,0,.4,0c.1,0,.2,0,.3,0,.1,0,.2,0,.2,0h0c0-.4,0-.6-.3-.7-.2-.1-.4-.2-.7-.2s-.5,0-.7.1c-.2,0-.3.2-.4.2l-.3-.5c.1-.1.3-.2.6-.3.2-.1.6-.2,1-.2s.9.1,1.1.4c.3.2.4.6.4,1v2.2h0c0,.2,0,.3,0,.3h-.7ZM187.8,798.4v-.4s0,0-.2,0c0,0-.2,0-.3,0-.1,0-.2,0-.3,0-.3,0-.5,0-.6.1-.1,0-.2.2-.3.3,0,.1,0,.2,0,.3,0,.2,0,.3.2.5.1.1.3.2.6.2s.4,0,.5-.1c.2,0,.3-.2.4-.3.1-.1.2-.3.2-.4ZM190.2,799.8h-.7v-3.3h0c0-.2,0-.3,0-.4h.7v.6c0,0,.2-.2.3-.3.1-.1.2-.2.4-.3.2,0,.4-.1.6-.1.5,0,.8.1,1.1.4.2.3.4.7.4,1.1v2.2h-.7v-2.2c0-.3,0-.6-.2-.8-.1-.2-.4-.2-.6-.2s-.5,0-.6.2c-.2.1-.3.3-.3.5,0,.2,0,.5,0,.7v1.7ZM196.5,799.8v-.5c0,0-.1.1-.2.2,0,0-.2.2-.4.3-.2,0-.4.1-.6.1s-.6,0-.8-.2c-.3-.2-.4-.4-.6-.7-.1-.3-.2-.6-.2-1s0-.7.2-.9c.1-.3.3-.5.5-.6.2-.2.4-.3.6-.4.2,0,.4-.1.6-.1s.4,0,.5,0c.1,0,.3.1.4.2v-1.8h.7v5.1c0,0,0,.1,0,.2h-.7ZM196.5,798.2v-1.3c0,0-.2-.1-.4-.2-.1,0-.3,0-.5,0-.3,0-.6.1-.9.4-.2.2-.3.6-.3,1s0,.4.1.6c0,.2.2.4.4.5.2.1.4.2.6.2s.4,0,.6-.2c.2-.1.3-.3.3-.4,0-.2.1-.3.1-.5ZM201.3,799.8v-4.7h-1.9v-.7h4.6v.7h-1.9v4.7h-.8ZM204.6,799.8l.2-5.3h.7l1.6,2.8,1.6-2.8h.7l.2,5.3h-.8l-.2-4.1-1.5,2.5h-.4l-1.5-2.5-.2,4.1h-.7ZM211,799.8v-5.3h1.8c.6,0,1.1,0,1.5.3.4.2.8.5,1,.9.3.4.4.9.4,1.5s-.1,1.1-.4,1.5c-.2.4-.6.7-1,.9-.4.2-.9.3-1.5.3h-1.8ZM211.8,799.1h1c.7,0,1.2-.2,1.6-.5.4-.3.6-.8.6-1.5s-.2-1.1-.5-1.5c-.4-.3-.9-.5-1.6-.5h-1v4ZM220.3,799.8v-.4c-.1.2-.3.3-.6.4-.2,0-.5.1-.7.1s-.4,0-.6-.1c-.2,0-.4-.2-.5-.4-.1-.2-.2-.4-.2-.7,0-.4.1-.7.4-1,.3-.2.7-.4,1.2-.4s.2,0,.4,0c.1,0,.2,0,.3,0,.1,0,.2,0,.2,0h0c0-.4,0-.6-.3-.7-.2-.1-.4-.2-.7-.2s-.5,0-.7.1c-.2,0-.3.2-.4.2l-.3-.5c.1-.1.3-.2.6-.3.2-.1.6-.2,1-.2s.9.1,1.1.4c.3.2.4.6.4,1v2.2h0c0,.2,0,.3,0,.3h-.7ZM220.3,798.4v-.4s0,0-.2,0c0,0-.2,0-.3,0-.1,0-.2,0-.3,0-.3,0-.5,0-.6.1-.1,0-.2.2-.3.3,0,.1,0,.2,0,.3,0,.2,0,.3.2.5.1.1.3.2.6.2s.4,0,.5-.1c.2,0,.3-.2.4-.3.1-.1.2-.3.2-.4ZM223,799.8l-1.6-3.7h.8l1.2,2.9,1.2-2.9h.8l-1.6,3.7h-.7ZM228,799.8v-.4c-.1.2-.3.3-.6.4-.2,0-.5.1-.7.1s-.4,0-.6-.1c-.2,0-.4-.2-.5-.4-.1-.2-.2-.4-.2-.7,0-.4.1-.7.4-1,.3-.2.7-.4,1.2-.4s.2,0,.4,0c.1,0,.2,0,.3,0,.1,0,.2,0,.2,0h0c0-.4,0-.6-.3-.7-.2-.1-.4-.2-.7-.2s-.5,0-.7.1c-.2,0-.3.2-.4.2l-.3-.5c.1-.1.3-.2.6-.3.2-.1.6-.2,1-.2s.9.1,1.1.4c.3.2.4.6.4,1v2.2h0c0,.2,0,.3,0,.3h-.7ZM228,798.4v-.4s0,0-.2,0c0,0-.2,0-.3,0-.1,0-.2,0-.3,0-.3,0-.5,0-.6.1-.1,0-.2.2-.3.3,0,.1,0,.2,0,.3,0,.2,0,.3.2.5.1.1.3.2.6.2s.4,0,.5-.1c.2,0,.3-.2.4-.3.1-.1.2-.3.2-.4ZM229.7,795.4v-.8h.8v.8h-.8ZM229.7,799.8v-3.7h.7v3.7h-.7ZM231.4,799.8v-5.3h.7v5.3h-.7ZM235.5,799.8v-.4c-.1.2-.3.3-.6.4-.2,0-.5.1-.7.1s-.4,0-.6-.1c-.2,0-.4-.2-.5-.4-.1-.2-.2-.4-.2-.7,0-.4.1-.7.4-1,.3-.2.7-.4,1.2-.4s.2,0,.4,0c.1,0,.2,0,.3,0,.1,0,.2,0,.2,0h0c0-.4,0-.6-.3-.7-.2-.1-.4-.2-.7-.2s-.5,0-.7.1c-.2,0-.3.2-.4.2l-.3-.5c.1-.1.3-.2.6-.3.2-.1.6-.2,1-.2s.9.1,1.1.4c.3.2.4.6.4,1v2.2h0c0,.2,0,.3,0,.3h-.7ZM235.5,798.4v-.4s0,0-.2,0c0,0-.2,0-.3,0-.1,0-.2,0-.3,0-.3,0-.5,0-.6.1-.1,0-.2.2-.3.3,0,.1,0,.2,0,.3,0,.2,0,.3.2.5.1.1.3.2.6.2s.4,0,.5-.1c.2,0,.3-.2.4-.3.1-.1.2-.3.2-.4ZM237.1,799.6v-5.2h.7v2c0-.1.2-.2.4-.3.2-.1.4-.2.8-.2s.7,0,.9.3c.3.2.4.4.6.7.1.3.2.6.2,1s0,.7-.3,1c-.2.3-.4.5-.7.7-.3.2-.7.3-1.1.3s-.6,0-.8,0c-.3,0-.5-.1-.6-.2ZM237.9,797.7v1.5c0,0,.2,0,.3,0,.1,0,.3,0,.5,0,.4,0,.7-.1,1-.4.3-.3.4-.6.4-1s0-.4-.1-.6c0-.2-.2-.4-.3-.5-.2-.1-.4-.2-.6-.2s-.4,0-.6.2c-.2.1-.3.2-.4.4,0,.2-.1.3-.1.5ZM241.5,799.8v-5.3h.7v5.3h-.7ZM246.2,798.8l.4.4c0,0-.2.1-.3.3-.1.1-.3.2-.5.3-.2,0-.5.1-.8.1s-.7,0-1-.2c-.3-.2-.5-.4-.7-.7-.2-.3-.2-.7-.2-1s0-.7.2-1c.2-.3.4-.5.7-.7.3-.2.6-.3,1-.3s.8.1,1,.3c.3.2.5.5.6.8.1.3.2.7.2,1.1h-2.9c0,.2,0,.4.2.6.1.2.3.3.4.4.2,0,.4.1.6.1.3,0,.6,0,.8-.2.2-.1.4-.2.4-.3ZM243.8,797.6h2.2c0-.3-.1-.5-.3-.7-.2-.2-.4-.3-.8-.3s-.4,0-.6.2c-.2.1-.3.2-.4.4,0,.2-.1.3-.1.5ZM251.3,799.8v-.4c-.1.2-.3.3-.6.4-.2,0-.5.1-.7.1s-.4,0-.6-.1c-.2,0-.4-.2-.5-.4-.1-.2-.2-.4-.2-.7,0-.4.1-.7.4-1,.3-.2.7-.4,1.2-.4s.2,0,.4,0c.1,0,.2,0,.3,0,.1,0,.2,0,.2,0h0c0-.4,0-.6-.3-.7-.2-.1-.4-.2-.7-.2s-.5,0-.7.1c-.2,0-.3.2-.4.2l-.3-.5c.1-.1.3-.2.6-.3.2-.1.6-.2,1-.2s.9.1,1.1.4c.3.2.4.6.4,1v2.2h0c0,.2,0,.3,0,.3h-.7ZM251.3,798.4v-.4s0,0-.2,0c0,0-.2,0-.3,0-.1,0-.2,0-.3,0-.3,0-.5,0-.6.1-.1,0-.2.2-.3.3,0,.1,0,.2,0,.3,0,.2,0,.3.2.5.1.1.3.2.6.2s.4,0,.5-.1c.2,0,.3-.2.4-.3.1-.1.2-.3.2-.4ZM253.3,798.5v-1.9h-.7v-.6h.7v-1.2h.7v1.2h1.1v.6h-1.1v1.8c0,.3,0,.5.1.6,0,.1.2.2.4.2s.3,0,.3,0c0,0,.2-.1.3-.2l.3.4c-.2.1-.3.3-.5.3-.2,0-.4.1-.6.1-.4,0-.7-.1-.9-.3-.2-.2-.3-.6-.3-1ZM185.5,806.8v-5.3h.7v2.2c0,0,.1-.2.2-.3.1-.1.2-.2.4-.3.2,0,.4-.1.6-.1.5,0,.8.1,1.1.4.2.3.4.7.4,1.1v2.2h-.7v-2.2c0-.3,0-.6-.2-.8-.1-.2-.4-.2-.6-.2s-.5,0-.6.2c-.2.1-.3.3-.3.5,0,.2,0,.5,0,.7v1.7h-.7ZM191.6,806.9c-.4,0-.7,0-1-.3-.3-.2-.5-.4-.7-.7-.2-.3-.2-.6-.2-1s0-.7.2-1c.2-.3.4-.5.7-.7.3-.2.6-.3,1-.3s.7,0,1,.3c.3.2.5.4.7.7.2.3.3.6.3,1s0,.7-.3,1c-.2.3-.4.5-.7.7-.3.2-.6.3-1,.3ZM191.6,806.2c.3,0,.5,0,.7-.2.2-.1.3-.3.4-.5.1-.2.2-.4.2-.6s0-.4-.2-.6c0-.2-.2-.4-.4-.5-.2-.1-.4-.2-.7-.2s-.5,0-.7.2c-.2.1-.3.3-.4.5,0,.2-.1.4-.1.6s0,.4.2.6c.1.2.2.4.4.5.2.1.4.2.7.2ZM194.2,806.3l.4-.5c.1.1.3.2.5.3.2,0,.4.1.6.1s.4,0,.6-.1c.2,0,.2-.2.2-.4s0-.2,0-.3c0,0-.2-.1-.3-.2-.2,0-.4-.1-.6-.2-.2,0-.4-.1-.6-.2-.2,0-.3-.2-.4-.3-.1-.1-.2-.3-.2-.6s0-.4.2-.6c.1-.2.3-.3.6-.4.2,0,.5-.1.7-.1s.6,0,.8.1c.2,0,.4.2.6.3l-.4.5c-.1-.1-.3-.2-.4-.3-.2,0-.4-.1-.6-.1s-.4,0-.6.1c-.1,0-.2.2-.2.4s0,.3.3.4c.2,0,.4.1.7.2.2,0,.4.1.6.2.2,0,.3.2.5.4.1.1.2.3.2.6s0,.5-.2.6c-.1.2-.3.3-.6.4-.2,0-.5.1-.8.1-.7,0-1.2-.2-1.6-.6ZM198.5,805.5v-1.9h-.7v-.6h.7v-1.2h.7v1.2h1.1v.6h-1.1v1.8c0,.3,0,.5.1.6,0,.1.2.2.4.2s.3,0,.3,0c0,0,.2-.1.3-.2l.3.4c-.2.1-.3.3-.5.3-.2,0-.4.1-.6.1-.4,0-.7-.1-.9-.3-.2-.2-.3-.6-.3-1ZM202,808.4h-.7v-4.9h0c0-.2,0-.3,0-.4h.7v.5c0,0,.2-.1.3-.2.1,0,.2-.2.4-.3.2,0,.4-.1.6-.1.4,0,.7,0,.9.3.2.2.4.4.6.7.1.3.2.6.2,1s0,.6-.2.9c-.1.2-.3.4-.4.6-.2.2-.4.3-.6.4-.2,0-.4.1-.7.1s-.5,0-.6,0c-.2,0-.3-.1-.4-.2v1.7ZM202,805v1c0,0,.2.1.4.2.2,0,.4,0,.6,0s.5,0,.6-.2c.2-.1.3-.3.4-.5.1-.2.2-.4.2-.7s0-.5-.1-.7c0-.2-.2-.4-.3-.5-.2-.1-.4-.2-.6-.2s-.5,0-.7.2c-.2.1-.3.3-.4.6,0,0,0,.2,0,.3,0,0,0,.2,0,.3ZM205.7,806.8v-5.3h.7v5.3h-.7ZM207.4,805.3v-2.2h.7v2.2c0,.3,0,.6.2.8.1.2.4.2.6.2s.5,0,.6-.2.3-.3.3-.5c0-.2.1-.5.1-.7v-1.7h.7v3.5c0,0,0,.1,0,.2h-.7v-.6c0,0-.2.2-.3.3-.1,0-.2.2-.4.2-.2,0-.4.1-.6.1-.5,0-.8-.1-1.1-.4-.2-.3-.3-.7-.3-1.1ZM211.6,806.3l.4-.5c.1.1.3.2.5.3.2,0,.4.1.6.1s.4,0,.6-.1c.2,0,.2-.2.2-.4s0-.2,0-.3c0,0-.2-.1-.3-.2-.2,0-.4-.1-.6-.2-.2,0-.4-.1-.6-.2-.2,0-.3-.2-.4-.3-.1-.1-.2-.3-.2-.6s0-.4.2-.6c.1-.2.3-.3.6-.4.2,0,.5-.1.7-.1s.6,0,.8.1c.2,0,.4.2.6.3l-.4.5c-.1-.1-.3-.2-.4-.3-.2,0-.4-.1-.6-.1s-.4,0-.6.1c-.1,0-.2.2-.2.4s0,.3.3.4c.2,0,.4.1.7.2.2,0,.4.1.6.2.2,0,.3.2.5.4.1.1.2.3.2.6s0,.5-.2.6c-.1.2-.3.3-.6.4-.2,0-.5.1-.8.1-.7,0-1.2-.2-1.6-.6ZM215.4,806.8v-.9h.9v.9h-.9ZM219.9,805.8l.4.5c-.2.2-.4.3-.6.5-.2.1-.5.2-.8.2s-.7,0-1-.3c-.3-.2-.5-.4-.7-.7-.2-.3-.2-.6-.2-1s0-.7.2-1c.2-.3.4-.5.7-.7.3-.2.6-.3,1-.3s.6,0,.8.2c.2.1.4.3.6.5l-.5.5c-.1-.1-.2-.2-.4-.3-.2,0-.3-.1-.6-.1s-.5,0-.7.2c-.2.1-.3.3-.4.5,0,.2-.1.4-.1.7s0,.4.1.7c.1.2.2.4.4.5.2.1.4.2.7.2s.4,0,.6-.1c.2,0,.3-.2.4-.3ZM222.6,806.9c-.4,0-.7,0-1-.3-.3-.2-.5-.4-.7-.7-.2-.3-.2-.6-.2-1s0-.7.2-1c.2-.3.4-.5.7-.7.3-.2.6-.3,1-.3s.7,0,1,.3c.3.2.5.4.7.7.2.3.3.6.3,1s0,.7-.3,1c-.2.3-.4.5-.7.7-.3.2-.6.3-1,.3ZM222.6,806.2c.3,0,.5,0,.7-.2.2-.1.3-.3.4-.5.1-.2.2-.4.2-.6s0-.4-.2-.6c0-.2-.2-.4-.4-.5-.2-.1-.4-.2-.7-.2s-.5,0-.7.2c-.2.1-.3.3-.4.5,0,.2-.1.4-.1.6s0,.4.2.6c.1.2.2.4.4.5.2.1.4.2.7.2ZM226.1,806.8h-.7v-3.3h0c0-.2,0-.3,0-.4h.7v.6c0,0,.2-.2.3-.3.1-.1.2-.2.4-.3.2,0,.4-.1.6-.1s.5,0,.7.2c.2.1.3.3.4.5.1-.2.3-.3.6-.5.2-.1.5-.2.8-.2.5,0,.8.1,1.1.4.2.3.3.7.3,1.1v2.2h-.7v-2.2c0-.7-.3-1-.8-1s-.4,0-.5.2c-.2.1-.3.2-.4.4,0,.2-.1.3-.1.6v2.1h-.7v-2.2c0-.3,0-.6-.2-.8-.1-.2-.3-.2-.6-.2s-.5,0-.6.2c-.2.1-.3.3-.3.6,0,.2,0,.4,0,.7v1.7ZM232.2,806.8v-.9h.9v.9h-.9ZM236.6,806.8v-.4c-.2.2-.3.3-.6.4-.2,0-.5.1-.7.1s-.4,0-.6-.1c-.2,0-.4-.2-.5-.4-.1-.2-.2-.4-.2-.7,0-.4.1-.7.4-1,.3-.2.7-.4,1.2-.4s.2,0,.4,0c.1,0,.2,0,.3,0,.1,0,.2,0,.2,0h0c0-.4,0-.6-.3-.7-.2-.1-.4-.2-.7-.2s-.5,0-.7.1c-.2,0-.3.2-.4.2l-.3-.5c.1-.1.3-.2.6-.3.2-.1.6-.2,1-.2s.9.1,1.1.4c.3.2.4.6.4,1v2.2h0c0,.2,0,.3,0,.3h-.7ZM236.5,805.4v-.4s0,0-.2,0c0,0-.2,0-.3,0-.1,0-.2,0-.3,0-.3,0-.5,0-.6.1-.1,0-.2.2-.3.3,0,.1,0,.2,0,.3,0,.2,0,.3.2.5.1.1.3.2.6.2s.4,0,.5-.1c.2,0,.3-.2.4-.3.1-.1.2-.3.2-.4ZM238.2,805.3v-2.2h.7v2.2c0,.3,0,.6.2.8.1.2.4.2.6.2s.5,0,.6-.2c.2-.1.3-.3.3-.5,0-.2.1-.5.1-.7v-1.7h.7v3.5c0,0,0,.1,0,.2h-.7v-.6c0,0-.2.2-.3.3-.1,0-.2.2-.4.2-.2,0-.4.1-.6.1-.5,0-.8-.1-1.1-.4-.2-.3-.3-.7-.3-1.1ZM244,806.6v-5.2h.7v2c0-.1.2-.2.4-.3.2-.1.4-.2.8-.2s.7,0,.9.3c.3.2.4.4.6.7.1.3.2.6.2,1s0,.7-.3,1c-.2.3-.4.5-.7.7-.3.2-.7.3-1.1.3s-.6,0-.8,0c-.3,0-.5-.1-.6-.2ZM244.7,804.7v1.5c0,0,.2,0,.3,0,.1,0,.3,0,.5,0,.4,0,.7-.1,1-.4.3-.3.4-.6.4-1s0-.4-.1-.6c0-.2-.2-.4-.3-.5-.2-.1-.4-.2-.6-.2s-.4,0-.6.2c-.2.1-.3.2-.4.4,0,.2-.1.3-.1.5ZM251.4,805.8l.4.4c0,0-.1.1-.3.3-.1.1-.3.2-.5.3-.2,0-.5.1-.8.1s-.7,0-1-.2c-.3-.2-.5-.4-.7-.7-.2-.3-.2-.7-.2-1s0-.7.2-1c.2-.3.4-.5.7-.7.3-.2.6-.3,1-.3s.8.1,1,.3.5.5.6.8c.1.3.2.7.2,1.1h-2.9c0,.2,0,.4.2.6.1.2.3.3.4.4.2,0,.4.1.6.1.3,0,.6,0,.8-.2.2-.1.4-.2.4-.3ZM248.9,804.6h2.2c0-.3-.1-.5-.3-.7-.2-.2-.4-.3-.8-.3s-.4,0-.6.2c-.2.1-.3.2-.4.4,0,.2-.1.3-.1.5ZM252.9,806.8v-3.1h-.7v-.6h.7v-.3c0-.3,0-.6.2-.8.1-.2.3-.4.5-.5.2-.1.4-.2.6-.2s.4,0,.6,0c.2,0,.4.2.5.3l-.4.5c-.2-.2-.4-.2-.6-.2s-.4,0-.5.2c-.1.1-.2.4-.2.7v.2h1.1v.6h-1.1v3.1h-.7ZM256.9,806.9c-.4,0-.7,0-1-.3-.3-.2-.5-.4-.7-.7-.2-.3-.2-.6-.2-1s0-.7.2-1c.2-.3.4-.5.7-.7.3-.2.6-.3,1-.3s.7,0,1,.3c.3.2.5.4.7.7.2.3.3.6.3,1s0,.7-.3,1c-.2.3-.4.5-.7.7-.3.2-.6.3-1,.3ZM256.9,806.2c.3,0,.5,0,.7-.2.2-.1.3-.3.4-.5.1-.2.2-.4.2-.6s0-.4-.2-.6c0-.2-.2-.4-.4-.5-.2-.1-.4-.2-.7-.2s-.5,0-.7.2c-.2.1-.3.3-.4.5,0,.2-.1.4-.1.6s0,.4.2.6c.1.2.2.4.4.5.2.1.4.2.7.2ZM260.4,806.8h-.7v-3.4h0c0-.2,0-.3,0-.4h.7v.6c0,0,.2-.2.3-.3.1-.1.2-.2.4-.3.2,0,.4-.1.6-.1s.2,0,.2,0c0,0,.1,0,.2,0l-.2.7c0,0-.2,0-.4,0s-.4,0-.6.2c-.2.1-.3.2-.4.4,0,.2-.1.4-.1.6v2ZM265.4,805.8l.4.4c0,0-.1.1-.3.3-.1.1-.3.2-.5.3-.2,0-.5.1-.8.1s-.7,0-1-.2c-.3-.2-.5-.4-.7-.7-.2-.3-.2-.7-.2-1s0-.7.2-1c.2-.3.4-.5.7-.7.3-.2.6-.3,1-.3s.8.1,1,.3c.3.2.5.5.6.8.1.3.2.7.2,1.1h-2.9c0,.2,0,.4.2.6.1.2.3.3.4.4.2,0,.4.1.6.1.3,0,.6,0,.8-.2.2-.1.4-.2.4-.3ZM263,804.6h2.2c0-.3-.1-.5-.3-.7-.2-.2-.4-.3-.8-.3s-.4,0-.6.2c-.2.1-.3.2-.4.4,0,.2-.1.3-.1.5ZM186.2,813.8h-.7v-3.3h0c0-.2,0-.3,0-.4h.7v.6c0,0,.2-.2.3-.3.1-.1.2-.2.4-.3.2,0,.4-.1.6-.1s.5,0,.7.2c.2.1.3.3.4.5.1-.2.3-.3.6-.5.2-.1.5-.2.8-.2.5,0,.8.1,1.1.4.2.3.3.7.3,1.1v2.2h-.7v-2.2c0-.7-.3-1-.8-1s-.4,0-.5.2c-.2.1-.3.2-.4.4,0,.2-.1.3-.1.6v2.1h-.7v-2.2c0-.3,0-.6-.2-.8-.1-.2-.3-.2-.6-.2s-.5,0-.6.2-.3.3-.3.6c0,.2,0,.4,0,.7v1.7ZM194.6,813.8v-.4c-.1.2-.3.3-.6.4-.2,0-.5.1-.7.1s-.4,0-.6-.1c-.2,0-.4-.2-.5-.4-.1-.2-.2-.4-.2-.7,0-.4.1-.7.4-1,.3-.2.7-.4,1.2-.4s.2,0,.4,0c.1,0,.2,0,.3,0,.1,0,.2,0,.2,0h0c0-.4,0-.6-.3-.7-.2-.1-.4-.2-.7-.2s-.5,0-.7.1c-.2,0-.3.2-.4.2l-.3-.5c.1-.1.3-.2.6-.3.2-.1.6-.2,1-.2s.9.1,1.1.4c.3.2.4.6.4,1v2.2h0c0,.2,0,.3,0,.3h-.7ZM194.6,812.4v-.4s0,0-.2,0c0,0-.2,0-.3,0-.1,0-.2,0-.3,0-.3,0-.5,0-.6.1-.1,0-.2.2-.3.3,0,.1,0,.2,0,.3,0,.2,0,.3.2.5.1.1.3.2.6.2s.4,0,.5-.1c.2,0,.3-.2.4-.3.1-.1.2-.3.2-.4ZM196.3,813.8v-5.3h.7v3.1l1.6-1.5h.9l-1.4,1.4,1.6,2.3h-.9l-1.3-1.9-.5.5v1.4h-.7ZM200.2,809.4v-.8h.8v.8h-.8ZM200.2,813.8v-3.7h.7v3.7h-.7ZM202.7,813.8h-.7v-3.3h0c0-.2,0-.3,0-.4h.7v.6c0,0,.2-.2.3-.3.1-.1.2-.2.4-.3.2,0,.4-.1.6-.1.5,0,.8.1,1.1.4.2.3.4.7.4,1.1v2.2h-.7v-2.2c0-.3,0-.6-.2-.8-.1-.2-.4-.2-.6-.2s-.5,0-.6.2c-.2.1-.3.3-.3.5,0,.2,0,.5,0,.7v1.7ZM206.5,815l.3-.5c.1,0,.3.2.4.2.2,0,.4,0,.7,0s.6,0,.8-.3c.2-.2.3-.5.3-.8v-.5s-.1.1-.2.2c0,0-.2.1-.4.2-.1,0-.3,0-.6,0-.4,0-.7,0-.9-.2-.3-.2-.4-.4-.6-.7-.1-.3-.2-.6-.2-1s0-.7.3-1c.2-.3.4-.5.7-.7.3-.2.7-.3,1.1-.3s.6,0,.8,0c.3,0,.5.1.6.2v3.6c0,.5-.2.9-.5,1.2-.3.3-.8.4-1.3.4s-.7,0-.9-.1c-.2,0-.4-.2-.5-.3ZM209,812.2v-1.5s-.1,0-.2,0c-.1,0-.3,0-.5,0s-.5,0-.7.2c-.2.1-.4.3-.5.5-.1.2-.2.4-.2.7s0,.4.1.6c0,.2.2.3.4.4s.4.2.6.2.4,0,.6-.1c.2,0,.3-.2.3-.3,0-.1.1-.3.1-.4ZM214.5,813.8v-.4c-.1.2-.3.3-.6.4-.2,0-.5.1-.7.1s-.4,0-.6-.1c-.2,0-.4-.2-.5-.4-.1-.2-.2-.4-.2-.7,0-.4.1-.7.4-1,.3-.2.7-.4,1.2-.4s.2,0,.4,0c.1,0,.2,0,.3,0,.1,0,.2,0,.2,0h0c0-.4,0-.6-.3-.7-.2-.1-.4-.2-.7-.2s-.5,0-.7.1c-.2,0-.3.2-.4.2l-.3-.5c.1-.1.3-.2.6-.3.2-.1.6-.2,1-.2s.9.1,1.1.4c.3.2.4.6.4,1v2.2h0c0,.2,0,.3,0,.3h-.7ZM214.5,812.4v-.4s0,0-.2,0c0,0-.2,0-.3,0-.1,0-.2,0-.3,0-.3,0-.5,0-.6.1-.1,0-.2.2-.3.3,0,.1,0,.2,0,.3,0,.2,0,.3.2.5.1.1.3.2.6.2s.4,0,.5-.1c.2,0,.3-.2.4-.3.1-.1.2-.3.2-.4ZM220.3,813.8v-.5c0,0-.1.1-.2.2,0,0-.2.2-.4.3-.2,0-.4.1-.6.1s-.6,0-.8-.2c-.3-.2-.4-.4-.6-.7-.1-.3-.2-.6-.2-1s0-.7.2-.9c.1-.3.3-.5.5-.6.2-.2.4-.3.6-.4.2,0,.4-.1.6-.1s.4,0,.5,0c.1,0,.3.1.4.2v-1.8h.7v5.1c0,0,0,.1,0,.2h-.7ZM220.3,812.2v-1.3c0,0-.2-.1-.4-.2-.1,0-.3,0-.5,0-.3,0-.6.1-.9.4-.2.2-.3.6-.3,1s0,.4.1.6c0,.2.2.4.4.5.2.1.4.2.6.2s.5,0,.6-.2c.2-.1.3-.3.3-.4,0-.2.1-.3.1-.5ZM225,812.8l.4.4c0,0-.1.1-.3.3-.1.1-.3.2-.5.3-.2,0-.5.1-.8.1s-.7,0-1-.2c-.3-.2-.5-.4-.7-.7-.2-.3-.2-.7-.2-1s0-.7.2-1c.2-.3.4-.5.7-.7.3-.2.6-.3,1-.3s.8.1,1,.3c.3.2.5.5.6.8.1.3.2.7.2,1.1h-2.9c0,.2,0,.4.2.6.1.2.3.3.4.4.2,0,.4.1.6.1.3,0,.6,0,.8-.2.2-.1.4-.2.4-.3ZM222.5,811.6h2.2c0-.3-.1-.5-.3-.7-.2-.2-.4-.3-.8-.3s-.4,0-.6.2c-.2.1-.3.2-.4.4,0,.2-.1.3-.1.5ZM229.1,812.8l.4.5c-.2.2-.4.3-.6.5-.2.1-.5.2-.8.2s-.7,0-1-.3c-.3-.2-.5-.4-.7-.7-.2-.3-.2-.6-.2-1s0-.7.2-1c.2-.3.4-.5.7-.7.3-.2.6-.3,1-.3s.6,0,.8.2.4.3.6.5l-.5.5c-.1-.1-.2-.2-.4-.3-.2,0-.3-.1-.6-.1s-.5,0-.7.2c-.2.1-.3.3-.4.5,0,.2-.1.4-.1.7s0,.4.1.7c.1.2.2.4.4.5.2.1.4.2.7.2s.4,0,.6-.1c.2,0,.3-.2.4-.3ZM230.2,809.4v-.8h.8v.8h-.8ZM230.2,813.8v-3.7h.7v3.7h-.7ZM231.8,813.3l.4-.5c.1.1.3.2.5.3.2,0,.4.1.6.1s.4,0,.6-.1c.2,0,.2-.2.2-.4s0-.2,0-.3c0,0-.2-.1-.3-.2-.2,0-.4-.1-.6-.2-.2,0-.4-.1-.6-.2-.2,0-.3-.2-.4-.3-.1-.1-.2-.3-.2-.6s0-.4.2-.6c.1-.2.3-.3.6-.4.2,0,.5-.1.7-.1s.6,0,.8.1c.2,0,.4.2.6.3l-.4.5c-.1-.1-.3-.2-.4-.3-.2,0-.4-.1-.6-.1s-.4,0-.6.1c-.1,0-.2.2-.2.4s0,.3.3.4c.2,0,.4.1.7.2.2,0,.4.1.6.2.2,0,.3.2.5.4.1.1.2.3.2.6s0,.5-.2.6c-.1.2-.3.3-.6.4-.2,0-.5.1-.8.1-.7,0-1.2-.2-1.6-.6ZM235.7,809.4v-.8h.8v.8h-.8ZM235.8,813.8v-3.7h.7v3.7h-.7ZM239.3,813.9c-.4,0-.7,0-1-.3-.3-.2-.5-.4-.7-.7-.2-.3-.2-.6-.2-1s0-.7.2-1c.2-.3.4-.5.7-.7.3-.2.6-.3,1-.3s.7,0,1,.3c.3.2.5.4.7.7.2.3.3.6.3,1s0,.7-.3,1c-.2.3-.4.5-.7.7-.3.2-.6.3-1,.3ZM239.3,813.2c.3,0,.5,0,.7-.2.2-.1.3-.3.4-.5.1-.2.2-.4.2-.6s0-.4-.2-.6c0-.2-.2-.4-.4-.5-.2-.1-.4-.2-.7-.2s-.5,0-.7.2c-.2.1-.3.3-.4.5,0,.2-.1.4-.1.6s0,.4.2.6c.1.2.2.4.4.5.2.1.4.2.7.2ZM242.8,813.8h-.7v-3.3h0c0-.2,0-.3,0-.4h.7v.6c0,0,.2-.2.3-.3.1-.1.2-.2.4-.3.2,0,.4-.1.6-.1.5,0,.8.1,1.1.4.2.3.4.7.4,1.1v2.2h-.7v-2.2c0-.3,0-.6-.2-.8-.1-.2-.4-.2-.6-.2s-.5,0-.6.2c-.2.1-.3.3-.3.5,0,.2,0,.5,0,.7v1.7ZM246.5,813.8v-.9h.9v.9h-.9Z" fill="#99a9bb" stroke-width="0"/>
</svg>