<?xml version="1.0" encoding="UTF-8"?>
<svg id="Layer_1" data-name="Layer 1" xmlns="http://www.w3.org/2000/svg" width="300" height="900" version="1.1" viewBox="0 0 300 900">
  <path id="terms" d="M9.1,743.8l2.1-5.3h.8l2.1,5.3h-.9l-.6-1.5h-2.2l-.6,1.5h-.8ZM10.7,741.6h1.7l-.9-2.3-.9,2.3ZM15.3,743.8l-1.3-3.7h.8l.8,2.8.9-2.8h.6l.9,2.9.8-2.9h.7l-1.2,3.7h-.7l-.9-2.6-.9,2.6h-.7ZM22.5,743.8v-.4c-.1.2-.3.3-.6.4-.2,0-.5.1-.7.1s-.4,0-.6-.1c-.2,0-.4-.2-.5-.4-.1-.2-.2-.4-.2-.7,0-.4.1-.7.4-1,.3-.2.7-.4,1.2-.4s.2,0,.4,0c.1,0,.2,0,.3,0,.1,0,.2,0,.2,0h0c0-.4,0-.6-.3-.7-.2-.1-.4-.2-.7-.2s-.5,0-.7.1c-.2,0-.3.2-.4.2l-.3-.5c.1-.1.3-.2.6-.3.2-.1.6-.2,1-.2s.9.1,1.1.4c.3.2.4.6.4,1v2.2h0c0,.2,0,.3,0,.3h-.7ZM22.5,742.4v-.4s0,0-.2,0c0,0-.2,0-.3,0-.1,0-.2,0-.3,0-.3,0-.5,0-.6.1-.1,0-.2.2-.3.3,0,.1,0,.2,0,.3,0,.2,0,.3.2.5.1.1.3.2.6.2s.4,0,.5-.1c.2,0,.3-.2.4-.3.1-.1.2-.3.2-.4ZM24.9,743.8h-.7v-3.4h0c0-.2,0-.3,0-.4h.7v.6c0,0,.2-.2.3-.3.1-.1.2-.2.4-.3.2,0,.4-.1.6-.1s.2,0,.2,0c0,0,.1,0,.2,0l-.2.7c0,0-.2,0-.4,0s-.4,0-.6.2c-.2.1-.3.2-.4.4,0,.2-.1.4-.1.6v2ZM29.6,743.8v-.5c0,0-.1.1-.2.2,0,0-.2.2-.4.3-.2,0-.4.1-.6.1s-.6,0-.8-.2c-.3-.2-.4-.4-.6-.7-.1-.3-.2-.6-.2-1s0-.7.2-.9c.1-.3.3-.5.5-.6.2-.2.4-.3.6-.4.2,0,.4-.1.6-.1s.4,0,.5,0c.1,0,.3.1.4.2v-1.8h.7v5.1c0,0,0,.1,0,.2h-.7ZM29.6,742.2v-1.3c0,0-.2-.1-.4-.2-.1,0-.3,0-.5,0-.3,0-.6.1-.9.4-.2.2-.3.6-.3,1s0,.4.1.6c0,.2.2.4.4.5.2.1.4.2.6.2s.5,0,.6-.2c.2-.1.3-.3.3-.4,0-.2.1-.3.1-.5ZM31.1,743.3l.4-.5c.1.1.3.2.5.3.2,0,.4.1.6.1s.4,0,.6-.1c.2,0,.2-.2.2-.4s0-.2,0-.3c0,0-.2-.1-.3-.2-.2,0-.4-.1-.6-.2-.2,0-.4-.1-.6-.2-.2,0-.3-.2-.4-.3-.1-.1-.2-.3-.2-.6s0-.4.2-.6c.1-.2.3-.3.6-.4.2,0,.5-.1.7-.1s.6,0,.8.1c.2,0,.4.2.6.3l-.4.5c-.1-.1-.3-.2-.4-.3-.2,0-.4-.1-.6-.1s-.4,0-.6.1c-.1,0-.2.2-.2.4s0,.3.3.4c.2,0,.4.1.7.2.2,0,.4.1.6.2.2,0,.3.2.5.4.1.1.2.3.2.6s0,.5-.2.6c-.1.2-.3.3-.6.4-.2,0-.5.1-.8.1-.7,0-1.2-.2-1.6-.6ZM38.8,743.8v-.4c-.1.2-.3.3-.6.4-.2,0-.5.1-.7.1s-.4,0-.6-.1c-.2,0-.4-.2-.5-.4-.1-.2-.2-.4-.2-.7,0-.4.1-.7.4-1s.7-.4,1.2-.4.2,0,.4,0c.1,0,.2,0,.3,0,.1,0,.2,0,.2,0h0c0-.4,0-.6-.3-.7-.2-.1-.4-.2-.7-.2s-.5,0-.7.1c-.2,0-.3.2-.4.2l-.3-.5c.1-.1.3-.2.6-.3.2-.1.6-.2,1-.2s.9.1,1.1.4c.3.2.4.6.4,1v2.2h0c0,.2,0,.3,0,.3h-.7ZM38.8,742.4v-.4s0,0-.2,0c0,0-.2,0-.3,0-.1,0-.2,0-.3,0-.3,0-.5,0-.6.1-.1,0-.2.2-.3.3,0,.1,0,.2,0,.3,0,.2,0,.3.2.5.1.1.3.2.6.2s.4,0,.5-.1c.2,0,.3-.2.4-.3.1-.1.2-.3.2-.4ZM41.2,743.8h-.7v-3.3h0c0-.2,0-.3,0-.4h.7v.6c0,0,.2-.2.3-.3.1-.1.2-.2.4-.3.2,0,.4-.1.6-.1.5,0,.8.1,1.1.4.2.3.4.7.4,1.1v2.2h-.7v-2.2c0-.3,0-.6-.2-.8-.1-.2-.4-.2-.6-.2s-.5,0-.6.2c-.2.1-.3.3-.3.5,0,.2,0,.5,0,.7v1.7ZM47.5,743.8v-.5c0,0-.1.1-.2.2,0,0-.2.2-.4.3-.2,0-.4.1-.6.1s-.6,0-.8-.2c-.3-.2-.4-.4-.6-.7-.1-.3-.2-.6-.2-1s0-.7.2-.9c.1-.3.3-.5.5-.6.2-.2.4-.3.6-.4.2,0,.4-.1.6-.1s.4,0,.5,0c.1,0,.3.1.4.2v-1.8h.7v5.1c0,0,0,.1,0,.2h-.7ZM47.5,742.2v-1.3c0,0-.2-.1-.4-.2-.1,0-.3,0-.5,0-.3,0-.6.1-.9.4-.2.2-.3.6-.3,1s0,.4.1.6c0,.2.2.4.4.5.2.1.4.2.6.2s.5,0,.6-.2c.2-.1.3-.3.3-.4,0-.2.1-.3.1-.5ZM51.4,743.8h-.7v-3.4h0c0-.2,0-.3,0-.4h.7v.6c0,0,.2-.2.3-.3.1-.1.2-.2.4-.3.2,0,.4-.1.6-.1s.2,0,.2,0c0,0,.1,0,.2,0l-.2.7c0,0-.2,0-.4,0s-.4,0-.6.2c-.2.1-.3.2-.4.4,0,.2-.1.4-.1.6v2ZM55.8,743.8v-.4c-.1.2-.3.3-.6.4-.2,0-.5.1-.7.1s-.4,0-.6-.1c-.2,0-.4-.2-.5-.4-.1-.2-.2-.4-.2-.7,0-.4.1-.7.4-1,.3-.2.7-.4,1.2-.4s.2,0,.4,0c.1,0,.2,0,.3,0,.1,0,.2,0,.2,0h0c0-.4,0-.6-.3-.7-.2-.1-.4-.2-.7-.2s-.5,0-.7.1c-.2,0-.3.2-.4.2l-.3-.5c.1-.1.3-.2.6-.3.2-.1.6-.2,1-.2s.9.1,1.1.4c.3.2.4.6.4,1v2.2h0c0,.2,0,.3,0,.3h-.7ZM55.8,742.4v-.4s0,0-.2,0c0,0-.2,0-.3,0-.1,0-.2,0-.3,0-.3,0-.5,0-.6.1-.1,0-.2.2-.3.3,0,.1,0,.2,0,.3,0,.2,0,.3.2.5.1.1.3.2.6.2s.4,0,.5-.1c.2,0,.3-.2.4-.3.1-.1.2-.3.2-.4ZM57.8,742.5v-1.9h-.7v-.6h.7v-1.2h.7v1.2h1.1v.6h-1.1v1.8c0,.3,0,.5.1.6,0,.1.2.2.4.2s.3,0,.3,0c0,0,.2-.1.3-.2l.3.4c-.2.1-.3.3-.5.3-.2,0-.4.1-.6.1-.4,0-.7-.1-.9-.3-.2-.2-.3-.6-.3-1ZM60.5,739.4v-.8h.8v.8h-.8ZM60.6,743.8v-3.7h.7v3.7h-.7ZM63,743.8h-.7v-3.3h0c0-.2,0-.3,0-.4h.7v.6c0,0,.2-.2.3-.3.1-.1.2-.2.4-.3.2,0,.4-.1.6-.1.5,0,.8.1,1.1.4.2.3.4.7.4,1.1v2.2h-.7v-2.2c0-.3,0-.6-.2-.8-.1-.2-.4-.2-.6-.2s-.5,0-.6.2c-.2.1-.3.3-.3.5,0,.2,0,.5,0,.7v1.7ZM66.8,745l.3-.5c.1,0,.3.2.4.2.2,0,.4,0,.7,0s.6,0,.8-.3c.2-.2.3-.5.3-.8v-.5s-.1.1-.2.2c0,0-.2.1-.4.2-.1,0-.3,0-.6,0-.4,0-.7,0-.9-.2-.3-.2-.4-.4-.6-.7-.1-.3-.2-.6-.2-1s0-.7.3-1c.2-.3.4-.5.7-.7.3-.2.7-.3,1.1-.3s.6,0,.8,0c.3,0,.5.1.6.2v3.6c0,.5-.2.9-.5,1.2-.3.3-.8.4-1.3.4s-.7,0-.9-.1c-.2,0-.4-.2-.5-.3ZM69.3,742.2v-1.5s-.1,0-.2,0c-.1,0-.3,0-.5,0s-.5,0-.7.2c-.2.1-.4.3-.5.5-.1.2-.2.4-.2.7s0,.4.1.6c0,.2.2.3.4.4.2.1.4.2.6.2s.4,0,.6-.1c.2,0,.3-.2.3-.3,0-.1.1-.3.1-.4ZM70.8,743.3l.4-.5c.1.1.3.2.5.3.2,0,.4.1.6.1s.4,0,.6-.1c.2,0,.2-.2.2-.4s0-.2,0-.3c0,0-.2-.1-.3-.2-.2,0-.4-.1-.6-.2-.2,0-.4-.1-.6-.2-.2,0-.3-.2-.4-.3-.1-.1-.2-.3-.2-.6s0-.4.2-.6c.1-.2.3-.3.6-.4.2,0,.5-.1.7-.1s.6,0,.8.1c.2,0,.4.2.6.3l-.4.5c-.1-.1-.3-.2-.4-.3-.2,0-.4-.1-.6-.1s-.4,0-.6.1c-.1,0-.2.2-.2.4s0,.3.3.4c.2,0,.4.1.7.2.2,0,.4.1.6.2.2,0,.3.2.5.4.1.1.2.3.2.6s0,.5-.2.6c-.1.2-.3.3-.6.4-.2,0-.5.1-.8.1-.7,0-1.2-.2-1.6-.6ZM78.6,743.8v-.4c-.1.2-.3.3-.6.4-.2,0-.5.1-.7.1s-.4,0-.6-.1c-.2,0-.4-.2-.5-.4-.1-.2-.2-.4-.2-.7,0-.4.1-.7.4-1,.3-.2.7-.4,1.2-.4s.2,0,.4,0c.1,0,.2,0,.3,0,.1,0,.2,0,.2,0h0c0-.4,0-.6-.3-.7-.2-.1-.4-.2-.7-.2s-.5,0-.7.1c-.2,0-.3.2-.4.2l-.3-.5c.1-.1.3-.2.6-.3.2-.1.6-.2,1-.2s.9.1,1.1.4c.3.2.4.6.4,1v2.2h0c0,.2,0,.3,0,.3h-.7ZM78.6,742.4v-.4s0,0-.2,0c0,0-.2,0-.3,0-.1,0-.2,0-.3,0-.3,0-.5,0-.6.1-.1,0-.2.2-.3.3,0,.1,0,.2,0,.3,0,.2,0,.3.2.5.1.1.3.2.6.2s.4,0,.5-.1c.2,0,.3-.2.4-.3.1-.1.2-.3.2-.4ZM81,743.8h-.7v-3.4h0c0-.2,0-.3,0-.4h.7v.6c0,0,.2-.2.3-.3.1-.1.2-.2.4-.3.2,0,.4-.1.6-.1s.2,0,.2,0c0,0,.1,0,.2,0l-.2.7c0,0-.2,0-.4,0s-.4,0-.6.2c-.2.1-.3.2-.4.4,0,.2-.1.4-.1.6v2ZM85.9,742.8l.4.4c0,0-.1.1-.3.3-.1.1-.3.2-.5.3-.2,0-.5.1-.8.1s-.7,0-1-.2c-.3-.2-.5-.4-.7-.7-.2-.3-.2-.7-.2-1s0-.7.2-1c.2-.3.4-.5.7-.7.3-.2.6-.3,1-.3s.8.1,1,.3c.3.2.5.5.6.8.1.3.2.7.2,1.1h-2.9c0,.2,0,.4.2.6.1.2.3.3.4.4.2,0,.4.1.6.1.3,0,.6,0,.8-.2.2-.1.4-.2.4-.3ZM83.5,741.6h2.2c0-.3-.1-.5-.3-.7-.2-.2-.4-.3-.8-.3s-.4,0-.6.2c-.2.1-.3.2-.4.4,0,.2-.1.3-.1.5ZM90.5,743.9c-.4,0-.7,0-1-.3-.3-.2-.5-.4-.7-.7-.2-.3-.2-.6-.2-1s0-.7.2-1c.2-.3.4-.5.7-.7.3-.2.6-.3,1-.3s.7,0,1,.3c.3.2.5.4.7.7.2.3.3.6.3,1s0,.7-.3,1c-.2.3-.4.5-.7.7-.3.2-.6.3-1,.3ZM90.5,743.2c.3,0,.5,0,.7-.2.2-.1.3-.3.4-.5.1-.2.2-.4.2-.6s0-.4-.2-.6c0-.2-.2-.4-.4-.5-.2-.1-.4-.2-.7-.2s-.5,0-.7.2c-.2.1-.3.3-.4.5,0,.2-.1.4-.1.6s0,.4.2.6c.1.2.2.4.4.5.2.1.4.2.7.2ZM94,743.8h-.7v-3.3h0c0-.2,0-.3,0-.4h.7v.6c0,0,.2-.2.3-.3.1-.1.2-.2.4-.3.2,0,.4-.1.6-.1.5,0,.8.1,1.1.4.2.3.4.7.4,1.1v2.2h-.7v-2.2c0-.3,0-.6-.2-.8-.1-.2-.4-.2-.6-.2s-.5,0-.6.2c-.2.1-.3.3-.3.5,0,.2,0,.5,0,.7v1.7ZM97.6,743.8v-5.3h.7v5.3h-.7ZM99,745.2l.3-.5c0,0,.1,0,.2.1,0,0,.2,0,.3,0,.2,0,.3,0,.4-.2,0-.2.2-.4.3-.7v-.2c0,0-1.6-3.7-1.6-3.7h.8l1.2,2.8,1.1-2.8h.8l-1.5,3.6c0,.2-.1.3-.2.6,0,.2-.2.4-.3.6-.1.2-.2.3-.4.5-.2.1-.3.2-.6.2s-.3,0-.5,0c-.1,0-.2-.1-.3-.2ZM11.3,750.9c-.4,0-.7,0-1-.3-.3-.2-.5-.4-.7-.7-.2-.3-.2-.6-.2-1s0-.7.2-1c.2-.3.4-.5.7-.7.3-.2.6-.3,1-.3s.7,0,1,.3c.3.2.5.4.7.7.2.3.3.6.3,1s0,.7-.3,1c-.2.3-.4.5-.7.7-.3.2-.6.3-1,.3ZM11.3,750.2c.3,0,.5,0,.7-.2.2-.1.3-.3.4-.5.1-.2.2-.4.2-.6s0-.4-.2-.6c0-.2-.2-.4-.4-.5-.2-.1-.4-.2-.7-.2s-.5,0-.7.2c-.2.1-.3.3-.4.5,0,.2-.1.4-.1.6s0,.4.2.6c.1.2.2.4.4.5.2.1.4.2.7.2ZM14.8,750.8h-.7v-3.3h0c0-.2,0-.3,0-.4h.7v.6c0,0,.2-.2.3-.3.1-.1.2-.2.4-.3.2,0,.4-.1.6-.1.5,0,.8.1,1.1.4.2.3.4.7.4,1.1v2.2h-.7v-2.2c0-.3,0-.6-.2-.8-.1-.2-.4-.2-.6-.2s-.5,0-.6.2c-.2.1-.3.3-.3.5,0,.2,0,.5,0,.7v1.7ZM21.4,749.8l.4.4c0,0-.1.1-.3.3-.1.1-.3.2-.5.3-.2,0-.5.1-.8.1s-.7,0-1-.2c-.3-.2-.5-.4-.7-.7-.2-.3-.2-.7-.2-1s0-.7.2-1c.2-.3.4-.5.7-.7.3-.2.6-.3,1-.3s.8.1,1,.3c.3.2.5.5.6.8.1.3.2.7.2,1.1h-2.9c0,.2,0,.4.2.6.1.2.3.3.4.4.2,0,.4.1.6.1.3,0,.6,0,.8-.2.2-.1.4-.2.4-.3ZM19,748.6h2.2c0-.3-.1-.5-.3-.7-.2-.2-.4-.3-.8-.3s-.4,0-.6.2c-.2.1-.3.2-.4.4,0,.2-.1.3-.1.5ZM24.4,750.8v-3.1h-.7v-.6h.7v-.3c0-.3,0-.6.2-.8.1-.2.3-.4.5-.5.2-.1.4-.2.6-.2s.4,0,.6,0c.2,0,.4.2.5.3l-.4.5c-.2-.2-.4-.2-.6-.2s-.4,0-.5.2c-.1.1-.2.4-.2.7v.2h1.1v.6h-1.1v3.1h-.7ZM29,750.8v-.4c-.1.2-.3.3-.6.4-.2,0-.5.1-.7.1s-.4,0-.6-.1c-.2,0-.4-.2-.5-.4-.1-.2-.2-.4-.2-.7,0-.4.1-.7.4-1,.3-.2.7-.4,1.2-.4s.2,0,.4,0c.1,0,.2,0,.3,0,.1,0,.2,0,.2,0h0c0-.4,0-.6-.3-.7-.2-.1-.4-.2-.7-.2s-.5,0-.7.1c-.2,0-.3.2-.4.2l-.3-.5c.1-.1.3-.2.6-.3.2-.1.6-.2,1-.2s.9.1,1.1.4c.3.2.4.6.4,1v2.2h0c0,.2,0,.3,0,.3h-.7ZM29,749.4v-.4s0,0-.2,0c0,0-.2,0-.3,0-.1,0-.2,0-.3,0-.3,0-.5,0-.6.1-.1,0-.2.2-.3.3,0,.1,0,.2,0,.3,0,.2,0,.3.2.5.1.1.3.2.6.2s.4,0,.5-.1c.2,0,.3-.2.4-.3.1-.1.2-.3.2-.4ZM33.4,749.8l.4.5c-.2.2-.4.3-.6.5-.2.1-.5.2-.8.2s-.7,0-1-.3c-.3-.2-.5-.4-.7-.7-.2-.3-.2-.6-.2-1s0-.7.2-1c.2-.3.4-.5.7-.7.3-.2.6-.3,1-.3s.6,0,.8.2c.2.1.4.3.6.5l-.5.5c-.1-.1-.2-.2-.4-.3s-.3-.1-.6-.1-.5,0-.7.2c-.2.1-.3.3-.4.5,0,.2-.1.4-.1.7s0,.4.1.7c.1.2.2.4.4.5.2.1.4.2.7.2s.4,0,.6-.1c.2,0,.3-.2.4-.3ZM34.9,749.5v-1.9h-.7v-.6h.7v-1.2h.7v1.2h1.1v.6h-1.1v1.8c0,.3,0,.5.1.6,0,.1.2.2.4.2s.3,0,.3,0c0,0,.2-.1.3-.2l.3.4c-.2.1-.3.3-.5.3-.2,0-.4.1-.6.1-.4,0-.7-.1-.9-.3-.2-.2-.3-.6-.3-1ZM39.2,750.9c-.4,0-.7,0-1-.3-.3-.2-.5-.4-.7-.7-.2-.3-.2-.6-.2-1s0-.7.2-1c.2-.3.4-.5.7-.7.3-.2.6-.3,1-.3s.7,0,1,.3c.3.2.5.4.7.7.2.3.3.6.3,1s0,.7-.3,1c-.2.3-.4.5-.7.7-.3.2-.6.3-1,.3ZM39.2,750.2c.3,0,.5,0,.7-.2.2-.1.3-.3.4-.5.1-.2.2-.4.2-.6s0-.4-.2-.6c0-.2-.2-.4-.4-.5-.2-.1-.4-.2-.7-.2s-.5,0-.7.2c-.2.1-.3.3-.4.5,0,.2-.1.4-.1.6s0,.4.2.6c.1.2.2.4.4.5.2.1.4.2.7.2ZM42.7,750.8h-.7v-3.4h0c0-.2,0-.3,0-.4h.7v.6c0,0,.2-.2.3-.3.1-.1.2-.2.4-.3.2,0,.4-.1.6-.1s.2,0,.2,0c0,0,.1,0,.2,0l-.2.7c0,0-.2,0-.4,0s-.4,0-.6.2c-.2.1-.3.2-.4.4,0,.2-.1.4-.1.6v2ZM46.7,749.5v-1.9h-.7v-.6h.7v-1.2h.7v1.2h1.1v.6h-1.1v1.8c0,.3,0,.5.1.6,0,.1.2.2.4.2s.3,0,.3,0c0,0,.2-.1.3-.2l.3.4c-.2.1-.3.3-.5.3-.2,0-.4.1-.6.1-.4,0-.7-.1-.9-.3-.2-.2-.3-.6-.3-1ZM51,750.9c-.4,0-.7,0-1-.3-.3-.2-.5-.4-.7-.7-.2-.3-.2-.6-.2-1s0-.7.2-1c.2-.3.4-.5.7-.7.3-.2.6-.3,1-.3s.7,0,1,.3c.3.2.5.4.7.7.2.3.3.6.3,1s0,.7-.3,1c-.2.3-.4.5-.7.7-.3.2-.6.3-1,.3ZM51,750.2c.3,0,.5,0,.7-.2.2-.1.3-.3.4-.5.1-.2.2-.4.2-.6s0-.4-.2-.6c0-.2-.2-.4-.4-.5-.2-.1-.4-.2-.7-.2s-.5,0-.7.2c-.2.1-.3.3-.4.5,0,.2-.1.4-.1.6s0,.4.2.6c.1.2.2.4.4.5.2.1.4.2.7.2ZM58,749.8l.4.5c-.2.2-.4.3-.6.5-.2.1-.5.2-.8.2s-.7,0-1-.3c-.3-.2-.5-.4-.7-.7-.2-.3-.2-.6-.2-1s0-.7.2-1c.2-.3.4-.5.7-.7.3-.2.6-.3,1-.3s.6,0,.8.2c.2.1.4.3.6.5l-.5.5c-.1-.1-.2-.2-.4-.3s-.3-.1-.6-.1-.5,0-.7.2c-.2.1-.3.3-.4.5,0,.2-.1.4-.1.7s0,.4.1.7c.1.2.2.4.4.5.2.1.4.2.7.2s.4,0,.6-.1c.2,0,.3-.2.4-.3ZM60.7,750.9c-.4,0-.7,0-1-.3-.3-.2-.5-.4-.7-.7-.2-.3-.2-.6-.2-1s0-.7.2-1c.2-.3.4-.5.7-.7.3-.2.6-.3,1-.3s.7,0,1,.3c.3.2.5.4.7.7.2.3.3.6.3,1s0,.7-.3,1c-.2.3-.4.5-.7.7-.3.2-.6.3-1,.3ZM60.7,750.2c.3,0,.5,0,.7-.2.2-.1.3-.3.4-.5.1-.2.2-.4.2-.6s0-.4-.2-.6c0-.2-.2-.4-.4-.5-.2-.1-.4-.2-.7-.2s-.5,0-.7.2c-.2.1-.3.3-.4.5,0,.2-.1.4-.1.6s0,.4.2.6c.1.2.2.4.4.5.2.1.4.2.7.2ZM64.2,750.8h-.7v-3.3h0c0-.2,0-.3,0-.4h.7v.6c0,0,.2-.2.3-.3.1-.1.2-.2.4-.3.2,0,.4-.1.6-.1.5,0,.8.1,1.1.4.2.3.4.7.4,1.1v2.2h-.7v-2.2c0-.3,0-.6-.2-.8-.1-.2-.4-.2-.6-.2s-.5,0-.6.2c-.2.1-.3.3-.3.5,0,.2,0,.5,0,.7v1.7ZM67.6,750.3l.4-.5c.1.1.3.2.5.3.2,0,.4.1.6.1s.4,0,.6-.1c.2,0,.2-.2.2-.4s0-.2,0-.3c0,0-.2-.1-.3-.2-.2,0-.4-.1-.6-.2-.2,0-.4-.1-.6-.2-.2,0-.3-.2-.4-.3-.1-.1-.2-.3-.2-.6s0-.4.2-.6c.1-.2.3-.3.6-.4.2,0,.5-.1.7-.1s.6,0,.8.1c.2,0,.4.2.6.3l-.4.5c-.1-.1-.3-.2-.4-.3-.2,0-.4-.1-.6-.1s-.4,0-.6.1c-.1,0-.2.2-.2.4s0,.3.3.4c.2,0,.4.1.7.2.2,0,.4.1.6.2.2,0,.3.2.5.4.1.1.2.3.2.6s0,.5-.2.6c-.1.2-.3.3-.6.4-.2,0-.5.1-.8.1-.7,0-1.2-.2-1.6-.6ZM71.6,746.4v-.8h.8v.8h-.8ZM71.7,750.8v-3.7h.7v3.7h-.7ZM76.1,750.8v-.5c0,0-.1.1-.2.2,0,0-.2.2-.4.3-.2,0-.4.1-.6.1s-.6,0-.8-.2c-.3-.2-.4-.4-.6-.7-.1-.3-.2-.6-.2-1s0-.7.2-.9c.1-.3.3-.5.5-.6.2-.2.4-.3.6-.4.2,0,.4-.1.6-.1s.4,0,.5,0c.1,0,.3.1.4.2v-1.8h.7v5.1c0,0,0,.1,0,.2h-.7ZM76.1,749.2v-1.3c0,0-.2-.1-.4-.2-.1,0-.3,0-.5,0-.3,0-.6.1-.9.4-.2.2-.3.6-.3,1s0,.4.1.6c0,.2.2.4.4.5.2.1.4.2.6.2s.5,0,.6-.2c.2-.1.3-.3.3-.4,0-.2.1-.3.1-.5ZM80.8,749.8l.4.4c0,0-.1.1-.3.3-.1.1-.3.2-.5.3-.2,0-.5.1-.8.1s-.7,0-1-.2c-.3-.2-.5-.4-.7-.7-.2-.3-.2-.7-.2-1s0-.7.2-1c.2-.3.4-.5.7-.7.3-.2.6-.3,1-.3s.8.1,1,.3c.3.2.5.5.6.8.1.3.2.7.2,1.1h-2.9c0,.2,0,.4.2.6.1.2.3.3.4.4.2,0,.4.1.6.1.3,0,.6,0,.8-.2.2-.1.4-.2.4-.3ZM78.3,748.6h2.2c0-.3-.1-.5-.3-.7-.2-.2-.4-.3-.8-.3s-.4,0-.6.2c-.2.1-.3.2-.4.4,0,.2-.1.3-.1.5ZM82.8,750.8h-.7v-3.4h0c0-.2,0-.3,0-.4h.7v.6c0,0,.2-.2.3-.3.1-.1.2-.2.4-.3.2,0,.4-.1.6-.1s.2,0,.2,0c0,0,.1,0,.2,0l-.2.7c0,0-.2,0-.4,0s-.4,0-.6.2c-.2.1-.3.2-.4.4,0,.2-.1.4-.1.6v2ZM87.3,750.8l-1.3-3.7h.8l.8,2.8.9-2.8h.6l.9,2.9.8-2.9h.7l-1.2,3.7h-.7l-.9-2.6-.9,2.6h-.7ZM92.2,750.8v-5.3h.7v2.2c0,0,.1-.2.2-.3.1-.1.2-.2.4-.3.2,0,.4-.1.6-.1.5,0,.8.1,1.1.4.2.3.4.7.4,1.1v2.2h-.7v-2.2c0-.3,0-.6-.2-.8-.1-.2-.4-.2-.6-.2s-.5,0-.6.2c-.2.1-.3.3-.3.5,0,.2,0,.5,0,.7v1.7h-.7ZM99.5,749.8l.4.4c0,0-.1.1-.3.3-.1.1-.3.2-.5.3-.2,0-.5.1-.8.1s-.7,0-1-.2c-.3-.2-.5-.4-.7-.7-.2-.3-.2-.7-.2-1s0-.7.2-1c.2-.3.4-.5.7-.7.3-.2.6-.3,1-.3s.8.1,1,.3c.3.2.5.5.6.8.1.3.2.7.2,1.1h-2.9c0,.2,0,.4.2.6.1.2.3.3.4.4.2,0,.4.1.6.1.3,0,.6,0,.8-.2.2-.1.4-.2.4-.3ZM97.1,748.6h2.2c0-.3-.1-.5-.3-.7-.2-.2-.4-.3-.8-.3s-.4,0-.6.2c-.2.1-.3.2-.4.4,0,.2-.1.3-.1.5ZM101.6,750.8h-.7v-3.3h0c0-.2,0-.3,0-.4h.7v.6c0,0,.2-.2.3-.3.1-.1.2-.2.4-.3.2,0,.4-.1.6-.1.5,0,.8.1,1.1.4.2.3.4.7.4,1.1v2.2h-.7v-2.2c0-.3,0-.6-.2-.8-.2-.2-.4-.2-.6-.2s-.5,0-.6.2c-.2.1-.3.3-.3.5,0,.2,0,.5,0,.7v1.7ZM12.3,756.8l.4.5c-.2.2-.4.3-.6.5-.2.1-.5.2-.8.2s-.7,0-1-.3c-.3-.2-.5-.4-.7-.7-.2-.3-.2-.6-.2-1s0-.7.2-1c.2-.3.4-.5.7-.7.3-.2.6-.3,1-.3s.6,0,.8.2.4.3.6.5l-.5.5c-.1-.1-.2-.2-.4-.3s-.3-.1-.6-.1-.5,0-.7.2c-.2.1-.3.3-.4.5,0,.2-.1.4-.1.7s0,.4.1.7c.1.2.2.4.4.5.2.1.4.2.7.2s.4,0,.6-.1c.2,0,.3-.2.4-.3ZM13.4,757.8v-5.3h.7v2.2c0,0,.1-.2.2-.3.1-.1.2-.2.4-.3.2,0,.4-.1.6-.1.5,0,.8.1,1.1.4.2.3.4.7.4,1.1v2.2h-.7v-2.2c0-.3,0-.6-.2-.8-.1-.2-.4-.2-.6-.2s-.5,0-.6.2c-.2.1-.3.3-.3.5,0,.2,0,.5,0,.7v1.7h-.7ZM19.6,757.9c-.4,0-.7,0-1-.3-.3-.2-.5-.4-.7-.7-.2-.3-.2-.6-.2-1s0-.7.2-1c.2-.3.4-.5.7-.7.3-.2.6-.3,1-.3s.7,0,1,.3c.3.2.5.4.7.7.2.3.3.6.3,1s0,.7-.3,1c-.2.3-.4.5-.7.7-.3.2-.6.3-1,.3ZM19.6,757.2c.3,0,.5,0,.7-.2.2-.1.3-.3.4-.5.1-.2.2-.4.2-.6s0-.4-.2-.6c0-.2-.2-.4-.4-.5-.2-.1-.4-.2-.7-.2s-.5,0-.7.2c-.2.1-.3.3-.4.5,0,.2-.1.4-.1.6s0,.4.2.6c.1.2.2.4.4.5.2.1.4.2.7.2ZM24.2,757.9c-.4,0-.7,0-1-.3-.3-.2-.5-.4-.7-.7-.2-.3-.2-.6-.2-1s0-.7.2-1c.2-.3.4-.5.7-.7.3-.2.6-.3,1-.3s.7,0,1,.3c.3.2.5.4.7.7.2.3.3.6.3,1s0,.7-.3,1c-.2.3-.4.5-.7.7-.3.2-.6.3-1,.3ZM24.2,757.2c.3,0,.5,0,.7-.2.2-.1.3-.3.4-.5.1-.2.2-.4.2-.6s0-.4-.2-.6c0-.2-.2-.4-.4-.5-.2-.1-.4-.2-.7-.2s-.5,0-.7.2c-.2.1-.3.3-.4.5,0,.2-.1.4-.1.6s0,.4.2.6c.1.2.2.4.4.5.2.1.4.2.7.2ZM26.7,757.3l.4-.5c.1.1.3.2.5.3.2,0,.4.1.6.1s.4,0,.6-.1c.2,0,.2-.2.2-.4s0-.2,0-.3c0,0-.2-.1-.3-.2-.2,0-.4-.1-.6-.2-.2,0-.4-.1-.6-.2-.2,0-.3-.2-.4-.3-.1-.1-.2-.3-.2-.6s0-.4.2-.6c.1-.2.3-.3.6-.4.2,0,.5-.1.7-.1s.6,0,.8.1c.2,0,.4.2.6.3l-.4.5c-.1-.1-.3-.2-.4-.3-.2,0-.4-.1-.6-.1s-.4,0-.6.1c-.1,0-.2.2-.2.4s0,.3.3.4c.2,0,.4.1.7.2.2,0,.4.1.6.2.2,0,.3.2.5.4.1.1.2.3.2.6s0,.5-.2.6c-.1.2-.3.3-.6.4-.2,0-.5.1-.8.1-.7,0-1.2-.2-1.6-.6ZM30.7,753.4v-.8h.8v.8h-.8ZM30.7,757.8v-3.7h.7v3.7h-.7ZM33.2,757.8h-.7v-3.3h0c0-.2,0-.3,0-.4h.7v.6c0,0,.2-.2.3-.3.1-.1.2-.2.4-.3.2,0,.4-.1.6-.1.5,0,.8.1,1.1.4.2.3.4.7.4,1.1v2.2h-.7v-2.2c0-.3,0-.6-.2-.8-.1-.2-.4-.2-.6-.2s-.5,0-.6.2c-.2.1-.3.3-.3.5,0,.2,0,.5,0,.7v1.7ZM37,759l.3-.5c.1,0,.3.2.4.2.2,0,.4,0,.7,0s.6,0,.8-.3c.2-.2.3-.5.3-.8v-.5s-.1.1-.2.2c0,0-.2.1-.4.2-.1,0-.3,0-.6,0-.4,0-.7,0-.9-.2-.3-.2-.4-.4-.6-.7-.1-.3-.2-.6-.2-1s0-.7.3-1c.2-.3.4-.5.7-.7.3-.2.7-.3,1.1-.3s.6,0,.8,0c.3,0,.5.1.6.2v3.6c0,.5-.2.9-.5,1.2-.3.3-.8.4-1.3.4s-.7,0-.9-.1c-.2,0-.4-.2-.5-.3ZM39.5,756.2v-1.5s-.1,0-.2,0c-.1,0-.3,0-.5,0s-.5,0-.7.2c-.2.1-.4.3-.5.5-.1.2-.2.4-.2.7s0,.4.1.6c0,.2.2.3.4.4s.4.2.6.2.4,0,.6-.1c.2,0,.3-.2.3-.3,0-.1.1-.3.1-.4ZM45,757.8v-.4c-.1.2-.3.3-.6.4-.2,0-.5.1-.7.1s-.4,0-.6-.1c-.2,0-.4-.2-.5-.4-.1-.2-.2-.4-.2-.7,0-.4.1-.7.4-1,.3-.2.7-.4,1.2-.4s.2,0,.4,0c.1,0,.2,0,.3,0,.1,0,.2,0,.2,0h0c0-.4,0-.6-.3-.7-.2-.1-.4-.2-.7-.2s-.5,0-.7.1c-.2,0-.3.2-.4.2l-.3-.5c.1-.1.3-.2.6-.3.2-.1.6-.2,1-.2s.9.1,1.1.4c.3.2.4.6.4,1v2.2h0c0,.2,0,.3,0,.3h-.7ZM45,756.4v-.4s0,0-.2,0c0,0-.2,0-.3,0-.1,0-.2,0-.3,0-.3,0-.5,0-.6.1-.1,0-.2.2-.3.3,0,.1,0,.2,0,.3,0,.2,0,.3.2.5.1.1.3.2.6.2s.4,0,.5-.1c.2,0,.3-.2.4-.3.1-.1.2-.3.2-.4ZM47.9,757.3l.4-.5c.1.1.3.2.5.3.2,0,.4.1.6.1s.4,0,.6-.1c.2,0,.2-.2.2-.4s0-.2,0-.3c0,0-.2-.1-.3-.2-.2,0-.4-.1-.6-.2-.2,0-.4-.1-.6-.2-.2,0-.3-.2-.4-.3-.1-.1-.2-.3-.2-.6s0-.4.2-.6c.1-.2.3-.3.6-.4.2,0,.5-.1.7-.1s.6,0,.8.1c.2,0,.4.2.6.3l-.4.5c-.1-.1-.3-.2-.4-.3-.2,0-.4-.1-.6-.1s-.4,0-.6.1c-.1,0-.2.2-.2.4s0,.3.3.4c.2,0,.4.1.7.2.2,0,.4.1.6.2.2,0,.3.2.5.4.1.1.2.3.2.6s0,.5-.2.6c-.1.2-.3.3-.6.4-.2,0-.5.1-.8.1-.7,0-1.2-.2-1.6-.6ZM51.8,756.3v-2.2h.7v2.2c0,.3,0,.6.2.8.1.2.4.2.6.2s.5,0,.6-.2.3-.3.3-.5c0-.2.1-.5.1-.7v-1.7h.7v3.5c0,0,0,.1,0,.2h-.7v-.6c0,0-.2.2-.3.3-.1,0-.2.2-.4.2-.2,0-.4.1-.6.1-.5,0-.8-.1-1.1-.4-.2-.3-.3-.7-.3-1.1ZM56.9,759.4h-.7v-4.9h0c0-.2,0-.3,0-.4h.7v.5c0,0,.2-.1.3-.2.1,0,.2-.2.4-.3.2,0,.4-.1.6-.1.4,0,.7,0,.9.3.3.2.4.4.6.7.1.3.2.6.2,1s0,.6-.2.9c-.1.2-.3.4-.4.6-.2.2-.4.3-.6.4-.2,0-.4.1-.7.1s-.5,0-.6,0c-.1,0-.3-.1-.4-.2v1.7ZM56.9,756v1c0,0,.2.1.4.2.2,0,.4,0,.6,0s.5,0,.6-.2c.2-.1.3-.3.4-.5.1-.2.2-.4.2-.7s0-.5-.1-.7c0-.2-.2-.4-.3-.5-.2-.1-.4-.2-.6-.2s-.5,0-.7.2c-.2.1-.3.3-.4.6,0,0,0,.2,0,.3,0,0,0,.2,0,.3ZM63.7,756.8l.4.4c0,0-.1.1-.3.3-.1.1-.3.2-.5.3-.2,0-.5.1-.8.1s-.7,0-1-.2c-.3-.2-.5-.4-.7-.7-.2-.3-.2-.7-.2-1s0-.7.2-1c.2-.3.4-.5.7-.7.3-.2.6-.3,1-.3s.8.1,1,.3c.3.2.5.5.6.8.1.3.2.7.2,1.1h-2.9c0,.2,0,.4.2.6.1.2.3.3.4.4.2,0,.4.1.6.1.3,0,.6,0,.8-.2.2-.1.4-.2.4-.3ZM61.2,755.6h2.2c0-.3-.1-.5-.3-.7-.2-.2-.4-.3-.8-.3s-.4,0-.6.2c-.2.1-.3.2-.4.4,0,.2-.1.3-.1.5ZM65.7,757.8h-.7v-3.4h0c0-.2,0-.3,0-.4h.7v.6c0,0,.2-.2.3-.3.1-.1.2-.2.4-.3.2,0,.4-.1.6-.1s.2,0,.2,0c0,0,.1,0,.2,0l-.2.7c0,0-.2,0-.4,0s-.4,0-.6.2c-.2.1-.3.2-.4.4,0,.2-.1.4-.1.6v2ZM69.6,757.8v-3.1h-.7v-.6h.7v-.3c0-.3,0-.6.2-.8.1-.2.3-.4.5-.5.2-.1.4-.2.6-.2s.4,0,.6,0c.2,0,.4.2.5.3l-.4.5c-.2-.2-.4-.2-.6-.2s-.4,0-.5.2c-.1.1-.2.4-.2.7v.2h1.1v.6h-1.1v3.1h-.7ZM71.9,756.3v-2.2h.7v2.2c0,.3,0,.6.2.8.1.2.4.2.6.2s.5,0,.6-.2c.2-.1.3-.3.3-.5,0-.2.1-.5.1-.7v-1.7h.7v3.5c0,0,0,.1,0,.2h-.7v-.6c0,0-.2.2-.3.3-.1,0-.2.2-.4.2-.2,0-.4.1-.6.1-.5,0-.8-.1-1.1-.4-.2-.3-.3-.7-.3-1.1ZM77,757.8h-.7v-3.3h0c0-.2,0-.3,0-.4h.7v.6c0,0,.2-.2.3-.3.1-.1.2-.2.4-.3.2,0,.4-.1.6-.1.5,0,.8.1,1.1.4.2.3.4.7.4,1.1v2.2h-.7v-2.2c0-.3,0-.6-.2-.8-.1-.2-.4-.2-.6-.2s-.5,0-.6.2c-.2.1-.3.3-.3.5,0,.2,0,.5,0,.7v1.7ZM83.3,757.8v-.5c0,0-.1.1-.2.2,0,0-.2.2-.4.3-.2,0-.4.1-.6.1s-.6,0-.8-.2c-.3-.2-.4-.4-.6-.7-.1-.3-.2-.6-.2-1s0-.7.2-.9c.1-.3.3-.5.5-.6.2-.2.4-.3.6-.4.2,0,.4-.1.6-.1s.4,0,.5,0c.1,0,.3.1.4.2v-1.8h.7v5.1c0,0,0,.1,0,.2h-.7ZM83.3,756.2v-1.3c0,0-.2-.1-.4-.2-.1,0-.3,0-.5,0-.3,0-.6.1-.9.4-.2.2-.3.6-.3,1s0,.4.1.6c0,.2.2.4.4.5.2.1.4.2.6.2s.5,0,.6-.2c.2-.1.3-.3.3-.4,0-.2.1-.3.1-.5ZM85.1,757.8v-.9h.9v.9h-.9ZM90.2,757.8l-2.1-5.3h.9l1.6,4.4,1.6-4.4h.8l-2.1,5.3h-.8ZM93.6,753.4v-.8h.8v.8h-.8ZM93.7,757.8v-3.7h.7v3.7h-.7ZM95.2,757.3l.4-.5c.1.1.3.2.5.3.2,0,.4.1.6.1s.4,0,.6-.1c.2,0,.2-.2.2-.4s0-.2,0-.3c0,0-.2-.1-.3-.2-.2,0-.4-.1-.6-.2-.2,0-.4-.1-.6-.2-.2,0-.3-.2-.4-.3-.1-.1-.2-.3-.2-.6s0-.4.2-.6c.1-.2.3-.3.6-.4.2,0,.5-.1.7-.1s.6,0,.8.1c.2,0,.4.2.6.3l-.4.5c-.1-.1-.3-.2-.4-.3-.2,0-.4-.1-.6-.1s-.4,0-.6.1c-.1,0-.2.2-.2.4s0,.3.3.4c.2,0,.4.1.7.2.2,0,.4.1.6.2.2,0,.3.2.5.4.1.1.2.3.2.6s0,.5-.2.6c-.1.2-.3.3-.6.4-.2,0-.5.1-.8.1-.7,0-1.2-.2-1.6-.6ZM99.2,753.4v-.8h.8v.8h-.8ZM99.2,757.8v-3.7h.7v3.7h-.7ZM101.3,756.5v-1.9h-.7v-.6h.7v-1.2h.7v1.2h1.1v.6h-1.1v1.8c0,.3,0,.5.1.6,0,.1.2.2.4.2s.3,0,.3,0c0,0,.2-.1.3-.2l.3.4c-.2.1-.3.3-.5.3-.2,0-.4.1-.6.1-.4,0-.7-.1-.9-.3-.2-.2-.3-.6-.3-1ZM9.5,764.8v-5.3h.7v2.2c0,0,.1-.2.2-.3.1-.1.2-.2.4-.3.2,0,.4-.1.6-.1.5,0,.8.1,1.1.4.2.3.4.7.4,1.1v2.2h-.7v-2.2c0-.3,0-.6-.2-.8-.1-.2-.4-.2-.6-.2s-.5,0-.6.2c-.2.1-.3.3-.3.5,0,.2,0,.5,0,.7v1.7h-.7ZM15.6,764.9c-.4,0-.7,0-1-.3-.3-.2-.5-.4-.7-.7-.2-.3-.2-.6-.2-1s0-.7.2-1c.2-.3.4-.5.7-.7.3-.2.6-.3,1-.3s.7,0,1,.3c.3.2.5.4.7.7.2.3.3.6.3,1s0,.7-.3,1c-.2.3-.4.5-.7.7-.3.2-.6.3-1,.3ZM15.6,764.2c.3,0,.5,0,.7-.2.2-.1.3-.3.4-.5.1-.2.2-.4.2-.6s0-.4-.2-.6c0-.2-.2-.4-.4-.5-.2-.1-.4-.2-.7-.2s-.5,0-.7.2c-.2.1-.3.3-.4.5,0,.2-.1.4-.1.6s0,.4.2.6c.1.2.2.4.4.5.2.1.4.2.7.2ZM18.2,764.3l.4-.5c.1.1.3.2.5.3.2,0,.4.1.6.1s.4,0,.6-.1c.2,0,.2-.2.2-.4s0-.2,0-.3c0,0-.2-.1-.3-.2-.2,0-.4-.1-.6-.2-.2,0-.4-.1-.6-.2-.2,0-.3-.2-.4-.3-.1-.1-.2-.3-.2-.6s0-.4.2-.6c.1-.2.3-.3.6-.4.2,0,.5-.1.7-.1s.6,0,.8.1c.2,0,.4.2.6.3l-.4.5c-.1-.1-.3-.2-.4-.3-.2,0-.4-.1-.6-.1s-.4,0-.6.1c-.1,0-.2.2-.2.4s0,.3.3.4c.2,0,.4.1.7.2.2,0,.4.1.6.2.2,0,.3.2.5.4.1.1.2.3.2.6s0,.5-.2.6c-.1.2-.3.3-.6.4-.2,0-.5.1-.8.1-.7,0-1.2-.2-1.6-.6ZM22.5,763.5v-1.9h-.7v-.6h.7v-1.2h.7v1.2h1.1v.6h-1.1v1.8c0,.3,0,.5.1.6,0,.1.2.2.4.2s.3,0,.3,0c0,0,.2-.1.3-.2l.3.4c-.2.1-.3.3-.5.3-.2,0-.4.1-.6.1-.4,0-.7-.1-.9-.3-.2-.2-.3-.6-.3-1ZM26,766.4h-.7v-4.9h0c0-.2,0-.3,0-.4h.7v.5c0,0,.2-.1.3-.2.1,0,.2-.2.4-.3.2,0,.4-.1.6-.1.4,0,.7,0,.9.3.3.2.4.4.6.7.1.3.2.6.2,1s0,.6-.2.9c-.1.2-.3.4-.4.6-.2.2-.4.3-.6.4-.2,0-.4.1-.7.1s-.5,0-.6,0c-.1,0-.3-.1-.4-.2v1.7ZM26,763v1c0,0,.2.1.4.2.2,0,.4,0,.6,0s.5,0,.6-.2c.2-.1.3-.3.4-.5.1-.2.2-.4.2-.7s0-.5-.1-.7c0-.2-.2-.4-.3-.5-.2-.1-.4-.2-.6-.2s-.5,0-.7.2c-.2.1-.3.3-.4.6,0,0,0,.2,0,.3,0,0,0,.2,0,.3ZM29.7,764.8v-5.3h.7v5.3h-.7ZM31.4,763.3v-2.2h.7v2.2c0,.3,0,.6.2.8.1.2.4.2.6.2s.5,0,.6-.2c.2-.1.3-.3.3-.5,0-.2.1-.5.1-.7v-1.7h.7v3.5c0,0,0,.1,0,.2h-.7v-.6c0,0-.2.2-.3.3-.1,0-.2.2-.4.2-.2,0-.4.1-.6.1-.5,0-.8-.1-1.1-.4-.2-.3-.3-.7-.3-1.1ZM35.6,764.3l.4-.5c.1.1.3.2.5.3.2,0,.4.1.6.1s.4,0,.6-.1c.2,0,.2-.2.2-.4s0-.2,0-.3c0,0-.2-.1-.3-.2-.2,0-.4-.1-.6-.2-.2,0-.4-.1-.6-.2-.2,0-.3-.2-.4-.3-.1-.1-.2-.3-.2-.6s0-.4.2-.6c.1-.2.3-.3.6-.4.2,0,.5-.1.7-.1s.6,0,.8.1c.2,0,.4.2.6.3l-.4.5c-.1-.1-.3-.2-.4-.3-.2,0-.4-.1-.6-.1s-.4,0-.6.1c-.1,0-.2.2-.2.4s0,.3.3.4c.2,0,.4.1.7.2.2,0,.4.1.6.2.2,0,.3.2.5.4.1.1.2.3.2.6s0,.5-.2.6c-.1.2-.3.3-.6.4-.2,0-.5.1-.8.1-.7,0-1.2-.2-1.6-.6ZM39.4,764.8v-.9h.9v.9h-.9ZM43.9,763.8l.4.5c-.2.2-.4.3-.6.5-.2.1-.5.2-.8.2s-.7,0-1-.3c-.3-.2-.5-.4-.7-.7-.2-.3-.2-.6-.2-1s0-.7.2-1c.2-.3.4-.5.7-.7.3-.2.6-.3,1-.3s.6,0,.8.2c.2.1.4.3.6.5l-.5.5c-.1-.1-.2-.2-.4-.3s-.3-.1-.6-.1-.5,0-.7.2c-.2.1-.3.3-.4.5,0,.2-.1.4-.1.7s0,.4.1.7c.1.2.2.4.4.5.2.1.4.2.7.2s.4,0,.6-.1c.2,0,.3-.2.4-.3ZM46.6,764.9c-.4,0-.7,0-1-.3-.3-.2-.5-.4-.7-.7-.2-.3-.2-.6-.2-1s0-.7.2-1c.2-.3.4-.5.7-.7.3-.2.6-.3,1-.3s.7,0,1,.3c.3.2.5.4.7.7.2.3.3.6.3,1s0,.7-.3,1c-.2.3-.4.5-.7.7-.3.2-.6.3-1,.3ZM46.6,764.2c.3,0,.5,0,.7-.2.2-.1.3-.3.4-.5.1-.2.2-.4.2-.6s0-.4-.2-.6c0-.2-.2-.4-.4-.5-.2-.1-.4-.2-.7-.2s-.5,0-.7.2c-.2.1-.3.3-.4.5,0,.2-.1.4-.1.6s0,.4.2.6c.1.2.2.4.4.5.2.1.4.2.7.2ZM50.1,764.8h-.7v-3.3h0c0-.2,0-.3,0-.4h.7v.6c0,0,.2-.2.3-.3.1-.1.2-.2.4-.3.2,0,.4-.1.6-.1s.5,0,.7.2c.2.1.3.3.4.5.1-.2.3-.3.6-.5.2-.1.5-.2.8-.2.5,0,.8.1,1.1.4.2.3.3.7.3,1.1v2.2h-.7v-2.2c0-.7-.3-1-.8-1s-.4,0-.5.2c-.2.1-.3.2-.4.4,0,.2-.1.3-.1.6v2.1h-.7v-2.2c0-.3,0-.6-.2-.8-.1-.2-.3-.2-.6-.2s-.5,0-.6.2-.3.3-.3.6c0,.2,0,.4,0,.7v1.7ZM56.2,764.8v-.9h.9v.9h-.9ZM60.6,764.8v-.4c-.1.2-.3.3-.6.4-.2,0-.5.1-.7.1s-.4,0-.6-.1c-.2,0-.4-.2-.5-.4-.1-.2-.2-.4-.2-.7,0-.4.1-.7.4-1,.3-.2.7-.4,1.2-.4s.2,0,.4,0c.1,0,.2,0,.3,0,.1,0,.2,0,.2,0h0c0-.4,0-.6-.3-.7-.2-.1-.4-.2-.7-.2s-.5,0-.7.1c-.2,0-.3.2-.4.2l-.3-.5c.1-.1.3-.2.6-.3.2-.1.6-.2,1-.2s.9.1,1.1.4c.3.2.4.6.4,1v2.2h0c0,.2,0,.3,0,.3h-.7ZM60.5,763.4v-.4s0,0-.2,0c0,0-.2,0-.3,0-.1,0-.2,0-.3,0-.3,0-.5,0-.6.1-.1,0-.2.2-.3.3,0,.1,0,.2,0,.3,0,.2,0,.3.2.5.1.1.3.2.6.2s.4,0,.5-.1c.2,0,.3-.2.4-.3.1-.1.2-.3.2-.4ZM62.2,763.3v-2.2h.7v2.2c0,.3,0,.6.2.8.1.2.4.2.6.2s.5,0,.6-.2c.2-.1.3-.3.3-.5,0-.2.1-.5.1-.7v-1.7h.7v3.5c0,0,0,.1,0,.2h-.7v-.6c0,0-.2.2-.3.3-.1,0-.2.2-.4.2-.2,0-.4.1-.6.1-.5,0-.8-.1-1.1-.4-.2-.3-.3-.7-.3-1.1ZM66.2,764.9l2.1-5.6h.7l-2.1,5.6h-.7ZM71.4,764.8v-.4c-.1.2-.3.3-.6.4-.2,0-.5.1-.7.1s-.4,0-.6-.1c-.2,0-.4-.2-.5-.4-.1-.2-.2-.4-.2-.7,0-.4.1-.7.4-1,.3-.2.7-.4,1.2-.4s.2,0,.4,0c.1,0,.2,0,.3,0,.1,0,.2,0,.2,0h0c0-.4,0-.6-.3-.7-.2-.1-.4-.2-.7-.2s-.5,0-.7.1c-.2,0-.3.2-.4.2l-.3-.5c.1-.1.3-.2.6-.3.2-.1.6-.2,1-.2s.9.1,1.1.4c.3.2.4.6.4,1v2.2h0c0,.2,0,.3,0,.3h-.7ZM71.4,763.4v-.4s0,0-.2,0c0,0-.2,0-.3,0-.1,0-.2,0-.3,0-.3,0-.5,0-.6.1-.1,0-.2.2-.3.3,0,.1,0,.2,0,.3,0,.2,0,.3.2.5.1.1.3.2.6.2s.4,0,.5-.1c.2,0,.3-.2.4-.3.1-.1.2-.3.2-.4ZM73.8,764.8l-1.3-3.7h.8l.8,2.8.9-2.8h.6l.9,2.9.8-2.9h.7l-1.2,3.7h-.7l-.9-2.6-.9,2.6h-.7ZM81.1,764.8v-.4c-.1.2-.3.3-.6.4-.2,0-.5.1-.7.1s-.4,0-.6-.1c-.2,0-.4-.2-.5-.4-.1-.2-.2-.4-.2-.7,0-.4.1-.7.4-1,.3-.2.7-.4,1.2-.4s.2,0,.4,0c.1,0,.2,0,.3,0,.1,0,.2,0,.2,0h0c0-.4,0-.6-.3-.7-.2-.1-.4-.2-.7-.2s-.5,0-.7.1c-.2,0-.3.2-.4.2l-.3-.5c.1-.1.3-.2.6-.3.2-.1.6-.2,1-.2s.9.1,1.1.4c.3.2.4.6.4,1v2.2h0c0,.2,0,.3,0,.3h-.7ZM81,763.4v-.4s0,0-.2,0c0,0-.2,0-.3,0-.1,0-.2,0-.3,0-.3,0-.5,0-.6.1-.1,0-.2.2-.3.3,0,.1,0,.2,0,.3,0,.2,0,.3.2.5.1.1.3.2.6.2s.4,0,.5-.1c.2,0,.3-.2.4-.3.1-.1.2-.3.2-.4ZM83.4,764.8h-.7v-3.4h0c0-.2,0-.3,0-.4h.7v.6c0,0,.2-.2.3-.3.1-.1.2-.2.4-.3.2,0,.4-.1.6-.1s.2,0,.2,0c0,0,.1,0,.2,0l-.2.7c0,0-.2,0-.4,0s-.4,0-.6.2c-.2.1-.3.2-.4.4,0,.2-.1.4-.1.6v2ZM88.1,764.8v-.5c0,0-.1.1-.2.2,0,0-.2.2-.4.3-.2,0-.4.1-.6.1s-.6,0-.8-.2c-.3-.2-.4-.4-.6-.7-.1-.3-.2-.6-.2-1s0-.7.2-.9c.1-.3.3-.5.5-.6.2-.2.4-.3.6-.4.2,0,.4-.1.6-.1s.4,0,.5,0c.1,0,.3.1.4.2v-1.8h.7v5.1c0,0,0,.1,0,.2h-.7ZM88.1,763.2v-1.3c0,0-.2-.1-.4-.2-.1,0-.3,0-.5,0-.3,0-.6.1-.9.4-.2.2-.3.6-.3,1s0,.4.1.6c0,.2.2.4.4.5.2.1.4.2.6.2s.5,0,.6-.2c.2-.1.3-.3.3-.4,0-.2.1-.3.1-.5ZM89.6,764.3l.4-.5c.1.1.3.2.5.3.2,0,.4.1.6.1s.4,0,.6-.1c.2,0,.2-.2.2-.4s0-.2,0-.3c0,0-.2-.1-.3-.2-.2,0-.4-.1-.6-.2-.2,0-.4-.1-.6-.2-.2,0-.3-.2-.4-.3-.1-.1-.2-.3-.2-.6s0-.4.2-.6c.1-.2.3-.3.6-.4.2,0,.5-.1.7-.1s.6,0,.8.1c.2,0,.4.2.6.3l-.4.5c-.1-.1-.3-.2-.4-.3-.2,0-.4-.1-.6-.1s-.4,0-.6.1c-.1,0-.2.2-.2.4s0,.3.3.4c.2,0,.4.1.7.2.2,0,.4.1.6.2.2,0,.3.2.5.4.1.1.2.3.2.6s0,.5-.2.6c-.1.2-.3.3-.6.4-.2,0-.5.1-.8.1-.7,0-1.2-.2-1.6-.6ZM95.4,763.5v-1.9h-.7v-.6h.7v-1.2h.7v1.2h1.1v.6h-1.1v1.8c0,.3,0,.5.1.6,0,.1.2.2.4.2s.3,0,.3,0c0,0,.2-.1.3-.2l.3.4c-.2.1-.3.3-.5.3-.2,0-.4.1-.6.1-.4,0-.7-.1-.9-.3-.2-.2-.3-.6-.3-1ZM99.7,764.9c-.4,0-.7,0-1-.3-.3-.2-.5-.4-.7-.7-.2-.3-.2-.6-.2-1s0-.7.2-1c.2-.3.4-.5.7-.7.3-.2.6-.3,1-.3s.7,0,1,.3c.3.2.5.4.7.7.2.3.3.6.3,1s0,.7-.3,1c-.2.3-.4.5-.7.7-.3.2-.6.3-1,.3ZM99.7,764.2c.3,0,.5,0,.7-.2.2-.1.3-.3.4-.5.1-.2.2-.4.2-.6s0-.4-.2-.6c0-.2-.2-.4-.4-.5-.2-.1-.4-.2-.7-.2s-.5,0-.7.2c-.2.1-.3.3-.4.5,0,.2-.1.4-.1.6s0,.4.2.6c.1.2.2.4.4.5.2.1.4.2.7.2ZM9.5,771.8v-5.3h.7v5.3h-.7ZM14.2,770.8l.4.4c0,0-.1.1-.3.3-.1.1-.3.2-.5.3-.2,0-.5.1-.8.1s-.7,0-1-.2c-.3-.2-.5-.4-.7-.7-.2-.3-.2-.7-.2-1s0-.7.2-1c.2-.3.4-.5.7-.7.3-.2.6-.3,1-.3s.8.1,1,.3c.3.2.5.5.6.8.1.3.2.7.2,1.1h-2.9c0,.2,0,.4.2.6.1.2.3.3.4.4.2,0,.4.1.6.1.3,0,.6,0,.8-.2.2-.1.4-.2.4-.3ZM11.7,769.6h2.2c0-.3-.1-.5-.3-.7-.2-.2-.4-.3-.8-.3s-.4,0-.6.2c-.2.1-.3.2-.4.4,0,.2-.1.3-.1.5ZM17.8,771.8v-.4c-.1.2-.3.3-.6.4-.2,0-.5.1-.7.1s-.4,0-.6-.1c-.2,0-.4-.2-.5-.4-.1-.2-.2-.4-.2-.7,0-.4.1-.7.4-1,.3-.2.7-.4,1.2-.4s.2,0,.4,0c.1,0,.2,0,.3,0,.1,0,.2,0,.2,0h0c0-.4,0-.6-.3-.7-.2-.1-.4-.2-.7-.2s-.5,0-.7.1c-.2,0-.3.2-.4.2l-.3-.5c.1-.1.3-.2.6-.3.2-.1.6-.2,1-.2s.9.1,1.1.4c.3.2.4.6.4,1v2.2h0c0,.2,0,.3,0,.3h-.7ZM17.8,770.4v-.4s0,0-.2,0c0,0-.2,0-.3,0-.1,0-.2,0-.3,0-.3,0-.5,0-.6.1-.1,0-.2.2-.3.3,0,.1,0,.2,0,.3,0,.2,0,.3.2.5.1.1.3.2.6.2s.4,0,.5-.1c.2,0,.3-.2.4-.3.1-.1.2-.3.2-.4ZM20.2,771.8h-.7v-3.4h0c0-.2,0-.3,0-.4h.7v.6c0,0,.2-.2.3-.3.1-.1.2-.2.4-.3.2,0,.4-.1.6-.1s.2,0,.2,0c0,0,.1,0,.2,0l-.2.7c0,0-.2,0-.4,0s-.4,0-.6.2c-.2.1-.3.2-.4.4,0,.2-.1.4-.1.6v2ZM23.1,771.8h-.7v-3.3h0c0-.2,0-.3,0-.4h.7v.6c0,0,.2-.2.3-.3.1-.1.2-.2.4-.3.2,0,.4-.1.6-.1.5,0,.8.1,1.1.4.2.3.4.7.4,1.1v2.2h-.7v-2.2c0-.3,0-.6-.2-.8-.1-.2-.4-.2-.6-.2s-.5,0-.6.2c-.2.1-.3.3-.3.5,0,.2,0,.5,0,.7v1.7ZM28.9,771.8h-.7v-3.3h0c0-.2,0-.3,0-.4h.7v.6c0,0,.2-.2.3-.3.1-.1.2-.2.4-.3.2,0,.4-.1.6-.1s.5,0,.7.2c.2.1.3.3.4.5.1-.2.3-.3.6-.5.2-.1.5-.2.8-.2.5,0,.8.1,1.1.4.2.3.3.7.3,1.1v2.2h-.7v-2.2c0-.7-.3-1-.8-1s-.4,0-.5.2c-.2.1-.3.2-.4.4,0,.2-.1.3-.1.6v2.1h-.7v-2.2c0-.3,0-.6-.2-.8-.1-.2-.3-.2-.6-.2s-.5,0-.6.2c-.2.1-.3.3-.3.6,0,.2,0,.4,0,.7v1.7ZM36.8,771.9c-.4,0-.7,0-1-.3-.3-.2-.5-.4-.7-.7-.2-.3-.2-.6-.2-1s0-.7.2-1c.2-.3.4-.5.7-.7.3-.2.6-.3,1-.3s.7,0,1,.3c.3.2.5.4.7.7.2.3.3.6.3,1s0,.7-.3,1c-.2.3-.4.5-.7.7-.3.2-.6.3-1,.3ZM36.8,771.2c.3,0,.5,0,.7-.2.2-.1.3-.3.4-.5.1-.2.2-.4.2-.6s0-.4-.2-.6c0-.2-.2-.4-.4-.5-.2-.1-.4-.2-.7-.2s-.5,0-.7.2c-.2.1-.3.3-.4.5,0,.2-.1.4-.1.6s0,.4.2.6c.1.2.2.4.4.5.2.1.4.2.7.2ZM40.3,771.8h-.7v-3.4h0c0-.2,0-.3,0-.4h.7v.6c0,0,.2-.2.3-.3.1-.1.2-.2.4-.3.2,0,.4-.1.6-.1s.2,0,.2,0c0,0,.1,0,.2,0l-.2.7c0,0-.2,0-.4,0s-.4,0-.6.2c-.2.1-.3.2-.4.4,0,.2-.1.4-.1.6v2ZM45.3,770.8l.4.4c0,0-.1.1-.3.3-.1.1-.3.2-.5.3-.2,0-.5.1-.8.1s-.7,0-1-.2c-.3-.2-.5-.4-.7-.7-.2-.3-.2-.7-.2-1s0-.7.2-1c.2-.3.4-.5.7-.7.3-.2.6-.3,1-.3s.8.1,1,.3c.3.2.5.5.6.8.1.3.2.7.2,1.1h-2.9c0,.2,0,.4.2.6.1.2.3.3.4.4.2,0,.4.1.6.1.3,0,.6,0,.8-.2.2-.1.4-.2.4-.3ZM42.8,769.6h2.2c0-.3-.1-.5-.3-.7-.2-.2-.4-.3-.8-.3s-.4,0-.6.2c-.2.1-.3.2-.4.4,0,.2-.1.3-.1.5ZM50.3,771.8v-.4c-.1.2-.3.3-.6.4-.2,0-.5.1-.7.1s-.4,0-.6-.1c-.2,0-.4-.2-.5-.4-.1-.2-.2-.4-.2-.7,0-.4.1-.7.4-1s.7-.4,1.2-.4.2,0,.4,0c.1,0,.2,0,.3,0,.1,0,.2,0,.2,0h0c0-.4,0-.6-.3-.7-.2-.1-.4-.2-.7-.2s-.5,0-.7.1c-.2,0-.3.2-.4.2l-.3-.5c.1-.1.3-.2.6-.3.2-.1.6-.2,1-.2s.9.1,1.1.4c.3.2.4.6.4,1v2.2h0c0,.2,0,.3,0,.3h-.7ZM50.3,770.4v-.4s0,0-.2,0c0,0-.2,0-.3,0-.1,0-.2,0-.3,0-.3,0-.5,0-.6.1-.1,0-.2.2-.3.3,0,.1,0,.2,0,.3,0,.2,0,.3.2.5.1.1.3.2.6.2s.4,0,.5-.1c.2,0,.3-.2.4-.3.1-.1.2-.3.2-.4ZM52,771.6v-5.2h.7v2c0-.1.2-.2.4-.3.2-.1.4-.2.8-.2s.7,0,.9.3c.3.2.4.4.6.7.1.3.2.6.2,1s0,.7-.3,1c-.2.3-.4.5-.7.7-.3.2-.7.3-1.1.3s-.6,0-.8,0c-.3,0-.5-.1-.6-.2ZM52.7,769.7v1.5c0,0,.2,0,.3,0,.1,0,.3,0,.5,0,.4,0,.7-.1,1-.4.3-.3.4-.6.4-1s0-.4-.1-.6c0-.2-.2-.4-.3-.5-.2-.1-.4-.2-.6-.2s-.4,0-.6.2c-.2.1-.3.2-.4.4,0,.2-.1.3-.1.5ZM58.2,771.9c-.4,0-.7,0-1-.3-.3-.2-.5-.4-.7-.7-.2-.3-.2-.6-.2-1s0-.7.2-1c.2-.3.4-.5.7-.7.3-.2.6-.3,1-.3s.7,0,1,.3c.3.2.5.4.7.7.2.3.3.6.3,1s0,.7-.3,1c-.2.3-.4.5-.7.7-.3.2-.6.3-1,.3ZM58.2,771.2c.3,0,.5,0,.7-.2.2-.1.3-.3.4-.5.1-.2.2-.4.2-.6s0-.4-.2-.6c0-.2-.2-.4-.4-.5-.2-.1-.4-.2-.7-.2s-.5,0-.7.2c-.2.1-.3.3-.4.5,0,.2-.1.4-.1.6s0,.4.2.6c.1.2.2.4.4.5.2.1.4.2.7.2ZM60.9,770.3v-2.2h.7v2.2c0,.3,0,.6.2.8.1.2.4.2.6.2s.5,0,.6-.2c.2-.1.3-.3.3-.5,0-.2.1-.5.1-.7v-1.7h.7v3.5c0,0,0,.1,0,.2h-.7v-.6c0,0-.2.2-.3.3-.1,0-.2.2-.4.2-.2,0-.4.1-.6.1-.5,0-.8-.1-1.1-.4-.2-.3-.3-.7-.3-1.1ZM65.6,770.5v-1.9h-.7v-.6h.7v-1.2h.7v1.2h1.1v.6h-1.1v1.8c0,.3,0,.5.1.6,0,.1.2.2.4.2s.3,0,.3,0c0,0,.2-.1.3-.2l.3.4c-.2.1-.3.3-.5.3-.2,0-.4.1-.6.1-.4,0-.7-.1-.9-.3-.2-.2-.3-.6-.3-1ZM71.6,771.9c-.4,0-.7,0-1-.3-.3-.2-.5-.4-.7-.7-.2-.3-.2-.6-.2-1s0-.7.2-1c.2-.3.4-.5.7-.7.3-.2.6-.3,1-.3s.7,0,1,.3c.3.2.5.4.7.7.2.3.3.6.3,1s0,.7-.3,1c-.2.3-.4.5-.7.7-.3.2-.6.3-1,.3ZM71.6,771.2c.3,0,.5,0,.7-.2.2-.1.3-.3.4-.5.1-.2.2-.4.2-.6s0-.4-.2-.6c0-.2-.2-.4-.4-.5-.2-.1-.4-.2-.7-.2s-.5,0-.7.2c-.2.1-.3.3-.4.5,0,.2-.1.4-.1.6s0,.4.2.6c.1.2.2.4.4.5.2.1.4.2.7.2ZM74.4,770.3v-2.2h.7v2.2c0,.3,0,.6.2.8.1.2.4.2.6.2s.5,0,.6-.2c.2-.1.3-.3.3-.5,0-.2.1-.5.1-.7v-1.7h.7v3.5c0,0,0,.1,0,.2h-.7v-.6c0,0-.2.2-.3.3-.1,0-.2.2-.4.2-.2,0-.4.1-.6.1-.5,0-.8-.1-1.1-.4-.2-.3-.3-.7-.3-1.1ZM79.4,771.8h-.7v-3.4h0c0-.2,0-.3,0-.4h.7v.6c0,0,.2-.2.3-.3.1-.1.2-.2.4-.3.2,0,.4-.1.6-.1s.2,0,.2,0c0,0,.1,0,.2,0l-.2.7c0,0-.2,0-.4,0s-.4,0-.6.2c-.2.1-.3.2-.4.4,0,.2-.1.4-.1.6v2ZM85.4,771.8v-.4c-.1.2-.3.3-.6.4-.2,0-.5.1-.7.1s-.4,0-.6-.1c-.2,0-.4-.2-.5-.4-.1-.2-.2-.4-.2-.7,0-.4.1-.7.4-1,.3-.2.7-.4,1.2-.4s.2,0,.4,0c.1,0,.2,0,.3,0,.1,0,.2,0,.2,0h0c0-.4,0-.6-.3-.7-.2-.1-.4-.2-.7-.2s-.5,0-.7.1c-.2,0-.3.2-.4.2l-.3-.5c.1-.1.3-.2.6-.3.2-.1.6-.2,1-.2s.9.1,1.1.4c.3.2.4.6.4,1v2.2h0c0,.2,0,.3,0,.3h-.7ZM85.4,770.4v-.4s0,0-.2,0c0,0-.2,0-.3,0-.1,0-.2,0-.3,0-.3,0-.5,0-.6.1-.1,0-.2.2-.3.3,0,.1,0,.2,0,.3,0,.2,0,.3.2.5.1.1.3.2.6.2s.4,0,.5-.1c.2,0,.3-.2.4-.3.1-.1.2-.3.2-.4ZM87.8,771.8l-1.3-3.7h.8l.8,2.8.9-2.8h.6l.9,2.9.8-2.9h.7l-1.2,3.7h-.7l-.9-2.6-.9,2.6h-.7ZM95.1,771.8v-.4c-.1.2-.3.3-.6.4-.2,0-.5.1-.7.1s-.4,0-.6-.1c-.2,0-.4-.2-.5-.4-.1-.2-.2-.4-.2-.7,0-.4.1-.7.4-1,.3-.2.7-.4,1.2-.4s.2,0,.4,0c.1,0,.2,0,.3,0,.1,0,.2,0,.2,0h0c0-.4,0-.6-.3-.7-.2-.1-.4-.2-.7-.2s-.5,0-.7.1c-.2,0-.3.2-.4.2l-.3-.5c.1-.1.3-.2.6-.3.2-.1.6-.2,1-.2s.9.1,1.1.4c.3.2.4.6.4,1v2.2h0c0,.2,0,.3,0,.3h-.7ZM95.1,770.4v-.4s0,0-.2,0c0,0-.2,0-.3,0-.1,0-.2,0-.3,0-.3,0-.5,0-.6.1-.1,0-.2.2-.3.3,0,.1,0,.2,0,.3,0,.2,0,.3.2.5.1.1.3.2.6.2s.4,0,.5-.1c.2,0,.3-.2.4-.3.1-.1.2-.3.2-.4ZM97.4,771.8h-.7v-3.4h0c0-.2,0-.3,0-.4h.7v.6c0,0,.2-.2.3-.3.1-.1.2-.2.4-.3.2,0,.4-.1.6-.1s.2,0,.2,0c0,0,.1,0,.2,0l-.2.7c0,0-.2,0-.4,0s-.4,0-.6.2c-.2.1-.3.2-.4.4,0,.2-.1.4-.1.6v2ZM102.1,771.8v-.5c0,0-.1.1-.2.2,0,0-.2.2-.4.3-.2,0-.4.1-.6.1s-.6,0-.8-.2c-.3-.2-.4-.4-.6-.7-.1-.3-.2-.6-.2-1s0-.7.2-.9c.1-.3.3-.5.5-.6.2-.2.4-.3.6-.4.2,0,.4-.1.6-.1s.4,0,.5,0c.1,0,.3.1.4.2v-1.8h.7v5.1c0,0,0,.1,0,.2h-.7ZM102.1,770.2v-1.3c0,0-.2-.1-.4-.2-.2,0-.3,0-.5,0-.3,0-.6.1-.9.4-.2.2-.3.6-.3,1s0,.4.1.6c0,.2.2.4.4.5.2.1.4.2.6.2s.4,0,.6-.2c.2-.1.3-.3.3-.4,0-.2.1-.3.1-.5ZM103.6,771.3l.4-.5c.1.1.3.2.5.3.2,0,.4.1.6.1s.4,0,.6-.1c.2,0,.2-.2.2-.4s0-.2,0-.3c0,0-.2-.1-.3-.2-.2,0-.4-.1-.6-.2-.2,0-.4-.1-.6-.2-.2,0-.3-.2-.4-.3-.1-.1-.2-.3-.2-.6s0-.4.2-.6c.1-.2.3-.3.6-.4.2,0,.5-.1.7-.1s.6,0,.8.1c.2,0,.4.2.6.3l-.4.5c-.1-.1-.3-.2-.4-.3-.2,0-.4-.1-.6-.1s-.4,0-.6.1c-.1,0-.2.2-.2.4s0,.3.3.4c.2,0,.4.1.7.2.2,0,.4.1.6.2.2,0,.3.2.5.4.1.1.2.3.2.6s0,.5-.2.6c-.1.2-.3.3-.6.4-.2,0-.5.1-.8.1-.7,0-1.2-.2-1.6-.6ZM107.5,771.8v-.9h.9v.9h-.9ZM9.6,778.8v-5.3h.8v5.3h-.8ZM11.3,778.3l.4-.5c.1.1.3.2.5.3.2,0,.4.1.6.1s.4,0,.6-.1c.2,0,.2-.2.2-.4s0-.2,0-.3c0,0-.2-.1-.3-.2-.2,0-.4-.1-.6-.2-.2,0-.4-.1-.6-.2-.2,0-.3-.2-.4-.3-.1-.1-.2-.3-.2-.6s0-.4.2-.6c.1-.2.3-.3.6-.4.2,0,.5-.1.7-.1s.6,0,.8.1c.2,0,.4.2.6.3l-.4.5c-.1-.1-.3-.2-.4-.3-.2,0-.4-.1-.6-.1s-.4,0-.6.1c-.1,0-.2.2-.2.4s0,.3.3.4c.2,0,.4.1.7.2.2,0,.4.1.6.2.2,0,.3.2.5.4.1.1.2.3.2.6s0,.5-.2.6c-.1.2-.3.3-.6.4-.2,0-.5.1-.8.1-.7,0-1.2-.2-1.6-.6ZM15.1,778.3l.4-.5c.1.1.3.2.5.3.2,0,.4.1.6.1s.4,0,.6-.1c.2,0,.2-.2.2-.4s0-.2,0-.3c0,0-.2-.1-.3-.2-.2,0-.4-.1-.6-.2-.2,0-.4-.1-.6-.2-.2,0-.3-.2-.4-.3-.1-.1-.2-.3-.2-.6s0-.4.2-.6c.1-.2.3-.3.6-.4.2,0,.5-.1.7-.1s.6,0,.8.1c.2,0,.4.2.6.3l-.4.5c-.1-.1-.3-.2-.4-.3-.2,0-.4-.1-.6-.1s-.4,0-.6.1c-.1,0-.2.2-.2.4s0,.3.3.4c.2,0,.4.1.7.2.2,0,.4.1.6.2.2,0,.3.2.5.4.1.1.2.3.2.6s0,.5-.2.6c-.1.2-.3.3-.6.4-.2,0-.5.1-.8.1-.7,0-1.2-.2-1.6-.6ZM19,777.3v-2.2h.7v2.2c0,.3,0,.6.2.8.1.2.4.2.6.2s.5,0,.6-.2c.2-.1.3-.3.3-.5,0-.2.1-.5.1-.7v-1.7h.7v3.5c0,0,0,.1,0,.2h-.7v-.6c0,0-.2.2-.3.3-.1,0-.2.2-.4.2-.2,0-.4.1-.6.1-.5,0-.8-.1-1.1-.4-.2-.3-.3-.7-.3-1.1ZM26.3,777.8l.4.4c0,0-.1.1-.3.3-.1.1-.3.2-.5.3-.2,0-.5.1-.8.1s-.7,0-1-.2c-.3-.2-.5-.4-.7-.7-.2-.3-.2-.7-.2-1s0-.7.2-1c.2-.3.4-.5.7-.7.3-.2.6-.3,1-.3s.8.1,1,.3c.3.2.5.5.6.8.1.3.2.7.2,1.1h-2.9c0,.2,0,.4.2.6.1.2.3.3.4.4.2,0,.4.1.6.1.3,0,.6,0,.8-.2.2-.1.4-.2.4-.3ZM23.9,776.6h2.2c0-.3-.1-.5-.3-.7-.2-.2-.4-.3-.8-.3s-.4,0-.6.2c-.2.1-.3.2-.4.4,0,.2-.1.3-.1.5ZM30.4,778.8v-.5c0,0-.1.1-.2.2,0,0-.2.2-.4.3-.2,0-.4.1-.6.1s-.6,0-.8-.2c-.3-.2-.4-.4-.6-.7-.1-.3-.2-.6-.2-1s0-.7.2-.9c.1-.3.3-.5.5-.6.2-.2.4-.3.6-.4.2,0,.4-.1.6-.1s.4,0,.5,0c.1,0,.3.1.4.2v-1.8h.7v5.1c0,0,0,.1,0,.2h-.7ZM30.3,777.2v-1.3c0,0-.2-.1-.4-.2-.1,0-.3,0-.5,0-.3,0-.6.1-.9.4-.2.2-.3.6-.3,1s0,.4.1.6c0,.2.2.4.4.5.2.1.4.2.6.2s.5,0,.6-.2c.2-.1.3-.3.3-.4,0-.2.1-.3.1-.5ZM33.5,778.6v-5.2h.7v2c0-.1.2-.2.4-.3.2-.1.4-.2.8-.2s.7,0,.9.3c.3.2.4.4.6.7.1.3.2.6.2,1s0,.7-.3,1c-.2.3-.4.5-.7.7-.3.2-.7.3-1.1.3s-.6,0-.8,0c-.3,0-.5-.1-.6-.2ZM34.2,776.7v1.5c0,0,.2,0,.3,0,.1,0,.3,0,.5,0,.4,0,.7-.1,1-.4.3-.3.4-.6.4-1s0-.4-.1-.6c0-.2-.2-.4-.3-.5-.2-.1-.4-.2-.6-.2s-.4,0-.6.2c-.2.1-.3.2-.4.4,0,.2-.1.3-.1.5ZM37.4,780.2l.3-.5c0,0,.1,0,.2.1,0,0,.2,0,.3,0,.2,0,.3,0,.4-.2,0-.2.2-.4.3-.7v-.2c0,0-1.6-3.7-1.6-3.7h.8l1.2,2.8,1.1-2.8h.8l-1.5,3.6c0,.2-.1.3-.2.6,0,.2-.2.4-.3.6-.1.2-.2.3-.4.5-.2.1-.3.2-.6.2s-.3,0-.5,0c-.1,0-.2-.1-.3-.2ZM43.2,778.8v-5.3h.8v2.2h2.9v-2.2h.8v5.3h-.8v-2.4h-2.9v2.4h-.8ZM50.6,778.9c-.4,0-.7,0-1-.3-.3-.2-.5-.4-.7-.7-.2-.3-.2-.6-.2-1s0-.7.2-1c.2-.3.4-.5.7-.7.3-.2.6-.3,1-.3s.7,0,1,.3c.3.2.5.4.7.7.2.3.3.6.3,1s0,.7-.3,1c-.2.3-.4.5-.7.7-.3.2-.6.3-1,.3ZM50.6,778.2c.3,0,.5,0,.7-.2.2-.1.3-.3.4-.5.1-.2.2-.4.2-.6s0-.4-.2-.6c0-.2-.2-.4-.4-.5-.2-.1-.4-.2-.7-.2s-.5,0-.7.2c-.2.1-.3.3-.4.5,0,.2-.1.4-.1.6s0,.4.2.6c.1.2.2.4.4.5.2.1.4.2.7.2ZM53.2,778.3l.4-.5c.1.1.3.2.5.3.2,0,.4.1.6.1s.4,0,.6-.1c.2,0,.2-.2.2-.4s0-.2,0-.3c0,0-.2-.1-.3-.2-.2,0-.4-.1-.6-.2-.2,0-.4-.1-.6-.2-.2,0-.3-.2-.4-.3-.1-.1-.2-.3-.2-.6s0-.4.2-.6c.1-.2.3-.3.6-.4.2,0,.5-.1.7-.1s.6,0,.8.1c.2,0,.4.2.6.3l-.4.5c-.1-.1-.3-.2-.4-.3-.2,0-.4-.1-.6-.1s-.4,0-.6.1c-.1,0-.2.2-.2.4s0,.3.3.4c.2,0,.4.1.7.2.2,0,.4.1.6.2.2,0,.3.2.5.4.1.1.2.3.2.6s0,.5-.2.6c-.1.2-.3.3-.6.4-.2,0-.5.1-.8.1-.7,0-1.2-.2-1.6-.6ZM57.5,777.5v-1.9h-.7v-.6h.7v-1.2h.7v1.2h1.1v.6h-1.1v1.8c0,.3,0,.5.1.6,0,.1.2.2.4.2s.3,0,.3,0c0,0,.2-.1.3-.2l.3.4c-.2.1-.3.3-.5.3-.2,0-.4.1-.6.1-.4,0-.7-.1-.9-.3-.2-.2-.3-.6-.3-1ZM60.1,776.9v-.7h2.3v.7h-2.3ZM63.6,778.8v-5.3h1.7c.4,0,.7,0,.9.2.2,0,.4.2.6.4.1.2.2.3.3.5,0,.2,0,.4,0,.6,0,.4,0,.7-.2.9-.2.2-.4.4-.6.5-.3.1-.6.2-.9.2h-1v2.1h-.8ZM64.4,776h1c.3,0,.6,0,.8-.3.2-.2.3-.4.3-.7s0-.5-.3-.7c-.2-.2-.4-.3-.8-.3h-1v1.9ZM67.9,778.8v-5.3h.7v5.3h-.7ZM69.6,777.3v-2.2h.7v2.2c0,.3,0,.6.2.8.1.2.4.2.6.2s.5,0,.6-.2c.2-.1.3-.3.3-.5,0-.2.1-.5.1-.7v-1.7h.7v3.5c0,0,0,.1,0,.2h-.7v-.6c0,0-.2.2-.3.3-.1,0-.2.2-.4.2-.2,0-.4.1-.6.1-.5,0-.8-.1-1.1-.4-.2-.3-.3-.7-.3-1.1ZM73.7,778.3l.4-.5c.1.1.3.2.5.3.2,0,.4.1.6.1s.4,0,.6-.1c.2,0,.2-.2.2-.4s0-.2,0-.3c0,0-.2-.1-.3-.2-.2,0-.4-.1-.6-.2-.2,0-.4-.1-.6-.2-.2,0-.3-.2-.4-.3-.1-.1-.2-.3-.2-.6s0-.4.2-.6c.1-.2.3-.3.6-.4.2,0,.5-.1.7-.1s.6,0,.8.1c.2,0,.4.2.6.3l-.4.5c-.1-.1-.3-.2-.4-.3-.2,0-.4-.1-.6-.1s-.4,0-.6.1c-.1,0-.2.2-.2.4s0,.3.3.4c.2,0,.4.1.7.2.2,0,.4.1.6.2.2,0,.3.2.5.4.1.1.2.3.2.6s0,.5-.2.6c-.1.2-.3.3-.6.4-.2,0-.5.1-.8.1-.7,0-1.2-.2-1.6-.6ZM79.2,778.8v-5.3h1.7c.4,0,.7,0,.9.2.2,0,.4.2.6.4.1.2.2.3.3.5,0,.2,0,.4,0,.6,0,.4,0,.7-.2.9-.2.2-.4.4-.6.5-.3.1-.6.2-.9.2h-1v2.1h-.8ZM80,776h1c.3,0,.6,0,.8-.3.2-.2.3-.4.3-.7s0-.5-.3-.7c-.2-.2-.4-.3-.8-.3h-1v1.9ZM84,777.5v-1.9h-.7v-.6h.7v-1.2h.7v1.2h1.1v.6h-1.1v1.8c0,.3,0,.5.1.6,0,.1.2.2.4.2s.3,0,.3,0c0,0,.2-.1.3-.2l.3.4c-.2.1-.3.3-.5.3-.2,0-.4.1-.6.1-.4,0-.7-.1-.9-.3-.2-.2-.3-.6-.3-1ZM86.3,780.2l.3-.5c0,0,.1,0,.2.1,0,0,.2,0,.3,0,.2,0,.3,0,.4-.2,0-.2.2-.4.3-.7v-.2c0,0-1.6-3.7-1.6-3.7h.8l1.2,2.8,1.1-2.8h.8l-1.5,3.6c0,.2-.1.3-.2.6,0,.2-.2.4-.3.6-.1.2-.2.3-.4.5-.2.1-.3.2-.6.2s-.3,0-.5,0c-.1,0-.2-.1-.3-.2ZM9.6,785.8v-5.3h.8v4.7h2.8v.7h-3.5ZM13.9,781.4v-.8h.8v.8h-.8ZM13.9,785.8v-3.7h.7v3.7h-.7ZM16.4,785.8h-.7v-3.3h0c0-.2,0-.3,0-.4h.7v.6c0,0,.2-.2.3-.3.1-.1.2-.2.4-.3.2,0,.4-.1.6-.1s.5,0,.7.2c.2.1.3.3.4.5.1-.2.3-.3.6-.5.2-.1.5-.2.8-.2.5,0,.8.1,1.1.4.2.3.3.7.3,1.1v2.2h-.7v-2.2c0-.7-.3-1-.8-1s-.4,0-.5.2c-.2.1-.3.2-.4.4,0,.2-.1.3-.1.6v2.1h-.7v-2.2c0-.3,0-.6-.2-.8-.1-.2-.3-.2-.6-.2s-.5,0-.6.2c-.2.1-.3.3-.3.6,0,.2,0,.4,0,.7v1.7ZM22.4,781.4v-.8h.8v.8h-.8ZM22.5,785.8v-3.7h.7v3.7h-.7ZM24.5,784.5v-1.9h-.7v-.6h.7v-1.2h.7v1.2h1.1v.6h-1.1v1.8c0,.3,0,.5.1.6,0,.1.2.2.4.2s.3,0,.3,0c0,0,.2-.1.3-.2l.3.4c-.2.1-.3.3-.5.3-.2,0-.4.1-.6.1-.4,0-.7-.1-.9-.3-.2-.2-.3-.6-.3-1ZM30,784.8l.4.4c0,0-.1.1-.3.3-.1.1-.3.2-.5.3-.2,0-.5.1-.8.1s-.7,0-1-.2c-.3-.2-.5-.4-.7-.7-.2-.3-.2-.7-.2-1s0-.7.2-1c.2-.3.4-.5.7-.7.3-.2.6-.3,1-.3s.8.1,1,.3c.3.2.5.5.6.8.1.3.2.7.2,1.1h-2.9c0,.2,0,.4.2.6.1.2.3.3.4.4.2,0,.4.1.6.1.3,0,.6,0,.8-.2.2-.1.4-.2.4-.3ZM27.6,783.6h2.2c0-.3-.1-.5-.3-.7-.2-.2-.4-.3-.8-.3s-.4,0-.6.2c-.2.1-.3.2-.4.4,0,.2-.1.3-.1.5ZM34,785.8v-.5c0,0-.1.1-.2.2,0,0-.2.2-.4.3-.2,0-.4.1-.6.1s-.6,0-.8-.2c-.3-.2-.4-.4-.6-.7-.1-.3-.2-.6-.2-1s0-.7.2-.9c.1-.3.3-.5.5-.6.2-.2.4-.3.6-.4.2,0,.4-.1.6-.1s.4,0,.5,0c.1,0,.3.1.4.2v-1.8h.7v5.1c0,0,0,.1,0,.2h-.7ZM34,784.2v-1.3c0,0-.2-.1-.4-.2-.1,0-.3,0-.5,0-.3,0-.6.1-.9.4-.2.2-.3.6-.3,1s0,.4.1.6c0,.2.2.4.4.5.2.1.4.2.6.2s.5,0,.6-.2c.2-.1.3-.3.3-.4,0-.2.1-.3.1-.5ZM35.8,785.8v-.9h.9v.9h-.9ZM42.1,783.7v-.7h1.9v2.1c-.2.2-.5.3-.8.5-.3.1-.8.2-1.3.2s-1-.1-1.4-.4c-.4-.2-.7-.6-.9-1-.2-.4-.3-.9-.3-1.4s0-.8.2-1.1c.1-.3.3-.6.5-.9.2-.3.5-.5.8-.6.3-.1.7-.2,1.1-.2s.7,0,1,.2c.3.1.5.2.7.4.2.2.3.3.4.5l-.5.5c0-.1-.2-.2-.3-.4-.1-.1-.3-.2-.5-.3-.2,0-.4-.1-.7-.1-.4,0-.7,0-1,.3-.3.2-.5.4-.7.8-.1.3-.2.7-.2,1.1s0,.8.2,1.1c.2.3.4.6.7.7.3.2.6.3,1,.3s.6,0,.8-.1c.2,0,.4-.2.6-.3v-1.1h-1.1ZM48,784.8l.4.4c0,0-.1.1-.3.3-.1.1-.3.2-.5.3-.2,0-.5.1-.8.1s-.7,0-1-.2c-.3-.2-.5-.4-.7-.7-.2-.3-.2-.7-.2-1s0-.7.2-1c.2-.3.4-.5.7-.7.3-.2.6-.3,1-.3s.8.1,1,.3c.3.2.5.5.6.8.1.3.2.7.2,1.1h-2.9c0,.2,0,.4.2.6.1.2.3.3.4.4.2,0,.4.1.6.1.3,0,.6,0,.8-.2.2-.1.4-.2.4-.3ZM45.5,783.6h2.2c0-.3-.1-.5-.3-.7-.2-.2-.4-.3-.8-.3s-.4,0-.6.2c-.2.1-.3.2-.4.4,0,.2-.1.3-.1.5ZM50,785.8h-.7v-3.3h0c0-.2,0-.3,0-.4h.7v.6c0,0,.2-.2.3-.3.1-.1.2-.2.4-.3.2,0,.4-.1.6-.1.5,0,.8.1,1.1.4.2.3.4.7.4,1.1v2.2h-.7v-2.2c0-.3,0-.6-.2-.8-.1-.2-.4-.2-.6-.2s-.5,0-.6.2c-.2.1-.3.3-.3.5,0,.2,0,.5,0,.7v1.7ZM56.6,784.8l.4.4c0,0-.1.1-.3.3-.1.1-.3.2-.5.3-.2,0-.5.1-.8.1s-.7,0-1-.2c-.3-.2-.5-.4-.7-.7-.2-.3-.2-.7-.2-1s0-.7.2-1c.2-.3.4-.5.7-.7.3-.2.6-.3,1-.3s.8.1,1,.3.5.5.6.8c.1.3.2.7.2,1.1h-2.9c0,.2,0,.4.2.6.1.2.3.3.4.4.2,0,.4.1.6.1.3,0,.6,0,.8-.2.2-.1.4-.2.4-.3ZM54.2,783.6h2.2c0-.3-.1-.5-.3-.7-.2-.2-.4-.3-.8-.3s-.4,0-.6.2c-.2.1-.3.2-.4.4,0,.2-.1.3-.1.5ZM58.6,785.8h-.7v-3.4h0c0-.2,0-.3,0-.4h.7v.6c0,0,.2-.2.3-.3.1-.1.2-.2.4-.3.2,0,.4-.1.6-.1s.2,0,.2,0c0,0,.1,0,.2,0l-.2.7c0,0-.2,0-.4,0s-.4,0-.6.2c-.2.1-.3.2-.4.4,0,.2-.1.4-.1.6v2ZM63.1,785.8v-.4c-.1.2-.3.3-.6.4-.2,0-.5.1-.7.1s-.4,0-.6-.1c-.2,0-.4-.2-.5-.4-.1-.2-.2-.4-.2-.7,0-.4.1-.7.4-1,.3-.2.7-.4,1.2-.4s.2,0,.4,0c.1,0,.2,0,.3,0,.1,0,.2,0,.2,0h0c0-.4,0-.6-.3-.7-.2-.1-.4-.2-.7-.2s-.5,0-.7.1c-.2,0-.3.2-.4.2l-.3-.5c.1-.1.3-.2.6-.3.2-.1.6-.2,1-.2s.9.1,1.1.4c.3.2.4.6.4,1v2.2h0c0,.2,0,.3,0,.3h-.7ZM63,784.4v-.4s0,0-.2,0c0,0-.2,0-.3,0-.1,0-.2,0-.3,0-.3,0-.5,0-.6.1-.1,0-.2.2-.3.3,0,.1,0,.2,0,.3,0,.2,0,.3.2.5.1.1.3.2.6.2s.4,0,.5-.1c.2,0,.3-.2.4-.3.1-.1.2-.3.2-.4ZM64.7,785.8v-5.3h.7v5.3h-.7ZM70.2,785.8v-.4c-.1.2-.3.3-.6.4-.2,0-.5.1-.7.1s-.4,0-.6-.1c-.2,0-.4-.2-.5-.4-.1-.2-.2-.4-.2-.7,0-.4.1-.7.4-1,.3-.2.7-.4,1.2-.4s.2,0,.4,0c.1,0,.2,0,.3,0,.1,0,.2,0,.2,0h0c0-.4,0-.6-.3-.7-.2-.1-.4-.2-.7-.2s-.5,0-.7.1c-.2,0-.3.2-.4.2l-.3-.5c.1-.1.3-.2.6-.3.2-.1.6-.2,1-.2s.9.1,1.1.4c.3.2.4.6.4,1v2.2h0c0,.2,0,.3,0,.3h-.7ZM70.2,784.4v-.4s0,0-.2,0c0,0-.2,0-.3,0-.1,0-.2,0-.3,0-.3,0-.5,0-.6.1-.1,0-.2.2-.3.3,0,.1,0,.2,0,.3,0,.2,0,.3.2.5.1.1.3.2.6.2s.4,0,.5-.1c.2,0,.3-.2.4-.3.1-.1.2-.3.2-.4ZM74.5,785.8v-.5c0,0-.1.1-.2.2,0,0-.2.2-.4.3-.2,0-.4.1-.6.1s-.6,0-.8-.2c-.3-.2-.4-.4-.6-.7-.1-.3-.2-.6-.2-1s0-.7.2-.9c.1-.3.3-.5.5-.6.2-.2.4-.3.6-.4.2,0,.4-.1.6-.1s.4,0,.5,0c.1,0,.3.1.4.2v-1.8h.7v5.1c0,0,0,.1,0,.2h-.7ZM74.5,784.2v-1.3c0,0-.2-.1-.4-.2-.1,0-.3,0-.5,0-.3,0-.6.1-.9.4-.2.2-.3.6-.3,1s0,.4.1.6c0,.2.2.4.4.5.2.1.4.2.6.2s.5,0,.6-.2c.2-.1.3-.3.3-.4,0-.2.1-.3.1-.5ZM77.4,785.8l-1.6-3.7h.8l1.2,2.9,1.2-2.9h.8l-1.6,3.7h-.7ZM80.2,781.4v-.8h.8v.8h-.8ZM80.3,785.8v-3.7h.7v3.7h-.7ZM84.8,784.8l.4.5c-.2.2-.4.3-.6.5-.2.1-.5.2-.8.2s-.7,0-1-.3c-.3-.2-.5-.4-.7-.7-.2-.3-.2-.6-.2-1s0-.7.2-1c.2-.3.4-.5.7-.7.3-.2.6-.3,1-.3s.6,0,.8.2.4.3.6.5l-.5.5c-.1-.1-.2-.2-.4-.3-.2,0-.3-.1-.6-.1s-.5,0-.7.2c-.2.1-.3.3-.4.5,0,.2-.1.4-.1.7s0,.4.1.7c.1.2.2.4.4.5.2.1.4.2.7.2s.4,0,.6-.1c.2,0,.3-.2.4-.3ZM88.7,784.8l.4.4c0,0-.1.1-.3.3-.1.1-.3.2-.5.3-.2,0-.5.1-.8.1s-.7,0-1-.2c-.3-.2-.5-.4-.7-.7-.2-.3-.2-.7-.2-1s0-.7.2-1c.2-.3.4-.5.7-.7.3-.2.6-.3,1-.3s.8.1,1,.3c.3.2.5.5.6.8.1.3.2.7.2,1.1h-2.9c0,.2,0,.4.2.6.1.2.3.3.4.4.2,0,.4.1.6.1.3,0,.6,0,.8-.2.2-.1.4-.2.4-.3ZM86.3,783.6h2.2c0-.3-.1-.5-.3-.7-.2-.2-.4-.3-.8-.3s-.4,0-.6.2c-.2.1-.3.2-.4.4,0,.2-.1.3-.1.5ZM93.3,785.9c-.4,0-.7,0-1-.3-.3-.2-.5-.4-.7-.7-.2-.3-.2-.6-.2-1s0-.7.2-1c.2-.3.4-.5.7-.7.3-.2.6-.3,1-.3s.7,0,1,.3c.3.2.5.4.7.7.2.3.3.6.3,1s0,.7-.3,1c-.2.3-.4.5-.7.7-.3.2-.6.3-1,.3ZM93.3,785.2c.3,0,.5,0,.7-.2.2-.1.3-.3.4-.5.1-.2.2-.4.2-.6s0-.4-.2-.6c0-.2-.2-.4-.4-.5-.2-.1-.4-.2-.7-.2s-.5,0-.7.2c-.2.1-.3.3-.4.5,0,.2-.1.4-.1.6s0,.4.2.6c.1.2.2.4.4.5.2.1.4.2.7.2ZM96.8,785.8h-.7v-3.3h0c0-.2,0-.3,0-.4h.7v.6c0,0,.2-.2.3-.3.1-.1.2-.2.4-.3.2,0,.4-.1.6-.1.5,0,.8.1,1.1.4.2.3.4.7.4,1.1v2.2h-.7v-2.2c0-.3,0-.6-.2-.8-.1-.2-.4-.2-.6-.2s-.5,0-.6.2c-.2.1-.3.3-.3.5,0,.2,0,.5,0,.7v1.7ZM100.4,785.8v-5.3h.7v5.3h-.7ZM101.8,787.2l.3-.5c0,0,.1,0,.2.1,0,0,.2,0,.3,0,.2,0,.3,0,.4-.2,0-.2.2-.4.3-.7v-.2c0,0-1.6-3.7-1.6-3.7h.8l1.2,2.8,1.1-2.8h.8l-1.5,3.6c0,.2-.1.3-.2.6,0,.2-.2.4-.3.6-.1.2-.2.3-.4.5-.2.1-.3.2-.6.2s-.3,0-.5,0c-.1,0-.2-.1-.3-.2ZM105.5,785.8v-.9h.9v.9h-.9ZM13.6,791.4l.5.4c0,.1-.2.3-.4.4-.2.2-.4.3-.7.4-.3.1-.6.2-1,.2s-1-.1-1.4-.4c-.4-.2-.7-.6-.9-1-.2-.4-.3-.9-.3-1.4s0-.8.2-1.1c.1-.3.3-.6.5-.9.2-.3.5-.5.8-.6.3-.2.7-.2,1.1-.2s.7,0,1,.2c.3.1.5.2.7.4.2.2.3.3.4.5l-.5.5c0-.1-.2-.2-.3-.4-.1-.1-.3-.2-.5-.3-.2,0-.4-.1-.7-.1s-.7,0-1,.3c-.3.2-.5.4-.6.8-.1.3-.2.7-.2,1.1s0,.7.2,1c.2.3.4.6.6.8.3.2.6.3,1,.3s.6,0,.8-.2c.2-.1.4-.2.5-.3.1-.1.2-.2.3-.3ZM16.6,792.9c-.4,0-.7,0-1-.3-.3-.2-.5-.4-.7-.7-.2-.3-.2-.6-.2-1s0-.7.2-1c.2-.3.4-.5.7-.7.3-.2.6-.3,1-.3s.7,0,1,.3c.3.2.5.4.7.7.2.3.3.6.3,1s0,.7-.3,1c-.2.3-.4.5-.7.7-.3.2-.6.3-1,.3ZM16.6,792.2c.3,0,.5,0,.7-.2.2-.1.3-.3.4-.5.1-.2.2-.4.2-.6s0-.4-.2-.6c0-.2-.2-.4-.4-.5-.2-.1-.4-.2-.7-.2s-.5,0-.7.2c-.2.1-.3.3-.4.5,0,.2-.1.4-.1.6s0,.4.2.6c.1.2.2.4.4.5.2.1.4.2.7.2ZM20.1,792.8h-.7v-3.3h0c0-.2,0-.3,0-.4h.7v.6c0,0,.2-.2.3-.3.1-.1.2-.2.4-.3.2,0,.4-.1.6-.1.5,0,.8.1,1.1.4.2.3.4.7.4,1.1v2.2h-.7v-2.2c0-.3,0-.6-.2-.8-.1-.2-.4-.2-.6-.2s-.5,0-.6.2c-.2.1-.3.3-.3.5,0,.2,0,.5,0,.7v1.7ZM23.5,792.3l.4-.5c.1.1.3.2.5.3.2,0,.4.1.6.1s.4,0,.6-.1c.2,0,.2-.2.2-.4s0-.2,0-.3c0,0-.2-.1-.3-.2-.2,0-.4-.1-.6-.2-.2,0-.4-.1-.6-.2-.2,0-.3-.2-.4-.3-.1-.1-.2-.3-.2-.6s0-.4.2-.6c.1-.2.3-.3.6-.4.2,0,.5-.1.7-.1s.6,0,.8.1c.2,0,.4.2.6.3l-.4.5c-.1-.1-.3-.2-.4-.3-.2,0-.4-.1-.6-.1s-.4,0-.6.1c-.1,0-.2.2-.2.4s0,.3.3.4c.2,0,.4.1.7.2.2,0,.4.1.6.2.2,0,.3.2.5.4.1.1.2.3.2.6s0,.5-.2.6c-.1.2-.3.3-.6.4-.2,0-.5.1-.8.1-.7,0-1.2-.2-1.6-.6ZM27.4,788.4v-.8h.8v.8h-.8ZM27.5,792.8v-3.7h.7v3.7h-.7ZM31.9,792.8v-.5c0,0-.1.1-.2.2,0,0-.2.2-.4.3-.2,0-.4.1-.6.1s-.6,0-.8-.2c-.3-.2-.4-.4-.6-.7-.1-.3-.2-.6-.2-1s0-.7.2-.9c.1-.3.3-.5.5-.6.2-.2.4-.3.6-.4.2,0,.4-.1.6-.1s.4,0,.5,0c.1,0,.3.1.4.2v-1.8h.7v5.1c0,0,0,.1,0,.2h-.7ZM31.9,791.2v-1.3c0,0-.2-.1-.4-.2-.1,0-.3,0-.5,0-.3,0-.6.1-.9.4-.2.2-.3.6-.3,1s0,.4.1.6c0,.2.2.4.4.5.2.1.4.2.6.2s.5,0,.6-.2c.2-.1.3-.3.3-.4,0-.2.1-.3.1-.5ZM36.6,791.8l.4.4c0,0-.1.1-.3.3-.1.1-.3.2-.5.3-.2,0-.5.1-.8.1s-.7,0-1-.2c-.3-.2-.5-.4-.7-.7-.2-.3-.2-.7-.2-1s0-.7.2-1c.2-.3.4-.5.7-.7.3-.2.6-.3,1-.3s.8.1,1,.3c.3.2.5.5.6.8.1.3.2.7.2,1.1h-2.9c0,.2,0,.4.2.6.1.2.3.3.4.4.2,0,.4.1.6.1.3,0,.6,0,.8-.2.2-.1.4-.2.4-.3ZM34.2,790.6h2.2c0-.3-.1-.5-.3-.7-.2-.2-.4-.3-.8-.3s-.4,0-.6.2c-.2.1-.3.2-.4.4,0,.2-.1.3-.1.5ZM38.6,792.8h-.7v-3.4h0c0-.2,0-.3,0-.4h.7v.6c0,0,.2-.2.3-.3.1-.1.2-.2.4-.3.2,0,.4-.1.6-.1s.2,0,.2,0c0,0,.1,0,.2,0l-.2.7c0,0-.2,0-.4,0s-.4,0-.6.2c-.2.1-.3.2-.4.4,0,.2-.1.4-.1.6v2ZM42.6,791.5v-1.9h-.7v-.6h.7v-1.2h.7v1.2h1.1v.6h-1.1v1.8c0,.3,0,.5.1.6,0,.1.2.2.4.2s.3,0,.3,0c0,0,.2-.1.3-.2l.3.4c-.2.1-.3.3-.5.3-.2,0-.4.1-.6.1-.4,0-.7-.1-.9-.3-.2-.2-.3-.6-.3-1ZM45.3,792.8v-5.3h.7v2.2c0,0,.1-.2.2-.3.1-.1.2-.2.4-.3.2,0,.4-.1.6-.1.5,0,.8.1,1.1.4.2.3.4.7.4,1.1v2.2h-.7v-2.2c0-.3,0-.6-.2-.8-.1-.2-.4-.2-.6-.2s-.5,0-.6.2c-.2.1-.3.3-.3.5,0,.2,0,.5,0,.7v1.7h-.7ZM52.7,791.8l.4.4c0,0-.1.1-.3.3-.1.1-.3.2-.5.3-.2,0-.5.1-.8.1s-.7,0-1-.2c-.3-.2-.5-.4-.7-.7-.2-.3-.2-.7-.2-1s0-.7.2-1c.2-.3.4-.5.7-.7.3-.2.6-.3,1-.3s.8.1,1,.3c.3.2.5.5.6.8.1.3.2.7.2,1.1h-2.9c0,.2,0,.4.2.6.1.2.3.3.4.4.2,0,.4.1.6.1.3,0,.6,0,.8-.2.2-.1.4-.2.4-.3ZM50.3,790.6h2.2c0-.3-.1-.5-.3-.7-.2-.2-.4-.3-.8-.3s-.4,0-.6.2c-.2.1-.3.2-.4.4,0,.2-.1.3-.1.5ZM56.2,792.8h-.7v-3.4h0c0-.2,0-.3,0-.4h.7v.6c0,0,.2-.2.3-.3.1-.1.2-.2.4-.3.2,0,.4-.1.6-.1s.2,0,.2,0c0,0,.1,0,.2,0l-.2.7c0,0-.2,0-.4,0s-.4,0-.6.2c-.2.1-.3.2-.4.4,0,.2-.1.4-.1.6v2ZM61.1,791.8l.4.4c0,0-.1.1-.3.3-.1.1-.3.2-.5.3-.2,0-.5.1-.8.1s-.7,0-1-.2c-.3-.2-.5-.4-.7-.7-.2-.3-.2-.7-.2-1s0-.7.2-1c.2-.3.4-.5.7-.7.3-.2.6-.3,1-.3s.8.1,1,.3c.3.2.5.5.6.8.1.3.2.7.2,1.1h-2.9c0,.2,0,.4.2.6.1.2.3.3.4.4.2,0,.4.1.6.1.3,0,.6,0,.8-.2.2-.1.4-.2.4-.3ZM58.7,790.6h2.2c0-.3-.1-.5-.3-.7-.2-.2-.4-.3-.8-.3s-.4,0-.6.2c-.2.1-.3.2-.4.4,0,.2-.1.3-.1.5ZM62.4,792.8v-5.3h.7v5.3h-.7ZM67.1,791.8l.4.4c0,0-.1.1-.3.3-.1.1-.3.2-.5.3-.2,0-.5.1-.8.1s-.7,0-1-.2c-.3-.2-.5-.4-.7-.7-.2-.3-.2-.7-.2-1s0-.7.2-1c.2-.3.4-.5.7-.7.3-.2.6-.3,1-.3s.8.1,1,.3.5.5.6.8c.1.3.2.7.2,1.1h-2.9c0,.2,0,.4.2.6.1.2.3.3.4.4.2,0,.4.1.6.1.3,0,.6,0,.8-.2.2-.1.4-.2.4-.3ZM64.7,790.6h2.2c0-.3-.1-.5-.3-.7-.2-.2-.4-.3-.8-.3s-.4,0-.6.2c-.2.1-.3.2-.4.4,0,.2-.1.3-.1.5ZM69.4,792.8l-1.6-3.7h.8l1.2,2.9,1.2-2.9h.8l-1.6,3.7h-.7ZM74.5,792.8v-.4c-.1.2-.3.3-.6.4-.2,0-.5.1-.7.1s-.4,0-.6-.1c-.2,0-.4-.2-.5-.4-.1-.2-.2-.4-.2-.7,0-.4.1-.7.4-1s.7-.4,1.2-.4.2,0,.4,0c.1,0,.2,0,.3,0,.1,0,.2,0,.2,0h0c0-.4,0-.6-.3-.7-.2-.1-.4-.2-.7-.2s-.5,0-.7.1c-.2,0-.3.2-.4.2l-.3-.5c.1-.1.3-.2.6-.3.2-.1.6-.2,1-.2s.9.1,1.1.4c.3.2.4.6.4,1v2.2h0c0,.2,0,.3,0,.3h-.7ZM74.4,791.4v-.4s0,0-.2,0c0,0-.2,0-.3,0-.1,0-.2,0-.3,0-.3,0-.5,0-.6.1-.1,0-.2.2-.3.3,0,.1,0,.2,0,.3,0,.2,0,.3.2.5.1.1.3.2.6.2s.4,0,.5-.1c.2,0,.3-.2.4-.3.1-.1.2-.3.2-.4ZM76.8,792.8h-.7v-3.3h0c0-.2,0-.3,0-.4h.7v.6c0,0,.2-.2.3-.3.1-.1.2-.2.4-.3.2,0,.4-.1.6-.1.5,0,.8.1,1.1.4.2.3.4.7.4,1.1v2.2h-.7v-2.2c0-.3,0-.6-.2-.8-.1-.2-.4-.2-.6-.2s-.5,0-.6.2c-.2.1-.3.3-.3.5,0,.2,0,.5,0,.7v1.7ZM80.8,791.5v-1.9h-.7v-.6h.7v-1.2h.7v1.2h1.1v.6h-1.1v1.8c0,.3,0,.5.1.6,0,.1.2.2.4.2s.3,0,.3,0c0,0,.2-.1.3-.2l.3.4c-.2.1-.3.3-.5.3-.2,0-.4.1-.6.1-.4,0-.7-.1-.9-.3-.2-.2-.3-.6-.3-1ZM85.1,792.8v-5.3h1.7c.4,0,.7,0,.9.2.2,0,.4.2.6.4.1.2.2.3.3.5,0,.2,0,.4,0,.6,0,.4,0,.7-.2.9-.2.2-.4.4-.6.5-.3.1-.6.2-.9.2h-1v2.1h-.8ZM85.9,790h1c.3,0,.6,0,.8-.3.2-.2.3-.4.3-.7s0-.5-.3-.7c-.2-.2-.4-.3-.8-.3h-1v1.9ZM89.6,792.8v-5.3h1.8c.6,0,1.1,0,1.5.3.4.2.8.5,1,.9.3.4.4.9.4,1.5s-.1,1.1-.4,1.5c-.2.4-.6.7-1,.9-.4.2-.9.3-1.5.3h-1.8ZM90.4,792.1h1c.7,0,1.2-.2,1.6-.5.4-.3.6-.8.6-1.5s-.2-1.1-.5-1.5c-.4-.3-.9-.5-1.6-.5h-1v4ZM95,792l.5-.5c.1.1.2.2.4.3s.3.2.5.3c.2,0,.4.1.6.1.4,0,.6,0,.8-.2.2-.2.3-.4.3-.6s-.1-.5-.3-.7c-.2-.1-.5-.3-1-.4-.5,0-.8-.3-1.1-.5-.3-.3-.4-.6-.4-1s0-.5.2-.7c.1-.2.3-.4.6-.5.3-.1.6-.2,1-.2s.6,0,.9.1c.2,0,.4.2.5.3.1.1.2.2.3.3l-.5.5c0,0-.1-.1-.2-.2-.1,0-.2-.2-.4-.2-.2,0-.3-.1-.6-.1s-.4,0-.6.1c-.1,0-.3.2-.3.3,0,.1-.1.2-.1.4,0,.3.1.5.3.6.2.1.5.2.9.3.3,0,.5.2.8.3.2.1.4.3.6.5.2.2.2.5.2.9s0,.6-.2.8c-.2.2-.4.4-.7.6-.3.1-.6.2-1,.2s-.6,0-.9-.1c-.3,0-.5-.2-.7-.4-.2-.2-.3-.3-.4-.4ZM11.8,799.8v-.4c-.1.2-.3.3-.6.4-.2,0-.5.1-.7.1s-.4,0-.6-.1c-.2,0-.4-.2-.5-.4-.1-.2-.2-.4-.2-.7,0-.4.1-.7.4-1,.3-.2.7-.4,1.2-.4s.2,0,.4,0c.1,0,.2,0,.3,0,.1,0,.2,0,.2,0h0c0-.4,0-.6-.3-.7-.2-.1-.4-.2-.7-.2s-.5,0-.7.1c-.2,0-.3.2-.4.2l-.3-.5c.1-.1.3-.2.6-.3.2-.1.6-.2,1-.2s.9.1,1.1.4c.3.2.4.6.4,1v2.2h0c0,.2,0,.3,0,.3h-.7ZM11.8,798.4v-.4s0,0-.2,0c0,0-.2,0-.3,0-.1,0-.2,0-.3,0-.3,0-.5,0-.6.1-.1,0-.2.2-.3.3,0,.1,0,.2,0,.3,0,.2,0,.3.2.5.1.1.3.2.6.2s.4,0,.5-.1c.2,0,.3-.2.4-.3.1-.1.2-.3.2-.4ZM14.2,799.8h-.7v-3.3h0c0-.2,0-.3,0-.4h.7v.6c0,0,.2-.2.3-.3.1-.1.2-.2.4-.3.2,0,.4-.1.6-.1.5,0,.8.1,1.1.4.2.3.4.7.4,1.1v2.2h-.7v-2.2c0-.3,0-.6-.2-.8-.1-.2-.4-.2-.6-.2s-.5,0-.6.2c-.2.1-.3.3-.3.5,0,.2,0,.5,0,.7v1.7ZM20.5,799.8v-.5c0,0-.1.1-.2.2,0,0-.2.2-.4.3-.2,0-.4.1-.6.1s-.6,0-.8-.2c-.3-.2-.4-.4-.6-.7-.1-.3-.2-.6-.2-1s0-.7.2-.9c.1-.3.3-.5.5-.6.2-.2.4-.3.6-.4.2,0,.4-.1.6-.1s.4,0,.5,0c.1,0,.3.1.4.2v-1.8h.7v5.1c0,0,0,.1,0,.2h-.7ZM20.5,798.2v-1.3c0,0-.2-.1-.4-.2-.1,0-.3,0-.5,0-.3,0-.6.1-.9.4-.2.2-.3.6-.3,1s0,.4.1.6c0,.2.2.4.4.5.2.1.4.2.6.2s.5,0,.6-.2c.2-.1.3-.3.3-.4,0-.2.1-.3.1-.5ZM25.3,799.8v-4.7h-1.9v-.7h4.6v.7h-1.9v4.7h-.8ZM28.6,799.8l.2-5.3h.7l1.6,2.8,1.6-2.8h.7l.2,5.3h-.8l-.2-4.1-1.5,2.5h-.4l-1.5-2.5-.2,4.1h-.7ZM35,799.8v-5.3h1.8c.6,0,1.1,0,1.5.3.4.2.8.5,1,.9.3.4.4.9.4,1.5s-.1,1.1-.4,1.5c-.2.4-.6.7-1,.9-.4.2-.9.3-1.5.3h-1.8ZM35.8,799.1h1c.7,0,1.2-.2,1.6-.5.4-.3.6-.8.6-1.5s-.2-1.1-.5-1.5c-.4-.3-.9-.5-1.6-.5h-1v4ZM44.3,799.8v-.4c-.1.2-.3.3-.6.4-.2,0-.5.1-.7.1s-.4,0-.6-.1c-.2,0-.4-.2-.5-.4-.1-.2-.2-.4-.2-.7,0-.4.1-.7.4-1s.7-.4,1.2-.4.2,0,.4,0c.1,0,.2,0,.3,0,.1,0,.2,0,.2,0h0c0-.4,0-.6-.3-.7-.2-.1-.4-.2-.7-.2s-.5,0-.7.1c-.2,0-.3.2-.4.2l-.3-.5c.1-.1.3-.2.6-.3.2-.1.6-.2,1-.2s.9.1,1.1.4c.3.2.4.6.4,1v2.2h0c0,.2,0,.3,0,.3h-.7ZM44.3,798.4v-.4s0,0-.2,0c0,0-.2,0-.3,0-.1,0-.2,0-.3,0-.3,0-.5,0-.6.1-.1,0-.2.2-.3.3,0,.1,0,.2,0,.3,0,.2,0,.3.2.5.1.1.3.2.6.2s.4,0,.5-.1c.2,0,.3-.2.4-.3.1-.1.2-.3.2-.4ZM47,799.8l-1.6-3.7h.8l1.2,2.9,1.2-2.9h.8l-1.6,3.7h-.7ZM52,799.8v-.4c-.1.2-.3.3-.6.4-.2,0-.5.1-.7.1s-.4,0-.6-.1c-.2,0-.4-.2-.5-.4-.1-.2-.2-.4-.2-.7,0-.4.1-.7.4-1s.7-.4,1.2-.4.2,0,.4,0c.1,0,.2,0,.3,0,.1,0,.2,0,.2,0h0c0-.4,0-.6-.3-.7-.2-.1-.4-.2-.7-.2s-.5,0-.7.1c-.2,0-.3.2-.4.2l-.3-.5c.1-.1.3-.2.6-.3.2-.1.6-.2,1-.2s.9.1,1.1.4c.3.2.4.6.4,1v2.2h0c0,.2,0,.3,0,.3h-.7ZM52,798.4v-.4s0,0-.2,0c0,0-.2,0-.3,0-.1,0-.2,0-.3,0-.3,0-.5,0-.6.1-.1,0-.2.2-.3.3,0,.1,0,.2,0,.3,0,.2,0,.3.2.5.1.1.3.2.6.2s.4,0,.5-.1c.2,0,.3-.2.4-.3.1-.1.2-.3.2-.4ZM53.7,795.4v-.8h.8v.8h-.8ZM53.7,799.8v-3.7h.7v3.7h-.7ZM55.4,799.8v-5.3h.7v5.3h-.7ZM59.5,799.8v-.4c-.1.2-.3.3-.6.4-.2,0-.5.1-.7.1s-.4,0-.6-.1c-.2,0-.4-.2-.5-.4-.1-.2-.2-.4-.2-.7,0-.4.1-.7.4-1,.3-.2.7-.4,1.2-.4s.2,0,.4,0c.1,0,.2,0,.3,0,.1,0,.2,0,.2,0h0c0-.4,0-.6-.3-.7-.2-.1-.4-.2-.7-.2s-.5,0-.7.1c-.2,0-.3.2-.4.2l-.3-.5c.1-.1.3-.2.6-.3.2-.1.6-.2,1-.2s.9.1,1.1.4c.3.2.4.6.4,1v2.2h0c0,.2,0,.3,0,.3h-.7ZM59.5,798.4v-.4s0,0-.2,0c0,0-.2,0-.3,0-.1,0-.2,0-.3,0-.3,0-.5,0-.6.1-.1,0-.2.2-.3.3,0,.1,0,.2,0,.3,0,.2,0,.3.2.5.1.1.3.2.6.2s.4,0,.5-.1c.2,0,.3-.2.4-.3.1-.1.2-.3.2-.4ZM61.1,799.6v-5.2h.7v2c0-.1.2-.2.4-.3.2-.1.4-.2.8-.2s.7,0,.9.3c.3.2.4.4.6.7.1.3.2.6.2,1s0,.7-.3,1c-.2.3-.4.5-.7.7-.3.2-.7.3-1.1.3s-.6,0-.8,0c-.3,0-.5-.1-.6-.2ZM61.9,797.7v1.5c0,0,.2,0,.3,0,.1,0,.3,0,.5,0,.4,0,.7-.1,1-.4.3-.3.4-.6.4-1s0-.4-.1-.6c0-.2-.2-.4-.3-.5-.2-.1-.4-.2-.6-.2s-.4,0-.6.2c-.2.1-.3.2-.4.4,0,.2-.1.3-.1.5ZM65.5,799.8v-5.3h.7v5.3h-.7ZM70.2,798.8l.4.4c0,0-.1.1-.3.3-.1.1-.3.2-.5.3-.2,0-.5.1-.8.1s-.7,0-1-.2c-.3-.2-.5-.4-.7-.7-.2-.3-.2-.7-.2-1s0-.7.2-1c.2-.3.4-.5.7-.7.3-.2.6-.3,1-.3s.8.1,1,.3c.3.2.5.5.6.8.1.3.2.7.2,1.1h-2.9c0,.2,0,.4.2.6.1.2.3.3.4.4.2,0,.4.1.6.1.3,0,.6,0,.8-.2.2-.1.4-.2.4-.3ZM67.8,797.6h2.2c0-.3-.1-.5-.3-.7-.2-.2-.4-.3-.8-.3s-.4,0-.6.2c-.2.1-.3.2-.4.4,0,.2-.1.3-.1.5ZM75.3,799.8v-.4c-.1.2-.3.3-.6.4-.2,0-.5.1-.7.1s-.4,0-.6-.1c-.2,0-.4-.2-.5-.4-.1-.2-.2-.4-.2-.7,0-.4.1-.7.4-1,.3-.2.7-.4,1.2-.4s.2,0,.4,0c.1,0,.2,0,.3,0,.1,0,.2,0,.2,0h0c0-.4,0-.6-.3-.7-.2-.1-.4-.2-.7-.2s-.5,0-.7.1c-.2,0-.3.2-.4.2l-.3-.5c.1-.1.3-.2.6-.3.2-.1.6-.2,1-.2s.9.1,1.1.4c.3.2.4.6.4,1v2.2h0c0,.2,0,.3,0,.3h-.7ZM75.3,798.4v-.4s0,0-.2,0c0,0-.2,0-.3,0-.1,0-.2,0-.3,0-.3,0-.5,0-.6.1-.1,0-.2.2-.3.3,0,.1,0,.2,0,.3,0,.2,0,.3.2.5.1.1.3.2.6.2s.4,0,.5-.1c.2,0,.3-.2.4-.3.1-.1.2-.3.2-.4ZM77.3,798.5v-1.9h-.7v-.6h.7v-1.2h.7v1.2h1.1v.6h-1.1v1.8c0,.3,0,.5.1.6,0,.1.2.2.4.2s.3,0,.3,0c0,0,.2-.1.3-.2l.3.4c-.2.1-.3.3-.5.3-.2,0-.4.1-.6.1-.4,0-.7-.1-.9-.3-.2-.2-.3-.6-.3-1ZM9.5,806.8v-5.3h.7v2.2c0,0,.1-.2.2-.3.1-.1.2-.2.4-.3.2,0,.4-.1.6-.1.5,0,.8.1,1.1.4.2.3.4.7.4,1.1v2.2h-.7v-2.2c0-.3,0-.6-.2-.8-.1-.2-.4-.2-.6-.2s-.5,0-.6.2c-.2.1-.3.3-.3.5,0,.2,0,.5,0,.7v1.7h-.7ZM15.6,806.9c-.4,0-.7,0-1-.3-.3-.2-.5-.4-.7-.7-.2-.3-.2-.6-.2-1s0-.7.2-1c.2-.3.4-.5.7-.7.3-.2.6-.3,1-.3s.7,0,1,.3c.3.2.5.4.7.7.2.3.3.6.3,1s0,.7-.3,1c-.2.3-.4.5-.7.7-.3.2-.6.3-1,.3ZM15.6,806.2c.3,0,.5,0,.7-.2.2-.1.3-.3.4-.5.1-.2.2-.4.2-.6s0-.4-.2-.6c0-.2-.2-.4-.4-.5-.2-.1-.4-.2-.7-.2s-.5,0-.7.2c-.2.1-.3.3-.4.5,0,.2-.1.4-.1.6s0,.4.2.6c.1.2.2.4.4.5.2.1.4.2.7.2ZM18.2,806.3l.4-.5c.1.1.3.2.5.3.2,0,.4.1.6.1s.4,0,.6-.1c.2,0,.2-.2.2-.4s0-.2,0-.3c0,0-.2-.1-.3-.2-.2,0-.4-.1-.6-.2-.2,0-.4-.1-.6-.2-.2,0-.3-.2-.4-.3-.1-.1-.2-.3-.2-.6s0-.4.2-.6c.1-.2.3-.3.6-.4.2,0,.5-.1.7-.1s.6,0,.8.1c.2,0,.4.2.6.3l-.4.5c-.1-.1-.3-.2-.4-.3-.2,0-.4-.1-.6-.1s-.4,0-.6.1c-.1,0-.2.2-.2.4s0,.3.3.4c.2,0,.4.1.7.2.2,0,.4.1.6.2.2,0,.3.2.5.4.1.1.2.3.2.6s0,.5-.2.6c-.1.2-.3.3-.6.4-.2,0-.5.1-.8.1-.7,0-1.2-.2-1.6-.6ZM22.5,805.5v-1.9h-.7v-.6h.7v-1.2h.7v1.2h1.1v.6h-1.1v1.8c0,.3,0,.5.1.6,0,.1.2.2.4.2s.3,0,.3,0c0,0,.2-.1.3-.2l.3.4c-.2.1-.3.3-.5.3-.2,0-.4.1-.6.1-.4,0-.7-.1-.9-.3-.2-.2-.3-.6-.3-1ZM26,808.4h-.7v-4.9h0c0-.2,0-.3,0-.4h.7v.5c0,0,.2-.1.3-.2.1,0,.2-.2.4-.3.2,0,.4-.1.6-.1.4,0,.7,0,.9.3.3.2.4.4.6.7.1.3.2.6.2,1s0,.6-.2.9c-.1.2-.3.4-.4.6-.2.2-.4.3-.6.4-.2,0-.4.1-.7.1s-.5,0-.6,0c-.1,0-.3-.1-.4-.2v1.7ZM26,805v1c0,0,.2.1.4.2.2,0,.4,0,.6,0s.5,0,.6-.2c.2-.1.3-.3.4-.5.1-.2.2-.4.2-.7s0-.5-.1-.7c0-.2-.2-.4-.3-.5-.2-.1-.4-.2-.6-.2s-.5,0-.7.2c-.2.1-.3.3-.4.6,0,0,0,.2,0,.3,0,0,0,.2,0,.3ZM29.7,806.8v-5.3h.7v5.3h-.7ZM31.4,805.3v-2.2h.7v2.2c0,.3,0,.6.2.8.1.2.4.2.6.2s.5,0,.6-.2c.2-.1.3-.3.3-.5,0-.2.1-.5.1-.7v-1.7h.7v3.5c0,0,0,.1,0,.2h-.7v-.6c0,0-.2.2-.3.3-.1,0-.2.2-.4.2-.2,0-.4.1-.6.1-.5,0-.8-.1-1.1-.4-.2-.3-.3-.7-.3-1.1ZM35.6,806.3l.4-.5c.1.1.3.2.5.3.2,0,.4.1.6.1s.4,0,.6-.1c.2,0,.2-.2.2-.4s0-.2,0-.3c0,0-.2-.1-.3-.2-.2,0-.4-.1-.6-.2-.2,0-.4-.1-.6-.2-.2,0-.3-.2-.4-.3-.1-.1-.2-.3-.2-.6s0-.4.2-.6c.1-.2.3-.3.6-.4.2,0,.5-.1.7-.1s.6,0,.8.1c.2,0,.4.2.6.3l-.4.5c-.1-.1-.3-.2-.4-.3-.2,0-.4-.1-.6-.1s-.4,0-.6.1c-.1,0-.2.2-.2.4s0,.3.3.4c.2,0,.4.1.7.2.2,0,.4.1.6.2.2,0,.3.2.5.4.1.1.2.3.2.6s0,.5-.2.6c-.1.2-.3.3-.6.4-.2,0-.5.1-.8.1-.7,0-1.2-.2-1.6-.6ZM39.4,806.8v-.9h.9v.9h-.9ZM43.9,805.8l.4.5c-.2.2-.4.3-.6.5-.2.1-.5.2-.8.2s-.7,0-1-.3c-.3-.2-.5-.4-.7-.7-.2-.3-.2-.6-.2-1s0-.7.2-1c.2-.3.4-.5.7-.7.3-.2.6-.3,1-.3s.6,0,.8.2c.2.1.4.3.6.5l-.5.5c-.1-.1-.2-.2-.4-.3s-.3-.1-.6-.1-.5,0-.7.2c-.2.1-.3.3-.4.5,0,.2-.1.4-.1.7s0,.4.1.7c.1.2.2.4.4.5.2.1.4.2.7.2s.4,0,.6-.1c.2,0,.3-.2.4-.3ZM46.6,806.9c-.4,0-.7,0-1-.3-.3-.2-.5-.4-.7-.7-.2-.3-.2-.6-.2-1s0-.7.2-1c.2-.3.4-.5.7-.7.3-.2.6-.3,1-.3s.7,0,1,.3c.3.2.5.4.7.7.2.3.3.6.3,1s0,.7-.3,1c-.2.3-.4.5-.7.7-.3.2-.6.3-1,.3ZM46.6,806.2c.3,0,.5,0,.7-.2.2-.1.3-.3.4-.5.1-.2.2-.4.2-.6s0-.4-.2-.6c0-.2-.2-.4-.4-.5-.2-.1-.4-.2-.7-.2s-.5,0-.7.2c-.2.1-.3.3-.4.5,0,.2-.1.4-.1.6s0,.4.2.6c.1.2.2.4.4.5.2.1.4.2.7.2ZM50.1,806.8h-.7v-3.3h0c0-.2,0-.3,0-.4h.7v.6c0,0,.2-.2.3-.3.1-.1.2-.2.4-.3.2,0,.4-.1.6-.1s.5,0,.7.2c.2.1.3.3.4.5.1-.2.3-.3.6-.5.2-.1.5-.2.8-.2.5,0,.8.1,1.1.4.2.3.3.7.3,1.1v2.2h-.7v-2.2c0-.7-.3-1-.8-1s-.4,0-.5.2c-.2.1-.3.2-.4.4,0,.2-.1.3-.1.6v2.1h-.7v-2.2c0-.3,0-.6-.2-.8-.1-.2-.3-.2-.6-.2s-.5,0-.6.2-.3.3-.3.6c0,.2,0,.4,0,.7v1.7ZM56.2,806.8v-.9h.9v.9h-.9ZM60.6,806.8v-.4c-.1.2-.3.3-.6.4-.2,0-.5.1-.7.1s-.4,0-.6-.1c-.2,0-.4-.2-.5-.4-.1-.2-.2-.4-.2-.7,0-.4.1-.7.4-1,.3-.2.7-.4,1.2-.4s.2,0,.4,0c.1,0,.2,0,.3,0,.1,0,.2,0,.2,0h0c0-.4,0-.6-.3-.7-.2-.1-.4-.2-.7-.2s-.5,0-.7.1c-.2,0-.3.2-.4.2l-.3-.5c.1-.1.3-.2.6-.3.2-.1.6-.2,1-.2s.9.1,1.1.4c.3.2.4.6.4,1v2.2h0c0,.2,0,.3,0,.3h-.7ZM60.5,805.4v-.4s0,0-.2,0c0,0-.2,0-.3,0-.1,0-.2,0-.3,0-.3,0-.5,0-.6.1-.1,0-.2.2-.3.3,0,.1,0,.2,0,.3,0,.2,0,.3.2.5.1.1.3.2.6.2s.4,0,.5-.1c.2,0,.3-.2.4-.3.1-.1.2-.3.2-.4ZM62.2,805.3v-2.2h.7v2.2c0,.3,0,.6.2.8.1.2.4.2.6.2s.5,0,.6-.2c.2-.1.3-.3.3-.5,0-.2.1-.5.1-.7v-1.7h.7v3.5c0,0,0,.1,0,.2h-.7v-.6c0,0-.2.2-.3.3-.1,0-.2.2-.4.2-.2,0-.4.1-.6.1-.5,0-.8-.1-1.1-.4-.2-.3-.3-.7-.3-1.1ZM68,806.6v-5.2h.7v2c0-.1.2-.2.4-.3.2-.1.4-.2.8-.2s.7,0,.9.3c.3.2.4.4.6.7.1.3.2.6.2,1s0,.7-.3,1c-.2.3-.4.5-.7.7-.3.2-.7.3-1.1.3s-.6,0-.8,0c-.3,0-.5-.1-.6-.2ZM68.7,804.7v1.5c0,0,.2,0,.3,0,.1,0,.3,0,.5,0,.4,0,.7-.1,1-.4.3-.3.4-.6.4-1s0-.4-.1-.6c0-.2-.2-.4-.3-.5-.2-.1-.4-.2-.6-.2s-.4,0-.6.2c-.2.1-.3.2-.4.4,0,.2-.1.3-.1.5ZM75.4,805.8l.4.4c0,0-.1.1-.3.3-.1.1-.3.2-.5.3-.2,0-.5.1-.8.1s-.7,0-1-.2c-.3-.2-.5-.4-.7-.7-.2-.3-.2-.7-.2-1s0-.7.2-1c.2-.3.4-.5.7-.7.3-.2.6-.3,1-.3s.8.1,1,.3c.3.2.5.5.6.8.1.3.2.7.2,1.1h-2.9c0,.2,0,.4.2.6.1.2.3.3.4.4.2,0,.4.1.6.1.3,0,.6,0,.8-.2.2-.1.4-.2.4-.3ZM72.9,804.6h2.2c0-.3-.1-.5-.3-.7-.2-.2-.4-.3-.8-.3s-.4,0-.6.2c-.2.1-.3.2-.4.4,0,.2-.1.3-.1.5ZM76.9,806.8v-3.1h-.7v-.6h.7v-.3c0-.3,0-.6.2-.8.1-.2.3-.4.5-.5.2-.1.4-.2.6-.2s.4,0,.6,0c.2,0,.4.2.5.3l-.4.5c-.2-.2-.4-.2-.6-.2s-.4,0-.5.2c-.1.1-.2.4-.2.7v.2h1.1v.6h-1.1v3.1h-.7ZM80.9,806.9c-.4,0-.7,0-1-.3-.3-.2-.5-.4-.7-.7-.2-.3-.2-.6-.2-1s0-.7.2-1c.2-.3.4-.5.7-.7.3-.2.6-.3,1-.3s.7,0,1,.3c.3.2.5.4.7.7.2.3.3.6.3,1s0,.7-.3,1c-.2.3-.4.5-.7.7-.3.2-.6.3-1,.3ZM80.9,806.2c.3,0,.5,0,.7-.2.2-.1.3-.3.4-.5.1-.2.2-.4.2-.6s0-.4-.2-.6c0-.2-.2-.4-.4-.5-.2-.1-.4-.2-.7-.2s-.5,0-.7.2c-.2.1-.3.3-.4.5,0,.2-.1.4-.1.6s0,.4.2.6c.1.2.2.4.4.5.2.1.4.2.7.2ZM84.4,806.8h-.7v-3.4h0c0-.2,0-.3,0-.4h.7v.6c0,0,.2-.2.3-.3.1-.1.2-.2.4-.3.2,0,.4-.1.6-.1s.2,0,.2,0c0,0,.1,0,.2,0l-.2.7c0,0-.2,0-.4,0s-.4,0-.6.2c-.2.1-.3.2-.4.4,0,.2-.1.4-.1.6v2ZM89.4,805.8l.4.4c0,0-.1.1-.3.3-.1.1-.3.2-.5.3-.2,0-.5.1-.8.1s-.7,0-1-.2c-.3-.2-.5-.4-.7-.7-.2-.3-.2-.7-.2-1s0-.7.2-1c.2-.3.4-.5.7-.7.3-.2.6-.3,1-.3s.8.1,1,.3c.3.2.5.5.6.8.1.3.2.7.2,1.1h-2.9c0,.2,0,.4.2.6.1.2.3.3.4.4.2,0,.4.1.6.1.3,0,.6,0,.8-.2.2-.1.4-.2.4-.3ZM87,804.6h2.2c0-.3-.1-.5-.3-.7-.2-.2-.4-.3-.8-.3s-.4,0-.6.2c-.2.1-.3.2-.4.4,0,.2-.1.3-.1.5ZM10.2,813.8h-.7v-3.3h0c0-.2,0-.3,0-.4h.7v.6c0,0,.2-.2.3-.3.1-.1.2-.2.4-.3.2,0,.4-.1.6-.1s.5,0,.7.2c.2.1.3.3.4.5.1-.2.3-.3.6-.5.2-.1.5-.2.8-.2.5,0,.8.1,1.1.4.2.3.3.7.3,1.1v2.2h-.7v-2.2c0-.7-.3-1-.8-1s-.4,0-.5.2c-.2.1-.3.2-.4.4,0,.2-.1.3-.1.6v2.1h-.7v-2.2c0-.3,0-.6-.2-.8-.1-.2-.3-.2-.6-.2s-.5,0-.6.2c-.2.1-.3.3-.3.6,0,.2,0,.4,0,.7v1.7ZM18.6,813.8v-.4c-.1.2-.3.3-.6.4-.2,0-.5.1-.7.1s-.4,0-.6-.1c-.2,0-.4-.2-.5-.4-.1-.2-.2-.4-.2-.7,0-.4.1-.7.4-1,.3-.2.7-.4,1.2-.4s.2,0,.4,0c.1,0,.2,0,.3,0,.1,0,.2,0,.2,0h0c0-.4,0-.6-.3-.7-.2-.1-.4-.2-.7-.2s-.5,0-.7.1c-.2,0-.3.2-.4.2l-.3-.5c.1-.1.3-.2.6-.3.2-.1.6-.2,1-.2s.9.1,1.1.4c.3.2.4.6.4,1v2.2h0c0,.2,0,.3,0,.3h-.7ZM18.6,812.4v-.4s0,0-.2,0c0,0-.2,0-.3,0-.1,0-.2,0-.3,0-.3,0-.5,0-.6.1-.1,0-.2.2-.3.3,0,.1,0,.2,0,.3,0,.2,0,.3.2.5.1.1.3.2.6.2s.4,0,.5-.1c.2,0,.3-.2.4-.3.1-.1.2-.3.2-.4ZM20.3,813.8v-5.3h.7v3.1l1.6-1.5h.9l-1.4,1.4,1.6,2.3h-.9l-1.3-1.9-.5.5v1.4h-.7ZM24.2,809.4v-.8h.8v.8h-.8ZM24.2,813.8v-3.7h.7v3.7h-.7ZM26.7,813.8h-.7v-3.3h0c0-.2,0-.3,0-.4h.7v.6c0,0,.2-.2.3-.3.1-.1.2-.2.4-.3.2,0,.4-.1.6-.1.5,0,.8.1,1.1.4.2.3.4.7.4,1.1v2.2h-.7v-2.2c0-.3,0-.6-.2-.8-.1-.2-.4-.2-.6-.2s-.5,0-.6.2c-.2.1-.3.3-.3.5,0,.2,0,.5,0,.7v1.7ZM30.5,815l.3-.5c.1,0,.3.2.4.2.2,0,.4,0,.7,0s.6,0,.8-.3c.2-.2.3-.5.3-.8v-.5s-.1.1-.2.2c0,0-.2.1-.4.2-.1,0-.3,0-.6,0-.4,0-.7,0-.9-.2-.3-.2-.4-.4-.6-.7-.1-.3-.2-.6-.2-1s0-.7.3-1c.2-.3.4-.5.7-.7.3-.2.7-.3,1.1-.3s.6,0,.8,0c.3,0,.5.1.6.2v3.6c0,.5-.2.9-.5,1.2-.3.3-.8.4-1.3.4s-.7,0-.9-.1c-.2,0-.4-.2-.5-.3ZM33,812.2v-1.5s-.1,0-.2,0c-.1,0-.3,0-.5,0s-.5,0-.7.2c-.2.1-.4.3-.5.5-.1.2-.2.4-.2.7s0,.4.1.6c0,.2.2.3.4.4s.4.2.6.2.4,0,.6-.1c.2,0,.3-.2.3-.3,0-.1.1-.3.1-.4ZM38.5,813.8v-.4c-.1.2-.3.3-.6.4-.2,0-.5.1-.7.1s-.4,0-.6-.1c-.2,0-.4-.2-.5-.4-.1-.2-.2-.4-.2-.7,0-.4.1-.7.4-1,.3-.2.7-.4,1.2-.4s.2,0,.4,0c.1,0,.2,0,.3,0,.1,0,.2,0,.2,0h0c0-.4,0-.6-.3-.7-.2-.1-.4-.2-.7-.2s-.5,0-.7.1c-.2,0-.3.2-.4.2l-.3-.5c.1-.1.3-.2.6-.3.2-.1.6-.2,1-.2s.9.1,1.1.4c.3.2.4.6.4,1v2.2h0c0,.2,0,.3,0,.3h-.7ZM38.5,812.4v-.4s0,0-.2,0c0,0-.2,0-.3,0-.1,0-.2,0-.3,0-.3,0-.5,0-.6.1-.1,0-.2.2-.3.3,0,.1,0,.2,0,.3,0,.2,0,.3.2.5.1.1.3.2.6.2s.4,0,.5-.1c.2,0,.3-.2.4-.3.1-.1.2-.3.2-.4ZM44.3,813.8v-.5c0,0-.1.1-.2.2,0,0-.2.2-.4.3-.2,0-.4.1-.6.1s-.6,0-.8-.2c-.3-.2-.4-.4-.6-.7-.1-.3-.2-.6-.2-1s0-.7.2-.9c.1-.3.3-.5.5-.6.2-.2.4-.3.6-.4.2,0,.4-.1.6-.1s.4,0,.5,0c.1,0,.3.1.4.2v-1.8h.7v5.1c0,0,0,.1,0,.2h-.7ZM44.3,812.2v-1.3c0,0-.2-.1-.4-.2-.1,0-.3,0-.5,0-.3,0-.6.1-.9.4-.2.2-.3.6-.3,1s0,.4.1.6c0,.2.2.4.4.5.2.1.4.2.6.2s.5,0,.6-.2c.2-.1.3-.3.3-.4,0-.2.1-.3.1-.5ZM49,812.8l.4.4c0,0-.1.1-.3.3-.1.1-.3.2-.5.3-.2,0-.5.1-.8.1s-.7,0-1-.2c-.3-.2-.5-.4-.7-.7-.2-.3-.2-.7-.2-1s0-.7.2-1c.2-.3.4-.5.7-.7.3-.2.6-.3,1-.3s.8.1,1,.3c.3.2.5.5.6.8.1.3.2.7.2,1.1h-2.9c0,.2,0,.4.2.6.1.2.3.3.4.4.2,0,.4.1.6.1.3,0,.6,0,.8-.2.2-.1.4-.2.4-.3ZM46.5,811.6h2.2c0-.3-.1-.5-.3-.7-.2-.2-.4-.3-.8-.3s-.4,0-.6.2c-.2.1-.3.2-.4.4,0,.2-.1.3-.1.5ZM53.1,812.8l.4.5c-.2.2-.4.3-.6.5-.2.1-.5.2-.8.2s-.7,0-1-.3c-.3-.2-.5-.4-.7-.7-.2-.3-.2-.6-.2-1s0-.7.2-1c.2-.3.4-.5.7-.7.3-.2.6-.3,1-.3s.6,0,.8.2c.2.1.4.3.6.5l-.5.5c-.1-.1-.2-.2-.4-.3s-.3-.1-.6-.1-.5,0-.7.2c-.2.1-.3.3-.4.5,0,.2-.1.4-.1.7s0,.4.1.7c.1.2.2.4.4.5.2.1.4.2.7.2s.4,0,.6-.1c.2,0,.3-.2.4-.3ZM54.2,809.4v-.8h.8v.8h-.8ZM54.2,813.8v-3.7h.7v3.7h-.7ZM55.8,813.3l.4-.5c.1.1.3.2.5.3.2,0,.4.1.6.1s.4,0,.6-.1c.2,0,.2-.2.2-.4s0-.2,0-.3c0,0-.2-.1-.3-.2-.2,0-.4-.1-.6-.2-.2,0-.4-.1-.6-.2-.2,0-.3-.2-.4-.3-.1-.1-.2-.3-.2-.6s0-.4.2-.6c.1-.2.3-.3.6-.4.2,0,.5-.1.7-.1s.6,0,.8.1c.2,0,.4.2.6.3l-.4.5c-.1-.1-.3-.2-.4-.3-.2,0-.4-.1-.6-.1s-.4,0-.6.1c-.1,0-.2.2-.2.4s0,.3.3.4c.2,0,.4.1.7.2.2,0,.4.1.6.2.2,0,.3.2.5.4.1.1.2.3.2.6s0,.5-.2.6c-.1.2-.3.3-.6.4-.2,0-.5.1-.8.1-.7,0-1.2-.2-1.6-.6ZM59.7,809.4v-.8h.8v.8h-.8ZM59.8,813.8v-3.7h.7v3.7h-.7ZM63.3,813.9c-.4,0-.7,0-1-.3-.3-.2-.5-.4-.7-.7-.2-.3-.2-.6-.2-1s0-.7.2-1c.2-.3.4-.5.7-.7.3-.2.6-.3,1-.3s.7,0,1,.3c.3.2.5.4.7.7.2.3.3.6.3,1s0,.7-.3,1c-.2.3-.4.5-.7.7-.3.2-.6.3-1,.3ZM63.3,813.2c.3,0,.5,0,.7-.2.2-.1.3-.3.4-.5.1-.2.2-.4.2-.6s0-.4-.2-.6c0-.2-.2-.4-.4-.5-.2-.1-.4-.2-.7-.2s-.5,0-.7.2c-.2.1-.3.3-.4.5,0,.2-.1.4-.1.6s0,.4.2.6c.1.2.2.4.4.5.2.1.4.2.7.2ZM66.8,813.8h-.7v-3.3h0c0-.2,0-.3,0-.4h.7v.6c0,0,.2-.2.3-.3.1-.1.2-.2.4-.3.2,0,.4-.1.6-.1.5,0,.8.1,1.1.4.2.3.4.7.4,1.1v2.2h-.7v-2.2c0-.3,0-.6-.2-.8-.1-.2-.4-.2-.6-.2s-.5,0-.6.2c-.2.1-.3.3-.3.5,0,.2,0,.5,0,.7v1.7ZM70.5,813.8v-.9h.9v.9h-.9Z" fill="#99a9bb" stroke-width="0"/>
</svg>