<svg width="96" height="25" viewBox="0 0 96 25" fill="none" xmlns="http://www.w3.org/2000/svg">
<rect width="95.2825" height="24.335" rx="3.445" fill="white"/>
<path d="M6.88965 17.002H15.5021" stroke="#DC1928" stroke-width="0.828815" stroke-linecap="round"/>
<path d="M7.09668 12.582L11.1957 15.2434L15.3848 12.582" stroke="#DC1928" stroke-width="0.828815" stroke-linecap="round"/>
<path d="M11.1885 7.33398V15.2434" stroke="#DC1928" stroke-width="0.828815" stroke-linecap="round"/>
<path d="M22.9326 8.06797H25.5726C27.5526 8.06797 29.0126 9.26797 29.0126 11.618C29.0126 13.958 27.5526 15.168 25.5726 15.168H22.9326V8.06797ZM25.4526 9.08797H24.1626V14.148H25.4526C26.9126 14.148 27.7526 13.378 27.7526 11.618C27.7526 9.85797 26.9126 9.08797 25.4526 9.08797ZM29.6971 12.568C29.6971 10.918 30.6871 9.84797 32.1671 9.84797C33.6371 9.84797 34.6371 10.918 34.6371 12.568C34.6371 14.218 33.6371 15.288 32.1671 15.288C30.6871 15.288 29.6971 14.218 29.6971 12.568ZM33.4371 12.348C33.4371 11.358 32.9271 10.788 32.1671 10.788C31.3971 10.788 30.8971 11.358 30.8971 12.348V12.778C30.8971 13.768 31.3971 14.348 32.1671 14.348C32.9271 14.348 33.4371 13.768 33.4371 12.778V12.348ZM40.8794 15.168H39.6194L38.6194 11.718L37.6694 15.168H36.3494L34.9194 9.96797H36.0894L37.0594 13.748L38.0994 9.96797H39.1294L40.2294 13.748L41.1894 9.96797H42.2994L40.8794 15.168ZM44.0669 11.958V15.168H42.8869V9.96797H44.0669V10.578H44.1069C44.4469 10.128 44.8769 9.84797 45.5669 9.84797C46.5969 9.84797 47.2569 10.608 47.2569 11.778V15.168H46.0769V11.878C46.0769 11.278 45.8169 10.848 45.1369 10.848C44.4369 10.848 44.0669 11.348 44.0669 11.958ZM49.8689 15.168C48.9289 15.168 48.3889 14.628 48.3889 13.778V7.76797H49.5689V13.678C49.5689 14.018 49.6989 14.218 50.0689 14.218H50.4189V15.168H49.8689ZM50.9854 12.568C50.9854 10.918 51.9754 9.84797 53.4554 9.84797C54.9254 9.84797 55.9254 10.918 55.9254 12.568C55.9254 14.218 54.9254 15.288 53.4554 15.288C51.9754 15.288 50.9854 14.218 50.9854 12.568ZM54.7254 12.348C54.7254 11.358 54.2154 10.788 53.4554 10.788C52.6854 10.788 52.1854 11.358 52.1854 12.348V12.778C52.1854 13.768 52.6854 14.348 53.4554 14.348C54.2154 14.348 54.7254 13.768 54.7254 12.778V12.348ZM59.7567 14.478C59.4867 14.938 58.9667 15.288 58.2167 15.288C57.2367 15.288 56.5567 14.698 56.5567 13.738C56.5567 12.718 57.3267 12.328 58.1667 12.218L59.2567 12.078C59.6767 12.028 59.7667 11.858 59.7667 11.528C59.7667 11.058 59.4867 10.718 58.8567 10.718C58.2267 10.718 57.9067 11.068 57.8667 11.568H56.6567C56.6867 10.698 57.4167 9.84797 58.8267 9.84797C60.1767 9.84797 60.9467 10.638 60.9467 11.788V14.278C60.9467 14.598 60.9967 14.918 61.0467 15.168H59.8367C59.8067 14.968 59.7867 14.748 59.7867 14.478H59.7567ZM59.7767 12.478C59.6067 12.638 59.3867 12.718 59.1167 12.768L58.5967 12.888C58.0667 12.998 57.7467 13.208 57.7467 13.688C57.7467 14.178 58.0367 14.428 58.5767 14.428C59.2267 14.428 59.7767 13.988 59.7767 13.298V12.478ZM65.4953 14.468C65.2053 14.948 64.6253 15.288 63.9453 15.288C62.6953 15.288 61.8053 14.218 61.8053 12.568C61.8053 10.918 62.6953 9.84797 63.9453 9.84797C64.6253 9.84797 65.2053 10.188 65.4953 10.668H65.5353V7.76797H66.7153V15.168H65.5353V14.468H65.4953ZM63.0053 12.768C63.0053 13.788 63.4753 14.348 64.2753 14.348C65.0153 14.348 65.5353 13.758 65.5353 12.838V12.298C65.5353 11.378 65.0153 10.788 64.2753 10.788C63.4753 10.788 63.0053 11.358 63.0053 12.378V12.768ZM70.9505 11.958V15.168H69.7705V9.96797H70.9505V10.578H70.9905C71.3305 10.128 71.7605 9.84797 72.4505 9.84797C73.4805 9.84797 74.1405 10.608 74.1405 11.778V15.168H72.9605V11.878C72.9605 11.278 72.7005 10.848 72.0205 10.848C71.3205 10.848 70.9505 11.348 70.9505 11.958ZM75.0225 12.568C75.0225 10.918 76.0125 9.84797 77.4925 9.84797C78.9625 9.84797 79.9625 10.918 79.9625 12.568C79.9625 14.218 78.9625 15.288 77.4925 15.288C76.0125 15.288 75.0225 14.218 75.0225 12.568ZM78.7625 12.348C78.7625 11.358 78.2525 10.788 77.4925 10.788C76.7225 10.788 76.2225 11.358 76.2225 12.348V12.778C76.2225 13.768 76.7225 14.348 77.4925 14.348C78.2525 14.348 78.7625 13.768 78.7625 12.778V12.348ZM86.2048 15.168H84.9448L83.9448 11.718L82.9948 15.168H81.6748L80.2448 9.96797H81.4148L82.3848 13.748L83.4248 9.96797H84.4548L85.5548 13.748L86.5148 9.96797H87.6248L86.2048 15.168Z" fill="#DC1928"/>
</svg>
