<svg width="212" height="17" viewBox="0 0 212 17" fill="none" xmlns="http://www.w3.org/2000/svg">
<path d="M0.564903 16L6.15845 0.771842H10.7931L16.1812 16H11.8205L10.8388 12.8493H5.7475L4.74294 16H0.564903ZM6.56941 9.90417H10.0169L8.32738 4.31062L6.56941 9.90417ZM25.5429 16V4.31062H20.8626V0.771842H34.2643V4.31062H29.6296V16H25.5429ZM42.7272 16.3653C41.5856 16.3653 40.5278 16.1674 39.5537 15.7717C38.5948 15.376 37.7577 14.8204 37.0423 14.105C36.3422 13.3745 35.7942 12.5221 35.3985 11.548C35.0028 10.5739 34.8049 9.50844 34.8049 8.35168C34.8049 7.19491 35.0028 6.12948 35.3985 5.15536C35.7942 4.18124 36.3422 3.3365 37.0423 2.62114C37.7577 1.90577 38.5948 1.35022 39.5537 0.954489C40.5278 0.558754 41.5856 0.360887 42.7272 0.360887C43.8687 0.360887 44.9189 0.558754 45.8778 0.954489C46.852 1.35022 47.6967 1.90577 48.4121 2.62114C49.1274 3.3365 49.6754 4.18124 50.0559 5.15536C50.4516 6.12948 50.6495 7.19491 50.6495 8.35168C50.6495 9.50844 50.4516 10.5739 50.0559 11.548C49.6754 12.5221 49.1274 13.3745 48.4121 14.105C47.6967 14.8204 46.852 15.376 45.8778 15.7717C44.9189 16.1674 43.8687 16.3653 42.7272 16.3653ZM42.7272 12.5754C43.5339 12.5754 44.2112 12.3851 44.7591 12.0046C45.3223 11.6241 45.7485 11.1142 46.0377 10.4749C46.3268 9.83568 46.4714 9.12792 46.4714 8.35168C46.4714 7.57543 46.3268 6.86767 46.0377 6.22841C45.7485 5.58915 45.3223 5.07926 44.7591 4.69874C44.2112 4.31823 43.5339 4.12797 42.7272 4.12797C41.9357 4.12797 41.2584 4.31823 40.6952 4.69874C40.1473 5.07926 39.7211 5.58915 39.4167 6.22841C39.1275 6.86767 38.9829 7.57543 38.9829 8.35168C38.9829 9.12792 39.1275 9.83568 39.4167 10.4749C39.7211 11.1142 40.1473 11.6241 40.6952 12.0046C41.2584 12.3851 41.9357 12.5754 42.7272 12.5754ZM52.7892 16V0.771842H58.9991C60.6277 0.771842 61.9367 1.20563 62.926 2.0732C63.9154 2.92555 64.41 4.17363 64.41 5.81745C64.41 6.85245 64.1817 7.75807 63.7251 8.53432C63.2685 9.29535 62.6445 9.88895 61.853 10.3151C61.0615 10.7261 60.1483 10.9316 59.1133 10.9316H56.7389V16H52.7892ZM56.7389 7.75807H58.6567C59.2046 7.75807 59.6384 7.58304 59.958 7.23297C60.2777 6.88289 60.4375 6.43389 60.4375 5.88595C60.4375 5.30757 60.2853 4.84334 59.9809 4.49327C59.6765 4.14319 59.2274 3.96816 58.6338 3.96816H56.7389V7.75807ZM70.5366 16V0.771842H76.7465C78.3751 0.771842 79.6841 1.20563 80.6734 2.0732C81.6628 2.92555 82.1574 4.17363 82.1574 5.81745C82.1574 6.85245 81.9291 7.75807 81.4725 8.53432C81.0159 9.29535 80.3919 9.88895 79.6004 10.3151C78.8089 10.7261 77.8957 10.9316 76.8607 10.9316H74.4863V16H70.5366ZM74.4863 7.75807H76.4041C76.952 7.75807 77.3858 7.58304 77.7054 7.23297C78.0251 6.88289 78.1849 6.43389 78.1849 5.88595C78.1849 5.30757 78.0327 4.84334 77.7283 4.49327C77.4238 4.14319 76.9748 3.96816 76.3812 3.96816H74.4863V7.75807ZM84.1592 16V0.771842H95.118V4.26496H88.2003V6.61653H93.8852V9.90417H88.2003V12.5069H95.5975V16H84.1592ZM97.6927 16V0.771842H103.994C105.623 0.771842 106.932 1.19802 107.921 2.05037C108.91 2.8875 109.405 4.12797 109.405 5.77179C109.405 6.76113 109.184 7.6287 108.743 8.37451C108.301 9.12031 107.715 9.71391 106.985 10.1553L110.25 16H105.912L103.332 10.8174H101.642V16H97.6927ZM101.642 7.64392H103.606C104.139 7.64392 104.572 7.4841 104.907 7.16447C105.242 6.82962 105.41 6.38822 105.41 5.84028C105.41 5.2619 105.25 4.80529 104.93 4.47044C104.61 4.13558 104.161 3.96816 103.583 3.96816H101.642V7.64392ZM112.029 16V0.771842H122.645V4.31062H116.07V7.2558H121.161V10.5891H116.07V16H112.029ZM131.219 16.3653C130.077 16.3653 129.02 16.1674 128.045 15.7717C127.087 15.376 126.249 14.8204 125.534 14.105C124.834 13.3745 124.286 12.5221 123.89 11.548C123.494 10.5739 123.297 9.50844 123.297 8.35168C123.297 7.19491 123.494 6.12948 123.89 5.15536C124.286 4.18124 124.834 3.3365 125.534 2.62114C126.249 1.90577 127.087 1.35022 128.045 0.954489C129.02 0.558754 130.077 0.360887 131.219 0.360887C132.36 0.360887 133.411 0.558754 134.37 0.954489C135.344 1.35022 136.188 1.90577 136.904 2.62114C137.619 3.3365 138.167 4.18124 138.548 5.15536C138.943 6.12948 139.141 7.19491 139.141 8.35168C139.141 9.50844 138.943 10.5739 138.548 11.548C138.167 12.5221 137.619 13.3745 136.904 14.105C136.188 14.8204 135.344 15.376 134.37 15.7717C133.411 16.1674 132.36 16.3653 131.219 16.3653ZM131.219 12.5754C132.026 12.5754 132.703 12.3851 133.251 12.0046C133.814 11.6241 134.24 11.1142 134.529 10.4749C134.819 9.83568 134.963 9.12792 134.963 8.35168C134.963 7.57543 134.819 6.86767 134.529 6.22841C134.24 5.58915 133.814 5.07926 133.251 4.69874C132.703 4.31823 132.026 4.12797 131.219 4.12797C130.427 4.12797 129.75 4.31823 129.187 4.69874C128.639 5.07926 128.213 5.58915 127.908 6.22841C127.619 6.86767 127.475 7.57543 127.475 8.35168C127.475 9.12792 127.619 9.83568 127.908 10.4749C128.213 11.1142 128.639 11.6241 129.187 12.0046C129.75 12.3851 130.427 12.5754 131.219 12.5754ZM141.281 16V0.771842H147.582C149.211 0.771842 150.52 1.19802 151.509 2.05037C152.498 2.8875 152.993 4.12797 152.993 5.77179C152.993 6.76113 152.772 7.6287 152.331 8.37451C151.89 9.12031 151.304 9.71391 150.573 10.1553L153.838 16H149.5L146.92 10.8174H145.231V16H141.281ZM145.231 7.64392H147.194C147.727 7.64392 148.161 7.4841 148.495 7.16447C148.83 6.82962 148.998 6.38822 148.998 5.84028C148.998 5.2619 148.838 4.80529 148.518 4.47044C148.199 4.13558 147.75 3.96816 147.171 3.96816H145.231V7.64392ZM155.297 16L156.005 0.771842H159.864L163.562 7.41561L167.192 0.771842H171.074L171.781 16H167.695L167.329 7.07315L164.658 12.2786H162.443L159.475 7.07315L159.179 16H155.297ZM174.212 16V0.771842H178.253V16H174.212ZM180.99 16V0.771842H184.665L190.51 9.26491V0.771842H194.505V16H191.058L184.985 7.2558V16H180.99ZM205.006 10.4293V7.30146H211.261V14.1735C210.348 14.9498 209.298 15.5129 208.111 15.863C206.923 16.1979 205.744 16.3653 204.572 16.3653C202.928 16.3653 201.513 16.0381 200.325 15.3836C199.138 14.7291 198.225 13.8082 197.586 12.621C196.962 11.4186 196.65 9.99549 196.65 8.35168C196.65 6.79918 196.984 5.42172 197.654 4.2193C198.324 3.01687 199.252 2.0732 200.439 1.38827C201.642 0.703349 203.019 0.360887 204.572 0.360887C205.835 0.360887 207.015 0.573975 208.111 1.00015C209.222 1.41111 210.15 2.10364 210.896 3.07775L208.27 5.72613C207.799 5.25429 207.289 4.86617 206.741 4.56176C206.208 4.25735 205.584 4.10514 204.869 4.10514C204.001 4.10514 203.263 4.30301 202.654 4.69874C202.045 5.07926 201.581 5.59676 201.261 6.25124C200.957 6.8905 200.805 7.61348 200.805 8.42017C200.805 9.71391 201.178 10.7565 201.923 11.548C202.669 12.3242 203.659 12.7124 204.891 12.7124C205.394 12.7124 205.873 12.6515 206.33 12.5297C206.786 12.3927 207.228 12.1796 207.654 11.8905V10.4293H205.006Z" fill="white"/>
</svg>
