<svg width="811" height="62" viewBox="0 0 811 62" fill="none" xmlns="http://www.w3.org/2000/svg">
<rect width="811" height="62" fill="#F5F5F5"/>
<g id="logo_container">
<g id="text_01" clip-path="url(#clip0_8005_70)">
<g id="text_01_inner">
<path id="text_01_01" d="M1.16692 4.54747V11.1989V18.6206L7.63167 11.1989H28.4496L0 52.0412V60.0463H41.5891V53.3015V50.851V47.7003H33.1406V50.851H12.9528L41.5891 10.032V2.02692H1.16692V4.54747Z" fill="#F7941D"/>
<path id="text_01_02" d="M70.3421 36.2177H92.5836V26.859H70.3421V11.1989H95.781V2.02692H60.1665V60.0463H96.6212V50.851H70.3421V36.2177Z" fill="#F7941D"/>
<path id="text_01_03" d="M125.911 2.02692H115.642V60.023H125.911V2.02692Z" fill="#F7941D"/>
<path id="text_01_04" d="M173.895 38.7383H190.488C190.488 46.2299 182.577 51.7845 173.988 51.7845C162.879 51.7845 154.617 42.1924 154.617 31.1533C154.617 20.1142 162.949 10.5221 173.801 10.5221C179.029 10.5221 183.744 12.7159 187.198 16.17L194.596 9.68193C189.555 4.38411 182.133 1.00003 173.801 1.00003C157.208 1.00003 144.255 14.6297 144.255 31.13C144.255 47.6303 157.044 61.0265 174.152 61.0265C190.325 61.0265 201.691 51.2711 201.691 30.1264H173.918V38.715L173.895 38.7383Z" fill="#F7941D"/>
<path id="text_01_05" d="M229.277 2.02692H219.008V60.0463H251.845V50.851H229.277V2.02692Z" fill="#F7941D"/>
<path id="text_01_06" d="M277.611 36.2177H299.852V26.859H277.611V11.1989H303.05V2.02692H267.435V60.0463H303.89V50.851H277.611V36.2177Z" fill="#F7941D"/>
<path id="text_01_07" d="M349.657 38.5749C358.502 37.3847 363.963 28.9828 363.963 20.651C363.963 11.3856 358.502 2.05026 345.526 2.05026H322.794V60.0463H333.063V38.925H338.291L352.597 60.0463H364.71L349.633 38.5749H349.657ZM333.063 30.2431V11.1989H344.756C350.403 11.1989 353.671 15.4932 353.671 20.791C353.671 26.0889 350.637 30.2198 343.402 30.2198H333.04L333.063 30.2431Z" fill="#F7941D"/>
</g>
</g>
<g id="text_02" clip-path="url(#clip1_8005_70)">
<g id="text_02_inner">
<path id="text_02_01" d="M484.6 29.0528C490.504 26.9524 492.185 21.4679 492.185 16.9402C492.185 8.09492 485.79 2.05026 475.684 2.05026H444.201L453.116 9.82197V51.5978H448.425V60.0463H477.458C489.501 60.0463 495.312 51.7145 495.312 43.546C495.312 37.1513 491.694 30.4998 484.623 29.0762L484.6 29.0528ZM463.385 11.1989H475.264C479.722 11.1989 481.916 14.3029 481.916 18.3638C481.916 22.4247 479.558 25.4354 475.264 25.4354H463.385V11.1989ZM475.848 50.851H463.385V34.094H476.104C482.242 34.094 484.95 38.3882 484.95 42.5191C484.95 46.9068 481.846 50.851 475.848 50.851Z" fill="#F7941D"/>
<path id="text_02_02" d="M527.752 2.02692L505.954 60.023H516.9L521.871 45.7865H544.673L549.714 60.023H560.566L538.861 2.02692H527.752ZM524.975 36.8946L533.307 13.3227L541.569 36.8946H524.975Z" fill="#F7941D"/>
<path id="text_02_03" d="M585.562 2.02692H575.293V60.023H585.562V2.02692Z" fill="#F7941D"/>
<path id="text_02_04" d="M617.769 2.02692H607.477V60.0463H640.314V50.851H617.769V2.02692Z" fill="#F7941D"/>
<path id="text_02_05" d="M666.103 36.2177H688.321V26.859H666.103V11.1989H691.518V2.02692H655.904V60.0463H692.358V50.851H666.103V36.2177Z" fill="#F7941D"/>
<path id="text_02_06" d="M748.044 2.02692L732.641 24.5952L717.401 2.02692H705.288L727.506 33.6038V60.0463H737.868V33.6972L760.25 2.02692H748.044Z" fill="#F7941D"/>
</g>
</g>
<g id="divider">
<path id="Vector" d="M388.188 54.5151L410.663 8.30496H421.212L398.737 54.5151H388.188Z" fill="#F7941D"/>
</g>
<path id="mask1" d="M418 3.05176e-05H0V62H386L418 3.05176e-05Z" fill="#D21E1E"/>
<path id="mask2" d="M393 62.0001L811 62L811 -7.62939e-06L425 2.61158e-05L393 62.0001Z" fill="#D21E1E"/>
</g>
<defs>
<clipPath id="clip0_8005_70">
<rect width="364.71" height="60.0265" fill="white" transform="translate(0 1.00003)"/>
</clipPath>
<clipPath id="clip1_8005_70">
<rect width="316.049" height="58.0194" fill="white" transform="translate(444.201 2.02692)"/>
</clipPath>
</defs>
</svg>
