<?xml version="1.0" encoding="utf-8"?>
<!-- Generator: Adobe Illustrator 27.7.0, SVG Export Plug-In . SVG Version: 6.00 Build 0)  -->
<svg version="1.1" id="Layer_1" xmlns="http://www.w3.org/2000/svg" xmlns:xlink="http://www.w3.org/1999/xlink" x="0px" y="0px"
	 viewBox="0 0 111.8 55.4" style="enable-background:new 0 0 111.8 55.4;" xml:space="preserve">
<style type="text/css">
	.st0{fill:#FFD000;}
</style>
<path class="st0" d="M0.6,15.1V0.4h6c1.6,0,2.8,0.4,3.8,1.3c1,0.8,1.4,2,1.4,3.6c0,1-0.2,1.9-0.7,2.6c-0.4,0.7-1,1.3-1.8,1.7
	c-0.8,0.4-1.6,0.6-2.6,0.6H4.4v4.9H0.6z M4.4,7.1h1.8c0.5,0,0.9-0.2,1.3-0.5c0.3-0.3,0.5-0.8,0.5-1.3c0-0.6-0.1-1-0.4-1.3
	C7.2,3.6,6.8,3.5,6.2,3.5H4.4V7.1z M13.5,15.1V0.4h3.9v5.4h5.4V0.4h3.9v14.7h-3.9V9.3h-5.4v5.7H13.5z M36.2,15.4
	c-1.1,0-2.1-0.2-3.1-0.6c-0.9-0.4-1.7-0.9-2.4-1.6c-0.7-0.7-1.2-1.5-1.6-2.5c-0.4-0.9-0.6-2-0.6-3.1c0-1.1,0.2-2.1,0.6-3.1
	c0.4-0.9,0.9-1.8,1.6-2.4c0.7-0.7,1.5-1.2,2.4-1.6C34,0.2,35.1,0,36.2,0c1.1,0,2.1,0.2,3,0.6c0.9,0.4,1.8,0.9,2.4,1.6
	c0.7,0.7,1.2,1.5,1.6,2.4c0.4,0.9,0.6,2,0.6,3.1c0,1.1-0.2,2.1-0.6,3.1c-0.4,0.9-0.9,1.8-1.6,2.5c-0.7,0.7-1.5,1.2-2.4,1.6
	C38.3,15.2,37.3,15.4,36.2,15.4z M36.2,11.8c0.8,0,1.4-0.2,2-0.5c0.5-0.4,1-0.9,1.2-1.5c0.3-0.6,0.4-1.3,0.4-2c0-0.7-0.1-1.4-0.4-2
	c-0.3-0.6-0.7-1.1-1.2-1.5c-0.5-0.4-1.2-0.6-2-0.6c-0.8,0-1.4,0.2-2,0.6C33.7,4.5,33.3,5,33,5.7c-0.3,0.6-0.4,1.3-0.4,2
	c0,0.7,0.1,1.4,0.4,2c0.3,0.6,0.7,1.1,1.2,1.5C34.7,11.6,35.4,11.8,36.2,11.8z M45.6,15.1V0.4h3.5l5.6,8.2V0.4h3.9v14.7h-3.3
	l-5.9-8.4v8.4H45.6z M61.1,15.1V0.4h10.6v3.4H65V6h5.5v3.2H65v2.5h7.1v3.4H61.1z M73.7,18.2l1.4-3.1h-1.4v-4h4.1v4L76,18.2H73.7z
	 M7.6,35.4c-1.1,0-2.1-0.2-3.1-0.6c-0.9-0.4-1.7-0.9-2.4-1.6c-0.7-0.7-1.2-1.5-1.6-2.5c-0.4-0.9-0.6-2-0.6-3.1s0.2-2.1,0.6-3.1
	c0.4-0.9,0.9-1.8,1.6-2.4c0.7-0.7,1.5-1.2,2.4-1.6c0.9-0.4,2-0.6,3.1-0.6s2.1,0.2,3,0.6c0.9,0.4,1.8,0.9,2.4,1.6
	c0.7,0.7,1.2,1.5,1.6,2.4c0.4,0.9,0.6,2,0.6,3.1s-0.2,2.1-0.6,3.1c-0.4,0.9-0.9,1.8-1.6,2.5c-0.7,0.7-1.5,1.2-2.4,1.6
	C9.7,35.2,8.7,35.4,7.6,35.4z M7.6,31.8c0.8,0,1.4-0.2,2-0.5c0.5-0.4,1-0.9,1.2-1.5c0.3-0.6,0.4-1.3,0.4-2c0-0.7-0.1-1.4-0.4-2
	c-0.3-0.6-0.7-1.1-1.2-1.5c-0.5-0.4-1.2-0.5-2-0.5c-0.8,0-1.4,0.2-2,0.5c-0.5,0.4-0.9,0.9-1.2,1.5C4.2,26.3,4,27,4,27.7
	c0,0.7,0.1,1.4,0.4,2c0.3,0.6,0.7,1.1,1.2,1.5C6.2,31.6,6.9,31.8,7.6,31.8z M17.1,35.1V20.4h3.5l5.6,8.2v-8.2h3.9v14.7h-3.3L21,26.6
	v8.4H17.1z M32.6,35.1V20.4h3.9v11.2h6.8v3.4H32.6z M44.8,35.1V20.4h3.9v14.7H44.8z M51.1,35.1V20.4h3.5l5.6,8.2v-8.2h3.8v14.7h-3.3
	L55,26.6v8.4H51.1z M66.5,35.1V20.4h10.6v3.4h-6.7V26h5.5v3.2h-5.5v2.5h7.1v3.4H66.5z M90.2,35.4c-1.1,0-2.1-0.2-3.1-0.6
	c-0.9-0.4-1.7-0.9-2.4-1.6c-0.7-0.7-1.2-1.5-1.6-2.5c-0.4-0.9-0.6-2-0.6-3.1s0.2-2.1,0.6-3.1c0.4-0.9,0.9-1.8,1.6-2.4
	c0.7-0.7,1.5-1.2,2.4-1.6c0.9-0.4,2-0.6,3.1-0.6s2.1,0.2,3,0.6c0.9,0.4,1.8,0.9,2.4,1.6c0.7,0.7,1.2,1.5,1.6,2.4
	c0.4,0.9,0.6,2,0.6,3.1s-0.2,2.1-0.6,3.1c-0.4,0.9-0.9,1.8-1.6,2.5c-0.7,0.7-1.5,1.2-2.4,1.6C92.3,35.2,91.3,35.4,90.2,35.4z
	 M90.2,31.8c0.8,0,1.4-0.2,2-0.5c0.5-0.4,1-0.9,1.2-1.5c0.3-0.6,0.4-1.3,0.4-2c0-0.7-0.1-1.4-0.4-2c-0.3-0.6-0.7-1.1-1.2-1.5
	c-0.5-0.4-1.2-0.5-2-0.5c-0.8,0-1.4,0.2-2,0.5c-0.5,0.4-0.9,0.9-1.2,1.5c-0.3,0.6-0.4,1.3-0.4,2c0,0.7,0.1,1.4,0.4,2
	c0.3,0.6,0.7,1.1,1.2,1.5C88.8,31.6,89.4,31.8,90.2,31.8z M99.7,35.1V20.4h6.1c1.6,0,2.8,0.4,3.8,1.2c1,0.8,1.4,2,1.4,3.6
	c0,1-0.2,1.8-0.6,2.5c-0.4,0.7-1,1.3-1.7,1.7l3.1,5.6h-4.2l-2.5-5h-1.6v5H99.7z M103.5,27h1.9c0.5,0,0.9-0.2,1.3-0.5
	c0.3-0.3,0.5-0.7,0.5-1.3c0-0.6-0.2-1-0.5-1.3c-0.3-0.3-0.7-0.5-1.3-0.5h-1.9V27z M0.6,55.1V40.4h3.9v14.7H0.6z M6.9,55.1V40.4h3.5
	l5.6,8.2v-8.2h3.9v14.7h-3.3l-5.9-8.4v8.4H6.9z M26.1,55.1V40.4h6c1.6,0,2.8,0.4,3.8,1.3c1,0.8,1.4,2,1.4,3.6c0,1-0.2,1.9-0.7,2.6
	c-0.4,0.7-1,1.3-1.8,1.7c-0.8,0.4-1.6,0.6-2.6,0.6h-2.3v4.9H26.1z M29.9,47.1h1.8c0.5,0,0.9-0.2,1.3-0.5c0.3-0.3,0.5-0.8,0.5-1.3
	c0-0.6-0.1-1-0.4-1.3c-0.3-0.3-0.7-0.5-1.3-0.5h-1.8V47.1z M39,55.1V40.4h10.6v3.4h-6.7V46h5.5v3.2h-5.5v2.5H50v3.4H39z M51.8,55.1
	V40.4h6.1c1.6,0,2.8,0.4,3.8,1.2c1,0.8,1.4,2,1.4,3.6c0,1-0.2,1.8-0.6,2.5c-0.4,0.7-1,1.3-1.7,1.7l3.1,5.6h-4.2l-2.5-5h-1.6v5H51.8z
	 M55.6,47h1.9c0.5,0,0.9-0.2,1.3-0.5c0.3-0.3,0.5-0.7,0.5-1.3c0-0.6-0.2-1-0.5-1.3s-0.7-0.5-1.3-0.5h-1.9V47z M64,53.3l2.4-2.8
	c0.4,0.4,0.9,0.8,1.6,1.1c0.7,0.3,1.4,0.5,2.2,0.5c0.4,0,0.8-0.1,1.1-0.2c0.4-0.2,0.6-0.5,0.6-0.9c0-0.4-0.2-0.7-0.6-0.9
	c-0.4-0.3-1-0.5-1.7-0.7l-0.8-0.3c-0.6-0.2-1.2-0.5-1.8-0.8c-0.6-0.4-1.1-0.8-1.5-1.3c-0.4-0.5-0.6-1.2-0.6-2c0-0.9,0.2-1.7,0.6-2.4
	c0.4-0.7,1.1-1.3,1.9-1.7c0.9-0.4,1.9-0.6,3.1-0.6c1,0,1.8,0.1,2.5,0.3c0.7,0.2,1.3,0.5,1.8,0.8c0.5,0.3,0.8,0.6,1,0.8l-2,2.5
	c-0.5-0.4-1-0.7-1.6-0.9c-0.6-0.2-1.1-0.4-1.7-0.4c-0.4,0-0.7,0.1-1.1,0.3c-0.3,0.2-0.5,0.4-0.5,0.9c0,0.5,0.2,0.8,0.6,1
	c0.4,0.2,0.9,0.4,1.6,0.6l0.7,0.2c0.5,0.1,1,0.3,1.5,0.6c0.5,0.2,1,0.5,1.4,0.9c0.4,0.4,0.8,0.8,1,1.3c0.3,0.5,0.4,1.2,0.4,2
	c0,0.9-0.3,1.7-0.8,2.4c-0.5,0.7-1.2,1.3-2.2,1.7c-0.9,0.4-1.9,0.6-3,0.6c-1.5,0-2.7-0.2-3.7-0.6C65.5,54.4,64.7,53.9,64,53.3z
	 M85,55.4c-1.1,0-2.1-0.2-3.1-0.6c-0.9-0.4-1.7-0.9-2.4-1.6c-0.7-0.7-1.2-1.5-1.6-2.5s-0.6-2-0.6-3.1s0.2-2.1,0.6-3.1
	c0.4-0.9,0.9-1.8,1.6-2.4c0.7-0.7,1.5-1.2,2.4-1.6c0.9-0.4,2-0.6,3.1-0.6c1.1,0,2.1,0.2,3,0.6c0.9,0.4,1.8,0.9,2.4,1.6
	c0.7,0.7,1.2,1.5,1.6,2.4c0.4,0.9,0.6,2,0.6,3.1s-0.2,2.1-0.6,3.1c-0.4,0.9-0.9,1.8-1.6,2.5c-0.7,0.7-1.5,1.2-2.4,1.6
	C87.1,55.2,86.1,55.4,85,55.4z M85,51.8c0.8,0,1.4-0.2,2-0.5c0.5-0.4,1-0.9,1.2-1.5c0.3-0.6,0.4-1.3,0.4-2c0-0.7-0.1-1.4-0.4-2
	s-0.7-1.1-1.2-1.5c-0.5-0.4-1.2-0.6-2-0.6c-0.8,0-1.4,0.2-2,0.6c-0.5,0.4-0.9,0.9-1.2,1.5c-0.3,0.6-0.4,1.3-0.4,2
	c0,0.7,0.1,1.4,0.4,2c0.3,0.6,0.7,1.1,1.2,1.5C83.6,51.6,84.2,51.8,85,51.8z M94.5,55.1V40.4H98l5.6,8.2v-8.2h3.8v14.7h-3.3
	l-5.9-8.4v8.4H94.5z"/>
</svg>
