<?xml version="1.0" encoding="utf-8"?>
<!-- Generator: Adobe Illustrator 27.7.0, SVG Export Plug-In . SVG Version: 6.00 Build 0)  -->
<svg version="1.1" id="Layer_1" xmlns="http://www.w3.org/2000/svg" xmlns:xlink="http://www.w3.org/1999/xlink" x="0px" y="0px"
	 viewBox="0 0 93.4 35.4" style="enable-background:new 0 0 93.4 35.4;" xml:space="preserve">
<style type="text/css">
	.st0{fill:#FFD000;}
</style>
<path class="st0" d="M8.3,15.4c-1.1,0-2.1-0.2-3.1-0.6c-0.9-0.4-1.7-0.9-2.4-1.6c-0.7-0.7-1.2-1.5-1.6-2.5c-0.4-0.9-0.6-2-0.6-3.1
	c0-1.1,0.2-2.1,0.6-3.1c0.4-0.9,0.9-1.8,1.6-2.4C3.5,1.5,4.3,1,5.2,0.6C6.2,0.2,7.2,0,8.3,0s2.1,0.2,3,0.6c0.9,0.4,1.8,0.9,2.4,1.6
	c0.7,0.7,1.2,1.5,1.6,2.4c0.4,0.9,0.6,2,0.6,3.1c0,1.1-0.2,2.1-0.6,3.1c-0.4,0.9-0.9,1.8-1.6,2.5c-0.7,0.7-1.5,1.2-2.4,1.6
	C10.4,15.2,9.4,15.4,8.3,15.4z M8.3,11.8c0.8,0,1.4-0.2,2-0.5c0.5-0.4,1-0.9,1.2-1.5c0.3-0.6,0.4-1.3,0.4-2c0-0.7-0.1-1.4-0.4-2
	c-0.3-0.6-0.7-1.1-1.2-1.5C9.7,3.8,9,3.6,8.3,3.6c-0.8,0-1.4,0.2-2,0.6C5.8,4.5,5.4,5,5.1,5.7C4.8,6.3,4.7,7,4.7,7.7
	c0,0.7,0.1,1.4,0.4,2c0.3,0.6,0.7,1.1,1.2,1.5C6.9,11.6,7.5,11.8,8.3,11.8z M17.7,15.1V0.4h3.5l5.6,8.2V0.4h3.9v14.7h-3.3l-5.9-8.4
	v8.4H17.7z M41,15.1V9.2l-5.2-8.8h4.5l2.9,5.2l2.7-5.2h4.3l-5.2,8.8v5.9H41z M56.9,15.4c-1.1,0-2.1-0.2-3.1-0.6
	c-0.9-0.4-1.7-0.9-2.4-1.6c-0.7-0.7-1.2-1.5-1.6-2.5c-0.4-0.9-0.6-2-0.6-3.1c0-1.1,0.2-2.1,0.6-3.1c0.4-0.9,0.9-1.8,1.6-2.4
	C52.1,1.5,53,1,53.9,0.6c0.9-0.4,2-0.6,3.1-0.6C58,0,59,0.2,60,0.6c0.9,0.4,1.8,0.9,2.4,1.6c0.7,0.7,1.2,1.5,1.6,2.4
	c0.4,0.9,0.6,2,0.6,3.1c0,1.1-0.2,2.1-0.6,3.1c-0.4,0.9-0.9,1.8-1.6,2.5c-0.7,0.7-1.5,1.2-2.4,1.6C59,15.2,58,15.4,56.9,15.4z
	 M56.9,11.8c0.8,0,1.4-0.2,2-0.5c0.5-0.4,1-0.9,1.2-1.5c0.3-0.6,0.4-1.3,0.4-2c0-0.7-0.1-1.4-0.4-2c-0.3-0.6-0.7-1.1-1.2-1.5
	c-0.5-0.4-1.2-0.6-2-0.6c-0.8,0-1.4,0.2-2,0.6C54.4,4.5,54,5,53.7,5.7c-0.3,0.6-0.4,1.3-0.4,2c0,0.7,0.1,1.4,0.4,2
	c0.3,0.6,0.7,1.1,1.2,1.5C55.5,11.6,56.2,11.8,56.9,11.8z M66.3,9.4v-9h3.9V9c0,0.8,0.2,1.5,0.6,2c0.4,0.5,1,0.8,1.9,0.8
	c0.9,0,1.5-0.3,1.8-0.8c0.4-0.5,0.5-1.2,0.5-2V0.4H79v9c0,1.2-0.3,2.3-0.8,3.3c-0.5,0.9-1.3,1.6-2.2,2.1c-0.9,0.5-2,0.7-3.3,0.7
	s-2.3-0.2-3.3-0.7c-1-0.5-1.7-1.2-2.2-2.1C66.6,11.7,66.3,10.6,66.3,9.4z M81.3,15.1V0.4h6.1c1.6,0,2.8,0.4,3.8,1.2
	c1,0.8,1.4,2,1.4,3.6c0,1-0.2,1.8-0.6,2.5S91,9,90.2,9.4l3.1,5.6h-4.2l-2.5-5h-1.6v5H81.3z M85.1,7H87c0.5,0,0.9-0.2,1.3-0.5
	c0.3-0.3,0.5-0.7,0.5-1.3c0-0.6-0.2-1-0.5-1.3C88,3.6,87.5,3.5,87,3.5h-1.9V7z M0,33.3l2.4-2.8c0.4,0.4,0.9,0.8,1.6,1.1
	c0.7,0.3,1.4,0.5,2.2,0.5c0.4,0,0.8-0.1,1.1-0.2c0.4-0.2,0.5-0.5,0.5-0.9c0-0.4-0.2-0.7-0.6-0.9c-0.4-0.3-1-0.5-1.7-0.7l-0.8-0.3
	c-0.6-0.2-1.2-0.5-1.8-0.8c-0.6-0.4-1.1-0.8-1.5-1.3c-0.4-0.5-0.6-1.2-0.6-2c0-0.9,0.2-1.7,0.6-2.4C2,21.6,2.6,21,3.5,20.6
	C4.3,20.2,5.3,20,6.6,20c1,0,1.8,0.1,2.5,0.3c0.7,0.2,1.3,0.5,1.8,0.8c0.5,0.3,0.8,0.6,1,0.8l-2,2.5c-0.5-0.4-1-0.7-1.6-0.9
	c-0.6-0.2-1.1-0.4-1.7-0.4c-0.4,0-0.7,0.1-1.1,0.3C5.1,23.5,5,23.8,5,24.2c0,0.5,0.2,0.8,0.6,1c0.4,0.2,0.9,0.4,1.6,0.6L7.9,26
	c0.5,0.1,1,0.3,1.5,0.6c0.5,0.2,1,0.5,1.4,0.9s0.8,0.8,1,1.3c0.3,0.5,0.4,1.2,0.4,2c0,0.9-0.3,1.7-0.8,2.4c-0.5,0.7-1.2,1.3-2.2,1.6
	c-0.9,0.4-1.9,0.6-3,0.6c-1.5,0-2.7-0.2-3.7-0.6C1.5,34.4,0.7,33.9,0,33.3z M13.9,29.3v-9h3.9V29c0,0.8,0.2,1.5,0.5,2
	c0.4,0.5,1,0.8,1.9,0.8c0.9,0,1.5-0.3,1.8-0.8c0.4-0.5,0.5-1.2,0.5-2v-8.6h3.9v9c0,1.2-0.3,2.3-0.8,3.3c-0.5,0.9-1.3,1.6-2.2,2.1
	c-0.9,0.5-2,0.7-3.3,0.7s-2.3-0.2-3.3-0.7c-1-0.5-1.7-1.2-2.2-2.1C14.1,31.7,13.9,30.6,13.9,29.3z M28.9,35.1V20.4h6
	c1.6,0,2.8,0.4,3.8,1.3c1,0.8,1.4,2,1.4,3.6c0,1-0.2,1.9-0.7,2.6c-0.4,0.7-1,1.3-1.8,1.7c-0.8,0.4-1.6,0.6-2.6,0.6h-2.3v4.9H28.9z
	 M32.7,27.1h1.8c0.5,0,0.9-0.2,1.3-0.5c0.3-0.3,0.5-0.8,0.5-1.3c0-0.6-0.1-1-0.4-1.3c-0.3-0.3-0.7-0.5-1.3-0.5h-1.8V27.1z
	 M41.8,35.1V20.4h10.6v3.4h-6.7V26h5.5v3.2h-5.5v2.5h7.1v3.4H41.8z M54.6,35.1V20.4h6.1c1.6,0,2.8,0.4,3.8,1.2c1,0.8,1.4,2,1.4,3.6
	c0,1-0.2,1.8-0.6,2.5c-0.4,0.7-1,1.3-1.7,1.7l3.1,5.6h-4.2l-2.5-5h-1.6v5H54.6z M58.4,27h1.9c0.5,0,0.9-0.2,1.3-0.5
	c0.3-0.3,0.5-0.7,0.5-1.3c0-0.6-0.2-1-0.5-1.3c-0.3-0.3-0.7-0.5-1.3-0.5h-1.9V27z M70.9,30.1V30c0-0.7,0.1-1.3,0.2-1.7
	c0.2-0.5,0.4-0.8,0.6-1.1c0.3-0.3,0.5-0.6,0.8-0.8c0.4-0.3,0.7-0.6,1-0.8c0.3-0.2,0.5-0.6,0.5-1c0-0.3-0.1-0.5-0.3-0.7
	c-0.2-0.2-0.4-0.3-0.7-0.4c-0.2-0.1-0.5-0.1-0.7-0.1c-0.5,0-1,0.1-1.5,0.4c-0.5,0.2-0.9,0.6-1.3,0.9l-2.2-2.6
	c0.6-0.7,1.4-1.2,2.3-1.6c0.9-0.4,1.9-0.6,3.1-0.6c0.9,0,1.7,0.1,2.5,0.4c0.8,0.3,1.4,0.8,1.8,1.4c0.5,0.6,0.7,1.5,0.7,2.5
	c0,0.9-0.2,1.5-0.5,2c-0.4,0.5-0.7,0.9-1.1,1.2c-0.3,0.2-0.6,0.5-0.9,0.7c-0.3,0.2-0.5,0.5-0.7,0.7c-0.2,0.3-0.3,0.6-0.3,1.1v0.1
	H70.9z M70.7,35.1v-3.7h3.8v3.7H70.7z"/>
</svg>
