<?xml version="1.0" encoding="utf-8"?>
<!-- Generator: Adobe Illustrator 27.7.0, SVG Export Plug-In . SVG Version: 6.00 Build 0)  -->
<svg version="1.1" id="Layer_1" xmlns="http://www.w3.org/2000/svg" xmlns:xlink="http://www.w3.org/1999/xlink" x="0px" y="0px"
	 viewBox="0 0 165.2 60.7" style="enable-background:new 0 0 165.2 60.7;" xml:space="preserve">
<style type="text/css">
	.st0{fill:#FFD000;}
</style>
<path class="st0" d="M0,26L1.2,0.7h6.4l6.2,11.1l6-11.1h6.5L27.4,26h-6.8L20,11.2l-4.4,8.7h-3.7L7,11.2L6.5,26H0z M29,26l9.3-25.3
	H46L55,26h-7.3l-1.6-5.2h-8.5L35.9,26H29z M39,15.9h5.7l-2.8-9.3L39,15.9z M57,26V0.7h6.7v9.5l7.6-9.5h7.9l-8.4,9.8L80.5,26h-8.2
	l-6.2-10.3l-2.4,2.8V26H57z M82.8,26V0.7H101v5.8H89.5v3.9H99v5.5h-9.5v4.3h12.3V26H82.8z M102.9,22.9L107,18
	c0.7,0.7,1.6,1.4,2.8,1.9c1.2,0.6,2.4,0.9,3.8,0.9c0.7,0,1.3-0.1,2-0.4c0.6-0.3,0.9-0.8,0.9-1.6c0-0.7-0.3-1.2-1-1.6
	c-0.7-0.5-1.7-0.9-2.9-1.3l-1.4-0.5c-1-0.4-2.1-0.8-3.1-1.4c-1-0.6-1.9-1.4-2.5-2.3c-0.7-0.9-1-2.1-1-3.5c0-1.6,0.4-3,1.1-4.2
	c0.8-1.2,1.9-2.2,3.3-2.9c1.5-0.7,3.3-1.1,5.4-1.1c1.7,0,3.1,0.2,4.3,0.6c1.2,0.4,2.3,0.8,3.1,1.3c0.8,0.5,1.4,1,1.8,1.4L120,7.6
	c-0.9-0.7-1.8-1.2-2.8-1.6c-1-0.4-2-0.6-3-0.6c-0.7,0-1.3,0.2-1.9,0.5s-0.9,0.8-0.9,1.5c0,0.8,0.4,1.4,1.1,1.7
	c0.7,0.4,1.6,0.7,2.7,1.1l1.2,0.4c0.9,0.3,1.7,0.6,2.6,1s1.7,0.9,2.4,1.5c0.7,0.6,1.3,1.4,1.7,2.3c0.5,0.9,0.7,2,0.7,3.4
	c0,1.5-0.5,2.9-1.4,4.1s-2.2,2.2-3.7,2.9c-1.5,0.7-3.3,1-5.2,1c-2.5,0-4.7-0.3-6.4-1C105.5,24.9,104.1,24,102.9,22.9z M133.5,26V0.7
	h6.7V26H133.5z M150.7,26V6.6h-7.8V0.7h22.3v5.9h-7.7V26H150.7z M0.5,60V34.7h18.2v5.8H7.3v3.9h9.5v5.5H7.3v4.3h12.3V60H0.5z
	 M20.5,60l9.3-25.3h7.7l9,25.3h-7.3l-1.6-5.2h-8.5L27.5,60H20.5z M30.5,49.9h5.7l-2.8-9.3L30.5,49.9z M46.5,56.9l4.1-4.9
	c0.7,0.7,1.6,1.4,2.8,1.9c1.2,0.6,2.4,0.9,3.8,0.9c0.7,0,1.3-0.1,2-0.4s1-0.8,1-1.6c0-0.7-0.3-1.2-1-1.6c-0.7-0.5-1.7-0.9-2.9-1.3
	l-1.4-0.5c-1-0.4-2.1-0.8-3.1-1.4c-1-0.6-1.9-1.4-2.5-2.3c-0.7-0.9-1-2.1-1-3.5c0-1.6,0.4-3,1.1-4.2c0.8-1.2,1.9-2.2,3.3-2.9
	c1.5-0.7,3.3-1.1,5.4-1.1c1.7,0,3.1,0.2,4.3,0.6c1.2,0.4,2.3,0.8,3.1,1.3c0.8,0.5,1.4,1,1.8,1.4l-3.4,4.3c-0.9-0.7-1.8-1.2-2.8-1.6
	c-1-0.4-2-0.6-3-0.6c-0.7,0-1.3,0.2-1.9,0.5c-0.6,0.3-0.9,0.8-0.9,1.5c0,0.8,0.4,1.4,1.1,1.7c0.7,0.4,1.6,0.7,2.7,1.1l1.2,0.4
	c0.9,0.3,1.7,0.6,2.6,1c0.9,0.4,1.7,0.9,2.4,1.5s1.3,1.4,1.7,2.3c0.5,0.9,0.7,2,0.7,3.4c0,1.5-0.5,2.9-1.4,4.1
	c-0.9,1.2-2.2,2.2-3.7,2.8c-1.5,0.7-3.3,1-5.2,1c-2.5,0-4.7-0.3-6.4-1C49.2,58.9,47.7,58,46.5,56.9z M76.7,60V49.9l-9-15.2h7.7
	l4.9,9l4.6-9h7.5l-9,15.2V60H76.7z"/>
</svg>
