<?xml version="1.0" encoding="utf-8"?>
<!-- Generator: Adobe Illustrator 27.7.0, SVG Export Plug-In . SVG Version: 6.00 Build 0)  -->
<svg version="1.1" id="Layer_1" xmlns="http://www.w3.org/2000/svg" xmlns:xlink="http://www.w3.org/1999/xlink" x="0px" y="0px"
	 viewBox="0 0 168.9 19.7" style="enable-background:new 0 0 168.9 19.7;" xml:space="preserve">
<style type="text/css">
	.st0{fill:#FFFFFF;}
</style>
<path class="st0" d="M14.7,12.7l3.3,3.1c-2.1,2.6-4.9,3.9-8.3,3.9c-1.9,0-3.6-0.4-5.1-1.3c-1.5-0.8-2.6-2-3.4-3.4S0,11.9,0,10
	s0.4-3.6,1.2-5.1s1.9-2.6,3.4-3.5s3.1-1.3,5.1-1.3c1.6,0,3.1,0.3,4.5,0.8s2.6,1.5,3.5,2.8L14.4,7c-0.5-0.7-1.1-1.3-1.9-1.7
	C11.8,4.9,11,4.7,10,4.7S8.1,4.9,7.3,5.4C6.6,5.9,6.1,6.5,5.7,7.3S5.1,8.9,5.1,9.9s0.2,1.9,0.6,2.7s1,1.4,1.7,1.8
	c0.7,0.4,1.6,0.7,2.6,0.7c1.1,0,2-0.2,2.7-0.6C13.3,14.1,14,13.5,14.7,12.7z M28,19.7c-1.4,0-2.7-0.2-3.9-0.7
	c-1.2-0.5-2.2-1.2-3.1-2c-0.9-0.9-1.5-1.9-2-3.1s-0.7-2.5-0.7-3.9s0.2-2.7,0.7-3.9s1.2-2.2,2-3.1c0.9-0.9,1.9-1.6,3.1-2
	c1.2-0.5,2.5-0.7,3.9-0.7s2.7,0.2,3.9,0.7s2.2,1.2,3.1,2c0.9,0.9,1.5,1.9,2,3.1s0.7,2.5,0.7,3.9s-0.2,2.7-0.7,3.9s-1.1,2.2-2,3.1
	s-1.9,1.6-3.1,2C30.7,19.5,29.4,19.7,28,19.7z M28,15.1c1,0,1.8-0.2,2.5-0.7s1.2-1.1,1.6-1.9c0.4-0.8,0.5-1.7,0.5-2.6
	s-0.2-1.8-0.5-2.6c-0.4-0.8-0.9-1.4-1.6-1.9C29.8,5,29,4.7,28,4.7s-1.8,0.2-2.5,0.7s-1.2,1.1-1.6,1.9S23.4,9,23.4,9.9
	s0.2,1.8,0.5,2.6c0.4,0.8,0.9,1.4,1.6,1.9S27,15.1,28,15.1z M40.1,19.3V0.6h4.5L51.8,11V0.6h4.9v18.7h-4.2L45,8.6v10.7H40.1z
	 M59.7,19.3V0.6h4.5L71.4,11V0.6h4.9v18.7h-4.2L64.6,8.6v10.7H59.7z M79.4,19.3V0.6h13.4v4.3h-8.5v2.9h7v4h-7V15h9.1v4.3H79.4z
	 M109,12.7l3.3,3.1c-2.1,2.6-4.9,3.9-8.3,3.9c-1.9,0-3.6-0.4-5.1-1.3c-1.5-0.8-2.6-2-3.4-3.4c-0.8-1.5-1.2-3.2-1.2-5.1
	s0.4-3.6,1.2-5.1c0.8-1.5,2-2.7,3.4-3.5C100.4,0.4,102,0,104,0c1.6,0,3.1,0.3,4.5,0.8s2.6,1.5,3.5,2.8l-3.3,3.3
	c-0.5-0.7-1.1-1.3-1.9-1.7c-0.7-0.4-1.6-0.6-2.5-0.6c-1,0-1.9,0.2-2.7,0.7c-0.7,0.4-1.3,1.1-1.7,1.8c-0.4,0.8-0.6,1.6-0.6,2.6
	s0.2,1.9,0.6,2.7s1,1.4,1.7,1.8c0.7,0.4,1.6,0.7,2.6,0.7c1.1,0,2-0.2,2.7-0.6C107.6,14.1,108.3,13.5,109,12.7z M118.8,19.3V5h-5.7
	V0.6h16.4v4.3h-5.7v14.4H118.8z M136.3,19.3V0.6h7.6c1.3,0,2.4,0.1,3.3,0.4c0.9,0.3,1.5,0.7,2,1.1c0.5,0.5,0.8,1,1,1.6
	s0.3,1.1,0.3,1.7c0,0.7-0.1,1.3-0.4,1.9c-0.3,0.5-0.7,1-1.1,1.3c-0.4,0.3-0.8,0.6-1.2,0.7c0.5,0.1,1,0.4,1.6,0.8
	c0.6,0.4,1.1,0.8,1.5,1.5c0.4,0.6,0.6,1.4,0.6,2.3c0,1.8-0.7,3.2-2,4.1s-3.2,1.3-5.7,1.3H136.3z M141.1,8.1h2.2
	c0.6,0,1.1-0.1,1.5-0.4c0.5-0.3,0.7-0.8,0.7-1.5c0-0.8-0.2-1.3-0.7-1.6c-0.5-0.3-1-0.4-1.5-0.4h-2.2V8.1z M141.1,15.8h2.5
	c0.4,0,0.8,0,1.2-0.1s0.8-0.3,1.1-0.6c0.3-0.3,0.5-0.8,0.5-1.5c0-0.6-0.2-1.1-0.5-1.4c-0.3-0.3-0.7-0.5-1.1-0.6
	c-0.4-0.1-0.8-0.2-1.2-0.2h-2.5V15.8z M157.3,19.3v-7.4l-6.6-11.2h5.7l3.6,6.7l3.4-6.7h5.5l-6.7,11.2v7.4H157.3z"/>
</svg>
