<?xml version="1.0" encoding="utf-8"?>
<!-- Generator: Adobe Illustrator 27.7.0, SVG Export Plug-In . SVG Version: 6.00 Build 0)  -->
<svg version="1.1" id="Layer_1" xmlns="http://www.w3.org/2000/svg" xmlns:xlink="http://www.w3.org/1999/xlink" x="0px" y="0px"
	 viewBox="0 0 111.9 55.9" style="enable-background:new 0 0 111.9 55.9;" xml:space="preserve">
<style type="text/css">
	.st0{fill:#FFD000;}
</style>
<path class="st0" d="M0.7,15.1V0.4h6c1.6,0,2.8,0.4,3.8,1.3c1,0.8,1.4,2,1.4,3.6c0,1-0.2,1.9-0.7,2.6c-0.4,0.7-1,1.3-1.8,1.7
	s-1.6,0.6-2.6,0.6H4.5v4.9H0.7z M4.5,7.1h1.8c0.5,0,0.9-0.2,1.3-0.5c0.3-0.3,0.5-0.8,0.5-1.3c0-0.6-0.1-1-0.4-1.3
	C7.3,3.6,6.9,3.5,6.3,3.5H4.5V7.1z M13.6,15.1V0.4h3.9v5.4h5.4V0.4h3.9v14.7h-3.9V9.3h-5.4V15h-3.9V15.1z M36.3,15.4
	c-1.1,0-2.1-0.2-3.1-0.6c-0.9-0.4-1.7-0.9-2.4-1.6c-0.7-0.7-1.2-1.5-1.6-2.5c-0.4-0.9-0.6-2-0.6-3.1s0.2-2.1,0.6-3.1
	c0.4-0.9,0.9-1.8,1.6-2.4c0.7-0.7,1.5-1.2,2.4-1.6c0.9-0.3,2-0.5,3.1-0.5c1.1,0,2.1,0.2,3,0.6s1.8,0.9,2.4,1.6
	c0.7,0.7,1.2,1.5,1.6,2.4c0.4,0.9,0.6,2,0.6,3.1s-0.2,2.1-0.6,3.1c-0.4,0.9-0.9,1.8-1.6,2.5c-0.7,0.7-1.5,1.2-2.4,1.6
	C38.4,15.2,37.4,15.4,36.3,15.4z M36.3,11.8c0.8,0,1.4-0.2,2-0.5c0.5-0.4,1-0.9,1.2-1.5c0.3-0.6,0.4-1.3,0.4-2s-0.1-1.4-0.4-2
	c-0.3-0.6-0.7-1.1-1.2-1.5s-1.2-0.6-2-0.6s-1.4,0.2-2,0.6c-0.5,0.2-0.9,0.7-1.2,1.4c-0.3,0.6-0.4,1.3-0.4,2s0.1,1.4,0.4,2
	c0.3,0.6,0.7,1.1,1.2,1.5C34.8,11.6,35.5,11.8,36.3,11.8z M45.7,15.1V0.4h3.5l5.6,8.2V0.4h3.9v14.7h-3.3l-5.9-8.4v8.4
	C49.5,15.1,45.7,15.1,45.7,15.1z M61.2,15.1V0.4h10.6v3.4h-6.7V6h5.5v3.2h-5.5v2.5h7.1v3.4H61.2z M73.8,18.2l1.4-3.1h-1.4v-4h4.1v4
	l-1.8,3.1H73.8z M7.7,35.4c-1.1,0-2.1-0.2-3.1-0.6c-0.9-0.4-1.7-0.9-2.4-1.6c-0.7-0.7-1.2-1.5-1.6-2.5c-0.4-0.9-0.6-2-0.6-3.1
	s0.2-2.1,0.6-3.1c0.4-0.9,0.9-1.8,1.6-2.4c0.7-0.7,1.5-1.2,2.4-1.6s2-0.6,3.1-0.6s2.1,0.2,3,0.6c0.9,0.4,1.8,0.9,2.4,1.6
	c0.7,0.7,1.2,1.5,1.6,2.4c0.4,0.9,0.6,2,0.6,3.1s-0.2,2.1-0.6,3.1c-0.4,0.9-0.9,1.8-1.6,2.5c-0.7,0.7-1.5,1.2-2.4,1.6
	C9.8,35.2,8.8,35.4,7.7,35.4z M7.7,31.8c0.8,0,1.4-0.2,2-0.5c0.5-0.4,1-0.9,1.2-1.5c0.3-0.6,0.4-1.3,0.4-2s-0.1-1.4-0.4-2
	c-0.3-0.6-0.7-1.1-1.2-1.5s-1.2-0.5-2-0.5s-1.4,0.2-2,0.5c-0.5,0.4-0.9,0.9-1.2,1.5c-0.2,0.5-0.4,1.2-0.4,1.9s0.1,1.4,0.4,2
	s0.7,1.1,1.2,1.5C6.3,31.6,7,31.8,7.7,31.8z M17.2,35.1V20.4h3.5l5.6,8.2v-8.2h3.9v14.7h-3.3l-5.8-8.5V35L17.2,35.1L17.2,35.1z
	 M32.7,35.1V20.4h3.9v11.2h6.8V35L32.7,35.1L32.7,35.1z M44.9,35.1V20.4h3.9v14.7H44.9z M51.2,35.1V20.4h3.5l5.6,8.2v-8.2h3.8v14.7
	h-3.3l-5.7-8.5V35L51.2,35.1L51.2,35.1z M66.6,35.1V20.4h10.6v3.4h-6.7V26H76v3.2h-5.5v2.5h7.1v3.4C77.6,35.1,66.6,35.1,66.6,35.1z
	 M90.3,35.4c-1.1,0-2.1-0.2-3.1-0.6c-0.9-0.4-1.7-0.9-2.4-1.6c-0.7-0.7-1.2-1.5-1.6-2.5c-0.4-0.9-0.6-2-0.6-3.1s0.2-2.1,0.6-3.1
	c0.4-0.9,0.9-1.8,1.6-2.4c0.7-0.7,1.5-1.2,2.4-1.6s2-0.6,3.1-0.6s2.1,0.2,3,0.6s1.8,0.9,2.4,1.6c0.7,0.7,1.2,1.5,1.6,2.4
	s0.6,2,0.6,3.1s-0.2,2.1-0.6,3.1c-0.4,0.9-0.9,1.8-1.6,2.5s-1.5,1.2-2.4,1.6C92.4,35.2,91.4,35.4,90.3,35.4z M90.3,31.8
	c0.8,0,1.4-0.2,2-0.5c0.5-0.4,1-0.9,1.2-1.5c0.3-0.6,0.4-1.3,0.4-2s-0.1-1.4-0.4-2s-0.7-1.1-1.2-1.5s-1.2-0.5-2-0.5s-1.4,0.2-2,0.5
	c-0.5,0.4-0.9,0.9-1.2,1.5c-0.3,0.6-0.4,1.3-0.4,2s0.1,1.4,0.4,2s0.7,1.1,1.2,1.5C88.9,31.6,89.5,31.8,90.3,31.8z M99.8,35.1V20.4
	h6.1c1.6,0,2.8,0.4,3.8,1.2c1,0.8,1.4,2,1.4,3.6c0,1-0.2,1.8-0.6,2.5s-1,1.3-1.7,1.7l3.1,5.6h-4.2l-2.5-5h-1.6v5L99.8,35.1
	L99.8,35.1z M103.6,27h1.9c0.5,0,0.9-0.2,1.3-0.5c0.3-0.3,0.5-0.7,0.5-1.3c0-0.6-0.2-1-0.5-1.3s-0.7-0.5-1.3-0.5h-1.9V27z M0.7,55.1
	V40.4h3.9v14.7C4.6,55.1,0.7,55.1,0.7,55.1z M7,55.1V40.4h3.5l5.6,8.2v-8.2H20v14.7h-3.3l-5.9-8.4v8.4C10.8,55.1,7,55.1,7,55.1z
	 M26.2,55.1V40.4h6c1.6,0,2.8,0.4,3.8,1.3c1,0.8,1.4,2,1.4,3.6c0,1-0.2,1.9-0.7,2.6c-0.4,0.7-1,1.3-1.8,1.7s-1.6,0.6-2.6,0.6H30v4.9
	H26.2z M30,47.1h1.8c0.5,0,0.9-0.2,1.3-0.5c0.3-0.3,0.5-0.8,0.5-1.3c0-0.6-0.1-1-0.4-1.3c-0.3-0.3-0.7-0.5-1.3-0.5h-1.8v3.6H30z
	 M39.1,55.1V40.4h10.6v3.4H43V46h5.5v3.2H43v2.5h7.1v3.4C50.1,55.1,39.1,55.1,39.1,55.1z M51.9,55.1V40.4H58c1.6,0,2.8,0.4,3.8,1.2
	s1.4,2,1.4,3.6c0,1-0.2,1.8-0.6,2.5c-0.4,0.7-1,1.3-1.7,1.7L64,55h-4.2l-2.5-5h-1.6v5L51.9,55.1L51.9,55.1z M55.7,47h1.9
	c0.5,0,0.9-0.2,1.3-0.5c0.3-0.3,0.5-0.7,0.5-1.3s-0.2-1-0.5-1.3s-0.7-0.5-1.3-0.5h-1.9V47z M64.1,53.3l2.4-2.8
	c0.4,0.4,0.9,0.8,1.6,1.1s1.4,0.5,2.2,0.5c0.4,0,0.8-0.1,1.1-0.2c0.4-0.2,0.6-0.5,0.6-0.9s-0.2-0.7-0.6-0.9c-0.4-0.3-1-0.5-1.7-0.7
	l-0.8-0.3c-0.6-0.2-1.2-0.5-1.8-0.8c-0.6-0.4-1.1-0.8-1.5-1.3S65,45.8,65,45c0-0.9,0.2-1.7,0.6-2.4s1.1-1.3,1.9-1.7
	c0.9-0.4,1.9-0.6,3.1-0.6c1,0,1.8,0.1,2.5,0.3s1.3,0.5,1.8,0.8s0.8,0.6,1,0.8l-2,2.5c-0.5-0.4-1-0.7-1.6-0.9s-1.1-0.4-1.7-0.4
	c-0.4,0-0.7,0.1-1.1,0.3c-0.3,0.2-0.5,0.4-0.5,0.9s0.2,0.8,0.6,1s0.9,0.4,1.6,0.6l0.7,0.2c0.5,0.1,1,0.3,1.5,0.6
	c0.5,0.2,1,0.5,1.4,0.9s0.8,0.8,1,1.3c0.3,0.5,0.4,1.2,0.4,2c0,0.9-0.3,1.7-0.8,2.4s-1.2,1.3-2.2,1.7c-0.9,0.4-1.9,0.6-3,0.6
	c-1.5,0-2.7-0.2-3.7-0.6C65.6,54.4,64.8,53.9,64.1,53.3z M85.1,55.4c-1.1,0-2.1-0.2-3.1-0.6c-0.9-0.4-1.7-0.9-2.4-1.6
	c-0.7-0.7-1.2-1.5-1.6-2.5s-0.6-2-0.6-3.1s0.2-2.1,0.6-3.1c0.4-0.9,0.9-1.8,1.6-2.4c0.7-0.7,1.5-1.2,2.4-1.6c0.9-0.4,2-0.6,3.1-0.6
	s2.1,0.2,3,0.6c0.9,0.4,1.8,0.9,2.4,1.6c0.7,0.7,1.2,1.5,1.6,2.4s0.6,2,0.6,3.1s-0.2,2.1-0.6,3.1c-0.4,0.9-0.9,1.8-1.6,2.5
	s-1.5,1.2-2.4,1.6S86.2,55.4,85.1,55.4z M85.1,51.8c0.8,0,1.4-0.2,2-0.5c0.5-0.4,1-0.9,1.2-1.5c0.3-0.6,0.4-1.3,0.4-2
	s-0.1-1.4-0.4-2s-0.7-1.1-1.2-1.5s-1.2-0.6-2-0.6s-1.4,0.2-2,0.6c-0.5,0.4-0.9,0.9-1.2,1.5c-0.3,0.6-0.4,1.3-0.4,2s0.1,1.4,0.4,2
	s0.7,1.1,1.2,1.5C83.7,51.6,84.3,51.8,85.1,51.8z M94.6,55.1V40.4h3.5l5.6,8.2v-8.2h3.8v14.7h-3.3l-5.9-8.4v8.4
	C98.3,55.1,94.6,55.1,94.6,55.1z"/>
</svg>
