<?xml version="1.0" encoding="utf-8"?>
<!-- Generator: Adobe Illustrator 27.7.0, SVG Export Plug-In . SVG Version: 6.00 Build 0)  -->
<svg version="1.1" id="Layer_1" xmlns="http://www.w3.org/2000/svg" xmlns:xlink="http://www.w3.org/1999/xlink" x="0px" y="0px"
	 viewBox="0 0 118.4 35" style="enable-background:new 0 0 118.4 35;" xml:space="preserve">
<style type="text/css">
	.st0{fill:#FFFFFF;}
</style>
<path class="st0" d="M0,14.7L5.4,0h4.5L15,14.7h-4.2l-0.9-3H5l-1,3H0z M5.8,8.8h3.3L7.5,3.4L5.8,8.8z M17.4,14.7V3.4h-4.5V0h12.9
	v3.4h-4.5v11.3H17.4z M34.8,14.7V3.4h-4.5V0h12.9v3.4h-4.5v11.3H34.8z M44.7,14.7V0h3.9v5.4H54V0h3.9v14.7H54V8.9h-5.4v5.7H44.7z
	 M60.3,14.7V0h10.6v3.4h-6.7v2.3h5.5v3.2h-5.5v2.5h7.1v3.4H60.3z M1.2,34.7V20h6.1c1.6,0,2.8,0.4,3.8,1.2c1,0.8,1.4,2,1.4,3.6
	c0,1-0.2,1.8-0.6,2.5c-0.4,0.7-1,1.3-1.7,1.7l3.1,5.6H9.2l-2.5-5H5v5H1.2z M5,26.6h1.9c0.5,0,0.9-0.2,1.3-0.5
	c0.3-0.3,0.5-0.7,0.5-1.3c0-0.6-0.2-1-0.5-1.3c-0.3-0.3-0.7-0.5-1.3-0.5H5V26.6z M14.8,34.7V20h3.9v14.7H14.8z M28.6,29.3v-3h6v6.6
	c-0.9,0.7-1.9,1.3-3,1.6c-1.1,0.3-2.3,0.5-3.4,0.5c-1.6,0-2.9-0.3-4.1-0.9c-1.1-0.6-2-1.5-2.6-2.7c-0.6-1.2-0.9-2.5-0.9-4.1
	c0-1.5,0.3-2.8,1-4c0.6-1.2,1.5-2.1,2.7-2.7c1.2-0.7,2.5-1,4-1c1.2,0,2.4,0.2,3.4,0.6c1.1,0.4,2,1.1,2.7,2l-2.5,2.6
	c-0.5-0.5-0.9-0.8-1.5-1.1c-0.5-0.3-1.1-0.4-1.8-0.4c-0.8,0-1.5,0.2-2.1,0.6c-0.6,0.4-1,0.9-1.3,1.5c-0.3,0.6-0.4,1.3-0.4,2.1
	c0,1.2,0.4,2.3,1.1,3c0.7,0.7,1.7,1.1,2.9,1.1c0.5,0,0.9-0.1,1.4-0.2c0.4-0.1,0.9-0.3,1.3-0.6v-1.4H28.6z M36.8,34.7V20h3.9v5.4h5.4
	V20H50v14.7h-3.9v-5.7h-5.4v5.7H36.8z M56.1,34.7V23.4h-4.5V20h12.9v3.4H60v11.3H56.1z M73.4,34.7V23.4h-4.5V20h12.9v3.4h-4.5v11.3
	H73.4z M83.3,34.7V20h3.9v14.7H83.3z M89.3,34.7L90,20h3.7l3.6,6.4l3.5-6.4h3.7l0.7,14.7h-3.9l-0.4-8.6l-2.6,5h-2.1l-2.9-5l-0.3,8.6
	H89.3z M107.3,34.7V20h10.6v3.4h-6.7v2.3h5.5v3.2h-5.5v2.5h7.1v3.4H107.3z"/>
</svg>
