<?xml version="1.0" encoding="utf-8"?>
<!-- Generator: Adobe Illustrator 27.7.0, SVG Export Plug-In . SVG Version: 6.00 Build 0)  -->
<svg version="1.1" id="Layer_1" xmlns="http://www.w3.org/2000/svg" xmlns:xlink="http://www.w3.org/1999/xlink" x="0px" y="0px"
	 viewBox="0 0 332.5 16.1" style="enable-background:new 0 0 332.5 16.1;" xml:space="preserve">
<style type="text/css">
	.st0{fill:#FFD000;}
</style>
<path class="st0" d="M0,13.9l2.5-3c0.4,0.4,1,0.8,1.7,1.2c0.7,0.4,1.5,0.5,2.3,0.5c0.4,0,0.8-0.1,1.2-0.3c0.4-0.2,0.6-0.5,0.6-1
	c0-0.4-0.2-0.7-0.6-1c-0.4-0.3-1-0.5-1.8-0.8L4.9,9.3C4.3,9.1,3.7,8.8,3.1,8.5C2.4,8.1,1.9,7.7,1.5,7.1C1.1,6.5,0.9,5.8,0.9,5
	c0-1,0.2-1.8,0.7-2.6c0.5-0.8,1.1-1.3,2-1.8C4.5,0.2,5.6,0,6.9,0c1,0,1.9,0.1,2.6,0.3c0.8,0.2,1.4,0.5,1.9,0.8
	c0.5,0.3,0.9,0.6,1.1,0.8l-2.1,2.6c-0.5-0.4-1.1-0.7-1.7-1C8.1,3.4,7.5,3.2,6.9,3.2c-0.4,0-0.8,0.1-1.2,0.3C5.4,3.7,5.2,4,5.2,4.4
	c0,0.5,0.2,0.8,0.6,1c0.4,0.2,1,0.4,1.6,0.6l0.7,0.2c0.5,0.2,1,0.4,1.6,0.6c0.5,0.2,1,0.5,1.5,0.9c0.4,0.4,0.8,0.8,1.1,1.4
	c0.3,0.6,0.4,1.2,0.4,2c0,0.9-0.3,1.8-0.9,2.5c-0.6,0.7-1.3,1.3-2.3,1.7c-0.9,0.4-2,0.6-3.1,0.6c-1.5,0-2.8-0.2-3.9-0.6
	C1.6,15.1,0.7,14.5,0,13.9z M14.7,9.8V0.4h4.1v9c0,0.8,0.2,1.5,0.6,2.1c0.4,0.5,1.1,0.8,2,0.8c0.9,0,1.5-0.3,1.9-0.8
	c0.4-0.6,0.6-1.2,0.6-2.1v-9H28v9.4c0,1.3-0.3,2.4-0.9,3.4c-0.6,1-1.3,1.7-2.3,2.2c-1,0.5-2.1,0.8-3.4,0.8s-2.4-0.3-3.4-0.8
	c-1-0.5-1.8-1.2-2.3-2.2C15,12.2,14.7,11.1,14.7,9.8z M30.6,15.8V0.4h6.3c1.6,0,3,0.4,4,1.3c1,0.9,1.5,2.1,1.5,3.8
	c0,1-0.2,2-0.7,2.7C41.2,9,40.5,9.6,39.8,10C39,10.4,38,10.6,37,10.6h-2.4v5.1H30.6z M34.6,7.5h1.9c0.6,0,1-0.2,1.3-0.5
	c0.3-0.4,0.5-0.8,0.5-1.4c0-0.6-0.2-1.1-0.5-1.4c-0.3-0.4-0.8-0.5-1.4-0.5h-1.9V7.5z M44.3,15.8V0.4h11v3.5h-7v2.4h5.7v3.3h-5.7v2.6
	h7.5v3.5H44.3z M58,15.8V0.4h6.3c1.6,0,3,0.4,4,1.3c1,0.8,1.5,2.1,1.5,3.7c0,1-0.2,1.9-0.7,2.6c-0.4,0.8-1,1.3-1.8,1.8l3.3,5.9h-4.4
	l-2.6-5.2H62v5.2H58z M62,7.3h2c0.5,0,1-0.2,1.3-0.5c0.3-0.3,0.5-0.8,0.5-1.3c0-0.6-0.2-1-0.5-1.4c-0.3-0.3-0.8-0.5-1.4-0.5h-2V7.3z
	 M76.6,15.8V0.4h6.3c1.6,0,3,0.4,4,1.3c1,0.9,1.5,2.1,1.5,3.8c0,1-0.2,2-0.7,2.7C87.1,9,86.5,9.6,85.7,10c-0.8,0.4-1.7,0.6-2.8,0.6
	h-2.4v5.1H76.6z M80.6,7.5h1.9c0.6,0,1-0.2,1.3-0.5c0.3-0.4,0.5-0.8,0.5-1.4c0-0.6-0.2-1.1-0.5-1.4c-0.3-0.4-0.8-0.5-1.4-0.5h-1.9
	V7.5z M90.3,15.8V0.4h6.3c1.6,0,3,0.4,4,1.3c1,0.8,1.5,2.1,1.5,3.7c0,1-0.2,1.9-0.7,2.6c-0.4,0.8-1,1.3-1.8,1.8l3.3,5.9h-4.4
	L96,10.5h-1.7v5.2H90.3z M94.3,7.3h2c0.5,0,1-0.2,1.3-0.5c0.3-0.3,0.5-0.8,0.5-1.3c0-0.6-0.2-1-0.5-1.4s-0.8-0.5-1.4-0.5h-2V7.3z
	 M111.8,16.1c-1.2,0-2.2-0.2-3.2-0.6c-1-0.4-1.8-1-2.5-1.7c-0.7-0.7-1.3-1.6-1.7-2.6c-0.4-1-0.6-2.1-0.6-3.2s0.2-2.2,0.6-3.2
	c0.4-1,0.9-1.8,1.7-2.6c0.7-0.7,1.6-1.3,2.5-1.7c1-0.4,2-0.6,3.2-0.6s2.2,0.2,3.2,0.6c1,0.4,1.8,1,2.6,1.7c0.7,0.7,1.3,1.6,1.7,2.6
	c0.4,1,0.6,2.1,0.6,3.2s-0.2,2.2-0.6,3.2c-0.4,1-0.9,1.8-1.7,2.6c-0.7,0.7-1.6,1.3-2.6,1.7C114,15.9,112.9,16.1,111.8,16.1z
	 M111.8,12.3c0.8,0,1.5-0.2,2-0.6c0.6-0.4,1-0.9,1.3-1.5c0.3-0.6,0.4-1.4,0.4-2.1s-0.1-1.5-0.4-2.1c-0.3-0.6-0.7-1.2-1.3-1.5
	c-0.6-0.4-1.2-0.6-2-0.6c-0.8,0-1.5,0.2-2,0.6c-0.6,0.4-1,0.9-1.3,1.5C108.2,6.6,108,7.3,108,8s0.1,1.5,0.4,2.1
	c0.3,0.6,0.7,1.2,1.3,1.5C110.3,12.1,111,12.3,111.8,12.3z M125.3,15.8l-5.6-15.3h4.4l3.5,10.7l3.2-10.7h4.3l-5.6,15.3H125.3z
	 M136.6,15.8V0.4h4.1v15.3H136.6z M143.5,15.8V0.4h5.9c1.6,0,3,0.3,4.2,0.8c1.2,0.5,2.2,1.4,2.9,2.5c0.7,1.1,1.1,2.6,1.1,4.4
	c0,1.7-0.4,3.1-1.1,4.2c-0.7,1.1-1.7,2-3,2.5c-1.2,0.6-2.6,0.8-4.2,0.8H143.5z M147.5,12.2h1.7c1.3,0,2.3-0.4,3.1-1.1
	c0.7-0.8,1.1-1.8,1.1-3c0-1.2-0.3-2.2-1-3c-0.7-0.8-1.7-1.1-3.2-1.1h-1.7V12.2z M159.7,15.8V0.4h11v3.5h-7v2.4h5.7v3.3h-5.7v2.6h7.5
	v3.5H159.7z M173.4,15.8V0.4h6.3c1.6,0,3,0.4,4,1.3c1,0.8,1.5,2.1,1.5,3.7c0,1-0.2,1.9-0.7,2.6c-0.4,0.8-1,1.3-1.8,1.8l3.3,5.9h-4.4
	l-2.6-5.2h-1.7v5.2H173.4z M177.4,7.3h2c0.5,0,1-0.2,1.3-0.5c0.3-0.3,0.5-0.8,0.5-1.3c0-0.6-0.2-1-0.5-1.4c-0.3-0.3-0.8-0.5-1.4-0.5
	h-2V7.3z M199.4,16.1c-1.2,0-2.2-0.2-3.2-0.6c-1-0.4-1.8-1-2.5-1.7c-0.7-0.7-1.3-1.6-1.7-2.6c-0.4-1-0.6-2.1-0.6-3.2
	s0.2-2.2,0.6-3.2c0.4-1,1-1.8,1.7-2.6c0.7-0.7,1.6-1.3,2.5-1.7c1-0.4,2-0.6,3.2-0.6c1.1,0,2.2,0.2,3.2,0.6c1,0.4,1.8,1,2.6,1.7
	c0.7,0.7,1.3,1.6,1.7,2.6c0.4,1,0.6,2.1,0.6,3.2s-0.2,2.2-0.6,3.2c-0.4,1-0.9,1.8-1.7,2.6c-0.7,0.7-1.6,1.3-2.6,1.7
	C201.6,15.9,200.5,16.1,199.4,16.1z M199.4,12.3c0.8,0,1.5-0.2,2-0.6c0.6-0.4,1-0.9,1.3-1.5c0.3-0.6,0.4-1.4,0.4-2.1
	s-0.1-1.5-0.4-2.1c-0.3-0.6-0.7-1.2-1.3-1.5c-0.6-0.4-1.2-0.6-2-0.6c-0.8,0-1.5,0.2-2,0.6c-0.6,0.4-1,0.9-1.3,1.5
	c-0.3,0.6-0.4,1.4-0.4,2.1s0.1,1.5,0.4,2.1c0.3,0.6,0.7,1.2,1.3,1.5C197.9,12.1,198.6,12.3,199.4,12.3z M209.5,15.8V0.4h10.7V4h-6.6
	v3h5.1v3.4h-5.1v5.5H209.5z M230,15.8V4h-4.7V0.4h13.5V4h-4.7v11.8H230z M240.6,15.8V0.4h4.1V6h5.7V0.4h4.1v15.3h-4.1v-6h-5.7v6
	H240.6z M257.2,15.8V0.4h11v3.5h-7v2.4h5.7v3.3h-5.7v2.6h7.5v3.5H257.2z M279.2,15.8V9.6l-5.5-9.2h4.7l3,5.5l2.8-5.5h4.5l-5.5,9.2
	v6.1H279.2z M290.3,15.8V0.4h11v3.5h-7v2.4h5.7v3.3h-5.7v2.6h7.5v3.5H290.3z M302.7,15.8l5.6-15.3h4.7l5.4,15.3H314l-1-3.2h-5.1
	l-1,3.2H302.7z M308.7,9.6h3.5L310.5,4L308.7,9.6z M319.9,15.8V0.4h6.3c1.6,0,3,0.4,4,1.3c1,0.8,1.5,2.1,1.5,3.7
	c0,1-0.2,1.9-0.7,2.6c-0.4,0.8-1,1.3-1.8,1.8l3.3,5.9h-4.4l-2.6-5.2h-1.7v5.2H319.9z M323.9,7.3h2c0.5,0,1-0.2,1.3-0.5
	c0.3-0.3,0.5-0.8,0.5-1.3c0-0.6-0.2-1-0.5-1.4c-0.3-0.3-0.8-0.5-1.4-0.5h-2V7.3z"/>
</svg>
