<svg width="104" height="28" viewBox="0 0 104 28" fill="none" xmlns="http://www.w3.org/2000/svg">
<rect width="103.182" height="27.0933" rx="3.95792" fill="white"/>
<path d="M18.6988 12.8561V14.1537H14.6532V18.0466H13.0375V9.0141H19.0422V10.3245H14.6532V12.8561H18.6988ZM19.8823 9.5357C19.8823 8.98866 20.3021 8.58156 20.8364 8.58156C21.3707 8.58156 21.7906 8.98866 21.7906 9.5357C21.7906 10.07 21.3707 10.4898 20.8364 10.4898C20.3021 10.4898 19.8823 10.07 19.8823 9.5357ZM20.0731 11.4949H21.5997V18.0466H20.0731V11.4949ZM24.65 14.0392V18.0466H23.1234V11.4949H24.65V12.2709H24.7009C25.1334 11.6984 25.7186 11.3422 26.6219 11.3422C27.9577 11.3422 28.8355 12.3091 28.8355 13.7975V18.0466H27.3089V13.9375C27.3089 13.1869 26.9399 12.6398 26.0621 12.6398C25.1462 12.6398 24.65 13.2759 24.65 14.0392ZM29.9291 14.7644C29.9291 12.6653 31.1122 11.3422 32.7152 11.3422C33.6057 11.3422 34.3309 11.762 34.6998 12.3727H34.7634V8.44161H36.29V18.0466H34.7634V17.1688H34.6998C34.3309 17.7795 33.6057 18.1993 32.7152 18.1993C31.1122 18.1993 29.9291 16.8635 29.9291 14.7644ZM31.4939 15.0188C31.4939 16.3037 32.1173 16.9907 33.135 16.9907C34.1019 16.9907 34.7634 16.2401 34.7634 15.0824V14.4591C34.7634 13.3014 34.1019 12.5508 33.135 12.5508C32.1173 12.5508 31.4939 13.2378 31.4939 14.5227V15.0188ZM40.0673 14.7644C40.0673 12.6653 41.3522 11.3422 43.2732 11.3422C45.1942 11.3422 46.4792 12.6653 46.4792 14.7644C46.4792 16.8635 45.1942 18.1993 43.2732 18.1993C41.3522 18.1993 40.0673 16.8635 40.0673 14.7644ZM44.9271 15.0443V14.4972C44.9271 13.2632 44.2783 12.5508 43.2732 12.5508C42.2809 12.5508 41.6194 13.2632 41.6194 14.4972V15.0443C41.6194 16.2783 42.2809 16.9907 43.2732 16.9907C44.2783 16.9907 44.9271 16.2783 44.9271 15.0443ZM51.7585 15.5277V11.4949H53.2852V18.0466H51.7585V17.296H51.7076C51.2751 17.8685 50.6899 18.1993 49.7866 18.1993C48.4508 18.1993 47.5603 17.2706 47.5603 15.7821V11.4949H49.0869V15.6295C49.0869 16.3801 49.4686 16.9017 50.3464 16.9017C51.2497 16.9017 51.7585 16.2783 51.7585 15.5277ZM55.3456 16.1129V12.6398H54.048V11.4949H55.3583V9.0141H56.8722V11.4949H58.4497V12.6398H56.8722V15.9602C56.8722 16.5454 57.1776 16.7872 57.75 16.7872H58.4497V18.0466H57.5083C56.058 18.0466 55.3456 17.3978 55.3456 16.1129ZM63.7057 14.0011V18.0466H62.179V11.4949H63.7057V12.2709H63.7566C64.1255 11.762 64.6853 11.3422 65.5758 11.3422C66.4027 11.3422 67.0261 11.7366 67.3696 12.4108H67.4205C67.8403 11.8002 68.4764 11.3422 69.4687 11.3422C70.8045 11.3422 71.606 12.3091 71.606 13.7594V18.0466H70.0793V14.0011C70.0793 13.2123 69.7486 12.6398 68.9471 12.6398C68.1202 12.6398 67.6622 13.2759 67.6622 14.0011V18.0466H66.1355V14.0011C66.1355 13.2123 65.8048 12.6398 65.0033 12.6398C64.1764 12.6398 63.7057 13.2759 63.7057 14.0011ZM72.687 14.7644C72.687 12.6653 73.9719 11.3422 75.8929 11.3422C77.8139 11.3422 79.0988 12.6653 79.0988 14.7644C79.0988 16.8635 77.8139 18.1993 75.8929 18.1993C73.9719 18.1993 72.687 16.8635 72.687 14.7644ZM77.5468 15.0443V14.4972C77.5468 13.2632 76.898 12.5508 75.8929 12.5508C74.9006 12.5508 74.2391 13.2632 74.2391 14.4972V15.0443C74.2391 16.2783 74.9006 16.9907 75.8929 16.9907C76.898 16.9907 77.5468 16.2783 77.5468 15.0443ZM81.7702 14.6244V18.0466H80.2436V11.4949H81.7702V12.4744H81.8211C82.1392 11.762 82.6735 11.4949 83.2333 11.4949H84.0602V12.9197H83.2969C82.2664 12.9197 81.7702 13.4031 81.7702 14.6244ZM90.5747 16.0747C90.2566 17.207 89.2134 18.1993 87.5978 18.1993C85.6004 18.1993 84.341 16.8635 84.341 14.7644C84.341 12.6653 85.6259 11.3422 87.5341 11.3422C89.4551 11.3422 90.6256 12.678 90.6256 14.7644V15.1333H85.893C85.9312 16.3165 86.5673 17.0162 87.5978 17.0162C88.412 17.0162 88.8445 16.6599 89.048 16.0747H90.5747ZM87.5341 12.5126C86.6436 12.5126 86.0457 13.0851 85.9185 14.0901H89.0862C88.9972 13.1233 88.4628 12.5126 87.5341 12.5126Z" fill="#DC1928"/>
</svg>
