<svg width="160" height="600" viewBox="0 0 160 600" fill="none" xmlns="http://www.w3.org/2000/svg">
<g clip-path="url(#clip0_8858_21929)">
<path d="M27.0596 132L26.4023 137.263C27.9127 137.409 29.3016 137.603 30.5684 137.847L31.1895 137.993L30.7871 141.867C29.0087 141.672 27.364 141.526 25.8535 141.429L25.123 147.312C27.6564 148.116 29.3739 149.005 30.2754 149.979C31.2012 150.93 31.6641 152.38 31.6641 154.329C31.664 156.863 30.8969 158.787 29.3623 160.103C27.8274 161.394 25.817 162.039 23.332 162.039H23.2959L22.7471 166.352C20.9445 166.278 20.043 166.193 20.043 166.096L20.5547 161.856C18.7519 161.637 17.2415 161.381 16.0234 161.089L15.293 160.943L15.7676 157.143L17.1836 157.327C18.5723 157.496 19.8792 157.617 21.1035 157.69L21.9072 151.332C19.3979 150.577 17.6189 149.663 16.5713 148.591C15.5239 147.519 15 146.057 15 144.206C15 141.794 15.7308 140.003 17.1924 138.834C18.6542 137.64 20.6646 137.043 23.2227 137.043H23.6973L24.3555 132H27.0596ZM23.8438 157.728C25.8171 157.508 26.8037 156.484 26.8037 154.657C26.8036 154.073 26.633 153.598 26.292 153.232C25.9753 152.843 25.3907 152.477 24.5381 152.136L23.8438 157.728ZM23.1494 141.355C20.9568 141.453 19.8604 142.293 19.8604 143.877C19.8604 144.462 20.0437 144.936 20.4092 145.302C20.7746 145.667 21.4807 146.046 22.5283 146.436L23.1494 141.355Z" fill="#FFE344"/>
<path d="M87.9502 132C94.0213 132 98.587 133.96 101.646 137.88C104.754 141.8 106.308 148.111 106.308 156.812C106.308 165.464 104.777 171.679 101.718 175.456C98.6582 179.185 94.0691 181.05 87.9502 181.05C81.831 181.05 77.2412 179.185 74.1816 175.456C71.122 171.679 69.5918 165.464 69.5918 156.812C69.5918 148.111 71.122 141.8 74.1816 137.88C77.2891 133.96 81.8789 132 87.9502 132ZM126.642 132C132.713 132 137.279 133.96 140.339 137.88C143.446 141.8 145 148.111 145 156.812C145 165.464 143.47 171.679 140.41 175.456C137.351 179.185 132.761 181.05 126.642 181.05C120.523 181.05 115.934 179.185 112.874 175.456C109.814 171.679 108.284 165.464 108.284 156.812C108.284 148.111 109.814 141.8 112.874 137.88C115.981 133.96 120.571 132 126.642 132ZM43.377 163.768H53.5596V150.501H63.4561V163.768H67.9736V172.372H63.4561V180.188H53.5596V172.372H33.4814V164.843L45.1699 132.86H56.0693L43.377 163.768ZM87.9502 140.605C85.0341 140.605 82.9304 141.8 81.6396 144.19C80.3967 146.581 79.7744 150.716 79.7744 156.597C79.7744 162.477 80.4202 166.588 81.7109 168.931C83.0017 171.273 85.1054 172.444 88.0215 172.444C90.9375 172.444 93.0168 171.273 94.2598 168.931C95.5027 166.588 96.125 162.477 96.125 156.597C96.125 150.669 95.5027 146.533 94.2598 144.19C93.0168 141.8 90.9138 140.606 87.9502 140.605ZM126.642 140.605C123.726 140.606 121.623 141.8 120.332 144.19C119.089 146.581 118.467 150.716 118.467 156.597C118.467 162.477 119.113 166.588 120.403 168.931C121.694 171.273 123.798 172.444 126.714 172.444C129.63 172.444 131.709 171.273 132.952 168.931C134.195 166.588 134.817 162.477 134.817 156.597C134.817 150.669 134.195 146.533 132.952 144.19C131.709 141.8 129.605 140.605 126.642 140.605Z" fill="#FFE344"/>
</g>
<defs>
<clipPath id="clip0_8858_21929">
<rect width="160" height="600" fill="white"/>
</clipPath>
</defs>
</svg>
