<svg width="128" height="63" viewBox="0 0 128 63" fill="none" xmlns="http://www.w3.org/2000/svg">
<path d="M0.555133 22L8.34613 0.789399H14.8015L22.3063 22H16.2325L14.8651 17.6116H7.77373L6.37453 22H0.555133ZM8.91853 13.5094H13.7203L11.3671 5.7184L8.91853 13.5094ZM28.3498 19.3924L31.7524 15.2902C32.346 15.8838 33.1198 16.4244 34.0738 16.912C35.049 17.3996 36.0984 17.6434 37.222 17.6434C37.7944 17.6434 38.3456 17.5268 38.8756 17.2936C39.4056 17.0604 39.6706 16.6152 39.6706 15.958C39.6706 15.4068 39.3844 14.951 38.812 14.5906C38.2396 14.209 37.4234 13.8486 36.3634 13.5094L35.1868 13.1278C34.3176 12.831 33.4484 12.4388 32.5792 11.9512C31.7312 11.4424 31.021 10.7958 30.4486 10.0114C29.8974 9.227 29.6218 8.2624 29.6218 7.1176C29.6218 5.8032 29.9292 4.6266 30.544 3.5878C31.18 2.549 32.1128 1.7328 33.3424 1.1392C34.572 0.524399 36.0666 0.216999 37.8262 0.216999C39.2254 0.216999 40.4338 0.375999 41.4514 0.694C42.4902 1.012 43.3488 1.383 44.0272 1.807C44.7056 2.231 45.2038 2.6126 45.5218 2.9518L42.6598 6.577C41.9178 6.0258 41.144 5.5806 40.3384 5.2414C39.5328 4.881 38.706 4.7008 37.858 4.7008C37.3068 4.7008 36.7768 4.828 36.268 5.0824C35.7804 5.3156 35.5366 5.729 35.5366 6.3226C35.5366 6.9798 35.8334 7.4568 36.427 7.7536C37.0206 8.0504 37.7732 8.3472 38.6848 8.644L39.7024 8.962C40.4232 9.174 41.144 9.4496 41.8648 9.7888C42.6068 10.1068 43.2852 10.5202 43.9 11.029C44.5148 11.5378 45.0024 12.1844 45.3628 12.9688C45.7444 13.732 45.9352 14.6754 45.9352 15.799C45.9352 17.0922 45.543 18.2476 44.7586 19.2652C43.9954 20.2828 42.9566 21.0778 41.6422 21.6502C40.349 22.2226 38.9074 22.5088 37.3174 22.5088C35.1974 22.5088 33.4166 22.2226 31.975 21.6502C30.5546 21.0778 29.3462 20.3252 28.3498 19.3924ZM48.7287 13.732V0.789399H54.3573V13.2232C54.3573 14.3892 54.6223 15.3432 55.1523 16.0852C55.7035 16.8272 56.6045 17.1982 57.8553 17.1982C59.1061 17.1982 59.9965 16.8272 60.5265 16.0852C61.0565 15.322 61.3215 14.368 61.3215 13.2232V0.789399H67.0137V13.732C67.0137 15.534 66.6215 17.1028 65.8371 18.4384C65.0527 19.7528 63.9715 20.7704 62.5935 21.4912C61.2367 22.1908 59.6679 22.5406 57.8871 22.5406C56.1063 22.5406 54.5269 22.1908 53.1489 21.4912C51.7709 20.7916 50.6897 19.7846 49.9053 18.4702C49.1209 17.1346 48.7287 15.5552 48.7287 13.732ZM70.6873 22V0.789399H79.3369C81.6053 0.789399 83.4285 1.3936 84.8065 2.602C86.1845 3.7892 86.8735 5.5276 86.8735 7.8172C86.8735 9.2588 86.5555 10.5202 85.9195 11.6014C85.2835 12.6614 84.4143 13.4882 83.3119 14.0818C82.2095 14.6542 80.9375 14.9404 79.4959 14.9404H76.1887V22H70.6873ZM76.1887 10.5202H78.8599C79.6231 10.5202 80.2273 10.2764 80.6725 9.7888C81.1177 9.3012 81.3403 8.6758 81.3403 7.9126C81.3403 7.107 81.1283 6.4604 80.7043 5.9728C80.2803 5.4852 79.6549 5.2414 78.8281 5.2414H76.1887V10.5202ZM89.6617 22V0.789399H104.926V5.6548H95.2903V8.9302H103.209V13.5094H95.2903V17.1346H105.594V22H89.6617ZM108.512 22V0.789399H117.289C119.557 0.789399 121.38 1.383 122.758 2.5702C124.136 3.7362 124.825 5.464 124.825 7.7536C124.825 9.1316 124.518 10.34 123.903 11.3788C123.288 12.4176 122.472 13.2444 121.455 13.8592L126.002 22H119.96L116.367 14.7814H114.013V22H108.512ZM114.013 10.3612H116.748C117.49 10.3612 118.094 10.1386 118.561 9.6934C119.027 9.227 119.26 8.6122 119.26 7.849C119.26 7.0434 119.038 6.4074 118.593 5.941C118.147 5.4746 117.522 5.2414 116.716 5.2414H114.013V10.3612ZM0.848662 62V28.9835H23.8662V36.656H9.61016V43.0415H20.6487V50.2685H9.61016V62H0.848662ZM27.6243 49.13V28.9835H36.3858V48.338C36.3858 50.153 36.7983 51.638 37.6233 52.793C38.4813 53.948 39.8838 54.5255 41.8308 54.5255C43.7778 54.5255 45.1638 53.948 45.9888 52.793C46.8138 51.605 47.2263 50.12 47.2263 48.338V28.9835H56.0868V49.13C56.0868 51.935 55.4763 54.377 54.2553 56.456C53.0343 58.502 51.3513 60.086 49.2063 61.208C47.0943 62.297 44.6523 62.8415 41.8803 62.8415C39.1083 62.8415 36.6498 62.297 34.5048 61.208C32.3598 60.119 30.6768 58.5515 29.4558 56.5055C28.2348 54.4265 27.6243 51.968 27.6243 49.13ZM61.8052 62V28.9835H69.7747L82.4467 47.3975V28.9835H91.1092V62H83.6347L70.4677 43.0415V62H61.8052ZM97.045 62V28.9835H109.717C113.116 28.9835 116.135 29.5775 118.775 30.7655C121.448 31.9205 123.56 33.7355 125.111 36.2105C126.662 38.6525 127.438 41.804 127.438 45.665C127.438 49.295 126.662 52.331 125.111 54.773C123.56 57.182 121.432 58.997 118.726 60.218C116.053 61.406 113.033 62 109.667 62H97.045ZM105.806 54.278H109.37C112.208 54.278 114.419 53.4695 116.003 51.8525C117.587 50.2025 118.379 48.074 118.379 45.467C118.379 42.827 117.653 40.6985 116.201 39.0815C114.749 37.4645 112.472 36.656 109.37 36.656H105.806V54.278Z" fill="white"/>
</svg>
