<svg width="137" height="58" viewBox="0 0 137 58" fill="none" xmlns="http://www.w3.org/2000/svg">
<path d="M7.91156 26.9762V7.42027H0.081543V1.50001H22.5021V7.42027H14.7485V26.9762H7.91156Z" fill="white"/>
<path d="M24.792 26.9762V1.50001H31.5526V10.8196H40.9486V1.50001H47.7092V26.9762H40.9486V17.0073H31.5526V26.9762H24.792Z" fill="white"/>
<path d="M49.3793 26.9762L58.7371 1.50001H66.4908L75.5048 26.9762H68.2095L66.5672 21.7053H58.0496L56.369 26.9762H49.3793ZM59.4247 16.7781H65.1921L62.3657 7.42027L59.4247 16.7781Z" fill="white"/>
<path d="M79.2874 26.9762V7.42027H71.4573V1.50001H93.8779V7.42027H86.1243V26.9762H79.2874Z" fill="white"/>
<path d="M95.4803 10.9724L96.4734 1.50001H103.196L100.255 10.9724H95.4803Z" fill="white"/>
<path d="M101.512 23.8442L105.599 18.917C106.312 19.63 107.241 20.2793 108.387 20.865C109.559 21.4506 110.819 21.7435 112.169 21.7435C112.856 21.7435 113.518 21.6034 114.155 21.3233C114.791 21.0432 115.11 20.5085 115.11 19.7191C115.11 19.0571 114.766 18.5096 114.078 18.0767C113.391 17.6184 112.411 17.1855 111.137 16.7781L109.724 16.3198C108.68 15.9633 107.636 15.4922 106.592 14.9065C105.574 14.2954 104.721 13.5188 104.033 12.5766C103.371 11.6345 103.04 10.4759 103.04 9.10086C103.04 7.52212 103.409 6.1089 104.148 4.86119C104.912 3.61348 106.032 2.63314 107.509 1.92016C108.986 1.18172 110.781 0.8125 112.894 0.8125C114.575 0.8125 116.026 1.00348 117.249 1.38543C118.496 1.76738 119.528 2.21299 120.342 2.72226C121.157 3.23153 121.756 3.68987 122.138 4.09729L118.7 8.45154C117.809 7.78949 116.879 7.25476 115.912 6.84734C114.944 6.41446 113.951 6.19802 112.933 6.19802C112.271 6.19802 111.634 6.35081 111.023 6.65637C110.437 6.93647 110.144 7.433 110.144 8.14598C110.144 8.93535 110.501 9.50828 111.214 9.86476C111.927 10.2213 112.831 10.5777 113.926 10.9342L115.148 11.3162C116.014 11.5708 116.879 11.9018 117.745 12.3093C118.636 12.6912 119.451 13.1877 120.19 13.7989C120.928 14.41 121.514 15.1866 121.947 16.1288C122.405 17.0455 122.634 18.1786 122.634 19.5282C122.634 21.0814 122.163 22.4692 121.221 23.6914C120.304 24.9137 119.057 25.8686 117.478 26.5561C115.925 27.2436 114.193 27.5873 112.283 27.5873C109.737 27.5873 107.598 27.2436 105.866 26.5561C104.16 25.8686 102.709 24.9646 101.512 23.8442Z" fill="white"/>
<path d="M0.081543 56.3937L9.43937 30.9175H17.193L26.2071 56.3937H18.9118L17.2694 51.1228H8.75185L7.07127 56.3937H0.081543ZM10.1269 46.1956H15.8944L13.0679 36.8378L10.1269 46.1956Z" fill="#FFD000"/>
<path d="M35.9486 56.3937V30.9175H46.3377C49.0623 30.9175 51.2522 31.6432 52.9073 33.0946C54.5624 34.5206 55.39 36.6086 55.39 39.3586C55.39 41.0902 55.008 42.6052 54.2441 43.9039C53.4802 45.177 52.4362 46.1701 51.1121 46.8831C49.788 47.5706 48.2602 47.9144 46.5287 47.9144H42.5564V56.3937H35.9486ZM42.5564 42.6052H45.7648C46.6815 42.6052 47.4072 42.3124 47.9419 41.7267C48.4767 41.1411 48.744 40.3899 48.744 39.4732C48.744 38.5056 48.4894 37.729 47.9801 37.1433C47.4708 36.5577 46.7197 36.2648 45.7266 36.2648H42.5564V42.6052Z" fill="#FFD000"/>
<path d="M57.5931 56.3937V30.9175H64.3536V50.4352H76.1559V56.3937H57.5931Z" fill="#FFD000"/>
<path d="M77.9374 46.4629V30.9175H84.6979V45.8518C84.6979 47.2523 85.0162 48.3982 85.6528 49.2894C86.3149 50.1806 87.3971 50.6262 88.8994 50.6262C90.4017 50.6262 91.4712 50.1806 92.1078 49.2894C92.7444 48.3727 93.0627 47.2268 93.0627 45.8518V30.9175H99.8996V46.4629C99.8996 48.6273 99.4286 50.5116 98.4864 52.1158C97.5443 53.6946 96.2456 54.9168 94.5905 55.7826C92.9608 56.6229 91.0765 57.043 88.9376 57.043C86.7987 57.043 84.9016 56.6229 83.2465 55.7826C81.5914 54.9423 80.2928 53.7328 79.3506 52.154C78.4085 50.5498 77.9374 48.6528 77.9374 46.4629Z" fill="#FFD000"/>
<path d="M101.829 53.2617L105.916 48.3345C106.629 49.0475 107.559 49.6968 108.705 50.2825C109.876 50.8681 111.136 51.161 112.486 51.161C113.173 51.161 113.835 51.0209 114.472 50.7408C115.109 50.4607 115.427 49.926 115.427 49.1366C115.427 48.4746 115.083 47.9271 114.396 47.4942C113.708 47.0359 112.728 46.603 111.455 46.1956L110.041 45.7372C108.997 45.3807 107.953 44.9097 106.909 44.324C105.891 43.7129 105.038 42.9363 104.35 41.9941C103.688 41.052 103.357 39.8934 103.357 38.5183C103.357 36.9396 103.726 35.5264 104.465 34.2787C105.229 33.031 106.349 32.0506 107.826 31.3376C109.303 30.5992 111.098 30.23 113.212 30.23C114.892 30.23 116.344 30.421 117.566 30.8029C118.814 31.1849 119.845 31.6305 120.66 32.1397C121.474 32.649 122.073 33.1074 122.455 33.5148L119.017 37.869C118.126 37.207 117.197 36.6722 116.229 36.2648C115.261 35.8319 114.268 35.6155 113.25 35.6155C112.588 35.6155 111.951 35.7683 111.34 36.0738C110.754 36.3539 110.461 36.8505 110.461 37.5635C110.461 38.3528 110.818 38.9258 111.531 39.2822C112.244 39.6387 113.148 39.9952 114.243 40.3517L115.465 40.7337C116.331 40.9883 117.197 41.3193 118.062 41.7267C118.954 42.1087 119.768 42.6052 120.507 43.2164C121.245 43.8275 121.831 44.6041 122.264 45.5463C122.722 46.4629 122.951 47.5961 122.951 48.9456C122.951 50.4989 122.48 51.8867 121.538 53.1089C120.621 54.3312 119.374 55.286 117.795 55.9735C116.242 56.6611 114.51 57.0048 112.6 57.0048C110.054 57.0048 107.915 56.6611 106.184 55.9735C104.478 55.286 103.026 54.3821 101.829 53.2617Z" fill="#FFD000"/>
<path d="M128.577 56.2417V52.2995H124.723V48.4161H128.577V44.415H132.578V48.4161H136.461V52.2995H132.578V56.2417H128.577Z" fill="#FFD000"/>
</svg>
