<svg fill="none" height="64" viewBox="0 0 127 64" width="127" xmlns="http://www.w3.org/2000/svg"><path d="m19.2489 36.7613c-2.379 0-4.5835-.4124-6.6136-1.2371-1.9984-.8247-3.74295-1.9825-5.23379-3.4733-1.45912-1.5226-2.60104-3.2989-3.42576-5.329s-1.23708-4.2505-1.23708-6.6612.41236-4.6311 1.23708-6.6612 1.96664-3.79054 3.42576-5.28138c1.49084-1.49084 3.23539-2.64862 5.23379-3.47334 2.0301-.82472 4.2346-1.23708 6.6136-1.23708s4.5677.41236 6.5661 1.23708c2.03.82472 3.7905 1.9825 5.2813 3.47334 1.4909 1.49084 2.6328 3.25128 3.4258 5.28138.8247 2.0301 1.2371 4.2505 1.2371 6.6612s-.4124 4.6311-1.2371 6.6612c-.793 2.0301-1.9349 3.8064-3.4258 5.329-1.4908 1.4908-3.2513 2.6486-5.2813 3.4733-1.9984.8247-4.1871 1.2371-6.5661 1.2371zm0-7.8983c1.6812 0 3.0927-.3965 4.2346-1.1895 1.1737-.793 2.0618-1.8556 2.6645-3.1879.6027-1.3322.904-2.8072.904-4.4249s-.3013-3.0927-.904-4.4249c-.6027-1.3323-1.4908-2.3949-2.6645-3.1879-1.1419-.793-2.5534-1.1895-4.2346-1.1895-1.6494 0-3.061.3965-4.2346 1.1895-1.1419.793-2.0301 1.8556-2.6645 3.1879-.6027 1.3322-.904 2.8072-.904 4.4249s.3013 3.0927.904 4.4249c.6344 1.3323 1.5226 2.3949 2.6645 3.1879 1.1736.793 2.5852 1.1895 4.2346 1.1895zm27.9142 7.137-11.5143-31.73586h9.1829l7.137 22.07716 6.6612-22.07716h8.9926l-11.5619 31.73586zm23.4897 0v-31.73586h22.8384v7.27976h-14.4167v4.9007h11.8474v6.8515h-11.8474v5.4242h15.4159v7.2797zm28.2042 0v-31.73586h13.132c3.394 0 6.122.88816 8.184 2.66448 2.062 1.7446 3.092 4.32978 3.092 7.75558 0 2.0618-.459 3.8698-1.379 5.4241s-2.141 2.7913-3.664 3.7112l6.804 12.1805h-9.04l-5.377-10.8007h-3.521v10.8007zm8.231-17.4143h4.092c1.11 0 2.014-.333 2.712-.9992.698-.6978 1.047-1.6177 1.047-2.7596 0-1.2054-.333-2.157-.999-2.8548s-1.602-1.0468-2.807-1.0468h-4.045zm-103.91774 44.4143v-2.5374c0-.9009.18386-1.7099.5516-2.427.38612-.7171.87336-1.3606 1.46174-1.9306.58837-.5884 1.21352-1.1216 1.87544-1.5996.66192-.4965 1.28706-.9561 1.87544-1.379.58837-.4229 1.06642-.8274 1.43412-1.2136.3862-.4045.5792-.8182.5792-1.2411 0-.3861-.1655-.7354-.4964-1.048-.331-.331-.83662-.4964-1.51692-.4964-.49644 0-.93772.1103-1.32384.3309-.36774.2023-.68031.4413-.93772.7171-.23903.2758-.43209.5332-.57918.7722l-3.36476-2.3167c.36773-.6067.85498-1.1767 1.46174-1.7099.62514-.5333 1.379-.9653 2.26156-1.2963.90094-.331 1.9306-.4964 3.08896-.4964 1.30546 0 2.40866.2482 3.30956.7446.901.4965 1.5813 1.14 2.041 1.9306.4596.7906.6895 1.618.6895 2.4822 0 .9561-.2299 1.8019-.6895 2.5374-.4597.7171-1.0297 1.3698-1.71 1.9582-.6803.5699-1.3606 1.0848-2.0409 1.5444-.6803.4597-1.25951.901-1.73756 1.3239-.45967.4045-.70789.809-.74466 1.2135h6.97772v4.137zm21.99634.4413c-1.5261 0-2.804-.3861-3.8336-1.1584-1.0297-.7722-1.8019-1.8478-2.3167-3.2268-.5149-1.379-.7723-2.9695-.7723-4.7714 0-1.8203.2574-3.4107.7723-4.7713.5148-1.379 1.287-2.4546 2.3167-3.2269 1.0296-.7722 2.3075-1.1583 3.8336-1.1583 1.618 0 2.9327.3861 3.9439 1.1583 1.0113.7723 1.756 1.8479 2.234 3.2269.4781 1.3606.7171 2.951.7171 4.7713 0 1.8019-.239 3.3924-.7171 4.7714-.478 1.379-1.2227 2.4546-2.234 3.2268-1.0112.7723-2.3259 1.1584-3.9439 1.1584zm0-4.2473c.5884 0 1.0388-.2207 1.3514-.662.3126-.4412.524-1.0296.6344-1.7651.1287-.7538.193-1.5812.193-2.4822 0-.9009-.0643-1.7191-.193-2.4546-.1104-.7539-.3218-1.3514-.6344-1.7927s-.763-.6619-1.3514-.6619-1.0388.2206-1.3514.6619-.5332 1.0388-.6619 1.7927c-.1104.7355-.1655 1.5537-.1655 2.4546 0 .901.0551 1.7284.1655 2.4822.1287.7355.3493 1.3239.6619 1.7651.3126.4413.763.662 1.3514.662zm19.4497 3.806v-7.3363l-6.5364-11.0596h5.5987l3.5854 6.5641 3.3648-6.5641h5.4332l-6.564 11.032v7.3639zm13.3203 0v-18.3959h13.2384v4.2198h-8.3567v2.8407h6.8674v3.9715h-6.8674v3.1442h8.9359v4.2197zm14.8042 0 6.7571-18.3959h5.5988l6.5088 18.3959h-5.2677l-1.186-3.806h-6.1503l-1.2135 3.806zm7.2536-7.3639h4.1645l-2.0409-6.7571zm13.3868 7.3639v-18.3959h7.6118c1.968 0 3.549.5149 4.744 1.5445 1.195 1.0113 1.793 2.5098 1.793 4.4956 0 1.1951-.267 2.2431-.8 3.1441-.533.9009-1.241 1.618-2.124 2.1512l3.944 7.0605h-5.24l-3.117-6.2607h-2.0404v6.2607zm4.7714-10.0943h2.3714c.644 0 1.168-.193 1.572-.5792.405-.4045.607-.9377.607-1.5996 0-.6987-.193-1.2503-.579-1.6548s-.928-.6068-1.627-.6068h-2.3444zm10.7604 7.8327 2.951-3.5578c.515.5148 1.186.9837 2.014 1.4066.845.4229 1.756.6343 2.73.6343.497 0 .975-.1011 1.434-.3033.46-.2023.69-.5884.69-1.1584 0-.4781-.248-.8734-.745-1.1859-.496-.331-1.204-.6436-2.124-.9378l-1.02-.3309c-.754-.2574-1.508-.5976-2.262-1.0205-.735-.4413-1.351-1.0021-1.847-1.6824-.478-.6803-.718-1.5169-.718-2.5097 0-1.14.267-2.1605.8-3.0614.552-.901 1.361-1.6089 2.427-2.1237 1.067-.5332 2.363-.7998 3.889-.7998 1.214 0 2.262.1379 3.144.4137.901.2758 1.646.5976 2.234.9653.589.3677 1.021.6987 1.296.9929l-2.482 3.1441c-.643-.4781-1.314-.8642-2.013-1.1584-.699-.3125-1.416-.4688-2.151-.4688-.478 0-.938.1103-1.379.3309-.423.2023-.635.5608-.635 1.0757 0 .5699.258.9836.773 1.2411.514.2574 1.167.5148 1.958.7722l.882.2758c.625.1839 1.251.4229 1.876.7171.643.2758 1.232.6343 1.765 1.0756s.956 1.0021 1.269 1.6824c.331.6619.496 1.4801.496 2.4546 0 1.1216-.34 2.1237-1.02 3.0062-.662.8826-1.563 1.5721-2.703 2.0685-1.122.4965-2.372.7447-3.751.7447-1.839 0-3.383-.2482-4.634-.7447-1.232-.4964-2.28-1.1491-3.144-1.9582z" fill="#ffd100"/></svg>