<svg fill="none" height="52" viewBox="0 0 123 52" width="123" xmlns="http://www.w3.org/2000/svg"><path d="m.458393 30 10.606007-28.87443h8.7879l10.2165 28.87443h-8.2684l-1.8615-5.974h-9.6537l-1.90474 5.974zm11.385307-11.5584h6.5368l-3.2035-10.60608zm35.976 11.5584v-22.16448h-8.8745v-6.70995h25.4113v6.70995h-8.7879v22.16448zm32.5835.6926c-2.1645 0-4.1703-.3751-6.0173-1.1255-1.8182-.7504-3.4055-1.8038-4.7619-3.1602-1.3276-1.3853-2.3665-3.0014-3.1169-4.8485-.7504-1.847-1.1255-3.8672-1.1255-6.0606 0-2.1933.3751-4.2135 1.1255-6.06055.7504-1.84704 1.7893-3.44877 3.1169-4.80519 1.3564-1.35642 2.9437-2.40981 4.7619-3.16017 1.847-.750363 3.8528-1.125543 6.0173-1.125543s4.1558.37518 5.974 1.125543c1.847.75036 3.4488 1.80375 4.8052 3.16017s2.3954 2.95815 3.1169 4.80519c.7503 1.84705 1.1255 3.86725 1.1255 6.06055 0 2.1934-.3752 4.2136-1.1255 6.0606-.7215 1.8471-1.7605 3.4632-3.1169 4.8485-1.3564 1.3564-2.9582 2.4098-4.8052 3.1602-1.8182.7504-3.8095 1.1255-5.974 1.1255zm0-7.1861c1.5296 0 2.8138-.3608 3.8528-1.0823 1.0678-.7215 1.8759-1.6883 2.4242-2.9004.5484-1.2121.8225-2.5541.8225-4.026 0-1.4718-.2741-2.8138-.8225-4.0259-.5483-1.2121-1.3564-2.17895-2.4242-2.90045-1.039-.7215-2.3232-1.08225-3.8528-1.08225-1.5007 0-2.785.36075-3.8528 1.08225-1.039.7215-1.8471 1.68835-2.4243 2.90045-.5483 1.2121-.8225 2.5541-.8225 4.0259 0 1.4719.2742 2.8139.8225 4.026.5772 1.2121 1.3853 2.1789 2.4243 2.9004 1.0678.7215 2.3521 1.0823 3.8528 1.0823zm19.0787 6.4935v-28.87443h11.7751c3.088 0 5.57.82251 7.446 2.46753 1.876 1.61616 2.814 3.98268 2.814 7.0996 0 1.9624-.433 3.6796-1.299 5.1515-.866 1.443-2.049 2.5685-3.55 3.3766-1.501.7792-3.232 1.1688-5.195 1.1688h-4.502v9.6104zm7.4891-15.6277h3.636c1.039 0 1.862-.3319 2.468-.9957.606-.6637.909-1.5151.909-2.5541 0-1.09665-.289-1.97688-.866-2.64066s-1.428-.99567-2.554-.99567h-3.593zm-106.195787 36.6277v-13.1666h5.369277c1.40812 0 2.53988.3751 3.39528 1.1252.85543.737 1.28313 1.8161 1.28313 3.2374 0 .8948-.1974 1.6779-.5922 2.349-.39483.658-.93439 1.1713-1.61871 1.5397-.68432.3554-1.47392.533-2.3688.533h-2.05296v4.3823zm3.415017-7.1261h1.65816c.47376 0 .84882-.1514 1.12518-.4541.27636-.3026.41454-.6909.41454-1.1646 0-.5001-.1316-.9015-.3948-1.2042-.2632-.3026-.65142-.454-1.16466-.454h-1.63842zm8.36347 7.1261v-13.1666h9.4752v3.0202h-5.9813v2.0333h4.9153v2.8425h-4.9153v2.2504h6.3958v3.0202zm11.7013 0v-13.1666h5.4483c1.4081 0 2.5398.3685 3.3952 1.1055.8554.7238 1.2831 1.7963 1.2831 3.2176 0 .8554-.1908 1.6055-.5724 2.2503-.3817.6449-.8883 1.1581-1.52 1.5398l2.8228 5.0534h-3.7506l-2.2306-4.481h-1.4608v4.481zm3.415-7.2248h1.6977c.4606 0 .8356-.1382 1.1252-.4146.2895-.2895.4342-.6711.4342-1.1449 0-.5001-.1381-.8949-.4145-1.1844s-.6646-.4343-1.1647-.4343h-1.6779zm8.9804 7.2248v-13.1666h9.1791v3.0597h-5.6852v2.5465h4.4021v2.882h-4.4021v4.6784zm16.592.3158c-.987 0-1.9016-.171-2.7438-.5132-.8291-.3422-1.5529-.8225-2.1714-1.441-.6054-.6317-1.0791-1.3687-1.4213-2.2109s-.5132-1.7634-.5132-2.7636.171-1.9214.5132-2.7636.8159-1.5726 1.4213-2.1911c.6185-.6186 1.3423-1.0989 2.1714-1.4411.8422-.3421 1.7568-.5132 2.7438-.5132s1.8951.1711 2.7242.5132c.8422.3422 1.5726.8225 2.1911 1.4411.6185.6185 1.0923 1.3489 1.4213 2.1911.3421.8422.5132 1.7634.5132 2.7636s-.1711 1.9214-.5132 2.7636c-.329.8422-.8028 1.5792-1.4213 2.2109-.6185.6185-1.3489 1.0988-2.1911 1.441-.8291.3422-1.7372.5132-2.7242.5132zm0-3.2768c.6975 0 1.2831-.1645 1.7569-.4935.4869-.329.8554-.7699 1.1054-1.3226.2501-.5527.3751-1.1646.3751-1.8358s-.125-1.2831-.3751-1.8358c-.25-.5527-.6185-.9936-1.1054-1.3226-.4738-.329-1.0594-.4935-1.7569-.4935-.6843 0-1.2699.1645-1.7568.4935-.4738.329-.8423.7699-1.1055 1.3226-.25.5527-.375 1.1646-.375 1.8358s.125 1.2831.375 1.8358c.2632.5527.6317.9936 1.1055 1.3226.4869.329 1.0725.4935 1.7568.4935zm8.6998 2.961v-13.1666h5.4483c1.4081 0 2.5398.3685 3.3952 1.1055.8554.7238 1.2831 1.7963 1.2831 3.2176 0 .8554-.1908 1.6055-.5724 2.2503-.3817.6449-.8883 1.1581-1.52 1.5398l2.8228 5.0534h-3.7506l-2.2306-4.481h-1.4608v4.481zm3.415-7.2248h1.6977c.4606 0 .8356-.1382 1.1252-.4146.2895-.2895.4342-.6711.4342-1.1449 0-.5001-.1381-.8949-.4145-1.1844s-.6646-.4343-1.1647-.4343h-1.6779zm8.704 7.2248.6119-13.1666h3.3361l3.1979 5.7444 3.1386-5.7444h3.3558l.612 13.1666h-3.5335l-.3158-7.7183-2.3096 4.5007h-1.9148l-2.5662-4.5007-.2566 7.7183zm16.3537 0v-13.1666h3.4939v13.1666zm5.8603 0v-13.1666h3.1781l5.0537 7.3433v-7.3433h3.454v13.1666h-2.98l-5.2513-7.5604v7.5604zm20.7648-4.8166v-2.7043h5.409v5.9417c-.79.6712-1.698 1.1581-2.724 1.4608-1.027.2895-2.047.4342-3.06.4342-1.421 0-2.645-.2829-3.672-.8488-1.026-.5659-1.816-1.362-2.369-2.3885-.539-1.0397-.809-2.2701-.809-3.6914 0-1.3423.29-2.5333.869-3.5729.579-1.0397 1.381-1.8556 2.408-2.4478 1.04-.5922 2.231-.8883 3.573-.8883 1.092 0 2.112.1842 3.06.5527.96.3553 1.763.9541 2.408 1.7964l-2.27 2.2898c-.408-.408-.849-.7435-1.323-1.0067-.46-.2632-1-.3948-1.618-.3948-.751 0-1.389.171-1.915.5132-.527.329-.928.7764-1.204 1.3423-.264.5527-.395 1.1778-.395 1.8753 0 1.1186.322 2.0201.967 2.7044.645.6712 1.5 1.0067 2.566 1.0067.435 0 .849-.0526 1.244-.1579.395-.1184.776-.3027 1.145-.5527v-1.2634z" fill="#fff"/></svg>