<svg width="123" height="82" viewBox="0 0 123 82" fill="none" xmlns="http://www.w3.org/2000/svg">
<path d="M5.06919 17V4.92704H0.235291V1.27214H14.0768V4.92704H9.29001V17H5.06919ZM15.962 17V1.27214H20.1357V7.02566H25.9364V1.27214H30.11V17H25.9364V10.8456H20.1357V17H15.962ZM31.6127 17L37.3898 1.27214H42.1766L47.7414 17H43.2377L42.2237 13.746H36.9654L35.9279 17H31.6127ZM37.8143 10.7041H41.3748L39.6299 4.92704L37.8143 10.7041ZM50.5482 17V4.92704H45.7143V1.27214H59.5558V4.92704H54.769V17H50.5482ZM65.7011 17V1.27214H72.1149C73.7969 1.27214 75.1488 1.72016 76.1706 2.6162C77.1924 3.49652 77.7033 4.78556 77.7033 6.48332C77.7033 7.55228 77.4675 8.48762 76.9959 9.28934C76.5243 10.0753 75.8798 10.6884 75.0624 11.1286C74.2449 11.553 73.3017 11.7652 72.2328 11.7652H69.7804V17H65.7011ZM69.7804 8.48762H71.7612C72.3271 8.48762 72.7751 8.30684 73.1052 7.94528C73.4353 7.58372 73.6004 7.11998 73.6004 6.55406C73.6004 5.9567 73.4432 5.47724 73.1288 5.11568C72.8144 4.75412 72.3507 4.57334 71.7376 4.57334H69.7804V8.48762ZM79.6765 10.8692V1.27214H83.8502V10.4919C83.8502 11.3565 84.0467 12.0639 84.4397 12.6141C84.8484 13.1643 85.5165 13.4394 86.444 13.4394C87.3714 13.4394 88.0317 13.1643 88.4247 12.6141C88.8177 12.0482 89.0142 11.3408 89.0142 10.4919V1.27214H93.235V10.8692C93.235 12.2054 92.9442 13.3687 92.3625 14.359C91.7809 15.3337 90.9792 16.0882 89.9574 16.6227C88.9513 17.1415 87.788 17.4009 86.4675 17.4009C85.1471 17.4009 83.9759 17.1415 82.9541 16.6227C81.9323 16.104 81.1306 15.3573 80.549 14.3826C79.9673 13.3923 79.6765 12.2211 79.6765 10.8692ZM99.8497 17V4.92704H95.0158V1.27214H108.857V4.92704H104.071V17H99.8497ZM109.446 15.0664L111.969 12.0246C112.409 12.4648 112.983 12.8656 113.69 13.2272C114.413 13.5888 115.191 13.7695 116.025 13.7695C116.449 13.7695 116.858 13.6831 117.251 13.5102C117.644 13.3372 117.84 13.0071 117.84 12.5198C117.84 12.1111 117.628 11.7731 117.204 11.5059C116.779 11.2229 116.174 10.9557 115.388 10.7041L114.515 10.4212C113.871 10.2011 113.226 9.91028 112.582 9.54872C111.953 9.17144 111.426 8.69198 111.002 8.11034C110.593 7.5287 110.389 6.81344 110.389 5.96456C110.389 4.98992 110.617 4.11746 111.073 3.34718C111.544 2.5769 112.236 1.97168 113.148 1.53152C114.06 1.07564 115.168 0.847699 116.473 0.847699C117.51 0.847699 118.406 0.965599 119.161 1.2014C119.931 1.4372 120.568 1.7123 121.071 2.0267C121.574 2.3411 121.943 2.62406 122.179 2.87558L120.057 5.5637C119.506 5.15498 118.933 4.82486 118.335 4.57334C117.738 4.3061 117.125 4.17248 116.496 4.17248C116.087 4.17248 115.694 4.2668 115.317 4.45544C114.956 4.62836 114.775 4.9349 114.775 5.37506C114.775 5.86238 114.995 6.21608 115.435 6.43616C115.875 6.65624 116.433 6.87632 117.109 7.0964L117.864 7.3322C118.398 7.4894 118.933 7.69376 119.467 7.94528C120.017 8.18108 120.52 8.48762 120.976 8.8649C121.432 9.24218 121.794 9.72164 122.061 10.3033C122.344 10.8692 122.485 11.5687 122.485 12.4019C122.485 13.3608 122.195 14.2176 121.613 14.9721C121.047 15.7267 120.277 16.3162 119.302 16.7406C118.343 17.1651 117.274 17.3773 116.095 17.3773C114.523 17.3773 113.203 17.1651 112.134 16.7406C111.081 16.3162 110.185 15.7581 109.446 15.0664ZM0.854096 42L1.67808 24.2711H6.1701L10.4761 32.0059L14.7023 24.2711H19.2209L20.0449 42H15.287L14.8618 31.6072L11.7519 37.6675H9.17364L5.71824 31.6072L5.3727 42H0.854096ZM22.8744 42V24.2711H35.6328V28.3379H27.579V31.0756H34.1975V34.9031H27.579V37.9333H36.191V42H22.8744ZM38.2582 42L39.0822 24.2711H43.5742L47.8801 32.0059L52.1064 24.2711H56.625L57.4489 42H52.6911L52.2658 31.6072L49.156 37.6675H46.5777L43.1223 31.6072L42.7768 42H38.2582ZM60.2785 42V24.2711H67.4816C68.7398 24.2711 69.7764 24.404 70.5915 24.6698C71.4066 24.9356 72.0445 25.2989 72.5053 25.7596C72.966 26.2026 73.2938 26.6988 73.4887 27.2481C73.6836 27.7797 73.7811 28.329 73.7811 28.8961C73.7811 29.5694 73.6393 30.163 73.3558 30.6769C73.0723 31.1731 72.7268 31.5895 72.3192 31.9262C71.9294 32.2451 71.5572 32.4666 71.2028 32.5907C71.6458 32.7147 72.142 32.9539 72.6913 33.3083C73.2406 33.645 73.7191 34.1146 74.1266 34.7171C74.5342 35.3018 74.738 36.0372 74.738 36.9232C74.738 38.6775 74.1178 39.9622 72.8774 40.7773C71.6547 41.5924 69.8561 42 67.4816 42H60.2785ZM64.8768 31.3946H66.9235C67.4728 31.3946 67.9601 31.2617 68.3854 30.9959C68.8284 30.7124 69.0499 30.2339 69.0499 29.5606C69.0499 28.7986 68.8195 28.2847 68.3588 28.0189C67.9158 27.7531 67.4373 27.6202 66.9235 27.6202H64.8768V31.3946ZM64.8768 38.6509H67.269C67.6411 38.6509 68.031 38.6066 68.4385 38.518C68.8638 38.4294 69.2182 38.2345 69.5017 37.9333C69.803 37.632 69.9536 37.1624 69.9536 36.5245C69.9536 35.922 69.803 35.479 69.5017 35.1955C69.2182 34.8943 68.8638 34.6994 68.4385 34.6108C68.031 34.5044 67.6411 34.4513 67.269 34.4513H64.8768V38.6509ZM77.0986 42V24.2711H89.857V28.3379H81.8033V31.0756H88.4217V34.9031H81.8033V37.9333H90.4152V42H77.0986ZM92.8545 42V24.2711H100.191C102.087 24.2711 103.611 24.7673 104.762 25.7596C105.914 26.7342 106.49 28.1784 106.49 30.0922C106.49 31.244 106.233 32.254 105.719 33.1223C105.205 33.9906 104.523 34.6816 103.673 35.1955L107.474 42H102.423L99.4198 35.9663H97.4529V42H92.8545ZM97.4529 32.2717H99.7388C100.359 32.2717 100.864 32.0857 101.254 31.7135C101.644 31.3237 101.839 30.8098 101.839 30.1719C101.839 29.4985 101.653 28.9669 101.28 28.5771C100.908 28.1873 100.386 27.9923 99.7122 27.9923H97.4529V32.2717ZM107.823 39.8204L110.667 36.3916C111.164 36.8878 111.81 37.3396 112.608 37.7472C113.423 38.1548 114.3 38.3585 115.239 38.3585C115.718 38.3585 116.178 38.2611 116.621 38.0662C117.064 37.8712 117.286 37.4991 117.286 36.9498C117.286 36.4891 117.047 36.1081 116.568 35.8069C116.09 35.4879 115.408 35.1867 114.522 34.9031L113.538 34.5842C112.812 34.3361 112.085 34.0083 111.359 33.6007C110.65 33.1754 110.056 32.635 109.578 31.9793C109.117 31.3237 108.887 30.5174 108.887 29.5606C108.887 28.4619 109.144 27.4785 109.657 26.6102C110.189 25.7419 110.969 25.0597 111.996 24.5635C113.024 24.0496 114.274 23.7927 115.744 23.7927C116.914 23.7927 117.924 23.9256 118.774 24.1914C119.643 24.4572 120.36 24.7673 120.927 25.1217C121.494 25.4761 121.911 25.7951 122.177 26.0786L119.784 29.1087C119.164 28.648 118.517 28.2759 117.844 27.9923C117.171 27.6911 116.48 27.5405 115.771 27.5405C115.31 27.5405 114.867 27.6468 114.442 27.8594C114.034 28.0544 113.831 28.3999 113.831 28.8961C113.831 29.4454 114.079 29.8441 114.575 30.0922C115.071 30.3402 115.7 30.5883 116.462 30.8364L117.312 31.1022C117.915 31.2794 118.517 31.5098 119.12 31.7933C119.74 32.0591 120.307 32.4046 120.821 32.8299C121.335 33.2552 121.742 33.7956 122.044 34.4513C122.363 35.0892 122.522 35.8777 122.522 36.8169C122.522 37.8978 122.194 38.8636 121.539 39.7141C120.901 40.5647 120.033 41.2292 118.934 41.7076C117.853 42.1861 116.648 42.4253 115.319 42.4253C113.547 42.4253 112.059 42.1861 110.854 41.7076C109.666 41.2292 108.656 40.6001 107.823 39.8204ZM1.95311 81V49.9311H23.6128V57.151H10.1978V63.1599H20.5851V69.9605H10.1978V81H1.95311ZM27.3356 81V49.9311H35.5802V81H27.3356ZM41.164 81V49.9311H54.0201C57.3428 49.9311 60.0134 50.8006 62.0319 52.5396C64.0503 54.2476 65.0596 56.7784 65.0596 60.1322C65.0596 62.1506 64.6093 63.9207 63.7087 65.4423C62.8082 66.9639 61.6126 68.175 60.1221 69.0755L66.783 81H57.9328L52.6693 70.4263H49.2224V81H41.164ZM49.2224 63.9517H53.2282C54.3151 63.9517 55.2001 63.6257 55.8833 62.9735C56.5665 62.2904 56.9081 61.3898 56.9081 60.2719C56.9081 59.0919 56.582 58.1603 55.9299 57.4771C55.2778 56.7939 54.3617 56.4523 53.1817 56.4523H49.2224V63.9517ZM67.3962 77.1804L72.3803 71.1716C73.2497 72.0411 74.3832 72.833 75.7806 73.5472C77.209 74.2614 78.7462 74.6185 80.392 74.6185C81.2305 74.6185 82.0378 74.4477 82.8142 74.1062C83.5905 73.7646 83.9787 73.1125 83.9787 72.1498C83.9787 71.3424 83.5595 70.6748 82.721 70.1469C81.8826 69.5879 80.687 69.06 79.1344 68.5631L77.4109 68.0042C76.1377 67.5694 74.8645 66.9949 73.5913 66.2807C72.3492 65.5354 71.3089 64.5883 70.4705 63.4393C69.6631 62.2904 69.2594 60.8774 69.2594 59.2006C69.2594 57.2753 69.7097 55.5518 70.6102 54.0302C71.5418 52.5086 72.9082 51.313 74.7093 50.4435C76.5103 49.543 78.6996 49.0927 81.277 49.0927C83.3266 49.0927 85.0966 49.3256 86.5872 49.7914C88.1088 50.2572 89.3664 50.8006 90.3601 51.4217C91.3538 52.0428 92.0836 52.6017 92.5494 53.0986L88.3572 58.4087C87.2703 57.6013 86.1369 56.9492 84.9569 56.4523C83.7768 55.9244 82.5657 55.6605 81.3236 55.6605C80.5162 55.6605 79.7399 55.8468 78.9946 56.2194C78.2804 56.561 77.9233 57.1666 77.9233 58.0361C77.9233 58.9987 78.358 59.6974 79.2275 60.1322C80.097 60.5669 81.1994 61.0017 82.5347 61.4364L84.0253 61.9022C85.0811 62.2127 86.1369 62.6164 87.1927 63.1133C88.2796 63.5791 89.2733 64.1846 90.1738 64.9299C91.0744 65.6752 91.7886 66.6223 92.3165 67.7713C92.8755 68.8892 93.1549 70.2711 93.1549 71.9169C93.1549 73.8112 92.5804 75.5036 91.4315 76.9941C90.3136 78.4847 88.7919 79.6492 86.8666 80.4876C84.9724 81.3261 82.8608 81.7453 80.5318 81.7453C77.4264 81.7453 74.8179 81.3261 72.7063 80.4876C70.6257 79.6492 68.8557 78.5468 67.3962 77.1804ZM105.119 81V57.151H95.5698V49.9311H122.912V57.151H113.457V81H105.119Z" fill="#FFD000"/>
</svg>
