<svg id="Layer_1" data-name="Layer 1" xmlns="http://www.w3.org/2000/svg" width="160" height="600" version="1.1" viewBox="0 0 160 600">
  <path d="M11.5,550v-6.7h1v6.7h-1ZM13.6,549.4l.6-.6c.2.2.4.3.6.4.2.1.5.2.8.2s.5,0,.8-.1c.2,0,.3-.3.3-.5s0-.3-.1-.4c0,0-.2-.2-.4-.2-.2,0-.5-.2-.8-.2-.2,0-.5-.1-.7-.2-.2-.1-.4-.2-.6-.4-.1-.2-.2-.4-.2-.7s0-.6.3-.8c.2-.2.4-.4.7-.5.3-.1.6-.2.9-.2s.7,0,1,.2c.3.1.5.2.7.4l-.5.6c-.1-.1-.3-.2-.5-.3-.2,0-.4-.1-.7-.1s-.5,0-.7.1c-.2,0-.3.2-.3.5s.1.3.3.5c.2,0,.5.2.9.3.3,0,.6.2.8.3.2.1.4.3.6.4.1.2.2.4.2.7s0,.6-.3.8c-.2.2-.4.4-.7.5-.3.1-.6.2-.9.2-.9,0-1.5-.2-2-.7ZM18.3,549.4l.6-.6c.2.2.4.3.6.4.2.1.5.2.8.2s.5,0,.8-.1c.2,0,.3-.3.3-.5s0-.3-.1-.4c0,0-.2-.2-.4-.2-.2,0-.5-.2-.8-.2-.2,0-.5-.1-.7-.2-.2-.1-.4-.2-.6-.4-.1-.2-.2-.4-.2-.7s0-.6.3-.8c.2-.2.4-.4.7-.5.3-.1.6-.2.9-.2s.7,0,1,.2c.3.1.5.2.7.4l-.5.6c-.1-.1-.3-.2-.5-.3-.2,0-.5-.1-.7-.1s-.5,0-.7.1c-.2,0-.3.2-.3.5s.1.3.4.5c.2,0,.5.2.9.3.3,0,.6.2.8.3.2.1.4.3.6.4.1.2.2.4.2.7s0,.6-.3.8c-.2.2-.4.4-.7.5-.3.1-.6.2-1,.2-.9,0-1.5-.2-2-.7ZM23.2,548.1v-2.8h.9v2.7c0,.4,0,.8.3,1,.2.2.4.3.8.3s.6,0,.8-.3c.2-.2.3-.4.4-.7,0-.3.1-.6.1-.9v-2.2h.9v4.4c0,0,0,.2,0,.3h-.9v-.7c-.1.1-.2.2-.3.3-.1.1-.3.2-.5.3-.2,0-.4.1-.7.1-.6,0-1.1-.2-1.3-.5-.3-.4-.4-.8-.4-1.4ZM32.4,548.8l.5.5c0,0-.2.2-.4.3-.2.1-.4.2-.7.3-.3.1-.6.2-1,.2s-.9-.1-1.3-.3c-.4-.2-.7-.5-.9-.9-.2-.4-.3-.8-.3-1.3s0-.9.3-1.2c.2-.4.5-.7.8-.9.4-.2.8-.3,1.2-.3s1,.1,1.3.4c.3.3.6.6.7,1,.2.4.2.9.2,1.3h-3.7c0,.3,0,.5.2.7.1.2.3.4.6.5.2.1.5.2.8.2.4,0,.7,0,1-.2.3-.1.4-.3.5-.4ZM29.4,547.3h2.7c0-.4-.2-.7-.4-.9-.2-.3-.5-.4-1-.4s-.5,0-.7.2c-.2.1-.4.3-.5.5-.1.2-.2.4-.2.6ZM37.4,550v-.6c0,0-.2.1-.3.3-.1.1-.3.2-.5.3-.2,0-.5.1-.8.1s-.7,0-1.1-.3c-.3-.2-.6-.5-.7-.8-.2-.4-.3-.8-.3-1.3s0-.8.2-1.1c.2-.3.4-.6.6-.8.2-.2.5-.3.8-.4.3-.1.5-.2.8-.2s.5,0,.7,0c.2,0,.4.1.6.2v-2.2h.9v6.4c0,0,0,.2,0,.3h-.9ZM37.4,548v-1.7c-.1,0-.3-.2-.5-.2-.2,0-.4,0-.7,0-.4,0-.8.2-1.1.5-.3.3-.4.7-.4,1.3s0,.6.1.8c.1.2.2.4.5.6.2.1.5.2.8.2s.6,0,.8-.2c.2-.1.3-.3.4-.5,0-.2.1-.4.1-.6ZM41.4,549.8v-6.5h.9v2.5c0-.1.3-.3.5-.4.2-.1.6-.2.9-.2s.8.1,1.2.3c.3.2.6.5.7.9.2.4.2.8.2,1.2s-.1.9-.3,1.3c-.2.4-.5.7-.9.9-.4.2-.8.3-1.4.3s-.7,0-1.1,0c-.3,0-.6-.1-.8-.2ZM42.2,547.4v1.8c0,0,.2,0,.3,0,.1,0,.3,0,.6,0,.5,0,.9-.2,1.2-.5.3-.3.5-.7.5-1.2s0-.6-.1-.8c0-.2-.2-.4-.4-.6-.2-.2-.5-.2-.8-.2s-.5,0-.7.2c-.2.1-.3.3-.4.5,0,.2-.1.4-.1.7ZM46.2,551.8l.4-.6c0,0,.1.1.2.2,0,0,.2,0,.3,0,.2,0,.4,0,.5-.3.1-.2.2-.5.4-.8v-.3c.1,0-2-4.6-2-4.6h1l1.5,3.5,1.3-3.5h1l-1.9,4.5c0,.2-.2.4-.3.7,0,.3-.2.5-.3.7-.1.2-.3.4-.5.6-.2.2-.4.2-.7.2s-.4,0-.6,0c-.2,0-.3-.1-.4-.2ZM53.5,550v-6.7h1v2.8h3.7v-2.8h1v6.7h-1v-3h-3.7v3h-1ZM62.7,550.1c-.5,0-.9-.1-1.3-.3-.4-.2-.7-.5-.9-.9-.2-.4-.3-.8-.3-1.2s.1-.9.3-1.2c.2-.4.5-.7.9-.9.4-.2.8-.3,1.3-.3s.9.1,1.3.3c.4.2.7.5.9.9.2.4.3.8.3,1.2s-.1.9-.3,1.2c-.2.4-.5.7-.9.9-.4.2-.8.3-1.3.3ZM62.7,549.4c.3,0,.6,0,.8-.2.2-.2.4-.4.5-.6.1-.3.2-.5.2-.8s0-.5-.2-.8c-.1-.3-.3-.5-.5-.6-.2-.2-.5-.2-.8-.2s-.6,0-.8.2c-.2.2-.4.4-.5.6-.1.3-.2.5-.2.8s0,.5.2.8c.1.3.3.5.5.6.2.2.5.2.8.2ZM66,549.4l.6-.6c.2.2.4.3.6.4.2.1.5.2.8.2s.5,0,.8-.1c.2,0,.3-.3.3-.5s0-.3-.1-.4c0,0-.2-.2-.4-.2-.2,0-.5-.2-.8-.2-.2,0-.5-.1-.7-.2-.2-.1-.4-.2-.6-.4-.1-.2-.2-.4-.2-.7s0-.6.3-.8c.2-.2.4-.4.7-.5.3-.1.6-.2.9-.2s.7,0,1,.2c.3.1.5.2.7.4l-.5.6c-.1-.1-.3-.2-.5-.3-.2,0-.4-.1-.7-.1s-.5,0-.7.1c-.2,0-.3.2-.3.5s.1.3.3.5c.2,0,.5.2.9.3.3,0,.6.2.8.3.2.1.4.3.6.4.1.2.2.4.2.7s0,.6-.3.8c-.2.2-.4.4-.7.5-.3.1-.6.2-.9.2-.9,0-1.5-.2-2-.7ZM71.3,548.5v-2.4h-.8v-.8h.8v-1.5h.9v1.5h1.4v.8h-1.4v2.3c0,.4,0,.6.2.8.1.1.3.2.5.2s.3,0,.4,0c.1,0,.2-.1.3-.2l.4.5c-.2.2-.4.3-.6.4-.2,0-.4.1-.7.1-.5,0-.8-.1-1.1-.4-.2-.3-.3-.7-.3-1.2ZM74.6,547.6v-.9h2.9v.9h-2.9ZM79,550v-6.7h2.1c.5,0,.8,0,1.1.2.3.1.5.3.7.5.2.2.3.4.4.7,0,.2.1.5.1.7,0,.4,0,.8-.3,1.1-.2.3-.5.5-.8.7-.3.2-.7.2-1.2.2h-1.2v2.6h-.9ZM80,546.6h1.2c.4,0,.7-.1,1-.3.2-.2.3-.5.3-.9s-.1-.7-.3-.9c-.2-.2-.5-.3-.9-.3h-1.2v2.4ZM84.3,550v-6.7h.9v6.7h-.9ZM86.4,548.1v-2.8h.9v2.7c0,.4,0,.8.3,1,.2.2.4.3.8.3s.6,0,.8-.3c.2-.2.3-.4.4-.7,0-.3.1-.6.1-.9v-2.2h.9v4.4c0,0,0,.2,0,.3h-.9v-.7c-.1.1-.2.2-.3.3-.1.1-.3.2-.5.3-.2,0-.4.1-.7.1-.6,0-1.1-.2-1.3-.5-.3-.4-.4-.8-.4-1.4ZM91.6,549.4l.5-.6c.2.2.4.3.6.4.2.1.5.2.8.2s.6,0,.8-.1c.2,0,.3-.3.3-.5s0-.3-.1-.4c0,0-.2-.2-.4-.2-.2,0-.5-.2-.8-.2-.2,0-.5-.1-.7-.2-.2-.1-.4-.2-.6-.4-.1-.2-.2-.4-.2-.7s0-.6.3-.8c.2-.2.4-.4.7-.5.3-.1.6-.2.9-.2s.7,0,1,.2c.3.1.5.2.7.4l-.5.6c-.1-.1-.3-.2-.5-.3-.2,0-.4-.1-.7-.1s-.5,0-.7.1c-.2,0-.3.2-.3.5s.1.3.4.5c.2,0,.5.2.9.3.3,0,.6.2.8.3.2.1.4.3.6.4.1.2.2.4.2.7s0,.6-.3.8c-.2.2-.4.4-.7.5-.3.1-.6.2-1,.2-.9,0-1.5-.2-2-.7ZM98.5,550v-6.7h2.1c.5,0,.8,0,1.1.2.3.1.5.3.7.5.2.2.3.4.4.7,0,.2.1.5.1.7,0,.4,0,.8-.3,1.1-.2.3-.5.5-.8.7-.3.2-.7.2-1.2.2h-1.2v2.6h-.9ZM99.5,546.6h1.2c.4,0,.7-.1.9-.3.2-.2.3-.5.3-.9s-.1-.7-.3-.9c-.2-.2-.5-.3-.9-.3h-1.2v2.4ZM104.5,548.5v-2.4h-.8v-.8h.8v-1.5h.9v1.5h1.4v.8h-1.4v2.3c0,.4,0,.6.2.8.1.1.3.2.5.2s.3,0,.4,0c.1,0,.2-.1.3-.2l.4.5c-.2.2-.4.3-.6.4-.2,0-.4.1-.7.1-.5,0-.8-.1-1.1-.4-.2-.3-.3-.7-.3-1.2ZM107.3,551.8l.4-.6c0,0,.1.1.2.2,0,0,.2,0,.3,0,.2,0,.4,0,.5-.3.1-.2.2-.5.4-.8v-.3c.1,0-2-4.6-2-4.6h1l1.5,3.5,1.3-3.5h1l-1.9,4.5c0,.2-.2.4-.3.7,0,.3-.2.5-.3.7-.1.2-.3.4-.5.6-.2.2-.4.2-.7.2s-.4,0-.6,0c-.2,0-.3-.1-.4-.2ZM114.7,550v-6.7h1v5.8h3.5v.8h-4.4ZM120,544.5v-1h1v1h-1ZM120.1,550v-4.7h.9v4.7h-.9ZM123.1,550h-.9v-4.3c0,0,0-.2,0-.3h.9v.7c.1-.1.2-.2.3-.3.1-.1.3-.2.5-.3.2,0,.4-.1.7-.1s.7,0,.9.2c.2.1.4.3.6.6.2-.2.4-.4.7-.6.3-.2.6-.3,1-.3.6,0,1,.2,1.3.5.3.4.4.8.4,1.4v2.8h-.9v-2.7c0-.8-.3-1.3-1-1.3s-.5,0-.7.2c-.2.1-.3.3-.5.5-.1.2-.2.4-.2.7v2.6h-.9v-2.7c0-.4,0-.8-.3-1-.2-.2-.4-.3-.7-.3s-.6,0-.8.3c-.2.2-.3.4-.4.7,0,.3-.1.6-.1.9v2.2ZM130.7,544.5v-1h1v1h-1ZM130.8,550v-4.7h.9v4.7h-.9ZM133.3,548.5v-2.4h-.8v-.8h.8v-1.5h.9v1.5h1.4v.8h-1.4v2.3c0,.4,0,.6.2.8.1.1.3.2.5.2s.3,0,.4,0c.1,0,.2-.1.3-.2l.4.5c-.2.2-.4.3-.6.4-.2,0-.4.1-.7.1-.5,0-.8-.1-1.1-.4-.2-.3-.3-.7-.3-1.2ZM140.2,548.8l.5.5c0,0-.2.2-.4.3-.2.1-.4.2-.7.3-.3.1-.6.2-1,.2s-.9-.1-1.3-.3c-.4-.2-.7-.5-.9-.9-.2-.4-.3-.8-.3-1.3s0-.9.3-1.2c.2-.4.5-.7.8-.9.4-.2.8-.3,1.2-.3s1,.1,1.3.4c.3.3.6.6.7,1,.2.4.2.9.2,1.3h-3.7c0,.3,0,.5.2.7.1.2.3.4.6.5.2.1.5.2.8.2.4,0,.7,0,1-.2.3-.1.4-.3.5-.4ZM137.2,547.3h2.7c0-.4-.2-.7-.4-.9-.2-.3-.5-.4-1-.4s-.5,0-.7.2c-.2.1-.4.3-.5.5-.1.2-.2.4-.2.6ZM145.2,550v-.6c0,0-.2.1-.3.3-.1.1-.3.2-.5.3-.2,0-.5.1-.8.1s-.7,0-1.1-.3c-.3-.2-.6-.5-.7-.8-.2-.4-.3-.8-.3-1.3s0-.8.2-1.1c.2-.3.3-.6.6-.8s.5-.3.8-.4c.3-.1.5-.2.8-.2s.5,0,.7,0c.2,0,.4.1.6.2v-2.2h.9v6.4c0,0,0,.2,0,.3h-.9ZM145.2,548v-1.7c-.1,0-.3-.2-.5-.2-.2,0-.4,0-.7,0-.4,0-.8.2-1.1.5-.3.3-.4.7-.4,1.3s0,.6.1.8c.1.2.2.4.4.6.2.1.5.2.8.2s.6,0,.8-.2c.2-.1.3-.3.4-.5,0-.2.1-.4.1-.6ZM147.4,550v-1.1h1.1v1.1h-1.1ZM21,557.4v-.8h2.3v2.7c-.2.2-.6.4-1,.6-.4.2-1,.3-1.6.3s-1.3-.1-1.8-.4c-.5-.3-.9-.7-1.2-1.2-.3-.5-.4-1.1-.4-1.8s0-.9.2-1.4c.2-.4.4-.8.7-1.1.3-.3.7-.6,1.1-.8.4-.2.9-.3,1.4-.3s.9,0,1.2.2c.3.1.6.3.9.5.2.2.4.4.5.6l-.7.6c-.1-.2-.2-.3-.4-.5-.2-.2-.4-.3-.6-.4-.2-.1-.5-.2-.9-.2-.5,0-.9.1-1.3.4-.4.2-.6.6-.8,1-.2.4-.3.8-.3,1.3s.1,1,.3,1.4c.2.4.5.7.9.9.4.2.8.3,1.2.3s.7,0,1-.1c.3,0,.5-.2.7-.4v-1.4h-1.4ZM28.4,558.8l.5.5c0,0-.2.2-.4.3-.2.1-.4.2-.7.3-.3.1-.6.2-1,.2s-.9-.1-1.3-.3c-.4-.2-.7-.5-.9-.9-.2-.4-.3-.8-.3-1.3s0-.9.3-1.2c.2-.4.5-.7.8-.9.4-.2.8-.3,1.2-.3s1,.1,1.3.4c.3.3.6.6.7,1,.2.4.2.9.2,1.3h-3.7c0,.3,0,.5.2.7.1.2.3.4.5.5.2.1.5.2.8.2.4,0,.7,0,1-.2.3-.1.4-.3.6-.4ZM25.4,557.3h2.7c0-.4-.2-.7-.4-.9-.2-.3-.5-.4-1-.4s-.5,0-.7.2c-.2.1-.4.3-.5.5-.1.2-.2.4-.2.6ZM30.9,560h-.9v-4.3c0,0,0-.2,0-.3h.9v.7c.1-.1.2-.2.4-.3.1-.1.3-.2.5-.3.2,0,.5-.1.7-.1.6,0,1.1.2,1.4.5.3.4.4.8.4,1.4v2.8h-.9v-2.7c0-.4,0-.8-.3-1-.2-.2-.4-.3-.8-.3s-.6,0-.8.3c-.2.2-.3.4-.4.7,0,.3-.1.6-.1.9v2.2ZM39.2,558.8l.5.5c0,0-.2.2-.4.3-.2.1-.4.2-.7.3-.3.1-.6.2-1,.2s-.9-.1-1.3-.3c-.4-.2-.7-.5-.9-.9-.2-.4-.3-.8-.3-1.3s0-.9.3-1.2c.2-.4.5-.7.8-.9.4-.2.8-.3,1.2-.3s1,.1,1.3.4c.3.3.6.6.7,1,.2.4.2.9.2,1.3h-3.7c0,.3,0,.5.2.7.1.2.3.4.5.5.2.1.5.2.8.2.4,0,.7,0,1-.2.3-.1.4-.3.5-.4ZM36.2,557.3h2.7c0-.4-.2-.7-.4-.9-.2-.3-.5-.4-1-.4s-.5,0-.7.2c-.2.1-.4.3-.5.5-.1.2-.2.4-.2.6ZM41.7,560h-.9v-4.4c0,0,0-.2,0-.3h.9v.8c.1-.1.2-.2.3-.3.1-.1.3-.2.5-.3.2,0,.4-.1.7-.1s.2,0,.3,0c0,0,.2,0,.2,0l-.2.8c-.1,0-.3,0-.5,0s-.5,0-.7.2c-.2.1-.4.3-.5.5-.1.2-.2.4-.2.7v2.5ZM47.3,560v-.6c-.2.2-.4.4-.7.5-.3.1-.6.2-.9.2s-.5,0-.8-.1c-.2,0-.5-.2-.6-.5-.2-.2-.2-.5-.2-.9,0-.5.2-.9.5-1.2.4-.3.9-.4,1.5-.4s.3,0,.5,0c.2,0,.3,0,.4,0,.1,0,.2,0,.2,0v-.2c0-.3-.1-.6-.3-.7-.2-.2-.5-.2-.8-.2s-.6,0-.8.1c-.2,0-.4.2-.5.3l-.4-.6c.2-.1.4-.3.7-.4.3-.1.7-.2,1.2-.2s1.1.1,1.4.4c.3.3.5.7.5,1.2v2.9c0,0,0,.1,0,.2h-.8ZM47.2,558.3v-.5s-.1,0-.2,0c-.1,0-.3,0-.4,0-.1,0-.3,0-.4,0-.3,0-.6,0-.8.2-.2,0-.3.2-.4.4,0,.1,0,.3,0,.4,0,.2,0,.4.3.6.2.1.4.2.7.2s.4,0,.6-.1c.2-.1.4-.2.5-.4.1-.2.2-.3.2-.5ZM49.3,560v-6.7h.9v6.7h-.9ZM56.2,560v-.6c-.2.2-.4.4-.7.5-.3.1-.6.2-.9.2s-.5,0-.8-.1c-.2,0-.5-.2-.6-.5-.2-.2-.2-.5-.2-.9,0-.5.2-.9.5-1.2.4-.3.9-.4,1.5-.4s.3,0,.5,0c.2,0,.3,0,.4,0,.1,0,.2,0,.2,0v-.2c0-.3-.1-.6-.3-.7-.2-.2-.5-.2-.8-.2s-.6,0-.8.1c-.2,0-.4.2-.5.3l-.4-.6c.2-.1.4-.3.7-.4.3-.1.7-.2,1.2-.2s1.1.1,1.4.4c.3.3.5.7.5,1.2v2.9c0,0,0,.1,0,.2h-.8ZM56.1,558.3v-.5s-.1,0-.2,0c-.1,0-.3,0-.4,0-.1,0-.3,0-.4,0-.3,0-.6,0-.8.2-.2,0-.3.2-.4.4,0,.1,0,.3,0,.4,0,.2,0,.4.3.6.2.1.4.2.7.2s.4,0,.6-.1c.2-.1.4-.2.5-.4.1-.2.2-.3.2-.5ZM61.6,560v-.6c0,0-.2.1-.3.3-.1.1-.3.2-.5.3-.2,0-.5.1-.8.1s-.7,0-1.1-.3c-.3-.2-.6-.5-.7-.8s-.3-.8-.3-1.3,0-.8.2-1.1c.2-.3.4-.6.6-.8.2-.2.5-.3.8-.4.3-.1.5-.2.8-.2s.5,0,.6,0c.2,0,.4.1.6.2v-2.2h.9v6.4c0,0,0,.2,0,.3h-.9ZM61.6,558v-1.7c-.1,0-.3-.2-.5-.2-.2,0-.4,0-.7,0-.4,0-.8.2-1.1.5-.3.3-.4.7-.4,1.3s0,.6.1.8c0,.2.2.4.5.6.2.1.5.2.8.2s.6,0,.8-.2c.2-.1.3-.3.4-.5,0-.2.1-.4.1-.6ZM65.2,560l-2-4.7h1l1.4,3.6,1.4-3.6h1l-2,4.7h-.9ZM68.7,554.5v-1h1v1h-1ZM68.8,560v-4.7h.9v4.7h-.9ZM74.5,558.8l.5.6c-.2.2-.5.4-.8.6-.3.1-.7.2-1.1.2s-.9-.1-1.3-.3c-.4-.2-.6-.5-.8-.9-.2-.4-.3-.8-.3-1.3s.1-.9.3-1.2c.2-.4.5-.7.9-.9.4-.2.8-.3,1.3-.3s.7,0,1,.2c.3.1.6.3.8.6l-.6.6c-.1-.2-.3-.3-.5-.4-.2-.1-.4-.2-.7-.2s-.6,0-.8.2c-.2.2-.4.4-.5.6-.1.3-.2.5-.2.8s0,.6.2.8c.1.3.3.5.5.6.2.2.5.2.8.2s.5,0,.7-.1c.2-.1.4-.2.5-.4ZM79.3,558.8l.5.5c0,0-.2.2-.4.3-.2.1-.4.2-.7.3-.3.1-.6.2-1,.2s-.9-.1-1.3-.3c-.4-.2-.7-.5-.9-.9-.2-.4-.3-.8-.3-1.3s0-.9.3-1.2c.2-.4.5-.7.8-.9.4-.2.8-.3,1.2-.3s1,.1,1.3.4c.3.3.6.6.7,1,.2.4.2.9.2,1.3h-3.7c0,.3,0,.5.2.7.1.2.3.4.6.5.2.1.5.2.8.2.4,0,.7,0,1-.2.3-.1.4-.3.5-.4ZM76.3,557.3h2.7c0-.4-.2-.7-.4-.9-.2-.3-.5-.4-1-.4s-.5,0-.7.2c-.2.1-.4.3-.5.5-.1.2-.2.4-.2.6ZM85,560.1c-.5,0-.9-.1-1.3-.3-.4-.2-.7-.5-.9-.9-.2-.4-.3-.8-.3-1.2s.1-.9.3-1.2c.2-.4.5-.7.9-.9.4-.2.8-.3,1.3-.3s.9.1,1.3.3c.4.2.7.5.9.9.2.4.3.8.3,1.2s-.1.9-.3,1.2c-.2.4-.5.7-.9.9-.4.2-.8.3-1.3.3ZM85,559.4c.3,0,.6,0,.8-.2.2-.2.4-.4.5-.6.1-.3.2-.5.2-.8s0-.5-.2-.8c-.1-.3-.3-.5-.5-.6-.2-.2-.5-.2-.8-.2s-.6,0-.8.2c-.2.2-.4.4-.5.6-.1.3-.2.5-.2.8s0,.5.2.8c.1.3.3.5.5.6.2.2.5.2.8.2ZM89.4,560h-.9v-4.3c0,0,0-.2,0-.3h.9v.7c.1-.1.2-.2.3-.3.1-.1.3-.2.5-.3.2,0,.5-.1.7-.1.6,0,1.1.2,1.3.5.3.4.4.8.4,1.4v2.8h-.9v-2.7c0-.4,0-.8-.3-1-.2-.2-.4-.3-.8-.3s-.6,0-.8.3c-.2.2-.3.4-.4.7,0,.3-.1.6-.1.9v2.2ZM93.9,560v-6.7h.9v6.7h-.9ZM95.7,561.8l.4-.6c0,0,.1.1.2.2,0,0,.2,0,.3,0,.2,0,.4,0,.5-.3.1-.2.2-.5.4-.8v-.3c.1,0-2-4.6-2-4.6h1l1.5,3.5,1.3-3.5h1l-1.9,4.5c0,.2-.2.4-.3.7,0,.3-.2.5-.3.7-.1.2-.3.4-.5.6-.2.2-.4.2-.7.2s-.4,0-.6,0c-.2,0-.3-.1-.4-.2ZM100.3,560v-1.1h1.1v1.1h-1.1ZM109.7,558.3l.7.6c0,.2-.3.3-.5.5-.2.2-.5.4-.9.5-.4.2-.8.2-1.2.2s-1.2-.1-1.7-.4c-.5-.3-.9-.7-1.2-1.2-.3-.5-.4-1.1-.4-1.8s0-.9.2-1.4c.2-.4.4-.8.7-1.1.3-.3.7-.6,1.1-.8.4-.2.9-.3,1.4-.3s.9,0,1.2.2c.3.1.6.3.8.5.2.2.4.4.5.6l-.7.6c-.1-.2-.2-.3-.4-.5-.2-.2-.4-.3-.6-.4-.2-.1-.5-.2-.9-.2s-.9.1-1.3.4c-.3.2-.6.6-.8,1-.2.4-.3.8-.3,1.3s0,.9.3,1.3c.2.4.5.7.8.9.3.2.8.3,1.2.3s.7,0,1-.2c.3-.1.5-.3.6-.4.2-.2.3-.3.4-.4ZM113.4,560.1c-.5,0-.9-.1-1.3-.3-.4-.2-.7-.5-.9-.9-.2-.4-.3-.8-.3-1.2s.1-.9.3-1.2c.2-.4.5-.7.9-.9.4-.2.8-.3,1.3-.3s.9.1,1.3.3c.4.2.7.5.9.9.2.4.3.8.3,1.2s-.1.9-.3,1.2c-.2.4-.5.7-.9.9-.4.2-.8.3-1.3.3ZM113.4,559.4c.3,0,.6,0,.8-.2.2-.2.4-.4.5-.6.1-.3.2-.5.2-.8s0-.5-.2-.8c-.1-.3-.3-.5-.5-.6-.2-.2-.5-.2-.8-.2s-.6,0-.8.2c-.2.2-.4.4-.5.6-.1.3-.2.5-.2.8s0,.5.2.8c.1.3.3.5.5.6.2.2.5.2.8.2ZM117.8,560h-.9v-4.3c0,0,0-.2,0-.3h.9v.7c.1-.1.2-.2.3-.3.1-.1.3-.2.5-.3.2,0,.5-.1.7-.1.6,0,1.1.2,1.4.5.3.4.4.8.4,1.4v2.8h-.9v-2.7c0-.4,0-.8-.3-1-.2-.2-.4-.3-.8-.3s-.6,0-.8.3c-.2.2-.3.4-.4.7,0,.3-.1.6-.1.9v2.2ZM122.1,559.4l.6-.6c.2.2.4.3.6.4.2.1.5.2.8.2s.5,0,.8-.1c.2,0,.3-.3.3-.5s0-.3-.1-.4c0,0-.2-.2-.4-.2-.2,0-.5-.2-.8-.2-.2,0-.5-.1-.7-.2-.2-.1-.4-.2-.6-.4-.1-.2-.2-.4-.2-.7s0-.6.3-.8c.2-.2.4-.4.7-.5.3-.1.6-.2.9-.2s.7,0,1,.2c.3.1.5.2.7.4l-.5.6c-.1-.1-.3-.2-.5-.3-.2,0-.5-.1-.7-.1s-.5,0-.7.1c-.2,0-.3.2-.3.5s.1.3.3.5c.2,0,.5.2.9.3.3,0,.6.2.8.3.2.1.4.3.6.4.1.2.2.4.2.7s0,.6-.3.8c-.2.2-.4.4-.7.5-.3.1-.6.2-.9.2-.9,0-1.5-.2-2-.7ZM127,554.5v-1h1v1h-1ZM127.1,560v-4.7h.9v4.7h-.9ZM132.7,560v-.6c0,0-.2.1-.3.3-.1.1-.3.2-.5.3-.2,0-.5.1-.8.1s-.7,0-1.1-.3c-.3-.2-.6-.5-.7-.8-.2-.4-.3-.8-.3-1.3s0-.8.2-1.1c.2-.3.4-.6.6-.8.2-.2.5-.3.8-.4.3-.1.5-.2.8-.2s.5,0,.6,0c.2,0,.4.1.6.2v-2.2h.9v6.4c0,0,0,.2,0,.3h-.9ZM132.6,558v-1.7c-.1,0-.3-.2-.5-.2-.2,0-.4,0-.7,0-.4,0-.8.2-1.1.5-.3.3-.4.7-.4,1.3s0,.6.1.8c0,.2.2.4.4.6.2.1.5.2.8.2s.6,0,.8-.2c.2-.1.3-.3.4-.5,0-.2.1-.4.1-.6ZM138.5,558.8l.5.5c0,0-.2.2-.4.3-.2.1-.4.2-.7.3-.3.1-.6.2-1,.2s-.9-.1-1.3-.3c-.4-.2-.7-.5-.9-.9-.2-.4-.3-.8-.3-1.3s0-.9.3-1.2c.2-.4.5-.7.8-.9.4-.2.8-.3,1.2-.3s1,.1,1.3.4c.3.3.6.6.7,1,.2.4.2.9.2,1.3h-3.7c0,.3,0,.5.2.7.1.2.3.4.6.5.2.1.5.2.8.2.4,0,.7,0,1-.2.3-.1.4-.3.6-.4ZM135.5,557.3h2.7c0-.4-.2-.7-.4-.9-.2-.3-.5-.4-1-.4s-.5,0-.7.2c-.2.1-.4.3-.5.5-.1.2-.2.4-.2.6ZM141,560h-.9v-4.4c0,0,0-.2,0-.3h.9v.8c.1-.1.2-.2.3-.3.1-.1.3-.2.5-.3.2,0,.4-.1.7-.1s.2,0,.3,0c0,0,.2,0,.2,0l-.2.8c-.1,0-.3,0-.5,0s-.5,0-.7.2c-.2.1-.4.3-.5.5-.1.2-.2.4-.2.7v2.5ZM18.5,568.5v-2.4h-.8v-.8h.8v-1.5h.9v1.5h1.4v.8h-1.4v2.3c0,.4,0,.6.2.8.1.1.3.2.5.2s.3,0,.4,0c.1,0,.2-.1.3-.2l.4.5c-.2.2-.4.3-.6.4-.2,0-.4.1-.7.1-.5,0-.8-.1-1.1-.4-.2-.3-.4-.7-.4-1.2ZM22,570v-6.7h.9v2.7c0-.1.2-.2.3-.3.1-.1.3-.2.5-.3.2,0,.5-.1.7-.1.6,0,1.1.2,1.4.5.3.4.4.8.4,1.4v2.8h-.9v-2.7c0-.4,0-.8-.3-1-.2-.2-.4-.3-.8-.3s-.6,0-.8.3c-.2.2-.3.4-.4.7,0,.3-.1.6-.1.9v2.2h-.9ZM31.1,568.8l.5.5c0,0-.2.2-.4.3-.2.1-.4.2-.7.3-.3.1-.6.2-1,.2s-.9-.1-1.3-.3c-.4-.2-.7-.5-.9-.9-.2-.4-.3-.8-.3-1.3s0-.9.3-1.2c.2-.4.5-.7.8-.9.4-.2.8-.3,1.2-.3s1,.1,1.3.4c.3.3.6.6.7,1,.2.4.2.9.2,1.3h-3.7c0,.3,0,.5.2.7.1.2.3.4.5.5.2.1.5.2.8.2.4,0,.7,0,1-.2.3-.1.4-.3.6-.4ZM28.1,567.3h2.7c0-.4-.2-.7-.4-.9-.2-.3-.5-.4-1-.4s-.5,0-.7.2c-.2.1-.4.3-.5.5-.1.2-.2.4-.2.6ZM34.7,570v-6.7h2.1c.5,0,.8,0,1.1.2.3.1.5.3.7.5.2.2.3.4.4.7,0,.2.1.5.1.7,0,.4,0,.8-.3,1.1-.2.3-.5.5-.8.7-.3.2-.7.2-1.2.2h-1.2v2.6h-1ZM35.7,566.6h1.2c.4,0,.7-.1,1-.3.2-.2.3-.5.3-.9s-.1-.7-.4-.9c-.2-.2-.5-.3-.9-.3h-1.2v2.4ZM40.4,570v-6.7h2.2c.7,0,1.3.1,1.9.4.5.2,1,.6,1.3,1.1.3.5.5,1.1.5,1.9s-.2,1.4-.5,1.9c-.3.5-.7.9-1.3,1.1-.5.2-1.2.4-1.9.4h-2.2ZM41.3,569.1h1.2c.8,0,1.5-.2,1.9-.6.5-.4.7-1,.7-1.8s-.2-1.4-.7-1.9c-.4-.4-1.1-.7-2-.7h-1.2v5ZM47.1,569l.7-.6c.1.1.3.3.4.4.2.1.4.3.6.4.2,0,.5.1.8.1.4,0,.8,0,1-.3.2-.2.4-.5.4-.8s-.1-.6-.4-.8c-.3-.2-.7-.3-1.2-.4-.6-.1-1-.3-1.4-.6-.4-.3-.5-.7-.5-1.3s0-.6.2-.9c.2-.3.4-.5.8-.7.3-.2.7-.3,1.2-.3s.8,0,1.1.2c.3.1.5.2.7.4.2.1.3.3.3.4l-.6.6c0,0-.1-.2-.3-.3s-.3-.2-.5-.3c-.2,0-.4-.1-.7-.1s-.5,0-.7.1c-.2,0-.3.2-.4.4,0,.1-.1.3-.1.4,0,.3.1.6.4.7.3.2.7.3,1.2.4.3,0,.6.2.9.4.3.2.5.4.7.6.2.3.3.6.3,1.1s-.1.7-.3,1c-.2.3-.5.5-.8.7-.4.2-.8.2-1.2.2s-.8,0-1.1-.2c-.3-.1-.6-.3-.8-.5-.2-.2-.4-.4-.6-.5ZM57.9,570v-.6c-.2.2-.4.4-.7.5-.3.1-.6.2-.9.2s-.5,0-.8-.1c-.2,0-.5-.2-.6-.5-.2-.2-.2-.5-.2-.9,0-.5.2-.9.5-1.2.4-.3.9-.4,1.5-.4s.3,0,.5,0c.2,0,.3,0,.4,0,.1,0,.2,0,.2,0v-.2c0-.3-.1-.6-.3-.7-.2-.2-.5-.2-.8-.2s-.6,0-.8.1c-.2,0-.4.2-.5.3l-.4-.6c.2-.1.4-.3.7-.4.3-.1.7-.2,1.2-.2s1.1.1,1.4.4c.3.3.5.7.5,1.2v2.9c0,0,0,.1,0,.2h-.8ZM57.9,568.3v-.5s-.1,0-.2,0c-.1,0-.3,0-.4,0-.1,0-.3,0-.4,0-.3,0-.6,0-.8.2-.2,0-.3.2-.4.4,0,.1,0,.3,0,.4,0,.2,0,.4.3.6.2.1.4.2.7.2s.4,0,.6-.1c.2-.1.4-.2.5-.4.1-.2.2-.3.2-.5ZM60.8,570h-.9v-4.3c0,0,0-.2,0-.3h.9v.7c.1-.1.2-.2.3-.3.1-.1.3-.2.5-.3.2,0,.5-.1.7-.1.6,0,1.1.2,1.3.5.3.4.4.8.4,1.4v2.8h-.9v-2.7c0-.4,0-.8-.3-1-.2-.2-.4-.3-.8-.3s-.6,0-.8.3c-.2.2-.3.4-.4.7,0,.3-.1.6-.1.9v2.2ZM68.8,570v-.6c0,0-.2.1-.3.3-.1.1-.3.2-.5.3-.2,0-.5.1-.8.1s-.7,0-1.1-.3c-.3-.2-.6-.5-.7-.8s-.3-.8-.3-1.3,0-.8.2-1.1c.2-.3.3-.6.6-.8s.5-.3.8-.4c.3-.1.5-.2.8-.2s.5,0,.7,0c.2,0,.4.1.6.2v-2.2h.9v6.4c0,0,0,.2,0,.3h-.9ZM68.7,568v-1.7c-.1,0-.3-.2-.5-.2-.2,0-.4,0-.7,0-.4,0-.8.2-1.1.5-.3.3-.4.7-.4,1.3s0,.6.1.8c0,.2.2.4.5.6.2.1.5.2.8.2s.6,0,.8-.2c.2-.1.3-.3.4-.5,0-.2.1-.4.1-.6ZM74.7,570v-5.8h-2.4v-.8h5.7v.8h-2.4v5.8h-1ZM78.9,570l.3-6.7h.9l2,3.5,2-3.5h.9l.3,6.7h-.9l-.2-5.1-1.9,3.2h-.5l-1.8-3.1-.2,5.1h-.9ZM86.8,570v-6.7h2.2c.7,0,1.3.1,1.9.4.5.2,1,.6,1.3,1.1.3.5.5,1.1.5,1.9s-.2,1.4-.5,1.9c-.3.5-.7.9-1.3,1.1-.5.2-1.2.4-1.9.4h-2.2ZM87.8,569.1h1.2c.8,0,1.5-.2,1.9-.6.5-.4.7-1,.7-1.8s-.2-1.4-.7-1.9c-.4-.4-1.1-.7-2-.7h-1.2v5ZM98.5,570v-.6c-.2.2-.4.4-.7.5-.3.1-.6.2-.9.2s-.5,0-.8-.1c-.2,0-.5-.2-.6-.5-.2-.2-.2-.5-.2-.9,0-.5.2-.9.5-1.2.4-.3.9-.4,1.5-.4s.3,0,.5,0c.2,0,.3,0,.4,0,.1,0,.2,0,.2,0v-.2c0-.3-.1-.6-.3-.7-.2-.2-.5-.2-.8-.2s-.6,0-.8.1c-.2,0-.4.2-.5.3l-.4-.6c.2-.1.4-.3.7-.4.3-.1.7-.2,1.2-.2s1.1.1,1.4.4c.3.3.5.7.5,1.2v2.9c0,0,0,.1,0,.2h-.8ZM98.5,568.3v-.5s-.1,0-.2,0c-.1,0-.3,0-.4,0-.1,0-.3,0-.4,0-.3,0-.6,0-.8.2-.2,0-.3.2-.4.4,0,.1,0,.3,0,.4,0,.2,0,.4.3.6.2.1.4.2.7.2s.4,0,.6-.1c.2-.1.4-.2.5-.4.1-.2.2-.3.2-.5ZM101.8,570l-2-4.7h1l1.4,3.6,1.4-3.6h1l-2,4.7h-.9ZM108.1,570v-.6c-.2.2-.4.4-.7.5-.3.1-.6.2-.9.2s-.5,0-.8-.1c-.2,0-.5-.2-.6-.5-.2-.2-.2-.5-.2-.9,0-.5.2-.9.5-1.2.4-.3.9-.4,1.5-.4s.3,0,.4,0c.2,0,.3,0,.4,0,.1,0,.2,0,.2,0v-.2c0-.3-.1-.6-.3-.7-.2-.2-.5-.2-.8-.2s-.6,0-.8.1c-.2,0-.4.2-.5.3l-.4-.6c.2-.1.4-.3.7-.4.3-.1.7-.2,1.2-.2s1.1.1,1.4.4c.3.3.5.7.5,1.2v2.9c0,0,0,.1,0,.2h-.8ZM108.1,568.3v-.5s-.1,0-.2,0c-.1,0-.3,0-.4,0-.1,0-.3,0-.4,0-.3,0-.6,0-.8.2-.2,0-.3.2-.4.4,0,.1,0,.3,0,.4,0,.2,0,.4.3.6.2.1.4.2.7.2s.4,0,.6-.1c.2-.1.4-.2.5-.4.1-.2.2-.3.2-.5ZM110.2,564.5v-1h1v1h-1ZM110.2,570v-4.7h.9v4.7h-.9ZM112.4,570v-6.7h.9v6.7h-.9ZM117.5,570v-.6c-.2.2-.4.4-.7.5-.3.1-.6.2-.9.2s-.5,0-.8-.1c-.2,0-.5-.2-.6-.5-.2-.2-.2-.5-.2-.9,0-.5.2-.9.5-1.2.4-.3.9-.4,1.5-.4s.3,0,.5,0c.2,0,.3,0,.4,0,.1,0,.2,0,.2,0v-.2c0-.3-.1-.6-.3-.7-.2-.2-.5-.2-.9-.2s-.6,0-.8.1c-.2,0-.4.2-.5.3l-.4-.6c.2-.1.4-.3.7-.4.3-.1.7-.2,1.2-.2s1.1.1,1.4.4c.3.3.5.7.5,1.2v2.9c0,0,0,.1,0,.2h-.8ZM117.4,568.3v-.5s-.1,0-.2,0c-.1,0-.3,0-.4,0-.1,0-.3,0-.4,0-.3,0-.6,0-.8.2-.2,0-.3.2-.4.4,0,.1,0,.3,0,.4,0,.2,0,.4.3.6.2.1.4.2.7.2s.4,0,.6-.1c.2-.1.4-.2.5-.4.1-.2.2-.3.2-.5ZM119.5,569.8v-6.5h.9v2.5c0-.1.3-.3.5-.4.2-.1.6-.2.9-.2s.8.1,1.2.3c.3.2.6.5.7.9.2.4.2.8.2,1.2s-.1.9-.3,1.3c-.2.4-.5.7-.9.9-.4.2-.8.3-1.4.3s-.7,0-1.1,0c-.3,0-.6-.1-.8-.2ZM120.4,567.4v1.8c0,0,.2,0,.3,0,.1,0,.3,0,.6,0,.5,0,.9-.2,1.2-.5.3-.3.5-.7.5-1.2s0-.6-.1-.8c0-.2-.2-.4-.4-.6-.2-.2-.4-.2-.8-.2s-.5,0-.7.2c-.2.1-.3.3-.4.5,0,.2-.1.4-.1.7ZM125,570v-6.7h.9v6.7h-.9ZM130.8,568.8l.5.5c0,0-.2.2-.4.3-.2.1-.4.2-.7.3-.3.1-.6.2-1,.2s-.9-.1-1.3-.3c-.4-.2-.7-.5-.9-.9-.2-.4-.3-.8-.3-1.3s0-.9.3-1.2c.2-.4.5-.7.8-.9.4-.2.8-.3,1.2-.3s1,.1,1.3.4c.3.3.6.6.7,1,.2.4.2.9.2,1.3h-3.7c0,.3,0,.5.2.7.1.2.3.4.6.5.2.1.5.2.8.2.4,0,.7,0,1-.2.3-.1.4-.3.5-.4ZM127.8,567.3h2.7c0-.4-.2-.7-.4-.9-.2-.3-.5-.4-1-.4s-.5,0-.7.2c-.2.1-.4.3-.5.5-.1.2-.2.4-.2.6ZM137.2,570v-.6c-.2.2-.4.4-.7.5-.3.1-.6.2-.9.2s-.5,0-.8-.1c-.2,0-.5-.2-.6-.5-.2-.2-.2-.5-.2-.9,0-.5.2-.9.5-1.2.4-.3.9-.4,1.5-.4s.3,0,.4,0c.2,0,.3,0,.4,0,.1,0,.2,0,.2,0v-.2c0-.3-.1-.6-.3-.7-.2-.2-.5-.2-.9-.2s-.6,0-.8.1c-.2,0-.4.2-.5.3l-.4-.6c.2-.1.4-.3.7-.4.3-.1.7-.2,1.2-.2s1.1.1,1.4.4c.3.3.5.7.5,1.2v2.9c0,0,0,.1,0,.2h-.8ZM137.2,568.3v-.5s-.1,0-.2,0c-.1,0-.3,0-.4,0-.1,0-.3,0-.4,0-.3,0-.6,0-.8.2-.2,0-.3.2-.4.4,0,.1,0,.3,0,.4,0,.2,0,.4.3.6.2.1.4.2.7.2s.4,0,.6-.1c.2-.1.4-.2.5-.4.1-.2.2-.3.2-.5ZM139.7,568.5v-2.4h-.8v-.8h.8v-1.5h.9v1.5h1.4v.8h-1.4v2.3c0,.4,0,.6.2.8.1.1.3.2.5.2s.3,0,.4,0c.1,0,.2-.1.3-.2l.4.5c-.2.2-.4.3-.6.4-.2,0-.4.1-.7.1-.5,0-.8-.1-1.1-.4-.2-.3-.4-.7-.4-1.2ZM13.2,580v-6.7h.9v2.7c0-.1.2-.2.3-.3.1-.1.3-.2.5-.3.2,0,.5-.1.7-.1.6,0,1.1.2,1.3.5.3.4.4.8.4,1.4v2.8h-.9v-2.7c0-.4,0-.8-.3-1-.2-.2-.4-.3-.8-.3s-.6,0-.8.3c-.2.2-.3.4-.4.7,0,.3-.1.6-.1.9v2.2h-.9ZM20.9,580.1c-.5,0-.9-.1-1.3-.3-.4-.2-.7-.5-.9-.9-.2-.4-.3-.8-.3-1.2s.1-.9.3-1.2c.2-.4.5-.7.9-.9.4-.2.8-.3,1.3-.3s.9.1,1.3.3c.4.2.7.5.9.9.2.4.3.8.3,1.2s-.1.9-.3,1.2c-.2.4-.5.7-.9.9-.4.2-.8.3-1.3.3ZM20.9,579.4c.3,0,.6,0,.8-.2.2-.2.4-.4.5-.6.1-.3.2-.5.2-.8s0-.5-.2-.8c-.1-.3-.3-.5-.5-.6-.2-.2-.5-.2-.8-.2s-.6,0-.8.2c-.2.2-.4.4-.5.6-.1.3-.2.5-.2.8s0,.5.2.8c.1.3.3.5.5.6.2.2.5.2.8.2ZM24.1,579.4l.5-.6c.2.2.4.3.6.4.2.1.5.2.8.2s.6,0,.8-.1c.2,0,.3-.3.3-.5s0-.3-.1-.4c0,0-.2-.2-.4-.2-.2,0-.5-.2-.8-.2-.2,0-.5-.1-.7-.2-.2-.1-.4-.2-.6-.4-.1-.2-.2-.4-.2-.7s0-.6.3-.8c.2-.2.4-.4.7-.5.3-.1.6-.2.9-.2s.7,0,1,.2c.3.1.5.2.7.4l-.5.6c-.1-.1-.3-.2-.5-.3-.2,0-.5-.1-.7-.1s-.5,0-.7.1c-.2,0-.3.2-.3.5s.1.3.4.5c.2,0,.5.2.9.3.3,0,.6.2.8.3.2.1.4.3.6.4.1.2.2.4.2.7s0,.6-.3.8c-.2.2-.4.4-.7.5-.3.1-.6.2-1,.2-.9,0-1.5-.2-2-.7ZM29.5,578.5v-2.4h-.8v-.8h.8v-1.5h.9v1.5h1.4v.8h-1.4v2.3c0,.4,0,.6.2.8.1.1.3.2.5.2s.3,0,.4,0c.1,0,.2-.1.3-.2l.4.5c-.2.2-.4.3-.6.4-.2,0-.4.1-.7.1-.5,0-.8-.1-1.1-.4-.2-.3-.4-.7-.4-1.2ZM33.8,582h-.9v-6.3c0,0,0-.2,0-.3h.9v.7c0,0,.2-.2.3-.3.1-.1.3-.2.5-.3.2,0,.5-.1.8-.1.5,0,.9.1,1.2.3.3.2.5.5.7.9.2.4.2.8.2,1.2s0,.8-.2,1.1c-.1.3-.3.6-.6.8-.2.2-.5.3-.8.4-.3,0-.6.1-.8.1s-.6,0-.8-.1c-.2,0-.4-.1-.5-.2v2.2ZM33.8,577.8v1.2c.1,0,.3.2.5.2s.5.1.8.1.6,0,.8-.2c.2-.1.4-.3.5-.6.1-.3.2-.5.2-.8s0-.6-.1-.8c0-.3-.2-.5-.4-.6s-.5-.2-.8-.2-.6,0-.8.3c-.2.2-.4.4-.5.8,0,.1,0,.2,0,.3,0,.1,0,.2,0,.4ZM38.5,580v-6.7h.9v6.7h-.9ZM40.6,578.1v-2.8h.9v2.7c0,.4,0,.8.3,1,.2.2.4.3.8.3s.6,0,.8-.3c.2-.2.3-.4.4-.7,0-.3.1-.6.1-.9v-2.2h.9v4.4c0,0,0,.2,0,.3h-.9v-.7c-.1.1-.2.2-.3.3-.1.1-.3.2-.5.3-.2,0-.4.1-.7.1-.6,0-1.1-.2-1.3-.5-.3-.4-.4-.8-.4-1.4ZM45.8,579.4l.5-.6c.2.2.4.3.6.4.2.1.5.2.8.2s.5,0,.8-.1c.2,0,.3-.3.3-.5s0-.3-.1-.4c0,0-.2-.2-.4-.2-.2,0-.5-.2-.8-.2-.2,0-.5-.1-.7-.2-.2-.1-.4-.2-.6-.4-.1-.2-.2-.4-.2-.7s0-.6.3-.8c.2-.2.4-.4.7-.5.3-.1.6-.2.9-.2s.7,0,1,.2c.3.1.5.2.7.4l-.5.6c-.1-.1-.3-.2-.5-.3-.2,0-.5-.1-.7-.1s-.5,0-.7.1c-.2,0-.3.2-.3.5s.1.3.3.5c.2,0,.5.2.9.3.3,0,.6.2.8.3.2.1.4.3.6.4.1.2.2.4.2.7s0,.6-.3.8c-.2.2-.4.4-.7.5-.3.1-.6.2-1,.2-.9,0-1.5-.2-2-.7ZM50.6,580v-1.1h1.1v1.1h-1.1ZM56.2,578.8l.5.6c-.2.2-.5.4-.8.6-.3.1-.7.2-1,.2s-.9-.1-1.3-.3c-.4-.2-.6-.5-.8-.9-.2-.4-.3-.8-.3-1.3s.1-.9.3-1.2c.2-.4.5-.7.9-.9.4-.2.8-.3,1.3-.3s.7,0,1,.2c.3.1.6.3.8.6l-.6.6c-.1-.2-.3-.3-.5-.4-.2-.1-.4-.2-.7-.2s-.6,0-.8.2c-.2.2-.4.4-.5.6-.1.3-.2.5-.2.8s0,.6.2.8c.1.3.3.5.5.6.2.2.5.2.8.2s.5,0,.7-.1c.2-.1.4-.2.5-.4ZM59.6,580.1c-.5,0-.9-.1-1.3-.3-.4-.2-.7-.5-.9-.9-.2-.4-.3-.8-.3-1.2s.1-.9.3-1.2c.2-.4.5-.7.9-.9.4-.2.8-.3,1.3-.3s.9.1,1.3.3c.4.2.7.5.9.9s.3.8.3,1.2-.1.9-.3,1.2c-.2.4-.5.7-.9.9-.4.2-.8.3-1.3.3ZM59.6,579.4c.3,0,.6,0,.8-.2.2-.2.4-.4.5-.6.1-.3.2-.5.2-.8s0-.5-.2-.8c-.1-.3-.3-.5-.5-.6-.2-.2-.5-.2-.8-.2s-.6,0-.8.2c-.2.2-.4.4-.5.6-.1.3-.2.5-.2.8s0,.5.2.8c.1.3.3.5.5.6.2.2.5.2.8.2ZM64,580h-.9v-4.3c0,0,0-.2,0-.3h.9v.7c.1-.1.2-.2.3-.3.1-.1.3-.2.5-.3.2,0,.4-.1.7-.1s.7,0,.9.2c.2.1.4.3.6.6.2-.2.4-.4.7-.6.3-.2.6-.3,1-.3.6,0,1,.2,1.3.5.3.4.4.8.4,1.4v2.8h-.9v-2.7c0-.8-.3-1.3-1-1.3s-.5,0-.7.2c-.2.1-.3.3-.5.5-.1.2-.2.4-.2.7v2.6h-.9v-2.7c0-.4,0-.8-.3-1-.2-.2-.4-.3-.7-.3s-.6,0-.8.3c-.2.2-.3.4-.4.7,0,.3-.1.6-.1.9v2.2ZM71.6,580v-1.1h1.1v1.1h-1.1ZM77,580v-.6c-.2.2-.4.4-.7.5-.3.1-.6.2-.9.2s-.5,0-.8-.1c-.2,0-.5-.2-.6-.5-.2-.2-.2-.5-.2-.9,0-.5.2-.9.5-1.2.4-.3.9-.4,1.5-.4s.3,0,.4,0c.2,0,.3,0,.4,0,.1,0,.2,0,.2,0v-.2c0-.3-.1-.6-.3-.7-.2-.2-.5-.2-.8-.2s-.6,0-.8.1c-.2,0-.4.2-.5.3l-.4-.6c.2-.1.4-.3.7-.4.3-.1.7-.2,1.2-.2s1.1.1,1.4.4c.3.3.5.7.5,1.2v2.9c0,0,0,.1,0,.2h-.8ZM77,578.3v-.5s-.1,0-.2,0c-.1,0-.3,0-.4,0-.1,0-.3,0-.4,0-.3,0-.6,0-.8.2-.2,0-.3.2-.4.4,0,.1,0,.3,0,.4,0,.2,0,.4.3.6.2.1.4.2.7.2s.4,0,.6-.1c.2-.1.4-.2.5-.4.1-.2.2-.3.2-.5ZM79.1,578.1v-2.8h.9v2.7c0,.4,0,.8.3,1,.2.2.4.3.8.3s.6,0,.8-.3c.2-.2.3-.4.4-.7,0-.3.1-.6.1-.9v-2.2h.9v4.4c0,0,0,.2,0,.3h-.9v-.7c-.1.1-.2.2-.3.3-.1.1-.3.2-.5.3-.2,0-.4.1-.7.1-.6,0-1.1-.2-1.3-.5-.3-.4-.4-.8-.4-1.4ZM86.3,579.8v-6.5h.9v2.5c0-.1.3-.3.5-.4.2-.1.6-.2.9-.2s.8.1,1.2.3c.3.2.6.5.7.9.2.4.2.8.2,1.2s-.1.9-.3,1.3c-.2.4-.5.7-.9.9-.4.2-.8.3-1.4.3s-.7,0-1.1,0c-.3,0-.6-.1-.8-.2ZM87.2,577.4v1.8c0,0,.2,0,.3,0,.1,0,.3,0,.6,0,.5,0,.9-.2,1.2-.5.3-.3.5-.7.5-1.2s0-.6-.1-.8c0-.2-.2-.4-.4-.6-.2-.2-.5-.2-.8-.2s-.5,0-.7.2c-.2.1-.3.3-.4.5,0,.2-.1.4-.1.7ZM95.5,578.8l.5.5c0,0-.2.2-.4.3-.2.1-.4.2-.7.3-.3.1-.6.2-1,.2s-.9-.1-1.3-.3c-.4-.2-.7-.5-.9-.9-.2-.4-.3-.8-.3-1.3s0-.9.3-1.2c.2-.4.5-.7.8-.9.4-.2.8-.3,1.2-.3s1,.1,1.3.4c.3.3.6.6.7,1,.2.4.2.9.2,1.3h-3.7c0,.3,0,.5.2.7.1.2.3.4.6.5.2.1.5.2.8.2.4,0,.7,0,1-.2.3-.1.4-.3.5-.4ZM92.5,577.3h2.7c0-.4-.2-.7-.4-.9-.2-.3-.5-.4-1-.4s-.5,0-.7.2c-.2.1-.4.3-.5.5-.1.2-.2.4-.2.6ZM97.5,580v-3.9h-.8v-.8h.8v-.4c0-.4,0-.8.2-1,.2-.3.4-.5.6-.6.2-.1.5-.2.8-.2s.5,0,.7.1c.2,0,.5.2.7.4l-.4.6c-.2-.2-.5-.3-.8-.3s-.5,0-.6.2c-.2.2-.2.5-.2.9v.3h1.3v.8h-1.3v3.9h-.9ZM102.5,580.1c-.5,0-.9-.1-1.3-.3-.4-.2-.7-.5-.9-.9-.2-.4-.3-.8-.3-1.2s.1-.9.3-1.2c.2-.4.5-.7.9-.9.4-.2.8-.3,1.3-.3s.9.1,1.3.3c.4.2.7.5.9.9.2.4.3.8.3,1.2s-.1.9-.3,1.2c-.2.4-.5.7-.9.9-.4.2-.8.3-1.3.3ZM102.5,579.4c.3,0,.6,0,.8-.2.2-.2.4-.4.5-.6.1-.3.2-.5.2-.8s0-.5-.2-.8c-.1-.3-.3-.5-.5-.6-.2-.2-.5-.2-.8-.2s-.6,0-.8.2c-.2.2-.4.4-.5.6-.1.3-.2.5-.2.8s0,.5.2.8c.1.3.3.5.5.6.2.2.5.2.8.2ZM106.9,580h-.9v-4.4c0,0,0-.2,0-.3h.9v.8c.1-.1.2-.2.3-.3.1-.1.3-.2.5-.3.2,0,.4-.1.7-.1s.2,0,.3,0c0,0,.2,0,.2,0l-.2.8c-.1,0-.3,0-.5,0s-.5,0-.7.2c-.2.1-.4.3-.5.5-.1.2-.2.4-.2.7v2.5ZM113.1,578.8l.5.5c0,0-.2.2-.4.3-.2.1-.4.2-.7.3-.3.1-.6.2-1,.2s-.9-.1-1.3-.3c-.4-.2-.7-.5-.9-.9-.2-.4-.3-.8-.3-1.3s0-.9.3-1.2c.2-.4.5-.7.8-.9.4-.2.8-.3,1.2-.3s1,.1,1.3.4c.3.3.6.6.7,1,.2.4.2.9.2,1.3h-3.7c0,.3,0,.5.2.7.1.2.3.4.6.5.2.1.5.2.8.2.4,0,.7,0,1-.2.3-.1.4-.3.5-.4ZM110.1,577.3h2.7c0-.4-.2-.7-.4-.9-.2-.3-.5-.4-1-.4s-.5,0-.7.2c-.2.1-.4.3-.5.5-.1.2-.2.4-.2.6ZM117.4,580h-.9v-4.3c0,0,0-.2,0-.3h.9v.7c.1-.1.2-.2.3-.3.1-.1.3-.2.5-.3.2,0,.4-.1.7-.1s.7,0,.9.2c.2.1.4.3.6.6.2-.2.4-.4.7-.6.3-.2.6-.3,1-.3.6,0,1,.2,1.3.5.3.4.4.8.4,1.4v2.8h-.9v-2.7c0-.8-.3-1.3-1-1.3s-.5,0-.7.2c-.2.1-.3.3-.5.5-.1.2-.2.4-.2.7v2.6h-.9v-2.7c0-.4,0-.8-.3-1-.2-.2-.4-.3-.7-.3s-.6,0-.8.3-.3.4-.4.7c0,.3-.1.6-.1.9v2.2ZM128,580v-.6c-.2.2-.4.4-.7.5-.3.1-.6.2-.9.2s-.5,0-.8-.1c-.2,0-.5-.2-.6-.5-.2-.2-.2-.5-.2-.9,0-.5.2-.9.5-1.2.4-.3.9-.4,1.5-.4s.3,0,.4,0c.2,0,.3,0,.4,0,.1,0,.2,0,.2,0v-.2c0-.3-.1-.6-.3-.7-.2-.2-.5-.2-.8-.2s-.6,0-.8.1c-.2,0-.4.2-.5.3l-.4-.6c.2-.1.4-.3.7-.4.3-.1.7-.2,1.2-.2s1.1.1,1.4.4c.3.3.5.7.5,1.2v2.9c0,0,0,.1,0,.2h-.8ZM127.9,578.3v-.5s-.1,0-.2,0c-.1,0-.3,0-.4,0-.1,0-.3,0-.4,0-.3,0-.6,0-.8.2-.2,0-.3.2-.4.4,0,.1,0,.3,0,.4,0,.2,0,.4.3.6.2.1.4.2.7.2s.4,0,.6-.1c.2-.1.4-.2.5-.4.1-.2.2-.3.2-.5ZM130,580v-6.7h.9v3.9l1.9-1.9h1.1l-1.8,1.7,2,2.9h-1.1l-1.6-2.3-.6.6v1.7h-.9ZM134.9,574.5v-1h1v1h-1ZM135,580v-4.7h.9v4.7h-.9ZM138,580h-.9v-4.3c0,0,0-.2,0-.3h.9v.7c.1-.1.2-.2.4-.3.1-.1.3-.2.5-.3.2,0,.5-.1.7-.1.6,0,1.1.2,1.3.5.3.4.4.8.4,1.4v2.8h-.9v-2.7c0-.4,0-.8-.3-1-.2-.2-.4-.3-.8-.3s-.6,0-.8.3c-.2.2-.3.4-.4.7,0,.3-.1.6-.1.9v2.2ZM142.8,581.6l.4-.7c.2.1.3.2.6.3.2,0,.5.1.8.1s.8-.1,1-.4c.2-.2.3-.6.3-1v-.6c0,0-.1.1-.3.2-.1,0-.3.2-.5.3-.2,0-.4.1-.7.1-.5,0-.8,0-1.2-.3-.3-.2-.6-.5-.7-.8-.2-.4-.2-.8-.2-1.2s.1-.9.3-1.3c.2-.4.5-.7.9-.9.4-.2.8-.3,1.4-.3s.7,0,1.1.1c.3,0,.6.1.8.2v4.4c0,.7-.2,1.2-.6,1.6-.4.4-.9.6-1.6.6s-.8,0-1.1-.2-.5-.2-.7-.4ZM145.9,578.1v-1.9c0,0-.2,0-.3,0-.1,0-.4,0-.6,0s-.6,0-.9.2c-.3.1-.5.3-.6.6-.1.3-.2.5-.2.9s0,.5.1.8c0,.2.2.4.4.6.2.1.5.2.8.2s.5,0,.7-.2c.2-.1.3-.3.4-.4,0-.2.1-.4.1-.6ZM60.8,590v-.6c-.2.2-.4.4-.7.5-.3.1-.6.2-.9.2s-.5,0-.8-.1c-.2,0-.5-.2-.6-.5-.2-.2-.2-.5-.2-.9,0-.5.2-.9.5-1.2.4-.3.9-.4,1.5-.4s.3,0,.4,0c.2,0,.3,0,.4,0,.1,0,.2,0,.2,0v-.2c0-.3-.1-.6-.3-.7-.2-.2-.5-.2-.8-.2s-.6,0-.8.1c-.2,0-.4.2-.5.3l-.4-.6c.2-.1.4-.3.7-.4.3-.1.7-.2,1.2-.2s1.1.1,1.4.4c.3.3.5.7.5,1.2v2.9c0,0,0,.1,0,.2h-.8ZM60.8,588.3v-.5s-.1,0-.2,0c-.1,0-.3,0-.4,0-.1,0-.3,0-.4,0-.3,0-.6,0-.8.2-.2,0-.3.2-.4.4,0,.1,0,.3,0,.4,0,.2,0,.4.3.6.2.1.4.2.7.2s.4,0,.6-.1c.2-.1.4-.2.5-.4.1-.2.2-.3.2-.5ZM68.1,590v-.6c0,0-.2.1-.3.3-.1.1-.3.2-.5.3-.2,0-.5.1-.8.1s-.7,0-1.1-.3c-.3-.2-.6-.5-.7-.8s-.3-.8-.3-1.3,0-.8.2-1.1c.2-.3.4-.6.6-.8s.5-.3.8-.4c.3-.1.5-.2.8-.2s.5,0,.7,0c.2,0,.4.1.6.2v-2.2h.9v6.4c0,0,0,.2,0,.3h-.9ZM68,588v-1.7c-.1,0-.3-.2-.5-.2-.2,0-.4,0-.7,0-.4,0-.8.2-1.1.5-.3.3-.4.7-.4,1.3s0,.6.1.8c0,.2.2.4.4.6.2.1.5.2.8.2s.6,0,.8-.2c.2-.1.3-.3.4-.5,0-.2.1-.4.1-.6ZM73.9,588.8l.5.5c0,0-.2.2-.4.3-.2.1-.4.2-.7.3-.3.1-.6.2-1,.2s-.9-.1-1.3-.3c-.4-.2-.7-.5-.9-.9-.2-.4-.3-.8-.3-1.3s0-.9.3-1.2c.2-.4.5-.7.8-.9.4-.2.8-.3,1.2-.3s1,.1,1.3.4c.3.3.6.6.7,1,.2.4.2.9.2,1.3h-3.7c0,.3,0,.5.2.7.1.2.3.4.5.5.2.1.5.2.8.2.4,0,.7,0,1-.2.3-.1.4-.3.6-.4ZM70.9,587.3h2.7c0-.4-.2-.7-.4-.9-.2-.3-.5-.4-1-.4s-.5,0-.7.2c-.2.1-.4.3-.5.5-.1.2-.2.4-.2.6ZM79,588.8l.5.6c-.2.2-.5.4-.8.6-.3.1-.7.2-1.1.2s-.9-.1-1.3-.3c-.4-.2-.6-.5-.8-.9-.2-.4-.3-.8-.3-1.3s.1-.9.3-1.2c.2-.4.5-.7.9-.9.4-.2.8-.3,1.3-.3s.7,0,1,.2c.3.1.6.3.8.6l-.6.6c-.1-.2-.3-.3-.5-.4-.2-.1-.4-.2-.7-.2s-.6,0-.8.2c-.2.2-.4.4-.5.6-.1.3-.2.5-.2.8s0,.6.2.8c.1.3.3.5.5.6.2.2.5.2.8.2s.5,0,.7-.1c.2-.1.4-.2.5-.4ZM80.5,584.5v-1h1v1h-1ZM80.5,590v-4.7h.9v4.7h-.9ZM82.5,589.4l.5-.6c.2.2.4.3.6.4.2.1.5.2.8.2s.5,0,.8-.1c.2,0,.3-.3.3-.5s0-.3-.1-.4c0,0-.2-.2-.4-.2-.2,0-.5-.2-.8-.2-.2,0-.5-.1-.7-.2-.2-.1-.4-.2-.6-.4-.1-.2-.2-.4-.2-.7s0-.6.3-.8c.2-.2.4-.4.7-.5.3-.1.6-.2.9-.2s.7,0,1,.2c.3.1.5.2.7.4l-.5.6c-.1-.1-.3-.2-.5-.3-.2,0-.4-.1-.7-.1s-.5,0-.7.1c-.2,0-.3.2-.3.5s.1.3.3.5c.2,0,.5.2.9.3.3,0,.6.2.8.3.2.1.4.3.6.4.1.2.2.4.2.7s0,.6-.3.8c-.2.2-.4.4-.7.5-.3.1-.6.2-.9.2-.9,0-1.5-.2-2-.7ZM87.4,584.5v-1h1v1h-1ZM87.5,590v-4.7h.9v4.7h-.9ZM91.9,590.1c-.5,0-.9-.1-1.3-.3-.4-.2-.7-.5-.9-.9-.2-.4-.3-.8-.3-1.2s.1-.9.3-1.2c.2-.4.5-.7.9-.9.4-.2.8-.3,1.3-.3s.9.1,1.3.3c.4.2.7.5.9.9.2.4.3.8.3,1.2s-.1.9-.3,1.2c-.2.4-.5.7-.9.9-.4.2-.8.3-1.3.3ZM91.9,589.4c.3,0,.6,0,.8-.2.2-.2.4-.4.5-.6.1-.3.2-.5.2-.8s0-.5-.2-.8c-.1-.3-.3-.5-.5-.6-.2-.2-.5-.2-.8-.2s-.6,0-.8.2c-.2.2-.4.4-.5.6-.1.3-.2.5-.2.8s0,.5.2.8c.1.3.3.5.5.6.2.2.5.2.8.2ZM96.3,590h-.9v-4.3c0,0,0-.2,0-.3h.9v.7c.1-.1.2-.2.3-.3.1-.1.3-.2.5-.3.2,0,.5-.1.7-.1.6,0,1.1.2,1.3.5.3.4.4.8.4,1.4v2.8h-.9v-2.7c0-.4,0-.8-.3-1-.2-.2-.4-.3-.8-.3s-.6,0-.8.3c-.2.2-.3.4-.4.7,0,.3-.1.6-.1.9v2.2ZM100.9,590v-1.1h1.1v1.1h-1.1Z" fill="#99a9bb" stroke-width="0"/>
</svg>