<svg width="131" height="164" viewBox="0 0 131 164" fill="none" xmlns="http://www.w3.org/2000/svg">
  <path d="M4.8,1.9c-1.4,0-2.2.5-2.2,1.5s.2.9.5,1.1c.3.2,1.1.5,2.2.8,1.2.3,2,.7,2.5,1.2.5.4.7,1.1.7,2.1s-.4,2.1-1.1,2.8c-.7.6-1.6.9-2.8.9s-2-.1-3.2-.3h-.6c0-.1.2-1.6.2-1.6,1.5.2,2.7.3,3.5.3,1.4,0,2.1-.6,2.1-1.9s-.2-.8-.5-1.1c-.3-.2-1-.5-2.1-.8-1.1-.3-1.9-.7-2.5-1.2-.5-.5-.8-1.3-.8-2.3s.3-1.8,1-2.4C2.4.5,3.4.2,4.6.2s1.9.1,3.1.3h.6c0,.1-.2,1.6-.2,1.6-1.6-.2-2.7-.3-3.4-.3ZM9.2,3.5h1.8l1.3,6.9h.3l1.6-6.7h1.9l1.6,6.7h.3l1.3-6.9h1.8l-1.8,8.5h-2.9l-1.3-5.8-1.3,5.8h-2.9l-1.8-8.5ZM22.6,12V3.5h1.9v8.5h-1.9ZM22.6,2.1V.1h1.9v2h-1.9ZM30.9,5.1h-2.3v3.7c0,.7,0,1.2.2,1.4.1.2.4.3.8.3h1.4c0,0,0,1.4,0,1.4-.8.1-1.3.2-1.7.2-1,0-1.6-.2-2-.7-.4-.4-.5-1.3-.5-2.5v-3.9h-1.1v-1.6h1.1V1.1h1.8v2.5h2.3v1.6ZM35.3,3.3c.6,0,1.3,0,2.1.2h.4c0,0,0,1.5,0,1.5-.9,0-1.6-.1-2-.1-.9,0-1.4.2-1.7.6-.3.4-.4,1.1-.4,2.2s.1,1.8.4,2.2c.3.4.9.6,1.8.6h2c0-.1,0,1.3,0,1.3-1.1.2-2,.3-2.6.3-1.3,0-2.2-.3-2.7-1-.5-.7-.8-1.8-.8-3.4s.3-2.7.8-3.4c.6-.7,1.5-1,2.7-1ZM41.1,12h-1.9V0h1.9v4c.8-.4,1.6-.6,2.3-.6,1.1,0,1.9.3,2.3,1,.4.6.6,1.7.6,3.2v4.6h-1.9v-4.5c0-.9,0-1.6-.3-2-.2-.4-.6-.6-1.2-.6s-1.1,0-1.6.3h-.3v6.8ZM57.9,6.2v3.9c0,.2,0,.4.2.6.1.1.3.2.6.2v1.4c-1,0-1.8-.2-2.3-.6-.9.4-1.8.6-2.7.6-1.7,0-2.5-.9-2.5-2.7s.2-1.5.7-1.9c.5-.4,1.2-.6,2.1-.7l2.2-.2v-.6c0-.5-.1-.8-.3-1-.2-.2-.5-.3-.9-.3-.7,0-1.6,0-2.7.1h-.5s0-1.3,0-1.3c1.2-.3,2.4-.4,3.4-.4s1.8.2,2.2.7c.5.4.7,1.2.7,2.1ZM54.1,8.3c-.8,0-1.2.5-1.2,1.3s.3,1.2,1,1.2,1.2,0,1.8-.3h.3v-2.4l-2,.2ZM61.7,12h-1.9V3.5h1.8v.5c.8-.5,1.6-.7,2.3-.7,1.1,0,1.9.3,2.3,1,.4.6.6,1.7.6,3.2v4.6h-1.8v-4.5c0-.9-.1-1.6-.3-2-.2-.4-.6-.6-1.2-.6s-1.1.1-1.7.3h-.3v6.7ZM75.8,0v12h-1.8v-.4c-.8.4-1.6.6-2.3.6-1.1,0-1.9-.3-2.4-1-.5-.7-.8-1.8-.8-3.4s.3-2.7.9-3.4c.6-.7,1.5-1.1,2.7-1.1s1.1,0,1.9.2V0h1.9ZM73.6,10.3h.3v-5.2c-.7-.1-1.3-.2-1.9-.2-1.1,0-1.7,1-1.7,2.9s.1,1.8.4,2.2c.3.4.7.6,1.3.6s1.1-.1,1.6-.3ZM7,22.3c-1.3-.2-2.3-.3-2.9-.3s-1,0-1.3.2c-.2.1-.3.4-.3.7s.1.5.4.6c.3.1.9.3,1.8.4,1,.2,1.6.4,2,.8.4.4.6,1,.6,1.9s-.3,1.6-.9,2c-.6.4-1.4.6-2.5.6s-1.6,0-2.6-.3h-.5c0,0,0-1.6,0-1.6,1.4.2,2.3.3,2.9.3s1,0,1.3-.2c.3-.1.4-.4.4-.7s-.1-.6-.4-.7c-.2-.1-.8-.3-1.8-.4-.9-.2-1.6-.4-2-.7-.4-.3-.6-.9-.6-1.8s.3-1.5.9-2c.6-.4,1.4-.6,2.3-.6s1.6,0,2.7.3h.5c0,.1,0,1.6,0,1.6ZM13.3,22.1h-2.3v3.7c0,.7,0,1.2.2,1.4.1.2.4.3.8.3h1.4c0,0,0,1.4,0,1.4-.8.1-1.3.2-1.7.2-1,0-1.6-.2-2-.7-.4-.4-.5-1.3-.5-2.5v-3.9h-1.1v-1.6h1.1v-2.5h1.8v2.5h2.3v1.6ZM20.8,23.2v3.9c0,.2,0,.4.2.6.1.1.3.2.6.2v1.4c-1,0-1.8-.2-2.3-.6-.9.4-1.8.6-2.7.6-1.7,0-2.5-.9-2.5-2.7s.2-1.5.7-1.9c.5-.4,1.2-.6,2.1-.7l2.2-.2v-.6c0-.5-.1-.8-.3-1-.2-.2-.5-.3-.9-.3-.7,0-1.6,0-2.7.1h-.5s0-1.3,0-1.3c1.2-.3,2.4-.4,3.4-.4s1.8.2,2.2.7c.5.4.7,1.2.7,2.1ZM17,25.3c-.8,0-1.2.5-1.2,1.3s.3,1.2,1,1.2,1.2,0,1.8-.3h.3v-2.4l-2,.2ZM21.9,20.5h1.8l1.8,6.9h.5l1.8-6.9h1.8l-3.2,12.2h-1.8l1-3.7h-1.5l-2.2-8.5ZM36.3,22.1v6.9h-1.8v-6.9h-1v-1.6h1v-.5c0-1.2.2-2,.5-2.5.4-.5,1-.7,1.9-.7l1.8.2v1.5c-.6,0-1,0-1.4,0s-.6.1-.8.3c-.1.2-.2.6-.2,1.2v.5h2.2v1.6h-2.2ZM40,21.5c.6-.7,1.6-1.1,2.9-1.1s2.3.4,2.9,1.1c.6.7.9,1.8.9,3.3s-.3,2.6-.9,3.3c-.6.7-1.5,1.1-2.9,1.1s-2.4-.4-2.9-1.1c-.6-.7-.8-1.9-.8-3.3s.3-2.6.9-3.3ZM41.4,27c.3.5.8.7,1.5.7s1.3-.2,1.5-.7.4-1.2.4-2.2-.1-1.8-.4-2.2c-.3-.4-.8-.6-1.5-.6s-1.2.2-1.5.6c-.3.4-.4,1.2-.4,2.2s.1,1.8.4,2.2ZM48.2,29v-8.5h1.8v1c1-.6,1.9-1,2.9-1.2v1.9c-1,.2-1.8.4-2.5.7l-.4.2v5.9h-1.9ZM62.6,20.5h1.8v8.5h-1.8v-.5c-.8.5-1.6.7-2.3.7-1.2,0-1.9-.3-2.3-.9-.4-.6-.6-1.7-.6-3.3v-4.4h1.9v4.5c0,1,0,1.7.3,2.1.2.4.6.5,1.2.5s1.2-.1,1.7-.3h.3v-6.7ZM66.3,32.7v-12.2h1.8v.5c.8-.5,1.5-.7,2.2-.7,1.1,0,1.9.3,2.5,1,.5.7.8,1.8.8,3.5s-.3,2.7-.9,3.4c-.6.7-1.6,1-2.9,1s-1,0-1.6-.2v3.6h-1.9ZM70,22c-.5,0-1.1.1-1.6.4h-.3v5.1c.5,0,1,.1,1.5.1.8,0,1.3-.2,1.6-.7.3-.4.4-1.2.4-2.3,0-1.8-.6-2.7-1.7-2.7ZM83.1,22.1h-2.3v3.7c0,.7,0,1.2.2,1.4s.4.3.8.3h1.4c0,0,0,1.4,0,1.4-.8.1-1.3.2-1.7.2-1,0-1.6-.2-2-.7-.4-.4-.5-1.3-.5-2.5v-3.9h-1.1v-1.6h1.1v-2.5h1.8v2.5h2.3v1.6ZM84.7,21.5c.6-.7,1.6-1.1,2.9-1.1s2.3.4,2.9,1.1c.6.7.9,1.8.9,3.3s-.3,2.6-.8,3.3c-.6.7-1.5,1.1-2.9,1.1s-2.4-.4-2.9-1.1c-.6-.7-.8-1.9-.8-3.3s.3-2.6.9-3.3ZM86.1,27c.3.5.8.7,1.5.7s1.3-.2,1.5-.7c.3-.5.4-1.2.4-2.2s-.1-1.8-.4-2.2c-.3-.4-.8-.6-1.5-.6s-1.2.2-1.5.6c-.3.4-.4,1.2-.4,2.2s.1,1.8.4,2.2Z" fill="#fff" stroke-width="0"/>
  <path d="M11,46.1c1.5.1,2.8.3,4,.6h.6c0,.1-.4,3.9-.4,3.9-1.7-.2-3.3-.3-4.8-.4l-.7,5.7c2.5.8,4.1,1.6,5,2.6.9.9,1.3,2.3,1.3,4.2,0,2.5-.7,4.3-2.2,5.6-1.5,1.2-3.4,1.9-5.8,1.9h0l-.5,4.2c-1.7,0-2.6-.2-2.6-.2l.5-4.1c-1.7-.2-3.2-.5-4.4-.7H.3c0-.1.5-3.8.5-3.8,1.9.3,3.6.4,5.2.5l.8-6.1c-2.4-.7-4.1-1.6-5.2-2.7C.5,56,0,54.6,0,52.8c0-2.3.7-4.1,2.1-5.2,1.4-1.2,3.4-1.7,5.8-1.7h.5l.6-4.9h2.6l-.6,5.1ZM8.6,65.9c1.9-.2,2.9-1.2,2.9-3,0-.6-.2-1-.5-1.4-.3-.4-.9-.7-1.7-1.1l-.7,5.4ZM7.9,50.1c-2.1,0-3.2.9-3.2,2.4s.2,1,.5,1.4c.4.4,1,.7,2,1.1l.6-4.9Z" fill="#ffe344" stroke-width="0"/>
  <path d="M50.7,50.4h-20.8l-1.2,10.1c2.9-1.1,5.7-1.7,8.3-1.7,10.1,0,15.1,4.7,15.1,14.1s-1.4,9.4-4.2,12.2c-2.8,2.9-6.7,4.3-11.8,4.3s-4.6-.2-7.4-.6c-2.7-.4-4.9-.9-6.6-1.3l-2.5-.6,1.1-7.2c5.7.9,10.5,1.3,14.3,1.3s4.1-.6,5.3-1.8c1.2-1.2,1.8-3,1.8-5.2,0-2.3-.5-4-1.6-5-1-1-2.5-1.6-4.4-1.6-3.2,0-5.9.3-8.3.9l-1.1.3-5.8-1.3,1.3-25.2h28.5v8.5ZM74,41.1c6,0,10.5,1.9,13.5,5.8,3.1,3.9,4.6,10.1,4.6,18.7s-1.5,14.7-4.5,18.4c-3,3.7-7.5,5.5-13.6,5.5-6,0-10.6-1.8-13.6-5.5-3-3.7-4.5-9.8-4.5-18.4,0-8.6,1.5-14.8,4.5-18.7,3.1-3.9,7.6-5.8,13.6-5.8ZM112.2,41.1c6,0,10.5,1.9,13.5,5.8,3.1,3.9,4.6,10.1,4.6,18.7s-1.5,14.7-4.5,18.4c-3,3.7-7.5,5.5-13.6,5.5-6,0-10.6-1.8-13.6-5.5-3-3.7-4.5-9.8-4.5-18.4s1.5-14.8,4.5-18.7c3.1-3.9,7.6-5.8,13.6-5.8ZM74,49.6c-2.9,0-4.9,1.2-6.2,3.5-1.2,2.4-1.8,6.4-1.8,12.2s.6,9.8,1.9,12.2c1.3,2.3,3.3,3.5,6.2,3.5s4.9-1.2,6.1-3.5c1.2-2.3,1.8-6.4,1.8-12.2s-.6-9.9-1.8-12.2c-1.2-2.4-3.3-3.5-6.2-3.5ZM112.2,49.6c-2.9,0-4.9,1.2-6.2,3.5-1.2,2.4-1.8,6.4-1.8,12.2s.6,9.8,1.9,12.2c1.3,2.3,3.3,3.5,6.2,3.5s4.9-1.2,6.1-3.5,1.8-6.4,1.8-12.2-.6-9.9-1.8-12.2c-1.2-2.4-3.3-3.5-6.2-3.5Z" fill="#ffe344" stroke-width="0"/>
  <path d="M47.5,97.6c.5,0,.9,0,1.4.2h.2s2.5,0,2.5,0v1.4h-1.3c.3.3.4.7.4,1.2,0,1-.3,1.8-.8,2.2-.5.4-1.3.6-2.5.6s-.5,0-.7,0c-.1.4-.2.6-.2.8,0,.2,0,.3.3.4.2,0,.7.1,1.4.1,1.3,0,2.1.2,2.6.5.5.3.7,1,.7,1.9,0,1.7-1.3,2.6-3.8,2.6s-2.1-.2-2.7-.5c-.6-.3-.9-.9-.9-1.8s0-.7.3-1c.2-.3.5-.6.9-.9-.4-.2-.5-.6-.5-1.2,0-.2.1-.6.4-1v-.2c-.6-.5-1-1.3-1-2.4s.3-1.7.9-2.1c.6-.4,1.4-.7,2.3-.7ZM55.3,104.3h.4l1.7-6.5h1.7l-3,11.4h-1.7l1-3.4h-1.4l-2.1-8h1.7l1.7,6.5ZM46.6,105.9c-.2.2-.4.4-.5.5,0,.2-.1.4-.1.6,0,.4.1.6.4.8.3.2.8.2,1.5.2,1.3,0,1.9-.4,1.9-1.1,0-.4-.1-.7-.4-.8-.2-.1-.7-.2-1.4-.2h-1.6ZM18.2,97.6c2.2,0,3.4,1.2,3.4,3.7v1.2h-5.1c0,.7.2,1.1.4,1.5.3.3.8.5,1.6.5.8,0,1.5,0,2.3,0h.4s0,1.2,0,1.2c-1.2.2-2.3.4-3.2.4s-2-.3-2.6-1c-.5-.6-.8-1.7-.8-3.1,0-2.8,1.2-4.3,3.5-4.3ZM34.5,97.6c2.2,0,3.4,1.2,3.4,3.7v1.2h-5.1c0,.7.2,1.1.4,1.5.3.3.8.5,1.6.5.8,0,1.5,0,2.3,0h.4s0,1.2,0,1.2c-1.2.2-2.3.4-3.2.4s-2-.3-2.6-1c-.5-.6-.8-1.7-.8-3.1,0-2.8,1.2-4.3,3.5-4.3ZM65.2,98.1c.7-.3,1.4-.5,2-.5,1.1,0,1.9.3,2.4.9.5.6.7,1.7.7,3.2s-.3,2.6-.9,3.3c-.6.6-1.6.9-3,.9s-1.3,0-2.4-.1h-.5v-11.4h1.7v3.6ZM88.9,97.6c.6,0,1.2,0,2,.2h.4c0,0,0,1.5,0,1.5-.8,0-1.5-.1-1.9-.1-.8,0-1.4.2-1.6.5-.3.4-.4,1-.4,2s.1,1.7.4,2.1c.3.4.8.6,1.7.6h1.9c0-.1,0,1.3,0,1.3-1.1.2-1.9.3-2.4.3-1.2,0-2.1-.3-2.6-1-.5-.7-.7-1.7-.7-3.2,0-1.5.3-2.6.8-3.2.5-.6,1.4-1,2.6-1ZM101.1,97.6c2.2,0,3.4,1.2,3.4,3.7v1.2h-5.1c0,.7.2,1.1.4,1.5.3.3.8.5,1.6.5s1.5,0,2.3,0h.4s0,1.2,0,1.2c-1.2.2-2.3.4-3.2.4s-2-.3-2.6-1c-.5-.6-.8-1.7-.8-3.1,0-2.8,1.2-4.3,3.5-4.3ZM112.4,105.8h-1.7v-.4c-.8.4-1.5.6-2.1.6-1,0-1.8-.3-2.3-.9-.5-.6-.7-1.7-.7-3.2s.3-2.6.8-3.2c.5-.7,1.4-1,2.5-1s1,0,1.8.2v-3.4h1.7v11.3ZM119.8,97.8h2.2v1.5h-2.2v3.5c0,.6,0,1.1.1,1.3,0,.2.3.3.7.3h1.3s0,1.3,0,1.3c-.7.1-1.3.2-1.6.2-.9,0-1.5-.2-1.9-.6-.3-.4-.5-1.2-.5-2.4v-3.7h-1v-1.5h1v-2.3h1.7v2.3ZM125.7,97.6c.7,0,1.5,0,2.5.3h.5c0,0,0,1.6,0,1.6-1.3-.2-2.2-.3-2.7-.3s-1,0-1.2.2c-.2.1-.3.3-.3.6s.1.5.4.6c.2.1.8.3,1.7.4.9.2,1.5.4,1.9.7.4.3.6.9.6,1.8s-.3,1.5-.8,1.9c-.5.4-1.3.6-2.4.6s-1.5,0-2.5-.3h-.5c0,0,0-1.5,0-1.5,1.3.2,2.2.3,2.8.3s1,0,1.2-.2c.2-.1.4-.4.4-.7s-.1-.5-.4-.7c-.2-.1-.8-.3-1.6-.4-.9-.1-1.5-.4-1.9-.7-.4-.3-.6-.9-.6-1.7s.3-1.4.8-1.8c.6-.4,1.3-.6,2.2-.6ZM1.7,105.8H0v-8h1.7v8ZM7.5,97.6c1.1,0,1.8.3,2.2.9.4.6.6,1.6.6,3v4.3h-1.7v-4.2c0-.9,0-1.5-.3-1.8-.2-.4-.6-.5-1.1-.5-.5,0-1.1.1-1.6.3h-.2v6.3h-1.7v-8h1.7v.5c.8-.4,1.5-.7,2.2-.7ZM26.9,97.6c1.1,0,1.8.3,2.2.9.4.6.6,1.6.6,3v4.3h-1.7v-4.2c0-.9,0-1.5-.3-1.8-.2-.4-.6-.5-1.1-.5-.5,0-1.1.1-1.6.3h-.2v6.3h-1.7v-8h1.7v.5c.8-.4,1.5-.7,2.2-.7ZM43.6,99.4c-.9.2-1.7.4-2.4.7h-.4v5.7h-1.7v-8h1.7v1c.9-.6,1.8-1,2.7-1.1v1.7ZM73.4,105.8h-1.7v-8h1.7v8ZM77.1,105.8h-1.7v-11.3h1.7v11.3ZM80.8,105.8h-1.7v-11.3h1.7v11.3ZM97.1,99.4c-.9.2-1.7.4-2.4.7h-.4v5.7h-1.7v-8h1.7v1c.9-.6,1.8-1,2.7-1.1v1.7ZM115.9,105.8h-1.7v-8h1.7v8ZM66.9,99.2c-.5,0-1,0-1.5.2h-.3v4.9c.6,0,1,0,1.2,0,.9,0,1.4-.2,1.7-.6.3-.4.4-1.1.4-2,0-1-.1-1.6-.4-2-.2-.4-.6-.6-1.2-.6ZM108.8,99.1c-1.1,0-1.6.9-1.6,2.7s.1,1.7.4,2c.3.4.7.6,1.2.6s1.1,0,1.6-.3h.3v-4.8c-.6-.1-1.2-.2-1.8-.2ZM47.5,99c-1,0-1.5.5-1.5,1.4,0,.5.1.9.4,1.1.2.2.6.3,1.1.3s.9-.1,1.1-.3c.2-.2.4-.6.4-1.1s-.1-.8-.4-1.1c-.2-.2-.6-.4-1.1-.4ZM18.2,99.1c-.6,0-1,.2-1.3.5-.3.3-.4.9-.4,1.6h3.4c0-.8-.1-1.3-.4-1.6-.2-.3-.7-.5-1.3-.5ZM34.5,99.1c-.6,0-1,.2-1.3.5-.3.3-.4.9-.4,1.6h3.4c0-.8-.1-1.3-.4-1.6-.2-.3-.7-.5-1.3-.5ZM101.1,99.1c-.6,0-1,.2-1.3.5-.3.3-.4.9-.4,1.6h3.4c0-.8-.1-1.3-.4-1.6-.2-.3-.7-.5-1.3-.5ZM1.7,96.4H0v-1.8h1.7v1.8ZM73.4,96.4h-1.7v-1.8h1.7v1.8ZM115.9,96.4h-1.7v-1.8h1.7v1.8Z" fill="#ffe344" stroke-width="0"/>
  <path d="M.2,120.2v-1h7.5v1h-3.2v9.3h-1.1v-9.3H.2ZM9.8,129.5h-1.1v-10.8h1.1v3.7c.8-.4,1.6-.6,2.3-.6s1.7.3,2,.8c.4.5.5,1.5.5,2.9v4h-1.1v-3.9c0-1-.1-1.8-.3-2.1-.2-.4-.6-.6-1.3-.6s-1.2.1-1.8.3h-.3v6.3ZM21.7,124.3v3.8c0,.4.3.6.9.7v.9c-.8,0-1.4-.2-1.8-.6-.9.4-1.8.6-2.7.6s-1.2-.2-1.6-.6-.5-.9-.5-1.7.2-1.3.6-1.6c.4-.3,1-.6,1.7-.6l2.4-.2v-.6c0-.5-.1-.9-.3-1.1-.2-.2-.5-.3-.9-.3-.8,0-1.6,0-2.5.2h-.5s0-.8,0-.8c1.1-.2,2.1-.3,2.9-.3s1.5.2,1.8.6c.4.4.6,1,.6,1.8ZM17.1,127.3c0,.9.4,1.4,1.1,1.4s1.3-.1,2-.3h.3v-2.6l-2.2.2c-.4,0-.8.2-1,.4-.2.2-.3.5-.3,1ZM27.5,123h-2.4v3.6c0,.9,0,1.4.2,1.7.1.3.4.4.9.4h1.3c0,0,0,.8,0,.8-.7.1-1.2.2-1.5.2-.8,0-1.3-.2-1.6-.6-.3-.4-.4-1.1-.4-2.2v-3.9h-1.1v-1h1.1v-2.3h1.1v2.3h2.4v1ZM28.3,122.2l.7-3.3h1.2l-1,3.3h-.9ZM33.6,122.9c-1.1,0-1.6.4-1.6,1.1s.1.6.4.8c.2.1.8.3,1.7.4.9.2,1.5.4,1.9.6s.6.8.6,1.6-.2,1.3-.8,1.7c-.5.4-1.2.5-2.2.5s-1.3,0-2.2-.2h-.4c0,0,0-1.1,0-1.1,1.1.2,2,.3,2.6.3s1,0,1.3-.3c.3-.2.5-.5.5-.9s-.1-.7-.4-.9c-.3-.2-.8-.3-1.7-.5-.9-.1-1.5-.3-1.9-.6-.4-.3-.6-.8-.6-1.5s.3-1.3.8-1.6c.5-.3,1.2-.5,1.9-.5s1.4,0,2.3.2h.4c0,0,0,1,0,1-1.1-.2-2-.2-2.6-.2ZM47.3,126.6c0,2-1.1,3-3.2,3h-.2l-.2,1.7c-.5,0-.8,0-.8-.1l.2-1.7-2.1-.3v-.9c.9.1,1.6.2,2.3.2l.5-3.8c-1-.2-1.8-.5-2.2-.9-.4-.4-.6-1-.6-1.9,0-1.8,1.1-2.7,3.2-2.7s.3,0,.3,0l.3-1.9h.8l-.3,2,1.9.2v.9c-.8,0-1.4-.1-2-.2l-.4,3.5c1,.2,1.7.5,2.1.9.4.4.6.9.6,1.7ZM42,122.1c0,.5.1.9.4,1.2.3.2.8.4,1.5.6l.4-3.4h-.1c-1.4,0-2.1.5-2.1,1.6ZM46.2,126.7c0-.5-.1-.8-.4-1.1-.2-.2-.7-.4-1.3-.6l-.5,3.6h0c1.4,0,2.1-.7,2.1-2ZM49.1,119.9c.9-.3,1.9-.4,3-.4s1.9.2,2.3.6c.5.4.7,1.1.7,2s0,.8-.2,1c-.1.2-.2.4-.3.5,0,.1-.2.2-.3.3-.2.2-.4.3-.5.4h-.2c.6.3,1,.6,1.3.9.3.3.4.8.4,1.6s-.3,1.8-.8,2.3c-.5.5-1.3.7-2.4.7s-1.8-.1-2.8-.3h-.5c0-.1.1-1.1.1-1.1,1.1.2,2.1.3,3,.3,1.4,0,2.1-.7,2.1-1.9s-.7-1.8-2-1.9h-2v-1h2c.4,0,.8-.2,1.2-.5.4-.3.6-.8.6-1.3s-.2-.9-.5-1.2c-.3-.2-.8-.4-1.6-.4s-1.6,0-2.4.2h-.4c0,0-.1-.8-.1-.8ZM60.3,119.5c.8,0,1.5.2,2,.5,1.1.6,1.6,2.2,1.6,4.8s-.3,3.1-.9,3.8c-.6.7-1.5,1.1-2.7,1.1s-2.1-.4-2.7-1.1c-.6-.7-.9-2.1-.9-3.9s.3-3.2.9-4c.6-.8,1.5-1.2,2.7-1.2ZM60.3,120.5c-.6,0-1,.1-1.4.4-.7.5-1.1,1.8-1.1,3.9s.2,2.5.6,3.1c.4.6,1,.8,1.8.8s1.4-.3,1.8-.9.6-1.6.6-3.2-.2-2.6-.6-3.2c-.4-.6-1-.9-1.8-.9ZM68.3,119.5c.8,0,1.5.2,2,.5,1.1.6,1.6,2.2,1.6,4.8s-.3,3.1-.9,3.8c-.6.7-1.5,1.1-2.7,1.1s-2.1-.4-2.7-1.1c-.6-.7-.9-2.1-.9-3.9s.3-3.2.9-4c.6-.8,1.5-1.2,2.7-1.2ZM68.4,120.5c-.6,0-1,.1-1.3.4-.7.5-1.1,1.8-1.1,3.9s.2,2.5.6,3.1c.4.6,1,.8,1.8.8s1.4-.3,1.8-.9.6-1.6.6-3.2-.2-2.6-.6-3.2c-.4-.6-1-.9-1.8-.9ZM77.8,123v6.5h-1.1v-6.5h-.9v-1h.9v-.7c0-1.1.2-1.8.5-2.2.3-.4.8-.6,1.6-.6h1.5c0,.1,0,1,0,1-.6,0-1,0-1.4,0s-.6.1-.8.4c-.1.2-.2.7-.2,1.4v.7h2.2v1h-2.2ZM80.5,125.8c0-1.4.2-2.4.7-3s1.3-.9,2.5-.9,2,.3,2.5.9c.5.6.7,1.6.7,3s-.2,2.4-.7,3-1.3.9-2.5.9-2.1-.3-2.5-.9-.7-1.6-.7-3ZM81.7,125.7c0,1.1.1,1.9.4,2.3.3.4.8.7,1.7.7s1.4-.2,1.7-.6c.3-.4.4-1.2.4-2.3s-.1-1.9-.4-2.3c-.3-.4-.8-.6-1.6-.6s-1.3.2-1.6.6c-.3.4-.4,1.2-.4,2.3ZM88.5,129.5v-7.5h1.1v1c.9-.6,1.8-1,2.7-1.2v1.1c-.4,0-.9.2-1.3.4-.4.2-.8.3-1,.5l-.4.2v5.5h-1.1ZM6.2,143.6h.4s0,.8,0,.8c-1.1.2-2.1.2-2.9.2s-1.8-.3-2.3-.9c-.4-.6-.7-1.6-.7-2.9,0-2.6,1-3.9,3.1-3.9s1.8.3,2.3.9c.5.6.8,1.4.8,2.7v.9H1.9c0,.8.1,1.4.4,1.8.3.4.8.6,1.6.6s1.5,0,2.3,0ZM5.8,140.3c0-.9-.2-1.6-.5-1.9-.3-.4-.8-.6-1.4-.6s-1.2.2-1.5.6c-.3.4-.5,1-.5,1.9h3.9ZM8.4,144.5v-10.8h1.1v10.8h-1.1ZM16.6,143.6h.4s0,.8,0,.8c-1.1.2-2.1.2-2.9.2s-1.8-.3-2.3-.9c-.4-.6-.7-1.6-.7-2.9,0-2.6,1-3.9,3.1-3.9s1.8.3,2.3.9c.5.6.8,1.4.8,2.7v.9h-5c0,.8.2,1.4.4,1.8.3.4.8.6,1.6.6s1.5,0,2.3,0ZM16.2,140.3c0-.9-.1-1.6-.4-1.9-.3-.4-.8-.6-1.4-.6s-1.2.2-1.5.6c-.3.4-.5,1-.5,1.9h3.9ZM21.6,136.9c.3,0,.9,0,1.7.2h.4s0,1,0,1c-.8,0-1.4-.1-1.8-.1-.8,0-1.4.2-1.7.6-.3.4-.4,1.1-.4,2.2s.1,1.9.4,2.3c.3.4.9.6,1.8.6h1.8c0-.1,0,.8,0,.8-.9.1-1.6.2-2.1.2-1.2,0-2-.3-2.4-.9-.4-.6-.7-1.6-.7-3s.2-2.4.7-3c.5-.6,1.3-.9,2.4-.9ZM28.9,138h-2.4v3.6c0,.9,0,1.4.2,1.7.1.3.4.4.9.4h1.3c0,0,0,.8,0,.8-.7.1-1.2.2-1.5.2-.8,0-1.3-.2-1.6-.6-.3-.4-.5-1.1-.5-2.2v-3.9h-1.1v-1h1.1v-2.3h1.1v2.3h2.4v1ZM30,144.5v-7.5h1.1v1c.9-.6,1.8-1,2.7-1.2v1.1c-.4,0-.9.2-1.3.4-.5.2-.8.3-1,.4l-.4.2v5.5h-1.1ZM34.9,144.5v-7.5h1.1v7.5h-1.1ZM34.9,135.3v-1.3h1.1v1.3h-1.1ZM40.7,136.9c.3,0,.9,0,1.7.2h.4s0,1,0,1c-.8,0-1.4-.1-1.8-.1-.9,0-1.4.2-1.7.6-.3.4-.5,1.1-.5,2.2s.1,1.9.4,2.3c.3.4.9.6,1.8.6h1.8c0-.1,0,.8,0,.8-.9.1-1.6.2-2.1.2-1.2,0-2-.3-2.4-.9-.4-.6-.7-1.6-.7-3s.2-2.4.7-3c.5-.6,1.3-.9,2.4-.9ZM44.1,144.5v-7.5h1.1v7.5h-1.1ZM44.1,135.3v-1.3h1.1v1.3h-1.1ZM51,138h-2.4v3.6c0,.9,0,1.4.2,1.7.1.3.4.4.9.4h1.3c0,0,0,.8,0,.8-.7.1-1.2.2-1.5.2-.8,0-1.3-.2-1.6-.6s-.5-1.1-.5-2.2v-3.9h-1.1v-1h1.1v-2.3h1.1v2.3h2.4v1ZM51.3,137h1.1l1.9,6.5h.5l1.9-6.5h1.1l-3.1,10.8h-1.1l1-3.3h-1.1l-2.1-7.5ZM67.3,139.3v3.8c0,.4.3.6.9.7v.9c-.8,0-1.4-.2-1.8-.6-.9.4-1.8.6-2.7.6s-1.2-.2-1.6-.6c-.4-.4-.5-.9-.5-1.7s.2-1.3.6-1.6c.4-.3,1-.6,1.7-.6l2.4-.2v-.6c0-.5-.1-.9-.3-1.1s-.5-.3-.9-.3c-.8,0-1.6,0-2.5.2h-.5s0-.8,0-.8c1.1-.2,2.1-.3,2.9-.3s1.5.2,1.8.6c.4.4.6,1,.6,1.8ZM62.7,142.3c0,.9.4,1.4,1.1,1.4s1.3-.1,2-.3h.3v-2.6l-2.2.2c-.5,0-.8.2-1,.4-.2.2-.3.5-.3,1ZM70.3,144.5h-1.1v-7.5h1.1v.5c.8-.5,1.6-.7,2.3-.7s1.7.3,2,.8c.3.5.5,1.5.5,2.9v4h-1.1v-3.9c0-1-.1-1.8-.3-2.1-.2-.4-.6-.6-1.3-.6s-.7,0-1,.2c-.3,0-.6.2-.8.3h-.3v6.2ZM82.7,133.7v10.8h-1.1v-.5c-.8.4-1.5.7-2.3.7s-.8,0-1-.2c-.3,0-.6-.3-.8-.5-.5-.5-.8-1.5-.8-3s.2-2.5.7-3.2c.5-.6,1.3-1,2.4-1s1.2,0,1.8.2v-3.3h1.1ZM78.3,143.2c.2.2.3.3.5.4.2,0,.4.1.7.1s.6,0,1-.1c.4,0,.6-.2.8-.3h.3v-5.2c-.6-.1-1.2-.2-1.8-.2s-1.3.2-1.6.7c-.3.5-.4,1.2-.4,2.2s.2,1.9.5,2.3ZM7.4,156.6c0,2-1.1,3-3.2,3h-.2l-.2,1.7c-.5,0-.8,0-.8-.1l.2-1.7-2.1-.3v-.9c.9.1,1.6.2,2.3.2l.5-3.8c-1-.2-1.8-.5-2.2-.9-.4-.4-.6-1-.6-1.9,0-1.8,1.1-2.7,3.2-2.7s.3,0,.3,0l.3-1.9h.8l-.3,2,1.9.2v.9c-.8,0-1.4-.1-2-.2l-.4,3.5c1,.2,1.7.5,2.1.9s.6.9.6,1.7ZM2.1,152.1c0,.5.1.9.4,1.2.3.2.8.4,1.5.6l.4-3.4h-.2c-1.4,0-2.1.5-2.1,1.6ZM6.3,156.7c0-.5-.1-.8-.4-1.1-.2-.2-.7-.4-1.3-.6l-.5,3.6h0c1.4,0,2.1-.7,2.1-2ZM15.5,159.5h-6.3v-1l2.9-3c.5-.5.9-.9,1.1-1.2.2-.3.4-.6.6-1,.2-.4.3-.7.3-1.1,0-.6-.2-1.1-.5-1.4-.3-.3-.9-.4-1.6-.4s-1.4,0-2.2.3h-.4c0,0,0-.9,0-.9,1-.3,1.9-.4,2.9-.4s1.8.2,2.3.6c.5.4.8,1.1.8,2s-.2,1.3-.5,1.8c-.3.5-.8,1.1-1.6,1.9l-2.6,2.7h5v1ZM20.4,149.5c.8,0,1.5.2,2,.5,1.1.6,1.6,2.2,1.6,4.8s-.3,3.1-.9,3.8c-.6.7-1.5,1.1-2.7,1.1s-2.1-.4-2.7-1.1c-.6-.7-.9-2.1-.9-3.9s.3-3.2.9-4c.6-.8,1.5-1.2,2.7-1.2ZM20.4,150.5c-.6,0-1,.1-1.4.4-.7.5-1.1,1.8-1.1,3.9s.2,2.5.6,3.1c.4.6,1,.8,1.8.8s1.4-.3,1.8-.9c.4-.6.6-1.6.6-3.2s-.2-2.6-.6-3.2c-.4-.6-1-.9-1.8-.9ZM28.5,149.5c.8,0,1.5.2,2,.5,1.1.6,1.6,2.2,1.6,4.8s-.3,3.1-.9,3.8c-.6.7-1.5,1.1-2.7,1.1s-2.1-.4-2.7-1.1c-.6-.7-.9-2.1-.9-3.9s.3-3.2.9-4c.6-.8,1.5-1.2,2.7-1.2ZM28.5,150.5c-.6,0-1,.1-1.4.4-.7.5-1.1,1.8-1.1,3.9s.2,2.5.6,3.1c.4.6,1,.8,1.8.8s1.4-.3,1.8-.9c.4-.6.6-1.6.6-3.2s-.2-2.6-.6-3.2c-.4-.6-1-.9-1.8-.9ZM37.9,153v6.5h-1.1v-6.5h-.9v-1h.9v-.7c0-1.1.2-1.8.5-2.2.3-.4.8-.6,1.6-.6h1.5c0,.1,0,1,0,1-.6,0-1,0-1.4,0s-.6.1-.8.4c-.2.2-.2.7-.2,1.4v.7h2.2v1h-2.2ZM40.7,155.8c0-1.4.2-2.4.7-3,.5-.6,1.3-.9,2.5-.9s2,.3,2.5.9c.5.6.7,1.6.7,3s-.2,2.4-.7,3c-.5.6-1.3.9-2.5.9s-2.1-.3-2.5-.9-.7-1.6-.7-3ZM41.8,155.7c0,1.1.1,1.9.4,2.3.3.4.8.7,1.7.7s1.4-.2,1.7-.6c.3-.4.4-1.2.4-2.3s-.1-1.9-.4-2.3c-.3-.4-.8-.6-1.6-.6s-1.3.2-1.6.6c-.3.4-.4,1.2-.4,2.3ZM48.6,159.5v-7.5h1.1v1c.9-.6,1.8-1,2.7-1.2v1.1c-.4,0-.9.2-1.3.4-.5.2-.8.3-1,.4l-.4.2v5.5h-1.1ZM59.4,163c-1.2,0-2-.2-2.5-.5-.5-.3-.7-.9-.7-1.8s0-.7.3-1c.2-.2.5-.5.9-.9-.3-.2-.4-.5-.4-1s.1-.5.4-.9v-.2c-.7-.4-1-1.1-1-2.3,0-1.7.9-2.6,2.8-2.6s.9,0,1.3.1h.2s2.2,0,2.2,0v1h-1.4c.3.3.5.8.5,1.5s-.2,1.6-.7,2c-.5.4-1.2.6-2.2.6s-.5,0-.7,0c-.2.4-.3.7-.3.9,0,.3,0,.5.3.6.2,0,.8.1,1.7.1s1.7.2,2.1.4c.4.3.6.9.6,1.8,0,1.6-1.1,2.4-3.3,2.4ZM57.3,160.7c0,.5.1.9.4,1.1.3.2.8.3,1.6.3s1.4-.1,1.7-.3c.3-.2.5-.6.5-1.1s-.1-.8-.4-1c-.2-.2-.7-.2-1.5-.2h-1.6c-.3.2-.6.4-.7.6-.1.2-.2.4-.2.7ZM57.4,154.4c0,.6.1,1,.4,1.3.3.2.7.4,1.3.4s1-.1,1.3-.4.4-.7.4-1.3-.1-1-.4-1.3-.7-.4-1.3-.4-1,.1-1.3.4c-.3.2-.4.7-.4,1.3ZM69.2,154.3v3.8c0,.4.3.6.9.7v.9c-.8,0-1.4-.2-1.8-.6-.9.4-1.8.6-2.7.6s-1.2-.2-1.6-.6c-.4-.4-.5-.9-.5-1.7s.2-1.3.6-1.6c.4-.3,1-.6,1.7-.6l2.4-.2v-.6c0-.5-.1-.9-.3-1.1-.2-.2-.5-.3-.9-.3-.8,0-1.6,0-2.5.2h-.5s0-.8,0-.8c1.1-.2,2.1-.3,2.9-.3s1.5.2,1.8.6c.4.4.6,1,.6,1.8ZM64.6,157.3c0,.9.4,1.4,1.1,1.4s1.3-.1,2-.3h.3v-2.6l-2.2.2c-.4,0-.8.2-1,.4s-.3.5-.3,1ZM73.5,152.9c-1.1,0-1.6.4-1.6,1.1s.1.6.4.8c.2.1.8.3,1.7.5.9.1,1.5.4,1.9.6s.6.8.6,1.6-.2,1.3-.8,1.7c-.5.4-1.2.5-2.2.5s-1.4,0-2.2-.2h-.5c0,0,0-1.1,0-1.1,1.1.2,2,.3,2.6.3s1,0,1.3-.3c.3-.2.5-.5.5-.9s-.1-.7-.4-.9c-.3-.2-.8-.3-1.7-.4-.9-.1-1.5-.3-1.9-.6-.4-.3-.6-.8-.6-1.5s.3-1.3.8-1.6c.5-.3,1.2-.5,1.9-.5s1.4,0,2.3.2h.4c0,0,0,1,0,1-1.1-.2-2-.2-2.6-.2ZM80.1,149.9h-1.2l.4,1.1h-.4c0,.1-.4-1-.4-1l-1,.7-.3-.4,1-.7-1-.7.3-.4,1,.7.4-1.1h.4c0,.1-.4,1.3-.4,1.3h1.2v.4Z" fill="#fff" stroke-width="0"/>
</svg>