<svg width="254" height="15" viewBox="0 0 254 15" fill="none" xmlns="http://www.w3.org/2000/svg">
<path d="M6.15 10.545C8.175 10.545 9.45 9 9.45 6.675V6.555C9.45 4.35 8.22 2.715 6.12 2.715C4.02 2.715 2.775 4.26 2.775 6.57V6.69C2.775 9.03 4.2 10.545 6.15 10.545ZM6.12 12.15C2.835 12.15 0.69 9.795 0.69 6.705V6.585C0.69 3.45 2.94 1.125 6.12 1.125C9.315 1.125 11.52 3.39 11.52 6.54V6.66C11.52 9.795 9.375 12.15 6.12 12.15ZM16.586 12V5.52H15.521V4.155H16.586V3.105C16.586 1.38 17.546 0.449999 19.226 0.449999C19.661 0.449999 19.931 0.494999 20.261 0.599999V2.01C20.051 1.935 19.766 1.875 19.436 1.875C18.701 1.875 18.401 2.355 18.401 3.03V4.155H20.186V5.52H18.401V12H16.586ZM24.0306 12.15C22.4856 12.15 21.3306 11.265 21.3306 9.18V4.155H23.1456V8.97C23.1456 10.155 23.6406 10.695 24.6906 10.695C25.6656 10.695 26.5206 10.065 26.5206 8.82V4.155H28.3356V12H26.5206V10.77C26.1306 11.535 25.3056 12.15 24.0306 12.15ZM32.8576 12.135C31.2976 12.135 30.4876 11.295 30.4876 9.81V5.52H29.4376V4.155H30.4876V2.43H32.3026V4.155H34.0276V5.52H32.3026V9.645C32.3026 10.335 32.6326 10.65 33.2026 10.65C33.5626 10.65 33.8326 10.605 34.0876 10.5V11.94C33.8026 12.045 33.4126 12.135 32.8576 12.135ZM38.0497 12.15C36.5047 12.15 35.3497 11.265 35.3497 9.18V4.155H37.1647V8.97C37.1647 10.155 37.6597 10.695 38.7097 10.695C39.6847 10.695 40.5397 10.065 40.5397 8.82V4.155H42.3547V12H40.5397V10.77C40.1497 11.535 39.3247 12.15 38.0497 12.15ZM44.2068 12V4.155H46.0218V5.625C46.5168 4.635 47.2518 4.05 48.5718 4.035V5.73C46.9818 5.745 46.0218 6.255 46.0218 7.92V12H44.2068ZM53.2322 10.74C54.5822 10.74 55.3922 9.735 55.3922 8.13V8.025C55.3922 6.405 54.5822 5.415 53.2322 5.415C51.8822 5.415 51.0572 6.39 51.0572 8.01V8.13C51.0572 9.735 51.8522 10.74 53.2322 10.74ZM53.2172 12.15C50.9072 12.15 49.1972 10.545 49.1972 8.16V8.04C49.1972 5.61 50.9222 3.99 53.2322 3.99C55.5272 3.99 57.2522 5.595 57.2522 7.995V8.115C57.2522 10.56 55.5272 12.15 53.2172 12.15ZM60.8313 14.82V13.425C61.6263 13.365 61.9113 12.975 61.9113 12.315V4.155H63.7263V12.27C63.7263 13.86 63.0063 14.79 60.8313 14.82ZM62.7963 2.865C62.1963 2.865 61.7163 2.415 61.7163 1.83C61.7163 1.23 62.1963 0.779999 62.7963 0.779999C63.3963 0.779999 63.8763 1.23 63.8763 1.83C63.8763 2.415 63.3963 2.865 62.7963 2.865ZM67.6936 12.15C66.2536 12.15 65.0686 11.46 65.0686 9.825C65.0686 7.995 66.8386 7.335 69.0886 7.335H70.0636V6.93C70.0636 5.88 69.7036 5.355 68.6386 5.355C67.6936 5.355 67.2286 5.805 67.1386 6.585H65.3836C65.5336 4.755 66.9886 3.99 68.7436 3.99C70.4986 3.99 71.8786 4.71 71.8786 6.855V12H70.0936V11.04C69.5836 11.715 68.8936 12.15 67.6936 12.15ZM68.1286 10.845C69.2386 10.845 70.0636 10.26 70.0636 9.255V8.475H69.1336C67.7536 8.475 66.8686 8.79 66.8686 9.75C66.8686 10.41 67.2286 10.845 68.1286 10.845ZM67.9936 2.985L68.8786 0.659999H70.8886L69.3286 2.985H67.9936ZM80.3831 12.15C78.0731 12.15 76.4081 10.635 76.4081 8.16V8.04C76.4081 5.61 78.0731 3.99 80.3081 3.99C82.2581 3.99 84.0131 5.145 84.0131 7.95V8.475H78.2681C78.3281 9.96 79.0781 10.8 80.4281 10.8C81.5231 10.8 82.0931 10.365 82.2281 9.6H83.9831C83.7281 11.25 82.3931 12.15 80.3831 12.15ZM78.2981 7.26H82.2131C82.1231 5.91 81.4331 5.31 80.3081 5.31C79.2131 5.31 78.4781 6.045 78.2981 7.26ZM88.0925 12.15C86.0675 12.15 84.8825 11.22 84.8075 9.555H86.5175C86.6075 10.35 87.0125 10.815 88.0775 10.815C89.0525 10.815 89.4875 10.47 89.4875 9.81C89.4875 9.165 88.9625 8.925 87.8075 8.73C85.7375 8.4 84.9725 7.815 84.9725 6.345C84.9725 4.77 86.4425 3.99 87.9125 3.99C89.5175 3.99 90.7925 4.59 90.9875 6.36H89.3075C89.1575 5.64 88.7525 5.31 87.9125 5.31C87.1325 5.31 86.6675 5.685 86.6675 6.24C86.6675 6.81 87.0425 7.035 88.2875 7.245C90.1325 7.53 91.2275 7.98 91.2275 9.645C91.2275 11.235 90.1025 12.15 88.0925 12.15ZM95.1897 12.135C93.6297 12.135 92.8197 11.295 92.8197 9.81V5.52H91.7697V4.155H92.8197V2.43H94.6347V4.155H96.3597V5.52H94.6347V9.645C94.6347 10.335 94.9647 10.65 95.5347 10.65C95.8947 10.65 96.1647 10.605 96.4197 10.5V11.94C96.1347 12.045 95.7447 12.135 95.1897 12.135ZM99.885 12.15C98.445 12.15 97.26 11.46 97.26 9.825C97.26 7.995 99.03 7.335 101.28 7.335H102.255V6.93C102.255 5.88 101.895 5.355 100.83 5.355C99.885 5.355 99.42 5.805 99.33 6.585H97.575C97.725 4.755 99.18 3.99 100.935 3.99C102.69 3.99 104.07 4.71 104.07 6.855V12H102.285V11.04C101.775 11.715 101.085 12.15 99.885 12.15ZM100.32 10.845C101.43 10.845 102.255 10.26 102.255 9.255V8.475H101.325C99.945 8.475 99.06 8.79 99.06 9.75C99.06 10.41 99.42 10.845 100.32 10.845ZM100.185 2.985L101.07 0.659999H103.08L101.52 2.985H100.185ZM111.18 12.15C109.74 12.15 108.555 11.46 108.555 9.825C108.555 7.995 110.325 7.335 112.575 7.335H113.55V6.93C113.55 5.88 113.19 5.355 112.125 5.355C111.18 5.355 110.715 5.805 110.625 6.585H108.87C109.02 4.755 110.475 3.99 112.23 3.99C113.985 3.99 115.365 4.71 115.365 6.855V12H113.58V11.04C113.07 11.715 112.38 12.15 111.18 12.15ZM111.615 10.845C112.725 10.845 113.55 10.26 113.55 9.255V8.475H112.62C111.24 8.475 110.355 8.79 110.355 9.75C110.355 10.41 110.715 10.845 111.615 10.845ZM120.58 12.15C118.33 12.15 116.62 10.68 116.62 8.175V8.055C116.62 5.565 118.39 3.99 120.58 3.99C122.32 3.99 123.955 4.77 124.165 6.93H122.41C122.26 5.88 121.57 5.445 120.61 5.445C119.365 5.445 118.48 6.405 118.48 8.025V8.145C118.48 9.855 119.32 10.755 120.655 10.755C121.615 10.755 122.44 10.185 122.545 9.075H124.21C124.075 10.875 122.71 12.15 120.58 12.15ZM128.983 10.74C130.333 10.74 131.143 9.735 131.143 8.13V8.025C131.143 6.405 130.333 5.415 128.983 5.415C127.633 5.415 126.808 6.39 126.808 8.01V8.13C126.808 9.735 127.603 10.74 128.983 10.74ZM128.968 12.15C126.658 12.15 124.948 10.545 124.948 8.16V8.04C124.948 5.61 126.673 3.99 128.983 3.99C131.278 3.99 133.003 5.595 133.003 7.995V8.115C133.003 10.56 131.278 12.15 128.968 12.15ZM134.343 12V4.155H136.158V5.4C136.533 4.635 137.403 3.99 138.693 3.99C140.268 3.99 141.378 4.905 141.378 7.065V12H139.563V7.23C139.563 6.045 139.083 5.505 138.003 5.505C136.983 5.505 136.158 6.135 136.158 7.38V12H134.343ZM145.839 12.135C144.279 12.135 143.469 11.295 143.469 9.81V5.52H142.419V4.155H143.469V2.43H145.284V4.155H147.009V5.52H145.284V9.645C145.284 10.335 145.614 10.65 146.184 10.65C146.544 10.65 146.814 10.605 147.069 10.5V11.94C146.784 12.045 146.394 12.135 145.839 12.135ZM151.856 12.15C149.546 12.15 147.881 10.635 147.881 8.16V8.04C147.881 5.61 149.546 3.99 151.781 3.99C153.731 3.99 155.486 5.145 155.486 7.95V8.475H149.741C149.801 9.96 150.551 10.8 151.901 10.8C152.996 10.8 153.566 10.365 153.701 9.6H155.456C155.201 11.25 153.866 12.15 151.856 12.15ZM149.771 7.26H153.686C153.596 5.91 152.906 5.31 151.781 5.31C150.686 5.31 149.951 6.045 149.771 7.26ZM160.242 12.15C157.992 12.15 156.282 10.68 156.282 8.175V8.055C156.282 5.565 158.052 3.99 160.242 3.99C161.982 3.99 163.617 4.77 163.827 6.93H162.072C161.922 5.88 161.232 5.445 160.272 5.445C159.027 5.445 158.142 6.405 158.142 8.025V8.145C158.142 9.855 158.982 10.755 160.317 10.755C161.277 10.755 162.102 10.185 162.207 9.075H163.872C163.737 10.875 162.372 12.15 160.242 12.15ZM168.585 12.15C166.275 12.15 164.61 10.635 164.61 8.16V8.04C164.61 5.61 166.275 3.99 168.51 3.99C170.46 3.99 172.215 5.145 172.215 7.95V8.475H166.47C166.53 9.96 167.28 10.8 168.63 10.8C169.725 10.8 170.295 10.365 170.43 9.6H172.185C171.93 11.25 170.595 12.15 168.585 12.15ZM166.5 7.26H170.415C170.325 5.91 169.635 5.31 168.51 5.31C167.415 5.31 166.68 6.045 166.5 7.26ZM173.536 12V4.155H175.351V5.4C175.726 4.635 176.596 3.99 177.886 3.99C179.461 3.99 180.571 4.905 180.571 7.065V12H178.756V7.23C178.756 6.045 178.276 5.505 177.196 5.505C176.176 5.505 175.351 6.135 175.351 7.38V12H173.536ZM185.302 12.15C183.337 12.15 181.852 10.755 181.852 8.205V8.085C181.852 5.58 183.337 3.99 185.377 3.99C186.652 3.99 187.447 4.575 187.882 5.355V0.524999H189.697V12H187.882V10.68C187.462 11.46 186.457 12.15 185.302 12.15ZM185.752 10.71C187.012 10.71 187.942 9.87 187.942 8.115V7.995C187.942 6.27 187.147 5.415 185.827 5.415C184.492 5.415 183.712 6.345 183.712 8.04V8.16C183.712 9.885 184.582 10.71 185.752 10.71ZM195.064 10.74C196.414 10.74 197.224 9.735 197.224 8.13V8.025C197.224 6.405 196.414 5.415 195.064 5.415C193.714 5.415 192.889 6.39 192.889 8.01V8.13C192.889 9.735 193.684 10.74 195.064 10.74ZM195.049 12.15C192.739 12.15 191.029 10.545 191.029 8.16V8.04C191.029 5.61 192.754 3.99 195.064 3.99C197.359 3.99 199.084 5.595 199.084 7.995V8.115C199.084 10.56 197.359 12.15 195.049 12.15ZM203.698 12V4.155H205.513V5.4C205.888 4.635 206.758 3.99 208.048 3.99C209.623 3.99 210.733 4.905 210.733 7.065V12H208.918V7.23C208.918 6.045 208.438 5.505 207.358 5.505C206.338 5.505 205.513 6.135 205.513 7.38V12H203.698ZM214.579 12.15C213.139 12.15 211.954 11.46 211.954 9.825C211.954 7.995 213.724 7.335 215.974 7.335H216.949V6.93C216.949 5.88 216.589 5.355 215.524 5.355C214.579 5.355 214.114 5.805 214.024 6.585H212.269C212.419 4.755 213.874 3.99 215.629 3.99C217.384 3.99 218.764 4.71 218.764 6.855V12H216.979V11.04C216.469 11.715 215.779 12.15 214.579 12.15ZM215.014 10.845C216.124 10.845 216.949 10.26 216.949 9.255V8.475H216.019C214.639 8.475 213.754 8.79 213.754 9.75C213.754 10.41 214.114 10.845 215.014 10.845ZM223.969 12V1.275H227.809C230.014 1.275 231.319 2.115 231.319 4.065V4.125C231.319 5.19 230.839 6.03 229.624 6.405C231.079 6.72 231.769 7.515 231.769 8.94V9C231.769 10.995 230.449 12 228.094 12H223.969ZM225.919 10.575H227.854C229.189 10.575 229.804 9.975 229.804 8.865V8.805C229.804 7.695 229.189 7.14 227.719 7.14H225.919V10.575ZM225.919 5.79H227.569C228.889 5.79 229.399 5.31 229.399 4.215V4.155C229.399 3.135 228.814 2.7 227.539 2.7H225.919V5.79ZM233.337 12V1.275H235.332V5.835H240.147V1.275H242.157V12H240.147V7.44H235.332V12H233.337ZM244.302 12V1.275H247.752C250.152 1.275 251.727 2.34 251.727 4.59V4.65C251.727 6.915 250.092 7.92 247.797 7.92H246.297V12H244.302ZM246.297 6.48H247.752C249.072 6.48 249.777 5.835 249.777 4.65V4.59C249.777 3.315 249.027 2.82 247.752 2.82H246.297V6.48ZM252.417 12.105C251.757 12.105 251.232 11.595 251.232 10.935C251.232 10.275 251.757 9.75 252.417 9.75C253.092 9.75 253.617 10.275 253.617 10.935C253.617 11.595 253.092 12.105 252.417 12.105Z" fill="#DD5900"/>
</svg>
