<svg width="213" height="15" viewBox="0 0 213 15" fill="none" xmlns="http://www.w3.org/2000/svg">
<path d="M0.0800001 12V4.155H1.895V5.625C2.39 4.635 3.125 4.05 4.445 4.035V5.73C2.855 5.745 1.895 6.255 1.895 7.92V12H0.0800001ZM9.04543 12.15C6.73543 12.15 5.07043 10.635 5.07043 8.16V8.04C5.07043 5.61 6.73543 3.99 8.97043 3.99C10.9204 3.99 12.6754 5.145 12.6754 7.95V8.475H6.93043C6.99043 9.96 7.74043 10.8 9.09043 10.8C10.1854 10.8 10.7554 10.365 10.8904 9.6H12.6454C12.3904 11.25 11.0554 12.15 9.04543 12.15ZM6.96043 7.26H10.8754C10.7854 5.91 10.0954 5.31 8.97043 5.31C7.87543 5.31 7.14043 6.045 6.96043 7.26ZM16.7548 12.15C14.7298 12.15 13.5448 11.22 13.4698 9.555H15.1798C15.2698 10.35 15.6748 10.815 16.7398 10.815C17.7148 10.815 18.1498 10.47 18.1498 9.81C18.1498 9.165 17.6248 8.925 16.4698 8.73C14.3998 8.4 13.6348 7.815 13.6348 6.345C13.6348 4.77 15.1048 3.99 16.5748 3.99C18.1798 3.99 19.4548 4.59 19.6498 6.36H17.9698C17.8198 5.64 17.4148 5.31 16.5748 5.31C15.7948 5.31 15.3298 5.685 15.3298 6.24C15.3298 6.81 15.7048 7.035 16.9498 7.245C18.7948 7.53 19.8898 7.98 19.8898 9.645C19.8898 11.235 18.7648 12.15 16.7548 12.15ZM21.182 14.685V4.155H22.997V5.415C23.432 4.665 24.407 3.99 25.562 3.99C27.527 3.99 29.042 5.445 29.042 7.98V8.1C29.042 10.62 27.587 12.15 25.562 12.15C24.317 12.15 23.417 11.535 22.997 10.77V14.685H21.182ZM25.112 10.71C26.447 10.71 27.182 9.81 27.182 8.13V8.01C27.182 6.27 26.282 5.415 25.097 5.415C23.837 5.415 22.937 6.27 22.937 8.01V8.13C22.937 9.885 23.792 10.71 25.112 10.71ZM33.8841 10.74C35.2341 10.74 36.0441 9.735 36.0441 8.13V8.025C36.0441 6.405 35.2341 5.415 33.8841 5.415C32.5341 5.415 31.7091 6.39 31.7091 8.01V8.13C31.7091 9.735 32.5041 10.74 33.8841 10.74ZM33.8691 12.15C31.5591 12.15 29.8491 10.545 29.8491 8.16V8.04C29.8491 5.61 31.5741 3.99 33.8841 3.99C36.1791 3.99 37.9041 5.595 37.9041 7.995V8.115C37.9041 10.56 36.1791 12.15 33.8691 12.15ZM39.2441 12V4.155H41.0591V5.4C41.4341 4.635 42.3041 3.99 43.5941 3.99C45.1691 3.99 46.2791 4.905 46.2791 7.065V12H44.4641V7.23C44.4641 6.045 43.9841 5.505 42.9041 5.505C41.8841 5.505 41.0591 6.135 41.0591 7.38V12H39.2441ZM50.755 12.15C48.73 12.15 47.545 11.22 47.47 9.555H49.18C49.27 10.35 49.675 10.815 50.74 10.815C51.715 10.815 52.15 10.47 52.15 9.81C52.15 9.165 51.625 8.925 50.47 8.73C48.4 8.4 47.635 7.815 47.635 6.345C47.635 4.77 49.105 3.99 50.575 3.99C52.18 3.99 53.455 4.59 53.65 6.36H51.97C51.82 5.64 51.415 5.31 50.575 5.31C49.795 5.31 49.33 5.685 49.33 6.24C49.33 6.81 49.705 7.035 50.95 7.245C52.795 7.53 53.89 7.98 53.89 9.645C53.89 11.235 52.765 12.15 50.755 12.15ZM57.2372 12.15C55.7972 12.15 54.6122 11.46 54.6122 9.825C54.6122 7.995 56.3822 7.335 58.6322 7.335H59.6072V6.93C59.6072 5.88 59.2472 5.355 58.1822 5.355C57.2372 5.355 56.7722 5.805 56.6822 6.585H54.9272C55.0772 4.755 56.5322 3.99 58.2872 3.99C60.0422 3.99 61.4222 4.71 61.4222 6.855V12H59.6372V11.04C59.1272 11.715 58.4372 12.15 57.2372 12.15ZM57.6722 10.845C58.7822 10.845 59.6072 10.26 59.6072 9.255V8.475H58.6772C57.2972 8.475 56.4122 8.79 56.4122 9.75C56.4122 10.41 56.7722 10.845 57.6722 10.845ZM67.5825 12.15C66.3375 12.15 65.4375 11.535 65.0175 10.74V12H63.2025V0.524999H65.0175V5.415C65.4525 4.665 66.4275 3.99 67.5825 3.99C69.5475 3.99 71.0625 5.445 71.0625 7.98V8.1C71.0625 10.62 69.6075 12.15 67.5825 12.15ZM67.1325 10.71C68.4675 10.71 69.2025 9.81 69.2025 8.13V8.01C69.2025 6.27 68.3025 5.415 67.1175 5.415C65.8575 5.415 64.9575 6.27 64.9575 8.01V8.13C64.9575 9.885 65.8125 10.71 67.1325 10.71ZM72.4397 12V4.155H74.2547V12H72.4397ZM73.3247 2.865C72.7247 2.865 72.2447 2.415 72.2447 1.83C72.2447 1.23 72.7247 0.779999 73.3247 0.779999C73.9247 0.779999 74.4047 1.23 74.4047 1.83C74.4047 2.415 73.9247 2.865 73.3247 2.865ZM76.2119 12V0.524999H78.0269V12H76.2119ZM79.9842 12V4.155H81.7992V12H79.9842ZM80.8692 2.865C80.2692 2.865 79.7892 2.415 79.7892 1.83C79.7892 1.23 80.2692 0.779999 80.8692 0.779999C81.4692 0.779999 81.9492 1.23 81.9492 1.83C81.9492 2.415 81.4692 2.865 80.8692 2.865ZM86.6515 12.15C84.6865 12.15 83.2015 10.755 83.2015 8.205V8.085C83.2015 5.58 84.6865 3.99 86.7265 3.99C88.0015 3.99 88.7965 4.575 89.2315 5.355V0.524999H91.0465V12H89.2315V10.68C88.8115 11.46 87.8065 12.15 86.6515 12.15ZM87.1015 10.71C88.3615 10.71 89.2915 9.87 89.2915 8.115V7.995C89.2915 6.27 88.4965 5.415 87.1765 5.415C85.8415 5.415 85.0615 6.345 85.0615 8.04V8.16C85.0615 9.885 85.9315 10.71 87.1015 10.71ZM94.9586 12.15C93.5186 12.15 92.3336 11.46 92.3336 9.825C92.3336 7.995 94.1036 7.335 96.3536 7.335H97.3286V6.93C97.3286 5.88 96.9686 5.355 95.9036 5.355C94.9586 5.355 94.4936 5.805 94.4036 6.585H92.6486C92.7986 4.755 94.2536 3.99 96.0086 3.99C97.7636 3.99 99.1436 4.71 99.1436 6.855V12H97.3586V11.04C96.8486 11.715 96.1586 12.15 94.9586 12.15ZM95.3936 10.845C96.5036 10.845 97.3286 10.26 97.3286 9.255V8.475H96.3986C95.0186 8.475 94.1336 8.79 94.1336 9.75C94.1336 10.41 94.4936 10.845 95.3936 10.845ZM103.864 12.15C101.899 12.15 100.414 10.755 100.414 8.205V8.085C100.414 5.58 101.899 3.99 103.939 3.99C105.214 3.99 106.009 4.575 106.444 5.355V0.524999H108.259V12H106.444V10.68C106.024 11.46 105.019 12.15 103.864 12.15ZM104.314 10.71C105.574 10.71 106.504 9.87 106.504 8.115V7.995C106.504 6.27 105.709 5.415 104.389 5.415C103.054 5.415 102.274 6.345 102.274 8.04V8.16C102.274 9.885 103.144 10.71 104.314 10.71ZM113.566 12.15C111.256 12.15 109.591 10.635 109.591 8.16V8.04C109.591 5.61 111.256 3.99 113.491 3.99C115.441 3.99 117.196 5.145 117.196 7.95V8.475H111.451C111.511 9.96 112.261 10.8 113.611 10.8C114.706 10.8 115.276 10.365 115.411 9.6H117.166C116.911 11.25 115.576 12.15 113.566 12.15ZM111.481 7.26H115.396C115.306 5.91 114.616 5.31 113.491 5.31C112.396 5.31 111.661 6.045 111.481 7.26ZM124.732 12.15C122.767 12.15 121.282 10.755 121.282 8.205V8.085C121.282 5.58 122.767 3.99 124.807 3.99C126.082 3.99 126.877 4.575 127.312 5.355V0.524999H129.127V12H127.312V10.68C126.892 11.46 125.887 12.15 124.732 12.15ZM125.182 10.71C126.442 10.71 127.372 9.87 127.372 8.115V7.995C127.372 6.27 126.577 5.415 125.257 5.415C123.922 5.415 123.142 6.345 123.142 8.04V8.16C123.142 9.885 124.012 10.71 125.182 10.71ZM134.434 12.15C132.124 12.15 130.459 10.635 130.459 8.16V8.04C130.459 5.61 132.124 3.99 134.359 3.99C136.309 3.99 138.064 5.145 138.064 7.95V8.475H132.319C132.379 9.96 133.129 10.8 134.479 10.8C135.574 10.8 136.144 10.365 136.279 9.6H138.034C137.779 11.25 136.444 12.15 134.434 12.15ZM132.349 7.26H136.264C136.174 5.91 135.484 5.31 134.359 5.31C133.264 5.31 132.529 6.045 132.349 7.26ZM145.329 12.135C143.769 12.135 142.959 11.295 142.959 9.81V5.52H141.909V4.155H142.959V2.43H144.774V4.155H146.499V5.52H144.774V9.645C144.774 10.335 145.104 10.65 145.674 10.65C146.034 10.65 146.304 10.605 146.559 10.5V11.94C146.274 12.045 145.884 12.135 145.329 12.135ZM151.406 10.74C152.756 10.74 153.566 9.735 153.566 8.13V8.025C153.566 6.405 152.756 5.415 151.406 5.415C150.056 5.415 149.231 6.39 149.231 8.01V8.13C149.231 9.735 150.026 10.74 151.406 10.74ZM151.391 12.15C149.081 12.15 147.371 10.545 147.371 8.16V8.04C147.371 5.61 149.096 3.99 151.406 3.99C153.701 3.99 155.426 5.595 155.426 7.995V8.115C155.426 10.56 153.701 12.15 151.391 12.15ZM159.706 12.15C157.741 12.15 156.256 10.755 156.256 8.205V8.085C156.256 5.58 157.741 3.99 159.781 3.99C161.056 3.99 161.851 4.575 162.286 5.355V0.524999H164.101V12H162.286V10.68C161.866 11.46 160.861 12.15 159.706 12.15ZM160.156 10.71C161.416 10.71 162.346 9.87 162.346 8.115V7.995C162.346 6.27 161.551 5.415 160.231 5.415C158.896 5.415 158.116 6.345 158.116 8.04V8.16C158.116 9.885 158.986 10.71 160.156 10.71ZM169.468 10.74C170.818 10.74 171.628 9.735 171.628 8.13V8.025C171.628 6.405 170.818 5.415 169.468 5.415C168.118 5.415 167.293 6.39 167.293 8.01V8.13C167.293 9.735 168.088 10.74 169.468 10.74ZM169.453 12.15C167.143 12.15 165.433 10.545 165.433 8.16V8.04C165.433 5.61 167.158 3.99 169.468 3.99C171.763 3.99 173.488 5.595 173.488 7.995V8.115C173.488 10.56 171.763 12.15 169.453 12.15ZM177.513 12.15C175.488 12.15 174.303 11.22 174.228 9.555H175.938C176.028 10.35 176.433 10.815 177.498 10.815C178.473 10.815 178.908 10.47 178.908 9.81C178.908 9.165 178.383 8.925 177.228 8.73C175.158 8.4 174.393 7.815 174.393 6.345C174.393 4.77 175.863 3.99 177.333 3.99C178.938 3.99 180.213 4.59 180.408 6.36H178.728C178.578 5.64 178.173 5.31 177.333 5.31C176.553 5.31 176.088 5.685 176.088 6.24C176.088 6.81 176.463 7.035 177.708 7.245C179.553 7.53 180.648 7.98 180.648 9.645C180.648 11.235 179.523 12.15 177.513 12.15ZM185.215 12V4.155H187.03V5.4C187.405 4.635 188.275 3.99 189.565 3.99C191.14 3.99 192.25 4.905 192.25 7.065V12H190.435V7.23C190.435 6.045 189.955 5.505 188.875 5.505C187.855 5.505 187.03 6.135 187.03 7.38V12H185.215ZM196.786 2.985L197.671 0.659999H199.681L198.121 2.985H196.786ZM197.551 10.74C198.901 10.74 199.711 9.735 199.711 8.13V8.025C199.711 6.405 198.901 5.415 197.551 5.415C196.201 5.415 195.376 6.39 195.376 8.01V8.13C195.376 9.735 196.171 10.74 197.551 10.74ZM197.536 12.15C195.226 12.15 193.516 10.545 193.516 8.16V8.04C193.516 5.61 195.241 3.99 197.551 3.99C199.846 3.99 201.571 5.595 201.571 7.995V8.115C201.571 10.56 199.846 12.15 197.536 12.15ZM205.595 12.15C203.57 12.15 202.385 11.22 202.31 9.555H204.02C204.11 10.35 204.515 10.815 205.58 10.815C206.555 10.815 206.99 10.47 206.99 9.81C206.99 9.165 206.465 8.925 205.31 8.73C203.24 8.4 202.475 7.815 202.475 6.345C202.475 4.77 203.945 3.99 205.415 3.99C207.02 3.99 208.295 4.59 208.49 6.36H206.81C206.66 5.64 206.255 5.31 205.415 5.31C204.635 5.31 204.17 5.685 204.17 6.24C204.17 6.81 204.545 7.035 205.79 7.245C207.635 7.53 208.73 7.98 208.73 9.645C208.73 11.235 207.605 12.15 205.595 12.15ZM211.103 12.105C210.443 12.105 209.918 11.595 209.918 10.935C209.918 10.275 210.443 9.75 211.103 9.75C211.778 9.75 212.303 10.275 212.303 10.935C212.303 11.595 211.778 12.105 211.103 12.105Z" fill="black"/>
</svg>
