<svg width="165" height="14" viewBox="0 0 165 14" fill="none" xmlns="http://www.w3.org/2000/svg">
<path d="M3.553 13.17C1.921 13.17 0.578 12.388 0.578 10.535C0.578 8.461 2.584 7.713 5.134 7.713H6.239V7.254C6.239 6.064 5.831 5.469 4.624 5.469C3.553 5.469 3.026 5.979 2.924 6.863H0.935C1.105 4.789 2.754 3.922 4.743 3.922C6.732 3.922 8.296 4.738 8.296 7.169V13H6.273V11.912C5.695 12.677 4.913 13.17 3.553 13.17ZM4.046 11.691C5.304 11.691 6.239 11.028 6.239 9.889V9.005H5.185C3.621 9.005 2.618 9.362 2.618 10.45C2.618 11.198 3.026 11.691 4.046 11.691ZM14.2067 13.17C11.6567 13.17 9.71869 11.504 9.71869 8.665V8.529C9.71869 5.707 11.7247 3.922 14.2067 3.922C16.1787 3.922 18.0317 4.806 18.2697 7.254H16.2807C16.1107 6.064 15.3287 5.571 14.2407 5.571C12.8297 5.571 11.8267 6.659 11.8267 8.495V8.631C11.8267 10.569 12.7787 11.589 14.2917 11.589C15.3797 11.589 16.3147 10.943 16.4337 9.685H18.3207C18.1677 11.725 16.6207 13.17 14.2067 13.17ZM23.73 11.572C25.26 11.572 26.178 10.433 26.178 8.614V8.495C26.178 6.659 25.26 5.537 23.73 5.537C22.2 5.537 21.265 6.642 21.265 8.478V8.614C21.265 10.433 22.166 11.572 23.73 11.572ZM23.713 13.17C21.095 13.17 19.157 11.351 19.157 8.648V8.512C19.157 5.758 21.112 3.922 23.73 3.922C26.331 3.922 28.286 5.741 28.286 8.461V8.597C28.286 11.368 26.331 13.17 23.713 13.17ZM29.8046 13V4.109H31.8616V5.52C32.2866 4.653 33.2726 3.922 34.7346 3.922C36.5196 3.922 37.7776 4.959 37.7776 7.407V13H35.7206V7.594C35.7206 6.251 35.1766 5.639 33.9526 5.639C32.7966 5.639 31.8616 6.353 31.8616 7.764V13H29.8046ZM42.8334 13.153C41.0654 13.153 40.1474 12.201 40.1474 10.518V5.656H38.9574V4.109H40.1474V2.154H42.2044V4.109H44.1594V5.656H42.2044V10.331C42.2044 11.113 42.5784 11.47 43.2244 11.47C43.6324 11.47 43.9384 11.419 44.2274 11.3V12.932C43.9044 13.051 43.4624 13.153 42.8334 13.153ZM49.6527 13.17C47.0347 13.17 45.1477 11.453 45.1477 8.648V8.512C45.1477 5.758 47.0347 3.922 49.5677 3.922C51.7777 3.922 53.7667 5.231 53.7667 8.41V9.005H47.2557C47.3237 10.688 48.1737 11.64 49.7037 11.64C50.9447 11.64 51.5907 11.147 51.7437 10.28H53.7328C53.4437 12.15 51.9307 13.17 49.6527 13.17ZM47.2897 7.628H51.7267C51.6247 6.098 50.8427 5.418 49.5677 5.418C48.3267 5.418 47.4937 6.251 47.2897 7.628ZM59.1571 13.17C56.6071 13.17 54.6691 11.504 54.6691 8.665V8.529C54.6691 5.707 56.6751 3.922 59.1571 3.922C61.1291 3.922 62.9821 4.806 63.2201 7.254H61.2311C61.0611 6.064 60.2791 5.571 59.1911 5.571C57.7801 5.571 56.7771 6.659 56.7771 8.495V8.631C56.7771 10.569 57.7291 11.589 59.2421 11.589C60.3301 11.589 61.2651 10.943 61.3841 9.685H63.2711C63.1181 11.725 61.5711 13.17 59.1571 13.17ZM68.6124 13.17C65.9944 13.17 64.1074 11.453 64.1074 8.648V8.512C64.1074 5.758 65.9944 3.922 68.5274 3.922C70.7374 3.922 72.7264 5.231 72.7264 8.41V9.005H66.2154C66.2834 10.688 67.1334 11.64 68.6634 11.64C69.9044 11.64 70.5504 11.147 70.7034 10.28H72.6924C72.4034 12.15 70.8904 13.17 68.6124 13.17ZM66.2494 7.628H70.6864C70.5844 6.098 69.8024 5.418 68.5274 5.418C67.2864 5.418 66.4534 6.251 66.2494 7.628ZM74.2237 13V4.109H76.2807V5.52C76.7057 4.653 77.6917 3.922 79.1537 3.922C80.9387 3.922 82.1967 4.959 82.1967 7.407V13H80.1397V7.594C80.1397 6.251 79.5957 5.639 78.3717 5.639C77.2157 5.639 76.2807 6.353 76.2807 7.764V13H74.2237ZM87.5585 13.17C85.3315 13.17 83.6485 11.589 83.6485 8.699V8.563C83.6485 5.724 85.3315 3.922 87.6435 3.922C89.0885 3.922 89.9895 4.585 90.4825 5.469V-0.00500077H92.5395V13H90.4825V11.504C90.0065 12.388 88.8675 13.17 87.5585 13.17ZM88.0685 11.538C89.4965 11.538 90.5505 10.586 90.5505 8.597V8.461C90.5505 6.506 89.6495 5.537 88.1535 5.537C86.6405 5.537 85.7565 6.591 85.7565 8.512V8.648C85.7565 10.603 86.7425 11.538 88.0685 11.538ZM98.6223 11.572C100.152 11.572 101.07 10.433 101.07 8.614V8.495C101.07 6.659 100.152 5.537 98.6223 5.537C97.0923 5.537 96.1573 6.642 96.1573 8.478V8.614C96.1573 10.433 97.0583 11.572 98.6223 11.572ZM98.6053 13.17C95.9873 13.17 94.0493 11.351 94.0493 8.648V8.512C94.0493 5.758 96.0043 3.922 98.6223 3.922C101.223 3.922 103.178 5.741 103.178 8.461V8.597C103.178 11.368 101.223 13.17 98.6053 13.17ZM108.408 13V4.109H110.465V5.52C110.89 4.653 111.876 3.922 113.338 3.922C115.123 3.922 116.381 4.959 116.381 7.407V13H114.324V7.594C114.324 6.251 113.78 5.639 112.556 5.639C111.4 5.639 110.465 6.353 110.465 7.764V13H108.408ZM120.739 13.17C119.107 13.17 117.764 12.388 117.764 10.535C117.764 8.461 119.77 7.713 122.32 7.713H123.425V7.254C123.425 6.064 123.017 5.469 121.81 5.469C120.739 5.469 120.212 5.979 120.11 6.863H118.121C118.291 4.789 119.94 3.922 121.929 3.922C123.918 3.922 125.482 4.738 125.482 7.169V13H123.459V11.912C122.881 12.677 122.099 13.17 120.739 13.17ZM121.232 11.691C122.49 11.691 123.425 11.028 123.425 9.889V9.005H122.371C120.807 9.005 119.804 9.362 119.804 10.45C119.804 11.198 120.212 11.691 121.232 11.691ZM131.381 13V0.844999H135.733C138.232 0.844999 139.711 1.797 139.711 4.007V4.075C139.711 5.282 139.167 6.234 137.79 6.659C139.439 7.016 140.221 7.917 140.221 9.532V9.6C140.221 11.861 138.725 13 136.056 13H131.381ZM133.591 11.385H135.784C137.297 11.385 137.994 10.705 137.994 9.447V9.379C137.994 8.121 137.297 7.492 135.631 7.492H133.591V11.385ZM133.591 5.962H135.461C136.957 5.962 137.535 5.418 137.535 4.177V4.109C137.535 2.953 136.872 2.46 135.427 2.46H133.591V5.962ZM141.998 13V0.844999H144.259V6.013H149.716V0.844999H151.994V13H149.716V7.832H144.259V13H141.998ZM154.425 13V0.844999H158.335C161.055 0.844999 162.84 2.052 162.84 4.602V4.67C162.84 7.237 160.987 8.376 158.386 8.376H156.686V13H154.425ZM156.686 6.744H158.335C159.831 6.744 160.63 6.013 160.63 4.67V4.602C160.63 3.157 159.78 2.596 158.335 2.596H156.686V6.744ZM163.622 13.119C162.874 13.119 162.279 12.541 162.279 11.793C162.279 11.045 162.874 10.45 163.622 10.45C164.387 10.45 164.982 11.045 164.982 11.793C164.982 12.541 164.387 13.119 163.622 13.119Z" fill="#DD5900"/>
</svg>
