<svg width="165" height="14" viewBox="0 0 165 14" fill="none" xmlns="http://www.w3.org/2000/svg">
<path d="M5.069 13.17C2.026 13.17 0.292 11.504 0.292 8.376V0.844999H2.57V8.206C2.57 10.433 3.284 11.351 5.086 11.351C6.837 11.351 7.721 10.569 7.721 8.053V0.844999H9.999V8.24C9.999 11.419 8.282 13.17 5.069 13.17ZM12.0861 13V4.109H14.1431V5.469C14.5681 4.636 15.5371 3.922 16.8461 3.922C18.0021 3.922 18.9201 4.415 19.3621 5.52C20.0421 4.415 21.2661 3.922 22.3711 3.922C24.0031 3.922 25.3291 4.925 25.3291 7.373V13H23.2721V7.509C23.2721 6.2 22.7111 5.639 21.6911 5.639C20.6711 5.639 19.7361 6.319 19.7361 7.679V13H17.6791V7.509C17.6791 6.2 17.1011 5.639 16.0981 5.639C15.0781 5.639 14.1431 6.319 14.1431 7.679V13H12.0861ZM33.3914 13.17C31.7594 13.17 30.4164 12.388 30.4164 10.535C30.4164 8.461 32.4224 7.713 34.9724 7.713H36.0774V7.254C36.0774 6.064 35.6694 5.469 34.4624 5.469C33.3914 5.469 32.8644 5.979 32.7624 6.863H30.7734C30.9434 4.789 32.5924 3.922 34.5814 3.922C36.5704 3.922 38.1344 4.738 38.1344 7.169V13H36.1114V11.912C35.5334 12.677 34.7514 13.17 33.3914 13.17ZM33.8844 11.691C35.1424 11.691 36.0774 11.028 36.0774 9.889V9.005H35.0234C33.4594 9.005 32.4564 9.362 32.4564 10.45C32.4564 11.198 32.8644 11.691 33.8844 11.691ZM40.1521 13V4.109H42.2091V5.469C42.6341 4.636 43.6031 3.922 44.9121 3.922C46.0681 3.922 46.9861 4.415 47.4281 5.52C48.1081 4.415 49.3321 3.922 50.4371 3.922C52.0691 3.922 53.3951 4.925 53.3951 7.373V13H51.3381V7.509C51.3381 6.2 50.7771 5.639 49.7571 5.639C48.7371 5.639 47.8021 6.319 47.8021 7.679V13H45.7451V7.509C45.7451 6.2 45.1671 5.639 44.1641 5.639C43.1441 5.639 42.2091 6.319 42.2091 7.679V13H40.1521ZM57.7466 13.17C56.1146 13.17 54.7716 12.388 54.7716 10.535C54.7716 8.461 56.7776 7.713 59.3276 7.713H60.4326V7.254C60.4326 6.064 60.0246 5.469 58.8176 5.469C57.7466 5.469 57.2196 5.979 57.1176 6.863H55.1286C55.2986 4.789 56.9476 3.922 58.9366 3.922C60.9256 3.922 62.4896 4.738 62.4896 7.169V13H60.4666V11.912C59.8886 12.677 59.1066 13.17 57.7466 13.17ZM58.2396 11.691C59.4976 11.691 60.4326 11.028 60.4326 9.889V9.005H59.3786C57.8146 9.005 56.8116 9.362 56.8116 10.45C56.8116 11.198 57.2196 11.691 58.2396 11.691ZM64.5072 13V4.109H66.5642V5.52C66.9892 4.653 67.9752 3.922 69.4372 3.922C71.2222 3.922 72.4802 4.959 72.4802 7.407V13H70.4232V7.594C70.4232 6.251 69.8792 5.639 68.6552 5.639C67.4992 5.639 66.5642 6.353 66.5642 7.764V13H64.5072ZM74.51 13V-0.00500077H76.567V5.52C76.992 4.653 77.978 3.922 79.44 3.922C81.225 3.922 82.483 4.959 82.483 7.407V13H80.426V7.594C80.426 6.251 79.882 5.639 78.658 5.639C77.502 5.639 76.567 6.353 76.567 7.764V13H74.51ZM86.8418 13.17C85.2098 13.17 83.8668 12.388 83.8668 10.535C83.8668 8.461 85.8728 7.713 88.4228 7.713H89.5278V7.254C89.5278 6.064 89.1198 5.469 87.9128 5.469C86.8418 5.469 86.3148 5.979 86.2128 6.863H84.2238C84.3938 4.789 86.0428 3.922 88.0318 3.922C90.0208 3.922 91.5848 4.738 91.5848 7.169V13H89.5618V11.912C88.9838 12.677 88.2018 13.17 86.8418 13.17ZM87.3348 11.691C88.5928 11.691 89.5278 11.028 89.5278 9.889V9.005H88.4738C86.9098 9.005 85.9068 9.362 85.9068 10.45C85.9068 11.198 86.3148 11.691 87.3348 11.691ZM89.0178 2.698C88.2018 2.698 87.6238 2.018 87.1308 2.018C86.8248 2.018 86.5698 2.307 86.5018 2.698H85.2268C85.3628 1.27 86.0938 0.470999 87.0458 0.470999C87.8278 0.470999 88.4228 1.134 88.9498 1.134C89.2558 1.134 89.4938 0.861999 89.5618 0.453999H90.8368C90.7008 1.882 89.9528 2.698 89.0178 2.698ZM97.3133 13V4.109H99.3703V5.469C99.7953 4.636 100.764 3.922 102.073 3.922C103.229 3.922 104.147 4.415 104.589 5.52C105.269 4.415 106.493 3.922 107.598 3.922C109.23 3.922 110.556 4.925 110.556 7.373V13H108.499V7.509C108.499 6.2 107.938 5.639 106.918 5.639C105.898 5.639 104.963 6.319 104.963 7.679V13H102.906V7.509C102.906 6.2 102.328 5.639 101.325 5.639C100.305 5.639 99.3703 6.319 99.3703 7.679V13H97.3133ZM116.489 13.17C113.871 13.17 111.984 11.453 111.984 8.648V8.512C111.984 5.758 113.871 3.922 116.404 3.922C118.614 3.922 120.603 5.231 120.603 8.41V9.005H114.092C114.16 10.688 115.01 11.64 116.54 11.64C117.781 11.64 118.427 11.147 118.58 10.28H120.569C120.28 12.15 118.767 13.17 116.489 13.17ZM114.126 7.628H118.563C118.461 6.098 117.679 5.418 116.404 5.418C115.163 5.418 114.33 6.251 114.126 7.628ZM122.151 13V-0.00500077H124.208V13H122.151ZM126.375 13V-0.00500077H128.432V5.52C128.857 4.653 129.843 3.922 131.305 3.922C133.09 3.922 134.348 4.959 134.348 7.407V13H132.291V7.594C132.291 6.251 131.747 5.639 130.523 5.639C129.367 5.639 128.432 6.353 128.432 7.764V13H126.375ZM140.356 11.572C141.886 11.572 142.804 10.433 142.804 8.614V8.495C142.804 6.659 141.886 5.537 140.356 5.537C138.826 5.537 137.891 6.642 137.891 8.478V8.614C137.891 10.433 138.792 11.572 140.356 11.572ZM140.339 13.17C137.721 13.17 135.783 11.351 135.783 8.648V8.512C135.783 5.758 137.738 3.922 140.356 3.922C142.957 3.922 144.912 5.741 144.912 8.461V8.597C144.912 11.368 142.957 13.17 140.339 13.17ZM146.431 13V4.109H148.488V5.775C149.049 4.653 149.882 3.99 151.378 3.973V5.894C149.576 5.911 148.488 6.489 148.488 8.376V13H146.431ZM159.499 2.783L160.502 0.147999H162.78L161.012 2.783H159.499ZM160.468 13.17C157.85 13.17 155.963 11.453 155.963 8.648V8.512C155.963 5.758 157.85 3.922 160.383 3.922C162.593 3.922 164.582 5.231 164.582 8.41V9.005H158.071C158.139 10.688 158.989 11.64 160.519 11.64C161.76 11.64 162.406 11.147 162.559 10.28H164.548C164.259 12.15 162.746 13.17 160.468 13.17ZM158.105 7.628H162.542C162.44 6.098 161.658 5.418 160.383 5.418C159.142 5.418 158.309 6.251 158.105 7.628Z" fill="black"/>
</svg>
