<svg width="640" height="200" viewBox="0 0 640 200" fill="none" xmlns="http://www.w3.org/2000/svg">
<g clip-path="url(#clip0_8658_22090)">
<path d="M402.783 67.6948C407.831 67.6948 411.628 69.3239 414.172 72.5835C416.756 75.8431 418.047 81.0908 418.047 88.3257C418.047 95.5205 416.776 100.688 414.232 103.829C411.688 106.929 407.871 108.48 402.783 108.48C397.695 108.48 393.879 106.929 391.334 103.829C388.79 100.688 387.518 95.5206 387.518 88.3257C387.518 81.0908 388.79 75.8431 391.334 72.5835C393.918 69.324 397.735 67.6949 402.783 67.6948ZM434.957 67.6948C440.005 67.6948 443.801 69.3241 446.345 72.5835C448.929 75.8431 450.221 81.0908 450.221 88.3257C450.221 95.5207 448.949 100.688 446.405 103.829C443.861 106.929 440.045 108.48 434.957 108.48C429.868 108.48 426.052 106.929 423.508 103.829C420.964 100.688 419.692 95.5207 419.692 88.3257C419.692 81.0908 420.964 75.8431 423.508 72.5835C426.092 69.3241 429.908 67.6948 434.957 67.6948ZM385.397 107.764H377.168V77.7114L368.642 83.1978L364.885 77.0562L377.884 68.4097H385.397V107.764ZM402.783 74.8501C400.358 74.8502 398.609 75.844 397.536 77.8315C396.502 79.8192 395.986 83.2579 395.986 88.147C395.986 93.0363 396.522 96.455 397.595 98.4028C398.668 100.351 400.418 101.325 402.842 101.325C405.267 101.325 406.997 100.351 408.031 98.4028C409.064 96.455 409.581 93.0363 409.581 88.147C409.581 83.2182 409.064 79.7795 408.031 77.8315C406.997 75.844 405.247 74.8501 402.783 74.8501ZM434.957 74.8501C432.532 74.8501 430.783 75.844 429.709 77.8315C428.676 79.8192 428.159 83.2577 428.159 88.147C428.159 93.0363 428.696 96.455 429.769 98.4028C430.842 100.351 432.591 101.325 435.016 101.325C437.441 101.325 439.17 100.351 440.204 98.4028C441.237 96.455 441.754 93.0363 441.754 88.147C441.754 83.218 441.237 79.7794 440.204 77.8315C439.17 75.844 437.421 74.8501 434.957 74.8501ZM358.98 71.8296C360.217 71.9493 361.355 72.1095 362.392 72.3091L362.901 72.4282L362.572 75.6011C361.115 75.4414 359.768 75.3215 358.531 75.2417L357.932 80.061C360.007 80.7195 361.414 81.4474 362.153 82.2456C362.911 83.0238 363.29 84.2117 363.29 85.8081C363.289 87.8832 362.661 89.4591 361.404 90.5366C360.147 91.5942 358.501 92.1235 356.465 92.1235H356.436L355.987 95.6558C354.51 95.5959 353.772 95.5256 353.772 95.4458L354.191 91.9741C352.714 91.7945 351.477 91.5847 350.479 91.3452L349.88 91.2251L350.27 88.1128C351.846 88.3323 353.303 88.4822 354.64 88.562L355.298 83.353C353.243 82.7345 351.786 81.9868 350.928 81.1089C350.07 80.231 349.641 79.0335 349.641 77.5171C349.641 75.5416 350.24 74.0745 351.437 73.1167C352.634 72.139 354.28 71.6499 356.375 71.6499H356.765L357.303 67.52H359.519L358.98 71.8296ZM356.884 88.5913C358.5 88.4117 359.309 87.574 359.309 86.0776C359.309 85.5987 359.169 85.209 358.89 84.9097C358.631 84.5905 358.152 84.2915 357.454 84.0122L356.884 88.5913ZM356.316 75.1821C354.52 75.2619 353.622 75.9505 353.622 77.2476C353.622 77.7263 353.772 78.1153 354.071 78.4146C354.37 78.7139 354.949 79.023 355.807 79.3423L356.316 75.1821Z" fill="#FFE344"/>
<g clip-path="url(#clip1_8658_22090)">
<path d="M485.985 66.4464C486.953 66.4464 487.881 66.8311 488.566 67.5158C489.251 68.2004 489.635 69.129 489.635 70.0973V92.8137C489.635 93.782 489.251 94.7106 488.566 95.3952C487.881 96.0799 486.953 96.4645 485.985 96.4645H463.268C462.3 96.4645 461.371 96.0799 460.687 95.3952C460.002 94.7106 459.617 93.782 459.617 92.8137V70.0973C459.617 69.129 460.002 68.2004 460.687 67.5158C461.371 66.8311 462.3 66.4464 463.268 66.4464H485.985ZM485.985 65.2295H463.268C461.977 65.2295 460.739 65.7423 459.826 66.6552C458.913 67.5681 458.4 68.8063 458.4 70.0973V92.8137C458.4 94.1047 458.913 95.3429 459.826 96.2557C460.739 97.1686 461.977 97.6815 463.268 97.6815H485.985C487.276 97.6815 488.514 97.1686 489.427 96.2557C490.34 95.3429 490.852 94.1047 490.852 92.8137V70.0973C490.852 68.8063 490.34 67.5681 489.427 66.6552C488.514 65.7423 487.276 65.2295 485.985 65.2295V65.2295Z" fill="white"/>
<g clip-path="url(#clip2_8658_22090)">
<path d="M475.032 85.8208C476.293 85.8209 477.319 86.8581 477.319 88.1333C477.319 89.4082 476.293 90.4457 475.032 90.4458C473.77 90.4458 472.745 89.4083 472.745 88.1333C472.745 86.858 473.77 85.8208 475.032 85.8208ZM475.032 87.1392C474.49 87.1392 474.049 87.5855 474.049 88.1333C474.049 88.6811 474.49 89.1274 475.032 89.1274C475.574 89.1273 476.014 88.6811 476.014 88.1333C476.014 87.5856 475.574 87.1393 475.032 87.1392ZM475.032 81.1597C477.351 81.1597 479.532 82.0731 481.171 83.731C481.427 83.9893 481.427 84.4085 481.171 84.6665C481.043 84.7959 480.876 84.8608 480.708 84.8608C480.541 84.8607 480.374 84.7957 480.247 84.6665C478.854 83.2583 477.002 82.4839 475.032 82.4839C473.062 82.4839 471.21 83.2584 469.817 84.6665C469.561 84.9249 469.147 84.9249 468.891 84.6665C468.636 84.4085 468.636 83.9893 468.891 83.731C470.531 82.0726 472.712 81.1597 475.032 81.1597ZM475.032 76.4839C478.442 76.4836 481.851 77.7958 484.447 80.4204C484.702 80.6788 484.702 81.0976 484.447 81.356C484.319 81.485 484.152 81.5492 483.985 81.5493C483.817 81.5493 483.65 81.4852 483.522 81.356C478.841 76.6237 471.223 76.623 466.542 81.356C466.286 81.6141 465.871 81.6142 465.616 81.356C465.36 81.0977 465.36 80.6788 465.616 80.4204C468.211 77.7961 471.622 76.4839 475.032 76.4839ZM475.032 72.2339C479.71 72.2339 484.107 74.0758 487.415 77.4194C487.542 77.5487 487.607 77.7179 487.607 77.8872C487.607 78.0566 487.542 78.2256 487.415 78.355C487.287 78.4842 487.12 78.5492 486.953 78.5493C486.785 78.5493 486.618 78.4843 486.49 78.355C483.429 75.2607 479.36 73.5572 475.032 73.5571C470.703 73.5571 466.634 75.2607 463.574 78.355C463.318 78.6133 462.904 78.6133 462.648 78.355C462.393 78.0966 462.393 77.6781 462.648 77.4194C465.956 74.0756 470.353 72.2339 475.032 72.2339Z" fill="white"/>
</g>
</g>
<path d="M498.73 87.2515C499.473 86.9285 500.146 86.7671 500.749 86.7671C501.857 86.7671 502.654 87.0794 503.138 87.7036C503.633 88.3172 503.881 89.4103 503.881 90.9819C503.881 92.5534 503.591 93.6516 503.009 94.2759C502.428 94.8893 501.405 95.1958 499.941 95.1958C499.435 95.1958 498.633 95.1471 497.536 95.0503L496.987 95.0024V83.5864H498.73V87.2515ZM522.66 86.7671C523.23 86.7671 523.902 86.843 524.677 86.9937L525.082 87.0737L525.017 88.4624C524.167 88.3763 523.537 88.3335 523.127 88.3335C522.309 88.3335 521.76 88.5163 521.48 88.8823C521.2 89.2483 521.061 89.9373 521.061 90.9487C521.061 91.9606 521.195 92.6608 521.464 93.0483C521.733 93.4359 522.294 93.6294 523.144 93.6294L525.033 93.5005L525.082 94.9048C523.994 95.0986 523.175 95.1958 522.626 95.1958C521.4 95.1957 520.533 94.867 520.027 94.2104C519.532 93.543 519.285 92.4554 519.285 90.9487C519.285 89.4419 519.548 88.3709 520.076 87.7358C520.603 87.09 521.465 86.7671 522.66 86.7671ZM535.025 86.7671C537.285 86.7672 538.415 87.9996 538.416 90.4644L538.302 91.7241H533.297C533.308 92.3915 533.453 92.8817 533.733 93.1938C534.013 93.506 534.535 93.6616 535.299 93.6616C536.064 93.6616 536.849 93.6295 537.657 93.5649L538.109 93.5171L538.141 94.8247C536.914 95.0723 535.827 95.1958 534.879 95.1958C533.685 95.1958 532.823 94.8671 532.295 94.2104C531.779 93.5538 531.521 92.5041 531.521 91.062C531.521 88.1987 532.689 86.7671 535.025 86.7671ZM546.374 95.0181H544.629V94.5981C543.844 94.9964 543.122 95.1958 542.465 95.1958C541.411 95.1958 540.635 94.8786 540.14 94.2437C539.656 93.6086 539.414 92.5425 539.414 91.0464C539.414 89.5502 539.683 88.4629 540.221 87.7847C540.77 87.1066 541.62 86.7672 542.772 86.7671C543.159 86.7671 543.773 86.8371 544.613 86.9771V83.5864H546.374V95.0181ZM553.87 86.9448H556.098V88.4468H553.87V91.9985C553.87 92.6552 553.918 93.0918 554.015 93.3071C554.112 93.5221 554.359 93.6294 554.757 93.6294L556.082 93.5815L556.163 94.9858C555.441 95.1258 554.892 95.1958 554.515 95.1958C553.6 95.1958 552.971 94.9857 552.626 94.5659C552.293 94.1461 552.126 93.3553 552.125 92.1929V88.4468H551.092V86.9448H552.125V84.603H553.87V86.9448ZM507.081 95.0181H505.321V86.9448H507.081V95.0181ZM510.75 95.0181H508.99V83.5864H510.75V95.0181ZM514.51 95.0181H512.75V83.5864H514.51V95.0181ZM530.949 88.5269C530.023 88.7098 529.232 88.9472 528.576 89.2378L528.22 89.3833V95.0181H526.459V86.9448H528.204V87.9136C529.119 87.3215 530.034 86.9393 530.949 86.7671V88.5269ZM549.942 95.0181H548.182V86.9448H549.942V95.0181ZM500.539 88.3335C500.022 88.3335 499.505 88.4143 498.989 88.5757L498.73 88.6567V93.5649C499.322 93.608 499.726 93.6294 499.941 93.6294C500.802 93.6294 501.373 93.43 501.653 93.0317C501.943 92.6226 502.089 91.934 502.089 90.9653C502.089 89.9966 501.965 89.3187 501.717 88.9312C501.48 88.5329 501.088 88.3335 500.539 88.3335ZM542.821 88.2847C541.734 88.2847 541.19 89.1891 541.19 90.9976C541.19 91.9879 541.313 92.6774 541.561 93.0649C541.819 93.4415 542.223 93.6293 542.772 93.6294C543.321 93.6294 543.843 93.533 544.338 93.3394L544.613 93.2261V88.4468C543.967 88.3392 543.37 88.2847 542.821 88.2847ZM535.025 88.2202C534.422 88.2202 533.981 88.3875 533.701 88.7212C533.432 89.0549 533.292 89.6036 533.281 90.3677H536.688C536.688 89.5712 536.559 89.0167 536.3 88.7046C536.053 88.3818 535.628 88.2202 535.025 88.2202ZM507.081 85.5718H505.321V83.7153H507.081V85.5718ZM549.942 85.5718H548.182V83.7153H549.942V85.5718ZM511.166 70.9448H513.394V72.4468H511.166V75.9985C511.166 76.6552 511.214 77.0918 511.311 77.3071C511.408 77.5221 511.655 77.6294 512.053 77.6294L513.377 77.5815L513.458 78.9858C512.737 79.1258 512.188 79.1958 511.811 79.1958C510.896 79.1958 510.267 78.9857 509.922 78.5659C509.589 78.1461 509.421 77.3553 509.421 76.1929V72.4468H508.388V70.9448H509.421V68.603H511.166V70.9448ZM517.63 70.7671C519.891 70.7671 521.022 71.9995 521.022 74.4644L520.909 75.7241H515.903C515.914 76.3914 516.059 76.8817 516.338 77.1938C516.618 77.506 517.141 77.6616 517.905 77.6616C518.669 77.6616 519.455 77.6295 520.262 77.5649L520.714 77.5171L520.747 78.8247C519.52 79.0722 518.432 79.1958 517.485 79.1958C516.29 79.1957 515.429 78.867 514.902 78.2104C514.385 77.5538 514.126 76.5043 514.126 75.062C514.127 72.1988 515.295 70.7672 517.63 70.7671ZM539.51 70.7671C541.771 70.7671 542.902 71.9995 542.902 74.4644L542.789 75.7241H537.783C537.793 76.3915 537.939 76.8817 538.219 77.1938C538.499 77.5058 539.021 77.6616 539.785 77.6616C540.549 77.6616 541.335 77.6295 542.142 77.5649L542.594 77.5171L542.627 78.8247C541.4 79.0723 540.313 79.1958 539.366 79.1958C538.171 79.1958 537.309 78.8671 536.782 78.2104C536.265 77.5538 536.006 76.5043 536.006 75.062C536.006 72.1989 537.175 70.7672 539.51 70.7671ZM546.386 70.9448H548.615V72.4468H546.386V75.9985C546.386 76.6552 546.435 77.0918 546.532 77.3071C546.629 77.5221 546.876 77.6293 547.274 77.6294L548.598 77.5815L548.679 78.9858C547.958 79.1258 547.409 79.1958 547.032 79.1958C546.117 79.1957 545.487 78.9857 545.143 78.5659C544.809 78.1461 544.642 77.3552 544.642 76.1929V72.4468H543.609V70.9448H544.642V68.603H546.386V70.9448ZM498.747 79.0181H496.987V70.9448H498.747V79.0181ZM504.531 70.7671C505.607 70.7671 506.339 71.0744 506.726 71.688C507.124 72.2908 507.324 73.2916 507.324 74.6909V79.0181H505.581V74.7397C505.581 73.8678 505.483 73.2483 505.29 72.8823C505.107 72.5163 504.724 72.3335 504.143 72.3335C503.594 72.3335 503.067 72.4415 502.561 72.6567L502.319 72.7534V79.0181H500.558V70.9448H502.302V71.4448C503.088 70.9928 503.831 70.7671 504.531 70.7671ZM526.88 72.5269C525.955 72.7099 525.163 72.9471 524.506 73.2378L524.151 73.3833V79.0181H522.391V70.9448H524.135V71.9136C525.05 71.3216 525.965 70.9393 526.88 70.7671V72.5269ZM531.875 70.7671C532.951 70.7671 533.683 71.0744 534.071 71.688C534.469 72.2909 534.668 73.2918 534.668 74.6909V79.0181H532.924V74.7397C532.924 73.8678 532.827 73.2483 532.633 72.8823C532.45 72.5164 532.068 72.3335 531.487 72.3335C530.938 72.3335 530.411 72.4415 529.905 72.6567L529.663 72.7534V79.0181H527.903V70.9448H529.646V71.4448C530.432 70.9927 531.175 70.7671 531.875 70.7671ZM517.63 72.2202C517.028 72.2203 516.586 72.3875 516.306 72.7212C516.037 73.0549 515.898 73.6038 515.887 74.3677H519.293C519.293 73.5712 519.164 73.0167 518.906 72.7046C518.658 72.3819 518.233 72.2202 517.63 72.2202ZM539.51 72.2202C538.908 72.2203 538.467 72.3876 538.187 72.7212C537.918 73.0549 537.778 73.6035 537.767 74.3677H541.173C541.173 73.5713 541.045 73.0168 540.787 72.7046C540.539 72.3816 540.113 72.2202 539.51 72.2202ZM498.747 69.5718H496.987V67.7153H498.747V69.5718Z" fill="white"/>
<path d="M459.694 104.523H460.456L461.83 110.121H462.005L463.63 104.648H464.417L466.042 110.121H466.229L467.604 104.523H468.366L466.804 110.771H465.504L464.03 105.623L462.543 110.771H461.256L459.694 104.523ZM469.463 110.771V104.523H470.2V110.771H469.463ZM469.463 102.961V102.024H470.2V102.961H469.463ZM474.986 105.185H472.899V108.272C472.899 109.08 472.957 109.609 473.074 109.859C473.191 110.109 473.465 110.234 473.899 110.234L475.048 110.146L475.098 110.783C474.548 110.867 474.128 110.908 473.836 110.908C473.203 110.908 472.762 110.754 472.512 110.446C472.27 110.13 472.149 109.53 472.149 108.647V105.185H471.225V104.523H472.149V102.561H472.899V104.523H474.986V105.185ZM476.644 110.771H475.907V101.749H476.644V104.885C477.344 104.56 478.018 104.398 478.668 104.398C479.501 104.398 480.055 104.619 480.33 105.06C480.613 105.502 480.755 106.31 480.755 107.484V110.771H480.005V107.522C480.005 106.564 479.914 105.918 479.73 105.585C479.555 105.244 479.168 105.073 478.568 105.073C478.277 105.073 477.968 105.11 477.644 105.185C477.327 105.252 477.081 105.323 476.906 105.398L476.644 105.498V110.771ZM484.191 110.771L486.69 102.086H488.502L490.989 110.771H490.226L489.527 108.372H485.653L484.965 110.771H484.191ZM487.252 102.761L485.84 107.684H489.339L487.927 102.761H487.252ZM495.388 107.072V106.385H497.75V110.584C497.508 110.634 497.083 110.696 496.475 110.771C495.867 110.854 495.363 110.896 494.963 110.896C493.713 110.896 492.847 110.529 492.364 109.796C491.881 109.063 491.639 107.951 491.639 106.46C491.639 105.718 491.689 105.085 491.789 104.56C491.889 104.036 492.064 103.569 492.314 103.161C492.789 102.361 493.668 101.961 494.951 101.961C495.734 101.961 496.529 102.04 497.337 102.199L497.75 102.286L497.712 102.948C496.671 102.757 495.771 102.661 495.013 102.661C494.005 102.661 493.322 102.965 492.964 103.573C492.614 104.173 492.439 105.131 492.439 106.447C492.439 107.764 492.614 108.717 492.964 109.309C493.322 109.9 494.001 110.196 495.001 110.196C495.592 110.196 496.254 110.13 496.987 109.996V107.072H495.388ZM504.188 110.771H499.439V102.086H500.214V110.071H504.188V110.771ZM511.675 110.146L512.05 110.109L512.075 110.721C511.134 110.838 510.338 110.896 509.688 110.896C508.789 110.888 508.16 110.621 507.801 110.096C507.443 109.571 507.264 108.763 507.264 107.672C507.264 105.489 508.122 104.398 509.838 104.398C510.663 104.398 511.28 104.635 511.688 105.11C512.096 105.577 512.3 106.327 512.3 107.36L512.275 107.959H508.026C508.026 108.726 508.156 109.296 508.414 109.671C508.68 110.038 509.13 110.221 509.763 110.221C510.405 110.221 511.042 110.196 511.675 110.146ZM508.026 107.335H511.55C511.55 106.51 511.413 105.922 511.138 105.573C510.871 105.223 510.438 105.048 509.838 105.048C509.247 105.048 508.797 105.231 508.489 105.598C508.181 105.956 508.026 106.535 508.026 107.335ZM513.661 110.771V101.749H514.398V110.771H513.661ZM520.23 110.146L520.605 110.109L520.63 110.721C519.689 110.838 518.893 110.896 518.243 110.896C517.344 110.888 516.715 110.621 516.357 110.096C515.998 109.571 515.819 108.763 515.819 107.672C515.819 105.489 516.677 104.398 518.393 104.398C519.218 104.398 519.835 104.635 520.243 105.11C520.651 105.577 520.855 106.327 520.855 107.36L520.83 107.959H516.581C516.581 108.726 516.711 109.296 516.969 109.671C517.235 110.038 517.685 110.221 518.318 110.221C518.96 110.221 519.597 110.196 520.23 110.146ZM516.581 107.335H520.105C520.105 106.51 519.968 105.922 519.693 105.573C519.426 105.223 518.993 105.048 518.393 105.048C517.802 105.048 517.352 105.231 517.044 105.598C516.736 105.956 516.581 106.535 516.581 107.335ZM524.465 104.398C524.84 104.398 525.286 104.44 525.802 104.523L526.09 104.56L526.052 105.198C525.394 105.114 524.907 105.073 524.59 105.073C523.849 105.073 523.341 105.256 523.066 105.623C522.791 105.981 522.653 106.647 522.653 107.622C522.653 108.588 522.778 109.263 523.028 109.646C523.278 110.03 523.799 110.221 524.59 110.221L526.077 110.109L526.102 110.746C525.361 110.846 524.811 110.896 524.453 110.896C523.462 110.896 522.783 110.65 522.416 110.159C522.058 109.667 521.879 108.822 521.879 107.622C521.879 106.422 522.074 105.585 522.466 105.11C522.866 104.635 523.532 104.398 524.465 104.398ZM530.459 105.185H528.372V108.272C528.372 109.08 528.43 109.609 528.547 109.859C528.663 110.109 528.938 110.234 529.372 110.234L530.521 110.146L530.571 110.783C530.021 110.867 529.601 110.908 529.309 110.908C528.676 110.908 528.234 110.754 527.985 110.446C527.743 110.13 527.622 109.53 527.622 108.647V105.185H526.697V104.523H527.622V102.561H528.372V104.523H530.459V105.185ZM531.379 110.771V104.523H532.117V105.423C532.425 105.206 532.8 104.998 533.241 104.798C533.691 104.598 534.104 104.465 534.479 104.398V105.148C534.12 105.223 533.745 105.339 533.354 105.498C532.962 105.648 532.658 105.781 532.442 105.897L532.117 106.085V110.771H531.379ZM535.364 110.771V104.523H536.101V110.771H535.364ZM535.364 102.961V102.024H536.101V102.961H535.364ZM540.05 104.398C540.425 104.398 540.871 104.44 541.387 104.523L541.675 104.56L541.637 105.198C540.979 105.114 540.492 105.073 540.175 105.073C539.434 105.073 538.925 105.256 538.65 105.623C538.376 105.981 538.238 106.647 538.238 107.622C538.238 108.588 538.363 109.263 538.613 109.646C538.863 110.03 539.384 110.221 540.175 110.221L541.662 110.109L541.687 110.746C540.946 110.846 540.396 110.896 540.038 110.896C539.046 110.896 538.367 110.65 538.001 110.159C537.642 109.667 537.463 108.822 537.463 107.622C537.463 106.422 537.659 105.585 538.051 105.11C538.45 104.635 539.117 104.398 540.05 104.398ZM542.882 110.771V104.523H543.619V110.771H542.882ZM542.882 102.961V102.024H543.619V102.961H542.882ZM548.405 105.185H546.318V108.272C546.318 109.08 546.376 109.609 546.493 109.859C546.61 110.109 546.885 110.234 547.318 110.234L548.467 110.146L548.517 110.783C547.968 110.867 547.547 110.908 547.255 110.908C546.622 110.908 546.181 110.754 545.931 110.446C545.689 110.13 545.568 109.53 545.568 108.647V105.185H544.644V104.523H545.568V102.561H546.318V104.523H548.405V105.185ZM548.726 104.523H549.488L551.15 110.121H551.6L553.275 104.523H554.037L551.338 113.583H550.588L551.425 110.771H550.563L548.726 104.523Z" fill="white"/>
</g>
<defs>
<clipPath id="clip0_8658_22090">
<rect width="640" height="200" fill="white"/>
</clipPath>
<clipPath id="clip1_8658_22090">
<rect width="32.452" height="32.452" fill="white" transform="translate(458.4 65.2295)"/>
</clipPath>
<clipPath id="clip2_8658_22090">
<rect width="25.1503" height="25.1503" fill="white" transform="translate(462.457 68.8804)"/>
</clipPath>
</defs>
</svg>
