<svg width="640" height="200" viewBox="0 0 640 200" fill="none" xmlns="http://www.w3.org/2000/svg">
<g clip-path="url(#clip0_8658_21923)">
<path d="M150.142 67.687C155.19 67.687 158.987 69.3164 161.531 72.5757C164.115 75.8353 165.407 81.083 165.407 88.3179C165.407 95.5126 164.135 100.68 161.591 103.821C159.047 106.921 155.23 108.472 150.142 108.472C145.054 108.472 141.238 106.921 138.694 103.821C136.15 100.68 134.877 95.5128 134.877 88.3179C134.877 81.083 136.15 75.8353 138.694 72.5757C141.278 69.3163 145.094 67.6871 150.142 67.687ZM182.316 67.687C187.364 67.6871 191.161 69.3163 193.705 72.5757C196.288 75.8353 197.581 81.083 197.581 88.3179C197.581 95.5128 196.308 100.68 193.764 103.821C191.22 106.921 187.404 108.472 182.316 108.472C177.228 108.472 173.411 106.921 170.867 103.821C168.323 100.68 167.051 95.5127 167.051 88.3179C167.051 81.083 168.323 75.8353 170.867 72.5757C173.451 69.3161 177.267 67.687 182.316 67.687ZM132.756 107.756H124.528V77.7046L116.001 83.1899L112.245 77.0483L125.244 68.4019H132.756V107.756ZM150.142 74.8423C147.717 74.8423 145.968 75.8362 144.895 77.8237C143.862 79.8114 143.345 83.2499 143.345 88.1392C143.345 93.0285 143.881 96.4472 144.955 98.395C146.028 100.343 147.777 101.317 150.202 101.317C152.626 101.317 154.356 100.343 155.389 98.395C156.423 96.4472 156.94 93.0285 156.94 88.1392C156.94 83.21 156.423 79.7716 155.389 77.8237C154.356 75.8361 152.607 74.8423 150.142 74.8423ZM182.316 74.8423C179.891 74.8423 178.142 75.8361 177.069 77.8237C176.035 79.8113 175.518 83.2498 175.518 88.1392C175.518 93.0285 176.055 96.4472 177.128 98.395C178.202 100.343 179.951 101.317 182.375 101.317C184.8 101.317 186.529 100.343 187.563 98.395C188.597 96.4472 189.113 93.0285 189.113 88.1392C189.113 83.2102 188.596 79.7716 187.563 77.8237C186.529 75.8362 184.78 74.8424 182.316 74.8423ZM107.238 71.8384C108.475 71.9581 109.613 72.1173 110.651 72.3169L111.16 72.437L110.83 75.6099C109.373 75.4503 108.027 75.3303 106.79 75.2505L106.191 80.0698C108.266 80.7282 109.672 81.4564 110.411 82.2544C111.169 83.0326 111.548 84.2205 111.548 85.8169C111.548 87.8919 110.92 89.4679 109.663 90.5454C108.405 91.603 106.759 92.1323 104.724 92.1323H104.694L104.245 95.6646C102.768 95.6047 102.03 95.5344 102.03 95.4546L102.449 91.9829C100.972 91.8033 99.7354 91.5934 98.7378 91.354L98.1392 91.2339L98.5278 88.1216C100.104 88.3411 101.561 88.49 102.898 88.5698L103.556 83.3618C101.501 82.7434 100.045 81.9954 99.187 81.1177C98.329 80.2398 97.9 79.0422 97.8999 77.5259C97.8999 75.5504 98.4985 74.0833 99.6958 73.1255C100.893 72.1478 102.539 71.6587 104.634 71.6587H105.023L105.562 67.5278H107.777L107.238 71.8384ZM105.143 88.6001C106.759 88.4205 107.568 87.5827 107.568 86.0864C107.568 85.6075 107.427 85.2178 107.148 84.9185C106.888 84.5993 106.41 84.3003 105.711 84.021L105.143 88.6001ZM104.575 75.1909C102.779 75.2707 101.88 75.9593 101.88 77.2563C101.88 77.7351 102.03 78.1241 102.33 78.4233C102.629 78.7226 103.208 79.0318 104.066 79.3511L104.575 75.1909Z" fill="#FFE344"/>
<g clip-path="url(#clip1_8658_21923)">
<path d="M233.344 72.9909C234.312 72.9909 235.241 73.3755 235.926 74.0602C236.61 74.7449 236.995 75.6735 236.995 76.6417V99.3581C236.995 100.326 236.61 101.255 235.926 101.94C235.241 102.624 234.312 103.009 233.344 103.009H210.628C209.659 103.009 208.731 102.624 208.046 101.94C207.361 101.255 206.977 100.326 206.977 99.3581V76.6417C206.977 75.6735 207.361 74.7449 208.046 74.0602C208.731 73.3755 209.659 72.9909 210.628 72.9909H233.344ZM233.344 71.7739H210.628C209.337 71.7739 208.098 72.2868 207.186 73.1997C206.273 74.1126 205.76 75.3507 205.76 76.6417V99.3581C205.76 100.649 206.273 101.887 207.186 102.8C208.098 103.713 209.337 104.226 210.628 104.226H233.344C234.635 104.226 235.873 103.713 236.786 102.8C237.699 101.887 238.212 100.649 238.212 99.3581V76.6417C238.212 75.3507 237.699 74.1126 236.786 73.1997C235.873 72.2868 234.635 71.7739 233.344 71.7739V71.7739Z" fill="white"/>
<g clip-path="url(#clip2_8658_21923)">
<path fill-rule="evenodd" clip-rule="evenodd" d="M219.027 97.0018C219.415 95.3033 219.876 93.3439 220.118 92.3194L220.271 91.6694C220.729 89.7096 220.938 88.8152 220.366 88.2545C220.123 88.0161 219.822 87.9278 219.451 87.9278C219.032 87.9278 218.522 88.04 217.9 88.1768C217.319 88.3053 217.116 88.2017 217.081 88.1795C217.069 88.1715 217.06 88.1625 217.052 88.1526C217.18 87.1261 218.149 79.2761 218.351 77.6086C218.443 76.8513 219.147 76.8081 219.37 76.8058C219.378 76.8058 219.386 76.8058 219.395 76.8061C219.455 76.8058 225.286 76.7547 226.855 76.7527C226.828 76.8104 226.797 76.8695 226.766 76.917C226.752 76.9386 226.738 76.9612 226.726 76.9844C226.711 77.0133 225.229 79.9083 224.033 82.1748C223.654 82.8932 223.217 83.9263 223.796 84.6003C224.189 85.0561 224.85 85.074 225.325 84.9462C225.613 84.9147 226.143 84.8151 227.244 84.6082C227.371 84.5843 227.477 84.5694 227.564 84.5608C224.85 88.5656 221.185 93.9302 219.027 97.0018M228.925 83.7163C228.499 83.1011 227.616 83.1864 226.987 83.3046C225.541 83.5762 225.209 83.624 225.145 83.6319C225.09 83.6349 225.035 83.6446 224.981 83.6612C224.961 83.6671 224.925 83.6741 224.887 83.6791C224.912 83.5317 224.994 83.2531 225.241 82.7834C226.373 80.6381 227.761 77.933 227.926 77.6103C228.091 77.3537 228.482 76.6342 228.142 76.0187C227.992 75.7478 227.661 75.4248 226.933 75.4248C225.521 75.4248 219.724 75.4753 219.397 75.4779C218.65 75.4567 217.197 75.8418 217.001 77.4526C216.785 79.2374 215.69 88.1045 215.69 88.1045C215.685 88.1387 215.684 88.1733 215.685 88.2074C215.689 88.31 215.733 88.8415 216.243 89.2253C216.706 89.5739 217.365 89.6569 218.2 89.4727C218.585 89.3877 219.084 89.2778 219.356 89.2562C219.346 89.6636 219.126 90.6001 218.946 91.3736L218.793 92.022C218.311 94.0707 217.181 98.8683 217.04 99.7899C216.994 100.098 217.175 100.409 217.473 100.521C217.57 100.557 217.658 100.575 217.741 100.575C218.105 100.575 218.358 100.234 218.782 99.6605C219.074 99.2674 219.489 98.6877 220.018 97.9368C220.905 96.6775 222.125 94.9166 223.645 92.7026C226.23 88.9352 228.823 85.1086 228.853 85.0642C229.079 84.7215 229.234 84.1631 228.925 83.7163" fill="white"/>
</g>
</g>
<path d="M246.478 93.8604C247.221 93.5375 247.894 93.376 248.497 93.376C249.605 93.376 250.402 93.6882 250.886 94.3125C251.381 94.9261 251.628 96.0192 251.628 97.5908C251.628 99.1622 251.339 100.26 250.757 100.885C250.176 101.498 249.153 101.805 247.689 101.805C247.183 101.805 246.381 101.756 245.283 101.659L244.734 101.611V90.1953H246.478V93.8604ZM270.407 93.376C270.977 93.376 271.65 93.4518 272.425 93.6025L272.829 93.6826L272.764 95.0713C271.914 94.9852 271.285 94.9424 270.875 94.9424C270.057 94.9424 269.508 95.1253 269.228 95.4912C268.948 95.8572 268.808 96.5467 268.808 97.5586C268.808 98.5703 268.943 99.2697 269.212 99.6572C269.482 100.045 270.041 100.238 270.891 100.238L272.781 100.109L272.829 101.515C271.742 101.708 270.923 101.805 270.375 101.805C269.147 101.805 268.281 101.477 267.775 100.82C267.28 100.153 267.032 99.0655 267.032 97.5586C267.032 96.0515 267.296 94.9798 267.824 94.3447C268.351 93.6991 269.212 93.376 270.407 93.376ZM282.772 93.376C285.033 93.376 286.164 94.6091 286.164 97.0742L286.05 98.333H281.044C281.055 99.0004 281.201 99.4906 281.481 99.8027C281.761 100.115 282.283 100.27 283.046 100.271C283.811 100.271 284.597 100.238 285.405 100.174L285.857 100.126L285.889 101.434C284.662 101.681 283.575 101.805 282.627 101.805C281.433 101.805 280.571 101.477 280.043 100.82C279.527 100.164 279.268 99.1134 279.268 97.6709C279.268 94.8079 280.436 93.3761 282.772 93.376ZM294.121 101.627H292.376V101.207C291.591 101.605 290.87 101.805 290.213 101.805C289.159 101.805 288.383 101.487 287.888 100.853C287.404 100.217 287.162 99.1515 287.162 97.6553C287.162 96.1592 287.43 95.0718 287.968 94.3936C288.517 93.7154 289.368 93.376 290.52 93.376C290.908 93.376 291.521 93.446 292.361 93.5859V90.1953H294.121V101.627ZM301.617 93.5537H303.845V95.0557H301.617V98.6074C301.617 99.2641 301.665 99.7007 301.762 99.916C301.859 100.131 302.107 100.238 302.505 100.238L303.83 100.19L303.91 101.595C303.189 101.735 302.64 101.805 302.263 101.805C301.348 101.805 300.718 101.595 300.374 101.175C300.04 100.755 299.874 99.9639 299.874 98.8018V95.0557H298.839V93.5537H299.874V91.2129H301.617V93.5537ZM254.829 101.627H253.068V93.5537H254.829V101.627ZM258.497 101.627H256.737V90.1953H258.497V101.627ZM262.258 101.627H260.498V90.1953H262.258V101.627ZM278.697 95.1357C277.771 95.3187 276.979 95.556 276.323 95.8467L275.967 95.9922V101.627H274.208V93.5537H275.952V94.5225C276.867 93.9305 277.782 93.5482 278.697 93.376V95.1357ZM297.69 101.627H295.93V93.5537H297.69V101.627ZM248.287 94.9424C247.77 94.9424 247.253 95.0231 246.736 95.1846L246.478 95.2656V100.174C247.07 100.217 247.474 100.238 247.689 100.238C248.55 100.238 249.121 100.04 249.401 99.6416C249.692 99.2325 249.836 98.543 249.836 97.5742C249.836 96.6057 249.713 95.9276 249.465 95.54C249.229 95.1418 248.836 94.9424 248.287 94.9424ZM290.569 94.8936C289.482 94.8936 288.938 95.7981 288.938 97.6064C288.938 98.5968 289.061 99.2863 289.309 99.6738C289.567 100.05 289.971 100.238 290.52 100.238C291.069 100.238 291.591 100.142 292.086 99.9482L292.361 99.835V95.0557C291.715 94.948 291.118 94.8936 290.569 94.8936ZM282.772 94.8291C282.169 94.8292 281.729 94.9965 281.449 95.3301C281.18 95.6637 281.04 96.2125 281.029 96.9766H284.435C284.435 96.1802 284.307 95.6256 284.048 95.3135C283.801 94.9906 283.375 94.8291 282.772 94.8291ZM254.829 92.1816H253.068V90.3242H254.829V92.1816ZM297.69 92.1816H295.93V90.3242H297.69V92.1816ZM304.169 84.126H304.605L306.317 77.5537H308.061L304.993 89.0986H303.265L304.234 85.627H302.845L300.73 77.5537H302.458L304.169 84.126ZM247.85 77.376C250.111 77.376 251.242 78.6091 251.242 81.0742L251.128 82.333H246.123C246.133 83.0004 246.279 83.4906 246.559 83.8027C246.839 84.1147 247.361 84.2705 248.125 84.2705C248.889 84.2705 249.675 84.2384 250.482 84.1738L250.934 84.126L250.967 85.4336C249.74 85.6811 248.653 85.8046 247.706 85.8047C246.511 85.8047 245.649 85.4768 245.122 84.8203C244.605 84.1637 244.346 83.1134 244.346 81.6709C244.346 78.8079 245.514 77.3761 247.85 77.376ZM259.489 77.376C261.749 77.3761 262.879 78.6092 262.879 81.0742L262.766 82.333H257.76C257.771 83.0004 257.917 83.4906 258.197 83.8027C258.477 84.1148 258.999 84.2705 259.763 84.2705C260.527 84.2705 261.313 84.2384 262.121 84.1738L262.573 84.126L262.605 85.4336C261.378 85.6812 260.291 85.8047 259.343 85.8047C258.148 85.8047 257.287 85.4769 256.759 84.8203C256.243 84.1637 255.985 83.1134 255.985 81.6709C255.985 78.8077 257.153 77.376 259.489 77.376ZM267.268 77.376C267.839 77.376 268.512 77.4518 269.287 77.6025L269.69 77.6826L269.625 79.0713C268.775 78.9852 268.146 78.9424 267.737 78.9424C266.919 78.9424 266.369 79.1253 266.089 79.4912C265.809 79.8572 265.669 80.5467 265.669 81.5586C265.669 82.5703 265.805 83.2697 266.074 83.6572C266.343 84.0447 266.902 84.2383 267.752 84.2383L269.642 84.1094L269.69 85.5146C268.603 85.7084 267.785 85.8047 267.236 85.8047C266.009 85.8047 265.142 85.4768 264.636 84.8203C264.141 84.1529 263.893 83.0655 263.893 81.5586C263.893 80.0515 264.158 78.9798 264.685 78.3447C265.213 77.6991 266.073 77.376 267.268 77.376ZM273.184 77.5537H275.413V79.0557H273.184V82.6074C273.184 83.2641 273.233 83.7007 273.33 83.916C273.427 84.1312 273.675 84.2383 274.073 84.2383L275.396 84.1904L275.477 85.5947C274.756 85.7346 274.207 85.8046 273.831 85.8047C272.916 85.8047 272.285 85.5946 271.941 85.1748C271.607 84.7549 271.44 83.964 271.44 82.8018V79.0557H270.407V77.5537H271.44V75.2129H273.184V77.5537ZM288.636 77.376C289.207 77.376 289.88 77.4518 290.655 77.6025L291.058 77.6826L290.994 79.0713C290.143 78.9852 289.513 78.9424 289.104 78.9424C288.286 78.9424 287.737 79.1254 287.458 79.4912C287.178 79.8572 287.038 80.5467 287.038 81.5586C287.038 82.5701 287.172 83.2697 287.441 83.6572C287.71 84.0448 288.27 84.2383 289.121 84.2383L291.009 84.1094L291.058 85.5146C289.971 85.7084 289.153 85.8047 288.604 85.8047C287.377 85.8047 286.51 85.4767 286.004 84.8203C285.509 84.1529 285.261 83.0655 285.261 81.5586C285.261 80.0515 285.525 78.9798 286.052 78.3447C286.58 77.6989 287.441 77.376 288.636 77.376ZM298.124 77.5537H300.352V79.0557H298.124V82.6074C298.124 83.2641 298.172 83.7007 298.269 83.916C298.366 84.1312 298.614 84.2383 299.012 84.2383L300.336 84.1904L300.417 85.5947C299.696 85.7346 299.147 85.8047 298.77 85.8047C297.855 85.8047 297.225 85.5946 296.88 85.1748C296.547 84.7549 296.38 83.9639 296.38 82.8018V79.0557H295.346V77.5537H296.38V75.2129H298.124V77.5537ZM254.467 85.627H252.708V74.1953H254.467V85.627ZM281.022 79.1357C280.096 79.3187 279.305 79.556 278.648 79.8467L278.293 79.9922V85.627H276.533V77.5537H278.277V78.5225C279.192 77.9304 280.107 77.5482 281.022 77.376V79.1357ZM283.804 85.627H282.044V77.5537H283.804V85.627ZM294.197 85.627H292.437V77.5537H294.197V85.627ZM247.85 78.8291C247.248 78.8292 246.807 78.9965 246.527 79.3301C246.258 79.6637 246.118 80.2125 246.107 80.9766H249.513C249.513 80.1802 249.385 79.6256 249.126 79.3135C248.879 78.9905 248.453 78.8291 247.85 78.8291ZM259.489 78.8291C258.886 78.8291 258.444 78.9964 258.165 79.3301C257.895 79.6637 257.755 80.2125 257.745 80.9766H261.152C261.152 80.1802 261.022 79.6256 260.764 79.3135C260.517 78.9907 260.091 78.8292 259.489 78.8291ZM283.804 76.1816H282.044V74.3242H283.804V76.1816ZM294.197 76.1816H292.437V74.3242H294.197V76.1816Z" fill="white"/>
</g>
<defs>
<clipPath id="clip0_8658_21923">
<rect width="640" height="200" fill="white"/>
</clipPath>
<clipPath id="clip1_8658_21923">
<rect width="32.452" height="32.452" fill="white" transform="translate(205.76 71.7739)"/>
</clipPath>
<clipPath id="clip2_8658_21923">
<rect width="25.1503" height="25.1503" fill="white" transform="translate(209.816 75.4248)"/>
</clipPath>
</defs>
</svg>
