<svg width="640" height="200" viewBox="0 0 640 200" fill="none" xmlns="http://www.w3.org/2000/svg">
<path d="M95.1434 49.0747V29.6217H107.412V32.3763H98.2956V37.8857H105.708V40.6119H98.2956V46.2916H107.412V49.0747H95.1434ZM112.999 49.0747H109.903V34.8754H112.97V35.7558C114.352 34.9606 115.659 34.563 116.889 34.563C118.782 34.563 120.07 35.1026 120.751 36.1818C121.452 37.242 121.802 39.0027 121.802 41.4639V49.0747H118.735V41.5491C118.735 40.0156 118.565 38.9269 118.224 38.2832C117.902 37.6395 117.23 37.3177 116.208 37.3177C115.242 37.3177 114.314 37.507 113.425 37.8857L112.999 38.0561V49.0747ZM124.866 48.5351V34.8754H127.933V48.5635C127.933 50.4189 127.602 51.7915 126.939 52.6813C126.296 53.5711 124.989 54.5178 123.02 55.5212L121.799 53.2209C123.124 52.3879 123.967 51.7063 124.327 51.1762C124.686 50.665 124.866 49.7847 124.866 48.5351ZM124.866 32.4615V29.1957H127.933V32.4615H124.866ZM131.914 36.4089C132.899 35.1783 134.527 34.563 136.799 34.563C139.071 34.563 140.69 35.1783 141.655 36.4089C142.64 37.6395 143.132 39.4855 143.132 41.9467C143.132 44.4079 142.659 46.2632 141.712 47.5128C140.765 48.7623 139.128 49.3871 136.799 49.3871C134.47 49.3871 132.833 48.7623 131.886 47.5128C130.939 46.2632 130.466 44.4079 130.466 41.9467C130.466 39.4855 130.949 37.6395 131.914 36.4089ZM134.243 45.6385C134.679 46.3958 135.531 46.7744 136.799 46.7744C138.067 46.7744 138.919 46.3958 139.355 45.6385C139.79 44.8812 140.008 43.6411 140.008 41.9183C140.008 40.1954 139.771 38.9743 139.298 38.2548C138.844 37.5354 138.011 37.1757 136.799 37.1757C135.587 37.1757 134.745 37.5354 134.272 38.2548C133.817 38.9743 133.59 40.1954 133.59 41.9183C133.59 43.6411 133.808 44.8812 134.243 45.6385ZM144.083 34.8754H147.121L150.132 46.4336H150.898L153.909 34.8754H156.976L151.58 55.1804H148.541L150.245 49.0747H147.803L144.083 34.8754ZM173.075 34.8754H176.142V49.0747H173.075V48.1944C171.693 48.9895 170.415 49.3871 169.241 49.3871C167.291 49.3871 165.985 48.8665 165.322 47.8252C164.66 46.765 164.329 44.919 164.329 42.2874V34.8754H167.424V42.3158C167.424 44.0198 167.566 45.1652 167.85 45.7521C168.134 46.339 168.797 46.6324 169.838 46.6324C170.86 46.6324 171.797 46.4431 172.649 46.0645L173.075 45.8941V34.8754ZM179.322 55.1804V34.8754H182.389V35.7558C183.695 34.9606 184.917 34.563 186.053 34.563C187.927 34.563 189.299 35.1405 190.17 36.2953C191.041 37.4313 191.477 39.3529 191.477 42.0603C191.477 44.7487 190.975 46.6419 189.972 47.74C188.987 48.8381 187.368 49.3871 185.115 49.3871C184.339 49.3871 183.44 49.3019 182.418 49.1315V55.1804H179.322ZM185.513 37.3177C184.623 37.3177 183.733 37.5165 182.844 37.9141L182.418 38.1129V46.4904C183.175 46.6419 184.008 46.7176 184.917 46.7176C186.204 46.7176 187.094 46.3484 187.586 45.6101C188.078 44.8717 188.324 43.6127 188.324 41.8331C188.324 38.8228 187.387 37.3177 185.513 37.3177ZM207.318 37.5165H203.399V43.7642C203.399 44.919 203.485 45.6858 203.655 46.0645C203.825 46.4431 204.261 46.6324 204.961 46.6324L207.29 46.5472L207.432 49.0179C206.164 49.264 205.198 49.3871 204.535 49.3871C202.926 49.3871 201.819 49.0179 201.213 48.2795C200.626 47.5412 200.332 46.1497 200.332 44.105V37.5165H198.515V34.8754H200.332V30.7576H203.399V34.8754H207.318V37.5165ZM210.056 36.4089C211.04 35.1783 212.669 34.563 214.941 34.563C217.212 34.563 218.831 35.1783 219.797 36.4089C220.781 37.6395 221.273 39.4855 221.273 41.9467C221.273 44.4079 220.8 46.2632 219.854 47.5128C218.907 48.7623 217.269 49.3871 214.941 49.3871C212.612 49.3871 210.974 48.7623 210.028 47.5128C209.081 46.2632 208.608 44.4079 208.608 41.9467C208.608 39.4855 209.09 37.6395 210.056 36.4089ZM212.385 45.6385C212.82 46.3958 213.672 46.7744 214.941 46.7744C216.209 46.7744 217.061 46.3958 217.496 45.6385C217.932 44.8812 218.15 43.6411 218.15 41.9183C218.15 40.1954 217.913 38.9743 217.44 38.2548C216.985 37.5354 216.152 37.1757 214.941 37.1757C213.729 37.1757 212.886 37.5354 212.413 38.2548C211.959 38.9743 211.732 40.1954 211.732 41.9183C211.732 43.6411 211.949 44.8812 212.385 45.6385Z" fill="#FFE344"/>
<path d="M176.923 60.1533C183.817 60.1533 189.001 62.3791 192.475 66.8301C196.003 71.2812 197.768 78.4468 197.768 88.3262C197.768 98.151 196.031 105.208 192.557 109.496C189.083 113.73 183.871 115.847 176.923 115.847C169.975 115.847 164.765 113.73 161.291 109.496C157.816 105.208 156.079 98.1512 156.079 88.3262C156.079 78.4468 157.816 71.2812 161.291 66.8301C164.819 62.3792 170.03 60.1533 176.923 60.1533ZM220.857 60.1533C227.751 60.1533 232.935 62.3791 236.409 66.8301C239.937 71.2812 241.702 78.4468 241.702 88.3262C241.702 98.151 239.965 105.208 236.491 109.496C233.017 113.73 227.805 115.847 220.857 115.847C213.909 115.847 208.698 113.73 205.224 109.496C201.75 105.208 200.012 98.1512 200.012 88.3262C200.012 78.4468 201.75 71.2812 205.224 66.8301C208.752 62.3792 213.963 60.1533 220.857 60.1533ZM136.41 60.1533C147.809 60.1533 153.508 65.2836 153.508 75.543C153.508 79.5597 152.64 83.0337 150.903 85.9648C149.166 88.8961 146.017 92.4512 141.458 96.6309L132.094 105.1H154.404V114.87H119.555V105.344L131.036 93.7002C135.107 89.5205 137.929 86.3174 139.503 84.0918C141.132 81.8662 141.947 79.5048 141.947 77.0078C141.947 74.4568 141.268 72.6661 139.911 71.6348C138.608 70.6034 136.735 70.0869 134.292 70.0869C130.656 70.0869 126.693 70.4131 122.405 71.0645L120.451 71.3086L119.88 62.5967C125.2 60.9682 130.71 60.1533 136.41 60.1533ZM108.143 67.2002C110.162 67.3956 112.019 67.6567 113.712 67.9824L114.542 68.1777L114.005 73.3564C111.628 73.0959 109.429 72.8998 107.41 72.7695L106.433 80.6357C109.82 81.7105 112.116 82.8994 113.321 84.2021C114.558 85.4724 115.177 87.4101 115.177 90.0156C115.177 93.4027 114.152 95.9757 112.1 97.7344C110.048 99.4605 107.361 100.323 104.039 100.323H103.99L103.257 106.088C100.847 105.99 99.6421 105.876 99.6421 105.746L100.326 100.079C97.9157 99.786 95.8964 99.4445 94.2681 99.0537L93.2915 98.8584L93.9263 93.7773C96.4992 94.1356 98.877 94.3795 101.059 94.5098L102.133 86.0098C98.7791 85.0002 96.402 83.7785 95.0015 82.3457C93.601 80.9127 92.8999 78.9577 92.8999 76.4824C92.9 73.2584 93.8776 70.865 95.8315 69.3018C97.7856 67.7059 100.472 66.9073 103.892 66.9072H104.528L105.407 60.166H109.022L108.143 67.2002ZM176.923 69.9248C173.612 69.9248 171.224 71.2813 169.758 73.9951C168.347 76.7092 167.641 81.4053 167.641 88.082C167.641 94.7586 168.374 99.4271 169.839 102.087C171.305 104.747 173.693 106.076 177.004 106.076C180.315 106.076 182.677 104.747 184.088 102.087C185.5 99.4271 186.206 94.7586 186.206 88.082C186.206 81.351 185.5 76.6549 184.088 73.9951C182.677 71.2813 180.289 69.9248 176.923 69.9248ZM220.857 69.9248C217.546 69.9248 215.158 71.2813 213.692 73.9951C212.281 76.7092 211.575 81.4053 211.575 88.082C211.575 94.7586 212.307 99.4271 213.773 102.087C215.239 104.747 217.627 106.076 220.938 106.076C224.249 106.076 226.611 104.747 228.022 102.087C229.433 99.4271 230.139 94.7586 230.139 88.082C230.139 81.351 229.433 76.6549 228.022 73.9951C226.611 71.2813 224.222 69.9248 220.857 69.9248ZM104.723 94.5586C107.361 94.2654 108.68 92.8977 108.68 90.4551C108.68 89.6735 108.452 89.0383 107.997 88.5498C107.573 88.0287 106.791 87.54 105.651 87.084L104.723 94.5586ZM103.794 72.6719C100.863 72.8022 99.398 73.9261 99.3979 76.043C99.3979 76.8245 99.642 77.4597 100.13 77.9482C100.619 78.4368 101.564 78.9418 102.964 79.4629L103.794 72.6719Z" fill="#FFE344"/>
<path d="M253.576 91.8467V77.6474H256.671V91.8467H253.576ZM253.576 75.2335V71.9677H256.671V75.2335H253.576ZM262.953 91.8467H259.858V77.6474H262.925V78.5277C264.307 77.7326 265.613 77.335 266.844 77.335C268.737 77.335 270.025 77.8746 270.706 78.9537C271.407 80.0139 271.757 81.7747 271.757 84.2359V91.8467H268.69V84.3211C268.69 82.7875 268.52 81.6989 268.179 81.0552C267.857 80.4115 267.185 80.0897 266.163 80.0897C265.197 80.0897 264.269 80.279 263.379 80.6576L262.953 80.828V91.8467ZM287.082 77.335C289.032 77.335 290.433 77.884 291.285 78.9821C292.156 80.0613 292.591 81.9829 292.591 84.747C292.591 87.5112 292.08 89.4423 291.057 90.5403C290.035 91.6195 288.237 92.1591 285.662 92.1591C284.772 92.1591 283.361 92.0739 281.43 91.9035L280.465 91.8183V71.7405H283.532V78.187C284.838 77.619 286.021 77.335 287.082 77.335ZM285.662 89.4044C287.176 89.4044 288.18 89.0542 288.672 88.3537C289.183 87.6342 289.439 86.4226 289.439 84.7186C289.439 83.0147 289.221 81.822 288.786 81.1404C288.369 80.4399 287.678 80.0897 286.712 80.0897C285.804 80.0897 284.895 80.2317 283.986 80.5156L283.532 80.6576V89.2908C284.573 89.3665 285.283 89.4044 285.662 89.4044ZM295.122 91.8467V77.6474H298.218V91.8467H295.122ZM295.122 75.2335V71.9677H298.218V75.2335H295.122ZM301.575 91.8467V71.7405H304.67V91.8467H301.575ZM308.19 91.8467V71.7405H311.285V91.8467H308.19ZM258.887 101.335C259.89 101.335 261.073 101.468 262.436 101.733L263.146 101.875L263.033 104.317C261.537 104.165 260.429 104.09 259.71 104.09C258.271 104.09 257.306 104.412 256.813 105.055C256.321 105.699 256.075 106.911 256.075 108.69C256.075 110.47 256.312 111.7 256.785 112.382C257.258 113.064 258.243 113.404 259.738 113.404L263.061 113.177L263.146 115.648C261.234 115.989 259.795 116.159 258.83 116.159C256.671 116.159 255.147 115.582 254.258 114.427C253.387 113.253 252.951 111.341 252.951 108.69C252.951 106.04 253.415 104.156 254.343 103.039C255.27 101.903 256.785 101.335 258.887 101.335ZM265.571 115.847V101.647H268.638V103.351C270.247 102.31 271.857 101.638 273.466 101.335V104.43C271.838 104.752 270.446 105.169 269.291 105.68L268.666 105.936V115.847H265.571ZM285.263 113.291L286.058 113.206L286.115 115.506C283.957 115.941 282.045 116.159 280.379 116.159C278.277 116.159 276.763 115.582 275.835 114.427C274.926 113.272 274.472 111.426 274.472 108.889C274.472 103.853 276.526 101.335 280.634 101.335C284.61 101.335 286.598 103.503 286.598 107.838L286.399 110.053H277.596C277.615 111.227 277.87 112.089 278.362 112.638C278.855 113.187 279.773 113.461 281.117 113.461C282.461 113.461 283.843 113.404 285.263 113.291ZM283.559 107.668C283.559 106.267 283.332 105.292 282.878 104.743C282.442 104.175 281.694 103.891 280.634 103.891C279.574 103.891 278.798 104.184 278.306 104.771C277.832 105.358 277.586 106.324 277.567 107.668H283.559ZM300.593 95.7405V115.847H297.526V115.108C296.144 115.809 294.876 116.159 293.721 116.159C291.865 116.159 290.502 115.601 289.631 114.484C288.779 113.367 288.353 111.492 288.353 108.861C288.353 106.229 288.827 104.317 289.773 103.124C290.739 101.931 292.234 101.335 294.26 101.335C294.942 101.335 296.021 101.458 297.498 101.704V95.7405H300.593ZM297.015 112.893L297.498 112.694V104.288C296.362 104.099 295.311 104.004 294.345 104.004C292.433 104.004 291.477 105.595 291.477 108.775C291.477 110.517 291.695 111.729 292.13 112.41C292.585 113.073 293.295 113.404 294.26 113.404C295.226 113.404 296.144 113.234 297.015 112.893ZM303.775 115.847V101.647H306.87V115.847H303.775ZM303.775 99.2335V95.9677H306.87V99.2335H303.775ZM317.696 104.288H313.777V110.536C313.777 111.691 313.862 112.458 314.033 112.836C314.203 113.215 314.639 113.404 315.339 113.404L317.668 113.319L317.81 115.79C316.541 116.036 315.576 116.159 314.913 116.159C313.304 116.159 312.196 115.79 311.59 115.052C311.004 114.313 310.71 112.922 310.71 110.877V104.288H308.893V101.647H310.71V97.5296H313.777V101.647H317.696V104.288ZM329.521 104.572C327.287 104.27 325.669 104.118 324.665 104.118C323.662 104.118 322.961 104.241 322.564 104.487C322.185 104.714 321.996 105.084 321.996 105.595C321.996 106.106 322.204 106.466 322.62 106.674C323.056 106.882 324.059 107.128 325.631 107.412C327.221 107.677 328.347 108.103 329.01 108.69C329.673 109.277 330.004 110.318 330.004 111.814C330.004 113.31 329.521 114.408 328.556 115.108C327.609 115.809 326.218 116.159 324.381 116.159C323.226 116.159 321.768 115.998 320.008 115.676L319.127 115.534L319.241 112.95C321.513 113.253 323.151 113.404 324.154 113.404C325.157 113.404 325.867 113.281 326.284 113.035C326.719 112.789 326.937 112.382 326.937 111.814C326.937 111.246 326.729 110.858 326.312 110.65C325.915 110.423 324.94 110.186 323.387 109.94C321.854 109.675 320.727 109.268 320.008 108.719C319.288 108.17 318.929 107.166 318.929 105.708C318.929 104.251 319.421 103.162 320.405 102.443C321.409 101.723 322.687 101.363 324.239 101.363C325.451 101.363 326.937 101.515 328.698 101.818L329.578 101.988L329.521 104.572ZM337.046 98.2589H334.882L335.546 100.338L334.49 100.661L333.791 98.5657L332.002 99.9117L331.32 99.0428L333.144 97.6967L331.371 96.4358L332.036 95.5156L333.791 96.7936L334.473 94.6978L335.563 95.0556L334.899 97.1684H337.046V98.2589Z" fill="#FFE344"/>
<path d="M95.1434 145.925V126.472H100.624L104.969 141.666L109.314 126.472H114.824V145.925H111.643V129.965H111.217L106.616 145.13H103.322L98.7216 129.965H98.2956V145.925H95.1434ZM118.934 133.26C119.919 132.029 121.547 131.414 123.819 131.414C126.091 131.414 127.709 132.029 128.675 133.26C129.659 134.49 130.152 136.336 130.152 138.797C130.152 141.258 129.678 143.114 128.732 144.363C127.785 145.613 126.148 146.238 123.819 146.238C121.49 146.238 119.853 145.613 118.906 144.363C117.959 143.114 117.486 141.258 117.486 138.797C117.486 136.336 117.969 134.49 118.934 133.26ZM121.263 142.489C121.698 143.246 122.55 143.625 123.819 143.625C125.087 143.625 125.939 143.246 126.375 142.489C126.81 141.732 127.028 140.492 127.028 138.769C127.028 137.046 126.791 135.825 126.318 135.105C125.864 134.386 125.031 134.026 123.819 134.026C122.607 134.026 121.765 134.386 121.291 135.105C120.837 135.825 120.61 137.046 120.61 138.769C120.61 140.492 120.828 141.732 121.263 142.489ZM131.102 131.726H134.339L137.066 143.284H137.974L140.814 131.726H143.967L140.275 145.925H134.765L131.102 131.726ZM155.706 143.369L156.502 143.284L156.558 145.585C154.4 146.02 152.488 146.238 150.822 146.238C148.72 146.238 147.206 145.66 146.278 144.505C145.369 143.35 144.915 141.505 144.915 138.968C144.915 133.932 146.969 131.414 151.077 131.414C155.053 131.414 157.041 133.581 157.041 137.917L156.842 140.132H148.039C148.058 141.306 148.313 142.167 148.806 142.716C149.298 143.265 150.216 143.54 151.56 143.54C152.904 143.54 154.287 143.483 155.706 143.369ZM154.003 137.747C154.003 136.346 153.775 135.37 153.321 134.821C152.886 134.253 152.138 133.969 151.077 133.969C150.017 133.969 149.241 134.263 148.749 134.85C148.276 135.437 148.029 136.402 148.01 137.747H154.003ZM168.217 145.925H165.122V125.819H168.217V132.464C169.618 131.764 170.915 131.414 172.108 131.414C174.001 131.414 175.288 131.953 175.97 133.032C176.67 134.093 177.021 135.853 177.021 138.314V145.925H173.925V138.4C173.925 136.866 173.764 135.778 173.442 135.134C173.121 134.49 172.439 134.168 171.398 134.168C170.489 134.168 169.58 134.32 168.672 134.623L168.217 134.793V145.925ZM180.823 133.26C181.808 132.029 183.436 131.414 185.708 131.414C187.98 131.414 189.598 132.029 190.564 133.26C191.548 134.49 192.041 136.336 192.041 138.797C192.041 141.258 191.567 143.114 190.621 144.363C189.674 145.613 188.036 146.238 185.708 146.238C183.379 146.238 181.741 145.613 180.795 144.363C179.848 143.114 179.375 141.258 179.375 138.797C179.375 136.336 179.858 134.49 180.823 133.26ZM183.152 142.489C183.587 143.246 184.439 143.625 185.708 143.625C186.976 143.625 187.828 143.246 188.264 142.489C188.699 141.732 188.917 140.492 188.917 138.769C188.917 137.046 188.68 135.825 188.207 135.105C187.752 134.386 186.919 134.026 185.708 134.026C184.496 134.026 183.654 134.386 183.18 135.105C182.726 135.825 182.499 137.046 182.499 138.769C182.499 140.492 182.716 141.732 183.152 142.489ZM197.643 145.925H194.548V131.726H197.615V132.606C198.959 131.811 200.189 131.414 201.306 131.414C202.953 131.414 204.156 131.877 204.913 132.805C206.636 131.877 208.349 131.414 210.053 131.414C211.757 131.414 212.959 131.944 213.66 133.004C214.36 134.045 214.71 135.815 214.71 138.314V145.925H211.643V138.4C211.643 136.866 211.483 135.778 211.161 135.134C210.858 134.49 210.214 134.168 209.23 134.168C208.378 134.168 207.459 134.358 206.475 134.736L205.992 134.935C206.144 135.314 206.219 136.525 206.219 138.57V145.925H203.152V138.627C203.152 136.942 203.001 135.778 202.698 135.134C202.395 134.49 201.732 134.168 200.71 134.168C199.763 134.168 198.883 134.358 198.069 134.736L197.643 134.907V145.925ZM227.884 143.369L228.679 143.284L228.736 145.585C226.578 146.02 224.666 146.238 223 146.238C220.898 146.238 219.384 145.66 218.456 144.505C217.547 143.35 217.093 141.505 217.093 138.968C217.093 133.932 219.147 131.414 223.255 131.414C227.231 131.414 229.219 133.581 229.219 137.917L229.02 140.132H220.217C220.236 141.306 220.491 142.167 220.983 142.716C221.476 143.265 222.394 143.54 223.738 143.54C225.082 143.54 226.464 143.483 227.884 143.369ZM226.18 137.747C226.18 136.346 225.953 135.37 225.499 134.821C225.063 134.253 224.316 133.969 223.255 133.969C222.195 133.969 221.419 134.263 220.927 134.85C220.453 135.437 220.207 136.402 220.188 137.747H226.18ZM247.807 136.099V142.574C247.826 142.991 247.93 143.303 248.119 143.511C248.328 143.701 248.64 143.824 249.057 143.881L248.971 146.238C247.343 146.238 246.084 145.887 245.194 145.187C243.68 145.887 242.156 146.238 240.622 146.238C237.801 146.238 236.391 144.733 236.391 141.722C236.391 140.283 236.769 139.242 237.527 138.598C238.303 137.955 239.486 137.567 241.077 137.434L244.74 137.122V136.099C244.74 135.342 244.57 134.812 244.229 134.509C243.907 134.206 243.424 134.055 242.78 134.055C241.569 134.055 240.054 134.13 238.237 134.282L237.328 134.339L237.214 132.152C239.278 131.66 241.171 131.414 242.894 131.414C244.636 131.414 245.885 131.792 246.643 132.55C247.419 133.288 247.807 134.471 247.807 136.099ZM241.446 139.621C240.139 139.734 239.486 140.444 239.486 141.751C239.486 143.057 240.064 143.71 241.219 143.71C242.165 143.71 243.169 143.559 244.229 143.256L244.74 143.085V139.308L241.446 139.621ZM254.22 145.925H251.125V131.726H254.192V132.606C255.574 131.811 256.88 131.414 258.111 131.414C260.004 131.414 261.292 131.953 261.973 133.032C262.674 134.093 263.024 135.853 263.024 138.314V145.925H259.957V138.4C259.957 136.866 259.787 135.778 259.446 135.134C259.124 134.49 258.452 134.168 257.429 134.168C256.464 134.168 255.536 134.358 254.646 134.736L254.22 134.907V145.925ZM277.646 125.819V145.925H274.579V145.187C273.197 145.887 271.929 146.238 270.774 146.238C268.919 146.238 267.555 145.679 266.685 144.562C265.833 143.445 265.407 141.571 265.407 138.939C265.407 136.308 265.88 134.395 266.827 133.203C267.792 132.01 269.288 131.414 271.314 131.414C271.995 131.414 273.074 131.537 274.551 131.783V125.819H277.646ZM274.068 142.972L274.551 142.773V134.367C273.415 134.178 272.364 134.083 271.399 134.083C269.487 134.083 268.53 135.673 268.53 138.854C268.53 140.596 268.748 141.807 269.184 142.489C269.638 143.152 270.348 143.483 271.314 143.483C272.279 143.483 273.197 143.313 274.068 142.972ZM296.354 134.651C294.12 134.348 292.502 134.197 291.498 134.197C290.495 134.197 289.794 134.32 289.397 134.566C289.018 134.793 288.829 135.162 288.829 135.673C288.829 136.185 289.037 136.544 289.454 136.753C289.889 136.961 290.892 137.207 292.464 137.491C294.054 137.756 295.181 138.182 295.843 138.769C296.506 139.356 296.837 140.397 296.837 141.893C296.837 143.388 296.354 144.486 295.389 145.187C294.442 145.887 293.051 146.238 291.214 146.238C290.059 146.238 288.602 146.077 286.841 145.755L285.961 145.613L286.074 143.029C288.346 143.332 289.984 143.483 290.987 143.483C291.99 143.483 292.7 143.36 293.117 143.114C293.552 142.868 293.77 142.461 293.77 141.893C293.77 141.325 293.562 140.937 293.145 140.728C292.748 140.501 291.773 140.265 290.22 140.018C288.687 139.753 287.56 139.346 286.841 138.797C286.121 138.248 285.762 137.245 285.762 135.787C285.762 134.329 286.254 133.241 287.238 132.521C288.242 131.802 289.52 131.442 291.072 131.442C292.284 131.442 293.77 131.593 295.531 131.896L296.411 132.067L296.354 134.651ZM306.883 134.367H302.964V140.615C302.964 141.77 303.049 142.536 303.22 142.915C303.39 143.294 303.826 143.483 304.526 143.483L306.855 143.398L306.997 145.868C305.728 146.115 304.763 146.238 304.1 146.238C302.491 146.238 301.383 145.868 300.777 145.13C300.191 144.392 299.897 143 299.897 140.956V134.367H298.08V131.726H299.897V127.608H302.964V131.726H306.883V134.367ZM319.361 136.099V142.574C319.38 142.991 319.485 143.303 319.674 143.511C319.882 143.701 320.194 143.824 320.611 143.881L320.526 146.238C318.898 146.238 317.639 145.887 316.749 145.187C315.234 145.887 313.71 146.238 312.177 146.238C309.356 146.238 307.945 144.733 307.945 141.722C307.945 140.283 308.324 139.242 309.081 138.598C309.857 137.955 311.041 137.567 312.631 137.434L316.294 137.122V136.099C316.294 135.342 316.124 134.812 315.783 134.509C315.461 134.206 314.979 134.055 314.335 134.055C313.123 134.055 311.609 134.13 309.791 134.282L308.882 134.339L308.769 132.152C310.832 131.66 312.726 131.414 314.449 131.414C316.19 131.414 317.44 131.792 318.197 132.55C318.973 133.288 319.361 134.471 319.361 136.099ZM313 139.621C311.694 139.734 311.041 140.444 311.041 141.751C311.041 143.057 311.618 143.71 312.773 143.71C313.72 143.71 314.723 143.559 315.783 143.256L316.294 143.085V139.308L313 139.621ZM321.207 131.726H324.245L327.256 143.284H328.022L331.033 131.726H334.1L328.704 152.031H325.665L327.369 145.925H324.927L321.207 131.726ZM340.487 131.726H343.526L345.769 143.284H346.337L349.035 132.01H352.216L354.913 143.284H355.481L357.696 131.726H360.763L357.753 145.925H352.84L350.625 136.185L348.41 145.925H343.497L340.487 131.726ZM362.825 145.925V131.726H365.92V145.925H362.825ZM362.825 129.312V126.046H365.92V129.312H362.825ZM376.746 134.367H372.827V140.615C372.827 141.77 372.912 142.536 373.082 142.915C373.253 143.294 373.688 143.483 374.389 143.483L376.717 143.398L376.859 145.868C375.591 146.115 374.625 146.238 373.963 146.238C372.354 146.238 371.246 145.868 370.64 145.13C370.053 144.392 369.76 143 369.76 140.956V134.367H367.942V131.726H369.76V127.608H372.827V131.726H376.746V134.367ZM381.812 145.925H378.717V125.819H381.812V132.464C383.213 131.764 384.51 131.414 385.703 131.414C387.596 131.414 388.883 131.953 389.565 133.032C390.265 134.093 390.616 135.853 390.616 138.314V145.925H387.52V138.4C387.52 136.866 387.359 135.778 387.037 135.134C386.716 134.49 386.034 134.168 384.993 134.168C384.084 134.168 383.175 134.32 382.267 134.623L381.812 134.793V145.925ZM398.017 145.925L402.816 126.472H409.093L413.92 145.925H410.74L409.689 141.751H402.22L401.169 145.925H398.017ZM405.259 129.113L402.845 138.968H409.064L406.679 129.113H405.259ZM423.743 138.485V135.702H429.281V145.585C428.77 145.717 427.728 145.859 426.157 146.01C424.605 146.162 423.478 146.238 422.778 146.238C419.824 146.238 417.789 145.424 416.672 143.795C415.555 142.167 414.996 139.621 414.996 136.156C414.996 132.673 415.564 130.136 416.7 128.545C417.855 126.955 419.843 126.16 422.664 126.16C424.33 126.16 426.204 126.349 428.287 126.728L429.281 126.927L429.167 129.426C426.876 129.123 424.822 128.971 423.005 128.971C421.187 128.971 419.938 129.483 419.256 130.505C418.593 131.527 418.262 133.42 418.262 136.185C418.262 138.949 418.575 140.861 419.199 141.921C419.843 142.962 421.13 143.483 423.062 143.483C424.444 143.483 425.475 143.398 426.157 143.227V138.485H423.743ZM443.573 145.925H432.668V126.472H435.82V143.114H443.573V145.925Z" fill="white"/>
<g opacity="0.9">
<g clip-path="url(#clip0_8658_22825)">
<path fill-rule="evenodd" clip-rule="evenodd" d="M-45.4958 69.3197L76.3668 -52.543L100.987 -27.923L-20.8759 93.9397L-45.4958 69.3197Z" fill="#FFE344"/>
<path d="M77.2522 -7.04687L-18.4971 88.7024" stroke="white" stroke-width="1.08806"/>
<path d="M77.2522 -50.5693L-18.4971 45.1799" stroke="white" stroke-width="1.08806"/>
<path d="M12.4211 32.2878C12.8206 32.395 13.2178 32.2512 13.6125 31.8565C14.0071 31.4618 14.1485 31.0672 14.0364 30.6725C13.9243 30.268 13.5686 29.7661 12.9693 29.1668C12.365 28.5626 11.8534 28.1971 11.4344 28.0704C11.0153 27.9438 10.6109 28.0753 10.2211 28.4651C9.83124 28.8549 9.69967 29.2594 9.82636 29.6784C9.95305 30.0975 10.3185 30.6091 10.9227 31.2133C11.5221 31.8127 12.0215 32.1708 12.4211 32.2878ZM15.469 30.5263C15.5713 31.2426 15.2448 31.9784 14.4895 32.7336C13.7343 33.4889 12.9961 33.8178 12.2749 33.7203C11.5537 33.6131 10.7546 33.121 9.87753 32.2439C9.00044 31.3668 8.50343 30.5628 8.38648 29.8319C8.26954 29.0913 8.5887 28.3433 9.34397 27.588C10.0992 26.8328 10.8448 26.516 11.5805 26.6379C12.3163 26.7499 13.1227 27.2445 13.9998 28.1216C14.8769 28.9987 15.3666 29.8003 15.469 30.5263ZM17.1356 29.9121L12.1655 24.942L13.8685 23.239L19.1602 26.1333L19.2333 26.0602L15.1403 21.9672L16.1489 20.9585L21.1191 25.9287L19.4599 27.5878L14.1243 24.7373L14.0512 24.8104L18.1443 28.9035L17.1356 29.9121ZM24.8397 22.2081L22.0111 25.0367L17.0409 20.0665L18.0496 19.0579L22.128 23.1363L23.948 21.3164L24.8397 22.2081ZM25.2663 21.7815L20.2961 16.8113L21.3048 15.8027L26.2749 20.7728L25.2663 21.7815ZM27.1653 19.8825L22.1951 14.9123L23.8981 13.2093L29.1899 16.1037L29.263 16.0306L25.1699 11.9375L26.1786 10.9289L31.1487 15.899L29.4896 17.5582L24.154 14.7076L24.0809 14.7807L28.1739 18.8738L27.1653 19.8825ZM32.0408 15.007L27.0706 10.0368L30.2866 6.82085L31.1637 7.69794L28.9563 9.90527L30.1185 11.0674L31.8873 9.29862L32.7497 10.1611L30.9809 11.9299L32.1723 13.1213L34.3797 10.9139L35.2567 11.791L32.0408 15.007ZM16.221 36.6073C15.6899 37.1384 15.5998 37.5794 15.9506 37.9302C16.1065 38.0861 16.2917 38.1397 16.5061 38.091C16.7205 38.0423 17.1469 37.8547 17.7852 37.5282C18.4284 37.1969 18.9473 37.0336 19.342 37.0385C19.7318 37.0385 20.1314 37.2432 20.5407 37.6525C21.0621 38.1739 21.2984 38.7269 21.2497 39.3116C21.2009 39.8964 20.9208 40.4445 20.4091 40.9562C20.0291 41.3362 19.5052 41.7431 18.8377 42.1768L18.5234 42.3887L17.8437 41.5043C18.5843 40.9391 19.1276 40.4835 19.4736 40.1376C19.9901 39.621 20.0339 39.1484 19.6051 38.7196C19.4492 38.5637 19.2665 38.5028 19.057 38.5369C18.8523 38.5661 18.521 38.7074 18.0629 38.9608C17.3369 39.3652 16.7473 39.5748 16.2941 39.5894C15.841 39.5942 15.417 39.3993 15.0224 39.0047C14.5253 38.5076 14.3061 37.9863 14.3645 37.4405C14.423 36.8948 14.7154 36.3588 15.2416 35.8325C15.6022 35.4719 16.109 35.0626 16.7619 34.6046L17.0762 34.3926L17.7925 35.2697C17.0275 35.8788 16.5037 36.3247 16.221 36.6073ZM23.0377 35.2578L22.2191 36.0764L23.6663 37.5236L22.6576 38.5323L17.6875 33.5621L19.5147 31.7348C20.6939 30.5557 21.8585 30.541 23.0084 31.691C23.5883 32.2708 23.8831 32.8678 23.8928 33.4817C23.9026 34.0859 23.6175 34.678 23.0377 35.2578ZM21.3566 35.214L22.1679 34.4027C22.6698 33.9008 22.6089 33.338 21.9852 32.7143C21.6782 32.4073 21.398 32.2489 21.1446 32.2392C20.8864 32.2246 20.6281 32.3464 20.3699 32.6046L19.5586 33.4159L21.3566 35.214ZM26.7693 34.4206L21.7992 29.4504L25.0152 26.2344L25.8922 27.1115L23.6849 29.3188L24.8471 30.481L26.6158 28.7122L27.4783 29.5746L25.7095 31.3434L26.9009 32.5348L29.1082 30.3275L29.9853 31.2046L26.7693 34.4206ZM33.6582 27.3709C33.2538 27.9995 32.8445 28.5208 32.4303 28.935C32.0161 29.3492 31.6336 29.6294 31.2828 29.7756C30.9319 29.9217 30.5738 29.9534 30.2083 29.8706C29.8429 29.7877 29.4823 29.6221 29.1266 29.3736C28.7709 29.125 28.364 28.7718 27.906 28.3137C26.9461 27.3538 26.4125 26.5523 26.3053 25.9091C26.1981 25.2561 26.5075 24.5666 27.2335 23.8406C27.6526 23.4215 28.2032 23.0025 28.8854 22.5834L29.6602 23.4167C29.1047 23.826 28.6661 24.1914 28.3445 24.513C28.0278 24.8298 27.8451 25.1002 27.7963 25.3243C27.7427 25.5436 27.8012 25.8067 27.9718 26.1137C28.1472 26.4158 28.5224 26.8544 29.0974 27.4293C29.6723 28.0043 30.1377 28.3381 30.4934 28.4307C30.8491 28.5135 31.2267 28.3552 31.6263 27.9556C32.0307 27.5512 32.4254 27.0883 32.8104 26.5669L33.6582 27.3709ZM34.3647 26.8252L29.3945 21.8551L30.4031 20.8464L35.3733 25.8166L34.3647 26.8252ZM35.8471 25.3428L31.9952 19.2544L33.9102 17.3394L39.9986 21.1913L38.9899 22.1999L37.8936 21.4983L36.154 23.2378L36.8557 24.3342L35.8471 25.3428ZM33.6105 19.3055L35.467 22.1707L36.8265 20.8112L33.9613 18.9547L33.6105 19.3055ZM43.2968 17.8931L40.4682 20.7217L35.498 15.7515L36.5067 14.7429L40.5851 18.8213L42.4051 17.0014L43.2968 17.8931Z" fill="#001CB0"/>
</g>
</g>
<defs>
<clipPath id="clip0_8658_22825">
<rect width="72.9" height="72.9" fill="white" transform="translate(0 0.0253906)"/>
</clipPath>
</defs>
</svg>
