<svg width="300" height="250" viewBox="0 0 300 250" fill="none" xmlns="http://www.w3.org/2000/svg">
<g clip-path="url(#clip0_6934_182955)">
<path d="M62.3096 44.2479C60.714 44.2479 59.9162 44.8489 59.9162 46.0509C59.9162 46.7211 60.0971 47.1838 60.4587 47.4391C60.831 47.6838 61.5757 47.9338 62.6926 48.1891C63.8201 48.4337 64.6179 48.7582 65.086 49.1624C65.554 49.556 65.7881 50.2102 65.7881 51.125C65.7881 53.3907 64.6126 54.5236 62.2618 54.5236C61.4852 54.5236 60.5119 54.4332 59.3418 54.2524L58.7674 54.1726L58.895 53.1514C60.3417 53.3429 61.4427 53.4386 62.1979 53.4386C63.7723 53.4386 64.5594 52.6993 64.5594 51.2207C64.5594 50.625 64.3839 50.1995 64.0329 49.9442C63.6925 49.6783 63.0489 49.4549 62.1022 49.2741C60.8576 49.0081 59.9747 48.6677 59.4535 48.2529C58.9323 47.8274 58.6717 47.12 58.6717 46.1307C58.6717 44.1522 59.8577 43.1629 62.2299 43.1629C63.0064 43.1629 63.9372 43.2427 65.0222 43.4022L65.5647 43.482L65.453 44.5192C63.9744 44.3383 62.9266 44.2479 62.3096 44.2479ZM66.27 46.402H67.4667L69.0782 53.3429H69.3335L71.2323 46.5615H72.4769L74.3757 53.3429H74.6469L76.2425 46.402H77.4392L75.5404 54.38H73.5459L71.8546 48.1412L70.1633 54.38H68.1687L66.27 46.402ZM78.44 54.38V46.402H79.6367V54.38H78.44ZM78.44 44.5989V43.2108H79.6367V44.5989H78.44ZM85.4247 47.4391H82.8877V51.2526C82.8877 52.1674 82.9515 52.7684 83.0792 53.0557C83.2175 53.3429 83.5366 53.4865 84.0365 53.4865L85.4566 53.3907L85.5364 54.38C84.8237 54.497 84.2812 54.5555 83.9089 54.5555C83.0792 54.5555 82.5048 54.3534 82.1856 53.9492C81.8665 53.545 81.707 52.7738 81.707 51.6356V47.4391H80.5741V46.402H81.707V43.9607H82.8877V46.402H85.4247V47.4391ZM89.2316 46.2424C89.5826 46.2424 90.1783 46.3062 91.0187 46.4339L91.4016 46.4818L91.3538 47.4551C90.5028 47.3593 89.8752 47.3115 89.471 47.3115C88.5668 47.3115 87.9498 47.5295 87.6201 47.9657C87.3009 48.3912 87.1414 49.189 87.1414 50.3591C87.1414 51.5186 87.2903 52.327 87.5881 52.7844C87.8966 53.2418 88.5295 53.4705 89.4869 53.4705L91.3697 53.3269L91.4176 54.3162C90.4283 54.4651 89.689 54.5396 89.1997 54.5396C87.9551 54.5396 87.0935 54.2204 86.6148 53.5822C86.1468 52.944 85.9128 51.8696 85.9128 50.3591C85.9128 48.8379 86.1681 47.7742 86.6786 47.1679C87.1892 46.5509 88.0402 46.2424 89.2316 46.2424ZM93.7559 54.38H92.5592V42.9236H93.7559V46.8487C94.6069 46.4445 95.426 46.2424 96.2131 46.2424C97.2769 46.2424 97.9896 46.5296 98.3512 47.104C98.7236 47.6785 98.9097 48.6996 98.9097 50.1676V54.38H97.713V50.1995C97.713 49.0932 97.6013 48.338 97.3779 47.9338C97.1652 47.5189 96.7078 47.3115 96.0057 47.3115C95.3356 47.3115 94.6867 47.4338 94.0591 47.6785L93.7559 47.7902V54.38ZM107.491 47.4391H104.954V51.2526C104.954 52.1674 105.018 52.7684 105.146 53.0557C105.284 53.3429 105.603 53.4865 106.103 53.4865L107.523 53.3907L107.603 54.38C106.89 54.497 106.348 54.5555 105.976 54.5555C105.146 54.5555 104.571 54.3534 104.252 53.9492C103.933 53.545 103.774 52.7738 103.774 51.6356V47.4391H102.641V46.402H103.774V43.9607H104.954V46.402H107.491V47.4391ZM107.964 50.375C107.964 48.9177 108.224 47.8646 108.745 47.2157C109.267 46.5669 110.144 46.2424 111.378 46.2424C112.623 46.2424 113.5 46.5669 114.011 47.2157C114.532 47.8646 114.793 48.9177 114.793 50.375C114.793 51.8324 114.548 52.8908 114.059 53.5503C113.569 54.2098 112.676 54.5396 111.378 54.5396C110.08 54.5396 109.187 54.2098 108.698 53.5503C108.208 52.8908 107.964 51.8324 107.964 50.375ZM109.192 50.3591C109.192 51.5186 109.33 52.3323 109.607 52.8004C109.894 53.2684 110.485 53.5024 111.378 53.5024C112.282 53.5024 112.873 53.2737 113.149 52.8163C113.426 52.3483 113.564 51.5292 113.564 50.3591C113.564 49.189 113.41 48.3858 113.101 47.9497C112.793 47.5029 112.218 47.2796 111.378 47.2796C110.548 47.2796 109.974 47.5029 109.655 47.9497C109.346 48.3858 109.192 49.189 109.192 50.3591ZM118.208 54.38L121.24 43.3384H123.92L126.952 54.38H125.739L124.942 51.5398H120.219L119.421 54.38H118.208ZM122.165 44.3915L120.49 50.4389H124.67L122.995 44.3915H122.165ZM132.233 49.8325V48.7316H135.281V54.1566C133.94 54.4119 132.744 54.5396 131.691 54.5396C130.084 54.5396 128.968 54.0768 128.34 53.1514C127.723 52.2259 127.414 50.8005 127.414 48.8752C127.414 46.9392 127.723 45.5084 128.34 44.583C128.968 43.6469 130.074 43.1789 131.659 43.1789C132.648 43.1789 133.675 43.2852 134.738 43.498L135.281 43.5937L135.233 44.6149C133.914 44.3915 132.77 44.2798 131.802 44.2798C130.579 44.2798 129.755 44.6362 129.329 45.3489C128.904 46.0509 128.691 47.2264 128.691 48.8752C128.691 50.5133 128.904 51.6887 129.329 52.4015C129.755 53.1035 130.574 53.4546 131.786 53.4546C132.531 53.4546 133.292 53.3801 134.068 53.2312V49.8325H132.233ZM143.135 54.38H137.055V43.3384H138.284V53.279H143.135V54.38ZM148.244 47.4391V54.38H147.048V47.4391H146.042V46.402H147.048V45.684C147.048 44.5564 147.207 43.7905 147.526 43.3863C147.845 42.9714 148.404 42.764 149.202 42.764L150.813 42.8757L150.797 43.865C150.202 43.8437 149.707 43.8331 149.313 43.8331C148.93 43.8331 148.654 43.9607 148.484 44.216C148.324 44.4713 148.244 44.9659 148.244 45.6999V46.402H150.558V47.4391H148.244ZM150.865 50.375C150.865 48.9177 151.126 47.8646 151.647 47.2157C152.168 46.5669 153.046 46.2424 154.28 46.2424C155.525 46.2424 156.402 46.5669 156.913 47.2157C157.434 47.8646 157.695 48.9177 157.695 50.375C157.695 51.8324 157.45 52.8908 156.961 53.5503C156.471 54.2098 155.578 54.5396 154.28 54.5396C152.982 54.5396 152.089 54.2098 151.599 53.5503C151.11 52.8908 150.865 51.8324 150.865 50.375ZM152.094 50.3591C152.094 51.5186 152.232 52.3323 152.509 52.8004C152.796 53.2684 153.386 53.5024 154.28 53.5024C155.184 53.5024 155.775 53.2737 156.051 52.8163C156.328 52.3483 156.466 51.5292 156.466 50.3591C156.466 49.189 156.312 48.3858 156.003 47.9497C155.695 47.5029 155.12 47.2796 154.28 47.2796C153.45 47.2796 152.876 47.5029 152.557 47.9497C152.248 48.3858 152.094 49.189 152.094 50.3591ZM159.008 54.38V46.402H160.189V47.487C161.114 46.8487 162.088 46.4286 163.109 46.2265V47.4391C162.662 47.5242 162.194 47.6572 161.705 47.838C161.226 48.0189 160.859 48.1784 160.604 48.3167L160.205 48.5241V54.38H159.008ZM172.386 48.8113V52.8961C172.418 53.2897 172.726 53.5237 173.312 53.5982L173.264 54.5396C172.423 54.5396 171.79 54.3268 171.365 53.9013C170.408 54.3268 169.45 54.5396 168.493 54.5396C167.759 54.5396 167.2 54.3321 166.817 53.9173C166.434 53.5024 166.243 52.9067 166.243 52.1302C166.243 51.3537 166.44 50.7846 166.833 50.4229C167.227 50.0506 167.844 49.8219 168.684 49.7368L171.189 49.4975V48.8113C171.189 48.2688 171.072 47.8806 170.838 47.6465C170.604 47.4125 170.285 47.2955 169.881 47.2955C169.03 47.2955 168.147 47.3487 167.232 47.4551L166.738 47.5029L166.69 46.5934C167.86 46.3594 168.897 46.2424 169.801 46.2424C170.705 46.2424 171.36 46.4498 171.764 46.8647C172.179 47.2796 172.386 47.9284 172.386 48.8113ZM167.472 52.0664C167.472 53.045 167.876 53.5343 168.684 53.5343C169.408 53.5343 170.12 53.412 170.822 53.1673L171.189 53.0397V50.4069L168.828 50.6303C168.349 50.6729 168.004 50.8112 167.791 51.0452C167.578 51.2792 167.472 51.6196 167.472 52.0664ZM179.96 46.2424C180.312 46.2424 180.907 46.3062 181.748 46.4339L182.131 46.4818L182.083 47.4551C181.232 47.3593 180.604 47.3115 180.2 47.3115C179.296 47.3115 178.679 47.5295 178.349 47.9657C178.03 48.3912 177.87 49.189 177.87 50.3591C177.87 51.5186 178.019 52.327 178.317 52.7844C178.626 53.2418 179.258 53.4705 180.216 53.4705L182.099 53.3269L182.146 54.3162C181.157 54.4651 180.418 54.5396 179.929 54.5396C178.684 54.5396 177.822 54.2204 177.344 53.5822C176.876 52.944 176.642 51.8696 176.642 50.3591C176.642 48.8379 176.897 47.7742 177.408 47.1679C177.918 46.5509 178.769 46.2424 179.96 46.2424ZM184.485 54.38H183.288V42.9236H184.485V46.8487C185.336 46.4445 186.155 46.2424 186.942 46.2424C188.006 46.2424 188.718 46.5296 189.08 47.104C189.452 47.6785 189.639 48.6996 189.639 50.1676V54.38H188.442V50.1995C188.442 49.0932 188.33 48.338 188.107 47.9338C187.894 47.5189 187.437 47.3115 186.735 47.3115C186.064 47.3115 185.416 47.4338 184.788 47.6785L184.485 47.7902V54.38ZM196.852 48.8113V52.8961C196.884 53.2897 197.193 53.5237 197.778 53.5982L197.73 54.5396C196.89 54.5396 196.257 54.3268 195.831 53.9013C194.874 54.3268 193.917 54.5396 192.959 54.5396C192.225 54.5396 191.667 54.3321 191.284 53.9173C190.901 53.5024 190.709 52.9067 190.709 52.1302C190.709 51.3537 190.906 50.7846 191.3 50.4229C191.693 50.0506 192.31 49.8219 193.151 49.7368L195.656 49.4975V48.8113C195.656 48.2688 195.539 47.8806 195.305 47.6465C195.071 47.4125 194.752 47.2955 194.347 47.2955C193.496 47.2955 192.613 47.3487 191.699 47.4551L191.204 47.5029L191.156 46.5934C192.326 46.3594 193.363 46.2424 194.268 46.2424C195.172 46.2424 195.826 46.4498 196.23 46.8647C196.645 47.2796 196.852 47.9284 196.852 48.8113ZM191.938 52.0664C191.938 53.045 192.342 53.5343 193.151 53.5343C193.874 53.5343 194.587 53.412 195.289 53.1673L195.656 53.0397V50.4069L193.294 50.6303C192.816 50.6729 192.47 50.8112 192.257 51.0452C192.044 51.2792 191.938 51.6196 191.938 52.0664ZM199.772 54.38H198.575V46.402H199.756V46.9604C200.618 46.4818 201.442 46.2424 202.229 46.2424C203.293 46.2424 204.006 46.5296 204.367 47.104C204.74 47.6785 204.926 48.6996 204.926 50.1676V54.38H203.745V50.1995C203.745 49.0932 203.633 48.338 203.41 47.9338C203.197 47.5189 202.735 47.3115 202.022 47.3115C201.681 47.3115 201.32 47.3647 200.937 47.471C200.565 47.5668 200.277 47.6625 200.075 47.7582L199.772 47.9018V54.38ZM209.491 46.2424C209.842 46.2424 210.438 46.3062 211.278 46.4339L211.661 46.4818L211.613 47.4551C210.762 47.3593 210.135 47.3115 209.73 47.3115C208.826 47.3115 208.209 47.5295 207.879 47.9657C207.56 48.3912 207.401 49.189 207.401 50.3591C207.401 51.5186 207.55 52.327 207.848 52.7844C208.156 53.2418 208.789 53.4705 209.746 53.4705L211.629 53.3269L211.677 54.3162C210.688 54.4651 209.948 54.5396 209.459 54.5396C208.215 54.5396 207.353 54.2204 206.874 53.5822C206.406 52.944 206.172 51.8696 206.172 50.3591C206.172 48.8379 206.427 47.7742 206.938 47.1679C207.449 46.5509 208.3 46.2424 209.491 46.2424ZM218.15 53.3907L218.613 53.3429L218.645 54.2843C217.432 54.4545 216.395 54.5396 215.533 54.5396C214.385 54.5396 213.571 54.2098 213.092 53.5503C212.613 52.8801 212.374 51.843 212.374 50.4389C212.374 47.6412 213.486 46.2424 215.709 46.2424C216.783 46.2424 217.586 46.5456 218.118 47.1519C218.65 47.7476 218.916 48.689 218.916 49.9761L218.852 50.8856H213.587C213.587 51.7685 213.746 52.4227 214.065 52.8482C214.385 53.2737 214.938 53.4865 215.725 53.4865C216.523 53.4865 217.331 53.4546 218.15 53.3907ZM217.719 49.9283C217.719 48.9496 217.56 48.2582 217.241 47.854C216.932 47.4498 216.422 47.2476 215.709 47.2476C215.007 47.2476 214.475 47.4604 214.113 47.8859C213.762 48.3114 213.581 48.9922 213.571 49.9283H217.719ZM227.143 47.4391H224.606V51.2526C224.606 52.1674 224.67 52.7684 224.798 53.0557C224.936 53.3429 225.255 53.4865 225.755 53.4865L227.175 53.3907L227.255 54.38C226.542 54.497 226 54.5555 225.627 54.5555C224.798 54.5555 224.223 54.3534 223.904 53.9492C223.585 53.545 223.425 52.7738 223.425 51.6356V47.4391H222.293V46.402H223.425V43.9607H224.606V46.402H227.143V47.4391ZM227.615 50.375C227.615 48.9177 227.876 47.8646 228.397 47.2157C228.918 46.5669 229.796 46.2424 231.03 46.2424C232.274 46.2424 233.152 46.5669 233.663 47.2157C234.184 47.8646 234.444 48.9177 234.444 50.375C234.444 51.8324 234.2 52.8908 233.71 53.5503C233.221 54.2098 232.328 54.5396 231.03 54.5396C229.732 54.5396 228.839 54.2098 228.349 53.5503C227.86 52.8908 227.615 51.8324 227.615 50.375ZM228.844 50.3591C228.844 51.5186 228.982 52.3323 229.259 52.8004C229.546 53.2684 230.136 53.5024 231.03 53.5024C231.934 53.5024 232.524 53.2737 232.801 52.8163C233.078 52.3483 233.216 51.5292 233.216 50.3591C233.216 49.189 233.062 48.3858 232.753 47.9497C232.445 47.5029 231.87 47.2796 231.03 47.2796C230.2 47.2796 229.626 47.5029 229.307 47.9497C228.998 48.3858 228.844 49.189 228.844 50.3591Z" fill="white"/>
</g>
<defs>
<clipPath id="clip0_6934_182955">
<rect width="300" height="250" fill="white"/>
</clipPath>
</defs>
</svg>
