<svg width="300" height="250" viewBox="0 0 300 250" fill="none" xmlns="http://www.w3.org/2000/svg">
<g clip-path="url(#clip0_6934_182954)">
<path d="M62.3096 44.2479C60.714 44.2479 59.9162 44.8489 59.9162 46.0509C59.9162 46.7211 60.0971 47.1838 60.4587 47.4391C60.831 47.6838 61.5757 47.9338 62.6926 48.1891C63.8201 48.4337 64.6179 48.7582 65.086 49.1624C65.554 49.556 65.7881 50.2102 65.7881 51.125C65.7881 53.3907 64.6126 54.5236 62.2618 54.5236C61.4852 54.5236 60.5119 54.4332 59.3418 54.2524L58.7674 54.1726L58.895 53.1514C60.3417 53.3429 61.4427 53.4386 62.1979 53.4386C63.7723 53.4386 64.5594 52.6993 64.5594 51.2207C64.5594 50.625 64.3839 50.1995 64.0329 49.9442C63.6925 49.6783 63.0489 49.4549 62.1022 49.2741C60.8576 49.0081 59.9747 48.6677 59.4535 48.2529C58.9323 47.8274 58.6717 47.12 58.6717 46.1307C58.6717 44.1522 59.8577 43.1629 62.2299 43.1629C63.0064 43.1629 63.9372 43.2427 65.0222 43.4022L65.5647 43.482L65.453 44.5192C63.9744 44.3383 62.9266 44.2479 62.3096 44.2479ZM66.27 46.402H67.4667L69.0782 53.3429H69.3335L71.2323 46.5615H72.4769L74.3757 53.3429H74.6469L76.2425 46.402H77.4392L75.5404 54.38H73.5459L71.8546 48.1412L70.1633 54.38H68.1687L66.27 46.402ZM78.44 54.38V46.402H79.6367V54.38H78.44ZM78.44 44.5989V43.2108H79.6367V44.5989H78.44ZM85.4247 47.4391H82.8877V51.2526C82.8877 52.1674 82.9515 52.7684 83.0792 53.0557C83.2175 53.3429 83.5366 53.4865 84.0365 53.4865L85.4566 53.3907L85.5364 54.38C84.8237 54.497 84.2812 54.5555 83.9089 54.5555C83.0792 54.5555 82.5048 54.3534 82.1856 53.9492C81.8665 53.545 81.707 52.7738 81.707 51.6356V47.4391H80.5741V46.402H81.707V43.9607H82.8877V46.402H85.4247V47.4391ZM89.2316 46.2424C89.5826 46.2424 90.1783 46.3062 91.0187 46.4339L91.4016 46.4818L91.3538 47.4551C90.5028 47.3593 89.8752 47.3115 89.471 47.3115C88.5668 47.3115 87.9498 47.5295 87.6201 47.9657C87.3009 48.3912 87.1414 49.189 87.1414 50.3591C87.1414 51.5186 87.2903 52.327 87.5881 52.7844C87.8966 53.2418 88.5295 53.4705 89.4869 53.4705L91.3697 53.3269L91.4176 54.3162C90.4283 54.4651 89.689 54.5396 89.1997 54.5396C87.9551 54.5396 87.0935 54.2204 86.6148 53.5822C86.1468 52.944 85.9128 51.8696 85.9128 50.3591C85.9128 48.8379 86.1681 47.7742 86.6786 47.1679C87.1892 46.5509 88.0402 46.2424 89.2316 46.2424ZM93.7559 54.38H92.5592V42.9236H93.7559V46.8487C94.6069 46.4445 95.426 46.2424 96.2131 46.2424C97.2769 46.2424 97.9896 46.5296 98.3512 47.104C98.7236 47.6785 98.9097 48.6996 98.9097 50.1676V54.38H97.713V50.1995C97.713 49.0932 97.6013 48.338 97.3779 47.9338C97.1652 47.5189 96.7078 47.3115 96.0057 47.3115C95.3356 47.3115 94.6867 47.4338 94.0591 47.6785L93.7559 47.7902V54.38ZM107.491 47.4391H104.954V51.2526C104.954 52.1674 105.018 52.7684 105.146 53.0557C105.284 53.3429 105.603 53.4865 106.103 53.4865L107.523 53.3907L107.603 54.38C106.89 54.497 106.348 54.5555 105.976 54.5555C105.146 54.5555 104.571 54.3534 104.252 53.9492C103.933 53.545 103.774 52.7738 103.774 51.6356V47.4391H102.641V46.402H103.774V43.9607H104.954V46.402H107.491V47.4391ZM107.964 50.375C107.964 48.9177 108.224 47.8646 108.745 47.2157C109.267 46.5669 110.144 46.2424 111.378 46.2424C112.623 46.2424 113.5 46.5669 114.011 47.2157C114.532 47.8646 114.793 48.9177 114.793 50.375C114.793 51.8324 114.548 52.8908 114.059 53.5503C113.569 54.2098 112.676 54.5396 111.378 54.5396C110.08 54.5396 109.187 54.2098 108.698 53.5503C108.208 52.8908 107.964 51.8324 107.964 50.375ZM109.192 50.3591C109.192 51.5186 109.33 52.3323 109.607 52.8004C109.894 53.2684 110.485 53.5024 111.378 53.5024C112.282 53.5024 112.873 53.2737 113.149 52.8163C113.426 52.3483 113.564 51.5292 113.564 50.3591C113.564 49.189 113.41 48.3858 113.101 47.9497C112.793 47.5029 112.218 47.2796 111.378 47.2796C110.548 47.2796 109.974 47.5029 109.655 47.9497C109.346 48.3858 109.192 49.189 109.192 50.3591ZM118.208 54.38L121.24 43.3384H123.92L126.952 54.38H125.739L124.942 51.5398H120.219L119.421 54.38H118.208ZM122.165 44.3915L120.49 50.4389H124.67L122.995 44.3915H122.165ZM132.233 49.8325V48.7316H135.281V54.1566C133.94 54.4119 132.744 54.5396 131.691 54.5396C130.084 54.5396 128.968 54.0768 128.34 53.1514C127.723 52.2259 127.414 50.8005 127.414 48.8752C127.414 46.9392 127.723 45.5084 128.34 44.583C128.968 43.6469 130.074 43.1789 131.659 43.1789C132.648 43.1789 133.675 43.2852 134.738 43.498L135.281 43.5937L135.233 44.6149C133.914 44.3915 132.77 44.2798 131.802 44.2798C130.579 44.2798 129.755 44.6362 129.329 45.3489C128.904 46.0509 128.691 47.2264 128.691 48.8752C128.691 50.5133 128.904 51.6887 129.329 52.4015C129.755 53.1035 130.574 53.4546 131.786 53.4546C132.531 53.4546 133.292 53.3801 134.068 53.2312V49.8325H132.233ZM143.135 54.38H137.055V43.3384H138.284V53.279H143.135V54.38ZM148.244 47.4391V54.38H147.048V47.4391H146.042V46.402H147.048V45.684C147.048 44.5564 147.207 43.7905 147.526 43.3863C147.845 42.9714 148.404 42.764 149.202 42.764L150.813 42.8757L150.797 43.865C150.202 43.8437 149.707 43.8331 149.313 43.8331C148.93 43.8331 148.654 43.9607 148.484 44.216C148.324 44.4713 148.244 44.9659 148.244 45.6999V46.402H150.558V47.4391H148.244ZM150.865 50.375C150.865 48.9177 151.126 47.8646 151.647 47.2157C152.168 46.5669 153.046 46.2424 154.28 46.2424C155.525 46.2424 156.402 46.5669 156.913 47.2157C157.434 47.8646 157.695 48.9177 157.695 50.375C157.695 51.8324 157.45 52.8908 156.961 53.5503C156.471 54.2098 155.578 54.5396 154.28 54.5396C152.982 54.5396 152.089 54.2098 151.599 53.5503C151.11 52.8908 150.865 51.8324 150.865 50.375ZM152.094 50.3591C152.094 51.5186 152.232 52.3323 152.509 52.8004C152.796 53.2684 153.386 53.5024 154.28 53.5024C155.184 53.5024 155.775 53.2737 156.051 52.8163C156.328 52.3483 156.466 51.5292 156.466 50.3591C156.466 49.189 156.312 48.3858 156.003 47.9497C155.695 47.5029 155.12 47.2796 154.28 47.2796C153.45 47.2796 152.876 47.5029 152.557 47.9497C152.248 48.3858 152.094 49.189 152.094 50.3591ZM159.008 54.38V46.402H160.189V47.487C161.114 46.8487 162.088 46.4286 163.109 46.2265V47.4391C162.662 47.5242 162.194 47.6572 161.705 47.838C161.226 48.0189 160.859 48.1784 160.604 48.3167L160.205 48.5241V54.38H159.008ZM172.386 48.8113V52.8961C172.418 53.2897 172.726 53.5237 173.312 53.5982L173.264 54.5396C172.423 54.5396 171.79 54.3268 171.365 53.9013C170.408 54.3268 169.45 54.5396 168.493 54.5396C167.759 54.5396 167.2 54.3321 166.817 53.9173C166.434 53.5024 166.243 52.9067 166.243 52.1302C166.243 51.3537 166.44 50.7846 166.833 50.4229C167.227 50.0506 167.844 49.8219 168.684 49.7368L171.189 49.4975V48.8113C171.189 48.2688 171.072 47.8806 170.838 47.6465C170.604 47.4125 170.285 47.2955 169.881 47.2955C169.03 47.2955 168.147 47.3487 167.232 47.4551L166.738 47.5029L166.69 46.5934C167.86 46.3594 168.897 46.2424 169.801 46.2424C170.705 46.2424 171.36 46.4498 171.764 46.8647C172.179 47.2796 172.386 47.9284 172.386 48.8113ZM167.472 52.0664C167.472 53.045 167.876 53.5343 168.684 53.5343C169.408 53.5343 170.12 53.412 170.822 53.1673L171.189 53.0397V50.4069L168.828 50.6303C168.349 50.6729 168.004 50.8112 167.791 51.0452C167.578 51.2792 167.472 51.6196 167.472 52.0664ZM179.96 46.2424C180.312 46.2424 180.907 46.3062 181.748 46.4339L182.131 46.4818L182.083 47.4551C181.232 47.3593 180.604 47.3115 180.2 47.3115C179.296 47.3115 178.679 47.5295 178.349 47.9657C178.03 48.3912 177.87 49.189 177.87 50.3591C177.87 51.5186 178.019 52.327 178.317 52.7844C178.626 53.2418 179.258 53.4705 180.216 53.4705L182.099 53.3269L182.146 54.3162C181.157 54.4651 180.418 54.5396 179.929 54.5396C178.684 54.5396 177.822 54.2204 177.344 53.5822C176.876 52.944 176.642 51.8696 176.642 50.3591C176.642 48.8379 176.897 47.7742 177.408 47.1679C177.918 46.5509 178.769 46.2424 179.96 46.2424ZM184.485 54.38H183.288V42.9236H184.485V46.8487C185.336 46.4445 186.155 46.2424 186.942 46.2424C188.006 46.2424 188.718 46.5296 189.08 47.104C189.452 47.6785 189.639 48.6996 189.639 50.1676V54.38H188.442V50.1995C188.442 49.0932 188.33 48.338 188.107 47.9338C187.894 47.5189 187.437 47.3115 186.735 47.3115C186.064 47.3115 185.416 47.4338 184.788 47.6785L184.485 47.7902V54.38ZM196.852 48.8113V52.8961C196.884 53.2897 197.193 53.5237 197.778 53.5982L197.73 54.5396C196.89 54.5396 196.257 54.3268 195.831 53.9013C194.874 54.3268 193.917 54.5396 192.959 54.5396C192.225 54.5396 191.667 54.3321 191.284 53.9173C190.901 53.5024 190.709 52.9067 190.709 52.1302C190.709 51.3537 190.906 50.7846 191.3 50.4229C191.693 50.0506 192.31 49.8219 193.151 49.7368L195.656 49.4975V48.8113C195.656 48.2688 195.539 47.8806 195.305 47.6465C195.071 47.4125 194.752 47.2955 194.347 47.2955C193.496 47.2955 192.613 47.3487 191.699 47.4551L191.204 47.5029L191.156 46.5934C192.326 46.3594 193.363 46.2424 194.268 46.2424C195.172 46.2424 195.826 46.4498 196.23 46.8647C196.645 47.2796 196.852 47.9284 196.852 48.8113ZM191.938 52.0664C191.938 53.045 192.342 53.5343 193.151 53.5343C193.874 53.5343 194.587 53.412 195.289 53.1673L195.656 53.0397V50.4069L193.294 50.6303C192.816 50.6729 192.47 50.8112 192.257 51.0452C192.044 51.2792 191.938 51.6196 191.938 52.0664ZM199.772 54.38H198.575V46.402H199.756V46.9604C200.618 46.4818 201.442 46.2424 202.229 46.2424C203.293 46.2424 204.006 46.5296 204.367 47.104C204.74 47.6785 204.926 48.6996 204.926 50.1676V54.38H203.745V50.1995C203.745 49.0932 203.633 48.338 203.41 47.9338C203.197 47.5189 202.735 47.3115 202.022 47.3115C201.681 47.3115 201.32 47.3647 200.937 47.471C200.565 47.5668 200.277 47.6625 200.075 47.7582L199.772 47.9018V54.38ZM209.491 46.2424C209.842 46.2424 210.438 46.3062 211.278 46.4339L211.661 46.4818L211.613 47.4551C210.762 47.3593 210.135 47.3115 209.73 47.3115C208.826 47.3115 208.209 47.5295 207.879 47.9657C207.56 48.3912 207.401 49.189 207.401 50.3591C207.401 51.5186 207.55 52.327 207.848 52.7844C208.156 53.2418 208.789 53.4705 209.746 53.4705L211.629 53.3269L211.677 54.3162C210.688 54.4651 209.948 54.5396 209.459 54.5396C208.215 54.5396 207.353 54.2204 206.874 53.5822C206.406 52.944 206.172 51.8696 206.172 50.3591C206.172 48.8379 206.427 47.7742 206.938 47.1679C207.449 46.5509 208.3 46.2424 209.491 46.2424ZM218.15 53.3907L218.613 53.3429L218.645 54.2843C217.432 54.4545 216.395 54.5396 215.533 54.5396C214.385 54.5396 213.571 54.2098 213.092 53.5503C212.613 52.8801 212.374 51.843 212.374 50.4389C212.374 47.6412 213.486 46.2424 215.709 46.2424C216.783 46.2424 217.586 46.5456 218.118 47.1519C218.65 47.7476 218.916 48.689 218.916 49.9761L218.852 50.8856H213.587C213.587 51.7685 213.746 52.4227 214.065 52.8482C214.385 53.2737 214.938 53.4865 215.725 53.4865C216.523 53.4865 217.331 53.4546 218.15 53.3907ZM217.719 49.9283C217.719 48.9496 217.56 48.2582 217.241 47.854C216.932 47.4498 216.422 47.2476 215.709 47.2476C215.007 47.2476 214.475 47.4604 214.113 47.8859C213.762 48.3114 213.581 48.9922 213.571 49.9283H217.719ZM227.143 47.4391H224.606V51.2526C224.606 52.1674 224.67 52.7684 224.798 53.0557C224.936 53.3429 225.255 53.4865 225.755 53.4865L227.175 53.3907L227.255 54.38C226.542 54.497 226 54.5555 225.627 54.5555C224.798 54.5555 224.223 54.3534 223.904 53.9492C223.585 53.545 223.425 52.7738 223.425 51.6356V47.4391H222.293V46.402H223.425V43.9607H224.606V46.402H227.143V47.4391ZM227.615 50.375C227.615 48.9177 227.876 47.8646 228.397 47.2157C228.918 46.5669 229.796 46.2424 231.03 46.2424C232.274 46.2424 233.152 46.5669 233.663 47.2157C234.184 47.8646 234.444 48.9177 234.444 50.375C234.444 51.8324 234.2 52.8908 233.71 53.5503C233.221 54.2098 232.328 54.5396 231.03 54.5396C229.732 54.5396 228.839 54.2098 228.349 53.5503C227.86 52.8908 227.615 51.8324 227.615 50.375ZM228.844 50.3591C228.844 51.5186 228.982 52.3323 229.259 52.8004C229.546 53.2684 230.136 53.5024 231.03 53.5024C231.934 53.5024 232.524 53.2737 232.801 52.8163C233.078 52.3483 233.216 51.5292 233.216 50.3591C233.216 49.189 233.062 48.3858 232.753 47.9497C232.445 47.5029 231.87 47.2796 231.03 47.2796C230.2 47.2796 229.626 47.5029 229.307 47.9497C228.998 48.3858 228.844 49.189 228.844 50.3591Z" fill="white"/>
<path fill-rule="evenodd" clip-rule="evenodd" d="M69.6768 86.4465H70.3887L76.1797 59.7707H83.7744L89.5654 86.4465H90.2773L94.2637 59.7707H101.146L94.9756 92.0471H85.0557L79.9766 67.508L74.8984 92.0471H64.9785L58.8076 59.7707H65.6904L69.6768 86.4465ZM109.723 92.0471H103.173V59.7707H109.723V92.0471ZM131.326 86.3517H131.801V59.7707H138.351V92.0471H127.576L119.507 65.467H119.032V92.0471H112.482V59.7707H123.542L131.326 86.3517Z" fill="#00DFED"/>
<path fill-rule="evenodd" clip-rule="evenodd" d="M179.327 67.7214C183.251 67.7214 186.051 68.8134 187.729 70.9968C189.406 73.1485 190.244 76.1863 190.244 80.11C190.244 88.4322 186.605 92.5934 179.327 92.5934C172.049 92.5934 168.41 88.4322 168.41 80.11C168.41 76.1863 169.249 73.1485 170.926 70.9968C172.603 68.8134 175.403 67.7214 179.327 67.7214ZM234.324 64.3503H219.413L218.585 72.8288C220.794 71.8218 222.97 71.3181 225.114 71.3181C232.001 71.3181 235.445 74.5344 235.445 80.9665C235.445 84.6047 234.487 87.3992 232.57 89.3483C230.686 91.2974 228.005 92.2721 224.529 92.2722C223.068 92.2721 221.411 92.126 219.56 91.8337C217.708 91.5738 216.229 91.3142 215.125 91.0544L213.468 90.6149L214.053 86.5222C217.886 87.1719 221.168 87.4968 223.896 87.4968C225.78 87.4967 227.243 86.9766 228.282 85.9372C229.322 84.8977 229.841 83.419 229.841 81.5026C229.841 79.5862 229.386 78.2057 228.477 77.361C227.567 76.5165 226.382 76.0936 224.92 76.0934C222.289 76.0934 220.144 76.4184 218.487 77.0681L217.61 77.4099L214.199 76.6784L215.076 59.5739H234.324V64.3503ZM202.026 58.2282C203.165 58.2282 204.637 58.3864 206.44 58.7028L207.438 58.8454L207.343 64.0192C205.951 63.9559 204.779 63.9245 203.83 63.9245C202.881 63.9245 202.248 64.178 201.932 64.6843C201.615 65.1906 201.457 66.0607 201.457 67.2946V68.2907H207.2V73.7018H201.457V92.0241H195.097V73.7018H192.533V68.2907H195.097V67.2468C195.097 63.8294 195.603 61.4719 196.615 60.1745C197.628 58.8772 199.432 58.2282 202.026 58.2282ZM160.273 91.736H154.864V65.7145L147.312 70.5876L144.826 66.5427L155.303 59.5739H160.273V91.736ZM179.327 73.1325C177.65 73.1325 176.479 73.6862 175.814 74.7936C175.182 75.9012 174.865 77.6735 174.865 80.11C174.865 82.5463 175.182 84.3342 175.814 85.4733C176.479 86.6124 177.65 87.1823 179.327 87.1823C181.004 87.1823 182.159 86.6124 182.792 85.4733C183.456 84.3342 183.789 82.5464 183.789 80.11C183.789 77.6736 183.456 75.9012 182.792 74.7936C182.159 73.6864 181.004 73.1326 179.327 73.1325Z" fill="white"/>
<rect width="184.188" height="43.0202" transform="translate(57.9058 96.3698)" fill="white" fill-opacity="0.01"/>
<path d="M72.4015 115.653C72.4015 117.872 71.7296 119.557 70.3858 120.709C69.042 121.839 67.2823 122.404 65.1066 122.404H65.0746L64.5947 126.18C63.0162 126.116 62.227 126.041 62.227 125.956L62.6749 122.244C61.0965 122.053 59.774 121.829 58.7075 121.573L58.0676 121.445L58.4836 118.117C60.1687 118.352 61.7258 118.512 63.1549 118.597L63.8588 113.03C61.6618 112.369 60.1047 111.569 59.1875 110.63C58.2703 109.692 57.8117 108.412 57.8117 106.791C57.8117 104.679 58.4516 103.111 59.7314 102.087C61.0112 101.042 62.7709 100.52 65.0106 100.52H65.4265L66.0024 96.1044H68.3701L67.7942 100.712C69.1166 100.84 70.3325 101.01 71.4416 101.224L71.9855 101.352L71.6336 104.743C70.0765 104.572 68.6367 104.444 67.3142 104.359L66.6743 109.51C68.8927 110.214 70.3965 110.993 71.1857 111.846C71.9962 112.678 72.4015 113.947 72.4015 115.653ZM62.067 106.503C62.067 107.015 62.227 107.431 62.547 107.751C62.8669 108.071 63.4855 108.401 64.4027 108.742L64.9466 104.295C63.0269 104.38 62.067 105.116 62.067 106.503ZM68.1461 115.941C68.1461 115.429 67.9968 115.014 67.6982 114.694C67.4209 114.352 66.909 114.032 66.1624 113.734L65.5545 118.629C67.2823 118.437 68.1461 117.541 68.1461 115.941Z" fill="#FFE344"/>
<path fill-rule="evenodd" clip-rule="evenodd" d="M132.626 143.762H129.177L130.774 135.457H135.501L132.626 143.762ZM114.488 96.8317C119.905 96.8317 123.979 98.5807 126.709 102.079C129.482 105.577 130.868 111.208 130.868 118.972C130.868 126.694 129.504 132.24 126.774 135.61C124.043 138.937 119.948 140.601 114.488 140.601C109.027 140.601 104.932 138.937 102.201 135.61C99.4712 132.24 98.1057 126.694 98.1057 118.972C98.1057 111.208 99.4712 105.577 102.201 102.079C104.974 98.5806 109.07 96.8317 114.488 96.8317ZM151.652 96.8317C157.069 96.8317 161.144 98.5806 163.874 102.079C166.647 105.577 168.033 111.208 168.033 118.972C168.033 126.694 166.668 132.24 163.938 135.61C161.207 138.937 157.112 140.601 151.652 140.601C146.191 140.601 142.096 138.937 139.365 135.61C136.635 132.24 135.271 126.694 135.271 118.972C135.271 111.208 136.635 105.577 139.365 102.079C142.138 98.5807 146.234 96.8318 151.652 96.8317ZM186.82 96.8317C192.237 96.8317 196.311 98.5807 199.041 102.079C201.814 105.577 203.2 111.208 203.2 118.972C203.2 126.694 201.836 132.24 199.106 135.61C196.376 138.937 192.28 140.601 186.82 140.601C181.359 140.601 177.264 138.937 174.533 135.61C171.803 132.24 170.438 126.694 170.438 118.972C170.438 111.208 171.803 105.577 174.533 102.079C177.306 98.5806 181.402 96.8317 186.82 96.8317ZM221.987 96.8317C227.404 96.8317 231.478 98.5807 234.208 102.079C236.981 105.577 238.368 111.208 238.368 118.972C238.368 126.694 237.003 132.24 234.273 135.61C231.542 138.937 227.447 140.601 221.987 140.601C216.526 140.601 212.431 138.937 209.7 135.61C206.97 132.24 205.605 126.694 205.605 118.972C205.605 111.208 206.97 105.577 209.7 102.079C212.473 98.5806 216.569 96.8317 221.987 96.8317ZM95.1897 139.833H86.3586V107.582L77.2083 113.468L73.177 106.878L87.1272 97.5992H95.1897V139.833ZM114.488 104.51C111.885 104.51 110.008 105.577 108.856 107.71C107.747 109.843 107.193 113.533 107.193 118.78C107.193 124.027 107.768 127.696 108.92 129.787C110.072 131.877 111.949 132.921 114.551 132.922C117.153 132.922 119.009 131.877 120.118 129.787C121.228 127.696 121.782 124.027 121.782 118.78C121.782 113.49 121.228 109.8 120.118 107.71C119.009 105.577 117.132 104.51 114.488 104.51ZM151.652 104.51C149.05 104.51 147.173 105.577 146.021 107.71C144.912 109.843 144.357 113.533 144.357 118.78C144.357 124.027 144.933 127.696 146.085 129.787C147.237 131.877 149.114 132.922 151.716 132.922C154.318 132.922 156.174 131.877 157.283 129.787C158.393 127.696 158.947 124.027 158.947 118.78C158.947 113.49 158.393 109.8 157.283 107.71C156.174 105.577 154.297 104.51 151.652 104.51ZM186.82 104.51C184.217 104.51 182.34 105.577 181.188 107.71C180.079 109.843 179.525 113.533 179.525 118.78C179.525 124.027 180.1 127.696 181.252 129.787C182.404 131.877 184.281 132.921 186.883 132.922C189.485 132.922 191.341 131.877 192.45 129.787C193.56 127.696 194.115 124.027 194.115 118.78C194.114 113.49 193.56 109.8 192.45 107.71C191.341 105.577 189.464 104.51 186.82 104.51ZM221.987 104.51C219.384 104.51 217.508 105.577 216.356 107.71C215.247 109.843 214.692 113.533 214.692 118.78C214.692 124.027 215.267 127.696 216.419 129.787C217.571 131.877 219.448 132.921 222.05 132.922C224.652 132.922 226.508 131.877 227.617 129.787C228.727 127.696 229.281 124.027 229.281 118.78C229.281 113.49 228.727 109.8 227.617 107.71C226.508 105.577 224.631 104.51 221.987 104.51Z" fill="#FFE344"/>
<rect width="179" height="17" transform="translate(57.9058 145.315)" fill="white" fill-opacity="0.01"/>
<path d="M68.6732 160.019L69.3876 159.942L69.4387 162.009C67.4995 162.4 65.7815 162.596 64.2846 162.596C62.3964 162.596 61.0356 162.077 60.2021 161.039C59.3856 160.002 58.9774 158.343 58.9774 156.064C58.9774 151.539 60.823 149.277 64.5142 149.277C68.0864 149.277 69.8724 151.224 69.8724 155.12L69.6938 157.11H61.7841C61.8011 158.164 62.0307 158.938 62.473 159.432C62.9153 159.925 63.7403 160.172 64.948 160.172C66.1557 160.172 67.3974 160.121 68.6732 160.019ZM67.1423 154.967C67.1423 153.708 66.9382 152.832 66.5299 152.338C66.1387 151.828 65.4668 151.573 64.5142 151.573C63.5616 151.573 62.8642 151.837 62.422 152.364C61.9967 152.891 61.7756 153.759 61.7586 154.967H67.1423ZM74.5624 162.315H71.7813V149.557H74.5369V150.348C75.7787 149.634 76.9524 149.277 78.058 149.277C79.7591 149.277 80.9157 149.761 81.5281 150.731C82.1575 151.684 82.4722 153.266 82.4722 155.477V162.315H79.7165V155.553C79.7165 154.176 79.5634 153.197 79.2573 152.619C78.9681 152.041 78.3642 151.752 77.4457 151.752C76.5782 151.752 75.7447 151.922 74.9452 152.262L74.5624 152.415V162.315ZM94.028 160.019L94.7424 159.942L94.7935 162.009C92.8543 162.4 91.1363 162.596 89.6394 162.596C87.7512 162.596 86.3904 162.077 85.5569 161.039C84.7404 160.002 84.3322 158.343 84.3322 156.064C84.3322 151.539 86.1778 149.277 89.869 149.277C93.4411 149.277 95.2272 151.224 95.2272 155.12L95.0486 157.11H87.1389C87.1559 158.164 87.3855 158.938 87.8278 159.432C88.2701 159.925 89.095 160.172 90.3028 160.172C91.5105 160.172 92.7522 160.121 94.028 160.019ZM92.4971 154.967C92.4971 153.708 92.293 152.832 91.8847 152.338C91.4935 151.828 90.8216 151.573 89.869 151.573C88.9164 151.573 88.219 151.837 87.7768 152.364C87.3515 152.891 87.1304 153.759 87.1134 154.967H92.4971ZM97.1361 162.315V149.557H99.8917V151.088C101.338 150.153 102.783 149.549 104.229 149.277V152.058C102.766 152.347 101.516 152.721 100.479 153.18L99.9172 153.41V162.315H97.1361ZM116.665 164.05C116.665 166.84 114.65 168.234 110.618 168.234C108.679 168.234 107.242 167.971 106.306 167.444C105.371 166.916 104.903 165.955 104.903 164.56C104.903 163.931 105.056 163.387 105.362 162.927C105.668 162.485 106.162 162 106.842 161.473C106.281 161.099 106 160.478 106 159.61C106 159.27 106.23 158.717 106.689 157.952L106.919 157.569C105.694 156.838 105.081 155.562 105.081 153.742C105.081 152.211 105.541 151.088 106.459 150.374C107.378 149.659 108.62 149.302 110.185 149.302C110.933 149.302 111.673 149.387 112.404 149.557L112.787 149.634L116.742 149.532V151.777L114.624 151.65C115.083 152.245 115.313 152.942 115.313 153.742C115.313 155.409 114.888 156.566 114.037 157.212C113.204 157.841 111.894 158.156 110.108 158.156C109.666 158.156 109.292 158.122 108.985 158.054C108.747 158.632 108.628 159.083 108.628 159.406C108.628 159.712 108.781 159.925 109.087 160.044C109.411 160.163 110.176 160.231 111.384 160.248C113.408 160.265 114.794 160.537 115.543 161.065C116.291 161.592 116.665 162.587 116.665 164.05ZM107.633 164.305C107.633 164.9 107.871 165.326 108.347 165.581C108.824 165.836 109.64 165.964 110.797 165.964C112.855 165.964 113.884 165.377 113.884 164.203C113.884 163.54 113.697 163.114 113.323 162.927C112.966 162.757 112.243 162.664 111.154 162.647L108.654 162.494C108.279 162.8 108.016 163.08 107.863 163.336C107.71 163.608 107.633 163.931 107.633 164.305ZM107.837 153.742C107.837 154.524 108.024 155.103 108.398 155.477C108.773 155.834 109.377 156.013 110.21 156.013C111.044 156.013 111.639 155.834 111.996 155.477C112.37 155.103 112.557 154.524 112.557 153.742C112.557 152.959 112.37 152.39 111.996 152.032C111.622 151.658 111.018 151.471 110.185 151.471C108.62 151.471 107.837 152.228 107.837 153.742ZM116.982 149.557H119.712L122.416 159.942H123.105L125.81 149.557H128.566L123.718 167.801H120.987L122.518 162.315H120.324L116.982 149.557ZM140.734 149.277C142.486 149.277 143.745 149.77 144.51 150.757C145.293 151.726 145.684 153.453 145.684 155.936C145.684 158.42 145.225 160.155 144.306 161.141C143.388 162.111 141.772 162.596 139.458 162.596C138.659 162.596 137.392 162.519 135.657 162.366L134.789 162.289V144.25H137.545V150.042C138.718 149.532 139.782 149.277 140.734 149.277ZM139.458 160.121C140.819 160.121 141.721 159.806 142.163 159.177C142.622 158.53 142.852 157.442 142.852 155.911C142.852 154.38 142.656 153.308 142.265 152.696C141.891 152.066 141.27 151.752 140.402 151.752C139.586 151.752 138.769 151.879 137.953 152.134L137.545 152.262V160.019C138.48 160.087 139.118 160.121 139.458 160.121ZM147.703 162.315V149.557H150.484V162.315H147.703ZM147.703 147.389V144.454H150.484V147.389H147.703ZM153.245 162.315V144.25H156.027V162.315H153.245ZM158.933 162.315V144.25H161.715V162.315H158.933ZM174.081 149.277C174.982 149.277 176.045 149.396 177.27 149.634L177.908 149.761L177.806 151.956C176.462 151.82 175.467 151.752 174.821 151.752C173.528 151.752 172.66 152.041 172.218 152.619C171.776 153.197 171.555 154.286 171.555 155.885C171.555 157.484 171.767 158.59 172.193 159.202C172.618 159.814 173.502 160.121 174.846 160.121L177.831 159.917L177.908 162.136C176.19 162.443 174.897 162.596 174.03 162.596C172.091 162.596 170.721 162.077 169.922 161.039C169.139 159.985 168.748 158.267 168.748 155.885C168.748 153.504 169.165 151.811 169.998 150.808C170.832 149.787 172.193 149.277 174.081 149.277ZM179.831 162.315V149.557H182.587V151.088C184.033 150.153 185.479 149.549 186.925 149.277V152.058C185.462 152.347 184.212 152.721 183.174 153.18L182.613 153.41V162.315H179.831ZM197.269 160.019L197.984 159.942L198.035 162.009C196.095 162.4 194.377 162.596 192.881 162.596C190.992 162.596 189.632 162.077 188.798 161.039C187.982 160.002 187.573 158.343 187.573 156.064C187.573 151.539 189.419 149.277 193.11 149.277C196.682 149.277 198.468 151.224 198.468 155.12L198.29 157.11H190.38C190.397 158.164 190.627 158.938 191.069 159.432C191.511 159.925 192.336 160.172 193.544 160.172C194.752 160.172 195.993 160.121 197.269 160.019ZM195.738 154.967C195.738 153.708 195.534 152.832 195.126 152.338C194.735 151.828 194.063 151.573 193.11 151.573C192.158 151.573 191.46 151.837 191.018 152.364C190.593 152.891 190.372 153.759 190.354 154.967H195.738ZM210.787 144.25V162.315H208.032V161.652C206.79 162.281 205.65 162.596 204.613 162.596C202.946 162.596 201.721 162.094 200.939 161.09C200.173 160.087 199.79 158.403 199.79 156.038C199.79 153.674 200.216 151.956 201.066 150.884C201.934 149.812 203.277 149.277 205.098 149.277C205.71 149.277 206.679 149.387 208.006 149.608V144.25H210.787ZM207.573 159.661L208.006 159.483V151.93C206.986 151.76 206.042 151.675 205.174 151.675C203.456 151.675 202.597 153.104 202.597 155.962C202.597 157.527 202.793 158.615 203.184 159.228C203.592 159.823 204.23 160.121 205.098 160.121C205.965 160.121 206.79 159.968 207.573 159.661ZM212.37 162.315V149.557H215.152V162.315H212.37ZM212.37 147.389V144.454H215.152V147.389H212.37ZM224.623 151.93H221.102V157.544C221.102 158.581 221.179 159.27 221.332 159.61C221.485 159.951 221.876 160.121 222.505 160.121L224.598 160.044L224.725 162.264C223.585 162.485 222.718 162.596 222.123 162.596C220.677 162.596 219.682 162.264 219.137 161.601C218.61 160.937 218.346 159.687 218.346 157.85V151.93H216.713V149.557H218.346V145.858H221.102V149.557H224.623V151.93ZM234.992 152.185C232.985 151.913 231.531 151.777 230.629 151.777C229.728 151.777 229.098 151.888 228.741 152.109C228.401 152.313 228.231 152.645 228.231 153.104C228.231 153.563 228.418 153.886 228.792 154.074C229.183 154.261 230.085 154.482 231.497 154.737C232.926 154.975 233.938 155.358 234.533 155.885C235.129 156.412 235.426 157.348 235.426 158.692C235.426 160.036 234.992 161.022 234.125 161.652C233.274 162.281 232.024 162.596 230.374 162.596C229.337 162.596 228.027 162.451 226.445 162.162L225.654 162.034L225.756 159.712C227.797 159.985 229.269 160.121 230.17 160.121C231.072 160.121 231.71 160.01 232.084 159.789C232.475 159.568 232.671 159.202 232.671 158.692C232.671 158.181 232.483 157.833 232.109 157.646C231.752 157.442 230.876 157.229 229.481 157.008C228.103 156.77 227.091 156.404 226.445 155.911C225.798 155.417 225.475 154.516 225.475 153.206C225.475 151.896 225.918 150.918 226.802 150.272C227.704 149.625 228.852 149.302 230.247 149.302C231.335 149.302 232.671 149.438 234.253 149.71L235.044 149.863L234.992 152.185Z" fill="#FFE344"/>
<path d="M240.454 148.402H238.509L239.106 150.27L238.157 150.561L237.53 148.678L235.922 149.887L235.31 149.107L236.948 147.897L235.356 146.764L235.953 145.938L237.53 147.086L238.142 145.203L239.122 145.524L238.525 147.423H240.454V148.402Z" fill="#FFE344"/>
</g>
<defs>
<clipPath id="clip0_6934_182954">
<rect width="300" height="250" fill="white"/>
</clipPath>
</defs>
</svg>
