<svg width="300" height="250" viewBox="0 0 300 250" fill="none" xmlns="http://www.w3.org/2000/svg">
<g clip-path="url(#clip0_6934_182952)">
<path fill-rule="evenodd" clip-rule="evenodd" d="M69.6768 86.4465H70.3887L76.1797 59.7707H83.7744L89.5654 86.4465H90.2773L94.2637 59.7707H101.146L94.9756 92.0471H85.0557L79.9766 67.508L74.8984 92.0471H64.9785L58.8076 59.7707H65.6904L69.6768 86.4465ZM109.723 92.0471H103.173V59.7707H109.723V92.0471ZM131.326 86.3517H131.801V59.7707H138.351V92.0471H127.576L119.507 65.467H119.032V92.0471H112.482V59.7707H123.542L131.326 86.3517Z" fill="#00DFED"/>
<path fill-rule="evenodd" clip-rule="evenodd" d="M179.327 67.7214C183.251 67.7214 186.051 68.8134 187.729 70.9968C189.406 73.1485 190.244 76.1863 190.244 80.11C190.244 88.4322 186.605 92.5934 179.327 92.5934C172.049 92.5934 168.41 88.4322 168.41 80.11C168.41 76.1863 169.249 73.1485 170.926 70.9968C172.603 68.8134 175.403 67.7214 179.327 67.7214ZM234.324 64.3503H219.413L218.585 72.8288C220.794 71.8218 222.97 71.3181 225.114 71.3181C232.001 71.3181 235.445 74.5344 235.445 80.9665C235.445 84.6047 234.487 87.3992 232.57 89.3483C230.686 91.2974 228.005 92.2721 224.529 92.2722C223.068 92.2721 221.411 92.126 219.56 91.8337C217.708 91.5738 216.229 91.3142 215.125 91.0544L213.468 90.6149L214.053 86.5222C217.886 87.1719 221.168 87.4968 223.896 87.4968C225.78 87.4967 227.243 86.9766 228.282 85.9372C229.322 84.8977 229.841 83.419 229.841 81.5026C229.841 79.5862 229.386 78.2057 228.477 77.361C227.567 76.5165 226.382 76.0936 224.92 76.0934C222.289 76.0934 220.144 76.4184 218.487 77.0681L217.61 77.4099L214.199 76.6784L215.076 59.5739H234.324V64.3503ZM202.026 58.2282C203.165 58.2282 204.637 58.3864 206.44 58.7028L207.438 58.8454L207.343 64.0192C205.951 63.9559 204.779 63.9245 203.83 63.9245C202.881 63.9245 202.248 64.178 201.932 64.6843C201.615 65.1906 201.457 66.0607 201.457 67.2946V68.2907H207.2V73.7018H201.457V92.0241H195.097V73.7018H192.533V68.2907H195.097V67.2468C195.097 63.8294 195.603 61.4719 196.615 60.1745C197.628 58.8772 199.432 58.2282 202.026 58.2282ZM160.273 91.736H154.864V65.7145L147.312 70.5876L144.826 66.5427L155.303 59.5739H160.273V91.736ZM179.327 73.1325C177.65 73.1325 176.479 73.6862 175.814 74.7936C175.182 75.9012 174.865 77.6735 174.865 80.11C174.865 82.5463 175.182 84.3342 175.814 85.4733C176.479 86.6124 177.65 87.1823 179.327 87.1823C181.004 87.1823 182.159 86.6124 182.792 85.4733C183.456 84.3342 183.789 82.5464 183.789 80.11C183.789 77.6736 183.456 75.9012 182.792 74.7936C182.159 73.6864 181.004 73.1326 179.327 73.1325Z" fill="white"/>
</g>
<defs>
<clipPath id="clip0_6934_182952">
<rect width="300" height="250" fill="white"/>
</clipPath>
</defs>
</svg>
