<svg width="65" height="67" viewBox="0 0 65 67" fill="none" xmlns="http://www.w3.org/2000/svg">
<g clip-path="url(#clip0_16733_108749)">
<path d="M21.5576 45.6158L33.3019 36.0597L33.3021 36.0578C34.621 34.9262 34.8093 32.9419 33.7051 31.5848C32.6009 30.2276 30.62 30.0086 29.2439 31.0722L29.2441 31.0703L17.517 40.6107C17.5107 40.6159 17.5043 40.621 17.4981 40.6243C16.1199 41.7459 15.912 43.7709 17.0334 45.1493C18.1549 46.5276 20.1796 46.7356 21.5578 45.6139L21.5576 45.6158Z" fill="#7F93AA"/>
<path d="M28.0889 14.3643V33.6473H28.0927C28.1353 35.3869 29.5562 36.7844 31.3057 36.7844C33.0552 36.7844 34.4761 35.3869 34.5186 33.6473H34.5225V14.3875C34.5225 14.3875 34.5225 14.3721 34.5225 14.3624C34.5225 12.586 33.0823 11.146 31.3057 11.146C29.5291 11.146 28.0889 12.586 28.0889 14.3624V14.3643Z" fill="#7F93AA"/>
<path d="M25.5991 27.9315V39.3513H37.0088V27.9315H25.5991Z" fill="#7F93AA"/>
<path d="M28.0872 30.4211V36.8597H34.5189V30.4211H28.0872Z" fill="#FBD603"/>
<path d="M20.5665 7.30906L18.672 3.21704C17.2124 3.89357 15.7896 4.68607 14.4441 5.57522L16.9302 9.33671C18.0862 8.5732 19.3099 7.89087 20.5665 7.30906Z" fill="#7F93AA"/>
<path d="M13.6365 11.8863L10.6169 8.5365C9.42023 9.61508 8.29511 10.7922 7.27246 12.0351L10.7561 14.8997C11.6376 13.8289 12.6061 12.816 13.6365 11.8863Z" fill="#7F93AA"/>
<path d="M60.518 16.9776C59.7428 15.5684 58.8516 14.2038 57.8715 12.9242L54.2913 15.6651C55.1341 16.7669 55.9016 17.9402 56.5685 19.1521L60.52 16.9776H60.518Z" fill="#4C6888"/>
<path d="M44.7455 7.73242L46.783 3.70999C45.3428 2.98127 43.8369 2.35693 42.3058 1.85437L40.8984 6.13775C42.213 6.57073 43.5082 7.10615 44.7455 7.73242Z" fill="#4C6888"/>
<path d="M51.517 12.5531L54.6507 9.31155C53.4927 8.19238 52.24 7.15053 50.9274 6.21692L48.3118 9.88949C49.4407 10.6936 50.5195 11.5905 51.517 12.555V12.5531Z" fill="#4C6888"/>
<path d="M4.4845 15.9938C3.6571 17.3797 2.92829 18.8371 2.31934 20.3293L6.49501 22.0342C7.0189 20.7527 7.64525 19.4982 8.35666 18.3075L4.4845 15.9957V15.9938Z" fill="#B2BECC"/>
<path d="M36.8554 5.13837L37.6016 0.690689C36.0183 0.423944 34.3964 0.275108 32.7822 0.248047L32.7048 4.75565C34.0967 4.77884 35.4925 4.90835 36.8554 5.13644V5.13837Z" fill="#7F93AA"/>
<path d="M28.5409 4.99541L27.9494 0.524536C26.3506 0.735226 24.7558 1.06962 23.2092 1.51806L24.4658 5.84784C25.7939 5.46318 27.1665 5.17518 28.5409 4.99348V4.99541Z" fill="#7F93AA"/>
<path d="M6.25169 42.3958L2.03735 44.0001C2.60958 45.5039 3.30165 46.9787 4.09619 48.382L8.02248 46.163C7.34007 44.9569 6.74465 43.6889 6.25362 42.3958H6.25169Z" fill="#B2BECC"/>
<path d="M63.8504 26.0431C63.5276 24.462 63.0829 22.8944 62.5262 21.3828L58.2944 22.9388C58.7719 24.2378 59.1547 25.585 59.4311 26.9439L63.8504 26.0431Z" fill="#4C6888"/>
<path d="M16.3775 55.3367L13.8025 59.0382C15.1267 59.9603 16.5302 60.7875 17.9743 61.4989L19.9655 57.4532C18.7224 56.8424 17.5161 56.1292 16.3756 55.3367H16.3775Z" fill="#FBD603"/>
<path d="M23.8336 59.0054L22.4727 63.3042C24.0076 63.7894 25.5947 64.1624 27.1896 64.4118L27.8875 59.9564C26.5169 59.7418 25.154 59.4209 23.8336 59.0034V59.0054Z" fill="#FBD603"/>
<path d="M10.3364 49.6268L6.78516 52.4064C7.77688 53.6744 8.87493 54.8786 10.0464 55.9843L13.1434 52.7079C12.1343 51.755 11.1909 50.7189 10.3364 49.6268Z" fill="#FBD603"/>
<path d="M0.832823 24.9432C0.455852 26.507 0.194873 28.1152 0.0576172 29.7234L4.55033 30.11C4.67019 28.726 4.89444 27.3439 5.21728 25.9986L0.832823 24.9432Z" fill="#B2BECC"/>
<path d="M4.5002 34.2793L-0.000244141 34.5596C0.100281 36.1716 0.322597 37.7837 0.660904 39.3552L5.06856 38.4042C4.77665 37.053 4.58526 35.6652 4.5002 34.2773V34.2793Z" fill="#B2BECC"/>
<path d="M43.2512 58.0176L42.4412 53.7458L32.2185 62.5465L44.9524 67L44.1076 62.5407C56.3736 57.691 64.5007 45.8363 64.5007 32.5242C64.5007 32.0834 64.491 31.6389 64.4736 31.202L59.9674 31.3837C59.9829 31.7587 59.9906 32.1434 59.9906 32.5222C59.9906 43.683 53.352 53.6531 43.2492 58.0157L43.2512 58.0176Z" fill="#B2BECC"/>
</g>
<defs>
<clipPath id="clip0_16733_108749">
<rect width="64.5025" height="66.75" fill="white" transform="translate(-0.000244141 0.25)"/>
</clipPath>
</defs>
</svg>
