<?xml version="1.0" encoding="utf-8"?>
<!-- Generator: Adobe Illustrator 27.7.0, SVG Export Plug-In . SVG Version: 6.00 Build 0)  -->
<svg version="1.1" id="Layer_1" xmlns="http://www.w3.org/2000/svg" xmlns:xlink="http://www.w3.org/1999/xlink" x="0px" y="0px"
	 viewBox="0 0 65 67" style="enable-background:new 0 0 65 67;" xml:space="preserve">
<style type="text/css">
	.st0{clip-path:url(#SVGID_00000117675002407699215760000013483249419724774821_);}
	.st1{fill:#4C6888;}
	.st2{fill:#7F93AA;}
</style>
<g>
	<g>
		<defs>
			<rect id="SVGID_1_" y="0.2" width="64.5" height="66.8"/>
		</defs>
		<clipPath id="SVGID_00000132805225438951850590000014393023724895681470_">
			<use xlink:href="#SVGID_1_"  style="overflow:visible;"/>
		</clipPath>
		<g style="clip-path:url(#SVGID_00000132805225438951850590000014393023724895681470_);">
			<path class="st1" d="M60.5,17c-0.8-1.4-1.7-2.8-2.6-4.1l-3.6,2.7c0.8,1.1,1.6,2.3,2.3,3.5L60.5,17L60.5,17z"/>
			<path class="st1" d="M44.7,7.7l2-4c-1.4-0.7-2.9-1.4-4.5-1.9l-1.4,4.3C42.2,6.6,43.5,7.1,44.7,7.7z"/>
			<path class="st1" d="M51.5,12.6l3.1-3.2c-1.2-1.1-2.4-2.2-3.7-3.1L48.3,10C49.4,10.7,50.5,11.6,51.5,12.6L51.5,12.6z"/>
			<path class="st2" d="M36.9,5.1l0.7-4.4c-1.6-0.3-3.2-0.4-4.8-0.4l-0.1,4.5C34.1,4.8,35.5,4.9,36.9,5.1L36.9,5.1z"/>
			<path class="st1" d="M63.9,26c-0.3-1.6-0.8-3.1-1.3-4.7l-4.2,1.6c0.5,1.3,0.9,2.6,1.1,4L63.9,26z"/>
		</g>
	</g>
</g>
</svg>
