<svg fill="none" height="26" viewBox="0 0 218 26" width="218" xmlns="http://www.w3.org/2000/svg"><path d="m.216683 25v-23.4784h9.574397c2.51092 0 4.52912.6688 6.05442 2.0064 1.5253 1.31413 2.288 3.2384 2.288 5.7728 0 1.5957-.352 2.992-1.056 4.1888-.704 1.1733-1.6661 2.0885-2.8864 2.7456-1.2203.6336-2.6283.9504-4.22402.9504h-3.6608v7.8144zm6.089597-12.7072h2.9568c.84482 0 1.51362-.2699 2.00642-.8096s.7392-1.232.7392-2.0768c0-.89173-.2347-1.60747-.704-2.1472s-1.1616-.8096-2.07682-.8096h-2.9216zm14.91352 12.7072v-23.4784h16.896v5.3856h-10.6656v3.6256h8.7648v5.0688h-8.7648v4.0128h11.4048v5.3856zm20.8656 0v-23.4784h9.7152c2.511 0 4.5291.65706 6.0544 1.9712 1.5254 1.29066 2.288 3.2032 2.288 5.7376 0 1.5253-.3402 2.8629-1.0208 4.0128-.6805 1.1499-1.584 2.0651-2.7104 2.7456l5.0336 9.0112h-6.688l-3.9776-7.9904h-2.6048v7.9904zm6.0896-12.8832h3.0272c.8214 0 1.4902-.2464 2.0064-.7392.5163-.5163.7744-1.1968.7744-2.0416 0-.89173-.2464-1.59573-.7392-2.112s-1.185-.7744-2.0768-.7744h-2.992zm16.0136 12.8832v-23.4784h16.368v5.456h-10.1376v4.5408h7.8496v5.1392h-7.8496v8.3424zm29.5867.5632c-1.76 0-3.391-.3051-4.8928-.9152-1.4784-.6101-2.7691-1.4667-3.872-2.5696-1.0795-1.1264-1.9243-2.4405-2.5344-3.9424-.6102-1.5019-.9152-3.1445-.9152-4.928s.305-3.42613.9152-4.928c.6101-1.50187 1.4549-2.80427 2.5344-3.9072 1.1029-1.10293 2.3936-1.95947 3.872-2.5696 1.5018-.61014 3.1328-.915203 4.8928-.915203s3.3792.305063 4.8576.915203c1.5021.61013 2.8041 1.46667 3.9071 2.5696s1.948 2.40533 2.534 3.9072c.611 1.50187.916 3.1445.916 4.928s-.305 3.4261-.916 4.928c-.586 1.5019-1.431 2.816-2.534 3.9424-1.103 1.1029-2.405 1.9595-3.9071 2.5696-1.4784.6101-3.0976.9152-4.8576.9152zm0-5.8432c1.2437 0 2.288-.2933 3.1328-.88.8682-.5867 1.5253-1.3728 1.9712-2.3584.4458-.9856.6688-2.0768.6688-3.2736s-.223-2.288-.6688-3.2736c-.4459-.9856-1.103-1.77173-1.9712-2.3584-.8448-.58667-1.8891-.88-3.1328-.88-1.2203 0-2.2646.29333-3.1328.88-.8448.58667-1.5019 1.3728-1.9712 2.3584-.4459.9856-.6688 2.0768-.6688 3.2736s.2229 2.288.6688 3.2736c.4693.9856 1.1264 1.7717 1.9712 2.3584.8682.5867 1.9125.88 3.1328.88zm15.5137 5.28v-23.4784h9.715c2.511 0 4.529.65706 6.054 1.9712 1.525 1.29066 2.288 3.2032 2.288 5.7376 0 1.5253-.34 2.8629-1.021 4.0128-.68 1.1499-1.584 2.0651-2.71 2.7456l5.034 9.0112h-6.688l-3.978-7.9904h-2.605v7.9904zm6.089-12.8832h3.027c.822 0 1.49-.2464 2.007-.7392.516-.5163.774-1.1968.774-2.0416 0-.89173-.246-1.59573-.739-2.112s-1.185-.7744-2.077-.7744h-2.992zm15.521 12.8832 1.091-23.4784h5.949l5.702 10.2432 5.597-10.2432h5.984l1.091 23.4784h-6.301l-.563-13.7632-4.118 8.0256h-3.415l-4.576-8.0256-.457 13.7632zm29.161 0v-23.4784h6.231v23.4784zm10.45 0v-23.4784h5.668l9.011 13.0944v-13.0944h6.16v23.4784h-5.315l-9.364-13.4816v13.4816zm37.028-8.5888v-4.8224h9.645v10.5952c-1.408 1.1968-3.028 2.0651-4.858 2.6048-1.83.5163-3.649.7744-5.456.7744-2.534 0-4.717-.5045-6.547-1.5136-1.831-1.0091-3.239-2.4288-4.224-4.2592-.962-1.8539-1.443-4.048-1.443-6.5824 0-2.3936.516-4.51733 1.548-6.3712 1.033-1.85387 2.464-3.3088 4.295-4.3648 1.854-1.056 3.977-1.584003 6.371-1.584003 1.948 0 3.766.328533 5.456.985603 1.713.6336 3.145 1.70133 4.294 3.2032l-4.048 4.0832c-.727-.72747-1.513-1.32587-2.358-1.7952-.821-.46933-1.783-.704-2.886-.704-1.338 0-2.476.30507-3.415.9152-.938.58667-1.654 1.38453-2.147 2.3936-.469.9856-.704 2.1003-.704 3.344 0 1.9947.575 3.6021 1.725 4.8224 1.15 1.1968 2.675 1.7952 4.576 1.7952.774 0 1.513-.0939 2.217-.2816.704-.2112 1.385-.5397 2.042-.9856v-2.2528z" fill="#fff"/></svg>