<svg width="728" height="90" viewBox="0 0 728 90" fill="none" xmlns="http://www.w3.org/2000/svg">
<path d="M142.651 18.0566C147.836 18.0567 151.735 19.7306 154.348 23.0781C157.001 26.4258 158.328 31.815 158.328 39.2451C158.328 46.6344 157.022 51.9418 154.409 55.167C151.796 58.3513 147.877 59.9433 142.651 59.9434C137.426 59.9434 133.506 58.3513 130.894 55.167C128.281 51.9418 126.975 46.6344 126.975 39.2451C126.975 31.815 128.281 26.4258 130.894 23.0781C133.547 19.7305 137.467 18.0566 142.651 18.0566ZM175.693 18.0566C180.878 18.0567 184.777 19.7306 187.39 23.0781C190.043 26.4258 191.37 31.815 191.37 39.2451C191.37 46.6344 190.064 51.9418 187.451 55.167C184.838 58.3513 180.919 59.9433 175.693 59.9434C170.468 59.9434 166.548 58.3513 163.936 55.167C161.323 51.9418 160.017 46.6344 160.017 39.2451C160.017 31.815 161.323 26.4258 163.936 23.0781C166.589 19.7305 170.509 18.0566 175.693 18.0566ZM124.796 59.208H116.346V28.3447L107.589 33.9785L103.73 27.6709L117.08 18.792H124.796V59.208ZM142.651 25.4053C140.161 25.4053 138.365 26.4258 137.263 28.4668C136.201 30.508 135.67 34.0401 135.67 39.0615C135.67 44.0825 136.221 47.5933 137.323 49.5938C138.426 51.5942 140.223 52.5947 142.713 52.5947C145.203 52.5946 146.979 51.5941 148.04 49.5938C149.101 47.5933 149.633 44.0827 149.633 39.0615C149.633 33.9992 149.101 30.4672 148.04 28.4668C146.979 26.4258 145.182 25.4053 142.651 25.4053ZM175.693 25.4053C173.203 25.4053 171.407 26.4259 170.305 28.4668C169.243 30.508 168.712 34.0401 168.712 39.0615C168.712 44.0825 169.263 47.5933 170.365 49.5938C171.468 51.5942 173.265 52.5947 175.755 52.5947C178.245 52.5946 180.021 51.5941 181.082 49.5938C182.143 47.5933 182.674 44.0826 182.674 39.0615C182.674 33.9992 182.143 30.4672 181.082 28.4668C180.021 26.4258 178.224 25.4053 175.693 25.4053ZM98.5908 22.8877C99.8613 23.0106 101.029 23.175 102.095 23.3799L102.617 23.502L102.279 26.7607C100.783 26.5968 99.3995 26.4736 98.1289 26.3916L97.5146 31.3408C99.6458 32.017 101.09 32.7653 101.849 33.585C102.627 34.3842 103.017 35.6037 103.017 37.2432C103.017 39.3744 102.371 40.993 101.08 42.0996C99.7891 43.1857 98.0989 43.7294 96.0088 43.7295H95.9775L95.5166 47.3564C94.0018 47.295 93.2438 47.2235 93.2422 47.1416L93.6719 43.5752C92.1555 43.3908 90.8849 43.1756 89.8604 42.9297L89.2451 42.8066L89.6455 39.6104C91.2642 39.8357 92.76 39.9893 94.1328 40.0713L94.8096 34.7227C92.6988 34.0874 91.2025 33.3187 90.3213 32.417C89.4402 31.5154 89.0001 30.2858 89 28.7285C89 26.6997 89.6142 25.1927 90.8438 24.209C92.0733 23.2049 93.7643 22.7031 95.916 22.7031H96.3154L96.8691 18.4609H99.1436L98.5908 22.8877ZM96.4385 40.1016C98.0984 39.9171 98.9287 39.0565 98.9287 37.5195C98.9287 37.0279 98.7849 36.6286 98.498 36.3213C98.2316 35.9934 97.7397 35.6853 97.0225 35.3984L96.4385 40.1016ZM95.8545 26.3301C94.0104 26.4121 93.0881 27.1194 93.0879 28.4512C93.0879 28.9429 93.2415 29.343 93.5488 29.6504C93.8562 29.9578 94.4508 30.2756 95.332 30.6035L95.8545 26.3301Z" fill="#FFE344"/>
<g clip-path="url(#clip0_8658_25226)">
<path d="M228.099 23.5862C229.093 23.5862 230.047 23.9813 230.75 24.6844C231.453 25.3876 231.848 26.3412 231.848 27.3356V50.6653C231.848 51.6597 231.453 52.6134 230.75 53.3165C230.047 54.0197 229.093 54.4147 228.099 54.4147H204.769C203.775 54.4147 202.821 54.0197 202.118 53.3165C201.415 52.6134 201.02 51.6597 201.02 50.6653V27.3356C201.02 26.3412 201.415 25.3876 202.118 24.6844C202.821 23.9813 203.775 23.5862 204.769 23.5862H228.099ZM228.099 22.3364H204.769C203.443 22.3364 202.172 22.8631 201.234 23.8007C200.296 24.7382 199.77 26.0098 199.77 27.3356V50.6653C199.77 51.9912 200.296 53.2627 201.234 54.2003C202.172 55.1378 203.443 55.6645 204.769 55.6645H228.099C229.425 55.6645 230.696 55.1378 231.634 54.2003C232.571 53.2627 233.098 51.9912 233.098 50.6653V27.3356C233.098 26.0098 232.571 24.7382 231.634 23.8007C230.696 22.8631 229.425 22.3364 228.099 22.3364V22.3364Z" fill="white"/>
<g clip-path="url(#clip1_8658_25226)">
<path fill-rule="evenodd" clip-rule="evenodd" d="M213.395 48.2454C213.794 46.5011 214.267 44.4888 214.515 43.4366L214.672 42.769C215.143 40.7564 215.358 39.8379 214.77 39.262C214.52 39.0172 214.212 38.9265 213.83 38.9265C213.4 38.9265 212.876 39.0417 212.238 39.1822C211.641 39.3141 211.432 39.2078 211.397 39.1849C211.384 39.1767 211.375 39.1675 211.367 39.1573C211.498 38.1031 212.494 30.0412 212.701 28.3286C212.795 27.5509 213.518 27.5066 213.747 27.5042C213.756 27.5042 213.764 27.5042 213.773 27.5046C213.835 27.5042 219.823 27.4517 221.434 27.4497C221.407 27.509 221.375 27.5697 221.343 27.6184C221.328 27.6406 221.314 27.6638 221.302 27.6876C221.287 27.7173 219.764 30.6904 218.537 33.0181C218.147 33.7559 217.698 34.817 218.293 35.5091C218.696 35.9772 219.376 35.9957 219.863 35.8644C220.159 35.832 220.703 35.7297 221.834 35.5173C221.965 35.4927 222.073 35.4774 222.162 35.4685C219.375 39.5815 215.611 45.0909 213.395 48.2454M223.56 34.6012C223.123 33.9695 222.216 34.0571 221.57 34.1785C220.085 34.4574 219.744 34.5065 219.679 34.5146C219.622 34.5177 219.565 34.5276 219.51 34.5446C219.489 34.5508 219.452 34.5579 219.413 34.5631C219.439 34.4117 219.523 34.1256 219.777 33.6432C220.94 31.4399 222.365 28.6618 222.535 28.3304C222.704 28.0669 223.105 27.328 222.756 26.6959C222.602 26.4177 222.262 26.0859 221.515 26.0859C220.064 26.0859 214.11 26.1378 213.775 26.1405C213.007 26.1187 211.516 26.5142 211.315 28.1685C211.092 30.0014 209.968 39.108 209.968 39.108C209.963 39.1431 209.962 39.1785 209.963 39.2137C209.967 39.319 210.012 39.8649 210.536 40.259C211.011 40.617 211.688 40.7023 212.545 40.513C212.941 40.4257 213.453 40.3129 213.733 40.2907C213.722 40.7091 213.497 41.6709 213.311 42.4653L213.155 43.1312C212.659 45.2352 211.499 50.1623 211.355 51.1088C211.307 51.4252 211.493 51.745 211.799 51.8596C211.899 51.8968 211.99 51.9152 212.075 51.9152C212.448 51.9152 212.708 51.565 213.144 50.9759C213.443 50.5722 213.87 49.9769 214.413 49.2056C215.323 47.9124 216.576 46.104 218.137 43.8302C220.792 39.961 223.455 36.0312 223.486 35.9855C223.718 35.6336 223.877 35.0602 223.56 34.6012" fill="white"/>
</g>
</g>
<path d="M241.586 45.3037C242.349 44.9721 243.04 44.8057 243.659 44.8057C244.798 44.8057 245.616 45.1264 246.114 45.7676C246.622 46.3977 246.876 47.5198 246.876 49.1338C246.876 50.7478 246.578 51.8754 245.981 52.5166C245.384 53.1467 244.334 53.4619 242.83 53.4619C242.311 53.4619 241.486 53.412 240.359 53.3125L239.795 53.2627V41.5391H241.586V45.3037ZM266.161 44.8057C266.747 44.8057 267.438 44.8834 268.234 45.0381L268.649 45.1211L268.582 46.5469C267.709 46.4584 267.062 46.4141 266.642 46.4141C265.802 46.4141 265.238 46.6027 264.95 46.9785C264.663 47.3545 264.52 48.0618 264.52 49.1006C264.52 50.1398 264.657 50.8588 264.934 51.2568C265.21 51.6547 265.785 51.8535 266.658 51.8535L268.599 51.7207L268.649 53.1641C267.532 53.363 266.692 53.4619 266.128 53.4619C264.868 53.4619 263.978 53.1246 263.458 52.4502C262.95 51.7648 262.696 50.6482 262.696 49.1006C262.696 47.5529 262.966 46.453 263.508 45.8008C264.05 45.1375 264.934 44.8057 266.161 44.8057ZM278.861 44.8057C281.182 44.8057 282.343 46.0719 282.343 48.6035L282.227 49.8965H277.086C277.097 50.5819 277.246 51.0856 277.533 51.4062C277.821 51.7268 278.358 51.8867 279.143 51.8867C279.928 51.8867 280.735 51.8534 281.564 51.7871L282.028 51.7373L282.061 53.0811C280.801 53.3353 279.684 53.4619 278.711 53.4619C277.484 53.4619 276.6 53.1246 276.058 52.4502C275.527 51.7758 275.262 50.698 275.262 49.2168C275.262 46.2761 276.462 44.8057 278.861 44.8057ZM290.515 53.2793H288.724V52.8486C287.917 53.2576 287.176 53.4619 286.502 53.4619C285.419 53.4619 284.623 53.1357 284.115 52.4834C283.617 51.8311 283.368 50.7369 283.368 49.2002C283.368 47.6635 283.645 46.5471 284.198 45.8506C284.761 45.1542 285.635 44.8057 286.818 44.8057C287.216 44.8057 287.845 44.8779 288.707 45.0215V41.5391H290.515V53.2793ZM298.214 44.9883H300.502V46.5303H298.214V50.1787C298.214 50.8529 298.264 51.3003 298.364 51.5215C298.463 51.7426 298.717 51.8535 299.126 51.8535L300.486 51.8037L300.569 53.2461C299.828 53.3898 299.264 53.4619 298.877 53.4619C297.937 53.4619 297.291 53.2466 296.937 52.8154C296.594 52.3843 296.423 51.5717 296.423 50.3779V46.5303H295.362V44.9883H296.423V42.584H298.214V44.9883ZM250.162 53.2793H248.355V44.9883H250.162V53.2793ZM253.93 53.2793H252.122V41.5391H253.93V53.2793ZM257.792 53.2793H255.985V41.5391H257.792V53.2793ZM274.674 46.6133C273.724 46.8012 272.911 47.0443 272.237 47.3428L271.872 47.4922V53.2793H270.065V44.9883H271.856V45.9834C272.795 45.3755 273.735 44.9826 274.674 44.8057V46.6133ZM294.181 53.2793H292.373V44.9883H294.181V53.2793ZM243.444 46.4141C242.913 46.4141 242.382 46.4973 241.852 46.6631L241.586 46.7461V51.7871C242.194 51.8313 242.609 51.8535 242.83 51.8535C243.715 51.8535 244.301 51.6492 244.588 51.2402C244.887 50.8201 245.035 50.1122 245.035 49.1172C245.035 48.1227 244.909 47.4264 244.655 47.0283C244.411 46.6193 244.007 46.4141 243.444 46.4141ZM286.867 46.3643C285.751 46.3643 285.192 47.2932 285.192 49.1504C285.192 50.1675 285.319 50.8754 285.573 51.2734C285.839 51.6602 286.254 51.8535 286.818 51.8535C287.381 51.8535 287.918 51.7536 288.426 51.5547L288.707 51.4395V46.5303C288.044 46.4198 287.431 46.3643 286.867 46.3643ZM278.861 46.2979C278.241 46.2979 277.788 46.4698 277.5 46.8125C277.224 47.1552 277.081 47.7192 277.07 48.5039H280.569C280.569 47.6858 280.435 47.1165 280.17 46.7959C279.916 46.4643 279.48 46.2979 278.861 46.2979ZM250.162 43.5791H248.355V41.6719H250.162V43.5791ZM294.181 43.5791H292.373V41.6719H294.181V43.5791ZM300.835 34.7373H301.282L303.04 27.9883H304.831L301.681 39.8447H299.906L300.902 36.2793H299.476L297.303 27.9883H299.077L300.835 34.7373ZM242.995 27.8057C245.317 27.8057 246.478 29.0718 246.478 31.6035L246.363 32.8965H241.221C241.232 33.5819 241.382 34.0856 241.669 34.4062C241.957 34.7267 242.493 34.8867 243.278 34.8867C244.062 34.8867 244.869 34.8534 245.698 34.7871L246.163 34.7373L246.197 36.0811C244.936 36.3353 243.82 36.4619 242.847 36.4619C241.62 36.4619 240.735 36.1246 240.194 35.4502C239.663 34.7758 239.398 33.6982 239.398 32.2168C239.398 29.2763 240.597 27.8058 242.995 27.8057ZM254.948 27.8057C257.269 27.8057 258.43 29.0718 258.43 31.6035L258.315 32.8965H253.173C253.184 33.5819 253.334 34.0856 253.621 34.4062C253.909 34.7267 254.445 34.8867 255.23 34.8867C256.015 34.8867 256.822 34.8534 257.651 34.7871L258.115 34.7373L258.149 36.0811C256.889 36.3353 255.772 36.4619 254.799 36.4619C253.572 36.4619 252.687 36.1246 252.146 35.4502C251.615 34.7758 251.35 33.6982 251.35 32.2168C251.35 29.2763 252.549 27.8058 254.948 27.8057ZM262.938 27.8057C263.524 27.8057 264.215 27.8833 265.011 28.0381L265.425 28.1211L265.359 29.5469C264.485 29.4585 263.838 29.4141 263.418 29.4141C262.578 29.4141 262.014 29.6027 261.727 29.9785C261.44 30.3545 261.296 31.0619 261.296 32.1006C261.296 33.1398 261.434 33.8588 261.71 34.2568C261.987 34.6548 262.562 34.8534 263.435 34.8535L265.375 34.7207L265.425 36.1641C264.309 36.363 263.468 36.4619 262.905 36.4619C261.644 36.4619 260.754 36.1246 260.235 35.4502C259.726 34.7647 259.472 33.6481 259.472 32.1006C259.472 30.553 259.743 29.453 260.284 28.8008C260.826 28.1375 261.711 27.8057 262.938 27.8057ZM269.014 27.9883H271.302V29.5303H269.014V33.1787C269.014 33.8526 269.063 34.3002 269.162 34.5215C269.262 34.7426 269.517 34.8535 269.926 34.8535L271.285 34.8037L271.368 36.2461C270.628 36.3898 270.064 36.4619 269.677 36.4619C268.737 36.4619 268.09 36.2466 267.737 35.8154C267.394 35.3843 267.223 34.5718 267.223 33.3779V29.5303H266.161V27.9883H267.223V25.584H269.014V27.9883ZM284.882 27.8057C285.468 27.8057 286.159 27.8833 286.955 28.0381L287.37 28.1211L287.304 29.5469C286.431 29.4584 285.784 29.4141 285.364 29.4141C284.523 29.4141 283.96 29.6026 283.672 29.9785C283.385 30.3544 283.24 31.0616 283.24 32.1006C283.24 33.1398 283.379 33.8588 283.656 34.2568C283.932 34.6546 284.507 34.8535 285.38 34.8535L287.321 34.7207L287.37 36.1641C286.254 36.3631 285.413 36.4619 284.849 36.4619C283.589 36.4618 282.699 36.1245 282.179 35.4502C281.671 34.7647 281.416 33.648 281.416 32.1006C281.416 30.5531 281.687 29.453 282.229 28.8008C282.77 28.1375 283.655 27.8057 284.882 27.8057ZM294.626 27.9883H296.915V29.5303H294.626V33.1787C294.626 33.8527 294.676 34.3003 294.776 34.5215C294.875 34.7425 295.129 34.8535 295.538 34.8535L296.899 34.8037L296.982 36.2461C296.241 36.3898 295.677 36.4619 295.29 36.4619C294.351 36.4619 293.704 36.2465 293.35 35.8154C293.007 35.3843 292.835 34.5718 292.835 33.3779V29.5303H291.775V27.9883H292.835V25.584H294.626V27.9883ZM249.791 36.2793H247.985V24.5391H249.791V36.2793ZM277.063 29.6133C276.112 29.8012 275.3 30.0443 274.625 30.3428L274.26 30.4922V36.2793H272.452V27.9883H274.243V28.9834C275.183 28.3754 276.123 27.9826 277.063 27.8057V29.6133ZM279.92 36.2793H278.114V27.9883H279.92V36.2793ZM290.593 36.2793H288.785V27.9883H290.593V36.2793ZM242.995 29.2979C242.376 29.2979 241.923 29.4699 241.636 29.8125C241.36 30.1552 241.216 30.7191 241.205 31.5039H244.703C244.703 30.6859 244.571 30.1165 244.306 29.7959C244.052 29.4642 243.614 29.2979 242.995 29.2979ZM254.948 29.2979C254.329 29.2979 253.876 29.4699 253.588 29.8125C253.312 30.1552 253.168 30.719 253.156 31.5039H256.656C256.656 30.6859 256.523 30.1165 256.258 29.7959C256.004 29.4642 255.567 29.2979 254.948 29.2979ZM279.92 26.5791H278.114V24.6719H279.92V26.5791ZM290.593 26.5791H288.785V24.6719H290.593V26.5791Z" fill="white"/>
<defs>
<clipPath id="clip0_8658_25226">
<rect width="33.3281" height="33.3281" fill="white" transform="translate(199.77 22.3364)"/>
</clipPath>
<clipPath id="clip1_8658_25226">
<rect width="25.8292" height="25.8292" fill="white" transform="translate(203.936 26.0859)"/>
</clipPath>
</defs>
</svg>
