<svg width="728" height="90" viewBox="0 0 728 90" fill="none" xmlns="http://www.w3.org/2000/svg">
<rect width="364" height="52" transform="translate(101 12)" fill="white" fill-opacity="0.01"/>
<path d="M105.81 32.306C105.81 34.6113 107.023 35.764 109.45 35.764C111.877 35.764 113.09 34.6113 113.09 32.306V20.19H116.002V32.254C116.002 34.3513 115.447 35.8853 114.338 36.856C113.246 37.8093 111.608 38.286 109.424 38.286C107.257 38.286 105.628 37.8093 104.536 36.856C103.444 35.8853 102.898 34.3513 102.898 32.254V20.19H105.81V32.306ZM121.839 38H119.005V25H121.813V25.806C123.078 25.078 124.274 24.714 125.401 24.714C127.134 24.714 128.313 25.208 128.937 26.196C129.578 27.1667 129.899 28.7787 129.899 31.032V38H127.091V31.11C127.091 29.706 126.935 28.7093 126.623 28.12C126.328 27.5307 125.713 27.236 124.777 27.236C123.893 27.236 123.043 27.4093 122.229 27.756L121.839 27.912V38ZM132.834 38V19.592H135.668V38H132.834ZM139.436 26.404C140.337 25.2773 141.828 24.714 143.908 24.714C145.988 24.714 147.47 25.2773 148.354 26.404C149.255 27.5307 149.706 29.2207 149.706 31.474C149.706 33.7273 149.273 35.426 148.406 36.57C147.539 37.714 146.04 38.286 143.908 38.286C141.776 38.286 140.277 37.714 139.41 36.57C138.543 35.426 138.11 33.7273 138.11 31.474C138.11 29.2207 138.552 27.5307 139.436 26.404ZM141.568 34.854C141.967 35.5473 142.747 35.894 143.908 35.894C145.069 35.894 145.849 35.5473 146.248 34.854C146.647 34.1607 146.846 33.0253 146.846 31.448C146.846 29.8707 146.629 28.7527 146.196 28.094C145.78 27.4353 145.017 27.106 143.908 27.106C142.799 27.106 142.027 27.4353 141.594 28.094C141.178 28.7527 140.97 29.8707 140.97 31.448C140.97 33.0253 141.169 34.1607 141.568 34.854ZM156.863 24.714C157.782 24.714 158.865 24.8353 160.113 25.078L160.763 25.208L160.659 27.444C159.29 27.3053 158.276 27.236 157.617 27.236C156.3 27.236 155.416 27.5307 154.965 28.12C154.515 28.7093 154.289 29.8187 154.289 31.448C154.289 33.0773 154.506 34.204 154.939 34.828C155.373 35.452 156.274 35.764 157.643 35.764L160.685 35.556L160.763 37.818C159.013 38.13 157.695 38.286 156.811 38.286C154.835 38.286 153.44 37.7573 152.625 36.7C151.828 35.6253 151.429 33.8747 151.429 31.448C151.429 29.0213 151.854 27.2967 152.703 26.274C153.553 25.234 154.939 24.714 156.863 24.714ZM165.817 38H162.983V19.592H165.817V30.226L167.429 30.07L170.497 25H173.669L169.925 31.084L173.877 38H170.679L167.507 32.514L165.817 32.696V38ZM188.509 25H191.317V38H188.509V37.194C187.243 37.922 186.073 38.286 184.999 38.286C183.213 38.286 182.017 37.8093 181.411 36.856C180.804 35.8853 180.501 34.1953 180.501 31.786V25H183.335V31.812C183.335 33.372 183.465 34.4207 183.725 34.958C183.985 35.4953 184.591 35.764 185.545 35.764C186.481 35.764 187.339 35.5907 188.119 35.244L188.509 35.088V25ZM194.228 43.59V25H197.036V25.806C198.232 25.078 199.35 24.714 200.39 24.714C202.106 24.714 203.363 25.2427 204.16 26.3C204.957 27.34 205.356 29.0993 205.356 31.578C205.356 34.0393 204.897 35.7727 203.978 36.778C203.077 37.7833 201.595 38.286 199.532 38.286C198.821 38.286 197.998 38.208 197.062 38.052V43.59H194.228ZM199.896 27.236C199.081 27.236 198.267 27.418 197.452 27.782L197.062 27.964V35.634C197.755 35.7727 198.518 35.842 199.35 35.842C200.529 35.842 201.343 35.504 201.794 34.828C202.245 34.152 202.47 32.9993 202.47 31.37C202.47 28.614 201.612 27.236 199.896 27.236ZM219.86 27.418H216.272V33.138C216.272 34.1953 216.35 34.8973 216.506 35.244C216.662 35.5907 217.06 35.764 217.702 35.764L219.834 35.686L219.964 37.948C218.802 38.1733 217.918 38.286 217.312 38.286C215.838 38.286 214.824 37.948 214.27 37.272C213.732 36.596 213.464 35.322 213.464 33.45V27.418H211.8V25H213.464V21.23H216.272V25H219.86V27.418ZM222.366 26.404C223.267 25.2773 224.758 24.714 226.838 24.714C228.918 24.714 230.4 25.2773 231.284 26.404C232.185 27.5307 232.636 29.2207 232.636 31.474C232.636 33.7273 232.203 35.426 231.336 36.57C230.469 37.714 228.97 38.286 226.838 38.286C224.706 38.286 223.207 37.714 222.34 36.57C221.473 35.426 221.04 33.7273 221.04 31.474C221.04 29.2207 221.482 27.5307 222.366 26.404ZM224.498 34.854C224.897 35.5473 225.677 35.894 226.838 35.894C227.999 35.894 228.779 35.5473 229.178 34.854C229.577 34.1607 229.776 33.0253 229.776 31.448C229.776 29.8707 229.559 28.7527 229.126 28.094C228.71 27.4353 227.947 27.106 226.838 27.106C225.729 27.106 224.957 27.4353 224.524 28.094C224.108 28.7527 223.9 29.8707 223.9 31.448C223.9 33.0253 224.099 34.1607 224.498 34.854ZM251.616 32.826C251.616 34.6287 251.07 35.998 249.978 36.934C248.886 37.8527 247.456 38.312 245.688 38.312H245.662L245.272 41.38C243.989 41.328 243.348 41.2673 243.348 41.198L243.712 38.182C242.429 38.026 241.355 37.844 240.488 37.636L239.968 37.532L240.306 34.828C241.675 35.0187 242.941 35.1487 244.102 35.218L244.674 30.694C242.889 30.1567 241.623 29.5067 240.878 28.744C240.133 27.9813 239.76 26.9413 239.76 25.624C239.76 23.908 240.28 22.634 241.32 21.802C242.36 20.9527 243.79 20.528 245.61 20.528H245.948L246.416 16.94H248.34L247.872 20.684C248.947 20.788 249.935 20.9267 250.836 21.1L251.278 21.204L250.992 23.96C249.727 23.8213 248.557 23.7173 247.482 23.648L246.962 27.834C248.765 28.406 249.987 29.0387 250.628 29.732C251.287 30.408 251.616 31.4393 251.616 32.826ZM243.218 25.39C243.218 25.806 243.348 26.144 243.608 26.404C243.868 26.664 244.371 26.9327 245.116 27.21L245.558 23.596C243.998 23.6653 243.218 24.2633 243.218 25.39ZM248.158 33.06C248.158 32.644 248.037 32.306 247.794 32.046C247.569 31.7687 247.153 31.5087 246.546 31.266L246.052 35.244C247.456 35.088 248.158 34.36 248.158 33.06ZM265.255 38H254.127V34.958L257.793 31.24C259.093 29.9053 259.994 28.8827 260.497 28.172C261.017 27.4613 261.277 26.7073 261.277 25.91C261.277 25.0953 261.06 24.5233 260.627 24.194C260.211 23.8647 259.613 23.7 258.833 23.7C257.671 23.7 256.406 23.804 255.037 24.012L254.413 24.09L254.231 21.308C255.929 20.788 257.689 20.528 259.509 20.528C263.149 20.528 264.969 22.166 264.969 25.442C264.969 26.7247 264.691 27.834 264.137 28.77C263.582 29.706 262.577 30.8413 261.121 32.176L258.131 34.88H265.255V38ZM268.754 22.66C269.88 21.2387 271.544 20.528 273.746 20.528C275.947 20.528 277.602 21.2387 278.712 22.66C279.838 24.0813 280.402 26.3693 280.402 29.524C280.402 32.6613 279.847 34.9147 278.738 36.284C277.628 37.636 275.964 38.312 273.746 38.312C271.527 38.312 269.863 37.636 268.754 36.284C267.644 34.9147 267.09 32.6613 267.09 29.524C267.09 26.3693 267.644 24.0813 268.754 22.66ZM276.71 29.446C276.71 27.2967 276.484 25.7973 276.034 24.948C275.583 24.0813 274.82 23.648 273.746 23.648C272.688 23.648 271.926 24.0813 271.458 24.948C271.007 25.8147 270.782 27.314 270.782 29.446C270.782 31.578 271.016 33.0687 271.484 33.918C271.952 34.7673 272.714 35.192 273.772 35.192C274.829 35.192 275.583 34.7673 276.034 33.918C276.484 33.0687 276.71 31.578 276.71 29.446ZM282.782 22.66C283.909 21.2387 285.573 20.528 287.774 20.528C289.976 20.528 291.631 21.2387 292.74 22.66C293.867 24.0813 294.43 26.3693 294.43 29.524C294.43 32.6613 293.876 34.9147 292.766 36.284C291.657 37.636 289.993 38.312 287.774 38.312C285.556 38.312 283.892 37.636 282.782 36.284C281.673 34.9147 281.118 32.6613 281.118 29.524C281.118 26.3693 281.673 24.0813 282.782 22.66ZM290.738 29.446C290.738 27.2967 290.513 25.7973 290.062 24.948C289.612 24.0813 288.849 23.648 287.774 23.648C286.717 23.648 285.954 24.0813 285.486 24.948C285.036 25.8147 284.81 27.314 284.81 29.446C284.81 31.578 285.044 33.0687 285.512 33.918C285.98 34.7673 286.743 35.192 287.8 35.192C288.858 35.192 289.612 34.7673 290.062 33.918C290.513 33.0687 290.738 31.578 290.738 29.446ZM301.432 38V25H304.266V38H301.432ZM301.432 22.79V19.8H304.266V22.79H301.432ZM310.018 38H307.184V25H309.992V25.806C311.257 25.078 312.453 24.714 313.58 24.714C315.313 24.714 316.492 25.208 317.116 26.196C317.757 27.1667 318.078 28.7787 318.078 31.032V38H315.27V31.11C315.27 29.706 315.114 28.7093 314.802 28.12C314.507 27.5307 313.892 27.236 312.956 27.236C312.072 27.236 311.222 27.4093 310.408 27.756L310.018 27.912V38ZM332.108 24.714C333.893 24.714 335.176 25.2167 335.956 26.222C336.753 27.21 337.152 28.9693 337.152 31.5C337.152 34.0307 336.684 35.7987 335.748 36.804C334.812 37.792 333.165 38.286 330.808 38.286C329.993 38.286 328.702 38.208 326.934 38.052L326.05 37.974V19.592H328.858V25.494C330.054 24.974 331.137 24.714 332.108 24.714ZM330.808 35.764C332.195 35.764 333.113 35.4433 333.564 34.802C334.032 34.1433 334.266 33.034 334.266 31.474C334.266 29.914 334.067 28.822 333.668 28.198C333.287 27.5567 332.654 27.236 331.77 27.236C330.938 27.236 330.106 27.366 329.274 27.626L328.858 27.756V35.66C329.811 35.7293 330.461 35.764 330.808 35.764ZM339.469 38V25H342.303V38H339.469ZM339.469 22.79V19.8H342.303V22.79H339.469ZM345.377 38V19.592H348.211V38H345.377ZM351.433 38V19.592H354.267V38H351.433ZM367.388 24.714C368.307 24.714 369.39 24.8353 370.638 25.078L371.288 25.208L371.184 27.444C369.815 27.3053 368.801 27.236 368.142 27.236C366.825 27.236 365.941 27.5307 365.49 28.12C365.039 28.7093 364.814 29.8187 364.814 31.448C364.814 33.0773 365.031 34.204 365.464 34.828C365.897 35.452 366.799 35.764 368.168 35.764L371.21 35.556L371.288 37.818C369.537 38.13 368.22 38.286 367.336 38.286C365.36 38.286 363.965 37.7573 363.15 36.7C362.353 35.6253 361.954 33.8747 361.954 31.448C361.954 29.0213 362.379 27.2967 363.228 26.274C364.077 25.234 365.464 24.714 367.388 24.714ZM373.508 38V25H376.316V26.56C377.789 25.6067 379.263 24.9913 380.736 24.714V27.548C379.245 27.8427 377.971 28.224 376.914 28.692L376.342 28.926V38H373.508ZM391.537 35.66L392.265 35.582L392.317 37.688C390.341 38.0867 388.59 38.286 387.065 38.286C385.141 38.286 383.754 37.7573 382.905 36.7C382.073 35.6427 381.657 33.9527 381.657 31.63C381.657 27.0193 383.538 24.714 387.299 24.714C390.939 24.714 392.759 26.6987 392.759 30.668L392.577 32.696H384.517C384.534 33.7707 384.768 34.5593 385.219 35.062C385.67 35.5647 386.51 35.816 387.741 35.816C388.972 35.816 390.237 35.764 391.537 35.66ZM389.977 30.512C389.977 29.2293 389.769 28.3367 389.353 27.834C388.954 27.314 388.27 27.054 387.299 27.054C386.328 27.054 385.618 27.3227 385.167 27.86C384.734 28.3973 384.508 29.2813 384.491 30.512H389.977ZM405.572 19.592V38H402.764V37.324C401.499 37.9653 400.337 38.286 399.28 38.286C397.581 38.286 396.333 37.7747 395.536 36.752C394.756 35.7293 394.366 34.0133 394.366 31.604C394.366 29.1947 394.799 27.444 395.666 26.352C396.55 25.26 397.919 24.714 399.774 24.714C400.398 24.714 401.386 24.8267 402.738 25.052V19.592H405.572ZM402.296 35.296L402.738 35.114V27.418C401.698 27.2447 400.736 27.158 399.852 27.158C398.101 27.158 397.226 28.614 397.226 31.526C397.226 33.1207 397.425 34.23 397.824 34.854C398.24 35.4607 398.89 35.764 399.774 35.764C400.658 35.764 401.499 35.608 402.296 35.296ZM408.485 38V25H411.319V38H408.485ZM408.485 22.79V19.8H411.319V22.79H408.485ZM421.231 27.418H417.643V33.138C417.643 34.1953 417.721 34.8973 417.877 35.244C418.033 35.5907 418.431 35.764 419.073 35.764L421.205 35.686L421.335 37.948C420.173 38.1733 419.289 38.286 418.683 38.286C417.209 38.286 416.195 37.948 415.641 37.272C415.103 36.596 414.835 35.322 414.835 33.45V27.418H413.171V25H414.835V21.23H417.643V25H421.231V27.418ZM432.057 27.678C430.012 27.4007 428.53 27.262 427.611 27.262C426.692 27.262 426.051 27.3747 425.687 27.6C425.34 27.808 425.167 28.146 425.167 28.614C425.167 29.082 425.358 29.4113 425.739 29.602C426.138 29.7927 427.056 30.018 428.495 30.278C429.951 30.5207 430.982 30.9107 431.589 31.448C432.196 31.9853 432.499 32.9387 432.499 34.308C432.499 35.6773 432.057 36.6827 431.173 37.324C430.306 37.9653 429.032 38.286 427.351 38.286C426.294 38.286 424.959 38.1387 423.347 37.844L422.541 37.714L422.645 35.348C424.725 35.6253 426.224 35.764 427.143 35.764C428.062 35.764 428.712 35.6513 429.093 35.426C429.492 35.2007 429.691 34.828 429.691 34.308C429.691 33.788 429.5 33.4327 429.119 33.242C428.755 33.034 427.862 32.8173 426.441 32.592C425.037 32.3493 424.006 31.9767 423.347 31.474C422.688 30.9713 422.359 30.0527 422.359 28.718C422.359 27.3833 422.81 26.3867 423.711 25.728C424.63 25.0693 425.8 24.74 427.221 24.74C428.33 24.74 429.691 24.8787 431.303 25.156L432.109 25.312L432.057 27.678ZM438.946 21.1376H436.964L437.573 23.0408L436.606 23.3372L435.966 21.4184L434.328 22.6508L433.704 21.8552L435.373 20.6228L433.751 19.4684L434.359 18.626L435.966 19.796L436.59 17.8772L437.588 18.2048L436.98 20.1392H438.946V21.1376Z" fill="#FFE344"/>
<path d="M101.702 51H104.484L106.538 61.582H107.058L109.528 51.26H112.44L114.91 61.582H115.43L117.458 51H120.266L117.51 64H113.012L110.984 55.082L108.956 64H104.458L101.702 51ZM124.987 64H122.153V45.592H124.987V51.676C126.27 51.0347 127.457 50.714 128.549 50.714C130.282 50.714 131.461 51.208 132.085 52.196C132.726 53.1667 133.047 54.7787 133.047 57.032V64H130.213V57.11C130.213 55.706 130.066 54.7093 129.771 54.12C129.476 53.5307 128.852 53.236 127.899 53.236C127.067 53.236 126.235 53.3747 125.403 53.652L124.987 53.808V64ZM145.082 61.66L145.81 61.582L145.862 63.688C143.886 64.0867 142.136 64.286 140.61 64.286C138.686 64.286 137.3 63.7573 136.45 62.7C135.618 61.6427 135.202 59.9527 135.202 57.63C135.202 53.0193 137.083 50.714 140.844 50.714C144.484 50.714 146.304 52.6987 146.304 56.668L146.122 58.696H138.062C138.08 59.7707 138.314 60.5593 138.764 61.062C139.215 61.5647 140.056 61.816 141.286 61.816C142.517 61.816 143.782 61.764 145.082 61.66ZM143.522 56.512C143.522 55.2293 143.314 54.3367 142.898 53.834C142.5 53.314 141.815 53.054 140.844 53.054C139.874 53.054 139.163 53.3227 138.712 53.86C138.279 54.3973 138.054 55.2813 138.036 56.512H143.522ZM151.344 64H148.51V51H151.318V51.806C152.583 51.078 153.779 50.714 154.906 50.714C156.639 50.714 157.818 51.208 158.442 52.196C159.083 53.1667 159.404 54.7787 159.404 57.032V64H156.596V57.11C156.596 55.706 156.44 54.7093 156.128 54.12C155.833 53.5307 155.218 53.236 154.282 53.236C153.398 53.236 152.548 53.4093 151.734 53.756L151.344 53.912V64ZM166.18 51H168.962L171.718 61.582H172.42L175.176 51H177.984L173.044 69.59H170.262L171.822 64H169.586L166.18 51ZM180.126 52.404C181.027 51.2773 182.518 50.714 184.598 50.714C186.678 50.714 188.16 51.2773 189.044 52.404C189.945 53.5307 190.396 55.2207 190.396 57.474C190.396 59.7273 189.963 61.426 189.096 62.57C188.229 63.714 186.73 64.286 184.598 64.286C182.466 64.286 180.967 63.714 180.1 62.57C179.233 61.426 178.8 59.7273 178.8 57.474C178.8 55.2207 179.242 53.5307 180.126 52.404ZM182.258 60.854C182.657 61.5473 183.437 61.894 184.598 61.894C185.759 61.894 186.539 61.5473 186.938 60.854C187.337 60.1607 187.536 59.0253 187.536 57.448C187.536 55.8707 187.319 54.7527 186.886 54.094C186.47 53.4353 185.707 53.106 184.598 53.106C183.489 53.106 182.717 53.4353 182.284 54.094C181.868 54.7527 181.66 55.8707 181.66 57.448C181.66 59.0253 181.859 60.1607 182.258 60.854ZM200.569 51H203.377V64H200.569V63.194C199.304 63.922 198.134 64.286 197.059 64.286C195.274 64.286 194.078 63.8093 193.471 62.856C192.865 61.8853 192.561 60.1953 192.561 57.786V51H195.395V57.812C195.395 59.372 195.525 60.4207 195.785 60.958C196.045 61.4953 196.652 61.764 197.605 61.764C198.541 61.764 199.399 61.5907 200.179 61.244L200.569 61.088V51ZM214.315 64H211.481V51H214.289V51.806C215.52 51.078 216.647 50.714 217.669 50.714C219.177 50.714 220.278 51.1387 220.971 51.988C222.549 51.1387 224.117 50.714 225.677 50.714C227.237 50.714 228.338 51.1993 228.979 52.17C229.621 53.1233 229.941 54.744 229.941 57.032V64H227.133V57.11C227.133 55.706 226.986 54.7093 226.691 54.12C226.414 53.5307 225.825 53.236 224.923 53.236C224.143 53.236 223.303 53.4093 222.401 53.756L221.959 53.938C222.098 54.2847 222.167 55.394 222.167 57.266V64H219.359V57.318C219.359 55.7753 219.221 54.7093 218.943 54.12C218.666 53.5307 218.059 53.236 217.123 53.236C216.257 53.236 215.451 53.4093 214.705 53.756L214.315 53.912V64ZM233.448 52.404C234.35 51.2773 235.84 50.714 237.92 50.714C240 50.714 241.482 51.2773 242.366 52.404C243.268 53.5307 243.718 55.2207 243.718 57.474C243.718 59.7273 243.285 61.426 242.418 62.57C241.552 63.714 240.052 64.286 237.92 64.286C235.788 64.286 234.289 63.714 233.422 62.57C232.556 61.426 232.122 59.7273 232.122 57.474C232.122 55.2207 232.564 53.5307 233.448 52.404ZM235.58 60.854C235.979 61.5473 236.759 61.894 237.92 61.894C239.082 61.894 239.862 61.5473 240.26 60.854C240.659 60.1607 240.858 59.0253 240.858 57.448C240.858 55.8707 240.642 54.7527 240.208 54.094C239.792 53.4353 239.03 53.106 237.92 53.106C236.811 53.106 236.04 53.4353 235.606 54.094C235.19 54.7527 234.982 55.8707 234.982 57.448C234.982 59.0253 235.182 60.1607 235.58 60.854ZM244.588 51H247.552L250.048 61.582H250.88L253.48 51H256.366L252.986 64H247.942L244.588 51ZM267.115 61.66L267.843 61.582L267.895 63.688C265.919 64.0867 264.168 64.286 262.643 64.286C260.719 64.286 259.332 63.7573 258.483 62.7C257.651 61.6427 257.235 59.9527 257.235 57.63C257.235 53.0193 259.115 50.714 262.877 50.714C266.517 50.714 268.337 52.6987 268.337 56.668L268.155 58.696H260.095C260.112 59.7707 260.346 60.5593 260.797 61.062C261.247 61.5647 262.088 61.816 263.319 61.816C264.549 61.816 265.815 61.764 267.115 61.66ZM265.555 56.512C265.555 55.2293 265.347 54.3367 264.931 53.834C264.532 53.314 263.847 53.054 262.877 53.054C261.906 53.054 261.195 53.3227 260.745 53.86C260.311 54.3973 260.086 55.2813 260.069 56.512H265.555ZM285.355 55.004V60.932C285.372 61.3133 285.467 61.5993 285.641 61.79C285.831 61.9633 286.117 62.076 286.499 62.128L286.421 64.286C284.93 64.286 283.777 63.9653 282.963 63.324C281.576 63.9653 280.181 64.286 278.777 64.286C276.194 64.286 274.903 62.908 274.903 60.152C274.903 58.8347 275.249 57.8813 275.943 57.292C276.653 56.7027 277.737 56.3473 279.193 56.226L282.547 55.94V55.004C282.547 54.3107 282.391 53.8253 282.079 53.548C281.784 53.2707 281.342 53.132 280.753 53.132C279.643 53.132 278.257 53.2013 276.593 53.34L275.761 53.392L275.657 51.39C277.546 50.9393 279.279 50.714 280.857 50.714C282.451 50.714 283.595 51.0607 284.289 51.754C284.999 52.43 285.355 53.5133 285.355 55.004ZM279.531 58.228C278.335 58.332 277.737 58.982 277.737 60.178C277.737 61.374 278.265 61.972 279.323 61.972C280.189 61.972 281.108 61.8333 282.079 61.556L282.547 61.4V57.942L279.531 58.228ZM291.227 64H288.393V51H291.201V51.806C292.466 51.078 293.662 50.714 294.789 50.714C296.522 50.714 297.701 51.208 298.325 52.196C298.966 53.1667 299.287 54.7787 299.287 57.032V64H296.479V57.11C296.479 55.706 296.323 54.7093 296.011 54.12C295.716 53.5307 295.101 53.236 294.165 53.236C293.281 53.236 292.431 53.4093 291.617 53.756L291.227 53.912V64ZM312.674 45.592V64H309.866V63.324C308.601 63.9653 307.439 64.286 306.382 64.286C304.683 64.286 303.435 63.7747 302.638 62.752C301.858 61.7293 301.468 60.0133 301.468 57.604C301.468 55.1947 301.901 53.444 302.768 52.352C303.652 51.26 305.021 50.714 306.876 50.714C307.5 50.714 308.488 50.8267 309.84 51.052V45.592H312.674ZM309.398 61.296L309.84 61.114V53.418C308.8 53.2447 307.838 53.158 306.954 53.158C305.203 53.158 304.328 54.614 304.328 57.526C304.328 59.1207 304.527 60.23 304.926 60.854C305.342 61.4607 305.992 61.764 306.876 61.764C307.76 61.764 308.601 61.608 309.398 61.296ZM329.802 53.678C327.756 53.4007 326.274 53.262 325.356 53.262C324.437 53.262 323.796 53.3747 323.432 53.6C323.085 53.808 322.912 54.146 322.912 54.614C322.912 55.082 323.102 55.4113 323.484 55.602C323.882 55.7927 324.801 56.018 326.24 56.278C327.696 56.5207 328.727 56.9107 329.334 57.448C329.94 57.9853 330.244 58.9387 330.244 60.308C330.244 61.6773 329.802 62.6827 328.918 63.324C328.051 63.9653 326.777 64.286 325.096 64.286C324.038 64.286 322.704 64.1387 321.092 63.844L320.286 63.714L320.39 61.348C322.47 61.6253 323.969 61.764 324.888 61.764C325.806 61.764 326.456 61.6513 326.838 61.426C327.236 61.2007 327.436 60.828 327.436 60.308C327.436 59.788 327.245 59.4327 326.864 59.242C326.5 59.034 325.607 58.8173 324.186 58.592C322.782 58.3493 321.75 57.9767 321.092 57.474C320.433 56.9713 320.104 56.0527 320.104 54.718C320.104 53.3833 320.554 52.3867 321.456 51.728C322.374 51.0693 323.544 50.74 324.966 50.74C326.075 50.74 327.436 50.8787 329.048 51.156L329.854 51.312L329.802 53.678ZM339.441 53.418H335.853V59.138C335.853 60.1953 335.931 60.8973 336.087 61.244C336.243 61.5907 336.642 61.764 337.283 61.764L339.415 61.686L339.545 63.948C338.384 64.1733 337.5 64.286 336.893 64.286C335.42 64.286 334.406 63.948 333.851 63.272C333.314 62.596 333.045 61.322 333.045 59.45V53.418H331.381V51H333.045V47.23H335.853V51H339.441V53.418ZM350.866 55.004V60.932C350.883 61.3133 350.978 61.5993 351.152 61.79C351.342 61.9633 351.628 62.076 352.01 62.128L351.932 64.286C350.441 64.286 349.288 63.9653 348.474 63.324C347.087 63.9653 345.692 64.286 344.288 64.286C341.705 64.286 340.414 62.908 340.414 60.152C340.414 58.8347 340.76 57.8813 341.454 57.292C342.164 56.7027 343.248 56.3473 344.704 56.226L348.058 55.94V55.004C348.058 54.3107 347.902 53.8253 347.59 53.548C347.295 53.2707 346.853 53.132 346.264 53.132C345.154 53.132 343.768 53.2013 342.104 53.34L341.272 53.392L341.168 51.39C343.057 50.9393 344.79 50.714 346.368 50.714C347.962 50.714 349.106 51.0607 349.8 51.754C350.51 52.43 350.866 53.5133 350.866 55.004ZM345.042 58.228C343.846 58.332 343.248 58.982 343.248 60.178C343.248 61.374 343.776 61.972 344.834 61.972C345.7 61.972 346.619 61.8333 347.59 61.556L348.058 61.4V57.942L345.042 58.228ZM352.555 51H355.337L358.093 61.582H358.795L361.551 51H364.359L359.419 69.59H356.637L358.197 64H355.961L352.555 51ZM370.207 51H372.989L375.043 61.582H375.563L378.033 51.26H380.945L383.415 61.582H383.935L385.963 51H388.771L386.015 64H381.517L379.489 55.082L377.461 64H372.963L370.207 51ZM390.658 64V51H393.492V64H390.658ZM390.658 48.79V45.8H393.492V48.79H390.658ZM403.403 53.418H399.815V59.138C399.815 60.1953 399.893 60.8973 400.049 61.244C400.205 61.5907 400.604 61.764 401.245 61.764L403.377 61.686L403.507 63.948C402.346 64.1733 401.462 64.286 400.855 64.286C399.382 64.286 398.368 63.948 397.813 63.272C397.276 62.596 397.007 61.322 397.007 59.45V53.418H395.343V51H397.007V47.23H399.815V51H403.403V53.418ZM408.042 64H405.208V45.592H408.042V51.676C409.324 51.0347 410.512 50.714 411.604 50.714C413.337 50.714 414.516 51.208 415.14 52.196C415.781 53.1667 416.102 54.7787 416.102 57.032V64H413.268V57.11C413.268 55.706 413.12 54.7093 412.826 54.12C412.531 53.5307 411.907 53.236 410.954 53.236C410.122 53.236 409.29 53.3747 408.458 53.652L408.042 53.808V64ZM422.878 64L427.272 46.19H433.018L437.438 64H434.526L433.564 60.178H426.726L425.764 64H422.878ZM429.508 48.608L427.298 57.63H432.992L430.808 48.608H429.508ZM446.431 57.188V54.64H451.501V63.688C451.033 63.8093 450.08 63.9393 448.641 64.078C447.22 64.2167 446.188 64.286 445.547 64.286C442.843 64.286 440.98 63.5407 439.957 62.05C438.934 60.5593 438.423 58.228 438.423 55.056C438.423 51.8667 438.943 49.544 439.983 48.088C441.04 46.632 442.86 45.904 445.443 45.904C446.968 45.904 448.684 46.0773 450.591 46.424L451.501 46.606L451.397 48.894C449.3 48.6167 447.419 48.478 445.755 48.478C444.091 48.478 442.947 48.946 442.323 49.882C441.716 50.818 441.413 52.5513 441.413 55.082C441.413 57.6127 441.699 59.3633 442.271 60.334C442.86 61.2873 444.039 61.764 445.807 61.764C447.072 61.764 448.017 61.686 448.641 61.53V57.188H446.431ZM464.586 64H454.602V46.19H457.488V61.426H464.586V64Z" fill="white"/>
</svg>
