<svg width="300" height="600" viewBox="0 0 300 600" fill="none" xmlns="http://www.w3.org/2000/svg">
<path d="M202.457 377.038L191.001 377.023V314.468H108.742V376.944H97.286V306.482H202.457V377.038ZM185.101 377.02L152.82 376.987V320.371H185.101V377.023V377.02ZM146.923 376.98L114.642 376.944V320.368H146.923V376.98ZM221.819 302.016L200.993 267.308C200.465 266.423 199.494 265.877 198.466 265.877H178.133V271.774H196.794L214.078 300.585H85.6651L86.1361 299.794L102.949 271.774H121.563V265.877H101.277C100.245 265.877 99.2779 266.423 98.7494 267.308L77.9238 302.016C77.3773 302.926 77.3629 304.062 77.8878 304.99C78.4092 305.91 79.3944 306.485 80.4551 306.485H91.3892V382.845L208.375 382.784L208.357 306.485H219.291C220.352 306.485 221.337 305.914 221.858 304.99C222.383 304.065 222.365 302.926 221.823 302.016" fill="white"/>
<path d="M115.142 376.441L146.42 376.473V320.868H115.142V376.441ZM147.423 377.487H146.923L114.138 377.448V319.868H147.423V377.487ZM153.319 376.484L184.597 376.513V320.868H153.319V376.481V376.484ZM185.604 377.523H185.101L152.316 377.487V319.868H185.601V377.527L185.604 377.523ZM191.501 376.524L201.953 376.535V306.985H97.7858V376.445H108.238V313.968H191.501V376.524ZM202.956 377.545H202.453L190.494 377.527V314.971H109.241V377.448H96.7826V305.982H202.96V377.545H202.956ZM101.277 266.38C100.421 266.38 99.6159 266.833 99.1772 267.567L78.3516 302.275C77.8986 303.03 77.8878 303.976 78.3193 304.742C78.7544 305.504 79.567 305.982 80.4479 305.982H91.8854V382.338L207.864 382.28L207.846 305.982H219.288C220.169 305.982 220.981 305.504 221.416 304.742C221.851 303.976 221.84 303.03 221.387 302.275L200.562 267.567C200.123 266.833 199.321 266.38 198.462 266.38H178.629V271.274H197.074L197.222 271.518L214.962 301.088H84.7805L85.701 299.539L102.661 271.274H121.06V266.38H101.273H101.277ZM90.8858 383.352V306.989H80.4515C79.211 306.989 78.0568 306.32 77.4492 305.241C76.8343 304.159 76.8523 302.829 77.4923 301.764L98.3179 267.049C98.9363 266.014 100.065 265.374 101.277 265.374H122.067V272.274H103.233L86.5496 300.082H213.189L196.51 272.274H177.629V265.374H198.466C199.674 265.374 200.806 266.014 201.425 267.049L222.25 301.757C222.89 302.822 222.908 304.152 222.294 305.234C221.682 306.316 220.532 306.982 219.291 306.982H208.86L208.878 383.283L90.8858 383.348V383.352Z" fill="white"/>
<path d="M127.913 269.775C127.913 279.094 133.756 287.037 141.976 290.154V249.398C133.756 252.516 127.913 260.459 127.913 269.775Z" fill="white"/>
<path d="M149.688 248C149.084 248 148.487 248.022 147.897 248.068V249.6H148.009C156.308 249.661 162.988 255.989 162.931 263.738C162.877 271.45 156.153 277.66 147.901 277.653V291.489C148.491 291.539 149.088 291.557 149.692 291.557C161.715 291.557 171.47 281.806 171.47 269.778C171.47 257.751 161.712 248 149.688 248Z" fill="white"/>
</svg>
