<svg width="125" height="14" viewBox="0 0 125 14" fill="none" xmlns="http://www.w3.org/2000/svg">
<path d="M3.6719 12.9051V3.73435H0V0.958031H10.5142V3.73435H6.87809V12.9051H3.6719Z" fill="white"/>
<path d="M11.588 12.9051V0.958031H14.7584V5.32849H19.1647V0.958031H22.3351V12.9051H19.1647V8.23018H14.7584V12.9051H11.588Z" fill="white"/>
<path d="M23.1183 12.9051L27.5066 0.958031H31.1427L35.3699 12.9051H31.9487L31.1785 10.4333H27.1842L26.3961 12.9051H23.1183ZM27.8291 8.12271H30.5337L29.2083 3.73435L27.8291 8.12271Z" fill="white"/>
<path d="M37.1437 12.9051V3.73435H33.4718V0.958031H43.986V3.73435H40.3499V12.9051H37.1437Z" fill="white"/>
<path d="M44.7374 5.40013L45.2031 0.958031H48.3556L46.9764 5.40013H44.7374Z" fill="white"/>
<path d="M47.5661 11.4364L49.4826 9.12577C49.817 9.46012 50.2528 9.76462 50.7902 10.0393C51.3395 10.3139 51.9306 10.4512 52.5634 10.4512C52.8858 10.4512 53.1963 10.3856 53.4948 10.2542C53.7934 10.1229 53.9426 9.87209 53.9426 9.50192C53.9426 9.19145 53.7814 8.93471 53.459 8.73171C53.1366 8.51677 52.6769 8.31377 52.0798 8.12271L51.4171 7.90777C50.9275 7.7406 50.4379 7.51969 49.9483 7.24504C49.4707 6.95845 49.0707 6.59425 48.7482 6.15243C48.4378 5.7106 48.2825 5.16728 48.2825 4.52246C48.2825 3.78211 48.4557 3.11938 48.802 2.53426C49.1602 1.94915 49.6856 1.48941 50.3782 1.15506C51.0708 0.808767 51.9126 0.63562 52.9038 0.63562C53.6919 0.63562 54.3725 0.725179 54.9457 0.904296C55.5308 1.08341 56.0144 1.29238 56.3965 1.53121C56.7787 1.77003 57.0593 1.98497 57.2384 2.17603L55.6263 4.21796C55.2084 3.90749 54.7725 3.65673 54.3188 3.46567C53.865 3.26267 53.3993 3.16117 52.9217 3.16117C52.6112 3.16117 52.3127 3.23282 52.0261 3.37611C51.7514 3.50746 51.6141 3.74032 51.6141 4.07467C51.6141 4.44484 51.7813 4.71352 52.1156 4.88069C52.45 5.04787 52.8739 5.21505 53.3874 5.38222L53.9606 5.56134C54.3666 5.68075 54.7725 5.83599 55.1785 6.02704C55.5965 6.20616 55.9786 6.43901 56.3249 6.7256C56.6712 7.01219 56.9458 7.37639 57.1488 7.81821C57.3638 8.2481 57.4712 8.77948 57.4712 9.41236C57.4712 10.1408 57.2503 10.7916 56.8085 11.3647C56.3786 11.9379 55.7935 12.3857 55.0532 12.7081C54.3248 13.0305 53.5128 13.1917 52.6172 13.1917C51.4231 13.1917 50.42 13.0305 49.608 12.7081C48.808 12.3857 48.1273 11.9618 47.5661 11.4364Z" fill="white"/>
<path d="M60.2507 12.8858L64.66 0.881867H68.3133L72.5606 12.8858H69.1232L68.3493 10.4022H64.336L63.5442 12.8858H60.2507ZM64.9839 8.08063H67.7015L66.3697 3.67139L64.9839 8.08063Z" fill="#FFD000"/>
<path d="M77.1507 12.8858V0.881867H82.0458C83.3296 0.881867 84.3614 1.22381 85.1413 1.90769C85.9212 2.57958 86.3111 3.56341 86.3111 4.85919C86.3111 5.67505 86.1311 6.38892 85.7712 7.00082C85.4113 7.60071 84.9193 8.06863 84.2954 8.40458C83.6716 8.72852 82.9517 8.89049 82.1358 8.89049H80.2641V12.8858H77.1507ZM80.2641 6.38892H81.7759C82.2078 6.38892 82.5497 6.25095 82.8017 5.97499C83.0537 5.69904 83.1796 5.3451 83.1796 4.91318C83.1796 4.45725 83.0597 4.09132 82.8197 3.81536C82.5797 3.53941 82.2258 3.40144 81.7579 3.40144H80.2641V6.38892Z" fill="#FFD000"/>
<path d="M87.3492 12.8858V0.881867H90.5346V10.0783H96.0957V12.8858H87.3492Z" fill="#FFD000"/>
<path d="M96.935 8.20661V0.881867H100.121V7.91866C100.121 8.57855 100.27 9.11845 100.57 9.53838C100.882 9.95831 101.392 10.1683 102.1 10.1683C102.808 10.1683 103.312 9.95831 103.612 9.53838C103.912 9.10646 104.062 8.56655 104.062 7.91866V0.881867H107.283V8.20661C107.283 9.22644 107.061 10.1143 106.617 10.8702C106.173 11.614 105.562 12.1899 104.782 12.5979C104.014 12.9938 103.126 13.1918 102.118 13.1918C101.11 13.1918 100.216 12.9938 99.4366 12.5979C98.6568 12.2019 98.0449 11.632 97.6009 10.8882C97.157 10.1323 96.935 9.23843 96.935 8.20661Z" fill="#FFD000"/>
<path d="M108.193 11.4101L110.118 9.08846C110.454 9.4244 110.892 9.73035 111.432 10.0063C111.984 10.2823 112.578 10.4202 113.214 10.4202C113.538 10.4202 113.85 10.3542 114.15 10.2223C114.449 10.0903 114.599 9.83833 114.599 9.46639C114.599 9.15445 114.437 8.89649 114.114 8.69253C113.79 8.47656 113.328 8.2726 112.728 8.08063L112.062 7.86467C111.57 7.6967 111.078 7.47474 110.586 7.19878C110.106 6.91083 109.704 6.5449 109.38 6.10097C109.068 5.65705 108.912 5.11114 108.912 4.46325C108.912 3.71938 109.086 3.05349 109.434 2.4656C109.794 1.8777 110.322 1.41578 111.018 1.07983C111.714 0.731893 112.56 0.557922 113.556 0.557922C114.347 0.557922 115.031 0.647907 115.607 0.827877C116.195 1.00785 116.681 1.21781 117.065 1.45777C117.449 1.69773 117.731 1.91369 117.911 2.10566L116.291 4.15731C115.871 3.84536 115.433 3.5934 114.977 3.40144C114.521 3.19747 114.054 3.09549 113.574 3.09549C113.262 3.09549 112.962 3.16748 112.674 3.31145C112.398 3.44343 112.26 3.67739 112.26 4.01333C112.26 4.38527 112.428 4.65522 112.764 4.82319C113.1 4.99116 113.526 5.15913 114.042 5.3271L114.617 5.50707C115.025 5.62705 115.433 5.78303 115.841 5.97499C116.261 6.15496 116.645 6.38892 116.993 6.67687C117.341 6.96482 117.617 7.33076 117.821 7.77468C118.037 8.20661 118.145 8.74052 118.145 9.37641C118.145 10.1083 117.923 10.7622 117.479 11.3381C117.047 11.914 116.459 12.3639 115.715 12.6878C114.983 13.0118 114.168 13.1738 113.268 13.1738C112.068 13.1738 111.06 13.0118 110.244 12.6878C109.44 12.3639 108.756 11.938 108.193 11.4101Z" fill="#FFD000"/>
<path d="M120.816 12.8704V11.0235H119.011V9.20414H120.816V7.32965H122.691V9.20414H124.51V11.0235H122.691V12.8704H120.816Z" fill="#FFD000"/>
</svg>
