<?xml version="1.0" encoding="utf-8"?>
<!-- Generator: Adobe Illustrator 27.7.0, SVG Export Plug-In . SVG Version: 6.00 Build 0)  -->
<svg version="1.1" id="Layer_1" xmlns="http://www.w3.org/2000/svg" xmlns:xlink="http://www.w3.org/1999/xlink" x="0px" y="0px"
	 viewBox="0 0 63 67" style="enable-background:new 0 0 63 67;" xml:space="preserve">
<style type="text/css">
	.st0{clip-path:url(#SVGID_00000107561136944857461740000009477726531409297834_);}
	.st1{fill:#00224D;}
	.st2{fill:#B2BECC;}
	.st3{fill:#FAD506;}
	.st4{fill:#4C6888;}
</style>
<g>
	<defs>
		<rect id="SVGID_1_" y="0" width="62.5" height="66.8"/>
	</defs>
	<clipPath id="SVGID_00000065032998088234261220000013859535818601879950_">
		<use xlink:href="#SVGID_1_"  style="overflow:visible;"/>
	</clipPath>
	<g style="clip-path:url(#SVGID_00000065032998088234261220000013859535818601879950_);">
		<path class="st1" d="M62.5,60.8h-46v6h46V60.8z"/>
		<path class="st2" d="M22.9,39.9c10.6,0,19.3-8.6,19.3-19.3S33.5,1.4,22.9,1.4C12.2,1.4,3.6,10,3.6,20.7S12.2,39.9,22.9,39.9z"/>
		<path class="st2" d="M45.9,60.7c0.5,3.3-1.8,6-5.1,6H5.2c-3.3,0-5.6-2.7-5.1-6l4.2-12.3c0.5-3.3,3.6-6,6.9-6h23.7
			c3.3,0,6.4,2.7,6.9,6L45.9,60.7z"/>
		<path class="st3" d="M34.9,50.4H27v7.9h7.9V50.4z"/>
		<path class="st4" d="M45.1,20.5h-3.3v5.2h3.3V20.5z"/>
		<path class="st4" d="M47.2,21.4h-3.3v3.4h3.3V21.4z"/>
		<path class="st4" d="M43.5,20.7h-1.6c0-10.5-8.5-19-19-19s-19,8.5-19,19H2.2C2.2,9.3,11.5,0,22.9,0C34.3,0,43.5,9.3,43.5,20.7z"/>
	</g>
</g>
</svg>
