<?xml version="1.0" encoding="utf-8"?>
<!-- Generator: Adobe Illustrator 27.7.0, SVG Export Plug-In . SVG Version: 6.00 Build 0)  -->
<svg version="1.1" id="Layer_1" xmlns="http://www.w3.org/2000/svg" xmlns:xlink="http://www.w3.org/1999/xlink" x="0px" y="0px"
	 viewBox="0 0 121.4 35.4" style="enable-background:new 0 0 121.4 35.4;" xml:space="preserve">
<style type="text/css">
	.st0{fill:#FFFFFF;}
</style>
<path class="st0" d="M0,15.1L5.4,0.4h4.5L15,15.1h-4.2l-0.9-3H5l-1,3H0z M5.8,9.2h3.3L7.5,3.8L5.8,9.2z M19.7,15.1l0.7-14.7h3.7
	l3.6,6.4l3.5-6.4h3.7l0.7,14.7h-3.9l-0.4-8.6l-2.6,5h-2.1l-2.9-5l-0.3,8.6H19.7z M44.8,15.4c-1.1,0-2.1-0.2-3.1-0.6
	c-0.9-0.4-1.7-0.9-2.4-1.6c-0.7-0.7-1.2-1.5-1.6-2.5c-0.4-0.9-0.6-2-0.6-3.1s0.2-2.1,0.6-3.1c0.4-0.9,0.9-1.8,1.6-2.4
	C40,1.5,40.8,1,41.7,0.6c0.9-0.4,2-0.6,3.1-0.6s2.1,0.2,3,0.6c0.9,0.4,1.8,0.9,2.4,1.6s1.2,1.5,1.6,2.4c0.4,0.9,0.6,2,0.6,3.1
	s-0.2,2.1-0.6,3.1c-0.4,0.9-0.9,1.8-1.6,2.5c-0.7,0.7-1.5,1.2-2.4,1.6C46.9,15.2,45.9,15.4,44.8,15.4z M44.8,11.8
	c0.8,0,1.4-0.2,2-0.6c0.5-0.4,1-0.9,1.2-1.5c0.3-0.6,0.4-1.3,0.4-2s-0.1-1.4-0.4-2c-0.3-0.6-0.7-1.1-1.2-1.5c-0.5-0.4-1.2-0.6-2-0.6
	c-0.8,0-1.4,0.2-2,0.6c-0.5,0.4-0.9,0.9-1.2,1.5c-0.3,0.6-0.4,1.3-0.4,2s0.1,1.4,0.4,2c0.3,0.6,0.7,1.1,1.2,1.5
	C43.3,11.6,44,11.8,44.8,11.8z M54.2,15.1V0.4h6.1c1.6,0,2.8,0.4,3.8,1.2c1,0.8,1.4,2,1.4,3.6c0,1-0.2,1.8-0.6,2.5
	c-0.4,0.7-1,1.3-1.7,1.7l3.1,5.6h-4.2l-2.5-5H58v5H54.2z M58,7h1.9c0.5,0,0.9-0.2,1.3-0.5c0.3-0.3,0.5-0.7,0.5-1.3
	c0-0.6-0.2-1-0.5-1.3c-0.3-0.3-0.7-0.5-1.3-0.5H58V7z M67.8,15.1V0.4h10.6v3.4h-6.7V6h5.5v3.2h-5.5v2.5h7.1v3.4H67.8z M12.2,29.9
	l2.6,2.5c-1.6,2.1-3.8,3.1-6.5,3.1c-1.5,0-2.8-0.3-4-1c-1.1-0.7-2-1.6-2.7-2.7c-0.6-1.2-1-2.5-1-4c0-1.5,0.3-2.8,1-4
	c0.6-1.2,1.5-2.1,2.7-2.8s2.5-1,4-1c1.3,0,2.4,0.2,3.5,0.6c1.1,0.4,2,1.2,2.8,2.2L12,25.5c-0.4-0.6-0.9-1-1.5-1.3
	c-0.6-0.3-1.2-0.5-2-0.5c-0.8,0-1.5,0.2-2.1,0.5c-0.6,0.4-1,0.8-1.3,1.5c-0.3,0.6-0.5,1.3-0.5,2c0,0.8,0.2,1.5,0.5,2.1
	c0.3,0.6,0.8,1.1,1.4,1.5c0.6,0.4,1.3,0.5,2,0.5c0.9,0,1.6-0.2,2.1-0.5S11.7,30.5,12.2,29.9z M22.7,35.4c-1.1,0-2.1-0.2-3.1-0.6
	c-0.9-0.4-1.7-0.9-2.4-1.6c-0.7-0.7-1.2-1.5-1.6-2.5c-0.4-0.9-0.6-2-0.6-3.1c0-1.1,0.2-2.1,0.6-3.1c0.4-0.9,0.9-1.8,1.6-2.4
	c0.7-0.7,1.5-1.2,2.4-1.6c0.9-0.4,2-0.6,3.1-0.6s2.1,0.2,3,0.6c0.9,0.4,1.8,0.9,2.4,1.6c0.7,0.7,1.2,1.5,1.6,2.4
	c0.4,0.9,0.6,2,0.6,3.1c0,1.1-0.2,2.1-0.6,3.1c-0.4,0.9-0.9,1.8-1.6,2.5c-0.7,0.7-1.5,1.2-2.4,1.6C24.8,35.2,23.8,35.4,22.7,35.4z
	 M22.7,31.8c0.8,0,1.4-0.2,2-0.5c0.5-0.4,1-0.9,1.2-1.5c0.3-0.6,0.4-1.3,0.4-2c0-0.7-0.1-1.4-0.4-2c-0.3-0.6-0.7-1.1-1.2-1.5
	c-0.5-0.4-1.2-0.6-2-0.6c-0.8,0-1.4,0.2-2,0.6c-0.5,0.4-0.9,0.9-1.2,1.5c-0.3,0.6-0.4,1.3-0.4,2c0,0.7,0.1,1.4,0.4,2
	c0.3,0.6,0.7,1.1,1.2,1.5C21.3,31.6,21.9,31.8,22.7,31.8z M32.2,35.1V20.4h3.5l5.6,8.2v-8.2h3.9v14.7h-3.3L36,26.6v8.4H32.2z
	 M47.6,35.1V20.4h10.2v3.4h-6.3v2.8h4.9v3.2h-4.9v5.2H47.6z M59.4,35.1V20.4h3.9v14.7H59.4z M65.7,35.1V20.4h5.6
	c1.5,0,2.9,0.3,4,0.8c1.2,0.5,2.1,1.3,2.8,2.4c0.7,1.1,1,2.5,1,4.2c0,1.6-0.3,3-1,4c-0.7,1.1-1.6,1.9-2.8,2.4
	c-1.2,0.5-2.5,0.8-4,0.8H65.7z M69.6,31.6h1.6c1.3,0,2.2-0.4,2.9-1.1c0.7-0.7,1.1-1.7,1.1-2.8c0-1.2-0.3-2.1-1-2.8
	c-0.6-0.7-1.7-1.1-3-1.1h-1.6V31.6z M81.1,35.1V20.4h10.6v3.4H85V26h5.5v3.2H85v2.5h7.1v3.4H81.1z M93.9,35.1V20.4h3.5l5.6,8.2v-8.2
	h3.8v14.7h-3.3l-5.9-8.4v8.4H93.9z M113,35.1V23.8h-4.5v-3.4h12.9v3.4h-4.5v11.3H113z"/>
</svg>
