<svg width="130" height="24" viewBox="0 0 130 24" fill="none" xmlns="http://www.w3.org/2000/svg">
<path d="M7.55 19.25C3.7 19.25 0.925 16.725 0.925 12.6V12.4C0.925 8.35 3.7 5.65 7.425 5.65C10.675 5.65 13.6 7.575 13.6 12.25V13.125H4.025C4.125 15.6 5.375 17 7.625 17C9.45 17 10.4 16.275 10.625 15H13.55C13.125 17.75 10.9 19.25 7.55 19.25ZM4.075 11.1H10.6C10.45 8.85 9.3 7.85 7.425 7.85C5.6 7.85 4.375 9.075 4.075 11.1ZM15.802 19V5.925H18.827V8C19.452 6.725 20.902 5.65 23.052 5.65C25.677 5.65 27.527 7.175 27.527 10.775V19H24.502V11.05C24.502 9.075 23.702 8.175 21.902 8.175C20.202 8.175 18.827 9.225 18.827 11.3V19H15.802ZM36.2619 19.25C32.4119 19.25 29.6369 16.725 29.6369 12.6V12.4C29.6369 8.35 32.4119 5.65 36.1369 5.65C39.3869 5.65 42.3119 7.575 42.3119 12.25V13.125H32.7369C32.8369 15.6 34.0869 17 36.3369 17C38.1619 17 39.1119 16.275 39.3369 15H42.2619C41.8369 17.75 39.6119 19.25 36.2619 19.25ZM32.7869 11.1H39.3119C39.1619 8.85 38.0119 7.85 36.1369 7.85C34.3119 7.85 33.0869 9.075 32.7869 11.1ZM44.5139 19V5.925H47.5389V8.375C48.3639 6.725 49.5889 5.75 51.7889 5.725V8.55C49.1389 8.575 47.5389 9.425 47.5389 12.2V19H44.5139ZM59.2812 23.8C55.1812 23.8 53.3312 21.95 52.9812 19.45H56.0312C56.2812 20.75 57.2812 21.5 59.2562 21.5C61.6062 21.5 62.9062 20.325 62.9062 17.975V16.05C62.1812 17.3 60.5562 18.475 58.6312 18.475C55.3562 18.475 52.8312 16.025 52.8312 12.25V12.075C52.8312 8.4 55.3312 5.65 58.7062 5.65C60.8562 5.65 62.1562 6.625 62.9062 7.925V5.925H65.9312V18.025C65.9062 21.875 63.3312 23.8 59.2812 23.8ZM59.3812 16.15C61.4812 16.15 63.0062 14.65 63.0062 12.15V11.975C63.0062 9.5 61.6562 8.025 59.4812 8.025C57.2312 8.025 55.9312 9.65 55.9312 12.025V12.225C55.9312 14.65 57.4312 16.15 59.3812 16.15ZM73.3516 3.975L74.8266 0.1H78.1766L75.5766 3.975H73.3516ZM74.7766 19.25C70.9266 19.25 68.1516 16.725 68.1516 12.6V12.4C68.1516 8.35 70.9266 5.65 74.6516 5.65C77.9016 5.65 80.8266 7.575 80.8266 12.25V13.125H71.2516C71.3516 15.6 72.6016 17 74.8516 17C76.6766 17 77.6266 16.275 77.8516 15H80.7766C80.3516 17.75 78.1266 19.25 74.7766 19.25ZM71.3016 11.1H77.8266C77.6766 8.85 76.5266 7.85 74.6516 7.85C72.8266 7.85 71.6016 9.075 71.3016 11.1ZM87.4785 19.225C84.8785 19.225 83.5285 17.825 83.5285 15.35V8.2H81.7785V5.925H83.5285V3.05H86.5535V5.925H89.4285V8.2H86.5535V15.075C86.5535 16.225 87.1035 16.75 88.0535 16.75C88.6535 16.75 89.1035 16.675 89.5285 16.5V18.9C89.0535 19.075 88.4035 19.225 87.4785 19.225ZM91.832 19V5.925H94.857V19H91.832ZM93.307 3.775C92.307 3.775 91.507 3.025 91.507 2.05C91.507 1.05 92.307 0.300001 93.307 0.300001C94.307 0.300001 95.107 1.05 95.107 2.05C95.107 3.025 94.307 3.775 93.307 3.775ZM103.769 19.25C100.019 19.25 97.1691 16.8 97.1691 12.625V12.425C97.1691 8.275 100.119 5.65 103.769 5.65C106.669 5.65 109.394 6.95 109.744 10.55H106.819C106.569 8.8 105.419 8.075 103.819 8.075C101.744 8.075 100.269 9.675 100.269 12.375V12.575C100.269 15.425 101.669 16.925 103.894 16.925C105.494 16.925 106.869 15.975 107.044 14.125H109.819C109.594 17.125 107.319 19.25 103.769 19.25ZM115.349 19.25C112.949 19.25 110.974 18.1 110.974 15.375C110.974 12.325 113.924 11.225 117.674 11.225H119.299V10.55C119.299 8.8 118.699 7.925 116.924 7.925C115.349 7.925 114.574 8.675 114.424 9.975H111.499C111.749 6.925 114.174 5.65 117.099 5.65C120.024 5.65 122.324 6.85 122.324 10.425V19H119.349V17.4C118.499 18.525 117.349 19.25 115.349 19.25ZM116.074 17.075C117.924 17.075 119.299 16.1 119.299 14.425V13.125H117.749C115.449 13.125 113.974 13.65 113.974 15.25C113.974 16.35 114.574 17.075 116.074 17.075ZM127.091 19.175C125.991 19.175 125.116 18.325 125.116 17.225C125.116 16.125 125.991 15.25 127.091 15.25C128.216 15.25 129.091 16.125 129.091 17.225C129.091 18.325 128.216 19.175 127.091 19.175Z" fill="black"/>
</svg>
