<svg width="243" height="21" viewBox="0 0 243 21" fill="none" xmlns="http://www.w3.org/2000/svg">
<path d="M5.225 20.25C2.825 20.25 0.85 19.1 0.85 16.375C0.85 13.325 3.8 12.225 7.55 12.225H9.175V11.55C9.175 9.8 8.575 8.925 6.8 8.925C5.225 8.925 4.45 9.675 4.3 10.975H1.375C1.625 7.925 4.05 6.65 6.975 6.65C9.9 6.65 12.2 7.85 12.2 11.425V20H9.225V18.4C8.375 19.525 7.225 20.25 5.225 20.25ZM5.95 18.075C7.8 18.075 9.175 17.1 9.175 15.425V14.125H7.625C5.325 14.125 3.85 14.65 3.85 16.25C3.85 17.35 4.45 18.075 5.95 18.075ZM20.8922 20.25C17.1422 20.25 14.2922 17.8 14.2922 13.625V13.425C14.2922 9.275 17.2422 6.65 20.8922 6.65C23.7922 6.65 26.5172 7.95 26.8672 11.55H23.9422C23.6922 9.8 22.5422 9.075 20.9422 9.075C18.8672 9.075 17.3922 10.675 17.3922 13.375V13.575C17.3922 16.425 18.7922 17.925 21.0172 17.925C22.6172 17.925 23.9922 16.975 24.1672 15.125H26.9422C26.7172 18.125 24.4422 20.25 20.8922 20.25ZM34.8971 17.9C37.1471 17.9 38.4971 16.225 38.4971 13.55V13.375C38.4971 10.675 37.1471 9.025 34.8971 9.025C32.6471 9.025 31.2721 10.65 31.2721 13.35V13.55C31.2721 16.225 32.5971 17.9 34.8971 17.9ZM34.8721 20.25C31.0221 20.25 28.1721 17.575 28.1721 13.6V13.4C28.1721 9.35 31.0471 6.65 34.8971 6.65C38.7221 6.65 41.5971 9.325 41.5971 13.325V13.525C41.5971 17.6 38.7221 20.25 34.8721 20.25ZM43.8303 20V6.925H46.8553V9C47.4803 7.725 48.9303 6.65 51.0803 6.65C53.7053 6.65 55.5553 8.175 55.5553 11.775V20H52.5303V12.05C52.5303 10.075 51.7303 9.175 49.9303 9.175C48.2303 9.175 46.8553 10.225 46.8553 12.3V20H43.8303ZM62.9902 20.225C60.3902 20.225 59.0402 18.825 59.0402 16.35V9.2H57.2902V6.925H59.0402V4.05H62.0652V6.925H64.9402V9.2H62.0652V16.075C62.0652 17.225 62.6152 17.75 63.5652 17.75C64.1652 17.75 64.6152 17.675 65.0402 17.5V19.9C64.5652 20.075 63.9152 20.225 62.9902 20.225ZM73.0187 20.25C69.1687 20.25 66.3937 17.725 66.3937 13.6V13.4C66.3937 9.35 69.1687 6.65 72.8937 6.65C76.1437 6.65 79.0687 8.575 79.0687 13.25V14.125H69.4937C69.5937 16.6 70.8437 18 73.0937 18C74.9187 18 75.8687 17.275 76.0937 16H79.0187C78.5937 18.75 76.3687 20.25 73.0187 20.25ZM69.5437 12.1H76.0687C75.9187 9.85 74.7687 8.85 72.8937 8.85C71.0687 8.85 69.8437 10.075 69.5437 12.1ZM86.9957 20.25C83.2457 20.25 80.3957 17.8 80.3957 13.625V13.425C80.3957 9.275 83.3457 6.65 86.9957 6.65C89.8957 6.65 92.6207 7.95 92.9707 11.55H90.0457C89.7957 9.8 88.6457 9.075 87.0457 9.075C84.9707 9.075 83.4957 10.675 83.4957 13.375V13.575C83.4957 16.425 84.8957 17.925 87.1207 17.925C88.7207 17.925 90.0957 16.975 90.2707 15.125H93.0457C92.8207 18.125 90.5457 20.25 86.9957 20.25ZM100.901 20.25C97.0506 20.25 94.2756 17.725 94.2756 13.6V13.4C94.2756 9.35 97.0506 6.65 100.776 6.65C104.026 6.65 106.951 8.575 106.951 13.25V14.125H97.3756C97.4756 16.6 98.7256 18 100.976 18C102.801 18 103.751 17.275 103.976 16H106.901C106.476 18.75 104.251 20.25 100.901 20.25ZM97.4256 12.1H103.951C103.801 9.85 102.651 8.85 100.776 8.85C98.9506 8.85 97.7256 10.075 97.4256 12.1ZM109.153 20V6.925H112.178V9C112.803 7.725 114.253 6.65 116.403 6.65C119.028 6.65 120.878 8.175 120.878 11.775V20H117.853V12.05C117.853 10.075 117.053 9.175 115.253 9.175C113.553 9.175 112.178 10.225 112.178 12.3V20H109.153ZM128.762 20.25C125.487 20.25 123.012 17.925 123.012 13.675V13.475C123.012 9.3 125.487 6.65 128.887 6.65C131.012 6.65 132.337 7.625 133.062 8.925V0.875H136.087V20H133.062V17.8C132.362 19.1 130.687 20.25 128.762 20.25ZM129.512 17.85C131.612 17.85 133.162 16.45 133.162 13.525V13.325C133.162 10.45 131.837 9.025 129.637 9.025C127.412 9.025 126.112 10.575 126.112 13.4V13.6C126.112 16.475 127.562 17.85 129.512 17.85ZM145.033 17.9C147.283 17.9 148.633 16.225 148.633 13.55V13.375C148.633 10.675 147.283 9.025 145.033 9.025C142.783 9.025 141.408 10.65 141.408 13.35V13.55C141.408 16.225 142.733 17.9 145.033 17.9ZM145.008 20.25C141.158 20.25 138.308 17.575 138.308 13.6V13.4C138.308 9.35 141.183 6.65 145.033 6.65C148.858 6.65 151.733 9.325 151.733 13.325V13.525C151.733 17.6 148.858 20.25 145.008 20.25ZM159.423 20V6.925H162.448V9C163.073 7.725 164.523 6.65 166.673 6.65C169.298 6.65 171.148 8.175 171.148 11.775V20H168.123V12.05C168.123 10.075 167.323 9.175 165.523 9.175C163.823 9.175 162.448 10.225 162.448 12.3V20H159.423ZM177.558 20.25C175.158 20.25 173.183 19.1 173.183 16.375C173.183 13.325 176.133 12.225 179.883 12.225H181.508V11.55C181.508 9.8 180.908 8.925 179.133 8.925C177.558 8.925 176.783 9.675 176.633 10.975H173.708C173.958 7.925 176.383 6.65 179.308 6.65C182.233 6.65 184.533 7.85 184.533 11.425V20H181.558V18.4C180.708 19.525 179.558 20.25 177.558 20.25ZM178.283 18.075C180.133 18.075 181.508 17.1 181.508 15.425V14.125H179.958C177.658 14.125 176.183 14.65 176.183 16.25C176.183 17.35 176.783 18.075 178.283 18.075ZM193.207 20V2.125H199.607C203.282 2.125 205.457 3.525 205.457 6.775V6.875C205.457 8.65 204.657 10.05 202.632 10.675C205.057 11.2 206.207 12.525 206.207 14.9V15C206.207 18.325 204.007 20 200.082 20H193.207ZM196.457 17.625H199.682C201.907 17.625 202.932 16.625 202.932 14.775V14.675C202.932 12.825 201.907 11.9 199.457 11.9H196.457V17.625ZM196.457 9.65H199.207C201.407 9.65 202.257 8.85 202.257 7.025V6.925C202.257 5.225 201.282 4.5 199.157 4.5H196.457V9.65ZM208.82 20V2.125H212.145V9.725H220.17V2.125H223.52V20H220.17V12.4H212.145V20H208.82ZM227.095 20V2.125H232.845C236.845 2.125 239.47 3.9 239.47 7.65V7.75C239.47 11.525 236.745 13.2 232.92 13.2H230.42V20H227.095ZM230.42 10.8H232.845C235.045 10.8 236.22 9.725 236.22 7.75V7.65C236.22 5.525 234.97 4.7 232.845 4.7H230.42V10.8ZM240.62 20.175C239.52 20.175 238.645 19.325 238.645 18.225C238.645 17.125 239.52 16.25 240.62 16.25C241.745 16.25 242.62 17.125 242.62 18.225C242.62 19.325 241.745 20.175 240.62 20.175Z" fill="#DD5900"/>
</svg>
