<svg width="181" height="25" viewBox="0 0 181 25" fill="none" xmlns="http://www.w3.org/2000/svg">
<path d="M0.8 23.475V5.925H3.825V8.025C4.55 6.775 6.175 5.65 8.1 5.65C11.375 5.65 13.9 8.075 13.9 12.3V12.5C13.9 16.7 11.475 19.25 8.1 19.25C6.025 19.25 4.525 18.225 3.825 16.95V23.475H0.8ZM7.35 16.85C9.575 16.85 10.8 15.35 10.8 12.55V12.35C10.8 9.45 9.3 8.025 7.325 8.025C5.225 8.025 3.725 9.45 3.725 12.35V12.55C3.725 15.475 5.15 16.85 7.35 16.85ZM19.5453 19.25C17.1453 19.25 15.1703 18.1 15.1703 15.375C15.1703 12.325 18.1203 11.225 21.8703 11.225H23.4953V10.55C23.4953 8.8 22.8953 7.925 21.1203 7.925C19.5453 7.925 18.7703 8.675 18.6203 9.975H15.6953C15.9453 6.925 18.3703 5.65 21.2953 5.65C24.2203 5.65 26.5203 6.85 26.5203 10.425V19H23.5453V17.4C22.6953 18.525 21.5453 19.25 19.5453 19.25ZM20.2703 17.075C22.1203 17.075 23.4953 16.1 23.4953 14.425V13.125H21.9453C19.6453 13.125 18.1703 13.65 18.1703 15.25C18.1703 16.35 18.7703 17.075 20.2703 17.075ZM29.4875 19V5.925H32.5125V8.375C33.3375 6.725 34.5625 5.75 36.7625 5.725V8.55C34.1125 8.575 32.5125 9.425 32.5125 12.2V19H29.4875ZM42.1049 19.25C39.7049 19.25 37.7299 18.1 37.7299 15.375C37.7299 12.325 40.6799 11.225 44.4299 11.225H46.0549V10.55C46.0549 8.8 45.4549 7.925 43.6799 7.925C42.1049 7.925 41.3299 8.675 41.1799 9.975H38.2549C38.5049 6.925 40.9299 5.65 43.8549 5.65C46.7799 5.65 49.0799 6.85 49.0799 10.425V19H46.1049V17.4C45.2549 18.525 44.1049 19.25 42.1049 19.25ZM42.8299 17.075C44.6799 17.075 46.0549 16.1 46.0549 14.425V13.125H44.5049C42.2049 13.125 40.7299 13.65 40.7299 15.25C40.7299 16.35 41.3299 17.075 42.8299 17.075ZM60.9291 19.25C58.5291 19.25 56.5541 18.1 56.5541 15.375C56.5541 12.325 59.5041 11.225 63.2541 11.225H64.8791V10.55C64.8791 8.8 64.2791 7.925 62.5041 7.925C60.9291 7.925 60.1541 8.675 60.0041 9.975H57.0791C57.3291 6.925 59.7541 5.65 62.6791 5.65C65.6041 5.65 67.9041 6.85 67.9041 10.425V19H64.9291V17.4C64.0791 18.525 62.9291 19.25 60.9291 19.25ZM61.6541 17.075C63.5041 17.075 64.8791 16.1 64.8791 14.425V13.125H63.3291C61.0291 13.125 59.5541 13.65 59.5541 15.25C59.5541 16.35 60.1541 17.075 61.6541 17.075ZM80.7783 19.225C78.1783 19.225 76.8283 17.825 76.8283 15.35V8.2H75.0783V5.925H76.8283V3.05H79.8533V5.925H82.7283V8.2H79.8533V15.075C79.8533 16.225 80.4033 16.75 81.3533 16.75C81.9533 16.75 82.4033 16.675 82.8283 16.5V18.9C82.3533 19.075 81.7033 19.225 80.7783 19.225ZM85.0568 19V5.925H88.0818V8.375C88.9068 6.725 90.1318 5.75 92.3318 5.725V8.55C89.6818 8.575 88.0818 9.425 88.0818 12.2V19H85.0568ZM97.6742 19.25C95.2742 19.25 93.2992 18.1 93.2992 15.375C93.2992 12.325 96.2492 11.225 99.9992 11.225H101.624V10.55C101.624 8.8 101.024 7.925 99.2492 7.925C97.6742 7.925 96.8992 8.675 96.7492 9.975H93.8242C94.0742 6.925 96.4992 5.65 99.4242 5.65C102.349 5.65 104.649 6.85 104.649 10.425V19H101.674V17.4C100.824 18.525 99.6742 19.25 97.6742 19.25ZM98.3992 17.075C100.249 17.075 101.624 16.1 101.624 14.425V13.125H100.074C97.7742 13.125 96.2992 13.65 96.2992 15.25C96.2992 16.35 96.8992 17.075 98.3992 17.075ZM107.616 19V5.925H110.641V8C111.266 6.725 112.716 5.65 114.866 5.65C117.491 5.65 119.341 7.175 119.341 10.775V19H116.316V11.05C116.316 9.075 115.516 8.175 113.716 8.175C112.016 8.175 110.641 9.225 110.641 11.3V19H107.616ZM126.801 19.25C123.426 19.25 121.451 17.7 121.326 14.925H124.176C124.326 16.25 125.001 17.025 126.776 17.025C128.401 17.025 129.126 16.45 129.126 15.35C129.126 14.275 128.251 13.875 126.326 13.55C122.876 13 121.601 12.025 121.601 9.575C121.601 6.95 124.051 5.65 126.501 5.65C129.176 5.65 131.301 6.65 131.626 9.6H128.826C128.576 8.4 127.901 7.85 126.501 7.85C125.201 7.85 124.426 8.475 124.426 9.4C124.426 10.35 125.051 10.725 127.126 11.075C130.201 11.55 132.026 12.3 132.026 15.075C132.026 17.725 130.151 19.25 126.801 19.25ZM134.255 19V5.925H137.28V19H134.255ZM135.73 3.775C134.73 3.775 133.93 3.025 133.93 2.05C133.93 1.05 134.73 0.300001 135.73 0.300001C136.73 0.300001 137.53 1.05 137.53 2.05C137.53 3.025 136.73 3.775 135.73 3.775ZM145.742 24.475C144.167 24.475 143.142 23.625 142.992 22.275H144.642C144.717 22.7 145.042 23.1 145.642 23.1C146.217 23.1 146.567 22.75 146.567 22.25C146.567 21.775 146.217 21.45 145.692 21.45C145.342 21.45 145.092 21.575 144.942 21.675L144.092 20.875L145.092 19.175C141.892 18.75 139.592 16.4 139.592 12.625V12.425C139.592 8.275 142.542 5.65 146.192 5.65C149.092 5.65 151.817 6.95 152.167 10.55H149.242C148.992 8.8 147.842 8.075 146.242 8.075C144.167 8.075 142.692 9.675 142.692 12.375V12.575C142.692 15.425 144.092 16.925 146.317 16.925C147.917 16.925 149.292 15.975 149.467 14.125H152.242C152.017 17.025 149.892 19.1 146.542 19.25L145.967 20.25C147.217 20.1 148.467 20.75 148.467 22.325C148.467 23.725 147.292 24.475 145.742 24.475ZM157.772 19.25C155.372 19.25 153.397 18.1 153.397 15.375C153.397 12.325 156.347 11.225 160.097 11.225H161.722V10.55C161.722 8.8 161.122 7.925 159.347 7.925C157.772 7.925 156.997 8.675 156.847 9.975H153.922C154.172 6.925 156.597 5.65 159.522 5.65C162.447 5.65 164.747 6.85 164.747 10.425V19H161.772V17.4C160.922 18.525 159.772 19.25 157.772 19.25ZM158.497 17.075C160.347 17.075 161.722 16.1 161.722 14.425V13.125H160.172C157.872 13.125 156.397 13.65 156.397 15.25C156.397 16.35 156.997 17.075 158.497 17.075ZM160.972 3.85C159.772 3.85 158.922 2.85 158.197 2.85C157.747 2.85 157.372 3.275 157.272 3.85H155.397C155.597 1.75 156.672 0.575 158.072 0.575C159.222 0.575 160.097 1.55 160.872 1.55C161.322 1.55 161.672 1.15 161.772 0.550001H163.647C163.447 2.65 162.347 3.85 160.972 3.85ZM173.564 16.9C175.814 16.9 177.164 15.225 177.164 12.55V12.375C177.164 9.675 175.814 8.025 173.564 8.025C171.314 8.025 169.939 9.65 169.939 12.35V12.55C169.939 15.225 171.264 16.9 173.564 16.9ZM173.539 19.25C169.689 19.25 166.839 16.575 166.839 12.6V12.4C166.839 8.35 169.714 5.65 173.564 5.65C177.389 5.65 180.264 8.325 180.264 12.325V12.525C180.264 16.6 177.389 19.25 173.539 19.25Z" fill="black"/>
</svg>
