<svg width="222" height="20" viewBox="0 0 222 20" fill="none" xmlns="http://www.w3.org/2000/svg">
<path d="M9.25 17.1984C12.625 17.1984 14.75 14.6234 14.75 10.7484V10.5484C14.75 6.87341 12.7 4.14841 9.2 4.14841C5.7 4.14841 3.625 6.72341 3.625 10.5734V10.7734C3.625 14.6734 6 17.1984 9.25 17.1984ZM9.2 19.8734C3.725 19.8734 0.15 15.9484 0.15 10.7984V10.5984C0.15 5.37341 3.9 1.49841 9.2 1.49841C14.525 1.49841 18.2 5.27341 18.2 10.5234V10.7234C18.2 15.9484 14.625 19.8734 9.2 19.8734ZM31.8434 19.8734C28.0934 19.8734 25.2434 17.4234 25.2434 13.2484V13.0484C25.2434 8.89841 28.1934 6.27341 31.8434 6.27341C34.7434 6.27341 37.4684 7.57341 37.8184 11.1734H34.8934C34.6434 9.42341 33.4934 8.69841 31.8934 8.69841C29.8184 8.69841 28.3434 10.2984 28.3434 12.9984V13.1984C28.3434 16.0484 29.7434 17.5484 31.9684 17.5484C33.5684 17.5484 34.9434 16.5984 35.1184 14.7484H37.8934C37.6684 17.7484 35.3934 19.8734 31.8434 19.8734ZM45.8482 17.5234C48.0982 17.5234 49.4482 15.8484 49.4482 13.1734V12.9984C49.4482 10.2984 48.0982 8.64841 45.8482 8.64841C43.5982 8.64841 42.2232 10.2734 42.2232 12.9734V13.1734C42.2232 15.8484 43.5482 17.5234 45.8482 17.5234ZM45.8232 19.8734C41.9732 19.8734 39.1232 17.1984 39.1232 13.2234V13.0234C39.1232 8.97341 41.9982 6.27341 45.8482 6.27341C49.6732 6.27341 52.5482 8.94841 52.5482 12.9484V13.1484C52.5482 17.2234 49.6732 19.8734 45.8232 19.8734ZM62.0814 19.8734C60.0064 19.8734 58.5064 18.8484 57.8064 17.5234V19.6234H54.7814V0.498413H57.8064V8.64841C58.5314 7.39841 60.1564 6.27341 62.0814 6.27341C65.3564 6.27341 67.8814 8.69841 67.8814 12.9234V13.1234C67.8814 17.3234 65.4564 19.8734 62.0814 19.8734ZM61.3314 17.4734C63.5564 17.4734 64.7814 15.9734 64.7814 13.1734V12.9734C64.7814 10.0734 63.2814 8.64841 61.3064 8.64841C59.2064 8.64841 57.7064 10.0734 57.7064 12.9734V13.1734C57.7064 16.0984 59.1314 17.4734 61.3314 17.4734ZM70.1018 19.6234V6.54841H73.1267V8.99841C73.9518 7.34841 75.1767 6.37341 77.3767 6.34841V9.17341C74.7267 9.19841 73.1267 10.0484 73.1267 12.8234V19.6234H70.1018ZM85.0441 19.8734C81.1941 19.8734 78.4191 17.3484 78.4191 13.2234V13.0234C78.4191 8.97341 81.1941 6.27341 84.9191 6.27341C88.1691 6.27341 91.0941 8.19841 91.0941 12.8734V13.7484H81.5191C81.6191 16.2234 82.8691 17.6234 85.1191 17.6234C86.9441 17.6234 87.8941 16.8984 88.1191 15.6234H91.0441C90.6191 18.3734 88.3941 19.8734 85.0441 19.8734ZM81.5691 11.7234H88.0941C87.9441 9.47341 86.7941 8.47341 84.9191 8.47341C83.0941 8.47341 81.8691 9.69841 81.5691 11.7234ZM103.078 4.59841L104.553 0.723413H107.903L105.303 4.59841H103.078ZM104.503 19.8734C100.653 19.8734 97.8781 17.3484 97.8781 13.2234V13.0234C97.8781 8.97341 100.653 6.27341 104.378 6.27341C107.628 6.27341 110.553 8.19841 110.553 12.8734V13.7484H100.978C101.078 16.2234 102.328 17.6234 104.578 17.6234C106.403 17.6234 107.353 16.8984 107.578 15.6234H110.503C110.078 18.3734 107.853 19.8734 104.503 19.8734ZM101.028 11.7234H107.553C107.403 9.47341 106.253 8.47341 104.378 8.47341C102.553 8.47341 101.328 9.69841 101.028 11.7234ZM123.962 19.8734C120.112 19.8734 117.337 17.3484 117.337 13.2234V13.0234C117.337 8.97341 120.112 6.27341 123.837 6.27341C127.087 6.27341 130.012 8.19841 130.012 12.8734V13.7484H120.437C120.537 16.2234 121.787 17.6234 124.037 17.6234C125.862 17.6234 126.812 16.8984 127.037 15.6234H129.962C129.537 18.3734 127.312 19.8734 123.962 19.8734ZM120.487 11.7234H127.012C126.862 9.47341 125.712 8.47341 123.837 8.47341C122.012 8.47341 120.787 9.69841 120.487 11.7234ZM136.811 19.8734C133.436 19.8734 131.461 18.3234 131.336 15.5484H134.186C134.336 16.8734 135.011 17.6484 136.786 17.6484C138.411 17.6484 139.136 17.0734 139.136 15.9734C139.136 14.8984 138.261 14.4984 136.336 14.1734C132.886 13.6234 131.611 12.6484 131.611 10.1984C131.611 7.57341 134.061 6.27341 136.511 6.27341C139.186 6.27341 141.311 7.27341 141.636 10.2234H138.836C138.586 9.02341 137.911 8.47341 136.511 8.47341C135.211 8.47341 134.436 9.09841 134.436 10.0234C134.436 10.9734 135.061 11.3484 137.136 11.6984C140.211 12.1734 142.036 12.9234 142.036 15.6984C142.036 18.3484 140.161 19.8734 136.811 19.8734ZM148.665 19.8734C145.29 19.8734 143.315 18.3234 143.19 15.5484H146.04C146.19 16.8734 146.865 17.6484 148.64 17.6484C150.265 17.6484 150.99 17.0734 150.99 15.9734C150.99 14.8984 150.115 14.4984 148.19 14.1734C144.74 13.6234 143.465 12.6484 143.465 10.1984C143.465 7.57341 145.915 6.27341 148.365 6.27341C151.04 6.27341 153.165 7.27341 153.49 10.2234H150.69C150.44 9.02341 149.765 8.47341 148.365 8.47341C147.065 8.47341 146.29 9.09841 146.29 10.0234C146.29 10.9734 146.915 11.3484 148.99 11.6984C152.065 12.1734 153.89 12.9234 153.89 15.6984C153.89 18.3484 152.015 19.8734 148.665 19.8734ZM161.793 19.8734C157.943 19.8734 155.168 17.3484 155.168 13.2234V13.0234C155.168 8.97341 157.943 6.27341 161.668 6.27341C164.918 6.27341 167.843 8.19841 167.843 12.8734V13.7484H158.268C158.368 16.2234 159.618 17.6234 161.868 17.6234C163.693 17.6234 164.643 16.8984 164.868 15.6234H167.793C167.368 18.3734 165.143 19.8734 161.793 19.8734ZM158.318 11.7234H164.843C164.693 9.47341 163.543 8.47341 161.668 8.47341C159.843 8.47341 158.618 9.69841 158.318 11.7234ZM170.045 19.6234V6.54841H173.07V8.62341C173.695 7.34841 175.145 6.27341 177.295 6.27341C179.92 6.27341 181.77 7.79841 181.77 11.3984V19.6234H178.745V11.6734C178.745 9.69841 177.945 8.79841 176.145 8.79841C174.445 8.79841 173.07 9.84841 173.07 11.9234V19.6234H170.045ZM190.48 19.8734C186.73 19.8734 183.88 17.4234 183.88 13.2484V13.0484C183.88 8.89841 186.83 6.27341 190.48 6.27341C193.38 6.27341 196.105 7.57341 196.455 11.1734H193.53C193.28 9.42341 192.13 8.69841 190.53 8.69841C188.455 8.69841 186.98 10.2984 186.98 12.9984V13.1984C186.98 16.0484 188.38 17.5484 190.605 17.5484C192.205 17.5484 193.58 16.5984 193.755 14.7484H196.53C196.305 17.7484 194.03 19.8734 190.48 19.8734ZM198.71 19.6234V6.54841H201.735V19.6234H198.71ZM200.185 4.39841C199.185 4.39841 198.385 3.64841 198.385 2.67341C198.385 1.67341 199.185 0.923414 200.185 0.923414C201.185 0.923414 201.985 1.67341 201.985 2.67341C201.985 3.64841 201.185 4.39841 200.185 4.39841ZM208.347 19.8734C205.947 19.8734 203.972 18.7234 203.972 15.9984C203.972 12.9484 206.922 11.8484 210.672 11.8484H212.297V11.1734C212.297 9.42341 211.697 8.54841 209.922 8.54841C208.347 8.54841 207.572 9.29841 207.422 10.5984H204.497C204.747 7.54841 207.172 6.27341 210.097 6.27341C213.022 6.27341 215.322 7.47341 215.322 11.0484V19.6234H212.347V18.0234C211.497 19.1484 210.347 19.8734 208.347 19.8734ZM209.072 17.6984C210.922 17.6984 212.297 16.7234 212.297 15.0484V13.7484H210.747C208.447 13.7484 206.972 14.2734 206.972 15.8734C206.972 16.9734 207.572 17.6984 209.072 17.6984ZM218.364 19.6234V0.498413H221.389V19.6234H218.364Z" fill="black"/>
</svg>
