<?xml version="1.0" encoding="utf-8"?>
<!-- Generator: Adobe Illustrator 27.7.0, SVG Export Plug-In . SVG Version: 6.00 Build 0)  -->
<svg version="1.1" id="Layer_1" xmlns="http://www.w3.org/2000/svg" xmlns:xlink="http://www.w3.org/1999/xlink" x="0px" y="0px"
	 viewBox="0 0 133 36" style="enable-background:new 0 0 133 36;" xml:space="preserve">
<style type="text/css">
	.st0{fill:#4CB857;}
	.st1{fill:#010101;}
</style>
<g>
	<g>
		<path class="st0" d="M115,36H18C8.1,36,0,27.9,0,18v0C0,8.1,8.1,0,18,0h97c9.9,0,18,8.1,18,18v0C133,27.9,125,36,115,36z"/>
		<g>
			<path class="st1" d="M21.1,20.2l1.2-1.3c0.8,0.8,1.8,1.5,3.2,1.5c1.2,0,2-0.6,2-1.5c0-1-1.2-1.3-2.4-1.6c-1.6-0.4-3.3-1-3.3-3.2
				c0-1.8,1.5-3.1,3.7-3.1c1.4,0,3,0.7,3.7,1.6L28,13.8c-0.7-0.8-1.8-1.2-2.8-1.2c-1,0-1.7,0.5-1.7,1.2c0,1.2,1.4,1.4,2.9,1.8
				c1.5,0.5,3,1.1,3,3.1c0,1.8-1.5,3.3-3.9,3.3C23.7,22.1,22,21.3,21.1,20.2z"/>
			<path class="st1" d="M31,19.1v-3.1h-1.5v-1.7H31v-2.1h1.8v2.1h2v1.7h-2V19c0,0.9,0.6,1.4,1.4,1.4c0.2,0,0.5,0,0.6-0.1l0.1,1.5
				C34.6,22,34.2,22,33.9,22C32.2,22,31,20.9,31,19.1z"/>
			<path class="st1" d="M43.4,21.9h-1.8v-1.4c-0.5,1-1.5,1.5-2.7,1.5c-2,0-3.6-1.8-3.6-4c0-2.2,1.6-4,3.6-4c1.2,0,2.2,0.6,2.7,1.5
				v-1.4h1.8V21.9z M41.6,18.1c0-1.3-1-2.3-2.3-2.3c-1.3,0-2.3,1-2.3,2.3c0,1.3,1,2.3,2.3,2.3C40.6,20.4,41.6,19.4,41.6,18.1z"/>
			<path class="st1" d="M45.1,14.3h1.8v1.1c0.3-0.7,1.2-1.3,1.9-1.3c0.4,0,0.7,0.1,1,0.2L49.5,16c-0.3-0.1-0.6-0.2-1-0.2
				c-0.8,0-1.8,0.7-1.8,2.1v4.1h-1.8V14.3z"/>
			<path class="st1" d="M51.8,19.1v-3.1h-1.5v-1.7h1.5v-2.1h1.8v2.1h2v1.7h-2V19c0,0.9,0.6,1.4,1.4,1.4c0.2,0,0.5,0,0.6-0.1l0.1,1.5
				C55.4,22,55,22,54.7,22C53,22,51.8,20.9,51.8,19.1z"/>
			<path class="st1" d="M67.7,21.9h-1.8v-1.4c-0.5,1-1.5,1.5-2.7,1.5c-2,0-3.6-1.8-3.6-4c0-2.2,1.6-4,3.6-4c1.2,0,2.2,0.6,2.7,1.5
				v-1.4h1.8V21.9z M65.9,18.1c0-1.3-1-2.3-2.3-2.3c-1.3,0-2.3,1-2.3,2.3c0,1.3,1,2.3,2.3,2.3C64.9,20.4,65.9,19.4,65.9,18.1z"/>
			<path class="st1" d="M72.2,18.1c0-2.2,1.6-4,3.6-4c1.2,0,2.2,0.6,2.7,1.5v-1.4h1.8v10.3h-1.8v-4c-0.5,1-1.5,1.5-2.7,1.5
				C73.8,22.1,72.2,20.3,72.2,18.1z M78.6,18.1c0-1.3-1-2.3-2.3-2.3c-1.3,0-2.3,1-2.3,2.3c0,1.3,1,2.3,2.3,2.3
				C77.6,20.4,78.6,19.4,78.6,18.1z"/>
			<path class="st1" d="M85.4,22.1c-2.1,0-3.6-1.5-3.6-3.7v-4.1h1.7v4.1c0,1.2,0.7,2,1.8,2c1.1,0,1.8-0.8,1.8-2v-4.1H89v4.1
				C89,20.6,87.6,22.1,85.4,22.1z"/>
			<path class="st1" d="M98.1,18.1c0,2.3-1.7,4-4,4c-2.2,0-4-1.7-4-4c0-2.3,1.7-4,4-4C96.4,14.1,98.1,15.8,98.1,18.1z M91.9,18.1
				c0,1.3,1,2.3,2.3,2.3c1.3,0,2.3-1,2.3-2.3c0-1.3-1-2.3-2.3-2.3C92.8,15.8,91.9,16.8,91.9,18.1z"/>
			<path class="st1" d="M99.9,19.1v-3.1h-1.5v-1.7h1.5v-2.1h1.8v2.1h2v1.7h-2V19c0,0.9,0.6,1.4,1.4,1.4c0.2,0,0.5,0,0.6-0.1l0.1,1.5
				c-0.3,0.1-0.6,0.2-0.9,0.2C101.1,22,99.9,20.9,99.9,19.1z"/>
			<path class="st1" d="M104.2,18c0-2.2,1.7-3.9,3.9-3.9c2.1,0,3.7,1.6,3.7,3.7l0,0.7h-5.9c0.2,1.3,1.1,2.1,2.3,2.1
				c0.9,0,1.7-0.4,2-1l1.4,0.8c-0.6,1-1.9,1.6-3.4,1.6C105.9,22.1,104.2,20.3,104.2,18z M110,17.2c-0.1-1-0.9-1.7-2-1.7
				c-1.1,0-1.9,0.6-2.1,1.7H110z"/>
		</g>
	</g>
</g>
</svg>
