<svg width="300" height="600" viewBox="0 0 300 600" fill="none" xmlns="http://www.w3.org/2000/svg">
<path d="M26.7651 304.814V291.442H29.6802V304.814H26.7651ZM26.7651 289.169V286.094H29.6802V289.169H26.7651ZM35.5963 304.814H32.6812V291.442H35.5696V292.271C36.8711 291.523 38.1014 291.148 39.2603 291.148C41.0432 291.148 42.2556 291.656 42.8975 292.673C43.5572 293.671 43.887 295.329 43.887 297.647V304.814H40.9987V297.727C40.9987 296.283 40.8382 295.258 40.5173 294.652C40.2142 294.045 39.5812 293.742 38.6184 293.742C37.7091 293.742 36.8355 293.921 35.9975 294.277L35.5963 294.438V304.814ZM61.6084 302.407L62.3572 302.327L62.4107 304.494C60.3782 304.904 58.5774 305.109 57.0084 305.109C55.0293 305.109 53.603 304.565 52.7293 303.477C51.8735 302.39 51.4456 300.651 51.4456 298.262C51.4456 293.519 53.3801 291.148 57.2491 291.148C60.9933 291.148 62.8654 293.19 62.8654 297.273L62.6782 299.359H54.3875C54.4053 300.464 54.646 301.275 55.1096 301.792C55.5731 302.309 56.4379 302.568 57.7038 302.568C58.9696 302.568 60.2712 302.514 61.6084 302.407ZM60.0038 297.112C60.0038 295.793 59.7898 294.875 59.3619 294.357C58.9518 293.823 58.2476 293.555 57.2491 293.555C56.2507 293.555 55.5196 293.832 55.0561 294.384C54.6103 294.937 54.3786 295.846 54.3607 297.112H60.0038ZM65.2941 304.814V285.88H68.2092V304.814H65.2941ZM80.8841 302.407L81.6329 302.327L81.6864 304.494C79.6538 304.904 77.8531 305.109 76.2841 305.109C74.305 305.109 72.8786 304.565 72.005 303.477C71.1492 302.39 70.7213 300.651 70.7213 298.262C70.7213 293.519 72.6558 291.148 76.5248 291.148C80.269 291.148 82.141 293.19 82.141 297.273L81.9538 299.359H73.6631C73.681 300.464 73.9217 301.275 74.3852 301.792C74.8488 302.309 75.7135 302.568 76.9794 302.568C78.2453 302.568 79.5469 302.514 80.8841 302.407ZM79.2794 297.112C79.2794 295.793 79.0655 294.875 78.6376 294.357C78.2275 293.823 77.5232 293.555 76.5248 293.555C75.5263 293.555 74.7953 293.832 74.3317 294.384C73.886 294.937 73.6542 295.846 73.6364 297.112H79.2794ZM89.4105 291.148C90.3554 291.148 91.4698 291.273 92.7535 291.523L93.4221 291.656L93.3151 293.956C91.9066 293.814 90.8636 293.742 90.186 293.742C88.831 293.742 87.9217 294.045 87.4581 294.652C86.9946 295.258 86.7628 296.399 86.7628 298.075C86.7628 299.751 86.9856 300.91 87.4314 301.552C87.8771 302.194 88.8043 302.514 90.2128 302.514L93.3418 302.3L93.4221 304.627C91.6213 304.948 90.2663 305.109 89.357 305.109C87.3244 305.109 85.8891 304.565 85.0511 303.477C84.231 302.372 83.8209 300.571 83.8209 298.075C83.8209 295.579 84.2577 293.805 85.1314 292.753C86.005 291.683 87.4314 291.148 89.4105 291.148ZM102.9 293.93H99.2091V299.813C99.2091 300.901 99.2893 301.623 99.4498 301.98C99.6102 302.336 100.02 302.514 100.68 302.514L102.873 302.434L103.007 304.761C101.812 304.993 100.903 305.109 100.279 305.109C98.7633 305.109 97.7203 304.761 97.1498 304.066C96.597 303.37 96.3207 302.06 96.3207 300.134V293.93H94.6091V291.442H96.3207V287.564H99.2091V291.442H102.9V293.93ZM104.756 304.814V291.442H107.644V293.047C109.16 292.066 110.675 291.433 112.191 291.148V294.063C110.657 294.366 109.347 294.759 108.259 295.24L107.671 295.481V304.814H104.756ZM113.884 304.814V291.442H116.799V304.814H113.884ZM113.884 289.169V286.094H116.799V289.169H113.884ZM124.802 291.148C125.747 291.148 126.861 291.273 128.145 291.523L128.813 291.656L128.706 293.956C127.298 293.814 126.255 293.742 125.577 293.742C124.222 293.742 123.313 294.045 122.849 294.652C122.386 295.258 122.154 296.399 122.154 298.075C122.154 299.751 122.377 300.91 122.823 301.552C123.268 302.194 124.195 302.514 125.604 302.514L128.733 302.3L128.813 304.627C127.012 304.948 125.657 305.109 124.748 305.109C122.716 305.109 121.28 304.565 120.442 303.477C119.622 302.372 119.212 300.571 119.212 298.075C119.212 295.579 119.649 293.805 120.523 292.753C121.396 291.683 122.823 291.148 124.802 291.148ZM131.097 304.814V291.442H134.012V304.814H131.097ZM131.097 289.169V286.094H134.012V289.169H131.097ZM144.207 293.93H140.516V299.813C140.516 300.901 140.597 301.623 140.757 301.98C140.917 302.336 141.328 302.514 141.987 302.514L144.18 302.434L144.314 304.761C143.119 304.993 142.21 305.109 141.586 305.109C140.071 305.109 139.028 304.761 138.457 304.066C137.904 303.37 137.628 302.06 137.628 300.134V293.93H135.916V291.442H137.628V287.564H140.516V291.442H144.207V293.93ZM144.833 291.442H147.694L150.529 302.327H151.251L154.086 291.442H156.975L151.893 310.564H149.032L150.636 304.814H148.336L144.833 291.442ZM170.264 291.148C172.101 291.148 173.42 291.665 174.222 292.699C175.042 293.716 175.453 295.525 175.453 298.128C175.453 300.732 174.971 302.55 174.008 303.584C173.046 304.6 171.352 305.109 168.927 305.109C168.089 305.109 166.761 305.028 164.942 304.868L164.033 304.788V285.88H166.921V291.95C168.151 291.416 169.266 291.148 170.264 291.148ZM168.927 302.514C170.353 302.514 171.298 302.185 171.762 301.525C172.243 300.847 172.484 299.706 172.484 298.102C172.484 296.497 172.279 295.374 171.869 294.732C171.477 294.072 170.826 293.742 169.917 293.742C169.061 293.742 168.205 293.876 167.349 294.144L166.921 294.277V302.407C167.902 302.479 168.57 302.514 168.927 302.514ZM177.836 304.814V291.442H180.751V304.814H177.836ZM177.836 289.169V286.094H180.751V289.169H177.836ZM183.913 304.814V285.88H186.828V304.814H183.913ZM190.142 304.814V285.88H193.058V304.814H190.142ZM206.554 291.148C207.499 291.148 208.613 291.273 209.897 291.523L210.566 291.656L210.459 293.956C209.05 293.814 208.007 293.742 207.33 293.742C205.975 293.742 205.065 294.045 204.602 294.652C204.138 295.258 203.907 296.399 203.907 298.075C203.907 299.751 204.129 300.91 204.575 301.552C205.021 302.194 205.948 302.514 207.357 302.514L210.486 302.3L210.566 304.627C208.765 304.948 207.41 305.109 206.501 305.109C204.468 305.109 203.033 304.565 202.195 303.477C201.375 302.372 200.965 300.571 200.965 298.075C200.965 295.579 201.401 293.805 202.275 292.753C203.149 291.683 204.575 291.148 206.554 291.148ZM212.849 304.814V291.442H215.738V293.047C217.253 292.066 218.769 291.433 220.284 291.148V294.063C218.751 294.366 217.44 294.759 216.353 295.24L215.764 295.481V304.814H212.849ZM231.394 302.407L232.143 302.327L232.197 304.494C230.164 304.904 228.363 305.109 226.794 305.109C224.815 305.109 223.389 304.565 222.515 303.477C221.659 302.39 221.232 300.651 221.232 298.262C221.232 293.519 223.166 291.148 227.035 291.148C230.779 291.148 232.651 293.19 232.651 297.273L232.464 299.359H224.173C224.191 300.464 224.432 301.275 224.895 301.792C225.359 302.309 226.224 302.568 227.49 302.568C228.756 302.568 230.057 302.514 231.394 302.407ZM229.79 297.112C229.79 295.793 229.576 294.875 229.148 294.357C228.738 293.823 228.033 293.555 227.035 293.555C226.037 293.555 225.306 293.832 224.842 294.384C224.396 294.937 224.164 295.846 224.147 297.112H229.79ZM245.831 285.88V304.814H242.943V304.119C241.641 304.779 240.447 305.109 239.359 305.109C237.612 305.109 236.328 304.583 235.508 303.531C234.706 302.479 234.304 300.714 234.304 298.235C234.304 295.757 234.75 293.956 235.642 292.833C236.551 291.71 237.959 291.148 239.867 291.148C240.509 291.148 241.525 291.264 242.916 291.496V285.88H245.831ZM242.461 302.033L242.916 301.846V293.93C241.846 293.751 240.857 293.662 239.947 293.662C238.147 293.662 237.246 295.16 237.246 298.155C237.246 299.795 237.451 300.937 237.861 301.578C238.289 302.202 238.958 302.514 239.867 302.514C240.776 302.514 241.641 302.354 242.461 302.033ZM248.828 304.814V291.442H251.743V304.814H248.828ZM248.828 289.169V286.094H251.743V289.169H248.828ZM261.938 293.93H258.247V299.813C258.247 300.901 258.327 301.623 258.488 301.98C258.648 302.336 259.058 302.514 259.718 302.514L261.911 302.434L262.045 304.761C260.85 304.993 259.941 305.109 259.317 305.109C257.801 305.109 256.758 304.761 256.188 304.066C255.635 303.37 255.359 302.06 255.359 300.134V293.93H253.647V291.442H255.359V287.564H258.247V291.442H261.938V293.93ZM273.074 294.197C270.97 293.912 269.446 293.769 268.501 293.769C267.556 293.769 266.896 293.885 266.522 294.117C266.165 294.331 265.987 294.678 265.987 295.16C265.987 295.641 266.183 295.98 266.575 296.176C266.985 296.372 267.93 296.604 269.41 296.871C270.908 297.121 271.969 297.522 272.593 298.075C273.217 298.628 273.529 299.608 273.529 301.017C273.529 302.425 273.074 303.459 272.165 304.119C271.273 304.779 269.963 305.109 268.233 305.109C267.146 305.109 265.773 304.957 264.115 304.654L263.286 304.52L263.393 302.087C265.532 302.372 267.074 302.514 268.019 302.514C268.964 302.514 269.633 302.399 270.025 302.167C270.435 301.935 270.64 301.552 270.64 301.017C270.64 300.482 270.444 300.116 270.052 299.92C269.678 299.706 268.759 299.483 267.297 299.252C265.853 299.002 264.792 298.619 264.115 298.102C263.437 297.585 263.098 296.64 263.098 295.267C263.098 293.894 263.562 292.869 264.489 292.191C265.434 291.514 266.638 291.175 268.1 291.175C269.241 291.175 270.64 291.318 272.299 291.603L273.128 291.763L273.074 294.197Z" fill="#FFE344"/>
<path d="M25.6488 320.349H27.2186L29.3326 329.454H29.6674L32.1581 320.559H33.7907L36.2814 329.454H36.6372L38.7302 320.349H40.3L37.8093 330.814H35.193L32.9744 322.631L30.7558 330.814H28.1395L25.6488 320.349ZM42.0313 330.814V320.349H43.6011V330.814H42.0313ZM42.0313 317.984V316.163H43.6011V317.984H42.0313ZM51.6121 321.71H48.2842V326.712C48.2842 327.912 48.368 328.7 48.5354 329.077C48.7168 329.454 49.1354 329.642 49.7912 329.642L51.654 329.517L51.7587 330.814C50.8238 330.968 50.1121 331.045 49.6238 331.045C48.5354 331.045 47.7819 330.78 47.3633 330.249C46.9447 329.719 46.7354 328.707 46.7354 327.214V321.71H45.2493V320.349H46.7354V317.147H48.2842V320.349H51.6121V321.71ZM54.6802 330.814H53.1104V315.787H54.6802V320.935C55.7965 320.405 56.8709 320.14 57.9035 320.14C59.2988 320.14 60.2337 320.517 60.7081 321.27C61.1965 322.024 61.4407 323.363 61.4407 325.289V330.814H59.8709V325.331C59.8709 323.88 59.7244 322.889 59.4314 322.359C59.1523 321.814 58.5523 321.542 57.6314 321.542C56.7523 321.542 55.9011 321.703 55.0779 322.024L54.6802 322.17V330.814ZM71.4 321.542C69.8791 321.542 69.1186 322.073 69.1186 323.133C69.1186 323.621 69.2931 323.97 69.6419 324.18C69.9907 324.375 70.7861 324.584 72.0279 324.807C73.2698 325.017 74.1489 325.317 74.6652 325.707C75.1814 326.098 75.4396 326.831 75.4396 327.905C75.4396 328.98 75.0907 329.768 74.3931 330.27C73.7093 330.773 72.7047 331.024 71.3791 331.024C70.514 331.024 69.4954 330.926 68.3233 330.731L67.6954 330.626L67.7791 329.266C69.3698 329.503 70.5698 329.621 71.3791 329.621C72.1884 329.621 72.8024 329.496 73.221 329.245C73.6535 328.98 73.8698 328.547 73.8698 327.947C73.8698 327.333 73.6884 326.921 73.3256 326.712C72.9628 326.489 72.1675 326.28 70.9396 326.084C69.7117 325.889 68.8396 325.603 68.3233 325.226C67.807 324.849 67.5489 324.152 67.5489 323.133C67.5489 322.114 67.9047 321.361 68.6163 320.873C69.3419 320.384 70.2419 320.14 71.3163 320.14C72.1675 320.14 73.2349 320.238 74.5186 320.433L75.1047 320.538L75.0628 321.877C73.514 321.654 72.2931 321.542 71.4 321.542ZM84.541 329.517L85.1479 329.454L85.1898 330.689C83.5991 330.912 82.2386 331.024 81.1084 331.024C79.6014 331.024 78.534 330.591 77.9061 329.726C77.2782 328.847 76.9642 327.487 76.9642 325.645C76.9642 321.975 78.4223 320.14 81.3386 320.14C82.7479 320.14 83.8014 320.538 84.4991 321.333C85.1968 322.114 85.5456 323.349 85.5456 325.038L85.4619 326.231H78.5549C78.5549 327.389 78.7642 328.247 79.1828 328.805C79.6014 329.363 80.327 329.642 81.3596 329.642C82.4061 329.642 83.4665 329.6 84.541 329.517ZM83.9758 324.975C83.9758 323.691 83.7665 322.784 83.3479 322.254C82.9433 321.724 82.2735 321.459 81.3386 321.459C80.4177 321.459 79.72 321.738 79.2456 322.296C78.7851 322.854 78.5479 323.747 78.534 324.975H83.9758ZM87.699 330.814V315.787H89.2687V330.814H87.699ZM99.1153 329.517L99.7222 329.454L99.7641 330.689C98.1734 330.912 96.8129 331.024 95.6827 331.024C94.1757 331.024 93.1083 330.591 92.4804 329.726C91.8525 328.847 91.5385 327.487 91.5385 325.645C91.5385 321.975 92.9967 320.14 95.9129 320.14C97.3222 320.14 98.3757 320.538 99.0734 321.333C99.7711 322.114 100.12 323.349 100.12 325.038L100.036 326.231H93.1292C93.1292 327.389 93.3385 328.247 93.7571 328.805C94.1757 329.363 94.9013 329.642 95.9339 329.642C96.9804 329.642 98.0408 329.6 99.1153 329.517ZM98.5501 324.975C98.5501 323.691 98.3408 322.784 97.9222 322.254C97.5176 321.724 96.8478 321.459 95.9129 321.459C94.992 321.459 94.2943 321.738 93.8199 322.296C93.3594 322.854 93.1222 323.747 93.1083 324.975H98.5501ZM106.062 320.14C106.522 320.14 107.304 320.224 108.406 320.391L108.908 320.454L108.845 321.731C107.729 321.605 106.906 321.542 106.376 321.542C105.19 321.542 104.38 321.828 103.948 322.4C103.529 322.959 103.32 324.005 103.32 325.54C103.32 327.061 103.515 328.121 103.906 328.721C104.31 329.321 105.141 329.621 106.397 329.621L108.866 329.433L108.929 330.731C107.631 330.926 106.662 331.024 106.02 331.024C104.387 331.024 103.257 330.605 102.629 329.768C102.015 328.931 101.708 327.521 101.708 325.54C101.708 323.545 102.043 322.149 102.713 321.354C103.383 320.545 104.499 320.14 106.062 320.14ZM116.266 321.71H112.938V326.712C112.938 327.912 113.022 328.7 113.189 329.077C113.371 329.454 113.789 329.642 114.445 329.642L116.308 329.517L116.413 330.814C115.478 330.968 114.766 331.045 114.278 331.045C113.189 331.045 112.436 330.78 112.017 330.249C111.599 329.719 111.389 328.707 111.389 327.214V321.71H109.903V320.349H111.389V317.147H112.938V320.349H116.266V321.71ZM124.881 329.517L125.488 329.454L125.53 330.689C123.939 330.912 122.578 331.024 121.448 331.024C119.941 331.024 118.874 330.591 118.246 329.726C117.618 328.847 117.304 327.487 117.304 325.645C117.304 321.975 118.762 320.14 121.678 320.14C123.088 320.14 124.141 320.538 124.839 321.333C125.537 322.114 125.885 323.349 125.885 325.038L125.802 326.231H118.895C118.895 327.389 119.104 328.247 119.523 328.805C119.941 329.363 120.667 329.642 121.699 329.642C122.746 329.642 123.806 329.6 124.881 329.517ZM124.316 324.975C124.316 323.691 124.106 322.784 123.688 322.254C123.283 321.724 122.613 321.459 121.678 321.459C120.757 321.459 120.06 321.738 119.585 322.296C119.125 322.854 118.888 323.747 118.874 324.975H124.316ZM135.95 315.787V330.814H134.402V330.103C133.327 330.717 132.267 331.024 131.22 331.024C130.662 331.024 130.174 330.954 129.755 330.814C129.336 330.675 128.946 330.424 128.583 330.061C127.829 329.307 127.453 327.919 127.453 325.896C127.453 323.859 127.788 322.394 128.457 321.5C129.141 320.594 130.264 320.14 131.827 320.14C132.636 320.14 133.495 320.231 134.402 320.412V315.787H135.95ZM129.797 328.931C130.02 329.196 130.257 329.377 130.508 329.475C130.76 329.573 131.081 329.621 131.471 329.621C131.876 329.621 132.322 329.559 132.811 329.433C133.313 329.294 133.704 329.161 133.983 329.035L134.402 328.847V321.752C133.508 321.584 132.678 321.5 131.911 321.5C130.85 321.5 130.111 321.842 129.692 322.526C129.274 323.196 129.064 324.242 129.064 325.666C129.064 327.284 129.308 328.373 129.797 328.931ZM142.753 335.461V320.349H144.302V321.103C145.362 320.461 146.409 320.14 147.442 320.14C148.767 320.14 149.73 320.566 150.33 321.417C150.93 322.254 151.23 323.642 151.23 325.582C151.23 327.521 150.874 328.917 150.162 329.768C149.465 330.605 148.3 331.024 146.667 331.024C145.816 331.024 145.035 330.947 144.323 330.794V335.461H142.753ZM147.211 321.542C146.793 321.542 146.339 321.612 145.851 321.752C145.376 321.891 145 322.031 144.721 322.17L144.323 322.38V329.433C145.314 329.587 146.067 329.663 146.583 329.663C147.714 329.663 148.502 329.342 148.949 328.7C149.409 328.059 149.639 327.012 149.639 325.561C149.639 324.11 149.43 323.077 149.011 322.463C148.607 321.849 148.007 321.542 147.211 321.542ZM153.498 330.814V315.787H155.067V330.814H153.498ZM165.186 323.51V328.868C165.228 329.384 165.632 329.691 166.4 329.789L166.337 331.024C165.235 331.024 164.405 330.745 163.846 330.187C162.591 330.745 161.335 331.024 160.079 331.024C159.116 331.024 158.384 330.752 157.881 330.207C157.379 329.663 157.128 328.882 157.128 327.863C157.128 326.845 157.386 326.098 157.902 325.624C158.419 325.135 159.228 324.835 160.33 324.724L163.616 324.41V323.51C163.616 322.798 163.463 322.289 163.156 321.982C162.849 321.675 162.43 321.521 161.9 321.521C160.784 321.521 159.625 321.591 158.425 321.731L157.777 321.794L157.714 320.6C159.249 320.294 160.609 320.14 161.795 320.14C162.981 320.14 163.839 320.412 164.37 320.956C164.914 321.5 165.186 322.352 165.186 323.51ZM158.739 327.78C158.739 329.063 159.27 329.705 160.33 329.705C161.279 329.705 162.214 329.545 163.135 329.224L163.616 329.056V325.603L160.519 325.896C159.891 325.952 159.437 326.133 159.158 326.44C158.879 326.747 158.739 327.194 158.739 327.78ZM169.434 330.814H167.865V320.349H169.413V321.082C170.544 320.454 171.625 320.14 172.658 320.14C174.053 320.14 174.988 320.517 175.462 321.27C175.951 322.024 176.195 323.363 176.195 325.289V330.814H174.646V325.331C174.646 323.88 174.499 322.889 174.206 322.359C173.927 321.814 173.32 321.542 172.385 321.542C171.939 321.542 171.465 321.612 170.962 321.752C170.474 321.877 170.097 322.003 169.832 322.128L169.434 322.317V330.814ZM181.974 321.542C180.453 321.542 179.692 322.073 179.692 323.133C179.692 323.621 179.867 323.97 180.216 324.18C180.565 324.375 181.36 324.584 182.602 324.807C183.844 325.017 184.723 325.317 185.239 325.707C185.755 326.098 186.013 326.831 186.013 327.905C186.013 328.98 185.665 329.768 184.967 330.27C184.283 330.773 183.278 331.024 181.953 331.024C181.088 331.024 180.069 330.926 178.897 330.731L178.269 330.626L178.353 329.266C179.944 329.503 181.144 329.621 181.953 329.621C182.762 329.621 183.376 329.496 183.795 329.245C184.227 328.98 184.444 328.547 184.444 327.947C184.444 327.333 184.262 326.921 183.899 326.712C183.537 326.489 182.741 326.28 181.513 326.084C180.285 325.889 179.413 325.603 178.897 325.226C178.381 324.849 178.123 324.152 178.123 323.133C178.123 322.114 178.478 321.361 179.19 320.873C179.916 320.384 180.816 320.14 181.89 320.14C182.741 320.14 183.809 320.238 185.092 320.433L185.678 320.538L185.637 321.877C184.088 321.654 182.867 321.542 181.974 321.542Z" fill="white"/>
</svg>
