<svg width="80" height="16" viewBox="0 0 80 16" fill="none" xmlns="http://www.w3.org/2000/svg">
<path d="M5.28125 12.1625C2.1125 12.1625 0.78 10.5862 0.6175 8.3925H2.6975C2.84375 9.5625 3.315 10.5375 5.28125 10.5375C6.565 10.5375 7.475 9.8225 7.475 8.75C7.475 7.6775 6.93875 7.27125 5.05375 6.9625C2.275 6.58875 0.95875 5.74375 0.95875 3.56625C0.95875 1.665 2.58375 0.234999 5.005 0.234999C7.5075 0.234999 9.0025 1.3725 9.23 3.59875H7.2475C7.03625 2.38 6.3375 1.86 5.005 1.86C3.68875 1.86 3.00625 2.49375 3.00625 3.3875C3.00625 4.33 3.39625 4.80125 5.41125 5.09375C8.14125 5.4675 9.555 6.2475 9.555 8.57125C9.555 10.5862 7.84875 12.1625 5.28125 12.1625ZM14.8974 12.1625C12.3949 12.1625 10.5912 10.5212 10.5912 7.84V7.71C10.5912 5.0775 12.3949 3.3225 14.8162 3.3225C16.9287 3.3225 18.8299 4.57375 18.8299 7.6125V8.18125H12.6062C12.6712 9.79 13.4837 10.7 14.9462 10.7C16.1324 10.7 16.7499 10.2287 16.8962 9.4H18.7974C18.5212 11.1875 17.0749 12.1625 14.8974 12.1625ZM12.6387 6.865H16.8799C16.7824 5.4025 16.0349 4.7525 14.8162 4.7525C13.6299 4.7525 12.8337 5.54875 12.6387 6.865ZM23.885 15.12C21.22 15.12 20.0175 13.9175 19.79 12.2925H21.7725C21.935 13.1375 22.585 13.625 23.8687 13.625C25.3962 13.625 26.2412 12.8613 26.2412 11.3337V10.0825C25.77 10.895 24.7137 11.6587 23.4625 11.6587C21.3337 11.6587 19.6925 10.0662 19.6925 7.6125V7.49875C19.6925 5.11 21.3175 3.3225 23.5112 3.3225C24.9087 3.3225 25.7537 3.95625 26.2412 4.80125V3.50125H28.2075V11.3662C28.1912 13.8688 26.5175 15.12 23.885 15.12ZM23.95 10.1475C25.315 10.1475 26.3062 9.1725 26.3062 7.5475V7.43375C26.3062 5.825 25.4287 4.86625 24.015 4.86625C22.5525 4.86625 21.7075 5.9225 21.7075 7.46625V7.59625C21.7075 9.1725 22.6825 10.1475 23.95 10.1475ZM33.0632 12.1625C31.3894 12.1625 30.1382 11.2037 30.1382 8.945V3.50125H32.1044V8.7175C32.1044 10.0012 32.6407 10.5862 33.7782 10.5862C34.8344 10.5862 35.7607 9.90375 35.7607 8.555V3.50125H37.7269V12H35.7607V10.6675C35.3382 11.4962 34.4444 12.1625 33.0632 12.1625ZM39.7333 12V3.50125H41.6995V5.09375C42.2358 4.02125 43.032 3.3875 44.462 3.37125V5.2075C42.7395 5.22375 41.6995 5.77625 41.6995 7.58V12H39.7333ZM47.9346 12.1625C46.3746 12.1625 45.0908 11.415 45.0908 9.64375C45.0908 7.66125 47.0083 6.94625 49.4458 6.94625H50.5021V6.5075C50.5021 5.37 50.1121 4.80125 48.9583 4.80125C47.9346 4.80125 47.4308 5.28875 47.3333 6.13375H45.4321C45.5946 4.15125 47.1708 3.3225 49.0721 3.3225C50.9733 3.3225 52.4683 4.1025 52.4683 6.42625V12H50.5346V10.96C49.9821 11.6912 49.2346 12.1625 47.9346 12.1625ZM48.4058 10.7487C49.6083 10.7487 50.5021 10.115 50.5021 9.02625V8.18125H49.4946C47.9996 8.18125 47.0408 8.5225 47.0408 9.5625C47.0408 10.2775 47.4308 10.7487 48.4058 10.7487ZM54.397 12V3.50125H56.3633V4.85C56.7695 4.02125 57.712 3.3225 59.1095 3.3225C60.8158 3.3225 62.0183 4.31375 62.0183 6.65375V12H60.052V6.8325C60.052 5.54875 59.532 4.96375 58.362 4.96375C57.257 4.96375 56.3633 5.64625 56.3633 6.995V12H54.397ZM67.3872 15.5588C66.3635 15.5588 65.6972 15.0063 65.5997 14.1288H66.6722C66.721 14.405 66.9322 14.665 67.3222 14.665C67.696 14.665 67.9235 14.4375 67.9235 14.1125C67.9235 13.8038 67.696 13.5925 67.3547 13.5925C67.1272 13.5925 66.9647 13.6738 66.8672 13.7388L66.3147 13.2188L66.9647 12.1138C64.8847 11.8375 63.3897 10.31 63.3897 7.85625V7.72625C63.3897 5.02875 65.3072 3.3225 67.6797 3.3225C69.5647 3.3225 71.336 4.1675 71.5635 6.5075H69.6622C69.4997 5.37 68.7522 4.89875 67.7122 4.89875C66.3635 4.89875 65.4047 5.93875 65.4047 7.69375V7.82375C65.4047 9.67625 66.3147 10.6512 67.761 10.6512C68.801 10.6512 69.6947 10.0337 69.8085 8.83125H71.6122C71.466 10.7162 70.0847 12.065 67.9072 12.1625L67.5335 12.8125C68.346 12.715 69.1585 13.1375 69.1585 14.1613C69.1585 15.0713 68.3947 15.5588 67.3872 15.5588ZM75.2067 12.1625C73.6467 12.1625 72.3629 11.415 72.3629 9.64375C72.3629 7.66125 74.2804 6.94625 76.7179 6.94625H77.7742V6.5075C77.7742 5.37 77.3842 4.80125 76.2304 4.80125C75.2067 4.80125 74.7029 5.28875 74.6054 6.13375H72.7042C72.8667 4.15125 74.4429 3.3225 76.3442 3.3225C78.2454 3.3225 79.7404 4.1025 79.7404 6.42625V12H77.8067V10.96C77.2542 11.6912 76.5067 12.1625 75.2067 12.1625ZM75.6779 10.7487C76.8804 10.7487 77.7742 10.115 77.7742 9.02625V8.18125H76.7667C75.2717 8.18125 74.3129 8.5225 74.3129 9.5625C74.3129 10.2775 74.7029 10.7487 75.6779 10.7487Z" fill="black"/>
</svg>
