<svg width="73" height="16" viewBox="0 0 73 16" fill="none" xmlns="http://www.w3.org/2000/svg">
<path d="M4.9725 11.635C6.435 11.635 7.3125 10.5462 7.3125 8.8075V8.69375C7.3125 6.93875 6.435 5.86625 4.9725 5.86625C3.51 5.86625 2.61625 6.9225 2.61625 8.6775V8.8075C2.61625 10.5462 3.4775 11.635 4.9725 11.635ZM4.95625 13.1625C2.45375 13.1625 0.60125 11.4237 0.60125 8.84V8.71C0.60125 6.0775 2.47 4.3225 4.9725 4.3225C7.45875 4.3225 9.3275 6.06125 9.3275 8.66125V8.79125C9.3275 11.44 7.45875 13.1625 4.95625 13.1625ZM14.3262 15.9088V4.50125H16.2924V5.86625C16.7637 5.05375 17.8199 4.3225 19.0712 4.3225C21.1999 4.3225 22.8412 5.89875 22.8412 8.645V8.775C22.8412 11.505 21.2649 13.1625 19.0712 13.1625C17.7224 13.1625 16.7474 12.4962 16.2924 11.6675V15.9088H14.3262ZM18.5837 11.6025C20.0299 11.6025 20.8262 10.6275 20.8262 8.8075V8.6775C20.8262 6.7925 19.8512 5.86625 18.5674 5.86625C17.2024 5.86625 16.2274 6.7925 16.2274 8.6775V8.8075C16.2274 10.7087 17.1537 11.6025 18.5837 11.6025ZM24.3331 13V0.568749H26.2994V13H24.3331ZM30.5972 13.1625C29.0372 13.1625 27.7535 12.415 27.7535 10.6437C27.7535 8.66125 29.671 7.94625 32.1085 7.94625H33.1647V7.5075C33.1647 6.37 32.7747 5.80125 31.621 5.80125C30.5972 5.80125 30.0935 6.28875 29.996 7.13375H28.0947C28.2572 5.15125 29.8335 4.3225 31.7347 4.3225C33.636 4.3225 35.131 5.1025 35.131 7.42625V13H33.1972V11.96C32.6447 12.6912 31.8972 13.1625 30.5972 13.1625ZM31.0685 11.7487C32.271 11.7487 33.1647 11.115 33.1647 10.0262V9.18125H32.1572C30.6622 9.18125 29.7035 9.5225 29.7035 10.5625C29.7035 11.2775 30.0935 11.7487 31.0685 11.7487ZM37.0596 13V4.50125H39.0259V5.85C39.4321 5.02125 40.3746 4.3225 41.7721 4.3225C43.4784 4.3225 44.6809 5.31375 44.6809 7.65375V13H42.7146V7.8325C42.7146 6.54875 42.1946 5.96375 41.0246 5.96375C39.9196 5.96375 39.0259 6.64625 39.0259 7.995V13H37.0596ZM50.3586 13.1625C47.8561 13.1625 46.0524 11.5212 46.0524 8.84V8.71C46.0524 6.0775 47.8561 4.3225 50.2774 4.3225C52.3899 4.3225 54.2911 5.57375 54.2911 8.6125V9.18125H48.0674C48.1324 10.79 48.9449 11.7 50.4074 11.7C51.5936 11.7 52.2111 11.2287 52.3574 10.4H54.2586C53.9824 12.1875 52.5361 13.1625 50.3586 13.1625ZM48.0999 7.865H52.3411C52.2436 6.4025 51.4961 5.7525 50.2774 5.7525C49.0911 5.7525 48.2949 6.54875 48.0999 7.865ZM58.6149 13.1463C56.9249 13.1463 56.0474 12.2362 56.0474 10.6275V5.98H54.9099V4.50125H56.0474V2.6325H58.0136V4.50125H59.8824V5.98H58.0136V10.4487C58.0136 11.1962 58.3711 11.5375 58.9886 11.5375C59.3786 11.5375 59.6711 11.4887 59.9474 11.375V12.935C59.6386 13.0488 59.2161 13.1463 58.6149 13.1463ZM63.7015 13.1625C62.1415 13.1625 60.8578 12.415 60.8578 10.6437C60.8578 8.66125 62.7753 7.94625 65.2128 7.94625H66.269V7.5075C66.269 6.37 65.879 5.80125 64.7253 5.80125C63.7015 5.80125 63.1978 6.28875 63.1003 7.13375H61.199C61.3615 5.15125 62.9378 4.3225 64.839 4.3225C66.7403 4.3225 68.2353 5.1025 68.2353 7.42625V13H66.3015V11.96C65.749 12.6912 65.0015 13.1625 63.7015 13.1625ZM64.1728 11.7487C65.3753 11.7487 66.269 11.115 66.269 10.0262V9.18125H65.2615C63.7665 9.18125 62.8078 9.5225 62.8078 10.5625C62.8078 11.2775 63.1978 11.7487 64.1728 11.7487ZM71.3339 13.1138C70.6189 13.1138 70.0502 12.5612 70.0502 11.8462C70.0502 11.1312 70.6189 10.5625 71.3339 10.5625C72.0652 10.5625 72.6339 11.1312 72.6339 11.8462C72.6339 12.5612 72.0652 13.1138 71.3339 13.1138Z" fill="black"/>
</svg>
