<svg width="65" height="14" viewBox="0 0 65 14" fill="none" xmlns="http://www.w3.org/2000/svg">
<path d="M0.3325 13V1.38125H4.07C6.67 1.38125 8.37625 2.535 8.37625 4.9725V5.0375C8.37625 7.49125 6.605 8.58 4.11875 8.58H2.49375V13H0.3325ZM2.49375 7.02H4.07C5.5 7.02 6.26375 6.32125 6.26375 5.0375V4.9725C6.26375 3.59125 5.45125 3.055 4.07 3.055H2.49375V7.02ZM13.3118 11.635C14.7743 11.635 15.6518 10.5462 15.6518 8.8075V8.69375C15.6518 6.93875 14.7743 5.86625 13.3118 5.86625C11.8493 5.86625 10.9556 6.9225 10.9556 8.6775V8.8075C10.9556 10.5462 11.8168 11.635 13.3118 11.635ZM13.2956 13.1625C10.7931 13.1625 8.94056 11.4237 8.94056 8.84V8.71C8.94056 6.0775 10.8093 4.3225 13.3118 4.3225C15.7981 4.3225 17.6668 6.06125 17.6668 8.66125V8.79125C17.6668 11.44 15.7981 13.1625 13.2956 13.1625ZM22.0109 13.1463C20.3209 13.1463 19.4434 12.2362 19.4434 10.6275V5.98H18.3059V4.50125H19.4434V2.6325H21.4096V4.50125H23.2784V5.98H21.4096V10.4487C21.4096 11.1962 21.7671 11.5375 22.3846 11.5375C22.7746 11.5375 23.0671 11.4887 23.3434 11.375V12.935C23.0346 13.0488 22.6121 13.1463 22.0109 13.1463ZM27.0975 13.1625C25.5375 13.1625 24.2538 12.415 24.2538 10.6437C24.2538 8.66125 26.1713 7.94625 28.6088 7.94625H29.665V7.5075C29.665 6.37 29.275 5.80125 28.1213 5.80125C27.0975 5.80125 26.5938 6.28875 26.4963 7.13375H24.595C24.7575 5.15125 26.3338 4.3225 28.235 4.3225C30.1363 4.3225 31.6313 5.1025 31.6313 7.42625V13H29.6975V11.96C29.145 12.6912 28.3975 13.1625 27.0975 13.1625ZM27.5688 11.7487C28.7713 11.7487 29.665 11.115 29.665 10.0262V9.18125H28.6575C27.1625 9.18125 26.2038 9.5225 26.2038 10.5625C26.2038 11.2775 26.5938 11.7487 27.5688 11.7487ZM27.4225 3.23375L28.3813 0.714999H30.5588L28.8688 3.23375H27.4225ZM36.4687 13.1625C34.2749 13.1625 32.9912 12.155 32.9099 10.3512H34.7624C34.8599 11.2125 35.2987 11.7162 36.4524 11.7162C37.5087 11.7162 37.9799 11.3425 37.9799 10.6275C37.9799 9.92875 37.4112 9.66875 36.1599 9.4575C33.9174 9.1 33.0887 8.46625 33.0887 6.87375C33.0887 5.1675 34.6812 4.3225 36.2737 4.3225C38.0124 4.3225 39.3937 4.9725 39.6049 6.89H37.7849C37.6224 6.11 37.1837 5.7525 36.2737 5.7525C35.4287 5.7525 34.9249 6.15875 34.9249 6.76C34.9249 7.3775 35.3312 7.62125 36.6799 7.84875C38.6787 8.1575 39.8649 8.645 39.8649 10.4487C39.8649 12.1712 38.6462 13.1625 36.4687 13.1625ZM44.1735 13.1625C41.9797 13.1625 40.696 12.155 40.6147 10.3512H42.4672C42.5647 11.2125 43.0035 11.7162 44.1572 11.7162C45.2135 11.7162 45.6847 11.3425 45.6847 10.6275C45.6847 9.92875 45.116 9.66875 43.8647 9.4575C41.6222 9.1 40.7935 8.46625 40.7935 6.87375C40.7935 5.1675 42.386 4.3225 43.9785 4.3225C45.7172 4.3225 47.0985 4.9725 47.3097 6.89H45.4897C45.3272 6.11 44.8885 5.7525 43.9785 5.7525C43.1335 5.7525 42.6297 6.15875 42.6297 6.76C42.6297 7.3775 43.036 7.62125 44.3847 7.84875C46.3835 8.1575 47.5697 8.645 47.5697 10.4487C47.5697 12.1712 46.351 13.1625 44.1735 13.1625ZM49.0183 13V4.50125H50.9845V13H49.0183ZM49.977 3.10375C49.327 3.10375 48.807 2.61625 48.807 1.9825C48.807 1.3325 49.327 0.845 49.977 0.845C50.627 0.845 51.147 1.3325 51.147 1.9825C51.147 2.61625 50.627 3.10375 49.977 3.10375ZM56.8586 11.635C58.3211 11.635 59.1986 10.5462 59.1986 8.8075V8.69375C59.1986 6.93875 58.3211 5.86625 56.8586 5.86625C55.3961 5.86625 54.5024 6.9225 54.5024 8.6775V8.8075C54.5024 10.5462 55.3636 11.635 56.8586 11.635ZM56.8424 13.1625C54.3399 13.1625 52.4874 11.4237 52.4874 8.84V8.71C52.4874 6.0775 54.3561 4.3225 56.8586 4.3225C59.3449 4.3225 61.2136 6.06125 61.2136 8.66125V8.79125C61.2136 11.44 59.3449 13.1625 56.8424 13.1625ZM63.4226 13.1138C62.7076 13.1138 62.1389 12.5612 62.1389 11.8462C62.1389 11.1312 62.7076 10.5625 63.4226 10.5625C64.1539 10.5625 64.7226 11.1312 64.7226 11.8462C64.7226 12.5612 64.1539 13.1138 63.4226 13.1138Z" fill="black"/>
</svg>
