<svg width="107" height="16" viewBox="0 0 107 16" fill="none" xmlns="http://www.w3.org/2000/svg">
<path d="M3.39625 13.1625C1.83625 13.1625 0.5525 12.415 0.5525 10.6437C0.5525 8.66125 2.47 7.94625 4.9075 7.94625H5.96375V7.5075C5.96375 6.37 5.57375 5.80125 4.42 5.80125C3.39625 5.80125 2.8925 6.28875 2.795 7.13375H0.89375C1.05625 5.15125 2.6325 4.3225 4.53375 4.3225C6.435 4.3225 7.93 5.1025 7.93 7.42625V13H5.99625V11.96C5.44375 12.6912 4.69625 13.1625 3.39625 13.1625ZM3.8675 11.7487C5.07 11.7487 5.96375 11.115 5.96375 10.0262V9.18125H4.95625C3.46125 9.18125 2.5025 9.5225 2.5025 10.5625C2.5025 11.2775 2.8925 11.7487 3.8675 11.7487ZM9.90742 13V0.568749H11.8737V13H9.90742ZM13.994 13V4.50125H15.9603V13H13.994ZM14.9528 3.10375C14.3028 3.10375 13.7828 2.61625 13.7828 1.9825C13.7828 1.3325 14.3028 0.845 14.9528 0.845C15.6028 0.845 16.1228 1.3325 16.1228 1.9825C16.1228 2.61625 15.6028 3.10375 14.9528 3.10375ZM18.0319 13V4.50125H19.9982V5.80125C20.4044 5.005 21.3307 4.3225 22.5819 4.3225C23.6869 4.3225 24.5644 4.79375 24.9869 5.85C25.6369 4.79375 26.8069 4.3225 27.8632 4.3225C29.4232 4.3225 30.6907 5.28125 30.6907 7.62125V13H28.7244V7.75125C28.7244 6.5 28.1882 5.96375 27.2132 5.96375C26.2382 5.96375 25.3444 6.61375 25.3444 7.91375V13H23.3782V7.75125C23.3782 6.5 22.8257 5.96375 21.8669 5.96375C20.8919 5.96375 19.9982 6.61375 19.9982 7.91375V13H18.0319ZM36.3614 13.1625C33.8589 13.1625 32.0552 11.5212 32.0552 8.84V8.71C32.0552 6.0775 33.8589 4.3225 36.2802 4.3225C38.3927 4.3225 40.2939 5.57375 40.2939 8.6125V9.18125H34.0702C34.1352 10.79 34.9477 11.7 36.4102 11.7C37.5964 11.7 38.2139 11.2287 38.3602 10.4H40.2614C39.9852 12.1875 38.5389 13.1625 36.3614 13.1625ZM34.1027 7.865H38.3439C38.2464 6.4025 37.4989 5.7525 36.2802 5.7525C35.0939 5.7525 34.2977 6.54875 34.1027 7.865ZM41.7252 13V4.50125H43.6914V5.85C44.0977 5.02125 45.0402 4.3225 46.4377 4.3225C48.1439 4.3225 49.3464 5.31375 49.3464 7.65375V13H47.3802V7.8325C47.3802 6.54875 46.8602 5.96375 45.6902 5.96375C44.5852 5.96375 43.6914 6.64625 43.6914 7.995V13H41.7252ZM54.1791 13.1463C52.4891 13.1463 51.6116 12.2362 51.6116 10.6275V5.98H50.4741V4.50125H51.6116V2.6325H53.5779V4.50125H55.4466V5.98H53.5779V10.4487C53.5779 11.1962 53.9354 11.5375 54.5529 11.5375C54.9429 11.5375 55.2354 11.4887 55.5116 11.375V12.935C55.2029 13.0488 54.7804 13.1463 54.1791 13.1463ZM59.2658 13.1625C57.7058 13.1625 56.422 12.415 56.422 10.6437C56.422 8.66125 58.3395 7.94625 60.777 7.94625H61.8333V7.5075C61.8333 6.37 61.4433 5.80125 60.2895 5.80125C59.2658 5.80125 58.762 6.28875 58.6645 7.13375H56.7633C56.9258 5.15125 58.502 4.3225 60.4033 4.3225C62.3045 4.3225 63.7995 5.1025 63.7995 7.42625V13H61.8658V11.96C61.3133 12.6912 60.5658 13.1625 59.2658 13.1625ZM59.737 11.7487C60.9395 11.7487 61.8333 11.115 61.8333 10.0262V9.18125H60.8258C59.3308 9.18125 58.372 9.5225 58.372 10.5625C58.372 11.2775 58.762 11.7487 59.737 11.7487ZM65.7282 13V4.50125H67.6945V6.09375C68.2307 5.02125 69.027 4.3875 70.457 4.37125V6.2075C68.7345 6.22375 67.6945 6.77625 67.6945 8.58V13H65.7282ZM75.409 15.9088V4.50125H77.3753V5.86625C77.8465 5.05375 78.9028 4.3225 80.154 4.3225C82.2828 4.3225 83.924 5.89875 83.924 8.645V8.775C83.924 11.505 82.3478 13.1625 80.154 13.1625C78.8053 13.1625 77.8303 12.4962 77.3753 11.6675V15.9088H75.409ZM79.6665 11.6025C81.1128 11.6025 81.909 10.6275 81.909 8.8075V8.6775C81.909 6.7925 80.934 5.86625 79.6503 5.86625C78.2853 5.86625 77.3103 6.7925 77.3103 8.6775V8.8075C77.3103 10.7087 78.2365 11.6025 79.6665 11.6025ZM87.5935 13.1625C86.0335 13.1625 84.7497 12.415 84.7497 10.6437C84.7497 8.66125 86.6672 7.94625 89.1047 7.94625H90.161V7.5075C90.161 6.37 89.771 5.80125 88.6172 5.80125C87.5935 5.80125 87.0897 6.28875 86.9922 7.13375H85.091C85.2535 5.15125 86.8297 4.3225 88.731 4.3225C90.6322 4.3225 92.1272 5.1025 92.1272 7.42625V13H90.1935V11.96C89.641 12.6912 88.8935 13.1625 87.5935 13.1625ZM88.0647 11.7487C89.2672 11.7487 90.161 11.115 90.161 10.0262V9.18125H89.1535C87.6585 9.18125 86.6997 9.5225 86.6997 10.5625C86.6997 11.2775 87.0897 11.7487 88.0647 11.7487ZM94.0559 13V4.50125H96.0221V6.09375C96.5584 5.02125 97.3546 4.3875 98.7846 4.37125V6.2075C97.0621 6.22375 96.0221 6.77625 96.0221 8.58V13H94.0559ZM102.257 13.1625C100.697 13.1625 99.4134 12.415 99.4134 10.6437C99.4134 8.66125 101.331 7.94625 103.768 7.94625H104.825V7.5075C104.825 6.37 104.435 5.80125 103.281 5.80125C102.257 5.80125 101.753 6.28875 101.656 7.13375H99.7547C99.9172 5.15125 101.493 4.3225 103.395 4.3225C105.296 4.3225 106.791 5.1025 106.791 7.42625V13H104.857V11.96C104.305 12.6912 103.557 13.1625 102.257 13.1625ZM102.728 11.7487C103.931 11.7487 104.825 11.115 104.825 10.0262V9.18125H103.817C102.322 9.18125 101.363 9.5225 101.363 10.5625C101.363 11.2775 101.753 11.7487 102.728 11.7487Z" fill="black"/>
</svg>
