<?xml version="1.0" encoding="utf-8"?>
<!-- Generator: Adobe Illustrator 27.7.0, SVG Export Plug-In . SVG Version: 6.00 Build 0)  -->
<svg version="1.1" id="Layer_1" xmlns="http://www.w3.org/2000/svg" xmlns:xlink="http://www.w3.org/1999/xlink" x="0px" y="0px"
	 viewBox="0 0 363.1 71.5" style="enable-background:new 0 0 363.1 71.5;" xml:space="preserve">
<style type="text/css">
	.st0{fill:#FFD000;}
</style>
<path class="st0" d="M0,27.1l4.8-5.8c0.8,0.8,1.9,1.6,3.3,2.3c1.4,0.7,2.9,1,4.4,1c0.8,0,1.6-0.2,2.3-0.5c0.7-0.3,1.1-1,1.1-1.9
	c0-0.8-0.4-1.4-1.2-1.9c-0.8-0.5-2-1-3.5-1.5l-1.7-0.5c-1.2-0.4-2.5-1-3.7-1.7c-1.2-0.7-2.2-1.6-3-2.7c-0.8-1.1-1.2-2.5-1.2-4.1
	c0-1.9,0.4-3.5,1.3-5C4,3.3,5.3,2.1,7,1.3C8.8,0.4,10.9,0,13.4,0c2,0,3.7,0.2,5.1,0.7c1.5,0.4,2.7,1,3.6,1.6c1,0.6,1.7,1.1,2.1,1.6
	l-4,5.1c-1-0.8-2.1-1.4-3.3-1.9c-1.1-0.5-2.3-0.8-3.5-0.8c-0.8,0-1.5,0.2-2.2,0.5c-0.7,0.3-1,0.9-1,1.8c0,0.9,0.4,1.6,1.3,2
	c0.8,0.4,1.9,0.8,3.2,1.3l1.4,0.4c1,0.3,2,0.7,3.1,1.2c1,0.4,2,1,2.9,1.8c0.9,0.7,1.6,1.6,2.1,2.7c0.5,1.1,0.8,2.4,0.8,4
	c0,1.8-0.6,3.5-1.7,4.9c-1.1,1.4-2.5,2.6-4.4,3.4c-1.8,0.8-3.9,1.2-6.1,1.2c-3,0-5.5-0.4-7.5-1.2C3.1,29.5,1.4,28.4,0,27.1z
	 M28.8,19.1V0.8h7.9v17.6c0,1.6,0.4,3,1.1,4c0.8,1,2.1,1.6,3.8,1.6c1.8,0,3-0.5,3.8-1.6c0.7-1.1,1.1-2.4,1.1-4V0.8h8v18.3
	c0,2.5-0.6,4.8-1.7,6.6c-1.1,1.9-2.6,3.3-4.6,4.3c-1.9,1-4.1,1.5-6.6,1.5S37,31,35,30c-1.9-1-3.5-2.4-4.6-4.3
	C29.3,23.9,28.8,21.7,28.8,19.1z M59.8,30.8V0.8H72c3.2,0,5.8,0.9,7.7,2.6c1.9,1.7,2.9,4.1,2.9,7.4c0,2-0.4,3.8-1.3,5.3
	c-0.9,1.5-2.1,2.7-3.7,3.5c-1.6,0.8-3.4,1.2-5.4,1.2h-4.7v10H59.8z M67.5,14.5h3.8c1.1,0,1.9-0.3,2.6-1c0.6-0.7,0.9-1.6,0.9-2.6
	c0-1.1-0.3-2.1-0.9-2.7c-0.6-0.7-1.5-1-2.6-1h-3.7V14.5z M86.6,30.8V0.8h21.5v6.9H94.5v4.6h11.2v6.5H94.5v5.1h14.5v6.9H86.6z
	 M113.2,30.8V0.8h12.4c3.2,0,5.8,0.8,7.7,2.5c1.9,1.6,2.9,4.1,2.9,7.3c0,1.9-0.4,3.7-1.3,5.1c-0.9,1.5-2,2.6-3.5,3.5l6.4,11.5h-8.5
	l-5.1-10.2h-3.3v10.2H113.2z M120.9,14.3h3.9c1,0,1.9-0.3,2.6-0.9c0.7-0.7,1-1.5,1-2.6c0-1.1-0.3-2-0.9-2.7c-0.6-0.7-1.5-1-2.6-1
	h-3.8V14.3z M149.5,30.8V0.8h12.2c3.2,0,5.8,0.9,7.7,2.6c1.9,1.7,2.9,4.1,2.9,7.4c0,2-0.4,3.8-1.3,5.3c-0.9,1.5-2.1,2.7-3.7,3.5
	c-1.6,0.8-3.4,1.2-5.4,1.2h-4.7v10H149.5z M157.2,14.5h3.8c1.1,0,1.9-0.3,2.6-1c0.6-0.7,0.9-1.6,0.9-2.6c0-1.1-0.3-2.1-0.9-2.7
	c-0.6-0.7-1.5-1-2.6-1h-3.7V14.5z M176.3,30.8V0.8h12.4c3.2,0,5.8,0.8,7.7,2.5c1.9,1.6,2.9,4.1,2.9,7.3c0,1.9-0.4,3.7-1.3,5.1
	c-0.9,1.5-2,2.6-3.5,3.5l6.4,11.5h-8.5l-5.1-10.2H184v10.2H176.3z M184,14.3h3.9c1,0,1.9-0.3,2.6-0.9c0.7-0.7,1-1.5,1-2.6
	c0-1.1-0.3-2-0.9-2.7c-0.6-0.7-1.5-1-2.6-1H184V14.3z M218.2,31.5c-2.2,0-4.3-0.4-6.2-1.2c-1.9-0.8-3.5-1.9-4.9-3.3
	c-1.4-1.4-2.5-3.1-3.2-5c-0.8-1.9-1.2-4-1.2-6.3s0.4-4.4,1.2-6.3c0.8-1.9,1.9-3.6,3.2-5c1.4-1.4,3.1-2.5,4.9-3.3
	c1.9-0.8,4-1.2,6.2-1.2c2.2,0,4.3,0.4,6.2,1.2c1.9,0.8,3.6,1.9,5,3.3c1.4,1.4,2.5,3.1,3.2,5c0.8,1.9,1.2,4,1.2,6.3s-0.4,4.4-1.2,6.3
	c-0.7,1.9-1.8,3.6-3.2,5c-1.4,1.4-3.1,2.5-5,3.3C222.5,31.1,220.5,31.5,218.2,31.5z M218.2,24c1.6,0,2.9-0.4,4-1.1
	c1.1-0.7,1.9-1.8,2.5-3c0.6-1.3,0.9-2.6,0.9-4.2s-0.3-2.9-0.9-4.2c-0.6-1.3-1.4-2.3-2.5-3c-1.1-0.7-2.4-1.1-4-1.1
	c-1.6,0-2.9,0.4-4,1.1c-1.1,0.7-1.9,1.8-2.5,3c-0.6,1.3-0.9,2.6-0.9,4.2s0.3,2.9,0.9,4.2c0.6,1.3,1.4,2.3,2.5,3
	C215.3,23.6,216.7,24,218.2,24z M244.5,30.8L233.7,0.8h8.7l6.7,20.8l6.3-20.8h8.5l-10.9,29.9H244.5z M266.7,30.8V0.8h7.9v29.9H266.7
	z M280,30.8V0.8h11.5c3.1,0,5.8,0.5,8.2,1.6c2.4,1,4.3,2.7,5.7,4.9c1.4,2.2,2.1,5.1,2.1,8.6c0,3.3-0.7,6-2.1,8.3
	c-1.4,2.2-3.3,3.8-5.8,4.9c-2.4,1.1-5.2,1.6-8.2,1.6H280z M288,23.7h3.2c2.6,0,4.6-0.7,6-2.2c1.4-1.5,2.2-3.4,2.2-5.8
	c0-2.4-0.7-4.3-2-5.8c-1.3-1.5-3.4-2.2-6.2-2.2H288V23.7z M311.8,30.8V0.8h21.6v6.9h-13.6v4.6h11.2v6.5h-11.2v5.1h14.5v6.9H311.8z
	 M338.4,30.8V0.8h12.4c3.2,0,5.8,0.8,7.7,2.5c1.9,1.6,2.9,4.1,2.9,7.3c0,1.9-0.4,3.7-1.3,5.1c-0.9,1.5-2,2.6-3.5,3.5l6.4,11.5h-8.5
	l-5.1-10.2h-3.3v10.2H338.4z M346.2,14.3h3.9c1,0,1.9-0.3,2.6-0.9c0.7-0.7,1-1.5,1-2.6c0-1.1-0.3-2-0.9-2.7c-0.6-0.7-1.5-1-2.6-1
	h-3.8V14.3z M16.9,71.5c-2.2,0-4.3-0.4-6.2-1.2c-1.9-0.8-3.5-1.9-4.9-3.3c-1.4-1.4-2.5-3.1-3.2-5c-0.8-1.9-1.2-4-1.2-6.3
	s0.4-4.4,1.2-6.3c0.8-1.9,1.9-3.6,3.2-5c1.4-1.4,3.1-2.5,4.9-3.3c1.9-0.8,4-1.2,6.2-1.2c2.2,0,4.3,0.4,6.2,1.2
	c1.9,0.8,3.6,1.9,5,3.3s2.5,3.1,3.2,5c0.8,1.9,1.2,4,1.2,6.3s-0.4,4.4-1.2,6.3c-0.7,1.9-1.8,3.6-3.2,5c-1.4,1.4-3.1,2.5-5,3.3
	C21.2,71.1,19.1,71.5,16.9,71.5z M16.9,64c1.6,0,2.9-0.4,4-1.1c1.1-0.7,1.9-1.8,2.5-3c0.6-1.3,0.9-2.6,0.9-4.2s-0.3-2.9-0.9-4.2
	c-0.6-1.3-1.4-2.3-2.5-3c-1.1-0.7-2.4-1.1-4-1.1c-1.6,0-2.9,0.4-4,1.1c-1.1,0.7-1.9,1.8-2.5,3c-0.6,1.3-0.9,2.6-0.9,4.2
	s0.3,2.9,0.9,4.2c0.6,1.3,1.4,2.3,2.5,3C14,63.6,15.3,64,16.9,64z M36.7,70.8V40.8h20.9v7H44.6v5.8h10v6.6h-10v10.6H36.7z
	 M76.6,70.8v-23h-9.2v-7h26.4v7h-9.1v23H76.6z M97.4,70.8V40.8h7.9v11h11v-11h7.9v29.9h-7.9V59h-11v11.7H97.4z M129.7,70.8V40.8
	h21.5v6.9h-13.6v4.6h11.2v6.5h-11.2v5.1h14.5v6.9H129.7z M172.7,70.8V58.8l-10.6-18h9.1l5.8,10.7l5.5-10.7h8.8l-10.7,18v12H172.7z
	 M194.4,70.8V40.8H216v6.9h-13.6v4.6h11.2v6.5h-11.2v5.1h14.5v6.9H194.4z M218.5,70.8l11-29.9h9.1l10.6,29.9h-8.6l-1.9-6.2h-10
	l-2,6.2H218.5z M230.3,58.8h6.8l-3.3-11L230.3,58.8z M252.1,70.8V40.8h12.4c3.2,0,5.8,0.8,7.7,2.5c1.9,1.6,2.9,4.1,2.9,7.3
	c0,1.9-0.4,3.7-1.3,5.1c-0.9,1.5-2,2.6-3.5,3.5l6.4,11.5h-8.5l-5.1-10.2h-3.3v10.2H252.1z M259.9,54.3h3.9c1,0,1.9-0.3,2.6-0.9
	c0.7-0.7,1-1.5,1-2.6c0-1.1-0.3-2-0.9-2.7c-0.6-0.7-1.5-1-2.6-1h-3.8V54.3z"/>
</svg>
