<?xml version="1.0" encoding="utf-8"?>
<!-- Generator: Adobe Illustrator 27.7.0, SVG Export Plug-In . SVG Version: 6.00 Build 0)  -->
<svg version="1.1" id="Layer_1" xmlns="http://www.w3.org/2000/svg" xmlns:xlink="http://www.w3.org/1999/xlink" x="0px" y="0px"
	 viewBox="0 0 971 250" style="enable-background:new 0 0 971 250;" xml:space="preserve">
<style type="text/css">
	.st0{fill:#FFFFFF;}
	.st1{fill:#B2BECC;}
</style>
<g>
	<g>
		<g>
			<g>
				<path class="st0" d="M953.8,17.8l-4.9,5l4.7,4.9l-1.8,1.8l-4.7-4.8l-4.8,5l-1.8-1.8l4.9-5l-4.9-5l1.8-1.8l4.8,5l4.8-5
					L953.8,17.8z"/>
				<path class="st1" d="M15.2,51l3.1-8h1.2l3.1,8h-1.3l-0.8-2.2h-3.3L16.4,51H15.2z M17.6,47.8h2.6l-1.3-3.5L17.6,47.8z M24.4,51
					l-1.9-5.6h1.2l1.2,4.3l1.3-4.3h0.9l1.3,4.3l1.2-4.3h1.1L29.1,51H28l-1.3-3.9L25.4,51H24.4z M35.3,51v-0.7
					c-0.2,0.3-0.5,0.5-0.8,0.6s-0.7,0.2-1,0.2s-0.6-0.1-0.9-0.2c-0.3-0.1-0.5-0.3-0.7-0.6s-0.3-0.6-0.3-1c0-0.6,0.2-1.1,0.6-1.4
					c0.4-0.4,1-0.5,1.8-0.5c0.2,0,0.4,0,0.5,0c0.2,0,0.4,0,0.5,0c0.2,0,0.3,0,0.3,0v-0.2c0-0.4-0.1-0.7-0.4-0.9
					c-0.2-0.2-0.6-0.3-1-0.3s-0.8,0.1-1,0.2c-0.2,0.1-0.5,0.2-0.6,0.3l-0.5-0.7c0.2-0.2,0.5-0.3,0.8-0.5s0.8-0.2,1.4-0.2
					c0.7,0,1.3,0.2,1.7,0.5s0.6,0.8,0.6,1.5v3.3c0,0.1,0,0.1,0,0.2c0,0.1,0,0.2,0,0.3h-1V51z M35.3,49v-0.6c0,0-0.1,0-0.3,0
					c-0.1,0-0.3,0-0.5,0s-0.3,0-0.5,0c-0.4,0-0.7,0.1-0.9,0.2c-0.2,0.1-0.4,0.3-0.4,0.4c-0.1,0.2-0.1,0.3-0.1,0.5
					c0,0.3,0.1,0.5,0.3,0.7s0.5,0.2,0.9,0.2c0.3,0,0.5-0.1,0.8-0.2c0.2-0.1,0.4-0.3,0.6-0.5C35.2,49.4,35.3,49.2,35.3,49z M38.9,51
					h-1.1v-5c0-0.1,0-0.1,0-0.2c0-0.1,0-0.2,0-0.3h1v0.9c0.1-0.1,0.2-0.3,0.4-0.4c0.2-0.2,0.4-0.3,0.6-0.4c0.2-0.1,0.5-0.2,0.9-0.2
					c0.1,0,0.2,0,0.3,0s0.2,0,0.3,0.1l-0.2,1c-0.1-0.1-0.3-0.1-0.6-0.1s-0.6,0.1-0.8,0.2c-0.2,0.2-0.4,0.4-0.6,0.6s-0.2,0.5-0.2,0.9
					C38.9,48.1,38.9,51,38.9,51z M45.9,51v-0.7c-0.1,0.1-0.2,0.2-0.3,0.3S45.3,50.9,45,51c-0.2,0.1-0.6,0.2-0.9,0.2
					c-0.5,0-0.9-0.1-1.3-0.3c-0.4-0.2-0.7-0.6-0.9-1s-0.3-0.9-0.3-1.5c0-0.5,0.1-1,0.3-1.4s0.4-0.7,0.7-0.9s0.6-0.4,0.9-0.5
					c0.3-0.1,0.7-0.2,0.9-0.2c0.3,0,0.6,0,0.8,0.1s0.4,0.2,0.7,0.3V43H47v7.4c0,0,0,0.1,0,0.2c0,0.1,0,0.2,0,0.3L45.9,51L45.9,51z
					 M45.9,48.6v-2c-0.1-0.1-0.3-0.2-0.6-0.3c-0.2-0.1-0.5-0.1-0.8-0.1c-0.5,0-1,0.2-1.3,0.6c-0.3,0.4-0.5,0.9-0.5,1.5
					c0,0.4,0.1,0.7,0.2,1c0.1,0.3,0.3,0.5,0.5,0.7s0.5,0.3,0.9,0.3s0.7-0.1,0.9-0.3s0.4-0.4,0.5-0.6C45.8,49.1,45.9,48.9,45.9,48.6z
					 M48.2,50.3l0.7-0.7c0.2,0.2,0.4,0.4,0.7,0.5s0.6,0.2,1,0.2s0.7-0.1,0.9-0.2c0.2-0.1,0.4-0.3,0.4-0.6c0-0.2,0-0.3-0.1-0.4
					c-0.1-0.1-0.3-0.2-0.5-0.3s-0.6-0.2-1-0.3c-0.3-0.1-0.6-0.2-0.8-0.3c-0.3-0.1-0.5-0.3-0.7-0.5s-0.3-0.5-0.3-0.9s0.1-0.7,0.3-0.9
					s0.5-0.4,0.8-0.6c0.3-0.1,0.7-0.2,1.1-0.2c0.5,0,0.9,0.1,1.2,0.2c0.3,0.1,0.6,0.3,0.9,0.5l-0.6,0.7c-0.2-0.2-0.4-0.3-0.6-0.4
					c-0.2-0.1-0.5-0.2-0.9-0.2c-0.3,0-0.6,0.1-0.8,0.2s-0.3,0.3-0.3,0.6c0,0.2,0.1,0.4,0.4,0.5c0.3,0.1,0.6,0.2,1.1,0.3
					c0.4,0.1,0.7,0.2,0.9,0.3c0.3,0.1,0.5,0.3,0.7,0.5s0.3,0.5,0.3,0.9s-0.1,0.7-0.3,0.9s-0.5,0.4-0.9,0.6c-0.4,0.1-0.7,0.2-1.1,0.2
					C49.5,51.2,48.7,50.9,48.2,50.3z M59.8,51v-0.7c-0.2,0.3-0.5,0.5-0.8,0.6s-0.7,0.2-1,0.2s-0.6-0.1-0.9-0.2
					c-0.3-0.1-0.5-0.3-0.7-0.6s-0.3-0.6-0.3-1c0-0.6,0.2-1.1,0.6-1.4c0.4-0.4,1-0.5,1.8-0.5c0.2,0,0.4,0,0.5,0c0.2,0,0.4,0,0.5,0
					c0.2,0,0.3,0,0.3,0v-0.2c0-0.4-0.1-0.7-0.4-0.9c-0.2-0.2-0.6-0.3-1-0.3s-0.8,0.1-1,0.2c-0.2,0.1-0.5,0.2-0.6,0.3l-0.5-0.7
					c0.2-0.2,0.5-0.3,0.8-0.5c0.4-0.2,0.8-0.2,1.4-0.2c0.7,0,1.3,0.2,1.7,0.5s0.6,0.8,0.6,1.5v3.3c0,0.1,0,0.1,0,0.2
					c0,0.1,0,0.2,0,0.3h-1V51z M59.8,49v-0.6c0,0-0.1,0-0.3,0c-0.1,0-0.3,0-0.5,0s-0.3,0-0.5,0c-0.4,0-0.7,0.1-0.9,0.2
					c-0.2,0.1-0.4,0.3-0.4,0.4c-0.1,0-0.2,0.2-0.2,0.4c0,0.3,0.1,0.5,0.3,0.7s0.5,0.2,0.9,0.2c0.3,0,0.5-0.1,0.8-0.2
					c0.2-0.1,0.4-0.3,0.6-0.5C59.7,49.4,59.8,49.2,59.8,49z M63.4,51h-1.1v-5c0-0.1,0-0.1,0-0.2c0-0.1,0-0.2,0-0.4h1v0.8
					c0.1-0.1,0.2-0.3,0.4-0.4c0.2-0.2,0.4-0.3,0.6-0.4c0.2-0.1,0.5-0.2,0.9-0.2c0.7,0,1.3,0.2,1.6,0.6c0.4,0.4,0.5,1,0.5,1.7V51
					h-1.1v-3.3c0-0.5-0.1-0.9-0.3-1.1c-0.2-0.2-0.5-0.4-0.9-0.4s-0.7,0.1-1,0.3c-0.2,0.2-0.4,0.5-0.5,0.8s-0.1,0.7-0.1,1V51z
					 M72.9,51v-0.7c-0.1,0.1-0.2,0.2-0.3,0.3c-0.1,0.1-0.3,0.3-0.6,0.4c-0.2,0.1-0.6,0.2-0.9,0.2c-0.5,0-0.9-0.1-1.3-0.3
					s-0.7-0.6-0.9-1c-0.2-0.4-0.3-0.9-0.3-1.5c0-0.5,0.1-1,0.3-1.4c0.2-0.4,0.4-0.7,0.7-0.9c0.3-0.2,0.6-0.4,0.9-0.5
					s0.7-0.2,0.9-0.2c0.3,0,0.6,0,0.8,0.1c0.2,0.1,0.4,0.2,0.7,0.3V43H74v7.4c0,0,0,0.1,0,0.2c0,0.1,0,0.2,0,0.3L72.9,51L72.9,51z
					 M72.8,48.6v-2c-0.1-0.1-0.3-0.2-0.6-0.3c-0.2-0.1-0.5-0.1-0.8-0.1c-0.5,0-1,0.2-1.3,0.6c-0.3,0.4-0.5,0.9-0.5,1.5
					c0,0.4,0.1,0.7,0.2,1s0.3,0.5,0.5,0.7s0.5,0.3,0.9,0.3s0.7-0.1,0.9-0.3c0.2-0.2,0.4-0.4,0.5-0.6C72.8,49.1,72.8,48.9,72.8,48.6z
					 M78.7,51h-1.1v-5c0-0.1,0-0.1,0-0.2c0-0.1,0-0.2,0-0.3h1v0.9c0.1-0.1,0.2-0.3,0.4-0.4c0.2-0.2,0.4-0.3,0.6-0.4
					c0.2-0.1,0.5-0.2,0.9-0.2c0.1,0,0.2,0,0.3,0c0.1,0,0.2,0,0.3,0.1l-0.2,1c-0.1-0.1-0.3-0.1-0.6-0.1c-0.3,0-0.6,0.1-0.8,0.2
					c-0.2,0.2-0.4,0.4-0.6,0.6s-0.2,0.5-0.2,0.9L78.7,51L78.7,51z M85.3,51v-0.7c-0.2,0.3-0.5,0.5-0.8,0.6s-0.7,0.2-1,0.2
					s-0.6-0.1-0.9-0.2c-0.3-0.1-0.5-0.3-0.7-0.6s-0.3-0.6-0.3-1c0-0.6,0.2-1.1,0.6-1.4c0.4-0.4,1-0.5,1.8-0.5c0.2,0,0.4,0,0.5,0
					c0.2,0,0.4,0,0.5,0c0.2,0,0.3,0,0.3,0v-0.2c0-0.4-0.1-0.7-0.4-0.9c-0.2-0.2-0.6-0.3-1-0.3s-0.8,0.1-1,0.2
					c-0.2,0.1-0.5,0.2-0.6,0.3l-0.5-0.7c0.2-0.2,0.5-0.3,0.8-0.5c0.4-0.2,0.8-0.2,1.4-0.2c0.7,0,1.3,0.2,1.7,0.5
					c0.4,0.3,0.6,0.8,0.6,1.5v3.3c0,0.1,0,0.1,0,0.2c0,0.1,0,0.2,0,0.3h-1V51z M85.2,49v-0.6c0,0-0.1,0-0.3,0c-0.1,0-0.3,0-0.5,0
					s-0.3,0-0.5,0c-0.4,0-0.7,0.1-0.9,0.2c-0.2,0.1-0.4,0.3-0.4,0.4c-0.1,0.2-0.1,0.3-0.1,0.5c0,0.3,0.1,0.5,0.3,0.7
					s0.5,0.2,0.9,0.2c0.3,0,0.5-0.1,0.8-0.2c0.2-0.1,0.4-0.3,0.6-0.5C85.2,49.4,85.2,49.2,85.2,49z M88.2,49.2v-2.9h-1v-0.9h1v-1.8
					h1.1v1.8h1.6v0.9h-1.6V49c0,0.4,0.1,0.8,0.2,0.9c0.1,0.2,0.3,0.3,0.6,0.3c0.2,0,0.4,0,0.5-0.1s0.3-0.2,0.4-0.3l0.5,0.7
					c-0.2,0.2-0.5,0.4-0.7,0.5s-0.5,0.2-0.9,0.2c-0.6,0-1-0.2-1.3-0.5C88.4,50.3,88.2,49.8,88.2,49.2z M92.3,44.4v-1.2h1.2v1.2H92.3
					z M92.4,51v-5.6h1.1V51H92.4z M96.1,51H95v-5c0-0.1,0-0.1,0-0.2c0-0.1,0-0.2,0-0.4h1v0.8c0.1-0.1,0.2-0.3,0.4-0.4
					c0.2-0.2,0.4-0.3,0.6-0.4c0.2-0.1,0.5-0.2,0.9-0.2c0.7,0,1.3,0.2,1.6,0.6c0.4,0.4,0.5,1,0.5,1.7V51h-1v-3.3
					c0-0.5-0.1-0.9-0.3-1.1c-0.2-0.2-0.5-0.4-0.9-0.4s-0.7,0.1-1,0.3c-0.2,0.2-0.4,0.5-0.5,0.8s-0.1,0.7-0.1,1L96.1,51L96.1,51z
					 M101.8,52.9l0.5-0.8c0.2,0.1,0.4,0.2,0.7,0.3c0.3,0.1,0.6,0.1,1,0.1c0.5,0,0.9-0.1,1.2-0.4c0.3-0.3,0.4-0.7,0.4-1.2v-0.7
					c-0.1,0.1-0.2,0.2-0.3,0.3c-0.1,0.1-0.3,0.2-0.6,0.3c-0.2,0.1-0.5,0.1-0.8,0.1c-0.5,0-1-0.1-1.4-0.4c-0.4-0.2-0.7-0.6-0.9-1
					c-0.2-0.4-0.3-0.9-0.3-1.4c0-0.6,0.1-1.1,0.4-1.5c0.3-0.5,0.6-0.8,1.1-1.1s1-0.4,1.6-0.4c0.4,0,0.9,0,1.3,0.1s0.7,0.2,1,0.3V51
					c0,0.8-0.2,1.4-0.7,1.9c-0.5,0.4-1.1,0.7-2,0.7c-0.6,0-1-0.1-1.4-0.2C102.3,53.2,102,53.1,101.8,52.9z M105.6,48.7v-2.3
					c-0.1,0-0.2-0.1-0.4-0.1c-0.2,0-0.4-0.1-0.8-0.1s-0.8,0.1-1.1,0.3c-0.3,0.2-0.5,0.4-0.7,0.7s-0.3,0.7-0.3,1.1
					c0,0.3,0.1,0.6,0.2,0.9c0.1,0.3,0.3,0.5,0.5,0.7s0.5,0.3,0.9,0.3s0.7-0.1,0.9-0.2c0.2-0.1,0.4-0.3,0.5-0.5
					C105.5,49.2,105.6,49,105.6,48.7z M107.8,50.3l0.7-0.7c0.2,0.2,0.4,0.4,0.7,0.5s0.6,0.2,1,0.2s0.7-0.1,0.9-0.2
					c0.2-0.1,0.4-0.3,0.4-0.6c0-0.2,0-0.3-0.1-0.4s-0.3-0.2-0.5-0.3s-0.6-0.2-1-0.3c-0.3-0.1-0.6-0.2-0.8-0.3
					c-0.3-0.1-0.5-0.3-0.7-0.5s-0.3-0.5-0.3-0.9s0.1-0.7,0.3-0.9c0.2-0.2,0.5-0.4,0.8-0.6c0.3-0.1,0.7-0.2,1.1-0.2
					c0.5,0,0.9,0.1,1.2,0.2c0.3,0.1,0.6,0.3,0.9,0.5l-0.6,0.7c-0.2-0.2-0.4-0.3-0.6-0.4c-0.2-0.1-0.5-0.2-0.9-0.2
					c-0.3,0-0.6,0.1-0.8,0.2s-0.3,0.3-0.3,0.6c0,0.2,0.1,0.4,0.4,0.5s0.6,0.2,1.1,0.3c0.4,0.1,0.7,0.2,0.9,0.3
					c0.3,0.1,0.5,0.3,0.7,0.5s0.3,0.5,0.3,0.9s-0.1,0.7-0.3,0.9c-0.2,0.2-0.5,0.4-0.9,0.6c-0.4,0.1-0.7,0.2-1.1,0.2
					C109.1,51.2,108.3,50.9,107.8,50.3z M119.5,51v-0.7c-0.2,0.3-0.5,0.5-0.8,0.6s-0.7,0.2-1,0.2s-0.6-0.1-0.9-0.2
					c-0.3-0.1-0.5-0.3-0.7-0.6s-0.3-0.6-0.3-1c0-0.6,0.2-1.1,0.6-1.4c0.4-0.4,1-0.5,1.8-0.5c0.2,0,0.4,0,0.5,0c0.2,0,0.4,0,0.5,0
					c0.2,0,0.3,0,0.3,0v-0.2c0-0.4-0.1-0.7-0.4-0.9c-0.2-0.2-0.6-0.3-1-0.3s-0.8,0.1-1,0.2c-0.2,0.1-0.5,0.2-0.6,0.3l-0.5-0.7
					c0.2-0.2,0.5-0.3,0.8-0.5s0.8-0.2,1.4-0.2c0.7,0,1.3,0.2,1.7,0.5c0.4,0.3,0.6,0.8,0.6,1.5v3.3c0,0.1,0,0.1,0,0.2
					c0,0.1,0,0.2,0,0.3h-1V51z M119.4,49v-0.6c0,0-0.1,0-0.3,0c-0.1,0-0.3,0-0.5,0s-0.3,0-0.5,0c-0.4,0-0.7,0.1-0.9,0.2
					c-0.2,0.1-0.4,0.3-0.4,0.4c-0.1,0.2-0.1,0.3-0.1,0.5c0,0.3,0.1,0.5,0.3,0.7s0.5,0.2,0.9,0.2c0.3,0,0.5-0.1,0.8-0.2
					c0.2-0.1,0.4-0.3,0.6-0.5C119.3,49.4,119.4,49.2,119.4,49z M123,51h-1.1v-5c0-0.1,0-0.1,0-0.2c0-0.1,0-0.2,0-0.3h1v0.9
					c0.1-0.1,0.2-0.3,0.4-0.4c0.2-0.2,0.4-0.3,0.6-0.4c0.2-0.1,0.5-0.2,0.9-0.2c0.1,0,0.2,0,0.3,0c0.1,0,0.2,0,0.3,0.1l-0.2,1
					c-0.1-0.1-0.3-0.1-0.6-0.1c-0.3,0-0.6,0.1-0.8,0.2c-0.2,0.2-0.4,0.4-0.6,0.6s-0.2,0.5-0.2,0.9L123,51L123,51z M130.5,49.5
					l0.6,0.6c-0.1,0.1-0.2,0.2-0.4,0.4s-0.5,0.3-0.8,0.4c-0.3,0.1-0.7,0.2-1.2,0.2c-0.6,0-1.1-0.1-1.5-0.4c-0.4-0.3-0.8-0.6-1-1.1
					s-0.4-1-0.4-1.6c0-0.5,0.1-1,0.3-1.5c0.2-0.4,0.6-0.8,1-1c0.4-0.3,0.9-0.4,1.5-0.4c0.6,0,1.2,0.2,1.6,0.5
					c0.4,0.3,0.7,0.7,0.9,1.2s0.3,1,0.3,1.6H127c0,0.3,0.1,0.6,0.3,0.9c0.2,0.3,0.4,0.5,0.7,0.6s0.6,0.2,0.9,0.2
					c0.5,0,0.9-0.1,1.2-0.2C130.1,49.8,130.3,49.7,130.5,49.5z M126.8,47.7h3.3c0-0.4-0.2-0.8-0.5-1.1s-0.7-0.5-1.2-0.5
					c-0.3,0-0.6,0.1-0.9,0.2c-0.2,0.2-0.4,0.3-0.6,0.6C126.9,47.2,126.8,47.5,126.8,47.7z M137.3,51.2c-0.6,0-1.1-0.1-1.5-0.4
					c-0.4-0.3-0.8-0.6-1.1-1.1c-0.2-0.5-0.4-1-0.4-1.5s0.1-1,0.4-1.5c0.3-0.4,0.6-0.8,1.1-1.1c0.4-0.3,1-0.4,1.5-0.4
					c0.6,0,1.1,0.1,1.5,0.4c0.4,0.3,0.8,0.6,1.1,1.1c0.3,0.4,0.4,0.9,0.4,1.5c0,0.5-0.1,1-0.4,1.5c-0.3,0.4-0.6,0.8-1.1,1.1
					C138.4,51,137.9,51.2,137.3,51.2z M137.3,50.2c0.4,0,0.7-0.1,1-0.3s0.5-0.5,0.6-0.8c0.2-0.3,0.2-0.6,0.2-1c0-0.3-0.1-0.7-0.2-1
					c-0.1-0.3-0.4-0.6-0.6-0.8c-0.3-0.2-0.6-0.3-1-0.3s-0.7,0.1-1,0.3s-0.5,0.4-0.6,0.8c-0.1,0.3-0.2,0.6-0.2,1c0,0.3,0.1,0.7,0.2,1
					c0.2,0.3,0.4,0.6,0.6,0.8C136.6,50.1,136.9,50.2,137.3,50.2z M142.5,51h-1.1v-5c0-0.1,0-0.1,0-0.2c0-0.1,0-0.2,0-0.4h1v0.8
					c0.1-0.1,0.2-0.3,0.4-0.4c0.2-0.2,0.4-0.3,0.6-0.4c0.2-0.1,0.5-0.2,0.9-0.2c0.7,0,1.3,0.2,1.6,0.6c0.4,0.4,0.5,1,0.5,1.7V51
					h-1.1v-3.3c0-0.5-0.1-0.9-0.3-1.1c-0.2-0.2-0.5-0.4-0.9-0.4s-0.7,0.1-1,0.3c-0.2,0.2-0.4,0.5-0.5,0.8s-0.1,0.7-0.1,1L142.5,51
					L142.5,51z M148,51v-8h1.1v8H148z M150.1,53.1l0.5-0.8c0.1,0.1,0.2,0.1,0.3,0.2c0.1,0.1,0.2,0.1,0.4,0.1c0.3,0,0.4-0.1,0.6-0.3
					c0.1-0.2,0.3-0.6,0.5-1l0.1-0.4l-2.5-5.5h1.2l1.8,4.2l1.6-4.2h1.2l-2.2,5.4c-0.1,0.2-0.2,0.5-0.3,0.8s-0.2,0.6-0.4,0.9
					c-0.2,0.3-0.3,0.5-0.6,0.7c-0.2,0.2-0.5,0.3-0.9,0.3c-0.3,0-0.5,0-0.7-0.1C150.4,53.4,150.2,53.3,150.1,53.1z M161.4,51.2
					c-0.6,0-1.1-0.1-1.5-0.4c-0.4-0.3-0.8-0.6-1.1-1.1c-0.2-0.5-0.4-1-0.4-1.5s0.1-1,0.4-1.5c0.3-0.4,0.6-0.8,1.1-1.1
					c0.4-0.3,1-0.4,1.5-0.4c0.6,0,1.1,0.1,1.5,0.4c0.4,0.3,0.8,0.6,1.1,1.1c0.3,0.4,0.4,0.9,0.4,1.5c0,0.5-0.1,1-0.4,1.5
					c-0.3,0.4-0.6,0.8-1.1,1.1C162.5,51,162,51.2,161.4,51.2z M161.4,50.2c0.4,0,0.7-0.1,1-0.3s0.5-0.5,0.6-0.8
					c0.2-0.3,0.2-0.6,0.2-1c0-0.3-0.1-0.7-0.2-1c-0.1-0.3-0.4-0.6-0.6-0.8c-0.3-0.2-0.6-0.3-1-0.3s-0.7,0.1-1,0.3s-0.5,0.4-0.6,0.8
					c-0.1,0.3-0.2,0.6-0.2,1c0,0.3,0.1,0.7,0.2,1c0.2,0.3,0.4,0.6,0.6,0.8C160.7,50.1,161,50.2,161.4,50.2z M166.7,51h-1.1v-5
					c0-0.1,0-0.1,0-0.2c0-0.1,0-0.2,0-0.4h1v0.8c0.1-0.1,0.2-0.3,0.4-0.4c0.2-0.2,0.4-0.3,0.6-0.4c0.2-0.1,0.5-0.2,0.9-0.2
					c0.7,0,1.3,0.2,1.6,0.6c0.4,0.4,0.5,1,0.5,1.7V51h-1.1v-3.3c0-0.5-0.1-0.9-0.3-1.1c-0.2-0.2-0.5-0.4-0.9-0.4s-0.7,0.1-1,0.3
					c-0.2,0.2-0.4,0.5-0.5,0.8s-0.1,0.7-0.1,1L166.7,51L166.7,51z M176.6,49.5l0.6,0.6c-0.1,0.1-0.2,0.2-0.4,0.4s-0.5,0.3-0.8,0.4
					c-0.3,0.1-0.7,0.2-1.2,0.2c-0.6,0-1.1-0.1-1.5-0.4c-0.4-0.3-0.8-0.6-1-1.1s-0.4-1-0.4-1.6c0-0.5,0.1-1,0.3-1.5
					c0.2-0.4,0.6-0.8,1-1c0.4-0.3,0.9-0.4,1.5-0.4s1.2,0.2,1.6,0.5c0.4,0.3,0.7,0.7,0.9,1.2s0.3,1,0.3,1.6h-4.4
					c0,0.3,0.1,0.6,0.3,0.9c0.2,0.3,0.4,0.5,0.7,0.6s0.6,0.2,0.9,0.2c0.5,0,0.9-0.1,1.2-0.2C176.2,49.8,176.5,49.7,176.6,49.5z
					 M172.9,47.7h3.3c0-0.4-0.2-0.8-0.5-1.1s-0.7-0.5-1.2-0.5c-0.3,0-0.6,0.1-0.9,0.2c-0.2,0.2-0.4,0.3-0.6,0.6
					C173,47.2,173,47.5,172.9,47.7z M181.1,51v-4.7h-1v-0.9h1V45c0-0.5,0.1-0.9,0.3-1.2s0.4-0.6,0.7-0.7s0.6-0.2,0.9-0.2
					c0.3,0,0.6,0,0.9,0.1c0.3,0.1,0.6,0.2,0.8,0.5l-0.5,0.7c-0.3-0.2-0.6-0.4-0.9-0.4c-0.3,0-0.6,0.1-0.8,0.3s-0.3,0.5-0.3,1v0.4
					h1.6v0.9h-1.6V51H181.1z M188,51v-0.7c-0.2,0.3-0.5,0.5-0.8,0.6s-0.7,0.2-1,0.2s-0.6-0.1-0.9-0.2c-0.3-0.1-0.5-0.3-0.7-0.6
					s-0.3-0.6-0.3-1c0-0.6,0.2-1.1,0.6-1.4c0.4-0.4,1-0.5,1.8-0.5c0.2,0,0.4,0,0.5,0c0.2,0,0.4,0,0.5,0c0.2,0,0.3,0,0.3,0v-0.2
					c0-0.4-0.1-0.7-0.4-0.9c-0.2-0.2-0.6-0.3-1-0.3s-0.8,0.1-1,0.2c-0.2,0.1-0.5,0.2-0.6,0.3l-0.5-0.7c0.2-0.2,0.5-0.3,0.8-0.5
					c0.4-0.2,0.8-0.2,1.4-0.2c0.7,0,1.3,0.2,1.7,0.5s0.6,0.8,0.6,1.5v3.3c0,0.1,0,0.1,0,0.2c0,0.1,0,0.2,0,0.3h-1V51z M187.9,49
					v-0.6c0,0-0.1,0-0.3,0c-0.1,0-0.3,0-0.5,0s-0.3,0-0.5,0c-0.4,0-0.7,0.1-0.9,0.2c-0.2,0.1-0.4,0.3-0.4,0.4
					c-0.1,0.2-0.1,0.3-0.1,0.5c0,0.3,0.1,0.5,0.3,0.7s0.5,0.2,0.9,0.2c0.3,0,0.5-0.1,0.8-0.2c0.2-0.1,0.4-0.3,0.6-0.5
					C187.9,49.4,187.9,49.2,187.9,49z M194.6,49.5l0.7,0.7c-0.2,0.3-0.6,0.5-0.9,0.7c-0.4,0.2-0.8,0.3-1.3,0.3
					c-0.6,0-1.1-0.1-1.6-0.4c-0.4-0.3-0.8-0.6-1-1s-0.4-1-0.4-1.5s0.1-1,0.4-1.5c0.2-0.4,0.6-0.8,1-1.1s1-0.4,1.5-0.4
					s0.9,0.1,1.2,0.3s0.7,0.4,0.9,0.7l-0.7,0.7c-0.2-0.2-0.4-0.4-0.6-0.5c-0.2-0.1-0.5-0.2-0.9-0.2s-0.7,0.1-1,0.3s-0.5,0.4-0.6,0.7
					s-0.2,0.6-0.2,1c0,0.3,0.1,0.7,0.2,1c0.2,0.3,0.4,0.6,0.6,0.7c0.3,0.2,0.6,0.3,1,0.3c0.3,0,0.6-0.1,0.9-0.2
					C194.2,49.9,194.5,49.7,194.6,49.5z M196.8,49.2v-2.9h-1v-0.9h1v-1.8h1.1v1.8h1.6v0.9h-1.6V49c0,0.4,0.1,0.8,0.2,0.9
					c0.1,0.2,0.3,0.3,0.6,0.3c0.2,0,0.4,0,0.5-0.1s0.3-0.2,0.4-0.3l0.5,0.7c-0.2,0.2-0.5,0.4-0.7,0.5s-0.5,0.2-0.9,0.2
					c-0.6,0-1-0.2-1.3-0.5C197,50.3,196.8,49.8,196.8,49.2z M203.3,51.2c-0.6,0-1.1-0.1-1.5-0.4c-0.4-0.3-0.8-0.6-1.1-1.1
					c-0.2-0.5-0.4-1-0.4-1.5s0.1-1,0.4-1.5c0.3-0.4,0.6-0.8,1.1-1.1c0.4-0.3,1-0.4,1.5-0.4c0.6,0,1.1,0.1,1.5,0.4
					c0.4,0.3,0.8,0.6,1.1,1.1c0.3,0.4,0.4,0.9,0.4,1.5c0,0.5-0.1,1-0.4,1.5c-0.3,0.4-0.6,0.8-1.1,1.1
					C204.4,51,203.9,51.2,203.3,51.2z M203.3,50.2c0.4,0,0.7-0.1,1-0.3s0.5-0.5,0.6-0.8c0.2-0.3,0.2-0.6,0.2-1c0-0.3-0.1-0.7-0.2-1
					c-0.1-0.3-0.4-0.6-0.6-0.8c-0.3-0.2-0.6-0.3-1-0.3s-0.7,0.1-1,0.3s-0.5,0.4-0.6,0.8c-0.1,0.3-0.2,0.6-0.2,1c0,0.3,0.1,0.7,0.2,1
					c0.2,0.3,0.4,0.6,0.6,0.8C202.6,50.1,202.9,50.2,203.3,50.2z M208.5,51h-1.1v-5c0-0.1,0-0.1,0-0.2c0-0.1,0-0.2,0-0.3h1v0.9
					c0.1-0.1,0.2-0.3,0.4-0.4c0.2-0.2,0.4-0.3,0.6-0.4c0.2-0.1,0.5-0.2,0.9-0.2c0.1,0,0.2,0,0.3,0s0.2,0,0.3,0.1l-0.2,1
					c-0.1-0.1-0.3-0.1-0.6-0.1s-0.6,0.1-0.8,0.2c-0.2,0.2-0.4,0.4-0.6,0.6s-0.2,0.5-0.2,0.9L208.5,51L208.5,51z M214.5,49.2v-2.9h-1
					v-0.9h1v-1.8h1.1v1.8h1.6v0.9h-1.6V49c0,0.4,0.1,0.8,0.2,0.9c0.1,0.2,0.3,0.3,0.6,0.3c0.2,0,0.4,0,0.5-0.1s0.3-0.2,0.4-0.3
					l0.5,0.7c-0.2,0.2-0.5,0.4-0.7,0.5s-0.5,0.2-0.9,0.2c-0.6,0-1-0.2-1.3-0.5C214.6,50.3,214.5,49.8,214.5,49.2z M220.9,51.2
					c-0.6,0-1.1-0.1-1.5-0.4c-0.4-0.3-0.8-0.6-1.1-1.1c-0.2-0.5-0.4-1-0.4-1.5s0.1-1,0.4-1.5c0.3-0.4,0.6-0.8,1.1-1.1
					c0.4-0.3,1-0.4,1.5-0.4c0.6,0,1.1,0.1,1.5,0.4c0.4,0.3,0.8,0.6,1.1,1.1c0.3,0.4,0.4,0.9,0.4,1.5c0,0.5-0.1,1-0.4,1.5
					c-0.3,0.4-0.6,0.8-1.1,1.1C222,51,221.5,51.2,220.9,51.2z M220.9,50.2c0.4,0,0.7-0.1,1-0.3s0.5-0.5,0.6-0.8
					c0.2-0.3,0.2-0.6,0.2-1c0-0.3-0.1-0.7-0.2-1c-0.1-0.3-0.4-0.6-0.6-0.8c-0.3-0.2-0.6-0.3-1-0.3s-0.7,0.1-1,0.3s-0.5,0.4-0.6,0.8
					c-0.1,0.3-0.2,0.6-0.2,1c0,0.3,0.1,0.7,0.2,1c0.2,0.3,0.4,0.6,0.6,0.8C220.2,50.1,220.5,50.2,220.9,50.2z M231.5,49.5l0.7,0.7
					c-0.2,0.3-0.6,0.5-0.9,0.7c-0.4,0.2-0.8,0.3-1.3,0.3c-0.6,0-1.1-0.1-1.6-0.4c-0.4-0.3-0.8-0.6-1-1s-0.4-1-0.4-1.5s0.1-1,0.4-1.5
					c0.2-0.4,0.6-0.8,1-1.1s1-0.4,1.5-0.4s0.9,0.1,1.2,0.3s0.7,0.4,0.9,0.7l-0.7,0.7c-0.2-0.2-0.4-0.4-0.6-0.5s-0.5-0.2-0.9-0.2
					s-0.7,0.1-1,0.3s-0.5,0.4-0.6,0.7s-0.2,0.6-0.2,1c0,0.3,0.1,0.7,0.2,1c0.2,0.3,0.4,0.6,0.6,0.7c0.3,0.2,0.6,0.3,1,0.3
					c0.3,0,0.6-0.1,0.9-0.2C231.1,49.9,231.3,49.7,231.5,49.5z M235.5,51.2c-0.6,0-1.1-0.1-1.5-0.4c-0.4-0.3-0.8-0.6-1.1-1.1
					c-0.2-0.5-0.4-1-0.4-1.5s0.1-1,0.4-1.5c0.3-0.4,0.6-0.8,1.1-1.1c0.4-0.3,1-0.4,1.5-0.4c0.6,0,1.1,0.1,1.5,0.4
					c0.4,0.3,0.8,0.6,1.1,1.1c0.3,0.4,0.4,0.9,0.4,1.5c0,0.5-0.1,1-0.4,1.5c-0.3,0.4-0.6,0.8-1.1,1.1
					C236.6,51,236.1,51.2,235.5,51.2z M235.5,50.2c0.4,0,0.7-0.1,1-0.3s0.5-0.5,0.6-0.8c0.2-0.3,0.2-0.6,0.2-1c0-0.3-0.1-0.7-0.2-1
					c-0.1-0.3-0.4-0.6-0.6-0.8c-0.3-0.2-0.6-0.3-1-0.3s-0.7,0.1-1,0.3s-0.5,0.4-0.6,0.8c-0.1,0.3-0.2,0.6-0.2,1c0,0.3,0.1,0.7,0.2,1
					c0.2,0.3,0.4,0.6,0.6,0.8C234.8,50.1,235.2,50.2,235.5,50.2z M240.8,51h-1.1v-5c0-0.1,0-0.1,0-0.2c0-0.1,0-0.2,0-0.4h1v0.8
					c0.1-0.1,0.2-0.3,0.4-0.4c0.2-0.2,0.4-0.3,0.6-0.4c0.2-0.1,0.5-0.2,0.9-0.2c0.7,0,1.3,0.2,1.6,0.6c0.4,0.4,0.5,1,0.5,1.7V51
					h-1.1v-3.3c0-0.5-0.1-0.9-0.3-1.1c-0.2-0.2-0.5-0.4-0.9-0.4s-0.7,0.1-1,0.3c-0.2,0.2-0.4,0.5-0.5,0.8s-0.1,0.7-0.1,1L240.8,51
					L240.8,51z M246,50.3l0.7-0.7c0.2,0.2,0.4,0.4,0.7,0.5s0.6,0.2,1,0.2s0.7-0.1,0.9-0.2c0.2-0.1,0.4-0.3,0.4-0.6
					c0-0.2,0-0.3-0.1-0.4c-0.1-0.1-0.3-0.2-0.5-0.3s-0.6-0.2-1-0.3c-0.3-0.1-0.6-0.2-0.8-0.3c-0.3-0.1-0.5-0.3-0.7-0.5
					s-0.3-0.5-0.3-0.9s0.1-0.7,0.3-0.9s0.5-0.4,0.8-0.6c0.3-0.1,0.7-0.2,1.1-0.2c0.5,0,0.9,0.1,1.2,0.2c0.3,0.1,0.6,0.3,0.9,0.5
					l-0.6,0.7c-0.2-0.2-0.4-0.3-0.6-0.4c-0.2-0.1-0.5-0.2-0.9-0.2c-0.3,0-0.6,0.1-0.8,0.2c-0.2,0.1-0.3,0.3-0.3,0.6
					c0,0.2,0.1,0.4,0.4,0.5c0.3,0.1,0.6,0.2,1.1,0.3c0.4,0.1,0.7,0.2,0.9,0.3c0.3,0.1,0.5,0.3,0.7,0.5s0.3,0.5,0.3,0.9
					s-0.1,0.7-0.3,0.9s-0.5,0.4-0.9,0.6c-0.4,0.1-0.7,0.2-1.1,0.2C247.3,51.2,246.5,50.9,246,50.3z M251.9,44.4v-1.2h1.2v1.2H251.9z
					 M252,51v-5.6h1.1V51H252z M258.6,51v-0.7c-0.1,0.1-0.2,0.2-0.3,0.3c-0.1,0.1-0.3,0.3-0.6,0.4c-0.2,0.1-0.6,0.2-0.9,0.2
					c-0.5,0-0.9-0.1-1.3-0.3c-0.4-0.2-0.7-0.6-0.9-1s-0.3-0.9-0.3-1.5c0-0.5,0.1-1,0.3-1.4s0.4-0.7,0.7-0.9s0.6-0.4,0.9-0.5
					s0.7-0.2,0.9-0.2c0.3,0,0.6,0,0.8,0.1c0.2,0.1,0.4,0.2,0.7,0.3V43h1.1v7.4c0,0,0,0.1,0,0.2c0,0.1,0,0.2,0,0.3L258.6,51L258.6,51
					z M258.6,48.6v-2c-0.1-0.1-0.3-0.2-0.6-0.3c-0.2-0.1-0.5-0.1-0.8-0.1c-0.5,0-1,0.2-1.3,0.6c-0.3,0.4-0.5,0.9-0.5,1.5
					c0,0.4,0.1,0.7,0.2,1c0.1,0.3,0.3,0.5,0.5,0.7c0.2,0.2,0.5,0.3,0.9,0.3s0.7-0.1,0.9-0.3c0.2-0.2,0.4-0.4,0.5-0.6
					C258.5,49.1,258.6,48.9,258.6,48.6z M265.6,49.5l0.6,0.6c-0.1,0.1-0.2,0.2-0.4,0.4c-0.2,0.2-0.5,0.3-0.8,0.4
					c-0.3,0.1-0.7,0.2-1.2,0.2c-0.6,0-1.1-0.1-1.5-0.4c-0.4-0.3-0.8-0.6-1-1.1s-0.4-1-0.4-1.6c0-0.5,0.1-1,0.3-1.5
					c0.2-0.4,0.6-0.8,1-1c0.4-0.3,0.9-0.4,1.5-0.4s1.2,0.2,1.6,0.5s0.7,0.7,0.9,1.2c0.2,0.5,0.3,1,0.3,1.6H262
					c0,0.3,0.1,0.6,0.3,0.9c0.2,0.3,0.4,0.5,0.7,0.6c0.3,0.1,0.6,0.2,0.9,0.2c0.5,0,0.9-0.1,1.2-0.2
					C265.3,49.8,265.5,49.7,265.6,49.5z M262,47.7h3.3c0-0.4-0.2-0.8-0.5-1.1s-0.7-0.5-1.2-0.5c-0.3,0-0.6,0.1-0.9,0.2
					c-0.2,0.2-0.4,0.3-0.6,0.6C262.1,47.2,262,47.5,262,47.7z M268.7,51h-1.1v-5c0-0.1,0-0.1,0-0.2c0-0.1,0-0.2,0-0.3h1v0.9
					c0.1-0.1,0.2-0.3,0.4-0.4c0.2-0.2,0.4-0.3,0.6-0.4c0.2-0.1,0.5-0.2,0.9-0.2c0.1,0,0.2,0,0.3,0c0.1,0,0.2,0,0.3,0.1l-0.2,1
					c-0.1-0.1-0.3-0.1-0.6-0.1c-0.3,0-0.6,0.1-0.8,0.2c-0.2,0.2-0.4,0.4-0.6,0.6c-0.1,0.3-0.2,0.5-0.2,0.9L268.7,51L268.7,51z
					 M275.4,51l-1.9-5.6h1.2l1.2,4.3l1.3-4.3h0.9l1.3,4.3l1.2-4.3h1.1l-1.8,5.6H279l-1.3-3.9l-1.3,3.9H275.4z M282.8,51v-8h1.1v3.3
					c0.1-0.1,0.2-0.3,0.4-0.4c0.2-0.2,0.4-0.3,0.6-0.4c0.2-0.1,0.5-0.2,0.9-0.2c0.7,0,1.3,0.2,1.6,0.6c0.4,0.4,0.5,1,0.5,1.7V51
					h-1.1v-3.3c0-0.5-0.1-0.9-0.3-1.1c-0.2-0.2-0.5-0.4-0.9-0.4s-0.7,0.1-1,0.3c-0.2,0.2-0.4,0.5-0.5,0.8s-0.1,0.7-0.1,1V51H282.8z
					 M293.8,49.5l0.6,0.6c-0.1,0.1-0.2,0.2-0.4,0.4c-0.2,0.2-0.5,0.3-0.8,0.4c-0.3,0.1-0.7,0.2-1.2,0.2c-0.6,0-1.1-0.1-1.5-0.4
					c-0.4-0.3-0.8-0.6-1-1.1s-0.4-1-0.4-1.6c0-0.5,0.1-1,0.3-1.5c0.2-0.4,0.6-0.8,1-1c0.4-0.3,0.9-0.4,1.5-0.4s1.2,0.2,1.6,0.5
					s0.7,0.7,0.9,1.2c0.2,0.5,0.3,1,0.3,1.6h-4.4c0,0.3,0.1,0.6,0.3,0.9c0.2,0.3,0.4,0.5,0.7,0.6c0.3,0.1,0.6,0.2,0.9,0.2
					c0.5,0,0.9-0.1,1.2-0.2C293.4,49.8,293.7,49.7,293.8,49.5z M290.1,47.7h3.3c0-0.4-0.2-0.8-0.5-1.1s-0.7-0.5-1.2-0.5
					c-0.3,0-0.6,0.1-0.9,0.2c-0.2,0.2-0.4,0.3-0.6,0.6C290.2,47.2,290.2,47.5,290.1,47.7z M296.8,51h-1.1v-5c0-0.1,0-0.1,0-0.2
					c0-0.1,0-0.2,0-0.4h1v0.8c0.1-0.1,0.2-0.3,0.4-0.4c0.2-0.2,0.4-0.3,0.6-0.4c0.2-0.1,0.5-0.2,0.9-0.2c0.7,0,1.3,0.2,1.6,0.6
					c0.4,0.4,0.5,1,0.5,1.7V51h-1.1v-3.3c0-0.5-0.1-0.9-0.3-1.1c-0.2-0.2-0.5-0.4-0.9-0.4s-0.7,0.1-1,0.3c-0.2,0.2-0.4,0.5-0.5,0.8
					s-0.1,0.7-0.1,1V51z M308.6,49.5l0.7,0.7c-0.2,0.3-0.6,0.5-0.9,0.7c-0.4,0.2-0.8,0.3-1.3,0.3c-0.6,0-1.1-0.1-1.6-0.4
					c-0.4-0.3-0.8-0.6-1-1s-0.4-1-0.4-1.5s0.1-1,0.4-1.5c0.2-0.4,0.6-0.8,1-1.1s1-0.4,1.5-0.4s0.9,0.1,1.2,0.3
					c0.4,0.2,0.7,0.4,0.9,0.7l-0.7,0.7c-0.2-0.2-0.4-0.4-0.6-0.5s-0.5-0.2-0.9-0.2s-0.7,0.1-1,0.3s-0.5,0.4-0.6,0.7s-0.2,0.6-0.2,1
					c0,0.3,0.1,0.7,0.2,1c0.2,0.3,0.4,0.6,0.6,0.7c0.3,0.2,0.6,0.3,1,0.3c0.3,0,0.6-0.1,0.9-0.2C308.3,49.9,308.5,49.7,308.6,49.5z
					 M310.4,51v-8h1.1v3.3c0.1-0.1,0.2-0.3,0.4-0.4c0.2-0.2,0.4-0.3,0.6-0.4c0.2-0.1,0.5-0.2,0.9-0.2c0.7,0,1.3,0.2,1.6,0.6
					c0.4,0.4,0.5,1,0.5,1.7V51h-1.1v-3.3c0-0.5-0.1-0.9-0.3-1.1c-0.2-0.2-0.5-0.4-0.9-0.4s-0.7,0.1-1,0.3c-0.2,0.2-0.4,0.5-0.5,0.8
					s-0.1,0.7-0.1,1V51H310.4z M319.6,51.2c-0.6,0-1.1-0.1-1.5-0.4c-0.4-0.3-0.8-0.6-1.1-1.1c-0.2-0.5-0.4-1-0.4-1.5s0.1-1,0.4-1.5
					c0.3-0.4,0.6-0.8,1.1-1.1c0.4-0.3,1-0.4,1.5-0.4s1.1,0.1,1.5,0.4c0.4,0.3,0.8,0.6,1.1,1.1c0.3,0.4,0.4,0.9,0.4,1.5
					c0,0.5-0.1,1-0.4,1.5c-0.3,0.4-0.6,0.8-1.1,1.1C320.6,51,320.1,51.2,319.6,51.2z M319.6,50.2c0.4,0,0.7-0.1,1-0.3
					s0.5-0.5,0.6-0.8c0.2-0.3,0.2-0.6,0.2-1c0-0.3-0.1-0.7-0.2-1s-0.4-0.6-0.6-0.8c-0.3-0.2-0.6-0.3-1-0.3s-0.7,0.1-1,0.3
					s-0.5,0.4-0.6,0.8c-0.1,0.3-0.2,0.6-0.2,1c0,0.3,0.1,0.7,0.2,1c0.2,0.3,0.4,0.6,0.6,0.8C318.9,50.1,319.2,50.2,319.6,50.2z
					 M326.4,51.2c-0.6,0-1.1-0.1-1.5-0.4c-0.4-0.3-0.8-0.6-1.1-1.1c-0.2-0.5-0.4-1-0.4-1.5s0.1-1,0.4-1.5c0.3-0.4,0.6-0.8,1.1-1.1
					c0.4-0.3,1-0.4,1.5-0.4s1.1,0.1,1.5,0.4c0.4,0.3,0.8,0.6,1.1,1.1c0.3,0.4,0.4,0.9,0.4,1.5c0,0.5-0.1,1-0.4,1.5
					c-0.3,0.4-0.6,0.8-1.1,1.1C327.5,51,327,51.2,326.4,51.2z M326.4,50.2c0.4,0,0.7-0.1,1-0.3s0.5-0.5,0.6-0.8
					c0.2-0.3,0.2-0.6,0.2-1c0-0.3-0.1-0.7-0.2-1s-0.4-0.6-0.6-0.8c-0.3-0.2-0.6-0.3-1-0.3s-0.7,0.1-1,0.3s-0.5,0.4-0.6,0.8
					c-0.1,0.3-0.2,0.6-0.2,1c0,0.3,0.1,0.7,0.2,1c0.2,0.3,0.4,0.6,0.6,0.8C325.7,50.1,326.1,50.2,326.4,50.2z M330.3,50.3l0.7-0.7
					c0.2,0.2,0.4,0.4,0.7,0.5s0.6,0.2,1,0.2s0.7-0.1,0.9-0.2c0.2-0.1,0.4-0.3,0.4-0.6c0-0.2,0-0.3-0.1-0.4c-0.1-0.1-0.3-0.2-0.5-0.3
					s-0.6-0.2-1-0.3c-0.3-0.1-0.6-0.2-0.8-0.3c-0.3-0.1-0.5-0.3-0.7-0.5s-0.3-0.5-0.3-0.9s0.1-0.7,0.3-0.9c0.2-0.2,0.5-0.4,0.8-0.6
					c0.3-0.1,0.7-0.2,1.1-0.2c0.5,0,0.9,0.1,1.2,0.2c0.3,0.1,0.6,0.3,0.9,0.5l-0.6,0.7c-0.2-0.2-0.4-0.3-0.6-0.4
					c-0.2-0.1-0.5-0.2-0.9-0.2c-0.3,0-0.6,0.1-0.8,0.2s-0.3,0.3-0.3,0.6c0,0.2,0.1,0.4,0.4,0.5s0.6,0.2,1.1,0.3
					c0.4,0.1,0.7,0.2,0.9,0.3c0.3,0.1,0.5,0.3,0.7,0.5s0.3,0.5,0.3,0.9s-0.1,0.7-0.3,0.9c-0.2,0.2-0.5,0.4-0.9,0.6
					c-0.4,0.1-0.7,0.2-1.1,0.2C331.6,51.2,330.8,50.9,330.3,50.3z M336.3,44.4v-1.2h1.2v1.2H336.3z M336.3,51v-5.6h1.1V51H336.3z
					 M340,51h-1.1v-5c0-0.1,0-0.1,0-0.2c0-0.1,0-0.2,0-0.4h1v0.8c0.1-0.1,0.2-0.3,0.4-0.4c0.2-0.2,0.4-0.3,0.6-0.4
					c0.2-0.1,0.5-0.2,0.9-0.2c0.7,0,1.3,0.2,1.6,0.6c0.4,0.4,0.5,1,0.5,1.7V51h-1.1v-3.3c0-0.5-0.1-0.9-0.3-1.1
					c-0.2-0.2-0.5-0.4-0.9-0.4s-0.7,0.1-1,0.3c-0.2,0.2-0.4,0.5-0.5,0.8s-0.1,0.7-0.1,1V51z M345.7,52.9l0.5-0.8
					c0.2,0.1,0.4,0.2,0.7,0.3c0.3,0.1,0.6,0.1,1,0.1c0.5,0,0.9-0.1,1.2-0.4c0.3-0.3,0.4-0.7,0.4-1.2v-0.7c-0.1,0.1-0.2,0.2-0.3,0.3
					c-0.1,0.1-0.3,0.2-0.6,0.3c-0.2,0.1-0.5,0.1-0.8,0.1c-0.5,0-1-0.1-1.4-0.4c-0.4-0.2-0.7-0.6-0.9-1c-0.2-0.4-0.3-0.9-0.3-1.4
					c0-0.6,0.1-1.1,0.4-1.5c0.3-0.5,0.6-0.8,1.1-1.1s1-0.4,1.6-0.4c0.4,0,0.9,0,1.3,0.1s0.7,0.2,1,0.3V51c0,0.8-0.2,1.4-0.7,1.9
					c-0.5,0.4-1.1,0.7-2,0.7c-0.6,0-1-0.1-1.4-0.2C346.2,53.2,345.9,53.1,345.7,52.9z M349.5,48.7v-2.3c-0.1,0-0.2-0.1-0.4-0.1
					c-0.2,0-0.4-0.1-0.8-0.1s-0.8,0.1-1.1,0.3c-0.3,0.2-0.5,0.4-0.7,0.7s-0.3,0.7-0.3,1.1c0,0.3,0.1,0.6,0.2,0.9
					c0.1,0.3,0.3,0.5,0.5,0.7s0.5,0.3,0.9,0.3s0.7-0.1,0.9-0.2c0.2-0.1,0.4-0.3,0.5-0.5C349.4,49.2,349.5,49,349.5,48.7z M357.7,51
					v-0.7c-0.2,0.3-0.5,0.5-0.8,0.6s-0.7,0.2-1,0.2s-0.6-0.1-0.9-0.2c-0.3-0.1-0.5-0.3-0.7-0.6s-0.3-0.6-0.3-1
					c0-0.6,0.2-1.1,0.6-1.4c0.4-0.4,1-0.5,1.8-0.5c0.2,0,0.4,0,0.5,0c0.2,0,0.4,0,0.5,0c0.2,0,0.3,0,0.3,0v-0.2
					c0-0.4-0.1-0.7-0.4-0.9c-0.2-0.2-0.6-0.3-1-0.3s-0.8,0.1-1,0.2c-0.2,0.1-0.5,0.2-0.6,0.3l-0.5-0.7c0.2-0.2,0.5-0.3,0.8-0.5
					s0.8-0.2,1.4-0.2c0.7,0,1.3,0.2,1.7,0.5c0.4,0.3,0.6,0.8,0.6,1.5v3.3c0,0.1,0,0.1,0,0.2c0,0.1,0,0.2,0,0.3h-1V51z M357.7,49
					v-0.6c0,0-0.1,0-0.3,0c-0.1,0-0.3,0-0.5,0s-0.3,0-0.5,0c-0.4,0-0.7,0.1-0.9,0.2c-0.2,0.1-0.4,0.3-0.4,0.4
					c-0.1,0.2-0.1,0.3-0.1,0.5c0,0.3,0.1,0.5,0.3,0.7s0.5,0.2,0.9,0.2c0.3,0,0.5-0.1,0.8-0.2c0.2-0.1,0.4-0.3,0.6-0.5
					C357.6,49.4,357.7,49.2,357.7,49z M362,50.3l0.7-0.7c0.2,0.2,0.4,0.4,0.7,0.5c0.3,0.1,0.6,0.2,1,0.2s0.7-0.1,0.9-0.2
					c0.2-0.1,0.4-0.3,0.4-0.6c0-0.2,0-0.3-0.1-0.4s-0.3-0.2-0.5-0.3s-0.6-0.2-1-0.3c-0.3-0.1-0.6-0.2-0.8-0.3
					c-0.3-0.1-0.5-0.3-0.7-0.5s-0.3-0.5-0.3-0.9s0.1-0.7,0.3-0.9c0.2-0.2,0.5-0.4,0.8-0.6c0.3-0.1,0.7-0.2,1.1-0.2
					c0.5,0,0.9,0.1,1.2,0.2c0.3,0.1,0.6,0.3,0.9,0.5l-0.6,0.7c-0.2-0.2-0.4-0.3-0.6-0.4c-0.2-0.1-0.5-0.2-0.9-0.2
					c-0.3,0-0.6,0.1-0.8,0.2s-0.3,0.3-0.3,0.6c0,0.2,0.1,0.4,0.4,0.5s0.6,0.2,1.1,0.3c0.4,0.1,0.7,0.2,0.9,0.3
					c0.3,0.1,0.5,0.3,0.7,0.5s0.3,0.5,0.3,0.9s-0.1,0.7-0.3,0.9c-0.2,0.2-0.5,0.4-0.9,0.6c-0.4,0.1-0.7,0.2-1.1,0.2
					C363.4,51.2,362.6,50.9,362,50.3z M368,48.8v-3.3h1.1v3.3c0,0.5,0.1,0.9,0.3,1.1c0.2,0.2,0.5,0.4,0.9,0.4s0.7-0.1,1-0.3
					c0.2-0.2,0.4-0.5,0.5-0.8s0.2-0.7,0.2-1v-2.6h1.1v5c0,0,0,0.1,0,0.2c0,0.1,0,0.2,0,0.3h-1v-0.8c-0.1,0.1-0.2,0.3-0.4,0.4
					c-0.2,0.1-0.4,0.3-0.6,0.4c-0.2,0.1-0.5,0.2-0.9,0.2c-0.7,0-1.3-0.2-1.6-0.6C368.1,50.1,368,49.5,368,48.8z M375.6,53.4h-1.1V46
					c0-0.1,0-0.1,0-0.2c0-0.1,0-0.2,0-0.4h1v0.8c0.1-0.1,0.2-0.2,0.3-0.4c0.2-0.1,0.4-0.3,0.6-0.4c0.3-0.1,0.6-0.2,0.9-0.2
					c0.6,0,1,0.1,1.4,0.4c0.4,0.3,0.7,0.6,0.8,1.1c0.2,0.4,0.3,0.9,0.3,1.5c0,0.5-0.1,0.9-0.3,1.3c-0.2,0.4-0.4,0.7-0.7,0.9
					c-0.3,0.2-0.6,0.4-0.9,0.5s-0.7,0.2-1,0.2c-0.4,0-0.7,0-0.9-0.1c-0.2-0.1-0.4-0.2-0.6-0.2v2.6H375.6z M375.6,48.4v1.4
					c0.1,0.1,0.3,0.2,0.6,0.3c0.2,0.1,0.5,0.1,0.9,0.1s0.7-0.1,1-0.3s0.5-0.4,0.6-0.7c0.2-0.3,0.2-0.6,0.2-1s-0.1-0.7-0.2-1
					s-0.3-0.5-0.5-0.7s-0.6-0.3-1-0.3s-0.7,0.1-1,0.3s-0.5,0.5-0.6,0.9c0,0.1-0.1,0.3-0.1,0.4C375.6,48,375.6,48.2,375.6,48.4z
					 M385.7,49.5l0.6,0.6c-0.1,0.1-0.2,0.2-0.4,0.4c-0.2,0.2-0.5,0.3-0.8,0.4c-0.3,0.1-0.7,0.2-1.2,0.2c-0.6,0-1.1-0.1-1.5-0.4
					c-0.4-0.3-0.8-0.6-1-1.1s-0.4-1-0.4-1.6c0-0.5,0.1-1,0.3-1.5c0.2-0.4,0.6-0.8,1-1c0.4-0.3,0.9-0.4,1.5-0.4s1.2,0.2,1.6,0.5
					s0.7,0.7,0.9,1.2c0.2,0.5,0.3,1,0.3,1.6H382c0,0.3,0.1,0.6,0.3,0.9c0.2,0.3,0.4,0.5,0.7,0.6c0.3,0.1,0.6,0.2,0.9,0.2
					c0.5,0,0.9-0.1,1.2-0.2C385.3,49.8,385.6,49.7,385.7,49.5z M382,47.7h3.3c0-0.4-0.2-0.8-0.5-1.1s-0.7-0.5-1.2-0.5
					c-0.3,0-0.6,0.1-0.9,0.2c-0.2,0.2-0.4,0.3-0.6,0.6C382.1,47.2,382,47.5,382,47.7z M388.7,51h-1.1v-5c0-0.1,0-0.1,0-0.2
					c0-0.1,0-0.2,0-0.3h1v0.9c0.1-0.1,0.2-0.3,0.4-0.4c0.2-0.2,0.4-0.3,0.6-0.4c0.2-0.1,0.5-0.2,0.9-0.2c0.1,0,0.2,0,0.3,0
					c0.1,0,0.2,0,0.3,0.1l-0.2,1c-0.1-0.1-0.3-0.1-0.6-0.1c-0.3,0-0.6,0.1-0.8,0.2c-0.2,0.2-0.4,0.4-0.6,0.6
					c-0.1,0.3-0.2,0.5-0.2,0.9L388.7,51L388.7,51z M394.6,51v-4.7h-1v-0.9h1V45c0-0.5,0.1-0.9,0.3-1.2c0.2-0.3,0.4-0.6,0.7-0.7
					c0.3-0.2,0.6-0.2,0.9-0.2s0.6,0,0.9,0.1s0.6,0.2,0.8,0.5l-0.5,0.7c-0.3-0.2-0.6-0.4-0.9-0.4s-0.6,0.1-0.8,0.3
					c-0.2,0.2-0.3,0.5-0.3,1v0.4h1.6v0.9h-1.6V51H394.6z M398.1,48.8v-3.3h1.1v3.3c0,0.5,0.1,0.9,0.3,1.1c0.2,0.2,0.5,0.4,0.9,0.4
					s0.7-0.1,1-0.3c0.2-0.2,0.4-0.5,0.5-0.8s0.2-0.7,0.2-1v-2.6h1.1v5c0,0,0,0.1,0,0.2c0,0.1,0,0.2,0,0.3h-1v-0.8
					c-0.1,0.1-0.2,0.3-0.4,0.4c-0.2,0.1-0.4,0.3-0.6,0.4c-0.2,0.1-0.5,0.2-0.9,0.2c-0.7,0-1.3-0.2-1.6-0.6
					C398.3,50.1,398.1,49.5,398.1,48.8z M405.7,51h-1.1v-5c0-0.1,0-0.1,0-0.2c0-0.1,0-0.2,0-0.4h1v0.8c0.1-0.1,0.2-0.3,0.4-0.4
					c0.2-0.2,0.4-0.3,0.6-0.4c0.2-0.1,0.5-0.2,0.9-0.2c0.7,0,1.3,0.2,1.6,0.6c0.4,0.4,0.5,1,0.5,1.7V51h-1.1v-3.3
					c0-0.5-0.1-0.9-0.3-1.1c-0.2-0.2-0.5-0.4-0.9-0.4s-0.7,0.1-1,0.3c-0.2,0.2-0.4,0.5-0.5,0.8s-0.1,0.7-0.1,1V51z M415.2,51v-0.7
					c-0.1,0.1-0.2,0.2-0.3,0.3c-0.1,0.1-0.3,0.3-0.6,0.4c-0.2,0.1-0.6,0.2-0.9,0.2c-0.5,0-0.9-0.1-1.3-0.3s-0.7-0.6-0.9-1
					s-0.3-0.9-0.3-1.5c0-0.5,0.1-1,0.3-1.4c0.2-0.4,0.4-0.7,0.7-0.9c0.3-0.2,0.6-0.4,0.9-0.5s0.7-0.2,0.9-0.2c0.3,0,0.6,0,0.8,0.1
					c0.2,0.1,0.4,0.2,0.7,0.3V43h1.1v7.4c0,0,0,0.1,0,0.2c0,0.1,0,0.2,0,0.3L415.2,51L415.2,51z M415.2,48.6v-2
					c-0.1-0.1-0.3-0.2-0.6-0.3c-0.2-0.1-0.5-0.1-0.8-0.1c-0.5,0-1,0.2-1.3,0.6c-0.3,0.4-0.5,0.9-0.5,1.5c0,0.4,0.1,0.7,0.2,1
					s0.3,0.5,0.5,0.7s0.5,0.3,0.9,0.3s0.7-0.1,0.9-0.3c0.2-0.2,0.4-0.4,0.5-0.6C415.1,49.1,415.2,48.9,415.2,48.6z M417.9,51v-1.3
					h1.4V51H417.9z M425.5,51l-3.1-8h1.3l2.4,6.6l2.4-6.6h1.2l-3.1,8H425.5z M430.6,44.4v-1.2h1.2v1.2H430.6z M430.7,51v-5.6h1.1V51
					H430.7z M433,50.3l0.7-0.7c0.2,0.2,0.4,0.4,0.7,0.5s0.6,0.2,1,0.2s0.7-0.1,0.9-0.2c0.2-0.1,0.4-0.3,0.4-0.6c0-0.2,0-0.3-0.1-0.4
					s-0.3-0.2-0.5-0.3s-0.6-0.2-1-0.3c-0.3-0.1-0.6-0.2-0.8-0.3c-0.3-0.1-0.5-0.3-0.7-0.5s-0.3-0.5-0.3-0.9s0.1-0.7,0.3-0.9
					c0.2-0.2,0.5-0.4,0.8-0.6c0.3-0.1,0.7-0.2,1.1-0.2c0.5,0,0.9,0.1,1.2,0.2c0.3,0.1,0.6,0.3,0.9,0.5l-0.6,0.7
					c-0.2-0.2-0.4-0.3-0.6-0.4c-0.2-0.1-0.5-0.2-0.9-0.2c-0.3,0-0.6,0.1-0.8,0.2s-0.3,0.3-0.3,0.6c0,0.2,0.1,0.4,0.4,0.5
					s0.6,0.2,1.1,0.3c0.4,0.1,0.7,0.2,0.9,0.3c0.3,0.1,0.5,0.3,0.7,0.5s0.3,0.5,0.3,0.9s-0.1,0.7-0.3,0.9c-0.2,0.2-0.5,0.4-0.9,0.6
					c-0.4,0.1-0.7,0.2-1.1,0.2C434.3,51.2,433.5,50.9,433,50.3z M438.9,44.4v-1.2h1.2v1.2H438.9z M439,51v-5.6h1.1V51H439z
					 M442.1,49.2v-2.9h-1v-0.9h1v-1.8h1.1v1.8h1.6v0.9h-1.6V49c0,0.4,0.1,0.8,0.2,0.9c0.1,0.2,0.3,0.3,0.6,0.3c0.2,0,0.4,0,0.5-0.1
					s0.3-0.2,0.4-0.3l0.5,0.7c-0.2,0.2-0.5,0.4-0.7,0.5s-0.5,0.2-0.9,0.2c-0.6,0-1-0.2-1.3-0.5C442.2,50.3,442.1,49.8,442.1,49.2z
					 M448.4,51v-8h1.1v3.3c0.1-0.1,0.2-0.3,0.4-0.4c0.2-0.2,0.4-0.3,0.6-0.4c0.2-0.1,0.5-0.2,0.9-0.2c0.7,0,1.3,0.2,1.6,0.6
					c0.4,0.4,0.5,1,0.5,1.7V51h-1.1v-3.3c0-0.5-0.1-0.9-0.3-1.1c-0.2-0.2-0.5-0.4-0.9-0.4s-0.7,0.1-1,0.3c-0.2,0.2-0.4,0.5-0.5,0.8
					s-0.1,0.7-0.1,1V51H448.4z M457.6,51.2c-0.6,0-1.1-0.1-1.5-0.4c-0.4-0.3-0.8-0.6-1.1-1.1c-0.2-0.5-0.4-1-0.4-1.5s0.1-1,0.4-1.5
					c0.3-0.4,0.6-0.8,1.1-1.1c0.4-0.3,1-0.4,1.5-0.4s1.1,0.1,1.5,0.4c0.4,0.3,0.8,0.6,1.1,1.1c0.3,0.4,0.4,0.9,0.4,1.5
					c0,0.5-0.1,1-0.4,1.5c-0.3,0.4-0.6,0.8-1.1,1.1C458.7,51,458.2,51.2,457.6,51.2z M457.6,50.2c0.4,0,0.7-0.1,1-0.3
					s0.5-0.5,0.6-0.8c0.2-0.3,0.2-0.6,0.2-1c0-0.3-0.1-0.7-0.2-1s-0.4-0.6-0.6-0.8c-0.3-0.2-0.6-0.3-1-0.3s-0.7,0.1-1,0.3
					s-0.5,0.4-0.6,0.8c-0.1,0.3-0.2,0.6-0.2,1c0,0.3,0.1,0.7,0.2,1c0.2,0.3,0.4,0.6,0.6,0.8C456.9,50.1,457.2,50.2,457.6,50.2z
					 M461.5,50.3l0.7-0.7c0.2,0.2,0.4,0.4,0.7,0.5s0.6,0.2,1,0.2s0.7-0.1,0.9-0.2c0.2-0.1,0.4-0.3,0.4-0.6c0-0.2,0-0.3-0.1-0.4
					c-0.1-0.1-0.3-0.2-0.5-0.3s-0.6-0.2-1-0.3c-0.3-0.1-0.6-0.2-0.8-0.3c-0.3-0.1-0.5-0.3-0.7-0.5s-0.3-0.5-0.3-0.9s0.1-0.7,0.3-0.9
					c0.2-0.2,0.5-0.4,0.8-0.6c0.3-0.1,0.7-0.2,1.1-0.2c0.5,0,0.9,0.1,1.2,0.2c0.3,0.1,0.6,0.3,0.9,0.5l-0.6,0.7
					c-0.2-0.2-0.4-0.3-0.6-0.4c-0.2-0.1-0.5-0.2-0.9-0.2c-0.3,0-0.6,0.1-0.8,0.2s-0.3,0.3-0.3,0.6c0,0.2,0.1,0.4,0.4,0.5
					s0.6,0.2,1.1,0.3c0.4,0.1,0.7,0.2,0.9,0.3c0.3,0.1,0.5,0.3,0.7,0.5s0.3,0.5,0.3,0.9s-0.1,0.7-0.3,0.9c-0.2,0.2-0.5,0.4-0.9,0.6
					c-0.4,0.1-0.7,0.2-1.1,0.2C462.8,51.2,462,50.9,461.5,50.3z M467.9,49.2v-2.9h-1v-0.9h1v-1.8h1.1v1.8h1.6v0.9H469V49
					c0,0.4,0.1,0.8,0.2,0.9c0.1,0.2,0.3,0.3,0.6,0.3c0.2,0,0.4,0,0.5-0.1s0.3-0.2,0.4-0.3l0.5,0.7c-0.2,0.2-0.5,0.4-0.7,0.5
					s-0.5,0.2-0.9,0.2c-0.6,0-1-0.2-1.3-0.5C468.1,50.3,467.9,49.8,467.9,49.2z M473.1,53.4H472V46c0-0.1,0-0.1,0-0.2
					c0-0.1,0-0.2,0-0.4h1v0.8c0.1-0.1,0.2-0.2,0.3-0.4c0.2-0.1,0.4-0.3,0.6-0.4c0.3-0.1,0.6-0.2,0.9-0.2c0.6,0,1,0.1,1.4,0.4
					c0.4,0.3,0.7,0.6,0.8,1.1c0.2,0.4,0.3,0.9,0.3,1.5c0,0.5-0.1,0.9-0.3,1.3c-0.2,0.4-0.4,0.7-0.7,0.9c-0.3,0.2-0.6,0.4-0.9,0.5
					s-0.7,0.2-1,0.2c-0.4,0-0.7,0-0.9-0.1c-0.2-0.1-0.4-0.2-0.6-0.2v2.6H473.1z M473.1,48.4v1.4c0.1,0.1,0.3,0.2,0.6,0.3
					c0.2,0.1,0.5,0.1,0.9,0.1s0.7-0.1,1-0.3s0.5-0.4,0.6-0.7c0.2-0.3,0.2-0.6,0.2-1s-0.1-0.7-0.2-1s-0.3-0.5-0.5-0.7s-0.6-0.3-1-0.3
					s-0.7,0.1-1,0.3s-0.5,0.5-0.6,0.9c0,0.1-0.1,0.3-0.1,0.4C473.1,48,473.1,48.2,473.1,48.4z M478.7,51v-8h1.1v8H478.7z
					 M481.2,48.8v-3.3h1.1v3.3c0,0.5,0.1,0.9,0.3,1.1c0.2,0.2,0.5,0.4,0.9,0.4s0.7-0.1,1-0.3c0.2-0.2,0.4-0.5,0.5-0.8s0.2-0.7,0.2-1
					v-2.6h1.1v5c0,0,0,0.1,0,0.2c0,0.1,0,0.2,0,0.3h-1v-0.8c-0.1,0.1-0.2,0.3-0.4,0.4c-0.2,0.1-0.4,0.3-0.6,0.4
					c-0.2,0.1-0.5,0.2-0.9,0.2c-0.7,0-1.3-0.2-1.6-0.6S481.2,49.5,481.2,48.8z M487.5,50.3l0.7-0.7c0.2,0.2,0.4,0.4,0.7,0.5
					s0.6,0.2,1,0.2s0.7-0.1,0.9-0.2c0.2-0.1,0.4-0.3,0.4-0.6c0-0.2,0-0.3-0.1-0.4c-0.1-0.1-0.3-0.2-0.5-0.3s-0.6-0.2-1-0.3
					c-0.3-0.1-0.6-0.2-0.8-0.3c-0.3-0.1-0.5-0.3-0.7-0.5s-0.3-0.5-0.3-0.9s0.1-0.7,0.3-0.9c0.2-0.2,0.5-0.4,0.8-0.6
					c0.3-0.1,0.7-0.2,1.1-0.2c0.5,0,0.9,0.1,1.2,0.2c0.3,0.1,0.6,0.3,0.9,0.5l-0.6,0.7c-0.2-0.2-0.4-0.3-0.6-0.4
					c-0.2-0.1-0.5-0.2-0.9-0.2c-0.3,0-0.6,0.1-0.8,0.2c-0.2,0.1-0.3,0.3-0.3,0.6c0,0.2,0.1,0.4,0.4,0.5s0.6,0.2,1.1,0.3
					c0.4,0.1,0.7,0.2,0.9,0.3c0.3,0.1,0.5,0.3,0.7,0.5s0.3,0.5,0.3,0.9s-0.1,0.7-0.3,0.9c-0.2,0.2-0.5,0.4-0.9,0.6
					c-0.4,0.1-0.7,0.2-1.1,0.2C488.8,51.2,488,50.9,487.5,50.3z M493.2,51v-1.3h1.4V51H493.2z M500,49.5l0.7,0.7
					c-0.2,0.3-0.6,0.5-0.9,0.7c-0.4,0.2-0.8,0.3-1.3,0.3c-0.6,0-1.1-0.1-1.6-0.4c-0.4-0.3-0.8-0.6-1-1s-0.4-1-0.4-1.5s0.1-1,0.4-1.5
					c0.2-0.4,0.6-0.8,1-1.1s1-0.4,1.5-0.4s0.9,0.1,1.2,0.3c0.4,0.2,0.7,0.4,0.9,0.7l-0.7,0.7c-0.2-0.2-0.4-0.4-0.6-0.5
					s-0.5-0.2-0.9-0.2s-0.7,0.1-1,0.3s-0.5,0.4-0.6,0.7s-0.2,0.6-0.2,1c0,0.3,0.1,0.7,0.2,1c0.2,0.3,0.4,0.6,0.6,0.7
					c0.3,0.2,0.6,0.3,1,0.3c0.3,0,0.6-0.1,0.9-0.2C499.6,49.9,499.8,49.7,500,49.5z M504,51.2c-0.6,0-1.1-0.1-1.5-0.4
					c-0.4-0.3-0.8-0.6-1.1-1.1c-0.2-0.5-0.4-1-0.4-1.5s0.1-1,0.4-1.5c0.3-0.4,0.6-0.8,1.1-1.1c0.4-0.3,1-0.4,1.5-0.4
					c0.6,0,1.1,0.1,1.5,0.4c0.4,0.3,0.8,0.6,1.1,1.1c0.3,0.4,0.4,0.9,0.4,1.5c0,0.5-0.1,1-0.4,1.5c-0.3,0.4-0.6,0.8-1.1,1.1
					C505.1,51,504.6,51.2,504,51.2z M504,50.2c0.4,0,0.7-0.1,1-0.3s0.5-0.5,0.6-0.8c0.2-0.3,0.2-0.6,0.2-1c0-0.3-0.1-0.7-0.2-1
					s-0.4-0.6-0.6-0.8c-0.3-0.2-0.6-0.3-1-0.3s-0.7,0.1-1,0.3s-0.5,0.4-0.6,0.8c-0.1,0.3-0.2,0.6-0.2,1c0,0.3,0.1,0.7,0.2,1
					c0.2,0.3,0.4,0.6,0.6,0.8C503.3,50.1,503.7,50.2,504,50.2z M509.3,51h-1.1v-5c0-0.1,0-0.1,0-0.2c0-0.1,0-0.2,0-0.4h1v0.8
					c0.1-0.1,0.2-0.3,0.4-0.4c0.2-0.2,0.3-0.3,0.6-0.4c0.2-0.1,0.5-0.2,0.9-0.2s0.8,0.1,1.1,0.3s0.5,0.4,0.7,0.7
					c0.2-0.3,0.5-0.5,0.8-0.7s0.7-0.3,1.2-0.3c0.7,0,1.3,0.2,1.6,0.6c0.3,0.4,0.5,1,0.5,1.7V51h-1.1v-3.3c0-1-0.4-1.5-1.2-1.5
					c-0.3,0-0.6,0.1-0.8,0.2c-0.2,0.2-0.4,0.4-0.6,0.6c-0.1,0.2-0.2,0.5-0.2,0.8V51H512v-3.3c0-0.5-0.1-0.9-0.3-1.1
					c-0.2-0.2-0.5-0.4-0.9-0.4s-0.7,0.1-0.9,0.3s-0.4,0.5-0.5,0.8s-0.1,0.7-0.1,1V51z M518.5,51v-1.3h1.4V51H518.5z M525,51v-0.7
					c-0.2,0.3-0.5,0.5-0.8,0.6s-0.7,0.2-1,0.2s-0.6-0.1-0.9-0.2c-0.3-0.1-0.5-0.3-0.7-0.6s-0.3-0.6-0.3-1c0-0.6,0.2-1.1,0.6-1.4
					c0.4-0.4,1-0.5,1.8-0.5c0.2,0,0.4,0,0.5,0c0.2,0,0.4,0,0.5,0c0.2,0,0.3,0,0.3,0v-0.2c0-0.4-0.1-0.7-0.4-0.9
					c-0.2-0.2-0.6-0.3-1-0.3s-0.8,0.1-1,0.2c-0.2,0.1-0.5,0.2-0.6,0.3l-0.5-0.7c0.2-0.2,0.5-0.3,0.8-0.5c0.4-0.2,0.8-0.2,1.4-0.2
					c0.7,0,1.3,0.2,1.7,0.5s0.6,0.8,0.6,1.5v3.3c0,0.1,0,0.1,0,0.2c0,0.1,0,0.2,0,0.3h-1V51z M525,49v-0.6c0,0-0.1,0-0.3,0
					c-0.1,0-0.3,0-0.5,0s-0.3,0-0.5,0c-0.4,0-0.7,0.1-0.9,0.2c-0.2,0.1-0.4,0.3-0.4,0.4c-0.1,0.2-0.1,0.3-0.1,0.5
					c0,0.3,0.1,0.5,0.3,0.7s0.5,0.2,0.9,0.2c0.3,0,0.5-0.1,0.8-0.2c0.2-0.1,0.4-0.3,0.6-0.5C524.9,49.4,525,49.2,525,49z
					 M527.4,48.8v-3.3h1.1v3.3c0,0.5,0.1,0.9,0.3,1.1c0.2,0.2,0.5,0.4,0.9,0.4s0.7-0.1,1-0.3c0.2-0.2,0.4-0.5,0.5-0.8s0.2-0.7,0.2-1
					v-2.6h1.1v5c0,0,0,0.1,0,0.2c0,0.1,0,0.2,0,0.3h-1v-0.8c-0.1,0.1-0.2,0.3-0.4,0.4c-0.2,0.1-0.4,0.3-0.6,0.4
					c-0.2,0.1-0.5,0.2-0.9,0.2c-0.7,0-1.3-0.2-1.6-0.6S527.4,49.5,527.4,48.8z M533.5,51.2l3.2-8.4h1.1l-3.2,8.4
					C534.6,51.2,533.5,51.2,533.5,51.2z M541.3,51v-0.7c-0.2,0.3-0.5,0.5-0.8,0.6s-0.7,0.2-1,0.2s-0.6-0.1-0.9-0.2
					c-0.3-0.1-0.5-0.3-0.7-0.6s-0.3-0.6-0.3-1c0-0.6,0.2-1.1,0.6-1.4c0.4-0.4,1-0.5,1.8-0.5c0.2,0,0.4,0,0.5,0c0.2,0,0.4,0,0.5,0
					c0.2,0,0.3,0,0.3,0v-0.2c0-0.4-0.1-0.7-0.4-0.9c-0.2-0.2-0.6-0.3-1-0.3s-0.8,0.1-1,0.2c-0.2,0.1-0.5,0.2-0.6,0.3l-0.5-0.7
					c0.2-0.2,0.5-0.3,0.8-0.5c0.4-0.2,0.8-0.2,1.4-0.2c0.7,0,1.3,0.2,1.7,0.5s0.6,0.8,0.6,1.5v3.3c0,0.1,0,0.1,0,0.2
					c0,0.1,0,0.2,0,0.3h-1V51z M541.2,49v-0.6c0,0-0.1,0-0.3,0c-0.1,0-0.3,0-0.5,0s-0.3,0-0.5,0c-0.4,0-0.7,0.1-0.9,0.2
					c-0.2,0.1-0.4,0.3-0.4,0.4c-0.1,0.2-0.1,0.3-0.1,0.5c0,0.3,0.1,0.5,0.3,0.7s0.5,0.2,0.9,0.2c0.3,0,0.5-0.1,0.8-0.2
					c0.2-0.1,0.4-0.3,0.6-0.5C541.2,49.4,541.2,49.2,541.2,49z M544.9,51l-1.9-5.6h1.2l1.2,4.3l1.3-4.3h0.9l1.3,4.3l1.2-4.3h1.1
					l-1.8,5.6h-1.1l-1.3-3.9l-1.3,3.9H544.9z M555.8,51v-0.7c-0.2,0.3-0.5,0.5-0.8,0.6s-0.7,0.2-1,0.2s-0.6-0.1-0.9-0.2
					c-0.3-0.1-0.5-0.3-0.7-0.6s-0.3-0.6-0.3-1c0-0.6,0.2-1.1,0.6-1.4c0.4-0.4,1-0.5,1.8-0.5c0.2,0,0.4,0,0.5,0c0.2,0,0.4,0,0.5,0
					c0.2,0,0.3,0,0.3,0v-0.2c0-0.4-0.1-0.7-0.4-0.9c-0.2-0.2-0.6-0.3-1-0.3s-0.8,0.1-1,0.2c-0.2,0.1-0.5,0.2-0.6,0.3l-0.5-0.7
					c0.2-0.2,0.5-0.3,0.8-0.5s0.8-0.2,1.4-0.2c0.7,0,1.3,0.2,1.7,0.5s0.6,0.8,0.6,1.5v3.3c0,0.1,0,0.1,0,0.2c0,0.1,0,0.2,0,0.3h-1
					V51z M555.7,49v-0.6c0,0-0.1,0-0.3,0c-0.1,0-0.3,0-0.5,0s-0.3,0-0.5,0c-0.4,0-0.7,0.1-0.9,0.2c-0.2,0.1-0.4,0.3-0.4,0.4
					c-0.1,0.2-0.1,0.3-0.1,0.5c0,0.3,0.1,0.5,0.3,0.7s0.5,0.2,0.9,0.2c0.3,0,0.5-0.1,0.8-0.2c0.2-0.1,0.4-0.3,0.6-0.5
					C555.6,49.4,555.7,49.2,555.7,49z M559.3,51h-1.1v-5c0-0.1,0-0.1,0-0.2c0-0.1,0-0.2,0-0.3h1v0.9c0.1-0.1,0.2-0.3,0.4-0.4
					c0.2-0.2,0.4-0.3,0.6-0.4c0.2-0.1,0.5-0.2,0.9-0.2c0.1,0,0.2,0,0.3,0s0.2,0,0.3,0.1l-0.2,1c-0.1-0.1-0.3-0.1-0.6-0.1
					s-0.6,0.1-0.8,0.2c-0.2,0.2-0.4,0.4-0.6,0.6c-0.1,0.3-0.2,0.5-0.2,0.9L559.3,51L559.3,51z M566.3,51v-0.7
					c-0.1,0.1-0.2,0.2-0.3,0.3s-0.3,0.3-0.6,0.4c-0.2,0.1-0.6,0.2-0.9,0.2c-0.5,0-0.9-0.1-1.3-0.3c-0.4-0.2-0.7-0.6-0.9-1
					S562,49,562,48.4c0-0.5,0.1-1,0.3-1.4s0.4-0.7,0.7-0.9s0.6-0.4,0.9-0.5c0.3-0.1,0.7-0.2,0.9-0.2c0.3,0,0.6,0,0.8,0.1
					s0.4,0.2,0.7,0.3V43h1.1v7.4c0,0,0,0.1,0,0.2c0,0.1,0,0.2,0,0.3L566.3,51L566.3,51z M566.3,48.6v-2c-0.1-0.1-0.3-0.2-0.6-0.3
					c-0.2-0.1-0.5-0.1-0.8-0.1c-0.5,0-1,0.2-1.3,0.6c-0.3,0.4-0.5,0.9-0.5,1.5c0,0.4,0.1,0.7,0.2,1c0.1,0.3,0.3,0.5,0.5,0.7
					s0.5,0.3,0.9,0.3s0.7-0.1,0.9-0.3s0.4-0.4,0.5-0.6C566.3,49.1,566.3,48.9,566.3,48.6z M568.6,50.3l0.7-0.7
					c0.2,0.2,0.4,0.4,0.7,0.5s0.6,0.2,1,0.2s0.7-0.1,0.9-0.2c0.2-0.1,0.4-0.3,0.4-0.6c0-0.2,0-0.3-0.1-0.4s-0.3-0.2-0.5-0.3
					s-0.6-0.2-1-0.3c-0.3-0.1-0.6-0.2-0.8-0.3c-0.3-0.1-0.5-0.3-0.7-0.5s-0.3-0.5-0.3-0.9s0.1-0.7,0.3-0.9s0.5-0.4,0.8-0.6
					c0.3-0.1,0.7-0.2,1.1-0.2c0.5,0,0.9,0.1,1.2,0.2c0.3,0.1,0.6,0.3,0.9,0.5l-0.6,0.7c-0.2-0.2-0.4-0.3-0.6-0.4
					c-0.2-0.1-0.5-0.2-0.9-0.2c-0.3,0-0.6,0.1-0.8,0.2c-0.2,0.1-0.3,0.3-0.3,0.6c0,0.2,0.1,0.4,0.4,0.5c0.3,0.1,0.6,0.2,1.1,0.3
					c0.4,0.1,0.7,0.2,0.9,0.3c0.3,0.1,0.5,0.3,0.7,0.5s0.3,0.5,0.3,0.9s-0.1,0.7-0.3,0.9s-0.5,0.4-0.9,0.6c-0.4,0.1-0.7,0.2-1.1,0.2
					C569.9,51.2,569.1,50.9,568.6,50.3z M577.2,49.2v-2.9h-1v-0.9h1v-1.8h1.1v1.8h1.6v0.9h-1.6V49c0,0.4,0.1,0.8,0.2,0.9
					c0.1,0.2,0.3,0.3,0.6,0.3c0.2,0,0.4,0,0.5-0.1s0.3-0.2,0.4-0.3l0.5,0.7c-0.2,0.2-0.5,0.4-0.7,0.5s-0.5,0.2-0.9,0.2
					c-0.6,0-1-0.2-1.3-0.5C577.3,50.3,577.2,49.8,577.2,49.2z M583.7,51.2c-0.6,0-1.1-0.1-1.5-0.4c-0.4-0.3-0.8-0.6-1.1-1.1
					c-0.2-0.5-0.4-1-0.4-1.5s0.1-1,0.4-1.5c0.3-0.4,0.6-0.8,1.1-1.1c0.4-0.3,1-0.4,1.5-0.4c0.6,0,1.1,0.1,1.5,0.4
					c0.4,0.3,0.8,0.6,1.1,1.1c0.3,0.4,0.4,0.9,0.4,1.5c0,0.5-0.1,1-0.4,1.5c-0.3,0.4-0.6,0.8-1.1,1.1
					C584.7,51,584.2,51.2,583.7,51.2z M583.7,50.2c0.4,0,0.7-0.1,1-0.3s0.5-0.5,0.6-0.8c0.2-0.3,0.2-0.6,0.2-1c0-0.3-0.1-0.7-0.2-1
					c-0.1-0.3-0.4-0.6-0.6-0.8c-0.3-0.2-0.6-0.3-1-0.3s-0.7,0.1-1,0.3s-0.5,0.4-0.6,0.8c-0.1,0.3-0.2,0.6-0.2,1c0,0.3,0.1,0.7,0.2,1
					c0.2,0.3,0.4,0.6,0.6,0.8C582.9,50.1,583.3,50.2,583.7,50.2z M590,51v-8h1.1v8H590z M597,49.5l0.6,0.6c-0.1,0.1-0.2,0.2-0.4,0.4
					s-0.5,0.3-0.8,0.4c-0.3,0.1-0.7,0.2-1.2,0.2c-0.6,0-1.1-0.1-1.5-0.4c-0.4-0.3-0.8-0.6-1-1.1s-0.4-1-0.4-1.6c0-0.5,0.1-1,0.3-1.5
					c0.2-0.4,0.6-0.8,1-1c0.4-0.3,0.9-0.4,1.5-0.4s1.2,0.2,1.6,0.5s0.7,0.7,0.9,1.2s0.3,1,0.3,1.6h-4.4c0,0.3,0.1,0.6,0.3,0.9
					c0.2,0.3,0.4,0.5,0.7,0.6s0.6,0.2,0.9,0.2c0.5,0,0.9-0.1,1.2-0.2C596.7,49.8,596.9,49.7,597,49.5z M593.4,47.7h3.3
					c0-0.4-0.2-0.8-0.5-1.1s-0.7-0.5-1.2-0.5c-0.3,0-0.6,0.1-0.9,0.2c-0.2,0.2-0.4,0.3-0.6,0.6C593.5,47.2,593.4,47.5,593.4,47.7z
					 M602.5,51v-0.7c-0.2,0.3-0.5,0.5-0.8,0.6s-0.7,0.2-1,0.2s-0.6-0.1-0.9-0.2c-0.3-0.1-0.5-0.3-0.7-0.6s-0.3-0.6-0.3-1
					c0-0.6,0.2-1.1,0.6-1.4c0.4-0.4,1-0.5,1.8-0.5c0.2,0,0.4,0,0.5,0c0.2,0,0.4,0,0.5,0c0.2,0,0.3,0,0.3,0v-0.2
					c0-0.4-0.1-0.7-0.4-0.9c-0.2-0.2-0.6-0.3-1-0.3s-0.8,0.1-1,0.2c-0.2,0.1-0.5,0.2-0.6,0.3l-0.5-0.7c0.2-0.2,0.5-0.3,0.8-0.5
					s0.8-0.2,1.4-0.2c0.7,0,1.3,0.2,1.7,0.5s0.6,0.8,0.6,1.5v3.3c0,0.1,0,0.1,0,0.2c0,0.1,0,0.2,0,0.3h-1V51z M602.5,49v-0.6
					c0,0-0.1,0-0.3,0c-0.1,0-0.3,0-0.5,0s-0.3,0-0.5,0c-0.4,0-0.7,0.1-0.9,0.2c-0.2,0.1-0.4,0.3-0.4,0.4c-0.1,0.2-0.1,0.3-0.1,0.5
					c0,0.3,0.1,0.5,0.3,0.7s0.5,0.2,0.9,0.2c0.3,0,0.5-0.1,0.8-0.2c0.2-0.1,0.4-0.3,0.6-0.5C602.4,49.4,602.5,49.2,602.5,49z
					 M606,51h-1v-5c0-0.1,0-0.1,0-0.2c0-0.1,0-0.2,0-0.3h1v0.9c0.1-0.1,0.2-0.3,0.4-0.4c0.2-0.2,0.4-0.3,0.6-0.4
					c0.2-0.1,0.5-0.2,0.9-0.2c0.1,0,0.2,0,0.3,0s0.2,0,0.3,0.1l-0.2,1c-0.1-0.1-0.3-0.1-0.6-0.1s-0.6,0.1-0.8,0.2
					c-0.2,0.2-0.4,0.4-0.6,0.6s-0.2,0.5-0.2,0.9V51H606z M610.4,51h-1.1v-5c0-0.1,0-0.1,0-0.2c0-0.1,0-0.2,0-0.4h1v0.8
					c0.1-0.1,0.2-0.3,0.4-0.4c0.2-0.2,0.4-0.3,0.6-0.4c0.2-0.1,0.5-0.2,0.9-0.2c0.7,0,1.3,0.2,1.6,0.6c0.4,0.4,0.5,1,0.5,1.7V51
					h-1.1v-3.3c0-0.5-0.1-0.9-0.3-1.1c-0.2-0.2-0.5-0.4-0.9-0.4s-0.7,0.1-1,0.3c-0.2,0.2-0.4,0.5-0.5,0.8s-0.1,0.7-0.1,1L610.4,51
					L610.4,51z M619.1,51H618v-5c0-0.1,0-0.1,0-0.2c0-0.1,0-0.2,0-0.4h1v0.8c0.1-0.1,0.2-0.3,0.4-0.4c0.2-0.2,0.3-0.3,0.6-0.4
					c0.2-0.1,0.5-0.2,0.9-0.2s0.8,0.1,1.1,0.3s0.5,0.4,0.7,0.7c0.2-0.3,0.5-0.5,0.8-0.7s0.7-0.3,1.2-0.3c0.7,0,1.3,0.2,1.6,0.6
					c0.3,0.4,0.5,1,0.5,1.7V51h-1.1v-3.3c0-1-0.4-1.5-1.2-1.5c-0.3,0-0.6,0.1-0.8,0.2c-0.2,0.2-0.4,0.4-0.6,0.6
					c-0.1,0.2-0.2,0.5-0.2,0.8V51h-1.1v-3.3c0-0.5-0.1-0.9-0.3-1.1c-0.2-0.2-0.5-0.4-0.9-0.4s-0.7,0.1-0.9,0.3s-0.4,0.5-0.5,0.8
					s-0.1,0.7-0.1,1L619.1,51L619.1,51z M630.9,51.2c-0.6,0-1.1-0.1-1.5-0.4c-0.4-0.3-0.8-0.6-1.1-1.1c-0.2-0.5-0.4-1-0.4-1.5
					s0.1-1,0.4-1.5c0.3-0.4,0.6-0.8,1.1-1.1c0.4-0.3,1-0.4,1.5-0.4s1.1,0.1,1.5,0.4c0.4,0.3,0.8,0.6,1.1,1.1
					c0.3,0.4,0.4,0.9,0.4,1.5c0,0.5-0.1,1-0.4,1.5c-0.3,0.4-0.6,0.8-1.1,1.1C632,51,631.5,51.2,630.9,51.2z M630.9,50.2
					c0.4,0,0.7-0.1,1-0.3s0.5-0.5,0.6-0.8c0.2-0.3,0.2-0.6,0.2-1c0-0.3-0.1-0.7-0.2-1c-0.1-0.3-0.4-0.6-0.6-0.8
					c-0.3-0.2-0.6-0.3-1-0.3s-0.7,0.1-1,0.3s-0.5,0.4-0.6,0.8c-0.1,0.3-0.2,0.6-0.2,1c0,0.3,0.1,0.7,0.2,1c0.2,0.3,0.4,0.6,0.6,0.8
					C630.2,50.1,630.5,50.2,630.9,50.2z M636.2,51h-1.1v-5c0-0.1,0-0.1,0-0.2c0-0.1,0-0.2,0-0.3h1v0.9c0.1-0.1,0.2-0.3,0.4-0.4
					c0.2-0.2,0.4-0.3,0.6-0.4c0.2-0.1,0.5-0.2,0.9-0.2c0.1,0,0.2,0,0.3,0s0.2,0,0.3,0.1l-0.2,1c-0.1-0.1-0.3-0.1-0.6-0.1
					s-0.6,0.1-0.8,0.2c-0.2,0.2-0.4,0.4-0.6,0.6c-0.1,0.3-0.2,0.5-0.2,0.9L636.2,51L636.2,51z M643.6,49.5l0.6,0.6
					c-0.1,0.1-0.2,0.2-0.4,0.4s-0.5,0.3-0.8,0.4c-0.3,0.1-0.7,0.2-1.2,0.2c-0.6,0-1.1-0.1-1.5-0.4c-0.4-0.3-0.8-0.6-1-1.1
					s-0.4-1-0.4-1.6c0-0.5,0.1-1,0.3-1.5c0.2-0.4,0.6-0.8,1-1c0.4-0.3,0.9-0.4,1.5-0.4s1.2,0.2,1.6,0.5c0.4,0.3,0.7,0.7,0.9,1.2
					s0.3,1,0.3,1.6H640c0,0.3,0.1,0.6,0.3,0.9c0.2,0.3,0.4,0.5,0.7,0.6s0.6,0.2,0.9,0.2c0.5,0,0.9-0.1,1.2-0.2
					C643.3,49.8,643.5,49.7,643.6,49.5z M640,47.7h3.3c0-0.4-0.2-0.8-0.5-1.1s-0.7-0.5-1.2-0.5c-0.3,0-0.6,0.1-0.9,0.2
					c-0.2,0.2-0.4,0.3-0.6,0.6C640.1,47.2,640,47.5,640,47.7z M651.3,51v-0.7c-0.2,0.3-0.5,0.5-0.8,0.6s-0.7,0.2-1,0.2
					s-0.6-0.1-0.9-0.2c-0.3-0.1-0.5-0.3-0.7-0.6s-0.3-0.6-0.3-1c0-0.6,0.2-1.1,0.6-1.4c0.4-0.4,1-0.5,1.8-0.5c0.2,0,0.4,0,0.5,0
					c0.2,0,0.4,0,0.5,0c0.2,0,0.3,0,0.3,0v-0.2c0-0.4-0.1-0.7-0.4-0.9c-0.2-0.2-0.6-0.3-1-0.3s-0.8,0.1-1,0.2
					c-0.2,0.1-0.5,0.2-0.6,0.3l-0.5-0.7c0.2-0.2,0.5-0.3,0.8-0.5c0.4-0.2,0.8-0.2,1.4-0.2c0.7,0,1.3,0.2,1.7,0.5s0.6,0.8,0.6,1.5
					v3.3c0,0.1,0,0.1,0,0.2c0,0.1,0,0.2,0,0.3h-1V51z M651.2,49v-0.6c0,0-0.1,0-0.3,0c-0.1,0-0.3,0-0.5,0s-0.3,0-0.5,0
					c-0.4,0-0.7,0.1-0.9,0.2c-0.2,0.1-0.4,0.3-0.4,0.4c-0.1,0.2-0.1,0.3-0.1,0.5c0,0.3,0.1,0.5,0.3,0.7s0.5,0.2,0.9,0.2
					c0.3,0,0.5-0.1,0.8-0.2c0.2-0.1,0.4-0.3,0.6-0.5C651.2,49.4,651.2,49.2,651.2,49z M653.7,50.8V43h1.1v3c0.1-0.2,0.3-0.3,0.6-0.5
					s0.7-0.3,1.1-0.3c0.6,0,1,0.1,1.4,0.4c0.4,0.3,0.7,0.6,0.9,1s0.3,0.9,0.3,1.5s-0.1,1.1-0.4,1.6c-0.3,0.4-0.6,0.8-1.1,1.1
					s-1,0.4-1.6,0.4c-0.5,0-0.9,0-1.3-0.1C654.3,51,654,50.9,653.7,50.8z M654.8,47.9v2.2c0.1,0,0.2,0.1,0.4,0.1s0.4,0,0.7,0
					c0.6,0,1.1-0.2,1.5-0.6c0.4-0.4,0.6-0.9,0.6-1.5c0-0.3-0.1-0.7-0.2-1c-0.1-0.3-0.3-0.5-0.5-0.7s-0.5-0.3-0.9-0.3
					c-0.3,0-0.6,0.1-0.9,0.2c-0.2,0.2-0.4,0.4-0.5,0.6C654.9,47.3,654.8,47.6,654.8,47.9z M663,51.2c-0.6,0-1.1-0.1-1.5-0.4
					c-0.4-0.3-0.8-0.6-1.1-1.1c-0.2-0.5-0.4-1-0.4-1.5s0.1-1,0.4-1.5c0.3-0.4,0.6-0.8,1.1-1.1c0.4-0.3,1-0.4,1.5-0.4
					s1.1,0.1,1.5,0.4c0.4,0.3,0.8,0.6,1.1,1.1c0.3,0.4,0.4,0.9,0.4,1.5c0,0.5-0.1,1-0.4,1.5c-0.3,0.4-0.6,0.8-1.1,1.1
					C664.1,51,663.6,51.2,663,51.2z M663,50.2c0.4,0,0.7-0.1,1-0.3s0.5-0.5,0.6-0.8c0.2-0.3,0.2-0.6,0.2-1c0-0.3-0.1-0.7-0.2-1
					c-0.1-0.3-0.4-0.6-0.6-0.8c-0.3-0.2-0.6-0.3-1-0.3s-0.7,0.1-1,0.3s-0.5,0.4-0.6,0.8c-0.1,0.3-0.2,0.6-0.2,1c0,0.3,0.1,0.7,0.2,1
					c0.2,0.3,0.4,0.6,0.6,0.8C662.3,50.1,662.6,50.2,663,50.2z M667.2,48.8v-3.3h1.1v3.3c0,0.5,0.1,0.9,0.3,1.1
					c0.2,0.2,0.5,0.4,0.9,0.4s0.7-0.1,1-0.3c0.2-0.2,0.4-0.5,0.5-0.8s0.2-0.7,0.2-1v-2.6h1.1v5c0,0,0,0.1,0,0.2c0,0.1,0,0.2,0,0.3
					h-1v-0.8c-0.1,0.1-0.2,0.3-0.4,0.4c-0.2,0.1-0.4,0.3-0.6,0.4c-0.2,0.1-0.5,0.2-0.9,0.2c-0.7,0-1.3-0.2-1.6-0.6
					S667.2,49.5,667.2,48.8z M674.2,49.2v-2.9h-1v-0.9h1v-1.8h1.1v1.8h1.6v0.9h-1.6V49c0,0.4,0.1,0.8,0.2,0.9
					c0.1,0.2,0.3,0.3,0.6,0.3c0.2,0,0.4,0,0.5-0.1s0.3-0.2,0.4-0.3l0.5,0.7c-0.2,0.2-0.5,0.4-0.7,0.5s-0.5,0.2-0.9,0.2
					c-0.6,0-1-0.2-1.3-0.5C674.3,50.3,674.2,49.8,674.2,49.2z M683.2,51.2c-0.6,0-1.1-0.1-1.5-0.4c-0.4-0.3-0.8-0.6-1.1-1.1
					c-0.2-0.5-0.4-1-0.4-1.5s0.1-1,0.4-1.5c0.3-0.4,0.6-0.8,1.1-1.1c0.4-0.3,1-0.4,1.5-0.4s1.1,0.1,1.5,0.4c0.4,0.3,0.8,0.6,1.1,1.1
					c0.3,0.4,0.4,0.9,0.4,1.5c0,0.5-0.1,1-0.4,1.5c-0.3,0.4-0.6,0.8-1.1,1.1C684.2,51,683.7,51.2,683.2,51.2z M683.2,50.2
					c0.4,0,0.7-0.1,1-0.3s0.5-0.5,0.6-0.8c0.2-0.3,0.2-0.6,0.2-1c0-0.3-0.1-0.7-0.2-1c-0.1-0.3-0.4-0.6-0.6-0.8
					c-0.3-0.2-0.6-0.3-1-0.3s-0.7,0.1-1,0.3s-0.5,0.4-0.6,0.8c-0.1,0.3-0.2,0.6-0.2,1c0,0.3,0.1,0.7,0.2,1c0.2,0.3,0.4,0.6,0.6,0.8
					C682.4,50.1,682.8,50.2,683.2,50.2z M687.3,48.8v-3.3h1.1v3.3c0,0.5,0.1,0.9,0.3,1.1c0.2,0.2,0.5,0.4,0.9,0.4s0.7-0.1,1-0.3
					c0.2-0.2,0.4-0.5,0.5-0.8s0.2-0.7,0.2-1v-2.6h1.1v5c0,0,0,0.1,0,0.2c0,0.1,0,0.2,0,0.3h-1v-0.8c-0.1,0.1-0.2,0.3-0.4,0.4
					c-0.2,0.1-0.4,0.3-0.6,0.4c-0.2,0.1-0.5,0.2-0.9,0.2c-0.7,0-1.3-0.2-1.6-0.6S687.3,49.5,687.3,48.8z M694.9,51h-1.1v-5
					c0-0.1,0-0.1,0-0.2c0-0.1,0-0.2,0-0.3h1v0.9c0.1-0.1,0.2-0.3,0.4-0.4c0.2-0.2,0.4-0.3,0.6-0.4c0.2-0.1,0.5-0.2,0.9-0.2
					c0.1,0,0.2,0,0.3,0s0.2,0,0.3,0.1l-0.2,1c-0.1-0.1-0.3-0.1-0.6-0.1s-0.6,0.1-0.8,0.2c-0.2,0.2-0.4,0.4-0.6,0.6s-0.2,0.5-0.2,0.9
					L694.9,51L694.9,51z M703.9,51v-0.7c-0.2,0.3-0.5,0.5-0.8,0.6s-0.7,0.2-1,0.2s-0.6-0.1-0.9-0.2c-0.3-0.1-0.5-0.3-0.7-0.6
					s-0.3-0.6-0.3-1c0-0.6,0.2-1.1,0.6-1.4c0.4-0.4,1-0.5,1.8-0.5c0.2,0,0.4,0,0.5,0c0.2,0,0.4,0,0.5,0c0.2,0,0.3,0,0.3,0v-0.2
					c0-0.4-0.1-0.7-0.4-0.9c-0.2-0.2-0.6-0.3-1-0.3s-0.8,0.1-1,0.2c-0.2,0.1-0.5,0.2-0.6,0.3l-0.5-0.7c0.2-0.2,0.5-0.3,0.8-0.5
					s0.8-0.2,1.4-0.2c0.7,0,1.3,0.2,1.7,0.5s0.6,0.8,0.6,1.5v3.3c0,0.1,0,0.1,0,0.2c0,0.1,0,0.2,0,0.3h-1V51z M703.9,49v-0.6
					c0,0-0.1,0-0.3,0c-0.1,0-0.3,0-0.5,0s-0.3,0-0.5,0c-0.4,0-0.7,0.1-0.9,0.2c-0.2,0.1-0.4,0.3-0.4,0.4c-0.1,0.2-0.1,0.3-0.1,0.5
					c0,0.3,0.1,0.5,0.3,0.7s0.5,0.2,0.9,0.2c0.3,0,0.5-0.1,0.8-0.2c0.2-0.1,0.4-0.3,0.6-0.5C703.8,49.4,703.9,49.2,703.9,49z
					 M707.5,51l-1.9-5.6h1.2l1.2,4.3l1.3-4.3h0.9l1.3,4.3l1.2-4.3h1.1L712,51h-1l-1.3-3.9l-1.3,3.9H707.5z M718.4,51v-0.7
					c-0.2,0.3-0.5,0.5-0.8,0.6s-0.7,0.2-1,0.2s-0.6-0.1-0.9-0.2c-0.3-0.1-0.5-0.3-0.7-0.6s-0.3-0.6-0.3-1c0-0.6,0.2-1.1,0.6-1.4
					c0.4-0.4,1-0.5,1.8-0.5c0.2,0,0.4,0,0.5,0c0.2,0,0.4,0,0.5,0c0.2,0,0.3,0,0.3,0v-0.2c0-0.4-0.1-0.7-0.4-0.9
					c-0.2-0.2-0.6-0.3-1-0.3s-0.8,0.1-1,0.2c-0.2,0.1-0.5,0.2-0.6,0.3l-0.5-0.7c0.2-0.2,0.5-0.3,0.8-0.5s0.8-0.2,1.4-0.2
					c0.7,0,1.3,0.2,1.7,0.5s0.6,0.8,0.6,1.5v3.3c0,0.1,0,0.1,0,0.2c0,0.1,0,0.2,0,0.3h-1V51z M718.3,49v-0.6c0,0-0.1,0-0.3,0
					c-0.1,0-0.3,0-0.5,0s-0.3,0-0.5,0c-0.4,0-0.7,0.1-0.9,0.2c-0.2,0.1-0.4,0.3-0.4,0.4c-0.1,0.2-0.1,0.3-0.1,0.5
					c0,0.3,0.1,0.5,0.3,0.7s0.5,0.2,0.9,0.2c0.3,0,0.5-0.1,0.8-0.2c0.2-0.1,0.4-0.3,0.6-0.5C718.3,49.4,718.3,49.2,718.3,49z
					 M721.9,51h-1.1v-5c0-0.1,0-0.1,0-0.2c0-0.1,0-0.2,0-0.3h1v0.9c0.1-0.1,0.2-0.3,0.4-0.4c0.2-0.2,0.4-0.3,0.6-0.4
					c0.2-0.1,0.5-0.2,0.9-0.2c0.1,0,0.2,0,0.3,0s0.2,0,0.3,0.1l-0.2,1c-0.1-0.1-0.3-0.1-0.6-0.1s-0.6,0.1-0.8,0.2
					c-0.2,0.2-0.4,0.4-0.6,0.6s-0.2,0.5-0.2,0.9L721.9,51L721.9,51z M729,51v-0.7c-0.1,0.1-0.2,0.2-0.3,0.3s-0.3,0.3-0.6,0.4
					c-0.2,0.1-0.6,0.2-0.9,0.2c-0.5,0-0.9-0.1-1.3-0.3c-0.4-0.2-0.7-0.6-0.9-1s-0.3-0.9-0.3-1.5c0-0.5,0.1-1,0.3-1.4
					s0.4-0.7,0.7-0.9s0.6-0.4,0.9-0.5c0.3-0.1,0.7-0.2,0.9-0.2c0.3,0,0.6,0,0.8,0.1s0.4,0.2,0.7,0.3V43h1.1v7.4c0,0,0,0.1,0,0.2
					c0,0.1,0,0.2,0,0.3L729,51L729,51z M728.9,48.6v-2c-0.1-0.1-0.3-0.2-0.6-0.3c-0.2-0.1-0.5-0.1-0.8-0.1c-0.5,0-1,0.2-1.3,0.6
					c-0.3,0.4-0.5,0.9-0.5,1.5c0,0.4,0.1,0.7,0.2,1c0.1,0.3,0.3,0.5,0.5,0.7s0.5,0.3,0.9,0.3s0.7-0.1,0.9-0.3s0.4-0.4,0.5-0.6
					C728.9,49.1,728.9,48.9,728.9,48.6z M731.2,50.3l0.7-0.7c0.2,0.2,0.4,0.4,0.7,0.5s0.6,0.2,1,0.2s0.7-0.1,0.9-0.2
					c0.2-0.1,0.4-0.3,0.4-0.6c0-0.2,0-0.3-0.1-0.4s-0.3-0.2-0.5-0.3s-0.6-0.2-1-0.3c-0.3-0.1-0.6-0.2-0.8-0.3
					c-0.3-0.1-0.5-0.3-0.7-0.5s-0.3-0.5-0.3-0.9s0.1-0.7,0.3-0.9s0.5-0.4,0.8-0.6c0.3-0.1,0.7-0.2,1.1-0.2c0.5,0,0.9,0.1,1.2,0.2
					c0.3,0.1,0.6,0.3,0.9,0.5l-0.6,0.7c-0.2-0.2-0.4-0.3-0.6-0.4c-0.2-0.1-0.5-0.2-0.9-0.2c-0.3,0-0.6,0.1-0.8,0.2s-0.3,0.3-0.3,0.6
					c0,0.2,0.1,0.4,0.4,0.5c0.3,0.1,0.6,0.2,1.1,0.3c0.4,0.1,0.7,0.2,0.9,0.3c0.3,0.1,0.5,0.3,0.7,0.5s0.3,0.5,0.3,0.9
					s-0.1,0.7-0.3,0.9s-0.5,0.4-0.9,0.6c-0.4,0.1-0.7,0.2-1.1,0.2C732.5,51.2,731.7,50.9,731.2,50.3z M737,51v-1.3h1.4V51H737z
					 M742.3,51v-8h1.2v8H742.3z M744.8,50.3l0.7-0.7c0.2,0.2,0.4,0.4,0.7,0.5s0.6,0.2,1,0.2s0.7-0.1,0.9-0.2
					c0.2-0.1,0.4-0.3,0.4-0.6c0-0.2,0-0.3-0.1-0.4c-0.1-0.1-0.3-0.2-0.5-0.3s-0.6-0.2-1-0.3c-0.3-0.1-0.6-0.2-0.8-0.3
					c-0.3-0.1-0.5-0.3-0.7-0.5s-0.3-0.5-0.3-0.9s0.1-0.7,0.3-0.9s0.5-0.4,0.8-0.6c0.3-0.1,0.7-0.2,1.1-0.2c0.5,0,0.9,0.1,1.2,0.2
					c0.3,0.1,0.6,0.3,0.9,0.5l-0.6,0.7c-0.2-0.2-0.4-0.3-0.6-0.4c-0.2-0.1-0.5-0.2-0.9-0.2c-0.3,0-0.6,0.1-0.8,0.2s-0.3,0.3-0.3,0.6
					c0,0.2,0.1,0.4,0.4,0.5c0.3,0.1,0.6,0.2,1.1,0.3c0.4,0.1,0.7,0.2,0.9,0.3c0.3,0.1,0.5,0.3,0.7,0.5s0.3,0.5,0.3,0.9
					s-0.1,0.7-0.3,0.9s-0.5,0.4-0.9,0.6c-0.4,0.1-0.7,0.2-1.1,0.2C746.1,51.2,745.3,50.9,744.8,50.3z M750.4,50.3l0.7-0.7
					c0.2,0.2,0.4,0.4,0.7,0.5s0.6,0.2,1,0.2s0.7-0.1,0.9-0.2c0.2-0.1,0.4-0.3,0.4-0.6c0-0.2,0-0.3-0.1-0.4s-0.3-0.2-0.5-0.3
					s-0.6-0.2-1-0.3c-0.3-0.1-0.6-0.2-0.8-0.3c-0.3-0.1-0.5-0.3-0.7-0.5s-0.3-0.5-0.3-0.9s0.1-0.7,0.3-0.9s0.5-0.4,0.8-0.6
					c0.3-0.1,0.7-0.2,1.1-0.2c0.5,0,0.9,0.1,1.2,0.2c0.3,0.1,0.6,0.3,0.9,0.5l-0.6,0.7c-0.2-0.2-0.4-0.3-0.6-0.4
					c-0.2-0.1-0.5-0.2-0.9-0.2c-0.3,0-0.6,0.1-0.8,0.2s-0.3,0.3-0.3,0.6c0,0.2,0.1,0.4,0.4,0.5c0.3,0.1,0.6,0.2,1.1,0.3
					c0.4,0.1,0.7,0.2,0.9,0.3c0.3,0.1,0.5,0.3,0.7,0.5s0.3,0.5,0.3,0.9s-0.1,0.7-0.3,0.9s-0.5,0.4-0.9,0.6c-0.4,0.1-0.7,0.2-1.1,0.2
					C751.7,51.2,750.9,50.9,750.4,50.3z M756.3,48.8v-3.3h1.1v3.3c0,0.5,0.1,0.9,0.3,1.1c0.2,0.2,0.5,0.4,0.9,0.4s0.7-0.1,1-0.3
					c0.2-0.2,0.4-0.5,0.5-0.8s0.2-0.7,0.2-1v-2.6h1.1v5c0,0,0,0.1,0,0.2c0,0.1,0,0.2,0,0.3h-1v-0.8c-0.1,0.1-0.2,0.3-0.4,0.4
					c-0.2,0.1-0.4,0.3-0.6,0.4c-0.2,0.1-0.5,0.2-0.9,0.2c-0.7,0-1.3-0.2-1.6-0.6S756.3,49.5,756.3,48.8z M767.4,49.5l0.6,0.6
					c-0.1,0.1-0.2,0.2-0.4,0.4s-0.5,0.3-0.8,0.4c-0.3,0.1-0.7,0.2-1.2,0.2c-0.6,0-1.1-0.1-1.5-0.4c-0.4-0.3-0.8-0.6-1-1.1
					s-0.4-1-0.4-1.6c0-0.5,0.1-1,0.3-1.5c0.2-0.4,0.6-0.8,1-1c0.4-0.3,0.9-0.4,1.5-0.4s1.2,0.2,1.6,0.5c0.4,0.3,0.7,0.7,0.9,1.2
					s0.3,1,0.3,1.6h-4.4c0,0.3,0.1,0.6,0.3,0.9c0.2,0.3,0.4,0.5,0.7,0.6s0.6,0.2,0.9,0.2c0.5,0,0.9-0.1,1.2-0.2
					C767,49.8,767.2,49.7,767.4,49.5z M763.7,47.7h3.3c0-0.4-0.2-0.8-0.5-1.1s-0.7-0.5-1.2-0.5c-0.3,0-0.6,0.1-0.9,0.2
					c-0.2,0.2-0.4,0.3-0.6,0.6C763.8,47.2,763.7,47.5,763.7,47.7z M773.4,51v-0.7c-0.1,0.1-0.2,0.2-0.3,0.3s-0.3,0.3-0.6,0.4
					c-0.2,0.1-0.6,0.2-0.9,0.2c-0.5,0-0.9-0.1-1.3-0.3c-0.4-0.2-0.7-0.6-0.9-1s-0.3-0.9-0.3-1.5c0-0.5,0.1-1,0.3-1.4
					s0.4-0.7,0.7-0.9s0.6-0.4,0.9-0.5c0.3-0.1,0.7-0.2,0.9-0.2c0.3,0,0.6,0,0.8,0.1s0.4,0.2,0.7,0.3V43h1.1v7.4c0,0,0,0.1,0,0.2
					c0,0.1,0,0.2,0,0.3L773.4,51L773.4,51z M773.3,48.6v-2c-0.1-0.1-0.3-0.2-0.6-0.3c-0.2-0.1-0.5-0.1-0.8-0.1c-0.5,0-1,0.2-1.3,0.6
					c-0.3,0.4-0.5,0.9-0.5,1.5c0,0.4,0.1,0.7,0.2,1c0.1,0.3,0.3,0.5,0.5,0.7s0.5,0.3,0.9,0.3s0.7-0.1,0.9-0.3s0.4-0.4,0.5-0.6
					C773.3,49.1,773.3,48.9,773.3,48.6z M778.1,50.8V43h1.1v3c0.1-0.2,0.3-0.3,0.6-0.5s0.7-0.3,1.1-0.3c0.6,0,1,0.1,1.4,0.4
					c0.4,0.3,0.7,0.6,0.9,1s0.3,0.9,0.3,1.5s-0.1,1.1-0.4,1.6c-0.3,0.4-0.6,0.8-1.1,1.1s-1,0.4-1.6,0.4c-0.5,0-0.9,0-1.3-0.1
					C778.6,51,778.3,50.9,778.1,50.8z M779.2,47.9v2.2c0.1,0,0.2,0.1,0.4,0.1s0.4,0,0.7,0c0.6,0,1.1-0.2,1.5-0.6
					c0.4-0.4,0.6-0.9,0.6-1.5c0-0.3-0.1-0.7-0.2-1c-0.1-0.3-0.3-0.5-0.5-0.7s-0.5-0.3-0.9-0.3c-0.3,0-0.6,0.1-0.9,0.2
					c-0.2,0.2-0.4,0.4-0.5,0.6C779.2,47.3,779.2,47.6,779.2,47.9z M783.9,53.1l0.5-0.8c0.1,0.1,0.2,0.1,0.3,0.2s0.2,0.1,0.4,0.1
					c0.3,0,0.4-0.1,0.6-0.3c0.1-0.2,0.3-0.6,0.5-1l0.1-0.4l-2.5-5.5h1.2l1.8,4.2l1.6-4.2h1.2l-2.2,5.4c-0.1,0.2-0.2,0.5-0.3,0.8
					s-0.2,0.6-0.4,0.9c-0.2,0.3-0.3,0.5-0.6,0.7c-0.2,0.2-0.5,0.3-0.9,0.3c-0.3,0-0.5,0-0.7-0.1C784.2,53.4,784,53.3,783.9,53.1z
					 M792.7,51v-8h1.2v3.3h4.4V43h1.2v8h-1.2v-3.6h-4.4V51H792.7z M803.7,51.2c-0.6,0-1.1-0.1-1.5-0.4c-0.4-0.3-0.8-0.6-1.1-1.1
					c-0.2-0.5-0.4-1-0.4-1.5s0.1-1,0.4-1.5c0.3-0.4,0.6-0.8,1.1-1.1c0.4-0.3,1-0.4,1.5-0.4s1.1,0.1,1.5,0.4c0.4,0.3,0.8,0.6,1.1,1.1
					c0.3,0.4,0.4,0.9,0.4,1.5c0,0.5-0.1,1-0.4,1.5c-0.3,0.4-0.6,0.8-1.1,1.1C804.8,51,804.3,51.2,803.7,51.2z M803.7,50.2
					c0.4,0,0.7-0.1,1-0.3s0.5-0.5,0.6-0.8c0.2-0.3,0.2-0.6,0.2-1c0-0.3-0.1-0.7-0.2-1c-0.1-0.3-0.4-0.6-0.6-0.8
					c-0.3-0.2-0.6-0.3-1-0.3s-0.7,0.1-1,0.3s-0.5,0.4-0.6,0.8c-0.1,0.3-0.2,0.6-0.2,1c0,0.3,0.1,0.7,0.2,1c0.2,0.3,0.4,0.6,0.6,0.8
					C803,50.1,803.4,50.2,803.7,50.2z M807.6,50.3l0.7-0.7c0.2,0.2,0.4,0.4,0.7,0.5s0.6,0.2,1,0.2s0.7-0.1,0.9-0.2
					c0.2-0.1,0.4-0.3,0.4-0.6c0-0.2,0-0.3-0.1-0.4c-0.1-0.1-0.3-0.2-0.5-0.3s-0.6-0.2-1-0.3c-0.3-0.1-0.6-0.2-0.8-0.3
					c-0.3-0.1-0.5-0.3-0.7-0.5s-0.3-0.5-0.3-0.9s0.1-0.7,0.3-0.9s0.5-0.4,0.8-0.6c0.3-0.1,0.7-0.2,1.1-0.2c0.5,0,0.9,0.1,1.2,0.2
					c0.3,0.1,0.6,0.3,0.9,0.5l-0.6,0.7c-0.2-0.2-0.4-0.3-0.6-0.4c-0.2-0.1-0.5-0.2-0.9-0.2c-0.3,0-0.6,0.1-0.8,0.2s-0.3,0.3-0.3,0.6
					c0,0.2,0.1,0.4,0.4,0.5c0.3,0.1,0.6,0.2,1.1,0.3c0.4,0.1,0.7,0.2,0.9,0.3c0.3,0.1,0.5,0.3,0.7,0.5s0.3,0.5,0.3,0.9
					s-0.1,0.7-0.3,0.9s-0.5,0.4-0.9,0.6c-0.4,0.1-0.7,0.2-1.1,0.2C808.9,51.2,808.1,50.9,807.6,50.3z M814.1,49.2v-2.9h-1v-0.9h1
					v-1.8h1.1v1.8h1.6v0.9h-1.6V49c0,0.4,0.1,0.8,0.2,0.9c0.1,0.2,0.3,0.3,0.6,0.3c0.2,0,0.4,0,0.5-0.1s0.3-0.2,0.4-0.3l0.5,0.7
					c-0.2,0.2-0.5,0.4-0.7,0.5s-0.5,0.2-0.9,0.2c-0.6,0-1-0.2-1.3-0.5C814.2,50.3,814.1,49.8,814.1,49.2z M818,48.2v-1h3.5v1H818z
					 M823.3,51v-8h2.5c0.5,0,1,0.1,1.3,0.2c0.4,0.1,0.6,0.3,0.9,0.6c0.2,0.2,0.4,0.5,0.4,0.8c0.1,0.3,0.1,0.6,0.1,0.8
					c0,0.5-0.1,1-0.3,1.3c-0.2,0.4-0.6,0.6-1,0.8s-0.9,0.3-1.4,0.3h-1.5V51H823.3z M824.4,46.9h1.4c0.5,0,0.9-0.1,1.1-0.4
					c0.3-0.3,0.4-0.6,0.4-1s-0.1-0.8-0.4-1.1c-0.3-0.3-0.6-0.4-1.1-0.4h-1.4V46.9z M829.6,51v-8h1.1v8H829.6z M832.2,48.8v-3.3h1.1
					v3.3c0,0.5,0.1,0.9,0.3,1.1c0.2,0.2,0.5,0.4,0.9,0.4s0.7-0.1,1-0.3c0.2-0.2,0.4-0.5,0.5-0.8s0.2-0.7,0.2-1v-2.6h1.1v5
					c0,0,0,0.1,0,0.2c0,0.1,0,0.2,0,0.3h-1v-0.8c-0.1,0.1-0.2,0.3-0.4,0.4c-0.2,0.1-0.4,0.3-0.6,0.4c-0.2,0.1-0.5,0.2-0.9,0.2
					c-0.7,0-1.3-0.2-1.6-0.6C832.3,50.1,832.2,49.5,832.2,48.8z M838.4,50.3l0.7-0.7c0.2,0.2,0.4,0.4,0.7,0.5s0.6,0.2,1,0.2
					s0.7-0.1,0.9-0.2c0.2-0.1,0.4-0.3,0.4-0.6c0-0.2,0-0.3-0.1-0.4s-0.3-0.2-0.5-0.3s-0.6-0.2-1-0.3c-0.3-0.1-0.6-0.2-0.8-0.3
					c-0.3-0.1-0.5-0.3-0.7-0.5s-0.3-0.5-0.3-0.9s0.1-0.7,0.3-0.9s0.5-0.4,0.8-0.6c0.3-0.1,0.7-0.2,1.1-0.2c0.5,0,0.9,0.1,1.2,0.2
					c0.3,0.1,0.6,0.3,0.9,0.5l-0.6,0.7c-0.2-0.2-0.4-0.3-0.6-0.4c-0.2-0.1-0.5-0.2-0.9-0.2c-0.3,0-0.6,0.1-0.8,0.2s-0.3,0.3-0.3,0.6
					c0,0.2,0.1,0.4,0.4,0.5c0.3,0.1,0.6,0.2,1.1,0.3c0.4,0.1,0.7,0.2,0.9,0.3c0.3,0.1,0.5,0.3,0.7,0.5s0.3,0.5,0.3,0.9
					s-0.1,0.7-0.3,0.9s-0.5,0.4-0.9,0.6c-0.4,0.1-0.7,0.2-1.1,0.2C839.7,51.2,838.9,50.9,838.4,50.3z M846.7,51v-8h2.5
					c0.5,0,1,0.1,1.3,0.2c0.4,0.1,0.6,0.3,0.9,0.6c0.2,0.2,0.4,0.5,0.4,0.8c0.1,0.3,0.1,0.6,0.1,0.8c0,0.5-0.1,1-0.3,1.3
					c-0.2,0.4-0.6,0.6-1,0.8s-0.9,0.3-1.4,0.3h-1.5V51H846.7z M847.8,46.9h1.4c0.5,0,0.9-0.1,1.1-0.4c0.3-0.3,0.4-0.6,0.4-1
					s-0.1-0.8-0.4-1.1c-0.3-0.3-0.6-0.4-1.1-0.4h-1.4V46.9z M853.8,49.2v-2.9h-1v-0.9h1v-1.8h1.1v1.8h1.6v0.9h-1.6V49
					c0,0.4,0.1,0.8,0.2,0.9c0.1,0.2,0.3,0.3,0.6,0.3c0.2,0,0.4,0,0.5-0.1s0.3-0.2,0.4-0.3l0.5,0.7c-0.2,0.2-0.5,0.4-0.7,0.5
					s-0.5,0.2-0.9,0.2c-0.6,0-1-0.2-1.3-0.5C853.9,50.3,853.8,49.8,853.8,49.2z M857.2,53.1l0.5-0.8c0.1,0.1,0.2,0.1,0.3,0.2
					s0.2,0.1,0.4,0.1c0.3,0,0.4-0.1,0.6-0.3c0.1-0.2,0.3-0.6,0.5-1l0.1-0.4l-2.5-5.5h1.2l1.8,4.2l1.6-4.2h1.2l-2.2,5.4
					c-0.1,0.2-0.2,0.5-0.3,0.8s-0.2,0.6-0.4,0.9c-0.2,0.3-0.3,0.5-0.6,0.7c-0.2,0.2-0.5,0.3-0.9,0.3c-0.3,0-0.5,0-0.7-0.1
					C857.5,53.4,857.4,53.3,857.2,53.1z M866.1,51v-8h1.2v7h4.2v1H866.1z M872.4,44.4v-1.2h1.2v1.2H872.4z M872.5,51v-5.6h1.1V51
					H872.5z M876.2,51h-1.1v-5c0-0.1,0-0.1,0-0.2c0-0.1,0-0.2,0-0.4h1v0.8c0.1-0.1,0.2-0.3,0.4-0.4c0.2-0.2,0.3-0.3,0.6-0.4
					c0.2-0.1,0.5-0.2,0.9-0.2s0.8,0.1,1.1,0.3s0.5,0.4,0.7,0.7c0.2-0.3,0.5-0.5,0.8-0.7s0.7-0.3,1.2-0.3c0.7,0,1.3,0.2,1.6,0.6
					c0.3,0.4,0.5,1,0.5,1.7V51h-1.1v-3.3c0-1-0.4-1.5-1.2-1.5c-0.3,0-0.6,0.1-0.8,0.2c-0.2,0.2-0.4,0.4-0.6,0.6
					c-0.1,0.2-0.2,0.5-0.2,0.8V51h-1v-3.3c0-0.5-0.1-0.9-0.3-1.1c-0.2-0.2-0.5-0.4-0.9-0.4s-0.7,0.1-0.9,0.3s-0.4,0.5-0.5,0.8
					s-0.1,0.7-0.1,1L876.2,51L876.2,51z M885.3,44.4v-1.2h1.2v1.2H885.3z M885.4,51v-5.6h1.1V51H885.4z M888.5,49.2v-2.9h-1v-0.9h1
					v-1.8h1.1v1.8h1.6v0.9h-1.6V49c0,0.4,0.1,0.8,0.2,0.9c0.1,0.2,0.3,0.3,0.6,0.3c0.2,0,0.4,0,0.5-0.1s0.3-0.2,0.4-0.3l0.5,0.7
					c-0.2,0.2-0.5,0.4-0.7,0.5s-0.5,0.2-0.9,0.2c-0.6,0-1-0.2-1.3-0.5C888.6,50.3,888.5,49.8,888.5,49.2z M896.7,49.5l0.6,0.6
					c-0.1,0.1-0.2,0.2-0.4,0.4s-0.5,0.3-0.8,0.4c-0.3,0.1-0.7,0.2-1.2,0.2c-0.6,0-1.1-0.1-1.5-0.4c-0.4-0.3-0.8-0.6-1-1.1
					s-0.4-1-0.4-1.6c0-0.5,0.1-1,0.3-1.5c0.2-0.4,0.6-0.8,1-1c0.4-0.3,0.9-0.4,1.5-0.4s1.2,0.2,1.6,0.5c0.4,0.3,0.7,0.7,0.9,1.2
					s0.3,1,0.3,1.6h-4.4c0,0.3,0.1,0.6,0.3,0.9c0.2,0.3,0.4,0.5,0.7,0.6s0.6,0.2,0.9,0.2c0.5,0,0.9-0.1,1.2-0.2
					C896.4,49.8,896.6,49.7,896.7,49.5z M893.1,47.7h3.3c0-0.4-0.2-0.8-0.5-1.1s-0.7-0.5-1.2-0.5c-0.3,0-0.6,0.1-0.9,0.2
					c-0.2,0.2-0.4,0.3-0.6,0.6C893.1,47.2,893.1,47.5,893.1,47.7z M902.7,51v-0.7c-0.1,0.1-0.2,0.2-0.3,0.3s-0.3,0.3-0.6,0.4
					c-0.2,0.1-0.6,0.2-0.9,0.2c-0.5,0-0.9-0.1-1.3-0.3c-0.4-0.2-0.7-0.6-0.9-1s-0.3-0.9-0.3-1.5c0-0.5,0.1-1,0.3-1.4
					s0.4-0.7,0.7-0.9s0.6-0.4,0.9-0.5c0.3-0.1,0.7-0.2,0.9-0.2c0.3,0,0.6,0,0.8,0.1s0.4,0.2,0.7,0.3V43h1.1v7.4c0,0,0,0.1,0,0.2
					c0,0.1,0,0.2,0,0.3L902.7,51L902.7,51z M902.7,48.6v-2c-0.1-0.1-0.3-0.2-0.6-0.3c-0.2-0.1-0.5-0.1-0.8-0.1c-0.5,0-1,0.2-1.3,0.6
					c-0.3,0.4-0.5,0.9-0.5,1.5c0,0.4,0.1,0.7,0.2,1c0.1,0.3,0.3,0.5,0.5,0.7s0.5,0.3,0.9,0.3s0.7-0.1,0.9-0.3s0.4-0.4,0.5-0.6
					C902.6,49.1,902.7,48.9,902.7,48.6z M905.4,51v-1.3h1.4V51H905.4z M22,60.9l0.8,0.7c-0.1,0.2-0.3,0.4-0.6,0.7
					c-0.3,0.2-0.6,0.5-1.1,0.7c-0.4,0.2-0.9,0.3-1.5,0.3c-0.8,0-1.5-0.2-2.1-0.5c-0.6-0.4-1.1-0.9-1.4-1.5c-0.3-0.6-0.5-1.3-0.5-2.1
					c0-0.6,0.1-1.1,0.3-1.6s0.5-1,0.8-1.3c0.4-0.4,0.8-0.7,1.3-0.9s1-0.3,1.6-0.3s1.1,0.1,1.5,0.3s0.7,0.4,1,0.6
					c0.3,0.2,0.5,0.5,0.6,0.7l-0.8,0.7c-0.1-0.2-0.3-0.4-0.5-0.6c-0.2-0.2-0.4-0.4-0.7-0.5c-0.3-0.1-0.6-0.2-1.1-0.2
					c-0.6,0-1.1,0.1-1.5,0.4c-0.4,0.3-0.7,0.7-1,1.2c-0.2,0.5-0.3,1-0.3,1.6s0.1,1.1,0.3,1.6c0.2,0.5,0.6,0.8,1,1.1s0.9,0.4,1.5,0.4
					c0.5,0,0.9-0.1,1.2-0.2c0.3-0.2,0.5-0.3,0.7-0.5C21.7,61.2,21.9,61,22,60.9z M26.4,63.2c-0.6,0-1.1-0.1-1.5-0.4
					c-0.4-0.3-0.8-0.6-1.1-1.1c-0.2-0.5-0.4-1-0.4-1.5s0.1-1,0.4-1.5c0.3-0.4,0.6-0.8,1.1-1.1c0.4-0.3,1-0.4,1.5-0.4
					c0.6,0,1.1,0.1,1.5,0.4c0.4,0.3,0.8,0.6,1.1,1.1c0.3,0.4,0.4,0.9,0.4,1.5c0,0.5-0.1,1-0.4,1.5c-0.3,0.4-0.6,0.8-1.1,1.1
					C27.4,63,26.9,63.2,26.4,63.2z M26.4,62.2c0.4,0,0.7-0.1,1-0.3s0.5-0.5,0.6-0.8c0.2-0.3,0.2-0.6,0.2-1c0-0.3-0.1-0.7-0.2-1
					s-0.4-0.6-0.6-0.8c-0.3-0.2-0.6-0.3-1-0.3s-0.7,0.1-1,0.3s-0.5,0.4-0.6,0.8c-0.1,0.3-0.2,0.6-0.2,1c0,0.3,0.1,0.7,0.2,1
					c0.2,0.3,0.4,0.6,0.6,0.8C25.7,62.1,26,62.2,26.4,62.2z M31.6,63h-1.1v-5c0-0.1,0-0.1,0-0.2c0-0.1,0-0.2,0-0.4h1v0.8
					c0.1-0.1,0.2-0.3,0.4-0.4c0.2-0.2,0.4-0.3,0.6-0.4c0.2-0.1,0.5-0.2,0.9-0.2c0.7,0,1.3,0.2,1.6,0.6c0.4,0.4,0.5,1,0.5,1.7V63
					h-1.1v-3.3c0-0.5-0.1-0.9-0.3-1.1c-0.2-0.2-0.5-0.4-0.9-0.4s-0.7,0.1-1,0.3c-0.2,0.2-0.4,0.5-0.5,0.8s-0.1,0.7-0.1,1V63z
					 M36.8,62.3l0.7-0.7c0.2,0.2,0.4,0.4,0.7,0.5s0.6,0.2,1,0.2s0.7-0.1,0.9-0.2c0.2-0.1,0.4-0.3,0.4-0.6c0-0.2,0-0.3-0.1-0.4
					s-0.3-0.2-0.5-0.3s-0.6-0.2-1-0.3c-0.3-0.1-0.6-0.2-0.8-0.3c-0.3-0.1-0.5-0.3-0.7-0.5s-0.3-0.5-0.3-0.9s0.1-0.7,0.3-0.9
					s0.5-0.4,0.8-0.6c0.3-0.1,0.7-0.2,1.1-0.2c0.5,0,0.9,0.1,1.2,0.2c0.3,0.1,0.6,0.3,0.9,0.5l-0.6,0.7c-0.2-0.2-0.4-0.3-0.6-0.4
					c-0.2-0.1-0.5-0.2-0.9-0.2c-0.3,0-0.6,0.1-0.8,0.2s-0.3,0.3-0.3,0.6c0,0.2,0.1,0.4,0.4,0.5c0.3,0.1,0.6,0.2,1.1,0.3
					c0.4,0.1,0.7,0.2,0.9,0.3c0.3,0.1,0.5,0.3,0.7,0.5s0.3,0.5,0.3,0.9s-0.1,0.7-0.3,0.9s-0.5,0.4-0.9,0.6c-0.4,0.1-0.7,0.2-1.1,0.2
					C38.1,63.2,37.3,62.9,36.8,62.3z M42.7,56.4v-1.2h1.2v1.2H42.7z M42.8,63v-5.6h1.1V63H42.8z M49.5,63v-0.7
					c-0.1,0.1-0.2,0.2-0.3,0.3s-0.3,0.3-0.6,0.4c-0.2,0.1-0.6,0.2-0.9,0.2c-0.5,0-0.9-0.1-1.3-0.3c-0.4-0.2-0.7-0.6-0.9-1
					s-0.3-0.9-0.3-1.5c0-0.5,0.1-1,0.3-1.4s0.4-0.7,0.7-0.9s0.6-0.4,0.9-0.5c0.3-0.1,0.7-0.2,0.9-0.2c0.3,0,0.6,0,0.8,0.1
					s0.4,0.2,0.7,0.3V55h1.1v7.4c0,0,0,0.1,0,0.2c0,0.1,0,0.2,0,0.3L49.5,63L49.5,63z M49.4,60.6v-2c-0.1-0.1-0.3-0.2-0.6-0.3
					c-0.2-0.1-0.5-0.1-0.8-0.1c-0.5,0-1,0.2-1.3,0.6c-0.3,0.4-0.5,0.9-0.5,1.5c0,0.4,0.1,0.7,0.2,1c0.1,0.3,0.3,0.5,0.5,0.7
					s0.5,0.3,0.9,0.3s0.7-0.1,0.9-0.3s0.4-0.4,0.5-0.6C49.4,61.1,49.4,60.9,49.4,60.6z M56.5,61.5l0.6,0.6c-0.1,0.1-0.2,0.2-0.4,0.4
					s-0.5,0.3-0.8,0.4c-0.3,0.1-0.7,0.2-1.2,0.2c-0.6,0-1.1-0.1-1.5-0.4c-0.4-0.3-0.8-0.6-1-1.1s-0.4-1-0.4-1.6c0-0.5,0.1-1,0.3-1.5
					c0.2-0.4,0.6-0.8,1-1c0.4-0.3,0.9-0.4,1.5-0.4s1.2,0.2,1.6,0.5c0.4,0.3,0.7,0.7,0.9,1.2s0.3,1,0.3,1.6H53c0,0.3,0.1,0.6,0.3,0.9
					c0.2,0.3,0.4,0.5,0.7,0.6s0.6,0.2,0.9,0.2c0.5,0,0.9-0.1,1.2-0.2C56.1,61.8,56.3,61.7,56.5,61.5z M52.8,59.7h3.3
					c0-0.4-0.2-0.8-0.5-1.1s-0.7-0.5-1.2-0.5c-0.3,0-0.6,0.1-0.9,0.2c-0.2,0.2-0.4,0.3-0.6,0.6C52.9,59.2,52.8,59.5,52.8,59.7z
					 M59.5,63h-1.1v-5c0-0.1,0-0.1,0-0.2c0-0.1,0-0.2,0-0.3h1v0.9c0.1-0.1,0.2-0.3,0.4-0.4c0.2-0.2,0.4-0.3,0.6-0.4
					c0.2-0.1,0.5-0.2,0.9-0.2c0.1,0,0.2,0,0.3,0s0.2,0,0.3,0.1l-0.2,1c-0.1-0.1-0.3-0.1-0.6-0.1s-0.6,0.1-0.8,0.2
					c-0.2,0.2-0.4,0.4-0.6,0.6s-0.2,0.5-0.2,0.9C59.5,60.1,59.5,63,59.5,63z M65.5,61.2v-2.9h-1v-0.9h1v-1.8h1.1v1.8h1.6v0.9h-1.6
					V61c0,0.4,0.1,0.8,0.2,0.9c0.1,0.2,0.3,0.3,0.6,0.3c0.2,0,0.4,0,0.5-0.1s0.3-0.2,0.4-0.3l0.5,0.7c-0.2,0.2-0.5,0.4-0.7,0.5
					s-0.5,0.2-0.9,0.2c-0.6,0-1-0.2-1.3-0.5C65.6,62.3,65.5,61.8,65.5,61.2z M69.6,63v-8h1.1v3.3c0.1-0.1,0.2-0.3,0.4-0.4
					c0.2-0.2,0.4-0.3,0.6-0.4c0.2-0.1,0.5-0.2,0.9-0.2c0.7,0,1.3,0.2,1.6,0.6c0.4,0.4,0.5,1,0.5,1.7V63h-1.1v-3.3
					c0-0.5-0.1-0.9-0.3-1.1c-0.2-0.2-0.5-0.4-0.9-0.4s-0.7,0.1-1,0.3c-0.2,0.2-0.4,0.5-0.5,0.8s-0.1,0.7-0.1,1V63H69.6z M80.6,61.5
					l0.6,0.6c-0.1,0.1-0.2,0.2-0.4,0.4c-0.2,0.2-0.5,0.3-0.8,0.4c-0.3,0.1-0.7,0.2-1.2,0.2c-0.6,0-1.1-0.1-1.5-0.4
					c-0.4-0.3-0.8-0.6-1-1.1s-0.4-1-0.4-1.6c0-0.5,0.1-1,0.3-1.5c0.2-0.4,0.6-0.8,1-1c0.4-0.3,0.9-0.4,1.5-0.4s1.2,0.2,1.6,0.5
					s0.7,0.7,0.9,1.2c0.2,0.5,0.3,1,0.3,1.6h-4.4c0,0.3,0.1,0.6,0.3,0.9c0.2,0.3,0.4,0.5,0.7,0.6c0.3,0.1,0.6,0.2,0.9,0.2
					c0.5,0,0.9-0.1,1.2-0.2C80.2,61.8,80.4,61.7,80.6,61.5z M76.9,59.7h3.3c0-0.4-0.2-0.8-0.5-1.1s-0.7-0.5-1.2-0.5
					c-0.3,0-0.6,0.1-0.9,0.2c-0.2,0.2-0.4,0.3-0.6,0.6C77,59.2,76.9,59.5,76.9,59.7z M85.8,63h-1.1v-5c0-0.1,0-0.1,0-0.2
					c0-0.1,0-0.2,0-0.3h1v0.9c0.1-0.1,0.2-0.3,0.4-0.4c0.2-0.2,0.4-0.3,0.6-0.4c0.2-0.1,0.5-0.2,0.9-0.2c0.1,0,0.2,0,0.3,0
					c0.1,0,0.2,0,0.3,0.1l-0.2,1c-0.1-0.1-0.3-0.1-0.6-0.1c-0.3,0-0.6,0.1-0.8,0.2c-0.2,0.2-0.4,0.4-0.6,0.6s-0.2,0.5-0.2,0.9
					L85.8,63L85.8,63z M93.2,61.5l0.6,0.6c-0.1,0.1-0.2,0.2-0.4,0.4c-0.2,0.2-0.5,0.3-0.8,0.4c-0.3,0.1-0.7,0.2-1.2,0.2
					c-0.6,0-1.1-0.1-1.5-0.4c-0.4-0.3-0.8-0.6-1-1.1s-0.4-1-0.4-1.6c0-0.5,0.1-1,0.3-1.5c0.2-0.4,0.6-0.8,1-1
					c0.4-0.3,0.9-0.4,1.5-0.4s1.2,0.2,1.6,0.5s0.7,0.7,0.9,1.2c0.2,0.5,0.3,1,0.3,1.6h-4.4c0,0.3,0.1,0.6,0.3,0.9
					c0.2,0.3,0.4,0.5,0.7,0.6c0.3,0.1,0.6,0.2,0.9,0.2c0.5,0,0.9-0.1,1.2-0.2C92.9,61.8,93.1,61.7,93.2,61.5z M89.6,59.7h3.3
					c0-0.4-0.2-0.8-0.5-1.1s-0.7-0.5-1.2-0.5c-0.3,0-0.6,0.1-0.9,0.2c-0.2,0.2-0.4,0.3-0.6,0.6C89.7,59.2,89.6,59.5,89.6,59.7z
					 M95.2,63v-8h1.1v8H95.2z M102.2,61.5l0.6,0.6c-0.1,0.1-0.2,0.2-0.4,0.4c-0.2,0.2-0.5,0.3-0.8,0.4c-0.3,0.1-0.7,0.2-1.2,0.2
					c-0.6,0-1.1-0.1-1.5-0.4c-0.4-0.3-0.8-0.6-1-1.1s-0.4-1-0.4-1.6c0-0.5,0.1-1,0.3-1.5c0.2-0.4,0.6-0.8,1-1
					c0.4-0.3,0.9-0.4,1.5-0.4s1.2,0.2,1.6,0.5s0.7,0.7,0.9,1.2c0.2,0.5,0.3,1,0.3,1.6h-4.4c0,0.3,0.1,0.6,0.3,0.9
					c0.2,0.3,0.4,0.5,0.7,0.6c0.3,0.1,0.6,0.2,0.9,0.2c0.5,0,0.9-0.1,1.2-0.2C101.9,61.8,102.1,61.7,102.2,61.5z M98.6,59.7h3.3
					c0-0.4-0.2-0.8-0.5-1.1s-0.7-0.5-1.2-0.5c-0.3,0-0.6,0.1-0.9,0.2c-0.2,0.2-0.4,0.3-0.6,0.6C98.7,59.2,98.6,59.5,98.6,59.7z
					 M105.7,63l-2.4-5.6h1.2l1.7,4.4l1.7-4.4h1.2l-2.4,5.6H105.7z M113.2,63v-0.7c-0.2,0.3-0.5,0.5-0.8,0.6s-0.7,0.2-1,0.2
					s-0.6-0.1-0.9-0.2c-0.3-0.1-0.5-0.3-0.7-0.6s-0.3-0.6-0.3-1c0-0.6,0.2-1.1,0.6-1.4c0.4-0.4,1-0.5,1.8-0.5c0.2,0,0.4,0,0.5,0
					c0.2,0,0.4,0,0.5,0c0.2,0,0.3,0,0.3,0v-0.2c0-0.4-0.1-0.7-0.4-0.9c-0.2-0.2-0.6-0.3-1-0.3s-0.8,0.1-1,0.2
					c-0.2,0.1-0.5,0.2-0.6,0.3l-0.5-0.7c0.2-0.2,0.5-0.3,0.8-0.5c0.4-0.2,0.8-0.2,1.4-0.2c0.7,0,1.3,0.2,1.7,0.5
					c0.4,0.3,0.6,0.8,0.6,1.5v3.3c0,0.1,0,0.1,0,0.2c0,0.1,0,0.2,0,0.3h-1V63z M113.2,61v-0.6c0,0-0.1,0-0.3,0c-0.1,0-0.3,0-0.5,0
					s-0.3,0-0.5,0c-0.4,0-0.7,0.1-0.9,0.2c-0.2,0.1-0.4,0.3-0.4,0.4c-0.1,0.2-0.1,0.3-0.1,0.5c0,0.3,0.1,0.5,0.3,0.7
					s0.5,0.2,0.9,0.2c0.3,0,0.5-0.1,0.8-0.2c0.2-0.1,0.4-0.3,0.6-0.5C113.1,61.4,113.2,61.2,113.2,61z M116.8,63h-1.1v-5
					c0-0.1,0-0.1,0-0.2c0-0.1,0-0.2,0-0.4h1v0.8c0.1-0.1,0.2-0.3,0.4-0.4c0.2-0.2,0.4-0.3,0.6-0.4c0.2-0.1,0.5-0.2,0.9-0.2
					c0.7,0,1.3,0.2,1.6,0.6c0.4,0.4,0.5,1,0.5,1.7V63h-1.1v-3.3c0-0.5-0.1-0.9-0.3-1.1c-0.2-0.2-0.5-0.4-0.9-0.4s-0.7,0.1-1,0.3
					c-0.2,0.2-0.4,0.5-0.5,0.8s-0.1,0.7-0.1,1V63z M122.7,61.2v-2.9h-1v-0.9h1v-1.8h1.1v1.8h1.6v0.9h-1.6V61c0,0.4,0.1,0.8,0.2,0.9
					c0.1,0.2,0.3,0.3,0.6,0.3c0.2,0,0.4,0,0.5-0.1s0.3-0.2,0.4-0.3l0.5,0.7c-0.2,0.2-0.5,0.4-0.7,0.5s-0.5,0.2-0.9,0.2
					c-0.6,0-1-0.2-1.3-0.5C122.9,62.3,122.7,61.8,122.7,61.2z M129.2,63v-8h2.5c0.5,0,1,0.1,1.3,0.2c0.4,0.1,0.6,0.3,0.9,0.6
					c0.2,0.2,0.4,0.5,0.4,0.8c0.1,0.3,0.1,0.6,0.1,0.8c0,0.5-0.1,1-0.3,1.3c-0.2,0.4-0.6,0.6-1,0.8s-0.9,0.3-1.4,0.3h-1.5V63H129.2z
					 M130.3,58.9h1.4c0.5,0,0.9-0.1,1.1-0.4c0.3-0.3,0.4-0.6,0.4-1s-0.1-0.8-0.4-1.1c-0.3-0.3-0.6-0.4-1.1-0.4h-1.4V58.9z M136,63
					v-8h2.7c0.8,0,1.6,0.1,2.2,0.4c0.7,0.3,1.2,0.7,1.5,1.3c0.4,0.6,0.6,1.4,0.6,2.3c0,0.9-0.2,1.6-0.6,2.2c-0.4,0.6-0.9,1-1.5,1.3
					c-0.7,0.3-1.4,0.4-2.3,0.4L136,63L136,63z M137.1,62h1.5c1,0,1.8-0.2,2.3-0.7c0.6-0.5,0.8-1.2,0.8-2.2s-0.3-1.7-0.8-2.2
					s-1.3-0.8-2.4-0.8H137L137.1,62L137.1,62z M144,61.8l0.8-0.7c0.2,0.2,0.3,0.3,0.5,0.5s0.4,0.3,0.7,0.4c0.3,0.1,0.6,0.2,0.9,0.2
					c0.5,0,0.9-0.1,1.2-0.4c0.3-0.2,0.4-0.6,0.4-1s-0.2-0.8-0.5-1s-0.8-0.4-1.5-0.5s-1.2-0.4-1.7-0.8c-0.4-0.4-0.6-0.9-0.6-1.5
					c0-0.4,0.1-0.8,0.3-1.1s0.5-0.6,0.9-0.8s0.9-0.3,1.5-0.3c0.5,0,0.9,0.1,1.3,0.2c0.3,0.1,0.6,0.3,0.8,0.5s0.3,0.3,0.4,0.4
					l-0.8,0.7c-0.1-0.1-0.2-0.2-0.3-0.3c-0.2-0.1-0.3-0.2-0.6-0.3c-0.2-0.1-0.5-0.2-0.9-0.2c-0.3,0-0.6,0.1-0.8,0.2
					c-0.2,0.1-0.4,0.3-0.5,0.4c-0.1,0.2-0.2,0.3-0.2,0.5c0,0.4,0.2,0.7,0.5,0.9s0.8,0.4,1.4,0.5c0.4,0.1,0.8,0.2,1.1,0.4
					c0.4,0.2,0.7,0.4,0.9,0.8c0.2,0.3,0.3,0.8,0.3,1.3s-0.1,0.9-0.4,1.2c-0.2,0.4-0.6,0.6-1,0.8s-0.9,0.3-1.4,0.3s-0.9-0.1-1.3-0.2
					c-0.4-0.1-0.7-0.3-1-0.5C144.4,62.2,144.2,62,144,61.8z M157,63v-0.7c-0.2,0.3-0.5,0.5-0.8,0.6s-0.7,0.2-1,0.2s-0.6-0.1-0.9-0.2
					c-0.3-0.1-0.5-0.3-0.7-0.6s-0.3-0.6-0.3-1c0-0.6,0.2-1.1,0.6-1.4c0.4-0.4,1-0.5,1.8-0.5c0.2,0,0.4,0,0.5,0c0.2,0,0.4,0,0.5,0
					c0.2,0,0.3,0,0.3,0v-0.2c0-0.4-0.1-0.7-0.4-0.9c-0.2-0.2-0.6-0.3-1-0.3s-0.8,0.1-1,0.2c-0.2,0.1-0.5,0.2-0.6,0.3l-0.5-0.7
					c0.2-0.2,0.5-0.3,0.8-0.5s0.8-0.2,1.4-0.2c0.7,0,1.3,0.2,1.7,0.5s0.6,0.8,0.6,1.5v3.3c0,0.1,0,0.1,0,0.2c0,0.1,0,0.2,0,0.3h-1
					V63z M157,61v-0.6c0,0-0.1,0-0.3,0c-0.1,0-0.3,0-0.5,0s-0.3,0-0.5,0c-0.4,0-0.7,0.1-0.9,0.2c-0.2,0.1-0.4,0.3-0.4,0.4
					c-0.1,0.2-0.1,0.3-0.1,0.5c0,0.3,0.1,0.5,0.3,0.7s0.5,0.2,0.9,0.2c0.3,0,0.5-0.1,0.8-0.2c0.2-0.1,0.4-0.3,0.6-0.5
					C156.9,61.4,157,61.2,157,61z M160.6,63h-1.1v-5c0-0.1,0-0.1,0-0.2c0-0.1,0-0.2,0-0.4h1v0.8c0.1-0.1,0.2-0.3,0.4-0.4
					c0.2-0.2,0.4-0.3,0.6-0.4c0.2-0.1,0.5-0.2,0.9-0.2c0.7,0,1.3,0.2,1.6,0.6c0.4,0.4,0.5,1,0.5,1.7V63h-1.1v-3.3
					c0-0.5-0.1-0.9-0.3-1.1c-0.2-0.2-0.5-0.4-0.9-0.4s-0.7,0.1-1,0.3c-0.2,0.2-0.4,0.5-0.5,0.8s-0.1,0.7-0.1,1L160.6,63L160.6,63z
					 M170.1,63v-0.7c-0.1,0.1-0.2,0.2-0.3,0.3s-0.3,0.3-0.6,0.4c-0.2,0.1-0.6,0.2-0.9,0.2c-0.5,0-0.9-0.1-1.3-0.3
					c-0.4-0.2-0.7-0.6-0.9-1s-0.3-0.9-0.3-1.5c0-0.5,0.1-1,0.3-1.4s0.4-0.7,0.7-0.9s0.6-0.4,0.9-0.5c0.3-0.1,0.7-0.2,0.9-0.2
					c0.3,0,0.6,0,0.8,0.1s0.4,0.2,0.7,0.3V55h1.1v7.4c0,0,0,0.1,0,0.2c0,0.1,0,0.2,0,0.3L170.1,63L170.1,63z M170,60.6v-2
					c-0.1-0.1-0.3-0.2-0.6-0.3c-0.2-0.1-0.5-0.1-0.8-0.1c-0.5,0-1,0.2-1.3,0.6c-0.3,0.4-0.5,0.9-0.5,1.5c0,0.4,0.1,0.7,0.2,1
					c0.1,0.3,0.3,0.5,0.5,0.7s0.5,0.3,0.9,0.3s0.7-0.1,0.9-0.3s0.4-0.4,0.5-0.6C170,61.1,170,60.9,170,60.6z M177.2,63v-7h-2.9v-1
					h6.9v1h-2.9v7H177.2z M182.2,63l0.4-8h1.1l2.4,4.2l2.4-4.2h1.1l0.4,8h-1.1l-0.3-6.1l-2.3,3.8h-0.6l-2.2-3.7l-0.3,6.1L182.2,63
					L182.2,63z M191.7,63v-8h2.7c0.8,0,1.6,0.1,2.2,0.4c0.7,0.3,1.2,0.7,1.5,1.3c0.4,0.6,0.6,1.4,0.6,2.3c0,0.9-0.2,1.6-0.6,2.2
					c-0.4,0.6-0.9,1-1.5,1.3c-0.7,0.3-1.4,0.4-2.3,0.4L191.7,63L191.7,63z M192.9,62h1.5c1,0,1.8-0.2,2.3-0.7
					c0.6-0.5,0.8-1.2,0.8-2.2s-0.3-1.7-0.8-2.2s-1.3-0.8-2.4-0.8h-1.5L192.9,62L192.9,62z M205.8,63v-0.7c-0.2,0.3-0.5,0.5-0.8,0.6
					s-0.7,0.2-1,0.2s-0.6-0.1-0.9-0.2c-0.3-0.1-0.5-0.3-0.7-0.6s-0.3-0.6-0.3-1c0-0.6,0.2-1.1,0.6-1.4c0.4-0.4,1-0.5,1.8-0.5
					c0.2,0,0.4,0,0.5,0c0.2,0,0.4,0,0.5,0c0.2,0,0.3,0,0.3,0v-0.2c0-0.4-0.1-0.7-0.4-0.9c-0.2-0.2-0.6-0.3-1-0.3s-0.8,0.1-1,0.2
					c-0.2,0.1-0.5,0.2-0.6,0.3l-0.5-0.7c0.2-0.2,0.5-0.3,0.8-0.5s0.8-0.2,1.4-0.2c0.7,0,1.3,0.2,1.7,0.5s0.6,0.8,0.6,1.5v3.3
					c0,0.1,0,0.1,0,0.2c0,0.1,0,0.2,0,0.3h-1V63z M205.7,61v-0.6c0,0-0.1,0-0.3,0c-0.1,0-0.3,0-0.5,0s-0.3,0-0.5,0
					c-0.4,0-0.7,0.1-0.9,0.2c-0.2,0.1-0.4,0.3-0.4,0.4c-0.1,0.2-0.1,0.3-0.1,0.5c0,0.3,0.1,0.5,0.3,0.7s0.5,0.2,0.9,0.2
					c0.3,0,0.5-0.1,0.8-0.2c0.2-0.1,0.4-0.3,0.6-0.5C205.6,61.4,205.7,61.2,205.7,61z M209.7,63l-2.4-5.6h1.2l1.7,4.4l1.7-4.4h1.2
					l-2.4,5.6H209.7z M217.3,63v-0.7c-0.2,0.3-0.5,0.5-0.8,0.6s-0.7,0.2-1,0.2s-0.6-0.1-0.9-0.2c-0.3-0.1-0.5-0.3-0.7-0.6
					s-0.3-0.6-0.3-1c0-0.6,0.2-1.1,0.6-1.4c0.4-0.4,1-0.5,1.8-0.5c0.2,0,0.4,0,0.5,0c0.2,0,0.4,0,0.5,0c0.2,0,0.3,0,0.3,0v-0.2
					c0-0.4-0.1-0.7-0.4-0.9c-0.2-0.2-0.6-0.3-1-0.3s-0.8,0.1-1,0.2c-0.2,0.1-0.5,0.2-0.6,0.3l-0.5-0.7c0.2-0.2,0.5-0.3,0.8-0.5
					c0.4-0.2,0.8-0.2,1.4-0.2c0.7,0,1.3,0.2,1.7,0.5s0.6,0.8,0.6,1.5v3.3c0,0.1,0,0.1,0,0.2c0,0.1,0,0.2,0,0.3h-1V63z M217.3,61
					v-0.6c0,0-0.1,0-0.3,0c-0.1,0-0.3,0-0.5,0s-0.3,0-0.5,0c-0.4,0-0.7,0.1-0.9,0.2c-0.2,0.1-0.4,0.3-0.4,0.4
					c-0.1,0.2-0.1,0.3-0.1,0.5c0,0.3,0.1,0.5,0.3,0.7s0.5,0.2,0.9,0.2c0.3,0,0.5-0.1,0.8-0.2c0.2-0.1,0.4-0.3,0.6-0.5
					C217.2,61.4,217.3,61.2,217.3,61z M219.7,56.4v-1.2h1.2v1.2H219.7z M219.8,63v-5.6h1.1V63H219.8z M222.4,63v-8h1.1v8H222.4z
					 M228.5,63v-0.7c-0.2,0.3-0.5,0.5-0.8,0.6s-0.7,0.2-1,0.2s-0.6-0.1-0.9-0.2c-0.3-0.1-0.5-0.3-0.7-0.6s-0.3-0.6-0.3-1
					c0-0.6,0.2-1.1,0.6-1.4c0.4-0.4,1-0.5,1.8-0.5c0.2,0,0.4,0,0.5,0c0.2,0,0.4,0,0.5,0c0.2,0,0.3,0,0.3,0v-0.2
					c0-0.4-0.1-0.7-0.4-0.9c-0.2-0.2-0.6-0.3-1-0.3s-0.8,0.1-1,0.2c-0.2,0.1-0.5,0.2-0.6,0.3l-0.5-0.7c0.2-0.2,0.5-0.3,0.8-0.5
					c0.4-0.2,0.8-0.2,1.4-0.2c0.7,0,1.3,0.2,1.7,0.5s0.6,0.8,0.6,1.5v3.3c0,0.1,0,0.1,0,0.2c0,0.1,0,0.2,0,0.3h-1V63z M228.4,61
					v-0.6c0,0-0.1,0-0.3,0c-0.1,0-0.3,0-0.5,0s-0.3,0-0.5,0c-0.4,0-0.7,0.1-0.9,0.2c-0.2,0.1-0.4,0.3-0.4,0.4
					c-0.1,0.2-0.1,0.3-0.1,0.5c0,0.3,0.1,0.5,0.3,0.7s0.5,0.2,0.9,0.2c0.3,0,0.5-0.1,0.8-0.2c0.2-0.1,0.4-0.3,0.6-0.5
					C228.4,61.4,228.4,61.2,228.4,61z M231,62.8V55h1.1v3c0.1-0.2,0.3-0.3,0.6-0.5s0.7-0.3,1.1-0.3c0.6,0,1,0.1,1.4,0.4
					c0.4,0.3,0.7,0.6,0.9,1s0.3,0.9,0.3,1.5s-0.1,1.1-0.4,1.6c-0.3,0.4-0.6,0.8-1.1,1.1s-1,0.4-1.6,0.4c-0.5,0-0.9,0-1.3-0.1
					C231.5,63,231.2,62.9,231,62.8z M232,59.9v2.2c0.1,0,0.2,0.1,0.4,0.1s0.4,0,0.7,0c0.6,0,1.1-0.2,1.5-0.6
					c0.4-0.4,0.6-0.9,0.6-1.5c0-0.3-0.1-0.7-0.2-1c-0.1-0.3-0.3-0.5-0.5-0.7s-0.5-0.3-0.9-0.3c-0.3,0-0.6,0.1-0.9,0.2
					c-0.2,0.2-0.4,0.4-0.5,0.6C232.1,59.3,232,59.6,232,59.9z M237.5,63v-8h1.1v8H237.5z M244.6,61.5l0.6,0.6
					c-0.1,0.1-0.2,0.2-0.4,0.4s-0.5,0.3-0.8,0.4c-0.3,0.1-0.7,0.2-1.2,0.2c-0.6,0-1.1-0.1-1.5-0.4c-0.4-0.3-0.8-0.6-1-1.1
					s-0.4-1-0.4-1.6c0-0.5,0.1-1,0.3-1.5c0.2-0.4,0.6-0.8,1-1c0.4-0.3,0.9-0.4,1.5-0.4s1.2,0.2,1.6,0.5c0.4,0.3,0.7,0.7,0.9,1.2
					s0.3,1,0.3,1.6h-4.4c0,0.3,0.1,0.6,0.3,0.9c0.2,0.3,0.4,0.5,0.7,0.6s0.6,0.2,0.9,0.2c0.5,0,0.9-0.1,1.2-0.2
					C244.2,61.8,244.4,61.7,244.6,61.5z M240.9,59.7h3.3c0-0.4-0.2-0.8-0.5-1.1s-0.7-0.5-1.2-0.5c-0.3,0-0.6,0.1-0.9,0.2
					c-0.2,0.2-0.4,0.3-0.6,0.6C241,59.2,240.9,59.5,240.9,59.7z M252.2,63v-0.7c-0.2,0.3-0.5,0.5-0.8,0.6s-0.7,0.2-1,0.2
					s-0.6-0.1-0.9-0.2c-0.3-0.1-0.5-0.3-0.7-0.6s-0.3-0.6-0.3-1c0-0.6,0.2-1.1,0.6-1.4c0.4-0.4,1-0.5,1.8-0.5c0.2,0,0.4,0,0.5,0
					c0.2,0,0.4,0,0.5,0c0.2,0,0.3,0,0.3,0v-0.2c0-0.4-0.1-0.7-0.4-0.9c-0.2-0.2-0.6-0.3-1-0.3s-0.8,0.1-1,0.2
					c-0.2,0.1-0.5,0.2-0.6,0.3l-0.5-0.7c0.2-0.2,0.5-0.3,0.8-0.5c0.4-0.2,0.8-0.2,1.4-0.2c0.7,0,1.3,0.2,1.7,0.5s0.6,0.8,0.6,1.5
					v3.3c0,0.1,0,0.1,0,0.2c0,0.1,0,0.2,0,0.3h-1V63z M252.2,61v-0.6c0,0-0.1,0-0.3,0c-0.1,0-0.3,0-0.5,0s-0.3,0-0.5,0
					c-0.4,0-0.7,0.1-0.9,0.2c-0.2,0.1-0.4,0.3-0.4,0.4c-0.1,0.2-0.1,0.3-0.1,0.5c0,0.3,0.1,0.5,0.3,0.7s0.5,0.2,0.9,0.2
					c0.3,0,0.5-0.1,0.8-0.2c0.2-0.1,0.4-0.3,0.6-0.5C252.1,61.4,252.2,61.2,252.2,61z M255.1,61.2v-2.9h-1v-0.9h1v-1.8h1.1v1.8h1.6
					v0.9h-1.6V61c0,0.4,0.1,0.8,0.2,0.9c0.1,0.2,0.3,0.3,0.6,0.3c0.2,0,0.4,0,0.5-0.1s0.3-0.2,0.4-0.3l0.5,0.7
					c-0.2,0.2-0.5,0.4-0.7,0.5s-0.5,0.2-0.9,0.2c-0.6,0-1-0.2-1.3-0.5C255.3,62.3,255.1,61.8,255.1,61.2z M261.4,63v-8h1.1v3.3
					c0.1-0.1,0.2-0.3,0.4-0.4c0.2-0.2,0.4-0.3,0.6-0.4c0.2-0.1,0.5-0.2,0.9-0.2c0.7,0,1.3,0.2,1.6,0.6c0.4,0.4,0.5,1,0.5,1.7V63
					h-1.1v-3.3c0-0.5-0.1-0.9-0.3-1.1c-0.2-0.2-0.5-0.4-0.9-0.4s-0.7,0.1-1,0.3c-0.2,0.2-0.4,0.5-0.5,0.8s-0.1,0.7-0.1,1V63H261.4z
					 M270.6,63.2c-0.6,0-1.1-0.1-1.5-0.4c-0.4-0.3-0.8-0.6-1.1-1.1c-0.2-0.5-0.4-1-0.4-1.5s0.1-1,0.4-1.5c0.3-0.4,0.6-0.8,1.1-1.1
					c0.4-0.3,1-0.4,1.5-0.4s1.1,0.1,1.5,0.4c0.4,0.3,0.8,0.6,1.1,1.1c0.3,0.4,0.4,0.9,0.4,1.5c0,0.5-0.1,1-0.4,1.5
					c-0.3,0.4-0.6,0.8-1.1,1.1C271.7,63,271.2,63.2,270.6,63.2z M270.6,62.2c0.4,0,0.7-0.1,1-0.3s0.5-0.5,0.6-0.8
					c0.2-0.3,0.2-0.6,0.2-1c0-0.3-0.1-0.7-0.2-1s-0.4-0.6-0.6-0.8c-0.3-0.2-0.6-0.3-1-0.3s-0.7,0.1-1,0.3s-0.5,0.4-0.6,0.8
					c-0.1,0.3-0.2,0.6-0.2,1c0,0.3,0.1,0.7,0.2,1c0.2,0.3,0.4,0.6,0.6,0.8C269.9,62.1,270.3,62.2,270.6,62.2z M274.5,62.3l0.7-0.7
					c0.2,0.2,0.4,0.4,0.7,0.5s0.6,0.2,1,0.2s0.7-0.1,0.9-0.2c0.2-0.1,0.4-0.3,0.4-0.6c0-0.2,0-0.3-0.1-0.4c-0.1-0.1-0.3-0.2-0.5-0.3
					s-0.6-0.2-1-0.3c-0.3-0.1-0.6-0.2-0.8-0.3c-0.3-0.1-0.5-0.3-0.7-0.5s-0.3-0.5-0.3-0.9s0.1-0.7,0.3-0.9c0.2-0.2,0.5-0.4,0.8-0.6
					c0.3-0.1,0.7-0.2,1.1-0.2c0.5,0,0.9,0.1,1.2,0.2c0.3,0.1,0.6,0.3,0.9,0.5l-0.6,0.7c-0.2-0.2-0.4-0.3-0.6-0.4
					c-0.2-0.1-0.5-0.2-0.9-0.2c-0.3,0-0.6,0.1-0.8,0.2s-0.3,0.3-0.3,0.6c0,0.2,0.1,0.4,0.4,0.5s0.6,0.2,1.1,0.3
					c0.4,0.1,0.7,0.2,0.9,0.3c0.3,0.1,0.5,0.3,0.7,0.5s0.3,0.5,0.3,0.9s-0.1,0.7-0.3,0.9c-0.2,0.2-0.5,0.4-0.9,0.6
					c-0.4,0.1-0.7,0.2-1.1,0.2C275.8,63.2,275,62.9,274.5,62.3z M281,61.2v-2.9h-1v-0.9h1v-1.8h1.1v1.8h1.6v0.9H282V61
					c0,0.4,0.1,0.8,0.2,0.9c0.1,0.2,0.3,0.3,0.6,0.3c0.2,0,0.4,0,0.5-0.1s0.3-0.2,0.4-0.3l0.5,0.7c-0.2,0.2-0.5,0.4-0.7,0.5
					s-0.5,0.2-0.9,0.2c-0.6,0-1-0.2-1.3-0.5C281.1,62.3,281,61.8,281,61.2z M286.2,65.4h-1.1V58c0-0.1,0-0.1,0-0.2
					c0-0.1,0-0.2,0-0.4h1v0.8c0.1-0.1,0.2-0.2,0.3-0.4c0.2-0.1,0.4-0.3,0.6-0.4c0.3-0.1,0.6-0.2,0.9-0.2c0.6,0,1,0.1,1.4,0.4
					c0.4,0.3,0.7,0.6,0.8,1.1c0.2,0.4,0.3,0.9,0.3,1.5c0,0.5-0.1,0.9-0.3,1.3c-0.2,0.4-0.4,0.7-0.7,0.9c-0.3,0.2-0.6,0.4-0.9,0.5
					s-0.7,0.2-1,0.2c-0.4,0-0.7,0-0.9-0.1c-0.2-0.1-0.4-0.2-0.6-0.2v2.6H286.2z M286.2,60.4v1.4c0.1,0.1,0.3,0.2,0.6,0.3
					c0.2,0.1,0.5,0.1,0.9,0.1s0.7-0.1,1-0.3s0.5-0.4,0.6-0.7c0.2-0.3,0.2-0.6,0.2-1s-0.1-0.7-0.2-1s-0.3-0.5-0.5-0.7s-0.6-0.3-1-0.3
					s-0.7,0.1-1,0.3s-0.5,0.5-0.6,0.9c0,0.1-0.1,0.3-0.1,0.4C286.2,60,286.2,60.2,286.2,60.4z M291.8,63v-8h1.1v8H291.8z
					 M294.3,60.8v-3.3h1.1v3.3c0,0.5,0.1,0.9,0.3,1.1c0.2,0.2,0.5,0.4,0.9,0.4s0.7-0.1,1-0.3c0.2-0.2,0.4-0.5,0.5-0.8s0.2-0.7,0.2-1
					v-2.6h1.1v5c0,0,0,0.1,0,0.2c0,0.1,0,0.2,0,0.3h-1v-0.8c-0.1,0.1-0.2,0.3-0.4,0.4c-0.2,0.1-0.4,0.3-0.6,0.4
					c-0.2,0.1-0.5,0.2-0.9,0.2c-0.7,0-1.3-0.2-1.6-0.6S294.3,61.5,294.3,60.8z M300.5,62.3l0.7-0.7c0.2,0.2,0.4,0.4,0.7,0.5
					s0.6,0.2,1,0.2s0.7-0.1,0.9-0.2c0.2-0.1,0.4-0.3,0.4-0.6c0-0.2,0-0.3-0.1-0.4c-0.1-0.1-0.3-0.2-0.5-0.3s-0.6-0.2-1-0.3
					c-0.3-0.1-0.6-0.2-0.8-0.3c-0.3-0.1-0.5-0.3-0.7-0.5s-0.3-0.5-0.3-0.9s0.1-0.7,0.3-0.9c0.2-0.2,0.5-0.4,0.8-0.6
					c0.3-0.1,0.7-0.2,1.1-0.2c0.5,0,0.9,0.1,1.2,0.2c0.3,0.1,0.6,0.3,0.9,0.5l-0.6,0.7c-0.2-0.2-0.4-0.3-0.6-0.4
					c-0.2-0.1-0.5-0.2-0.9-0.2c-0.3,0-0.6,0.1-0.8,0.2s-0.3,0.3-0.3,0.6c0,0.2,0.1,0.4,0.4,0.5s0.6,0.2,1.1,0.3
					c0.4,0.1,0.7,0.2,0.9,0.3c0.3,0.1,0.5,0.3,0.7,0.5s0.3,0.5,0.3,0.9s-0.1,0.7-0.3,0.9c-0.2,0.2-0.5,0.4-0.9,0.6
					c-0.4,0.1-0.7,0.2-1.1,0.2C301.8,63.2,301.1,62.9,300.5,62.3z M306.3,63v-1.3h1.4V63H306.3z M313,61.5l0.7,0.7
					c-0.2,0.3-0.6,0.5-0.9,0.7c-0.4,0.2-0.8,0.3-1.3,0.3c-0.6,0-1.1-0.1-1.6-0.4c-0.4-0.3-0.8-0.6-1-1s-0.4-1-0.4-1.5s0.1-1,0.4-1.5
					c0.2-0.4,0.6-0.8,1-1.1s1-0.4,1.5-0.4s0.9,0.1,1.2,0.3c0.4,0.2,0.7,0.4,0.9,0.7l-0.7,0.7c-0.2-0.2-0.4-0.4-0.6-0.5
					s-0.5-0.2-0.9-0.2s-0.7,0.1-1,0.3s-0.5,0.4-0.6,0.7s-0.2,0.6-0.2,1c0,0.3,0.1,0.7,0.2,1c0.2,0.3,0.4,0.6,0.6,0.7
					c0.3,0.2,0.6,0.3,1,0.3c0.3,0,0.6-0.1,0.9-0.2C312.6,61.9,312.8,61.7,313,61.5z M317.1,63.2c-0.6,0-1.1-0.1-1.5-0.4
					c-0.4-0.3-0.8-0.6-1.1-1.1c-0.2-0.5-0.4-1-0.4-1.5s0.1-1,0.4-1.5c0.3-0.4,0.6-0.8,1.1-1.1c0.4-0.3,1-0.4,1.5-0.4
					c0.6,0,1.1,0.1,1.5,0.4c0.4,0.3,0.8,0.6,1.1,1.1c0.3,0.4,0.4,0.9,0.4,1.5c0,0.5-0.1,1-0.4,1.5c-0.3,0.4-0.6,0.8-1.1,1.1
					C318.2,63,317.7,63.2,317.1,63.2z M317.1,62.2c0.4,0,0.7-0.1,1-0.3s0.5-0.5,0.6-0.8c0.2-0.3,0.2-0.6,0.2-1c0-0.3-0.1-0.7-0.2-1
					s-0.4-0.6-0.6-0.8c-0.3-0.2-0.6-0.3-1-0.3s-0.7,0.1-1,0.3s-0.5,0.4-0.6,0.8c-0.1,0.3-0.2,0.6-0.2,1c0,0.3,0.1,0.7,0.2,1
					c0.2,0.3,0.4,0.6,0.6,0.8C316.4,62.1,316.7,62.2,317.1,62.2z M322.3,63h-1.1v-5c0-0.1,0-0.1,0-0.2c0-0.1,0-0.2,0-0.4h1v0.8
					c0.1-0.1,0.2-0.3,0.4-0.4c0.2-0.2,0.3-0.3,0.6-0.4c0.2-0.1,0.5-0.2,0.9-0.2s0.8,0.1,1.1,0.3c0.3,0.2,0.5,0.4,0.7,0.7
					c0.2-0.3,0.5-0.5,0.8-0.7s0.7-0.3,1.2-0.3c0.7,0,1.3,0.2,1.6,0.6c0.3,0.4,0.5,1,0.5,1.7V63h-1.1v-3.3c0-1-0.4-1.5-1.2-1.5
					c-0.3,0-0.6,0.1-0.8,0.2c-0.2,0.2-0.4,0.4-0.6,0.6c-0.1,0.2-0.2,0.5-0.2,0.8V63H325v-3.3c0-0.5-0.1-0.9-0.3-1.1
					c-0.2-0.2-0.5-0.4-0.9-0.4s-0.7,0.1-0.9,0.3s-0.4,0.5-0.5,0.8s-0.1,0.7-0.1,1V63z M331.6,63v-1.3h1.4V63H331.6z M338,63v-0.7
					c-0.2,0.3-0.5,0.5-0.8,0.6s-0.7,0.2-1,0.2s-0.6-0.1-0.9-0.2c-0.3-0.1-0.5-0.3-0.7-0.6s-0.3-0.6-0.3-1c0-0.6,0.2-1.1,0.6-1.4
					c0.4-0.4,1-0.5,1.8-0.5c0.2,0,0.4,0,0.5,0c0.2,0,0.4,0,0.5,0c0.2,0,0.3,0,0.3,0v-0.2c0-0.4-0.1-0.7-0.4-0.9
					c-0.2-0.2-0.6-0.3-1-0.3s-0.8,0.1-1,0.2c-0.2,0.1-0.5,0.2-0.6,0.3l-0.5-0.7c0.2-0.2,0.5-0.3,0.8-0.5s0.8-0.2,1.4-0.2
					c0.7,0,1.3,0.2,1.7,0.5c0.4,0.3,0.6,0.8,0.6,1.5v3.3c0,0.1,0,0.1,0,0.2c0,0.1,0,0.2,0,0.3h-1V63z M338,61v-0.6c0,0-0.1,0-0.3,0
					c-0.1,0-0.3,0-0.5,0s-0.3,0-0.5,0c-0.4,0-0.7,0.1-0.9,0.2c-0.2,0.1-0.4,0.3-0.4,0.4c-0.1,0.2-0.1,0.3-0.1,0.5
					c0,0.3,0.1,0.5,0.3,0.7s0.5,0.2,0.9,0.2c0.3,0,0.5-0.1,0.8-0.2c0.2-0.1,0.4-0.3,0.6-0.5C337.9,61.4,338,61.2,338,61z
					 M340.5,60.8v-3.3h1.1v3.3c0,0.5,0.1,0.9,0.3,1.1c0.2,0.2,0.5,0.4,0.9,0.4s0.7-0.1,1-0.3c0.2-0.2,0.4-0.5,0.5-0.8s0.2-0.7,0.2-1
					v-2.6h1.1v5c0,0,0,0.1,0,0.2c0,0.1,0,0.2,0,0.3h-1v-0.8c-0.1,0.1-0.2,0.3-0.4,0.4c-0.2,0.1-0.4,0.3-0.6,0.4
					c-0.2,0.1-0.5,0.2-0.9,0.2c-0.7,0-1.3-0.2-1.6-0.6C340.6,62.1,340.5,61.5,340.5,60.8z M349.2,62.8V55h1.1v3
					c0.1-0.2,0.3-0.3,0.6-0.5c0.3-0.2,0.7-0.3,1.1-0.3c0.6,0,1,0.1,1.4,0.4c0.4,0.3,0.7,0.6,0.9,1c0.2,0.4,0.3,0.9,0.3,1.5
					s-0.1,1.1-0.4,1.6c-0.3,0.4-0.6,0.8-1.1,1.1s-1,0.4-1.6,0.4c-0.5,0-0.9,0-1.3-0.1C349.7,63,349.4,62.9,349.2,62.8z M350.2,59.9
					v2.2c0.1,0,0.2,0.1,0.4,0.1c0.2,0,0.4,0,0.7,0c0.6,0,1.1-0.2,1.5-0.6c0.4-0.4,0.6-0.9,0.6-1.5c0-0.3-0.1-0.7-0.2-1
					s-0.3-0.5-0.5-0.7s-0.5-0.3-0.9-0.3c-0.3,0-0.6,0.1-0.9,0.2c-0.2,0.2-0.4,0.4-0.5,0.6C350.3,59.3,350.2,59.6,350.2,59.9z
					 M360.2,61.5l0.6,0.6c-0.1,0.1-0.2,0.2-0.4,0.4c-0.2,0.2-0.5,0.3-0.8,0.4c-0.3,0.1-0.7,0.2-1.2,0.2c-0.6,0-1.1-0.1-1.5-0.4
					c-0.4-0.3-0.8-0.6-1-1.1s-0.4-1-0.4-1.6c0-0.5,0.1-1,0.3-1.5c0.2-0.4,0.6-0.8,1-1c0.4-0.3,0.9-0.4,1.5-0.4s1.2,0.2,1.6,0.5
					s0.7,0.7,0.9,1.2c0.2,0.5,0.3,1,0.3,1.6h-4.4c0,0.3,0.1,0.6,0.3,0.9c0.2,0.3,0.4,0.5,0.7,0.6c0.3,0.1,0.6,0.2,0.9,0.2
					c0.5,0,0.9-0.1,1.2-0.2C359.9,61.8,360.1,61.7,360.2,61.5z M356.6,59.7h3.3c0-0.4-0.2-0.8-0.5-1.1s-0.7-0.5-1.2-0.5
					c-0.3,0-0.6,0.1-0.9,0.2c-0.2,0.2-0.4,0.3-0.6,0.6C356.7,59.2,356.6,59.5,356.6,59.7z M362.6,63v-4.7h-1v-0.9h1V57
					c0-0.5,0.1-0.9,0.3-1.2c0.2-0.3,0.4-0.6,0.7-0.7c0.3-0.2,0.6-0.2,0.9-0.2s0.6,0,0.9,0.1s0.6,0.2,0.8,0.5l-0.5,0.7
					c-0.3-0.2-0.6-0.4-0.9-0.4s-0.6,0.1-0.8,0.3c-0.2,0.2-0.3,0.5-0.3,1v0.4h1.6v0.9h-1.6V63H362.6z M368.6,63.2
					c-0.6,0-1.1-0.1-1.5-0.4c-0.4-0.3-0.8-0.6-1.1-1.1c-0.2-0.5-0.4-1-0.4-1.5s0.1-1,0.4-1.5c0.3-0.4,0.6-0.8,1.1-1.1
					c0.4-0.3,1-0.4,1.5-0.4s1.1,0.1,1.5,0.4c0.4,0.3,0.8,0.6,1.1,1.1c0.3,0.4,0.4,0.9,0.4,1.5c0,0.5-0.1,1-0.4,1.5
					c-0.3,0.4-0.6,0.8-1.1,1.1C369.7,63,369.2,63.2,368.6,63.2z M368.6,62.2c0.4,0,0.7-0.1,1-0.3s0.5-0.5,0.6-0.8
					c0.2-0.3,0.2-0.6,0.2-1c0-0.3-0.1-0.7-0.2-1s-0.4-0.6-0.6-0.8c-0.3-0.2-0.6-0.3-1-0.3s-0.7,0.1-1,0.3s-0.5,0.4-0.6,0.8
					c-0.1,0.3-0.2,0.6-0.2,1c0,0.3,0.1,0.7,0.2,1c0.2,0.3,0.4,0.6,0.6,0.8C367.9,62.1,368.2,62.2,368.6,62.2z M373.9,63h-1.1v-5
					c0-0.1,0-0.1,0-0.2c0-0.1,0-0.2,0-0.3h1v0.9c0.1-0.1,0.2-0.3,0.4-0.4c0.2-0.2,0.4-0.3,0.6-0.4c0.2-0.1,0.5-0.2,0.9-0.2
					c0.1,0,0.2,0,0.3,0c0.1,0,0.2,0,0.3,0.1l-0.2,1c-0.1-0.1-0.3-0.1-0.6-0.1c-0.3,0-0.6,0.1-0.8,0.2c-0.2,0.2-0.4,0.4-0.6,0.6
					c-0.1,0.3-0.2,0.5-0.2,0.9L373.9,63L373.9,63z M381.3,61.5l0.6,0.6c-0.1,0.1-0.2,0.2-0.4,0.4c-0.2,0.2-0.5,0.3-0.8,0.4
					c-0.3,0.1-0.7,0.2-1.2,0.2c-0.6,0-1.1-0.1-1.5-0.4c-0.4-0.3-0.8-0.6-1-1.1s-0.4-1-0.4-1.6c0-0.5,0.1-1,0.3-1.5
					c0.2-0.4,0.6-0.8,1-1c0.4-0.3,0.9-0.4,1.5-0.4s1.2,0.2,1.6,0.5s0.7,0.7,0.9,1.2c0.2,0.5,0.3,1,0.3,1.6h-4.4
					c0,0.3,0.1,0.6,0.3,0.9c0.2,0.3,0.4,0.5,0.7,0.6c0.3,0.1,0.6,0.2,0.9,0.2c0.5,0,0.9-0.1,1.2-0.2C381,61.8,381.2,61.7,381.3,61.5
					z M377.7,59.7h3.3c0-0.4-0.2-0.8-0.5-1.1s-0.7-0.5-1.2-0.5c-0.3,0-0.6,0.1-0.9,0.2c-0.2,0.2-0.4,0.3-0.6,0.6
					C377.8,59.2,377.7,59.5,377.7,59.7z M386.5,63h-1.1v-5c0-0.1,0-0.1,0-0.2c0-0.1,0-0.2,0-0.4h1v0.8c0.1-0.1,0.2-0.3,0.4-0.4
					c0.2-0.2,0.3-0.3,0.6-0.4c0.2-0.1,0.5-0.2,0.9-0.2s0.8,0.1,1.1,0.3c0.3,0.2,0.5,0.4,0.7,0.7c0.2-0.3,0.5-0.5,0.8-0.7
					s0.7-0.3,1.2-0.3c0.7,0,1.3,0.2,1.6,0.6c0.3,0.4,0.5,1,0.5,1.7V63h-1.1v-3.3c0-1-0.4-1.5-1.2-1.5c-0.3,0-0.6,0.1-0.8,0.2
					c-0.2,0.2-0.4,0.4-0.6,0.6c-0.1,0.2-0.2,0.5-0.2,0.8V63h-1.1v-3.3c0-0.5-0.1-0.9-0.3-1.1c-0.2-0.2-0.5-0.4-0.9-0.4
					s-0.7,0.1-0.9,0.3s-0.4,0.5-0.5,0.8s-0.1,0.7-0.1,1V63z M399.2,63v-0.7c-0.2,0.3-0.5,0.5-0.8,0.6s-0.7,0.2-1,0.2
					s-0.6-0.1-0.9-0.2c-0.3-0.1-0.5-0.3-0.7-0.6s-0.3-0.6-0.3-1c0-0.6,0.2-1.1,0.6-1.4c0.4-0.4,1-0.5,1.8-0.5c0.2,0,0.4,0,0.5,0
					c0.2,0,0.4,0,0.5,0c0.2,0,0.3,0,0.3,0v-0.2c0-0.4-0.1-0.7-0.4-0.9c-0.2-0.2-0.6-0.3-1-0.3s-0.8,0.1-1,0.2
					c-0.2,0.1-0.5,0.2-0.6,0.3l-0.5-0.7c0.2-0.2,0.5-0.3,0.8-0.5s0.8-0.2,1.4-0.2c0.7,0,1.3,0.2,1.7,0.5c0.4,0.3,0.6,0.8,0.6,1.5
					v3.3c0,0.1,0,0.1,0,0.2c0,0.1,0,0.2,0,0.3h-1V63z M399.1,61v-0.6c0,0-0.1,0-0.3,0c-0.1,0-0.3,0-0.5,0s-0.3,0-0.5,0
					c-0.4,0-0.7,0.1-0.9,0.2c-0.2,0.1-0.4,0.3-0.4,0.4c-0.1,0.2-0.1,0.3-0.1,0.5c0,0.3,0.1,0.5,0.3,0.7s0.5,0.2,0.9,0.2
					c0.3,0,0.5-0.1,0.8-0.2c0.2-0.1,0.4-0.3,0.6-0.5C399,61.4,399.1,61.2,399.1,61z M401.6,63v-8h1.1v4.7l2.3-2.3h1.3l-2.1,2.1
					l2.4,3.5h-1.3l-1.9-2.8l-0.8,0.7V63H401.6z M407.5,56.4v-1.2h1.2v1.2H407.5z M407.5,63v-5.6h1.1V63H407.5z M411.2,63h-1.1v-5
					c0-0.1,0-0.1,0-0.2c0-0.1,0-0.2,0-0.4h1v0.8c0.1-0.1,0.2-0.3,0.4-0.4c0.2-0.2,0.4-0.3,0.6-0.4c0.2-0.1,0.5-0.2,0.9-0.2
					c0.7,0,1.3,0.2,1.6,0.6c0.4,0.4,0.5,1,0.5,1.7V63H414v-3.3c0-0.5-0.1-0.9-0.3-1.1c-0.2-0.2-0.5-0.4-0.9-0.4s-0.7,0.1-1,0.3
					c-0.2,0.2-0.4,0.5-0.5,0.8s-0.1,0.7-0.1,1V63z M416.9,64.9l0.5-0.8c0.2,0.1,0.4,0.2,0.7,0.3c0.3,0.1,0.6,0.1,1,0.1
					c0.5,0,0.9-0.1,1.2-0.4c0.3-0.3,0.4-0.7,0.4-1.2v-0.7c-0.1,0.1-0.2,0.2-0.3,0.3c-0.1,0.1-0.3,0.2-0.6,0.3
					c-0.2,0.1-0.5,0.1-0.8,0.1c-0.5,0-1-0.1-1.4-0.4c-0.4-0.2-0.7-0.6-0.9-1c-0.2-0.4-0.3-0.9-0.3-1.4c0-0.6,0.1-1.1,0.4-1.5
					c0.3-0.5,0.6-0.8,1.1-1.1s1-0.4,1.6-0.4c0.4,0,0.9,0,1.3,0.1s0.7,0.2,1,0.3V63c0,0.8-0.2,1.4-0.7,1.9c-0.5,0.4-1.1,0.7-2,0.7
					c-0.6,0-1-0.1-1.4-0.2C417.4,65.2,417.1,65.1,416.9,64.9z M420.7,60.7v-2.3c-0.1,0-0.2-0.1-0.4-0.1c-0.2,0-0.4-0.1-0.8-0.1
					s-0.8,0.1-1.1,0.3c-0.3,0.2-0.5,0.4-0.7,0.7s-0.3,0.7-0.3,1.1c0,0.3,0.1,0.6,0.2,0.9c0.1,0.3,0.3,0.5,0.5,0.7s0.5,0.3,0.9,0.3
					s0.7-0.1,0.9-0.2c0.2-0.1,0.4-0.3,0.5-0.5C420.6,61.2,420.7,61,420.7,60.7z M428.9,63v-0.7c-0.2,0.3-0.5,0.5-0.8,0.6
					s-0.7,0.2-1,0.2s-0.6-0.1-0.9-0.2c-0.3-0.1-0.5-0.3-0.7-0.6s-0.3-0.6-0.3-1c0-0.6,0.2-1.1,0.6-1.4c0.4-0.4,1-0.5,1.8-0.5
					c0.2,0,0.4,0,0.5,0c0.2,0,0.4,0,0.5,0c0.2,0,0.3,0,0.3,0v-0.2c0-0.4-0.1-0.7-0.4-0.9c-0.2-0.2-0.6-0.3-1-0.3s-0.8,0.1-1,0.2
					c-0.2,0.1-0.5,0.2-0.6,0.3l-0.5-0.7c0.2-0.2,0.5-0.3,0.8-0.5c0.4-0.2,0.8-0.2,1.4-0.2c0.7,0,1.3,0.2,1.7,0.5
					c0.4,0.3,0.6,0.8,0.6,1.5v3.3c0,0.1,0,0.1,0,0.2c0,0.1,0,0.2,0,0.3h-1V63z M428.9,61v-0.6c0,0-0.1,0-0.3,0c-0.1,0-0.3,0-0.5,0
					s-0.3,0-0.5,0c-0.4,0-0.7,0.1-0.9,0.2c-0.2,0.1-0.4,0.3-0.4,0.4c-0.1,0.2-0.1,0.3-0.1,0.5c0,0.3,0.1,0.5,0.3,0.7
					c0.2,0.2,0.5,0.2,0.9,0.2c0.3,0,0.5-0.1,0.8-0.2c0.2-0.1,0.4-0.3,0.6-0.5C428.8,61.4,428.9,61.2,428.9,61z M437.6,63v-0.7
					c-0.1,0.1-0.2,0.2-0.3,0.3c-0.1,0.1-0.3,0.3-0.6,0.4c-0.2,0.1-0.6,0.2-0.9,0.2c-0.5,0-0.9-0.1-1.3-0.3s-0.7-0.6-0.9-1
					s-0.3-0.9-0.3-1.5c0-0.5,0.1-1,0.3-1.4c0.2-0.4,0.4-0.7,0.7-0.9c0.3-0.2,0.6-0.4,0.9-0.5s0.7-0.2,0.9-0.2c0.3,0,0.6,0,0.8,0.1
					c0.2,0.1,0.4,0.2,0.7,0.3V55h1.1v7.4c0,0,0,0.1,0,0.2c0,0.1,0,0.2,0,0.3L437.6,63L437.6,63z M437.6,60.6v-2
					c-0.1-0.1-0.3-0.2-0.6-0.3c-0.2-0.1-0.5-0.1-0.8-0.1c-0.5,0-1,0.2-1.3,0.6c-0.3,0.4-0.5,0.9-0.5,1.5c0,0.4,0.1,0.7,0.2,1
					s0.3,0.5,0.5,0.7s0.5,0.3,0.9,0.3s0.7-0.1,0.9-0.3c0.2-0.2,0.4-0.4,0.5-0.6C437.5,61.1,437.6,60.9,437.6,60.6z M444.6,61.5
					l0.6,0.6c-0.1,0.1-0.2,0.2-0.4,0.4c-0.2,0.2-0.5,0.3-0.8,0.4c-0.3,0.1-0.7,0.2-1.2,0.2c-0.6,0-1.1-0.1-1.5-0.4
					c-0.4-0.3-0.8-0.6-1-1.1s-0.4-1-0.4-1.6c0-0.5,0.1-1,0.3-1.5c0.2-0.4,0.6-0.8,1-1c0.4-0.3,0.9-0.4,1.5-0.4s1.2,0.2,1.6,0.5
					s0.7,0.7,0.9,1.2c0.2,0.5,0.3,1,0.3,1.6H441c0,0.3,0.1,0.6,0.3,0.9c0.2,0.3,0.4,0.5,0.7,0.6c0.3,0.1,0.6,0.2,0.9,0.2
					c0.5,0,0.9-0.1,1.2-0.2C444.3,61.8,444.5,61.7,444.6,61.5z M441,59.7h3.3c0-0.4-0.2-0.8-0.5-1.1s-0.7-0.5-1.2-0.5
					c-0.3,0-0.6,0.1-0.9,0.2c-0.2,0.2-0.4,0.3-0.6,0.6C441.1,59.2,441,59.5,441,59.7z M450.8,61.5l0.7,0.7c-0.2,0.3-0.6,0.5-0.9,0.7
					c-0.4,0.2-0.8,0.3-1.3,0.3c-0.6,0-1.1-0.1-1.6-0.4c-0.4-0.3-0.8-0.6-1-1s-0.4-1-0.4-1.5s0.1-1,0.4-1.5c0.2-0.4,0.6-0.8,1-1.1
					s1-0.4,1.5-0.4s0.9,0.1,1.2,0.3c0.4,0.2,0.7,0.4,0.9,0.7l-0.7,0.7c-0.2-0.2-0.4-0.4-0.6-0.5s-0.5-0.2-0.9-0.2s-0.7,0.1-1,0.3
					s-0.5,0.4-0.6,0.7s-0.2,0.6-0.2,1c0,0.3,0.1,0.7,0.2,1c0.2,0.3,0.4,0.6,0.6,0.7c0.3,0.2,0.6,0.3,1,0.3c0.3,0,0.6-0.1,0.9-0.2
					C450.4,61.9,450.6,61.7,450.8,61.5z M452.5,56.4v-1.2h1.2v1.2H452.5z M452.6,63v-5.6h1.1V63H452.6z M454.9,62.3l0.7-0.7
					c0.2,0.2,0.4,0.4,0.7,0.5c0.3,0.1,0.6,0.2,1,0.2s0.7-0.1,0.9-0.2c0.2-0.1,0.4-0.3,0.4-0.6c0-0.2,0-0.3-0.1-0.4s-0.3-0.2-0.5-0.3
					s-0.6-0.2-1-0.3c-0.3-0.1-0.6-0.2-0.8-0.3c-0.3-0.1-0.5-0.3-0.7-0.5s-0.3-0.5-0.3-0.9s0.1-0.7,0.3-0.9c0.2-0.2,0.5-0.4,0.8-0.6
					c0.3-0.1,0.7-0.2,1.1-0.2c0.5,0,0.9,0.1,1.2,0.2c0.3,0.1,0.6,0.3,0.9,0.5l-0.6,0.7c-0.2-0.2-0.4-0.3-0.6-0.4
					c-0.2-0.1-0.5-0.2-0.9-0.2c-0.3,0-0.6,0.1-0.8,0.2s-0.3,0.3-0.3,0.6c0,0.2,0.1,0.4,0.4,0.5s0.6,0.2,1.1,0.3
					c0.4,0.1,0.7,0.2,0.9,0.3c0.3,0.1,0.5,0.3,0.7,0.5s0.3,0.5,0.3,0.9s-0.1,0.7-0.3,0.9c-0.2,0.2-0.5,0.4-0.9,0.6
					c-0.4,0.1-0.7,0.2-1.1,0.2C456.2,63.2,455.4,62.9,454.9,62.3z M460.8,56.4v-1.2h1.2v1.2H460.8z M460.9,63v-5.6h1.1V63H460.9z
					 M466.2,63.2c-0.6,0-1.1-0.1-1.5-0.4c-0.4-0.3-0.8-0.6-1.1-1.1c-0.2-0.5-0.4-1-0.4-1.5s0.1-1,0.4-1.5c0.3-0.4,0.6-0.8,1.1-1.1
					c0.4-0.3,1-0.4,1.5-0.4s1.1,0.1,1.5,0.4c0.4,0.3,0.8,0.6,1.1,1.1c0.3,0.4,0.4,0.9,0.4,1.5c0,0.5-0.1,1-0.4,1.5
					c-0.3,0.4-0.6,0.8-1.1,1.1C467.3,63,466.8,63.2,466.2,63.2z M466.2,62.2c0.4,0,0.7-0.1,1-0.3s0.5-0.5,0.6-0.8
					c0.2-0.3,0.2-0.6,0.2-1c0-0.3-0.1-0.7-0.2-1s-0.4-0.6-0.6-0.8c-0.3-0.2-0.6-0.3-1-0.3s-0.7,0.1-1,0.3s-0.5,0.4-0.6,0.8
					c-0.1,0.3-0.2,0.6-0.2,1c0,0.3,0.1,0.7,0.2,1c0.2,0.3,0.4,0.6,0.6,0.8C465.5,62.1,465.8,62.2,466.2,62.2z M471.5,63h-1.1v-5
					c0-0.1,0-0.1,0-0.2c0-0.1,0-0.2,0-0.4h1v0.8c0.1-0.1,0.2-0.3,0.4-0.4c0.2-0.2,0.4-0.3,0.6-0.4c0.2-0.1,0.5-0.2,0.9-0.2
					c0.7,0,1.3,0.2,1.6,0.6c0.4,0.4,0.5,1,0.5,1.7V63h-1.1v-3.3c0-0.5-0.1-0.9-0.3-1.1c-0.2-0.2-0.5-0.4-0.9-0.4s-0.7,0.1-1,0.3
					c-0.2,0.2-0.4,0.5-0.5,0.8s-0.1,0.7-0.1,1V63z M477,63v-1.3h1.4V63H477z"/>
			</g>
		</g>
	</g>
</g>
</svg>
