<svg width="117" height="30" viewBox="0 0 117 30" fill="none" xmlns="http://www.w3.org/2000/svg">
<rect width="116.878" height="29.2511" rx="3.75035" fill="white"/>
<path d="M7.50085 19.8877H16.8767" stroke="#DC1928" stroke-width="0.902279" stroke-linecap="round"/>
<path d="M7.72644 15.0762L12.1888 17.9735L16.7492 15.0762" stroke="#DC1928" stroke-width="0.902279" stroke-linecap="round"/>
<path d="M12.181 9.36328V17.9738" stroke="#DC1928" stroke-width="0.902279" stroke-linecap="round"/>
<path d="M25.0793 9.39598H28.5113C31.0853 9.39598 32.9833 10.956 32.9833 14.011C32.9833 17.053 31.0853 18.626 28.5113 18.626H25.0793V9.39598ZM28.3553 10.722H26.6783V17.3H28.3553C30.2533 17.3 31.3453 16.299 31.3453 14.011C31.3453 11.723 30.2533 10.722 28.3553 10.722ZM33.8732 15.246C33.8732 13.101 35.1602 11.71 37.0842 11.71C38.9952 11.71 40.2952 13.101 40.2952 15.246C40.2952 17.391 38.9952 18.782 37.0842 18.782C35.1602 18.782 33.8732 17.391 33.8732 15.246ZM38.7352 14.96C38.7352 13.673 38.0722 12.932 37.0842 12.932C36.0832 12.932 35.4332 13.673 35.4332 14.96V15.519C35.4332 16.806 36.0832 17.56 37.0842 17.56C38.0722 17.56 38.7352 16.806 38.7352 15.519V14.96ZM48.4102 18.626H46.7722L45.4722 14.141L44.2372 18.626H42.5212L40.6622 11.866H42.1832L43.4442 16.78L44.7962 11.866H46.1352L47.5652 16.78L48.8132 11.866H50.2562L48.4102 18.626ZM52.5539 14.453V18.626H51.0199V11.866H52.5539V12.659H52.6059C53.0479 12.074 53.6069 11.71 54.5039 11.71C55.8429 11.71 56.7009 12.698 56.7009 14.219V18.626H55.1669V14.349C55.1669 13.569 54.8289 13.01 53.9449 13.01C53.0349 13.01 52.5539 13.66 52.5539 14.453ZM60.0965 18.626C58.8745 18.626 58.1725 17.924 58.1725 16.819V9.00598H59.7065V16.689C59.7065 17.131 59.8755 17.391 60.3565 17.391H60.8115V18.626H60.0965ZM61.548 15.246C61.548 13.101 62.835 11.71 64.759 11.71C66.67 11.71 67.97 13.101 67.97 15.246C67.97 17.391 66.67 18.782 64.759 18.782C62.835 18.782 61.548 17.391 61.548 15.246ZM66.41 14.96C66.41 13.673 65.747 12.932 64.759 12.932C63.758 12.932 63.108 13.673 63.108 14.96V15.519C63.108 16.806 63.758 17.56 64.759 17.56C65.747 17.56 66.41 16.806 66.41 15.519V14.96ZM72.9507 17.729C72.5997 18.327 71.9237 18.782 70.9487 18.782C69.6747 18.782 68.7907 18.015 68.7907 16.767C68.7907 15.441 69.7917 14.934 70.8837 14.791L72.3007 14.609C72.8467 14.544 72.9637 14.323 72.9637 13.894C72.9637 13.283 72.5997 12.841 71.7807 12.841C70.9617 12.841 70.5457 13.296 70.4937 13.946H68.9207C68.9597 12.815 69.9087 11.71 71.7417 11.71C73.4967 11.71 74.4977 12.737 74.4977 14.232V17.469C74.4977 17.885 74.5627 18.301 74.6277 18.626H73.0547C73.0157 18.366 72.9897 18.08 72.9897 17.729H72.9507ZM72.9767 15.129C72.7557 15.337 72.4697 15.441 72.1187 15.506L71.4427 15.662C70.7537 15.805 70.3377 16.078 70.3377 16.702C70.3377 17.339 70.7147 17.664 71.4167 17.664C72.2617 17.664 72.9767 17.092 72.9767 16.195V15.129ZM80.4109 17.716C80.0339 18.34 79.2799 18.782 78.3959 18.782C76.7709 18.782 75.6139 17.391 75.6139 15.246C75.6139 13.101 76.7709 11.71 78.3959 11.71C79.2799 11.71 80.0339 12.152 80.4109 12.776H80.4629V9.00598H81.9969V18.626H80.4629V17.716H80.4109ZM77.1739 15.506C77.1739 16.832 77.7849 17.56 78.8249 17.56C79.7869 17.56 80.4629 16.793 80.4629 15.597V14.895C80.4629 13.699 79.7869 12.932 78.8249 12.932C77.7849 12.932 77.1739 13.673 77.1739 14.999V15.506ZM87.5026 14.453V18.626H85.9686V11.866H87.5026V12.659H87.5546C87.9966 12.074 88.5556 11.71 89.4526 11.71C90.7916 11.71 91.6496 12.698 91.6496 14.219V18.626H90.1156V14.349C90.1156 13.569 89.7776 13.01 88.8936 13.01C87.9836 13.01 87.5026 13.66 87.5026 14.453ZM92.7962 15.246C92.7962 13.101 94.0832 11.71 96.0072 11.71C97.9182 11.71 99.2182 13.101 99.2182 15.246C99.2182 17.391 97.9182 18.782 96.0072 18.782C94.0832 18.782 92.7962 17.391 92.7962 15.246ZM97.6582 14.96C97.6582 13.673 96.9952 12.932 96.0072 12.932C95.0062 12.932 94.3562 13.673 94.3562 14.96V15.519C94.3562 16.806 95.0062 17.56 96.0072 17.56C96.9952 17.56 97.6582 16.806 97.6582 15.519V14.96ZM107.333 18.626H105.695L104.395 14.141L103.16 18.626H101.444L99.5852 11.866H101.106L102.367 16.78L103.719 11.866H105.058L106.488 16.78L107.736 11.866H109.179L107.333 18.626Z" fill="#DC1928"/>
</svg>
