<?xml version="1.0" encoding="utf-8"?>
<!-- Generator: Adobe Illustrator 27.7.0, SVG Export Plug-In . SVG Version: 6.00 Build 0)  -->
<svg version="1.1" id="Layer_1" xmlns="http://www.w3.org/2000/svg" xmlns:xlink="http://www.w3.org/1999/xlink" x="0px" y="0px"
	 viewBox="0 0 112 35.4" style="enable-background:new 0 0 112 35.4;" xml:space="preserve">
<style type="text/css">
	.st0{fill:#FFD000;}
</style>
<path class="st0" d="M1.2,15.1V0.4h10.2v3.4H5.1v2.8H10v3.2H5.1v5.2H1.2z M13,15.1V0.4h3.9v14.7H13z M19.3,15.1V0.4h3.5l5.6,8.2V0.4
	h3.8v14.7H29l-5.9-8.4v8.4H19.3z M33.5,15.1l5.4-14.7h4.5l5.2,14.7h-4.2l-0.9-3h-4.9l-1,3H33.5z M39.3,9.2h3.3L41,3.8L39.3,9.2z
	 M49.8,15.1V0.4h3.5l5.6,8.2V0.4h3.9v14.7h-3.3l-5.9-8.4v8.4H49.8z M76.2,9.9l2.6,2.5c-1.6,2.1-3.8,3.1-6.5,3.1c-1.5,0-2.8-0.3-4-1
	c-1.1-0.7-2-1.6-2.7-2.7c-0.6-1.2-1-2.5-1-4c0-1.5,0.3-2.8,1-4c0.6-1.2,1.5-2.1,2.7-2.8c1.1-0.7,2.5-1,4-1c1.3,0,2.4,0.2,3.5,0.6
	c1.1,0.4,2,1.2,2.8,2.2L76,5.5c-0.4-0.6-0.9-1-1.5-1.3c-0.6-0.3-1.2-0.5-2-0.5c-0.8,0-1.5,0.2-2.1,0.6c-0.6,0.4-1,0.8-1.3,1.5
	c-0.3,0.6-0.5,1.3-0.5,2c0,0.8,0.2,1.5,0.5,2.1c0.3,0.6,0.8,1.1,1.4,1.5c0.6,0.4,1.3,0.5,2,0.5c0.9,0,1.6-0.2,2.1-0.5
	S75.7,10.5,76.2,9.9z M80,15.1V0.4h3.9v14.7H80z M85.1,15.1l5.4-14.7h4.5l5.2,14.7h-4.2L95,12h-4.9l-1,3H85.1z M90.9,9.2h3.3
	l-1.6-5.4L90.9,9.2z M101.3,15.1V0.4h3.9v11.2h6.8v3.4H101.3z M0,35.1l5.4-14.7h4.5L15,35.1h-4.2l-0.9-3H5l-1,3H0z M5.8,29.2h3.3
	l-1.6-5.4L5.8,29.2z M16.2,35.1V20.4h5.6c1.5,0,2.9,0.3,4,0.8c1.2,0.5,2.1,1.3,2.8,2.4c0.7,1.1,1,2.5,1,4.2c0,1.6-0.3,3-1,4
	c-0.7,1.1-1.6,1.9-2.8,2.4c-1.2,0.5-2.5,0.8-4,0.8H16.2z M20.1,31.6h1.6c1.3,0,2.2-0.4,2.9-1.1c0.7-0.7,1.1-1.7,1.1-2.8
	c0-1.2-0.3-2.1-1-2.8c-0.6-0.7-1.7-1.1-3-1.1h-1.6V31.6z M34.8,35.1l-5.3-14.7h4.2L37,30.6l3.1-10.2h4.2l-5.3,14.7H34.8z M45.5,35.1
	V20.4h3.9v14.7H45.5z M62.7,29.9l2.6,2.5c-1.6,2.1-3.8,3.1-6.5,3.1c-1.5,0-2.8-0.3-4-1c-1.1-0.7-2-1.6-2.7-2.7c-0.6-1.2-1-2.5-1-4
	s0.3-2.8,1-4c0.6-1.2,1.5-2.1,2.7-2.8c1.1-0.7,2.5-1,4-1c1.3,0,2.4,0.2,3.5,0.6c1.1,0.4,2,1.2,2.8,2.2l-2.6,2.6
	c-0.4-0.6-0.9-1-1.5-1.3c-0.6-0.3-1.2-0.5-2-0.5c-0.8,0-1.5,0.2-2.1,0.5c-0.6,0.4-1,0.8-1.3,1.5c-0.3,0.6-0.5,1.3-0.5,2
	c0,0.8,0.2,1.5,0.5,2.1c0.3,0.6,0.8,1.1,1.4,1.5c0.6,0.4,1.3,0.5,2,0.5c0.9,0,1.6-0.2,2.1-0.5C61.7,31,62.2,30.5,62.7,29.9z
	 M66.6,35.1V20.4h10.6v3.4h-6.7V26h5.5v3.2h-5.5v2.5h7.1v3.4H66.6z M82.1,30.1V30c0-0.7,0.1-1.3,0.2-1.7c0.2-0.5,0.4-0.8,0.6-1.1
	c0.3-0.3,0.5-0.6,0.8-0.8c0.4-0.3,0.7-0.6,1-0.8c0.3-0.2,0.5-0.6,0.5-1c0-0.3-0.1-0.6-0.3-0.7c-0.2-0.2-0.4-0.3-0.7-0.4
	c-0.2-0.1-0.5-0.1-0.7-0.1c-0.5,0-1,0.1-1.5,0.4s-0.9,0.6-1.3,0.9l-2.2-2.6c0.6-0.7,1.4-1.2,2.3-1.6c0.9-0.4,1.9-0.6,3.1-0.6
	c0.9,0,1.7,0.1,2.5,0.4s1.4,0.8,1.8,1.4c0.5,0.6,0.7,1.5,0.7,2.5c0,0.9-0.2,1.5-0.5,2c-0.4,0.5-0.7,0.9-1.1,1.2
	c-0.3,0.2-0.6,0.5-0.9,0.7c-0.3,0.2-0.5,0.5-0.7,0.7c-0.2,0.3-0.3,0.6-0.3,1.1v0.1H82.1z M81.9,35.1v-3.7h3.8v3.7H81.9z"/>
</svg>
