<?xml version="1.0" encoding="utf-8"?>
<!-- Generator: Adobe Illustrator 27.7.0, SVG Export Plug-In . SVG Version: 6.00 Build 0)  -->
<svg version="1.1" id="Layer_1" xmlns="http://www.w3.org/2000/svg" xmlns:xlink="http://www.w3.org/1999/xlink" x="0px" y="0px"
	 viewBox="0 0 110.3 35.4" style="enable-background:new 0 0 110.3 35.4;" xml:space="preserve">
<style type="text/css">
	.st0{fill:#FFFFFF;}
</style>
<path class="st0" d="M1.2,15.1V0.4h3.9v5.4h5.4V0.4h3.9v14.7h-3.9V9.3H5.1v5.7H1.2z M23.9,15.4c-1.1,0-2.1-0.2-3.1-0.6
	c-0.9-0.4-1.7-0.9-2.4-1.6c-0.7-0.7-1.2-1.5-1.6-2.5s-0.6-2-0.6-3.1s0.2-2.1,0.6-3.1s0.9-1.8,1.6-2.4c0.7-0.7,1.5-1.2,2.4-1.6
	c0.9-0.4,2-0.6,3.1-0.6s2.1,0.2,3,0.6c0.9,0.4,1.8,0.9,2.4,1.6c0.7,0.7,1.2,1.5,1.6,2.4c0.4,0.9,0.6,2,0.6,3.1s-0.2,2.1-0.6,3.1
	c-0.4,0.9-0.9,1.8-1.6,2.5c-0.7,0.7-1.5,1.2-2.4,1.6C26,15.2,25,15.4,23.9,15.4z M23.9,11.8c0.8,0,1.4-0.2,2-0.6
	c0.5-0.4,1-0.9,1.2-1.5c0.3-0.6,0.4-1.3,0.4-2s-0.1-1.4-0.4-2s-0.7-1.1-1.2-1.5c-0.5-0.4-1.2-0.6-2-0.6c-0.8,0-1.4,0.2-2,0.6
	C21.4,4.5,21,5,20.7,5.7c-0.3,0.6-0.4,1.3-0.4,2s0.1,1.4,0.4,2c0.3,0.6,0.7,1.1,1.2,1.5C22.5,11.6,23.1,11.8,23.9,11.8z M32,13.3
	l2.4-2.8c0.4,0.4,0.9,0.8,1.6,1.1c0.7,0.3,1.4,0.5,2.2,0.5c0.4,0,0.8-0.1,1.1-0.2c0.4-0.2,0.6-0.5,0.6-0.9c0-0.4-0.2-0.7-0.6-0.9
	c-0.4-0.3-1-0.5-1.7-0.7l-0.8-0.3c-0.6-0.2-1.2-0.5-1.8-0.8c-0.6-0.4-1.1-0.8-1.5-1.3c-0.4-0.5-0.6-1.2-0.6-2c0-0.9,0.2-1.7,0.6-2.4
	c0.4-0.7,1.1-1.3,1.9-1.7C36.3,0.2,37.3,0,38.5,0c1,0,1.8,0.1,2.5,0.3c0.7,0.2,1.3,0.5,1.8,0.8c0.5,0.3,0.8,0.6,1,0.8l-2,2.5
	c-0.5-0.4-1-0.7-1.6-0.9c-0.6-0.2-1.1-0.4-1.7-0.4c-0.4,0-0.7,0.1-1.1,0.3c-0.3,0.2-0.5,0.4-0.5,0.9c0,0.5,0.2,0.8,0.6,1
	c0.4,0.2,0.9,0.4,1.6,0.6l0.7,0.2c0.5,0.1,1,0.3,1.5,0.6c0.5,0.2,1,0.5,1.4,0.9c0.4,0.4,0.8,0.8,1,1.3c0.3,0.5,0.4,1.2,0.4,2
	c0,0.9-0.3,1.7-0.8,2.4c-0.5,0.7-1.2,1.3-2.2,1.7c-0.9,0.4-1.9,0.6-3,0.6c-1.5,0-2.7-0.2-3.7-0.6C33.5,14.4,32.6,13.9,32,13.3z
	 M49.6,15.1V3.8H45V0.4H58v3.4h-4.5v11.3H49.6z M59.5,15.1V0.4h6c1.6,0,2.8,0.4,3.8,1.3c1,0.8,1.4,2,1.4,3.6c0,1-0.2,1.9-0.7,2.6
	c-0.4,0.7-1,1.3-1.8,1.7c-0.8,0.4-1.6,0.6-2.6,0.6h-2.3v4.9H59.5z M63.3,7.1h1.8c0.5,0,0.9-0.2,1.3-0.5s0.5-0.8,0.5-1.3
	c0-0.6-0.1-1-0.4-1.3c-0.3-0.3-0.7-0.5-1.3-0.5h-1.8V7.1z M72.4,15.1V0.4h3.9v11.2h6.8v3.4H72.4z M84.3,9.4v-9h3.9V9
	c0,0.8,0.2,1.5,0.6,2c0.4,0.5,1,0.8,1.9,0.8c0.9,0,1.5-0.3,1.8-0.8c0.4-0.5,0.6-1.2,0.6-2V0.4H97v9c0,1.2-0.3,2.3-0.8,3.3
	c-0.5,0.9-1.3,1.6-2.2,2.1c-0.9,0.5-2,0.7-3.3,0.7c-1.2,0-2.3-0.2-3.3-0.7c-1-0.5-1.7-1.2-2.2-2.1C84.6,11.7,84.3,10.6,84.3,9.4z
	 M98.1,13.3l2.4-2.8c0.4,0.4,0.9,0.8,1.6,1.1c0.7,0.3,1.4,0.5,2.2,0.5c0.4,0,0.8-0.1,1.1-0.2c0.4-0.2,0.6-0.5,0.6-0.9
	c0-0.4-0.2-0.7-0.6-0.9c-0.4-0.3-1-0.5-1.7-0.7l-0.8-0.3c-0.6-0.2-1.2-0.5-1.8-0.8c-0.6-0.4-1.1-0.8-1.5-1.3c-0.4-0.5-0.6-1.2-0.6-2
	c0-0.9,0.2-1.7,0.6-2.4c0.4-0.7,1.1-1.3,1.9-1.7c0.9-0.4,1.9-0.6,3.1-0.6c1,0,1.8,0.1,2.5,0.3c0.7,0.2,1.3,0.5,1.8,0.8
	s0.8,0.6,1,0.8l-2,2.5c-0.5-0.4-1-0.7-1.6-0.9c-0.6-0.2-1.1-0.4-1.7-0.4c-0.4,0-0.7,0.1-1.1,0.3c-0.3,0.2-0.5,0.4-0.5,0.9
	c0,0.5,0.2,0.8,0.6,1c0.4,0.2,0.9,0.4,1.6,0.6l0.7,0.2c0.5,0.1,1,0.3,1.5,0.6c0.5,0.2,1,0.5,1.4,0.9c0.4,0.4,0.8,0.8,1,1.3
	c0.3,0.5,0.4,1.2,0.4,2c0,0.9-0.3,1.7-0.8,2.4c-0.5,0.7-1.2,1.3-2.2,1.7c-0.9,0.4-1.9,0.6-3,0.6c-1.5,0-2.7-0.2-3.7-0.6
	C99.6,14.4,98.8,13.9,98.1,13.3z M0,35.1l5.4-14.7h4.5L15,35.1h-4.2l-0.9-3H5l-1,3H0z M5.8,29.2h3.3l-1.6-5.4L5.8,29.2z M16.2,35.1
	V20.4h5.6c1.5,0,2.9,0.3,4,0.8c1.2,0.5,2.1,1.3,2.8,2.4c0.7,1.1,1,2.5,1,4.2c0,1.6-0.3,3-1,4c-0.7,1.1-1.6,1.9-2.8,2.4
	c-1.2,0.5-2.5,0.8-4,0.8H16.2z M20.1,31.6h1.6c1.3,0,2.2-0.4,2.9-1.1c0.7-0.7,1.1-1.7,1.1-2.8c0-1.2-0.3-2.1-1-2.8
	c-0.6-0.7-1.7-1.1-3-1.1h-1.6V31.6z M34.8,35.1l-5.3-14.7h4.2L37,30.6l3.1-10.2h4.2l-5.3,14.7H34.8z M45.5,35.1V20.4h3.9v14.7H45.5z
	 M62.7,29.9l2.6,2.5c-1.6,2.1-3.8,3.1-6.5,3.1c-1.5,0-2.8-0.3-4-1c-1.1-0.7-2-1.6-2.7-2.7c-0.6-1.2-1-2.5-1-4c0-1.5,0.3-2.8,1-4
	c0.6-1.2,1.5-2.1,2.7-2.8c1.1-0.7,2.5-1,4-1c1.3,0,2.4,0.2,3.5,0.6c1.1,0.4,2,1.2,2.8,2.2l-2.6,2.6c-0.4-0.6-0.9-1-1.5-1.3
	c-0.6-0.3-1.2-0.5-2-0.5c-0.8,0-1.5,0.2-2.1,0.5c-0.6,0.4-1,0.8-1.3,1.5c-0.3,0.6-0.5,1.3-0.5,2c0,0.8,0.2,1.5,0.5,2.1
	c0.3,0.6,0.8,1.1,1.4,1.5c0.6,0.4,1.3,0.5,2,0.5c0.9,0,1.6-0.2,2.1-0.5S62.2,30.5,62.7,29.9z M66.6,35.1V20.4h10.6v3.4h-6.7V26h5.5
	v3.2h-5.5v2.5h7.1v3.4H66.6z"/>
</svg>
