<?xml version="1.0" encoding="utf-8"?>
<!-- Generator: Adobe Illustrator 27.7.0, SVG Export Plug-In . SVG Version: 6.00 Build 0)  -->
<svg version="1.1" id="Layer_1" xmlns="http://www.w3.org/2000/svg" xmlns:xlink="http://www.w3.org/1999/xlink" x="0px" y="0px"
	 viewBox="0 0 110.7 55.4" style="enable-background:new 0 0 110.7 55.4;" xml:space="preserve">
<style type="text/css">
	.st0{fill:#FFD000;}
</style>
<path class="st0" d="M1.2,15.1V0.4h10.2v3.4H5.1v2.8H10v3.2H5.1v5.2H1.2z M13,15.1V0.4h3.9v14.7H13z M22.9,15.1V3.8h-4.5V0.4h12.9
	v3.4h-4.5v11.3H22.9z M31.7,13.3l2.4-2.8c0.4,0.4,0.9,0.8,1.6,1.1c0.7,0.3,1.4,0.5,2.2,0.5c0.4,0,0.8-0.1,1.1-0.2
	c0.4-0.2,0.6-0.5,0.6-0.9c0-0.4-0.2-0.7-0.6-0.9c-0.4-0.3-1-0.5-1.7-0.7l-0.8-0.3c-0.6-0.2-1.2-0.5-1.8-0.8
	c-0.6-0.4-1.1-0.8-1.5-1.3c-0.4-0.5-0.6-1.2-0.6-2c0-0.9,0.2-1.7,0.6-2.4c0.4-0.7,1.1-1.3,1.9-1.7C36,0.2,37,0,38.2,0
	c1,0,1.8,0.1,2.5,0.3c0.7,0.2,1.3,0.5,1.8,0.8c0.5,0.3,0.8,0.6,1,0.8l-2,2.5c-0.5-0.4-1-0.7-1.6-0.9c-0.6-0.2-1.1-0.4-1.7-0.4
	c-0.4,0-0.7,0.1-1.1,0.3c-0.3,0.2-0.5,0.4-0.5,0.9c0,0.5,0.2,0.8,0.6,1c0.4,0.2,0.9,0.4,1.6,0.6L39.5,6c0.5,0.1,1,0.3,1.5,0.6
	c0.5,0.2,1,0.5,1.4,0.9s0.8,0.8,1,1.3c0.3,0.5,0.4,1.2,0.4,2c0,0.9-0.3,1.7-0.8,2.4c-0.5,0.7-1.2,1.3-2.2,1.6
	c-0.9,0.4-1.9,0.6-3,0.6c-1.5,0-2.7-0.2-3.7-0.6C33.2,14.4,32.3,13.9,31.7,13.3z M49.4,15.1V0.4h3.9v14.7H49.4z M55.7,15.1V0.4h3.5
	l5.6,8.2V0.4h3.8v14.7h-3.3l-5.9-8.4v8.4H55.7z M74.8,15.1V3.8h-4.5V0.4h12.9v3.4h-4.5v11.3H74.8z M91.1,15.4
	c-1.1,0-2.1-0.2-3.1-0.6c-0.9-0.4-1.7-0.9-2.4-1.6c-0.7-0.7-1.2-1.5-1.6-2.5c-0.4-0.9-0.6-2-0.6-3.1s0.2-2.1,0.6-3.1
	c0.4-0.9,0.9-1.8,1.6-2.4C86.3,1.5,87.1,1,88,0.6C89,0.2,90,0,91.1,0s2.1,0.2,3,0.6c0.9,0.4,1.8,0.9,2.4,1.6
	c0.7,0.7,1.2,1.5,1.6,2.4c0.4,0.9,0.6,2,0.6,3.1s-0.2,2.1-0.6,3.1c-0.4,0.9-0.9,1.8-1.6,2.5c-0.7,0.7-1.5,1.2-2.4,1.6
	C93.2,15.2,92.2,15.4,91.1,15.4z M91.1,11.8c0.8,0,1.4-0.2,2-0.5c0.5-0.4,1-0.9,1.2-1.5c0.3-0.6,0.4-1.3,0.4-2c0-0.7-0.1-1.4-0.4-2
	C94,5,93.6,4.5,93.1,4.2c-0.5-0.4-1.2-0.5-2-0.5c-0.8,0-1.4,0.2-2,0.5c-0.5,0.4-0.9,0.9-1.2,1.5c-0.3,0.6-0.4,1.3-0.4,2
	c0,0.7,0.1,1.4,0.4,2c0.3,0.6,0.7,1.1,1.2,1.5C89.7,11.6,90.3,11.8,91.1,11.8z M5.3,35.1v-5.9l-5.2-8.8h4.5l2.9,5.2l2.7-5.2h4.3
	l-5.2,8.8v5.9H5.3z M21.2,35.4c-1.1,0-2.1-0.2-3.1-0.6c-0.9-0.4-1.7-0.9-2.4-1.6c-0.7-0.7-1.2-1.5-1.6-2.5c-0.4-0.9-0.6-2-0.6-3.1
	s0.2-2.1,0.6-3.1c0.4-0.9,0.9-1.8,1.6-2.4c0.7-0.7,1.5-1.2,2.4-1.6c0.9-0.4,2-0.6,3.1-0.6s2.1,0.2,3,0.6c0.9,0.4,1.8,0.9,2.4,1.6
	c0.7,0.7,1.2,1.5,1.6,2.4c0.4,0.9,0.6,2,0.6,3.1s-0.2,2.1-0.6,3.1c-0.4,0.9-0.9,1.8-1.6,2.5c-0.7,0.7-1.5,1.2-2.4,1.6
	C23.3,35.2,22.3,35.4,21.2,35.4z M21.2,31.8c0.8,0,1.4-0.2,2-0.5c0.5-0.4,1-0.9,1.2-1.5c0.3-0.6,0.4-1.3,0.4-2c0-0.7-0.1-1.4-0.4-2
	c-0.3-0.6-0.7-1.1-1.2-1.5c-0.5-0.4-1.2-0.6-2-0.6c-0.8,0-1.4,0.2-2,0.6c-0.5,0.4-0.9,0.9-1.2,1.5c-0.3,0.6-0.4,1.3-0.4,2
	c0,0.7,0.1,1.4,0.4,2c0.3,0.6,0.7,1.1,1.2,1.5C19.8,31.6,20.4,31.8,21.2,31.8z M30.6,29.3v-9h3.9V29c0,0.8,0.2,1.5,0.5,2
	c0.4,0.5,1,0.8,1.9,0.8c0.9,0,1.5-0.3,1.8-0.8c0.4-0.5,0.5-1.2,0.5-2v-8.6h3.9v9c0,1.2-0.3,2.3-0.8,3.3c-0.5,0.9-1.3,1.6-2.2,2.1
	c-0.9,0.5-2,0.7-3.3,0.7c-1.2,0-2.3-0.2-3.3-0.7c-1-0.5-1.7-1.2-2.2-2.1C30.9,31.7,30.6,30.6,30.6,29.3z M45.6,35.1V20.4h6.1
	c1.6,0,2.8,0.4,3.8,1.2c1,0.8,1.4,2,1.4,3.6c0,1-0.2,1.8-0.6,2.5c-0.4,0.7-1,1.3-1.7,1.7l3.1,5.6h-4.2l-2.5-5h-1.6v5H45.6z M49.4,27
	h1.9c0.5,0,0.9-0.2,1.3-0.5c0.3-0.3,0.5-0.7,0.5-1.3c0-0.6-0.2-1-0.5-1.3c-0.3-0.3-0.7-0.5-1.3-0.5h-1.9V27z M0,53.3l2.4-2.8
	c0.4,0.4,0.9,0.8,1.6,1.1c0.7,0.3,1.4,0.5,2.2,0.5c0.4,0,0.8-0.1,1.1-0.2c0.4-0.2,0.5-0.5,0.5-0.9c0-0.4-0.2-0.7-0.6-0.9
	c-0.4-0.3-1-0.5-1.7-0.7l-0.8-0.3c-0.6-0.2-1.2-0.5-1.8-0.8c-0.6-0.4-1.1-0.8-1.5-1.3c-0.4-0.5-0.6-1.2-0.6-2c0-0.9,0.2-1.7,0.6-2.4
	C2,41.6,2.6,41,3.5,40.6C4.3,40.2,5.3,40,6.6,40c1,0,1.8,0.1,2.5,0.3c0.7,0.2,1.3,0.5,1.8,0.8c0.5,0.3,0.8,0.6,1,0.8l-2,2.5
	c-0.5-0.4-1-0.7-1.6-0.9c-0.6-0.2-1.1-0.4-1.7-0.4c-0.4,0-0.7,0.1-1.1,0.3C5.1,43.5,5,43.8,5,44.2c0,0.5,0.2,0.8,0.6,1
	c0.4,0.2,0.9,0.4,1.6,0.6l0.7,0.2c0.5,0.1,1,0.3,1.5,0.6c0.5,0.2,1,0.5,1.4,0.9c0.4,0.4,0.8,0.8,1,1.3c0.3,0.5,0.4,1.2,0.4,2
	c0,0.9-0.3,1.7-0.8,2.4c-0.5,0.7-1.2,1.3-2.2,1.7c-0.9,0.4-1.9,0.6-3,0.6c-1.5,0-2.7-0.2-3.7-0.6C1.5,54.4,0.7,53.9,0,53.3z
	 M24.9,49.9l2.6,2.5c-1.6,2.1-3.8,3.1-6.5,3.1c-1.5,0-2.8-0.3-4-1c-1.1-0.7-2-1.6-2.7-2.7c-0.6-1.2-1-2.5-1-4s0.3-2.8,1-4
	c0.6-1.2,1.5-2.1,2.7-2.8s2.5-1,4-1c1.3,0,2.4,0.2,3.5,0.6c1.1,0.4,2,1.2,2.8,2.2l-2.6,2.6c-0.4-0.6-0.9-1-1.5-1.3
	c-0.6-0.3-1.2-0.5-2-0.5c-0.8,0-1.5,0.2-2.1,0.5c-0.6,0.4-1,0.8-1.3,1.5c-0.3,0.6-0.5,1.3-0.5,2c0,0.8,0.2,1.5,0.5,2.1
	c0.3,0.6,0.8,1.1,1.4,1.5c0.6,0.4,1.3,0.5,2,0.5c0.9,0,1.6-0.2,2.1-0.5C23.9,51,24.4,50.5,24.9,49.9z M28.8,55.1V40.4h3.9v5.4h5.4
	v-5.4H42v14.7h-3.9v-5.7h-5.4v5.7H28.8z M44.4,55.1V40.4h10.6v3.4h-6.7V46h5.5v3.2h-5.5v2.5h7.1v3.4H44.4z M57.2,55.1V40.4h5.6
	c1.5,0,2.9,0.3,4,0.8c1.2,0.5,2.1,1.3,2.8,2.4c0.7,1.1,1,2.5,1,4.2c0,1.6-0.3,3-1,4c-0.7,1.1-1.6,1.9-2.8,2.4
	c-1.2,0.5-2.5,0.8-4,0.8H57.2z M61.1,51.6h1.6c1.3,0,2.2-0.4,2.9-1.1c0.7-0.7,1.1-1.7,1.1-2.8c0-1.2-0.3-2.1-1-2.8
	c-0.6-0.7-1.7-1.1-3-1.1h-1.6V51.6z M72.5,49.3v-9h3.9V49c0,0.8,0.2,1.5,0.6,2c0.4,0.5,1,0.8,1.9,0.8c0.9,0,1.5-0.3,1.8-0.8
	c0.4-0.5,0.5-1.2,0.5-2v-8.6h3.9v9c0,1.2-0.3,2.3-0.8,3.3c-0.5,0.9-1.3,1.6-2.2,2.1c-0.9,0.5-2,0.7-3.3,0.7s-2.3-0.2-3.3-0.7
	s-1.7-1.2-2.2-2.1C72.7,51.7,72.5,50.6,72.5,49.3z M87.4,55.1V40.4h3.9v11.2h6.8v3.4H87.4z M99.7,55.1V40.4h10.6v3.4h-6.7V46h5.5
	v3.2h-5.5v2.5h7.1v3.4H99.7z"/>
</svg>
