<svg width="156" height="39" viewBox="0 0 156 39" fill="none" xmlns="http://www.w3.org/2000/svg">
<path d="M28.3118 22.03V14.96H29.3898C31.7418 14.96 32.7218 16.262 32.7218 18.418V18.53C32.7218 20.742 31.6438 22.03 29.4038 22.03H28.3118ZM26.4498 23.5H29.4598C32.9738 23.5 34.6678 21.428 34.6678 18.516V18.39C34.6678 15.478 32.9738 13.49 29.4878 13.49H26.4498V23.5ZM39.5239 23.64C41.3999 23.64 42.6459 22.8 42.8839 21.26H41.2459C41.1199 21.974 40.5879 22.38 39.5659 22.38C38.3059 22.38 37.6059 21.596 37.5499 20.21H42.9119V19.72C42.9119 17.102 41.2739 16.024 39.4539 16.024C37.3679 16.024 35.8139 17.536 35.8139 19.804V19.916C35.8139 22.226 37.3679 23.64 39.5239 23.64ZM37.5779 19.076C37.7459 17.942 38.4319 17.256 39.4539 17.256C40.5039 17.256 41.1479 17.816 41.2319 19.076H37.5779ZM46.9994 23.64C48.8754 23.64 49.9254 22.786 49.9254 21.302C49.9254 19.748 48.9034 19.328 47.1814 19.062C46.0194 18.866 45.6694 18.656 45.6694 18.124C45.6694 17.606 46.1034 17.256 46.8314 17.256C47.6154 17.256 47.9934 17.564 48.1334 18.236H49.7014C49.5194 16.584 48.3294 16.024 46.8314 16.024C45.4594 16.024 44.0874 16.752 44.0874 18.222C44.0874 19.594 44.8014 20.14 46.7334 20.448C47.8114 20.63 48.3014 20.854 48.3014 21.456C48.3014 22.072 47.8954 22.394 46.9854 22.394C45.9914 22.394 45.6134 21.96 45.5294 21.218H43.9334C44.0034 22.772 45.1094 23.64 46.9994 23.64ZM54.6173 23.64C56.6053 23.64 57.8793 22.45 58.0053 20.77H56.4513C56.3533 21.806 55.5833 22.338 54.6873 22.338C53.4413 22.338 52.6573 21.498 52.6573 19.902V19.79C52.6573 18.278 53.4833 17.382 54.6453 17.382C55.5413 17.382 56.1853 17.788 56.3253 18.768H57.9633C57.7673 16.752 56.2413 16.024 54.6173 16.024C52.5733 16.024 50.9213 17.494 50.9213 19.818V19.93C50.9213 22.268 52.5173 23.64 54.6173 23.64ZM61.9141 23.64C63.1041 23.64 63.8741 23.066 64.2381 22.352V23.5H65.9321V16.178H64.2381V20.532C64.2381 21.694 63.4401 22.282 62.5301 22.282C61.5501 22.282 61.0881 21.778 61.0881 20.672V16.178H59.3941V20.868C59.3941 22.814 60.4721 23.64 61.9141 23.64ZM72.0286 23.64C73.9186 23.64 75.2766 22.212 75.2766 19.86V19.748C75.2766 17.382 73.8626 16.024 72.0286 16.024C70.9506 16.024 70.0406 16.654 69.6346 17.354V12.79H67.9406V23.5H69.6346V22.324C70.0266 23.066 70.8666 23.64 72.0286 23.64ZM71.6086 22.296C70.3766 22.296 69.5786 21.526 69.5786 19.888V19.776C69.5786 18.152 70.4186 17.354 71.5946 17.354C72.7006 17.354 73.5406 18.152 73.5406 19.776V19.888C73.5406 21.456 72.8546 22.296 71.6086 22.296ZM76.8 23.5H78.494V19.692C78.494 18.138 79.39 17.662 80.874 17.648V16.066C79.642 16.08 78.956 16.626 78.494 17.55V16.178H76.8V23.5ZM85.4477 23.64C87.3237 23.64 88.5697 22.8 88.8077 21.26H87.1697C87.0437 21.974 86.5117 22.38 85.4897 22.38C84.2297 22.38 83.5297 21.596 83.4737 20.21H88.8357V19.72C88.8357 17.102 87.1977 16.024 85.3777 16.024C83.2917 16.024 81.7377 17.536 81.7377 19.804V19.916C81.7377 22.226 83.2917 23.64 85.4477 23.64ZM83.5017 19.076C83.6697 17.942 84.3557 17.256 85.3777 17.256C86.4277 17.256 87.0717 17.816 87.1557 19.076H83.5017ZM96.8908 23.64C98.8788 23.64 100.153 22.45 100.279 20.77H98.7248C98.6268 21.806 97.8568 22.338 96.9608 22.338C95.7148 22.338 94.9308 21.498 94.9308 19.902V19.79C94.9308 18.278 95.7568 17.382 96.9188 17.382C97.8148 17.382 98.4588 17.788 98.5988 18.768H100.237C100.041 16.752 98.5148 16.024 96.8908 16.024C94.8468 16.024 93.1948 17.494 93.1948 19.818V19.93C93.1948 22.268 94.7908 23.64 96.8908 23.64ZM104.299 15.086H105.545L107.001 12.916H105.125L104.299 15.086ZM105.013 22.324C103.725 22.324 102.983 21.386 102.983 19.888V19.776C102.983 18.264 103.753 17.354 105.013 17.354C106.273 17.354 107.029 18.278 107.029 19.79V19.888C107.029 21.386 106.273 22.324 105.013 22.324ZM104.999 23.64C107.155 23.64 108.765 22.156 108.765 19.874V19.762C108.765 17.522 107.155 16.024 105.013 16.024C102.857 16.024 101.247 17.536 101.247 19.804V19.916C101.247 22.142 102.843 23.64 104.999 23.64ZM110.296 23.5H111.99V19.118C111.99 17.998 112.76 17.438 113.6 17.438C114.426 17.438 114.902 17.9 114.902 18.978V23.5H116.596V19.118C116.596 17.998 117.366 17.438 118.206 17.438C119.046 17.438 119.508 17.9 119.508 18.978V23.5H121.202V18.866C121.202 16.85 120.11 16.024 118.766 16.024C117.856 16.024 116.848 16.43 116.288 17.34C115.924 16.43 115.168 16.024 114.216 16.024C113.138 16.024 112.34 16.612 111.99 17.298V16.178H110.296V23.5ZM126.424 22.324C125.136 22.324 124.394 21.386 124.394 19.888V19.776C124.394 18.264 125.164 17.354 126.424 17.354C127.684 17.354 128.44 18.278 128.44 19.79V19.888C128.44 21.386 127.684 22.324 126.424 22.324ZM126.41 23.64C128.566 23.64 130.176 22.156 130.176 19.874V19.762C130.176 17.522 128.566 16.024 126.424 16.024C124.268 16.024 122.658 17.536 122.658 19.804V19.916C122.658 22.142 124.254 23.64 126.41 23.64Z" fill="#DD5900"/>
<rect x="0.5" y="0.5" width="155" height="38" rx="3.5" stroke="#DD5900"/>
</svg>
