<?xml version="1.0" encoding="utf-8"?>
<!-- Generator: Adobe Illustrator 27.7.0, SVG Export Plug-In . SVG Version: 6.00 Build 0)  -->
<svg version="1.1" id="Layer_1" xmlns="http://www.w3.org/2000/svg" xmlns:xlink="http://www.w3.org/1999/xlink" x="0px" y="0px"
	 viewBox="0 0 161 58" style="enable-background:new 0 0 161 58;" xml:space="preserve">
<path d="M5.4,54.7c-2.8,0-4.8-1.8-4.8-4.8v-0.1c0-2.9,2-4.9,4.7-4.9c2.3,0,4.4,1.4,4.4,4.8v0.6H2.9c0.1,1.8,1,2.8,2.6,2.8
	c1.3,0,2-0.5,2.2-1.4h2.1C9.4,53.6,7.8,54.7,5.4,54.7z M2.9,48.8h4.7c-0.1-1.6-0.9-2.3-2.3-2.3C4,46.5,3.2,47.4,2.9,48.8z
	 M11.4,54.5v-9.4h2.2v1.5c0.4-0.9,1.5-1.7,3-1.7c1.9,0,3.2,1.1,3.2,3.7v5.9h-2.2v-5.7c0-1.4-0.6-2.1-1.9-2.1c-1.2,0-2.2,0.8-2.2,2.2
	v5.5H11.4z M26.1,54.7c-2.8,0-4.8-1.8-4.8-4.8v-0.1c0-2.9,2-4.9,4.7-4.9c2.3,0,4.4,1.4,4.4,4.8v0.6h-6.9c0.1,1.8,1,2.8,2.6,2.8
	c1.3,0,2-0.5,2.2-1.4h2.1C30.1,53.6,28.5,54.7,26.1,54.7z M23.6,48.8h4.7c-0.1-1.6-0.9-2.3-2.3-2.3C24.7,46.5,23.8,47.4,23.6,48.8z
	 M32,54.5v-9.4h2.2v1.8c0.6-1.2,1.5-1.9,3.1-1.9v2c-1.9,0-3.1,0.6-3.1,2.6v4.9H32z M42.7,58c-3,0-4.3-1.3-4.5-3.1h2.2
	c0.2,0.9,0.9,1.5,2.3,1.5c1.7,0,2.6-0.8,2.6-2.5v-1.4c-0.5,0.9-1.7,1.7-3.1,1.7c-2.4,0-4.2-1.8-4.2-4.5v-0.1c0-2.6,1.8-4.6,4.2-4.6
	c1.5,0,2.5,0.7,3,1.6v-1.4h2.2v8.7C47.5,56.6,45.6,58,42.7,58z M42.8,52.4c1.5,0,2.6-1.1,2.6-2.9v-0.1c0-1.8-1-2.8-2.5-2.8
	c-1.6,0-2.6,1.2-2.6,2.9v0.1C40.3,51.4,41.4,52.4,42.8,52.4z M52.8,43.7l1.1-2.8h2.4l-1.9,2.8H52.8z M53.8,54.7
	c-2.8,0-4.8-1.8-4.8-4.8v-0.1c0-2.9,2-4.9,4.7-4.9c2.3,0,4.4,1.4,4.4,4.8v0.6h-6.9c0.1,1.8,1,2.8,2.6,2.8c1.3,0,2-0.5,2.2-1.4h2.1
	C57.9,53.6,56.3,54.7,53.8,54.7z M51.3,48.8H56c-0.1-1.6-0.9-2.3-2.3-2.3C52.4,46.5,51.6,47.4,51.3,48.8z M63,54.7
	c-1.9,0-2.8-1-2.8-2.8v-5.1h-1.3v-1.6h1.3V43h2.2v2.1h2.1v1.6h-2.1v5c0,0.8,0.4,1.2,1.1,1.2c0.4,0,0.8-0.1,1.1-0.2v1.7
	C64.1,54.6,63.7,54.7,63,54.7z M66.1,54.5v-9.4h2.2v9.4H66.1z M67.2,43.5c-0.7,0-1.3-0.5-1.3-1.2c0-0.7,0.6-1.3,1.3-1.3
	s1.3,0.5,1.3,1.3C68.5,43,67.9,43.5,67.2,43.5z M74.7,54.7c-2.7,0-4.8-1.8-4.8-4.8v-0.1c0-3,2.1-4.9,4.8-4.9c2.1,0,4.1,0.9,4.3,3.5
	h-2.1c-0.2-1.3-1-1.8-2.2-1.8c-1.5,0-2.6,1.2-2.6,3.1v0.1c0,2.1,1,3.1,2.6,3.1c1.2,0,2.1-0.7,2.3-2h2C78.9,53.2,77.3,54.7,74.7,54.7
	z M83.1,54.7c-1.7,0-3.2-0.8-3.2-2.8c0-2.2,2.1-3,4.8-3h1.2v-0.5c0-1.3-0.4-1.9-1.7-1.9c-1.1,0-1.7,0.5-1.8,1.5h-2.1
	c0.2-2.2,1.9-3.1,4-3.1c2.1,0,3.8,0.9,3.8,3.4v6.2h-2.1v-1.2C85.3,54.2,84.5,54.7,83.1,54.7z M83.6,53.1c1.3,0,2.3-0.7,2.3-1.9v-0.9
	h-1.1c-1.7,0-2.7,0.4-2.7,1.5C82.1,52.6,82.5,53.1,83.6,53.1z M91.5,54.6c-0.8,0-1.4-0.6-1.4-1.4s0.6-1.4,1.4-1.4
	c0.8,0,1.4,0.6,1.4,1.4S92.3,54.6,91.5,54.6z"/>
</svg>
