<?xml version="1.0" encoding="utf-8"?>
<!-- Generator: Adobe Illustrator 27.7.0, SVG Export Plug-In . SVG Version: 6.00 Build 0)  -->
<svg version="1.1" id="Layer_1" xmlns="http://www.w3.org/2000/svg" xmlns:xlink="http://www.w3.org/1999/xlink" x="0px" y="0px"
	 viewBox="0 0 161 58" style="enable-background:new 0 0 161 58;" xml:space="preserve">
<path d="M1.3,37.7V25.1h2.2v1.5c0.5-0.9,1.7-1.7,3.1-1.7c2.4,0,4.2,1.7,4.2,4.8v0.1c0,3-1.7,4.9-4.2,4.9c-1.5,0-2.6-0.7-3.1-1.7v4.7
	H1.3z M6,33c1.6,0,2.5-1.1,2.5-3.1v-0.1c0-2.1-1.1-3.1-2.5-3.1c-1.5,0-2.6,1-2.6,3.1v0.1C3.4,32,4.4,33,6,33z M14.8,34.7
	c-1.7,0-3.1-0.8-3.1-2.8c0-2.2,2.1-3,4.8-3h1.2v-0.5c0-1.3-0.4-1.9-1.7-1.9c-1.1,0-1.7,0.5-1.8,1.5H12c0.2-2.2,1.9-3.1,4-3.1
	s3.8,0.9,3.8,3.4v6.2h-2.1v-1.2C17.1,34.2,16.2,34.7,14.8,34.7z M15.3,33.1c1.3,0,2.3-0.7,2.3-1.9v-0.9h-1.1c-1.7,0-2.7,0.4-2.7,1.5
	C13.8,32.6,14.2,33.1,15.3,33.1z M22,34.5v-9.4h2.2v1.8c0.6-1.2,1.5-1.9,3.1-1.9v2c-1.9,0-3.1,0.6-3.1,2.6v4.9H22z M31,34.7
	c-1.7,0-3.1-0.8-3.1-2.8c0-2.2,2.1-3,4.8-3h1.2v-0.5c0-1.3-0.4-1.9-1.7-1.9c-1.1,0-1.7,0.5-1.8,1.5h-2.1c0.2-2.2,1.9-3.1,4-3.1
	s3.8,0.9,3.8,3.4v6.2h-2.1v-1.2C33.3,34.2,32.5,34.7,31,34.7z M31.6,33.1c1.3,0,2.3-0.7,2.3-1.9v-0.9h-1.1c-1.7,0-2.7,0.4-2.7,1.5
	C30,32.6,30.5,33.1,31.6,33.1z M44.6,34.7c-1.7,0-3.2-0.8-3.2-2.8c0-2.2,2.1-3,4.8-3h1.2v-0.5c0-1.3-0.4-1.9-1.7-1.9
	c-1.1,0-1.7,0.5-1.8,1.5h-2.1c0.2-2.2,1.9-3.1,4-3.1c2.1,0,3.8,0.9,3.8,3.4v6.2h-2.1v-1.2C46.9,34.2,46,34.7,44.6,34.7z M45.1,33.1
	c1.3,0,2.3-0.7,2.3-1.9v-0.9h-1.1c-1.7,0-2.7,0.4-2.7,1.5C43.6,32.6,44,33.1,45.1,33.1z M58.9,34.7c-1.9,0-2.8-1-2.8-2.8v-5.1h-1.3
	v-1.6H56V23h2.2v2.1h2.1v1.6h-2.1v4.9c0,0.8,0.4,1.2,1.1,1.2c0.4,0,0.8-0.1,1.1-0.2v1.7C60,34.6,59.5,34.7,58.9,34.7z M62,34.5v-9.4
	h2.2v1.8c0.6-1.2,1.5-1.9,3.1-1.9v2c-1.9,0-3.1,0.6-3.1,2.6v4.9H62z M71,34.7c-1.7,0-3.2-0.8-3.2-2.8c0-2.2,2.1-3,4.8-3h1.2v-0.5
	c0-1.3-0.4-1.9-1.7-1.9c-1.1,0-1.7,0.5-1.8,1.5h-2.1c0.2-2.2,1.9-3.1,4-3.1c2.1,0,3.8,0.9,3.8,3.4v6.2h-2.1v-1.2
	C73.3,34.2,72.5,34.7,71,34.7z M71.6,33.1c1.3,0,2.3-0.7,2.3-1.9v-0.9h-1.1c-1.7,0-2.7,0.4-2.7,1.5C70.1,32.6,70.5,33.1,71.6,33.1z
	 M78.2,34.5v-9.4h2.2v1.5c0.5-0.9,1.5-1.7,3-1.7c1.9,0,3.2,1.1,3.2,3.7v5.9h-2.2v-5.7c0-1.4-0.6-2.1-1.9-2.1c-1.2,0-2.2,0.8-2.2,2.2
	v5.5H78.2z M92,34.7c-2.4,0-3.9-1.1-3.9-3.1h2.1c0.1,1,0.6,1.5,1.9,1.5c1.2,0,1.7-0.4,1.7-1.2c0-0.8-0.6-1.1-2-1.3
	c-2.5-0.4-3.4-1.1-3.4-2.9c0-1.9,1.8-2.8,3.5-2.8c1.9,0,3.5,0.7,3.7,2.8h-2c-0.2-0.9-0.7-1.3-1.7-1.3c-0.9,0-1.5,0.5-1.5,1.1
	c0,0.7,0.5,1,1.9,1.2c2.2,0.3,3.5,0.9,3.5,2.9C95.8,33.6,94.4,34.7,92,34.7z M97.4,34.5v-9.4h2.2v9.4H97.4z M98.4,23.5
	c-0.7,0-1.3-0.5-1.3-1.2c0-0.7,0.6-1.3,1.3-1.3c0.7,0,1.3,0.5,1.3,1.3C99.7,23,99.2,23.5,98.4,23.5z M105.7,38.4
	c-1.1,0-1.9-0.6-2-1.6h1.2c0.1,0.3,0.3,0.6,0.7,0.6c0.4,0,0.7-0.3,0.7-0.6c0-0.3-0.3-0.6-0.6-0.6c-0.3,0-0.4,0.1-0.5,0.2l-0.6-0.6
	l0.7-1.2c-2.3-0.3-4-2-4-4.7v-0.1c0-3,2.1-4.9,4.8-4.9c2.1,0,4.1,0.9,4.3,3.5h-2.1c-0.2-1.3-1-1.8-2.2-1.8c-1.5,0-2.6,1.2-2.6,3.1
	v0.1c0,2.1,1,3.1,2.6,3.1c1.2,0,2.1-0.7,2.3-2h2c-0.2,2.1-1.7,3.6-4.1,3.7l-0.4,0.7c0.9-0.1,1.8,0.4,1.8,1.5
	C107.6,37.9,106.8,38.4,105.7,38.4z M114.3,34.7c-1.7,0-3.2-0.8-3.2-2.8c0-2.2,2.1-3,4.8-3h1.2v-0.5c0-1.3-0.4-1.9-1.7-1.9
	c-1.1,0-1.7,0.5-1.8,1.5h-2.1c0.2-2.2,1.9-3.1,4-3.1c2.1,0,3.8,0.9,3.8,3.4v6.2h-2.1v-1.2C116.6,34.2,115.8,34.7,114.3,34.7z
	 M114.8,33.1c1.3,0,2.3-0.7,2.3-1.9v-0.9H116c-1.7,0-2.7,0.4-2.7,1.5C113.3,32.6,113.8,33.1,114.8,33.1z M116.6,23.6
	c-0.9,0-1.5-0.7-2-0.7c-0.3,0-0.6,0.3-0.7,0.7h-1.3c0.1-1.5,0.9-2.4,1.9-2.4c0.8,0,1.5,0.7,2,0.7c0.3,0,0.6-0.3,0.6-0.7h1.3
	C118.4,22.7,117.6,23.6,116.6,23.6z M125.7,33c1.6,0,2.6-1.2,2.6-3.1v-0.1c0-1.9-1-3.1-2.6-3.1c-1.6,0-2.6,1.2-2.6,3.1v0.1
	C123.1,31.8,124,33,125.7,33z M125.7,34.7c-2.8,0-4.8-1.9-4.8-4.8v-0.1c0-2.9,2.1-4.9,4.8-4.9c2.8,0,4.8,1.9,4.8,4.8v0.1
	C130.5,32.8,128.4,34.7,125.7,34.7z"/>
</svg>
