<?xml version="1.0" encoding="utf-8"?>
<!-- Generator: Adobe Illustrator 27.7.0, SVG Export Plug-In . SVG Version: 6.00 Build 0)  -->
<svg version="1.1" id="Layer_1" xmlns="http://www.w3.org/2000/svg" xmlns:xlink="http://www.w3.org/1999/xlink" x="0px" y="0px"
	 viewBox="0 0 107.6 50" style="enable-background:new 0 0 107.6 50;" xml:space="preserve">
<style type="text/css">
	.st0{fill:#FFFFFF;}
</style>
<path class="st0" d="M0.8,13.7V0.4H4l5.1,7.4V0.4h3.5v13.3h-3L4.3,6v7.7H0.8z M21.3,14c-1,0-1.9-0.2-2.8-0.5
	c-0.8-0.3-1.6-0.8-2.2-1.5c-0.6-0.6-1.1-1.4-1.4-2.2C14.5,8.9,14.3,8,14.3,7s0.2-1.9,0.5-2.8c0.3-0.9,0.8-1.6,1.4-2.2
	c0.6-0.6,1.4-1.1,2.2-1.5C19.3,0.2,20.3,0,21.3,0s1.9,0.2,2.8,0.5c0.9,0.3,1.6,0.8,2.2,1.5c0.6,0.6,1.1,1.4,1.4,2.2
	C28,5.1,28.2,6,28.2,7S28,8.9,27.7,9.8c-0.3,0.9-0.8,1.6-1.4,2.2c-0.6,0.6-1.4,1.1-2.2,1.5C23.2,13.8,22.3,14,21.3,14z M21.3,10.7
	c0.7,0,1.3-0.2,1.8-0.5c0.5-0.3,0.9-0.8,1.1-1.3c0.3-0.6,0.4-1.2,0.4-1.9c0-0.7-0.1-1.3-0.4-1.9c-0.3-0.6-0.6-1-1.1-1.3
	c-0.5-0.3-1.1-0.5-1.8-0.5c-0.7,0-1.3,0.2-1.8,0.5c-0.5,0.3-0.9,0.8-1.1,1.3C18.1,5.7,18,6.3,18,7c0,0.7,0.1,1.3,0.4,1.9
	c0.3,0.6,0.6,1,1.1,1.3C20,10.5,20.6,10.7,21.3,10.7z M36.6,13.7V3.5h-4.1V0.4h11.7v3.1h-4.1v10.2H36.6z M45.6,13.7V0.4h3.5v13.3
	H45.6z M51.1,13.7l0.6-13.3h3.4l3.2,5.8l3.2-5.8h3.4l0.6,13.3h-3.6l-0.3-7.8l-2.3,4.6h-1.9l-2.6-4.6l-0.3,7.8H51.1z M67.5,13.7V0.4
	h9.6v3.1H71v2.1h5v2.9h-5v2.3h6.5v3.1H67.5z M85.8,13.7V3.5h-4.1V0.4h11.7v3.1h-4.1v10.2H85.8z M100.7,14c-1,0-1.9-0.2-2.8-0.5
	c-0.8-0.3-1.6-0.8-2.2-1.5c-0.6-0.6-1.1-1.4-1.4-2.2S93.7,8,93.7,7s0.2-1.9,0.5-2.8s0.8-1.6,1.4-2.2c0.6-0.6,1.4-1.1,2.2-1.5
	c0.9-0.3,1.8-0.5,2.8-0.5s1.9,0.2,2.8,0.5c0.9,0.3,1.6,0.8,2.2,1.5c0.6,0.6,1.1,1.4,1.4,2.2c0.3,0.9,0.5,1.8,0.5,2.8
	s-0.2,1.9-0.5,2.8c-0.3,0.9-0.8,1.6-1.4,2.2c-0.6,0.6-1.4,1.1-2.2,1.5C102.6,13.8,101.7,14,100.7,14z M100.7,10.7
	c0.7,0,1.3-0.2,1.8-0.5c0.5-0.3,0.9-0.8,1.1-1.3S104,7.7,104,7c0-0.7-0.1-1.3-0.4-1.9c-0.3-0.6-0.6-1-1.1-1.3
	c-0.5-0.3-1.1-0.5-1.8-0.5c-0.7,0-1.3,0.2-1.8,0.5c-0.5,0.3-0.9,0.8-1.1,1.3c-0.3,0.6-0.4,1.2-0.4,1.9c0,0.7,0.1,1.3,0.4,1.9
	c0.3,0.6,0.6,1,1.1,1.3C99.4,10.5,100,10.7,100.7,10.7z M0.8,31.7V18.4h3.5v4.9h4.9v-4.9h3.5v13.3H9.3v-5.2H4.3v5.2H0.8z M21.4,32
	c-1,0-1.9-0.2-2.8-0.5c-0.8-0.3-1.6-0.8-2.2-1.5c-0.6-0.6-1.1-1.4-1.4-2.2c-0.3-0.9-0.5-1.8-0.5-2.8c0-1,0.2-1.9,0.5-2.8
	c0.3-0.9,0.8-1.6,1.4-2.2c0.6-0.6,1.4-1.1,2.2-1.5c0.9-0.3,1.8-0.5,2.8-0.5s1.9,0.2,2.8,0.5c0.9,0.3,1.6,0.8,2.2,1.5
	c0.6,0.6,1.1,1.4,1.4,2.2c0.3,0.9,0.5,1.8,0.5,2.8c0,1-0.2,1.9-0.5,2.8c-0.3,0.9-0.8,1.6-1.4,2.2c-0.6,0.6-1.4,1.1-2.2,1.5
	C23.3,31.8,22.4,32,21.4,32z M21.4,28.7c0.7,0,1.3-0.2,1.8-0.5c0.5-0.3,0.9-0.8,1.1-1.3c0.3-0.6,0.4-1.2,0.4-1.9s-0.1-1.3-0.4-1.9
	c-0.3-0.6-0.6-1-1.1-1.3c-0.5-0.3-1.1-0.5-1.8-0.5c-0.7,0-1.3,0.2-1.8,0.5c-0.5,0.3-0.9,0.8-1.1,1.3c-0.3,0.6-0.4,1.2-0.4,1.9
	s0.1,1.3,0.4,1.9c0.3,0.6,0.6,1,1.1,1.3C20.1,28.5,20.7,28.7,21.4,28.7z M30,31.7V18.4h5.4c1.4,0,2.6,0.4,3.4,1.1
	c0.9,0.7,1.3,1.8,1.3,3.3c0,0.9-0.2,1.7-0.6,2.4c-0.4,0.7-0.9,1.2-1.6,1.6c-0.7,0.4-1.5,0.5-2.4,0.5h-2.1v4.4H30z M33.5,24.5h1.7
	c0.5,0,0.9-0.2,1.1-0.5c0.3-0.3,0.4-0.7,0.4-1.2c0-0.5-0.1-0.9-0.4-1.2c-0.3-0.3-0.7-0.5-1.2-0.5h-1.7V24.5z M41.8,31.7V18.4h9.6
	v3.1h-6.1v2.1h5v2.9h-5v2.3h6.5v3.1H41.8z M56.8,31.7V18.4h9.3v3.1h-5.8V24h4.5V27h-4.5v4.7H56.8z M73.4,32c-1,0-1.9-0.2-2.8-0.5
	c-0.8-0.3-1.6-0.8-2.2-1.5c-0.6-0.6-1.1-1.4-1.4-2.2c-0.3-0.9-0.5-1.8-0.5-2.8c0-1,0.2-1.9,0.5-2.8c0.3-0.9,0.8-1.6,1.4-2.2
	c0.6-0.6,1.4-1.1,2.2-1.5c0.9-0.3,1.8-0.5,2.8-0.5s1.9,0.2,2.8,0.5c0.9,0.3,1.6,0.8,2.2,1.5c0.6,0.6,1.1,1.4,1.4,2.2
	c0.3,0.9,0.5,1.8,0.5,2.8c0,1-0.2,1.9-0.5,2.8c-0.3,0.9-0.8,1.6-1.4,2.2c-0.6,0.6-1.4,1.1-2.2,1.5C75.4,31.8,74.4,32,73.4,32z
	 M73.4,28.7c0.7,0,1.3-0.2,1.8-0.5c0.5-0.3,0.9-0.8,1.1-1.3c0.3-0.6,0.4-1.2,0.4-1.9s-0.1-1.3-0.4-1.9c-0.3-0.6-0.6-1-1.1-1.3
	c-0.5-0.3-1.1-0.5-1.8-0.5c-0.7,0-1.3,0.2-1.8,0.5c-0.5,0.3-0.9,0.8-1.1,1.3c-0.3,0.6-0.4,1.2-0.4,1.9s0.1,1.3,0.4,1.9
	c0.3,0.6,0.6,1,1.1,1.3C72.2,28.5,72.7,28.7,73.4,28.7z M82.1,31.7V18.4h5.5c1.4,0,2.6,0.4,3.4,1.1c0.9,0.7,1.3,1.8,1.3,3.3
	c0,0.9-0.2,1.6-0.6,2.3c-0.4,0.7-0.9,1.2-1.5,1.6l2.9,5.1h-3.8L87,27.2h-1.5v4.5H82.1z M85.5,24.4h1.7c0.5,0,0.8-0.1,1.1-0.4
	c0.3-0.3,0.4-0.7,0.4-1.2c0-0.5-0.1-0.9-0.4-1.2c-0.3-0.3-0.7-0.4-1.2-0.4h-1.7V24.4z M4.1,49.7V39.5H0v-3.1h11.7v3.1H7.7v10.2H4.1z
	 M13.1,49.7V36.4h3.5v4.9h4.9v-4.9h3.5v13.3h-3.5v-5.2h-4.9v5.2H13.1z M27.3,49.7V36.4h9.6v3.1h-6.1v2.1h5v2.9h-5v2.3h6.5v3.1H27.3z
	 M42.4,49.7V36.4h5.4c0.9,0,1.7,0.1,2.3,0.3c0.6,0.2,1.1,0.5,1.4,0.8c0.3,0.3,0.6,0.7,0.7,1.1c0.1,0.4,0.2,0.8,0.2,1.2
	c0,0.5-0.1,1-0.3,1.3c-0.2,0.4-0.5,0.7-0.8,0.9c-0.3,0.2-0.6,0.4-0.8,0.5c0.3,0.1,0.7,0.3,1.1,0.5c0.4,0.3,0.8,0.6,1.1,1.1
	c0.3,0.4,0.5,1,0.5,1.7c0,1.3-0.5,2.3-1.4,2.9c-0.9,0.6-2.3,0.9-4.1,0.9H42.4z M45.9,41.7h1.5c0.4,0,0.8-0.1,1.1-0.3
	c0.3-0.2,0.5-0.6,0.5-1.1c0-0.6-0.2-1-0.5-1.2c-0.3-0.2-0.7-0.3-1.1-0.3h-1.5V41.7z M45.9,47.2h1.8c0.3,0,0.6,0,0.9-0.1
	c0.3-0.1,0.6-0.2,0.8-0.4c0.2-0.2,0.3-0.6,0.3-1.1c0-0.5-0.1-0.8-0.3-1c-0.2-0.2-0.5-0.4-0.8-0.4c-0.3-0.1-0.6-0.1-0.9-0.1h-1.8
	V47.2z M54.9,49.7V36.4h9.6v3.1h-6.1v2.1h5v2.9h-5v2.3h6.5v3.1H54.9z M65.4,48.1l2.1-2.6c0.4,0.4,0.9,0.7,1.5,1
	c0.6,0.3,1.3,0.5,2,0.5c0.4,0,0.7-0.1,1-0.2c0.3-0.1,0.5-0.4,0.5-0.8c0-0.3-0.2-0.6-0.5-0.9c-0.4-0.2-0.9-0.5-1.5-0.7l-0.7-0.2
	c-0.5-0.2-1.1-0.4-1.6-0.7c-0.5-0.3-1-0.7-1.3-1.2c-0.3-0.5-0.5-1.1-0.5-1.8c0-0.8,0.2-1.6,0.6-2.2c0.4-0.7,1-1.2,1.8-1.5
	c0.8-0.4,1.7-0.6,2.8-0.6c0.9,0,1.6,0.1,2.3,0.3c0.7,0.2,1.2,0.4,1.6,0.7c0.4,0.3,0.7,0.5,0.9,0.7L74.4,40c-0.5-0.3-1-0.6-1.5-0.8
	c-0.5-0.2-1-0.3-1.6-0.3c-0.3,0-0.7,0.1-1,0.2c-0.3,0.1-0.5,0.4-0.5,0.8c0,0.4,0.2,0.7,0.6,0.9c0.4,0.2,0.8,0.4,1.4,0.6l0.6,0.2
	c0.5,0.1,0.9,0.3,1.4,0.5c0.5,0.2,0.9,0.5,1.3,0.8c0.4,0.3,0.7,0.7,0.9,1.2c0.2,0.5,0.4,1.1,0.4,1.8c0,0.8-0.2,1.5-0.7,2.2
	c-0.5,0.6-1.1,1.1-2,1.5C73,49.8,72.1,50,71.1,50c-1.3,0-2.5-0.2-3.4-0.5C66.8,49.1,66,48.6,65.4,48.1z M81.4,49.7V39.5h-4.1v-3.1
	h11.7v3.1H85v10.2H81.4z"/>
</svg>
