<svg width="87" height="26" viewBox="0 0 87 26" fill="none" xmlns="http://www.w3.org/2000/svg">
<path d="M10.7012 17.5V8.829H13.9512C14.6705 8.829 15.2425 8.93733 15.6672 9.154C16.1005 9.362 16.4125 9.63933 16.6032 9.986C16.7939 10.324 16.8892 10.6923 16.8892 11.091C16.8892 11.455 16.8069 11.767 16.6422 12.027C16.4862 12.287 16.3042 12.4907 16.0962 12.638C15.8969 12.7767 15.7279 12.8633 15.5892 12.898C15.6585 12.9153 15.7365 12.9413 15.8232 12.976C15.9185 13.0107 16.0139 13.0497 16.1092 13.093C16.4645 13.249 16.7592 13.4917 16.9932 13.821C17.2272 14.1503 17.3442 14.549 17.3442 15.017C17.3442 15.9097 17.0365 16.5467 16.4212 16.928C15.8145 17.3093 14.9912 17.5 13.9512 17.5H10.7012ZM12.6122 12.3H13.7692C14.0639 12.3 14.3325 12.2307 14.5752 12.092C14.8265 11.9447 14.9522 11.689 14.9522 11.325C14.9522 11.065 14.8915 10.8657 14.7702 10.727C14.6575 10.5883 14.5102 10.493 14.3282 10.441C14.1462 10.3803 13.9599 10.35 13.7692 10.35H12.6122V12.3ZM12.6122 15.992H13.8862C14.0769 15.992 14.2849 15.9703 14.5102 15.927C14.7442 15.875 14.9435 15.771 15.1082 15.615C15.2729 15.4503 15.3552 15.199 15.3552 14.861C15.3552 14.549 15.2729 14.3107 15.1082 14.146C14.9522 13.9813 14.7572 13.873 14.5232 13.821C14.2979 13.7603 14.0855 13.73 13.8862 13.73H12.6122V15.992ZM18.1306 14.445C18.1306 13.847 18.2693 13.301 18.5466 12.807C18.8239 12.313 19.2053 11.923 19.6906 11.637C20.1846 11.3423 20.7566 11.195 21.4066 11.195C22.0566 11.195 22.6243 11.3423 23.1096 11.637C23.6036 11.923 23.9849 12.313 24.2536 12.807C24.5309 13.301 24.6696 13.847 24.6696 14.445C24.6696 15.043 24.5309 15.589 24.2536 16.083C23.9849 16.577 23.6036 16.9713 23.1096 17.266C22.6243 17.5607 22.0566 17.708 21.4066 17.708C20.7566 17.708 20.1846 17.5607 19.6906 17.266C19.2053 16.9713 18.8239 16.577 18.5466 16.083C18.2693 15.589 18.1306 15.043 18.1306 14.445ZM21.4066 16.083C21.7273 16.083 21.9916 16.005 22.1996 15.849C22.4163 15.693 22.5809 15.4893 22.6936 15.238C22.8063 14.9867 22.8626 14.7223 22.8626 14.445C22.8626 14.1677 22.8063 13.9077 22.6936 13.665C22.5809 13.4137 22.4163 13.21 22.1996 13.054C21.9916 12.898 21.7273 12.82 21.4066 12.82C21.0946 12.82 20.8259 12.898 20.6006 13.054C20.3839 13.21 20.2193 13.4137 20.1066 13.665C19.9939 13.9077 19.9376 14.1677 19.9376 14.445C19.9376 14.7223 19.9939 14.9867 20.1066 15.238C20.2193 15.4893 20.3839 15.693 20.6006 15.849C20.8259 16.005 21.0946 16.083 21.4066 16.083ZM25.5066 14.445C25.5066 13.847 25.6452 13.301 25.9226 12.807C26.1999 12.313 26.5812 11.923 27.0666 11.637C27.5606 11.3423 28.1326 11.195 28.7826 11.195C29.4326 11.195 30.0002 11.3423 30.4856 11.637C30.9796 11.923 31.3609 12.313 31.6296 12.807C31.9069 13.301 32.0456 13.847 32.0456 14.445C32.0456 15.043 31.9069 15.589 31.6296 16.083C31.3609 16.577 30.9796 16.9713 30.4856 17.266C30.0002 17.5607 29.4326 17.708 28.7826 17.708C28.1326 17.708 27.5606 17.5607 27.0666 17.266C26.5812 16.9713 26.1999 16.577 25.9226 16.083C25.6452 15.589 25.5066 15.043 25.5066 14.445ZM28.7826 16.083C29.1032 16.083 29.3676 16.005 29.5756 15.849C29.7922 15.693 29.9569 15.4893 30.0696 15.238C30.1822 14.9867 30.2386 14.7223 30.2386 14.445C30.2386 14.1677 30.1822 13.9077 30.0696 13.665C29.9569 13.4137 29.7922 13.21 29.5756 13.054C29.3676 12.898 29.1032 12.82 28.7826 12.82C28.4706 12.82 28.2019 12.898 27.9766 13.054C27.7599 13.21 27.5952 13.4137 27.4826 13.665C27.3699 13.9077 27.3136 14.1677 27.3136 14.445C27.3136 14.7223 27.3699 14.9867 27.4826 15.238C27.5952 15.4893 27.7599 15.693 27.9766 15.849C28.2019 16.005 28.4706 16.083 28.7826 16.083ZM33.1556 17.5V8.829H35.0276V13.327L36.8866 11.403H39.0056L36.8216 13.652L39.3046 17.5H37.1336L35.5736 14.926L35.0276 15.485V17.5H33.1556ZM42.4488 17.5V11.403H44.2428L44.2948 12.066C44.4942 11.8233 44.7585 11.6283 45.0878 11.481C45.4172 11.3337 45.7552 11.26 46.1018 11.26C46.7952 11.26 47.3498 11.468 47.7658 11.884C48.1818 12.3 48.3898 12.9153 48.3898 13.73V17.5H46.5178V13.99C46.5178 13.652 46.4312 13.3833 46.2578 13.184C46.0932 12.9847 45.8592 12.885 45.5558 12.885C45.1485 12.885 44.8365 13.0193 44.6198 13.288C44.4118 13.5567 44.3078 13.8687 44.3078 14.224V17.5H42.4488ZM49.4626 14.445C49.4626 13.847 49.6013 13.301 49.8786 12.807C50.156 12.313 50.5373 11.923 51.0226 11.637C51.5166 11.3423 52.0886 11.195 52.7386 11.195C53.3886 11.195 53.9563 11.3423 54.4416 11.637C54.9356 11.923 55.317 12.313 55.5856 12.807C55.863 13.301 56.0016 13.847 56.0016 14.445C56.0016 15.043 55.863 15.589 55.5856 16.083C55.317 16.577 54.9356 16.9713 54.4416 17.266C53.9563 17.5607 53.3886 17.708 52.7386 17.708C52.0886 17.708 51.5166 17.5607 51.0226 17.266C50.5373 16.9713 50.156 16.577 49.8786 16.083C49.6013 15.589 49.4626 15.043 49.4626 14.445ZM52.7386 16.083C53.0593 16.083 53.3236 16.005 53.5316 15.849C53.7483 15.693 53.913 15.4893 54.0256 15.238C54.1383 14.9867 54.1946 14.7223 54.1946 14.445C54.1946 14.1677 54.1383 13.9077 54.0256 13.665C53.913 13.4137 53.7483 13.21 53.5316 13.054C53.3236 12.898 53.0593 12.82 52.7386 12.82C52.4266 12.82 52.158 12.898 51.9326 13.054C51.716 13.21 51.5513 13.4137 51.4386 13.665C51.326 13.9077 51.2696 14.1677 51.2696 14.445C51.2696 14.7223 51.326 14.9867 51.4386 15.238C51.5513 15.4893 51.716 15.693 51.9326 15.849C52.158 16.005 52.4266 16.083 52.7386 16.083ZM58.4035 17.5L56.3105 11.403H58.2345L59.3005 15.316L60.4835 11.403H61.9785L63.1745 15.316L64.2405 11.403H66.1255L64.0325 17.5H62.3425L61.1985 14.094L60.0675 17.5H58.4035Z" fill="#002855"/>
<path d="M71.7332 8.66797L76.0665 13.0013L71.7332 17.3346" stroke="#002855" stroke-width="1.81212" stroke-linecap="round"/>
</svg>
