<svg width="199" height="28" viewBox="0 0 199 28" fill="none" xmlns="http://www.w3.org/2000/svg">
<path d="M10.767 19.5823C14.6415 19.5823 17.081 16.6262 17.081 12.1777V11.9481C17.081 7.72921 14.7276 4.60091 10.7096 4.60091C6.6916 4.60091 4.3095 7.55701 4.3095 11.9768V12.2064C4.3095 16.6836 7.036 19.5823 10.767 19.5823ZM10.7096 22.6532C4.4243 22.6532 0.3202 18.1473 0.3202 12.2351V12.0055C0.3202 6.00721 4.6252 1.55871 10.7096 1.55871C16.8227 1.55871 21.0416 5.89241 21.0416 11.9194V12.149C21.0416 18.1473 16.9375 22.6532 10.7096 22.6532ZM30.7346 22.3662V9.96781H28.6969V7.35611H30.7346V5.34711C30.7346 2.04661 32.5714 0.267211 35.7858 0.267211C36.6181 0.267211 37.1347 0.353311 37.7661 0.55421V3.25201C37.3643 3.10851 36.819 2.99371 36.1876 2.99371C34.7813 2.99371 34.2073 3.91211 34.2073 5.20361V7.35611H37.6226V9.96781H34.2073V22.3662H30.7346ZM44.9785 22.6532C42.0224 22.6532 39.8125 20.9599 39.8125 16.9706V7.35611H43.2852V16.5688C43.2852 18.8361 44.2323 19.8693 46.2413 19.8693C48.1068 19.8693 49.7427 18.6639 49.7427 16.2818V7.35611H53.2154V22.3662H49.7427V20.0128C48.9965 21.4765 47.418 22.6532 44.9785 22.6532ZM61.8676 22.6245C58.8828 22.6245 57.333 21.0173 57.333 18.176V9.96781H55.324V7.35611H57.333V4.05561H60.8057V7.35611H64.1062V9.96781H60.8057V17.8603C60.8057 19.1805 61.4371 19.7832 62.5277 19.7832C63.2165 19.7832 63.7331 19.6971 64.221 19.4962V22.2514C63.6757 22.4523 62.9295 22.6245 61.8676 22.6245ZM71.8018 22.6532C68.8457 22.6532 66.6358 20.9599 66.6358 16.9706V7.35611H70.1085V16.5688C70.1085 18.8361 71.0556 19.8693 73.0646 19.8693C74.9301 19.8693 76.566 18.6639 76.566 16.2818V7.35611H80.0387V22.3662H76.566V20.0128C75.8198 21.4765 74.2413 22.6532 71.8018 22.6532ZM83.5823 22.3662V7.35611H87.055V10.1687C88.0021 8.27451 89.4084 7.15521 91.934 7.12651V10.3696C88.8918 10.3983 87.055 11.3741 87.055 14.5598V22.3662H83.5823ZM100.851 19.9554C103.434 19.9554 104.984 18.0325 104.984 14.9616V14.7607C104.984 11.6611 103.434 9.76691 100.851 9.76691C98.2679 9.76691 96.6894 11.6324 96.6894 14.732V14.9616C96.6894 18.0325 98.2105 19.9554 100.851 19.9554ZM100.822 22.6532C96.4024 22.6532 93.1306 19.5823 93.1306 15.019V14.7894C93.1306 10.14 96.4311 7.04041 100.851 7.04041C105.242 7.04041 108.543 10.1113 108.543 14.7033V14.9329C108.543 19.611 105.242 22.6532 100.822 22.6532ZM115.391 27.7618V25.0927C116.912 24.9779 117.457 24.2317 117.457 22.9689V7.35611H120.93V22.8828C120.93 25.925 119.552 27.7044 115.391 27.7618ZM119.15 4.88791C118.002 4.88791 117.084 4.02691 117.084 2.90761C117.084 1.75961 118.002 0.898611 119.15 0.898611C120.298 0.898611 121.217 1.75961 121.217 2.90761C121.217 4.02691 120.298 4.88791 119.15 4.88791ZM128.52 22.6532C125.765 22.6532 123.498 21.333 123.498 18.2047C123.498 14.7033 126.885 13.4405 131.19 13.4405H133.055V12.6656C133.055 10.6566 132.366 9.65211 130.329 9.65211C128.52 9.65211 127.631 10.5131 127.459 12.0055H124.101C124.388 8.50411 127.172 7.04041 130.529 7.04041C133.887 7.04041 136.528 8.41801 136.528 12.5221V22.3662H133.112V20.5294C132.137 21.8209 130.816 22.6532 128.52 22.6532ZM129.353 20.1563C131.477 20.1563 133.055 19.037 133.055 17.1141V15.6217H131.276C128.635 15.6217 126.942 16.2244 126.942 18.0612C126.942 19.324 127.631 20.1563 129.353 20.1563ZM129.094 5.11751L130.788 0.669011H134.634L131.649 5.11751H129.094ZM152.8 22.6532C148.38 22.6532 145.194 19.7545 145.194 15.019V14.7894C145.194 10.14 148.38 7.04041 152.656 7.04041C156.387 7.04041 159.745 9.25031 159.745 14.6172V15.6217H148.753C148.868 18.463 150.303 20.0702 152.886 20.0702C154.981 20.0702 156.072 19.2379 156.33 17.7742H159.688C159.2 20.9312 156.646 22.6532 152.8 22.6532ZM148.81 13.297H156.301C156.129 10.714 154.809 9.56601 152.656 9.56601C150.561 9.56601 149.155 10.9723 148.81 13.297ZM167.55 22.6532C163.676 22.6532 161.409 20.8738 161.265 17.6881H164.537C164.709 19.2092 165.484 20.0989 167.522 20.0989C169.387 20.0989 170.219 19.4388 170.219 18.176C170.219 16.9419 169.215 16.4827 167.005 16.1096C163.044 15.4782 161.581 14.3589 161.581 11.5463C161.581 8.53281 164.393 7.04041 167.206 7.04041C170.277 7.04041 172.716 8.18841 173.089 11.575H169.875C169.588 10.1974 168.813 9.56601 167.206 9.56601C165.714 9.56601 164.824 10.2835 164.824 11.3454C164.824 12.436 165.541 12.8665 167.923 13.2683C171.454 13.8136 173.549 14.6746 173.549 17.8603C173.549 20.9025 171.396 22.6532 167.55 22.6532ZM181.13 22.6245C178.145 22.6245 176.595 21.0173 176.595 18.176V9.96781H174.586V7.35611H176.595V4.05561H180.068V7.35611H183.368V9.96781H180.068V17.8603C180.068 19.1805 180.699 19.7832 181.79 19.7832C182.478 19.7832 182.995 19.6971 183.483 19.4962V22.2514C182.938 22.4523 182.191 22.6245 181.13 22.6245ZM190.113 22.6532C187.358 22.6532 185.091 21.333 185.091 18.2047C185.091 14.7033 188.477 13.4405 192.782 13.4405H194.648V12.6656C194.648 10.6566 193.959 9.65211 191.921 9.65211C190.113 9.65211 189.224 10.5131 189.051 12.0055H185.693C185.98 8.50411 188.764 7.04041 192.122 7.04041C195.48 7.04041 198.121 8.41801 198.121 12.5221V22.3662H194.705V20.5294C193.729 21.8209 192.409 22.6532 190.113 22.6532ZM190.946 20.1563C193.069 20.1563 194.648 19.037 194.648 17.1141V15.6217H192.868C190.228 15.6217 188.535 16.2244 188.535 18.0612C188.535 19.324 189.224 20.1563 190.946 20.1563ZM190.687 5.11751L192.381 0.669011H196.226L193.242 5.11751H190.687Z" fill="#DD5900"/>
</svg>
