<svg width="328" height="29" viewBox="0 0 328 29" fill="none" xmlns="http://www.w3.org/2000/svg">
<path d="M6.061 23.29C3.277 23.29 0.986 21.956 0.986 18.795C0.986 15.257 4.408 13.981 8.758 13.981H10.643V13.198C10.643 11.168 9.947 10.153 7.888 10.153C6.061 10.153 5.162 11.023 4.988 12.531H1.595C1.885 8.993 4.698 7.514 8.091 7.514C11.484 7.514 14.152 8.906 14.152 13.053V23H10.701V21.144C9.715 22.449 8.381 23.29 6.061 23.29ZM6.902 20.767C9.048 20.767 10.643 19.636 10.643 17.693V16.185H8.845C6.177 16.185 4.466 16.794 4.466 18.65C4.466 19.926 5.162 20.767 6.902 20.767ZM17.6809 23V0.814999H21.1899V23H17.6809ZM24.974 23V7.833H28.483V23H24.974ZM26.685 5.339C25.525 5.339 24.597 4.469 24.597 3.338C24.597 2.178 25.525 1.308 26.685 1.308C27.845 1.308 28.773 2.178 28.773 3.338C28.773 4.469 27.845 5.339 26.685 5.339ZM32.18 23V7.833H35.689V10.153C36.414 8.732 38.067 7.514 40.3 7.514C42.272 7.514 43.838 8.355 44.592 10.24C45.752 8.355 47.84 7.514 49.725 7.514C52.509 7.514 54.771 9.225 54.771 13.401V23H51.262V13.633C51.262 11.4 50.305 10.443 48.565 10.443C46.825 10.443 45.23 11.603 45.23 13.923V23H41.721V13.633C41.721 11.4 40.735 10.443 39.024 10.443C37.284 10.443 35.689 11.603 35.689 13.923V23H32.18ZM64.8911 23.29C60.4251 23.29 57.2061 20.361 57.2061 15.576V15.344C57.2061 10.646 60.4251 7.514 64.7461 7.514C68.5161 7.514 71.9091 9.747 71.9091 15.17V16.185H60.8021C60.9181 19.056 62.3681 20.68 64.9781 20.68C67.0951 20.68 68.1971 19.839 68.4581 18.36H71.8511C71.3581 21.55 68.7771 23.29 64.8911 23.29ZM60.8601 13.836H68.4291C68.2551 11.226 66.9211 10.066 64.7461 10.066C62.6291 10.066 61.2081 11.487 60.8601 13.836ZM74.4634 23V7.833H77.9724V10.24C78.6974 8.761 80.3794 7.514 82.8734 7.514C85.9184 7.514 88.0644 9.283 88.0644 13.459V23H84.5554V13.778C84.5554 11.487 83.6274 10.443 81.5394 10.443C79.5674 10.443 77.9724 11.661 77.9724 14.068V23H74.4634ZM96.6889 23.261C93.6729 23.261 92.1069 21.637 92.1069 18.766V10.472H90.0769V7.833H92.1069V4.498H95.6159V7.833H98.9509V10.472H95.6159V18.447C95.6159 19.781 96.2539 20.39 97.3559 20.39C98.0519 20.39 98.5739 20.303 99.0669 20.1V22.884C98.5159 23.087 97.7619 23.261 96.6889 23.261ZM105.767 23.29C102.983 23.29 100.692 21.956 100.692 18.795C100.692 15.257 104.114 13.981 108.464 13.981H110.349V13.198C110.349 11.168 109.653 10.153 107.594 10.153C105.767 10.153 104.868 11.023 104.694 12.531H101.301C101.591 8.993 104.404 7.514 107.797 7.514C111.19 7.514 113.858 8.906 113.858 13.053V23H110.407V21.144C109.421 22.449 108.087 23.29 105.767 23.29ZM106.608 20.767C108.754 20.767 110.349 19.636 110.349 17.693V16.185H108.551C105.883 16.185 104.172 16.794 104.172 18.65C104.172 19.926 104.868 20.767 106.608 20.767ZM117.3 23V7.833H120.809V10.675C121.766 8.761 123.187 7.63 125.739 7.601V10.878C122.665 10.907 120.809 11.893 120.809 15.112V23H117.3ZM134.576 28.191V7.833H138.085V10.269C138.926 8.819 140.811 7.514 143.044 7.514C146.843 7.514 149.772 10.327 149.772 15.228V15.46C149.772 20.332 146.959 23.29 143.044 23.29C140.637 23.29 138.897 22.101 138.085 20.622V28.191H134.576ZM142.174 20.506C144.755 20.506 146.176 18.766 146.176 15.518V15.286C146.176 11.922 144.436 10.269 142.145 10.269C139.709 10.269 137.969 11.922 137.969 15.286V15.518C137.969 18.911 139.622 20.506 142.174 20.506ZM156.321 23.29C153.537 23.29 151.246 21.956 151.246 18.795C151.246 15.257 154.668 13.981 159.018 13.981H160.903V13.198C160.903 11.168 160.207 10.153 158.148 10.153C156.321 10.153 155.422 11.023 155.248 12.531H151.855C152.145 8.993 154.958 7.514 158.351 7.514C161.744 7.514 164.412 8.906 164.412 13.053V23H160.961V21.144C159.975 22.449 158.641 23.29 156.321 23.29ZM157.162 20.767C159.308 20.767 160.903 19.636 160.903 17.693V16.185H159.105C156.437 16.185 154.726 16.794 154.726 18.65C154.726 19.926 155.422 20.767 157.162 20.767ZM167.854 23V7.833H171.363V10.675C172.32 8.761 173.741 7.63 176.293 7.601V10.878C173.219 10.907 171.363 11.893 171.363 15.112V23H167.854ZM182.49 23.29C179.706 23.29 177.415 21.956 177.415 18.795C177.415 15.257 180.837 13.981 185.187 13.981H187.072V13.198C187.072 11.168 186.376 10.153 184.317 10.153C182.49 10.153 181.591 11.023 181.417 12.531H178.024C178.314 8.993 181.127 7.514 184.52 7.514C187.913 7.514 190.581 8.906 190.581 13.053V23H187.13V21.144C186.144 22.449 184.81 23.29 182.49 23.29ZM183.331 20.767C185.477 20.767 187.072 19.636 187.072 17.693V16.185H185.274C182.606 16.185 180.895 16.794 180.895 18.65C180.895 19.926 181.591 20.767 183.331 20.767ZM207.139 20.564C209.749 20.564 211.315 18.621 211.315 15.518V15.315C211.315 12.183 209.749 10.269 207.139 10.269C204.529 10.269 202.934 12.154 202.934 15.286V15.518C202.934 18.621 204.471 20.564 207.139 20.564ZM207.11 23.29C202.644 23.29 199.338 20.187 199.338 15.576V15.344C199.338 10.646 202.673 7.514 207.139 7.514C211.576 7.514 214.911 10.617 214.911 15.257V15.489C214.911 20.216 211.576 23.29 207.11 23.29ZM223.832 28.191V7.833H227.341V10.269C228.182 8.819 230.067 7.514 232.3 7.514C236.099 7.514 239.028 10.327 239.028 15.228V15.46C239.028 20.332 236.215 23.29 232.3 23.29C229.893 23.29 228.153 22.101 227.341 20.622V28.191H223.832ZM231.43 20.506C234.011 20.506 235.432 18.766 235.432 15.518V15.286C235.432 11.922 233.692 10.269 231.401 10.269C228.965 10.269 227.225 11.922 227.225 15.286V15.518C227.225 18.911 228.878 20.506 231.43 20.506ZM241.69 23V0.814999H245.199V23H241.69ZM252.869 23.29C250.085 23.29 247.794 21.956 247.794 18.795C247.794 15.257 251.216 13.981 255.566 13.981H257.451V13.198C257.451 11.168 256.755 10.153 254.696 10.153C252.869 10.153 251.97 11.023 251.796 12.531H248.403C248.693 8.993 251.506 7.514 254.899 7.514C258.292 7.514 260.96 8.906 260.96 13.053V23H257.509V21.144C256.523 22.449 255.189 23.29 252.869 23.29ZM253.71 20.767C255.856 20.767 257.451 19.636 257.451 17.693V16.185H255.653C252.985 16.185 251.274 16.794 251.274 18.65C251.274 19.926 251.97 20.767 253.71 20.767ZM264.402 23V7.833H267.911V10.24C268.636 8.761 270.318 7.514 272.812 7.514C275.857 7.514 278.003 9.283 278.003 13.459V23H274.494V13.778C274.494 11.487 273.566 10.443 271.478 10.443C269.506 10.443 267.911 11.661 267.911 14.068V23H264.402ZM288.136 23.29C283.67 23.29 280.451 20.361 280.451 15.576V15.344C280.451 10.646 283.67 7.514 287.991 7.514C291.761 7.514 295.154 9.747 295.154 15.17V16.185H284.047C284.163 19.056 285.613 20.68 288.223 20.68C290.34 20.68 291.442 19.839 291.703 18.36H295.096C294.603 21.55 292.022 23.29 288.136 23.29ZM284.105 13.836H291.674C291.5 11.226 290.166 10.066 287.991 10.066C285.874 10.066 284.453 11.487 284.105 13.836ZM302.87 23.261C299.854 23.261 298.288 21.637 298.288 18.766V10.472H296.258V7.833H298.288V4.498H301.797V7.833H305.132V10.472H301.797V18.447C301.797 19.781 302.435 20.39 303.537 20.39C304.233 20.39 304.755 20.303 305.248 20.1V22.884C304.697 23.087 303.943 23.261 302.87 23.261ZM311.948 23.29C309.164 23.29 306.873 21.956 306.873 18.795C306.873 15.257 310.295 13.981 314.645 13.981H316.53V13.198C316.53 11.168 315.834 10.153 313.775 10.153C311.948 10.153 311.049 11.023 310.875 12.531H307.482C307.772 8.993 310.585 7.514 313.978 7.514C317.371 7.514 320.039 8.906 320.039 13.053V23H316.588V21.144C315.602 22.449 314.268 23.29 311.948 23.29ZM312.789 20.767C314.935 20.767 316.53 19.636 316.53 17.693V16.185H314.732C312.064 16.185 310.353 16.794 310.353 18.65C310.353 19.926 311.049 20.767 312.789 20.767ZM325.568 23.203C324.292 23.203 323.277 22.217 323.277 20.941C323.277 19.665 324.292 18.65 325.568 18.65C326.873 18.65 327.888 19.665 327.888 20.941C327.888 22.217 326.873 23.203 325.568 23.203Z" fill="black"/>
</svg>
