<svg width="179" height="97" viewBox="0 0 179 97" fill="none" xmlns="http://www.w3.org/2000/svg">
  <path d="M85.01,5.55v11.59h-16.85V.29h11.59c2.9,0,5.26,2.36,5.26,5.26Z" fill="#fff"/>
  <path d="M85.01,33.98h-16.85v16.85h16.85v-16.85Z" fill="#fff"/>
  <path d="M51.31.29h-16.85v16.85h16.85V.29Z" fill="#ffd000"/>
  <path d="M17.62,13.79V.29H.77v45.28c0,2.9,2.36,5.26,5.26,5.26h11.59v-13.5c0-1.85,1.5-3.34,3.34-3.34h13.5v-16.85h-13.5c-1.85,0-3.34-1.5-3.34-3.34Z" fill="#fff"/>
  <path d="M51.31,33.98h-16.85v16.85h16.85v-16.85Z" fill="#fff"/>
  <path d="M19.14,69.37c-1.16,0-2.1-.37-2.87-1.16-.76-.77-1.13-1.72-1.13-2.9s.36-2.19,1.13-2.96c.76-.78,1.72-1.16,2.91-1.16s2.06.39,2.83,1.17c.77.78,1.15,1.72,1.15,2.88s-.37,2.15-1.15,2.95c-.77.79-1.71,1.18-2.88,1.18ZM23.71,60.86c-1.22-1.17-2.77-1.75-4.59-1.75s-3.37.59-4.57,1.75c-1.2,1.17-1.81,2.66-1.81,4.43s.61,3.2,1.8,4.35c1.19,1.15,2.71,1.73,4.49,1.73s3.42-.58,4.66-1.73c1.24-1.16,1.87-2.63,1.87-4.39s-.62-3.23-1.85-4.4ZM73.76,59.25v6.7c0,1.92-.74,3.23-2.88,3.23s-2.88-1.32-2.88-3.23v-6.7h-2.32v7.2c0,3.54,2.39,4.93,5.2,4.93s5.2-1.38,5.2-4.93v-7.2h-2.32ZM59.75,59.25v9.9h5.03v2.07h-7.35v-11.97h2.31ZM51.39,64.66c1.15,0,2.12-.53,2.12-1.67s-.66-1.67-2.12-1.67h-1.39v3.33h1.39ZM52.05,59.25c2.52,0,3.78,1.63,3.78,3.73s-1.56,3.75-3.87,3.75h-1.96v4.49h-2.31v-11.97h4.36ZM46.11,59.25v2.07h-3.93v9.9h-2.31v-9.9h-3.93v-2.07h10.18ZM81.64,59.09c1.17,0,2.29.29,3.37.87v2.36c-1.25-.75-2.07-1.21-3.33-1.21s-1.69.43-1.72,1.02c-.03.45.25.84.85,1.22.17.11.81.44,1.94,1,.96.48,1.69.97,2.12,1.54.43.57.66,1.25.66,2.04,0,1.03-.37,1.86-1.11,2.49-.74.63-1.7.95-2.88.95-.76,0-1.43-.08-1.97-.25-.56-.17-1.17-.45-1.86-.87v-2.63c1.28,1.07,2.45,1.72,3.58,1.72,1.07,0,1.78-.41,1.78-1.13,0-.49-.23-.93-.82-1.28-.49-.29-1.13-.62-1.89-1.04-.91-.5-1.64-.95-2.11-1.53-.46-.58-.7-1.21-.7-1.96,0-1.01.37-1.8,1.12-2.4.75-.6,1.73-.9,2.97-.9M30.96,59.09c1.17,0,2.29.29,3.37.87v2.36c-1.24-.75-2.07-1.21-3.33-1.21s-1.69.43-1.72,1.02c-.03.45.25.84.85,1.22.17.11.8.44,1.94,1,.96.48,1.69.97,2.13,1.54.43.57.65,1.25.65,2.04,0,1.03-.37,1.86-1.11,2.49-.74.63-1.7.95-2.88.95-.77,0-1.43-.08-1.97-.25-.54-.17-1.17-.45-1.86-.87v-2.63c1.28,1.07,2.45,1.72,3.58,1.72,1.07,0,1.78-.41,1.78-1.13,0-.49-.22-.93-.82-1.28-.49-.29-1.13-.62-1.89-1.04-.91-.5-1.64-.95-2.11-1.53-.46-.58-.7-1.21-.7-1.96,0-1.01.37-1.8,1.12-2.4.75-.6,1.73-.9,2.97-.9M3.08,59.25v4.77h5.68v-4.77h2.31v11.97h-2.31v-4.78H3.08v4.78H.77v-11.97h2.31Z" fill="#fff"/>
  <line x1="104.67" y1=".12" x2="104.67" y2="71.81" fill="none" stroke="#fff" stroke-width=".57"/>
  <path d="M3.89,96.31c-.5,0-.96-.09-1.38-.26-.42-.18-.8-.43-1.12-.76-.32-.32-.56-.7-.74-1.13-.17-.43-.26-.89-.26-1.39s.09-.97.26-1.39c.17-.43.42-.81.74-1.13.32-.32.69-.57,1.11-.75.43-.18.89-.27,1.39-.27s.96.09,1.38.27c.42.17.79.42,1.11.75.32.32.57.7.75,1.13.17.42.26.89.26,1.39s-.09.96-.26,1.39c-.17.43-.42.81-.75,1.13-.32.32-.69.57-1.11.76-.42.17-.88.26-1.38.26ZM3.89,94.88c.4,0,.74-.1,1.02-.29.29-.19.51-.45.65-.78.15-.32.23-.68.23-1.06s-.08-.73-.23-1.05c-.15-.32-.37-.58-.65-.77-.28-.19-.62-.29-1.02-.29s-.74.1-1.03.29c-.28.19-.5.44-.65.77-.15.32-.23.67-.23,1.05s.08.74.23,1.06c.15.32.37.58.65.78.29.19.63.29,1.03.29ZM8.44,96.14v-6.72h4.51v1.34h-2.99v1.52h2.28v1.3h-2.28v2.56h-1.52ZM13.87,96.14v-6.72h4.51v1.34h-2.99v1.52h2.28v1.3h-2.28v2.56h-1.52ZM19.3,96.14v-6.72h1.52v6.72h-1.52ZM27.16,93.96l1.04.95c-.19.26-.43.49-.73.71-.29.21-.61.39-.98.51-.36.13-.75.19-1.17.19-.68,0-1.28-.15-1.8-.45-.52-.3-.92-.72-1.22-1.24-.29-.53-.43-1.14-.43-1.81,0-.5.08-.96.25-1.39.17-.44.4-.82.71-1.14.31-.32.68-.57,1.1-.76.43-.18.9-.27,1.42-.27.62,0,1.16.11,1.63.34.47.23.86.56,1.17.99l-1.04,1c-.2-.28-.44-.51-.72-.68-.28-.17-.6-.26-.99-.26-.4,0-.75.1-1.05.29-.29.19-.51.44-.68.77-.15.32-.23.68-.23,1.07s.08.75.23,1.07c.16.32.39.57.68.76.29.18.63.27,1.02.27.32,0,.59-.04.81-.13.22-.09.4-.2.54-.33.15-.14.3-.29.43-.44ZM28.99,96.14v-6.72h1.52v6.72h-1.52ZM31.24,96.14l2.51-6.72h1.68l2.46,6.72h-1.66l-.51-1.54h-2.37l-.51,1.54h-1.59ZM33.7,93.42h1.65l-.82-2.54-.84,2.54ZM38.62,96.14v-6.72h1.52v5.37h3.21v1.35h-4.74ZM45.59,95.19l.98-1.06c.17.19.41.37.7.55.3.18.64.27,1.03.27.15,0,.31-.03.45-.08.15-.06.27-.14.36-.25.1-.11.15-.25.15-.4,0-.25-.12-.44-.36-.58-.24-.14-.62-.28-1.15-.4-.51-.13-.93-.35-1.27-.68-.34-.32-.5-.74-.5-1.25,0-.38.09-.72.27-1.03.18-.32.45-.57.82-.76.36-.19.82-.29,1.37-.29.46,0,.84.06,1.15.18.32.11.57.24.76.38.19.14.32.26.39.34l-.88.97c-.15-.11-.34-.24-.58-.38-.24-.15-.53-.22-.86-.22-.22,0-.42.06-.6.19-.18.12-.27.27-.27.44,0,.23.12.41.36.55.24.14.57.26,1,.35.33.08.64.2.95.36.31.16.56.39.76.68.19.29.29.67.29,1.13,0,.4-.11.76-.34,1.08-.23.32-.54.56-.93.75-.39.18-.83.27-1.31.27-.44,0-.84-.05-1.18-.16-.34-.11-.64-.25-.9-.41-.26-.17-.47-.36-.64-.54ZM51.97,93.59v-4.17h1.53v3.98c0,.44.09.79.28,1.06.19.27.53.4,1.01.4s.81-.13,1-.4c.19-.27.28-.62.28-1.06v-3.98h1.54v4.17c0,.54-.12,1.01-.35,1.42-.23.41-.55.73-.98.97-.42.23-.91.34-1.49.34s-1.07-.11-1.49-.34c-.42-.23-.75-.55-.99-.96-.23-.42-.34-.89-.34-1.43ZM58.87,96.14v-6.72h2.45c.56,0,1.01.1,1.35.31.35.2.6.47.77.8.16.33.24.68.24,1.06,0,.48-.11.88-.32,1.21-.21.32-.5.57-.85.74-.34.16-.72.24-1.12.24h-1.04v2.37h-1.48ZM60.35,92.54h.89c.28,0,.5-.09.67-.26.17-.17.25-.4.25-.67,0-.28-.08-.51-.25-.69-.17-.18-.39-.27-.68-.27h-.88v1.88ZM64.69,96.14v-6.72h4.59v1.33h-3.07v1.31h2.39v1.29h-2.39v1.45h3.29v1.34h-4.82ZM70.54,96.14v-6.72h2.5c.52,0,.96.1,1.31.29.35.19.61.44.79.77.17.32.26.67.26,1.05,0,.43-.1.81-.29,1.14-.19.33-.46.59-.81.79l1.49,2.69h-1.67l-1.25-2.47h-.85v2.47h-1.48ZM72.02,92.45h.94c.28,0,.5-.08.67-.25.16-.17.24-.38.24-.63,0-.28-.08-.49-.25-.65-.16-.16-.38-.24-.65-.24h-.94v1.78ZM76.07,96.14l2.51-6.72h1.68l2.46,6.72h-1.66l-.51-1.54h-2.37l-.51,1.54h-1.59ZM78.53,93.42h1.65l-.82-2.54-.84,2.54ZM83.45,96.14v-6.72h1.45l2.91,4.36v-4.36h1.5v6.72h-1.38l-2.98-4.44v4.44h-1.5ZM90.62,96.14v-6.72h1.45l2.91,4.36v-4.36h1.5v6.72h-1.38l-2.98-4.44v4.44h-1.5ZM97.74,93.59v-4.17h1.53v3.98c0,.44.09.79.28,1.06.19.27.53.4,1.01.4s.81-.13,1-.4c.19-.27.28-.62.28-1.06v-3.98h1.54v4.17c0,.54-.12,1.01-.35,1.42-.23.41-.55.73-.98.97-.42.23-.91.34-1.49.34s-1.07-.11-1.49-.34c-.42-.23-.75-.55-.99-.96-.23-.42-.34-.89-.34-1.43ZM103.75,96.14l2.51-6.72h1.68l2.46,6.72h-1.66l-.51-1.54h-2.37l-.51,1.54h-1.59ZM106.21,93.42h1.65l-.82-2.54-.84,2.54ZM111.77,96.14v-5.38h-2.18v-1.34h5.88v1.34h-2.17v5.38h-1.53ZM116.33,96.14v-6.72h1.52v6.72h-1.52ZM122.4,96.31c-.5,0-.96-.09-1.38-.26-.42-.18-.8-.43-1.12-.76-.32-.32-.56-.7-.74-1.13s-.26-.89-.26-1.39.09-.97.26-1.39c.18-.43.42-.81.74-1.13.32-.32.68-.57,1.11-.75.43-.18.89-.27,1.39-.27s.96.09,1.38.27c.42.17.79.42,1.11.75.32.32.57.7.75,1.13.17.42.26.89.26,1.39s-.09.96-.26,1.39c-.18.43-.42.81-.75,1.13-.32.32-.68.57-1.11.76-.42.17-.88.26-1.38.26ZM122.4,94.88c.4,0,.74-.1,1.02-.29.29-.19.51-.45.65-.78.15-.32.23-.68.23-1.06s-.08-.73-.23-1.05c-.15-.32-.37-.58-.65-.77-.28-.19-.62-.29-1.02-.29s-.74.1-1.03.29c-.28.19-.5.44-.65.77-.15.32-.23.67-.23,1.05s.08.74.23,1.06c.15.32.37.58.65.78.29.19.63.29,1.03.29ZM126.95,96.14v-6.72h1.45l2.91,4.36v-4.36h1.5v6.72h-1.38l-2.98-4.44v4.44h-1.5ZM135.94,96.14v-6.72h2.45c.56,0,1.01.1,1.35.31.35.2.6.47.77.8.16.33.24.68.24,1.06,0,.48-.11.88-.32,1.21-.21.32-.5.57-.85.74-.34.16-.72.24-1.12.24h-1.04v2.37h-1.48ZM137.43,92.54h.89c.28,0,.5-.09.67-.26.17-.17.25-.4.25-.67,0-.28-.08-.51-.25-.69-.17-.18-.39-.27-.68-.27h-.88v1.88ZM140.33,96.14l2.51-6.72h1.68l2.46,6.72h-1.66l-.51-1.54h-2.37l-.51,1.54h-1.59ZM142.79,93.42h1.65l-.82-2.54-.84,2.54ZM147.7,96.14v-6.72h2.5c.52,0,.96.1,1.31.29.35.19.61.44.79.77.17.32.26.67.26,1.05,0,.43-.1.81-.29,1.14-.19.33-.46.59-.81.79l1.49,2.69h-1.67l-1.25-2.47h-.85v2.47h-1.48ZM149.18,92.45h.94c.28,0,.5-.08.66-.25.16-.17.24-.38.24-.63,0-.28-.08-.49-.25-.65-.16-.16-.38-.24-.65-.24h-.94v1.78ZM155.36,96.14v-5.38h-2.18v-1.34h5.88v1.34h-2.17v5.38h-1.53ZM159.92,96.14v-6.72h1.45l2.91,4.36v-4.36h1.5v6.72h-1.38l-2.98-4.44v4.44h-1.5ZM167.1,96.14v-6.72h4.6v1.33h-3.07v1.31h2.39v1.29h-2.39v1.45h3.29v1.34h-4.82ZM172.94,96.14v-6.72h2.5c.52,0,.96.1,1.31.29.35.19.61.44.79.77.18.32.26.67.26,1.05,0,.43-.1.81-.29,1.14-.19.33-.46.59-.81.79l1.49,2.69h-1.67l-1.25-2.47h-.85v2.47h-1.48ZM174.42,92.45h.94c.28,0,.5-.08.67-.25.16-.17.24-.38.24-.63,0-.28-.08-.49-.25-.65-.16-.16-.38-.24-.65-.24h-.94v1.78Z" fill="#fff"/>
  <path d="M179,0v47.31c0,7.17-4.18,10.97-7,12.58l-21,12.12-21-12.12c-2.82-1.61-7-5.41-7-12.58V0h56Z" fill="#970e48"/>
  <path d="M127.38,4.37v42.94c0,5.26,3.01,7.76,4.79,8.78l18.83,10.86,18.83-10.86c1.79-1.02,4.79-3.52,4.79-8.78V4.37h-47.25ZM172.26,47.31c0,3.87-1.96,5.79-3.6,6.73l-17.66,10.19-17.66-10.19c-1.64-.94-3.6-2.87-3.6-6.73V6.73h42.52v40.58ZM138.9,21.82s.52.71.52,1.44c.25-.49.76-1.13,1.9-1.36,0,0-.05,1.9-1.42,2.4.97.69.94,2.99,1.08,4.71.27,3.26,2.87,4.7,3.61,7.29.61,2.1.09,4.38.72,6.49.9,3.01,3.62,4.41,6.5,5.04,1.6.35,2.88.57,2.87,1.16h-4.21c-5.21.04-6.95-1.38-9.15-5.79-.21.12-.59.63-.03,1.89.95,2.18,1.54,3.9-.24,3.9h-6.2c.73-1.3,3.14-1.03,4.6-1.23,1.43-.19-.04-1.75-1.72-3.66-3.15-3.56-2.54-6.45,1.22-9.39-.32-.18-1.69.52-2.16.95-.18-.38-.25-1.38-.28-1.81-.44.39-1.04,1.14-1.3,1.55-.2.32-.17,1.46-.17,1.46-.52-.26-.77-1.03-.66-1.62.12-.65,1.07-1.9,1.81-3.03.34-.52,1.08-3.74,1.38-3.93.5-.33,1.12-.94,1.28-1.35.06-.15,0-.28,0-.28,0,0-.6.7-1.44.93-.25.07-.52,0-.76.11-.23.09-.43.24-.66.31-.41.13-.88-.41-1.09-.67-.3-.37-.17-.62.15-.89.67-.57,1.05-.89,1.58-1.6.35-.46,1.07-.96,1.83-.92-.09-.59.04-1.63.41-2.12h0ZM167.62,38.72v-8.74c0-5.57-4.52-7.63-10.09-7.63s-10.09,2.06-10.09,7.63v8.74c0,5.18,3.91,7.32,8.95,7.6,2.89,2.85,8.41,3.65,11.24-.28v-1.38c-1.32.77-2.99,1.03-4.36.71,2.64-1.1,4.36-3.21,4.36-6.65h0ZM163.84,40.03c-.01,1.39-.96,2.58-2.28,3-.78.24-1.76.4-2.75.48-1.61-.99-3.76-2.15-4.49-2.42-.72-.27-1.9-.29-3.01-.29,0,0-.1-.15-.1-1.01v-11.12c.01-1.39.96-2.59,2.28-3,1.12-.35,2.65-.52,4.03-.52s2.91.18,4.03.52c1.33.41,2.27,1.61,2.28,3v11.37h0ZM142.11,11.57h-1.15l-1.92,5.2h1.32l.31-.95h1.76l.3.95h1.32l-1.93-5.2ZM140.97,14.82l.56-1.75.56,1.75h-1.12ZM147.74,14.62c.55-.26.9-.67.9-1.48,0-1.03-.75-1.58-1.96-1.58h-2.03v5.2h1.23v-1.82h.71l.91,1.82h1.32v-.05l-1.09-2.1ZM146.68,13.95h-.79v-1.39h.79c.49,0,.73.26.73.7s-.25.69-.74.69h0ZM151.61,11.5c-1.33,0-2.27.98-2.27,2.58v.19c0,1.6.94,2.58,2.27,2.58s2.26-.98,2.26-2.58v-.19c0-1.6-.94-2.58-2.27-2.58ZM152.63,14.27c0,1.01-.36,1.57-1.01,1.57s-1.02-.56-1.02-1.57v-.2c0-1.03.35-1.57,1.02-1.57s1.02.54,1.02,1.57v.2ZM156.85,11.5c-1.34,0-2.27.98-2.27,2.58v.19c0,1.6.94,2.58,2.27,2.58s2.26-.98,2.26-2.58v-.19c0-1.6-.94-2.58-2.27-2.58ZM157.87,14.27c0,1.01-.36,1.57-1.01,1.57s-1.02-.56-1.02-1.57v-.2c0-1.03.35-1.57,1.02-1.57s1.02.54,1.02,1.57v.2ZM167.95,15.39c0-.31-.14-.49-.93-.74-.92-.3-1.76-.74-1.76-1.68s.84-1.47,1.99-1.47,1.94.63,1.94,1.62h-1.23c0-.38-.24-.65-.74-.65s-.73.23-.73.51c0,.3.37.49.96.67,1.12.35,1.74.85,1.74,1.72,0,.94-.76,1.46-1.92,1.46-1.06,0-2.17-.53-2.17-1.77h1.23c0,.6.34.8.93.8.49,0,.69-.23.69-.49h0ZM161.19,16.77h-1.23v-5.2h1.23l1.98,3.37-.11-1.2v-2.16h1.23v5.2h-1.24l-1.98-3.37.11,1.22v2.14ZM134.05,16.77h-1.23v-5.2h1.61l1.19,2.56,1.18-2.56h1.62v5.2h-1.23v-1.17l.13-2.68-1.28,2.8h-.82l-1.28-2.8.13,2.68v1.17h0Z" fill="#fff"/>
</svg>