<svg width="73" height="28" viewBox="0 0 73 28" fill="none" xmlns="http://www.w3.org/2000/svg">
<path d="M72.4812 8.88609C72.4812 13.7182 68.6155 17.5838 63.7834 17.5838H57.8239V27.7312H50.9784V0.188354H63.7029C68.6155 0.188354 72.4812 4.13455 72.4812 8.88609ZM62.656 5.90631H57.9044V11.6243H62.656C64.1861 11.6243 65.3941 10.2552 65.3941 8.80556C65.3941 7.2754 64.1861 5.90631 62.656 5.90631ZM40.1868 0.188354V11.3827H30.6837V0.188354H23.8383V27.8117H30.6837V17.6644H40.1868V27.8117H47.0322V0.188354H40.1868ZM21.1806 20.322C21.1806 24.9125 17.0733 27.8117 12.7245 27.8117H0V0.188354H12.3218C16.8317 0.188354 20.5363 3.49027 20.5363 7.59754C20.5363 10.8189 19.0062 12.5907 16.9123 13.8792C19.3283 14.9262 21.1806 16.4563 21.1806 20.322ZM11.3554 16.698H6.84544V22.0132H11.3554C13.1271 22.0132 14.0936 20.8052 14.0936 19.3556C14.0936 17.906 12.805 16.698 11.3554 16.698ZM10.7111 5.90631H6.84544V11.6243H10.7111C12.4829 11.6243 13.4493 10.2552 13.4493 8.80556C13.4493 7.2754 12.4829 5.90631 10.7111 5.90631Z" fill="#DD5900"/>
</svg>
