<svg fill="none" height="16" viewBox="0 0 392 16" width="392" xmlns="http://www.w3.org/2000/svg"><path d="m5.5386.512759h4.40916l5.12594 14.487241h-4.1485l-.934-2.9974h-4.84356l-.95568 2.9974h-3.97476zm3.67068 8.688001-1.60728-5.3214-1.67244 5.3214zm11.99502 1.21634c.4055.4054.934.7747 1.5856 1.1077s1.3683.4996 2.1503.4996c.1882 0 .3837-.0145.5864-.0435.2027-.0434.3837-.1086.543-.1955.1593-.0868.2896-.2027.391-.3475.1013-.1448.152-.333.152-.5647 0-.3765-.1955-.6878-.5864-.93396-.3765-.24616-.934-.49232-1.6725-.73848l-.8036-.26064c-.4489-.1448-.905-.33304-1.3684-.56472-.4489-.23168-.8543-.5068-1.2163-.82536-.362-.33304-.6588-.71676-.8905-1.15116-.2172-.44888-.3258-.97016-.3258-1.56384 0-.66608.1231-1.28148.3692-1.8462.2462-.5792.6009-1.07876 1.0643-1.49868.4778-.4344 1.0643-.76744 1.7593-.99912.6951-.246161 1.4987-.369241 2.4109-.369241.7096 0 1.3539.06516 1.9331.19548s1.086.2896 1.5204.47784c.4344.188241.8037.390961 1.1077.608161.3041.2172.5358.41268.6951.58644l-1.9548 2.47608c-.5068-.37648-1.0353-.68056-1.5856-.91224-.5502-.24616-1.1149-.36924-1.6941-.36924-.1883 0-.3765.02172-.5648.06516-.1882.04344-.362.1086-.5212.19548-.1448.08688-.2679.20272-.3693.34752-.0869.13032-.1303.29684-.1303.49956 0 .2172.0507.40544.152.56472.1159.15928.2679.29684.4562.41268.1882.11584.4126.22444.6733.3258.2751.08688.5647.181.8688.28236l.695.2172c.4923.15928.9919.34752 1.4987.56472.5068.20272.9629.48508 1.3684.84708.4054.34752.7384.78916.9991 1.32492.2606.52128.3909 1.16564.3909 1.93308 0 .6661-.1592 1.2815-.4778 1.8462-.3041.5647-.724 1.0498-1.2598 1.4552-.5212.4055-1.1439.7168-1.8679.934-.7095.2317-1.4697.3475-2.2806.3475-1.448 0-2.6643-.1882-3.6489-.5647-.9702-.391-1.7956-.9122-2.4761-1.5638zm11.5951-9.904341h3.8444v8.492521c0 .7964.181 1.44802.543 1.95482.3765.5068.9919.7602 1.8462.7602.8544 0 1.4625-.2534 1.8245-.7602.362-.5213.543-1.1729.543-1.95482v-8.492521h3.8879v8.840041c0 .9267-.152 1.7666-.4561 2.5195-.3041.7385-.7385 1.3684-1.3032 1.8897-.5503.5212-1.2091.9194-1.9765 1.1946-.753.2751-1.5856.4126-2.4978.4126-.9123 0-1.7521-.1375-2.5196-.4126-.7674-.2752-1.4335-.6661-1.9982-1.1729-.5502-.5213-.9774-1.1512-1.2815-1.8897-.3041-.7529-.4561-1.6-.4561-2.5412zm15.0199 0h5.9078c.782 0 1.4842.108601 2.1069.325801.6371.20272 1.1801.5068 1.629.91224.4489.39096.7964.89052 1.0425 1.49868.2462.59368.3693 1.28148.3693 2.0634 0 .73848-.1303 1.4118-.391 2.01996-.2461.59368-.5937 1.10772-1.0425 1.54212-.4344.41992-.963.74572-1.5856.9774-.6082.21724-1.2815.32584-2.02.32584h-2.2588v4.8218h-3.7576zm5.582 6.646321c.5213 0 .934-.16652 1.2381-.49956s.4561-.7602.4561-1.28148c0-.55024-.1448-.99188-.4344-1.32492s-.7168-.49956-1.2815-.49956h-1.8027v3.60552zm7.3774-6.646321h10.4256v3.323161h-6.5812v2.23716h5.4083v3.12768h-5.4083v2.47604h7.0373v3.3232h-10.8817zm12.875 0h5.9947c.7819 0 1.4842.10136 2.1069.30408.6371.202721 1.1801.506801 1.629.912241.4488.39096.7964.88328 1.0425 1.47696.2462.59368.3693 1.28148.3693 2.0634 0 .95568-.21 1.78828-.6299 2.4978-.4199.69504-.9774 1.25252-1.6725 1.67244l3.106 5.56032h-4.1268l-2.4544-4.9304h-1.6072v4.9304h-3.7576zm5.6255 6.537721c.5068 0 .9195-.15204 1.238-.45612.3186-.31856.4779-.73848.4779-1.25976 0-.55024-.1521-.98464-.4562-1.3032-.304-.31856-.7312-.47784-1.2814-.47784h-1.8462v3.49692zm11.4917-6.537721h10.1001v3.366601h-6.2556v2.80188h4.8435v3.17112h-4.8435v5.14764h-3.8445zm11.7491 0h3.844v8.492521c0 .7964.181 1.44802.543 1.95482.377.5068.992.7602 1.846.7602.855 0 1.463-.2534 1.825-.7602.362-.5213.543-1.1729.543-1.95482v-8.492521h3.888v8.840041c0 .9267-.152 1.7666-.456 2.5195-.304.7385-.739 1.3684-1.304 1.8897-.55.5212-1.209.9194-1.976 1.1946-.753.2751-1.586.4126-2.498.4126s-1.752-.1375-2.519-.4126c-.768-.2752-1.434-.6661-1.999-1.1729-.55-.5213-.977-1.1512-1.281-1.8897-.304-.7529-.456-1.6-.456-2.5412zm14.998 0h3.497l5.56 8.079841v-8.079841h3.801v14.487241h-3.28l-5.777-8.31876v8.31876h-3.801zm15.463 0h5.56c1.115 0 2.143.144801 3.084.434401.956.2896 1.781.73124 2.476 1.32492s1.238 1.35388 1.629 2.2806.587 2.01996.587 3.27972c0 1.20184-.203 2.2516-.608 3.1494-.391.8833-.934 1.629-1.629 2.2372-.695.5936-1.521 1.0425-2.476 1.3466-.956.2896-1.984.4344-3.085.4344h-5.538zm5.408 11.098941c1.26 0 2.23-.3548 2.91-1.0643.695-.724 1.043-1.65796 1.043-2.80188 0-.5792-.08-1.10048-.239-1.56384-.159-.47784-.405-.88328-.738-1.21632-.319-.34752-.724-.6154-1.217-.80364-.492-.18824-1.078-.28236-1.759-.28236h-1.564v7.73234zm12.362-11.098941h4.062l1.868 9.708841 2.28-9.36132h3.497l2.303 9.36132 1.846-9.708841h3.931l-3.605 14.487241h-4.019l-2.28-9.16584-2.281 9.16584h-4.083zm21.3 0h3.845v14.487241h-3.845zm10.032 3.366601h-4.452v-3.366601h12.749v3.366601h-4.409v11.12064h-3.888zm10.034-3.366601h3.844v5.299681h5.343v-5.299681h3.845v14.487241h-3.845v-5.66892h-5.343v5.66892h-3.844zm23.346 0h4.409l5.126 14.487241h-4.148l-.934-2.9974h-4.844l-.955 2.9974h-3.975zm3.671 8.688001-1.607-5.3214-1.673 5.3214zm10.866-8.688001h3.844v11.098941h6.711v3.3883h-10.555zm18.722 14.834741c-1.086 0-2.092-.1882-3.019-.5647-.912-.391-1.708-.9195-2.389-1.5856-.666-.6805-1.187-1.4842-1.564-2.4109-.376-.94118-.564-1.96202-.564-3.0625s.188-2.11408.564-3.0408c.377-.9412.898-1.74484 1.564-2.41092.681-.68056 1.477-1.20908 2.389-1.58556.927-.376481 1.933-.564721 3.019-.564721s2.093.18824 3.02.564721c.926.37648 1.723.905 2.389 1.58556.666.66608 1.187 1.46972 1.564 2.41092.376.92672.564 1.94032.564 3.0408s-.188 2.12132-.564 3.0625c-.377.9267-.898 1.7304-1.564 2.4109-.666.6661-1.463 1.1946-2.389 1.5856-.927.3765-1.934.5647-3.02.5647zm0-3.6055c.565 0 1.065-.1014 1.499-.3041.449-.2172.826-.5068 1.13-.8688s.535-.78914.695-1.28146c.159-.49232.239-1.0136.239-1.56384s-.08-1.07152-.239-1.56384c-.16-.49232-.391-.91948-.695-1.28148s-.681-.64436-1.13-.84708c-.434-.2172-.934-.3258-1.499-.3258-.564 0-1.071.1086-1.52.3258-.434.20272-.804.48508-1.108.84708s-.535.78916-.695 1.28148c-.159.49232-.239 1.0136-.239 1.56384s.08 1.07152.239 1.56384c.16.49232.391.91946.695 1.28146s.674.6516 1.108.8688c.449.2027.956.3041 1.52.3041zm8.211-11.229241h4.062l1.868 9.708841 2.28-9.36132h3.497l2.303 9.36132 1.846-9.708841h3.931l-3.605 14.487241h-4.019l-2.28-9.16584-2.281 9.16584h-4.083zm29.014 0h4.409l5.126 14.487241h-4.148l-.934-2.9974h-4.844l-.955 2.9974h-3.975zm3.671 8.688001-1.607-5.3214-1.673 5.3214zm7.387-8.688001h5.56c1.115 0 2.143.144801 3.084.434401.956.2896 1.781.73124 2.477 1.32492.695.59368 1.238 1.35388 1.629 2.2806.39.92672.586 2.01996.586 3.27972 0 1.20184-.203 2.2516-.608 3.1494-.391.8833-.934 1.629-1.629 2.2372-.695.5936-1.521 1.0425-2.476 1.3466-.956.2896-1.984.4344-3.085.4344h-5.538zm5.408 11.098941c1.26 0 2.23-.3548 2.911-1.0643.695-.724 1.042-1.65796 1.042-2.80188 0-.5792-.079-1.10048-.239-1.56384-.159-.47784-.405-.88328-.738-1.21632-.319-.34752-.724-.6154-1.217-.80364-.492-.18824-1.078-.28236-1.759-.28236h-1.564v7.73234zm10.339-11.098941h3.671l3.518 6.320521 3.454-6.320521h3.692l.674 14.487241h-3.888l-.348-8.49252-2.541 4.95212h-2.107l-2.824-4.95212-.282 8.49252h-3.692zm17.321 0h3.844v14.487241h-3.844zm6.448 0h3.497l5.56 8.079841v-8.079841h3.801v14.487241h-3.28l-5.777-8.31876v8.31876h-3.801zm18.941 0h10.1v3.366601h-6.255v2.80188h4.843v3.17112h-4.843v5.14764h-3.845zm11.836 0h10.426v3.323161h-6.582v2.23716h5.409v3.12768h-5.409v2.47604h7.038v3.3232h-10.882zm12.875 0h10.426v3.323161h-6.582v2.23716h5.409v3.12768h-5.409v2.47604h7.038v3.3232h-10.882z" fill="#fff"/></svg>