<?xml version="1.0" encoding="UTF-8"?>
<svg id="Layer_2" data-name="Layer 2" xmlns="http://www.w3.org/2000/svg" viewBox="0 0 121.2070007324 50.0000291778">
  <defs>
    <style>
      .cls-1 {
        fill: #fff;
      }

      .cls-1, .cls-2, .cls-3, .cls-4 {
        stroke-width: 0px;
      }

      .cls-2 {
        fill: #ffd000;
      }

      .cls-3 {
        fill: #f5eb00;
      }

      .cls-4 {
        fill: #0087ae;
      }
    </style>
  </defs>
  <g id="Layer_1-2" data-name="Layer 1">
    <path class="cls-4" d="m83.7250061035.0000009537h37.4819946289v49.9976997375h-37.4819946289V.0000009537Z"/>
    <path class="cls-1" d="m102.5310058594,11.1548013687l4.5059967041,4.4944992065,6.4839935303-.0210990906-10.9900054932-10.9652004242-14.2550048828,14.2097988129,3.2409973145,3.2551002502,11.0140228271-10.9730987549Z"/>
    <path class="cls-3" d="m113.5209960938,15.6282014847l-10.9900054932,10.9678993225-4.4640045166-4.4551010132h-6.5079956055l10.9720001221,10.9468994141,14.2290039062-14.2229995728-3.2389984131-3.2366981506Z"/>
    <path class="cls-1" d="m89.7910003662,42.892701149c-1.095993042-.2630996704-1.3179931641-.3157997131-1.3179931641-.6735992432,0-.3578987122.3589935303-.5027008057.6750030518-.5027008057.4640045166,0,.8430023193.1263999939.8639984131.6711006165h.9250030518c0-1.007900238-.8399963379-1.4079017639-1.7680053711-1.4079017639-.7899932861,0-1.641998291.4211006165-1.641998291,1.3157997131,0,.8182983398.654006958,1.0709991455,1.3049926758,1.2393989563s1.3170013428.2630996704,1.3170013428.7156982422-.5269927979.5447006226-.8639984131.5447006226c-.5269927979,0-.9669952393-.2314987183-.9669952393-.8182983398h-.9279937744c-.0209960938,1.0709991455.9069976807,1.5551986694,1.8739929199,1.5551986694,1.2010040283,0,1.8439941406-.6105003357,1.8439941406-1.4079017639-.0209960938-.9683990479-.9880065918-1.1552009583-1.3170013428-1.2393989563v.0079040527Zm3.6199951172,1.0709991455c0,.6500015259-.2079925537.9025993347-.6719970703.9025993347-.3999938965,0-.5690002441-.2630996704-.5690002441-.7893981934v-1.7868003845h-.8639984131v1.9552001953c0,.7762985229.2319946289,1.3025016785,1.158996582,1.3025016785.1940002441.0052986145.3849945068-.040599823.5549926758-.1329994202s.31199646-.228099823.4120025635-.3931999207h.0209960938v.4420013428h.8229980469v-3.1551017761h-.8650054932l.0000152588,1.6551971436Zm3.0119934082-1.7657012939c-.1860046387-.0102005005-.3719940186.0292015076-.5390014648.1142997742-.1660003662.0850982666-.3059997559.2126998901-.4069976807.3698997498h-.0209960938v-.3946990967h-.8220062256v4.2891998291h.8849945068v-1.5130004883c.1049957275.1529006958.2460021973.2774009705.4120025635.3619003296.1649932861.0845985413.3489990234.1265983582.533996582.1222000122.9279937744,0,1.3910064697-.7893981934,1.3910064697-1.6394004822.0209960938-.8841018677-.4420013428-1.7051010132-1.4329986572-1.7051010132v-.0052986145Zm-.1900024414,2.6893005371c-.5690002441,0-.7559967041-.4841003418-.7559967041-1.0078010559s.18699646-1.0289001465.7559967041-1.0289001465.7590026855.5262985229.7590026855,1.0289001465-.1679992676,1.0130996704-.7590026855,1.0130996704v-.0052986145Zm3.4129943848-2.6893005371c-.9700012207,0-1.6210021973.715801239-1.6210021973,1.6814994812s.6300048828,1.6814994812,1.6210021973,1.6814994812c.3350067139.023601532.6679992676-.0708999634.9409942627-.266998291s.4680023193-.4814987183.5529937744-.8065986633h-.7779998779c-.06199646.129901886-.1620025635.2388000488-.2850036621.3134994507-.1239929199.074798584-.2660064697.1120986938-.4100036621.1074981689-.4850006104,0-.7590026855-.2630996704-.7910003662-.7893981934h2.3159942627c.06300354-.9894981384-.4629974365-1.9131011963-1.5570068359-1.9131011963l.0110321045-.007900238Zm-.7380065918,1.3446998596c.0010070801-.0915985107.0209960938-.1819992065.0579986572-.2657012939.0370025635-.0838012695.0899963379-.159198761.1569976807-.2219009399.0670013428-.0625991821.1459960938-.1110992432.2319946289-.1427001953.0859985352-.03150177.1779937744-.0453987122.2689971924-.0406990051.4219970703,0,.6119995117.2314987183.6959991455.6710014343h-1.4119873047Zm3.3489990234-.6710014343l-.0209960938-.5842018127h-.8220062256v3.173500061h.8849945068v-1.4289016724c0-.5684013367.2319946289-1.0289001465.8619995117-1.0289001465.1280059814.0091018677.2550048828.0302009583.3789978027.0631980896v-.8209991455c-.0859985352-.0233001709-.1739959717-.037399292-.2640075684-.042098999-.2189941406-.0015983582-.4329986572.0615005493-.6170043945.1813011169-.1829986572.1198997498-.3269958496.2911987305-.4129943848.4922981262l.0110168457-.0051956177Zm2.4420013428-1.007900238h2v-.8130989075h-2.9689941406v4.4339981079h.9689941406v-1.841999054h2v-.75h-2v-1.0289001465Zm4.4799957275,2.0788993835c0,.6498985291-.2109985352.9235992432-.6959991455.9235992432-.421005249,0-.5690002441-.2630996704-.5690002441-.7893981934v-1.8420982361h-.8829956055v1.9762992859c0,.7893981934.2319946289,1.315700531,1.1779937744,1.315700531.199005127.0035018921.3950042725-.0452003479.5690002441-.1412010193.1739959717-.0960998535.3190002441-.2361984253.4219970703-.4062004089h.0209960938v.4421005249h.8430023193v-3.1972007751h-.8849945068v1.7183990479Zm3.1170043945-1.7658004761c-.199005127-.0035018921-.3950042725.0452003479-.5690002441.1413002014-.1739959717.0960006714-.3190002441.2360992432-.4219970703.4061012268h-.0209960938v-.4367980957h-.8430023193v3.2155990601h.8849945068v-1.6814994812c0-.6525993347.2109985352-.9235992432.6959991455-.9235992432.421005249,0,.5690002441.25.5690002441.7893981934v1.8367996216h.8829956055v-1.9762992859c0-.8394012451-.2640075684-1.3656997681-1.1779937744-1.3656997681v-.0053024292Zm3.7890014648.4841995239c-.1100006104-.153301239-.2559967041-.2775001526-.4250030518-.3619003296s-.3560028076-.1263008118-.5449981689-.1222991943c-.9459991455,0-1.4299926758.7895011902-1.4299926758,1.6814994812,0,.8921012878.4839935303,1.7237014771,1.4510040283,1.7237014771.1959991455.0143013.391998291-.0252990723.5659942627-.1142997742.1750030518-.089099884.3220062256-.2243003845.4250030518-.3909988403h.0209960938v.4210014343h.8430023193v-4.447101593h-.8849945068v1.6183013916l-.0210113525-.0079040527Zm-.7169952393,2.2472991943c-.5449981689,0-.7769927979-.5262985229-.7769927979-1.0289001465s.1900024414-1.0289001465.7769927979-1.0289001465c.5879974365,0,.7590026855.5026016235.7590026855,1.0289001465s-.1900024414,1.034198761-.7530059814,1.034198761l-.0059967041-.0052986145Zm-19.2350006104-9.7364006042h.9700012207v4.3893013h-.9700012207v-4.3893013Zm2.1849975586,2.7209014893c0-.6525993347.2100067139-.9052009583.6739959717-.9052009583.4010009766,0,.5690002441.2631988525.5690002441.7895011902v1.7840995789h.8860015869v-1.9578018188c0-.7895011902-.2319946289-1.3157997131-1.1600036621-1.3157997131-.1940002441-.0051994324-.3849945068.0407981873-.5549926758.1332015991-.171005249.0923995972-.31300354.2280006409-.4140014648.3931007385h-.0220031738v-.4420013428h-.8190002441v3.157699585h.8829956055v-1.6367988586h-.0419921875Zm4.7420043945,1.2605018616l.0220031738.3973999023h.8220062256v-4.3841018677h-.8780059814v1.5973014832c-.1049957275-.1529006958-.2460021973-.2774009705-.4109954834-.3619003296-.1649932861-.0845985413-.3489990234-.1265983582-.5350036621-.1222000122-.9270019531,0-1.4120025635.7893981934-1.4120025635,1.6394004822,0,.8815002441.4640045166,1.6999015808,1.4329986572,1.6999015808.18800354.0200996399.3780059814-.0124015808.5489959717-.0937004089s.3159942627-.2083015442.4179992676-.3667984009l-.0079956055-.0053024292Zm-1.5359954834-1.1972999573c0-.5262985229.1900024414-1.0105018616.7910003662-1.0105018616s.7559967041.4841995239.7559967041,1.0104980469-.1660003662,1.0289001465-.7559967041,1.0289001465c-.5639953613.0052986145-.796005249-.5209999084-.796005249-1.023601532l.0050048828-.0052947998Zm3.7920074463,1.6789016724c.1929931641.004699707.3840026855-.0414009094.5540008545-.1338005066s.31199646-.2277984619.4129943848-.3925018311h.0209960938v.4393997192h.8220062256v-3.157699585h-.8639984131v1.6604003906c0,.6500015259-.2109985352.9025993347-.6750030518.9025993347-.3979949951,0-.5659942627-.2630996704-.5659942627-.7893981934v-1.784198761h-.8639984131v1.9525985718c-.0059967041.784198761.2259979248,1.307800293,1.154006958,1.307800293l.004989624-.0051994324Zm3.93699646-1.9947013855c-.5059967041-.1263008118-.9909973145-.1683998108-.9909973145-.4841995239,0-.2630996704.2949981689-.292098999.4850006104-.292098999.3159942627,0,.5690002441.0816001892.5899963379.4183998108h.8220062256c-.06300354-.7761993408-.7169952393-1.0078010559-1.4120025635-1.0078010559-.6959991455,0-1.3890075684.2104988098-1.3890075684,1.0289001465,0,.5684013367.5030059814.7368011475,1.0090026855.8394012451.6329956055.1263008118.9909973145.2316017151.9909973145.4841995239,0,.3157997131-.3159942627.4000015259-.5690002441.4000015259-.3370056152,0-.6750030518-.1473999023-.6750030518-.5262985229h-.7899932861c.0420074463.8420982361.7559967041,1.1130981445,1.4940032959,1.1130981445s1.4519958496-.2630996704,1.4519958496-1.1130981445c0-.5657997131-.5039978027-.7341995239-1.0099945068-.8605003357l-.0070037842-.0000038147Zm1.4940032959,1.1972999573c0,.6288986206.4629974365.7552986145,1.0110015869.7552986145.1690063477.0038986206.3379974365-.0031013489.5059967041-.0210990906v-.6710014343c-.0859985352.0173988342-.1750030518.0245018005-.2630004883.0209999084-.2949981689,0-.3800048828-.0842018127-.3800048828-.3788986206v-1.5788993835h.6269989014v-.5867996216h-.6320037842v-.9446983337h-.8959960938v.9446983337h-.5269927979v.5867996216h.5269927979v1.8709983826l.0270080566.0026016235Zm3.7070007324-1.7235984802l.8190002441,2.2289009094c.0220031738.0722999573.0260009766.1487007141.0140075684.2229995728-.0130004883.0744018555-.0429992676.1447982788-.0879974365.2056999207s-.1029968262.1105995178-.1699981689.145401001c-.0670013428.0346984863-.1410064697.0535011292-.2169952393.0547981262h-.0420074463v.815700531h.0839996338c.5269927979-.0209999084.9889984131-.1867980957,1.2409973145-.7893981934l1.3179931641-3.6339988708h-.9060058594l-.6959991455,2.1629981995h-.0209960938l-.6929931641-2.1841011047-.949005127-.0209999084c-.18699646.0183982849-.3659973145.089099884-.5149993896.2041015625-.1490020752.1148986816-.2630004883.2694015503-.3280029297.4458007812h-.0030059814v-.5867996216h-.8190002441v3.1577987671h.8829956055v-1.4289016724c0-.5657997131.2319946289-1.0289001465.8639984131-1.0289001465.0420074463,0,.1479949951.0209999084.2319946289.0209999084l-.0079803467.007900238Zm-25.6060028076,1.4710006714h1.6439971924l.3339996338.9868011475h1.0119934082l-1.6410064697-4.3893013h-.9909973145l-1.6840057373,4.3893013h.9880065918l.3380126953-.9868011475Zm.8430023193-2.3315010071l.5690002441,1.6184005737h-1.1380004883l.5690002441-1.6184005737Zm3.0269927979,1.6394004822c0-.6525993347.2109985352-.9052009583.6719970703-.9052009583.4010009766,0,.5690002441.2631988525.5690002441.7895011902v1.8050994873h.8990020752v-1.9735984802c0-.7893981934-.2319946289-1.315700531-1.1600036621-1.315700531-.1929931641-.0052986145-.3840026855.040599823-.5540008545.1330986023-.1699981689.0923995972-.31199646.228099823-.4129943848.3931999207h-.0209960938v-.4421005249h-.8430023193v3.1999015808h.8829956055v-1.6842002869h-.0319976807Z"/>
    <path class="cls-1" d="m59.3760070801,23.6936006546h-11.8760070801v11.8467979431h11.8760070801v-11.8467979431Z"/>
    <path class="cls-1" d="m55.1600036621.0000009537h-7.6600036621v11.8467998505h11.8760070801v-7.6308994293C59.3760070801,1.8875017166,57.4880065918.0000009537,55.1600036621.0000009537Z"/>
    <path class="cls-2" d="m35.6269989014.0000009537h-11.8759994507v11.8467998505h11.8759994507V.0000009537Z"/>
    <g>
      <path class="cls-1" d="m11.8759994507,9.4996004105V0H0v31.8406000137c0,.4863014221.0960006714.9678993225.2825012207,1.417098999s.4598999023.8572998047.8044967651,1.2009010315c.3444976807.3437004089.7536010742.6161003113,1.2035980225.801700592.4501037598.1856002808.9324035645.2807998657,1.4194030762.2801017761h8.1679992676v-9.4890022278c-.0019989014-.3100013733.0559997559-.6175003052.172996521-.9047012329s.2900009155-.548500061.5080032349-.768699646c.21900177-.220199585.4789962769-.3950004578.7649993896-.5141983032.2870025635-.1193008423.59400177-.1806983948.9049987793-.1806983948h9.5199966431v-11.8414993286h-9.5200042725c-.6230010986,0-1.2200012207-.2465000153-1.6610031128-.6854991913s-.6900024414-1.0347003937-.6920013428-1.6564998627l.0000152588-.0000038147Z"/>
      <path class="cls-1" d="m35.6269989014,23.6936006546h-11.8759994507v11.8467979431h11.8759994507v-11.8467979431Z"/>
      <path class="cls-1" d="m1.6309967041,41.4639024734v3.3577003479h4.0050964355v-3.3577003479h1.6311035156v8.4206008911h-1.6311035156v-3.3681983948H1.6309967041v3.3681983948H0v-8.4206008911h1.6309967041Zm19.6539993286-.1078987122c.8300018311.0027999878,1.6449966431.2145996094,2.3720016479.6156997681v1.6604995728c-.8730010986-.5262985229-1.4599990845-.8552017212-2.3460006714-.8552017212-.8430023193,0-1.1910018921.2999000549-1.2170028687.7156982422-.0210037231.3157997131.1740036011.5867996216.6009979248.8605003357.1210021973.0788993835.5690002441.3078994751,1.3669967651.7052001953.5729980469.2484016418,1.0849990845.6183013916,1.5,1.0842018127.3099975586.4127006531.4720001221.9180984497.4580001831,1.4341011047.0100021362.332901001-.0559997559.6637992859-.1930007935.9674987793-.1360015869.3036003113-.341003418.572101593-.5970001221.7850990295-.5719985962.461101532-1.2929992676.6978988647-2.0270004272.6656990051-.4710006714.0089988708-.9400024414-.0513000488-1.3939971924-.1789016724-.4619979858-.1497993469-.9039993286-.3546981812-1.3170013428-.6105003357v-1.841999054c.9039993286.7472991943,1.7310028076,1.2078018188,2.5299987793,1.2078018188.7529983521,0,1.2509994507-.284198761,1.2509994507-.7893981934,0-.1885986328-.0540008545-.3731994629-.15599823-.5323982239-.1009979248-.159198761-.2450027466-.2867012024-.4160003662-.3675994873-.3470001221-.2052001953-.7900009155-.4393997192-1.3359985352-.7314987183-.5569992065-.2649002075-1.06199646-.629699707-1.4879989624-1.0763015747-.3259963989-.3849983215-.5009994507-.8748016357-.4929962158-1.3788986206-.0120010376-.3244018555.0540008545-.646900177.1910018921-.9411010742.1380004883-.2941017151.3430023193-.5514984131.5989990234-.7509002686.6070022583-.4543991089,1.3539962769-.6833000183,2.111000061-.6473007202Zm35.7170028687,0c.828994751.0029983521,1.6450042725.2148017883,2.3710021973.6156997681v1.6604995728c-.875-.5262985229-1.4620056152-.8552017212-2.3480072021-.8552017212-.8430023193,0-1.18800354.2999000549-1.2169952393.7156982422-.0209960938.3157997131.1739959717.5867996216.6009979248.8605003357.1239929199.0788993835.5720062256.3078994751,1.3670043945.7052001953.574005127.2470016479,1.0859985352.617099762,1.5,1.0842018127.3099975586.4127006531.4720001221.9180984497.4579925537,1.4341011047.0099945068.332901001-.0559997559.6637992859-.1929931641.9674987793-.1360015869.3036003113-.341003418.572101593-.5970001221.7850990295-.5720062256.4616012573-1.2920074463.6983985901-2.0269927979.6656990051-.470993042.0088005066-.9400024414-.0514984131-1.3939971924-.1789016724-.4620056152-.1496009827-.904006958-.354598999-1.3170013428-.6105003357v-1.841999054c.9010009766.7472991943,1.7290039062,1.2078018188,2.5269927979,1.2078018188.7539978027,0,1.2539978027-.284198761,1.2539978027-.7893981934-.0010070801-.1888008118-.0559997559-.3734016418-.1569976807-.532699585-.1020050049-.159198761-.2460021973-.2864990234-.4170074463-.3672981262-.3480072021-.2052001953-.7910003662-.4393997192-1.3339996338-.7314987183-.5579986572-.2639007568-1.06300354-.6288986206-1.4880065918-1.0763015747-.3260040283-.3849983215-.5010070801-.8748016357-.4929962158-1.3788986206-.0110015869-.3242988586.0540008545-.6467018127.1920013428-.9407997131.1369934082-.2941017151.3419952393-.5514984131.5980072021-.7512016296.608001709-.4543991089,1.3549957275-.6833000183,2.1139984131-.6473007202Zm-25.0319976807.1078987122v1.4603996277h-2.7799987793v6.9628982544h-1.6340026855v-6.9628982544h-2.7689971924v-1.4603996277h7.1829986572Zm4.1809997559,0c1.7760009766,0,2.6669998169,1.1473007202,2.6669998169,2.631401062,0,1.53150177-1.1009979248,2.6315002441-2.7269973755,2.6315002441h-1.3809967041v3.157699585h-1.6340026855v-8.4206008911h3.0749969482Zm-.4710006714,3.7971992493c.8030014038,0,1.4909973145-.3763008118,1.4909973145-1.1710014343s-.4609985352-1.1736984253-1.4909973145-1.1736984253h-.9800033569v2.3446998596h.9800033569Zm5.8940048218-3.8050994873v6.9627990723h3.5489959717v1.4604988098h-5.1829986572v-8.4207000732l1.6340026855-.0025978088Zm9.8710021973,0v4.7128982544c0,1.3446998596-.5269927979,2.2709999084-2.0319976807,2.2709999084-1.5039978027,0-2.029006958-.9263000488-2.029006958-2.2709999084v-4.7050018311h-1.6390075684v5.0654983521c0,2.4893989563,1.6889953613,3.4655990601,3.6679992676,3.4655990601s3.671005249-.9762001038,3.671005249-3.4655990601v-5.0654983521l-1.6389923096-.0078964233Zm-35.2770004272,1.1473007202c-.4319992065-.4073982239-.9400024414-.7258987427-1.4950027466-.9371986389s-1.1470031738-.3112983704-1.7409973145-.2943000793c-.591003418-.0173988342-1.1800003052.0825996399-1.733001709.2938995361-.552696228.2113990784-1.0579986572.5301017761-1.4866027832.9375991821-.4187011719.4024009705-.7488021851.8875007629-.9692993164,1.4244003296s-.326499939,1.1138000488-.3113021851,1.693901062c-.0131988525.570098877.0932006836,1.1366996765.3123016357,1.6632995605.2192001343.5266990662.5464019775,1.0015983582.9604034424,1.3944015503.4204025269.4015007019.9162979126.7159004211,1.4585037231.9249992371.5429992676.2090988159,1.1220016479.3087997437,1.7030029297.2933998108,1.2129974365.0382995605,2.391998291-.3978996277,3.2860031128-1.215801239.4270019531-.3903999329.7659988403-.8675994873.9929962158-1.3995018005.2279968262-.5320014954.3379974365-1.106300354.3249969482-1.6845016479.0130004883-.5783004761-.0960006714-1.1529006958-.3199996948-1.6862983704-.2239990234-.5332984924-.5589981079-1.0131988525-.9820022583-1.4082984924Zm-3.2249984741,5.973400116c-.375.0125007629-.7480010986-.0536003113-1.0960006714-.1941986084-.3479995728-.140499115-.6620025635-.3521995544-.9225006104-.6216011047-.2641983032-.2680015564-.4705963135-.5872001648-.6065979004-.9379997253-.1359024048-.3507003784-.1985015869-.7254981995-.1838989258-1.1012992859-.0167999268-.3824005127.0446014404-.7641983032.1804962158-1.1221008301s.34349823-.684299469.6100006104-.959400177c.2665023804-.2720985413.5865020752-.4851989746.9404983521-.6258010864.3539962769-.140499115.7340011597-.2052001953,1.1149978638-.1899986267.3720016479-.0089988708.7409973145.0596008301,1.0849990845.2014007568.34400177.1418991089.6549987793.3538017273.9120025635.6222991943.2659988403.2647018433.4749984741.5811004639.6139984131.929599762.138999939.348400116.2060012817.7215995789.1949996948,1.0965995789.0130004883.3819007874-.0520019531.7625007629-.1910018921,1.1184997559-.1399993896.3559989929-.3499984741.6800994873-.6179962158.9524993896-.2610015869.2737998962-.5780029297.4893989563-.9280014038.6327018738-.3509979248.1431999207-.7279968262.2109985352-1.1059951782.1987991333Z"/>
      <path class="cls-1" d="m72.0599975586.0000009537h-.6580047607v49.9976997375h.6580047607V.0000009537Z"/>
    </g>
  </g>
</svg>