<svg width="160" height="600" viewBox="0 0 160 600" fill="none" xmlns="http://www.w3.org/2000/svg">
<g clip-path="url(#clip0_8658_19924)">
<path d="M16.8519 241V224.942H26.9788V227.216H19.4539V231.764H25.5723V234.014H19.4539V238.703H26.9788V241H16.8519ZM31.5906 241H29.0354V229.279H31.5671V230.006C32.708 229.349 33.7863 229.021 34.8021 229.021C36.3649 229.021 37.4276 229.467 37.9902 230.357C38.5684 231.233 38.8575 232.686 38.8575 234.718V241H36.3258V234.788C36.3258 233.522 36.1852 232.623 35.9039 232.092C35.6382 231.561 35.0834 231.295 34.2395 231.295C33.4425 231.295 32.6767 231.451 31.9422 231.764L31.5906 231.905V241ZM41.3869 240.555V229.279H43.9186V240.578C43.9186 242.11 43.6451 243.243 43.0981 243.977C42.5668 244.712 41.4884 245.493 39.8631 246.321L38.8551 244.423C39.9491 243.735 40.6445 243.172 40.9415 242.735C41.2384 242.313 41.3869 241.586 41.3869 240.555ZM41.3869 227.287V224.591H43.9186V227.287H41.3869ZM47.2048 230.545C48.0175 229.529 49.3615 229.021 51.2368 229.021C53.1122 229.021 54.4483 229.529 55.2454 230.545C56.058 231.561 56.4643 233.084 56.4643 235.116C56.4643 237.148 56.0736 238.679 55.2922 239.711C54.5109 240.742 53.159 241.258 51.2368 241.258C49.3146 241.258 47.9628 240.742 47.1814 239.711C46.4 238.679 46.0093 237.148 46.0093 235.116C46.0093 233.084 46.4078 231.561 47.2048 230.545ZM49.127 238.164C49.4865 238.789 50.1897 239.101 51.2368 239.101C52.2839 239.101 52.9871 238.789 53.3466 238.164C53.706 237.538 53.8857 236.515 53.8857 235.093C53.8857 233.671 53.6904 232.663 53.2997 232.069C52.9246 231.475 52.237 231.178 51.2368 231.178C50.2366 231.178 49.5412 231.475 49.1505 232.069C48.7754 232.663 48.5879 233.671 48.5879 235.093C48.5879 236.515 48.7676 237.538 49.127 238.164ZM57.2493 229.279H59.7575L62.2424 238.82H62.8753L65.3601 229.279H67.8918L63.4379 246.04H60.9296L62.3361 241H60.3201L57.2493 229.279ZM81.1813 229.279H83.713V241H81.1813V240.273C80.0405 240.93 78.9856 241.258 78.0167 241.258C76.407 241.258 75.3287 240.828 74.7817 239.969C74.2347 239.093 73.9613 237.57 73.9613 235.397V229.279H76.5164V235.421C76.5164 236.827 76.6336 237.773 76.868 238.257C77.1025 238.742 77.6494 238.984 78.509 238.984C79.3529 238.984 80.1265 238.828 80.8297 238.515L81.1813 238.375V229.279ZM86.3378 246.04V229.279H88.8695V230.006C89.9478 229.349 90.9558 229.021 91.8935 229.021C93.4407 229.021 94.5737 229.498 95.2926 230.451C96.0115 231.389 96.3709 232.975 96.3709 235.21C96.3709 237.429 95.9568 238.992 95.1285 239.898C94.3158 240.805 92.9796 241.258 91.1199 241.258C90.4792 241.258 89.7369 241.188 88.893 241.047V246.04H86.3378ZM91.4481 231.295C90.7136 231.295 89.9791 231.459 89.2446 231.787L88.893 231.951V238.867C89.5181 238.992 90.2057 239.054 90.9558 239.054C92.0185 239.054 92.753 238.75 93.1594 238.14C93.5657 237.531 93.7689 236.491 93.7689 235.022C93.7689 232.538 92.9953 231.295 91.4481 231.295ZM109.448 231.459H106.213V236.616C106.213 237.57 106.283 238.203 106.424 238.515C106.564 238.828 106.924 238.984 107.502 238.984L109.424 238.914L109.541 240.953C108.494 241.156 107.697 241.258 107.15 241.258C105.822 241.258 104.908 240.953 104.408 240.344C103.923 239.734 103.681 238.585 103.681 236.898V231.459H102.181V229.279H103.681V225.88H106.213V229.279H109.448V231.459ZM111.707 230.545C112.52 229.529 113.864 229.021 115.739 229.021C117.615 229.021 118.951 229.529 119.748 230.545C120.561 231.561 120.967 233.084 120.967 235.116C120.967 237.148 120.576 238.679 119.795 239.711C119.013 240.742 117.662 241.258 115.739 241.258C113.817 241.258 112.465 240.742 111.684 239.711C110.902 238.679 110.512 237.148 110.512 235.116C110.512 233.084 110.91 231.561 111.707 230.545ZM113.63 238.164C113.989 238.789 114.692 239.101 115.739 239.101C116.786 239.101 117.49 238.789 117.849 238.164C118.209 237.538 118.388 236.515 118.388 235.093C118.388 233.671 118.193 232.663 117.802 232.069C117.427 231.475 116.739 231.178 115.739 231.178C114.739 231.178 114.044 231.475 113.653 232.069C113.278 232.663 113.09 233.671 113.09 235.093C113.09 236.515 113.27 237.538 113.63 238.164Z" fill="#FFE344"/>
<path d="M80.9541 251.612C86.3997 251.612 90.495 253.371 93.2393 256.887C96.0263 260.403 97.4199 266.063 97.4199 273.867C97.4199 281.629 96.0471 287.203 93.3027 290.591C90.5585 293.935 86.4424 295.607 80.9541 295.607C75.4656 295.607 71.3488 293.935 68.6045 290.591C65.8601 287.203 64.4873 281.629 64.4873 273.867C64.4873 266.063 65.8602 260.403 68.6045 256.887C71.3917 253.371 75.5084 251.612 80.9541 251.612ZM115.659 251.612C121.105 251.612 125.2 253.371 127.944 256.887C130.732 260.403 132.125 266.063 132.125 273.867C132.125 281.629 130.753 287.203 128.009 290.591C125.264 293.935 121.148 295.607 115.659 295.607C110.171 295.607 106.054 293.935 103.31 290.591C100.565 287.203 99.1934 281.629 99.1934 273.867C99.1934 266.063 100.565 260.403 103.31 256.887C106.097 253.371 110.213 251.612 115.659 251.612ZM48.9492 251.612C57.9539 251.612 62.4569 255.664 62.457 263.769C62.457 266.942 61.7706 269.686 60.3984 272.002C59.0263 274.317 56.5393 277.126 52.9375 280.428L45.541 287.117H63.1641V294.836H35.6357V287.311L44.7041 278.112C47.9201 274.811 50.15 272.281 51.3936 270.522C52.68 268.764 53.3232 266.899 53.3232 264.927C53.3232 262.912 52.7876 261.496 51.7158 260.682C50.6867 259.867 49.2069 259.46 47.2773 259.46C44.4044 259.46 41.2742 259.717 37.8867 260.231L36.3428 260.424L35.8926 253.542C40.0947 252.256 44.4469 251.612 48.9492 251.612ZM80.9541 259.331C78.3384 259.331 76.4507 260.403 75.293 262.547C74.1781 264.691 73.6211 268.401 73.6211 273.675C73.6211 278.949 74.1998 282.636 75.3574 284.737C76.5151 286.838 78.4021 287.89 81.0176 287.89C83.6333 287.89 85.4994 286.838 86.6143 284.737C87.729 282.636 88.2861 278.949 88.2861 273.675C88.2861 268.358 87.7291 264.648 86.6143 262.547C85.4994 260.403 83.6124 259.331 80.9541 259.331ZM115.659 259.331C113.044 259.331 111.157 260.403 109.999 262.547C108.884 264.691 108.326 268.401 108.326 273.675C108.326 278.949 108.906 282.636 110.063 284.737C111.221 286.838 113.108 287.89 115.724 287.89C118.339 287.89 120.204 286.838 121.319 284.737C122.434 282.636 122.991 278.949 122.991 273.675C122.991 268.358 122.434 264.648 121.319 262.547C120.204 260.403 118.318 259.331 115.659 259.331ZM27.041 256.558C28.6361 256.712 30.1026 256.918 31.4404 257.175L32.0967 257.329L31.6719 261.42C29.7937 261.214 28.0571 261.06 26.4619 260.957L25.6904 267.17C28.366 268.019 30.1799 268.958 31.1318 269.987C32.1095 270.991 32.5977 272.522 32.5977 274.58C32.5976 277.256 31.7878 279.288 30.167 280.678C28.5461 282.041 26.4231 282.723 23.7988 282.723H23.7607L23.1816 287.276C21.2791 287.199 20.3275 287.11 20.3262 287.007L20.8662 282.53C18.9623 282.299 17.3665 282.028 16.0801 281.72L15.3086 281.565L15.8105 277.552C17.843 277.835 19.7216 278.028 21.4453 278.131L22.2939 271.415C19.644 270.617 17.7655 269.653 16.6592 268.521C15.5531 267.388 15 265.845 15 263.89C15 261.343 15.7718 259.452 17.3154 258.217C18.8591 256.956 20.9821 256.326 23.6836 256.326H24.1846L24.8799 251H27.7354L27.041 256.558ZM24.3389 278.169C26.4229 277.937 27.4648 276.856 27.4648 274.927C27.4648 274.309 27.2849 273.808 26.9248 273.422C26.5903 273.01 25.9726 272.625 25.0723 272.265L24.3389 278.169ZM23.6064 260.88C21.2909 260.983 20.1328 261.871 20.1328 263.543C20.1329 264.16 20.3261 264.662 20.7119 265.048C21.0979 265.434 21.8441 265.833 22.9502 266.244L23.6064 260.88Z" fill="#FFE344"/>
<path d="M16.5472 316.608V304.887H19.1023V316.608H16.5472ZM16.5472 302.894V300.199H19.1023V302.894H16.5472ZM24.2879 316.608H21.7327V304.887H24.2645V305.614C25.4053 304.957 26.4836 304.629 27.4994 304.629C29.0622 304.629 30.1249 305.075 30.6875 305.965C31.2657 306.84 31.5549 308.294 31.5549 310.326V316.608H29.0231V310.396C29.0231 309.13 28.8825 308.231 28.6012 307.7C28.3355 307.169 27.7807 306.903 26.9368 306.903C26.1398 306.903 25.374 307.059 24.6395 307.372L24.2879 307.512V316.608ZM44.2046 304.629C45.8143 304.629 46.9708 305.082 47.674 305.989C48.3929 306.88 48.7523 308.466 48.7523 310.747C48.7523 313.029 48.3304 314.623 47.4865 315.53C46.6426 316.42 45.1579 316.866 43.0325 316.866C42.298 316.866 41.1338 316.795 39.5397 316.655L38.7427 316.584V300.011H41.2744V305.332C42.3527 304.864 43.3295 304.629 44.2046 304.629ZM43.0325 314.592C44.2828 314.592 45.1111 314.303 45.5174 313.725C45.9393 313.131 46.1503 312.131 46.1503 310.724C46.1503 309.318 45.9706 308.333 45.6111 307.77C45.2673 307.192 44.6969 306.903 43.8999 306.903C43.1498 306.903 42.3996 307.02 41.6495 307.255L41.2744 307.372V314.498C42.1339 314.561 42.72 314.592 43.0325 314.592ZM50.8418 316.608V304.887H53.3969V316.608H50.8418ZM50.8418 302.894V300.199H53.3969V302.894H50.8418ZM56.168 316.608V300.011H58.7232V316.608H56.168ZM61.6283 316.608V300.011H64.1835V316.608H61.6283ZM76.0135 304.629C76.8418 304.629 77.8185 304.739 78.9437 304.957L79.5298 305.075L79.436 307.091C78.2014 306.966 77.2872 306.903 76.6933 306.903C75.5056 306.903 74.7086 307.169 74.3023 307.7C73.8959 308.231 73.6928 309.232 73.6928 310.701C73.6928 312.17 73.8881 313.185 74.2788 313.748C74.6695 314.311 75.4822 314.592 76.7168 314.592L79.4595 314.404L79.5298 316.444C77.9514 316.725 76.7637 316.866 75.9666 316.866C74.1851 316.866 72.927 316.389 72.1925 315.436C71.4736 314.467 71.1142 312.888 71.1142 310.701C71.1142 308.513 71.4971 306.958 72.2628 306.036C73.0286 305.098 74.2788 304.629 76.0135 304.629ZM81.5313 316.608V304.887H84.063V306.294C85.3914 305.434 86.7198 304.879 88.0481 304.629V307.184C86.7041 307.45 85.5555 307.794 84.6022 308.216L84.0865 308.427V316.608H81.5313ZM97.7864 314.498L98.4427 314.428L98.4896 316.327C96.708 316.686 95.1296 316.866 93.7544 316.866C92.0197 316.866 90.7695 316.389 90.0037 315.436C89.2536 314.483 88.8785 312.959 88.8785 310.865C88.8785 306.708 90.5741 304.629 93.9654 304.629C97.2472 304.629 98.8881 306.419 98.8881 309.997L98.724 311.826H91.4571C91.4727 312.795 91.6837 313.506 92.09 313.959C92.4963 314.412 93.2543 314.639 94.3639 314.639C95.4734 314.639 96.6143 314.592 97.7864 314.498ZM96.3799 309.857C96.3799 308.7 96.1923 307.895 95.8173 307.442C95.4578 306.973 94.8405 306.739 93.9654 306.739C93.0902 306.739 92.4495 306.981 92.0431 307.466C91.6524 307.95 91.4493 308.747 91.4336 309.857H96.3799ZM110.441 300.011V316.608H107.909V315.998C106.768 316.577 105.721 316.866 104.768 316.866C103.236 316.866 102.111 316.405 101.392 315.483C100.689 314.561 100.337 313.014 100.337 310.841C100.337 308.669 100.728 307.091 101.509 306.106C102.306 305.121 103.541 304.629 105.213 304.629C105.776 304.629 106.666 304.731 107.885 304.934V300.011H110.441ZM107.487 314.17L107.885 314.006V307.067C106.948 306.911 106.08 306.833 105.283 306.833C103.705 306.833 102.916 308.145 102.916 310.771C102.916 312.209 103.095 313.209 103.455 313.771C103.83 314.318 104.416 314.592 105.213 314.592C106.01 314.592 106.768 314.451 107.487 314.17ZM113.067 316.608V304.887H115.622V316.608H113.067ZM113.067 302.894V300.199H115.622V302.894H113.067ZM124.558 307.067H121.323V312.224C121.323 313.178 121.394 313.811 121.534 314.123C121.675 314.436 122.034 314.592 122.613 314.592L124.535 314.522L124.652 316.561C123.605 316.764 122.808 316.866 122.261 316.866C120.933 316.866 120.018 316.561 119.518 315.952C119.034 315.342 118.792 314.193 118.792 312.506V307.067H117.291V304.887H118.792V301.488H121.323V304.887H124.558V307.067ZM134.32 307.302C132.475 307.051 131.139 306.926 130.311 306.926C129.483 306.926 128.904 307.028 128.576 307.231C128.264 307.419 128.107 307.723 128.107 308.145C128.107 308.567 128.279 308.864 128.623 309.036C128.983 309.208 129.811 309.411 131.108 309.646C132.421 309.864 133.351 310.216 133.898 310.701C134.445 311.185 134.718 312.045 134.718 313.279C134.718 314.514 134.32 315.42 133.522 315.998C132.741 316.577 131.592 316.866 130.077 316.866C129.123 316.866 127.92 316.733 126.466 316.467L125.74 316.35L125.834 314.217C127.709 314.467 129.061 314.592 129.889 314.592C130.717 314.592 131.303 314.49 131.647 314.287C132.007 314.084 132.186 313.748 132.186 313.279C132.186 312.81 132.014 312.49 131.671 312.318C131.342 312.131 130.538 311.935 129.256 311.732C127.99 311.513 127.06 311.177 126.466 310.724C125.873 310.271 125.576 309.443 125.576 308.239C125.576 307.036 125.982 306.137 126.795 305.543C127.623 304.95 128.678 304.653 129.959 304.653C130.96 304.653 132.186 304.778 133.64 305.028L134.366 305.168L134.32 307.302ZM140.53 301.519H138.744L139.293 303.235L138.421 303.502L137.844 301.772L136.367 302.883L135.805 302.166L137.31 301.055L135.847 300.014L136.395 299.255L137.844 300.31L138.407 298.58L139.307 298.875L138.758 300.619H140.53V301.519Z" fill="#FFE344"/>
<path d="M16.8519 342.608V326.55H21.3762L24.9628 339.092L28.5494 326.55H33.0971V342.608H30.4716V329.434H30.12L26.3224 341.952H23.6031L19.8056 329.434H19.4539V342.608H16.8519ZM36.4903 332.153C37.3029 331.137 38.6469 330.629 40.5223 330.629C42.3976 330.629 43.7338 331.137 44.5308 332.153C45.3435 333.169 45.7498 334.692 45.7498 336.724C45.7498 338.756 45.3591 340.287 44.5777 341.319C43.7963 342.35 42.4445 342.866 40.5223 342.866C38.6 342.866 37.2482 342.35 36.4668 341.319C35.6854 340.287 35.2947 338.756 35.2947 336.724C35.2947 334.692 35.6933 333.169 36.4903 332.153ZM38.4125 339.771C38.7719 340.397 39.4752 340.709 40.5223 340.709C41.5693 340.709 42.2726 340.397 42.632 339.771C42.9915 339.146 43.1712 338.123 43.1712 336.701C43.1712 335.278 42.9758 334.27 42.5851 333.677C42.2101 333.083 41.5224 332.786 40.5223 332.786C39.5221 332.786 38.8266 333.083 38.4359 333.677C38.0609 334.27 37.8733 335.278 37.8733 336.701C37.8733 338.123 38.0531 339.146 38.4125 339.771ZM46.5342 330.887H49.2065L51.4569 340.428H52.2071L54.5513 330.887H57.1533L54.1059 342.608H49.5582L46.5342 330.887ZM66.8441 340.498L67.5005 340.428L67.5474 342.327C65.7658 342.686 64.1874 342.866 62.8121 342.866C61.0774 342.866 59.8272 342.389 59.0614 341.436C58.3113 340.483 57.9362 338.959 57.9362 336.865C57.9362 332.708 59.6318 330.629 63.0231 330.629C66.3049 330.629 67.9459 332.419 67.9459 335.997L67.7818 337.826H60.5148C60.5304 338.795 60.7414 339.506 61.1478 339.959C61.5541 340.412 62.312 340.639 63.4216 340.639C64.5312 340.639 65.672 340.592 66.8441 340.498ZM65.4376 335.857C65.4376 334.7 65.2501 333.895 64.875 333.442C64.5156 332.973 63.8983 332.739 63.0231 332.739C62.1479 332.739 61.5072 332.981 61.1009 333.466C60.7102 333.95 60.507 334.747 60.4914 335.857H65.4376ZM77.1711 342.608H74.616V326.011H77.1711V331.496C78.3276 330.918 79.3981 330.629 80.3827 330.629C81.9455 330.629 83.0081 331.075 83.5707 331.965C84.149 332.84 84.4381 334.294 84.4381 336.326V342.608H81.8829V336.396C81.8829 335.13 81.7501 334.231 81.4844 333.7C81.2188 333.169 80.6562 332.903 79.7966 332.903C79.0465 332.903 78.2963 333.028 77.5462 333.278L77.1711 333.419V342.608ZM87.5769 332.153C88.3896 331.137 89.7336 330.629 91.6089 330.629C93.4842 330.629 94.8204 331.137 95.6175 332.153C96.4301 333.169 96.8364 334.692 96.8364 336.724C96.8364 338.756 96.4457 340.287 95.6643 341.319C94.8829 342.35 93.5311 342.866 91.6089 342.866C89.6867 342.866 88.3349 342.35 87.5535 341.319C86.7721 340.287 86.3814 338.756 86.3814 336.724C86.3814 334.692 86.7799 333.169 87.5769 332.153ZM89.4991 339.771C89.8586 340.397 90.5618 340.709 91.6089 340.709C92.656 340.709 93.3592 340.397 93.7187 339.771C94.0781 339.146 94.2578 338.123 94.2578 336.701C94.2578 335.278 94.0625 334.27 93.6718 333.677C93.2967 333.083 92.6091 332.786 91.6089 332.786C90.6087 332.786 89.9133 333.083 89.5226 333.677C89.1475 334.27 88.96 335.278 88.96 336.701C88.96 338.123 89.1397 339.146 89.4991 339.771ZM101.461 342.608H98.9057V330.887H101.437V331.614C102.547 330.957 103.563 330.629 104.485 330.629C105.844 330.629 106.837 331.012 107.462 331.778C108.884 331.012 110.298 330.629 111.705 330.629C113.111 330.629 114.104 331.067 114.682 331.942C115.26 332.801 115.549 334.263 115.549 336.326V342.608H113.018V336.396C113.018 335.13 112.885 334.231 112.619 333.7C112.369 333.169 111.838 332.903 111.025 332.903C110.322 332.903 109.564 333.059 108.751 333.372L108.353 333.536C108.478 333.848 108.54 334.849 108.54 336.536V342.608H106.009V336.583C106.009 335.192 105.884 334.231 105.634 333.7C105.383 333.169 104.836 332.903 103.993 332.903C103.211 332.903 102.484 333.059 101.813 333.372L101.461 333.512V342.608ZM126.424 340.498L127.08 340.428L127.127 342.327C125.346 342.686 123.767 342.866 122.392 342.866C120.657 342.866 119.407 342.389 118.641 341.436C117.891 340.483 117.516 338.959 117.516 336.865C117.516 332.708 119.212 330.629 122.603 330.629C125.885 330.629 127.526 332.419 127.526 335.997L127.361 337.826H120.095C120.11 338.795 120.321 339.506 120.727 339.959C121.134 340.412 121.892 340.639 123.001 340.639C124.111 340.639 125.252 340.592 126.424 340.498ZM125.017 335.857C125.017 334.7 124.83 333.895 124.455 333.442C124.095 332.973 123.478 332.739 122.603 332.739C121.728 332.739 121.087 332.981 120.681 333.466C120.29 333.95 120.087 334.747 120.071 335.857H125.017ZM25.2206 357.497V362.842C25.2363 363.186 25.3222 363.443 25.4785 363.615C25.6504 363.772 25.9083 363.873 26.2521 363.92L26.1817 365.866C24.8377 365.866 23.7985 365.577 23.064 364.998C21.8138 365.577 20.5557 365.866 19.2898 365.866C16.9613 365.866 15.797 364.623 15.797 362.139C15.797 360.951 16.1096 360.091 16.7347 359.56C17.3754 359.029 18.3522 358.708 19.6649 358.599L22.6889 358.341V357.497C22.6889 356.872 22.5483 356.434 22.267 356.184C22.0013 355.934 21.6028 355.809 21.0714 355.809C20.0712 355.809 18.821 355.872 17.3207 355.997L16.5706 356.044L16.4768 354.239C18.1803 353.832 19.7431 353.629 21.1652 353.629C22.603 353.629 23.6344 353.942 24.2595 354.567C24.9003 355.176 25.2206 356.153 25.2206 357.497ZM19.9697 360.404C18.8913 360.498 18.3522 361.084 18.3522 362.162C18.3522 363.24 18.8288 363.779 19.7821 363.779C20.5635 363.779 21.3918 363.654 22.267 363.404L22.6889 363.264V360.146L19.9697 360.404ZM30.5146 365.608H27.9595V353.887H30.4912V354.614C31.632 353.957 32.7103 353.629 33.7262 353.629C35.2889 353.629 36.3516 354.075 36.9142 354.965C37.4925 355.84 37.7816 357.294 37.7816 359.326V365.608H35.2499V359.396C35.2499 358.13 35.1092 357.231 34.8279 356.7C34.5622 356.169 34.0075 355.903 33.1636 355.903C32.3665 355.903 31.6008 356.059 30.8663 356.372L30.5146 356.512V365.608ZM49.8517 349.011V365.608H47.32V364.998C46.1792 365.577 45.1321 365.866 44.1788 365.866C42.6473 365.866 41.5221 365.405 40.8032 364.483C40.0999 363.561 39.7483 362.014 39.7483 359.841C39.7483 357.669 40.139 356.091 40.9204 355.106C41.7174 354.121 42.952 353.629 44.6242 353.629C45.1868 353.629 46.0776 353.731 47.2966 353.934V349.011H49.8517ZM46.8981 363.17L47.2966 363.006V356.067C46.3589 355.911 45.4916 355.833 44.6945 355.833C43.1161 355.833 42.3269 357.145 42.3269 359.771C42.3269 361.209 42.5066 362.209 42.8661 362.771C43.2411 363.318 43.8272 363.592 44.6242 363.592C45.4212 363.592 46.1792 363.451 46.8981 363.17ZM65.2944 356.302C63.4503 356.051 62.1141 355.926 61.2858 355.926C60.4576 355.926 59.8793 356.028 59.5511 356.231C59.2386 356.419 59.0823 356.723 59.0823 357.145C59.0823 357.567 59.2542 357.864 59.598 358.036C59.9575 358.208 60.7857 358.411 62.0829 358.646C63.3956 358.864 64.3255 359.216 64.8724 359.701C65.4194 360.185 65.6929 361.045 65.6929 362.279C65.6929 363.514 65.2944 364.42 64.4974 364.998C63.716 365.577 62.5673 365.866 61.0514 365.866C60.0981 365.866 58.8948 365.733 57.4414 365.467L56.7147 365.35L56.8085 363.217C58.6838 363.467 60.0356 363.592 60.8639 363.592C61.6922 363.592 62.2782 363.49 62.622 363.287C62.9815 363.084 63.1612 362.748 63.1612 362.279C63.1612 361.81 62.9893 361.49 62.6455 361.318C62.3173 361.131 61.5124 360.935 60.231 360.732C58.9651 360.513 58.0352 360.177 57.4414 359.724C56.8475 359.271 56.5506 358.443 56.5506 357.239C56.5506 356.036 56.9569 355.137 57.7696 354.543C58.5978 353.95 59.6527 353.653 60.9342 353.653C61.9344 353.653 63.1612 353.778 64.6146 354.028L65.3413 354.168L65.2944 356.302ZM73.9854 356.067H70.7505V361.224C70.7505 362.178 70.8208 362.811 70.9614 363.123C71.1021 363.436 71.4615 363.592 72.0398 363.592L73.962 363.522L74.0792 365.561C73.0321 365.764 72.2351 365.866 71.6881 365.866C70.3598 365.866 69.4455 365.561 68.9454 364.952C68.461 364.342 68.2188 363.193 68.2188 361.506V356.067H66.7185V353.887H68.2188V350.488H70.7505V353.887H73.9854V356.067ZM84.2857 357.497V362.842C84.3014 363.186 84.3873 363.443 84.5436 363.615C84.7155 363.772 84.9733 363.873 85.3172 363.92L85.2468 365.866C83.9028 365.866 82.8636 365.577 82.1291 364.998C80.8788 365.577 79.6208 365.866 78.3549 365.866C76.0264 365.866 74.8621 364.623 74.8621 362.139C74.8621 360.951 75.1747 360.091 75.7998 359.56C76.4405 359.029 77.4173 358.708 78.73 358.599L81.754 358.341V357.497C81.754 356.872 81.6134 356.434 81.3321 356.184C81.0664 355.934 80.6679 355.809 80.1365 355.809C79.1363 355.809 77.8861 355.872 76.3858 355.997L75.6357 356.044L75.5419 354.239C77.2454 353.832 78.8082 353.629 80.2303 353.629C81.6681 353.629 82.6995 353.942 83.3246 354.567C83.9654 355.176 84.2857 356.153 84.2857 357.497ZM79.0348 360.404C77.9564 360.498 77.4173 361.084 77.4173 362.162C77.4173 363.24 77.8939 363.779 78.8472 363.779C79.6286 363.779 80.4569 363.654 81.3321 363.404L81.754 363.264V360.146L79.0348 360.404ZM85.8089 353.887H88.3172L90.802 363.428H91.4349L93.9198 353.887H96.4515L91.9975 370.648H89.4893L90.8958 365.608H88.8798L85.8089 353.887ZM15.6329 376.887H18.1412L19.9931 386.428H20.4619L22.6889 377.121H25.3144L27.5414 386.428H28.0102L29.8387 376.887H32.3704L29.8855 388.608H25.8301L24.0017 380.567L22.1732 388.608H18.1178L15.6329 376.887ZM34.0717 388.608V376.887H36.6269V388.608H34.0717ZM34.0717 374.894V372.199H36.6269V374.894H34.0717ZM45.5632 379.067H42.3282V384.224C42.3282 385.178 42.3985 385.811 42.5392 386.123C42.6798 386.436 43.0393 386.592 43.6175 386.592L45.5397 386.522L45.6569 388.561C44.6099 388.764 43.8128 388.866 43.2659 388.866C41.9375 388.866 41.0233 388.561 40.5232 387.952C40.0387 387.342 39.7965 386.193 39.7965 384.506V379.067H38.2962V376.887H39.7965V373.488H42.3282V376.887H45.5632V379.067ZM49.7451 388.608H47.19V372.011H49.7451V377.496C50.9016 376.918 51.9721 376.629 52.9567 376.629C54.5195 376.629 55.5822 377.075 56.1448 377.965C56.723 378.84 57.0121 380.294 57.0121 382.326V388.608H54.4569V382.396C54.4569 381.13 54.3241 380.231 54.0584 379.7C53.7928 379.169 53.2302 378.903 52.3706 378.903C51.6205 378.903 50.8704 379.028 50.1202 379.278L49.7451 379.419V388.608ZM63.1216 388.608L67.0833 372.55H72.2639L76.249 388.608H73.6235L72.7562 385.162H66.591L65.7237 388.608H63.1216ZM69.0993 374.73L67.1067 382.865H72.2405L70.2714 374.73H69.0993ZM84.3573 382.466V380.169H88.9285V388.327C88.5065 388.436 87.647 388.553 86.3499 388.678C85.0684 388.803 84.1385 388.866 83.5603 388.866C81.1224 388.866 79.4424 388.194 78.5203 386.85C77.5983 385.506 77.1373 383.404 77.1373 380.544C77.1373 377.668 77.6061 375.574 78.5438 374.262C79.4971 372.949 81.138 372.292 83.4665 372.292C84.8418 372.292 86.389 372.449 88.108 372.761L88.9285 372.925L88.8347 374.988C86.9437 374.738 85.2481 374.613 83.7478 374.613C82.2476 374.613 81.2161 375.035 80.6535 375.879C80.1065 376.723 79.8331 378.286 79.8331 380.567C79.8331 382.849 80.0909 384.427 80.6066 385.303C81.138 386.162 82.2007 386.592 83.7947 386.592C84.9356 386.592 85.7873 386.522 86.3499 386.381V382.466H84.3573ZM100.726 388.608H91.7247V372.55H94.3267V386.287H100.726V388.608Z" fill="white"/>
<rect width="160" height="190" transform="translate(0 410)" fill="white" fill-opacity="0.01"/>
<path d="M160 600L0 576V600H160Z" fill="#F9DD3E"/>
<path d="M91.0468 600H160L0 586.8L0 600H91.0468Z" fill="url(#paint0_linear_8658_19924)"/>
<path d="M117.483 532.899H119.529V559.826H117.483V532.899ZM110.644 546.354V551.314C110.644 552.169 110.507 553.025 110.235 553.853C109.963 554.68 109.558 555.434 109.029 556.095C108.501 556.753 107.834 557.289 107.05 557.689C106.267 558.088 105.346 558.291 104.314 558.291C103.514 558.291 102.722 558.147 101.963 557.863C101.206 557.582 100.531 557.112 99.9514 556.467C99.371 555.822 98.9007 554.969 98.5517 553.932C98.2027 552.892 98.0239 551.599 98.0239 550.087C98.0239 548.705 98.194 547.491 98.5317 546.478C98.8682 545.467 99.326 544.621 99.8939 543.961C100.459 543.306 101.117 542.809 101.849 542.487C102.583 542.165 103.374 542.001 104.194 542.001C105.534 542.001 106.761 542.4 107.844 543.188C108.928 543.975 109.868 545.041 110.645 546.354H110.644ZM110.688 543.995C110.451 543.61 110.166 543.223 109.837 542.842C109.423 542.36 108.924 541.914 108.352 541.516C107.779 541.116 107.128 540.784 106.408 540.531C105.687 540.278 104.877 540.15 103.998 540.15C102.906 540.15 101.865 540.374 100.907 540.814C99.9477 541.254 99.0896 541.912 98.3578 542.764C97.6261 543.617 97.0407 544.669 96.6167 545.891C96.1926 547.113 95.9775 548.524 95.9775 550.088C95.9775 551.863 96.1864 553.4 96.5954 554.66C97.0069 555.924 97.5861 556.978 98.3191 557.792C99.0521 558.608 99.9327 559.21 100.933 559.584C101.93 559.957 103.027 560.146 104.194 560.146C105.713 560.146 107.045 559.766 108.152 559.018C109.144 558.346 109.981 557.459 110.642 556.376V558.805C110.642 560.105 110.491 561.227 110.193 562.136C109.897 563.038 109.479 563.777 108.955 564.331C108.431 564.883 107.788 565.285 107.045 565.53C106.295 565.776 105.441 565.901 104.511 565.901C103.289 565.901 102.148 565.756 101.122 565.47C100.092 565.182 99.2022 564.838 98.4767 564.449L98.3566 564.384L97.8112 566.07L97.895 566.114C98.6343 566.512 99.5787 566.887 100.703 567.231C101.831 567.576 103.085 567.751 104.433 567.751C107.009 567.751 109.05 567.007 110.504 565.539C111.955 564.07 112.69 561.817 112.69 558.843V540.466H111.132L110.686 543.996L110.688 543.995ZM91.0379 549.962V551.987C91.0379 552.76 90.8815 553.533 90.5725 554.28C90.2623 555.029 89.812 555.717 89.2316 556.325C88.6512 556.931 87.9257 557.429 87.0751 557.805C86.2246 558.18 85.2289 558.369 84.1156 558.369C83.549 558.369 83.0011 558.291 82.487 558.137C81.9767 557.985 81.5251 557.744 81.1436 557.426C80.7633 557.108 80.4606 556.703 80.2455 556.218C80.0291 555.734 79.919 555.15 79.919 554.482C79.919 552.917 80.4281 551.763 81.4326 551.05C82.4495 550.327 84.1494 549.962 86.486 549.962H91.0379ZM86.0119 540.145C84.6635 540.145 83.4164 540.313 82.3019 540.645C81.1911 540.977 80.2655 541.361 79.5488 541.785L79.4712 541.832L79.9766 543.398L80.0979 543.331C80.8509 542.916 81.7152 542.572 82.6609 542.311C83.6103 542.051 84.7386 541.919 86.0119 541.919C87.6343 541.919 88.8939 542.296 89.752 543.039C90.6038 543.779 91.0366 545.097 91.0366 546.953V548.187H86.4847C83.7053 548.187 81.5689 548.715 80.1317 549.754C78.6832 550.801 77.9502 552.392 77.9502 554.481C77.9502 555.392 78.1065 556.207 78.4142 556.904C78.722 557.602 79.1572 558.201 79.7076 558.686C80.2567 559.169 80.9147 559.537 81.6652 559.78C82.4095 560.021 83.22 560.142 84.0718 560.142C85.718 560.142 87.1627 559.777 88.361 559.055C89.4655 558.391 90.3799 557.463 91.0779 556.298L91.5232 559.825H93.0417V546.953C93.0417 544.873 92.4526 543.201 91.2918 541.982C90.1297 540.763 88.3523 540.145 86.0119 540.145Z" fill="white"/>
<path d="M48.4513 508.087C47.0654 509.201 46.8415 511.249 47.9535 512.636L65.3966 534.421C66.5074 535.81 68.5513 536.035 69.936 534.92C71.3219 533.806 71.5458 531.758 70.4338 530.371L52.9919 508.586C52.3552 507.792 51.4158 507.379 50.4677 507.379C49.7584 507.379 49.0442 507.61 48.4526 508.087" fill="white"/>
<path d="M41.2939 544.378C41.0012 546.134 42.1945 547.81 43.947 548.103L64.137 551.478C65.8894 551.77 67.5618 550.573 67.8545 548.817C68.1472 547.061 66.9527 545.385 65.2002 545.092L45.0115 541.717C44.8338 541.687 44.6562 541.674 44.4811 541.674C42.9338 541.674 41.5566 542.799 41.2939 544.377" fill="white"/>
<path d="M74.1388 493.272C72.3739 493.478 71.0993 495.092 71.3031 496.86L74.5191 524.604C74.7255 526.373 76.3366 527.65 78.1003 527.445C79.864 527.239 81.1399 525.625 80.9347 523.856L77.7188 496.114C77.5274 494.47 76.1227 493.25 74.5091 493.25C74.3865 493.25 74.2627 493.258 74.1376 493.272" fill="white"/>
<path d="M93.4195 502.594L85.7818 523.565C85.1738 525.237 86.0394 527.105 87.7081 527.714C89.378 528.323 91.2417 527.456 91.8497 525.783L99.4874 504.812C100.097 503.14 99.2297 501.272 97.561 500.663C97.1983 500.53 96.828 500.468 96.4615 500.468C95.1419 500.468 93.8973 501.285 93.4195 502.594Z" fill="white"/>
<path d="M105.744 517.832L96.9231 527.584C95.7311 528.902 95.8311 530.959 97.147 532.155C98.4629 533.349 100.514 533.249 101.708 531.929L110.529 522.178C111.721 520.859 111.621 518.803 110.305 517.607C109.689 517.048 108.913 516.773 108.138 516.773C107.258 516.773 106.378 517.129 105.744 517.831" fill="white"/>
</g>
<defs>
<linearGradient id="paint0_linear_8658_19924" x1="-0.956323" y1="600.208" x2="199.851" y2="599.65" gradientUnits="userSpaceOnUse">
<stop offset="0.238363" stop-color="#00CEED"/>
<stop offset="0.473958" stop-color="#0076BF"/>
<stop offset="0.733675" stop-color="#00168D"/>
</linearGradient>
<clipPath id="clip0_8658_19924">
<rect width="160" height="600" fill="white"/>
</clipPath>
</defs>
</svg>
