<?xml version="1.0" encoding="UTF-8"?>
<svg id="Layer_1" data-name="Layer 1" xmlns="http://www.w3.org/2000/svg" width="111" height="111" xmlns:xlink="http://www.w3.org/1999/xlink" version="1.1" viewBox="0 0 111 111">
  <defs>
    <radialGradient id="radial-gradient" cx="-53.6" cy="76.3" fx="-53.6" fy="76.3" r="1" gradientTransform="translate(6442.6 9178.8) scale(120.3 -120.3)" gradientUnits="userSpaceOnUse">
      <stop offset="0" stop-color="#fff3c1"/>
      <stop offset="1" stop-color="#ddba14"/>
    </radialGradient>
    <linearGradient id="linear-gradient" x1=".8" y1="111.2" x2="92.6" y2="19.4" gradientTransform="translate(0 112) scale(1 -1)" gradientUnits="userSpaceOnUse">
      <stop offset="0" stop-color="#f5dc82"/>
      <stop offset=".5" stop-color="#dfc36a"/>
      <stop offset="1" stop-color="#fff1bb"/>
    </linearGradient>
    <linearGradient id="linear-gradient-2" x1="3.1" y1="108.9" x2="91" y2="21" gradientTransform="translate(0 112) scale(1 -1)" gradientUnits="userSpaceOnUse">
      <stop offset="0" stop-color="#8a744a"/>
      <stop offset=".5" stop-color="#78641f"/>
      <stop offset="1" stop-color="#f2eee2"/>
    </linearGradient>
    <linearGradient id="linear-gradient-3" x1="11.7" y1="29.6" x2="81.8" y2="99.8" gradientTransform="translate(0 112) scale(1 -1)" gradientUnits="userSpaceOnUse">
      <stop offset="0" stop-color="#0039d3"/>
      <stop offset=".2" stop-color="#0054ff"/>
      <stop offset=".5" stop-color="#2b6cff"/>
      <stop offset=".8" stop-color="#0054ff"/>
      <stop offset="1" stop-color="#0039d3"/>
    </linearGradient>
  </defs>
  <path d="M110.5,56c0,30.1-24.4,54.5-54.5,54.5S1.4,86.1,1.4,56V2.7c0-.7.5-1.2,1.2-1.2h53.3c30.1,0,54.5,24.4,54.5,54.5h0Z" fill="#816e15" stroke-width="0"/>
  <path d="M108.7,54.8c-.2,29.7-24.3,53.7-54,54C24.7,109,0,84,0,53.9V1.2C0,.6.6,0,1.2,0h52.6c30.1,0,55.1,24.7,54.9,54.8h0Z" fill="url(#radial-gradient)" stroke-width="0"/>
  <path d="M54.4,107.5c-14.1,0-27.5-5.6-37.5-15.8C6.8,81.5,1.2,68.1,1.2,53.9V2.4c0-.6.5-1.1,1.1-1.1h51.5c14.4,0,27.9,5.7,38.2,16,10.1,10.1,15.6,23.5,15.4,37.6-.1,14-5.6,27.2-15.6,37.2-9.9,9.9-23.1,15.4-37.2,15.6h-.4,0Z" fill="url(#linear-gradient)" stroke-width="0"/>
  <path d="M54.4,106.2c-13.8,0-26.8-5.5-36.6-15.4-9.8-9.9-15.2-23.1-15.2-36.9V3.3c0-.4.4-.8.8-.8h50.6c14.1,0,27.3,5.5,37.3,15.6,9.8,9.9,15.2,22.9,15.1,36.7-.1,13.7-5.5,26.6-15.2,36.3-9.7,9.7-22.6,15.1-36.3,15.2h-.4Z" fill="url(#linear-gradient-2)" stroke-width="0"/>
  <path d="M54.4,104.8c-6.8,0-13.4-1.4-19.6-4-6-2.6-11.4-6.3-16.1-11-4.6-4.7-8.3-10.1-10.8-16.2-2.6-6.3-4-12.9-4-19.7V4.2c0-.2.1-.3.3-.3h49.7c6.9,0,13.6,1.4,19.9,4.1,6.1,2.6,11.6,6.3,16.3,11.1,4.6,4.7,8.3,10.1,10.8,16.1,2.6,6.2,3.9,12.8,3.9,19.6,0,6.7-1.4,13.3-4,19.4-2.5,5.9-6.1,11.3-10.7,15.9-4.6,4.6-9.9,8.2-15.9,10.7-6.1,2.6-12.7,4-19.4,4h-.4Z" fill="url(#linear-gradient-3)" stroke-width="0"/>
  <path d="M53.9,4.1c6.9,0,13.6,1.4,19.9,4.1,3,1.3,6,2.9,8.7,4.8,2.7,1.8,5.3,4,7.6,6.3,4.6,4.7,8.2,10.1,10.8,16,2.6,6.2,3.9,12.8,3.9,19.5,0,6.7-1.4,13.2-4,19.4-2.5,5.9-6.1,11.2-10.7,15.8-4.6,4.6-9.9,8.2-15.8,10.7-6.1,2.6-12.6,4-19.4,4h-.4c-6.8,0-13.3-1.4-19.6-4-6-2.6-11.4-6.3-16-10.9-4.6-4.7-8.3-10.1-10.8-16.1-2.6-6.3-4-12.9-4-19.6V4.2c0,0,0-.2.2-.2h49.7M53.9,3.8H4.2c-.3,0-.5.2-.5.5v49.7c0,27.9,22.7,51.1,50.6,51.1s.3,0,.4,0c27.7-.2,50-22.6,50.2-50.2.2-28.1-23-51-51.1-51Z" fill="#0044a9" stroke-width="0"/>
  <path d="M5.5,55.8V6.1c0-.3.2-.5.5-.5h49.7c14,0,26.9,5.8,36.2,15C82.5,10.3,68.9,3.7,53.9,3.7H4.2c-.3,0-.5.2-.5.5v49.7c0,14.1,5.8,26.9,15.1,36.2-8.2-9.1-13.3-21.2-13.3-34.3h0Z" fill="#0047cd" stroke-width="0"/>
  <g>
    <path d="M40.4,70.1h-2.4l-.4,1h-1.5l2.3-6.2h1.6l2.3,6.2h-1.5l-.4-1ZM39.9,68.8l-.7-2-.7,2h1.5Z" fill="#fff" stroke-width="0"/>
    <path d="M50.2,64.9l-1.7,6.2h-1.5l-1.1-4.1-1.1,4.1h-1.5l-1.7-6.2h1.5l1,4.1,1-4.1h1.5l1,3.9,1-3.9h1.5,0Z" fill="#fff" stroke-width="0"/>
    <path d="M53.9,70.1h-2.4l-.4,1h-1.5l2.3-6.2h1.6l2.3,6.2h-1.5l-.4-1ZM53.4,68.8l-.7-2-.7,2h1.5Z" fill="#fff" stroke-width="0"/>
    <path d="M56.4,64.9h2.5c1.2,0,2,.8,2,1.9s-.4,1.6-1.1,1.9l1.4,2.5h-1.6l-1.2-2.2h-.6v2.2h-1.5v-6.2h0ZM58.7,67.6c.6,0,.8-.4.8-.7s-.2-.7-.7-.7h-.9v1.4h.8Z" fill="#fff" stroke-width="0"/>
    <path d="M61.9,64.9h2.4c1.7,0,2.9,1.1,2.9,3.1s-1.5,3.1-2.9,3.1h-2.3v-6.2h0ZM64.2,69.8c1.1,0,1.5-.9,1.5-1.8s-.3-1.8-1.6-1.8h-.8v3.6h.8Z" fill="#fff" stroke-width="0"/>
    <path d="M67.7,69.5l1.4-.4c.2.5.4.8,1,.8s.9-.2.9-.6-.4-.5-.9-.6c-1.6-.3-2.3-.9-2.3-2s.8-1.9,2.3-1.9,2,.6,2.2,1.7l-1.4.4c-.2-.5-.4-.7-.9-.7s-.8.2-.8.6.4.4,1,.6c1.5.3,2.2.9,2.2,2s-1.1,2-2.4,2-2.1-.6-2.4-1.7h0Z" fill="#fff" stroke-width="0"/>
  </g>
  <g>
    <path d="M27.7,47.1l-2.5,14.1h3.5l.9-5.2h5l.6-3.1h-5l.5-2.6h5l.6-3.2h-8.5,0Z" fill="#fff" stroke-width="0"/>
    <path d="M39.1,50c.5,0,1-.2,1.3-.6.4-.4.6-.8.6-1.3s-.2-.9-.5-1.2c-.3-.3-.7-.5-1.2-.5s-1,.2-1.3.6c-.4.4-.6.8-.6,1.3s.2.9.5,1.2c.3.3.7.5,1.2.5h0Z" fill="#fff" stroke-width="0"/>
    <path d="M37,50.9l-1.8,10.3h3.5l1.8-10.3h-3.5Z" fill="#fff" stroke-width="0"/>
    <path d="M50.4,51.5c-.5-.5-1.4-.8-2.5-.8s-2,.4-2.9,1.2l-.2-.9h-2.8l-1.8,10.3h3.5l1-5.4c.2-1.3.8-1.9,1.8-1.9s1.1.4,1.1,1.2,0,.4,0,.7l-1,5.5h3.5l1-5.6c.1-.6.2-1.2.2-1.7,0-1.1-.3-2-.8-2.5h0Z" fill="#fff" stroke-width="0"/>
    <path d="M61.3,47.1l-.8,4.6c-.2-.2-.5-.5-.8-.6-.5-.3-1-.4-1.7-.4-1.1,0-2.1.3-3,.9-.9.6-1.6,1.4-2.2,2.4-.5,1-.8,2-.8,3.1s.2,1.7.6,2.4c.4.7.9,1.2,1.6,1.6.7.4,1.4.6,2.2.6s2.1-.4,2.9-1.2l.2.9h2.8l2.5-14.1h-3.5ZM58.6,58c-.4.3-.8.4-1.3.4s-.9-.2-1.3-.5c-.3-.3-.5-.8-.5-1.3s.1-1,.4-1.4c.2-.4.6-.8,1-1,.4-.2.8-.4,1.2-.4s.9.2,1.2.5c.3.3.5.8.5,1.3s-.1.9-.3,1.4c-.2.4-.5.8-.9,1.1h0Z" fill="#fff" stroke-width="0"/>
    <path d="M71,57.6h0c-.2.3-.4.6-.7.8-.3.2-.8.3-1.3.3s-1-.2-1.3-.5c-.3-.3-.5-.6-.5-1h7l.2-1.1c0-.3.1-.8.1-1.2,0-1.3-.4-2.3-1.1-3.1-.7-.8-1.8-1.2-3.1-1.2s-2.3.3-3.2,1c-.9.6-1.7,1.5-2.2,2.4-.5,1-.8,2-.8,3.1s.2,1.7.6,2.3c.4.7,1,1.2,1.7,1.5.7.4,1.5.5,2.3.5,1.2,0,2.2-.3,3.1-.8.8-.5,1.4-1.2,1.9-2.1l-2.6-1.1h0ZM68.4,53.9c.4-.3.9-.5,1.5-.5s1,.2,1.2.5c.2.3.4.7.4,1h0c0,0-3.9,0-3.9,0,.2-.4.5-.8.8-1Z" fill="#fff" stroke-width="0"/>
    <path d="M83.5,51.1c-.4-.3-1-.5-1.6-.5s-1.1.1-1.5.4c-.4.2-.7.5-1,.8l-.2-.9h-2.8l-1.8,10.3h3.5l1-5.4c.1-.7.3-1.1.7-1.5.3-.3.8-.5,1.3-.5s.7,0,1,.3h.1c0,0,1.6-3,1.6-3h0c0,0,0,0,0,0Z" fill="#fff" stroke-width="0"/>
  </g>
  <path d="M50.6,30h-6.9v6.9c0,3.8,3.1,6.9,6.9,6.9s6.9-3.1,6.9-6.9-3.1-6.9-6.9-6.9h0ZM53.8,41.2c-1.6,0-3-1.9-3-4.3s0-.8.1-1.2c.2,0,.3,0,.5,0,.8,0,1.5-.7,1.5-1.5s-.2-.9-.6-1.2c.4-.3.9-.5,1.4-.5,1.6,0,3,1.9,3,4.3s-1.3,4.3-3,4.3Z" fill="#fff" stroke-width="0"/>
  <path d="M59.7,30h-5.5c2.5,1.3,4.2,3.9,4.2,6.9s-1,4.3-2.5,5.7c1.1.8,2.5,1.2,3.8,1.2,3.8,0,6.9-3.1,6.9-6.9s-3.1-6.9-6.9-6.9ZM62.8,41.2c-1.6,0-3-1.9-3-4.3s0-.8.1-1.2c.2,0,.3,0,.5,0,.8,0,1.5-.7,1.5-1.5s-.2-.9-.6-1.2c.4-.3.9-.5,1.4-.5,1.6,0,3,1.9,3,4.3s-1.3,4.3-3,4.3Z" fill="#fff" stroke-width="0"/>
  <g>
    <path d="M41.9,81.5l2.7-2.3c.7-.6.8-.9.8-1.4s-.3-.9-.9-.9-1.1.5-1,1.2l-1.7-.5c.1-1.5,1.2-2.5,2.8-2.5s2.8,1.1,2.8,2.6-.5,1.8-1.4,2.6l-1.3,1.1h2.7v1.7h-5.4v-1.7h0Z" fill="#fff" stroke-width="0"/>
    <path d="M48.1,79.3c0-2.3,1-4.1,3-4.1s3,1.8,3,4.1-1,4.1-3,4.1-3-1.7-3-4.1h0ZM52.3,79.3c0-1.5-.4-2.4-1.1-2.4s-1.2.9-1.2,2.4.3,2.4,1.2,2.4,1.1-.9,1.1-2.4Z" fill="#fff" stroke-width="0"/>
    <path d="M55.1,81.5l2.7-2.3c.7-.6.8-.9.8-1.4s-.3-.9-.9-.9-1.1.5-1,1.2l-1.7-.5c.1-1.5,1.2-2.5,2.8-2.5s2.8,1.1,2.8,2.6-.5,1.8-1.4,2.6l-1.3,1.1h2.7v1.7h-5.4v-1.7h0Z" fill="#fff" stroke-width="0"/>
    <path d="M61.3,81.1l1.7-.5c0,.7.5,1.1,1.1,1.1s1-.4,1-1c0-.6-.5-1-1-1s-.7.2-.9.4l-1.6-.6.4-4.1h4.5v1.8h-2.9v1c0,0,.3-.1.7-.1,1.6,0,2.7.9,2.7,2.6,0,1.7-1.2,2.8-2.9,2.8s-2.8-1-2.8-2.3h0Z" fill="#fff" stroke-width="0"/>
  </g>
  <path d="M31,89.6l1.1.3c-.1.6,0,.9.5,1.2.5.3.9.3,1.1,0,.2-.3,0-.6-.5-1.1-1-.9-1.3-1.6-.8-2.4.5-.8,1.5-1,2.5-.4.9.5,1.2,1.3.9,2.3l-1-.3c.1-.5,0-.8-.4-1.1-.4-.3-.8-.3-1,.1-.2.3,0,.6.6,1.1,1,.9,1.2,1.6.7,2.4-.5.9-1.6,1-2.6.4-.9-.6-1.3-1.4-1-2.4h0Z" fill="#fff" stroke-width="0"/>
  <path d="M35.9,91.5l1.3-3,1,.5-1.3,2.9c-.4.8-.2,1.4.5,1.7.7.3,1.2,0,1.5-.8l1.3-2.9,1,.5-1.3,3c-.7,1.6-1.8,1.7-2.9,1.2-1.1-.5-1.8-1.4-1.1-3h0Z" fill="#fff" stroke-width="0"/>
  <path d="M42.1,90.6l2,.6c.9.3,1.7,1,1.3,2.2-.3,1.2-1.4,1.5-2.2,1.2l-1-.3-.5,1.8-1.1-.3,1.5-5.2h0ZM43.3,93.5c.6.2.9-.2,1-.5.1-.3,0-.8-.6-1l-.8-.2-.4,1.5.8.2Z" fill="#fff" stroke-width="0"/>
  <path d="M46.5,91.8l3.4.6-.2,1-2.3-.4-.2,1.2,2,.3-.2,1-2-.3-.2,1.2,2.3.4-.2,1-3.4-.6.9-5.4h0Z" fill="#fff" stroke-width="0"/>
  <path d="M50.6,92.4h2.1c1.1.2,1.7.9,1.7,1.8,0,.9-.5,1.4-1.1,1.6l1.1,2.3h-1.2c0,0-1-2.1-1-2.1h-.7s-.1,2-.1,2h-1.1c0,0,.3-5.5.3-5.5h0ZM52.4,94.9c.5,0,.8-.3.8-.7,0-.4-.2-.7-.7-.7h-.9s0,1.4,0,1.4h.9s0,0,0,0Z" fill="#fff" stroke-width="0"/>
  <path d="M57.5,92.5l3.4-.4v1c.1,0-2.2.3-2.2.3l.2,1.3,2-.3v1c.1,0-1.9.3-1.9.3l.3,2.1h-1.1c0,.1-.7-5.3-.7-5.3h0Z" fill="#fff" stroke-width="0"/>
  <path d="M62.4,95.1l-.8-3.1,1.1-.3.8,3.1c.2.9.7,1.2,1.4,1,.7-.2.9-.7.7-1.6l-.8-3.1,1.1-.3.8,3.1c.4,1.6-.4,2.5-1.6,2.8-1.1.3-2.3,0-2.7-1.7h0Z" fill="#fff" stroke-width="0"/>
  <path d="M66.7,90.6l1.1-.4,3.5,2.4-1.4-3.3,1-.4,2.1,5-1.1.4-3.5-2.4,1.4,3.3-1,.4-2.1-5Z" fill="#fff" stroke-width="0"/>
  <path d="M71.7,88.5l1.7-1c1.4-.8,2.8-.3,3.6,1,.9,1.5.4,2.9-.9,3.7l-1.7,1-2.8-4.7ZM75.7,91.3c1-.6.8-1.5.4-2.2-.5-.8-1.1-1.3-2.2-.7l-.7.4,1.7,3,.7-.4h0Z" fill="#fff" stroke-width="0"/>
  <path d="M10.1,46.7l.6-2.6c.2-1,1-2.2,2.7-1.8,1.6.4,1.9,1.7,1.7,2.7l-.3,1.1,2.2.5-.3,1.6-6.6-1.5ZM13.6,44.9c.2-.7-.3-.9-.6-1-.3,0-.8,0-1,.7l-.2.9,1.6.4.2-.9Z" fill="#fff" stroke-width="0"/>
  <path d="M11.6,40.4l1-2.5c.5-1.3,1.7-1.7,2.7-1.3,1,.4,1.4,1.1,1.5,1.8l3-.4-.6,1.6-2.7.3-.2.6,2.3.9-.6,1.5-6.3-2.4ZM15.3,39.1c.2-.6-.1-.9-.4-1-.3-.1-.8,0-1,.5l-.3.9,1.4.5.3-.9Z" fill="#fff" stroke-width="0"/>
  <path d="M16.9,36.1c-1.5-.9-2.4-2.8-1.2-4.8,1.2-2,3.3-2.1,4.8-1.2,1.5.9,2.4,2.8,1.2,4.8-1.2,2-3.3,2.1-4.8,1.2ZM19.6,31.5c-1-.6-2.1-.5-2.7.6-.6,1.1-.2,2.1.8,2.7,1,.6,2.1.5,2.7-.6.6-1.1.2-2.1-.8-2.7Z" fill="#fff" stroke-width="0"/>
  <path d="M22.1,22.7l3.9,6-1,1.4-6.9-2,1-1.4,4.7,1.4-2.7-4.1,1-1.4h0Z" fill="#fff" stroke-width="0"/>
  <path d="M23.4,21.8l1.2-1,4.3,5.2-1.2,1-4.3-5.2Z" fill="#fff" stroke-width="0"/>
  <path d="M26.3,19.3l2.1-1.5c1.5-1,3.3-.8,4.5,1,1.3,1.9.6,3.7-.7,4.6l-2.1,1.5-3.9-5.5h0ZM31.4,22.1c1-.7.7-1.7.2-2.5-.6-.9-1.4-1.4-2.5-.6l-.7.5,2.2,3.2.7-.5Z" fill="#fff" stroke-width="0"/>
  <path d="M32.7,15l3.9-1.9.6,1.3-2.5,1.2.5,1.1,2.1-1.1.6,1.3-2.1,1.1.6,1.1,2.5-1.2.6,1.3-3.9,1.9-3-6.1h0Z" fill="#fff" stroke-width="0"/>
  <path d="M38.6,12.3l2.6-.8c1.3-.4,2.4.2,2.7,1.3.3,1,0,1.8-.5,2.3l2.2,2.1-1.7.5-1.9-1.9-.6.2.7,2.3-1.5.5-2-6.4h0ZM41.8,14.3c.6-.2.7-.7.6-1-.1-.3-.4-.7-1-.5l-.9.3.5,1.4.9-.3Z" fill="#fff" stroke-width="0"/>
  <path d="M48.7,13.1c0-1.7,1-3.6,3.3-3.7,2.3-.1,3.6,1.6,3.7,3.3,0,1.7-1,3.6-3.3,3.7-2.3.1-3.6-1.6-3.7-3.3ZM54,12.8c0-1.1-.7-2-2-1.9-1.2,0-1.8,1-1.8,2.1,0,1.1.7,2,2,1.9,1.2,0,1.8-1,1.8-2.1Z" fill="#fff" stroke-width="0"/>
  <path d="M56.9,9.5l4.4.5v1.4c-.1,0-2.9-.3-2.9-.3v1.4c-.1,0,2.2.2,2.2.2v1.4c-.1,0-2.5-.2-2.5-.2l-.3,2.5-1.6-.2.7-6.7h0Z" fill="#fff" stroke-width="0"/>
  <path d="M67.2,12.9l-1.7-.6.5-1.4,5,1.6-.5,1.4-1.7-.6-1.6,5-1.5-.5,1.6-5h0Z" fill="#fff" stroke-width="0"/>
  <path d="M72.5,13.2l1.4.7-1.2,2.3,2.2,1.1,1.2-2.3,1.4.7-3.1,6-1.4-.7,1.2-2.4-2.2-1.1-1.2,2.4-1.4-.7,3.1-6Z" fill="#fff" stroke-width="0"/>
  <path d="M79.4,17.1l3.5,2.6-.9,1.2-2.2-1.7-.7,1,1.9,1.4-.8,1.1-1.9-1.4-.7,1,2.2,1.7-.9,1.2-3.5-2.6,4-5.4h0Z" fill="#fff" stroke-width="0"/>
  <path d="M84.8,27.4l1.6-4.6,1.1,1.3-1,2.8,2.9-.6,1.1,1.4-4.8.9-1.9,1.6-1-1.2,1.9-1.6Z" fill="#fff" stroke-width="0"/>
  <path d="M91.2,28.5l2.3,3.8-1.2.8-1.5-2.4-1,.6,1.2,2-1.2.7-1.2-2-1.1.6,1.5,2.4-1.2.8-2.3-3.8,5.8-3.5h0Z" fill="#fff" stroke-width="0"/>
  <path d="M91,40.3l-1-2.4h-1.2s-.6-1.5-.6-1.5l7.2-.2.6,1.6-5.3,4.9-.6-1.5.9-.8h0ZM92.2,39.2l1.7-1.5h-2.3c0,0,.6,1.5.6,1.5Z" fill="#fff" stroke-width="0"/>
  <path d="M97.5,41.8l.6,2.6c.3,1.3-.4,2.4-1.5,2.6-1,.2-1.8,0-2.2-.7l-2.2,2-.4-1.7,2-1.8v-.6c-.1,0-2.5.6-2.5.6l-.4-1.6,6.6-1.6h0ZM95.3,45c.1.6.6.7.9.6.3,0,.7-.4.5-1l-.2-.9-1.5.3.2.9Z" fill="#fff" stroke-width="0"/>
</svg>