<?xml version="1.0" encoding="UTF-8"?>
<svg id="Layer_2" data-name="Layer 2" xmlns="http://www.w3.org/2000/svg" width="111" height="111" xmlns:xlink="http://www.w3.org/1999/xlink" version="1.1" viewBox="0 0 111 111">
  <defs>
    <linearGradient id="linear-gradient" x1="124.4" y1="5.5" x2="-12.3" y2="106.9" gradientTransform="translate(0 112) scale(1 -1)" gradientUnits="userSpaceOnUse">
      <stop offset=".1" stop-color="#b18f34"/>
      <stop offset=".3" stop-color="#d3ac47"/>
      <stop offset=".5" stop-color="#fff2b0"/>
      <stop offset=".6" stop-color="#fdf6e6"/>
      <stop offset=".6" stop-color="#fff1b0"/>
      <stop offset=".7" stop-color="#ddb95d"/>
      <stop offset=".9" stop-color="#a78120"/>
    </linearGradient>
  </defs>
  <g display="none">
    <path d="M5.5,5.9c0-.2,0-.2,0-.3,0,0,0,0,.1-.1,0,0,.1,0,.3,0h32.6c23.1,0,34.7,0,43.5,4.5,7.8,4,14.1,10.3,18.1,18.1,4.5,8.8,4.5,20.4,4.5,43.5v32.6c0,.2,0,.2,0,.3,0,0,0,0-.1.1,0,0-.1,0-.3,0h-32.6c-23.1,0-34.7,0-43.5-4.5-7.8-4-14.1-10.3-18.1-18.1-4.5-8.8-4.5-20.4-4.5-43.5V5.9Z" fill="url(#linear-gradient)" stroke-width="0"/>
    <path d="M5.5,5.9c0-.2,0-.2,0-.3,0,0,0,0,.1-.1,0,0,.1,0,.3,0h32.6c23.1,0,34.7,0,43.5,4.5,7.8,4,14.1,10.3,18.1,18.1,4.5,8.8,4.5,20.4,4.5,43.5v32.6c0,.2,0,.2,0,.3,0,0,0,0-.1.1,0,0-.1,0-.3,0h-32.6c-23.1,0-34.7,0-43.5-4.5-7.8-4-14.1-10.3-18.1-18.1-4.5-8.8-4.5-20.4-4.5-43.5V5.9Z" fill="#fff2ab" fill-opacity=".3" stroke-width="0"/>
  </g>
  <path d="M110.2,105.3v-34.8c0-11.5,0-20.4-.6-27.5-.6-7.2-1.8-12.9-4.4-18.1-4.4-8.6-11.4-15.6-20-20-5.1-2.6-10.9-3.8-18.1-4.4C60,0,51.2,0,39.7,0H4.8s-.3,0-.5,0c-.3,0-.9,0-1.6.4h-.1c-.8.5-1.5,1.1-2,2v.2C.1,3.3,0,4,0,4.3,0,4.6,0,4.8,0,4.8v34.8C0,51.2,0,60,.6,67.2c.6,7.2,1.8,12.9,4.4,18.1,4.4,8.6,11.4,15.6,20,20,5.1,2.6,10.9,3.8,18.1,4.4,7.1.6,16,.6,27.5.6h34.8s.3,0,.5,0c.3,0,1-.1,1.8-.5.9-.4,1.6-1.2,2-2,.4-.8.5-1.4.5-1.8,0-.3,0-.5,0-.5Z" fill="#000" stroke-width="0"/>
</svg>