<svg width="111" height="111" viewBox="0 0 111 111" fill="none" xmlns="http://www.w3.org/2000/svg">
<path d="M110.491 55.9779C110.491 86.0898 86.0785 110.503 55.9666 110.503C25.8547 110.503 1.43163 86.0898 1.43163 55.9779V2.68093C1.43163 1.98517 1.97391 1.45312 2.65943 1.45312H55.9564C86.0683 1.45312 110.481 25.866 110.481 55.9779H110.491Z" fill="#816E15"/>
<path d="M108.743 54.7908C108.517 84.4934 84.4832 108.528 54.7908 108.743C24.6584 108.968 0 84.0227 0 53.8801V1.24827C0 0.562743 0.562743 0 1.24827 0H53.8904C84.0227 0 108.978 24.6584 108.753 54.7908H108.743Z" fill="url(#paint0_radial_18017_28865)"/>
<path d="M54.3707 107.504C40.2407 107.504 26.9088 101.887 16.8306 91.6964C6.7728 81.5261 1.22722 68.1021 1.22722 53.9005V2.39412C1.22722 1.75975 1.7388 1.24817 2.37317 1.24817H53.8693C68.2653 1.24817 81.8121 6.91653 92.0336 17.2096C102.102 27.3492 107.586 40.6914 107.483 54.7804C107.381 68.8183 101.856 82.007 91.921 91.942C81.9963 101.867 68.7974 107.392 54.7595 107.504H54.3605H54.3707Z" fill="url(#paint1_linear_18017_28865)"/>
<path d="M54.371 106.246C40.5786 106.246 27.5639 100.762 17.721 90.8063C7.89856 80.8713 2.48599 67.7543 2.48599 53.8903V3.30479C2.48599 2.86482 2.8441 2.50671 3.28407 2.50671H53.8798C67.9382 2.50671 81.178 8.04206 91.1539 18.0998C100.987 28.0041 106.338 41.0291 106.235 54.7805C106.133 68.4807 100.741 81.3727 91.0414 91.0621C81.3519 100.752 68.46 106.154 54.7598 106.256H54.371V106.246Z" fill="url(#paint2_linear_18017_28865)"/>
<path d="M54.3706 104.844C47.587 104.844 40.9875 103.484 34.7564 100.803C28.7504 98.2143 23.3583 94.5206 18.7029 89.8243C14.0577 85.1279 10.4152 79.6846 7.86751 73.6275C5.22773 67.3657 3.88737 60.7355 3.88737 53.9212V4.22585C3.88737 4.05191 4.03062 3.89844 4.21479 3.89844H53.9102C60.8063 3.89844 67.5081 5.26948 73.8415 7.97065C79.9601 10.5797 85.4545 14.3143 90.1611 19.0516C94.8063 23.7275 98.4385 29.14 100.956 35.1461C103.575 41.3772 104.874 47.9766 104.833 54.75C104.782 61.4927 103.421 68.0307 100.802 74.18C98.2646 80.1246 94.6528 85.4656 90.0588 90.0596C85.4647 94.6536 80.1238 98.2654 74.1792 100.803C68.0299 103.432 61.4919 104.783 54.7492 104.834C54.6264 104.834 54.4934 104.834 54.3706 104.834V104.844Z" fill="url(#paint3_linear_18017_28865)"/>
<path d="M53.9103 4.0622C60.786 4.0622 67.4673 5.43325 73.7803 8.12418C76.8089 9.42361 79.7351 11.0198 82.4772 12.8819C85.1886 14.7236 87.7363 16.8416 90.0487 19.1744C94.6734 23.8401 98.2954 29.2322 100.812 35.2177C103.422 41.4284 104.721 48.0074 104.67 54.7603C104.619 61.4825 103.268 68.0001 100.649 74.1289C98.1215 80.053 94.5097 85.3735 89.9361 89.9573C85.3626 94.5411 80.0319 98.1325 74.1077 100.67C67.9789 103.289 61.4613 104.64 54.7391 104.691C54.6163 104.691 54.4833 104.691 54.3605 104.691C47.5974 104.691 41.0184 103.34 34.8077 100.66C28.8222 98.0813 23.4403 94.3979 18.8053 89.7118C14.1806 85.0359 10.5484 79.6028 8.00067 73.5661C5.37113 67.3146 4.03077 60.7049 4.03077 53.9213V4.22591C4.03077 4.13382 4.1024 4.0622 4.19448 4.0622H53.8899M53.9103 3.75525H4.21494C3.94892 3.75525 3.73405 3.97011 3.73405 4.23614V53.9315C3.73405 81.864 26.4791 105.008 54.3707 105.008C82.2624 105.008 54.6265 105.008 54.7493 105.008C82.4056 104.804 104.782 82.4268 104.987 54.7705C105.202 26.7152 81.9656 3.75525 53.9103 3.75525Z" fill="#0044A9"/>
<path d="M5.545 55.8141V6.11875C5.545 5.85273 5.75987 5.63786 6.02589 5.63786H55.7213C69.7592 5.63786 82.5897 11.3881 91.8801 20.6478C82.4874 10.2831 68.8895 3.745 53.9205 3.745H4.21488C3.94886 3.745 3.73399 3.95986 3.73399 4.22588V53.9213C3.73399 68.0001 9.5149 80.8613 18.8155 90.1619C10.5688 81.0455 5.53477 68.9619 5.53477 55.8141H5.545Z" fill="#0047CD"/>
<g filter="url(#filter0_d_18017_28865)">
<path d="M40.3534 70.0972H37.9182L37.5294 71.1408H36.0151L38.348 64.9199H39.9134L42.2462 71.1408H40.7422L40.3534 70.0972ZM39.8622 68.7568L39.1358 66.7923L38.4093 68.7568H39.8622Z" fill="white"/>
<path d="M50.1761 64.9199L48.4367 71.1408H46.9736L45.889 66.997L44.8351 71.1408H43.372L41.6326 64.9199H43.1571L44.1701 68.9717L45.2035 64.9199H46.6564L47.6693 68.8591L48.672 64.9199H50.1965H50.1761Z" fill="white"/>
<path d="M53.89 70.0972H51.4549L51.066 71.1408H49.5518L51.8846 64.9199H53.45L55.7829 71.1408H54.2788L53.89 70.0972ZM53.4091 68.7568L52.6827 66.7923L51.9562 68.7568H53.4091Z" fill="white"/>
<path d="M56.3663 64.9199H58.8731C60.1214 64.9199 60.9195 65.7692 60.9195 66.8333C60.9195 67.8973 60.4795 68.3987 59.8554 68.6954L61.2059 71.151H59.5996L58.4229 68.9308H57.8499V71.151H56.3766V64.9302L56.3663 64.9199ZM58.6889 67.6313C59.2619 67.6313 59.4461 67.2323 59.4461 66.9458C59.4461 66.6593 59.2722 66.25 58.6992 66.25H57.8397V67.6313H58.6889Z" fill="white"/>
<path d="M61.9121 64.9199H64.3063C65.9639 64.9199 67.2019 66.0556 67.2019 68.0406C67.2019 70.0255 65.6774 71.1408 64.2654 71.1408H61.9224V64.9199H61.9121ZM64.2245 69.8107C65.3397 69.8107 65.7183 68.9001 65.7183 68.0304C65.7183 67.1607 65.3704 66.25 64.1529 66.25H63.3753V69.8004H64.2245V69.8107Z" fill="white"/>
<path d="M67.7333 69.5038L69.1146 69.1048C69.2988 69.6368 69.5239 69.9233 70.1582 69.9233C70.7926 69.9233 71.0689 69.6982 71.0689 69.2992C71.0689 68.9001 70.6596 68.7569 70.1275 68.6648C68.5723 68.3885 67.8766 67.7542 67.8766 66.7105C67.8766 65.6669 68.7258 64.787 70.1582 64.787C71.5907 64.787 72.1432 65.4009 72.399 66.465L71.0177 66.8538C70.854 66.332 70.6494 66.1171 70.1582 66.1171C69.6671 66.1171 69.3499 66.2808 69.3499 66.7105C69.3499 67.1403 69.708 67.1505 70.3731 67.2835C71.8772 67.5905 72.5422 68.2146 72.5422 69.2889C72.5422 70.3633 71.4884 71.2432 70.148 71.2432C68.8077 71.2432 68.0198 70.5986 67.7333 69.4936V69.5038Z" fill="white"/>
</g>
<g filter="url(#filter1_d_18017_28865)">
<path d="M27.7069 47.1477L25.2002 61.2777H28.7097L29.6203 56.0697H34.5724L35.1249 52.9798H30.1728L30.6332 50.34H35.6058L36.1686 47.1477H27.6865H27.7069Z" fill="white"/>
<path d="M39.1156 50.0227C39.6169 50.0227 40.0671 49.8283 40.4457 49.4293C40.8243 49.0405 41.0084 48.6107 41.0084 48.1401C41.0084 47.6694 40.8447 47.2704 40.5275 46.9327C40.2001 46.5951 39.8011 46.4211 39.3202 46.4211C38.8393 46.4211 38.3687 46.6155 37.9901 46.9839C37.6013 47.3625 37.4171 47.8127 37.4171 48.314C37.4171 48.8154 37.5808 49.1837 37.898 49.5111C38.2254 49.8385 38.6347 50.0125 39.1258 50.0125L39.1156 50.0227Z" fill="white"/>
<path d="M36.9969 50.9437L35.1757 61.2777H38.6442L40.4655 50.9437H36.9969Z" fill="white"/>
<path d="M50.3503 51.4962C49.808 50.954 48.9792 50.6675 47.8844 50.6675C46.7897 50.6675 45.8586 51.0563 44.9991 51.8441L44.8047 50.9437H41.9705L40.1391 61.2778H43.6076L44.5796 55.8447C44.7945 54.5555 45.3981 53.9212 46.4111 53.9212C47.424 53.9212 47.557 54.3202 47.557 55.149C47.557 55.9777 47.5366 55.5685 47.4956 55.8243L46.5339 61.2778H50.0024L50.9949 55.681C51.1074 55.0466 51.1586 54.4839 51.1586 54.0132C51.1586 52.8878 50.8823 52.0385 50.3298 51.4962H50.3503Z" fill="white"/>
<path d="M61.3385 47.1477L60.5098 51.711C60.3154 51.486 60.0391 51.2608 59.6708 51.0664C59.2001 50.8004 58.6271 50.6776 57.9825 50.6776C56.8775 50.6776 55.8543 50.9744 54.9437 51.5678C54.0331 52.1612 53.3067 52.9491 52.7746 53.9211C52.2426 54.8931 51.9765 55.9367 51.9765 57.0213C51.9765 58.1059 52.1709 58.7095 52.57 59.3951C52.9588 60.0908 53.5011 60.6229 54.1661 60.9912C54.8312 61.3595 55.5576 61.5539 56.3455 61.5539C57.1333 61.5539 58.4225 61.1549 59.2513 60.3773L59.4866 61.2777H62.3208L64.8276 47.1477H61.359H61.3385ZM58.5555 58.0138C58.1667 58.2798 57.7267 58.4128 57.2459 58.4128C56.765 58.4128 56.3045 58.2491 55.9771 57.9115C55.6497 57.584 55.4758 57.1441 55.4758 56.6018C55.4758 56.0595 55.5986 55.6196 55.8441 55.2001C56.0897 54.7806 56.4273 54.4327 56.8264 54.1973C57.2254 53.9518 57.6449 53.829 58.0746 53.829C58.5044 53.829 58.9853 53.9927 59.3024 54.3099C59.6196 54.6373 59.7833 55.0773 59.7833 55.6093C59.7833 56.1414 59.6708 56.5199 59.4559 56.9599C59.241 57.3896 58.9341 57.7477 58.5453 58.0138H58.5555Z" fill="white"/>
<path d="M71.0071 57.5739L70.9661 57.6455C70.8127 57.8911 70.5671 58.1366 70.2295 58.372C69.902 58.597 69.4723 58.7096 68.9607 58.7096C68.4491 58.7096 67.9785 58.5561 67.6613 58.2492C67.3441 57.9422 67.1804 57.6046 67.16 57.2055H74.138L74.3324 56.1107C74.404 55.7629 74.4347 55.3536 74.4347 54.8932C74.4347 53.6347 74.0663 52.6115 73.3194 51.8339C72.5828 51.0563 71.5391 50.6675 70.2295 50.6675C68.9198 50.6675 67.9478 50.9847 66.9962 51.619C66.0549 52.2534 65.308 53.0719 64.7862 54.0644C64.2644 55.0569 63.9984 56.0903 63.9984 57.1339C63.9984 58.1776 64.203 58.8119 64.6225 59.477C65.042 60.142 65.5945 60.6536 66.2903 61.0117C66.986 61.3698 67.7636 61.554 68.5924 61.554C69.7997 61.554 70.8331 61.288 71.6517 60.7662C72.4293 60.2648 73.0739 59.5588 73.5957 58.6584L70.9968 57.5636L71.0071 57.5739ZM68.4082 53.9007C68.8073 53.5835 69.3188 53.4198 69.9123 53.4198C70.5057 53.4198 70.915 53.5835 71.1503 53.9007C71.3959 54.2281 71.5187 54.5555 71.5187 54.8932V54.9443H67.5794C67.7636 54.5351 68.0399 54.177 68.4082 53.9007Z" fill="white"/>
<path d="M83.4501 51.1484C83.0204 50.8312 82.4678 50.6675 81.813 50.6675C81.1582 50.6675 80.7284 50.8005 80.2885 51.0665C79.9201 51.2916 79.603 51.5576 79.3369 51.8544L79.0914 50.9335H76.2572L74.4257 61.2675H77.8943L78.8663 55.8345C78.9788 55.1797 79.2142 54.6988 79.5723 54.3816C79.9201 54.0746 80.3499 53.9109 80.841 53.9109C81.3321 53.9109 81.5572 54.003 81.7925 54.1872L81.8949 54.269L83.5319 51.1995L83.4603 51.1484H83.4501Z" fill="white"/>
</g>
<path d="M50.616 30.0198H43.6994V36.9364C43.6994 40.7426 46.7996 43.8428 50.616 43.8428C54.4325 43.8428 57.5327 40.7426 57.5327 36.9262C57.5327 33.1097 54.4325 30.0095 50.616 30.0095V30.0198ZM53.7572 41.1928C52.1201 41.1928 50.8002 39.2794 50.8002 36.9364C50.8002 34.5933 50.8411 36.1485 50.9128 35.7802C51.0765 35.8416 51.2402 35.8723 51.4141 35.8723C52.2327 35.8723 52.8977 35.2072 52.8977 34.3887C52.8977 33.5702 52.6624 33.4883 52.3145 33.2223C52.7442 32.8846 53.2251 32.68 53.7572 32.68C55.3942 32.68 56.7141 34.5831 56.7141 36.9364C56.7141 39.2897 55.3942 41.1928 53.7572 41.1928Z" fill="white"/>
<path d="M59.6921 30.0198H54.1568C56.6738 31.309 58.3927 33.9181 58.3927 36.9364C58.3927 39.9548 57.4002 41.2542 55.845 42.6764C56.9807 43.4438 58.3006 43.853 59.6921 43.853C63.5086 43.853 66.6088 40.7528 66.6088 36.9364C66.6088 33.12 63.5086 30.0198 59.6921 30.0198ZM62.8333 41.1928C61.1962 41.1928 59.8763 39.2795 59.8763 36.9364C59.8763 34.5933 59.9172 36.1486 59.9889 35.7802C60.1526 35.8416 60.3163 35.8723 60.4902 35.8723C61.3088 35.8723 61.9738 35.2072 61.9738 34.3887C61.9738 33.5702 61.7385 33.4883 61.3906 33.2223C61.8203 32.8847 62.3012 32.68 62.8333 32.68C64.4704 32.68 65.7902 34.5831 65.7902 36.9364C65.7902 39.2897 64.4704 41.1928 62.8333 41.1928Z" fill="white"/>
<g filter="url(#filter2_d_18017_28865)">
<path d="M41.888 81.4648L44.5994 79.1626C45.3258 78.5487 45.4384 78.2622 45.4384 77.8018C45.4384 77.3414 45.0905 76.9219 44.4971 76.9219C43.9036 76.9219 43.433 77.413 43.4534 78.1395L41.7243 77.6688C41.8266 76.1852 42.9623 75.1825 44.5073 75.1825C46.0523 75.1825 47.321 76.2773 47.321 77.7711C47.321 79.2649 46.8299 79.6026 45.9397 80.3597L44.6096 81.475H47.321V83.2144H41.8982V81.475L41.888 81.4648Z" fill="white"/>
<path d="M48.0992 79.2548C48.0992 76.9117 49.0814 75.1621 51.1278 75.1621C53.1741 75.1621 54.1461 76.922 54.1461 79.2548C54.1461 81.5876 53.1639 83.3475 51.1585 83.3475C49.1531 83.3475 48.1094 81.6081 48.1094 79.2548H48.0992ZM52.2737 79.2548C52.2737 77.7917 51.9156 76.9015 51.1278 76.9015C50.3399 76.9015 49.9716 77.7917 49.9716 79.2548C49.9716 80.7179 50.3195 81.6081 51.1482 81.6081C51.977 81.6081 52.2737 80.7384 52.2737 79.2548Z" fill="white"/>
<path d="M55.0983 81.4645L57.8097 79.1624C58.5361 78.5485 58.6487 78.262 58.6487 77.8016C58.6487 77.3411 58.3008 76.9216 57.7074 76.9216C57.1139 76.9216 56.6433 77.4128 56.6637 78.1392L54.9346 77.6686C55.0369 76.185 56.1726 75.1823 57.7176 75.1823C59.2626 75.1823 60.5313 76.277 60.5313 77.7709C60.5313 79.2647 60.0402 79.6023 59.15 80.3595L57.8199 81.4747H60.5313V83.2141H55.1085V81.4747L55.0983 81.4645Z" fill="white"/>
<path d="M61.309 81.0556L63.0279 80.5542C63.0177 81.2398 63.4883 81.6183 64.092 81.6183C64.6957 81.6183 65.1254 81.2295 65.1356 80.5952C65.1254 79.9608 64.6547 79.5822 64.092 79.5822C63.5292 79.5822 63.3451 79.7357 63.1507 80.0017L61.5648 79.4185L61.9536 75.3361H66.4453V77.0959H63.5804L63.4781 78.1191C63.6111 78.0679 63.9181 77.9963 64.2659 77.9963C65.8518 77.9963 66.9978 78.9376 67.008 80.5952C66.9978 82.3243 65.77 83.3782 64.092 83.3782C62.414 83.3782 61.2987 82.355 61.2987 81.076L61.309 81.0556Z" fill="white"/>
</g>
<path d="M31.0322 89.5785L32.0861 89.8547C31.9531 90.4072 32.0247 90.7858 32.567 91.103C33.0376 91.3895 33.4776 91.3792 33.7027 91.0109C33.8869 90.6937 33.7334 90.3868 33.232 89.957C32.2396 89.0873 31.9428 88.32 32.4135 87.5219C32.8944 86.7136 33.9176 86.4987 34.9407 87.1126C35.8002 87.6242 36.1276 88.453 35.8411 89.3738L34.7975 89.0976C34.9407 88.586 34.8691 88.2483 34.4291 87.9925C34.0096 87.7367 33.6106 87.7265 33.3855 88.1153C33.2013 88.412 33.4469 88.7088 33.938 89.1692C34.91 90.0491 35.1454 90.796 34.6645 91.6043C34.1427 92.4843 33.0376 92.5763 32.0554 91.9931C31.1243 91.4406 30.756 90.5709 31.0425 89.5989L31.0322 89.5785Z" fill="white"/>
<path d="M35.893 91.5021L37.1822 88.5349L38.2054 88.9851L36.9367 91.9011C36.5786 92.7197 36.7218 93.262 37.4176 93.5587C38.1133 93.8656 38.5942 93.5587 38.9421 92.7708L40.2108 89.8548L41.234 90.305L39.9448 93.2824C39.2695 94.8479 38.1031 95.0013 37.0083 94.5307C35.9544 94.0703 35.2177 93.088 35.893 91.5226V91.5021Z" fill="white"/>
<path d="M42.0632 90.571L44.0277 91.1338C44.9178 91.3896 45.7057 92.0956 45.3373 93.3541C44.9895 94.5614 43.9356 94.807 43.1171 94.5717L42.1655 94.2954L41.6437 96.1166L40.5694 95.8097L42.0734 90.5813L42.0632 90.571ZM43.2501 93.5485C43.864 93.7224 44.1607 93.3848 44.263 93.0267C44.3653 92.6788 44.263 92.2388 43.6593 92.0751L42.851 91.8398L42.4315 93.3131L43.2501 93.5485Z" fill="white"/>
<path d="M46.4523 91.7579L49.8901 92.3309L49.7264 93.3233L47.3936 92.9345L47.1992 94.1214L49.2046 94.4488L49.0409 95.4106L47.0355 95.0832L46.8309 96.3008L49.1637 96.6896L49 97.682L45.5621 97.1091L46.4523 91.7374V91.7579Z" fill="white"/>
<path d="M50.5651 92.4022L52.6523 92.5045C53.7676 92.5557 54.3917 93.3231 54.3508 94.2337C54.3099 95.0932 53.8494 95.5843 53.2662 95.7889L54.4019 98.0501L53.1741 97.9887L52.1612 95.9015L51.5064 95.8708L51.4041 97.9069L50.2888 97.8557L50.5548 92.4227L50.5651 92.4022ZM52.4272 94.9192C52.9593 94.9499 53.2151 94.6225 53.2355 94.2542C53.256 93.8551 53.0207 93.5379 52.4886 93.5073L51.6292 93.4663L51.5575 94.8783L52.417 94.9192H52.4272Z" fill="white"/>
<path d="M57.5031 92.4535L60.9512 92.0238L61.074 93.0265L58.7309 93.313L58.8946 94.6431L60.9205 94.3873L61.0433 95.3593L59.0174 95.6151L59.2732 97.7126L58.1579 97.8456L57.4929 92.4433L57.5031 92.4535Z" fill="white"/>
<path d="M62.4034 95.0626L61.6156 91.9215L62.7002 91.6452L63.4778 94.725C63.6926 95.5947 64.1326 95.9323 64.8693 95.7481C65.606 95.564 65.8004 95.0217 65.5957 94.1929L64.8181 91.1132L65.9027 90.8369L66.7008 93.978C67.1203 95.6253 66.2813 96.4643 65.1353 96.7611C64.0201 97.0475 62.8332 96.7099 62.4239 95.0524L62.4034 95.0626Z" fill="white"/>
<path d="M66.6901 90.5814L67.7542 90.1414L71.2944 92.5868L69.9234 89.2513L70.9568 88.8215L73.0236 93.8555L71.9697 94.2853L68.4295 91.8501L69.7903 95.1857L68.7569 95.6154L66.6901 90.5814Z" fill="white"/>
<path d="M71.7245 88.453L73.4434 87.4503C74.835 86.6318 76.2265 87.1024 77.045 88.4939C77.9045 89.9673 77.4031 91.4407 76.1855 92.1466L74.4768 93.1494L71.7245 88.453ZM75.6535 91.2872C76.6153 90.7244 76.5027 89.7729 76.073 89.0464C75.6126 88.2586 74.927 87.747 73.8629 88.3712L73.1979 88.76L74.927 91.7169L75.6535 91.2974V91.2872Z" fill="white"/>
<path d="M10.0787 46.6871L10.6619 44.078C10.8973 43.0446 11.6749 41.9191 13.3631 42.2977C14.9797 42.666 15.2969 44.0166 15.082 44.9681L14.8262 46.1141L17.0056 46.6052L16.6577 48.1707L10.0787 46.6871ZM13.6394 44.8658C13.8031 44.1394 13.3017 43.9245 13.0254 43.8529C12.7594 43.7915 12.2171 43.812 12.0534 44.5179L11.8488 45.4388L13.4245 45.7969L13.6394 44.8658Z" fill="white"/>
<path d="M11.623 40.4152L12.6052 37.8777C13.0963 36.609 14.273 36.1486 15.3371 36.5579C16.3193 36.9364 16.7491 37.6117 16.8002 38.3689L19.8083 37.9596L19.174 39.5864L16.4626 39.9036L16.2375 40.4868L18.4884 41.3565L17.9155 42.8504L11.623 40.4152ZM15.2859 39.1158C15.511 38.5428 15.1734 38.1949 14.8869 38.0824C14.5492 37.9494 14.1195 37.9903 13.8944 38.5633L13.5568 39.433L14.9483 39.9752L15.2859 39.1158Z" fill="white"/>
<path d="M16.9027 36.1075C15.3986 35.2071 14.4778 33.3143 15.6749 31.3191C16.8618 29.3341 18.9695 29.2318 20.4736 30.122C21.9674 31.0121 22.8882 32.9255 21.7014 34.9104C20.5145 36.8954 18.3965 36.9874 16.9027 36.1075ZM19.6448 31.493C18.6728 30.92 17.5882 31.0121 16.9538 32.0762C16.3093 33.1505 16.7492 34.143 17.7212 34.7262C18.683 35.2992 19.7778 35.2071 20.4122 34.143C21.0363 33.0892 20.6066 32.066 19.6448 31.493Z" fill="white"/>
<path d="M22.0897 22.6735L26.0392 28.6897L24.9955 30.1017L18.0789 28.1065L19.1123 26.715L23.7882 28.1167L21.0666 24.065L22.1 22.6735H22.0897Z" fill="white"/>
<path d="M23.431 21.7833L24.6588 20.7499L28.9971 25.9169L27.7693 26.9503L23.431 21.7833Z" fill="white"/>
<path d="M26.2541 19.2558L28.3721 17.7619C29.8352 16.7285 31.6462 16.9536 32.8945 18.7135C34.2042 20.5654 33.4879 22.4173 32.2294 23.3075L30.1524 24.7809L26.2541 19.266V19.2558ZM31.37 22.1309C32.3625 21.4249 32.1169 20.3812 31.5848 19.6241C30.9709 18.7544 30.1626 18.2633 29.0883 19.0307L28.4028 19.5115L30.6231 22.6629L31.37 22.1309Z" fill="white"/>
<path d="M32.6893 14.9894L36.6285 13.0454L37.2731 14.3448L34.7663 15.5829L35.3086 16.6674L37.4368 15.6136L38.0507 16.8721L35.9225 17.9259L36.475 19.0412L38.9818 17.8032L39.6264 19.1026L35.6872 21.0466L32.6995 14.9894H32.6893Z" fill="white"/>
<path d="M38.5535 12.2574L41.1421 11.4388C42.4416 11.0296 43.5364 11.6537 43.8842 12.7485C44.2014 13.7512 43.9456 14.5083 43.3829 15.0199L45.5827 17.1174L43.9149 17.6392L41.9811 15.7259L41.3877 15.9101L42.1142 18.2122L40.5896 18.6931L38.5638 12.2574H38.5535ZM41.8481 14.3037C42.4416 14.1195 42.503 13.6386 42.4109 13.3522C42.3086 13.0145 42.0016 12.6973 41.4082 12.8815L40.518 13.1578L40.9682 14.58L41.8481 14.3037Z" fill="white"/>
<path d="M48.693 13.0659C48.601 11.3163 49.6651 9.50528 51.9876 9.3825C54.3 9.25972 55.5585 10.9582 55.6506 12.7078C55.7427 14.437 54.6581 16.2787 52.356 16.3912C50.0436 16.514 48.7851 14.8053 48.693 13.0659ZM54.0442 12.7897C53.9828 11.6642 53.3075 10.8149 52.0593 10.8763C50.811 10.9377 50.2278 11.8586 50.2892 12.9841C50.3506 14.0993 51.0259 14.9588 52.2741 14.8974C53.5019 14.836 54.1056 13.9049 54.0442 12.7897Z" fill="white"/>
<path d="M56.9494 9.49475L61.3183 9.94495L61.1751 11.3876L58.4023 11.1011L58.259 12.4722L60.643 12.7177L60.4998 14.1092L58.1158 13.8637L57.86 16.3807L56.2638 16.217L56.9494 9.50498V9.49475Z" fill="white"/>
<path d="M67.1607 12.8713L65.4418 12.3086L65.9124 10.8864L70.8748 12.5234L70.4041 13.9456L68.6852 13.3829L67.0481 18.376L65.5236 17.8746L67.1607 12.8815V12.8713Z" fill="white"/>
<path d="M72.4503 13.1682L73.8725 13.9049L72.6754 16.207L74.8752 17.3427L76.0723 15.0406L77.4945 15.7773L74.3943 21.7731L72.9721 21.0364L74.1999 18.6729L72.0001 17.5371L70.7723 19.9007L69.3501 19.164L72.4503 13.1682Z" fill="white"/>
<path d="M79.4389 17.0563L82.9688 19.6756L82.1093 20.842L79.8686 19.1742L79.1421 20.1462L81.0452 21.5582L80.2165 22.6837L78.3134 21.2717L77.5767 22.2744L79.8174 23.9422L78.958 25.1086L75.428 22.4893L79.4491 17.0665L79.4389 17.0563Z" fill="white"/>
<path d="M84.8002 27.3802L86.4475 22.7964L87.5935 24.1367L86.5498 26.93L89.4761 26.3468L90.6221 27.6974L85.8336 28.5978L83.9101 30.2348L82.8767 29.0173L84.8002 27.3802Z" fill="white"/>
<path d="M91.1534 28.4952L93.4453 32.2503L92.2073 33.0074L90.7544 30.6234L89.721 31.2578L90.959 33.2837L89.7619 34.0101L88.5239 31.9843L87.4598 32.6288L88.9127 35.0128L87.6746 35.77L85.3827 32.0149L91.1432 28.5055L91.1534 28.4952Z" fill="white"/>
<path d="M91.0309 40.2514L90.0282 37.8061L88.8106 37.847L88.1865 36.3327L95.3896 36.1281L96.0342 37.7037L90.7444 42.5945L90.1305 41.0904L91.0206 40.2719L91.0309 40.2514ZM92.1666 39.2078L93.8343 37.673L91.5629 37.7447L92.1666 39.2078Z" fill="white"/>
<path d="M97.5179 41.8476L98.1522 44.4874C98.4694 45.8073 97.7737 46.8611 96.6584 47.1272C95.6352 47.3727 94.8986 47.0658 94.4279 46.4723L92.1871 48.5187L91.7779 46.8202L93.8242 45.0194L93.681 44.4055L91.3379 44.9683L90.9593 43.4131L97.5179 41.8271V41.8476ZM95.2567 44.9887C95.3999 45.5924 95.8706 45.6845 96.1673 45.6129C96.5152 45.531 96.8528 45.2445 96.7096 44.6511L96.4947 43.7405L95.0418 44.0884L95.2567 44.9887Z" fill="white"/>
<defs>
<filter id="filter0_d_18017_28865" x="36.0151" y="64.787" width="36.8443" height="6.77336" filterUnits="userSpaceOnUse" color-interpolation-filters="sRGB">
<feFlood flood-opacity="0" result="BackgroundImageFix"/>
<feColorMatrix in="SourceAlpha" type="matrix" values="0 0 0 0 0 0 0 0 0 0 0 0 0 0 0 0 0 0 127 0" result="hardAlpha"/>
<feOffset dx="0.317183" dy="0.317183"/>
<feColorMatrix type="matrix" values="0 0 0 0 0 0 0 0 0 0.278431 0 0 0 0 0.803922 0 0 0 1 0"/>
<feBlend mode="normal" in2="BackgroundImageFix" result="effect1_dropShadow_18017_28865"/>
<feBlend mode="normal" in="SourceGraphic" in2="effect1_dropShadow_18017_28865" result="shape"/>
</filter>
<filter id="filter1_d_18017_28865" x="25.2002" y="46.4211" width="58.6489" height="15.45" filterUnits="userSpaceOnUse" color-interpolation-filters="sRGB">
<feFlood flood-opacity="0" result="BackgroundImageFix"/>
<feColorMatrix in="SourceAlpha" type="matrix" values="0 0 0 0 0 0 0 0 0 0 0 0 0 0 0 0 0 0 127 0" result="hardAlpha"/>
<feOffset dx="0.317183" dy="0.317183"/>
<feColorMatrix type="matrix" values="0 0 0 0 0 0 0 0 0 0.278431 0 0 0 0 0.803922 0 0 0 1 0"/>
<feBlend mode="normal" in2="BackgroundImageFix" result="effect1_dropShadow_18017_28865"/>
<feBlend mode="normal" in="SourceGraphic" in2="effect1_dropShadow_18017_28865" result="shape"/>
</filter>
<filter id="filter2_d_18017_28865" x="41.7243" y="75.1621" width="25.6009" height="8.53325" filterUnits="userSpaceOnUse" color-interpolation-filters="sRGB">
<feFlood flood-opacity="0" result="BackgroundImageFix"/>
<feColorMatrix in="SourceAlpha" type="matrix" values="0 0 0 0 0 0 0 0 0 0 0 0 0 0 0 0 0 0 127 0" result="hardAlpha"/>
<feOffset dx="0.317183" dy="0.317183"/>
<feColorMatrix type="matrix" values="0 0 0 0 0 0 0 0 0 0.278431 0 0 0 0 0.803922 0 0 0 1 0"/>
<feBlend mode="normal" in2="BackgroundImageFix" result="effect1_dropShadow_18017_28865"/>
<feBlend mode="normal" in="SourceGraphic" in2="effect1_dropShadow_18017_28865" result="shape"/>
</filter>
<radialGradient id="paint0_radial_18017_28865" cx="0" cy="0" r="1" gradientUnits="userSpaceOnUse" gradientTransform="translate(1.67288 1.87342) scale(120.276 120.276)">
<stop stop-color="#FFF3C1"/>
<stop offset="1" stop-color="#DDBA14"/>
</radialGradient>
<linearGradient id="paint1_linear_18017_28865" x1="0.828184" y1="0.838899" x2="92.5656" y2="92.5763" gradientUnits="userSpaceOnUse">
<stop stop-color="#F5DC82"/>
<stop offset="0.5" stop-color="#DFC36A"/>
<stop offset="1" stop-color="#FFF1BB"/>
</linearGradient>
<linearGradient id="paint2_linear_18017_28865" x1="3.05897" y1="3.06946" x2="90.9902" y2="91.0007" gradientUnits="userSpaceOnUse">
<stop stop-color="#8A744A"/>
<stop offset="0.5" stop-color="#78641F"/>
<stop offset="1" stop-color="#F2EEE2"/>
</linearGradient>
<linearGradient id="paint3_linear_18017_28865" x1="11.6635" y1="82.3858" x2="81.8222" y2="12.227" gradientUnits="userSpaceOnUse">
<stop stop-color="#0039D3"/>
<stop offset="0.2" stop-color="#0054FF"/>
<stop offset="0.5" stop-color="#2B6CFF"/>
<stop offset="0.8" stop-color="#0054FF"/>
<stop offset="1" stop-color="#0039D3"/>
</linearGradient>
</defs>
</svg>
