<?xml version="1.0" encoding="utf-8"?>
<!-- Generator: Adobe Illustrator 27.7.0, SVG Export Plug-In . SVG Version: 6.00 Build 0)  -->
<svg version="1.1" id="Layer_1" xmlns="http://www.w3.org/2000/svg" xmlns:xlink="http://www.w3.org/1999/xlink" x="0px" y="0px"
	 viewBox="0 0 886.3 31.7" style="enable-background:new 0 0 886.3 31.7;" xml:space="preserve">
<style type="text/css">
	.st0{fill:#FFFFFF;}
</style>
<g>
	<g>
		<path class="st0" d="M8.2,12.9c3.1-1.9,4.3-3,4.3-5c0-2-1.5-3.6-4-3.6c-2.8,0-4.5,2-4.6,4.9L0,8.7c0.1-5,3.8-8.4,8.8-8.4
			c4.7,0,7.9,3.2,7.9,7.5c0,3.4-2.1,5.6-6.6,8.2c-3.9,2.4-5.4,3.6-5.4,5.6h12v4.1H0.1v-2.3C0.1,18.4,3.1,15.9,8.2,12.9z"/>
		<path class="st0" d="M17.9,17.4l8.9-16.8h4.8l-8.4,15.9h7.2v-7h4.2v7h3v3.8h-3v5.4h-4.2v-5.4H17.9V17.4z"/>
		<path class="st0" d="M49,0.6h4.3l-11,25H38L49,0.6z"/>
		<path class="st0" d="M71.2,0.6v2.9L60.7,25.6h-4.6l10.1-21H54.2v-4H71.2z"/>
		<path class="st0" d="M81.3,0.6h9.4c4.2,0,7.7,3.3,7.7,7.4c0,3.1-1.5,5.5-3.9,6.7c0.7,0.6,1,1.4,1.3,2.3l0.8,2.5
			c0.6,1.9,1.7,2.2,2.9,2l0.6,3.9c-1.5,0.4-5.8,0.9-7.2-3.5l-1.2-3.7c-0.5-1.7-1.4-2.6-3.4-2.6h-2.9v10h-4.2V0.6z M94.2,8.2
			c0-2.1-1.7-3.6-3.9-3.6h-4.8v7.3h4.8C92.5,11.9,94.2,10.3,94.2,8.2z"/>
		<path class="st0" d="M118.9,16.9c0,5.1-4,9.1-9.1,9.1s-9-3.9-9-9.1c0-5.2,3.9-9.1,9-9.1S118.9,11.7,118.9,16.9z M104.7,16.9
			c0,3,2.3,5.3,5.2,5.3c2.9,0,5.2-2.3,5.2-5.3c0-3-2.3-5.3-5.2-5.3C106.9,11.5,104.7,13.9,104.7,16.9z"/>
		<path class="st0" d="M139.5,25.6h-4v-3.1c-1.3,2.2-3.4,3.5-6.2,3.5c-4.6,0-8.3-4.1-8.3-9.1s3.7-9.1,8.3-9.1c2.8,0,5,1.3,6.2,3.5
			V8.1h4V25.6z M135.5,16.8c0-3-2.3-5.3-5.3-5.3c-3,0-5.3,2.4-5.3,5.3c0,3,2.4,5.3,5.3,5.3C133.2,22.2,135.5,19.9,135.5,16.8z"/>
		<path class="st0" d="M142.4,16.8c0-5,3.7-9.1,8.3-9.1c2.8,0,5,1.3,6.2,3.5V0.6h4v25h-4v-3.1c-1.3,2.2-3.4,3.5-6.2,3.5
			C146.1,26,142.4,21.9,142.4,16.8z M156.9,16.8c0-3-2.3-5.3-5.3-5.3c-3,0-5.3,2.4-5.3,5.3c0,3,2.4,5.3,5.3,5.3
			C154.7,22.2,156.9,19.9,156.9,16.8z"/>
		<path class="st0" d="M163.7,23.5l1.6-3c1.3,1.3,3.9,2.2,5.9,2.2c1.8,0,2.9-0.9,2.9-1.9c0-3.2-9.7-1-9.7-7.4c0-3.3,2.8-5.5,6.8-5.5
			c2.4,0,5,0.7,6.5,2.1l-1.6,3.1c-1.4-1.2-3.9-1.9-5.4-1.9c-1.5,0-2.5,0.7-2.5,1.9c0,3,9.8,1.1,9.8,7.6c0,3.1-2.8,5.4-6.9,5.4
			C168.4,26,165.4,25,163.7,23.5z"/>
		<path class="st0" d="M180.3,2.6c0-1.4,1.2-2.6,2.6-2.6c1.4,0,2.6,1.2,2.6,2.6c0,1.4-1.1,2.5-2.6,2.5
			C181.5,5.1,180.3,3.9,180.3,2.6z M184.9,8.1v17.5h-4V8.1H184.9z"/>
		<path class="st0" d="M187.8,16.8c0-5,3.7-9.1,8.3-9.1c2.8,0,5,1.3,6.2,3.5V0.6h4v25h-4v-3.1c-1.3,2.2-3.4,3.5-6.2,3.5
			C191.5,26,187.8,21.9,187.8,16.8z M202.3,16.8c0-3-2.3-5.3-5.3-5.3c-3,0-5.3,2.4-5.3,5.3c0,3,2.4,5.3,5.3,5.3
			C200.1,22.2,202.3,19.9,202.3,16.8z"/>
		<path class="st0" d="M209.2,16.8c0-5.1,4-9,9-9c4.8,0,8.4,3.7,8.4,8.5l-0.1,1.6h-13.5c0.4,3,2.4,4.7,5.3,4.7c2,0,3.9-0.8,4.6-2.2
			l3.1,1.9c-1.3,2.3-4.3,3.8-7.8,3.8C213.3,26,209.2,22,209.2,16.8z M222.5,14.9c-0.3-2.2-2.1-3.8-4.5-3.8c-2.5,0-4.3,1.5-4.8,3.8
			H222.5z"/>
		<path class="st0" d="M257.5,25.6H253l-1.9-5h-10.6l-2,5h-4.4l9.9-25h3.5L257.5,25.6z M249.6,16.8L245.7,7l-3.8,9.8H249.6z"/>
		<path class="st0" d="M258.1,23.5l1.6-3c1.3,1.3,3.9,2.2,5.9,2.2c1.8,0,2.9-0.9,2.9-1.9c0-3.2-9.7-1-9.7-7.4c0-3.3,2.8-5.5,6.8-5.5
			c2.4,0,5,0.7,6.5,2.1l-1.6,3.1c-1.4-1.2-3.9-1.9-5.4-1.9c-1.5,0-2.5,0.7-2.5,1.9c0,3,9.8,1.1,9.8,7.6c0,3.1-2.8,5.4-6.9,5.4
			C262.8,26,259.8,25,258.1,23.5z"/>
		<path class="st0" d="M274.1,23.5l1.6-3c1.3,1.3,3.9,2.2,5.9,2.2c1.8,0,2.9-0.9,2.9-1.9c0-3.2-9.7-1-9.7-7.4c0-3.3,2.8-5.5,6.8-5.5
			c2.4,0,5,0.7,6.5,2.1l-1.6,3.1c-1.4-1.2-3.9-1.9-5.4-1.9c-1.5,0-2.5,0.7-2.5,1.9c0,3,9.8,1.1,9.8,7.6c0,3.1-2.8,5.4-6.9,5.4
			C278.8,26,275.8,25,274.1,23.5z"/>
		<path class="st0" d="M290.7,2.6c0-1.4,1.2-2.6,2.6-2.6c1.4,0,2.6,1.2,2.6,2.6c0,1.4-1.1,2.5-2.6,2.5
			C291.9,5.1,290.7,3.9,290.7,2.6z M295.3,8.1v17.5h-4V8.1H295.3z"/>
		<path class="st0" d="M298,23.5l1.6-3c1.3,1.3,3.9,2.2,5.9,2.2c1.8,0,2.9-0.9,2.9-1.9c0-3.2-9.7-1-9.7-7.4c0-3.3,2.8-5.5,6.8-5.5
			c2.4,0,5,0.7,6.5,2.1l-1.6,3.1c-1.4-1.2-3.9-1.9-5.4-1.9c-1.5,0-2.5,0.7-2.5,1.9c0,3,9.8,1.1,9.8,7.6c0,3.1-2.8,5.4-6.9,5.4
			C302.7,26,299.7,25,298,23.5z"/>
		<path class="st0" d="M316.6,19.1v-7.2h-3.3V8.1h3.3V3.4h4v4.7h4.6v3.8h-4.6v7c0,2,1.4,3.3,3.1,3.3c0.4,0,1-0.1,1.4-0.2l0.2,3.5
			c-0.6,0.3-1.4,0.4-2.1,0.4C319.3,25.8,316.6,23.4,316.6,19.1z"/>
		<path class="st0" d="M332.9,8.1h4.3l3.7,11.4l4.1-11.4h3.2l4.1,11.4l3.6-11.4h4.3l-6.3,17.5h-3.2l-4.1-11.3l-4.2,11.3h-3.1
			L332.9,8.1z"/>
		<path class="st0" d="M361.8,2.6c0-1.4,1.2-2.6,2.6-2.6c1.4,0,2.6,1.2,2.6,2.6c0,1.4-1.1,2.5-2.6,2.5C363,5.1,361.8,3.9,361.8,2.6z
			 M366.4,8.1v17.5h-4V8.1H366.4z"/>
		<path class="st0" d="M371.8,19.1v-7.2h-3.3V8.1h3.3V3.4h4v4.7h4.6v3.8h-4.6v7c0,2,1.4,3.3,3.1,3.3c0.4,0,1-0.1,1.4-0.2l0.2,3.5
			c-0.6,0.3-1.4,0.4-2.1,0.4C374.6,25.8,371.8,23.4,371.8,19.1z"/>
		<path class="st0" d="M391.5,11.6c-2.6,0-4.3,1.8-4.3,4.5v9.5h-4v-25h4v10.3c1.1-2,2.9-3.1,5.3-3.1c4.5,0,7.3,3,7.3,7.9v10h-4v-9.5
			C395.7,13.4,394.1,11.6,391.5,11.6z"/>
		<path class="st0" d="M422.5,26c-7.2,0-12.6-5.6-12.6-12.9c0-7.3,5.4-12.8,12.6-12.8c4.9,0,9.2,2.5,10.5,6.2l-3.7,1.8
			c-1.1-2.4-3.7-4-6.8-4c-4.9,0-8.3,3.7-8.3,8.8s3.4,8.8,8.3,8.8c3.3,0,6-1.7,7-4.4l3.8,1.7C432.1,23.2,427.6,26,422.5,26z"/>
		<path class="st0" d="M452.9,16.9c0,5.1-4,9.1-9.1,9.1c-5.1,0-9-3.9-9-9.1c0-5.2,3.9-9.1,9-9.1C449,7.8,452.9,11.7,452.9,16.9z
			 M438.7,16.9c0,3,2.3,5.3,5.2,5.3c2.9,0,5.2-2.3,5.2-5.3c0-3-2.3-5.3-5.2-5.3C440.9,11.5,438.7,13.9,438.7,16.9z"/>
		<path class="st0" d="M483.3,25.6h-4v-9.8c0-2.6-1.5-4.2-3.8-4.2c-2,0-3.9,1.3-3.9,4.2v9.8h-4v-9.8c0-2.6-1.5-4.2-3.8-4.2
			c-1.9,0-3.9,1.2-3.9,4.2v9.8h-4V8.1h4v2.5c1.3-2.1,3.5-2.8,5.3-2.8c2.5,0,4.3,1,5.4,3.1c1-1.9,3.2-3.1,5.6-3.1
			c4.3,0,7.2,2.8,7.2,7.2V25.6z"/>
		<path class="st0" d="M505.5,16.9c0,5-3.7,9.1-8.4,9.1c-2.8,0-4.9-1.3-6.2-3.4v9.2h-4V8.1h4v3.1c1.3-2.2,3.4-3.4,6.2-3.4
			C501.8,7.8,505.5,11.8,505.5,16.9z M490.9,16.9c0,3,2.3,5.3,5.3,5.3c3,0,5.3-2.4,5.3-5.3c0-3-2.3-5.3-5.3-5.3
			C493.2,11.5,490.9,13.8,490.9,16.9z"/>
		<path class="st0" d="M508.4,8.1h4v2.5c0.8-1.7,2.8-2.9,4.4-2.9c0.9,0,1.7,0.1,2.2,0.4l-0.4,3.9c-0.6-0.3-1.4-0.4-2.2-0.4
			c-1.9,0-4,1.6-4,4.7v9.3h-4V8.1z"/>
		<path class="st0" d="M519.4,16.8c0-5.1,4-9,9-9c4.8,0,8.4,3.7,8.4,8.5l-0.1,1.6h-13.5c0.4,3,2.4,4.7,5.3,4.7c2,0,3.9-0.8,4.6-2.2
			l3.1,1.9c-1.3,2.3-4.3,3.8-7.8,3.8C523.4,26,519.4,22,519.4,16.8z M532.7,14.9c-0.2-2.2-2.1-3.8-4.5-3.8c-2.5,0-4.3,1.5-4.8,3.8
			H532.7z"/>
		<path class="st0" d="M547.9,11.6c-2.6,0-4.3,1.8-4.3,4.5v9.5h-4v-25h4v10.3c1.1-2,2.9-3.1,5.3-3.1c4.5,0,7.3,3,7.3,7.9v10h-4v-9.5
			C552.2,13.4,550.5,11.6,547.9,11.6z"/>
		<path class="st0" d="M558.9,16.8c0-5.1,4-9,9-9c4.8,0,8.4,3.7,8.4,8.5l-0.1,1.6h-13.5c0.4,3,2.4,4.7,5.3,4.7c2,0,3.9-0.8,4.6-2.2
			l3.1,1.9c-1.3,2.3-4.3,3.8-7.8,3.8C562.9,26,558.9,22,558.9,16.8z M572.2,14.9c-0.2-2.2-2.1-3.8-4.5-3.8c-2.5,0-4.3,1.5-4.8,3.8
			H572.2z"/>
		<path class="st0" d="M583.1,10.9c1.1-2,2.9-3.1,5.3-3.1c4.5,0,7.3,3,7.3,7.9v10h-4v-9.5c0-2.8-1.6-4.5-4.2-4.5
			c-2.6,0-4.3,1.8-4.3,4.5v9.5h-4V8.1h4V10.9z"/>
		<path class="st0" d="M598.2,23.5l1.6-3c1.3,1.3,3.9,2.2,5.9,2.2c1.8,0,2.9-0.9,2.9-1.9c0-3.2-9.7-1-9.7-7.4c0-3.3,2.8-5.5,6.8-5.5
			c2.4,0,5,0.7,6.5,2.1l-1.6,3.1c-1.4-1.2-3.9-1.9-5.4-1.9c-1.5,0-2.5,0.7-2.5,1.9c0,3,9.8,1.1,9.8,7.6c0,3.1-2.8,5.4-6.9,5.4
			C602.9,26,599.9,25,598.2,23.5z"/>
		<path class="st0" d="M614.8,2.6c0-1.4,1.2-2.6,2.6-2.6c1.4,0,2.6,1.2,2.6,2.6c0,1.4-1.1,2.5-2.6,2.5C616,5.1,614.8,3.9,614.8,2.6z
			 M619.4,8.1v17.5h-4V8.1H619.4z"/>
		<path class="st0" d="M632.2,25.6h-3.4l-7.3-17.5h4.3l4.7,12.2l4.7-12.2h4.4L632.2,25.6z"/>
		<path class="st0" d="M639.8,16.8c0-5.1,4-9,9-9c4.8,0,8.4,3.7,8.4,8.5l-0.1,1.6h-13.5c0.4,3,2.4,4.7,5.3,4.7c2,0,3.9-0.8,4.6-2.2
			l3.1,1.9c-1.3,2.3-4.3,3.8-7.8,3.8C643.9,26,639.8,22,639.8,16.8z M653.1,14.9c-0.2-2.2-2.1-3.8-4.5-3.8c-2.5,0-4.3,1.5-4.8,3.8
			H653.1z"/>
		<path class="st0" d="M679.2,26c-7.2,0-12.6-5.6-12.6-12.9c0-7.3,5.4-12.8,12.6-12.8c4.9,0,9.2,2.5,10.5,6.2l-3.7,1.8
			c-1.1-2.4-3.7-4-6.8-4c-4.9,0-8.3,3.7-8.3,8.8s3.4,8.8,8.3,8.8c3.3,0,6-1.7,7-4.4l3.8,1.7C688.8,23.2,684.4,26,679.2,26z"/>
		<path class="st0" d="M710.1,25.6h-4v-3.1c-1.3,2.2-3.4,3.5-6.2,3.5c-4.6,0-8.3-4.1-8.3-9.1s3.7-9.1,8.3-9.1c2.8,0,5,1.3,6.2,3.5
			V8.1h4V25.6z M706.1,16.8c0-3-2.3-5.3-5.3-5.3c-3,0-5.3,2.4-5.3,5.3c0,3,2.4,5.3,5.3,5.3C703.8,22.2,706.1,19.9,706.1,16.8z"/>
		<path class="st0" d="M713.9,8.1h4v2.5c0.8-1.7,2.8-2.9,4.4-2.9c0.9,0,1.7,0.1,2.2,0.4l-0.4,3.9c-0.6-0.3-1.4-0.4-2.2-0.4
			c-1.9,0-4,1.6-4,4.7v9.3h-4V8.1z"/>
		<path class="st0" d="M737.9,0.6v25h-4.2v-25H737.9z"/>
		<path class="st0" d="M746,10.9c1.1-2,2.9-3.1,5.3-3.1c4.5,0,7.3,3,7.3,7.9v10h-4v-9.5c0-2.8-1.6-4.5-4.2-4.5
			c-2.6,0-4.3,1.8-4.3,4.5v9.5h-4V8.1h4V10.9z"/>
		<path class="st0" d="M761.1,23.5l1.6-3c1.3,1.3,3.9,2.2,5.9,2.2c1.8,0,2.9-0.9,2.9-1.9c0-3.2-9.7-1-9.7-7.4c0-3.3,2.8-5.5,6.8-5.5
			c2.4,0,5,0.7,6.5,2.1l-1.6,3.1c-1.4-1.2-3.9-1.9-5.4-1.9c-1.5,0-2.5,0.7-2.5,1.9c0,3,9.8,1.1,9.8,7.6c0,3.1-2.8,5.4-6.9,5.4
			C765.8,26,762.8,25,761.1,23.5z"/>
		<path class="st0" d="M786.1,26c-4.8,0-8.2-3.4-8.2-8.4V8.1h4v9.4c0,2.8,1.6,4.6,4.2,4.6s4.2-1.8,4.2-4.6V8.1h4v9.4
			C794.3,22.5,791,26,786.1,26z"/>
		<path class="st0" d="M797.9,8.1h4v2.5c0.8-1.7,2.8-2.9,4.4-2.9c0.9,0,1.7,0.1,2.2,0.4l-0.4,3.9c-0.6-0.3-1.4-0.4-2.2-0.4
			c-1.9,0-4,1.6-4,4.7v9.3h-4V8.1z"/>
		<path class="st0" d="M827.5,25.6h-4v-3.1c-1.3,2.2-3.4,3.5-6.2,3.5c-4.6,0-8.3-4.1-8.3-9.1s3.7-9.1,8.3-9.1c2.8,0,5,1.3,6.2,3.5
			V8.1h4V25.6z M823.5,16.8c0-3-2.3-5.3-5.3-5.3c-3,0-5.3,2.4-5.3,5.3c0,3,2.4,5.3,5.3,5.3C821.2,22.2,823.5,19.9,823.5,16.8z"/>
		<path class="st0" d="M835.3,10.9c1.1-2,2.9-3.1,5.3-3.1c4.5,0,7.3,3,7.3,7.9v10h-4v-9.5c0-2.8-1.6-4.5-4.2-4.5
			c-2.6,0-4.3,1.8-4.3,4.5v9.5h-4V8.1h4V10.9z"/>
		<path class="st0" d="M859.6,26c-5.2,0-9.1-3.9-9.1-9.1c0-5.2,3.9-9.1,9.1-9.1c3.4,0,6.3,1.7,7.5,4.3l-3.4,1.9
			c-0.7-1.4-2.3-2.3-4.1-2.3c-3,0-5.2,2.3-5.2,5.3c0,3,2.2,5.3,5.2,5.3c2,0,3.7-1,4.5-2.6l3.5,1.6C866.4,24.1,863.3,26,859.6,26z"/>
		<path class="st0" d="M868.9,16.8c0-5.1,4-9,9-9c4.8,0,8.4,3.7,8.4,8.5l-0.1,1.6h-13.5c0.4,3,2.4,4.7,5.3,4.7c2,0,3.9-0.8,4.6-2.2
			l3.1,1.9c-1.3,2.3-4.3,3.8-7.8,3.8C872.9,26,868.9,22,868.9,16.8z M882.2,14.9c-0.2-2.2-2.1-3.8-4.5-3.8c-2.5,0-4.3,1.5-4.8,3.8
			H882.2z"/>
	</g>
</g>
</svg>
