<?xml version="1.0" encoding="utf-8"?>
<!-- Generator: Adobe Illustrator 27.7.0, SVG Export Plug-In . SVG Version: 6.00 Build 0)  -->
<svg version="1.1" id="Layer_1" xmlns="http://www.w3.org/2000/svg" xmlns:xlink="http://www.w3.org/1999/xlink" x="0px" y="0px"
	 viewBox="0 0 418.9 72.4" style="enable-background:new 0 0 418.9 72.4;" xml:space="preserve">
<style type="text/css">
	.st0{enable-background:new    ;}
	.st1{fill:#ffffff;}
	.st2{fill:none;stroke:#ffffff;stroke-miterlimit:10;}
</style>
<g>
	<g class="st0">
		<path class="st1" d="M5.8,67.2c0,1.8-1.4,3.2-3.1,3.2h-2v-6.3h2C4.4,64.1,5.8,65.4,5.8,67.2z M4.9,67.2c0-1.3-0.9-2.3-2.2-2.3H1.5
			v4.6h1.2C3.9,69.5,4.9,68.5,4.9,67.2z"/>
		<path class="st1" d="M6.4,64.5C6.4,64.3,6.7,64,7,64c0.3,0,0.6,0.3,0.6,0.6c0,0.3-0.3,0.6-0.6,0.6C6.7,65.1,6.4,64.9,6.4,64.5z
			 M7.4,66v4.4H6.6V66H7.4z"/>
		<path class="st1" d="M8.2,69.8l0.3-0.6c0.3,0.3,1,0.6,1.5,0.6c0.5,0,0.9-0.3,0.9-0.6c0-1-2.5-0.3-2.5-1.9c0-0.8,0.7-1.3,1.7-1.3
			c0.6,0,1.2,0.2,1.6,0.5l-0.4,0.6c-0.3-0.3-0.9-0.5-1.3-0.5c-0.5,0-0.8,0.2-0.8,0.6c0,0.9,2.5,0.3,2.5,2c0,0.8-0.7,1.3-1.7,1.3
			C9.3,70.4,8.6,70.2,8.2,69.8z"/>
		<path class="st1" d="M14.5,70.4c-1.3,0-2.3-1-2.3-2.3c0-1.3,1-2.3,2.3-2.3c0.8,0,1.6,0.4,1.9,1.1l-0.7,0.4
			c-0.2-0.4-0.6-0.7-1.2-0.7c-0.8,0-1.5,0.7-1.5,1.5c0,0.8,0.6,1.5,1.5,1.5c0.6,0,1-0.3,1.3-0.7l0.7,0.3
			C16.1,70,15.4,70.4,14.5,70.4z"/>
		<path class="st1" d="M17.1,64.1H18v6.3h-0.8V64.1z"/>
		<path class="st1" d="M23.4,70.4h-0.8v-0.9c-0.3,0.6-0.9,1-1.7,1c-1.2,0-2.1-1-2.1-2.3c0-1.3,0.9-2.3,2.1-2.3c0.8,0,1.3,0.4,1.7,1
			V66h0.8V70.4z M22.6,68.2c0-0.9-0.6-1.5-1.5-1.5c-0.8,0-1.5,0.7-1.5,1.5c0,0.8,0.7,1.5,1.5,1.5C21.9,69.7,22.6,69,22.6,68.2z"/>
		<path class="st1" d="M24.3,64.5c0-0.3,0.3-0.6,0.6-0.6c0.3,0,0.6,0.3,0.6,0.6c0,0.3-0.3,0.6-0.6,0.6
			C24.6,65.1,24.3,64.9,24.3,64.5z M25.3,66v4.4h-0.8V66H25.3z"/>
		<path class="st1" d="M33.2,70.4h-0.8v-2.5c0-0.7-0.4-1.2-1.1-1.2c-0.5,0-1.1,0.4-1.1,1.2v2.5h-0.8v-2.5c0-0.7-0.4-1.2-1.1-1.2
			c-0.5,0-1.1,0.3-1.1,1.2v2.5h-0.8V66h0.8v0.7c0.3-0.6,0.9-0.8,1.4-0.8c0.7,0,1.2,0.3,1.4,0.9c0.3-0.5,0.8-0.9,1.5-0.9
			c1.1,0,1.8,0.7,1.8,1.8V70.4z"/>
		<path class="st1" d="M34,68.1c0-1.3,1-2.3,2.2-2.3c1.2,0,2.1,0.9,2.1,2.1l0,0.3h-3.5c0.1,0.9,0.7,1.4,1.5,1.4
			c0.6,0,1.1-0.2,1.3-0.6l0.7,0.4c-0.3,0.6-1.1,1-2,1C35,70.4,34,69.5,34,68.1z M37.5,67.7c-0.1-0.7-0.6-1.1-1.3-1.1
			c-0.7,0-1.2,0.4-1.4,1.1H37.5z"/>
		<path class="st1" d="M39.1,66H40v0.7c0.2-0.5,0.7-0.8,1.2-0.8c0.2,0,0.4,0,0.5,0.1l-0.1,0.8c-0.1-0.1-0.3-0.1-0.5-0.1
			c-0.5,0-1.1,0.4-1.1,1.2v2.5h-0.8V66z"/>
		<path class="st1" d="M48.4,70.4h-0.8v-0.9c-0.3,0.6-0.9,1-1.7,1c-1.2,0-2.1-1-2.1-2.3c0-1.3,0.9-2.3,2.1-2.3c0.8,0,1.3,0.4,1.7,1
			V66h0.8V70.4z M47.5,68.2c0-0.9-0.6-1.5-1.5-1.5c-0.8,0-1.5,0.7-1.5,1.5c0,0.8,0.7,1.5,1.5,1.5C46.9,69.7,47.5,69,47.5,68.2z"/>
		<path class="st1" d="M50.2,66.7c0.3-0.5,0.8-0.9,1.4-0.9c1.1,0,1.8,0.8,1.8,2v2.5h-0.8v-2.4c0-0.8-0.5-1.3-1.2-1.3
			c-0.7,0-1.2,0.5-1.2,1.3v2.4h-0.8V66h0.8V66.7z"/>
		<path class="st1" d="M54.2,68.2c0-1.3,0.9-2.3,2.1-2.3c0.8,0,1.3,0.4,1.7,1v-2.8h0.8v6.3h-0.8v-0.9c-0.3,0.6-0.9,1-1.7,1
			C55.2,70.4,54.2,69.4,54.2,68.2z M58.1,68.2c0-0.9-0.6-1.5-1.5-1.5c-0.8,0-1.5,0.7-1.5,1.5c0,0.8,0.7,1.5,1.5,1.5
			C57.4,69.7,58.1,69,58.1,68.2z"/>
		<path class="st1" d="M62.8,64.1v6.3h-0.9v-6.3H62.8z"/>
		<path class="st1" d="M70.8,70.4H70v-2.5c0-0.7-0.4-1.2-1.1-1.2c-0.5,0-1.1,0.4-1.1,1.2v2.5H67v-2.5c0-0.7-0.4-1.2-1.1-1.2
			c-0.5,0-1.1,0.3-1.1,1.2v2.5h-0.8V66h0.8v0.7c0.3-0.6,0.9-0.8,1.4-0.8c0.7,0,1.2,0.3,1.4,0.9c0.3-0.5,0.8-0.9,1.5-0.9
			c1.1,0,1.8,0.7,1.8,1.8V70.4z"/>
		<path class="st1" d="M76.5,68.2c0,1.3-0.9,2.3-2.1,2.3c-0.8,0-1.4-0.4-1.7-1v2.5h-0.8v-6h0.8v0.9c0.3-0.6,0.9-1,1.7-1
			C75.5,65.9,76.5,66.9,76.5,68.2z M72.6,68.2c0,0.9,0.6,1.5,1.5,1.5c0.8,0,1.5-0.7,1.5-1.5c0-0.8-0.7-1.5-1.5-1.5
			C73.3,66.7,72.6,67.3,72.6,68.2z"/>
		<path class="st1" d="M81.6,68.2c0,1.3-1,2.3-2.3,2.3s-2.3-1-2.3-2.3c0-1.3,1-2.3,2.3-2.3S81.6,66.9,81.6,68.2z M77.8,68.2
			c0,0.8,0.6,1.5,1.5,1.5c0.8,0,1.5-0.6,1.5-1.5c0-0.8-0.7-1.5-1.5-1.5C78.5,66.7,77.8,67.3,77.8,68.2z"/>
		<path class="st1" d="M82.4,66h0.8v0.7c0.2-0.5,0.7-0.8,1.2-0.8c0.2,0,0.4,0,0.5,0.1l-0.1,0.8c-0.1-0.1-0.3-0.1-0.5-0.1
			c-0.5,0-1.1,0.4-1.1,1.2v2.5h-0.8V66z"/>
		<path class="st1" d="M85.9,68.8v-2h-0.9V66h0.9v-1.2h0.8V66h1.2v0.8h-1.2v2c0,0.6,0.4,0.9,0.9,0.9c0.1,0,0.2,0,0.3,0l0,0.7
			c-0.1,0.1-0.3,0.1-0.5,0.1C86.6,70.4,85.9,69.8,85.9,68.8z"/>
		<path class="st1" d="M92.9,70.4H92v-0.9c-0.3,0.6-0.9,1-1.7,1c-1.2,0-2.1-1-2.1-2.3c0-1.3,0.9-2.3,2.1-2.3c0.8,0,1.3,0.4,1.7,1V66
			h0.8V70.4z M92,68.2c0-0.9-0.6-1.5-1.5-1.5c-0.8,0-1.5,0.7-1.5,1.5c0,0.8,0.7,1.5,1.5,1.5C91.4,69.7,92,69,92,68.2z"/>
		<path class="st1" d="M94.8,66.7c0.3-0.5,0.8-0.9,1.4-0.9c1.1,0,1.8,0.8,1.8,2v2.5h-0.8v-2.4c0-0.8-0.5-1.3-1.2-1.3
			c-0.7,0-1.2,0.5-1.2,1.3v2.4h-0.8V66h0.8V66.7z"/>
		<path class="st1" d="M99.3,68.8v-2h-0.9V66h0.9v-1.2h0.8V66h1.2v0.8h-1.2v2c0,0.6,0.4,0.9,0.9,0.9c0.1,0,0.2,0,0.3,0l0,0.7
			c-0.1,0.1-0.3,0.1-0.5,0.1C99.9,70.4,99.3,69.8,99.3,68.8z"/>
		<path class="st1" d="M104.9,64.1v6.3H104v-6.3H104.9z"/>
		<path class="st1" d="M106.8,66.7c0.3-0.5,0.8-0.9,1.4-0.9c1.1,0,1.8,0.8,1.8,2v2.5h-0.8v-2.4c0-0.8-0.5-1.3-1.2-1.3
			c-0.7,0-1.2,0.5-1.2,1.3v2.4H106V66h0.8V66.7z"/>
		<path class="st1" d="M113,63.9c0.2,0,0.3,0,0.5,0.1l0,0.7c-0.1,0-0.2,0-0.3,0c-0.5,0-0.9,0.3-0.9,0.9V66h1.2v0.8h-1.2v3.6h-0.8
			v-3.6h-0.9V66h0.9v-0.4C111.4,64.5,112.1,63.9,113,63.9z"/>
		<path class="st1" d="M118.1,68.2c0,1.3-1,2.3-2.3,2.3s-2.3-1-2.3-2.3c0-1.3,1-2.3,2.3-2.3S118.1,66.9,118.1,68.2z M114.4,68.2
			c0,0.8,0.6,1.5,1.5,1.5c0.8,0,1.5-0.6,1.5-1.5c0-0.8-0.7-1.5-1.5-1.5C115,66.7,114.4,67.3,114.4,68.2z"/>
		<path class="st1" d="M118.9,66h0.8v0.7c0.2-0.5,0.7-0.8,1.2-0.8c0.2,0,0.4,0,0.5,0.1l-0.1,0.8c-0.1-0.1-0.3-0.1-0.5-0.1
			c-0.5,0-1.1,0.4-1.1,1.2v2.5h-0.8V66z"/>
		<path class="st1" d="M129,70.4h-0.8v-2.5c0-0.7-0.4-1.2-1.1-1.2c-0.5,0-1.1,0.4-1.1,1.2v2.5h-0.8v-2.5c0-0.7-0.4-1.2-1.1-1.2
			c-0.5,0-1.1,0.3-1.1,1.2v2.5h-0.8V66h0.8v0.7c0.3-0.6,0.9-0.8,1.4-0.8c0.7,0,1.2,0.3,1.4,0.9c0.3-0.5,0.8-0.9,1.5-0.9
			c1.1,0,1.8,0.7,1.8,1.8V70.4z"/>
		<path class="st1" d="M134.4,70.4h-0.8v-0.9c-0.3,0.6-0.9,1-1.7,1c-1.2,0-2.1-1-2.1-2.3c0-1.3,0.9-2.3,2.1-2.3c0.8,0,1.3,0.4,1.7,1
			V66h0.8V70.4z M133.5,68.2c0-0.9-0.6-1.5-1.5-1.5c-0.8,0-1.5,0.7-1.5,1.5c0,0.8,0.7,1.5,1.5,1.5C132.9,69.7,133.5,69,133.5,68.2z"
			/>
		<path class="st1" d="M135.8,68.8v-2H135V66h0.9v-1.2h0.8V66h1.2v0.8h-1.2v2c0,0.6,0.4,0.9,0.9,0.9c0.1,0,0.2,0,0.3,0l0,0.7
			c-0.1,0.1-0.3,0.1-0.5,0.1C136.5,70.4,135.8,69.8,135.8,68.8z"/>
		<path class="st1" d="M138.4,64.5c0-0.3,0.3-0.6,0.6-0.6s0.6,0.3,0.6,0.6c0,0.3-0.3,0.6-0.6,0.6S138.4,64.9,138.4,64.5z M139.4,66
			v4.4h-0.8V66H139.4z"/>
		<path class="st1" d="M144.8,68.2c0,1.3-1,2.3-2.3,2.3s-2.3-1-2.3-2.3c0-1.3,1-2.3,2.3-2.3S144.8,66.9,144.8,68.2z M141,68.2
			c0,0.8,0.6,1.5,1.5,1.5c0.8,0,1.5-0.6,1.5-1.5c0-0.8-0.7-1.5-1.5-1.5C141.7,66.7,141,67.3,141,68.2z"/>
		<path class="st1" d="M146.4,66.7c0.3-0.5,0.8-0.9,1.4-0.9c1.1,0,1.8,0.8,1.8,2v2.5h-0.8v-2.4c0-0.8-0.5-1.3-1.2-1.3
			c-0.7,0-1.2,0.5-1.2,1.3v2.4h-0.8V66h0.8V66.7z"/>
		<path class="st1" d="M152.7,68.4l2.7-1.2l-2.7-1.2v-0.8l3.8,1.7v0.6l-3.8,1.8V68.4z"/>
	</g>
</g>
<g>
	<g class="st0">
		<path class="st1" d="M3.5,50.1c1.1,0,1.9,0.8,1.9,1.9s-0.8,1.9-1.9,1.9H1.9v2.5H1.1v-6.3H3.5z M4.6,51.9c0-0.6-0.5-1-1.1-1H1.9V53
			h1.6C4.1,53,4.6,52.5,4.6,51.9z"/>
		<path class="st1" d="M6.1,52h0.8v0.7c0.2-0.5,0.7-0.8,1.2-0.8c0.2,0,0.4,0,0.5,0.1l-0.1,0.8c-0.1-0.1-0.3-0.1-0.5-0.1
			c-0.5,0-1.1,0.4-1.1,1.2v2.5H6.1V52z"/>
		<path class="st1" d="M13.3,54.2c0,1.3-1,2.3-2.3,2.3s-2.3-1-2.3-2.3c0-1.3,1-2.3,2.3-2.3S13.3,52.9,13.3,54.2z M9.5,54.2
			c0,0.8,0.6,1.5,1.5,1.5c0.8,0,1.5-0.6,1.5-1.5c0-0.8-0.7-1.5-1.5-1.5C10.1,52.7,9.5,53.3,9.5,54.2z"/>
		<path class="st1" d="M13.8,54.2c0-1.3,0.9-2.3,2.1-2.3c0.8,0,1.3,0.4,1.7,1v-2.8h0.8v6.3h-0.8v-0.9c-0.3,0.6-0.9,1-1.7,1
			C14.7,56.4,13.8,55.4,13.8,54.2z M17.6,54.2c0-0.9-0.6-1.5-1.5-1.5c-0.8,0-1.5,0.7-1.5,1.5c0,0.8,0.7,1.5,1.5,1.5
			C17,55.7,17.6,55,17.6,54.2z"/>
		<path class="st1" d="M21.5,56.4c-1.2,0-2-0.9-2-2.1V52h0.8v2.4c0,0.8,0.5,1.3,1.2,1.3c0.7,0,1.2-0.5,1.2-1.3V52h0.8v2.4
			C23.5,55.6,22.6,56.4,21.5,56.4z"/>
		<path class="st1" d="M26.5,56.4c-1.3,0-2.3-1-2.3-2.3c0-1.3,1-2.3,2.3-2.3c0.8,0,1.6,0.4,1.9,1.1l-0.7,0.4
			c-0.2-0.4-0.6-0.7-1.2-0.7c-0.8,0-1.5,0.7-1.5,1.5c0,0.8,0.6,1.5,1.5,1.5c0.6,0,1-0.3,1.3-0.7l0.7,0.3
			C28.1,56,27.4,56.4,26.5,56.4z"/>
		<path class="st1" d="M29.5,54.8v-2h-0.9V52h0.9v-1.2h0.8V52h1.2v0.8h-1.2v2c0,0.6,0.4,0.9,0.9,0.9c0.1,0,0.2,0,0.3,0l0,0.7
			c-0.1,0.1-0.3,0.1-0.5,0.1C30.1,56.4,29.5,55.8,29.5,54.8z"/>
		<path class="st1" d="M34,50.5c0-0.3,0.3-0.6,0.6-0.6s0.6,0.3,0.6,0.6c0,0.3-0.3,0.6-0.6,0.6S34,50.9,34,50.5z M35,52v4.4h-0.8V52
			H35z"/>
		<path class="st1" d="M35.7,55.8l0.3-0.6c0.3,0.3,1,0.6,1.5,0.6c0.5,0,0.9-0.3,0.9-0.6c0-1-2.5-0.3-2.5-1.9c0-0.8,0.7-1.3,1.7-1.3
			c0.6,0,1.2,0.2,1.6,0.5l-0.4,0.6c-0.3-0.3-0.9-0.5-1.3-0.5c-0.5,0-0.8,0.2-0.8,0.6c0,0.9,2.5,0.3,2.5,2c0,0.8-0.7,1.3-1.7,1.3
			C36.9,56.4,36.1,56.2,35.7,55.8z"/>
		<path class="st1" d="M39.7,55.8l0.3-0.6c0.3,0.3,1,0.6,1.5,0.6c0.5,0,0.9-0.3,0.9-0.6c0-1-2.5-0.3-2.5-1.9c0-0.8,0.7-1.3,1.7-1.3
			c0.6,0,1.2,0.2,1.6,0.5l-0.4,0.6c-0.3-0.3-0.9-0.5-1.3-0.5c-0.5,0-0.8,0.2-0.8,0.6c0,0.9,2.5,0.3,2.5,2c0,0.8-0.7,1.3-1.7,1.3
			C40.8,56.4,40.1,56.2,39.7,55.8z"/>
		<path class="st1" d="M45.9,56.4c-1.2,0-2-0.9-2-2.1V52h0.8v2.4c0,0.8,0.5,1.3,1.2,1.3c0.7,0,1.2-0.5,1.2-1.3V52h0.8v2.4
			C47.9,55.6,47.1,56.4,45.9,56.4z"/>
		<path class="st1" d="M48.7,54.1c0-1.3,1-2.3,2.2-2.3c1.2,0,2.1,0.9,2.1,2.1l0,0.3h-3.5c0.1,0.9,0.7,1.4,1.5,1.4
			c0.6,0,1.1-0.2,1.3-0.6l0.7,0.4c-0.3,0.6-1.1,1-2,1C49.7,56.4,48.7,55.5,48.7,54.1z M52.2,53.7c-0.1-0.7-0.6-1.1-1.3-1.1
			c-0.7,0-1.2,0.4-1.4,1.1H52.2z"/>
		<path class="st1" d="M53.6,54.2c0-1.3,0.9-2.3,2.1-2.3c0.8,0,1.3,0.4,1.7,1v-2.8h0.8v6.3h-0.8v-0.9c-0.3,0.6-0.9,1-1.7,1
			C54.5,56.4,53.6,55.4,53.6,54.2z M57.4,54.2c0-0.9-0.6-1.5-1.5-1.5c-0.8,0-1.5,0.7-1.5,1.5c0,0.8,0.7,1.5,1.5,1.5
			C56.7,55.7,57.4,55,57.4,54.2z"/>
		<path class="st1" d="M61.1,50.1H62v2.9c0.3-0.6,0.9-1,1.7-1c1.2,0,2.1,1,2.1,2.3s-0.9,2.3-2.1,2.3c-0.8,0-1.4-0.4-1.7-1v0.9h-0.8
			V50.1z M62,54.2c0,0.9,0.6,1.5,1.5,1.5c0.8,0,1.5-0.7,1.5-1.5c0-0.8-0.7-1.5-1.5-1.5C62.6,52.7,62,53.3,62,54.2z"/>
		<path class="st1" d="M67.7,56.2L65.9,52h0.9l1.3,3.3l1.3-3.3h0.9l-2.5,6h-0.9L67.7,56.2z"/>
		<path class="st1" d="M72.9,50.1l1.7,2.6l1.7-2.6h1l-2.3,3.5v2.8h-0.9v-2.8l-2.3-3.5H72.9z"/>
		<path class="st1" d="M81.1,54.2c0,1.3-1,2.3-2.3,2.3s-2.3-1-2.3-2.3c0-1.3,1-2.3,2.3-2.3S81.1,52.9,81.1,54.2z M77.3,54.2
			c0,0.8,0.6,1.5,1.5,1.5c0.8,0,1.5-0.6,1.5-1.5c0-0.8-0.7-1.5-1.5-1.5C78,52.7,77.3,53.3,77.3,54.2z"/>
		<path class="st1" d="M83.8,56.4c-1.2,0-2-0.9-2-2.1V52h0.8v2.4c0,0.8,0.5,1.3,1.2,1.3c0.7,0,1.2-0.5,1.2-1.3V52h0.8v2.4
			C85.9,55.6,85,56.4,83.8,56.4z"/>
		<path class="st1" d="M86.7,50.5c0-0.3,0.3-0.6,0.6-0.6c0.3,0,0.6,0.3,0.6,0.6c0,0.3-0.3,0.6-0.6,0.6C87,51.1,86.7,50.9,86.7,50.5z
			 M87.7,52v4.4h-0.8V52H87.7z"/>
		<path class="st1" d="M93.1,50.1c1.1,0,1.9,0.8,1.9,1.9s-0.8,1.9-1.9,1.9h-1.6v2.5h-0.9v-6.3H93.1z M94.2,51.9c0-0.6-0.5-1-1.1-1
			h-1.6V53h1.6C93.7,53,94.2,52.5,94.2,51.9z"/>
		<path class="st1" d="M96.2,54.8v-2h-0.9V52h0.9v-1.2H97V52h1.2v0.8H97v2c0,0.6,0.4,0.9,0.9,0.9c0.1,0,0.2,0,0.3,0l0,0.7
			c-0.1,0.1-0.3,0.1-0.5,0.1C96.8,56.4,96.2,55.8,96.2,54.8z"/>
		<path class="st1" d="M100.2,56.2L98.4,52h0.9l1.3,3.3l1.3-3.3h0.9l-2.5,6h-0.9L100.2,56.2z"/>
		<path class="st1" d="M106.1,50.1v5.5h3.1v0.8h-4v-6.3H106.1z"/>
		<path class="st1" d="M109.6,54.8v-2h-0.9V52h0.9v-1.2h0.8V52h1.2v0.8h-1.2v2c0,0.6,0.4,0.9,0.9,0.9c0.1,0,0.2,0,0.3,0l0,0.7
			c-0.1,0.1-0.3,0.1-0.5,0.1C110.2,56.4,109.6,55.8,109.6,54.8z"/>
		<path class="st1" d="M111.9,54.2c0-1.3,0.9-2.3,2.1-2.3c0.8,0,1.3,0.4,1.7,1v-2.8h0.8v6.3h-0.8v-0.9c-0.3,0.6-0.9,1-1.7,1
			C112.8,56.4,111.9,55.4,111.9,54.2z M115.7,54.2c0-0.9-0.6-1.5-1.5-1.5c-0.8,0-1.5,0.7-1.5,1.5c0,0.8,0.7,1.5,1.5,1.5
			C115,55.7,115.7,55,115.7,54.2z"/>
		<path class="st1" d="M117.4,55.8c0-0.3,0.3-0.6,0.6-0.6c0.3,0,0.6,0.3,0.6,0.6c0,0.3-0.3,0.6-0.6,0.6
			C117.6,56.4,117.4,56.2,117.4,55.8z"/>
		<path class="st1" d="M124.2,56.4c-1.8,0-3.2-1.4-3.2-3.3c0-1.8,1.3-3.2,3.2-3.2c1.2,0,2.3,0.6,2.6,1.5l-0.8,0.4
			c-0.3-0.6-1-1.1-1.9-1.1c-1.3,0-2.3,1-2.3,2.4c0,1.4,0.9,2.4,2.3,2.4c0.9,0,1.6-0.5,1.9-1.2l0.8,0.4
			C126.5,55.8,125.4,56.4,124.2,56.4z"/>
		<path class="st1" d="M131.8,54.2c0,1.3-1,2.3-2.3,2.3s-2.3-1-2.3-2.3c0-1.3,1-2.3,2.3-2.3S131.8,52.9,131.8,54.2z M128.1,54.2
			c0,0.8,0.6,1.5,1.5,1.5c0.8,0,1.5-0.6,1.5-1.5c0-0.8-0.7-1.5-1.5-1.5C128.7,52.7,128.1,53.3,128.1,54.2z"/>
		<path class="st1" d="M133.5,52.7c0.3-0.5,0.8-0.9,1.4-0.9c1.1,0,1.8,0.8,1.8,2v2.5h-0.8v-2.4c0-0.8-0.5-1.3-1.2-1.3
			c-0.7,0-1.2,0.5-1.2,1.3v2.4h-0.8V52h0.8V52.7z"/>
		<path class="st1" d="M137.4,55.8l0.3-0.6c0.3,0.3,1,0.6,1.5,0.6c0.5,0,0.9-0.3,0.9-0.6c0-1-2.5-0.3-2.5-1.9c0-0.8,0.7-1.3,1.7-1.3
			c0.6,0,1.2,0.2,1.6,0.5l-0.4,0.6c-0.3-0.3-0.9-0.5-1.3-0.5c-0.5,0-0.8,0.2-0.8,0.6c0,0.9,2.5,0.3,2.5,2c0,0.8-0.7,1.3-1.7,1.3
			C138.6,56.4,137.8,56.2,137.4,55.8z"/>
		<path class="st1" d="M141.6,50.5c0-0.3,0.3-0.6,0.6-0.6s0.6,0.3,0.6,0.6c0,0.3-0.3,0.6-0.6,0.6S141.6,50.9,141.6,50.5z M142.5,52
			v4.4h-0.8V52H142.5z"/>
		<path class="st1" d="M143.3,54.2c0-1.3,0.9-2.3,2.1-2.3c0.8,0,1.3,0.4,1.7,1v-2.8h0.8v6.3h-0.8v-0.9c-0.3,0.6-0.9,1-1.7,1
			C144.3,56.4,143.3,55.4,143.3,54.2z M147.2,54.2c0-0.9-0.6-1.5-1.5-1.5c-0.8,0-1.5,0.7-1.5,1.5c0,0.8,0.7,1.5,1.5,1.5
			C146.5,55.7,147.2,55,147.2,54.2z"/>
		<path class="st1" d="M148.8,54.1c0-1.3,1-2.3,2.2-2.3c1.2,0,2.1,0.9,2.1,2.1l0,0.3h-3.5c0.1,0.9,0.7,1.4,1.5,1.4
			c0.6,0,1.1-0.2,1.3-0.6l0.7,0.4c-0.3,0.6-1.1,1-2,1C149.8,56.4,148.8,55.5,148.8,54.1z M152.3,53.7c-0.1-0.7-0.6-1.1-1.3-1.1
			c-0.7,0-1.2,0.4-1.4,1.1H152.3z"/>
		<path class="st1" d="M153.9,52h0.8v0.7c0.2-0.5,0.7-0.8,1.2-0.8c0.2,0,0.4,0,0.5,0.1l-0.1,0.8c-0.1-0.1-0.3-0.1-0.5-0.1
			c-0.5,0-1.1,0.4-1.1,1.2v2.5h-0.8V52z"/>
		<path class="st1" d="M163.1,54.2c0,1.3-1,2.3-2.3,2.3s-2.3-1-2.3-2.3c0-1.3,1-2.3,2.3-2.3S163.1,52.9,163.1,54.2z M159.3,54.2
			c0,0.8,0.6,1.5,1.5,1.5c0.8,0,1.5-0.6,1.5-1.5c0-0.8-0.7-1.5-1.5-1.5C160,52.7,159.3,53.3,159.3,54.2z"/>
		<path class="st1" d="M165.8,56.4c-1.2,0-2-0.9-2-2.1V52h0.8v2.4c0,0.8,0.5,1.3,1.2,1.3c0.7,0,1.2-0.5,1.2-1.3V52h0.8v2.4
			C167.8,55.6,167,56.4,165.8,56.4z"/>
		<path class="st1" d="M168.8,52h0.8v0.7c0.2-0.5,0.7-0.8,1.2-0.8c0.2,0,0.4,0,0.5,0.1l-0.1,0.8c-0.1-0.1-0.3-0.1-0.5-0.1
			c-0.5,0-1.1,0.4-1.1,1.2v2.5h-0.8V52z"/>
		<path class="st1" d="M176.6,56.4c-1.8,0-3.2-1.4-3.2-3.3c0-1.8,1.3-3.2,3.2-3.2c1.2,0,2.3,0.6,2.6,1.5l-0.8,0.4
			c-0.3-0.6-1-1.1-1.9-1.1c-1.3,0-2.3,1-2.3,2.4c0,1.4,0.9,2.4,2.3,2.4c0.9,0,1.6-0.5,1.9-1.2l0.8,0.4
			C179,55.8,177.9,56.4,176.6,56.4z"/>
		<path class="st1" d="M184.4,56.4h-0.8v-0.9c-0.3,0.6-0.9,1-1.7,1c-1.2,0-2.1-1-2.1-2.3c0-1.3,0.9-2.3,2.1-2.3c0.8,0,1.3,0.4,1.7,1
			V52h0.8V56.4z M183.6,54.2c0-0.9-0.6-1.5-1.5-1.5c-0.8,0-1.5,0.7-1.5,1.5c0,0.8,0.7,1.5,1.5,1.5C182.9,55.7,183.6,55,183.6,54.2z"
			/>
		<path class="st1" d="M185.5,52h0.8v0.7c0.2-0.5,0.7-0.8,1.2-0.8c0.2,0,0.4,0,0.5,0.1l-0.1,0.8c-0.1-0.1-0.3-0.1-0.5-0.1
			c-0.5,0-1.1,0.4-1.1,1.2v2.5h-0.8V52z"/>
		<path class="st1" d="M192.8,50.1c1.1,0,1.9,0.8,1.9,1.9s-0.8,1.9-1.9,1.9h-1.6v2.5h-0.9v-6.3H192.8z M193.9,51.9
			c0-0.6-0.5-1-1.1-1h-1.6V53h1.6C193.4,53,193.9,52.5,193.9,51.9z"/>
		<path class="st1" d="M200.7,53.2c0,1.8-1.4,3.2-3.1,3.2h-2v-6.3h2C199.3,50.1,200.7,51.4,200.7,53.2z M199.8,53.2
			c0-1.3-0.9-2.3-2.2-2.3h-1.2v4.6h1.2C198.8,55.5,199.8,54.5,199.8,53.2z"/>
		<path class="st1" d="M201.1,55.4l0.5-0.6c0.5,0.5,1.1,0.8,1.9,0.8c0.8,0,1.3-0.4,1.3-1c0-0.7-0.7-0.9-1.5-1.1
			c-0.9-0.2-2-0.6-2-1.8c0-1,0.9-1.7,2.1-1.7c0.8,0,1.7,0.4,2.1,0.9l-0.5,0.7c-0.4-0.4-1-0.7-1.6-0.7c-0.7,0-1.1,0.4-1.1,0.8
			c0,0.7,0.8,0.9,1.7,1.2c0.9,0.3,1.7,0.6,1.7,1.8c0,1-0.8,1.9-2.2,1.9C202.5,56.4,201.6,56,201.1,55.4z"/>
		<path class="st1" d="M208.5,54.8v-2h-0.9V52h0.9v-1.2h0.8V52h1.2v0.8h-1.2v2c0,0.6,0.4,0.9,0.9,0.9c0.1,0,0.2,0,0.3,0l0,0.7
			c-0.1,0.1-0.3,0.1-0.5,0.1C209.2,56.4,208.5,55.8,208.5,54.8z"/>
		<path class="st1" d="M215.4,54.2c0,1.3-1,2.3-2.3,2.3s-2.3-1-2.3-2.3c0-1.3,1-2.3,2.3-2.3S215.4,52.9,215.4,54.2z M211.6,54.2
			c0,0.8,0.6,1.5,1.5,1.5c0.8,0,1.5-0.6,1.5-1.5c0-0.8-0.7-1.5-1.5-1.5C212.3,52.7,211.6,53.3,211.6,54.2z"/>
		<path class="st1" d="M217.8,54.2c0-1.3,0.9-2.3,2.1-2.3c0.8,0,1.3,0.4,1.7,1v-2.8h0.8v6.3h-0.8v-0.9c-0.3,0.6-0.9,1-1.7,1
			C218.8,56.4,217.8,55.4,217.8,54.2z M221.6,54.2c0-0.9-0.6-1.5-1.5-1.5c-0.8,0-1.5,0.7-1.5,1.5c0,0.8,0.7,1.5,1.5,1.5
			C221,55.7,221.6,55,221.6,54.2z"/>
		<path class="st1" d="M223.3,54.1c0-1.3,1-2.3,2.2-2.3c1.2,0,2.1,0.9,2.1,2.1l0,0.3h-3.5c0.1,0.9,0.7,1.4,1.5,1.4
			c0.6,0,1.1-0.2,1.3-0.6l0.7,0.4c-0.3,0.6-1.1,1-2,1C224.3,56.4,223.3,55.5,223.3,54.1z M226.8,53.7c-0.1-0.7-0.6-1.1-1.3-1.1
			c-0.7,0-1.2,0.4-1.4,1.1H226.8z"/>
		<path class="st1" d="M230.4,56.4c-1.3,0-2.3-1-2.3-2.3c0-1.3,1-2.3,2.3-2.3c0.8,0,1.6,0.4,1.9,1.1l-0.7,0.4
			c-0.2-0.4-0.6-0.7-1.2-0.7c-0.8,0-1.5,0.7-1.5,1.5c0,0.8,0.6,1.5,1.5,1.5c0.6,0,1-0.3,1.3-0.7l0.7,0.3
			C232.1,56,231.3,56.4,230.4,56.4z"/>
		<path class="st1" d="M232.9,50.5c0-0.3,0.3-0.6,0.6-0.6c0.3,0,0.6,0.3,0.6,0.6c0,0.3-0.3,0.6-0.6,0.6
			C233.2,51.1,232.9,50.9,232.9,50.5z M233.9,52v4.4h-0.8V52H233.9z"/>
		<path class="st1" d="M234.7,54.2c0-1.3,0.9-2.3,2.1-2.3c0.8,0,1.3,0.4,1.7,1v-2.8h0.8v6.3h-0.8v-0.9c-0.3,0.6-0.9,1-1.7,1
			C235.7,56.4,234.7,55.4,234.7,54.2z M238.5,54.2c0-0.9-0.6-1.5-1.5-1.5c-0.8,0-1.5,0.7-1.5,1.5c0,0.8,0.7,1.5,1.5,1.5
			C237.9,55.7,238.5,55,238.5,54.2z"/>
		<path class="st1" d="M240.2,54.1c0-1.3,1-2.3,2.2-2.3c1.2,0,2.1,0.9,2.1,2.1l0,0.3H241c0.1,0.9,0.7,1.4,1.5,1.4
			c0.6,0,1.1-0.2,1.3-0.6l0.7,0.4c-0.3,0.6-1.1,1-2,1C241.2,56.4,240.2,55.5,240.2,54.1z M243.7,53.7c-0.1-0.7-0.6-1.1-1.3-1.1
			c-0.7,0-1.2,0.4-1.4,1.1H243.7z"/>
		<path class="st1" d="M247.1,50.5c0-0.3,0.3-0.6,0.6-0.6c0.3,0,0.6,0.3,0.6,0.6c0,0.3-0.3,0.6-0.6,0.6
			C247.3,51.1,247.1,50.9,247.1,50.5z M248,52v4.4h-0.8V52H248z"/>
		<path class="st1" d="M251.1,49.9c0.2,0,0.3,0,0.5,0.1l0,0.7c-0.1,0-0.2,0-0.3,0c-0.5,0-0.9,0.3-0.9,0.9V52h1.2v0.8h-1.2v3.6h-0.8
			v-3.6h-0.9V52h0.9v-0.4C249.5,50.5,250.1,49.9,251.1,49.9z"/>
		<path class="st1" d="M253.5,55.8l0.3-0.6c0.3,0.3,1,0.6,1.5,0.6c0.5,0,0.9-0.3,0.9-0.6c0-1-2.5-0.3-2.5-1.9c0-0.8,0.7-1.3,1.7-1.3
			c0.6,0,1.2,0.2,1.6,0.5l-0.4,0.6c-0.3-0.3-0.9-0.5-1.3-0.5c-0.5,0-0.8,0.2-0.8,0.6c0,0.9,2.5,0.3,2.5,2c0,0.8-0.7,1.3-1.7,1.3
			C254.6,56.4,253.9,56.2,253.5,55.8z"/>
		<path class="st1" d="M259.7,56.4c-1.2,0-2-0.9-2-2.1V52h0.8v2.4c0,0.8,0.5,1.3,1.2,1.3c0.7,0,1.2-0.5,1.2-1.3V52h0.8v2.4
			C261.7,55.6,260.9,56.4,259.7,56.4z"/>
		<path class="st1" d="M262.6,50.5c0-0.3,0.3-0.6,0.6-0.6c0.3,0,0.6,0.3,0.6,0.6c0,0.3-0.3,0.6-0.6,0.6
			C262.8,51.1,262.6,50.9,262.6,50.5z M263.5,52v4.4h-0.8V52H263.5z"/>
		<path class="st1" d="M265,54.8v-2h-0.9V52h0.9v-1.2h0.8V52h1.2v0.8h-1.2v2c0,0.6,0.4,0.9,0.9,0.9c0.1,0,0.2,0,0.3,0l0,0.7
			c-0.1,0.1-0.3,0.1-0.5,0.1C265.6,56.4,265,55.8,265,54.8z"/>
		<path class="st1" d="M271.9,56.4h-0.8v-0.9c-0.3,0.6-0.9,1-1.7,1c-1.2,0-2.1-1-2.1-2.3c0-1.3,0.9-2.3,2.1-2.3c0.8,0,1.3,0.4,1.7,1
			V52h0.8V56.4z M271.1,54.2c0-0.9-0.6-1.5-1.5-1.5c-0.8,0-1.5,0.7-1.5,1.5c0,0.8,0.7,1.5,1.5,1.5C270.5,55.7,271.1,55,271.1,54.2z"
			/>
		<path class="st1" d="M273,50.1h0.8v2.9c0.3-0.6,0.9-1,1.7-1c1.2,0,2.1,1,2.1,2.3s-0.9,2.3-2.1,2.3c-0.8,0-1.3-0.4-1.7-1v0.9H273
			V50.1z M273.8,54.2c0,0.9,0.6,1.5,1.5,1.5c0.8,0,1.5-0.7,1.5-1.5c0-0.8-0.7-1.5-1.5-1.5C274.5,52.7,273.8,53.3,273.8,54.2z"/>
		<path class="st1" d="M278.5,50.1h0.8v6.3h-0.8V50.1z"/>
		<path class="st1" d="M280.1,54.1c0-1.3,1-2.3,2.2-2.3c1.2,0,2.1,0.9,2.1,2.1l0,0.3h-3.5c0.1,0.9,0.7,1.4,1.5,1.4
			c0.6,0,1.1-0.2,1.3-0.6l0.7,0.4c-0.3,0.6-1.1,1-2,1C281.1,56.4,280.1,55.5,280.1,54.1z M283.6,53.7c-0.1-0.7-0.6-1.1-1.3-1.1
			c-0.7,0-1.2,0.4-1.4,1.1H283.6z"/>
		<path class="st1" d="M285,55.8c0-0.3,0.3-0.6,0.6-0.6c0.3,0,0.6,0.3,0.6,0.6c0,0.3-0.3,0.6-0.6,0.6C285.3,56.4,285,56.2,285,55.8z
			"/>
		<path class="st1" d="M291.4,50.1c1.1,0,1.9,0.8,1.9,1.9s-0.8,1.9-1.9,1.9h-1.6v2.5H289v-6.3H291.4z M292.4,51.9c0-0.6-0.5-1-1.1-1
			h-1.6V53h1.6C292,53,292.4,52.5,292.4,51.9z"/>
		<path class="st1" d="M299.2,53.2c0,1.8-1.4,3.2-3.1,3.2h-2v-6.3h2C297.9,50.1,299.2,51.4,299.2,53.2z M298.3,53.2
			c0-1.3-0.9-2.3-2.2-2.3H295v4.6h1.2C297.4,55.5,298.3,54.5,298.3,53.2z"/>
		<path class="st1" d="M299.6,55.4l0.5-0.6c0.5,0.5,1.1,0.8,1.9,0.8c0.8,0,1.3-0.4,1.3-1c0-0.7-0.7-0.9-1.5-1.1
			c-0.9-0.2-2-0.6-2-1.8c0-1,0.9-1.7,2.1-1.7c0.8,0,1.7,0.4,2.1,0.9l-0.5,0.7c-0.4-0.4-1-0.7-1.6-0.7c-0.7,0-1.1,0.4-1.1,0.8
			c0,0.7,0.8,0.9,1.7,1.2c0.9,0.3,1.7,0.6,1.7,1.8c0,1-0.8,1.9-2.2,1.9C301.1,56.4,300.2,56,299.6,55.4z"/>
		<path class="st1" d="M305.2,57.5l-0.4-0.2c0.3-0.4,0.5-0.7,0.5-1c-0.3,0-0.5-0.3-0.5-0.5c0-0.3,0.3-0.6,0.6-0.6
			c0.3,0,0.6,0.3,0.6,0.7C306.1,56.3,305.7,56.9,305.2,57.5z"/>
		<path class="st1" d="M310.1,56.4v-5.5h-2v-0.8h4.9v0.8h-2v5.5H310.1z"/>
		<path class="st1" d="M313.1,54.7c0-1,0.6-1.4,1.3-1.8c-0.3-0.4-0.6-0.8-0.6-1.4c0-0.9,0.7-1.6,1.7-1.6c0.9,0,1.6,0.7,1.6,1.6
			c0,0.9-0.6,1.3-1.3,1.6l1.1,1.2l1-1l0.6,0.5l-1,1l1.3,1.4h-1.1l-0.8-0.8c-0.6,0.6-1.1,0.9-1.9,0.9
			C313.9,56.4,313.1,55.7,313.1,54.7z M315,55.6c0.4,0,0.8-0.2,1.3-0.7l-1.3-1.4c-0.5,0.3-1,0.6-1,1.1C314,55.2,314.4,55.6,315,55.6
			z M315.2,52.6c0.6-0.3,1-0.5,1-1.1c0-0.5-0.4-0.8-0.8-0.8c-0.5,0-0.9,0.3-0.9,0.8C314.6,51.9,314.9,52.2,315.2,52.6z"/>
		<path class="st1" d="M322.1,56.4c-1.8,0-3.2-1.4-3.2-3.3c0-1.8,1.3-3.2,3.2-3.2c1.2,0,2.3,0.6,2.6,1.5l-0.8,0.4
			c-0.3-0.6-1-1.1-1.9-1.1c-1.3,0-2.3,1-2.3,2.4c0,1.4,0.9,2.4,2.3,2.4c0.9,0,1.6-0.5,1.9-1.2l0.8,0.4
			C324.5,55.8,323.4,56.4,322.1,56.4z"/>
		<path class="st1" d="M325.1,55.8l0.3-0.6c0.3,0.3,1,0.6,1.5,0.6c0.5,0,0.9-0.3,0.9-0.6c0-1-2.5-0.3-2.5-1.9c0-0.8,0.7-1.3,1.7-1.3
			c0.6,0,1.2,0.2,1.6,0.5l-0.4,0.6c-0.3-0.3-0.9-0.5-1.3-0.5c-0.5,0-0.8,0.2-0.8,0.6c0,0.9,2.5,0.3,2.5,2c0,0.8-0.7,1.3-1.7,1.3
			C326.2,56.4,325.5,56.2,325.1,55.8z"/>
		<path class="st1" d="M329.6,57.5l-0.4-0.2c0.3-0.4,0.5-0.7,0.5-1c-0.3,0-0.5-0.3-0.5-0.5c0-0.3,0.3-0.6,0.6-0.6
			c0.3,0,0.6,0.3,0.6,0.7C330.4,56.3,330.1,56.9,329.6,57.5z"/>
		<path class="st1" d="M332.8,54.7c0-1,0.6-1.4,1.3-1.8c-0.3-0.4-0.6-0.8-0.6-1.4c0-0.9,0.7-1.6,1.7-1.6c0.9,0,1.6,0.7,1.6,1.6
			c0,0.9-0.6,1.3-1.3,1.6l1.1,1.2l1-1l0.6,0.5l-1,1l1.3,1.4h-1.1l-0.8-0.8c-0.6,0.6-1.1,0.9-1.9,0.9
			C333.7,56.4,332.8,55.7,332.8,54.7z M334.8,55.6c0.4,0,0.8-0.2,1.3-0.7l-1.3-1.4c-0.5,0.3-1,0.6-1,1.1
			C333.7,55.2,334.2,55.6,334.8,55.6z M335,52.6c0.6-0.3,1-0.5,1-1.1c0-0.5-0.4-0.8-0.8-0.8c-0.5,0-0.9,0.3-0.9,0.8
			C334.3,51.9,334.6,52.2,335,52.6z"/>
		<path class="st1" d="M342.1,56.4v-5.5h-2v-0.8h4.9v0.8h-2v5.5H342.1z"/>
		<path class="st1" d="M345.7,50.1h1l2.3,5l2.3-5h0.9v6.3h-0.9v-4.6l-2.1,4.6h-0.6l-2-4.6v4.6h-0.9V50.1z"/>
		<path class="st1" d="M358.6,53.2c0,1.8-1.4,3.2-3.1,3.2h-2v-6.3h2C357.2,50.1,358.6,51.4,358.6,53.2z M357.7,53.2
			c0-1.3-0.9-2.3-2.2-2.3h-1.2v4.6h1.2C356.7,55.5,357.7,54.5,357.7,53.2z"/>
		<path class="st1" d="M365.7,56.4h-0.8v-0.9c-0.3,0.6-0.9,1-1.7,1c-1.2,0-2.1-1-2.1-2.3c0-1.3,0.9-2.3,2.1-2.3c0.8,0,1.3,0.4,1.7,1
			V52h0.8V56.4z M364.8,54.2c0-0.9-0.6-1.5-1.5-1.5c-0.8,0-1.5,0.7-1.5,1.5c0,0.8,0.7,1.5,1.5,1.5C364.2,55.7,364.8,55,364.8,54.2z"
			/>
		<path class="st1" d="M367.1,54.8v-2h-0.9V52h0.9v-1.2h0.8V52h1.2v0.8h-1.2v2c0,0.6,0.4,0.9,0.9,0.9c0.1,0,0.2,0,0.3,0l0,0.7
			c-0.1,0.1-0.3,0.1-0.5,0.1C367.8,56.4,367.1,55.8,367.1,54.8z"/>
		<path class="st1" d="M372.9,56.2l-1.8-4.2h0.9l1.3,3.3l1.3-3.3h0.9l-2.5,6h-0.9L372.9,56.2z"/>
		<path class="st1" d="M380.2,54.2c0,1.3-1,2.3-2.3,2.3s-2.3-1-2.3-2.3c0-1.3,1-2.3,2.3-2.3S380.2,52.9,380.2,54.2z M376.5,54.2
			c0,0.8,0.6,1.5,1.5,1.5c0.8,0,1.5-0.6,1.5-1.5c0-0.8-0.7-1.5-1.5-1.5C377.1,52.7,376.5,53.3,376.5,54.2z"/>
		<path class="st1" d="M383,56.4c-1.2,0-2-0.9-2-2.1V52h0.8v2.4c0,0.8,0.5,1.3,1.2,1.3c0.7,0,1.2-0.5,1.2-1.3V52h0.8v2.4
			C385,55.6,384.2,56.4,383,56.4z"/>
		<path class="st1" d="M385.8,50.5c0-0.3,0.3-0.6,0.6-0.6c0.3,0,0.6,0.3,0.6,0.6c0,0.3-0.3,0.6-0.6,0.6
			C386.1,51.1,385.8,50.9,385.8,50.5z M386.8,52v4.4H386V52H386.8z"/>
		<path class="st1" d="M387.7,55.8c0-0.3,0.3-0.6,0.6-0.6s0.6,0.3,0.6,0.6c0,0.3-0.3,0.6-0.6,0.6S387.7,56.2,387.7,55.8z"/>
		<path class="st1" d="M391.7,56.4c-1.3,0-2.3-1-2.3-2.3c0-1.3,1-2.3,2.3-2.3c0.8,0,1.6,0.4,1.9,1.1l-0.7,0.4
			c-0.2-0.4-0.6-0.7-1.2-0.7c-0.8,0-1.5,0.7-1.5,1.5c0,0.8,0.6,1.5,1.5,1.5c0.6,0,1-0.3,1.3-0.7l0.7,0.3
			C393.3,56,392.6,56.4,391.7,56.4z"/>
		<path class="st1" d="M398.6,54.2c0,1.3-1,2.3-2.3,2.3s-2.3-1-2.3-2.3c0-1.3,1-2.3,2.3-2.3S398.6,52.9,398.6,54.2z M394.8,54.2
			c0,0.8,0.6,1.5,1.5,1.5c0.8,0,1.5-0.6,1.5-1.5c0-0.8-0.7-1.5-1.5-1.5C395.5,52.7,394.8,53.3,394.8,54.2z"/>
		<path class="st1" d="M406.3,56.4h-0.8v-2.5c0-0.7-0.4-1.2-1.1-1.2c-0.5,0-1.1,0.4-1.1,1.2v2.5h-0.8v-2.5c0-0.7-0.4-1.2-1.1-1.2
			c-0.5,0-1.1,0.3-1.1,1.2v2.5h-0.8V52h0.8v0.7c0.3-0.6,0.9-0.8,1.4-0.8c0.7,0,1.2,0.3,1.4,0.9c0.3-0.5,0.8-0.9,1.5-0.9
			c1.1,0,1.8,0.7,1.8,1.8V56.4z"/>
		<path class="st1" d="M407.1,55.8c0-0.3,0.3-0.6,0.6-0.6c0.3,0,0.6,0.3,0.6,0.6c0,0.3-0.3,0.6-0.6,0.6
			C407.3,56.4,407.1,56.2,407.1,55.8z"/>
		<path class="st1" d="M413.4,56.4h-0.8v-0.9c-0.3,0.6-0.9,1-1.7,1c-1.2,0-2.1-1-2.1-2.3c0-1.3,0.9-2.3,2.1-2.3c0.8,0,1.3,0.4,1.7,1
			V52h0.8V56.4z M412.6,54.2c0-0.9-0.6-1.5-1.5-1.5c-0.8,0-1.5,0.7-1.5,1.5c0,0.8,0.7,1.5,1.5,1.5C412,55.7,412.6,55,412.6,54.2z"/>
		<path class="st1" d="M416.4,56.4c-1.2,0-2-0.9-2-2.1V52h0.8v2.4c0,0.8,0.5,1.3,1.2,1.3c0.7,0,1.2-0.5,1.2-1.3V52h0.8v2.4
			C418.5,55.6,417.6,56.4,416.4,56.4z"/>
	</g>
</g>
<g>
	<line class="st2" x1="0.5" y1="0.4" x2="10.5" y2="10.4"/>
	<line class="st2" x1="10.5" y1="0.4" x2="0.5" y2="10.4"/>
</g>
</svg>
