<?xml version="1.0" encoding="utf-8"?>
<!-- Generator: Adobe Illustrator 27.7.0, SVG Export Plug-In . SVG Version: 6.00 Build 0)  -->
<svg version="1.1" id="Layer_1" xmlns="http://www.w3.org/2000/svg" xmlns:xlink="http://www.w3.org/1999/xlink" x="0px" y="0px"
	 viewBox="0 0 695.2 8.3" style="enable-background:new 0 0 695.2 8.3;" xml:space="preserve">
<style type="text/css">
	.st0{fill:#999999;}
</style>
<g>
	<g>
		<path class="st0" d="M1,0.2l1.7,2.6l1.7-2.6h1L3.2,3.7v2.8H2.3V3.7L0,0.2H1z"/>
		<path class="st0" d="M9.2,4.3c0,1.3-1,2.3-2.3,2.3s-2.3-1-2.3-2.3C4.7,3,5.7,2,6.9,2S9.2,3,9.2,4.3z M5.5,4.3
			c0,0.8,0.6,1.5,1.5,1.5c0.8,0,1.5-0.6,1.5-1.5c0-0.8-0.7-1.5-1.5-1.5C6.1,2.8,5.5,3.4,5.5,4.3z"/>
		<path class="st0" d="M12,6.6c-1.2,0-2-0.9-2-2.1V2.1h0.8v2.4c0,0.8,0.5,1.3,1.2,1.3c0.7,0,1.2-0.5,1.2-1.3V2.1H14v2.4
			C14,5.7,13.2,6.6,12,6.6z"/>
		<path class="st0" d="M14.8,0.7c0-0.3,0.3-0.6,0.6-0.6c0.3,0,0.6,0.3,0.6,0.6c0,0.3-0.3,0.6-0.6,0.6C15.1,1.2,14.8,1,14.8,0.7z
			 M15.8,2.1v4.4H15V2.1H15.8z"/>
		<path class="st0" d="M18.8,0.2h2.3c1.1,0,1.9,0.8,1.9,1.8c0,0.8-0.4,1.4-1.1,1.7c0.2,0.2,0.3,0.4,0.4,0.6l0.3,0.8
			c0.2,0.5,0.5,0.6,0.8,0.5l0.1,0.8c-0.4,0.1-1.3,0.2-1.6-0.8l-0.3-1c-0.1-0.4-0.4-0.7-1-0.7h-0.9v2.6h-0.9V0.2z M22.2,2.1
			c0-0.6-0.5-1-1.1-1h-1.4v2.1h1.4C21.7,3.1,22.2,2.7,22.2,2.1z"/>
		<path class="st0" d="M28.2,4.3c0,1.3-1,2.3-2.3,2.3s-2.3-1-2.3-2.3C23.7,3,24.7,2,26,2S28.2,3,28.2,4.3z M24.5,4.3
			c0,0.8,0.6,1.5,1.5,1.5c0.8,0,1.5-0.6,1.5-1.5c0-0.8-0.7-1.5-1.5-1.5C25.1,2.8,24.5,3.4,24.5,4.3z"/>
		<path class="st0" d="M33.4,6.5h-0.8V5.6c-0.3,0.6-0.9,1-1.7,1c-1.2,0-2.1-1-2.1-2.3C28.8,3,29.7,2,30.9,2c0.8,0,1.3,0.4,1.7,1V2.1
			h0.8V6.5z M32.6,4.3c0-0.9-0.6-1.5-1.5-1.5c-0.8,0-1.5,0.7-1.5,1.5c0,0.8,0.7,1.5,1.5,1.5C31.9,5.8,32.6,5.2,32.6,4.3z"/>
		<path class="st0" d="M34.2,4.3C34.2,3,35.2,2,36.4,2c0.8,0,1.3,0.4,1.7,1V0.2h0.8v6.3H38V5.6c-0.3,0.6-0.9,1-1.7,1
			C35.2,6.6,34.2,5.6,34.2,4.3z M38,4.3c0-0.9-0.6-1.5-1.5-1.5c-0.8,0-1.5,0.7-1.5,1.5c0,0.8,0.7,1.5,1.5,1.5
			C37.4,5.8,38,5.2,38,4.3z"/>
		<path class="st0" d="M39.6,5.9L40,5.3c0.3,0.3,1,0.6,1.5,0.6c0.5,0,0.9-0.3,0.9-0.6c0-1-2.5-0.3-2.5-1.9c0-0.8,0.7-1.3,1.7-1.3
			C42,2,42.6,2.2,43,2.5l-0.4,0.6c-0.3-0.3-0.9-0.5-1.3-0.5c-0.5,0-0.8,0.2-0.8,0.6c0,0.9,2.5,0.3,2.5,2c0,0.8-0.7,1.3-1.7,1.3
			C40.8,6.6,40,6.3,39.6,5.9z"/>
		<path class="st0" d="M43.8,0.7c0-0.3,0.3-0.6,0.6-0.6c0.3,0,0.6,0.3,0.6,0.6c0,0.3-0.3,0.6-0.6,0.6C44,1.2,43.8,1,43.8,0.7z
			 M44.7,2.1v4.4h-0.8V2.1H44.7z"/>
		<path class="st0" d="M45.5,4.3C45.5,3,46.5,2,47.7,2c0.8,0,1.3,0.4,1.7,1V0.2h0.8v6.3h-0.8V5.6c-0.3,0.6-0.9,1-1.7,1
			C46.5,6.6,45.5,5.6,45.5,4.3z M49.3,4.3c0-0.9-0.6-1.5-1.5-1.5c-0.8,0-1.5,0.7-1.5,1.5c0,0.8,0.7,1.5,1.5,1.5
			C48.7,5.8,49.3,5.2,49.3,4.3z"/>
		<path class="st0" d="M51,4.3C51,3,52,2,53.2,2c1.2,0,2.1,0.9,2.1,2.1l0,0.3h-3.5c0.1,0.9,0.7,1.4,1.5,1.4c0.6,0,1.1-0.2,1.3-0.6
			l0.7,0.4c-0.3,0.6-1.1,1-2,1C52,6.6,51,5.6,51,4.3z M54.5,3.8c-0.1-0.7-0.6-1.1-1.3-1.1c-0.7,0-1.2,0.4-1.4,1.1H54.5z"/>
		<path class="st0" d="M63.1,6.5h-0.9l-0.5-1.4h-2.8l-0.6,1.4h-0.9l2.5-6.3h0.7L63.1,6.5z M61.3,4.3l-1.1-2.8l-1.1,2.8H61.3z"/>
		<path class="st0" d="M63.3,5.9l0.3-0.6c0.3,0.3,1,0.6,1.5,0.6c0.5,0,0.9-0.3,0.9-0.6c0-1-2.5-0.3-2.5-1.9c0-0.8,0.7-1.3,1.7-1.3
			c0.6,0,1.2,0.2,1.6,0.5l-0.4,0.6C66,2.9,65.4,2.7,65,2.7c-0.5,0-0.8,0.2-0.8,0.6c0,0.9,2.5,0.3,2.5,2c0,0.8-0.7,1.3-1.7,1.3
			C64.4,6.6,63.7,6.3,63.3,5.9z"/>
		<path class="st0" d="M67.2,5.9l0.3-0.6c0.3,0.3,1,0.6,1.5,0.6c0.5,0,0.9-0.3,0.9-0.6c0-1-2.5-0.3-2.5-1.9C67.4,2.5,68,2,69,2
			c0.6,0,1.2,0.2,1.6,0.5l-0.4,0.6c-0.3-0.3-0.9-0.5-1.3-0.5c-0.5,0-0.8,0.2-0.8,0.6c0,0.9,2.5,0.3,2.5,2C70.7,6,70,6.6,69,6.6
			C68.4,6.6,67.6,6.3,67.2,5.9z"/>
		<path class="st0" d="M71.4,0.7c0-0.3,0.3-0.6,0.6-0.6c0.3,0,0.6,0.3,0.6,0.6c0,0.3-0.3,0.6-0.6,0.6C71.6,1.2,71.4,1,71.4,0.7z
			 M72.3,2.1v4.4h-0.8V2.1H72.3z"/>
		<path class="st0" d="M73.1,5.9l0.3-0.6c0.3,0.3,1,0.6,1.5,0.6c0.5,0,0.9-0.3,0.9-0.6c0-1-2.5-0.3-2.5-1.9c0-0.8,0.7-1.3,1.7-1.3
			c0.6,0,1.2,0.2,1.6,0.5l-0.4,0.6c-0.3-0.3-0.9-0.5-1.3-0.5c-0.5,0-0.8,0.2-0.8,0.6c0,0.9,2.5,0.3,2.5,2c0,0.8-0.7,1.3-1.7,1.3
			C74.2,6.6,73.5,6.3,73.1,5.9z"/>
		<path class="st0" d="M77.7,4.9v-2h-0.9V2.1h0.9V0.9h0.8v1.2h1.2v0.8h-1.2v2c0,0.6,0.4,0.9,0.9,0.9c0.1,0,0.2,0,0.3,0l0,0.7
			c-0.1,0.1-0.3,0.1-0.5,0.1C78.4,6.5,77.7,5.9,77.7,4.9z"/>
		<path class="st0" d="M86.7,6.5h-0.8V5.6c-0.3,0.6-0.9,1-1.7,1c-1.2,0-2.1-1-2.1-2.3C82.1,3,83,2,84.2,2c0.8,0,1.3,0.4,1.7,1V2.1
			h0.8V6.5z M85.9,4.3c0-0.9-0.6-1.5-1.5-1.5c-0.8,0-1.5,0.7-1.5,1.5c0,0.8,0.7,1.5,1.5,1.5C85.3,5.8,85.9,5.2,85.9,4.3z"/>
		<path class="st0" d="M89.9,6.5h-0.7l-1.9-4.4h0.9l1.3,3.3l1.3-3.3h0.9L89.9,6.5z"/>
		<path class="st0" d="M96.6,6.5h-0.8V5.6c-0.3,0.6-0.9,1-1.7,1c-1.2,0-2.1-1-2.1-2.3C91.9,3,92.9,2,94.1,2c0.8,0,1.3,0.4,1.7,1V2.1
			h0.8V6.5z M95.7,4.3c0-0.9-0.6-1.5-1.5-1.5c-0.8,0-1.5,0.7-1.5,1.5c0,0.8,0.7,1.5,1.5,1.5C95.1,5.8,95.7,5.2,95.7,4.3z"/>
		<path class="st0" d="M97.5,0.7c0-0.3,0.3-0.6,0.6-0.6c0.3,0,0.6,0.3,0.6,0.6c0,0.3-0.3,0.6-0.6,0.6C97.7,1.2,97.5,1,97.5,0.7z
			 M98.5,2.1v4.4h-0.8V2.1H98.5z"/>
		<path class="st0" d="M99.5,0.2h0.8v6.3h-0.8V0.2z"/>
		<path class="st0" d="M105.8,6.5h-0.8V5.6c-0.3,0.6-0.9,1-1.7,1c-1.2,0-2.1-1-2.1-2.3c0-1.3,0.9-2.3,2.1-2.3c0.8,0,1.3,0.4,1.7,1
			V2.1h0.8V6.5z M104.9,4.3c0-0.9-0.6-1.5-1.5-1.5c-0.8,0-1.5,0.7-1.5,1.5c0,0.8,0.7,1.5,1.5,1.5C104.3,5.8,104.9,5.2,104.9,4.3z"/>
		<path class="st0" d="M106.8,0.2h0.8V3c0.3-0.6,0.9-1,1.7-1c1.2,0,2.1,1,2.1,2.3s-0.9,2.3-2.1,2.3c-0.8,0-1.4-0.4-1.7-1v0.9h-0.8
			V0.2z M107.7,4.3c0,0.9,0.6,1.5,1.5,1.5c0.8,0,1.5-0.7,1.5-1.5c0-0.8-0.7-1.5-1.5-1.5C108.3,2.8,107.7,3.5,107.7,4.3z"/>
		<path class="st0" d="M112.3,0.2h0.8v6.3h-0.8V0.2z"/>
		<path class="st0" d="M113.9,4.3c0-1.3,1-2.3,2.2-2.3c1.2,0,2.1,0.9,2.1,2.1l0,0.3h-3.5c0.1,0.9,0.7,1.4,1.5,1.4
			c0.6,0,1.1-0.2,1.3-0.6l0.7,0.4c-0.3,0.6-1.1,1-2,1C114.9,6.6,113.9,5.6,113.9,4.3z M117.4,3.8c-0.1-0.7-0.6-1.1-1.3-1.1
			c-0.7,0-1.2,0.4-1.4,1.1H117.4z"/>
		<path class="st0" d="M120.3,2.1h0.9l1,3.2l1.1-3.2h0.7l1.1,3.2l1-3.2h0.9l-1.6,4.4h-0.7l-1.1-3.2l-1.1,3.2h-0.7L120.3,2.1z"/>
		<path class="st0" d="M127.6,0.7c0-0.3,0.3-0.6,0.6-0.6c0.3,0,0.6,0.3,0.6,0.6c0,0.3-0.3,0.6-0.6,0.6C127.9,1.2,127.6,1,127.6,0.7z
			 M128.6,2.1v4.4h-0.8V2.1H128.6z"/>
		<path class="st0" d="M130,4.9v-2h-0.9V2.1h0.9V0.9h0.8v1.2h1.2v0.8h-1.2v2c0,0.6,0.4,0.9,0.9,0.9c0.1,0,0.2,0,0.3,0l0,0.7
			c-0.1,0.1-0.3,0.1-0.5,0.1C130.7,6.5,130,5.9,130,4.9z"/>
		<path class="st0" d="M134.8,2.8c-0.7,0-1.2,0.5-1.2,1.3v2.4h-0.8V0.2h0.8v2.7c0.3-0.5,0.8-0.9,1.4-0.9c1.1,0,1.8,0.8,1.8,2v2.5
			H136V4.1C136,3.3,135.6,2.8,134.8,2.8z"/>
		<path class="st0" d="M142.7,6.6c-1.8,0-3.2-1.4-3.2-3.3c0-1.8,1.3-3.2,3.2-3.2c1.2,0,2.3,0.6,2.6,1.5L144.6,2
			c-0.3-0.6-1-1.1-1.9-1.1c-1.3,0-2.3,1-2.3,2.4c0,1.4,0.9,2.4,2.3,2.4c0.9,0,1.6-0.5,1.9-1.2l0.8,0.4C145.1,5.9,144,6.6,142.7,6.6z
			"/>
		<path class="st0" d="M150.4,4.3c0,1.3-1,2.3-2.3,2.3s-2.3-1-2.3-2.3c0-1.3,1-2.3,2.3-2.3S150.4,3,150.4,4.3z M146.6,4.3
			c0,0.8,0.6,1.5,1.5,1.5c0.8,0,1.5-0.6,1.5-1.5c0-0.8-0.7-1.5-1.5-1.5C147.3,2.8,146.6,3.4,146.6,4.3z"/>
		<path class="st0" d="M158.1,6.5h-0.8V4c0-0.7-0.4-1.2-1.1-1.2c-0.5,0-1.1,0.4-1.1,1.2v2.5h-0.8V4c0-0.7-0.4-1.2-1.1-1.2
			c-0.5,0-1.1,0.3-1.1,1.2v2.5h-0.8V2.1h0.8v0.7c0.3-0.6,0.9-0.8,1.4-0.8c0.7,0,1.2,0.3,1.4,0.9c0.3-0.5,0.8-0.9,1.5-0.9
			c1.1,0,1.8,0.7,1.8,1.8V6.5z"/>
		<path class="st0" d="M163.7,4.3c0,1.3-0.9,2.3-2.1,2.3c-0.8,0-1.4-0.4-1.7-1v2.5h-0.8v-6h0.8V3c0.3-0.6,0.9-1,1.7-1
			C162.8,2,163.7,3,163.7,4.3z M159.9,4.3c0,0.9,0.6,1.5,1.5,1.5c0.8,0,1.5-0.7,1.5-1.5c0-0.8-0.7-1.5-1.5-1.5
			C160.6,2.8,159.9,3.4,159.9,4.3z"/>
		<path class="st0" d="M164.5,2.1h0.8v0.7c0.2-0.5,0.7-0.8,1.2-0.8c0.2,0,0.4,0,0.5,0.1L167,2.9c-0.1-0.1-0.3-0.1-0.5-0.1
			c-0.5,0-1.1,0.4-1.1,1.2v2.5h-0.8V2.1z"/>
		<path class="st0" d="M167.2,4.3c0-1.3,1-2.3,2.2-2.3c1.2,0,2.1,0.9,2.1,2.1l0,0.3H168c0.1,0.9,0.7,1.4,1.5,1.4
			c0.6,0,1.1-0.2,1.3-0.6l0.7,0.4c-0.3,0.6-1.1,1-2,1C168.2,6.6,167.2,5.6,167.2,4.3z M170.7,3.8c-0.1-0.7-0.6-1.1-1.3-1.1
			c-0.7,0-1.2,0.4-1.4,1.1H170.7z"/>
		<path class="st0" d="M174.4,2.8c-0.7,0-1.2,0.5-1.2,1.3v2.4h-0.8V0.2h0.8v2.7c0.3-0.5,0.8-0.9,1.4-0.9c1.1,0,1.8,0.8,1.8,2v2.5
			h-0.8V4.1C175.6,3.3,175.1,2.8,174.4,2.8z"/>
		<path class="st0" d="M177.1,4.3c0-1.3,1-2.3,2.2-2.3c1.2,0,2.1,0.9,2.1,2.1l0,0.3H178c0.1,0.9,0.7,1.4,1.5,1.4
			c0.6,0,1.1-0.2,1.3-0.6l0.7,0.4c-0.3,0.6-1.1,1-2,1C178.2,6.6,177.1,5.6,177.1,4.3z M180.6,3.8c-0.1-0.7-0.6-1.1-1.3-1.1
			c-0.7,0-1.2,0.4-1.4,1.1H180.6z"/>
		<path class="st0" d="M183.1,2.9c0.3-0.5,0.8-0.9,1.4-0.9c1.1,0,1.8,0.8,1.8,2v2.5h-0.8V4.1c0-0.8-0.5-1.3-1.2-1.3
			c-0.7,0-1.2,0.5-1.2,1.3v2.4h-0.8V2.1h0.8V2.9z"/>
		<path class="st0" d="M187.1,5.9l0.3-0.6c0.3,0.3,1,0.6,1.5,0.6c0.5,0,0.9-0.3,0.9-0.6c0-1-2.5-0.3-2.5-1.9c0-0.8,0.7-1.3,1.7-1.3
			c0.6,0,1.2,0.2,1.6,0.5l-0.4,0.6c-0.3-0.3-0.9-0.5-1.3-0.5c-0.5,0-0.8,0.2-0.8,0.6c0,0.9,2.5,0.3,2.5,2c0,0.8-0.7,1.3-1.7,1.3
			C188.2,6.6,187.5,6.3,187.1,5.9z"/>
		<path class="st0" d="M191.2,0.7c0-0.3,0.3-0.6,0.6-0.6c0.3,0,0.6,0.3,0.6,0.6c0,0.3-0.3,0.6-0.6,0.6C191.5,1.2,191.2,1,191.2,0.7z
			 M192.2,2.1v4.4h-0.8V2.1H192.2z"/>
		<path class="st0" d="M195.4,6.5h-0.7l-1.9-4.4h0.9l1.3,3.3l1.3-3.3h0.9L195.4,6.5z"/>
		<path class="st0" d="M197.4,4.3c0-1.3,1-2.3,2.2-2.3c1.2,0,2.1,0.9,2.1,2.1l0,0.3h-3.5c0.1,0.9,0.7,1.4,1.5,1.4
			c0.6,0,1.1-0.2,1.3-0.6l0.7,0.4c-0.3,0.6-1.1,1-2,1C198.4,6.6,197.4,5.6,197.4,4.3z M200.8,3.8c-0.1-0.7-0.6-1.1-1.3-1.1
			c-0.7,0-1.2,0.4-1.4,1.1H200.8z"/>
		<path class="st0" d="M209,4.3c0,1.3-0.9,2.3-2.1,2.3c-0.8,0-1.4-0.4-1.7-1v2.5h-0.8v-6h0.8V3c0.3-0.6,0.9-1,1.7-1
			C208.1,2,209,3,209,4.3z M205.2,4.3c0,0.9,0.6,1.5,1.5,1.5c0.8,0,1.5-0.7,1.5-1.5c0-0.8-0.7-1.5-1.5-1.5
			C205.8,2.8,205.2,3.4,205.2,4.3z"/>
		<path class="st0" d="M214.1,4.3c0,1.3-1,2.3-2.3,2.3s-2.3-1-2.3-2.3c0-1.3,1-2.3,2.3-2.3S214.1,3,214.1,4.3z M210.4,4.3
			c0,0.8,0.6,1.5,1.5,1.5c0.8,0,1.5-0.6,1.5-1.5c0-0.8-0.7-1.5-1.5-1.5C211,2.8,210.4,3.4,210.4,4.3z"/>
		<path class="st0" d="M214.9,0.2h0.8v6.3h-0.8V0.2z"/>
		<path class="st0" d="M216.7,0.7c0-0.3,0.3-0.6,0.6-0.6c0.3,0,0.6,0.3,0.6,0.6c0,0.3-0.3,0.6-0.6,0.6C216.9,1.2,216.7,1,216.7,0.7z
			 M217.6,2.1v4.4h-0.8V2.1H217.6z"/>
		<path class="st0" d="M220.7,6.6c-1.3,0-2.3-1-2.3-2.3c0-1.3,1-2.3,2.3-2.3c0.8,0,1.6,0.4,1.9,1.1l-0.7,0.4
			c-0.2-0.4-0.6-0.7-1.2-0.7c-0.8,0-1.5,0.7-1.5,1.5c0,0.8,0.6,1.5,1.5,1.5c0.6,0,1-0.3,1.3-0.7l0.7,0.3
			C222.4,6.1,221.6,6.6,220.7,6.6z"/>
		<path class="st0" d="M223.2,0.7c0-0.3,0.3-0.6,0.6-0.6c0.3,0,0.6,0.3,0.6,0.6c0,0.3-0.3,0.6-0.6,0.6C223.5,1.2,223.2,1,223.2,0.7z
			 M224.2,2.1v4.4h-0.8V2.1H224.2z"/>
		<path class="st0" d="M225,4.3c0-1.3,1-2.3,2.2-2.3c1.2,0,2.1,0.9,2.1,2.1l0,0.3h-3.5c0.1,0.9,0.7,1.4,1.5,1.4
			c0.6,0,1.1-0.2,1.3-0.6l0.7,0.4c-0.3,0.6-1.1,1-2,1C226,6.6,225,5.6,225,4.3z M228.5,3.8c-0.1-0.7-0.6-1.1-1.3-1.1
			c-0.7,0-1.2,0.4-1.4,1.1H228.5z"/>
		<path class="st0" d="M229.8,5.9l0.3-0.6c0.3,0.3,1,0.6,1.5,0.6c0.5,0,0.9-0.3,0.9-0.6c0-1-2.5-0.3-2.5-1.9c0-0.8,0.7-1.3,1.7-1.3
			c0.6,0,1.2,0.2,1.6,0.5l-0.4,0.6c-0.3-0.3-0.9-0.5-1.3-0.5c-0.5,0-0.8,0.2-0.8,0.6c0,0.9,2.5,0.3,2.5,2c0,0.8-0.7,1.3-1.7,1.3
			C231,6.6,230.3,6.3,229.8,5.9z"/>
		<path class="st0" d="M240.3,4.3c0,1.3-1,2.3-2.3,2.3s-2.3-1-2.3-2.3c0-1.3,1-2.3,2.3-2.3S240.3,3,240.3,4.3z M236.6,4.3
			c0,0.8,0.6,1.5,1.5,1.5c0.8,0,1.5-0.6,1.5-1.5c0-0.8-0.7-1.5-1.5-1.5C237.2,2.8,236.6,3.4,236.6,4.3z"/>
		<path class="st0" d="M241.9,2.9c0.3-0.5,0.8-0.9,1.4-0.9c1.1,0,1.8,0.8,1.8,2v2.5h-0.8V4.1c0-0.8-0.5-1.3-1.2-1.3
			c-0.7,0-1.2,0.5-1.2,1.3v2.4h-0.8V2.1h0.8V2.9z"/>
		<path class="st0" d="M246.2,0.2h0.8v6.3h-0.8V0.2z"/>
		<path class="st0" d="M249.4,6.3l-1.8-4.2h0.9l1.3,3.3l1.3-3.3h0.9l-2.5,6h-0.9L249.4,6.3z"/>
		<path class="st0" d="M251.9,6c0-0.3,0.3-0.6,0.6-0.6s0.6,0.3,0.6,0.6c0,0.3-0.3,0.6-0.6,0.6S251.9,6.3,251.9,6z"/>
		<path class="st0" d="M259.4,0.2V1h-2.8v1.7h2.5v0.8h-2.5v2.1h2.8v0.8h-3.6V0.2H259.4z"/>
		<path class="st0" d="M261.9,4.9l-1.1,1.6h-1l1.6-2.3l-1.5-2.1h1l1,1.4l1-1.4h1l-1.5,2.1l1.6,2.3h-1L261.9,4.9z"/>
		<path class="st0" d="M266.3,6.6c-1.3,0-2.3-1-2.3-2.3c0-1.3,1-2.3,2.3-2.3c0.8,0,1.6,0.4,1.9,1.1l-0.7,0.4
			c-0.2-0.4-0.6-0.7-1.2-0.7c-0.8,0-1.5,0.7-1.5,1.5c0,0.8,0.6,1.5,1.5,1.5c0.6,0,1-0.3,1.3-0.7l0.7,0.3
			C267.9,6.1,267.2,6.6,266.3,6.6z"/>
		<path class="st0" d="M268.9,0.2h0.8v6.3h-0.8V0.2z"/>
		<path class="st0" d="M272.8,6.6c-1.2,0-2-0.9-2-2.1V2.1h0.8v2.4c0,0.8,0.5,1.3,1.2,1.3c0.7,0,1.2-0.5,1.2-1.3V2.1h0.8v2.4
			C274.8,5.7,274,6.6,272.8,6.6z"/>
		<path class="st0" d="M275.5,5.9l0.3-0.6c0.3,0.3,1,0.6,1.5,0.6c0.5,0,0.9-0.3,0.9-0.6c0-1-2.5-0.3-2.5-1.9c0-0.8,0.7-1.3,1.7-1.3
			c0.6,0,1.2,0.2,1.6,0.5l-0.4,0.6c-0.3-0.3-0.9-0.5-1.3-0.5c-0.5,0-0.8,0.2-0.8,0.6c0,0.9,2.5,0.3,2.5,2c0,0.8-0.7,1.3-1.7,1.3
			C276.6,6.6,275.9,6.3,275.5,5.9z"/>
		<path class="st0" d="M279.6,0.7c0-0.3,0.3-0.6,0.6-0.6c0.3,0,0.6,0.3,0.6,0.6c0,0.3-0.3,0.6-0.6,0.6C279.9,1.2,279.6,1,279.6,0.7z
			 M280.6,2.1v4.4h-0.8V2.1H280.6z"/>
		<path class="st0" d="M285.9,4.3c0,1.3-1,2.3-2.3,2.3s-2.3-1-2.3-2.3c0-1.3,1-2.3,2.3-2.3S285.9,3,285.9,4.3z M282.2,4.3
			c0,0.8,0.6,1.5,1.5,1.5c0.8,0,1.5-0.6,1.5-1.5c0-0.8-0.7-1.5-1.5-1.5C282.8,2.8,282.2,3.4,282.2,4.3z"/>
		<path class="st0" d="M287.5,2.9c0.3-0.5,0.8-0.9,1.4-0.9c1.1,0,1.8,0.8,1.8,2v2.5H290V4.1c0-0.8-0.5-1.3-1.2-1.3
			c-0.7,0-1.2,0.5-1.2,1.3v2.4h-0.8V2.1h0.8V2.9z"/>
		<path class="st0" d="M291.5,5.9l0.3-0.6c0.3,0.3,1,0.6,1.5,0.6c0.5,0,0.9-0.3,0.9-0.6c0-1-2.5-0.3-2.5-1.9c0-0.8,0.7-1.3,1.7-1.3
			c0.6,0,1.2,0.2,1.6,0.5l-0.4,0.6c-0.3-0.3-0.9-0.5-1.3-0.5c-0.5,0-0.8,0.2-0.8,0.6c0,0.9,2.5,0.3,2.5,2c0,0.8-0.7,1.3-1.7,1.3
			C292.6,6.6,291.9,6.3,291.5,5.9z"/>
		<path class="st0" d="M296,7.6l-0.4-0.2c0.3-0.4,0.5-0.7,0.5-1c-0.3,0-0.5-0.3-0.5-0.5c0-0.3,0.3-0.6,0.6-0.6
			c0.3,0,0.6,0.3,0.6,0.7C296.9,6.4,296.5,7.1,296,7.6z"/>
		<path class="st0" d="M299.5,0.2h0.8v6.3h-0.8V0.2z"/>
		<path class="st0" d="M301.3,0.7c0-0.3,0.3-0.6,0.6-0.6c0.3,0,0.6,0.3,0.6,0.6c0,0.3-0.3,0.6-0.6,0.6C301.5,1.2,301.3,1,301.3,0.7z
			 M302.2,2.1v4.4h-0.8V2.1H302.2z"/>
		<path class="st0" d="M310.2,6.5h-0.8V4c0-0.7-0.4-1.2-1.1-1.2c-0.5,0-1.1,0.4-1.1,1.2v2.5h-0.8V4c0-0.7-0.4-1.2-1.1-1.2
			c-0.5,0-1.1,0.3-1.1,1.2v2.5h-0.8V2.1h0.8v0.7c0.3-0.6,0.9-0.8,1.4-0.8c0.7,0,1.2,0.3,1.4,0.9c0.3-0.5,0.8-0.9,1.5-0.9
			c1.1,0,1.8,0.7,1.8,1.8V6.5z"/>
		<path class="st0" d="M311.1,0.7c0-0.3,0.3-0.6,0.6-0.6c0.3,0,0.6,0.3,0.6,0.6c0,0.3-0.3,0.6-0.6,0.6C311.3,1.2,311.1,1,311.1,0.7z
			 M312,2.1v4.4h-0.8V2.1H312z"/>
		<path class="st0" d="M313.5,4.9v-2h-0.9V2.1h0.9V0.9h0.8v1.2h1.2v0.8h-1.2v2c0,0.6,0.4,0.9,0.9,0.9c0.1,0,0.2,0,0.3,0l0,0.7
			c-0.1,0.1-0.3,0.1-0.5,0.1C314.1,6.5,313.5,5.9,313.5,4.9z"/>
		<path class="st0" d="M315.9,5.9l0.3-0.6c0.3,0.3,1,0.6,1.5,0.6c0.5,0,0.9-0.3,0.9-0.6c0-1-2.5-0.3-2.5-1.9c0-0.8,0.7-1.3,1.7-1.3
			c0.6,0,1.2,0.2,1.6,0.5L319,3.2c-0.3-0.3-0.9-0.5-1.3-0.5c-0.5,0-0.8,0.2-0.8,0.6c0,0.9,2.5,0.3,2.5,2c0,0.8-0.7,1.3-1.7,1.3
			C317.1,6.6,316.3,6.3,315.9,5.9z"/>
		<path class="st0" d="M320.4,7.6L320,7.4c0.3-0.4,0.5-0.7,0.5-1c-0.3,0-0.5-0.3-0.5-0.5c0-0.3,0.3-0.6,0.6-0.6
			c0.3,0,0.6,0.3,0.6,0.7C321.3,6.4,320.9,7.1,320.4,7.6z"/>
		<path class="st0" d="M325.8,0c0.2,0,0.3,0,0.5,0.1l0,0.7c-0.1,0-0.2,0-0.3,0c-0.5,0-0.9,0.3-0.9,0.9v0.4h1.2v0.8H325v3.6h-0.8V2.9
			h-0.9V2.1h0.9V1.6C324.2,0.6,324.9,0,325.8,0z"/>
		<path class="st0" d="M326.4,4.3c0-1.3,1-2.3,2.2-2.3c1.2,0,2.1,0.9,2.1,2.1l0,0.3h-3.5c0.1,0.9,0.7,1.4,1.5,1.4
			c0.6,0,1.1-0.2,1.3-0.6l0.7,0.4c-0.3,0.6-1.1,1-2,1C327.4,6.6,326.4,5.6,326.4,4.3z M329.9,3.8c-0.1-0.7-0.6-1.1-1.3-1.1
			c-0.7,0-1.2,0.4-1.4,1.1H329.9z"/>
		<path class="st0" d="M331.3,4.3c0-1.3,1-2.3,2.2-2.3c1.2,0,2.1,0.9,2.1,2.1l0,0.3h-3.5c0.1,0.9,0.7,1.4,1.5,1.4
			c0.6,0,1.1-0.2,1.3-0.6l0.7,0.4c-0.3,0.6-1.1,1-2,1C332.3,6.6,331.3,5.6,331.3,4.3z M334.8,3.8c-0.1-0.7-0.6-1.1-1.3-1.1
			c-0.7,0-1.2,0.4-1.4,1.1H334.8z"/>
		<path class="st0" d="M336.1,5.9l0.3-0.6c0.3,0.3,1,0.6,1.5,0.6c0.5,0,0.9-0.3,0.9-0.6c0-1-2.5-0.3-2.5-1.9c0-0.8,0.7-1.3,1.7-1.3
			c0.6,0,1.2,0.2,1.6,0.5l-0.4,0.6c-0.3-0.3-0.9-0.5-1.3-0.5c-0.5,0-0.8,0.2-0.8,0.6c0,0.9,2.5,0.3,2.5,2c0,0.8-0.7,1.3-1.7,1.3
			C337.2,6.6,336.5,6.3,336.1,5.9z"/>
		<path class="st0" d="M349.2,6.5h-0.8V4c0-0.7-0.4-1.2-1.1-1.2c-0.5,0-1.1,0.4-1.1,1.2v2.5h-0.8V4c0-0.7-0.4-1.2-1.1-1.2
			c-0.5,0-1.1,0.3-1.1,1.2v2.5h-0.8V2.1h0.8v0.7c0.3-0.6,0.9-0.8,1.4-0.8c0.7,0,1.2,0.3,1.4,0.9c0.3-0.5,0.8-0.9,1.5-0.9
			c1.1,0,1.8,0.7,1.8,1.8V6.5z"/>
		<path class="st0" d="M354.6,6.5h-0.8V5.6c-0.3,0.6-0.9,1-1.7,1c-1.2,0-2.1-1-2.1-2.3c0-1.3,0.9-2.3,2.1-2.3c0.8,0,1.3,0.4,1.7,1
			V2.1h0.8V6.5z M353.7,4.3c0-0.9-0.6-1.5-1.5-1.5c-0.8,0-1.5,0.7-1.5,1.5c0,0.8,0.7,1.5,1.5,1.5C353.1,5.8,353.7,5.2,353.7,4.3z"/>
		<path class="st0" d="M357,6.3l-1.8-4.2h0.9l1.3,3.3l1.3-3.3h0.9l-2.5,6h-0.9L357,6.3z"/>
		<path class="st0" d="M366.3,6.5h-0.8V5.6c-0.3,0.6-0.9,1-1.7,1c-1.2,0-2.1-1-2.1-2.3c0-1.3,0.9-2.3,2.1-2.3c0.8,0,1.3,0.4,1.7,1
			V2.1h0.8V6.5z M365.4,4.3c0-0.9-0.6-1.5-1.5-1.5c-0.8,0-1.5,0.7-1.5,1.5c0,0.8,0.7,1.5,1.5,1.5C364.8,5.8,365.4,5.2,365.4,4.3z"/>
		<path class="st0" d="M371.9,4.3c0,1.3-0.9,2.3-2.1,2.3c-0.8,0-1.4-0.4-1.7-1v2.5h-0.8v-6h0.8V3c0.3-0.6,0.9-1,1.7-1
			C371,2,371.9,3,371.9,4.3z M368.1,4.3c0,0.9,0.6,1.5,1.5,1.5c0.8,0,1.5-0.7,1.5-1.5c0-0.8-0.7-1.5-1.5-1.5
			C368.8,2.8,368.1,3.4,368.1,4.3z"/>
		<path class="st0" d="M377.4,4.3c0,1.3-0.9,2.3-2.1,2.3c-0.8,0-1.4-0.4-1.7-1v2.5h-0.8v-6h0.8V3c0.3-0.6,0.9-1,1.7-1
			C376.4,2,377.4,3,377.4,4.3z M373.6,4.3c0,0.9,0.6,1.5,1.5,1.5c0.8,0,1.5-0.7,1.5-1.5c0-0.8-0.7-1.5-1.5-1.5
			C374.2,2.8,373.6,3.4,373.6,4.3z"/>
		<path class="st0" d="M378.2,0.2h0.8v6.3h-0.8V0.2z"/>
		<path class="st0" d="M381.4,6.3l-1.8-4.2h0.9l1.3,3.3l1.3-3.3h0.9l-2.5,6h-0.9L381.4,6.3z"/>
		<path class="st0" d="M383.9,6c0-0.3,0.3-0.6,0.6-0.6s0.6,0.3,0.6,0.6c0,0.3-0.3,0.6-0.6,0.6S383.9,6.3,383.9,6z"/>
		<path class="st0" d="M390.7,6.6c-1.8,0-3.2-1.4-3.2-3.3c0-1.8,1.3-3.2,3.2-3.2c1.2,0,2.3,0.6,2.6,1.5L392.5,2
			c-0.3-0.6-1-1.1-1.9-1.1c-1.3,0-2.3,1-2.3,2.4c0,1.4,0.9,2.4,2.3,2.4c0.9,0,1.6-0.5,1.9-1.2l0.8,0.4C393,5.9,391.9,6.6,390.7,6.6z
			"/>
		<path class="st0" d="M398.3,4.3c0,1.3-1,2.3-2.3,2.3s-2.3-1-2.3-2.3c0-1.3,1-2.3,2.3-2.3S398.3,3,398.3,4.3z M394.6,4.3
			c0,0.8,0.6,1.5,1.5,1.5c0.8,0,1.5-0.6,1.5-1.5c0-0.8-0.7-1.5-1.5-1.5C395.2,2.8,394.6,3.4,394.6,4.3z"/>
		<path class="st0" d="M401.1,6.5h-0.7l-1.9-4.4h0.9l1.3,3.3l1.3-3.3h0.9L401.1,6.5z"/>
		<path class="st0" d="M403.1,4.3c0-1.3,1-2.3,2.2-2.3c1.2,0,2.1,0.9,2.1,2.1l0,0.3h-3.5c0.1,0.9,0.7,1.4,1.5,1.4
			c0.6,0,1.1-0.2,1.3-0.6l0.7,0.4c-0.3,0.6-1.1,1-2,1C404.1,6.6,403.1,5.6,403.1,4.3z M406.5,3.8c-0.1-0.7-0.6-1.1-1.3-1.1
			c-0.7,0-1.2,0.4-1.4,1.1H406.5z"/>
		<path class="st0" d="M408.2,2.1h0.8v0.7c0.2-0.5,0.7-0.8,1.2-0.8c0.2,0,0.4,0,0.5,0.1l-0.1,0.8c-0.1-0.1-0.3-0.1-0.5-0.1
			c-0.5,0-1.1,0.4-1.1,1.2v2.5h-0.8V2.1z"/>
		<path class="st0" d="M412.7,5.9l0.3-0.6c0.3,0.3,1,0.6,1.5,0.6c0.5,0,0.9-0.3,0.9-0.6c0-1-2.5-0.3-2.5-1.9c0-0.8,0.7-1.3,1.7-1.3
			c0.6,0,1.2,0.2,1.6,0.5l-0.4,0.6c-0.3-0.3-0.9-0.5-1.3-0.5c-0.5,0-0.8,0.2-0.8,0.6c0,0.9,2.5,0.3,2.5,2c0,0.8-0.7,1.3-1.7,1.3
			C413.9,6.6,413.2,6.3,412.7,5.9z"/>
		<path class="st0" d="M417.3,4.9v-2h-0.9V2.1h0.9V0.9h0.8v1.2h1.2v0.8h-1.2v2c0,0.6,0.4,0.9,0.9,0.9c0.1,0,0.2,0,0.3,0l0,0.7
			c-0.1,0.1-0.3,0.1-0.5,0.1C418,6.5,417.3,5.9,417.3,4.9z"/>
		<path class="st0" d="M424.3,6.5h-0.8V5.6c-0.3,0.6-0.9,1-1.7,1c-1.2,0-2.1-1-2.1-2.3c0-1.3,0.9-2.3,2.1-2.3c0.8,0,1.3,0.4,1.7,1
			V2.1h0.8V6.5z M423.5,4.3c0-0.9-0.6-1.5-1.5-1.5c-0.8,0-1.5,0.7-1.5,1.5c0,0.8,0.7,1.5,1.5,1.5C422.8,5.8,423.5,5.2,423.5,4.3z"/>
		<path class="st0" d="M425.4,2.1h0.8v0.7c0.2-0.5,0.7-0.8,1.2-0.8c0.2,0,0.4,0,0.5,0.1l-0.1,0.8c-0.1-0.1-0.3-0.1-0.5-0.1
			c-0.5,0-1.1,0.4-1.1,1.2v2.5h-0.8V2.1z"/>
		<path class="st0" d="M428.9,4.9v-2h-0.9V2.1h0.9V0.9h0.8v1.2h1.2v0.8h-1.2v2c0,0.6,0.4,0.9,0.9,0.9c0.1,0,0.2,0,0.3,0l0,0.7
			c-0.1,0.1-0.3,0.1-0.5,0.1C429.6,6.5,428.9,5.9,428.9,4.9z"/>
		<path class="st0" d="M431.4,5.9l0.3-0.6c0.3,0.3,1,0.6,1.5,0.6c0.5,0,0.9-0.3,0.9-0.6c0-1-2.5-0.3-2.5-1.9c0-0.8,0.7-1.3,1.7-1.3
			c0.6,0,1.2,0.2,1.6,0.5l-0.4,0.6c-0.3-0.3-0.9-0.5-1.3-0.5c-0.5,0-0.8,0.2-0.8,0.6c0,0.9,2.5,0.3,2.5,2c0,0.8-0.7,1.3-1.7,1.3
			C432.5,6.6,431.8,6.3,431.4,5.9z"/>
		<path class="st0" d="M439.4,3.3c0.8-0.5,1.1-0.8,1.1-1.4c0-0.6-0.4-1-1.1-1c-0.8,0-1.3,0.5-1.3,1.3l-0.8-0.1c0-1.2,0.9-2,2.2-2
			c1.2,0,2,0.8,2,1.8c0,0.9-0.5,1.4-1.6,2c-1.2,0.7-1.5,1-1.5,1.7h3.1v0.8h-4.1V6C437.4,4.8,438,4.2,439.4,3.3z"/>
		<path class="st0" d="M441.7,4.5l2.3-4.3h1l-2.2,4.1h2.1v-2h0.9v2h0.8v0.8h-0.8v1.4h-0.9V5.1h-3.2V4.5z"/>
		<path class="st0" d="M451.1,2.8c-0.7,0-1.2,0.5-1.2,1.3v2.4h-0.8V0.2h0.8v2.7c0.3-0.5,0.8-0.9,1.4-0.9c1.1,0,1.8,0.8,1.8,2v2.5
			h-0.8V4.1C452.3,3.3,451.9,2.8,451.1,2.8z"/>
		<path class="st0" d="M458.5,4.3c0,1.3-1,2.3-2.3,2.3s-2.3-1-2.3-2.3c0-1.3,1-2.3,2.3-2.3S458.5,3,458.5,4.3z M454.7,4.3
			c0,0.8,0.6,1.5,1.5,1.5c0.8,0,1.5-0.6,1.5-1.5c0-0.8-0.7-1.5-1.5-1.5C455.4,2.8,454.7,3.4,454.7,4.3z"/>
		<path class="st0" d="M461.2,6.6c-1.2,0-2-0.9-2-2.1V2.1h0.8v2.4c0,0.8,0.5,1.3,1.2,1.3c0.7,0,1.2-0.5,1.2-1.3V2.1h0.8v2.4
			C463.2,5.7,462.4,6.6,461.2,6.6z"/>
		<path class="st0" d="M464.2,2.1h0.8v0.7c0.2-0.5,0.7-0.8,1.2-0.8c0.2,0,0.4,0,0.5,0.1l-0.1,0.8c-0.1-0.1-0.3-0.1-0.5-0.1
			c-0.5,0-1.1,0.4-1.1,1.2v2.5h-0.8V2.1z"/>
		<path class="st0" d="M467,5.9l0.3-0.6c0.3,0.3,1,0.6,1.5,0.6c0.5,0,0.9-0.3,0.9-0.6c0-1-2.5-0.3-2.5-1.9c0-0.8,0.7-1.3,1.7-1.3
			c0.6,0,1.2,0.2,1.6,0.5L470,3.2c-0.3-0.3-0.9-0.5-1.3-0.5c-0.5,0-0.8,0.2-0.8,0.6c0,0.9,2.5,0.3,2.5,2c0,0.8-0.7,1.3-1.7,1.3
			C468.1,6.6,467.4,6.3,467,5.9z"/>
		<path class="st0" d="M477.5,6.5h-0.8V5.6c-0.3,0.6-0.9,1-1.7,1c-1.2,0-2.1-1-2.1-2.3c0-1.3,0.9-2.3,2.1-2.3c0.8,0,1.3,0.4,1.7,1
			V2.1h0.8V6.5z M476.7,4.3c0-0.9-0.6-1.5-1.5-1.5c-0.8,0-1.5,0.7-1.5,1.5c0,0.8,0.7,1.5,1.5,1.5C476,5.8,476.7,5.2,476.7,4.3z"/>
		<path class="st0" d="M480.6,0c0.2,0,0.3,0,0.5,0.1l0,0.7c-0.1,0-0.2,0-0.3,0c-0.5,0-0.9,0.3-0.9,0.9v0.4h1.2v0.8h-1.2v3.6H479V2.9
			h-0.9V2.1h0.9V1.6C479,0.6,479.6,0,480.6,0z"/>
		<path class="st0" d="M482,4.9v-2h-0.9V2.1h0.9V0.9h0.8v1.2h1.2v0.8h-1.2v2c0,0.6,0.4,0.9,0.9,0.9c0.1,0,0.2,0,0.3,0l0,0.7
			c-0.1,0.1-0.3,0.1-0.5,0.1C482.7,6.5,482,5.9,482,4.9z"/>
		<path class="st0" d="M484.3,4.3c0-1.3,1-2.3,2.2-2.3c1.2,0,2.1,0.9,2.1,2.1l0,0.3h-3.5c0.1,0.9,0.7,1.4,1.5,1.4
			c0.6,0,1.1-0.2,1.3-0.6l0.7,0.4c-0.3,0.6-1.1,1-2,1C485.3,6.6,484.3,5.6,484.3,4.3z M487.8,3.8c-0.1-0.7-0.6-1.1-1.3-1.1
			c-0.7,0-1.2,0.4-1.4,1.1H487.8z"/>
		<path class="st0" d="M489.5,2.1h0.8v0.7c0.2-0.5,0.7-0.8,1.2-0.8c0.2,0,0.4,0,0.5,0.1l-0.1,0.8c-0.1-0.1-0.3-0.1-0.5-0.1
			c-0.5,0-1.1,0.4-1.1,1.2v2.5h-0.8V2.1z"/>
		<path class="st0" d="M499,4.3c0,1.3-0.9,2.3-2.1,2.3c-0.8,0-1.4-0.4-1.7-1v2.5h-0.8v-6h0.8V3c0.3-0.6,0.9-1,1.7-1
			C498,2,499,3,499,4.3z M495.1,4.3c0,0.9,0.6,1.5,1.5,1.5c0.8,0,1.5-0.7,1.5-1.5c0-0.8-0.7-1.5-1.5-1.5
			C495.8,2.8,495.1,3.4,495.1,4.3z"/>
		<path class="st0" d="M501.7,6.6c-1.2,0-2-0.9-2-2.1V2.1h0.8v2.4c0,0.8,0.5,1.3,1.2,1.3c0.7,0,1.2-0.5,1.2-1.3V2.1h0.8v2.4
			C503.7,5.7,502.9,6.6,501.7,6.6z"/>
		<path class="st0" d="M504.7,2.1h0.8v0.7c0.2-0.5,0.7-0.8,1.2-0.8c0.2,0,0.4,0,0.5,0.1l-0.1,0.8c-0.1-0.1-0.3-0.1-0.5-0.1
			c-0.5,0-1.1,0.4-1.1,1.2v2.5h-0.8V2.1z"/>
		<path class="st0" d="M509.6,6.6c-1.3,0-2.3-1-2.3-2.3c0-1.3,1-2.3,2.3-2.3c0.8,0,1.6,0.4,1.9,1.1l-0.7,0.4
			c-0.2-0.4-0.6-0.7-1.2-0.7c-0.8,0-1.5,0.7-1.5,1.5c0,0.8,0.6,1.5,1.5,1.5c0.6,0,1-0.3,1.3-0.7l0.7,0.3
			C511.3,6.1,510.5,6.6,509.6,6.6z"/>
		<path class="st0" d="M514.3,2.8c-0.7,0-1.2,0.5-1.2,1.3v2.4h-0.8V0.2h0.8v2.7c0.3-0.5,0.8-0.9,1.4-0.9c1.1,0,1.8,0.8,1.8,2v2.5
			h-0.8V4.1C515.5,3.3,515.1,2.8,514.3,2.8z"/>
		<path class="st0" d="M521.8,6.5h-0.8V5.6c-0.3,0.6-0.9,1-1.7,1c-1.2,0-2.1-1-2.1-2.3c0-1.3,0.9-2.3,2.1-2.3c0.8,0,1.3,0.4,1.7,1
			V2.1h0.8V6.5z M520.9,4.3c0-0.9-0.6-1.5-1.5-1.5c-0.8,0-1.5,0.7-1.5,1.5c0,0.8,0.7,1.5,1.5,1.5C520.3,5.8,520.9,5.2,520.9,4.3z"/>
		<path class="st0" d="M522.5,5.9l0.3-0.6c0.3,0.3,1,0.6,1.5,0.6c0.5,0,0.9-0.3,0.9-0.6c0-1-2.5-0.3-2.5-1.9c0-0.8,0.7-1.3,1.7-1.3
			c0.6,0,1.2,0.2,1.6,0.5l-0.4,0.6c-0.3-0.3-0.9-0.5-1.3-0.5c-0.5,0-0.8,0.2-0.8,0.6c0,0.9,2.5,0.3,2.5,2c0,0.8-0.7,1.3-1.7,1.3
			C523.7,6.6,522.9,6.3,522.5,5.9z"/>
		<path class="st0" d="M526.7,0.7c0-0.3,0.3-0.6,0.6-0.6c0.3,0,0.6,0.3,0.6,0.6c0,0.3-0.3,0.6-0.6,0.6C526.9,1.2,526.7,1,526.7,0.7z
			 M527.6,2.1v4.4h-0.8V2.1H527.6z"/>
		<path class="st0" d="M529.5,2.9c0.3-0.5,0.8-0.9,1.4-0.9c1.1,0,1.8,0.8,1.8,2v2.5h-0.8V4.1c0-0.8-0.5-1.3-1.2-1.3
			c-0.7,0-1.2,0.5-1.2,1.3v2.4h-0.8V2.1h0.8V2.9z"/>
		<path class="st0" d="M533.9,7.6l0.4-0.6c0.4,0.4,0.9,0.6,1.6,0.6c0.8,0,1.5-0.5,1.5-1.4V5.5c-0.3,0.6-0.9,1-1.7,1
			c-1.2,0-2.1-1-2.1-2.2c0-1.2,0.9-2.2,2.1-2.2c0.8,0,1.3,0.4,1.7,1V2.1h0.8v4.1c0,1.3-1,2.1-2.3,2.1C535.1,8.3,534.3,8,533.9,7.6z
			 M537.3,4.2c0-0.9-0.6-1.5-1.5-1.5c-0.8,0-1.5,0.6-1.5,1.5c0,0.8,0.7,1.5,1.5,1.5C536.7,5.7,537.3,5.1,537.3,4.2z"/>
		<path class="st0" d="M539.4,7.6L539,7.4c0.3-0.4,0.5-0.7,0.5-1c-0.3,0-0.5-0.3-0.5-0.5c0-0.3,0.3-0.6,0.6-0.6
			c0.3,0,0.6,0.3,0.6,0.7C540.3,6.4,539.9,7.1,539.4,7.6z"/>
		<path class="st0" d="M547.2,4.3c0,1.3-1,2.3-2.3,2.3s-2.3-1-2.3-2.3c0-1.3,1-2.3,2.3-2.3S547.2,3,547.2,4.3z M543.5,4.3
			c0,0.8,0.6,1.5,1.5,1.5c0.8,0,1.5-0.6,1.5-1.5c0-0.8-0.7-1.5-1.5-1.5C544.1,2.8,543.5,3.4,543.5,4.3z"/>
		<path class="st0" d="M548,2.1h0.8v0.7c0.2-0.5,0.7-0.8,1.2-0.8c0.2,0,0.4,0,0.5,0.1l-0.1,0.8c-0.1-0.1-0.3-0.1-0.5-0.1
			c-0.5,0-1.1,0.4-1.1,1.2v2.5H548V2.1z"/>
		<path class="st0" d="M554.8,6.6c-1.2,0-2-0.9-2-2.1V2.1h0.8v2.4c0,0.8,0.5,1.3,1.2,1.3c0.7,0,1.2-0.5,1.2-1.3V2.1h0.8v2.4
			C556.9,5.7,556,6.6,554.8,6.6z"/>
		<path class="st0" d="M562.5,4.3c0,1.3-0.9,2.3-2.1,2.3c-0.8,0-1.4-0.4-1.7-1v2.5h-0.8v-6h0.8V3c0.3-0.6,0.9-1,1.7-1
			C561.5,2,562.5,3,562.5,4.3z M558.7,4.3c0,0.9,0.6,1.5,1.5,1.5c0.8,0,1.5-0.7,1.5-1.5c0-0.8-0.7-1.5-1.5-1.5
			C559.3,2.8,558.7,3.4,558.7,4.3z"/>
		<path class="st0" d="M563.4,7.6l0.4-0.6c0.4,0.4,0.9,0.6,1.6,0.6c0.8,0,1.5-0.5,1.5-1.4V5.5c-0.3,0.6-0.9,1-1.7,1
			c-1.2,0-2.1-1-2.1-2.2C563,3,564,2,565.2,2c0.8,0,1.3,0.4,1.7,1V2.1h0.8v4.1c0,1.3-1,2.1-2.3,2.1C564.6,8.3,563.8,8,563.4,7.6z
			 M566.8,4.2c0-0.9-0.6-1.5-1.5-1.5c-0.8,0-1.5,0.6-1.5,1.5c0,0.8,0.7,1.5,1.5,1.5C566.2,5.7,566.8,5.1,566.8,4.2z"/>
		<path class="st0" d="M568.7,2.1h0.8v0.7c0.2-0.5,0.7-0.8,1.2-0.8c0.2,0,0.4,0,0.5,0.1l-0.1,0.8c-0.1-0.1-0.3-0.1-0.5-0.1
			c-0.5,0-1.1,0.4-1.1,1.2v2.5h-0.8V2.1z"/>
		<path class="st0" d="M576,6.5h-0.8V5.6c-0.3,0.6-0.9,1-1.7,1c-1.2,0-2.1-1-2.1-2.3c0-1.3,0.9-2.3,2.1-2.3c0.8,0,1.3,0.4,1.7,1V2.1
			h0.8V6.5z M575.2,4.3c0-0.9-0.6-1.5-1.5-1.5c-0.8,0-1.5,0.7-1.5,1.5c0,0.8,0.7,1.5,1.5,1.5C574.5,5.8,575.2,5.2,575.2,4.3z"/>
		<path class="st0" d="M576.8,4.3c0-1.3,0.9-2.3,2.1-2.3c0.8,0,1.3,0.4,1.7,1V0.2h0.8v6.3h-0.8V5.6c-0.3,0.6-0.9,1-1.7,1
			C577.8,6.6,576.8,5.6,576.8,4.3z M580.6,4.3c0-0.9-0.6-1.5-1.5-1.5c-0.8,0-1.5,0.7-1.5,1.5c0,0.8,0.7,1.5,1.5,1.5
			C580,5.8,580.6,5.2,580.6,4.3z"/>
		<path class="st0" d="M582.4,0.7c0-0.3,0.3-0.6,0.6-0.6c0.3,0,0.6,0.3,0.6,0.6c0,0.3-0.3,0.6-0.6,0.6C582.6,1.2,582.4,1,582.4,0.7z
			 M583.4,2.1v4.4h-0.8V2.1H583.4z"/>
		<path class="st0" d="M585.2,2.9c0.3-0.5,0.8-0.9,1.4-0.9c1.1,0,1.8,0.8,1.8,2v2.5h-0.8V4.1c0-0.8-0.5-1.3-1.2-1.3
			c-0.7,0-1.2,0.5-1.2,1.3v2.4h-0.8V2.1h0.8V2.9z"/>
		<path class="st0" d="M589.6,7.6L590,7c0.4,0.4,0.9,0.6,1.6,0.6c0.8,0,1.5-0.5,1.5-1.4V5.5c-0.3,0.6-0.9,1-1.7,1
			c-1.2,0-2.1-1-2.1-2.2c0-1.2,0.9-2.2,2.1-2.2c0.8,0,1.3,0.4,1.7,1V2.1h0.8v4.1c0,1.3-1,2.1-2.3,2.1C590.8,8.3,590,8,589.6,7.6z
			 M593.1,4.2c0-0.9-0.6-1.5-1.5-1.5c-0.8,0-1.5,0.6-1.5,1.5c0,0.8,0.7,1.5,1.5,1.5C592.4,5.7,593.1,5.1,593.1,4.2z"/>
		<path class="st0" d="M597,4.9v-2h-0.9V2.1h0.9V0.9h0.8v1.2h1.2v0.8h-1.2v2c0,0.6,0.4,0.9,0.9,0.9c0.1,0,0.2,0,0.3,0l0,0.7
			c-0.1,0.1-0.3,0.1-0.5,0.1C597.7,6.5,597,5.9,597,4.9z"/>
		<path class="st0" d="M603.9,4.3c0,1.3-1,2.3-2.3,2.3s-2.3-1-2.3-2.3c0-1.3,1-2.3,2.3-2.3S603.9,3,603.9,4.3z M600.1,4.3
			c0,0.8,0.6,1.5,1.5,1.5c0.8,0,1.5-0.6,1.5-1.5c0-0.8-0.7-1.5-1.5-1.5C600.8,2.8,600.1,3.4,600.1,4.3z"/>
		<path class="st0" d="M604.7,7.6l-0.4-0.2c0.3-0.4,0.5-0.7,0.5-1c-0.3,0-0.5-0.3-0.5-0.5c0-0.3,0.3-0.6,0.6-0.6
			c0.3,0,0.6,0.3,0.6,0.7C605.6,6.4,605.2,7.1,604.7,7.6z"/>
		<path class="st0" d="M611.2,6.6c-1.8,0-3.2-1.4-3.2-3.3c0-1.8,1.3-3.2,3.2-3.2c1.2,0,2.3,0.6,2.6,1.5L613.1,2
			c-0.3-0.6-1-1.1-1.9-1.1c-1.3,0-2.3,1-2.3,2.4c0,1.4,0.9,2.4,2.3,2.4c0.9,0,1.6-0.5,1.9-1.2l0.8,0.4
			C613.6,5.9,612.5,6.6,611.2,6.6z"/>
		<path class="st0" d="M618.9,4.3c0,1.3-1,2.3-2.3,2.3s-2.3-1-2.3-2.3c0-1.3,1-2.3,2.3-2.3S618.9,3,618.9,4.3z M615.1,4.3
			c0,0.8,0.6,1.5,1.5,1.5c0.8,0,1.5-0.6,1.5-1.5c0-0.8-0.7-1.5-1.5-1.5C615.8,2.8,615.1,3.4,615.1,4.3z"/>
		<path class="st0" d="M626.6,6.5h-0.8V4c0-0.7-0.4-1.2-1.1-1.2c-0.5,0-1.1,0.4-1.1,1.2v2.5h-0.8V4c0-0.7-0.4-1.2-1.1-1.2
			c-0.5,0-1.1,0.3-1.1,1.2v2.5h-0.8V2.1h0.8v0.7c0.3-0.6,0.9-0.8,1.4-0.8c0.7,0,1.2,0.3,1.4,0.9c0.3-0.5,0.8-0.9,1.5-0.9
			c1.1,0,1.8,0.7,1.8,1.8V6.5z"/>
		<path class="st0" d="M632.2,4.3c0,1.3-0.9,2.3-2.1,2.3c-0.8,0-1.4-0.4-1.7-1v2.5h-0.8v-6h0.8V3c0.3-0.6,0.9-1,1.7-1
			C631.3,2,632.2,3,632.2,4.3z M628.4,4.3c0,0.9,0.6,1.5,1.5,1.5c0.8,0,1.5-0.7,1.5-1.5c0-0.8-0.7-1.5-1.5-1.5
			C629.1,2.8,628.4,3.4,628.4,4.3z"/>
		<path class="st0" d="M633,2.1h0.8v0.7c0.2-0.5,0.7-0.8,1.2-0.8c0.2,0,0.4,0,0.5,0.1l-0.1,0.8c-0.1-0.1-0.3-0.1-0.5-0.1
			c-0.5,0-1.1,0.4-1.1,1.2v2.5H633V2.1z"/>
		<path class="st0" d="M635.7,4.3c0-1.3,1-2.3,2.2-2.3c1.2,0,2.1,0.9,2.1,2.1l0,0.3h-3.5c0.1,0.9,0.7,1.4,1.5,1.4
			c0.6,0,1.1-0.2,1.3-0.6l0.7,0.4c-0.3,0.6-1.1,1-2,1C636.7,6.6,635.7,5.6,635.7,4.3z M639.2,3.8c-0.1-0.7-0.6-1.1-1.3-1.1
			c-0.7,0-1.2,0.4-1.4,1.1H639.2z"/>
		<path class="st0" d="M642.9,2.8c-0.7,0-1.2,0.5-1.2,1.3v2.4h-0.8V0.2h0.8v2.7c0.3-0.5,0.8-0.9,1.4-0.9c1.1,0,1.8,0.8,1.8,2v2.5
			h-0.8V4.1C644.1,3.3,643.6,2.8,642.9,2.8z"/>
		<path class="st0" d="M645.7,4.3c0-1.3,1-2.3,2.2-2.3c1.2,0,2.1,0.9,2.1,2.1l0,0.3h-3.5c0.1,0.9,0.7,1.4,1.5,1.4
			c0.6,0,1.1-0.2,1.3-0.6l0.7,0.4c-0.3,0.6-1.1,1-2,1C646.7,6.6,645.7,5.6,645.7,4.3z M649.1,3.8c-0.1-0.7-0.6-1.1-1.3-1.1
			c-0.7,0-1.2,0.4-1.4,1.1H649.1z"/>
		<path class="st0" d="M651.6,2.9c0.3-0.5,0.8-0.9,1.4-0.9c1.1,0,1.8,0.8,1.8,2v2.5H654V4.1c0-0.8-0.5-1.3-1.2-1.3
			c-0.7,0-1.2,0.5-1.2,1.3v2.4h-0.8V2.1h0.8V2.9z"/>
		<path class="st0" d="M655.6,5.9l0.3-0.6c0.3,0.3,1,0.6,1.5,0.6c0.5,0,0.9-0.3,0.9-0.6c0-1-2.5-0.3-2.5-1.9c0-0.8,0.7-1.3,1.7-1.3
			c0.6,0,1.2,0.2,1.6,0.5l-0.4,0.6c-0.3-0.3-0.9-0.5-1.3-0.5c-0.5,0-0.8,0.2-0.8,0.6c0,0.9,2.5,0.3,2.5,2c0,0.8-0.7,1.3-1.7,1.3
			C656.7,6.6,656,6.3,655.6,5.9z"/>
		<path class="st0" d="M659.7,0.7c0-0.3,0.3-0.6,0.6-0.6c0.3,0,0.6,0.3,0.6,0.6c0,0.3-0.3,0.6-0.6,0.6C660,1.2,659.7,1,659.7,0.7z
			 M660.7,2.1v4.4h-0.8V2.1H660.7z"/>
		<path class="st0" d="M663.9,6.5h-0.7l-1.9-4.4h0.9l1.3,3.3l1.3-3.3h0.9L663.9,6.5z"/>
		<path class="st0" d="M665.9,4.3c0-1.3,1-2.3,2.2-2.3c1.2,0,2.1,0.9,2.1,2.1l0,0.3h-3.5c0.1,0.9,0.7,1.4,1.5,1.4
			c0.6,0,1.1-0.2,1.3-0.6l0.7,0.4c-0.3,0.6-1.1,1-2,1C666.9,6.6,665.9,5.6,665.9,4.3z M669.3,3.8c-0.1-0.7-0.6-1.1-1.3-1.1
			c-0.7,0-1.2,0.4-1.4,1.1H669.3z"/>
		<path class="st0" d="M674.9,6.6c-1.3,0-2.3-1-2.3-2.3c0-1.3,1-2.3,2.3-2.3c0.8,0,1.6,0.4,1.9,1.1l-0.7,0.4
			c-0.2-0.4-0.6-0.7-1.2-0.7c-0.8,0-1.5,0.7-1.5,1.5c0,0.8,0.6,1.5,1.5,1.5c0.6,0,1-0.3,1.3-0.7l0.7,0.3
			C676.6,6.1,675.8,6.6,674.9,6.6z"/>
		<path class="st0" d="M681.8,4.3c0,1.3-1,2.3-2.3,2.3s-2.3-1-2.3-2.3c0-1.3,1-2.3,2.3-2.3S681.8,3,681.8,4.3z M678.1,4.3
			c0,0.8,0.6,1.5,1.5,1.5c0.8,0,1.5-0.6,1.5-1.5c0-0.8-0.7-1.5-1.5-1.5C678.7,2.8,678.1,3.4,678.1,4.3z"/>
		<path class="st0" d="M684.5,6.5h-0.7l-1.9-4.4h0.9l1.3,3.3l1.3-3.3h0.9L684.5,6.5z"/>
		<path class="st0" d="M686.5,4.3c0-1.3,1-2.3,2.2-2.3c1.2,0,2.1,0.9,2.1,2.1l0,0.3h-3.5c0.1,0.9,0.7,1.4,1.5,1.4
			c0.6,0,1.1-0.2,1.3-0.6l0.7,0.4c-0.3,0.6-1.1,1-2,1C687.5,6.6,686.5,5.6,686.5,4.3z M690,3.8c-0.1-0.7-0.6-1.1-1.3-1.1
			c-0.7,0-1.2,0.4-1.4,1.1H690z"/>
		<path class="st0" d="M691.6,2.1h0.8v0.7c0.2-0.5,0.7-0.8,1.2-0.8c0.2,0,0.4,0,0.5,0.1l-0.1,0.8c-0.1-0.1-0.3-0.1-0.5-0.1
			c-0.5,0-1.1,0.4-1.1,1.2v2.5h-0.8V2.1z"/>
		<path class="st0" d="M694,6c0-0.3,0.3-0.6,0.6-0.6c0.3,0,0.6,0.3,0.6,0.6c0,0.3-0.3,0.6-0.6,0.6C694.2,6.6,694,6.3,694,6z"/>
	</g>
</g>
</svg>
