<?xml version="1.0" encoding="utf-8"?>
<!-- Generator: Adobe Illustrator 27.7.0, SVG Export Plug-In . SVG Version: 6.00 Build 0)  -->
<svg version="1.1" id="Layer_1" xmlns="http://www.w3.org/2000/svg" xmlns:xlink="http://www.w3.org/1999/xlink" x="0px" y="0px"
	 viewBox="0 0 417.4 8.1" style="enable-background:new 0 0 417.4 8.1;" xml:space="preserve">
<style type="text/css">
	.st0{fill:#999999;}
</style>
<g>
	<g>
		<path class="st0" d="M2.4,0.2c1.1,0,1.9,0.8,1.9,1.9S3.5,3.9,2.4,3.9H0.9v2.5H0V0.2H2.4z M3.5,2.1c0-0.6-0.5-1-1.1-1H0.9v2.1h1.6
			C3,3.1,3.5,2.6,3.5,2.1z"/>
		<path class="st0" d="M5,2.1h0.8v0.7C6,2.3,6.5,2,7,2c0.2,0,0.4,0,0.5,0.1L7.4,2.9C7.3,2.8,7.1,2.8,6.9,2.8C6.4,2.8,5.8,3.2,5.8,4
			v2.5H5V2.1z"/>
		<path class="st0" d="M12.2,4.3c0,1.3-1,2.3-2.3,2.3s-2.3-1-2.3-2.3C7.6,3,8.6,2,9.9,2S12.2,3,12.2,4.3z M8.4,4.3
			c0,0.8,0.6,1.5,1.5,1.5c0.8,0,1.5-0.6,1.5-1.5c0-0.8-0.7-1.5-1.5-1.5C9.1,2.8,8.4,3.4,8.4,4.3z"/>
		<path class="st0" d="M12.7,4.3C12.7,3,13.7,2,14.9,2c0.8,0,1.3,0.4,1.7,1V0.2h0.8v6.3h-0.8V5.6c-0.3,0.6-0.9,1-1.7,1
			C13.7,6.6,12.7,5.6,12.7,4.3z M16.5,4.3c0-0.9-0.6-1.5-1.5-1.5c-0.8,0-1.5,0.7-1.5,1.5c0,0.8,0.7,1.5,1.5,1.5
			C15.9,5.8,16.5,5.2,16.5,4.3z"/>
		<path class="st0" d="M20.4,6.6c-1.2,0-2-0.9-2-2.1V2.1h0.8v2.4c0,0.8,0.5,1.3,1.2,1.3c0.7,0,1.2-0.5,1.2-1.3V2.1h0.8v2.4
			C22.4,5.7,21.6,6.6,20.4,6.6z"/>
		<path class="st0" d="M25.4,6.6c-1.3,0-2.3-1-2.3-2.3c0-1.3,1-2.3,2.3-2.3c0.8,0,1.6,0.4,1.9,1.1l-0.7,0.4
			c-0.2-0.4-0.6-0.7-1.2-0.7c-0.8,0-1.5,0.7-1.5,1.5c0,0.8,0.6,1.5,1.5,1.5c0.6,0,1-0.3,1.3-0.7l0.7,0.3C27.1,6.1,26.3,6.6,25.4,6.6
			z"/>
		<path class="st0" d="M28.4,4.9v-2h-0.9V2.1h0.9V0.9h0.8v1.2h1.2v0.8h-1.2v2c0,0.6,0.4,0.9,0.9,0.9c0.1,0,0.2,0,0.3,0l0,0.7
			c-0.1,0.1-0.3,0.1-0.5,0.1C29.1,6.5,28.4,5.9,28.4,4.9z"/>
		<path class="st0" d="M32.9,0.7c0-0.3,0.3-0.6,0.6-0.6c0.3,0,0.6,0.3,0.6,0.6c0,0.3-0.3,0.6-0.6,0.6C33.2,1.2,32.9,1,32.9,0.7z
			 M33.9,2.1v4.4h-0.8V2.1H33.9z"/>
		<path class="st0" d="M34.7,5.9L35,5.3c0.3,0.3,1,0.6,1.5,0.6c0.5,0,0.9-0.3,0.9-0.6c0-1-2.5-0.3-2.5-1.9c0-0.8,0.7-1.3,1.7-1.3
			c0.6,0,1.2,0.2,1.6,0.5l-0.4,0.6c-0.3-0.3-0.9-0.5-1.3-0.5c-0.5,0-0.8,0.2-0.8,0.6c0,0.9,2.5,0.3,2.5,2c0,0.8-0.7,1.3-1.7,1.3
			C35.8,6.6,35.1,6.3,34.7,5.9z"/>
		<path class="st0" d="M38.6,5.9L39,5.3c0.3,0.3,1,0.6,1.5,0.6c0.5,0,0.9-0.3,0.9-0.6c0-1-2.5-0.3-2.5-1.9c0-0.8,0.7-1.3,1.7-1.3
			C41,2,41.6,2.2,42,2.5l-0.4,0.6c-0.3-0.3-0.9-0.5-1.3-0.5c-0.5,0-0.8,0.2-0.8,0.6c0,0.9,2.5,0.3,2.5,2c0,0.8-0.7,1.3-1.7,1.3
			C39.8,6.6,39,6.3,38.6,5.9z"/>
		<path class="st0" d="M44.9,6.6c-1.2,0-2-0.9-2-2.1V2.1h0.8v2.4c0,0.8,0.5,1.3,1.2,1.3c0.7,0,1.2-0.5,1.2-1.3V2.1h0.8v2.4
			C46.9,5.7,46.1,6.6,44.9,6.6z"/>
		<path class="st0" d="M47.6,4.3c0-1.3,1-2.3,2.2-2.3C51.1,2,52,2.9,52,4.1l0,0.3h-3.5c0.1,0.9,0.7,1.4,1.5,1.4
			c0.6,0,1.1-0.2,1.3-0.6l0.7,0.4c-0.3,0.6-1.1,1-2,1C48.6,6.6,47.6,5.6,47.6,4.3z M51.1,3.8c-0.1-0.7-0.6-1.1-1.3-1.1
			c-0.7,0-1.2,0.4-1.4,1.1H51.1z"/>
		<path class="st0" d="M52.5,4.3C52.5,3,53.4,2,54.6,2c0.8,0,1.3,0.4,1.7,1V0.2h0.8v6.3h-0.8V5.6c-0.3,0.6-0.9,1-1.7,1
			C53.4,6.6,52.5,5.6,52.5,4.3z M56.3,4.3c0-0.9-0.6-1.5-1.5-1.5c-0.8,0-1.5,0.7-1.5,1.5c0,0.8,0.7,1.5,1.5,1.5
			C55.7,5.8,56.3,5.2,56.3,4.3z"/>
		<path class="st0" d="M60.1,0.2h0.8V3c0.3-0.6,0.9-1,1.7-1c1.2,0,2.1,1,2.1,2.3s-0.9,2.3-2.1,2.3c-0.8,0-1.4-0.4-1.7-1v0.9h-0.8
			V0.2z M60.9,4.3c0,0.9,0.6,1.5,1.5,1.5c0.8,0,1.5-0.7,1.5-1.5c0-0.8-0.7-1.5-1.5-1.5C61.6,2.8,60.9,3.5,60.9,4.3z"/>
		<path class="st0" d="M66.6,6.3l-1.8-4.2h0.9L67,5.4l1.3-3.3h0.9l-2.5,6h-0.9L66.6,6.3z"/>
		<path class="st0" d="M71.9,0.2l1.7,2.6l1.7-2.6h1L74,3.7v2.8h-0.9V3.7l-2.3-3.5H71.9z"/>
		<path class="st0" d="M80,4.3c0,1.3-1,2.3-2.3,2.3s-2.3-1-2.3-2.3c0-1.3,1-2.3,2.3-2.3S80,3,80,4.3z M76.3,4.3
			c0,0.8,0.6,1.5,1.5,1.5c0.8,0,1.5-0.6,1.5-1.5c0-0.8-0.7-1.5-1.5-1.5C76.9,2.8,76.3,3.4,76.3,4.3z"/>
		<path class="st0" d="M82.8,6.6c-1.2,0-2-0.9-2-2.1V2.1h0.8v2.4c0,0.8,0.5,1.3,1.2,1.3c0.7,0,1.2-0.5,1.2-1.3V2.1h0.8v2.4
			C84.8,5.7,84,6.6,82.8,6.6z"/>
		<path class="st0" d="M85.6,0.7c0-0.3,0.3-0.6,0.6-0.6c0.3,0,0.6,0.3,0.6,0.6c0,0.3-0.3,0.6-0.6,0.6C85.9,1.2,85.6,1,85.6,0.7z
			 M86.6,2.1v4.4h-0.8V2.1H86.6z"/>
		<path class="st0" d="M92.1,0.2C93.2,0.2,94,1,94,2.1s-0.8,1.9-1.9,1.9h-1.6v2.5h-0.9V0.2H92.1z M93.1,2.1c0-0.6-0.5-1-1.1-1h-1.6
			v2.1h1.6C92.7,3.1,93.1,2.6,93.1,2.1z"/>
		<path class="st0" d="M95.1,4.9v-2h-0.9V2.1h0.9V0.9h0.8v1.2h1.2v0.8h-1.2v2c0,0.6,0.4,0.9,0.9,0.9c0.1,0,0.2,0,0.3,0l0,0.7
			c-0.1,0.1-0.3,0.1-0.5,0.1C95.8,6.5,95.1,5.9,95.1,4.9z"/>
		<path class="st0" d="M99.1,6.3l-1.8-4.2h0.9l1.3,3.3l1.3-3.3h0.9l-2.5,6h-0.9L99.1,6.3z"/>
		<path class="st0" d="M105,0.2v5.5h3.1v0.8h-4V0.2H105z"/>
		<path class="st0" d="M108.5,4.9v-2h-0.9V2.1h0.9V0.9h0.8v1.2h1.2v0.8h-1.2v2c0,0.6,0.4,0.9,0.9,0.9c0.1,0,0.2,0,0.3,0l0,0.7
			c-0.1,0.1-0.3,0.1-0.5,0.1C109.1,6.5,108.5,5.9,108.5,4.9z"/>
		<path class="st0" d="M110.8,4.3c0-1.3,0.9-2.3,2.1-2.3c0.8,0,1.3,0.4,1.7,1V0.2h0.8v6.3h-0.8V5.6c-0.3,0.6-0.9,1-1.7,1
			C111.7,6.6,110.8,5.6,110.8,4.3z M114.6,4.3c0-0.9-0.6-1.5-1.5-1.5c-0.8,0-1.5,0.7-1.5,1.5c0,0.8,0.7,1.5,1.5,1.5
			C114,5.8,114.6,5.2,114.6,4.3z"/>
		<path class="st0" d="M116.3,6c0-0.3,0.3-0.6,0.6-0.6s0.6,0.3,0.6,0.6c0,0.3-0.3,0.6-0.6,0.6S116.3,6.3,116.3,6z"/>
		<path class="st0" d="M123.1,6.6c-1.8,0-3.2-1.4-3.2-3.3c0-1.8,1.3-3.2,3.2-3.2c1.2,0,2.3,0.6,2.6,1.5L125,2
			c-0.3-0.6-1-1.1-1.9-1.1c-1.3,0-2.3,1-2.3,2.4c0,1.4,0.9,2.4,2.3,2.4c0.9,0,1.6-0.5,1.9-1.2l0.8,0.4
			C125.5,5.9,124.4,6.6,123.1,6.6z"/>
		<path class="st0" d="M130.8,4.3c0,1.3-1,2.3-2.3,2.3s-2.3-1-2.3-2.3c0-1.3,1-2.3,2.3-2.3S130.8,3,130.8,4.3z M127,4.3
			c0,0.8,0.6,1.5,1.5,1.5c0.8,0,1.5-0.6,1.5-1.5c0-0.8-0.7-1.5-1.5-1.5C127.7,2.8,127,3.4,127,4.3z"/>
		<path class="st0" d="M132.4,2.9c0.3-0.5,0.8-0.9,1.4-0.9c1.1,0,1.8,0.8,1.8,2v2.5h-0.8V4.1c0-0.8-0.5-1.3-1.2-1.3
			c-0.7,0-1.2,0.5-1.2,1.3v2.4h-0.8V2.1h0.8V2.9z"/>
		<path class="st0" d="M136.4,5.9l0.3-0.6c0.3,0.3,1,0.6,1.5,0.6c0.5,0,0.9-0.3,0.9-0.6c0-1-2.5-0.3-2.5-1.9c0-0.8,0.7-1.3,1.7-1.3
			c0.6,0,1.2,0.2,1.6,0.5l-0.4,0.6c-0.3-0.3-0.9-0.5-1.3-0.5c-0.5,0-0.8,0.2-0.8,0.6c0,0.9,2.5,0.3,2.5,2c0,0.8-0.7,1.3-1.7,1.3
			C137.5,6.6,136.8,6.3,136.4,5.9z"/>
		<path class="st0" d="M140.5,0.7c0-0.3,0.3-0.6,0.6-0.6c0.3,0,0.6,0.3,0.6,0.6c0,0.3-0.3,0.6-0.6,0.6C140.8,1.2,140.5,1,140.5,0.7z
			 M141.5,2.1v4.4h-0.8V2.1H141.5z"/>
		<path class="st0" d="M142.3,4.3c0-1.3,0.9-2.3,2.1-2.3c0.8,0,1.3,0.4,1.7,1V0.2h0.8v6.3h-0.8V5.6c-0.3,0.6-0.9,1-1.7,1
			C143.2,6.6,142.3,5.6,142.3,4.3z M146.1,4.3c0-0.9-0.6-1.5-1.5-1.5c-0.8,0-1.5,0.7-1.5,1.5c0,0.8,0.7,1.5,1.5,1.5
			C145.4,5.8,146.1,5.2,146.1,4.3z"/>
		<path class="st0" d="M147.7,4.3c0-1.3,1-2.3,2.2-2.3c1.2,0,2.1,0.9,2.1,2.1l0,0.3h-3.5c0.1,0.9,0.7,1.4,1.5,1.4
			c0.6,0,1.1-0.2,1.3-0.6l0.7,0.4c-0.3,0.6-1.1,1-2,1C148.7,6.6,147.7,5.6,147.7,4.3z M151.2,3.8c-0.1-0.7-0.6-1.1-1.3-1.1
			c-0.7,0-1.2,0.4-1.4,1.1H151.2z"/>
		<path class="st0" d="M152.9,2.1h0.8v0.7c0.2-0.5,0.7-0.8,1.2-0.8c0.2,0,0.4,0,0.5,0.1l-0.1,0.8c-0.1-0.1-0.3-0.1-0.5-0.1
			c-0.5,0-1.1,0.4-1.1,1.2v2.5h-0.8V2.1z"/>
		<path class="st0" d="M162,4.3c0,1.3-1,2.3-2.3,2.3s-2.3-1-2.3-2.3c0-1.3,1-2.3,2.3-2.3S162,3,162,4.3z M158.3,4.3
			c0,0.8,0.6,1.5,1.5,1.5c0.8,0,1.5-0.6,1.5-1.5c0-0.8-0.7-1.5-1.5-1.5C158.9,2.8,158.3,3.4,158.3,4.3z"/>
		<path class="st0" d="M164.8,6.6c-1.2,0-2-0.9-2-2.1V2.1h0.8v2.4c0,0.8,0.5,1.3,1.2,1.3c0.7,0,1.2-0.5,1.2-1.3V2.1h0.8v2.4
			C166.8,5.7,166,6.6,164.8,6.6z"/>
		<path class="st0" d="M167.8,2.1h0.8v0.7c0.2-0.5,0.7-0.8,1.2-0.8c0.2,0,0.4,0,0.5,0.1l-0.1,0.8c-0.1-0.1-0.3-0.1-0.5-0.1
			c-0.5,0-1.1,0.4-1.1,1.2v2.5h-0.8V2.1z"/>
		<path class="st0" d="M175.6,6.6c-1.8,0-3.2-1.4-3.2-3.3c0-1.8,1.3-3.2,3.2-3.2c1.2,0,2.3,0.6,2.6,1.5L177.4,2
			c-0.3-0.6-1-1.1-1.9-1.1c-1.3,0-2.3,1-2.3,2.4c0,1.4,0.9,2.4,2.3,2.4c0.9,0,1.6-0.5,1.9-1.2l0.8,0.4
			C177.9,5.9,176.8,6.6,175.6,6.6z"/>
		<path class="st0" d="M183.3,6.5h-0.8V5.6c-0.3,0.6-0.9,1-1.7,1c-1.2,0-2.1-1-2.1-2.3c0-1.3,0.9-2.3,2.1-2.3c0.8,0,1.3,0.4,1.7,1
			V2.1h0.8V6.5z M182.5,4.3c0-0.9-0.6-1.5-1.5-1.5c-0.8,0-1.5,0.7-1.5,1.5c0,0.8,0.7,1.5,1.5,1.5C181.9,5.8,182.5,5.2,182.5,4.3z"/>
		<path class="st0" d="M184.4,2.1h0.8v0.7c0.2-0.5,0.7-0.8,1.2-0.8c0.2,0,0.4,0,0.5,0.1l-0.1,0.8c-0.1-0.1-0.3-0.1-0.5-0.1
			c-0.5,0-1.1,0.4-1.1,1.2v2.5h-0.8V2.1z"/>
		<path class="st0" d="M191.8,0.2c1.1,0,1.9,0.8,1.9,1.9s-0.8,1.9-1.9,1.9h-1.6v2.5h-0.9V0.2H191.8z M192.8,2.1c0-0.6-0.5-1-1.1-1
			h-1.6v2.1h1.6C192.4,3.1,192.8,2.6,192.8,2.1z"/>
		<path class="st0" d="M199.6,3.3c0,1.8-1.4,3.2-3.1,3.2h-2V0.2h2C198.2,0.2,199.6,1.5,199.6,3.3z M198.7,3.3c0-1.3-0.9-2.3-2.2-2.3
			h-1.2v4.6h1.2C197.8,5.7,198.7,4.7,198.7,3.3z"/>
		<path class="st0" d="M200,5.6l0.5-0.6c0.5,0.5,1.1,0.8,1.9,0.8c0.8,0,1.3-0.4,1.3-1c0-0.7-0.7-0.9-1.5-1.1c-0.9-0.2-2-0.6-2-1.8
			c0-1,0.9-1.7,2.1-1.7c0.8,0,1.7,0.4,2.1,0.9l-0.5,0.7c-0.4-0.4-1-0.7-1.6-0.7c-0.7,0-1.1,0.4-1.1,0.8c0,0.7,0.8,0.9,1.7,1.2
			c0.9,0.3,1.7,0.6,1.7,1.8c0,1-0.8,1.9-2.2,1.9C201.4,6.6,200.5,6.1,200,5.6z"/>
		<path class="st0" d="M207.5,4.9v-2h-0.9V2.1h0.9V0.9h0.8v1.2h1.2v0.8h-1.2v2c0,0.6,0.4,0.9,0.9,0.9c0.1,0,0.2,0,0.3,0l0,0.7
			c-0.1,0.1-0.3,0.1-0.5,0.1C208.1,6.5,207.5,5.9,207.5,4.9z"/>
		<path class="st0" d="M214.3,4.3c0,1.3-1,2.3-2.3,2.3s-2.3-1-2.3-2.3c0-1.3,1-2.3,2.3-2.3S214.3,3,214.3,4.3z M210.6,4.3
			c0,0.8,0.6,1.5,1.5,1.5c0.8,0,1.5-0.6,1.5-1.5c0-0.8-0.7-1.5-1.5-1.5C211.2,2.8,210.6,3.4,210.6,4.3z"/>
		<path class="st0" d="M216.8,4.3c0-1.3,0.9-2.3,2.1-2.3c0.8,0,1.3,0.4,1.7,1V0.2h0.8v6.3h-0.8V5.6c-0.3,0.6-0.9,1-1.7,1
			C217.7,6.6,216.8,5.6,216.8,4.3z M220.6,4.3c0-0.9-0.6-1.5-1.5-1.5c-0.8,0-1.5,0.7-1.5,1.5c0,0.8,0.7,1.5,1.5,1.5
			C219.9,5.8,220.6,5.2,220.6,4.3z"/>
		<path class="st0" d="M222.2,4.3c0-1.3,1-2.3,2.2-2.3c1.2,0,2.1,0.9,2.1,2.1l0,0.3H223c0.1,0.9,0.7,1.4,1.5,1.4
			c0.6,0,1.1-0.2,1.3-0.6l0.7,0.4c-0.3,0.6-1.1,1-2,1C223.2,6.6,222.2,5.6,222.2,4.3z M225.7,3.8c-0.1-0.7-0.6-1.1-1.3-1.1
			c-0.7,0-1.2,0.4-1.4,1.1H225.7z"/>
		<path class="st0" d="M229.4,6.6c-1.3,0-2.3-1-2.3-2.3c0-1.3,1-2.3,2.3-2.3c0.8,0,1.6,0.4,1.9,1.1l-0.7,0.4
			c-0.2-0.4-0.6-0.7-1.2-0.7c-0.8,0-1.5,0.7-1.5,1.5c0,0.8,0.6,1.5,1.5,1.5c0.6,0,1-0.3,1.3-0.7l0.7,0.3
			C231,6.1,230.3,6.6,229.4,6.6z"/>
		<path class="st0" d="M231.9,0.7c0-0.3,0.3-0.6,0.6-0.6c0.3,0,0.6,0.3,0.6,0.6c0,0.3-0.3,0.6-0.6,0.6C232.1,1.2,231.9,1,231.9,0.7z
			 M232.8,2.1v4.4H232V2.1H232.8z"/>
		<path class="st0" d="M233.6,4.3c0-1.3,0.9-2.3,2.1-2.3c0.8,0,1.3,0.4,1.7,1V0.2h0.8v6.3h-0.8V5.6c-0.3,0.6-0.9,1-1.7,1
			C234.6,6.6,233.6,5.6,233.6,4.3z M237.5,4.3c0-0.9-0.6-1.5-1.5-1.5c-0.8,0-1.5,0.7-1.5,1.5c0,0.8,0.7,1.5,1.5,1.5
			C236.8,5.8,237.5,5.2,237.5,4.3z"/>
		<path class="st0" d="M239.1,4.3c0-1.3,1-2.3,2.2-2.3c1.2,0,2.1,0.9,2.1,2.1l0,0.3h-3.5c0.1,0.9,0.7,1.4,1.5,1.4
			c0.6,0,1.1-0.2,1.3-0.6l0.7,0.4c-0.3,0.6-1.1,1-2,1C240.1,6.6,239.1,5.6,239.1,4.3z M242.6,3.8c-0.1-0.7-0.6-1.1-1.3-1.1
			c-0.7,0-1.2,0.4-1.4,1.1H242.6z"/>
		<path class="st0" d="M246,0.7c0-0.3,0.3-0.6,0.6-0.6c0.3,0,0.6,0.3,0.6,0.6c0,0.3-0.3,0.6-0.6,0.6C246.2,1.2,246,1,246,0.7z
			 M246.9,2.1v4.4h-0.8V2.1H246.9z"/>
		<path class="st0" d="M250,0c0.2,0,0.3,0,0.5,0.1l0,0.7c-0.1,0-0.2,0-0.3,0c-0.5,0-0.9,0.3-0.9,0.9v0.4h1.2v0.8h-1.2v3.6h-0.8V2.9
			h-0.9V2.1h0.9V1.6C248.4,0.6,249.1,0,250,0z"/>
		<path class="st0" d="M252.4,5.9l0.3-0.6c0.3,0.3,1,0.6,1.5,0.6c0.5,0,0.9-0.3,0.9-0.6c0-1-2.5-0.3-2.5-1.9c0-0.8,0.7-1.3,1.7-1.3
			c0.6,0,1.2,0.2,1.6,0.5l-0.4,0.6c-0.3-0.3-0.9-0.5-1.3-0.5c-0.5,0-0.8,0.2-0.8,0.6c0,0.9,2.5,0.3,2.5,2c0,0.8-0.7,1.3-1.7,1.3
			C253.6,6.6,252.8,6.3,252.4,5.9z"/>
		<path class="st0" d="M258.6,6.6c-1.2,0-2-0.9-2-2.1V2.1h0.8v2.4c0,0.8,0.5,1.3,1.2,1.3c0.7,0,1.2-0.5,1.2-1.3V2.1h0.8v2.4
			C260.7,5.7,259.8,6.6,258.6,6.6z"/>
		<path class="st0" d="M261.5,0.7c0-0.3,0.3-0.6,0.6-0.6c0.3,0,0.6,0.3,0.6,0.6c0,0.3-0.3,0.6-0.6,0.6C261.8,1.2,261.5,1,261.5,0.7z
			 M262.5,2.1v4.4h-0.8V2.1H262.5z"/>
		<path class="st0" d="M263.9,4.9v-2h-0.9V2.1h0.9V0.9h0.8v1.2h1.2v0.8h-1.2v2c0,0.6,0.4,0.9,0.9,0.9c0.1,0,0.2,0,0.3,0l0,0.7
			c-0.1,0.1-0.3,0.1-0.5,0.1C264.6,6.5,263.9,5.9,263.9,4.9z"/>
		<path class="st0" d="M270.9,6.5H270V5.6c-0.3,0.6-0.9,1-1.7,1c-1.2,0-2.1-1-2.1-2.3c0-1.3,0.9-2.3,2.1-2.3c0.8,0,1.3,0.4,1.7,1
			V2.1h0.8V6.5z M270,4.3c0-0.9-0.6-1.5-1.5-1.5c-0.8,0-1.5,0.7-1.5,1.5c0,0.8,0.7,1.5,1.5,1.5C269.4,5.8,270,5.2,270,4.3z"/>
		<path class="st0" d="M271.9,0.2h0.8V3c0.3-0.6,0.9-1,1.7-1c1.2,0,2.1,1,2.1,2.3s-0.9,2.3-2.1,2.3c-0.8,0-1.4-0.4-1.7-1v0.9h-0.8
			V0.2z M272.8,4.3c0,0.9,0.6,1.5,1.5,1.5c0.8,0,1.5-0.7,1.5-1.5c0-0.8-0.7-1.5-1.5-1.5C273.4,2.8,272.8,3.5,272.8,4.3z"/>
		<path class="st0" d="M277.4,0.2h0.8v6.3h-0.8V0.2z"/>
		<path class="st0" d="M279,4.3c0-1.3,1-2.3,2.2-2.3c1.2,0,2.1,0.9,2.1,2.1l0,0.3h-3.5c0.1,0.9,0.7,1.4,1.5,1.4
			c0.6,0,1.1-0.2,1.3-0.6l0.7,0.4c-0.3,0.6-1.1,1-2,1C280,6.6,279,5.6,279,4.3z M282.5,3.8c-0.1-0.7-0.6-1.1-1.3-1.1
			c-0.7,0-1.2,0.4-1.4,1.1H282.5z"/>
		<path class="st0" d="M284,6c0-0.3,0.3-0.6,0.6-0.6c0.3,0,0.6,0.3,0.6,0.6c0,0.3-0.3,0.6-0.6,0.6C284.2,6.6,284,6.3,284,6z"/>
		<path class="st0" d="M290.3,0.2c1.1,0,1.9,0.8,1.9,1.9s-0.8,1.9-1.9,1.9h-1.6v2.5h-0.9V0.2H290.3z M291.4,2.1c0-0.6-0.5-1-1.1-1
			h-1.6v2.1h1.6C290.9,3.1,291.4,2.6,291.4,2.1z"/>
		<path class="st0" d="M298.2,3.3c0,1.8-1.4,3.2-3.1,3.2h-2V0.2h2C296.8,0.2,298.2,1.5,298.2,3.3z M297.3,3.3c0-1.3-0.9-2.3-2.2-2.3
			h-1.2v4.6h1.2C296.3,5.7,297.3,4.7,297.3,3.3z"/>
		<path class="st0" d="M298.6,5.6l0.5-0.6c0.5,0.5,1.1,0.8,1.9,0.8c0.8,0,1.3-0.4,1.3-1c0-0.7-0.7-0.9-1.5-1.1c-0.9-0.2-2-0.6-2-1.8
			c0-1,0.9-1.7,2.1-1.7c0.8,0,1.7,0.4,2.1,0.9l-0.5,0.7c-0.4-0.4-1-0.7-1.6-0.7c-0.7,0-1.1,0.4-1.1,0.8c0,0.7,0.8,0.9,1.7,1.2
			c0.9,0.3,1.7,0.6,1.7,1.8c0,1-0.8,1.9-2.2,1.9C300,6.6,299.1,6.1,298.6,5.6z"/>
		<path class="st0" d="M304.2,7.6l-0.4-0.2c0.3-0.4,0.5-0.7,0.5-1c-0.3,0-0.5-0.3-0.5-0.5c0-0.3,0.3-0.6,0.6-0.6
			c0.3,0,0.6,0.3,0.6,0.7C305,6.4,304.6,7.1,304.2,7.6z"/>
		<path class="st0" d="M309,6.5V1h-2V0.2h4.9V1h-2v5.5H309z"/>
		<path class="st0" d="M312,4.8c0-1,0.6-1.4,1.3-1.8c-0.3-0.4-0.6-0.8-0.6-1.4c0-0.9,0.7-1.6,1.7-1.6c0.9,0,1.6,0.7,1.6,1.6
			c0,0.9-0.6,1.3-1.3,1.6l1.1,1.2l1-1l0.6,0.5l-1,1l1.3,1.4h-1.1l-0.8-0.8c-0.6,0.6-1.1,0.9-1.9,0.9C312.8,6.6,312,5.8,312,4.8z
			 M313.9,5.7c0.4,0,0.8-0.2,1.3-0.7l-1.3-1.4c-0.5,0.3-1,0.6-1,1.1C312.9,5.3,313.3,5.7,313.9,5.7z M314.1,2.7c0.6-0.3,1-0.5,1-1.1
			c0-0.5-0.4-0.8-0.8-0.8c-0.5,0-0.9,0.3-0.9,0.8C313.5,2,313.8,2.4,314.1,2.7z"/>
		<path class="st0" d="M321.1,6.6c-1.8,0-3.2-1.4-3.2-3.3c0-1.8,1.3-3.2,3.2-3.2c1.2,0,2.3,0.6,2.6,1.5L322.9,2
			c-0.3-0.6-1-1.1-1.9-1.1c-1.3,0-2.3,1-2.3,2.4c0,1.4,0.9,2.4,2.3,2.4c0.9,0,1.6-0.5,1.9-1.2l0.8,0.4
			C323.4,5.9,322.3,6.6,321.1,6.6z"/>
		<path class="st0" d="M324,5.9l0.3-0.6c0.3,0.3,1,0.6,1.5,0.6c0.5,0,0.9-0.3,0.9-0.6c0-1-2.5-0.3-2.5-1.9c0-0.8,0.7-1.3,1.7-1.3
			c0.6,0,1.2,0.2,1.6,0.5l-0.4,0.6c-0.3-0.3-0.9-0.5-1.3-0.5c-0.5,0-0.8,0.2-0.8,0.6c0,0.9,2.5,0.3,2.5,2c0,0.8-0.7,1.3-1.7,1.3
			C325.2,6.6,324.4,6.3,324,5.9z"/>
		<path class="st0" d="M328.5,7.6l-0.4-0.2c0.3-0.4,0.5-0.7,0.5-1c-0.3,0-0.5-0.3-0.5-0.5c0-0.3,0.3-0.6,0.6-0.6
			c0.3,0,0.6,0.3,0.6,0.7C329.4,6.4,329,7.1,328.5,7.6z"/>
		<path class="st0" d="M331.8,4.8c0-1,0.6-1.4,1.3-1.8c-0.3-0.4-0.6-0.8-0.6-1.4c0-0.9,0.7-1.6,1.7-1.6c0.9,0,1.6,0.7,1.6,1.6
			c0,0.9-0.6,1.3-1.3,1.6l1.1,1.2l1-1l0.6,0.5l-1,1l1.3,1.4h-1.1l-0.8-0.8c-0.6,0.6-1.1,0.9-1.9,0.9C332.6,6.6,331.8,5.8,331.8,4.8z
			 M333.7,5.7c0.4,0,0.8-0.2,1.3-0.7l-1.3-1.4c-0.5,0.3-1,0.6-1,1.1C332.7,5.3,333.1,5.7,333.7,5.7z M333.9,2.7c0.6-0.3,1-0.5,1-1.1
			c0-0.5-0.4-0.8-0.8-0.8c-0.5,0-0.9,0.3-0.9,0.8C333.3,2,333.6,2.4,333.9,2.7z"/>
		<path class="st0" d="M341.1,6.5V1h-2V0.2h4.9V1h-2v5.5H341.1z"/>
		<path class="st0" d="M344.7,0.2h1l2.3,5l2.3-5h0.9v6.3h-0.9V1.9l-2.1,4.6h-0.6l-2-4.6v4.6h-0.9V0.2z"/>
		<path class="st0" d="M357.5,3.3c0,1.8-1.4,3.2-3.1,3.2h-2V0.2h2C356.1,0.2,357.5,1.5,357.5,3.3z M356.6,3.3c0-1.3-0.9-2.3-2.2-2.3
			h-1.2v4.6h1.2C355.7,5.7,356.6,4.7,356.6,3.3z"/>
		<path class="st0" d="M364.6,6.5h-0.8V5.6c-0.3,0.6-0.9,1-1.7,1c-1.2,0-2.1-1-2.1-2.3c0-1.3,0.9-2.3,2.1-2.3c0.8,0,1.3,0.4,1.7,1
			V2.1h0.8V6.5z M363.8,4.3c0-0.9-0.6-1.5-1.5-1.5c-0.8,0-1.5,0.7-1.5,1.5c0,0.8,0.7,1.5,1.5,1.5C363.1,5.8,363.8,5.2,363.8,4.3z"/>
		<path class="st0" d="M366,4.9v-2h-0.9V2.1h0.9V0.9h0.8v1.2h1.2v0.8h-1.2v2c0,0.6,0.4,0.9,0.9,0.9c0.1,0,0.2,0,0.3,0l0,0.7
			c-0.1,0.1-0.3,0.1-0.5,0.1C366.7,6.5,366,5.9,366,4.9z"/>
		<path class="st0" d="M371.8,6.3L370,2.1h0.9l1.3,3.3l1.3-3.3h0.9l-2.5,6H371L371.8,6.3z"/>
		<path class="st0" d="M379.1,4.3c0,1.3-1,2.3-2.3,2.3s-2.3-1-2.3-2.3c0-1.3,1-2.3,2.3-2.3S379.1,3,379.1,4.3z M375.4,4.3
			c0,0.8,0.6,1.5,1.5,1.5c0.8,0,1.5-0.6,1.5-1.5c0-0.8-0.7-1.5-1.5-1.5C376,2.8,375.4,3.4,375.4,4.3z"/>
		<path class="st0" d="M381.9,6.6c-1.2,0-2-0.9-2-2.1V2.1h0.8v2.4c0,0.8,0.5,1.3,1.2,1.3c0.7,0,1.2-0.5,1.2-1.3V2.1h0.8v2.4
			C383.9,5.7,383.1,6.6,381.9,6.6z"/>
		<path class="st0" d="M384.8,0.7c0-0.3,0.3-0.6,0.6-0.6c0.3,0,0.6,0.3,0.6,0.6c0,0.3-0.3,0.6-0.6,0.6C385,1.2,384.8,1,384.8,0.7z
			 M385.7,2.1v4.4h-0.8V2.1H385.7z"/>
		<path class="st0" d="M386.6,6c0-0.3,0.3-0.6,0.6-0.6s0.6,0.3,0.6,0.6c0,0.3-0.3,0.6-0.6,0.6S386.6,6.3,386.6,6z"/>
		<path class="st0" d="M390.6,6.6c-1.3,0-2.3-1-2.3-2.3c0-1.3,1-2.3,2.3-2.3c0.8,0,1.6,0.4,1.9,1.1l-0.7,0.4
			c-0.2-0.4-0.6-0.7-1.2-0.7c-0.8,0-1.5,0.7-1.5,1.5c0,0.8,0.6,1.5,1.5,1.5c0.6,0,1-0.3,1.3-0.7l0.7,0.3
			C392.3,6.1,391.5,6.6,390.6,6.6z"/>
		<path class="st0" d="M397.5,4.3c0,1.3-1,2.3-2.3,2.3s-2.3-1-2.3-2.3c0-1.3,1-2.3,2.3-2.3S397.5,3,397.5,4.3z M393.7,4.3
			c0,0.8,0.6,1.5,1.5,1.5c0.8,0,1.5-0.6,1.5-1.5c0-0.8-0.7-1.5-1.5-1.5C394.4,2.8,393.7,3.4,393.7,4.3z"/>
		<path class="st0" d="M405.2,6.5h-0.8V4c0-0.7-0.4-1.2-1.1-1.2c-0.5,0-1.1,0.4-1.1,1.2v2.5h-0.8V4c0-0.7-0.4-1.2-1.1-1.2
			c-0.5,0-1.1,0.3-1.1,1.2v2.5h-0.8V2.1h0.8v0.7c0.3-0.6,0.9-0.8,1.4-0.8c0.7,0,1.2,0.3,1.4,0.9c0.3-0.5,0.8-0.9,1.5-0.9
			c1.1,0,1.8,0.7,1.8,1.8V6.5z"/>
		<path class="st0" d="M406,6c0-0.3,0.3-0.6,0.6-0.6c0.3,0,0.6,0.3,0.6,0.6c0,0.3-0.3,0.6-0.6,0.6C406.3,6.6,406,6.3,406,6z"/>
		<path class="st0" d="M412.4,6.5h-0.8V5.6c-0.3,0.6-0.9,1-1.7,1c-1.2,0-2.1-1-2.1-2.3c0-1.3,0.9-2.3,2.1-2.3c0.8,0,1.3,0.4,1.7,1
			V2.1h0.8V6.5z M411.5,4.3c0-0.9-0.6-1.5-1.5-1.5c-0.8,0-1.5,0.7-1.5,1.5c0,0.8,0.7,1.5,1.5,1.5C410.9,5.8,411.5,5.2,411.5,4.3z"/>
		<path class="st0" d="M415.4,6.6c-1.2,0-2-0.9-2-2.1V2.1h0.8v2.4c0,0.8,0.5,1.3,1.2,1.3c0.7,0,1.2-0.5,1.2-1.3V2.1h0.8v2.4
			C417.4,5.7,416.6,6.6,415.4,6.6z"/>
	</g>
</g>
</svg>
