<svg id="Layer_1" data-name="Layer 1" xmlns="http://www.w3.org/2000/svg" width="728" height="90" version="1.1" viewBox="0 0 728 90">
  <path d="M15,74v-5.3h.8v2.2h2.9v-2.2h.8v5.3h-.8v-2.4h-2.9v2.4h-.8ZM22.3,74.1c-.4,0-.7,0-1-.3-.3-.2-.5-.4-.7-.7-.2-.3-.2-.6-.2-1s0-.7.2-1c.2-.3.4-.5.7-.7.3-.2.6-.3,1-.3s.7,0,1,.3c.3.2.5.4.7.7.2.3.3.6.3,1s0,.7-.3,1c-.2.3-.4.5-.7.7-.3.2-.6.3-1,.3ZM22.3,73.5c.3,0,.5,0,.7-.2.2-.1.3-.3.4-.5.1-.2.2-.4.2-.6s0-.4-.2-.6c0-.2-.2-.4-.4-.5-.2-.1-.4-.2-.7-.2s-.5,0-.7.2c-.2.1-.3.3-.4.5,0,.2-.1.4-.1.6s0,.4.2.6c.1.2.2.4.4.5.2.1.4.2.7.2ZM24.9,73.5l.4-.5c.1.1.3.2.5.3.2,0,.4.1.6.1s.4,0,.6-.1c.2,0,.2-.2.2-.4s0-.2,0-.3c0,0-.2-.1-.3-.2-.2,0-.4-.1-.6-.2-.2,0-.4-.1-.6-.2-.2,0-.3-.2-.4-.3-.1-.1-.2-.3-.2-.6s0-.4.2-.6c.1-.2.3-.3.6-.4.2,0,.5-.1.7-.1s.6,0,.8.1c.2,0,.4.2.6.3l-.4.5c-.1-.1-.3-.2-.4-.3-.2,0-.4-.1-.6-.1s-.4,0-.6.1c-.1,0-.2.2-.2.4s0,.3.3.4c.2,0,.4.1.7.2.2,0,.4.1.6.2.2,0,.3.2.5.4.1.1.2.3.2.6s0,.5-.2.6c-.1.2-.3.3-.6.4-.2,0-.5.1-.8.1-.7,0-1.2-.2-1.6-.6ZM29.2,72.8v-1.9h-.7v-.6h.7v-1.2h.7v1.2h1.1v.6h-1.1v1.8c0,.3,0,.5.1.6,0,.1.2.2.4.2s.3,0,.3,0c0,0,.2-.1.3-.2l.3.4c-.2.1-.3.3-.5.3-.2,0-.4.1-.6.1-.4,0-.7-.1-.9-.3-.2-.2-.3-.6-.3-1ZM32.7,75.6h-.7v-4.9h0c0-.2,0-.3,0-.4h.7v.5c0,0,.2-.1.3-.2.1,0,.2-.2.4-.3.2,0,.4-.1.6-.1.4,0,.7,0,.9.3.3.2.4.4.6.7.1.3.2.6.2,1s0,.6-.2.9c-.1.2-.3.4-.4.6-.2.2-.4.3-.6.4-.2,0-.4.1-.7.1s-.5,0-.6,0c-.1,0-.3-.1-.4-.2v1.7ZM32.7,72.2v1c0,0,.2.1.4.2.2,0,.4,0,.6,0s.5,0,.6-.2c.2-.1.3-.3.4-.5.1-.2.2-.4.2-.7s0-.5-.1-.7c0-.2-.2-.4-.3-.5-.2-.1-.4-.2-.6-.2s-.5,0-.7.2c-.2.1-.3.3-.4.6,0,0,0,.2,0,.3,0,0,0,.2,0,.3ZM36.4,74v-5.3h.7v5.3h-.7ZM38.1,72.5v-2.2h.7v2.2c0,.3,0,.6.2.8.1.2.4.2.6.2s.5,0,.6-.2c.2-.1.3-.3.3-.5,0-.2.1-.5.1-.7v-1.7h.7v3.5c0,0,0,.1,0,.2h-.7v-.6c0,0-.2.2-.3.3-.1,0-.2.2-.4.2-.2,0-.4.1-.6.1-.5,0-.8-.1-1.1-.4-.2-.3-.3-.7-.3-1.1ZM42.2,73.5l.4-.5c.1.1.3.2.5.3.2,0,.4.1.6.1s.4,0,.6-.1c.2,0,.2-.2.2-.4s0-.2,0-.3c0,0-.2-.1-.3-.2-.2,0-.4-.1-.6-.2-.2,0-.4-.1-.6-.2-.2,0-.3-.2-.4-.3-.1-.1-.2-.3-.2-.6s0-.4.2-.6c.1-.2.3-.3.6-.4.2,0,.5-.1.7-.1s.6,0,.8.1c.2,0,.4.2.6.3l-.4.5c-.1-.1-.3-.2-.4-.3-.2,0-.4-.1-.6-.1s-.4,0-.6.1c-.1,0-.2.2-.2.4s0,.3.3.4c.2,0,.4.1.7.2.2,0,.4.1.6.2.2,0,.3.2.5.4.1.1.2.3.2.6s0,.5-.2.6c-.1.2-.3.3-.6.4-.2,0-.5.1-.8.1-.7,0-1.2-.2-1.6-.6ZM47.8,74v-5.3h1.8c.4,0,.7,0,.9.2.2.1.4.3.5.5.1.2.2.4.2.7s0,.4-.1.6-.2.3-.4.4c-.1,0-.3.2-.4.2.1,0,.2,0,.4.1.1,0,.3.1.4.2.1,0,.2.2.3.4,0,.2.1.4.1.6,0,.4,0,.7-.3.9-.2.2-.4.4-.7.5-.3,0-.6.1-1,.1h-1.7ZM48.5,70.9h1c.2,0,.3,0,.5,0,.2,0,.3-.1.4-.3.1-.1.2-.3.2-.5s0-.4-.2-.5c0-.1-.2-.2-.4-.2-.1,0-.3,0-.5,0h-1v1.6ZM48.5,73.3h.9c.1,0,.3,0,.4,0,.1,0,.3,0,.4-.1.1,0,.2-.1.3-.3,0-.1.1-.3.1-.5s0-.4-.2-.6c-.1-.1-.3-.2-.5-.3-.2,0-.4,0-.6,0h-1v1.8ZM54.7,74v-.4c-.1.2-.3.3-.6.4-.2,0-.5.1-.7.1s-.4,0-.6-.1c-.2,0-.4-.2-.5-.4-.1-.2-.2-.4-.2-.7,0-.4.1-.7.4-1,.3-.2.7-.4,1.2-.4s.2,0,.4,0c.1,0,.2,0,.3,0,.1,0,.2,0,.2,0h0c0-.4,0-.6-.3-.7-.2-.1-.4-.2-.7-.2s-.5,0-.7.1c-.2,0-.3.2-.4.2l-.3-.5c.1-.1.3-.2.6-.3.2-.1.6-.2,1-.2s.9.1,1.1.4c.3.2.4.6.4,1v2.2h0c0,.2,0,.3,0,.3h-.7ZM54.7,72.7v-.4s0,0-.2,0c0,0-.2,0-.3,0-.1,0-.2,0-.3,0-.3,0-.5,0-.6.1-.1,0-.2.2-.3.3,0,.1,0,.2,0,.3,0,.2,0,.3.2.5.1.1.3.2.6.2s.4,0,.5-.1c.2,0,.3-.2.4-.3.1-.1.2-.3.2-.4ZM56.4,74v-5.3h.7v5.3h-.7ZM60.4,74v-.4c-.1.2-.3.3-.6.4-.2,0-.5.1-.7.1s-.4,0-.6-.1c-.2,0-.4-.2-.5-.4-.1-.2-.2-.4-.2-.7,0-.4.1-.7.4-1,.3-.2.7-.4,1.2-.4s.2,0,.4,0c.1,0,.2,0,.3,0,.1,0,.2,0,.2,0h0c0-.4,0-.6-.3-.7-.2-.1-.4-.2-.7-.2s-.5,0-.7.1c-.2,0-.3.2-.4.2l-.3-.5c.1-.1.3-.2.6-.3.2-.1.6-.2,1-.2s.9.1,1.1.4c.3.2.4.6.4,1v2.2h0c0,.2,0,.3,0,.3h-.7ZM60.4,72.7v-.4s0,0-.2,0c0,0-.2,0-.3,0-.1,0-.2,0-.3,0-.3,0-.5,0-.6.1-.1,0-.2.2-.3.3,0,.1,0,.2,0,.3,0,.2,0,.3.2.5.1.1.3.2.6.2s.4,0,.5-.1c.2,0,.3-.2.4-.3.1-.1.2-.3.2-.4ZM62.8,74h-.7v-3.3h0c0-.2,0-.3,0-.4h.7v.6c0,0,.2-.2.3-.3.1-.1.2-.2.4-.3.2,0,.4-.1.6-.1.5,0,.8.1,1.1.4.2.3.4.7.4,1.1v2.2h-.7v-2.2c0-.3,0-.6-.2-.8-.1-.2-.4-.2-.6-.2s-.5,0-.6.2c-.2.1-.3.3-.3.5,0,.2,0,.5,0,.7v1.7ZM69.2,73l.4.5c-.2.2-.4.3-.6.5-.2.1-.5.2-.8.2s-.7,0-1-.3c-.3-.2-.5-.4-.7-.7-.2-.3-.2-.6-.2-1s0-.7.2-1c.2-.3.4-.5.7-.7.3-.2.6-.3,1-.3s.6,0,.8.2c.2.1.4.3.6.5l-.5.5c-.1-.1-.2-.2-.4-.3-.2,0-.3-.1-.6-.1s-.5,0-.7.2c-.2.1-.3.3-.4.5s-.1.4-.1.7,0,.4.1.7c.1.2.2.4.4.5.2.1.4.2.7.2s.4,0,.6-.1c.2,0,.3-.2.4-.3ZM73.1,73l.4.4c0,0-.1.1-.3.3-.1.1-.3.2-.5.3-.2,0-.5.1-.8.1s-.7,0-1-.2c-.3-.2-.5-.4-.7-.7-.2-.3-.2-.7-.2-1s0-.7.2-1c.2-.3.4-.5.7-.7.3-.2.6-.3,1-.3s.8.1,1,.3c.3.2.5.5.6.8.1.3.2.7.2,1.1h-2.9c0,.2,0,.4.2.6.1.2.3.3.4.4.2,0,.4.1.6.1.3,0,.6,0,.8-.2.2-.1.4-.2.4-.3ZM70.7,71.8h2.2c0-.3-.1-.5-.3-.7-.2-.2-.4-.3-.8-.3s-.4,0-.6.2c-.2.1-.3.2-.4.4,0,.2-.1.3-.1.5ZM77.1,74v-.5c0,0-.1.1-.2.2,0,0-.2.2-.4.3-.2,0-.4.1-.6.1s-.6,0-.8-.2c-.3-.2-.4-.4-.6-.7-.1-.3-.2-.6-.2-1s0-.7.2-.9c.1-.3.3-.5.5-.6.2-.2.4-.3.6-.4.2,0,.4-.1.6-.1s.4,0,.5,0c.1,0,.3.1.4.2v-1.8h.7v5.1c0,0,0,.1,0,.2h-.7ZM77.1,72.4v-1.3c0,0-.2-.1-.4-.2-.1,0-.3,0-.5,0-.3,0-.6.1-.9.4-.2.2-.3.6-.3,1s0,.5.1.6c0,.2.2.4.4.5.2.1.4.2.6.2s.5,0,.6-.2c.2-.1.3-.3.3-.4,0-.2.1-.3.1-.5ZM81.8,74.7h-.7c0-.2-.2-.4-.3-.7-.1-.3-.2-.7-.3-1.1,0-.4-.1-.9-.1-1.4s0-1,.1-1.4c0-.4.2-.8.3-1.1s.2-.5.3-.7h.7c-.1.2-.2.5-.3.8-.1.3-.2.7-.3,1.1,0,.4-.1.8-.1,1.3s0,.9.1,1.3c0,.4.2.8.3,1.1.1.3.2.6.3.8ZM82.6,74l.2-5.3h.7l1.6,2.8,1.6-2.8h.7l.2,5.3h-.8l-.2-4.1-1.5,2.5h-.4l-1.5-2.5-.2,4.1h-.7ZM88.5,75.4l.3-.5c0,0,.1,0,.2.1s.2,0,.3,0c.2,0,.3,0,.4-.2,0-.1.2-.4.3-.7v-.2c0,0-1.6-3.7-1.6-3.7h.8l1.2,2.8,1.1-2.8h.8l-1.5,3.6c0,.2-.1.3-.2.6,0,.2-.2.4-.3.6-.1.2-.2.3-.4.5-.2.1-.3.2-.6.2s-.3,0-.5,0c-.1,0-.2-.1-.3-.2ZM92.6,73.2l.5-.5c.1.1.2.2.4.3.1.1.3.2.5.3.2,0,.4.1.6.1.4,0,.6,0,.8-.2.2-.2.3-.4.3-.6s-.1-.5-.3-.7c-.2-.1-.5-.3-1-.4-.5,0-.8-.3-1.1-.5-.3-.3-.4-.6-.4-1s0-.5.2-.7c.1-.2.3-.4.6-.5.3-.1.6-.2,1-.2s.6,0,.9.1c.2,0,.4.2.5.3s.2.2.3.3l-.5.5c0,0-.1-.1-.2-.2-.1,0-.2-.2-.4-.2-.2,0-.3-.1-.6-.1s-.4,0-.6.1c-.1,0-.3.2-.3.3,0,.1-.1.2-.1.4,0,.3.1.5.3.6.2.1.5.2.9.3.3,0,.5.2.8.3.2.1.4.3.6.5.2.2.2.5.2.9s0,.6-.2.8c-.2.2-.4.4-.7.6-.3.1-.6.2-1,.2s-.6,0-.9-.1c-.3,0-.5-.2-.7-.4-.2-.1-.3-.3-.4-.4ZM97.3,72.5v-2.2h.7v2.2c0,.3,0,.6.2.8.1.2.4.2.6.2s.5,0,.6-.2c.2-.1.3-.3.3-.5,0-.2.1-.5.1-.7v-1.7h.7v3.5c0,0,0,.1,0,.2h-.7v-.6c0,0-.2.2-.3.3-.1,0-.2.2-.4.2-.2,0-.4.1-.6.1-.5,0-.8-.1-1.1-.4-.2-.3-.3-.7-.3-1.1ZM102.4,75.6h-.7v-4.9h0c0-.2,0-.3,0-.4h.7v.5c0,0,.2-.1.3-.2.1,0,.2-.2.4-.3.2,0,.4-.1.6-.1.4,0,.7,0,.9.3.3.2.4.4.6.7.1.3.2.6.2,1s0,.6-.2.9c-.1.2-.3.4-.4.6-.2.2-.4.3-.6.4-.2,0-.4.1-.7.1s-.5,0-.6,0c-.1,0-.3-.1-.4-.2v1.7ZM102.4,72.2v1c0,0,.2.1.4.2.2,0,.4,0,.6,0s.5,0,.6-.2c.2-.1.3-.3.4-.5.1-.2.2-.4.2-.7s0-.5-.1-.7c0-.2-.2-.4-.3-.5-.2-.1-.4-.2-.6-.2s-.5,0-.7.2c-.2.1-.3.3-.4.6,0,0,0,.2,0,.3,0,0,0,.2,0,.3ZM109.1,73l.4.4c0,0-.1.1-.3.3-.1.1-.3.2-.5.3-.2,0-.5.1-.8.1s-.7,0-1-.2c-.3-.2-.5-.4-.7-.7-.2-.3-.2-.7-.2-1s0-.7.2-1c.2-.3.4-.5.7-.7.3-.2.6-.3,1-.3s.8.1,1,.3.5.5.6.8c.1.3.2.7.2,1.1h-2.9c0,.2,0,.4.2.6.1.2.3.3.4.4.2,0,.4.1.6.1.3,0,.6,0,.8-.2.2-.1.4-.2.4-.3ZM106.7,71.8h2.2c0-.3-.1-.5-.3-.7-.2-.2-.4-.3-.8-.3s-.4,0-.6.2c-.2.1-.3.2-.4.4,0,.2-.1.3-.1.5ZM111.1,74h-.7v-3.4h0c0-.2,0-.3,0-.4h.7v.6c0,0,.2-.2.3-.3.1-.1.2-.2.4-.3s.4-.1.6-.1.2,0,.2,0c0,0,.1,0,.2,0l-.2.7c0,0-.2,0-.4,0s-.4,0-.6.2c-.2.1-.3.2-.4.4,0,.2-.1.4-.1.6v2ZM113.1,68.4h.7c0,.2.2.4.3.7.1.3.2.7.3,1.1,0,.4.1.9.1,1.4s0,1-.1,1.4c0,.4-.2.8-.3,1.1-.1.3-.2.5-.3.7h-.7c.1-.2.2-.5.3-.8.1-.3.2-.7.3-1.1,0-.4.1-.9.1-1.3s0-.9-.1-1.3c0-.4-.2-.8-.3-1.1s-.2-.6-.3-.8ZM117.1,69.6v-.8h.8v.8h-.8ZM117.1,74v-3.7h.7v3.7h-.7ZM119.6,74h-.7v-3.3h0c0-.2,0-.3,0-.4h.7v.6c0,0,.2-.2.3-.3.1-.1.2-.2.4-.3.2,0,.4-.1.6-.1.5,0,.8.1,1.1.4.2.3.4.7.4,1.1v2.2h-.7v-2.2c0-.3,0-.6-.2-.8-.1-.2-.4-.2-.6-.2s-.5,0-.6.2c-.2.1-.3.3-.3.5,0,.2,0,.5,0,.7v1.7ZM124.2,74l-1.6-3.7h.8l1.2,2.9,1.2-2.9h.8l-1.6,3.7h-.7ZM129.9,73l.4.4c0,0-.1.1-.3.3-.1.1-.3.2-.5.3-.2,0-.5.1-.8.1s-.7,0-1-.2c-.3-.2-.5-.4-.7-.7-.2-.3-.2-.7-.2-1s0-.7.2-1c.2-.3.4-.5.7-.7.3-.2.6-.3,1-.3s.8.1,1,.3.5.5.6.8c.1.3.2.7.2,1.1h-2.9c0,.2,0,.4.2.6.1.2.3.3.4.4.2,0,.4.1.6.1.3,0,.6,0,.8-.2.2-.1.4-.2.4-.3ZM127.4,71.8h2.2c0-.3-.1-.5-.3-.7-.2-.2-.4-.3-.8-.3s-.4,0-.6.2c-.2.1-.3.2-.4.4,0,.2-.1.3-.1.5ZM131,73.5l.4-.5c.1.1.3.2.5.3.2,0,.4.1.6.1s.4,0,.6-.1c.2,0,.2-.2.2-.4s0-.2,0-.3c0,0-.2-.1-.3-.2-.2,0-.4-.1-.6-.2-.2,0-.4-.1-.6-.2-.2,0-.3-.2-.4-.3-.1-.1-.2-.3-.2-.6s0-.4.2-.6c.1-.2.3-.3.6-.4.2,0,.5-.1.7-.1s.6,0,.8.1c.2,0,.4.2.6.3l-.4.5c-.1-.1-.3-.2-.4-.3-.2,0-.4-.1-.6-.1s-.4,0-.6.1c-.1,0-.2.2-.2.4s0,.3.3.4c.2,0,.4.1.7.2.2,0,.4.1.6.2.2,0,.3.2.5.4.1.1.2.3.2.6s0,.5-.2.6c-.1.2-.3.3-.6.4-.2,0-.5.1-.8.1-.7,0-1.2-.2-1.6-.6ZM135.2,72.8v-1.9h-.7v-.6h.7v-1.2h.7v1.2h1.1v.6h-1.1v1.8c0,.3,0,.5.1.6,0,.1.2.2.4.2s.3,0,.3,0c0,0,.2-.1.3-.2l.3.4c-.2.1-.3.3-.5.3-.2,0-.4.1-.6.1-.4,0-.7-.1-.9-.3-.2-.2-.3-.6-.3-1ZM138.7,74h-.7v-3.3h0c0-.2,0-.3,0-.4h.7v.6c0,0,.2-.2.3-.3.1-.1.2-.2.4-.3.2,0,.4-.1.6-.1s.5,0,.7.2c.2.1.3.3.4.5.1-.2.3-.3.6-.5.2-.1.5-.2.8-.2.5,0,.8.1,1.1.4.2.3.3.7.3,1.1v2.2h-.7v-2.2c0-.7-.3-1-.8-1s-.4,0-.5.2c-.2.1-.3.2-.4.4,0,.2-.1.3-.1.6v2.1h-.7v-2.2c0-.3,0-.6-.2-.8-.1-.2-.3-.2-.6-.2s-.5,0-.6.2c-.2.1-.3.3-.3.6,0,.2,0,.4,0,.7v1.7ZM147.8,73l.4.4c0,0-.1.1-.3.3-.1.1-.3.2-.5.3-.2,0-.5.1-.8.1s-.7,0-1-.2c-.3-.2-.5-.4-.7-.7-.2-.3-.2-.7-.2-1s0-.7.2-1c.2-.3.4-.5.7-.7.3-.2.6-.3,1-.3s.8.1,1,.3c.3.2.5.5.6.8.1.3.2.7.2,1.1h-2.9c0,.2,0,.4.2.6.1.2.3.3.4.4.2,0,.4.1.6.1.3,0,.6,0,.8-.2.2-.1.4-.2.4-.3ZM145.3,71.8h2.2c0-.3-.1-.5-.3-.7-.2-.2-.4-.3-.8-.3s-.4,0-.6.2c-.2.1-.3.2-.4.4,0,.2-.1.3-.1.5ZM149.8,74h-.7v-3.3h0c0-.2,0-.3,0-.4h.7v.6c0,0,.2-.2.3-.3.1-.1.2-.2.4-.3.2,0,.4-.1.6-.1.5,0,.8.1,1.1.4.2.3.4.7.4,1.1v2.2h-.7v-2.2c0-.3,0-.6-.2-.8-.1-.2-.4-.2-.6-.2s-.5,0-.6.2c-.2.1-.3.3-.3.5,0,.2,0,.5,0,.7v1.7ZM153.8,72.8v-1.9h-.7v-.6h.7v-1.2h.7v1.2h1.1v.6h-1.1v1.8c0,.3,0,.5.1.6,0,.1.2.2.4.2s.3,0,.3,0c0,0,.2-.1.3-.2l.3.4c-.2.1-.3.3-.5.3-.2,0-.4.1-.6.1-.4,0-.7-.1-.9-.3-.2-.2-.3-.6-.3-1ZM159.7,74.1c-.4,0-.7,0-1-.3-.3-.2-.5-.4-.7-.7-.2-.3-.2-.6-.2-1s0-.7.2-1c.2-.3.4-.5.7-.7.3-.2.6-.3,1-.3s.7,0,1,.3c.3.2.5.4.7.7.2.3.3.6.3,1s0,.7-.3,1c-.2.3-.4.5-.7.7-.3.2-.6.3-1,.3ZM159.7,73.5c.3,0,.5,0,.7-.2.2-.1.3-.3.4-.5.1-.2.2-.4.2-.6s0-.4-.2-.6c0-.2-.2-.4-.4-.5-.2-.1-.4-.2-.7-.2s-.5,0-.7.2c-.2.1-.3.3-.4.5,0,.2-.1.4-.1.6s0,.4.2.6c.1.2.2.4.4.5.2.1.4.2.7.2ZM163.2,75.6h-.7v-4.9h0c0-.2,0-.3,0-.4h.7v.5c0,0,.2-.1.3-.2.1,0,.2-.2.4-.3.2,0,.4-.1.6-.1.4,0,.7,0,.9.3.3.2.4.4.6.7.1.3.2.6.2,1s0,.6-.2.9c-.1.2-.3.4-.4.6-.2.2-.4.3-.6.4-.2,0-.4.1-.7.1s-.5,0-.6,0c-.1,0-.3-.1-.4-.2v1.7ZM163.2,72.2v1c0,0,.2.1.4.2.2,0,.4,0,.6,0s.5,0,.6-.2c.2-.1.3-.3.4-.5.1-.2.2-.4.2-.7s0-.5-.1-.7c0-.2-.2-.4-.3-.5-.2-.1-.4-.2-.6-.2s-.5,0-.7.2c-.2.1-.3.3-.4.6,0,0,0,.2,0,.3,0,0,0,.2,0,.3ZM167.3,72.8v-1.9h-.7v-.6h.7v-1.2h.7v1.2h1.1v.6h-1.1v1.8c0,.3,0,.5.1.6,0,.1.2.2.4.2s.3,0,.3,0c0,0,.2-.1.3-.2l.3.4c-.2.1-.3.3-.5.3-.2,0-.4.1-.6.1-.4,0-.7-.1-.9-.3-.2-.2-.3-.6-.3-1ZM170,69.6v-.8h.8v.8h-.8ZM170.1,74v-3.7h.7v3.7h-.7ZM173.6,74.1c-.4,0-.7,0-1-.3-.3-.2-.5-.4-.7-.7-.2-.3-.2-.6-.2-1s0-.7.2-1c.2-.3.4-.5.7-.7.3-.2.6-.3,1-.3s.7,0,1,.3c.3.2.5.4.7.7.2.3.3.6.3,1s0,.7-.3,1c-.2.3-.4.5-.7.7-.3.2-.6.3-1,.3ZM173.6,73.5c.3,0,.5,0,.7-.2.2-.1.3-.3.4-.5.1-.2.2-.4.2-.6s0-.4-.2-.6c0-.2-.2-.4-.4-.5-.2-.1-.4-.2-.7-.2s-.5,0-.7.2c-.2.1-.3.3-.4.5,0,.2-.1.4-.1.6s0,.4.2.6c.1.2.2.4.4.5.2.1.4.2.7.2ZM177.1,74h-.7v-3.3h0c0-.2,0-.3,0-.4h.7v.6c0,0,.2-.2.3-.3.1-.1.2-.2.4-.3.2,0,.4-.1.6-.1.5,0,.8.1,1.1.4.2.3.4.7.4,1.1v2.2h-.7v-2.2c0-.3,0-.6-.2-.8-.1-.2-.4-.2-.6-.2s-.5,0-.6.2c-.2.1-.3.3-.3.5,0,.2,0,.5,0,.7v1.7ZM185,73l.4.5c-.2.2-.4.3-.6.5-.2.1-.5.2-.8.2s-.7,0-1-.3c-.3-.2-.5-.4-.7-.7-.2-.3-.2-.6-.2-1s0-.7.2-1c.2-.3.4-.5.7-.7.3-.2.6-.3,1-.3s.6,0,.8.2.4.3.6.5l-.5.5c-.1-.1-.2-.2-.4-.3-.2,0-.3-.1-.6-.1s-.5,0-.7.2c-.2.1-.3.3-.4.5,0,.2-.1.4-.1.7s0,.4.1.7c.1.2.2.4.4.5s.4.2.7.2.4,0,.6-.1c.2,0,.3-.2.4-.3ZM187.7,74.1c-.4,0-.7,0-1-.3-.3-.2-.5-.4-.7-.7-.2-.3-.2-.6-.2-1s0-.7.2-1c.2-.3.4-.5.7-.7.3-.2.6-.3,1-.3s.7,0,1,.3c.3.2.5.4.7.7.2.3.3.6.3,1s0,.7-.3,1c-.2.3-.4.5-.7.7-.3.2-.6.3-1,.3ZM187.7,73.5c.3,0,.5,0,.7-.2.2-.1.3-.3.4-.5.1-.2.2-.4.2-.6s0-.4-.2-.6c0-.2-.2-.4-.4-.5-.2-.1-.4-.2-.7-.2s-.5,0-.7.2c-.2.1-.3.3-.4.5,0,.2-.1.4-.1.6s0,.4.2.6c.1.2.2.4.4.5.2.1.4.2.7.2ZM191.2,74h-.7v-3.3h0c0-.2,0-.3,0-.4h.7v.6c0,0,.2-.2.3-.3.1-.1.2-.2.4-.3.2,0,.4-.1.6-.1s.5,0,.7.2c.2.1.3.3.4.5.1-.2.3-.3.6-.5.2-.1.5-.2.8-.2.5,0,.8.1,1.1.4.2.3.3.7.3,1.1v2.2h-.7v-2.2c0-.7-.3-1-.8-1s-.4,0-.5.2c-.2.1-.3.2-.4.4,0,.2-.1.3-.1.6v2.1h-.7v-2.2c0-.3,0-.6-.2-.8-.1-.2-.3-.2-.6-.2s-.5,0-.6.2c-.2.1-.3.3-.3.6,0,.2,0,.4,0,.7v1.7ZM198,75.6h-.7v-4.9h0c0-.2,0-.3,0-.4h.7v.5c0,0,.2-.1.3-.2.1,0,.2-.2.4-.3.2,0,.4-.1.6-.1.4,0,.7,0,.9.3.2.2.4.4.6.7.1.3.2.6.2,1s0,.6-.2.9c-.1.2-.3.4-.4.6-.2.2-.4.3-.6.4-.2,0-.4.1-.7.1s-.5,0-.6,0c-.2,0-.3-.1-.4-.2v1.7ZM198,72.2v1c0,0,.2.1.4.2.2,0,.4,0,.6,0s.5,0,.6-.2c.2-.1.3-.3.4-.5.1-.2.2-.4.2-.7s0-.5-.1-.7c0-.2-.2-.4-.3-.5-.2-.1-.4-.2-.6-.2s-.5,0-.7.2c-.2.1-.3.3-.4.6,0,0,0,.2,0,.3,0,0,0,.2,0,.3ZM204.1,74v-.4c-.1.2-.3.3-.6.4-.2,0-.5.1-.7.1s-.4,0-.6-.1c-.2,0-.4-.2-.5-.4-.1-.2-.2-.4-.2-.7,0-.4.1-.7.4-1,.3-.2.7-.4,1.2-.4s.2,0,.4,0c.1,0,.2,0,.3,0,.1,0,.2,0,.2,0h0c0-.4,0-.6-.3-.7-.2-.1-.4-.2-.7-.2s-.5,0-.7.1c-.2,0-.3.2-.4.2l-.3-.5c.1-.1.3-.2.6-.3.2-.1.6-.2,1-.2s.9.1,1.1.4c.3.2.4.6.4,1v2.2h0c0,.2,0,.3,0,.3h-.7ZM204.1,72.7v-.4s0,0-.2,0c0,0-.2,0-.3,0-.1,0-.2,0-.3,0-.3,0-.5,0-.6.1-.1,0-.2.2-.3.3,0,.1,0,.2,0,.3,0,.2,0,.3.2.5.1.1.3.2.6.2s.4,0,.5-.1c.2,0,.3-.2.4-.3.1-.1.2-.3.2-.4ZM206.5,74h-.7v-3.4h0c0-.2,0-.3,0-.4h.7v.6c0,0,.2-.2.3-.3.1-.1.2-.2.4-.3.2,0,.4-.1.6-.1s.2,0,.2,0c0,0,.1,0,.2,0l-.2.7c0,0-.2,0-.4,0s-.4,0-.6.2c-.2.1-.3.2-.4.4,0,.2-.1.4-.1.6v2ZM211.5,73l.4.4c0,0-.1.1-.3.3-.1.1-.3.2-.5.3-.2,0-.5.1-.8.1s-.7,0-1-.2c-.3-.2-.5-.4-.7-.7-.2-.3-.2-.7-.2-1s0-.7.2-1c.2-.3.4-.5.7-.7.3-.2.6-.3,1-.3s.8.1,1,.3c.3.2.5.5.6.8.1.3.2.7.2,1.1h-2.9c0,.2,0,.4.2.6.1.2.3.3.4.4.2,0,.4.1.6.1.3,0,.6,0,.8-.2.2-.1.4-.2.4-.3ZM209,71.8h2.2c0-.3-.1-.5-.3-.7-.2-.2-.4-.3-.8-.3s-.4,0-.6.2c-.2.1-.3.2-.4.4,0,.2-.1.3-.1.5ZM215.5,74v-.5c0,0-.1.1-.2.2,0,0-.2.2-.4.3-.2,0-.4.1-.6.1s-.6,0-.8-.2c-.3-.2-.4-.4-.6-.7-.1-.3-.2-.6-.2-1s0-.7.2-.9c.1-.3.3-.5.5-.6.2-.2.4-.3.6-.4.2,0,.4-.1.6-.1s.4,0,.5,0c.1,0,.3.1.4.2v-1.8h.7v5.1c0,0,0,.1,0,.2h-.7ZM215.4,72.4v-1.3c0,0-.2-.1-.4-.2-.2,0-.3,0-.5,0-.3,0-.6.1-.9.4-.2.2-.3.6-.3,1s0,.5.1.6c0,.2.2.4.4.5.2.1.4.2.6.2s.4,0,.6-.2c.2-.1.3-.3.3-.4,0-.2.1-.3.1-.5ZM218.9,72.8v-1.9h-.7v-.6h.7v-1.2h.7v1.2h1.1v.6h-1.1v1.8c0,.3,0,.5.1.6,0,.1.2.2.4.2s.3,0,.3,0c0,0,.2-.1.3-.2l.3.4c-.2.1-.3.3-.5.3-.2,0-.4.1-.6.1-.4,0-.7-.1-.9-.3-.2-.2-.3-.6-.3-1ZM223.2,74.1c-.4,0-.7,0-1-.3-.3-.2-.5-.4-.7-.7-.2-.3-.2-.6-.2-1s0-.7.2-1c.2-.3.4-.5.7-.7.3-.2.6-.3,1-.3s.7,0,1,.3c.3.2.5.4.7.7.2.3.3.6.3,1s0,.7-.3,1c-.2.3-.4.5-.7.7-.3.2-.6.3-1,.3ZM223.2,73.5c.3,0,.5,0,.7-.2.2-.1.3-.3.4-.5.1-.2.2-.4.2-.6s0-.4-.2-.6c0-.2-.2-.4-.4-.5-.2-.1-.4-.2-.7-.2s-.5,0-.7.2c-.2.1-.3.3-.4.5,0,.2-.1.4-.1.6s0,.4.2.6c.1.2.2.4.4.5.2.1.4.2.7.2ZM227.8,72.8v-1.9h-.7v-.6h.7v-1.2h.7v1.2h1.1v.6h-1.1v1.8c0,.3,0,.5.1.6,0,.1.2.2.4.2s.3,0,.3,0c0,0,.2-.1.3-.2l.3.4c-.2.1-.3.3-.5.3-.2,0-.4.1-.6.1-.4,0-.7-.1-.9-.3-.2-.2-.3-.6-.3-1ZM230.5,74v-5.3h.7v2.2c0,0,.1-.2.2-.3.1-.1.2-.2.4-.3.2,0,.4-.1.6-.1.5,0,.8.1,1.1.4.2.3.4.7.4,1.1v2.2h-.7v-2.2c0-.3,0-.6-.2-.8-.1-.2-.4-.2-.6-.2s-.5,0-.6.2c-.2.1-.3.3-.3.5,0,.2,0,.5,0,.7v1.7h-.7ZM237.9,73l.4.4c0,0-.1.1-.3.3-.1.1-.3.2-.5.3-.2,0-.5.1-.8.1s-.7,0-1-.2c-.3-.2-.5-.4-.7-.7-.2-.3-.2-.7-.2-1s0-.7.2-1c.2-.3.4-.5.7-.7.3-.2.6-.3,1-.3s.8.1,1,.3.5.5.6.8c.1.3.2.7.2,1.1h-2.9c0,.2,0,.4.2.6.1.2.3.3.4.4.2,0,.4.1.6.1.3,0,.6,0,.8-.2.2-.1.4-.2.4-.3ZM235.4,71.8h2.2c0-.3-.1-.5-.3-.7-.2-.2-.4-.3-.8-.3s-.4,0-.6.2c-.2.1-.3.2-.4.4,0,.2-.1.3-.1.5ZM240.4,73.2l.5-.5c.1.1.2.2.4.3.1.1.3.2.5.3.2,0,.4.1.6.1.4,0,.6,0,.8-.2.2-.2.3-.4.3-.6s-.1-.5-.3-.7c-.2-.1-.5-.3-1-.4-.5,0-.8-.3-1.1-.5-.3-.3-.4-.6-.4-1s0-.5.2-.7c.1-.2.3-.4.6-.5.3-.1.6-.2,1-.2s.6,0,.9.1c.2,0,.4.2.5.3.1.1.2.2.3.3l-.5.5c0,0-.1-.1-.2-.2-.1,0-.2-.2-.4-.2-.2,0-.3-.1-.6-.1s-.4,0-.6.1c-.1,0-.2.2-.3.3,0,.1-.1.2-.1.4,0,.3.1.5.3.6.2.1.5.2.9.3.3,0,.5.2.8.3.2.1.4.3.6.5.2.2.2.5.2.9s0,.6-.2.8c-.2.2-.4.4-.7.6-.3.1-.6.2-1,.2s-.6,0-.9-.1c-.3,0-.5-.2-.7-.4-.2-.1-.3-.3-.4-.4ZM245.1,72.5v-2.2h.7v2.2c0,.3,0,.6.2.8.1.2.4.2.6.2s.5,0,.6-.2c.2-.1.3-.3.3-.5,0-.2.1-.5.1-.7v-1.7h.7v3.5c0,0,0,.1,0,.2h-.7v-.6c0,0-.2.2-.3.3-.1,0-.2.2-.4.2-.2,0-.4.1-.6.1-.5,0-.8-.1-1.1-.4-.2-.3-.3-.7-.3-1.1ZM250.1,75.6h-.7v-4.9h0c0-.2,0-.3,0-.4h.7v.5c0,0,.2-.1.3-.2.1,0,.2-.2.4-.3.2,0,.4-.1.6-.1.4,0,.7,0,.9.3.3.2.4.4.6.7.1.3.2.6.2,1s0,.6-.2.9c-.1.2-.3.4-.4.6-.2.2-.4.3-.6.4-.2,0-.4.1-.7.1s-.4,0-.6,0c-.1,0-.3-.1-.4-.2v1.7ZM250.1,72.2v1c0,0,.2.1.4.2.2,0,.4,0,.6,0s.5,0,.6-.2c.2-.1.3-.3.4-.5.1-.2.2-.4.2-.7s0-.5-.1-.7c0-.2-.2-.4-.3-.5-.2-.1-.4-.2-.6-.2s-.5,0-.7.2c-.2.1-.3.3-.4.6,0,0,0,.2,0,.3,0,0,0,.2,0,.3ZM256.9,73l.4.4c0,0-.1.1-.3.3-.1.1-.3.2-.5.3-.2,0-.5.1-.8.1s-.7,0-1-.2c-.3-.2-.5-.4-.7-.7-.2-.3-.2-.7-.2-1s0-.7.2-1c.2-.3.4-.5.7-.7.3-.2.6-.3,1-.3s.8.1,1,.3c.3.2.5.5.6.8.1.3.2.7.2,1.1h-2.9c0,.2,0,.4.2.6.1.2.3.3.4.4.2,0,.4.1.6.1.3,0,.6,0,.8-.2.2-.1.4-.2.4-.3ZM254.4,71.8h2.2c0-.3-.1-.5-.3-.7-.2-.2-.4-.3-.8-.3s-.4,0-.6.2c-.2.1-.3.2-.4.4,0,.2-.1.3-.1.5ZM258.9,74h-.7v-3.4h0c0-.2,0-.3,0-.4h.7v.6c0,0,.2-.2.3-.3.1-.1.2-.2.4-.3s.4-.1.6-.1.2,0,.2,0c0,0,.1,0,.2,0l-.2.7c0,0-.2,0-.4,0s-.4,0-.6.2c-.2.1-.3.2-.4.4s-.1.4-.1.6v2ZM261.2,74v-5.3h1.7c.5,0,.8,0,1.1.2.3.2.5.4.6.6.1.2.2.5.2.7s0,.6-.2.9-.4.5-.7.6l1.2,2.3h-.9l-1.1-2.2h-1.1v2.2h-.7ZM262,71.2h1c.3,0,.6,0,.8-.2.2-.2.3-.4.3-.7s0-.5-.3-.7c-.2-.2-.4-.2-.8-.2h-1v1.8ZM268,74v-.4c-.1.2-.3.3-.6.4-.2,0-.5.1-.7.1s-.4,0-.6-.1c-.2,0-.4-.2-.5-.4-.1-.2-.2-.4-.2-.7,0-.4.1-.7.4-1,.3-.2.7-.4,1.2-.4s.2,0,.4,0c.1,0,.2,0,.3,0,.1,0,.2,0,.2,0h0c0-.4,0-.6-.3-.7-.2-.1-.4-.2-.7-.2s-.5,0-.7.1c-.2,0-.3.2-.4.2l-.3-.5c.1-.1.3-.2.6-.3.2-.1.6-.2,1-.2s.9.1,1.1.4c.3.2.4.6.4,1v2.2h0c0,.2,0,.3,0,.3h-.7ZM268,72.7v-.4s0,0-.2,0c0,0-.2,0-.3,0-.1,0-.2,0-.3,0-.3,0-.5,0-.6.1-.1,0-.2.2-.3.3,0,.1,0,.2,0,.3,0,.2,0,.3.2.5.1.1.3.2.6.2s.4,0,.5-.1c.2,0,.3-.2.4-.3.1-.1.2-.3.2-.4ZM270,72.8v-1.9h-.7v-.6h.7v-1.2h.7v1.2h1.1v.6h-1.1v1.8c0,.3,0,.5.1.6,0,.1.2.2.4.2s.3,0,.3,0c0,0,.2-.1.3-.2l.3.4c-.2.1-.3.3-.5.3-.2,0-.4.1-.6.1-.4,0-.7-.1-.9-.3-.2-.2-.3-.6-.3-1ZM272.7,69.6v-.8h.8v.8h-.8ZM272.8,74v-3.7h.7v3.7h-.7ZM275.2,74h-.7v-3.3h0c0-.2,0-.3,0-.4h.7v.6c0,0,.2-.2.3-.3.1-.1.2-.2.4-.3.2,0,.4-.1.6-.1.5,0,.8.1,1.1.4.2.3.4.7.4,1.1v2.2h-.7v-2.2c0-.3,0-.6-.2-.8-.1-.2-.4-.2-.6-.2s-.5,0-.6.2c-.2.1-.3.3-.3.5,0,.2,0,.5,0,.7v1.7ZM279,75.3l.3-.5c.1,0,.3.2.4.2.2,0,.4,0,.7,0s.6,0,.8-.3c.2-.2.3-.5.3-.8v-.5s-.1.1-.2.2c0,0-.2.1-.4.2-.1,0-.3,0-.6,0-.4,0-.7,0-.9-.2-.2-.2-.4-.4-.6-.7-.1-.3-.2-.6-.2-1s0-.7.3-1c.2-.3.4-.5.7-.7.3-.2.7-.3,1.1-.3s.6,0,.8,0c.3,0,.5.1.6.2v3.6c0,.5-.2.9-.5,1.2-.3.3-.8.4-1.3.4s-.7,0-.9-.1c-.2,0-.4-.2-.5-.3ZM281.5,72.5v-1.5s-.1,0-.2,0c-.1,0-.3,0-.5,0s-.5,0-.7.2c-.2.1-.4.3-.5.5-.1.2-.2.4-.2.7s0,.4.1.6c0,.2.2.3.4.4s.4.2.6.2.4,0,.6-.1c.2,0,.3-.2.3-.3,0-.1.1-.3.1-.4ZM283,73.5l.4-.5c.1.1.3.2.5.3.2,0,.4.1.6.1s.4,0,.6-.1c.2,0,.2-.2.2-.4s0-.2,0-.3c0,0-.2-.1-.3-.2-.2,0-.4-.1-.6-.2-.2,0-.4-.1-.6-.2-.2,0-.3-.2-.4-.3-.1-.1-.2-.3-.2-.6s0-.4.2-.6c.1-.2.3-.3.6-.4.2,0,.5-.1.7-.1s.6,0,.8.1c.2,0,.4.2.6.3l-.4.5c-.1-.1-.3-.2-.4-.3-.2,0-.4-.1-.6-.1s-.4,0-.6.1c-.1,0-.2.2-.2.4s0,.3.3.4c.2,0,.4.1.7.2.2,0,.4.1.6.2.2,0,.3.2.5.4.1.1.2.3.2.6s0,.5-.2.6c-.1.2-.3.3-.6.4-.2,0-.5.1-.8.1-.7,0-1.2-.2-1.6-.6ZM288,74l2.1-5.3h.8l2.1,5.3h-.9l-.6-1.5h-2.2l-.6,1.5h-.8ZM289.6,71.9h1.7l-.9-2.3-.9,2.3ZM296.2,73l.4.5c-.2.2-.4.3-.6.5-.2.1-.5.2-.8.2s-.7,0-1-.3c-.3-.2-.5-.4-.7-.7-.2-.3-.2-.6-.2-1s0-.7.2-1c.2-.3.4-.5.7-.7.3-.2.6-.3,1-.3s.6,0,.8.2c.2.1.4.3.6.5l-.5.5c-.1-.1-.2-.2-.4-.3-.2,0-.3-.1-.6-.1s-.5,0-.7.2c-.2.1-.3.3-.4.5s-.1.4-.1.7,0,.4.1.7c.1.2.2.4.4.5.2.1.4.2.7.2s.4,0,.6-.1c.2,0,.3-.2.4-.3ZM299.9,73l.4.5c-.2.2-.4.3-.6.5-.2.1-.5.2-.8.2s-.7,0-1-.3c-.3-.2-.5-.4-.7-.7-.2-.3-.2-.6-.2-1s0-.7.2-1c.2-.3.4-.5.7-.7.3-.2.6-.3,1-.3s.6,0,.8.2c.2.1.4.3.6.5l-.5.5c-.1-.1-.2-.2-.4-.3-.2,0-.3-.1-.6-.1s-.5,0-.7.2c-.2.1-.3.3-.4.5,0,.2-.1.4-.1.7s0,.4.1.7c.1.2.2.4.4.5s.4.2.7.2.4,0,.6-.1c.2,0,.3-.2.4-.3ZM301.1,72.5v-2.2h.7v2.2c0,.3,0,.6.2.8.1.2.4.2.6.2s.5,0,.6-.2c.2-.1.3-.3.3-.5,0-.2.1-.5.1-.7v-1.7h.7v3.5c0,0,0,.1,0,.2h-.7v-.6c0,0-.2.2-.3.3-.1,0-.2.2-.4.2-.2,0-.4.1-.6.1-.5,0-.8-.1-1.1-.4-.2-.3-.3-.7-.3-1.1ZM306.2,74h-.7v-3.3h0c0-.2,0-.3,0-.4h.7v.6c0,0,.2-.2.3-.3.1-.1.2-.2.4-.3.2,0,.4-.1.6-.1s.5,0,.7.2c.2.1.3.3.4.5.1-.2.3-.3.6-.5.2-.1.5-.2.8-.2.5,0,.8.1,1.1.4.2.3.3.7.3,1.1v2.2h-.7v-2.2c0-.7-.3-1-.8-1s-.4,0-.5.2c-.2.1-.3.2-.4.4,0,.2-.1.3-.1.6v2.1h-.7v-2.2c0-.3,0-.6-.2-.8-.1-.2-.3-.2-.6-.2s-.5,0-.6.2c-.2.1-.3.3-.3.6,0,.2,0,.4,0,.7v1.7ZM312.2,72.5v-2.2h.7v2.2c0,.3,0,.6.2.8.1.2.4.2.6.2s.5,0,.6-.2c.2-.1.3-.3.3-.5,0-.2.1-.5.1-.7v-1.7h.7v3.5c0,0,0,.1,0,.2h-.7v-.6c0,0-.2.2-.3.3-.1,0-.2.2-.4.2-.2,0-.4.1-.6.1-.5,0-.8-.1-1.1-.4-.2-.3-.3-.7-.3-1.1ZM316.6,74v-5.3h.7v5.3h-.7ZM320.6,74v-.4c-.1.2-.3.3-.6.4-.2,0-.5.1-.7.1s-.4,0-.6-.1c-.2,0-.4-.2-.5-.4-.1-.2-.2-.4-.2-.7,0-.4.1-.7.4-1,.3-.2.7-.4,1.2-.4s.2,0,.4,0c.1,0,.2,0,.3,0,.1,0,.2,0,.2,0h0c0-.4,0-.6-.3-.7-.2-.1-.4-.2-.7-.2s-.5,0-.7.1c-.2,0-.3.2-.4.2l-.3-.5c.1-.1.3-.2.6-.3.2-.1.6-.2,1-.2s.8.1,1.1.4c.3.2.4.6.4,1v2.2h0c0,.2,0,.3,0,.3h-.7ZM320.6,72.7v-.4s0,0-.2,0c0,0-.2,0-.3,0-.1,0-.2,0-.3,0-.3,0-.5,0-.6.1-.1,0-.2.2-.3.3,0,.1,0,.2,0,.3,0,.2,0,.3.2.5.1.1.3.2.6.2s.4,0,.5-.1c.2,0,.3-.2.4-.3.1-.1.2-.3.2-.4ZM322.6,72.8v-1.9h-.7v-.6h.7v-1.2h.7v1.2h1.1v.6h-1.1v1.8c0,.3,0,.5.1.6,0,.1.2.2.4.2s.3,0,.3,0c0,0,.2-.1.3-.2l.3.4c-.2.1-.3.3-.5.3-.2,0-.4.1-.6.1-.4,0-.7-.1-.9-.3-.2-.2-.3-.6-.3-1ZM325.3,69.6v-.8h.8v.8h-.8ZM325.4,74v-3.7h.7v3.7h-.7ZM328.9,74.1c-.4,0-.7,0-1-.3-.3-.2-.5-.4-.7-.7-.2-.3-.2-.6-.2-1s0-.7.2-1c.2-.3.4-.5.7-.7.3-.2.6-.3,1-.3s.7,0,1,.3c.3.2.5.4.7.7.2.3.3.6.3,1s0,.7-.3,1c-.2.3-.4.5-.7.7-.3.2-.6.3-1,.3ZM328.9,73.5c.3,0,.5,0,.7-.2.2-.1.3-.3.4-.5.1-.2.2-.4.2-.6s0-.4-.2-.6c0-.2-.2-.4-.4-.5-.2-.1-.4-.2-.7-.2s-.5,0-.7.2c-.2.1-.3.3-.4.5,0,.2-.1.4-.1.6s0,.4.2.6c.1.2.2.4.4.5.2.1.4.2.7.2ZM332.4,74h-.7v-3.3h0c0-.2,0-.3,0-.4h.7v.6c0,0,.2-.2.3-.3.1-.1.2-.2.4-.3.2,0,.4-.1.6-.1.5,0,.8.1,1.1.4.2.3.4.7.4,1.1v2.2h-.7v-2.2c0-.3,0-.6-.2-.8-.1-.2-.4-.2-.6-.2s-.5,0-.6.2c-.2.1-.3.3-.3.5,0,.2,0,.5,0,.7v1.7ZM337.6,74v-5.3h3.4v.7h-2.6v1.6h2v.7h-2v2.3h-.8ZM341.1,72.5v-2.2h.7v2.2c0,.3,0,.6.2.8.1.2.4.2.6.2s.5,0,.6-.2c.2-.1.3-.3.3-.5,0-.2.1-.5.1-.7v-1.7h.7v3.5c0,0,0,.1,0,.2h-.7v-.6c0,0-.2.2-.3.3-.1,0-.2.2-.4.2-.2,0-.4.1-.6.1-.5,0-.8-.1-1.1-.4-.2-.3-.3-.7-.3-1.1ZM346.2,74h-.7v-3.3h0c0-.2,0-.3,0-.4h.7v.6c0,0,.2-.2.3-.3.1-.1.2-.2.4-.3.2,0,.4-.1.6-.1.5,0,.8.1,1.1.4.2.3.4.7.4,1.1v2.2h-.7v-2.2c0-.3,0-.6-.2-.8-.1-.2-.4-.2-.6-.2s-.5,0-.6.2c-.2.1-.3.3-.3.5,0,.2,0,.5,0,.7v1.7ZM352.5,74v-.5c0,0-.1.1-.2.2,0,0-.2.2-.4.3-.2,0-.4.1-.6.1s-.6,0-.8-.2c-.3-.2-.4-.4-.6-.7-.1-.3-.2-.6-.2-1s0-.7.2-.9c.1-.3.3-.5.5-.6.2-.2.4-.3.6-.4.2,0,.4-.1.6-.1s.4,0,.5,0c.1,0,.3.1.4.2v-1.8h.7v5.1c0,0,0,.1,0,.2h-.7ZM352.5,72.4v-1.3c0,0-.2-.1-.4-.2-.1,0-.3,0-.5,0-.3,0-.6.1-.9.4-.2.2-.3.6-.3,1s0,.5.1.6c0,.2.2.4.4.5.2.1.4.2.6.2s.5,0,.6-.2c.2-.1.3-.3.3-.4,0-.2.1-.3.1-.5ZM359.8,72.6l.5.4c0,.1-.2.3-.4.4-.2.2-.4.3-.7.4-.3.1-.6.2-1,.2s-1-.1-1.4-.4c-.4-.2-.7-.6-.9-1-.2-.4-.3-.9-.3-1.4s0-.8.2-1.1c.1-.3.3-.6.5-.9.2-.3.5-.5.8-.6.3-.1.7-.2,1.1-.2s.7,0,1,.2c.3.1.5.3.7.4.2.2.3.3.4.5l-.5.5c0-.1-.2-.2-.3-.4-.1-.1-.3-.2-.5-.3-.2,0-.4-.1-.7-.1s-.7,0-1,.3c-.3.2-.5.4-.6.8-.1.3-.2.7-.2,1.1s0,.7.2,1c.2.3.4.6.6.8.3.2.6.3,1,.3s.6,0,.8-.2c.2-.1.4-.2.5-.3.1-.1.2-.2.3-.3ZM361.7,74h-.7v-3.4h0c0-.2,0-.3,0-.4h.7v.6c0,0,.2-.2.3-.3.1-.1.2-.2.4-.3s.4-.1.6-.1.2,0,.2,0c0,0,.1,0,.2,0l-.2.7c0,0-.2,0-.4,0s-.4,0-.6.2c-.2.1-.3.2-.4.4s-.1.4-.1.6v2ZM366.7,73l.4.4c0,0-.1.1-.3.3-.1.1-.3.2-.5.3-.2,0-.5.1-.8.1s-.7,0-1-.2c-.3-.2-.5-.4-.7-.7-.2-.3-.2-.7-.2-1s0-.7.2-1c.2-.3.4-.5.7-.7.3-.2.6-.3,1-.3s.8.1,1,.3c.3.2.5.5.6.8.1.3.2.7.2,1.1h-2.9c0,.2,0,.4.2.6.1.2.3.3.4.4.2,0,.4.1.6.1.3,0,.6,0,.8-.2.2-.1.4-.2.4-.3ZM364.2,71.8h2.2c0-.3-.1-.5-.3-.7-.2-.2-.4-.3-.8-.3s-.4,0-.6.2c-.2.1-.3.2-.4.4,0,.2-.1.3-.1.5ZM370.7,74v-.5c0,0-.1.1-.2.2,0,0-.2.2-.4.3-.2,0-.4.1-.6.1s-.6,0-.8-.2c-.2-.2-.4-.4-.6-.7-.1-.3-.2-.6-.2-1s0-.7.2-.9c.1-.3.3-.5.5-.6.2-.2.4-.3.6-.4.2,0,.4-.1.6-.1s.4,0,.5,0c.1,0,.3.1.4.2v-1.8h.7v5.1c0,0,0,.1,0,.2h-.7ZM370.7,72.4v-1.3c0,0-.2-.1-.4-.2-.1,0-.3,0-.5,0-.3,0-.6.1-.9.4-.2.2-.3.6-.3,1s0,.5.1.6c0,.2.2.4.4.5.2.1.4.2.6.2s.5,0,.6-.2c.2-.1.3-.3.3-.4,0-.2.1-.3.1-.5ZM372.4,69.6v-.8h.8v.8h-.8ZM372.4,74v-3.7h.7v3.7h-.7ZM374.5,72.8v-1.9h-.7v-.6h.7v-1.2h.7v1.2h1.1v.6h-1.1v1.8c0,.3,0,.5.1.6,0,.1.2.2.4.2s.3,0,.3,0c0,0,.2-.1.3-.2l.3.4c-.2.1-.3.3-.5.3-.2,0-.4.1-.6.1-.4,0-.7-.1-.9-.3-.2-.2-.3-.6-.3-1ZM377.2,69.6v-.8h.8v.8h-.8ZM377.3,74v-3.7h.7v3.7h-.7ZM379.7,74h-.7v-3.3h0c0-.2,0-.3,0-.4h.7v.6c0,0,.2-.2.3-.3.1-.1.2-.2.4-.3.2,0,.4-.1.6-.1.5,0,.8.1,1.1.4.2.3.4.7.4,1.1v2.2h-.7v-2.2c0-.3,0-.6-.2-.8-.1-.2-.4-.2-.6-.2s-.5,0-.6.2c-.2.1-.3.3-.3.5,0,.2,0,.5,0,.7v1.7ZM383.5,75.3l.3-.5c.1,0,.3.2.4.2.2,0,.4,0,.7,0s.6,0,.8-.3c.2-.2.3-.5.3-.8v-.5s-.1.1-.2.2c0,0-.2.1-.4.2-.1,0-.3,0-.6,0-.4,0-.7,0-.9-.2-.3-.2-.4-.4-.6-.7-.1-.3-.2-.6-.2-1s0-.7.3-1c.2-.3.4-.5.7-.7.3-.2.7-.3,1.1-.3s.6,0,.8,0c.3,0,.5.1.6.2v3.6c0,.5-.2.9-.5,1.2-.3.3-.8.4-1.3.4s-.7,0-.9-.1c-.2,0-.4-.2-.5-.3ZM386,72.5v-1.5s-.1,0-.2,0c-.1,0-.3,0-.5,0s-.5,0-.7.2c-.2.1-.4.3-.5.5-.1.2-.2.4-.2.7s0,.4.1.6c0,.2.2.3.4.4s.4.2.6.2.4,0,.6-.1c.2,0,.3-.2.3-.3,0-.1.1-.3.1-.4ZM389.3,74v-5.3h1.7c.5,0,.8,0,1.1.2.3.2.5.4.6.6.1.2.2.5.2.7s0,.6-.2.9-.4.5-.7.6l1.2,2.3h-.9l-1.1-2.2h-1.1v2.2h-.7ZM390,71.2h1c.3,0,.6,0,.8-.2.2-.2.3-.4.3-.7s0-.5-.3-.7c-.2-.2-.4-.2-.8-.2h-1v1.8ZM396.1,74v-.4c-.1.2-.3.3-.6.4-.2,0-.5.1-.7.1s-.4,0-.6-.1c-.2,0-.4-.2-.5-.4-.1-.2-.2-.4-.2-.7,0-.4.1-.7.4-1,.3-.2.7-.4,1.2-.4s.2,0,.4,0c.1,0,.2,0,.3,0,.1,0,.2,0,.2,0h0c0-.4,0-.6-.3-.7-.2-.1-.4-.2-.7-.2s-.5,0-.7.1c-.2,0-.3.2-.4.2l-.3-.5c.1-.1.3-.2.6-.3.2-.1.6-.2,1-.2s.9.1,1.1.4c.3.2.4.6.4,1v2.2h0c0,.2,0,.3,0,.3h-.7ZM396,72.7v-.4s0,0-.2,0c0,0-.2,0-.3,0-.1,0-.2,0-.3,0-.3,0-.5,0-.6.1-.1,0-.2.2-.3.3,0,.1,0,.2,0,.3,0,.2,0,.3.2.5.1.1.3.2.6.2s.4,0,.5-.1c.2,0,.3-.2.4-.3.1-.1.2-.3.2-.4ZM398,72.8v-1.9h-.7v-.6h.7v-1.2h.7v1.2h1.1v.6h-1.1v1.8c0,.3,0,.5.1.6,0,.1.2.2.4.2s.3,0,.3,0c0,0,.2-.1.3-.2l.3.4c-.2.1-.3.3-.5.3-.2,0-.4.1-.6.1-.4,0-.7-.1-.9-.3-.2-.2-.3-.6-.3-1ZM403.5,73l.4.4c0,0-.1.1-.3.3-.1.1-.3.2-.5.3-.2,0-.5.1-.8.1s-.7,0-1-.2c-.3-.2-.5-.4-.7-.7-.2-.3-.2-.7-.2-1s0-.7.2-1c.2-.3.4-.5.7-.7.3-.2.6-.3,1-.3s.8.1,1,.3c.3.2.5.5.6.8.1.3.2.7.2,1.1h-2.9c0,.2,0,.4.2.6.1.2.3.3.4.4.2,0,.4.1.6.1.3,0,.6,0,.8-.2.2-.1.4-.2.4-.3ZM401.1,71.8h2.2c0-.3-.1-.5-.3-.7-.2-.2-.4-.3-.8-.3s-.4,0-.6.2c-.2.1-.3.2-.4.4,0,.2-.1.3-.1.5ZM406.1,73.2l.5-.5c.1.1.2.2.4.3s.3.2.5.3c.2,0,.4.1.6.1.4,0,.6,0,.8-.2.2-.2.3-.4.3-.6s-.1-.5-.3-.7c-.2-.1-.5-.3-1-.4-.5,0-.8-.3-1.1-.5-.3-.3-.4-.6-.4-1s0-.5.2-.7c.1-.2.3-.4.6-.5.3-.1.6-.2,1-.2s.6,0,.9.1c.2,0,.4.2.5.3s.2.2.3.3l-.5.5c0,0-.1-.1-.2-.2-.1,0-.2-.2-.4-.2-.2,0-.3-.1-.6-.1s-.4,0-.6.1c-.1,0-.3.2-.3.3,0,.1-.1.2-.1.4,0,.3.1.5.3.6.2.1.5.2.9.3.3,0,.5.2.8.3.2.1.4.3.6.5.2.2.2.5.2.9s0,.6-.2.8c-.2.2-.4.4-.7.6-.3.1-.6.2-1,.2s-.6,0-.9-.1c-.3,0-.5-.2-.7-.4-.2-.1-.3-.3-.4-.4ZM410.8,72.5v-2.2h.7v2.2c0,.3,0,.6.2.8.1.2.4.2.6.2s.5,0,.6-.2c.2-.1.3-.3.3-.5,0-.2.1-.5.1-.7v-1.7h.7v3.5c0,0,0,.1,0,.2h-.7v-.6c0,0-.2.2-.3.3-.1,0-.2.2-.4.2-.2,0-.4.1-.6.1-.5,0-.8-.1-1.1-.4-.2-.3-.3-.7-.3-1.1ZM415.8,74h-.7v-3.4h0c0-.2,0-.3,0-.4h.7v.6c0,0,.2-.2.3-.3.1-.1.2-.2.4-.3s.4-.1.6-.1.2,0,.2,0c0,0,.1,0,.2,0l-.2.7c0,0-.2,0-.4,0s-.4,0-.6.2c-.2.1-.3.2-.4.4,0,.2-.1.4-.1.6v2ZM419.2,74l-1.6-3.7h.8l1.2,2.9,1.2-2.9h.8l-1.6,3.7h-.7ZM424.8,73l.4.4c0,0-.1.1-.3.3-.1.1-.3.2-.5.3-.2,0-.5.1-.8.1s-.7,0-1-.2c-.3-.2-.5-.4-.7-.7-.2-.3-.2-.7-.2-1s0-.7.2-1c.2-.3.4-.5.7-.7.3-.2.6-.3,1-.3s.8.1,1,.3c.3.2.5.5.6.8.1.3.2.7.2,1.1h-2.9c0,.2,0,.4.2.6.1.2.3.3.4.4.2,0,.4.1.6.1.3,0,.6,0,.8-.2.2-.1.4-.2.4-.3ZM422.4,71.8h2.2c0-.3-.1-.5-.3-.7-.2-.2-.4-.3-.8-.3s-.4,0-.6.2c-.2.1-.3.2-.4.4,0,.2-.1.3-.1.5ZM425.7,75.4l.3-.5c0,0,.1,0,.2.1,0,0,.2,0,.3,0,.2,0,.3,0,.4-.2,0-.1.2-.4.3-.7v-.2c0,0-1.6-3.7-1.6-3.7h.8l1.2,2.8,1.1-2.8h.8l-1.5,3.6c0,.2-.1.3-.2.6,0,.2-.2.4-.3.6-.1.2-.2.3-.4.5-.2.1-.3.2-.6.2s-.3,0-.5,0c-.1,0-.2-.1-.3-.2ZM430.9,72.1v-.7h4v.7h-4ZM436.7,73.2l.5-.5c.1.1.2.2.4.3.1.1.3.2.5.3.2,0,.4.1.6.1.4,0,.6,0,.8-.2.2-.2.3-.4.3-.6s-.1-.5-.3-.7c-.2-.1-.5-.3-1-.4-.5,0-.8-.3-1.1-.5-.3-.3-.4-.6-.4-1s0-.5.2-.7c.1-.2.3-.4.6-.5.3-.1.6-.2,1-.2s.6,0,.9.1c.2,0,.4.2.5.3.1.1.2.2.3.3l-.5.5c0,0-.1-.1-.2-.2-.1,0-.2-.2-.4-.2-.2,0-.3-.1-.6-.1s-.4,0-.6.1c-.1,0-.3.2-.3.3,0,.1-.1.2-.1.4,0,.3.1.5.3.6.2.1.5.2.9.3.3,0,.5.2.8.3.2.1.4.3.6.5.2.2.2.5.2.9s0,.6-.2.8c-.2.2-.4.4-.7.6-.3.1-.6.2-1,.2s-.6,0-.9-.1c-.3,0-.5-.2-.7-.4-.2-.1-.3-.3-.4-.4ZM441.7,74v-5.3h1.7c.5,0,.8,0,1.1.2.3.2.5.4.6.6.1.2.2.5.2.7s0,.6-.2.9-.4.5-.7.6l1.2,2.3h-.9l-1.1-2.2h-1.1v2.2h-.7ZM442.4,71.2h1c.3,0,.6,0,.8-.2.2-.2.3-.4.3-.7s0-.5-.3-.7c-.2-.2-.4-.2-.8-.2h-1v1.8ZM446.1,73.6l.4-.5c.1.1.3.2.5.3.2,0,.4.1.7.1.4,0,.6-.1.8-.3.2-.2.3-.5.3-.8s0-.3,0-.4c0-.2-.2-.3-.3-.4-.2-.1-.4-.2-.7-.2s-.4,0-.5,0c-.1,0-.2,0-.4.1l-.4-.3.5-2.4h2.5v.7h-2l-.2,1.3c0,0,.1,0,.3,0,.1,0,.3,0,.4,0,.5,0,.9.1,1.2.4.3.3.5.7.5,1.2s0,.6-.2.9c-.1.3-.3.5-.6.6-.3.2-.6.2-1.1.2s-.7,0-.9-.2c-.2-.1-.5-.2-.6-.4ZM452.3,74.1c-.4,0-.8-.1-1.1-.3-.3-.2-.5-.5-.6-.9-.1-.4-.2-.9-.2-1.4s0-1,.2-1.4c.1-.4.4-.7.6-.9.3-.2.6-.3,1.1-.3s.8.1,1,.3c.3.2.5.5.6.9.1.4.2.9.2,1.4s0,1-.2,1.4c-.1.4-.4.7-.7.9-.3.2-.6.3-1,.3ZM452.3,73.4c.3,0,.5,0,.6-.3s.3-.4.4-.7c0-.3.1-.7.1-1.1,0-.6-.1-1.1-.3-1.4s-.5-.5-.9-.5-.7.2-.9.5c-.2.4-.3.8-.3,1.4s0,.8.1,1.1c0,.3.2.5.4.7.2.2.4.3.6.3ZM456.5,74v-5.3h1.8c.4,0,.7,0,.9.2.2.1.4.3.5.5.1.2.2.4.2.7s0,.4-.1.6c0,.2-.2.3-.4.4-.1,0-.3.2-.4.2.1,0,.2,0,.4.1.1,0,.3.1.4.2.1,0,.2.2.3.4,0,.2.1.4.1.6,0,.4,0,.7-.3.9-.2.2-.4.4-.7.5-.3,0-.6.1-1,.1h-1.7ZM457.3,70.9h1c.2,0,.3,0,.5,0,.2,0,.3-.1.4-.3.1-.1.2-.3.2-.5s0-.4-.2-.5c0-.1-.2-.2-.4-.2-.1,0-.3,0-.5,0h-1v1.6ZM457.3,73.3h.9c.1,0,.3,0,.4,0,.1,0,.3,0,.4-.1.1,0,.2-.1.3-.3,0-.1.1-.3.1-.5s0-.4-.2-.6c-.1-.1-.3-.2-.5-.3-.2,0-.4,0-.6,0h-1v1.8ZM463.5,74v-.4c-.1.2-.3.3-.6.4-.2,0-.5.1-.7.1s-.4,0-.6-.1c-.2,0-.4-.2-.5-.4-.1-.2-.2-.4-.2-.7,0-.4.1-.7.4-1,.3-.2.7-.4,1.2-.4s.2,0,.4,0c.1,0,.2,0,.3,0,.1,0,.2,0,.2,0h0c0-.4,0-.6-.3-.7-.2-.1-.4-.2-.7-.2s-.5,0-.7.1c-.2,0-.3.2-.4.2l-.3-.5c.1-.1.3-.2.6-.3.2-.1.6-.2,1-.2s.8.1,1.1.4c.3.2.4.6.4,1v2.2h0c0,.2,0,.3,0,.3h-.7ZM463.5,72.7v-.4s0,0-.2,0c0,0-.2,0-.3,0-.1,0-.2,0-.3,0-.3,0-.5,0-.6.1-.1,0-.2.2-.3.3,0,.1,0,.2,0,.3,0,.2,0,.3.2.5.1.1.3.2.6.2s.4,0,.5-.1c.2,0,.3-.2.4-.3.1-.1.2-.3.2-.4ZM465.1,74v-5.3h.7v5.3h-.7ZM469.2,74v-.4c-.1.2-.3.3-.6.4-.2,0-.5.1-.7.1s-.4,0-.6-.1c-.2,0-.4-.2-.5-.4-.1-.2-.2-.4-.2-.7,0-.4.1-.7.4-1,.3-.2.7-.4,1.2-.4s.2,0,.4,0c.1,0,.2,0,.3,0,.1,0,.2,0,.2,0h0c0-.4,0-.6-.3-.7-.2-.1-.4-.2-.7-.2s-.5,0-.7.1c-.2,0-.3.2-.4.2l-.3-.5c.1-.1.3-.2.6-.3.2-.1.6-.2,1-.2s.9.1,1.1.4c.3.2.4.6.4,1v2.2h0c0,.2,0,.3,0,.3h-.7ZM469.1,72.7v-.4s0,0-.2,0c0,0-.2,0-.3,0-.1,0-.2,0-.3,0-.3,0-.5,0-.6.1-.1,0-.2.2-.3.3,0,.1,0,.2,0,.3,0,.2,0,.3.2.5.1.1.3.2.6.2s.4,0,.5-.1c.2,0,.3-.2.4-.3.1-.1.2-.3.2-.4ZM471.5,74h-.7v-3.3h0c0-.2,0-.3,0-.4h.7v.6c0,0,.2-.2.3-.3.1-.1.2-.2.4-.3.2,0,.4-.1.6-.1.5,0,.8.1,1.1.4.2.3.4.7.4,1.1v2.2h-.7v-2.2c0-.3,0-.6-.2-.8-.1-.2-.4-.2-.6-.2s-.5,0-.6.2c-.2.1-.3.3-.3.5,0,.2,0,.5,0,.7v1.7ZM478,73l.4.5c-.2.2-.4.3-.6.5-.2.1-.5.2-.8.2s-.7,0-1-.3c-.3-.2-.5-.4-.7-.7-.2-.3-.2-.6-.2-1s0-.7.2-1c.2-.3.4-.5.7-.7.3-.2.6-.3,1-.3s.6,0,.8.2.4.3.6.5l-.5.5c-.1-.1-.2-.2-.4-.3-.2,0-.4-.1-.6-.1s-.5,0-.7.2c-.2.1-.3.3-.4.5,0,.2-.1.4-.1.7s0,.4.1.7c.1.2.2.4.4.5.2.1.4.2.7.2s.4,0,.6-.1c.2,0,.3-.2.4-.3ZM481.9,73l.4.4c0,0-.1.1-.3.3-.1.1-.3.2-.5.3-.2,0-.5.1-.8.1s-.7,0-1-.2c-.3-.2-.5-.4-.7-.7-.2-.3-.2-.7-.2-1s0-.7.2-1c.2-.3.4-.5.7-.7.3-.2.6-.3,1-.3s.8.1,1,.3c.3.2.5.5.6.8.1.3.2.7.2,1.1h-2.9c0,.2,0,.4.2.6.1.2.3.3.4.4.2,0,.4.1.6.1.3,0,.6,0,.8-.2.2-.1.4-.2.4-.3ZM479.4,71.8h2.2c0-.3-.1-.5-.3-.7-.2-.2-.4-.3-.8-.3s-.4,0-.6.2c-.2.1-.3.2-.4.4,0,.2-.1.3-.1.5ZM485.9,74v-.5c0,0-.1.1-.2.2,0,0-.2.2-.4.3-.2,0-.4.1-.6.1s-.6,0-.8-.2c-.3-.2-.4-.4-.6-.7-.1-.3-.2-.6-.2-1s0-.7.2-.9c.1-.3.3-.5.5-.6.2-.2.4-.3.6-.4.2,0,.4-.1.6-.1s.4,0,.5,0c.1,0,.3.1.4.2v-1.8h.7v5.1c0,0,0,.1,0,.2h-.7ZM485.9,72.4v-1.3c0,0-.2-.1-.4-.2-.1,0-.3,0-.5,0-.3,0-.6.1-.9.4-.2.2-.3.6-.3,1s0,.5.1.6c0,.2.2.4.4.5.2.1.4.2.6.2s.4,0,.6-.2c.2-.1.3-.3.3-.4,0-.2.1-.3.1-.5ZM490.5,74.7h-.7c0-.2-.2-.4-.3-.7-.1-.3-.2-.7-.3-1.1,0-.4-.1-.9-.1-1.4s0-1,.1-1.4c0-.4.2-.8.3-1.1.1-.3.2-.5.3-.7h.7c-.1.2-.2.5-.3.8-.1.3-.2.7-.3,1.1,0,.4-.1.8-.1,1.3s0,.9.1,1.3c0,.4.2.8.3,1.1.1.3.2.6.3.8ZM494.7,69.2l-.3.6s-.1,0-.3-.1c-.2,0-.4-.1-.6-.1s-.6,0-.8.2c-.2.2-.4.4-.5.6-.1.3-.2.5-.2.8.1,0,.3-.2.5-.3.2,0,.4-.1.7-.1.5,0,.9.1,1.1.4.3.3.4.7.4,1.2s0,.6-.2.9c-.1.3-.3.4-.6.6-.3.1-.5.2-.9.2-.6,0-1-.2-1.3-.6-.3-.4-.5-1-.5-1.8s0-1.1.2-1.5c.2-.4.4-.8.7-1,.3-.2.7-.4,1.2-.4s.5,0,.7.1c.2,0,.4.2.5.2ZM492.1,71.8c0,.5,0,.9.2,1.2.2.3.4.4.8.4s.5,0,.7-.3c.2-.2.3-.5.3-.8s0-.5-.2-.7c-.1-.2-.4-.3-.7-.3s-.5,0-.6.1c-.2,0-.3.2-.5.3ZM497.4,74.1c-.4,0-.8-.1-1.1-.3-.3-.2-.5-.5-.6-.9-.1-.4-.2-.9-.2-1.4s0-1,.2-1.4c.1-.4.4-.7.6-.9.3-.2.6-.3,1.1-.3s.8.1,1,.3c.3.2.5.5.6.9.1.4.2.9.2,1.4s0,1-.2,1.4c-.1.4-.4.7-.7.9-.3.2-.6.3-1,.3ZM497.4,73.4c.3,0,.5,0,.6-.3s.3-.4.4-.7c0-.3.1-.7.1-1.1,0-.6-.1-1.1-.3-1.4s-.5-.5-.9-.5-.7.2-.9.5c-.2.4-.3.8-.3,1.4s0,.8.1,1.1c0,.3.2.5.4.7.2.2.4.3.6.3ZM500.1,72.1v-.7h2.3v.7h-2.3ZM505,74h-.8c.1-.4.3-.8.4-1.2.2-.4.3-.8.5-1.3.2-.4.4-.8.5-1.1.2-.3.3-.6.4-.8h-2.5v-.7h3.2v.7c0,.1-.2.4-.3.6s-.3.6-.4.9c-.1.3-.3.7-.4,1-.1.3-.3.7-.4,1s-.2.6-.3.9ZM511.3,69.2l-.3.6s-.1,0-.3-.1c-.2,0-.3-.1-.6-.1s-.6,0-.8.2c-.2.2-.4.4-.5.6-.1.3-.2.5-.2.8.1,0,.3-.2.5-.3.2,0,.4-.1.7-.1.5,0,.9.1,1.1.4.3.3.4.7.4,1.2s0,.6-.2.9c-.1.3-.3.4-.6.6-.2.1-.5.2-.9.2-.6,0-1-.2-1.3-.6-.3-.4-.5-1-.5-1.8s0-1.1.2-1.5c.2-.4.4-.8.7-1,.3-.2.7-.4,1.2-.4s.5,0,.7.1c.2,0,.4.2.5.2ZM508.7,71.8c0,.5,0,.9.2,1.2.2.3.4.4.8.4s.5,0,.7-.3c.2-.2.3-.5.3-.8s0-.5-.2-.7c-.1-.2-.4-.3-.7-.3s-.5,0-.6.1c-.2,0-.3.2-.5.3ZM512.1,68.4h.7c0,.2.2.4.3.7.1.3.2.7.3,1.1,0,.4.1.9.1,1.4s0,1-.1,1.4c0,.4-.2.8-.3,1.1-.1.3-.2.5-.3.7h-.7c.1-.2.2-.5.3-.8.1-.3.2-.7.3-1.1,0-.4.1-.9.1-1.3s0-.9-.1-1.3c0-.4-.2-.8-.3-1.1s-.2-.6-.3-.8ZM516.2,74v-5.3h.8v5.3h-.8ZM518.8,74h-.7v-3.3h0c0-.2,0-.3,0-.4h.7v.6c0,0,.2-.2.3-.3.1-.1.2-.2.4-.3.2,0,.4-.1.6-.1.5,0,.8.1,1.1.4.2.3.4.7.4,1.1v2.2h-.7v-2.2c0-.3,0-.6-.2-.8-.2-.2-.4-.2-.6-.2s-.5,0-.6.2c-.2.1-.3.3-.3.5,0,.2,0,.5,0,.7v1.7ZM525.1,74v-.5c0,0-.1.1-.2.2,0,0-.2.2-.4.3-.2,0-.4.1-.6.1s-.6,0-.8-.2c-.2-.2-.4-.4-.6-.7s-.2-.6-.2-1,0-.7.2-.9c.1-.3.3-.5.5-.6.2-.2.4-.3.6-.4.2,0,.4-.1.6-.1s.4,0,.5,0c.2,0,.3.1.4.2v-1.8h.7v5.1c0,0,0,.1,0,.2h-.7ZM525.1,72.4v-1.3c0,0-.2-.1-.4-.2-.1,0-.3,0-.5,0-.3,0-.6.1-.9.4-.2.2-.3.6-.3,1s0,.5.1.6c0,.2.2.4.4.5.2.1.4.2.6.2s.5,0,.6-.2c.2-.1.3-.3.3-.4,0-.2.1-.3.1-.5ZM529.8,73l.4.4c0,0-.2.1-.3.3-.1.1-.3.2-.5.3-.2,0-.5.1-.8.1s-.7,0-1-.2c-.3-.2-.5-.4-.7-.7-.2-.3-.2-.7-.2-1s0-.7.2-1c.2-.3.4-.5.7-.7.3-.2.6-.3,1-.3s.8.1,1,.3c.3.2.5.5.6.8.1.3.2.7.2,1.1h-2.9c0,.2,0,.4.2.6.1.2.3.3.4.4.2,0,.4.1.6.1.3,0,.6,0,.8-.2.2-.1.4-.2.4-.3ZM527.3,71.8h2.2c0-.3-.1-.5-.3-.7-.2-.2-.4-.3-.8-.3s-.4,0-.6.2c-.2.1-.3.2-.4.4,0,.2-.1.3-.1.5ZM530.6,74l1.4-1.9-1.3-1.8h.9l.9,1.2.9-1.2h.8l-1.3,1.7,1.5,2h-.9l-1-1.4-1,1.4h-.8ZM538.7,74v-.4c-.1.2-.3.3-.6.4-.2,0-.5.1-.7.1s-.4,0-.6-.1c-.2,0-.4-.2-.5-.4-.1-.2-.2-.4-.2-.7,0-.4.1-.7.4-1,.3-.2.7-.4,1.2-.4s.2,0,.4,0c.1,0,.2,0,.3,0,.1,0,.2,0,.2,0h0c0-.4,0-.6-.3-.7-.2-.1-.4-.2-.7-.2s-.5,0-.7.1c-.2,0-.3.2-.4.2l-.3-.5c.1-.1.3-.2.6-.3.2-.1.6-.2,1-.2s.9.1,1.1.4c.3.2.4.6.4,1v2.2h0c0,.2,0,.3,0,.3h-.7ZM538.7,72.7v-.4s0,0-.2,0c0,0-.2,0-.3,0-.1,0-.2,0-.3,0-.3,0-.5,0-.6.1-.1,0-.2.2-.3.3,0,.1,0,.2,0,.3,0,.2,0,.3.2.5.1.1.3.2.6.2s.4,0,.5-.1c.2,0,.3-.2.4-.3.1-.1.2-.3.2-.4ZM540.7,72.8v-1.9h-.7v-.6h.7v-1.2h.7v1.2h1.1v.6h-1.1v1.8c0,.3,0,.5.1.6,0,.1.2.2.4.2s.3,0,.3,0c0,0,.2-.1.3-.2l.3.4c-.2.1-.3.3-.5.3-.2,0-.4.1-.6.1-.4,0-.7-.1-.9-.3-.2-.2-.3-.6-.3-1ZM544.7,73.2l.5-.5c.1.1.2.2.4.3.1.1.3.2.5.3.2,0,.4.1.6.1.4,0,.6,0,.8-.2.2-.2.3-.4.3-.6s-.1-.5-.3-.7c-.2-.1-.5-.3-1-.4-.5,0-.8-.3-1.1-.5-.3-.3-.4-.6-.4-1s0-.5.2-.7c.1-.2.3-.4.6-.5.3-.1.6-.2,1-.2s.6,0,.9.1c.2,0,.4.2.5.3s.2.2.3.3l-.5.5c0,0-.1-.1-.2-.2-.1,0-.2-.2-.4-.2-.2,0-.3-.1-.6-.1s-.4,0-.6.1c-.1,0-.2.2-.3.3,0,.1-.1.2-.1.4,0,.3.1.5.3.6.2.1.5.2.9.3.3,0,.5.2.8.3.2.1.4.3.6.5.2.2.2.5.2.9s0,.6-.2.8c-.2.2-.4.4-.7.6-.3.1-.6.2-1,.2s-.6,0-.9-.1c-.3,0-.5-.2-.7-.4-.2-.1-.3-.3-.4-.4ZM552.4,73l.4.4c0,0-.1.1-.3.3-.1.1-.3.2-.5.3-.2,0-.5.1-.8.1s-.7,0-1-.2c-.3-.2-.5-.4-.7-.7-.2-.3-.2-.7-.2-1s0-.7.2-1c.2-.3.4-.5.7-.7.3-.2.6-.3,1-.3s.8.1,1,.3c.3.2.5.5.6.8.1.3.2.7.2,1.1h-2.9c0,.2,0,.4.2.6.1.2.3.3.4.4.2,0,.4.1.6.1.3,0,.6,0,.8-.2.2-.1.4-.2.4-.3ZM550,71.8h2.2c0-.3-.1-.5-.3-.7-.2-.2-.4-.3-.8-.3s-.4,0-.6.2c-.2.1-.3.2-.4.4,0,.2-.1.3-.1.5ZM554.4,75.6h-.7v-4.9h0c0-.2,0-.3,0-.4h.7v.5c0,0,.2-.1.3-.2.1,0,.2-.2.4-.3.2,0,.4-.1.6-.1.4,0,.7,0,.9.3.3.2.4.4.6.7.1.3.2.6.2,1s0,.6-.2.9c-.1.2-.3.4-.4.6-.2.2-.4.3-.6.4-.2,0-.4.1-.7.1s-.4,0-.6,0c-.1,0-.3-.1-.4-.2v1.7ZM554.4,72.2v1c0,0,.2.1.4.2.2,0,.4,0,.6,0s.5,0,.6-.2c.2-.1.3-.3.4-.5.1-.2.2-.4.2-.7s0-.5-.1-.7c0-.2-.2-.4-.3-.5-.2-.1-.4-.2-.6-.2s-.5,0-.7.2c-.2.1-.3.3-.4.6,0,0,0,.2,0,.3,0,0,0,.2,0,.3ZM558.5,72.8v-1.9h-.7v-.6h.7v-1.2h.7v1.2h1.1v.6h-1.1v1.8c0,.3,0,.5.1.6,0,.1.2.2.4.2s.3,0,.3,0c0,0,.2-.1.3-.2l.3.4c-.2.1-.3.3-.5.3-.2,0-.4.1-.6.1-.4,0-.7-.1-.9-.3-.2-.2-.3-.6-.3-1ZM562.8,74v-.5c0-.3,0-.5.2-.7.1-.2.3-.4.5-.6.2-.2.5-.4.7-.6s.4-.3.5-.5c.2-.1.3-.3.4-.4,0-.1.1-.3.1-.5s0-.2,0-.3c0-.1-.1-.2-.3-.3-.1,0-.3-.1-.5-.1s-.4,0-.5.1c-.1,0-.2.1-.3.2,0,0-.2.2-.2.3l-.5-.4c0-.1.2-.3.3-.4.1-.1.3-.3.5-.3.2,0,.5-.1.8-.1s.7,0,.9.2c.2.1.4.3.5.5.1.2.2.4.2.7s0,.5-.2.7c-.1.2-.2.4-.4.6-.2.2-.4.3-.5.5-.3.3-.6.5-.9.7-.2.2-.3.5-.3.7h2.4v.7h-3.2ZM568.7,74.1c-.4,0-.8-.1-1.1-.3-.3-.2-.5-.5-.6-.9-.1-.4-.2-.9-.2-1.4s0-1,.2-1.4c.1-.4.4-.7.6-.9.3-.2.6-.3,1.1-.3s.8.1,1,.3c.3.2.5.5.6.9.2.4.2.9.2,1.4s0,1-.2,1.4c-.1.4-.4.7-.7.9-.3.2-.6.3-1,.3ZM568.7,73.4c.3,0,.5,0,.6-.3.2-.2.3-.4.4-.7,0-.3.1-.7.1-1.1,0-.6-.1-1.1-.3-1.4-.2-.4-.5-.5-.9-.5s-.7.2-.9.5c-.2.4-.3.8-.3,1.4s0,.8.1,1.1c0,.3.2.5.4.7.2.2.4.3.6.3ZM571.5,74v-.5c0-.3,0-.5.2-.7.1-.2.3-.4.5-.6.2-.2.5-.4.7-.6.2-.2.4-.3.5-.5.2-.1.3-.3.4-.4,0-.1.1-.3.1-.5s0-.2,0-.3c0-.1-.1-.2-.3-.3-.1,0-.3-.1-.5-.1s-.4,0-.5.1c-.1,0-.2.1-.3.2,0,0-.2.2-.2.3l-.5-.4c0-.1.2-.3.3-.4.1-.1.3-.3.5-.3.2,0,.5-.1.8-.1s.7,0,.9.2c.2.1.4.3.5.5.1.2.2.4.2.7s0,.5-.2.7c-.1.2-.2.4-.4.6-.2.2-.4.3-.5.5-.3.3-.6.5-.9.7-.2.2-.3.5-.3.7h2.4v.7h-3.2ZM575.6,73.6l.4-.5c.1.1.3.2.5.3.2,0,.4.1.7.1.4,0,.7-.1.8-.3.2-.2.3-.5.3-.8s0-.3,0-.4c0-.2-.2-.3-.3-.4-.2-.1-.4-.2-.7-.2s-.4,0-.5,0c-.1,0-.2,0-.4.1l-.4-.3.5-2.4h2.5v.7h-2l-.2,1.3c0,0,.1,0,.3,0,.1,0,.3,0,.4,0,.5,0,.9.1,1.2.4.3.3.5.7.5,1.2s0,.6-.2.9c-.1.3-.3.5-.6.6-.3.2-.6.2-1.1.2s-.7,0-.9-.2c-.2-.1-.5-.2-.6-.4ZM580.2,74v-.9h.9v.9h-.9ZM586.5,72v-.7h1.9v2.1c-.2.2-.5.3-.8.5-.3.1-.8.2-1.3.2s-1-.1-1.4-.4c-.4-.2-.7-.6-.9-1-.2-.4-.3-.9-.3-1.4s0-.8.2-1.1c.1-.3.3-.6.5-.9.2-.3.5-.5.8-.6.3-.1.7-.2,1.1-.2s.7,0,1,.2c.3.1.5.3.7.4.2.2.3.3.4.5l-.5.5c0-.1-.2-.2-.3-.4-.1-.1-.3-.2-.5-.3-.2,0-.4-.1-.7-.1-.4,0-.7,0-1,.3-.3.2-.5.4-.7.8-.1.3-.2.7-.2,1.1s0,.8.2,1.1c.2.3.4.6.7.7.3.2.6.3,1,.3s.6,0,.8-.1c.2,0,.4-.2.6-.3v-1.1h-1.1ZM592.4,73l.4.4c0,0-.2.1-.3.3-.1.1-.3.2-.5.3-.2,0-.5.1-.8.1s-.7,0-1-.2c-.3-.2-.5-.4-.7-.7-.2-.3-.2-.7-.2-1s0-.7.2-1c.2-.3.4-.5.7-.7.3-.2.6-.3,1-.3s.8.1,1,.3c.3.2.5.5.6.8.1.3.2.7.2,1.1h-2.9c0,.2,0,.4.2.6.1.2.3.3.4.4.2,0,.4.1.6.1.3,0,.6,0,.8-.2.2-.1.4-.2.4-.3ZM589.9,71.8h2.2c0-.3-.1-.5-.3-.7-.2-.2-.4-.3-.8-.3s-.4,0-.6.2c-.2.1-.3.2-.4.4,0,.2-.1.3-.1.5ZM594.4,74h-.7v-3.3h0c0-.2,0-.3,0-.4h.7v.6c0,0,.2-.2.3-.3.1-.1.2-.2.4-.3.2,0,.4-.1.6-.1.5,0,.8.1,1.1.4.2.3.4.7.4,1.1v2.2h-.7v-2.2c0-.3,0-.6-.2-.8-.2-.2-.4-.2-.6-.2s-.5,0-.6.2c-.2.1-.3.3-.3.5,0,.2,0,.5,0,.7v1.7ZM601,73l.4.4c0,0-.1.1-.3.3-.1.1-.3.2-.5.3-.2,0-.5.1-.8.1s-.7,0-1-.2c-.3-.2-.5-.4-.7-.7-.2-.3-.2-.7-.2-1s0-.7.2-1c.2-.3.4-.5.7-.7.3-.2.6-.3,1-.3s.8.1,1,.3c.3.2.5.5.6.8.1.3.2.7.2,1.1h-2.9c0,.2,0,.4.2.6.1.2.3.3.4.4.2,0,.4.1.6.1.3,0,.6,0,.8-.2.2-.1.4-.2.4-.3ZM598.6,71.8h2.2c0-.3-.1-.5-.3-.7-.2-.2-.4-.3-.8-.3s-.4,0-.6.2c-.2.1-.3.2-.4.4,0,.2-.1.3-.1.5ZM603,74h-.7v-3.4h0c0-.2,0-.3,0-.4h.7v.6c0,0,.2-.2.3-.3.1-.1.2-.2.4-.3s.4-.1.6-.1.2,0,.2,0c0,0,.1,0,.2,0l-.2.7c0,0-.2,0-.4,0s-.4,0-.6.2c-.2.1-.3.2-.4.4s-.1.4-.1.6v2ZM607.5,74v-.4c-.1.2-.3.3-.6.4-.2,0-.5.1-.7.1s-.4,0-.6-.1c-.2,0-.4-.2-.5-.4-.1-.2-.2-.4-.2-.7,0-.4.1-.7.4-1,.3-.2.7-.4,1.2-.4s.2,0,.4,0c.1,0,.2,0,.3,0,.1,0,.2,0,.2,0h0c0-.4,0-.6-.3-.7-.2-.1-.4-.2-.7-.2s-.5,0-.7.1c-.2,0-.3.2-.4.2l-.3-.5c.1-.1.3-.2.6-.3.2-.1.6-.2,1-.2s.9.1,1.1.4c.3.2.4.6.4,1v2.2h0c0,.2,0,.3,0,.3h-.7ZM607.4,72.7v-.4s0,0-.2,0c0,0-.2,0-.3,0-.1,0-.2,0-.3,0-.3,0-.5,0-.6.1-.1,0-.2.2-.3.3,0,.1,0,.2,0,.3,0,.2,0,.3.2.5.1.1.3.2.6.2s.4,0,.5-.1c.2,0,.3-.2.4-.3.1-.1.2-.3.2-.4ZM609.1,74v-5.3h.7v5.3h-.7ZM614.6,74v-.4c-.1.2-.3.3-.6.4-.2,0-.5.1-.7.1s-.4,0-.6-.1c-.2,0-.4-.2-.5-.4-.1-.2-.2-.4-.2-.7,0-.4.1-.7.4-1s.7-.4,1.2-.4.2,0,.4,0c.1,0,.2,0,.3,0,.1,0,.2,0,.2,0h0c0-.4,0-.6-.3-.7-.2-.1-.4-.2-.7-.2s-.5,0-.7.1c-.2,0-.3.2-.4.2l-.3-.5c.1-.1.3-.2.6-.3.2-.1.6-.2,1-.2s.9.1,1.1.4c.3.2.4.6.4,1v2.2h0c0,.2,0,.3,0,.3h-.7ZM614.6,72.7v-.4s0,0-.2,0c0,0-.2,0-.3,0-.1,0-.2,0-.3,0-.3,0-.5,0-.6.1-.1,0-.2.2-.3.3,0,.1,0,.2,0,.3,0,.2,0,.3.2.5.1.1.3.2.6.2s.4,0,.5-.1c.2,0,.3-.2.4-.3.1-.1.2-.3.2-.4ZM618.9,74v-.5c0,0-.1.1-.2.2,0,0-.2.2-.4.3-.2,0-.4.1-.6.1s-.6,0-.8-.2c-.3-.2-.4-.4-.6-.7-.1-.3-.2-.6-.2-1s0-.7.2-.9c.1-.3.3-.5.5-.6.2-.2.4-.3.6-.4.2,0,.4-.1.6-.1s.4,0,.5,0c.1,0,.3.1.4.2v-1.8h.7v5.1c0,0,0,.1,0,.2h-.7ZM618.9,72.4v-1.3c0,0-.2-.1-.4-.2s-.3,0-.5,0c-.3,0-.6.1-.9.4-.2.2-.3.6-.3,1s0,.5.1.6c0,.2.2.4.4.5.2.1.4.2.6.2s.5,0,.6-.2c.2-.1.3-.3.3-.4,0-.2.1-.3.1-.5ZM621.8,74l-1.6-3.7h.8l1.2,2.9,1.2-2.9h.8l-1.6,3.7h-.7ZM624.6,69.6v-.8h.8v.8h-.8ZM624.7,74v-3.7h.7v3.7h-.7ZM629.2,73l.4.5c-.2.2-.4.3-.6.5-.2.1-.5.2-.8.2s-.7,0-1-.3c-.3-.2-.5-.4-.7-.7-.2-.3-.2-.6-.2-1s0-.7.2-1c.2-.3.4-.5.7-.7.3-.2.6-.3,1-.3s.6,0,.8.2c.2.1.4.3.6.5l-.5.5c-.1-.1-.2-.2-.4-.3-.2,0-.3-.1-.6-.1s-.5,0-.7.2c-.2.1-.3.3-.4.5,0,.2-.1.4-.1.7s0,.4.1.7c.1.2.2.4.4.5.2.1.4.2.7.2s.4,0,.6-.1c.2,0,.3-.2.4-.3ZM633.1,73l.4.4c0,0-.1.1-.3.3-.1.1-.3.2-.5.3-.2,0-.5.1-.8.1s-.7,0-1-.2c-.3-.2-.5-.4-.7-.7-.2-.3-.2-.7-.2-1s0-.7.2-1c.2-.3.4-.5.7-.7.3-.2.6-.3,1-.3s.8.1,1,.3c.3.2.5.5.6.8.1.3.2.7.2,1.1h-2.9c0,.2,0,.4.2.6.1.2.3.3.4.4.2,0,.4.1.6.1.3,0,.6,0,.8-.2.2-.1.4-.2.4-.3ZM630.7,71.8h2.2c0-.3-.1-.5-.3-.7-.2-.2-.4-.3-.8-.3s-.4,0-.6.2c-.2.1-.3.2-.4.4,0,.2-.1.3-.1.5ZM637.7,74.1c-.4,0-.7,0-1-.3-.3-.2-.5-.4-.7-.7-.2-.3-.2-.6-.2-1s0-.7.2-1c.2-.3.4-.5.7-.7.3-.2.6-.3,1-.3s.7,0,1,.3c.3.2.5.4.7.7.2.3.3.6.3,1s0,.7-.3,1c-.2.3-.4.5-.7.7-.3.2-.6.3-1,.3ZM637.7,73.5c.3,0,.5,0,.7-.2.2-.1.3-.3.4-.5.1-.2.2-.4.2-.6s0-.4-.2-.6c0-.2-.2-.4-.4-.5-.2-.1-.4-.2-.7-.2s-.5,0-.7.2c-.2.1-.3.3-.4.5,0,.2-.1.4-.1.6s0,.4.2.6c.1.2.2.4.4.5.2.1.4.2.7.2ZM641.2,74h-.7v-3.3h0c0-.2,0-.3,0-.4h.7v.6c0,0,.2-.2.3-.3.1-.1.2-.2.4-.3.2,0,.4-.1.6-.1.5,0,.8.1,1.1.4.2.3.4.7.4,1.1v2.2h-.7v-2.2c0-.3,0-.6-.2-.8-.1-.2-.4-.2-.6-.2s-.5,0-.6.2c-.2.1-.3.3-.3.5,0,.2,0,.5,0,.7v1.7ZM644.8,74v-5.3h.7v5.3h-.7ZM646.2,75.4l.3-.5c0,0,.1,0,.2.1,0,0,.2,0,.3,0,.2,0,.3,0,.4-.2,0-.1.2-.4.3-.7v-.2c0,0-1.6-3.7-1.6-3.7h.8l1.2,2.8,1.1-2.8h.8l-1.5,3.6c0,.2-.1.3-.2.6,0,.2-.2.4-.3.6-.1.2-.2.3-.4.5-.2.1-.4.2-.6.2s-.3,0-.5,0c-.1,0-.2-.1-.3-.2ZM649.9,74v-.9h.9v.9h-.9ZM657.4,72.6l.5.4c0,.1-.2.3-.4.4-.2.2-.4.3-.7.4-.3.1-.6.2-1,.2s-1-.1-1.4-.4c-.4-.2-.7-.6-.9-1-.2-.4-.3-.9-.3-1.4s0-.8.2-1.1c.1-.3.3-.6.5-.9.2-.3.5-.5.8-.6.3-.1.7-.2,1.1-.2s.7,0,1,.2c.3.1.5.3.7.4.2.2.3.3.4.5l-.5.5c0-.1-.2-.2-.3-.4-.1-.1-.3-.2-.5-.3-.2,0-.4-.1-.7-.1s-.7,0-1,.3c-.3.2-.5.4-.6.8-.1.3-.2.7-.2,1.1s0,.7.2,1c.2.3.4.6.6.8.3.2.6.3,1,.3s.6,0,.8-.2c.2-.1.4-.2.5-.3.1-.1.2-.2.3-.3ZM660.4,74.1c-.4,0-.7,0-1-.3-.3-.2-.5-.4-.7-.7-.2-.3-.2-.6-.2-1s0-.7.2-1c.2-.3.4-.5.7-.7.3-.2.6-.3,1-.3s.7,0,1,.3c.3.2.5.4.7.7.2.3.3.6.3,1s0,.7-.3,1c-.2.3-.4.5-.7.7-.3.2-.6.3-1,.3ZM660.4,73.5c.3,0,.5,0,.7-.2.2-.1.3-.3.4-.5.1-.2.2-.4.2-.6s0-.4-.2-.6c0-.2-.2-.4-.4-.5-.2-.1-.4-.2-.7-.2s-.5,0-.7.2c-.2.1-.3.3-.4.5,0,.2-.1.4-.1.6s0,.4.2.6c.1.2.2.4.4.5.2.1.4.2.7.2ZM663.9,74h-.7v-3.3h0c0-.2,0-.3,0-.4h.7v.6c0,0,.2-.2.3-.3.1-.1.2-.2.4-.3.2,0,.4-.1.6-.1.5,0,.8.1,1.1.4.2.3.4.7.4,1.1v2.2h-.7v-2.2c0-.3,0-.6-.2-.8-.2-.2-.4-.2-.6-.2s-.5,0-.6.2c-.2.1-.3.3-.3.5,0,.2,0,.5,0,.7v1.7ZM667.3,73.5l.4-.5c.1.1.3.2.5.3.2,0,.4.1.6.1s.4,0,.6-.1c.2,0,.2-.2.2-.4s0-.2,0-.3c0,0-.2-.1-.3-.2-.2,0-.4-.1-.6-.2-.2,0-.4-.1-.6-.2-.2,0-.3-.2-.4-.3-.1-.1-.2-.3-.2-.6s0-.4.2-.6c.1-.2.3-.3.6-.4.2,0,.5-.1.7-.1s.6,0,.8.1c.2,0,.4.2.6.3l-.4.5c-.1-.1-.3-.2-.4-.3-.2,0-.4-.1-.6-.1s-.4,0-.6.1c-.1,0-.2.2-.2.4s0,.3.3.4c.2,0,.4.1.7.2.2,0,.4.1.6.2.2,0,.3.2.5.4.1.1.2.3.2.6s0,.5-.2.6c-.1.2-.3.3-.6.4-.2,0-.5.1-.8.1-.7,0-1.2-.2-1.6-.6ZM671.3,69.6v-.8h.8v.8h-.8ZM671.3,74v-3.7h.7v3.7h-.7ZM675.8,74v-.5c0,0-.1.1-.2.2,0,0-.2.2-.4.3-.2,0-.4.1-.6.1s-.6,0-.8-.2c-.2-.2-.4-.4-.6-.7s-.2-.6-.2-1,0-.7.2-.9c.1-.3.3-.5.5-.6.2-.2.4-.3.6-.4.2,0,.4-.1.6-.1s.4,0,.5,0c.2,0,.3.1.4.2v-1.8h.7v5.1c0,0,0,.1,0,.2h-.7ZM675.8,72.4v-1.3c0,0-.2-.1-.4-.2-.1,0-.3,0-.5,0-.3,0-.6.1-.9.4-.2.2-.3.6-.3,1s0,.5.1.6c0,.2.2.4.4.5.2.1.4.2.6.2s.5,0,.6-.2c.2-.1.3-.3.3-.4,0-.2.1-.3.1-.5ZM680.5,73l.4.4c0,0-.2.1-.3.3-.1.1-.3.2-.5.3-.2,0-.5.1-.8.1s-.7,0-1-.2c-.3-.2-.5-.4-.7-.7-.2-.3-.2-.7-.2-1s0-.7.2-1c.2-.3.4-.5.7-.7.3-.2.6-.3,1-.3s.8.1,1,.3c.3.2.5.5.6.8.1.3.2.7.2,1.1h-2.9c0,.2,0,.4.2.6.1.2.3.3.4.4.2,0,.4.1.6.1.3,0,.6,0,.8-.2.2-.1.4-.2.4-.3ZM678,71.8h2.2c0-.3-.1-.5-.3-.7-.2-.2-.4-.3-.8-.3s-.4,0-.6.2c-.2.1-.3.2-.4.4,0,.2-.1.3-.1.5ZM682.5,74h-.7v-3.4h0c0-.2,0-.3,0-.4h.7v.6c0,0,.2-.2.3-.3.1-.1.2-.2.4-.3.2,0,.4-.1.6-.1s.2,0,.2,0c0,0,.1,0,.2,0l-.2.7c0,0-.2,0-.4,0s-.4,0-.6.2c-.2.1-.3.2-.4.4s-.1.4-.1.6v2ZM686.4,72.8v-1.9h-.7v-.6h.7v-1.2h.7v1.2h1.1v.6h-1.1v1.8c0,.3,0,.5.1.6,0,.1.2.2.4.2s.3,0,.3,0c0,0,.2-.1.3-.2l.3.4c-.2.1-.3.3-.5.3-.2,0-.4.1-.6.1-.4,0-.7-.1-.9-.3-.2-.2-.3-.6-.3-1ZM689.2,74v-5.3h.7v2.2c0,0,.1-.2.2-.3.1-.1.2-.2.4-.3.2,0,.4-.1.6-.1.5,0,.8.1,1.1.4.2.3.4.7.4,1.1v2.2h-.7v-2.2c0-.3,0-.6-.2-.8-.1-.2-.4-.2-.6-.2s-.5,0-.6.2c-.2.1-.3.3-.3.5,0,.2,0,.5,0,.7v1.7h-.7ZM696.5,73l.4.4c0,0-.1.1-.3.3-.1.1-.3.2-.5.3-.2,0-.5.1-.8.1s-.7,0-1-.2c-.3-.2-.5-.4-.7-.7-.2-.3-.2-.7-.2-1s0-.7.2-1c.2-.3.4-.5.7-.7.3-.2.6-.3,1-.3s.8.1,1,.3c.3.2.5.5.6.8.1.3.2.7.2,1.1h-2.9c0,.2,0,.4.2.6.1.2.3.3.4.4.2,0,.4.1.6.1.3,0,.6,0,.8-.2.2-.1.4-.2.4-.3ZM694.1,71.8h2.2c0-.3-.1-.5-.3-.7-.2-.2-.4-.3-.8-.3s-.4,0-.6.2c-.2.1-.3.2-.4.4,0,.2-.1.3-.1.5ZM699.4,74v-5.3h1.7c.4,0,.7,0,.9.2.2,0,.4.2.6.4.1.2.2.3.3.5,0,.2,0,.4,0,.6,0,.4,0,.7-.2.9-.2.2-.4.4-.6.5-.3.1-.6.2-.9.2h-1v2.1h-.8ZM700.1,71.2h1c.3,0,.6,0,.8-.3.2-.2.3-.4.3-.7s0-.5-.3-.7c-.2-.2-.4-.3-.8-.3h-1v1.9ZM703.9,74v-5.3h1.8c.6,0,1.1,0,1.5.3.4.2.8.5,1,.9.2.4.4.9.4,1.5s-.1,1.1-.4,1.5c-.2.4-.6.7-1,.9-.4.2-.9.3-1.5.3h-1.8ZM704.7,73.3h1c.7,0,1.2-.2,1.6-.5.4-.3.6-.8.6-1.5s-.2-1.1-.5-1.5c-.4-.3-.9-.5-1.6-.5h-1v4ZM709.3,73.2l.5-.5c.1.1.2.2.4.3.1.1.3.2.5.3.2,0,.4.1.6.1.4,0,.6,0,.8-.2.2-.2.3-.4.3-.6s-.1-.5-.3-.7c-.2-.1-.5-.3-1-.4-.5,0-.8-.3-1.1-.5-.3-.3-.4-.6-.4-1s0-.5.2-.7c.1-.2.3-.4.6-.5.3-.1.6-.2,1-.2s.6,0,.9.1c.2,0,.4.2.5.3s.2.2.3.3l-.5.5c0,0-.1-.1-.2-.2-.1,0-.2-.2-.4-.2-.2,0-.3-.1-.6-.1s-.4,0-.6.1c-.1,0-.2.2-.3.3,0,.1-.1.2-.1.4,0,.3.1.5.3.6.2.1.5.2.9.3.3,0,.5.2.8.3.2.1.4.3.6.5.2.2.2.5.2.9s0,.6-.2.8c-.2.2-.4.4-.7.6-.3.1-.6.2-1,.2s-.6,0-.9-.1c-.3,0-.5-.2-.7-.4-.2-.1-.3-.3-.4-.4ZM76.9,82v-.4c-.1.2-.3.3-.6.4-.2,0-.5.1-.7.1s-.4,0-.6-.1c-.2,0-.4-.2-.5-.4-.1-.2-.2-.4-.2-.7,0-.4.1-.7.4-1,.3-.2.7-.4,1.2-.4s.2,0,.4,0c.1,0,.2,0,.3,0,.1,0,.2,0,.2,0h0c0-.4,0-.6-.3-.7-.2-.1-.4-.2-.7-.2s-.5,0-.7.1c-.2,0-.3.2-.4.2l-.3-.5c.1-.1.3-.2.6-.3.2-.1.6-.2,1-.2s.9.1,1.1.4c.3.2.4.6.4,1v2.2h0c0,.2,0,.3,0,.3h-.7ZM76.9,80.7v-.4s0,0-.2,0c0,0-.2,0-.3,0-.1,0-.2,0-.3,0-.3,0-.5,0-.6.1-.1,0-.2.2-.3.3,0,.1,0,.2,0,.3,0,.2,0,.3.2.5.1.1.3.2.6.2s.4,0,.5-.1c.2,0,.3-.2.4-.3.1-.1.2-.3.2-.4ZM79.2,82h-.7v-3.3h0c0-.2,0-.3,0-.4h.7v.6c0,0,.2-.2.3-.3.1-.1.2-.2.4-.3.2,0,.4-.1.6-.1.5,0,.8.1,1.1.4.2.3.4.7.4,1.1v2.2h-.7v-2.2c0-.3,0-.6-.2-.8-.1-.2-.4-.2-.6-.2s-.5,0-.6.2c-.2.1-.3.3-.3.5,0,.2,0,.5,0,.7v1.7ZM85.6,82v-.5c0,0-.1.1-.2.2,0,0-.2.2-.4.3-.2,0-.4.1-.6.1s-.6,0-.8-.2c-.3-.2-.4-.4-.6-.7-.1-.3-.2-.6-.2-1s0-.7.2-.9c.1-.3.3-.5.5-.6.2-.2.4-.3.6-.4.2,0,.4-.1.6-.1s.4,0,.5,0c.1,0,.3.1.4.2v-1.8h.7v5.1c0,0,0,.1,0,.2h-.7ZM85.6,80.4v-1.3c0,0-.2-.1-.4-.2-.1,0-.3,0-.5,0-.3,0-.6.1-.9.4-.2.2-.3.6-.3,1s0,.5.1.6c0,.2.2.4.4.5.2.1.4.2.6.2s.5,0,.6-.2c.2-.1.3-.3.3-.4,0-.2.1-.3.1-.5ZM90.3,82v-4.7h-1.9v-.7h4.6v.7h-1.9v4.7h-.8ZM93.7,82l.2-5.3h.7l1.6,2.8,1.6-2.8h.7l.2,5.3h-.8l-.2-4.1-1.5,2.5h-.4l-1.5-2.5-.2,4.1h-.7ZM100,82v-5.3h1.8c.6,0,1.1,0,1.5.3.4.2.8.5,1,.9.3.4.4.9.4,1.5s-.1,1.1-.4,1.5c-.2.4-.6.7-1,.9-.4.2-.9.3-1.5.3h-1.8ZM100.8,81.3h1c.7,0,1.2-.2,1.6-.5.4-.3.6-.8.6-1.5s-.2-1.1-.5-1.5c-.4-.3-.9-.5-1.6-.5h-1v4ZM109.4,82v-.4c-.1.2-.3.3-.6.4-.2,0-.5.1-.7.1s-.4,0-.6-.1c-.2,0-.4-.2-.5-.4-.1-.2-.2-.4-.2-.7,0-.4.1-.7.4-1,.3-.2.7-.4,1.2-.4s.2,0,.4,0c.1,0,.2,0,.3,0,.1,0,.2,0,.2,0h0c0-.4,0-.6-.3-.7-.2-.1-.4-.2-.7-.2s-.5,0-.7.1c-.2,0-.3.2-.4.2l-.3-.5c.1-.1.3-.2.6-.3s.6-.2,1-.2.9.1,1.1.4c.3.2.4.6.4,1v2.2h0c0,.2,0,.3,0,.3h-.7ZM109.4,80.7v-.4s0,0-.2,0c0,0-.2,0-.3,0-.1,0-.2,0-.3,0-.3,0-.5,0-.6.1-.1,0-.2.2-.3.3,0,.1,0,.2,0,.3,0,.2,0,.3.2.5s.3.2.6.2.4,0,.5-.1c.2,0,.3-.2.4-.3.1-.1.2-.3.2-.4ZM111.3,80.8v-1.9h-.7v-.6h.7v-1.2h.7v1.2h1.1v.6h-1.1v1.8c0,.3,0,.5.1.6,0,.1.2.2.4.2s.3,0,.3,0c0,0,.2-.1.3-.2l.3.4c-.2.1-.3.3-.5.3-.2,0-.4.1-.6.1-.4,0-.7-.1-.9-.3-.2-.2-.3-.6-.3-1ZM115.5,82v-5.3h.7v2.2c0,0,.1-.2.2-.3.1-.1.2-.2.4-.3.2,0,.4-.1.6-.1.5,0,.8.1,1.1.4.2.3.4.7.4,1.1v2.2h-.7v-2.2c0-.3,0-.6-.2-.8-.1-.2-.4-.2-.6-.2s-.5,0-.6.2c-.2.1-.3.3-.3.5,0,.2,0,.5,0,.7v1.7h-.7ZM121.7,82.1c-.4,0-.7,0-1-.3-.3-.2-.5-.4-.7-.7-.2-.3-.2-.6-.2-1s0-.7.2-1c.2-.3.4-.5.7-.7.3-.2.6-.3,1-.3s.7,0,1,.3c.3.2.5.4.7.7.2.3.3.6.3,1s0,.7-.3,1c-.2.3-.4.5-.7.7-.3.2-.6.3-1,.3ZM121.7,81.5c.3,0,.5,0,.7-.2.2-.1.3-.3.4-.5.1-.2.2-.4.2-.6s0-.4-.2-.6c0-.2-.2-.4-.4-.5-.2-.1-.4-.2-.7-.2s-.5,0-.7.2c-.2.1-.3.3-.4.5,0,.2-.1.4-.1.6s0,.4.2.6c.1.2.2.4.4.5.2.1.4.2.7.2ZM124.3,81.5l.4-.5c.1.1.3.2.5.3.2,0,.4.1.6.1s.4,0,.6-.1c.2,0,.2-.2.2-.4s0-.2,0-.3c0,0-.2-.1-.3-.2-.2,0-.4-.1-.6-.2-.2,0-.4-.1-.6-.2-.2,0-.3-.2-.4-.3-.1-.1-.2-.3-.2-.6s0-.4.2-.6c.1-.2.3-.3.6-.4.2,0,.5-.1.7-.1s.6,0,.8.1c.2,0,.4.2.6.3l-.4.5c-.1-.1-.3-.2-.4-.3-.2,0-.4-.1-.6-.1s-.4,0-.6.1c-.1,0-.2.2-.2.4s0,.3.3.4c.2,0,.4.1.7.2.2,0,.4.1.6.2.2,0,.3.2.5.4.1.1.2.3.2.6s0,.5-.2.6c-.1.2-.3.3-.6.4-.2,0-.5.1-.8.1-.7,0-1.2-.2-1.6-.6ZM128.6,80.8v-1.9h-.7v-.6h.7v-1.2h.7v1.2h1.1v.6h-1.1v1.8c0,.3,0,.5.1.6,0,.1.2.2.4.2s.3,0,.3,0c0,0,.2-.1.3-.2l.3.4c-.2.1-.3.3-.5.3-.2,0-.4.1-.6.1-.4,0-.7-.1-.9-.3-.2-.2-.3-.6-.3-1ZM132,83.6h-.7v-4.9h0c0-.2,0-.3,0-.4h.7v.5c0,0,.2-.1.3-.2.1,0,.2-.2.4-.3.2,0,.4-.1.6-.1.4,0,.7,0,.9.3.2.2.4.4.6.7.1.3.2.6.2,1s0,.6-.2.9c-.1.2-.3.4-.4.6-.2.2-.4.3-.6.4-.2,0-.4.1-.7.1s-.5,0-.6,0c-.2,0-.3-.1-.4-.2v1.7ZM132,80.2v1c0,0,.2.1.4.2.2,0,.4,0,.6,0s.5,0,.6-.2c.2-.1.3-.3.4-.5.1-.2.2-.4.2-.7s0-.5-.1-.7c0-.2-.2-.4-.3-.5-.2-.1-.4-.2-.6-.2s-.5,0-.7.2c-.2.1-.3.3-.4.6,0,0,0,.2,0,.3,0,0,0,.2,0,.3ZM135.8,82v-5.3h.7v5.3h-.7ZM137.4,80.5v-2.2h.7v2.2c0,.3,0,.6.2.8.1.2.4.2.6.2s.5,0,.6-.2c.2-.1.3-.3.3-.5,0-.2.1-.5.1-.7v-1.7h.7v3.5c0,0,0,.1,0,.2h-.7v-.6c0,0-.2.2-.3.3-.1,0-.2.2-.4.2-.2,0-.4.1-.6.1-.5,0-.8-.1-1.1-.4-.2-.3-.3-.7-.3-1.1ZM141.6,81.5l.4-.5c.1.1.3.2.5.3.2,0,.4.1.6.1s.4,0,.6-.1c.2,0,.2-.2.2-.4s0-.2,0-.3c0,0-.2-.1-.3-.2-.2,0-.4-.1-.6-.2-.2,0-.4-.1-.6-.2-.2,0-.3-.2-.4-.3-.1-.1-.2-.3-.2-.6s0-.4.2-.6c.1-.2.3-.3.6-.4.2,0,.5-.1.7-.1s.6,0,.8.1c.2,0,.4.2.6.3l-.4.5c-.1-.1-.3-.2-.4-.3-.2,0-.4-.1-.6-.1s-.4,0-.6.1c-.1,0-.2.2-.2.4s0,.3.3.4c.2,0,.4.1.7.2.2,0,.4.1.6.2.2,0,.3.2.5.4.1.1.2.3.2.6s0,.5-.2.6c-.1.2-.3.3-.6.4-.2,0-.5.1-.8.1-.7,0-1.2-.2-1.6-.6ZM145.4,82v-.9h.9v.9h-.9ZM149.9,81l.4.5c-.2.2-.4.3-.6.5-.2.1-.5.2-.8.2s-.7,0-1-.3c-.3-.2-.5-.4-.7-.7-.2-.3-.2-.6-.2-1s0-.7.2-1c.2-.3.4-.5.7-.7.3-.2.6-.3,1-.3s.6,0,.8.2.4.3.6.5l-.5.5c-.1-.1-.2-.2-.4-.3s-.4-.1-.6-.1-.5,0-.7.2c-.2.1-.3.3-.4.5,0,.2-.1.4-.1.7s0,.4.1.7c.1.2.2.4.4.5.2.1.4.2.7.2s.4,0,.6-.1c.2,0,.3-.2.4-.3ZM152.6,82.1c-.4,0-.7,0-1-.3-.3-.2-.5-.4-.7-.7-.2-.3-.2-.6-.2-1s0-.7.2-1c.2-.3.4-.5.7-.7.3-.2.6-.3,1-.3s.7,0,1,.3c.3.2.5.4.7.7.2.3.3.6.3,1s0,.7-.3,1c-.2.3-.4.5-.7.7-.3.2-.6.3-1,.3ZM152.6,81.5c.3,0,.5,0,.7-.2.2-.1.3-.3.4-.5.1-.2.2-.4.2-.6s0-.4-.2-.6c0-.2-.2-.4-.4-.5-.2-.1-.4-.2-.7-.2s-.5,0-.7.2c-.2.1-.3.3-.4.5,0,.2-.1.4-.1.6s0,.4.2.6c.1.2.2.4.4.5.2.1.4.2.7.2ZM156.1,82h-.7v-3.3h0c0-.2,0-.3,0-.4h.7v.6c0,0,.2-.2.3-.3.1-.1.2-.2.4-.3.2,0,.4-.1.6-.1s.5,0,.7.2c.2.1.3.3.4.5.1-.2.3-.3.6-.5.2-.1.5-.2.8-.2.5,0,.8.1,1.1.4.2.3.3.7.3,1.1v2.2h-.7v-2.2c0-.7-.3-1-.8-1s-.4,0-.5.2c-.2.1-.3.2-.4.4,0,.2-.1.3-.1.6v2.1h-.7v-2.2c0-.3,0-.6-.2-.8-.1-.2-.3-.2-.6-.2s-.5,0-.6.2c-.2.1-.3.3-.3.6,0,.2,0,.4,0,.7v1.7ZM162.3,82v-.9h.9v.9h-.9ZM166.6,82v-.4c-.2.2-.3.3-.6.4-.2,0-.5.1-.7.1s-.4,0-.6-.1c-.2,0-.4-.2-.5-.4-.1-.2-.2-.4-.2-.7,0-.4.1-.7.4-1,.3-.2.7-.4,1.2-.4s.2,0,.4,0c.1,0,.2,0,.3,0,.1,0,.2,0,.2,0h0c0-.4,0-.6-.3-.7-.2-.1-.4-.2-.7-.2s-.5,0-.7.1c-.2,0-.3.2-.4.2l-.3-.5c.1-.1.3-.2.6-.3.2-.1.6-.2,1-.2s.9.1,1.1.4c.3.2.4.6.4,1v2.2h0c0,.2,0,.3,0,.3h-.7ZM166.6,80.7v-.4s0,0-.2,0c0,0-.2,0-.3,0-.1,0-.2,0-.3,0-.3,0-.5,0-.6.1-.1,0-.2.2-.3.3,0,.1,0,.2,0,.3,0,.2,0,.3.2.5.1.1.3.2.6.2s.4,0,.5-.1c.2,0,.3-.2.4-.3.1-.1.2-.3.2-.4ZM168.2,80.5v-2.2h.7v2.2c0,.3,0,.6.2.8.1.2.4.2.6.2s.5,0,.6-.2c.2-.1.3-.3.3-.5,0-.2.1-.5.1-.7v-1.7h.7v3.5c0,0,0,.1,0,.2h-.7v-.6c0,0-.2.2-.3.3-.1,0-.2.2-.4.2-.2,0-.4.1-.6.1-.5,0-.8-.1-1.1-.4-.2-.3-.3-.7-.3-1.1ZM174,81.9v-5.2h.7v2c0-.1.2-.2.4-.3.2-.1.4-.2.8-.2s.7,0,.9.3c.3.2.4.4.6.7.1.3.2.6.2,1s0,.7-.3,1c-.2.3-.4.5-.7.7-.3.2-.7.3-1.1.3s-.6,0-.8,0c-.3,0-.5-.1-.6-.2ZM174.7,79.9v1.5c0,0,.2,0,.3,0,.1,0,.3,0,.5,0,.4,0,.7-.1,1-.4.3-.3.4-.6.4-1s0-.4-.1-.6c0-.2-.2-.4-.3-.5-.2-.1-.4-.2-.6-.2s-.4,0-.6.2c-.2.1-.3.2-.4.4,0,.2-.1.3-.1.5ZM181.4,81l.4.4c0,0-.1.1-.3.3-.1.1-.3.2-.5.3-.2,0-.5.1-.8.1s-.7,0-1-.2c-.3-.2-.5-.4-.7-.7-.2-.3-.2-.7-.2-1s0-.7.2-1c.2-.3.4-.5.7-.7.3-.2.6-.3,1-.3s.8.1,1,.3.5.5.6.8c.1.3.2.7.2,1.1h-2.9c0,.2,0,.4.2.6.1.2.3.3.4.4.2,0,.4.1.6.1.3,0,.6,0,.8-.2.2-.1.4-.2.4-.3ZM179,79.8h2.2c0-.3-.1-.5-.3-.7-.2-.2-.4-.3-.8-.3s-.4,0-.6.2c-.2.1-.3.2-.4.4,0,.2-.1.3-.1.5ZM183,82v-3.1h-.7v-.6h.7v-.3c0-.3,0-.6.2-.8s.3-.4.5-.5.4-.2.6-.2.4,0,.6,0c.2,0,.4.2.5.3l-.4.5c-.2-.2-.4-.2-.6-.2s-.4,0-.5.2c-.1.1-.2.4-.2.7v.2h1.1v.6h-1.1v3.1h-.7ZM187,82.1c-.4,0-.7,0-1-.3-.3-.2-.5-.4-.7-.7-.2-.3-.2-.6-.2-1s0-.7.2-1c.2-.3.4-.5.7-.7.3-.2.6-.3,1-.3s.7,0,1,.3c.3.2.5.4.7.7.2.3.3.6.3,1s0,.7-.3,1c-.2.3-.4.5-.7.7-.3.2-.6.3-1,.3ZM187,81.5c.3,0,.5,0,.7-.2.2-.1.3-.3.4-.5.1-.2.2-.4.2-.6s0-.4-.2-.6c0-.2-.2-.4-.4-.5-.2-.1-.4-.2-.7-.2s-.5,0-.7.2c-.2.1-.3.3-.4.5,0,.2-.1.4-.1.6s0,.4.2.6c.1.2.2.4.4.5.2.1.4.2.7.2ZM190.5,82h-.7v-3.4h0c0-.2,0-.3,0-.4h.7v.6c0,0,.2-.2.3-.3.1-.1.2-.2.4-.3.2,0,.4-.1.6-.1s.2,0,.2,0c0,0,.1,0,.2,0l-.2.7c0,0-.2,0-.4,0s-.4,0-.6.2c-.2.1-.3.2-.4.4,0,.2-.1.4-.1.6v2ZM195.5,81l.4.4c0,0-.1.1-.3.3-.1.1-.3.2-.5.3-.2,0-.5.1-.8.1s-.7,0-1-.2c-.3-.2-.5-.4-.7-.7-.2-.3-.2-.7-.2-1s0-.7.2-1c.2-.3.4-.5.7-.7.3-.2.6-.3,1-.3s.8.1,1,.3c.3.2.5.5.6.8.1.3.2.7.2,1.1h-2.9c0,.2,0,.4.2.6.1.2.3.3.4.4.2,0,.4.1.6.1.3,0,.6,0,.8-.2.2-.1.4-.2.4-.3ZM193,79.8h2.2c0-.3-.1-.5-.3-.7-.2-.2-.4-.3-.8-.3s-.4,0-.6.2c-.2.1-.3.2-.4.4,0,.2-.1.3-.1.5ZM198.9,82h-.7v-3.3h0c0-.2,0-.3,0-.4h.7v.6c0,0,.2-.2.3-.3.1-.1.2-.2.4-.3.2,0,.4-.1.6-.1s.5,0,.7.2c.2.1.3.3.4.5.1-.2.3-.3.6-.5.2-.1.5-.2.8-.2.5,0,.8.1,1.1.4.2.3.3.7.3,1.1v2.2h-.7v-2.2c0-.7-.3-1-.8-1s-.4,0-.5.2c-.2.1-.3.2-.4.4,0,.2-.1.3-.1.6v2.1h-.7v-2.2c0-.3,0-.6-.2-.8-.1-.2-.3-.2-.6-.2s-.5,0-.6.2c-.2.1-.3.3-.3.6,0,.2,0,.4,0,.7v1.7ZM207.4,82v-.4c-.2.2-.3.3-.6.4-.2,0-.5.1-.7.1s-.4,0-.6-.1c-.2,0-.4-.2-.5-.4-.1-.2-.2-.4-.2-.7,0-.4.1-.7.4-1,.3-.2.7-.4,1.2-.4s.2,0,.4,0c.1,0,.2,0,.3,0,.1,0,.2,0,.2,0h0c0-.4,0-.6-.3-.7-.2-.1-.4-.2-.7-.2s-.5,0-.7.1c-.2,0-.3.2-.4.2l-.3-.5c.1-.1.3-.2.6-.3.2-.1.6-.2,1-.2s.9.1,1.1.4c.3.2.4.6.4,1v2.2h0c0,.2,0,.3,0,.3h-.7ZM207.3,80.7v-.4s0,0-.2,0c0,0-.2,0-.3,0-.1,0-.2,0-.3,0-.3,0-.5,0-.6.1-.1,0-.2.2-.3.3,0,.1,0,.2,0,.3,0,.2,0,.3.2.5.1.1.3.2.6.2s.4,0,.5-.1c.2,0,.3-.2.4-.3.1-.1.2-.3.2-.4ZM209,82v-5.3h.7v3.1l1.6-1.5h.9l-1.4,1.4,1.6,2.3h-.9l-1.3-1.9-.5.5v1.4h-.7ZM212.9,77.6v-.8h.8v.8h-.8ZM212.9,82v-3.7h.7v3.7h-.7ZM215.4,82h-.7v-3.3h0c0-.2,0-.3,0-.4h.7v.6c0,0,.2-.2.3-.3.1-.1.2-.2.4-.3.2,0,.4-.1.6-.1.5,0,.8.1,1.1.4.2.3.4.7.4,1.1v2.2h-.7v-2.2c0-.3,0-.6-.2-.8-.1-.2-.4-.2-.6-.2s-.5,0-.6.2c-.2.1-.3.3-.3.5,0,.2,0,.5,0,.7v1.7ZM219.2,83.3l.3-.5c.1,0,.3.2.4.2.2,0,.4,0,.7,0s.6,0,.8-.3c.2-.2.3-.5.3-.8v-.5s-.1.1-.2.2c0,0-.2.1-.4.2-.1,0-.3,0-.6,0-.4,0-.7,0-.9-.2-.3-.2-.4-.4-.6-.7-.1-.3-.2-.6-.2-1s0-.7.3-1c.2-.3.4-.5.7-.7.3-.2.7-.3,1.1-.3s.6,0,.8,0c.3,0,.5.1.6.2v3.6c0,.5-.2.9-.5,1.2s-.8.4-1.3.4-.7,0-.9-.1c-.2,0-.4-.2-.5-.3ZM221.7,80.5v-1.5s-.1,0-.2,0c-.1,0-.3,0-.5,0s-.5,0-.7.2c-.2.1-.4.3-.5.5-.1.2-.2.4-.2.7s0,.4.1.6c0,.2.2.3.4.4.2.1.4.2.6.2s.4,0,.6-.1c.2,0,.3-.2.3-.3,0-.1.1-.3.1-.4ZM227.2,82v-.4c-.1.2-.3.3-.6.4-.2,0-.5.1-.7.1s-.4,0-.6-.1c-.2,0-.4-.2-.5-.4-.1-.2-.2-.4-.2-.7,0-.4.1-.7.4-1,.3-.2.7-.4,1.2-.4s.2,0,.4,0c.1,0,.2,0,.3,0,.1,0,.2,0,.2,0h0c0-.4,0-.6-.3-.7-.2-.1-.4-.2-.7-.2s-.5,0-.7.1c-.2,0-.3.2-.4.2l-.3-.5c.1-.1.3-.2.6-.3.2-.1.6-.2,1-.2s.9.1,1.1.4c.3.2.4.6.4,1v2.2h0c0,.2,0,.3,0,.3h-.7ZM227.2,80.7v-.4s0,0-.2,0c0,0-.2,0-.3,0-.1,0-.2,0-.3,0-.3,0-.5,0-.6.1-.1,0-.2.2-.3.3,0,.1,0,.2,0,.3,0,.2,0,.3.2.5.1.1.3.2.6.2s.4,0,.5-.1c.2,0,.3-.2.4-.3.1-.1.2-.3.2-.4ZM233,82v-.5c0,0-.1.1-.2.2,0,0-.2.2-.4.3-.2,0-.4.1-.6.1s-.6,0-.8-.2c-.3-.2-.4-.4-.6-.7-.1-.3-.2-.6-.2-1s0-.7.2-.9c.1-.3.3-.5.5-.6.2-.2.4-.3.6-.4.2,0,.4-.1.6-.1s.4,0,.5,0c.1,0,.3.1.4.2v-1.8h.7v5.1c0,0,0,.1,0,.2h-.7ZM233,80.4v-1.3c0,0-.2-.1-.4-.2-.2,0-.3,0-.5,0-.3,0-.6.1-.9.4-.2.2-.3.6-.3,1s0,.5.1.6c0,.2.2.4.4.5.2.1.4.2.6.2s.4,0,.6-.2c.2-.1.3-.3.3-.4,0-.2.1-.3.1-.5ZM237.7,81l.4.4c0,0-.1.1-.3.3-.1.1-.3.2-.5.3-.2,0-.5.1-.8.1s-.7,0-1-.2c-.3-.2-.5-.4-.7-.7-.2-.3-.2-.7-.2-1s0-.7.2-1c.2-.3.4-.5.7-.7.3-.2.6-.3,1-.3s.8.1,1,.3c.3.2.5.5.6.8.1.3.2.7.2,1.1h-2.9c0,.2,0,.4.2.6.1.2.3.3.4.4.2,0,.4.1.6.1.3,0,.6,0,.8-.2.2-.1.4-.2.4-.3ZM235.3,79.8h2.2c0-.3-.1-.5-.3-.7-.2-.2-.4-.3-.8-.3s-.4,0-.6.2c-.2.1-.3.2-.4.4,0,.2-.1.3-.1.5ZM241.8,81l.4.5c-.2.2-.4.3-.6.5-.2.1-.5.2-.8.2s-.7,0-1-.3c-.3-.2-.5-.4-.7-.7-.2-.3-.2-.6-.2-1s0-.7.2-1c.2-.3.4-.5.7-.7.3-.2.6-.3,1-.3s.6,0,.8.2c.2.1.4.3.6.5l-.5.5c-.1-.1-.2-.2-.4-.3-.2,0-.3-.1-.6-.1s-.5,0-.7.2c-.2.1-.3.3-.4.5,0,.2-.1.4-.1.7s0,.4.1.7c.1.2.2.4.4.5.2.1.4.2.7.2s.4,0,.6-.1c.2,0,.3-.2.4-.3ZM242.9,77.6v-.8h.8v.8h-.8ZM243,82v-3.7h.7v3.7h-.7ZM244.5,81.5l.4-.5c.1.1.3.2.5.3.2,0,.4.1.6.1s.4,0,.6-.1c.2,0,.2-.2.2-.4s0-.2,0-.3c0,0-.2-.1-.3-.2-.2,0-.4-.1-.6-.2-.2,0-.4-.1-.6-.2-.2,0-.3-.2-.4-.3-.1-.1-.2-.3-.2-.6s0-.4.2-.6c.1-.2.3-.3.6-.4.2,0,.5-.1.7-.1s.6,0,.8.1c.2,0,.4.2.6.3l-.4.5c-.1-.1-.3-.2-.4-.3-.2,0-.4-.1-.6-.1s-.4,0-.6.1c-.1,0-.2.2-.2.4s0,.3.3.4c.2,0,.4.1.7.2.2,0,.4.1.6.2.2,0,.3.2.5.4.1.1.2.3.2.6s0,.5-.2.6c-.1.2-.3.3-.6.4-.2,0-.5.1-.8.1-.7,0-1.2-.2-1.6-.6ZM248.5,77.6v-.8h.8v.8h-.8ZM248.5,82v-3.7h.7v3.7h-.7ZM252,82.1c-.4,0-.7,0-1-.3-.3-.2-.5-.4-.7-.7-.2-.3-.2-.6-.2-1s0-.7.2-1c.2-.3.4-.5.7-.7.3-.2.6-.3,1-.3s.7,0,1,.3c.3.2.5.4.7.7.2.3.3.6.3,1s0,.7-.3,1c-.2.3-.4.5-.7.7-.3.2-.6.3-1,.3ZM252,81.5c.3,0,.5,0,.7-.2.2-.1.3-.3.4-.5.1-.2.2-.4.2-.6s0-.4-.2-.6c0-.2-.2-.4-.4-.5-.2-.1-.4-.2-.7-.2s-.5,0-.7.2c-.2.1-.3.3-.4.5,0,.2-.1.4-.1.6s0,.4.2.6c.1.2.2.4.4.5.2.1.4.2.7.2ZM255.6,82h-.7v-3.3h0c0-.2,0-.3,0-.4h.7v.6c0,0,.2-.2.3-.3.1-.1.2-.2.4-.3.2,0,.4-.1.6-.1.5,0,.8.1,1.1.4.2.3.4.7.4,1.1v2.2h-.7v-2.2c0-.3,0-.6-.2-.8-.1-.2-.4-.2-.6-.2s-.5,0-.6.2c-.2.1-.3.3-.3.5,0,.2,0,.5,0,.7v1.7ZM263,82v-.4c-.1.2-.3.3-.6.4-.2,0-.5.1-.7.1s-.4,0-.6-.1c-.2,0-.4-.2-.5-.4-.1-.2-.2-.4-.2-.7,0-.4.1-.7.4-1,.3-.2.7-.4,1.2-.4s.2,0,.4,0c.1,0,.2,0,.3,0,.1,0,.2,0,.2,0h0c0-.4,0-.6-.3-.7-.2-.1-.4-.2-.7-.2s-.5,0-.7.1c-.2,0-.3.2-.4.2l-.3-.5c.1-.1.3-.2.6-.3.2-.1.6-.2,1-.2s.9.1,1.1.4c.3.2.4.6.4,1v2.2h0c0,.2,0,.3,0,.3h-.7ZM262.9,80.7v-.4s0,0-.2,0c0,0-.2,0-.3,0-.1,0-.2,0-.3,0-.3,0-.5,0-.6.1-.1,0-.2.2-.3.3,0,.1,0,.2,0,.3,0,.2,0,.3.2.5.1.1.3.2.6.2s.4,0,.5-.1c.2,0,.3-.2.4-.3.1-.1.2-.3.2-.4ZM264.6,81.9v-5.2h.7v2c0-.1.2-.2.4-.3.2-.1.4-.2.8-.2s.7,0,.9.3c.3.2.4.4.6.7.1.3.2.6.2,1s0,.7-.3,1c-.2.3-.4.5-.7.7-.3.2-.7.3-1.1.3s-.6,0-.8,0c-.3,0-.5-.1-.6-.2ZM265.3,79.9v1.5c0,0,.2,0,.3,0,.1,0,.3,0,.5,0,.4,0,.7-.1,1-.4.3-.3.4-.6.4-1s0-.4-.1-.6c0-.2-.2-.4-.3-.5-.2-.1-.4-.2-.6-.2s-.4,0-.6.2c-.2.1-.3.2-.4.4,0,.2-.1.3-.1.5ZM270.8,82.1c-.4,0-.7,0-1-.3-.3-.2-.5-.4-.7-.7-.2-.3-.2-.6-.2-1s0-.7.2-1c.2-.3.4-.5.7-.7.3-.2.6-.3,1-.3s.7,0,1,.3c.3.2.5.4.7.7.2.3.3.6.3,1s0,.7-.3,1c-.2.3-.4.5-.7.7-.3.2-.6.3-1,.3ZM270.8,81.5c.3,0,.5,0,.7-.2.2-.1.3-.3.4-.5.1-.2.2-.4.2-.6s0-.4-.2-.6c0-.2-.2-.4-.4-.5-.2-.1-.4-.2-.7-.2s-.5,0-.7.2c-.2.1-.3.3-.4.5,0,.2-.1.4-.1.6s0,.4.2.6c.1.2.2.4.4.5.2.1.4.2.7.2ZM273.6,80.5v-2.2h.7v2.2c0,.3,0,.6.2.8.1.2.4.2.6.2s.5,0,.6-.2c.2-.1.3-.3.3-.5,0-.2.1-.5.1-.7v-1.7h.7v3.5c0,0,0,.1,0,.2h-.7v-.6c0,0-.2.2-.3.3-.1,0-.2.2-.4.2-.2,0-.4.1-.6.1-.5,0-.8-.1-1.1-.4s-.3-.7-.3-1.1ZM278.2,80.8v-1.9h-.7v-.6h.7v-1.2h.7v1.2h1.1v.6h-1.1v1.8c0,.3,0,.5.1.6,0,.1.2.2.4.2s.3,0,.3,0c0,0,.2-.1.3-.2l.3.4c-.2.1-.3.3-.5.3-.2,0-.4.1-.6.1-.4,0-.7-.1-.9-.3-.2-.2-.3-.6-.3-1ZM282.5,82v-5.3h.8v2.2h2.9v-2.2h.8v5.3h-.8v-2.4h-2.9v2.4h-.8ZM289.9,82.1c-.4,0-.7,0-1-.3-.3-.2-.5-.4-.7-.7-.2-.3-.2-.6-.2-1s0-.7.2-1c.2-.3.4-.5.7-.7.3-.2.6-.3,1-.3s.7,0,1,.3c.3.2.5.4.7.7.2.3.3.6.3,1s0,.7-.3,1c-.2.3-.4.5-.7.7-.3.2-.6.3-1,.3ZM289.9,81.5c.3,0,.5,0,.7-.2.2-.1.3-.3.4-.5.1-.2.2-.4.2-.6s0-.4-.2-.6c0-.2-.2-.4-.4-.5-.2-.1-.4-.2-.7-.2s-.5,0-.7.2c-.2.1-.3.3-.4.5,0,.2-.1.4-.1.6s0,.4.2.6c.1.2.2.4.4.5.2.1.4.2.7.2ZM292.5,81.5l.4-.5c.1.1.3.2.5.3.2,0,.4.1.6.1s.4,0,.6-.1c.2,0,.2-.2.2-.4s0-.2,0-.3c0,0-.2-.1-.3-.2-.2,0-.4-.1-.6-.2-.2,0-.4-.1-.6-.2-.2,0-.3-.2-.4-.3-.1-.1-.2-.3-.2-.6s0-.4.2-.6c.1-.2.3-.3.6-.4.2,0,.5-.1.7-.1s.6,0,.8.1c.2,0,.4.2.6.3l-.4.5c-.1-.1-.3-.2-.4-.3-.2,0-.4-.1-.6-.1s-.4,0-.6.1c-.1,0-.2.2-.2.4s0,.3.3.4c.2,0,.4.1.7.2.2,0,.4.1.6.2.2,0,.3.2.5.4.1.1.2.3.2.6s0,.5-.2.6c-.1.2-.3.3-.6.4-.2,0-.5.1-.8.1-.7,0-1.2-.2-1.6-.6ZM296.8,80.8v-1.9h-.7v-.6h.7v-1.2h.7v1.2h1.1v.6h-1.1v1.8c0,.3,0,.5.1.6,0,.1.2.2.4.2s.3,0,.3,0c0,0,.2-.1.3-.2l.3.4c-.2.1-.3.3-.5.3-.2,0-.4.1-.6.1-.4,0-.7-.1-.9-.3-.2-.2-.3-.6-.3-1ZM300.2,83.6h-.7v-4.9h0c0-.2,0-.3,0-.4h.7v.5c0,0,.2-.1.3-.2.1,0,.2-.2.4-.3.2,0,.4-.1.6-.1.4,0,.7,0,.9.3.3.2.4.4.6.7.1.3.2.6.2,1s0,.6-.2.9c-.1.2-.3.4-.4.6-.2.2-.4.3-.6.4-.2,0-.4.1-.7.1s-.4,0-.6,0c-.1,0-.3-.1-.4-.2v1.7ZM300.2,80.2v1c0,0,.2.1.4.2.2,0,.4,0,.6,0s.5,0,.6-.2c.2-.1.3-.3.4-.5.1-.2.2-.4.2-.7s0-.5-.1-.7c0-.2-.2-.4-.3-.5-.2-.1-.4-.2-.6-.2s-.5,0-.7.2c-.2.1-.3.3-.4.6,0,0,0,.2,0,.3,0,0,0,.2,0,.3ZM304,82v-5.3h.7v5.3h-.7ZM305.7,80.5v-2.2h.7v2.2c0,.3,0,.6.2.8.1.2.4.2.6.2s.5,0,.6-.2c.2-.1.3-.3.3-.5,0-.2.1-.5.1-.7v-1.7h.7v3.5c0,0,0,.1,0,.2h-.7v-.6c0,0-.2.2-.3.3-.1,0-.2.2-.4.2-.2,0-.4.1-.6.1-.5,0-.8-.1-1.1-.4-.2-.3-.3-.7-.3-1.1ZM309.8,81.5l.4-.5c.1.1.3.2.5.3.2,0,.4.1.6.1s.4,0,.6-.1c.2,0,.2-.2.2-.4s0-.2,0-.3c0,0-.2-.1-.3-.2-.2,0-.4-.1-.6-.2-.2,0-.4-.1-.6-.2-.2,0-.3-.2-.4-.3-.1-.1-.2-.3-.2-.6s0-.4.2-.6c.1-.2.3-.3.6-.4.2,0,.5-.1.7-.1s.6,0,.8.1c.2,0,.4.2.6.3l-.4.5c-.1-.1-.3-.2-.4-.3-.2,0-.4-.1-.6-.1s-.4,0-.6.1c-.1,0-.2.2-.2.4s0,.3.3.4c.2,0,.4.1.7.2.2,0,.4.1.6.2.2,0,.3.2.5.4.1.1.2.3.2.6s0,.5-.2.6c-.1.2-.3.3-.6.4-.2,0-.5.1-.8.1-.7,0-1.2-.2-1.6-.6ZM313.7,82v-.9h.9v.9h-.9ZM317.2,82v-5.3h1.7c.4,0,.7,0,.9.2.2,0,.4.2.6.4.1.2.2.3.3.5,0,.2,0,.4,0,.6,0,.4,0,.7-.2.9-.2.2-.4.4-.6.5-.3.1-.6.2-.9.2h-1v2.1h-.8ZM317.9,79.2h1c.3,0,.6,0,.8-.3.2-.2.3-.4.3-.7s0-.5-.3-.7c-.2-.2-.4-.3-.8-.3h-1v1.9ZM323.6,82v-.4c-.1.2-.3.3-.6.4-.2,0-.5.1-.7.1s-.4,0-.6-.1c-.2,0-.4-.2-.5-.4-.1-.2-.2-.4-.2-.7,0-.4.1-.7.4-1,.3-.2.7-.4,1.2-.4s.2,0,.4,0c.1,0,.2,0,.3,0,.1,0,.2,0,.2,0h0c0-.4,0-.6-.3-.7-.2-.1-.4-.2-.7-.2s-.5,0-.7.1c-.2,0-.3.2-.4.2l-.3-.5c.1-.1.3-.2.6-.3.2-.1.6-.2,1-.2s.9.1,1.1.4c.3.2.4.6.4,1v2.2h0c0,.2,0,.3,0,.3h-.7ZM323.6,80.7v-.4s0,0-.2,0c0,0-.2,0-.3,0-.1,0-.2,0-.3,0-.3,0-.5,0-.6.1-.1,0-.2.2-.3.3,0,.1,0,.2,0,.3,0,.2,0,.3.2.5.1.1.3.2.6.2s.4,0,.5-.1c.2,0,.3-.2.4-.3.1-.1.2-.3.2-.4ZM325.1,81.5l.4-.5c.1.1.3.2.5.3.2,0,.4.1.6.1s.4,0,.6-.1c.2,0,.2-.2.2-.4s0-.2,0-.3c0,0-.2-.1-.3-.2-.2,0-.4-.1-.6-.2-.2,0-.4-.1-.6-.2-.2,0-.3-.2-.4-.3-.1-.1-.2-.3-.2-.6s0-.4.2-.6c.1-.2.3-.3.6-.4.2,0,.5-.1.7-.1s.6,0,.8.1c.2,0,.4.2.6.3l-.4.5c-.1-.1-.3-.2-.4-.3-.2,0-.4-.1-.6-.1s-.4,0-.6.1c-.1,0-.2.2-.2.4s0,.3.3.4c.2,0,.4.1.7.2.2,0,.4.1.6.2.2,0,.3.2.5.4.1.1.2.3.2.6s0,.5-.2.6c-.1.2-.3.3-.6.4-.2,0-.5.1-.8.1-.7,0-1.2-.2-1.6-.6ZM329.4,80.8v-1.9h-.7v-.6h.7v-1.2h.7v1.2h1.1v.6h-1.1v1.8c0,.3,0,.5.1.6,0,.1.2.2.4.2s.3,0,.3,0c0,0,.2-.1.3-.2l.3.4c-.2.1-.3.3-.5.3-.2,0-.4.1-.6.1-.4,0-.7-.1-.9-.3-.2-.2-.3-.6-.3-1ZM334.3,83.6h-.7v-4.9h0c0-.2,0-.3,0-.4h.7v.5c0,0,.2-.1.3-.2.1,0,.2-.2.4-.3.2,0,.4-.1.6-.1.4,0,.7,0,.9.3.3.2.4.4.6.7.1.3.2.6.2,1s0,.6-.2.9c-.1.2-.3.4-.4.6-.2.2-.4.3-.6.4-.2,0-.4.1-.7.1s-.5,0-.6,0c-.1,0-.3-.1-.4-.2v1.7ZM334.3,80.2v1c0,0,.2.1.4.2.2,0,.4,0,.6,0s.5,0,.6-.2c.2-.1.3-.3.4-.5.1-.2.2-.4.2-.7s0-.5-.1-.7c0-.2-.2-.4-.3-.5-.2-.1-.4-.2-.6-.2s-.5,0-.7.2c-.2.1-.3.3-.4.6,0,0,0,.2,0,.3,0,0,0,.2,0,.3ZM341,81l.4.4c0,0-.1.1-.3.3-.1.1-.3.2-.5.3-.2,0-.5.1-.8.1s-.7,0-1-.2c-.3-.2-.5-.4-.7-.7-.2-.3-.2-.7-.2-1s0-.7.2-1c.2-.3.4-.5.7-.7.3-.2.6-.3,1-.3s.8.1,1,.3c.3.2.5.5.6.8.1.3.2.7.2,1.1h-2.9c0,.2,0,.4.2.6.1.2.3.3.4.4.2,0,.4.1.6.1.3,0,.6,0,.8-.2.2-.1.4-.2.4-.3ZM338.6,79.8h2.2c0-.3-.1-.5-.3-.7-.2-.2-.4-.3-.8-.3s-.4,0-.6.2c-.2.1-.3.2-.4.4,0,.2-.1.3-.1.5ZM343,82h-.7v-3.4h0c0-.2,0-.3,0-.4h.7v.6c0,0,.2-.2.3-.3.1-.1.2-.2.4-.3s.4-.1.6-.1.2,0,.2,0c0,0,.1,0,.2,0l-.2.7c0,0-.2,0-.4,0s-.4,0-.6.2c-.2.1-.3.2-.4.4,0,.2-.1.4-.1.6v2ZM345.5,82v-3.1h-.7v-.6h.7v-.3c0-.3,0-.6.2-.8.1-.2.3-.4.5-.5.2-.1.4-.2.6-.2s.4,0,.6,0c.2,0,.4.2.5.3l-.4.5c-.2-.2-.4-.2-.6-.2s-.4,0-.5.2c-.1.1-.2.4-.2.7v.2h1.1v.6h-1.1v3.1h-.7ZM349.5,82.1c-.4,0-.7,0-1-.3-.3-.2-.5-.4-.7-.7-.2-.3-.2-.6-.2-1s0-.7.2-1c.2-.3.4-.5.7-.7.3-.2.6-.3,1-.3s.7,0,1,.3c.3.2.5.4.7.7.2.3.3.6.3,1s0,.7-.3,1c-.2.3-.4.5-.7.7-.3.2-.6.3-1,.3ZM349.5,81.5c.3,0,.5,0,.7-.2.2-.1.3-.3.4-.5.1-.2.2-.4.2-.6s0-.4-.2-.6c0-.2-.2-.4-.4-.5-.2-.1-.4-.2-.7-.2s-.5,0-.7.2c-.2.1-.3.3-.4.5,0,.2-.1.4-.1.6s0,.4.2.6c.1.2.2.4.4.5.2.1.4.2.7.2ZM353,82h-.7v-3.4h0c0-.2,0-.3,0-.4h.7v.6c0,0,.2-.2.3-.3.1-.1.2-.2.4-.3s.4-.1.6-.1.2,0,.2,0c0,0,.1,0,.2,0l-.2.7c0,0-.2,0-.4,0s-.4,0-.6.2c-.2.1-.3.2-.4.4,0,.2-.1.4-.1.6v2ZM355.9,82h-.7v-3.3h0c0-.2,0-.3,0-.4h.7v.6c0,0,.2-.2.3-.3.1-.1.2-.2.4-.3.2,0,.4-.1.6-.1s.5,0,.7.2c.2.1.3.3.4.5.1-.2.3-.3.6-.5.2-.1.5-.2.8-.2.5,0,.8.1,1.1.4.2.3.3.7.3,1.1v2.2h-.7v-2.2c0-.7-.3-1-.8-1s-.4,0-.5.2c-.2.1-.3.2-.4.4,0,.2-.1.3-.1.6v2.1h-.7v-2.2c0-.3,0-.6-.2-.8-.1-.2-.3-.2-.6-.2s-.5,0-.6.2c-.2.1-.3.3-.3.6,0,.2,0,.4,0,.7v1.7ZM364.3,82v-.4c-.1.2-.3.3-.6.4-.2,0-.5.1-.7.1s-.4,0-.6-.1c-.2,0-.4-.2-.5-.4-.1-.2-.2-.4-.2-.7,0-.4.1-.7.4-1,.3-.2.7-.4,1.2-.4s.2,0,.4,0c.1,0,.2,0,.3,0,.1,0,.2,0,.2,0h0c0-.4,0-.6-.3-.7-.2-.1-.4-.2-.7-.2s-.5,0-.7.1c-.2,0-.3.2-.4.2l-.3-.5c.1-.1.3-.2.6-.3.2-.1.6-.2,1-.2s.9.1,1.1.4c.3.2.4.6.4,1v2.2h0c0,.2,0,.3,0,.3h-.7ZM364.3,80.7v-.4s0,0-.2,0c0,0-.2,0-.3,0-.1,0-.2,0-.3,0-.3,0-.5,0-.6.1-.1,0-.2.2-.3.3,0,.1,0,.2,0,.3,0,.2,0,.3.2.5.1.1.3.2.6.2s.4,0,.5-.1c.2,0,.3-.2.4-.3.1-.1.2-.3.2-.4ZM366.7,82h-.7v-3.3h0c0-.2,0-.3,0-.4h.7v.6c0,0,.2-.2.3-.3.1-.1.2-.2.4-.3.2,0,.4-.1.6-.1.5,0,.8.1,1.1.4.2.3.4.7.4,1.1v2.2h-.7v-2.2c0-.3,0-.6-.2-.8-.1-.2-.4-.2-.6-.2s-.5,0-.6.2c-.2.1-.3.3-.3.5,0,.2,0,.5,0,.7v1.7ZM373.1,81l.4.5c-.2.2-.4.3-.6.5-.2.1-.5.2-.8.2s-.7,0-1-.3c-.3-.2-.5-.4-.7-.7-.2-.3-.2-.6-.2-1s0-.7.2-1c.2-.3.4-.5.7-.7.3-.2.6-.3,1-.3s.6,0,.8.2c.2.1.4.3.6.5l-.5.5c-.1-.1-.2-.2-.4-.3-.2,0-.3-.1-.6-.1s-.5,0-.7.2c-.2.1-.3.3-.4.5s-.1.4-.1.7,0,.4.1.7c.1.2.2.4.4.5.2.1.4.2.7.2s.4,0,.6-.1c.2,0,.3-.2.4-.3ZM377,81l.4.4c0,0-.1.1-.3.3-.1.1-.3.2-.5.3-.2,0-.5.1-.8.1s-.7,0-1-.2c-.3-.2-.5-.4-.7-.7-.2-.3-.2-.7-.2-1s0-.7.2-1c.2-.3.4-.5.7-.7.3-.2.6-.3,1-.3s.8.1,1,.3c.3.2.5.5.6.8.1.3.2.7.2,1.1h-2.9c0,.2,0,.4.2.6.1.2.3.3.4.4.2,0,.4.1.6.1.3,0,.6,0,.8-.2.2-.1.4-.2.4-.3ZM374.6,79.8h2.2c0-.3-.1-.5-.3-.7-.2-.2-.4-.3-.8-.3s-.4,0-.6.2c-.2.1-.3.2-.4.4,0,.2-.1.3-.1.5ZM379.8,77.6v-.8h.8v.8h-.8ZM379.8,82v-3.7h.7v3.7h-.7ZM381.4,81.5l.4-.5c.1.1.3.2.5.3.2,0,.4.1.6.1s.4,0,.6-.1c.2,0,.2-.2.2-.4s0-.2,0-.3c0,0-.2-.1-.3-.2-.2,0-.4-.1-.6-.2-.2,0-.4-.1-.6-.2-.2,0-.3-.2-.4-.3-.1-.1-.2-.3-.2-.6s0-.4.2-.6c.1-.2.3-.3.6-.4.2,0,.5-.1.7-.1s.6,0,.8.1c.2,0,.4.2.6.3l-.4.5c-.1-.1-.3-.2-.4-.3-.2,0-.4-.1-.6-.1s-.4,0-.6.1c-.1,0-.2.2-.2.4s0,.3.3.4c.2,0,.4.1.7.2.2,0,.4.1.6.2.2,0,.3.2.5.4.1.1.2.3.2.6s0,.5-.2.6c-.1.2-.3.3-.6.4-.2,0-.5.1-.8.1-.7,0-1.2-.2-1.6-.6ZM387.5,82h-.7v-3.3h0c0-.2,0-.3,0-.4h.7v.6c0,0,.2-.2.3-.3.1-.1.2-.2.4-.3.2,0,.4-.1.6-.1.5,0,.8.1,1.1.4.2.3.4.7.4,1.1v2.2h-.7v-2.2c0-.3,0-.6-.2-.8-.1-.2-.4-.2-.6-.2s-.5,0-.6.2c-.2.1-.3.3-.3.5,0,.2,0,.5,0,.7v1.7ZM392.9,82.1c-.4,0-.7,0-1-.3-.3-.2-.5-.4-.7-.7-.2-.3-.2-.6-.2-1s0-.7.2-1c.2-.3.4-.5.7-.7.3-.2.6-.3,1-.3s.7,0,1,.3c.3.2.5.4.7.7.2.3.3.6.3,1s0,.7-.3,1c-.2.3-.4.5-.7.7-.3.2-.6.3-1,.3ZM392.9,81.5c.3,0,.5,0,.7-.2.2-.1.3-.3.4-.5.1-.2.2-.4.2-.6s0-.4-.2-.6c0-.2-.2-.4-.4-.5-.2-.1-.4-.2-.7-.2s-.5,0-.7.2c-.2.1-.3.3-.4.5,0,.2-.1.4-.1.6s0,.4.2.6c.1.2.2.4.4.5.2.1.4.2.7.2ZM396,80.8v-1.9h-.7v-.6h.7v-1.2h.7v1.2h1.1v.6h-1.1v1.8c0,.3,0,.5.1.6,0,.1.2.2.4.2s.3,0,.3,0c0,0,.2-.1.3-.2l.3.4c-.2.1-.3.3-.5.3-.2,0-.4.1-.6.1-.4,0-.7-.1-.9-.3-.2-.2-.3-.6-.3-1ZM402.6,82v-.4c-.1.2-.3.3-.6.4-.2,0-.5.1-.7.1s-.4,0-.6-.1c-.2,0-.4-.2-.5-.4-.1-.2-.2-.4-.2-.7,0-.4.1-.7.4-1,.3-.2.7-.4,1.2-.4s.2,0,.4,0c.1,0,.2,0,.3,0,.1,0,.2,0,.2,0h0c0-.4,0-.6-.3-.7-.2-.1-.4-.2-.7-.2s-.5,0-.7.1c-.2,0-.3.2-.4.2l-.3-.5c.1-.1.3-.2.6-.3.2-.1.6-.2,1-.2s.9.1,1.1.4c.3.2.4.6.4,1v2.2h0c0,.2,0,.3,0,.3h-.7ZM402.6,80.7v-.4s0,0-.2,0c0,0-.2,0-.3,0-.1,0-.2,0-.3,0-.3,0-.5,0-.6.1-.1,0-.2.2-.3.3,0,.1,0,.2,0,.3,0,.2,0,.3.2.5.1.1.3.2.6.2s.4,0,.5-.1c.2,0,.3-.2.4-.3.1-.1.2-.3.2-.4ZM406.4,82h-.7v-3.4h0c0-.2,0-.3,0-.4h.7v.6c0,0,.2-.2.3-.3.1-.1.2-.2.4-.3s.4-.1.6-.1.2,0,.2,0c0,0,.1,0,.2,0l-.2.7c0,0-.2,0-.4,0s-.4,0-.6.2c-.2.1-.3.2-.4.4,0,.2-.1.4-.1.6v2ZM411.4,81l.4.4c0,0-.1.1-.3.3-.1.1-.3.2-.5.3-.2,0-.5.1-.8.1s-.7,0-1-.2c-.3-.2-.5-.4-.7-.7-.2-.3-.2-.7-.2-1s0-.7.2-1c.2-.3.4-.5.7-.7.3-.2.6-.3,1-.3s.8.1,1,.3c.3.2.5.5.6.8.1.3.2.7.2,1.1h-2.9c0,.2,0,.4.2.6.1.2.3.3.4.4.2,0,.4.1.6.1.3,0,.6,0,.8-.2.2-.1.4-.2.4-.3ZM408.9,79.8h2.2c0-.3-.1-.5-.3-.7-.2-.2-.4-.3-.8-.3s-.4,0-.6.2c-.2.1-.3.2-.4.4,0,.2-.1.3-.1.5ZM412.7,82v-5.3h.7v5.3h-.7ZM414.4,77.6v-.8h.8v.8h-.8ZM414.4,82v-3.7h.7v3.7h-.7ZM418.5,82v-.4c-.1.2-.3.3-.6.4-.2,0-.5.1-.7.1s-.4,0-.6-.1c-.2,0-.4-.2-.5-.4-.1-.2-.2-.4-.2-.7,0-.4.1-.7.4-1,.3-.2.7-.4,1.2-.4s.2,0,.4,0c.1,0,.2,0,.3,0,.1,0,.2,0,.2,0h0c0-.4,0-.6-.3-.7-.2-.1-.4-.2-.7-.2s-.5,0-.7.1c-.2,0-.3.2-.4.2l-.3-.5c.1-.1.3-.2.6-.3.2-.1.6-.2,1-.2s.9.1,1.1.4c.3.2.4.6.4,1v2.2h0c0,.2,0,.3,0,.3h-.7ZM418.5,80.7v-.4s0,0-.2,0c0,0-.2,0-.3,0-.1,0-.2,0-.3,0-.3,0-.5,0-.6.1-.1,0-.2.2-.3.3,0,.1,0,.2,0,.3,0,.2,0,.3.2.5.1.1.3.2.6.2s.4,0,.5-.1c.2,0,.3-.2.4-.3.1-.1.2-.3.2-.4ZM420.1,81.9v-5.2h.7v2c0-.1.2-.2.4-.3.2-.1.4-.2.8-.2s.7,0,.9.3c.3.2.4.4.6.7.1.3.2.6.2,1s0,.7-.3,1c-.2.3-.4.5-.7.7-.3.2-.7.3-1.1.3s-.6,0-.8,0c-.3,0-.5-.1-.6-.2ZM420.8,79.9v1.5c0,0,.2,0,.3,0,.1,0,.3,0,.5,0,.4,0,.7-.1,1-.4.2-.3.4-.6.4-1s0-.4-.1-.6c0-.2-.2-.4-.3-.5-.2-.1-.4-.2-.6-.2s-.4,0-.6.2c-.2.1-.3.2-.4.4,0,.2-.1.3-.1.5ZM424.5,82v-5.3h.7v5.3h-.7ZM429.2,81l.4.4c0,0-.1.1-.3.3-.1.1-.3.2-.5.3-.2,0-.5.1-.8.1s-.7,0-1-.2c-.3-.2-.5-.4-.7-.7-.2-.3-.2-.7-.2-1s0-.7.2-1c.2-.3.4-.5.7-.7.3-.2.6-.3,1-.3s.8.1,1,.3c.3.2.5.5.6.8.1.3.2.7.2,1.1h-2.9c0,.2,0,.4.2.6.1.2.3.3.4.4.2,0,.4.1.6.1.3,0,.6,0,.8-.2.2-.1.4-.2.4-.3ZM426.8,79.8h2.2c0-.3-.1-.5-.3-.7-.2-.2-.4-.3-.8-.3s-.4,0-.6.2c-.2.1-.3.2-.4.4,0,.2-.1.3-.1.5ZM431.9,77.6v-.8h.8v.8h-.8ZM432,82v-3.7h.7v3.7h-.7ZM434.4,82h-.7v-3.3h0c0-.2,0-.3,0-.4h.7v.6c0,0,.2-.2.3-.3.1-.1.2-.2.4-.3.2,0,.4-.1.6-.1.5,0,.8.1,1.1.4.2.3.4.7.4,1.1v2.2h-.7v-2.2c0-.3,0-.6-.2-.8-.1-.2-.4-.2-.6-.2s-.5,0-.6.2c-.2.1-.3.3-.3.5,0,.2,0,.5,0,.7v1.7ZM440.8,82v-.5c0,0-.1.1-.2.2,0,0-.2.2-.4.3-.2,0-.4.1-.6.1s-.6,0-.8-.2c-.3-.2-.4-.4-.6-.7-.1-.3-.2-.6-.2-1s0-.7.2-.9c.1-.3.3-.5.5-.6.2-.2.4-.3.6-.4.2,0,.4-.1.6-.1s.4,0,.5,0c.1,0,.3.1.4.2v-1.8h.7v5.1c0,0,0,.1,0,.2h-.7ZM440.8,80.4v-1.3c0,0-.2-.1-.4-.2-.1,0-.3,0-.5,0-.3,0-.6.1-.9.4-.2.2-.3.6-.3,1s0,.5.1.6c0,.2.2.4.4.5.2.1.4.2.6.2s.5,0,.6-.2c.2-.1.3-.3.3-.4,0-.2.1-.3.1-.5ZM442.5,77.6v-.8h.8v.8h-.8ZM442.5,82v-3.7h.7v3.7h-.7ZM447,81l.4.5c-.2.2-.4.3-.6.5-.2.1-.5.2-.8.2s-.7,0-1-.3c-.3-.2-.5-.4-.7-.7-.2-.3-.2-.6-.2-1s0-.7.2-1c.2-.3.4-.5.7-.7.3-.2.6-.3,1-.3s.6,0,.8.2.4.3.6.5l-.5.5c-.1-.1-.2-.2-.4-.3-.2,0-.3-.1-.6-.1s-.5,0-.7.2c-.2.1-.3.3-.4.5,0,.2-.1.4-.1.7s0,.4.1.7c.1.2.2.4.4.5s.4.2.7.2.4,0,.6-.1c.2,0,.3-.2.4-.3ZM450.5,82v-.4c-.1.2-.3.3-.6.4-.2,0-.5.1-.7.1s-.4,0-.6-.1c-.2,0-.4-.2-.5-.4-.1-.2-.2-.4-.2-.7,0-.4.1-.7.4-1,.3-.2.7-.4,1.2-.4s.2,0,.4,0c.1,0,.2,0,.3,0,.1,0,.2,0,.2,0h0c0-.4,0-.6-.3-.7-.2-.1-.4-.2-.7-.2s-.5,0-.7.1c-.2,0-.3.2-.4.2l-.3-.5c.1-.1.3-.2.6-.3.2-.1.6-.2,1-.2s.9.1,1.1.4c.3.2.4.6.4,1v2.2h0c0,.2,0,.3,0,.3h-.7ZM450.5,80.7v-.4s0,0-.2,0c0,0-.2,0-.3,0-.1,0-.2,0-.3,0-.3,0-.5,0-.6.1-.1,0-.2.2-.3.3,0,.1,0,.2,0,.3,0,.2,0,.3.2.5.1.1.3.2.6.2s.4,0,.5-.1c.2,0,.3-.2.4-.3.1-.1.2-.3.2-.4ZM452.5,80.8v-1.9h-.7v-.6h.7v-1.2h.7v1.2h1.1v.6h-1.1v1.8c0,.3,0,.5.1.6,0,.1.2.2.4.2s.3,0,.3,0c0,0,.2-.1.3-.2l.3.4c-.2.1-.3.3-.5.3-.2,0-.4.1-.6.1-.4,0-.7-.1-.9-.3-.2-.2-.3-.6-.3-1ZM456.8,82.1c-.4,0-.7,0-1-.3-.3-.2-.5-.4-.7-.7-.2-.3-.2-.6-.2-1s0-.7.2-1c.2-.3.4-.5.7-.7.3-.2.6-.3,1-.3s.7,0,1,.3c.3.2.5.4.7.7.2.3.3.6.3,1s0,.7-.3,1c-.2.3-.4.5-.7.7-.3.2-.6.3-1,.3ZM456.8,81.5c.3,0,.5,0,.7-.2.2-.1.3-.3.4-.5.1-.2.2-.4.2-.6s0-.4-.2-.6c0-.2-.2-.4-.4-.5-.2-.1-.4-.2-.7-.2s-.5,0-.7.2c-.2.1-.3.3-.4.5,0,.2-.1.4-.1.6s0,.4.2.6c.1.2.2.4.4.5.2.1.4.2.7.2ZM460.3,82h-.7v-3.4h0c0-.2,0-.3,0-.4h.7v.6c0,0,.2-.2.3-.3.1-.1.2-.2.4-.3s.4-.1.6-.1.2,0,.2,0c0,0,.1,0,.2,0l-.2.7c0,0-.2,0-.4,0s-.4,0-.6.2c-.2.1-.3.2-.4.4,0,.2-.1.4-.1.6v2ZM465.7,82.1c-.4,0-.7,0-1-.3-.3-.2-.5-.4-.7-.7-.2-.3-.2-.6-.2-1s0-.7.2-1c.2-.3.4-.5.7-.7.3-.2.6-.3,1-.3s.7,0,1,.3c.3.2.5.4.7.7.2.3.3.6.3,1s0,.7-.3,1c-.2.3-.4.5-.7.7-.3.2-.6.3-1,.3ZM465.7,81.5c.3,0,.5,0,.7-.2.2-.1.3-.3.4-.5.1-.2.2-.4.2-.6s0-.4-.2-.6c0-.2-.2-.4-.4-.5-.2-.1-.4-.2-.7-.2s-.5,0-.7.2c-.2.1-.3.3-.4.5,0,.2-.1.4-.1.6s0,.4.2.6c.1.2.2.4.4.5.2.1.4.2.7.2ZM468.8,82v-3.1h-.7v-.6h.7v-.3c0-.3,0-.6.2-.8.1-.2.3-.4.5-.5.2-.1.4-.2.6-.2s.4,0,.6,0c.2,0,.4.2.5.3l-.4.5c-.2-.2-.4-.2-.6-.2s-.4,0-.5.2c-.1.1-.2.4-.2.7v.2h1.1v.6h-1.1v3.1h-.7ZM472.9,82v-3.1h-.7v-.6h.7v-.3c0-.3,0-.6.2-.8.1-.2.3-.4.5-.5.2-.1.4-.2.6-.2s.4,0,.6,0c.2,0,.4.2.5.3l-.4.5c-.2-.2-.4-.2-.6-.2s-.4,0-.5.2c-.1.1-.2.4-.2.7v.2h1.1v.6h-1.1v3.1h-.7ZM475.2,80.5v-2.2h.7v2.2c0,.3,0,.6.2.8.1.2.4.2.6.2s.5,0,.6-.2c.2-.1.3-.3.3-.5,0-.2.1-.5.1-.7v-1.7h.7v3.5c0,0,0,.1,0,.2h-.7v-.6c0,0-.2.2-.3.3-.1,0-.2.2-.4.2-.2,0-.4.1-.6.1-.5,0-.8-.1-1.1-.4-.2-.3-.3-.7-.3-1.1ZM479.9,80.8v-1.9h-.7v-.6h.7v-1.2h.7v1.2h1.1v.6h-1.1v1.8c0,.3,0,.5.1.6,0,.1.2.2.4.2s.3,0,.3,0c0,0,.2-.1.3-.2l.3.4c-.2.1-.3.3-.5.3-.2,0-.4.1-.6.1-.4,0-.7-.1-.9-.3-.2-.2-.3-.6-.3-1ZM482.6,80.5v-2.2h.7v2.2c0,.3,0,.6.2.8.1.2.4.2.6.2s.5,0,.6-.2c.2-.1.3-.3.3-.5,0-.2.1-.5.1-.7v-1.7h.7v3.5c0,0,0,.1,0,.2h-.7v-.6c0,0-.2.2-.3.3-.1,0-.2.2-.4.2-.2,0-.4.1-.6.1-.5,0-.8-.1-1.1-.4s-.3-.7-.3-1.1ZM487.6,82h-.7v-3.4h0c0-.2,0-.3,0-.4h.7v.6c0,0,.2-.2.3-.3.1-.1.2-.2.4-.3s.4-.1.6-.1.2,0,.2,0c0,0,.1,0,.2,0l-.2.7c0,0-.2,0-.4,0s-.4,0-.6.2c-.2.1-.3.2-.4.4,0,.2-.1.4-.1.6v2ZM492.6,81l.4.4c0,0-.1.1-.3.3-.1.1-.3.2-.5.3-.2,0-.5.1-.8.1s-.7,0-1-.2c-.3-.2-.5-.4-.7-.7-.2-.3-.2-.7-.2-1s0-.7.2-1c.2-.3.4-.5.7-.7.3-.2.6-.3,1-.3s.8.1,1,.3c.3.2.5.5.6.8.1.3.2.7.2,1.1h-2.9c0,.2,0,.4.2.6.1.2.3.3.4.4.2,0,.4.1.6.1.3,0,.6,0,.8-.2.2-.1.4-.2.4-.3ZM490.2,79.8h2.2c0-.3-.1-.5-.3-.7-.2-.2-.4-.3-.8-.3s-.4,0-.6.2c-.2.1-.3.2-.4.4,0,.2-.1.3-.1.5ZM496.1,83.6h-.7v-4.9h0c0-.2,0-.3,0-.4h.7v.5c0,0,.2-.1.3-.2.1,0,.2-.2.4-.3.2,0,.4-.1.6-.1.4,0,.7,0,.9.3.3.2.4.4.6.7.1.3.2.6.2,1s0,.6-.2.9c-.1.2-.3.4-.4.6-.2.2-.4.3-.6.4-.2,0-.4.1-.7.1s-.4,0-.6,0c-.1,0-.3-.1-.4-.2v1.7ZM496.1,80.2v1c0,0,.2.1.4.2.2,0,.4,0,.6,0s.5,0,.6-.2c.2-.1.3-.3.4-.5.1-.2.2-.4.2-.7s0-.5-.1-.7c0-.2-.2-.4-.3-.5-.2-.1-.4-.2-.6-.2s-.5,0-.7.2c-.2.1-.3.3-.4.6,0,0,0,.2,0,.3,0,0,0,.2,0,.3ZM502.8,81l.4.4c0,0-.1.1-.3.3-.1.1-.3.2-.5.3-.2,0-.5.1-.8.1s-.7,0-1-.2c-.3-.2-.5-.4-.7-.7-.2-.3-.2-.7-.2-1s0-.7.2-1c.2-.3.4-.5.7-.7.3-.2.6-.3,1-.3s.8.1,1,.3.5.5.6.8c.1.3.2.7.2,1.1h-2.9c0,.2,0,.4.2.6.1.2.3.3.4.4.2,0,.4.1.6.1.3,0,.6,0,.8-.2.2-.1.4-.2.4-.3ZM500.4,79.8h2.2c0-.3-.1-.5-.3-.7-.2-.2-.4-.3-.8-.3s-.4,0-.6.2c-.2.1-.3.2-.4.4,0,.2-.1.3-.1.5ZM504.8,82h-.7v-3.4h0c0-.2,0-.3,0-.4h.7v.6c0,0,.2-.2.3-.3.1-.1.2-.2.4-.3s.4-.1.6-.1.2,0,.2,0c0,0,.1,0,.2,0l-.2.7c0,0-.2,0-.4,0s-.4,0-.6.2c-.2.1-.3.2-.4.4,0,.2-.1.4-.1.6v2ZM507.3,82v-3.1h-.7v-.6h.7v-.3c0-.3,0-.6.2-.8.1-.2.3-.4.5-.5.2-.1.4-.2.6-.2s.4,0,.6,0c.2,0,.4.2.5.3l-.4.5c-.2-.2-.4-.2-.6-.2s-.4,0-.5.2c-.1.1-.2.4-.2.7v.2h1.1v.6h-1.1v3.1h-.7ZM511.3,82.1c-.4,0-.7,0-1-.3-.3-.2-.5-.4-.7-.7-.2-.3-.2-.6-.2-1s0-.7.2-1c.2-.3.4-.5.7-.7.3-.2.6-.3,1-.3s.7,0,1,.3c.3.2.5.4.7.7.2.3.3.6.3,1s0,.7-.3,1c-.2.3-.4.5-.7.7-.3.2-.6.3-1,.3ZM511.3,81.5c.3,0,.5,0,.7-.2.2-.1.3-.3.4-.5.1-.2.2-.4.2-.6s0-.4-.2-.6c0-.2-.2-.4-.4-.5-.2-.1-.4-.2-.7-.2s-.5,0-.7.2c-.2.1-.3.3-.4.5,0,.2-.1.4-.1.6s0,.4.2.6c.1.2.2.4.4.5.2.1.4.2.7.2ZM514.8,82h-.7v-3.4h0c0-.2,0-.3,0-.4h.7v.6c0,0,.2-.2.3-.3.1-.1.2-.2.4-.3.2,0,.4-.1.6-.1s.2,0,.2,0c0,0,.1,0,.2,0l-.2.7c0,0-.2,0-.4,0s-.4,0-.6.2c-.2.1-.3.2-.4.4s-.1.4-.1.6v2ZM517.7,82h-.7v-3.3h0c0-.2,0-.3,0-.4h.7v.6c0,0,.2-.2.3-.3.1-.1.2-.2.4-.3.2,0,.4-.1.6-.1s.5,0,.7.2c.2.1.3.3.4.5.1-.2.3-.3.6-.5.2-.1.5-.2.8-.2.5,0,.8.1,1.1.4.2.3.3.7.3,1.1v2.2h-.7v-2.2c0-.7-.3-1-.8-1s-.4,0-.5.2c-.2.1-.3.2-.4.4,0,.2-.1.3-.1.6v2.1h-.7v-2.2c0-.3,0-.6-.2-.8-.1-.2-.3-.2-.6-.2s-.5,0-.6.2c-.2.1-.3.3-.3.6,0,.2,0,.4,0,.7v1.7ZM526.1,82v-.4c-.2.2-.3.3-.6.4-.2,0-.5.1-.7.1s-.4,0-.6-.1c-.2,0-.4-.2-.5-.4-.1-.2-.2-.4-.2-.7,0-.4.1-.7.4-1,.3-.2.7-.4,1.2-.4s.2,0,.4,0c.1,0,.2,0,.3,0,.1,0,.2,0,.2,0h0c0-.4,0-.6-.3-.7-.2-.1-.4-.2-.7-.2s-.5,0-.7.1c-.2,0-.3.2-.4.2l-.3-.5c.1-.1.3-.2.6-.3.2-.1.6-.2,1-.2s.8.1,1.1.4c.3.2.4.6.4,1v2.2h0c0,.2,0,.3,0,.3h-.7ZM526.1,80.7v-.4s0,0-.2,0c0,0-.2,0-.3,0-.1,0-.2,0-.3,0-.3,0-.5,0-.6.1-.1,0-.2.2-.3.3,0,.1,0,.2,0,.3,0,.2,0,.3.2.5.1.1.3.2.6.2s.4,0,.5-.1c.2,0,.3-.2.4-.3.1-.1.2-.3.2-.4ZM528.5,82h-.7v-3.3h0c0-.2,0-.3,0-.4h.7v.6c0,0,.2-.2.3-.3.1-.1.2-.2.4-.3.2,0,.4-.1.6-.1.5,0,.8.1,1.1.4.2.3.4.7.4,1.1v2.2h-.7v-2.2c0-.3,0-.6-.2-.8-.1-.2-.4-.2-.6-.2s-.5,0-.6.2c-.2.1-.3.3-.3.5,0,.2,0,.5,0,.7v1.7ZM534.9,81l.4.5c-.2.2-.4.3-.6.5-.2.1-.5.2-.8.2s-.7,0-1-.3c-.3-.2-.5-.4-.7-.7-.2-.3-.2-.6-.2-1s0-.7.2-1c.2-.3.4-.5.7-.7.3-.2.6-.3,1-.3s.6,0,.8.2.4.3.6.5l-.5.5c-.1-.1-.2-.2-.4-.3-.2,0-.3-.1-.6-.1s-.5,0-.7.2c-.2.1-.3.3-.4.5,0,.2-.1.4-.1.7s0,.4.1.7c.1.2.2.4.4.5.2.1.4.2.7.2s.4,0,.6-.1c.2,0,.3-.2.4-.3ZM538.8,81l.4.4c0,0-.1.1-.3.3-.1.1-.3.2-.5.3-.2,0-.5.1-.8.1s-.7,0-1-.2c-.3-.2-.5-.4-.7-.7-.2-.3-.2-.7-.2-1s0-.7.2-1c.2-.3.4-.5.7-.7.3-.2.6-.3,1-.3s.8.1,1,.3c.3.2.5.5.6.8.1.3.2.7.2,1.1h-2.9c0,.2,0,.4.2.6.1.2.3.3.4.4.2,0,.4.1.6.1.3,0,.6,0,.8-.2.2-.1.4-.2.4-.3ZM536.4,79.8h2.2c0-.3-.1-.5-.3-.7-.2-.2-.4-.3-.8-.3s-.4,0-.6.2c-.2.1-.3.2-.4.4,0,.2-.1.3-.1.5ZM540.2,82v-.9h.9v.9h-.9ZM543.7,82v-5.3h.8v5.3h-.8ZM545.4,81.5l.4-.5c.1.1.3.2.5.3.2,0,.4.1.6.1s.4,0,.6-.1c.2,0,.2-.2.2-.4s0-.2,0-.3c0,0-.2-.1-.3-.2-.2,0-.4-.1-.6-.2-.2,0-.4-.1-.6-.2-.2,0-.3-.2-.4-.3-.1-.1-.2-.3-.2-.6s0-.4.2-.6c.1-.2.3-.3.6-.4.2,0,.5-.1.7-.1s.6,0,.8.1c.2,0,.4.2.6.3l-.4.5c-.1-.1-.3-.2-.4-.3-.2,0-.4-.1-.6-.1s-.4,0-.6.1c-.1,0-.2.2-.2.4s0,.3.3.4c.2,0,.4.1.7.2.2,0,.4.1.6.2.2,0,.3.2.5.4.1.1.2.3.2.6s0,.5-.2.6c-.1.2-.3.3-.6.4-.2,0-.5.1-.8.1-.7,0-1.2-.2-1.6-.6ZM549.2,81.5l.4-.5c.1.1.3.2.5.3.2,0,.4.1.6.1s.4,0,.6-.1c.2,0,.2-.2.2-.4s0-.2,0-.3c0,0-.2-.1-.3-.2-.2,0-.4-.1-.6-.2-.2,0-.4-.1-.6-.2-.2,0-.3-.2-.4-.3-.1-.1-.2-.3-.2-.6s0-.4.2-.6c.1-.2.3-.3.6-.4.2,0,.5-.1.7-.1s.6,0,.8.1c.2,0,.4.2.6.3l-.4.5c-.1-.1-.3-.2-.4-.3-.2,0-.4-.1-.6-.1s-.4,0-.6.1c-.1,0-.2.2-.2.4s0,.3.3.4c.2,0,.4.1.7.2.2,0,.4.1.6.2.2,0,.3.2.5.4.1.1.2.3.2.6s0,.5-.2.6c-.1.2-.3.3-.6.4-.2,0-.5.1-.8.1-.7,0-1.2-.2-1.6-.6ZM553.1,80.5v-2.2h.7v2.2c0,.3,0,.6.2.8.1.2.4.2.6.2s.5,0,.6-.2c.2-.1.3-.3.3-.5,0-.2.1-.5.1-.7v-1.7h.7v3.5c0,0,0,.1,0,.2h-.7v-.6c0,0-.2.2-.3.3-.1,0-.2.2-.4.2-.2,0-.4.1-.6.1-.5,0-.8-.1-1.1-.4s-.3-.7-.3-1.1ZM560.5,81l.4.4c0,0-.2.1-.3.3-.1.1-.3.2-.5.3-.2,0-.5.1-.8.1s-.7,0-1-.2c-.3-.2-.5-.4-.7-.7-.2-.3-.2-.7-.2-1s0-.7.2-1c.2-.3.4-.5.7-.7.3-.2.6-.3,1-.3s.8.1,1,.3c.3.2.5.5.6.8.1.3.2.7.2,1.1h-2.9c0,.2,0,.4.2.6.1.2.3.3.4.4.2,0,.4.1.6.1.3,0,.6,0,.8-.2.2-.1.4-.2.4-.3ZM558.1,79.8h2.2c0-.3-.1-.5-.3-.7-.2-.2-.4-.3-.8-.3s-.4,0-.6.2c-.2.1-.3.2-.4.4,0,.2-.1.3-.1.5ZM564.5,82v-.5c0,0-.1.1-.2.2,0,0-.2.2-.4.3-.2,0-.4.1-.6.1s-.6,0-.8-.2c-.3-.2-.4-.4-.6-.7s-.2-.6-.2-1,0-.7.2-.9c.1-.3.3-.5.5-.6.2-.2.4-.3.6-.4.2,0,.4-.1.6-.1s.4,0,.5,0c.1,0,.3.1.4.2v-1.8h.7v5.1c0,0,0,.1,0,.2h-.7ZM564.5,80.4v-1.3c0,0-.2-.1-.4-.2-.1,0-.3,0-.5,0-.3,0-.6.1-.9.4-.2.2-.3.6-.3,1s0,.5.1.6c0,.2.2.4.4.5.2.1.4.2.6.2s.5,0,.6-.2c.2-.1.3-.3.3-.4,0-.2.1-.3.1-.5ZM567.6,81.9v-5.2h.7v2c0-.1.2-.2.4-.3.2-.1.4-.2.8-.2s.7,0,.9.3c.3.2.4.4.6.7.1.3.2.6.2,1s0,.7-.3,1c-.2.3-.4.5-.7.7-.3.2-.7.3-1.1.3s-.6,0-.8,0c-.3,0-.5-.1-.6-.2ZM568.3,79.9v1.5c0,0,.2,0,.3,0,.1,0,.3,0,.5,0,.4,0,.7-.1,1-.4.2-.3.4-.6.4-1s0-.4-.1-.6c0-.2-.2-.4-.3-.5-.2-.1-.4-.2-.6-.2s-.4,0-.6.2c-.2.1-.3.2-.4.4,0,.2-.1.3-.1.5ZM571.5,83.4l.3-.5c0,0,.1,0,.2.1,0,0,.2,0,.3,0,.2,0,.3,0,.4-.2,0-.1.2-.4.3-.7v-.2c0,0-1.6-3.7-1.6-3.7h.8l1.2,2.8,1.1-2.8h.8l-1.5,3.6c0,.2-.1.3-.2.6,0,.2-.2.4-.3.6-.1.2-.2.3-.4.5-.2.1-.3.2-.6.2s-.3,0-.5,0c-.1,0-.2-.1-.3-.2ZM577.4,82v-5.3h.8v2.2h2.9v-2.2h.8v5.3h-.8v-2.4h-2.9v2.4h-.8ZM584.7,82.1c-.4,0-.7,0-1-.3-.3-.2-.5-.4-.7-.7-.2-.3-.2-.6-.2-1s0-.7.2-1c.2-.3.4-.5.7-.7.3-.2.6-.3,1-.3s.7,0,1,.3c.3.2.5.4.7.7.2.3.3.6.3,1s0,.7-.3,1c-.2.3-.4.5-.7.7-.3.2-.6.3-1,.3ZM584.7,81.5c.3,0,.5,0,.7-.2.2-.1.3-.3.4-.5.1-.2.2-.4.2-.6s0-.4-.2-.6c0-.2-.2-.4-.4-.5-.2-.1-.4-.2-.7-.2s-.5,0-.7.2c-.2.1-.3.3-.4.5,0,.2-.1.4-.1.6s0,.4.2.6c.1.2.2.4.4.5.2.1.4.2.7.2ZM587.3,81.5l.4-.5c.1.1.3.2.5.3.2,0,.4.1.6.1s.4,0,.6-.1c.2,0,.2-.2.2-.4s0-.2,0-.3c0,0-.2-.1-.3-.2-.2,0-.4-.1-.6-.2-.2,0-.4-.1-.6-.2-.2,0-.3-.2-.4-.3-.1-.1-.2-.3-.2-.6s0-.4.2-.6c.1-.2.3-.3.6-.4.2,0,.5-.1.7-.1s.6,0,.8.1c.2,0,.4.2.6.3l-.4.5c-.1-.1-.3-.2-.4-.3-.2,0-.4-.1-.6-.1s-.4,0-.6.1c-.1,0-.2.2-.2.4s0,.3.3.4c.2,0,.4.1.7.2.2,0,.4.1.6.2.2,0,.3.2.5.4.1.1.2.3.2.6s0,.5-.2.6c-.1.2-.3.3-.6.4-.2,0-.5.1-.8.1-.7,0-1.2-.2-1.6-.6ZM591.6,80.8v-1.9h-.7v-.6h.7v-1.2h.7v1.2h1.1v.6h-1.1v1.8c0,.3,0,.5.1.6,0,.1.2.2.4.2s.3,0,.3,0c0,0,.2-.1.3-.2l.3.4c-.2.1-.3.3-.5.3-.2,0-.4.1-.6.1-.4,0-.7-.1-.9-.3-.2-.2-.3-.6-.3-1ZM594.2,80.1v-.7h2.3v.7h-2.3ZM597.8,82v-5.3h1.7c.4,0,.7,0,.9.2.2,0,.4.2.6.4.1.2.2.3.3.5,0,.2,0,.4,0,.6,0,.4,0,.7-.2.9-.2.2-.4.4-.6.5-.3.1-.6.2-.9.2h-1v2.1h-.8ZM598.5,79.2h1c.3,0,.6,0,.8-.3.2-.2.3-.4.3-.7s0-.5-.3-.7c-.2-.2-.4-.3-.8-.3h-1v1.9ZM602,82v-5.3h.7v5.3h-.7ZM603.7,80.5v-2.2h.7v2.2c0,.3,0,.6.2.8.1.2.4.2.6.2s.5,0,.6-.2c.2-.1.3-.3.3-.5,0-.2.1-.5.1-.7v-1.7h.7v3.5c0,0,0,.1,0,.2h-.7v-.6c0,0-.2.2-.3.3-.1,0-.2.2-.4.2-.2,0-.4.1-.6.1-.5,0-.8-.1-1.1-.4-.2-.3-.3-.7-.3-1.1ZM607.9,81.5l.4-.5c.1.1.3.2.5.3.2,0,.4.1.6.1s.4,0,.6-.1c.2,0,.2-.2.2-.4s0-.2,0-.3c0,0-.2-.1-.3-.2-.2,0-.4-.1-.6-.2-.2,0-.4-.1-.6-.2-.2,0-.3-.2-.4-.3-.1-.1-.2-.3-.2-.6s0-.4.2-.6c.1-.2.3-.3.6-.4.2,0,.5-.1.7-.1s.6,0,.8.1c.2,0,.4.2.6.3l-.4.5c-.1-.1-.3-.2-.4-.3-.2,0-.4-.1-.6-.1s-.4,0-.6.1c-.1,0-.2.2-.2.4s0,.3.3.4c.2,0,.4.1.7.2.2,0,.4.1.6.2.2,0,.3.2.5.4.1.1.2.3.2.6s0,.5-.2.6c-.1.2-.3.3-.6.4-.2,0-.5.1-.8.1-.7,0-1.2-.2-1.6-.6ZM613.4,82v-5.3h1.7c.4,0,.7,0,.9.2.2,0,.4.2.6.4.1.2.2.3.3.5,0,.2,0,.4,0,.6,0,.4,0,.7-.2.9-.2.2-.4.4-.6.5-.3.1-.6.2-.9.2h-1v2.1h-.8ZM614.1,79.2h1c.3,0,.6,0,.8-.3.2-.2.3-.4.3-.7s0-.5-.3-.7c-.2-.2-.4-.3-.8-.3h-1v1.9ZM618.1,80.8v-1.9h-.7v-.6h.7v-1.2h.7v1.2h1.1v.6h-1.1v1.8c0,.3,0,.5.1.6,0,.1.2.2.4.2s.3,0,.3,0c0,0,.2-.1.3-.2l.3.4c-.2.1-.3.3-.5.3-.2,0-.4.1-.6.1-.4,0-.7-.1-.9-.3-.2-.2-.3-.6-.3-1ZM620.4,83.4l.3-.5c0,0,.1,0,.2.1,0,0,.2,0,.3,0,.2,0,.3,0,.4-.2,0-.1.2-.4.3-.7v-.2c0,0-1.6-3.7-1.6-3.7h.8l1.2,2.8,1.1-2.8h.8l-1.5,3.6c0,.2-.1.3-.2.6,0,.2-.2.4-.3.6-.1.2-.2.3-.4.5-.2.1-.3.2-.6.2s-.3,0-.5,0c-.1,0-.2-.1-.3-.2ZM626.3,82v-5.3h.8v4.7h2.8v.7h-3.5ZM630.5,77.6v-.8h.8v.8h-.8ZM630.6,82v-3.7h.7v3.7h-.7ZM633.1,82h-.7v-3.3h0c0-.2,0-.3,0-.4h.7v.6c0,0,.2-.2.3-.3.1-.1.2-.2.4-.3.2,0,.4-.1.6-.1s.5,0,.7.2c.2.1.3.3.4.5.1-.2.3-.3.6-.5.2-.1.5-.2.8-.2.5,0,.8.1,1.1.4.2.3.3.7.3,1.1v2.2h-.7v-2.2c0-.7-.3-1-.8-1s-.4,0-.5.2c-.2.1-.3.2-.4.4,0,.2-.1.3-.1.6v2.1h-.7v-2.2c0-.3,0-.6-.2-.8-.1-.2-.3-.2-.6-.2s-.5,0-.6.2c-.2.1-.3.3-.3.6,0,.2,0,.4,0,.7v1.7ZM639.1,77.6v-.8h.8v.8h-.8ZM639.2,82v-3.7h.7v3.7h-.7ZM641.2,80.8v-1.9h-.7v-.6h.7v-1.2h.7v1.2h1.1v.6h-1.1v1.8c0,.3,0,.5.1.6,0,.1.2.2.4.2s.3,0,.3,0c0,0,.2-.1.3-.2l.3.4c-.2.1-.3.3-.5.3-.2,0-.4.1-.6.1-.4,0-.7-.1-.9-.3-.2-.2-.3-.6-.3-1ZM646.7,81l.4.4c0,0-.1.1-.3.3-.1.1-.3.2-.5.3-.2,0-.5.1-.8.1s-.7,0-1-.2c-.3-.2-.5-.4-.7-.7-.2-.3-.2-.7-.2-1s0-.7.2-1c.2-.3.4-.5.7-.7.3-.2.6-.3,1-.3s.8.1,1,.3c.3.2.5.5.6.8.1.3.2.7.2,1.1h-2.9c0,.2,0,.4.2.6.1.2.3.3.4.4.2,0,.4.1.6.1.3,0,.6,0,.8-.2.2-.1.4-.2.4-.3ZM644.3,79.8h2.2c0-.3-.1-.5-.3-.7-.2-.2-.4-.3-.8-.3s-.4,0-.6.2c-.2.1-.3.2-.4.4,0,.2-.1.3-.1.5ZM650.7,82v-.5c0,0-.1.1-.2.2,0,0-.2.2-.4.3-.2,0-.4.1-.6.1s-.6,0-.8-.2c-.2-.2-.4-.4-.6-.7-.1-.3-.2-.6-.2-1s0-.7.2-.9c.1-.3.3-.5.5-.6.2-.2.4-.3.6-.4.2,0,.4-.1.6-.1s.4,0,.5,0c.2,0,.3.1.4.2v-1.8h.7v5.1c0,0,0,.1,0,.2h-.7ZM650.7,80.4v-1.3c0,0-.2-.1-.4-.2-.1,0-.3,0-.5,0-.3,0-.6.1-.9.4-.2.2-.3.6-.3,1s0,.5.1.6c0,.2.2.4.4.5.2.1.4.2.6.2s.5,0,.6-.2c.2-.1.3-.3.3-.4,0-.2.1-.3.1-.5ZM652.5,82v-.9h.9v.9h-.9Z" fill="#99a9bb" stroke-width="0"/>
</svg>