<svg width="257" height="23" viewBox="0 0 257 23" fill="none" xmlns="http://www.w3.org/2000/svg">
<path d="M10.89 19.5532C14.805 19.5532 17.27 16.5662 17.27 12.0712V11.8392C17.27 7.57621 14.892 4.41521 10.832 4.41521C6.772 4.41521 4.365 7.40221 4.365 11.8682V12.1002C4.365 16.6242 7.12 19.5532 10.89 19.5532ZM10.832 22.6562C4.481 22.6562 0.334 18.1032 0.334 12.1292V11.8972C0.334 5.83621 4.684 1.34121 10.832 1.34121C17.009 1.34121 21.272 5.72021 21.272 11.8102V12.0422C21.272 18.1032 17.125 22.6562 10.832 22.6562ZM37.0983 22.6562C32.7483 22.6562 29.4423 19.8142 29.4423 14.9712V14.7392C29.4423 9.92521 32.8643 6.88021 37.0983 6.88021C40.4623 6.88021 43.6233 8.38821 44.0293 12.5642H40.6363C40.3463 10.5342 39.0123 9.69321 37.1563 9.69321C34.7493 9.69321 33.0383 11.5492 33.0383 14.6812V14.9132C33.0383 18.2192 34.6623 19.9592 37.2433 19.9592C39.0993 19.9592 40.6943 18.8572 40.8973 16.7112H44.1163C43.8553 20.1912 41.2163 22.6562 37.0983 22.6562ZM53.344 19.9302C55.954 19.9302 57.52 17.9872 57.52 14.8842V14.6812C57.52 11.5492 55.954 9.63521 53.344 9.63521C50.734 9.63521 49.139 11.5202 49.139 14.6522V14.8842C49.139 17.9872 50.676 19.9302 53.344 19.9302ZM53.315 22.6562C48.849 22.6562 45.543 19.5532 45.543 14.9422V14.7102C45.543 10.0122 48.878 6.88021 53.344 6.88021C57.781 6.88021 61.116 9.98321 61.116 14.6232V14.8552C61.116 19.5822 57.781 22.6562 53.315 22.6562ZM72.1745 22.6562C69.7675 22.6562 68.0275 21.4672 67.2155 19.9302V22.3662H63.7065V0.18121H67.2155V9.63521C68.0565 8.18521 69.9415 6.88021 72.1745 6.88021C75.9735 6.88021 78.9025 9.69321 78.9025 14.5942V14.8262C78.9025 19.6982 76.0895 22.6562 72.1745 22.6562ZM71.3045 19.8722C73.8855 19.8722 75.3065 18.1322 75.3065 14.8842V14.6522C75.3065 11.2882 73.5665 9.63521 71.2755 9.63521C68.8395 9.63521 67.0995 11.2882 67.0995 14.6522V14.8842C67.0995 18.2772 68.7525 19.8722 71.3045 19.8722ZM81.478 22.3662V7.19921H84.987V10.0412C85.944 8.12721 87.365 6.99621 89.917 6.96721V10.2442C86.843 10.2732 84.987 11.2592 84.987 14.4782V22.3662H81.478ZM98.8112 22.6562C94.3452 22.6562 91.1262 19.7272 91.1262 14.9422V14.7102C91.1262 10.0122 94.3452 6.88021 98.6662 6.88021C102.436 6.88021 105.829 9.11321 105.829 14.5362V15.5512H94.7222C94.8382 18.4222 96.2882 20.0462 98.8982 20.0462C101.015 20.0462 102.117 19.2052 102.378 17.7262H105.771C105.278 20.9162 102.697 22.6562 98.8112 22.6562ZM94.7802 13.2022H102.349C102.175 10.5922 100.841 9.43221 98.6662 9.43221C96.5492 9.43221 95.1282 10.8532 94.7802 13.2022ZM119.731 4.93721L121.442 0.44221H125.328L122.312 4.93721H119.731ZM121.384 22.6562C116.918 22.6562 113.699 19.7272 113.699 14.9422V14.7102C113.699 10.0122 116.918 6.88021 121.239 6.88021C125.009 6.88021 128.402 9.11321 128.402 14.5362V15.5512H117.295C117.411 18.4222 118.861 20.0462 121.471 20.0462C123.588 20.0462 124.69 19.2052 124.951 17.7262H128.344C127.851 20.9162 125.27 22.6562 121.384 22.6562ZM117.353 13.2022H124.922C124.748 10.5922 123.414 9.43221 121.239 9.43221C119.122 9.43221 117.701 10.8532 117.353 13.2022ZM143.956 22.6562C139.49 22.6562 136.271 19.7272 136.271 14.9422V14.7102C136.271 10.0122 139.49 6.88021 143.811 6.88021C147.581 6.88021 150.974 9.11321 150.974 14.5362V15.5512H139.867C139.983 18.4222 141.433 20.0462 144.043 20.0462C146.16 20.0462 147.262 19.2052 147.523 17.7262H150.916C150.423 20.9162 147.842 22.6562 143.956 22.6562ZM139.925 13.2022H147.494C147.32 10.5922 145.986 9.43221 143.811 9.43221C141.694 9.43221 140.273 10.8532 139.925 13.2022ZM158.861 22.6562C154.946 22.6562 152.655 20.8582 152.51 17.6392H155.816C155.99 19.1762 156.773 20.0752 158.832 20.0752C160.717 20.0752 161.558 19.4082 161.558 18.1322C161.558 16.8852 160.543 16.4212 158.31 16.0442C154.308 15.4062 152.829 14.2752 152.829 11.4332C152.829 8.38821 155.671 6.88021 158.513 6.88021C161.616 6.88021 164.081 8.04021 164.458 11.4622H161.21C160.92 10.0702 160.137 9.43221 158.513 9.43221C157.005 9.43221 156.106 10.1572 156.106 11.2302C156.106 12.3322 156.831 12.7672 159.238 13.1732C162.805 13.7242 164.922 14.5942 164.922 17.8132C164.922 20.8872 162.747 22.6562 158.861 22.6562ZM172.611 22.6562C168.696 22.6562 166.405 20.8582 166.26 17.6392H169.566C169.74 19.1762 170.523 20.0752 172.582 20.0752C174.467 20.0752 175.308 19.4082 175.308 18.1322C175.308 16.8852 174.293 16.4212 172.06 16.0442C168.058 15.4062 166.579 14.2752 166.579 11.4332C166.579 8.38821 169.421 6.88021 172.263 6.88021C175.366 6.88021 177.831 8.04021 178.208 11.4622H174.96C174.67 10.0702 173.887 9.43221 172.263 9.43221C170.755 9.43221 169.856 10.1572 169.856 11.2302C169.856 12.3322 170.581 12.7672 172.988 13.1732C176.555 13.7242 178.672 14.5942 178.672 17.8132C178.672 20.8872 176.497 22.6562 172.611 22.6562ZM187.84 22.6562C183.374 22.6562 180.155 19.7272 180.155 14.9422V14.7102C180.155 10.0122 183.374 6.88021 187.695 6.88021C191.465 6.88021 194.858 9.11321 194.858 14.5362V15.5512H183.751C183.867 18.4222 185.317 20.0462 187.927 20.0462C190.044 20.0462 191.146 19.2052 191.407 17.7262H194.8C194.307 20.9162 191.726 22.6562 187.84 22.6562ZM183.809 13.2022H191.378C191.204 10.5922 189.87 9.43221 187.695 9.43221C185.578 9.43221 184.157 10.8532 183.809 13.2022ZM197.412 22.3662V7.19921H200.921V9.60621C201.646 8.12721 203.328 6.88021 205.822 6.88021C208.867 6.88021 211.013 8.64921 211.013 12.8252V22.3662H207.504V13.1442C207.504 10.8532 206.576 9.80921 204.488 9.80921C202.516 9.80921 200.921 11.0272 200.921 13.4342V22.3662H197.412ZM221.117 22.6562C216.767 22.6562 213.461 19.8142 213.461 14.9712V14.7392C213.461 9.92521 216.883 6.88021 221.117 6.88021C224.481 6.88021 227.642 8.38821 228.048 12.5642H224.655C224.365 10.5342 223.031 9.69321 221.175 9.69321C218.768 9.69321 217.057 11.5492 217.057 14.6812V14.9132C217.057 18.2192 218.681 19.9592 221.262 19.9592C223.118 19.9592 224.713 18.8572 224.916 16.7112H228.135C227.874 20.1912 225.235 22.6562 221.117 22.6562ZM230.664 22.3662V7.19921H234.173V22.3662H230.664ZM232.375 4.70521C231.215 4.70521 230.287 3.83521 230.287 2.70421C230.287 1.54421 231.215 0.67421 232.375 0.67421C233.535 0.67421 234.463 1.54421 234.463 2.70421C234.463 3.83521 233.535 4.70521 232.375 4.70521ZM241.843 22.6562C239.059 22.6562 236.768 21.3222 236.768 18.1612C236.768 14.6232 240.19 13.3472 244.54 13.3472H246.425V12.5642C246.425 10.5342 245.729 9.51921 243.67 9.51921C241.843 9.51921 240.944 10.3892 240.77 11.8972H237.377C237.667 8.35921 240.48 6.88021 243.873 6.88021C247.266 6.88021 249.934 8.27221 249.934 12.4192V22.3662H246.483V20.5102C245.497 21.8152 244.163 22.6562 241.843 22.6562ZM242.684 20.1332C244.83 20.1332 246.425 19.0022 246.425 17.0592V15.5512H244.627C241.959 15.5512 240.248 16.1602 240.248 18.0162C240.248 19.2922 240.944 20.1332 242.684 20.1332ZM253.463 22.3662V0.18121H256.972V22.3662H253.463Z" fill="black"/>
</svg>
