<svg width="365" height="29" viewBox="0 0 365 29" fill="none" xmlns="http://www.w3.org/2000/svg">
<path d="M0.0880001 27.191V6.833H3.597V9.269C4.438 7.819 6.323 6.514 8.556 6.514C12.355 6.514 15.284 9.327 15.284 14.228V14.46C15.284 19.332 12.471 22.29 8.556 22.29C6.149 22.29 4.409 21.101 3.597 19.622V27.191H0.0880001ZM7.686 19.506C10.267 19.506 11.688 17.766 11.688 14.518V14.286C11.688 10.922 9.948 9.269 7.657 9.269C5.221 9.269 3.481 10.922 3.481 14.286V14.518C3.481 17.911 5.134 19.506 7.686 19.506ZM21.8326 22.29C19.0486 22.29 16.7576 20.956 16.7576 17.795C16.7576 14.257 20.1796 12.981 24.5296 12.981H26.4146V12.198C26.4146 10.168 25.7186 9.153 23.6596 9.153C21.8326 9.153 20.9336 10.023 20.7596 11.531H17.3666C17.6566 7.993 20.4696 6.514 23.8626 6.514C27.2556 6.514 29.9236 7.906 29.9236 12.053V22H26.4726V20.144C25.4866 21.449 24.1526 22.29 21.8326 22.29ZM22.6736 19.767C24.8196 19.767 26.4146 18.636 26.4146 16.693V15.185H24.6166C21.9486 15.185 20.2376 15.794 20.2376 17.65C20.2376 18.926 20.9336 19.767 22.6736 19.767ZM33.3655 22V6.833H36.8745V9.675C37.8315 7.761 39.2525 6.63 41.8045 6.601V9.878C38.7305 9.907 36.8745 10.893 36.8745 14.112V22H33.3655ZM48.0017 22.29C45.2177 22.29 42.9267 20.956 42.9267 17.795C42.9267 14.257 46.3487 12.981 50.6987 12.981H52.5837V12.198C52.5837 10.168 51.8877 9.153 49.8287 9.153C48.0017 9.153 47.1027 10.023 46.9287 11.531H43.5357C43.8257 7.993 46.6387 6.514 50.0317 6.514C53.4247 6.514 56.0927 7.906 56.0927 12.053V22H52.6417V20.144C51.6557 21.449 50.3217 22.29 48.0017 22.29ZM48.8427 19.767C50.9887 19.767 52.5837 18.636 52.5837 16.693V15.185H50.7857C48.1177 15.185 46.4067 15.794 46.4067 17.65C46.4067 18.926 47.1027 19.767 48.8427 19.767ZM69.8378 22.29C67.0538 22.29 64.7628 20.956 64.7628 17.795C64.7628 14.257 68.1848 12.981 72.5348 12.981H74.4198V12.198C74.4198 10.168 73.7238 9.153 71.6648 9.153C69.8378 9.153 68.9388 10.023 68.7648 11.531H65.3718C65.6618 7.993 68.4748 6.514 71.8678 6.514C75.2608 6.514 77.9288 7.906 77.9288 12.053V22H74.4778V20.144C73.4918 21.449 72.1578 22.29 69.8378 22.29ZM70.6788 19.767C72.8248 19.767 74.4198 18.636 74.4198 16.693V15.185H72.6218C69.9538 15.185 68.2428 15.794 68.2428 17.65C68.2428 18.926 68.9388 19.767 70.6788 19.767ZM92.8629 22.261C89.8469 22.261 88.2809 20.637 88.2809 17.766V9.472H86.2509V6.833H88.2809V3.498H91.7899V6.833H95.1249V9.472H91.7899V17.447C91.7899 18.781 92.4279 19.39 93.5299 19.39C94.2259 19.39 94.7479 19.303 95.2409 19.1V21.884C94.6899 22.087 93.9359 22.261 92.8629 22.261ZM97.8259 22V6.833H101.335V9.675C102.292 7.761 103.713 6.63 106.265 6.601V9.878C103.191 9.907 101.335 10.893 101.335 14.112V22H97.8259ZM112.462 22.29C109.678 22.29 107.387 20.956 107.387 17.795C107.387 14.257 110.809 12.981 115.159 12.981H117.044V12.198C117.044 10.168 116.348 9.153 114.289 9.153C112.462 9.153 111.563 10.023 111.389 11.531H107.996C108.286 7.993 111.099 6.514 114.492 6.514C117.885 6.514 120.553 7.906 120.553 12.053V22H117.102V20.144C116.116 21.449 114.782 22.29 112.462 22.29ZM113.303 19.767C115.449 19.767 117.044 18.636 117.044 16.693V15.185H115.246C112.578 15.185 110.867 15.794 110.867 17.65C110.867 18.926 111.563 19.767 113.303 19.767ZM123.995 22V6.833H127.504V9.24C128.229 7.761 129.911 6.514 132.405 6.514C135.45 6.514 137.596 8.283 137.596 12.459V22H134.087V12.778C134.087 10.487 133.159 9.443 131.071 9.443C129.099 9.443 127.504 10.661 127.504 13.068V22H123.995ZM146.25 22.29C142.335 22.29 140.044 20.492 139.899 17.273H143.205C143.379 18.81 144.162 19.709 146.221 19.709C148.106 19.709 148.947 19.042 148.947 17.766C148.947 16.519 147.932 16.055 145.699 15.678C141.697 15.04 140.218 13.909 140.218 11.067C140.218 8.022 143.06 6.514 145.902 6.514C149.005 6.514 151.47 7.674 151.847 11.096H148.599C148.309 9.704 147.526 9.066 145.902 9.066C144.394 9.066 143.495 9.791 143.495 10.864C143.495 11.966 144.22 12.401 146.627 12.807C150.194 13.358 152.311 14.228 152.311 17.447C152.311 20.521 150.136 22.29 146.25 22.29ZM154.896 22V6.833H158.405V22H154.896ZM156.607 4.339C155.447 4.339 154.519 3.469 154.519 2.338C154.519 1.178 155.447 0.307999 156.607 0.307999C157.767 0.307999 158.695 1.178 158.695 2.338C158.695 3.469 157.767 4.339 156.607 4.339ZM168.221 28.351C166.394 28.351 165.205 27.365 165.031 25.799H166.945C167.032 26.292 167.409 26.756 168.105 26.756C168.772 26.756 169.178 26.35 169.178 25.77C169.178 25.219 168.772 24.842 168.163 24.842C167.757 24.842 167.467 24.987 167.293 25.103L166.307 24.175L167.467 22.203C163.755 21.71 161.087 18.984 161.087 14.605V14.373C161.087 9.559 164.509 6.514 168.743 6.514C172.107 6.514 175.268 8.022 175.674 12.198H172.281C171.991 10.168 170.657 9.327 168.801 9.327C166.394 9.327 164.683 11.183 164.683 14.315V14.547C164.683 17.853 166.307 19.593 168.888 19.593C170.744 19.593 172.339 18.491 172.542 16.345H175.761C175.5 19.709 173.035 22.116 169.149 22.29L168.482 23.45C169.932 23.276 171.382 24.03 171.382 25.857C171.382 27.481 170.019 28.351 168.221 28.351ZM182.175 22.29C179.391 22.29 177.1 20.956 177.1 17.795C177.1 14.257 180.522 12.981 184.872 12.981H186.757V12.198C186.757 10.168 186.061 9.153 184.002 9.153C182.175 9.153 181.276 10.023 181.102 11.531H177.709C177.999 7.993 180.812 6.514 184.205 6.514C187.598 6.514 190.266 7.906 190.266 12.053V22H186.815V20.144C185.829 21.449 184.495 22.29 182.175 22.29ZM183.016 19.767C185.162 19.767 186.757 18.636 186.757 16.693V15.185H184.959C182.291 15.185 180.58 15.794 180.58 17.65C180.58 18.926 181.276 19.767 183.016 19.767ZM185.887 4.426C184.495 4.426 183.509 3.266 182.668 3.266C182.146 3.266 181.711 3.759 181.595 4.426H179.42C179.652 1.99 180.899 0.626999 182.523 0.626999C183.857 0.626999 184.872 1.758 185.771 1.758C186.293 1.758 186.699 1.294 186.815 0.597999H188.99C188.758 3.034 187.482 4.426 185.887 4.426ZM200.494 19.564C203.104 19.564 204.67 17.621 204.67 14.518V14.315C204.67 11.183 203.104 9.269 200.494 9.269C197.884 9.269 196.289 11.154 196.289 14.286V14.518C196.289 17.621 197.826 19.564 200.494 19.564ZM200.465 22.29C195.999 22.29 192.693 19.187 192.693 14.576V14.344C192.693 9.646 196.028 6.514 200.494 6.514C204.931 6.514 208.266 9.617 208.266 14.257V14.489C208.266 19.216 204.931 22.29 200.465 22.29ZM223.857 22.29C219.391 22.29 216.172 19.361 216.172 14.576V14.344C216.172 9.646 219.391 6.514 223.712 6.514C227.482 6.514 230.875 8.747 230.875 14.17V15.185H219.768C219.884 18.056 221.334 19.68 223.944 19.68C226.061 19.68 227.163 18.839 227.424 17.36H230.817C230.324 20.55 227.743 22.29 223.857 22.29ZM219.826 12.836H227.395C227.221 10.226 225.887 9.066 223.712 9.066C221.595 9.066 220.174 10.487 219.826 12.836ZM233.429 22V6.833H236.938V9.24C237.663 7.761 239.345 6.514 241.839 6.514C244.884 6.514 247.03 8.283 247.03 12.459V22H243.521V12.778C243.521 10.487 242.593 9.443 240.505 9.443C238.533 9.443 236.938 10.661 236.938 13.068V22H233.429ZM257.163 22.29C252.697 22.29 249.478 19.361 249.478 14.576V14.344C249.478 9.646 252.697 6.514 257.018 6.514C260.788 6.514 264.181 8.747 264.181 14.17V15.185H253.074C253.19 18.056 254.64 19.68 257.25 19.68C259.367 19.68 260.469 18.839 260.73 17.36H264.123C263.63 20.55 261.049 22.29 257.163 22.29ZM253.132 12.836H260.701C260.527 10.226 259.193 9.066 257.018 9.066C254.901 9.066 253.48 10.487 253.132 12.836ZM266.735 22V6.833H270.244V9.675C271.201 7.761 272.622 6.63 275.174 6.601V9.878C272.1 9.907 270.244 10.893 270.244 14.112V22H266.735ZM283.865 27.568C279.109 27.568 276.963 25.422 276.557 22.522H280.095C280.385 24.03 281.545 24.9 283.836 24.9C286.562 24.9 288.07 23.537 288.07 20.811V18.578C287.229 20.028 285.344 21.391 283.111 21.391C279.312 21.391 276.383 18.549 276.383 14.17V13.967C276.383 9.704 279.283 6.514 283.198 6.514C285.692 6.514 287.2 7.645 288.07 9.153V6.833H291.579V20.869C291.55 25.335 288.563 27.568 283.865 27.568ZM283.981 18.694C286.417 18.694 288.186 16.954 288.186 14.054V13.851C288.186 10.98 286.62 9.269 284.097 9.269C281.487 9.269 279.979 11.154 279.979 13.909V14.141C279.979 16.954 281.719 18.694 283.981 18.694ZM300.187 4.571L301.898 0.0759988H305.784L302.768 4.571H300.187ZM301.84 22.29C297.374 22.29 294.155 19.361 294.155 14.576V14.344C294.155 9.646 297.374 6.514 301.695 6.514C305.465 6.514 308.858 8.747 308.858 14.17V15.185H297.751C297.867 18.056 299.317 19.68 301.927 19.68C304.044 19.68 305.146 18.839 305.407 17.36H308.8C308.307 20.55 305.726 22.29 301.84 22.29ZM297.809 12.836H305.378C305.204 10.226 303.87 9.066 301.695 9.066C299.578 9.066 298.157 10.487 297.809 12.836ZM316.574 22.261C313.558 22.261 311.992 20.637 311.992 17.766V9.472H309.962V6.833H311.992V3.498H315.501V6.833H318.836V9.472H315.501V17.447C315.501 18.781 316.139 19.39 317.241 19.39C317.937 19.39 318.459 19.303 318.952 19.1V21.884C318.401 22.087 317.647 22.261 316.574 22.261ZM321.624 22V6.833H325.133V22H321.624ZM323.335 4.339C322.175 4.339 321.247 3.469 321.247 2.338C321.247 1.178 322.175 0.307999 323.335 0.307999C324.495 0.307999 325.423 1.178 325.423 2.338C325.423 3.469 324.495 4.339 323.335 4.339ZM335.471 22.29C331.121 22.29 327.815 19.448 327.815 14.605V14.373C327.815 9.559 331.237 6.514 335.471 6.514C338.835 6.514 341.996 8.022 342.402 12.198H339.009C338.719 10.168 337.385 9.327 335.529 9.327C333.122 9.327 331.411 11.183 331.411 14.315V14.547C331.411 17.853 333.035 19.593 335.616 19.593C337.472 19.593 339.067 18.491 339.27 16.345H342.489C342.228 19.825 339.589 22.29 335.471 22.29ZM348.904 22.29C346.12 22.29 343.829 20.956 343.829 17.795C343.829 14.257 347.251 12.981 351.601 12.981H353.486V12.198C353.486 10.168 352.79 9.153 350.731 9.153C348.904 9.153 348.005 10.023 347.831 11.531H344.438C344.728 7.993 347.541 6.514 350.934 6.514C354.327 6.514 356.995 7.906 356.995 12.053V22H353.544V20.144C352.558 21.449 351.224 22.29 348.904 22.29ZM349.745 19.767C351.891 19.767 353.486 18.636 353.486 16.693V15.185H351.688C349.02 15.185 347.309 15.794 347.309 17.65C347.309 18.926 348.005 19.767 349.745 19.767ZM362.525 22.203C361.249 22.203 360.234 21.217 360.234 19.941C360.234 18.665 361.249 17.65 362.525 17.65C363.83 17.65 364.845 18.665 364.845 19.941C364.845 21.217 363.83 22.203 362.525 22.203Z" fill="black"/>
</svg>
