<svg width="728" height="90" viewBox="0 0 728 90" fill="none" xmlns="http://www.w3.org/2000/svg">
<path d="M421.428 18.0566C426.613 18.0566 430.513 19.7305 433.125 23.0781C435.779 26.4258 437.105 31.8152 437.105 39.2451C437.105 46.6341 435.799 51.9409 433.186 55.166C430.573 58.3504 426.654 59.9434 421.428 59.9434C416.203 59.9433 412.284 58.3503 409.671 55.166C407.059 51.9409 405.752 46.6341 405.751 39.2451C405.751 31.815 407.059 26.4258 409.671 23.0781C412.325 19.7306 416.244 18.0567 421.428 18.0566ZM454.47 18.0566C459.655 18.0566 463.554 19.7306 466.167 23.0781C468.82 26.4258 470.147 31.815 470.147 39.2451C470.147 46.6341 468.841 51.9409 466.228 55.166C463.615 58.3504 459.696 59.9434 454.47 59.9434C449.245 59.9433 445.326 58.3503 442.713 55.166C440.101 51.9409 438.794 46.6342 438.793 39.2451C438.793 31.815 440.101 26.4258 442.713 23.0781C445.367 19.7306 449.286 18.0567 454.47 18.0566ZM403.574 59.208H395.123V28.3447L386.366 33.9785L382.508 27.6709L395.858 18.791H403.574V59.208ZM421.428 25.4053C418.938 25.4054 417.142 26.4257 416.04 28.4668C414.978 30.508 414.448 34.0393 414.448 39.0605C414.448 44.082 414.999 47.5933 416.101 49.5938C417.203 51.5941 419 52.5947 421.49 52.5947C423.98 52.5947 425.756 51.5942 426.818 49.5938C427.879 47.5933 428.41 44.0819 428.41 39.0605C428.41 33.9985 427.879 30.4672 426.818 28.4668C425.756 26.4255 423.959 25.4053 421.428 25.4053ZM454.47 25.4053C451.98 25.4054 450.184 26.4257 449.082 28.4668C448.02 30.508 447.49 34.0393 447.49 39.0605C447.49 44.082 448.041 47.5933 449.143 49.5938C450.245 51.5941 452.041 52.5947 454.532 52.5947C457.022 52.5947 458.798 51.5942 459.86 49.5938C460.921 47.5933 461.452 44.0818 461.452 39.0605C461.452 33.9986 460.921 30.4672 459.86 28.4668C458.798 26.4255 457.001 25.4053 454.47 25.4053ZM376.444 22.8711C377.714 22.994 378.882 23.1574 379.948 23.3623L380.471 23.4854L380.132 26.7441C378.636 26.5802 377.253 26.457 375.983 26.375L375.368 31.3242C377.499 32.0005 378.944 32.7486 379.703 33.5684C380.481 34.3676 380.871 35.5873 380.871 37.2266C380.871 39.3576 380.225 40.9765 378.934 42.083C377.643 43.1691 375.952 43.7119 373.862 43.7119H373.831L373.37 47.3398C371.853 47.2784 371.095 47.206 371.095 47.124L371.526 43.5586C370.009 43.3742 368.738 43.159 367.713 42.9131L367.099 42.79L367.499 39.5928C369.117 39.8182 370.614 39.9717 371.987 40.0537L372.663 34.7051C370.552 34.0699 369.057 33.3019 368.175 32.4004C367.294 31.4987 366.853 30.2684 366.853 28.7109C366.853 26.6822 367.468 25.176 368.698 24.1924C369.927 23.1884 371.618 22.6866 373.769 22.6865H374.169L374.722 18.4443H376.998L376.444 22.8711ZM374.292 40.085C375.952 39.9004 376.782 39.0397 376.782 37.5029C376.782 37.0111 376.639 36.6111 376.352 36.3037C376.086 35.9759 375.594 35.6687 374.876 35.3818L374.292 40.085ZM373.708 26.3135C371.864 26.3954 370.942 27.1025 370.942 28.4346C370.942 28.9264 371.095 29.3264 371.403 29.6338C371.71 29.941 372.304 30.2582 373.185 30.5859L373.708 26.3135Z" fill="#FFE344"/>
<g clip-path="url(#clip0_8658_25401)">
<path d="M506.876 23.5857C507.87 23.5857 508.824 23.9808 509.527 24.6839C510.23 25.3871 510.625 26.3407 510.625 27.3351V50.6648C510.625 51.6592 510.23 52.6129 509.527 53.316C508.824 54.0192 507.87 54.4142 506.876 54.4142H483.546C482.552 54.4142 481.598 54.0192 480.895 53.316C480.192 52.6129 479.797 51.6592 479.797 50.6648V27.3351C479.797 26.3407 480.192 25.3871 480.895 24.6839C481.598 23.9808 482.552 23.5857 483.546 23.5857H506.876ZM506.876 22.3359H483.546C482.22 22.3359 480.949 22.8626 480.011 23.8002C479.074 24.7377 478.547 26.0093 478.547 27.3351V50.6648C478.547 51.9907 479.074 53.2622 480.011 54.1998C480.949 55.1373 482.22 55.664 483.546 55.664H506.876C508.202 55.664 509.473 55.1373 510.411 54.1998C511.348 53.2622 511.875 51.9907 511.875 50.6648V27.3351C511.875 26.0093 511.348 24.7377 510.411 23.8002C509.473 22.8626 508.202 22.3359 506.876 22.3359V22.3359Z" fill="white"/>
<g clip-path="url(#clip1_8658_25401)">
<path d="M495.627 43.4824C496.922 43.4825 497.977 44.5487 497.977 45.8584C497.977 47.1676 496.922 48.2334 495.627 48.2334C494.332 48.2334 493.279 47.1676 493.279 45.8584C493.279 44.5487 494.332 43.4824 495.627 43.4824ZM495.627 44.8369C495.071 44.8369 494.618 45.2958 494.618 45.8584C494.619 46.4208 495.071 46.8789 495.627 46.8789C496.184 46.8789 496.636 46.4208 496.636 45.8584C496.636 45.2958 496.184 44.8369 495.627 44.8369ZM495.627 38.6963C498.009 38.6963 500.249 39.6342 501.933 41.3369C502.195 41.6023 502.195 42.0329 501.933 42.2979C501.802 42.4305 501.63 42.497 501.458 42.4971C501.287 42.4971 501.114 42.4307 500.983 42.2979C499.552 40.8516 497.65 40.0557 495.627 40.0557C493.604 40.0557 491.702 40.8516 490.272 42.2979C490.009 42.5631 489.584 42.563 489.322 42.2979C489.059 42.0329 489.059 41.6023 489.322 41.3369C491.006 39.6339 493.245 38.6963 495.627 38.6963ZM495.627 33.8936C499.13 33.8932 502.631 35.241 505.297 37.9365C505.56 38.2018 505.56 38.6321 505.297 38.8975C505.166 39.0303 504.994 39.0967 504.822 39.0967C504.65 39.0966 504.478 39.0301 504.347 38.8975C499.54 34.0374 491.717 34.0368 486.908 38.8975C486.646 39.1628 486.22 39.1628 485.957 38.8975C485.695 38.6321 485.695 38.2018 485.957 37.9365C488.623 35.2414 492.126 33.8936 495.627 33.8936ZM495.627 29.5293C500.431 29.5293 504.948 31.4205 508.345 34.8545C508.476 34.9873 508.542 35.162 508.542 35.3359C508.542 35.5098 508.476 35.6837 508.345 35.8164C508.214 35.9491 508.041 36.0146 507.869 36.0146C507.698 36.0145 507.526 35.9489 507.395 35.8164C504.252 32.6384 500.072 30.8887 495.627 30.8887C491.182 30.8887 487.002 32.6384 483.86 35.8164C483.597 36.0813 483.172 36.0814 482.909 35.8164C482.647 35.5511 482.647 35.1202 482.909 34.8545C486.307 31.4204 490.823 29.5293 495.627 29.5293Z" fill="white"/>
</g>
</g>
<path d="M519.269 29.5V21.2085H521.077V29.5H519.269ZM519.269 19.7989V17.8919H521.077V19.7989H519.269ZM524.745 29.5H522.938V21.2085H524.729V21.7226C525.536 21.2582 526.298 21.0261 527.017 21.0261C528.123 21.0261 528.874 21.3412 529.272 21.9713C529.681 22.5904 529.886 23.6186 529.886 25.0558V29.5H528.095V25.1055C528.095 24.21 527.995 23.5743 527.796 23.1985C527.609 22.8226 527.216 22.6346 526.619 22.6346C526.055 22.6346 525.514 22.7452 524.994 22.9663L524.745 23.0658V29.5ZM536.119 22.7507H533.831V26.399C533.831 27.0734 533.881 27.5211 533.98 27.7422C534.08 27.9633 534.334 28.0739 534.743 28.0739L536.103 28.0241L536.186 29.4668C535.445 29.6106 534.881 29.6824 534.494 29.6824C533.555 29.6824 532.908 29.4668 532.554 29.0357C532.211 28.6045 532.04 27.7919 532.04 26.598V22.7507H530.979V21.2085H532.04V18.804H533.831V21.2085H536.119V22.7507ZM543.174 28.0075L543.638 27.9578L543.671 29.301C542.411 29.5553 541.294 29.6824 540.322 29.6824C539.094 29.6824 538.21 29.3452 537.668 28.6708C537.138 27.9965 536.872 26.9186 536.872 25.4372C536.872 22.4964 538.072 21.0261 540.471 21.0261C542.792 21.0261 543.953 22.2919 543.953 24.8236L543.837 26.1171H538.696C538.707 26.8025 538.857 27.3055 539.144 27.6261C539.432 27.9467 539.968 28.107 540.753 28.107C541.538 28.107 542.345 28.0739 543.174 28.0075ZM542.179 24.7241C542.179 23.906 542.046 23.3366 541.781 23.016C541.527 22.6844 541.09 22.5185 540.471 22.5185C539.852 22.5185 539.398 22.6899 539.111 23.0326C538.835 23.3753 538.691 23.9392 538.68 24.7241H542.179ZM545.36 29.5V21.2085H547.151V22.2035C548.09 21.5954 549.03 21.203 549.97 21.0261V22.8336C549.019 23.0216 548.206 23.2648 547.532 23.5633L547.167 23.7125V29.5H545.36ZM552.827 29.5H551.02V21.2085H552.811V21.7226C553.618 21.2582 554.381 21.0261 555.099 21.0261C556.205 21.0261 556.957 21.3412 557.355 21.9713C557.764 22.5904 557.968 23.6186 557.968 25.0558V29.5H556.177V25.1055C556.177 24.21 556.078 23.5743 555.879 23.1985C555.691 22.8226 555.298 22.6346 554.701 22.6346C554.138 22.6346 553.596 22.7452 553.076 22.9663L552.827 23.0658V29.5ZM565.644 28.0075L566.109 27.9578L566.142 29.301C564.882 29.5553 563.765 29.6824 562.792 29.6824C561.565 29.6824 560.681 29.3452 560.139 28.6708C559.608 27.9965 559.343 26.9186 559.343 25.4372C559.343 22.4964 560.542 21.0261 562.941 21.0261C565.263 21.0261 566.424 22.2919 566.424 24.8236L566.308 26.1171H561.167C561.178 26.8025 561.327 27.3055 561.615 27.6261C561.902 27.9467 562.438 28.107 563.223 28.107C564.008 28.107 564.815 28.0739 565.644 28.0075ZM564.649 24.7241C564.649 23.906 564.517 23.3366 564.251 23.016C563.997 22.6844 563.561 22.5185 562.941 22.5185C562.322 22.5185 561.869 22.6899 561.582 23.0326C561.305 23.3753 561.162 23.9392 561.15 24.7241H564.649ZM572.291 22.7507H570.003V26.399C570.003 27.0734 570.052 27.5211 570.152 27.7422C570.251 27.9633 570.506 28.0739 570.915 28.0739L572.275 28.0241L572.357 29.4668C571.617 29.6106 571.053 29.6824 570.666 29.6824C569.726 29.6824 569.08 29.4668 568.726 29.0357C568.383 28.6045 568.212 27.7919 568.212 26.598V22.7507H567.15V21.2085H568.212V18.804H570.003V21.2085H572.291V22.7507ZM523.133 38.0261C524.272 38.0261 525.09 38.3467 525.587 38.9879C526.096 39.618 526.35 40.7402 526.35 42.3542C526.35 43.9683 526.052 45.096 525.455 45.7372C524.858 46.3673 523.808 46.6824 522.304 46.6824C521.784 46.6824 520.961 46.6327 519.833 46.5332L519.269 46.4834V34.7592H521.06V38.5236C521.823 38.1919 522.514 38.0261 523.133 38.0261ZM522.304 45.0739C523.188 45.0739 523.774 44.8693 524.062 44.4603C524.36 44.0402 524.51 43.3326 524.51 42.3377C524.51 41.3427 524.382 40.6462 524.128 40.2482C523.885 39.8392 523.481 39.6346 522.918 39.6346C522.387 39.6346 521.856 39.7175 521.326 39.8834L521.06 39.9663V45.0075C521.668 45.0517 522.083 45.0739 522.304 45.0739ZM527.828 46.5V38.2085H529.636V46.5H527.828ZM527.828 36.7989V34.8919H529.636V36.7989H527.828ZM531.596 46.5V34.7592H533.404V46.5H531.596ZM535.459 46.5V34.7592H537.266V46.5H535.459ZM545.635 38.0261C546.221 38.0261 546.912 38.1035 547.708 38.2582L548.123 38.3412L548.056 39.7673C547.183 39.6789 546.536 39.6346 546.116 39.6346C545.276 39.6346 544.712 39.8226 544.425 40.1985C544.137 40.5743 543.993 41.2819 543.993 42.3211C543.993 43.3603 544.132 44.0789 544.408 44.4769C544.684 44.8749 545.259 45.0739 546.133 45.0739L548.073 44.9412L548.123 46.3839C547.006 46.5829 546.166 46.6824 545.602 46.6824C544.342 46.6824 543.452 46.3452 542.932 45.6708C542.424 44.9854 542.169 43.8688 542.169 42.3211C542.169 40.7733 542.44 39.6733 542.982 39.0211C543.524 38.3577 544.408 38.0261 545.635 38.0261ZM549.538 46.5V38.2085H551.329V39.2035C552.269 38.5954 553.209 38.203 554.149 38.0261V39.8336C553.198 40.0216 552.385 40.2648 551.711 40.5633L551.346 40.7125V46.5H549.538ZM561.038 45.0075L561.502 44.9578L561.535 46.301C560.275 46.5553 559.158 46.6824 558.185 46.6824C556.958 46.6824 556.074 46.3452 555.532 45.6708C555.001 44.9965 554.736 43.9186 554.736 42.4372C554.736 39.4964 555.935 38.0261 558.334 38.0261C560.656 38.0261 561.817 39.2919 561.817 41.8236L561.701 43.1171H556.56C556.571 43.8025 556.72 44.3055 557.008 44.6261C557.295 44.9467 557.831 45.107 558.616 45.107C559.401 45.107 560.208 45.0739 561.038 45.0075ZM560.043 41.7241C560.043 40.906 559.91 40.3366 559.645 40.016C559.39 39.6844 558.954 39.5185 558.334 39.5185C557.715 39.5185 557.262 39.6899 556.975 40.0326C556.698 40.3753 556.555 40.9392 556.544 41.7241H560.043ZM569.989 34.7592V46.5H568.198V46.0688C567.391 46.4779 566.651 46.6824 565.976 46.6824C564.893 46.6824 564.097 46.3563 563.588 45.704C563.091 45.0517 562.842 43.9573 562.842 42.4206C562.842 40.8839 563.118 39.7673 563.671 39.0708C564.235 38.3743 565.108 38.0261 566.291 38.0261C566.689 38.0261 567.319 38.0979 568.182 38.2417V34.7592H569.989ZM567.9 44.7754L568.182 44.6593V39.7507C567.518 39.6402 566.905 39.5849 566.341 39.5849C565.224 39.5849 564.666 40.5135 564.666 42.3708C564.666 43.3879 564.793 44.0955 565.047 44.4935C565.313 44.8804 565.727 45.0739 566.291 45.0739C566.855 45.0739 567.391 44.9744 567.9 44.7754ZM571.847 46.5V38.2085H573.655V46.5H571.847ZM571.847 36.7989V34.8919H573.655V36.7989H571.847ZM579.976 39.7507H577.688V43.399C577.688 44.0734 577.738 44.5211 577.837 44.7422C577.937 44.9633 578.191 45.0739 578.6 45.0739L579.96 45.0241L580.043 46.4668C579.302 46.6106 578.738 46.6824 578.351 46.6824C577.412 46.6824 576.765 46.4668 576.411 46.0357C576.068 45.6045 575.897 44.7919 575.897 43.598V39.7507H574.836V38.2085H575.897V35.804H577.688V38.2085H579.976V39.7507Z" fill="white"/>
<path d="M518.516 54H519.341L520.452 58.785H520.628L521.937 54.11H522.795L524.104 58.785H524.291L525.391 54H526.216L524.907 59.5H523.532L522.366 55.199L521.2 59.5H519.825L518.516 54ZM527.126 59.5V54H527.951V59.5H527.126ZM527.126 52.757V51.8H527.951V52.757H527.126ZM532.161 54.715H530.412V57.344C530.412 57.9747 530.456 58.389 530.544 58.587C530.639 58.785 530.859 58.884 531.204 58.884L532.183 58.818L532.238 59.5C531.747 59.5807 531.373 59.621 531.116 59.621C530.544 59.621 530.148 59.4817 529.928 59.203C529.708 58.9243 529.598 58.3927 529.598 57.608V54.715H528.817V54H529.598V52.317H530.412V54H532.161V54.715ZM533.773 59.5H532.948V51.602H533.773V54.308C534.36 54.0293 534.925 53.89 535.467 53.89C536.201 53.89 536.692 54.088 536.941 54.484C537.198 54.88 537.326 55.584 537.326 56.596V59.5H536.501V56.618C536.501 55.8553 536.424 55.3347 536.27 55.056C536.124 54.77 535.808 54.627 535.324 54.627C534.862 54.627 534.415 54.7113 533.982 54.88L533.773 54.957V59.5ZM540.306 59.5L542.396 51.888H544.244L546.334 59.5H545.498L544.948 57.542H541.692L541.142 59.5H540.306ZM543.034 52.614L541.879 56.783H544.761L543.606 52.614H543.034ZM550.194 56.365V55.606H552.295V59.346C551.371 59.522 550.546 59.61 549.82 59.61C548.713 59.61 547.943 59.291 547.51 58.653C547.085 58.015 546.872 57.0323 546.872 55.705C546.872 54.3703 547.085 53.384 547.51 52.746C547.943 52.1007 548.706 51.778 549.798 51.778C550.48 51.778 551.188 51.8513 551.921 51.998L552.295 52.064L552.262 52.768C551.353 52.614 550.565 52.537 549.897 52.537C549.054 52.537 548.486 52.7827 548.192 53.274C547.899 53.758 547.752 54.5683 547.752 55.705C547.752 56.8343 547.899 57.6447 548.192 58.136C548.486 58.62 549.05 58.862 549.886 58.862C550.4 58.862 550.924 58.8107 551.459 58.708V56.365H550.194ZM557.93 59.5H553.739V51.888H554.586V58.741H557.93V59.5ZM564.576 58.818L564.895 58.785L564.917 59.434C564.081 59.5513 563.366 59.61 562.772 59.61C561.98 59.61 561.419 59.3827 561.089 58.928C560.759 58.466 560.594 57.751 560.594 56.783C560.594 54.8543 561.361 53.89 562.893 53.89C563.634 53.89 564.188 54.099 564.554 54.517C564.921 54.9277 565.104 55.5767 565.104 56.464L565.06 57.091H561.43C561.43 57.6997 561.54 58.1507 561.76 58.444C561.98 58.7373 562.362 58.884 562.904 58.884C563.454 58.884 564.012 58.862 564.576 58.818ZM564.279 56.431C564.279 55.7563 564.169 55.2797 563.949 55.001C563.737 54.7223 563.385 54.583 562.893 54.583C562.409 54.583 562.043 54.7297 561.793 55.023C561.551 55.3163 561.427 55.7857 561.419 56.431H564.279ZM566.236 59.5V51.602H567.061V59.5H566.236ZM572.236 58.818L572.555 58.785L572.577 59.434C571.741 59.5513 571.026 59.61 570.432 59.61C569.64 59.61 569.079 59.3827 568.749 58.928C568.419 58.466 568.254 57.751 568.254 56.783C568.254 54.8543 569.02 53.89 570.553 53.89C571.294 53.89 571.847 54.099 572.214 54.517C572.581 54.9277 572.764 55.5767 572.764 56.464L572.72 57.091H569.09C569.09 57.6997 569.2 58.1507 569.42 58.444C569.64 58.7373 570.021 58.884 570.564 58.884C571.114 58.884 571.671 58.862 572.236 58.818ZM571.939 56.431C571.939 55.7563 571.829 55.2797 571.609 55.001C571.396 54.7223 571.044 54.583 570.553 54.583C570.069 54.583 569.702 54.7297 569.453 55.023C569.211 55.3163 569.086 55.7857 569.079 56.431H571.939ZM575.887 53.89C576.129 53.89 576.539 53.934 577.119 54.022L577.383 54.055L577.35 54.726C576.763 54.66 576.33 54.627 576.052 54.627C575.428 54.627 575.003 54.7773 574.776 55.078C574.556 55.3713 574.446 55.9213 574.446 56.728C574.446 57.5273 574.548 58.0847 574.754 58.4C574.966 58.7153 575.403 58.873 576.063 58.873L577.361 58.774L577.394 59.456C576.712 59.5587 576.202 59.61 575.865 59.61C575.007 59.61 574.413 59.39 574.083 58.95C573.76 58.51 573.599 57.7693 573.599 56.728C573.599 55.6793 573.775 54.946 574.127 54.528C574.479 54.1027 575.065 53.89 575.887 53.89ZM581.25 54.715H579.501V57.344C579.501 57.9747 579.545 58.389 579.633 58.587C579.728 58.785 579.948 58.884 580.293 58.884L581.272 58.818L581.327 59.5C580.835 59.5807 580.461 59.621 580.205 59.621C579.633 59.621 579.237 59.4817 579.017 59.203C578.797 58.9243 578.687 58.3927 578.687 57.608V54.715H577.906V54H578.687V52.317H579.501V54H581.25V54.715ZM582.037 59.5V54H582.851V54.748C583.489 54.308 584.16 54.0183 584.864 53.879V54.715C584.556 54.7737 584.234 54.8653 583.896 54.99C583.566 55.1147 583.313 55.2247 583.137 55.32L582.862 55.463V59.5H582.037ZM585.62 59.5V54H586.445V59.5H585.62ZM585.62 52.757V51.8H586.445V52.757H585.62ZM589.863 53.89C590.105 53.89 590.516 53.934 591.095 54.022L591.359 54.055L591.326 54.726C590.74 54.66 590.307 54.627 590.028 54.627C589.405 54.627 588.98 54.7773 588.752 55.078C588.532 55.3713 588.422 55.9213 588.422 56.728C588.422 57.5273 588.525 58.0847 588.73 58.4C588.943 58.7153 589.379 58.873 590.039 58.873L591.337 58.774L591.37 59.456C590.688 59.5587 590.179 59.61 589.841 59.61C588.983 59.61 588.389 59.39 588.059 58.95C587.737 58.51 587.575 57.7693 587.575 56.728C587.575 55.6793 587.751 54.946 588.103 54.528C588.455 54.1027 589.042 53.89 589.863 53.89ZM592.377 59.5V54H593.202V59.5H592.377ZM592.377 52.757V51.8H593.202V52.757H592.377ZM597.412 54.715H595.663V57.344C595.663 57.9747 595.707 58.389 595.795 58.587C595.891 58.785 596.111 58.884 596.455 58.884L597.434 58.818L597.489 59.5C596.998 59.5807 596.624 59.621 596.367 59.621C595.795 59.621 595.399 59.4817 595.179 59.203C594.959 58.9243 594.849 58.3927 594.849 57.608V54.715H594.068V54H594.849V52.317H595.663V54H597.412V54.715ZM597.683 54H598.508L599.883 58.785H600.246L601.632 54H602.457L600.169 61.942H599.344L600.059 59.5H599.245L597.683 54Z" fill="white"/>
<defs>
<clipPath id="clip0_8658_25401">
<rect width="33.3281" height="33.3281" fill="white" transform="translate(478.547 22.3359)"/>
</clipPath>
<clipPath id="clip1_8658_25401">
<rect width="25.8292" height="25.8292" fill="white" transform="translate(482.713 26.0854)"/>
</clipPath>
</defs>
</svg>
