<svg width="728" height="90" viewBox="0 0 728 90" fill="none" xmlns="http://www.w3.org/2000/svg">
<g clip-path="url(#clip0_8658_25857)">
<g clip-path="url(#clip1_8658_25857)">
<g clip-path="url(#clip2_8658_25857)">
<path fill-rule="evenodd" clip-rule="evenodd" d="M-56.7671 85.8828L93.6807 -64.5649L124.076 -34.1699L-26.3721 116.278L-56.7671 85.8828Z" fill="#FFE344"/>
<path d="M94.7736 -8.39746L-23.4353 109.811" stroke="white" stroke-width="1.34328"/>
<path d="M94.7736 -62.1289L-23.4353 56.08" stroke="white" stroke-width="1.34328"/>
<path d="M14.6568 40.0857C15.1501 40.2181 15.6404 40.0406 16.1277 39.5533C16.6149 39.0661 16.7894 38.5788 16.651 38.0915C16.5127 37.5922 16.0735 36.9726 15.3336 36.2327C14.5876 35.4867 13.956 35.0356 13.4387 34.8792C12.9213 34.7227 12.422 34.8852 11.9407 35.3664C11.4595 35.8477 11.2971 36.347 11.4535 36.8643C11.6099 37.3817 12.0611 38.0133 12.807 38.7593C13.5469 39.4992 14.1635 39.9413 14.6568 40.0857ZM18.4196 37.9111C18.546 38.7954 18.1429 39.7037 17.2105 40.6362C16.2781 41.5686 15.3667 41.9747 14.4764 41.8543C13.586 41.722 12.5995 41.1144 11.5166 40.0316C10.4338 38.9488 9.82022 37.9562 9.67584 37.0538C9.53146 36.1394 9.92549 35.216 10.8579 34.2836C11.7904 33.3512 12.7108 32.9601 13.6191 33.1105C14.5275 33.2489 15.5231 33.8595 16.6059 34.9423C17.6887 36.0251 18.2933 37.0147 18.4196 37.9111ZM20.4773 37.1528L14.3413 31.0168L16.4437 28.9143L22.9768 32.4877L23.067 32.3974L18.0138 27.3443L19.2591 26.099L25.3951 32.235L23.3467 34.2833L16.7596 30.7642L16.6693 30.8544L21.7225 35.9076L20.4773 37.1528ZM29.9884 27.6416L26.4963 31.1337L20.3603 24.9977L21.6056 23.7525L26.6407 28.7876L28.8876 26.5408L29.9884 27.6416ZM30.5151 27.115L24.3791 20.979L25.6243 19.7337L31.7603 25.8697L30.5151 27.115ZM32.8596 24.7705L26.7236 18.6345L28.826 16.532L35.3591 20.1054L35.4493 20.0151L30.3961 14.9619L31.6414 13.7167L37.7774 19.8527L35.729 21.901L29.1419 18.3819L29.0516 18.4721L34.1048 23.5253L32.8596 24.7705ZM38.8786 18.7514L32.7426 12.6154L36.713 8.64509L37.7958 9.72791L35.0707 12.453L36.5055 13.8878L38.6892 11.7041L39.7539 12.7688L37.5702 14.9525L39.0411 16.4234L41.7662 13.6983L42.849 14.7811L38.8786 18.7514ZM19.1037 45.174C18.448 45.8297 18.3367 46.3742 18.7698 46.8073C18.9623 46.9998 19.1909 47.066 19.4556 47.0058C19.7203 46.9456 20.2467 46.714 21.0347 46.311C21.8288 45.9019 22.4695 45.7004 22.9568 45.7064C23.438 45.7064 23.9313 45.9591 24.4366 46.4644C25.0803 47.1081 25.3721 47.7908 25.3119 48.5127C25.2517 49.2346 24.9058 49.9114 24.2742 50.543C23.805 51.0122 23.1583 51.5146 22.3341 52.05L21.9461 52.3116L21.1069 51.2198C22.0213 50.522 22.6921 49.9595 23.1192 49.5324C23.7568 48.8947 23.811 48.3112 23.2816 47.7818C23.0891 47.5893 22.8635 47.5141 22.6048 47.5562C22.3522 47.5923 21.9431 47.7668 21.3776 48.0796C20.4813 48.5789 19.7534 48.8376 19.1939 48.8556C18.6345 48.8616 18.1111 48.621 17.6238 48.1337C17.0102 47.5201 16.7395 46.8765 16.8117 46.2027C16.8839 45.5289 17.2449 44.8672 17.8946 44.2175C18.3397 43.7724 18.9653 43.2671 19.7714 42.7016L20.1595 42.4399L21.0438 43.5227C20.0993 44.2747 19.4526 44.8251 19.1037 45.174ZM27.5193 43.508L26.5087 44.5186L28.2953 46.3053L27.0501 47.5506L20.9141 41.4146L23.17 39.1587C24.6258 37.7029 26.0635 37.6848 27.4832 39.1045C28.1991 39.8204 28.563 40.5573 28.5751 41.3153C28.5871 42.0612 28.2352 42.7921 27.5193 43.508ZM25.4439 43.4539L26.4455 42.4523C27.0651 41.8326 26.9899 41.1378 26.2199 40.3678C25.8409 39.9888 25.495 39.7933 25.1822 39.7813C24.8634 39.7632 24.5446 39.9136 24.2257 40.2325L23.2241 41.2341L25.4439 43.4539ZM32.1263 42.4744L25.9903 36.3384L29.9606 32.368L31.0435 33.4508L28.3184 36.1759L29.7531 37.6107L31.9368 35.427L33.0016 36.4918L30.8179 38.6755L32.2887 40.1463L35.0138 37.4212L36.0966 38.504L32.1263 42.4744ZM40.6311 33.7711C40.1318 34.5471 39.6265 35.1908 39.1151 35.7021C38.6038 36.2134 38.1316 36.5593 37.6984 36.7398C37.2653 36.9203 36.8231 36.9594 36.372 36.8571C35.9208 36.7548 35.4756 36.5503 35.0365 36.2435C34.5973 35.9367 34.095 35.5006 33.5296 34.9351C32.3445 33.75 31.6858 32.7604 31.5534 31.9663C31.4211 31.1602 31.8031 30.309 32.6994 29.4127C33.2167 28.8953 33.8965 28.378 34.7387 27.8606L35.6952 28.8893C35.0094 29.3946 34.468 29.8458 34.071 30.2429C33.6799 30.6339 33.4544 30.9677 33.3942 31.2445C33.328 31.5152 33.4002 31.84 33.6108 32.219C33.8273 32.592 34.2905 33.1334 35.0004 33.8432C35.7102 34.5531 36.2847 34.9652 36.7239 35.0795C37.163 35.1817 37.6292 34.9862 38.1225 34.4929C38.6218 33.9936 39.1091 33.4221 39.5843 32.7785L40.6311 33.7711ZM41.5032 33.0974L35.3672 26.9614L36.6125 25.7162L42.7485 31.8522L41.5032 33.0974ZM43.3333 31.2673L38.578 23.7507L40.9421 21.3865L48.4587 26.1419L47.2135 27.3872L45.8599 26.5209L43.7123 28.6685L44.5786 30.022L43.3333 31.2673ZM40.5721 23.8139L42.8641 27.3511L44.5425 25.6727L41.0053 23.3807L40.5721 23.8139ZM52.5306 22.0701L49.0384 25.5622L42.9024 19.4262L44.1477 18.181L49.1828 23.2161L51.4297 20.9692L52.5306 22.0701Z" fill="#001CB0"/>
</g>
</g>
</g>
<path d="M102.58 34V20.3H106.44L109.5 31L112.56 20.3H116.44V34H114.2V22.76H113.9L110.66 33.44H108.34L105.1 22.76H104.8V34H102.58ZM119.335 25.08C120.028 24.2133 121.175 23.78 122.775 23.78C124.375 23.78 125.515 24.2133 126.195 25.08C126.888 25.9467 127.235 27.2467 127.235 28.98C127.235 30.7133 126.902 32.02 126.235 32.9C125.568 33.78 124.415 34.22 122.775 34.22C121.135 34.22 119.982 33.78 119.315 32.9C118.648 32.02 118.315 30.7133 118.315 28.98C118.315 27.2467 118.655 25.9467 119.335 25.08ZM120.975 31.58C121.282 32.1133 121.882 32.38 122.775 32.38C123.668 32.38 124.268 32.1133 124.575 31.58C124.882 31.0467 125.035 30.1733 125.035 28.96C125.035 27.7467 124.868 26.8867 124.535 26.38C124.215 25.8733 123.628 25.62 122.775 25.62C121.922 25.62 121.328 25.8733 120.995 26.38C120.675 26.8867 120.515 27.7467 120.515 28.96C120.515 30.1733 120.668 31.0467 120.975 31.58ZM127.904 24H130.184L132.104 32.14H132.744L134.744 24H136.964L134.364 34H130.484L127.904 24ZM145.232 32.2L145.792 32.14L145.832 33.76C144.312 34.0667 142.966 34.22 141.792 34.22C140.312 34.22 139.246 33.8133 138.592 33C137.952 32.1867 137.632 30.8867 137.632 29.1C137.632 25.5533 139.079 23.78 141.972 23.78C144.772 23.78 146.172 25.3067 146.172 28.36L146.032 29.92H139.832C139.846 30.7467 140.026 31.3533 140.372 31.74C140.719 32.1267 141.366 32.32 142.312 32.32C143.259 32.32 144.232 32.28 145.232 32.2ZM144.032 28.24C144.032 27.2533 143.872 26.5667 143.552 26.18C143.246 25.78 142.719 25.58 141.972 25.58C141.226 25.58 140.679 25.7867 140.332 26.2C139.999 26.6133 139.826 27.2933 139.812 28.24H144.032ZM154.043 34H151.863V19.84H154.043V24.52C155.03 24.0267 155.943 23.78 156.783 23.78C158.116 23.78 159.023 24.16 159.503 24.92C159.996 25.6667 160.243 26.9067 160.243 28.64V34H158.063V28.7C158.063 27.62 157.95 26.8533 157.723 26.4C157.496 25.9467 157.016 25.72 156.283 25.72C155.643 25.72 155.003 25.8267 154.363 26.04L154.043 26.16V34ZM162.921 25.08C163.614 24.2133 164.761 23.78 166.361 23.78C167.961 23.78 169.101 24.2133 169.781 25.08C170.474 25.9467 170.821 27.2467 170.821 28.98C170.821 30.7133 170.488 32.02 169.821 32.9C169.154 33.78 168.001 34.22 166.361 34.22C164.721 34.22 163.568 33.78 162.901 32.9C162.234 32.02 161.901 30.7133 161.901 28.98C161.901 27.2467 162.241 25.9467 162.921 25.08ZM164.561 31.58C164.868 32.1133 165.468 32.38 166.361 32.38C167.254 32.38 167.854 32.1133 168.161 31.58C168.468 31.0467 168.621 30.1733 168.621 28.96C168.621 27.7467 168.454 26.8867 168.121 26.38C167.801 25.8733 167.214 25.62 166.361 25.62C165.508 25.62 164.914 25.8733 164.581 26.38C164.261 26.8867 164.101 27.7467 164.101 28.96C164.101 30.1733 164.254 31.0467 164.561 31.58ZM174.766 34H172.586V24H174.746V24.62C175.693 24.06 176.56 23.78 177.346 23.78C178.506 23.78 179.353 24.1067 179.886 24.76C181.1 24.1067 182.306 23.78 183.506 23.78C184.706 23.78 185.553 24.1533 186.046 24.9C186.54 25.6333 186.786 26.88 186.786 28.64V34H184.626V28.7C184.626 27.62 184.513 26.8533 184.286 26.4C184.073 25.9467 183.62 25.72 182.926 25.72C182.326 25.72 181.68 25.8533 180.986 26.12L180.646 26.26C180.753 26.5267 180.806 27.38 180.806 28.82V34H178.646V28.86C178.646 27.6733 178.54 26.8533 178.326 26.4C178.113 25.9467 177.646 25.72 176.926 25.72C176.26 25.72 175.64 25.8533 175.066 26.12L174.766 26.24V34ZM196.064 32.2L196.624 32.14L196.664 33.76C195.144 34.0667 193.798 34.22 192.624 34.22C191.144 34.22 190.078 33.8133 189.424 33C188.784 32.1867 188.464 30.8867 188.464 29.1C188.464 25.5533 189.911 23.78 192.804 23.78C195.604 23.78 197.004 25.3067 197.004 28.36L196.864 29.92H190.664C190.678 30.7467 190.858 31.3533 191.204 31.74C191.551 32.1267 192.198 32.32 193.144 32.32C194.091 32.32 195.064 32.28 196.064 32.2ZM194.864 28.24C194.864 27.2533 194.704 26.5667 194.384 26.18C194.078 25.78 193.551 25.58 192.804 25.58C192.058 25.58 191.511 25.7867 191.164 26.2C190.831 26.6133 190.658 27.2933 190.644 28.24H194.864ZM210.095 27.08V31.64C210.108 31.9333 210.182 32.1533 210.315 32.3C210.462 32.4333 210.682 32.52 210.975 32.56L210.915 34.22C209.768 34.22 208.882 33.9733 208.255 33.48C207.188 33.9733 206.115 34.22 205.035 34.22C203.048 34.22 202.055 33.16 202.055 31.04C202.055 30.0267 202.322 29.2933 202.855 28.84C203.402 28.3867 204.235 28.1133 205.355 28.02L207.935 27.8V27.08C207.935 26.5467 207.815 26.1733 207.575 25.96C207.348 25.7467 207.008 25.64 206.555 25.64C205.702 25.64 204.635 25.6933 203.355 25.8L202.715 25.84L202.635 24.3C204.088 23.9533 205.422 23.78 206.635 23.78C207.862 23.78 208.742 24.0467 209.275 24.58C209.822 25.1 210.095 25.9333 210.095 27.08ZM205.615 29.56C204.695 29.64 204.235 30.14 204.235 31.06C204.235 31.98 204.642 32.44 205.455 32.44C206.122 32.44 206.828 32.3333 207.575 32.12L207.935 32V29.34L205.615 29.56ZM214.612 34H212.432V24H214.592V24.62C215.565 24.06 216.485 23.78 217.352 23.78C218.685 23.78 219.592 24.16 220.072 24.92C220.565 25.6667 220.812 26.9067 220.812 28.64V34H218.652V28.7C218.652 27.62 218.532 26.8533 218.292 26.4C218.065 25.9467 217.592 25.72 216.872 25.72C216.192 25.72 215.538 25.8533 214.912 26.12L214.612 26.24V34ZM231.11 19.84V34H228.95V33.48C227.976 33.9733 227.083 34.22 226.27 34.22C224.963 34.22 224.003 33.8267 223.39 33.04C222.79 32.2533 222.49 30.9333 222.49 29.08C222.49 27.2267 222.823 25.88 223.49 25.04C224.17 24.2 225.223 23.78 226.65 23.78C227.13 23.78 227.89 23.8667 228.93 24.04V19.84H231.11ZM228.59 31.92L228.93 31.78V25.86C228.13 25.7267 227.39 25.66 226.71 25.66C225.363 25.66 224.69 26.78 224.69 29.02C224.69 30.2467 224.843 31.1 225.15 31.58C225.47 32.0467 225.97 32.28 226.65 32.28C227.33 32.28 227.976 32.16 228.59 31.92ZM244.285 26.06C242.712 25.8467 241.572 25.74 240.865 25.74C240.158 25.74 239.665 25.8267 239.385 26C239.118 26.16 238.985 26.42 238.985 26.78C238.985 27.14 239.132 27.3933 239.425 27.54C239.732 27.6867 240.438 27.86 241.545 28.06C242.665 28.2467 243.458 28.5467 243.925 28.96C244.392 29.3733 244.625 30.1067 244.625 31.16C244.625 32.2133 244.285 32.9867 243.605 33.48C242.938 33.9733 241.958 34.22 240.665 34.22C239.852 34.22 238.825 34.1067 237.585 33.88L236.965 33.78L237.045 31.96C238.645 32.1733 239.798 32.28 240.505 32.28C241.212 32.28 241.712 32.1933 242.005 32.02C242.312 31.8467 242.465 31.56 242.465 31.16C242.465 30.76 242.318 30.4867 242.025 30.34C241.745 30.18 241.058 30.0133 239.965 29.84C238.885 29.6533 238.092 29.3667 237.585 28.98C237.078 28.5933 236.825 27.8867 236.825 26.86C236.825 25.8333 237.172 25.0667 237.865 24.56C238.572 24.0533 239.472 23.8 240.565 23.8C241.418 23.8 242.465 23.9067 243.705 24.12L244.325 24.24L244.285 26.06ZM251.7 25.86H248.94V30.26C248.94 31.0733 249 31.6133 249.12 31.88C249.24 32.1467 249.547 32.28 250.04 32.28L251.68 32.22L251.78 33.96C250.887 34.1333 250.207 34.22 249.74 34.22C248.607 34.22 247.827 33.96 247.4 33.44C246.987 32.92 246.78 31.94 246.78 30.5V25.86H245.5V24H246.78V21.1H248.94V24H251.7V25.86ZM260.488 27.08V31.64C260.501 31.9333 260.575 32.1533 260.708 32.3C260.855 32.4333 261.075 32.52 261.368 32.56L261.308 34.22C260.161 34.22 259.275 33.9733 258.648 33.48C257.581 33.9733 256.508 34.22 255.428 34.22C253.441 34.22 252.448 33.16 252.448 31.04C252.448 30.0267 252.715 29.2933 253.248 28.84C253.795 28.3867 254.628 28.1133 255.748 28.02L258.328 27.8V27.08C258.328 26.5467 258.208 26.1733 257.968 25.96C257.741 25.7467 257.401 25.64 256.948 25.64C256.095 25.64 255.028 25.6933 253.748 25.8L253.108 25.84L253.028 24.3C254.481 23.9533 255.815 23.78 257.028 23.78C258.255 23.78 259.135 24.0467 259.668 24.58C260.215 25.1 260.488 25.9333 260.488 27.08ZM256.008 29.56C255.088 29.64 254.628 30.14 254.628 31.06C254.628 31.98 255.035 32.44 255.848 32.44C256.515 32.44 257.221 32.3333 257.968 32.12L258.328 32V29.34L256.008 29.56ZM261.787 24H263.927L266.047 32.14H266.587L268.707 24H270.867L267.067 38.3H264.927L266.127 34H264.407L261.787 24ZM101.54 44H103.68L105.26 52.14H105.66L107.56 44.2H109.8L111.7 52.14H112.1L113.66 44H115.82L113.7 54H110.24L108.68 47.14L107.12 54H103.66L101.54 44ZM117.272 54V44H119.452V54H117.272ZM117.272 42.3V40H119.452V42.3H117.272ZM127.076 45.86H124.316V50.26C124.316 51.0733 124.376 51.6133 124.496 51.88C124.616 52.1467 124.922 52.28 125.416 52.28L127.056 52.22L127.156 53.96C126.262 54.1333 125.582 54.22 125.116 54.22C123.982 54.22 123.202 53.96 122.776 53.44C122.362 52.92 122.156 51.94 122.156 50.5V45.86H120.876V44H122.156V41.1H124.316V44H127.076V45.86ZM130.644 54H128.464V39.84H130.644V44.52C131.63 44.0267 132.544 43.78 133.384 43.78C134.717 43.78 135.624 44.16 136.104 44.92C136.597 45.6667 136.844 46.9067 136.844 48.64V54H134.664V48.7C134.664 47.62 134.55 46.8533 134.324 46.4C134.097 45.9467 133.617 45.72 132.884 45.72C132.244 45.72 131.604 45.8267 130.964 46.04L130.644 46.16V54ZM142.056 54L145.436 40.3H149.856L153.256 54H151.016L150.276 51.06H145.016L144.276 54H142.056ZM147.156 42.16L145.456 49.1H149.836L148.156 42.16H147.156ZM160.174 48.76V46.8H164.074V53.76C163.714 53.8533 162.981 53.9533 161.874 54.06C160.781 54.1667 159.987 54.22 159.494 54.22C157.414 54.22 155.981 53.6467 155.194 52.5C154.407 51.3533 154.014 49.56 154.014 47.12C154.014 44.6667 154.414 42.88 155.214 41.76C156.027 40.64 157.427 40.08 159.414 40.08C160.587 40.08 161.907 40.2133 163.374 40.48L164.074 40.62L163.994 42.38C162.381 42.1667 160.934 42.06 159.654 42.06C158.374 42.06 157.494 42.42 157.014 43.14C156.547 43.86 156.314 45.1933 156.314 47.14C156.314 49.0867 156.534 50.4333 156.974 51.18C157.427 51.9133 158.334 52.28 159.694 52.28C160.667 52.28 161.394 52.22 161.874 52.1V48.76H160.174ZM174.14 54H166.46V40.3H168.68V52.02H174.14V54ZM181.906 45.86V54H179.746V45.86H178.586V44H179.746V43.36C179.746 41.9333 179.953 40.9533 180.366 40.42C180.78 39.8867 181.513 39.62 182.566 39.62L184.726 39.82L184.706 41.6C184.053 41.5733 183.506 41.56 183.066 41.56C182.64 41.56 182.34 41.6933 182.166 41.96C181.993 42.2133 181.906 42.6867 181.906 43.38V44H184.546V45.86H181.906ZM186.223 45.08C186.917 44.2133 188.063 43.78 189.663 43.78C191.263 43.78 192.403 44.2133 193.083 45.08C193.777 45.9467 194.123 47.2467 194.123 48.98C194.123 50.7133 193.79 52.02 193.123 52.9C192.457 53.78 191.303 54.22 189.663 54.22C188.023 54.22 186.87 53.78 186.203 52.9C185.537 52.02 185.203 50.7133 185.203 48.98C185.203 47.2467 185.543 45.9467 186.223 45.08ZM187.863 51.58C188.17 52.1133 188.77 52.38 189.663 52.38C190.557 52.38 191.157 52.1133 191.463 51.58C191.77 51.0467 191.923 50.1733 191.923 48.96C191.923 47.7467 191.757 46.8867 191.423 46.38C191.103 45.8733 190.517 45.62 189.663 45.62C188.81 45.62 188.217 45.8733 187.883 46.38C187.563 46.8867 187.403 47.7467 187.403 48.96C187.403 50.1733 187.557 51.0467 187.863 51.58ZM195.889 54V44H198.049V45.2C199.182 44.4667 200.315 43.9933 201.449 43.78V45.96C200.302 46.1867 199.322 46.48 198.509 46.84L198.069 47.02V54H195.889ZM212.77 44H214.93V54H212.77V53.38C211.797 53.94 210.897 54.22 210.07 54.22C208.697 54.22 207.777 53.8533 207.31 53.12C206.843 52.3733 206.61 51.0733 206.61 49.22V44H208.79V49.24C208.79 50.44 208.89 51.2467 209.09 51.66C209.29 52.0733 209.757 52.28 210.49 52.28C211.21 52.28 211.87 52.1467 212.47 51.88L212.77 51.76V44ZM217.169 58.3V44H219.329V44.62C220.249 44.06 221.109 43.78 221.909 43.78C223.229 43.78 224.196 44.1867 224.809 45C225.423 45.8 225.729 47.1533 225.729 49.06C225.729 50.9533 225.376 52.2867 224.669 53.06C223.976 53.8333 222.836 54.22 221.249 54.22C220.703 54.22 220.069 54.16 219.349 54.04V58.3H217.169ZM221.529 45.72C220.903 45.72 220.276 45.86 219.649 46.14L219.349 46.28V52.18C219.883 52.2867 220.469 52.34 221.109 52.34C222.016 52.34 222.643 52.08 222.989 51.56C223.336 51.04 223.509 50.1533 223.509 48.9C223.509 46.78 222.849 45.72 221.529 45.72ZM236.886 45.86H234.126V50.26C234.126 51.0733 234.186 51.6133 234.306 51.88C234.426 52.1467 234.733 52.28 235.226 52.28L236.866 52.22L236.966 53.96C236.073 54.1333 235.393 54.22 234.926 54.22C233.793 54.22 233.013 53.96 232.586 53.44C232.173 52.92 231.966 51.94 231.966 50.5V45.86H230.686V44H231.966V41.1H234.126V44H236.886V45.86ZM238.814 45.08C239.507 44.2133 240.654 43.78 242.254 43.78C243.854 43.78 244.994 44.2133 245.674 45.08C246.367 45.9467 246.714 47.2467 246.714 48.98C246.714 50.7133 246.381 52.02 245.714 52.9C245.047 53.78 243.894 54.22 242.254 54.22C240.614 54.22 239.461 53.78 238.794 52.9C238.127 52.02 237.794 50.7133 237.794 48.98C237.794 47.2467 238.134 45.9467 238.814 45.08ZM240.454 51.58C240.761 52.1133 241.361 52.38 242.254 52.38C243.147 52.38 243.747 52.1133 244.054 51.58C244.361 51.0467 244.514 50.1733 244.514 48.96C244.514 47.7467 244.347 46.8867 244.014 46.38C243.694 45.8733 243.107 45.62 242.254 45.62C241.401 45.62 240.807 45.8733 240.474 46.38C240.154 46.8867 239.994 47.7467 239.994 48.96C239.994 50.1733 240.147 51.0467 240.454 51.58Z" fill="white"/>
<path d="M358.748 12.6885C363.857 12.6885 367.698 14.3382 370.272 17.6367C372.887 20.9353 374.195 26.2453 374.195 33.5664C374.195 40.8471 372.907 46.0761 370.333 49.2539C367.759 52.3915 363.897 53.9609 358.748 53.9609C353.599 53.9609 349.738 52.3915 347.163 49.2539C344.589 46.0761 343.301 40.847 343.301 33.5664C343.301 26.2453 344.589 20.9353 347.163 17.6367C349.778 14.3382 353.639 12.6885 358.748 12.6885ZM391.306 12.6885C396.414 12.6886 400.256 14.3383 402.83 17.6367C405.445 20.9353 406.752 26.2453 406.752 33.5664C406.752 40.8469 405.465 46.0761 402.891 49.2539C400.316 52.3915 396.454 53.9609 391.306 53.9609C386.157 53.9609 382.294 52.3915 379.72 49.2539C377.146 46.076 375.858 40.8468 375.858 33.5664C375.858 26.2455 377.145 20.9353 379.72 17.6367C382.334 14.3382 386.197 12.6885 391.306 12.6885ZM328.726 12.6885C337.173 12.6886 341.396 16.4902 341.396 24.0928C341.396 27.0695 340.753 29.6442 339.466 31.8164C338.179 33.9886 335.845 36.6233 332.466 39.7207L325.527 45.9961H342.061V53.2363H316.235V46.1768L324.743 37.5488C327.76 34.4517 329.851 32.078 331.018 30.4287C332.224 28.7794 332.828 27.0291 332.828 25.1787C332.828 23.2882 332.325 21.9606 331.319 21.1963C330.354 20.4322 328.966 20.0498 327.156 20.0498C324.461 20.0498 321.525 20.2917 318.347 20.7744L316.898 20.9551L316.477 14.499C320.419 13.2923 324.502 12.6885 328.726 12.6885ZM358.748 19.9297C356.294 19.9297 354.525 20.9351 353.438 22.9463C352.393 24.9576 351.869 28.4371 351.869 33.3848C351.869 38.3326 352.413 41.7926 353.499 43.7637C354.585 45.7345 356.355 46.7197 358.809 46.7197C361.262 46.7197 363.012 45.7345 364.058 43.7637C365.103 41.7926 365.627 38.3326 365.627 33.3848C365.627 28.3969 365.103 24.9173 364.058 22.9463C363.012 20.9351 361.242 19.9297 358.748 19.9297ZM391.306 19.9297C388.852 19.9297 387.081 20.935 385.995 22.9463C384.949 24.9576 384.427 28.4372 384.427 33.3848C384.427 38.3326 384.97 41.7926 386.056 43.7637C387.142 45.7346 388.912 46.7196 391.365 46.7197C393.819 46.7197 395.569 45.7346 396.615 43.7637C397.661 41.7926 398.184 38.3326 398.184 33.3848C398.184 28.3969 397.661 24.9173 396.615 22.9463C395.569 20.9351 393.799 19.9298 391.306 19.9297ZM308.295 17.2139C309.791 17.3587 311.168 17.5516 312.423 17.793L313.038 17.9375L312.64 21.7754C310.878 21.5823 309.248 21.4374 307.752 21.3408L307.028 27.1699C309.538 27.9664 311.24 28.8471 312.133 29.8125C313.05 30.7538 313.509 32.1902 313.509 34.1211C313.509 36.631 312.748 38.5376 311.228 39.8408C309.707 41.12 307.716 41.7598 305.254 41.7598H305.218L304.675 46.0312C302.889 45.9589 301.997 45.8748 301.996 45.7783L302.503 41.5791C300.717 41.3619 299.22 41.108 298.014 40.8184L297.289 40.6738L297.76 36.9082C299.666 37.1737 301.429 37.3546 303.046 37.4512L303.842 31.1523C301.356 30.4042 299.594 29.4984 298.557 28.4365C297.519 27.3746 297 25.9268 297 24.0928C297 21.7034 297.724 19.929 299.172 18.7705C300.62 17.5879 302.611 16.9961 305.146 16.9961H305.616L306.268 12H308.947L308.295 17.2139ZM305.761 37.4873C307.716 37.2701 308.693 36.2565 308.693 34.4463C308.693 33.8671 308.524 33.3962 308.187 33.0342C307.873 32.6482 307.294 32.286 306.449 31.9482L305.761 37.4873ZM305.073 21.2686C302.901 21.3651 301.814 22.1978 301.814 23.7666C301.814 24.3458 301.995 24.8167 302.357 25.1787C302.719 25.5407 303.42 25.9146 304.458 26.3008L305.073 21.2686Z" fill="#FFE344"/>
<path d="M418.072 36.9609V26.9609H420.252V36.9609H418.072ZM418.072 25.2609V22.9609H420.252V25.2609H418.072ZM424.676 36.9609H422.496V26.9609H424.656V27.5809C425.63 27.0209 426.55 26.7409 427.416 26.7409C428.75 26.7409 429.656 27.1209 430.136 27.8809C430.63 28.6276 430.876 29.8676 430.876 31.6009V36.9609H428.716V31.6609C428.716 30.5809 428.596 29.8143 428.356 29.3609C428.13 28.9076 427.656 28.6809 426.936 28.6809C426.256 28.6809 425.603 28.8143 424.976 29.0809L424.676 29.2009V36.9609ZM441.669 26.7409C443.042 26.7409 444.029 27.1276 444.629 27.9009C445.242 28.6609 445.549 30.0143 445.549 31.9609C445.549 33.9076 445.189 35.2676 444.469 36.0409C443.749 36.8009 442.482 37.1809 440.669 37.1809C440.042 37.1809 439.049 37.1209 437.689 37.0009L437.009 36.9409V22.8009H439.169V27.3409C440.089 26.9409 440.922 26.7409 441.669 26.7409ZM440.669 35.2409C441.735 35.2409 442.442 34.9943 442.789 34.5009C443.149 33.9943 443.329 33.1409 443.329 31.9409C443.329 30.7409 443.175 29.9009 442.869 29.4209C442.575 28.9276 442.089 28.6809 441.409 28.6809C440.769 28.6809 440.129 28.7809 439.489 28.9809L439.169 29.0809V35.1609C439.902 35.2143 440.402 35.2409 440.669 35.2409ZM447.331 36.9609V26.9609H449.511V36.9609H447.331ZM447.331 25.2609V22.9609H449.511V25.2609H447.331ZM451.876 36.9609V22.8009H454.056V36.9609H451.876ZM456.534 36.9609V22.8009H458.714V36.9609H456.534ZM421.812 43.7409C422.519 43.7409 423.352 43.8343 424.312 44.0209L424.812 44.1209L424.732 45.8409C423.679 45.7343 422.899 45.6809 422.392 45.6809C421.379 45.6809 420.699 45.9076 420.352 46.3609C420.005 46.8143 419.832 47.6676 419.832 48.9209C419.832 50.1743 419.999 51.0409 420.332 51.5209C420.665 52.0009 421.359 52.2409 422.412 52.2409L424.752 52.0809L424.812 53.8209C423.465 54.0609 422.452 54.1809 421.772 54.1809C420.252 54.1809 419.179 53.7743 418.552 52.9609C417.939 52.1343 417.632 50.7876 417.632 48.9209C417.632 47.0543 417.959 45.7276 418.612 44.9409C419.265 44.1409 420.332 43.7409 421.812 43.7409ZM426.52 53.9609V43.9609H428.68V45.1609C429.813 44.4276 430.946 43.9543 432.08 43.7409V45.9209C430.933 46.1476 429.953 46.4409 429.14 46.8009L428.7 46.9809V53.9609H426.52ZM440.388 52.1609L440.948 52.1009L440.988 53.7209C439.468 54.0276 438.121 54.1809 436.948 54.1809C435.468 54.1809 434.401 53.7743 433.748 52.9609C433.108 52.1476 432.788 50.8476 432.788 49.0609C432.788 45.5143 434.235 43.7409 437.128 43.7409C439.928 43.7409 441.328 45.2676 441.328 48.3209L441.188 49.8809H434.988C435.001 50.7076 435.181 51.3143 435.528 51.7009C435.875 52.0876 436.521 52.2809 437.468 52.2809C438.415 52.2809 439.388 52.2409 440.388 52.1609ZM439.188 48.2009C439.188 47.2143 439.028 46.5276 438.708 46.1409C438.401 45.7409 437.875 45.5409 437.128 45.5409C436.381 45.5409 435.835 45.7476 435.488 46.1609C435.155 46.5743 434.981 47.2543 434.968 48.2009H439.188ZM451.184 39.8009V53.9609H449.024V53.4409C448.051 53.9343 447.158 54.1809 446.344 54.1809C445.038 54.1809 444.078 53.7876 443.464 53.0009C442.864 52.2143 442.564 50.8943 442.564 49.0409C442.564 47.1876 442.898 45.8409 443.564 45.0009C444.244 44.1609 445.298 43.7409 446.724 43.7409C447.204 43.7409 447.964 43.8276 449.004 44.0009V39.8009H451.184ZM448.664 51.8809L449.004 51.7409V45.8209C448.204 45.6876 447.464 45.6209 446.784 45.6209C445.438 45.6209 444.764 46.7409 444.764 48.9809C444.764 50.2076 444.918 51.0609 445.224 51.5409C445.544 52.0076 446.044 52.2409 446.724 52.2409C447.404 52.2409 448.051 52.1209 448.664 51.8809ZM453.425 53.9609V43.9609H455.605V53.9609H453.425ZM453.425 42.2609V39.9609H455.605V42.2609H453.425ZM463.229 45.8209H460.469V50.2209C460.469 51.0343 460.529 51.5743 460.649 51.8409C460.769 52.1076 461.076 52.2409 461.569 52.2409L463.209 52.1809L463.309 53.9209C462.416 54.0943 461.736 54.1809 461.269 54.1809C460.136 54.1809 459.356 53.9209 458.929 53.4009C458.516 52.8809 458.309 51.9009 458.309 50.4609V45.8209H457.029V43.9609H458.309V41.0609H460.469V43.9609H463.229V45.8209ZM471.557 46.0209C469.984 45.8076 468.844 45.7009 468.137 45.7009C467.431 45.7009 466.937 45.7876 466.657 45.9609C466.391 46.1209 466.257 46.3809 466.257 46.7409C466.257 47.1009 466.404 47.3543 466.697 47.5009C467.004 47.6476 467.711 47.8209 468.817 48.0209C469.937 48.2076 470.731 48.5076 471.197 48.9209C471.664 49.3343 471.897 50.0676 471.897 51.1209C471.897 52.1743 471.557 52.9476 470.877 53.4409C470.211 53.9343 469.231 54.1809 467.937 54.1809C467.124 54.1809 466.097 54.0676 464.857 53.8409L464.237 53.7409L464.317 51.9209C465.917 52.1343 467.071 52.2409 467.777 52.2409C468.484 52.2409 468.984 52.1543 469.277 51.9809C469.584 51.8076 469.737 51.5209 469.737 51.1209C469.737 50.7209 469.591 50.4476 469.297 50.3009C469.017 50.1409 468.331 49.9743 467.237 49.8009C466.157 49.6143 465.364 49.3276 464.857 48.9409C464.351 48.5543 464.097 47.8476 464.097 46.8209C464.097 45.7943 464.444 45.0276 465.137 44.5209C465.844 44.0143 466.744 43.7609 467.837 43.7609C468.691 43.7609 469.737 43.8676 470.977 44.0809L471.597 44.2009L471.557 46.0209ZM476.856 40.9129H475.332L475.8 42.3769L475.056 42.6049L474.564 41.1289L473.304 42.0769L472.824 41.4649L474.108 40.5169L472.86 39.6289L473.328 38.9809L474.564 39.8809L475.044 38.4049L475.812 38.6569L475.344 40.1449H476.856V40.9129Z" fill="#FFE344"/>
<defs>
<clipPath id="clip0_8658_25857">
<rect width="89" height="90" fill="white"/>
</clipPath>
<clipPath id="clip1_8658_25857">
<rect width="145.6" height="90" fill="white" transform="matrix(-1 0 0 1 145.267 0.000976562)"/>
</clipPath>
<clipPath id="clip2_8658_25857">
<rect width="90" height="90" fill="white" transform="translate(-0.599365 0.333984)"/>
</clipPath>
</defs>
</svg>
