<svg width="728" height="90" viewBox="0 0 728 90" fill="none" xmlns="http://www.w3.org/2000/svg">
<rect width="157" height="18" transform="translate(101 30)" fill="white" fill-opacity="0.01"/>
<path d="M103.054 48V30.19H108.072L112.05 44.1L116.028 30.19H121.072V48H118.16V33.388H117.77L113.558 47.272H110.542L106.33 33.388H105.94V48H103.054ZM124.835 36.404C125.737 35.2773 127.227 34.714 129.307 34.714C131.388 34.714 132.87 35.2773 133.754 36.404C134.655 37.5307 135.106 39.2207 135.106 41.474C135.106 43.7273 134.672 45.426 133.806 46.57C132.939 47.714 131.439 48.286 129.307 48.286C127.175 48.286 125.676 47.714 124.809 46.57C123.943 45.426 123.509 43.7273 123.509 41.474C123.509 39.2207 123.951 37.5307 124.835 36.404ZM126.967 44.854C127.366 45.5473 128.146 45.894 129.307 45.894C130.469 45.894 131.249 45.5473 131.648 44.854C132.046 44.1607 132.246 43.0253 132.246 41.448C132.246 39.8707 132.029 38.7527 131.595 38.094C131.18 37.4353 130.417 37.106 129.307 37.106C128.198 37.106 127.427 37.4353 126.993 38.094C126.577 38.7527 126.369 39.8707 126.369 41.448C126.369 43.0253 126.569 44.1607 126.967 44.854ZM135.975 35H138.939L141.435 45.582H142.267L144.867 35H147.753L144.373 48H139.329L135.975 35ZM149.449 48V35H152.283V48H149.449ZM149.449 32.79V29.8H152.283V32.79H149.449ZM158.034 48H155.2V35H158.008V35.806C159.274 35.078 160.47 34.714 161.596 34.714C163.33 34.714 164.508 35.208 165.132 36.196C165.774 37.1667 166.094 38.7787 166.094 41.032V48H163.286V41.11C163.286 39.706 163.13 38.7093 162.818 38.12C162.524 37.5307 161.908 37.236 160.972 37.236C160.088 37.236 159.239 37.4093 158.424 37.756L158.034 37.912V48ZM180.236 49.768C180.236 52.6107 178.182 54.032 174.074 54.032C172.098 54.032 170.633 53.7633 169.68 53.226C168.726 52.6887 168.25 51.7093 168.25 50.288C168.25 49.6467 168.406 49.092 168.718 48.624C169.03 48.1733 169.532 47.6793 170.226 47.142C169.654 46.7607 169.368 46.128 169.368 45.244C169.368 44.8973 169.602 44.334 170.07 43.554L170.304 43.164C169.056 42.4187 168.432 41.1187 168.432 39.264C168.432 37.704 168.9 36.56 169.836 35.832C170.772 35.104 172.037 34.74 173.632 34.74C174.394 34.74 175.148 34.8267 175.894 35L176.284 35.078L180.314 34.974V37.262L178.156 37.132C178.624 37.7387 178.858 38.4493 178.858 39.264C178.858 40.9627 178.424 42.1413 177.558 42.8C176.708 43.4413 175.374 43.762 173.554 43.762C173.103 43.762 172.722 43.7273 172.41 43.658C172.167 44.2473 172.046 44.7067 172.046 45.036C172.046 45.348 172.202 45.5647 172.514 45.686C172.843 45.8073 173.623 45.8767 174.854 45.894C176.916 45.9113 178.329 46.1887 179.092 46.726C179.854 47.2633 180.236 48.2773 180.236 49.768ZM171.032 50.028C171.032 50.6347 171.274 51.068 171.76 51.328C172.245 51.588 173.077 51.718 174.256 51.718C176.353 51.718 177.402 51.12 177.402 49.924C177.402 49.248 177.211 48.8147 176.83 48.624C176.466 48.4507 175.729 48.3553 174.62 48.338L172.072 48.182C171.69 48.494 171.422 48.78 171.266 49.04C171.11 49.3173 171.032 49.6467 171.032 50.028ZM171.24 39.264C171.24 40.0613 171.43 40.6507 171.812 41.032C172.193 41.396 172.808 41.578 173.658 41.578C174.507 41.578 175.114 41.396 175.478 41.032C175.859 40.6507 176.05 40.0613 176.05 39.264C176.05 38.4667 175.859 37.886 175.478 37.522C175.096 37.1407 174.481 36.95 173.632 36.95C172.037 36.95 171.24 37.7213 171.24 39.264ZM190.041 48H187.207V29.592H190.041V35.676C191.324 35.0347 192.511 34.714 193.603 34.714C195.336 34.714 196.515 35.208 197.139 36.196C197.78 37.1667 198.101 38.7787 198.101 41.032V48H195.267V41.11C195.267 39.706 195.12 38.7093 194.825 38.12C194.53 37.5307 193.906 37.236 192.953 37.236C192.121 37.236 191.289 37.3747 190.457 37.652L190.041 37.808V48ZM201.582 36.404C202.484 35.2773 203.974 34.714 206.054 34.714C208.134 34.714 209.616 35.2773 210.5 36.404C211.402 37.5307 211.852 39.2207 211.852 41.474C211.852 43.7273 211.419 45.426 210.552 46.57C209.686 47.714 208.186 48.286 206.054 48.286C203.922 48.286 202.423 47.714 201.556 46.57C200.69 45.426 200.256 43.7273 200.256 41.474C200.256 39.2207 200.698 37.5307 201.582 36.404ZM203.714 44.854C204.113 45.5473 204.893 45.894 206.054 45.894C207.216 45.894 207.996 45.5473 208.394 44.854C208.793 44.1607 208.992 43.0253 208.992 41.448C208.992 39.8707 208.776 38.7527 208.342 38.094C207.926 37.4353 207.164 37.106 206.054 37.106C204.945 37.106 204.174 37.4353 203.74 38.094C203.324 38.7527 203.116 39.8707 203.116 41.448C203.116 43.0253 203.316 44.1607 203.714 44.854ZM216.981 48H214.147V35H216.955V35.806C218.186 35.078 219.313 34.714 220.335 34.714C221.843 34.714 222.944 35.1387 223.637 35.988C225.215 35.1387 226.783 34.714 228.343 34.714C229.903 34.714 231.004 35.1993 231.645 36.17C232.287 37.1233 232.607 38.744 232.607 41.032V48H229.799V41.11C229.799 39.706 229.652 38.7093 229.357 38.12C229.08 37.5307 228.491 37.236 227.589 37.236C226.809 37.236 225.969 37.4093 225.067 37.756L224.625 37.938C224.764 38.2847 224.833 39.394 224.833 41.266V48H222.025V41.318C222.025 39.7753 221.887 38.7093 221.609 38.12C221.332 37.5307 220.725 37.236 219.789 37.236C218.923 37.236 218.117 37.4093 217.371 37.756L216.981 37.912V48ZM244.668 45.66L245.396 45.582L245.448 47.688C243.472 48.0867 241.722 48.286 240.196 48.286C238.272 48.286 236.886 47.7573 236.036 46.7C235.204 45.6427 234.788 43.9527 234.788 41.63C234.788 37.0193 236.669 34.714 240.43 34.714C244.07 34.714 245.89 36.6987 245.89 40.668L245.708 42.696H237.648C237.666 43.7707 237.9 44.5593 238.35 45.062C238.801 45.5647 239.642 45.816 240.872 45.816C242.103 45.816 243.368 45.764 244.668 45.66ZM243.108 40.512C243.108 39.2293 242.9 38.3367 242.484 37.834C242.086 37.314 241.401 37.054 240.43 37.054C239.46 37.054 238.749 37.3227 238.298 37.86C237.865 38.3973 237.64 39.2813 237.622 40.512H243.108ZM256.555 34.116C256.555 35.2773 256.407 36.1613 256.113 36.768C255.835 37.3747 255.255 38.0247 254.371 38.718C253.487 39.4113 252.897 39.966 252.603 40.382C252.325 40.7807 252.187 41.214 252.187 41.682V42.54H249.899C249.483 42.0027 249.275 41.3267 249.275 40.512C249.275 40.0787 249.439 39.6453 249.769 39.212C250.098 38.7787 250.687 38.2153 251.537 37.522C252.386 36.8113 252.949 36.2653 253.227 35.884C253.504 35.4853 253.643 34.9653 253.643 34.324C253.643 33.0587 252.724 32.426 250.887 32.426C249.847 32.426 248.755 32.5473 247.611 32.79L247.013 32.92L246.857 30.762C248.469 30.19 249.933 29.904 251.251 29.904C253.071 29.904 254.405 30.242 255.255 30.918C256.121 31.5767 256.555 32.6427 256.555 34.116ZM249.457 48V44.36H252.473V48H249.457Z" fill="white"/>
</svg>
