<svg width="64" height="65" viewBox="0 0 64 65" fill="none" xmlns="http://www.w3.org/2000/svg">
<path d="M32 64.5557C49.6731 64.5557 64 50.2288 64 32.5557C64 14.8826 49.6731 0.555664 32 0.555664C14.3269 0.555664 0 14.8826 0 32.5557C0 50.2288 14.3269 64.5557 32 64.5557Z" fill="#FFE344"/>
<path d="M32.0016 61.5687C16.0041 61.5687 2.98828 48.5529 2.98828 32.5553C2.98828 16.5578 16.0041 3.54199 32.0016 3.54199C47.9992 3.54199 61.0149 16.5578 61.0149 32.5553C61.0149 48.5529 47.9992 61.5687 32.0016 61.5687ZM32.0016 4.65737C16.6183 4.65737 4.10366 17.172 4.10366 32.5553C4.10366 47.9387 16.6183 60.4533 32.0016 60.4533C47.385 60.4533 59.8996 47.9387 59.8996 32.5553C59.8996 17.172 47.385 4.65737 32.0016 4.65737Z" fill="white"/>
<path d="M15.0336 29.2674C15.2896 29.7112 15.7632 29.933 16.4544 29.933C17.1456 29.933 17.6149 29.7112 17.8624 29.2674C18.1184 28.8152 18.2464 28.0642 18.2464 27.0146C18.2464 25.9565 18.1184 25.1885 17.8624 24.7106C17.6064 24.2328 17.137 23.9938 16.4544 23.9938C15.7717 23.9938 15.3024 24.2328 15.0464 24.7106C14.7904 25.1885 14.6624 25.9565 14.6624 27.0146C14.6624 28.0642 14.7861 28.8152 15.0336 29.2674ZM19.2448 30.3938C18.7072 31.1106 17.777 31.469 16.4544 31.469C15.1317 31.469 14.1973 31.1106 13.6512 30.3938C13.1136 29.6685 12.8448 28.5378 12.8448 27.0018C12.8448 25.4658 13.1136 24.3266 13.6512 23.5842C14.1973 22.8333 15.1317 22.4578 16.4544 22.4578C17.777 22.4578 18.7072 22.8333 19.2448 23.5842C19.7909 24.3266 20.064 25.4658 20.064 27.0018C20.064 28.5378 19.7909 29.6685 19.2448 30.3938ZM21.0668 31.3154V22.6114H24.0492L26.1484 29.7794H26.2764V22.6114H28.0428V31.3154H25.1372L22.9612 24.1474H22.8332V31.3154H21.0668ZM34.3834 31.3154H29.4298V22.6114H31.1962V29.7538H34.3834V31.3154ZM34.9553 31.3154V22.6114H36.7217V31.3154H34.9553ZM38.1058 31.3154V22.6114H41.0882L43.1874 29.7794H43.3154V22.6114H45.0818V31.3154H42.1762L40.0002 24.1474H39.8722V31.3154H38.1058ZM46.4688 31.3154V22.6114H52.1008V24.1474H48.2352V26.1826H51.3328V27.693H48.2352V29.7794H52.1008V31.3154H46.4688ZM14.6662 35.9938C13.7361 35.9938 13.271 36.301 13.271 36.9154C13.271 37.1885 13.3862 37.3976 13.6166 37.5426C13.847 37.6877 14.3846 37.8968 15.2294 38.1698C16.0827 38.4429 16.6801 38.7544 17.0214 39.1042C17.3627 39.4456 17.5334 39.9746 17.5334 40.6914C17.5334 41.6045 17.2561 42.2957 16.7014 42.765C16.1467 43.2344 15.4214 43.469 14.5254 43.469C13.8598 43.469 13.0449 43.3666 12.0806 43.1618L11.6198 43.0722L11.799 41.7026C12.9425 41.8562 13.8171 41.933 14.423 41.933C15.3275 41.933 15.7798 41.5576 15.7798 40.8066C15.7798 40.5336 15.6731 40.3202 15.4598 40.1666C15.255 40.013 14.8411 39.8466 14.2182 39.6674C13.2283 39.3858 12.5286 39.053 12.119 38.669C11.7179 38.2765 11.5174 37.7346 11.5174 37.0434C11.5174 36.173 11.7819 35.5245 12.311 35.0978C12.8401 34.6712 13.5654 34.4578 14.487 34.4578C15.1185 34.4578 15.9206 34.5432 16.8934 34.7138L17.3542 34.8034L17.2134 36.1986C16.0102 36.0621 15.1611 35.9938 14.6662 35.9938ZM21.6415 40.781H20.2079V43.3154H18.4415V34.6114H21.6415C23.7066 34.6114 24.7391 35.6184 24.7391 37.6322C24.7391 38.6477 24.4746 39.4285 23.9455 39.9746C23.425 40.5122 22.657 40.781 21.6415 40.781ZM20.2079 39.2706H21.6287C22.5076 39.2706 22.9471 38.7245 22.9471 37.6322C22.9471 37.0946 22.8404 36.7106 22.6271 36.4802C22.4138 36.2413 22.081 36.1218 21.6287 36.1218H20.2079V39.2706ZM25.467 43.3154V34.6114H31.099V36.1474H27.2334V38.1826H30.331V39.693H27.2334V41.7794H31.099V43.3154H25.467ZM37.4968 43.1746C36.5923 43.3709 35.7773 43.469 35.052 43.469C34.3267 43.469 33.7464 43.3794 33.3112 43.2002C32.876 43.021 32.5347 42.7352 32.2872 42.3426C32.0397 41.9501 31.8691 41.4893 31.7752 40.9602C31.6813 40.4312 31.6344 39.7656 31.6344 38.9634C31.6344 37.2824 31.8691 36.1133 32.3384 35.4562C32.8163 34.7906 33.6909 34.4578 34.9624 34.4578C35.6963 34.4578 36.5453 34.573 37.5096 34.8034L37.4584 36.2114C36.6136 36.0834 35.9096 36.0194 35.3464 36.0194C34.7917 36.0194 34.3949 36.0962 34.156 36.2498C33.9171 36.3949 33.7379 36.6765 33.6184 37.0946C33.5075 37.5128 33.452 38.2253 33.452 39.2322C33.452 40.2392 33.5672 40.9389 33.7976 41.3314C34.0365 41.7154 34.5059 41.9074 35.2056 41.9074C35.9139 41.9074 36.6648 41.8477 37.4584 41.7282L37.4968 43.1746ZM38.418 43.3154V34.6114H40.1844V43.3154H38.418ZM40.8389 43.3154L42.7973 34.6114H46.1509L48.1093 43.3154H46.3429L45.9973 41.741H42.9509L42.6053 43.3154H40.8389ZM44.1669 36.0706L43.2837 40.205H45.6645L44.7813 36.0706H44.1669ZM53.7101 43.3154H48.7565V34.6114H50.5229V41.7538H53.7101V43.3154Z" fill="#001CB0"/>
</svg>
