<svg width="147" height="82" viewBox="0 0 147 82" fill="none" xmlns="http://www.w3.org/2000/svg">
  <!-- Generator: Adobe Illustrator 30.1.0, SVG Export Plug-In . SVG Version: 2.1.1 Build 136)  -->
  <path d="M71.31,4.63v9.66h-14.05V.24h9.66c2.42,0,4.39,1.97,4.39,4.39Z" fill="#fff"/>
  <path d="M71.31,28.34h-14.05v14.05h14.05v-14.05Z" fill="#fff"/>
  <path d="M43.2.24h-14.05v14.05h14.05V.24Z" fill="#ffd000"/>
  <path d="M15.1,11.5V.24H1.05v37.77c0,2.42,1.97,4.39,4.39,4.39h9.66v-11.26c0-1.54,1.25-2.79,2.79-2.79h11.26v-14.05h-11.26c-1.54,0-2.79-1.25-2.79-2.79Z" fill="#fff"/>
  <path d="M43.2,28.34h-14.05v14.05h14.05v-14.05Z" fill="#fff"/>
  <path d="M16.37,57.86c-.96,0-1.75-.31-2.39-.96-.63-.64-.95-1.44-.95-2.42s.3-1.83.95-2.47c.63-.65,1.44-.96,2.43-.96s1.72.32,2.36.97c.64.65.96,1.44.96,2.4s-.31,1.8-.96,2.46c-.64.66-1.43.98-2.4.98ZM20.18,50.76c-1.02-.97-2.31-1.46-3.83-1.46s-2.81.49-3.81,1.46c-1,.97-1.51,2.22-1.51,3.7s.51,2.67,1.5,3.63c.99.96,2.26,1.45,3.74,1.45s2.86-.48,3.89-1.45c1.03-.96,1.56-2.19,1.56-3.66s-.52-2.7-1.54-3.67ZM61.93,49.42v5.59c0,1.6-.61,2.7-2.4,2.7s-2.4-1.1-2.4-2.7v-5.59h-1.94v6c0,2.95,2,4.11,4.34,4.11s4.34-1.15,4.34-4.11v-6h-1.94ZM50.24,49.42v8.26h4.2v1.73h-6.13v-9.99h1.93ZM43.27,53.93c.96,0,1.77-.44,1.77-1.39s-.55-1.39-1.77-1.39h-1.16v2.78h1.16ZM43.82,49.42c2.1,0,3.15,1.36,3.15,3.11s-1.3,3.13-3.22,3.13h-1.64v3.74h-1.93v-9.99h3.64ZM38.86,49.42v1.73h-3.28v8.26h-1.93v-8.26h-3.28v-1.73h8.49ZM68.5,49.29c.97,0,1.91.25,2.81.73v1.97c-1.04-.62-1.73-1.01-2.78-1.01s-1.41.36-1.44.85c-.03.38.21.7.71,1.02.14.09.67.37,1.62.83.8.4,1.41.81,1.77,1.29.36.47.55,1.04.55,1.7,0,.86-.31,1.55-.93,2.08-.61.53-1.42.79-2.4.79-.63,0-1.19-.07-1.65-.21-.46-.14-.97-.38-1.55-.73v-2.19c1.07.89,2.04,1.44,2.99,1.44.89,0,1.48-.34,1.48-.95,0-.41-.19-.78-.68-1.07-.41-.25-.95-.52-1.58-.87-.76-.42-1.37-.79-1.76-1.28-.39-.48-.59-1.01-.59-1.64,0-.84.31-1.5.94-2,.62-.5,1.45-.75,2.48-.75M26.23,49.29c.97,0,1.91.25,2.81.73v1.97c-1.03-.62-1.73-1.01-2.78-1.01s-1.41.36-1.44.85c-.03.38.21.7.71,1.02.14.09.67.37,1.62.83.8.4,1.41.81,1.78,1.29.36.47.54,1.04.54,1.7,0,.86-.31,1.55-.93,2.08-.61.53-1.42.79-2.4.79-.64,0-1.19-.07-1.65-.21-.45-.14-.97-.38-1.55-.73v-2.19c1.07.89,2.04,1.44,2.99,1.44.89,0,1.48-.34,1.48-.95,0-.41-.18-.78-.68-1.07-.41-.25-.95-.52-1.58-.87-.76-.42-1.37-.79-1.76-1.28-.39-.48-.59-1.01-.59-1.64,0-.84.31-1.5.94-2,.62-.5,1.45-.75,2.48-.75M2.97,49.42v3.98h4.74v-3.98h1.93v9.99h-1.93v-3.99H2.97v3.99h-1.93v-9.99h1.93Z" fill="#fff"/>
  <line x1="87.71" y1=".1" x2="87.71" y2="59.9" fill="none" stroke="#fff" stroke-width=".48"/>
  <g>
    <path d="M145.31,9.07l-.07-.31-.28-.14c-.14-.07-2.3-1.12-7.58-1.9.48-.86.8-1.9.97-3.17.07-.56-.04-1.03-.35-1.38-.35-.39-.91-.6-1.66-.6-2.25,0-3.59-.13-5.21-.36-1.24-.74-2.61-1.11-4.07-1.11-1.03,0-1.82.19-2.19.3-.76-.19-1.55-.28-2.36-.28-2.32,0-4.16.77-4.69,1.01h-.17c-1.66,0-3.39-.1-4.51-.27-.08-.01-.16-.02-.23-.04-.35-.06-.65-.11-.98-.11-.16,0-.31.01-.47.04-.24.04-.68.19-.96.8-.47,1.02-.33,3.16.59,4.61.11.2.28.42.46.65-4.85.76-6.86,1.74-6.99,1.81l-.28.14-.07.31c-1.7,7.18-1.34,14.32,1.05,20.66,2.24,5.97,6.21,11.12,11.46,14.88,3.07,2.31,5.64,3.71,7.75,4.77l.3.15.3-.15c2.85-1.4,5.17-2.83,7.76-4.78,5.26-3.77,9.22-8.92,11.46-14.88,2.38-6.34,2.75-13.48,1.05-20.66h0Z" fill="#fff"/>
    <path d="M137.01,29.03c.8.85,1.58,1.95,2.03,3.4.03.09.1.37.15.65.41-1.1.75-2.22,1.04-3.35-.59-.81-1.55-1.63-2.16-2.18-1.43-1.3-2.63-2.5-2.71-4.47-.01-.23-.04-.64-.05-.77.3-.32.5-.56.69-.85.29.35.58.61.76.8,1.02,1.02,1.33,2.05,2.04,3.28.37.65,1.1,1.6,1.84,2.4.11-.55.2-1.11.29-1.66-.96-.9-2.17-2.46-2.62-3.35.9.81,1.94,1.68,2.79,2.12.18-1.59.28-3.19.28-4.8,0-3.42-.29-7.54-1.25-12.33-1.09-.23-2.4-.45-3.95-.65.62-.69,1.24-1.81,1.5-3.79.11-.87-.41-1.21-1.34-1.21-2.27,0-3.64-.13-5.45-.39-3.03-1.87-6.01-.76-6.01-.76-3.65-.98-6.92.7-6.92.7-1.7.01-3.63-.08-4.95-.28-.6-.1-.97-.19-1.47-.11-.84.13-.9,2.8.12,4.39.22.38.71.97,1.22,1.49-1.37.19-2.55.39-3.54.6-.96,4.79-1.25,8.9-1.25,12.33,0,5.94,1.21,11.88,4.16,17.11-.23-2.3-.16-4.57.07-6.31.23-1.76.62-3.24.97-4.38,0,0-.4.63-.74,1.23.48-1.78,1.39-3.44,2.06-4.62.39.61.92,1.27,1.57,1.8-1.06,2.06-2.12,5.48-2.08,7.77.18-.72.42-1.25.42-1.25-.3,3.28.72,7.85,2.31,10.6.78,1.39,1.68,2.61,2.87,3.7.31.2.6.39.9.57-1.31-3.78-.79-5.84,1.33-10.97-1.55,1.55-2.75,2.2-3.48,4.69.04-.62.15-1.19.28-1.49-.85-1.01-1.43-2.22-1.74-3.98-.19.32-.37.65-.52,1.09.02-.73.13-1.08.42-1.76,0-.07-.02-.14-.02-.21-.18.31-.36.59-.42.84-.72-2.12-1.05-5.43-.37-7.87.18,3.62,1.22,5.85,2.98,7.73.15-.23.32-.44.53-.65-.17.28-.28.53-.38.77-.14.3-.22.55-.37,1.08.34-.56.52-.85.72-1.15,1.74-2.42,4.2-3.22,5.84-4.87,0,0-.94.37-1.72.96,1.18-1.12,2.46-1.47,3.51-3.06.09-.14.2-.3.31-.48.02.21-.02.5-.1.73.44-.37.78-.8.9-1.06-.02.26-.17.97-.28,1.3.44-.39.7-.87.89-1.24.12.09.23.31.28.5.39-.17.75-.45,1.01-.86.1.08.24.28.28.37.31-.22.58-.59.67-.99.05.08.11.17.13.26.32-.08.71-.45.86-.62.4-.45.58-1.12.63-1.35.49-.22.97-.52,1.41-.86-.08.19-.14.42-.16.68,0,.05,0,.1-.01.14-.16,2.08.59,2.74,1.98,3.93.32.27.66.59,1,.94h.02Z" fill="#231f20"/>
    <path d="M128.37,39.26c3.98-4.19,4.85-7.75,3.32-11.77.04,3.29-7.17,8.15-8.28,9.95.38-.29,1.7-1.11,1.97-1.29-1,.8-1.54,1.31-2.23,2.34.68-.68,1.31-1.02,1.85-1.39-2.68,2.35-3.48,6.23-2.68,10.39.8.45,1.58.86,2.36,1.26-.3-3.91,1.54-7.23,3.68-9.48Z" fill="#231f20"/>
    <path d="M107.31,22.25c-.33-5.47.26-10.01.99-14.12-.37.09-.71.17-1.02.26-2.58,11.58-.88,22.05,4.52,29.85-2.69-4.57-4.22-9.97-4.5-15.99Z" fill="#ffd200"/>
    <path d="M111.81,38.24c-5.41-7.8-7.1-18.27-4.52-29.85-1.71.47-2.45.84-2.45.84-3.16,13.36,1.12,25.05,9.39,32.53-.89-1.11-1.69-2.28-2.42-3.52Z" fill="#231f20"/>
    <path d="M142.17,22.25c.33-5.47-.26-10.01-.99-14.12.37.09.71.17,1.02.26,2.58,11.58.88,22.05-4.52,29.85,2.68-4.57,4.22-9.97,4.5-15.99Z" fill="#ffd200"/>
    <path d="M137.68,38.24c5.4-7.8,7.09-18.27,4.52-29.85,1.71.47,2.45.84,2.45.84,3.16,13.36-1.12,25.05-9.39,32.53.89-1.11,1.69-2.28,2.42-3.52Z" fill="#231f20"/>
    <path d="M117.94,58.03c.1,0,.28,0,.42,0h.56c.11,0,.26,0,.36-.01,0,0,0,0,0,0-.02.08-.03.28-.05.42-.01.01-.07.01-.08,0-.01-.11-.04-.18-.06-.23-.02-.05-.07-.07-.11-.07-.07,0-.35,0-.4,0-.01,0-.03.04-.03.05v.59s.01.02.02.02h.38c.06,0,.09-.04.11-.11,0-.03.01-.05.02-.09h.08c0,.07-.01.17-.01.28,0,.07,0,.2,0,.28-.01,0-.08.01-.08,0-.02-.09-.02-.08-.03-.11-.01-.04-.04-.08-.1-.09h-.38s-.02.02-.02.02v.55s.02.08.06.1c.05.01.18.02.33.02.15,0,.19-.01.25-.08.06-.07.11-.17.15-.28.01,0,.07.01.08.02,0,.05-.07.32-.12.42-.01.03-.03.05-.15.05-.25,0-.53-.01-.79-.01-.15,0-.34.01-.5.01v-.08c.09-.01.16-.02.2-.03.05-.02.08-.05.08-.15,0-.16,0-.41,0-.72,0-.22,0-.45,0-.55,0-.08-.02-.1-.08-.13-.04-.01-.09-.02-.14-.02-.01-.01,0-.07,0-.08l.02-.02Z" fill="#fff"/>
    <path d="M120.32,59.66c.08.05.17.08.26.08.14,0,.25-.09.25-.24s-.07-.24-.31-.39c-.27-.17-.44-.31-.44-.59,0-.33.27-.51.6-.51.21,0,.33.04.46.05-.02.11-.04.23-.05.42-.01,0-.07.01-.08,0-.02-.17-.06-.26-.13-.31-.07-.05-.13-.07-.22-.07-.15,0-.25.11-.25.25,0,.12.06.21.17.29.12.08.19.13.32.2.21.14.3.26.3.47,0,.31-.25.54-.68.54-.19,0-.37-.05-.43-.09-.03-.04-.08-.35-.08-.45,0-.01.07-.03.08-.02.07.2.14.3.24.39h-.01Z" fill="#fff"/>
    <path d="M122.97,59.79c-.11,0-.25,0-.44,0-.27,0-.4,0-.49,0-.01-.01-.01-.07,0-.08.07,0,.14-.01.18-.02.07-.02.09-.05.1-.19.01-.29.01-.87.01-1.31,0,0,0-.02-.01-.02h-.29c-.07,0-.11.04-.14.1-.04.07-.08.16-.11.25,0,0-.08,0-.08-.02.02-.11.05-.36.05-.47,0,0,.02-.02.02-.02.09.03.19.04.26.04h1.02c.15,0,.23-.01.31-.04.01,0,.01.01.02.02-.03.11-.05.3-.07.48,0,0-.08.01-.08,0-.01-.1-.04-.19-.06-.25-.03-.07-.06-.08-.11-.09h-.32s-.01.01-.01.02c0,.4,0,1.16,0,1.35,0,.07.02.11.08.14.05.01.07.01.16.03.01,0,0,.07,0,.08h-.01Z" fill="#fff"/>
    <path d="M125.77,59.79c-.11,0-.29-.01-.46-.01-.21,0-.32.01-.41.01,0-.01-.01-.07,0-.08.07-.01.1-.01.15-.02.08-.02.09-.1.1-.19,0-.12,0-.29,0-.56,0-.23,0-.45,0-.53,0-.05-.02-.1-.07-.11-.04,0-.09-.02-.13-.02,0-.01,0-.07,0-.08.23-.01.45-.09.57-.14,0,0,.04,0,.04.02,0,.12-.01.22-.01.45s0,.72.01.95c0,.1.02.18.09.2.06.01.1.01.14.02,0,0,0,.07,0,.08h0Z" fill="#fff"/>
    <path d="M127.49,58.48c0,.11-.07.21-.28.34h0c.23.16.35.27.35.48,0,.26-.24.5-.62.5-.41,0-.55-.23-.55-.44,0-.12.08-.23.35-.38h0c-.16-.12-.29-.25-.29-.45,0-.14.07-.28.17-.36.1-.08.23-.13.38-.13.28,0,.48.16.48.42h0ZM127.24,59.5c0-.16-.1-.26-.42-.45h-.01c-.08.08-.12.19-.12.29,0,.19.14.38.33.38.14,0,.23-.08.23-.22ZM126.75,58.38c0,.15.08.23.38.41h.01c.07-.08.1-.19.1-.28,0-.19-.1-.35-.28-.35-.13,0-.21.11-.21.23Z" fill="#fff"/>
    <path d="M129.26,58.48c0,.11-.07.21-.28.34h0c.23.16.35.27.35.48,0,.26-.24.5-.62.5-.41,0-.55-.23-.55-.44,0-.12.08-.23.35-.38h0c-.16-.12-.29-.25-.29-.45,0-.14.07-.28.17-.36.1-.08.23-.13.38-.13.28,0,.48.16.48.42h0ZM129.01,59.5c0-.16-.1-.26-.42-.45h-.01c-.08.08-.13.19-.13.29,0,.19.14.38.33.38.14,0,.23-.08.23-.22ZM128.52,58.38c0,.15.08.23.38.41h.01c.07-.08.1-.19.1-.28,0-.19-.1-.35-.27-.35-.13,0-.21.11-.21.23Z" fill="#fff"/>
    <path d="M130.9,58.09s-.06.19-.14.28c-.03.04-.1.07-.14.07-.19,0-.32-.02-.36-.02,0,0-.02,0-.02.01-.02.05-.04.08-.05.14,0,0,0,.02.02.03.08.04.4.17.53.25.18.1.3.22.3.45,0,.38-.41.62-.75.62-.17,0-.3-.06-.37-.14-.02-.02-.05-.06-.05-.1,0-.05.05-.14.08-.19,0,0,.02-.01.04-.02.11.17.29.3.49.3.15,0,.23-.11.23-.25,0-.13-.05-.25-.22-.36-.15-.1-.43-.22-.5-.26,0-.02,0-.08,0-.1.05-.17.21-.56.29-.68.03-.04.05-.05.08-.05.05,0,.18.01.34.01.1,0,.13,0,.17-.05.01,0,.04.02.04.03h0Z" fill="#fff"/>
    <path d="M115.48,55.01c-.22.35-.5.7-.71.87-.25.2-.5.23-.71.23-1.39,0-1.85-1.3-1.85-2.24,0-1.45.57-2.12,1.45-2.12.35,0,.66.06.92.21.33.19.39.46.5,1,.02.06.38.02.42-.04,0-.45.07-1.17.11-1.46-.32,0-.97-.15-1.77-.15-.69,0-1.22.13-1.69.35-.94.44-1.42,1.33-1.42,2.3,0,1.83,1.17,2.74,3.07,2.74.62,0,.98-.13,1.24-.22.25-.14.63-.83.75-1.2-.07-.11-.24-.23-.35-.25h0Z" fill="#fff"/>
    <path d="M110.23,56.04c-.22-.07-.23-.23-.25-.39-.02-.33,0-1.17,0-1.94,0-.72,0-1.15,0-1.43,0-.15,0-.32.2-.38.14-.04.31-.07.5-.09.04-.05.04-.35,0-.4-.22,0-.5.02-1.39.02-.62,0-1.03-.02-1.32-.02-.05.06-.05.35-.02.4.17.02.32.04.51.1.14.04.21.16.22.33.02.33.02.62.02,1.53,0,.41,0,1.66-.02,1.87-.02.32-.08.39-.32.44-.04.01-.13.01-.19,0-.19-.05-.26-.13-.45-.32-.37-.37-1.11-1.32-1.29-1.66-.01-.02-.01-.05,0-.07.56-.25.98-.62.98-1.28,0-.74-.6-1.35-1.68-1.35-.29,0-.79.02-1.66.02-.33,0-1.05-.02-1.26-.02-.06.04-.09.33-.04.4.18.04.38.07.48.1.15.04.22.13.23.32.02.31.02.89.02,1.72,0,.52,0,1.47-.02,1.74,0,.23-.07.35-.25.39-.11.02-.31.06-.44.08-.07.04-.04.37,0,.4.24,0,.69-.02,1.36-.02s1.17.02,1.31.02c.06,0,.08-.39.02-.4-.23-.04-.31-.04-.5-.1-.16-.05-.21-.18-.22-.36,0-.27-.02-.66-.02-1.17,0-.02.02-.06.04-.06.02,0,.16,0,.24,0,.12,0,.17.02.25.13.28.44.58.96.93,1.39.05.08.21.26.44.38.42.22,1.26.21,1.73.17.22,0,.51-.01.93-.01.74,0,1.11.02,1.37.02.06-.04.1-.33.07-.4-.19-.04-.46-.08-.56-.11h.01ZM105.73,53.84c-.13.08-.54.1-.89.1-.04,0-.06-.05-.06-.08,0-.61,0-1.55.02-1.81,0-.04.04-.1.06-.13.04-.02.18-.04.27-.04.6,0,1.02.41,1.02,1.11,0,.51-.18.73-.42.85Z" fill="#fff"/>
    <path d="M128.96,56.03c-.22-.06-.28-.25-.29-.44-.05-.58-.12-2.63-.11-3.25,0-.19.02-.33.22-.4.12-.04.32-.07.56-.12.06-.04.04-.39,0-.4-.42,0-.79.02-2.01.02-.02.16-.08.33-.16.53-.25.6-.92,2.02-1.16,2.45-.02.02-.04.02-.07,0-.25-.48-.81-1.66-1.14-2.4-.08-.17-.16-.37-.18-.58-.63,0-1.54-.02-2.18-.02-.02.02-.06.35-.04.4.28.05.52.1.67.15.17.07.22.25.21.39-.02.6-.2,2.55-.27,3.2-.04.31-.12.44-.37.51-.08.02-.23.05-.37.07-.07.01-.18.01-.24,0-.25-.04-.38-.07-.49-.11-.15-.07-.17-.23-.19-.39-.02-.38-.02-1.06-.02-1.63,0-.7,0-1.11,0-1.66,0-.27.04-.38.19-.44.09-.05.29-.08.46-.1.06-.06.06-.35,0-.4-.31,0-.56.02-1.29.02-.69,0-.91-.02-1.33-.02-.06.04-.07.36-.02.4.27.04.43.05.54.11.12.04.14.19.15.31,0,.48,0,.91,0,1.33,0,.02-.03.04-.06.05-.08.02-.31.02-.91.02-.83,0-.95,0-1.02-.02-.02-.02-.02-.02-.04-.07,0-.47,0-.89,0-1.24,0-.2.02-.33.19-.39.08-.04.28-.07.44-.08.05-.04.05-.35,0-.4-.18,0-.62.02-1.33.02-.8,0-1.07-.02-1.29-.02-.04.04-.06.37-.02.4.15.02.32.04.49.09.17.05.2.15.21.42,0,.25,0,.74,0,1.57,0,.75,0,1.54,0,1.66-.02.29-.08.44-.31.5-.13.04-.23.06-.42.09-.06.06-.04.36,0,.4.14,0,.57-.02,1.27-.02.9,0,1.3.02,1.45.02.05-.04.09-.33.04-.4-.19-.04-.42-.08-.53-.12-.19-.07-.22-.22-.22-.42,0-.31,0-.74,0-1.28,0,0,0-.04.02-.05.04-.02.12-.02,1.02-.02.38,0,.79,0,.96,0,.02,0,.04.04.04.05,0,.54,0,.99,0,1.39,0,.19-.07.3-.19.35-.13.04-.29.07-.48.09-.06.07-.05.35,0,.4.17,0,.62-.02,1.33-.02s1.17.02,1.36.02h.07c.32,0,.71-.02,1.04-.02.7,0,1.14.02,1.33.02.05-.05.08-.36.02-.4-.23-.04-.41-.07-.58-.12-.27-.08-.29-.21-.29-.45,0-.59.05-1.76.11-2.64,0-.02.05-.02.06-.02.53,1.2,1.22,2.82,1.45,3.53.04.02.41.02.44,0,.25-.65,1.2-2.72,1.56-3.58,0,0,.04,0,.04,0-.02.99,0,2.06-.02,2.74,0,.32-.05.39-.19.44-.12.04-.27.06-.48.1-.04.06-.04.35,0,.4.46,0,.81-.02,1.28-.02.81,0,1.23.02,1.54.02.06-.05.08-.33.04-.4-.23-.04-.44-.08-.56-.12l.02.02Z" fill="#fff"/>
    <path d="M132.32,51.29c-.78,0-1.43.23-1.91.57-.79.56-1.02,1.43-1.02,2.12,0,.65.17,1.39.71,1.93.46.46,1.08.77,2.1.77.84,0,1.69-.33,2.28-1.06.35-.46.52-1.08.52-1.72,0-1.39-.93-2.61-2.69-2.61h0ZM133.05,55.95c-.17.16-.4.23-.6.23-.35,0-.58-.12-.81-.31-.57-.48-.78-1.43-.78-2.14,0-.77.14-1.48.61-1.8.16-.12.39-.17.6-.17.32,0,.53.1.77.29.5.43.73,1.27.73,2.15,0,.72-.12,1.39-.5,1.75Z" fill="#fff"/>
    <path d="M145.72,51.94c-.46-.37-1.05-.53-1.82-.53-.67,0-.85.02-1.56.02-.25,0-1.12-.02-1.3-.02-.2,0-.49.02-1.1.02s-1.02-.02-1.2-.02c-.02.02-.04.37,0,.4.19.02.35.05.54.09.29.06.37.21.39.49.04.65.04,1.3.05,2.38-.02,0-.04,0-.05,0-.52-.58-1.63-1.98-2.34-2.86-.17-.22-.27-.35-.34-.5-.17,0-.48.02-.76.02-.66,0-.98-.02-1.27-.02-.02.04-.04.38,0,.42.25.02.43.08.58.14.22.08.29.33.29.51,0,.89-.02,2.59-.08,3.05-.02.23-.09.41-.29.49-.19.07-.33.09-.53.13-.02.04-.04.35,0,.4.36,0,.85-.02,1.2-.02.39,0,.78.02,1.17.02.05-.08.06-.36.02-.4-.23-.04-.39-.07-.53-.1-.23-.06-.37-.19-.39-.57-.02-.36-.04-1.72-.02-2.64,0,0,.02-.04.05,0,.75.93,2.28,2.95,2.92,3.77.13-.02.8-.04.93,0,0-.33-.02-.81-.02-1.19,0-1.11.02-2.32.07-2.98.04-.42.17-.46.39-.53.04-.01.11-.02.14-.03.07-.02.26-.01.34,0,.09.02.19.04.24.05.23.07.24.17.27.4.02.39,0,.79,0,1.72,0,.66,0,1.49-.02,1.64-.02.23-.12.35-.32.39-.18.04-.27.06-.5.08-.05,0-.05.32,0,.4h.4c.75,0,1.53.04,1.99.04.87,0,1.7-.13,2.39-.68.52-.41.94-1.06.94-2.07,0-.78-.33-1.46-.88-1.9h0ZM144.77,55.61c-.27.35-.56.5-.95.5-.15,0-.5-.06-.66-.21-.07-.07-.13-.19-.14-.28-.02-.25-.02-.81-.02-1.61,0-.75,0-1.74,0-2.03,0-.02.04-.08.07-.09.04-.02.17-.04.25-.04.35,0,.77.08,1.08.3.54.39.83,1.09.83,1.81,0,.83-.19,1.28-.47,1.64h.01Z" fill="#fff"/>
    <path d="M112.22,19.47c.14.91.39,1.76.79,2.49.31-.67.87-1.2,1.28-1.48.02.07.03.12.05.19-.36.36-.65.8-.91,1.27.35-.41.69-.68,1.03-.94.53,1.36,1.51,2.22,2.57,2.81.25-1.3.71-2.42,1.27-2.97.02.04.06.11.09.15-.41.65-.53.99-.7,1.66.34-.58.61-.95.93-1.3.3.42.59.71.86.97.96-.96,2.97-1,4.06-1.11-1.27-1.02-6.01-.13-7.92-2.84.11-.22.26-.42.5-.67-.48.29-1.31,1.03-1.81,1.63.11-.32.23-.57.37-.78-.78-1.49-.65-3.4-.5-4.83.22-.16.45-.31.72-.44-.7.16-1.22.41-1.87.87-.25-1.87.53-3.9,1.17-5.28-.29.05-.5.16-.76.32.32-1.54.89-2.85,2.02-4.08-1.37,1.19-2.41,2.73-2.97,4.65.31-.16.44-.2.68-.27-.02.04-.07.1-.09.14-.44.25-.71.44-1.11.89.39-.26.63-.38.88-.48-1,1.79-1.91,3.68-1.47,6.48.28-.33.7-.67.92-.77-.01.05-.02.1-.02.16-.47.44-.79.96-1.01,1.45.27-.36.55-.65.93-.88-.12,1-.11,2.04.03,3.01" fill="#fff"/>
    <path d="M132.56,17.05c-.05.29-.06.6-.05.84.56.15,1.21-.71,1.5-2,.26.22.5.44.76.75-.2-.51-.38-.78-.69-1.14.01-.06.04-.15.05-.21,0,0,.23.17.41.41.14-.39.24-1.29.31-2.52-.21.41-.59.73-.96.91-.32,1.69-.89,2.65-1.32,2.95h-.01Z" fill="#ffd200"/>
    <path d="M134.94,9.51c0-.39-.02-.67-.13-1,.09.03.23.1.31.13-.06-.81,0-1.23-.32-1.96-.01.42-.03.95-.29,1.18-.21.19-.44.34-.66.44.38.26.81.68,1.09,1.2h0Z" fill="#ffd200"/>
    <path d="M115.62,16.52c.25-.21.5-.34.78-.43.01.03.03.06.05.08-.47.32-.76.58-1.17,1.11.51-.38.93-.59,1.36-.79.88,1.27,2.77,2.28,4.88,2.55-.29-.6-1.36-1.35-1.75-1.95-.74-1.12-.31-2.45.33-3.25-1.53.68-1.93,1.15-2.12,2.19-1.84-1.8-2.06-6.33-1.75-8.83-1.02,1.85-1.84,3.2-1.84,5.81.3-.13.62-.25.98-.3-.19.99-.15,2.59.24,3.8h0Z" fill="#ffd200"/>
    <path d="M120.78,5.94c.6.51.9.87,2.14,1.14.21.04.5.04.74.02-.49.36-1.17.51-1.86.59-.92.11-2.33-.6-3.36-.8-.38-.4-.45-.81-.28-1.09.07-.11.17-.38.42-.6h.15c.33.03.65.07.98.14.37.09.78.35,1.07.59h0Z" fill="#fff"/>
    <path d="M121.76,9.82c.96.05,1.78.3,2.49.48.11.02.22.06.33.09,1.26.35,2.46.74,3.5,1.13.39.26-1.48-.22-3.5-.77.04.18.13.35.31.5.19.17.32.32.43.47-.55-.16-1.11-.29-1.66-.37-.7-.11-1.38-.15-2-.08.8.05,1.79.18,2.82.44.02,0,.04.01.07.01s.05.01.07.01c1.3.26,2.53.57,3.62.89.36.2-.96,0-2.65-.31.14.53.06.93.99,1.21,1.15.35,2.94.17,3.65-.14.47-.2.97-.65,1.06-.84.03-.07.06-.13.08-.19-.65-.21-.42-.98-1.16-1.44-.53-.33-.53-.64-.81-1.17-.1-.19-.25-.41-.46-.68-.76-.9-1.07-1.03-1.81-.96-.5.05-1.28.23-1.87.97-.19-.07-.37-.14-.55-.22-.97-.36-1.97-.62-2.94-.63,1.01.14,1.69.35,2.95.8,1.31.44,2.53.9,3.59,1.36.35.26-1.4-.25-3.35-.88-.14.22-.26.46-.33.72-.28-.08-.55-.16-.83-.22-.69-.16-1.36-.23-2.02-.2h-.01Z" fill="#fff"/>
    <path d="M125.63,5.66c-.05-.03-.11-.07-.17-.1,0,.05-.02.11-.04.17-.57.04-1.33-.77-1.69-1.09-.54-.49-1.11-.61-1.9-.69-.37.02-.43-.1.02-.22.53-.08.98-.05,1.38.05-.28-.24-.57-.45-.94-.58-.28-.1-.57-.22-.86-.23-.17-.01-.4.04-.6.1-.34.11-.74.29-.99.43.01.36-.13.74-.08,1.11.02.2-.02.32.15.42.1.07.2.17.29.22.1.05.33.02.5.01.41-.07.73-.22,1.07-.24.91-.06,1.79.07,2.37.5.58.45,1.3.89,1.48.99.07.04.16.11.26.11.07-.04.13-.08.2-.11v-.1c0-.18-.1-.57-.46-.75h.01Z" fill="#fff"/>
    <path d="M133.64,4.94c-.04-.2-.11-.53-.2-.66-.17-.28-.31-.47-.49-.65-.33-.21-.75-.36-1.32-.52-.27-.07-.82-.13-.92-.11-.17.03-.24.14-.3.26-.08.17.27.59.53.99.21-.29.48-.42.99-.46.37.01.38.13.1.17-.17.02-.46.22-.66.71-.14.33-.14.85-.67.99-.05-.05-.08-.11-.11-.16-.07.11-.2.33-.1.55l.13.11s.1.05.15.08c-.04-.39.5-.74.72-.94.47-.45,1.11-.29,1.41-.19.22.08.39.28.59.36.18.04.19-.17.21-.25.03-.09-.04-.19-.06-.28h0Z" fill="#fff"/>
    <path d="M125.69,22.67c-.02.27.1.58.28.89.17.3.42.54.7.64.06.22.08.42.06.65.39.1.67,0,1.01-.17.08.17.11.4.08.71.32-.03.54-.08.79-.27.01.15,0,.36-.04.55.16-.24.24-.41.28-.63.03-.01.07-.02.1-.04.04.26.04.48-.02.9.25-.45.34-.71.38-1.13.03-.02.04-.01.07-.04.06.22.11.44.1.75.68-.13,1.02-.48,1.27-1.05.11.1.25.28.35.45.57-.28.8-.96.9-1.41.05-.25.11-.68.05-.85.06.02.11.05.17.08.23-.48.11-1.15.4-1.55.23-.32.05-.65-.05-1.02-.1,1.96-.83,1.1-1.01,1.01-.65-.34-2.94-.31-3.86-.06-.38.1-.67.16-.88.37-.66.64-.89.39-1-.19-.02-.23-.05-.42-.09-.62,0-.04-.01-.08-.01-.11v.07c.01.5-.54.51-.57.98,0,.07,0,.14.02.22.05.2.57.57.55.86h0Z" fill="#fff"/>
    <path d="M123.47,5.97c-.18-.03-.31-.13-.29-.23.02-.1.17-.14.35-.11.18.03.31.13.29.23-.02.1-.17.14-.35.11Z" fill="#fff"/>
    <path d="M132.5,5.56c.02.08-.08.19-.24.23-.16.05-.31.02-.33-.07-.02-.08.08-.19.24-.23.16-.05.3-.02.33.07h0Z" fill="#fff"/>
    <path d="M133.97,7.36c.06-.21.22-.44.23-.64.02-.2-.07-.54-.16-.88-.47-.11-.58.02-.75.24-.33.41-.39.52-.78.71-.27.14-.53.13-.79.08.32.27.72.46,1.1.5.41.04.81.19,1.15,0h0Z" fill="#fff"/>
    <path d="M134.23,5.26c0,.23.22.48.14.6-.07.02-.2.01-.32-.02.09.35.18.68.16.88-.02.2-.17.43-.23.64,0,0,.01,0,.02,0,.05-.03.1-.07.14-.11.42-.45.59-.68.54-1.18-.04-.13.31.03.56.46-.22-.47-.45-.9-.67-1.24-.08-.12-.14-.22-.21-.32-.08-.08-.12.14-.12.31h0Z" fill="#ffd200"/>
    <path d="M132.71,5.57s-.02-.05-.02-.07h-.1c.07.33-.13.68-.48.78-.36.11-.74-.09-.84-.44v-.02c-.08.07-.14.15-.18.23.13.45.6.71,1.05.57.45-.13.71-.6.57-1.05h0Z" fill="#7e5300"/>
    <path d="M124.11,5.79c-.08.44-.53.74-.99.66-.47-.08-.78-.51-.71-.96,0-.02,0-.04.01-.06-.11,0-.21.01-.3.02-.02.05-.04.11-.05.17-.1.59.29,1.14.87,1.24.59.1,1.14-.29,1.24-.87,0-.04.01-.08.01-.13-.04-.02-.07-.05-.1-.07h0Z" fill="#7e5300"/>
    <path d="M127.23,20.34c-.41.25-.3-.11-.39-.35-.17-.41-.49-.78-.56-1.7-.05-.39-.07-1.06.33-1.18.63-.19,1.58.43,2.12.43s1.07-.56,1.6-.46c.36.07.5.53.62.97.12.48.08.84.13,1.17.03.22.06.28.13.38,0,0-.13.17-.14.18,0,0-.01-.01,0,0-.05-.05-.12-.08-.19-.08s-.15.03-.2.08c-.04.04-.08.09-.11.15-.04-.02-.07-.02-.11-.02-.07,0-.13.02-.18.07-.04-.03-.1-.05-.15-.05-.06,0-.12.02-.17.06-.05-.04-.1-.06-.16-.06-.05,0-.11.02-.16.05-.05-.05-.11-.07-.17-.07-.04,0-.09.01-.13.04-.04-.05-.08-.11-.13-.16-.05-.05-.12-.08-.19-.08s-.15.03-.2.08c-.02.02-.04.04-.06.07-.14-.44-.21-.76-.29-1.07-.02-.11-.05-.22-.08-.32-.07-.26-.15-.5-.39-.5-.27,0-.37.32-.42.51-.15.5-.29,1.35-.32,1.86h-.02Z" fill="#d71921"/>
    <path d="M127.6,14.26c0-.19.48-.3.7-.3s.66.14.63.35c-.21.94-.24,1.46-.32,2.07-.08.59-.28.56-.5,0-.19-.5-.38-1.08-.51-2.12h0ZM129.28,14.02c0-.05.16-.12.27-.12s.28.06.28.13c0,.13-.05.3-.23.48-.03.03-.08.03-.13-.01-.11-.1-.2-.36-.19-.47ZM129.91,13.97s.1-.07.17-.07.17.04.17.08c0,.08-.04.19-.14.3-.02.02-.05.02-.08,0-.07-.07-.12-.23-.12-.29h0ZM130.3,13.94s.1-.07.17-.07c.07,0,.17.04.17.08,0,.08-.04.19-.14.3-.02.02-.05.02-.08,0-.07-.07-.12-.23-.12-.29h0ZM130.69,13.94s.1-.07.17-.07.17.04.17.08c0,.08-.04.19-.14.3-.02.02-.05.02-.08,0-.07-.07-.12-.23-.12-.29h0ZM133.45,14.29c-.2.79-.45,1.37-.75,1.88-.39.66-.51.55-.47.15.05-.54.14-1.09.04-2.03,0-.17.36-.32.6-.32s.62.14.59.32h0ZM128.64,20.22c.04.17-.29.26-.45.26s-.53-.07-.56-.22c-.02-.86.09-1.33.17-1.75.1-.47.24-.49.36,0,.12.5.21.93.47,1.71h0ZM131.2,20.22c.45-.78.6-1.25.78-1.7.13-.34.26-.43.3.13.03.43.05.92-.12,1.58-.05.16-.37.25-.54.25s-.5-.11-.43-.25h0ZM131.75,13.9c.11,0,.28.06.28.13,0,.13-.05.3-.23.48-.03.03-.08.03-.12-.01-.11-.1-.19-.36-.19-.47,0-.05.16-.12.27-.12ZM131.08,13.97s.1-.07.17-.07.17.04.17.08c0,.08-.04.19-.14.3-.02.02-.05.02-.08,0-.07-.07-.12-.23-.12-.29h0ZM130.6,20.37s-.09.07-.15.07-.14-.03-.14-.06c0-.06.04-.2.1-.25.02-.02.05-.02.07,0,.1.09.12.19.12.25h0ZM130.27,20.4s-.09.07-.15.07-.14-.03-.14-.06c0-.06.04-.2.1-.25.02-.02.05-.02.07,0,.1.09.12.19.12.25h0ZM129.81,20.14c.1.09.12.19.12.25,0,.04-.09.07-.15.07s-.14-.03-.14-.06c0-.06.04-.2.1-.25.02-.02.05-.02.07,0h0ZM129.6,20.37s-.09.07-.15.07-.14-.03-.14-.06c0-.06.04-.2.1-.25.02-.02.05-.02.07,0,.1.09.12.19.12.25h0ZM129.25,20.32c0,.06-.15.11-.24.11s-.23-.05-.23-.1c0-.09.07-.32.17-.41.04-.04.08-.04.11-.01.15.15.2.31.2.41h0ZM130.82,19.93s.08-.04.11-.01c.15.15.2.31.2.41,0,.06-.15.11-.24.11s-.23-.05-.23-.1c0-.09.07-.32.17-.41h0Z" fill="#fff"/>
    <path d="M139.18,33.07c-.05-.28-.12-.56-.15-.65-.45-1.45-1.23-2.54-2.03-3.4-.34-.35-.68-.67-1-.94-1.39-1.2-2.13-1.85-1.98-3.93,0-.05,0-.09.01-.14.02-.27.08-.49.16-.68-.44.34-.93.63-1.41.85-.05.22-.23.89-.63,1.35.44,1.49,1.55,3.07,2.13,3.79-.31-.62-.39-.99-.64-1.67.9,1.17,1.96,2.82,2.05,4.53-.57-.6-1.16-1.11-1.58-1.32.79,1.78.71,2.92.22,4.63-.97,3.42-2.66,3.96-4.77,7.62.49-.54.92-.94,1.42-1.26-1.01,1.12-1.95,2.94-1.94,4.65,4.99-3.68,8.23-8.34,10.13-13.42h0Z" fill="#ffd200"/>
    <path d="M138.79,25.52c-.71-1.23-1.02-2.26-2.04-3.28-.18-.18-.47-.45-.76-.8-.2.3-.39.54-.69.85.01.13.05.54.05.77.08,1.97,1.28,3.18,2.71,4.47.62.56,1.57,1.38,2.16,2.18.15-.6.29-1.2.41-1.81-.75-.8-1.47-1.76-1.84-2.4h0Z" fill="#ffd200"/>
    <path d="M138.3,22.91c.45.88,1.66,2.44,2.62,3.35.06-.41.12-.82.17-1.23-.86-.44-1.89-1.31-2.79-2.12Z" fill="#ffd200"/>
    <path d="M115.47,24.41c-.34-.37-.64-.77-.88-1.14-.66,1.17-1.58,2.84-2.06,4.61.33-.6.74-1.23.74-1.23-.35,1.14-.74,2.61-.97,4.38-.23,1.74-.3,4.01-.07,6.31.69,1.22,1.47,2.4,2.35,3.53-1.82-5.53-1.93-11.46.89-16.47h0Z" fill="#ffd200"/>
    <path d="M125.25,26.59c-.21-.26-.4-.54-.56-.8-.48-.22-.9-.44-1.19-.68-.54.29-1.11.68-1.8,1.23.45-.55.96-1.02,1.53-1.42-.28-.22-.5-.44-.68-.68-.56.26-1.05.46-1.64.93.44-.63.77-.83,1.44-1.27-.02-.04-.08-.11-.1-.14-.92.33-1.67.74-2.17,1.18-.28-.28-.6-.71-.89-1.17-.18.4-.36.84-.5,1.31-.1.38-.18.7-.2.84,0,0,0,.01,0,.02-.01.07-.02.13-.03.19-.29-.04-.79-.2-1.21-.38-.16,1.28.02,2.92.62,4.57-.07-.58-.07-.89-.02-1.33.29,1.24.62,2.02,1.23,2.67.92-1.37,2.72-2.82,4.49-3.5-.68.11-1.18.25-1.88.5.9-.6,1.6-.92,2.45-1.38.45-.24.84-.48,1.12-.71h0Z" fill="#ffd200"/>
    <path d="M136.44,20.65c.85-1.28.77-3.59.53-5.37.18.1.35.22.54.38-.19-.36-.34-.55-.6-.8-.01-.06-.02-.15-.03-.21.16.11.27.2.38.32.13-1.55.08-2.77-.41-4.16,0,0,.16-.02.3.04-.04-.1-.08-.25-.15-.42-.22.12-.45.22-.71.32.05.26.1.53.13.81-.44,0-.91.11-1.41.28v-.05c0-.23,0-.43,0-.61-.94.29-1.76.5-1.56.31.38-.19.79-.36,1.23-.52.03-.01.06-.02.09-.04.06-.02.14-.05.2-.07.74-.25,1.51-.45,2.26-.56-.1-.02-.19-.03-.29-.04-.1-.28-.23-.62-.36-.96-.16.1-.35.2-.57.31.07.22.13.45.19.71-.4.08-.82.23-1.24.42-.04-.22-.11-.4-.19-.57-.69.27-1.2.43-1.04.26,1.07-.63,1.95-1.09,3.23-1.42.03,0,.06-.01.08-.02-.16-.02-.42,0-.56.02-.04-.11-.09-.22-.13-.32-.02-.04-.11-.26-.12-.3l.12.02c-.56-1.56-1.42-3.15-2.61-4.36.41.57.54.77.82,1.22.58.91,1.27,2.45,1.62,3.83-.52.15-1.02.44-1.57.79-.04-.07-.08-.13-.12-.2-.1-.15-.44-.45-.71-.59.1.2.13.48.03.81-.17.59-.45.91-.78,1.32-.28.34-.62,1.12-1.25,1.18v.16c0,.38.43.9.66,1.01.45.22.54.23,1.08.11.54-.13.84-.48,1.02-.71.14-.18.27-.39.36-.61-.96.25-1.84.42-1.61.23.41-.18.86-.34,1.33-.48,0,0,.02,0,.02,0,.77-.23,1.6-.39,2.38-.45-.17.1-.35.18-.56.25.05.53.05,1.05-.02,1.47.18.17.34.37.51.68-.13-.11-.26-.21-.39-.3-.46-.33-.78-.49-1.29-.58.29.14.54.31.76.5-.03,1.36-.22,3.3-.66,4.28-.16-.22-.31-.37-.55-.54,0,.02-.04.08-.04.1.33.39.51.68.71,1.23-.32-.36-.58-.64-.83-.87-.47,1.35-1.1,1.63-1.63,1.66,0,0,.5,1.04.05,2.05-.04.08-.05.19-.07.31.13.28.1.44.2.76.84-.35,1.82-1.37,2.4-2.18.25.23.5.48.82.85-.19-.5-.36-.77-.65-1.11.03-.05.05-.07.08-.11.23.17.36.29.54.57l.02-.02Z" fill="#fff"/>
    <path d="M136.8,3.54c-.81.1-1.71.01-2.43-.38.6.02,1.05-.09,2.16-.42-.33.03-3.68.13-5.63-.37-.86-.38-3.62-1.48-5.28-.57-2.73-.89-6.16.03-7.16.8-1.82,0-3.75-.13-4.84-.48.88.62,1.58.72,2.12.84-1.34.05-2.3-.14-3.74-.45.48.47.82.66,1.54.87-.43.04-.86.02-1.32-.07.55.45,1.94,1.21,3.13.68.34-.15,1.43-.74,2.36-.84-.51.28-1.32,1.01-1.78,1.54-.02.02-.03.05-.05.08.42-.3.92-.54,1.41-.63-.74.55-1.06,1.12-1.09,1.72.26-.28.46-.56.75-.66.07-.02.13.05.19.18.11.15.18.5.33.83.16.32.37.61.72.65.08,0,.17.02.26.04-.38-.4-.45-.81-.28-1.09.08-.11.17-.38.42-.6-.16,0-.3,0-.39-.13-.08-.11-.13-.26-.17-.39-.04-.13-.17-.36-.13-.49.32,0,.63.1.94,0,.48-.14.36-.63.94-1.04.05.12.07.25.07.36.25-.14.66-.33.99-.43.19-.06.42-.11.6-.1.29.02.59.13.86.23.36.13.66.34.94.58.84.21,1.45.74,2.05,1.32.14.14.21.26.18.45.05.04.11.07.17.1.36.19.45.58.45.75v.1c.92-.52,1.68-.83,2.61-.41-.87-.07-1.72.38-2.42.99-.47.4-1.45,1.29-2.18,1.32-.07-.32.04-.48.28-.71.31-.24.62-.47.93-.69-.17-.04-.35-.03-.56-.01-.26.36-.65.56-.9.68-.86.39-1.29.57-2.92.44-1.03-.08-1.79.08-2.33.08s-.82-.13-1.13-.39c-.31-.28-.45-.68-.61-1.14-.03,1.39.35,4.84,1.78,5.63.23-.16.66-.27,1.04-.27-.56.27-1.15.8-1.48,1.46,1.29-1.12,2.27-1.41,3.88-1.41-.66,1.14-.81,2.13-.78,3.1.02.6.1,1.08.23,1.45.25.81.68,1.63,1.21,2.24-.12-.29-.24-.59-.33-.89.38.41.83.83,1.31,1.48.61.84,1.02.96,1.45,2.12.03-.47.59-.48.57-.98-.08-.32-.22-.64-.45-1.1-.44-.87-1.94-3.88-2-5.72-.02-.64.39-1,.53-1.28.1-.19.1-.36.06-.54-.77-.19-1.64-.45-2.19-.69.62-.07,1.3-.03,2,.08-.08-.25-.13-.52-.06-.85,0-.01,0-.03.01-.04-.67-.2-1.26-.41-1.85-.65.66-.04,1.34.04,2.02.2.12-.24.3-.48.51-.72-1.15-.4-2.01-.78-2.53-1.05.97.02,1.97.28,2.94.63.21-.21.48-.43.75-.65.25-.2.53-.47.78-.66.79-.54,1.85-1.24,2.78-.66-.15,0-.31.02-.47.04-.54.06-.22.86.39,1.48.34.34.66.83,1.04,1.38.26.36.28.48.56.56.48.14,1,.38.89.68-.08.22-.43.13-.36.38.15.55.55.66.89.6.05-.02.11-.03.16-.05.05-.02.1-.04.14-.07.16-.11.23-.27.4-.54.07-.17-.05-.16-.05-.3,0-.1.18-.33.44-.54.31-.26.5-.78.5-1.01,0-.28,0-.47-.11-.68-.48-.68-1.74-1.45-1.9-1.56-.43-.33-.84-.37-1.3-.4.24-.22.44-.2.62-.14-.14-.14-.21-.22-.32-.29-.39-.27-.83-.36-1.38-.39.61-.28.96-.26,1.48.08l-.13-.11c-.11-.22.02-.43.1-.55-.08-.16-.07-.32-.02-.45.12-.35.23-.6.38-.8-.26-.39-.62-.81-.53-.99.05-.11.14-.23.31-.26.1-.02.65.03.92.11.58.16.99.31,1.32.52-.03-.04-.08-.08-.12-.11-.32-.26-.71-.51-1.2-.78.59.26,1.3.59,1.7.79.78.39,1.39,1,2.74.92-.35-.07-.91-.33-1.45-.72.25,0,.93.22,2.17-.18h-.03ZM121.97,9.18c-.48.36-1.23.65-1.95.51-.1.3-.05.83.17,1.44-1.21-.54-1.95-1.46-2.03-2.14.78-.38,2.43.18,3.8.19ZM132.12,9.6c.32.02.79,0,1.07-.14.02.2-.75.55-.91.56-.18.01-.38-.13-.54-.17-.22-.05-.46-.11-.6-.13-.11-.02-.27-.07-.29-.23.42.02.84.08,1.27.11ZM122.7,2.03c1.23-.24,2.91-.07,3.52.4.48-.33,1.32-.56,2.73-.32-1.18.08-1.51.15-1.78.36.35-.08.73-.1,1.39.06-.78.05-1.75.28-1.75.72-.52-.38-1.64-.71-2.65-.71.51-.16.9-.14,1.2-.07-.63-.29-1.18-.42-2.65-.44h0ZM127.92,4.65c-.57-.6-1.3-1-2.7-1.23.76-.14,1.82.04,2.33.35.54-.43,1.11-.53,1.77-.44-.64.19-1.53.71-1.4,1.32h0Z" fill="#ffd200"/>
  </g>
  <path d="M3.19,81.93c-.41,0-.79-.07-1.13-.22-.35-.15-.65-.36-.92-.62-.26-.26-.46-.57-.6-.93-.14-.35-.22-.73-.22-1.14s.07-.79.22-1.14c.14-.35.34-.66.6-.93.26-.26.56-.47.91-.61.35-.15.73-.22,1.14-.22s.79.07,1.13.22c.35.14.65.35.91.61.26.26.47.57.61.93.14.35.22.73.22,1.14s-.07.79-.22,1.14c-.14.35-.35.66-.61.93-.26.26-.56.47-.91.62-.35.14-.73.22-1.13.22ZM3.19,80.75c.33,0,.6-.08.84-.24.24-.16.42-.37.54-.64.13-.26.19-.55.19-.87s-.06-.6-.19-.86c-.12-.26-.3-.47-.54-.63-.23-.16-.51-.24-.84-.24s-.61.08-.84.24c-.23.15-.41.36-.54.63-.13.26-.19.55-.19.86s.06.6.19.87c.13.26.31.48.54.64.24.16.52.24.84.24ZM6.93,81.79v-5.52h3.71v1.1h-2.46v1.25h1.87v1.07h-1.87v2.1h-1.25ZM11.39,81.79v-5.52h3.71v1.1h-2.46v1.25h1.87v1.07h-1.87v2.1h-1.25ZM15.85,81.79v-5.52h1.25v5.52h-1.25ZM22.31,79.99l.85.78c-.15.21-.35.4-.6.58-.24.18-.5.32-.8.42-.3.1-.62.16-.96.16-.56,0-1.05-.12-1.48-.37-.42-.25-.76-.59-1-1.02-.24-.44-.36-.93-.36-1.49,0-.41.07-.79.21-1.14.14-.36.33-.67.58-.94.25-.26.55-.47.9-.62.35-.15.74-.22,1.17-.22.51,0,.95.09,1.34.28s.71.46.96.81l-.85.82c-.17-.23-.36-.42-.59-.55-.23-.14-.5-.22-.81-.22-.33,0-.62.08-.86.24-.24.15-.42.36-.55.63-.13.26-.19.56-.19.88s.06.62.19.88c.13.26.32.47.55.62.24.15.52.22.84.22.26,0,.49-.04.66-.11.18-.07.33-.16.45-.27.13-.12.25-.24.36-.36ZM23.81,81.79v-5.52h1.25v5.52h-1.25ZM25.66,81.79l2.06-5.52h1.38l2.02,5.52h-1.37l-.42-1.27h-1.94l-.42,1.27h-1.31ZM27.68,79.55h1.36l-.67-2.09-.69,2.09ZM31.72,81.79v-5.52h1.25v4.41h2.64v1.11h-3.89ZM37.45,81.01l.8-.87c.14.15.33.31.57.46.24.15.52.22.84.22.13,0,.25-.02.37-.07.12-.05.22-.12.3-.21.08-.09.12-.2.12-.33,0-.2-.1-.36-.3-.48-.2-.12-.51-.23-.94-.33-.42-.1-.77-.29-1.04-.55-.28-.26-.41-.61-.41-1.03,0-.31.07-.59.22-.84.15-.26.37-.47.67-.62.3-.16.67-.24,1.13-.24.38,0,.69.05.94.15.26.09.47.2.62.31.15.12.26.21.32.28l-.72.79c-.12-.09-.28-.2-.48-.31-.2-.12-.43-.18-.7-.18-.18,0-.34.05-.5.16-.15.1-.22.22-.22.36,0,.19.1.34.3.46.2.12.47.21.82.29.27.07.53.17.78.3.25.13.46.32.62.55.16.24.24.55.24.93,0,.33-.09.63-.28.89s-.44.46-.76.61c-.32.15-.68.22-1.08.22-.36,0-.69-.04-.97-.13-.28-.09-.53-.2-.74-.34-.21-.14-.39-.29-.53-.45ZM42.68,79.69v-3.43h1.26v3.27c0,.36.08.65.23.87.16.22.44.33.83.33s.66-.11.82-.33c.15-.22.23-.51.23-.87v-3.27h1.27v3.43c0,.44-.1.83-.29,1.17-.19.34-.46.6-.8.79-.34.19-.75.28-1.22.28s-.88-.09-1.22-.28c-.35-.19-.62-.45-.81-.79-.19-.34-.28-.73-.28-1.18ZM48.35,81.79v-5.52h2.01c.46,0,.83.09,1.11.26.29.17.5.38.63.65.13.27.2.56.2.87,0,.39-.09.72-.26.99-.18.26-.41.47-.7.6-.28.13-.59.2-.92.2h-.85v1.94h-1.22ZM49.57,78.83h.73c.23,0,.41-.07.55-.22.14-.14.21-.33.21-.55,0-.23-.07-.42-.21-.56-.14-.15-.32-.22-.55-.22h-.72v1.55ZM53.13,81.79v-5.52h3.77v1.09h-2.52v1.08h1.96v1.06h-1.96v1.19h2.71v1.1h-3.96ZM57.93,81.79v-5.52h2.05c.43,0,.79.08,1.08.24.29.15.5.36.65.63.14.26.22.55.22.86,0,.35-.08.66-.24.94-.15.27-.38.49-.66.65l1.22,2.21h-1.37l-1.03-2.03h-.7v2.03h-1.22ZM59.15,78.76h.77c.23,0,.41-.07.55-.21s.2-.31.2-.52c0-.23-.07-.41-.21-.54-.13-.13-.31-.2-.54-.2h-.77v1.46ZM62.48,81.79l2.06-5.52h1.38l2.02,5.52h-1.37l-.42-1.27h-1.94l-.42,1.27h-1.31ZM64.5,79.55h1.36l-.67-2.09-.69,2.09ZM68.54,81.79v-5.52h1.19l2.39,3.58v-3.58h1.23v5.52h-1.13l-2.45-3.65v3.65h-1.23ZM74.43,81.79v-5.52h1.19l2.39,3.58v-3.58h1.23v5.52h-1.13l-2.45-3.65v3.65h-1.23ZM80.28,79.69v-3.43h1.26v3.27c0,.36.08.65.23.87.16.22.44.33.83.33s.66-.11.82-.33c.15-.22.23-.51.23-.87v-3.27h1.27v3.43c0,.44-.1.83-.29,1.17-.19.34-.46.6-.8.79-.34.19-.75.28-1.22.28s-.88-.09-1.22-.28c-.35-.19-.62-.45-.81-.79-.19-.34-.28-.73-.28-1.18ZM85.22,81.79l2.06-5.52h1.38l2.02,5.52h-1.37l-.42-1.27h-1.94l-.42,1.27h-1.31ZM87.24,79.55h1.36l-.67-2.09-.69,2.09ZM91.8,81.79v-4.42h-1.79v-1.1h4.82v1.1h-1.78v4.42h-1.26ZM95.55,81.79v-5.52h1.25v5.52h-1.25ZM100.53,81.93c-.41,0-.79-.07-1.13-.22-.35-.15-.65-.36-.92-.62-.26-.26-.46-.57-.6-.93-.14-.35-.22-.73-.22-1.14s.07-.79.22-1.14c.14-.35.34-.66.6-.93s.56-.47.91-.61c.35-.15.73-.22,1.14-.22s.79.07,1.13.22c.35.14.65.35.91.61.27.26.47.57.61.93.14.35.21.73.21,1.14s-.07.79-.21,1.14c-.14.35-.35.66-.61.93-.26.26-.56.47-.91.62-.35.14-.73.22-1.13.22ZM100.53,80.75c.33,0,.6-.08.84-.24.24-.16.42-.37.54-.64.13-.26.19-.55.19-.87s-.06-.6-.19-.86c-.12-.26-.3-.47-.54-.63-.23-.16-.51-.24-.84-.24s-.61.08-.84.24c-.23.15-.41.36-.54.63-.13.26-.19.55-.19.86s.06.6.19.87c.13.26.31.48.54.64.24.16.52.24.84.24ZM104.27,81.79v-5.52h1.19l2.39,3.58v-3.58h1.23v5.52h-1.13l-2.45-3.65v3.65h-1.23ZM111.65,81.79v-5.52h2.01c.46,0,.83.09,1.11.26.29.17.5.38.63.65.13.27.2.56.2.87,0,.39-.09.72-.26.99-.18.26-.41.47-.69.6-.28.13-.59.2-.92.2h-.85v1.94h-1.22ZM112.87,78.83h.73c.23,0,.41-.07.55-.22.14-.14.21-.33.21-.55,0-.23-.07-.42-.21-.56-.14-.15-.32-.22-.56-.22h-.72v1.55ZM115.26,81.79l2.06-5.52h1.38l2.02,5.52h-1.37l-.42-1.27h-1.94l-.42,1.27h-1.31ZM117.28,79.55h1.36l-.67-2.09-.69,2.09ZM121.31,81.79v-5.52h2.05c.43,0,.79.08,1.08.24.29.15.5.36.64.63.14.26.22.55.22.86,0,.35-.08.66-.24.94-.15.27-.38.49-.66.65l1.22,2.21h-1.37l-1.03-2.03h-.69v2.03h-1.22ZM122.53,78.76h.77c.23,0,.41-.07.55-.21.13-.14.2-.31.2-.52,0-.23-.07-.41-.21-.54-.13-.13-.31-.2-.54-.2h-.77v1.46ZM127.6,81.79v-4.42h-1.79v-1.1h4.82v1.1h-1.78v4.42h-1.26ZM131.35,81.79v-5.52h1.19l2.39,3.58v-3.58h1.23v5.52h-1.13l-2.45-3.65v3.65h-1.23ZM137.24,81.79v-5.52h3.77v1.09h-2.52v1.08h1.96v1.06h-1.96v1.19h2.71v1.1h-3.96ZM142.04,81.79v-5.52h2.05c.43,0,.79.08,1.08.24.29.15.5.36.64.63.14.26.22.55.22.86,0,.35-.08.66-.24.94-.15.27-.38.49-.66.65l1.23,2.21h-1.37l-1.03-2.03h-.69v2.03h-1.22ZM143.26,78.76h.77c.23,0,.41-.07.55-.21.13-.14.2-.31.2-.52,0-.23-.07-.41-.21-.54-.13-.13-.31-.2-.54-.2h-.77v1.46Z" fill="#fff"/>
</svg>