<svg width="368" height="39" viewBox="0 0 368 39" fill="none" xmlns="http://www.w3.org/2000/svg">
<path d="M10.8406 36.7555V9.6804H0V1.48384H31.0412V9.6804H20.3063V36.7555H10.8406Z" fill="white"/>
<path d="M34.2115 36.7555V1.48384H43.5715V14.3868H56.5802V1.48384H65.9401V36.7555H56.5802V22.9535H43.5715V36.7555H34.2115Z" fill="white"/>
<path d="M68.2524 36.7555L81.2083 1.48384H91.9431L104.423 36.7555H94.3228L92.0489 29.4579H80.2564L77.9297 36.7555H68.2524ZM82.1601 22.6362H90.1452L86.232 9.6804L82.1601 22.6362Z" fill="white"/>
<path d="M109.66 36.7555V9.6804H98.8193V1.48384H129.86V9.6804H119.126V36.7555H109.66Z" fill="white"/>
<path d="M132.079 14.5983L133.454 1.48384H142.761L138.689 14.5983H132.079Z" fill="white"/>
<path d="M140.43 32.4192L146.088 25.5976C147.075 26.5847 148.362 27.4837 149.949 28.2945C151.57 29.1054 153.315 29.5108 155.184 29.5108C156.136 29.5108 157.052 29.3169 157.934 28.9291C158.815 28.5413 159.256 27.801 159.256 26.7081C159.256 25.7915 158.78 25.0335 157.828 24.4342C156.876 23.7996 155.519 23.2003 153.756 22.6362L151.799 22.0017C150.354 21.5081 148.909 20.8559 147.463 20.0451C146.053 19.199 144.872 18.1237 143.92 16.8193C143.004 15.5149 142.545 13.9109 142.545 12.0072C142.545 9.82141 143.056 7.86482 144.079 6.13737C145.136 4.40992 146.688 3.05265 148.732 2.06553C150.777 1.04317 153.263 0.531982 156.189 0.531982C158.515 0.531982 160.525 0.796388 162.217 1.3252C163.944 1.85401 165.372 2.47095 166.5 3.17603C167.629 3.88112 168.457 4.51569 168.986 5.07975L164.227 11.1082C162.993 10.1916 161.706 9.45125 160.366 8.88719C159.027 8.28787 157.652 7.98821 156.241 7.98821C155.325 7.98821 154.444 8.19973 153.597 8.62278C152.787 9.01057 152.381 9.69803 152.381 10.6851C152.381 11.778 152.875 12.5712 153.862 13.0648C154.849 13.5583 156.1 14.0519 157.616 14.5455L159.309 15.0743C160.507 15.4268 161.706 15.8851 162.904 16.4492C164.138 16.978 165.267 17.6654 166.289 18.5115C167.311 19.3576 168.122 20.4329 168.721 21.7373C169.356 23.0064 169.673 24.5752 169.673 26.4437C169.673 28.5942 169.021 30.5155 167.717 32.2077C166.448 33.8999 164.72 35.2219 162.534 36.1738C160.384 37.1256 157.987 37.6016 155.342 37.6016C151.817 37.6016 148.856 37.1256 146.458 36.1738C144.096 35.2219 142.087 33.9704 140.43 32.4192Z" fill="white"/>
<path d="M177.133 36.7036L190.076 1.46607H200.801L213.269 36.7036H203.178L200.906 29.4131H189.125L186.801 36.7036H177.133ZM191.027 22.598H199.005L195.095 9.6547L191.027 22.598Z" fill="#FFD000"/>
<path d="M225.686 36.7036V1.46607H240.056C243.824 1.46607 246.853 2.46984 249.143 4.47738C251.432 6.44969 252.577 9.33772 252.577 13.1415C252.577 15.5364 252.048 17.632 250.992 19.4282C249.935 21.1892 248.491 22.5628 246.66 23.549C244.828 24.4999 242.715 24.9754 240.32 24.9754H234.826V36.7036H225.686ZM234.826 17.632H239.263C240.531 17.632 241.535 17.227 242.275 16.4169C243.014 15.6069 243.384 14.5679 243.384 13.3C243.384 11.9616 243.032 10.8874 242.328 10.0773C241.623 9.26728 240.584 8.86226 239.211 8.86226H234.826V17.632Z" fill="#FFD000"/>
<path d="M255.624 36.7036V1.46607H264.975V28.4621H281.299V36.7036H255.624Z" fill="#FFD000"/>
<path d="M283.763 22.9678V1.46607H293.114V22.1225C293.114 24.0596 293.554 25.6445 294.435 26.8772C295.35 28.1099 296.847 28.7263 298.925 28.7263C301.003 28.7263 302.482 28.1099 303.363 26.8772C304.243 25.6093 304.684 24.0244 304.684 22.1225V1.46607H314.14V22.9678C314.14 25.9615 313.489 28.5678 312.186 30.7866C310.882 32.9703 309.086 34.6608 306.797 35.8583C304.543 37.0206 301.937 37.6017 298.978 37.6017C296.02 37.6017 293.396 37.0206 291.106 35.8583C288.817 34.6961 287.021 33.0231 285.718 30.8395C284.415 28.6206 283.763 25.9967 283.763 22.9678Z" fill="#FFD000"/>
<path d="M316.809 32.3715L322.462 25.5565C323.448 26.5426 324.734 27.4408 326.319 28.2508C327.939 29.0609 329.682 29.4659 331.549 29.4659C332.5 29.4659 333.416 29.2722 334.296 28.8848C335.177 28.4973 335.617 27.7577 335.617 26.6659C335.617 25.7502 335.141 24.993 334.19 24.3942C333.239 23.7603 331.884 23.1615 330.123 22.598L328.168 21.9641C326.724 21.471 325.28 20.8194 323.836 20.0094C322.427 19.1641 321.247 18.0899 320.296 16.7867C319.38 15.4836 318.923 13.8811 318.923 11.9792C318.923 9.79558 319.433 7.84088 320.455 6.1151C321.511 4.38933 323.061 3.03336 325.104 2.0472C327.146 1.02583 329.629 0.515137 332.553 0.515137C334.877 0.515137 336.885 0.779287 338.575 1.30759C340.301 1.83588 341.727 2.45223 342.855 3.15663C343.982 3.86103 344.809 4.49499 345.338 5.05851L340.583 11.0811C339.35 10.1654 338.065 9.42577 336.726 8.86226C335.388 8.26352 334.014 7.96415 332.606 7.96415C331.69 7.96415 330.809 8.17547 329.964 8.59811C329.154 8.98552 328.749 9.67231 328.749 10.6585C328.749 11.7503 329.242 12.5427 330.228 13.0358C331.214 13.5289 332.465 14.022 333.979 14.515L335.67 15.0433C336.867 15.3955 338.065 15.8534 339.262 16.4169C340.495 16.9452 341.622 17.632 342.643 18.4773C343.665 19.3226 344.475 20.3968 345.073 21.6999C345.707 22.9678 346.024 24.5351 346.024 26.4018C346.024 28.5502 345.373 30.4697 344.07 32.1602C342.802 33.8508 341.076 35.1715 338.892 36.1225C336.744 37.0734 334.349 37.5489 331.707 37.5489C328.185 37.5489 325.227 37.0734 322.832 36.1225C320.472 35.1715 318.465 33.9212 316.809 32.3715Z" fill="#FFD000"/>
<path d="M356.688 37.0149V31.5622H351.357V26.1908H356.688V20.6567H362.222V26.1908H367.593V31.5622H362.222V37.0149H356.688Z" fill="#FFD000"/>
</svg>
