<svg width="375" height="22" viewBox="0 0 375 22" fill="none" xmlns="http://www.w3.org/2000/svg">
<path d="M7.65 0.989998H13.74L20.82 21H15.09L13.8 16.86H7.11L5.79 21H0.3L7.65 0.989998ZM12.72 12.99L10.5 5.64L8.19 12.99H12.72ZM22.923 0.989998H27.753L35.433 12.15V0.989998H40.683V21H36.153L28.173 9.51V21H22.923V0.989998ZM49.0852 0.989998H54.3952V21H49.0852V0.989998ZM57.9914 0.989998H62.8214L70.5014 12.15V0.989998H75.7514V21H71.2214L63.2414 9.51V21H57.9914V0.989998ZM79.3488 0.989998H87.0288C88.5688 0.989998 89.9888 1.19 91.2888 1.59C92.6088 1.99 93.7488 2.6 94.7088 3.42C95.6688 4.24 96.4188 5.29 96.9588 6.57C97.4988 7.85 97.7688 9.36 97.7688 11.1C97.7688 12.76 97.4888 14.21 96.9288 15.45C96.3888 16.67 95.6388 17.7 94.6788 18.54C93.7188 19.36 92.5788 19.98 91.2588 20.4C89.9388 20.8 88.5188 21 86.9988 21H79.3488V0.989998ZM86.8188 16.32C88.5588 16.32 89.8988 15.83 90.8388 14.85C91.7988 13.85 92.2788 12.56 92.2788 10.98C92.2788 10.18 92.1688 9.46 91.9488 8.82C91.7288 8.16 91.3888 7.6 90.9288 7.14C90.4888 6.66 89.9288 6.29 89.2488 6.03C88.5688 5.77 87.7588 5.64 86.8188 5.64H84.6588V16.32H86.8188ZM100.469 0.989998H105.779V12.72C105.779 13.82 106.029 14.72 106.529 15.42C107.049 16.12 107.899 16.47 109.079 16.47C110.259 16.47 111.099 16.12 111.599 15.42C112.099 14.7 112.349 13.8 112.349 12.72V0.989998H117.719V13.2C117.719 14.48 117.509 15.64 117.089 16.68C116.669 17.7 116.069 18.57 115.289 19.29C114.529 20.01 113.619 20.56 112.559 20.94C111.519 21.32 110.369 21.51 109.109 21.51C107.849 21.51 106.689 21.32 105.629 20.94C104.569 20.56 103.649 20.02 102.869 19.32C102.109 18.6 101.519 17.73 101.099 16.71C100.679 15.67 100.469 14.5 100.469 13.2V0.989998ZM122.745 14.67C123.305 15.23 124.035 15.74 124.935 16.2C125.835 16.66 126.825 16.89 127.905 16.89C128.165 16.89 128.435 16.87 128.715 16.83C128.995 16.77 129.245 16.68 129.465 16.56C129.685 16.44 129.865 16.28 130.005 16.08C130.145 15.88 130.215 15.62 130.215 15.3C130.215 14.78 129.945 14.35 129.405 14.01C128.885 13.67 128.115 13.33 127.095 12.99L125.985 12.63C125.365 12.43 124.735 12.17 124.095 11.85C123.475 11.53 122.915 11.15 122.415 10.71C121.915 10.25 121.505 9.72 121.185 9.12C120.885 8.5 120.735 7.78 120.735 6.96C120.735 6.04 120.905 5.19 121.245 4.41C121.585 3.61 122.075 2.92 122.715 2.34C123.375 1.74 124.185 1.28 125.145 0.959999C126.105 0.619998 127.215 0.449998 128.475 0.449998C129.455 0.449998 130.345 0.539998 131.145 0.719998C131.945 0.899998 132.645 1.12 133.245 1.38C133.845 1.64 134.355 1.92 134.775 2.22C135.195 2.52 135.515 2.79 135.735 3.03L133.035 6.45C132.335 5.93 131.605 5.51 130.845 5.19C130.085 4.85 129.305 4.68 128.505 4.68C128.245 4.68 127.985 4.71 127.725 4.77C127.465 4.83 127.225 4.92 127.005 5.04C126.805 5.16 126.635 5.32 126.495 5.52C126.375 5.7 126.315 5.93 126.315 6.21C126.315 6.51 126.385 6.77 126.525 6.99C126.685 7.21 126.895 7.4 127.155 7.56C127.415 7.72 127.725 7.87 128.085 8.01C128.465 8.13 128.865 8.26 129.285 8.4L130.245 8.7C130.925 8.92 131.615 9.18 132.315 9.48C133.015 9.76 133.645 10.15 134.205 10.65C134.765 11.13 135.225 11.74 135.585 12.48C135.945 13.2 136.125 14.09 136.125 15.15C136.125 16.07 135.905 16.92 135.465 17.7C135.045 18.48 134.465 19.15 133.725 19.71C133.005 20.27 132.145 20.7 131.145 21C130.165 21.32 129.115 21.48 127.995 21.48C125.995 21.48 124.315 21.22 122.955 20.7C121.615 20.16 120.475 19.44 119.535 18.54L122.745 14.67ZM143.391 5.64H137.241V0.989998H154.851V5.64H148.761V21H143.391V5.64ZM157.249 0.989998H165.529C166.609 0.989998 167.579 1.13 168.439 1.41C169.319 1.69 170.069 2.11 170.689 2.67C171.309 3.21 171.789 3.89 172.129 4.71C172.469 5.53 172.639 6.48 172.639 7.56C172.639 8.88 172.349 10.03 171.769 11.01C171.189 11.97 170.419 12.74 169.459 13.32L173.749 21H168.049L164.659 14.19H162.439V21H157.249V0.989998ZM165.019 10.02C165.719 10.02 166.289 9.81 166.729 9.39C167.169 8.95 167.389 8.37 167.389 7.65C167.389 6.89 167.179 6.29 166.759 5.85C166.339 5.41 165.749 5.19 164.989 5.19H162.439V10.02H165.019ZM180.496 13.02L173.386 0.989998H179.476L183.376 8.13L187.036 0.989998H192.946L185.806 12.99V21H180.496V13.02ZM201.407 14.67C201.967 15.23 202.697 15.74 203.597 16.2C204.497 16.66 205.487 16.89 206.567 16.89C206.827 16.89 207.097 16.87 207.377 16.83C207.657 16.77 207.907 16.68 208.127 16.56C208.347 16.44 208.527 16.28 208.667 16.08C208.807 15.88 208.877 15.62 208.877 15.3C208.877 14.78 208.607 14.35 208.067 14.01C207.547 13.67 206.777 13.33 205.757 12.99L204.647 12.63C204.027 12.43 203.397 12.17 202.757 11.85C202.137 11.53 201.577 11.15 201.077 10.71C200.577 10.25 200.167 9.72 199.847 9.12C199.547 8.5 199.397 7.78 199.397 6.96C199.397 6.04 199.567 5.19 199.907 4.41C200.247 3.61 200.737 2.92 201.377 2.34C202.037 1.74 202.847 1.28 203.807 0.959999C204.767 0.619998 205.877 0.449998 207.137 0.449998C208.117 0.449998 209.007 0.539998 209.807 0.719998C210.607 0.899998 211.307 1.12 211.907 1.38C212.507 1.64 213.017 1.92 213.437 2.22C213.857 2.52 214.177 2.79 214.397 3.03L211.697 6.45C210.997 5.93 210.267 5.51 209.507 5.19C208.747 4.85 207.967 4.68 207.167 4.68C206.907 4.68 206.647 4.71 206.387 4.77C206.127 4.83 205.887 4.92 205.667 5.04C205.467 5.16 205.297 5.32 205.157 5.52C205.037 5.7 204.977 5.93 204.977 6.21C204.977 6.51 205.047 6.77 205.187 6.99C205.347 7.21 205.557 7.4 205.817 7.56C206.077 7.72 206.387 7.87 206.747 8.01C207.127 8.13 207.527 8.26 207.947 8.4L208.907 8.7C209.587 8.92 210.277 9.18 210.977 9.48C211.677 9.76 212.307 10.15 212.867 10.65C213.427 11.13 213.887 11.74 214.247 12.48C214.607 13.2 214.787 14.09 214.787 15.15C214.787 16.07 214.567 16.92 214.127 17.7C213.707 18.48 213.127 19.15 212.387 19.71C211.667 20.27 210.807 20.7 209.807 21C208.827 21.32 207.777 21.48 206.657 21.48C204.657 21.48 202.977 21.22 201.617 20.7C200.277 20.16 199.137 19.44 198.197 18.54L201.407 14.67ZM217.422 0.989998H222.732V12.72C222.732 13.82 222.982 14.72 223.482 15.42C224.002 16.12 224.852 16.47 226.032 16.47C227.212 16.47 228.052 16.12 228.552 15.42C229.052 14.7 229.302 13.8 229.302 12.72V0.989998H234.672V13.2C234.672 14.48 234.462 15.64 234.042 16.68C233.622 17.7 233.022 18.57 232.242 19.29C231.482 20.01 230.572 20.56 229.512 20.94C228.472 21.32 227.322 21.51 226.062 21.51C224.802 21.51 223.642 21.32 222.582 20.94C221.522 20.56 220.602 20.02 219.822 19.32C219.062 18.6 218.472 17.73 218.052 16.71C217.632 15.67 217.422 14.5 217.422 13.2V0.989998ZM238.168 0.989998H246.328C247.408 0.989998 248.378 1.14 249.238 1.44C250.118 1.72 250.868 2.14 251.488 2.7C252.108 3.24 252.588 3.93 252.928 4.77C253.268 5.59 253.438 6.54 253.438 7.62C253.438 8.64 253.258 9.57 252.898 10.41C252.558 11.23 252.078 11.94 251.458 12.54C250.858 13.12 250.128 13.57 249.268 13.89C248.428 14.19 247.498 14.34 246.478 14.34H243.358V21H238.168V0.989998ZM245.878 10.17C246.598 10.17 247.168 9.94 247.588 9.48C248.008 9.02 248.218 8.43 248.218 7.71C248.218 6.95 248.018 6.34 247.618 5.88C247.218 5.42 246.628 5.19 245.848 5.19H243.358V10.17H245.878ZM256.068 0.989998H270.468V5.58H261.378V8.67H268.848V12.99H261.378V16.41H271.098V21H256.068V0.989998ZM273.851 0.989998H282.131C283.211 0.989998 284.181 1.13 285.041 1.41C285.921 1.69 286.671 2.11 287.291 2.67C287.911 3.21 288.391 3.89 288.731 4.71C289.071 5.53 289.241 6.48 289.241 7.56C289.241 8.88 288.951 10.03 288.371 11.01C287.791 11.97 287.021 12.74 286.061 13.32L290.351 21H284.651L281.261 14.19H279.041V21H273.851V0.989998ZM281.621 10.02C282.321 10.02 282.891 9.81 283.331 9.39C283.771 8.95 283.991 8.37 283.991 7.65C283.991 6.89 283.781 6.29 283.361 5.85C282.941 5.41 282.351 5.19 281.591 5.19H279.041V10.02H281.621ZM297.493 0.989998H311.443V5.64H302.803V9.51H309.493V13.89H302.803V21H297.493V0.989998ZM313.721 0.989998H319.031V12.72C319.031 13.82 319.281 14.72 319.781 15.42C320.301 16.12 321.151 16.47 322.331 16.47C323.511 16.47 324.351 16.12 324.851 15.42C325.351 14.7 325.601 13.8 325.601 12.72V0.989998H330.971V13.2C330.971 14.48 330.761 15.64 330.341 16.68C329.921 17.7 329.321 18.57 328.541 19.29C327.781 20.01 326.871 20.56 325.811 20.94C324.771 21.32 323.621 21.51 322.361 21.51C321.101 21.51 319.941 21.32 318.881 20.94C317.821 20.56 316.901 20.02 316.121 19.32C315.361 18.6 314.771 17.73 314.351 16.71C313.931 15.67 313.721 14.5 313.721 13.2V0.989998ZM334.437 0.989998H339.267L346.947 12.15V0.989998H352.197V21H347.667L339.687 9.51V21H334.437V0.989998ZM355.794 0.989998H363.474C365.014 0.989998 366.434 1.19 367.734 1.59C369.054 1.99 370.194 2.6 371.154 3.42C372.114 4.24 372.864 5.29 373.404 6.57C373.944 7.85 374.214 9.36 374.214 11.1C374.214 12.76 373.934 14.21 373.374 15.45C372.834 16.67 372.084 17.7 371.124 18.54C370.164 19.36 369.024 19.98 367.704 20.4C366.384 20.8 364.964 21 363.444 21H355.794V0.989998ZM363.264 16.32C365.004 16.32 366.344 15.83 367.284 14.85C368.244 13.85 368.724 12.56 368.724 10.98C368.724 10.18 368.614 9.46 368.394 8.82C368.174 8.16 367.834 7.6 367.374 7.14C366.934 6.66 366.374 6.29 365.694 6.03C365.014 5.77 364.204 5.64 363.264 5.64H361.104V16.32H363.264Z" fill="white"/>
</svg>
