<svg width="152" height="30" viewBox="0 0 152 30" fill="none" xmlns="http://www.w3.org/2000/svg">
<rect x="0.5" y="0.5" width="150.909" height="29" rx="4.95455" fill="white"/>
<rect x="0.5" y="0.5" width="150.909" height="29" rx="4.95455" stroke="#DD5900"/>
<path d="M24.2227 18.32H25.4707C28.0307 18.32 29.2627 16.848 29.2627 14.32V14.192C29.2627 11.728 28.1427 10.24 25.4547 10.24H24.2227V18.32ZM22.0947 20V8.56H25.5667C29.5507 8.56 31.4867 10.832 31.4867 14.16V14.304C31.4867 17.632 29.5507 20 25.5347 20H22.0947ZM33.4046 20V11.632H35.3406V20H33.4046ZM34.3486 10.256C33.7086 10.256 33.1966 9.776 33.1966 9.152C33.1966 8.512 33.7086 8.032 34.3486 8.032C34.9886 8.032 35.5006 8.512 35.5006 9.152C35.5006 9.776 34.9886 10.256 34.3486 10.256ZM40.5643 20.16C38.4043 20.16 37.1403 19.168 37.0603 17.392H38.8843C38.9803 18.24 39.4123 18.736 40.5483 18.736C41.5883 18.736 42.0523 18.368 42.0523 17.664C42.0523 16.976 41.4923 16.72 40.2603 16.512C38.0523 16.16 37.2363 15.536 37.2363 13.968C37.2363 12.288 38.8043 11.456 40.3723 11.456C42.0843 11.456 43.4443 12.096 43.6523 13.984H41.8603C41.7003 13.216 41.2683 12.864 40.3723 12.864C39.5403 12.864 39.0443 13.264 39.0443 13.856C39.0443 14.464 39.4443 14.704 40.7723 14.928C42.7403 15.232 43.9083 15.712 43.9083 17.488C43.9083 19.184 42.7083 20.16 40.5643 20.16ZM49.2706 20.16C46.8706 20.16 45.0466 18.592 45.0466 15.92V15.792C45.0466 13.136 46.9346 11.456 49.2706 11.456C51.1266 11.456 52.8706 12.288 53.0946 14.592H51.2226C51.0626 13.472 50.3266 13.008 49.3026 13.008C47.9746 13.008 47.0306 14.032 47.0306 15.76V15.888C47.0306 17.712 47.9266 18.672 49.3506 18.672C50.3746 18.672 51.2546 18.064 51.3666 16.88H53.1426C52.9986 18.8 51.5426 20.16 49.2706 20.16ZM58.5537 18.656C59.9937 18.656 60.8577 17.584 60.8577 15.872V15.76C60.8577 14.032 59.9937 12.976 58.5537 12.976C57.1137 12.976 56.2337 14.016 56.2337 15.744V15.872C56.2337 17.584 57.0817 18.656 58.5537 18.656ZM58.5377 20.16C56.0737 20.16 54.2497 18.448 54.2497 15.904V15.776C54.2497 13.184 56.0897 11.456 58.5537 11.456C61.0017 11.456 62.8417 13.168 62.8417 15.728V15.856C62.8417 18.464 61.0017 20.16 58.5377 20.16ZM66.4705 20L63.4145 11.632H65.4945L67.6865 18.016L69.8465 11.632H71.7505L68.7265 20H66.4705ZM76.5522 20.16C74.0882 20.16 72.3122 18.544 72.3122 15.904V15.776C72.3122 13.184 74.0882 11.456 76.4722 11.456C78.5522 11.456 80.4242 12.688 80.4242 15.68V16.24H74.2962C74.3602 17.824 75.1602 18.72 76.6002 18.72C77.7682 18.72 78.3762 18.256 78.5202 17.44H80.3922C80.1202 19.2 78.6962 20.16 76.5522 20.16ZM74.3282 14.944H78.5042C78.4082 13.504 77.6722 12.864 76.4722 12.864C75.3042 12.864 74.5202 13.648 74.3282 14.944ZM82.1535 20V11.632H84.0895V13.2C84.6175 12.144 85.4015 11.52 86.8095 11.504V13.312C85.1135 13.328 84.0895 13.872 84.0895 15.648V20H82.1535ZM92.3253 20V11.632H94.2613V12.912C94.6613 12.128 95.5733 11.456 96.8053 11.456C97.8933 11.456 98.7573 11.92 99.1733 12.96C99.8133 11.92 100.965 11.456 102.005 11.456C103.541 11.456 104.789 12.4 104.789 14.704V20H102.853V14.832C102.853 13.6 102.325 13.072 101.365 13.072C100.405 13.072 99.5253 13.712 99.5253 14.992V20H97.5893V14.832C97.5893 13.6 97.0453 13.072 96.1013 13.072C95.1413 13.072 94.2613 13.712 94.2613 14.992V20H92.3253ZM110.757 18.656C112.197 18.656 113.061 17.584 113.061 15.872V15.76C113.061 14.032 112.197 12.976 110.757 12.976C109.317 12.976 108.437 14.016 108.437 15.744V15.872C108.437 17.584 109.285 18.656 110.757 18.656ZM110.741 20.16C108.277 20.16 106.453 18.448 106.453 15.904V15.776C106.453 13.184 108.293 11.456 110.757 11.456C113.205 11.456 115.045 13.168 115.045 15.728V15.856C115.045 18.464 113.205 20.16 110.741 20.16ZM116.794 20V11.632H118.73V13.2C119.258 12.144 120.042 11.52 121.45 11.504V13.312C119.754 13.328 118.73 13.872 118.73 15.648V20H116.794ZM126.677 20.16C124.213 20.16 122.437 18.544 122.437 15.904V15.776C122.437 13.184 124.213 11.456 126.597 11.456C128.677 11.456 130.549 12.688 130.549 15.68V16.24H124.421C124.485 17.824 125.285 18.72 126.725 18.72C127.893 18.72 128.501 18.256 128.645 17.44H130.517C130.245 19.2 128.821 20.16 126.677 20.16ZM124.453 14.944H128.629C128.533 13.504 127.797 12.864 126.597 12.864C125.429 12.864 124.645 13.648 124.453 14.944Z" fill="#DD5900"/>
</svg>
