<?xml version="1.0" encoding="utf-8"?>
<!-- Generator: Adobe Illustrator 27.7.0, SVG Export Plug-In . SVG Version: 6.00 Build 0)  -->
<svg version="1.1" id="Layer_1" xmlns="http://www.w3.org/2000/svg" xmlns:xlink="http://www.w3.org/1999/xlink" x="0px" y="0px"
	 viewBox="0 0 268 40" style="enable-background:new 0 0 268 40;" xml:space="preserve">
<style type="text/css">
	.st0{fill:#DD5900;}
</style>
<path class="st0" d="M1.8,36v-8.2H0.4v-1.7h1.3v-1.3c0-2.2,1.2-3.4,3.3-3.4c0.6,0,0.9,0.1,1.3,0.2v1.8c-0.3-0.1-0.6-0.2-1-0.2
	c-0.9,0-1.3,0.6-1.3,1.5v1.4h2.3v1.7H4.1V36H1.8z M11.9,34.4c1.7,0,2.7-1.3,2.7-3.3V31c0-2.1-1-3.3-2.7-3.3s-2.8,1.2-2.8,3.3v0.2
	C9.2,33.1,10.2,34.4,11.9,34.4z M11.9,36.2c-2.9,0-5.1-2-5.1-5.1V31c0-3.1,2.2-5.1,5.1-5.1c2.9,0,5.1,2,5.1,5.1v0.2
	C17,34.2,14.9,36.2,11.9,36.2z M18.7,36v-9.9H21v1.9c0.6-1.3,1.6-2,3.2-2v2.1c-2,0-3.2,0.7-3.2,2.8V36H18.7z M32.1,36l-3-9.9h2.5
	l2,7.2l2.1-7.2h1.9l1.9,7.2l2.1-7.2h2.2L40.7,36h-2.3l-1.8-6.7l-2,6.7H32.1z M49.3,34.4c1.7,0,2.7-1.3,2.7-3.3V31
	c0-2.1-1-3.3-2.7-3.3c-1.7,0-2.8,1.2-2.8,3.3v0.2C46.6,33.1,47.6,34.4,49.3,34.4z M49.3,36.2c-2.9,0-5.1-2-5.1-5.1V31
	c0-3.1,2.2-5.1,5.1-5.1c2.9,0,5.1,2,5.1,5.1v0.2C54.4,34.2,52.2,36.2,49.3,36.2z M56.1,36v-9.9h2.3v1.5c0.5-0.9,1.6-1.7,3-1.7
	c1.3,0,2.3,0.6,2.8,1.8c0.8-1.2,2.1-1.8,3.4-1.8c1.8,0,3.3,1.1,3.3,3.9V36h-2.3v-6.1c0-1.5-0.6-2.1-1.8-2.1s-2.2,0.8-2.2,2.3V36
	h-2.3v-6.1c0-1.5-0.6-2.1-1.8-2.1c-1.1,0-2.2,0.8-2.2,2.3V36H56.1z M77.5,36.2c-2.9,0-5-1.9-5-5.1V31c0-3.1,2.1-5.1,4.9-5.1
	c2.5,0,4.7,1.5,4.7,5v0.7h-7.3c0.1,1.9,1,2.9,2.7,2.9c1.4,0,2.1-0.6,2.3-1.5h2.2C81.8,35,80.1,36.2,77.5,36.2z M74.9,30h5
	c-0.1-1.7-1-2.5-2.4-2.5C76.1,27.5,75.1,28.5,74.9,30z M83.8,36v-9.9h2.3v1.6c0.5-1,1.6-1.8,3.2-1.8c2,0,3.4,1.2,3.4,3.9V36h-2.3v-6
	c0-1.5-0.6-2.2-2-2.2c-1.3,0-2.3,0.8-2.3,2.4V36H83.8z M101.7,36.2c-1.8,0-3.3-0.9-3.3-2.9c0-2.3,2.2-3.2,5.1-3.2h1.2v-0.5
	c0-1.3-0.5-2-1.8-2c-1.2,0-1.8,0.6-1.9,1.6h-2.2c0.2-2.3,2-3.3,4.3-3.3s4,0.9,4,3.6V36h-2.3v-1.2C104.1,35.6,103.3,36.2,101.7,36.2z
	 M102.3,34.5c1.4,0,2.5-0.7,2.5-2v-1h-1.2c-1.7,0-2.9,0.4-2.9,1.6C100.7,34,101.2,34.5,102.3,34.5z M109.3,36v-9.9h2.3v1.6
	c0.5-1,1.6-1.8,3.2-1.8c2,0,3.4,1.2,3.4,3.9V36h-2.3v-6c0-1.5-0.6-2.2-2-2.2c-1.3,0-2.3,0.8-2.3,2.4V36H109.3z M124.2,36.2
	c-2.5,0-4.4-1.8-4.4-5V31c0-3.2,1.9-5.2,4.5-5.2c1.6,0,2.6,0.7,3.2,1.7v-6.1h2.3V36h-2.3v-1.7C126.9,35.3,125.7,36.2,124.2,36.2z
	 M124.8,34.4c1.6,0,2.8-1.1,2.8-3.3v-0.2c0-2.2-1-3.3-2.7-3.3c-1.7,0-2.7,1.2-2.7,3.3v0.2C122.2,33.3,123.3,34.4,124.8,34.4z
	 M140.5,39.6c-3.1,0-4.5-1.4-4.8-3.3h2.3c0.2,1,0.9,1.6,2.5,1.6c1.8,0,2.8-0.9,2.8-2.7v-1.5c-0.6,1-1.8,1.8-3.2,1.8
	c-2.5,0-4.4-1.9-4.4-4.7v-0.1c0-2.8,1.9-4.9,4.5-4.9c1.6,0,2.6,0.7,3.2,1.7v-1.5h2.3v9.2C145.5,38.2,143.6,39.6,140.5,39.6z
	 M140.6,33.8c1.6,0,2.8-1.1,2.8-3v-0.1c0-1.9-1-3-2.7-3c-1.7,0-2.7,1.2-2.7,3v0.2C138,32.7,139.1,33.8,140.6,33.8z M148,36v-9.9h2.3
	V36H148z M149.1,24.4c-0.8,0-1.4-0.6-1.4-1.3c0-0.8,0.6-1.3,1.4-1.3c0.8,0,1.4,0.6,1.4,1.3C150.5,23.9,149.8,24.4,149.1,24.4z
	 M152.7,36v-9.9h2.3v1.9c0.6-1.3,1.6-2,3.2-2v2.1c-2,0-3.2,0.7-3.2,2.8V36H152.7z M159.9,36V21.5h2.3V36H159.9z M168,36.2
	c-2.6,0-4.1-1.2-4.2-3.3h2.2c0.1,1,0.6,1.6,2,1.6c1.2,0,1.8-0.4,1.8-1.3c0-0.8-0.7-1.1-2.1-1.4c-2.6-0.4-3.6-1.2-3.6-3
	c0-2,1.9-3,3.7-3c2,0,3.6,0.8,3.9,3h-2.1c-0.2-0.9-0.7-1.3-1.8-1.3c-1,0-1.6,0.5-1.6,1.2c0,0.7,0.5,1,2.1,1.3c2.3,0.4,3.7,0.9,3.7,3
	C172,35,170.6,36.2,168,36.2z M177.9,36v-9.9h2.3V36H177.9z M179,24.4c-0.8,0-1.4-0.6-1.4-1.3c0-0.8,0.6-1.3,1.4-1.3
	c0.8,0,1.4,0.6,1.4,1.3C180.3,23.9,179.7,24.4,179,24.4z M182.6,36v-9.9h2.3v1.6c0.5-1,1.6-1.8,3.2-1.8c2,0,3.4,1.2,3.4,3.9V36h-2.3
	v-6c0-1.5-0.6-2.2-2-2.2c-1.3,0-2.3,0.8-2.3,2.4V36H182.6z M198.3,36v-8.2h-1.3v-1.7h1.3v-1.3c0-2.2,1.2-3.4,3.3-3.4
	c0.6,0,0.9,0.1,1.3,0.2v1.8c-0.3-0.1-0.6-0.2-1-0.2c-0.9,0-1.3,0.6-1.3,1.5v1.4h2.3v1.7h-2.3V36H198.3z M208.5,34.4
	c1.7,0,2.7-1.3,2.7-3.3V31c0-2.1-1-3.3-2.7-3.3c-1.7,0-2.8,1.2-2.8,3.3v0.2C205.7,33.1,206.7,34.4,208.5,34.4z M208.5,36.2
	c-2.9,0-5.1-2-5.1-5.1V31c0-3.1,2.2-5.1,5.1-5.1c2.9,0,5.1,2,5.1,5.1v0.2C213.6,34.2,211.4,36.2,208.5,36.2z M219.7,34.4
	c1.7,0,2.7-1.3,2.7-3.3V31c0-2.1-1-3.3-2.7-3.3c-1.7,0-2.8,1.2-2.8,3.3v0.2C217,33.1,218,34.4,219.7,34.4z M219.7,36.2
	c-2.9,0-5.1-2-5.1-5.1V31c0-3.1,2.2-5.1,5.1-5.1c2.9,0,5.1,2,5.1,5.1v0.2C224.8,34.2,222.6,36.2,219.7,36.2z M229.9,36.2
	c-2,0-3-1.1-3-2.9v-5.4h-1.3v-1.7h1.3v-2.2h2.3v2.2h2.2v1.7h-2.2V33c0,0.9,0.4,1.3,1.1,1.3c0.5,0,0.8-0.1,1.1-0.2v1.8
	C231.1,36.1,230.6,36.2,229.9,36.2z M238.7,36.2c-1.6,0-2.7-0.8-3.2-1.8V36h-2.3V21.5h2.3v6.2c0.6-1,1.8-1.8,3.2-1.8
	c2.5,0,4.4,1.8,4.4,5.1v0.2C243.1,34.3,241.2,36.2,238.7,36.2z M238.1,34.4c1.7,0,2.6-1.1,2.6-3.3v-0.2c0-2.2-1.1-3.3-2.6-3.3
	c-1.6,0-2.7,1.1-2.7,3.3v0.2C235.4,33.3,236.4,34.4,238.1,34.4z M247.4,36.2c-1.8,0-3.3-0.9-3.3-2.9c0-2.3,2.2-3.2,5.1-3.2h1.2v-0.5
	c0-1.3-0.5-2-1.8-2c-1.2,0-1.8,0.6-1.9,1.6h-2.2c0.2-2.3,2-3.3,4.3-3.3c2.2,0,4,0.9,4,3.6V36h-2.3v-1.2
	C249.8,35.6,248.9,36.2,247.4,36.2z M247.9,34.5c1.4,0,2.5-0.7,2.5-2v-1h-1.2c-1.7,0-2.9,0.4-2.9,1.6
	C246.3,34,246.8,34.5,247.9,34.5z M255,36V21.5h2.3V36H255z M259.8,36V21.5h2.3V36H259.8z M265.9,36.1c-0.8,0-1.5-0.6-1.5-1.5
	c0-0.8,0.7-1.5,1.5-1.5c0.9,0,1.5,0.7,1.5,1.5C267.4,35.5,266.7,36.1,265.9,36.1z"/>
</svg>
