<?xml version="1.0" encoding="utf-8"?>
<!-- Generator: Adobe Illustrator 27.7.0, SVG Export Plug-In . SVG Version: 6.00 Build 0)  -->
<svg version="1.1" id="Layer_1" xmlns="http://www.w3.org/2000/svg" xmlns:xlink="http://www.w3.org/1999/xlink" x="0px" y="0px"
	 viewBox="0 0 235 40" style="enable-background:new 0 0 235 40;" xml:space="preserve">
<style type="text/css">
	.st0{fill:#DD5900;}
</style>
<path class="st0" d="M5.7,36.2c-2.8,0-5-1.9-5-5V31c0-3.2,2.2-5.1,5-5.1c2.2,0,4.3,1,4.5,3.7H8c-0.2-1.3-1.1-1.9-2.3-1.9
	c-1.6,0-2.7,1.2-2.7,3.3v0.2c0,2.2,1.1,3.3,2.8,3.3c1.2,0,2.3-0.7,2.4-2.1h2.1C10.1,34.6,8.4,36.2,5.7,36.2z M16.4,34.4
	c1.7,0,2.7-1.3,2.7-3.3V31c0-2.1-1-3.3-2.7-3.3c-1.7,0-2.8,1.2-2.8,3.3v0.2C13.6,33.1,14.6,34.4,16.4,34.4z M16.3,36.2
	c-2.9,0-5.1-2-5.1-5.1V31c0-3.1,2.2-5.1,5.1-5.1c2.9,0,5.1,2,5.1,5.1v0.2C21.5,34.2,19.3,36.2,16.3,36.2z M23.2,36v-9.9h2.3v1.5
	c0.5-0.9,1.6-1.7,3-1.7c1.3,0,2.3,0.6,2.8,1.8c0.8-1.2,2.1-1.8,3.4-1.8c1.8,0,3.3,1.1,3.3,3.9V36h-2.3v-6.1c0-1.5-0.6-2.1-1.8-2.1
	c-1.1,0-2.2,0.8-2.2,2.3V36h-2.3v-6.1c0-1.5-0.6-2.1-1.8-2.1c-1.1,0-2.2,0.8-2.2,2.3V36H23.2z M40.2,36v-9.9h2.3v1.5
	c0.5-0.9,1.6-1.7,3-1.7c1.3,0,2.3,0.6,2.8,1.8c0.8-1.2,2.1-1.8,3.4-1.8c1.8,0,3.3,1.1,3.3,3.9V36h-2.3v-6.1c0-1.5-0.6-2.1-1.8-2.1
	c-1.1,0-2.2,0.8-2.2,2.3V36h-2.3v-6.1c0-1.5-0.6-2.1-1.8-2.1c-1.1,0-2.2,0.8-2.2,2.3V36H40.2z M60.6,36.2c-2,0-3.4-1.1-3.4-3.8v-6.4
	h2.3v6.1c0,1.5,0.6,2.2,2,2.2c1.2,0,2.3-0.8,2.3-2.4v-5.9h2.3V36h-2.3v-1.6C63.3,35.4,62.2,36.2,60.6,36.2z M68.4,36v-9.9h2.3v1.6
	c0.5-1,1.6-1.8,3.2-1.8c2,0,3.4,1.2,3.4,3.9V36H75v-6c0-1.5-0.6-2.2-2-2.2c-1.3,0-2.3,0.8-2.3,2.4V36H68.4z M79.6,36v-9.9h2.3V36
	H79.6z M80.8,24.4c-0.8,0-1.4-0.6-1.4-1.3c0-0.8,0.6-1.3,1.4-1.3c0.8,0,1.4,0.6,1.4,1.3C82.1,23.9,81.5,24.4,80.8,24.4z M87.7,36.2
	c-2,0-3-1.1-3-2.9v-5.4h-1.3v-1.7h1.3v-2.2H87v2.2h2.2v1.7H87V33c0,0.9,0.4,1.3,1.1,1.3c0.5,0,0.8-0.1,1.1-0.2v1.8
	C88.9,36.1,88.4,36.2,87.7,36.2z M91,36v-9.9h2.3V36H91z M92.2,24.4c-0.8,0-1.4-0.6-1.4-1.3c0-0.8,0.6-1.3,1.4-1.3s1.4,0.6,1.4,1.3
	C93.5,23.9,92.9,24.4,92.2,24.4z M100.1,36.2c-2.9,0-5-1.9-5-5.1V31c0-3.1,2.1-5.1,4.9-5.1c2.5,0,4.7,1.5,4.7,5v0.7h-7.3
	c0.1,1.9,1,2.9,2.7,2.9c1.4,0,2.1-0.6,2.3-1.5h2.2C104.4,35,102.7,36.2,100.1,36.2z M97.5,30h5c-0.1-1.7-1-2.5-2.4-2.5
	C98.7,27.5,97.7,28.5,97.5,30z M109.9,36.2c-2.6,0-4.1-1.2-4.2-3.3h2.2c0.1,1,0.6,1.6,2,1.6c1.2,0,1.8-0.4,1.8-1.3
	c0-0.8-0.7-1.1-2.1-1.4c-2.6-0.4-3.6-1.2-3.6-3c0-2,1.9-3,3.7-3c2,0,3.6,0.8,3.9,3h-2.1c-0.2-0.9-0.7-1.3-1.8-1.3
	c-1,0-1.6,0.5-1.6,1.2c0,0.7,0.5,1,2.1,1.3c2.3,0.4,3.7,0.9,3.7,3C113.9,35,112.4,36.2,109.9,36.2z M120.1,36v-8.2h-1.3v-1.7h1.3
	v-1.3c0-2.2,1.2-3.4,3.3-3.4c0.6,0,0.9,0.1,1.3,0.2v1.8c-0.3-0.1-0.6-0.2-1-0.2c-0.9,0-1.3,0.6-1.3,1.5v1.4h2.3v1.7h-2.3V36H120.1z
	 M130.2,34.4c1.7,0,2.7-1.3,2.7-3.3V31c0-2.1-1-3.3-2.7-3.3s-2.8,1.2-2.8,3.3v0.2C127.5,33.1,128.5,34.4,130.2,34.4z M130.2,36.2
	c-2.9,0-5.1-2-5.1-5.1V31c0-3.1,2.2-5.1,5.1-5.1c2.9,0,5.1,2,5.1,5.1v0.2C135.3,34.2,133.1,36.2,130.2,36.2z M137,36v-9.9h2.3v1.9
	c0.6-1.3,1.6-2,3.2-2v2.1c-2,0-3.2,0.7-3.2,2.8V36H137z M150.5,36V24.9l-2.9,2v-2.2l3.2-2.2h2.3V36H150.5z M161.6,36v-2.8h-6.7v-0.9
	l6-9.9h3.2v8.9h1.8v1.9H164V36H161.6z M157.6,31.4h4.1v-7L157.6,31.4z M172.7,34.2c2.1,0,3.1-1.6,3.1-4.7v-0.7
	c0-2.9-1.1-4.6-3.1-4.6c-2.1,0-3.2,1.6-3.2,4.7v0.7C169.5,32.6,170.7,34.2,172.7,34.2z M172.6,36.2c-3.5,0-5.7-2.5-5.7-6.6v-0.7
	c0-4.1,2.3-6.6,5.7-6.6c3.4,0,5.7,2.5,5.7,6.6v0.7C178.3,33.6,176.2,36.2,172.6,36.2z M185.5,39.4l1.8-4.4l-3.9-8.9h2.5l2.6,6.4
	l2.4-6.4h2.2l-5.4,13.3H185.5z M198.6,36.2c-2.9,0-5-1.9-5-5.1V31c0-3.1,2.1-5.1,4.9-5.1c2.5,0,4.7,1.5,4.7,5v0.7h-7.3
	c0.1,1.9,1,2.9,2.7,2.9c1.4,0,2.1-0.6,2.3-1.5h2.2C202.8,35,201.1,36.2,198.6,36.2z M195.9,30h5c-0.1-1.7-1-2.5-2.4-2.5
	C197.1,27.5,196.1,28.5,195.9,30z M207.5,36.2c-1.8,0-3.3-0.9-3.3-2.9c0-2.3,2.2-3.2,5.1-3.2h1.2v-0.5c0-1.3-0.5-2-1.8-2
	c-1.2,0-1.8,0.6-1.9,1.6h-2.2c0.2-2.3,2-3.3,4.3-3.3c2.2,0,4,0.9,4,3.6V36h-2.3v-1.2C209.9,35.6,209,36.2,207.5,36.2z M208.1,34.5
	c1.4,0,2.5-0.7,2.5-2v-1h-1.2c-1.7,0-2.9,0.4-2.9,1.6C206.5,34,206.9,34.5,208.1,34.5z M215.1,36v-9.9h2.3v1.9c0.6-1.3,1.6-2,3.2-2
	v2.1c-2,0-3.2,0.7-3.2,2.8V36H215.1z M225.7,36.2c-2.6,0-4.1-1.2-4.2-3.3h2.2c0.1,1,0.6,1.6,2,1.6c1.2,0,1.8-0.4,1.8-1.3
	c0-0.8-0.7-1.1-2.1-1.4c-2.6-0.4-3.6-1.2-3.6-3c0-2,1.9-3,3.7-3c2,0,3.6,0.8,3.9,3h-2.1c-0.2-0.9-0.7-1.3-1.8-1.3
	c-1,0-1.6,0.5-1.6,1.2c0,0.7,0.5,1,2.1,1.3c2.3,0.4,3.7,0.9,3.7,3C229.6,35,228.2,36.2,225.7,36.2z M232.6,36.1
	c-0.8,0-1.5-0.6-1.5-1.5c0-0.8,0.7-1.5,1.5-1.5c0.9,0,1.5,0.7,1.5,1.5C234.1,35.5,233.5,36.1,232.6,36.1z"/>
</svg>
