<?xml version="1.0" encoding="utf-8"?>
<!-- Generator: Adobe Illustrator 27.7.0, SVG Export Plug-In . SVG Version: 6.00 Build 0)  -->
<svg version="1.1" id="Layer_1" xmlns="http://www.w3.org/2000/svg" xmlns:xlink="http://www.w3.org/1999/xlink" x="0px" y="0px"
	 viewBox="0 0 166 87" style="enable-background:new 0 0 166 87;" xml:space="preserve">
<style type="text/css">
	.st0{fill:#222222;}
</style>
<path class="st0" d="M1.5,43.8V29h2.5v1.8c0.6-1,2-2,3.6-2c2.8,0,4.9,2,4.9,5.6v0.2c0,3.5-2,5.7-4.9,5.7c-1.7,0-3-0.9-3.6-1.9v5.5
	H1.5z M7,38.2c1.9,0,2.9-1.3,2.9-3.6v-0.2c0-2.4-1.3-3.6-2.9-3.6c-1.8,0-3,1.2-3,3.6v0.2C4,37,5.2,38.2,7,38.2z M17.3,40.2
	c-2,0-3.7-1-3.7-3.3c0-2.6,2.5-3.5,5.6-3.5h1.4v-0.6c0-1.5-0.5-2.2-2-2.2c-1.3,0-2,0.6-2.1,1.7H14c0.2-2.6,2.2-3.6,4.7-3.6
	s4.4,1,4.4,4V40h-2.5v-1.3C19.9,39.6,18.9,40.2,17.3,40.2z M17.9,38.4c1.6,0,2.7-0.8,2.7-2.2v-1.1h-1.3c-1.9,0-3.2,0.4-3.2,1.8
	C16.1,37.8,16.6,38.4,17.9,38.4z M29.3,40.2c-2.2,0-3.3-1.2-3.3-3.3v-6h-1.5V29H26v-2.4h2.5V29H31v1.9h-2.4v5.8c0,1,0.5,1.4,1.3,1.4
	c0.5,0,0.9-0.1,1.2-0.2v2C30.7,40.1,30.1,40.2,29.3,40.2z M32.9,40V23.9h2.5v6.8c0.5-1.1,1.7-2,3.5-2c2.2,0,3.8,1.3,3.8,4.3V40h-2.5
	v-6.7c0-1.7-0.7-2.4-2.2-2.4c-1.4,0-2.6,0.9-2.6,2.6V40H32.9z M47.4,40L44,29h2.7l2.2,7.9l2.3-7.9h2.1l2.1,7.9l2.3-7.9h2.5l-3.4,11
	h-2.6l-2-7.4L50,40H47.4z M64.3,40.2c-2,0-3.7-1-3.7-3.3c0-2.6,2.5-3.5,5.6-3.5h1.4v-0.6c0-1.5-0.5-2.2-2-2.2c-1.3,0-2,0.6-2.1,1.7
	h-2.5c0.2-2.6,2.2-3.6,4.7-3.6c2.5,0,4.4,1,4.4,4V40h-2.5v-1.3C67,39.6,66,40.2,64.3,40.2z M65,38.4c1.6,0,2.7-0.8,2.7-2.2v-1.1
	h-1.3c-1.9,0-3.2,0.4-3.2,1.8C63.2,37.8,63.7,38.4,65,38.4z M73.6,43.8l2-4.9L71.3,29H74l2.9,7.1l2.7-7.1h2.5l-6,14.7H73.6z
	 M87.3,40.2c-2.8,0-4.5-1.3-4.6-3.6h2.4c0.1,1.1,0.7,1.8,2.2,1.8c1.4,0,2-0.5,2-1.4c0-0.9-0.7-1.2-2.4-1.5c-2.9-0.5-4-1.3-4-3.3
	c0-2.2,2.1-3.3,4.1-3.3c2.2,0,4,0.8,4.3,3.3H89c-0.2-1-0.8-1.5-2-1.5c-1.1,0-1.7,0.5-1.7,1.3c0,0.8,0.5,1.1,2.3,1.4
	c2.6,0.4,4.1,1,4.1,3.4C91.7,38.9,90.1,40.2,87.3,40.2z M98.6,40v-9.1h-1.5V29h1.5v-1.5c0-2.4,1.3-3.7,3.7-3.7c0.6,0,1,0.1,1.4,0.2
	v2c-0.3-0.1-0.7-0.2-1.2-0.2c-1,0-1.4,0.7-1.4,1.6V29h2.5v1.9h-2.5V40H98.6z M109.8,38.2c1.9,0,3-1.4,3-3.7v-0.1
	c0-2.3-1.1-3.7-3-3.7s-3,1.4-3,3.6v0.2C106.8,36.8,107.9,38.2,109.8,38.2z M109.8,40.2c-3.2,0-5.6-2.2-5.6-5.6v-0.2
	c0-3.4,2.4-5.7,5.6-5.7c3.2,0,5.6,2.2,5.6,5.6v0.2C115.4,38,113,40.2,109.8,40.2z M117.3,40V29h2.5v2.1c0.7-1.4,1.7-2.2,3.6-2.2v2.4
	c-2.2,0-3.6,0.7-3.6,3.1V40H117.3z"/>
</svg>
