<svg width="260" height="30" viewBox="0 0 260 30" fill="none" xmlns="http://www.w3.org/2000/svg">
<g clip-path="url(#clip0_3805_7479)">
<path d="M129.601 29.5915V5.79724L123.809 10V5.22638L130.177 0.408465H134.744V29.5915H129.601ZM150.556 29.5915V23.6713H136.973V21.752L149.099 0.408465H155.507V19.6309H159.188V23.6713H155.507V29.5915H150.556ZM142.426 19.6309H150.64V4.52756L142.426 19.6309ZM171.457 25.6693C175.679 25.6693 177.712 22.2392 177.712 15.6299V14.2028C177.712 7.99705 175.487 4.24213 171.383 4.24213C167.279 4.24213 164.975 7.75098 164.975 14.2421V15.7136C164.975 22.3278 167.357 25.6742 171.457 25.6742M171.344 30C164.36 30 159.833 24.5325 159.833 15.7579V14.2864C159.833 5.42815 164.439 0 171.344 0C178.248 0 182.815 5.38878 182.815 14.1634V15.6348C182.815 24.4094 178.519 30 171.344 30Z" fill="#DD5900"/>
<path d="M97.5542 21.8062V13.1447L95.4823 14.7294V13.6123L97.628 11.9587H98.6762V21.8012H97.5492L97.5542 21.8062ZM103.135 21.9292C101.619 21.9292 99.941 20.9646 99.941 19.0109C99.941 17.692 100.704 16.8357 101.688 16.4617C100.807 16.1024 100.29 15.3593 100.29 14.3947C100.29 12.8003 101.713 11.8357 103.135 11.8357C104.557 11.8357 105.97 12.8249 105.97 14.3701C105.97 15.3593 105.399 16.0483 104.547 16.4469C105.62 16.8603 106.319 17.7117 106.319 18.9814C106.319 20.9499 104.7 21.9292 103.135 21.9292ZM103.135 20.9548C104.272 20.9548 105.167 20.251 105.167 18.9469C105.167 17.6428 104.262 16.9932 103.159 16.9932C102.057 16.9932 101.088 17.6674 101.088 18.9764C101.088 20.2855 102.057 20.9597 103.13 20.9597M103.174 16.0384C104.158 16.0384 104.833 15.4331 104.833 14.3849C104.833 13.4351 104.095 12.7757 103.135 12.7757C102.175 12.7757 101.427 13.3957 101.427 14.4144C101.427 15.4331 102.229 16.0384 103.174 16.0384ZM110.177 21.9292C108.661 21.9292 106.983 20.9646 106.983 19.0109C106.983 17.692 107.746 16.8357 108.73 16.4617C107.849 16.1024 107.333 15.3593 107.333 14.3947C107.333 12.8003 108.755 11.8357 110.177 11.8357C111.599 11.8357 113.012 12.8249 113.012 14.3701C113.012 15.3593 112.441 16.0483 111.59 16.4469C112.662 16.8603 113.361 17.7117 113.361 18.9814C113.361 20.9499 111.742 21.9292 110.177 21.9292ZM110.177 20.9548C111.314 20.9548 112.21 20.251 112.21 18.9469C112.21 17.6428 111.304 16.9932 110.202 16.9932C109.099 16.9932 108.13 17.6674 108.13 18.9764C108.13 20.2855 109.099 20.9597 110.172 20.9597M110.217 16.0384C111.201 16.0384 111.87 15.4331 111.87 14.3849C111.87 13.4351 111.132 12.7757 110.177 12.7757C109.222 12.7757 108.47 13.3957 108.47 14.4144C108.47 15.4331 109.272 16.0384 110.217 16.0384ZM117.062 21.9292C115.069 21.9292 114.109 20.7579 113.981 19.1487H115.054C115.236 20.2215 115.635 20.9646 117.047 20.9646C118.302 20.9646 119.08 20.069 119.08 18.5827C119.08 17.19 118.317 16.2845 117.141 16.2845C116.068 16.2845 115.448 16.6438 114.956 17.2343H114.542V11.9636H119.744V12.9971H115.472V15.9991C115.846 15.6251 116.481 15.3249 117.362 15.3249C119.016 15.3249 120.236 16.5798 120.236 18.5877C120.236 20.5955 118.824 21.9341 117.067 21.9341L117.062 21.9292Z" fill="black"/>
<path d="M95.0591 9.95571H120.246V9.73425H95.0591" fill="black"/>
<path d="M95.0591 24.178H120.246V23.9517H95.0591" fill="black"/>
<path d="M186.718 21.8062V21.5306L190.394 17.4164C191.235 16.4666 191.727 15.5709 191.727 14.567C191.727 13.4646 191.117 12.8052 190.069 12.8052C189.021 12.8052 188.297 13.4548 188.115 14.9951H187.067C187.21 13.066 188.307 11.8406 190.069 11.8406C191.831 11.8406 192.864 12.9134 192.864 14.6064C192.864 15.817 192.141 17.003 190.999 18.1841L188.45 20.8268H192.913V21.8062H186.713H186.718ZM197.244 20.94C198.863 20.94 199.69 19.6211 199.69 17.126V16.5749C199.69 14.2914 198.785 12.8003 197.22 12.8003C195.655 12.8003 194.724 14.1782 194.724 16.5995V17.1507C194.724 19.6408 195.709 20.9351 197.249 20.9351M197.244 21.9292C195.035 21.9292 193.568 20.0296 193.568 17.1654V16.6142C193.568 13.7107 194.956 11.8357 197.22 11.8357C199.483 11.8357 200.832 13.7747 200.832 16.5847V17.1359C200.832 20.0001 199.523 21.9243 197.244 21.9243V21.9292ZM201.073 21.8062V21.5306L204.749 17.4164C205.591 16.4666 206.083 15.5709 206.083 14.567C206.083 13.4646 205.472 12.8052 204.424 12.8052C203.376 12.8052 202.653 13.4548 202.471 14.9951H201.422C201.565 13.066 202.662 11.8406 204.424 11.8406C206.186 11.8406 207.22 12.9134 207.22 14.6064C207.22 15.817 206.496 17.003 205.359 18.1841L202.81 20.8268H207.274V21.8062H201.078H201.073ZM210.851 21.9292C208.858 21.9292 207.899 20.7579 207.771 19.1487H208.844C209.026 20.2215 209.424 20.9646 210.837 20.9646C212.092 20.9646 212.869 20.069 212.869 18.5827C212.869 17.19 212.106 16.2845 210.925 16.2845C209.852 16.2845 209.232 16.6438 208.74 17.2343H208.327V11.9636H213.529V12.9971H209.262V15.9991C209.636 15.6251 210.271 15.3249 211.152 15.3249C212.805 15.3249 214.026 16.5798 214.026 18.5877C214.026 20.5955 212.613 21.9341 210.856 21.9341L210.851 21.9292Z" fill="black"/>
<path d="M186.895 9.95571H213.46V9.73425H186.895" fill="black"/>
<path d="M186.895 24.178H213.46V23.9517H186.895" fill="black"/>
<path d="M86.1368 0.403564H85.6841V29.6162H86.1368V0.403564Z" fill="black"/>
<path d="M76.7618 9.66041C76.7618 14.7687 72.6181 18.9124 67.5098 18.9124H61.25V29.7047H54.0551V0.408447H67.5098C72.6181 0.408447 76.7618 4.54723 76.7618 9.66041ZM66.3435 6.44683H61.25V12.4852H66.3435C67.938 12.4852 69.2323 11.063 69.2323 9.46849C69.2323 7.874 67.938 6.44683 66.3435 6.44683ZM42.4902 0.408447V12.2293H32.4705V0.408447H25.2756V29.6998H32.4705V18.9075H42.4902V29.6998H49.685V0.408447H42.4902ZM22.4409 21.7372C22.4409 26.5748 18.1299 29.7047 13.4498 29.7047H0V0.408447H13.0069C17.7805 0.408447 21.7421 3.91731 21.7421 8.24309C21.7421 11.6683 20.1378 13.5088 17.9232 14.8917C20.4872 15.9941 22.4409 17.6476 22.4409 21.7323M12.0128 17.8838H7.19488V23.5384H12.0128C13.873 23.5384 14.9016 22.2736 14.9016 20.7136C14.9016 19.1535 13.6073 17.8888 12.0128 17.8888M11.3091 6.44683H7.18996V12.4852H11.3091C13.2185 12.4852 14.1978 11.063 14.1978 9.46849C14.1978 7.874 13.2136 6.44683 11.3091 6.44683Z" fill="#DD5900"/>
</g>
<defs>
<clipPath id="clip0_3805_7479">
<rect width="214.026" height="30" fill="white"/>
</clipPath>
</defs>
</svg>
