<svg width="728" height="90" viewBox="0 0 728 90" fill="none" xmlns="http://www.w3.org/2000/svg">
<g clip-path="url(#clip0_6875_5968)">
<ellipse cx="342.409" cy="46.8604" rx="47.5887" ry="56.6945" transform="rotate(-6.67 342.409 46.8604)" fill="url(#paint0_radial_6875_5968)" fill-opacity="0.75"/>
<ellipse cx="464.446" cy="47.0672" rx="47.5887" ry="56.6945" transform="rotate(6.67 464.446 47.0672)" fill="url(#paint1_radial_6875_5968)" fill-opacity="0.75"/>
<path d="M392.82 41.64H395.34L397.716 48.408L400.074 41.64H402.504L399.102 51H396.222L392.82 41.64ZM402.393 48.282H404.787C404.931 49.056 405.435 49.524 406.533 49.524C407.541 49.524 408.135 49.128 408.135 48.408C408.135 47.814 407.865 47.454 406.911 47.346L405.273 47.148C403.383 46.914 402.591 45.96 402.591 44.502C402.591 42.684 404.121 41.406 406.461 41.406C408.927 41.406 410.169 42.828 410.277 44.25H407.955C407.847 43.548 407.361 43.116 406.425 43.116C405.489 43.116 404.895 43.548 404.895 44.196C404.895 44.754 405.237 45.096 406.281 45.222L407.901 45.42C409.719 45.636 410.457 46.518 410.457 48.048C410.457 50.028 408.747 51.234 406.515 51.234C403.959 51.234 402.573 49.974 402.393 48.282Z" fill="white"/>
</g>
<defs>
<radialGradient id="paint0_radial_6875_5968" cx="0" cy="0" r="1" gradientUnits="userSpaceOnUse" gradientTransform="translate(342.409 46.8604) rotate(90) scale(56.6945 47.5887)">
<stop offset="0.365385" stop-color="#F55662" stop-opacity="0.4"/>
<stop offset="0.629808" stop-color="#F42736"/>
<stop offset="1" stop-color="#BA1723" stop-opacity="0"/>
</radialGradient>
<radialGradient id="paint1_radial_6875_5968" cx="0" cy="0" r="1" gradientUnits="userSpaceOnUse" gradientTransform="translate(464.446 47.0672) rotate(90) scale(56.6945 47.5887)">
<stop offset="0.365385" stop-color="#F55662" stop-opacity="0.4"/>
<stop offset="0.629808" stop-color="#F42736"/>
<stop offset="1" stop-color="#BA1723" stop-opacity="0"/>
</radialGradient>
<clipPath id="clip0_6875_5968">
<rect width="728" height="90" fill="white"/>
</clipPath>
</defs>
</svg>
