<svg width="403" height="403" viewBox="0 0 403 403" fill="none" xmlns="http://www.w3.org/2000/svg">
<path d="M401.164 201.269C401.115 311.722 311.516 401.224 201.059 401.164C90.6052 401.111 1.10725 311.52 1.16372 201.059C1.2202 90.6052 90.811 1.11128 201.273 1.16372C311.73 1.22423 401.224 90.815 401.164 201.269Z" fill="white" stroke="#A39161" stroke-width="2.3274"/>
<path d="M361.808 201.236C361.808 290.04 289.816 362.031 201.012 362.031C112.208 362.031 40.2169 290.04 40.2169 201.236C40.2169 112.431 112.204 40.4402 201.012 40.4402C289.821 40.4402 361.808 112.431 361.808 201.236Z" fill="#A39161"/>
<path d="M64.3471 231.364H327.246" stroke="white" stroke-width="2.0858"/>
<path d="M107.819 270.07L106.56 273.987H110.755V280.421H96.859V273.568H99.3318L108.892 245.868H118.545L128.149 273.568H130.715V280.421H114.58V273.987H118.964L117.706 270.07H107.819ZM116.028 264.802L115.096 261.817C114.398 259.534 113.232 255.847 112.813 254.218C112.486 255.851 111.179 259.675 110.481 261.817L109.501 264.802H116.028Z" fill="#000104"/>
<path d="M136.366 280.562L130.396 253.144H127.924V246.101H143.172V252.725H139.626L140.933 260.465C141.538 263.914 142.191 267.319 142.47 270.118C142.841 267.412 143.635 263.914 144.426 260.514L146.572 251.329H154.264L156.455 260.514C157.249 263.918 158.04 267.65 158.367 270.118C158.694 267.694 159.299 263.914 159.904 260.514L161.255 252.725H157.665V246.101H170.767V253.144H168.294L162.558 280.562H153.091L150.852 270.022C150.198 267.037 149.545 263.446 149.359 261.91C149.174 263.402 148.52 266.992 147.867 269.977L145.535 280.562H136.35H136.366Z" fill="#000104"/>
<path d="M178.943 270.07L177.685 273.987H181.88V280.421H167.983V273.567H170.456L180.016 245.867H189.669L199.273 273.567H201.839V280.421H185.704V273.987H190.088L188.83 270.07H178.943ZM187.148 264.802L186.216 261.817C185.518 259.534 184.352 255.847 183.933 254.217C183.606 255.851 182.299 259.675 181.601 261.817L180.621 264.802H187.148Z" fill="#000104"/>
<path d="M204.389 280.424V273.571H206.999V253.148H204.389V246.105H222.251C229.479 246.105 233.441 247.456 233.441 256.738C233.441 261.586 232.323 265.084 228.217 266.435L232.831 273.571H235.441V280.424H223.086V274.503L218.794 267.649H215.902V273.99H219.258V280.424H204.381H204.389ZM215.91 262.002H221.597C223.461 262.002 224.534 260.929 224.534 257.105C224.534 253.281 223.368 252.676 221.505 252.676H215.91V262.002Z" fill="#000104"/>
<path d="M238.017 280.469V273.616H240.627V253.144H238.017V246.101H253.406C264.692 246.101 268.141 248.062 268.141 263.217C268.141 278.372 264.551 280.425 253.406 280.425C244.08 280.425 238.811 280.473 238.017 280.473V280.469ZM249.674 274.128H253.543C258.113 274.128 258.904 271.845 258.904 264.661V261.861C258.904 254.681 258.113 252.628 253.543 252.628H249.674V274.124V274.128Z" fill="#000104"/>
<path d="M284.55 280.888C278.067 280.888 272.844 280.19 271.4 279.908V268.811H279.794V274.547C280.681 274.781 283.106 274.874 284.643 274.874C289.306 274.874 290.003 274.176 290.003 271.05C290.003 268.25 288.979 267.924 283.707 266.947C273.542 265.084 271.254 263.821 271.254 255.29C271.254 247.734 274.986 245.637 284.683 245.637C289.439 245.637 296.107 246.29 297.785 246.803V256.827H289.439V252.071C288.785 251.93 286.034 251.837 284.59 251.837C281.327 251.837 280.302 252.305 280.302 255.1C280.302 257.71 281.282 258.271 286.272 259.158C296.671 260.977 299.188 262.329 299.188 270.582C299.188 278.835 296.252 280.888 284.546 280.888H284.55Z" fill="#000104"/>
<path d="M143.477 134.876H137.762L132.046 187.521H137.762L137.084 193.81H110.989L111.667 187.521H117.008L120.691 154.214L105.725 185.137H94.5192L86.3185 154.214L82.4057 187.521H87.7465L87.0688 193.81H65.1128L65.7905 187.521H71.5064L77.2223 134.876H71.5064L72.1841 128.587H92.8613L103.991 167.953L123.163 128.587H144.147L143.469 134.876H143.477Z" fill="#000104"/>
<path d="M161.693 195.117C146.949 195.117 139.729 186.215 139.729 173.322C139.729 156.978 146.195 143.706 166.202 143.706C180.865 143.706 188.158 151.915 188.158 165.497C188.158 180.999 181.39 195.121 161.693 195.121V195.117ZM166.045 147.696C160.333 147.696 155.291 154.525 155.291 180.232C155.291 187.449 157.627 191.128 161.834 191.128C167.247 191.128 172.588 187.675 172.588 158.518C172.588 149.463 170.031 147.696 166.041 147.696H166.045Z" fill="#000104"/>
<path d="M242.144 193.81H219.212L223.048 159.204C223.496 155.214 222.746 153.678 220.414 153.678C215.372 153.678 210.031 162.503 209.208 170.482L206.724 193.81H191.23L195.82 151.302H189.802L190.48 145.005H211.834L210.709 155.674C212.819 152.145 218.232 143.702 228.684 143.702C236.13 143.702 239.587 149.224 238.76 156.59L235.303 187.517H242.826L242.144 193.806V193.81Z" fill="#000104"/>
<path d="M258.99 172.249C258.607 178.614 260.192 188.207 271.995 188.207C277.336 188.207 281.918 187.594 286.807 185.065L286.585 191.583C281.172 193.806 273.576 195.113 266.807 195.113C254.02 195.113 243.569 189.667 243.569 172.632C243.569 154.75 252.068 143.702 269.216 143.702C286.363 143.702 288.763 156.437 288.09 166.719L258.986 172.245L258.99 172.249ZM269.062 147.695C264.928 147.695 260.64 151.152 259.288 166.344L274.403 163.58C275.379 154.831 275.533 147.695 269.062 147.695Z" fill="#000104"/>
<path d="M324.706 180.156C318.764 189.825 309.374 209.542 305.832 220.902H292.904L308.313 195.807L292.069 151.306H287.026L287.708 145.01H306.885L318.615 179.466C326.134 168.418 328.692 160.132 328.692 155.143C328.692 151.226 328.147 149.31 324.008 145.09L332.205 134.655C338.09 139.641 341.168 142.557 341.168 148.781C341.168 155.005 328.615 173.868 324.702 180.164L324.706 180.156Z" fill="#000104"/>
<path d="M142.18 134.473H136.464L130.748 187.118H136.464L135.787 193.411H109.692L110.37 187.118H115.71L119.397 153.815L104.428 184.738H93.2219L85.0293 153.815L81.1165 187.118H86.4532L85.7795 193.411H63.8195L64.4932 187.118H70.2131L75.925 134.473H70.2131L70.8867 128.184H91.564L102.697 167.546L121.874 128.184H142.854L142.18 134.473Z" fill="white"/>
<path d="M160.371 194.714C145.631 194.714 138.407 185.811 138.407 172.919C138.407 156.574 144.877 143.299 164.881 143.299C179.548 143.299 186.841 151.512 186.841 165.093C186.841 180.591 180.068 194.714 160.371 194.714ZM164.731 147.292C159.016 147.292 153.981 154.126 153.981 179.829C153.981 187.041 156.309 190.728 160.524 190.728C165.938 190.728 171.278 187.271 171.278 158.111C171.278 149.059 168.721 147.292 164.731 147.292Z" fill="white"/>
<path d="M240.844 193.411H217.907L221.744 158.805C222.199 154.812 221.441 153.275 219.114 153.275C214.075 153.275 208.73 162.101 207.904 170.08L205.423 193.407H189.929L194.519 150.895H188.505L189.183 144.602H210.534L209.412 155.268C211.514 151.742 216.931 143.295 227.383 143.295C234.829 143.295 238.29 148.818 237.463 156.187L234.002 187.114H241.521L240.848 193.407L240.844 193.411Z" fill="white"/>
<path d="M257.696 171.843C257.316 178.216 258.898 187.804 270.709 187.804C276.041 187.804 280.632 187.191 285.517 184.658L285.295 191.181C279.881 193.407 272.282 194.71 265.517 194.71C252.73 194.71 242.282 189.26 242.282 172.226C242.282 154.348 250.77 143.295 267.921 143.295C285.073 143.295 287.477 156.034 286.795 166.316L257.692 171.838L257.696 171.843ZM267.772 147.293C263.633 147.293 259.353 150.746 257.994 165.941L273.113 163.178C274.081 154.429 274.242 147.293 267.772 147.293Z" fill="white"/>
<path d="M323.458 179.535C317.516 189.204 308.113 208.925 304.58 220.284H291.652L307.065 195.19L290.817 150.689H285.786L286.46 144.392H305.637L317.371 178.849C324.894 167.796 327.443 159.511 327.443 154.525C327.443 150.612 326.891 148.692 322.76 144.469L330.961 134.033C336.846 139.027 339.924 141.94 339.924 148.156C339.924 154.372 327.363 173.254 323.458 179.543V179.535Z" fill="white"/>
<path d="M107.304 269.489L106.045 273.406H110.241V279.84H96.3441V272.986H98.8169L108.377 245.286H118.03L127.634 272.986H130.2V279.84H114.065V273.406H118.449L117.191 269.489H107.304ZM115.509 264.221L114.577 261.236C113.879 258.953 112.713 255.266 112.294 253.636C111.967 255.27 110.66 259.094 109.962 261.236L108.982 264.221H115.509Z" fill="white"/>
<path d="M135.831 279.98L129.861 252.563H127.389V245.52H142.636V252.143H139.091L140.398 259.884C141.003 263.333 141.656 266.737 141.935 269.537C142.306 266.83 143.1 263.333 143.891 259.932L146.037 250.747H153.729L155.92 259.932C156.714 263.337 157.505 267.068 157.832 269.537C158.158 267.113 158.764 263.333 159.369 259.932L160.72 252.143H157.13V245.52H170.232V252.563H167.759L162.023 279.98H152.556L150.317 269.44C149.663 266.455 149.01 262.865 148.824 261.328C148.639 262.821 147.985 266.411 147.332 269.396L145 279.98H135.815H135.831Z" fill="white"/>
<path d="M178.415 269.489L177.156 273.406H181.351V279.84H167.455V272.986H169.928L179.488 245.286H189.141L198.745 272.986H201.311V279.84H185.176V273.406H189.56L188.302 269.489H178.415ZM186.62 264.221L185.688 261.236C184.99 258.953 183.824 255.266 183.405 253.636C183.078 255.27 181.771 259.094 181.073 261.236L180.093 264.221H186.62Z" fill="white"/>
<path d="M203.872 279.839V272.986H206.481V252.563H203.872V245.52H221.733C228.962 245.52 232.923 246.871 232.923 256.153C232.923 261.001 231.806 264.499 227.699 265.85L232.314 272.986H234.924V279.839H222.568V273.918L218.276 267.064H215.384V273.405H218.74V279.839H203.863H203.872ZM215.392 261.421H221.08C222.943 261.421 224.016 260.348 224.016 256.524C224.016 252.7 222.851 252.095 220.987 252.095H215.392V261.421Z" fill="white"/>
<path d="M237.485 279.888V273.034H240.095V252.563H237.485V245.52H252.874C264.161 245.52 267.61 247.48 267.61 262.635C267.61 277.79 264.02 279.843 252.874 279.843C243.548 279.843 238.28 279.892 237.485 279.892V279.888ZM249.143 273.547H253.011C257.582 273.547 258.372 271.263 258.372 264.079V261.28C258.372 254.1 257.582 252.046 253.011 252.046H249.143V273.542V273.547Z" fill="white"/>
<path d="M284.025 280.307C277.543 280.307 272.319 279.609 270.875 279.327V268.23H279.269V273.966C280.157 274.2 282.581 274.293 284.118 274.293C288.781 274.293 289.479 273.595 289.479 270.469C289.479 267.669 288.454 267.343 283.182 266.366C273.017 264.503 270.73 263.24 270.73 254.709C270.73 247.153 274.461 245.056 284.158 245.056C288.914 245.056 295.582 245.709 297.26 246.222V256.246H288.914V251.49C288.261 251.349 285.51 251.256 284.066 251.256C280.802 251.256 279.778 251.724 279.778 254.519C279.778 257.129 280.758 257.69 285.748 258.577C296.147 260.396 298.664 261.748 298.664 270.001C298.664 278.254 295.727 280.307 284.021 280.307H284.025Z" fill="white"/>
<path d="M114.636 220.76V217.924H116.636V213.64C116.636 212.071 116.693 207.832 116.709 206.827C116.427 207.735 114.716 212.071 114.115 213.616L112.594 217.666H109.093L107.544 213.616C106.971 212.136 105.237 207.731 104.971 206.827C104.995 207.852 105.039 212.14 105.039 213.64V217.924H107.044V220.76H100.09V217.924H101.925V206.206H100.09V203.322H107.234L109.492 208.897C109.924 209.921 111.07 212.733 111.211 213.467C111.409 212.729 112.494 209.994 112.929 208.917L115.12 203.318H122.122V206.202H120.287V217.92H122.122V220.756H114.64L114.636 220.76Z" fill="#000104"/>
<path d="M140.497 220.76V218.07H143.28L142.231 215.424H135.543L134.494 218.07H137.137V220.76H129.396V217.925H131.138L137.064 203.205H141.279L147.237 217.925H149.044V220.76H140.497ZM140.614 211.136C140.327 210.422 139.089 207.086 138.895 206.586C138.73 207.11 137.443 210.442 137.201 211.087L136.423 213.136H141.372L140.61 211.136H140.614Z" fill="#000104"/>
<path d="M170.338 214.758V220.212C169.531 220.45 166.909 220.994 163.553 220.994C158.333 220.994 155.357 219.187 155.357 212.035C155.357 204.883 158.454 203.056 163.598 203.056C166.744 203.056 169.547 203.58 170.411 203.867V209.155H166.909V206.271C166.365 206.174 164.788 205.984 163.553 205.984C160.314 205.984 159.241 207.63 159.241 211.345V212.628C159.241 216.299 160.193 218.158 163.719 218.158C165.296 218.158 166.55 217.989 167.055 217.872V214.754H164.602V212.084H171.867V214.754H170.342L170.338 214.758Z" fill="#000104"/>
<path d="M189.372 220.76V218.07H192.159L191.11 215.424H184.414L183.373 218.07H186.015V220.76H178.275V217.925H180.009L185.943 203.205H190.158L196.116 217.925H197.923V220.76H189.372ZM189.497 211.136C189.21 210.422 187.972 207.086 187.778 206.586C187.609 207.11 186.326 210.442 186.084 211.087L185.297 213.136H190.255L189.497 211.136Z" fill="#000104"/>
<path d="M205.232 220.761V217.784L210.851 211.451C212.856 209.188 215.97 205.973 216.163 205.827H208.967V209.163H205.442V203.322H220.113V206.372L215.062 211.947C213.158 214.04 209.681 217.973 209.245 218.304H216.748V214.516H220.274V220.761H205.224H205.232Z" fill="#000104"/>
<path d="M233.601 206.202V217.92H235.747V220.756H227.768V217.92H229.914V206.202H227.768V203.318H235.747V206.202H233.601Z" fill="#000104"/>
<path d="M260.103 206.203V220.757H256.549L248.171 207.679C248.244 208.3 248.264 213.371 248.264 214.278V217.921H250.41V220.757H243.218V217.921H245.049V206.203H243.218V203.318H249.458L257.013 215.065C256.912 214.419 256.892 210.442 256.892 209.248V206.198H254.843V203.314H261.87V206.198H260.107L260.103 206.203Z" fill="#000104"/>
<path d="M269.356 220.761V217.925H271.188V206.207H269.356V203.322H284.814V209.163H281.312V206.065H274.883V210.499H279.788V213.141H274.883V218.074H281.312V214.52H284.814V220.765H269.356V220.761Z" fill="#000104"/>
<path d="M114.306 220.284V217.448H116.307V213.164C116.307 211.595 116.356 207.355 116.38 206.351C116.093 207.259 114.379 211.595 113.786 213.14L112.261 217.19H108.764L107.211 213.14C106.642 211.659 104.904 207.255 104.642 206.351C104.666 207.376 104.71 211.663 104.71 213.164V217.448H106.715V220.284H99.7566V217.448H101.592V205.73H99.7566V202.846H106.9L109.163 208.42C109.591 209.445 110.733 212.256 110.882 212.991C111.071 212.252 112.165 209.517 112.6 208.44L114.787 202.842H121.789V205.726H119.954V217.444H121.789V220.28H114.311L114.306 220.284Z" fill="white"/>
<path d="M140.182 220.283V217.593H142.969L141.92 214.947H135.224L134.175 217.593H136.822V220.283H129.077V217.448H130.819L136.749 202.728H140.964L146.914 217.448H148.725V220.283H140.174H140.182ZM140.299 210.663C140.016 209.949 138.774 206.613 138.588 206.113C138.419 206.637 137.136 209.969 136.894 210.614L136.112 212.664H141.061L140.303 210.663H140.299Z" fill="white"/>
<path d="M170.023 214.281V219.735C169.216 219.973 166.598 220.518 163.238 220.518C158.022 220.518 155.041 218.711 155.041 211.559C155.041 204.407 158.143 202.579 163.282 202.579C166.428 202.579 169.24 203.104 170.095 203.39V208.678H166.598V205.794C166.045 205.697 164.476 205.508 163.238 205.508C159.999 205.508 158.93 207.154 158.93 210.869V212.152C158.93 215.822 159.878 217.682 163.407 217.682C164.976 217.682 166.239 217.512 166.739 217.396V214.277H164.287V211.607H171.555V214.277H170.027L170.023 214.281Z" fill="white"/>
<path d="M189.053 220.283V217.593H191.837L190.796 214.947H184.1L183.051 217.593H185.693V220.283H177.952V217.448H179.691L185.62 202.728H189.836L195.794 217.448H197.601V220.283H189.053ZM189.17 210.663C188.884 209.949 187.645 206.613 187.452 206.113C187.286 206.637 186 209.969 185.762 210.614L184.975 212.664H189.929L189.17 210.663Z" fill="white"/>
<path d="M204.923 220.284V217.307L210.546 210.974C212.547 208.711 215.665 205.496 215.855 205.351H208.658V208.687H205.133V202.846H219.804V205.895L214.753 211.47C212.849 213.563 209.372 217.496 208.945 217.827H216.448V214.039H219.973V220.284H204.919H204.923Z" fill="white"/>
<path d="M233.286 205.73V217.448H235.428V220.284H227.449V217.448H229.595V205.73H227.449V202.846H235.428V205.73H233.286Z" fill="white"/>
<path d="M259.791 205.73V220.284H256.249L247.863 207.206C247.935 207.827 247.964 212.898 247.964 213.805V217.448H250.106V220.284H242.909V217.448H244.745V205.73H242.909V202.846H249.154L256.705 214.592C256.608 213.947 256.58 209.969 256.58 208.775V205.726H254.535V202.842H261.562V205.726H259.795L259.791 205.73Z" fill="white"/>
<path d="M269.037 220.284V217.448H270.869V205.73H269.037V202.846H284.499V208.687H280.994V205.589H274.564V210.022H279.469V212.664H274.564V217.597H280.994V214.043H284.499V220.288H269.037V220.284Z" fill="white"/>
<path d="M145.18 323.065V314.344L155.764 305.716C161.125 301.331 161.872 301.053 161.872 297.882C161.872 295.365 161.174 294.945 157.58 294.945C156.365 294.945 154.687 294.994 154.034 295.131V298.907H145.825V289.254C147.878 288.786 153.566 288.181 157.434 288.181C168.205 288.181 170.492 289.907 170.492 297.6C170.492 302.961 168.906 304.175 160.561 310.984L153.239 316.954H162.614V312.617H170.774V323.061H145.176L145.18 323.065Z" fill="#231F20"/>
<path d="M187.741 323.625C177.249 323.625 174.03 320.221 174.03 305.905C174.03 291.589 177.342 288.184 187.834 288.184C198.326 288.184 201.589 291.496 201.589 305.812C201.589 320.128 198.277 323.625 187.741 323.625ZM187.834 316.953C191.658 316.953 192.545 315.509 192.545 308.607V303.247C192.545 296.3 191.565 295.038 187.741 295.038C183.917 295.038 183.03 296.204 183.03 303.15V308.511C183.03 315.413 184.054 316.949 187.834 316.949V316.953Z" fill="#231F20"/>
<path d="M204.396 323.065V314.344L214.981 305.716C220.342 301.331 221.088 301.053 221.088 297.882C221.088 295.365 220.39 294.945 216.796 294.945C215.582 294.945 213.904 294.994 213.25 295.131V298.907H205.041V289.254C207.095 288.786 212.782 288.181 216.651 288.181C227.421 288.181 229.708 289.907 229.708 297.6C229.708 302.961 228.123 304.175 219.777 310.984L212.455 316.954H221.83V312.617H229.99V323.061H204.392L204.396 323.065Z" fill="#231F20"/>
<path d="M246.455 323.577C234.846 323.577 233.261 320.08 233.261 306.042V305.716C233.261 298.536 233.773 295.038 236.617 292.566C239.089 290.468 246.221 289.161 255.967 287.902L257.181 294.99C248.416 296.204 244.031 296.902 242.772 297.975C241.84 298.77 241.792 299.887 241.792 302.17V302.356C243.143 301.984 247.201 301.468 249.767 301.468C257.976 301.468 259.791 302.775 259.791 312.38C259.791 320.354 257.225 323.569 246.455 323.569V323.577ZM246.548 317.329C250.094 317.329 251.397 316.534 251.397 312.852C251.397 308.608 251.025 307.676 247.758 307.676C245.471 307.676 243.281 307.91 241.788 308.188V311.218C241.788 316.252 242.72 317.325 246.544 317.325L246.548 317.329Z" fill="#231F20"/>
<path d="M144.744 322.634V313.913L155.328 305.284C160.689 300.899 161.436 300.621 161.436 297.451C161.436 294.933 160.738 294.514 157.144 294.514C155.929 294.514 154.251 294.562 153.598 294.7V298.475H145.389V288.822C147.442 288.354 153.13 287.749 156.998 287.749C167.769 287.749 170.056 289.476 170.056 297.168C170.056 302.529 168.471 303.743 160.125 310.552L152.803 316.522H162.178V312.186H170.338V322.63H144.74L144.744 322.634Z" fill="white"/>
<path d="M187.309 323.194C176.817 323.194 173.598 319.79 173.598 305.474C173.598 291.158 176.909 287.753 187.401 287.753C197.893 287.753 201.157 291.065 201.157 305.381C201.157 319.697 197.845 323.194 187.309 323.194ZM187.401 316.522C191.225 316.522 192.113 315.078 192.113 308.176V302.816C192.113 295.869 191.133 294.607 187.309 294.607C183.485 294.607 182.597 295.773 182.597 302.719V308.08C182.597 314.981 183.622 316.518 187.401 316.518V316.522Z" fill="white"/>
<path d="M203.964 322.634V313.913L214.548 305.284C219.909 300.899 220.655 300.621 220.655 297.451C220.655 294.933 219.958 294.514 216.364 294.514C215.149 294.514 213.471 294.562 212.818 294.7V298.475H204.609V288.822C206.662 288.354 212.35 287.749 216.218 287.749C226.989 287.749 229.276 289.476 229.276 297.168C229.276 302.529 227.69 303.743 219.344 310.552L212.023 316.522H221.398V312.186H229.558V322.63H203.96L203.964 322.634Z" fill="white"/>
<path d="M246.03 323.146C234.421 323.146 232.835 319.648 232.835 305.611V305.284C232.835 298.104 233.348 294.607 236.192 292.134C238.664 290.036 245.796 288.729 255.542 287.471L256.756 294.558C247.99 295.772 243.606 296.47 242.347 297.543C241.415 298.338 241.367 299.455 241.367 301.738V301.924C242.718 301.553 246.776 301.037 249.342 301.037C257.55 301.037 259.366 302.343 259.366 311.948C259.366 319.923 256.8 323.138 246.03 323.138V323.146ZM246.123 316.897C249.668 316.897 250.971 316.103 250.971 312.42C250.971 308.176 250.6 307.245 247.333 307.245C245.046 307.245 242.855 307.479 241.363 307.757V310.786C241.363 315.82 242.295 316.893 246.119 316.893L246.123 316.897Z" fill="white"/>
<path d="M64.5516 83.238C63.2769 82.0561 62.6073 80.5999 62.5387 78.8613C62.4701 77.1227 63.0268 75.6181 64.2087 74.3435C65.3866 73.0688 66.8468 72.3992 68.5894 72.3306C70.328 72.262 71.8366 72.8187 73.1113 74.0006C74.386 75.1825 75.0556 76.6427 75.1202 78.3813C75.1847 80.1199 74.628 81.6285 73.4461 82.9032C72.2683 84.1779 70.808 84.8475 69.0694 84.912C67.3309 84.9766 65.8263 84.4199 64.5516 83.238Z" fill="#A39161"/>
<path d="M87.1238 77.7244L84.1831 74.1908L85.3126 73.2509L75.93 61.9684L74.8005 62.9082L71.7792 59.2738L79.8508 52.5615C83.8362 49.2457 85.724 49.629 88.58 53.0658C90.7461 55.6716 91.3512 57.4182 89.3424 59.6409C92.045 57.9467 93.5859 58.0636 96.2966 61.3229C99.1929 64.8082 99.6608 67.3051 95.6714 70.6209L87.1197 77.7284L87.1238 77.7244ZM83.7918 62.3435L85.8208 60.6533C86.5469 60.0483 86.4945 59.1165 85.119 57.4626C83.7636 55.8329 82.9447 55.6635 82.1945 56.2888L80.1655 57.9789L83.7918 62.3395V62.3435ZM90.0039 69.8141L92.3112 67.898C93.0373 67.293 93.0575 66.345 91.5771 64.5661C90.0967 62.7872 89.0317 62.525 88.3299 63.1099L86.0225 65.026L90.0039 69.8141Z" fill="#A39161"/>
<path d="M101.182 66.0785L98.6408 62.2464L99.863 61.4356L91.747 49.2091L90.5248 50.0199L87.9109 46.0789L102.174 36.6116L107.168 44.1386L102.711 47.0954L100.133 43.2109L96.4666 45.6473L99.4234 50.1046L101.735 48.5718L104.187 52.2668L101.876 53.7996L104.978 58.4748L108.645 56.0384L105.74 51.6657L110.198 48.7089L115.446 56.6152L101.182 66.0825V66.0785Z" fill="#A39161"/>
<path d="M123.525 52.7149C120.315 54.3889 117.317 55.5507 116.434 55.829L112.707 48.6892L117.447 46.2164L119.451 50.0606C119.903 49.9356 121.045 49.3789 121.678 49.0441C123.703 47.9873 123.985 47.5476 122.868 45.4056C121.964 43.6711 121.202 43.6267 118.197 44.2036C112.267 45.3129 110.73 45.1192 108.302 40.4642C105.902 35.8697 106.741 33.6673 112.146 30.8436C114.837 29.4398 118.253 28.024 119.387 27.8021L122.719 34.1917L117.979 36.6644L116.365 33.5705C115.946 33.6794 114.8 34.2401 114.05 34.6314C112.808 35.2808 112.336 35.785 113.284 37.6043C114.127 39.2218 115.018 39.238 117.81 38.6652C123.723 37.455 125.51 37.8463 127.85 42.3278C130.415 47.241 129.766 49.4556 123.521 52.7149H123.525Z" fill="#A39161"/>
<path d="M135.347 46.6719L133.665 42.392L135.363 41.7264L129.748 27.4306L127.99 28.1204L129.801 32.7351L125.186 34.5463L121.899 26.168L140.111 19.0161L143.411 27.4226L138.796 29.2337L136.985 24.6191L135.226 25.3088L140.841 39.6046L142.479 38.9592L144.149 43.2068L135.347 46.6638V46.6719Z" fill="#A39161"/>
<path d="M161.975 38.3022C158.454 39.1372 155.263 39.5285 154.335 39.5809L152.476 31.7473L157.679 30.5129L158.68 34.7323C159.148 34.7202 160.39 34.462 161.088 34.2926C163.307 33.7642 163.694 33.4052 163.133 31.0575C162.681 29.1535 161.955 28.9236 158.898 28.7461C152.875 28.3669 151.435 27.8062 150.221 22.6954C149.023 17.6532 150.374 15.721 156.308 14.3132C159.257 13.6113 162.919 13.0788 164.073 13.1393L165.739 20.1501L160.535 21.3844L159.729 17.992C159.293 17.992 158.05 18.2582 157.224 18.4519C155.86 18.7746 155.279 19.1497 155.751 21.1464C156.171 22.9213 157.034 23.1553 159.878 23.2843C165.908 23.5627 167.542 24.3775 168.712 29.2947C169.991 34.6879 168.821 36.6766 161.971 38.3022H161.975Z" fill="#A39161"/>
<path d="M180.53 34.966C173.636 35.8131 171.922 34.4134 171.051 27.326L169.728 16.5517L168.368 16.7171L167.791 12.0258L176.851 10.9125L177.428 15.6038L175.585 15.8297L176.944 26.8984C177.327 30.0045 178.041 30.4764 180.014 30.2344C181.986 29.9924 182.511 29.4357 182.128 26.3297L180.76 15.1964L179.207 15.386L178.63 10.6946L187.077 9.65796L187.654 14.3493L186.294 14.5147L187.61 25.2244C188.469 32.215 187.42 34.1149 180.53 34.962V34.966Z" fill="#A39161"/>
<path d="M190.554 33.5424L190.482 28.9438L191.95 28.9196L191.724 14.2487L190.256 14.2729L190.183 9.54526L201.107 9.37584C205.802 9.30323 207.65 10.6102 207.755 17.4273C207.859 24.2404 205.992 25.7047 201.296 25.7773L197.743 25.8338L197.791 28.9963L200.203 28.96L200.272 33.3931L190.554 33.5424ZM197.674 21.4974L200.413 21.453C201.587 21.4369 202.063 20.6786 202.014 17.5806C201.966 14.4826 201.401 13.7727 200.228 13.7929L197.553 13.8332L197.67 21.4934L197.674 21.4974Z" fill="#A39161"/>
<path d="M208.455 33.3367L208.891 28.7583L210.351 28.8995L211.743 14.2931L210.282 14.1519L210.73 9.44446L227.773 11.0701L226.914 20.0614L221.589 19.5532L222.033 14.9103L217.652 14.4907L217.144 19.8154L219.903 20.0776L219.484 24.4905L216.724 24.2283L216.192 29.8111L220.573 30.2306L221.073 25.0028L226.397 25.5111L225.498 34.9583L208.455 33.3326V33.3367Z" fill="#A39161"/>
<path d="M226.382 35.0551L227.318 30.5534L228.754 30.8519L231.739 16.4875L230.303 16.189L231.263 11.5623L241.86 13.7647C246.454 14.7207 247.959 16.4633 246.777 22.147C246.168 25.0836 245.18 27.9072 242.098 28.1654L244.042 34.0305L245.321 34.2968L244.385 38.7985L236.979 37.2616L237.77 33.4618L236.011 27.6692L235.373 27.5361L234.377 32.3242L236.1 32.6832L235.224 36.8986L226.382 35.0592V35.0551ZM236.12 23.9218L238.738 24.4664C239.855 24.7004 240.504 24.1356 241.089 21.3241C241.674 18.5165 241.158 18.1091 240.041 17.8752L237.487 17.3427L236.12 23.9178V23.9218Z" fill="#A39161"/>
<path d="M249.567 40.3111L251.116 35.9828L252.495 36.479L257.441 22.6632L256.061 22.1671L257.654 17.7178L273.774 23.4861L270.728 31.9894L265.694 30.1863L267.267 25.7975L263.124 24.313L261.257 29.5328L264.02 30.5211L262.447 34.9098L259.683 33.9216L258.058 38.4636L260.115 39.2018L258.566 43.5301L249.571 40.3111H249.567Z" fill="#A39161"/>
<path d="M274.778 50.8187C268.546 47.757 267.872 45.6473 271.019 39.2376L275.803 29.4919L274.573 28.8869L276.658 24.6433L284.855 28.665L282.769 32.9086L281.099 32.0897L276.186 42.0976C274.807 44.9091 275.149 45.6917 276.932 46.567C278.719 47.4424 279.462 47.2649 280.841 44.4533L285.783 34.3849L284.379 33.6952L286.464 29.4516L294.104 33.203L292.019 37.4466L290.788 36.8415L286.033 46.5307C282.931 52.8517 281.011 53.8723 274.778 50.8106V50.8187Z" fill="#A39161"/>
<path d="M283.967 55.0132L286.468 51.1569L287.698 51.9556L295.677 39.6404L294.446 38.8417L297.016 34.8724L304.075 39.4468L302.195 49.0674C301.865 50.7172 301.461 52.4759 301.239 53.3029C301.602 52.6817 302.53 51.1892 303.381 49.8741L305.773 46.1792L304.188 45.1506L306.758 41.1813L313.135 45.3119L310.566 49.2812L309.416 48.5349L298.94 64.7064L294.455 61.7981L296.984 48.5954C297.323 46.756 297.75 44.8964 298.016 43.9404C297.512 44.7795 296.58 46.276 295.64 47.7241L291.369 54.3194L292.954 55.348L290.453 59.2084L283.967 55.0051V55.0132Z" fill="#A39161"/>
<path d="M300.49 65.8402L303.41 62.2864L304.543 63.2182L313.878 51.859L312.744 50.9272L315.745 47.2766L322.897 53.1539C328.742 57.9581 328.557 59.62 321.873 67.7562C315.189 75.8924 313.382 76.3926 307.666 71.6932C302.402 67.3649 300.921 66.1911 300.49 65.8402ZM308.872 67.2439L310.457 68.5469C312.071 69.8699 312.902 69.3738 316.524 64.9648L318.012 63.1496C321.635 58.7407 321.861 57.9541 320.247 56.631L318.662 55.3281L308.872 67.2439Z" fill="#A39161"/>
<path d="M328.134 73.2071C329.4 72.0171 330.905 71.4524 332.639 71.5048C334.378 71.5613 335.842 72.2188 337.028 73.4854C338.214 74.752 338.783 76.2566 338.726 77.9952C338.674 79.7338 338.012 81.2021 336.746 82.388C335.479 83.5739 333.975 84.1427 332.236 84.0862C330.493 84.0298 329.029 83.3682 327.843 82.1016C326.657 80.835 326.089 79.3344 326.145 77.5958C326.201 75.8573 326.863 74.393 328.13 73.2071H328.134Z" fill="#A39161"/>
<path d="M44.069 313.318L47.6954 310.458L48.5989 311.608L60.1759 302.487L59.2724 301.338L63.0036 298.397L69.4698 306.634C72.6606 310.7 72.2209 312.58 68.6953 315.355C66.0209 317.465 64.2541 318.025 62.092 315.96C63.7055 318.703 63.5401 320.244 60.1921 322.878C56.6181 325.698 54.1051 326.101 50.9103 322.035L44.0649 313.314L44.069 313.318ZM51.8905 316.384L53.738 318.735C54.3189 319.478 55.2668 319.518 57.0941 318.078C58.9214 316.638 59.2119 315.581 58.6512 314.863L56.8037 312.511L51.8905 316.384ZM59.5588 310.345L61.1844 312.418C61.7653 313.161 62.7011 313.128 64.3993 311.789C66.0734 310.47 66.263 309.655 65.6619 308.889L64.0363 306.816L59.5588 310.341V310.345Z" fill="#A39161"/>
<path d="M56.9548 329.457L60.2585 326.23L61.279 327.279L71.8274 316.981L70.8068 315.932L74.2073 312.612L86.1272 324.831L79.6328 331.168L75.9096 327.352L79.2617 324.08L76.196 320.938L72.3518 324.689L74.28 326.67L71.0933 329.78L69.1651 327.803L65.1313 331.74L68.197 334.883L71.9726 331.2L75.6958 335.016L68.8747 341.676L56.9548 329.457Z" fill="#A39161"/>
<path d="M77.2733 349.308C74.498 347.001 72.2794 344.685 71.6824 343.979L76.8618 337.767L80.9642 341.176L78.1728 344.52C78.4592 344.887 79.4152 345.722 79.9638 346.178C81.7145 347.634 82.2308 347.723 83.7838 345.859C85.0424 344.35 84.7923 343.632 83.1102 341.083C79.8186 336.045 79.4072 334.556 82.7835 330.506C86.1194 326.505 88.4752 326.42 93.1503 330.309C95.4738 332.241 98.0917 334.843 98.7331 335.799L94.0983 341.357L89.9999 337.949L92.2427 335.258C91.9805 334.911 91.0245 334.076 90.3751 333.536C89.298 332.64 88.6526 332.402 87.3336 333.988C86.1598 335.395 86.4865 336.222 88.0839 338.57C91.4642 343.552 91.7829 345.351 88.5357 349.252C84.9698 353.527 82.6745 353.794 77.2773 349.304L77.2733 349.308Z" fill="#A39161"/>
<path d="M89.9014 358.631L92.4709 354.794L93.9876 355.803L102.576 342.992L101.006 341.947L98.2352 346.081L94.1207 343.342L99.1509 335.836L115.391 346.654L110.341 354.189L106.226 351.45L108.997 347.316L107.428 346.271L98.8403 359.082L100.301 360.055L97.7471 363.862L89.8973 358.635L89.9014 358.631Z" fill="#A39161"/>
<path d="M117.358 375.044C111.13 372.079 110.352 369.643 114.942 360.119C119.517 350.623 121.985 349.696 128.213 352.66C134.47 355.641 135.144 357.989 130.569 367.485C125.979 377.008 123.615 378.021 117.354 375.044H117.358ZM119.319 371.123C121.316 372.075 121.884 371.946 124.47 366.581L125.805 363.81C128.403 358.413 128.177 357.691 126.18 356.739C124.212 355.803 123.486 355.964 120.884 361.357L119.549 364.129C116.963 369.494 117.35 370.187 119.319 371.123Z" fill="#A39161"/>
<path d="M128.109 379.542L129.666 375.202L131.049 375.686L136.015 361.829L134.631 361.345L136.233 356.88L152.356 362.552L149.298 371.083L144.26 369.312L145.837 364.907L141.69 363.447L139.815 368.683L142.578 369.655L141.001 374.06L138.238 373.088L136.604 377.646L138.661 378.368L137.104 382.708L128.105 379.542H128.109Z" fill="#A39161"/>
<path d="M157.516 388.553L158.44 384.039L160.231 384.394L163.321 369.316L161.465 368.949L160.469 373.813L155.612 372.853L157.423 364.015L176.604 367.811L174.785 376.681L169.924 375.721L170.92 370.853L169.065 370.485L165.975 385.564L167.701 385.907L166.782 390.388L157.512 388.553H157.516Z" fill="#A39161"/>
<path d="M174.776 391.784L175.167 387.198L176.631 387.311L177.878 372.668L176.414 372.555L176.817 367.835L185.631 368.521L185.227 373.241L183.763 373.128L183.352 377.944L188.067 378.311L188.479 373.495L187.014 373.382L187.418 368.662L196.228 369.348L195.824 374.068L194.36 373.955L193.114 388.597L194.578 388.71L194.187 393.297L185.377 392.611L185.768 388.025L187.232 388.137L187.692 382.736L182.977 382.369L182.517 387.77L183.981 387.883L183.59 392.47L174.78 391.784H174.776Z" fill="#A39161"/>
<path d="M197.305 393.305L197.188 388.706L198.656 388.658L198.281 373.983L196.812 374.031L196.691 369.303L213.819 368.739L214.049 377.774L208.7 377.952L208.579 373.289L204.174 373.434L204.311 378.783L207.083 378.69L207.195 383.127L204.424 383.22L204.569 388.831L208.974 388.686L208.841 383.434L214.19 383.256L214.432 392.748L197.305 393.313V393.305Z" fill="#A39161"/>
<path d="M223.687 391.832L222.941 387.298L224.389 387.048L222.009 372.575L220.561 372.825L219.794 368.162L230.165 366.379C235.284 365.5 236.72 366.774 237.446 371.179C237.995 374.523 237.632 376.338 234.772 377.262C237.967 377.145 239.233 378.017 239.923 382.2C240.657 386.669 239.794 389.069 234.675 389.949L223.695 391.836L223.687 391.832ZM228.6 376.831L231.21 376.383C232.146 376.221 232.569 375.391 232.218 373.265C231.876 371.175 231.254 370.619 230.286 370.784L227.676 371.232L228.596 376.831H228.6ZM230.177 386.415L233.138 385.907C234.07 385.745 234.566 384.935 234.191 382.651C233.816 380.368 233.029 379.61 232.126 379.763L229.165 380.271L230.177 386.415Z" fill="#A39161"/>
<path d="M244.129 388.15L242.899 383.725L244.315 383.321L240.386 369.203L238.97 369.606L237.704 365.056L254.21 360.349L256.63 369.042L251.475 370.514L250.229 366.028L245.985 367.238L247.417 372.386L250.087 371.623L251.273 375.891L248.603 376.653L250.103 382.051L254.347 380.84L252.939 375.79L258.094 374.318L260.636 383.446L244.129 388.154V388.15Z" fill="#A39161"/>
<path d="M271.411 379.642C268.042 380.997 264.932 381.861 264.025 382.05L261.068 374.571L266.046 372.571L267.639 376.596C268.099 376.516 269.297 376.072 269.962 375.802C272.088 374.947 272.415 374.535 271.532 372.292C270.814 370.477 270.063 370.356 267.006 370.639C260.987 371.163 259.479 370.824 257.55 365.951C255.646 361.139 256.711 359.025 262.387 356.742C265.211 355.609 268.76 354.532 269.914 354.419L272.56 361.107L267.583 363.107L266.3 359.868C265.868 359.937 264.674 360.381 263.884 360.699C262.577 361.224 262.056 361.679 262.811 363.587C263.48 365.282 264.364 365.382 267.203 365.084C273.218 364.455 274.956 365.019 276.812 369.711C278.849 374.858 277.97 377 271.415 379.634L271.411 379.642Z" fill="#A39161"/>
<path d="M286.988 372.284L284.826 368.238L286.44 367.367L279.215 353.854L277.545 354.757L279.877 359.118L275.5 361.482L271.265 353.563L288.545 344.233L292.793 352.18L288.416 354.544L286.085 350.183L284.415 351.087L291.639 364.6L293.196 363.761L295.342 367.779L286.988 372.288V372.284Z" fill="#A39161"/>
<path d="M307.234 360.514L303.733 355.705L304.911 346.42C305.294 343.439 305.73 341.869 304.564 340.268C303.628 338.981 303.112 338.993 301.789 339.961C301.103 340.466 300.518 340.889 300.215 341.196L301.784 343.35L297.581 346.424L293.656 341.035C294.475 340.155 296.855 337.969 298.916 336.46C304.334 332.495 306.036 332.66 308.944 336.658C311.03 339.522 310.57 340.506 309.759 347.343L308.924 354.318L313.152 351.224L311.409 348.832L315.612 345.758L319.711 351.381L307.238 360.51L307.234 360.514Z" fill="#A39161"/>
<path d="M328.527 344.282C323.613 348.667 321.237 348.215 314.295 340.422C307.353 332.628 307.224 330.172 312.137 325.787C317.05 321.402 319.382 321.806 326.324 329.599C333.266 337.392 333.436 339.897 328.527 344.282ZM325.679 340.986C327.022 339.788 326.752 338.941 323.375 335.153L320.584 332.023C317.188 328.211 316.437 328.01 315.094 329.208C313.751 330.406 313.872 331.083 317.264 334.895L320.056 338.026C323.432 341.813 324.331 342.184 325.675 340.986H325.679Z" fill="#A39161"/>
<path d="M336.399 336.536L332.026 332.502L331.385 323.176C331.183 320.183 331.308 318.562 329.852 317.218C328.682 316.137 328.178 316.254 327.064 317.456C326.488 318.082 325.999 318.61 325.757 318.969L327.718 320.776L324.184 324.604L319.283 320.086C319.916 319.066 321.828 316.464 323.563 314.588C328.117 309.655 329.819 309.486 333.454 312.838C336.06 315.242 335.798 316.291 336.326 323.148L336.858 330.143L340.412 326.29L338.238 324.286L341.772 320.457L346.886 325.173L336.399 336.532V336.536Z" fill="#A39161"/>
<path d="M353.394 317.489C349.344 322.762 346.932 322.483 338.953 316.376L338.695 316.178C334.488 312.955 332.797 311.418 332.438 309.164C332.096 307.046 334.358 302.879 337.473 297.756L341.531 299.999C339.324 303.67 337.674 306.618 337.715 307.473C337.743 308.236 338.231 308.776 339.909 310.059C340.385 308.857 341.41 307.042 342.366 305.795C344.62 302.863 346.5 302.282 351.821 306.352C356.673 310.067 357.182 312.556 353.39 317.493L353.394 317.489ZM350.183 314.944C351.26 313.54 351.252 312.75 348.904 310.955C346.089 308.801 345.355 308.692 344.318 310.043C343.798 310.717 343.305 311.576 342.914 312.35L345.391 314.246C348.388 316.537 349.106 316.348 350.183 314.944Z" fill="#A39161"/>
</svg>
