<?xml version="1.0" encoding="UTF-8"?>
<svg id="Layer_1" data-name="Layer 1" xmlns="http://www.w3.org/2000/svg" width="403" height="440" xmlns:xlink="http://www.w3.org/1999/xlink" version="1.1" viewBox="0 0 403 440">

   <style>
    /* Animate the element */
    #iconshine {
      transform: translate(0 0);
      animation: moveIt 0.8s forwards;
      animation-delay: 1s; /* wait 4 seconds before starting */
    }

    @keyframes moveIt {
      to {
        transform: translate(400px, -400px);
      }
    }
  </style>

  <defs>
    <radialGradient id="radial-gradient" cx="2.8" cy="25.5" fx="2.8" fy="25.5" r="1.8" gradientTransform="translate(-101 -598.5) scale(108 38)" gradientUnits="userSpaceOnUse">
      <stop offset=".6" stop-color="#08172a"/>
      <stop offset="1" stop-color="#08172a" stop-opacity="0"/>
    </radialGradient>
    <linearGradient id="shadow-gradient" x1="-316.9" y1="560.9" x2="-135" y2="560.9" gradientTransform="translate(227.1 -136.7)" gradientUnits="userSpaceOnUse">
      <stop offset=".1" stop-color="#fff" stop-opacity="0"/>
      <stop offset=".5" stop-color="#fff" stop-opacity=".8"/>
      <stop offset=".6" stop-color="#fff" stop-opacity=".8"/>
      <stop offset=".9" stop-color="#fff" stop-opacity="0"/>
    </linearGradient>

    <clipPath id="circleClip">
      <circle cx="200" cy="200" r="200" />
    </clipPath>
  </defs>
  <g id="Shadow">
    <ellipse cx="199.6" cy="371.1" rx="199.6" ry="70.2" fill="url(#radial-gradient)" stroke-width="0"/>
  </g>
  <path d="M401.2,202.6c0,110.5-89.6,200-200.1,199.9C90.6,402.5,1.1,312.9,1.2,202.4c0-110.5,89.6-200,200.1-199.9,110.5,0,200,89.7,199.9,200.1Z" fill="#fff" stroke="#a39161" stroke-width="2.3"/>
  <path d="M361.8,202.5c0,88.8-72,160.8-160.8,160.8S40.2,291.3,40.2,202.5,112.2,41.7,201,41.7s160.8,72,160.8,160.8h0Z" fill="#a39161" stroke-width="0"/>
  <path d="M64.3,232.7h262.9" fill="none" stroke="#fff" stroke-width="2.1"/>
  <path d="M107.8,271.4l-1.3,3.9h4.2v6.4h-13.9v-6.9h2.5l9.6-27.7h9.7l9.6,27.7h2.6v6.9h-16.1v-6.4h4.4l-1.3-3.9h-10ZM116,266.1l-.9-3c-.7-2.3-1.9-6-2.3-7.6-.3,1.6-1.6,5.5-2.3,7.6l-1,3h6.5Z" fill="#000104" stroke-width="0"/>
  <path d="M136.4,281.9l-6-27.4h-2.5v-7h15.2v6.6h-3.5l1.3,7.7c.6,3.4,1.3,6.9,1.5,9.7.4-2.7,1.2-6.2,2-9.6l2.1-9.2h7.7l2.2,9.2c.8,3.4,1.6,7.1,1.9,9.6.3-2.4.9-6.2,1.5-9.6l1.4-7.8h-3.6v-6.6h13.1v7h-2.5l-5.7,27.4h-9.5l-2.2-10.5c-.7-3-1.3-6.6-1.5-8.1-.2,1.5-.8,5.1-1.5,8.1l-2.3,10.6h-9.2.1Z" fill="#000104" stroke-width="0"/>
  <path d="M178.9,271.4l-1.3,3.9h4.2v6.4h-13.9v-6.9h2.5l9.6-27.7h9.7l9.6,27.7h2.6v6.9h-16.1v-6.4h4.4l-1.3-3.9h-10ZM187.1,266.1l-.9-3c-.7-2.3-1.9-6-2.3-7.6-.3,1.6-1.6,5.5-2.3,7.6l-1,3h6.5Z" fill="#000104" stroke-width="0"/>
  <path d="M204.4,281.7v-6.9h2.6v-20.4h-2.6v-7h17.9c7.2,0,11.2,1.4,11.2,10.6s-1.1,8.3-5.2,9.7l4.6,7.1h2.6v6.9h-12.4v-5.9l-4.3-6.9h-2.9v6.3h3.4v6.4h-14.9ZM215.9,263.3h5.7c1.9,0,2.9-1.1,2.9-4.9s-1.2-4.4-3-4.4h-5.6v9.3h0Z" fill="#000104" stroke-width="0"/>
  <path d="M238,281.8v-6.9h2.6v-20.5h-2.6v-7h15.4c11.3,0,14.7,2,14.7,17.1s-3.6,17.2-14.7,17.2h-15.4ZM249.7,275.4h3.9c4.6,0,5.4-2.3,5.4-9.5v-2.8c0-7.2-.8-9.2-5.4-9.2h-3.9v21.5h0Z" fill="#000104" stroke-width="0"/>
  <path d="M284.5,282.2c-6.5,0-11.7-.7-13.1-1v-11.1h8.4v5.7c.9.2,3.3.3,4.8.3,4.7,0,5.4-.7,5.4-3.8s-1-3.1-6.3-4.1c-10.2-1.9-12.5-3.1-12.5-11.7s3.7-9.7,13.4-9.7,11.4.7,13.1,1.2v10h-8.3v-4.8c-.7-.1-3.4-.2-4.8-.2-3.3,0-4.3.5-4.3,3.3s1,3.2,6,4.1c10.4,1.8,12.9,3.2,12.9,11.4s-2.9,10.3-14.6,10.3h-.1Z" fill="#000104" stroke-width="0"/>
  <path d="M143.5,136.2h-5.7l-5.7,52.6h5.7l-.7,6.3h-26.1l.7-6.3h5.3l3.7-33.3-15,30.9h-11.2l-8.2-30.9-3.9,33.3h5.3l-.7,6.3h-22l.7-6.3h5.7l5.7-52.6h-5.7l.7-6.3h20.7l11.1,39.4,19.2-39.4h21l-.7,6.3h0Z" fill="#000104" stroke-width="0"/>
  <path d="M161.7,196.4c-14.7,0-22-8.9-22-21.8s6.5-29.6,26.5-29.6,22,8.2,22,21.8-6.8,29.6-26.5,29.6h0ZM166,149c-5.7,0-10.8,6.8-10.8,32.5s2.3,10.9,6.5,10.9,10.8-3.5,10.8-32.6-2.6-10.8-6.5-10.8h0Z" fill="#000104" stroke-width="0"/>
  <path d="M242.1,195.1h-22.9l3.8-34.6c.4-4-.3-5.5-2.6-5.5-5,0-10.4,8.8-11.2,16.8l-2.5,23.3h-15.5l4.6-42.5h-6l.7-6.3h21.4l-1.1,10.7c2.1-3.5,7.5-12,18-12s10.9,5.5,10.1,12.9l-3.5,30.9h7.5l-.7,6.3h-.1Z" fill="#000104" stroke-width="0"/>
  <path d="M259,173.5c-.4,6.4,1.2,16,13,16s9.9-.6,14.8-3.1l-.2,6.5c-5.4,2.2-13,3.5-19.8,3.5-12.8,0-23.2-5.4-23.2-22.5s8.5-28.9,25.6-28.9,19.5,12.7,18.9,23l-29.1,5.5h0ZM269.1,149c-4.1,0-8.4,3.5-9.8,18.6l15.1-2.8c1-8.7,1.1-15.9-5.3-15.9h0Z" fill="#000104" stroke-width="0"/>
  <path d="M324.7,181.5c-5.9,9.7-15.3,29.4-18.9,40.7h-12.9l15.4-25.1-16.2-44.5h-5l.7-6.3h19.2l11.7,34.5c7.5-11,10.1-19.3,10.1-24.3s-.5-5.8-4.7-10.1l8.2-10.4c5.9,5,9,7.9,9,14.1s-12.6,25.1-16.5,31.4h-.1Z" fill="#000104" stroke-width="0"/>
  <path d="M142.2,135.8h-5.7l-5.7,52.6h5.7l-.7,6.3h-26.1l.7-6.3h5.3l3.7-33.3-15,30.9h-11.2l-8.2-30.9-3.9,33.3h5.3l-.7,6.3h-22l.7-6.3h5.7l5.7-52.6h-5.7l.7-6.3h20.7l11.1,39.4,19.2-39.4h21l-.7,6.3h0Z" fill="#fff" stroke-width="0"/>
  <path d="M160.4,196c-14.7,0-22-8.9-22-21.8s6.5-29.6,26.5-29.6,22,8.2,22,21.8-6.8,29.6-26.5,29.6ZM164.7,148.6c-5.7,0-10.8,6.8-10.8,32.5s2.3,10.9,6.5,10.9,10.8-3.5,10.8-32.6-2.6-10.8-6.5-10.8Z" fill="#fff" stroke-width="0"/>
  <path d="M240.8,194.7h-22.9l3.8-34.6c.5-4-.3-5.5-2.6-5.5-5,0-10.4,8.8-11.2,16.8l-2.5,23.3h-15.5l4.6-42.5h-6l.7-6.3h21.4l-1.1,10.7c2.1-3.5,7.5-12,18-12s10.9,5.5,10.1,12.9l-3.5,30.9h7.5l-.7,6.3h-.1Z" fill="#fff" stroke-width="0"/>
  <path d="M257.7,173.1c-.4,6.4,1.2,16,13,16s9.9-.6,14.8-3.1l-.2,6.5c-5.4,2.2-13,3.5-19.8,3.5-12.8,0-23.2-5.5-23.2-22.5s8.5-28.9,25.6-28.9,19.6,12.7,18.9,23l-29.1,5.5h0ZM267.8,148.6c-4.1,0-8.4,3.5-9.8,18.6l15.1-2.8c1-8.7,1.1-15.9-5.3-15.9h0Z" fill="#fff" stroke-width="0"/>
  <path d="M323.5,180.8c-5.9,9.7-15.3,29.4-18.9,40.7h-12.9l15.4-25.1-16.2-44.5h-5l.7-6.3h19.2l11.7,34.5c7.5-11.1,10.1-19.3,10.1-24.3s-.6-5.8-4.7-10.1l8.2-10.4c5.9,5,9,7.9,9,14.1s-12.6,25.1-16.5,31.4h-.1Z" fill="#fff" stroke-width="0"/>
  <path d="M107.3,270.8l-1.3,3.9h4.2v6.4h-13.9v-6.9h2.5l9.6-27.7h9.7l9.6,27.7h2.6v6.9h-16.1v-6.4h4.4l-1.3-3.9h-10ZM115.5,265.5l-.9-3c-.7-2.3-1.9-6-2.3-7.6-.3,1.6-1.6,5.5-2.3,7.6l-1,3h6.5Z" fill="#fff" stroke-width="0"/>
  <path d="M135.8,281.3l-6-27.4h-2.5v-7h15.2v6.6h-3.5l1.3,7.7c.6,3.4,1.3,6.9,1.5,9.7.4-2.7,1.2-6.2,2-9.6l2.1-9.2h7.7l2.2,9.2c.8,3.4,1.6,7.1,1.9,9.6.3-2.4.9-6.2,1.5-9.6l1.4-7.8h-3.6v-6.6h13.1v7h-2.5l-5.7,27.4h-9.5l-2.2-10.5c-.7-3-1.3-6.6-1.5-8.1-.2,1.5-.8,5.1-1.5,8.1l-2.3,10.6h-9.2.1Z" fill="#fff" stroke-width="0"/>
  <path d="M178.4,270.8l-1.3,3.9h4.2v6.4h-13.9v-6.9h2.5l9.6-27.7h9.7l9.6,27.7h2.6v6.9h-16.1v-6.4h4.4l-1.3-3.9h-10ZM186.6,265.5l-.9-3c-.7-2.3-1.9-6-2.3-7.6-.3,1.6-1.6,5.5-2.3,7.6l-1,3h6.5Z" fill="#fff" stroke-width="0"/>
  <path d="M203.9,281.1v-6.9h2.6v-20.4h-2.6v-7h17.9c7.2,0,11.2,1.4,11.2,10.6s-1.1,8.3-5.2,9.7l4.6,7.1h2.6v6.9h-12.4v-5.9l-4.3-6.9h-2.9v6.3h3.4v6.4h-14.9ZM215.4,262.7h5.7c1.9,0,2.9-1.1,2.9-4.9s-1.2-4.4-3-4.4h-5.6v9.3h0Z" fill="#fff" stroke-width="0"/>
  <path d="M237.5,281.2v-6.9h2.6v-20.5h-2.6v-7h15.4c11.3,0,14.7,2,14.7,17.1s-3.6,17.2-14.7,17.2h-15.4ZM249.1,274.8h3.9c4.6,0,5.4-2.3,5.4-9.5v-2.8c0-7.2-.8-9.2-5.4-9.2h-3.9v21.5h0Z" fill="#fff" stroke-width="0"/>
  <path d="M284,281.6c-6.5,0-11.7-.7-13.1-1v-11.1h8.4v5.7c.9.2,3.3.3,4.8.3,4.7,0,5.4-.7,5.4-3.8s-1-3.1-6.3-4.1c-10.2-1.9-12.5-3.1-12.5-11.7s3.7-9.7,13.4-9.7,11.4.7,13.1,1.2v10h-8.3v-4.8c-.7-.1-3.4-.2-4.8-.2-3.3,0-4.3.5-4.3,3.3s1,3.2,6,4.1c10.4,1.8,12.9,3.2,12.9,11.4s-2.9,10.3-14.6,10.3h-.1Z" fill="#fff" stroke-width="0"/>
  <path d="M114.6,222.1v-2.8h2v-11.1c-.3.9-2,5.2-2.6,6.8l-1.5,4.1h-3.5l-1.5-4.1c-.6-1.5-2.3-5.9-2.6-6.8v11.1h2v2.8h-7v-2.8h1.8v-11.7h-1.8v-2.9h7.1l2.3,5.6c.4,1,1.6,3.8,1.7,4.6.2-.7,1.3-3.5,1.7-4.5l2.2-5.6h7v2.9h-1.8v11.7h1.8v2.8h-7.5.2Z" fill="#000104" stroke-width="0"/>
  <path d="M140.5,222.1v-2.7h2.8l-1-2.6h-6.7l-1,2.6h2.6v2.7h-7.7v-2.8h1.7l5.9-14.7h4.2l6,14.7h1.8v2.8h-8.6ZM140.6,212.4c-.3-.7-1.5-4.1-1.7-4.6-.2.5-1.5,3.9-1.7,4.5l-.8,2h4.9l-.8-2h.1Z" fill="#000104" stroke-width="0"/>
  <path d="M170.3,216.1v5.5c-.8.2-3.4.8-6.8.8-5.2,0-8.2-1.8-8.2-9s3.1-9,8.2-9,5.9.5,6.8.8v5.3h-3.5v-2.9c-.5,0-2.1-.3-3.4-.3-3.2,0-4.3,1.6-4.3,5.4v1.3c0,3.7,1,5.5,4.5,5.5s2.8-.2,3.3-.3v-3.1h-2.5v-2.7h7.3v2.7h-1.5,0Z" fill="#000104" stroke-width="0"/>
  <path d="M189.4,222.1v-2.7h2.8l-1-2.6h-6.7l-1,2.6h2.6v2.7h-7.7v-2.8h1.7l5.9-14.7h4.2l6,14.7h1.8v2.8h-8.6ZM189.5,212.4c-.3-.7-1.5-4.1-1.7-4.6-.2.5-1.5,3.9-1.7,4.5l-.8,2h5l-.8-2h0Z" fill="#000104" stroke-width="0"/>
  <path d="M205.2,222.1v-3l5.6-6.3c2-2.3,5.1-5.5,5.3-5.6h-7.2v3.3h-3.5v-5.8h14.7v3l-5.1,5.6c-1.9,2.1-5.4,6-5.8,6.4h7.5v-3.8h3.5v6.2h-15.1.1Z" fill="#000104" stroke-width="0"/>
  <path d="M233.6,207.5v11.7h2.1v2.8h-8v-2.8h2.1v-11.7h-2.1v-2.9h8v2.9h-2.1Z" fill="#000104" stroke-width="0"/>
  <path d="M260.1,207.5v14.6h-3.6l-8.4-13.1v10.2h2.1v2.8h-7.2v-2.8h1.8v-11.7h-1.8v-2.9h6.2l7.6,11.7c-.1-.6-.1-4.6-.1-5.8v-3.1h-2v-2.9h7v2.9h-1.8.2Z" fill="#000104" stroke-width="0"/>
  <path d="M269.4,222.1v-2.8h1.8v-11.7h-1.8v-2.9h15.5v5.8h-3.5v-3.1h-6.4v4.4h4.9v2.6h-4.9v4.9h6.4v-3.6h3.5v6.2h-15.5v.2Z" fill="#000104" stroke-width="0"/>
  <path d="M114.3,221.6v-2.8h2v-11.1c-.3.9-2,5.2-2.6,6.8l-1.5,4.1h-3.5l-1.6-4.1c-.6-1.5-2.3-5.9-2.6-6.8v11.1h2v2.8h-7v-2.8h1.8v-11.7h-1.8v-2.9h7.1l2.3,5.6c.4,1,1.6,3.8,1.7,4.6.2-.7,1.3-3.5,1.7-4.6l2.2-5.6h7v2.9h-1.8v11.7h1.8v2.8h-7.5.3Z" fill="#fff" stroke-width="0"/>
  <path d="M140.2,221.6v-2.7h2.8l-1-2.6h-6.7l-1,2.6h2.6v2.7h-7.7v-2.8h1.7l5.9-14.7h4.2l5.9,14.7h1.8v2.8h-8.6.1ZM140.3,212c-.3-.7-1.5-4-1.7-4.5-.2.5-1.5,3.9-1.7,4.5l-.8,2.1h4.9l-.8-2h.1Z" fill="#fff" stroke-width="0"/>
  <path d="M170,215.6v5.5c-.8.2-3.4.8-6.8.8-5.2,0-8.2-1.8-8.2-9s3.1-9,8.2-9,6,.5,6.8.8v5.3h-3.5v-2.9c-.6,0-2.1-.3-3.4-.3-3.2,0-4.3,1.6-4.3,5.4v1.3c0,3.7.9,5.5,4.5,5.5s2.8-.2,3.3-.3v-3.1h-2.5v-2.7h7.3v2.7h-1.5,0Z" fill="#fff" stroke-width="0"/>
  <path d="M189.1,221.6v-2.7h2.8l-1-2.6h-6.7l-1,2.6h2.6v2.7h-7.7v-2.8h1.7l5.9-14.7h4.2l6,14.7h1.8v2.8h-8.6ZM189.2,212c-.3-.7-1.5-4-1.7-4.5-.2.5-1.5,3.9-1.7,4.5l-.8,2.1h5l-.8-2h0Z" fill="#fff" stroke-width="0"/>
  <path d="M204.9,221.6v-3l5.6-6.3c2-2.3,5.1-5.5,5.3-5.6h-7.2v3.3h-3.5v-5.8h14.7v3l-5.1,5.6c-1.9,2.1-5.4,6-5.8,6.4h7.5v-3.8h3.5v6.2h-15.1.1Z" fill="#fff" stroke-width="0"/>
  <path d="M233.3,207v11.7h2.1v2.8h-8v-2.8h2.1v-11.7h-2.1v-2.9h8v2.9h-2.1Z" fill="#fff" stroke-width="0"/>
  <path d="M259.8,207v14.6h-3.5l-8.4-13.1c0,.6.1,5.7.1,6.6v3.6h2.1v2.8h-7.2v-2.8h1.8v-11.7h-1.8v-2.9h6.2l7.6,11.7c0-.6-.1-4.6-.1-5.8v-3h-2v-2.9h7v2.9h-1.8Z" fill="#fff" stroke-width="0"/>
  <path d="M269,221.6v-2.8h1.8v-11.7h-1.8v-2.9h15.5v5.8h-3.5v-3.1h-6.4v4.4h4.9v2.6h-4.9v4.9h6.4v-3.6h3.5v6.2h-15.5v.2Z" fill="#fff" stroke-width="0"/>
  <path d="M145.2,324.4v-8.7l10.6-8.6c5.4-4.4,6.1-4.7,6.1-7.8s-.7-2.9-4.3-2.9-2.9,0-3.5.2v3.8h-8.2v-9.7c2.1-.5,7.7-1.1,11.6-1.1,10.8,0,13.1,1.7,13.1,9.4s-1.6,6.6-9.9,13.4l-7.3,6h9.4v-4.3h8.2v10.4h-25.8Z" fill="#231f20" stroke-width="0"/>
  <path d="M187.7,324.9c-10.5,0-13.7-3.4-13.7-17.7s3.3-17.7,13.8-17.7,13.8,3.3,13.8,17.6-3.3,17.8-13.8,17.8h-.1ZM187.8,318.3c3.8,0,4.7-1.4,4.7-8.3v-5.4c0-6.9-1-8.2-4.8-8.2s-4.7,1.2-4.7,8.1v5.4c0,6.9,1,8.4,4.8,8.4h0Z" fill="#231f20" stroke-width="0"/>
  <path d="M204.4,324.4v-8.7l10.6-8.6c5.4-4.4,6.1-4.7,6.1-7.8s-.7-2.9-4.3-2.9-2.9,0-3.5.2v3.8h-8.2v-9.7c2.1-.5,7.7-1.1,11.6-1.1,10.8,0,13.1,1.7,13.1,9.4s-1.6,6.6-9.9,13.4l-7.3,6h9.4v-4.3h8.2v10.4h-25.8Z" fill="#231f20" stroke-width="0"/>
  <path d="M246.5,324.9c-11.6,0-13.2-3.5-13.2-17.5v-.3c0-7.2.5-10.7,3.4-13.1,2.5-2.1,9.6-3.4,19.3-4.7l1.2,7.1c-8.8,1.2-13.1,1.9-14.4,3-.9.8-1,1.9-1,4.2v.2c1.4-.4,5.4-.9,8-.9,8.2,0,10,1.3,10,10.9s-2.6,11.2-13.3,11.2h0ZM246.5,318.6c3.5,0,4.8-.8,4.8-4.5s-.4-5.2-3.6-5.2-4.5.2-6,.5v3c0,5,.9,6.1,4.8,6.1h0Z" fill="#231f20" stroke-width="0"/>
  <path d="M144.7,323.9v-8.7l10.6-8.6c5.4-4.4,6.1-4.7,6.1-7.8s-.7-2.9-4.3-2.9-2.9,0-3.5.2v3.8h-8.2v-9.7c2.1-.5,7.7-1.1,11.6-1.1,10.8,0,13.1,1.7,13.1,9.4s-1.6,6.6-9.9,13.4l-7.3,6h9.4v-4.3h8.2v10.4h-25.8Z" fill="#fff" stroke-width="0"/>
  <path d="M187.3,324.5c-10.5,0-13.7-3.4-13.7-17.7s3.3-17.7,13.8-17.7,13.8,3.3,13.8,17.6-3.3,17.8-13.8,17.8h-.1ZM187.4,317.8c3.8,0,4.7-1.4,4.7-8.3v-5.4c0-6.9-1-8.2-4.8-8.2s-4.7,1.2-4.7,8.1v5.4c0,6.9,1,8.4,4.8,8.4h0Z" fill="#fff" stroke-width="0"/>
  <path d="M204,323.9v-8.7l10.6-8.6c5.4-4.4,6.1-4.7,6.1-7.8s-.7-2.9-4.3-2.9-2.9,0-3.5.2v3.8h-8.2v-9.7c2.1-.5,7.7-1.1,11.6-1.1,10.8,0,13.1,1.7,13.1,9.4s-1.6,6.6-9.9,13.4l-7.3,6h9.4v-4.3h8.2v10.4h-25.8Z" fill="#fff" stroke-width="0"/>
  <path d="M246,324.4c-11.6,0-13.2-3.5-13.2-17.5v-.3c0-7.2.5-10.7,3.4-13.1,2.5-2.1,9.6-3.4,19.4-4.7l1.2,7.1c-8.8,1.2-13.2,1.9-14.4,3-.9.8-1,1.9-1,4.2v.2c1.4-.4,5.4-.9,8-.9,8.2,0,10,1.3,10,10.9s-2.6,11.2-13.3,11.2h0ZM246.1,318.2c3.5,0,4.8-.8,4.8-4.5s-.4-5.2-3.6-5.2-4.5.2-6,.5v3c0,5,.9,6.1,4.8,6.1h0Z" fill="#fff" stroke-width="0"/>
  <path d="M64.6,84.5c-1.3-1.2-1.9-2.6-2-4.4,0-1.7.5-3.2,1.7-4.5s2.6-1.9,4.4-2c1.7,0,3.2.5,4.5,1.7s1.9,2.6,2,4.4c0,1.7-.5,3.2-1.7,4.5s-2.6,1.9-4.4,2c-1.7,0-3.2-.5-4.5-1.7Z" fill="#a39161" stroke-width="0"/>
  <path d="M87.1,79l-2.9-3.5,1.1-.9-9.4-11.3-1.1.9-3-3.6,8.1-6.7c4-3.3,5.9-2.9,8.7.5,2.2,2.6,2.8,4.4.8,6.6,2.7-1.7,4.2-1.6,7,1.7,2.9,3.5,3.4,6-.6,9.3l-8.6,7.1h0ZM83.8,63.6l2-1.7c.7-.6.7-1.5-.7-3.2-1.4-1.6-2.2-1.8-2.9-1.2l-2,1.7,3.6,4.4h0ZM90,71.1l2.3-1.9c.7-.6.7-1.6-.7-3.3s-2.5-2-3.2-1.5l-2.3,1.9,4,4.8h-.1Z" fill="#a39161" stroke-width="0"/>
  <path d="M101.2,67.4l-2.5-3.8,1.2-.8-8.1-12.2-1.2.8-2.6-3.9,14.3-9.5,5,7.5-4.5,3-2.6-3.9-3.7,2.4,3,4.5,2.3-1.5,2.5,3.7-2.3,1.5,3.1,4.7,3.7-2.4-2.9-4.4,4.5-3,5.2,7.9-14.3,9.5h0Z" fill="#a39161" stroke-width="0"/>
  <path d="M123.5,54c-3.2,1.7-6.2,2.8-7.1,3.1l-3.7-7.1,4.7-2.5,2,3.8c.5,0,1.6-.7,2.2-1,2-1.1,2.3-1.5,1.2-3.6-.9-1.7-1.7-1.8-4.7-1.2-5.9,1.1-7.5.9-9.9-3.7-2.4-4.6-1.6-6.8,3.8-9.6,2.7-1.4,6.1-2.8,7.2-3l3.3,6.4-4.7,2.5-1.6-3.1c-.4,0-1.6.7-2.3,1.1-1.2.6-1.7,1.2-.8,3,.8,1.6,1.7,1.6,4.5,1.1,5.9-1.2,7.7-.8,10,3.7,2.6,4.9,1.9,7.1-4.3,10.4h0l.2-.3Z" fill="#a39161" stroke-width="0"/>
  <path d="M135.3,48l-1.7-4.3,1.7-.7-5.6-14.3-1.8.7,1.8,4.6-4.6,1.8-3.3-8.4,18.2-7.2,3.3,8.4-4.6,1.8-1.8-4.6-1.8.7,5.6,14.3,1.6-.6,1.7,4.2-8.8,3.5h.1Z" fill="#a39161" stroke-width="0"/>
  <path d="M162,39.6c-3.5.8-6.7,1.2-7.6,1.3l-1.9-7.8,5.2-1.2,1,4.2c.5,0,1.7-.3,2.4-.4,2.2-.5,2.6-.9,2-3.2-.5-1.9-1.2-2.1-4.2-2.3-6-.4-7.5-.9-8.7-6.1-1.2-5,.2-7,6.1-8.4,2.9-.7,6.6-1.2,7.8-1.2l1.7,7-5.2,1.2-.8-3.4c-.4,0-1.7.3-2.5.5-1.4.3-1.9.7-1.5,2.7.4,1.8,1.3,2,4.1,2.1,6,.3,7.7,1.1,8.8,6,1.3,5.4.1,7.4-6.7,9h0Z" fill="#a39161" stroke-width="0"/>
  <path d="M180.5,36.3c-6.9.8-8.6-.6-9.5-7.6l-1.3-10.8-1.4.2-.6-4.7,9.1-1.1.6,4.7-1.8.2,1.4,11.1c.4,3.1,1.1,3.6,3.1,3.3,2-.2,2.5-.8,2.1-3.9l-1.4-11.1-1.6.2-.6-4.7,8.4-1,.6,4.7-1.4.2,1.3,10.7c.9,7-.2,8.9-7.1,9.7h0Z" fill="#a39161" stroke-width="0"/>
  <path d="M190.6,34.8v-4.6h1.4l-.2-14.7h-1.5v-4.7l10.9-.2c4.7,0,6.5,1.2,6.6,8.1.1,6.8-1.8,8.3-6.5,8.4h-3.6v3.2h2.4v4.4h-9.7.2ZM197.7,22.8h2.7c1.2,0,1.7-.8,1.6-3.9,0-3.1-.6-3.8-1.8-3.8h-2.7v7.7h.2Z" fill="#a39161" stroke-width="0"/>
  <path d="M208.5,34.6l.4-4.6h1.5c0,.1,1.4-14.5,1.4-14.5h-1.5c0-.1.4-4.8.4-4.8l17,1.6-.9,9-5.3-.5.4-4.6-4.4-.4-.5,5.3,2.8.3-.4,4.4-2.8-.3-.5,5.6,4.4.4.5-5.2,5.3.5-.9,9.4-17-1.6h.1Z" fill="#a39161" stroke-width="0"/>
  <path d="M226.4,36.4l.9-4.5,1.4.3,3-14.4-1.4-.3,1-4.6,10.6,2.2c4.6,1,6.1,2.7,4.9,8.4-.6,2.9-1.6,5.8-4.7,6l1.9,5.9,1.3.3-.9,4.5-7.4-1.5.8-3.8-1.8-5.8h-.6c0-.1-1,4.7-1,4.7l1.7.4-.9,4.2-8.8-1.8h0v-.2ZM236.1,25.2l2.6.5c1.1.2,1.8-.3,2.4-3.1.6-2.8,0-3.2-1-3.4l-2.6-.5-1.4,6.6h0Z" fill="#a39161" stroke-width="0"/>
  <path d="M249.6,41.6l1.5-4.3,1.4.5,4.9-13.8-1.4-.5,1.6-4.4,16.1,5.8-3,8.5-5-1.8,1.6-4.4-4.1-1.5-1.9,5.2,2.8,1-1.6,4.4-2.8-1-1.6,4.5,2.1.7-1.5,4.3-9-3.2h-.1Z" fill="#a39161" stroke-width="0"/>
  <path d="M274.8,52.1c-6.2-3.1-6.9-5.2-3.8-11.6l4.8-9.7-1.2-.6,2.1-4.2,8.2,4-2.1,4.2-1.7-.8-4.9,10c-1.4,2.8-1,3.6.7,4.5,1.8.9,2.5.7,3.9-2.1l4.9-10.1-1.4-.7,2.1-4.2,7.6,3.8-2.1,4.2-1.2-.6-4.8,9.7c-3.1,6.3-5,7.3-11.3,4.3h.2Z" fill="#a39161" stroke-width="0"/>
  <path d="M284,56.3l2.5-3.9,1.2.8,8-12.3-1.2-.8,2.6-4,7.1,4.6-1.9,9.6c-.3,1.6-.7,3.4-1,4.2.4-.6,1.3-2.1,2.1-3.4l2.4-3.7-1.6-1,2.6-4,6.4,4.1-2.6,4-1.2-.7-10.5,16.2-4.5-2.9,2.5-13.2c.3-1.8.8-3.7,1-4.7-.5.8-1.4,2.3-2.4,3.8l-4.3,6.6,1.6,1-2.5,3.9-6.5-4.2h.2Z" fill="#a39161" stroke-width="0"/>
  <path d="M300.5,67.1l2.9-3.6,1.1.9,9.3-11.4-1.1-.9,3-3.7,7.2,5.9c5.8,4.8,5.7,6.5-1,14.6-6.7,8.1-8.5,8.6-14.2,3.9-5.3-4.3-6.7-5.5-7.2-5.9v.2ZM308.9,68.5l1.6,1.3c1.6,1.3,2.4.8,6.1-3.6l1.5-1.8c3.6-4.4,3.8-5.2,2.2-6.5l-1.6-1.3-9.8,11.9h0Z" fill="#a39161" stroke-width="0"/>
  <path d="M328.1,74.5c1.3-1.2,2.8-1.8,4.5-1.7,1.7,0,3.2.7,4.4,2,1.2,1.3,1.8,2.8,1.7,4.5,0,1.7-.7,3.2-2,4.4-1.3,1.2-2.8,1.8-4.5,1.7-1.7,0-3.2-.7-4.4-2-1.2-1.3-1.8-2.8-1.7-4.5,0-1.7.7-3.2,2-4.4h0Z" fill="#a39161" stroke-width="0"/>
  <path d="M44.1,314.6l3.6-2.9.9,1.1,11.6-9.1-.9-1.1,3.7-2.9,6.5,8.2c3.2,4.1,2.8,5.9-.8,8.7-2.7,2.1-4.4,2.7-6.6.6,1.6,2.7,1.4,4.3-1.9,6.9-3.6,2.8-6.1,3.2-9.3-.8l-6.8-8.7h0ZM51.9,317.7l1.8,2.4c.6.7,1.5.8,3.4-.7,1.8-1.4,2.1-2.5,1.6-3.2l-1.8-2.4-4.9,3.9h0ZM59.6,311.6l1.6,2.1c.6.7,1.5.7,3.2-.6,1.7-1.3,1.9-2.1,1.3-2.9l-1.6-2.1-4.5,3.5h0Z" fill="#a39161" stroke-width="0"/>
  <path d="M57,330.8l3.3-3.2,1,1,10.5-10.3-1-1,3.4-3.3,11.9,12.2-6.5,6.3-3.7-3.8,3.4-3.3-3.1-3.1-3.8,3.8,1.9,2-3.2,3.1-1.9-2-4,3.9,3.1,3.1,3.8-3.7,3.7,3.8-6.8,6.7-11.9-12.2h-.1Z" fill="#a39161" stroke-width="0"/>
  <path d="M77.3,350.6c-2.8-2.3-5-4.6-5.6-5.3l5.2-6.2,4.1,3.4-2.8,3.3c.3.4,1.2,1.2,1.8,1.7,1.8,1.5,2.3,1.5,3.8-.3,1.3-1.5,1-2.2-.7-4.8-3.3-5-3.7-6.5-.3-10.6,3.3-4,5.7-4.1,10.4-.2,2.3,1.9,4.9,4.5,5.6,5.5l-4.6,5.6-4.1-3.4,2.2-2.7c-.3-.3-1.2-1.2-1.9-1.7-1.1-.9-1.7-1.1-3,.5-1.2,1.4-.8,2.2.8,4.6,3.4,5,3.7,6.8.5,10.7-3.6,4.3-5.9,4.5-11.3,0h0Z" fill="#a39161" stroke-width="0"/>
  <path d="M89.9,359.9l2.6-3.8,1.5,1,8.6-12.8-1.6-1-2.8,4.1-4.1-2.7,5-7.5,16.2,10.8-5,7.5-4.1-2.7,2.8-4.1-1.6-1-8.6,12.8,1.5,1-2.6,3.8-7.8-5.2h0v-.2Z" fill="#a39161" stroke-width="0"/>
  <path d="M117.4,376.3c-6.2-3-7-5.4-2.4-14.9s7-10.4,13.3-7.5c6.3,3,6.9,5.3,2.4,14.8-4.6,9.5-7,10.5-13.2,7.6h0ZM119.3,372.4c2,1,2.6.8,5.2-4.5l1.3-2.8c2.6-5.4,2.4-6.1.4-7.1-2-.9-2.7-.8-5.3,4.6l-1.3,2.8c-2.6,5.4-2.2,6.1-.2,7h0Z" fill="#a39161" stroke-width="0"/>
  <path d="M128.1,380.8l1.6-4.3,1.4.5,5-13.9-1.4-.5,1.6-4.5,16.1,5.7-3.1,8.5-5-1.8,1.6-4.4-4.1-1.5-1.9,5.2,2.8,1-1.6,4.4-2.8-1-1.6,4.6,2.1.7-1.6,4.3-9-3.2h0v.2Z" fill="#a39161" stroke-width="0"/>
  <path d="M157.5,389.9l.9-4.5,1.8.4,3.1-15.1-1.9-.4-1,4.9-4.9-1,1.8-8.8,19.2,3.8-1.8,8.9-4.9-1,1-4.9-1.9-.4-3.1,15.1,1.7.3-.9,4.5-9.3-1.8h.2Z" fill="#a39161" stroke-width="0"/>
  <path d="M174.8,393.1l.4-4.6h1.5c0,.1,1.2-14.5,1.2-14.5h-1.5c0-.1.4-4.8.4-4.8l8.8.7-.4,4.7h-1.5c0-.1-.4,4.7-.4,4.7l4.7.4.4-4.8h-1.5c0-.1.4-4.8.4-4.8l8.8.7-.4,4.7h-1.5c0-.1-1.2,14.5-1.2,14.5h1.5c0,.1-.4,4.7-.4,4.7l-8.8-.7.4-4.6h1.5c0,.1.5-5.3.5-5.3l-4.7-.4-.5,5.4h1.5c0,.1-.4,4.7-.4,4.7l-8.8-.7h0Z" fill="#a39161" stroke-width="0"/>
  <path d="M197.3,394.6v-4.6c-.1,0,1.4,0,1.4,0l-.4-14.7h-1.5v-4.7c-.1,0,17-.6,17-.6l.2,9-5.3.2v-4.7c-.1,0-4.5.1-4.5.1v5.3h2.9v4.4c.1,0-2.7,0-2.7,0v5.6c.1,0,4.6-.1,4.6-.1v-5.3c-.1,0,5.2-.2,5.2-.2l.2,9.5-17.1.6h0v.2Z" fill="#a39161" stroke-width="0"/>
  <path d="M223.7,393.1l-.7-4.5,1.4-.2-2.4-14.5-1.4.2-.8-4.7,10.4-1.8c5.1-.9,6.6.4,7.3,4.8.5,3.3.2,5.2-2.7,6.1,3.2-.1,4.5.8,5.2,4.9.7,4.5-.1,6.9-5.2,7.7l-11,1.9h-.1ZM228.6,378.1l2.6-.4c.9-.2,1.4-1,1-3.1-.3-2.1-1-2.6-1.9-2.5l-2.6.4.9,5.6h0ZM230.2,387.7l3-.5c.9-.2,1.4-1,1.1-3.3-.4-2.3-1.2-3-2.1-2.9l-3,.5,1,6.1h0Z" fill="#a39161" stroke-width="0"/>
  <path d="M244.1,389.4l-1.2-4.4,1.4-.4-3.9-14.1-1.4.4-1.3-4.5,16.5-4.7,2.4,8.7-5.2,1.5-1.2-4.5-4.2,1.2,1.4,5.1,2.7-.8,1.2,4.3-2.7.8,1.5,5.4,4.2-1.2-1.4-5,5.2-1.5,2.5,9.1-16.5,4.7h0Z" fill="#a39161" stroke-width="0"/>
  <path d="M271.4,380.9c-3.4,1.4-6.5,2.2-7.4,2.4l-3-7.5,5-2,1.6,4c.5,0,1.7-.5,2.3-.8,2.1-.9,2.5-1.3,1.6-3.5-.7-1.8-1.5-1.9-4.5-1.7-6,.5-7.5.2-9.5-4.7-1.9-4.8-.8-6.9,4.8-9.2,2.8-1.1,6.4-2.2,7.5-2.3l2.6,6.7-5,2-1.3-3.2c-.4,0-1.6.5-2.4.8-1.3.5-1.8,1-1.1,2.9.7,1.7,1.6,1.8,4.4,1.5,6-.6,7.8,0,9.6,4.6,2,5.1,1.2,7.3-5.4,9.9h.2Z" fill="#a39161" stroke-width="0"/>
  <path d="M287,373.6l-2.2-4,1.6-.9-7.2-13.5-1.7.9,2.3,4.4-4.4,2.4-4.2-7.9,17.3-9.3,4.2,7.9-4.4,2.4-2.3-4.4-1.7.9,7.2,13.5,1.6-.8,2.1,4-8.4,4.5h.2Z" fill="#a39161" stroke-width="0"/>
  <path d="M307.2,361.8l-3.5-4.8,1.2-9.3c.4-3,.8-4.6-.3-6.2-.9-1.3-1.5-1.3-2.8-.3-.7.5-1.3.9-1.6,1.2l1.6,2.2-4.2,3.1-3.9-5.4c.8-.9,3.2-3.1,5.3-4.6,5.4-4,7.1-3.8,10,.2,2.1,2.9,1.6,3.8.8,10.7l-.8,7,4.2-3.1-1.7-2.4,4.2-3.1,4.1,5.6-12.5,9.1h-.1Z" fill="#a39161" stroke-width="0"/>
  <path d="M328.5,345.6c-4.9,4.4-7.3,3.9-14.2-3.9-6.9-7.8-7.1-10.2-2.2-14.6s7.2-4,14.2,3.8c6.9,7.8,7.1,10.3,2.2,14.7ZM325.7,342.3c1.3-1.2,1.1-2-2.3-5.8l-2.8-3.1c-3.4-3.8-4.1-4-5.5-2.8-1.3,1.2-1.2,1.9,2.2,5.7l2.8,3.1c3.4,3.8,4.3,4.2,5.6,3h0Z" fill="#a39161" stroke-width="0"/>
  <path d="M336.4,337.8l-4.4-4-.6-9.3c-.2-3,0-4.6-1.5-6-1.2-1.1-1.7-1-2.8.2-.6.6-1.1,1.2-1.3,1.5l2,1.8-3.5,3.8-4.9-4.5c.6-1,2.5-3.6,4.3-5.5,4.6-4.9,6.3-5.1,9.9-1.8,2.6,2.4,2.3,3.5,2.9,10.3l.5,7,3.6-3.9-2.2-2,3.5-3.8,5.1,4.7-10.5,11.4h-.1Z" fill="#a39161" stroke-width="0"/>
  <path d="M353.4,318.8c-4.1,5.3-6.5,5-14.4-1.1l-.3-.2c-4.2-3.2-5.9-4.8-6.3-7-.3-2.1,1.9-6.3,5-11.4l4.1,2.2c-2.2,3.7-3.9,6.6-3.8,7.5,0,.8.5,1.3,2.2,2.6.5-1.2,1.5-3,2.5-4.3,2.3-2.9,4.1-3.5,9.5.6,4.9,3.7,5.4,6.2,1.6,11.1h-.1ZM350.2,316.2c1.1-1.4,1.1-2.2-1.3-4-2.8-2.2-3.5-2.3-4.6-.9-.5.7-1,1.5-1.4,2.3l2.5,1.9c3,2.3,3.7,2.1,4.8.7Z" fill="#a39161" stroke-width="0"/>
  

  <g id="iconContainer" clip-path="url(#circleClip)">
    <g id="iconshine">
    <rect x="-89.7" y="73" width="181.9" height="702.5" transform="translate(-302.8 128.3) rotate(-45.6)" fill="url(#linear-gradient)" stroke-width="0"/>
  </g>
  </g>
</svg>