<svg width="400" height="401" viewBox="0 0 400 401" fill="none" xmlns="http://www.w3.org/2000/svg">
<path d="M400 202.651C400 311.662 311.621 400.041 202.61 400.041C93.599 400.041 5.1828 311.662 5.1828 202.651V9.70563C5.1828 7.18686 7.14596 5.26074 9.62769 5.26074H202.573C311.584 5.26074 399.963 93.6399 399.963 202.651H400Z" fill="#816E15"/>
<path d="M393.669 198.353C392.854 305.882 305.845 392.891 198.353 393.669C89.2682 394.484 0 304.178 0 195.056V4.51897C0 2.03724 2.03724 0 4.51897 0H195.094C304.179 0 394.521 89.2682 393.706 198.353H393.669Z" fill="url(#paint0_radial_18094_5587)"/>
<defs>
<radialGradient id="paint0_radial_18094_5587" cx="0" cy="0" r="1" gradientUnits="userSpaceOnUse" gradientTransform="translate(6.05616 6.78215) scale(435.421 435.421)">
<stop stop-color="#FFF3C1"/>
<stop offset="1" stop-color="#DDBA14"/>
</radialGradient>
</defs>
</svg>
