<?xml version="1.0" encoding="UTF-8"?>
<svg id="Layer_1" data-name="Layer 1" xmlns="http://www.w3.org/2000/svg" width="91" height="62" xmlns:xlink="http://www.w3.org/1999/xlink" version="1.1" viewBox="0 0 91 62">
  <defs>
    <linearGradient id="linear-gradient" x1="0" y1="52.1" x2="21.5" y2="52.1" gradientTransform="translate(0 62) scale(1 -1)" gradientUnits="userSpaceOnUse">
      <stop offset="0" stop-color="#e1e31f"/>
      <stop offset="1" stop-color="#2b783b"/>
    </linearGradient>
    <linearGradient id="linear-gradient-2" x1="21.6" y1="49.9" x2=".5" y2="49.9" gradientTransform="translate(0 62) scale(1 -1)" gradientUnits="userSpaceOnUse">
      <stop offset="0" stop-color="#e1e31f"/>
      <stop offset="1" stop-color="#2b783b"/>
    </linearGradient>
  </defs>
  <path d="M85.9,56.5h1.6c.3,0,.6,0,.9.1.3,0,.6.2.8.4.2.2.4.4.6.7.1.3.2.7.2,1.1s0,.7-.2,1c-.1.3-.3.5-.6.7-.2.2-.5.3-.8.4-.3,0-.6.1-.9.1h-1.6v-4.7ZM86.5,60.6h.8c.3,0,.5,0,.8-.1.2,0,.4-.2.6-.3.2-.1.3-.3.4-.6,0-.2.1-.5.1-.7s0-.5-.1-.8c0-.2-.2-.4-.4-.5-.2-.1-.4-.3-.6-.3-.2,0-.5-.1-.8-.1h-.8v3.5Z" fill="#11322c" stroke-width="0"/>
  <path d="M84.2,60.2h0v-3.7h.7v4.7h-.8l-2.5-3.8h0v3.8h-.7v-4.7h.9l2.4,3.7Z" fill="#11322c" stroke-width="0"/>
  <path d="M78.1,61.3c-.3,0-.6,0-.8-.2-.2-.1-.4-.2-.6-.4-.1-.2-.3-.4-.3-.6,0-.2-.1-.5-.1-.7v-2.9h.7v2.9c0,.2,0,.3,0,.5,0,.2.1.3.2.4,0,.1.2.2.4.3.1,0,.3.1.6.1s.4,0,.5-.1c.1,0,.3-.2.4-.3,0-.1.2-.3.2-.4,0-.2,0-.3,0-.5v-2.9h.7v2.9c0,.2,0,.5-.1.7,0,.2-.2.4-.3.6-.1.2-.3.3-.6.4-.2.1-.5.2-.8.2Z" fill="#11322c" stroke-width="0"/>
  <path d="M73.4,61.1h-.7v-4.7h2.9v.6h-2.3v1.5h2.1v.6h-2.1v2.1Z" fill="#11322c" stroke-width="0"/>
  <path d="M67.9,61.1h-.7v-4.7h1.5c.2,0,.4,0,.6,0,.2,0,.4.1.5.2.2.1.3.2.4.4,0,.2.1.4.1.6,0,.3-.1.6-.3.8-.2.2-.5.3-.8.4l1.3,2.1h-.8l-1.2-2.1h-.7v2.1ZM67.9,58.5h.8c.2,0,.3,0,.4,0,.1,0,.2,0,.3-.1.1,0,.2-.1.2-.2,0,0,0-.2,0-.4s0-.3,0-.4c0,0-.1-.2-.2-.2,0,0-.2,0-.3-.1-.1,0-.3,0-.4,0h-.8v1.5Z" fill="#11322c" stroke-width="0"/>
  <path d="M64.1,60.6h2.4v.6h-3.1v-4.7h3v.6h-2.3v1.4h2.2v.6h-2.2v1.6Z" fill="#11322c" stroke-width="0"/>
  <path d="M59.7,56.5h1.4c.3,0,.5,0,.7,0,.2,0,.4.1.5.2.1.1.3.2.3.4,0,.2.1.4.1.6s0,.4-.1.6c0,.2-.2.3-.4.4-.1.1-.3.2-.5.2-.2,0-.4,0-.7,0h-.7v2.1h-.7v-4.7ZM60.3,58.5h.7c.2,0,.3,0,.4,0,.1,0,.3,0,.4-.1,0,0,.2-.1.2-.2,0,0,0-.2,0-.4s0-.3,0-.4c0,0-.1-.2-.2-.2,0,0-.2-.1-.3-.1-.1,0-.3,0-.4,0h-.7v1.5Z" fill="#11322c" stroke-width="0"/>
  <path d="M56.9,61.3c-.3,0-.6,0-.8-.2-.2-.1-.4-.2-.6-.4-.1-.2-.3-.4-.3-.6,0-.2-.1-.5-.1-.7v-2.9h.7v2.9c0,.2,0,.3,0,.5,0,.2.1.3.2.4,0,.1.2.2.4.3.1,0,.3.1.6.1s.4,0,.5-.1c.1,0,.3-.2.4-.3,0-.1.2-.3.2-.4,0-.2,0-.3,0-.5v-2.9h.7v2.9c0,.2,0,.5-.1.7,0,.2-.2.4-.3.6-.1.2-.3.3-.6.4-.2.1-.5.2-.8.2Z" fill="#11322c" stroke-width="0"/>
  <path d="M53.8,57.3c0-.1-.2-.2-.4-.3-.2,0-.3-.1-.5-.1s-.2,0-.3,0c-.1,0-.2,0-.3.1,0,0-.2.1-.2.2,0,0,0,.2,0,.3s0,.2,0,.3c0,0,.1.2.2.2,0,0,.2.1.3.2.1,0,.2,0,.4.1.2,0,.3.1.5.2.2,0,.3.1.4.2.1.1.2.2.3.4,0,.1.1.3.1.6s0,.5-.1.6c0,.2-.2.3-.4.4-.1.1-.3.2-.5.3-.2,0-.4,0-.6,0-.3,0-.6,0-.9-.2-.3-.1-.5-.3-.7-.5l.5-.4c.1.2.3.3.4.4.2.1.4.2.6.2s.2,0,.3,0c.1,0,.2,0,.3-.1,0,0,.2-.1.2-.2,0-.1,0-.2,0-.4s0-.3,0-.4c0,0-.1-.2-.2-.2-.1,0-.2-.1-.4-.2-.1,0-.3,0-.4-.1-.1,0-.3,0-.4-.2-.1,0-.3-.1-.4-.2-.1-.1-.2-.2-.3-.4,0-.1-.1-.3-.1-.5s0-.4.1-.6c0-.2.2-.3.4-.4.2-.1.3-.2.5-.2.2,0,.4,0,.6,0s.5,0,.8.1c.2,0,.4.2.6.4l-.5.4Z" fill="#11322c" stroke-width="0"/>
  <path d="M88.8,52.9h-.7v-4.1h-1.5v-.6h3.7v.6h-1.5v4.1Z" fill="#11322c" stroke-width="0"/>
  <path d="M85.9,49.1c0-.1-.2-.2-.4-.3-.2,0-.3-.1-.5-.1s-.2,0-.3,0c-.1,0-.2,0-.3.1,0,0-.2.1-.2.2,0,0,0,.2,0,.3s0,.2,0,.3c0,0,.1.2.2.2,0,0,.2.1.3.2.1,0,.2,0,.4.1.2,0,.3.1.5.2.2,0,.3.1.4.2.1.1.2.2.3.4,0,.1.1.3.1.6s0,.5-.1.6c0,.2-.2.3-.4.4-.1.1-.3.2-.5.3-.2,0-.4,0-.6,0-.3,0-.6,0-.9-.2-.3-.1-.5-.3-.7-.5l.5-.4c.1.2.3.3.4.4.2.1.4.2.6.2s.2,0,.3,0c.1,0,.2,0,.3-.1,0,0,.2-.1.2-.2,0-.1,0-.2,0-.4s0-.3,0-.4c0,0-.1-.2-.2-.2-.1,0-.2-.1-.4-.2-.1,0-.3,0-.4-.1-.1,0-.3,0-.4-.2-.1,0-.3-.1-.4-.2-.1-.1-.2-.2-.3-.4,0-.1-.1-.3-.1-.5s0-.4.1-.6c0-.2.2-.3.4-.4.2-.1.3-.2.5-.2.2,0,.4,0,.6,0s.5,0,.8.1c.2,0,.4.2.6.4l-.5.4Z" fill="#11322c" stroke-width="0"/>
  <path d="M80.4,52.3h2.4v.6h-3.1v-4.7h3v.6h-2.3v1.4h2.2v.6h-2.2v1.6Z" fill="#11322c" stroke-width="0"/>
  <path d="M75.7,48.2h1.6c.2,0,.4,0,.5,0,.2,0,.3.1.5.2.1,0,.3.2.3.4,0,.1.1.3.1.6s0,.5-.2.7c-.1.2-.3.3-.6.4h0c.1,0,.3,0,.4.1.1,0,.2.1.3.2,0,0,.2.2.2.3,0,.1,0,.3,0,.4s0,.4-.1.6c0,.2-.2.3-.4.4-.2.1-.3.2-.6.2-.2,0-.4,0-.7,0h-1.5v-4.7ZM76.3,50.2h.9c.1,0,.2,0,.4,0,.1,0,.2,0,.3-.1,0,0,.1-.1.2-.2,0,0,0-.2,0-.3,0-.3,0-.4-.3-.5-.2-.1-.4-.2-.7-.2h-.7v1.4ZM76.3,52.3h.8c.1,0,.3,0,.4,0,.1,0,.3,0,.4-.1.1,0,.2-.1.3-.2,0-.1.1-.2.1-.4,0-.3,0-.5-.3-.6-.2-.1-.5-.2-.8-.2h-.9v1.6Z" fill="#11322c" stroke-width="0"/>
  <path d="M72.9,49.1c0-.1-.2-.2-.4-.3-.2,0-.3-.1-.5-.1s-.2,0-.3,0c-.1,0-.2,0-.3.1,0,0-.2.1-.2.2,0,0,0,.2,0,.3s0,.2,0,.3c0,0,.1.2.2.2,0,0,.2.1.3.2.1,0,.2,0,.4.1.2,0,.3.1.5.2.2,0,.3.1.4.2.1.1.2.2.3.4,0,.1.1.3.1.6s0,.5-.1.6c0,.2-.2.3-.4.4-.1.1-.3.2-.5.3-.2,0-.4,0-.6,0-.3,0-.6,0-.9-.2-.3-.1-.5-.3-.7-.5l.5-.4c.1.2.3.3.4.4.2.1.4.2.6.2s.2,0,.3,0c.1,0,.2,0,.3-.1,0,0,.2-.1.2-.2,0-.1,0-.2,0-.4s0-.3,0-.4c0,0-.1-.2-.2-.2-.1,0-.2-.1-.4-.2-.1,0-.3,0-.4-.1-.1,0-.3,0-.4-.2-.1,0-.3-.1-.4-.2-.1-.1-.2-.2-.3-.4,0-.1-.1-.3-.1-.5s0-.4.1-.6c0-.2.2-.3.4-.4.2-.1.3-.2.5-.2.2,0,.4,0,.6,0s.5,0,.8.1c.2,0,.4.2.6.4l-.5.4Z" fill="#11322c" stroke-width="0"/>
  <path d="M69.3,49.9h-.5l.5-1.7h.6l-.5,1.7Z" fill="#11322c" stroke-width="0"/>
  <path d="M65.1,52.9h-.7l2-4.7h.6l2,4.7h-.7l-.5-1.2h-2.2l-.5,1.2ZM65.8,51.2h1.8l-.9-2.2-.9,2.2Z" fill="#11322c" stroke-width="0"/>
  <path d="M63.9,52.9h-.7v-4.7h.7v4.7Z" fill="#11322c" stroke-width="0"/>
  <path d="M60.6,52.3h2.1v.6h-2.7v-4.7h.7v4.1Z" fill="#11322c" stroke-width="0"/>
  <path d="M55.6,52.9h-.7l2-4.7h.6l2,4.7h-.7l-.5-1.2h-2.2l-.5,1.2ZM56.3,51.2h1.8l-.9-2.2-.9,2.2Z" fill="#11322c" stroke-width="0"/>
  <path d="M52.2,52.9h-.7v-4.7h1.5c.2,0,.4,0,.6,0,.2,0,.4.1.5.2.2.1.3.2.4.4,0,.2.1.4.1.6,0,.3-.1.6-.3.8-.2.2-.5.3-.8.4l1.3,2.1h-.8l-1.2-2.1h-.7v2.1ZM52.2,50.3h.8c.2,0,.3,0,.4,0,.1,0,.2,0,.3-.1.1,0,.2-.1.2-.2,0,0,0-.2,0-.4s0-.3,0-.4c0,0-.1-.2-.2-.2,0,0-.2,0-.3-.1-.1,0-.3,0-.4,0h-.8v1.5Z" fill="#11322c" stroke-width="0"/>
  <path d="M49.5,52.9h-.7v-4.1h-1.5v-.6h3.7v.6h-1.5v4.1Z" fill="#11322c" stroke-width="0"/>
  <path d="M46.7,49.1c0-.1-.2-.2-.4-.3-.2,0-.3-.1-.5-.1s-.2,0-.3,0c-.1,0-.2,0-.3.1,0,0-.2.1-.2.2,0,0,0,.2,0,.3s0,.2,0,.3c0,0,.1.2.2.2,0,0,.2.1.3.2.1,0,.2,0,.4.1.2,0,.3.1.5.2.2,0,.3.1.4.2.1.1.2.2.3.4,0,.1.1.3.1.6s0,.5-.1.6c0,.2-.2.3-.4.4-.1.1-.3.2-.5.3-.2,0-.4,0-.6,0-.3,0-.6,0-.9-.2-.3-.1-.5-.3-.7-.5l.5-.4c.1.2.3.3.4.4.2.1.4.2.6.2s.2,0,.3,0c.1,0,.2,0,.3-.1,0,0,.2-.1.2-.2,0-.1,0-.2,0-.4s0-.3,0-.4c0,0-.1-.2-.2-.2-.1,0-.2-.1-.4-.2-.1,0-.3,0-.4-.1-.1,0-.3,0-.4-.2-.1,0-.3-.1-.4-.2-.1-.1-.2-.2-.3-.4,0-.1-.1-.3-.1-.5s0-.4.1-.6c0-.2.2-.3.4-.4.2-.1.3-.2.5-.2.2,0,.4,0,.6,0s.5,0,.8.1c.2,0,.4.2.6.4l-.5.4Z" fill="#11322c" stroke-width="0"/>
  <path d="M41.6,53c-.3,0-.6,0-.8-.2-.2-.1-.4-.2-.6-.4-.1-.2-.3-.4-.3-.6,0-.2-.1-.5-.1-.7v-2.9h.7v2.9c0,.2,0,.3,0,.5,0,.2.1.3.2.4,0,.1.2.2.4.3.1,0,.3.1.6.1s.4,0,.5-.1c.1,0,.3-.2.4-.3,0-.1.2-.3.2-.4,0-.2,0-.3,0-.5v-2.9h.7v2.9c0,.2,0,.5-.1.7,0,.2-.2.4-.3.6-.1.2-.3.3-.6.4-.2.1-.5.2-.8.2Z" fill="#11322c" stroke-width="0"/>
  <path d="M35.5,52.9h-.7l2-4.7h.6l2,4.7h-.7l-.5-1.2h-2.2l-.5,1.2ZM36.2,51.2h1.8l-.9-2.2-.9,2.2Z" fill="#11322c" stroke-width="0"/>
  <path d="M0,41c0-.2.1-.3.3-.3h89.8c.2,0,.3.1.3.3s-.1.3-.3.3H.3c-.2,0-.3-.1-.3-.3Z" fill="#cdb577" stroke-width="0"/>
  <path d="M88.9,28.3l-1.5,2.2h0c0,0,.2,0,.3,0,.1,0,.2,0,.3,0,.3,0,.5,0,.7.1.2,0,.4.2.6.4.2.2.3.4.4.6,0,.2.1.5.1.7s0,.6-.2.8c-.1.3-.3.5-.5.7-.2.2-.4.3-.7.4-.3,0-.5.1-.8.1s-.6,0-.9-.1c-.3-.1-.5-.2-.7-.4-.2-.2-.3-.4-.5-.6-.1-.2-.2-.5-.2-.8s0-.3,0-.5c0-.1,0-.3.1-.4,0-.1.1-.3.2-.4,0-.1.2-.3.3-.4l1.5-2.3h1.2ZM86.7,32.3c0,.2,0,.3,0,.4,0,.1.1.3.2.4,0,.1.2.2.4.2.1,0,.3,0,.5,0,.3,0,.6-.1.8-.3.2-.2.3-.5.3-.8s0-.3,0-.5c0-.1-.1-.3-.2-.4,0,0-.2-.2-.4-.2-.1,0-.3,0-.4,0s-.3,0-.5,0c-.1,0-.3.1-.4.2,0,0-.2.2-.2.4,0,.1,0,.3,0,.5Z" fill="#11322c" stroke-width="0"/>
  <path d="M81.1,33.2l2.3-2.2c.2-.2.3-.4.4-.5.1-.2.2-.4.2-.6s0-.5-.3-.7c-.2-.2-.4-.2-.7-.2s-.5,0-.7.3c-.2.2-.3.4-.3.7h-1c0-.4,0-.6.2-.8.1-.2.3-.4.4-.5s.4-.3.6-.3c.2,0,.5-.1.8-.1s.5,0,.7.1c.2,0,.4.2.6.3.2.1.3.3.4.5.1.2.2.5.2.7s0,.4,0,.5c0,.2-.1.3-.2.5,0,.1-.2.3-.3.4-.1.1-.2.3-.4.4l-1.7,1.6h2.6v.9h-3.9v-.9Z" fill="#11322c" stroke-width="0"/>
  <path d="M80.3,31.2c0,.5,0,.9-.1,1.3,0,.4-.2.7-.4,1-.2.3-.4.5-.6.6-.3.1-.5.2-.9.2s-.6,0-.9-.2c-.3-.1-.5-.3-.7-.6-.2-.3-.3-.6-.4-1,0-.4-.1-.8-.1-1.3s0-.9.1-1.3c0-.4.2-.7.4-1,.2-.3.4-.5.7-.6.3-.1.6-.2.9-.2s.6,0,.9.2c.3.1.5.3.6.6.2.3.3.6.4,1,0,.4.1.8.1,1.3ZM79.3,31.2c0-.2,0-.4,0-.7,0-.3,0-.5-.1-.7,0-.2-.2-.4-.3-.6-.1-.2-.3-.2-.5-.2s-.4,0-.5.2c-.1.2-.2.3-.3.6,0,.2-.1.5-.1.7,0,.3,0,.5,0,.7s0,.4,0,.7c0,.3,0,.5.1.7,0,.2.2.4.3.6.1.2.3.2.5.2s.4,0,.5-.2c.1-.2.2-.4.3-.6,0-.2.1-.5.1-.7,0-.3,0-.5,0-.7Z" fill="#11322c" stroke-width="0"/>
  <path d="M71.6,33.2l2.3-2.2c.2-.2.3-.4.4-.5.1-.2.2-.4.2-.6s0-.5-.3-.7c-.2-.2-.4-.2-.7-.2s-.5,0-.7.3c-.2.2-.3.4-.3.7h-1c0-.4,0-.6.2-.8.1-.2.3-.4.4-.5.2-.1.4-.3.6-.3.2,0,.5-.1.8-.1s.5,0,.7.1c.2,0,.4.2.6.3.2.1.3.3.4.5.1.2.2.5.2.7s0,.4,0,.5c0,.2-.1.3-.2.5,0,.1-.2.3-.3.4-.1.1-.2.3-.4.4l-1.7,1.6h2.6v.9h-3.9v-.9Z" fill="#11322c" stroke-width="0"/>
  <path d="M65.1,28.3h3.9v.9h-2.8v1.5h2.7v.9h-2.7v1.7h3v.9h-4v-5.8Z" fill="#11322c" stroke-width="0"/>
  <path d="M63.8,29.7c-.2-.2-.4-.4-.6-.5-.2,0-.5-.1-.7-.1s-.6,0-.8.2c-.2.1-.5.3-.6.5-.2.2-.3.4-.4.7,0,.3-.1.5-.1.8s0,.6.1.9c0,.3.2.5.4.7.2.2.4.3.6.4.2.1.5.2.8.2s.6,0,.8-.2c.2-.1.4-.3.6-.5l.8.6c-.3.3-.6.6-1,.8-.4.2-.8.3-1.3.3s-.9,0-1.3-.2c-.4-.2-.7-.4-1-.6-.3-.3-.5-.6-.6-1-.2-.4-.2-.8-.2-1.3s0-.9.2-1.3c.2-.4.4-.7.7-1,.3-.3.6-.5,1-.6s.8-.2,1.3-.2.4,0,.6,0c.2,0,.4,0,.6.2.2,0,.4.2.5.3.2.1.3.2.4.4l-.8.6Z" fill="#11322c" stroke-width="0"/>
  <path d="M57.5,28.3h1v5.8h-1v-5.8Z" fill="#11322c" stroke-width="0"/>
  <path d="M50.5,31.2c0-.5,0-.9.2-1.3.2-.4.4-.7.7-1,.3-.3.6-.5,1-.6.4-.1.8-.2,1.3-.2s.9,0,1.3.2.7.3,1,.6c.3.3.5.6.7,1,.2.4.2.8.2,1.3s0,.9-.2,1.3c-.2.4-.4.7-.7,1-.3.3-.6.5-1,.6-.4.1-.8.2-1.3.2s-.9,0-1.3-.2c-.4-.2-.7-.4-1-.6-.3-.3-.5-.6-.7-1-.2-.4-.2-.8-.2-1.3ZM51.7,31.2c0,.3,0,.6.1.9,0,.3.2.5.4.7.2.2.4.3.6.5.2.1.5.2.8.2s.6,0,.8-.2c.2-.1.5-.3.6-.5.2-.2.3-.4.4-.7,0-.3.1-.6.1-.9s0-.6-.1-.8c0-.3-.2-.5-.4-.7-.2-.2-.4-.3-.6-.5-.2-.1-.5-.2-.8-.2s-.6,0-.8.2c-.2.1-.5.3-.6.5-.2.2-.3.4-.4.7,0,.3-.1.5-.1.8Z" fill="#11322c" stroke-width="0"/>
  <path d="M45,28.3h1v2.4h2.7v-2.4h1v5.8h-1v-2.6h-2.7v2.6h-1v-5.8Z" fill="#11322c" stroke-width="0"/>
  <path d="M43.7,29.7c-.2-.2-.4-.4-.6-.5-.2,0-.5-.1-.7-.1s-.6,0-.8.2c-.2.1-.5.3-.6.5-.2.2-.3.4-.4.7,0,.3-.1.5-.1.8s0,.6.1.9.2.5.4.7c.2.2.4.3.6.4.2.1.5.2.8.2s.6,0,.8-.2c.2-.1.4-.3.6-.5l.8.6c-.3.3-.6.6-1,.8-.4.2-.8.3-1.3.3s-.9,0-1.3-.2c-.4-.2-.7-.4-1-.6-.3-.3-.5-.6-.6-1-.2-.4-.2-.8-.2-1.3s0-.9.2-1.3c.2-.4.4-.7.7-1,.3-.3.6-.5,1-.6.4-.1.8-.2,1.3-.2s.4,0,.6,0c.2,0,.4,0,.6.2.2,0,.4.2.5.3.2.1.3.2.4.4l-.8.6Z" fill="#11322c" stroke-width="0"/>
  <path d="M36.2,29.5c-.1-.1-.3-.3-.5-.4-.2,0-.4-.1-.6-.1s-.2,0-.4,0c-.1,0-.2,0-.3.1,0,0-.2.1-.2.2,0,0,0,.2,0,.4s0,.2,0,.3c0,0,.1.2.2.2,0,0,.2.1.4.2s.3,0,.5.1c.2,0,.4.1.6.2.2,0,.4.2.6.3.2.1.3.3.4.5.1.2.2.4.2.7s0,.6-.2.8c-.1.2-.3.4-.5.6s-.4.3-.7.3-.5.1-.8.1-.8,0-1.1-.2c-.4-.1-.7-.4-.9-.6l.7-.7c.1.2.3.4.6.5.2.1.5.2.7.2s.2,0,.4,0c.1,0,.2,0,.3-.2.1,0,.2-.2.2-.3,0-.1,0-.2,0-.4s0-.3-.1-.4c0-.1-.2-.2-.3-.3-.1,0-.3-.1-.4-.2-.2,0-.3-.1-.5-.2-.2,0-.4-.1-.5-.2-.2,0-.3-.2-.5-.3-.1-.1-.3-.3-.3-.5,0-.2-.1-.4-.1-.7s0-.6.2-.8c.1-.2.3-.4.5-.5.2-.1.4-.2.7-.3.3,0,.5-.1.8-.1s.6,0,.9.2c.3.1.6.3.8.5l-.7.7Z" fill="#11322c" stroke-width="0"/>
  <path d="M30,29.2h-1.8v-.9h4.6v.9h-1.8v4.9h-1v-4.9Z" fill="#11322c" stroke-width="0"/>
  <path d="M24,28.3h2c.3,0,.5,0,.8,0,.3,0,.5.1.7.3.2.1.4.3.5.5.1.2.2.5.2.8s-.1.8-.4,1c-.2.3-.6.4-1,.5l1.6,2.6h-1.3l-1.4-2.5h-.8v2.5h-1v-5.8ZM25.9,30.8c.1,0,.3,0,.4,0,.1,0,.3,0,.4-.1.1,0,.2-.1.3-.3,0-.1.1-.3.1-.4s0-.3-.1-.4c0-.1-.2-.2-.3-.2-.1,0-.2-.1-.4-.1-.1,0-.3,0-.4,0h-.9v1.6h.9Z" fill="#11322c" stroke-width="0"/>
  <path d="M19.2,28.3h3.9v.9h-2.8v1.5h2.7v.9h-2.7v1.7h3v.9h-4v-5.8Z" fill="#11322c" stroke-width="0"/>
  <path d="M14.5,28.3h1.9c.3,0,.6,0,.9,0,.3,0,.5.2.7.3.2.1.3.3.4.5.1.2.2.5.2.8s0,.6-.2.8c-.1.2-.3.4-.5.5-.2.1-.4.2-.7.3s-.6,0-.9,0h-.8v2.4h-1v-5.8ZM16.2,30.9c.2,0,.3,0,.5,0,.2,0,.3,0,.4-.1.1,0,.2-.2.3-.3,0-.1.1-.3.1-.4s0-.3-.1-.4c0-.1-.2-.2-.3-.3-.1,0-.3,0-.4-.1-.1,0-.3,0-.5,0h-.8v1.7h.7Z" fill="#11322c" stroke-width="0"/>
  <path d="M10.7,31l-1.8-2.7h1.3l1.2,2,1.2-2h1.2l-1.8,2.8,2.1,3.1h-1.3l-1.4-2.3-1.4,2.3h-1.3l2-3.1Z" fill="#11322c" stroke-width="0"/>
  <path d="M4.5,28.3h3.9v.9h-2.8v1.5h2.7v.9h-2.7v1.7h3v.9h-4v-5.9Z" fill="#11322c" stroke-width="0"/>
  <g>
    <path d="M47.1,21.5h-3.6v-8.2c0-.8-.3-2.7-2.6-2.7s-2.7,1.1-2.7,2.7v8.2h-3.6v-8.2c0-.8-.2-2.7-2.6-2.7s-2.7,1.1-2.7,2.7v8.2h-3.6v-8.1c0-3.6,2.5-6.2,6.3-6.2s3.4.8,4.4,2c1.1-1.2,2.6-2,4.4-2,3.9,0,6.2,2.6,6.2,6.2v8.1Z" fill="#20702d" fill-rule="evenodd" stroke-width="0"/>
    <path d="M58.9,14.4c0-2.4-1.5-4.1-3.4-4.1s-3.4,1.7-3.4,4.1,1.5,4,3.4,4,3.4-1.6,3.4-4ZM62.5,14.3c0,4.2-3.2,7.3-7,7.3s-7-3.1-7-7.3,3.1-7.4,7-7.4,7,3.2,7,7.4Z" fill="#20702d" fill-rule="evenodd" stroke-width="0"/>
    <path d="M75.4,21.4h-12.1v-3.1l7.3-7.7h-7v-3.2h11.5v3.2l-7.2,7.6h7.4v3.2Z" fill="#20702d" fill-rule="evenodd" stroke-width="0"/>
    <path d="M86.7,14.4c0-2.4-1.5-4.1-3.4-4.1s-3.4,1.7-3.4,4.1,1.5,4,3.4,4,3.4-1.6,3.4-4ZM90.3,14.3c0,4.2-3.2,7.3-7,7.3s-7-3.1-7-7.3,3.1-7.4,7-7.4,7,3.2,7,7.4Z" fill="#20702d" fill-rule="evenodd" stroke-width="0"/>
    <path d="M0,6.6S18.6.9,21.5,19.9C21.5,19.9,21,1.2.1,0c0,0-.1,0-.1,0v6.6Z" fill="url(#linear-gradient)" fill-rule="evenodd" stroke-width="0"/>
    <path d="M21.7,21.8v-6.6c0,0-16.8,6.3-21.2-12.8,0,0,1,19.4,21.2,19.4Z" fill="url(#linear-gradient-2)" fill-rule="evenodd" stroke-width="0"/>
    <path d="M21.7,21.8v-8.2c0-5.5-.4-6.7-2.1-9.2C17.4,1.5,13.9,0,10,0H0c22,4,21.7,21.8,21.7,21.8Z" fill="#38b449" fill-rule="evenodd" stroke-width="0"/>
    <path d="M13.5,21.8c-5.5,0-6.7-.3-9.1-2.1C1.4,17.6,0,14,0,10V0c4,22.2,21.6,21.8,21.6,21.8h-8.1Z" fill="#38b449" fill-rule="evenodd" stroke-width="0"/>
  </g>
</svg>