<?xml version="1.0" encoding="utf-8"?>
<!-- Generator: Adobe Illustrator 27.7.0, SVG Export Plug-In . SVG Version: 6.00 Build 0)  -->
<svg version="1.1" id="Layer_1" xmlns="http://www.w3.org/2000/svg" xmlns:xlink="http://www.w3.org/1999/xlink" x="0px" y="0px"
	 viewBox="0 0 177 30" style="enable-background:new 0 0 177 30;" xml:space="preserve">
<path d="M5.5,10.1c1.9,0,3.1-1.4,3.1-3.6V6.4c0-2.1-1.1-3.6-3.1-3.6S2.3,4.3,2.3,6.4v0.1C2.3,8.7,3.7,10.1,5.5,10.1z M5.5,11.6
	c-3.1,0-5.1-2.2-5.1-5.1V6.4c0-2.9,2.1-5.1,5.1-5.1c3,0,5,2.1,5,5.1v0.1C10.5,9.4,8.5,11.6,5.5,11.6z M18.1,11.6
	c-2.1,0-3.7-1.4-3.7-3.7V7.8c0-2.3,1.7-3.8,3.7-3.8c1.6,0,3.1,0.7,3.3,2.7h-1.6c-0.1-1-0.8-1.4-1.7-1.4c-1.2,0-2,0.9-2,2.4v0.1
	c0,1.6,0.8,2.4,2,2.4c0.9,0,1.7-0.5,1.8-1.6h1.6C21.4,10.4,20.1,11.6,18.1,11.6z M26,10.3c1.3,0,2-0.9,2-2.4V7.8
	c0-1.5-0.8-2.4-2-2.4s-2,0.9-2,2.4v0.1C23.9,9.4,24.7,10.3,26,10.3z M26,11.6c-2.2,0-3.8-1.5-3.8-3.7V7.8C22.2,5.5,23.8,4,26,4
	c2.1,0,3.8,1.5,3.8,3.7v0.1C29.7,10.2,28.1,11.6,26,11.6z M35.1,11.6c-1.2,0-2-0.6-2.4-1.3v1.2H31V0.8h1.7v4.6C33.1,4.7,34,4,35.1,4
	c1.8,0,3.2,1.4,3.2,3.7v0.1C38.3,10.2,37,11.6,35.1,11.6z M34.6,10.3c1.2,0,1.9-0.8,1.9-2.4V7.8c0-1.6-0.8-2.4-1.9-2.4
	c-1.2,0-2,0.8-2,2.4v0.1C32.6,9.5,33.4,10.3,34.6,10.3z M39.6,11.5V4.2h1.7v1.4c0.5-0.9,1.1-1.5,2.4-1.5v1.6c-1.5,0-2.4,0.5-2.4,2
	v3.8H39.6z M47.9,11.6c-2.2,0-3.7-1.4-3.7-3.7V7.8c0-2.3,1.6-3.8,3.6-3.8c1.8,0,3.5,1.1,3.5,3.7v0.5H46c0.1,1.4,0.8,2.2,2,2.2
	c1,0,1.6-0.4,1.7-1.1h1.6C51,10.8,49.8,11.6,47.9,11.6z M46,7.1h3.7c-0.1-1.3-0.7-1.8-1.8-1.8C46.8,5.3,46.1,5.9,46,7.1z M58,3.1
	l0.8-2.2h1.9l-1.5,2.2H58z M58.8,11.6c-2.2,0-3.7-1.4-3.7-3.7V7.8c0-2.3,1.6-3.8,3.6-3.8c1.8,0,3.5,1.1,3.5,3.7v0.5h-5.4
	c0.1,1.4,0.8,2.2,2,2.2c1,0,1.6-0.4,1.7-1.1h1.6C61.9,10.8,60.7,11.6,58.8,11.6z M56.9,7.1h3.7c-0.1-1.3-0.7-1.8-1.8-1.8
	C57.7,5.3,57,5.9,56.9,7.1z M69.7,11.6c-2.2,0-3.7-1.4-3.7-3.7V7.8C66,5.5,67.6,4,69.6,4c1.8,0,3.5,1.1,3.5,3.7v0.5h-5.4
	c0.1,1.4,0.8,2.2,2,2.2c1,0,1.6-0.4,1.7-1.1h1.6C72.8,10.8,71.6,11.6,69.7,11.6z M67.8,7.1h3.7c-0.1-1.3-0.7-1.8-1.8-1.8
	C68.6,5.3,67.9,5.9,67.8,7.1z M76.9,11.6c-1.9,0-3-0.9-3.1-2.4h1.6c0.1,0.7,0.5,1.2,1.5,1.2c0.9,0,1.3-0.3,1.3-0.9
	c0-0.6-0.5-0.8-1.6-1C74.7,8.1,74,7.6,74,6.2C74,4.8,75.4,4,76.7,4c1.5,0,2.7,0.6,2.9,2.2H78c-0.1-0.7-0.5-1-1.3-1
	c-0.7,0-1.2,0.3-1.2,0.9c0,0.5,0.3,0.7,1.5,0.9c1.7,0.3,2.7,0.7,2.7,2.2C79.8,10.8,78.8,11.6,76.9,11.6z M83.6,11.6
	c-1.9,0-3-0.9-3.1-2.4h1.6c0.1,0.7,0.5,1.2,1.5,1.2c0.9,0,1.3-0.3,1.3-0.9c0-0.6-0.5-0.8-1.6-1c-1.9-0.3-2.6-0.9-2.6-2.2
	C80.6,4.8,82,4,83.4,4c1.5,0,2.7,0.6,2.9,2.2h-1.6c-0.1-0.7-0.5-1-1.3-1c-0.7,0-1.2,0.3-1.2,0.9c0,0.5,0.4,0.7,1.5,0.9
	c1.7,0.3,2.7,0.7,2.7,2.2C86.5,10.8,85.4,11.6,83.6,11.6z M90.9,11.6c-2.2,0-3.7-1.4-3.7-3.7V7.8c0-2.3,1.6-3.8,3.6-3.8
	c1.8,0,3.5,1.1,3.5,3.7v0.5h-5.4c0.1,1.4,0.8,2.2,2,2.2c1,0,1.6-0.4,1.7-1.1h1.6C94,10.8,92.8,11.6,90.9,11.6z M89,7.1h3.7
	c-0.1-1.3-0.7-1.8-1.8-1.8C89.8,5.3,89.1,5.9,89,7.1z M95.5,11.5V4.2h1.7v1.2C97.6,4.6,98.4,4,99.6,4c1.5,0,2.5,0.9,2.5,2.9v4.6
	h-1.7V7c0-1.1-0.4-1.6-1.5-1.6c-1,0-1.7,0.6-1.7,1.8v4.3H95.5z M107,11.6c-2.1,0-3.7-1.4-3.7-3.7V7.8c0-2.3,1.7-3.8,3.7-3.8
	c1.6,0,3.1,0.7,3.3,2.7h-1.6c-0.1-1-0.8-1.4-1.7-1.4c-1.2,0-2,0.9-2,2.4v0.1c0,1.6,0.8,2.4,2,2.4c0.9,0,1.7-0.5,1.8-1.6h1.6
	C110.2,10.4,109,11.6,107,11.6z M111.6,11.5V4.2h1.7v7.3H111.6z M112.4,3c-0.6,0-1-0.4-1-1c0-0.6,0.4-1,1-1s1,0.4,1,1
	C113.4,2.6,113,3,112.4,3z M117,11.6c-1.3,0-2.4-0.6-2.4-2.2c0-1.7,1.7-2.3,3.8-2.3h0.9V6.8c0-1-0.3-1.5-1.3-1.5
	c-0.9,0-1.3,0.4-1.4,1.1h-1.6C115,4.7,116.3,4,118,4s2.9,0.7,2.9,2.7v4.8h-1.7v-0.9C118.7,11.2,118.1,11.6,117,11.6z M117.4,10.4
	c1,0,1.8-0.5,1.8-1.5V8.2h-0.9c-1.3,0-2.1,0.3-2.1,1.2C116.2,10,116.5,10.4,117.4,10.4z M122.6,11.5V0.8h1.7v10.7H122.6z"/>
</svg>
