<?xml version="1.0" encoding="utf-8"?>
<!-- Generator: Adobe Illustrator 27.7.0, SVG Export Plug-In . SVG Version: 6.00 Build 0)  -->
<svg version="1.1" id="Layer_1" xmlns="http://www.w3.org/2000/svg" xmlns:xlink="http://www.w3.org/1999/xlink" x="0px" y="0px"
	 viewBox="0 0 177 30" style="enable-background:new 0 0 177 30;" xml:space="preserve">
<path d="M0.7,29v-9.8h1.7v1.2C2.8,19.7,3.8,19,4.8,19c1.8,0,3.2,1.4,3.2,3.7v0.1c0,2.4-1.4,3.8-3.2,3.8c-1.2,0-2-0.6-2.4-1.3V29H0.7
	z M4.4,25.3c1.2,0,1.9-0.8,1.9-2.4v-0.1c0-1.6-0.8-2.4-1.9-2.4c-1.2,0-2,0.8-2,2.4v0.1C2.4,24.5,3.2,25.3,4.4,25.3z M11.2,26.6
	c-1.3,0-2.4-0.6-2.4-2.2c0-1.7,1.7-2.3,3.8-2.3h0.9v-0.4c0-1-0.3-1.5-1.3-1.5c-0.9,0-1.3,0.4-1.4,1.1H9.1c0.1-1.7,1.5-2.4,3.1-2.4
	s2.9,0.7,2.9,2.7v4.8h-1.7v-0.9C13,26.2,12.4,26.6,11.2,26.6z M11.7,25.4c1,0,1.8-0.5,1.8-1.5v-0.7h-0.9c-1.3,0-2.1,0.3-2.1,1.2
	C10.5,25,10.8,25.4,11.7,25.4z M16.8,26.5v-7.3h1.7v1.4c0.5-0.9,1.1-1.5,2.4-1.5v1.6c-1.5,0-2.4,0.5-2.4,2v3.8H16.8z M23.9,26.6
	c-1.3,0-2.5-0.6-2.5-2.2c0-1.7,1.7-2.3,3.8-2.3h0.9v-0.4c0-1-0.3-1.5-1.3-1.5c-0.9,0-1.3,0.4-1.4,1.1h-1.6c0.1-1.7,1.5-2.4,3.1-2.4
	s2.9,0.7,2.9,2.7v4.8h-1.7v-0.9C25.6,26.2,25,26.6,23.9,26.6z M24.3,25.4c1,0,1.8-0.5,1.8-1.5v-0.7h-0.9c-1.3,0-2.1,0.3-2.1,1.2
	C23.1,25,23.4,25.4,24.3,25.4z M34.4,26.6c-1.3,0-2.5-0.6-2.5-2.2c0-1.7,1.7-2.3,3.8-2.3h0.9v-0.4c0-1-0.3-1.5-1.3-1.5
	c-0.9,0-1.3,0.4-1.4,1.1h-1.6c0.1-1.7,1.5-2.4,3.1-2.4s2.9,0.7,2.9,2.7v4.8h-1.7v-0.9C36.2,26.2,35.5,26.6,34.4,26.6z M34.8,25.4
	c1,0,1.8-0.5,1.8-1.5v-0.7h-0.9c-1.3,0-2.1,0.3-2.1,1.2C33.6,25,34,25.4,34.8,25.4z M45.5,26.6c-1.5,0-2.2-0.8-2.2-2.2v-4h-1v-1.3h1
	v-1.6H45v1.6h1.6v1.3H45v3.9c0,0.6,0.3,0.9,0.8,0.9c0.3,0,0.6,0,0.8-0.1v1.3C46.4,26.5,46.1,26.6,45.5,26.6z M47.9,26.5v-7.3h1.7
	v1.4c0.5-0.9,1.1-1.5,2.4-1.5v1.6c-1.5,0-2.4,0.5-2.4,2v3.8H47.9z M55,26.6c-1.3,0-2.5-0.6-2.5-2.2c0-1.7,1.7-2.3,3.8-2.3h0.9v-0.4
	c0-1-0.3-1.5-1.3-1.5c-0.9,0-1.3,0.4-1.4,1.1h-1.6C53,19.7,54.3,19,56,19s2.9,0.7,2.9,2.7v4.8h-1.7v-0.9
	C56.8,26.2,56.1,26.6,55,26.6z M55.4,25.4c1,0,1.8-0.5,1.8-1.5v-0.7h-0.9c-1.3,0-2.1,0.3-2.1,1.2C54.2,25,54.6,25.4,55.4,25.4z
	 M60.6,26.5v-7.3h1.7v1.2c0.3-0.7,1.2-1.3,2.4-1.3c1.5,0,2.5,0.9,2.5,2.9v4.6h-1.7V22c0-1.1-0.4-1.6-1.5-1.6c-1,0-1.7,0.6-1.7,1.8
	v4.3H60.6z M71.3,26.6c-1.9,0-3-0.9-3.1-2.4h1.6c0.1,0.7,0.5,1.2,1.5,1.2c0.9,0,1.3-0.3,1.3-0.9c0-0.6-0.5-0.8-1.6-1
	c-1.9-0.3-2.6-0.9-2.6-2.2c0-1.5,1.4-2.2,2.7-2.2c1.5,0,2.7,0.6,2.9,2.2h-1.6c-0.1-0.7-0.5-1-1.3-1c-0.7,0-1.2,0.4-1.2,0.9
	c0,0.5,0.4,0.7,1.5,0.9c1.7,0.3,2.7,0.7,2.7,2.2C74.2,25.8,73.2,26.6,71.3,26.6z M75.5,26.5v-7.3h1.7v7.3H75.5z M76.3,18
	c-0.6,0-1-0.4-1-1c0-0.6,0.4-1,1-1s1,0.4,1,1C77.3,17.6,76.9,18,76.3,18z M81.9,29.6c-0.9,0-1.5-0.5-1.5-1.2h0.9
	c0,0.2,0.2,0.5,0.6,0.5c0.3,0,0.5-0.2,0.5-0.5c0-0.3-0.2-0.4-0.5-0.4c-0.2,0-0.3,0.1-0.4,0.1L81,27.5l0.6-1
	c-1.8-0.2-3.1-1.6-3.1-3.7v-0.1c0-2.3,1.7-3.8,3.7-3.8c1.6,0,3.2,0.7,3.3,2.7h-1.6c-0.1-1-0.8-1.4-1.7-1.4c-1.2,0-2,0.9-2,2.4v0.1
	c0,1.6,0.8,2.4,2,2.4c0.9,0,1.7-0.5,1.8-1.6h1.6c-0.1,1.6-1.3,2.8-3.2,2.9L82,27.2c0.7-0.1,1.4,0.3,1.4,1.2
	C83.4,29.1,82.8,29.6,81.9,29.6z M88.7,26.6c-1.3,0-2.4-0.6-2.4-2.2c0-1.7,1.7-2.3,3.8-2.3h0.9v-0.4c0-1-0.3-1.5-1.3-1.5
	c-0.9,0-1.3,0.4-1.4,1.1h-1.6c0.1-1.7,1.5-2.4,3.1-2.4s2.9,0.7,2.9,2.7v4.8h-1.7v-0.9C90.4,26.2,89.8,26.6,88.7,26.6z M89.1,25.4
	c1,0,1.8-0.5,1.8-1.5v-0.7H90c-1.3,0-2.1,0.3-2.1,1.2C87.9,25,88.2,25.4,89.1,25.4z M90.4,18c-0.7,0-1.1-0.6-1.6-0.6
	c-0.3,0-0.5,0.2-0.5,0.6h-1c0.1-1.2,0.7-1.8,1.5-1.8c0.6,0,1.1,0.5,1.6,0.5c0.3,0,0.4-0.2,0.5-0.6h1C91.8,17.3,91.2,18,90.4,18z
	 M97.5,25.3c1.3,0,2-0.9,2-2.4v-0.1c0-1.5-0.8-2.4-2-2.4c-1.3,0-2,0.9-2,2.4v0.1C95.5,24.4,96.2,25.3,97.5,25.3z M97.5,26.6
	c-2.2,0-3.8-1.5-3.8-3.7v-0.1c0-2.3,1.6-3.8,3.8-3.8c2.1,0,3.8,1.5,3.8,3.7v0.1C101.2,25.2,99.6,26.6,97.5,26.6z M108.8,26.6
	c-2.2,0-3.7-1.4-3.7-3.7v-0.1c0-2.3,1.6-3.8,3.6-3.8c1.8,0,3.5,1.1,3.5,3.7v0.5h-5.4c0.1,1.4,0.8,2.2,2,2.2c1,0,1.6-0.4,1.7-1.1h1.6
	C111.9,25.8,110.7,26.6,108.8,26.6z M106.8,22.1h3.7c-0.1-1.3-0.7-1.8-1.8-1.8C107.7,20.3,107,20.9,106.8,22.1z M113.4,26.5v-7.3
	h1.7v1.2c0.4-0.7,1.2-1.3,2.4-1.3c1.5,0,2.5,0.9,2.5,2.9v4.6h-1.7V22c0-1.1-0.4-1.6-1.5-1.6c-1,0-1.7,0.6-1.7,1.8v4.3H113.4z
	 M124.9,26.6c-2.2,0-3.7-1.4-3.7-3.7v-0.1c0-2.3,1.6-3.8,3.6-3.8c1.8,0,3.5,1.1,3.5,3.7v0.5h-5.4c0.1,1.4,0.8,2.2,2,2.2
	c1,0,1.6-0.4,1.7-1.1h1.6C128,25.8,126.7,26.6,124.9,26.6z M122.9,22.1h3.7c-0.1-1.3-0.7-1.8-1.8-1.8
	C123.8,20.3,123.1,20.9,122.9,22.1z M129.5,26.5v-7.3h1.7v1.4c0.5-0.9,1.1-1.5,2.4-1.5v1.6c-1.5,0-2.4,0.5-2.4,2v3.8H129.5z
	 M137.7,29.2c-2.3,0-3.3-1-3.5-2.4h1.7c0.1,0.7,0.7,1.1,1.8,1.1c1.3,0,2-0.7,2-2v-1.1c-0.4,0.7-1.3,1.4-2.4,1.4
	c-1.8,0-3.2-1.4-3.2-3.5v-0.1c0-2.1,1.4-3.6,3.3-3.6c1.2,0,1.9,0.5,2.4,1.3v-1.1h1.7V26C141.5,28.1,140,29.2,137.7,29.2z
	 M137.8,24.9c1.2,0,2-0.8,2-2.2v-0.1c0-1.4-0.8-2.2-2-2.2c-1.3,0-2,0.9-2,2.2v0.1C135.9,24.1,136.7,24.9,137.8,24.9z M145.6,18.1
	l0.8-2.2h1.9l-1.5,2.2H145.6z M146.4,26.6c-2.2,0-3.7-1.4-3.7-3.7v-0.1c0-2.3,1.6-3.8,3.6-3.8c1.8,0,3.5,1.1,3.5,3.7v0.5h-5.4
	c0.1,1.4,0.8,2.2,2,2.2c1,0,1.6-0.4,1.7-1.1h1.6C149.5,25.8,148.3,26.6,146.4,26.6z M144.5,22.1h3.7c-0.1-1.3-0.7-1.8-1.8-1.8
	C145.3,20.3,144.6,20.9,144.5,22.1z M153.5,26.6c-1.5,0-2.2-0.8-2.2-2.2v-4h-1v-1.3h1v-1.6h1.7v1.6h1.6v1.3H153v3.9
	c0,0.6,0.3,0.9,0.8,0.9c0.3,0,0.6,0,0.8-0.1v1.3C154.4,26.5,154.1,26.6,153.5,26.6z M156,26.5v-7.3h1.7v7.3H156z M156.8,18
	c-0.6,0-1-0.4-1-1c0-0.6,0.4-1,1-1s1,0.4,1,1C157.8,17.6,157.4,18,156.8,18z M162.7,26.6c-2.1,0-3.7-1.4-3.7-3.7v-0.1
	c0-2.3,1.7-3.8,3.7-3.8c1.6,0,3.1,0.7,3.3,2.7h-1.6c-0.1-1-0.8-1.4-1.7-1.4c-1.2,0-2,0.9-2,2.4v0.1c0,1.6,0.8,2.4,2,2.4
	c0.9,0,1.7-0.5,1.8-1.6h1.6C165.9,25.5,164.6,26.6,162.7,26.6z M169.1,26.6c-1.3,0-2.5-0.6-2.5-2.2c0-1.7,1.7-2.3,3.8-2.3h0.9v-0.4
	c0-1-0.3-1.5-1.3-1.5c-0.9,0-1.3,0.4-1.4,1.1H167c0.1-1.7,1.5-2.4,3.1-2.4s2.9,0.7,2.9,2.7v4.8h-1.7v-0.9
	C170.9,26.2,170.3,26.6,169.1,26.6z M169.5,25.4c1,0,1.8-0.5,1.8-1.5v-0.7h-0.9c-1.3,0-2.1,0.3-2.1,1.2
	C168.4,25,168.7,25.4,169.5,25.4z M175.7,26.6c-0.6,0-1.1-0.5-1.1-1.1c0-0.6,0.5-1.1,1.1-1.1c0.6,0,1.1,0.5,1.1,1.1
	C176.8,26.1,176.3,26.6,175.7,26.6z"/>
</svg>
