<?xml version="1.0" encoding="utf-8"?>
<!-- Generator: Adobe Illustrator 25.4.0, SVG Export Plug-In . SVG Version: 6.00 Build 0)  -->
<svg version="1.1" id="Layer_1" xmlns="http://www.w3.org/2000/svg" xmlns:xlink="http://www.w3.org/1999/xlink" x="0px" y="0px"
	 viewBox="0 0 88 34" style="enable-background:new 0 0 88 34;" xml:space="preserve">
<style type="text/css">
	.st0{fill:#DD5900;}
</style>
<g>
	<path id="XMLID_43_" class="st0" d="M87.4,10.5c0,5.8-4.7,10.5-10.5,10.5h-7.1v12.3h-8.2V0h15.3C82.7,0,87.4,4.7,87.4,10.5z
		 M75.6,6.9h-5.8v6.9h5.8c1.8,0,3.3-1.6,3.3-3.4C78.9,8.5,77.4,6.9,75.6,6.9z M48.4,0v13.5H37V0h-8.2v33.4H37V21.1h11.4v12.3h8.2V0
		H48.4z M25.6,24.3c0,5.5-4.9,9.1-10.2,9.1H0V0h14.8c5.4,0,10,4,10,8.9c0,3.9-1.8,6-4.4,7.6C23.3,17.8,25.6,19.6,25.6,24.3z
		 M13.7,19.9H8.2v6.4h5.5c2.1,0,3.3-1.4,3.3-3.2C17,21.3,15.5,19.9,13.7,19.9z M12.9,6.9H8.2v6.9h4.7c2.2,0,3.3-1.6,3.3-3.4
		C16.2,8.5,15.1,6.9,12.9,6.9z"/>
</g>
</svg>
