<svg width="160" height="600" viewBox="0 0 160 600" fill="none" xmlns="http://www.w3.org/2000/svg">
<path d="M25.2125 356V337.312H17.73V331.654H39.1555V337.312H31.746V356H25.2125Z" fill="white"/>
<path d="M97.2125 356V337.312H89.73V331.654H111.156V337.312H103.746V356H97.2125Z" fill="white"/>
<path d="M121.183 353.007L125.088 348.298C125.769 348.98 126.658 349.6 127.753 350.16C128.872 350.72 130.076 350.999 131.366 350.999C132.023 350.999 132.656 350.866 133.264 350.598C133.872 350.33 134.177 349.819 134.177 349.065C134.177 348.432 133.848 347.909 133.191 347.495C132.534 347.057 131.597 346.644 130.38 346.254L129.03 345.816C128.032 345.476 127.035 345.026 126.037 344.466C125.064 343.882 124.249 343.14 123.592 342.239C122.959 341.339 122.643 340.232 122.643 338.918C122.643 337.409 122.995 336.059 123.701 334.866C124.431 333.674 125.502 332.737 126.913 332.056C128.324 331.35 130.04 330.997 132.06 330.997C133.666 330.997 135.053 331.18 136.221 331.545C137.413 331.91 138.398 332.336 139.177 332.822C139.956 333.309 140.528 333.747 140.893 334.136L137.608 338.297C136.756 337.665 135.868 337.154 134.943 336.764C134.018 336.351 133.069 336.144 132.096 336.144C131.463 336.144 130.855 336.29 130.271 336.582C129.711 336.85 129.432 337.324 129.432 338.005C129.432 338.76 129.772 339.307 130.454 339.648C131.135 339.989 131.999 340.329 133.045 340.67L134.213 341.035C135.04 341.278 135.868 341.595 136.695 341.984C137.547 342.349 138.325 342.823 139.031 343.407C139.737 343.991 140.296 344.734 140.71 345.634C141.148 346.51 141.367 347.593 141.367 348.882C141.367 350.367 140.917 351.693 140.017 352.861C139.141 354.029 137.948 354.941 136.44 355.598C134.955 356.256 133.301 356.584 131.476 356.584C129.042 356.584 126.998 356.256 125.344 355.598C123.713 354.941 122.326 354.078 121.183 353.007Z" fill="white"/>
<path d="M121.54 331.294L118.73 340.346L114.167 340.346L115.116 331.294L121.54 331.294Z" fill="white"/>
<path d="M42.22 356V331.321H48.769V340.349H57.871V331.321H64.42V356H57.871V346.343H48.769V356H42.22Z" fill="white"/>
<path d="M68.148 356L77.213 331.321H84.724L93.456 356H86.389L84.798 350.894H76.547L74.919 356H68.148ZM77.879 346.121H83.466L80.728 337.056L77.879 346.121Z" fill="white"/>
</svg>
