<svg width="300" height="600" viewBox="0 0 300 600" fill="none" xmlns="http://www.w3.org/2000/svg">
<path d="M184.59 247.789H186.516V273.145H184.59V247.789ZM178.15 260.46V265.13C178.15 265.936 178.021 266.741 177.765 267.521C177.509 268.3 177.127 269.01 176.629 269.632C176.132 270.251 175.504 270.757 174.766 271.134C174.028 271.509 173.161 271.7 172.19 271.7C171.436 271.7 170.69 271.565 169.975 271.297C169.263 271.032 168.627 270.589 168.081 269.983C167.535 269.375 167.092 268.572 166.763 267.595C166.435 266.616 166.266 265.399 166.266 263.975C166.266 262.673 166.426 261.53 166.744 260.576C167.061 259.625 167.492 258.827 168.027 258.206C168.559 257.589 169.179 257.122 169.868 256.818C170.56 256.515 171.304 256.361 172.077 256.361C173.338 256.361 174.494 256.736 175.514 257.479C176.534 258.219 177.419 259.223 178.151 260.46H178.15ZM178.191 258.238C177.968 257.875 177.7 257.511 177.39 257.152C177 256.699 176.53 256.278 175.992 255.904C175.452 255.527 174.839 255.215 174.161 254.977C173.482 254.738 172.72 254.617 171.892 254.617C170.863 254.617 169.883 254.828 168.981 255.243C168.078 255.658 167.27 256.277 166.581 257.079C165.892 257.883 165.34 258.873 164.941 260.024C164.542 261.175 164.339 262.503 164.339 263.976C164.339 265.647 164.536 267.095 164.921 268.281C165.309 269.472 165.854 270.463 166.544 271.23C167.234 271.998 168.064 272.566 169.006 272.918C169.945 273.269 170.978 273.447 172.077 273.447C173.507 273.447 174.761 273.089 175.803 272.385C176.737 271.752 177.525 270.917 178.149 269.897V272.184C178.149 273.408 178.006 274.465 177.726 275.321C177.447 276.17 177.053 276.866 176.56 277.388C176.066 277.908 175.461 278.286 174.761 278.517C174.054 278.749 173.251 278.866 172.375 278.866C171.224 278.866 170.15 278.73 169.184 278.46C168.213 278.189 167.376 277.865 166.693 277.499L166.579 277.438L166.066 279.025L166.145 279.067C166.841 279.441 167.73 279.795 168.789 280.119C169.852 280.444 171.032 280.609 172.302 280.609C174.727 280.609 176.649 279.908 178.018 278.525C179.384 277.142 180.077 275.021 180.077 272.22V254.915H178.609L178.19 258.239L178.191 258.238ZM159.688 263.857V265.764C159.688 266.492 159.54 267.22 159.25 267.923C158.957 268.628 158.533 269.276 157.987 269.849C157.44 270.42 156.757 270.889 155.956 271.242C155.155 271.595 154.218 271.773 153.169 271.773C152.636 271.773 152.12 271.7 151.636 271.555C151.155 271.412 150.73 271.185 150.371 270.885C150.013 270.586 149.728 270.204 149.525 269.748C149.321 269.293 149.218 268.743 149.218 268.114C149.218 266.64 149.697 265.553 150.643 264.881C151.6 264.201 153.201 263.857 155.401 263.857H159.688ZM154.955 254.613C153.685 254.613 152.511 254.771 151.461 255.084C150.415 255.396 149.544 255.758 148.869 256.157L148.796 256.202L149.272 257.676L149.386 257.613C150.095 257.222 150.909 256.898 151.799 256.653C152.693 256.408 153.756 256.283 154.955 256.283C156.483 256.283 157.669 256.639 158.477 257.338C159.279 258.034 159.687 259.276 159.687 261.024V262.185H155.4C152.783 262.185 150.771 262.682 149.418 263.661C148.054 264.647 147.364 266.145 147.364 268.112C147.364 268.97 147.511 269.738 147.801 270.394C148.09 271.051 148.5 271.615 149.018 272.072C149.536 272.527 150.155 272.873 150.862 273.102C151.563 273.329 152.326 273.443 153.128 273.443C154.678 273.443 156.039 273.1 157.167 272.42C158.207 271.794 159.068 270.92 159.725 269.824L160.145 273.144H161.575V261.024C161.575 259.065 161.02 257.49 159.927 256.343C158.833 255.195 157.159 254.613 154.955 254.613Z" fill="white"/>
<path d="M119.586 224.425C118.281 225.474 118.07 227.403 119.117 228.709L135.542 249.223C136.588 250.53 138.513 250.742 139.817 249.693C141.122 248.643 141.333 246.715 140.286 245.409L123.861 224.895C123.262 224.147 122.377 223.758 121.484 223.758C120.817 223.758 120.144 223.976 119.587 224.425" fill="white"/>
<path d="M112.846 258.599C112.57 260.252 113.694 261.831 115.344 262.106L134.356 265.284C136.006 265.56 137.581 264.433 137.857 262.779C138.133 261.125 137.008 259.547 135.357 259.271L116.347 256.093C116.179 256.065 116.012 256.052 115.847 256.052C114.39 256.052 113.093 257.112 112.846 258.597" fill="white"/>
<path d="M143.775 210.474C142.113 210.668 140.912 212.188 141.104 213.853L144.133 239.979C144.327 241.644 145.844 242.847 147.505 242.654C149.166 242.459 150.367 240.94 150.174 239.274L147.146 213.15C146.965 211.603 145.643 210.454 144.123 210.454C144.008 210.454 143.891 210.461 143.773 210.474" fill="white"/>
<path d="M161.93 219.253L154.738 239C154.166 240.575 154.981 242.333 156.552 242.907C158.125 243.481 159.88 242.664 160.452 241.088L167.644 221.341C168.218 219.766 167.402 218.008 165.83 217.434C165.489 217.309 165.14 217.25 164.795 217.25C163.552 217.25 162.38 218.02 161.93 219.253Z" fill="white"/>
<path d="M173.536 233.602L165.23 242.784C164.107 244.026 164.201 245.962 165.44 247.088C166.68 248.213 168.611 248.119 169.735 246.876L178.041 237.694C179.164 236.452 179.07 234.516 177.831 233.39C177.251 232.863 176.52 232.604 175.79 232.604C174.961 232.604 174.133 232.94 173.536 233.601" fill="white"/>
<path d="M213.184 303.973C213.195 302.675 213.457 301.725 213.948 301.136C214.439 300.547 215.181 300.253 216.163 300.253C217.144 300.253 217.854 300.536 218.29 301.093C218.726 301.649 218.945 302.62 218.945 303.973H213.173H213.184ZM216.195 308.915C215.093 308.915 214.319 308.62 213.882 308.031C213.435 307.442 213.217 306.526 213.217 305.304H220.537L220.625 304.038C220.625 302.249 220.254 300.94 219.512 300.1C218.77 299.26 217.657 298.845 216.163 298.845C213.075 298.845 211.526 300.787 211.526 304.682C211.526 306.635 211.853 308.075 212.519 308.991C213.184 309.919 214.319 310.377 215.912 310.377C217.112 310.377 218.552 310.257 220.232 310.017L220.188 308.708L219.545 308.773C218.41 308.86 217.297 308.915 216.195 308.915ZM202.504 300.754C202.896 300.373 203.54 300.187 204.445 300.187C205.351 300.187 205.995 300.373 206.376 300.744C206.758 301.114 206.955 301.736 206.955 302.62C206.955 303.504 206.758 304.126 206.376 304.496C205.995 304.867 205.351 305.053 204.445 305.053C203.54 305.053 202.896 304.867 202.504 304.496C202.111 304.126 201.914 303.504 201.914 302.631C201.914 301.758 202.111 301.136 202.504 300.754ZM202.013 310.857C202.187 310.595 202.514 310.279 202.994 309.93L205.395 310.039C206.475 310.039 207.195 310.148 207.566 310.377C207.937 310.595 208.122 311.086 208.122 311.85C208.122 312.613 207.871 313.159 207.358 313.486C206.846 313.813 206.006 313.977 204.827 313.977C203.649 313.977 202.842 313.824 202.405 313.519C201.969 313.213 201.751 312.668 201.751 311.893C201.751 311.479 201.838 311.141 202.002 310.879M209.802 311.85C209.802 310.562 209.497 309.7 208.875 309.253C208.253 308.806 207.227 308.588 205.809 308.588C204.391 308.588 203.54 308.533 203.256 308.424C202.973 308.315 202.831 308.031 202.831 307.573C202.831 307.377 202.962 306.962 203.234 306.308C203.562 306.362 203.922 306.395 204.325 306.395C205.798 306.395 206.889 306.122 207.577 305.566C208.264 305.009 208.602 304.038 208.602 302.653C208.602 301.66 208.362 300.918 207.871 300.438L209.977 300.482V299.063L206.693 299.151L206.366 299.085C205.766 298.933 205.1 298.867 204.391 298.867C201.631 298.867 200.245 300.133 200.245 302.664C200.245 304.366 200.823 305.478 202.002 306.013L201.805 306.373C201.434 307.049 201.249 307.519 201.249 307.769C201.249 308.511 201.456 309.024 201.871 309.297C201.238 309.766 200.78 310.191 200.518 310.573C200.256 310.955 200.114 311.446 200.114 312.046C200.114 313.323 200.463 314.195 201.173 314.675C201.871 315.155 203.114 315.395 204.893 315.395C208.177 315.395 209.813 314.217 209.813 311.872M190.361 301.18L190.786 300.984C191.07 300.853 191.474 300.711 191.997 300.569C192.521 300.427 193.023 300.362 193.492 300.362C194.485 300.362 195.129 300.645 195.434 301.213C195.739 301.78 195.892 302.838 195.892 304.376V310.191H197.54V304.333C197.54 302.293 197.289 300.874 196.776 300.078C196.263 299.282 195.27 298.878 193.798 298.878C192.707 298.878 191.561 299.216 190.361 299.882V299.107H188.724V310.191H190.383V301.191L190.361 301.18ZM179.026 305.555C179.32 305.227 179.8 305.042 180.466 304.977L183.75 304.671V308.326L183.237 308.5C182.266 308.839 181.273 309.013 180.269 309.013C179.146 309.013 178.589 308.337 178.589 306.973C178.589 306.351 178.731 305.882 179.037 305.555M184.568 299.74C184.001 299.162 183.084 298.878 181.829 298.878C180.575 298.878 179.135 299.042 177.509 299.369L177.575 300.634L178.262 300.569C179.538 300.416 180.76 300.351 181.949 300.351C182.506 300.351 182.953 300.514 183.28 300.842C183.608 301.169 183.771 301.704 183.771 302.467V303.416L180.291 303.755C179.124 303.875 178.262 304.191 177.716 304.693C177.171 305.206 176.898 306.002 176.898 307.082C176.898 308.162 177.16 308.991 177.695 309.57C178.229 310.148 179.004 310.431 180.018 310.431C181.349 310.431 182.68 310.137 184.011 309.548C184.601 310.137 185.484 310.431 186.652 310.431L186.717 309.122C185.91 309.013 185.473 308.697 185.43 308.14V302.467C185.43 301.245 185.146 300.34 184.579 299.762M167.352 301.049L167.778 300.896C168.65 300.558 169.556 300.384 170.483 300.384C171.411 300.384 172.098 300.667 172.403 301.234C172.709 301.802 172.862 302.86 172.862 304.398V310.213H174.52V304.355C174.52 302.315 174.269 300.896 173.756 300.1C173.243 299.303 172.251 298.9 170.778 298.9C169.687 298.9 168.541 299.183 167.363 299.74V294.285H165.694V310.213H167.363V301.049H167.352ZM156.617 300.176C155.908 301.027 155.548 302.5 155.548 304.617C155.548 306.733 155.875 308.217 156.53 309.111C157.184 309.995 158.384 310.442 160.108 310.442C160.785 310.442 161.821 310.344 163.196 310.137L163.13 308.762L160.512 308.959C159.181 308.959 158.308 308.642 157.883 308.009C157.457 307.377 157.25 306.242 157.25 304.627C157.25 303.013 157.479 301.9 157.926 301.3C158.373 300.7 159.235 300.405 160.49 300.405C161.057 300.405 161.93 300.471 163.108 300.602L163.174 299.249L162.639 299.183C161.472 299.009 160.643 298.922 160.152 298.922C158.493 298.922 157.315 299.347 156.606 300.198M141.103 304.049C141.114 302.751 141.376 301.802 141.867 301.213C142.358 300.624 143.1 300.329 144.082 300.329C145.064 300.329 145.773 300.613 146.209 301.169C146.645 301.725 146.864 302.696 146.864 304.049H141.092H141.103ZM144.114 308.991C143.012 308.991 142.238 308.697 141.801 308.108C141.354 307.519 141.136 306.602 141.136 305.38H148.456L148.544 304.115C148.544 302.325 148.173 301.016 147.431 300.176C146.689 299.336 145.576 298.922 144.082 298.922C140.994 298.922 139.445 300.864 139.445 304.758C139.445 306.711 139.772 308.151 140.438 309.068C141.103 309.984 142.238 310.453 143.831 310.453C145.031 310.453 146.471 310.333 148.162 310.093L148.118 308.784L147.475 308.85C146.34 308.937 145.216 308.991 144.114 308.991ZM129.681 301.06L130.106 300.907C130.979 300.569 131.885 300.394 132.812 300.394C133.739 300.394 134.426 300.678 134.732 301.245C135.037 301.813 135.19 302.871 135.19 304.409V310.224H136.848V304.366C136.848 302.325 136.598 300.907 136.085 300.111C135.572 299.314 134.579 298.911 133.106 298.911C132.015 298.911 130.87 299.194 129.692 299.751V294.296H128.033V310.224H129.692V301.06H129.681ZM125.982 299.129H122.458V295.736H120.811V299.129H119.24V300.569H120.811V306.406C120.811 307.988 121.029 309.057 121.477 309.624C121.924 310.191 122.72 310.464 123.877 310.464C124.389 310.464 125.142 310.377 126.135 310.224L126.026 308.85L124.051 308.98C123.353 308.98 122.917 308.784 122.731 308.38C122.546 307.977 122.458 307.148 122.458 305.871V300.569H125.982V299.129ZM105.112 301.213L105.537 301.016C105.821 300.885 106.225 300.744 106.748 300.602C107.272 300.46 107.774 300.394 108.243 300.394C109.236 300.394 109.879 300.678 110.185 301.245C110.49 301.813 110.643 302.871 110.643 304.409V310.224H112.28V304.366C112.28 302.325 112.029 300.907 111.516 300.111C111.003 299.314 110.01 298.911 108.538 298.911C107.447 298.911 106.301 299.249 105.101 299.914V299.14H103.454V310.224H105.112V301.213ZM100.257 294.689H98.5879V296.62H100.257V294.689ZM100.257 299.129H98.5879V310.224H100.257V299.129ZM88.7581 301.267C89.1945 300.656 89.9909 300.351 91.1583 300.351C92.3256 300.351 93.1111 300.656 93.5475 301.267C93.973 301.878 94.1912 303.002 94.1912 304.627C94.1912 306.253 93.9948 307.388 93.613 308.031C93.2311 308.675 92.4129 308.991 91.1583 308.991C89.9037 308.991 89.0854 308.664 88.6927 308.02C88.2999 307.366 88.1036 306.231 88.1036 304.617C88.1036 303.002 88.3218 301.878 88.7581 301.267ZM87.4162 309.068C88.0926 309.984 89.3364 310.442 91.1474 310.442C92.9584 310.442 94.1912 309.984 94.8676 309.068C95.544 308.151 95.8931 306.678 95.8931 304.649C95.8931 302.62 95.5331 301.158 94.8131 300.253C94.093 299.347 92.8711 298.9 91.1583 298.9C89.4455 298.9 88.2126 299.347 87.4926 300.253C86.7726 301.158 86.4016 302.62 86.4016 304.649C86.4016 306.678 86.7398 308.151 87.4162 309.068ZM80.9576 311.751C81.9613 311.631 82.6378 311.326 82.976 310.846C83.3905 310.268 83.5978 309.362 83.5978 308.119L83.576 294.874H81.885V307.868C81.885 308.959 81.7322 309.635 81.4268 309.897C81.1213 310.159 80.4449 310.29 79.3757 310.29V311.817C80.0303 311.817 80.554 311.795 80.9467 311.751" fill="white"/>
<g clip-path="url(#clip0_5184_7325)">
<path d="M146.866 345.494L146.888 345.457L124.721 384.097C124.416 384.637 124.259 385.239 124.259 385.848C124.259 387.801 125.848 389.39 127.8 389.39H172.303C174.255 389.39 175.844 387.801 175.844 385.848C175.844 385.187 175.662 384.544 175.316 383.986L175.346 384.036L153.062 345.437L153.08 345.467C152.456 344.34 151.267 343.64 149.978 343.64C148.688 343.64 147.485 344.349 146.864 345.494" fill="white"/>
<path d="M169.626 378.623C170.068 378.623 170.429 378.984 170.429 379.426C170.429 379.868 170.068 380.229 169.626 380.229C169.184 380.229 168.823 379.868 168.823 379.426C168.823 378.984 169.184 378.623 169.626 378.623ZM169.626 380.052C169.945 380.052 170.198 379.797 170.198 379.426C170.198 379.055 169.945 378.799 169.626 378.799C169.306 378.799 169.053 379.055 169.053 379.426C169.053 379.797 169.304 380.052 169.626 380.052ZM169.304 378.976H169.64C169.866 378.976 169.996 379.043 169.996 379.244C169.996 379.406 169.898 379.47 169.761 379.482L169.996 379.87H169.8L169.586 379.492H169.495V379.87H169.304V378.976ZM169.653 379.342C169.743 379.342 169.807 379.327 169.807 379.224C169.807 379.133 169.709 379.121 169.633 379.121H169.498V379.342H169.653Z" fill="#007A53"/>
<path d="M168.918 376.786L151.194 346.142C150.933 345.673 150.435 345.356 149.862 345.356C149.29 345.356 148.784 345.678 148.524 346.152L136.05 367.915C139.997 368.136 141.903 366.365 143.747 364.648C145.388 363.125 147.08 361.549 149.907 361.549C153.554 361.549 155.418 364.943 155.496 365.098C155.749 365.606 155.543 366.23 155.035 366.485C154.524 366.741 153.925 366.539 153.642 366.031C153.534 365.839 152.159 363.622 149.904 363.622C147.895 363.622 146.687 364.744 145.159 366.166C143.15 368.035 140.179 369.889 135.23 369.339L130.934 376.835C130.809 377.056 130.74 377.311 130.74 377.581C130.74 378.421 131.421 379.102 132.26 379.102H150.113C149.907 378.812 147.758 375.779 147.758 375.779C146.854 374.381 147.598 373.222 147.841 372.854L150.437 368.693C150.585 368.457 150.815 368.293 151.083 368.231C151.353 368.17 151.631 368.214 151.867 368.362C152.35 368.666 152.5 369.307 152.196 369.791L149.575 373.991C149.386 374.278 149.334 374.384 149.521 374.681C150.015 375.472 152.412 379.028 152.461 379.102H167.627C168.466 379.102 169.147 378.421 169.147 377.581C169.147 377.289 169.063 377.014 168.921 376.783M161.767 368.418C161.487 368.708 161.14 368.774 160.811 368.595C160.529 368.44 159.942 368.182 159.185 368.182C158.429 368.182 157.343 368.421 156.575 369.334C156.575 369.334 152.996 373.836 152.994 373.836C152.937 373.917 152.714 374.077 152.456 374.089C152.26 374.101 152.083 374.023 151.94 373.865C151.81 373.718 151.758 373.551 151.758 373.396C151.758 373.242 151.805 373.104 151.869 372.994C153.451 370.312 154.232 368.988 154.234 368.983C155.521 366.883 157.14 366.338 158.569 366.286C158.441 365.825 157.891 363.855 157.891 363.85C157.837 363.634 157.756 363.258 158.11 363.037C158.537 362.764 158.893 363.015 159.028 363.236L161.85 367.522C161.978 367.718 162.007 368.16 161.767 368.413" fill="#007A53"/>
<path d="M159.028 363.24C158.891 363.017 158.537 362.769 158.11 363.042C157.758 363.265 157.837 363.638 157.891 363.854C157.891 363.857 158.441 365.827 158.569 366.291C157.137 366.342 155.519 366.888 154.234 368.987C154.234 368.992 153.451 370.316 151.869 372.998C151.805 373.106 151.759 373.249 151.759 373.401C151.759 373.553 151.808 373.723 151.94 373.87C152.08 374.027 152.257 374.103 152.456 374.093C152.716 374.081 152.937 373.919 152.994 373.84L156.575 369.339C157.343 368.425 158.39 368.187 159.185 368.187C159.981 368.187 160.529 368.445 160.811 368.599C161.14 368.779 161.487 368.712 161.767 368.423C162.01 368.17 161.978 367.725 161.85 367.531L159.028 363.245V363.24Z" fill="#FFA400"/>
<path d="M145.162 366.171C146.689 364.749 147.895 363.627 149.907 363.627C152.161 363.627 153.537 365.844 153.645 366.036C153.927 366.544 154.526 366.746 155.037 366.49C155.546 366.232 155.752 365.609 155.499 365.103C155.42 364.948 153.554 361.554 149.909 361.554C147.085 361.554 145.39 363.13 143.749 364.653C141.905 366.37 139.999 368.141 136.052 367.92L135.235 369.347C140.183 369.897 143.155 368.042 145.164 366.173" fill="#FFA400"/>
<path d="M149.575 373.996L152.196 369.796C152.5 369.312 152.35 368.671 151.867 368.367C151.631 368.219 151.353 368.173 151.083 368.236C150.815 368.298 150.585 368.462 150.437 368.698L147.841 372.859C147.598 373.227 146.854 374.386 147.758 375.784C147.758 375.784 149.907 378.819 150.113 379.107H152.458C152.409 379.035 150.012 375.477 149.519 374.686C149.334 374.389 149.384 374.283 149.573 373.996" fill="#FFA400"/>
<path d="M129.807 380.828H130.802L131.976 383.874H131.084L130.858 383.223H129.714L129.473 383.874H128.648L129.804 380.828H129.807ZM130.303 381.457H130.293L129.9 382.648H130.664L130.303 381.457Z" fill="#007A53"/>
<path d="M134.834 382.717C134.834 383.549 134.294 383.925 133.498 383.925C132.702 383.925 132.162 383.549 132.162 382.717V380.826H132.975V382.579C132.975 382.98 133.083 383.321 133.498 383.321C133.913 383.321 134.021 382.98 134.021 382.579V380.826H134.834V382.717Z" fill="#007A53"/>
<path d="M135.279 383.122C135.488 383.235 135.78 383.323 136.116 383.323C136.374 383.323 136.617 383.272 136.617 383.026C136.617 382.459 135.178 382.817 135.178 381.707C135.178 380.973 135.893 380.774 136.504 380.774C136.797 380.774 137.084 380.818 137.29 380.887L137.239 381.516C137.03 381.42 136.794 381.376 136.563 381.376C136.357 381.376 136.018 381.393 136.018 381.661C136.018 382.154 137.457 381.823 137.457 382.923C137.457 383.714 136.794 383.927 136.116 383.927C135.832 383.927 135.48 383.883 135.208 383.797L135.276 383.124L135.279 383.122Z" fill="#007A53"/>
<path d="M138.373 381.43H137.622V380.828H139.935V381.43H139.184V383.874H138.371V381.43H138.373Z" fill="#007A53"/>
<path d="M140.255 380.828H141.704C142.244 380.828 142.686 381.074 142.686 381.597C142.686 382.002 142.494 382.272 142.102 382.366V382.375C142.364 382.444 142.382 382.677 142.534 383.048L142.831 383.878H141.984L141.809 383.328C141.642 382.805 141.539 382.673 141.237 382.673H141.068V383.876H140.255V380.831V380.828ZM141.065 382.093H141.279C141.542 382.093 141.873 382.083 141.873 381.739C141.873 381.454 141.588 381.403 141.279 381.403H141.065V382.093Z" fill="#007A53"/>
<path d="M144.096 380.828H145.09L146.264 383.874H145.373L145.147 383.223H144.002L143.762 383.874H142.937L144.093 380.828H144.096ZM144.592 381.457H144.582L144.189 382.648H144.953L144.592 381.457Z" fill="#007A53"/>
<path d="M146.495 380.828H147.308V383.272H148.566V383.874H146.498V380.828H146.495Z" fill="#007A53"/>
<path d="M148.875 380.828H149.688V383.874H148.875V380.828Z" fill="#007A53"/>
<path d="M151.027 380.828H152.021L153.195 383.874H152.304L152.078 383.223H150.933L150.693 383.874H149.867L151.024 380.828H151.027ZM151.523 381.457H151.513L151.12 382.648H151.884L151.523 381.457Z" fill="#007A53"/>
<path d="M153.352 380.828H154.386L155.415 382.896H155.425L155.413 380.828H156.155V383.874H155.148L154.082 381.791H154.072L154.099 383.874H153.352V380.828Z" fill="#007A53"/>
<path d="M158.137 380.828H159.416L160.062 382.854H160.072L160.747 380.828H161.978V383.874H161.182L161.194 381.533H161.185L160.409 383.874H159.662L158.92 381.533H158.91L158.928 383.874H158.134V380.828H158.137Z" fill="#007A53"/>
<path d="M163.343 380.828H164.338L165.512 383.874H164.62L164.394 383.223H163.25L163.009 383.874H162.184L163.341 380.828H163.343ZM163.839 381.457H163.83L163.437 382.648H164.2L163.839 381.457Z" fill="#007A53"/>
<path d="M165.743 380.828H166.85C167.911 380.828 168.653 381.16 168.653 382.339C168.653 383.517 167.889 383.876 166.85 383.876H165.743V380.831V380.828ZM166.556 383.272H166.87C167.477 383.272 167.818 382.957 167.818 382.351C167.818 381.744 167.464 381.43 166.87 381.43H166.556V383.272Z" fill="#007A53"/>
<path d="M169.029 380.828H171.175V381.405H169.839V382.034H171.102V382.611H169.839V383.301H171.222V383.878H169.026V380.833L169.029 380.828Z" fill="#007A53"/>
<path d="M137.327 384.571H138.322L139.496 387.616H138.604L138.378 386.965H137.234L136.993 387.616H136.168L137.324 384.571H137.327ZM137.823 385.2H137.813L137.42 386.391H138.184L137.823 385.2Z" fill="#007A53"/>
<path d="M139.739 384.571H140.773L141.802 386.639H141.812L141.799 384.571H142.541V387.616H141.532L140.466 385.534H140.456L140.483 387.616H139.736V384.571H139.739Z" fill="#007A53"/>
<path d="M143.035 384.571H144.143C145.204 384.571 145.945 384.902 145.945 386.081C145.945 387.26 145.181 387.619 144.143 387.619H143.035V384.573V384.571ZM143.845 387.014H144.16C144.766 387.014 145.108 386.7 145.108 386.094C145.108 385.487 144.754 385.173 144.16 385.173H143.845V387.014Z" fill="#007A53"/>
<path d="M149.005 384.52C150.01 384.52 150.533 385.116 150.533 386.096C150.533 387.076 150 387.671 149.005 387.671C148.01 387.671 147.478 387.064 147.478 386.096C147.478 385.129 148.001 384.52 149.005 384.52ZM149.005 387.069C149.499 387.069 149.695 386.597 149.695 386.096C149.695 385.568 149.499 385.124 149.005 385.124C148.512 385.124 148.315 385.568 148.315 386.096C148.315 386.624 148.512 387.069 149.005 387.069Z" fill="#007A53"/>
<path d="M150.476 384.571H151.306L151.699 386.911H151.709L152.119 384.571H153.148L153.576 386.911H153.586L153.983 384.571H154.774L154.094 387.616H153.05L152.618 385.276H152.608L152.208 387.616H151.157L150.481 384.571H150.476Z" fill="#007A53"/>
<path d="M155.015 384.571H156.049L157.078 386.639H157.085L157.073 384.571H157.815V387.616H156.805L155.742 385.534H155.732L155.759 387.616H155.012V384.571H155.015Z" fill="#007A53"/>
<path d="M158.289 384.571H160.438V385.148H159.102V385.777H160.362V386.354H159.102V387.044H160.484V387.621H158.289V384.576V384.571Z" fill="#007A53"/>
<path d="M160.801 384.571H161.909C162.97 384.571 163.712 384.902 163.712 386.081C163.712 387.26 162.948 387.619 161.909 387.619H160.801V384.573V384.571ZM161.614 387.014H161.929C162.535 387.014 162.877 386.7 162.877 386.094C162.877 385.487 162.523 385.173 161.929 385.173H161.614V387.014Z" fill="#007A53"/>
</g>
<defs>
<clipPath id="clip0_5184_7325">
<rect width="52.0836" height="46.15" fill="white" transform="translate(123.958 343.396)"/>
</clipPath>
</defs>
</svg>
