<?xml version="1.0" encoding="utf-8"?>
<!-- Generator: Adobe Illustrator 27.7.0, SVG Export Plug-In . SVG Version: 6.00 Build 0)  -->
<svg version="1.1" id="Layer_1" xmlns="http://www.w3.org/2000/svg" xmlns:xlink="http://www.w3.org/1999/xlink" x="0px" y="0px"
	 viewBox="0 0 188.7 44.7" style="enable-background:new 0 0 188.7 44.7;" xml:space="preserve">
<style type="text/css">
	.st0{fill:#FFFFFF;}
</style>
<path class="st0" d="M11.1,12.3V8.5h7.7v8.4c-1.1,1-2.4,1.6-3.9,2.1c-1.5,0.4-2.9,0.6-4.3,0.6c-2,0-3.8-0.4-5.2-1.2S2.7,16.5,2,15
	c-0.8-1.5-1.1-3.2-1.1-5.2c0-1.9,0.4-3.6,1.2-5.1s2-2.6,3.4-3.5C6.9,0.4,8.6,0,10.5,0c1.5,0,3,0.3,4.3,0.8c1.4,0.5,2.5,1.4,3.4,2.5
	l-3.2,3.2c-0.6-0.6-1.2-1.1-1.9-1.4c-0.7-0.4-1.4-0.6-2.3-0.6c-1.1,0-2,0.2-2.7,0.7C7.4,5.8,6.9,6.4,6.5,7.2C6.1,8,5.9,8.9,5.9,9.9
	c0,1.6,0.5,2.9,1.4,3.8c0.9,1,2.1,1.4,3.6,1.4c0.6,0,1.2-0.1,1.8-0.2c0.6-0.2,1.1-0.4,1.6-0.8v-1.8H11.1z M21.5,19.2V0.5h13.4v4.3
	h-8.5v2.9h7v4h-7v3.2h9.1v4.3H21.5z M42.4,19.2V4.8h-5.7V0.5h16.4v4.3h-5.7v14.3H42.4z M59.9,19.2V0.5h13.4v4.3h-8.5v2.9h7v4h-7v3.2
	h9.1v4.3H59.9z M74.7,19.2L81,9.6l-6.4-9.1h6.1l3.1,4.8l3-4.8h5.5l-5.8,8.7l7,10h-6.2l-3.7-5.7l-3.6,5.7H74.7z M95.2,19.2V0.5h7.6
	c2,0,3.6,0.5,4.8,1.6c1.2,1,1.8,2.6,1.8,4.6c0,1.3-0.3,2.4-0.8,3.3c-0.6,0.9-1.3,1.7-2.3,2.2c-1,0.5-2.1,0.8-3.4,0.8h-2.9v6.2H95.2z
	 M100.1,9.1h2.4c0.7,0,1.2-0.2,1.6-0.6s0.6-1,0.6-1.7c0-0.7-0.2-1.3-0.6-1.7c-0.4-0.4-0.9-0.6-1.7-0.6h-2.3V9.1z M111.6,19.2V0.5
	h13.4v4.3h-8.5v2.9h7v4h-7v3.2h9.1v4.3H111.6z M128,19.2V0.5h7.7c2,0,3.6,0.5,4.8,1.6c1.2,1,1.8,2.5,1.8,4.6c0,1.2-0.3,2.3-0.8,3.2
	c-0.5,0.9-1.3,1.6-2.2,2.2l4,7.2H138l-3.2-6.4h-2.1v6.4H128z M132.8,8.9h2.4c0.7,0,1.2-0.2,1.6-0.6c0.4-0.4,0.6-1,0.6-1.6
	c0-0.7-0.2-1.3-0.6-1.7s-0.9-0.6-1.7-0.6h-2.4V8.9z M149.3,19.2V4.8h-5.7V0.5H160v4.3h-5.7v14.3H149.3z M0,41.9l3-3.6
	c0.5,0.5,1.2,1,2,1.4c0.9,0.4,1.8,0.6,2.8,0.6c0.5,0,1-0.1,1.5-0.3s0.7-0.6,0.7-1.2c0-0.5-0.3-0.9-0.8-1.2c-0.5-0.3-1.2-0.7-2.2-1
	l-1-0.3c-0.8-0.3-1.5-0.6-2.3-1c-0.7-0.4-1.4-1-1.9-1.7c-0.5-0.7-0.7-1.5-0.7-2.5c0-1.2,0.3-2.2,0.8-3.1c0.6-0.9,1.4-1.6,2.5-2.2
	C5.5,25.3,6.8,25,8.3,25c1.2,0,2.3,0.1,3.2,0.4c0.9,0.3,1.7,0.6,2.3,1c0.6,0.4,1,0.7,1.3,1l-2.5,3.2c-0.7-0.5-1.3-0.9-2-1.2
	c-0.7-0.3-1.4-0.5-2.2-0.5c-0.5,0-1,0.1-1.4,0.3c-0.4,0.2-0.6,0.6-0.6,1.1c0,0.6,0.3,1,0.8,1.3c0.5,0.3,1.2,0.5,2,0.8l0.9,0.3
	c0.6,0.2,1.3,0.4,1.9,0.7c0.7,0.3,1.3,0.6,1.8,1.1c0.5,0.4,1,1,1.3,1.7c0.3,0.7,0.5,1.5,0.5,2.5c0,1.1-0.3,2.2-1,3.1
	c-0.7,0.9-1.6,1.6-2.7,2.1c-1.1,0.5-2.4,0.8-3.8,0.8c-1.9,0-3.4-0.3-4.7-0.8C1.9,43.4,0.9,42.7,0,41.9z M17.7,36.9V25.5h5v10.9
	c0,1,0.2,1.9,0.7,2.5c0.5,0.7,1.3,1,2.4,1c1.1,0,1.9-0.3,2.4-1c0.5-0.7,0.7-1.5,0.7-2.5V25.5h5v11.4c0,1.6-0.3,3-1,4.1
	c-0.7,1.2-1.6,2.1-2.9,2.7c-1.2,0.6-2.6,0.9-4.1,0.9c-1.6,0-3-0.3-4.2-0.9c-1.2-0.6-2.2-1.5-2.9-2.7C18,39.9,17.7,38.5,17.7,36.9z
	 M36.7,44.2V25.5h7.6c2,0,3.6,0.5,4.8,1.6c1.2,1,1.8,2.6,1.8,4.6c0,1.3-0.3,2.4-0.8,3.3c-0.6,0.9-1.3,1.7-2.3,2.2
	c-1,0.5-2.1,0.8-3.4,0.8h-2.9v6.2H36.7z M41.6,34.1h2.4c0.7,0,1.2-0.2,1.6-0.6c0.4-0.4,0.6-1,0.6-1.7c0-0.7-0.2-1.3-0.6-1.7
	c-0.4-0.4-0.9-0.6-1.7-0.6h-2.3V34.1z M53.1,44.2V25.5h13.4v4.3h-8.5v2.9h7v4h-7v3.2h9.1v4.3H53.1z M69.5,44.2V25.5h7.7
	c2,0,3.6,0.5,4.8,1.6c1.2,1,1.8,2.5,1.8,4.6c0,1.2-0.3,2.3-0.8,3.2c-0.5,0.9-1.3,1.6-2.2,2.2l4,7.2h-5.3l-3.2-6.4h-2.1v6.4H69.5z
	 M74.3,33.9h2.4c0.7,0,1.2-0.2,1.6-0.6c0.4-0.4,0.6-1,0.6-1.6c0-0.7-0.2-1.3-0.6-1.7c-0.4-0.4-0.9-0.6-1.7-0.6h-2.4V33.9z M90,44.2
	l6.9-18.7h5.7l6.6,18.7h-5.3l-1.2-3.9h-6.2l-1.2,3.9H90z M97.3,36.7h4.2l-2.1-6.9L97.3,36.7z M110.7,44.2V25.5h7.2
	c1.9,0,3.6,0.3,5.1,1c1.5,0.7,2.7,1.7,3.6,3.1c0.9,1.4,1.3,3.2,1.3,5.3c0,2.1-0.4,3.8-1.3,5.2c-0.9,1.4-2.1,2.4-3.6,3.1
	c-1.5,0.7-3.2,1-5.1,1H110.7z M115.6,39.8h2c1.6,0,2.9-0.5,3.8-1.4c0.9-0.9,1.3-2.1,1.3-3.6c0-1.5-0.4-2.7-1.2-3.6
	c-0.8-0.9-2.1-1.4-3.9-1.4h-2V39.8z M134.3,44.2l-6.8-18.7h5.4l4.2,13l3.9-13h5.3l-6.8,18.7H134.3z M147.8,44.2V25.5h5v18.7H147.8z
	 M169.8,37.6l3.3,3.1c-2.1,2.6-4.9,3.9-8.3,3.9c-1.9,0-3.6-0.4-5.1-1.3c-1.5-0.8-2.6-2-3.4-3.4c-0.8-1.5-1.2-3.2-1.2-5.1
	c0-1.9,0.4-3.6,1.2-5.1c0.8-1.5,2-2.7,3.4-3.5c1.5-0.9,3.1-1.3,5.1-1.3c1.6,0,3.1,0.3,4.5,0.8c1.4,0.5,2.6,1.5,3.5,2.8l-3.3,3.3
	c-0.5-0.7-1.1-1.3-1.9-1.7s-1.6-0.6-2.5-0.6c-1,0-1.9,0.2-2.7,0.7c-0.7,0.4-1.3,1.1-1.7,1.8c-0.4,0.8-0.6,1.6-0.6,2.6
	c0,1,0.2,1.9,0.6,2.7c0.4,0.8,1,1.4,1.7,1.8c0.7,0.4,1.6,0.7,2.6,0.7c1.1,0,2-0.2,2.7-0.6C168.5,39,169.2,38.4,169.8,37.6z
	 M174.7,44.2V25.5h13.4v4.3h-8.5v2.9h7v4h-7v3.2h9.1v4.3H174.7z"/>
</svg>
