<?xml version="1.0" encoding="utf-8"?>
<!-- Generator: Adobe Illustrator 27.7.0, SVG Export Plug-In . SVG Version: 6.00 Build 0)  -->
<svg version="1.1" id="Layer_1" xmlns="http://www.w3.org/2000/svg" xmlns:xlink="http://www.w3.org/1999/xlink" x="0px" y="0px"
	 viewBox="0 0 243.8 19.7" style="enable-background:new 0 0 243.8 19.7;" xml:space="preserve">
<style type="text/css">
	.st0{fill:#FFD000;}
</style>
<path class="st0" d="M5.8,19.3V4.9H0V0.6h16.4v4.3h-5.7v14.3H5.8V19.3z M18.4,19.3V0.6h5v6.8h6.9V0.6h5v18.7h-5V12h-6.9v7.3H18.4z
	 M38.3,19.3V0.6h13.4v4.3h-8.5v2.9h7v4h-7V15h9.1v4.3H38.3z M59.4,19.3V0.6h7.7c2,0,3.6,0.5,4.8,1.6c1.2,1,1.8,2.5,1.8,4.6
	c0,1.2-0.3,2.3-0.8,3.2s-1.3,1.6-2.2,2.2l4,7.2h-5.3L66.2,13h-2.1v6.4L59.4,19.3L59.4,19.3z M64.3,9h2.4c0.7,0,1.2-0.2,1.6-0.6
	c0.4-0.4,0.6-1,0.6-1.6c0-0.7-0.2-1.3-0.6-1.7s-1-0.6-1.7-0.6h-2.4L64.3,9L64.3,9z M76.7,19.3V0.6h5v18.7H76.7z M94.3,12.4V8.6h7.7
	V17c-1.1,1-2.4,1.6-3.9,2.1c-1.5,0.4-2.9,0.6-4.3,0.6c-2,0-3.8-0.4-5.2-1.2s-2.6-1.9-3.4-3.4s-1.1-3.2-1.1-5.2
	c0-1.9,0.4-3.6,1.2-5.1c0.8-1.5,2-2.6,3.4-3.5c1.4-0.8,3.1-1.2,5-1.2c1.5,0,3,0.3,4.3,0.8c1.4,0.5,2.5,1.4,3.4,2.5l-3.2,3.2
	C97.6,6,97,5.5,96.3,5.2c-0.7-0.4-1.4-0.6-2.3-0.6c-1.1,0-2,0.2-2.7,0.7S90,6.4,89.6,7.2C89.2,8,89,8.9,89,9.9
	c0,1.6,0.5,2.9,1.4,3.8c0.9,1,2.1,1.4,3.6,1.4c0.6,0,1.2-0.1,1.8-0.2c0.6-0.2,1.1-0.4,1.6-0.8v-1.8h-3.1V12.4z M104.7,19.3V0.6h5
	v6.8h6.9V0.6h5v18.7h-5V12h-6.9v7.3H104.7z M129.2,19.3V4.9h-5.7V0.6h16.4v4.3h-5.7v14.3h-5V19.3z M145.1,19.3L152,0.6h5.7l6.6,18.7
	H159l-1.2-3.9h-6.2l-1.2,3.9H145.1z M152.4,11.8h4.2l-2-6.9L152.4,11.8z M165.7,19.3V0.6h7.2c1.9,0,3.6,0.3,5.1,1s2.7,1.7,3.6,3.1
	c0.9,1.4,1.3,3.2,1.3,5.3s-0.4,3.8-1.3,5.2c-0.9,1.4-2.1,2.4-3.6,3.1c-1.5,0.7-3.2,1-5.1,1C172.9,19.3,165.7,19.3,165.7,19.3z
	 M170.7,14.9h2c1.6,0,2.9-0.5,3.8-1.4c0.9-0.9,1.3-2.1,1.3-3.6s-0.4-2.7-1.2-3.6c-0.8-0.9-2.1-1.4-3.9-1.4h-2L170.7,14.9L170.7,14.9
	z M189.4,19.3l-6.8-18.7h5.4l4.2,13l3.9-13h5.3l-6.8,18.7H189.4z M202.9,19.3V0.6h5v18.7H202.9z M224.9,12.7l3.3,3.1
	c-2.1,2.6-4.9,3.9-8.3,3.9c-1.9,0-3.6-0.4-5.1-1.3c-1.5-0.8-2.6-2-3.4-3.4c-0.8-1.5-1.2-3.2-1.2-5.1s0.4-3.6,1.2-5.1s2-2.7,3.4-3.5
	c1.5-0.9,3.1-1.3,5.1-1.3c1.6,0,3.1,0.3,4.5,0.8s2.6,1.5,3.5,2.8l-3.3,3.3c-0.5-0.7-1.1-1.3-1.9-1.7s-1.6-0.6-2.5-0.6
	c-1,0-1.9,0.2-2.7,0.7c-0.7,0.4-1.3,1.1-1.7,1.8c-0.4,0.8-0.6,1.6-0.6,2.6s0.2,1.9,0.6,2.7c0.4,0.8,1,1.4,1.7,1.8
	c0.7,0.4,1.6,0.7,2.6,0.7c1.1,0,2-0.2,2.7-0.6S224.3,13.5,224.9,12.7z M229.8,19.3V0.6h13.4v4.3h-8.5v2.9h7v4h-7V15h9.1v4.3H229.8z"
	/>
</svg>
