<?xml version="1.0" encoding="utf-8"?>
<!-- Generator: Adobe Illustrator 27.7.0, SVG Export Plug-In . SVG Version: 6.00 Build 0)  -->
<svg version="1.1" id="Layer_1" xmlns="http://www.w3.org/2000/svg" xmlns:xlink="http://www.w3.org/1999/xlink" x="0px" y="0px"
	 viewBox="0 0 174 19.6" style="enable-background:new 0 0 174 19.6;" xml:space="preserve">
<style type="text/css">
	.st0{fill:#FFFFFF;}
</style>
<path class="st0" d="M0,16.9l3-3.6c0.5,0.5,1.2,1,2,1.4c0.9,0.4,1.8,0.6,2.8,0.6c0.5,0,1-0.1,1.5-0.3s0.7-0.6,0.7-1.2
	c0-0.5-0.3-0.9-0.8-1.2c-0.5-0.3-1.2-0.7-2.2-1l-1-0.3c-0.8-0.3-1.5-0.6-2.3-1C3,9.9,2.4,9.3,1.8,8.6C1.4,7.9,1.1,7.1,1.1,6.1
	c0-1.2,0.3-2.2,0.8-3.1c0.6-0.9,1.4-1.6,2.5-2.2C5.5,0.3,6.8,0,8.3,0c1.2,0,2.3,0.1,3.2,0.4c0.9,0.3,1.7,0.6,2.3,1
	c0.6,0.4,1,0.7,1.3,1l-2.5,3.2c-0.7-0.5-1.3-0.9-2-1.2C9.8,4.1,9.1,3.9,8.4,3.9c-0.5,0-1,0.1-1.4,0.3C6.5,4.5,6.3,4.9,6.3,5.4
	c0,0.6,0.3,1,0.8,1.3c0.5,0.3,1.2,0.5,2,0.8L10,7.7c0.6,0.2,1.3,0.4,1.9,0.7c0.7,0.3,1.3,0.6,1.8,1.1s1,1,1.3,1.7
	c0.3,0.7,0.5,1.5,0.5,2.5c0,1.1-0.3,2.2-1,3.1c-0.7,0.9-1.6,1.6-2.7,2.1c-1.1,0.5-2.4,0.8-3.8,0.8c-1.9,0-3.4-0.3-4.7-0.8
	C1.9,18.4,0.9,17.7,0,16.9z M22.4,19.2V4.8h-5.7V0.5h16.4v4.3h-5.7v14.3H22.4z M30.4,19.2l6.9-18.7h5.7l6.6,18.7h-5.3L43,15.3h-6.2
	l-1.2,3.9H30.4z M37.8,11.7H42l-2.1-6.9L37.8,11.7z M51.1,19.2V0.5h7.7c2,0,3.6,0.5,4.8,1.6c1.2,1,1.8,2.5,1.8,4.6
	c0,1.2-0.3,2.3-0.8,3.2c-0.5,0.9-1.3,1.6-2.2,2.2l4,7.2h-5.3L58,12.8h-2.1v6.4H51.1z M55.9,8.9h2.4c0.7,0,1.2-0.2,1.6-0.6
	c0.4-0.4,0.6-1,0.6-1.6c0-0.7-0.2-1.3-0.6-1.7c-0.4-0.4-0.9-0.6-1.7-0.6h-2.4V8.9z M72.4,19.2V4.8h-5.7V0.5h16.4v4.3h-5.7v14.3H72.4
	z M83.6,16.9l3-3.6c0.5,0.5,1.2,1,2,1.4c0.9,0.4,1.8,0.6,2.8,0.6c0.5,0,1-0.1,1.5-0.3c0.5-0.2,0.7-0.6,0.7-1.2
	c0-0.5-0.3-0.9-0.8-1.2c-0.5-0.3-1.2-0.7-2.2-1l-1-0.3c-0.8-0.3-1.5-0.6-2.3-1c-0.7-0.4-1.4-1-1.9-1.7c-0.5-0.7-0.7-1.5-0.7-2.5
	c0-1.2,0.3-2.2,0.8-3.1C86,2.1,86.9,1.3,88,0.8C89,0.3,90.4,0,91.9,0c1.2,0,2.3,0.1,3.2,0.4c0.9,0.3,1.7,0.6,2.3,1
	c0.6,0.4,1,0.7,1.3,1l-2.5,3.2c-0.7-0.5-1.3-0.9-2-1.2c-0.7-0.3-1.4-0.5-2.2-0.5c-0.5,0-1,0.1-1.4,0.3c-0.4,0.2-0.6,0.6-0.6,1.1
	c0,0.6,0.3,1,0.8,1.3c0.5,0.3,1.2,0.5,2,0.8l0.9,0.3c0.6,0.2,1.3,0.4,1.9,0.7c0.7,0.3,1.3,0.6,1.8,1.1c0.5,0.4,1,1,1.3,1.7
	c0.3,0.7,0.5,1.5,0.5,2.5c0,1.1-0.3,2.2-1,3.1c-0.7,0.9-1.6,1.6-2.7,2.1c-1.1,0.5-2.4,0.8-3.8,0.8c-1.9,0-3.4-0.3-4.7-0.8
	C85.5,18.4,84.4,17.7,83.6,16.9z M109.2,19.2l-4.5-18.7h5.2l2.4,12.5L115.3,1h4.5l3,12.1l2.4-12.5h5.1l-4.6,18.7h-5.2l-2.9-11.8
	l-2.9,11.8H109.2z M131.9,19.2V0.5h5v18.7H131.9z M144.5,19.2V4.8h-5.7V0.5h16.4v4.3h-5.7v14.3H144.5z M157.2,19.2V0.5h5v6.8h6.9
	V0.5h5v18.7h-5v-7.3h-6.9v7.3H157.2z"/>
</svg>
