<?xml version="1.0" encoding="utf-8"?>
<!-- Generator: Adobe Illustrator 27.7.0, SVG Export Plug-In . SVG Version: 6.00 Build 0)  -->
<svg version="1.1" id="Layer_1" xmlns="http://www.w3.org/2000/svg" xmlns:xlink="http://www.w3.org/1999/xlink" x="0px" y="0px"
	 viewBox="0 0 97 26" style="enable-background:new 0 0 97 26;" xml:space="preserve">
<style type="text/css">
	.st0{fill:#002855;}
	.st1{fill:none;stroke:#002855;stroke-width:1.8121;stroke-linecap:round;}
</style>
<path class="st0" d="M11.3,17.5V8.8h2v6.9h4.1v1.7H11.3z M23.5,15.7l0.8,1.2c-0.1,0.1-0.2,0.2-0.5,0.3c-0.2,0.1-0.5,0.3-0.9,0.4
	c-0.4,0.1-0.8,0.2-1.3,0.2c-0.7,0-1.3-0.1-1.8-0.4c-0.5-0.3-0.9-0.7-1.2-1.2c-0.3-0.5-0.4-1.1-0.4-1.7c0-0.6,0.1-1.1,0.4-1.6
	c0.3-0.5,0.6-0.9,1.1-1.2c0.5-0.3,1-0.5,1.7-0.5c0.7,0,1.2,0.2,1.7,0.5c0.5,0.3,0.8,0.7,1,1.2c0.2,0.5,0.4,1.1,0.4,1.8V15h-4.3
	c0,0.3,0.2,0.6,0.4,0.9c0.3,0.3,0.7,0.4,1.2,0.4c0.5,0,0.9-0.1,1.2-0.2C23.2,15.9,23.4,15.8,23.5,15.7z M20.1,13.8h2.6
	c0-0.2,0-0.3-0.1-0.5c-0.1-0.2-0.2-0.3-0.4-0.5c-0.2-0.1-0.4-0.2-0.7-0.2c-0.3,0-0.5,0.1-0.7,0.2c-0.2,0.1-0.3,0.3-0.4,0.5
	C20.1,13.5,20.1,13.6,20.1,13.8z M29.1,17.5L29,16.9c-0.4,0.5-1,0.8-1.8,0.8c-0.3,0-0.6-0.1-0.9-0.2c-0.3-0.1-0.6-0.3-0.8-0.6
	c-0.2-0.3-0.3-0.7-0.3-1.1c0-0.5,0.1-0.9,0.4-1.2c0.3-0.3,0.6-0.6,1-0.7c0.4-0.2,0.9-0.3,1.4-0.3c0.2,0,0.4,0,0.6,0
	c0.2,0,0.4,0,0.4,0v-0.1c0-0.3-0.1-0.5-0.4-0.7c-0.2-0.1-0.5-0.2-0.8-0.2c-0.4,0-0.7,0.1-1,0.2c-0.3,0.1-0.5,0.2-0.7,0.4L25.4,12
	c0.3-0.2,0.6-0.4,1-0.5c0.4-0.2,1-0.3,1.7-0.3c0.9,0,1.6,0.3,2.1,0.8c0.4,0.5,0.7,1.2,0.7,2v3.5H29.1z M29,15.3v-0.5
	c0,0-0.1,0-0.2,0c-0.1,0-0.3,0-0.4,0c-0.5,0-0.9,0.1-1.1,0.2c-0.2,0.1-0.3,0.4-0.3,0.6c0,0.5,0.3,0.8,0.9,0.8c0.3,0,0.6-0.1,0.8-0.3
	C28.9,15.9,29,15.6,29,15.3z M32.2,17.5v-6.1H34l0.1,0.8c0.2-0.2,0.4-0.4,0.6-0.6c0.3-0.2,0.6-0.3,1.1-0.3c0.2,0,0.3,0,0.4,0
	c0.1,0,0.2,0,0.4,0.1l-0.3,1.7C36,13,35.8,13,35.5,13c-0.4,0-0.8,0.1-1.1,0.4c-0.3,0.3-0.4,0.6-0.4,1.1v3H32.2z M37.3,17.5v-6.1h1.8
	l0.1,0.7c0.2-0.2,0.5-0.4,0.8-0.6c0.3-0.1,0.7-0.2,1-0.2c0.7,0,1.2,0.2,1.7,0.6c0.4,0.4,0.6,1,0.6,1.8v3.8h-1.9V14
	c0-0.3-0.1-0.6-0.3-0.8c-0.2-0.2-0.4-0.3-0.7-0.3c-0.4,0-0.7,0.1-0.9,0.4c-0.2,0.3-0.3,0.6-0.3,0.9v3.3H37.3z M46.9,17.5v-6.1h1.8
	l0.1,0.7c0.2-0.2,0.4-0.4,0.7-0.6c0.3-0.2,0.6-0.2,1-0.2c0.5,0,0.9,0.1,1.2,0.3c0.3,0.2,0.5,0.4,0.6,0.6c0.3-0.3,0.6-0.5,0.9-0.6
	c0.4-0.1,0.7-0.2,1.1-0.2c0.8,0,1.4,0.2,1.8,0.7c0.4,0.4,0.6,1,0.6,1.8v3.8h-1.9V14c0-0.4-0.1-0.6-0.2-0.8c-0.2-0.2-0.4-0.3-0.7-0.3
	c-0.4,0-0.6,0.1-0.9,0.4c-0.2,0.3-0.3,0.6-0.3,1v3.3H51V14c0-0.4-0.1-0.6-0.2-0.8c-0.2-0.2-0.4-0.3-0.7-0.3c-0.3,0-0.6,0.1-0.9,0.4
	c-0.2,0.3-0.3,0.6-0.3,1v3.3H46.9z M57.9,14.4c0-0.6,0.1-1.1,0.4-1.6c0.3-0.5,0.7-0.9,1.1-1.2c0.5-0.3,1.1-0.4,1.7-0.4
	c0.7,0,1.2,0.1,1.7,0.4c0.5,0.3,0.9,0.7,1.1,1.2c0.3,0.5,0.4,1,0.4,1.6c0,0.6-0.1,1.1-0.4,1.6c-0.3,0.5-0.6,0.9-1.1,1.2
	c-0.5,0.3-1.1,0.4-1.7,0.4c-0.6,0-1.2-0.1-1.7-0.4c-0.5-0.3-0.9-0.7-1.1-1.2C58,15.6,57.9,15,57.9,14.4z M61.2,16.1
	c0.3,0,0.6-0.1,0.8-0.2c0.2-0.2,0.4-0.4,0.5-0.6c0.1-0.3,0.2-0.5,0.2-0.8s-0.1-0.5-0.2-0.8c-0.1-0.3-0.3-0.5-0.5-0.6
	c-0.2-0.2-0.5-0.2-0.8-0.2c-0.3,0-0.6,0.1-0.8,0.2c-0.2,0.2-0.4,0.4-0.5,0.6c-0.1,0.2-0.2,0.5-0.2,0.8s0.1,0.5,0.2,0.8
	s0.3,0.5,0.5,0.6C60.6,16,60.9,16.1,61.2,16.1z M65.5,17.5v-6.1h1.8l0.1,0.8c0.2-0.2,0.4-0.4,0.6-0.6c0.3-0.2,0.6-0.3,1.1-0.3
	c0.2,0,0.3,0,0.4,0c0.1,0,0.2,0,0.4,0.1l-0.3,1.7C69.4,13,69.2,13,68.9,13c-0.4,0-0.8,0.1-1.1,0.4c-0.3,0.3-0.4,0.6-0.4,1.1v3H65.5z
	 M75.4,15.7l0.8,1.2c-0.1,0.1-0.2,0.2-0.5,0.3c-0.2,0.1-0.5,0.3-0.9,0.4c-0.4,0.1-0.8,0.2-1.3,0.2c-0.7,0-1.3-0.1-1.8-0.4
	c-0.5-0.3-0.9-0.7-1.2-1.2c-0.3-0.5-0.4-1.1-0.4-1.7c0-0.6,0.1-1.1,0.4-1.6c0.3-0.5,0.6-0.9,1.1-1.2c0.5-0.3,1-0.5,1.7-0.5
	c0.7,0,1.2,0.2,1.7,0.5c0.5,0.3,0.8,0.7,1,1.2c0.2,0.5,0.4,1.1,0.4,1.8V15h-4.3c0,0.3,0.2,0.6,0.4,0.9c0.3,0.3,0.7,0.4,1.2,0.4
	c0.5,0,0.9-0.1,1.2-0.2C75,15.9,75.2,15.8,75.4,15.7z M71.9,13.8h2.6c0-0.2,0-0.3-0.1-0.5c-0.1-0.2-0.2-0.3-0.4-0.5
	c-0.2-0.1-0.4-0.2-0.7-0.2c-0.3,0-0.5,0.1-0.7,0.2c-0.2,0.1-0.3,0.3-0.4,0.5C72,13.5,71.9,13.6,71.9,13.8z"/>
<path class="st1" d="M82.3,8.7l4.3,4.3l-4.3,4.3"/>
</svg>
