<?xml version="1.0" encoding="utf-8"?>
<!-- Generator: Adobe Illustrator 27.7.0, SVG Export Plug-In . SVG Version: 6.00 Build 0)  -->
<svg version="1.1" id="Layer_1" xmlns="http://www.w3.org/2000/svg" xmlns:xlink="http://www.w3.org/1999/xlink" x="0px" y="0px"
	 viewBox="0 0 70.6 53.9" style="enable-background:new 0 0 70.6 53.9;" xml:space="preserve">
<style type="text/css">
	.st0{fill:#B2BECC;}
</style>
<g>
	<g>
		<path class="st0" d="M45.1,38.6c4.6,0,8.3-4.3,8.6-8.9v-0.1l8.3-9.3c1.7-2,4.8-2.3,6.9-0.7c2.1,1.7,2.4,4.8,0.7,6.9
			c0,0-0.1,0.1-0.1,0.1l-16.6,19c-2.2,2.5-5.4,4-8.8,4H18.5l-4.3,4.3L0,39.3l11-11c3.7-3.8,11.9-2.8,11.9-2.8h22.4
			c2.6,0,4.7,2.1,4.7,4.7c0,0,0-0.7,0-0.7c-0.2,2.6-2.3,5.4-4.9,5.3h-9c-1,0-1.8,0.8-1.8,1.8c0,1,0.8,1.8,1.8,1.8L45.1,38.6
			L45.1,38.6z"/>
	</g>
</g>
</svg>
