<svg width="160" height="161" viewBox="0 0 160 161" fill="none" xmlns="http://www.w3.org/2000/svg">
<path d="M160 161L0 137V161H160Z" fill="#F9DD3E"/>
<path d="M91.0468 161H160L0 147.8L0 161H91.0468Z" fill="url(#paint0_linear_4211_3000)"/>
<path d="M109.045 31.7693H110.638V52.7365H109.045V31.7693ZM103.72 42.2466V46.1085C103.72 46.7747 103.613 47.4409 103.401 48.0857C103.19 48.7295 102.874 49.3168 102.462 49.8311C102.051 50.3434 101.532 50.7613 100.921 51.0729C100.312 51.3837 99.5947 51.5414 98.7912 51.5414C98.1678 51.5414 97.5513 51.4294 96.96 51.2083C96.3708 50.9892 95.8448 50.623 95.3939 50.1213C94.9419 49.6188 94.5757 48.9545 94.304 48.1471C94.0322 47.3377 93.8929 46.3306 93.8929 45.153C93.8929 44.0767 94.0254 43.132 94.2884 42.343C94.5504 41.556 94.9069 40.8966 95.3491 40.3833C95.7893 39.8729 96.3016 39.4863 96.8714 39.235C97.4431 38.9847 98.0587 38.8571 98.6977 38.8571C99.7408 38.8571 100.696 39.1678 101.54 39.7814C102.383 40.394 103.116 41.2239 103.721 42.2466H103.72ZM103.754 40.4096C103.57 40.1096 103.348 39.8087 103.091 39.5116C102.769 39.1366 102.38 38.7889 101.935 38.4792C101.489 38.1675 100.982 37.9094 100.422 37.7126C99.8596 37.5149 99.2295 37.4156 98.5447 37.4156C97.6944 37.4156 96.8841 37.5899 96.138 37.9327C95.3909 38.2756 94.7228 38.7879 94.153 39.4512C93.5832 40.1155 93.1274 40.9346 92.7972 41.8862C92.467 42.8378 92.2995 43.9365 92.2995 45.154C92.2995 46.5361 92.4621 47.7331 92.7806 48.7139C93.1011 49.6986 93.552 50.5187 94.1228 51.1528C94.6936 51.7879 95.3792 52.2573 96.1584 52.5486C96.9347 52.8388 97.7889 52.9859 98.6977 52.9859C99.8801 52.9859 100.917 52.6898 101.779 52.1073C102.552 51.5843 103.203 50.8937 103.719 50.0503V51.9418C103.719 52.9537 103.601 53.8274 103.369 54.5355C103.138 55.2378 102.813 55.8134 102.405 56.2449C101.997 56.6744 101.496 56.9871 100.917 57.178C100.333 57.3698 99.6687 57.4672 98.9441 57.4672C97.9925 57.4672 97.1042 57.3543 96.3055 57.1312C95.5029 56.9072 94.8104 56.6393 94.2455 56.3364L94.152 56.2858L93.7273 57.5987L93.7926 57.6328C94.3682 57.9426 95.1036 58.2348 95.9792 58.5026C96.8578 58.7714 97.8337 58.9078 98.8837 58.9078C100.889 58.9078 102.479 58.3283 103.61 57.1848C104.74 56.0413 105.313 54.2871 105.313 51.971V37.662H104.099L103.753 40.4106L103.754 40.4096ZM88.4531 45.0556V46.6325C88.4531 47.2344 88.3314 47.8364 88.0908 48.4178C87.8493 49.0013 87.4986 49.537 87.0467 50.0103C86.5948 50.4827 86.0298 50.8704 85.3675 51.1626C84.7052 51.4548 83.9299 51.6018 83.063 51.6018C82.6218 51.6018 82.1952 51.5414 81.7949 51.4216C81.3975 51.3028 81.0459 51.1158 80.7488 50.8674C80.4527 50.62 80.217 50.3045 80.0495 49.9275C79.881 49.5506 79.7953 49.0957 79.7953 48.5756C79.7953 47.3571 80.1917 46.4581 80.9738 45.903C81.7657 45.34 83.0893 45.0556 84.9088 45.0556H88.4531ZM84.5396 37.4117C83.4897 37.4117 82.5186 37.5422 81.6507 37.8013C80.7858 38.0594 80.0651 38.3584 79.507 38.6886L79.4466 38.7256L79.8401 39.945L79.9346 39.8924C80.5209 39.5691 81.1939 39.3012 81.9303 39.0986C82.6695 38.896 83.5481 38.7928 84.5396 38.7928C85.8029 38.7928 86.7837 39.0869 87.4519 39.6655C88.1152 40.2411 88.4522 41.2677 88.4522 42.7131V43.6735H84.9078C82.7436 43.6735 81.08 44.0845 79.9609 44.8939C78.833 45.7091 78.2622 46.9481 78.2622 48.5746C78.2622 49.2837 78.384 49.9188 78.6236 50.4613C78.8632 51.0048 79.2021 51.4713 79.6307 51.8492C80.0583 52.2252 80.5706 52.5115 81.155 52.7005C81.7345 52.8885 82.3657 52.983 83.029 52.983C84.3107 52.983 85.4357 52.6986 86.3688 52.1366C87.2288 51.6194 87.9408 50.8967 88.4843 49.9899L88.8311 52.7356H90.0135V42.7131C90.0135 41.0934 89.5547 39.7911 88.6509 38.8425C87.746 37.8928 86.362 37.4117 84.5396 37.4117Z" fill="white"/>
<path d="M55.2924 12.4491C54.2132 13.3169 54.0389 14.9113 54.9048 15.9915L68.4872 32.9546C69.3521 34.0358 70.9436 34.2111 72.0218 33.3433C73.101 32.4754 73.2753 30.881 72.4095 29.8008L58.828 12.8377C58.3323 12.2192 57.6008 11.8978 56.8625 11.8978C56.3102 11.8978 55.7541 12.078 55.2934 12.4491" fill="white"/>
<path d="M49.7192 40.7077C49.4913 42.0752 50.4205 43.3803 51.7851 43.6082L67.5064 46.2361C68.8709 46.464 70.1732 45.5319 70.4011 44.1644C70.629 42.7969 69.6988 41.4917 68.3343 41.2638L52.6139 38.636C52.4756 38.6126 52.3373 38.6019 52.201 38.6019C50.9961 38.6019 49.9237 39.4785 49.7192 40.7067" fill="white"/>
<path d="M75.2944 0.913042C73.9201 1.07375 72.9276 2.33021 73.0864 3.70744L75.5905 25.3107C75.7512 26.6879 77.0058 27.6824 78.3791 27.5227C79.7524 27.3619 80.7459 26.1055 80.5862 24.7283L78.082 3.12597C77.933 1.84613 76.8392 0.896484 75.5827 0.896484C75.4873 0.896484 75.3909 0.902328 75.2935 0.913042" fill="white"/>
<path d="M90.3076 8.17225L84.3604 24.5013C83.887 25.8036 84.561 27.2577 85.8604 27.7321C87.1606 28.2064 88.6119 27.5314 89.0853 26.2282L95.0325 9.89915C95.5068 8.59691 94.8319 7.14273 93.5325 6.6684C93.2501 6.56515 92.9618 6.51645 92.6764 6.51645C91.6488 6.51645 90.6797 7.15247 90.3076 8.17225Z" fill="white"/>
<path d="M99.9044 20.0375L93.0358 27.6308C92.1076 28.6574 92.1855 30.2586 93.2102 31.1898C94.2348 32.1199 95.8322 32.042 96.7613 31.0144L103.63 23.4212C104.558 22.3946 104.48 20.7933 103.456 19.8622C102.976 19.4268 102.372 19.2125 101.769 19.2125C101.083 19.2125 100.398 19.4901 99.9044 20.0365" fill="white"/>
<line x1="125.323" y1="83.4312" x2="35.0001" y2="83.4312" stroke="#A7A9B3" stroke-width="0.658076"/>
<g clip-path="url(#clip0_4211_3000)">
<path d="M116.338 117.526L120.671 129C119.394 128.817 118.117 128.589 116.817 128.383L114.376 122.043L111.867 127.859C110.636 127.654 109.426 127.585 108.194 127.426L112.597 117.389L108.605 107.102H112.301L114.536 112.85L116.931 107.102H120.671L116.338 117.526ZM105.686 107.102H102.333V126.993C103.427 127.061 104.568 127.106 105.686 127.243V107.102ZM99.4352 126.764C96.3791 126.559 93.3223 126.377 90.1978 126.308V107.102H93.6186V123.069C95.5807 123.115 97.5422 123.274 99.4352 123.365V126.764ZM86.5478 114.88V118.302H81.8723V126.08H78.496V107.102H88.0762V110.524H81.8723V114.88H86.5478ZM72.7477 110.524V126.263C71.6073 126.263 70.4442 126.263 69.3263 126.308V110.524H65.7906V107.102H76.306V110.524H72.7477ZM62.0955 118.484C60.5903 118.484 58.8108 118.484 57.5335 118.553V123.64C59.5408 123.502 61.5481 123.343 63.578 123.274V126.559L54.1121 127.312V107.102H63.578V110.524H57.5335V115.131C58.8567 115.131 60.8866 115.062 62.0955 115.062V118.484ZM43.1403 116.568V128.52C41.9088 128.658 40.8135 128.817 39.6504 129V107.102H42.9124L47.3601 119.534V107.102H50.7816V127.585C49.5727 127.791 48.3412 127.859 47.0406 128.041L43.1403 116.568Z" fill="#E50914"/>
</g>
<defs>
<linearGradient id="paint0_linear_4211_3000" x1="-0.956323" y1="161.208" x2="199.851" y2="160.65" gradientUnits="userSpaceOnUse">
<stop offset="0.238363" stop-color="#00CEED"/>
<stop offset="0.473958" stop-color="#0076BF"/>
<stop offset="0.733675" stop-color="#00168D"/>
</linearGradient>
<clipPath id="clip0_4211_3000">
<rect width="81.0216" height="21.8977" fill="white" transform="translate(39.6504 107.102)"/>
</clipPath>
</defs>
</svg>
