<svg width="970" height="250" viewBox="0 0 970 250" fill="none" xmlns="http://www.w3.org/2000/svg">
<path d="M600.915 76.6797C608.916 76.6797 614.933 79.2626 618.965 84.4287C623.06 89.5948 625.107 97.9109 625.107 109.377C625.107 120.78 623.091 128.97 619.06 133.947C615.028 138.861 608.979 141.319 600.915 141.319C592.851 141.319 586.803 138.861 582.771 133.947C578.739 128.97 576.723 120.78 576.723 109.377C576.723 97.9108 578.738 89.5948 582.771 84.4287C586.866 79.2626 592.914 76.6797 600.915 76.6797ZM651.905 76.6797C659.906 76.6797 665.923 79.2626 669.955 84.4287C674.05 89.5948 676.098 97.9108 676.098 109.377C676.098 120.78 674.082 128.97 670.05 133.947C666.018 138.861 659.969 141.319 651.905 141.319C643.841 141.319 637.793 138.861 633.761 133.947C629.729 128.97 627.713 120.78 627.713 109.377C627.713 97.9109 629.729 89.5948 633.761 84.4287C637.856 79.2626 643.904 76.6797 651.905 76.6797ZM573.361 140.185H560.319V92.5557L546.806 101.25L540.853 91.5166L561.454 77.8135H573.361V140.185ZM600.915 88.0195C597.072 88.0195 594.3 89.5951 592.599 92.7451C590.961 95.8952 590.142 101.345 590.142 109.094C590.142 116.843 590.992 122.261 592.693 125.348C594.394 128.435 597.167 129.979 601.01 129.979C604.853 129.978 607.593 128.435 609.231 125.348C610.869 122.261 611.688 116.842 611.688 109.094C611.688 101.282 610.869 95.8323 609.231 92.7451C607.593 89.5951 604.821 88.0196 600.915 88.0195ZM651.905 88.0195C648.062 88.0195 645.29 89.5951 643.589 92.7451C641.951 95.8952 641.132 101.345 641.132 109.094C641.132 116.843 641.983 122.261 643.684 125.348C645.385 128.435 648.157 129.979 652 129.979C655.843 129.978 658.584 128.435 660.222 125.348C661.86 122.261 662.679 116.843 662.679 109.094C662.679 101.282 661.86 95.8322 660.222 92.7451C658.584 89.5951 655.811 88.0195 651.905 88.0195ZM531.493 84.5156C533.454 84.7054 535.257 84.9591 536.901 85.2754L537.708 85.4648L537.187 90.4932C534.878 90.2402 532.743 90.0503 530.782 89.9238L529.833 97.5615C533.122 98.6051 535.351 99.7595 536.521 101.024C537.723 102.258 538.324 104.14 538.324 106.67C538.324 109.959 537.328 112.457 535.336 114.165C533.344 115.841 530.734 116.679 527.509 116.679H527.461L526.75 122.276C524.41 122.181 523.239 122.071 523.239 121.944L523.903 116.441C521.563 116.157 519.603 115.825 518.021 115.445L517.072 115.256L517.689 110.322C520.188 110.67 522.496 110.908 524.615 111.034L525.658 102.779C522.401 101.799 520.092 100.613 518.732 99.2217C517.373 97.8302 516.693 95.9327 516.693 93.5293C516.693 90.3984 517.642 88.0737 519.539 86.5557C521.437 85.0061 524.046 84.2315 527.366 84.2314H527.983L528.837 77.6846H532.348L531.493 84.5156ZM528.173 111.081C530.734 110.796 532.016 109.468 532.016 107.097C532.016 106.338 531.794 105.72 531.352 105.246C530.94 104.74 530.181 104.266 529.074 103.823L528.173 111.081ZM527.271 89.8291C524.425 89.9556 523.002 91.0469 523.002 93.1025C523.002 93.8614 523.24 94.4778 523.714 94.9521C524.188 95.4265 525.105 95.9169 526.465 96.4229L527.271 89.8291Z" fill="#FFE344"/>
<g clip-path="url(#clip0_8666_91026)">
<path d="M732.777 74.9717C734.312 74.9717 735.784 75.5813 736.869 76.6664C737.954 77.7515 738.563 79.2232 738.563 80.7578V116.76C738.563 118.295 737.954 119.767 736.869 120.852C735.784 121.937 734.312 122.546 732.777 122.546H696.775C695.24 122.546 693.769 121.937 692.683 120.852C691.598 119.767 690.989 118.295 690.989 116.76V80.7578C690.989 79.2232 691.598 77.7515 692.683 76.6664C693.769 75.5813 695.24 74.9717 696.775 74.9717H732.777ZM732.777 73.043H696.775C694.729 73.043 692.766 73.8558 691.32 75.3026C689.873 76.7494 689.06 78.7117 689.06 80.7578V116.76C689.06 118.806 689.873 120.769 691.32 122.215C692.766 123.662 694.729 124.475 696.775 124.475H732.777C734.823 124.475 736.786 123.662 738.233 122.215C739.679 120.769 740.492 118.806 740.492 116.76V80.7578C740.492 78.7117 739.679 76.7494 738.233 75.3026C736.786 73.8558 734.823 73.043 732.777 73.043V73.043Z" fill="white"/>
<g clip-path="url(#clip1_8666_91026)">
<path d="M715.418 105.677C717.417 105.677 719.044 107.321 719.044 109.342C719.044 111.362 717.417 113.008 715.418 113.008C713.419 113.008 711.793 111.362 711.793 109.342C711.794 107.321 713.419 105.677 715.418 105.677ZM715.418 107.767C714.56 107.767 713.861 108.474 713.861 109.342C713.861 110.21 714.56 110.917 715.418 110.917C716.277 110.917 716.976 110.21 716.976 109.342C716.976 108.474 716.277 107.767 715.418 107.767ZM715.418 98.29C719.094 98.29 722.551 99.7375 725.15 102.365C725.555 102.775 725.555 103.439 725.15 103.848C724.947 104.053 724.682 104.155 724.417 104.155C724.151 104.155 723.886 104.053 723.683 103.848C721.475 101.616 718.54 100.388 715.418 100.388C712.297 100.388 709.361 101.616 707.154 103.848C706.749 104.257 706.092 104.257 705.687 103.848C705.282 103.439 705.282 102.775 705.687 102.365C708.287 99.737 711.743 98.2901 715.418 98.29ZM715.418 90.8789C720.823 90.8784 726.227 92.9584 730.341 97.1182C730.746 97.5276 730.746 98.1912 730.341 98.6006C730.139 98.8055 729.873 98.9081 729.608 98.9082C729.342 98.9082 729.077 98.8055 728.875 98.6006C721.456 91.1005 709.384 91.0995 701.963 98.6006C701.558 99.0099 700.902 99.0098 700.497 98.6006C700.092 98.1911 700.092 97.5276 700.497 97.1182C704.61 92.959 710.015 90.8789 715.418 90.8789ZM715.418 84.1436C722.832 84.1436 729.802 87.0627 735.044 92.3623C735.247 92.5672 735.348 92.8352 735.348 93.1035C735.348 93.3719 735.247 93.6397 735.044 93.8447C734.842 94.0497 734.577 94.1523 734.311 94.1523C734.046 94.1523 733.78 94.0497 733.578 93.8447C728.727 88.9407 722.278 86.2412 715.418 86.2412C708.559 86.2412 702.109 88.9407 697.259 93.8447C696.854 94.2542 696.198 94.2542 695.792 93.8447C695.388 93.4353 695.388 92.7722 695.792 92.3623C701.035 87.0627 708.004 84.1436 715.418 84.1436Z" fill="white"/>
</g>
</g>
<path d="M752.978 108.266C754.155 107.754 755.221 107.498 756.177 107.498C757.934 107.498 759.196 107.993 759.964 108.982C760.749 109.955 761.142 111.687 761.142 114.178C761.142 116.668 760.681 118.408 759.76 119.397C758.839 120.37 757.218 120.856 754.897 120.856C754.096 120.856 752.824 120.78 751.084 120.626L750.214 120.55V102.457H752.978V108.266ZM790.902 107.498C791.806 107.498 792.872 107.618 794.101 107.856L794.74 107.984L794.639 110.186C793.291 110.049 792.293 109.98 791.645 109.98C790.348 109.98 789.478 110.271 789.034 110.851C788.591 111.431 788.368 112.522 788.368 114.126C788.368 115.73 788.582 116.839 789.009 117.453C789.435 118.067 790.322 118.374 791.67 118.374L794.664 118.17L794.74 120.396C793.017 120.703 791.721 120.856 790.851 120.856C788.906 120.856 787.532 120.336 786.73 119.296C785.946 118.238 785.554 116.514 785.554 114.126C785.554 111.738 785.972 110.04 786.808 109.033C787.644 108.01 789.009 107.498 790.902 107.498ZM810.5 107.498C814.083 107.498 815.874 109.452 815.874 113.358L815.694 115.354H807.762C807.779 116.412 808.009 117.189 808.452 117.684C808.896 118.178 809.723 118.426 810.935 118.426C812.146 118.426 813.391 118.374 814.671 118.271L815.388 118.195L815.438 120.268C813.494 120.66 811.771 120.856 810.27 120.856C808.376 120.856 807.011 120.336 806.175 119.296C805.356 118.255 804.946 116.592 804.946 114.306C804.946 109.768 806.798 107.498 810.5 107.498ZM828.485 120.575H825.722V119.91C824.476 120.541 823.333 120.856 822.292 120.856C820.62 120.856 819.392 120.353 818.607 119.347C817.84 118.34 817.456 116.651 817.456 114.279C817.456 111.908 817.882 110.185 818.735 109.11C819.605 108.036 820.953 107.498 822.778 107.498C823.393 107.498 824.366 107.609 825.696 107.831V102.457H828.485V120.575ZM840.366 107.779H843.897V110.159H840.366V115.789C840.366 116.83 840.443 117.521 840.597 117.862C840.75 118.203 841.142 118.374 841.773 118.374L843.872 118.298L844 120.523C842.857 120.745 841.987 120.856 841.39 120.856C839.94 120.856 838.941 120.524 838.396 119.858C837.867 119.193 837.603 117.939 837.603 116.097V110.159H835.965V107.779H837.603V104.068H840.366V107.779ZM766.212 120.575H763.423V107.779H766.212V120.575ZM772.026 120.575H769.237V102.457H772.026V120.575ZM777.987 120.575H775.198V102.457H777.987V120.575ZM804.04 110.287C802.573 110.577 801.319 110.953 800.278 111.413L799.715 111.644V120.575H796.926V107.779H799.689V109.315C801.14 108.377 802.59 107.771 804.04 107.498V110.287ZM834.142 120.575H831.353V107.779H834.142V120.575ZM755.844 109.98C755.025 109.981 754.206 110.108 753.388 110.364L752.978 110.492V118.271C753.916 118.34 754.556 118.374 754.897 118.374C756.262 118.374 757.167 118.059 757.61 117.428C758.071 116.779 758.301 115.687 758.301 114.151C758.301 112.616 758.104 111.541 757.712 110.927C757.337 110.296 756.714 109.98 755.844 109.98ZM822.855 109.903C821.132 109.903 820.271 111.337 820.271 114.203C820.271 115.773 820.467 116.864 820.859 117.479C821.269 118.076 821.908 118.374 822.778 118.374C823.648 118.374 824.476 118.221 825.261 117.914L825.696 117.734V110.159C824.673 109.989 823.726 109.903 822.855 109.903ZM810.5 109.801C809.545 109.801 808.845 110.066 808.401 110.595C807.975 111.124 807.753 111.994 807.736 113.205H813.136C813.136 111.943 812.931 111.064 812.521 110.569C812.129 110.058 811.455 109.801 810.5 109.801ZM766.212 105.604H763.423V102.661H766.212V105.604ZM834.142 105.604H831.353V102.661H834.142V105.604ZM772.686 81.7793H776.218V84.1592H772.686V89.7891C772.686 90.8296 772.763 91.521 772.916 91.8623C773.07 92.2035 773.463 92.374 774.094 92.374L776.191 92.2979L776.319 94.5234C775.177 94.7451 774.307 94.8564 773.71 94.8564C772.26 94.8564 771.262 94.5237 770.716 93.8584C770.187 93.193 769.922 91.9392 769.922 90.0967V84.1592H768.284V81.7793H769.922V78.0684H772.686V81.7793ZM782.933 81.498C786.515 81.4981 788.307 83.4516 788.307 87.3584L788.127 89.3545H780.194C780.211 90.4122 780.441 91.1888 780.885 91.6836C781.328 92.1783 782.156 92.4257 783.367 92.4258C784.578 92.4258 785.824 92.3738 787.104 92.2715L787.82 92.1953L787.871 94.2676C785.926 94.6599 784.203 94.8564 782.702 94.8564C780.809 94.8564 779.443 94.3365 778.607 93.2959C777.789 92.2553 777.379 90.5916 777.379 88.3057C777.379 83.7675 779.23 81.498 782.933 81.498ZM817.609 81.498C821.192 81.4981 822.983 83.4515 822.983 87.3584L822.805 89.3545H814.871C814.888 90.4122 815.118 91.1888 815.562 91.6836C816.005 92.1783 816.833 92.4257 818.044 92.4258C819.255 92.4258 820.501 92.3738 821.78 92.2715L822.497 92.1953L822.549 94.2676C820.604 94.66 818.88 94.8564 817.379 94.8564C815.485 94.8564 814.12 94.3365 813.284 93.2959C812.465 92.2553 812.056 90.5916 812.056 88.3057C812.056 83.7675 813.907 81.498 817.609 81.498ZM828.506 81.7793H832.038V84.1592H828.506V89.7891C828.506 90.8296 828.583 91.521 828.736 91.8623C828.89 92.2035 829.283 92.374 829.914 92.374L832.013 92.2979L832.141 94.5234C830.998 94.7452 830.127 94.8564 829.53 94.8564C828.08 94.8564 827.082 94.5237 826.536 93.8584C826.007 93.193 825.742 91.9392 825.742 90.0967V84.1592H824.104V81.7793H825.742V78.0684H828.506V81.7793ZM753.004 94.5752H750.214V81.7793H753.004V94.5752ZM762.171 81.498C763.877 81.4981 765.037 81.9846 765.651 82.957C766.282 83.9125 766.598 85.4992 766.598 87.7168V94.5752H763.834V87.793C763.834 86.4113 763.68 85.4306 763.373 84.8506C763.083 84.2706 762.478 83.9805 761.557 83.9805C760.687 83.9805 759.851 84.1511 759.049 84.4922L758.665 84.6455V94.5752H755.875V81.7793H758.639V82.5732C759.884 81.8567 761.062 81.498 762.171 81.498ZM797.592 84.2871C796.125 84.5771 794.87 84.9524 793.829 85.4131L793.267 85.6436V94.5752H790.477V81.7793H793.241V83.3154C794.691 82.3771 796.142 81.771 797.592 81.498V84.2871ZM805.508 81.498C807.214 81.4981 808.373 81.9847 808.987 82.957C809.619 83.9124 809.935 85.4989 809.935 87.7168V94.5752H807.171V87.793C807.171 86.4113 807.017 85.4306 806.71 84.8506C806.42 84.2706 805.815 83.9806 804.894 83.9805C804.023 83.9805 803.187 84.151 802.385 84.4922L802.001 84.6455V94.5752H799.212V81.7793H801.976V82.5732C803.221 81.8567 804.399 81.498 805.508 81.498ZM782.933 83.8008C781.977 83.8008 781.278 84.0658 780.834 84.5947C780.408 85.1236 780.186 85.9939 780.169 87.2051H785.568C785.568 85.9428 785.363 85.0641 784.954 84.5693C784.562 84.0575 783.888 83.8008 782.933 83.8008ZM817.609 83.8008C816.654 83.8008 815.954 84.0658 815.511 84.5947C815.084 85.1236 814.863 85.9939 814.846 87.2051H820.245C820.245 85.9427 820.04 85.0641 819.631 84.5693C819.238 84.0575 818.565 83.8008 817.609 83.8008ZM753.004 79.6045H750.214V76.6611H753.004V79.6045Z" fill="white"/>
<path d="M691.684 135.054H692.892L695.07 143.926H695.348L697.922 135.252H699.17L701.745 143.926H702.042L704.22 135.054H705.428L702.953 144.956H700.893L698.556 136.796L696.199 144.956H694.159L691.684 135.054ZM707.167 144.956V135.054H708.335V144.956H707.167ZM707.167 132.578V131.093H708.335V132.578H707.167ZM715.92 136.103H712.613V140.995C712.613 142.276 712.705 143.114 712.89 143.51C713.075 143.906 713.51 144.104 714.197 144.104L716.019 143.966L716.098 144.976C715.227 145.108 714.56 145.174 714.098 145.174C713.094 145.174 712.395 144.93 711.999 144.441C711.616 143.939 711.424 142.989 711.424 141.589V136.103H709.959V135.054H711.424V131.944H712.613V135.054H715.92V136.103ZM718.548 144.956H717.379V130.657H718.548V135.628C719.657 135.113 720.726 134.856 721.756 134.856C723.076 134.856 723.954 135.205 724.39 135.905C724.839 136.605 725.063 137.886 725.063 139.747V144.956H723.875V139.807C723.875 138.288 723.73 137.265 723.439 136.737C723.162 136.196 722.548 135.925 721.598 135.925C721.135 135.925 720.647 135.984 720.132 136.103C719.63 136.209 719.241 136.321 718.964 136.44L718.548 136.598V144.956ZM730.508 144.956L734.469 131.192H737.341L741.282 144.956H740.074L738.965 141.154H732.826L731.736 144.956H730.508ZM735.361 132.261L733.123 140.064H738.668L736.43 132.261H735.361ZM748.255 139.094V138.005H751.998V144.659C751.615 144.738 750.941 144.837 749.978 144.956C749.014 145.088 748.215 145.154 747.581 145.154C745.601 145.154 744.228 144.573 743.462 143.411C742.696 142.249 742.313 140.487 742.313 138.123C742.313 136.948 742.392 135.945 742.551 135.113C742.709 134.281 742.986 133.542 743.383 132.895C744.135 131.627 745.528 130.994 747.561 130.994C748.803 130.994 750.063 131.119 751.344 131.37L751.998 131.509L751.938 132.558C750.288 132.255 748.862 132.103 747.66 132.103C746.063 132.103 744.98 132.585 744.412 133.548C743.858 134.499 743.581 136.017 743.581 138.104C743.581 140.19 743.858 141.701 744.412 142.639C744.98 143.576 746.056 144.045 747.641 144.045C748.578 144.045 749.628 143.939 750.79 143.728V139.094H748.255ZM762.201 144.956H754.675V131.192H755.903V143.847H762.201V144.956ZM774.068 143.966L774.662 143.906L774.702 144.877C773.21 145.062 771.949 145.154 770.919 145.154C769.493 145.141 768.496 144.718 767.928 143.887C767.361 143.055 767.077 141.774 767.077 140.044C767.077 136.585 768.437 134.856 771.157 134.856C772.464 134.856 773.441 135.232 774.088 135.984C774.735 136.724 775.058 137.912 775.058 139.549L775.018 140.5H768.285C768.285 141.715 768.489 142.619 768.899 143.213C769.321 143.794 770.034 144.085 771.038 144.085C772.054 144.085 773.064 144.045 774.068 143.966ZM768.285 139.51H773.87C773.87 138.203 773.652 137.272 773.216 136.717C772.794 136.163 772.107 135.885 771.157 135.885C770.219 135.885 769.506 136.176 769.018 136.757C768.529 137.325 768.285 138.242 768.285 139.51ZM777.215 144.956V130.657H778.383V144.956H777.215ZM787.626 143.966L788.221 143.906L788.26 144.877C786.768 145.062 785.507 145.154 784.477 145.154C783.051 145.141 782.055 144.718 781.487 143.887C780.919 143.055 780.635 141.774 780.635 140.044C780.635 136.585 781.995 134.856 784.715 134.856C786.022 134.856 786.999 135.232 787.646 135.984C788.293 136.724 788.617 137.912 788.617 139.549L788.577 140.5H781.843C781.843 141.715 782.048 142.619 782.457 143.213C782.88 143.794 783.593 144.085 784.596 144.085C785.613 144.085 786.623 144.045 787.626 143.966ZM781.843 139.51H787.428C787.428 138.203 787.21 137.272 786.775 136.717C786.352 136.163 785.666 135.885 784.715 135.885C783.778 135.885 783.065 136.176 782.576 136.757C782.088 137.325 781.843 138.242 781.843 139.51ZM794.338 134.856C794.933 134.856 795.639 134.922 796.457 135.054L796.913 135.113L796.854 136.123C795.811 135.991 795.038 135.925 794.536 135.925C793.361 135.925 792.556 136.216 792.12 136.796C791.685 137.364 791.467 138.42 791.467 139.965C791.467 141.497 791.665 142.566 792.061 143.174C792.457 143.781 793.282 144.085 794.536 144.085L796.893 143.906L796.933 144.916C795.758 145.075 794.886 145.154 794.319 145.154C792.747 145.154 791.671 144.765 791.09 143.986C790.523 143.207 790.239 141.867 790.239 139.965C790.239 138.064 790.549 136.737 791.17 135.984C791.803 135.232 792.86 134.856 794.338 134.856ZM803.837 136.103H800.53V140.995C800.53 142.276 800.622 143.114 800.807 143.51C800.992 143.906 801.428 144.104 802.114 144.104L803.936 143.966L804.015 144.976C803.144 145.108 802.477 145.174 802.015 145.174C801.012 145.174 800.312 144.93 799.916 144.441C799.533 143.939 799.341 142.989 799.341 141.589V136.103H797.876V135.054H799.341V131.944H800.53V135.054H803.837V136.103ZM805.296 144.956V135.054H806.465V136.48C806.953 136.136 807.547 135.806 808.247 135.489C808.96 135.172 809.614 134.961 810.208 134.856V136.044C809.64 136.163 809.046 136.348 808.425 136.598C807.805 136.836 807.323 137.047 806.98 137.232L806.465 137.529V144.956H805.296ZM811.611 144.956V135.054H812.78V144.956H811.611ZM811.611 132.578V131.093H812.78V132.578H811.611ZM819.038 134.856C819.632 134.856 820.338 134.922 821.157 135.054L821.613 135.113L821.553 136.123C820.51 135.991 819.738 135.925 819.236 135.925C818.061 135.925 817.255 136.216 816.82 136.796C816.384 137.364 816.166 138.42 816.166 139.965C816.166 141.497 816.364 142.566 816.76 143.174C817.156 143.781 817.982 144.085 819.236 144.085L821.593 143.906L821.632 144.916C820.457 145.075 819.586 145.154 819.018 145.154C817.447 145.154 816.371 144.765 815.79 143.986C815.222 143.207 814.938 141.867 814.938 139.965C814.938 138.064 815.249 136.737 815.869 135.984C816.503 135.232 817.559 134.856 819.038 134.856ZM823.526 144.956V135.054H824.694V144.956H823.526ZM823.526 132.578V131.093H824.694V132.578H823.526ZM832.279 136.103H828.972V140.995C828.972 142.276 829.064 143.114 829.249 143.51C829.434 143.906 829.87 144.104 830.556 144.104L832.378 143.966L832.458 144.976C831.586 145.108 830.919 145.174 830.457 145.174C829.454 145.174 828.754 144.93 828.358 144.441C827.975 143.939 827.784 142.989 827.784 141.589V136.103H826.318V135.054H827.784V131.944H828.972V135.054H832.279V136.103ZM832.788 135.054H833.996L836.63 143.926H837.343L839.997 135.054H841.205L836.927 149.412H835.739L837.066 144.956H835.699L832.788 135.054Z" fill="white"/>
<defs>
<clipPath id="clip0_8666_91026">
<rect width="51.4321" height="51.4321" fill="white" transform="translate(689.06 73.043)"/>
</clipPath>
<clipPath id="clip1_8666_91026">
<rect width="39.8598" height="39.8598" fill="white" transform="translate(695.489 78.8291)"/>
</clipPath>
</defs>
</svg>
