<svg width="106" height="22" viewBox="0 0 106 22" fill="none" xmlns="http://www.w3.org/2000/svg">
<rect width="106" height="22" rx="4" fill="#DD5900"/>
<path d="M17.4343 13.345H18.2923C20.0523 13.345 20.8993 12.333 20.8993 10.595V10.507C20.8993 8.813 20.1293 7.79 18.2813 7.79H17.4343V13.345ZM15.9713 14.5V6.635H18.3583C21.0973 6.635 22.4283 8.197 22.4283 10.485V10.584C22.4283 12.872 21.0973 14.5 18.3363 14.5H15.9713ZM23.7469 14.5V8.747H25.0779V14.5H23.7469ZM24.3959 7.801C23.9559 7.801 23.6039 7.471 23.6039 7.042C23.6039 6.602 23.9559 6.272 24.3959 6.272C24.8359 6.272 25.1879 6.602 25.1879 7.042C25.1879 7.471 24.8359 7.801 24.3959 7.801ZM28.6692 14.61C27.1842 14.61 26.3152 13.928 26.2602 12.707H27.5142C27.5802 13.29 27.8772 13.631 28.6582 13.631C29.3732 13.631 29.6922 13.378 29.6922 12.894C29.6922 12.421 29.3072 12.245 28.4602 12.102C26.9422 11.86 26.3812 11.431 26.3812 10.353C26.3812 9.198 27.4592 8.626 28.5372 8.626C29.7142 8.626 30.6492 9.066 30.7922 10.364H29.5602C29.4502 9.836 29.1532 9.594 28.5372 9.594C27.9652 9.594 27.6242 9.869 27.6242 10.276C27.6242 10.694 27.8992 10.859 28.8122 11.013C30.1652 11.222 30.9682 11.552 30.9682 12.773C30.9682 13.939 30.1432 14.61 28.6692 14.61ZM34.6548 14.61C33.0048 14.61 31.7508 13.532 31.7508 11.695V11.607C31.7508 9.781 33.0488 8.626 34.6548 8.626C35.9308 8.626 37.1298 9.198 37.2838 10.782H35.9968C35.8868 10.012 35.3808 9.693 34.6768 9.693C33.7638 9.693 33.1148 10.397 33.1148 11.585V11.673C33.1148 12.927 33.7308 13.587 34.7098 13.587C35.4138 13.587 36.0188 13.169 36.0958 12.355H37.3168C37.2178 13.675 36.2168 14.61 34.6548 14.61ZM41.0369 13.576C42.0269 13.576 42.6209 12.839 42.6209 11.662V11.585C42.6209 10.397 42.0269 9.671 41.0369 9.671C40.0469 9.671 39.4419 10.386 39.4419 11.574V11.662C39.4419 12.839 40.0249 13.576 41.0369 13.576ZM41.0259 14.61C39.3319 14.61 38.0779 13.433 38.0779 11.684V11.596C38.0779 9.814 39.3429 8.626 41.0369 8.626C42.7199 8.626 43.9849 9.803 43.9849 11.563V11.651C43.9849 13.444 42.7199 14.61 41.0259 14.61ZM46.4797 14.5L44.3787 8.747H45.8087L47.3157 13.136L48.8007 8.747H50.1097L48.0307 14.5H46.4797ZM53.4109 14.61C51.7169 14.61 50.4959 13.499 50.4959 11.684V11.596C50.4959 9.814 51.7169 8.626 53.3559 8.626C54.7859 8.626 56.0729 9.473 56.0729 11.53V11.915H51.8599C51.9039 13.004 52.4539 13.62 53.4439 13.62C54.2469 13.62 54.6649 13.301 54.7639 12.74H56.0509C55.8639 13.95 54.8849 14.61 53.4109 14.61ZM51.8819 11.024H54.7529C54.6869 10.034 54.1809 9.594 53.3559 9.594C52.5529 9.594 52.0139 10.133 51.8819 11.024ZM57.2617 14.5V8.747H58.5927V9.825C58.9557 9.099 59.4947 8.67 60.4627 8.659V9.902C59.2967 9.913 58.5927 10.287 58.5927 11.508V14.5H57.2617ZM64.2549 14.5V8.747H65.5859V9.627C65.8609 9.088 66.4879 8.626 67.3349 8.626C68.0829 8.626 68.6769 8.945 68.9629 9.66C69.4029 8.945 70.1949 8.626 70.9099 8.626C71.9659 8.626 72.8239 9.275 72.8239 10.859V14.5H71.4929V10.947C71.4929 10.1 71.1299 9.737 70.4699 9.737C69.8099 9.737 69.2049 10.177 69.2049 11.057V14.5H67.8739V10.947C67.8739 10.1 67.4999 9.737 66.8509 9.737C66.1909 9.737 65.5859 10.177 65.5859 11.057V14.5H64.2549ZM76.9265 13.576C77.9165 13.576 78.5105 12.839 78.5105 11.662V11.585C78.5105 10.397 77.9165 9.671 76.9265 9.671C75.9365 9.671 75.3315 10.386 75.3315 11.574V11.662C75.3315 12.839 75.9145 13.576 76.9265 13.576ZM76.9155 14.61C75.2215 14.61 73.9675 13.433 73.9675 11.684V11.596C73.9675 9.814 75.2325 8.626 76.9265 8.626C78.6095 8.626 79.8745 9.803 79.8745 11.563V11.651C79.8745 13.444 78.6095 14.61 76.9155 14.61ZM81.0772 14.5V8.747H82.4082V9.825C82.7712 9.099 83.3102 8.67 84.2782 8.659V9.902C83.1122 9.913 82.4082 10.287 82.4082 11.508V14.5H81.0772ZM87.8718 14.61C86.1778 14.61 84.9568 13.499 84.9568 11.684V11.596C84.9568 9.814 86.1778 8.626 87.8168 8.626C89.2468 8.626 90.5338 9.473 90.5338 11.53V11.915H86.3208C86.3648 13.004 86.9148 13.62 87.9048 13.62C88.7078 13.62 89.1258 13.301 89.2248 12.74H90.5118C90.3248 13.95 89.3458 14.61 87.8718 14.61ZM86.3428 11.024H89.2138C89.1478 10.034 88.6418 9.594 87.8168 9.594C87.0138 9.594 86.4748 10.133 86.3428 11.024Z" fill="white"/>
</svg>
