<?xml version="1.0" encoding="utf-8"?>
<!-- Generator: Adobe Illustrator 27.7.0, SVG Export Plug-In . SVG Version: 6.00 Build 0)  -->
<svg version="1.1" id="Layer_1" xmlns="http://www.w3.org/2000/svg" xmlns:xlink="http://www.w3.org/1999/xlink" x="0px" y="0px"
	 viewBox="0 0 268 40" style="enable-background:new 0 0 268 40;" xml:space="preserve">
<style type="text/css">
	.st0{fill:#222222;}
</style>
<path class="st0" d="M1.6,15V1.4h4.9c2.8,0,4.4,1.1,4.4,3.5V5c0,1.3-0.6,2.4-2.1,2.9c1.8,0.4,2.7,1.4,2.7,3.2v0.1
	c0,2.5-1.7,3.8-4.7,3.8H1.6z M4,13.2h2.5c1.7,0,2.5-0.8,2.5-2.2V11c0-1.4-0.8-2.1-2.6-2.1H4V13.2z M4,7.1h2.1c1.7,0,2.3-0.6,2.3-2
	V5.1c0-1.3-0.7-1.8-2.4-1.8H4V7.1z M16.6,15.2c-2,0-3.4-1.1-3.4-3.8V5.1h2.3v6.1c0,1.5,0.6,2.2,2,2.2c1.2,0,2.3-0.8,2.3-2.4V5.1H22
	V15h-2.3v-1.6C19.2,14.4,18.2,15.2,16.6,15.2z M24.4,15V5.1h2.3V15H24.4z M25.5,3.4c-0.8,0-1.4-0.6-1.4-1.3c0-0.8,0.6-1.3,1.4-1.3
	s1.4,0.6,1.4,1.3C26.9,2.9,26.3,3.4,25.5,3.4z M29.2,15V0.5h2.3V15H29.2z M37.6,15.2c-2.5,0-4.4-1.8-4.4-5V10c0-3.2,1.9-5.2,4.5-5.2
	c1.6,0,2.6,0.7,3.2,1.7V0.5h2.3V15h-2.3v-1.7C40.4,14.3,39.1,15.2,37.6,15.2z M38.2,13.4c1.6,0,2.8-1.1,2.8-3.3V9.9
	c0-2.2-1-3.3-2.7-3.3c-1.7,0-2.7,1.2-2.7,3.3v0.2C35.6,12.3,36.7,13.4,38.2,13.4z M45.6,15V5.1h2.3V15H45.6z M46.7,3.4
	c-0.8,0-1.4-0.6-1.4-1.3c0-0.8,0.6-1.3,1.4-1.3c0.8,0,1.4,0.6,1.4,1.3C48.1,2.9,47.5,3.4,46.7,3.4z M50.3,15V5.1h2.3v1.6
	c0.5-1,1.6-1.8,3.2-1.8c2,0,3.4,1.2,3.4,3.9V15h-2.3V9c0-1.5-0.6-2.2-2-2.2c-1.3,0-2.3,0.8-2.3,2.4V15H50.3z M65.8,18.6
	c-3.1,0-4.5-1.4-4.8-3.3h2.3c0.2,1,0.9,1.6,2.5,1.6c1.8,0,2.8-0.9,2.8-2.7v-1.5c-0.6,0.9-1.8,1.8-3.2,1.8c-2.5,0-4.4-1.9-4.4-4.7
	V9.7c0-2.8,1.9-4.9,4.5-4.9c1.6,0,2.6,0.7,3.2,1.7V5.1h2.3v9.2C70.8,17.2,68.8,18.6,65.8,18.6z M65.8,12.8c1.6,0,2.8-1.1,2.8-3V9.7
	c0-1.9-1-3-2.7-3c-1.7,0-2.7,1.2-2.7,3v0.2C63.2,11.7,64.3,12.8,65.8,12.8z M80.7,15.2c-2.6,0-4.1-1.2-4.2-3.3h2.2
	c0.1,1,0.6,1.6,2,1.6c1.2,0,1.8-0.4,1.8-1.3c0-0.8-0.7-1.1-2.1-1.4c-2.6-0.4-3.6-1.2-3.6-3c0-2,1.9-3,3.7-3c2,0,3.6,0.8,3.9,3h-2.1
	c-0.2-0.9-0.7-1.3-1.8-1.3c-1,0-1.6,0.5-1.6,1.2c0,0.7,0.5,1,2.1,1.3c2.3,0.4,3.7,0.9,3.7,3C84.7,14,83.3,15.2,80.7,15.2z
	 M89.7,15.2c-2,0-3-1.1-3-2.9V6.8h-1.3V5.1h1.3V2.9H89v2.2h2.2v1.7H89V12c0,0.9,0.4,1.3,1.1,1.3c0.5,0,0.8-0.1,1.1-0.2v1.8
	C90.9,15.1,90.4,15.2,89.7,15.2z M92.9,15V5.1h2.3v1.9c0.6-1.3,1.6-2,3.2-2v2.1c-2,0-3.2,0.7-3.2,2.8V15H92.9z M104.4,13.4
	c1.7,0,2.7-1.3,2.7-3.3V10c0-2.1-1-3.3-2.7-3.3c-1.7,0-2.8,1.2-2.8,3.3v0.2C101.6,12.1,102.6,13.4,104.4,13.4z M104.4,15.2
	c-2.9,0-5.1-2-5.1-5.1V10c0-3.1,2.2-5.1,5.1-5.1c2.9,0,5.1,2,5.1,5.1v0.2C109.5,13.2,107.3,15.2,104.4,15.2z M111.2,15V5.1h2.3v1.6
	c0.5-1,1.6-1.8,3.2-1.8c2,0,3.4,1.2,3.4,3.9V15h-2.3V9c0-1.5-0.6-2.2-2-2.2c-1.3,0-2.3,0.8-2.3,2.4V15H111.2z M126.6,18.6
	c-3.1,0-4.5-1.4-4.8-3.3h2.3c0.2,1,1,1.6,2.5,1.6c1.8,0,2.8-0.9,2.8-2.7v-1.5c-0.6,0.9-1.8,1.8-3.2,1.8c-2.5,0-4.4-1.9-4.4-4.7V9.7
	c0-2.8,1.9-4.9,4.5-4.9c1.6,0,2.6,0.7,3.2,1.7V5.1h2.3v9.2C131.6,17.2,129.7,18.6,126.6,18.6z M126.7,12.8c1.6,0,2.8-1.1,2.8-3V9.7
	c0-1.9-1-3-2.7-3c-1.7,0-2.7,1.2-2.7,3v0.2C124,11.7,125.2,12.8,126.7,12.8z M138.4,15.2c-2.9,0-5-1.9-5-5.1V10
	c0-3.1,2.1-5.1,4.9-5.1c2.5,0,4.7,1.5,4.7,5v0.7h-7.3c0.1,1.9,1,2.9,2.7,2.9c1.4,0,2.1-0.6,2.3-1.5h2.2
	C142.6,14.1,140.9,15.2,138.4,15.2z M135.7,9h5c-0.1-1.7-1-2.5-2.4-2.5C136.9,6.5,135.9,7.5,135.7,9z M144.6,15V5.1h2.3v1.9
	c0.6-1.3,1.6-2,3.2-2v2.1c-2,0-3.2,0.7-3.2,2.8V15H144.6z M156,18.4V5.1h2.3v1.6c0.6-0.9,1.8-1.8,3.2-1.8c2.5,0,4.4,1.8,4.4,5.1v0.2
	c0,3.2-1.8,5.1-4.4,5.1c-1.6,0-2.7-0.8-3.2-1.7v5H156z M160.9,13.4c1.7,0,2.6-1.1,2.6-3.3V9.9c0-2.2-1.1-3.3-2.6-3.3
	c-1.6,0-2.7,1.1-2.7,3.3v0.2C158.2,12.3,159.3,13.4,160.9,13.4z M170.2,15.2c-1.8,0-3.3-0.9-3.3-2.9c0-2.3,2.2-3.2,5.1-3.2h1.2V8.6
	c0-1.3-0.5-2-1.8-2c-1.2,0-1.8,0.6-1.9,1.6h-2.2c0.2-2.3,2-3.3,4.3-3.3c2.2,0,4,0.9,4,3.6V15h-2.3v-1.2
	C172.6,14.6,171.7,15.2,170.2,15.2z M170.8,13.5c1.4,0,2.5-0.7,2.5-2v-1H172c-1.7,0-2.9,0.4-2.9,1.6C169.2,13,169.6,13.5,170.8,13.5
	z M181.1,15.2c-2,0-3-1.1-3-2.9V6.8h-1.3V5.1h1.3V2.9h2.3v2.2h2.2v1.7h-2.2V12c0,0.9,0.4,1.3,1.1,1.3c0.5,0,0.8-0.1,1.1-0.2v1.8
	C182.3,15.1,181.8,15.2,181.1,15.2z M184.4,15V0.5h2.3v6.2c0.5-1,1.6-1.8,3.2-1.8c2,0,3.4,1.2,3.4,3.9V15H191V9c0-1.5-0.6-2.2-2-2.2
	c-1.3,0-2.3,0.8-2.3,2.4V15H184.4z M197.4,15l-3-9.9h2.5l2,7.2l2.1-7.2h1.9l1.9,7.2l2.1-7.2h2.2L206,15h-2.3l-1.8-6.7l-2,6.7H197.4z
	 M212.8,15.2c-1.8,0-3.3-0.9-3.3-2.9c0-2.3,2.2-3.2,5.1-3.2h1.2V8.6c0-1.3-0.5-2-1.8-2c-1.2,0-1.8,0.6-1.9,1.6h-2.2
	c0.2-2.3,2-3.3,4.3-3.3c2.2,0,4,0.9,4,3.6V15h-2.3v-1.2C215.2,14.6,214.3,15.2,212.8,15.2z M213.4,13.5c1.4,0,2.5-0.7,2.5-2v-1h-1.2
	c-1.7,0-2.9,0.4-2.9,1.6C211.8,13,212.2,13.5,213.4,13.5z M221.2,18.4L223,14l-3.9-8.9h2.5l2.6,6.4l2.4-6.4h2.2l-5.4,13.3H221.2z
	 M233.6,15.2c-2.6,0-4.1-1.2-4.2-3.3h2.2c0.1,1,0.6,1.6,2,1.6c1.2,0,1.8-0.4,1.8-1.3c0-0.8-0.7-1.1-2.1-1.4c-2.6-0.4-3.6-1.2-3.6-3
	c0-2,1.9-3,3.7-3c2,0,3.6,0.8,3.9,3h-2.1c-0.2-0.9-0.7-1.3-1.8-1.3c-1,0-1.6,0.5-1.6,1.2c0,0.7,0.5,1,2.1,1.3c2.3,0.4,3.7,0.9,3.7,3
	C237.6,14,236.1,15.2,233.6,15.2z"/>
</svg>
