<?xml version="1.0" encoding="utf-8"?>
<!-- Generator: Adobe Illustrator 27.7.0, SVG Export Plug-In . SVG Version: 6.00 Build 0)  -->
<svg version="1.1" id="Layer_1" xmlns="http://www.w3.org/2000/svg" xmlns:xlink="http://www.w3.org/1999/xlink" x="0px" y="0px"
	 viewBox="0 0 190 40" style="enable-background:new 0 0 190 40;" xml:space="preserve">
<style type="text/css">
	.st0{fill:#222222;}
</style>
<path class="st0" d="M1.6,15V1.4h2.5V15H1.6z M6.8,15V5.1h2.3v1.6c0.5-1,1.6-1.8,3.2-1.8c2,0,3.4,1.2,3.4,3.9V15h-2.3V9
	c0-1.5-0.6-2.2-2-2.2c-1.3,0-2.3,0.8-2.3,2.4V15H6.8z M21.4,15.2c-2.6,0-4.1-1.2-4.2-3.3h2.2c0.1,1,0.6,1.6,2,1.6
	c1.2,0,1.8-0.4,1.8-1.3c0-0.8-0.7-1.1-2.1-1.4c-2.6-0.4-3.6-1.2-3.6-3c0-2,1.9-3,3.7-3c2,0,3.6,0.8,3.9,3h-2.1
	c-0.2-0.9-0.7-1.3-1.8-1.3c-1,0-1.6,0.5-1.6,1.2c0,0.7,0.5,1,2.1,1.3c2.3,0.4,3.7,0.9,3.7,3C25.4,14,23.9,15.2,21.4,15.2z M27,18.4
	V5.1h2.3v1.6c0.6-0.9,1.8-1.8,3.2-1.8C35,4.9,37,6.7,37,9.9v0.2c0,3.2-1.8,5.1-4.4,5.1c-1.6,0-2.7-0.8-3.2-1.7v5H27z M32,13.4
	c1.7,0,2.6-1.1,2.6-3.3V9.9c0-2.2-1.1-3.3-2.6-3.3c-1.6,0-2.7,1.1-2.7,3.3v0.2C29.2,12.3,30.3,13.4,32,13.4z M38.7,15V5.1H41V15
	H38.7z M39.8,3.4c-0.8,0-1.4-0.6-1.4-1.3c0-0.8,0.6-1.3,1.4-1.3c0.8,0,1.4,0.6,1.4,1.3C41.2,2.9,40.6,3.4,39.8,3.4z M43.4,15V5.1
	h2.3v1.9c0.6-1.3,1.6-2,3.2-2v2.1c-2,0-3.2,0.7-3.2,2.8V15H43.4z M50.7,15V5.1H53V15H50.7z M51.8,3.4c-0.8,0-1.4-0.6-1.4-1.3
	c0-0.8,0.6-1.3,1.4-1.3s1.4,0.6,1.4,1.3C53.1,2.9,52.5,3.4,51.8,3.4z M55.4,15V5.1h2.3v1.6c0.5-1,1.6-1.8,3.2-1.8
	c2,0,3.4,1.2,3.4,3.9V15H62V9c0-1.5-0.6-2.2-2-2.2c-1.3,0-2.3,0.8-2.3,2.4V15H55.4z M70.8,18.6c-3.1,0-4.5-1.4-4.8-3.3h2.3
	c0.2,1,0.9,1.6,2.5,1.6c1.8,0,2.8-0.9,2.8-2.7v-1.5c-0.6,0.9-1.8,1.8-3.2,1.8c-2.5,0-4.4-1.9-4.4-4.7V9.7c0-2.8,1.9-4.9,4.5-4.9
	c1.6,0,2.6,0.7,3.2,1.7V5.1h2.3v9.2C75.8,17.2,73.9,18.6,70.8,18.6z M70.9,12.8c1.6,0,2.8-1.1,2.8-3V9.7c0-1.9-1-3-2.7-3
	c-1.7,0-2.7,1.2-2.7,3v0.2C68.2,11.7,69.4,12.8,70.9,12.8z M85.7,15.2c-2,0-3-1.1-3-2.9V6.8h-1.3V5.1h1.3V2.9H85v2.2h2.2v1.7H85V12
	c0,0.9,0.4,1.3,1.1,1.3c0.5,0,0.8-0.1,1.1-0.2v1.8C86.9,15.1,86.4,15.2,85.7,15.2z M89,15V0.5h2.3v6.2c0.5-1,1.6-1.8,3.2-1.8
	c2,0,3.4,1.2,3.4,3.9V15h-2.3V9c0-1.5-0.6-2.2-2-2.2c-1.3,0-2.3,0.8-2.3,2.4V15H89z M104.5,15.2c-2.9,0-5-1.9-5-5.1V10
	c0-3.1,2.1-5.1,4.9-5.1c2.5,0,4.7,1.5,4.7,5v0.7h-7.3c0.1,1.9,1,2.9,2.7,2.9c1.4,0,2.1-0.6,2.3-1.5h2.2
	C108.8,14.1,107.1,15.2,104.5,15.2z M101.9,9h5c-0.1-1.7-1-2.5-2.4-2.5C103,6.5,102.1,7.5,101.9,9z M114.9,15V5.1h2.3v1.6
	c0.5-1,1.6-1.8,3.2-1.8c2,0,3.4,1.2,3.4,3.9V15h-2.3V9c0-1.5-0.6-2.2-2-2.2c-1.3,0-2.3,0.8-2.3,2.4V15H114.9z M130.5,15.2
	c-2.9,0-5-1.9-5-5.1V10c0-3.1,2.1-5.1,4.9-5.1c2.5,0,4.7,1.5,4.7,5v0.7h-7.3c0.1,1.9,1,2.9,2.7,2.9c1.4,0,2.1-0.6,2.3-1.5h2.2
	C134.7,14.1,133,15.2,130.5,15.2z M127.9,9h5c-0.1-1.7-1-2.5-2.4-2.5C129,6.5,128.1,7.5,127.9,9z M135.4,15l3.5-5.1l-3.2-4.8h2.7
	l2.1,3.2l2.1-3.2h2.4l-3.2,4.7l3.6,5.3h-2.7l-2.3-3.6l-2.4,3.6H135.4z M149.9,15.2c-2,0-3-1.1-3-2.9V6.8h-1.3V5.1h1.3V2.9h2.3v2.2
	h2.2v1.7h-2.2V12c0,0.9,0.4,1.3,1.1,1.3c0.5,0,0.8-0.1,1.1-0.2v1.8C151.1,15.1,150.6,15.2,149.9,15.2z"/>
</svg>
