<?xml version="1.0" encoding="utf-8"?>
<!-- Generator: Adobe Illustrator 27.7.0, SVG Export Plug-In . SVG Version: 6.00 Build 0)  -->
<svg version="1.1" id="Layer_1" xmlns="http://www.w3.org/2000/svg" xmlns:xlink="http://www.w3.org/1999/xlink" x="0px" y="0px"
	 viewBox="0 0 266.6 16.8" style="enable-background:new 0 0 266.6 16.8;" xml:space="preserve">
<style type="text/css">
	.st0{fill:#FFD000;}
</style>
<path class="st0" d="M3.9,16.4L0,0.4h4.5l2.1,10.7L9.1,0.8h3.9l2.5,10.3l2-10.7h4.3l-4,16h-4.4L10.9,6.3L8.4,16.4H3.9z M23.3,16.4
	v-16h4.2v16H23.3z M34.1,16.4V4.2h-4.9V0.4h14.1v3.7h-4.9v12.3H34.1z M45,16.4v-16h4.2v5.9h5.9V0.4h4.2v16h-4.2v-6.3h-5.9v6.3H45z
	 M66.1,16.4v-16h4.2v5.9h5.9V0.4h4.2v16h-4.2v-6.3h-5.9v6.3H66.1z M90.9,16.8c-1.2,0-2.3-0.2-3.3-0.6c-1-0.4-1.9-1-2.6-1.8
	c-0.7-0.8-1.3-1.7-1.7-2.7c-0.4-1-0.6-2.1-0.6-3.4s0.2-2.3,0.6-3.4s1-1.9,1.7-2.7c0.8-0.8,1.6-1.3,2.6-1.8c1-0.4,2.1-0.6,3.3-0.6
	c1.2,0,2.3,0.2,3.3,0.6c1,0.4,1.9,1,2.7,1.8C97.6,3.1,98.2,4,98.6,5c0.4,1,0.6,2.1,0.6,3.4s-0.2,2.3-0.6,3.4c-0.4,1-1,1.9-1.7,2.7
	c-0.8,0.8-1.6,1.3-2.7,1.8C93.2,16.6,92.1,16.8,90.9,16.8z M90.9,12.8c0.8,0,1.6-0.2,2.1-0.6c0.6-0.4,1-0.9,1.3-1.6
	c0.3-0.7,0.5-1.4,0.5-2.2s-0.2-1.6-0.5-2.2C94,5.5,93.6,5,93,4.6C92.4,4.2,91.7,4,90.9,4c-0.8,0-1.5,0.2-2.1,0.6
	c-0.6,0.4-1,0.9-1.3,1.6c-0.3,0.7-0.5,1.4-0.5,2.2s0.2,1.6,0.5,2.2c0.3,0.7,0.8,1.2,1.3,1.6C89.3,12.6,90,12.8,90.9,12.8z
	 M99.6,14.5l2.6-3.1c0.4,0.4,1,0.9,1.8,1.2c0.7,0.4,1.5,0.6,2.4,0.6c0.4,0,0.8-0.1,1.2-0.3c0.4-0.2,0.6-0.5,0.6-1
	c0-0.4-0.2-0.8-0.6-1c-0.4-0.3-1-0.6-1.8-0.8l-0.9-0.3c-0.7-0.2-1.3-0.5-2-0.9c-0.6-0.4-1.2-0.9-1.6-1.5c-0.4-0.6-0.6-1.3-0.6-2.2
	c0-1,0.2-1.9,0.7-2.7c0.5-0.8,1.2-1.4,2.1-1.8c0.9-0.5,2.1-0.7,3.4-0.7c1.1,0,2,0.1,2.7,0.4c0.8,0.2,1.4,0.5,1.9,0.8
	s0.9,0.6,1.1,0.9l-2.2,2.7c-0.6-0.4-1.1-0.8-1.8-1c-0.6-0.3-1.2-0.4-1.9-0.4c-0.4,0-0.8,0.1-1.2,0.3c-0.4,0.2-0.6,0.5-0.6,0.9
	c0,0.5,0.2,0.9,0.7,1.1c0.4,0.2,1,0.4,1.7,0.7l0.8,0.2c0.5,0.2,1.1,0.4,1.6,0.6c0.6,0.2,1.1,0.6,1.5,0.9c0.5,0.4,0.8,0.9,1.1,1.5
	c0.3,0.6,0.4,1.3,0.4,2.1c0,1-0.3,1.8-0.9,2.6c-0.6,0.8-1.4,1.4-2.4,1.8c-1,0.4-2.1,0.6-3.3,0.6c-1.6,0-2.9-0.2-4-0.6
	C101.3,15.7,100.4,15.2,99.6,14.5z M118.8,16.4V4.2h-4.9V0.4H128v3.7h-4.9v12.3H118.8z M129.7,16.4v-16h6.5c1.7,0,3.1,0.5,4.1,1.4
	c1,0.9,1.6,2.2,1.6,3.9c0,1.1-0.2,2-0.7,2.9c-0.5,0.8-1.1,1.4-2,1.9c-0.8,0.4-1.8,0.6-2.9,0.6h-2.5v5.3H129.7z M133.8,7.8h2
	c0.6,0,1-0.2,1.4-0.6s0.5-0.8,0.5-1.4c0-0.6-0.2-1.1-0.5-1.5c-0.3-0.4-0.8-0.6-1.4-0.6h-2V7.8z M143.8,16.4v-16h4.2v12.3h7.4v3.7
	H143.8z M156.8,10.2V0.4h4.2v9.4c0,0.9,0.2,1.6,0.6,2.2c0.4,0.6,1.1,0.8,2,0.8s1.6-0.3,2-0.8c0.4-0.6,0.6-1.3,0.6-2.2V0.4h4.3v9.8
	c0,1.4-0.3,2.5-0.9,3.6c-0.6,1-1.4,1.8-2.4,2.3c-1,0.5-2.2,0.8-3.6,0.8c-1.3,0-2.5-0.3-3.6-0.8s-1.9-1.3-2.4-2.3
	C157.1,12.8,156.8,11.6,156.8,10.2z M171.8,14.5l2.6-3.1c0.4,0.4,1,0.9,1.8,1.2c0.7,0.4,1.5,0.6,2.4,0.6c0.4,0,0.8-0.1,1.2-0.3
	c0.4-0.2,0.6-0.5,0.6-1c0-0.4-0.2-0.8-0.6-1c-0.4-0.3-1-0.6-1.8-0.8L177,9.7c-0.7-0.2-1.3-0.5-2-0.9c-0.6-0.4-1.2-0.9-1.6-1.5
	c-0.4-0.6-0.6-1.3-0.6-2.2c0-1,0.2-1.9,0.7-2.7c0.5-0.8,1.2-1.4,2.1-1.8c0.9-0.5,2.1-0.7,3.4-0.7c1.1,0,2,0.1,2.7,0.4
	c0.8,0.2,1.4,0.5,1.9,0.8c0.5,0.3,0.9,0.6,1.1,0.9l-2.2,2.7c-0.6-0.4-1.1-0.8-1.8-1c-0.6-0.3-1.2-0.4-1.9-0.4
	c-0.4,0-0.8,0.1-1.2,0.3c-0.4,0.2-0.6,0.5-0.6,0.9c0,0.5,0.2,0.9,0.7,1.1c0.4,0.2,1,0.4,1.7,0.7l0.8,0.2c0.5,0.2,1.1,0.4,1.6,0.6
	c0.6,0.2,1.1,0.6,1.5,0.9c0.5,0.4,0.8,0.9,1.1,1.5c0.3,0.6,0.4,1.3,0.4,2.1c0,1-0.3,1.8-0.9,2.6c-0.6,0.8-1.4,1.4-2.4,1.8
	c-1,0.4-2.1,0.6-3.3,0.6c-1.6,0-2.9-0.2-4-0.6C173.5,15.7,172.5,15.2,171.8,14.5z M195.1,16.4V4.2h-4.9V0.4h14.1v3.7h-4.9v12.3
	H195.1z M212.9,16.8c-1.2,0-2.3-0.2-3.3-0.6c-1-0.4-1.9-1-2.6-1.8c-0.7-0.8-1.3-1.7-1.7-2.7c-0.4-1-0.6-2.1-0.6-3.4s0.2-2.3,0.6-3.4
	s1-1.9,1.7-2.7c0.8-0.8,1.6-1.3,2.6-1.8c1-0.4,2.1-0.6,3.3-0.6s2.3,0.2,3.3,0.6c1,0.4,1.9,1,2.7,1.8c0.8,0.8,1.3,1.6,1.7,2.7
	c0.4,1,0.6,2.1,0.6,3.4s-0.2,2.3-0.6,3.4c-0.4,1-1,1.9-1.7,2.7c-0.8,0.8-1.6,1.3-2.7,1.8C215.2,16.6,214.1,16.8,212.9,16.8z
	 M212.9,12.8c0.8,0,1.6-0.2,2.1-0.6c0.6-0.4,1-0.9,1.3-1.6c0.3-0.7,0.5-1.4,0.5-2.2s-0.2-1.6-0.5-2.2c-0.3-0.7-0.8-1.2-1.3-1.6
	c-0.6-0.4-1.3-0.6-2.1-0.6c-0.8,0-1.5,0.2-2.1,0.6c-0.6,0.4-1,0.9-1.3,1.6c-0.3,0.7-0.5,1.4-0.5,2.2s0.2,1.6,0.5,2.2
	c0.3,0.7,0.8,1.2,1.3,1.6C211.4,12.6,212.1,12.8,212.9,12.8z M223.3,16.4v-16h6.1c1.6,0,3.1,0.3,4.4,0.9c1.3,0.6,2.3,1.4,3.1,2.6
	c0.8,1.2,1.1,2.7,1.1,4.6c0,1.8-0.4,3.2-1.1,4.4c-0.8,1.2-1.8,2-3.1,2.6c-1.3,0.6-2.8,0.9-4.4,0.9H223.3z M227.5,12.7h1.7
	c1.4,0,2.4-0.4,3.2-1.2c0.8-0.8,1.2-1.8,1.2-3.1c0-1.3-0.4-2.3-1.1-3.1c-0.7-0.8-1.8-1.2-3.3-1.2h-1.7V12.7z M237.7,16.4l5.9-16h4.9
	l5.7,16h-4.6l-1-3.3h-5.4l-1.1,3.3H237.7z M244,10h3.6l-1.8-5.9L244,10z M256.6,16.4v-6.4l-5.7-9.6h4.9l3.1,5.7l2.9-5.7h4.7
	l-5.7,9.6v6.4H256.6z"/>
</svg>
