<svg width="92" height="26" viewBox="0 0 92 26" fill="none" xmlns="http://www.w3.org/2000/svg">
<path d="M10.4463 17.5V8.829H12.4093V15.758H16.5563V17.5H10.4463ZM17.406 14.445C17.406 13.847 17.5447 13.301 17.822 12.807C18.0993 12.313 18.4807 11.923 18.966 11.637C19.46 11.3423 20.032 11.195 20.682 11.195C21.332 11.195 21.8997 11.3423 22.385 11.637C22.879 11.923 23.2603 12.313 23.529 12.807C23.8063 13.301 23.945 13.847 23.945 14.445C23.945 15.043 23.8063 15.589 23.529 16.083C23.2603 16.577 22.879 16.9713 22.385 17.266C21.8997 17.5607 21.332 17.708 20.682 17.708C20.032 17.708 19.46 17.5607 18.966 17.266C18.4807 16.9713 18.0993 16.577 17.822 16.083C17.5447 15.589 17.406 15.043 17.406 14.445ZM20.682 16.083C21.0027 16.083 21.267 16.005 21.475 15.849C21.6917 15.693 21.8563 15.4893 21.969 15.238C22.0817 14.9867 22.138 14.7223 22.138 14.445C22.138 14.1677 22.0817 13.9077 21.969 13.665C21.8563 13.4137 21.6917 13.21 21.475 13.054C21.267 12.898 21.0027 12.82 20.682 12.82C20.37 12.82 20.1013 12.898 19.876 13.054C19.6593 13.21 19.4947 13.4137 19.382 13.665C19.2693 13.9077 19.213 14.1677 19.213 14.445C19.213 14.7223 19.2693 14.9867 19.382 15.238C19.4947 15.4893 19.6593 15.693 19.876 15.849C20.1013 16.005 20.37 16.083 20.682 16.083ZM25.302 19.606L26.056 18.28C26.2986 18.4273 26.5543 18.54 26.823 18.618C27.1003 18.7047 27.4036 18.748 27.733 18.748C28.1576 18.748 28.4913 18.6353 28.734 18.41C28.9766 18.1847 29.098 17.8467 29.098 17.396V16.967C28.708 17.305 28.188 17.474 27.538 17.474C26.9573 17.474 26.459 17.3527 26.043 17.11C25.6356 16.8587 25.3236 16.512 25.107 16.07C24.8903 15.628 24.782 15.1253 24.782 14.562C24.782 13.9033 24.9293 13.327 25.224 12.833C25.5186 12.339 25.926 11.9577 26.446 11.689C26.9746 11.4117 27.59 11.273 28.292 11.273C28.7946 11.273 29.2756 11.3163 29.735 11.403C30.1943 11.4897 30.6016 11.598 30.957 11.728V17.305C30.957 18.3103 30.6796 19.0513 30.125 19.528C29.5703 20.0133 28.812 20.256 27.85 20.256C26.7926 20.256 25.9433 20.0393 25.302 19.606ZM29.111 14.783V12.95C28.9896 12.9067 28.8683 12.8763 28.747 12.859C28.6256 12.833 28.4653 12.82 28.266 12.82C27.7286 12.82 27.3256 12.9847 27.057 13.314C26.797 13.6433 26.667 14.0377 26.667 14.497C26.667 14.9303 26.7753 15.2813 26.992 15.55C27.2086 15.81 27.5163 15.94 27.915 15.94C28.2963 15.94 28.591 15.849 28.799 15.667C29.007 15.4763 29.111 15.1817 29.111 14.783ZM34.6777 10.506V8.829H36.6797V10.506H34.6777ZM34.7427 17.5V11.403H36.6147V17.5H34.7427ZM38.0553 17.5V11.403H39.8493L39.9013 12.066C40.1006 11.8233 40.3649 11.6283 40.6943 11.481C41.0236 11.3337 41.3616 11.26 41.7083 11.26C42.4016 11.26 42.9563 11.468 43.3723 11.884C43.7883 12.3 43.9963 12.9153 43.9963 13.73V17.5H42.1243V13.99C42.1243 13.652 42.0376 13.3833 41.8643 13.184C41.6996 12.9847 41.4656 12.885 41.1623 12.885C40.7549 12.885 40.4429 13.0193 40.2263 13.288C40.0183 13.5567 39.9143 13.8687 39.9143 14.224V17.5H38.0553ZM47.7037 17.5V11.403H49.4977L49.5497 12.066C49.749 11.8233 50.0134 11.6283 50.3427 11.481C50.672 11.3337 51.01 11.26 51.3567 11.26C52.05 11.26 52.6047 11.468 53.0207 11.884C53.4367 12.3 53.6447 12.9153 53.6447 13.73V17.5H51.7727V13.99C51.7727 13.652 51.686 13.3833 51.5127 13.184C51.348 12.9847 51.114 12.885 50.8107 12.885C50.4034 12.885 50.0914 13.0193 49.8747 13.288C49.6667 13.5567 49.5627 13.8687 49.5627 14.224V17.5H47.7037ZM54.7175 14.445C54.7175 13.847 54.8562 13.301 55.1335 12.807C55.4108 12.313 55.7922 11.923 56.2775 11.637C56.7715 11.3423 57.3435 11.195 57.9935 11.195C58.6435 11.195 59.2112 11.3423 59.6965 11.637C60.1905 11.923 60.5718 12.313 60.8405 12.807C61.1178 13.301 61.2565 13.847 61.2565 14.445C61.2565 15.043 61.1178 15.589 60.8405 16.083C60.5718 16.577 60.1905 16.9713 59.6965 17.266C59.2112 17.5607 58.6435 17.708 57.9935 17.708C57.3435 17.708 56.7715 17.5607 56.2775 17.266C55.7922 16.9713 55.4108 16.577 55.1335 16.083C54.8562 15.589 54.7175 15.043 54.7175 14.445ZM57.9935 16.083C58.3142 16.083 58.5785 16.005 58.7865 15.849C59.0032 15.693 59.1678 15.4893 59.2805 15.238C59.3932 14.9867 59.4495 14.7223 59.4495 14.445C59.4495 14.1677 59.3932 13.9077 59.2805 13.665C59.1678 13.4137 59.0032 13.21 58.7865 13.054C58.5785 12.898 58.3142 12.82 57.9935 12.82C57.6815 12.82 57.4128 12.898 57.1875 13.054C56.9708 13.21 56.8062 13.4137 56.6935 13.665C56.5808 13.9077 56.5245 14.1677 56.5245 14.445C56.5245 14.7223 56.5808 14.9867 56.6935 15.238C56.8062 15.4893 56.9708 15.693 57.1875 15.849C57.4128 16.005 57.6815 16.083 57.9935 16.083ZM63.6584 17.5L61.5654 11.403H63.4894L64.5554 15.316L65.7384 11.403H67.2334L68.4294 15.316L69.4954 11.403H71.3804L69.2874 17.5H67.5974L66.4534 14.094L65.3224 17.5H63.6584Z" fill="#002855"/>
<path d="M76.7332 8.66602L81.0665 12.9993L76.7332 17.3327" stroke="#002855" stroke-width="1.81212" stroke-linecap="round"/>
</svg>
