<svg width="37" height="57" viewBox="0 0 37 57" fill="none" xmlns="http://www.w3.org/2000/svg">
<path fill-rule="evenodd" clip-rule="evenodd" d="M33.1555 10.4694C32.3718 10.4694 31.6284 10.4711 31.044 10.4744V30.1357H29.8718L29.8617 7.17913C29.8617 5.36254 28.3748 3.87716 26.5562 3.87716H24.0846V30.134H22.9125V3.24487C22.9108 1.77621 21.7085 0.575195 20.2383 0.575195H19.6421C18.1719 0.575195 16.9696 1.77621 16.9696 3.24487V30.134H15.7974V3.87716H13.3292C11.5106 3.87716 10.0237 5.36254 10.0237 7.17913L10.017 30.1357L8.56181 26.1412C7.73125 23.8613 5.1843 22.6753 2.90193 23.505C0.619553 24.3346 -0.567683 26.8789 0.26288 29.1588L5.51251 43.5643C5.51251 43.5643 8.81634 56.7003 21.4037 56.7003C28.7314 56.7003 36.4577 50.7119 36.4577 43.392V13.768C36.4577 11.9531 34.9707 10.466 33.1522 10.466L33.1555 10.4694Z" fill="#B2BECC"/>
</svg>
