<svg width="91" height="20" viewBox="0 0 91 20" fill="none" xmlns="http://www.w3.org/2000/svg">
<path d="M0 0H81C86.5228 0 91 4.47715 91 10C91 15.5228 86.5228 20 81 20H0V0Z" fill="#00DFED"/>
<path d="M12.24 14L14.268 5.78H16.92L18.96 14H17.616L17.172 12.236H14.016L13.572 14H12.24ZM15.3 6.896L14.28 11.06H16.908L15.9 6.896H15.3ZM23.1107 10.856V9.68H25.4507V13.856C25.2347 13.912 24.7947 13.972 24.1307 14.036C23.4747 14.1 22.9987 14.132 22.7027 14.132C21.4547 14.132 20.5947 13.788 20.1227 13.1C19.6507 12.412 19.4147 11.336 19.4147 9.872C19.4147 8.4 19.6547 7.328 20.1347 6.656C20.6227 5.984 21.4627 5.648 22.6547 5.648C23.3587 5.648 24.1507 5.728 25.0307 5.888L25.4507 5.972L25.4027 7.028C24.4347 6.9 23.5667 6.836 22.7987 6.836C22.0307 6.836 21.5027 7.052 21.2147 7.484C20.9347 7.916 20.7947 8.716 20.7947 9.884C20.7947 11.052 20.9267 11.86 21.1907 12.308C21.4627 12.748 22.0067 12.968 22.8227 12.968C23.4067 12.968 23.8427 12.932 24.1307 12.86V10.856H23.1107ZM31.4901 14H26.8821V5.78H28.2141V12.812H31.4901V14ZM34.7341 5.78H37.8541C38.6941 5.78 39.3221 5.952 39.7381 6.296C40.1541 6.632 40.3621 7.172 40.3621 7.916C40.3621 8.404 40.2821 8.788 40.1221 9.068C39.9701 9.348 39.7261 9.58 39.3901 9.764C40.1741 10.068 40.5661 10.704 40.5661 11.672C40.5661 13.224 39.6941 14 37.9501 14H34.7341V5.78ZM37.8541 10.412H36.0661V12.848H37.8781C38.3181 12.848 38.6461 12.756 38.8621 12.572C39.0861 12.388 39.1981 12.072 39.1981 11.624C39.1981 11.176 39.0701 10.864 38.8141 10.688C38.5581 10.504 38.2381 10.412 37.8541 10.412ZM37.7821 6.932H36.0661V9.284H37.8301C38.6141 9.284 39.0061 8.88 39.0061 8.072C39.0061 7.312 38.5981 6.932 37.7821 6.932ZM45.3217 8H46.6177V14H45.3217V13.628C44.7377 13.964 44.1977 14.132 43.7017 14.132C42.8777 14.132 42.3257 13.912 42.0457 13.472C41.7657 13.024 41.6257 12.244 41.6257 11.132V8H42.9337V11.144C42.9337 11.864 42.9937 12.348 43.1137 12.596C43.2337 12.844 43.5137 12.968 43.9537 12.968C44.3857 12.968 44.7817 12.888 45.1417 12.728L45.3217 12.656V8ZM52.1254 9.236C51.1814 9.108 50.4974 9.044 50.0734 9.044C49.6494 9.044 49.3534 9.096 49.1854 9.2C49.0254 9.296 48.9454 9.452 48.9454 9.668C48.9454 9.884 49.0334 10.036 49.2094 10.124C49.3934 10.212 49.8174 10.316 50.4814 10.436C51.1534 10.548 51.6294 10.728 51.9094 10.976C52.1894 11.224 52.3294 11.664 52.3294 12.296C52.3294 12.928 52.1254 13.392 51.7174 13.688C51.3174 13.984 50.7294 14.132 49.9534 14.132C49.4654 14.132 48.8494 14.064 48.1054 13.928L47.7334 13.868L47.7814 12.776C48.7414 12.904 49.4334 12.968 49.8574 12.968C50.2814 12.968 50.5814 12.916 50.7574 12.812C50.9414 12.708 51.0334 12.536 51.0334 12.296C51.0334 12.056 50.9454 11.892 50.7694 11.804C50.6014 11.708 50.1894 11.608 49.5334 11.504C48.8854 11.392 48.4094 11.22 48.1054 10.988C47.8014 10.756 47.6494 10.332 47.6494 9.716C47.6494 9.1 47.8574 8.64 48.2734 8.336C48.6974 8.032 49.2374 7.88 49.8934 7.88C50.4054 7.88 51.0334 7.944 51.7774 8.072L52.1494 8.144L52.1254 9.236ZM53.3464 14V8H54.6544V14H53.3464ZM53.3464 6.98V5.6H54.6544V6.98H53.3464ZM57.3089 14H56.0009V8H57.2969V8.372C57.8809 8.036 58.4329 7.868 58.9529 7.868C59.7529 7.868 60.2969 8.096 60.5849 8.552C60.8809 9 61.0289 9.744 61.0289 10.784V14H59.7329V10.82C59.7329 10.172 59.6609 9.712 59.5169 9.44C59.3809 9.168 59.0969 9.032 58.6649 9.032C58.2569 9.032 57.8649 9.112 57.4889 9.272L57.3089 9.344V14ZM66.5837 12.92L66.9197 12.884L66.9437 13.856C66.0317 14.04 65.2237 14.132 64.5197 14.132C63.6317 14.132 62.9917 13.888 62.5997 13.4C62.2157 12.912 62.0237 12.132 62.0237 11.06C62.0237 8.932 62.8917 7.868 64.6277 7.868C66.3077 7.868 67.1477 8.784 67.1477 10.616L67.0637 11.552H63.3437C63.3517 12.048 63.4597 12.412 63.6677 12.644C63.8757 12.876 64.2637 12.992 64.8317 12.992C65.3997 12.992 65.9837 12.968 66.5837 12.92ZM65.8637 10.544C65.8637 9.952 65.7677 9.54 65.5757 9.308C65.3917 9.068 65.0757 8.948 64.6277 8.948C64.1797 8.948 63.8517 9.072 63.6437 9.32C63.4437 9.568 63.3397 9.976 63.3317 10.544H65.8637ZM72.3294 9.236C71.3854 9.108 70.7014 9.044 70.2774 9.044C69.8534 9.044 69.5574 9.096 69.3894 9.2C69.2294 9.296 69.1494 9.452 69.1494 9.668C69.1494 9.884 69.2374 10.036 69.4134 10.124C69.5974 10.212 70.0214 10.316 70.6854 10.436C71.3574 10.548 71.8334 10.728 72.1134 10.976C72.3934 11.224 72.5334 11.664 72.5334 12.296C72.5334 12.928 72.3294 13.392 71.9214 13.688C71.5214 13.984 70.9334 14.132 70.1574 14.132C69.6694 14.132 69.0534 14.064 68.3094 13.928L67.9374 13.868L67.9854 12.776C68.9454 12.904 69.6374 12.968 70.0614 12.968C70.4854 12.968 70.7854 12.916 70.9614 12.812C71.1454 12.708 71.2374 12.536 71.2374 12.296C71.2374 12.056 71.1494 11.892 70.9734 11.804C70.8054 11.708 70.3934 11.608 69.7374 11.504C69.0894 11.392 68.6134 11.22 68.3094 10.988C68.0054 10.756 67.8534 10.332 67.8534 9.716C67.8534 9.1 68.0614 8.64 68.4774 8.336C68.9014 8.032 69.4414 7.88 70.0974 7.88C70.6094 7.88 71.2374 7.944 71.9814 8.072L72.3534 8.144L72.3294 9.236ZM77.7144 9.236C76.7704 9.108 76.0864 9.044 75.6624 9.044C75.2384 9.044 74.9424 9.096 74.7744 9.2C74.6144 9.296 74.5344 9.452 74.5344 9.668C74.5344 9.884 74.6224 10.036 74.7984 10.124C74.9824 10.212 75.4064 10.316 76.0704 10.436C76.7424 10.548 77.2184 10.728 77.4984 10.976C77.7784 11.224 77.9184 11.664 77.9184 12.296C77.9184 12.928 77.7144 13.392 77.3064 13.688C76.9064 13.984 76.3184 14.132 75.5424 14.132C75.0544 14.132 74.4384 14.064 73.6944 13.928L73.3224 13.868L73.3704 12.776C74.3304 12.904 75.0224 12.968 75.4464 12.968C75.8704 12.968 76.1704 12.916 76.3464 12.812C76.5304 12.708 76.6224 12.536 76.6224 12.296C76.6224 12.056 76.5344 11.892 76.3584 11.804C76.1904 11.708 75.7784 11.608 75.1224 11.504C74.4744 11.392 73.9984 11.22 73.6944 10.988C73.3904 10.756 73.2384 10.332 73.2384 9.716C73.2384 9.1 73.4464 8.64 73.8624 8.336C74.2864 8.032 74.8264 7.88 75.4824 7.88C75.9944 7.88 76.6224 7.944 77.3664 8.072L77.7384 8.144L77.7144 9.236Z" fill="#001CB0"/>
</svg>
