<svg width="83" height="32" viewBox="0 0 83 32" fill="none" xmlns="http://www.w3.org/2000/svg">
<path d="M82.6667 10.1674C82.6667 15.6785 78.2578 20.0874 72.7467 20.0874H65.9496V31.6608H58.1422V0.247437H72.6548C78.2578 0.247437 82.6667 4.74818 82.6667 10.1674ZM71.4607 6.76892H66.0415V13.2904H71.4607C73.2059 13.2904 74.5837 11.7289 74.5837 10.0756C74.5837 8.3304 73.2059 6.76892 71.4607 6.76892ZM45.8341 0.247437V13.0148H34.9956V0.247437H27.1881V31.7526H34.9956V20.1793H45.8341V31.7526H53.6415V0.247437H45.8341ZM24.157 23.2104C24.157 28.446 19.4726 31.7526 14.5126 31.7526H0V0.247437H14.0533C19.197 0.247437 23.4222 4.01336 23.4222 8.69781C23.4222 12.3719 21.677 14.3926 19.2889 15.8622C22.0444 17.0563 24.157 18.8015 24.157 23.2104ZM12.9511 19.0771H7.80741V25.1393H12.9511C14.9719 25.1393 16.0741 23.7615 16.0741 22.1082C16.0741 20.4548 14.6044 19.0771 12.9511 19.0771ZM12.2163 6.76892H7.80741V13.2904H12.2163C14.237 13.2904 15.3393 11.7289 15.3393 10.0756C15.3393 8.3304 14.237 6.76892 12.2163 6.76892Z" fill="#DD5900"/>
</svg>
