<svg width="167" height="24" viewBox="0 0 167 24" fill="none" xmlns="http://www.w3.org/2000/svg">
<path d="M9.50663 17.1006C12.7466 17.1006 14.7866 14.6286 14.7866 10.9086V10.7166C14.7866 7.18859 12.8186 4.57259 9.45863 4.57259C6.09863 4.57259 4.10663 7.04459 4.10663 10.7406V10.9326C4.10663 14.6766 6.38663 17.1006 9.50663 17.1006ZM9.45863 19.6686C4.20263 19.6686 0.770626 15.9006 0.770626 10.9566V10.7646C0.770626 5.74859 4.37063 2.02859 9.45863 2.02859C14.5706 2.02859 18.0986 5.65259 18.0986 10.6926V10.8846C18.0986 15.9006 14.6666 19.6686 9.45863 19.6686ZM26.2043 19.4286V9.06059H24.5003V6.87659H26.2043V5.19659C26.2043 2.43659 27.7403 0.948588 30.4283 0.948588C31.1243 0.948588 31.5563 1.02059 32.0843 1.18859V3.44459C31.7483 3.32459 31.2923 3.22859 30.7643 3.22859C29.5883 3.22859 29.1083 3.99659 29.1083 5.07659V6.87659H31.9643V9.06059H29.1083V19.4286H26.2043ZM38.1156 19.6686C35.6436 19.6686 33.7956 18.2526 33.7956 14.9166V6.87659H36.6996V14.5806C36.6996 16.4766 37.4916 17.3406 39.1716 17.3406C40.7316 17.3406 42.0996 16.3326 42.0996 14.3406V6.87659H45.0036V19.4286H42.0996V17.4606C41.4756 18.6846 40.1556 19.6686 38.1156 19.6686ZM52.2388 19.6446C49.7428 19.6446 48.4468 18.3006 48.4468 15.9246V9.06059H46.7668V6.87659H48.4468V4.11659H51.3508V6.87659H54.1108V9.06059H51.3508V15.6606C51.3508 16.7646 51.8788 17.2686 52.7908 17.2686C53.3668 17.2686 53.7988 17.1966 54.2068 17.0286V19.3326C53.7508 19.5006 53.1268 19.6446 52.2388 19.6446ZM60.5462 19.6686C58.0742 19.6686 56.2262 18.2526 56.2262 14.9166V6.87659H59.1302V14.5806C59.1302 16.4766 59.9222 17.3406 61.6022 17.3406C63.1622 17.3406 64.5302 16.3326 64.5302 14.3406V6.87659H67.4342V19.4286H64.5302V17.4606C63.9062 18.6846 62.5862 19.6686 60.5462 19.6686ZM70.3974 19.4286V6.87659H73.3014V9.22859C74.0934 7.64459 75.2694 6.70859 77.3814 6.68459V9.39659C74.8374 9.42059 73.3014 10.2366 73.3014 12.9006V19.4286H70.3974ZM84.8381 17.4126C86.9981 17.4126 88.2941 15.8046 88.2941 13.2366V13.0686C88.2941 10.4766 86.9981 8.89259 84.8381 8.89259C82.6781 8.89259 81.3581 10.4526 81.3581 13.0446V13.2366C81.3581 15.8046 82.6301 17.4126 84.8381 17.4126ZM84.8141 19.6686C81.1181 19.6686 78.3821 17.1006 78.3821 13.2846V13.0926C78.3821 9.20459 81.1421 6.61259 84.8381 6.61259C88.5101 6.61259 91.2701 9.18059 91.2701 13.0206V13.2126C91.2701 17.1246 88.5101 19.6686 84.8141 19.6686ZM96.9968 23.9406V21.7086C98.2688 21.6126 98.7248 20.9886 98.7248 19.9326V6.87659H101.629V19.8606C101.629 22.4046 100.477 23.8926 96.9968 23.9406ZM100.141 4.81259C99.1808 4.81259 98.4128 4.09259 98.4128 3.15659C98.4128 2.19659 99.1808 1.47659 100.141 1.47659C101.101 1.47659 101.869 2.19659 101.869 3.15659C101.869 4.09259 101.101 4.81259 100.141 4.81259ZM107.976 19.6686C105.672 19.6686 103.776 18.5646 103.776 15.9486C103.776 13.0206 106.608 11.9646 110.208 11.9646H111.768V11.3166C111.768 9.63659 111.192 8.79659 109.488 8.79659C107.976 8.79659 107.232 9.51659 107.088 10.7646H104.28C104.52 7.83659 106.848 6.61259 109.656 6.61259C112.464 6.61259 114.672 7.76459 114.672 11.1966V19.4286H111.816V17.8926C111 18.9726 109.896 19.6686 107.976 19.6686ZM108.672 17.5806C110.448 17.5806 111.768 16.6446 111.768 15.0366V13.7886H110.28C108.072 13.7886 106.656 14.2926 106.656 15.8286C106.656 16.8846 107.232 17.5806 108.672 17.5806ZM108.456 5.00459L109.872 1.28459H113.088L110.592 5.00459H108.456ZM128.28 19.6686C124.584 19.6686 121.92 17.2446 121.92 13.2846V13.0926C121.92 9.20459 124.584 6.61259 128.16 6.61259C131.28 6.61259 134.088 8.46059 134.088 12.9486V13.7886H124.896C124.992 16.1646 126.192 17.5086 128.352 17.5086C130.104 17.5086 131.016 16.8126 131.232 15.5886H134.04C133.632 18.2286 131.496 19.6686 128.28 19.6686ZM124.944 11.8446H131.208C131.064 9.68459 129.96 8.72459 128.16 8.72459C126.408 8.72459 125.232 9.90059 124.944 11.8446ZM140.615 19.6686C137.375 19.6686 135.479 18.1806 135.359 15.5166H138.095C138.239 16.7886 138.887 17.5326 140.591 17.5326C142.151 17.5326 142.847 16.9806 142.847 15.9246C142.847 14.8926 142.007 14.5086 140.159 14.1966C136.847 13.6686 135.623 12.7326 135.623 10.3806C135.623 7.86059 137.975 6.61259 140.327 6.61259C142.895 6.61259 144.935 7.57259 145.247 10.4046H142.559C142.319 9.25259 141.671 8.72459 140.327 8.72459C139.079 8.72459 138.335 9.32459 138.335 10.2126C138.335 11.1246 138.935 11.4846 140.927 11.8206C143.879 12.2766 145.631 12.9966 145.631 15.6606C145.631 18.2046 143.831 19.6686 140.615 19.6686ZM151.97 19.6446C149.474 19.6446 148.178 18.3006 148.178 15.9246V9.06059H146.498V6.87659H148.178V4.11659H151.082V6.87659H153.842V9.06059H151.082V15.6606C151.082 16.7646 151.61 17.2686 152.522 17.2686C153.098 17.2686 153.53 17.1966 153.938 17.0286V19.3326C153.482 19.5006 152.858 19.6446 151.97 19.6446ZM159.483 19.6686C157.179 19.6686 155.283 18.5646 155.283 15.9486C155.283 13.0206 158.115 11.9646 161.715 11.9646H163.275V11.3166C163.275 9.63659 162.699 8.79659 160.995 8.79659C159.483 8.79659 158.739 9.51659 158.595 10.7646H155.787C156.027 7.83659 158.355 6.61259 161.163 6.61259C163.971 6.61259 166.179 7.76459 166.179 11.1966V19.4286H163.323V17.8926C162.507 18.9726 161.403 19.6686 159.483 19.6686ZM160.179 17.5806C161.955 17.5806 163.275 16.6446 163.275 15.0366V13.7886H161.787C159.579 13.7886 158.163 14.2926 158.163 15.8286C158.163 16.8846 158.739 17.5806 160.179 17.5806ZM159.963 5.00459L161.379 1.28459H164.595L162.099 5.00459H159.963Z" fill="#DD5900"/>
</svg>
