<svg width="233" height="19" viewBox="0 0 233 19" fill="none" xmlns="http://www.w3.org/2000/svg">
<path d="M7.23463 18.6686C2.93863 18.6686 0.490626 16.3166 0.490626 11.9006V1.26859H3.70663V11.6606C3.70663 14.8046 4.71463 16.1006 7.25863 16.1006C9.73063 16.1006 10.9786 14.9966 10.9786 11.4446V1.26859H14.1946V11.7086C14.1946 16.1966 11.7706 18.6686 7.23463 18.6686ZM17.1412 18.4286V5.87659H20.0452V7.79659C20.6452 6.62059 22.0132 5.61259 23.8612 5.61259C25.4932 5.61259 26.7892 6.30859 27.4132 7.86859C28.3732 6.30859 30.1012 5.61259 31.6612 5.61259C33.9652 5.61259 35.8372 7.02859 35.8372 10.4846V18.4286H32.9332V10.6766C32.9332 8.82859 32.1412 8.03659 30.7012 8.03659C29.2612 8.03659 27.9412 8.99659 27.9412 10.9166V18.4286H25.0372V10.6766C25.0372 8.82859 24.2212 8.03659 22.8052 8.03659C21.3652 8.03659 20.0452 8.99659 20.0452 10.9166V18.4286H17.1412ZM47.2192 18.6686C44.9152 18.6686 43.0192 17.5646 43.0192 14.9486C43.0192 12.0206 45.8512 10.9646 49.4512 10.9646H51.0112V10.3166C51.0112 8.63659 50.4352 7.79659 48.7312 7.79659C47.2192 7.79659 46.4752 8.51659 46.3312 9.76459H43.5232C43.7632 6.83659 46.0912 5.61259 48.8992 5.61259C51.7072 5.61259 53.9152 6.76459 53.9152 10.1966V18.4286H51.0592V16.8926C50.2432 17.9726 49.1392 18.6686 47.2192 18.6686ZM47.9152 16.5806C49.6912 16.5806 51.0112 15.6446 51.0112 14.0366V12.7886H49.5232C47.3152 12.7886 45.8992 13.2926 45.8992 14.8286C45.8992 15.8846 46.4752 16.5806 47.9152 16.5806ZM56.7637 18.4286V5.87659H59.6677V7.79659C60.2677 6.62059 61.6357 5.61259 63.4837 5.61259C65.1157 5.61259 66.4117 6.30859 67.0357 7.86859C67.9957 6.30859 69.7237 5.61259 71.2837 5.61259C73.5877 5.61259 75.4597 7.02859 75.4597 10.4846V18.4286H72.5557V10.6766C72.5557 8.82859 71.7637 8.03659 70.3237 8.03659C68.8837 8.03659 67.5637 8.99659 67.5637 10.9166V18.4286H64.6597V10.6766C64.6597 8.82859 63.8437 8.03659 62.4277 8.03659C60.9877 8.03659 59.6677 8.99659 59.6677 10.9166V18.4286H56.7637ZM81.6029 18.6686C79.2989 18.6686 77.4029 17.5646 77.4029 14.9486C77.4029 12.0206 80.2349 10.9646 83.8349 10.9646H85.3949V10.3166C85.3949 8.63659 84.8189 7.79659 83.1149 7.79659C81.6029 7.79659 80.8589 8.51659 80.7149 9.76459H77.9069C78.1469 6.83659 80.4749 5.61259 83.2829 5.61259C86.0909 5.61259 88.2989 6.76459 88.2989 10.1966V18.4286H85.4429V16.8926C84.6269 17.9726 83.5229 18.6686 81.6029 18.6686ZM82.2989 16.5806C84.0749 16.5806 85.3949 15.6446 85.3949 14.0366V12.7886H83.9069C81.6989 12.7886 80.2829 13.2926 80.2829 14.8286C80.2829 15.8846 80.8589 16.5806 82.2989 16.5806ZM91.1474 18.4286V5.87659H94.0514V7.86859C94.6514 6.64459 96.0434 5.61259 98.1074 5.61259C100.627 5.61259 102.403 7.07659 102.403 10.5326V18.4286H99.4994V10.7966C99.4994 8.90059 98.7314 8.03659 97.0034 8.03659C95.3714 8.03659 94.0514 9.04459 94.0514 11.0366V18.4286H91.1474ZM105.269 18.4286V0.0685878H108.173V7.86859C108.773 6.64459 110.165 5.61259 112.229 5.61259C114.749 5.61259 116.525 7.07659 116.525 10.5326V18.4286H113.621V10.7966C113.621 8.90059 112.853 8.03659 111.125 8.03659C109.493 8.03659 108.173 9.04459 108.173 11.0366V18.4286H105.269ZM122.679 18.6686C120.375 18.6686 118.479 17.5646 118.479 14.9486C118.479 12.0206 121.311 10.9646 124.911 10.9646H126.471V10.3166C126.471 8.63659 125.895 7.79659 124.191 7.79659C122.679 7.79659 121.935 8.51659 121.791 9.76459H118.983C119.223 6.83659 121.551 5.61259 124.359 5.61259C127.167 5.61259 129.375 6.76459 129.375 10.1966V18.4286H126.519V16.8926C125.703 17.9726 124.599 18.6686 122.679 18.6686ZM123.375 16.5806C125.151 16.5806 126.471 15.6446 126.471 14.0366V12.7886H124.983C122.775 12.7886 121.359 13.2926 121.359 14.8286C121.359 15.8846 121.935 16.5806 123.375 16.5806ZM125.751 3.88459C124.599 3.88459 123.783 2.92459 123.087 2.92459C122.655 2.92459 122.295 3.33259 122.199 3.88459H120.399C120.591 1.86859 121.623 0.740588 122.967 0.740588C124.071 0.740588 124.911 1.67659 125.655 1.67659C126.087 1.67659 126.423 1.29259 126.519 0.716588H128.319C128.127 2.73259 127.071 3.88459 125.751 3.88459ZM137.462 18.4286V5.87659H140.366V7.79659C140.966 6.62059 142.334 5.61259 144.182 5.61259C145.814 5.61259 147.11 6.30859 147.734 7.86859C148.694 6.30859 150.422 5.61259 151.982 5.61259C154.286 5.61259 156.158 7.02859 156.158 10.4846V18.4286H153.254V10.6766C153.254 8.82859 152.462 8.03659 151.022 8.03659C149.582 8.03659 148.262 8.99659 148.262 10.9166V18.4286H145.358V10.6766C145.358 8.82859 144.542 8.03659 143.126 8.03659C141.686 8.03659 140.366 8.99659 140.366 10.9166V18.4286H137.462ZM164.533 18.6686C160.837 18.6686 158.173 16.2446 158.173 12.2846V12.0926C158.173 8.20459 160.837 5.61259 164.413 5.61259C167.533 5.61259 170.341 7.46059 170.341 11.9486V12.7886H161.149C161.245 15.1646 162.445 16.5086 164.605 16.5086C166.357 16.5086 167.269 15.8126 167.485 14.5886H170.293C169.885 17.2286 167.749 18.6686 164.533 18.6686ZM161.197 10.8446H167.461C167.317 8.68459 166.213 7.72459 164.413 7.72459C162.661 7.72459 161.485 8.90059 161.197 10.8446ZM172.527 18.4286V0.0685878H175.431V18.4286H172.527ZM178.491 18.4286V0.0685878H181.395V7.86859C181.995 6.64459 183.387 5.61259 185.451 5.61259C187.971 5.61259 189.747 7.07659 189.747 10.5326V18.4286H186.843V10.7966C186.843 8.90059 186.075 8.03659 184.347 8.03659C182.715 8.03659 181.395 9.04459 181.395 11.0366V18.4286H178.491ZM198.228 16.4126C200.388 16.4126 201.684 14.8046 201.684 12.2366V12.0686C201.684 9.47659 200.388 7.89259 198.228 7.89259C196.068 7.89259 194.748 9.45259 194.748 12.0446V12.2366C194.748 14.8046 196.02 16.4126 198.228 16.4126ZM198.204 18.6686C194.508 18.6686 191.772 16.1006 191.772 12.2846V12.0926C191.772 8.20459 194.532 5.61259 198.228 5.61259C201.9 5.61259 204.66 8.18059 204.66 12.0206V12.2126C204.66 16.1246 201.9 18.6686 198.204 18.6686ZM206.804 18.4286V5.87659H209.708V8.22859C210.5 6.64459 211.676 5.70859 213.788 5.68459V8.39659C211.244 8.42059 209.708 9.23659 209.708 11.9006V18.4286H206.804ZM225.254 4.00459L226.67 0.284588H229.886L227.39 4.00459H225.254ZM226.622 18.6686C222.926 18.6686 220.262 16.2446 220.262 12.2846V12.0926C220.262 8.20459 222.926 5.61259 226.502 5.61259C229.622 5.61259 232.43 7.46059 232.43 11.9486V12.7886H223.238C223.334 15.1646 224.534 16.5086 226.694 16.5086C228.446 16.5086 229.358 15.8126 229.574 14.5886H232.382C231.974 17.2286 229.838 18.6686 226.622 18.6686ZM223.286 10.8446H229.55C229.406 8.68459 228.302 7.72459 226.502 7.72459C224.75 7.72459 223.574 8.90059 223.286 10.8446Z" fill="black"/>
</svg>
