<svg width="209" height="24" viewBox="0 0 209 24" fill="none" xmlns="http://www.w3.org/2000/svg">
<path d="M8.24925 1.34186H14.8163L22.4509 22.9193H16.272L14.881 18.455H7.66695L6.24355 22.9193H0.3235L8.24925 1.34186ZM13.7164 14.2819L11.3225 6.35611L8.83155 14.2819H13.7164ZM24.7187 1.34186H29.927L38.2086 13.3761V1.34186H43.8699V22.9193H38.985L30.3799 10.5293V22.9193H24.7187V1.34186ZM52.9302 1.34186H58.6561V22.9193H52.9302V1.34186ZM62.5341 1.34186H67.7424L76.024 13.3761V1.34186H81.6853V22.9193H76.8004L68.1953 10.5293V22.9193H62.5341V1.34186ZM85.5645 1.34186H93.8461C95.5067 1.34186 97.0379 1.55753 98.4398 1.98886C99.8632 2.42019 101.092 3.07798 102.128 3.96221C103.163 4.84645 103.972 5.97869 104.554 7.35896C105.136 8.73923 105.427 10.3675 105.427 12.2438C105.427 14.0338 105.125 15.5974 104.522 16.9346C103.939 18.2501 103.131 19.3608 102.095 20.2666C101.06 21.1508 99.8308 21.8194 98.4074 22.2723C96.984 22.7036 95.4528 22.9193 93.8137 22.9193H85.5645V1.34186ZM93.6196 17.8727C95.4959 17.8727 96.9409 17.3443 97.9545 16.2876C98.9897 15.2092 99.5073 13.8182 99.5073 12.1144C99.5073 11.2517 99.3887 10.4753 99.1515 9.78521C98.9142 9.07351 98.5476 8.46965 98.0516 7.97361C97.5771 7.45601 96.9732 7.05703 96.24 6.77666C95.5067 6.49629 94.6333 6.35611 93.6196 6.35611H91.2904V17.8727H93.6196ZM108.339 1.34186H114.065V13.9907C114.065 15.1769 114.335 16.1474 114.874 16.9022C115.435 17.657 116.351 18.0345 117.624 18.0345C118.896 18.0345 119.802 17.657 120.341 16.9022C120.88 16.1258 121.15 15.1553 121.15 13.9907V1.34186H126.94V14.5083C126.94 15.8886 126.714 17.1394 126.261 18.2609C125.808 19.3608 125.161 20.299 124.32 21.0754C123.501 21.8518 122.519 22.4448 121.376 22.8546C120.255 23.2644 119.015 23.4693 117.656 23.4693C116.297 23.4693 115.046 23.2644 113.903 22.8546C112.76 22.4448 111.768 21.8625 110.927 21.1077C110.108 20.3313 109.471 19.3932 109.018 18.2933C108.566 17.1718 108.339 15.9101 108.339 14.5083V1.34186ZM132.36 16.0935C132.964 16.6973 133.751 17.2473 134.721 17.7433C135.692 18.2393 136.759 18.4874 137.924 18.4874C138.204 18.4874 138.495 18.4658 138.797 18.4227C139.099 18.358 139.369 18.2609 139.606 18.1315C139.843 18.0021 140.038 17.8296 140.188 17.6139C140.339 17.3982 140.415 17.1179 140.415 16.7728C140.415 16.2121 140.124 15.7484 139.541 15.3818C138.981 15.0151 138.15 14.6485 137.051 14.2819L135.854 13.8937C135.185 13.678 134.506 13.3976 133.816 13.0526C133.147 12.7075 132.543 12.2977 132.004 11.8233C131.465 11.3272 131.023 10.7557 130.678 10.1087C130.354 9.44014 130.192 8.66374 130.192 7.77951C130.192 6.78745 130.376 5.87086 130.742 5.02976C131.109 4.16709 131.637 3.42304 132.327 2.79761C133.039 2.15061 133.913 1.65458 134.948 1.30951C135.983 0.942877 137.18 0.759561 138.539 0.759561C139.595 0.759561 140.555 0.856611 141.418 1.05071C142.28 1.24481 143.035 1.48204 143.682 1.76241C144.329 2.04278 144.879 2.34471 145.332 2.66821C145.785 2.99171 146.13 3.28286 146.367 3.54166L143.456 7.22956C142.701 6.66883 141.914 6.21593 141.094 5.87086C140.275 5.50423 139.434 5.32091 138.571 5.32091C138.291 5.32091 138.01 5.35326 137.73 5.41796C137.45 5.48266 137.191 5.57971 136.953 5.70911C136.738 5.83851 136.554 6.01104 136.404 6.22671C136.274 6.42081 136.209 6.66883 136.209 6.97076C136.209 7.29426 136.285 7.57463 136.436 7.81186C136.608 8.04909 136.835 8.25398 137.115 8.42651C137.396 8.59904 137.73 8.76079 138.118 8.91176C138.528 9.04116 138.959 9.18134 139.412 9.33231L140.447 9.65581C141.181 9.89304 141.925 10.1734 142.679 10.4969C143.434 10.7988 144.114 11.2194 144.717 11.7586C145.321 12.2762 145.817 12.9339 146.206 13.7319C146.594 14.5083 146.788 15.468 146.788 16.6111C146.788 17.6031 146.551 18.5197 146.076 19.3608C145.623 20.2019 144.998 20.9244 144.2 21.5283C143.423 22.1321 142.496 22.5958 141.418 22.9193C140.361 23.2644 139.229 23.4369 138.021 23.4369C135.864 23.4369 134.053 23.1565 132.586 22.5958C131.141 22.0135 129.912 21.2371 128.898 20.2666L132.36 16.0935ZM154.623 6.35611H147.991V1.34186H166.981V6.35611H160.414V22.9193H154.623V6.35611ZM169.567 1.34186H178.496C179.66 1.34186 180.706 1.49283 181.634 1.79476C182.583 2.09669 183.391 2.54959 184.06 3.15346C184.728 3.73576 185.246 4.46903 185.613 5.35326C185.979 6.23749 186.163 7.26191 186.163 8.42651C186.163 9.84991 185.85 11.09 185.224 12.1468C184.599 13.182 183.769 14.0123 182.734 14.6377L187.36 22.9193H181.213L177.558 15.5759H175.164V22.9193H169.567V1.34186ZM177.946 11.0792C178.701 11.0792 179.315 10.8528 179.79 10.3999C180.264 9.9254 180.501 9.29996 180.501 8.52356C180.501 7.70403 180.275 7.05703 179.822 6.58256C179.369 6.1081 178.733 5.87086 177.913 5.87086H175.164V11.0792H177.946ZM194.635 14.3142L186.968 1.34186H193.535L197.74 9.04116L201.687 1.34186H208.06L200.361 14.2819V22.9193H194.635V14.3142Z" fill="white"/>
</svg>
