<svg width="209" height="21" viewBox="0 0 209 21" fill="none" xmlns="http://www.w3.org/2000/svg">
<path d="M1.34034 1.36805H6.08586L10.6348 9.53933L15.0995 1.36805H19.8731L20.7436 20.0974H15.7173L15.268 9.11813L11.9827 15.5204H9.2589L5.6085 9.11813L5.24346 20.0974H0.469857L1.34034 1.36805ZM23.7328 1.36805H37.2112V5.66429H28.703V8.55653H35.6949V12.6001H28.703V15.8012H37.8009V20.0974H23.7328V1.36805ZM40.8553 1.36805H45.6008L50.1497 9.53933L54.6145 1.36805H59.3881L60.2585 20.0974H55.2322L54.7829 9.11813L51.4976 15.5204H48.7738L45.1234 9.11813L44.7584 20.0974H39.9848L40.8553 1.36805ZM63.2477 1.36805H70.8574C72.1678 1.36805 73.2536 1.51781 74.1147 1.81733C74.9758 2.09813 75.6591 2.47253 76.1645 2.94053C76.67 3.38981 77.0163 3.91397 77.2035 4.51301C77.4094 5.09333 77.5124 5.67365 77.5124 6.25397C77.5124 6.79685 77.4188 7.28357 77.2316 7.71413C77.0631 8.14469 76.8385 8.52845 76.5577 8.86541C76.2956 9.18365 76.0054 9.45509 75.6872 9.67973C75.3689 9.90437 75.0694 10.0635 74.7886 10.1571C75.1443 10.2694 75.5374 10.4379 75.968 10.6625C76.3985 10.8872 76.801 11.1867 77.1754 11.5611C77.5498 11.9355 77.8681 12.3848 78.1301 12.9089C78.3922 13.4331 78.5233 14.0415 78.5233 14.7341C78.5233 16.6061 77.8681 17.9727 76.5577 18.8338C75.266 19.6762 73.3659 20.0974 70.8574 20.0974H63.2477V1.36805ZM70.2677 8.89349C70.8481 8.89349 71.3629 8.75309 71.8121 8.47229C72.2801 8.17277 72.5141 7.66733 72.5141 6.95597C72.5141 6.56285 72.4486 6.23525 72.3176 5.97317C72.1865 5.69237 72.0087 5.47709 71.7841 5.32733C71.5781 5.17757 71.3348 5.07461 71.054 5.01845C70.7919 4.94357 70.5298 4.90613 70.2677 4.90613H68.1056V8.89349H70.2677ZM70.6328 16.5593C70.9136 16.5593 71.2225 16.5406 71.5594 16.5032C71.8964 16.447 72.2053 16.3441 72.4861 16.1943C72.7669 16.0445 73.0009 15.8199 73.1881 15.5204C73.3753 15.2209 73.4689 14.8184 73.4689 14.3129C73.4689 13.8449 73.3753 13.4705 73.1881 13.1897C73.0009 12.8902 72.7669 12.6656 72.4861 12.5158C72.2053 12.3661 71.8964 12.2631 71.5594 12.2069C71.2225 12.1508 70.9136 12.1227 70.6328 12.1227H68.1056V16.5593H70.6328ZM81.0171 1.36805H94.4955V5.66429H85.9873V8.55653H92.9792V12.6001H85.9873V15.8012H95.0852V20.0974H81.0171V1.36805ZM97.6622 1.36805H105.412C106.423 1.36805 107.331 1.49909 108.136 1.76117C108.96 2.02325 109.662 2.41637 110.242 2.94053C110.822 3.44597 111.272 4.08245 111.59 4.84997C111.908 5.61749 112.067 6.50669 112.067 7.51757C112.067 8.75309 111.796 9.82949 111.253 10.7468C110.71 11.6453 109.989 12.3661 109.091 12.9089L113.106 20.0974H107.771L104.598 13.7233H102.52V20.0974H97.6622V1.36805ZM104.935 9.82013C105.59 9.82013 106.124 9.62357 106.535 9.23045C106.947 8.81861 107.153 8.27573 107.153 7.60181C107.153 6.89045 106.957 6.32885 106.564 5.91701C106.17 5.50517 105.618 5.29925 104.907 5.29925H102.52V9.82013H104.935ZM116.316 14.1725C116.84 14.6967 117.523 15.1741 118.366 15.6046C119.208 16.0352 120.135 16.2505 121.146 16.2505C121.389 16.2505 121.642 16.2317 121.904 16.1943C122.166 16.1381 122.4 16.0539 122.606 15.9416C122.812 15.8293 122.98 15.6795 123.111 15.4923C123.242 15.3051 123.308 15.0617 123.308 14.7622C123.308 14.2755 123.055 13.873 122.55 13.5548C122.063 13.2365 121.342 12.9183 120.387 12.6001L119.349 12.2631C118.768 12.0759 118.179 11.8325 117.579 11.533C116.999 11.2335 116.475 10.8778 116.007 10.466C115.539 10.0354 115.155 9.53933 114.856 8.97773C114.575 8.39741 114.435 7.72349 114.435 6.95597C114.435 6.09485 114.594 5.29925 114.912 4.56917C115.23 3.82037 115.689 3.17453 116.288 2.63165C116.906 2.07005 117.664 1.63949 118.562 1.33997C119.461 1.02173 120.5 0.86261 121.679 0.86261C122.596 0.86261 123.429 0.94685 124.178 1.11533C124.927 1.28381 125.582 1.48973 126.144 1.73309C126.705 1.97645 127.183 2.23853 127.576 2.51933C127.969 2.80013 128.269 3.05285 128.475 3.27749L125.947 6.47861C125.292 5.99189 124.609 5.59877 123.897 5.29925C123.186 4.98101 122.456 4.82189 121.707 4.82189C121.464 4.82189 121.221 4.84997 120.977 4.90613C120.734 4.96229 120.509 5.04653 120.303 5.15885C120.116 5.27117 119.957 5.42093 119.826 5.60813C119.714 5.77661 119.657 5.99189 119.657 6.25397C119.657 6.53477 119.723 6.77813 119.854 6.98405C120.004 7.18997 120.2 7.36781 120.444 7.51757C120.687 7.66733 120.977 7.80773 121.314 7.93877C121.67 8.05109 122.044 8.17277 122.437 8.30381L123.336 8.58461C123.972 8.79053 124.618 9.03389 125.273 9.31469C125.929 9.57677 126.518 9.94181 127.042 10.4098C127.567 10.8591 127.997 11.4301 128.334 12.1227C128.671 12.7966 128.84 13.6297 128.84 14.6218C128.84 15.4829 128.634 16.2785 128.222 17.0086C127.829 17.7387 127.286 18.3658 126.593 18.89C125.919 19.4141 125.114 19.8166 124.178 20.0974C123.261 20.3969 122.278 20.5467 121.23 20.5467C119.358 20.5467 117.785 20.3033 116.512 19.8166C115.258 19.3112 114.191 18.6373 113.311 17.7949L116.316 14.1725ZM135.916 1.36805H148.973V5.72045H140.886V9.34277H147.148V13.4425H140.886V20.0974H135.916V1.36805ZM151.217 1.36805H156.187V20.0974H151.217V1.36805ZM159.553 1.36805H167.303C168.314 1.36805 169.222 1.49909 170.027 1.76117C170.851 2.02325 171.553 2.41637 172.133 2.94053C172.714 3.44597 173.163 4.08245 173.481 4.84997C173.799 5.61749 173.958 6.50669 173.958 7.51757C173.958 8.75309 173.687 9.82949 173.144 10.7468C172.601 11.6453 171.88 12.3661 170.982 12.9089L174.997 20.0974H169.662L166.489 13.7233H164.411V20.0974H159.553V1.36805ZM166.826 9.82013C167.481 9.82013 168.015 9.62357 168.427 9.23045C168.838 8.81861 169.044 8.27573 169.044 7.60181C169.044 6.89045 168.848 6.32885 168.455 5.91701C168.062 5.50517 167.509 5.29925 166.798 5.29925H164.411V9.82013H166.826ZM178.207 14.1725C178.731 14.6967 179.414 15.1741 180.257 15.6046C181.099 16.0352 182.026 16.2505 183.037 16.2505C183.28 16.2505 183.533 16.2317 183.795 16.1943C184.057 16.1381 184.291 16.0539 184.497 15.9416C184.703 15.8293 184.871 15.6795 185.002 15.4923C185.133 15.3051 185.199 15.0617 185.199 14.7622C185.199 14.2755 184.946 13.873 184.441 13.5548C183.954 13.2365 183.233 12.9183 182.279 12.6001L181.24 12.2631C180.659 12.0759 180.07 11.8325 179.471 11.533C178.89 11.2335 178.366 10.8778 177.898 10.466C177.43 10.0354 177.046 9.53933 176.747 8.97773C176.466 8.39741 176.326 7.72349 176.326 6.95597C176.326 6.09485 176.485 5.29925 176.803 4.56917C177.121 3.82037 177.58 3.17453 178.179 2.63165C178.797 2.07005 179.555 1.63949 180.453 1.33997C181.352 1.02173 182.391 0.86261 183.57 0.86261C184.488 0.86261 185.321 0.94685 186.069 1.11533C186.818 1.28381 187.473 1.48973 188.035 1.73309C188.597 1.97645 189.074 2.23853 189.467 2.51933C189.86 2.80013 190.16 3.05285 190.366 3.27749L187.838 6.47861C187.183 5.99189 186.5 5.59877 185.789 5.29925C185.077 4.98101 184.347 4.82189 183.598 4.82189C183.355 4.82189 183.112 4.84997 182.868 4.90613C182.625 4.96229 182.4 5.04653 182.194 5.15885C182.007 5.27117 181.848 5.42093 181.717 5.60813C181.605 5.77661 181.549 5.99189 181.549 6.25397C181.549 6.53477 181.614 6.77813 181.745 6.98405C181.895 7.18997 182.091 7.36781 182.335 7.51757C182.578 7.66733 182.868 7.80773 183.205 7.93877C183.561 8.05109 183.935 8.17277 184.328 8.30381L185.227 8.58461C185.864 8.79053 186.509 9.03389 187.165 9.31469C187.82 9.57677 188.409 9.94181 188.934 10.4098C189.458 10.8591 189.888 11.4301 190.225 12.1227C190.562 12.7966 190.731 13.6297 190.731 14.6218C190.731 15.4829 190.525 16.2785 190.113 17.0086C189.72 17.7387 189.177 18.3658 188.484 18.89C187.81 19.4141 187.005 19.8166 186.069 20.0974C185.152 20.3969 184.169 20.5467 183.121 20.5467C181.249 20.5467 179.677 20.3033 178.404 19.8166C177.149 19.3112 176.082 18.6373 175.202 17.7949L178.207 14.1725ZM197.532 5.72045H191.775V1.36805H208.258V5.72045H202.558V20.0974H197.532V5.72045Z" fill="#FFD100"/>
</svg>
