<svg id="Layer_1" data-name="Layer 1" xmlns="http://www.w3.org/2000/svg" width="300" height="250" version="1.1" viewBox="0 0 300 250">
  <path d="M13,232v-5.3h.8v5.3h-.8ZM14.6,231.5l.4-.5c.1.1.3.2.5.3.2,0,.4.1.6.1s.4,0,.6-.1c.2,0,.2-.2.2-.4s0-.2,0-.3-.2-.1-.3-.2c-.2,0-.4-.1-.6-.2-.2,0-.4-.1-.6-.2-.2,0-.3-.2-.4-.3-.1-.1-.2-.3-.2-.6s0-.4.2-.6c.1-.2.3-.3.6-.4.2,0,.5-.1.7-.1s.6,0,.8.1c.2,0,.4.2.6.3l-.4.5c-.1-.1-.3-.2-.4-.3-.2,0-.4-.1-.6-.1s-.4,0-.6.1c-.1,0-.2.2-.2.4s0,.3.3.4c.2,0,.4.1.7.2.2,0,.4.1.6.2.2,0,.3.2.5.4.1.1.2.3.2.6s0,.5-.2.6c-.1.2-.3.3-.6.4-.2,0-.5.1-.8.1-.7,0-1.2-.2-1.6-.6ZM18.4,231.5l.4-.5c.1.1.3.2.5.3.2,0,.4.1.6.1s.4,0,.6-.1c.2,0,.2-.2.2-.4s0-.2,0-.3c0,0-.2-.1-.3-.2-.2,0-.4-.1-.6-.2-.2,0-.4-.1-.6-.2-.2,0-.3-.2-.4-.3-.1-.1-.2-.3-.2-.6s0-.4.2-.6c.1-.2.3-.3.6-.4.2,0,.5-.1.7-.1s.6,0,.8.1c.2,0,.4.2.6.3l-.4.5c-.1-.1-.3-.2-.4-.3-.2,0-.4-.1-.6-.1s-.4,0-.6.1c-.1,0-.2.2-.2.4s0,.3.3.4c.2,0,.4.1.7.2.2,0,.4.1.6.2.2,0,.3.2.5.4.1.1.2.3.2.6s0,.5-.2.6c-.1.2-.3.3-.6.4-.2,0-.5.1-.8.1-.7,0-1.2-.2-1.6-.6ZM22.4,230.5v-2.2h.7v2.2c0,.3,0,.6.2.8.1.2.4.2.6.2s.5,0,.6-.2c.2-.1.3-.3.3-.5,0-.2.1-.5.1-.7v-1.7h.7v3.5c0,0,0,.1,0,.2h-.7v-.6c0,0-.2.2-.3.3-.1,0-.2.2-.4.2-.2,0-.4.1-.6.1-.5,0-.8-.1-1.1-.4-.2-.3-.3-.7-.3-1.1ZM29.7,231l.4.4c0,0-.1.1-.3.3-.1.1-.3.2-.5.3-.2,0-.5.1-.8.1s-.7,0-1-.2c-.3-.2-.5-.4-.7-.7-.2-.3-.2-.7-.2-1s0-.7.2-1c.2-.3.4-.5.7-.7.3-.2.6-.3,1-.3s.8.1,1,.3c.3.2.5.5.6.8.1.3.2.7.2,1.1h-2.9c0,.2,0,.4.2.6.1.2.3.3.4.4.2,0,.4.1.6.1.3,0,.6,0,.8-.2.2-.1.4-.2.4-.3ZM27.3,229.8h2.2c0-.3-.1-.5-.3-.7-.2-.2-.4-.3-.8-.3s-.4,0-.6.2c-.2.1-.3.2-.4.4,0,.2-.1.3-.1.5ZM33.7,232v-.5c0,0-.1.1-.2.2,0,0-.2.2-.4.3-.2,0-.4.1-.6.1s-.6,0-.8-.2c-.3-.2-.4-.4-.6-.7-.1-.3-.2-.6-.2-1s0-.7.2-.9c.1-.3.3-.5.5-.6s.4-.3.6-.4c.2,0,.4-.1.6-.1s.4,0,.5,0c.1,0,.3.1.4.2v-1.8h.7v5.1c0,0,0,.1,0,.2h-.7ZM33.7,230.4v-1.3c0,0-.2-.1-.4-.2-.1,0-.3,0-.5,0-.3,0-.6.1-.9.4-.2.2-.3.6-.3,1s0,.5.1.6c0,.2.2.4.4.5.2.1.4.2.6.2s.5,0,.6-.2c.2-.1.3-.3.3-.4,0-.2.1-.3.1-.5ZM36.9,231.9v-5.2h.7v2c0-.1.2-.2.4-.3.2-.1.4-.2.8-.2s.7,0,.9.3c.3.2.4.4.6.7.1.3.2.6.2,1s0,.7-.3,1c-.2.3-.4.5-.7.7-.3.2-.7.3-1.1.3s-.6,0-.8,0c-.3,0-.5-.1-.6-.2ZM37.6,229.9v1.5c0,0,.2,0,.3,0,.1,0,.3,0,.5,0,.4,0,.7-.1,1-.4.3-.3.4-.6.4-1s0-.4-.1-.6c0-.2-.2-.4-.3-.5-.2-.1-.4-.2-.6-.2s-.4,0-.6.2c-.2.1-.3.2-.4.4,0,.2-.1.3-.1.5ZM40.7,233.4l.3-.5c0,0,.1,0,.2.1,0,0,.2,0,.3,0,.2,0,.3,0,.4-.2,0-.1.2-.4.3-.7v-.2c0,0-1.6-3.7-1.6-3.7h.8l1.2,2.8,1.1-2.8h.8l-1.5,3.6c0,.2-.1.3-.2.6,0,.2-.2.4-.3.6-.1.2-.2.3-.4.5-.2.1-.3.2-.6.2s-.3,0-.5,0c-.1,0-.2-.1-.3-.2ZM46.6,232v-5.3h.8v2.2h2.9v-2.2h.8v5.3h-.8v-2.4h-2.9v2.4h-.8ZM54,232.1c-.4,0-.7,0-1-.3-.3-.2-.5-.4-.7-.7-.2-.3-.2-.6-.2-1s0-.7.2-1c.2-.3.4-.5.7-.7.3-.2.6-.3,1-.3s.7,0,1,.3c.3.2.5.4.7.7.2.3.3.6.3,1s0,.7-.3,1c-.2.3-.4.5-.7.7-.3.2-.6.3-1,.3ZM54,231.5c.3,0,.5,0,.7-.2.2-.1.3-.3.4-.5.1-.2.2-.4.2-.6s0-.4-.2-.6c0-.2-.2-.4-.4-.5-.2-.1-.4-.2-.7-.2s-.5,0-.7.2c-.2.1-.3.3-.4.5,0,.2-.1.4-.1.6s0,.4.2.6c.1.2.2.4.4.5.2.1.4.2.7.2ZM56.5,231.5l.4-.5c.1.1.3.2.5.3.2,0,.4.1.6.1s.4,0,.6-.1c.2,0,.2-.2.2-.4s0-.2,0-.3-.2-.1-.3-.2c-.2,0-.4-.1-.6-.2-.2,0-.4-.1-.6-.2-.2,0-.3-.2-.4-.3-.1-.1-.2-.3-.2-.6s0-.4.2-.6c.1-.2.3-.3.6-.4.2,0,.5-.1.7-.1s.6,0,.8.1c.2,0,.4.2.6.3l-.4.5c-.1-.1-.3-.2-.4-.3-.2,0-.4-.1-.6-.1s-.4,0-.6.1c-.1,0-.2.2-.2.4s0,.3.3.4c.2,0,.4.1.7.2.2,0,.4.1.6.2.2,0,.3.2.5.4.1.1.2.3.2.6s0,.5-.2.6c-.1.2-.3.3-.6.4-.2,0-.5.1-.8.1-.7,0-1.2-.2-1.6-.6ZM60.8,230.8v-1.9h-.7v-.6h.7v-1.2h.7v1.2h1.1v.6h-1.1v1.8c0,.3,0,.5.1.6,0,.1.2.2.4.2s.3,0,.3,0c0,0,.2-.1.3-.2l.3.4c-.2.1-.3.3-.5.3-.2,0-.4.1-.6.1-.4,0-.7-.1-.9-.3-.2-.2-.3-.6-.3-1ZM63.4,230.1v-.7h2.3v.7h-2.3ZM67,232v-5.3h1.7c.4,0,.7,0,.9.2.2,0,.4.2.6.4.1.2.2.3.3.5,0,.2,0,.4,0,.6,0,.4,0,.7-.2.9-.2.2-.4.4-.6.5-.3.1-.6.2-.9.2h-1v2.1h-.8ZM67.7,229.2h1c.3,0,.6,0,.8-.3.2-.2.3-.4.3-.7s0-.5-.3-.7c-.2-.2-.4-.3-.8-.3h-1v1.9ZM71.2,232v-5.3h.7v5.3h-.7ZM72.9,230.5v-2.2h.7v2.2c0,.3,0,.6.2.8.1.2.4.2.6.2s.5,0,.6-.2.3-.3.3-.5c0-.2.1-.5.1-.7v-1.7h.7v3.5c0,0,0,.1,0,.2h-.7v-.6c0,0-.2.2-.3.3-.1,0-.2.2-.4.2-.2,0-.4.1-.6.1-.5,0-.8-.1-1.1-.4-.2-.3-.3-.7-.3-1.1ZM77.1,231.5l.4-.5c.1.1.3.2.5.3.2,0,.4.1.6.1s.4,0,.6-.1c.2,0,.2-.2.2-.4s0-.2,0-.3-.2-.1-.3-.2c-.2,0-.4-.1-.6-.2-.2,0-.4-.1-.6-.2-.2,0-.3-.2-.4-.3-.1-.1-.2-.3-.2-.6s0-.4.2-.6c.1-.2.3-.3.6-.4.2,0,.5-.1.7-.1s.6,0,.8.1c.2,0,.4.2.6.3l-.4.5c-.1-.1-.3-.2-.4-.3-.2,0-.4-.1-.6-.1s-.4,0-.6.1c-.1,0-.2.2-.2.4s0,.3.3.4c.2,0,.4.1.7.2.2,0,.4.1.6.2.2,0,.3.2.5.4.1.1.2.3.2.6s0,.5-.2.6c-.1.2-.3.3-.6.4-.2,0-.5.1-.8.1-.7,0-1.2-.2-1.6-.6ZM82.6,232v-5.3h1.7c.4,0,.7,0,.9.2.2,0,.4.2.6.4.1.2.2.3.3.5,0,.2,0,.4,0,.6,0,.4,0,.7-.2.9-.2.2-.4.4-.6.5-.3.1-.6.2-.9.2h-1v2.1h-.8ZM83.4,229.2h1c.3,0,.6,0,.8-.3.2-.2.3-.4.3-.7s0-.5-.3-.7c-.2-.2-.4-.3-.8-.3h-1v1.9ZM87.3,230.8v-1.9h-.7v-.6h.7v-1.2h.7v1.2h1.1v.6h-1.1v1.8c0,.3,0,.5.1.6,0,.1.2.2.4.2s.3,0,.3,0c0,0,.2-.1.3-.2l.3.4c-.2.1-.3.3-.5.3-.2,0-.4.1-.6.1-.4,0-.7-.1-.9-.3-.2-.2-.3-.6-.3-1ZM89.6,233.4l.3-.5c0,0,.1,0,.2.1,0,0,.2,0,.3,0,.2,0,.3,0,.4-.2,0-.1.2-.4.3-.7v-.2c0,0-1.6-3.7-1.6-3.7h.8l1.2,2.8,1.1-2.8h.8l-1.5,3.6c0,.2-.1.3-.2.6,0,.2-.2.4-.3.6-.1.2-.2.3-.4.5-.2.1-.3.2-.6.2s-.3,0-.5,0c-.1,0-.2-.1-.3-.2ZM95.5,232v-5.3h.8v4.7h2.8v.7h-3.5ZM99.8,227.6v-.8h.8v.8h-.8ZM99.8,232v-3.7h.7v3.7h-.7ZM102.3,232h-.7v-3.3h0c0-.2,0-.3,0-.4h.7v.6c0,0,.2-.2.3-.3.1-.1.2-.2.4-.3.2,0,.4-.1.6-.1s.5,0,.7.2c.2.1.3.3.4.5.1-.2.3-.3.6-.5.2-.1.5-.2.8-.2.5,0,.8.1,1.1.4.2.3.3.7.3,1.1v2.2h-.7v-2.2c0-.7-.3-1-.8-1s-.4,0-.5.2c-.2.1-.3.2-.4.4,0,.2-.1.3-.1.6v2.1h-.7v-2.2c0-.3,0-.6-.2-.8-.1-.2-.3-.2-.6-.2s-.5,0-.6.2c-.2.1-.3.3-.3.6,0,.2,0,.4,0,.7v1.7ZM108.3,227.6v-.8h.8v.8h-.8ZM108.4,232v-3.7h.7v3.7h-.7ZM110.4,230.8v-1.9h-.7v-.6h.7v-1.2h.7v1.2h1.1v.6h-1.1v1.8c0,.3,0,.5.1.6,0,.1.2.2.4.2s.3,0,.3,0c0,0,.2-.1.3-.2l.3.4c-.2.1-.3.3-.5.3-.2,0-.4.1-.6.1-.4,0-.7-.1-.9-.3-.2-.2-.3-.6-.3-1ZM115.9,231l.4.4c0,0-.1.1-.3.3-.1.1-.3.2-.5.3-.2,0-.5.1-.8.1s-.7,0-1-.2c-.3-.2-.5-.4-.7-.7-.2-.3-.2-.7-.2-1s0-.7.2-1c.2-.3.4-.5.7-.7.3-.2.6-.3,1-.3s.8.1,1,.3c.3.2.5.5.6.8.1.3.2.7.2,1.1h-2.9c0,.2,0,.4.2.6.1.2.3.3.4.4.2,0,.4.1.6.1.3,0,.6,0,.8-.2.2-.1.4-.2.4-.3ZM113.5,229.8h2.2c0-.3-.1-.5-.3-.7s-.4-.3-.8-.3-.4,0-.6.2c-.2.1-.3.2-.4.4,0,.2-.1.3-.1.5ZM119.9,232v-.5c0,0-.1.1-.2.2,0,0-.2.2-.4.3-.2,0-.4.1-.6.1s-.6,0-.8-.2c-.3-.2-.4-.4-.6-.7-.1-.3-.2-.6-.2-1s0-.7.2-.9c.1-.3.3-.5.5-.6s.4-.3.6-.4c.2,0,.4-.1.6-.1s.4,0,.5,0c.1,0,.3.1.4.2v-1.8h.7v5.1c0,0,0,.1,0,.2h-.7ZM119.9,230.4v-1.3c0,0-.2-.1-.4-.2-.1,0-.3,0-.5,0-.3,0-.6.1-.9.4-.2.2-.3.6-.3,1s0,.5.1.6c0,.2.2.4.4.5.2.1.4.2.6.2s.5,0,.6-.2c.2-.1.3-.3.3-.4,0-.2.1-.3.1-.5ZM121.7,232v-.9h.9v.9h-.9ZM128,230v-.7h1.9v2.1c-.2.2-.5.3-.8.5-.3.1-.8.2-1.3.2s-1-.1-1.4-.4c-.4-.2-.7-.6-.9-1-.2-.4-.3-.9-.3-1.4s0-.8.2-1.1c.1-.3.3-.6.5-.9.2-.3.5-.5.8-.6.3-.1.7-.2,1.1-.2s.7,0,1,.2c.3.1.5.3.7.4.2.2.3.3.4.5l-.5.5c0-.1-.2-.2-.3-.4-.1-.1-.3-.2-.5-.3-.2,0-.4-.1-.7-.1-.4,0-.7,0-1,.3-.3.2-.5.4-.7.8-.1.3-.2.7-.2,1.1s0,.8.2,1.1c.2.3.4.6.7.7.3.2.6.3,1,.3s.6,0,.8-.1c.2,0,.4-.2.6-.3v-1.1h-1.1ZM133.9,231l.4.4c0,0-.2.1-.3.3-.1.1-.3.2-.5.3-.2,0-.5.1-.8.1s-.7,0-1-.2c-.3-.2-.5-.4-.7-.7-.2-.3-.2-.7-.2-1s0-.7.2-1c.2-.3.4-.5.7-.7.3-.2.6-.3,1-.3s.8.1,1,.3c.3.2.5.5.6.8.1.3.2.7.2,1.1h-2.9c0,.2,0,.4.2.6.1.2.3.3.4.4.2,0,.4.1.6.1.3,0,.6,0,.8-.2.2-.1.4-.2.4-.3ZM131.4,229.8h2.2c0-.3-.1-.5-.3-.7-.2-.2-.4-.3-.8-.3s-.4,0-.6.2c-.2.1-.3.2-.4.4,0,.2-.1.3-.1.5ZM135.9,232h-.7v-3.3h0c0-.2,0-.3,0-.4h.7v.6c0,0,.2-.2.3-.3.1-.1.2-.2.4-.3.2,0,.4-.1.6-.1.5,0,.8.1,1.1.4.2.3.4.7.4,1.1v2.2h-.7v-2.2c0-.3,0-.6-.2-.8-.1-.2-.4-.2-.6-.2s-.5,0-.6.2c-.2.1-.3.3-.3.5,0,.2,0,.5,0,.7v1.7ZM142.5,231l.4.4c0,0-.1.1-.3.3-.1.1-.3.2-.5.3-.2,0-.5.1-.8.1s-.7,0-1-.2c-.3-.2-.5-.4-.7-.7-.2-.3-.2-.7-.2-1s0-.7.2-1c.2-.3.4-.5.7-.7.3-.2.6-.3,1-.3s.8.1,1,.3c.3.2.5.5.6.8.1.3.2.7.2,1.1h-2.9c0,.2,0,.4.2.6.1.2.3.3.4.4.2,0,.4.1.6.1.3,0,.6,0,.8-.2.2-.1.4-.2.4-.3ZM140.1,229.8h2.2c0-.3-.1-.5-.3-.7s-.4-.3-.8-.3-.4,0-.6.2c-.2.1-.3.2-.4.4,0,.2-.1.3-.1.5ZM144.5,232h-.7v-3.4h0c0-.2,0-.3,0-.4h.7v.6c0,0,.2-.2.3-.3.1-.1.2-.2.4-.3s.4-.1.6-.1.2,0,.2,0c0,0,.1,0,.2,0l-.2.7c0,0-.2,0-.4,0s-.4,0-.6.2c-.2.1-.3.2-.4.4,0,.2-.1.4-.1.6v2ZM149,232v-.4c-.1.2-.3.3-.6.4-.2,0-.5.1-.7.1s-.4,0-.6-.1c-.2,0-.4-.2-.5-.4-.1-.2-.2-.4-.2-.7s.1-.7.4-1c.3-.2.7-.4,1.2-.4s.2,0,.4,0c.1,0,.2,0,.3,0,.1,0,.2,0,.2,0h0c0-.4,0-.6-.3-.7-.2-.1-.4-.2-.7-.2s-.5,0-.7.1c-.2,0-.3.2-.4.2l-.3-.5c.1-.1.3-.2.6-.3.2-.1.6-.2,1-.2s.9.1,1.1.4c.3.2.4.6.4,1v2.2h0c0,.2,0,.3,0,.3h-.7ZM148.9,230.7v-.4s0,0-.2,0c0,0-.2,0-.3,0-.1,0-.2,0-.3,0-.3,0-.5,0-.6.1-.1,0-.2.2-.3.3,0,.1,0,.2,0,.3,0,.2,0,.3.2.5.1.1.3.2.6.2s.4,0,.5-.1c.2,0,.3-.2.4-.3.1-.1.2-.3.2-.4ZM150.6,232v-5.3h.7v5.3h-.7ZM156.1,232v-.4c-.1.2-.3.3-.6.4-.2,0-.5.1-.7.1s-.4,0-.6-.1c-.2,0-.4-.2-.5-.4-.1-.2-.2-.4-.2-.7s.1-.7.4-1c.3-.2.7-.4,1.2-.4s.2,0,.4,0c.1,0,.2,0,.3,0,.1,0,.2,0,.2,0h0c0-.4,0-.6-.3-.7-.2-.1-.4-.2-.7-.2s-.5,0-.7.1c-.2,0-.3.2-.4.2l-.3-.5c.1-.1.3-.2.6-.3.2-.1.6-.2,1-.2s.9.1,1.1.4c.3.2.4.6.4,1v2.2h0c0,.2,0,.3,0,.3h-.7ZM156.1,230.7v-.4s0,0-.2,0c0,0-.2,0-.3,0-.1,0-.2,0-.3,0-.3,0-.5,0-.6.1-.1,0-.2.2-.3.3,0,.1,0,.2,0,.3,0,.2,0,.3.2.5.1.1.3.2.6.2s.4,0,.5-.1c.2,0,.3-.2.4-.3.1-.1.2-.3.2-.4ZM160.4,232v-.5c0,0-.1.1-.2.2,0,0-.2.2-.4.3-.2,0-.4.1-.6.1s-.6,0-.8-.2c-.3-.2-.4-.4-.6-.7-.1-.3-.2-.6-.2-1s0-.7.2-.9c.1-.3.3-.5.5-.6.2-.2.4-.3.6-.4.2,0,.4-.1.6-.1s.4,0,.5,0c.1,0,.3.1.4.2v-1.8h.7v5.1c0,0,0,.1,0,.2h-.7ZM160.4,230.4v-1.3c0,0-.2-.1-.4-.2-.1,0-.3,0-.5,0-.3,0-.6.1-.9.4-.2.2-.3.6-.3,1s0,.5.1.6c0,.2.2.4.4.5.2.1.4.2.6.2s.5,0,.6-.2c.2-.1.3-.3.3-.4,0-.2.1-.3.1-.5ZM163.3,232l-1.6-3.7h.8l1.2,2.9,1.2-2.9h.8l-1.6,3.7h-.7ZM166.1,227.6v-.8h.8v.8h-.8ZM166.2,232v-3.7h.7v3.7h-.7ZM170.7,231l.4.5c-.2.2-.4.3-.6.5-.2.1-.5.2-.8.2s-.7,0-1-.3c-.3-.2-.5-.4-.7-.7-.2-.3-.2-.6-.2-1s0-.7.2-1c.2-.3.4-.5.7-.7.3-.2.6-.3,1-.3s.6,0,.8.2c.2.1.4.3.6.5l-.5.5c-.1-.1-.2-.2-.4-.3s-.4-.1-.6-.1-.5,0-.7.2c-.2.1-.3.3-.4.5,0,.2-.1.4-.1.7s0,.4.1.7c.1.2.2.4.4.5.2.1.4.2.7.2s.4,0,.6-.1c.2,0,.3-.2.4-.3ZM174.6,231l.4.4c0,0-.1.1-.3.3-.1.1-.3.2-.5.3-.2,0-.5.1-.8.1s-.7,0-1-.2c-.3-.2-.5-.4-.7-.7-.2-.3-.2-.7-.2-1s0-.7.2-1c.2-.3.4-.5.7-.7.3-.2.6-.3,1-.3s.8.1,1,.3c.3.2.5.5.6.8.1.3.2.7.2,1.1h-2.9c0,.2,0,.4.2.6.1.2.3.3.4.4.2,0,.4.1.6.1.3,0,.6,0,.8-.2.2-.1.4-.2.4-.3ZM172.2,229.8h2.2c0-.3-.1-.5-.3-.7-.2-.2-.4-.3-.8-.3s-.4,0-.6.2c-.2.1-.3.2-.4.4,0,.2-.1.3-.1.5ZM179.2,232.1c-.4,0-.7,0-1-.3-.3-.2-.5-.4-.7-.7-.2-.3-.2-.6-.2-1s0-.7.2-1c.2-.3.4-.5.7-.7.3-.2.6-.3,1-.3s.7,0,1,.3c.3.2.5.4.7.7.2.3.3.6.3,1s0,.7-.3,1c-.2.3-.4.5-.7.7-.3.2-.6.3-1,.3ZM179.2,231.5c.3,0,.5,0,.7-.2.2-.1.3-.3.4-.5.1-.2.2-.4.2-.6s0-.4-.2-.6c0-.2-.2-.4-.4-.5-.2-.1-.4-.2-.7-.2s-.5,0-.7.2c-.2.1-.3.3-.4.5,0,.2-.1.4-.1.6s0,.4.2.6c.1.2.2.4.4.5.2.1.4.2.7.2ZM182.7,232h-.7v-3.3h0c0-.2,0-.3,0-.4h.7v.6c0,0,.2-.2.3-.3.1-.1.2-.2.4-.3.2,0,.4-.1.6-.1.5,0,.8.1,1.1.4.2.3.4.7.4,1.1v2.2h-.7v-2.2c0-.3,0-.6-.2-.8-.1-.2-.4-.2-.6-.2s-.5,0-.6.2c-.2.1-.3.3-.3.5,0,.2,0,.5,0,.7v1.7ZM186.3,232v-5.3h.7v5.3h-.7ZM187.7,233.4l.3-.5c0,0,.1,0,.2.1,0,0,.2,0,.3,0,.2,0,.3,0,.4-.2,0-.1.2-.4.3-.7v-.2c0,0-1.6-3.7-1.6-3.7h.8l1.2,2.8,1.1-2.8h.8l-1.5,3.6c0,.2-.1.3-.2.6,0,.2-.2.4-.3.6-.1.2-.2.3-.4.5-.2.1-.3.2-.6.2s-.3,0-.5,0c-.1,0-.2-.1-.3-.2ZM191.4,232v-.9h.9v.9h-.9ZM198.9,230.6l.5.4c0,.1-.2.3-.4.4-.2.2-.4.3-.7.4-.3.1-.6.2-1,.2s-1-.1-1.4-.4c-.4-.2-.7-.6-.9-1-.2-.4-.3-.9-.3-1.4s0-.8.2-1.1c.1-.3.3-.6.5-.9.2-.3.5-.5.8-.6.3-.1.7-.2,1.1-.2s.7,0,1,.2c.3.1.5.3.7.4.2.2.3.3.4.5l-.5.5c0-.1-.2-.2-.3-.4-.1-.1-.3-.2-.5-.3-.2,0-.4-.1-.7-.1s-.7,0-1,.3c-.3.2-.5.4-.6.8-.1.3-.2.7-.2,1.1s0,.7.2,1c.2.3.4.6.6.8.3.2.6.3,1,.3s.6,0,.8-.2.4-.2.5-.3c.1-.1.2-.2.3-.3ZM201.9,232.1c-.4,0-.7,0-1-.3-.3-.2-.5-.4-.7-.7-.2-.3-.2-.6-.2-1s0-.7.2-1c.2-.3.4-.5.7-.7.3-.2.6-.3,1-.3s.7,0,1,.3c.3.2.5.4.7.7.2.3.3.6.3,1s0,.7-.3,1c-.2.3-.4.5-.7.7-.3.2-.6.3-1,.3ZM201.9,231.5c.3,0,.5,0,.7-.2.2-.1.3-.3.4-.5.1-.2.2-.4.2-.6s0-.4-.2-.6c0-.2-.2-.4-.4-.5-.2-.1-.4-.2-.7-.2s-.5,0-.7.2c-.2.1-.3.3-.4.5,0,.2-.1.4-.1.6s0,.4.2.6c.1.2.2.4.4.5.2.1.4.2.7.2ZM205.4,232h-.7v-3.3h0c0-.2,0-.3,0-.4h.7v.6c0,0,.2-.2.3-.3.1-.1.2-.2.4-.3.2,0,.4-.1.6-.1.5,0,.8.1,1.1.4.2.3.4.7.4,1.1v2.2h-.7v-2.2c0-.3,0-.6-.2-.8-.2-.2-.4-.2-.6-.2s-.5,0-.6.2c-.2.1-.3.3-.3.5,0,.2,0,.5,0,.7v1.7ZM208.8,231.5l.4-.5c.1.1.3.2.5.3.2,0,.4.1.6.1s.4,0,.6-.1c.2,0,.2-.2.2-.4s0-.2,0-.3c0,0-.2-.1-.3-.2-.2,0-.4-.1-.6-.2-.2,0-.4-.1-.6-.2-.2,0-.3-.2-.4-.3-.1-.1-.2-.3-.2-.6s0-.4.2-.6c.1-.2.3-.3.6-.4.2,0,.5-.1.7-.1s.6,0,.8.1c.2,0,.4.2.6.3l-.4.5c-.1-.1-.3-.2-.4-.3-.2,0-.4-.1-.6-.1s-.4,0-.6.1c-.1,0-.2.2-.2.4s0,.3.3.4c.2,0,.4.1.7.2.2,0,.4.1.6.2.2,0,.3.2.5.4.1.1.2.3.2.6s0,.5-.2.6c-.1.2-.3.3-.6.4-.2,0-.5.1-.8.1-.7,0-1.2-.2-1.6-.6ZM212.8,227.6v-.8h.8v.8h-.8ZM212.8,232v-3.7h.7v3.7h-.7ZM217.3,232v-.5c0,0-.1.1-.2.2,0,0-.2.2-.4.3-.2,0-.4.1-.6.1s-.6,0-.8-.2c-.2-.2-.4-.4-.6-.7-.1-.3-.2-.6-.2-1s0-.7.2-.9c.1-.3.3-.5.5-.6s.4-.3.6-.4c.2,0,.4-.1.6-.1s.4,0,.5,0c.1,0,.3.1.4.2v-1.8h.7v5.1c0,0,0,.1,0,.2h-.7ZM217.2,230.4v-1.3c0,0-.2-.1-.4-.2-.1,0-.3,0-.5,0-.3,0-.6.1-.9.4-.2.2-.3.6-.3,1s0,.5.1.6c0,.2.2.4.4.5.2.1.4.2.6.2s.5,0,.6-.2c.2-.1.3-.3.3-.4,0-.2.1-.3.1-.5ZM222,231l.4.4c0,0-.1.1-.3.3-.1.1-.3.2-.5.3-.2,0-.5.1-.8.1s-.7,0-1-.2c-.3-.2-.5-.4-.7-.7-.2-.3-.2-.7-.2-1s0-.7.2-1c.2-.3.4-.5.7-.7.3-.2.6-.3,1-.3s.8.1,1,.3c.3.2.5.5.6.8.1.3.2.7.2,1.1h-2.9c0,.2,0,.4.2.6.1.2.3.3.4.4.2,0,.4.1.6.1.3,0,.6,0,.8-.2.2-.1.4-.2.4-.3ZM219.5,229.8h2.2c0-.3-.1-.5-.3-.7-.2-.2-.4-.3-.8-.3s-.4,0-.6.2c-.2.1-.3.2-.4.4,0,.2-.1.3-.1.5ZM224,232h-.7v-3.4h0c0-.2,0-.3,0-.4h.7v.6c0,0,.2-.2.3-.3.1-.1.2-.2.4-.3.2,0,.4-.1.6-.1s.2,0,.2,0c0,0,.1,0,.2,0l-.2.7c0,0-.2,0-.4,0s-.4,0-.6.2c-.2.1-.3.2-.4.4,0,.2-.1.4-.1.6v2ZM227.9,230.8v-1.9h-.7v-.6h.7v-1.2h.7v1.2h1.1v.6h-1.1v1.8c0,.3,0,.5.1.6,0,.1.2.2.4.2s.3,0,.3,0c0,0,.2-.1.3-.2l.3.4c-.2.1-.3.3-.5.3-.2,0-.4.1-.6.1-.4,0-.7-.1-.9-.3-.2-.2-.3-.6-.3-1ZM230.7,232v-5.3h.7v2.2c0,0,.1-.2.2-.3.1-.1.2-.2.4-.3.2,0,.4-.1.6-.1.5,0,.8.1,1.1.4.2.3.4.7.4,1.1v2.2h-.7v-2.2c0-.3,0-.6-.2-.8-.1-.2-.4-.2-.6-.2s-.5,0-.6.2c-.2.1-.3.3-.3.5,0,.2,0,.5,0,.7v1.7h-.7ZM238,231l.4.4c0,0-.1.1-.3.3-.1.1-.3.2-.5.3-.2,0-.5.1-.8.1s-.7,0-1-.2c-.3-.2-.5-.4-.7-.7-.2-.3-.2-.7-.2-1s0-.7.2-1c.2-.3.4-.5.7-.7.3-.2.6-.3,1-.3s.8.1,1,.3c.3.2.5.5.6.8.1.3.2.7.2,1.1h-2.9c0,.2,0,.4.2.6.1.2.3.3.4.4.2,0,.4.1.6.1.3,0,.6,0,.8-.2.2-.1.4-.2.4-.3ZM235.6,229.8h2.2c0-.3-.1-.5-.3-.7s-.4-.3-.8-.3-.4,0-.6.2c-.2.1-.3.2-.4.4,0,.2-.1.3-.1.5ZM240.9,232v-5.3h1.7c.4,0,.7,0,.9.2.2,0,.4.2.6.4.1.2.2.3.3.5,0,.2,0,.4,0,.6,0,.4,0,.7-.2.9-.2.2-.4.4-.6.5-.3.1-.6.2-.9.2h-1v2.1h-.8ZM241.6,229.2h1c.3,0,.6,0,.8-.3.2-.2.3-.4.3-.7s0-.5-.3-.7c-.2-.2-.4-.3-.8-.3h-1v1.9ZM245.4,232v-5.3h1.8c.6,0,1.1,0,1.5.3.4.2.8.5,1,.9.2.4.4.9.4,1.5s-.1,1.1-.4,1.5c-.2.4-.6.7-1,.9-.4.2-.9.3-1.5.3h-1.8ZM246.2,231.3h1c.7,0,1.2-.2,1.6-.5.4-.3.6-.8.6-1.5s-.2-1.1-.5-1.5c-.4-.3-.9-.5-1.6-.5h-1v4ZM250.8,231.2l.5-.5c.1.1.2.2.4.3.1.1.3.2.5.3.2,0,.4.1.6.1.4,0,.6,0,.8-.2.2-.2.3-.4.3-.6s-.1-.5-.3-.7c-.2-.1-.5-.3-1-.4-.5,0-.8-.3-1.1-.5-.3-.3-.4-.6-.4-1s0-.5.2-.7c.1-.2.3-.4.6-.5.3-.1.6-.2,1-.2s.6,0,.9.1c.2,0,.4.2.5.3.1.1.2.2.3.3l-.5.5c0,0-.1-.1-.2-.2-.1,0-.2-.2-.4-.2-.2,0-.3-.1-.6-.1s-.4,0-.6.1c-.1,0-.2.2-.3.3,0,.1-.1.2-.1.4,0,.3.1.5.3.6.2.1.5.2.9.3.3,0,.5.2.8.3.2.1.4.3.6.5.2.2.2.5.2.9s0,.6-.2.8c-.2.2-.4.4-.7.6-.3.1-.6.2-1,.2s-.6,0-.9-.1c-.3,0-.5-.2-.7-.4-.2-.1-.3-.3-.4-.4ZM259.4,232v-.4c-.1.2-.3.3-.6.4-.2,0-.5.1-.7.1s-.4,0-.6-.1c-.2,0-.4-.2-.5-.4-.1-.2-.2-.4-.2-.7s.1-.7.4-1c.3-.2.7-.4,1.2-.4s.2,0,.4,0c.1,0,.2,0,.3,0,.1,0,.2,0,.2,0h0c0-.4,0-.6-.3-.7-.2-.1-.4-.2-.7-.2s-.5,0-.7.1c-.2,0-.3.2-.4.2l-.3-.5c.1-.1.3-.2.6-.3.2-.1.6-.2,1-.2s.9.1,1.1.4c.3.2.4.6.4,1v2.2h0c0,.2,0,.3,0,.3h-.7ZM259.4,230.7v-.4s0,0-.2,0c0,0-.2,0-.3,0-.1,0-.2,0-.3,0-.3,0-.5,0-.6.1-.1,0-.2.2-.3.3,0,.1,0,.2,0,.3,0,.2,0,.3.2.5.1.1.3.2.6.2s.4,0,.5-.1c.2,0,.3-.2.4-.3.1-.1.2-.3.2-.4ZM261.8,232h-.7v-3.3h0c0-.2,0-.3,0-.4h.7v.6c0,0,.2-.2.3-.3.1-.1.2-.2.4-.3.2,0,.4-.1.6-.1.5,0,.8.1,1.1.4.2.3.4.7.4,1.1v2.2h-.7v-2.2c0-.3,0-.6-.2-.8-.1-.2-.4-.2-.6-.2s-.5,0-.6.2c-.2.1-.3.3-.3.5,0,.2,0,.5,0,.7v1.7ZM268.1,232v-.5c0,0-.1.1-.2.2,0,0-.2.2-.4.3-.2,0-.4.1-.6.1s-.6,0-.8-.2c-.3-.2-.4-.4-.6-.7-.1-.3-.2-.6-.2-1s0-.7.2-.9c.1-.3.3-.5.5-.6.2-.2.4-.3.6-.4.2,0,.4-.1.6-.1s.4,0,.5,0c.1,0,.3.1.4.2v-1.8h.7v5.1c0,0,0,.1,0,.2h-.7ZM268.1,230.4v-1.3c0,0-.2-.1-.4-.2-.1,0-.3,0-.5,0-.3,0-.6.1-.9.4-.2.2-.3.6-.3,1s0,.5.1.6c0,.2.2.4.4.5.2.1.4.2.6.2s.5,0,.6-.2c.2-.1.3-.3.3-.4,0-.2.1-.3.1-.5ZM272.9,232v-4.7h-1.9v-.7h4.6v.7h-1.9v4.7h-.8ZM276.2,232l.2-5.3h.7l1.6,2.8,1.6-2.8h.7l.2,5.3h-.8l-.2-4.1-1.5,2.5h-.4l-1.5-2.5-.2,4.1h-.7ZM282.6,232v-5.3h1.8c.6,0,1.1,0,1.5.3.4.2.8.5,1,.9.3.4.4.9.4,1.5s-.1,1.1-.4,1.5c-.2.4-.6.7-1,.9s-.9.3-1.5.3h-1.8ZM283.3,231.3h1c.7,0,1.2-.2,1.6-.5.4-.3.6-.8.6-1.5s-.2-1.1-.5-1.5c-.4-.3-.9-.5-1.6-.5h-1v4ZM60.3,240v-.4c-.1.2-.3.3-.6.4-.2,0-.5.1-.7.1s-.4,0-.6-.1c-.2,0-.4-.2-.5-.4-.1-.2-.2-.4-.2-.7s.1-.7.4-1c.3-.2.7-.4,1.2-.4s.2,0,.4,0c.1,0,.2,0,.3,0,.1,0,.2,0,.2,0h0c0-.4,0-.6-.3-.7-.2-.1-.4-.2-.7-.2s-.5,0-.7.1c-.2,0-.3.2-.4.2l-.3-.5c.1-.1.3-.2.6-.3.2-.1.6-.2,1-.2s.9.1,1.1.4c.3.2.4.6.4,1v2.2h0c0,.2,0,.3,0,.3h-.7ZM60.2,238.7v-.4s0,0-.2,0c0,0-.2,0-.3,0-.1,0-.2,0-.3,0-.3,0-.5,0-.6.1-.1,0-.2.2-.3.3,0,.1,0,.2,0,.3,0,.2,0,.3.2.5.1.1.3.2.6.2s.4,0,.5-.1c.2,0,.3-.2.4-.3.1-.1.2-.3.2-.4ZM62.9,240l-1.6-3.7h.8l1.2,2.9,1.2-2.9h.8l-1.6,3.7h-.7ZM68,240v-.4c-.1.2-.3.3-.6.4-.2,0-.5.1-.7.1s-.4,0-.6-.1c-.2,0-.4-.2-.5-.4-.1-.2-.2-.4-.2-.7s.1-.7.4-1c.3-.2.7-.4,1.2-.4s.2,0,.4,0c.1,0,.2,0,.3,0,.1,0,.2,0,.2,0h0c0-.4,0-.6-.3-.7-.2-.1-.4-.2-.7-.2s-.5,0-.7.1c-.2,0-.3.2-.4.2l-.3-.5c.1-.1.3-.2.6-.3.2-.1.6-.2,1-.2s.9.1,1.1.4c.3.2.4.6.4,1v2.2h0c0,.2,0,.3,0,.3h-.7ZM67.9,238.7v-.4s0,0-.2,0c0,0-.2,0-.3,0-.1,0-.2,0-.3,0-.3,0-.5,0-.6.1-.1,0-.2.2-.3.3,0,.1,0,.2,0,.3,0,.2,0,.3.2.5.1.1.3.2.6.2s.4,0,.5-.1c.2,0,.3-.2.4-.3.1-.1.2-.3.2-.4ZM69.6,235.6v-.8h.8v.8h-.8ZM69.6,240v-3.7h.7v3.7h-.7ZM71.4,240v-5.3h.7v5.3h-.7ZM75.4,240v-.4c-.1.2-.3.3-.6.4-.2,0-.5.1-.7.1s-.4,0-.6-.1c-.2,0-.4-.2-.5-.4-.1-.2-.2-.4-.2-.7s.1-.7.4-1c.3-.2.7-.4,1.2-.4s.2,0,.4,0c.1,0,.2,0,.3,0,.1,0,.2,0,.2,0h0c0-.4,0-.6-.3-.7-.2-.1-.4-.2-.7-.2s-.5,0-.7.1c-.2,0-.3.2-.4.2l-.3-.5c.1-.1.3-.2.6-.3.2-.1.6-.2,1-.2s.9.1,1.1.4c.3.2.4.6.4,1v2.2h0c0,.2,0,.3,0,.3h-.7ZM75.4,238.7v-.4s0,0-.2,0c0,0-.2,0-.3,0-.1,0-.2,0-.3,0-.3,0-.5,0-.6.1-.1,0-.2.2-.3.3,0,.1,0,.2,0,.3,0,.2,0,.3.2.5.1.1.3.2.6.2s.4,0,.5-.1c.2,0,.3-.2.4-.3.1-.1.2-.3.2-.4ZM77.1,239.9v-5.2h.7v2c0-.1.2-.2.4-.3.2-.1.4-.2.8-.2s.7,0,.9.3c.3.2.4.4.6.7.1.3.2.6.2,1s0,.7-.3,1c-.2.3-.4.5-.7.7-.3.2-.7.3-1.1.3s-.6,0-.8,0c-.3,0-.5-.1-.6-.2ZM77.8,237.9v1.5c0,0,.2,0,.3,0,.1,0,.3,0,.5,0,.4,0,.7-.1,1-.4.3-.3.4-.6.4-1s0-.4-.1-.6c0-.2-.2-.4-.3-.5-.2-.1-.4-.2-.6-.2s-.4,0-.6.2c-.2.1-.3.2-.4.4,0,.2-.1.3-.1.5ZM81.4,240v-5.3h.7v5.3h-.7ZM86.1,239l.4.4c0,0-.1.1-.3.3-.1.1-.3.2-.5.3-.2,0-.5.1-.8.1s-.7,0-1-.2c-.3-.2-.5-.4-.7-.7-.2-.3-.2-.7-.2-1s0-.7.2-1c.2-.3.4-.5.7-.7.3-.2.6-.3,1-.3s.8.1,1,.3c.3.2.5.5.6.8.1.3.2.7.2,1.1h-2.9c0,.2,0,.4.2.6.1.2.3.3.4.4.2,0,.4.1.6.1.3,0,.6,0,.8-.2.2-.1.4-.2.4-.3ZM83.7,237.8h2.2c0-.3-.1-.5-.3-.7-.2-.2-.4-.3-.8-.3s-.4,0-.6.2c-.2.1-.3.2-.4.4,0,.2-.1.3-.1.5ZM91.2,240v-.4c-.1.2-.3.3-.6.4-.2,0-.5.1-.7.1s-.4,0-.6-.1c-.2,0-.4-.2-.5-.4-.1-.2-.2-.4-.2-.7s.1-.7.4-1c.3-.2.7-.4,1.2-.4s.2,0,.4,0c.1,0,.2,0,.3,0,.1,0,.2,0,.2,0h0c0-.4,0-.6-.3-.7-.2-.1-.4-.2-.7-.2s-.5,0-.7.1c-.2,0-.3.2-.4.2l-.3-.5c.1-.1.3-.2.6-.3.2-.1.6-.2,1-.2s.9.1,1.1.4c.3.2.4.6.4,1v2.2h0c0,.2,0,.3,0,.3h-.7ZM91.2,238.7v-.4s0,0-.2,0c0,0-.2,0-.3,0-.1,0-.2,0-.3,0-.3,0-.5,0-.6.1-.1,0-.2.2-.3.3,0,.1,0,.2,0,.3,0,.2,0,.3.2.5.1.1.3.2.6.2s.4,0,.5-.1c.2,0,.3-.2.4-.3.1-.1.2-.3.2-.4ZM93.2,238.8v-1.9h-.7v-.6h.7v-1.2h.7v1.2h1.1v.6h-1.1v1.8c0,.3,0,.5.1.6,0,.1.2.2.4.2s.3,0,.3,0c0,0,.2-.1.3-.2l.3.4c-.2.1-.3.3-.5.3-.2,0-.4.1-.6.1-.4,0-.7-.1-.9-.3-.2-.2-.3-.6-.3-1ZM97.4,240v-5.3h.7v2.2c0,0,.1-.2.2-.3.1-.1.2-.2.4-.3.2,0,.4-.1.6-.1.5,0,.8.1,1.1.4.2.3.4.7.4,1.1v2.2h-.7v-2.2c0-.3,0-.6-.2-.8-.1-.2-.4-.2-.6-.2s-.5,0-.6.2c-.2.1-.3.3-.3.5,0,.2,0,.5,0,.7v1.7h-.7ZM103.5,240.1c-.4,0-.7,0-1-.3-.3-.2-.5-.4-.7-.7-.2-.3-.2-.6-.2-1s0-.7.2-1c.2-.3.4-.5.7-.7.3-.2.6-.3,1-.3s.7,0,1,.3c.3.2.5.4.7.7.2.3.3.6.3,1s0,.7-.3,1c-.2.3-.4.5-.7.7-.3.2-.6.3-1,.3ZM103.5,239.5c.3,0,.5,0,.7-.2.2-.1.3-.3.4-.5.1-.2.2-.4.2-.6s0-.4-.2-.6c0-.2-.2-.4-.4-.5-.2-.1-.4-.2-.7-.2s-.5,0-.7.2c-.2.1-.3.3-.4.5,0,.2-.1.4-.1.6s0,.4.2.6c.1.2.2.4.4.5.2.1.4.2.7.2ZM106.1,239.5l.4-.5c.1.1.3.2.5.3.2,0,.4.1.6.1s.4,0,.6-.1c.2,0,.2-.2.2-.4s0-.2,0-.3c0,0-.2-.1-.3-.2-.2,0-.4-.1-.6-.2-.2,0-.4-.1-.6-.2-.2,0-.3-.2-.4-.3-.1-.1-.2-.3-.2-.6s0-.4.2-.6c.1-.2.3-.3.6-.4.2,0,.5-.1.7-.1s.6,0,.8.1c.2,0,.4.2.6.3l-.4.5c-.1-.1-.3-.2-.4-.3-.2,0-.4-.1-.6-.1s-.4,0-.6.1c-.1,0-.2.2-.2.4s0,.3.3.4c.2,0,.4.1.7.2.2,0,.4.1.6.2.2,0,.3.2.5.4.1.1.2.3.2.6s0,.5-.2.6c-.1.2-.3.3-.6.4-.2,0-.5.1-.8.1-.7,0-1.2-.2-1.6-.6ZM110.4,238.8v-1.9h-.7v-.6h.7v-1.2h.7v1.2h1.1v.6h-1.1v1.8c0,.3,0,.5.1.6,0,.1.2.2.4.2s.3,0,.3,0c0,0,.2-.1.3-.2l.3.4c-.2.1-.3.3-.5.3-.2,0-.4.1-.6.1-.4,0-.7-.1-.9-.3-.2-.2-.3-.6-.3-1ZM113.9,241.6h-.7v-4.9h0c0-.2,0-.3,0-.4h.7v.5c0,0,.2-.1.3-.2.1,0,.2-.2.4-.3.2,0,.4-.1.6-.1.4,0,.7,0,.9.3.3.2.4.4.6.7.1.3.2.6.2,1s0,.6-.2.9c-.1.2-.3.4-.4.6-.2.2-.4.3-.6.4-.2,0-.4.1-.7.1s-.5,0-.6,0c-.1,0-.3-.1-.4-.2v1.7ZM113.9,238.2v1c0,0,.2.1.4.2s.4,0,.6,0,.5,0,.6-.2c.2-.1.3-.3.4-.5.1-.2.2-.4.2-.7s0-.5-.1-.7c0-.2-.2-.4-.3-.5-.2-.1-.4-.2-.6-.2s-.5,0-.7.2c-.2.1-.3.3-.4.6,0,0,0,.2,0,.3,0,0,0,.2,0,.3ZM117.6,240v-5.3h.7v5.3h-.7ZM119.3,238.5v-2.2h.7v2.2c0,.3,0,.6.2.8s.4.2.6.2.5,0,.6-.2c.2-.1.3-.3.3-.5,0-.2.1-.5.1-.7v-1.7h.7v3.5c0,0,0,.1,0,.2h-.7v-.6c0,0-.2.2-.3.3-.1,0-.2.2-.4.2-.2,0-.4.1-.6.1-.5,0-.8-.1-1.1-.4-.2-.3-.3-.7-.3-1.1ZM123.4,239.5l.4-.5c.1.1.3.2.5.3.2,0,.4.1.6.1s.4,0,.6-.1c.2,0,.2-.2.2-.4s0-.2,0-.3c0,0-.2-.1-.3-.2-.2,0-.4-.1-.6-.2-.2,0-.4-.1-.6-.2-.2,0-.3-.2-.4-.3-.1-.1-.2-.3-.2-.6s0-.4.2-.6c.1-.2.3-.3.6-.4.2,0,.5-.1.7-.1s.6,0,.8.1c.2,0,.4.2.6.3l-.4.5c-.1-.1-.3-.2-.4-.3-.2,0-.4-.1-.6-.1s-.4,0-.6.1c-.1,0-.2.2-.2.4s0,.3.3.4c.2,0,.4.1.7.2.2,0,.4.1.6.2.2,0,.3.2.5.4.1.1.2.3.2.6s0,.5-.2.6c-.1.2-.3.3-.6.4-.2,0-.5.1-.8.1-.7,0-1.2-.2-1.6-.6ZM127.3,240v-.9h.9v.9h-.9ZM131.8,239l.4.5c-.2.2-.4.3-.6.5-.2.1-.5.2-.8.2s-.7,0-1-.3c-.3-.2-.5-.4-.7-.7-.2-.3-.2-.6-.2-1s0-.7.2-1c.2-.3.4-.5.7-.7.3-.2.6-.3,1-.3s.6,0,.8.2.4.3.6.5l-.5.5c-.1-.1-.2-.2-.4-.3-.2,0-.3-.1-.6-.1s-.5,0-.7.2c-.2.1-.3.3-.4.5,0,.2-.1.4-.1.7s0,.4.1.7c.1.2.2.4.4.5.2.1.4.2.7.2s.4,0,.6-.1c.2,0,.3-.2.4-.3ZM134.5,240.1c-.4,0-.7,0-1-.3-.3-.2-.5-.4-.7-.7-.2-.3-.2-.6-.2-1s0-.7.2-1c.2-.3.4-.5.7-.7.3-.2.6-.3,1-.3s.7,0,1,.3c.3.2.5.4.7.7.2.3.3.6.3,1s0,.7-.3,1c-.2.3-.4.5-.7.7-.3.2-.6.3-1,.3ZM134.5,239.5c.3,0,.5,0,.7-.2.2-.1.3-.3.4-.5.1-.2.2-.4.2-.6s0-.4-.2-.6c0-.2-.2-.4-.4-.5-.2-.1-.4-.2-.7-.2s-.5,0-.7.2c-.2.1-.3.3-.4.5,0,.2-.1.4-.1.6s0,.4.2.6c.1.2.2.4.4.5.2.1.4.2.7.2ZM138,240h-.7v-3.3h0c0-.2,0-.3,0-.4h.7v.6c0,0,.2-.2.3-.3.1-.1.2-.2.4-.3.2,0,.4-.1.6-.1s.5,0,.7.2c.2.1.3.3.4.5.1-.2.3-.3.6-.5.2-.1.5-.2.8-.2.5,0,.8.1,1.1.4.2.3.3.7.3,1.1v2.2h-.7v-2.2c0-.7-.3-1-.8-1s-.4,0-.5.2c-.2.1-.3.2-.4.4,0,.2-.1.3-.1.6v2.1h-.7v-2.2c0-.3,0-.6-.2-.8-.1-.2-.3-.2-.6-.2s-.5,0-.6.2c-.2.1-.3.3-.3.6,0,.2,0,.4,0,.7v1.7ZM144.1,240v-.9h.9v.9h-.9ZM148.5,240v-.4c-.1.2-.3.3-.6.4-.2,0-.5.1-.7.1s-.4,0-.6-.1c-.2,0-.4-.2-.5-.4-.1-.2-.2-.4-.2-.7s.1-.7.4-1c.3-.2.7-.4,1.2-.4s.2,0,.4,0c.1,0,.2,0,.3,0,.1,0,.2,0,.2,0h0c0-.4,0-.6-.3-.7-.2-.1-.4-.2-.7-.2s-.5,0-.7.1c-.2,0-.3.2-.4.2l-.3-.5c.1-.1.3-.2.6-.3.2-.1.6-.2,1-.2s.9.1,1.1.4c.3.2.4.6.4,1v2.2h0c0,.2,0,.3,0,.3h-.7ZM148.4,238.7v-.4s0,0-.2,0c0,0-.2,0-.3,0-.1,0-.2,0-.3,0-.3,0-.5,0-.6.1-.1,0-.2.2-.3.3,0,.1,0,.2,0,.3,0,.2,0,.3.2.5.1.1.3.2.6.2s.4,0,.5-.1c.2,0,.3-.2.4-.3.1-.1.2-.3.2-.4ZM150.1,238.5v-2.2h.7v2.2c0,.3,0,.6.2.8s.4.2.6.2.5,0,.6-.2c.2-.1.3-.3.3-.5,0-.2.1-.5.1-.7v-1.7h.7v3.5c0,0,0,.1,0,.2h-.7v-.6c0,0-.2.2-.3.3-.1,0-.2.2-.4.2-.2,0-.4.1-.6.1-.5,0-.8-.1-1.1-.4-.2-.3-.3-.7-.3-1.1ZM155.9,239.9v-5.2h.7v2c0-.1.2-.2.4-.3.2-.1.4-.2.8-.2s.7,0,.9.3c.3.2.4.4.6.7.1.3.2.6.2,1s0,.7-.3,1c-.2.3-.4.5-.7.7-.3.2-.7.3-1.1.3s-.6,0-.8,0c-.3,0-.5-.1-.6-.2ZM156.6,237.9v1.5c0,0,.2,0,.3,0,.1,0,.3,0,.5,0,.4,0,.7-.1,1-.4.2-.3.4-.6.4-1s0-.4-.1-.6c0-.2-.2-.4-.3-.5-.2-.1-.4-.2-.6-.2s-.4,0-.6.2c-.2.1-.3.2-.4.4,0,.2-.1.3-.1.5ZM163.2,239l.4.4c0,0-.2.1-.3.3-.1.1-.3.2-.5.3-.2,0-.5.1-.8.1s-.7,0-1-.2c-.3-.2-.5-.4-.7-.7-.2-.3-.2-.7-.2-1s0-.7.2-1c.2-.3.4-.5.7-.7.3-.2.6-.3,1-.3s.8.1,1,.3c.3.2.5.5.6.8.1.3.2.7.2,1.1h-2.9c0,.2,0,.4.2.6.1.2.3.3.4.4.2,0,.4.1.6.1.3,0,.6,0,.8-.2.2-.1.4-.2.4-.3ZM160.8,237.8h2.2c0-.3-.1-.5-.3-.7-.2-.2-.4-.3-.8-.3s-.4,0-.6.2c-.2.1-.3.2-.4.4,0,.2-.1.3-.1.5ZM164.8,240v-3.1h-.7v-.6h.7v-.3c0-.3,0-.6.2-.8.1-.2.3-.4.5-.5.2-.1.4-.2.6-.2s.4,0,.6,0c.2,0,.4.2.5.3l-.4.5c-.2-.2-.4-.2-.6-.2s-.4,0-.5.2c-.1.1-.2.4-.2.7v.2h1.1v.6h-1.1v3.1h-.7ZM168.8,240.1c-.4,0-.7,0-1-.3-.3-.2-.5-.4-.7-.7-.2-.3-.2-.6-.2-1s0-.7.2-1c.2-.3.4-.5.7-.7.3-.2.6-.3,1-.3s.7,0,1,.3c.3.2.5.4.7.7s.3.6.3,1,0,.7-.3,1c-.2.3-.4.5-.7.7-.3.2-.6.3-1,.3ZM168.8,239.5c.3,0,.5,0,.7-.2.2-.1.3-.3.4-.5.1-.2.2-.4.2-.6s0-.4-.2-.6c0-.2-.2-.4-.4-.5-.2-.1-.4-.2-.7-.2s-.5,0-.7.2c-.2.1-.3.3-.4.5,0,.2-.1.4-.1.6s0,.4.2.6c.1.2.2.4.4.5.2.1.4.2.7.2ZM172.3,240h-.7v-3.4h0c0-.2,0-.3,0-.4h.7v.6c0,0,.2-.2.3-.3.1-.1.2-.2.4-.3s.4-.1.6-.1.2,0,.2,0c0,0,.1,0,.2,0l-.2.7c0,0-.2,0-.4,0s-.4,0-.6.2c-.2.1-.3.2-.4.4,0,.2-.1.4-.1.6v2ZM177.3,239l.4.4c0,0-.1.1-.3.3-.1.1-.3.2-.5.3-.2,0-.5.1-.8.1s-.7,0-1-.2c-.3-.2-.5-.4-.7-.7-.2-.3-.2-.7-.2-1s0-.7.2-1c.2-.3.4-.5.7-.7.3-.2.6-.3,1-.3s.8.1,1,.3c.3.2.5.5.6.8.1.3.2.7.2,1.1h-2.9c0,.2,0,.4.2.6.1.2.3.3.4.4.2,0,.4.1.6.1.3,0,.6,0,.8-.2.2-.1.4-.2.4-.3ZM174.9,237.8h2.2c0-.3-.1-.5-.3-.7s-.4-.3-.8-.3-.4,0-.6.2c-.2.1-.3.2-.4.4,0,.2-.1.3-.1.5ZM180.8,240h-.7v-3.3h0c0-.2,0-.3,0-.4h.7v.6c0,0,.2-.2.3-.3.1-.1.2-.2.4-.3.2,0,.4-.1.6-.1s.5,0,.7.2c.2.1.3.3.4.5.1-.2.3-.3.6-.5.2-.1.5-.2.8-.2.5,0,.8.1,1.1.4.2.3.3.7.3,1.1v2.2h-.7v-2.2c0-.7-.3-1-.8-1s-.4,0-.5.2c-.2.1-.3.2-.4.4,0,.2-.1.3-.1.6v2.1h-.7v-2.2c0-.3,0-.6-.2-.8-.1-.2-.3-.2-.6-.2s-.5,0-.6.2c-.2.1-.3.3-.3.6,0,.2,0,.4,0,.7v1.7ZM189.2,240v-.4c-.1.2-.3.3-.6.4-.2,0-.5.1-.7.1s-.4,0-.6-.1c-.2,0-.4-.2-.5-.4-.1-.2-.2-.4-.2-.7s.1-.7.4-1c.3-.2.7-.4,1.2-.4s.2,0,.4,0c.1,0,.2,0,.3,0,.1,0,.2,0,.2,0h0c0-.4,0-.6-.3-.7-.2-.1-.4-.2-.7-.2s-.5,0-.7.1c-.2,0-.3.2-.4.2l-.3-.5c.1-.1.3-.2.6-.3.2-.1.6-.2,1-.2s.9.1,1.1.4c.3.2.4.6.4,1v2.2h0c0,.2,0,.3,0,.3h-.7ZM189.2,238.7v-.4s0,0-.2,0c0,0-.2,0-.3,0-.1,0-.2,0-.3,0-.3,0-.5,0-.6.1-.1,0-.2.2-.3.3,0,.1,0,.2,0,.3,0,.2,0,.3.2.5.1.1.3.2.6.2s.4,0,.5-.1c.2,0,.3-.2.4-.3.1-.1.2-.3.2-.4ZM190.8,240v-5.3h.7v3.1l1.6-1.5h.9l-1.4,1.4,1.6,2.3h-.9l-1.3-1.9-.5.5v1.4h-.7ZM194.8,235.6v-.8h.8v.8h-.8ZM194.8,240v-3.7h.7v3.7h-.7ZM197.3,240h-.7v-3.3h0c0-.2,0-.3,0-.4h.7v.6c0,0,.2-.2.3-.3.1-.1.2-.2.4-.3.2,0,.4-.1.6-.1.5,0,.8.1,1.1.4.2.3.4.7.4,1.1v2.2h-.7v-2.2c0-.3,0-.6-.2-.8-.1-.2-.4-.2-.6-.2s-.5,0-.6.2c-.2.1-.3.3-.3.5,0,.2,0,.5,0,.7v1.7ZM201.1,241.3l.3-.5c.1,0,.3.2.4.2.2,0,.4,0,.7,0s.6,0,.8-.3.3-.5.3-.8v-.5s-.1.1-.2.2c0,0-.2.1-.4.2-.1,0-.3,0-.6,0-.4,0-.7,0-.9-.2-.3-.2-.4-.4-.6-.7-.1-.3-.2-.6-.2-1s0-.7.3-1c.2-.3.4-.5.7-.7.3-.2.7-.3,1.1-.3s.6,0,.8,0c.3,0,.5.1.6.2v3.6c0,.5-.2.9-.5,1.2-.3.3-.8.4-1.3.4s-.7,0-.9-.1c-.2,0-.4-.2-.5-.3ZM203.6,238.5v-1.5s-.1,0-.2,0c-.1,0-.3,0-.5,0s-.5,0-.7.2c-.2.1-.4.3-.5.5-.1.2-.2.4-.2.7s0,.4.1.6c0,.2.2.3.4.4s.4.2.6.2.4,0,.6-.1c.2,0,.3-.2.3-.3,0-.1.1-.3.1-.4ZM209.1,240v-.4c-.1.2-.3.3-.6.4-.2,0-.5.1-.7.1s-.4,0-.6-.1c-.2,0-.4-.2-.5-.4-.1-.2-.2-.4-.2-.7s.1-.7.4-1c.3-.2.7-.4,1.2-.4s.2,0,.4,0c.1,0,.2,0,.3,0,.1,0,.2,0,.2,0h0c0-.4,0-.6-.3-.7-.2-.1-.4-.2-.7-.2s-.5,0-.7.1c-.2,0-.3.2-.4.2l-.3-.5c.1-.1.3-.2.6-.3.2-.1.6-.2,1-.2s.9.1,1.1.4c.3.2.4.6.4,1v2.2h0c0,.2,0,.3,0,.3h-.7ZM209,238.7v-.4s0,0-.2,0c0,0-.2,0-.3,0-.1,0-.2,0-.3,0-.3,0-.5,0-.6.1-.1,0-.2.2-.3.3,0,.1,0,.2,0,.3,0,.2,0,.3.2.5.1.1.3.2.6.2s.4,0,.5-.1c.2,0,.3-.2.4-.3.1-.1.2-.3.2-.4ZM214.9,240v-.5c0,0-.1.1-.2.2,0,0-.2.2-.4.3-.2,0-.4.1-.6.1s-.6,0-.8-.2c-.2-.2-.4-.4-.6-.7-.1-.3-.2-.6-.2-1s0-.7.2-.9c.1-.3.3-.5.5-.6s.4-.3.6-.4c.2,0,.4-.1.6-.1s.4,0,.5,0c.1,0,.3.1.4.2v-1.8h.7v5.1c0,0,0,.1,0,.2h-.7ZM214.8,238.4v-1.3c0,0-.2-.1-.4-.2-.1,0-.3,0-.5,0-.3,0-.6.1-.9.4-.2.2-.3.6-.3,1s0,.5.1.6c0,.2.2.4.4.5.2.1.4.2.6.2s.5,0,.6-.2c.2-.1.3-.3.3-.4,0-.2.1-.3.1-.5ZM219.5,239l.4.4c0,0-.1.1-.3.3-.1.1-.3.2-.5.3-.2,0-.5.1-.8.1s-.7,0-1-.2c-.3-.2-.5-.4-.7-.7-.2-.3-.2-.7-.2-1s0-.7.2-1c.2-.3.4-.5.7-.7.3-.2.6-.3,1-.3s.8.1,1,.3c.3.2.5.5.6.8.1.3.2.7.2,1.1h-2.9c0,.2,0,.4.2.6.1.2.3.3.4.4.2,0,.4.1.6.1.3,0,.6,0,.8-.2.2-.1.4-.2.4-.3ZM217.1,237.8h2.2c0-.3-.1-.5-.3-.7-.2-.2-.4-.3-.8-.3s-.4,0-.6.2c-.2.1-.3.2-.4.4,0,.2-.1.3-.1.5ZM223.6,239l.4.5c-.2.2-.4.3-.6.5-.2.1-.5.2-.8.2s-.7,0-1-.3c-.3-.2-.5-.4-.7-.7-.2-.3-.2-.6-.2-1s0-.7.2-1c.2-.3.4-.5.7-.7.3-.2.6-.3,1-.3s.6,0,.8.2.4.3.6.5l-.5.5c-.1-.1-.2-.2-.4-.3-.2,0-.3-.1-.6-.1s-.5,0-.7.2c-.2.1-.3.3-.4.5,0,.2-.1.4-.1.7s0,.4.1.7c.1.2.2.4.4.5.2.1.4.2.7.2s.4,0,.6-.1c.2,0,.3-.2.4-.3ZM224.8,235.6v-.8h.8v.8h-.8ZM224.8,240v-3.7h.7v3.7h-.7ZM226.4,239.5l.4-.5c.1.1.3.2.5.3.2,0,.4.1.6.1s.4,0,.6-.1c.2,0,.2-.2.2-.4s0-.2,0-.3c0,0-.2-.1-.3-.2-.2,0-.4-.1-.6-.2-.2,0-.4-.1-.6-.2-.2,0-.3-.2-.4-.3-.1-.1-.2-.3-.2-.6s0-.4.2-.6c.1-.2.3-.3.6-.4.2,0,.5-.1.7-.1s.6,0,.8.1c.2,0,.4.2.6.3l-.4.5c-.1-.1-.3-.2-.4-.3-.2,0-.4-.1-.6-.1s-.4,0-.6.1c-.1,0-.2.2-.2.4s0,.3.3.4c.2,0,.4.1.7.2.2,0,.4.1.6.2.2,0,.3.2.5.4.1.1.2.3.2.6s0,.5-.2.6c-.1.2-.3.3-.6.4-.2,0-.5.1-.8.1-.7,0-1.2-.2-1.6-.6ZM230.3,235.6v-.8h.8v.8h-.8ZM230.4,240v-3.7h.7v3.7h-.7ZM233.9,240.1c-.4,0-.7,0-1-.3-.3-.2-.5-.4-.7-.7-.2-.3-.2-.6-.2-1s0-.7.2-1c.2-.3.4-.5.7-.7.3-.2.6-.3,1-.3s.7,0,1,.3c.3.2.5.4.7.7.2.3.3.6.3,1s0,.7-.3,1c-.2.3-.4.5-.7.7-.3.2-.6.3-1,.3ZM233.9,239.5c.3,0,.5,0,.7-.2.2-.1.3-.3.4-.5.1-.2.2-.4.2-.6s0-.4-.2-.6c0-.2-.2-.4-.4-.5-.2-.1-.4-.2-.7-.2s-.5,0-.7.2c-.2.1-.3.3-.4.5,0,.2-.1.4-.1.6s0,.4.2.6c.1.2.2.4.4.5.2.1.4.2.7.2ZM237.4,240h-.7v-3.3h0c0-.2,0-.3,0-.4h.7v.6c0,0,.2-.2.3-.3.1-.1.2-.2.4-.3.2,0,.4-.1.6-.1.5,0,.8.1,1.1.4.2.3.4.7.4,1.1v2.2h-.7v-2.2c0-.3,0-.6-.2-.8-.1-.2-.4-.2-.6-.2s-.5,0-.6.2c-.2.1-.3.3-.3.5,0,.2,0,.5,0,.7v1.7ZM241.1,240v-.9h.9v.9h-.9Z" fill="#99a9bb" stroke-width="0"/>
</svg>