<svg width="176" height="34" viewBox="0 0 176 34" fill="none" xmlns="http://www.w3.org/2000/svg">
<path d="M22.2428 19.148L23.9423 20.699C23.6343 21.117 23.2383 21.502 22.7543 21.854C22.2813 22.206 21.7478 22.4865 21.1538 22.6955C20.5598 22.9045 19.9218 23.009 19.2398 23.009C18.1288 23.009 17.1443 22.7615 16.2863 22.2665C15.4393 21.7715 14.7738 21.095 14.2898 20.237C13.8168 19.368 13.5803 18.378 13.5803 17.267C13.5803 16.453 13.7178 15.694 13.9928 14.99C14.2678 14.275 14.6528 13.6535 15.1478 13.1255C15.6538 12.5975 16.2533 12.185 16.9463 11.888C17.6503 11.591 18.4258 11.4425 19.2728 11.4425C20.2848 11.4425 21.1758 11.6295 21.9458 12.0035C22.7158 12.3775 23.3538 12.9165 23.8598 13.6205L22.1603 15.254C21.8303 14.792 21.4398 14.4235 20.9888 14.1485C20.5378 13.8625 19.9988 13.7195 19.3718 13.7195C18.7118 13.7195 18.1398 13.879 17.6558 14.198C17.1828 14.506 16.8143 14.924 16.5503 15.452C16.2973 15.98 16.1708 16.563 16.1708 17.201C16.1708 17.85 16.2973 18.433 16.5503 18.95C16.8143 19.467 17.1828 19.8795 17.6558 20.1875C18.1288 20.4845 18.6843 20.633 19.3223 20.633C19.8503 20.633 20.2903 20.5615 20.6423 20.4185C20.9943 20.2755 21.2913 20.094 21.5333 19.874C21.7863 19.643 22.0228 19.401 22.2428 19.148ZM24.8569 18.851C24.8569 18.092 25.0329 17.399 25.3849 16.772C25.7369 16.145 26.2209 15.65 26.8369 15.287C27.4639 14.913 28.1899 14.726 29.0149 14.726C29.8399 14.726 30.5604 14.913 31.1764 15.287C31.8034 15.65 32.2874 16.145 32.6284 16.772C32.9804 17.399 33.1564 18.092 33.1564 18.851C33.1564 19.61 32.9804 20.303 32.6284 20.93C32.2874 21.557 31.8034 22.0575 31.1764 22.4315C30.5604 22.8055 29.8399 22.9925 29.0149 22.9925C28.1899 22.9925 27.4639 22.8055 26.8369 22.4315C26.2209 22.0575 25.7369 21.557 25.3849 20.93C25.0329 20.303 24.8569 19.61 24.8569 18.851ZM29.0149 20.93C29.4219 20.93 29.7574 20.831 30.0214 20.633C30.2964 20.435 30.5054 20.1765 30.6484 19.8575C30.7914 19.5385 30.8629 19.203 30.8629 18.851C30.8629 18.499 30.7914 18.169 30.6484 17.861C30.5054 17.542 30.2964 17.2835 30.0214 17.0855C29.7574 16.8875 29.4219 16.7885 29.0149 16.7885C28.6189 16.7885 28.2779 16.8875 27.9919 17.0855C27.7169 17.2835 27.5079 17.542 27.3649 17.861C27.2219 18.169 27.1504 18.499 27.1504 18.851C27.1504 19.203 27.2219 19.5385 27.3649 19.8575C27.5079 20.1765 27.7169 20.435 27.9919 20.633C28.2779 20.831 28.6189 20.93 29.0149 20.93ZM34.5652 22.7285V14.99H36.8422L36.9247 15.848C37.1667 15.551 37.4747 15.3035 37.8487 15.1055C38.2227 14.9075 38.6627 14.8085 39.1687 14.8085C39.7847 14.8085 40.2742 14.924 40.6372 15.155C41.0002 15.386 41.2697 15.628 41.4457 15.881C41.7647 15.54 42.1497 15.276 42.6007 15.089C43.0627 14.902 43.5412 14.8085 44.0362 14.8085C45.0152 14.8085 45.7687 15.0945 46.2967 15.6665C46.8247 16.2275 47.0887 16.9865 47.0887 17.9435V22.7285H44.7127V18.323C44.7127 17.872 44.6082 17.52 44.3992 17.267C44.2012 17.003 43.8987 16.871 43.4917 16.871C43.0407 16.871 42.6722 17.0305 42.3862 17.3495C42.1112 17.6685 41.9737 18.0755 41.9737 18.5705V22.7285H39.6802V18.323C39.6802 17.872 39.5757 17.52 39.3667 17.267C39.1687 17.003 38.8662 16.871 38.4592 16.871C38.0192 16.871 37.6562 17.0305 37.3702 17.3495C37.0842 17.6685 36.9412 18.0755 36.9412 18.5705V22.7285H34.5652ZM48.8093 26.0285V14.99H51.0863C51.1083 15.133 51.1248 15.276 51.1358 15.419C51.1468 15.551 51.1578 15.6885 51.1688 15.8315C51.4218 15.5125 51.7463 15.2705 52.1423 15.1055C52.5383 14.9295 52.9508 14.8415 53.3798 14.8415C54.1388 14.8415 54.7713 15.0285 55.2773 15.4025C55.7833 15.7765 56.1628 16.266 56.4158 16.871C56.6688 17.476 56.7953 18.1195 56.7953 18.8015C56.7953 19.5165 56.6743 20.138 56.4323 20.666C56.2013 21.194 55.8878 21.6285 55.4918 21.9695C55.0958 22.3105 54.6613 22.5635 54.1883 22.7285C53.7153 22.8935 53.2368 22.976 52.7528 22.976C52.3788 22.976 52.0708 22.943 51.8288 22.877C51.5868 22.811 51.3668 22.745 51.1688 22.679V26.0285H48.8093ZM51.1688 18.62V20.6825C51.4878 20.8915 51.9443 20.996 52.5383 20.996C53.1213 20.996 53.5778 20.798 53.9078 20.402C54.2488 20.006 54.4193 19.489 54.4193 18.851C54.4193 18.51 54.3643 18.191 54.2543 17.894C54.1553 17.586 53.9848 17.3385 53.7428 17.1515C53.5118 16.9645 53.1983 16.871 52.8023 16.871C52.2743 16.871 51.8673 17.0525 51.5813 17.4155C51.3063 17.7785 51.1688 18.18 51.1688 18.62ZM62.7574 22.7285L62.6914 22.0025C62.1414 22.6405 61.3604 22.9595 60.3484 22.9595C59.9854 22.9595 59.6004 22.888 59.1934 22.745C58.7974 22.613 58.4564 22.371 58.1704 22.019C57.8844 21.667 57.7414 21.183 57.7414 20.567C57.7414 19.962 57.8954 19.4505 58.2034 19.0325C58.5224 18.6145 58.9514 18.301 59.4904 18.092C60.0294 17.872 60.6344 17.762 61.3054 17.762C61.5804 17.762 61.8554 17.7675 62.1304 17.7785C62.4164 17.7895 62.6034 17.806 62.6914 17.828V17.663C62.6914 17.267 62.5374 16.9865 62.2294 16.8215C61.9324 16.6455 61.5914 16.5575 61.2064 16.5575C60.6894 16.5575 60.2549 16.6235 59.9029 16.7555C59.5509 16.8875 59.2539 17.036 59.0119 17.201L58.0384 15.749C58.3574 15.496 58.7919 15.265 59.3419 15.056C59.8919 14.836 60.6234 14.726 61.5364 14.726C62.7134 14.726 63.5824 15.045 64.1434 15.683C64.7044 16.31 64.9849 17.157 64.9849 18.224V22.7285H62.7574ZM62.6914 19.94V19.313C62.6364 19.302 62.5319 19.291 62.3779 19.28C62.2239 19.258 62.0479 19.247 61.8499 19.247C61.1899 19.247 60.7224 19.3405 60.4474 19.5275C60.1724 19.7145 60.0349 19.9785 60.0349 20.3195C60.0349 20.9575 60.4199 21.2765 61.1899 21.2765C61.5639 21.2765 61.9049 21.161 62.2129 20.93C62.5319 20.699 62.6914 20.369 62.6914 19.94ZM66.6951 22.7285V14.99H68.9721L69.0546 15.9635C69.2526 15.6995 69.5221 15.4465 69.8631 15.2045C70.2151 14.9625 70.6661 14.8415 71.2161 14.8415C71.4251 14.8415 71.6011 14.8525 71.7441 14.8745C71.8981 14.8965 72.0466 14.935 72.1896 14.99L71.8101 17.0855C71.5681 17.0085 71.2821 16.97 70.9521 16.97C70.3911 16.97 69.9346 17.1405 69.5826 17.4815C69.2416 17.8115 69.0711 18.2845 69.0711 18.9005V22.7285H66.6951ZM79.1863 20.3855L80.1598 21.887C80.0498 21.964 79.8518 22.0905 79.5658 22.2665C79.2908 22.4425 78.9223 22.6075 78.4603 22.7615C77.9983 22.9155 77.4318 22.9925 76.7608 22.9925C75.8808 22.9925 75.1218 22.8165 74.4838 22.4645C73.8458 22.1125 73.3563 21.623 73.0153 20.996C72.6743 20.369 72.5038 19.6485 72.5038 18.8345C72.5038 18.1085 72.6578 17.432 72.9658 16.805C73.2848 16.178 73.7413 15.6775 74.3353 15.3035C74.9403 14.9185 75.6608 14.726 76.4968 14.726C77.3328 14.726 78.0313 14.9185 78.5923 15.3035C79.1643 15.6775 79.5933 16.2 79.8793 16.871C80.1763 17.531 80.3248 18.2955 80.3248 19.1645V19.5605H74.8138C74.8248 19.9675 75.0118 20.3305 75.3748 20.6495C75.7378 20.9685 76.2273 21.128 76.8433 21.128C77.4593 21.128 77.9598 21.04 78.3448 20.864C78.7298 20.677 79.0103 20.5175 79.1863 20.3855ZM74.8138 18.0425H78.0808C78.0808 17.8225 78.0203 17.6025 77.8993 17.3825C77.7893 17.1515 77.6133 16.959 77.3713 16.805C77.1403 16.651 76.8433 16.574 76.4803 16.574C76.1173 16.574 75.8093 16.651 75.5563 16.805C75.3143 16.959 75.1273 17.1515 74.9953 17.3825C74.8743 17.6025 74.8138 17.8225 74.8138 18.0425ZM84.8594 22.7285V11.723H87.3509V15.947H92.1194V11.723H94.6109V22.7285H92.1194V18.2075H87.3509V22.7285H84.8594ZM96.2065 18.851C96.2065 18.092 96.3825 17.399 96.7345 16.772C97.0865 16.145 97.5705 15.65 98.1865 15.287C98.8135 14.913 99.5395 14.726 100.364 14.726C101.189 14.726 101.91 14.913 102.526 15.287C103.153 15.65 103.637 16.145 103.978 16.772C104.33 17.399 104.506 18.092 104.506 18.851C104.506 19.61 104.33 20.303 103.978 20.93C103.637 21.557 103.153 22.0575 102.526 22.4315C101.91 22.8055 101.189 22.9925 100.364 22.9925C99.5395 22.9925 98.8135 22.8055 98.1865 22.4315C97.5705 22.0575 97.0865 21.557 96.7345 20.93C96.3825 20.303 96.2065 19.61 96.2065 18.851ZM100.364 20.93C100.771 20.93 101.107 20.831 101.371 20.633C101.646 20.435 101.855 20.1765 101.998 19.8575C102.141 19.5385 102.212 19.203 102.212 18.851C102.212 18.499 102.141 18.169 101.998 17.861C101.855 17.542 101.646 17.2835 101.371 17.0855C101.107 16.8875 100.771 16.7885 100.364 16.7885C99.9685 16.7885 99.6275 16.8875 99.3415 17.0855C99.0665 17.2835 98.8575 17.542 98.7145 17.861C98.5715 18.169 98.5 18.499 98.5 18.851C98.5 19.203 98.5715 19.5385 98.7145 19.8575C98.8575 20.1765 99.0665 20.435 99.3415 20.633C99.6275 20.831 99.9685 20.93 100.364 20.93ZM105.535 21.854L106.707 20.336C106.96 20.567 107.29 20.7595 107.697 20.9135C108.115 21.0675 108.516 21.1445 108.901 21.1445C109.253 21.1445 109.545 21.1005 109.776 21.0125C110.007 20.9135 110.122 20.743 110.122 20.501C110.122 20.358 110.073 20.2425 109.974 20.1545C109.886 20.0555 109.71 19.9565 109.446 19.8575C109.193 19.7585 108.819 19.643 108.324 19.511C107.928 19.401 107.543 19.2525 107.169 19.0655C106.806 18.8785 106.503 18.631 106.261 18.323C106.03 18.004 105.915 17.608 105.915 17.135C105.915 16.651 106.058 16.233 106.344 15.881C106.63 15.518 107.02 15.2375 107.515 15.0395C108.01 14.8305 108.566 14.726 109.182 14.726C109.842 14.726 110.419 14.803 110.914 14.957C111.42 15.1 111.877 15.3145 112.284 15.6005L111.277 17.168C111.035 17.003 110.749 16.8545 110.419 16.7225C110.089 16.5905 109.721 16.5245 109.314 16.5245C108.951 16.5245 108.687 16.5795 108.522 16.6895C108.357 16.7885 108.274 16.926 108.274 17.102C108.274 17.355 108.445 17.542 108.786 17.663C109.138 17.784 109.6 17.9215 110.172 18.0755C110.953 18.2845 111.525 18.587 111.888 18.983C112.251 19.368 112.432 19.8795 112.432 20.5175C112.432 21.0785 112.267 21.546 111.937 21.92C111.607 22.283 111.178 22.5525 110.65 22.7285C110.133 22.9045 109.583 22.9925 109 22.9925C108.307 22.9925 107.653 22.899 107.037 22.712C106.421 22.514 105.92 22.228 105.535 21.854ZM114.291 19.775V16.8545H113.07V14.99H114.291V12.449H116.667V14.99H118.664V16.8545H116.667V19.907C116.667 20.281 116.739 20.5725 116.882 20.7815C117.036 20.9795 117.272 21.0785 117.591 21.0785C117.833 21.0785 118.042 21.04 118.218 20.963C118.394 20.875 118.559 20.776 118.713 20.666L119.67 22.118C118.933 22.712 118.119 23.009 117.228 23.009C116.491 23.009 115.908 22.8715 115.479 22.5965C115.05 22.3215 114.742 21.942 114.555 21.458C114.379 20.974 114.291 20.413 114.291 19.775ZM120.61 26.0285V14.99H122.887C122.909 15.133 122.926 15.276 122.937 15.419C122.948 15.551 122.959 15.6885 122.97 15.8315C123.223 15.5125 123.547 15.2705 123.943 15.1055C124.339 14.9295 124.752 14.8415 125.181 14.8415C125.94 14.8415 126.572 15.0285 127.078 15.4025C127.584 15.7765 127.964 16.266 128.217 16.871C128.47 17.476 128.596 18.1195 128.596 18.8015C128.596 19.5165 128.475 20.138 128.233 20.666C128.002 21.194 127.689 21.6285 127.293 21.9695C126.897 22.3105 126.462 22.5635 125.989 22.7285C125.516 22.8935 125.038 22.976 124.554 22.976C124.18 22.976 123.872 22.943 123.63 22.877C123.388 22.811 123.168 22.745 122.97 22.679V26.0285H120.61ZM122.97 18.62V20.6825C123.289 20.8915 123.745 20.996 124.339 20.996C124.922 20.996 125.379 20.798 125.709 20.402C126.05 20.006 126.22 19.489 126.22 18.851C126.22 18.51 126.165 18.191 126.055 17.894C125.956 17.586 125.786 17.3385 125.544 17.1515C125.313 16.9645 124.999 16.871 124.603 16.871C124.075 16.871 123.668 17.0525 123.382 17.4155C123.107 17.7785 122.97 18.18 122.97 18.62ZM130.004 22.7285V11.723H132.38V22.7285H130.004ZM134.096 19.7915V14.99H136.472V19.445C136.472 19.885 136.577 20.2315 136.786 20.4845C137.006 20.7375 137.325 20.864 137.743 20.864C138.227 20.864 138.601 20.6935 138.865 20.3525C139.129 20.0005 139.261 19.6045 139.261 19.1645V14.99H141.62V22.7285H139.343L139.277 21.9035C139.024 22.2005 138.689 22.448 138.271 22.646C137.864 22.833 137.435 22.9265 136.984 22.9265C136.104 22.9265 135.4 22.6625 134.872 22.1345C134.355 21.6065 134.096 20.8255 134.096 19.7915ZM142.999 21.854L144.17 20.336C144.423 20.567 144.753 20.7595 145.16 20.9135C145.578 21.0675 145.98 21.1445 146.365 21.1445C146.717 21.1445 147.008 21.1005 147.239 21.0125C147.47 20.9135 147.586 20.743 147.586 20.501C147.586 20.358 147.536 20.2425 147.437 20.1545C147.349 20.0555 147.173 19.9565 146.909 19.8575C146.656 19.7585 146.282 19.643 145.787 19.511C145.391 19.401 145.006 19.2525 144.632 19.0655C144.269 18.8785 143.967 18.631 143.725 18.323C143.494 18.004 143.378 17.608 143.378 17.135C143.378 16.651 143.521 16.233 143.807 15.881C144.093 15.518 144.484 15.2375 144.979 15.0395C145.474 14.8305 146.029 14.726 146.645 14.726C147.305 14.726 147.883 14.803 148.378 14.957C148.884 15.1 149.34 15.3145 149.747 15.6005L148.741 17.168C148.499 17.003 148.213 16.8545 147.883 16.7225C147.553 16.5905 147.184 16.5245 146.777 16.5245C146.414 16.5245 146.15 16.5795 145.985 16.6895C145.82 16.7885 145.738 16.926 145.738 17.102C145.738 17.355 145.908 17.542 146.249 17.663C146.601 17.784 147.063 17.9215 147.635 18.0755C148.416 18.2845 148.988 18.587 149.351 18.983C149.714 19.368 149.896 19.8795 149.896 20.5175C149.896 21.0785 149.731 21.546 149.401 21.92C149.071 22.283 148.642 22.5525 148.114 22.7285C147.597 22.9045 147.047 22.9925 146.464 22.9925C145.771 22.9925 145.116 22.899 144.5 22.712C143.884 22.514 143.384 22.228 142.999 21.854Z" fill="#002855"/>
<path d="M157.3 11.7285L162.8 17.2285L157.3 22.7285" stroke="#002855" stroke-width="2.3" stroke-linecap="round"/>
</svg>
