<?xml version="1.0" encoding="utf-8"?>
<!-- Generator: Adobe Illustrator 27.7.0, SVG Export Plug-In . SVG Version: 6.00 Build 0)  -->
<svg version="1.1" id="Layer_1" xmlns="http://www.w3.org/2000/svg" xmlns:xlink="http://www.w3.org/1999/xlink" x="0px" y="0px"
	 viewBox="0 0 241 144" style="enable-background:new 0 0 241 144;" xml:space="preserve">
<style type="text/css">
	.st0{fill:#FFFFFF;}
</style>
<path class="st0" d="M76.2,4.6c0-2,1.7-3.7,3.7-3.7c2,0,3.7,1.7,3.7,3.7h-3.7H76.2z M83.6,139.5v3.7h-7.4v-3.7h3.7H83.6z M79.9,4.6
	h3.7l0,134.9h-3.7h-3.7V4.6H79.9z"/>
<path class="st0" d="M0.3,48.8c0-2,1.7-3.7,3.7-3.7s3.7,1.7,3.7,3.7H4H0.3z M7.7,139.5v3.7H0.3v-3.7H4H7.7z M4,48.8h3.7v90.8H4H0.3
	l0-90.8H4z"/>
</svg>
