<?xml version="1.0" encoding="utf-8"?>
<!-- Generator: Adobe Illustrator 27.7.0, SVG Export Plug-In . SVG Version: 6.00 Build 0)  -->
<svg version="1.1" id="Layer_1" xmlns="http://www.w3.org/2000/svg" xmlns:xlink="http://www.w3.org/1999/xlink" x="0px" y="0px"
	 viewBox="0 0 241 144" style="enable-background:new 0 0 241 144;" xml:space="preserve">
<style type="text/css">
	.st0{fill:#FFFFFF;}
</style>
<path class="st0" d="M157,4.6c0-2,1.7-3.7,3.7-3.7c2,0,3.7,1.7,3.7,3.7h-3.7H157z M164.4,139.5v3.7H157v-3.7h3.7H164.4z M160.7,4.6
	h3.7v134.9h-3.7H157V4.6H160.7z"/>
<path class="st0" d="M232.8,48.8c0-2,1.7-3.7,3.7-3.7c2,0,3.7,1.7,3.7,3.7h-3.7H232.8z M240.2,139.5v3.7h-7.4v-3.7h3.7H240.2z
	 M236.5,48.8h3.7v90.8h-3.7h-3.7V48.8H236.5z"/>
</svg>
