<?xml version="1.0" encoding="UTF-8"?>
<svg id="Layer_1" data-name="Layer 1" xmlns="http://www.w3.org/2000/svg" width="450" height="375" version="1.1" viewBox="0 0 450 375">
  <defs>
    <style>
      .cls-1 {
        fill: #000;
      }

      .cls-1, .cls-2 {
        stroke-width: 0px;
      }

      .cls-2 {
        fill: #e3e9ec;
      }
    </style>
  </defs>
  <rect class="cls-2" y=".5" width="450" height="375"/>
  <path class="cls-1" d="M25.5,18.9v1.9h-4.1v10.7h-2v-10.7h-4.1v-1.9h10.2ZM29.7,22.7c2.4,0,4.1,1.8,4.1,4.5,0,.2,0,.5,0,.7h-6.4c.3,1.5,1.3,2.2,2.6,2.2s1.8-.3,2.5-.9l.9,1.3c-1.1.9-2.2,1.2-3.5,1.2-2.6,0-4.4-1.8-4.4-4.5s1.8-4.5,4.3-4.5ZM29.6,24.3c-1.3,0-2.1.9-2.3,2.1h4.5c-.2-1.3-1-2.1-2.2-2.1ZM40.4,22.7c.6,0,1,0,1.4.2l-.5,1.9c-.4-.2-1-.3-1.4-.3-1.2,0-2.1.8-2.1,2.3v4.7h-1.9v-8.6h1.9v1c.6-.8,1.4-1.2,2.5-1.2ZM54.4,22.7c2.1,0,3.5,1.4,3.5,3.4v5.4h-1.9v-4.8c0-1.4-.7-2.3-2-2.3s-2.2.8-2.2,2.3v4.8h-1.9v-4.8c0-1.4-.7-2.3-2-2.3s-2.2.8-2.2,2.3v4.8h-1.9v-8.6h1.9v1.1c.7-1,1.8-1.3,2.6-1.3,1.3,0,2.4.6,3,1.5.7-1.2,2.1-1.5,3.2-1.5ZM67.5,23.6l-.8,1.5c-.5-.3-1.6-.7-2.7-.7s-1.6.4-1.6,1,.6.8,1.4.9h.9c1.9.4,3,1.2,3,2.7s-1.4,2.8-3.9,2.8-2.4-.2-3.7-1.1l.9-1.4c.6.5,1.4.9,2.8.9s2-.4,2-1.1-.5-.8-1.5-1h-.9c-1.9-.4-2.9-1.3-2.9-2.6s1.4-2.8,3.6-2.8,2.6.3,3.5.9ZM86.1,31.5h-2.7l-1.6-1.5c-.9,1-2.1,1.7-3.8,1.7s-3.8-1.2-3.8-3.3,1.1-2.6,2.2-3.5c-1.2-1.1-1.7-2-1.7-3.2s1.4-3,3.5-3,3.5,1.2,3.5,3-1.1,2.4-2.4,3.3l2.3,2.2,1.7-2.7,1.5,1-1.6,2.5c-.1.2-.2.4-.3.5l3.1,3ZM78.1,30c1,0,1.7-.4,2.4-1.2l-2.8-2.6c-.8.7-1.5,1.4-1.5,2.2s.8,1.6,1.9,1.6ZM76.8,21.8c0,.6.3,1,1.3,1.9.9-.7,1.7-1.3,1.7-2s-.5-1.3-1.5-1.3-1.4.5-1.4,1.3ZM98.8,18.7c2.2,0,4.2,1,5.2,2.6l-1.7,1.1c-.8-1.1-2-1.8-3.5-1.8-2.6,0-4.5,1.9-4.5,4.6s1.9,4.6,4.5,4.6,2.7-.7,3.5-1.8l1.7,1.2c-1.1,1.6-3,2.5-5.2,2.5-3.9,0-6.6-2.8-6.6-6.5s2.7-6.5,6.6-6.5ZM110.3,22.7c2.7,0,4.6,2,4.6,4.5s-2,4.5-4.6,4.5-4.6-2-4.6-4.5,2-4.5,4.6-4.5ZM110.3,24.4c-1.5,0-2.7,1.1-2.7,2.8s1.2,2.8,2.7,2.8,2.7-1.1,2.7-2.8-1.2-2.8-2.7-2.8ZM121.8,22.7c2.1,0,3.5,1.4,3.5,3.4v5.4h-1.9v-4.8c0-1.4-.7-2.3-2-2.3s-2.2.8-2.2,2.3v4.8h-1.9v-8.6h1.9v1.1c.7-1,1.8-1.3,2.6-1.3ZM131.9,22.7c1.2,0,2.1.5,2.7,1.3v-5.4h1.9v13h-1.9v-1c-.6.8-1.5,1.3-2.7,1.3-2.4,0-4.3-1.9-4.3-4.5s1.9-4.5,4.3-4.5ZM132.1,24.4c-1.6,0-2.6,1.3-2.6,2.8s1,2.8,2.6,2.8,2.6-1.2,2.6-2.8-1-2.8-2.6-2.8ZM141.3,22.9v8.6h-1.9v-8.6h1.9ZM140.3,18.6c.7,0,1.3.6,1.3,1.3s-.6,1.3-1.3,1.3-1.3-.6-1.3-1.3.6-1.3,1.3-1.3ZM150.1,22.9v1.7h-3.3v3.8c0,1.2.6,1.6,1.4,1.6s1.2-.3,1.7-.6l.7,1.5c-.7.5-1.6.9-2.6.9-2,0-3.1-1.1-3.1-3.3v-3.8h-1.7v-1.7h1.7v-2.6h1.9v2.6h3.3ZM154.3,22.9v8.6h-1.9v-8.6h1.9ZM153.3,18.6c.7,0,1.3.6,1.3,1.3s-.6,1.3-1.3,1.3-1.3-.6-1.3-1.3.6-1.3,1.3-1.3ZM161.3,22.7c2.7,0,4.6,2,4.6,4.5s-2,4.5-4.6,4.5-4.6-2-4.6-4.5,2-4.5,4.6-4.5ZM161.3,24.4c-1.5,0-2.7,1.1-2.7,2.8s1.2,2.8,2.7,2.8,2.7-1.1,2.7-2.8-1.2-2.8-2.7-2.8ZM172.7,22.7c2.1,0,3.5,1.4,3.5,3.4v5.4h-1.9v-4.8c0-1.4-.7-2.3-2-2.3s-2.2.8-2.2,2.3v4.8h-1.9v-8.6h1.9v1.1c.7-1,1.8-1.3,2.6-1.3ZM185.8,23.6l-.8,1.5c-.5-.3-1.6-.7-2.7-.7s-1.6.4-1.6,1,.6.8,1.4.9h.9c1.9.4,3,1.2,3,2.7s-1.4,2.8-3.9,2.8-2.4-.2-3.7-1.1l.9-1.4c.6.5,1.4.9,2.8.9s2-.4,2-1.1-.5-.8-1.5-1h-.9c-1.9-.4-2.9-1.3-2.9-2.6s1.4-2.8,3.6-2.8,2.6.3,3.5.9Z"/>
  <path class="cls-1" d="M21.6,69.6h-2.9v4.9h-2v-12.6h4.9c2.9,0,4.5,1.5,4.5,3.8s-1.6,3.8-4.5,3.8ZM21.5,63.8h-2.8v3.8h2.8c1.6,0,2.4-.6,2.4-1.9s-.8-1.9-2.4-1.9ZM30.3,61.5v13h-1.9v-13h1.9ZM41.5,65.9v8.6h-1.9v-1c-.6.8-1.5,1.3-2.7,1.3-2.4,0-4.3-1.9-4.3-4.5s1.9-4.5,4.3-4.5,2.1.5,2.7,1.3v-1h1.9ZM37.1,67.4c-1.6,0-2.6,1.3-2.6,2.8s1,2.8,2.6,2.8,2.6-1.2,2.6-2.8-1-2.8-2.6-2.8ZM49,65.7c2.1,0,3.5,1.4,3.5,3.4v5.4h-1.9v-4.8c0-1.4-.7-2.3-2-2.3s-2.2.8-2.2,2.3v4.8h-1.9v-8.6h1.9v1.1c.7-1,1.8-1.3,2.6-1.3ZM65.6,65.9v1.7h-3v6.9h-1.9v-6.9h-1.7v-1.7h1.7v-1.5c0-1.7.9-3.1,2.9-3.1s1.8.3,2.4.6l-.7,1.6c-.4-.3-1-.5-1.6-.5s-1.1.5-1.1,1.3v1.5h3ZM71.1,65.7c2.4,0,4.1,1.8,4.1,4.5,0,.2,0,.5,0,.7h-6.4c.3,1.5,1.3,2.2,2.6,2.2s1.8-.3,2.5-.9l.9,1.3c-1.1.9-2.2,1.2-3.5,1.2-2.6,0-4.4-1.8-4.4-4.5s1.8-4.5,4.3-4.5ZM71.1,67.3c-1.3,0-2.1.9-2.3,2.1h4.5c-.2-1.3-1-2.1-2.2-2.1ZM81.2,65.7c2.4,0,4.1,1.8,4.1,4.5,0,.2,0,.5,0,.7h-6.4c.3,1.5,1.3,2.2,2.6,2.2s1.8-.3,2.5-.9l.9,1.3c-1.1.9-2.2,1.2-3.5,1.2-2.6,0-4.4-1.8-4.4-4.5s1.8-4.5,4.3-4.5ZM81.1,67.3c-1.3,0-2.1.9-2.3,2.1h4.5c-.2-1.3-1-2.1-2.2-2.1ZM94.3,65.9v8.6h-1.9v-8.6h1.9ZM93.4,61.6c.7,0,1.3.6,1.3,1.3s-.6,1.3-1.3,1.3-1.3-.6-1.3-1.3.6-1.3,1.3-1.3ZM101.8,65.7c2.1,0,3.5,1.4,3.5,3.4v5.4h-1.9v-4.8c0-1.4-.7-2.3-2-2.3s-2.2.8-2.2,2.3v4.8h-1.9v-8.6h1.9v1.1c.7-1,1.8-1.3,2.6-1.3ZM112.1,65.7c1.3,0,2.5.5,3.2,1.4l-1.2,1.3c-.6-.6-1.2-.9-2.1-.9-1.4,0-2.5,1.1-2.5,2.8s1.1,2.8,2.5,2.8,1.6-.4,2.1-.9l1.2,1.3c-.8.9-1.9,1.4-3.2,1.4-2.7,0-4.5-2-4.5-4.5s1.8-4.5,4.5-4.5ZM121.8,65.7c.6,0,1,0,1.4.2l-.5,1.9c-.4-.2-1-.3-1.4-.3-1.2,0-2.1.8-2.1,2.3v4.7h-1.9v-8.6h1.9v1c.6-.8,1.4-1.2,2.5-1.2ZM128.4,65.7c2.4,0,4.1,1.8,4.1,4.5,0,.2,0,.5,0,.7h-6.4c.3,1.5,1.3,2.2,2.6,2.2s1.8-.3,2.5-.9l.9,1.3c-1.1.9-2.2,1.2-3.5,1.2-2.6,0-4.4-1.8-4.4-4.5s1.8-4.5,4.3-4.5ZM128.4,67.3c-1.3,0-2.1.9-2.3,2.1h4.5c-.2-1.3-1-2.1-2.2-2.1ZM143.1,65.9v8.6h-1.9v-1c-.6.8-1.5,1.3-2.7,1.3-2.4,0-4.3-1.9-4.3-4.5s1.9-4.5,4.3-4.5,2.1.5,2.7,1.3v-1h1.9ZM138.8,67.4c-1.6,0-2.6,1.3-2.6,2.8s1,2.8,2.6,2.8,2.6-1.2,2.6-2.8-1-2.8-2.6-2.8ZM152.8,66.6l-.8,1.5c-.5-.3-1.6-.7-2.7-.7s-1.6.4-1.6,1,.6.8,1.4.9h.9c1.9.4,3,1.2,3,2.7s-1.4,2.8-3.9,2.8-2.4-.2-3.7-1.1l.9-1.4c.6.5,1.4.9,2.8.9s2-.4,2-1.1-.5-.8-1.5-1h-.9c-1.9-.4-2.9-1.3-2.9-2.6s1.4-2.8,3.6-2.8,2.6.3,3.5.9ZM158.9,65.7c2.4,0,4.1,1.8,4.1,4.5,0,.2,0,.5,0,.7h-6.4c.3,1.5,1.3,2.2,2.6,2.2s1.8-.3,2.5-.9l.9,1.3c-1.1.9-2.2,1.2-3.5,1.2-2.6,0-4.4-1.8-4.4-4.5s1.8-4.5,4.3-4.5ZM158.8,67.3c-1.3,0-2.1.9-2.3,2.1h4.5c-.2-1.3-1-2.1-2.2-2.1ZM171.9,66.6l-.8,1.5c-.5-.3-1.6-.7-2.7-.7s-1.6.4-1.6,1,.6.8,1.4.9h.9c1.9.4,3,1.2,3,2.7s-1.4,2.8-3.9,2.8-2.4-.2-3.7-1.1l.9-1.4c.6.5,1.4.9,2.8.9s2-.4,2-1.1-.5-.8-1.5-1h-.9c-1.9-.4-2.9-1.3-2.9-2.6s1.4-2.8,3.6-2.8,2.6.3,3.5.9ZM184.7,65.9v1.7h-3v6.9h-1.9v-6.9h-1.7v-1.7h1.7v-1.5c0-1.7.9-3.1,2.9-3.1s1.8.3,2.4.6l-.7,1.6c-.4-.3-1-.5-1.6-.5s-1.1.5-1.1,1.3v1.5h3ZM190.9,65.7c.6,0,1,0,1.4.2l-.4,1.9c-.4-.2-1-.3-1.4-.3-1.2,0-2.1.8-2.1,2.3v4.7h-1.9v-8.6h1.9v1c.6-.8,1.4-1.2,2.5-1.2ZM197.9,65.7c2.7,0,4.6,2,4.6,4.5s-2,4.5-4.6,4.5-4.6-2-4.6-4.5,2-4.5,4.6-4.5ZM197.9,67.4c-1.5,0-2.7,1.1-2.7,2.8s1.2,2.8,2.7,2.8,2.7-1.1,2.7-2.8-1.2-2.8-2.7-2.8ZM215.6,65.7c2.1,0,3.5,1.4,3.5,3.4v5.4h-1.9v-4.8c0-1.4-.7-2.3-2-2.3s-2.2.8-2.2,2.3v4.8h-1.9v-4.8c0-1.4-.7-2.3-2-2.3s-2.2.8-2.2,2.3v4.8h-1.9v-8.6h1.9v1.1c.7-1,1.8-1.3,2.6-1.3,1.3,0,2.4.6,3,1.5.7-1.2,2.1-1.5,3.2-1.5ZM237.4,65.7c2.1,0,3.5,1.4,3.5,3.4v5.4h-1.9v-4.8c0-1.4-.7-2.3-2-2.3s-2.2.8-2.2,2.3v4.8h-1.9v-4.8c0-1.4-.7-2.3-2-2.3s-2.2.8-2.2,2.3v4.8h-1.9v-8.6h1.9v1.1c.7-1,1.8-1.3,2.6-1.3,1.3,0,2.4.6,3,1.5.7-1.2,2.1-1.5,3.1-1.5ZM247.8,65.7c2.7,0,4.6,2,4.6,4.5s-2,4.5-4.6,4.5-4.6-2-4.6-4.5,2-4.5,4.6-4.5ZM247.8,67.4c-1.5,0-2.7,1.1-2.7,2.8s1.2,2.8,2.7,2.8,2.7-1.1,2.7-2.8-1.2-2.8-2.7-2.8ZM259.3,65.7c2.1,0,3.5,1.4,3.5,3.4v5.4h-1.9v-4.8c0-1.4-.7-2.3-2-2.3s-2.2.8-2.2,2.3v4.8h-1.9v-8.6h1.9v1.1c.7-1,1.8-1.3,2.6-1.3ZM271.5,65.9v1.7h-3.3v3.8c0,1.2.6,1.6,1.4,1.6s1.2-.3,1.7-.6l.7,1.5c-.7.5-1.6.9-2.6.9-2,0-3.1-1.1-3.1-3.3v-3.8h-1.7v-1.7h1.7v-2.6h1.9v2.6h3.3ZM275.6,61.5v5.4c.7-1,1.8-1.3,2.6-1.3,2.1,0,3.5,1.4,3.5,3.4v5.4h-1.9v-4.8c0-1.4-.7-2.3-2-2.3s-2.2.8-2.2,2.3v4.8h-1.9v-13h1.9ZM293.7,61.7v12.8h-2v-10l-3.2,1.4v-2l5.2-2.2ZM300.2,61.7c2.6,0,4.3,1.4,4.3,3.6s-.8,2.3-1.9,2.9c1.3.5,2.2,1.5,2.2,2.9,0,2.5-2.2,3.6-4.5,3.6s-3.4-.7-4.3-1.8l1.3-1.3c.7.8,1.9,1.3,3,1.3s2.5-.6,2.5-1.9-1.2-1.9-2.7-1.9h-1.5v-1.8h1.5c1.4,0,2.5-.6,2.5-1.9s-1.1-1.9-2.4-1.9-2.1.7-2.5,1.4l-1.4-1.2c.7-1.1,2.1-2,4.1-2ZM317.8,65.9v1.7h-3.3v3.8c0,1.2.6,1.6,1.4,1.6s1.2-.3,1.7-.6l.7,1.5c-.7.5-1.6.9-2.6.9-2,0-3.1-1.1-3.1-3.3v-3.8h-1.7v-1.7h1.7v-2.6h1.9v2.6h3.3ZM324.2,65.7c2.7,0,4.6,2,4.6,4.5s-2,4.5-4.6,4.5-4.6-2-4.6-4.5,2-4.5,4.6-4.5ZM324.2,67.4c-1.5,0-2.7,1.1-2.7,2.8s1.2,2.8,2.7,2.8,2.7-1.1,2.7-2.8-1.2-2.8-2.7-2.8ZM340.1,60.4h1.7v1.7c1.5.1,2.7.6,3.8,1.3l-1,1.6c-.8-.5-1.8-.9-2.8-1v3.5c2,.3,3.9,1.2,3.9,3.3,0,2.1-1.7,3.3-3.9,3.6v1.8h-1.7v-1.8c-1.5-.1-3.2-.7-4.2-1.6l1.1-1.6c.7.6,1.9,1.1,3.2,1.3v-3.4h-.2c-1.9-.3-3.7-1.2-3.7-3.4,0-2,1.7-3.3,3.8-3.6v-1.7ZM343.7,70.8c0-.8-.7-1.2-1.9-1.5v3.1c1.1-.2,1.9-.8,1.9-1.7ZM338.2,65.6c0,.8.6,1.2,1.9,1.5v-3.2c-1.1.2-1.8.8-1.9,1.7ZM354.9,61.9l-3.2,4.6c.2,0,.5-.1,1-.1,2.3,0,4.2,1.8,4.2,4.2s-2,4.2-4.6,4.2-4.6-1.8-4.6-4.2.4-2.1,1.1-3.2l3.6-5.5h2.4ZM352.3,68.2c-1.4,0-2.6,1-2.6,2.4s1.1,2.4,2.6,2.4,2.6-1,2.6-2.4-1.1-2.4-2.6-2.4ZM366.5,61.9v1.8h-5.3v3c0,0,1.6,0,1.6,0,3,0,4.3,1.8,4.3,3.8s-2.1,4.2-4.4,4.2-3.3-.7-4.4-2l1.3-1.3c.7.9,2,1.4,3.1,1.4,1.6,0,2.4-1,2.4-2.1s-.6-2.1-2.9-2.1h-2.9v-6.7h7.2ZM377.6,60.6l-7.6,15.7h-2.1l7.6-15.7h2.1ZM388.2,65.7c2.1,0,3.5,1.4,3.5,3.4v5.4h-1.9v-4.8c0-1.4-.7-2.3-2-2.3s-2.2.8-2.2,2.3v4.8h-1.9v-4.8c0-1.4-.7-2.3-2-2.3s-2.2.8-2.2,2.3v4.8h-1.9v-8.6h1.9v1.1c.7-1,1.8-1.3,2.6-1.3,1.3,0,2.4.6,3,1.5.7-1.2,2.1-1.5,3.2-1.5ZM398.6,65.7c2.7,0,4.6,2,4.6,4.5s-2,4.5-4.6,4.5-4.6-2-4.6-4.5,2-4.5,4.6-4.5ZM398.6,67.4c-1.5,0-2.7,1.1-2.7,2.8s1.2,2.8,2.7,2.8,2.7-1.1,2.7-2.8-1.2-2.8-2.7-2.8ZM410.1,65.7c2.1,0,3.5,1.4,3.5,3.4v5.4h-1.9v-4.8c0-1.4-.7-2.3-2-2.3s-2.2.8-2.2,2.3v4.8h-1.9v-8.6h1.9v1.1c.7-1,1.8-1.3,2.6-1.3ZM422.3,65.9v1.7h-3.3v3.8c0,1.2.6,1.6,1.4,1.6s1.2-.3,1.7-.6l.7,1.5c-.7.5-1.6.9-2.6.9-2,0-3.1-1.1-3.1-3.3v-3.8h-1.7v-1.7h1.7v-2.6h1.9v2.6h3.3ZM426.4,61.5v5.4c.7-1,1.8-1.3,2.6-1.3,2.1,0,3.5,1.4,3.5,3.4v5.4h-1.9v-4.8c0-1.4-.7-2.3-2-2.3s-2.2.8-2.2,2.3v4.8h-1.9v-13h1.9ZM20.5,86.7c2.7,0,4.6,2,4.6,4.5s-2,4.5-4.6,4.5-4.6-2-4.6-4.5,2-4.5,4.6-4.5ZM20.5,88.4c-1.5,0-2.7,1.1-2.7,2.8s1.2,2.8,2.7,2.8,2.7-1.1,2.7-2.8-1.2-2.8-2.7-2.8ZM31.8,86.7c.6,0,1,0,1.4.2l-.4,1.9c-.4-.2-1-.3-1.4-.3-1.2,0-2.1.8-2.1,2.3v4.7h-1.9v-8.6h1.9v1c.6-.8,1.4-1.2,2.5-1.2ZM48.2,86.9v8.6h-1.9v-1c-.6.8-1.5,1.3-2.7,1.3-2.4,0-4.3-1.9-4.3-4.5s1.9-4.5,4.3-4.5,2.1.5,2.7,1.3v-1h1.9ZM43.8,88.4c-1.6,0-2.6,1.3-2.6,2.8s1,2.8,2.6,2.8,2.6-1.2,2.6-2.8-1-2.8-2.6-2.8ZM57.8,87.6l-.8,1.5c-.5-.3-1.6-.7-2.7-.7s-1.6.4-1.6,1,.6.8,1.4.9h.9c1.9.4,3,1.2,3,2.7s-1.4,2.8-3.9,2.8-2.4-.2-3.7-1.1l.9-1.4c.6.5,1.4.9,2.8.9s2-.4,2-1.1-.5-.8-1.5-1h-.9c-1.9-.4-2.9-1.3-2.9-2.6s1.4-2.8,3.6-2.8,2.6.3,3.5.9ZM69.1,86.7c2.7,0,4.6,2,4.6,4.5s-2,4.5-4.6,4.5-4.6-2-4.6-4.5,2-4.5,4.6-4.5ZM69.1,88.4c-1.5,0-2.7,1.1-2.7,2.8s1.2,2.8,2.7,2.8,2.7-1.1,2.7-2.8-1.2-2.8-2.7-2.8ZM81.8,86.9v1.7h-3.3v3.8c0,1.2.6,1.6,1.4,1.6s1.2-.3,1.7-.6l.7,1.5c-.7.5-1.6.9-2.6.9-2,0-3.1-1.1-3.1-3.3v-3.8h-1.7v-1.7h1.7v-2.6h1.9v2.6h3.3ZM86,82.5v5.4c.7-1,1.8-1.3,2.6-1.3,2.1,0,3.5,1.4,3.5,3.4v5.4h-1.9v-4.8c0-1.4-.7-2.3-2-2.3s-2.2.8-2.2,2.3v4.8h-1.9v-13h1.9ZM98.7,86.7c2.4,0,4.1,1.8,4.1,4.5,0,.2,0,.5,0,.7h-6.4c.3,1.5,1.3,2.2,2.6,2.2s1.8-.3,2.5-.9l.9,1.3c-1.1.9-2.2,1.2-3.5,1.2-2.6,0-4.4-1.8-4.4-4.5s1.8-4.5,4.3-4.5ZM98.7,88.3c-1.3,0-2.1.9-2.3,2.1h4.5c-.2-1.3-1-2.1-2.2-2.1ZM109.5,86.7c.6,0,1,0,1.4.2l-.5,1.9c-.4-.2-1-.3-1.4-.3-1.2,0-2.1.8-2.1,2.3v4.7h-1.9v-8.6h1.9v1c.6-.8,1.4-1.2,2.5-1.2ZM120.2,86.9l2.2,6.6,2-6.6h2l-2.9,8.6h-2.2l-2.1-6.5-2.1,6.5h-2.2l-2.9-8.6h2l2,6.6,2.1-6.6h2.1ZM130,86.9v8.6h-1.9v-8.6h1.9ZM129.1,82.6c.7,0,1.3.6,1.3,1.3s-.6,1.3-1.3,1.3-1.3-.6-1.3-1.3.6-1.3,1.3-1.3ZM139.7,87.6l-.8,1.5c-.5-.3-1.6-.7-2.7-.7s-1.6.4-1.6,1,.6.8,1.4.9h.9c1.9.4,3,1.2,3,2.7s-1.4,2.8-3.9,2.8-2.4-.2-3.7-1.1l.9-1.4c.6.5,1.4.9,2.8.9s2-.4,2-1.1-.5-.8-1.5-1h-.9c-1.9-.4-2.9-1.3-2.9-2.6s1.4-2.8,3.6-2.8,2.6.3,3.5.9ZM145.8,86.7c2.4,0,4.1,1.8,4.1,4.5,0,.2,0,.5,0,.7h-6.4c.3,1.5,1.3,2.2,2.6,2.2s1.8-.3,2.5-.9l.9,1.3c-1.1.9-2.2,1.2-3.5,1.2-2.6,0-4.4-1.8-4.4-4.5s1.8-4.5,4.3-4.5ZM145.7,88.3c-1.3,0-2.1.9-2.3,2.1h4.5c-.2-1.3-1-2.1-2.2-2.1ZM161.5,86.7c2.1,0,3.5,1.4,3.5,3.4v5.4h-1.9v-4.8c0-1.4-.7-2.3-2-2.3s-2.2.8-2.2,2.3v4.8h-1.9v-8.6h1.9v1.1c.7-1,1.8-1.3,2.6-1.3ZM171.9,86.7c2.7,0,4.6,2,4.6,4.5s-2,4.5-4.6,4.5-4.6-2-4.6-4.5,2-4.5,4.6-4.5ZM171.9,88.4c-1.5,0-2.7,1.1-2.7,2.8s1.2,2.8,2.7,2.8,2.7-1.1,2.7-2.8-1.2-2.8-2.7-2.8ZM184.7,86.9v1.7h-3.3v3.8c0,1.2.6,1.6,1.4,1.6s1.2-.3,1.7-.6l.7,1.5c-.7.5-1.6.9-2.6.9-2,0-3.1-1.1-3.1-3.3v-3.8h-1.7v-1.7h1.7v-2.6h1.9v2.6h3.3ZM188.9,86.9v8.6h-1.9v-8.6h1.9ZM187.9,82.6c.7,0,1.3.6,1.3,1.3s-.6,1.3-1.3,1.3-1.3-.6-1.3-1.3.6-1.3,1.3-1.3ZM197.3,86.9v1.7h-3v6.9h-1.9v-6.9h-1.7v-1.7h1.7v-1.5c0-1.7.9-3.1,2.9-3.1s1.8.3,2.4.6l-.7,1.6c-.4-.3-1-.5-1.6-.5s-1.1.5-1.1,1.3v1.5h3ZM201.3,86.9v8.6h-1.9v-8.6h1.9ZM200.3,82.6c.7,0,1.3.6,1.3,1.3s-.6,1.3-1.3,1.3-1.3-.6-1.3-1.3.6-1.3,1.3-1.3ZM207.9,86.7c2.4,0,4.1,1.8,4.1,4.5,0,.2,0,.5,0,.7h-6.4c.3,1.5,1.3,2.2,2.6,2.2s1.8-.3,2.5-.9l.9,1.3c-1.1.9-2.2,1.2-3.5,1.2-2.6,0-4.4-1.8-4.4-4.5s1.8-4.5,4.3-4.5ZM207.9,88.3c-1.3,0-2.1.9-2.3,2.1h4.5c-.2-1.3-1-2.1-2.2-2.1ZM218,86.7c1.2,0,2.1.5,2.7,1.3v-5.4h1.9v13h-1.9v-1c-.6.8-1.5,1.3-2.7,1.3-2.4,0-4.3-1.9-4.3-4.5s1.9-4.5,4.3-4.5ZM218.2,88.4c-1.6,0-2.6,1.3-2.6,2.8s1,2.8,2.6,2.8,2.6-1.2,2.6-2.8-1-2.8-2.6-2.8ZM226.4,92.6c.8,0,1.6.7,1.6,1.6s-.7,1.6-1.6,1.6-1.6-.7-1.6-1.6.7-1.6,1.6-1.6ZM246.3,82.9v12.6h-1.8l-7-9.1v9.1h-2v-12.6h1.8l7,9.1v-9.1h2ZM253.1,86.7c2.4,0,4.1,1.8,4.1,4.5,0,.2,0,.5,0,.7h-6.4c.3,1.5,1.3,2.2,2.6,2.2s1.8-.3,2.5-.9l.9,1.3c-1.1.9-2.2,1.2-3.5,1.2-2.6,0-4.4-1.8-4.4-4.5s1.8-4.5,4.3-4.5ZM253.1,88.3c-1.3,0-2.1.9-2.3,2.1h4.5c-.2-1.3-1-2.1-2.2-2.1ZM266.7,86.9l2.2,6.6,2-6.6h2l-2.9,8.6h-2.2l-2.1-6.5-2.1,6.5h-2.2l-2.9-8.6h2l2,6.6,2.1-6.6h2.1ZM286.1,87.6l-.8,1.5c-.5-.3-1.6-.7-2.7-.7s-1.6.4-1.6,1,.6.8,1.4.9h.9c1.9.4,3,1.2,3,2.7s-1.4,2.8-3.9,2.8-2.4-.2-3.7-1.1l.9-1.4c.6.5,1.4.9,2.8.9s2-.4,2-1.1-.5-.8-1.5-1h-.9c-1.9-.4-2.9-1.3-2.9-2.6s1.4-2.8,3.6-2.8,2.6.3,3.5.9ZM292.2,86.7c2.4,0,4.1,1.8,4.1,4.5,0,.2,0,.5,0,.7h-6.4c.3,1.5,1.3,2.2,2.6,2.2s1.8-.3,2.5-.9l.9,1.3c-1.1.9-2.2,1.2-3.5,1.2-2.6,0-4.4-1.8-4.4-4.5s1.8-4.5,4.3-4.5ZM292.1,88.3c-1.3,0-2.1.9-2.3,2.1h4.5c-.2-1.3-1-2.1-2.2-2.1ZM302.9,86.7c.6,0,1,0,1.4.2l-.5,1.9c-.4-.2-1-.3-1.4-.3-1.2,0-2.1.8-2.1,2.3v4.7h-1.9v-8.6h1.9v1c.6-.8,1.4-1.2,2.5-1.2ZM314.5,86.9l-3.4,8.6h-2.2l-3.5-8.6h2.1l2.5,6.7,2.5-6.7h2ZM318.1,86.9v8.6h-1.9v-8.6h1.9ZM317.1,82.6c.7,0,1.3.6,1.3,1.3s-.6,1.3-1.3,1.3-1.3-.6-1.3-1.3.6-1.3,1.3-1.3ZM325,86.7c1.3,0,2.5.5,3.2,1.4l-1.2,1.3c-.6-.6-1.2-.9-2.1-.9-1.4,0-2.5,1.1-2.5,2.8s1.1,2.8,2.5,2.8,1.6-.4,2.1-.9l1.2,1.3c-.8.9-1.9,1.4-3.2,1.4-2.7,0-4.5-2-4.5-4.5s1.8-4.5,4.5-4.5ZM333.8,86.7c2.4,0,4.1,1.8,4.1,4.5,0,.2,0,.5,0,.7h-6.4c.3,1.5,1.3,2.2,2.6,2.2s1.8-.3,2.5-.9l.9,1.3c-1.1.9-2.2,1.2-3.5,1.2-2.6,0-4.4-1.8-4.4-4.5s1.8-4.5,4.3-4.5ZM333.7,88.3c-1.3,0-2.1.9-2.3,2.1h4.5c-.2-1.3-1-2.1-2.2-2.1ZM346.9,87.6l-.8,1.5c-.5-.3-1.6-.7-2.7-.7s-1.6.4-1.6,1,.6.8,1.4.9h.9c1.9.4,3,1.2,3,2.7s-1.4,2.8-3.9,2.8-2.4-.2-3.7-1.1l.9-1.4c.6.5,1.4.9,2.8.9s2-.4,2-1.1-.5-.8-1.5-1h-.9c-1.9-.4-2.9-1.3-2.9-2.6s1.4-2.8,3.6-2.8,2.6.3,3.5.9ZM358.1,86.7c2.7,0,4.6,2,4.6,4.5s-2,4.5-4.6,4.5-4.6-2-4.6-4.5,2-4.5,4.6-4.5ZM358.1,88.4c-1.5,0-2.7,1.1-2.7,2.8s1.2,2.8,2.7,2.8,2.7-1.1,2.7-2.8-1.2-2.8-2.7-2.8ZM369.6,86.7c2.1,0,3.5,1.4,3.5,3.4v5.4h-1.9v-4.8c0-1.4-.7-2.3-2-2.3s-2.2.8-2.2,2.3v4.8h-1.9v-8.6h1.9v1.1c.7-1,1.8-1.3,2.6-1.3ZM377.9,82.5v13h-1.9v-13h1.9ZM389.1,86.9l-6.8,12.3h-2.1l3.1-5.4-3.8-6.8h2.1l2.8,5,2.7-5h2.1ZM390.4,92.6c.8,0,1.6.7,1.6,1.6s-.7,1.6-1.6,1.6-1.6-.7-1.6-1.6.7-1.6,1.6-1.6ZM22.6,103.7c3.9,0,6.6,2.8,6.6,6.5s-2.7,6.5-6.6,6.5-6.6-2.8-6.6-6.5,2.7-6.5,6.6-6.5ZM22.6,105.6c-2.6,0-4.5,1.9-4.5,4.6s1.9,4.6,4.5,4.6,4.5-1.9,4.5-4.6-1.9-4.6-4.5-4.6ZM37.3,107.9v1.7h-3v6.9h-1.9v-6.9h-1.7v-1.7h1.7v-1.5c0-1.7.9-3.1,2.9-3.1s1.8.3,2.4.6l-.7,1.6c-.4-.3-1-.5-1.6-.5s-1.1.5-1.1,1.3v1.5h3ZM44.7,107.9v1.7h-3v6.9h-1.9v-6.9h-1.7v-1.7h1.7v-1.5c0-1.7.9-3.1,2.9-3.1s1.8.3,2.4.6l-.7,1.6c-.4-.3-1-.5-1.6-.5s-1.1.5-1.1,1.3v1.5h3ZM50.1,107.7c2.4,0,4.1,1.8,4.1,4.5,0,.2,0,.5,0,.7h-6.4c.3,1.5,1.3,2.2,2.6,2.2s1.8-.3,2.5-.9l.9,1.3c-1.1.9-2.2,1.2-3.5,1.2-2.6,0-4.4-1.8-4.4-4.5s1.8-4.5,4.3-4.5ZM50.1,109.3c-1.3,0-2.1.9-2.3,2.1h4.5c-.2-1.3-1-2.1-2.2-2.1ZM60.9,107.7c.6,0,1,0,1.4.2l-.4,1.9c-.4-.2-1-.3-1.4-.3-1.2,0-2.1.8-2.1,2.3v4.7h-1.9v-8.6h1.9v1c.6-.8,1.4-1.2,2.5-1.2ZM74.4,107.9v1.7h-3v6.9h-1.9v-6.9h-1.7v-1.7h1.7v-1.5c0-1.7.9-3.1,2.9-3.1s1.8.3,2.4.6l-.7,1.6c-.4-.3-1-.5-1.6-.5s-1.1.5-1.1,1.3v1.5h3ZM80.2,107.7c2.7,0,4.6,2,4.6,4.5s-2,4.5-4.6,4.5-4.6-2-4.6-4.5,2-4.5,4.6-4.5ZM80.2,109.4c-1.5,0-2.7,1.1-2.7,2.8s1.2,2.8,2.7,2.8,2.7-1.1,2.7-2.8-1.2-2.8-2.7-2.8ZM91.5,107.7c.6,0,1,0,1.4.2l-.4,1.9c-.4-.2-1-.3-1.4-.3-1.2,0-2.1.8-2.1,2.3v4.7h-1.9v-8.6h1.9v1c.6-.8,1.4-1.2,2.5-1.2ZM100.6,107.9v1.7h-3v6.9h-1.9v-6.9h-1.7v-1.7h1.7v-1.5c0-1.7.9-3.1,2.9-3.1s1.8.3,2.4.6l-.7,1.6c-.4-.3-1-.5-1.6-.5s-1.1.5-1.1,1.3v1.5h3ZM106.1,107.7c2.4,0,4.1,1.8,4.1,4.5,0,.2,0,.5,0,.7h-6.4c.3,1.5,1.3,2.2,2.6,2.2s1.8-.3,2.5-.9l.9,1.3c-1.1.9-2.2,1.2-3.5,1.2-2.6,0-4.4-1.8-4.4-4.5s1.8-4.5,4.3-4.5ZM106.1,109.3c-1.3,0-2.1.9-2.3,2.1h4.5c-.2-1.3-1-2.1-2.2-2.1ZM114.4,107.9v8.6h-1.9v-8.6h1.9ZM113.4,103.6c.7,0,1.3.6,1.3,1.3s-.6,1.3-1.3,1.3-1.3-.6-1.3-1.3.6-1.3,1.3-1.3ZM123.2,107.9v1.7h-3.3v3.8c0,1.2.6,1.6,1.4,1.6s1.2-.3,1.7-.6l.7,1.5c-.7.5-1.6.9-2.6.9-2,0-3.1-1.1-3.1-3.3v-3.8h-1.7v-1.7h1.7v-2.6h1.9v2.6h3.3ZM129.2,107.7c2.4,0,4.1,1.8,4.1,4.5,0,.2,0,.5,0,.7h-6.4c.3,1.5,1.3,2.2,2.6,2.2s1.8-.3,2.5-.9l.9,1.3c-1.1.9-2.2,1.2-3.5,1.2-2.6,0-4.4-1.8-4.4-4.5s1.8-4.5,4.3-4.5ZM129.1,109.3c-1.3,0-2.1.9-2.3,2.1h4.5c-.2-1.3-1-2.1-2.2-2.1ZM139.3,107.7c1.2,0,2.1.5,2.7,1.3v-5.4h1.9v13h-1.9v-1c-.6.8-1.5,1.3-2.7,1.3-2.4,0-4.3-1.9-4.3-4.5s1.9-4.5,4.3-4.5ZM139.5,109.4c-1.6,0-2.6,1.3-2.6,2.8s1,2.8,2.6,2.8,2.6-1.2,2.6-2.8-1-2.8-2.6-2.8ZM153.5,107.9v8.6h-1.9v-8.6h1.9ZM152.6,103.6c.7,0,1.3.6,1.3,1.3s-.6,1.3-1.3,1.3-1.3-.6-1.3-1.3.6-1.3,1.3-1.3ZM162,107.9v1.7h-3v6.9h-1.9v-6.9h-1.7v-1.7h1.7v-1.5c0-1.7.9-3.1,2.9-3.1s1.8.3,2.4.6l-.7,1.6c-.4-.3-1-.5-1.6-.5s-1.1.5-1.1,1.3v1.5h3ZM176.9,107.9l-6.8,12.3h-2.1l3.1-5.4-3.8-6.8h2.1l2.8,5,2.7-5h2.1ZM182.3,107.7c2.7,0,4.6,2,4.6,4.5s-2,4.5-4.6,4.5-4.6-2-4.6-4.5,2-4.5,4.6-4.5ZM182.3,109.4c-1.5,0-2.7,1.1-2.7,2.8s1.2,2.8,2.7,2.8,2.7-1.1,2.7-2.8-1.2-2.8-2.7-2.8ZM197.2,107.9v5c0,2.7-2,3.9-4,3.9s-4-1.1-4-3.9v-5h1.9v4.8c0,1.7.9,2.3,2.1,2.3s2.1-.6,2.1-2.3v-4.8h1.9ZM208.8,107.7c1.3,0,2.5.5,3.2,1.4l-1.2,1.3c-.6-.6-1.2-.9-2.1-.9-1.4,0-2.5,1.1-2.5,2.8s1.1,2.8,2.5,2.8,1.6-.4,2.1-.9l1.2,1.3c-.8.9-1.9,1.4-3.2,1.4-2.7,0-4.5-2-4.5-4.5s1.8-4.5,4.5-4.5ZM222.2,107.9v8.6h-1.9v-1c-.6.8-1.5,1.3-2.7,1.3-2.4,0-4.3-1.9-4.3-4.5s1.9-4.5,4.3-4.5,2.1.5,2.7,1.3v-1h1.9ZM217.9,109.4c-1.6,0-2.6,1.3-2.6,2.8s1,2.8,2.6,2.8,2.6-1.2,2.6-2.8-1-2.8-2.6-2.8ZM229.7,107.7c2.1,0,3.5,1.4,3.5,3.4v5.4h-1.9v-4.8c0-1.4-.7-2.3-2-2.3s-2.2.8-2.2,2.3v4.8h-1.9v-8.6h1.9v1.1c.7-1,1.8-1.3,2.6-1.3ZM240,107.7c1.3,0,2.5.5,3.2,1.4l-1.2,1.3c-.6-.6-1.2-.9-2.1-.9-1.4,0-2.5,1.1-2.5,2.8s1.1,2.8,2.5,2.8,1.6-.4,2.1-.9l1.2,1.3c-.8.9-1.9,1.4-3.2,1.4-2.7,0-4.5-2-4.5-4.5s1.8-4.5,4.5-4.5ZM248.8,107.7c2.4,0,4.1,1.8,4.1,4.5,0,.2,0,.5,0,.7h-6.4c.3,1.5,1.3,2.2,2.6,2.2s1.8-.3,2.5-.9l.9,1.3c-1.1.9-2.2,1.2-3.5,1.2-2.6,0-4.4-1.8-4.4-4.5s1.8-4.5,4.3-4.5ZM248.8,109.3c-1.3,0-2.1.9-2.3,2.1h4.5c-.2-1.3-1-2.1-2.2-2.1ZM257.1,103.5v13h-1.9v-13h1.9ZM268.9,107.7c2.7,0,4.6,2,4.6,4.5s-2,4.5-4.6,4.5-4.6-2-4.6-4.5,2-4.5,4.6-4.5ZM268.9,109.4c-1.5,0-2.7,1.1-2.7,2.8s1.2,2.8,2.7,2.8,2.7-1.1,2.7-2.8-1.2-2.8-2.7-2.8ZM280.2,107.7c.6,0,1,0,1.4.2l-.5,1.9c-.4-.2-1-.3-1.4-.3-1.2,0-2.1.8-2.1,2.3v4.7h-1.9v-8.6h1.9v1c.6-.8,1.4-1.2,2.5-1.2ZM292.2,107.7c1.3,0,2.5.5,3.2,1.4l-1.2,1.3c-.6-.6-1.2-.9-2.1-.9-1.4,0-2.5,1.1-2.5,2.8s1.1,2.8,2.5,2.8,1.6-.4,2.1-.9l1.2,1.3c-.8.9-1.9,1.4-3.2,1.4-2.7,0-4.5-2-4.5-4.5s1.8-4.5,4.5-4.5ZM299.4,103.5v5.4c.7-1,1.8-1.3,2.6-1.3,2.1,0,3.5,1.4,3.5,3.4v5.4h-1.9v-4.8c0-1.4-.7-2.3-2-2.3s-2.2.8-2.2,2.3v4.8h-1.9v-13h1.9ZM316.7,107.9v8.6h-1.9v-1c-.6.8-1.5,1.3-2.7,1.3-2.4,0-4.3-1.9-4.3-4.5s1.9-4.5,4.3-4.5,2.1.5,2.7,1.3v-1h1.9ZM312.3,109.4c-1.6,0-2.6,1.3-2.6,2.8s1,2.8,2.6,2.8,2.6-1.2,2.6-2.8-1-2.8-2.6-2.8ZM324.2,107.7c2.1,0,3.5,1.4,3.5,3.4v5.4h-1.9v-4.8c0-1.4-.7-2.3-2-2.3s-2.2.8-2.2,2.3v4.8h-1.9v-8.6h1.9v1.1c.7-1,1.8-1.3,2.6-1.3ZM333.9,107.7c1.3,0,2.2.4,2.9,1.3v-1h1.9v8c0,2.7-1.7,4.4-4.6,4.4s-2.7-.4-3.6-1l.7-1.6c.9.5,1.9.9,2.9.9,1.8,0,2.7-1,2.7-2.6v-.7c-.6.8-1.6,1.3-2.9,1.3-2,0-4-1.7-4-4.4s2-4.4,4-4.4ZM334.4,109.4c-1.6,0-2.5,1.2-2.5,2.7s1,2.7,2.5,2.7,2.5-1.2,2.5-2.7-1-2.7-2.5-2.7ZM345.3,107.7c2.4,0,4.1,1.8,4.1,4.5,0,.2,0,.5,0,.7h-6.4c.3,1.5,1.3,2.2,2.6,2.2s1.8-.3,2.5-.9l.9,1.3c-1.1.9-2.2,1.2-3.5,1.2-2.6,0-4.4-1.8-4.4-4.5s1.8-4.5,4.3-4.5ZM345.3,109.3c-1.3,0-2.1.9-2.3,2.1h4.5c-.2-1.3-1-2.1-2.2-2.1ZM361.1,107.7c2.4,0,4.3,1.9,4.3,4.5s-1.9,4.5-4.3,4.5-2.1-.5-2.7-1.3v4.6h-1.9v-12.2h1.9v1c.6-.8,1.5-1.3,2.7-1.3ZM360.9,109.4c-1.6,0-2.6,1.2-2.6,2.8s1,2.8,2.6,2.8,2.6-1.3,2.6-2.8-1-2.8-2.6-2.8ZM369.6,103.5v13h-1.9v-13h1.9ZM380.9,107.9v8.6h-1.9v-1c-.6.8-1.5,1.3-2.7,1.3-2.4,0-4.3-1.9-4.3-4.5s1.9-4.5,4.3-4.5,2.1.5,2.7,1.3v-1h1.9ZM376.5,109.4c-1.6,0-2.6,1.3-2.6,2.8s1,2.8,2.6,2.8,2.6-1.2,2.6-2.8-1-2.8-2.6-2.8ZM388.3,107.7c2.1,0,3.5,1.4,3.5,3.4v5.4h-1.9v-4.8c0-1.4-.7-2.3-2-2.3s-2.2.8-2.2,2.3v4.8h-1.9v-8.6h1.9v1.1c.7-1,1.8-1.3,2.6-1.3ZM401.4,108.6l-.8,1.5c-.5-.3-1.6-.7-2.7-.7s-1.6.4-1.6,1,.6.8,1.4.9h.9c1.9.4,3,1.2,3,2.7s-1.4,2.8-3.9,2.8-2.4-.2-3.7-1.1l.9-1.4c.6.5,1.4.9,2.8.9s2-.4,2-1.1-.5-.8-1.5-1h-.9c-1.9-.4-2.9-1.3-2.9-2.6s1.4-2.8,3.6-2.8,2.6.3,3.5.9ZM404.7,113.6c.8,0,1.6.7,1.6,1.6s-.7,1.6-1.6,1.6-1.6-.7-1.6-1.6.7-1.6,1.6-1.6Z"/>
  <path class="cls-1" d="M428.5,23l6.5,6.5-1,1-6.5-6.5-6.5,6.5-1-.9,6.5-6.5-6.5-6.6,1-1,6.5,6.5,6.5-6.5,1,1-6.5,6.5Z"/>
</svg>