<?xml version="1.0" encoding="utf-8"?>
<!-- Generator: Adobe Illustrator 27.7.0, SVG Export Plug-In . SVG Version: 6.00 Build 0)  -->
<svg version="1.1" id="Layer_1" xmlns="http://www.w3.org/2000/svg" xmlns:xlink="http://www.w3.org/1999/xlink" x="0px" y="0px"
	 viewBox="0 0 78 42" style="enable-background:new 0 0 78 42;" xml:space="preserve">
<path d="M0.8,19.5v-5.1H2v0.8c0.2-0.5,0.8-0.9,1.6-0.9c0.7,0,1.2,0.3,1.5,0.9c0.4-0.6,1.1-0.9,1.7-0.9c0.9,0,1.7,0.6,1.7,2v3.2H7.2
	v-3.2c0-0.8-0.3-1.1-0.9-1.1c-0.6,0-1.1,0.4-1.1,1.2v3.1H4v-3.2c0-0.8-0.3-1.1-0.9-1.1c-0.6,0-1.1,0.4-1.1,1.2v3.1H0.8z M11.8,19.6
	c-1.5,0-2.6-1-2.6-2.6v-0.1c0-1.6,1.1-2.6,2.5-2.6c1.3,0,2.4,0.8,2.4,2.6v0.3h-3.8c0,1,0.5,1.5,1.4,1.5c0.7,0,1.1-0.3,1.2-0.8h1.1
	C14,19,13.1,19.6,11.8,19.6z M10.5,16.4H13c-0.1-0.9-0.5-1.3-1.2-1.3C11.1,15.1,10.6,15.6,10.5,16.4z M15.1,19.5V12h1.2v7.5H15.1z
	 M17.5,19.5V12h1.2v3.2c0.2-0.5,0.8-0.9,1.7-0.9c1,0,1.8,0.6,1.8,2v3.2h-1.2v-3.1c0-0.8-0.3-1.1-1-1.1c-0.7,0-1.2,0.4-1.2,1.2v3
	H17.5z M25.6,18.7c0.9,0,1.4-0.7,1.4-1.7v-0.1c0-1.1-0.5-1.7-1.4-1.7c-0.9,0-1.4,0.6-1.4,1.7V17C24.2,18,24.7,18.7,25.6,18.7z
	 M25.6,19.6c-1.5,0-2.6-1-2.6-2.6v-0.1c0-1.6,1.1-2.6,2.6-2.6c1.5,0,2.6,1,2.6,2.6v0.1C28.2,18.5,27.1,19.6,25.6,19.6z M29.1,19.5
	v-5.1h1.2v1c0.3-0.6,0.8-1,1.7-1v1.1c-1,0-1.7,0.3-1.7,1.4v2.7H29.1z M36.6,13.6l0.6-1.5h1.3l-1,1.5H36.6z M37.2,19.6
	c-1.5,0-2.6-1-2.6-2.6v-0.1c0-1.6,1.1-2.6,2.5-2.6c1.3,0,2.4,0.8,2.4,2.6v0.3h-3.8c0,1,0.5,1.5,1.4,1.5c0.7,0,1.1-0.3,1.2-0.8h1.1
	C39.4,19,38.5,19.6,37.2,19.6z M35.8,16.4h2.6c-0.1-0.9-0.5-1.3-1.2-1.3C36.4,15.1,36,15.6,35.8,16.4z"/>
</svg>
