<?xml version="1.0" encoding="utf-8"?>
<!-- Generator: Adobe Illustrator 27.7.0, SVG Export Plug-In . SVG Version: 6.00 Build 0)  -->
<svg version="1.1" id="Layer_1" xmlns="http://www.w3.org/2000/svg" xmlns:xlink="http://www.w3.org/1999/xlink" x="0px" y="0px"
	 viewBox="0 0 139.6 35.1" style="enable-background:new 0 0 139.6 35.1;" xml:space="preserve">
<style type="text/css">
	.st0{fill:#FFD000;}
</style>
<path class="st0" d="M0,13.3l2.4-2.8c0.4,0.4,0.9,0.8,1.6,1.1c0.7,0.3,1.4,0.5,2.2,0.5c0.4,0,0.8-0.1,1.1-0.2
	c0.4-0.2,0.5-0.5,0.5-0.9c0-0.4-0.2-0.7-0.6-0.9c-0.4-0.3-1-0.5-1.7-0.7L4.7,8.9C4.1,8.7,3.5,8.5,2.9,8.1C2.3,7.8,1.8,7.3,1.5,6.8
	c-0.4-0.5-0.6-1.2-0.6-2c0-0.9,0.2-1.7,0.6-2.4C2,1.6,2.6,1,3.5,0.6C4.3,0.2,5.3,0,6.6,0c1,0,1.8,0.1,2.5,0.3
	c0.7,0.2,1.3,0.5,1.8,0.8c0.5,0.3,0.8,0.6,1,0.8l-2,2.5C9.4,4,8.9,3.7,8.3,3.5C7.7,3.2,7.2,3.1,6.6,3.1c-0.4,0-0.7,0.1-1.1,0.3
	C5.1,3.5,5,3.8,5,4.2c0,0.5,0.2,0.8,0.6,1C6,5.4,6.5,5.6,7.2,5.8L7.9,6c0.5,0.1,1,0.3,1.5,0.6c0.5,0.2,1,0.5,1.4,0.9s0.8,0.8,1,1.3
	c0.3,0.5,0.4,1.2,0.4,2c0,0.9-0.3,1.7-0.8,2.4c-0.5,0.7-1.2,1.3-2.2,1.6c-0.9,0.4-1.9,0.6-3,0.6c-1.5,0-2.7-0.2-3.7-0.6
	C1.5,14.4,0.7,13.9,0,13.3z M13.9,9.3v-9h3.9V9c0,0.8,0.2,1.5,0.5,2c0.4,0.5,1,0.8,1.9,0.8c0.9,0,1.5-0.3,1.8-0.8
	c0.4-0.5,0.5-1.2,0.5-2V0.4h3.9v9c0,1.2-0.3,2.3-0.8,3.3c-0.5,0.9-1.3,1.6-2.2,2.1c-0.9,0.5-2,0.7-3.3,0.7s-2.3-0.2-3.3-0.7
	c-1-0.5-1.7-1.2-2.2-2.1C14.1,11.7,13.9,10.6,13.9,9.3z M28.9,15.1V0.4h6c1.6,0,2.8,0.4,3.8,1.3c1,0.8,1.4,2,1.4,3.6
	c0,1-0.2,1.9-0.7,2.6c-0.4,0.7-1,1.3-1.8,1.7c-0.8,0.4-1.6,0.6-2.6,0.6h-2.3v4.9H28.9z M32.7,7.1h1.8c0.5,0,0.9-0.2,1.3-0.5
	c0.3-0.3,0.5-0.8,0.5-1.3c0-0.6-0.1-1-0.4-1.3c-0.3-0.3-0.7-0.5-1.3-0.5h-1.8V7.1z M41.8,15.1V0.4h10.6v3.4h-6.7V6h5.5v3.2h-5.5v2.5
	h7.1v3.4H41.8z M54.6,15.1V0.4h6.1c1.6,0,2.8,0.4,3.8,1.2c1,0.8,1.4,2,1.4,3.6c0,1-0.2,1.8-0.6,2.5c-0.4,0.7-1,1.3-1.7,1.7l3.1,5.6
	h-4.2l-2.5-5h-1.6v5H54.6z M58.4,7h1.9c0.5,0,0.9-0.2,1.3-0.5C61.9,6.2,62,5.8,62,5.3c0-0.6-0.2-1-0.5-1.3c-0.3-0.3-0.7-0.5-1.3-0.5
	h-1.9V7z M70.7,13.3l2.4-2.8c0.4,0.4,0.9,0.8,1.6,1.1c0.7,0.3,1.4,0.5,2.2,0.5c0.4,0,0.8-0.1,1.1-0.2s0.6-0.5,0.6-0.9
	c0-0.4-0.2-0.7-0.6-0.9c-0.4-0.3-1-0.5-1.7-0.7l-0.8-0.3c-0.6-0.2-1.2-0.5-1.8-0.8c-0.6-0.4-1.1-0.8-1.5-1.3c-0.4-0.5-0.6-1.2-0.6-2
	c0-0.9,0.2-1.7,0.6-2.4c0.4-0.7,1.1-1.3,1.9-1.7C75,0.2,76.1,0,77.3,0c1,0,1.8,0.1,2.5,0.3c0.7,0.2,1.3,0.5,1.8,0.8
	c0.5,0.3,0.8,0.6,1,0.8l-2,2.5c-0.5-0.4-1-0.7-1.6-0.9c-0.6-0.2-1.1-0.4-1.7-0.4c-0.4,0-0.7,0.1-1.1,0.3c-0.3,0.2-0.5,0.4-0.5,0.9
	c0,0.5,0.2,0.8,0.6,1s0.9,0.4,1.6,0.6L78.6,6c0.5,0.1,1,0.3,1.5,0.6c0.5,0.2,1,0.5,1.4,0.9s0.8,0.8,1,1.3c0.3,0.5,0.4,1.2,0.4,2
	c0,0.9-0.3,1.7-0.8,2.4c-0.5,0.7-1.2,1.3-2.2,1.6c-0.9,0.4-1.9,0.6-3,0.6c-1.5,0-2.7-0.2-3.7-0.6C72.2,14.4,71.4,13.9,70.7,13.3z
	 M83.1,15.1l5.4-14.7H93l5.2,14.7H94L93,12h-4.9l-1,3H83.1z M88.9,9.2h3.3l-1.6-5.4L88.9,9.2z M101,15.1L95.7,0.4h4.2l3.3,10.2
	l3.1-10.2h4.2l-5.3,14.7H101z M115.8,15.1l-5.3-14.7h4.2l3.3,10.2l3.1-10.2h4.2l-5.3,14.7H115.8z M130.5,15.1V9.2l-5.2-8.8h4.5
	l2.9,5.2l2.7-5.2h4.3l-5.2,8.8v5.9H130.5z M1.2,35.1V20.4h10.6v3.4H5.1V26h5.5v3.2H5.1v2.5h7.1v3.4H1.2z M12.8,35.1l5.4-14.7h4.5
	l5.2,14.7h-4.2l-0.9-3h-4.9l-1,3H12.8z M18.6,29.2h3.3l-1.6-5.4L18.6,29.2z M29,35.1V20.4h6.1c1.6,0,2.8,0.4,3.8,1.2
	c1,0.8,1.4,2,1.4,3.6c0,1-0.2,1.8-0.6,2.5c-0.4,0.7-1,1.3-1.7,1.7l3.1,5.6H37l-2.5-5h-1.6v5H29z M32.8,27h1.9c0.5,0,0.9-0.2,1.3-0.5
	c0.3-0.3,0.5-0.7,0.5-1.3c0-0.6-0.2-1-0.5-1.3s-0.7-0.5-1.3-0.5h-1.9V27z M42.6,35.1V20.4h3.9v11.2h6.8v3.4H42.6z M55.7,35.1v-5.9
	l-5.2-8.8h4.5l2.9,5.2l2.7-5.2h4.3l-5.2,8.8v5.9H55.7z"/>
</svg>
