<?xml version="1.0" encoding="utf-8"?>
<!-- Generator: Adobe Illustrator 27.7.0, SVG Export Plug-In . SVG Version: 6.00 Build 0)  -->
<svg version="1.1" id="Layer_1" xmlns="http://www.w3.org/2000/svg" xmlns:xlink="http://www.w3.org/1999/xlink" x="0px" y="0px"
	 viewBox="0 0 110.1 55" style="enable-background:new 0 0 110.1 55;" xml:space="preserve">
<style type="text/css">
	.st0{fill:#FFD000;}
</style>
<path class="st0" d="M3.6,14.7L0,0h4.1L6,9.8l2.3-9.5h3.5l2.3,9.5L16.1,0h4l-3.7,14.7h-4.1L10,5.4l-2.3,9.3H3.6z M21.4,14.7V0h3.9
	v14.7H21.4z M31.3,14.7V3.4h-4.5V0h12.9v3.4h-4.5v11.3H31.3z M41.2,14.7V0h3.9v5.4h5.4V0h3.9v14.7h-3.9V8.9h-5.4v5.7H41.2z
	 M1.1,34.7V20H5v5.4h5.4V20h3.9v14.7h-3.9v-5.7H5v5.7H1.1z M23.8,35c-1.1,0-2.1-0.2-3.1-0.6c-0.9-0.4-1.7-0.9-2.4-1.6
	c-0.7-0.7-1.2-1.5-1.6-2.5s-0.6-2-0.6-3.1s0.2-2.1,0.6-3.1c0.4-0.9,0.9-1.8,1.6-2.4c0.7-0.7,1.5-1.2,2.4-1.6c0.9-0.4,2-0.6,3.1-0.6
	s2.1,0.2,3,0.6c0.9,0.4,1.8,0.9,2.4,1.6c0.7,0.7,1.2,1.5,1.6,2.4c0.4,0.9,0.6,2,0.6,3.1s-0.2,2.1-0.6,3.1c-0.4,0.9-0.9,1.8-1.6,2.5
	c-0.7,0.7-1.5,1.2-2.4,1.6C25.9,34.8,24.9,35,23.8,35z M23.8,31.4c0.8,0,1.4-0.2,2-0.5c0.5-0.4,1-0.9,1.2-1.5c0.3-0.6,0.4-1.3,0.4-2
	c0-0.7-0.1-1.4-0.4-2s-0.7-1.1-1.2-1.5c-0.5-0.4-1.2-0.6-2-0.6c-0.8,0-1.4,0.2-2,0.6c-0.5,0.4-0.9,0.9-1.2,1.5
	c-0.3,0.6-0.4,1.3-0.4,2c0,0.7,0.1,1.4,0.4,2c0.3,0.6,0.7,1.1,1.2,1.5C22.4,31.2,23,31.4,23.8,31.4z M31.8,32.9l2.4-2.8
	c0.4,0.4,0.9,0.8,1.6,1.1c0.7,0.3,1.4,0.5,2.2,0.5c0.4,0,0.8-0.1,1.1-0.2c0.4-0.2,0.6-0.5,0.6-0.9c0-0.4-0.2-0.7-0.6-0.9
	c-0.4-0.3-1-0.5-1.7-0.7l-0.8-0.3c-0.6-0.2-1.2-0.5-1.8-0.8c-0.6-0.4-1.1-0.8-1.5-1.3c-0.4-0.5-0.6-1.2-0.6-2c0-0.9,0.2-1.7,0.6-2.4
	c0.4-0.7,1.1-1.3,1.9-1.7c0.9-0.4,1.9-0.6,3.1-0.6c1,0,1.8,0.1,2.5,0.3c0.7,0.2,1.3,0.5,1.8,0.8c0.5,0.3,0.8,0.6,1,0.8l-2,2.5
	c-0.5-0.4-1-0.7-1.6-0.9c-0.6-0.2-1.1-0.4-1.7-0.4c-0.4,0-0.7,0.1-1.1,0.3c-0.3,0.2-0.5,0.4-0.5,0.9c0,0.5,0.2,0.8,0.6,1
	c0.4,0.2,0.9,0.4,1.6,0.6l0.7,0.2c0.5,0.1,1,0.3,1.5,0.6c0.5,0.2,1,0.5,1.4,0.9c0.4,0.4,0.8,0.8,1,1.3c0.3,0.5,0.4,1.2,0.4,2
	c0,0.9-0.3,1.7-0.8,2.4c-0.5,0.7-1.2,1.3-2.2,1.7c-0.9,0.4-1.9,0.6-3,0.6c-1.5,0-2.7-0.2-3.7-0.6C33.4,34,32.5,33.5,31.8,32.9z
	 M49.4,34.7V23.4h-4.5V20h12.9v3.4h-4.5v11.3H49.4z M59.4,34.7V20h6c1.6,0,2.8,0.4,3.8,1.3c1,0.8,1.4,2,1.4,3.6c0,1-0.2,1.9-0.7,2.6
	c-0.4,0.7-1,1.3-1.8,1.7c-0.8,0.4-1.6,0.6-2.6,0.6h-2.3v4.9H59.4z M63.2,26.7H65c0.5,0,0.9-0.2,1.3-0.5c0.3-0.3,0.5-0.8,0.5-1.3
	c0-0.6-0.1-1-0.4-1.3c-0.3-0.3-0.7-0.5-1.3-0.5h-1.8V26.7z M72.3,34.7V20h3.9v11.2H83v3.4H72.3z M84.2,29v-9h3.9v8.6
	c0,0.8,0.2,1.5,0.6,2c0.4,0.5,1,0.8,1.9,0.8c0.9,0,1.5-0.3,1.8-0.8c0.4-0.5,0.6-1.2,0.6-2V20h3.9v9c0,1.2-0.3,2.3-0.8,3.3
	c-0.5,0.9-1.3,1.6-2.2,2.1c-0.9,0.5-2,0.7-3.3,0.7c-1.2,0-2.3-0.2-3.3-0.7c-1-0.5-1.7-1.2-2.2-2.1C84.5,31.3,84.2,30.2,84.2,29z
	 M98,32.9l2.4-2.8c0.4,0.4,0.9,0.8,1.6,1.1c0.7,0.3,1.4,0.5,2.2,0.5c0.4,0,0.8-0.1,1.1-0.2c0.4-0.2,0.6-0.5,0.6-0.9
	c0-0.4-0.2-0.7-0.6-0.9c-0.4-0.3-1-0.5-1.7-0.7l-0.8-0.3c-0.6-0.2-1.2-0.5-1.8-0.8c-0.6-0.4-1.1-0.8-1.5-1.3c-0.4-0.5-0.6-1.2-0.6-2
	c0-0.9,0.2-1.7,0.6-2.4c0.4-0.7,1.1-1.3,1.9-1.7c0.9-0.4,1.9-0.6,3.1-0.6c1,0,1.8,0.1,2.5,0.3c0.7,0.2,1.3,0.5,1.8,0.8
	s0.8,0.6,1,0.8l-2,2.5c-0.5-0.4-1-0.7-1.6-0.9c-0.6-0.2-1.1-0.4-1.7-0.4c-0.4,0-0.7,0.1-1.1,0.3c-0.3,0.2-0.5,0.4-0.5,0.9
	c0,0.5,0.2,0.8,0.6,1c0.4,0.2,0.9,0.4,1.6,0.6l0.7,0.2c0.5,0.1,1,0.3,1.5,0.6c0.5,0.2,1,0.5,1.4,0.9c0.4,0.4,0.8,0.8,1,1.3
	c0.3,0.5,0.4,1.2,0.4,2c0,0.9-0.3,1.7-0.8,2.4c-0.5,0.7-1.2,1.3-2.2,1.7c-0.9,0.4-1.9,0.6-3,0.6c-1.5,0-2.7-0.2-3.7-0.6
	C99.5,34,98.7,33.5,98,32.9z M4.7,54.7V43.4H0.2V40h12.9v3.4H8.7v11.3H4.7z M21.1,55c-1.1,0-2.1-0.2-3.1-0.6
	c-0.9-0.4-1.7-0.9-2.4-1.6c-0.7-0.7-1.2-1.5-1.6-2.5c-0.4-0.9-0.6-2-0.6-3.1s0.2-2.1,0.6-3.1c0.4-0.9,0.9-1.8,1.6-2.4
	c0.7-0.7,1.5-1.2,2.4-1.6c0.9-0.4,2-0.6,3.1-0.6s2.1,0.2,3,0.6c0.9,0.4,1.8,0.9,2.4,1.6c0.7,0.7,1.2,1.5,1.6,2.4
	c0.4,0.9,0.6,2,0.6,3.1s-0.2,2.1-0.6,3.1c-0.4,0.9-0.9,1.8-1.6,2.5c-0.7,0.7-1.5,1.2-2.4,1.6C23.2,54.8,22.2,55,21.1,55z M21.1,51.4
	c0.8,0,1.4-0.2,2-0.5c0.5-0.4,1-0.9,1.2-1.5c0.3-0.6,0.4-1.3,0.4-2c0-0.7-0.1-1.4-0.4-2c-0.3-0.6-0.7-1.1-1.2-1.5
	c-0.5-0.4-1.2-0.6-2-0.6c-0.8,0-1.4,0.2-2,0.6c-0.5,0.4-0.9,0.9-1.2,1.5c-0.3,0.6-0.4,1.3-0.4,2c0,0.7,0.1,1.4,0.4,2
	c0.3,0.6,0.7,1.1,1.2,1.5C19.7,51.2,20.3,51.4,21.1,51.4z M30.5,54.7V40h5.6c1.5,0,2.9,0.3,4,0.8c1.2,0.5,2.1,1.3,2.8,2.4
	c0.7,1.1,1,2.5,1,4.2c0,1.6-0.3,3-1,4c-0.7,1.1-1.6,1.9-2.8,2.4c-1.2,0.5-2.5,0.8-4,0.8H30.5z M34.4,51.2H36c1.3,0,2.2-0.4,2.9-1.1
	c0.7-0.7,1.1-1.7,1.1-2.8c0-1.2-0.3-2.1-1-2.8c-0.6-0.7-1.7-1.1-3-1.1h-1.6V51.2z M43.8,54.7L49.2,40h4.5l5.2,14.7h-4.2l-0.9-3h-4.9
	l-1,3H43.8z M49.6,48.8h3.3l-1.6-5.4L49.6,48.8z M61.1,54.7v-5.9L55.9,40h4.5l2.9,5.2l2.7-5.2h4.3L65,48.8v5.9H61.1z"/>
</svg>
