<?xml version="1.0" encoding="utf-8"?>
<!-- Generator: Adobe Illustrator 27.7.0, SVG Export Plug-In . SVG Version: 6.00 Build 0)  -->
<svg version="1.1" id="Layer_1" xmlns="http://www.w3.org/2000/svg" xmlns:xlink="http://www.w3.org/1999/xlink" x="0px" y="0px"
	 viewBox="0 0 118 50" style="enable-background:new 0 0 118 50;" xml:space="preserve">
<style type="text/css">
	.st0{fill:#FFFFFF;}
	.st1{fill:#FFD000;}
</style>
<path class="st0" d="M6.7,23.2V6.4H0V1.4h19.2v5.1h-6.6v16.7H6.7z"/>
<path class="st0" d="M21.1,23.2V1.4h5.8v8h8v-8h5.8v21.8h-5.8v-8.5h-8v8.5H21.1z"/>
<path class="st0" d="M42.1,23.2l8-21.8h6.6l7.7,21.8h-6.2l-1.4-4.5h-7.3l-1.4,4.5H42.1z M50.7,14.4h4.9l-2.4-8L50.7,14.4z"/>
<path class="st0" d="M67.7,23.2V6.4H61V1.4h19.2v5.1h-6.6v16.7H67.7z"/>
<path class="st0" d="M81.5,9.5l0.8-8.1h5.7l-2.5,8.1H81.5z"/>
<path class="st0" d="M86.7,20.5l3.5-4.2c0.6,0.6,1.4,1.2,2.4,1.7c1,0.5,2.1,0.8,3.2,0.8c0.6,0,1.2-0.1,1.7-0.4
	c0.5-0.2,0.8-0.7,0.8-1.4c0-0.6-0.3-1-0.9-1.4c-0.6-0.4-1.4-0.8-2.5-1.1l-1.2-0.4c-0.9-0.3-1.8-0.7-2.7-1.2c-0.9-0.5-1.6-1.2-2.2-2
	C88.3,10,88,9.1,88,7.9c0-1.3,0.3-2.6,0.9-3.6c0.7-1.1,1.6-1.9,2.9-2.5c1.3-0.6,2.8-0.9,4.6-0.9c1.4,0,2.7,0.2,3.7,0.5
	c1.1,0.3,1.9,0.7,2.6,1.1c0.7,0.4,1.2,0.8,1.5,1.2l-2.9,3.7c-0.8-0.6-1.6-1-2.4-1.4c-0.8-0.4-1.7-0.6-2.5-0.6
	c-0.6,0-1.1,0.1-1.6,0.4c-0.5,0.2-0.8,0.7-0.8,1.3c0,0.7,0.3,1.2,0.9,1.5c0.6,0.3,1.4,0.6,2.3,0.9l1,0.3c0.7,0.2,1.5,0.5,2.2,0.8
	c0.8,0.3,1.5,0.8,2.1,1.3c0.6,0.5,1.1,1.2,1.5,2c0.4,0.8,0.6,1.8,0.6,2.9c0,1.3-0.4,2.5-1.2,3.6c-0.8,1-1.8,1.9-3.2,2.4
	c-1.3,0.6-2.8,0.9-4.4,0.9c-2.2,0-4-0.3-5.5-0.9C89,22.2,87.7,21.4,86.7,20.5z"/>
<path class="st1" d="M0,48.3l8-21.8h6.6l7.7,21.8h-6.2l-1.4-4.5H7.4L6,48.3H0z M8.6,39.6h4.9l-2.4-8L8.6,39.6z"/>
<path class="st1" d="M30.7,48.3V26.5h8.9c2.3,0,4.2,0.6,5.6,1.9c1.4,1.2,2.1,3,2.1,5.4c0,1.5-0.3,2.8-1,3.9
	c-0.7,1.1-1.5,1.9-2.7,2.5c-1.1,0.6-2.4,0.9-3.9,0.9h-3.4v7.2H30.7z M36.3,36.5H39c0.8,0,1.4-0.3,1.9-0.8c0.5-0.5,0.7-1.1,0.7-1.9
	c0-0.8-0.2-1.5-0.7-2c-0.4-0.5-1.1-0.8-1.9-0.8h-2.7V36.5z"/>
<path class="st1" d="M49.2,48.3V26.5h5.8v16.7H65v5.1H49.2z"/>
<path class="st1" d="M66.5,39.8V26.5h5.8v12.8c0,1.2,0.3,2.2,0.8,2.9c0.6,0.8,1.5,1.1,2.8,1.1c1.3,0,2.2-0.4,2.7-1.1
	c0.5-0.8,0.8-1.8,0.8-2.9V26.5h5.8v13.3c0,1.8-0.4,3.5-1.2,4.8c-0.8,1.3-1.9,2.4-3.3,3.1c-1.4,0.7-3,1.1-4.8,1.1
	c-1.8,0-3.4-0.4-4.9-1.1c-1.4-0.7-2.5-1.8-3.3-3.1C66.9,43.3,66.5,41.7,66.5,39.8z"/>
<path class="st1" d="M87,45.6l3.5-4.2c0.6,0.6,1.4,1.2,2.4,1.7c1,0.5,2.1,0.8,3.2,0.8c0.6,0,1.2-0.1,1.7-0.4
	c0.5-0.2,0.8-0.7,0.8-1.4c0-0.6-0.3-1-0.9-1.4c-0.6-0.4-1.4-0.8-2.5-1.1L94,39.2c-0.9-0.3-1.8-0.7-2.7-1.2c-0.9-0.5-1.6-1.2-2.2-2
	c-0.6-0.8-0.8-1.8-0.8-3c0-1.3,0.3-2.6,0.9-3.6c0.7-1.1,1.6-1.9,2.9-2.5c1.3-0.6,2.8-0.9,4.6-0.9c1.4,0,2.7,0.2,3.7,0.5
	c1.1,0.3,1.9,0.7,2.6,1.1c0.7,0.4,1.2,0.8,1.5,1.2l-2.9,3.7c-0.8-0.6-1.6-1-2.4-1.4c-0.8-0.4-1.7-0.6-2.5-0.6
	c-0.6,0-1.1,0.1-1.6,0.4c-0.5,0.2-0.8,0.7-0.8,1.3c0,0.7,0.3,1.2,0.9,1.5c0.6,0.3,1.4,0.6,2.3,0.9l1,0.3c0.7,0.2,1.5,0.5,2.2,0.8
	c0.8,0.3,1.5,0.8,2.1,1.3c0.6,0.5,1.1,1.2,1.5,2c0.4,0.8,0.6,1.8,0.6,2.9c0,1.3-0.4,2.5-1.2,3.6c-0.8,1-1.8,1.9-3.2,2.4
	c-1.3,0.6-2.8,0.9-4.4,0.9c-2.2,0-4-0.3-5.5-0.9C89.2,47.4,88,46.6,87,45.6z"/>
<path class="st1" d="M110.4,48.2v-3.4h-3.3v-3.3h3.3v-3.4h3.4v3.4h3.3v3.3h-3.3v3.4H110.4z"/>
</svg>
