<?xml version="1.0" encoding="utf-8"?>
<!-- Generator: Adobe Illustrator 27.7.0, SVG Export Plug-In . SVG Version: 6.00 Build 0)  -->
<svg version="1.1" id="Layer_1" xmlns="http://www.w3.org/2000/svg" xmlns:xlink="http://www.w3.org/1999/xlink" x="0px" y="0px"
	 viewBox="0 0 74.6 35.4" style="enable-background:new 0 0 74.6 35.4;" xml:space="preserve">
<style type="text/css">
	.st0{fill:#FFFFFF;}
</style>
<path class="st0" d="M0.9,15.1V0.4h3.9v14.7H0.9z M10.8,15.1V3.8H6.3V0.4h12.9v3.4h-4.5v11.3H10.8z M24.5,15.1V0.4h6
	c1.6,0,2.8,0.4,3.8,1.3c1,0.8,1.4,2,1.4,3.6c0,1-0.2,1.9-0.7,2.6c-0.4,0.7-1,1.3-1.8,1.7c-0.8,0.4-1.6,0.6-2.6,0.6h-2.3v4.9H24.5z
	 M28.3,7.1h1.8c0.5,0,0.9-0.2,1.3-0.5s0.5-0.8,0.5-1.3c0-0.6-0.1-1-0.4-1.3c-0.3-0.3-0.7-0.5-1.3-0.5h-1.8V7.1z M34.2,15.1l5.4-14.7
	h4.5l5.2,14.7h-4.2l-0.9-3h-4.9l-1,3H34.2z M40,9.2h3.3l-1.6-5.4L40,9.2z M51.6,15.1V9.2l-5.2-8.8h4.5l2.9,5.2l2.7-5.2h4.3l-5.2,8.8
	v5.9H51.6z M59.9,13.3l2.4-2.8c0.4,0.4,0.9,0.8,1.6,1.1c0.7,0.3,1.4,0.5,2.2,0.5c0.4,0,0.8-0.1,1.1-0.2c0.4-0.2,0.5-0.5,0.5-0.9
	c0-0.4-0.2-0.7-0.6-0.9c-0.4-0.3-1-0.5-1.7-0.7l-0.8-0.3c-0.6-0.2-1.2-0.5-1.8-0.8c-0.6-0.4-1.1-0.8-1.5-1.3c-0.4-0.5-0.6-1.2-0.6-2
	c0-0.9,0.2-1.7,0.6-2.4c0.4-0.7,1.1-1.3,1.9-1.7C64.2,0.2,65.2,0,66.4,0c1,0,1.8,0.1,2.5,0.3c0.7,0.2,1.3,0.5,1.8,0.8
	c0.5,0.3,0.8,0.6,1,0.8l-2,2.5c-0.5-0.4-1-0.7-1.6-0.9c-0.6-0.2-1.1-0.4-1.7-0.4c-0.4,0-0.7,0.1-1.1,0.3c-0.3,0.2-0.5,0.4-0.5,0.9
	c0,0.5,0.2,0.8,0.6,1c0.4,0.2,0.9,0.4,1.6,0.6l0.7,0.2c0.5,0.1,1,0.3,1.5,0.6c0.5,0.2,1,0.5,1.4,0.9c0.4,0.4,0.8,0.8,1,1.3
	c0.3,0.5,0.4,1.2,0.4,2c0,0.9-0.3,1.7-0.8,2.4c-0.5,0.7-1.2,1.3-2.2,1.7c-0.9,0.4-1.9,0.6-3,0.6c-1.5,0-2.7-0.2-3.7-0.6
	C61.4,14.4,60.6,13.9,59.9,13.3z M4.5,35.1V23.8H0v-3.4h12.9v3.4H8.4v11.3H4.5z M20.8,35.4c-1.1,0-2.1-0.2-3.1-0.6
	c-0.9-0.4-1.7-0.9-2.4-1.6c-0.7-0.7-1.2-1.5-1.6-2.5c-0.4-0.9-0.6-2-0.6-3.1c0-1.1,0.2-2.1,0.6-3.1c0.4-0.9,0.9-1.8,1.6-2.4
	c0.7-0.7,1.5-1.2,2.4-1.6c0.9-0.4,2-0.6,3.1-0.6s2.1,0.2,3,0.6c0.9,0.4,1.8,0.9,2.4,1.6c0.7,0.7,1.2,1.5,1.6,2.4
	c0.4,0.9,0.6,2,0.6,3.1c0,1.1-0.2,2.1-0.6,3.1c-0.4,0.9-0.9,1.8-1.6,2.5c-0.7,0.7-1.5,1.2-2.4,1.6C23,35.2,21.9,35.4,20.8,35.4z
	 M20.8,31.8c0.8,0,1.4-0.2,2-0.5c0.5-0.4,1-0.9,1.2-1.5c0.3-0.6,0.4-1.3,0.4-2c0-0.7-0.1-1.4-0.4-2c-0.3-0.6-0.7-1.1-1.2-1.5
	c-0.5-0.4-1.2-0.6-2-0.6c-0.8,0-1.4,0.2-2,0.6c-0.5,0.4-0.9,0.9-1.2,1.5c-0.3,0.6-0.4,1.3-0.4,2c0,0.7,0.1,1.4,0.4,2
	c0.3,0.6,0.7,1.1,1.2,1.5C19.4,31.6,20.1,31.8,20.8,31.8z M41.6,29.7v-3h6v6.6c-0.9,0.7-1.9,1.3-3,1.6c-1.1,0.3-2.3,0.5-3.4,0.5
	c-1.6,0-2.9-0.3-4.1-0.9c-1.1-0.6-2-1.5-2.6-2.7c-0.6-1.2-0.9-2.5-0.9-4.1c0-1.5,0.3-2.8,1-4c0.6-1.2,1.5-2.1,2.7-2.7
	c1.2-0.7,2.5-1,4-1c1.2,0,2.4,0.2,3.4,0.6c1.1,0.4,2,1.1,2.7,2l-2.5,2.6c-0.5-0.5-0.9-0.8-1.5-1.1c-0.5-0.3-1.1-0.4-1.8-0.4
	c-0.8,0-1.5,0.2-2.1,0.6c-0.6,0.4-1,0.9-1.3,1.5c-0.3,0.6-0.4,1.3-0.4,2.1c0,1.2,0.4,2.3,1.1,3c0.7,0.7,1.7,1.1,2.9,1.1
	c0.5,0,0.9-0.1,1.4-0.2c0.4-0.1,0.9-0.3,1.3-0.6v-1.4H41.6z M49.8,35.1V20.4h10.6v3.4h-6.7V26h5.5v3.2h-5.5v2.5h7.1v3.4H49.8z
	 M66.2,35.1V23.8h-4.5v-3.4h12.9v3.4h-4.5v11.3H66.2z"/>
</svg>
