<svg width="139" height="29" viewBox="0 0 139 29" fill="none" xmlns="http://www.w3.org/2000/svg">
<path d="M0 0H125.083C132.666 0 138.814 6.14789 138.814 13.7317V15.0826C138.814 22.6664 132.666 28.8143 125.083 28.8143H0V0Z" fill="#00DFED"/>
<path d="M25.3472 20.4072L28.2807 8.51668H32.117L35.0679 20.4072H33.1238L32.4815 17.8555H27.9162L27.274 20.4072H25.3472ZM29.7736 10.131L28.2981 16.1544H32.0996L30.6415 10.131H29.7736ZM41.072 15.8593V14.1582H44.4569V20.1989C44.1445 20.2799 43.508 20.3667 42.5475 20.4593C41.5986 20.5519 40.91 20.5982 40.4818 20.5982C38.6766 20.5982 37.4325 20.1006 36.7498 19.1053C36.067 18.1101 35.7256 16.5536 35.7256 14.4359C35.7256 12.3066 36.0728 10.7559 36.7671 9.78385C37.473 8.81178 38.6881 8.32574 40.4124 8.32574C41.4308 8.32574 42.5764 8.44146 43.8494 8.67291L44.4569 8.79442L44.3875 10.322C42.9872 10.1368 41.7317 10.0442 40.6207 10.0442C39.5098 10.0442 38.746 10.3567 38.3294 10.9816C37.9244 11.6065 37.7219 12.7637 37.7219 14.4533C37.7219 16.1428 37.9128 17.3116 38.2947 17.9597C38.6881 18.5962 39.4751 18.9144 40.6554 18.9144C41.5002 18.9144 42.1309 18.8623 42.5475 18.7582V15.8593H41.072ZM53.1931 20.4072H46.5275V8.51668H48.4543V18.6887H53.1931V20.4072ZM57.8857 8.51668H62.3989C63.614 8.51668 64.5224 8.76549 65.1242 9.2631C65.726 9.74913 66.0268 10.5303 66.0268 11.6065C66.0268 12.3124 65.9111 12.8679 65.6797 13.2729C65.4598 13.6779 65.1069 14.0135 64.6208 14.2797C65.7549 14.7194 66.3219 15.6394 66.3219 17.0397C66.3219 19.2847 65.0606 20.4072 62.5378 20.4072H57.8857V8.51668ZM62.3989 15.217H59.8125V18.7408H62.4336C63.0701 18.7408 63.5446 18.6077 63.857 18.3416C64.1811 18.0754 64.3431 17.6183 64.3431 16.9703C64.3431 16.3222 64.1579 15.8709 63.7876 15.6163C63.4173 15.3501 62.9544 15.217 62.3989 15.217ZM62.2948 10.1831H59.8125V13.5854H62.3642C63.4983 13.5854 64.0653 13.001 64.0653 11.8321C64.0653 10.7328 63.4752 10.1831 62.2948 10.1831ZM73.2012 11.728H75.0759V20.4072H73.2012V19.8691C72.3564 20.3552 71.5753 20.5982 70.8578 20.5982C69.6658 20.5982 68.8674 20.2799 68.4623 19.6435C68.0573 18.9954 67.8548 17.8671 67.8548 16.2586V11.728H69.7468V16.2759C69.7468 17.3174 69.8336 18.0175 70.0072 18.3763C70.1808 18.735 70.5858 18.9144 71.2223 18.9144C71.8472 18.9144 72.4201 18.7987 72.9408 18.5672L73.2012 18.4631V11.728ZM83.0429 13.5159C81.6774 13.3308 80.6879 13.2382 80.0746 13.2382C79.4613 13.2382 79.0331 13.3134 78.7901 13.4638C78.5586 13.6027 78.4429 13.8284 78.4429 14.1408C78.4429 14.4533 78.5702 14.6731 78.8248 14.8004C79.0909 14.9277 79.7043 15.0782 80.6648 15.2518C81.6368 15.4138 82.3254 15.6742 82.7304 16.0329C83.1355 16.3916 83.338 17.0281 83.338 17.9423C83.338 18.8565 83.0429 19.5277 82.4527 19.9559C81.8741 20.3841 81.0235 20.5982 79.901 20.5982C79.1951 20.5982 78.304 20.4998 77.2278 20.3031L76.6897 20.2163L76.7591 18.6367C78.1478 18.8218 79.1488 18.9144 79.7621 18.9144C80.3755 18.9144 80.8094 18.8392 81.064 18.6887C81.3302 18.5383 81.4633 18.2895 81.4633 17.9423C81.4633 17.5952 81.336 17.3579 81.0814 17.2306C80.8384 17.0918 80.2424 16.9471 79.2935 16.7967C78.3561 16.6347 77.6675 16.3859 77.2278 16.0503C76.7881 15.7147 76.5682 15.1013 76.5682 14.2103C76.5682 13.3192 76.8691 12.6538 77.4708 12.214C78.0842 11.7743 78.8653 11.5544 79.8142 11.5544C80.5548 11.5544 81.4633 11.647 82.5395 11.8321L83.0776 11.9363L83.0429 13.5159ZM84.8091 20.4072V11.728H86.7012V20.4072H84.8091ZM84.8091 10.2525V8.25631H86.7012V10.2525H84.8091ZM90.5411 20.4072H88.649V11.728H90.5237V12.2661C91.3685 11.7801 92.167 11.5371 92.9192 11.5371C94.0764 11.5371 94.8633 11.8669 95.2799 12.5265C95.7081 13.1745 95.9222 14.2508 95.9222 15.7552V20.4072H94.0475V15.8072C94.0475 14.8699 93.9433 14.2045 93.735 13.811C93.5383 13.4176 93.1275 13.2208 92.5026 13.2208C91.9124 13.2208 91.3453 13.3365 90.8014 13.568L90.5411 13.6721V20.4072ZM103.957 18.845L104.443 18.7929L104.478 20.1989C103.159 20.4651 101.99 20.5982 100.972 20.5982C99.6872 20.5982 98.7614 20.2452 98.1944 19.5393C97.6389 18.8334 97.3612 17.7051 97.3612 16.1544C97.3612 13.0762 98.6168 11.5371 101.128 11.5371C103.558 11.5371 104.773 12.8621 104.773 15.5121L104.652 16.8661H99.2706C99.2822 17.5836 99.4384 18.1101 99.7393 18.4457C100.04 18.7813 100.601 18.9491 101.423 18.9491C102.245 18.9491 103.089 18.9144 103.957 18.845ZM102.916 15.408C102.916 14.5516 102.777 13.9557 102.499 13.6201C102.233 13.2729 101.776 13.0993 101.128 13.0993C100.48 13.0993 100.005 13.2787 99.7046 13.6374C99.4153 13.9962 99.2648 14.5864 99.2532 15.408H102.916ZM112.269 13.5159C110.903 13.3308 109.914 13.2382 109.301 13.2382C108.687 13.2382 108.259 13.3134 108.016 13.4638C107.785 13.6027 107.669 13.8284 107.669 14.1408C107.669 14.4533 107.796 14.6731 108.051 14.8004C108.317 14.9277 108.93 15.0782 109.891 15.2518C110.863 15.4138 111.551 15.6742 111.956 16.0329C112.361 16.3916 112.564 17.0281 112.564 17.9423C112.564 18.8565 112.269 19.5277 111.679 19.9559C111.1 20.3841 110.249 20.5982 109.127 20.5982C108.421 20.5982 107.53 20.4998 106.454 20.3031L105.916 20.2163L105.985 18.6367C107.374 18.8218 108.375 18.9144 108.988 18.9144C109.601 18.9144 110.035 18.8392 110.29 18.6887C110.556 18.5383 110.689 18.2895 110.689 17.9423C110.689 17.5952 110.562 17.3579 110.307 17.2306C110.064 17.0918 109.468 16.9471 108.519 16.7967C107.582 16.6347 106.893 16.3859 106.454 16.0503C106.014 15.7147 105.794 15.1013 105.794 14.2103C105.794 13.3192 106.095 12.6538 106.697 12.214C107.31 11.7743 108.091 11.5544 109.04 11.5544C109.781 11.5544 110.689 11.647 111.765 11.8321L112.304 11.9363L112.269 13.5159ZM120.058 13.5159C118.693 13.3308 117.703 13.2382 117.09 13.2382C116.477 13.2382 116.049 13.3134 115.806 13.4638C115.574 13.6027 115.458 13.8284 115.458 14.1408C115.458 14.4533 115.586 14.6731 115.84 14.8004C116.106 14.9277 116.72 15.0782 117.68 15.2518C118.652 15.4138 119.341 15.6742 119.746 16.0329C120.151 16.3916 120.354 17.0281 120.354 17.9423C120.354 18.8565 120.058 19.5277 119.468 19.9559C118.89 20.3841 118.039 20.5982 116.917 20.5982C116.211 20.5982 115.32 20.4998 114.243 20.3031L113.705 20.2163L113.775 18.6367C115.163 18.8218 116.164 18.9144 116.778 18.9144C117.391 18.9144 117.825 18.8392 118.08 18.6887C118.346 18.5383 118.479 18.2895 118.479 17.9423C118.479 17.5952 118.352 17.3579 118.097 17.2306C117.854 17.0918 117.258 16.9471 116.309 16.7967C115.372 16.6347 114.683 16.3859 114.243 16.0503C113.804 15.7147 113.584 15.1013 113.584 14.2103C113.584 13.3192 113.885 12.6538 114.486 12.214C115.1 11.7743 115.881 11.5544 116.83 11.5544C117.57 11.5544 118.479 11.647 119.555 11.8321L120.093 11.9363L120.058 13.5159Z" fill="#001CB0"/>
</svg>
