<svg width="118" height="55" viewBox="0 0 118 55" fill="none" xmlns="http://www.w3.org/2000/svg">
<path d="M47.6,3.1v6.4h-9.4V.2h6.4c1.6,0,2.9,1.3,2.9,2.9Z" fill="#fff" stroke-width="0"/>
  <path d="M47.6,18.9h-9.4v9.4h9.4v-9.4Z" fill="#fff" stroke-width="0"/>
  <path d="M28.9.2h-9.4v9.4h9.4V.2Z" fill="#ffd000" stroke-width="0"/>
  <path d="M10.2,7.7V.2H.8v25.2c0,1.6,1.3,2.9,2.9,2.9h6.4v-7.5c0-1,.8-1.9,1.9-1.9h7.5v-9.4h-7.5c-1,0-1.9-.8-1.9-1.9Z" fill="#fff" stroke-width="0"/>
  <path d="M28.9,18.9h-9.4v9.4h9.4v-9.4Z" fill="#fff" stroke-width="0"/>
  <path d="M11,38.6c-.6,0-1.2-.2-1.6-.6-.4-.4-.6-1-.6-1.6s.2-1.2.6-1.6c.4-.4,1-.6,1.6-.6s1.1.2,1.6.6c.4.4.6,1,.6,1.6s-.2,1.2-.6,1.6c-.4.4-1,.7-1.6.7ZM13.5,33.8c-.7-.6-1.5-1-2.6-1s-1.9.3-2.5,1c-.7.6-1,1.5-1,2.5s.3,1.8,1,2.4c.7.6,1.5,1,2.5,1s1.9-.3,2.6-1c.7-.6,1-1.5,1-2.4s-.3-1.8-1-2.4ZM41.4,32.9v3.7c0,1.1-.4,1.8-1.6,1.8s-1.6-.7-1.6-1.8v-3.7h-1.3v4c0,2,1.3,2.7,2.9,2.7s2.9-.8,2.9-2.7v-4h-1.3ZM33.6,32.9v5.5h2.8v1.2h-4.1v-6.7h1.3ZM28.9,36c.6,0,1.2-.3,1.2-.9s-.4-.9-1.2-.9h-.8v1.9h.8ZM29.3,32.9c1.4,0,2.1.9,2.1,2.1s-.9,2.1-2.1,2.1h-1.1v2.5h-1.3v-6.7h2.4ZM26,32.9v1.2h-2.2v5.5h-1.3v-5.5h-2.2v-1.2h5.7ZM45.8,32.9c.6,0,1.3.2,1.9.5v1.3c-.7-.4-1.2-.7-1.9-.7s-.9.2-1,.6c0,.3.1.5.5.7,0,0,.4.2,1.1.6.5.3.9.5,1.2.9.2.3.4.7.4,1.1s-.2,1-.6,1.4c-.4.4-.9.5-1.6.5s-.8,0-1.1-.1c-.3,0-.6-.3-1-.5v-1.5c.7.6,1.4,1,2,1s1-.2,1-.6-.1-.5-.5-.7c-.3-.2-.6-.3-1.1-.6-.5-.3-.9-.5-1.2-.9-.3-.3-.4-.7-.4-1.1s.2-1,.6-1.3c.4-.3,1-.5,1.7-.5M17.6,32.9c.6,0,1.3.2,1.9.5v1.3c-.7-.4-1.2-.7-1.9-.7s-.9.2-1,.6c0,.3.1.5.5.7,0,0,.4.2,1.1.6.5.3.9.5,1.2.9.2.3.4.7.4,1.1s-.2,1-.6,1.4c-.4.4-.9.5-1.6.5s-.8,0-1.1-.1c-.3,0-.6-.3-1-.5v-1.5c.7.6,1.4,1,2,1s1-.2,1-.6-.1-.5-.5-.7c-.3-.2-.6-.3-1.1-.6-.5-.3-.9-.5-1.2-.9s-.4-.7-.4-1.1.2-1,.6-1.3c.4-.3,1-.5,1.7-.5M2.1,32.9v2.7h3.2v-2.7h1.3v6.7h-1.3v-2.7h-3.2v2.7H.8v-6.7h1.3Z" fill="#fff" stroke-width="0"/>
  <line x1="58.6" y1="0" x2="58.6" y2="39.9" fill="none" stroke="#fff" stroke-width=".3"/>
  <path d="M81.3,16.4h-10.8c.2.6.6,1.2.9,1.8h10.5c-.3-.6-.5-1.2-.6-1.8h0Z" fill="#ffdd5e" stroke-width="0"/>
  <path d="M82.3,18.9h-10.3c.4.5.9,1.1,1.5,1.6h9.8c-.4-.5-.7-1-1-1.6Z" fill="#ffdd5e" stroke-width="0"/>
  <path d="M83.9,21.3h-9.5c.6.5,1.3,1,2,1.4h8.9c-.5-.4-1-.9-1.4-1.4Z" fill="#ffdd5e" stroke-width="0"/>
  <path d="M103,20.5h9.8c.5-.5,1-1,1.5-1.6h-10.3c-.3.6-.6,1.1-1,1.6Z" fill="#ffdd5e" stroke-width="0"/>
  <path d="M97.1,24.8h8.2c1-.4,1.9-.8,2.8-1.2h-8.5c-.8.5-1.6.9-2.5,1.2Z" fill="#ffdd5e" stroke-width="0"/>
  <path d="M104.3,18.2h10.5c.4-.6.7-1.2.9-1.8h-10.8c-.2.6-.4,1.2-.6,1.8h0Z" fill="#ffdd5e" stroke-width="0"/>
  <path d="M116.3,13.8c0-.1,0-.3,0-.4,0-.3,0-.6,0-.9h-35.2c.5-6.2,5.7-11.2,12.1-11.2s10.4,3.9,11.8,9.1h10.8c-2.4-6-11.6-10.4-22.6-10.4s-22.3,5.5-23.1,12.5c0,.1,0,.2,0,.4,0,0,0,0,0,.1,0,0,0,0,0,.1,0,0,0,.2,0,.3,0,.3,0,.6,0,.9h35.2c0,.5-.1,1-.2,1.5h10.9c.2-.6.3-1.2.3-1.8,0,0,0,0,0-.1h0s0,0,0,0Z" fill="#ffdd5e" stroke-width="0"/>
  <path d="M100.9,22.7h8.9c.7-.4,1.4-.9,2-1.4h-9.5c-.4.5-.9,1-1.4,1.4Z" fill="#ffdd5e" stroke-width="0"/>
  <path d="M86.6,23.6h-8.5c.9.4,1.8.8,2.8,1.2h8.2c-.9-.3-1.7-.7-2.5-1.2Z" fill="#ffdd5e" stroke-width="0"/>
  <path d="M93.1,26.8c3.1,0,6.1-.4,8.8-1h-17.5c2.7.6,5.7,1,8.8,1Z" fill="#ffdd5e" stroke-width="0"/>
  <path d="M74.3,40c-4.9,0-5.7-.6-5.7-2.9h2.8c0,.7.4,1,2.8,1s2.6-.3,2.6-.9h0c0-.5-.3-.7-3.5-.9-4-.2-4.7-.8-4.7-2.8s.8-2.8,5.3-2.8,5.4,1,5.4,2.8h-2.8c0-.7-.7-1-2.6-1s-2.5.2-2.5.8.3.6,3.5.7c4,.2,4.7,1.1,4.7,2.9s-.8,2.9-5.4,2.9h0Z" fill="#ffdd5e" stroke-width="0"/>
  <path d="M86.5,40c-4.9,0-5.7-1-5.7-4v-4.9h2.8v4.8c0,1.6.6,1.8,2.9,1.8s2.9-.2,2.9-1.8v-4.8h2.8v4.9c0,3.1-.8,4-5.7,4h0Z" fill="#ffdd5e" stroke-width="0"/>
  <path d="M100.5,39.8l-3.8-6.4h-.2v6.4h-2.7v-8.8h4.7l3.8,6.4h.2v-6.4h2.7v8.8h-4.7Z" fill="#ffdd5e" stroke-width="0"/>
  <path d="M112.3,40c-4.9,0-5.7-.6-5.7-2.9h2.8c0,.7.4,1,2.8,1s2.6-.3,2.6-.9h0c0-.5-.3-.7-3.5-.9-4-.2-4.7-.8-4.7-2.8s.8-2.8,5.3-2.8,5.4,1,5.4,2.8h-2.8c0-.7-.7-1-2.6-1s-2.5.2-2.5.8.3.6,3.5.7c4,.2,4.7,1.1,4.7,2.9s-.8,2.9-5.4,2.9h0Z" fill="#ffdd5e" stroke-width="0"/>
  <path d="M2.6,54.6c-.3,0-.6,0-.9-.2-.3-.1-.5-.3-.7-.5-.2-.2-.4-.5-.5-.7-.1-.3-.2-.6-.2-.9s0-.6.2-.9c.1-.3.3-.5.5-.7.2-.2.5-.4.7-.5.3-.1.6-.2.9-.2s.6,0,.9.2c.3.1.5.3.7.5.2.2.4.5.5.7.1.3.2.6.2.9s0,.6-.2.9c-.1.3-.3.5-.5.7-.2.2-.4.4-.7.5-.3.1-.6.2-.9.2ZM2.6,53.7c.2,0,.4,0,.5-.1.2,0,.3-.2.4-.3.1-.1.2-.3.3-.4,0-.2,0-.3,0-.5s0-.4,0-.5c0-.2-.1-.3-.3-.4-.1-.1-.2-.2-.4-.3-.2,0-.3-.1-.5-.1s-.4,0-.5.1c-.2,0-.3.2-.4.3-.1.1-.2.3-.2.4,0,.2,0,.3,0,.5s0,.4,0,.5c0,.2.1.3.2.4.1.1.2.2.4.3.2,0,.3.1.5.1ZM5.6,50.1h3v.9h-2v1h1.5v.9h-1.5v1.7h-1v-4.4ZM9.1,50.1h3v.9h-2v1h1.5v.9h-1.5v1.7h-1v-4.4ZM12.7,50.1h1v4.4h-1v-4.4ZM18.6,53.7c0,.1-.2.2-.3.4-.1.1-.3.2-.4.3-.2,0-.3.2-.5.2-.2,0-.4,0-.6,0-.3,0-.6,0-.9-.2-.3-.1-.5-.3-.7-.5-.2-.2-.4-.5-.5-.7-.1-.3-.2-.6-.2-.9s0-.6.2-.9c.1-.3.3-.5.5-.7.2-.2.4-.4.7-.5.3-.1.6-.2.9-.2s.8,0,1.1.2c.3.2.6.4.8.7l-.7.7c-.1-.2-.3-.3-.5-.4-.2-.1-.4-.2-.7-.2s-.4,0-.5.1c-.2,0-.3.2-.4.3-.1.1-.2.3-.3.5,0,.2,0,.3,0,.5s0,.4,0,.5c0,.2.1.3.3.4.1.1.2.2.4.3.2,0,.3.1.5.1s.3,0,.4,0c.1,0,.2,0,.3-.1,0,0,.2-.1.2-.2,0,0,.1-.2.2-.2l.7.6ZM19.1,50.1h1v4.4h-1v-4.4ZM22.2,50.1h1.1l1.6,4.4h-1.1l-.3-1h-1.6l-.3,1h-1l1.7-4.4ZM23.3,52.7l-.5-1.7-.6,1.7h1.1ZM25.4,50.1h1v3.5h2.1v.9h-3.1v-4.4ZM30.7,53.2c0,0,.1.1.2.2,0,0,.2.1.3.2,0,0,.2,0,.3.1.1,0,.2,0,.4,0s.2,0,.2,0c0,0,.1,0,.2,0,0,0,.1,0,.1-.2,0,0,0-.1,0-.2,0-.2,0-.3-.2-.4-.2,0-.4-.2-.8-.3-.2,0-.3,0-.5-.2-.1,0-.3-.2-.4-.3-.1-.1-.2-.2-.2-.4,0-.1,0-.3,0-.5s0-.4,0-.5c0-.2.2-.3.3-.4.1-.1.3-.2.5-.3.2,0,.4-.1.7-.1s.4,0,.6,0c.2,0,.3,0,.4.2.1,0,.2.1.3.2,0,0,.1.1.2.2l-.6.6s-.1,0-.2-.1c0,0-.1,0-.2-.1,0,0-.2,0-.3,0,0,0-.2,0-.3,0s-.1,0-.2,0c0,0-.1,0-.2,0,0,0,0,0-.1.1,0,0,0,.1,0,.2,0,.2,0,.3.2.4.2,0,.4.2.7.2.2,0,.3,0,.5.2.2,0,.3.2.4.3.1.1.2.2.3.4,0,.2.1.4.1.6s0,.4-.1.6c0,.2-.2.3-.4.4-.2.1-.3.2-.5.3-.2,0-.4.1-.7.1s-.4,0-.6,0c-.2,0-.3,0-.5-.2-.1,0-.3-.2-.4-.2-.1,0-.2-.2-.3-.3l.6-.7ZM34.2,50.1h1v2.6c0,.1,0,.3,0,.4,0,.1,0,.2.1.3,0,0,.2.2.3.2.1,0,.2,0,.4,0s.3,0,.4,0c.1,0,.2-.1.3-.2s.1-.2.1-.3c0-.1,0-.3,0-.4v-2.6h1v2.7c0,.3,0,.5-.1.7,0,.2-.2.4-.4.6-.2.2-.4.3-.6.4-.2,0-.5.1-.8.1s-.5,0-.8-.1c-.2,0-.4-.2-.6-.4-.2-.2-.3-.3-.4-.6,0-.2-.1-.5-.1-.7v-2.7ZM38.8,50.1h1.6c.3,0,.5,0,.7.1s.4.2.5.3c.1.1.2.3.3.5,0,.2,0,.4,0,.5s0,.4-.1.6c0,.2-.2.3-.3.4-.1.1-.3.2-.5.3-.2,0-.4,0-.6,0h-.7v1.6h-1v-4.4ZM40.3,52.2c.2,0,.3,0,.4-.2.1-.1.2-.3.2-.4s0-.3-.2-.5c-.1-.1-.3-.2-.4-.2h-.6v1.2h.6ZM42.6,50.1h3v.9h-2v.9h1.6v.8h-1.6v1h2.2v.9h-3.2v-4.4ZM46.4,50.1h1.6c.3,0,.5,0,.7.1.2,0,.4.2.5.3.1.1.2.3.3.4,0,.2,0,.3,0,.5,0,.3,0,.5-.2.8-.1.2-.3.4-.5.5l1,1.8h-1.1l-.8-1.6h-.6v1.6h-1v-4.4ZM48,52.1c.2,0,.3,0,.4-.2.1-.1.2-.2.2-.4s0-.3-.2-.4c-.1-.1-.3-.2-.4-.2h-.6v1.2h.6ZM51.7,50.1h1.1l1.6,4.4h-1.1l-.3-1h-1.6l-.3,1h-1l1.7-4.4ZM52.8,52.7l-.5-1.7-.6,1.7h1.1ZM54.9,50.1h1l1.9,2.9v-2.9h1v4.4h-.9l-2-2.9v2.9h-1v-4.4ZM59.7,50.1h1l1.9,2.9v-2.9h1v4.4h-.9l-2-2.9v2.9h-1v-4.4ZM64.4,50.1h1v2.6c0,.1,0,.3,0,.4,0,.1,0,.2.1.3,0,0,.2.2.3.2.1,0,.2,0,.4,0s.3,0,.4,0c.1,0,.2-.1.3-.2,0,0,.1-.2.1-.3,0-.1,0-.3,0-.4v-2.6h1v2.7c0,.3,0,.5-.1.7,0,.2-.2.4-.4.6-.2.2-.4.3-.6.4-.2,0-.5.1-.8.1s-.5,0-.8-.1c-.2,0-.4-.2-.6-.4-.2-.2-.3-.3-.4-.6,0-.2-.1-.5-.1-.7v-2.7ZM70,50.1h1.1l1.6,4.4h-1.1l-.3-1h-1.6l-.3,1h-1l1.7-4.4ZM71,52.7l-.5-1.7-.6,1.7h1.1ZM73.6,51h-1.4v-.9h3.9v.9h-1.4v3.5h-1v-3.5ZM76.6,50.1h1v4.4h-1v-4.4ZM80.6,54.6c-.3,0-.6,0-.9-.2-.3-.1-.5-.3-.7-.5-.2-.2-.4-.5-.5-.7-.1-.3-.2-.6-.2-.9s0-.6.2-.9c.1-.3.3-.5.5-.7.2-.2.5-.4.7-.5.3-.1.6-.2.9-.2s.6,0,.9.2c.3.1.5.3.7.5.2.2.4.5.5.7.1.3.2.6.2.9s0,.6-.2.9c-.1.3-.3.5-.5.7-.2.2-.4.4-.7.5-.3.1-.6.2-.9.2ZM80.6,53.7c.2,0,.4,0,.5-.1.2,0,.3-.2.4-.3.1-.1.2-.3.3-.4,0-.2,0-.3,0-.5s0-.4,0-.5c0-.2-.1-.3-.3-.4-.1-.1-.2-.2-.4-.3-.2,0-.3-.1-.5-.1s-.4,0-.5.1c-.2,0-.3.2-.4.3-.1.1-.2.3-.2.4,0,.2,0,.3,0,.5s0,.4,0,.5c0,.2.1.3.2.4.1.1.2.2.4.3.2,0,.3.1.5.1ZM83.6,50.1h1l1.9,2.9v-2.9h1v4.4h-.9l-2-2.9v2.9h-1v-4.4ZM89.5,50.1h1.6c.3,0,.5,0,.7.1.2,0,.4.2.5.3.1.1.2.3.3.5,0,.2,0,.4,0,.5s0,.4-.1.6c0,.2-.2.3-.3.4-.1.1-.3.2-.5.3-.2,0-.4,0-.6,0h-.7v1.6h-1v-4.4ZM91.1,52.2c.2,0,.3,0,.4-.2.1-.1.2-.3.2-.4s0-.3-.2-.5c-.1-.1-.3-.2-.4-.2h-.6v1.2h.6ZM94.1,50.1h1.1l1.6,4.4h-1.1l-.3-1h-1.6l-.3,1h-1l1.7-4.4ZM95.1,52.7l-.5-1.7-.6,1.7h1.1ZM97.3,50.1h1.6c.3,0,.5,0,.7.1.2,0,.4.2.5.3.1.1.2.3.3.4,0,.2,0,.3,0,.5,0,.3,0,.5-.2.8-.1.2-.3.4-.5.5l1,1.8h-1.1l-.8-1.6h-.6v1.6h-1v-4.4ZM98.9,52.1c.2,0,.3,0,.4-.2.1-.1.2-.2.2-.4s0-.3-.2-.4c-.1-.1-.3-.2-.4-.2h-.6v1.2h.6ZM102.3,51h-1.4v-.9h3.9v.9h-1.4v3.5h-1v-3.5ZM105.3,50.1h1l1.9,2.9v-2.9h1v4.4h-.9l-2-2.9v2.9h-1v-4.4ZM110,50.1h3v.9h-2v.9h1.6v.8h-1.6v1h2.2v.9h-3.2v-4.4ZM113.9,50.1h1.6c.3,0,.5,0,.7.1.2,0,.4.2.5.3.1.1.2.3.3.4,0,.2,0,.3,0,.5,0,.3,0,.5-.2.8-.1.2-.3.4-.5.5l1,1.8h-1.1l-.8-1.6h-.6v1.6h-1v-4.4ZM115.5,52.1c.2,0,.3,0,.4-.2.1-.1.2-.2.2-.4s0-.3-.2-.4c-.1-.1-.3-.2-.4-.2h-.6v1.2h.6Z" fill="#fff" stroke-width="0"/>
</svg>