<svg width="160" height="600" viewBox="0 0 160 600" fill="none" xmlns="http://www.w3.org/2000/svg">
  <g>
    <path d="M30.9,169.4l-1,.6v-4.7c0-2.2.9-4.6,2.6-4.6s2.6,2.4,2.6,4.6v4.7l-1-.6v-4.1c0-1.9-.7-3.6-1.5-3.6s-1.6,1.7-1.6,3.6v4.1ZM43.7,174.5c0-.2-.2-.5-.3-.6,0,0,0,0,0,0,0,0-.1-.2-.2-.2,0,0,0,0,0,0,0,0-.2-.1-.3-.2l-3.1-1.9v-1.6c0-.9-.7-1.5-1.5-1.5h-.5c0,0-.2,0-.3,0,0,0,0,0,0,0,0,0-.1,0-.2,0,0,0,0,0,0,0,0,0-.1,0-.2,0,0,0,0,0,0,0,0,0-.1,0-.2.2,0,0,0,0,0,0,0,0-.1.1-.2.2,0,0,0,0,0,0,0,0,0,.1,0,.2,0,0,0,0,0,0,0,.2-.1.4-.1.6v.7l1,.6v-1.3c0-.3.2-.5.5-.5h.5c.3,0,.5.2.5.5v2.2h.3c0,.1,3.4,2.2,3.4,2.2,0,0,.1,0,.2.1,0,0,0,0,.1.1.1.2.2.4.2.6v.2l-.5-.2-4.1-1.2h-4.1l-.7,6.5,2.5,2c.2.1.3.3.3.5h0c0,.1-3.5-.8-3.5-.8,0,0-.2,0-.3,0l-3.5.9h0c0-.3,0-.6.3-.7l2.5-2-.7-6.5h-4.1l-4.6,1.4v-.2c0-.2,0-.4.2-.6,0,0,0,0,.1-.1,0,0,.1,0,.2-.1l3.4-2h.3v-2.4c0-.3.2-.5.5-.5h.5c.3,0,.5.2.5.5v1.3l1-.6v-.7c0-.2,0-.4-.1-.6,0,0,0,0,0,0,0,0,0-.1,0-.2,0,0,0,0,0,0,0,0-.1-.1-.2-.2,0,0,0,0,0,0,0,0-.1-.1-.2-.1,0,0,0,0,0,0,0,0-.1,0-.2,0,0,0,0,0,0,0,0,0-.1,0-.2,0,0,0,0,0,0,0,0,0-.2,0-.3,0h-.5c-.9,0-1.5.7-1.5,1.5v1.6l-3.1,1.9c0,0-.2.1-.3.2,0,0,0,0,0,0,0,0-.1.1-.2.2,0,0,0,0,0,0-.3.4-.4.8-.4,1.3v.9c0,.2,0,.3.2.4,0,0,.2.1.3.1s0,0,.1,0l5.1-1.5h3.1l.6,5-2,1.6c-.4.3-.7.8-.7,1.4v.8c0,.2,0,.3.2.4.1,0,.3.1.4,0l3.5-.9h.5c0-.1.5,0,.5,0l3.5.9s0,0,.1,0c.1,0,.2,0,.3-.1.1,0,.2-.2.2-.4v-.8c0-.5-.2-1-.7-1.4l-2-1.6.6-5h3.1l5.1,1.5s0,0,.1,0c.1,0,.2,0,.3-.1.1,0,.2-.3.2-.4v-.9c0-.2,0-.4-.1-.6h0Z" fill="#fff" stroke-width="0"/>
    <path d="M16,172.5c0,8.9,7.1,16.2,16,16.5v-1c-8.3-.3-14.9-7.1-14.9-15.5s6.7-15.2,14.9-15.5v-1c-8.9.3-16,7.6-16,16.5Z" fill="#fff" stroke-width="0"/>
    <path d="M33,156v1c8.3.3,14.9,7.1,14.9,15.5s-6.7,15.2-14.9,15.5v1c8.9-.3,16-7.6,16-16.5s-7.1-16.2-16-16.5Z" fill="#fff" stroke-width="0"/>
  </g>
  <path d="M23.1,207l-.7-2.1h-4l-.7,2.1h-1.7l3.4-9.9h2l3.4,9.9h-1.7ZM18.9,203.5h3l-1.5-4.5-1.5,4.5ZM32.7,207h-1.8l-1.4-4.8-1.3,4.8h-1.8l-2-7.3h1.6l1.4,5.3,1.5-5.3h1.4l1.5,5.3,1.3-5.3h1.6l-2,7.3ZM39.3,206.1c-.4.6-1.1,1.1-2.2,1.1s-2.3-.8-2.3-2.2,1.1-2,2.3-2.1l1.5-.2c.6,0,.7-.3.7-.8,0-.7-.4-1.1-1.3-1.1s-1.3.5-1.4,1.2h-1.7c0-1.2,1.1-2.4,3-2.4s3,1.1,3,2.7v3.5c0,.4,0,.9.1,1.2h-1.7c0-.3,0-.6,0-1h0ZM39.3,203.3c-.2.2-.5.3-.9.4l-.7.2c-.7.2-1.2.4-1.2,1.1s.4,1,1.2,1,1.7-.6,1.7-1.6v-1.1ZM43.9,203.2v3.9h-1.7v-7.3h1.7v1.1h0c.3-.8.9-1.1,1.6-1.1h.8v1.5h-.7c-1.1,0-1.7.5-1.7,1.9ZM51.8,206.1c-.4.7-1.2,1.1-2.2,1.1-1.8,0-3-1.5-3-3.8s1.2-3.8,3-3.8,1.8.5,2.2,1.1h0v-4.1h1.7v10.4h-1.7v-1h0ZM48.3,203.7c0,1.4.7,2.2,1.8,2.2s1.8-.8,1.8-2.1v-.8c0-1.3-.7-2.1-1.8-2.1s-1.8.8-1.8,2.2v.5ZM54.7,203.9v-1.5h3.7v1.5h-3.7ZM67.1,207h-1.8l-1.4-4.8-1.3,4.8h-1.8l-2-7.3h1.6l1.4,5.3,1.5-5.3h1.4l1.5,5.3,1.3-5.3h1.6l-2,7.3ZM69.5,197.6c0-.6.4-1,1-1s1,.4,1,1-.5,1-1,1-1-.5-1-1ZM69.7,199.8h1.7v7.3h-1.7v-7.3ZM74.3,202.5v4.5h-1.7v-7.3h1.7v.9h0c.5-.6,1.1-1,2-1,1.4,0,2.4,1.1,2.4,2.7v4.7h-1.7v-4.6c0-.8-.4-1.4-1.3-1.4s-1.5.7-1.5,1.6ZM81.8,202.5v4.5h-1.7v-7.3h1.7v.9h0c.5-.6,1.1-1,2-1,1.4,0,2.4,1.1,2.4,2.7v4.7h-1.7v-4.6c0-.8-.4-1.4-1.3-1.4s-1.5.7-1.5,1.6ZM87.4,197.6c0-.6.4-1,1-1s1,.4,1,1-.5,1-1,1-1-.5-1-1ZM87.6,199.8h1.7v7.3h-1.7v-7.3ZM92.3,202.5v4.5h-1.7v-7.3h1.7v.9h0c.5-.6,1.1-1,2-1,1.4,0,2.4,1.1,2.4,2.7v4.7h-1.7v-4.6c0-.8-.4-1.4-1.3-1.4s-1.5.7-1.5,1.6ZM97.9,207.3h1.8c.1.7.6,1.2,1.5,1.2s1.6-.7,1.6-1.8v-1.1h0c-.4.7-1.1,1.1-2.1,1.1-1.7,0-2.9-1.3-2.9-3.6s1.2-3.6,2.9-3.6,1.7.4,2.1,1.1h0v-1h1.7v7c0,1.7-1,2.9-3.3,2.9s-3.1-1.1-3.2-2.3ZM99.4,203.4c0,1.4.6,2,1.7,2s1.7-.8,1.7-2.1v-.4c0-1.2-.7-2.1-1.7-2.1s-1.7.7-1.7,2v.5ZM24.2,210.1v1.4h-3.1v8.5h-1.8v-8.5h-3.2v-1.4h8.1ZM25.5,216.2v3.9h-1.7v-7.3h1.7v1.1h0c.4-.8.9-1.1,1.6-1.1h.8v1.5h-.7c-1.1,0-1.7.5-1.7,1.9ZM32.7,219.1c-.4.6-1.1,1.1-2.2,1.1s-2.3-.8-2.3-2.2,1.1-2,2.3-2.1l1.5-.2c.6,0,.7-.3.7-.8,0-.7-.4-1.1-1.3-1.1s-1.3.5-1.4,1.2h-1.7c0-1.2,1.1-2.4,3-2.4s3,1.1,3,2.7v3.5c0,.4,0,.9.1,1.2h-1.7c0-.3,0-.6,0-1h0ZM32.7,216.3c-.2.2-.5.3-.9.4l-.7.2c-.7.2-1.2.4-1.2,1.1s.4,1,1.2,1,1.7-.6,1.7-1.6v-1.1ZM34.7,212.8h1.8l2,5.5,1.9-5.5h1.7l-2.7,7.3h-2l-2.7-7.3ZM48.8,217.9c-.4,1.2-1.5,2.3-3.2,2.3s-3.5-1.5-3.5-3.8,1.4-3.8,3.5-3.8,3.3,1.5,3.3,3.8v.4h-5.1c0,1.3.7,2.1,1.8,2.1s1.3-.4,1.6-1h1.6ZM45.5,213.9c-1,0-1.6.6-1.8,1.8h3.4c0-1.1-.7-1.8-1.7-1.8ZM51.9,220c-1.3,0-2.1-.8-2.1-1.9v-8.4h1.7v8.3c0,.5.2.8.7.8h.5v1.3h-.8ZM56,210.1h1.7v9.9h-1.7v-9.9ZM60.8,215.5v4.5h-1.7v-7.3h1.7v.9h0c.5-.6,1.1-1,2-1,1.4,0,2.4,1.1,2.4,2.7v4.7h-1.7v-4.6c0-.8-.4-1.4-1.3-1.4s-1.5.7-1.5,1.6ZM66.2,218h1.7c.1.6.5,1,1.5,1s1.3-.4,1.3-1-.2-.8-1-.9l-1.3-.2c-1.5-.2-2-.9-2-2s1.1-2.4,2.9-2.4,2.8,1.1,2.9,2.2h-1.6c0-.6-.5-1-1.3-1s-1.3.4-1.3,1,.3.7,1.1.8l1.3.2c1.4.2,2,.8,2,2s-1.3,2.4-3,2.4-3-1-3.1-2.2ZM77.7,217.3v-4.5h1.7v7.3h-1.7v-.9h0c-.5.6-1,1-2,1-1.4,0-2.4-1.1-2.4-2.7v-4.7h1.7v4.6c0,.8.4,1.4,1.3,1.4s1.5-.7,1.5-1.6ZM82.3,216.2v3.9h-1.7v-7.3h1.7v1.1h0c.3-.8.9-1.1,1.6-1.1h.8v1.5h-.7c-1.1,0-1.7.5-1.7,1.9ZM89.5,219.1c-.4.6-1.1,1.1-2.2,1.1s-2.3-.8-2.3-2.2,1.1-2,2.3-2.1l1.5-.2c.6,0,.7-.3.7-.8,0-.7-.4-1.1-1.3-1.1s-1.3.5-1.4,1.2h-1.7c0-1.2,1.1-2.4,3-2.4s3,1.1,3,2.7v3.5c0,.4,0,.9.1,1.2h-1.7c0-.3,0-.6,0-1h0ZM89.5,216.3c-.2.2-.5.3-.9.4l-.7.2c-.7.2-1.2.4-1.2,1.1s.4,1,1.2,1,1.7-.6,1.7-1.6v-1.1ZM94.1,215.5v4.5h-1.7v-7.3h1.7v.9h0c.5-.6,1.1-1,2-1,1.4,0,2.4,1.1,2.4,2.7v4.7h-1.7v-4.6c0-.8-.4-1.4-1.3-1.4s-1.5.7-1.5,1.6ZM99.6,216.4c0-2.3,1.4-3.8,3.4-3.8s3,1.1,3.2,2.6h-1.7c-.1-.8-.7-1.2-1.5-1.2s-1.8.8-1.8,2.2v.6c0,1.4.7,2.2,1.8,2.2s1.4-.5,1.5-1.3h1.7c-.2,1.4-1.4,2.6-3.2,2.6s-3.4-1.5-3.4-3.8ZM113.4,217.9c-.3,1.2-1.5,2.3-3.2,2.3s-3.5-1.5-3.5-3.8,1.4-3.8,3.5-3.8,3.3,1.5,3.3,3.8v.4h-5.1c0,1.3.7,2.1,1.8,2.1s1.3-.4,1.6-1h1.6ZM110.1,213.9c-1,0-1.6.6-1.8,1.8h3.4c0-1.1-.7-1.8-1.7-1.8Z" fill="#fff" stroke-width="0"/>
  <g>
    <path d="M16,256.5c0,8.9,7.1,16.2,16,16.5v-1c-8.5-.3-15.2-7.4-14.9-16,.3-8.1,6.8-14.7,14.9-14.9v-1c-8.9.3-16,7.6-16,16.5Z" fill="#fff" stroke-width="0"/>
    <path d="M33,240v1c8.5.3,15.2,7.4,14.9,16-.3,8.1-6.8,14.7-14.9,14.9v1c9.1-.3,16.2-7.9,16-17-.3-8.7-7.3-15.7-16-16Z" fill="#fff" stroke-width="0"/>
    <path d="M24.8,260.1h3.6v1h-3.6v-1ZM29.4,258.1h-4.6v1h4.6v-1ZM37.6,260.1c0,.6.5,1,1,1s1-.5,1-1-.5-1-1-1-1,.5-1,1ZM41.8,255h-18.5v7.7c0,.3.2.5.5.5h17.5c.3,0,.5-.2.5-.5v-6.7h1v6.7c0,.9-.7,1.5-1.5,1.5h-17.5c-.9,0-1.5-.7-1.5-1.5v-8.8h19.6v-1h-19.6v-2.6c0-.9.7-1.5,1.5-1.5h17.5c.9,0,1.5.7,1.5,1.5v4.6h-1ZM41.8,251.9v-1.5c0-.3-.2-.5-.5-.5h-17.5c-.3,0-.5.2-.5.5v1.5h18.5Z" fill="#fff" stroke-width="0"/>
  </g>
  <path d="M23.1,291.1l-.7-2.1h-4l-.7,2.1h-1.7l3.4-9.9h2l3.4,9.9h-1.7ZM18.9,287.5h3l-1.5-4.5-1.5,4.5ZM29.8,288.3v-4.5h1.7v7.3h-1.7v-.9h0c-.5.6-1,1-2,1-1.4,0-2.4-1.1-2.4-2.7v-4.7h1.7v4.6c0,.8.4,1.4,1.3,1.4s1.5-.7,1.5-1.6ZM32.4,289h1.7c.1.6.5,1,1.5,1s1.3-.4,1.3-1-.2-.8-1-.9l-1.3-.2c-1.5-.2-2-.9-2-2s1.1-2.4,2.9-2.4,2.8,1.1,2.9,2.2h-1.6c0-.6-.5-1-1.3-1s-1.3.4-1.3,1,.3.7,1.1.8l1.3.2c1.4.2,2,.8,2,2s-1.3,2.4-3,2.4-3-1-3.1-2.2ZM40.1,289v-3.9h-1.4v-1.2h1.4v-2.7h1.7v2.7h1.7v1.2h-1.7v3.8c0,.6.3.9,1,.9h.7v1.4h-1c-1.6,0-2.3-.7-2.3-2.1ZM46.2,287.2v3.9h-1.7v-7.3h1.7v1.1h0c.3-.8.9-1.1,1.6-1.1h.8v1.5h-.7c-1.1,0-1.7.5-1.7,1.9ZM53.4,290.1c-.4.6-1.1,1.1-2.2,1.1s-2.3-.8-2.3-2.2,1.1-2,2.3-2.1l1.5-.2c.6,0,.7-.3.7-.8,0-.7-.4-1.1-1.3-1.1s-1.3.5-1.4,1.2h-1.7c0-1.2,1.1-2.4,3-2.4s3,1.1,3,2.7v3.5c0,.4,0,.9.1,1.2h-1.7c0-.3,0-.6,0-1h0ZM53.4,287.3c-.2.2-.5.3-.9.4l-.7.2c-.7.2-1.2.4-1.2,1.1s.4,1,1.2,1,1.7-.6,1.7-1.6v-1.1ZM58.4,291.1c-1.3,0-2.1-.8-2.1-1.9v-8.4h1.7v8.3c0,.5.2.8.7.8h.5v1.3h-.8ZM59.9,281.6c0-.6.4-1,1-1s1,.4,1,1-.5,1-1,1-1-.5-1-1ZM60.1,283.8h1.7v7.3h-1.7v-7.3ZM67.2,290.1c-.4.6-1.1,1.1-2.2,1.1s-2.3-.8-2.3-2.2,1.1-2,2.3-2.1l1.5-.2c.6,0,.7-.3.7-.8,0-.7-.4-1.1-1.3-1.1s-1.3.5-1.4,1.2h-1.7c0-1.2,1.1-2.4,3-2.4s3,1.1,3,2.7v3.5c0,.4,0,.9.1,1.2h-1.7c0-.3,0-.6,0-1h0ZM67.2,287.3c-.2.2-.5.3-.9.4l-.7.2c-.7.2-1.2.4-1.2,1.1s.4,1,1.2,1,1.7-.6,1.7-1.6v-1.1ZM72.6,281.1h4.1c2.2,0,3.5,1.2,3.5,3.2s-1.3,3.2-3.5,3.2h-2.4v3.5h-1.7v-9.9ZM76.5,286.2c1.3,0,2-.5,2-1.8s-.8-1.8-2-1.8h-2.1v3.6h2.1ZM80.5,287.4c0-2.3,1.4-3.8,3.5-3.8s3.5,1.5,3.5,3.8-1.4,3.8-3.5,3.8-3.5-1.5-3.5-3.8ZM85.7,287.1c0-1.4-.7-2.2-1.8-2.2s-1.8.8-1.8,2.2v.6c0,1.4.7,2.2,1.8,2.2s1.8-.8,1.8-2.2v-.6ZM87.9,289h1.7c.1.6.5,1,1.5,1s1.3-.4,1.3-1-.2-.8-1-.9l-1.3-.2c-1.5-.2-2-.9-2-2s1.1-2.4,2.9-2.4,2.8,1.1,2.9,2.2h-1.6c0-.6-.5-1-1.3-1s-1.3.4-1.3,1,.3.7,1.1.8l1.3.2c1.4.2,2,.8,2,2s-1.3,2.4-3,2.4-3-1-3.1-2.2ZM95.6,289v-3.9h-1.4v-1.2h1.4v-2.7h1.7v2.7h1.7v1.2h-1.7v3.8c0,.6.3.9,1,.9h.7v1.4h-1c-1.6,0-2.3-.7-2.3-2.1ZM109.8,281.1v1.4h-3.2v8.5h-1.8v-8.5h-3.2v-1.4h8.1ZM111.1,287.2v3.9h-1.7v-7.3h1.7v1.1h0c.4-.8.9-1.1,1.6-1.1h.8v1.5h-.7c-1.1,0-1.7.5-1.7,1.9ZM118.2,290.1c-.4.6-1.1,1.1-2.2,1.1s-2.3-.8-2.3-2.2,1.1-2,2.3-2.1l1.5-.2c.6,0,.7-.3.7-.8,0-.7-.4-1.1-1.3-1.1s-1.3.5-1.4,1.2h-1.7c0-1.2,1.1-2.4,3-2.4s3,1.1,3,2.7v3.5c0,.4,0,.9.1,1.2h-1.7c0-.3,0-.6,0-1h0ZM118.3,287.3c-.2.2-.5.3-.9.4l-.7.2c-.7.2-1.2.4-1.2,1.1s.4,1,1.2,1,1.7-.6,1.7-1.6v-1.1ZM120.3,283.8h1.8l2,5.5,1.9-5.5h1.7l-2.7,7.3h-2l-2.7-7.3ZM134.4,288.9c-.4,1.2-1.5,2.3-3.2,2.3s-3.5-1.5-3.5-3.8,1.4-3.8,3.5-3.8,3.3,1.5,3.3,3.8v.4h-5.1c0,1.3.7,2.1,1.8,2.1s1.3-.4,1.6-1h1.6ZM131.1,284.9c-1,0-1.6.6-1.8,1.8h3.4c0-1.1-.7-1.8-1.7-1.8ZM137.5,291.1c-1.3,0-2.1-.8-2.1-1.9v-8.4h1.7v8.3c0,.5.2.8.7.8h.5v1.3h-.8ZM16.8,294.1h4.1c2.2,0,3.5,1.2,3.5,3.2s-1.3,3.2-3.5,3.2h-2.4v3.5h-1.7v-9.9ZM20.6,299.2c1.3,0,2-.5,2-1.8s-.8-1.8-2-1.8h-2.1v3.6h2.1ZM27.2,304.1c-1.3,0-2.1-.8-2.1-1.9v-8.4h1.7v8.3c0,.5.2.8.7.8h.5v1.3h-.8ZM33,303.1c-.4.6-1.1,1.1-2.2,1.1s-2.3-.8-2.3-2.2,1.1-2,2.3-2.1l1.5-.2c.6,0,.7-.3.7-.8,0-.7-.4-1.1-1.3-1.1s-1.3.5-1.4,1.2h-1.7c0-1.2,1.1-2.4,3-2.4s3,1.1,3,2.7v3.5c0,.4,0,.9.1,1.2h-1.7c0-.3,0-.6,0-1h0ZM33.1,300.3c-.2.2-.5.3-.9.4l-.7.2c-.7.2-1.2.4-1.2,1.1s.4,1,1.2,1,1.7-.6,1.7-1.6v-1.1ZM36.7,302v-3.9h-1.4v-1.2h1.4v-2.7h1.7v2.7h1.7v1.2h-1.7v3.8c0,.6.3.9,1,.9h.7v1.4h-1c-1.6,0-2.3-.7-2.3-2.1ZM40.9,294.6c0-.6.4-1,1-1s1,.4,1,1-.5,1-1,1-1-.5-1-1ZM41.1,296.8h1.7v7.3h-1.7v-7.3ZM45.8,299.6v4.5h-1.7v-7.3h1.7v.9h0c.5-.6,1.1-1,2-1,1.4,0,2.4,1.1,2.4,2.7v4.7h-1.7v-4.6c0-.8-.4-1.4-1.3-1.4s-1.5.7-1.5,1.6ZM56.1,301.3v-4.5h1.7v7.3h-1.7v-.9h0c-.5.6-1,1-2,1-1.4,0-2.4-1.1-2.4-2.7v-4.7h1.7v4.6c0,.8.4,1.4,1.3,1.4s1.5-.7,1.5-1.6ZM60.7,299.5v4.6h-1.7v-7.3h1.7v.9h0c.4-.5,1-1,2-1s1.6.4,1.9,1.2h0c.5-.7,1.2-1.2,2.2-1.2s2.3,1.1,2.3,2.7v4.8h-1.7v-4.6c0-.9-.3-1.5-1.2-1.5s-1.4.7-1.4,1.5v4.6h-1.7v-4.6c0-.9-.4-1.5-1.2-1.5s-1.4.7-1.4,1.5ZM77.6,302.5l-3-5.9v7.6h-1.7v-9.9h2.1l2.8,5.7,2.8-5.7h2.1v9.9h-1.7v-7.6l-3,6h-.7ZM88.4,303.1c-.4.6-1.1,1.1-2.2,1.1s-2.3-.8-2.3-2.2,1.1-2,2.3-2.1l1.5-.2c.6,0,.7-.3.7-.8,0-.7-.4-1.1-1.3-1.1s-1.3.5-1.4,1.2h-1.7c0-1.2,1.1-2.4,3-2.4s3,1.1,3,2.7v3.5c0,.4,0,.9.1,1.2h-1.7c0-.3,0-.6,0-1h0ZM88.4,300.3c-.2.2-.5.3-.9.4l-.7.2c-.7.2-1.2.4-1.2,1.1s.4,1,1.2,1,1.7-.6,1.7-1.6v-1.1ZM90.9,302h1.7c.1.6.5,1,1.5,1s1.3-.4,1.3-1-.2-.8-1-.9l-1.3-.2c-1.5-.2-2-.9-2-2s1.1-2.4,2.9-2.4,2.8,1.1,2.9,2.2h-1.6c0-.6-.5-1-1.3-1s-1.3.4-1.3,1,.3.7,1.1.8l1.3.2c1.4.2,2,.8,2,2s-1.3,2.4-3,2.4-3-1-3.1-2.2ZM98.6,302v-3.9h-1.4v-1.2h1.4v-2.7h1.7v2.7h1.7v1.2h-1.7v3.8c0,.6.3.9,1,.9h.7v1.4h-1c-1.6,0-2.3-.7-2.3-2.1ZM109.3,301.9c-.4,1.2-1.5,2.3-3.2,2.3s-3.5-1.5-3.5-3.8,1.4-3.8,3.5-3.8,3.3,1.5,3.3,3.8v.4h-5.1c0,1.3.7,2.1,1.8,2.1s1.3-.4,1.6-1h1.6ZM106,297.9c-1,0-1.6.6-1.8,1.8h3.4c0-1.1-.7-1.8-1.7-1.8ZM112,300.2v3.9h-1.7v-7.3h1.7v1.1h0c.4-.8.9-1.1,1.6-1.1h.8v1.5h-.7c-1.1,0-1.7.5-1.7,1.9ZM114.7,300.4c0-2.3,1.4-3.8,3.4-3.8s3,1.1,3.2,2.6h-1.7c-.1-.8-.7-1.2-1.5-1.2s-1.8.8-1.8,2.2v.6c0,1.4.7,2.2,1.8,2.2s1.4-.5,1.5-1.3h1.7c-.2,1.4-1.4,2.6-3.2,2.6s-3.4-1.5-3.4-3.8ZM126.3,303.1c-.4.6-1.1,1.1-2.2,1.1s-2.3-.8-2.3-2.2,1.1-2,2.3-2.1l1.5-.2c.6,0,.7-.3.7-.8,0-.7-.4-1.1-1.3-1.1s-1.3.5-1.4,1.2h-1.7c0-1.2,1.1-2.4,3-2.4s3,1.1,3,2.7v3.5c0,.4,0,.9.1,1.2h-1.7c0-.3,0-.6,0-1h0ZM126.3,300.3c-.2.2-.5.3-.9.4l-.7.2c-.7.2-1.2.4-1.2,1.1s.4,1,1.2,1,1.7-.6,1.7-1.6v-1.1ZM130.9,300.2v3.9h-1.7v-7.3h1.7v1.1h0c.3-.8.9-1.1,1.6-1.1h.8v1.5h-.7c-1.1,0-1.7.5-1.7,1.9ZM138.8,303.1c-.4.7-1.2,1.1-2.2,1.1-1.8,0-3-1.5-3-3.8s1.2-3.8,3-3.8,1.8.5,2.2,1.1h0v-4.1h1.7v10.4h-1.7v-1h0ZM135.3,300.7c0,1.4.7,2.2,1.8,2.2s1.8-.8,1.8-2.1v-.8c0-1.3-.7-2.1-1.8-2.1s-1.8.8-1.8,2.2v.5Z" fill="#fff" stroke-width="0"/>
  <g>
    <path d="M16,340.6c0,8.9,7.1,16.2,16,16.5v-1c-8.5-.3-15.2-7.4-14.9-16,.3-8.1,6.8-14.7,14.9-14.9v-1c-8.9.3-16,7.6-16,16.5Z" fill="#fff" stroke-width="0"/>
    <path d="M33,324.1v1c8.5.3,15.2,7.4,14.9,16-.3,8.1-6.8,14.7-14.9,14.9v1c9.1-.3,16.2-7.9,16-17-.3-8.7-7.3-15.7-16-16Z" fill="#fff" stroke-width="0"/>
    <path d="M40.2,336.9h-4.6c0-1.4-1.2-2.6-2.6-2.6s-2.6,1.2-2.6,2.6h-4.6c-.3,0-.5-.2-.6-.4,0-.3.1-.5.4-.6,0,0,0,0,0,0h2.1c0,0,.2,0,.3,0l7.8-4.9,2.5,4.9h1.2l-3-5.9c-.1-.3-.4-.4-.7-.2,0,0,0,0,0,0l-8.1,5.1h-1.9c-.8,0-1.5.7-1.5,1.5v11.4c0,.9.7,1.5,1.5,1.5h14.4c.3,0,.5-.2.5-.5v-11.3c0-.3-.2-.5-.5-.5h0ZM31.5,336.9c0-.9.7-1.5,1.5-1.5s1.5.7,1.5,1.5h-3.1ZM39.7,348.3h-13.9c-.3,0-.5-.2-.5-.5v-9.9c.2,0,.4.1.6.1h13.9v2.6h-2.8c-.9.6-1.4,1.6-1.3,2.6,0,1,.4,2,1.3,2.5h.1c0,0,2.7,0,2.7,0v2.6h0ZM37.3,344.7c-.9-.8-.9-2.2,0-3,0,0,0,0,0,0h2.4v3.1h-2.4Z" fill="#fff" stroke-width="0"/>
  </g>
  <path d="M24.2,365.2v1.4h-3.1v8.5h-1.8v-8.5h-3.2v-1.4h8.1ZM25.5,371.2v3.9h-1.7v-7.3h1.7v1.1h0c.4-.8.9-1.1,1.6-1.1h.8v1.5h-.7c-1.1,0-1.7.5-1.7,1.9ZM32.7,374.2c-.4.6-1.1,1.1-2.2,1.1s-2.3-.8-2.3-2.2,1.1-2,2.3-2.1l1.5-.2c.6,0,.7-.3.7-.8,0-.7-.4-1.1-1.3-1.1s-1.3.5-1.4,1.2h-1.7c0-1.2,1.1-2.4,3-2.4s3,1.1,3,2.7v3.5c0,.4,0,.9.1,1.2h-1.7c0-.3,0-.6,0-1h0ZM32.7,371.4c-.2.2-.5.3-.9.4l-.7.2c-.7.2-1.2.4-1.2,1.1s.4,1,1.2,1,1.7-.6,1.7-1.6v-1.1ZM34.7,367.8h1.8l2,5.5,1.9-5.5h1.7l-2.7,7.3h-2l-2.7-7.3ZM48.8,373c-.4,1.2-1.5,2.3-3.2,2.3s-3.5-1.5-3.5-3.8,1.4-3.8,3.5-3.8,3.3,1.5,3.3,3.8v.4h-5.1c0,1.3.7,2.1,1.8,2.1s1.3-.4,1.6-1h1.6ZM45.5,369c-1,0-1.6.6-1.8,1.8h3.4c0-1.1-.7-1.8-1.7-1.8ZM51.9,375.1c-1.3,0-2.1-.8-2.1-1.9v-8.4h1.7v8.3c0,.5.2.8.7.8h.5v1.3h-.8ZM59.9,373c-.3,1.2-1.5,2.3-3.2,2.3s-3.5-1.5-3.5-3.8,1.4-3.8,3.5-3.8,3.3,1.5,3.3,3.8v.4h-5.1c0,1.3.7,2.1,1.8,2.1s1.3-.4,1.6-1h1.6ZM56.6,369c-1,0-1.6.6-1.8,1.8h3.4c0-1.1-.7-1.8-1.7-1.8ZM59.9,367.8h1.8l1.7,2.5,1.6-2.5h1.8l-2.4,3.6,2.6,3.7h-1.8l-1.8-2.6-1.8,2.6h-1.8l2.6-3.8-2.5-3.5ZM22.8,382.4v1.4h-4.3v4.3h-1.7v-9.9h6.4v1.4h-4.7v2.8h4.3ZM23.6,384.5c0-2.3,1.4-3.8,3.5-3.8s3.5,1.5,3.5,3.8-1.4,3.8-3.5,3.8-3.5-1.5-3.5-3.8ZM28.8,384.2c0-1.4-.7-2.2-1.8-2.2s-1.8.8-1.8,2.2v.6c0,1.4.7,2.2,1.8,2.2s1.8-.8,1.8-2.2v-.6ZM33.1,384.2v3.9h-1.7v-7.3h1.7v1.1h0c.3-.8.9-1.1,1.6-1.1h.8v1.5h-.7c-1.1,0-1.7.5-1.7,1.9ZM42.6,386c-.4,1.2-1.5,2.3-3.2,2.3s-3.5-1.5-3.5-3.8,1.4-3.8,3.5-3.8,3.3,1.5,3.3,3.8v.4h-5.1c0,1.3.7,2.1,1.8,2.1s1.3-.4,1.6-1h1.6ZM39.3,382c-1,0-1.6.6-1.8,1.8h3.4c0-1.1-.7-1.8-1.7-1.8ZM43.4,378.7c0-.6.4-1,1-1s1,.4,1,1-.5,1-1,1-1-.5-1-1ZM43.6,380.8h1.7v7.3h-1.7v-7.3ZM46.4,388.4h1.8c.1.7.6,1.2,1.5,1.2s1.6-.7,1.6-1.8v-1.1h0c-.4.7-1.1,1.1-2.1,1.1-1.7,0-2.9-1.3-2.9-3.6s1.2-3.6,2.9-3.6,1.7.4,2.1,1.1h0v-1h1.7v7c0,1.7-1,2.9-3.3,2.9s-3.1-1-3.2-2.3ZM47.9,384.5c0,1.4.6,2,1.7,2s1.7-.8,1.7-2.1v-.4c0-1.2-.7-2.1-1.7-2.1s-1.7.7-1.7,2v.5ZM56,383.6v4.5h-1.7v-7.3h1.7v.9h0c.5-.6,1.1-1,2-1,1.4,0,2.4,1.1,2.4,2.7v4.7h-1.7v-4.6c0-.8-.4-1.4-1.3-1.4s-1.5.7-1.5,1.6ZM68.5,378c2.4,0,3.8,1.4,4.2,3.3h-1.8c-.2-1-.9-1.8-2.4-1.8s-2.9,1.3-2.9,3.4v.6c0,2.1,1.1,3.4,2.9,3.4s2.2-.9,2.4-1.8h1.8c-.3,1.9-1.8,3.3-4.2,3.3s-4.7-2-4.7-5.1,1.9-5.1,4.7-5.1ZM77.8,387.2c-.4.6-1.1,1.1-2.2,1.1s-2.3-.8-2.3-2.2,1.1-2,2.3-2.1l1.5-.2c.6,0,.7-.3.7-.8,0-.7-.4-1.1-1.3-1.1s-1.3.5-1.4,1.2h-1.7c0-1.2,1.1-2.4,3-2.4s3,1.1,3,2.7v3.5c0,.4,0,.9.1,1.2h-1.7c0-.3,0-.6,0-1h0ZM77.8,384.4c-.2.2-.5.3-.9.4l-.7.2c-.7.2-1.2.4-1.2,1.1s.4,1,1.2,1,1.7-.6,1.7-1.6v-1.1ZM80.3,386h1.7c.1.6.5,1,1.5,1s1.3-.4,1.3-1-.2-.8-1-.9l-1.3-.2c-1.5-.2-2-.9-2-2s1.1-2.4,2.9-2.4,2.8,1.1,2.9,2.2h-1.6c0-.6-.5-1-1.3-1s-1.3.4-1.3,1,.3.7,1.1.8l1.3.2c1.4.2,2,.8,2,2s-1.3,2.4-3,2.4-3-1-3.1-2.2ZM89,383.6v4.5h-1.7v-10.4h1.7v3.9h0c.5-.6,1.1-1,2-1,1.4,0,2.4,1.1,2.4,2.7v4.7h-1.7v-4.6c0-.8-.4-1.4-1.3-1.4s-1.5.7-1.5,1.6Z" fill="#fff" stroke-width="0"/>
  <g>
    <path d="M16,424.6c0,8.9,7.1,16.2,16,16.5v-1c-8.3-.3-14.9-7.1-14.9-15.5s6.7-15.2,14.9-15.4v-1c-8.9.3-16,7.6-16,16.5Z" fill="#fff" stroke-width="0"/>
    <path d="M49,424.6c0,8.9-7.1,16.2-16,16.5v-1c8.3-.3,14.9-7.1,14.9-15.5s-6.7-15.2-14.9-15.5v-1c8.9.3,16,7.6,16,16.5Z" fill="#fff" stroke-width="0"/>
    <path d="M27.8,428h.2c.2,0,.3,0,.4,0,0,0,.1,0,.2.1,0,0,0,.1,0,.2,0,.1,0,.2-.1.3,0,0-.3.1-.5.1h-.2v-.8h0ZM27.2,430.5h.6v-1.1h.2c.3,0,.5,0,.7,0,.1,0,.3-.2.4-.3,0-.1.1-.3.1-.5s0-.2,0-.4c0-.1,0-.2-.2-.3,0,0-.1-.1-.2-.2,0,0-.2,0-.3,0-.1,0-.3,0-.4,0h-.8v3Z" fill="#fff" stroke-width="0"/>
    <path d="M40.2,416.5c-.2,0-.4.2-.4.4v16.4c0,.7-.5,1.2-1.2,1.2h-12.1c-.6,0-1-.5-1-1v-17.6c0-.6.5-1,1-1h10.7c.6,0,1,.5,1,1v15.6c0,.6-.5,1-1,1h-9.9c-.2,0-.4.2-.4.4s.2.4.4.4h9.9c1,0,1.9-.8,1.9-1.9v-15.6c0-1-.8-1.9-1.9-1.9h-10.7c-1,0-1.9.8-1.9,1.9v17.6c0,1,.8,1.9,1.9,1.9h12.1c1.1,0,2.1-.9,2.1-2.1v-16.4c0-.2-.2-.4-.4-.4" fill="#fff" stroke-width="0"/>
    <path d="M33,430c-.1,0-.2,0-.3-.1,0,0,0-.1,0-.3h-.6c0,0,0,.2,0,.2,0,0,0,.2.1.3,0,0,.1.2.2.2,0,0,.2.1.3.2.1,0,.2,0,.3,0,.2,0,.4,0,.6-.2.2-.2.4-.4.4-.7s0-.2,0-.3c0-.1,0-.2-.2-.3,0,0-.2-.1-.3-.2,0,0-.2,0-.4-.1-.2,0-.3-.1-.3-.2,0,0-.1-.1-.1-.2s0-.2,0-.2c0,0,.1,0,.2,0s.2,0,.2.1c0,0,0,.1,0,.2h.6c0-.1,0-.2,0-.3,0,0,0-.2-.2-.3,0,0-.2-.1-.3-.2-.1,0-.2,0-.4,0s-.3,0-.4.1c-.1,0-.2.2-.3.3,0,.1-.1.3-.1.4s0,.2,0,.3c0,.1.1.2.2.3,0,0,.2.1.4.2.2,0,.4.2.4.2,0,0,.1,0,.2.1,0,0,0,.1,0,.2,0,.1,0,.2-.1.3,0,0-.2.1-.3.1" fill="#fff" stroke-width="0"/>
    <path d="M35.3,430c-.1,0-.2,0-.3-.1,0,0,0-.1,0-.3h-.6c0,0,0,.2,0,.2,0,0,0,.2.1.3,0,0,.1.2.2.2,0,0,.2.1.3.2.1,0,.2,0,.3,0,.2,0,.4,0,.6-.2.2-.2.4-.4.4-.7s0-.2,0-.3c0-.1,0-.2-.2-.3,0,0-.2-.1-.3-.2,0,0-.2,0-.4-.1-.2,0-.3-.1-.3-.2,0,0-.1-.1-.1-.2s0-.2,0-.2c0,0,.1,0,.2,0s.2,0,.2.1c0,0,0,.1,0,.2h.6c0-.1,0-.2,0-.3,0,0,0-.2-.2-.3,0,0-.2-.1-.3-.2-.1,0-.2,0-.4,0s-.3,0-.4.1c-.1,0-.2.2-.3.3,0,.1-.1.3-.1.4s0,.2,0,.3c0,.1.1.2.2.3,0,0,.2.1.4.2.2,0,.4.2.4.2,0,0,.1,0,.2.1,0,0,0,.1,0,.2,0,.1,0,.2-.1.3,0,0-.2.1-.3.1" fill="#fff" stroke-width="0"/>
    <path d="M33.6,423.8c.2-.3.4-.8.6-1.2.5-.1.9-.3,1.2-.6-.4.8-1,1.4-1.8,1.8M28.7,422c.3.2.7.4,1.2.6.1.5.3.9.6,1.2-.8-.4-1.4-1-1.8-1.8M30.4,417.1c-.2.3-.4.8-.6,1.2-.5.1-.9.3-1.2.6.4-.8,1-1.4,1.8-1.8M35.4,418.9c-.3-.2-.7-.4-1.2-.6-.1-.5-.3-.9-.6-1.2.8.4,1.4,1,1.8,1.8M34.5,420.8h1.2c-.2.4-.6.8-1.3,1,0-.3,0-.7.1-1M32.4,422.2v-1.5h1.5c0,.5,0,.9-.2,1.3-.4,0-.8.2-1.3.2M32.4,424.1v-1.2c.4,0,.8,0,1.1-.1-.3.7-.7,1.2-1.1,1.4ZM31.7,422.9v1.2c-.4-.2-.8-.7-1.1-1.4.4,0,.7.1,1.1.1ZM30.2,420.8h1.5v1.5c-.5,0-.9,0-1.3-.2,0-.4-.2-.8-.2-1.3M29.6,420.8c0,.4,0,.7.1,1-.7-.3-1.1-.7-1.3-1h1.2,0ZM29.6,420.1h-1.2c.2-.4.6-.8,1.3-1,0,.3,0,.7-.1,1M31.7,418.7v1.5h-1.5c0-.5,0-.9.2-1.3.4,0,.8-.2,1.3-.2M31.7,416.8v1.2c-.4,0-.8,0-1.1.1.3-.7.7-1.2,1.1-1.4ZM32.4,418v-1.2c.4.2.8.7,1.1,1.4-.4,0-.7-.1-1.1-.1ZM33.9,420.1h-1.5v-1.5c.5,0,.9,0,1.3.2,0,.4.2.8.2,1.3M34.5,420.1c0-.4,0-.7-.1-1,.7.3,1.1.7,1.3,1h-1.2,0ZM32,416.1c-2.4,0-4.4,2-4.4,4.4s2,4.4,4.4,4.4,4.4-2,4.4-4.4-2-4.4-4.4-4.4Z" fill="#fff" stroke-width="0"/>
    <path d="M30.4,428.3l.3.9h-.7l.3-.9h0ZM28.9,430.5h.6l.3-.8h1.1l.3.8h.6l-1.3-3h-.4l-1.3,3h0Z" fill="#fff" stroke-width="0"/>
  </g>
  <path d="M16.8,449.2h4.1c2.2,0,3.5,1.2,3.5,3.2s-1.3,3.2-3.5,3.2h-2.4v3.5h-1.7v-9.9ZM20.6,454.2c1.3,0,2-.5,2-1.8s-.8-1.8-2-1.8h-2.1v3.6h2.1ZM29.1,458.2c-.4.6-1.1,1.1-2.2,1.1s-2.3-.8-2.3-2.2,1.1-2,2.3-2.1l1.5-.2c.6,0,.7-.3.7-.8,0-.7-.4-1.1-1.3-1.1s-1.3.5-1.4,1.2h-1.7c0-1.2,1.1-2.4,3-2.4s3,1.1,3,2.7v3.5c0,.4,0,.9.1,1.2h-1.7c0-.3,0-.6,0-1h0ZM29.2,455.4c-.2.2-.5.3-.9.4l-.7.2c-.7.2-1.2.4-1.2,1.1s.4,1,1.2,1,1.7-.6,1.7-1.6v-1.1ZM31.7,457.1h1.7c.1.6.5,1,1.5,1s1.3-.4,1.3-1-.2-.8-1-.9l-1.3-.2c-1.5-.2-2-.9-2-2s1.1-2.4,2.9-2.4,2.8,1.1,2.9,2.2h-1.6c0-.6-.5-1-1.3-1s-1.3.4-1.3,1,.3.7,1.1.8l1.3.2c1.4.2,2,.8,2,2s-1.3,2.4-3,2.4-3-1-3.1-2.2ZM38.3,457.1h1.7c.1.6.5,1,1.5,1s1.3-.4,1.3-1-.2-.8-1-.9l-1.3-.2c-1.5-.2-2-.9-2-2s1.1-2.4,2.9-2.4,2.8,1.1,2.9,2.2h-1.6c0-.6-.5-1-1.3-1s-1.3.4-1.3,1,.3.7,1.1.8l1.3.2c1.4.2,2,.8,2,2s-1.3,2.4-3,2.4-3-1-3.1-2.2ZM47.1,458.2h0v3.4h-1.7v-9.7h1.7v1h0c.4-.7,1.2-1.1,2.2-1.1,1.8,0,3,1.5,3,3.8s-1.2,3.8-3,3.8-1.8-.5-2.2-1.1ZM47.1,455.9c0,1.3.7,2.1,1.8,2.1s1.8-.8,1.8-2.2v-.5c0-1.4-.7-2.2-1.8-2.2s-1.8.8-1.8,2.1v.8ZM52.9,455.5c0-2.3,1.4-3.8,3.5-3.8s3.5,1.5,3.5,3.8-1.4,3.8-3.5,3.8-3.5-1.5-3.5-3.8ZM58.1,455.2c0-1.4-.7-2.2-1.8-2.2s-1.8.8-1.8,2.2v.6c0,1.4.7,2.2,1.8,2.2s1.8-.8,1.8-2.2v-.6ZM62.4,455.3v3.9h-1.7v-7.3h1.7v1.1h0c.4-.8.9-1.1,1.6-1.1h.8v1.5h-.7c-1.1,0-1.7.5-1.7,1.9ZM66.5,457v-3.9h-1.4v-1.2h1.4v-2.7h1.7v2.7h1.7v1.2h-1.7v3.8c0,.6.3.9,1,.9h.7v1.4h-1c-1.6,0-2.3-.7-2.3-2.1ZM16.3,470.1h1.7c.1.6.5,1,1.5,1s1.3-.4,1.3-1-.2-.8-1-.9l-1.3-.2c-1.5-.2-2-.9-2-2s1.1-2.4,2.9-2.4,2.8,1.1,2.9,2.2h-1.6c0-.6-.5-1-1.3-1s-1.3.4-1.3,1,.3.7,1.1.8l1.3.2c1.4.2,2,.8,2,2s-1.3,2.4-3,2.4-3-1-3.1-2.2ZM29.7,470c-.4,1.2-1.5,2.3-3.2,2.3s-3.5-1.5-3.5-3.8,1.4-3.8,3.5-3.8,3.3,1.5,3.3,3.8v.4h-5.1c0,1.3.7,2.1,1.8,2.1s1.3-.4,1.6-1h1.6ZM26.4,466c-1,0-1.6.6-1.8,1.8h3.4c0-1.1-.7-1.8-1.7-1.8ZM32.4,468.3v3.9h-1.7v-7.3h1.7v1.1h0c.3-.8.9-1.1,1.6-1.1h.8v1.5h-.7c-1.1,0-1.7.5-1.7,1.9ZM35,464.9h1.8l2,5.5,1.9-5.5h1.7l-2.7,7.3h-2l-2.7-7.3ZM42.7,462.7c0-.6.4-1,1-1s1,.4,1,1-.5,1-1,1-1-.5-1-1ZM42.9,464.9h1.7v7.3h-1.7v-7.3ZM45.5,468.5c0-2.3,1.4-3.8,3.4-3.8s3,1.1,3.2,2.6h-1.7c-.1-.8-.7-1.2-1.5-1.2s-1.8.8-1.8,2.2v.6c0,1.4.7,2.2,1.8,2.2s1.4-.5,1.5-1.3h1.7c-.2,1.4-1.4,2.6-3.2,2.6s-3.4-1.5-3.4-3.8ZM59.4,470c-.3,1.2-1.5,2.3-3.2,2.3s-3.5-1.5-3.5-3.8,1.4-3.8,3.5-3.8,3.3,1.5,3.3,3.8v.4h-5.1c0,1.3.7,2.1,1.8,2.1s1.3-.4,1.6-1h1.6ZM56.1,466c-1,0-1.6.6-1.8,1.8h3.4c0-1.1-.7-1.8-1.7-1.8ZM60,470.1h1.7c.1.6.5,1,1.5,1s1.3-.4,1.3-1-.2-.8-1-.9l-1.3-.2c-1.5-.2-2-.9-2-2s1.1-2.4,2.9-2.4,2.8,1.1,2.9,2.2h-1.6c0-.6-.5-1-1.3-1s-1.3.4-1.3,1,.3.7,1.1.8l1.3.2c1.4.2,2,.8,2,2s-1.3,2.4-3,2.4-3-1-3.1-2.2Z" fill="#fff" stroke-width="0"/>
</svg>