<svg width="147" height="70" viewBox="0 0 147 70" fill="none" xmlns="http://www.w3.org/2000/svg">
<path d="M59.2878 3.85641V11.9101H47.5776V0.199951H55.6313C57.6487 0.199951 59.2878 1.83905 59.2878 3.85641Z" fill="white"/>
<path d="M59.2878 23.62H47.5776V35.3301H59.2878V23.62Z" fill="white"/>
<path d="M35.8676 0.199951H24.1575V11.9101H35.8676V0.199951Z" fill="#FFD000"/>
<path d="M12.4474 9.58538V0.199951H0.737305V31.6738C0.737305 33.6912 2.37641 35.3303 4.39376 35.3303H12.4474V25.9449C12.4474 24.6604 13.4876 23.6202 14.7721 23.6202H24.1575V11.9101H14.7721C13.4876 11.9101 12.4474 10.8699 12.4474 9.58538Z" fill="white"/>
<path d="M35.8676 23.62H24.1575V35.3301H35.8676V23.62Z" fill="white"/>
<path d="M13.5034 48.2147C12.6996 48.2147 12.0455 47.9547 11.5097 47.411C10.9817 46.8751 10.7216 46.2131 10.7216 45.3936C10.7216 44.574 10.9738 43.8727 11.5097 43.3368C12.0376 42.7931 12.7075 42.5331 13.5349 42.5331C14.3229 42.5331 14.9691 42.801 15.505 43.3447C16.0408 43.8885 16.3009 44.5425 16.3009 45.3463C16.3009 46.1501 16.0408 46.8436 15.505 47.3952C14.9691 47.9468 14.315 48.2147 13.5034 48.2147ZM16.6791 42.3045C15.8281 41.4929 14.7563 41.091 13.4876 41.091C12.2189 41.091 11.1472 41.5007 10.3119 42.3045C9.47655 43.1162 9.05101 44.1564 9.05101 45.3857C9.05101 46.615 9.47655 47.608 10.304 48.4117C11.1314 49.2077 12.1874 49.6174 13.4246 49.6174C14.6618 49.6174 15.8044 49.2155 16.6634 48.4117C17.5223 47.608 17.9636 46.5835 17.9636 45.3621C17.9636 44.1406 17.5302 43.1162 16.6791 42.3045ZM51.4706 41.1855V45.8428C51.4706 47.1745 50.9584 48.0887 49.469 48.0887C47.9797 48.0887 47.4674 47.1745 47.4674 45.8428V41.1855H45.852V46.1895C45.852 48.6482 47.5147 49.6174 49.469 49.6174C51.4233 49.6174 53.0861 48.656 53.0861 46.1895V41.1855H51.4706ZM41.7306 41.1855V48.065H45.2294V49.5071H40.123V41.1855H41.7306ZM35.9228 44.9444C36.7187 44.9444 37.3964 44.574 37.3964 43.786C37.3964 42.998 36.9394 42.6276 35.9228 42.6276H34.9535V44.9444H35.9228ZM36.3799 41.1855C38.1293 41.1855 39.004 42.3203 39.004 43.7781C39.004 45.236 37.9165 46.3865 36.3168 46.3865H34.9535V49.5071H33.346V41.1855H36.3799ZM32.2506 41.1855V42.6276H29.5161V49.5071H27.9086V42.6276H25.1741V41.1855H32.2506ZM56.9474 41.0752C57.7591 41.0752 58.5392 41.2801 59.2879 41.682V43.3211C58.421 42.801 57.8458 42.4779 56.9711 42.4779C56.0964 42.4779 55.7969 42.7773 55.7733 43.1871C55.7496 43.5023 55.9466 43.7703 56.3643 44.0382C56.4825 44.117 56.9238 44.3455 57.7118 44.7317C58.3816 45.0626 58.886 45.4094 59.1854 45.8034C59.4849 46.1974 59.6425 46.6702 59.6425 47.2218C59.6425 47.9389 59.3824 48.5142 58.8702 48.9555C58.358 49.3968 57.6882 49.6174 56.8686 49.6174C56.3406 49.6174 55.8757 49.5623 55.4975 49.4441C55.1113 49.3259 54.6858 49.1289 54.2051 48.8373V47.0091C55.0956 47.7498 55.9072 48.2069 56.6953 48.2069C57.436 48.2069 57.9325 47.9232 57.9325 47.4188C57.9325 47.08 57.7749 46.7726 57.3651 46.5284C57.0262 46.3235 56.5771 46.0949 56.0491 45.8034C55.4187 45.4566 54.9064 45.1414 54.5833 44.7395C54.2602 44.3376 54.0948 43.8963 54.0948 43.3762C54.0948 42.6749 54.3548 42.1233 54.8749 41.7056C55.395 41.288 56.0806 41.0831 56.9395 41.0831M21.7225 41.0752C22.5342 41.0752 23.3143 41.2801 24.063 41.682V43.3211C23.204 42.801 22.6209 42.4779 21.7462 42.4779C20.8715 42.4779 20.572 42.7773 20.5484 43.1871C20.5247 43.5023 20.7217 43.7703 21.1394 44.0382C21.2576 44.117 21.6989 44.3455 22.4869 44.7317C23.1567 45.0626 23.6611 45.4094 23.9684 45.8034C24.2679 46.1974 24.4176 46.6702 24.4176 47.2218C24.4176 47.9389 24.1575 48.5142 23.6453 48.9555C23.1331 49.3968 22.4633 49.6174 21.6437 49.6174C21.1079 49.6174 20.6508 49.5623 20.2725 49.4441C19.8943 49.3259 19.4609 49.1289 18.9802 48.8373V47.0091C19.8707 47.7498 20.6823 48.2069 21.4704 48.2069C22.2111 48.2069 22.7076 47.9232 22.7076 47.4188C22.7076 47.08 22.5578 46.7726 22.1402 46.5284C21.8013 46.3235 21.3521 46.0949 20.8242 45.8034C20.1937 45.4566 19.6815 45.1414 19.3584 44.7395C19.0353 44.3376 18.8699 43.8963 18.8699 43.3762C18.8699 42.6749 19.1299 42.1233 19.65 41.7056C20.1701 41.288 20.8557 41.0831 21.7146 41.0831M2.34488 41.1855V44.5031H6.29291V41.1855H7.90049V49.5071H6.29291V46.1816H2.34488V49.5071H0.737305V41.1855H2.34488Z" fill="white"/>
<line x1="72.9525" y1="0.0856934" x2="72.9525" y2="49.9157" stroke="white" stroke-width="0.39864"/>
<path d="M101.415 20.501H87.9192C88.2196 21.2659 88.6129 22.0091 89.0898 22.7307H102.186C101.874 22.0153 101.616 21.269 101.418 20.501H101.415Z" fill="#FFDD5E"/>
<path d="M102.614 23.6257H89.7307C90.2634 24.3132 90.8765 24.9729 91.5578 25.6077H103.84C103.382 24.9821 102.973 24.3194 102.614 23.6257Z" fill="#FFDD5E"/>
<path d="M104.658 26.6296H92.7502C93.5214 27.2397 94.3606 27.8188 95.2618 28.3639H106.438C105.797 27.8343 105.203 27.2552 104.658 26.6296Z" fill="#FFDD5E"/>
<path d="M128.466 25.6077H140.748C141.429 24.9729 142.042 24.3132 142.575 23.6257H129.692C129.333 24.3194 128.924 24.9821 128.466 25.6077Z" fill="#FFDD5E"/>
<path d="M121.16 30.9993H131.42C132.656 30.5534 133.833 30.0579 134.935 29.5128H124.267C123.3 30.1198 122.26 30.6184 121.16 30.9993Z" fill="#FFDD5E"/>
<path d="M130.12 22.7307H143.216C143.69 22.0091 144.083 21.2659 144.387 20.501H130.891C130.693 21.269 130.432 22.0153 130.123 22.7307H130.12Z" fill="#FFDD5E"/>
<path d="M145.096 17.2555C145.105 17.0914 145.111 16.9242 145.111 16.757C145.111 16.3822 145.087 16.0106 145.046 15.639H100.985C101.561 7.83189 108.132 1.67539 116.153 1.67539C123.251 1.67539 129.212 6.49715 130.891 13.016H144.387C141.448 5.56191 129.924 0 116.156 0C100.811 0 88.2566 6.90594 87.2625 15.639C87.2471 15.7877 87.2316 15.9394 87.2223 16.0911C87.2192 16.1407 87.2161 16.1902 87.213 16.2398C87.213 16.2924 87.2068 16.3482 87.2068 16.4008C87.2037 16.5185 87.1975 16.6393 87.1975 16.7601C87.1975 17.1348 87.2223 17.5064 87.2625 17.878H131.318C131.272 18.5098 131.188 19.1291 131.067 19.7361H144.659C144.891 18.9836 145.037 18.2156 145.09 17.4352C145.093 17.3856 145.096 17.333 145.099 17.2834C145.099 17.2772 145.099 17.2679 145.099 17.2617L145.096 17.2555Z" fill="#FFDD5E"/>
<path d="M125.865 28.3639H137.041C137.945 27.8188 138.781 27.2397 139.553 26.6296H127.645C127.1 27.2552 126.506 27.8343 125.865 28.3639Z" fill="#FFDD5E"/>
<path d="M108.039 29.5128H97.3706C98.4731 30.0579 99.6499 30.5534 100.886 30.9993H111.145C110.046 30.6184 109.005 30.1198 108.039 29.5128Z" fill="#FFDD5E"/>
<path d="M116.153 33.5171C120.024 33.5171 123.718 33.0773 127.094 32.2783H105.212C108.587 33.0773 112.282 33.5171 116.153 33.5171Z" fill="#FFDD5E"/>
<path d="M92.6108 50.0014C86.4574 50.0014 85.5407 49.2799 85.5098 46.437H89.0092V46.5206C89.0092 47.3041 89.5542 47.7036 92.5303 47.7036C95.3174 47.7036 95.8284 47.3258 95.8284 46.5825V46.502C95.8284 45.895 95.4661 45.6659 91.4061 45.4708C86.3769 45.2199 85.5748 44.424 85.5748 42.0054C85.5748 39.5868 86.6029 38.54 92.2144 38.54C98.5072 38.54 98.9314 39.7354 98.9469 42.024H95.4475V41.9713C95.4475 41.1414 94.5185 40.8038 92.2454 40.8038C89.9723 40.8038 89.0773 41.1011 89.0773 41.8289C89.0773 42.4297 89.4025 42.5535 93.4655 42.7641C98.47 43.0273 99.3154 44.0803 99.3154 46.341C99.3154 48.868 98.3492 49.9983 92.6139 49.9983L92.6108 50.0014Z" fill="#FFDD5E"/>
<path d="M107.894 50.0014C101.787 50.0014 100.808 48.7998 100.808 44.9412C100.808 44.2227 100.808 38.7661 100.808 38.7661H104.308V44.7492C104.308 46.7436 105.029 47.0099 107.891 47.0099C110.752 47.0099 111.474 46.7436 111.474 44.7492V38.7661H114.973C114.973 38.7661 114.973 44.2351 114.973 44.9412C114.973 48.7998 113.994 50.0014 107.887 50.0014H107.894Z" fill="#FFDD5E"/>
<path d="M125.4 49.7784L120.619 41.7422H120.337V49.7784H116.986V38.7661H122.876L127.642 46.8055H127.943V38.7661H131.275V49.7784H125.4Z" fill="#FFDD5E"/>
<path d="M140.094 50.0014C133.941 50.0014 133.024 49.2799 132.993 46.437H136.493V46.5206C136.493 47.3041 137.038 47.7036 140.014 47.7036C142.801 47.7036 143.312 47.3258 143.312 46.5825V46.502C143.312 45.895 142.95 45.6659 138.89 45.4708C133.861 45.2199 133.058 44.424 133.058 42.0054C133.058 39.5868 134.087 38.54 139.698 38.54C145.991 38.54 146.415 39.7354 146.431 42.024H142.931V41.9713C142.931 41.1414 142.002 40.8038 139.729 40.8038C137.456 40.8038 136.561 41.1011 136.561 41.8289C136.561 42.4297 136.886 42.5535 140.949 42.7641C145.954 43.0273 146.799 44.0803 146.799 46.341C146.799 48.868 145.833 49.9983 140.098 49.9983L140.094 50.0014Z" fill="#FFDD5E"/>
<path d="M3.2006 69.2976C2.79154 69.2976 2.41013 69.2229 2.05635 69.0737C1.70809 68.9244 1.40406 68.7199 1.14426 68.4601C0.889978 68.2003 0.688213 67.8935 0.538962 67.5397C0.395239 67.1804 0.323377 66.7962 0.323377 66.3872C0.323377 65.9726 0.395239 65.5884 0.538962 65.2346C0.688213 64.8809 0.889978 64.5741 1.14426 64.3143C1.40406 64.0544 1.70809 63.8499 2.05635 63.7007C2.41013 63.5514 2.79154 63.4768 3.2006 63.4768C3.60966 63.4768 3.98832 63.5514 4.33657 63.7007C4.69035 63.8499 4.99438 64.0544 5.24866 64.3143C5.50846 64.5741 5.71023 64.8809 5.85395 65.2346C6.0032 65.5884 6.07783 65.9726 6.07783 66.3872C6.07783 66.7962 6.0032 67.1804 5.85395 67.5397C5.71023 67.8935 5.50846 68.2003 5.24866 68.4601C4.99438 68.7199 4.69035 68.9244 4.33657 69.0737C3.98832 69.2229 3.60966 69.2976 3.2006 69.2976ZM3.2006 68.1202C3.44383 68.1202 3.66218 68.0732 3.85565 67.9792C4.04912 67.8852 4.21219 67.7581 4.34486 67.5978C4.48306 67.4375 4.58808 67.2523 4.65995 67.0422C4.73181 66.8322 4.76774 66.6083 4.76774 66.3706C4.76774 66.1329 4.73181 65.909 4.65995 65.699C4.58808 65.4889 4.48306 65.3065 4.34486 65.1517C4.21219 64.9914 4.04912 64.867 3.85565 64.7786C3.66218 64.6846 3.44383 64.6376 3.2006 64.6376C2.95738 64.6376 2.73627 64.6846 2.53727 64.7786C2.34379 64.867 2.17796 64.9914 2.03976 65.1517C1.9071 65.3065 1.80483 65.4889 1.73297 65.699C1.66111 65.909 1.62518 66.1329 1.62518 66.3706C1.62518 66.6083 1.66111 66.8322 1.73297 67.0422C1.80483 67.2523 1.9071 67.4375 2.03976 67.5978C2.17796 67.7581 2.34379 67.8852 2.53727 67.9792C2.73627 68.0732 2.95738 68.1202 3.2006 68.1202ZM6.94399 63.626H10.6587V64.7288H8.19604V65.9809H10.07V67.0505H8.19604V69.1566H6.94399V63.626ZM11.4137 63.626H15.1284V64.7288H12.6658V65.9809H14.5397V67.0505H12.6658V69.1566H11.4137V63.626ZM15.8835 63.626H17.1355V69.1566H15.8835V63.626ZM23.2072 68.1367C23.0911 68.297 22.9501 68.4491 22.7843 68.5928C22.6184 68.731 22.4333 68.8526 22.2287 68.9576C22.0297 69.0626 21.8114 69.1456 21.5737 69.2064C21.3415 69.2672 21.0983 69.2976 20.844 69.2976C20.4239 69.2976 20.0397 69.2257 19.6915 69.082C19.3432 68.9383 19.042 68.7393 18.7877 68.485C18.5389 68.2252 18.3454 67.9212 18.2073 67.5729C18.0691 67.2191 18 66.8322 18 66.4121C18 66.003 18.0691 65.6216 18.2073 65.2678C18.3454 64.9085 18.5389 64.5989 18.7877 64.3391C19.042 64.0738 19.3432 63.8665 19.6915 63.7172C20.0452 63.5625 20.435 63.4851 20.8606 63.4851C21.3747 63.4851 21.8224 63.5791 22.2039 63.767C22.5908 63.9549 22.9114 64.2258 23.1657 64.5796L22.3117 65.4005C22.1458 65.1683 21.9496 64.9831 21.7229 64.8449C21.4963 64.7012 21.2254 64.6293 20.9104 64.6293C20.6616 64.6293 20.4377 64.6763 20.2387 64.7703C20.0397 64.8587 19.8711 64.9831 19.7329 65.1434C19.5947 65.3037 19.4869 65.4917 19.4096 65.7073C19.3377 65.9173 19.3018 66.1412 19.3018 66.3789C19.3018 66.6221 19.3377 66.8488 19.4096 67.0588C19.4869 67.2689 19.5947 67.4513 19.7329 67.6061C19.8711 67.7608 20.037 67.8825 20.2304 67.9709C20.4239 68.0593 20.6423 68.1036 20.8855 68.1036C21.0845 68.1036 21.2558 68.0842 21.3996 68.0455C21.5488 68.0013 21.6787 67.946 21.7893 67.8797C21.9054 67.8078 22.0076 67.7277 22.0961 67.6392C22.1845 67.5453 22.2702 67.4513 22.3531 67.3573L23.2072 68.1367ZM23.8594 63.626H25.1115V69.1566H23.8594V63.626ZM27.7752 63.626H29.1599L31.1831 69.1566H29.8149L29.3921 67.888H27.4435L27.0206 69.1566H25.7105L27.7752 63.626ZM29.0936 66.9179L28.4219 64.8283L27.7337 66.9179H29.0936ZM31.7868 63.626H33.0388V68.0455H35.6839V69.1566H31.7868V63.626ZM38.3311 67.5066C38.4029 67.584 38.4858 67.6641 38.5798 67.747C38.6793 67.8244 38.7871 67.8963 38.9032 67.9626C39.0248 68.0289 39.1547 68.0842 39.2929 68.1284C39.4366 68.1671 39.5886 68.1865 39.7489 68.1865C39.8429 68.1865 39.9369 68.1727 40.0309 68.145C40.1248 68.1174 40.2105 68.0787 40.2879 68.0289C40.3653 67.9737 40.4261 67.9101 40.4703 67.8382C40.5201 67.7608 40.5449 67.6752 40.5449 67.5812C40.5449 67.3767 40.4454 67.2191 40.2464 67.1086C40.0474 66.9925 39.7324 66.8792 39.3012 66.7686C39.0911 66.7189 38.8949 66.647 38.7125 66.553C38.5356 66.459 38.3808 66.3457 38.2481 66.2131C38.121 66.0804 38.0215 65.9284 37.9496 65.757C37.8778 65.5856 37.8418 65.3949 37.8418 65.1849C37.8418 64.9527 37.8833 64.7344 37.9662 64.5298C38.0491 64.3253 38.1735 64.1457 38.3393 63.9909C38.5107 63.8306 38.7208 63.7062 38.9695 63.6177C39.2238 63.5238 39.5223 63.4768 39.865 63.4768C40.1469 63.4768 40.3957 63.5072 40.6113 63.568C40.8269 63.6233 41.0093 63.6924 41.1585 63.7753C41.3133 63.8527 41.4377 63.9356 41.5317 64.024C41.6312 64.107 41.7058 64.1733 41.7555 64.223L41.0342 65.019C40.9734 64.9693 40.9015 64.9168 40.8186 64.8615C40.7412 64.8007 40.6527 64.7454 40.5532 64.6957C40.4537 64.6459 40.3432 64.6045 40.2216 64.5713C40.1055 64.5381 39.9811 64.5215 39.8484 64.5215C39.76 64.5215 39.6716 64.5354 39.5831 64.563C39.5002 64.5906 39.4228 64.6293 39.3509 64.6791C39.2846 64.7233 39.2293 64.7786 39.1851 64.8449C39.1464 64.9057 39.1271 64.9721 39.1271 65.0439C39.1271 65.2319 39.2266 65.3839 39.4256 65.5C39.6246 65.6161 39.8982 65.7128 40.2464 65.7902C40.451 65.8399 40.65 65.909 40.8434 65.9975C41.0424 66.0804 41.2193 66.1909 41.3741 66.3291C41.5289 66.4673 41.6533 66.6387 41.7472 66.8432C41.8412 67.0422 41.8882 67.2855 41.8882 67.5729C41.8882 67.8216 41.8329 68.0511 41.7224 68.2611C41.6118 68.4712 41.4598 68.6536 41.2663 68.8084C41.0784 68.9631 40.8545 69.082 40.5947 69.1649C40.3404 69.2534 40.064 69.2976 39.7655 69.2976C39.4891 69.2976 39.2376 69.2699 39.011 69.2147C38.7843 69.1649 38.5798 69.0986 38.3974 69.0157C38.215 68.9272 38.0491 68.8277 37.8999 68.7172C37.7562 68.6066 37.6318 68.4933 37.5268 68.3772L38.3311 67.5066ZM42.7739 63.626H44.0343V66.9013C44.0343 67.0837 44.0509 67.2495 44.084 67.3988C44.1227 67.5425 44.1835 67.6669 44.2664 67.7719C44.3494 67.8769 44.4571 67.9598 44.5898 68.0207C44.728 68.0759 44.8966 68.1036 45.0956 68.1036C45.2891 68.1036 45.4522 68.0759 45.5848 68.0207C45.723 67.9598 45.8336 67.8769 45.9165 67.7719C45.9994 67.6669 46.0574 67.5425 46.0906 67.3988C46.1293 67.2495 46.1487 67.0837 46.1487 66.9013V63.626H47.4173V67.0588C47.4173 67.3905 47.362 67.6945 47.2515 67.9709C47.1464 68.2473 46.9916 68.485 46.7871 68.684C46.5881 68.8775 46.3449 69.0295 46.0574 69.14C45.77 69.2506 45.4494 69.3059 45.0956 69.3059C44.7418 69.3059 44.4212 69.2534 44.1338 69.1483C43.8463 69.0378 43.6003 68.883 43.3958 68.684C43.1968 68.485 43.042 68.2473 42.9315 67.9709C42.8264 67.6945 42.7739 67.3905 42.7739 67.0588V63.626ZM48.4512 63.626H50.4661C50.8088 63.626 51.1017 63.6758 51.345 63.7753C51.5882 63.8748 51.7872 64.0075 51.942 64.1733C52.1023 64.3336 52.2184 64.5215 52.2902 64.7371C52.3676 64.9527 52.4063 65.1766 52.4063 65.4088C52.4063 65.7073 52.3538 65.9698 52.2488 66.1965C52.1493 66.4176 52.0111 66.6028 51.8342 66.752C51.6628 66.9013 51.4638 67.0146 51.2372 67.092C51.0105 67.1694 50.7728 67.2081 50.5241 67.2081H49.67V69.1566H48.4512V63.626ZM50.3997 66.1965C50.6319 66.1965 50.8143 66.1274 50.947 65.9892C51.0852 65.8455 51.1543 65.6603 51.1543 65.4336C51.1543 65.2015 51.0852 65.0135 50.947 64.8698C50.8088 64.7205 50.6236 64.6459 50.3914 64.6459H49.67V66.1965H50.3997ZM53.2448 63.626H57.0258V64.7205H54.4969V65.7985H56.462V66.8598H54.4969V68.0538H57.2083V69.1566H53.2448V63.626ZM58.0547 63.626H60.111C60.4316 63.626 60.7135 63.673 60.9568 63.767C61.2 63.8554 61.4017 63.9798 61.5621 64.1401C61.7279 64.2949 61.8495 64.4773 61.9269 64.6874C62.0098 64.8974 62.0513 65.1213 62.0513 65.359C62.0513 65.7183 61.9711 66.0334 61.8108 66.3043C61.656 66.5696 61.4349 66.7824 61.1475 66.9427L62.3746 69.1566H60.9982L59.97 67.1251H59.2735V69.1566H58.0547V63.626ZM60.0447 66.1218C60.2768 66.1218 60.4593 66.0527 60.5919 65.9146C60.7246 65.7764 60.7909 65.6022 60.7909 65.3922C60.7909 65.1655 60.7246 64.9859 60.5919 64.8532C60.4593 64.7205 60.2768 64.6542 60.0447 64.6542H59.2735V66.1218H60.0447ZM64.6749 63.626H66.0597L68.0828 69.1566H66.7147L66.2918 67.888H64.3433L63.9204 69.1566H62.6103L64.6749 63.626ZM65.9933 66.9179L65.3217 64.8283L64.6335 66.9179H65.9933ZM68.6865 63.626H69.8805L72.2768 67.2164V63.626H73.5123V69.1566H72.3763L69.922 65.5V69.1566H68.6865V63.626ZM74.5895 63.626H75.7835L78.1798 67.2164V63.626H79.4153V69.1566H78.2793L75.825 65.5V69.1566H74.5895V63.626ZM80.451 63.626H81.7114V66.9013C81.7114 67.0837 81.728 67.2495 81.7611 67.3988C81.7998 67.5425 81.8606 67.6669 81.9435 67.7719C82.0265 67.8769 82.1343 67.9598 82.2669 68.0207C82.4051 68.0759 82.5737 68.1036 82.7727 68.1036C82.9662 68.1036 83.1293 68.0759 83.2619 68.0207C83.4001 67.9598 83.5107 67.8769 83.5936 67.7719C83.6765 67.6669 83.7346 67.5425 83.7677 67.3988C83.8064 67.2495 83.8258 67.0837 83.8258 66.9013V63.626H85.0944V67.0588C85.0944 67.3905 85.0391 67.6945 84.9286 67.9709C84.8235 68.2473 84.6688 68.485 84.4642 68.684C84.2652 68.8775 84.022 69.0295 83.7346 69.14C83.4471 69.2506 83.1265 69.3059 82.7727 69.3059C82.4189 69.3059 82.0983 69.2534 81.8109 69.1483C81.5234 69.0378 81.2774 68.883 81.0729 68.684C80.8739 68.485 80.7191 68.2473 80.6086 67.9709C80.5036 67.6945 80.451 67.3905 80.451 67.0588V63.626ZM87.461 63.626H88.8457L90.8689 69.1566H89.5007L89.0779 67.888H87.1293L86.7064 69.1566H85.3963L87.461 63.626ZM88.7794 66.9179L88.1077 64.8283L87.4195 66.9179H88.7794ZM91.9999 64.7288H90.2089V63.626H95.043V64.7288H93.2603V69.1566H91.9999V64.7288ZM95.7561 63.626H97.0081V69.1566H95.7561V63.626ZM100.75 69.2976C100.341 69.2976 99.9593 69.2229 99.6055 69.0737C99.2572 68.9244 98.9532 68.7199 98.6934 68.4601C98.4391 68.2003 98.2374 67.8935 98.0881 67.5397C97.9444 67.1804 97.8725 66.7962 97.8725 66.3872C97.8725 65.9726 97.9444 65.5884 98.0881 65.2346C98.2374 64.8809 98.4391 64.5741 98.6934 64.3143C98.9532 64.0544 99.2572 63.8499 99.6055 63.7007C99.9593 63.5514 100.341 63.4768 100.75 63.4768C101.159 63.4768 101.537 63.5514 101.886 63.7007C102.239 63.8499 102.544 64.0544 102.798 64.3143C103.058 64.5741 103.259 64.8809 103.403 65.2346C103.552 65.5884 103.627 65.9726 103.627 66.3872C103.627 66.7962 103.552 67.1804 103.403 67.5397C103.259 67.8935 103.058 68.2003 102.798 68.4601C102.544 68.7199 102.239 68.9244 101.886 69.0737C101.537 69.2229 101.159 69.2976 100.75 69.2976ZM100.75 68.1202C100.993 68.1202 101.211 68.0732 101.405 67.9792C101.598 67.8852 101.761 67.7581 101.894 67.5978C102.032 67.4375 102.137 67.2523 102.209 67.0422C102.281 66.8322 102.317 66.6083 102.317 66.3706C102.317 66.1329 102.281 65.909 102.209 65.699C102.137 65.4889 102.032 65.3065 101.894 65.1517C101.761 64.9914 101.598 64.867 101.405 64.7786C101.211 64.6846 100.993 64.6376 100.75 64.6376C100.507 64.6376 100.285 64.6846 100.086 64.7786C99.8929 64.867 99.7271 64.9914 99.5889 65.1517C99.4562 65.3065 99.354 65.4889 99.2821 65.699C99.2102 65.909 99.1743 66.1329 99.1743 66.3706C99.1743 66.6083 99.2102 66.8322 99.2821 67.0422C99.354 67.2523 99.4562 67.4375 99.5889 67.5978C99.7271 67.7581 99.8929 67.8852 100.086 67.9792C100.285 68.0732 100.507 68.1202 100.75 68.1202ZM104.493 63.626H105.687L108.083 67.2164V63.626H109.319V69.1566H108.183L105.729 65.5V69.1566H104.493V63.626ZM111.894 63.626H113.909C114.252 63.626 114.545 63.6758 114.788 63.7753C115.031 63.8748 115.23 64.0075 115.385 64.1733C115.545 64.3336 115.661 64.5215 115.733 64.7371C115.811 64.9527 115.849 65.1766 115.849 65.4088C115.849 65.7073 115.797 65.9698 115.692 66.1965C115.592 66.4176 115.454 66.6028 115.277 66.752C115.106 66.9013 114.907 67.0146 114.68 67.092C114.454 67.1694 114.216 67.2081 113.967 67.2081H113.113V69.1566H111.894V63.626ZM113.843 66.1965C114.075 66.1965 114.257 66.1274 114.39 65.9892C114.528 65.8455 114.597 65.6603 114.597 65.4336C114.597 65.2015 114.528 65.0135 114.39 64.8698C114.252 64.7205 114.067 64.6459 113.834 64.6459H113.113V66.1965H113.843ZM117.567 63.626H118.952L120.975 69.1566H119.607L119.184 67.888H117.235L116.812 69.1566H115.502L117.567 63.626ZM118.885 66.9179L118.214 64.8283L117.526 66.9179H118.885ZM121.579 63.626H123.635C123.956 63.626 124.237 63.673 124.481 63.767C124.724 63.8554 124.926 63.9798 125.086 64.1401C125.252 64.2949 125.373 64.4773 125.451 64.6874C125.534 64.8974 125.575 65.1213 125.575 65.359C125.575 65.7183 125.495 66.0334 125.335 66.3043C125.18 66.5696 124.959 66.7824 124.671 66.9427L125.899 69.1566H124.522L123.494 67.1251H122.797V69.1566H121.579V63.626ZM123.569 66.1218C123.801 66.1218 123.983 66.0527 124.116 65.9146C124.249 65.7764 124.315 65.6022 124.315 65.3922C124.315 65.1655 124.249 64.9859 124.116 64.8532C123.983 64.7205 123.801 64.6542 123.569 64.6542H122.797V66.1218H123.569ZM127.879 64.7288H126.088V63.626H130.922V64.7288H129.14V69.1566H127.879V64.7288ZM131.636 63.626H132.83L135.226 67.2164V63.626H136.461V69.1566H135.325L132.871 65.5V69.1566H131.636V63.626ZM137.539 63.626H141.32V64.7205H138.791V65.7985H140.756V66.8598H138.791V68.0538H141.502V69.1566H137.539V63.626ZM142.348 63.626H144.405C144.725 63.626 145.007 63.673 145.25 63.767C145.494 63.8554 145.695 63.9798 145.856 64.1401C146.022 64.2949 146.143 64.4773 146.221 64.6874C146.304 64.8974 146.345 65.1213 146.345 65.359C146.345 65.7183 146.265 66.0334 146.105 66.3043C145.95 66.5696 145.729 66.7824 145.441 66.9427L146.668 69.1566H145.292L144.264 67.1251H143.567V69.1566H142.348V63.626ZM144.338 66.1218C144.571 66.1218 144.753 66.0527 144.886 65.9146C145.018 65.7764 145.085 65.6022 145.085 65.3922C145.085 65.1655 145.018 64.9859 144.886 64.8532C144.753 64.7205 144.571 64.6542 144.338 64.6542H143.567V66.1218H144.338Z" fill="white"/>
</svg>
