<svg width="259" height="51" viewBox="0 0 259 51" fill="none" xmlns="http://www.w3.org/2000/svg">
<path d="M7.475 22V6.128H1.12V1.323H19.317V6.128H13.024V22H7.475ZM21.4855 22V1.323H30.0415C32.2529 1.323 34.0302 1.90167 35.3735 3.059C36.7169 4.19567 37.3885 5.88 37.3885 8.112C37.3885 9.45533 37.0889 10.6333 36.4895 11.646C35.8902 12.6587 35.0945 13.4647 34.1025 14.064L38.5355 22H32.6455L29.1425 14.963H26.8485V22H21.4855ZM26.8485 10.654H29.5145C30.2379 10.654 30.8269 10.437 31.2815 10.003C31.7362 9.54833 31.9635 8.949 31.9635 8.205C31.9635 7.41967 31.7465 6.79967 31.3125 6.345C30.8785 5.89033 30.2689 5.663 29.4835 5.663H26.8485V10.654ZM38.9054 22L46.5004 1.323H52.7934L60.1094 22H54.1884L52.8554 17.722H45.9424L44.5784 22H38.9054ZM47.0584 13.723H51.7394L49.4454 6.128L47.0584 13.723ZM76.023 14.684L79.712 18.156C77.3974 21.07 74.3284 22.527 70.505 22.527C68.397 22.527 66.5267 22.062 64.894 21.132C63.282 20.202 62.0214 18.931 61.112 17.319C60.2027 15.6863 59.748 13.816 59.748 11.708C59.748 9.6 60.2027 7.72967 61.112 6.097C62.0214 4.44367 63.282 3.14166 64.894 2.191C66.506 1.24033 68.3764 0.764998 70.505 0.764998C72.2824 0.764998 73.9357 1.06467 75.465 1.664C77.015 2.26333 78.317 3.307 79.371 4.795L75.744 8.453C75.1654 7.66767 74.473 7.03733 73.667 6.562C72.861 6.08667 71.9414 5.849 70.908 5.849C69.7507 5.849 68.7587 6.10733 67.932 6.624C67.126 7.12 66.506 7.802 66.072 8.67C65.638 9.51733 65.421 10.4783 65.421 11.553C65.421 12.6483 65.638 13.6403 66.072 14.529C66.5267 15.397 67.1674 16.079 67.994 16.575C68.8207 17.071 69.7817 17.319 70.877 17.319C72.0964 17.319 73.078 17.102 73.822 16.668C74.566 16.234 75.2997 15.5727 76.023 14.684ZM81.4052 22V1.323H86.8922V9.073L93.0612 1.323H99.4782L92.5962 9.29L100.563 22H93.8982L88.8452 13.63L86.8922 15.924V22H81.4052ZM113.464 22V13.754L106.117 1.323H112.41L116.44 8.701L120.222 1.323H126.329L118.951 13.723V22H113.464ZM135.897 22.496C134.347 22.496 132.911 22.2273 131.588 21.69C130.286 21.1527 129.149 20.3983 128.178 19.427C127.227 18.435 126.483 17.2777 125.946 15.955C125.409 14.6323 125.14 13.1857 125.14 11.615C125.14 10.0443 125.409 8.59767 125.946 7.275C126.483 5.95233 127.227 4.80533 128.178 3.834C129.149 2.86267 130.286 2.10833 131.588 1.571C132.911 1.03366 134.347 0.764998 135.897 0.764998C137.447 0.764998 138.873 1.03366 140.175 1.571C141.498 2.10833 142.645 2.86267 143.616 3.834C144.587 4.80533 145.331 5.95233 145.848 7.275C146.385 8.59767 146.654 10.0443 146.654 11.615C146.654 13.1857 146.385 14.6323 145.848 15.955C145.331 17.2777 144.587 18.435 143.616 19.427C142.645 20.3983 141.498 21.1527 140.175 21.69C138.873 22.2273 137.447 22.496 135.897 22.496ZM135.897 17.35C136.992 17.35 137.912 17.0917 138.656 16.575C139.421 16.0583 139.999 15.366 140.392 14.498C140.785 13.63 140.981 12.669 140.981 11.615C140.981 10.561 140.785 9.6 140.392 8.732C139.999 7.864 139.421 7.17167 138.656 6.655C137.912 6.13833 136.992 5.88 135.897 5.88C134.822 5.88 133.903 6.13833 133.138 6.655C132.394 7.17167 131.815 7.864 131.402 8.732C131.009 9.6 130.813 10.561 130.813 11.615C130.813 12.669 131.009 13.63 131.402 14.498C131.815 15.366 132.394 16.0583 133.138 16.575C133.903 17.0917 134.822 17.35 135.897 17.35ZM149.125 13.94V1.323H154.612V13.444C154.612 14.5807 154.87 15.5107 155.387 16.234C155.924 16.9573 156.803 17.319 158.022 17.319C159.241 17.319 160.109 16.9573 160.626 16.234C161.143 15.49 161.401 14.56 161.401 13.444V1.323H166.95V13.94C166.95 15.6967 166.568 17.226 165.803 18.528C165.038 19.8093 163.984 20.8013 162.641 21.504C161.318 22.186 159.789 22.527 158.053 22.527C156.317 22.527 154.777 22.186 153.434 21.504C152.091 20.822 151.037 19.8403 150.272 18.559C149.507 17.257 149.125 15.7173 149.125 13.94ZM170.221 22V1.323H178.777C180.989 1.323 182.766 1.90167 184.109 3.059C185.453 4.19567 186.124 5.88 186.124 8.112C186.124 9.45533 185.825 10.6333 185.225 11.646C184.626 12.6587 183.83 13.4647 182.838 14.064L187.271 22H181.381L177.878 14.963H175.584V22H170.221ZM175.584 10.654H178.25C178.974 10.654 179.563 10.437 180.017 10.003C180.472 9.54833 180.699 8.949 180.699 8.205C180.699 7.41967 180.482 6.79967 180.048 6.345C179.614 5.89033 179.005 5.663 178.219 5.663H175.584V10.654ZM0.655 47.458L3.972 43.459C4.55067 44.0377 5.305 44.5647 6.235 45.04C7.18567 45.5153 8.20867 45.753 9.304 45.753C9.862 45.753 10.3993 45.6393 10.916 45.412C11.4327 45.1847 11.691 44.7507 11.691 44.11C11.691 43.5727 11.412 43.1283 10.854 42.777C10.296 42.405 9.50033 42.0537 8.467 41.723L7.32 41.351C6.47267 41.0617 5.62533 40.6793 4.778 40.204C3.95133 39.708 3.259 39.0777 2.701 38.313C2.16367 37.5483 1.895 36.608 1.895 35.492C1.895 34.2107 2.19467 33.0637 2.794 32.051C3.414 31.0383 4.32333 30.2427 5.522 29.664C6.72067 29.0647 8.17767 28.765 9.893 28.765C11.257 28.765 12.435 28.92 13.427 29.23C14.4397 29.54 15.2767 29.9017 15.938 30.315C16.5993 30.7283 17.085 31.1003 17.395 31.431L14.605 34.965C13.8817 34.4277 13.1273 33.9937 12.342 33.663C11.5567 33.3117 10.7507 33.136 9.924 33.136C9.38667 33.136 8.87 33.26 8.374 33.508C7.89867 33.7353 7.661 34.1383 7.661 34.717C7.661 35.3577 7.95033 35.8227 8.529 36.112C9.10767 36.4013 9.84133 36.6907 10.73 36.98L11.722 37.29C12.4247 37.4967 13.1273 37.7653 13.83 38.096C14.5533 38.406 15.2147 38.809 15.814 39.305C16.4133 39.801 16.8887 40.4313 17.24 41.196C17.612 41.94 17.798 42.8597 17.798 43.955C17.798 45.2157 17.4157 46.342 16.651 47.334C15.907 48.326 14.8943 49.101 13.613 49.659C12.3523 50.217 10.947 50.496 9.397 50.496C7.33033 50.496 5.59433 50.217 4.189 49.659C2.80433 49.101 1.62633 48.3673 0.655 47.458ZM20.2112 41.94V29.323H25.6982V41.444C25.6982 42.5807 25.9565 43.5107 26.4732 44.234C27.0105 44.9573 27.8888 45.319 29.1082 45.319C30.3275 45.319 31.1955 44.9573 31.7122 44.234C32.2288 43.49 32.4872 42.56 32.4872 41.444V29.323H38.0362V41.94C38.0362 43.6967 37.6538 45.226 36.8892 46.528C36.1245 47.8093 35.0705 48.8013 33.7272 49.504C32.4045 50.186 30.8752 50.527 29.1392 50.527C27.4032 50.527 25.8635 50.186 24.5202 49.504C23.1768 48.822 22.1228 47.8403 21.3582 46.559C20.5935 45.257 20.2112 43.7173 20.2112 41.94ZM41.3074 50V29.323H49.7394C51.9507 29.323 53.7281 29.912 55.0714 31.09C56.4147 32.2473 57.0864 33.942 57.0864 36.174C57.0864 37.5793 56.7764 38.809 56.1564 39.863C55.5364 40.8963 54.6891 41.7023 53.6144 42.281C52.5397 42.839 51.2997 43.118 49.8944 43.118H46.6704V50H41.3074ZM46.6704 38.809H49.2744C50.0184 38.809 50.6074 38.5713 51.0414 38.096C51.4754 37.6207 51.6924 37.011 51.6924 36.267C51.6924 35.4817 51.4857 34.8513 51.0724 34.376C50.6591 33.9007 50.0494 33.663 49.2434 33.663H46.6704V38.809ZM59.4945 50V29.323H74.3745V34.066H64.9815V37.259H72.7005V41.723H64.9815V45.257H75.0255V50H59.4945ZM77.5604 50V29.323H86.1164C88.3278 29.323 90.1051 29.9017 91.4484 31.059C92.7918 32.1957 93.4634 33.88 93.4634 36.112C93.4634 37.4553 93.1638 38.6333 92.5644 39.646C91.9651 40.6587 91.1694 41.4647 90.1774 42.064L94.6104 50H88.7204L85.2174 42.963H82.9234V50H77.5604ZM82.9234 38.654H85.5894C86.3128 38.654 86.9018 38.437 87.3564 38.003C87.8111 37.5483 88.0384 36.949 88.0384 36.205C88.0384 35.4197 87.8214 34.7997 87.3874 34.345C86.9534 33.8903 86.3438 33.663 85.5584 33.663H82.9234V38.654ZM96.4682 37.011L97.2742 29.323H102.73L100.343 37.011H96.4682ZM103.844 47.458L107.161 43.459C107.739 44.0377 108.494 44.5647 109.424 45.04C110.374 45.5153 111.397 45.753 112.493 45.753C113.051 45.753 113.588 45.6393 114.105 45.412C114.621 45.1847 114.88 44.7507 114.88 44.11C114.88 43.5727 114.601 43.1283 114.043 42.777C113.485 42.405 112.689 42.0537 111.656 41.723L110.509 41.351C109.661 41.0617 108.814 40.6793 107.967 40.204C107.14 39.708 106.448 39.0777 105.89 38.313C105.352 37.5483 105.084 36.608 105.084 35.492C105.084 34.2107 105.383 33.0637 105.983 32.051C106.603 31.0383 107.512 30.2427 108.711 29.664C109.909 29.0647 111.366 28.765 113.082 28.765C114.446 28.765 115.624 28.92 116.616 29.23C117.628 29.54 118.465 29.9017 119.127 30.315C119.788 30.7283 120.274 31.1003 120.584 31.431L117.794 34.965C117.07 34.4277 116.316 33.9937 115.531 33.663C114.745 33.3117 113.939 33.136 113.113 33.136C112.575 33.136 112.059 33.26 111.563 33.508C111.087 33.7353 110.85 34.1383 110.85 34.717C110.85 35.3577 111.139 35.8227 111.718 36.112C112.296 36.4013 113.03 36.6907 113.919 36.98L114.911 37.29C115.613 37.4967 116.316 37.7653 117.019 38.096C117.742 38.406 118.403 38.809 119.003 39.305C119.602 39.801 120.077 40.4313 120.429 41.196C120.801 41.94 120.987 42.8597 120.987 43.955C120.987 45.2157 120.604 46.342 119.84 47.334C119.096 48.326 118.083 49.101 116.802 49.659C115.541 50.217 114.136 50.496 112.586 50.496C110.519 50.496 108.783 50.217 107.378 49.659C105.993 49.101 104.815 48.3673 103.844 47.458ZM139.355 42.436V38.189H147.849V47.52C146.609 48.574 145.183 49.3387 143.571 49.814C141.959 50.2687 140.357 50.496 138.766 50.496C136.534 50.496 134.612 50.0517 133 49.163C131.388 48.2743 130.148 47.024 129.28 45.412C128.432 43.7793 128.009 41.847 128.009 39.615C128.009 37.507 128.463 35.6367 129.373 34.004C130.282 32.3713 131.543 31.09 133.155 30.16C134.787 29.23 136.658 28.765 138.766 28.765C140.481 28.765 142.083 29.0543 143.571 29.633C145.079 30.191 146.34 31.1313 147.353 32.454L143.788 36.05C143.147 35.4093 142.455 34.8823 141.711 34.469C140.987 34.0557 140.14 33.849 139.169 33.849C137.991 33.849 136.988 34.1177 136.162 34.655C135.335 35.1717 134.705 35.8743 134.271 36.763C133.857 37.631 133.651 38.6127 133.651 39.708C133.651 41.4647 134.157 42.8803 135.17 43.955C136.182 45.009 137.526 45.536 139.2 45.536C139.882 45.536 140.533 45.4533 141.153 45.288C141.773 45.102 142.372 44.8127 142.951 44.42V42.436H139.355ZM150.907 50V29.323H159.463C161.674 29.323 163.452 29.9017 164.795 31.059C166.138 32.1957 166.81 33.88 166.81 36.112C166.81 37.4553 166.51 38.6333 165.911 39.646C165.312 40.6587 164.516 41.4647 163.524 42.064L167.957 50H162.067L158.564 42.963H156.27V50H150.907ZM156.27 38.654H158.936C159.659 38.654 160.248 38.437 160.703 38.003C161.158 37.5483 161.385 36.949 161.385 36.205C161.385 35.4197 161.168 34.7997 160.734 34.345C160.3 33.8903 159.69 33.663 158.905 33.663H156.27V38.654ZM179.56 50.496C178.01 50.496 176.573 50.2273 175.251 49.69C173.949 49.1527 172.812 48.3983 171.841 47.427C170.89 46.435 170.146 45.2777 169.609 43.955C169.071 42.6323 168.803 41.1857 168.803 39.615C168.803 38.0443 169.071 36.5977 169.609 35.275C170.146 33.9523 170.89 32.8053 171.841 31.834C172.812 30.8627 173.949 30.1083 175.251 29.571C176.573 29.0337 178.01 28.765 179.56 28.765C181.11 28.765 182.536 29.0337 183.838 29.571C185.16 30.1083 186.307 30.8627 187.279 31.834C188.25 32.8053 188.994 33.9523 189.511 35.275C190.048 36.5977 190.317 38.0443 190.317 39.615C190.317 41.1857 190.048 42.6323 189.511 43.955C188.994 45.2777 188.25 46.435 187.279 47.427C186.307 48.3983 185.16 49.1527 183.838 49.69C182.536 50.2273 181.11 50.496 179.56 50.496ZM179.56 45.35C180.655 45.35 181.575 45.0917 182.319 44.575C183.083 44.0583 183.662 43.366 184.055 42.498C184.447 41.63 184.644 40.669 184.644 39.615C184.644 38.561 184.447 37.6 184.055 36.732C183.662 35.864 183.083 35.1717 182.319 34.655C181.575 34.1383 180.655 33.88 179.56 33.88C178.485 33.88 177.565 34.1383 176.801 34.655C176.057 35.1717 175.478 35.864 175.065 36.732C174.672 37.6 174.476 38.561 174.476 39.615C174.476 40.669 174.672 41.63 175.065 42.498C175.478 43.366 176.057 44.0583 176.801 44.575C177.565 45.0917 178.485 45.35 179.56 45.35ZM195.99 50L190.968 29.323H196.765L199.431 43.18L202.686 29.819H207.677L210.963 43.18L213.598 29.323H219.209L214.063 50H208.328L205.073 36.918L201.818 50H195.99ZM226.174 50V34.128H219.819V29.323H238.016V34.128H231.723V50H226.174ZM240.184 50V29.323H245.671V36.887H253.297V29.323H258.784V50H253.297V41.909H245.671V50H240.184Z" fill="white"/>
</svg>
