<svg width="86" height="41" viewBox="0 0 86 41" fill="none" xmlns="http://www.w3.org/2000/svg">
<path d="M17.4972 24.3691C16.9052 24.3691 16.3572 24.2651 15.8532 24.0571C15.3492 23.8411 14.9052 23.5411 14.5212 23.1571C14.1452 22.7731 13.8532 22.3251 13.6452 21.8131C13.4372 21.3011 13.3332 20.7491 13.3332 20.1571C13.3332 19.5571 13.4372 19.0051 13.6452 18.5011C13.8532 17.9891 14.1452 17.5411 14.5212 17.1571C14.8972 16.7731 15.3372 16.4771 15.8412 16.2691C16.3532 16.0531 16.9052 15.9451 17.4972 15.9451C18.0892 15.9451 18.6372 16.0531 19.1412 16.2691C19.6452 16.4771 20.0852 16.7731 20.4612 17.1571C20.8452 17.5411 21.1412 17.9891 21.3492 18.5011C21.5572 19.0051 21.6612 19.5571 21.6612 20.1571C21.6612 20.7491 21.5572 21.3011 21.3492 21.8131C21.1412 22.3251 20.8452 22.7731 20.4612 23.1571C20.0852 23.5411 19.6452 23.8411 19.1412 24.0571C18.6372 24.2651 18.0892 24.3691 17.4972 24.3691ZM17.4972 22.6651C17.9692 22.6651 18.3732 22.5491 18.7092 22.3171C19.0532 22.0851 19.3132 21.7771 19.4892 21.3931C19.6732 21.0091 19.7652 20.5891 19.7652 20.1331C19.7652 19.6771 19.6732 19.2611 19.4892 18.8851C19.3132 18.5011 19.0532 18.1971 18.7092 17.9731C18.3732 17.7411 17.9692 17.6251 17.4972 17.6251C17.0252 17.6251 16.6172 17.7411 16.2732 17.9731C15.9372 18.1971 15.6772 18.5011 15.4932 18.8851C15.3092 19.2611 15.2172 19.6771 15.2172 20.1331C15.2172 20.5891 15.3092 21.0091 15.4932 21.3931C15.6772 21.7771 15.9372 22.0851 16.2732 22.3171C16.6172 22.5491 17.0252 22.6651 17.4972 22.6651ZM22.7708 26.5651V18.5371H24.4268C24.4428 18.6411 24.4548 18.7451 24.4628 18.8491C24.4708 18.9451 24.4788 19.0451 24.4868 19.1491C24.6708 18.9171 24.9068 18.7411 25.1948 18.6211C25.4828 18.4931 25.7828 18.4291 26.0948 18.4291C26.6468 18.4291 27.1068 18.5651 27.4748 18.8371C27.8428 19.1091 28.1188 19.4651 28.3028 19.9051C28.4868 20.3451 28.5788 20.8131 28.5788 21.3091C28.5788 21.8291 28.4908 22.2811 28.3148 22.6651C28.1468 23.0491 27.9188 23.3651 27.6308 23.6131C27.3428 23.8611 27.0268 24.0451 26.6828 24.1651C26.3388 24.2851 25.9908 24.3451 25.6388 24.3451C25.3668 24.3451 25.1428 24.3211 24.9668 24.2731C24.7908 24.2251 24.6308 24.1771 24.4868 24.1291V26.5651H22.7708ZM24.4868 21.1771V22.6771C24.7188 22.8291 25.0508 22.9051 25.4828 22.9051C25.9068 22.9051 26.2388 22.7611 26.4788 22.4731C26.7268 22.1851 26.8508 21.8091 26.8508 21.3451C26.8508 21.0971 26.8108 20.8651 26.7308 20.6491C26.6588 20.4251 26.5348 20.2451 26.3588 20.1091C26.1908 19.9731 25.9628 19.9051 25.6748 19.9051C25.2908 19.9051 24.9948 20.0371 24.7868 20.3011C24.5868 20.5651 24.4868 20.8571 24.4868 21.1771ZM34.2108 22.4611L34.9188 23.5531C34.8388 23.6091 34.6948 23.7011 34.4868 23.8291C34.2868 23.9571 34.0188 24.0771 33.6828 24.1891C33.3468 24.3011 32.9348 24.3571 32.4468 24.3571C31.8068 24.3571 31.2548 24.2291 30.7908 23.9731C30.3268 23.7171 29.9708 23.3611 29.7228 22.9051C29.4748 22.4491 29.3508 21.9251 29.3508 21.3331C29.3508 20.8051 29.4628 20.3131 29.6868 19.8571C29.9188 19.4011 30.2508 19.0371 30.6828 18.7651C31.1228 18.4851 31.6468 18.3451 32.2548 18.3451C32.8628 18.3451 33.3708 18.4851 33.7788 18.7651C34.1948 19.0371 34.5068 19.4171 34.7148 19.9051C34.9308 20.3851 35.0388 20.9411 35.0388 21.5731V21.8611H31.0308C31.0388 22.1571 31.1748 22.4211 31.4388 22.6531C31.7028 22.8851 32.0588 23.0011 32.5068 23.0011C32.9548 23.0011 33.3188 22.9371 33.5988 22.8091C33.8788 22.6731 34.0828 22.5571 34.2108 22.4611ZM31.0308 20.7571H33.4068C33.4068 20.5971 33.3628 20.4371 33.2748 20.2771C33.1948 20.1091 33.0668 19.9691 32.8908 19.8571C32.7228 19.7451 32.5068 19.6891 32.2428 19.6891C31.9788 19.6891 31.7548 19.7451 31.5708 19.8571C31.3948 19.9691 31.2588 20.1091 31.1628 20.2771C31.0748 20.4371 31.0308 20.5971 31.0308 20.7571ZM36.0367 24.1651V18.5371H37.6927L37.7407 19.1491C37.9247 18.9251 38.1687 18.7451 38.4727 18.6091C38.7767 18.4731 39.0887 18.4051 39.4087 18.4051C40.0487 18.4051 40.5607 18.5971 40.9447 18.9811C41.3287 19.3651 41.5207 19.9331 41.5207 20.6851V24.1651H39.7927V20.9251C39.7927 20.6131 39.7127 20.3651 39.5527 20.1811C39.4007 19.9971 39.1847 19.9051 38.9047 19.9051C38.5287 19.9051 38.2407 20.0291 38.0407 20.2771C37.8487 20.5251 37.7527 20.8131 37.7527 21.1411V24.1651H36.0367ZM48.2429 24.1651L48.1949 23.6371C47.7949 24.1011 47.2269 24.3331 46.4909 24.3331C46.2269 24.3331 45.9469 24.2811 45.6509 24.1771C45.3629 24.0811 45.1149 23.9051 44.9069 23.6491C44.6989 23.3931 44.5949 23.0411 44.5949 22.5931C44.5949 22.1531 44.7069 21.7811 44.9309 21.4771C45.1629 21.1731 45.4749 20.9451 45.8669 20.7931C46.2589 20.6331 46.6989 20.5531 47.1869 20.5531C47.3869 20.5531 47.5869 20.5571 47.7869 20.5651C47.9949 20.5731 48.1309 20.5851 48.1949 20.6011V20.4811C48.1949 20.1931 48.0829 19.9891 47.8589 19.8691C47.6429 19.7411 47.3949 19.6771 47.1149 19.6771C46.7389 19.6771 46.4229 19.7251 46.1669 19.8211C45.9109 19.9171 45.6949 20.0251 45.5189 20.1451L44.8109 19.0891C45.0429 18.9051 45.3589 18.7371 45.7589 18.5851C46.1589 18.4251 46.6909 18.3451 47.3549 18.3451C48.2109 18.3451 48.8429 18.5771 49.2509 19.0411C49.6589 19.4971 49.8629 20.1131 49.8629 20.8891V24.1651H48.2429ZM48.1949 22.1371V21.6811C48.1549 21.6731 48.0789 21.6651 47.9669 21.6571C47.8549 21.6411 47.7269 21.6331 47.5829 21.6331C47.1029 21.6331 46.7629 21.7011 46.5629 21.8371C46.3629 21.9731 46.2629 22.1651 46.2629 22.4131C46.2629 22.8771 46.5429 23.1091 47.1029 23.1091C47.3749 23.1091 47.6229 23.0251 47.8469 22.8571C48.0789 22.6891 48.1949 22.4491 48.1949 22.1371ZM51.1067 26.5651V18.5371H52.7627C52.7787 18.6411 52.7907 18.7451 52.7987 18.8491C52.8067 18.9451 52.8147 19.0451 52.8227 19.1491C53.0067 18.9171 53.2427 18.7411 53.5307 18.6211C53.8187 18.4931 54.1187 18.4291 54.4307 18.4291C54.9827 18.4291 55.4427 18.5651 55.8107 18.8371C56.1787 19.1091 56.4547 19.4651 56.6387 19.9051C56.8227 20.3451 56.9147 20.8131 56.9147 21.3091C56.9147 21.8291 56.8267 22.2811 56.6507 22.6651C56.4827 23.0491 56.2547 23.3651 55.9667 23.6131C55.6787 23.8611 55.3627 24.0451 55.0187 24.1651C54.6747 24.2851 54.3267 24.3451 53.9747 24.3451C53.7027 24.3451 53.4787 24.3211 53.3027 24.2731C53.1267 24.2251 52.9667 24.1771 52.8227 24.1291V26.5651H51.1067ZM52.8227 21.1771V22.6771C53.0547 22.8291 53.3867 22.9051 53.8187 22.9051C54.2427 22.9051 54.5747 22.7611 54.8147 22.4731C55.0627 22.1851 55.1867 21.8091 55.1867 21.3451C55.1867 21.0971 55.1467 20.8651 55.0667 20.6491C54.9947 20.4251 54.8707 20.2451 54.6947 20.1091C54.5267 19.9731 54.2987 19.9051 54.0107 19.9051C53.6267 19.9051 53.3307 20.0371 53.1227 20.3011C52.9227 20.5651 52.8227 20.8571 52.8227 21.1771ZM57.9387 26.5651V18.5371H59.5947C59.6107 18.6411 59.6227 18.7451 59.6307 18.8491C59.6387 18.9451 59.6467 19.0451 59.6547 19.1491C59.8387 18.9171 60.0747 18.7411 60.3627 18.6211C60.6507 18.4931 60.9507 18.4291 61.2627 18.4291C61.8147 18.4291 62.2747 18.5651 62.6427 18.8371C63.0107 19.1091 63.2867 19.4651 63.4707 19.9051C63.6547 20.3451 63.7467 20.8131 63.7467 21.3091C63.7467 21.8291 63.6587 22.2811 63.4827 22.6651C63.3147 23.0491 63.0867 23.3651 62.7987 23.6131C62.5107 23.8611 62.1947 24.0451 61.8507 24.1651C61.5067 24.2851 61.1587 24.3451 60.8067 24.3451C60.5347 24.3451 60.3107 24.3211 60.1347 24.2731C59.9587 24.2251 59.7987 24.1771 59.6547 24.1291V26.5651H57.9387ZM59.6547 21.1771V22.6771C59.8867 22.8291 60.2187 22.9051 60.6507 22.9051C61.0747 22.9051 61.4067 22.7611 61.6467 22.4731C61.8947 22.1851 62.0187 21.8091 62.0187 21.3451C62.0187 21.0971 61.9787 20.8651 61.8987 20.6491C61.8267 20.4251 61.7027 20.2451 61.5267 20.1091C61.3587 19.9731 61.1307 19.9051 60.8427 19.9051C60.4587 19.9051 60.1627 20.0371 59.9547 20.3011C59.7547 20.5651 59.6547 20.8571 59.6547 21.1771Z" fill="#002855"/>
<path d="M69.8013 16L73.9663 20.1651L69.8013 24.3302" stroke="#002855" stroke-width="1.74176" stroke-linecap="round"/>
</svg>
