<svg width="344" height="360" viewBox="0 0 344 360" fill="none" xmlns="http://www.w3.org/2000/svg">
<path d="M12.7446 323.802L2.4684 334.467C0.910331 336.079 0 338.62 0 341.332V350.568C0 355.295 2.73975 359.119 6.12723 359.119H337.873C341.26 359.119 344 355.295 344 350.568V9.3091C344 2.34589 338.345 -1.69765 334.293 2.37033L326.905 9.78555C326.406 10.2864 325.96 10.8972 325.592 11.5813L312.786 35.2563C312.445 35.8915 312.042 36.4534 311.587 36.9299L309.609 39.0188C308.751 39.9228 308.086 41.12 307.666 42.4882L296.637 78.5992C296.234 79.9308 295.148 80.5782 294.177 80.0773C293.205 79.5765 292.12 80.224 291.717 81.5555L281.896 113.806C281.66 114.588 281.318 115.309 280.898 115.932C278.246 119.865 273.546 118.485 272.25 113.391L264.162 81.5555C262.499 75.0321 256.267 73.8227 253.387 79.4665L246.253 93.4907C245.658 94.6635 244.853 95.6163 243.925 96.2393L232.957 103.642L225.176 109.885C224.423 110.483 223.766 111.314 223.259 112.304L214.173 129.907C213.201 131.788 211.652 132.9 209.989 132.9C208.518 132.9 207.109 133.78 206.137 135.319L188.675 162.817C188.456 163.172 188.255 163.538 188.08 163.929L177.392 187.616C176.499 189.595 174.941 190.792 173.26 190.792C171.825 190.792 170.459 191.672 169.532 193.199L159.448 209.837C158.284 211.755 156.568 212.867 154.765 212.867H138.922C137.241 212.867 135.639 213.832 134.484 215.53L120.435 236.151L111.253 247.207C110.141 248.551 108.723 249.284 107.253 249.284H105.038C103.471 249.284 101.957 250.126 100.819 251.629L89.3612 266.801C88.3108 268.194 86.9103 268.976 85.4573 268.976C83.7504 268.976 82.1398 270.051 81.0632 271.896L71.7148 287.911C70.5506 289.902 68.8088 291.063 66.9618 291.063H65.8764C64.3009 291.063 62.7866 291.906 61.6487 293.42L49.6393 309.375C49.2454 309.9 48.799 310.352 48.3263 310.706L41.1137 316.13L32.3605 321.395C31.5902 321.86 30.7674 322.092 29.9359 322.092H16.3772C15.0555 322.092 13.7775 322.69 12.7184 323.778L12.7446 323.802Z" fill="url(#paint0_linear_15430_34523)"/>
<defs>
<linearGradient id="paint0_linear_15430_34523" x1="171.807" y1="-7.36595" x2="172.523" y2="351.96" gradientUnits="userSpaceOnUse">
<stop stop-color="#0071CE"/>
<stop offset="1" stop-color="#0071CE" stop-opacity="0"/>
</linearGradient>
</defs>
</svg>
