<svg width="111" height="42" viewBox="0 0 111 42" fill="none" xmlns="http://www.w3.org/2000/svg">
<path d="M110.833 13.2391C110.833 20.5724 104.967 26.4391 97.6335 26.4391H88.5891V41.8391H78.2002V0.0390625H97.5113C104.967 0.0390625 110.833 6.02795 110.833 13.2391ZM95.9224 8.71684H88.7113V17.3946H95.9224C98.2446 17.3946 100.078 15.3168 100.078 13.1168C100.078 10.7946 98.2446 8.71684 95.9224 8.71684ZM61.8224 0.0390625V17.0279H47.4002V0.0390625H37.0113V41.9613H47.4002V26.5613H61.8224V41.9613H72.2113V0.0390625H61.8224ZM32.9779 30.5946C32.9779 37.5613 26.7446 41.9613 20.1446 41.9613H0.833496V0.0390625H19.5335C26.3779 0.0390625 32.0002 5.05017 32.0002 11.2835C32.0002 16.1724 29.6779 18.8613 26.5002 20.8168C30.1668 22.4057 32.9779 24.7279 32.9779 30.5946ZM18.0668 25.0946H11.2224V33.1613H18.0668C20.7557 33.1613 22.2224 31.3279 22.2224 29.1279C22.2224 26.9279 20.2668 25.0946 18.0668 25.0946ZM17.0891 8.71684H11.2224V17.3946H17.0891C19.7779 17.3946 21.2446 15.3168 21.2446 13.1168C21.2446 10.7946 19.7779 8.71684 17.0891 8.71684Z" fill="#DD5900"/>
</svg>
