<svg width="214" height="31" viewBox="0 0 214 31" fill="none" xmlns="http://www.w3.org/2000/svg">
<path d="M0.637008 30.728V8.264H4.50901V10.952C5.43701 9.352 7.51701 7.912 9.98101 7.912C14.173 7.912 17.405 11.016 17.405 16.424V16.68C17.405 22.056 14.301 25.32 9.98101 25.32C7.32501 25.32 5.40501 24.008 4.50901 22.376V30.728H0.637008ZM9.02101 22.248C11.869 22.248 13.437 20.328 13.437 16.744V16.488C13.437 12.776 11.517 10.952 8.98901 10.952C6.30101 10.952 4.38101 12.776 4.38101 16.488V16.744C4.38101 20.488 6.20501 22.248 9.02101 22.248ZM24.631 25.32C21.559 25.32 19.031 23.848 19.031 20.36C19.031 16.456 22.807 15.048 27.607 15.048H29.687V14.184C29.687 11.944 28.919 10.824 26.647 10.824C24.631 10.824 23.639 11.784 23.447 13.448H19.703C20.023 9.544 23.127 7.912 26.871 7.912C30.615 7.912 33.559 9.448 33.559 14.024V25H29.751V22.952C28.663 24.392 27.191 25.32 24.631 25.32ZM25.559 22.536C27.927 22.536 29.687 21.288 29.687 19.144V17.48H27.703C24.759 17.48 22.871 18.152 22.871 20.2C22.871 21.608 23.639 22.536 25.559 22.536ZM37.357 25V8.264H41.229V11.4C42.285 9.288 43.853 8.04 46.669 8.008V11.624C43.277 11.656 41.229 12.744 41.229 16.296V25H37.357ZM53.5073 25.32C50.4353 25.32 47.9073 23.848 47.9073 20.36C47.9073 16.456 51.6833 15.048 56.4833 15.048H58.5633V14.184C58.5633 11.944 57.7953 10.824 55.5233 10.824C53.5073 10.824 52.5153 11.784 52.3233 13.448H48.5793C48.8993 9.544 52.0033 7.912 55.7473 7.912C59.4913 7.912 62.4353 9.448 62.4353 14.024V25H58.6273V22.952C57.5393 24.392 56.0673 25.32 53.5073 25.32ZM54.4353 22.536C56.8033 22.536 58.5633 21.288 58.5633 19.144V17.48H56.5793C53.6353 17.48 51.7473 18.152 51.7473 20.2C51.7473 21.608 52.5153 22.536 54.4353 22.536ZM80.7063 22.312C83.5863 22.312 85.3143 20.168 85.3143 16.744V16.52C85.3143 13.064 83.5863 10.952 80.7063 10.952C77.8263 10.952 76.0663 13.032 76.0663 16.488V16.744C76.0663 20.168 77.7623 22.312 80.7063 22.312ZM80.6743 25.32C75.7463 25.32 72.0983 21.896 72.0983 16.808V16.552C72.0983 11.368 75.7783 7.912 80.7063 7.912C85.6023 7.912 89.2823 11.336 89.2823 16.456V16.712C89.2823 21.928 85.6023 25.32 80.6743 25.32ZM99.1258 30.728V8.264H102.998V10.952C103.926 9.352 106.006 7.912 108.47 7.912C112.662 7.912 115.894 11.016 115.894 16.424V16.68C115.894 22.056 112.79 25.32 108.47 25.32C105.814 25.32 103.894 24.008 102.998 22.376V30.728H99.1258ZM107.51 22.248C110.358 22.248 111.926 20.328 111.926 16.744V16.488C111.926 12.776 110.006 10.952 107.478 10.952C104.79 10.952 102.87 12.776 102.87 16.488V16.744C102.87 20.488 104.694 22.248 107.51 22.248ZM118.832 25V0.519999H122.704V25H118.832ZM131.167 25.32C128.095 25.32 125.567 23.848 125.567 20.36C125.567 16.456 129.343 15.048 134.143 15.048H136.223V14.184C136.223 11.944 135.455 10.824 133.183 10.824C131.167 10.824 130.175 11.784 129.983 13.448H126.239C126.559 9.544 129.663 7.912 133.407 7.912C137.151 7.912 140.095 9.448 140.095 14.024V25H136.287V22.952C135.199 24.392 133.727 25.32 131.167 25.32ZM132.095 22.536C134.463 22.536 136.223 21.288 136.223 19.144V17.48H134.239C131.295 17.48 129.407 18.152 129.407 20.2C129.407 21.608 130.175 22.536 132.095 22.536ZM143.893 25V8.264H147.765V10.92C148.565 9.288 150.421 7.912 153.173 7.912C156.533 7.912 158.901 9.864 158.901 14.472V25H155.029V14.824C155.029 12.296 154.005 11.144 151.701 11.144C149.525 11.144 147.765 12.488 147.765 15.144V25H143.893ZM170.082 25.32C165.154 25.32 161.602 22.088 161.602 16.808V16.552C161.602 11.368 165.154 7.912 169.922 7.912C174.082 7.912 177.826 10.376 177.826 16.36V17.48H165.57C165.698 20.648 167.298 22.44 170.178 22.44C172.514 22.44 173.73 21.512 174.018 19.88H177.762C177.218 23.4 174.37 25.32 170.082 25.32ZM165.634 14.888H173.986C173.794 12.008 172.322 10.728 169.922 10.728C167.586 10.728 166.018 12.296 165.634 14.888ZM186.341 25.288C183.013 25.288 181.285 23.496 181.285 20.328V11.176H179.045V8.264H181.285V4.584H185.157V8.264H188.837V11.176H185.157V19.976C185.157 21.448 185.861 22.12 187.077 22.12C187.845 22.12 188.421 22.024 188.965 21.8V24.872C188.357 25.096 187.525 25.288 186.341 25.288ZM196.357 25.32C193.285 25.32 190.757 23.848 190.757 20.36C190.757 16.456 194.533 15.048 199.333 15.048H201.413V14.184C201.413 11.944 200.645 10.824 198.373 10.824C196.357 10.824 195.365 11.784 195.173 13.448H191.429C191.749 9.544 194.853 7.912 198.597 7.912C202.341 7.912 205.285 9.448 205.285 14.024V25H201.477V22.952C200.389 24.392 198.917 25.32 196.357 25.32ZM197.285 22.536C199.653 22.536 201.413 21.288 201.413 19.144V17.48H199.429C196.485 17.48 194.597 18.152 194.597 20.2C194.597 21.608 195.365 22.536 197.285 22.536ZM211.387 25.224C209.979 25.224 208.859 24.136 208.859 22.728C208.859 21.32 209.979 20.2 211.387 20.2C212.827 20.2 213.947 21.32 213.947 22.728C213.947 24.136 212.827 25.224 211.387 25.224Z" fill="black"/>
</svg>
