<svg width="128" height="25" viewBox="0 0 128 25" fill="none" xmlns="http://www.w3.org/2000/svg">
<path d="M0.957008 24.4287V1.54871H8.31701C13.437 1.54871 16.797 3.82071 16.797 8.62071V8.74871C16.797 13.5807 13.309 15.7247 8.41301 15.7247H5.21301V24.4287H0.957008ZM5.21301 12.6527H8.31701C11.133 12.6527 12.637 11.2767 12.637 8.74871V8.62071C12.637 5.90071 11.037 4.84471 8.31701 4.84471H5.21301V12.6527ZM26.5163 21.7407C29.3963 21.7407 31.1243 19.5967 31.1243 16.1727V15.9487C31.1243 12.4927 29.3963 10.3807 26.5163 10.3807C23.6363 10.3807 21.8763 12.4607 21.8763 15.9167V16.1727C21.8763 19.5967 23.5723 21.7407 26.5163 21.7407ZM26.4843 24.7487C21.5563 24.7487 17.9083 21.3247 17.9083 16.2367V15.9807C17.9083 10.7967 21.5883 7.34071 26.5163 7.34071C31.4123 7.34071 35.0923 10.7647 35.0923 15.8847V16.1407C35.0923 21.3567 31.4123 24.7487 26.4843 24.7487ZM43.6468 24.7167C40.3188 24.7167 38.5908 22.9247 38.5908 19.7567V10.6047H36.3508V7.69271H38.5908V4.01271H42.4628V7.69271H46.1428V10.6047H42.4628V19.4047C42.4628 20.8767 43.1668 21.5487 44.3828 21.5487C45.1508 21.5487 45.7268 21.4527 46.2708 21.2287V24.3007C45.6628 24.5247 44.8308 24.7167 43.6468 24.7167ZM53.6635 24.7487C50.5915 24.7487 48.0635 23.2767 48.0635 19.7887C48.0635 15.8847 51.8395 14.4767 56.6395 14.4767H58.7195V13.6127C58.7195 11.3727 57.9515 10.2527 55.6795 10.2527C53.6635 10.2527 52.6715 11.2127 52.4795 12.8767H48.7355C49.0555 8.97271 52.1595 7.34071 55.9035 7.34071C59.6475 7.34071 62.5915 8.87671 62.5915 13.4527V24.4287H58.7835V22.3807C57.6955 23.8207 56.2235 24.7487 53.6635 24.7487ZM54.5915 21.9647C56.9595 21.9647 58.7195 20.7167 58.7195 18.5727V16.9087H56.7355C53.7915 16.9087 51.9035 17.5807 51.9035 19.6287C51.9035 21.0367 52.6715 21.9647 54.5915 21.9647ZM54.3035 5.19671L56.1915 0.23671H60.4795L57.1515 5.19671H54.3035ZM72.1175 24.7487C67.7975 24.7487 65.2695 22.7647 65.1095 19.2127H68.7575C68.9495 20.9087 69.8135 21.9007 72.0855 21.9007C74.1655 21.9007 75.0935 21.1647 75.0935 19.7567C75.0935 18.3807 73.9735 17.8687 71.5095 17.4527C67.0935 16.7487 65.4615 15.5007 65.4615 12.3647C65.4615 9.00471 68.5975 7.34071 71.7335 7.34071C75.1575 7.34071 77.8775 8.62071 78.2935 12.3967H74.7095C74.3895 10.8607 73.5255 10.1567 71.7335 10.1567C70.0695 10.1567 69.0775 10.9567 69.0775 12.1407C69.0775 13.3567 69.8775 13.8367 72.5335 14.2847C76.4695 14.8927 78.8055 15.8527 78.8055 19.4047C78.8055 22.7967 76.4055 24.7487 72.1175 24.7487ZM87.29 24.7487C82.97 24.7487 80.442 22.7647 80.282 19.2127H83.93C84.122 20.9087 84.986 21.9007 87.258 21.9007C89.338 21.9007 90.266 21.1647 90.266 19.7567C90.266 18.3807 89.146 17.8687 86.682 17.4527C82.266 16.7487 80.634 15.5007 80.634 12.3647C80.634 9.00471 83.77 7.34071 86.906 7.34071C90.33 7.34071 93.05 8.62071 93.466 12.3967H89.882C89.562 10.8607 88.698 10.1567 86.906 10.1567C85.242 10.1567 84.25 10.9567 84.25 12.1407C84.25 13.3567 85.05 13.8367 87.706 14.2847C91.642 14.8927 93.978 15.8527 93.978 19.4047C93.978 22.7967 91.578 24.7487 87.29 24.7487ZM96.8305 24.4287V7.69271H100.703V24.4287H96.8305ZM98.7185 4.94071C97.4385 4.94071 96.4145 3.98071 96.4145 2.73271C96.4145 1.45271 97.4385 0.49271 98.7185 0.49271C99.9985 0.49271 101.023 1.45271 101.023 2.73271C101.023 3.98071 99.9985 4.94071 98.7185 4.94071ZM112.27 21.7407C115.15 21.7407 116.878 19.5967 116.878 16.1727V15.9487C116.878 12.4927 115.15 10.3807 112.27 10.3807C109.39 10.3807 107.63 12.4607 107.63 15.9167V16.1727C107.63 19.5967 109.326 21.7407 112.27 21.7407ZM112.238 24.7487C107.31 24.7487 103.662 21.3247 103.662 16.2367V15.9807C103.662 10.7967 107.342 7.34071 112.27 7.34071C117.166 7.34071 120.846 10.7647 120.846 15.8847V16.1407C120.846 21.3567 117.166 24.7487 112.238 24.7487ZM125.196 24.6527C123.788 24.6527 122.668 23.5647 122.668 22.1567C122.668 20.7487 123.788 19.6287 125.196 19.6287C126.636 19.6287 127.756 20.7487 127.756 22.1567C127.756 23.5647 126.636 24.6527 125.196 24.6527Z" fill="black"/>
</svg>
