<svg id="Layer_1" data-name="Layer 1" xmlns="http://www.w3.org/2000/svg" width="970" height="250" version="1.1" viewBox="0 0 970 250">
      <path d="M23.1,220v-6.7h1v2.8h3.6v-2.8h1v6.7h-1v-3h-3.6v3h-1ZM32.3,220.1c-.5,0-.9-.1-1.3-.3-.4-.2-.7-.5-.9-.9-.2-.4-.3-.8-.3-1.2s.1-.9.3-1.2c.2-.4.5-.7.9-.9.4-.2.8-.3,1.3-.3s.9.1,1.3.3c.4.2.7.5.9.9.2.4.3.8.3,1.2s-.1.9-.3,1.2c-.2.4-.5.7-.9.9-.4.2-.8.3-1.3.3ZM32.3,219.4c.3,0,.6,0,.8-.2.2-.2.4-.4.5-.6.1-.3.2-.5.2-.8s0-.6-.2-.8c-.1-.3-.3-.5-.5-.6-.2-.2-.5-.2-.8-.2s-.6,0-.8.2c-.2.2-.4.4-.5.6-.1.3-.2.5-.2.8s0,.6.2.8c.1.3.3.5.5.6.2.2.5.2.8.2ZM35.5,219.4l.6-.6c.2.2.4.3.6.4.2.1.5.2.8.2s.5,0,.8-.1c.2-.1.3-.3.3-.5s0-.3-.1-.4c0,0-.2-.2-.4-.2-.2,0-.5-.1-.8-.2-.2,0-.5-.1-.7-.2-.2-.1-.4-.2-.6-.4-.1-.2-.2-.4-.2-.7s0-.6.3-.8c.2-.2.4-.4.7-.5.3-.1.6-.2.9-.2s.7,0,1,.2c.3.1.5.2.7.4l-.5.6c-.1-.1-.3-.2-.5-.3-.2,0-.5-.1-.7-.1s-.5,0-.7.1c-.2,0-.3.2-.3.5s.1.4.4.4c.2,0,.5.2.9.3.3,0,.6.2.8.3.2.1.4.3.6.4.1.2.2.4.2.7s0,.6-.3.8c-.2.2-.4.4-.7.5-.3.1-.6.2-1,.2-.9,0-1.5-.2-2-.7ZM40.9,218.5v-2.4h-.8v-.8h.8v-1.5h.9v1.5h1.4v.8h-1.4v2.3c0,.4,0,.6.2.8.1.1.3.2.5.2s.3,0,.4,0c.1,0,.2-.1.3-.2l.4.6c-.2.2-.4.3-.6.4-.2,0-.4.1-.7.1-.5,0-.8-.1-1.1-.4-.2-.3-.3-.7-.3-1.2ZM45.2,222h-.9v-6.4c0,0,0-.2,0-.3h.9v.7c0,0,.2-.2.3-.3.1-.1.3-.2.5-.3s.5-.1.8-.1c.5,0,.9.1,1.2.3.3.2.5.5.7.9.2.4.2.8.2,1.2s0,.8-.2,1.1c-.1.3-.3.6-.6.8-.2.2-.5.3-.8.4-.3,0-.6.1-.8.1s-.6,0-.8-.1c-.2,0-.4-.1-.5-.2v2.2ZM45.2,217.8v1.2c.1,0,.3.2.5.2s.5.1.8.1.6,0,.8-.2c.2-.1.4-.3.5-.6.1-.3.2-.5.2-.9s0-.6-.1-.8c0-.3-.2-.5-.4-.6s-.5-.2-.8-.2-.6,0-.8.3c-.2.2-.4.4-.5.8,0,.1,0,.2,0,.3,0,.1,0,.2,0,.4ZM49.9,220v-6.7h.9v6.7h-.9ZM52,218.1v-2.8h.9v2.7c0,.4,0,.8.3.9.2.2.4.3.8.3s.6,0,.8-.3c.2-.2.3-.4.4-.7,0-.3.1-.6.1-.9v-2.2h.9v4.4c0,0,0,.2,0,.3h-.9v-.7c-.1.1-.2.2-.3.4-.1.1-.3.2-.5.3-.2,0-.4.1-.7.1-.6,0-1.1-.2-1.3-.5-.3-.4-.4-.8-.4-1.4ZM57.2,219.4l.5-.6c.2.2.4.3.6.4.2.1.5.2.8.2s.5,0,.8-.1c.2-.1.3-.3.3-.5s0-.3-.1-.4c0,0-.2-.2-.4-.2-.2,0-.5-.1-.8-.2-.2,0-.5-.1-.7-.2-.2-.1-.4-.2-.6-.4-.1-.2-.2-.4-.2-.7s0-.6.3-.8c.2-.2.4-.4.7-.5.3-.1.6-.2.9-.2s.7,0,1,.2c.3.1.5.2.7.4l-.5.6c-.1-.1-.3-.2-.5-.3-.2,0-.5-.1-.7-.1s-.5,0-.7.1c-.2,0-.3.2-.3.5s.1.4.3.4c.2,0,.5.2.9.3.3,0,.6.2.8.3.2.1.4.3.6.4.1.2.2.4.2.7s0,.6-.3.8c-.2.2-.4.4-.7.5-.3.1-.6.2-1,.2-.9,0-1.5-.2-2-.7ZM64.1,220v-6.7h2.3c.5,0,.8,0,1.1.2.3.2.5.4.7.6.1.3.2.5.2.9s0,.5-.2.7c-.1.2-.3.4-.4.5-.2.1-.3.2-.5.2.1,0,.3,0,.4.1.2,0,.3.2.5.3.2.1.3.3.4.5,0,.2.2.4.2.8,0,.5-.1.8-.3,1.1-.2.3-.5.5-.9.6-.4.1-.8.2-1.3.2h-2.1ZM65,216.1h1.2c.2,0,.4,0,.6-.1.2,0,.3-.2.5-.3.1-.1.2-.3.2-.6s0-.5-.2-.6c-.1-.1-.3-.2-.5-.3-.2,0-.4,0-.6,0h-1.2v1.9ZM65,219.2h1.2c.2,0,.3,0,.5,0,.2,0,.4,0,.5-.1.2,0,.3-.2.4-.3s.2-.3.2-.6,0-.6-.2-.7c-.2-.2-.4-.3-.6-.3-.2,0-.5,0-.7,0h-1.2v2.2ZM72.8,220v-.6c-.2.2-.4.4-.7.5-.3.1-.6.2-.9.2s-.5,0-.8-.1c-.2,0-.5-.2-.6-.5-.2-.2-.2-.5-.2-.9,0-.5.2-.9.5-1.2.4-.3.9-.4,1.5-.4s.3,0,.4,0c.2,0,.3,0,.4,0,.1,0,.2,0,.2,0v-.2c0-.3-.1-.6-.3-.7-.2-.2-.5-.2-.8-.2s-.6,0-.8.1c-.2,0-.4.2-.5.3l-.4-.6c.2-.1.4-.3.7-.4.3-.1.7-.2,1.2-.2s1.1.1,1.4.4c.3.3.5.7.5,1.2v2.9c0,0,0,.1,0,.2h-.8ZM72.7,218.3v-.5s-.1,0-.2,0c-.1,0-.3,0-.4,0-.1,0-.3,0-.4,0-.3,0-.6,0-.8.1-.2,0-.3.2-.4.4,0,.1,0,.3,0,.4,0,.2,0,.4.3.6s.4.2.7.2.4,0,.6-.1c.2-.1.4-.2.5-.4.1-.2.2-.3.2-.5ZM74.8,220v-6.7h.9v6.7h-.9ZM79.9,220v-.6c-.2.2-.4.4-.7.5-.3.1-.6.2-.9.2s-.5,0-.8-.1c-.2,0-.5-.2-.6-.5-.2-.2-.2-.5-.2-.9,0-.5.2-.9.5-1.2.4-.3.9-.4,1.5-.4s.3,0,.5,0c.2,0,.3,0,.4,0,.1,0,.2,0,.2,0v-.2c0-.3-.1-.6-.3-.7-.2-.2-.5-.2-.9-.2s-.6,0-.8.1c-.2,0-.4.2-.5.3l-.4-.6c.2-.1.4-.3.7-.4s.7-.2,1.2-.2,1.1.1,1.4.4c.3.3.5.7.5,1.2v2.9c0,0,0,.1,0,.2h-.8ZM79.9,218.3v-.5s-.1,0-.2,0c-.1,0-.3,0-.4,0-.1,0-.3,0-.4,0-.3,0-.6,0-.8.1-.2,0-.3.2-.4.4,0,.1,0,.3,0,.4,0,.2,0,.4.3.6.2.1.4.2.7.2s.4,0,.6-.1c.2-.1.4-.2.5-.4.1-.2.2-.3.2-.5ZM82.8,220h-.9v-4.4c0,0,0-.2,0-.3h.9v.7c.1-.1.2-.2.3-.4.1-.1.3-.2.5-.3.2,0,.5-.1.7-.1.6,0,1.1.2,1.3.5.3.4.4.8.4,1.4v2.8h-.9v-2.7c0-.4,0-.8-.3-.9-.2-.2-.4-.3-.8-.3s-.6,0-.8.3c-.2.2-.3.4-.4.7,0,.3-.1.6-.1.9v2.2ZM90.9,218.8l.5.6c-.2.2-.5.4-.8.6-.3.1-.7.2-1.1.2s-.9-.1-1.3-.3c-.4-.2-.6-.5-.8-.9-.2-.4-.3-.8-.3-1.3s.1-.9.3-1.2c.2-.4.5-.7.9-.9.4-.2.8-.3,1.3-.3s.7,0,1,.2c.3.1.6.3.8.6l-.6.6c-.1-.2-.3-.3-.5-.4-.2-.1-.4-.1-.7-.1s-.6,0-.8.2c-.2.2-.4.4-.5.6-.1.3-.2.5-.2.8s0,.6.2.8c.1.3.3.5.5.6.2.2.5.2.8.2s.5,0,.7-.2c.2-.1.4-.2.5-.4ZM95.8,218.8l.5.5c0,0-.2.2-.4.3-.2.1-.4.2-.7.4-.3,0-.6.1-1,.1s-.9-.1-1.3-.3c-.4-.2-.7-.5-.9-.9-.2-.4-.3-.8-.3-1.3s0-.9.3-1.2c.2-.4.5-.7.8-.9.4-.2.8-.3,1.2-.3s1,.1,1.3.4c.3.3.6.6.7,1s.2.9.2,1.3h-3.7c0,.3,0,.5.2.7.1.2.3.4.6.5.2.1.5.2.8.2.4,0,.7,0,1-.2.3-.1.4-.3.5-.4ZM92.7,217.3h2.7c0-.4-.2-.7-.4-.9-.2-.3-.5-.4-1-.4s-.5,0-.7.2c-.2.1-.4.3-.5.5-.1.2-.2.4-.2.6ZM100.8,220v-.6c0,0-.2.1-.3.3-.1.1-.3.2-.5.3-.2,0-.5.1-.8.1s-.7,0-1.1-.3c-.3-.2-.6-.5-.7-.8s-.3-.8-.3-1.3,0-.8.2-1.1c.2-.3.3-.6.6-.8.2-.2.5-.3.8-.4.3-.1.5-.1.8-.1s.5,0,.6,0c.2,0,.4.1.6.2v-2.2h.9v6.4c0,0,0,.2,0,.3h-.9ZM100.7,218v-1.7c-.1-.1-.3-.2-.5-.2-.2,0-.4-.1-.7-.1-.4,0-.8.2-1.1.5-.3.3-.4.7-.4,1.3s0,.6.1.8c0,.2.2.4.4.6.2.1.5.2.8.2s.6,0,.7-.2c.2-.1.3-.3.4-.5,0-.2.1-.4.1-.6ZM106.6,220.9h-.9c-.1-.2-.2-.5-.4-.9-.2-.4-.3-.8-.4-1.3-.1-.5-.2-1.1-.2-1.8s0-1.2.2-1.8c.1-.5.3-1,.4-1.4.2-.4.3-.7.4-.9h.9c-.1.3-.3.6-.4,1-.1.4-.3.9-.3,1.4,0,.5-.1,1.1-.1,1.7s0,1.1.1,1.6c0,.5.2,1,.3,1.4.1.4.3.7.4,1ZM107.7,220l.3-6.7h.9l2,3.5,2-3.5h.9l.3,6.7h-.9l-.2-5.1-1.9,3.1h-.5l-1.8-3.1-.2,5.1h-.9ZM115,221.8l.4-.6c0,0,.1.1.2.2s.2,0,.3,0c.2,0,.4,0,.5-.3.1-.2.2-.5.4-.8v-.3c.1,0-2-4.6-2-4.6h1l1.5,3.5,1.3-3.5h1l-1.9,4.5c0,.2-.2.4-.3.7,0,.3-.2.5-.3.7-.1.2-.3.4-.5.6-.2.2-.4.2-.7.2s-.4,0-.6,0c-.2,0-.3-.1-.4-.2ZM120.1,219l.7-.6c.1.1.3.3.4.4.2.1.4.3.6.3.2,0,.5.1.8.1.4,0,.8,0,1-.3.2-.2.4-.5.4-.8s-.1-.6-.4-.8c-.3-.2-.7-.3-1.2-.4-.6-.1-1-.3-1.4-.7-.4-.3-.5-.7-.5-1.3s0-.6.2-.9c.2-.3.4-.5.8-.7.3-.2.7-.3,1.2-.3s.8,0,1.1.2c.3.1.5.2.7.4.2.1.3.3.3.4l-.6.6c0,0-.1-.2-.3-.3-.1-.1-.3-.2-.5-.3-.2,0-.4-.1-.7-.1s-.5,0-.7.2c-.2,0-.3.2-.4.4,0,.1-.1.3-.1.4,0,.3.1.6.4.7.3.2.7.3,1.2.4.3,0,.7.2.9.4.3.2.5.4.7.6.2.3.3.6.3,1.1s-.1.7-.3,1c-.2.3-.5.5-.8.7-.4.2-.8.2-1.2.2s-.8,0-1.1-.2c-.3-.1-.6-.3-.8-.5-.2-.2-.4-.4-.6-.5ZM126,218.1v-2.8h.9v2.7c0,.4,0,.8.3.9.2.2.4.3.8.3s.6,0,.8-.3c.2-.2.3-.4.4-.7,0-.3.1-.6.1-.9v-2.2h.9v4.4c0,0,0,.2,0,.3h-.9v-.7c-.1.1-.2.2-.3.4-.1.1-.3.2-.5.3-.2,0-.4.1-.7.1-.6,0-1.1-.2-1.3-.5-.3-.4-.4-.8-.4-1.4ZM132.3,222h-.9v-6.4c0,0,0-.2,0-.3h.9v.7c0,0,.2-.2.3-.3.1-.1.3-.2.5-.3.2,0,.5-.1.8-.1.5,0,.9.1,1.2.3.3.2.5.5.7.9.2.4.2.8.2,1.2s0,.8-.2,1.1c-.1.3-.3.6-.6.8-.2.2-.5.3-.8.4-.3,0-.6.1-.8.1s-.6,0-.8-.1c-.2,0-.4-.1-.5-.2v2.2ZM132.3,217.8v1.2c.1,0,.3.2.5.2.2,0,.5.1.8.1s.6,0,.8-.2c.2-.1.4-.3.5-.6.1-.3.2-.5.2-.9s0-.6-.1-.8c0-.3-.2-.5-.4-.6-.2-.2-.5-.2-.8-.2s-.6,0-.8.3c-.2.2-.4.4-.5.8,0,.1,0,.2,0,.3,0,.1,0,.2,0,.4ZM140.7,218.8l.5.5c0,0-.2.2-.4.3-.2.1-.4.2-.7.4-.3,0-.6.1-1,.1s-.9-.1-1.3-.3c-.4-.2-.7-.5-.9-.9-.2-.4-.3-.8-.3-1.3s0-.9.3-1.2c.2-.4.5-.7.8-.9.4-.2.8-.3,1.2-.3s1,.1,1.3.4c.3.3.6.6.7,1,.2.4.2.9.2,1.3h-3.7c0,.3,0,.5.2.7.1.2.3.4.6.5.2.1.5.2.8.2.4,0,.7,0,1-.2.3-.1.4-.3.6-.4ZM137.7,217.3h2.7c0-.4-.2-.7-.4-.9-.2-.3-.5-.4-1-.4s-.5,0-.7.2c-.2.1-.4.3-.5.5-.1.2-.2.4-.2.6ZM143.3,220h-.9v-4.4c0,0,0-.2,0-.3h.9v.8c.1-.1.2-.2.3-.4.1-.1.3-.2.5-.3s.4-.1.7-.1.2,0,.3,0c0,0,.2,0,.2,0l-.2.8c-.1,0-.3,0-.5,0s-.5,0-.7.2c-.2.1-.4.3-.5.5-.1.2-.2.4-.2.7v2.4ZM145.8,212.9h.9c.1.2.2.5.4.9.2.4.3.8.4,1.4.1.5.2,1.1.2,1.8s0,1.2-.2,1.8c-.1.5-.3,1-.4,1.3-.2.4-.3.7-.4.9h-.9c.1-.3.3-.6.4-1,.1-.4.3-.9.3-1.4,0-.5.1-1.1.1-1.7s0-1.1-.1-1.6c0-.5-.2-1-.3-1.4-.1-.4-.3-.7-.4-1ZM150.7,214.5v-1h1v1h-1ZM150.8,220v-4.6h.9v4.6h-.9ZM153.8,220h-.9v-4.4c0,0,0-.2,0-.3h.9v.7c.1-.1.2-.2.3-.4.1-.1.3-.2.5-.3.2,0,.5-.1.7-.1.6,0,1.1.2,1.3.5.3.4.4.8.4,1.4v2.8h-.9v-2.7c0-.4,0-.8-.3-.9-.2-.2-.4-.3-.8-.3s-.6,0-.8.3c-.2.2-.3.4-.4.7,0,.3-.1.6-.1.9v2.2ZM159.6,220l-2-4.6h1l1.4,3.6,1.4-3.6h1l-2,4.6h-.9ZM166.7,218.8l.5.5c0,0-.2.2-.4.3-.2.1-.4.2-.7.4-.3,0-.6.1-1,.1s-.9-.1-1.3-.3c-.4-.2-.7-.5-.9-.9-.2-.4-.3-.8-.3-1.3s0-.9.3-1.2c.2-.4.5-.7.8-.9.4-.2.8-.3,1.2-.3s1,.1,1.3.4c.3.3.6.6.7,1s.2.9.2,1.3h-3.7c0,.3,0,.5.2.7.1.2.3.4.6.5.2.1.5.2.8.2.4,0,.7,0,1-.2.3-.1.4-.3.6-.4ZM163.6,217.3h2.7c0-.4-.2-.7-.4-.9-.2-.3-.5-.4-1-.4s-.5,0-.7.2-.4.3-.5.5c-.1.2-.2.4-.2.6ZM168.1,219.4l.6-.6c.2.2.4.3.6.4.2.1.5.2.8.2s.6,0,.8-.1c.2-.1.3-.3.3-.5s0-.3-.1-.4c0,0-.2-.2-.4-.2-.2,0-.5-.1-.8-.2-.2,0-.5-.1-.7-.2-.2-.1-.4-.2-.6-.4-.1-.2-.2-.4-.2-.7s0-.6.3-.8c.2-.2.4-.4.7-.5.3-.1.6-.2.9-.2s.7,0,1,.2c.3.1.5.2.7.4l-.5.6c-.1-.1-.3-.2-.5-.3-.2,0-.5-.1-.7-.1s-.5,0-.7.1c-.2,0-.3.2-.3.5s.1.4.4.4c.2,0,.5.2.9.3.3,0,.6.2.8.3.2.1.4.3.6.4.1.2.2.4.2.7s0,.6-.3.8c-.2.2-.4.4-.7.5-.3.1-.6.2-.9.2-.9,0-1.5-.2-2-.7ZM173.4,218.5v-2.4h-.8v-.8h.8v-1.5h.9v1.5h1.4v.8h-1.4v2.3c0,.4,0,.6.2.8.1.1.3.2.5.2s.3,0,.4,0c.1,0,.2-.1.3-.2l.4.6c-.2.2-.4.3-.6.4-.2,0-.4.1-.7.1-.5,0-.8-.1-1.1-.4-.2-.3-.3-.7-.3-1.2ZM177.8,220h-.9v-4.4c0,0,0-.2,0-.3h.9v.7c.1-.1.2-.2.3-.4.1-.1.3-.2.5-.3.2,0,.4-.1.7-.1s.7,0,.9.2c.2.1.4.3.6.6.2-.2.4-.4.7-.6.3-.2.6-.3,1-.3.6,0,1,.2,1.3.5.3.4.4.8.4,1.4v2.8h-.9v-2.7c0-.8-.3-1.3-1-1.3s-.5,0-.7.2c-.2.1-.3.3-.5.5-.1.2-.2.4-.2.7v2.6h-.9v-2.7c0-.4,0-.8-.3-.9-.2-.2-.4-.3-.7-.3s-.6,0-.8.3c-.2.2-.3.4-.4.7,0,.3-.1.6-.1.9v2.2ZM189.1,218.8l.5.5c0,0-.2.2-.4.3-.2.1-.4.2-.7.4-.3,0-.6.1-1,.1s-.9-.1-1.3-.3c-.4-.2-.7-.5-.9-.9-.2-.4-.3-.8-.3-1.3s0-.9.3-1.2c.2-.4.5-.7.8-.9.4-.2.8-.3,1.2-.3s1,.1,1.3.4c.3.3.6.6.7,1s.2.9.2,1.3h-3.7c0,.3,0,.5.2.7.1.2.3.4.6.5.2.1.5.2.8.2.4,0,.7,0,1-.2.3-.1.4-.3.5-.4ZM186.1,217.3h2.7c0-.4-.2-.7-.4-.9-.2-.3-.5-.4-1-.4s-.5,0-.7.2-.4.3-.5.5c-.1.2-.2.4-.2.6ZM191.6,220h-.9v-4.4c0,0,0-.2,0-.3h.9v.7c.1-.1.2-.2.4-.4.1-.1.3-.2.5-.3.2,0,.5-.1.7-.1.6,0,1.1.2,1.3.5.3.4.4.8.4,1.4v2.8h-.9v-2.7c0-.4,0-.8-.3-.9-.2-.2-.4-.3-.8-.3s-.6,0-.8.3c-.2.2-.3.4-.4.7,0,.3-.1.6-.1.9v2.2ZM196.6,218.5v-2.4h-.8v-.8h.8v-1.5h.9v1.5h1.4v.8h-1.4v2.3c0,.4,0,.6.2.8.1.1.3.2.5.2s.3,0,.4,0c.1,0,.2-.1.3-.2l.4.6c-.2.2-.4.3-.6.4-.2,0-.4.1-.7.1-.5,0-.8-.1-1.1-.4-.2-.3-.4-.7-.4-1.2ZM204.1,220.1c-.5,0-.9-.1-1.3-.3-.4-.2-.7-.5-.9-.9-.2-.4-.3-.8-.3-1.2s.1-.9.3-1.2c.2-.4.5-.7.9-.9.4-.2.8-.3,1.3-.3s.9.1,1.3.3c.4.2.7.5.9.9.2.4.3.8.3,1.2s-.1.9-.3,1.2c-.2.4-.5.7-.9.9-.4.2-.8.3-1.3.3ZM204.1,219.4c.3,0,.6,0,.8-.2.2-.2.4-.4.5-.6.1-.3.2-.5.2-.8s0-.6-.2-.8c-.1-.3-.3-.5-.5-.6-.2-.2-.5-.2-.8-.2s-.6,0-.8.2c-.2.2-.4.4-.5.6-.1.3-.2.5-.2.8s0,.6.2.8c.1.3.3.5.5.6.2.2.5.2.8.2ZM208.4,222h-.9v-6.4c0,0,0-.2,0-.3h.9v.7c0,0,.2-.2.3-.3.1-.1.3-.2.5-.3s.5-.1.8-.1c.5,0,.9.1,1.2.3.3.2.5.5.7.9.2.4.2.8.2,1.2s0,.8-.2,1.1c-.1.3-.3.6-.6.8-.2.2-.5.3-.8.4-.3,0-.6.1-.8.1s-.6,0-.8-.1c-.2,0-.4-.1-.5-.2v2.2ZM208.4,217.8v1.2c.1,0,.3.2.5.2s.4.1.8.1.6,0,.8-.2c.2-.1.4-.3.5-.6.1-.3.2-.5.2-.9s0-.6-.1-.8c0-.3-.2-.5-.4-.6s-.5-.2-.8-.2-.6,0-.8.3c-.2.2-.4.4-.5.8,0,.1,0,.2,0,.3,0,.1,0,.2,0,.4ZM213.5,218.5v-2.4h-.8v-.8h.8v-1.5h.9v1.5h1.4v.8h-1.4v2.3c0,.4,0,.6.2.8.1.1.3.2.5.2s.3,0,.4,0c.1,0,.2-.1.3-.2l.4.6c-.2.2-.4.3-.6.4-.2,0-.4.1-.7.1-.5,0-.8-.1-1.1-.4-.2-.3-.4-.7-.4-1.2ZM216.9,214.5v-1h1v1h-1ZM217,220v-4.6h.9v4.6h-.9ZM221.4,220.1c-.5,0-.9-.1-1.3-.3-.4-.2-.7-.5-.9-.9-.2-.4-.3-.8-.3-1.2s.1-.9.3-1.2c.2-.4.5-.7.9-.9.4-.2.8-.3,1.3-.3s.9.1,1.3.3c.4.2.7.5.9.9.2.4.3.8.3,1.2s-.1.9-.3,1.2c-.2.4-.5.7-.9.9-.4.2-.8.3-1.3.3ZM221.4,219.4c.3,0,.6,0,.8-.2.2-.2.4-.4.5-.6.1-.3.2-.5.2-.8s0-.6-.2-.8c-.1-.3-.3-.5-.5-.6-.2-.2-.5-.2-.8-.2s-.6,0-.8.2c-.2.2-.4.4-.5.6-.1.3-.2.5-.2.8s0,.6.2.8c.1.3.3.5.5.6.2.2.5.2.8.2ZM225.8,220h-.9v-4.4c0,0,0-.2,0-.3h.9v.7c.1-.1.2-.2.3-.4.1-.1.3-.2.5-.3.2,0,.5-.1.7-.1.6,0,1.1.2,1.3.5.3.4.4.8.4,1.4v2.8h-.9v-2.7c0-.4,0-.8-.3-.9-.2-.2-.4-.3-.8-.3s-.6,0-.8.3c-.2.2-.3.4-.4.7,0,.3-.1.6-.1.9v2.2ZM235.6,218.8l.6.6c-.2.2-.5.4-.8.6-.3.1-.7.2-1.1.2s-.9-.1-1.3-.3c-.4-.2-.6-.5-.8-.9-.2-.4-.3-.8-.3-1.3s.1-.9.3-1.2c.2-.4.5-.7.9-.9.4-.2.8-.3,1.3-.3s.7,0,1,.2.6.3.8.6l-.6.6c-.1-.2-.3-.3-.5-.4-.2-.1-.4-.1-.7-.1s-.6,0-.8.2c-.2.2-.4.4-.5.6-.1.3-.2.5-.2.8s0,.6.2.8c.1.3.3.5.5.6.2.2.5.2.8.2s.5,0,.7-.2c.2-.1.4-.2.5-.4ZM239,220.1c-.5,0-.9-.1-1.3-.3-.4-.2-.7-.5-.9-.9-.2-.4-.3-.8-.3-1.2s.1-.9.3-1.2c.2-.4.5-.7.9-.9.4-.2.8-.3,1.3-.3s.9.1,1.3.3c.4.2.7.5.9.9.2.4.3.8.3,1.2s-.1.9-.3,1.2c-.2.4-.5.7-.9.9-.4.2-.8.3-1.3.3ZM239,219.4c.3,0,.6,0,.8-.2.2-.2.4-.4.5-.6.1-.3.2-.5.2-.8s0-.6-.2-.8c-.1-.3-.3-.5-.5-.6-.2-.2-.5-.2-.8-.2s-.6,0-.8.2c-.2.2-.4.4-.5.6-.1.3-.2.5-.2.8s0,.6.2.8c.1.3.3.5.5.6.2.2.5.2.8.2ZM243.4,220h-.9v-4.4c0,0,0-.2,0-.3h.9v.7c.1-.1.2-.2.3-.4.1-.1.3-.2.5-.3.2,0,.4-.1.7-.1s.7,0,.9.2c.2.1.4.3.6.6.2-.2.4-.4.7-.6.3-.2.6-.3,1-.3.6,0,1,.2,1.3.5.3.4.4.8.4,1.4v2.8h-.9v-2.7c0-.8-.3-1.3-1-1.3s-.5,0-.7.2c-.2.1-.3.3-.5.5-.1.2-.2.4-.2.7v2.6h-.9v-2.7c0-.4,0-.8-.3-.9-.2-.2-.4-.3-.7-.3s-.6,0-.8.3c-.2.2-.3.4-.4.7,0,.3-.1.6-.1.9v2.2ZM251.9,222h-.9v-6.4c0,0,0-.2,0-.3h.9v.7c0,0,.2-.2.3-.3.1-.1.3-.2.5-.3.2,0,.5-.1.8-.1.5,0,.9.1,1.2.3.3.2.5.5.7.9.2.4.2.8.2,1.2s0,.8-.2,1.1c-.1.3-.3.6-.6.8-.2.2-.5.3-.8.4-.3,0-.6.1-.8.1s-.6,0-.8-.1c-.2,0-.4-.1-.5-.2v2.2ZM251.9,217.8v1.2c.1,0,.3.2.5.2s.4.1.8.1.6,0,.8-.2c.2-.1.4-.3.5-.6.1-.3.2-.5.2-.9s0-.6-.1-.8c0-.3-.2-.5-.4-.6s-.5-.2-.8-.2-.6,0-.8.3c-.2.2-.4.4-.5.8,0,.1,0,.2,0,.3,0,.1,0,.2,0,.4ZM259.5,220v-.6c-.2.2-.4.4-.7.5-.3.1-.6.2-.9.2s-.5,0-.8-.1c-.2,0-.5-.2-.6-.5-.2-.2-.2-.5-.2-.9,0-.5.2-.9.5-1.2s.9-.4,1.5-.4.3,0,.5,0c.2,0,.3,0,.4,0,.1,0,.2,0,.2,0v-.2c0-.3-.1-.6-.3-.7-.2-.2-.5-.2-.9-.2s-.6,0-.8.1c-.2,0-.4.2-.5.3l-.4-.6c.2-.1.4-.3.7-.4s.7-.2,1.2-.2,1.1.1,1.4.4c.3.3.5.7.5,1.2v2.9c0,0,0,.1,0,.2h-.8ZM259.5,218.3v-.5s-.1,0-.2,0c-.1,0-.3,0-.4,0-.1,0-.3,0-.4,0-.3,0-.6,0-.8.1-.2,0-.3.2-.4.4,0,.1,0,.3,0,.4,0,.2,0,.4.3.6s.4.2.7.2.4,0,.6-.1c.2-.1.4-.2.5-.4.1-.2.2-.3.2-.5ZM262.5,220h-.9v-4.4c0,0,0-.2,0-.3h.9v.8c.1-.1.2-.2.3-.4.1-.1.3-.2.5-.3.2,0,.4-.1.7-.1s.2,0,.3,0c0,0,.2,0,.2,0l-.2.8c-.1,0-.3,0-.5,0s-.5,0-.7.2c-.2.1-.4.3-.5.5s-.2.4-.2.7v2.4ZM268.7,218.8l.5.5c0,0-.2.2-.4.3-.2.1-.4.2-.7.4-.3,0-.6.1-1,.1s-.9-.1-1.3-.3c-.4-.2-.7-.5-.9-.9-.2-.4-.3-.8-.3-1.3s0-.9.3-1.2c.2-.4.5-.7.8-.9.4-.2.8-.3,1.2-.3s1,.1,1.3.4c.3.3.6.6.7,1,.2.4.2.9.2,1.3h-3.7c0,.3,0,.5.2.7.1.2.3.4.5.5.2.1.5.2.8.2.4,0,.7,0,1-.2.3-.1.4-.3.6-.4ZM265.6,217.3h2.7c0-.4-.2-.7-.4-.9-.2-.3-.5-.4-1-.4s-.5,0-.7.2-.4.3-.5.5c-.1.2-.2.4-.2.6ZM273.7,220v-.6c0,0-.2.1-.3.3-.1.1-.3.2-.5.3-.2,0-.5.1-.8.1s-.7,0-1.1-.3c-.3-.2-.6-.5-.7-.8s-.3-.8-.3-1.3,0-.8.2-1.1c.2-.3.4-.6.6-.8s.5-.3.8-.4c.3-.1.5-.1.8-.1s.5,0,.6,0c.2,0,.4.1.6.2v-2.2h.9v6.4c0,0,0,.2,0,.3h-.9ZM273.7,218v-1.7c-.1-.1-.3-.2-.5-.2-.2,0-.4-.1-.7-.1-.4,0-.8.2-1.1.5-.3.3-.4.7-.4,1.3s0,.6.1.8c.1.2.2.4.4.6.2.1.5.2.8.2s.6,0,.8-.2c.2-.1.3-.3.4-.5,0-.2.1-.4.1-.6ZM278,218.5v-2.4h-.8v-.8h.8v-1.5h.9v1.5h1.4v.8h-1.4v2.3c0,.4,0,.6.2.8.1.1.3.2.5.2s.3,0,.4,0c.1,0,.2-.1.3-.2l.4.6c-.2.2-.4.3-.6.4-.2,0-.4.1-.7.1-.5,0-.8-.1-1.1-.4-.2-.3-.4-.7-.4-1.2ZM283.4,220.1c-.5,0-.9-.1-1.3-.3-.4-.2-.7-.5-.9-.9-.2-.4-.3-.8-.3-1.2s.1-.9.3-1.2c.2-.4.5-.7.9-.9.4-.2.8-.3,1.3-.3s.9.1,1.3.3c.4.2.7.5.9.9.2.4.3.8.3,1.2s-.1.9-.3,1.2c-.2.4-.5.7-.9.9-.4.2-.8.3-1.3.3ZM283.4,219.4c.3,0,.6,0,.8-.2.2-.2.4-.4.5-.6.1-.3.2-.5.2-.8s0-.6-.2-.8c-.1-.3-.3-.5-.5-.6-.2-.2-.5-.2-.8-.2s-.6,0-.8.2c-.2.2-.4.4-.5.6-.1.3-.2.5-.2.8s0,.6.2.8c.1.3.3.5.5.6.2.2.5.2.8.2ZM289.1,218.5v-2.4h-.8v-.8h.8v-1.5h.9v1.5h1.4v.8h-1.4v2.3c0,.4,0,.6.2.8.1.1.3.2.5.2s.3,0,.4,0c.1,0,.2-.1.3-.2l.4.6c-.2.2-.4.3-.6.4-.2,0-.4.1-.7.1-.5,0-.8-.1-1.1-.4-.2-.3-.4-.7-.4-1.2ZM292.5,220v-6.7h.9v2.7c0-.1.2-.2.3-.3.1-.1.3-.2.5-.3.2,0,.5-.1.7-.1.6,0,1.1.2,1.3.5.3.4.4.8.4,1.4v2.8h-.9v-2.7c0-.4,0-.8-.3-.9-.2-.2-.4-.3-.8-.3s-.6,0-.8.3c-.2.2-.3.4-.4.7,0,.3-.1.6-.1.9v2.2h-.9ZM301.7,218.8l.5.5c0,0-.2.2-.4.3-.2.1-.4.2-.7.4-.3,0-.6.1-1,.1s-.9-.1-1.3-.3c-.4-.2-.7-.5-.9-.9-.2-.4-.3-.8-.3-1.3s0-.9.3-1.2c.2-.4.5-.7.8-.9.4-.2.8-.3,1.2-.3s1,.1,1.3.4c.3.3.6.6.7,1,.2.4.2.9.2,1.3h-3.7c0,.3,0,.5.2.7.1.2.3.4.5.5.2.1.5.2.8.2.4,0,.7,0,1-.2.3-.1.4-.3.5-.4ZM298.6,217.3h2.7c0-.4-.2-.7-.4-.9-.2-.3-.5-.4-1-.4s-.5,0-.7.2-.4.3-.5.5c-.1.2-.2.4-.2.6ZM304.9,219l.7-.6c.1.1.3.3.4.4s.4.3.6.3c.2,0,.5.1.8.1.4,0,.8,0,1-.3.2-.2.4-.5.4-.8s-.1-.6-.4-.8c-.3-.2-.7-.3-1.2-.4-.6-.1-1-.3-1.4-.7-.4-.3-.5-.7-.5-1.3s0-.6.2-.9c.2-.3.4-.5.8-.7.3-.2.7-.3,1.2-.3s.8,0,1.1.2c.3.1.5.2.7.4.2.1.3.3.3.4l-.6.6c0,0-.1-.2-.3-.3-.1-.1-.3-.2-.5-.3-.2,0-.4-.1-.7-.1s-.5,0-.7.2c-.2,0-.3.2-.4.4,0,.1-.1.3-.1.4,0,.3.1.6.4.7.3.2.7.3,1.2.4.3,0,.6.2.9.4.3.2.5.4.7.6.2.3.3.6.3,1.1s-.1.7-.3,1-.5.5-.8.7c-.4.2-.8.2-1.2.2s-.8,0-1.1-.2c-.3-.1-.6-.3-.8-.5-.2-.2-.4-.4-.5-.5ZM310.7,218.1v-2.8h.9v2.7c0,.4,0,.8.3.9s.4.3.8.3.6,0,.8-.3c.2-.2.3-.4.4-.7,0-.3.1-.6.1-.9v-2.2h.9v4.4c0,0,0,.2,0,.3h-.9v-.7c-.1.1-.2.2-.3.4-.1.1-.3.2-.5.3-.2,0-.4.1-.7.1-.6,0-1.1-.2-1.3-.5-.3-.4-.4-.8-.4-1.4ZM317.1,222h-.9v-6.4c0,0,0-.2,0-.3h.9v.7c0,0,.2-.2.3-.3.1-.1.3-.2.5-.3.2,0,.5-.1.8-.1.5,0,.9.1,1.2.3.3.2.5.5.7.9.2.4.2.8.2,1.2s0,.8-.2,1.1c-.1.3-.3.6-.6.8-.2.2-.5.3-.8.4-.3,0-.6.1-.8.1s-.6,0-.8-.1c-.2,0-.4-.1-.5-.2v2.2ZM317.1,217.8v1.2c.1,0,.3.2.5.2s.5.1.8.1.6,0,.8-.2c.2-.1.4-.3.5-.6.1-.3.2-.5.2-.9s0-.6-.1-.8c0-.3-.2-.5-.4-.6s-.5-.2-.8-.2-.6,0-.8.3c-.2.2-.4.4-.5.8,0,.1,0,.2,0,.3,0,.1,0,.2,0,.4ZM325.5,218.8l.5.5c0,0-.2.2-.4.3-.2.1-.4.2-.7.4-.3,0-.6.1-1,.1s-.9-.1-1.3-.3c-.4-.2-.7-.5-.9-.9-.2-.4-.3-.8-.3-1.3s0-.9.3-1.2c.2-.4.5-.7.8-.9.4-.2.8-.3,1.2-.3s1,.1,1.3.4c.3.3.6.6.7,1,.2.4.2.9.2,1.3h-3.7c0,.3,0,.5.2.7.1.2.3.4.5.5.2.1.5.2.8.2.4,0,.7,0,1-.2.3-.1.4-.3.5-.4ZM322.4,217.3h2.7c0-.4-.2-.7-.4-.9-.2-.3-.5-.4-1-.4s-.5,0-.7.2-.4.3-.5.5c-.1.2-.2.4-.2.6ZM328,220h-.9v-4.4c0,0,0-.2,0-.3h.9v.8c.1-.1.2-.2.3-.4.1-.1.3-.2.5-.3.2,0,.4-.1.7-.1s.2,0,.3,0c0,0,.2,0,.2,0l-.2.8c-.1,0-.3,0-.5,0s-.5,0-.7.2c-.2.1-.4.3-.5.5s-.2.4-.2.7v2.4ZM330.9,220v-6.7h2.1c.6,0,1,0,1.4.3.3.2.6.4.7.7.2.3.2.6.2.9s-.1.8-.3,1.1c-.2.3-.5.6-.9.7l1.6,2.9h-1.1l-1.4-2.7h-1.3v2.7h-.9ZM331.8,216.5h1.3c.4,0,.7-.1.9-.3.2-.2.3-.5.3-.8s-.1-.7-.3-.9c-.2-.2-.5-.3-.9-.3h-1.3v2.3ZM339.4,220v-.6c-.2.2-.4.4-.7.5-.3.1-.6.2-.9.2s-.5,0-.8-.1c-.2,0-.5-.2-.6-.5-.2-.2-.2-.5-.2-.9,0-.5.2-.9.5-1.2s.9-.4,1.5-.4.3,0,.5,0c.2,0,.3,0,.4,0,.1,0,.2,0,.2,0v-.2c0-.3-.1-.6-.3-.7-.2-.2-.5-.2-.9-.2s-.6,0-.8.1c-.2,0-.4.2-.5.3l-.4-.6c.2-.1.4-.3.7-.4s.7-.2,1.2-.2,1.1.1,1.4.4c.3.3.5.7.5,1.2v2.9c0,0,0,.1,0,.2h-.8ZM339.4,218.3v-.5s-.1,0-.2,0c-.1,0-.3,0-.4,0-.1,0-.3,0-.4,0-.3,0-.6,0-.8.1-.2,0-.3.2-.4.4,0,.1,0,.3,0,.4,0,.2,0,.4.3.6s.4.2.7.2.4,0,.6-.1c.2-.1.4-.2.5-.4.1-.2.2-.3.2-.5ZM341.8,218.5v-2.4h-.8v-.8h.8v-1.5h.9v1.5h1.4v.8h-1.4v2.3c0,.4,0,.6.2.8.1.1.3.2.5.2s.3,0,.4,0c.1,0,.2-.1.3-.2l.4.6c-.2.2-.4.3-.6.4-.2,0-.4.1-.7.1-.5,0-.8-.1-1.1-.4-.2-.3-.4-.7-.4-1.2ZM345.3,214.5v-1h1v1h-1ZM345.3,220v-4.6h.9v4.6h-.9ZM348.4,220h-.9v-4.4c0,0,0-.2,0-.3h.9v.7c.1-.1.2-.2.4-.4.1-.1.3-.2.5-.3.2,0,.5-.1.7-.1.6,0,1.1.2,1.4.5.3.4.4.8.4,1.4v2.8h-.9v-2.7c0-.4,0-.8-.3-.9-.2-.2-.4-.3-.8-.3s-.6,0-.8.3c-.2.2-.3.4-.4.7,0,.3-.1.6-.1.9v2.2ZM353.1,221.6l.4-.7c.2.1.3.2.6.3.2,0,.5.1.8.1s.8-.1,1-.4.3-.6.3-1v-.6c0,0-.1.1-.3.2-.1,0-.3.2-.5.3-.2,0-.4.1-.7.1-.5,0-.8,0-1.2-.3-.3-.2-.6-.5-.7-.8-.2-.4-.2-.8-.2-1.2s.1-.9.3-1.3c.2-.4.5-.7.9-.9.4-.2.8-.3,1.4-.3s.7,0,1,0c.3,0,.6.1.8.2v4.4c0,.7-.2,1.2-.6,1.6-.4.4-.9.6-1.6.6s-.9,0-1.1-.2c-.3-.1-.5-.2-.7-.4ZM356.3,218.1v-1.9c0,0-.2,0-.3,0-.1,0-.4,0-.6,0s-.6,0-.9.2c-.3.1-.5.3-.6.6-.1.3-.2.5-.2.9s0,.5.1.8c0,.2.2.4.4.6s.5.2.8.2.5,0,.7-.2c.2-.1.3-.3.4-.4,0-.2.1-.4.1-.6ZM358.2,219.4l.5-.6c.2.2.4.3.6.4.2.1.5.2.8.2s.5,0,.8-.1c.2-.1.3-.3.3-.5s0-.3-.1-.4c0,0-.2-.2-.4-.2-.2,0-.5-.1-.8-.2-.2,0-.5-.1-.7-.2-.2-.1-.4-.2-.6-.4-.1-.2-.2-.4-.2-.7s0-.6.3-.8c.2-.2.4-.4.7-.5.3-.1.6-.2.9-.2s.7,0,1,.2c.3.1.5.2.7.4l-.5.6c-.1-.1-.3-.2-.5-.3-.2,0-.5-.1-.7-.1s-.5,0-.7.1c-.2,0-.3.2-.3.5s.1.4.3.4c.2,0,.5.2.9.3.3,0,.6.2.8.3.2.1.4.3.6.4.1.2.2.4.2.7s0,.6-.3.8c-.2.2-.4.4-.7.5-.3.1-.6.2-1,.2-.9,0-1.5-.2-2-.7ZM364.4,220l2.6-6.7h1l2.6,6.7h-1.1l-.7-1.9h-2.7l-.7,1.9h-1ZM366.4,217.3h2.2l-1.1-2.9-1.1,2.9ZM374.7,218.8l.5.6c-.2.2-.5.4-.8.6-.3.1-.7.2-1.1.2s-.9-.1-1.3-.3c-.4-.2-.6-.5-.8-.9-.2-.4-.3-.8-.3-1.3s.1-.9.3-1.2c.2-.4.5-.7.9-.9.4-.2.8-.3,1.3-.3s.7,0,1,.2.6.3.8.6l-.6.6c-.1-.2-.3-.3-.5-.4-.2-.1-.4-.1-.7-.1s-.6,0-.8.2c-.2.2-.4.4-.5.6-.1.3-.2.5-.2.8s0,.6.2.8c.1.3.3.5.5.6.2.2.5.2.8.2s.5,0,.7-.2c.2-.1.4-.2.5-.4ZM379.3,218.8l.6.6c-.2.2-.5.4-.8.6-.3.1-.7.2-1,.2s-.9-.1-1.3-.3c-.4-.2-.6-.5-.8-.9-.2-.4-.3-.8-.3-1.3s.1-.9.3-1.2c.2-.4.5-.7.9-.9.4-.2.8-.3,1.3-.3s.7,0,1,.2c.3.1.6.3.8.6l-.6.6c-.1-.2-.3-.3-.5-.4-.2-.1-.4-.1-.7-.1s-.6,0-.8.2c-.2.2-.4.4-.5.6-.1.3-.2.5-.2.8s0,.6.2.8c.1.3.3.5.5.6.2.2.5.2.8.2s.5,0,.7-.2c.2-.1.4-.2.5-.4ZM380.7,218.1v-2.8h.9v2.7c0,.4,0,.8.3.9s.4.3.8.3.6,0,.8-.3c.2-.2.3-.4.4-.7,0-.3.1-.6.1-.9v-2.2h.9v4.4c0,0,0,.2,0,.3h-.9v-.7c-.1.1-.2.2-.3.4-.1.1-.3.2-.5.3-.2,0-.4.1-.7.1-.6,0-1.1-.2-1.3-.5-.3-.4-.4-.8-.4-1.4ZM387.1,220h-.9v-4.4c0,0,0-.2,0-.3h.9v.7c.1-.1.2-.2.3-.4.1-.1.3-.2.5-.3.2,0,.4-.1.7-.1s.7,0,.9.2c.2.1.4.3.6.6.2-.2.4-.4.7-.6.3-.2.6-.3,1-.3.6,0,1,.2,1.3.5.3.4.4.8.4,1.4v2.8h-.9v-2.7c0-.8-.3-1.3-1-1.3s-.5,0-.7.2c-.2.1-.3.3-.5.5-.1.2-.2.4-.2.7v2.6h-.9v-2.7c0-.4,0-.8-.3-.9-.2-.2-.4-.3-.7-.3s-.6,0-.8.3c-.2.2-.3.4-.4.7,0,.3-.1.6-.1.9v2.2ZM394.6,218.1v-2.8h.9v2.7c0,.4,0,.8.3.9.2.2.4.3.8.3s.6,0,.8-.3c.2-.2.3-.4.4-.7,0-.3.1-.6.1-.9v-2.2h.9v4.4c0,0,0,.2,0,.3h-.9v-.7c-.1.1-.2.2-.3.4-.1.1-.3.2-.5.3-.2,0-.4.1-.7.1-.6,0-1.1-.2-1.3-.5-.3-.4-.4-.8-.4-1.4ZM400.1,220v-6.7h.9v6.7h-.9ZM405.1,220v-.6c-.2.2-.4.4-.7.5-.3.1-.6.2-.9.2s-.5,0-.8-.1c-.2,0-.5-.2-.6-.5-.2-.2-.2-.5-.2-.9,0-.5.2-.9.5-1.2s.9-.4,1.5-.4.3,0,.5,0c.2,0,.3,0,.4,0,.1,0,.2,0,.2,0v-.2c0-.3-.1-.6-.3-.7-.2-.2-.5-.2-.9-.2s-.6,0-.8.1c-.2,0-.4.2-.5.3l-.4-.6c.2-.1.4-.3.7-.4s.7-.2,1.2-.2,1.1.1,1.4.4c.3.3.5.7.5,1.2v2.9c0,0,0,.1,0,.2h-.8ZM405.1,218.3v-.5s-.1,0-.2,0c-.1,0-.3,0-.4,0-.1,0-.3,0-.4,0-.3,0-.6,0-.8.1-.2,0-.3.2-.4.4,0,.1,0,.3,0,.4,0,.2,0,.4.3.6s.4.2.7.2.4,0,.6-.1c.2-.1.4-.2.5-.4.1-.2.2-.3.2-.5ZM407.6,218.5v-2.4h-.8v-.8h.8v-1.5h.9v1.5h1.4v.8h-1.4v2.3c0,.4,0,.6.2.8.1.1.3.2.5.2s.3,0,.4,0c.1,0,.2-.1.3-.2l.4.6c-.2.2-.4.3-.6.4-.2,0-.4.1-.7.1-.5,0-.8-.1-1.1-.4-.2-.3-.3-.7-.3-1.2ZM411,214.5v-1h1v1h-1ZM411.1,220v-4.6h.9v4.6h-.9ZM415.5,220.1c-.5,0-.9-.1-1.3-.3-.4-.2-.7-.5-.9-.9-.2-.4-.3-.8-.3-1.2s.1-.9.3-1.2c.2-.4.5-.7.9-.9.4-.2.8-.3,1.3-.3s.9.1,1.3.3c.4.2.7.5.9.9.2.4.3.8.3,1.2s-.1.9-.3,1.2c-.2.4-.5.7-.9.9-.4.2-.8.3-1.3.3ZM415.5,219.4c.3,0,.6,0,.8-.2.2-.2.4-.4.5-.6.1-.3.2-.5.2-.8s0-.6-.2-.8c-.1-.3-.3-.5-.5-.6-.2-.2-.5-.2-.8-.2s-.6,0-.8.2c-.2.2-.4.4-.5.6-.1.3-.2.5-.2.8s0,.6.2.8c.1.3.3.5.5.6.2.2.5.2.8.2ZM419.9,220h-.9v-4.4c0,0,0-.2,0-.3h.9v.7c.1-.1.2-.2.4-.4.1-.1.3-.2.5-.3.2,0,.5-.1.7-.1.6,0,1.1.2,1.4.5.3.4.4.8.4,1.4v2.8h-.9v-2.7c0-.4,0-.8-.3-.9-.2-.2-.4-.3-.8-.3s-.6,0-.8.3c-.2.2-.3.4-.4.7,0,.3-.1.6-.1.9v2.2ZM426.4,220v-6.7h4.2v.9h-3.2v2h2.5v.9h-2.5v2.9h-1ZM430.8,218.1v-2.8h.9v2.7c0,.4,0,.8.3.9.2.2.4.3.8.3s.6,0,.8-.3c.2-.2.3-.4.4-.7,0-.3.1-.6.1-.9v-2.2h.9v4.4c0,0,0,.2,0,.3h-.9v-.7c-.1.1-.2.2-.3.4-.1.1-.3.2-.5.3-.2,0-.4.1-.7.1-.6,0-1.1-.2-1.3-.5-.3-.4-.4-.8-.4-1.4ZM437.1,220h-.9v-4.4c0,0,0-.2,0-.3h.9v.7c.1-.1.2-.2.3-.4.1-.1.3-.2.5-.3.2,0,.5-.1.7-.1.6,0,1.1.2,1.4.5.3.4.4.8.4,1.4v2.8h-.9v-2.7c0-.4,0-.8-.3-.9-.2-.2-.4-.3-.8-.3s-.6,0-.8.3c-.2.2-.3.4-.4.7,0,.3-.1.6-.1.9v2.2ZM445,220v-.6c0,0-.2.1-.3.3-.1.1-.3.2-.5.3-.2,0-.5.1-.8.1s-.7,0-1.1-.3c-.3-.2-.6-.5-.7-.8-.2-.4-.3-.8-.3-1.3s0-.8.2-1.1c.2-.3.4-.6.6-.8s.5-.3.8-.4c.3-.1.5-.1.8-.1s.5,0,.6,0c.2,0,.4.1.6.2v-2.2h.9v6.4c0,0,0,.2,0,.3h-.9ZM445,218v-1.7c-.1-.1-.3-.2-.5-.2-.2,0-.4-.1-.7-.1-.4,0-.8.2-1.1.5-.3.3-.4.7-.4,1.3s0,.6.1.8c.1.2.2.4.5.6.2.1.5.2.8.2s.6,0,.8-.2c.2-.1.3-.3.4-.5,0-.2.1-.4.1-.6ZM454.1,218.3l.7.6c-.1.2-.3.3-.5.6-.2.2-.5.4-.9.5-.4.2-.8.2-1.2.2s-1.2-.2-1.7-.4c-.5-.3-.9-.7-1.2-1.2-.3-.5-.4-1.1-.4-1.8s0-.9.2-1.4c.2-.4.4-.8.7-1.1.3-.3.7-.6,1.1-.8.4-.2.9-.3,1.4-.3s.9,0,1.2.2c.3.1.6.3.8.5.2.2.4.4.5.6l-.7.6c-.1-.2-.2-.3-.4-.5-.2-.2-.4-.3-.6-.4-.2-.1-.5-.2-.9-.2s-.9.1-1.3.4c-.3.2-.6.6-.8,1-.2.4-.3.8-.3,1.3s0,.9.3,1.3c.2.4.5.7.8.9.3.2.8.3,1.2.3s.7,0,1-.2c.3-.1.5-.3.6-.4.2-.2.3-.3.4-.4ZM456.5,220h-.9v-4.4c0,0,0-.2,0-.3h.9v.8c.1-.1.2-.2.3-.4.1-.1.3-.2.5-.3.2,0,.4-.1.7-.1s.2,0,.3,0c0,0,.2,0,.2,0l-.2.8c-.1,0-.3,0-.5,0s-.5,0-.7.2c-.2.1-.4.3-.5.5s-.2.4-.2.7v2.4ZM462.7,218.8l.5.5c0,0-.2.2-.4.3-.2.1-.4.2-.7.4-.3,0-.6.1-1,.1s-.9-.1-1.3-.3c-.4-.2-.7-.5-.9-.9-.2-.4-.3-.8-.3-1.3s0-.9.3-1.2c.2-.4.5-.7.8-.9.4-.2.8-.3,1.2-.3s1,.1,1.3.4c.3.3.6.6.7,1,.2.4.2.9.2,1.3h-3.7c0,.3,0,.5.2.7.1.2.3.4.5.5.2.1.5.2.8.2.4,0,.7,0,1-.2.3-.1.4-.3.6-.4ZM459.7,217.3h2.7c0-.4-.2-.7-.4-.9-.2-.3-.5-.4-1-.4s-.5,0-.7.2c-.2.1-.4.3-.5.5-.1.2-.2.4-.2.6ZM467.7,220v-.6c0,0-.2.1-.3.3-.1.1-.3.2-.5.3-.2,0-.5.1-.8.1s-.7,0-1.1-.3c-.3-.2-.6-.5-.7-.8-.2-.4-.3-.8-.3-1.3s0-.8.2-1.1c.2-.3.4-.6.6-.8.2-.2.5-.3.8-.4.3-.1.5-.1.8-.1s.5,0,.7,0c.2,0,.4.1.6.2v-2.2h.9v6.4c0,0,0,.2,0,.3h-.9ZM467.7,218v-1.7c-.1-.1-.3-.2-.5-.2-.2,0-.4-.1-.7-.1-.4,0-.8.2-1.1.5-.3.3-.4.7-.4,1.3s0,.6.1.8c.1.2.2.4.5.6.2.1.5.2.8.2s.6,0,.8-.2c.2-.1.3-.3.4-.5,0-.2.1-.4.1-.6ZM469.8,214.5v-1h1v1h-1ZM469.9,220v-4.6h.9v4.6h-.9ZM472.5,218.5v-2.4h-.8v-.8h.8v-1.5h.9v1.5h1.4v.8h-1.4v2.3c0,.4,0,.6.2.8.1.1.3.2.5.2s.3,0,.4,0c.1,0,.2-.1.3-.2l.4.6c-.2.2-.4.3-.6.4-.2,0-.4.1-.7.1-.5,0-.8-.1-1.1-.4-.2-.3-.4-.7-.4-1.2ZM475.9,214.5v-1h1v1h-1ZM475.9,220v-4.6h.9v4.6h-.9ZM479,220h-.9v-4.4c0,0,0-.2,0-.3h.9v.7c.1-.1.2-.2.4-.4.1-.1.3-.2.5-.3.2,0,.5-.1.7-.1.6,0,1.1.2,1.4.5.3.4.4.8.4,1.4v2.8h-.9v-2.7c0-.4,0-.8-.3-.9-.2-.2-.4-.3-.8-.3s-.6,0-.8.3c-.2.2-.3.4-.4.7,0,.3-.1.6-.1.9v2.2ZM483.8,221.6l.4-.7c.2.1.3.2.6.3.2,0,.5.1.8.1s.8-.1,1-.4.3-.6.3-1v-.6c0,0-.1.1-.3.2-.1,0-.3.2-.5.3-.2,0-.4.1-.7.1-.5,0-.8,0-1.2-.3-.3-.2-.6-.5-.7-.8-.2-.4-.2-.8-.2-1.2s.1-.9.3-1.3c.2-.4.5-.7.9-.9.4-.2.9-.3,1.4-.3s.7,0,1,0c.3,0,.6.1.8.2v4.4c0,.7-.2,1.2-.6,1.6-.4.4-.9.6-1.6.6s-.9,0-1.1-.2c-.3-.1-.5-.2-.7-.4ZM486.9,218.1v-1.9c0,0-.2,0-.3,0-.1,0-.4,0-.6,0s-.6,0-.9.2c-.3.1-.5.3-.6.6-.1.3-.2.5-.2.9s0,.5.1.8c0,.2.2.4.4.6s.5.2.8.2.5,0,.7-.2c.2-.1.3-.3.4-.4,0-.2.1-.4.1-.6ZM491,220v-6.7h2.1c.6,0,1,0,1.4.3.3.2.6.4.7.7.2.3.2.6.2.9s-.1.8-.3,1.1c-.2.3-.5.6-.9.7l1.6,2.9h-1.1l-1.4-2.7h-1.3v2.7h-.9ZM491.9,216.5h1.3c.4,0,.7-.1.9-.3.2-.2.3-.5.3-.8s-.1-.7-.3-.9c-.2-.2-.5-.3-.9-.3h-1.3v2.3ZM499.5,220v-.6c-.2.2-.4.4-.7.5-.3.1-.6.2-.9.2s-.5,0-.8-.1c-.2,0-.5-.2-.6-.5-.2-.2-.2-.5-.2-.9,0-.5.2-.9.5-1.2.4-.3.9-.4,1.5-.4s.3,0,.4,0c.2,0,.3,0,.4,0,.1,0,.2,0,.2,0v-.2c0-.3-.1-.6-.3-.7-.2-.2-.5-.2-.9-.2s-.6,0-.8.1c-.2,0-.4.2-.5.3l-.4-.6c.2-.1.4-.3.7-.4.3-.1.7-.2,1.2-.2s1.1.1,1.4.4c.3.3.5.7.5,1.2v2.9c0,0,0,.1,0,.2h-.8ZM499.4,218.3v-.5s-.1,0-.2,0c-.1,0-.3,0-.4,0-.1,0-.3,0-.4,0-.3,0-.6,0-.8.1-.2,0-.3.2-.4.4,0,.1,0,.3,0,.4,0,.2,0,.4.3.6.2.1.4.2.7.2s.4,0,.6-.1c.2-.1.4-.2.5-.4.1-.2.2-.3.2-.5ZM501.9,218.5v-2.4h-.8v-.8h.8v-1.5h.9v1.5h1.4v.8h-1.4v2.3c0,.4,0,.6.2.8.1.1.3.2.5.2s.3,0,.4,0c.1,0,.2-.1.3-.2l.4.6c-.2.2-.4.3-.6.4-.2,0-.4.1-.7.1-.5,0-.8-.1-1.1-.4-.2-.3-.4-.7-.4-1.2ZM508.8,218.8l.5.5c0,0-.2.2-.4.3-.2.1-.4.2-.7.4-.3,0-.6.1-1,.1s-.9-.1-1.3-.3c-.4-.2-.7-.5-.9-.9-.2-.4-.3-.8-.3-1.3s0-.9.3-1.2c.2-.4.5-.7.8-.9.4-.2.8-.3,1.2-.3s1,.1,1.3.4c.3.3.6.6.7,1,.2.4.2.9.2,1.3h-3.7c0,.3,0,.5.2.7.1.2.3.4.6.5.2.1.5.2.8.2.4,0,.7,0,1-.2.3-.1.4-.3.5-.4ZM505.7,217.3h2.7c0-.4-.2-.7-.4-.9-.2-.3-.5-.4-1-.4s-.5,0-.7.2c-.2.1-.4.3-.5.5-.1.2-.2.4-.2.6ZM512,219l.7-.6c.1.1.3.3.4.4.2.1.4.3.6.3.2,0,.5.1.8.1.4,0,.8,0,1-.3.2-.2.4-.5.4-.8s-.1-.6-.4-.8c-.3-.2-.7-.3-1.2-.4-.6-.1-1-.3-1.4-.7-.4-.3-.5-.7-.5-1.3s0-.6.2-.9c.2-.3.4-.5.8-.7.3-.2.7-.3,1.2-.3s.8,0,1.1.2c.3.1.5.2.7.4.2.1.3.3.3.4l-.6.6c0,0-.1-.2-.3-.3-.1-.1-.3-.2-.5-.3-.2,0-.4-.1-.7-.1s-.5,0-.7.2c-.2,0-.3.2-.4.4,0,.1-.1.3-.1.4,0,.3.1.6.4.7.3.2.7.3,1.2.4.3,0,.7.2,1,.4.3.2.5.4.7.6.2.3.3.6.3,1.1s-.1.7-.3,1c-.2.3-.5.5-.8.7-.4.2-.8.2-1.2.2s-.8,0-1.1-.2c-.3-.1-.6-.3-.8-.5-.2-.2-.4-.4-.5-.5ZM517.8,218.1v-2.8h.9v2.7c0,.4,0,.8.3.9s.4.3.8.3.6,0,.8-.3c.2-.2.3-.4.4-.7,0-.3.1-.6.1-.9v-2.2h.9v4.4c0,0,0,.2,0,.3h-.9v-.7c-.1.1-.2.2-.3.4-.1.1-.3.2-.5.3-.2,0-.4.1-.7.1-.6,0-1.1-.2-1.3-.5-.3-.4-.4-.8-.4-1.4ZM524.2,220h-.9v-4.4c0,0,0-.2,0-.3h.9v.8c.1-.1.2-.2.3-.4.1-.1.3-.2.5-.3s.4-.1.7-.1.2,0,.3,0c0,0,.2,0,.2,0l-.2.8c-.1,0-.3,0-.5,0s-.5,0-.7.2c-.2.1-.4.3-.5.5s-.2.4-.2.7v2.4ZM528.3,220l-2-4.6h1l1.4,3.6,1.4-3.6h1l-2,4.6h-.9ZM535.4,218.8l.5.5c0,0-.2.2-.4.3-.2.1-.4.2-.7.4-.3,0-.6.1-1,.1s-.9-.1-1.3-.3c-.4-.2-.7-.5-.9-.9-.2-.4-.3-.8-.3-1.3s0-.9.3-1.2c.2-.4.5-.7.8-.9.4-.2.8-.3,1.2-.3s1,.1,1.3.4c.3.3.6.6.7,1,.2.4.2.9.2,1.3h-3.7c0,.3,0,.5.2.7.1.2.3.4.5.5.2.1.5.2.8.2.4,0,.7,0,1-.2.3-.1.4-.3.6-.4ZM532.4,217.3h2.7c0-.4-.2-.7-.4-.9-.2-.3-.5-.4-1-.4s-.5,0-.7.2c-.2.1-.4.3-.5.5-.1.2-.2.4-.2.6ZM536.5,221.8l.4-.6c0,0,.1.1.2.2,0,0,.2,0,.3,0,.2,0,.4,0,.5-.3.1-.2.2-.5.4-.8v-.3c.1,0-2-4.6-2-4.6h1l1.5,3.5,1.3-3.5h1l-1.9,4.5c0,.2-.2.4-.3.7,0,.3-.2.5-.3.7-.1.2-.3.4-.5.6-.2.2-.4.2-.7.2s-.4,0-.6,0c-.2,0-.3-.1-.4-.2ZM543,217.6v-.9h5v.9h-5ZM550.2,219l.7-.6c.1.1.3.3.4.4.2.1.4.3.6.3.2,0,.5.1.8.1.4,0,.8,0,1-.3.2-.2.4-.5.4-.8s-.1-.6-.4-.8c-.3-.2-.7-.3-1.2-.4-.6-.1-1-.3-1.4-.7-.4-.3-.5-.7-.5-1.3s0-.6.2-.9c.2-.3.4-.5.8-.7.3-.2.7-.3,1.2-.3s.8,0,1.1.2c.3.1.5.2.7.4.2.1.3.3.3.4l-.6.6c0,0-.1-.2-.3-.3-.1-.1-.3-.2-.5-.3-.2,0-.4-.1-.7-.1s-.5,0-.7.2c-.2,0-.3.2-.4.4,0,.1-.1.3-.1.4,0,.3.1.6.4.7.3.2.7.3,1.2.4.3,0,.7.2,1,.4.3.2.5.4.7.6.2.3.3.6.3,1.1s-.1.7-.3,1c-.2.3-.5.5-.8.7-.4.2-.8.2-1.2.2s-.8,0-1.1-.2c-.3-.1-.6-.3-.8-.5-.2-.2-.4-.4-.5-.5ZM556.4,220v-6.7h2.1c.6,0,1,0,1.4.3.3.2.6.4.7.7.2.3.2.6.2.9s0,.8-.3,1.1-.5.6-.9.7l1.6,2.9h-1.1l-1.4-2.7h-1.3v2.7h-.9ZM557.4,216.5h1.3c.4,0,.7-.1.9-.3.2-.2.3-.5.3-.8s-.1-.7-.3-.9c-.2-.2-.5-.3-.9-.3h-1.3v2.3ZM562,219.5l.5-.7c.2.1.4.3.6.4.2.1.5.2.8.2.5,0,.8-.1,1-.4.2-.3.3-.6.3-.9s0-.4-.1-.5c0-.2-.2-.4-.4-.5-.2-.1-.5-.2-.8-.2s-.5,0-.6,0c-.2,0-.3.1-.4.2l-.5-.4.6-3h3.1v.8h-2.5l-.3,1.7c0,0,.2,0,.3-.1.1,0,.3,0,.5,0,.6,0,1.1.2,1.5.5.4.3.6.8.6,1.5s0,.7-.2,1.1c-.2.3-.4.6-.8.8-.3.2-.8.3-1.3.3s-.8,0-1.1-.2c-.3-.1-.6-.3-.8-.5ZM569.7,220.1c-.5,0-1-.1-1.3-.4-.4-.3-.6-.7-.8-1.2-.2-.5-.3-1.1-.3-1.8s0-1.2.3-1.7c.2-.5.5-.9.8-1.1.4-.3.8-.4,1.3-.4s1,.1,1.3.4c.4.3.6.6.8,1.1.2.5.3,1.1.3,1.7s0,1.3-.3,1.8c-.2.5-.5.9-.8,1.2-.4.3-.8.4-1.3.4ZM569.7,219.3c.3,0,.6-.1.8-.3.2-.2.4-.5.5-.9.1-.4.2-.8.2-1.3,0-.7-.1-1.3-.4-1.8-.3-.4-.6-.7-1.1-.7s-.8.2-1.1.7c-.2.4-.4,1-.4,1.8s0,.9.2,1.3c.1.4.3.7.5.9.2.2.5.3.8.3ZM575,220v-6.7h2.3c.5,0,.8,0,1.1.2s.5.4.7.6c.1.3.2.5.2.9s0,.5-.2.7c-.1.2-.3.4-.4.5-.2.1-.3.2-.5.2.1,0,.3,0,.5.1.2,0,.3.2.5.3.2.1.3.3.4.5.1.2.2.4.2.8,0,.5-.1.8-.3,1.1-.2.3-.5.5-.9.6-.4.1-.8.2-1.3.2h-2.1ZM576,216.1h1.2c.2,0,.4,0,.6-.1.2,0,.3-.2.5-.3.1-.1.2-.3.2-.6s0-.5-.2-.6c-.1-.1-.3-.2-.5-.3-.2,0-.4,0-.6,0h-1.2v1.9ZM576,219.2h1.2c.2,0,.3,0,.5,0,.2,0,.4,0,.5-.1s.3-.2.4-.3c0-.1.1-.3.1-.6s0-.6-.2-.7c-.2-.2-.4-.3-.6-.3-.2,0-.5,0-.7,0h-1.2v2.2ZM583.7,220v-.6c-.2.2-.4.4-.7.5-.3.1-.6.2-.9.2s-.5,0-.8-.1c-.2,0-.5-.2-.6-.5-.2-.2-.2-.5-.2-.9,0-.5.2-.9.5-1.2.4-.3.9-.4,1.5-.4s.3,0,.5,0c.2,0,.3,0,.4,0,.1,0,.2,0,.2,0v-.2c0-.3-.1-.6-.3-.7-.2-.2-.5-.2-.8-.2s-.6,0-.8.1c-.2,0-.4.2-.5.3l-.4-.6c.2-.1.4-.3.7-.4.3-.1.7-.2,1.2-.2s1.1.1,1.4.4c.3.3.5.7.5,1.2v2.9c0,0,0,.1,0,.2h-.8ZM583.7,218.3v-.5s-.1,0-.2,0c-.1,0-.3,0-.4,0-.1,0-.3,0-.4,0-.3,0-.6,0-.8.1-.2,0-.3.2-.4.4,0,.1,0,.3,0,.4,0,.2,0,.4.3.6.2.1.4.2.7.2s.4,0,.6-.1c.2-.1.4-.2.5-.4.1-.2.2-.3.2-.5ZM585.8,220v-6.7h.9v6.7h-.9ZM590.8,220v-.6c-.2.2-.4.4-.7.5-.3.1-.6.2-.9.2s-.5,0-.8-.1c-.2,0-.5-.2-.6-.5-.2-.2-.2-.5-.2-.9,0-.5.2-.9.5-1.2.4-.3.9-.4,1.5-.4s.3,0,.5,0c.2,0,.3,0,.4,0,.1,0,.2,0,.2,0v-.2c0-.3-.1-.6-.3-.7-.2-.2-.5-.2-.8-.2s-.6,0-.8.1c-.2,0-.4.2-.5.3l-.4-.6c.2-.1.4-.3.7-.4.3-.1.7-.2,1.2-.2s1.1.1,1.4.4c.3.3.5.7.5,1.2v2.9c0,0,0,.1,0,.2h-.8ZM590.8,218.3v-.5s-.1,0-.2,0c-.1,0-.3,0-.4,0-.1,0-.3,0-.4,0-.3,0-.6,0-.8.1-.2,0-.3.2-.4.4,0,.1,0,.3,0,.4,0,.2,0,.4.3.6.2.1.4.2.7.2s.4,0,.6-.1c.2-.1.4-.2.5-.4.1-.2.2-.3.2-.5ZM593.8,220h-.9v-4.4c0,0,0-.2,0-.3h.9v.7c.1-.1.2-.2.3-.4.1-.1.3-.2.5-.3.2,0,.5-.1.7-.1.6,0,1.1.2,1.3.5.3.4.4.8.4,1.4v2.8h-.9v-2.7c0-.4,0-.8-.3-.9-.2-.2-.4-.3-.8-.3s-.6,0-.8.3c-.2.2-.3.4-.4.7,0,.3-.1.6-.1.9v2.2ZM601.8,218.8l.5.6c-.2.2-.5.4-.8.6-.3.1-.7.2-1,.2s-.9-.1-1.3-.3c-.4-.2-.6-.5-.8-.9-.2-.4-.3-.8-.3-1.3s.1-.9.3-1.2c.2-.4.5-.7.9-.9.4-.2.8-.3,1.3-.3s.7,0,1,.2c.3.1.6.3.8.6l-.6.6c-.1-.2-.3-.3-.5-.4s-.4-.1-.7-.1-.6,0-.8.2c-.2.2-.4.4-.5.6-.1.3-.2.5-.2.8s0,.6.2.8c.1.3.3.5.5.6s.5.2.8.2.5,0,.7-.2c.2-.1.4-.2.5-.4ZM606.7,218.8l.5.5c0,0-.2.2-.4.3-.2.1-.4.2-.7.4-.3,0-.6.1-1,.1s-.9-.1-1.3-.3c-.4-.2-.7-.5-.9-.9-.2-.4-.3-.8-.3-1.3s0-.9.3-1.2c.2-.4.5-.7.8-.9.4-.2.8-.3,1.2-.3s1,.1,1.3.4c.3.3.6.6.7,1,.2.4.2.9.2,1.3h-3.7c0,.3,0,.5.2.7.1.2.3.4.5.5.2.1.5.2.8.2.4,0,.7,0,1-.2.3-.1.4-.3.5-.4ZM603.7,217.3h2.7c0-.4-.2-.7-.4-.9-.2-.3-.5-.4-1-.4s-.5,0-.7.2c-.2.1-.4.3-.5.5-.1.2-.2.4-.2.6ZM611.7,220v-.6c0,0-.2.1-.3.3-.1.1-.3.2-.5.3-.2,0-.5.1-.8.1s-.7,0-1.1-.3c-.3-.2-.6-.5-.7-.8s-.3-.8-.3-1.3,0-.8.2-1.1c.2-.3.3-.6.6-.8s.5-.3.8-.4c.3-.1.5-.1.8-.1s.5,0,.7,0c.2,0,.4.1.6.2v-2.2h.9v6.4c0,0,0,.2,0,.3h-.9ZM611.7,218v-1.7c-.1-.1-.3-.2-.5-.2-.2,0-.4-.1-.7-.1-.4,0-.8.2-1.1.5-.3.3-.4.7-.4,1.3s0,.6.1.8c.1.2.2.4.5.6.2.1.5.2.8.2s.6,0,.8-.2c.2-.1.3-.3.4-.5,0-.2.1-.4.1-.6ZM617.5,220.9h-.9c-.1-.2-.2-.5-.4-.9-.2-.4-.3-.8-.4-1.3-.1-.5-.2-1.1-.2-1.8s0-1.2.2-1.8c.1-.5.3-1,.4-1.4.2-.4.3-.7.4-.9h.9c-.1.3-.3.6-.4,1-.1.4-.3.9-.4,1.4,0,.5-.1,1.1-.1,1.7s0,1.1.1,1.6c0,.5.2,1,.4,1.4.1.4.3.7.4,1ZM622.7,213.9l-.4.7s-.1,0-.3-.2c-.2,0-.4-.1-.7-.1s-.7.1-.9.3c-.3.2-.4.5-.6.8-.1.3-.2.7-.2,1,.1,0,.3-.2.6-.3.2-.1.5-.2.9-.2.6,0,1.1.2,1.4.6.3.4.5.9.5,1.5s0,.8-.3,1.1c-.2.3-.4.6-.7.7-.3.2-.7.3-1.1.3-.7,0-1.3-.2-1.7-.8-.4-.5-.6-1.3-.6-2.3s.1-1.4.3-1.9c.2-.5.5-1,.9-1.2.4-.3.9-.4,1.5-.4s.6,0,.9.1c.3.1.4.2.6.3ZM619.5,217.3c0,.7.1,1.2.3,1.5.2.4.6.6,1,.6s.6-.1.9-.3c.2-.2.4-.6.4-1s0-.7-.3-.9c-.2-.2-.5-.4-.9-.4s-.6,0-.8.1c-.2,0-.4.2-.6.3ZM626.1,220.1c-.5,0-1-.1-1.3-.4-.4-.3-.6-.7-.8-1.2-.2-.5-.3-1.1-.3-1.8s0-1.2.3-1.7.5-.9.8-1.1c.4-.3.8-.4,1.3-.4s1,.1,1.3.4c.4.3.6.6.8,1.1.2.5.3,1.1.3,1.7s0,1.3-.3,1.8-.5.9-.8,1.2c-.4.3-.8.4-1.3.4ZM626.1,219.3c.3,0,.6-.1.8-.3.2-.2.4-.5.5-.9.1-.4.2-.8.2-1.3,0-.7-.1-1.3-.4-1.8-.3-.4-.6-.7-1.1-.7s-.8.2-1.1.7c-.2.4-.4,1-.4,1.8s0,.9.2,1.3c.1.4.3.7.5.9.2.2.5.3.8.3ZM629.6,217.6v-.9h2.9v.9h-2.9ZM635.6,220h-1c.2-.5.3-1,.5-1.5.2-.5.4-1.1.7-1.6.2-.5.4-1,.7-1.4.2-.4.4-.8.5-1h-3.1v-.8h4v.8c-.1.2-.3.4-.4.8-.2.3-.3.7-.5,1.1-.2.4-.4.8-.5,1.3-.2.4-.3.9-.5,1.3-.1.4-.3.8-.4,1.1ZM643.5,213.9l-.4.7s-.1,0-.3-.2c-.2,0-.4-.1-.7-.1s-.7.1-1,.3c-.3.2-.4.5-.6.8-.1.3-.2.7-.2,1,.1,0,.3-.2.6-.3.2-.1.5-.2.9-.2.6,0,1.1.2,1.4.6.3.4.5.9.5,1.5s0,.8-.3,1.1c-.2.3-.4.6-.7.7-.3.2-.7.3-1.1.3-.7,0-1.3-.2-1.7-.8-.4-.5-.6-1.3-.6-2.3s.1-1.4.3-1.9c.2-.5.5-1,.9-1.2.4-.3.9-.4,1.5-.4s.6,0,.9.1c.3.1.4.2.6.3ZM640.2,217.3c0,.7.1,1.2.3,1.5.2.4.6.6,1,.6s.6-.1.9-.3c.2-.2.4-.6.4-1s0-.7-.3-.9c-.2-.2-.5-.4-.9-.4s-.6,0-.8.1c-.2,0-.4.2-.6.3ZM644.5,212.9h.9c.1.2.2.5.4.9.2.4.3.8.4,1.4.1.5.2,1.1.2,1.8s0,1.2-.2,1.8c-.1.5-.3,1-.4,1.3-.2.4-.3.7-.4.9h-.9c.1-.3.3-.6.4-1,.1-.4.3-.9.3-1.4,0-.5.1-1.1.1-1.7s0-1.1-.1-1.6-.2-1-.3-1.4c-.1-.4-.3-.7-.4-1ZM649.6,220v-6.7h1v6.7h-1ZM652.8,220h-.9v-4.4c0,0,0-.2,0-.3h.9v.7c.1-.1.2-.2.4-.4.1-.1.3-.2.5-.3.2,0,.5-.1.7-.1.6,0,1.1.2,1.3.5.3.4.4.8.4,1.4v2.8h-.9v-2.7c0-.4,0-.8-.3-.9-.2-.2-.4-.3-.8-.3s-.6,0-.8.3c-.2.2-.3.4-.4.7,0,.3-.1.6-.1.9v2.2ZM660.7,220v-.6c0,0-.2.1-.3.3-.1.1-.3.2-.5.3-.2,0-.5.1-.8.1s-.7,0-1.1-.3c-.3-.2-.6-.5-.7-.8s-.3-.8-.3-1.3,0-.8.2-1.1c.2-.3.4-.6.6-.8s.5-.3.8-.4c.3-.1.5-.1.8-.1s.5,0,.7,0c.2,0,.4.1.6.2v-2.2h.9v6.4c0,0,0,.2,0,.3h-.9ZM660.7,218v-1.7c-.1-.1-.3-.2-.5-.2s-.4-.1-.7-.1c-.4,0-.8.2-1.1.5-.3.3-.4.7-.4,1.3s0,.6.1.8c0,.2.2.4.5.6.2.1.5.2.8.2s.6,0,.8-.2c.2-.1.3-.3.4-.5,0-.2.1-.4.1-.6ZM666.6,218.8l.5.5c0,0-.2.2-.4.3-.2.1-.4.2-.7.4-.3,0-.6.1-1,.1s-.9-.1-1.3-.3c-.4-.2-.7-.5-.9-.9-.2-.4-.3-.8-.3-1.3s0-.9.3-1.2c.2-.4.5-.7.8-.9.4-.2.8-.3,1.2-.3s1,.1,1.3.4c.3.3.6.6.7,1,.2.4.2.9.2,1.3h-3.7c0,.3,0,.5.2.7.1.2.3.4.5.5.2.1.5.2.8.2.4,0,.7,0,1-.2.3-.1.4-.3.5-.4ZM663.6,217.3h2.7c0-.4-.2-.7-.4-.9-.2-.3-.5-.4-1-.4s-.5,0-.7.2c-.2.1-.4.3-.5.5-.1.2-.2.4-.2.6ZM667.6,220l1.8-2.4-1.7-2.2h1.1l1.1,1.5,1.1-1.5h1l-1.6,2.2,1.8,2.5h-1.1l-1.3-1.8-1.3,1.8h-1ZM677.7,220v-.6c-.2.2-.4.4-.7.5-.3.1-.6.2-.9.2s-.5,0-.8-.1c-.2,0-.5-.2-.6-.5-.2-.2-.2-.5-.2-.9,0-.5.2-.9.5-1.2.4-.3.9-.4,1.5-.4s.3,0,.5,0c.2,0,.3,0,.4,0,.1,0,.2,0,.2,0v-.2c0-.3-.1-.6-.3-.7-.2-.2-.5-.2-.8-.2s-.6,0-.8.1c-.2,0-.4.2-.5.3l-.4-.6c.2-.1.4-.3.7-.4.3-.1.7-.2,1.2-.2s1.1.1,1.4.4c.3.3.5.7.5,1.2v2.9c0,0,0,.1,0,.2h-.8ZM677.7,218.3v-.5s-.1,0-.2,0c-.1,0-.3,0-.4,0-.1,0-.3,0-.4,0-.3,0-.6,0-.8.1-.2,0-.3.2-.4.4,0,.1,0,.3,0,.4,0,.2,0,.4.3.6.2.1.4.2.7.2s.4,0,.6-.1c.2-.1.4-.2.5-.4.1-.2.2-.3.2-.5ZM680.2,218.5v-2.4h-.8v-.8h.8v-1.5h.9v1.5h1.4v.8h-1.4v2.3c0,.4,0,.6.2.8.1.1.3.2.5.2s.3,0,.4,0c.1,0,.2-.1.3-.2l.4.6c-.2.2-.4.3-.6.4-.2,0-.4.1-.7.1-.5,0-.8-.1-1.1-.4-.2-.3-.3-.7-.3-1.2ZM685.2,219l.7-.6c.1.1.3.3.4.4.2.1.4.3.6.3.2,0,.5.1.8.1.4,0,.8,0,1-.3.2-.2.4-.5.4-.8s-.1-.6-.4-.8c-.3-.2-.7-.3-1.2-.4-.6-.1-1-.3-1.4-.7-.4-.3-.5-.7-.5-1.3s0-.6.2-.9c.2-.3.4-.5.8-.7.3-.2.7-.3,1.2-.3s.8,0,1.1.2c.3.1.5.2.7.4.2.1.3.3.3.4l-.6.6c0,0-.1-.2-.3-.3-.1-.1-.3-.2-.5-.3-.2,0-.4-.1-.7-.1s-.5,0-.7.2c-.2,0-.3.2-.4.4,0,.1-.1.3-.1.4,0,.3.1.6.4.7.3.2.7.3,1.2.4.3,0,.6.2.9.4.3.2.5.4.7.6.2.3.3.6.3,1.1s-.1.7-.3,1c-.2.3-.5.5-.8.7-.4.2-.8.2-1.2.2s-.8,0-1.1-.2c-.3-.1-.6-.3-.8-.5-.2-.2-.4-.4-.6-.5ZM694.9,218.8l.5.5c0,0-.2.2-.4.3-.2.1-.4.2-.7.4-.3,0-.6.1-1,.1s-.9-.1-1.3-.3c-.4-.2-.7-.5-.9-.9-.2-.4-.3-.8-.3-1.3s0-.9.3-1.2c.2-.4.5-.7.8-.9.4-.2.8-.3,1.2-.3s1,.1,1.3.4c.3.3.6.6.7,1s.2.9.2,1.3h-3.7c0,.3,0,.5.2.7.1.2.3.4.5.5.2.1.5.2.8.2.4,0,.7,0,1-.2.3-.1.4-.3.5-.4ZM691.9,217.3h2.7c0-.4-.2-.7-.4-.9-.2-.3-.5-.4-1-.4s-.5,0-.7.2c-.2.1-.4.3-.5.5-.1.2-.2.4-.2.6ZM697.4,222h-.9v-6.4c0,0,0-.2,0-.3h.9v.7c0,0,.2-.2.3-.3.1-.1.3-.2.5-.3.2,0,.5-.1.8-.1.5,0,.9.1,1.2.3.3.2.5.5.7.9.2.4.2.8.2,1.2s0,.8-.2,1.1c-.1.3-.3.6-.6.8-.2.2-.5.3-.8.4-.3,0-.6.1-.8.1s-.6,0-.8-.1c-.2,0-.4-.1-.5-.2v2.2ZM697.4,217.8v1.2c.1,0,.3.2.5.2s.5.1.8.1.6,0,.8-.2c.2-.1.4-.3.5-.6.1-.3.2-.5.2-.9s0-.6-.1-.8c0-.3-.2-.5-.4-.6-.2-.2-.5-.2-.8-.2s-.6,0-.8.3c-.2.2-.4.4-.5.8,0,.1,0,.2,0,.3,0,.1,0,.2,0,.4ZM702.5,218.5v-2.4h-.8v-.8h.8v-1.5h.9v1.5h1.4v.8h-1.4v2.3c0,.4,0,.6.2.8.1.1.3.2.5.2s.3,0,.4,0c.1,0,.2-.1.3-.2l.4.6c-.2.2-.4.3-.6.4-.2,0-.4.1-.7.1-.5,0-.8-.1-1.1-.4-.2-.3-.3-.7-.3-1.2ZM707.8,220v-.6c0-.4,0-.7.2-.9.2-.3.4-.5.6-.8.3-.3.6-.5.8-.7.3-.2.5-.4.7-.6s.3-.3.5-.5c.1-.2.2-.4.2-.6s0-.3-.1-.4c0-.1-.2-.3-.3-.4-.2-.1-.4-.2-.6-.2s-.4,0-.6.1c-.2,0-.3.2-.4.3-.1.1-.2.2-.3.3l-.7-.5c0-.2.2-.3.4-.5.2-.2.4-.3.7-.4.3-.1.6-.2,1-.2s.8,0,1.1.2c.3.2.5.4.6.6.1.3.2.5.2.8s0,.6-.2.9c-.1.3-.3.5-.5.7-.2.2-.4.4-.7.6-.4.3-.8.6-1.1.9-.3.3-.4.6-.4.9h3v.8h-4ZM715.3,220.1c-.5,0-1-.1-1.3-.4-.4-.3-.6-.7-.8-1.2-.2-.5-.3-1.1-.3-1.8s0-1.2.3-1.7c.2-.5.5-.9.8-1.1.4-.3.8-.4,1.3-.4s1,.1,1.3.4c.4.3.6.6.8,1.1.2.5.3,1.1.3,1.7s0,1.3-.3,1.8c-.2.5-.5.9-.8,1.2-.4.3-.8.4-1.3.4ZM715.3,219.3c.3,0,.6-.1.8-.3.2-.2.4-.5.5-.9.1-.4.2-.8.2-1.3,0-.7-.1-1.3-.4-1.8s-.6-.7-1.1-.7-.8.2-1.1.7c-.2.4-.4,1-.4,1.8s0,.9.2,1.3c.1.4.3.7.5.9.2.2.5.3.8.3ZM718.7,220v-.6c0-.4,0-.7.2-.9.2-.3.4-.5.6-.8.3-.3.6-.5.8-.7.3-.2.5-.4.7-.6.2-.2.3-.3.5-.5.1-.2.2-.4.2-.6s0-.3-.1-.4c0-.1-.2-.3-.3-.4-.2-.1-.4-.2-.6-.2s-.4,0-.6.1c-.2,0-.3.2-.4.3-.1.1-.2.2-.3.3l-.7-.5c0-.2.2-.3.4-.5.2-.2.4-.3.7-.4.3-.1.6-.2,1-.2s.8,0,1.1.2c.3.2.5.4.7.6.1.3.2.5.2.8s0,.6-.2.9c-.1.3-.3.5-.5.7-.2.2-.4.4-.7.6-.4.3-.8.6-1.1.9-.3.3-.4.6-.4.9h3v.8h-4ZM723.9,219.5l.5-.7c.2.1.4.3.6.4.2.1.5.2.8.2.5,0,.8-.1,1-.4.2-.3.3-.6.3-.9s0-.4-.1-.5c0-.2-.2-.4-.4-.5-.2-.1-.5-.2-.8-.2s-.5,0-.7,0c-.2,0-.3.1-.4.2l-.5-.4.6-3h3.1v.8h-2.5l-.3,1.7c0,0,.2,0,.3-.1.1,0,.3,0,.5,0,.6,0,1.1.2,1.5.5.4.3.6.8.6,1.5s0,.7-.2,1.1c-.2.3-.4.6-.8.8-.3.2-.8.3-1.3.3s-.8,0-1.1-.2c-.3-.1-.6-.3-.8-.5ZM729.6,220v-1.1h1.1v1.1h-1.1ZM737.5,217.4v-.8h2.3v2.7c-.2.2-.6.4-1,.6-.4.2-1,.3-1.6.3s-1.3-.2-1.8-.4c-.5-.3-.9-.7-1.2-1.2-.3-.5-.4-1.1-.4-1.8s0-.9.2-1.4c.2-.4.4-.8.7-1.1.3-.3.7-.6,1.1-.8.4-.2.9-.3,1.4-.3s.9,0,1.2.2c.3.1.6.3.9.5.2.2.4.4.5.6l-.7.6c-.1-.2-.2-.3-.4-.5-.2-.2-.4-.3-.6-.4-.2-.1-.5-.2-.9-.2-.5,0-.9.1-1.3.4-.4.2-.6.6-.8,1-.2.4-.3.8-.3,1.3s.1,1,.3,1.4c.2.4.5.7.9.9.4.2.8.3,1.2.3s.7,0,1-.1c.3,0,.5-.2.7-.4v-1.4h-1.4ZM744.8,218.8l.5.5c0,0-.2.2-.4.3-.2.1-.4.2-.7.4-.3,0-.6.1-1,.1s-.9-.1-1.3-.3c-.4-.2-.7-.5-.9-.9-.2-.4-.3-.8-.3-1.3s0-.9.3-1.2c.2-.4.5-.7.8-.9.4-.2.8-.3,1.2-.3s1,.1,1.3.4c.3.3.6.6.7,1,.2.4.2.9.2,1.3h-3.7c0,.3,0,.5.2.7.1.2.3.4.5.5.2.1.5.2.8.2.4,0,.7,0,1-.2.3-.1.4-.3.5-.4ZM741.8,217.3h2.7c0-.4-.2-.7-.4-.9-.2-.3-.5-.4-1-.4s-.5,0-.7.2c-.2.1-.4.3-.5.5-.1.2-.2.4-.2.6ZM747.4,220h-.9v-4.4c0,0,0-.2,0-.3h.9v.7c.1-.1.2-.2.3-.4.1-.1.3-.2.5-.3.2,0,.5-.1.7-.1.6,0,1.1.2,1.4.5.3.4.4.8.4,1.4v2.8h-.9v-2.7c0-.4,0-.8-.3-.9-.2-.2-.4-.3-.8-.3s-.6,0-.8.3c-.2.2-.3.4-.4.7,0,.3-.1.6-.1.9v2.2ZM755.6,218.8l.5.5c0,0-.2.2-.4.3-.2.1-.4.2-.7.4-.3,0-.6.1-1,.1s-.9-.1-1.3-.3c-.4-.2-.7-.5-.9-.9-.2-.4-.3-.8-.3-1.3s0-.9.3-1.2c.2-.4.5-.7.8-.9.4-.2.8-.3,1.2-.3s1,.1,1.3.4c.3.3.6.6.7,1s.2.9.2,1.3h-3.7c0,.3,0,.5.2.7.1.2.3.4.6.5.2.1.5.2.8.2.4,0,.7,0,1-.2.3-.1.4-.3.5-.4ZM752.6,217.3h2.7c0-.4-.2-.7-.4-.9-.2-.3-.5-.4-1-.4s-.5,0-.7.2c-.2.1-.4.3-.5.5-.1.2-.2.4-.2.6ZM758.2,220h-.9v-4.4c0,0,0-.2,0-.3h.9v.8c.1-.1.2-.2.3-.4.1-.1.3-.2.5-.3s.4-.1.7-.1.2,0,.3,0c0,0,.2,0,.2,0l-.2.8c-.1,0-.3,0-.5,0s-.5,0-.7.2c-.2.1-.4.3-.5.5s-.2.4-.2.7v2.4ZM763.7,220v-.6c-.2.2-.4.4-.7.5-.3.1-.6.2-.9.2s-.5,0-.8-.1c-.2,0-.5-.2-.6-.5-.2-.2-.2-.5-.2-.9,0-.5.2-.9.5-1.2.4-.3.9-.4,1.5-.4s.3,0,.5,0c.2,0,.3,0,.4,0,.1,0,.2,0,.2,0v-.2c0-.3-.1-.6-.3-.7-.2-.2-.5-.2-.9-.2s-.6,0-.8.1c-.2,0-.4.2-.5.3l-.4-.6c.2-.1.4-.3.7-.4.3-.1.7-.2,1.2-.2s1.1.1,1.4.4c.3.3.5.7.5,1.2v2.9c0,0,0,.1,0,.2h-.8ZM763.7,218.3v-.5s-.1,0-.2,0c-.1,0-.3,0-.4,0-.1,0-.3,0-.4,0-.3,0-.6,0-.8.1-.2,0-.3.2-.4.4,0,.1,0,.3,0,.4,0,.2,0,.4.3.6.2.1.4.2.7.2s.4,0,.6-.1c.2-.1.4-.2.5-.4.1-.2.2-.3.2-.5ZM765.7,220v-6.7h.9v6.7h-.9ZM772.6,220v-.6c-.2.2-.4.4-.7.5-.3.1-.6.2-.9.2s-.5,0-.8-.1c-.2,0-.5-.2-.6-.5-.2-.2-.2-.5-.2-.9,0-.5.2-.9.5-1.2.4-.3.9-.4,1.5-.4s.3,0,.5,0c.2,0,.3,0,.4,0,.1,0,.2,0,.2,0v-.2c0-.3-.1-.6-.3-.7-.2-.2-.5-.2-.8-.2s-.6,0-.8.1c-.2,0-.4.2-.5.3l-.4-.6c.2-.1.4-.3.7-.4.3-.1.7-.2,1.2-.2s1.1.1,1.4.4c.3.3.5.7.5,1.2v2.9c0,0,0,.1,0,.2h-.8ZM772.6,218.3v-.5s-.1,0-.2,0c-.1,0-.3,0-.4,0-.1,0-.3,0-.4,0-.3,0-.6,0-.8.1-.2,0-.3.2-.4.4,0,.1,0,.3,0,.4,0,.2,0,.4.3.6.2.1.4.2.7.2s.4,0,.6-.1c.2-.1.4-.2.5-.4.1-.2.2-.3.2-.5ZM778.1,220v-.6c0,0-.2.1-.3.3-.1.1-.3.2-.5.3-.2,0-.5.1-.8.1s-.7,0-1.1-.3c-.3-.2-.6-.5-.7-.8s-.3-.8-.3-1.3,0-.8.2-1.1c.2-.3.3-.6.6-.8s.5-.3.8-.4c.3-.1.5-.1.8-.1s.5,0,.7,0c.2,0,.4.1.6.2v-2.2h.9v6.4c0,0,0,.2,0,.3h-.9ZM778,218v-1.7c-.1-.1-.3-.2-.5-.2-.2,0-.4-.1-.7-.1-.4,0-.8.2-1.1.5-.3.3-.4.7-.4,1.3s0,.6.1.8c.1.2.2.4.5.6.2.1.5.2.8.2s.6,0,.8-.2c.2-.1.3-.3.4-.5,0-.2.1-.4.1-.6ZM781.6,220l-2-4.6h1l1.5,3.6,1.4-3.6h1l-2,4.6h-.9ZM785.2,214.5v-1h1v1h-1ZM785.2,220v-4.6h.9v4.6h-.9ZM790.9,218.8l.6.6c-.2.2-.5.4-.8.6-.3.1-.7.2-1,.2s-.9-.1-1.3-.3c-.4-.2-.6-.5-.8-.9-.2-.4-.3-.8-.3-1.3s.1-.9.3-1.2c.2-.4.5-.7.9-.9.4-.2.8-.3,1.3-.3s.7,0,1,.2.6.3.8.6l-.6.6c-.1-.2-.3-.3-.5-.4-.2-.1-.4-.1-.7-.1s-.6,0-.8.2c-.2.2-.4.4-.5.6-.1.3-.2.5-.2.8s0,.6.2.8c.1.3.3.5.5.6s.5.2.8.2.5,0,.7-.2c.2-.1.4-.2.5-.4ZM795.8,218.8l.5.5c0,0-.2.2-.4.3-.2.1-.4.2-.7.4-.3,0-.6.1-1,.1s-.9-.1-1.3-.3c-.4-.2-.7-.5-.9-.9-.2-.4-.3-.8-.3-1.3s0-.9.3-1.2c.2-.4.5-.7.8-.9.4-.2.8-.3,1.2-.3s1,.1,1.3.4c.3.3.6.6.7,1,.2.4.2.9.2,1.3h-3.7c0,.3,0,.5.2.7.1.2.3.4.5.5.2.1.5.2.8.2.4,0,.7,0,1-.2.3-.1.4-.3.5-.4ZM792.7,217.3h2.7c0-.4-.2-.7-.4-.9-.2-.3-.5-.4-1-.4s-.5,0-.7.2c-.2.1-.4.3-.5.5-.1.2-.2.4-.2.6ZM801.5,220.1c-.5,0-.9-.1-1.3-.3-.4-.2-.7-.5-.9-.9-.2-.4-.3-.8-.3-1.2s.1-.9.3-1.2c.2-.4.5-.7.9-.9.4-.2.8-.3,1.3-.3s.9.1,1.3.3c.4.2.7.5.9.9.2.4.3.8.3,1.2s-.1.9-.3,1.2c-.2.4-.5.7-.9.9-.4.2-.8.3-1.3.3ZM801.5,219.4c.3,0,.6,0,.8-.2.2-.2.4-.4.5-.6.1-.3.2-.5.2-.8s0-.6-.2-.8c-.1-.3-.3-.5-.5-.6-.2-.2-.5-.2-.8-.2s-.6,0-.8.2c-.2.2-.4.4-.5.6-.1.3-.2.5-.2.8s0,.6.2.8c.1.3.3.5.5.6.2.2.5.2.8.2ZM805.8,220h-.9v-4.4c0,0,0-.2,0-.3h.9v.7c.1-.1.2-.2.3-.4.1-.1.3-.2.5-.3.2,0,.5-.1.7-.1.6,0,1.1.2,1.4.5.3.4.4.8.4,1.4v2.8h-.9v-2.7c0-.4,0-.8-.3-.9-.2-.2-.4-.3-.8-.3s-.6,0-.8.3c-.2.2-.3.4-.4.7,0,.3-.1.6-.1.9v2.2ZM810.4,220v-6.7h.9v6.7h-.9ZM812.1,221.8l.4-.6c0,0,.1.1.2.2,0,0,.2,0,.3,0,.2,0,.4,0,.5-.3.1-.2.2-.5.4-.8v-.3c.1,0-2-4.6-2-4.6h1l1.5,3.5,1.3-3.5h1l-1.9,4.5c0,.2-.2.4-.3.7,0,.3-.2.5-.3.7-.1.2-.3.4-.5.6-.2.2-.4.2-.7.2s-.4,0-.6,0c-.2,0-.3-.1-.4-.2ZM816.8,220v-1.1h1.1v1.1h-1.1ZM826.2,218.3l.7.6c-.1.2-.3.3-.5.6-.2.2-.5.4-.9.5-.4.2-.8.2-1.2.2s-1.2-.2-1.7-.4c-.5-.3-.9-.7-1.2-1.2-.3-.5-.4-1.1-.4-1.8s0-.9.2-1.4c.2-.4.4-.8.7-1.1.3-.3.7-.6,1.1-.8.4-.2.9-.3,1.4-.3s.9,0,1.2.2c.3.1.6.3.8.5.2.2.4.4.5.6l-.7.6c-.1-.2-.2-.3-.4-.5-.2-.2-.4-.3-.6-.4-.2-.1-.5-.2-.9-.2s-.9.1-1.3.4c-.3.2-.6.6-.8,1-.2.4-.3.8-.3,1.3s0,.9.3,1.3c.2.4.5.7.8.9.3.2.8.3,1.2.3s.7,0,1-.2c.3-.1.5-.3.6-.4.2-.2.3-.3.4-.4ZM829.9,220.1c-.5,0-.9-.1-1.3-.3-.4-.2-.7-.5-.9-.9-.2-.4-.3-.8-.3-1.2s.1-.9.3-1.2c.2-.4.5-.7.9-.9.4-.2.8-.3,1.3-.3s.9.1,1.3.3c.4.2.7.5.9.9.2.4.3.8.3,1.2s-.1.9-.3,1.2c-.2.4-.5.7-.9.9-.4.2-.8.3-1.3.3ZM829.9,219.4c.3,0,.6,0,.8-.2.2-.2.4-.4.5-.6.1-.3.2-.5.2-.8s0-.6-.2-.8c-.1-.3-.3-.5-.5-.6-.2-.2-.5-.2-.8-.2s-.6,0-.8.2c-.2.2-.4.4-.5.6-.1.3-.2.5-.2.8s0,.6.2.8c.1.3.3.5.5.6.2.2.5.2.8.2ZM834.2,220h-.9v-4.4c0,0,0-.2,0-.3h.9v.7c.1-.1.2-.2.3-.4.1-.1.3-.2.5-.3.2,0,.5-.1.7-.1.6,0,1.1.2,1.3.5.3.4.4.8.4,1.4v2.8h-.9v-2.7c0-.4,0-.8-.3-.9-.2-.2-.4-.3-.8-.3s-.6,0-.8.3c-.2.2-.3.4-.4.7,0,.3-.1.6-.1.9v2.2ZM838.5,219.4l.5-.6c.2.2.4.3.6.4.2.1.5.2.8.2s.5,0,.8-.1c.2-.1.3-.3.3-.5s0-.3-.1-.4c0,0-.2-.2-.4-.2-.2,0-.5-.1-.8-.2-.2,0-.5-.1-.7-.2-.2-.1-.4-.2-.6-.4-.1-.2-.2-.4-.2-.7s0-.6.3-.8c.2-.2.4-.4.7-.5.3-.1.6-.2.9-.2s.7,0,1,.2c.3.1.5.2.7.4l-.5.6c-.1-.1-.3-.2-.5-.3-.2,0-.5-.1-.7-.1s-.5,0-.7.1c-.2,0-.3.2-.3.5s.1.4.3.4c.2,0,.5.2.9.3.3,0,.6.2.8.3.2.1.4.3.6.4.1.2.2.4.2.7s0,.6-.3.8c-.2.2-.4.4-.7.5-.3.1-.6.2-.9.2-.9,0-1.5-.2-2-.7ZM843.5,214.5v-1h1v1h-1ZM843.5,220v-4.6h.9v4.6h-.9ZM849.1,220v-.6c0,0-.2.1-.3.3-.1.1-.3.2-.5.3-.2,0-.5.1-.8.1s-.7,0-1.1-.3c-.3-.2-.6-.5-.7-.8s-.3-.8-.3-1.3,0-.8.2-1.1c.2-.3.3-.6.6-.8.2-.2.5-.3.8-.4.3-.1.5-.1.8-.1s.5,0,.6,0c.2,0,.4.1.6.2v-2.2h.9v6.4c0,0,0,.2,0,.3h-.9ZM849.1,218v-1.7c-.1-.1-.3-.2-.5-.2-.2,0-.4-.1-.7-.1-.4,0-.8.2-1.1.5-.3.3-.4.7-.4,1.3s0,.6.1.8c0,.2.2.4.4.6.2.1.5.2.8.2s.6,0,.8-.2c.2-.1.3-.3.4-.5,0-.2.1-.4.1-.6ZM854.9,218.8l.5.5c0,0-.2.2-.4.3-.2.1-.4.2-.7.4-.3,0-.6.1-1,.1s-.9-.1-1.3-.3c-.4-.2-.7-.5-.9-.9-.2-.4-.3-.8-.3-1.3s0-.9.3-1.2c.2-.4.5-.7.8-.9.4-.2.8-.3,1.2-.3s1,.1,1.3.4c.3.3.6.6.7,1s.2.9.2,1.3h-3.7c0,.3,0,.5.2.7.1.2.3.4.5.5.2.1.5.2.8.2.4,0,.7,0,1-.2.3-.1.4-.3.5-.4ZM851.9,217.3h2.7c0-.4-.2-.7-.4-.9-.2-.3-.5-.4-1-.4s-.5,0-.7.2c-.2.1-.4.3-.5.5-.1.2-.2.4-.2.6ZM857.5,220h-.9v-4.4c0,0,0-.2,0-.3h.9v.8c.1-.1.2-.2.3-.4.1-.1.3-.2.5-.3s.4-.1.7-.1.2,0,.3,0c0,0,.2,0,.2,0l-.2.8c-.1,0-.3,0-.5,0s-.5,0-.7.2c-.2.1-.4.3-.5.5-.1.2-.2.4-.2.7v2.4ZM862.4,218.5v-2.4h-.8v-.8h.8v-1.5h.9v1.5h1.4v.8h-1.4v2.3c0,.4,0,.6.2.8.1.1.3.2.5.2s.3,0,.4,0c.1,0,.2-.1.3-.2l.4.6c-.2.2-.4.3-.6.4-.2,0-.4.1-.7.1-.5,0-.8-.1-1.1-.4-.2-.3-.3-.7-.3-1.2ZM865.8,220v-6.7h.9v2.7c0-.1.2-.2.3-.3.1-.1.3-.2.5-.3.2,0,.5-.1.7-.1.6,0,1.1.2,1.3.5.3.4.4.8.4,1.4v2.8h-.9v-2.7c0-.4,0-.8-.3-.9-.2-.2-.4-.3-.8-.3s-.6,0-.8.3c-.2.2-.3.4-.4.7,0,.3-.1.6-.1.9v2.2h-.9ZM875,218.8l.5.5c0,0-.2.2-.4.3-.2.1-.4.2-.7.4-.3,0-.6.1-1,.1s-.9-.1-1.3-.3c-.4-.2-.7-.5-.9-.9-.2-.4-.3-.8-.3-1.3s0-.9.3-1.2c.2-.4.5-.7.8-.9.4-.2.8-.3,1.2-.3s1,.1,1.3.4c.3.3.6.6.7,1s.2.9.2,1.3h-3.7c0,.3,0,.5.2.7.1.2.3.4.6.5.2.1.5.2.8.2.4,0,.7,0,1-.2.3-.1.4-.3.5-.4ZM872,217.3h2.7c0-.4-.2-.7-.4-.9-.2-.3-.5-.4-1-.4s-.5,0-.7.2c-.2.1-.4.3-.5.5-.1.2-.2.4-.2.6ZM878.6,220v-6.7h2.1c.5,0,.8,0,1.1.2.3.1.5.3.7.5.2.2.3.4.4.7,0,.2.1.5.1.7,0,.4,0,.8-.3,1.1-.2.3-.5.5-.8.7s-.7.2-1.2.2h-1.2v2.6h-1ZM879.5,216.6h1.2c.4,0,.7-.1,1-.3.2-.2.3-.5.3-.9s-.1-.7-.3-.9c-.2-.2-.5-.3-.9-.3h-1.2v2.4ZM884.3,220v-6.7h2.2c.7,0,1.3.1,1.9.4.5.2,1,.6,1.3,1.1.3.5.5,1.1.5,1.9s-.2,1.4-.5,1.9c-.3.5-.7.9-1.3,1.1s-1.2.4-1.9.4h-2.2ZM885.2,219.1h1.2c.8,0,1.5-.2,1.9-.6.5-.4.7-1,.7-1.8s-.2-1.4-.7-1.9c-.4-.4-1.1-.6-2-.6h-1.2v4.9ZM891,219l.7-.6c.1.1.3.3.4.4.2.1.4.3.6.3.2,0,.5.1.8.1.4,0,.8,0,1-.3.2-.2.4-.5.4-.8s-.1-.6-.4-.8c-.3-.2-.7-.3-1.2-.4-.6-.1-1-.3-1.4-.7-.4-.3-.5-.7-.5-1.3s0-.6.2-.9c.2-.3.4-.5.8-.7.3-.2.7-.3,1.2-.3s.8,0,1.1.2c.3.1.5.2.7.4.2.1.3.3.3.4l-.6.6c0,0-.1-.2-.3-.3-.1-.1-.3-.2-.5-.3-.2,0-.4-.1-.7-.1s-.5,0-.7.2c-.2,0-.3.2-.4.4,0,.1-.1.3-.1.4,0,.3.1.6.4.7.3.2.7.3,1.2.4.3,0,.7.2,1,.4.3.2.5.4.7.6.2.3.3.6.3,1.1s-.1.7-.3,1c-.2.3-.5.5-.8.7-.4.2-.8.2-1.2.2s-.8,0-1.1-.2c-.3-.1-.6-.3-.8-.5-.2-.2-.4-.4-.5-.5ZM901.8,220v-.6c-.2.2-.4.4-.7.5-.3.1-.6.2-.9.2s-.5,0-.8-.1c-.2,0-.5-.2-.6-.5-.2-.2-.2-.5-.2-.9,0-.5.2-.9.5-1.2.4-.3.9-.4,1.5-.4s.3,0,.5,0c.2,0,.3,0,.4,0,.1,0,.2,0,.2,0v-.2c0-.3-.1-.6-.3-.7-.2-.2-.5-.2-.8-.2s-.6,0-.8.1c-.2,0-.4.2-.5.3l-.4-.6c.2-.1.4-.3.7-.4.3-.1.7-.2,1.2-.2s1.1.1,1.4.4c.3.3.5.7.5,1.2v2.9c0,0,0,.1,0,.2h-.8ZM901.7,218.3v-.5s-.1,0-.2,0c-.1,0-.3,0-.4,0-.1,0-.3,0-.4,0-.3,0-.6,0-.8.1-.2,0-.3.2-.4.4,0,.1,0,.3,0,.4,0,.2,0,.4.3.6.2.1.4.2.7.2s.4,0,.6-.1c.2-.1.4-.2.5-.4.1-.2.2-.3.2-.5ZM904.7,220h-.9v-4.4c0,0,0-.2,0-.3h.9v.7c.1-.1.2-.2.4-.4.1-.1.3-.2.5-.3.2,0,.5-.1.7-.1.6,0,1.1.2,1.3.5.3.4.4.8.4,1.4v2.8h-.9v-2.7c0-.4,0-.8-.3-.9-.2-.2-.4-.3-.8-.3s-.6,0-.8.3c-.2.2-.3.4-.4.7,0,.3-.1.6-.1.9v2.2ZM912.7,220v-.6c0,0-.2.1-.3.3-.1.1-.3.2-.5.3-.2,0-.5.1-.8.1s-.7,0-1.1-.3c-.3-.2-.6-.5-.7-.8s-.3-.8-.3-1.3,0-.8.2-1.1c.2-.3.3-.6.6-.8s.5-.3.8-.4c.3-.1.5-.1.8-.1s.5,0,.7,0c.2,0,.4.1.6.2v-2.2h.9v6.4c0,0,0,.2,0,.3h-.9ZM912.6,218v-1.7c-.1-.1-.3-.2-.5-.2-.2,0-.4-.1-.7-.1-.4,0-.8.2-1.1.5-.3.3-.4.7-.4,1.3s0,.6.1.8c.1.2.2.4.5.6.2.1.5.2.8.2s.6,0,.8-.2c.2-.1.3-.3.4-.5,0-.2.1-.4.1-.6ZM918.6,220v-5.8h-2.4v-.8h5.7v.8h-2.4v5.8h-1ZM922.8,220l.3-6.7h.9l2,3.5,2-3.5h.9l.3,6.7h-.9l-.2-5.1-1.9,3.1h-.5l-1.8-3.1-.2,5.1h-.9ZM930.7,220v-6.7h2.2c.7,0,1.3.1,1.9.4.5.2,1,.6,1.3,1.1.3.5.5,1.1.5,1.9s-.2,1.4-.5,1.9c-.3.5-.7.9-1.3,1.1-.5.2-1.2.4-1.9.4h-2.2ZM931.7,219.1h1.2c.8,0,1.5-.2,1.9-.6.5-.4.7-1,.7-1.8s-.2-1.4-.7-1.9c-.4-.4-1.1-.6-2-.6h-1.2v4.9ZM942.4,220v-.6c-.2.2-.4.4-.7.5-.3.1-.6.2-.9.2s-.5,0-.8-.1c-.2,0-.5-.2-.6-.5-.2-.2-.2-.5-.2-.9,0-.5.2-.9.5-1.2.4-.3.9-.4,1.5-.4s.3,0,.5,0c.2,0,.3,0,.4,0,.1,0,.2,0,.2,0v-.2c0-.3-.1-.6-.3-.7-.2-.2-.5-.2-.8-.2s-.6,0-.8.1c-.2,0-.4.2-.5.3l-.4-.6c.2-.1.4-.3.7-.4.3-.1.7-.2,1.2-.2s1.1.1,1.4.4c.3.3.5.7.5,1.2v2.9c0,0,0,.1,0,.2h-.8ZM942.4,218.3v-.5s-.1,0-.2,0c-.1,0-.3,0-.4,0-.1,0-.3,0-.4,0-.3,0-.6,0-.8.1-.2,0-.3.2-.4.4,0,.1,0,.3,0,.4,0,.2,0,.4.3.6.2.1.4.2.7.2s.4,0,.6-.1c.2-.1.4-.2.5-.4.1-.2.2-.3.2-.5ZM944.9,218.5v-2.4h-.8v-.8h.8v-1.5h.9v1.5h1.4v.8h-1.4v2.3c0,.4,0,.6.2.8.1.1.3.2.5.2s.3,0,.4,0c.1,0,.2-.1.3-.2l.4.6c-.2.2-.4.3-.6.4-.2,0-.4.1-.7.1-.5,0-.8-.1-1.1-.4-.2-.3-.4-.7-.4-1.2ZM89.7,230v-6.7h.9v2.7c0-.1.2-.2.3-.3.1-.1.3-.2.5-.3.2,0,.5-.1.7-.1.6,0,1.1.2,1.3.5.3.4.4.8.4,1.4v2.8h-.9v-2.7c0-.4,0-.8-.3-.9-.2-.2-.4-.3-.8-.3s-.6,0-.8.3c-.2.2-.3.4-.4.7,0,.3-.1.6-.1.9v2.2h-.9ZM97.4,230.1c-.5,0-.9-.1-1.3-.3-.4-.2-.7-.5-.9-.9-.2-.4-.3-.8-.3-1.2s.1-.9.3-1.2c.2-.4.5-.7.9-.9.4-.2.8-.3,1.3-.3s.9.1,1.3.3c.4.2.7.5.9.9.2.4.3.8.3,1.2s-.1.9-.3,1.2c-.2.4-.5.7-.9.9-.4.2-.8.3-1.3.3ZM97.4,229.4c.3,0,.6,0,.8-.2.2-.2.4-.4.5-.6.1-.3.2-.5.2-.8s0-.6-.2-.8c-.1-.3-.3-.5-.5-.6-.2-.2-.5-.2-.8-.2s-.6,0-.8.2c-.2.2-.4.4-.5.6-.1.3-.2.5-.2.8s0,.6.2.8c.1.3.3.5.5.6.2.2.5.2.8.2ZM100.6,229.4l.6-.6c.2.2.4.3.6.4.2.1.5.2.8.2s.5,0,.8-.1c.2-.1.3-.3.3-.5s0-.3-.1-.4c0,0-.2-.2-.4-.2-.2,0-.5-.1-.8-.2-.2,0-.5-.1-.7-.2-.2-.1-.4-.2-.6-.4-.1-.2-.2-.4-.2-.7s0-.6.3-.8c.2-.2.4-.4.7-.5.3-.1.6-.2.9-.2s.7,0,1,.2c.3.1.5.2.7.4l-.5.6c-.1-.1-.3-.2-.5-.3-.2,0-.4-.1-.7-.1s-.5,0-.7.1c-.2,0-.3.2-.3.5s.1.4.3.4c.2,0,.5.2.9.3.3,0,.6.2.8.3.2.1.4.3.6.4.1.2.2.4.2.7s0,.6-.3.8c-.2.2-.4.4-.7.5-.3.1-.6.2-.9.2-.9,0-1.5-.2-2-.7ZM106,228.5v-2.4h-.8v-.8h.8v-1.5h.9v1.5h1.4v.8h-1.4v2.3c0,.4,0,.6.2.8.1.1.3.2.5.2s.3,0,.4,0c.1,0,.2-.1.3-.2l.4.6c-.2.2-.4.3-.6.4-.2,0-.4.1-.7.1-.5,0-.8-.1-1.1-.4-.2-.3-.3-.7-.3-1.2ZM110.3,232h-.9v-6.4c0,0,0-.2,0-.3h.9v.7c0,0,.2-.2.3-.3.1-.1.3-.2.5-.3s.5-.1.8-.1c.5,0,.9.1,1.2.3.3.2.5.5.7.9.2.4.2.8.2,1.2s0,.8-.2,1.1c-.1.3-.3.6-.6.8-.2.2-.5.3-.8.4-.3,0-.6.1-.8.1s-.6,0-.8-.1c-.2,0-.4-.1-.5-.2v2.2ZM110.3,227.8v1.2c.1,0,.3.2.5.2.2,0,.4.1.8.1s.6,0,.8-.2c.2-.1.4-.3.5-.6.1-.3.2-.5.2-.9s0-.6-.1-.8c0-.3-.2-.5-.4-.6-.2-.2-.5-.2-.8-.2s-.6,0-.8.3c-.2.2-.4.4-.5.8,0,.1,0,.2,0,.3,0,.1,0,.2,0,.4ZM115,230v-6.7h.9v6.7h-.9ZM117.1,228.1v-2.8h.9v2.7c0,.4,0,.8.3.9s.4.3.8.3.6,0,.8-.3c.2-.2.3-.4.4-.7,0-.3.1-.6.1-.9v-2.2h.9v4.4c0,0,0,.2,0,.3h-.9v-.7c-.1.1-.2.2-.3.4-.1.1-.3.2-.5.3-.2,0-.4.1-.7.1-.6,0-1.1-.2-1.3-.5-.3-.4-.4-.8-.4-1.4ZM122.3,229.4l.5-.6c.2.2.4.3.6.4.2.1.5.2.8.2s.5,0,.8-.1c.2-.1.3-.3.3-.5s0-.3-.1-.4c0,0-.2-.2-.4-.2-.2,0-.5-.1-.8-.2-.2,0-.5-.1-.7-.2-.2-.1-.4-.2-.6-.4-.1-.2-.2-.4-.2-.7s0-.6.3-.8c.2-.2.4-.4.7-.5.3-.1.6-.2.9-.2s.7,0,1,.2c.3.1.5.2.7.4l-.5.6c-.1-.1-.3-.2-.5-.3-.2,0-.4-.1-.7-.1s-.5,0-.7.1c-.2,0-.3.2-.3.5s.1.4.3.4c.2,0,.5.2.9.3.3,0,.6.2.8.3.2.1.4.3.6.4.1.2.2.4.2.7s0,.6-.3.8c-.2.2-.4.4-.7.5-.3.1-.6.2-1,.2-.9,0-1.5-.2-2-.7ZM127.1,230v-1.1h1.1v1.1h-1.1ZM132.7,228.8l.6.6c-.2.2-.5.4-.8.6-.3.1-.7.2-1,.2s-.9-.1-1.3-.3c-.4-.2-.6-.5-.8-.9-.2-.4-.3-.8-.3-1.3s.1-.9.3-1.2c.2-.4.5-.7.9-.9.4-.2.8-.3,1.3-.3s.7,0,1,.2.6.3.8.6l-.6.6c-.1-.2-.3-.3-.5-.4s-.4-.1-.7-.1-.6,0-.8.2c-.2.2-.4.4-.5.6-.1.3-.2.5-.2.8s0,.6.2.8c.1.3.3.5.5.6.2.2.5.2.8.2s.5,0,.7-.2c.2-.1.4-.2.5-.4ZM136.1,230.1c-.5,0-.9-.1-1.3-.3-.4-.2-.7-.5-.9-.9-.2-.4-.3-.8-.3-1.2s.1-.9.3-1.2c.2-.4.5-.7.9-.9.4-.2.8-.3,1.3-.3s.9.1,1.3.3c.4.2.7.5.9.9.2.4.3.8.3,1.2s-.1.9-.3,1.2c-.2.4-.5.7-.9.9-.4.2-.8.3-1.3.3ZM136.1,229.4c.3,0,.6,0,.8-.2.2-.2.4-.4.5-.6.1-.3.2-.5.2-.8s0-.6-.2-.8c-.1-.3-.3-.5-.5-.6-.2-.2-.5-.2-.8-.2s-.6,0-.8.2c-.2.2-.4.4-.5.6-.1.3-.2.5-.2.8s0,.6.2.8c.1.3.3.5.5.6.2.2.5.2.8.2ZM140.5,230h-.9v-4.4c0,0,0-.2,0-.3h.9v.7c.1-.1.2-.2.3-.4.1-.1.3-.2.5-.3.2,0,.4-.1.7-.1s.7,0,.9.2c.2.1.4.3.6.6.2-.2.4-.4.7-.6.3-.2.6-.3,1-.3.6,0,1,.2,1.3.5.3.4.4.8.4,1.4v2.8h-.9v-2.7c0-.8-.3-1.3-1-1.3s-.5,0-.7.2c-.2.1-.3.3-.5.5-.1.2-.2.4-.2.7v2.6h-.9v-2.7c0-.4,0-.8-.3-.9-.2-.2-.4-.3-.7-.3s-.6,0-.8.3c-.2.2-.3.4-.4.7,0,.3-.1.6-.1.9v2.2ZM148.1,230v-1.1h1.1v1.1h-1.1ZM153.5,230v-.6c-.2.2-.4.4-.7.5-.3.1-.6.2-.9.2s-.5,0-.8-.1c-.2,0-.5-.2-.6-.5-.2-.2-.2-.5-.2-.9,0-.5.2-.9.5-1.2.4-.3.9-.4,1.5-.4s.3,0,.5,0c.2,0,.3,0,.4,0,.1,0,.2,0,.2,0v-.2c0-.3-.1-.6-.3-.7-.2-.2-.5-.2-.8-.2s-.6,0-.8.1c-.2,0-.4.2-.5.3l-.4-.6c.2-.1.4-.3.7-.4.3-.1.7-.2,1.2-.2s1.1.1,1.4.4c.3.3.5.7.5,1.2v2.9c0,0,0,.1,0,.2h-.8ZM153.5,228.3v-.5s-.1,0-.2,0c-.1,0-.3,0-.4,0-.1,0-.3,0-.4,0-.3,0-.6,0-.8.1-.2,0-.3.2-.4.4,0,.1,0,.3,0,.4,0,.2,0,.4.3.6.2.1.4.2.7.2s.4,0,.6-.1c.2-.1.4-.2.5-.4.1-.2.2-.3.2-.5ZM155.6,228.1v-2.8h.9v2.7c0,.4,0,.8.3.9.2.2.4.3.8.3s.6,0,.8-.3c.2-.2.3-.4.4-.7,0-.3.1-.6.1-.9v-2.2h.9v4.4c0,0,0,.2,0,.3h-.9v-.7c-.1.1-.2.2-.3.4-.1.1-.3.2-.5.3-.2,0-.4.1-.7.1-.6,0-1.1-.2-1.3-.5-.3-.4-.4-.8-.4-1.4ZM162.8,229.8v-6.5h.9v2.5c0-.1.3-.3.5-.4.2-.1.6-.2.9-.2s.8.1,1.2.3c.3.2.6.5.7.9.2.4.2.8.2,1.2s-.1.9-.3,1.3c-.2.4-.5.7-.9.9-.4.2-.8.3-1.4.3s-.7,0-1.1,0c-.3,0-.6-.1-.8-.2ZM163.7,227.4v1.8c0,0,.2,0,.3,0,.1,0,.3,0,.6,0,.5,0,.9-.2,1.2-.5.3-.3.5-.7.5-1.2s0-.6-.1-.8c0-.2-.2-.4-.4-.6-.2-.2-.4-.2-.8-.2s-.5,0-.7.2c-.2.1-.3.3-.4.5,0,.2-.1.4-.1.7ZM172,228.8l.5.5c0,0-.2.2-.4.3-.2.1-.4.2-.7.4-.3,0-.6.1-1,.1s-.9-.1-1.3-.3c-.4-.2-.7-.5-.9-.9-.2-.4-.3-.8-.3-1.3s0-.9.3-1.2c.2-.4.5-.7.8-.9.4-.2.8-.3,1.2-.3s1,.1,1.3.4c.3.3.6.6.7,1,.2.4.2.9.2,1.3h-3.7c0,.3,0,.5.2.7.1.2.3.4.6.5.2.1.5.2.8.2.4,0,.7,0,1-.2.3-.1.4-.3.6-.4ZM169,227.3h2.7c0-.4-.2-.7-.4-.9-.2-.3-.5-.4-1-.4s-.5,0-.7.2c-.2.1-.4.3-.5.5-.1.2-.2.4-.2.6ZM174,230v-3.9h-.8v-.8h.8v-.4c0-.4,0-.8.2-1s.4-.5.6-.6c.2-.1.5-.2.8-.2s.5,0,.7.1c.2,0,.5.2.7.4l-.4.6c-.2-.2-.5-.3-.8-.3s-.5,0-.6.2c-.2.2-.2.5-.2.9v.3h1.3v.8h-1.3v3.9h-.9ZM179,230.1c-.5,0-.9-.1-1.3-.3-.4-.2-.7-.5-.9-.9-.2-.4-.3-.8-.3-1.2s.1-.9.3-1.2c.2-.4.5-.7.9-.9.4-.2.8-.3,1.3-.3s.9.1,1.3.3c.4.2.7.5.9.9.2.4.3.8.3,1.2s-.1.9-.3,1.2c-.2.4-.5.7-.9.9-.4.2-.8.3-1.3.3ZM179,229.4c.3,0,.6,0,.8-.2.2-.2.4-.4.5-.6.1-.3.2-.5.2-.8s0-.6-.2-.8c-.1-.3-.3-.5-.5-.6-.2-.2-.5-.2-.8-.2s-.6,0-.8.2c-.2.2-.4.4-.5.6-.1.3-.2.5-.2.8s0,.6.2.8c.1.3.3.5.5.6.2.2.5.2.8.2ZM183.4,230h-.9v-4.4c0,0,0-.2,0-.3h.9v.8c.1-.1.2-.2.3-.4.1-.1.3-.2.5-.3.2,0,.4-.1.7-.1s.2,0,.3,0c0,0,.2,0,.2,0l-.2.8c-.1,0-.3,0-.5,0s-.5,0-.7.2c-.2.1-.4.3-.5.5s-.2.4-.2.7v2.4ZM189.6,228.8l.5.5c0,0-.2.2-.4.3-.2.1-.4.2-.7.4-.3,0-.6.1-1,.1s-.9-.1-1.3-.3c-.4-.2-.7-.5-.9-.9-.2-.4-.3-.8-.3-1.3s0-.9.3-1.2c.2-.4.5-.7.8-.9.4-.2.8-.3,1.2-.3s1,.1,1.3.4c.3.3.6.6.7,1s.2.9.2,1.3h-3.7c0,.3,0,.5.2.7.1.2.3.4.6.5.2.1.5.2.8.2.4,0,.7,0,1-.2.3-.1.4-.3.6-.4ZM186.6,227.3h2.7c0-.4-.2-.7-.4-.9-.2-.3-.5-.4-1-.4s-.5,0-.7.2-.4.3-.5.5c-.1.2-.2.4-.2.6ZM193.9,230h-.9v-4.4c0,0,0-.2,0-.3h.9v.7c.1-.1.2-.2.3-.4.1-.1.3-.2.5-.3.2,0,.4-.1.7-.1s.7,0,.9.2c.2.1.4.3.6.6.2-.2.4-.4.7-.6.3-.2.6-.3,1-.3.6,0,1,.2,1.3.5.3.4.4.8.4,1.4v2.8h-.9v-2.7c0-.8-.3-1.3-1-1.3s-.5,0-.7.2c-.2.1-.3.3-.5.5-.1.2-.2.4-.2.7v2.6h-.9v-2.7c0-.4,0-.8-.3-.9-.2-.2-.4-.3-.7-.3s-.6,0-.8.3c-.2.2-.3.4-.4.7,0,.3-.1.6-.1.9v2.2ZM204.5,230v-.6c-.2.2-.4.4-.7.5-.3.1-.6.2-.9.2s-.5,0-.8-.1c-.2,0-.5-.2-.6-.5-.2-.2-.2-.5-.2-.9,0-.5.2-.9.5-1.2s.9-.4,1.5-.4.3,0,.4,0c.2,0,.3,0,.4,0,.1,0,.2,0,.2,0v-.2c0-.3-.1-.6-.3-.7-.2-.2-.5-.2-.8-.2s-.6,0-.8.1c-.2,0-.4.2-.5.3l-.4-.6c.2-.1.4-.3.7-.4s.7-.2,1.2-.2,1.1.1,1.4.4c.3.3.5.7.5,1.2v2.9c0,0,0,.1,0,.2h-.8ZM204.4,228.3v-.5s-.1,0-.2,0c-.1,0-.3,0-.4,0-.1,0-.3,0-.4,0-.3,0-.6,0-.8.1-.2,0-.3.2-.4.4,0,.1,0,.3,0,.4,0,.2,0,.4.3.6.2.1.4.2.7.2s.4,0,.6-.1c.2-.1.4-.2.5-.4.1-.2.2-.3.2-.5ZM206.5,230v-6.7h.9v3.9l1.9-1.9h1.1l-1.8,1.7,2,2.9h-1.1l-1.6-2.3-.6.6v1.7h-.9ZM211.4,224.5v-1h1v1h-1ZM211.5,230v-4.6h.9v4.6h-.9ZM214.5,230h-.9v-4.4c0,0,0-.2,0-.3h.9v.7c.1-.1.2-.2.3-.4.1-.1.3-.2.5-.3.2,0,.5-.1.7-.1.6,0,1.1.2,1.3.5.3.4.4.8.4,1.4v2.8h-.9v-2.7c0-.4,0-.8-.3-.9-.2-.2-.4-.3-.8-.3s-.6,0-.8.3c-.2.2-.3.4-.4.7,0,.3-.1.6-.1.9v2.2ZM219.3,231.6l.4-.7c.2.1.3.2.6.3.2,0,.5.1.8.1s.8-.1,1-.4.3-.6.3-1v-.6c0,0-.1.1-.3.2-.1,0-.3.2-.5.3-.2,0-.4.1-.7.1-.5,0-.8,0-1.2-.3-.3-.2-.6-.5-.7-.8-.2-.4-.2-.8-.2-1.2s.1-.9.3-1.3c.2-.4.5-.7.9-.9s.9-.3,1.4-.3.7,0,1.1,0c.3,0,.6.1.8.2v4.4c0,.7-.2,1.2-.6,1.6-.4.4-.9.6-1.6.6s-.9,0-1.1-.2c-.3-.1-.5-.2-.7-.4ZM222.4,228.1v-1.9c0,0-.2,0-.3,0-.1,0-.4,0-.6,0s-.6,0-.9.2c-.3.1-.5.3-.6.6-.1.3-.2.5-.2.9s0,.5.1.8c0,.2.2.4.4.6.2.1.5.2.8.2s.5,0,.7-.2c.2-.1.3-.3.4-.4,0-.2.1-.4.1-.6ZM229.3,230v-.6c-.2.2-.4.4-.7.5-.3.1-.6.2-.9.2s-.5,0-.8-.1c-.2,0-.5-.2-.6-.5-.2-.2-.2-.5-.2-.9,0-.5.2-.9.5-1.2.4-.3.9-.4,1.5-.4s.3,0,.5,0c.2,0,.3,0,.4,0,.1,0,.2,0,.2,0v-.2c0-.3-.1-.6-.3-.7-.2-.2-.5-.2-.9-.2s-.6,0-.8.1c-.2,0-.4.2-.5.3l-.4-.6c.2-.1.4-.3.7-.4.3-.1.7-.2,1.2-.2s1.1.1,1.4.4c.3.3.5.7.5,1.2v2.9c0,0,0,.1,0,.2h-.8ZM229.3,228.3v-.5s-.1,0-.2,0c-.1,0-.3,0-.4,0-.1,0-.3,0-.4,0-.3,0-.6,0-.8.1-.2,0-.3.2-.4.4,0,.1,0,.3,0,.4,0,.2,0,.4.3.6.2.1.4.2.7.2s.4,0,.6-.1c.2-.1.4-.2.5-.4.1-.2.2-.3.2-.5ZM236.5,230v-.6c0,0-.2.1-.3.3-.1.1-.3.2-.5.3-.2,0-.5.1-.8.1s-.7,0-1.1-.3c-.3-.2-.6-.5-.7-.8-.2-.4-.3-.8-.3-1.3s0-.8.2-1.1c.2-.3.3-.6.6-.8.2-.2.5-.3.8-.4.3-.1.5-.1.8-.1s.5,0,.6,0c.2,0,.4.1.6.2v-2.2h.9v6.4c0,0,0,.2,0,.3h-.9ZM236.5,228v-1.7c-.1-.1-.3-.2-.5-.2-.2,0-.4-.1-.7-.1-.4,0-.8.2-1.1.5-.3.3-.4.7-.4,1.3s0,.6.1.8c0,.2.2.4.4.6.2.1.5.2.8.2s.6,0,.8-.2c.2-.1.3-.3.4-.5,0-.2.1-.4.1-.6ZM242.4,228.8l.5.5c0,0-.2.2-.4.3-.2.1-.4.2-.7.4-.3,0-.6.1-1,.1s-.9-.1-1.3-.3c-.4-.2-.7-.5-.9-.9-.2-.4-.3-.8-.3-1.3s0-.9.3-1.2c.2-.4.5-.7.8-.9.4-.2.8-.3,1.2-.3s1,.1,1.3.4c.3.3.6.6.7,1,.2.4.2.9.2,1.3h-3.7c0,.3,0,.5.2.7.1.2.3.4.5.5.2.1.5.2.8.2.4,0,.7,0,1-.2.3-.1.4-.3.6-.4ZM239.3,227.3h2.7c0-.4-.2-.7-.4-.9-.2-.3-.5-.4-1-.4s-.5,0-.7.2c-.2.1-.4.3-.5.5-.1.2-.2.4-.2.6ZM247.5,228.8l.6.6c-.2.2-.5.4-.8.6-.3.1-.7.2-1.1.2s-.9-.1-1.3-.3c-.4-.2-.6-.5-.8-.9-.2-.4-.3-.8-.3-1.3s.1-.9.3-1.2c.2-.4.5-.7.9-.9.4-.2.8-.3,1.3-.3s.7,0,1,.2.6.3.8.6l-.6.6c-.1-.2-.3-.3-.5-.4-.2-.1-.4-.1-.7-.1s-.6,0-.8.2c-.2.2-.4.4-.5.6-.1.3-.2.5-.2.8s0,.6.2.8c.1.3.3.5.5.6.2.2.5.2.8.2s.5,0,.7-.2c.2-.1.4-.2.5-.4ZM248.9,224.5v-1h1v1h-1ZM249,230v-4.6h.9v4.6h-.9ZM250.9,229.4l.6-.6c.2.2.4.3.6.4.2.1.5.2.8.2s.6,0,.8-.1c.2-.1.3-.3.3-.5s0-.3-.1-.4c0,0-.2-.2-.4-.2-.2,0-.5-.1-.8-.2-.2,0-.5-.1-.7-.2-.2-.1-.4-.2-.6-.4-.1-.2-.2-.4-.2-.7s0-.6.3-.8c.2-.2.4-.4.7-.5.3-.1.6-.2.9-.2s.7,0,1,.2c.3.1.5.2.7.4l-.5.6c-.1-.1-.3-.2-.5-.3-.2,0-.4-.1-.7-.1s-.5,0-.7.1c-.2,0-.3.2-.3.5s.1.4.4.4c.2,0,.5.2.9.3.3,0,.6.2.8.3.2.1.4.3.6.4.1.2.2.4.2.7s0,.6-.3.8c-.2.2-.4.4-.7.5-.3.1-.6.2-1,.2-.9,0-1.5-.2-2-.7ZM255.9,224.5v-1h1v1h-1ZM255.9,230v-4.6h.9v4.6h-.9ZM260.3,230.1c-.5,0-.9-.1-1.3-.3-.4-.2-.7-.5-.9-.9-.2-.4-.3-.8-.3-1.2s.1-.9.3-1.2c.2-.4.5-.7.9-.9.4-.2.8-.3,1.3-.3s.9.1,1.3.3c.4.2.7.5.9.9.2.4.3.8.3,1.2s-.1.9-.3,1.2c-.2.4-.5.7-.9.9-.4.2-.8.3-1.3.3ZM260.3,229.4c.3,0,.6,0,.8-.2.2-.2.4-.4.5-.6.1-.3.2-.5.2-.8s0-.6-.2-.8c-.1-.3-.3-.5-.5-.6-.2-.2-.5-.2-.8-.2s-.6,0-.8.2c-.2.2-.4.4-.5.6-.1.3-.2.5-.2.8s0,.6.2.8c.1.3.3.5.5.6.2.2.5.2.8.2ZM264.7,230h-.9v-4.4c0,0,0-.2,0-.3h.9v.7c.1-.1.2-.2.4-.4.1-.1.3-.2.5-.3.2,0,.5-.1.7-.1.6,0,1.1.2,1.4.5.3.4.4.8.4,1.4v2.8h-.9v-2.7c0-.4,0-.8-.3-.9-.2-.2-.4-.3-.8-.3s-.6,0-.8.3c-.2.2-.3.4-.4.7,0,.3-.1.6-.1.9v2.2ZM274,230v-.6c-.2.2-.4.4-.7.5-.3.1-.6.2-.9.2s-.5,0-.8-.1c-.2,0-.5-.2-.6-.5-.2-.2-.2-.5-.2-.9,0-.5.2-.9.5-1.2.4-.3.9-.4,1.5-.4s.3,0,.4,0c.2,0,.3,0,.4,0,.1,0,.2,0,.2,0v-.2c0-.3-.1-.6-.3-.7-.2-.2-.5-.2-.9-.2s-.6,0-.8.1c-.2,0-.4.2-.5.3l-.4-.6c.2-.1.4-.3.7-.4.3-.1.7-.2,1.2-.2s1.1.1,1.4.4c.3.3.5.7.5,1.2v2.9c0,0,0,.1,0,.2h-.8ZM274,228.3v-.5s-.1,0-.2,0c-.1,0-.3,0-.4,0-.1,0-.3,0-.4,0-.3,0-.6,0-.8.1-.2,0-.3.2-.4.4,0,.1,0,.3,0,.4,0,.2,0,.4.3.6.2.1.4.2.7.2s.4,0,.6-.1c.2-.1.4-.2.5-.4.1-.2.2-.3.2-.5ZM276,229.8v-6.5h.9v2.5c0-.1.3-.3.5-.4.2-.1.6-.2.9-.2s.8.1,1.2.3c.3.2.6.5.7.9.2.4.2.8.2,1.2s-.1.9-.3,1.3c-.2.4-.5.7-.9.9-.4.2-.8.3-1.4.3s-.7,0-1.1,0c-.3,0-.6-.1-.8-.2ZM276.9,227.4v1.8c0,0,.2,0,.3,0,.1,0,.3,0,.6,0,.5,0,.9-.2,1.2-.5.3-.3.5-.7.5-1.2s0-.6-.1-.8c0-.2-.2-.4-.4-.6-.2-.2-.4-.2-.8-.2s-.5,0-.7.2c-.2.1-.3.3-.4.5,0,.2-.1.4-.1.7ZM283.8,230.1c-.5,0-.9-.1-1.3-.3-.4-.2-.7-.5-.9-.9-.2-.4-.3-.8-.3-1.2s.1-.9.3-1.2c.2-.4.5-.7.9-.9.4-.2.8-.3,1.3-.3s.9.1,1.3.3c.4.2.7.5.9.9.2.4.3.8.3,1.2s-.1.9-.3,1.2c-.2.4-.5.7-.9.9-.4.2-.8.3-1.3.3ZM283.8,229.4c.3,0,.6,0,.8-.2.2-.2.4-.4.5-.6.1-.3.2-.5.2-.8s0-.6-.2-.8c-.1-.3-.3-.5-.5-.6-.2-.2-.5-.2-.8-.2s-.6,0-.8.2c-.2.2-.4.4-.5.6-.1.3-.2.5-.2.8s0,.6.2.8c.1.3.3.5.5.6.2.2.5.2.8.2ZM287.2,228.1v-2.8h.9v2.7c0,.4,0,.8.3.9.2.2.4.3.8.3s.6,0,.8-.3c.2-.2.3-.4.4-.7,0-.3.1-.6.1-.9v-2.2h.9v4.4c0,0,0,.2,0,.3h-.9v-.7c-.1.1-.2.2-.3.4-.1.1-.3.2-.5.3-.2,0-.4.1-.7.1-.6,0-1.1-.2-1.3-.5-.3-.4-.4-.8-.4-1.4ZM293.1,228.5v-2.4h-.8v-.8h.8v-1.5h.9v1.5h1.4v.8h-1.4v2.3c0,.4,0,.6.2.8.1.1.3.2.5.2s.3,0,.4,0c.1,0,.2-.1.3-.2l.4.6c-.2.2-.4.3-.6.4-.2,0-.4.1-.7.1-.5,0-.8-.1-1.1-.4-.2-.3-.3-.7-.3-1.2ZM298.5,230v-6.7h1v2.8h3.6v-2.8h1v6.7h-1v-3h-3.6v3h-1ZM307.6,230.1c-.5,0-.9-.1-1.3-.3-.4-.2-.7-.5-.9-.9-.2-.4-.3-.8-.3-1.2s.1-.9.3-1.2c.2-.4.5-.7.9-.9.4-.2.8-.3,1.3-.3s.9.1,1.3.3c.4.2.7.5.9.9.2.4.3.8.3,1.2s-.1.9-.3,1.2c-.2.4-.5.7-.9.9-.4.2-.8.3-1.3.3ZM307.6,229.4c.3,0,.6,0,.8-.2.2-.2.4-.4.5-.6.1-.3.2-.5.2-.8s0-.6-.2-.8c-.1-.3-.3-.5-.5-.6-.2-.2-.5-.2-.8-.2s-.6,0-.8.2c-.2.2-.4.4-.5.6-.1.3-.2.5-.2.8s0,.6.2.8c.1.3.3.5.5.6.2.2.5.2.8.2ZM310.9,229.4l.6-.6c.2.2.4.3.6.4.2.1.5.2.8.2s.5,0,.8-.1c.2-.1.3-.3.3-.5s0-.3-.1-.4c0,0-.2-.2-.4-.2-.2,0-.5-.1-.8-.2-.2,0-.5-.1-.7-.2-.2-.1-.4-.2-.6-.4-.1-.2-.2-.4-.2-.7s0-.6.3-.8c.2-.2.4-.4.7-.5.3-.1.6-.2.9-.2s.7,0,1,.2c.3.1.5.2.7.4l-.5.6c-.1-.1-.3-.2-.5-.3-.2,0-.5-.1-.7-.1s-.5,0-.7.1c-.2,0-.3.2-.3.5s.1.4.4.4c.2,0,.5.2.9.3.3,0,.6.2.8.3.2.1.4.3.6.4.1.2.2.4.2.7s0,.6-.3.8c-.2.2-.4.4-.7.5-.3.1-.6.2-1,.2-.9,0-1.5-.2-2-.7ZM316.2,228.5v-2.4h-.8v-.8h.8v-1.5h.9v1.5h1.4v.8h-1.4v2.3c0,.4,0,.6.2.8.1.1.3.2.5.2s.3,0,.4,0c.1,0,.2-.1.3-.2l.4.6c-.2.2-.4.3-.6.4-.2,0-.4.1-.7.1-.5,0-.8-.1-1.1-.4-.2-.3-.4-.7-.4-1.2ZM320.6,232h-.9v-6.4c0,0,0-.2,0-.3h.9v.7c0,0,.2-.2.3-.3.1-.1.3-.2.5-.3.2,0,.5-.1.8-.1.5,0,.9.1,1.2.3.3.2.5.5.7.9.2.4.2.8.2,1.2s0,.8-.2,1.1c-.1.3-.3.6-.6.8-.2.2-.5.3-.8.4-.3,0-.6.1-.8.1s-.6,0-.8-.1c-.2,0-.4-.1-.5-.2v2.2ZM320.6,227.8v1.2c.1,0,.3.2.5.2.2,0,.5.1.8.1s.6,0,.8-.2c.2-.1.4-.3.5-.6.1-.3.2-.5.2-.9s0-.6-.1-.8c0-.3-.2-.5-.4-.6-.2-.2-.5-.2-.8-.2s-.6,0-.8.3c-.2.2-.4.4-.5.8,0,.1,0,.2,0,.3,0,.1,0,.2,0,.4ZM325.2,230v-6.7h.9v6.7h-.9ZM327.3,228.1v-2.8h.9v2.7c0,.4,0,.8.3.9s.4.3.8.3.6,0,.8-.3c.2-.2.3-.4.4-.7,0-.3.1-.6.1-.9v-2.2h.9v4.4c0,0,0,.2,0,.3h-.9v-.7c-.1.1-.2.2-.3.4-.1.1-.3.2-.5.3-.2,0-.4.1-.7.1-.6,0-1.1-.2-1.3-.5-.3-.4-.4-.8-.4-1.4ZM332.5,229.4l.5-.6c.2.2.4.3.6.4.2.1.5.2.8.2s.6,0,.8-.1c.2-.1.3-.3.3-.5s0-.3-.1-.4c0,0-.2-.2-.4-.2-.2,0-.5-.1-.8-.2-.2,0-.5-.1-.7-.2-.2-.1-.4-.2-.6-.4-.1-.2-.2-.4-.2-.7s0-.6.3-.8c.2-.2.4-.4.7-.5.3-.1.6-.2.9-.2s.7,0,1,.2c.3.1.5.2.7.4l-.5.6c-.1-.1-.3-.2-.5-.3-.2,0-.4-.1-.7-.1s-.5,0-.7.1c-.2,0-.3.2-.3.5s.1.4.4.4c.2,0,.5.2.9.3.3,0,.6.2.8.3.2.1.4.3.6.4.1.2.2.4.2.7s0,.6-.3.8c-.2.2-.4.4-.7.5-.3.1-.6.2-.9.2-.9,0-1.5-.2-2-.7ZM337.4,230v-1.1h1.1v1.1h-1.1ZM344.9,230.2c-.5,0-.9,0-1.3-.3-.4-.2-.8-.4-1.1-.8-.3-.3-.5-.7-.7-1.1-.2-.4-.3-.9-.3-1.4s0-.9.2-1.4c.2-.4.4-.8.7-1.1.3-.3.7-.6,1.1-.8.4-.2.9-.3,1.3-.3s.9,0,1.3.3c.4.2.8.4,1.1.8.3.3.6.7.7,1.1.2.4.3.9.3,1.4s0,.9-.3,1.4c-.2.4-.4.8-.7,1.1-.3.3-.7.6-1.1.8-.4.2-.9.3-1.3.3ZM344.9,229.3c.5,0,.9-.1,1.3-.4.4-.2.6-.6.8-.9.2-.4.3-.8.3-1.3s0-.9-.3-1.3c-.2-.4-.5-.7-.8-.9-.4-.2-.8-.4-1.3-.4s-.9.1-1.3.4c-.4.2-.6.6-.8.9-.2.4-.3.8-.3,1.3s0,.9.3,1.3c.2.4.5.7.8.9.4.2.8.4,1.3.4ZM349.8,228.5v-2.4h-.8v-.8h.8v-1.5h.9v1.5h1.4v.8h-1.4v2.3c0,.4,0,.6.2.8.1.1.3.2.5.2s.3,0,.4,0c.1,0,.2-.1.3-.2l.4.6c-.2.2-.4.3-.6.4-.2,0-.4.1-.7.1-.5,0-.8-.1-1.1-.4-.2-.3-.4-.7-.4-1.2ZM353.2,230v-6.7h.9v2.7c0-.1.2-.2.3-.3.1-.1.3-.2.5-.3.2,0,.5-.1.7-.1.6,0,1.1.2,1.4.5.3.4.4.8.4,1.4v2.8h-.9v-2.7c0-.4,0-.8-.3-.9-.2-.2-.4-.3-.8-.3s-.6,0-.8.3c-.2.2-.3.4-.4.7,0,.3-.1.6-.1.9v2.2h-.9ZM362.4,228.8l.5.5c0,0-.2.2-.4.3-.2.1-.4.2-.7.4-.3,0-.6.1-1,.1s-.9-.1-1.3-.3c-.4-.2-.7-.5-.9-.9-.2-.4-.3-.8-.3-1.3s0-.9.3-1.2c.2-.4.5-.7.8-.9.4-.2.8-.3,1.2-.3s1,.1,1.3.4c.3.3.6.6.7,1,.2.4.2.9.2,1.3h-3.7c0,.3,0,.5.2.7.1.2.3.4.5.5.2.1.5.2.8.2.4,0,.7,0,1-.2.3-.1.4-.3.6-.4ZM359.4,227.3h2.7c0-.4-.2-.7-.4-.9-.2-.3-.5-.4-1-.4s-.5,0-.7.2c-.2.1-.4.3-.5.5-.1.2-.2.4-.2.6ZM364.9,230h-.9v-4.4c0,0,0-.2,0-.3h.9v.8c.1-.1.2-.2.3-.4.1-.1.3-.2.5-.3.2,0,.4-.1.7-.1s.2,0,.3,0c0,0,.2,0,.2,0l-.2.8c-.1,0-.3,0-.5,0s-.5,0-.7.2c-.2.1-.4.3-.5.5-.1.2-.2.4-.2.7v2.4ZM369.8,230v-3.9h-.8v-.8h.8v-.4c0-.4,0-.8.2-1,.2-.3.4-.5.6-.6.2-.1.5-.2.8-.2s.5,0,.7.1c.2,0,.5.2.7.4l-.5.6c-.2-.2-.5-.3-.8-.3s-.5,0-.6.2c-.2.2-.2.5-.2.9v.3h1.3v.8h-1.3v3.9h-.9ZM376.3,228.8l.5.5c0,0-.2.2-.4.3-.2.1-.4.2-.7.4-.3,0-.6.1-1,.1s-.9-.1-1.3-.3c-.4-.2-.7-.5-.9-.9-.2-.4-.3-.8-.3-1.3s0-.9.3-1.2c.2-.4.5-.7.8-.9.4-.2.8-.3,1.2-.3s1,.1,1.3.4c.3.3.6.6.7,1,.2.4.2.9.2,1.3h-3.7c0,.3,0,.5.2.7.1.2.3.4.6.5.2.1.5.2.8.2.4,0,.7,0,1-.2.3-.1.4-.3.5-.4ZM373.3,227.3h2.7c0-.4-.2-.7-.4-.9-.2-.3-.5-.4-1-.4s-.5,0-.7.2c-.2.1-.4.3-.5.5-.1.2-.2.4-.2.6ZM381.7,228.8l.5.5c0,0-.2.2-.4.3-.2.1-.4.2-.7.4-.3,0-.6.1-1,.1s-.9-.1-1.3-.3c-.4-.2-.7-.5-.9-.9-.2-.4-.3-.8-.3-1.3s0-.9.3-1.2c.2-.4.5-.7.8-.9.4-.2.8-.3,1.2-.3s1,.1,1.3.4c.3.3.6.6.7,1,.2.4.2.9.2,1.3h-3.7c0,.3,0,.5.2.7.1.2.3.4.5.5.2.1.5.2.8.2.4,0,.7,0,1-.2.3-.1.4-.3.5-.4ZM378.6,227.3h2.7c0-.4-.2-.7-.4-.9-.2-.3-.5-.4-1-.4s-.5,0-.7.2-.4.3-.5.5c-.1.2-.2.4-.2.6ZM383.1,229.4l.5-.6c.2.2.4.3.6.4.2.1.5.2.8.2s.6,0,.8-.1c.2-.1.3-.3.3-.5s0-.3-.1-.4c0,0-.2-.2-.4-.2-.2,0-.5-.1-.8-.2-.2,0-.5-.1-.7-.2-.2-.1-.4-.2-.6-.4-.1-.2-.2-.4-.2-.7s0-.6.3-.8c.2-.2.4-.4.7-.5.3-.1.6-.2.9-.2s.7,0,1,.2c.3.1.5.2.7.4l-.5.6c-.1-.1-.3-.2-.5-.3-.2,0-.4-.1-.7-.1s-.5,0-.7.1c-.2,0-.3.2-.3.5s.1.4.4.4c.2,0,.5.2.9.3.3,0,.6.2.8.3.2.1.4.3.6.4.1.2.2.4.2.7s0,.6-.3.8c-.2.2-.4.4-.7.5-.3.1-.6.2-.9.2-.9,0-1.5-.2-2-.7ZM392.8,230v-.6c-.2.2-.4.4-.7.5-.3.1-.6.2-.9.2s-.5,0-.8-.1c-.2,0-.5-.2-.6-.5-.2-.2-.2-.5-.2-.9,0-.5.2-.9.5-1.2.4-.3.9-.4,1.5-.4s.3,0,.4,0c.2,0,.3,0,.4,0,.1,0,.2,0,.2,0v-.2c0-.3-.1-.6-.3-.7-.2-.2-.5-.2-.9-.2s-.6,0-.8.1c-.2,0-.4.2-.5.3l-.4-.6c.2-.1.4-.3.7-.4.3-.1.7-.2,1.2-.2s1.1.1,1.4.4c.3.3.5.7.5,1.2v2.9c0,0,0,.1,0,.2h-.8ZM392.7,228.3v-.5s-.1,0-.2,0c-.1,0-.3,0-.4,0-.1,0-.3,0-.4,0-.3,0-.6,0-.8.1-.2,0-.3.2-.4.4,0,.1,0,.3,0,.4,0,.2,0,.4.3.6.2.1.4.2.7.2s.4,0,.6-.1c.2-.1.4-.2.5-.4.1-.2.2-.3.2-.5ZM395.7,230h-.9v-4.4c0,0,0-.2,0-.3h.9v.7c.1-.1.2-.2.4-.4.1-.1.3-.2.5-.3.2,0,.5-.1.7-.1.6,0,1.1.2,1.3.5.3.4.4.8.4,1.4v2.8h-.9v-2.7c0-.4,0-.8-.3-.9-.2-.2-.4-.3-.8-.3s-.6,0-.8.3c-.2.2-.3.4-.4.7,0,.3-.1.6-.1.9v2.2ZM403.6,230v-.6c0,0-.2.1-.3.3-.1.1-.3.2-.5.3-.2,0-.5.1-.8.1s-.7,0-1.1-.3c-.3-.2-.6-.5-.7-.8-.2-.4-.3-.8-.3-1.3s0-.8.2-1.1c.2-.3.4-.6.6-.8.2-.2.5-.3.8-.4.3-.1.5-.1.8-.1s.5,0,.7,0c.2,0,.4.1.6.2v-2.2h.9v6.4c0,0,0,.2,0,.3h-.9ZM403.6,228v-1.7c-.1-.1-.3-.2-.5-.2-.2,0-.4-.1-.7-.1-.4,0-.8.2-1.1.5-.3.3-.4.7-.4,1.3s0,.6.1.8c.1.2.2.4.5.6.2.1.5.2.8.2s.6,0,.8-.2c.2-.1.3-.3.4-.5,0-.2.1-.4.1-.6ZM411.1,228.8l.6.6c-.2.2-.5.4-.8.6-.3.1-.7.2-1,.2s-.9-.1-1.3-.3c-.4-.2-.6-.5-.8-.9-.2-.4-.3-.8-.3-1.3s.1-.9.3-1.2c.2-.4.5-.7.9-.9.4-.2.8-.3,1.3-.3s.7,0,1,.2c.3.1.6.3.8.6l-.6.6c-.1-.2-.3-.3-.5-.4-.2-.1-.4-.1-.7-.1s-.6,0-.8.2c-.2.2-.4.4-.5.6-.1.3-.2.5-.2.8s0,.6.2.8c.1.3.3.5.5.6.2.2.5.2.8.2s.5,0,.7-.2c.2-.1.4-.2.5-.4ZM414.5,230.1c-.5,0-.9-.1-1.3-.3-.4-.2-.7-.5-.9-.9-.2-.4-.3-.8-.3-1.2s.1-.9.3-1.2c.2-.4.5-.7.9-.9.4-.2.8-.3,1.3-.3s.9.1,1.3.3c.4.2.7.5.9.9.2.4.3.8.3,1.2s-.1.9-.3,1.2c-.2.4-.5.7-.9.9-.4.2-.8.3-1.3.3ZM414.5,229.4c.3,0,.6,0,.8-.2.2-.2.4-.4.5-.6.1-.3.2-.5.2-.8s0-.6-.2-.8c-.1-.3-.3-.5-.5-.6-.2-.2-.5-.2-.8-.2s-.6,0-.8.2c-.2.2-.4.4-.5.6-.1.3-.2.5-.2.8s0,.6.2.8c.1.3.3.5.5.6.2.2.5.2.8.2ZM417.7,229.4l.5-.6c.2.2.4.3.6.4.2.1.5.2.8.2s.6,0,.8-.1c.2-.1.3-.3.3-.5s0-.3-.1-.4c0,0-.2-.2-.4-.2-.2,0-.5-.1-.8-.2-.2,0-.5-.1-.7-.2-.2-.1-.4-.2-.6-.4-.1-.2-.2-.4-.2-.7s0-.6.3-.8c.2-.2.4-.4.7-.5.3-.1.6-.2.9-.2s.7,0,1,.2c.3.1.5.2.7.4l-.5.6c-.1-.1-.3-.2-.5-.3-.2,0-.4-.1-.7-.1s-.5,0-.7.1c-.2,0-.3.2-.3.5s.1.4.4.4c.2,0,.5.2.9.3.3,0,.6.2.8.3.2.1.4.3.6.4.1.2.2.4.2.7s0,.6-.3.8c-.2.2-.4.4-.7.5-.3.1-.6.2-.9.2-.9,0-1.5-.2-2-.7ZM423.1,228.5v-2.4h-.8v-.8h.8v-1.5h.9v1.5h1.4v.8h-1.4v2.3c0,.4,0,.6.2.8.1.1.3.2.5.2s.3,0,.4,0c.1,0,.2-.1.3-.2l.4.6c-.2.2-.4.3-.6.4-.2,0-.4.1-.7.1-.5,0-.8-.1-1.1-.4-.2-.3-.4-.7-.4-1.2ZM426.2,229.4l.6-.6c.2.2.4.3.6.4.2.1.5.2.8.2s.5,0,.8-.1c.2-.1.3-.3.3-.5s0-.3-.1-.4c0,0-.2-.2-.4-.2-.2,0-.5-.1-.8-.2-.2,0-.5-.1-.7-.2-.2-.1-.4-.2-.6-.4-.1-.2-.2-.4-.2-.7s0-.6.3-.8c.2-.2.4-.4.7-.5.3-.1.6-.2.9-.2s.7,0,1,.2c.3.1.5.2.7.4l-.5.6c-.1-.1-.3-.2-.5-.3-.2,0-.5-.1-.7-.1s-.5,0-.7.1c-.2,0-.3.2-.3.5s.1.4.4.4c.2,0,.5.2.9.3.3,0,.6.2.8.3.2.1.4.3.6.4.1.2.2.4.2.7s0,.6-.3.8c-.2.2-.4.4-.7.5-.3.1-.6.2-.9.2-.9,0-1.5-.2-2-.7ZM436,230v-.6c-.2.2-.4.4-.7.5-.3.1-.6.2-.9.2s-.5,0-.8-.1c-.2,0-.5-.2-.6-.5-.2-.2-.2-.5-.2-.9,0-.5.2-.9.5-1.2.4-.3.9-.4,1.5-.4s.3,0,.5,0c.2,0,.3,0,.4,0,.1,0,.2,0,.2,0v-.2c0-.3-.1-.6-.3-.7-.2-.2-.5-.2-.8-.2s-.6,0-.8.1c-.2,0-.4.2-.5.3l-.4-.6c.2-.1.4-.3.7-.4.3-.1.7-.2,1.2-.2s1.1.1,1.4.4c.3.3.5.7.5,1.2v2.9c0,0,0,.1,0,.2h-.8ZM435.9,228.3v-.5s-.1,0-.2,0c-.1,0-.3,0-.4,0-.1,0-.3,0-.4,0-.3,0-.6,0-.8.1-.2,0-.3.2-.4.4,0,.1,0,.3,0,.4,0,.2,0,.4.3.6.2.1.4.2.7.2s.4,0,.6-.1c.2-.1.4-.2.5-.4.1-.2.2-.3.2-.5ZM438.9,232h-.9v-6.4c0,0,0-.2,0-.3h.9v.7c0,0,.2-.2.3-.3.1-.1.3-.2.5-.3.2,0,.5-.1.8-.1.5,0,.9.1,1.2.3.3.2.5.5.7.9.2.4.2.8.2,1.2s0,.8-.2,1.1c-.1.3-.3.6-.6.8-.2.2-.5.3-.8.4-.3,0-.6.1-.8.1s-.6,0-.8-.1c-.2,0-.4-.1-.5-.2v2.2ZM438.9,227.8v1.2c.1,0,.3.2.5.2.2,0,.4.1.8.1s.6,0,.8-.2c.2-.1.4-.3.5-.6.1-.3.2-.5.2-.9s0-.6-.1-.8c0-.3-.2-.5-.4-.6-.2-.2-.5-.2-.8-.2s-.6,0-.8.3c-.2.2-.4.4-.5.8,0,.1,0,.2,0,.3,0,.1,0,.2,0,.4ZM444.5,232h-.9v-6.4c0,0,0-.2,0-.3h.9v.7c0,0,.2-.2.3-.3.1-.1.3-.2.5-.3.2,0,.5-.1.8-.1.5,0,.9.1,1.2.3.3.2.5.5.7.9.2.4.2.8.2,1.2s0,.8-.2,1.1c-.1.3-.3.6-.6.8-.2.2-.5.3-.8.4-.3,0-.6.1-.8.1s-.6,0-.8-.1c-.2,0-.4-.1-.5-.2v2.2ZM444.5,227.8v1.2c.1,0,.3.2.5.2.2,0,.5.1.8.1s.6,0,.8-.2c.2-.1.4-.3.5-.6.1-.3.2-.5.2-.9s0-.6-.1-.8c0-.3-.2-.5-.4-.6-.2-.2-.5-.2-.8-.2s-.6,0-.8.3c-.2.2-.4.4-.5.8,0,.1,0,.2,0,.3,0,.1,0,.2,0,.4ZM449.2,230v-6.7h.9v6.7h-.9ZM450.9,231.8l.4-.6c0,0,.1.1.2.2s.2,0,.3,0c.2,0,.4,0,.5-.3.1-.2.2-.5.4-.8v-.3c.1,0-2-4.6-2-4.6h1l1.5,3.5,1.3-3.5h1l-1.9,4.5c0,.2-.2.4-.3.7,0,.3-.2.5-.3.7-.1.2-.3.4-.5.6-.2.2-.4.2-.7.2s-.4,0-.6,0c-.2,0-.3-.1-.4-.2ZM455.5,230v-1.1h1.1v1.1h-1.1ZM459.9,230v-6.7h2.1c.5,0,.8,0,1.1.2.3.1.5.3.7.5.2.2.3.4.4.7,0,.2.1.5.1.7,0,.4,0,.8-.3,1.1-.2.3-.5.5-.8.7s-.7.2-1.2.2h-1.2v2.6h-.9ZM460.9,226.6h1.2c.4,0,.7-.1,1-.3.2-.2.3-.5.3-.9s-.1-.7-.4-.9c-.2-.2-.5-.3-.9-.3h-1.2v2.4ZM468,230v-.6c-.2.2-.4.4-.7.5-.3.1-.6.2-.9.2s-.5,0-.8-.1c-.2,0-.5-.2-.6-.5-.2-.2-.2-.5-.2-.9,0-.5.2-.9.5-1.2s.9-.4,1.5-.4.3,0,.5,0c.2,0,.3,0,.4,0,.1,0,.2,0,.2,0v-.2c0-.3-.1-.6-.3-.7-.2-.2-.5-.2-.9-.2s-.6,0-.8.1c-.2,0-.4.2-.5.3l-.4-.6c.2-.1.4-.3.7-.4s.7-.2,1.2-.2,1.1.1,1.4.4c.3.3.5.7.5,1.2v2.9c0,0,0,.1,0,.2h-.8ZM468,228.3v-.5s-.1,0-.2,0c-.1,0-.3,0-.4,0-.1,0-.3,0-.4,0-.3,0-.6,0-.8.1-.2,0-.3.2-.4.4,0,.1,0,.3,0,.4,0,.2,0,.4.3.6s.4.2.7.2.4,0,.6-.1c.2-.1.4-.2.5-.4.1-.2.2-.3.2-.5ZM469.8,229.4l.6-.6c.2.2.4.3.6.4.2.1.5.2.8.2s.5,0,.8-.1c.2-.1.3-.3.3-.5s0-.3-.1-.4c0,0-.2-.2-.4-.2-.2,0-.5-.1-.8-.2-.2,0-.5-.1-.7-.2-.2-.1-.4-.2-.6-.4-.1-.2-.2-.4-.2-.7s0-.6.3-.8c.2-.2.4-.4.7-.5.3-.1.6-.2.9-.2s.7,0,1,.2c.3.1.5.2.7.4l-.5.6c-.1-.1-.3-.2-.5-.3-.2,0-.5-.1-.7-.1s-.5,0-.7.1c-.2,0-.3.2-.3.5s.1.4.3.4c.2,0,.5.2.9.3.3,0,.6.2.8.3.2.1.4.3.6.4.1.2.2.4.2.7s0,.6-.3.8c-.2.2-.4.4-.7.5-.3.1-.6.2-1,.2-.9,0-1.5-.2-2-.7ZM475.2,228.5v-2.4h-.8v-.8h.8v-1.5h.9v1.5h1.4v.8h-1.4v2.3c0,.4,0,.6.2.8.1.1.3.2.5.2s.3,0,.4,0c.1,0,.2-.1.3-.2l.4.6c-.2.2-.4.3-.6.4-.2,0-.4.1-.7.1-.5,0-.8-.1-1.1-.4-.2-.3-.4-.7-.4-1.2ZM481.3,232h-.9v-6.4c0,0,0-.2,0-.3h.9v.7c0,0,.2-.2.3-.3.1-.1.3-.2.5-.3.2,0,.5-.1.8-.1.5,0,.9.1,1.2.3.3.2.5.5.7.9.2.4.2.8.2,1.2s0,.8-.2,1.1c-.1.3-.3.6-.6.8-.2.2-.5.3-.8.4-.3,0-.6.1-.8.1s-.6,0-.8-.1c-.2,0-.4-.1-.5-.2v2.2ZM481.3,227.8v1.2c.1,0,.3.2.5.2.2,0,.5.1.8.1s.6,0,.8-.2c.2-.1.4-.3.5-.6.1-.3.2-.5.2-.9s0-.6-.1-.8c0-.3-.2-.5-.4-.6-.2-.2-.5-.2-.8-.2s-.6,0-.8.3c-.2.2-.4.4-.5.8,0,.1,0,.2,0,.3,0,.1,0,.2,0,.4ZM489.7,228.8l.5.5c0,0-.2.2-.4.3-.2.1-.4.2-.7.4-.3,0-.6.1-1,.1s-.9-.1-1.3-.3c-.4-.2-.7-.5-.9-.9-.2-.4-.3-.8-.3-1.3s0-.9.3-1.2c.2-.4.5-.7.8-.9.4-.2.8-.3,1.2-.3s1,.1,1.3.4c.3.3.6.6.7,1,.2.4.2.9.2,1.3h-3.7c0,.3,0,.5.2.7.1.2.3.4.5.5.2.1.5.2.8.2.4,0,.7,0,1-.2.3-.1.4-.3.5-.4ZM486.7,227.3h2.7c0-.4-.2-.7-.4-.9-.2-.3-.5-.4-1-.4s-.5,0-.7.2-.4.3-.5.5c-.1.2-.2.4-.2.6ZM492.3,230h-.9v-4.4c0,0,0-.2,0-.3h.9v.8c.1-.1.2-.2.3-.4.1-.1.3-.2.5-.3.2,0,.4-.1.7-.1s.2,0,.3,0c0,0,.2,0,.2,0l-.2.8c-.1,0-.3,0-.5,0s-.5,0-.7.2c-.2.1-.4.3-.5.5-.1.2-.2.4-.2.7v2.4ZM495.4,230v-3.9h-.8v-.8h.8v-.4c0-.4,0-.8.2-1,.2-.3.4-.5.6-.6.2-.1.5-.2.8-.2s.5,0,.7.1c.2,0,.5.2.7.4l-.5.6c-.2-.2-.5-.3-.8-.3s-.5,0-.6.2c-.2.2-.2.5-.2.9v.3h1.3v.8h-1.3v3.9h-.9ZM500.4,230.1c-.5,0-.9-.1-1.3-.3-.4-.2-.7-.5-.9-.9-.2-.4-.3-.8-.3-1.2s.1-.9.3-1.2c.2-.4.5-.7.9-.9.4-.2.8-.3,1.3-.3s.9.1,1.3.3c.4.2.7.5.9.9.2.4.3.8.3,1.2s-.1.9-.3,1.2c-.2.4-.5.7-.9.9-.4.2-.8.3-1.3.3ZM500.4,229.4c.3,0,.6,0,.8-.2.2-.2.4-.4.5-.6.1-.3.2-.5.2-.8s0-.6-.2-.8c-.1-.3-.3-.5-.5-.6-.2-.2-.5-.2-.8-.2s-.6,0-.8.2c-.2.2-.4.4-.5.6-.1.3-.2.5-.2.8s0,.6.2.8c.1.3.3.5.5.6.2.2.5.2.8.2ZM504.7,230h-.9v-4.4c0,0,0-.2,0-.3h.9v.8c.1-.1.2-.2.3-.4.1-.1.3-.2.5-.3s.4-.1.7-.1.2,0,.3,0c0,0,.2,0,.2,0l-.2.8c-.1,0-.3,0-.5,0s-.5,0-.7.2c-.2.1-.4.3-.5.5s-.2.4-.2.7v2.4ZM508.4,230h-.9v-4.4c0,0,0-.2,0-.3h.9v.7c.1-.1.2-.2.3-.4.1-.1.3-.2.5-.3.2,0,.4-.1.7-.1s.7,0,.9.2c.2.1.4.3.6.6.2-.2.4-.4.7-.6.3-.2.6-.3,1-.3.6,0,1,.2,1.3.5.3.4.4.8.4,1.4v2.8h-.9v-2.7c0-.8-.3-1.3-1-1.3s-.5,0-.7.2c-.2.1-.3.3-.5.5-.1.2-.2.4-.2.7v2.6h-.9v-2.7c0-.4,0-.8-.3-.9-.2-.2-.4-.3-.7-.3s-.6,0-.8.3c-.2.2-.3.4-.4.7,0,.3-.1.6-.1.9v2.2ZM518.9,230v-.6c-.2.2-.4.4-.7.5-.3.1-.6.2-.9.2s-.5,0-.8-.1c-.2,0-.5-.2-.6-.5-.2-.2-.2-.5-.2-.9,0-.5.2-.9.5-1.2.4-.3.9-.4,1.5-.4s.3,0,.5,0c.2,0,.3,0,.4,0,.1,0,.2,0,.2,0v-.2c0-.3-.1-.6-.3-.7-.2-.2-.5-.2-.8-.2s-.6,0-.8.1c-.2,0-.4.2-.5.3l-.4-.6c.2-.1.4-.3.7-.4.3-.1.7-.2,1.2-.2s1.1.1,1.4.4c.3.3.5.7.5,1.2v2.9c0,0,0,.1,0,.2h-.8ZM518.9,228.3v-.5s-.1,0-.2,0c-.1,0-.3,0-.4,0-.1,0-.3,0-.4,0-.3,0-.6,0-.8.1-.2,0-.3.2-.4.4,0,.1,0,.3,0,.4,0,.2,0,.4.3.6.2.1.4.2.7.2s.4,0,.6-.1c.2-.1.4-.2.5-.4.1-.2.2-.3.2-.5ZM521.9,230h-.9v-4.4c0,0,0-.2,0-.3h.9v.7c.1-.1.2-.2.3-.4.1-.1.3-.2.5-.3.2,0,.5-.1.7-.1.6,0,1.1.2,1.4.5.3.4.4.8.4,1.4v2.8h-.9v-2.7c0-.4,0-.8-.3-.9-.2-.2-.4-.3-.8-.3s-.6,0-.8.3c-.2.2-.3.4-.4.7,0,.3-.1.6-.1.9v2.2ZM529.9,228.8l.5.6c-.2.2-.5.4-.8.6-.3.1-.7.2-1.1.2s-.9-.1-1.3-.3c-.4-.2-.6-.5-.8-.9-.2-.4-.3-.8-.3-1.3s.1-.9.3-1.2c.2-.4.5-.7.9-.9.4-.2.8-.3,1.3-.3s.7,0,1,.2.6.3.8.6l-.6.6c-.1-.2-.3-.3-.5-.4s-.4-.1-.7-.1-.6,0-.8.2c-.2.2-.4.4-.5.6-.1.3-.2.5-.2.8s0,.6.2.8c.1.3.3.5.5.6.2.2.5.2.8.2s.5,0,.7-.2c.2-.1.4-.2.5-.4ZM534.8,228.8l.5.5c0,0-.2.2-.4.3-.2.1-.4.2-.7.4-.3,0-.6.1-1,.1s-.9-.1-1.3-.3c-.4-.2-.7-.5-.9-.9-.2-.4-.3-.8-.3-1.3s0-.9.3-1.2c.2-.4.5-.7.8-.9.4-.2.8-.3,1.2-.3s1,.1,1.3.4c.3.3.6.6.7,1,.2.4.2.9.2,1.3h-3.7c0,.3,0,.5.2.7.1.2.3.4.5.5.2.1.5.2.8.2.4,0,.7,0,1-.2.3-.1.4-.3.6-.4ZM531.7,227.3h2.7c0-.4-.2-.7-.4-.9-.2-.3-.5-.4-1-.4s-.5,0-.7.2c-.2.1-.4.3-.5.5-.1.2-.2.4-.2.6ZM538.2,224.5v-1h1v1h-1ZM538.3,230v-4.6h.9v4.6h-.9ZM540.2,229.4l.5-.6c.2.2.4.3.6.4.2.1.5.2.8.2s.5,0,.8-.1c.2-.1.3-.3.3-.5s0-.3-.1-.4c0,0-.2-.2-.4-.2-.2,0-.5-.1-.8-.2-.2,0-.5-.1-.7-.2-.2-.1-.4-.2-.6-.4-.1-.2-.2-.4-.2-.7s0-.6.3-.8c.2-.2.4-.4.7-.5.3-.1.6-.2.9-.2s.7,0,1,.2c.3.1.5.2.7.4l-.5.6c-.1-.1-.3-.2-.5-.3-.2,0-.4-.1-.7-.1s-.5,0-.7.1c-.2,0-.3.2-.3.5s.1.4.4.4c.2,0,.5.2.9.3.3,0,.6.2.8.3.2.1.4.3.6.4.1.2.2.4.2.7s0,.6-.3.8c-.2.2-.4.4-.7.5-.3.1-.6.2-1,.2-.9,0-1.5-.2-2-.7ZM547.9,230h-.9v-4.4c0,0,0-.2,0-.3h.9v.7c.1-.1.2-.2.4-.4.1-.1.3-.2.5-.3.2,0,.5-.1.7-.1.6,0,1.1.2,1.3.5.3.4.4.8.4,1.4v2.8h-.9v-2.7c0-.4,0-.8-.3-.9-.2-.2-.4-.3-.8-.3s-.6,0-.8.3c-.2.2-.3.4-.4.7,0,.3-.1.6-.1.9v2.2ZM554.6,230.1c-.5,0-.9-.1-1.3-.3-.4-.2-.7-.5-.9-.9-.2-.4-.3-.8-.3-1.2s.1-.9.3-1.2c.2-.4.5-.7.9-.9.4-.2.8-.3,1.3-.3s.9.1,1.3.3c.4.2.7.5.9.9.2.4.3.8.3,1.2s-.1.9-.3,1.2c-.2.4-.5.7-.9.9-.4.2-.8.3-1.3.3ZM554.6,229.4c.3,0,.6,0,.8-.2.2-.2.4-.4.5-.6.1-.3.2-.5.2-.8s0-.6-.2-.8c-.1-.3-.3-.5-.5-.6-.2-.2-.5-.2-.8-.2s-.6,0-.8.2c-.2.2-.4.4-.5.6-.1.3-.2.5-.2.8s0,.6.2.8c.1.3.3.5.5.6.2.2.5.2.8.2ZM558.5,228.5v-2.4h-.8v-.8h.8v-1.5h.9v1.5h1.4v.8h-1.4v2.3c0,.4,0,.6.2.8.1.1.3.2.5.2s.3,0,.4,0c.1,0,.2-.1.3-.2l.4.6c-.2.2-.4.3-.6.4-.2,0-.4.1-.7.1-.5,0-.8-.1-1.1-.4-.2-.3-.3-.7-.3-1.2ZM566.7,230v-.6c-.2.2-.4.4-.7.5-.3.1-.6.2-.9.2s-.5,0-.8-.1c-.2,0-.5-.2-.6-.5-.2-.2-.2-.5-.2-.9,0-.5.2-.9.5-1.2.4-.3.9-.4,1.5-.4s.3,0,.5,0c.2,0,.3,0,.4,0,.1,0,.2,0,.2,0v-.2c0-.3-.1-.6-.3-.7-.2-.2-.5-.2-.8-.2s-.6,0-.8.1c-.2,0-.4.2-.5.3l-.4-.6c.2-.1.4-.3.7-.4.3-.1.7-.2,1.2-.2s1.1.1,1.4.4c.3.3.5.7.5,1.2v2.9c0,0,0,.1,0,.2h-.8ZM566.7,228.3v-.5s-.1,0-.2,0c-.1,0-.3,0-.4,0-.1,0-.3,0-.4,0-.3,0-.6,0-.8.1-.2,0-.3.2-.4.4,0,.1,0,.3,0,.4,0,.2,0,.4.3.6.2.1.4.2.7.2s.4,0,.6-.1c.2-.1.4-.2.5-.4.1-.2.2-.3.2-.5ZM571.5,230h-.9v-4.4c0,0,0-.2,0-.3h.9v.8c.1-.1.2-.2.3-.4.1-.1.3-.2.5-.3.2,0,.4-.1.7-.1s.2,0,.3,0c0,0,.2,0,.2,0l-.2.8c-.1,0-.3,0-.5,0s-.5,0-.7.2c-.2.1-.4.3-.5.5s-.2.4-.2.7v2.4ZM577.7,228.8l.5.5c0,0-.2.2-.4.3-.2.1-.4.2-.7.4-.3,0-.6.1-1,.1s-.9-.1-1.3-.3c-.4-.2-.7-.5-.9-.9-.2-.4-.3-.8-.3-1.3s0-.9.3-1.2c.2-.4.5-.7.8-.9.4-.2.8-.3,1.2-.3s1,.1,1.3.4c.3.3.6.6.7,1,.2.4.2.9.2,1.3h-3.7c0,.3,0,.5.2.7.1.2.3.4.5.5.2.1.5.2.8.2.4,0,.7,0,1-.2.3-.1.4-.3.5-.4ZM574.6,227.3h2.7c0-.4-.2-.7-.4-.9-.2-.3-.5-.4-1-.4s-.5,0-.7.2c-.2.1-.4.3-.5.5-.1.2-.2.4-.2.6ZM579.3,230v-6.7h.9v6.7h-.9ZM581.4,224.5v-1h1v1h-1ZM581.5,230v-4.6h.9v4.6h-.9ZM586.6,230v-.6c-.2.2-.4.4-.7.5-.3.1-.6.2-.9.2s-.5,0-.8-.1c-.2,0-.5-.2-.6-.5-.2-.2-.2-.5-.2-.9,0-.5.2-.9.5-1.2.4-.3.9-.4,1.5-.4s.3,0,.5,0c.2,0,.3,0,.4,0,.1,0,.2,0,.2,0v-.2c0-.3-.1-.6-.3-.7-.2-.2-.5-.2-.8-.2s-.6,0-.8.1c-.2,0-.4.2-.5.3l-.4-.6c.2-.1.4-.3.7-.4.3-.1.7-.2,1.2-.2s1.1.1,1.4.4c.3.3.5.7.5,1.2v2.9c0,0,0,.1,0,.2h-.8ZM586.5,228.3v-.5s-.1,0-.2,0c-.1,0-.3,0-.4,0-.1,0-.3,0-.4,0-.3,0-.6,0-.8.1-.2,0-.3.2-.4.4,0,.1,0,.3,0,.4,0,.2,0,.4.3.6.2.1.4.2.7.2s.4,0,.6-.1c.2-.1.4-.2.5-.4.1-.2.2-.3.2-.5ZM588.6,229.8v-6.5h.9v2.5c0-.1.3-.3.5-.4.2-.1.6-.2.9-.2s.8.1,1.2.3c.3.2.6.5.7.9.2.4.2.8.2,1.2s-.1.9-.3,1.3c-.2.4-.5.7-.9.9-.4.2-.8.3-1.4.3s-.7,0-1.1,0c-.3,0-.6-.1-.8-.2ZM589.5,227.4v1.8c0,0,.2,0,.3,0,.1,0,.3,0,.6,0,.5,0,.9-.2,1.2-.5.3-.3.5-.7.5-1.2s0-.6-.1-.8c0-.2-.2-.4-.4-.6-.2-.2-.4-.2-.8-.2s-.5,0-.7.2c-.2.1-.3.3-.4.5,0,.2-.1.4-.1.7ZM594.1,230v-6.7h.9v6.7h-.9ZM600,228.8l.5.5c0,0-.2.2-.4.3-.2.1-.4.2-.7.4-.3,0-.6.1-1,.1s-.9-.1-1.3-.3c-.4-.2-.7-.5-.9-.9-.2-.4-.3-.8-.3-1.3s0-.9.3-1.2c.2-.4.5-.7.8-.9.4-.2.8-.3,1.2-.3s1,.1,1.3.4c.3.3.6.6.7,1,.2.4.2.9.2,1.3h-3.7c0,.3,0,.5.2.7.1.2.3.4.5.5.2.1.5.2.8.2.4,0,.7,0,1-.2.3-.1.4-.3.6-.4ZM596.9,227.3h2.7c0-.4-.2-.7-.4-.9-.2-.3-.5-.4-1-.4s-.5,0-.7.2c-.2.1-.4.3-.5.5-.1.2-.2.4-.2.6ZM603.4,224.5v-1h1v1h-1ZM603.4,230v-4.6h.9v4.6h-.9ZM606.5,230h-.9v-4.4c0,0,0-.2,0-.3h.9v.7c.1-.1.2-.2.4-.4.1-.1.3-.2.5-.3.2,0,.5-.1.7-.1.6,0,1.1.2,1.3.5.3.4.4.8.4,1.4v2.8h-.9v-2.7c0-.4,0-.8-.3-.9-.2-.2-.4-.3-.8-.3s-.6,0-.8.3c-.2.2-.3.4-.4.7,0,.3-.1.6-.1.9v2.2ZM614.4,230v-.6c0,0-.2.1-.3.3-.1.1-.3.2-.5.3-.2,0-.5.1-.8.1s-.7,0-1.1-.3c-.3-.2-.6-.5-.7-.8s-.3-.8-.3-1.3,0-.8.2-1.1c.2-.3.3-.6.6-.8.2-.2.5-.3.8-.4.3-.1.5-.1.8-.1s.5,0,.7,0c.2,0,.4.1.6.2v-2.2h.9v6.4c0,0,0,.2,0,.3h-.9ZM614.4,228v-1.7c-.1-.1-.3-.2-.5-.2-.2,0-.4-.1-.7-.1-.4,0-.8.2-1.1.5-.3.3-.4.7-.4,1.3s0,.6.1.8c.1.2.2.4.5.6.2.1.5.2.8.2s.6,0,.8-.2c.2-.1.3-.3.4-.5,0-.2.1-.4.1-.6ZM616.5,224.5v-1h1v1h-1ZM616.6,230v-4.6h.9v4.6h-.9ZM622.3,228.8l.6.6c-.2.2-.5.4-.8.6-.3.1-.7.2-1,.2s-.9-.1-1.3-.3c-.4-.2-.6-.5-.8-.9-.2-.4-.3-.8-.3-1.3s.1-.9.3-1.2c.2-.4.5-.7.9-.9.4-.2.8-.3,1.3-.3s.7,0,1,.2.6.3.8.6l-.6.6c-.1-.2-.3-.3-.5-.4-.2-.1-.4-.1-.7-.1s-.6,0-.8.2c-.2.2-.4.4-.5.6-.1.3-.2.5-.2.8s0,.6.2.8c.1.3.3.5.5.6.2.2.5.2.8.2s.5,0,.7-.2c.2-.1.4-.2.5-.4ZM626.6,230v-.6c-.2.2-.4.4-.7.5-.3.1-.6.2-.9.2s-.5,0-.8-.1c-.2,0-.5-.2-.6-.5-.2-.2-.2-.5-.2-.9,0-.5.2-.9.5-1.2.4-.3.9-.4,1.5-.4s.3,0,.5,0c.2,0,.3,0,.4,0,.1,0,.2,0,.2,0v-.2c0-.3-.1-.6-.3-.7-.2-.2-.5-.2-.9-.2s-.6,0-.8.1c-.2,0-.4.2-.5.3l-.4-.6c.2-.1.4-.3.7-.4.3-.1.7-.2,1.2-.2s1.1.1,1.4.4c.3.3.5.7.5,1.2v2.9c0,0,0,.1,0,.2h-.8ZM626.6,228.3v-.5s-.1,0-.2,0c-.1,0-.3,0-.4,0-.1,0-.3,0-.4,0-.3,0-.6,0-.8.1-.2,0-.3.2-.4.4,0,.1,0,.3,0,.4,0,.2,0,.4.3.6.2.1.4.2.7.2s.4,0,.6-.1c.2-.1.4-.2.5-.4.1-.2.2-.3.2-.5ZM629.1,228.5v-2.4h-.8v-.8h.8v-1.5h.9v1.5h1.4v.8h-1.4v2.3c0,.4,0,.6.2.8.1.1.3.2.5.2s.3,0,.4,0c.1,0,.2-.1.3-.2l.4.6c-.2.2-.4.3-.6.4-.2,0-.4.1-.7.1-.5,0-.8-.1-1.1-.4-.2-.3-.3-.7-.3-1.2ZM634.5,230.1c-.5,0-.9-.1-1.3-.3-.4-.2-.7-.5-.9-.9-.2-.4-.3-.8-.3-1.2s.1-.9.3-1.2c.2-.4.5-.7.9-.9.4-.2.8-.3,1.3-.3s.9.1,1.3.3c.4.2.7.5.9.9.2.4.3.8.3,1.2s-.1.9-.3,1.2c-.2.4-.5.7-.9.9-.4.2-.8.3-1.3.3ZM634.5,229.4c.3,0,.6,0,.8-.2.2-.2.4-.4.5-.6.1-.3.2-.5.2-.8s0-.6-.2-.8c-.1-.3-.3-.5-.5-.6-.2-.2-.5-.2-.8-.2s-.6,0-.8.2c-.2.2-.4.4-.5.6-.1.3-.2.5-.2.8s0,.6.2.8c.1.3.3.5.5.6.2.2.5.2.8.2ZM638.9,230h-.9v-4.4c0,0,0-.2,0-.3h.9v.8c.1-.1.2-.2.3-.4.1-.1.3-.2.5-.3.2,0,.4-.1.7-.1s.2,0,.3,0c0,0,.2,0,.2,0l-.2.8c-.1,0-.3,0-.5,0s-.5,0-.7.2c-.2.1-.4.3-.5.5s-.2.4-.2.7v2.4ZM645.6,230.1c-.5,0-.9-.1-1.3-.3-.4-.2-.7-.5-.9-.9-.2-.4-.3-.8-.3-1.2s.1-.9.3-1.2c.2-.4.5-.7.9-.9.4-.2.8-.3,1.3-.3s.9.1,1.3.3c.4.2.7.5.9.9.2.4.3.8.3,1.2s-.1.9-.3,1.2c-.2.4-.5.7-.9.9-.4.2-.8.3-1.3.3ZM645.6,229.4c.3,0,.6,0,.8-.2.2-.2.4-.4.5-.6.1-.3.2-.5.2-.8s0-.6-.2-.8c-.1-.3-.3-.5-.5-.6-.2-.2-.5-.2-.8-.2s-.6,0-.8.2c-.2.2-.4.4-.5.6-.1.3-.2.5-.2.8s0,.6.2.8c.1.3.3.5.5.6.2.2.5.2.8.2ZM649.5,230v-3.9h-.8v-.8h.8v-.4c0-.4,0-.8.2-1s.4-.5.6-.6c.2-.1.5-.2.8-.2s.5,0,.7.1c.2,0,.5.2.7.4l-.5.6c-.2-.2-.5-.3-.8-.3s-.5,0-.6.2c-.2.2-.2.5-.2.9v.3h1.3v.8h-1.3v3.9h-.9ZM654.6,230v-3.9h-.8v-.8h.8v-.4c0-.4,0-.8.2-1,.2-.3.4-.5.6-.6.2-.1.5-.2.8-.2s.5,0,.7.1c.2,0,.5.2.7.4l-.5.6c-.2-.2-.5-.3-.8-.3s-.5,0-.6.2c-.2.2-.2.5-.2.9v.3h1.3v.8h-1.3v3.9h-.9ZM657.5,228.1v-2.8h.9v2.7c0,.4,0,.8.3.9s.4.3.8.3.6,0,.8-.3c.2-.2.3-.4.4-.7,0-.3.1-.6.1-.9v-2.2h.9v4.4c0,0,0,.2,0,.3h-.9v-.7c-.1.1-.2.2-.3.4-.1.1-.3.2-.5.3-.2,0-.4.1-.7.1-.6,0-1.1-.2-1.3-.5-.3-.4-.4-.8-.4-1.4ZM663.4,228.5v-2.4h-.8v-.8h.8v-1.5h.9v1.5h1.4v.8h-1.4v2.3c0,.4,0,.6.2.8.1.1.3.2.5.2s.3,0,.4,0c.1,0,.2-.1.3-.2l.4.6c-.2.2-.4.3-.6.4-.2,0-.4.1-.7.1-.5,0-.8-.1-1.1-.4-.2-.3-.3-.7-.3-1.2ZM666.7,228.1v-2.8h.9v2.7c0,.4,0,.8.3.9s.4.3.8.3.6,0,.8-.3c.2-.2.3-.4.4-.7,0-.3.1-.6.1-.9v-2.2h.9v4.4c0,0,0,.2,0,.3h-.9v-.7c-.1.1-.2.2-.3.4-.1.1-.3.2-.5.3-.2,0-.4.1-.7.1-.6,0-1.1-.2-1.3-.5-.3-.4-.4-.8-.4-1.4ZM673,230h-.9v-4.4c0,0,0-.2,0-.3h.9v.8c.1-.1.2-.2.3-.4.1-.1.3-.2.5-.3s.4-.1.7-.1.2,0,.3,0c0,0,.2,0,.2,0l-.2.8c-.1,0-.3,0-.5,0s-.5,0-.7.2c-.2.1-.4.3-.5.5-.1.2-.2.4-.2.7v2.4ZM679.2,228.8l.5.5c0,0-.2.2-.4.3-.2.1-.4.2-.7.4-.3,0-.6.1-1,.1s-.9-.1-1.3-.3c-.4-.2-.7-.5-.9-.9-.2-.4-.3-.8-.3-1.3s0-.9.3-1.2c.2-.4.5-.7.8-.9.4-.2.8-.3,1.2-.3s1,.1,1.3.4c.3.3.6.6.7,1,.2.4.2.9.2,1.3h-3.7c0,.3,0,.5.2.7.1.2.3.4.5.5.2.1.5.2.8.2.4,0,.7,0,1-.2.3-.1.4-.3.5-.4ZM676.2,227.3h2.7c0-.4-.2-.7-.4-.9-.2-.3-.5-.4-1-.4s-.5,0-.7.2c-.2.1-.4.3-.5.5-.1.2-.2.4-.2.6ZM683.6,232h-.9v-6.4c0,0,0-.2,0-.3h.9v.7c0,0,.2-.2.3-.3.1-.1.3-.2.5-.3.2,0,.5-.1.8-.1.5,0,.9.1,1.2.3.3.2.5.5.7.9.2.4.2.8.2,1.2s0,.8-.2,1.1c-.1.3-.3.6-.6.8-.2.2-.5.3-.8.4-.3,0-.6.1-.8.1s-.6,0-.8-.1c-.2,0-.4-.1-.5-.2v2.2ZM683.6,227.8v1.2c.1,0,.3.2.5.2s.5.1.8.1.6,0,.8-.2c.2-.1.4-.3.5-.6.1-.3.2-.5.2-.9s0-.6-.1-.8c0-.3-.2-.5-.4-.6-.2-.2-.5-.2-.8-.2s-.6,0-.8.3c-.2.2-.4.4-.5.8,0,.1,0,.2,0,.3,0,.1,0,.2,0,.4ZM692,228.8l.5.5c0,0-.2.2-.4.3-.2.1-.4.2-.7.4-.3,0-.6.1-1,.1s-.9-.1-1.3-.3c-.4-.2-.7-.5-.9-.9-.2-.4-.3-.8-.3-1.3s0-.9.3-1.2c.2-.4.5-.7.8-.9.4-.2.8-.3,1.2-.3s1,.1,1.3.4c.3.3.6.6.7,1s.2.9.2,1.3h-3.7c0,.3,0,.5.2.7.1.2.3.4.5.5.2.1.5.2.8.2.4,0,.7,0,1-.2.3-.1.4-.3.5-.4ZM688.9,227.3h2.7c0-.4-.2-.7-.4-.9-.2-.3-.5-.4-1-.4s-.5,0-.7.2c-.2.1-.4.3-.5.5-.1.2-.2.4-.2.6ZM694.5,230h-.9v-4.4c0,0,0-.2,0-.3h.9v.8c.1-.1.2-.2.3-.4.1-.1.3-.2.5-.3.2,0,.4-.1.7-.1s.2,0,.3,0c0,0,.2,0,.2,0l-.2.8c-.1,0-.3,0-.5,0s-.5,0-.7.2c-.2.1-.4.3-.5.5s-.2.4-.2.7v2.4ZM697.6,230v-3.9h-.8v-.8h.8v-.4c0-.4,0-.8.2-1s.4-.5.6-.6c.2-.1.5-.2.8-.2s.5,0,.7.1c.2,0,.5.2.7.4l-.5.6c-.2-.2-.5-.3-.8-.3s-.5,0-.6.2c-.2.2-.2.5-.2.9v.3h1.3v.8h-1.3v3.9h-.9ZM702.6,230.1c-.5,0-.9-.1-1.3-.3-.4-.2-.7-.5-.9-.9-.2-.4-.3-.8-.3-1.2s.1-.9.3-1.2c.2-.4.5-.7.9-.9.4-.2.8-.3,1.3-.3s.9.1,1.3.3c.4.2.7.5.9.9.2.4.3.8.3,1.2s-.1.9-.3,1.2c-.2.4-.5.7-.9.9-.4.2-.8.3-1.3.3ZM702.6,229.4c.3,0,.6,0,.8-.2.2-.2.4-.4.5-.6.1-.3.2-.5.2-.8s0-.6-.2-.8c-.1-.3-.3-.5-.5-.6-.2-.2-.5-.2-.8-.2s-.6,0-.8.2c-.2.2-.4.4-.5.6-.1.3-.2.5-.2.8s0,.6.2.8c.1.3.3.5.5.6.2.2.5.2.8.2ZM707,230h-.9v-4.4c0,0,0-.2,0-.3h.9v.8c.1-.1.2-.2.3-.4.1-.1.3-.2.5-.3.2,0,.4-.1.7-.1s.2,0,.3,0c0,0,.2,0,.2,0l-.2.8c-.1,0-.3,0-.5,0s-.5,0-.7.2c-.2.1-.4.3-.5.5s-.2.4-.2.7v2.4ZM710.6,230h-.9v-4.4c0,0,0-.2,0-.3h.9v.7c.1-.1.2-.2.3-.4.1-.1.3-.2.5-.3.2,0,.4-.1.7-.1s.7,0,.9.2c.2.1.4.3.6.6.2-.2.4-.4.7-.6.3-.2.6-.3,1-.3.6,0,1,.2,1.3.5.3.4.4.8.4,1.4v2.8h-.9v-2.7c0-.8-.3-1.3-1-1.3s-.5,0-.7.2c-.2.1-.3.3-.5.5-.1.2-.2.4-.2.7v2.6h-.9v-2.7c0-.4,0-.8-.3-.9-.2-.2-.4-.3-.7-.3s-.6,0-.8.3c-.2.2-.3.4-.4.7,0,.3-.1.6-.1.9v2.2ZM721.1,230v-.6c-.2.2-.4.4-.7.5-.3.1-.6.2-.9.2s-.5,0-.8-.1c-.2,0-.5-.2-.6-.5-.2-.2-.2-.5-.2-.9,0-.5.2-.9.5-1.2.4-.3.9-.4,1.5-.4s.3,0,.5,0c.2,0,.3,0,.4,0,.1,0,.2,0,.2,0v-.2c0-.3-.1-.6-.3-.7-.2-.2-.5-.2-.8-.2s-.6,0-.8.1c-.2,0-.4.2-.5.3l-.4-.6c.2-.1.4-.3.7-.4.3-.1.7-.2,1.2-.2s1.1.1,1.4.4c.3.3.5.7.5,1.2v2.9c0,0,0,.1,0,.2h-.8ZM721.1,228.3v-.5s-.1,0-.2,0c-.1,0-.3,0-.4,0-.1,0-.3,0-.4,0-.3,0-.6,0-.8.1-.2,0-.3.2-.4.4,0,.1,0,.3,0,.4,0,.2,0,.4.3.6.2.1.4.2.7.2s.4,0,.6-.1c.2-.1.4-.2.5-.4.1-.2.2-.3.2-.5ZM724.1,230h-.9v-4.4c0,0,0-.2,0-.3h.9v.7c.1-.1.2-.2.4-.4.1-.1.3-.2.5-.3.2,0,.5-.1.7-.1.6,0,1.1.2,1.3.5.3.4.4.8.4,1.4v2.8h-.9v-2.7c0-.4,0-.8-.3-.9-.2-.2-.4-.3-.8-.3s-.6,0-.8.3c-.2.2-.3.4-.4.7,0,.3-.1.6-.1.9v2.2ZM732.1,228.8l.5.6c-.2.2-.5.4-.8.6-.3.1-.7.2-1,.2s-.9-.1-1.3-.3c-.4-.2-.6-.5-.8-.9-.2-.4-.3-.8-.3-1.3s.1-.9.3-1.2c.2-.4.5-.7.9-.9.4-.2.8-.3,1.3-.3s.7,0,1,.2.6.3.8.6l-.6.6c-.1-.2-.3-.3-.5-.4-.2-.1-.4-.1-.7-.1s-.6,0-.8.2c-.2.2-.4.4-.5.6-.1.3-.2.5-.2.8s0,.6.2.8c.1.3.3.5.5.6.2.2.5.2.8.2s.5,0,.7-.2c.2-.1.4-.2.5-.4ZM737,228.8l.5.5c0,0-.2.2-.4.3-.2.1-.4.2-.7.4-.3,0-.6.1-1,.1s-.9-.1-1.3-.3c-.4-.2-.7-.5-.9-.9-.2-.4-.3-.8-.3-1.3s0-.9.3-1.2c.2-.4.5-.7.8-.9.4-.2.8-.3,1.2-.3s1,.1,1.3.4c.3.3.6.6.7,1,.2.4.2.9.2,1.3h-3.7c0,.3,0,.5.2.7.1.2.3.4.5.5.2.1.5.2.8.2.4,0,.7,0,1-.2.3-.1.4-.3.5-.4ZM734,227.3h2.7c0-.4-.2-.7-.4-.9-.2-.3-.5-.4-1-.4s-.5,0-.7.2c-.2.1-.4.3-.5.5-.1.2-.2.4-.2.6ZM738.7,230v-1.1h1.1v1.1h-1.1ZM743.2,230v-6.7h1v6.7h-1ZM745.2,229.4l.6-.6c.2.2.4.3.6.4.2.1.5.2.8.2s.5,0,.8-.1c.2-.1.3-.3.3-.5s0-.3-.1-.4c0,0-.2-.2-.4-.2-.2,0-.5-.1-.8-.2-.2,0-.5-.1-.7-.2-.2-.1-.4-.2-.6-.4-.1-.2-.2-.4-.2-.7s0-.6.3-.8c.2-.2.4-.4.7-.5.3-.1.6-.2.9-.2s.7,0,1,.2c.3.1.5.2.7.4l-.5.6c-.1-.1-.3-.2-.5-.3-.2,0-.5-.1-.7-.1s-.5,0-.7.1c-.2,0-.3.2-.3.5s.1.4.3.4c.2,0,.5.2.9.3.3,0,.6.2.8.3.2.1.4.3.6.4.1.2.2.4.2.7s0,.6-.3.8c-.2.2-.4.4-.7.5-.3.1-.6.2-.9.2-.9,0-1.5-.2-2-.7ZM750,229.4l.5-.6c.2.2.4.3.6.4.2.1.5.2.8.2s.5,0,.8-.1c.2-.1.3-.3.3-.5s0-.3-.1-.4c0,0-.2-.2-.4-.2-.2,0-.5-.1-.8-.2-.2,0-.5-.1-.7-.2-.2-.1-.4-.2-.6-.4-.1-.2-.2-.4-.2-.7s0-.6.3-.8c.2-.2.4-.4.7-.5.3-.1.6-.2.9-.2s.7,0,1,.2c.3.1.5.2.7.4l-.5.6c-.1-.1-.3-.2-.5-.3-.2,0-.4-.1-.7-.1s-.5,0-.7.1c-.2,0-.3.2-.3.5s.1.4.4.4c.2,0,.5.2.9.3.3,0,.6.2.8.3.2.1.4.3.6.4.1.2.2.4.2.7s0,.6-.3.8c-.2.2-.4.4-.7.5-.3.1-.6.2-1,.2-.9,0-1.5-.2-2-.7ZM754.9,228.1v-2.8h.9v2.7c0,.4,0,.8.3.9s.4.3.8.3.6,0,.8-.3c.2-.2.3-.4.4-.7,0-.3.1-.6.1-.9v-2.2h.9v4.4c0,0,0,.2,0,.3h-.9v-.7c-.1.1-.2.2-.3.4-.1.1-.3.2-.5.3-.2,0-.4.1-.7.1-.6,0-1.1-.2-1.3-.5-.3-.4-.4-.8-.4-1.4ZM764.1,228.8l.5.5c0,0-.2.2-.4.3-.2.1-.4.2-.7.4-.3,0-.6.1-1,.1s-.9-.1-1.3-.3c-.4-.2-.7-.5-.9-.9-.2-.4-.3-.8-.3-1.3s0-.9.3-1.2c.2-.4.5-.7.8-.9.4-.2.8-.3,1.2-.3s1,.1,1.3.4c.3.3.6.6.7,1,.2.4.2.9.2,1.3h-3.7c0,.3,0,.5.2.7.1.2.3.4.5.5.2.1.5.2.8.2.4,0,.7,0,1-.2.3-.1.4-.3.6-.4ZM761,227.3h2.7c0-.4-.2-.7-.4-.9-.2-.3-.5-.4-1-.4s-.5,0-.7.2c-.2.1-.4.3-.5.5-.1.2-.2.4-.2.6ZM769.1,230v-.6c0,0-.2.1-.3.3-.1.1-.3.2-.5.3-.2,0-.5.1-.8.1s-.7,0-1.1-.3c-.3-.2-.6-.5-.7-.8s-.3-.8-.3-1.3,0-.8.2-1.1c.2-.3.3-.6.6-.8.2-.2.5-.3.8-.4.3-.1.5-.1.8-.1s.5,0,.6,0c.2,0,.4.1.6.2v-2.2h.9v6.4c0,0,0,.2,0,.3h-.9ZM769.1,228v-1.7c-.1-.1-.3-.2-.5-.2-.2,0-.4-.1-.7-.1-.4,0-.8.2-1.1.5-.3.3-.4.7-.4,1.3s0,.6.1.8c0,.2.2.4.4.6.2.1.5.2.8.2s.6,0,.8-.2c.2-.1.3-.3.4-.5,0-.2.1-.4.1-.6ZM773,229.8v-6.5h.9v2.5c0-.1.3-.3.5-.4.2-.1.6-.2.9-.2s.8.1,1.2.3c.3.2.6.5.7.9.2.4.2.8.2,1.2s-.1.9-.3,1.3c-.2.4-.5.7-.9.9-.4.2-.8.3-1.4.3s-.7,0-1.1,0c-.3,0-.6-.1-.8-.2ZM773.9,227.4v1.8c0,0,.2,0,.3,0,.1,0,.3,0,.6,0,.5,0,.9-.2,1.2-.5.3-.3.5-.7.5-1.2s0-.6-.1-.8c0-.2-.2-.4-.4-.6-.2-.2-.4-.2-.8-.2s-.5,0-.7.2c-.2.1-.3.3-.4.5,0,.2-.1.4-.1.7ZM777.8,231.8l.4-.6c0,0,.1.1.2.2,0,0,.2,0,.3,0,.2,0,.4,0,.5-.3.1-.2.2-.5.4-.8v-.3c.1,0-2-4.6-2-4.6h1l1.5,3.5,1.3-3.5h1l-1.9,4.5c0,.2-.2.4-.3.7,0,.3-.2.5-.3.7-.1.2-.3.4-.5.6-.2.2-.4.2-.7.2s-.4,0-.6,0c-.2,0-.3-.1-.4-.2ZM785.2,230v-6.7h1v2.8h3.6v-2.8h1v6.7h-1v-3h-3.6v3h-1ZM794.4,230.1c-.5,0-.9-.1-1.3-.3-.4-.2-.7-.5-.9-.9-.2-.4-.3-.8-.3-1.2s.1-.9.3-1.2c.2-.4.5-.7.9-.9.4-.2.8-.3,1.3-.3s.9.1,1.3.3c.4.2.7.5.9.9.2.4.3.8.3,1.2s-.1.9-.3,1.2c-.2.4-.5.7-.9.9-.4.2-.8.3-1.3.3ZM794.4,229.4c.3,0,.6,0,.8-.2.2-.2.4-.4.5-.6.1-.3.2-.5.2-.8s0-.6-.2-.8c-.1-.3-.3-.5-.5-.6-.2-.2-.5-.2-.8-.2s-.6,0-.8.2c-.2.2-.4.4-.5.6-.1.3-.2.5-.2.8s0,.6.2.8c.1.3.3.5.5.6.2.2.5.2.8.2ZM797.6,229.4l.6-.6c.2.2.4.3.6.4.2.1.5.2.8.2s.5,0,.8-.1c.2-.1.3-.3.3-.5s0-.3-.1-.4c0,0-.2-.2-.4-.2-.2,0-.5-.1-.8-.2-.2,0-.5-.1-.7-.2-.2-.1-.4-.2-.6-.4-.1-.2-.2-.4-.2-.7s0-.6.3-.8c.2-.2.4-.4.7-.5.3-.1.6-.2.9-.2s.7,0,1,.2c.3.1.5.2.7.4l-.5.6c-.1-.1-.3-.2-.5-.3-.2,0-.5-.1-.7-.1s-.5,0-.7.1c-.2,0-.3.2-.3.5s.1.4.3.4c.2,0,.5.2.9.3.3,0,.6.2.8.3.2.1.4.3.6.4.1.2.2.4.2.7s0,.6-.3.8c-.2.2-.4.4-.7.5-.3.1-.6.2-1,.2-.9,0-1.5-.2-2-.7ZM803,228.5v-2.4h-.8v-.8h.8v-1.5h.9v1.5h1.4v.8h-1.4v2.3c0,.4,0,.6.2.8.1.1.3.2.5.2s.3,0,.4,0c.1,0,.2-.1.3-.2l.4.6c-.2.2-.4.3-.6.4-.2,0-.4.1-.7.1-.5,0-.8-.1-1.1-.4-.2-.3-.4-.7-.4-1.2ZM806.2,227.6v-.9h2.9v.9h-2.9ZM810.7,230v-6.7h2.1c.5,0,.8,0,1.1.2.3.1.5.3.7.5.2.2.3.4.4.7,0,.2.1.5.1.7,0,.4,0,.8-.3,1.1-.2.3-.5.5-.8.7-.3.2-.7.2-1.2.2h-1.2v2.6h-1ZM811.6,226.6h1.2c.4,0,.7-.1,1-.3.2-.2.3-.5.3-.9s-.1-.7-.3-.9c-.2-.2-.5-.3-.9-.3h-1.2v2.4ZM816,230v-6.7h.9v6.7h-.9ZM818.1,228.1v-2.8h.9v2.7c0,.4,0,.8.3.9s.4.3.8.3.6,0,.8-.3c.2-.2.3-.4.4-.7,0-.3.1-.6.1-.9v-2.2h.9v4.4c0,0,0,.2,0,.3h-.9v-.7c-.1.1-.2.2-.3.4-.1.1-.3.2-.5.3-.2,0-.4.1-.7.1-.6,0-1.1-.2-1.3-.5-.3-.4-.4-.8-.4-1.4ZM823.3,229.4l.5-.6c.2.2.4.3.6.4.2.1.5.2.8.2s.5,0,.8-.1c.2-.1.3-.3.3-.5s0-.3-.1-.4c0,0-.2-.2-.4-.2-.2,0-.5-.1-.8-.2-.2,0-.5-.1-.7-.2-.2-.1-.4-.2-.6-.4-.1-.2-.2-.4-.2-.7s0-.6.3-.8c.2-.2.4-.4.7-.5.3-.1.6-.2.9-.2s.7,0,1,.2c.3.1.5.2.7.4l-.5.6c-.1-.1-.3-.2-.5-.3-.2,0-.5-.1-.7-.1s-.5,0-.7.1c-.2,0-.3.2-.3.5s.1.4.3.4c.2,0,.5.2.9.3.3,0,.6.2.8.3.2.1.4.3.6.4.1.2.2.4.2.7s0,.6-.3.8c-.2.2-.4.4-.7.5-.3.1-.6.2-1,.2-.9,0-1.5-.2-2-.7ZM830.2,230v-6.7h2.1c.5,0,.8,0,1.1.2.3.1.5.3.7.5.2.2.3.4.4.7,0,.2.1.5.1.7,0,.4,0,.8-.3,1.1-.2.3-.5.5-.8.7-.3.2-.7.2-1.2.2h-1.2v2.6h-1ZM831.1,226.6h1.2c.4,0,.7-.1,1-.3.2-.2.3-.5.3-.9s-.1-.7-.3-.9c-.2-.2-.5-.3-.9-.3h-1.2v2.4ZM836.1,228.5v-2.4h-.8v-.8h.8v-1.5h.9v1.5h1.4v.8h-1.4v2.3c0,.4,0,.6.2.8.1.1.3.2.5.2s.3,0,.4,0c.1,0,.2-.1.3-.2l.4.6c-.2.2-.4.3-.6.4-.2,0-.4.1-.7.1-.5,0-.8-.1-1.1-.4-.2-.3-.4-.7-.4-1.2ZM839,231.8l.4-.6c0,0,.1.1.2.2,0,0,.2,0,.3,0,.2,0,.4,0,.5-.3.1-.2.2-.5.4-.8v-.3c.1,0-2-4.6-2-4.6h1l1.5,3.5,1.3-3.5h1l-1.9,4.5c0,.2-.2.4-.3.7,0,.3-.2.5-.3.7-.1.2-.3.4-.5.6-.2.2-.4.2-.7.2s-.4,0-.6,0c-.2,0-.3-.1-.4-.2ZM846.3,230v-6.7h1v5.8h3.5v.9h-4.4ZM851.6,224.5v-1h1v1h-1ZM851.7,230v-4.6h.9v4.6h-.9ZM854.8,230h-.9v-4.4c0,0,0-.2,0-.3h.9v.7c.1-.1.2-.2.3-.4.1-.1.3-.2.5-.3.2,0,.4-.1.7-.1s.7,0,.9.2c.2.1.4.3.6.6.2-.2.4-.4.7-.6.3-.2.6-.3,1-.3.6,0,1,.2,1.3.5.3.4.4.8.4,1.4v2.8h-.9v-2.7c0-.8-.3-1.3-1-1.3s-.5,0-.7.2c-.2.1-.3.3-.5.5-.1.2-.2.4-.2.7v2.6h-.9v-2.7c0-.4,0-.8-.3-.9-.2-.2-.4-.3-.7-.3s-.6,0-.8.3c-.2.2-.3.4-.4.7,0,.3-.1.6-.1.9v2.2ZM862.4,224.5v-1h1v1h-1ZM862.4,230v-4.6h.9v4.6h-.9ZM865,228.5v-2.4h-.8v-.8h.8v-1.5h.9v1.5h1.4v.8h-1.4v2.3c0,.4,0,.6.2.8.1.1.3.2.5.2s.3,0,.4,0c.1,0,.2-.1.3-.2l.4.6c-.2.2-.4.3-.6.4-.2,0-.4.1-.7.1-.5,0-.8-.1-1.1-.4-.2-.3-.3-.7-.3-1.2ZM871.9,228.8l.5.5c0,0-.2.2-.4.3-.2.1-.4.2-.7.4-.3,0-.6.1-1,.1s-.9-.1-1.3-.3c-.4-.2-.7-.5-.9-.9-.2-.4-.3-.8-.3-1.3s0-.9.3-1.2c.2-.4.5-.7.8-.9.4-.2.8-.3,1.2-.3s1,.1,1.3.4c.3.3.6.6.7,1,.2.4.2.9.2,1.3h-3.7c0,.3,0,.5.2.7.1.2.3.4.6.5.2.1.5.2.8.2.4,0,.7,0,1-.2.3-.1.4-.3.5-.4ZM868.8,227.3h2.7c0-.4-.2-.7-.4-.9-.2-.3-.5-.4-1-.4s-.5,0-.7.2c-.2.1-.4.3-.5.5-.1.2-.2.4-.2.6ZM876.9,230v-.6c0,0-.2.1-.3.3-.1.1-.3.2-.5.3-.2,0-.5.1-.8.1s-.7,0-1.1-.3c-.3-.2-.6-.5-.7-.8s-.3-.8-.3-1.3,0-.8.2-1.1c.2-.3.3-.6.6-.8s.5-.3.8-.4c.3-.1.5-.1.8-.1s.5,0,.7,0c.2,0,.4.1.6.2v-2.2h.9v6.4c0,0,0,.2,0,.3h-.9ZM876.8,228v-1.7c-.1-.1-.3-.2-.5-.2s-.4-.1-.7-.1c-.4,0-.8.2-1.1.5-.3.3-.4.7-.4,1.3s0,.6.1.8c.1.2.2.4.5.6.2.1.5.2.8.2s.6,0,.8-.2c.2-.1.3-.3.4-.5,0-.2.1-.4.1-.6ZM879.1,230v-1.1h1.1v1.1h-1.1Z" fill="#99a9bb" stroke-width="0"/>
</svg>