<?xml version="1.0" encoding="utf-8"?>
<!-- Generator: Adobe Illustrator 27.7.0, SVG Export Plug-In . SVG Version: 6.00 Build 0)  -->
<svg version="1.1" id="Layer_1" xmlns="http://www.w3.org/2000/svg" xmlns:xlink="http://www.w3.org/1999/xlink" x="0px" y="0px"
	 viewBox="0 0 134 50" style="enable-background:new 0 0 134 50;" xml:space="preserve">
<path d="M6.2,10.9c2,0,3.3-1.5,3.3-3.9V6.9C9.4,4.7,8.2,3,6.1,3S2.8,4.6,2.8,6.9V7C2.8,9.3,4.2,10.9,6.2,10.9z M6.1,12.5
	c-3.3,0-5.4-2.4-5.4-5.4V6.9c0-3.1,2.2-5.5,5.4-5.5c3.2,0,5.4,2.3,5.4,5.4V7C11.5,10.1,9.4,12.5,6.1,12.5z M19.7,12.5
	c-2.2,0-4-1.5-4-4V8.4c0-2.5,1.8-4.1,4-4.1c1.7,0,3.4,0.8,3.6,2.9h-1.8c-0.1-1.1-0.8-1.5-1.8-1.5c-1.2,0-2.1,1-2.1,2.6v0.1
	c0,1.7,0.8,2.6,2.2,2.6c1,0,1.8-0.6,1.9-1.7h1.7C23.2,11.2,21.8,12.5,19.7,12.5z M28.1,11.1c1.4,0,2.2-1,2.2-2.6V8.3
	c0-1.6-0.8-2.6-2.2-2.6s-2.2,1-2.2,2.6v0.1C25.9,10,26.7,11.1,28.1,11.1z M28.1,12.5c-2.3,0-4-1.6-4-4V8.4c0-2.4,1.7-4,4-4
	c2.3,0,4,1.6,4,4v0.1C32.1,10.9,30.4,12.5,28.1,12.5z M37.8,12.5c-1.2,0-2.1-0.6-2.6-1.4v1.3h-1.8V0.8h1.8v4.9
	c0.4-0.8,1.4-1.4,2.6-1.4c2,0,3.5,1.5,3.5,4v0.1C41.3,10.9,39.9,12.5,37.8,12.5z M37.4,11c1.3,0,2.1-0.9,2.1-2.6V8.3
	c0-1.7-0.9-2.6-2.1-2.6c-1.3,0-2.2,0.9-2.2,2.6v0.1C35.2,10.2,36.1,11,37.4,11z M42.7,12.3V4.5h1.8v1.5c0.5-1,1.2-1.6,2.5-1.6V6
	c-1.6,0-2.5,0.5-2.5,2.2v4.1H42.7z M51.6,12.5c-2.3,0-4-1.5-4-4V8.4c0-2.4,1.7-4,3.9-4c2,0,3.7,1.2,3.7,4v0.5h-5.7
	c0.1,1.5,0.8,2.3,2.2,2.3c1.1,0,1.7-0.4,1.8-1.2h1.8C55,11.6,53.6,12.5,51.6,12.5z M49.5,7.6h3.9c-0.1-1.3-0.8-1.9-1.9-1.9
	C50.5,5.6,49.7,6.4,49.5,7.6z M62.4,3.3L63.3,1h2l-1.6,2.3H62.4z M63.3,12.5c-2.3,0-4-1.5-4-4V8.4c0-2.4,1.7-4,3.9-4
	c2,0,3.7,1.2,3.7,4v0.5h-5.7c0.1,1.5,0.8,2.3,2.2,2.3c1.1,0,1.7-0.4,1.8-1.2h1.8C66.6,11.6,65.3,12.5,63.3,12.5z M61.2,7.6h3.9
	c-0.1-1.3-0.8-1.9-1.9-1.9C62.1,5.6,61.4,6.4,61.2,7.6z M75,12.5c-2.3,0-4-1.5-4-4V8.4c0-2.4,1.7-4,3.9-4c2,0,3.7,1.2,3.7,4v0.5
	h-5.7c0.1,1.5,0.8,2.3,2.2,2.3c1.1,0,1.7-0.4,1.8-1.2h1.8C78.3,11.6,77,12.5,75,12.5z M72.9,7.6h3.9c-0.1-1.3-0.8-1.9-1.9-1.9
	C73.8,5.6,73.1,6.4,72.9,7.6z M82.7,12.5c-2,0-3.2-0.9-3.3-2.6h1.7c0.1,0.8,0.5,1.3,1.6,1.3c1,0,1.4-0.3,1.4-1
	c0-0.6-0.5-0.9-1.7-1.1c-2.1-0.3-2.8-0.9-2.8-2.4c0-1.6,1.5-2.4,2.9-2.4c1.6,0,2.9,0.6,3.1,2.4h-1.7c-0.2-0.7-0.6-1-1.4-1
	c-0.8,0-1.2,0.4-1.2,0.9c0,0.6,0.4,0.8,1.6,1c1.8,0.3,2.9,0.7,2.9,2.4C85.8,11.5,84.7,12.5,82.7,12.5z M89.8,12.5
	c-2,0-3.2-0.9-3.3-2.6h1.7c0.1,0.8,0.5,1.3,1.6,1.3c1,0,1.4-0.3,1.4-1c0-0.6-0.5-0.9-1.7-1.1c-2.1-0.3-2.8-0.9-2.8-2.4
	c0-1.6,1.5-2.4,2.9-2.4c1.6,0,2.9,0.6,3.1,2.4H91c-0.2-0.7-0.6-1-1.4-1c-0.8,0-1.2,0.4-1.2,0.9c0,0.6,0.4,0.8,1.6,1
	c1.8,0.3,2.9,0.7,2.9,2.4C92.9,11.5,91.8,12.5,89.8,12.5z M97.7,12.5c-2.3,0-4-1.5-4-4V8.4c0-2.4,1.7-4,3.9-4c2,0,3.7,1.2,3.7,4v0.5
	h-5.7c0.1,1.5,0.8,2.3,2.2,2.3c1.1,0,1.7-0.4,1.8-1.2h1.8C101,11.6,99.7,12.5,97.7,12.5z M95.6,7.6h3.9c-0.1-1.3-0.8-1.9-1.9-1.9
	C96.5,5.6,95.8,6.4,95.6,7.6z M102.6,12.3V4.5h1.8v1.2c0.4-0.8,1.2-1.4,2.5-1.4c1.6,0,2.7,0.9,2.7,3.1v4.9h-1.8V7.5
	c0-1.2-0.5-1.7-1.6-1.7c-1,0-1.8,0.6-1.8,1.9v4.6H102.6z M114.9,12.5c-2.2,0-4-1.5-4-4V8.4c0-2.5,1.8-4.1,4-4.1
	c1.7,0,3.4,0.8,3.6,2.9h-1.8c-0.2-1.1-0.8-1.5-1.8-1.5c-1.2,0-2.1,1-2.1,2.6v0.1c0,1.7,0.8,2.6,2.2,2.6c1,0,1.8-0.6,1.9-1.7h1.7
	C118.4,11.2,117,12.5,114.9,12.5z M119.8,12.3V4.5h1.8v7.8H119.8z M120.7,3.2c-0.6,0-1.1-0.5-1.1-1c0-0.6,0.5-1,1.1-1s1.1,0.4,1.1,1
	C121.8,2.7,121.3,3.2,120.7,3.2z M125.6,12.5c-1.4,0-2.6-0.7-2.6-2.3c0-1.8,1.8-2.5,4-2.5h1V7.2c0-1.1-0.4-1.6-1.4-1.6
	c-0.9,0-1.4,0.5-1.5,1.2h-1.8c0.2-1.8,1.6-2.6,3.4-2.6s3.1,0.7,3.1,2.9v5.1H128v-1C127.5,12,126.8,12.5,125.6,12.5z M126,11.2
	c1.1,0,1.9-0.6,1.9-1.6V8.8H127c-1.4,0-2.3,0.3-2.3,1.3C124.8,10.7,125.1,11.2,126,11.2z M131.6,12.3V0.8h1.8v11.5H131.6z"/>
</svg>
