<?xml version="1.0" encoding="utf-8"?>
<!-- Generator: Adobe Illustrator 27.7.0, SVG Export Plug-In . SVG Version: 6.00 Build 0)  -->
<svg version="1.1" id="Layer_1" xmlns="http://www.w3.org/2000/svg" xmlns:xlink="http://www.w3.org/1999/xlink" x="0px" y="0px"
	 viewBox="0 0 105 47" style="enable-background:new 0 0 105 47;" xml:space="preserve">
<style type="text/css">
	.st0{fill:#DD5900;}
</style>
<path class="st0" d="M6.2,10.9c2,0,3.3-1.5,3.3-3.9V6.9C9.4,4.7,8.2,3,6.1,3S2.8,4.6,2.8,6.9V7C2.8,9.3,4.2,10.9,6.2,10.9z
	 M6.1,12.5c-3.3,0-5.4-2.4-5.4-5.4V6.9c0-3.1,2.2-5.5,5.4-5.5c3.2,0,5.4,2.3,5.4,5.4V7C11.5,10.1,9.4,12.5,6.1,12.5z M16.6,12.3V5.8
	h-1.1V4.5h1.1v-1c0-1.7,1-2.7,2.6-2.7c0.4,0,0.7,0,1,0.2v1.4c-0.2-0.1-0.5-0.1-0.8-0.1c-0.7,0-1,0.5-1,1.2v1.1h1.8v1.4h-1.8v6.5
	H16.6z M24,12.5c-1.5,0-2.7-0.9-2.7-3v-5h1.8v4.8c0,1.2,0.5,1.7,1.5,1.7c1,0,1.8-0.6,1.8-1.9V4.5h1.8v7.8h-1.8v-1.2
	C26.1,11.8,25.3,12.5,24,12.5z M32.9,12.4c-1.6,0-2.4-0.8-2.4-2.3V5.8h-1.1V4.5h1.1V2.7h1.8v1.7H34v1.4h-1.7V10c0,0.7,0.3,1,0.9,1
	c0.4,0,0.6,0,0.9-0.1v1.4C33.8,12.4,33.4,12.4,32.9,12.4z M38,12.5c-1.5,0-2.7-0.9-2.7-3v-5h1.8v4.8c0,1.2,0.5,1.7,1.5,1.7
	c1,0,1.8-0.6,1.8-1.9V4.5h1.8v7.8h-1.8v-1.2C40.1,11.8,39.3,12.5,38,12.5z M44.2,12.3V4.5H46v1.5c0.5-1,1.2-1.6,2.5-1.6V6
	C47,6.1,46,6.6,46,8.2v4.1H44.2z M53.2,11.1c1.3,0,2.2-1,2.2-2.6V8.3c0-1.6-0.8-2.6-2.2-2.6c-1.4,0-2.2,1-2.2,2.6v0.1
	C51.1,10,51.9,11.1,53.2,11.1z M53.2,12.5c-2.3,0-4-1.6-4-4V8.4c0-2.4,1.7-4,4-4c2.3,0,4,1.6,4,4v0.1C57.3,10.9,55.5,12.5,53.2,12.5
	z M60.8,15.1v-1.4c0.8-0.1,1.1-0.5,1.1-1.1V4.5h1.8v8.1C63.7,14.2,63,15.1,60.8,15.1z M62.8,3.2c-0.6,0-1.1-0.5-1.1-1
	c0-0.6,0.5-1,1.1-1c0.6,0,1.1,0.4,1.1,1C63.9,2.7,63.4,3.2,62.8,3.2z M67.7,12.5c-1.4,0-2.6-0.7-2.6-2.3c0-1.8,1.8-2.5,4-2.5h1V7.2
	c0-1.1-0.4-1.6-1.4-1.6c-0.9,0-1.4,0.5-1.5,1.2h-1.8c0.2-1.8,1.6-2.6,3.4-2.6s3.1,0.7,3.1,2.9v5.1h-1.8v-1
	C69.6,12,68.9,12.5,67.7,12.5z M68.1,11.2c1.1,0,1.9-0.6,1.9-1.6V8.8h-0.9c-1.4,0-2.3,0.3-2.3,1.3C66.9,10.7,67.2,11.2,68.1,11.2z
	 M68,3.3L68.9,1h2l-1.6,2.3H68z M80.4,12.5c-2.3,0-4-1.5-4-4V8.4c0-2.4,1.7-4,3.9-4c2,0,3.7,1.2,3.7,4v0.5h-5.7
	c0.1,1.5,0.8,2.3,2.2,2.3c1.1,0,1.7-0.4,1.8-1.2H84C83.7,11.6,82.4,12.5,80.4,12.5z M78.3,7.6h3.9c-0.1-1.3-0.8-1.9-1.9-1.9
	C79.2,5.6,78.5,6.4,78.3,7.6z M88.1,12.5c-2,0-3.2-0.9-3.3-2.6h1.7c0.1,0.8,0.5,1.3,1.6,1.3c1,0,1.4-0.3,1.4-1
	c0-0.6-0.5-0.9-1.7-1.1C85.7,8.7,85,8.1,85,6.7c0-1.6,1.5-2.4,2.9-2.4c1.6,0,2.9,0.6,3.1,2.4h-1.7c-0.2-0.7-0.6-1-1.4-1
	c-0.8,0-1.2,0.4-1.2,0.9c0,0.6,0.4,0.8,1.6,1c1.8,0.3,2.9,0.7,2.9,2.4C91.2,11.5,90.1,12.5,88.1,12.5z M95.2,12.4
	c-1.6,0-2.4-0.8-2.4-2.3V5.8h-1.1V4.5h1.1V2.7h1.8v1.7h1.7v1.4h-1.7V10c0,0.7,0.3,1,0.9,1c0.4,0,0.6,0,0.9-0.1v1.4
	C96.1,12.4,95.7,12.4,95.2,12.4z M99.9,12.5c-1.4,0-2.6-0.7-2.6-2.3c0-1.8,1.8-2.5,4-2.5h1V7.2c0-1.1-0.4-1.6-1.4-1.6
	c-0.9,0-1.4,0.5-1.5,1.2h-1.8c0.2-1.8,1.6-2.6,3.4-2.6c1.8,0,3.1,0.7,3.1,2.9v5.1h-1.8v-1C101.8,12,101.1,12.5,99.9,12.5z
	 M100.3,11.2c1.1,0,1.9-0.6,1.9-1.6V8.8h-0.9c-1.4,0-2.3,0.3-2.3,1.3C99.1,10.7,99.4,11.2,100.3,11.2z M100.2,3.3l0.9-2.3h2
	l-1.6,2.3H100.2z"/>
</svg>
