<?xml version="1.0" encoding="utf-8"?>
<!-- Generator: Adobe Illustrator 27.7.0, SVG Export Plug-In . SVG Version: 6.00 Build 0)  -->
<svg version="1.1" id="Layer_1" xmlns="http://www.w3.org/2000/svg" xmlns:xlink="http://www.w3.org/1999/xlink" x="0px" y="0px"
	 viewBox="0 0 134 50" style="enable-background:new 0 0 134 50;" xml:space="preserve">
<path d="M4.5,46.5c-2.3,0-4-1.5-4-4v-0.1c0-2.4,1.7-4.1,3.9-4.1c2,0,3.7,1.2,3.7,4v0.5H2.4c0.1,1.5,0.8,2.3,2.2,2.3
	c1.1,0,1.7-0.4,1.8-1.2h1.8C7.9,45.6,6.5,46.5,4.5,46.5z M2.4,41.6h3.9c-0.1-1.3-0.8-1.9-1.9-1.9C3.4,39.6,2.6,40.4,2.4,41.6z
	 M9.5,46.3v-7.8h1.8v1.2c0.4-0.8,1.2-1.4,2.5-1.4c1.6,0,2.7,0.9,2.7,3.1v4.9h-1.8v-4.8c0-1.2-0.5-1.7-1.6-1.7c-1,0-1.8,0.6-1.8,1.9
	v4.6H9.5z M21.8,46.5c-2.3,0-4-1.5-4-4v-0.1c0-2.4,1.7-4.1,3.9-4.1c1.9,0,3.7,1.2,3.7,4v0.5h-5.7c0.1,1.5,0.8,2.3,2.2,2.3
	c1.1,0,1.7-0.4,1.8-1.2h1.8C25.1,45.6,23.8,46.5,21.8,46.5z M19.7,41.6h3.9c-0.1-1.3-0.8-1.9-1.9-1.9C20.6,39.6,19.9,40.4,19.7,41.6
	z M26.7,46.3v-7.8h1.8v1.5c0.5-1,1.2-1.6,2.5-1.6V40c-1.6,0-2.5,0.5-2.5,2.2v4.1H26.7z M35.6,49.2c-2.5,0-3.6-1.1-3.8-2.6h1.8
	c0.2,0.8,0.8,1.2,1.9,1.2c1.4,0,2.2-0.7,2.2-2.1v-1.2c-0.4,0.8-1.4,1.5-2.6,1.5c-2,0-3.5-1.5-3.5-3.7v-0.1c0-2.2,1.5-3.9,3.5-3.9
	c1.3,0,2.1,0.6,2.5,1.4v-1.2h1.8v7.3C39.5,48,38,49.2,35.6,49.2z M35.6,44.6c1.3,0,2.2-0.9,2.2-2.4v-0.1c0-1.5-0.8-2.4-2.1-2.4
	c-1.4,0-2.1,1-2.1,2.4v0.1C33.6,43.7,34.5,44.6,35.6,44.6z M44,37.3l0.9-2.3h2l-1.6,2.3H44z M44.9,46.5c-2.3,0-4-1.5-4-4v-0.1
	c0-2.4,1.7-4.1,3.9-4.1c1.9,0,3.7,1.2,3.7,4v0.5h-5.7c0.1,1.5,0.8,2.3,2.2,2.3c1.1,0,1.7-0.4,1.8-1.2h1.8
	C48.2,45.6,46.9,46.5,44.9,46.5z M42.8,41.6h3.9c-0.1-1.3-0.8-1.9-1.9-1.9C43.7,39.6,43,40.4,42.8,41.6z M52.5,46.4
	c-1.6,0-2.4-0.8-2.4-2.3v-4.3h-1v-1.4h1v-1.7h1.8v1.7h1.7v1.4h-1.7V44c0,0.7,0.3,1,0.9,1c0.4,0,0.6,0,0.9-0.2v1.4
	C53.4,46.4,53,46.4,52.5,46.4z M55.1,46.3v-7.8h1.8v7.8H55.1z M56,37.2c-0.6,0-1.1-0.4-1.1-1c0-0.6,0.5-1,1.1-1c0.6,0,1.1,0.5,1.1,1
	C57.1,36.7,56.6,37.2,56,37.2z M62.3,46.5c-2.2,0-4-1.5-4-4v-0.1c0-2.5,1.8-4.1,4-4.1c1.7,0,3.4,0.8,3.6,2.9h-1.8
	c-0.1-1-0.8-1.5-1.8-1.5c-1.2,0-2.1,1-2.1,2.6v0.1c0,1.7,0.8,2.6,2.2,2.6c1,0,1.8-0.6,1.9-1.7h1.7C65.8,45.2,64.4,46.5,62.3,46.5z
	 M69.2,46.5c-1.4,0-2.6-0.7-2.6-2.3c0-1.8,1.8-2.5,4-2.5h1v-0.4c0-1-0.4-1.6-1.4-1.6c-0.9,0-1.4,0.5-1.5,1.2h-1.8
	c0.2-1.8,1.6-2.6,3.4-2.6s3.1,0.7,3.1,2.9v5.1h-1.8v-1C71.1,46,70.4,46.5,69.2,46.5z M69.6,45.2c1.1,0,1.9-0.6,1.9-1.6v-0.8h-0.9
	c-1.4,0-2.3,0.3-2.3,1.3C68.4,44.7,68.7,45.2,69.6,45.2z M76.3,46.4c-0.7,0-1.2-0.5-1.2-1.2s0.5-1.2,1.2-1.2c0.7,0,1.2,0.5,1.2,1.2
	S76.9,46.4,76.3,46.4z"/>
</svg>
