<svg width="450" height="375" viewBox="0 0 450 375" fill="none" xmlns="http://www.w3.org/2000/svg">
<g clip-path="url(#clip0_3031_4077)">
<g clip-path="url(#clip1_3031_4077)">
<rect width="450" height="375" transform="translate(0 0.5)" fill="#E3E9EC"/>
<path d="M25.53 18.9V20.826H21.453V31.5H19.419V20.826H15.342V18.9H25.53ZM29.6578 22.653C32.0698 22.653 33.7258 24.489 33.7348 27.18C33.7348 27.423 33.7168 27.666 33.6988 27.882H27.3268C27.5788 29.43 28.6678 30.078 29.8918 30.078C30.7558 30.078 31.6738 29.736 32.3848 29.169L33.3208 30.51C32.2678 31.41 31.0798 31.725 29.7748 31.725C27.1918 31.725 25.3648 29.925 25.3648 27.189C25.3648 24.489 27.1198 22.653 29.6578 22.653ZM29.6218 24.327C28.2808 24.327 27.5338 25.191 27.3358 26.451H31.8088C31.6018 25.11 30.8188 24.327 29.6218 24.327ZM40.423 22.653C40.999 22.653 41.44 22.725 41.872 22.896L41.422 24.759C41.026 24.552 40.45 24.444 39.991 24.444C38.794 24.444 37.939 25.29 37.939 26.757V31.5H36.058V22.878H37.921V23.85C38.488 23.031 39.37 22.653 40.423 22.653ZM54.4394 22.653C56.4914 22.653 57.9404 24.066 57.9404 26.082V31.5H56.0504V26.703C56.0504 25.254 55.3034 24.444 54.0434 24.444C52.8284 24.444 51.8114 25.245 51.8114 26.721V31.5H49.9214V26.703C49.9214 25.254 49.1744 24.444 47.9144 24.444C46.6994 24.444 45.6824 25.245 45.6824 26.721V31.5H43.7924V22.878H45.6644V23.931C46.3574 22.914 47.4284 22.653 48.3104 22.653C49.6244 22.653 50.6954 23.238 51.2894 24.192C52.0364 22.959 53.3684 22.653 54.4394 22.653ZM67.486 23.571L66.676 25.038C66.154 24.714 65.083 24.3 64.012 24.3C62.986 24.3 62.383 24.714 62.383 25.326C62.383 25.929 63.013 26.1 63.805 26.217L64.696 26.352C66.577 26.622 67.693 27.423 67.693 28.899C67.693 30.555 66.253 31.716 63.769 31.716C62.878 31.716 61.33 31.545 60.07 30.609L60.943 29.196C61.564 29.673 62.383 30.078 63.787 30.078C65.074 30.078 65.749 29.673 65.749 29.025C65.749 28.539 65.281 28.215 64.255 28.071L63.355 27.954C61.447 27.693 60.43 26.811 60.43 25.425C60.43 23.715 61.798 22.662 63.994 22.662C65.344 22.662 66.595 22.995 67.486 23.571ZM86.1051 31.5H83.3871L81.8211 30.006C80.9121 30.987 79.7241 31.725 78.0141 31.725C75.6561 31.725 74.2161 30.501 74.2161 28.404C74.2161 26.892 75.2691 25.803 76.4571 24.894C75.3051 23.751 74.7561 22.941 74.7561 21.69C74.7561 19.98 76.1511 18.675 78.2391 18.675C80.3001 18.675 81.7041 19.863 81.7041 21.627C81.7041 23.04 80.5611 24.048 79.3191 24.966L81.6501 27.207L83.3871 24.516L84.9171 25.47L83.3241 27.963C83.2161 28.143 83.0991 28.314 82.9821 28.494L86.1051 31.5ZM78.1311 29.952C79.1301 29.952 79.8231 29.556 80.5161 28.764L77.7441 26.118C76.8981 26.793 76.2501 27.486 76.2501 28.341C76.2501 29.304 77.0151 29.952 78.1311 29.952ZM76.7901 21.807C76.7901 22.419 77.0511 22.779 78.0411 23.742C78.9681 23.076 79.6971 22.446 79.6971 21.717C79.6971 20.916 79.1571 20.457 78.2391 20.457C77.3211 20.457 76.7901 20.961 76.7901 21.807ZM98.8418 18.666C101.083 18.666 103.072 19.665 104.062 21.303L102.361 22.437C101.596 21.321 100.345 20.619 98.8418 20.619C96.2678 20.619 94.3778 22.482 94.3778 25.2C94.3778 27.918 96.2678 29.781 98.8418 29.781C100.336 29.781 101.569 29.106 102.352 27.972L104.008 29.187C102.937 30.762 101.047 31.734 98.8418 31.734C94.9718 31.734 92.2448 28.962 92.2448 25.2C92.2448 21.438 94.9718 18.666 98.8418 18.666ZM110.314 22.653C112.978 22.653 114.958 24.606 114.958 27.189C114.958 29.772 112.978 31.725 110.314 31.725C107.65 31.725 105.679 29.772 105.679 27.189C105.679 24.606 107.65 22.653 110.314 22.653ZM110.314 24.426C108.775 24.426 107.614 25.56 107.614 27.189C107.614 28.818 108.775 29.952 110.314 29.952C111.853 29.952 113.023 28.818 113.023 27.189C113.023 25.56 111.853 24.426 110.314 24.426ZM121.805 22.653C123.857 22.653 125.306 24.066 125.306 26.082V31.5H123.416V26.703C123.416 25.254 122.669 24.444 121.409 24.444C120.194 24.444 119.177 25.245 119.177 26.721V31.5H117.287V22.878H119.159V23.931C119.852 22.914 120.923 22.653 121.805 22.653ZM131.857 22.653C133.081 22.653 133.972 23.157 134.566 23.922V18.54H136.447V31.5H134.566V30.465C133.972 31.23 133.081 31.725 131.857 31.725C129.445 31.725 127.546 29.826 127.546 27.189C127.546 24.552 129.445 22.653 131.857 22.653ZM132.082 24.426C130.462 24.426 129.481 25.677 129.481 27.189C129.481 28.701 130.462 29.952 132.082 29.952C133.639 29.952 134.683 28.764 134.683 27.189C134.683 25.614 133.639 24.426 132.082 24.426ZM141.29 22.878V31.5H139.4V22.878H141.29ZM140.336 18.567C141.083 18.567 141.668 19.152 141.668 19.899C141.668 20.646 141.083 21.213 140.336 21.213C139.589 21.213 139.022 20.646 139.022 19.899C139.022 19.152 139.589 18.567 140.336 18.567ZM150.111 22.878V24.588H146.808V28.341C146.808 29.502 147.42 29.952 148.176 29.952C148.761 29.952 149.4 29.691 149.913 29.367L150.66 30.87C149.967 31.338 149.094 31.725 148.014 31.725C146.061 31.725 144.918 30.672 144.918 28.377V24.588H143.199V22.878H144.918V20.268H146.808V22.878H150.111ZM154.298 22.878V31.5H152.408V22.878H154.298ZM153.344 18.567C154.091 18.567 154.676 19.152 154.676 19.899C154.676 20.646 154.091 21.213 153.344 21.213C152.597 21.213 152.03 20.646 152.03 19.899C152.03 19.152 152.597 18.567 153.344 18.567ZM161.256 22.653C163.92 22.653 165.9 24.606 165.9 27.189C165.9 29.772 163.92 31.725 161.256 31.725C158.592 31.725 156.621 29.772 156.621 27.189C156.621 24.606 158.592 22.653 161.256 22.653ZM161.256 24.426C159.717 24.426 158.556 25.56 158.556 27.189C158.556 28.818 159.717 29.952 161.256 29.952C162.795 29.952 163.965 28.818 163.965 27.189C163.965 25.56 162.795 24.426 161.256 24.426ZM172.746 22.653C174.798 22.653 176.247 24.066 176.247 26.082V31.5H174.357V26.703C174.357 25.254 173.61 24.444 172.35 24.444C171.135 24.444 170.118 25.245 170.118 26.721V31.5H168.228V22.878H170.1V23.931C170.793 22.914 171.864 22.653 172.746 22.653ZM185.787 23.571L184.977 25.038C184.455 24.714 183.384 24.3 182.313 24.3C181.287 24.3 180.684 24.714 180.684 25.326C180.684 25.929 181.314 26.1 182.106 26.217L182.997 26.352C184.878 26.622 185.994 27.423 185.994 28.899C185.994 30.555 184.554 31.716 182.07 31.716C181.179 31.716 179.631 31.545 178.371 30.609L179.244 29.196C179.865 29.673 180.684 30.078 182.088 30.078C183.375 30.078 184.05 29.673 184.05 29.025C184.05 28.539 183.582 28.215 182.556 28.071L181.656 27.954C179.748 27.693 178.731 26.811 178.731 25.425C178.731 23.715 180.099 22.662 182.295 22.662C183.645 22.662 184.896 22.995 185.787 23.571Z" fill="black"/>
<path d="M21.597 69.55H18.744V74.5H16.71V61.9H21.597C24.504 61.9 26.061 63.367 26.061 65.725C26.061 68.083 24.504 69.55 21.597 69.55ZM21.543 63.817H18.744V67.633H21.543C23.19 67.633 23.946 67.021 23.946 65.725C23.946 64.429 23.19 63.817 21.543 63.817ZM30.284 61.54V74.5H28.394V61.54H30.284ZM41.508 65.878V74.5H39.627V73.465C39.033 74.23 38.142 74.725 36.918 74.725C34.506 74.725 32.607 72.826 32.607 70.189C32.607 67.552 34.506 65.653 36.918 65.653C38.142 65.653 39.033 66.157 39.627 66.922V65.878H41.508ZM37.143 67.426C35.523 67.426 34.542 68.677 34.542 70.189C34.542 71.701 35.523 72.952 37.143 72.952C38.7 72.952 39.744 71.764 39.744 70.189C39.744 68.614 38.7 67.426 37.143 67.426ZM48.9784 65.653C51.0304 65.653 52.4794 67.066 52.4794 69.082V74.5H50.5894V69.703C50.5894 68.254 49.8424 67.444 48.5824 67.444C47.3674 67.444 46.3504 68.245 46.3504 69.721V74.5H44.4604V65.878H46.3324V66.931C47.0254 65.914 48.0964 65.653 48.9784 65.653ZM65.6399 65.878V67.588H62.6879V74.5H60.7979V67.588H59.0699V65.878H60.7979V64.42C60.7979 62.692 61.6709 61.315 63.6869 61.315C64.6949 61.315 65.4509 61.585 66.0899 61.963L65.4239 63.547C64.9829 63.295 64.3799 63.088 63.8129 63.088C63.0839 63.088 62.6879 63.565 62.6879 64.42V65.878H65.6399ZM71.107 65.653C73.519 65.653 75.175 67.489 75.184 70.18C75.184 70.423 75.166 70.666 75.148 70.882H68.776C69.028 72.43 70.117 73.078 71.341 73.078C72.205 73.078 73.123 72.736 73.834 72.169L74.77 73.51C73.717 74.41 72.529 74.725 71.224 74.725C68.641 74.725 66.814 72.925 66.814 70.189C66.814 67.489 68.569 65.653 71.107 65.653ZM71.071 67.327C69.73 67.327 68.983 68.191 68.785 69.451H73.258C73.051 68.11 72.268 67.327 71.071 67.327ZM81.1793 65.653C83.5913 65.653 85.2473 67.489 85.2563 70.18C85.2563 70.423 85.2383 70.666 85.2203 70.882H78.8483C79.1003 72.43 80.1893 73.078 81.4133 73.078C82.2773 73.078 83.1953 72.736 83.9063 72.169L84.8423 73.51C83.7893 74.41 82.6013 74.725 81.2963 74.725C78.7133 74.725 76.8863 72.925 76.8863 70.189C76.8863 67.489 78.6413 65.653 81.1793 65.653ZM81.1433 67.327C79.8023 67.327 79.0553 68.191 78.8573 69.451H83.3303C83.1233 68.11 82.3403 67.327 81.1433 67.327ZM94.3211 65.878V74.5H92.4311V65.878H94.3211ZM93.3671 61.567C94.1141 61.567 94.6991 62.152 94.6991 62.899C94.6991 63.646 94.1141 64.213 93.3671 64.213C92.6201 64.213 92.0531 63.646 92.0531 62.899C92.0531 62.152 92.6201 61.567 93.3671 61.567ZM101.783 65.653C103.835 65.653 105.284 67.066 105.284 69.082V74.5H103.394V69.703C103.394 68.254 102.647 67.444 101.387 67.444C100.172 67.444 99.1551 68.245 99.1551 69.721V74.5H97.2651V65.878H99.1371V66.931C99.8301 65.914 100.901 65.653 101.783 65.653ZM112.061 65.653C113.348 65.653 114.518 66.121 115.283 67.03L114.077 68.317C113.474 67.75 112.835 67.426 112.007 67.426C110.558 67.426 109.46 68.56 109.46 70.189C109.46 71.818 110.558 72.952 112.007 72.952C112.835 72.952 113.573 72.565 114.122 72.052L115.283 73.348C114.5 74.257 113.348 74.725 112.061 74.725C109.316 74.725 107.525 72.772 107.525 70.189C107.525 67.606 109.316 65.653 112.061 65.653ZM121.757 65.653C122.333 65.653 122.774 65.725 123.206 65.896L122.756 67.759C122.36 67.552 121.784 67.444 121.325 67.444C120.128 67.444 119.273 68.29 119.273 69.757V74.5H117.392V65.878H119.255V66.85C119.822 66.031 120.704 65.653 121.757 65.653ZM128.447 65.653C130.859 65.653 132.515 67.489 132.524 70.18C132.524 70.423 132.506 70.666 132.488 70.882H126.116C126.368 72.43 127.457 73.078 128.681 73.078C129.545 73.078 130.463 72.736 131.174 72.169L132.11 73.51C131.057 74.41 129.869 74.725 128.564 74.725C125.981 74.725 124.154 72.925 124.154 70.189C124.154 67.489 125.909 65.653 128.447 65.653ZM128.411 67.327C127.07 67.327 126.323 68.191 126.125 69.451H130.598C130.391 68.11 129.608 67.327 128.411 67.327ZM143.127 65.878V74.5H141.246V73.465C140.652 74.23 139.761 74.725 138.537 74.725C136.125 74.725 134.226 72.826 134.226 70.189C134.226 67.552 136.125 65.653 138.537 65.653C139.761 65.653 140.652 66.157 141.246 66.922V65.878H143.127ZM138.762 67.426C137.142 67.426 136.161 68.677 136.161 70.189C136.161 71.701 137.142 72.952 138.762 72.952C140.319 72.952 141.363 71.764 141.363 70.189C141.363 68.614 140.319 67.426 138.762 67.426ZM152.758 66.571L151.948 68.038C151.426 67.714 150.355 67.3 149.284 67.3C148.258 67.3 147.655 67.714 147.655 68.326C147.655 68.929 148.285 69.1 149.077 69.217L149.968 69.352C151.849 69.622 152.965 70.423 152.965 71.899C152.965 73.555 151.525 74.716 149.041 74.716C148.15 74.716 146.602 74.545 145.342 73.609L146.215 72.196C146.836 72.673 147.655 73.078 149.059 73.078C150.346 73.078 151.021 72.673 151.021 72.025C151.021 71.539 150.553 71.215 149.527 71.071L148.627 70.954C146.719 70.693 145.702 69.811 145.702 68.425C145.702 66.715 147.07 65.662 149.266 65.662C150.616 65.662 151.867 65.995 152.758 66.571ZM158.857 65.653C161.269 65.653 162.925 67.489 162.934 70.18C162.934 70.423 162.916 70.666 162.898 70.882H156.526C156.778 72.43 157.867 73.078 159.091 73.078C159.955 73.078 160.873 72.736 161.584 72.169L162.52 73.51C161.467 74.41 160.279 74.725 158.974 74.725C156.391 74.725 154.564 72.925 154.564 70.189C154.564 67.489 156.319 65.653 158.857 65.653ZM158.821 67.327C157.48 67.327 156.733 68.191 156.535 69.451H161.008C160.801 68.11 160.018 67.327 158.821 67.327ZM171.935 66.571L171.125 68.038C170.603 67.714 169.532 67.3 168.461 67.3C167.435 67.3 166.832 67.714 166.832 68.326C166.832 68.929 167.462 69.1 168.254 69.217L169.145 69.352C171.026 69.622 172.142 70.423 172.142 71.899C172.142 73.555 170.702 74.716 168.218 74.716C167.327 74.716 165.779 74.545 164.519 73.609L165.392 72.196C166.013 72.673 166.832 73.078 168.236 73.078C169.523 73.078 170.198 72.673 170.198 72.025C170.198 71.539 169.73 71.215 168.704 71.071L167.804 70.954C165.896 70.693 164.879 69.811 164.879 68.425C164.879 66.715 166.247 65.662 168.443 65.662C169.793 65.662 171.044 65.995 171.935 66.571ZM184.661 65.878V67.588H181.709V74.5H179.819V67.588H178.091V65.878H179.819V64.42C179.819 62.692 180.692 61.315 182.708 61.315C183.716 61.315 184.472 61.585 185.111 61.963L184.445 63.547C184.004 63.295 183.401 63.088 182.834 63.088C182.105 63.088 181.709 63.565 181.709 64.42V65.878H184.661ZM190.909 65.653C191.485 65.653 191.926 65.725 192.358 65.896L191.908 67.759C191.512 67.552 190.936 67.444 190.477 67.444C189.28 67.444 188.425 68.29 188.425 69.757V74.5H186.544V65.878H188.407V66.85C188.974 66.031 189.856 65.653 190.909 65.653ZM197.941 65.653C200.605 65.653 202.585 67.606 202.585 70.189C202.585 72.772 200.605 74.725 197.941 74.725C195.277 74.725 193.306 72.772 193.306 70.189C193.306 67.606 195.277 65.653 197.941 65.653ZM197.941 67.426C196.402 67.426 195.241 68.56 195.241 70.189C195.241 71.818 196.402 72.952 197.941 72.952C199.48 72.952 200.65 71.818 200.65 70.189C200.65 68.56 199.48 67.426 197.941 67.426ZM215.561 65.653C217.613 65.653 219.062 67.066 219.062 69.082V74.5H217.172V69.703C217.172 68.254 216.425 67.444 215.165 67.444C213.95 67.444 212.933 68.245 212.933 69.721V74.5H211.043V69.703C211.043 68.254 210.296 67.444 209.036 67.444C207.821 67.444 206.804 68.245 206.804 69.721V74.5H204.914V65.878H206.786V66.931C207.479 65.914 208.55 65.653 209.432 65.653C210.746 65.653 211.817 66.238 212.411 67.192C213.158 65.959 214.49 65.653 215.561 65.653ZM237.428 65.653C239.48 65.653 240.929 67.066 240.929 69.082V74.5H239.039V69.703C239.039 68.254 238.292 67.444 237.032 67.444C235.817 67.444 234.8 68.245 234.8 69.721V74.5H232.91V69.703C232.91 68.254 232.163 67.444 230.903 67.444C229.688 67.444 228.671 68.245 228.671 69.721V74.5H226.781V65.878H228.653V66.931C229.346 65.914 230.417 65.653 231.299 65.653C232.613 65.653 233.684 66.238 234.278 67.192C235.025 65.959 236.357 65.653 237.428 65.653ZM247.81 65.653C250.474 65.653 252.454 67.606 252.454 70.189C252.454 72.772 250.474 74.725 247.81 74.725C245.146 74.725 243.175 72.772 243.175 70.189C243.175 67.606 245.146 65.653 247.81 65.653ZM247.81 67.426C246.271 67.426 245.11 68.56 245.11 70.189C245.11 71.818 246.271 72.952 247.81 72.952C249.349 72.952 250.519 71.818 250.519 70.189C250.519 68.56 249.349 67.426 247.81 67.426ZM259.301 65.653C261.353 65.653 262.802 67.066 262.802 69.082V74.5H260.912V69.703C260.912 68.254 260.165 67.444 258.905 67.444C257.69 67.444 256.673 68.245 256.673 69.721V74.5H254.783V65.878H256.655V66.931C257.348 65.914 258.419 65.653 259.301 65.653ZM271.453 65.878V67.588H268.15V71.341C268.15 72.502 268.762 72.952 269.518 72.952C270.103 72.952 270.742 72.691 271.255 72.367L272.002 73.87C271.309 74.338 270.436 74.725 269.356 74.725C267.403 74.725 266.26 73.672 266.26 71.377V67.588H264.541V65.878H266.26V63.268H268.15V65.878H271.453ZM275.639 61.54V66.904C276.332 65.914 277.394 65.653 278.267 65.653C280.319 65.653 281.768 67.066 281.768 69.082V74.5H279.878V69.703C279.878 68.254 279.131 67.444 277.871 67.444C276.656 67.444 275.639 68.245 275.639 69.721V74.5H273.749V61.54H275.639ZM293.712 61.702V74.5H291.759V64.537L288.555 65.914V63.88L293.712 61.702ZM300.229 61.684C302.794 61.684 304.513 63.115 304.513 65.284C304.513 66.625 303.757 67.606 302.596 68.146C303.919 68.668 304.801 69.694 304.801 71.071C304.801 73.528 302.632 74.716 300.346 74.716C298.474 74.716 296.935 74.05 296.008 72.916L297.259 71.611C298.006 72.421 299.158 72.898 300.301 72.898C301.678 72.898 302.758 72.277 302.758 70.981C302.758 69.712 301.534 69.046 300.031 69.046H298.51V67.255H300.022C301.381 67.255 302.479 66.643 302.479 65.383C302.479 64.177 301.408 63.502 300.103 63.502C298.924 63.502 298.042 64.159 297.556 64.861L296.152 63.664C296.872 62.539 298.249 61.684 300.229 61.684ZM317.841 65.878V67.588H314.538V71.341C314.538 72.502 315.15 72.952 315.906 72.952C316.491 72.952 317.13 72.691 317.643 72.367L318.39 73.87C317.697 74.338 316.824 74.725 315.744 74.725C313.791 74.725 312.648 73.672 312.648 71.377V67.588H310.929V65.878H312.648V63.268H314.538V65.878H317.841ZM324.152 65.653C326.816 65.653 328.796 67.606 328.796 70.189C328.796 72.772 326.816 74.725 324.152 74.725C321.488 74.725 319.517 72.772 319.517 70.189C319.517 67.606 321.488 65.653 324.152 65.653ZM324.152 67.426C322.613 67.426 321.452 68.56 321.452 70.189C321.452 71.818 322.613 72.952 324.152 72.952C325.691 72.952 326.861 71.818 326.861 70.189C326.861 68.56 325.691 67.426 324.152 67.426ZM340.098 60.361H341.844V62.062C343.338 62.188 344.544 62.665 345.624 63.367L344.634 64.951C343.806 64.42 342.861 64.042 341.844 63.916V67.372C343.887 67.66 345.759 68.524 345.714 70.684C345.678 72.781 343.995 74.023 341.853 74.32V76.129H340.107V74.356C338.577 74.23 336.939 73.69 335.859 72.79L336.912 71.233C337.632 71.845 338.856 72.358 340.098 72.502V69.055L339.936 69.028C337.992 68.749 336.219 67.876 336.255 65.671C336.282 63.628 337.929 62.368 340.098 62.089V60.361ZM343.743 70.783C343.752 70.027 343.05 69.586 341.844 69.316V72.457C342.96 72.25 343.725 71.674 343.743 70.783ZM338.244 65.617C338.235 66.436 338.856 66.859 340.098 67.111V63.952C338.973 64.159 338.262 64.762 338.244 65.617ZM354.907 61.9L351.703 66.472C351.937 66.409 352.252 66.346 352.675 66.346C354.979 66.346 356.905 68.137 356.905 70.531C356.905 72.925 354.952 74.716 352.333 74.716C349.723 74.716 347.761 72.925 347.761 70.531C347.761 69.424 348.157 68.452 348.895 67.354L352.522 61.9H354.907ZM352.333 68.155C350.884 68.155 349.777 69.127 349.777 70.531C349.777 71.944 350.884 72.907 352.333 72.907C353.791 72.907 354.889 71.935 354.889 70.531C354.889 69.127 353.791 68.155 352.333 68.155ZM366.48 61.9V63.745H361.215L361.152 66.787H362.808C365.76 66.787 367.128 68.596 367.128 70.567C367.128 73.294 365.067 74.725 362.709 74.725C360.882 74.725 359.406 74.041 358.326 72.709L359.622 71.44C360.369 72.322 361.575 72.862 362.7 72.862C364.329 72.862 365.094 71.818 365.094 70.738C365.094 69.649 364.455 68.632 362.205 68.632H359.307L359.424 61.9H366.48ZM377.559 60.64L369.918 76.3H367.839L375.48 60.64H377.559ZM388.23 65.653C390.282 65.653 391.731 67.066 391.731 69.082V74.5H389.841V69.703C389.841 68.254 389.094 67.444 387.834 67.444C386.619 67.444 385.602 68.245 385.602 69.721V74.5H383.712V69.703C383.712 68.254 382.965 67.444 381.705 67.444C380.49 67.444 379.473 68.245 379.473 69.721V74.5H377.583V65.878H379.455V66.931C380.148 65.914 381.219 65.653 382.101 65.653C383.415 65.653 384.486 66.238 385.08 67.192C385.827 65.959 387.159 65.653 388.23 65.653ZM398.613 65.653C401.277 65.653 403.257 67.606 403.257 70.189C403.257 72.772 401.277 74.725 398.613 74.725C395.949 74.725 393.978 72.772 393.978 70.189C393.978 67.606 395.949 65.653 398.613 65.653ZM398.613 67.426C397.074 67.426 395.913 68.56 395.913 70.189C395.913 71.818 397.074 72.952 398.613 72.952C400.152 72.952 401.322 71.818 401.322 70.189C401.322 68.56 400.152 67.426 398.613 67.426ZM410.103 65.653C412.155 65.653 413.604 67.066 413.604 69.082V74.5H411.714V69.703C411.714 68.254 410.967 67.444 409.707 67.444C408.492 67.444 407.475 68.245 407.475 69.721V74.5H405.585V65.878H407.457V66.931C408.15 65.914 409.221 65.653 410.103 65.653ZM422.255 65.878V67.588H418.952V71.341C418.952 72.502 419.564 72.952 420.32 72.952C420.905 72.952 421.544 72.691 422.057 72.367L422.804 73.87C422.111 74.338 421.238 74.725 420.158 74.725C418.205 74.725 417.062 73.672 417.062 71.377V67.588H415.343V65.878H417.062V63.268H418.952V65.878H422.255ZM426.442 61.54V66.904C427.135 65.914 428.197 65.653 429.07 65.653C431.122 65.653 432.571 67.066 432.571 69.082V74.5H430.681V69.703C430.681 68.254 429.934 67.444 428.674 67.444C427.459 67.444 426.442 68.245 426.442 69.721V74.5H424.552V61.54H426.442ZM20.49 86.653C23.154 86.653 25.134 88.606 25.134 91.189C25.134 93.772 23.154 95.725 20.49 95.725C17.826 95.725 15.855 93.772 15.855 91.189C15.855 88.606 17.826 86.653 20.49 86.653ZM20.49 88.426C18.951 88.426 17.79 89.56 17.79 91.189C17.79 92.818 18.951 93.952 20.49 93.952C22.029 93.952 23.199 92.818 23.199 91.189C23.199 89.56 22.029 88.426 20.49 88.426ZM31.8273 86.653C32.4033 86.653 32.8443 86.725 33.2763 86.896L32.8263 88.759C32.4303 88.552 31.8543 88.444 31.3953 88.444C30.1983 88.444 29.3433 89.29 29.3433 90.757V95.5H27.4623V86.878H29.3253V87.85C29.8923 87.031 30.7743 86.653 31.8273 86.653ZM48.1525 86.878V95.5H46.2715V94.465C45.6775 95.23 44.7865 95.725 43.5625 95.725C41.1505 95.725 39.2515 93.826 39.2515 91.189C39.2515 88.552 41.1505 86.653 43.5625 86.653C44.7865 86.653 45.6775 87.157 46.2715 87.922V86.878H48.1525ZM43.7875 88.426C42.1675 88.426 41.1865 89.677 41.1865 91.189C41.1865 92.701 42.1675 93.952 43.7875 93.952C45.3445 93.952 46.3885 92.764 46.3885 91.189C46.3885 89.614 45.3445 88.426 43.7875 88.426ZM57.7829 87.571L56.9729 89.038C56.4509 88.714 55.3799 88.3 54.3089 88.3C53.2829 88.3 52.6799 88.714 52.6799 89.326C52.6799 89.929 53.3099 90.1 54.1019 90.217L54.9929 90.352C56.8739 90.622 57.9899 91.423 57.9899 92.899C57.9899 94.555 56.5499 95.716 54.0659 95.716C53.1749 95.716 51.6269 95.545 50.3669 94.609L51.2399 93.196C51.8609 93.673 52.6799 94.078 54.0839 94.078C55.3709 94.078 56.0459 93.673 56.0459 93.025C56.0459 92.539 55.5779 92.215 54.5519 92.071L53.6519 91.954C51.7439 91.693 50.7269 90.811 50.7269 89.425C50.7269 87.715 52.0949 86.662 54.2909 86.662C55.6409 86.662 56.8919 86.995 57.7829 87.571ZM69.0759 86.653C71.7399 86.653 73.7199 88.606 73.7199 91.189C73.7199 93.772 71.7399 95.725 69.0759 95.725C66.4119 95.725 64.4409 93.772 64.4409 91.189C64.4409 88.606 66.4119 86.653 69.0759 86.653ZM69.0759 88.426C67.5369 88.426 66.3759 89.56 66.3759 91.189C66.3759 92.818 67.5369 93.952 69.0759 93.952C70.6149 93.952 71.7849 92.818 71.7849 91.189C71.7849 89.56 70.6149 88.426 69.0759 88.426ZM81.8374 86.878V88.588H78.5344V92.341C78.5344 93.502 79.1464 93.952 79.9024 93.952C80.4874 93.952 81.1264 93.691 81.6394 93.367L82.3864 94.87C81.6934 95.338 80.8204 95.725 79.7404 95.725C77.7874 95.725 76.6444 94.672 76.6444 92.377V88.588H74.9254V86.878H76.6444V84.268H78.5344V86.878H81.8374ZM86.0242 82.54V87.904C86.7172 86.914 87.7792 86.653 88.6522 86.653C90.7042 86.653 92.1532 88.066 92.1532 90.082V95.5H90.2632V90.703C90.2632 89.254 89.5162 88.444 88.2562 88.444C87.0412 88.444 86.0242 89.245 86.0242 90.721V95.5H84.1342V82.54H86.0242ZM98.6871 86.653C101.099 86.653 102.755 88.489 102.764 91.18C102.764 91.423 102.746 91.666 102.728 91.882H96.3561C96.6081 93.43 97.6971 94.078 98.9211 94.078C99.7851 94.078 100.703 93.736 101.414 93.169L102.35 94.51C101.297 95.41 100.109 95.725 98.8041 95.725C96.2211 95.725 94.3941 93.925 94.3941 91.189C94.3941 88.489 96.1491 86.653 98.6871 86.653ZM98.6511 88.327C97.3101 88.327 96.5631 89.191 96.3651 90.451H100.838C100.631 89.11 99.8481 88.327 98.6511 88.327ZM109.452 86.653C110.028 86.653 110.469 86.725 110.901 86.896L110.451 88.759C110.055 88.552 109.479 88.444 109.02 88.444C107.823 88.444 106.968 89.29 106.968 90.757V95.5H105.087V86.878H106.95V87.85C107.517 87.031 108.399 86.653 109.452 86.653ZM120.213 86.878L122.364 93.466L124.398 86.878H126.36L123.507 95.5H121.257L119.124 89.002L116.991 95.5H114.777L111.924 86.878H113.931L115.956 93.43L118.08 86.878H120.213ZM130.04 86.878V95.5H128.15V86.878H130.04ZM129.086 82.567C129.833 82.567 130.418 83.152 130.418 83.899C130.418 84.646 129.833 85.213 129.086 85.213C128.339 85.213 127.772 84.646 127.772 83.899C127.772 83.152 128.339 82.567 129.086 82.567ZM139.662 87.571L138.852 89.038C138.33 88.714 137.259 88.3 136.188 88.3C135.162 88.3 134.559 88.714 134.559 89.326C134.559 89.929 135.189 90.1 135.981 90.217L136.872 90.352C138.753 90.622 139.869 91.423 139.869 92.899C139.869 94.555 138.429 95.716 135.945 95.716C135.054 95.716 133.506 95.545 132.246 94.609L133.119 93.196C133.74 93.673 134.559 94.078 135.963 94.078C137.25 94.078 137.925 93.673 137.925 93.025C137.925 92.539 137.457 92.215 136.431 92.071L135.531 91.954C133.623 91.693 132.606 90.811 132.606 89.425C132.606 87.715 133.974 86.662 136.17 86.662C137.52 86.662 138.771 86.995 139.662 87.571ZM145.761 86.653C148.173 86.653 149.829 88.489 149.838 91.18C149.838 91.423 149.82 91.666 149.802 91.882H143.43C143.682 93.43 144.771 94.078 145.995 94.078C146.859 94.078 147.777 93.736 148.488 93.169L149.424 94.51C148.371 95.41 147.183 95.725 145.878 95.725C143.295 95.725 141.468 93.925 141.468 91.189C141.468 88.489 143.223 86.653 145.761 86.653ZM145.725 88.327C144.384 88.327 143.637 89.191 143.439 90.451H147.912C147.705 89.11 146.922 88.327 145.725 88.327ZM161.531 86.653C163.583 86.653 165.032 88.066 165.032 90.082V95.5H163.142V90.703C163.142 89.254 162.395 88.444 161.135 88.444C159.92 88.444 158.903 89.245 158.903 90.721V95.5H157.013V86.878H158.885V87.931C159.578 86.914 160.649 86.653 161.531 86.653ZM171.908 86.653C174.572 86.653 176.552 88.606 176.552 91.189C176.552 93.772 174.572 95.725 171.908 95.725C169.244 95.725 167.273 93.772 167.273 91.189C167.273 88.606 169.244 86.653 171.908 86.653ZM171.908 88.426C170.369 88.426 169.208 89.56 169.208 91.189C169.208 92.818 170.369 93.952 171.908 93.952C173.447 93.952 174.617 92.818 174.617 91.189C174.617 89.56 173.447 88.426 171.908 88.426ZM184.669 86.878V88.588H181.366V92.341C181.366 93.502 181.978 93.952 182.734 93.952C183.319 93.952 183.958 93.691 184.471 93.367L185.218 94.87C184.525 95.338 183.652 95.725 182.572 95.725C180.619 95.725 179.476 94.672 179.476 92.377V88.588H177.757V86.878H179.476V84.268H181.366V86.878H184.669ZM188.856 86.878V95.5H186.966V86.878H188.856ZM187.902 82.567C188.649 82.567 189.234 83.152 189.234 83.899C189.234 84.646 188.649 85.213 187.902 85.213C187.155 85.213 186.588 84.646 186.588 83.899C186.588 83.152 187.155 82.567 187.902 82.567ZM197.335 86.878V88.588H194.383V95.5H192.493V88.588H190.765V86.878H192.493V85.42C192.493 83.692 193.366 82.315 195.382 82.315C196.39 82.315 197.146 82.585 197.785 82.963L197.119 84.547C196.678 84.295 196.075 84.088 195.508 84.088C194.779 84.088 194.383 84.565 194.383 85.42V86.878H197.335ZM201.284 86.878V95.5H199.394V86.878H201.284ZM200.33 82.567C201.077 82.567 201.662 83.152 201.662 83.899C201.662 84.646 201.077 85.213 200.33 85.213C199.583 85.213 199.016 84.646 199.016 83.899C199.016 83.152 199.583 82.567 200.33 82.567ZM207.9 86.653C210.312 86.653 211.968 88.489 211.977 91.18C211.977 91.423 211.959 91.666 211.941 91.882H205.569C205.821 93.43 206.91 94.078 208.134 94.078C208.998 94.078 209.916 93.736 210.627 93.169L211.563 94.51C210.51 95.41 209.322 95.725 208.017 95.725C205.434 95.725 203.607 93.925 203.607 91.189C203.607 88.489 205.362 86.653 207.9 86.653ZM207.864 88.327C206.523 88.327 205.776 89.191 205.578 90.451H210.051C209.844 89.11 209.061 88.327 207.864 88.327ZM217.99 86.653C219.214 86.653 220.105 87.157 220.699 87.922V82.54H222.58V95.5H220.699V94.465C220.105 95.23 219.214 95.725 217.99 95.725C215.578 95.725 213.679 93.826 213.679 91.189C213.679 88.552 215.578 86.653 217.99 86.653ZM218.215 88.426C216.595 88.426 215.614 89.677 215.614 91.189C215.614 92.701 216.595 93.952 218.215 93.952C219.772 93.952 220.816 92.764 220.816 91.189C220.816 89.614 219.772 88.426 218.215 88.426ZM226.442 92.575C227.279 92.575 228.008 93.295 228.008 94.141C228.008 94.987 227.279 95.725 226.442 95.725C225.605 95.725 224.867 94.987 224.867 94.141C224.867 93.295 225.605 92.575 226.442 92.575ZM246.29 82.9V95.5H244.454L237.425 86.383L237.416 95.5H235.382V82.9H237.218L244.256 92.017V82.9H246.29ZM253.146 86.653C255.558 86.653 257.214 88.489 257.223 91.18C257.223 91.423 257.205 91.666 257.187 91.882H250.815C251.067 93.43 252.156 94.078 253.38 94.078C254.244 94.078 255.162 93.736 255.873 93.169L256.809 94.51C255.756 95.41 254.568 95.725 253.263 95.725C250.68 95.725 248.853 93.925 248.853 91.189C248.853 88.489 250.608 86.653 253.146 86.653ZM253.11 88.327C251.769 88.327 251.022 89.191 250.824 90.451H255.297C255.09 89.11 254.307 88.327 253.11 88.327ZM266.674 86.878L268.825 93.466L270.859 86.878H272.821L269.968 95.5H267.718L265.585 89.002L263.452 95.5H261.238L258.385 86.878H260.392L262.417 93.43L264.541 86.878H266.674ZM286.052 87.571L285.242 89.038C284.72 88.714 283.649 88.3 282.578 88.3C281.552 88.3 280.949 88.714 280.949 89.326C280.949 89.929 281.579 90.1 282.371 90.217L283.262 90.352C285.143 90.622 286.259 91.423 286.259 92.899C286.259 94.555 284.819 95.716 282.335 95.716C281.444 95.716 279.896 95.545 278.636 94.609L279.509 93.196C280.13 93.673 280.949 94.078 282.353 94.078C283.64 94.078 284.315 93.673 284.315 93.025C284.315 92.539 283.847 92.215 282.821 92.071L281.921 91.954C280.013 91.693 278.996 90.811 278.996 89.425C278.996 87.715 280.364 86.662 282.56 86.662C283.91 86.662 285.161 86.995 286.052 87.571ZM292.152 86.653C294.564 86.653 296.22 88.489 296.229 91.18C296.229 91.423 296.211 91.666 296.193 91.882H289.821C290.073 93.43 291.162 94.078 292.386 94.078C293.25 94.078 294.168 93.736 294.879 93.169L295.815 94.51C294.762 95.41 293.574 95.725 292.269 95.725C289.686 95.725 287.859 93.925 287.859 91.189C287.859 88.489 289.614 86.653 292.152 86.653ZM292.116 88.327C290.775 88.327 290.028 89.191 289.83 90.451H294.303C294.096 89.11 293.313 88.327 292.116 88.327ZM302.917 86.653C303.493 86.653 303.934 86.725 304.366 86.896L303.916 88.759C303.52 88.552 302.944 88.444 302.485 88.444C301.288 88.444 300.433 89.29 300.433 90.757V95.5H298.552V86.878H300.415V87.85C300.982 87.031 301.864 86.653 302.917 86.653ZM314.513 86.878L311.066 95.5H308.834L305.369 86.878H307.421L309.968 93.547L312.515 86.878H314.513ZM318.091 86.878V95.5H316.201V86.878H318.091ZM317.137 82.567C317.884 82.567 318.469 83.152 318.469 83.899C318.469 84.646 317.884 85.213 317.137 85.213C316.39 85.213 315.823 84.646 315.823 83.899C315.823 83.152 316.39 82.567 317.137 82.567ZM324.95 86.653C326.237 86.653 327.407 87.121 328.172 88.03L326.966 89.317C326.363 88.75 325.724 88.426 324.896 88.426C323.447 88.426 322.349 89.56 322.349 91.189C322.349 92.818 323.447 93.952 324.896 93.952C325.724 93.952 326.462 93.565 327.011 93.052L328.172 94.348C327.389 95.257 326.237 95.725 324.95 95.725C322.205 95.725 320.414 93.772 320.414 91.189C320.414 88.606 322.205 86.653 324.95 86.653ZM333.777 86.653C336.189 86.653 337.845 88.489 337.854 91.18C337.854 91.423 337.836 91.666 337.818 91.882H331.446C331.698 93.43 332.787 94.078 334.011 94.078C334.875 94.078 335.793 93.736 336.504 93.169L337.44 94.51C336.387 95.41 335.199 95.725 333.894 95.725C331.311 95.725 329.484 93.925 329.484 91.189C329.484 88.489 331.239 86.653 333.777 86.653ZM333.741 88.327C332.4 88.327 331.653 89.191 331.455 90.451H335.928C335.721 89.11 334.938 88.327 333.741 88.327ZM346.855 87.571L346.045 89.038C345.523 88.714 344.452 88.3 343.381 88.3C342.355 88.3 341.752 88.714 341.752 89.326C341.752 89.929 342.382 90.1 343.174 90.217L344.065 90.352C345.946 90.622 347.062 91.423 347.062 92.899C347.062 94.555 345.622 95.716 343.138 95.716C342.247 95.716 340.699 95.545 339.439 94.609L340.312 93.196C340.933 93.673 341.752 94.078 343.156 94.078C344.443 94.078 345.118 93.673 345.118 93.025C345.118 92.539 344.65 92.215 343.624 92.071L342.724 91.954C340.816 91.693 339.799 90.811 339.799 89.425C339.799 87.715 341.167 86.662 343.363 86.662C344.713 86.662 345.964 86.995 346.855 87.571ZM358.148 86.653C360.812 86.653 362.792 88.606 362.792 91.189C362.792 93.772 360.812 95.725 358.148 95.725C355.484 95.725 353.513 93.772 353.513 91.189C353.513 88.606 355.484 86.653 358.148 86.653ZM358.148 88.426C356.609 88.426 355.448 89.56 355.448 91.189C355.448 92.818 356.609 93.952 358.148 93.952C359.687 93.952 360.857 92.818 360.857 91.189C360.857 89.56 359.687 88.426 358.148 88.426ZM369.639 86.653C371.691 86.653 373.14 88.066 373.14 90.082V95.5H371.25V90.703C371.25 89.254 370.503 88.444 369.243 88.444C368.028 88.444 367.011 89.245 367.011 90.721V95.5H365.121V86.878H366.993V87.931C367.686 86.914 368.757 86.653 369.639 86.653ZM377.891 82.54V95.5H376.001V82.54H377.891ZM389.133 86.878L382.329 99.154H380.241L383.328 93.727L379.503 86.878H381.618L384.39 91.828L387.063 86.878H389.133ZM390.358 92.575C391.195 92.575 391.924 93.295 391.924 94.141C391.924 94.987 391.195 95.725 390.358 95.725C389.521 95.725 388.783 94.987 388.783 94.141C388.783 93.295 389.521 92.575 390.358 92.575ZM22.623 103.666C26.493 103.666 29.22 106.438 29.22 110.2C29.22 113.962 26.493 116.734 22.623 116.734C18.753 116.734 16.026 113.962 16.026 110.2C16.026 106.438 18.753 103.666 22.623 103.666ZM22.623 105.619C20.049 105.619 18.159 107.482 18.159 110.2C18.159 112.918 20.049 114.781 22.623 114.781C25.197 114.781 27.087 112.918 27.087 110.2C27.087 107.482 25.197 105.619 22.623 105.619ZM37.2512 107.878V109.588H34.2992V116.5H32.4092V109.588H30.6812V107.878H32.4092V106.42C32.4092 104.692 33.2822 103.315 35.2982 103.315C36.3062 103.315 37.0622 103.585 37.7012 103.963L37.0352 105.547C36.5942 105.295 35.9912 105.088 35.4242 105.088C34.6952 105.088 34.2992 105.565 34.2992 106.42V107.878H37.2512ZM44.6692 107.878V109.588H41.7172V116.5H39.8272V109.588H38.0992V107.878H39.8272V106.42C39.8272 104.692 40.7002 103.315 42.7162 103.315C43.7242 103.315 44.4802 103.585 45.1192 103.963L44.4532 105.547C44.0122 105.295 43.4092 105.088 42.8422 105.088C42.1132 105.088 41.7172 105.565 41.7172 106.42V107.878H44.6692ZM50.1363 107.653C52.5483 107.653 54.2043 109.489 54.2133 112.18C54.2133 112.423 54.1953 112.666 54.1773 112.882H47.8053C48.0573 114.43 49.1463 115.078 50.3703 115.078C51.2343 115.078 52.1523 114.736 52.8633 114.169L53.7993 115.51C52.7463 116.41 51.5583 116.725 50.2533 116.725C47.6703 116.725 45.8433 114.925 45.8433 112.189C45.8433 109.489 47.5983 107.653 50.1363 107.653ZM50.1003 109.327C48.7593 109.327 48.0123 110.191 47.8143 111.451H52.2873C52.0803 110.11 51.2973 109.327 50.1003 109.327ZM60.9015 107.653C61.4775 107.653 61.9185 107.725 62.3505 107.896L61.9005 109.759C61.5045 109.552 60.9285 109.444 60.4695 109.444C59.2725 109.444 58.4175 110.29 58.4175 111.757V116.5H56.5365V107.878H58.3995V108.85C58.9665 108.031 59.8485 107.653 60.9015 107.653ZM74.3938 107.878V109.588H71.4418V116.5H69.5518V109.588H67.8238V107.878H69.5518V106.42C69.5518 104.692 70.4248 103.315 72.4408 103.315C73.4488 103.315 74.2048 103.585 74.8438 103.963L74.1778 105.547C73.7368 105.295 73.1338 105.088 72.5668 105.088C71.8378 105.088 71.4418 105.565 71.4418 106.42V107.878H74.3938ZM80.2029 107.653C82.8669 107.653 84.8469 109.606 84.8469 112.189C84.8469 114.772 82.8669 116.725 80.2029 116.725C77.5389 116.725 75.5679 114.772 75.5679 112.189C75.5679 109.606 77.5389 107.653 80.2029 107.653ZM80.2029 109.426C78.6639 109.426 77.5029 110.56 77.5029 112.189C77.5029 113.818 78.6639 114.952 80.2029 114.952C81.7419 114.952 82.9119 113.818 82.9119 112.189C82.9119 110.56 81.7419 109.426 80.2029 109.426ZM91.5402 107.653C92.1162 107.653 92.5572 107.725 92.9892 107.896L92.5392 109.759C92.1432 109.552 91.5672 109.444 91.1082 109.444C89.9112 109.444 89.0562 110.29 89.0562 111.757V116.5H87.1752V107.878H89.0382V108.85C89.6052 108.031 90.4872 107.653 91.5402 107.653ZM100.62 107.878V109.588H97.6684V116.5H95.7784V109.588H94.0504V107.878H95.7784V106.42C95.7784 104.692 96.6514 103.315 98.6674 103.315C99.6754 103.315 100.431 103.585 101.07 103.963L100.404 105.547C99.9634 105.295 99.3604 105.088 98.7934 105.088C98.0644 105.088 97.6684 105.565 97.6684 106.42V107.878H100.62ZM106.087 107.653C108.499 107.653 110.155 109.489 110.164 112.18C110.164 112.423 110.146 112.666 110.128 112.882H103.756C104.008 114.43 105.097 115.078 106.321 115.078C107.185 115.078 108.103 114.736 108.814 114.169L109.75 115.51C108.697 116.41 107.509 116.725 106.204 116.725C103.621 116.725 101.794 114.925 101.794 112.189C101.794 109.489 103.549 107.653 106.087 107.653ZM106.051 109.327C104.71 109.327 103.963 110.191 103.765 111.451H108.238C108.031 110.11 107.248 109.327 106.051 109.327ZM114.378 107.878V116.5H112.488V107.878H114.378ZM113.424 103.567C114.171 103.567 114.756 104.152 114.756 104.899C114.756 105.646 114.171 106.213 113.424 106.213C112.677 106.213 112.11 105.646 112.11 104.899C112.11 104.152 112.677 103.567 113.424 103.567ZM123.199 107.878V109.588H119.896V113.341C119.896 114.502 120.508 114.952 121.264 114.952C121.849 114.952 122.488 114.691 123.001 114.367L123.748 115.87C123.055 116.338 122.182 116.725 121.102 116.725C119.149 116.725 118.006 115.672 118.006 113.377V109.588H116.287V107.878H118.006V105.268H119.896V107.878H123.199ZM129.168 107.653C131.58 107.653 133.236 109.489 133.245 112.18C133.245 112.423 133.227 112.666 133.209 112.882H126.837C127.089 114.43 128.178 115.078 129.402 115.078C130.266 115.078 131.184 114.736 131.895 114.169L132.831 115.51C131.778 116.41 130.59 116.725 129.285 116.725C126.702 116.725 124.875 114.925 124.875 112.189C124.875 109.489 126.63 107.653 129.168 107.653ZM129.132 109.327C127.791 109.327 127.044 110.191 126.846 111.451H131.319C131.112 110.11 130.329 109.327 129.132 109.327ZM139.258 107.653C140.482 107.653 141.373 108.157 141.967 108.922V103.54H143.848V116.5H141.967V115.465C141.373 116.23 140.482 116.725 139.258 116.725C136.846 116.725 134.947 114.826 134.947 112.189C134.947 109.552 136.846 107.653 139.258 107.653ZM139.483 109.426C137.863 109.426 136.882 110.677 136.882 112.189C136.882 113.701 137.863 114.952 139.483 114.952C141.04 114.952 142.084 113.764 142.084 112.189C142.084 110.614 141.04 109.426 139.483 109.426ZM153.542 107.878V116.5H151.652V107.878H153.542ZM152.588 103.567C153.335 103.567 153.92 104.152 153.92 104.899C153.92 105.646 153.335 106.213 152.588 106.213C151.841 106.213 151.274 105.646 151.274 104.899C151.274 104.152 151.841 103.567 152.588 103.567ZM162.021 107.878V109.588H159.069V116.5H157.179V109.588H155.451V107.878H157.179V106.42C157.179 104.692 158.052 103.315 160.068 103.315C161.076 103.315 161.832 103.585 162.471 103.963L161.805 105.547C161.364 105.295 160.761 105.088 160.194 105.088C159.465 105.088 159.069 105.565 159.069 106.42V107.878H162.021ZM176.878 107.878L170.074 120.154H167.986L171.073 114.727L167.248 107.878H169.363L172.135 112.828L174.808 107.878H176.878ZM182.297 107.653C184.961 107.653 186.941 109.606 186.941 112.189C186.941 114.772 184.961 116.725 182.297 116.725C179.633 116.725 177.662 114.772 177.662 112.189C177.662 109.606 179.633 107.653 182.297 107.653ZM182.297 109.426C180.758 109.426 179.597 110.56 179.597 112.189C179.597 113.818 180.758 114.952 182.297 114.952C183.836 114.952 185.006 113.818 185.006 112.189C185.006 110.56 183.836 109.426 182.297 109.426ZM197.171 107.878V112.846C197.171 115.591 195.191 116.725 193.175 116.725C191.15 116.725 189.179 115.591 189.179 112.846V107.878H191.069V112.675C191.069 114.34 191.996 114.952 193.175 114.952C194.354 114.952 195.281 114.34 195.281 112.675V107.878H197.171ZM208.793 107.653C210.08 107.653 211.25 108.121 212.015 109.03L210.809 110.317C210.206 109.75 209.567 109.426 208.739 109.426C207.29 109.426 206.192 110.56 206.192 112.189C206.192 113.818 207.29 114.952 208.739 114.952C209.567 114.952 210.305 114.565 210.854 114.052L212.015 115.348C211.232 116.257 210.08 116.725 208.793 116.725C206.048 116.725 204.257 114.772 204.257 112.189C204.257 109.606 206.048 107.653 208.793 107.653ZM222.229 107.878V116.5H220.348V115.465C219.754 116.23 218.863 116.725 217.639 116.725C215.227 116.725 213.328 114.826 213.328 112.189C213.328 109.552 215.227 107.653 217.639 107.653C218.863 107.653 219.754 108.157 220.348 108.922V107.878H222.229ZM217.864 109.426C216.244 109.426 215.263 110.677 215.263 112.189C215.263 113.701 216.244 114.952 217.864 114.952C219.421 114.952 220.465 113.764 220.465 112.189C220.465 110.614 219.421 109.426 217.864 109.426ZM229.699 107.653C231.751 107.653 233.2 109.066 233.2 111.082V116.5H231.31V111.703C231.31 110.254 230.563 109.444 229.303 109.444C228.088 109.444 227.071 110.245 227.071 111.721V116.5H225.181V107.878H227.053V108.931C227.746 107.914 228.817 107.653 229.699 107.653ZM239.977 107.653C241.264 107.653 242.434 108.121 243.199 109.03L241.993 110.317C241.39 109.75 240.751 109.426 239.923 109.426C238.474 109.426 237.376 110.56 237.376 112.189C237.376 113.818 238.474 114.952 239.923 114.952C240.751 114.952 241.489 114.565 242.038 114.052L243.199 115.348C242.416 116.257 241.264 116.725 239.977 116.725C237.232 116.725 235.441 114.772 235.441 112.189C235.441 109.606 237.232 107.653 239.977 107.653ZM248.804 107.653C251.216 107.653 252.872 109.489 252.881 112.18C252.881 112.423 252.863 112.666 252.845 112.882H246.473C246.725 114.43 247.814 115.078 249.038 115.078C249.902 115.078 250.82 114.736 251.531 114.169L252.467 115.51C251.414 116.41 250.226 116.725 248.921 116.725C246.338 116.725 244.511 114.925 244.511 112.189C244.511 109.489 246.266 107.653 248.804 107.653ZM248.768 109.327C247.427 109.327 246.68 110.191 246.482 111.451H250.955C250.748 110.11 249.965 109.327 248.768 109.327ZM257.095 103.54V116.5H255.205V103.54H257.095ZM268.904 107.653C271.568 107.653 273.548 109.606 273.548 112.189C273.548 114.772 271.568 116.725 268.904 116.725C266.24 116.725 264.269 114.772 264.269 112.189C264.269 109.606 266.24 107.653 268.904 107.653ZM268.904 109.426C267.365 109.426 266.204 110.56 266.204 112.189C266.204 113.818 267.365 114.952 268.904 114.952C270.443 114.952 271.613 113.818 271.613 112.189C271.613 110.56 270.443 109.426 268.904 109.426ZM280.241 107.653C280.817 107.653 281.258 107.725 281.69 107.896L281.24 109.759C280.844 109.552 280.268 109.444 279.809 109.444C278.612 109.444 277.757 110.29 277.757 111.757V116.5H275.876V107.878H277.739V108.85C278.306 108.031 279.188 107.653 280.241 107.653ZM292.202 107.653C293.489 107.653 294.659 108.121 295.424 109.03L294.218 110.317C293.615 109.75 292.976 109.426 292.148 109.426C290.699 109.426 289.601 110.56 289.601 112.189C289.601 113.818 290.699 114.952 292.148 114.952C292.976 114.952 293.714 114.565 294.263 114.052L295.424 115.348C294.641 116.257 293.489 116.725 292.202 116.725C289.457 116.725 287.666 114.772 287.666 112.189C287.666 109.606 289.457 107.653 292.202 107.653ZM299.423 103.54V108.904C300.116 107.914 301.178 107.653 302.051 107.653C304.103 107.653 305.552 109.066 305.552 111.082V116.5H303.662V111.703C303.662 110.254 302.915 109.444 301.655 109.444C300.44 109.444 299.423 110.245 299.423 111.721V116.5H297.533V103.54H299.423ZM316.694 107.878V116.5H314.813V115.465C314.219 116.23 313.328 116.725 312.104 116.725C309.692 116.725 307.793 114.826 307.793 112.189C307.793 109.552 309.692 107.653 312.104 107.653C313.328 107.653 314.219 108.157 314.813 108.922V107.878H316.694ZM312.329 109.426C310.709 109.426 309.728 110.677 309.728 112.189C309.728 113.701 310.709 114.952 312.329 114.952C313.886 114.952 314.93 113.764 314.93 112.189C314.93 110.614 313.886 109.426 312.329 109.426ZM324.164 107.653C326.216 107.653 327.665 109.066 327.665 111.082V116.5H325.775V111.703C325.775 110.254 325.028 109.444 323.768 109.444C322.553 109.444 321.536 110.245 321.536 111.721V116.5H319.646V107.878H321.518V108.931C322.211 107.914 323.282 107.653 324.164 107.653ZM333.902 107.653C335.153 107.653 336.125 108.094 336.773 108.913V107.878H338.663V115.897C338.663 118.606 336.917 120.271 334.037 120.271C332.75 120.271 331.337 119.92 330.428 119.272L331.112 117.679C331.985 118.21 332.984 118.552 334.037 118.552C335.801 118.552 336.773 117.58 336.773 115.978V115.285C336.125 116.113 335.153 116.545 333.902 116.545C331.931 116.545 329.906 114.889 329.906 112.099C329.906 109.309 331.931 107.653 333.902 107.653ZM334.388 109.426C332.795 109.426 331.841 110.641 331.841 112.099C331.841 113.548 332.795 114.772 334.388 114.772C335.909 114.772 336.935 113.611 336.935 112.099C336.935 110.587 335.909 109.426 334.388 109.426ZM345.291 107.653C347.703 107.653 349.359 109.489 349.368 112.18C349.368 112.423 349.35 112.666 349.332 112.882H342.96C343.212 114.43 344.301 115.078 345.525 115.078C346.389 115.078 347.307 114.736 348.018 114.169L348.954 115.51C347.901 116.41 346.713 116.725 345.408 116.725C342.825 116.725 340.998 114.925 340.998 112.189C340.998 109.489 342.753 107.653 345.291 107.653ZM345.255 109.327C343.914 109.327 343.167 110.191 342.969 111.451H347.442C347.235 110.11 346.452 109.327 345.255 109.327ZM361.123 107.653C363.535 107.653 365.434 109.552 365.434 112.189C365.434 114.826 363.535 116.725 361.123 116.725C359.899 116.725 359.017 116.23 358.423 115.474V120.1H356.542V107.878H358.423V108.904C359.017 108.148 359.899 107.653 361.123 107.653ZM360.898 109.426C359.341 109.426 358.297 110.614 358.297 112.189C358.297 113.764 359.341 114.952 360.898 114.952C362.518 114.952 363.499 113.701 363.499 112.189C363.499 110.677 362.518 109.426 360.898 109.426ZM369.647 103.54V116.5H367.757V103.54H369.647ZM380.871 107.878V116.5H378.99V115.465C378.396 116.23 377.505 116.725 376.281 116.725C373.869 116.725 371.97 114.826 371.97 112.189C371.97 109.552 373.869 107.653 376.281 107.653C377.505 107.653 378.396 108.157 378.99 108.922V107.878H380.871ZM376.506 109.426C374.886 109.426 373.905 110.677 373.905 112.189C373.905 113.701 374.886 114.952 376.506 114.952C378.063 114.952 379.107 113.764 379.107 112.189C379.107 110.614 378.063 109.426 376.506 109.426ZM388.342 107.653C390.394 107.653 391.843 109.066 391.843 111.082V116.5H389.953V111.703C389.953 110.254 389.206 109.444 387.946 109.444C386.731 109.444 385.714 110.245 385.714 111.721V116.5H383.824V107.878H385.696V108.931C386.389 107.914 387.46 107.653 388.342 107.653ZM401.383 108.571L400.573 110.038C400.051 109.714 398.98 109.3 397.909 109.3C396.883 109.3 396.28 109.714 396.28 110.326C396.28 110.929 396.91 111.1 397.702 111.217L398.593 111.352C400.474 111.622 401.59 112.423 401.59 113.899C401.59 115.555 400.15 116.716 397.666 116.716C396.775 116.716 395.227 116.545 393.967 115.609L394.84 114.196C395.461 114.673 396.28 115.078 397.684 115.078C398.971 115.078 399.646 114.673 399.646 114.025C399.646 113.539 399.178 113.215 398.152 113.071L397.252 112.954C395.344 112.693 394.327 111.811 394.327 110.425C394.327 108.715 395.695 107.662 397.891 107.662C399.241 107.662 400.492 107.995 401.383 108.571ZM404.719 113.575C405.556 113.575 406.285 114.295 406.285 115.141C406.285 115.987 405.556 116.725 404.719 116.725C403.882 116.725 403.144 115.987 403.144 115.141C403.144 114.295 403.882 113.575 404.719 113.575Z" fill="black"/>
<path d="M428.493 23L435 29.5074L434.007 30.5L427.5 23.9926L420.993 30.5L420 29.6176L426.507 23.1103L420 16.4926L420.993 15.5L427.5 22.0074L434.007 15.5L435 16.4926L428.493 23Z" fill="black"/>
</g>
</g>
<defs>
<clipPath id="clip0_3031_4077">
<rect width="450" height="375" fill="white"/>
</clipPath>
<clipPath id="clip1_3031_4077">
<rect width="450" height="375" fill="white" transform="translate(0 0.5)"/>
</clipPath>
</defs>
</svg>
