<svg width="223" height="24" viewBox="0 0 223 24" fill="none" xmlns="http://www.w3.org/2000/svg">
<path d="M7.03105 22.5983V6.28657H0.5V1.34845H19.2011V6.28657H12.7338V22.5983H7.03105Z" fill="white"/>
<path d="M21.1111 22.5983V1.34845H26.7502V9.122H34.5874V1.34845H40.2264V22.5983H34.5874V14.2831H26.7502V22.5983H21.1111Z" fill="white"/>
<path d="M41.6195 22.5983L49.4249 1.34845H55.8922L63.4109 22.5983H57.3259L55.956 18.2018H48.8514L47.4497 22.5983H41.6195ZM49.9984 14.092H54.809L52.4515 6.28657L49.9984 14.092Z" fill="white"/>
<path d="M66.5659 22.5983V6.28657H60.0349V1.34845H78.736V6.28657H72.2686V22.5983H66.5659Z" fill="white"/>
<path d="M80.0726 9.24943L80.9009 1.34845H86.508L84.0549 9.24943H80.0726Z" fill="white"/>
<path d="M85.1038 19.9858L88.5126 15.8761C89.1073 16.4708 89.8826 17.0124 90.8383 17.5009C91.8153 17.9894 92.8667 18.2336 93.9924 18.2336C94.5658 18.2336 95.118 18.1168 95.649 17.8832C96.18 17.6495 96.4455 17.2035 96.4455 16.5451C96.4455 15.9929 96.1588 15.5362 95.5853 15.1752C95.0118 14.7929 94.1941 14.4318 93.1322 14.092L91.9534 13.7097C91.0826 13.4123 90.2118 13.0194 89.341 12.5309C88.4914 12.0211 87.7799 11.3734 87.2064 10.5875C86.6542 9.80165 86.3781 8.83527 86.3781 7.68835C86.3781 6.37152 86.6861 5.19275 87.302 4.15203C87.9392 3.11131 88.8737 2.2936 90.1056 1.6989C91.3375 1.08296 92.8348 0.774994 94.5977 0.774994C95.9995 0.774994 97.2101 0.934288 98.2296 1.25288C99.2703 1.57146 100.13 1.94315 100.81 2.36793C101.49 2.79272 101.989 3.17502 102.308 3.51485L99.4402 7.14675C98.6968 6.59453 97.9216 6.14851 97.1145 5.80868C96.3074 5.44762 95.4791 5.26708 94.6295 5.26708C94.0773 5.26708 93.5463 5.39452 93.0366 5.64939C92.5481 5.88302 92.3038 6.29719 92.3038 6.89188C92.3038 7.5503 92.6012 8.02818 93.1959 8.32553C93.7906 8.62288 94.5446 8.92023 95.4579 9.21757L96.4773 9.53616C97.1995 9.74856 97.9216 10.0247 98.6437 10.3645C99.3871 10.6831 100.067 11.0972 100.683 11.607C101.299 12.1167 101.787 12.7645 102.148 13.5504C102.531 14.315 102.722 15.2601 102.722 16.3858C102.722 17.6814 102.329 18.8389 101.543 19.8584C100.778 20.8779 99.7376 21.6744 98.4207 22.2478C97.1251 22.8213 95.6809 23.108 94.0879 23.108C91.964 23.108 90.1799 22.8213 88.7357 22.2478C87.3126 21.6744 86.102 20.9204 85.1038 19.9858Z" fill="white"/>
<path d="M107.666 22.633L115.508 1.28206H122.006L129.561 22.633H123.447L122.07 18.2155H114.932L113.523 22.633H107.666ZM116.084 14.0862H120.918L118.549 6.24366L116.084 14.0862Z" fill="#FFD000"/>
<path d="M137.725 22.633V1.28206H146.432C148.715 1.28206 150.55 1.89025 151.937 3.10665C153.324 4.3017 154.018 6.0516 154.018 8.35635C154.018 9.80748 153.698 11.0772 153.058 12.1656C152.417 13.2326 151.543 14.0649 150.433 14.6624C149.323 15.2386 148.043 15.5267 146.592 15.5267H143.263V22.633H137.725ZM143.263 11.0772H145.951C146.72 11.0772 147.328 10.8318 147.776 10.341C148.224 9.85016 148.448 9.22062 148.448 8.45238C148.448 7.64145 148.235 6.99057 147.808 6.49975C147.381 6.00892 146.752 5.76351 145.919 5.76351H143.263V11.0772Z" fill="#FFD000"/>
<path d="M155.864 22.633V1.28206H161.53V17.6393H171.421V22.633H155.864Z" fill="#FFD000"/>
<path d="M172.914 14.3103V1.28206H178.58V13.7981C178.58 14.9718 178.847 15.9321 179.38 16.679C179.935 17.4259 180.842 17.7994 182.101 17.7994C183.36 17.7994 184.257 17.4259 184.79 16.679C185.324 15.9108 185.59 14.9505 185.59 13.7981V1.28206H191.32V14.3103C191.32 16.1242 190.926 17.7034 190.136 19.0478C189.346 20.3709 188.258 21.3952 186.871 22.1208C185.505 22.825 183.926 23.1771 182.133 23.1771C180.341 23.1771 178.751 22.825 177.364 22.1208C175.977 21.4166 174.888 20.4029 174.099 19.0798C173.309 17.7354 172.914 16.1455 172.914 14.3103Z" fill="#FFD000"/>
<path d="M192.938 20.0081L196.363 15.8788C196.96 16.4763 197.739 17.0205 198.699 17.5113C199.681 18.0021 200.737 18.2475 201.868 18.2475C202.445 18.2475 202.999 18.1302 203.533 17.8954C204.067 17.6607 204.333 17.2125 204.333 16.551C204.333 15.9961 204.045 15.5373 203.469 15.1745C202.893 14.7904 202.071 14.4276 201.004 14.0862L199.82 13.7021C198.945 13.4033 198.07 13.0085 197.195 12.5177C196.341 12.0055 195.626 11.3546 195.05 10.5651C194.495 9.77547 194.218 8.80449 194.218 7.65212C194.218 6.32902 194.527 5.14464 195.146 4.09897C195.786 3.0533 196.725 2.2317 197.963 1.63417C199.201 1.01531 200.705 0.705872 202.477 0.705872C203.885 0.705872 205.102 0.865924 206.126 1.18603C207.172 1.50613 208.036 1.87959 208.719 2.30639C209.402 2.73319 209.903 3.11732 210.223 3.45876L207.342 7.10794C206.595 6.5531 205.816 6.10495 205.005 5.76351C204.195 5.40072 203.362 5.21933 202.509 5.21933C201.954 5.21933 201.42 5.34737 200.908 5.60346C200.417 5.8382 200.172 6.25433 200.172 6.85186C200.172 7.51341 200.471 7.99356 201.068 8.29232C201.666 8.59109 202.423 8.88985 203.341 9.18861L204.365 9.50872C205.091 9.72212 205.816 9.99954 206.542 10.341C207.289 10.6611 207.972 11.0772 208.591 11.5894C209.21 12.1016 209.7 12.7524 210.063 13.542C210.447 14.3103 210.639 15.2599 210.639 16.3909C210.639 17.6927 210.244 18.8557 209.455 19.8801C208.687 20.9044 207.641 21.7047 206.318 22.2808C205.016 22.857 203.565 23.1451 201.964 23.1451C199.83 23.1451 198.038 22.857 196.587 22.2808C195.157 21.7047 193.941 20.9471 192.938 20.0081Z" fill="#FFD000"/>
<path d="M215.391 22.6057V19.3207H212.18V16.0846H215.391V12.7505H218.725V16.0846H221.961V19.3207H218.725V22.6057H215.391Z" fill="#FFD000"/>
</svg>
