<svg width="235" height="51" viewBox="0 0 235 51" fill="none" xmlns="http://www.w3.org/2000/svg">
<path d="M2.36 22V1.323H7.847V9.073L14.016 1.323H20.433L13.551 9.29L21.518 22H14.853L9.8 13.63L7.847 15.924V22H2.36ZM23.3928 22V1.323H28.3838L36.3198 12.855V1.323H41.7448V22H37.0638L28.8178 10.127V22H23.3928ZM55.1031 22.496C53.5531 22.496 52.1168 22.2273 50.7941 21.69C49.4921 21.1527 48.3554 20.3983 47.3841 19.427C46.4334 18.435 45.6894 17.2777 45.1521 15.955C44.6148 14.6323 44.3461 13.1857 44.3461 11.615C44.3461 10.0443 44.6148 8.59767 45.1521 7.275C45.6894 5.95233 46.4334 4.80533 47.3841 3.834C48.3554 2.86267 49.4921 2.10833 50.7941 1.571C52.1168 1.03366 53.5531 0.764998 55.1031 0.764998C56.6531 0.764998 58.0791 1.03366 59.3811 1.571C60.7038 2.10833 61.8508 2.86267 62.8221 3.834C63.7934 4.80533 64.5374 5.95233 65.0541 7.275C65.5914 8.59767 65.8601 10.0443 65.8601 11.615C65.8601 13.1857 65.5914 14.6323 65.0541 15.955C64.5374 17.2777 63.7934 18.435 62.8221 19.427C61.8508 20.3983 60.7038 21.1527 59.3811 21.69C58.0791 22.2273 56.6531 22.496 55.1031 22.496ZM55.1031 17.35C56.1984 17.35 57.1181 17.0917 57.8621 16.575C58.6268 16.0583 59.2054 15.366 59.5981 14.498C59.9908 13.63 60.1871 12.669 60.1871 11.615C60.1871 10.561 59.9908 9.6 59.5981 8.732C59.2054 7.864 58.6268 7.17167 57.8621 6.655C57.1181 6.13833 56.1984 5.88 55.1031 5.88C54.0284 5.88 53.1088 6.13833 52.3441 6.655C51.6001 7.17167 51.0214 7.864 50.6081 8.732C50.2154 9.6 50.0191 10.561 50.0191 11.615C50.0191 12.669 50.2154 13.63 50.6081 14.498C51.0214 15.366 51.6001 16.0583 52.3441 16.575C53.1088 17.0917 54.0284 17.35 55.1031 17.35ZM71.5338 22L66.5118 1.323H72.3088L74.9748 15.18L78.2298 1.819H83.2208L86.5068 15.18L89.1418 1.323H94.7528L89.6068 22H83.8718L80.6168 8.918L77.3618 22H71.5338ZM96.6024 22V1.323H102.089V22H96.6024ZM105.496 22V1.323H110.487L118.423 12.855V1.323H123.848V22H119.167L110.921 10.127V22H105.496ZM137.795 14.436V10.189H146.289V19.52C145.049 20.574 143.623 21.3387 142.011 21.814C140.399 22.2687 138.797 22.496 137.206 22.496C134.974 22.496 133.052 22.0517 131.44 21.163C129.828 20.2743 128.588 19.024 127.72 17.412C126.873 15.7793 126.449 13.847 126.449 11.615C126.449 9.507 126.904 7.63667 127.813 6.004C128.722 4.37133 129.983 3.09 131.595 2.16C133.228 1.23 135.098 0.764998 137.206 0.764998C138.921 0.764998 140.523 1.05433 142.011 1.633C143.52 2.191 144.78 3.13133 145.793 4.454L142.228 8.05C141.587 7.40933 140.895 6.88233 140.151 6.469C139.428 6.05567 138.58 5.849 137.609 5.849C136.431 5.849 135.429 6.11767 134.602 6.655C133.775 7.17167 133.145 7.87433 132.711 8.763C132.298 9.631 132.091 10.6127 132.091 11.708C132.091 13.4647 132.597 14.8803 133.61 15.955C134.623 17.009 135.966 17.536 137.64 17.536C138.322 17.536 138.973 17.4533 139.593 17.288C140.213 17.102 140.812 16.8127 141.391 16.42V14.436H137.795ZM160.373 22V13.754L153.026 1.323H159.319L163.349 8.701L167.131 1.323H173.238L165.86 13.723V22H160.373ZM182.806 22.496C181.256 22.496 179.82 22.2273 178.497 21.69C177.195 21.1527 176.058 20.3983 175.087 19.427C174.136 18.435 173.392 17.2777 172.855 15.955C172.318 14.6323 172.049 13.1857 172.049 11.615C172.049 10.0443 172.318 8.59767 172.855 7.275C173.392 5.95233 174.136 4.80533 175.087 3.834C176.058 2.86267 177.195 2.10833 178.497 1.571C179.82 1.03366 181.256 0.764998 182.806 0.764998C184.356 0.764998 185.782 1.03366 187.084 1.571C188.407 2.10833 189.554 2.86267 190.525 3.834C191.496 4.80533 192.24 5.95233 192.757 7.275C193.294 8.59767 193.563 10.0443 193.563 11.615C193.563 13.1857 193.294 14.6323 192.757 15.955C192.24 17.2777 191.496 18.435 190.525 19.427C189.554 20.3983 188.407 21.1527 187.084 21.69C185.782 22.2273 184.356 22.496 182.806 22.496ZM182.806 17.35C183.901 17.35 184.821 17.0917 185.565 16.575C186.33 16.0583 186.908 15.366 187.301 14.498C187.694 13.63 187.89 12.669 187.89 11.615C187.89 10.561 187.694 9.6 187.301 8.732C186.908 7.864 186.33 7.17167 185.565 6.655C184.821 6.13833 183.901 5.88 182.806 5.88C181.731 5.88 180.812 6.13833 180.047 6.655C179.303 7.17167 178.724 7.864 178.311 8.732C177.918 9.6 177.722 10.561 177.722 11.615C177.722 12.669 177.918 13.63 178.311 14.498C178.724 15.366 179.303 16.0583 180.047 16.575C180.812 17.0917 181.731 17.35 182.806 17.35ZM196.034 13.94V1.323H201.521V13.444C201.521 14.5807 201.78 15.5107 202.296 16.234C202.834 16.9573 203.712 17.319 204.931 17.319C206.151 17.319 207.019 16.9573 207.535 16.234C208.052 15.49 208.31 14.56 208.31 13.444V1.323H213.859V13.94C213.859 15.6967 213.477 17.226 212.712 18.528C211.948 19.8093 210.894 20.8013 209.55 21.504C208.228 22.186 206.698 22.527 204.962 22.527C203.226 22.527 201.687 22.186 200.343 21.504C199 20.822 197.946 19.8403 197.181 18.559C196.417 17.257 196.034 15.7173 196.034 13.94ZM217.131 22V1.323H225.687C227.898 1.323 229.675 1.90167 231.019 3.059C232.362 4.19567 233.034 5.88 233.034 8.112C233.034 9.45533 232.734 10.6333 232.135 11.646C231.535 12.6587 230.74 13.4647 229.748 14.064L234.181 22H228.291L224.788 14.963H222.494V22H217.131ZM222.494 10.654H225.16C225.883 10.654 226.472 10.437 226.927 10.003C227.381 9.54833 227.609 8.949 227.609 8.205C227.609 7.41967 227.392 6.79967 226.958 6.345C226.524 5.89033 225.914 5.663 225.129 5.663H222.494V10.654ZM0.655 47.458L3.972 43.459C4.55067 44.0377 5.305 44.5647 6.235 45.04C7.18567 45.5153 8.20867 45.753 9.304 45.753C9.862 45.753 10.3993 45.6393 10.916 45.412C11.4327 45.1847 11.691 44.7507 11.691 44.11C11.691 43.5727 11.412 43.1283 10.854 42.777C10.296 42.405 9.50033 42.0537 8.467 41.723L7.32 41.351C6.47267 41.0617 5.62533 40.6793 4.778 40.204C3.95133 39.708 3.259 39.0777 2.701 38.313C2.16367 37.5483 1.895 36.608 1.895 35.492C1.895 34.2107 2.19467 33.0637 2.794 32.051C3.414 31.0383 4.32333 30.2427 5.522 29.664C6.72067 29.0647 8.17767 28.765 9.893 28.765C11.257 28.765 12.435 28.92 13.427 29.23C14.4397 29.54 15.2767 29.9017 15.938 30.315C16.5993 30.7283 17.085 31.1003 17.395 31.431L14.605 34.965C13.8817 34.4277 13.1273 33.9937 12.342 33.663C11.5567 33.3117 10.7507 33.136 9.924 33.136C9.38667 33.136 8.87 33.26 8.374 33.508C7.89867 33.7353 7.661 34.1383 7.661 34.717C7.661 35.3577 7.95033 35.8227 8.529 36.112C9.10767 36.4013 9.84133 36.6907 10.73 36.98L11.722 37.29C12.4247 37.4967 13.1273 37.7653 13.83 38.096C14.5533 38.406 15.2147 38.809 15.814 39.305C16.4133 39.801 16.8887 40.4313 17.24 41.196C17.612 41.94 17.798 42.8597 17.798 43.955C17.798 45.2157 17.4157 46.342 16.651 47.334C15.907 48.326 14.8943 49.101 13.613 49.659C12.3523 50.217 10.947 50.496 9.397 50.496C7.33033 50.496 5.59433 50.217 4.189 49.659C2.80433 49.101 1.62633 48.3673 0.655 47.458ZM20.2112 41.94V29.323H25.6982V41.444C25.6982 42.5807 25.9565 43.5107 26.4732 44.234C27.0105 44.9573 27.8888 45.319 29.1082 45.319C30.3275 45.319 31.1955 44.9573 31.7122 44.234C32.2288 43.49 32.4872 42.56 32.4872 41.444V29.323H38.0362V41.94C38.0362 43.6967 37.6538 45.226 36.8892 46.528C36.1245 47.8093 35.0705 48.8013 33.7272 49.504C32.4045 50.186 30.8752 50.527 29.1392 50.527C27.4032 50.527 25.8635 50.186 24.5202 49.504C23.1768 48.822 22.1228 47.8403 21.3582 46.559C20.5935 45.257 20.2112 43.7173 20.2112 41.94ZM41.3074 50V29.323H49.7394C51.9507 29.323 53.7281 29.912 55.0714 31.09C56.4147 32.2473 57.0864 33.942 57.0864 36.174C57.0864 37.5793 56.7764 38.809 56.1564 39.863C55.5364 40.8963 54.6891 41.7023 53.6144 42.281C52.5397 42.839 51.2997 43.118 49.8944 43.118H46.6704V50H41.3074ZM46.6704 38.809H49.2744C50.0184 38.809 50.6074 38.5713 51.0414 38.096C51.4754 37.6207 51.6924 37.011 51.6924 36.267C51.6924 35.4817 51.4857 34.8513 51.0724 34.376C50.6591 33.9007 50.0494 33.663 49.2434 33.663H46.6704V38.809ZM59.4945 50V29.323H74.3745V34.066H64.9815V37.259H72.7005V41.723H64.9815V45.257H75.0255V50H59.4945ZM77.5604 50V29.323H86.1164C88.3278 29.323 90.1051 29.9017 91.4484 31.059C92.7918 32.1957 93.4634 33.88 93.4634 36.112C93.4634 37.4553 93.1638 38.6333 92.5644 39.646C91.9651 40.6587 91.1694 41.4647 90.1774 42.064L94.6104 50H88.7204L85.2174 42.963H82.9234V50H77.5604ZM82.9234 38.654H85.5894C86.3128 38.654 86.9018 38.437 87.3564 38.003C87.8111 37.5483 88.0384 36.949 88.0384 36.205C88.0384 35.4197 87.8214 34.7997 87.3874 34.345C86.9534 33.8903 86.3438 33.663 85.5584 33.663H82.9234V38.654ZM96.4682 37.011L97.2742 29.323H102.73L100.343 37.011H96.4682ZM103.844 47.458L107.161 43.459C107.739 44.0377 108.494 44.5647 109.424 45.04C110.374 45.5153 111.397 45.753 112.493 45.753C113.051 45.753 113.588 45.6393 114.105 45.412C114.621 45.1847 114.88 44.7507 114.88 44.11C114.88 43.5727 114.601 43.1283 114.043 42.777C113.485 42.405 112.689 42.0537 111.656 41.723L110.509 41.351C109.661 41.0617 108.814 40.6793 107.967 40.204C107.14 39.708 106.448 39.0777 105.89 38.313C105.352 37.5483 105.084 36.608 105.084 35.492C105.084 34.2107 105.383 33.0637 105.983 32.051C106.603 31.0383 107.512 30.2427 108.711 29.664C109.909 29.0647 111.366 28.765 113.082 28.765C114.446 28.765 115.624 28.92 116.616 29.23C117.628 29.54 118.465 29.9017 119.127 30.315C119.788 30.7283 120.274 31.1003 120.584 31.431L117.794 34.965C117.07 34.4277 116.316 33.9937 115.531 33.663C114.745 33.3117 113.939 33.136 113.113 33.136C112.575 33.136 112.059 33.26 111.563 33.508C111.087 33.7353 110.85 34.1383 110.85 34.717C110.85 35.3577 111.139 35.8227 111.718 36.112C112.296 36.4013 113.03 36.6907 113.919 36.98L114.911 37.29C115.613 37.4967 116.316 37.7653 117.019 38.096C117.742 38.406 118.403 38.809 119.003 39.305C119.602 39.801 120.077 40.4313 120.429 41.196C120.801 41.94 120.987 42.8597 120.987 43.955C120.987 45.2157 120.604 46.342 119.84 47.334C119.096 48.326 118.083 49.101 116.802 49.659C115.541 50.217 114.136 50.496 112.586 50.496C110.519 50.496 108.783 50.217 107.378 49.659C105.993 49.101 104.815 48.3673 103.844 47.458ZM128.815 50V29.323H134.302V50H128.815ZM137.708 50V29.323H142.699L150.635 40.855V29.323H156.06V50H151.379L143.133 38.127V50H137.708Z" fill="white"/>
</svg>
