<svg width="94" height="50" viewBox="0 0 94 50" fill="none" xmlns="http://www.w3.org/2000/svg">
<path d="M16.7089 29.6943C16.0084 29.6943 15.36 29.5712 14.7636 29.3251C14.1673 29.0695 13.6419 28.7145 13.1875 28.2601C12.7426 27.8058 12.3971 27.2757 12.151 26.6698C11.9049 26.064 11.7818 25.4108 11.7818 24.7103C11.7818 24.0004 11.9049 23.3472 12.151 22.7509C12.3971 22.145 12.7426 21.6149 13.1875 21.1605C13.6324 20.7062 14.1531 20.3559 14.7494 20.1098C15.3553 19.8542 16.0084 19.7264 16.7089 19.7264C17.4094 19.7264 18.0578 19.8542 18.6542 20.1098C19.2506 20.3559 19.7712 20.7062 20.2161 21.1605C20.6705 21.6149 21.0207 22.145 21.2669 22.7509C21.513 23.3472 21.636 24.0004 21.636 24.7103C21.636 25.4108 21.513 26.064 21.2669 26.6698C21.0207 27.2757 20.6705 27.8058 20.2161 28.2601C19.7712 28.7145 19.2506 29.0695 18.6542 29.3251C18.0578 29.5712 17.4094 29.6943 16.7089 29.6943ZM16.7089 27.678C17.2674 27.678 17.7455 27.5407 18.143 27.2662C18.5501 26.9917 18.8577 26.6272 19.066 26.1729C19.2837 25.7185 19.3926 25.2215 19.3926 24.6819C19.3926 24.1424 19.2837 23.6501 19.066 23.2052C18.8577 22.7509 18.5501 22.3911 18.143 22.1261C17.7455 21.8516 17.2674 21.7143 16.7089 21.7143C16.1504 21.7143 15.6676 21.8516 15.2606 22.1261C14.863 22.3911 14.5554 22.7509 14.3376 23.2052C14.1199 23.6501 14.0111 24.1424 14.0111 24.6819C14.0111 25.2215 14.1199 25.7185 14.3376 26.1729C14.5554 26.6272 14.863 26.9917 15.2606 27.2662C15.6676 27.5407 16.1504 27.678 16.7089 27.678ZM22.9489 32.2927V22.7935H24.9084C24.9273 22.9165 24.9415 23.0396 24.951 23.1626C24.9605 23.2762 24.9699 23.3946 24.9794 23.5176C25.1971 23.2431 25.4764 23.0348 25.8171 22.8928C26.1579 22.7414 26.5129 22.6657 26.8821 22.6657C27.5353 22.6657 28.0796 22.8266 28.515 23.1484C28.9504 23.4703 29.277 23.8915 29.4947 24.4122C29.7125 24.9328 29.8213 25.4866 29.8213 26.0735C29.8213 26.6888 29.7172 27.2236 29.5089 27.678C29.3102 28.1324 29.0404 28.5063 28.6996 28.7997C28.3588 29.0932 27.9849 29.3109 27.5778 29.4529C27.1708 29.5949 26.759 29.6659 26.3425 29.6659C26.0207 29.6659 25.7556 29.6375 25.5474 29.5807C25.3391 29.5239 25.1498 29.4671 24.9794 29.4103V32.2927H22.9489ZM24.9794 25.9173V27.6922C25.2539 27.872 25.6468 27.962 26.1579 27.962C26.6596 27.962 27.0525 27.7916 27.3365 27.4508C27.6299 27.11 27.7766 26.6651 27.7766 26.1161C27.7766 25.8226 27.7293 25.5481 27.6346 25.2925C27.5495 25.0275 27.4027 24.8145 27.1945 24.6535C26.9957 24.4926 26.7259 24.4122 26.3851 24.4122C25.9307 24.4122 25.5805 24.5684 25.3344 24.8807C25.0977 25.1931 24.9794 25.5386 24.9794 25.9173ZM36.4855 27.4366L37.3233 28.7287C37.2286 28.795 37.0582 28.9038 36.8121 29.0553C36.5754 29.2068 36.2583 29.3488 35.8608 29.4813C35.4632 29.6138 34.9757 29.6801 34.3982 29.6801C33.6409 29.6801 32.9878 29.5286 32.4387 29.2257C31.8897 28.9228 31.4685 28.5015 31.175 27.962C30.8816 27.4224 30.7348 26.8024 30.7348 26.1019C30.7348 25.4771 30.8674 24.8949 31.1324 24.3554C31.4069 23.8158 31.7998 23.3851 32.311 23.0632C32.8316 22.7319 33.4516 22.5663 34.171 22.5663C34.8905 22.5663 35.4916 22.7319 35.9743 23.0632C36.4666 23.3851 36.8358 23.8347 37.0819 24.4122C37.3375 24.9801 37.4653 25.638 37.4653 26.3859V26.7266H32.7227C32.7322 27.0769 32.8931 27.3893 33.2055 27.6638C33.5179 27.9383 33.9391 28.0756 34.4692 28.0756C34.9993 28.0756 35.43 27.9998 35.7614 27.8484C36.0927 27.6874 36.3341 27.5502 36.4855 27.4366ZM32.7227 25.4203H35.5342C35.5342 25.231 35.4821 25.0417 35.378 24.8523C35.2833 24.6536 35.1319 24.4879 34.9236 24.3554C34.7248 24.2228 34.4692 24.1566 34.1568 24.1566C33.8445 24.1566 33.5794 24.2228 33.3617 24.3554C33.1534 24.4879 32.9925 24.6536 32.8789 24.8523C32.7748 25.0417 32.7227 25.231 32.7227 25.4203ZM38.646 29.4529V22.7935H40.6055L40.6623 23.5176C40.88 23.2526 41.1687 23.0396 41.5285 22.8786C41.8882 22.7177 42.2573 22.6373 42.636 22.6373C43.3933 22.6373 43.9991 22.8645 44.4535 23.3188C44.9079 23.7732 45.1351 24.4453 45.1351 25.3351V29.4529H43.0904V25.6191C43.0904 25.2499 42.9957 24.9565 42.8064 24.7387C42.6265 24.521 42.3709 24.4122 42.0396 24.4122C41.5947 24.4122 41.2539 24.5589 41.0173 24.8523C40.7901 25.1458 40.6765 25.4866 40.6765 25.8747V29.4529H38.646ZM53.0893 29.4529L53.0325 28.8281C52.5592 29.3772 51.8871 29.6517 51.0162 29.6517C50.7038 29.6517 50.3725 29.5901 50.0222 29.4671C49.6815 29.3535 49.388 29.1452 49.1419 28.8423C48.8958 28.5394 48.7727 28.1229 48.7727 27.5928C48.7727 27.0721 48.9052 26.632 49.1703 26.2723C49.4448 25.9125 49.814 25.6428 50.2778 25.4629C50.7417 25.2736 51.2623 25.1789 51.8397 25.1789C52.0764 25.1789 52.313 25.1837 52.5497 25.1931C52.7958 25.2026 52.9567 25.2168 53.0325 25.2357V25.0937C53.0325 24.7529 52.8999 24.5116 52.6349 24.3696C52.3793 24.2181 52.0859 24.1424 51.7545 24.1424C51.3096 24.1424 50.9357 24.1992 50.6328 24.3128C50.3299 24.4264 50.0743 24.5542 49.8661 24.6961L49.0283 23.4466C49.3028 23.2289 49.6767 23.0301 50.15 22.8503C50.6233 22.6609 51.2528 22.5663 52.0385 22.5663C53.0514 22.5663 53.7992 22.8408 54.282 23.3898C54.7648 23.9294 55.0062 24.6583 55.0062 25.5765V29.4529H53.0893ZM53.0325 27.0532V26.5136C52.9851 26.5042 52.8952 26.4947 52.7627 26.4852C52.6302 26.4663 52.4787 26.4568 52.3083 26.4568C51.7403 26.4568 51.338 26.5373 51.1014 26.6982C50.8647 26.8592 50.7464 27.0863 50.7464 27.3798C50.7464 27.9288 51.0777 28.2034 51.7403 28.2034C52.0622 28.2034 52.3556 28.104 52.6207 27.9052C52.8952 27.7064 53.0325 27.4224 53.0325 27.0532ZM56.4779 32.2927V22.7935H58.4374C58.4563 22.9165 58.4705 23.0396 58.48 23.1626C58.4894 23.2762 58.4989 23.3946 58.5084 23.5176C58.7261 23.2431 59.0053 23.0348 59.3461 22.8928C59.6869 22.7414 60.0419 22.6657 60.4111 22.6657C61.0642 22.6657 61.6085 22.8266 62.044 23.1484C62.4794 23.4703 62.806 23.8915 63.0237 24.4122C63.2414 24.9328 63.3503 25.4866 63.3503 26.0735C63.3503 26.6888 63.2462 27.2236 63.0379 27.678C62.8391 28.1324 62.5693 28.5063 62.2286 28.7997C61.8878 29.0932 61.5139 29.3109 61.1068 29.4529C60.6998 29.5949 60.288 29.6659 59.8715 29.6659C59.5496 29.6659 59.2846 29.6375 59.0763 29.5807C58.8681 29.5239 58.6788 29.4671 58.5084 29.4103V32.2927H56.4779ZM58.5084 25.9173V27.6922C58.7829 27.872 59.1757 27.962 59.6869 27.962C60.1886 27.962 60.5815 27.7916 60.8654 27.4508C61.1589 27.11 61.3056 26.6651 61.3056 26.1161C61.3056 25.8226 61.2583 25.5481 61.1636 25.2925C61.0784 25.0275 60.9317 24.8145 60.7234 24.6535C60.5247 24.4926 60.2549 24.4122 59.9141 24.4122C59.4597 24.4122 59.1095 24.5684 58.8634 24.8807C58.6267 25.1931 58.5084 25.5386 58.5084 25.9173ZM64.562 32.2927V22.7935H66.5215C66.5404 22.9165 66.5546 23.0396 66.5641 23.1626C66.5736 23.2762 66.583 23.3946 66.5925 23.5176C66.8102 23.2431 67.0895 23.0348 67.4302 22.8928C67.771 22.7414 68.126 22.6657 68.4952 22.6657C69.1483 22.6657 69.6926 22.8266 70.1281 23.1484C70.5635 23.4703 70.8901 23.8915 71.1078 24.4122C71.3256 24.9328 71.4344 25.4866 71.4344 26.0735C71.4344 26.6888 71.3303 27.2236 71.122 27.678C70.9232 28.1324 70.6535 28.5063 70.3127 28.7997C69.9719 29.0932 69.598 29.3109 69.1909 29.4529C68.7839 29.5949 68.3721 29.6659 67.9556 29.6659C67.6338 29.6659 67.3687 29.6375 67.1605 29.5807C66.9522 29.5239 66.7629 29.4671 66.5925 29.4103V32.2927H64.562ZM66.5925 25.9173V27.6922C66.867 27.872 67.2598 27.962 67.771 27.962C68.2727 27.962 68.6656 27.7916 68.9496 27.4508C69.243 27.11 69.3897 26.6651 69.3897 26.1161C69.3897 25.8226 69.3424 25.5481 69.2477 25.2925C69.1625 25.0275 69.0158 24.8145 68.8076 24.6535C68.6088 24.4926 68.339 24.4122 67.9982 24.4122C67.5438 24.4122 67.1936 24.5684 66.9475 24.8807C66.7108 25.1931 66.5925 25.5386 66.5925 25.9173Z" fill="#002855"/>
<path d="M77.7405 20.22L82.4735 24.953L77.7405 29.6861" stroke="#002855" stroke-width="1.97928" stroke-linecap="round"/>
</svg>
