<?xml version="1.0" encoding="utf-8"?>
<!-- Generator: Adobe Illustrator 27.7.0, SVG Export Plug-In . SVG Version: 6.00 Build 0)  -->
<svg version="1.1" id="Layer_1" xmlns="http://www.w3.org/2000/svg" xmlns:xlink="http://www.w3.org/1999/xlink" x="0px" y="0px"
	 viewBox="0 0 336 313" style="enable-background:new 0 0 336 313;" xml:space="preserve">
<style type="text/css">
	.st0{fill:url(#SVGID_1_);}
</style>
<g>
	
		<linearGradient id="SVGID_1_" gradientUnits="userSpaceOnUse" x1="49.8223" y1="160.276" x2="330.7995" y2="153.312" gradientTransform="matrix(1 0 0 -1 0 314)">
		<stop  offset="0" style="stop-color:#0071CE"/>
		<stop  offset="1" style="stop-color:#0071CE;stop-opacity:0"/>
	</linearGradient>
	<path class="st0" d="M17.1,279L7.3,288c-1.5,1.4-2.3,3.5-2.3,5.8v7.9c0,4,2.6,7.3,5.8,7.3h315.4c3.2,0,5.8-3.2,5.8-7.3V11.6
		c0-5.9-5.4-9.4-9.2-5.9l-7,6.3c-0.5,0.4-0.9,0.9-1.2,1.5l-12.2,20.1c-0.3,0.5-0.7,1-1.1,1.4l-1.9,1.8c-0.8,0.8-1.4,1.8-1.8,2.9
		L287,70.5c-0.4,1.1-1.4,1.7-2.3,1.3c-0.9-0.4-2,0.1-2.3,1.3l-9.3,27.4c-0.2,0.7-0.5,1.3-0.9,1.8c-2.5,3.3-7,2.2-8.2-2.2L256.1,73
		c-1.6-5.5-7.5-6.6-10.2-1.8l-6.8,11.9c-0.6,1-1.3,1.8-2.2,2.3l-10.4,6.3l-7.4,5.3c-0.7,0.5-1.3,1.2-1.8,2.1l-8.6,15
		c-0.9,1.6-2.4,2.5-4,2.5c-1.4,0-2.7,0.7-3.7,2.1l-16.6,23.4c-0.2,0.3-0.4,0.6-0.6,0.9l-10.2,20.1c-0.8,1.7-2.3,2.7-3.9,2.7
		c-1.4,0-2.7,0.7-3.5,2l-9.6,14.1c-1.1,1.6-2.7,2.6-4.5,2.6h-15.1c-1.6,0-3.1,0.8-4.2,2.3l-13.4,17.5l-8.7,9.4
		c-1.1,1.1-2.4,1.8-3.8,1.8h-2.1c-1.5,0-2.9,0.7-4,2l-10.9,12.9c-1,1.2-2.3,1.8-3.7,1.8c-1.6,0-3.2,0.9-4.2,2.5l-8.9,13.6
		c-1.1,1.7-2.8,2.7-4.5,2.7h-1c-1.5,0-2.9,0.7-4,2l-11.4,13.6c-0.4,0.4-0.8,0.8-1.2,1.1l-6.9,4.6l-8.3,4.5c-0.7,0.4-1.5,0.6-2.3,0.6
		H20.6C19.3,277.5,18.1,278,17.1,279L17.1,279z"/>
</g>
</svg>
