<?xml version="1.0" encoding="utf-8"?>
<!-- Generator: Adobe Illustrator 27.7.0, SVG Export Plug-In . SVG Version: 6.00 Build 0)  -->
<svg version="1.1" id="Layer_1" xmlns="http://www.w3.org/2000/svg" xmlns:xlink="http://www.w3.org/1999/xlink" x="0px" y="0px"
	 viewBox="0 0 212.6 44.6" style="enable-background:new 0 0 212.6 44.6;" xml:space="preserve">
<style type="text/css">
	.st0{fill:#FFD000;}
</style>
<path class="st0" d="M4.5,19.2L0,0.5h5.2L7.6,13L10.6,1h4.5l3,12.1l2.4-12.5h5.1l-4.6,18.7h-5.2L12.7,7.4L9.8,19.2H4.5z M26.9,19.2
	V0.5h5v18.7H26.9z M39.3,19.2V4.8h-5.7V0.5H50v4.3h-5.7v14.3H39.3z M51.6,19.2V0.5h5v6.8h6.9V0.5h5v18.7h-5v-7.3h-6.9v7.3H51.6z
	 M75.7,19.2V0.5h5v6.8h6.9V0.5h5v18.7h-5v-7.3h-6.9v7.3H75.7z M104.3,19.6c-1.4,0-2.7-0.2-3.9-0.7c-1.2-0.5-2.2-1.2-3.1-2
	c-0.9-0.9-1.5-1.9-2-3.1c-0.5-1.2-0.7-2.5-0.7-3.9c0-1.4,0.2-2.7,0.7-3.9c0.5-1.2,1.2-2.2,2-3.1c0.9-0.9,1.9-1.6,3.1-2
	c1.2-0.5,2.5-0.7,3.9-0.7s2.7,0.2,3.9,0.7c1.2,0.5,2.2,1.2,3.1,2c0.9,0.9,1.5,1.9,2,3.1c0.5,1.2,0.7,2.5,0.7,3.9
	c0,1.4-0.2,2.7-0.7,3.9c-0.5,1.2-1.1,2.2-2,3.1c-0.9,0.9-1.9,1.6-3.1,2C107,19.4,105.7,19.6,104.3,19.6z M104.3,15
	c1,0,1.8-0.2,2.5-0.7c0.7-0.5,1.2-1.1,1.6-1.9c0.4-0.8,0.5-1.7,0.5-2.6s-0.2-1.8-0.5-2.6c-0.4-0.8-0.9-1.4-1.6-1.9
	c-0.7-0.5-1.5-0.7-2.5-0.7c-1,0-1.8,0.2-2.5,0.7c-0.7,0.5-1.2,1.1-1.6,1.9c-0.4,0.8-0.5,1.7-0.5,2.6s0.2,1.8,0.5,2.6
	c0.4,0.8,0.9,1.4,1.6,1.9C102.5,14.7,103.3,15,104.3,15z M114.3,16.9l3-3.6c0.5,0.5,1.2,1,2,1.4c0.9,0.4,1.8,0.6,2.8,0.6
	c0.5,0,1-0.1,1.5-0.3c0.5-0.2,0.7-0.6,0.7-1.2c0-0.5-0.3-0.9-0.8-1.2c-0.5-0.3-1.2-0.7-2.2-1l-1-0.3c-0.8-0.3-1.5-0.6-2.3-1
	c-0.7-0.4-1.4-1-1.9-1.7c-0.5-0.7-0.7-1.5-0.7-2.5c0-1.2,0.3-2.2,0.8-3.1c0.6-0.9,1.4-1.6,2.5-2.2c1.1-0.5,2.4-0.8,3.9-0.8
	c1.2,0,2.3,0.1,3.2,0.4c0.9,0.3,1.7,0.6,2.3,1c0.6,0.4,1,0.7,1.3,1l-2.5,3.2c-0.7-0.5-1.3-0.9-2-1.2c-0.7-0.3-1.4-0.5-2.2-0.5
	c-0.5,0-1,0.1-1.4,0.3c-0.4,0.2-0.6,0.6-0.6,1.1c0,0.6,0.3,1,0.8,1.3c0.5,0.3,1.2,0.5,2,0.8l0.9,0.3c0.6,0.2,1.3,0.4,1.9,0.7
	c0.7,0.3,1.2,0.6,1.8,1.1c0.5,0.4,1,1,1.3,1.7c0.3,0.7,0.5,1.5,0.5,2.5c0,1.1-0.3,2.2-1,3.1c-0.7,0.9-1.6,1.6-2.7,2.1
	c-1.1,0.5-2.4,0.8-3.8,0.8c-1.9,0-3.4-0.3-4.7-0.8C116.2,18.4,115.2,17.7,114.3,16.9z M136.4,19.2V4.8h-5.7V0.5h16.4v4.3h-5.7v14.3
	H136.4z M148.8,19.2V0.5h7.6c2,0,3.6,0.5,4.8,1.6c1.2,1,1.8,2.6,1.8,4.6c0,1.3-0.3,2.4-0.8,3.3c-0.6,0.9-1.3,1.7-2.3,2.2
	c-1,0.5-2.1,0.8-3.4,0.8h-2.9v6.2H148.8z M153.6,9.1h2.4c0.7,0,1.2-0.2,1.6-0.6c0.4-0.4,0.6-1,0.6-1.7c0-0.7-0.2-1.3-0.6-1.7
	c-0.4-0.4-0.9-0.6-1.7-0.6h-2.3V9.1z M164.9,19.2V0.5h5v14.3h8.7v4.4H164.9z M179.8,11.9V0.5h5v10.9c0,1,0.2,1.9,0.7,2.5
	c0.5,0.7,1.3,1,2.4,1s1.9-0.3,2.4-1c0.5-0.7,0.7-1.5,0.7-2.5V0.5h5v11.4c0,1.6-0.3,3-1,4.1c-0.7,1.2-1.6,2.1-2.9,2.7
	c-1.2,0.6-2.6,0.9-4.1,0.9c-1.6,0-3-0.3-4.2-0.9c-1.2-0.6-2.2-1.5-2.9-2.7C180.2,14.9,179.8,13.5,179.8,11.9z M197.1,16.9l3-3.6
	c0.5,0.5,1.2,1,2,1.4c0.9,0.4,1.8,0.6,2.8,0.6c0.5,0,1-0.1,1.5-0.3c0.5-0.2,0.7-0.6,0.7-1.2c0-0.5-0.3-0.9-0.8-1.2
	c-0.5-0.3-1.2-0.7-2.2-1l-1-0.3c-0.8-0.3-1.5-0.6-2.3-1c-0.7-0.4-1.4-1-1.9-1.7c-0.5-0.7-0.7-1.5-0.7-2.5c0-1.2,0.3-2.2,0.8-3.1
	c0.6-0.9,1.4-1.6,2.5-2.2c1.1-0.5,2.4-0.8,3.9-0.8c1.2,0,2.3,0.1,3.2,0.4c0.9,0.3,1.7,0.6,2.3,1c0.6,0.4,1,0.7,1.3,1l-2.5,3.2
	c-0.7-0.5-1.3-0.9-2-1.2c-0.7-0.3-1.4-0.5-2.2-0.5c-0.5,0-1,0.1-1.4,0.3c-0.4,0.2-0.6,0.6-0.6,1.1c0,0.6,0.3,1,0.8,1.3
	c0.5,0.3,1.2,0.5,2,0.8l0.9,0.3c0.6,0.2,1.3,0.4,1.9,0.7c0.7,0.3,1.2,0.6,1.8,1.1c0.5,0.4,1,1,1.3,1.7c0.3,0.7,0.5,1.5,0.5,2.5
	c0,1.1-0.3,2.2-1,3.1c-0.7,0.9-1.6,1.6-2.7,2.1c-1.1,0.5-2.4,0.8-3.8,0.8c-1.9,0-3.4-0.3-4.7-0.8C199,18.4,197.9,17.7,197.1,16.9z
	 M6,44.2V29.8H0.3v-4.3h16.4v4.3H11v14.3H6z M26.5,44.6c-1.4,0-2.7-0.2-3.9-0.7c-1.2-0.5-2.2-1.2-3.1-2c-0.9-0.9-1.5-1.9-2-3.1
	c-0.5-1.2-0.7-2.5-0.7-3.9c0-1.4,0.2-2.7,0.7-3.9c0.5-1.2,1.2-2.2,2-3.1c0.9-0.9,1.9-1.6,3.1-2c1.2-0.5,2.5-0.7,3.9-0.7
	s2.7,0.2,3.9,0.7c1.2,0.5,2.2,1.2,3.1,2c0.9,0.9,1.5,1.9,2,3.1c0.5,1.2,0.7,2.5,0.7,3.9c0,1.4-0.2,2.7-0.7,3.9
	c-0.5,1.2-1.1,2.2-2,3.1c-0.9,0.9-1.9,1.6-3.1,2C29.2,44.4,27.9,44.6,26.5,44.6z M26.5,40c1,0,1.8-0.2,2.5-0.7
	c0.7-0.5,1.2-1.1,1.6-1.9c0.4-0.8,0.5-1.7,0.5-2.6s-0.2-1.8-0.5-2.6c-0.4-0.8-0.9-1.4-1.6-1.9c-0.7-0.5-1.5-0.7-2.5-0.7
	c-1,0-1.8,0.2-2.5,0.7c-0.7,0.5-1.2,1.1-1.6,1.9c-0.4,0.8-0.5,1.7-0.5,2.6s0.2,1.8,0.5,2.6c0.4,0.8,0.9,1.4,1.6,1.9
	C24.7,39.7,25.6,40,26.5,40z M38.3,44.2V25.5h7.2c1.9,0,3.6,0.3,5.1,1c1.5,0.7,2.7,1.7,3.6,3.1c0.9,1.4,1.3,3.2,1.3,5.3
	c0,2.1-0.4,3.8-1.3,5.2c-0.9,1.4-2.1,2.4-3.6,3.1c-1.5,0.7-3.2,1-5.1,1H38.3z M43.3,39.8h2c1.6,0,2.9-0.5,3.8-1.4
	c0.9-0.9,1.3-2.1,1.3-3.6c0-1.5-0.4-2.7-1.2-3.6c-0.8-0.9-2.1-1.4-3.9-1.4h-2V39.8z M54.9,44.2l6.9-18.7h5.7L74,44.2h-5.3l-1.2-3.9
	h-6.2L60,44.2H54.9z M62.3,36.7h4.2l-2.1-6.9L62.3,36.7z M76.7,44.2v-7.4l-6.6-11.2h5.7l3.6,6.7l3.4-6.7h5.5l-6.7,11.2v7.5H76.7z"/>
</svg>
