<?xml version="1.0" encoding="utf-8"?>
<!-- Generator: Adobe Illustrator 27.7.0, SVG Export Plug-In . SVG Version: 6.00 Build 0)  -->
<svg version="1.1" id="Layer_1" xmlns="http://www.w3.org/2000/svg" xmlns:xlink="http://www.w3.org/1999/xlink" x="0px" y="0px"
	 viewBox="0 0 187.8 19.6" style="enable-background:new 0 0 187.8 19.6;" xml:space="preserve">
<style type="text/css">
	.st0{fill:#FFFFFF;}
</style>
<path class="st0" d="M0,19.2V0.5h5v18.7H0z M12.4,19.2V4.8H6.6V0.5h16.4v4.3h-5.7v14.3H12.4z M29.2,19.2V0.5h7.6
	c2,0,3.6,0.5,4.8,1.6c1.2,1,1.8,2.6,1.8,4.6c0,1.3-0.3,2.4-0.8,3.3c-0.6,0.9-1.3,1.7-2.3,2.2c-1,0.5-2.1,0.8-3.4,0.8h-2.9v6.2H29.2z
	 M34.1,9.1h2.4c0.7,0,1.2-0.2,1.6-0.6s0.6-1,0.6-1.7c0-0.7-0.2-1.3-0.6-1.7c-0.4-0.4-0.9-0.6-1.7-0.6h-2.3V9.1z M41.3,19.2l6.9-18.7
	h5.7l6.6,18.7h-5.3l-1.2-3.9h-6.2l-1.2,3.9H41.3z M48.7,11.7h4.2l-2.1-6.9L48.7,11.7z M63.1,19.2v-7.4L56.5,0.5h5.7l3.6,6.7l3.4-6.7
	h5.5l-6.7,11.2v7.5H63.1z M73.4,16.9l3-3.6c0.5,0.5,1.2,1,2,1.4c0.9,0.4,1.8,0.6,2.8,0.6c0.5,0,1-0.1,1.5-0.3
	c0.5-0.2,0.7-0.6,0.7-1.2c0-0.5-0.3-0.9-0.8-1.2c-0.5-0.3-1.2-0.7-2.2-1l-1-0.3c-0.8-0.3-1.5-0.6-2.3-1c-0.7-0.4-1.4-1-1.9-1.7
	c-0.5-0.7-0.7-1.5-0.7-2.5c0-1.2,0.3-2.2,0.8-3.1c0.6-0.9,1.4-1.6,2.5-2.2C78.9,0.3,80.2,0,81.8,0c1.2,0,2.3,0.1,3.2,0.4
	c0.9,0.3,1.7,0.6,2.3,1s1,0.7,1.3,1L86,5.6c-0.7-0.5-1.3-0.9-2-1.2c-0.7-0.3-1.4-0.5-2.2-0.5c-0.5,0-1,0.1-1.4,0.3
	c-0.4,0.2-0.6,0.6-0.6,1.1c0,0.6,0.3,1,0.8,1.3c0.5,0.3,1.2,0.5,2,0.8l0.9,0.3c0.6,0.2,1.3,0.4,1.9,0.7c0.7,0.3,1.3,0.6,1.8,1.1
	s1,1,1.3,1.7c0.3,0.7,0.5,1.5,0.5,2.5c0,1.1-0.3,2.2-1,3.1c-0.7,0.9-1.6,1.6-2.7,2.1c-1.1,0.5-2.4,0.8-3.8,0.8
	c-1.9,0-3.4-0.3-4.7-0.8C75.4,18.4,74.3,17.7,73.4,16.9z M100,19.2V4.8h-5.7V0.5h16.4v4.3H105v14.3H100z M120.5,19.6
	c-1.4,0-2.7-0.2-3.9-0.7c-1.2-0.5-2.2-1.2-3.1-2c-0.9-0.9-1.5-1.9-2-3.1c-0.5-1.2-0.7-2.5-0.7-3.9c0-1.4,0.2-2.7,0.7-3.9
	c0.5-1.2,1.2-2.2,2-3.1c0.9-0.9,1.9-1.6,3.1-2c1.2-0.5,2.5-0.7,3.9-0.7s2.7,0.2,3.9,0.7c1.2,0.5,2.2,1.2,3.1,2
	c0.9,0.9,1.5,1.9,2,3.1c0.5,1.2,0.7,2.5,0.7,3.9c0,1.4-0.2,2.7-0.7,3.9c-0.5,1.2-1.1,2.2-2,3.1c-0.9,0.9-1.9,1.6-3.1,2
	C123.2,19.4,121.9,19.6,120.5,19.6z M120.5,15c1,0,1.8-0.2,2.5-0.7c0.7-0.5,1.2-1.1,1.6-1.9c0.4-0.8,0.5-1.7,0.5-2.6
	S125,8,124.6,7.2c-0.4-0.8-0.9-1.4-1.6-1.9c-0.7-0.5-1.5-0.7-2.5-0.7c-1,0-1.8,0.2-2.5,0.7c-0.7,0.5-1.2,1.1-1.6,1.9
	c-0.4,0.8-0.5,1.7-0.5,2.6s0.2,1.8,0.5,2.6c0.4,0.8,0.9,1.4,1.6,1.9C118.7,14.7,119.6,15,120.5,15z M146.3,12.3V8.5h7.7v8.4
	c-1.1,1-2.4,1.6-3.9,2.1c-1.5,0.4-2.9,0.6-4.3,0.6c-2,0-3.8-0.4-5.2-1.2s-2.6-1.9-3.4-3.4c-0.8-1.5-1.1-3.2-1.1-5.2
	c0-1.9,0.4-3.6,1.2-5.1c0.8-1.5,2-2.6,3.4-3.5c1.5-0.8,3.2-1.3,5.1-1.3c1.5,0,3,0.3,4.3,0.8c1.4,0.5,2.5,1.4,3.4,2.5l-3.2,3.2
	c-0.6-0.6-1.2-1.1-1.9-1.4c-0.7-0.4-1.4-0.6-2.3-0.6c-1.1,0-2,0.2-2.7,0.7c-0.7,0.5-1.3,1.1-1.7,1.9c-0.4,0.8-0.6,1.7-0.6,2.7
	c0,1.6,0.5,2.9,1.4,3.8c0.9,1,2.1,1.4,3.6,1.4c0.6,0,1.2-0.1,1.8-0.2c0.6-0.2,1.1-0.4,1.6-0.8v-1.8H146.3z M156.5,19.2V0.5h13.4v4.3
	h-8.5v2.9h7v4h-7v3.2h9.1v4.3H156.5z M177.2,19.2V4.8h-5.7V0.5h16.4v4.3h-5.7v14.3H177.2z"/>
</svg>
