<?xml version="1.0" encoding="utf-8"?>
<!-- Generator: Adobe Illustrator 27.7.0, SVG Export Plug-In . SVG Version: 6.00 Build 0)  -->
<svg version="1.1" id="Layer_1" xmlns="http://www.w3.org/2000/svg" xmlns:xlink="http://www.w3.org/1999/xlink" x="0px" y="0px"
	 viewBox="0 0 219.1 19.6" style="enable-background:new 0 0 219.1 19.6;" xml:space="preserve">
<style type="text/css">
	.st0{fill:#FFFFFF;}
</style>
<path class="st0" d="M0,16.9l3-3.6c0.5,0.5,1.2,1,2,1.4c0.9,0.4,1.8,0.6,2.8,0.6c0.5,0,1-0.1,1.5-0.3s0.7-0.6,0.7-1.2
	c0-0.5-0.3-0.9-0.8-1.2c-0.5-0.3-1.2-0.7-2.2-1l-1-0.3c-0.8-0.3-1.5-0.6-2.3-1C3,9.9,2.4,9.3,1.8,8.6C1.4,7.9,1.1,7.1,1.1,6.1
	c0-1.2,0.3-2.2,0.8-3.1c0.6-0.9,1.4-1.6,2.5-2.2C5.5,0.3,6.8,0,8.3,0c1.2,0,2.3,0.1,3.2,0.4c0.9,0.3,1.7,0.6,2.3,1
	c0.6,0.4,1,0.7,1.3,1l-2.5,3.2c-0.7-0.5-1.3-0.9-2-1.2C9.8,4.1,9.1,3.9,8.4,3.9c-0.5,0-1,0.1-1.4,0.3C6.5,4.5,6.3,4.9,6.3,5.4
	c0,0.6,0.3,1,0.8,1.3c0.5,0.3,1.2,0.5,2,0.8L10,7.7c0.6,0.2,1.3,0.4,1.9,0.7c0.7,0.3,1.3,0.6,1.8,1.1s1,1,1.3,1.7
	c0.3,0.7,0.5,1.5,0.5,2.5c0,1.1-0.3,2.2-1,3.1c-0.7,0.9-1.6,1.6-2.7,2.1c-1.1,0.5-2.4,0.8-3.8,0.8c-1.9,0-3.4-0.3-4.7-0.8
	C1.9,18.4,0.9,17.7,0,16.9z M22.1,19.2V4.8h-5.7V0.5h16.4v4.3h-5.7v14.3H22.1z M29.8,19.2l6.9-18.7h5.7L49,19.2h-5.3l-1.2-3.9h-6.2
	L35,19.2H29.8z M37.2,11.7h4.2l-2.1-6.9L37.2,11.7z M50.2,19.2V0.5H58c2,0,3.6,0.5,4.8,1.6c1.2,1,1.8,2.5,1.8,4.6
	c0,1.2-0.3,2.3-0.8,3.2c-0.5,0.9-1.3,1.6-2.2,2.2l4,7.2h-5.3l-3.2-6.4h-2.1v6.4H50.2z M55.1,8.9h2.4c0.7,0,1.2-0.2,1.6-0.6
	c0.4-0.4,0.6-1,0.6-1.6c0-0.7-0.2-1.3-0.6-1.7c-0.4-0.4-0.9-0.6-1.7-0.6h-2.4V8.9z M71.3,19.2V4.8h-5.7V0.5H82v4.3h-5.7v14.3H71.3z
	 M88.2,19.2V0.5h5v14.3h8.7v4.4H88.2z M103.5,19.2V0.5h13.4v4.3h-8.5v2.9h7v4h-7v3.2h9.1v4.3H103.5z M118,19.2l6.9-18.7h5.7
	l6.6,18.7h-5.3l-1.2-3.9h-6.2l-1.2,3.9H118z M125.3,11.7h4.2l-2.1-6.9L125.3,11.7z M138.4,19.2V0.5h7.7c2,0,3.6,0.5,4.8,1.6
	c1.2,1,1.8,2.5,1.8,4.6c0,1.2-0.3,2.3-0.8,3.2c-0.5,0.9-1.3,1.6-2.2,2.2l4,7.2h-5.3l-3.2-6.4h-2.1v6.4H138.4z M143.2,8.9h2.4
	c0.7,0,1.2-0.2,1.6-0.6c0.4-0.4,0.6-1,0.6-1.6c0-0.7-0.2-1.3-0.6-1.7s-0.9-0.6-1.7-0.6h-2.4V8.9z M155.4,19.2V0.5h4.5l7.2,10.4V0.5
	h4.9v18.7h-4.2l-7.4-10.7v10.7H155.4z M174.8,19.2V0.5h5v18.7H174.8z M182.5,19.2V0.5h4.5l7.2,10.4V0.5h4.9v18.7h-4.2l-7.4-10.7
	v10.7H182.5z M211.4,12.3V8.5h7.7v8.4c-1.1,1-2.4,1.6-3.9,2.1c-1.5,0.4-2.9,0.6-4.3,0.6c-2,0-3.8-0.4-5.2-1.2
	c-1.5-0.8-2.6-1.9-3.4-3.4c-0.8-1.5-1.1-3.2-1.1-5.2c0-1.9,0.4-3.6,1.2-5.1s2-2.6,3.4-3.5c1.5-0.8,3.2-1.3,5.1-1.3
	c1.5,0,3,0.3,4.3,0.8c1.4,0.5,2.5,1.4,3.4,2.5l-3.2,3.2c-0.6-0.6-1.2-1.1-1.9-1.4c-0.7-0.4-1.4-0.6-2.3-0.6c-1.1,0-2,0.2-2.7,0.7
	c-0.7,0.5-1.3,1.1-1.7,1.9c-0.4,0.8-0.6,1.7-0.6,2.7c0,1.6,0.5,2.9,1.4,3.8c0.9,1,2.1,1.4,3.6,1.4c0.6,0,1.2-0.1,1.8-0.2
	c0.6-0.2,1.1-0.4,1.6-0.8v-1.8H211.4z"/>
</svg>
