<svg width="92" height="26" viewBox="0 0 92 26" fill="none" xmlns="http://www.w3.org/2000/svg">
<path d="M10.9795 17.5V8.829H12.9425V15.758H17.0895V17.5H10.9795ZM17.9392 14.445C17.9392 13.847 18.0779 13.301 18.3552 12.807C18.6325 12.313 19.0139 11.923 19.4992 11.637C19.9932 11.3423 20.5652 11.195 21.2152 11.195C21.8652 11.195 22.4329 11.3423 22.9182 11.637C23.4122 11.923 23.7935 12.313 24.0622 12.807C24.3395 13.301 24.4782 13.847 24.4782 14.445C24.4782 15.043 24.3395 15.589 24.0622 16.083C23.7935 16.577 23.4122 16.9713 22.9182 17.266C22.4329 17.5607 21.8652 17.708 21.2152 17.708C20.5652 17.708 19.9932 17.5607 19.4992 17.266C19.0139 16.9713 18.6325 16.577 18.3552 16.083C18.0779 15.589 17.9392 15.043 17.9392 14.445ZM21.2152 16.083C21.5359 16.083 21.8002 16.005 22.0082 15.849C22.2249 15.693 22.3895 15.4893 22.5022 15.238C22.6149 14.9867 22.6712 14.7223 22.6712 14.445C22.6712 14.1677 22.6149 13.9077 22.5022 13.665C22.3895 13.4137 22.2249 13.21 22.0082 13.054C21.8002 12.898 21.5359 12.82 21.2152 12.82C20.9032 12.82 20.6345 12.898 20.4092 13.054C20.1925 13.21 20.0279 13.4137 19.9152 13.665C19.8025 13.9077 19.7462 14.1677 19.7462 14.445C19.7462 14.7223 19.8025 14.9867 19.9152 15.238C20.0279 15.4893 20.1925 15.693 20.4092 15.849C20.6345 16.005 20.9032 16.083 21.2152 16.083ZM25.8352 19.606L26.5892 18.28C26.8318 18.4273 27.0875 18.54 27.3562 18.618C27.6335 18.7047 27.9368 18.748 28.2662 18.748C28.6908 18.748 29.0245 18.6353 29.2672 18.41C29.5098 18.1847 29.6312 17.8467 29.6312 17.396V16.967C29.2412 17.305 28.7212 17.474 28.0712 17.474C27.4905 17.474 26.9922 17.3527 26.5762 17.11C26.1688 16.8587 25.8568 16.512 25.6402 16.07C25.4235 15.628 25.3152 15.1253 25.3152 14.562C25.3152 13.9033 25.4625 13.327 25.7572 12.833C26.0518 12.339 26.4592 11.9577 26.9792 11.689C27.5078 11.4117 28.1232 11.273 28.8252 11.273C29.3278 11.273 29.8088 11.3163 30.2682 11.403C30.7275 11.4897 31.1348 11.598 31.4902 11.728V17.305C31.4902 18.3103 31.2128 19.0513 30.6582 19.528C30.1035 20.0133 29.3452 20.256 28.3832 20.256C27.3258 20.256 26.4765 20.0393 25.8352 19.606ZM29.6442 14.783V12.95C29.5228 12.9067 29.4015 12.8763 29.2802 12.859C29.1588 12.833 28.9985 12.82 28.7992 12.82C28.2618 12.82 27.8588 12.9847 27.5902 13.314C27.3302 13.6433 27.2002 14.0377 27.2002 14.497C27.2002 14.9303 27.3085 15.2813 27.5252 15.55C27.7418 15.81 28.0495 15.94 28.4482 15.94C28.8295 15.94 29.1242 15.849 29.3322 15.667C29.5402 15.4763 29.6442 15.1817 29.6442 14.783ZM35.2109 10.506V8.829H37.2129V10.506H35.2109ZM35.2759 17.5V11.403H37.1479V17.5H35.2759ZM38.5885 17.5V11.403H40.3825L40.4345 12.066C40.6338 11.8233 40.8981 11.6283 41.2275 11.481C41.5568 11.3337 41.8948 11.26 42.2415 11.26C42.9348 11.26 43.4895 11.468 43.9055 11.884C44.3215 12.3 44.5295 12.9153 44.5295 13.73V17.5H42.6575V13.99C42.6575 13.652 42.5708 13.3833 42.3975 13.184C42.2328 12.9847 41.9988 12.885 41.6955 12.885C41.2881 12.885 40.9761 13.0193 40.7595 13.288C40.5515 13.5567 40.4475 13.8687 40.4475 14.224V17.5H38.5885ZM48.2369 17.5V11.403H50.0309L50.0829 12.066C50.2822 11.8233 50.5466 11.6283 50.8759 11.481C51.2052 11.3337 51.5432 11.26 51.8899 11.26C52.5832 11.26 53.1379 11.468 53.5539 11.884C53.9699 12.3 54.1779 12.9153 54.1779 13.73V17.5H52.3059V13.99C52.3059 13.652 52.2192 13.3833 52.0459 13.184C51.8812 12.9847 51.6472 12.885 51.3439 12.885C50.9366 12.885 50.6246 13.0193 50.4079 13.288C50.1999 13.5567 50.0959 13.8687 50.0959 14.224V17.5H48.2369ZM55.2507 14.445C55.2507 13.847 55.3894 13.301 55.6667 12.807C55.9441 12.313 56.3254 11.923 56.8107 11.637C57.3047 11.3423 57.8767 11.195 58.5267 11.195C59.1767 11.195 59.7444 11.3423 60.2297 11.637C60.7237 11.923 61.1051 12.313 61.3737 12.807C61.6511 13.301 61.7897 13.847 61.7897 14.445C61.7897 15.043 61.6511 15.589 61.3737 16.083C61.1051 16.577 60.7237 16.9713 60.2297 17.266C59.7444 17.5607 59.1767 17.708 58.5267 17.708C57.8767 17.708 57.3047 17.5607 56.8107 17.266C56.3254 16.9713 55.9441 16.577 55.6667 16.083C55.3894 15.589 55.2507 15.043 55.2507 14.445ZM58.5267 16.083C58.8474 16.083 59.1117 16.005 59.3197 15.849C59.5364 15.693 59.7011 15.4893 59.8137 15.238C59.9264 14.9867 59.9827 14.7223 59.9827 14.445C59.9827 14.1677 59.9264 13.9077 59.8137 13.665C59.7011 13.4137 59.5364 13.21 59.3197 13.054C59.1117 12.898 58.8474 12.82 58.5267 12.82C58.2147 12.82 57.9461 12.898 57.7207 13.054C57.5041 13.21 57.3394 13.4137 57.2267 13.665C57.1141 13.9077 57.0577 14.1677 57.0577 14.445C57.0577 14.7223 57.1141 14.9867 57.2267 15.238C57.3394 15.4893 57.5041 15.693 57.7207 15.849C57.9461 16.005 58.2147 16.083 58.5267 16.083ZM64.1916 17.5L62.0986 11.403H64.0226L65.0886 15.316L66.2716 11.403H67.7666L68.9626 15.316L70.0286 11.403H71.9136L69.8206 17.5H68.1306L66.9866 14.094L65.8556 17.5H64.1916Z" fill="#002855"/>
<path d="M77.2664 8.66675L81.5997 13.0001L77.2664 17.3334" stroke="#002855" stroke-width="1.81212" stroke-linecap="round"/>
</svg>
