<svg width="95" height="29" viewBox="0 0 95 29" fill="none" xmlns="http://www.w3.org/2000/svg">
<rect x="0.944336" y="1.31494" width="93.5556" height="27.1852" fill="#002855"/>
<rect x="0.944336" y="1.31494" width="93.5556" height="27.1852" stroke="white"/>
<path d="M12.4429 19.4077V10.7614H14.4003V17.6707H18.5355V19.4077H12.4429ZM19.3828 16.3614C19.3828 15.7651 19.521 15.2207 19.7976 14.7281C20.0741 14.2355 20.4544 13.8466 20.9383 13.5614C21.4309 13.2676 22.0013 13.1207 22.6494 13.1207C23.2976 13.1207 23.8636 13.2676 24.3476 13.5614C24.8402 13.8466 25.2204 14.2355 25.4883 14.7281C25.7649 15.2207 25.9031 15.7651 25.9031 16.3614C25.9031 16.9577 25.7649 17.5022 25.4883 17.9948C25.2204 18.4873 24.8402 18.8806 24.3476 19.1744C23.8636 19.4682 23.2976 19.6151 22.6494 19.6151C22.0013 19.6151 21.4309 19.4682 20.9383 19.1744C20.4544 18.8806 20.0741 18.4873 19.7976 17.9948C19.521 17.5022 19.3828 16.9577 19.3828 16.3614ZM22.6494 17.9948C22.9692 17.9948 23.2328 17.917 23.4402 17.7614C23.6562 17.6059 23.8204 17.4028 23.9328 17.1522C24.0451 16.9015 24.1013 16.638 24.1013 16.3614C24.1013 16.0849 24.0451 15.8256 23.9328 15.5836C23.8204 15.333 23.6562 15.1299 23.4402 14.9744C23.2328 14.8188 22.9692 14.741 22.6494 14.741C22.3383 14.741 22.0704 14.8188 21.8457 14.9744C21.6297 15.1299 21.4655 15.333 21.3531 15.5836C21.2408 15.8256 21.1846 16.0849 21.1846 16.3614C21.1846 16.638 21.2408 16.9015 21.3531 17.1522C21.4655 17.4028 21.6297 17.6059 21.8457 17.7614C22.0704 17.917 22.3383 17.9948 22.6494 17.9948ZM27.2562 21.5077L28.0081 20.1855C28.2501 20.3324 28.505 20.4448 28.7729 20.5225C29.0495 20.6089 29.3519 20.6522 29.6803 20.6522C30.1038 20.6522 30.4365 20.5398 30.6785 20.3151C30.9204 20.0904 31.0414 19.7534 31.0414 19.304V18.8762C30.6525 19.2133 30.134 19.3818 29.4859 19.3818C28.9069 19.3818 28.41 19.2608 27.9951 19.0188C27.589 18.7682 27.2779 18.4225 27.0618 17.9818C26.8458 17.541 26.7377 17.0398 26.7377 16.4781C26.7377 15.8213 26.8846 15.2466 27.1785 14.754C27.4723 14.2614 27.8785 13.8812 28.397 13.6133C28.9242 13.3367 29.5377 13.1985 30.2377 13.1985C30.739 13.1985 31.2186 13.2417 31.6766 13.3281C32.1346 13.4145 32.5408 13.5225 32.8951 13.6522V19.2133C32.8951 20.2157 32.6186 20.9546 32.0655 21.4299C31.5124 21.9139 30.7562 22.1559 29.797 22.1559C28.7427 22.1559 27.8958 21.9398 27.2562 21.5077ZM31.0544 16.6985V14.8707C30.9334 14.8275 30.8124 14.7972 30.6914 14.7799C30.5704 14.754 30.4106 14.741 30.2118 14.741C29.676 14.741 29.2742 14.9052 29.0062 15.2336C28.747 15.562 28.6174 15.9552 28.6174 16.4133C28.6174 16.8454 28.7254 17.1954 28.9414 17.4633C29.1575 17.7225 29.4643 17.8522 29.8618 17.8522C30.2421 17.8522 30.5359 17.7614 30.7433 17.5799C30.9507 17.3898 31.0544 17.096 31.0544 16.6985ZM36.6053 12.4336V10.7614H38.6016V12.4336H36.6053ZM36.6701 19.4077V13.3281H38.5368V19.4077H36.6701ZM39.9732 19.4077V13.3281H41.7621L41.814 13.9892C42.0127 13.7472 42.2763 13.5528 42.6047 13.4059C42.9331 13.2589 43.2701 13.1855 43.6158 13.1855C44.3072 13.1855 44.8603 13.3929 45.2751 13.8077C45.6899 14.2225 45.8973 14.8361 45.8973 15.6485V19.4077H44.0306V15.9077C44.0306 15.5707 43.9442 15.3028 43.7714 15.104C43.6072 14.9052 43.3738 14.8059 43.0714 14.8059C42.6652 14.8059 42.3541 14.9398 42.138 15.2077C41.9306 15.4756 41.8269 15.7867 41.8269 16.141V19.4077H39.9732ZM49.5942 19.4077V13.3281H51.3831L51.4349 13.9892C51.6337 13.7472 51.8973 13.5528 52.2257 13.4059C52.554 13.2589 52.8911 13.1855 53.2368 13.1855C53.9281 13.1855 54.4812 13.3929 54.896 13.8077C55.3108 14.2225 55.5182 14.8361 55.5182 15.6485V19.4077H53.6516V15.9077C53.6516 15.5707 53.5652 15.3028 53.3923 15.104C53.2281 14.9052 52.9948 14.8059 52.6923 14.8059C52.2861 14.8059 51.975 14.9398 51.759 15.2077C51.5516 15.4756 51.4479 15.7867 51.4479 16.141V19.4077H49.5942ZM56.588 16.3614C56.588 15.7651 56.7263 15.2207 57.0028 14.7281C57.2794 14.2355 57.6596 13.8466 58.1436 13.5614C58.6361 13.2676 59.2065 13.1207 59.8547 13.1207C60.5028 13.1207 61.0689 13.2676 61.5528 13.5614C62.0454 13.8466 62.4256 14.2355 62.6936 14.7281C62.9701 15.2207 63.1084 15.7651 63.1084 16.3614C63.1084 16.9577 62.9701 17.5022 62.6936 17.9948C62.4256 18.4873 62.0454 18.8806 61.5528 19.1744C61.0689 19.4682 60.5028 19.6151 59.8547 19.6151C59.2065 19.6151 58.6361 19.4682 58.1436 19.1744C57.6596 18.8806 57.2794 18.4873 57.0028 17.9948C56.7263 17.5022 56.588 16.9577 56.588 16.3614ZM59.8547 17.9948C60.1744 17.9948 60.438 17.917 60.6454 17.7614C60.8615 17.6059 61.0256 17.4028 61.138 17.1522C61.2503 16.9015 61.3065 16.638 61.3065 16.3614C61.3065 16.0849 61.2503 15.8256 61.138 15.5836C61.0256 15.333 60.8615 15.1299 60.6454 14.9744C60.438 14.8188 60.1744 14.741 59.8547 14.741C59.5436 14.741 59.2756 14.8188 59.051 14.9744C58.8349 15.1299 58.6707 15.333 58.5584 15.5836C58.446 15.8256 58.3898 16.0849 58.3898 16.3614C58.3898 16.638 58.446 16.9015 58.5584 17.1522C58.6707 17.4028 58.8349 17.6059 59.051 17.7614C59.2756 17.917 59.5436 17.9948 59.8547 17.9948ZM65.5034 19.4077L63.4163 13.3281H65.3349L66.3978 17.2299L67.5774 13.3281H69.0682L70.2608 17.2299L71.3237 13.3281H73.2034L71.1163 19.4077H69.4311L68.2904 16.0114L67.1626 19.4077H65.5034Z" fill="white"/>
<path fill-rule="evenodd" clip-rule="evenodd" d="M81.3224 14.9075L78.3286 12.1066V9.81494L83.4212 14.3983V15.4168L78.3286 20.0001V17.7085L81.3224 14.9075Z" fill="white"/>
</svg>
