<svg width="728" height="90" viewBox="0 0 728 90" fill="none" xmlns="http://www.w3.org/2000/svg">
<g clip-path="url(#clip0_8342_114427)">
<g filter="url(#filter0_dd_8342_114427)">
<path d="M311.057 66.5618V68.4755" stroke="#00DFED" stroke-width="0.0789711"/>
</g>
<path d="M180.204 46.8284H283.919V58.1476H180.204V46.8284Z" fill="#FFE344"/>
<path d="M278.084 54.5403H278.312L279.219 50.6965H280.533L278.78 57.7659H277.477L278.024 55.675H277.088L275.863 50.6965H277.178L278.084 54.5403ZM192.116 48.7854C192.733 48.7854 193.401 48.8551 194.117 48.9944L194.476 49.0637L194.437 50.1292C193.64 50.0429 192.986 50.0002 192.475 50.0002C191.97 50.0003 191.615 50.0595 191.409 50.179C191.204 50.2984 191.051 50.5209 190.951 50.8459C190.858 51.1645 190.812 51.7161 190.812 52.4993C190.813 53.2757 190.908 53.8202 191.101 54.1321C191.293 54.444 191.692 54.5999 192.296 54.5999L193.122 54.5598V53.2454H192.505V52.051H194.476V55.5657C193.527 55.7183 192.757 55.7942 192.166 55.7942C191.111 55.7941 190.385 55.5123 189.986 54.9485C189.595 54.3843 189.398 53.4879 189.398 52.26C189.398 51.0322 189.604 50.1461 190.016 49.6018C190.427 49.0576 191.127 48.7854 192.116 48.7854ZM202.432 50.5872C202.823 50.5872 203.358 50.6505 204.035 50.7766L204.363 50.8362L204.344 51.9417C203.521 51.8355 202.943 51.7825 202.611 51.7825C202.286 51.7825 202.073 51.8116 201.974 51.8713C201.881 51.9311 201.835 52.0278 201.835 52.1604C201.835 52.2863 201.898 52.3758 202.023 52.429C202.156 52.4754 202.489 52.5491 203.02 52.6487C203.557 52.7416 203.938 52.8975 204.164 53.1165C204.39 53.3355 204.503 53.6907 204.503 54.1819C204.503 55.2568 203.836 55.7941 202.502 55.7942C202.064 55.7942 201.533 55.7349 200.909 55.6155L200.59 55.5559L200.63 54.4407C201.453 54.5469 202.024 54.5999 202.343 54.5999C202.668 54.5998 202.887 54.5697 203 54.51C203.119 54.4436 203.179 54.3469 203.179 54.2209C203.179 54.095 203.115 54.0023 202.989 53.9426C202.87 53.8829 202.551 53.8101 202.034 53.7239C201.523 53.6376 201.141 53.4912 200.889 53.2854C200.637 53.0797 200.511 52.7147 200.511 52.1907C200.511 51.6597 200.689 51.2609 201.048 50.9954C201.406 50.7233 201.868 50.5872 202.432 50.5872ZM209.405 48.7854C210.022 48.7854 210.69 48.855 211.406 48.9944L211.765 49.0637L211.725 50.1292C210.928 50.0429 210.275 50.0002 209.764 50.0002C209.259 50.0002 208.904 50.0595 208.698 50.179C208.493 50.2984 208.34 50.5209 208.24 50.8459C208.147 51.1645 208.102 51.7161 208.102 52.4993C208.102 53.2757 208.197 53.8202 208.39 54.1321C208.582 54.4439 208.981 54.5999 209.585 54.5999L210.411 54.5598V53.2454H209.794V52.051H211.765V55.5657C210.816 55.7183 210.046 55.7942 209.455 55.7942C208.4 55.7942 207.673 55.5126 207.274 54.9485C206.883 54.3843 206.688 53.4879 206.688 52.26C206.688 51.0321 206.893 50.1461 207.305 49.6018C207.716 49.0576 208.416 48.7854 209.405 48.7854ZM217.802 50.5774C219.249 50.5774 219.973 51.3274 219.973 52.8274L219.873 53.7532H216.946C216.953 54.0583 217.032 54.2808 217.185 54.4202C217.344 54.5529 217.57 54.6194 217.862 54.6194C218.479 54.6194 219.03 54.5996 219.515 54.5598L219.793 54.5295L219.813 55.5159C219.05 55.7017 218.359 55.7942 217.742 55.7942C216.992 55.7941 216.448 55.5956 216.109 55.1975C215.771 54.7993 215.602 54.1519 215.602 53.2561C215.602 51.4708 216.335 50.5776 217.802 50.5774ZM222.529 50.5774C223.173 50.5774 223.634 50.7104 223.913 50.9758C224.198 51.2413 224.341 51.6663 224.341 52.2502V54.3206C224.354 54.4799 224.381 54.5931 224.421 54.6594C224.461 54.7191 224.544 54.7628 224.67 54.7893L224.63 55.7942C224.291 55.7942 224.019 55.7713 223.813 55.7249C223.614 55.6784 223.412 55.5849 223.206 55.4456C222.728 55.6779 222.24 55.7942 221.742 55.7942C220.714 55.7941 220.199 55.2498 220.199 54.1614C220.199 53.6306 220.342 53.2554 220.627 53.0364C220.912 52.8107 221.351 52.6778 221.941 52.6379L223.007 52.5588V52.2502C223.007 52.0445 222.96 51.9053 222.867 51.8323C222.774 51.7527 222.625 51.7122 222.42 51.7122L220.548 51.7922L220.508 50.8665C221.218 50.674 221.892 50.5774 222.529 50.5774ZM226.748 50.6965H227.973V51.8323H226.748V53.8733C226.748 54.0722 226.751 54.2148 226.758 54.301C226.771 54.3806 226.807 54.4503 226.867 54.51C226.934 54.5697 227.033 54.5999 227.166 54.5999L227.923 54.5793L227.982 55.6448C227.538 55.7443 227.199 55.7942 226.967 55.7942C226.369 55.7942 225.961 55.6612 225.742 55.3958C225.523 55.1236 225.414 54.6258 225.414 53.9026V51.8323H224.826V50.6965H225.414V49.3127H226.748V50.6965ZM245.285 48.7854C245.902 48.7854 246.57 48.855 247.287 48.9944L247.646 49.0637L247.605 50.1292C246.809 50.0429 246.155 50.0002 245.644 50.0002C245.139 50.0003 244.784 50.0595 244.578 50.179C244.373 50.2984 244.221 50.5211 244.121 50.8459C244.028 51.1645 243.981 51.7161 243.981 52.4993C243.981 53.2757 244.077 53.8202 244.27 54.1321C244.462 54.444 244.861 54.5999 245.465 54.5999L246.291 54.5598V53.2454H245.674V52.051H247.646V55.5657C246.696 55.7183 245.926 55.7942 245.335 55.7942C244.28 55.7941 243.554 55.5123 243.155 54.9485C242.764 54.3843 242.567 53.4879 242.567 52.26C242.567 51.0322 242.773 50.1461 243.185 49.6018C243.596 49.0576 244.296 48.7855 245.285 48.7854ZM257.037 50.5774C258.484 50.5774 259.207 51.3275 259.207 52.8274L259.108 53.7532H256.181C256.187 54.0584 256.267 54.2808 256.42 54.4202C256.579 54.5529 256.805 54.6194 257.097 54.6194C257.714 54.6194 258.265 54.5996 258.749 54.5598L259.028 54.5295L259.048 55.5159C258.285 55.7016 257.595 55.7942 256.978 55.7942C256.228 55.7942 255.683 55.5955 255.345 55.1975C255.006 54.7993 254.837 54.1519 254.837 53.2561C254.837 51.4707 255.57 50.5774 257.037 50.5774ZM261.764 50.5774C262.407 50.5774 262.869 50.7104 263.147 50.9758C263.433 51.2413 263.576 51.6662 263.576 52.2502V54.3206C263.589 54.4798 263.615 54.593 263.655 54.6594C263.695 54.7192 263.778 54.7628 263.904 54.7893L263.864 55.7942C263.526 55.7942 263.254 55.7713 263.048 55.7249C262.849 55.6784 262.646 55.5849 262.44 55.4456C261.963 55.6778 261.475 55.7942 260.978 55.7942C259.949 55.7942 259.435 55.2499 259.435 54.1614C259.435 53.6305 259.577 53.2554 259.862 53.0364C260.148 52.8108 260.586 52.6778 261.177 52.6379L262.242 52.5588V52.2502C262.242 52.0447 262.195 51.9053 262.103 51.8323C262.01 51.7526 261.86 51.7122 261.654 51.7122L259.782 51.7922L259.743 50.8665C260.453 50.674 261.127 50.5774 261.764 50.5774ZM273.704 50.5774C274.348 50.5774 274.809 50.7103 275.088 50.9758C275.373 51.2413 275.516 51.6662 275.516 52.2502V54.3206C275.529 54.4799 275.556 54.5931 275.596 54.6594C275.636 54.7192 275.719 54.7628 275.845 54.7893L275.805 55.7942C275.466 55.7942 275.194 55.7713 274.988 55.7249C274.789 55.6784 274.587 55.5849 274.381 55.4456C273.903 55.6778 273.416 55.7941 272.918 55.7942C271.889 55.7942 271.374 55.2499 271.374 54.1614C271.374 53.6305 271.517 53.2554 271.803 53.0364C272.088 52.8109 272.526 52.6778 273.116 52.6379L274.182 52.5588V52.2502C274.182 52.0448 274.136 51.9054 274.043 51.8323C273.95 51.7527 273.8 51.7122 273.595 51.7122L271.723 51.7922L271.683 50.8665C272.393 50.674 273.067 50.5774 273.704 50.5774ZM189.281 55.675H187.907L187.639 54.4504H185.269L185 55.675H183.626L185.149 48.9045H187.758L189.281 55.675ZM196.749 54.4602H199.229V55.675H195.375V48.9045H196.749V54.4602ZM215.462 51.9211C214.924 52.034 214.463 52.1503 214.078 52.2698L213.879 52.3401V55.675H212.545V50.6965H213.869V51.2249C214.427 50.893 214.958 50.6769 215.462 50.5774V51.9211ZM234.732 50.0999H231.726V51.6829H234.135V52.8577H231.726V54.4797H234.732V55.675H230.352V48.9045H234.732V50.0999ZM237.507 54.4797H237.955L239.13 48.9045H240.573L239.001 55.675H236.462L234.889 48.9045H236.332L237.507 54.4797ZM249.759 55.675H248.425V50.6965H249.759V55.675ZM252.315 54.5403H252.595L253.431 50.6965H254.785L253.59 55.675H251.32L250.125 50.6965H251.52L252.315 54.5403ZM265.954 54.5403H266.192L266.949 50.7961H268.323L269.08 54.5403H269.318L269.926 50.6965H271.24L270.295 55.675H268.204L267.637 52.6282L267.068 55.675H264.978L264.032 50.6965H265.347L265.954 54.5403ZM222.101 53.5647C221.729 53.598 221.543 53.7966 221.543 54.1614C221.543 54.5264 221.706 54.7092 222.031 54.7092C222.283 54.7092 222.559 54.6697 222.857 54.5901L223.007 54.55V53.4846L222.101 53.5647ZM261.336 53.5647C260.964 53.5979 260.778 53.7965 260.778 54.1614C260.778 54.5263 260.941 54.7091 261.266 54.7092C261.518 54.7092 261.794 54.6697 262.093 54.5901L262.242 54.55V53.4846L261.336 53.5647ZM273.276 53.5647C272.905 53.5979 272.719 53.7965 272.719 54.1614C272.719 54.5264 272.881 54.7092 273.206 54.7092C273.458 54.7092 273.734 54.6697 274.032 54.5901L274.182 54.55V53.4846L273.276 53.5647ZM185.527 53.2561H187.38L186.692 50.0403H186.215L185.527 53.2561ZM217.802 51.6731C217.49 51.6732 217.267 51.7553 217.135 51.9211C217.009 52.0804 216.942 52.3528 216.936 52.7375H218.658C218.658 52.3396 218.596 52.064 218.47 51.9114C218.344 51.7521 218.12 51.6731 217.802 51.6731ZM257.037 51.6731C256.725 51.6731 256.503 51.7554 256.37 51.9211C256.244 52.0804 256.178 52.3528 256.171 52.7375H257.894C257.894 52.3395 257.83 52.064 257.704 51.9114C257.578 51.7522 257.356 51.6731 257.037 51.6731ZM199.621 51.3635H198.596L199.063 48.9045H200.468L199.621 51.3635ZM249.759 50.0598H248.425V48.7053H249.759V50.0598Z" fill="#001CB0"/>
<path d="M90.5256 19.2917H89.2235V16.0133L86.724 11.3281H88.1772L89.863 14.7461L91.5603 11.3281H93.0019L90.5256 16.0133V19.2917ZM93.0893 14.1067C93.4923 13.6029 94.1589 13.351 95.0889 13.351C96.019 13.351 96.6816 13.6029 97.0769 14.1067C97.4799 14.6104 97.6815 15.3661 97.6815 16.3737C97.6815 17.3812 97.4877 18.1408 97.1002 18.6523C96.7126 19.1639 96.0422 19.4196 95.0889 19.4196C94.1356 19.4196 93.4652 19.1639 93.0777 18.6523C92.6901 18.1408 92.4964 17.3812 92.4964 16.3737C92.4964 15.3661 92.694 14.6104 93.0893 14.1067ZM94.0426 17.885C94.2209 18.1951 94.5696 18.3501 95.0889 18.3501C95.6082 18.3501 95.957 18.1951 96.1352 17.885C96.3135 17.575 96.4026 17.0674 96.4026 16.3621C96.4026 15.6568 96.3057 15.1568 96.112 14.8623C95.926 14.5678 95.5849 14.4206 95.0889 14.4206C94.5929 14.4206 94.248 14.5678 94.0542 14.8623C93.8682 15.1568 93.7752 15.6568 93.7752 16.3621C93.7752 17.0674 93.8643 17.575 94.0426 17.885ZM102.23 13.4789H103.486V19.2917H102.23V18.9313C101.665 19.2569 101.141 19.4196 100.661 19.4196C99.8625 19.4196 99.3278 19.2065 99.0565 18.7802C98.7852 18.3462 98.6496 17.5905 98.6496 16.5132V13.4789H99.9168V16.5248C99.9168 17.2224 99.9749 17.6913 100.091 17.9315C100.207 18.1718 100.479 18.2919 100.905 18.2919C101.324 18.2919 101.707 18.2144 102.056 18.0594L102.23 17.9897V13.4789ZM104.788 19.2917V13.4789H106.043V14.1764C106.702 13.7501 107.361 13.475 108.02 13.351V14.6182C107.353 14.7499 106.783 14.9205 106.311 15.1297L106.055 15.2344V19.2917H104.788ZM113.252 13.351C113.663 13.351 114.147 13.4052 114.705 13.5137L114.996 13.5719L114.949 14.5717C114.337 14.5097 113.883 14.4787 113.589 14.4787C113 14.4787 112.605 14.6104 112.403 14.874C112.202 15.1375 112.101 15.6335 112.101 16.3621C112.101 17.0906 112.198 17.5944 112.392 17.8734C112.585 18.1524 112.988 18.2919 113.601 18.2919L114.961 18.1989L114.996 19.2104C114.213 19.3499 113.624 19.4196 113.229 19.4196C112.345 19.4196 111.721 19.1832 111.357 18.7105C111 18.2299 110.822 17.4471 110.822 16.3621C110.822 15.277 111.012 14.5058 111.392 14.0485C111.771 13.5835 112.392 13.351 113.252 13.351ZM117.256 19.2917H115.988V11.0607H117.256V13.7811C117.829 13.4944 118.36 13.351 118.848 13.351C119.623 13.351 120.15 13.5719 120.429 14.0136C120.716 14.4477 120.86 15.1685 120.86 16.176V19.2917H119.592V16.2109C119.592 15.5831 119.526 15.1375 119.395 14.874C119.263 14.6104 118.984 14.4787 118.558 14.4787C118.186 14.4787 117.814 14.5407 117.442 14.6647L117.256 14.7344V19.2917ZM126.404 15.2692V17.9199C126.412 18.0904 126.454 18.2183 126.532 18.3036C126.617 18.3811 126.745 18.4314 126.915 18.4547L126.88 19.4196C126.214 19.4196 125.699 19.2762 125.334 18.9895C124.714 19.2762 124.09 19.4196 123.463 19.4196C122.308 19.4196 121.73 18.8035 121.73 17.5711C121.73 16.9821 121.885 16.5558 122.195 16.2923C122.513 16.0288 122.997 15.8699 123.649 15.8156L125.148 15.6878V15.2692C125.148 14.9592 125.078 14.7422 124.939 14.6182C124.807 14.4942 124.61 14.4322 124.346 14.4322C123.85 14.4322 123.23 14.4632 122.486 14.5252L122.114 14.5484L122.067 13.6532C122.912 13.4517 123.687 13.351 124.393 13.351C125.106 13.351 125.617 13.506 125.927 13.816C126.245 14.1183 126.404 14.6027 126.404 15.2692ZM123.8 16.7108C123.265 16.7573 122.997 17.048 122.997 17.5828C122.997 18.1175 123.234 18.3849 123.707 18.3849C124.094 18.3849 124.505 18.3229 124.939 18.1989L125.148 18.1292V16.5829L123.8 16.7108ZM129.029 19.2917H127.762V13.4789H129.018V13.8393C129.584 13.5137 130.118 13.351 130.622 13.351C131.397 13.351 131.924 13.5719 132.203 14.0136C132.49 14.4477 132.633 15.1685 132.633 16.176V19.2917H131.378V16.2109C131.378 15.5831 131.308 15.1375 131.168 14.874C131.037 14.6104 130.762 14.4787 130.343 14.4787C129.948 14.4787 129.568 14.5562 129.204 14.7112L129.029 14.7809V19.2917ZM136.05 13.351C136.461 13.351 136.945 13.4052 137.503 13.5137L137.794 13.5719L137.747 14.5717C137.135 14.5097 136.682 14.4787 136.387 14.4787C135.798 14.4787 135.403 14.6104 135.201 14.874C135 15.1375 134.899 15.6335 134.899 16.3621C134.899 17.0906 134.996 17.5944 135.19 17.8734C135.384 18.1524 135.787 18.2919 136.399 18.2919L137.759 18.1989L137.794 19.2104C137.011 19.3499 136.422 19.4196 136.027 19.4196C135.143 19.4196 134.519 19.1832 134.155 18.7105C133.799 18.2299 133.62 17.4471 133.62 16.3621C133.62 15.277 133.81 14.5058 134.19 14.0485C134.57 13.5835 135.19 13.351 136.05 13.351ZM142.869 18.2454L143.194 18.2106L143.217 19.1522C142.334 19.3305 141.551 19.4196 140.869 19.4196C140.009 19.4196 139.389 19.1832 139.009 18.7105C138.637 18.2377 138.451 17.482 138.451 16.4434C138.451 14.3818 139.292 13.351 140.974 13.351C142.601 13.351 143.415 14.2384 143.415 16.0133L143.334 16.9201H139.73C139.737 17.4006 139.842 17.7533 140.044 17.978C140.245 18.2028 140.621 18.3152 141.171 18.3152C141.722 18.3152 142.287 18.2919 142.869 18.2454ZM142.171 15.9435C142.171 15.37 142.078 14.9708 141.892 14.7461C141.714 14.5136 141.408 14.3973 140.974 14.3973C140.54 14.3973 140.222 14.5174 140.02 14.7577C139.827 14.998 139.726 15.3932 139.718 15.9435H142.171ZM149.85 14.5601H148.246V17.1177C148.246 17.5905 148.281 17.9044 148.351 18.0594C148.42 18.2144 148.599 18.2919 148.885 18.2919L149.839 18.2571L149.897 19.2685C149.378 19.3693 148.982 19.4196 148.711 19.4196C148.052 19.4196 147.599 19.2685 147.351 18.9662C147.111 18.664 146.99 18.0943 146.99 17.2572V14.5601H146.246V13.4789H146.99V11.7931H148.246V13.4789H149.85V14.5601ZM150.971 14.1067C151.374 13.6029 152.041 13.351 152.971 13.351C153.901 13.351 154.563 13.6029 154.959 14.1067C155.362 14.6104 155.563 15.3661 155.563 16.3737C155.563 17.3812 155.37 18.1408 154.982 18.6523C154.594 19.1639 153.924 19.4196 152.971 19.4196C152.017 19.4196 151.347 19.1639 150.959 18.6523C150.572 18.1408 150.378 17.3812 150.378 16.3737C150.378 15.3661 150.576 14.6104 150.971 14.1067ZM151.924 17.885C152.103 18.1951 152.451 18.3501 152.971 18.3501C153.49 18.3501 153.839 18.1951 154.017 17.885C154.195 17.575 154.284 17.0674 154.284 16.3621C154.284 15.6568 154.188 15.1568 153.994 14.8623C153.808 14.5678 153.467 14.4206 152.971 14.4206C152.475 14.4206 152.13 14.5678 151.936 14.8623C151.75 15.1568 151.657 15.6568 151.657 16.3621C151.657 17.0674 151.746 17.575 151.924 17.885Z" fill="white"/>
<path d="M88.8526 64.0348V70.3013H88.1215V64.8514L86.5074 65.9148L86.1751 65.3641L88.169 64.0348H88.8526ZM92.9856 70.3013V63.731H96.9828V64.3766H93.7166V66.6458H96.4131V67.282H93.7166V69.6556H96.9828V70.3013H92.9856ZM101.775 63.731H102.535L100.816 70.3013H99.183L97.4645 63.731H98.224L99.7337 69.6556H100.265L101.775 63.731ZM105.153 72.4091V65.554H105.855V65.8958C106.336 65.6046 106.811 65.459 107.28 65.459C107.881 65.459 108.318 65.6521 108.59 66.0382C108.862 66.418 108.998 67.0478 108.998 67.9276C108.998 68.8075 108.837 69.4404 108.514 69.8265C108.197 70.2063 107.669 70.3962 106.928 70.3962C106.542 70.3962 106.188 70.3614 105.865 70.2918V72.4091H105.153ZM107.175 66.0952C106.985 66.0952 106.78 66.1268 106.558 66.1901C106.343 66.2534 106.172 66.3167 106.045 66.38L105.865 66.4749V69.6746C106.314 69.7443 106.656 69.7791 106.89 69.7791C107.403 69.7791 107.761 69.6335 107.963 69.3423C108.172 69.0511 108.277 68.5764 108.277 67.9181C108.277 67.2598 108.182 66.7914 107.992 66.5129C107.808 66.2344 107.536 66.0952 107.175 66.0952ZM113.198 69.7126L113.473 69.6841L113.492 70.2443C112.771 70.3456 112.154 70.3962 111.641 70.3962C110.957 70.3962 110.473 70.2 110.188 69.8076C109.903 69.4088 109.761 68.7916 109.761 67.9561C109.761 66.2914 110.422 65.459 111.745 65.459C112.385 65.459 112.863 65.6394 113.179 66.0002C113.495 66.3547 113.654 66.9149 113.654 67.6808L113.616 68.222H110.483C110.483 68.7473 110.577 69.1366 110.767 69.3898C110.957 69.643 111.286 69.7696 111.755 69.7696C112.23 69.7696 112.711 69.7506 113.198 69.7126ZM112.942 67.6523C112.942 67.0699 112.847 66.6585 112.657 66.418C112.473 66.1774 112.169 66.0572 111.745 66.0572C111.328 66.0572 111.011 66.1838 110.796 66.437C110.587 66.6902 110.479 67.0953 110.473 67.6523H112.942ZM114.574 70.3013V65.554H115.276V66.1996C115.827 65.8198 116.406 65.5698 117.014 65.4495V66.1711C116.748 66.2218 116.469 66.3009 116.178 66.4085C115.893 66.5161 115.675 66.611 115.523 66.6933L115.286 66.8168V70.3013H114.574ZM121.053 66.0952C120.363 66.0952 120.018 66.3357 120.018 66.8168C120.018 67.0383 120.097 67.1965 120.255 67.2915C120.414 67.3801 120.774 67.475 121.338 67.5763C121.901 67.6713 122.3 67.8074 122.534 67.9846C122.768 68.1618 122.885 68.4941 122.885 68.9815C122.885 69.4689 122.727 69.8265 122.411 70.0544C122.101 70.2823 121.645 70.3962 121.044 70.3962C120.651 70.3962 120.189 70.3519 119.657 70.2633L119.372 70.2158L119.41 69.5987C120.132 69.7063 120.676 69.7601 121.044 69.7601C121.411 69.7601 121.689 69.7031 121.879 69.5892C122.075 69.4689 122.173 69.2727 122.173 69.0005C122.173 68.722 122.091 68.5353 121.927 68.4403C121.762 68.3391 121.401 68.2441 120.844 68.1555C120.287 68.0669 119.891 67.9371 119.657 67.7662C119.423 67.5953 119.306 67.2788 119.306 66.8168C119.306 66.3547 119.467 66.0129 119.79 65.7913C120.119 65.5698 120.528 65.459 121.015 65.459C121.401 65.459 121.885 65.5033 122.468 65.5919L122.734 65.6394L122.715 66.2471C122.012 66.1458 121.458 66.0952 121.053 66.0952ZM126.245 66.1711H124.735V68.4403C124.735 68.9847 124.773 69.3423 124.849 69.5132C124.932 69.6841 125.122 69.7696 125.419 69.7696L126.264 69.7126L126.312 70.3013C125.887 70.3709 125.565 70.4057 125.343 70.4057C124.849 70.4057 124.508 70.2854 124.318 70.0449C124.128 69.8044 124.033 69.3455 124.033 68.6682V66.1711H123.359V65.554H124.033V64.1013H124.735V65.554H126.245V66.1711ZM130.276 66.9877V69.4183C130.295 69.6525 130.479 69.7917 130.827 69.836L130.799 70.3962C130.298 70.3962 129.922 70.2696 129.669 70.0164C129.099 70.2696 128.529 70.3962 127.96 70.3962C127.523 70.3962 127.191 70.2728 126.963 70.0259C126.735 69.7791 126.621 69.4246 126.621 68.9625C126.621 68.5005 126.738 68.1618 126.972 67.9466C127.206 67.7251 127.574 67.589 128.074 67.5383L129.564 67.3959V66.9877C129.564 66.6648 129.495 66.4338 129.355 66.2945C129.216 66.1553 129.026 66.0857 128.786 66.0857C128.279 66.0857 127.754 66.1173 127.21 66.1806L126.915 66.2091L126.887 65.6679C127.583 65.5286 128.2 65.459 128.738 65.459C129.276 65.459 129.666 65.5825 129.906 65.8293C130.153 66.0762 130.276 66.4623 130.276 66.9877ZM127.352 68.9246C127.352 69.5069 127.593 69.7981 128.074 69.7981C128.504 69.7981 128.928 69.7253 129.346 69.5797L129.564 69.5037V67.9371L128.159 68.07C127.874 68.0954 127.668 68.1776 127.542 68.3169C127.415 68.4562 127.352 68.6587 127.352 68.9246ZM133.951 66.1711H132.441V68.4403C132.441 68.9847 132.479 69.3423 132.555 69.5132C132.637 69.6841 132.827 69.7696 133.124 69.7696L133.97 69.7126L134.017 70.3013C133.593 70.3709 133.27 70.4057 133.049 70.4057C132.555 70.4057 132.213 70.2854 132.023 70.0449C131.833 69.8044 131.738 69.3455 131.738 68.6682V66.1711H131.064V65.554H131.738V64.1013H132.441V65.554H133.951V66.1711ZM137.858 69.7126L138.134 69.6841L138.153 70.2443C137.431 70.3456 136.814 70.3962 136.301 70.3962C135.618 70.3962 135.133 70.2 134.849 69.8076C134.564 69.4088 134.421 68.7916 134.421 67.9561C134.421 66.2914 135.083 65.459 136.406 65.459C137.045 65.459 137.523 65.6394 137.839 66.0002C138.156 66.3547 138.314 66.9149 138.314 67.6808L138.276 68.222H135.143C135.143 68.7473 135.238 69.1366 135.428 69.3898C135.618 69.643 135.947 69.7696 136.415 69.7696C136.89 69.7696 137.371 69.7506 137.858 69.7126ZM137.602 67.6523C137.602 67.0699 137.507 66.6585 137.317 66.418C137.134 66.1774 136.83 66.0572 136.406 66.0572C135.988 66.0572 135.671 66.1838 135.456 66.437C135.247 66.6902 135.14 67.0953 135.133 67.6523H137.602ZM144.776 63.4841V70.3013H144.074V69.9785C143.586 70.257 143.105 70.3962 142.63 70.3962C142.377 70.3962 142.156 70.3646 141.966 70.3013C141.776 70.238 141.599 70.124 141.434 69.9595C141.092 69.6177 140.921 68.9878 140.921 68.07C140.921 67.1459 141.073 66.4813 141.377 66.0762C141.687 65.6647 142.197 65.459 142.906 65.459C143.273 65.459 143.662 65.5002 144.074 65.5825V63.4841H144.776ZM141.985 69.4468C142.086 69.567 142.194 69.6493 142.308 69.6936C142.422 69.7379 142.567 69.7601 142.744 69.7601C142.928 69.7601 143.13 69.7316 143.352 69.6746C143.58 69.6113 143.757 69.5512 143.884 69.4942L144.074 69.4088V66.1901C143.669 66.1142 143.292 66.0762 142.944 66.0762C142.463 66.0762 142.127 66.2313 141.937 66.5414C141.747 66.8452 141.653 67.32 141.653 67.9656C141.653 68.6998 141.763 69.1936 141.985 69.4468ZM145.966 70.3013V65.554H146.668V66.1996C147.219 65.8198 147.798 65.5698 148.406 65.4495V66.1711C148.14 66.2218 147.862 66.3009 147.57 66.4085C147.286 66.5161 147.067 66.611 146.915 66.6933L146.678 66.8168V70.3013H145.966ZM152.41 66.9877V69.4183C152.429 69.6525 152.612 69.7917 152.961 69.836L152.932 70.3962C152.432 70.3962 152.055 70.2696 151.802 70.0164C151.233 70.2696 150.663 70.3962 150.093 70.3962C149.656 70.3962 149.324 70.2728 149.096 70.0259C148.868 69.7791 148.754 69.4246 148.754 68.9625C148.754 68.5005 148.872 68.1618 149.106 67.9466C149.34 67.7251 149.707 67.589 150.207 67.5383L151.698 67.3959V66.9877C151.698 66.6648 151.628 66.4338 151.489 66.2945C151.35 66.1553 151.16 66.0857 150.919 66.0857C150.413 66.0857 149.887 66.1173 149.343 66.1806L149.049 66.2091L149.02 65.6679C149.717 65.5286 150.334 65.459 150.872 65.459C151.41 65.459 151.799 65.5825 152.04 65.8293C152.286 66.0762 152.41 66.4623 152.41 66.9877ZM149.486 68.9246C149.486 69.5069 149.726 69.7981 150.207 69.7981C150.638 69.7981 151.062 69.7253 151.479 69.5797L151.698 69.5037V67.9371L150.293 68.07C150.008 68.0954 149.802 68.1776 149.675 68.3169C149.549 68.4562 149.486 68.6587 149.486 68.9246ZM153.236 65.554H153.948L154.907 69.6841H155.059L156.189 65.6489H156.929L158.059 69.6841H158.22L159.17 65.554H159.882L158.752 70.3013H157.565L156.559 66.5889L155.552 70.3013H154.366L153.236 65.554Z" fill="white"/>
</g>
<defs>
<filter id="filter0_dd_8342_114427" x="306.805" y="62.35" width="8.50268" height="10.3374" filterUnits="userSpaceOnUse" color-interpolation-filters="sRGB">
<feFlood flood-opacity="0" result="BackgroundImageFix"/>
<feColorMatrix in="SourceAlpha" type="matrix" values="0 0 0 0 0 0 0 0 0 0 0 0 0 0 0 0 0 0 127 0" result="hardAlpha"/>
<feOffset/>
<feGaussianBlur stdDeviation="2.1059"/>
<feComposite in2="hardAlpha" operator="out"/>
<feColorMatrix type="matrix" values="0 0 0 0 0 0 0 0 0 0.87451 0 0 0 0 0.929412 0 0 0 1 0"/>
<feBlend mode="normal" in2="BackgroundImageFix" result="effect1_dropShadow_8342_114427"/>
<feColorMatrix in="SourceAlpha" type="matrix" values="0 0 0 0 0 0 0 0 0 0 0 0 0 0 0 0 0 0 127 0" result="hardAlpha"/>
<feOffset/>
<feGaussianBlur stdDeviation="1.05295"/>
<feComposite in2="hardAlpha" operator="out"/>
<feColorMatrix type="matrix" values="0 0 0 0 0 0 0 0 0 0.87451 0 0 0 0 0.929412 0 0 0 1 0"/>
<feBlend mode="normal" in2="effect1_dropShadow_8342_114427" result="effect2_dropShadow_8342_114427"/>
<feBlend mode="normal" in="SourceGraphic" in2="effect2_dropShadow_8342_114427" result="shape"/>
</filter>
<clipPath id="clip0_8342_114427">
<rect width="728" height="90" fill="white"/>
</clipPath>
</defs>
</svg>
