<svg width="103" height="27" viewBox="0 0 103 27" fill="none" xmlns="http://www.w3.org/2000/svg">
<rect width="102.728" height="26.1981" rx="3.73271" fill="white"/>
<path d="M7.46548 18.3364H16.7972" stroke="#DC1928" stroke-width="0.898033" stroke-linecap="round"/>
<path d="M7.69012 13.5479L12.1315 16.4315L16.6705 13.5479" stroke="#DC1928" stroke-width="0.898033" stroke-linecap="round"/>
<path d="M12.1237 7.86182V16.4318" stroke="#DC1928" stroke-width="0.898033" stroke-linecap="round"/>
<path d="M24.8477 8.90616H27.7082C29.8535 8.90616 31.4354 10.2064 31.4354 12.7526C31.4354 15.2881 29.8535 16.5991 27.7082 16.5991H24.8477V8.90616ZM27.5781 10.0113H26.1804V15.4939H27.5781C29.1601 15.4939 30.0702 14.6596 30.0702 12.7526C30.0702 10.8457 29.1601 10.0113 27.5781 10.0113ZM32.1771 13.782C32.1771 11.9942 33.2498 10.8348 34.8534 10.8348C36.4462 10.8348 37.5297 11.9942 37.5297 13.782C37.5297 15.5698 36.4462 16.7291 34.8534 16.7291C33.2498 16.7291 32.1771 15.5698 32.1771 13.782ZM36.2295 13.5436C36.2295 12.4709 35.6769 11.8533 34.8534 11.8533C34.0191 11.8533 33.4774 12.4709 33.4774 13.5436V14.0095C33.4774 15.0822 34.0191 15.7106 34.8534 15.7106C35.6769 15.7106 36.2295 15.0822 36.2295 14.0095V13.5436ZM44.2933 16.5991H42.9281L41.8446 12.861L40.8152 16.5991H39.385L37.8355 10.9648H39.1033L40.1543 15.0605L41.2811 10.9648H42.3971L43.589 15.0605L44.6292 10.9648H45.8319L44.2933 16.5991ZM47.747 13.121V16.5991H46.4685V10.9648H47.747V11.6258H47.7903C48.1587 11.1382 48.6247 10.8348 49.3723 10.8348C50.4883 10.8348 51.2034 11.6583 51.2034 12.926V16.5991H49.9249V13.0344C49.9249 12.3842 49.6432 11.9183 48.9064 11.9183C48.1479 11.9183 47.747 12.4601 47.747 13.121ZM54.0336 16.5991C53.0151 16.5991 52.43 16.014 52.43 15.093V8.58111H53.7085V14.9847C53.7085 15.3531 53.8494 15.5698 54.2503 15.5698H54.6295V16.5991H54.0336ZM55.2433 13.782C55.2433 11.9942 56.316 10.8348 57.9196 10.8348C59.5124 10.8348 60.5959 11.9942 60.5959 13.782C60.5959 15.5698 59.5124 16.7291 57.9196 16.7291C56.316 16.7291 55.2433 15.5698 55.2433 13.782ZM59.2957 13.5436C59.2957 12.4709 58.7431 11.8533 57.9196 11.8533C57.0853 11.8533 56.5435 12.4709 56.5435 13.5436V14.0095C56.5435 15.0822 57.0853 15.7106 57.9196 15.7106C58.7431 15.7106 59.2957 15.0822 59.2957 14.0095V13.5436ZM64.7472 15.8515C64.4546 16.3499 63.8912 16.7291 63.0786 16.7291C62.0167 16.7291 61.2799 16.0899 61.2799 15.0497C61.2799 13.9445 62.1142 13.5219 63.0244 13.4028L64.2054 13.2511C64.6605 13.1969 64.758 13.0127 64.758 12.6551C64.758 12.1459 64.4546 11.7775 63.772 11.7775C63.0894 11.7775 62.7427 12.1567 62.6993 12.6985H61.3883C61.4208 11.7558 62.2118 10.8348 63.7395 10.8348C65.2023 10.8348 66.0366 11.6908 66.0366 12.9368V15.6348C66.0366 15.9815 66.0907 16.3282 66.1449 16.5991H64.8339C64.8014 16.3824 64.7797 16.144 64.7797 15.8515H64.7472ZM64.7689 13.6845C64.5847 13.8578 64.3463 13.9445 64.0537 13.9987L63.4903 14.1287C62.916 14.2479 62.5693 14.4754 62.5693 14.9955C62.5693 15.5264 62.8835 15.7973 63.4686 15.7973C64.1729 15.7973 64.7689 15.3206 64.7689 14.5729V13.6845ZM70.965 15.8407C70.6508 16.3607 70.0224 16.7291 69.2856 16.7291C67.9312 16.7291 66.9669 15.5698 66.9669 13.782C66.9669 11.9942 67.9312 10.8348 69.2856 10.8348C70.0224 10.8348 70.6508 11.2032 70.965 11.7233H71.0084V8.58111H72.2869V16.5991H71.0084V15.8407H70.965ZM68.2671 13.9987C68.2671 15.1039 68.7763 15.7106 69.6432 15.7106C70.445 15.7106 71.0084 15.0714 71.0084 14.0745V13.4894C71.0084 12.4926 70.445 11.8533 69.6432 11.8533C68.7763 11.8533 68.2671 12.4709 68.2671 13.5761V13.9987ZM76.8758 13.121V16.5991H75.5972V10.9648H76.8758V11.6258H76.9191C77.2875 11.1382 77.7534 10.8348 78.5011 10.8348C79.6171 10.8348 80.3322 11.6583 80.3322 12.926V16.5991H79.0537V13.0344C79.0537 12.3842 78.7719 11.9183 78.0351 11.9183C77.2767 11.9183 76.8758 12.4601 76.8758 13.121ZM81.2879 13.782C81.2879 11.9942 82.3606 10.8348 83.9642 10.8348C85.5569 10.8348 86.6405 11.9942 86.6405 13.782C86.6405 15.5698 85.5569 16.7291 83.9642 16.7291C82.3606 16.7291 81.2879 15.5698 81.2879 13.782ZM85.3402 13.5436C85.3402 12.4709 84.7876 11.8533 83.9642 11.8533C83.1299 11.8533 82.5881 12.4709 82.5881 13.5436V14.0095C82.5881 15.0822 83.1299 15.7106 83.9642 15.7106C84.7876 15.7106 85.3402 15.0822 85.3402 14.0095V13.5436ZM93.404 16.5991H92.0388L90.9553 12.861L89.926 16.5991H88.4957L86.9463 10.9648H88.214L89.265 15.0605L90.3919 10.9648H91.5079L92.6998 15.0605L93.7399 10.9648H94.9426L93.404 16.5991Z" fill="#DC1928"/>
</svg>
