<svg width="83" height="32" viewBox="0 0 83 32" fill="none" xmlns="http://www.w3.org/2000/svg">
<path d="M82.6667 10.1673C82.6667 15.6784 78.2578 20.0873 72.7467 20.0873H65.9496V31.6606H58.1422V0.247314H72.6548C78.2578 0.247314 82.6667 4.74805 82.6667 10.1673ZM71.4607 6.7688H66.0415V13.2903H71.4607C73.2059 13.2903 74.5837 11.7288 74.5837 10.0755C74.5837 8.33028 73.2059 6.7688 71.4607 6.7688ZM45.8341 0.247314V13.0147H34.9956V0.247314H27.1881V31.7525H34.9956V20.1792H45.8341V31.7525H53.6415V0.247314H45.8341ZM24.157 23.2103C24.157 28.4458 19.4726 31.7525 14.5126 31.7525H0V0.247314H14.0533C19.197 0.247314 23.4222 4.01324 23.4222 8.69768C23.4222 12.3718 21.677 14.3925 19.2889 15.8621C22.0444 17.0562 24.157 18.8014 24.157 23.2103ZM12.9511 19.0769H7.80741V25.1392H12.9511C14.9719 25.1392 16.0741 23.7614 16.0741 22.1081C16.0741 20.4547 14.6044 19.0769 12.9511 19.0769ZM12.2163 6.7688H7.80741V13.2903H12.2163C14.237 13.2903 15.3393 11.7288 15.3393 10.0755C15.3393 8.33028 14.237 6.7688 12.2163 6.7688Z" fill="#DD5900"/>
</svg>
