<?xml version="1.0" encoding="utf-8"?>
<!-- Generator: Adobe Illustrator 27.7.0, SVG Export Plug-In . SVG Version: 6.00 Build 0)  -->
<svg version="1.1" id="Layer_1" xmlns="http://www.w3.org/2000/svg" xmlns:xlink="http://www.w3.org/1999/xlink" x="0px" y="0px"
	 viewBox="0 0 180.4 52.9" style="enable-background:new 0 0 180.4 52.9;" xml:space="preserve">
<style type="text/css">
	.st0{fill:#FFFFFF;}
</style>
<path class="st0" d="M0,22.4L8.2,0.1H15l7.9,22.3h-6.4l-1.4-4.6H7.6l-1.4,4.6H0z M8.8,13.5h5.1l-2.5-8.2L8.8,13.5z M26.6,22.4V5.2
	h-6.9V0h19.7v5.2h-6.8v17.2H26.6z M53,22.4V5.2h-6.9V0h19.7v5.2H59v17.2H53z M68.1,22.4V0.1H74v8.2h8.2V0.1h5.9v22.3h-5.9v-8.7H74
	v8.7H68.1z M91.9,22.4V0.1H108v5.1H97.8v3.5h8.3v4.8h-8.3v3.8h10.9v5.1H91.9z M1.9,52.4V30.1h9.2c2.4,0,4.3,0.6,5.8,1.9
	c1.5,1.2,2.2,3,2.2,5.5c0,1.5-0.3,2.7-1,3.8c-0.6,1.1-1.5,2-2.6,2.6l4.8,8.6h-6.4l-3.8-7.6H7.7v7.6L1.9,52.4L1.9,52.4z M7.7,40.1
	h2.9c0.8,0,1.4-0.2,1.9-0.7s0.7-1.1,0.7-1.9s-0.2-1.5-0.7-2s-1.1-0.7-2-0.7H7.7V40.1z M22.6,52.4V30.1h5.9v22.3H22.6z M43.6,44.2
	v-4.6h9.2v10.1c-1.3,1.1-2.9,2-4.6,2.5c-1.7,0.5-3.5,0.7-5.2,0.7c-2.4,0-4.5-0.5-6.2-1.4c-1.7-1-3.1-2.3-4-4.1
	c-0.9-1.8-1.4-3.9-1.4-6.3c0-2.3,0.5-4.3,1.5-6.1c1-1.8,2.3-3.1,4.1-4.2c1.8-1,3.8-1.5,6.1-1.5c1.9,0,3.6,0.3,5.2,0.9
	c1.6,0.6,3,1.6,4.1,3l-3.9,3.9c-0.7-0.7-1.4-1.3-2.2-1.7c-0.8-0.4-1.7-0.7-2.7-0.7c-1.3,0-2.4,0.3-3.2,0.9c-0.9,0.6-1.6,1.3-2,2.3
	c-0.4,0.9-0.7,2-0.7,3.2c0,1.9,0.5,3.4,1.6,4.6c1.1,1.1,2.5,1.7,4.4,1.7c0.7,0,1.4-0.1,2.1-0.3c0.7-0.2,1.3-0.5,1.9-0.9v-2.1
	L43.6,44.2L43.6,44.2z M56.1,52.4V30.1H62v8.2h8.2v-8.2h5.9v22.3h-5.9v-8.7H62v8.7H56.1z M85.4,52.4V35.2h-6.9V30h19.7v5.2h-6.8
	v17.2H85.4z M111.8,52.4V35.2h-6.9V30h19.7v5.2h-6.8v17.2H111.8z M126.9,52.4V30.1h5.9v22.3H126.9z M136.1,52.4l1-22.3h5.7l5.4,9.7
	l5.3-9.7h5.7l1,22.3h-6l-0.5-13.1l-3.9,7.6h-3.2l-4.4-7.6l-0.4,13.1H136.1z M163.5,52.4V30.1h16.1v5.1h-10.1v3.5h8.3v4.8h-8.3v3.8
	h10.9v5.1H163.5z"/>
</svg>
