<svg width="97" height="27" viewBox="0 0 97 27" fill="none" xmlns="http://www.w3.org/2000/svg">
<path d="M11.315 17.6855V9.01455H13.278V15.9435H17.425V17.6855H11.315ZM23.5396 15.8395L24.3066 17.0225C24.22 17.0832 24.064 17.1829 23.8386 17.3215C23.622 17.4602 23.3316 17.5902 22.9676 17.7115C22.6036 17.8329 22.1573 17.8935 21.6286 17.8935C20.9353 17.8935 20.3373 17.7549 19.8346 17.4775C19.332 17.2002 18.9463 16.8145 18.6776 16.3205C18.409 15.8265 18.2746 15.2589 18.2746 14.6175C18.2746 14.0455 18.396 13.5125 18.6386 13.0185C18.89 12.5245 19.2496 12.1302 19.7176 11.8355C20.1943 11.5322 20.762 11.3805 21.4206 11.3805C22.0793 11.3805 22.6296 11.5322 23.0716 11.8355C23.5223 12.1302 23.8603 12.5419 24.0856 13.0705C24.3196 13.5905 24.4366 14.1929 24.4366 14.8775V15.1895H20.0946C20.1033 15.5102 20.2506 15.7962 20.5366 16.0475C20.8226 16.2989 21.2083 16.4245 21.6936 16.4245C22.179 16.4245 22.5733 16.3552 22.8766 16.2165C23.18 16.0692 23.401 15.9435 23.5396 15.8395ZM20.0946 13.9935H22.6686C22.6686 13.8202 22.621 13.6469 22.5256 13.4735C22.439 13.2915 22.3003 13.1399 22.1096 13.0185C21.9276 12.8972 21.6936 12.8365 21.4076 12.8365C21.1216 12.8365 20.879 12.8972 20.6796 13.0185C20.489 13.1399 20.3416 13.2915 20.2376 13.4735C20.1423 13.6469 20.0946 13.8202 20.0946 13.9935ZM29.0927 17.6855L29.0407 17.1135C28.6073 17.6162 27.992 17.8675 27.1947 17.8675C26.9087 17.8675 26.6053 17.8112 26.2847 17.6985C25.9727 17.5945 25.704 17.4039 25.4787 17.1265C25.2533 16.8492 25.1407 16.4679 25.1407 15.9825C25.1407 15.5059 25.262 15.1029 25.5047 14.7735C25.756 14.4442 26.094 14.1972 26.5187 14.0325C26.9433 13.8592 27.42 13.7725 27.9487 13.7725C28.1653 13.7725 28.382 13.7769 28.5987 13.7855C28.824 13.7942 28.9713 13.8072 29.0407 13.8245V13.6945C29.0407 13.3825 28.9193 13.1615 28.6767 13.0315C28.4427 12.8929 28.174 12.8235 27.8707 12.8235C27.4633 12.8235 27.121 12.8755 26.8437 12.9795C26.5663 13.0835 26.3323 13.2005 26.1417 13.3305L25.3747 12.1865C25.626 11.9872 25.9683 11.8052 26.4017 11.6405C26.835 11.4672 27.4113 11.3805 28.1307 11.3805C29.058 11.3805 29.7427 11.6319 30.1847 12.1345C30.6267 12.6285 30.8477 13.2959 30.8477 14.1365V17.6855H29.0927ZM29.0407 15.4885V14.9945C28.9973 14.9859 28.915 14.9772 28.7937 14.9685C28.6723 14.9512 28.5337 14.9425 28.3777 14.9425C27.8577 14.9425 27.4893 15.0162 27.2727 15.1635C27.056 15.3109 26.9477 15.5189 26.9477 15.7875C26.9477 16.2902 27.251 16.5415 27.8577 16.5415C28.1523 16.5415 28.421 16.4505 28.6637 16.2685C28.915 16.0865 29.0407 15.8265 29.0407 15.4885ZM32.1951 17.6855V11.5885H33.9891L34.0541 12.3555C34.2101 12.1475 34.4224 11.9482 34.6911 11.7575C34.9684 11.5669 35.3238 11.4715 35.7571 11.4715C35.9218 11.4715 36.0604 11.4802 36.1731 11.4975C36.2944 11.5149 36.4114 11.5452 36.5241 11.5885L36.2251 13.2395C36.0344 13.1789 35.8091 13.1485 35.5491 13.1485C35.1071 13.1485 34.7474 13.2829 34.4701 13.5515C34.2014 13.8115 34.0671 14.1842 34.0671 14.6695V17.6855H32.1951ZM37.3116 17.6855V11.5885H39.1056L39.1576 12.2515C39.357 12.0089 39.6213 11.8139 39.9506 11.6665C40.28 11.5192 40.618 11.4455 40.9646 11.4455C41.658 11.4455 42.2126 11.6535 42.6286 12.0695C43.0446 12.4855 43.2526 13.1009 43.2526 13.9155V17.6855H41.3806V14.1755C41.3806 13.8375 41.294 13.5689 41.1206 13.3695C40.956 13.1702 40.722 13.0705 40.4186 13.0705C40.0113 13.0705 39.6993 13.2049 39.4826 13.4735C39.2746 13.7422 39.1706 14.0542 39.1706 14.4095V17.6855H37.3116ZM46.9471 17.6855V11.5885H48.7411L48.8061 12.2645C48.9967 12.0305 49.2394 11.8355 49.5341 11.6795C49.8287 11.5235 50.1754 11.4455 50.5741 11.4455C51.0594 11.4455 51.4451 11.5365 51.7311 11.7185C52.0171 11.9005 52.2294 12.0912 52.3681 12.2905C52.6194 12.0219 52.9227 11.8139 53.2781 11.6665C53.6421 11.5192 54.0191 11.4455 54.4091 11.4455C55.1804 11.4455 55.7741 11.6709 56.1901 12.1215C56.6061 12.5635 56.8141 13.1615 56.8141 13.9155V17.6855H54.9421V14.2145C54.9421 13.8592 54.8597 13.5819 54.6951 13.3825C54.5391 13.1745 54.3007 13.0705 53.9801 13.0705C53.6247 13.0705 53.3344 13.1962 53.1091 13.4475C52.8924 13.6989 52.7841 14.0195 52.7841 14.4095V17.6855H50.9771V14.2145C50.9771 13.8592 50.8947 13.5819 50.7301 13.3825C50.5741 13.1745 50.3357 13.0705 50.0151 13.0705C49.6684 13.0705 49.3824 13.1962 49.1571 13.4475C48.9317 13.6989 48.8191 14.0195 48.8191 14.4095V17.6855H46.9471ZM57.8967 14.6305C57.8967 14.0325 58.0354 13.4865 58.3127 12.9925C58.59 12.4985 58.9714 12.1085 59.4567 11.8225C59.9507 11.5279 60.5227 11.3805 61.1727 11.3805C61.8227 11.3805 62.3904 11.5279 62.8757 11.8225C63.3697 12.1085 63.751 12.4985 64.0197 12.9925C64.297 13.4865 64.4357 14.0325 64.4357 14.6305C64.4357 15.2285 64.297 15.7745 64.0197 16.2685C63.751 16.7625 63.3697 17.1569 62.8757 17.4515C62.3904 17.7462 61.8227 17.8935 61.1727 17.8935C60.5227 17.8935 59.9507 17.7462 59.4567 17.4515C58.9714 17.1569 58.59 16.7625 58.3127 16.2685C58.0354 15.7745 57.8967 15.2285 57.8967 14.6305ZM61.1727 16.2685C61.4934 16.2685 61.7577 16.1905 61.9657 16.0345C62.1824 15.8785 62.347 15.6749 62.4597 15.4235C62.5724 15.1722 62.6287 14.9079 62.6287 14.6305C62.6287 14.3532 62.5724 14.0932 62.4597 13.8505C62.347 13.5992 62.1824 13.3955 61.9657 13.2395C61.7577 13.0835 61.4934 13.0055 61.1727 13.0055C60.8607 13.0055 60.592 13.0835 60.3667 13.2395C60.15 13.3955 59.9854 13.5992 59.8727 13.8505C59.76 14.0932 59.7037 14.3532 59.7037 14.6305C59.7037 14.9079 59.76 15.1722 59.8727 15.4235C59.9854 15.6749 60.15 15.8785 60.3667 16.0345C60.592 16.1905 60.8607 16.2685 61.1727 16.2685ZM65.5457 17.6855V11.5885H67.3397L67.4047 12.3555C67.5607 12.1475 67.773 11.9482 68.0417 11.7575C68.319 11.5669 68.6744 11.4715 69.1077 11.4715C69.2724 11.4715 69.411 11.4802 69.5237 11.4975C69.645 11.5149 69.762 11.5452 69.8747 11.5885L69.5757 13.2395C69.385 13.1789 69.1597 13.1485 68.8997 13.1485C68.4577 13.1485 68.098 13.2829 67.8207 13.5515C67.552 13.8115 67.4177 14.1842 67.4177 14.6695V17.6855H65.5457ZM75.3873 15.8395L76.1543 17.0225C76.0676 17.0832 75.9116 17.1829 75.6863 17.3215C75.4696 17.4602 75.1793 17.5902 74.8153 17.7115C74.4513 17.8329 74.005 17.8935 73.4763 17.8935C72.783 17.8935 72.185 17.7549 71.6823 17.4775C71.1796 17.2002 70.794 16.8145 70.5253 16.3205C70.2566 15.8265 70.1223 15.2589 70.1223 14.6175C70.1223 14.0455 70.2436 13.5125 70.4863 13.0185C70.7376 12.5245 71.0973 12.1302 71.5653 11.8355C72.042 11.5322 72.6096 11.3805 73.2683 11.3805C73.927 11.3805 74.4773 11.5322 74.9193 11.8355C75.37 12.1302 75.708 12.5419 75.9333 13.0705C76.1673 13.5905 76.2843 14.1929 76.2843 14.8775V15.1895H71.9423C71.951 15.5102 72.0983 15.7962 72.3843 16.0475C72.6703 16.2989 73.056 16.4245 73.5413 16.4245C74.0266 16.4245 74.421 16.3552 74.7243 16.2165C75.0276 16.0692 75.2486 15.9435 75.3873 15.8395ZM71.9423 13.9935H74.5163C74.5163 13.8202 74.4686 13.6469 74.3733 13.4735C74.2866 13.2915 74.148 13.1399 73.9573 13.0185C73.7753 12.8972 73.5413 12.8365 73.2553 12.8365C72.9693 12.8365 72.7266 12.8972 72.5273 13.0185C72.3366 13.1399 72.1893 13.2915 72.0853 13.4735C71.99 13.6469 71.9423 13.8202 71.9423 13.9935Z" fill="#002855"/>
<path d="M82.2664 8.85254L86.5997 13.1859L82.2664 17.5192" stroke="#002855" stroke-width="1.81212" stroke-linecap="round"/>
</svg>
