<svg width="642" height="71" viewBox="0 0 642 71" fill="none" xmlns="http://www.w3.org/2000/svg">
<path d="M640 66.062L0 46.062V66.062H640Z" fill="#F9DD3E"/>
<path d="M364.187 66.062H640L0 55.062L0 66.062H364.187Z" fill="url(#paint0_linear_5739_23790)"/>
<path d="M618.383 27.124H619.767V45.3425H618.383V27.124ZM613.756 36.2278V39.5834C613.756 40.1623 613.663 40.7411 613.479 41.3014C613.295 41.8608 613.021 42.3711 612.663 42.818C612.306 43.2631 611.855 43.6262 611.324 43.897C610.794 44.167 610.172 44.3041 609.473 44.3041C608.932 44.3041 608.396 44.2068 607.882 44.0147C607.37 43.8242 606.913 43.506 606.521 43.0702C606.129 42.6335 605.81 42.0563 605.574 41.3547C605.338 40.6514 605.217 39.7764 605.217 38.7532C605.217 37.818 605.332 36.9971 605.561 36.3116C605.788 35.6278 606.098 35.0548 606.482 34.6088C606.865 34.1653 607.31 33.8293 607.805 33.611C608.302 33.3935 608.837 33.2826 609.392 33.2826C610.298 33.2826 611.129 33.5526 611.862 34.0858C612.594 34.6181 613.231 35.3392 613.756 36.2278H613.756ZM613.785 34.6316C613.625 34.371 613.432 34.1095 613.21 33.8513C612.93 33.5255 612.592 33.2234 612.205 32.9543C611.818 32.6834 611.377 32.4592 610.89 32.2882C610.402 32.1164 609.854 32.0301 609.259 32.0301C608.52 32.0301 607.816 32.1816 607.168 32.4795C606.519 32.7774 605.938 33.2225 605.443 33.7989C604.948 34.3761 604.552 35.0878 604.265 35.9146C603.978 36.7415 603.833 37.6961 603.833 38.754C603.833 39.9549 603.974 40.995 604.251 41.8473C604.529 42.7029 604.921 43.4155 605.417 43.9664C605.913 44.5182 606.509 44.9261 607.186 45.1792C607.86 45.4314 608.602 45.5592 609.392 45.5592C610.419 45.5592 611.321 45.3019 612.07 44.7958C612.741 44.3413 613.307 43.7413 613.755 43.0084V44.6519C613.755 45.5313 613.652 46.2904 613.451 46.9057C613.25 47.5158 612.968 48.016 612.613 48.3909C612.259 48.7642 611.824 49.0358 611.321 49.2017C610.813 49.3684 610.236 49.453 609.606 49.453C608.779 49.453 608.008 49.3549 607.314 49.1611C606.616 48.9664 606.014 48.7337 605.524 48.4705L605.442 48.4265L605.073 49.5673L605.13 49.5969C605.63 49.8661 606.269 50.1199 607.03 50.3527C607.793 50.5863 608.641 50.7047 609.554 50.7047C611.296 50.7047 612.677 50.2012 613.661 49.2076C614.643 48.2141 615.14 46.6899 615.14 44.6773V32.2442H614.086L613.784 34.6325L613.785 34.6316ZM600.491 38.6685V40.0387C600.491 40.5617 600.385 41.0847 600.176 41.59C599.966 42.0969 599.661 42.5624 599.269 42.9737C598.876 43.3842 598.385 43.721 597.809 43.9749C597.234 44.2288 596.56 44.3566 595.807 44.3566C595.424 44.3566 595.053 44.3041 594.705 44.2C594.36 44.0968 594.054 43.9343 593.796 43.7185C593.539 43.5035 593.334 43.2293 593.189 42.9018C593.042 42.5742 592.968 42.179 592.968 41.7271C592.968 40.6684 593.312 39.8872 593.992 39.4048C594.68 38.9157 595.83 38.6685 597.411 38.6685H600.491ZM597.09 32.0267C596.178 32.0267 595.334 32.1401 594.58 32.3652C593.828 32.5895 593.202 32.8493 592.717 33.1362L592.665 33.1684L593.007 34.228L593.089 34.1823C593.598 33.9013 594.183 33.6685 594.823 33.4925C595.465 33.3165 596.229 33.2268 597.09 33.2268C598.188 33.2268 599.04 33.4824 599.621 33.9851C600.197 34.4852 600.49 35.3772 600.49 36.6332V37.4676H597.41C595.53 37.4676 594.084 37.8248 593.112 38.528C592.132 39.2364 591.636 40.3129 591.636 41.7262C591.636 42.3424 591.741 42.8942 591.95 43.3656C592.158 43.8378 592.452 44.2432 592.825 44.5715C593.196 44.8982 593.641 45.147 594.149 45.3112C594.653 45.4745 595.201 45.5566 595.777 45.5566C596.891 45.5566 597.869 45.3095 598.679 44.8212C599.427 44.3718 600.045 43.7438 600.518 42.9559L600.819 45.3417H601.846V36.6332C601.846 35.2258 601.448 34.0942 600.662 33.2699C599.876 32.4448 598.674 32.0267 597.09 32.0267Z" fill="white"/>
<path d="M571.677 10.3367C570.739 11.0907 570.588 12.4761 571.34 13.4147L583.142 28.154C583.894 29.0934 585.276 29.2457 586.213 28.4917C587.151 27.7376 587.303 26.3522 586.55 25.4136L574.749 10.6743C574.318 10.1369 573.683 9.85764 573.041 9.85764C572.562 9.85764 572.078 10.0142 571.678 10.3367" fill="white"/>
<path d="M566.835 34.8906C566.637 36.0788 567.444 37.2129 568.63 37.4109L582.29 39.6943C583.476 39.8923 584.607 39.0824 584.805 37.8942C585.003 36.7059 584.195 35.5719 583.009 35.3739L569.35 33.0905C569.23 33.0702 569.109 33.0609 568.991 33.0609C567.944 33.0609 567.012 33.8226 566.835 34.8898" fill="white"/>
<path d="M589.057 0.312971C587.863 0.452612 587 1.54435 587.138 2.74103L589.314 21.5122C589.454 22.7088 590.544 23.5729 591.737 23.4341C592.931 23.2945 593.794 22.2028 593.655 21.0061L591.479 2.23579C591.35 1.12374 590.399 0.298584 589.307 0.298584C589.225 0.298584 589.141 0.303662 589.056 0.312971" fill="white"/>
<path d="M602.102 6.62051L596.934 20.8089C596.523 21.9404 597.109 23.2039 598.238 23.6161C599.368 24.0282 600.629 23.4417 601.04 22.3094L606.207 8.12102C606.62 6.9895 606.033 5.72596 604.904 5.31381C604.659 5.2241 604.408 5.18179 604.16 5.18179C603.267 5.18179 602.425 5.73443 602.102 6.62051Z" fill="white"/>
<path d="M610.441 16.9302L604.472 23.5281C603.666 24.4201 603.734 25.8114 604.624 26.6205C605.514 27.4287 606.902 27.361 607.71 26.4681L613.678 19.8703C614.484 18.9783 614.417 17.587 613.526 16.7779C613.11 16.3996 612.584 16.2134 612.06 16.2134C611.465 16.2134 610.87 16.4546 610.441 16.9294" fill="white"/>
<line x1="553.345" y1="1.33085e-08" x2="553.345" y2="50.7439" stroke="white" stroke-width="0.608927"/>
<g clip-path="url(#clip0_5739_23790)">
<path d="M514.8 6.73583L514.818 6.70349L495.934 40.6216C495.675 41.0959 495.541 41.6241 495.541 42.1588C495.541 43.8727 496.895 45.2675 498.558 45.2675H536.468C538.132 45.2675 539.485 43.8727 539.485 42.1588C539.485 41.5788 539.33 41.014 539.035 40.5246L539.061 40.5677L520.078 6.68624L520.093 6.71211C519.561 5.72257 518.549 5.10815 517.45 5.10815C516.352 5.10815 515.327 5.7312 514.797 6.73583" fill="white"/>
<path d="M534.188 35.8164C534.564 35.8164 534.872 36.1333 534.872 36.5214C534.872 36.9094 534.564 37.2263 534.188 37.2263C533.811 37.2263 533.503 36.9094 533.503 36.5214C533.503 36.1333 533.811 35.8164 534.188 35.8164ZM534.188 37.0711C534.46 37.0711 534.675 36.8469 534.675 36.5214C534.675 36.1958 534.46 35.9716 534.188 35.9716C533.916 35.9716 533.7 36.1958 533.7 36.5214C533.7 36.8469 533.913 37.0711 534.188 37.0711ZM533.913 36.1269H534.2C534.393 36.1269 534.503 36.1851 534.503 36.3618C534.503 36.5041 534.42 36.5602 534.303 36.571L534.503 36.9116H534.336L534.154 36.5796H534.077V36.9116H533.913V36.1269ZM534.211 36.4481C534.288 36.4481 534.342 36.4351 534.342 36.3446C534.342 36.2648 534.259 36.254 534.194 36.254H534.079V36.4481H534.211Z" fill="#007A53"/>
<path d="M533.585 34.2038L518.486 7.30511C518.264 6.89334 517.839 6.61523 517.352 6.61523C516.864 6.61523 516.433 6.89765 516.212 7.31373L505.585 26.4168C508.947 26.6108 510.571 25.0565 512.142 23.5495C513.54 22.2129 514.981 20.8288 517.389 20.8288C520.496 20.8288 522.084 23.8082 522.151 23.944C522.367 24.3903 522.191 24.9379 521.758 25.1621C521.323 25.3863 520.812 25.2095 520.572 24.7633C520.48 24.5951 519.308 22.6484 517.387 22.6484C515.676 22.6484 514.647 23.6336 513.345 24.8818C511.634 26.5224 509.102 28.1501 504.887 27.6672L501.227 34.2469C501.121 34.4409 501.062 34.6651 501.062 34.9023C501.062 35.6396 501.642 36.2367 502.357 36.2367H517.565C517.389 35.9824 515.559 33.3199 515.559 33.3199C514.789 32.0932 515.423 31.0756 515.63 30.7522L517.841 27.1002C517.967 26.8933 518.164 26.7488 518.392 26.6949C518.622 26.641 518.858 26.6798 519.059 26.8092C519.471 27.0765 519.599 27.6392 519.339 28.0639L517.107 31.7504C516.946 32.0026 516.902 32.0953 517.061 32.3562C517.481 33.0504 519.523 36.1721 519.565 36.2367H532.485C533.2 36.2367 533.78 35.6396 533.78 34.9023C533.78 34.6457 533.708 34.4043 533.587 34.2016M527.493 26.8588C527.254 27.1131 526.959 27.1714 526.679 27.014C526.438 26.8782 525.938 26.6518 525.294 26.6518C524.649 26.6518 523.725 26.8609 523.07 27.6629C523.07 27.6629 520.021 31.6146 520.019 31.6146C519.971 31.6857 519.781 31.8259 519.561 31.8366C519.394 31.8474 519.243 31.7784 519.122 31.6405C519.011 31.5111 518.967 31.3645 518.967 31.2287C518.967 31.0929 519.007 30.9721 519.061 30.8751C520.408 28.5209 521.074 27.3589 521.076 27.3546C522.172 25.5113 523.551 25.0327 524.769 24.9875C524.66 24.5822 524.191 22.8532 524.191 22.8489C524.145 22.6591 524.076 22.3293 524.377 22.1353C524.741 21.896 525.045 22.1159 525.16 22.3099L527.564 26.0719C527.673 26.2443 527.698 26.6324 527.493 26.8545" fill="#007A53"/>
<path d="M525.16 22.3143C525.043 22.1182 524.742 21.9004 524.378 22.1397C524.078 22.3359 524.145 22.6636 524.191 22.8533C524.191 22.8555 524.66 24.5845 524.769 24.9919C523.549 25.0372 522.17 25.5158 521.076 27.3591C521.076 27.3634 520.409 28.5254 519.061 30.8796C519.007 30.9744 518.967 31.0995 518.967 31.2331C518.967 31.3668 519.009 31.5156 519.122 31.6449C519.241 31.7829 519.392 31.8497 519.561 31.8411C519.783 31.8303 519.972 31.688 520.02 31.619L523.07 27.6673C523.725 26.8654 524.616 26.6562 525.294 26.6562C525.972 26.6562 526.438 26.8826 526.679 27.0184C526.959 27.1758 527.254 27.1176 527.493 26.8632C527.7 26.6412 527.673 26.2509 527.564 26.0806L525.16 22.3187V22.3143Z" fill="#FFA400"/>
<path d="M513.348 24.886C514.649 23.6378 515.676 22.6526 517.39 22.6526C519.31 22.6526 520.482 24.5993 520.574 24.7675C520.815 25.2137 521.325 25.3905 521.76 25.1663C522.193 24.9399 522.369 24.3923 522.154 23.9482C522.087 23.8124 520.497 20.833 517.392 20.833C514.986 20.833 513.542 22.2171 512.145 23.5537C510.573 25.0607 508.95 26.615 505.588 26.421L504.891 27.6736C509.107 28.1565 511.638 26.5288 513.35 24.8882" fill="#FFA400"/>
<path d="M517.108 31.7548L519.34 28.0683C519.6 27.6436 519.472 27.0809 519.06 26.8136C518.859 26.6842 518.623 26.6433 518.392 26.6993C518.164 26.7532 517.968 26.8976 517.842 27.1046L515.631 30.7566C515.424 31.08 514.79 32.0976 515.56 33.3243C515.56 33.3243 517.39 35.9889 517.566 36.2411H519.564C519.522 36.1786 517.48 33.0548 517.06 32.3606C516.903 32.0997 516.945 32.007 517.106 31.7548" fill="#FFA400"/>
<path d="M500.267 37.7524H501.115L502.115 40.4257H501.355L501.163 39.8544H500.188L499.983 40.4257H499.28L500.265 37.7524H500.267ZM500.69 38.3043H500.682L500.347 39.3499H500.997L500.69 38.3043Z" fill="#007A53"/>
<path d="M504.55 39.4103C504.55 40.1411 504.09 40.4709 503.412 40.4709C502.734 40.4709 502.274 40.1411 502.274 39.4103V37.7502H502.966V39.2895C502.966 39.6409 503.058 39.9406 503.412 39.9406C503.766 39.9406 503.858 39.6409 503.858 39.2895V37.7502H504.55V39.4103Z" fill="#007A53"/>
<path d="M504.929 39.7658C505.106 39.865 505.355 39.9426 505.642 39.9426C505.862 39.9426 506.069 39.8973 506.069 39.6818C506.069 39.1838 504.843 39.4985 504.843 38.5241C504.843 37.8795 505.452 37.7048 505.973 37.7048C506.222 37.7048 506.466 37.7436 506.642 37.804L506.598 38.3559C506.42 38.2718 506.219 38.233 506.023 38.233C505.847 38.233 505.558 38.2481 505.558 38.4831C505.558 38.9164 506.784 38.6254 506.784 39.5912C506.784 40.2854 506.219 40.473 505.642 40.473C505.399 40.473 505.1 40.4342 504.868 40.3587L504.926 39.768L504.929 39.7658Z" fill="#007A53"/>
<path d="M507.565 38.2806H506.925V37.7524H508.896V38.2806H508.255V40.4257H507.563V38.2806H507.565Z" fill="#007A53"/>
<path d="M509.167 37.7524H510.402C510.862 37.7524 511.239 37.968 511.239 38.4272C511.239 38.7829 511.076 39.0201 510.741 39.102V39.1106C510.965 39.171 510.979 39.3758 511.109 39.7013L511.362 40.43H510.64L510.492 39.9471C510.35 39.4879 510.262 39.3715 510.004 39.3715H509.86V40.4279H509.167V37.7546V37.7524ZM509.858 38.8627H510.04C510.264 38.8627 510.546 38.8541 510.546 38.5523C510.546 38.3022 510.304 38.2569 510.04 38.2569H509.858V38.8627Z" fill="#007A53"/>
<path d="M512.44 37.7524H513.287L514.287 40.4257H513.528L513.335 39.8544H512.36L512.155 40.4257H511.452L512.438 37.7524H512.44ZM512.862 38.3043H512.854L512.519 39.3499H513.17L512.862 38.3043Z" fill="#007A53"/>
<path d="M514.483 37.7524H515.176V39.8975H516.247V40.4257H514.485V37.7524H514.483Z" fill="#007A53"/>
<path d="M516.511 37.7524H517.203V40.4257H516.511V37.7524Z" fill="#007A53"/>
<path d="M518.344 37.7524H519.191L520.191 40.4257H519.432L519.239 39.8544H518.264L518.059 40.4257H517.356L518.342 37.7524H518.344ZM518.767 38.3043H518.758L518.423 39.3499H519.074L518.767 38.3043Z" fill="#007A53"/>
<path d="M520.325 37.7524H521.206L522.083 39.5677H522.091L522.081 37.7524H522.712V40.4257H521.855L520.947 38.5975H520.938L520.961 40.4257H520.325V37.7524Z" fill="#007A53"/>
<path d="M524.401 37.7524H525.491L526.041 39.531H526.05L526.625 37.7524H527.673V40.4257H526.995L527.006 38.3712H526.997L526.336 40.4257H525.7L525.068 38.3712H525.06L525.075 40.4257H524.399V37.7524H524.401Z" fill="#007A53"/>
<path d="M528.836 37.7524H529.683L530.684 40.4257H529.924L529.732 39.8544H528.757L528.552 40.4257H527.849L528.834 37.7524H528.836ZM529.259 38.3043H529.25L528.916 39.3499H529.566L529.259 38.3043Z" fill="#007A53"/>
<path d="M530.88 37.7524H531.823C532.727 37.7524 533.359 38.0435 533.359 39.0783C533.359 40.1131 532.708 40.4279 531.823 40.4279H530.88V37.7546V37.7524ZM531.572 39.8975H531.84C532.357 39.8975 532.648 39.6216 532.648 39.0891C532.648 38.5566 532.347 38.2806 531.84 38.2806H531.572V39.8975Z" fill="#007A53"/>
<path d="M533.68 37.7524H535.508V38.2591H534.37V38.811H535.446V39.3176H534.37V39.9234H535.548V40.43H533.678V37.7568L533.68 37.7524Z" fill="#007A53"/>
<path d="M506.673 41.0378H507.52L508.52 43.7111H507.761L507.569 43.1398H506.594L506.389 43.7111H505.686L506.671 41.0378H506.673ZM507.096 41.5897H507.087L506.753 42.6353H507.403L507.096 41.5897Z" fill="#007A53"/>
<path d="M508.728 41.0378H509.609L510.486 42.8531H510.494L510.484 41.0378H511.115V43.7111H510.255L509.347 41.8829H509.339L509.362 43.7111H508.726V41.0378H508.728Z" fill="#007A53"/>
<path d="M511.536 41.0378H512.479C513.383 41.0378 514.015 41.3289 514.015 42.3637C514.015 43.3985 513.364 43.7133 512.479 43.7133H511.536V41.04V41.0378ZM512.226 43.1829H512.494C513.011 43.1829 513.301 42.907 513.301 42.3745C513.301 41.842 513 41.566 512.494 41.566H512.226V43.1829Z" fill="#007A53"/>
<path d="M516.622 40.9924C517.478 40.9924 517.923 41.5163 517.923 42.3765C517.923 43.2367 517.469 43.7584 516.622 43.7584C515.775 43.7584 515.321 43.2259 515.321 42.3765C515.321 41.5271 515.766 40.9924 516.622 40.9924ZM516.622 43.2302C517.043 43.2302 517.21 42.8163 517.21 42.3765C517.21 41.913 517.043 41.5228 516.622 41.5228C516.202 41.5228 516.034 41.913 516.034 42.3765C516.034 42.84 516.202 43.2302 516.622 43.2302Z" fill="#007A53"/>
<path d="M517.875 41.0378H518.583L518.917 43.0924H518.926L519.275 41.0378H520.152L520.516 43.0924H520.524L520.863 41.0378H521.537L520.957 43.7111H520.068L519.7 41.6566H519.692L519.35 43.7111H518.455L517.88 41.0378H517.875Z" fill="#007A53"/>
<path d="M521.741 41.0378H522.622L523.499 42.8531H523.505L523.495 41.0378H524.126V43.7111H523.267L522.361 41.8829H522.352L522.375 43.7111H521.739V41.0378H521.741Z" fill="#007A53"/>
<path d="M524.53 41.0378H526.361V41.5445H525.223V42.0964H526.296V42.603H525.223V43.2088H526.401V43.7154H524.53V41.0422V41.0378Z" fill="#007A53"/>
<path d="M526.67 41.0378H527.614C528.518 41.0378 529.15 41.3289 529.15 42.3637C529.15 43.3985 528.499 43.7133 527.614 43.7133H526.67V41.04V41.0378ZM527.363 43.1829H527.631C528.147 43.1829 528.438 42.907 528.438 42.3745C528.438 41.842 528.137 41.566 527.631 41.566H527.363V43.1829Z" fill="#007A53"/>
</g>
<defs>
<linearGradient id="paint0_linear_5739_23790" x1="-3.82529" y1="66.2355" x2="799.266" y2="55.5105" gradientUnits="userSpaceOnUse">
<stop offset="0.238363" stop-color="#00CEED"/>
<stop offset="0.473958" stop-color="#0076BF"/>
<stop offset="0.733675" stop-color="#00168D"/>
</linearGradient>
<clipPath id="clip0_5739_23790">
<rect width="44.3687" height="40.5105" fill="white" transform="translate(495.285 4.89404)"/>
</clipPath>
</defs>
</svg>
