<?xml version="1.0" encoding="utf-8"?>
<!-- Generator: Adobe Illustrator 27.7.0, SVG Export Plug-In . SVG Version: 6.00 Build 0)  -->
<svg version="1.1" id="Layer_1" xmlns="http://www.w3.org/2000/svg" xmlns:xlink="http://www.w3.org/1999/xlink" x="0px" y="0px"
	 viewBox="0 0 170 32" style="enable-background:new 0 0 170 32;" xml:space="preserve">
<path d="M3.3,29.1c-1.4,0-2.6-0.7-2.6-2.3c0-1.8,1.8-2.5,4-2.5h1v-0.4c0-1.1-0.4-1.6-1.4-1.6c-0.9,0-1.4,0.5-1.5,1.2H1
	C1.1,21.8,2.6,21,4.3,21s3.1,0.7,3.1,2.9V29H5.7v-1C5.2,28.7,4.5,29.1,3.3,29.1z M3.7,27.8c1.1,0,1.9-0.6,1.9-1.6v-0.8H4.7
	c-1.4,0-2.3,0.3-2.3,1.3C2.4,27.4,2.8,27.8,3.7,27.8z M9.3,29V17.5h1.8V29H9.3z M13,29v-7.8h1.8V29H13z M13.9,19.9
	c-0.6,0-1.1-0.4-1.1-1c0-0.6,0.5-1,1.1-1c0.6,0,1.1,0.4,1.1,1C15,19.4,14.5,19.9,13.9,19.9z M16.8,29v-7.8h1.8v1.2
	C19,21.6,19.8,21,21,21c1,0,1.8,0.4,2.2,1.4c0.6-1,1.7-1.4,2.7-1.4c1.4,0,2.6,0.9,2.6,3v5h-1.8v-4.8c0-1.2-0.5-1.7-1.4-1.7
	s-1.7,0.6-1.7,1.8V29h-1.8v-4.8c0-1.2-0.5-1.7-1.4-1.7c-0.9,0-1.7,0.6-1.7,1.8V29H16.8z M33.7,29.1c-2.3,0-4-1.5-4-4V25
	c0-2.4,1.7-4.1,3.9-4.1c1.9,0,3.7,1.2,3.7,4v0.5h-5.7c0.1,1.5,0.8,2.3,2.2,2.3c1.1,0,1.7-0.4,1.8-1.2h1.8
	C37,28.2,35.7,29.1,33.7,29.1z M31.6,24.3h3.9c-0.1-1.4-0.8-2-1.9-2C32.5,22.3,31.8,23,31.6,24.3z M38.6,29v-7.8h1.8v1.2
	c0.4-0.8,1.2-1.4,2.5-1.4c1.6,0,2.7,0.9,2.7,3.1V29h-1.8v-4.8c0-1.2-0.5-1.7-1.6-1.7c-1,0-1.8,0.6-1.8,1.9V29H38.6z M50.1,29.1
	c-1.6,0-2.4-0.8-2.4-2.3v-4.3h-1v-1.4h1v-1.7h1.8v1.7h1.7v1.4h-1.7v4.1c0,0.7,0.3,1,0.9,1c0.4,0,0.6,0,0.9-0.1v1.4
	C51.1,29,50.7,29.1,50.1,29.1z M54.8,29.1c-1.4,0-2.6-0.7-2.6-2.3c0-1.8,1.8-2.5,4-2.5h1v-0.4c0-1.1-0.4-1.6-1.4-1.6
	c-0.9,0-1.4,0.5-1.5,1.2h-1.8c0.2-1.8,1.6-2.6,3.4-2.6s3.1,0.7,3.1,2.9V29h-1.8v-1C56.7,28.7,56,29.1,54.8,29.1z M55.3,27.8
	c1.1,0,1.9-0.6,1.9-1.6v-0.8h-0.9c-1.4,0-2.3,0.3-2.3,1.3C54,27.4,54.4,27.8,55.3,27.8z M60.8,29v-7.8h1.8v1.5
	c0.5-1,1.2-1.6,2.5-1.6v1.7c-1.6,0-2.5,0.5-2.5,2.2V29H60.8z M69.7,31.7V21.2h1.8v1.3C72,21.7,73,21,74.1,21c2,0,3.5,1.5,3.5,4v0.1
	c0,2.5-1.5,4-3.5,4c-1.2,0-2.1-0.6-2.6-1.4v3.9H69.7z M73.7,27.7c1.3,0,2.1-0.9,2.1-2.6V25c0-1.7-0.9-2.6-2.1-2.6
	c-1.3,0-2.2,0.9-2.2,2.6v0.1C71.5,26.9,72.3,27.7,73.7,27.7z M81,29.1c-1.4,0-2.6-0.7-2.6-2.3c0-1.8,1.8-2.5,4-2.5h1v-0.4
	c0-1.1-0.4-1.6-1.4-1.6c-0.9,0-1.4,0.5-1.5,1.2h-1.8c0.2-1.8,1.6-2.6,3.4-2.6s3.1,0.7,3.1,2.9V29h-1.8v-1
	C82.9,28.7,82.2,29.1,81,29.1z M81.4,27.8c1.1,0,1.9-0.6,1.9-1.6v-0.8h-0.9c-1.4,0-2.3,0.3-2.3,1.3C80.2,27.4,80.5,27.8,81.4,27.8z
	 M86.9,29v-7.8h1.8v1.5c0.5-1,1.2-1.6,2.5-1.6v1.7c-1.6,0-2.5,0.5-2.5,2.2V29H86.9z M94.5,29.1c-1.4,0-2.6-0.7-2.6-2.3
	c0-1.8,1.8-2.5,4-2.5h1v-0.4c0-1.1-0.4-1.6-1.4-1.6c-0.9,0-1.4,0.5-1.5,1.2h-1.8c0.2-1.8,1.6-2.6,3.4-2.6c1.8,0,3.1,0.7,3.1,2.9V29
	h-1.8v-1C96.4,28.7,95.7,29.1,94.5,29.1z M95,27.8c1.1,0,1.9-0.6,1.9-1.6v-0.8H96c-1.4,0-2.3,0.3-2.3,1.3
	C93.7,27.4,94.1,27.8,95,27.8z M107.3,27.7c1.4,0,2.2-1,2.2-2.6V25c0-1.6-0.8-2.6-2.2-2.6c-1.3,0-2.2,1-2.2,2.6v0.1
	C105.1,26.7,105.9,27.7,107.3,27.7z M107.3,29.1c-2.3,0-4-1.6-4-4V25c0-2.4,1.7-4.1,4-4.1c2.3,0,4,1.6,4,4v0.1
	C111.3,27.6,109.6,29.1,107.3,29.1z M115.9,31.7V21.2h1.8v1.3c0.4-0.8,1.4-1.4,2.6-1.4c2,0,3.5,1.5,3.5,4v0.1c0,2.5-1.5,4-3.5,4
	c-1.2,0-2.1-0.6-2.6-1.4v3.9H115.9z M119.8,27.7c1.3,0,2.1-0.9,2.1-2.6V25c0-1.7-0.9-2.6-2.1-2.6c-1.3,0-2.2,0.9-2.2,2.6v0.1
	C117.7,26.9,118.5,27.7,119.8,27.7z M125.1,29V17.5h1.8V29H125.1z M130.9,29.1c-1.4,0-2.6-0.7-2.6-2.3c0-1.8,1.8-2.5,4-2.5h1v-0.4
	c0-1.1-0.4-1.6-1.4-1.6c-0.9,0-1.4,0.5-1.5,1.2h-1.8c0.1-1.8,1.6-2.6,3.4-2.6c1.8,0,3.1,0.7,3.1,2.9V29h-1.8v-1
	C132.8,28.7,132.1,29.1,130.9,29.1z M131.4,27.8c1.1,0,1.9-0.6,1.9-1.6v-0.8h-0.9c-1.4,0-2.3,0.3-2.3,1.3
	C130.1,27.4,130.5,27.8,131.4,27.8z M136.9,29v-7.8h1.8v1.2c0.4-0.8,1.2-1.4,2.5-1.4c1.6,0,2.7,0.9,2.7,3.1V29h-1.8v-4.8
	c0-1.2-0.5-1.7-1.6-1.7c-1,0-1.8,0.6-1.8,1.9V29H136.9z M149.2,29.1c-2.3,0-4-1.5-4-4V25c0-2.4,1.7-4.1,3.9-4.1c1.9,0,3.7,1.2,3.7,4
	v0.5h-5.7c0.1,1.5,0.8,2.3,2.2,2.3c1.1,0,1.7-0.4,1.8-1.2h1.8C152.5,28.2,151.2,29.1,149.2,29.1z M147.1,24.3h3.9
	c-0.1-1.4-0.8-2-1.9-2C148,22.3,147.3,23,147.1,24.3z M156.8,29.1c-1.6,0-2.4-0.8-2.4-2.3v-4.3h-1.1v-1.4h1.1v-1.7h1.8v1.7h1.7v1.4
	h-1.7v4.1c0,0.7,0.3,1,0.9,1c0.4,0,0.6,0,0.9-0.1v1.4C157.7,29,157.3,29.1,156.8,29.1z M161.5,29.1c-1.4,0-2.6-0.7-2.6-2.3
	c0-1.8,1.8-2.5,4-2.5h1v-0.4c0-1.1-0.4-1.6-1.4-1.6c-0.9,0-1.4,0.5-1.5,1.2h-1.8c0.1-1.8,1.6-2.6,3.4-2.6c1.8,0,3.1,0.7,3.1,2.9V29
	h-1.8v-1C163.4,28.7,162.7,29.1,161.5,29.1z M161.9,27.8c1.1,0,1.9-0.6,1.9-1.6v-0.8h-0.9c-1.4,0-2.3,0.3-2.3,1.3
	C160.7,27.4,161,27.8,161.9,27.8z M168.5,29.1c-0.7,0-1.2-0.5-1.2-1.2s0.5-1.2,1.2-1.2c0.7,0,1.2,0.5,1.2,1.2S169.2,29.1,168.5,29.1
	z"/>
</svg>
