<svg width="222" height="23" viewBox="0 0 222 23" fill="none" xmlns="http://www.w3.org/2000/svg">
<path d="M6.5287 21.8257V5.51984H0V0.583506H18.6944V5.51984H12.2294V21.8257H6.5287Z" fill="white"/>
<path d="M20.6037 21.8257V0.583506H26.2407V8.35425H34.0751V0.583506H39.7121V21.8257H34.0751V13.5135H26.2407V21.8257H20.6037Z" fill="white"/>
<path d="M41.1047 21.8257L48.9073 0.583506H55.3723L62.8882 21.8257H56.8054L55.436 17.4307H48.334L46.9327 21.8257H41.1047ZM49.4805 13.3224H54.2895L51.9328 5.51984L49.4805 13.3224Z" fill="white"/>
<path d="M66.0421 21.8257V5.51984H59.5134V0.583506H78.2078V5.51984H71.7428V21.8257H66.0421Z" fill="white"/>
<path d="M79.5439 8.48164L80.3719 0.583506H85.977L83.5248 8.48164H79.5439Z" fill="white"/>
<path d="M84.5732 19.2142L87.9809 15.1059C88.5754 15.7004 89.3503 16.2418 90.3058 16.7301C91.2824 17.2184 92.3334 17.4626 93.4586 17.4626C94.0319 17.4626 94.5839 17.3458 95.1147 17.1123C95.6455 16.8787 95.9109 16.4328 95.9109 15.7747C95.9109 15.2227 95.6243 14.7662 95.051 14.4052C94.4778 14.0231 93.6603 13.6621 92.5988 13.3224L91.4204 12.9403C90.5499 12.643 89.6794 12.2502 88.8089 11.7619C87.9597 11.2524 87.2484 10.6048 86.6752 9.81923C86.1231 9.03366 85.8471 8.06762 85.8471 6.92112C85.8471 5.60476 86.155 4.42641 86.7707 3.38607C87.4077 2.34572 88.3418 1.52831 89.5733 0.933827C90.8047 0.318112 92.3015 0.0102539 94.0637 0.0102539C95.465 0.0102539 96.6752 0.169491 97.6943 0.487965C98.7347 0.806438 99.5946 1.17799 100.274 1.60262C100.953 2.02725 101.452 2.40942 101.771 2.74912L98.9045 6.37972C98.1614 5.8277 97.3865 5.38183 96.5797 5.04213C95.7729 4.68119 94.9449 4.50072 94.0956 4.50072C93.5436 4.50072 93.0128 4.62811 92.5032 4.88289C92.0149 5.11644 91.7707 5.53045 91.7707 6.12494C91.7707 6.78311 92.068 7.26082 92.6625 7.55807C93.257 7.85531 94.0107 8.15255 94.9236 8.44979L95.9427 8.76826C96.6646 8.98058 97.3865 9.25659 98.1083 9.59629C98.8515 9.91477 99.5309 10.3288 100.147 10.8383C100.762 11.3479 101.251 11.9955 101.612 12.781C101.994 13.5454 102.185 14.4902 102.185 15.6154C102.185 16.9106 101.792 18.0677 101.006 19.0868C100.242 20.1059 99.2018 20.9021 97.8854 21.4753C96.5903 22.0486 95.1465 22.3352 93.5542 22.3352C91.431 22.3352 89.6476 22.0486 88.2038 21.4753C86.7813 20.9021 85.5711 20.1484 84.5732 19.2142Z" fill="white"/>
<path d="M106.677 21.7943L114.472 0.572697H120.931L128.44 21.7943H122.363L120.995 17.4036H113.9L112.5 21.7943H106.677ZM115.045 13.2993H119.849L117.495 5.50425L115.045 13.2993Z" fill="#FFD000"/>
<path d="M135.918 21.7943V0.572697H144.572C146.842 0.572697 148.666 1.17721 150.045 2.38624C151.424 3.57405 152.113 5.31336 152.113 7.60414C152.113 9.04649 151.795 10.3085 151.158 11.3903C150.522 12.4509 149.652 13.2781 148.549 13.872C147.446 14.4447 146.174 14.731 144.731 14.731H141.423V21.7943H135.918ZM141.423 10.3085H144.095C144.859 10.3085 145.463 10.0646 145.909 9.57677C146.354 9.08891 146.577 8.46319 146.577 7.69959C146.577 6.89357 146.365 6.24664 145.94 5.75879C145.516 5.27093 144.891 5.02701 144.063 5.02701H141.423V10.3085Z" fill="#FFD000"/>
<path d="M153.948 21.7943V0.572697H159.58V16.8309H169.411V21.7943H153.948Z" fill="#FFD000"/>
<path d="M170.895 13.522V0.572697H176.526V13.0129C176.526 14.1796 176.791 15.134 177.322 15.8764C177.873 16.6188 178.775 16.99 180.026 16.99C181.278 16.99 182.168 16.6188 182.699 15.8764C183.229 15.1128 183.494 14.1583 183.494 13.0129V0.572697H189.189V13.522C189.189 15.3249 188.797 16.8946 188.012 18.2309C187.227 19.5459 186.146 20.5641 184.767 21.2852C183.409 21.9852 181.84 22.3352 180.058 22.3352C178.276 22.3352 176.696 21.9852 175.317 21.2852C173.939 20.5853 172.857 19.5778 172.072 18.2627C171.287 16.9264 170.895 15.3462 170.895 13.522Z" fill="#FFD000"/>
<path d="M190.797 19.1853L194.201 15.081C194.795 15.6749 195.569 16.2158 196.524 16.7037C197.499 17.1915 198.549 17.4354 199.674 17.4354C200.246 17.4354 200.798 17.3188 201.328 17.0855C201.858 16.8521 202.123 16.4067 202.123 15.7492C202.123 15.1977 201.837 14.7416 201.264 14.3811C200.692 13.9993 199.875 13.6387 198.815 13.2993L197.637 12.9175C196.768 12.6205 195.898 12.2281 195.028 11.7403C194.18 11.2312 193.469 10.5843 192.897 9.79948C192.345 9.01467 192.069 8.04957 192.069 6.90418C192.069 5.5891 192.377 4.41189 192.992 3.37255C193.628 2.33321 194.562 1.51659 195.792 0.92268C197.022 0.30756 198.518 0 200.278 0C201.678 0 202.887 0.159083 203.905 0.477249C204.944 0.795413 205.804 1.16661 206.482 1.59082C207.161 2.01505 207.66 2.39684 207.978 2.73622L205.114 6.3633C204.372 5.81181 203.598 5.36638 202.792 5.02701C201.986 4.66642 201.158 4.48613 200.31 4.48613C199.758 4.48613 199.228 4.61339 198.719 4.86793C198.231 5.10125 197.987 5.51486 197.987 6.10877C197.987 6.76631 198.284 7.24356 198.878 7.54051C199.472 7.83746 200.225 8.13442 201.137 8.43137L202.155 8.74954C202.876 8.96165 203.598 9.23739 204.319 9.57677C205.061 9.89493 205.74 10.3085 206.355 10.8176C206.97 11.3267 207.458 11.9736 207.819 12.7584C208.2 13.522 208.391 14.4659 208.391 15.5901C208.391 16.884 207.999 18.04 207.214 19.0581C206.45 20.0762 205.411 20.8716 204.096 21.4443C202.802 22.017 201.36 22.3034 199.769 22.3034C197.648 22.3034 195.866 22.017 194.424 21.4443C193.003 20.8716 191.794 20.1186 190.797 19.1853Z" fill="#FFD000"/>
<path d="M214.813 21.9817V18.6979H211.603V15.463H214.813V12.1301H218.146V15.463H221.381V18.6979H218.146V21.9817H214.813Z" fill="#FFD000"/>
</svg>
