<svg width="68" height="26" viewBox="0 0 68 26" fill="none" xmlns="http://www.w3.org/2000/svg">
<path d="M67.1667 8.06C67.1667 12.5378 63.5844 16.12 59.1067 16.12H53.5841V25.5233H47.2406V0H59.032C63.5844 0 67.1667 3.65685 67.1667 8.06ZM58.0619 5.2987H53.6587V10.5974H58.0619C59.4798 10.5974 60.5993 9.3287 60.5993 7.98537C60.5993 6.56741 59.4798 5.2987 58.0619 5.2987ZM37.2402 0V10.3735H28.4339V0H22.0904V25.598H28.4339V16.1946H37.2402V25.598H43.5837V0H37.2402ZM19.6276 18.6574C19.6276 22.9113 15.8215 25.598 11.7915 25.598H0V0H11.4183C15.5976 0 19.0306 3.05981 19.0306 6.86593C19.0306 9.85111 17.6126 11.493 15.6722 12.687C17.9111 13.6572 19.6276 15.0752 19.6276 18.6574ZM10.5228 15.2991H6.34352V20.2246H10.5228C12.1646 20.2246 13.0602 19.1052 13.0602 17.7619C13.0602 16.4185 11.8661 15.2991 10.5228 15.2991ZM9.92574 5.2987H6.34352V10.5974H9.92574C11.5676 10.5974 12.4631 9.3287 12.4631 7.98537C12.4631 6.56741 11.5676 5.2987 9.92574 5.2987Z" fill="#DD5900"/>
</svg>
