<svg width="215" height="17" viewBox="0 0 215 17" fill="none" xmlns="http://www.w3.org/2000/svg">
<path d="M0.224 16.043V4.109H2.281V5.537C2.774 4.687 3.879 3.922 5.188 3.922C7.415 3.922 9.132 5.571 9.132 8.444V8.58C9.132 11.436 7.483 13.17 5.188 13.17C3.777 13.17 2.757 12.473 2.281 11.606V16.043H0.224ZM4.678 11.538C6.191 11.538 7.024 10.518 7.024 8.614V8.478C7.024 6.506 6.004 5.537 4.661 5.537C3.233 5.537 2.213 6.506 2.213 8.478V8.614C2.213 10.603 3.182 11.538 4.678 11.538ZM12.9708 13.17C11.3388 13.17 9.99581 12.388 9.99581 10.535C9.99581 8.461 12.0018 7.713 14.5518 7.713H15.6568V7.254C15.6568 6.064 15.2488 5.469 14.0418 5.469C12.9708 5.469 12.4438 5.979 12.3418 6.863H10.3528C10.5228 4.789 12.1718 3.922 14.1608 3.922C16.1498 3.922 17.7138 4.738 17.7138 7.169V13H15.6908V11.912C15.1128 12.677 14.3308 13.17 12.9708 13.17ZM13.4638 11.691C14.7218 11.691 15.6568 11.028 15.6568 9.889V9.005H14.6028C13.0388 9.005 12.0358 9.362 12.0358 10.45C12.0358 11.198 12.4438 11.691 13.4638 11.691ZM19.7315 13V4.109H21.7885V5.775C22.3495 4.653 23.1825 3.99 24.6785 3.973V5.894C22.8765 5.911 21.7885 6.489 21.7885 8.376V13H19.7315ZM28.3113 13.17C26.6793 13.17 25.3363 12.388 25.3363 10.535C25.3363 8.461 27.3423 7.713 29.8923 7.713H30.9973V7.254C30.9973 6.064 30.5893 5.469 29.3823 5.469C28.3113 5.469 27.7843 5.979 27.6823 6.863H25.6933C25.8633 4.789 27.5123 3.922 29.5013 3.922C31.4903 3.922 33.0543 4.738 33.0543 7.169V13H31.0313V11.912C30.4533 12.677 29.6713 13.17 28.3113 13.17ZM28.8043 11.691C30.0623 11.691 30.9973 11.028 30.9973 9.889V9.005H29.9433C28.3793 9.005 27.3763 9.362 27.3763 10.45C27.3763 11.198 27.7843 11.691 28.8043 11.691ZM41.1118 13.17C39.4798 13.17 38.1368 12.388 38.1368 10.535C38.1368 8.461 40.1428 7.713 42.6928 7.713H43.7978V7.254C43.7978 6.064 43.3898 5.469 42.1828 5.469C41.1118 5.469 40.5848 5.979 40.4828 6.863H38.4938C38.6638 4.789 40.3128 3.922 42.3018 3.922C44.2908 3.922 45.8548 4.738 45.8548 7.169V13H43.8318V11.912C43.2538 12.677 42.4718 13.17 41.1118 13.17ZM41.6048 11.691C42.8628 11.691 43.7978 11.028 43.7978 9.889V9.005H42.7438C41.1798 9.005 40.1768 9.362 40.1768 10.45C40.1768 11.198 40.5848 11.691 41.6048 11.691ZM54.6093 13.153C52.8413 13.153 51.9233 12.201 51.9233 10.518V5.656H50.7333V4.109H51.9233V2.154H53.9803V4.109H55.9353V5.656H53.9803V10.331C53.9803 11.113 54.3543 11.47 55.0003 11.47C55.4083 11.47 55.7143 11.419 56.0033 11.3V12.932C55.6803 13.051 55.2383 13.153 54.6093 13.153ZM57.5186 13V4.109H59.5756V5.775C60.1366 4.653 60.9696 3.99 62.4656 3.973V5.894C60.6636 5.911 59.5756 6.489 59.5756 8.376V13H57.5186ZM66.0985 13.17C64.4665 13.17 63.1235 12.388 63.1235 10.535C63.1235 8.461 65.1295 7.713 67.6795 7.713H68.7845V7.254C68.7845 6.064 68.3765 5.469 67.1695 5.469C66.0985 5.469 65.5715 5.979 65.4695 6.863H63.4805C63.6505 4.789 65.2995 3.922 67.2885 3.922C69.2775 3.922 70.8415 4.738 70.8415 7.169V13H68.8185V11.912C68.2405 12.677 67.4585 13.17 66.0985 13.17ZM66.5915 11.691C67.8495 11.691 68.7845 11.028 68.7845 9.889V9.005H67.7305C66.1665 9.005 65.1635 9.362 65.1635 10.45C65.1635 11.198 65.5715 11.691 66.5915 11.691ZM72.8592 13V4.109H74.9162V5.52C75.3412 4.653 76.3272 3.922 77.7892 3.922C79.5742 3.922 80.8322 4.959 80.8322 7.407V13H78.7752V7.594C78.7752 6.251 78.2312 5.639 77.0072 5.639C75.8512 5.639 74.9162 6.353 74.9162 7.764V13H72.8592ZM85.9049 13.17C83.6099 13.17 82.2669 12.116 82.1819 10.229H84.1199C84.2219 11.13 84.6809 11.657 85.8879 11.657C86.9929 11.657 87.4859 11.266 87.4859 10.518C87.4859 9.787 86.8909 9.515 85.5819 9.294C83.2359 8.92 82.3689 8.257 82.3689 6.591C82.3689 4.806 84.0349 3.922 85.7009 3.922C87.5199 3.922 88.9649 4.602 89.1859 6.608H87.2819C87.1119 5.792 86.6529 5.418 85.7009 5.418C84.8169 5.418 84.2899 5.843 84.2899 6.472C84.2899 7.118 84.7149 7.373 86.1259 7.611C88.2169 7.934 89.4579 8.444 89.4579 10.331C89.4579 12.133 88.1829 13.17 85.9049 13.17ZM90.9733 13V4.109H93.0303V13H90.9733ZM91.9763 2.647C91.2963 2.647 90.7523 2.137 90.7523 1.474C90.7523 0.793999 91.2963 0.284 91.9763 0.284C92.6563 0.284 93.2003 0.793999 93.2003 1.474C93.2003 2.137 92.6563 2.647 91.9763 2.647ZM98.7846 16.723C97.7136 16.723 97.0166 16.145 96.9146 15.227H98.0366C98.0876 15.516 98.3086 15.788 98.7166 15.788C99.1076 15.788 99.3456 15.55 99.3456 15.21C99.3456 14.887 99.1076 14.666 98.7506 14.666C98.5126 14.666 98.3426 14.751 98.2406 14.819L97.6626 14.275L98.3426 13.119C96.1666 12.83 94.6026 11.232 94.6026 8.665V8.529C94.6026 5.707 96.6086 3.922 99.0906 3.922C101.063 3.922 102.916 4.806 103.154 7.254H101.165C100.995 6.064 100.213 5.571 99.1246 5.571C97.7136 5.571 96.7106 6.659 96.7106 8.495V8.631C96.7106 10.569 97.6626 11.589 99.1756 11.589C100.264 11.589 101.199 10.943 101.318 9.685H103.205C103.052 11.657 101.607 13.068 99.3286 13.17L98.9376 13.85C99.7876 13.748 100.638 14.19 100.638 15.261C100.638 16.213 99.8386 16.723 98.7846 16.723ZM106.965 13.17C105.333 13.17 103.99 12.388 103.99 10.535C103.99 8.461 105.996 7.713 108.546 7.713H109.651V7.254C109.651 6.064 109.243 5.469 108.036 5.469C106.965 5.469 106.438 5.979 106.336 6.863H104.347C104.517 4.789 106.166 3.922 108.155 3.922C110.144 3.922 111.708 4.738 111.708 7.169V13H109.685V11.912C109.107 12.677 108.325 13.17 106.965 13.17ZM107.458 11.691C108.716 11.691 109.651 11.028 109.651 9.889V9.005H108.597C107.033 9.005 106.03 9.362 106.03 10.45C106.03 11.198 106.438 11.691 107.458 11.691ZM109.141 2.698C108.325 2.698 107.747 2.018 107.254 2.018C106.948 2.018 106.693 2.307 106.625 2.698H105.35C105.486 1.27 106.217 0.470999 107.169 0.470999C107.951 0.470999 108.546 1.134 109.073 1.134C109.379 1.134 109.617 0.861999 109.685 0.453999H110.96C110.824 1.882 110.076 2.698 109.141 2.698ZM117.704 11.572C119.234 11.572 120.152 10.433 120.152 8.614V8.495C120.152 6.659 119.234 5.537 117.704 5.537C116.174 5.537 115.239 6.642 115.239 8.478V8.614C115.239 10.433 116.14 11.572 117.704 11.572ZM117.687 13.17C115.069 13.17 113.131 11.351 113.131 8.648V8.512C113.131 5.758 115.086 3.922 117.704 3.922C120.305 3.922 122.26 5.741 122.26 8.461V8.597C122.26 11.368 120.305 13.17 117.687 13.17ZM131.399 13.17C128.781 13.17 126.894 11.453 126.894 8.648V8.512C126.894 5.758 128.781 3.922 131.314 3.922C133.524 3.922 135.513 5.231 135.513 8.41V9.005H129.002C129.07 10.688 129.92 11.64 131.45 11.64C132.691 11.64 133.337 11.147 133.49 10.28H135.479C135.19 12.15 133.677 13.17 131.399 13.17ZM129.036 7.628H133.473C133.371 6.098 132.589 5.418 131.314 5.418C130.073 5.418 129.24 6.251 129.036 7.628ZM137.01 13V4.109H139.067V5.52C139.492 4.653 140.478 3.922 141.94 3.922C143.725 3.922 144.983 4.959 144.983 7.407V13H142.926V7.594C142.926 6.251 142.382 5.639 141.158 5.639C140.002 5.639 139.067 6.353 139.067 7.764V13H137.01ZM150.923 13.17C148.305 13.17 146.418 11.453 146.418 8.648V8.512C146.418 5.758 148.305 3.922 150.838 3.922C153.048 3.922 155.037 5.231 155.037 8.41V9.005H148.526C148.594 10.688 149.444 11.64 150.974 11.64C152.215 11.64 152.861 11.147 153.014 10.28H155.003C154.714 12.15 153.201 13.17 150.923 13.17ZM148.56 7.628H152.997C152.895 6.098 152.113 5.418 150.838 5.418C149.597 5.418 148.764 6.251 148.56 7.628ZM156.534 13V4.109H158.591V5.775C159.152 4.653 159.985 3.99 161.481 3.973V5.894C159.679 5.911 158.591 6.489 158.591 8.376V13H156.534ZM166.576 16.264C163.788 16.264 162.53 15.006 162.292 13.306H164.366C164.536 14.19 165.216 14.7 166.559 14.7C168.157 14.7 169.041 13.901 169.041 12.303V10.994C168.548 11.844 167.443 12.643 166.134 12.643C163.907 12.643 162.19 10.977 162.19 8.41V8.291C162.19 5.792 163.89 3.922 166.185 3.922C167.647 3.922 168.531 4.585 169.041 5.469V4.109H171.098V12.337C171.081 14.955 169.33 16.264 166.576 16.264ZM166.644 11.062C168.072 11.062 169.109 10.042 169.109 8.342V8.223C169.109 6.54 168.191 5.537 166.712 5.537C165.182 5.537 164.298 6.642 164.298 8.257V8.393C164.298 10.042 165.318 11.062 166.644 11.062ZM176.144 2.783L177.147 0.147999H179.425L177.657 2.783H176.144ZM177.113 13.17C174.495 13.17 172.608 11.453 172.608 8.648V8.512C172.608 5.758 174.495 3.922 177.028 3.922C179.238 3.922 181.227 5.231 181.227 8.41V9.005H174.716C174.784 10.688 175.634 11.64 177.164 11.64C178.405 11.64 179.051 11.147 179.204 10.28H181.193C180.904 12.15 179.391 13.17 177.113 13.17ZM174.75 7.628H179.187C179.085 6.098 178.303 5.418 177.028 5.418C175.787 5.418 174.954 6.251 174.75 7.628ZM185.75 13.153C183.982 13.153 183.064 12.201 183.064 10.518V5.656H181.874V4.109H183.064V2.154H185.121V4.109H187.076V5.656H185.121V10.331C185.121 11.113 185.495 11.47 186.141 11.47C186.549 11.47 186.855 11.419 187.144 11.3V12.932C186.821 13.051 186.379 13.153 185.75 13.153ZM188.711 13V4.109H190.768V13H188.711ZM189.714 2.647C189.034 2.647 188.49 2.137 188.49 1.474C188.49 0.793999 189.034 0.284 189.714 0.284C190.394 0.284 190.938 0.793999 190.938 1.474C190.938 2.137 190.394 2.647 189.714 2.647ZM196.828 13.17C194.278 13.17 192.34 11.504 192.34 8.665V8.529C192.34 5.707 194.346 3.922 196.828 3.922C198.8 3.922 200.653 4.806 200.891 7.254H198.902C198.732 6.064 197.95 5.571 196.862 5.571C195.451 5.571 194.448 6.659 194.448 8.495V8.631C194.448 10.569 195.4 11.589 196.913 11.589C198.001 11.589 198.936 10.943 199.055 9.685H200.942C200.789 11.725 199.242 13.17 196.828 13.17ZM204.702 13.17C203.07 13.17 201.727 12.388 201.727 10.535C201.727 8.461 203.733 7.713 206.283 7.713H207.388V7.254C207.388 6.064 206.98 5.469 205.773 5.469C204.702 5.469 204.175 5.979 204.073 6.863H202.084C202.254 4.789 203.903 3.922 205.892 3.922C207.881 3.922 209.445 4.738 209.445 7.169V13H207.422V11.912C206.844 12.677 206.062 13.17 204.702 13.17ZM205.195 11.691C206.453 11.691 207.388 11.028 207.388 9.889V9.005H206.334C204.77 9.005 203.767 9.362 203.767 10.45C203.767 11.198 204.175 11.691 205.195 11.691ZM212.687 13.119C211.939 13.119 211.344 12.541 211.344 11.793C211.344 11.045 211.939 10.45 212.687 10.45C213.452 10.45 214.047 11.045 214.047 11.793C214.047 12.541 213.452 13.119 212.687 13.119Z" fill="black"/>
</svg>
