<svg width="152" height="14" viewBox="0 0 152 14" fill="none" xmlns="http://www.w3.org/2000/svg">
<path d="M6.97 11.851C9.265 11.851 10.71 10.1 10.71 7.465V7.329C10.71 4.83 9.316 2.977 6.936 2.977C4.556 2.977 3.145 4.728 3.145 7.346V7.482C3.145 10.134 4.76 11.851 6.97 11.851ZM6.936 13.67C3.213 13.67 0.782 11.001 0.782 7.499V7.363C0.782 3.81 3.332 1.175 6.936 1.175C10.557 1.175 13.056 3.742 13.056 7.312V7.448C13.056 11.001 10.625 13.67 6.936 13.67ZM22.3335 13.67C19.7835 13.67 17.8455 12.004 17.8455 9.165V9.029C17.8455 6.207 19.8515 4.422 22.3335 4.422C24.3055 4.422 26.1585 5.306 26.3965 7.754H24.4075C24.2375 6.564 23.4555 6.071 22.3675 6.071C20.9565 6.071 19.9535 7.159 19.9535 8.995V9.131C19.9535 11.069 20.9055 12.089 22.4185 12.089C23.5065 12.089 24.4415 11.443 24.5605 10.185H26.4475C26.2945 12.225 24.7475 13.67 22.3335 13.67ZM31.8568 12.072C33.3868 12.072 34.3048 10.933 34.3048 9.114V8.995C34.3048 7.159 33.3868 6.037 31.8568 6.037C30.3268 6.037 29.3918 7.142 29.3918 8.978V9.114C29.3918 10.933 30.2928 12.072 31.8568 12.072ZM31.8398 13.67C29.2218 13.67 27.2838 11.851 27.2838 9.148V9.012C27.2838 6.258 29.2388 4.422 31.8568 4.422C34.4578 4.422 36.4128 6.241 36.4128 8.961V9.097C36.4128 11.868 34.4578 13.67 31.8398 13.67ZM42.8954 13.67C41.4844 13.67 40.4644 12.973 39.9884 12.072V13.5H37.9314V0.494999H39.9884V6.037C40.4814 5.187 41.5864 4.422 42.8954 4.422C45.1224 4.422 46.8394 6.071 46.8394 8.944V9.08C46.8394 11.936 45.1904 13.67 42.8954 13.67ZM42.3854 12.038C43.8984 12.038 44.7314 11.018 44.7314 9.114V8.978C44.7314 7.006 43.7114 6.037 42.3684 6.037C40.9404 6.037 39.9204 7.006 39.9204 8.978V9.114C39.9204 11.103 40.8894 12.038 42.3854 12.038ZM48.3492 13.5V4.609H50.4062V6.275C50.9672 5.153 51.8002 4.49 53.2962 4.473V6.394C51.4942 6.411 50.4062 6.989 50.4062 8.876V13.5H48.3492ZM58.51 13.67C55.892 13.67 54.005 11.953 54.005 9.148V9.012C54.005 6.258 55.892 4.422 58.425 4.422C60.635 4.422 62.624 5.731 62.624 8.91V9.505H56.113C56.181 11.188 57.031 12.14 58.561 12.14C59.802 12.14 60.448 11.647 60.601 10.78H62.59C62.301 12.65 60.788 13.67 58.51 13.67ZM56.147 8.128H60.584C60.482 6.598 59.7 5.918 58.425 5.918C57.184 5.918 56.351 6.751 56.147 8.128ZM70.7731 3.283L71.7761 0.647999H74.0541L72.2861 3.283H70.7731ZM71.7421 13.67C69.1241 13.67 67.2371 11.953 67.2371 9.148V9.012C67.2371 6.258 69.1241 4.422 71.6571 4.422C73.8671 4.422 75.8561 5.731 75.8561 8.91V9.505H69.3451C69.4131 11.188 70.2631 12.14 71.7931 12.14C73.0341 12.14 73.6801 11.647 73.8331 10.78H75.8221C75.5331 12.65 74.0201 13.67 71.7421 13.67ZM69.3791 8.128H73.8161C73.7141 6.598 72.9321 5.918 71.6571 5.918C70.4161 5.918 69.5831 6.751 69.3791 8.128ZM84.9742 13.67C82.3562 13.67 80.4692 11.953 80.4692 9.148V9.012C80.4692 6.258 82.3562 4.422 84.8892 4.422C87.0992 4.422 89.0882 5.731 89.0882 8.91V9.505H82.5772C82.6452 11.188 83.4952 12.14 85.0252 12.14C86.2662 12.14 86.9122 11.647 87.0652 10.78H89.0542C88.7652 12.65 87.2522 13.67 84.9742 13.67ZM82.6112 8.128H87.0482C86.9462 6.598 86.1642 5.918 84.8892 5.918C83.6482 5.918 82.8152 6.751 82.6112 8.128ZM93.7116 13.67C91.4166 13.67 90.0736 12.616 89.9886 10.729H91.9266C92.0286 11.63 92.4876 12.157 93.6946 12.157C94.7996 12.157 95.2926 11.766 95.2926 11.018C95.2926 10.287 94.6976 10.015 93.3886 9.794C91.0426 9.42 90.1756 8.757 90.1756 7.091C90.1756 5.306 91.8416 4.422 93.5076 4.422C95.3266 4.422 96.7716 5.102 96.9926 7.108H95.0886C94.9186 6.292 94.4596 5.918 93.5076 5.918C92.6236 5.918 92.0966 6.343 92.0966 6.972C92.0966 7.618 92.5216 7.873 93.9326 8.111C96.0236 8.434 97.2646 8.944 97.2646 10.831C97.2646 12.633 95.9896 13.67 93.7116 13.67ZM101.772 13.67C99.477 13.67 98.134 12.616 98.049 10.729H99.987C100.089 11.63 100.548 12.157 101.755 12.157C102.86 12.157 103.353 11.766 103.353 11.018C103.353 10.287 102.758 10.015 101.449 9.794C99.103 9.42 98.236 8.757 98.236 7.091C98.236 5.306 99.902 4.422 101.568 4.422C103.387 4.422 104.832 5.102 105.053 7.108H103.149C102.979 6.292 102.52 5.918 101.568 5.918C100.684 5.918 100.157 6.343 100.157 6.972C100.157 7.618 100.582 7.873 101.993 8.111C104.084 8.434 105.325 8.944 105.325 10.831C105.325 12.633 104.05 13.67 101.772 13.67ZM110.699 13.67C108.081 13.67 106.194 11.953 106.194 9.148V9.012C106.194 6.258 108.081 4.422 110.614 4.422C112.824 4.422 114.813 5.731 114.813 8.91V9.505H108.302C108.37 11.188 109.22 12.14 110.75 12.14C111.991 12.14 112.637 11.647 112.79 10.78H114.779C114.49 12.65 112.977 13.67 110.699 13.67ZM108.336 8.128H112.773C112.671 6.598 111.889 5.918 110.614 5.918C109.373 5.918 108.54 6.751 108.336 8.128ZM116.311 13.5V4.609H118.368V6.02C118.793 5.153 119.779 4.422 121.241 4.422C123.026 4.422 124.284 5.459 124.284 7.907V13.5H122.227V8.094C122.227 6.751 121.683 6.139 120.459 6.139C119.303 6.139 118.368 6.853 118.368 8.264V13.5H116.311ZM130.206 13.67C127.656 13.67 125.718 12.004 125.718 9.165V9.029C125.718 6.207 127.724 4.422 130.206 4.422C132.178 4.422 134.031 5.306 134.269 7.754H132.28C132.11 6.564 131.328 6.071 130.24 6.071C128.829 6.071 127.826 7.159 127.826 8.995V9.131C127.826 11.069 128.778 12.089 130.291 12.089C131.379 12.089 132.314 11.443 132.433 10.185H134.32C134.167 12.225 132.62 13.67 130.206 13.67ZM135.803 13.5V4.609H137.86V13.5H135.803ZM136.806 3.147C136.126 3.147 135.582 2.637 135.582 1.974C135.582 1.294 136.126 0.784 136.806 0.784C137.486 0.784 138.03 1.294 138.03 1.974C138.03 2.637 137.486 3.147 136.806 3.147ZM142.356 13.67C140.724 13.67 139.381 12.888 139.381 11.035C139.381 8.961 141.387 8.213 143.937 8.213H145.042V7.754C145.042 6.564 144.634 5.969 143.427 5.969C142.356 5.969 141.829 6.479 141.727 7.363H139.738C139.908 5.289 141.557 4.422 143.546 4.422C145.535 4.422 147.099 5.238 147.099 7.669V13.5H145.076V12.412C144.498 13.177 143.716 13.67 142.356 13.67ZM142.849 12.191C144.107 12.191 145.042 11.528 145.042 10.389V9.505H143.988C142.424 9.505 141.421 9.862 141.421 10.95C141.421 11.698 141.829 12.191 142.849 12.191ZM149.168 13.5V0.494999H151.225V13.5H149.168Z" fill="black"/>
</svg>
