<svg width="171" height="13" viewBox="0 0 171 13" fill="none" xmlns="http://www.w3.org/2000/svg">
<path d="M0.603136 10V3.724H2.05514V4.9C2.45114 4.108 3.03914 3.64 4.09514 3.628V4.984C2.82314 4.996 2.05514 5.404 2.05514 6.736V10H0.603136ZM7.77548 10.12C5.92748 10.12 4.59548 8.908 4.59548 6.928V6.832C4.59548 4.888 5.92748 3.592 7.71548 3.592C9.27548 3.592 10.6795 4.516 10.6795 6.76V7.18H6.08348C6.13148 8.368 6.73148 9.04 7.81148 9.04C8.68748 9.04 9.14348 8.692 9.25148 8.08H10.6555C10.4515 9.4 9.38348 10.12 7.77548 10.12ZM6.10748 6.208H9.23948C9.16748 5.128 8.61548 4.648 7.71548 4.648C6.83948 4.648 6.25148 5.236 6.10748 6.208ZM13.943 10.12C12.323 10.12 11.375 9.376 11.315 8.044H12.683C12.755 8.68 13.079 9.052 13.931 9.052C14.711 9.052 15.059 8.776 15.059 8.248C15.059 7.732 14.639 7.54 13.715 7.384C12.059 7.12 11.447 6.652 11.447 5.476C11.447 4.216 12.623 3.592 13.799 3.592C15.083 3.592 16.103 4.072 16.259 5.488H14.915C14.795 4.912 14.471 4.648 13.799 4.648C13.175 4.648 12.803 4.948 12.803 5.392C12.803 5.848 13.103 6.028 14.099 6.196C15.575 6.424 16.451 6.784 16.451 8.116C16.451 9.388 15.551 10.12 13.943 10.12ZM17.4847 12.148V3.724H18.9367V4.732C19.2847 4.132 20.0647 3.592 20.9887 3.592C22.5607 3.592 23.7727 4.756 23.7727 6.784V6.88C23.7727 8.896 22.6087 10.12 20.9887 10.12C19.9927 10.12 19.2727 9.628 18.9367 9.016V12.148H17.4847ZM20.6287 8.968C21.6967 8.968 22.2847 8.248 22.2847 6.904V6.808C22.2847 5.416 21.5647 4.732 20.6167 4.732C19.6087 4.732 18.8887 5.416 18.8887 6.808V6.904C18.8887 8.308 19.5727 8.968 20.6287 8.968ZM27.6464 8.992C28.7264 8.992 29.3744 8.188 29.3744 6.904V6.82C29.3744 5.524 28.7264 4.732 27.6464 4.732C26.5664 4.732 25.9064 5.512 25.9064 6.808V6.904C25.9064 8.188 26.5424 8.992 27.6464 8.992ZM27.6344 10.12C25.7864 10.12 24.4184 8.836 24.4184 6.928V6.832C24.4184 4.888 25.7984 3.592 27.6464 3.592C29.4824 3.592 30.8624 4.876 30.8624 6.796V6.892C30.8624 8.848 29.4824 10.12 27.6344 10.12ZM31.9344 10V3.724H33.3864V4.72C33.6864 4.108 34.3824 3.592 35.4144 3.592C36.6744 3.592 37.5624 4.324 37.5624 6.052V10H36.1104V6.184C36.1104 5.236 35.7264 4.804 34.8624 4.804C34.0464 4.804 33.3864 5.308 33.3864 6.304V10H31.9344ZM41.1432 10.12C39.5232 10.12 38.5752 9.376 38.5152 8.044H39.8832C39.9552 8.68 40.2792 9.052 41.1312 9.052C41.9112 9.052 42.2592 8.776 42.2592 8.248C42.2592 7.732 41.8392 7.54 40.9152 7.384C39.2592 7.12 38.6472 6.652 38.6472 5.476C38.6472 4.216 39.8232 3.592 40.9992 3.592C42.2832 3.592 43.3032 4.072 43.4592 5.488H42.1152C41.9952 4.912 41.6712 4.648 40.9992 4.648C40.3752 4.648 40.0032 4.948 40.0032 5.392C40.0032 5.848 40.3032 6.028 41.2992 6.196C42.7752 6.424 43.6512 6.784 43.6512 8.116C43.6512 9.388 42.7512 10.12 41.1432 10.12ZM46.3289 10.12C45.1769 10.12 44.2289 9.568 44.2289 8.26C44.2289 6.796 45.6449 6.268 47.4449 6.268H48.2249V5.944C48.2249 5.104 47.9369 4.684 47.0849 4.684C46.3289 4.684 45.9569 5.044 45.8849 5.668H44.4809C44.6009 4.204 45.7649 3.592 47.1689 3.592C48.5729 3.592 49.6769 4.168 49.6769 5.884V10H48.2489V9.232C47.8409 9.772 47.2889 10.12 46.3289 10.12ZM46.6769 9.076C47.5649 9.076 48.2249 8.608 48.2249 7.804V7.18H47.4809C46.3769 7.18 45.6689 7.432 45.6689 8.2C45.6689 8.728 45.9569 9.076 46.6769 9.076ZM54.6051 10.12C53.6091 10.12 52.8891 9.628 52.5531 8.992V10H51.1011V0.819999H52.5531V4.732C52.9011 4.132 53.6811 3.592 54.6051 3.592C56.1771 3.592 57.3891 4.756 57.3891 6.784V6.88C57.3891 8.896 56.2251 10.12 54.6051 10.12ZM54.2451 8.968C55.3131 8.968 55.9011 8.248 55.9011 6.904V6.808C55.9011 5.416 55.1811 4.732 54.2331 4.732C53.2251 4.732 52.5051 5.416 52.5051 6.808V6.904C52.5051 8.308 53.1891 8.968 54.2451 8.968ZM58.4909 10V3.724H59.9429V10H58.4909ZM59.1989 2.692C58.7189 2.692 58.3349 2.332 58.3349 1.864C58.3349 1.384 58.7189 1.024 59.1989 1.024C59.6789 1.024 60.0629 1.384 60.0629 1.864C60.0629 2.332 59.6789 2.692 59.1989 2.692ZM61.5087 10V0.819999H62.9607V10H61.5087ZM64.5265 10V3.724H65.9785V10H64.5265ZM65.2345 2.692C64.7545 2.692 64.3705 2.332 64.3705 1.864C64.3705 1.384 64.7545 1.024 65.2345 1.024C65.7145 1.024 66.0985 1.384 66.0985 1.864C66.0985 2.332 65.7145 2.692 65.2345 2.692ZM69.8603 10.12C68.2883 10.12 67.1003 9.004 67.1003 6.964V6.868C67.1003 4.864 68.2883 3.592 69.9203 3.592C70.9403 3.592 71.5763 4.06 71.9243 4.684V0.819999H73.3763V10H71.9243V8.944C71.5883 9.568 70.7843 10.12 69.8603 10.12ZM70.2203 8.968C71.2283 8.968 71.9723 8.296 71.9723 6.892V6.796C71.9723 5.416 71.3363 4.732 70.2803 4.732C69.2123 4.732 68.5883 5.476 68.5883 6.832V6.928C68.5883 8.308 69.2843 8.968 70.2203 8.968ZM76.506 10.12C75.354 10.12 74.406 9.568 74.406 8.26C74.406 6.796 75.822 6.268 77.622 6.268H78.402V5.944C78.402 5.104 78.114 4.684 77.262 4.684C76.506 4.684 76.134 5.044 76.062 5.668H74.658C74.778 4.204 75.942 3.592 77.346 3.592C78.75 3.592 79.854 4.168 79.854 5.884V10H78.426V9.232C78.018 9.772 77.466 10.12 76.506 10.12ZM76.854 9.076C77.742 9.076 78.402 8.608 78.402 7.804V7.18H77.658C76.554 7.18 75.846 7.432 75.846 8.2C75.846 8.728 76.134 9.076 76.854 9.076ZM83.6303 10.12C82.0583 10.12 80.8703 9.004 80.8703 6.964V6.868C80.8703 4.864 82.0583 3.592 83.6903 3.592C84.7103 3.592 85.3463 4.06 85.6943 4.684V0.819999H87.1463V10H85.6943V8.944C85.3583 9.568 84.5543 10.12 83.6303 10.12ZM83.9903 8.968C84.9983 8.968 85.7423 8.296 85.7423 6.892V6.796C85.7423 5.416 85.1063 4.732 84.0503 4.732C82.9823 4.732 82.3583 5.476 82.3583 6.832V6.928C82.3583 8.308 83.0543 8.968 83.9903 8.968ZM91.392 10.12C89.544 10.12 88.212 8.908 88.212 6.928V6.832C88.212 4.888 89.544 3.592 91.332 3.592C92.892 3.592 94.296 4.516 94.296 6.76V7.18H89.7C89.748 8.368 90.348 9.04 91.428 9.04C92.304 9.04 92.76 8.692 92.868 8.08H94.272C94.068 9.4 93 10.12 91.392 10.12ZM89.724 6.208H92.856C92.784 5.128 92.232 4.648 91.332 4.648C90.456 4.648 89.868 5.236 89.724 6.208ZM100.324 10.12C98.7524 10.12 97.5644 9.004 97.5644 6.964V6.868C97.5644 4.864 98.7524 3.592 100.384 3.592C101.404 3.592 102.04 4.06 102.388 4.684V0.819999H103.84V10H102.388V8.944C102.052 9.568 101.248 10.12 100.324 10.12ZM100.684 8.968C101.692 8.968 102.436 8.296 102.436 6.892V6.796C102.436 5.416 101.8 4.732 100.744 4.732C99.6764 4.732 99.0524 5.476 99.0524 6.832V6.928C99.0524 8.308 99.7484 8.968 100.684 8.968ZM108.086 10.12C106.238 10.12 104.906 8.908 104.906 6.928V6.832C104.906 4.888 106.238 3.592 108.026 3.592C109.586 3.592 110.99 4.516 110.99 6.76V7.18H106.394C106.442 8.368 107.042 9.04 108.122 9.04C108.998 9.04 109.454 8.692 109.562 8.08H110.966C110.762 9.4 109.694 10.12 108.086 10.12ZM106.418 6.208H109.55C109.478 5.128 108.926 4.648 108.026 4.648C107.15 4.648 106.562 5.236 106.418 6.208ZM116.802 10.108C115.554 10.108 114.906 9.436 114.906 8.248V4.816H114.066V3.724H114.906V2.344H116.358V3.724H117.738V4.816H116.358V8.116C116.358 8.668 116.622 8.92 117.078 8.92C117.366 8.92 117.582 8.884 117.786 8.8V9.952C117.558 10.036 117.246 10.108 116.802 10.108ZM121.664 8.992C122.744 8.992 123.392 8.188 123.392 6.904V6.82C123.392 5.524 122.744 4.732 121.664 4.732C120.584 4.732 119.924 5.512 119.924 6.808V6.904C119.924 8.188 120.56 8.992 121.664 8.992ZM121.652 10.12C119.804 10.12 118.436 8.836 118.436 6.928V6.832C118.436 4.888 119.816 3.592 121.664 3.592C123.5 3.592 124.88 4.876 124.88 6.796V6.892C124.88 8.848 123.5 10.12 121.652 10.12ZM128.304 10.12C126.732 10.12 125.544 9.004 125.544 6.964V6.868C125.544 4.864 126.732 3.592 128.364 3.592C129.384 3.592 130.02 4.06 130.368 4.684V0.819999H131.82V10H130.368V8.944C130.032 9.568 129.228 10.12 128.304 10.12ZM128.664 8.968C129.672 8.968 130.416 8.296 130.416 6.892V6.796C130.416 5.416 129.78 4.732 128.724 4.732C127.656 4.732 127.032 5.476 127.032 6.832V6.928C127.032 8.308 127.728 8.968 128.664 8.968ZM136.114 8.992C137.194 8.992 137.842 8.188 137.842 6.904V6.82C137.842 5.524 137.194 4.732 136.114 4.732C135.034 4.732 134.374 5.512 134.374 6.808V6.904C134.374 8.188 135.01 8.992 136.114 8.992ZM136.102 10.12C134.254 10.12 132.886 8.836 132.886 6.928V6.832C132.886 4.888 134.266 3.592 136.114 3.592C137.95 3.592 139.33 4.876 139.33 6.796V6.892C139.33 8.848 137.95 10.12 136.102 10.12ZM142.55 10.12C140.93 10.12 139.982 9.376 139.922 8.044H141.29C141.362 8.68 141.686 9.052 142.538 9.052C143.318 9.052 143.666 8.776 143.666 8.248C143.666 7.732 143.246 7.54 142.322 7.384C140.666 7.12 140.054 6.652 140.054 5.476C140.054 4.216 141.23 3.592 142.406 3.592C143.69 3.592 144.71 4.072 144.866 5.488H143.522C143.402 4.912 143.078 4.648 142.406 4.648C141.782 4.648 141.41 4.948 141.41 5.392C141.41 5.848 141.71 6.028 142.706 6.196C144.182 6.424 145.058 6.784 145.058 8.116C145.058 9.388 144.158 10.12 142.55 10.12ZM148.711 10V3.724H150.163V4.72C150.463 4.108 151.159 3.592 152.191 3.592C153.451 3.592 154.339 4.324 154.339 6.052V10H152.887V6.184C152.887 5.236 152.503 4.804 151.639 4.804C150.823 4.804 150.163 5.308 150.163 6.304V10H148.711ZM157.968 2.788L158.676 0.927999H160.284L159.036 2.788H157.968ZM158.58 8.992C159.66 8.992 160.308 8.188 160.308 6.904V6.82C160.308 5.524 159.66 4.732 158.58 4.732C157.5 4.732 156.84 5.512 156.84 6.808V6.904C156.84 8.188 157.476 8.992 158.58 8.992ZM158.568 10.12C156.72 10.12 155.352 8.836 155.352 6.928V6.832C155.352 4.888 156.732 3.592 158.58 3.592C160.416 3.592 161.796 4.876 161.796 6.796V6.892C161.796 8.848 160.416 10.12 158.568 10.12ZM165.016 10.12C163.396 10.12 162.448 9.376 162.388 8.044H163.756C163.828 8.68 164.152 9.052 165.004 9.052C165.784 9.052 166.132 8.776 166.132 8.248C166.132 7.732 165.712 7.54 164.788 7.384C163.132 7.12 162.52 6.652 162.52 5.476C162.52 4.216 163.696 3.592 164.872 3.592C166.156 3.592 167.176 4.072 167.332 5.488H165.988C165.868 4.912 165.544 4.648 164.872 4.648C164.248 4.648 163.876 4.948 163.876 5.392C163.876 5.848 164.176 6.028 165.172 6.196C166.648 6.424 167.524 6.784 167.524 8.116C167.524 9.388 166.624 10.12 165.016 10.12ZM169.421 10.084C168.893 10.084 168.473 9.676 168.473 9.148C168.473 8.62 168.893 8.2 169.421 8.2C169.961 8.2 170.381 8.62 170.381 9.148C170.381 9.676 169.961 10.084 169.421 10.084Z" fill="black"/>
</svg>
