<svg width="203" height="12" viewBox="0 0 203 12" fill="none" xmlns="http://www.w3.org/2000/svg">
<path d="M4.65914 8.336C6.27914 8.336 7.29914 7.1 7.29914 5.24V5.144C7.29914 3.38 6.31514 2.072 4.63514 2.072C2.95514 2.072 1.95914 3.308 1.95914 5.156V5.252C1.95914 7.124 3.09914 8.336 4.65914 8.336ZM4.63514 9.62C2.00714 9.62 0.291136 7.736 0.291136 5.264V5.168C0.291136 2.66 2.09114 0.8 4.63514 0.8C7.19114 0.8 8.95514 2.612 8.95514 5.132V5.228C8.95514 7.736 7.23914 9.62 4.63514 9.62ZM13.0079 9.5V4.316H12.1559V3.224H13.0079V2.384C13.0079 1.004 13.7759 0.26 15.1199 0.26C15.4679 0.26 15.6839 0.296 15.9479 0.379999V1.508C15.7799 1.448 15.5519 1.4 15.2879 1.4C14.6999 1.4 14.4599 1.784 14.4599 2.324V3.224H15.8879V4.316H14.4599V9.5H13.0079ZM18.9636 9.62C17.7276 9.62 16.8036 8.912 16.8036 7.244V3.224H18.2556V7.076C18.2556 8.024 18.6516 8.456 19.4916 8.456C20.2716 8.456 20.9556 7.952 20.9556 6.956V3.224H22.4076V9.5H20.9556V8.516C20.6436 9.128 19.9836 9.62 18.9636 9.62ZM26.0252 9.608C24.7772 9.608 24.1292 8.936 24.1292 7.748V4.316H23.2892V3.224H24.1292V1.844H25.5812V3.224H26.9612V4.316H25.5812V7.616C25.5812 8.168 25.8452 8.42 26.3012 8.42C26.5892 8.42 26.8052 8.384 27.0092 8.3V9.452C26.7812 9.536 26.4692 9.608 26.0252 9.608ZM30.1789 9.62C28.9429 9.62 28.0189 8.912 28.0189 7.244V3.224H29.4709V7.076C29.4709 8.024 29.8669 8.456 30.7069 8.456C31.4869 8.456 32.1709 7.952 32.1709 6.956V3.224H33.6229V9.5H32.1709V8.516C31.8589 9.128 31.1989 9.62 30.1789 9.62ZM35.1045 9.5V3.224H36.5565V4.4C36.9525 3.608 37.5405 3.14 38.5965 3.128V4.484C37.3245 4.496 36.5565 4.904 36.5565 6.236V9.5H35.1045ZM42.3249 8.492C43.4049 8.492 44.0529 7.688 44.0529 6.404V6.32C44.0529 5.024 43.4049 4.232 42.3249 4.232C41.2449 4.232 40.5849 5.012 40.5849 6.308V6.404C40.5849 7.688 41.2209 8.492 42.3249 8.492ZM42.3129 9.62C40.4649 9.62 39.0969 8.336 39.0969 6.428V6.332C39.0969 4.388 40.4769 3.092 42.3249 3.092C44.1609 3.092 45.5409 4.376 45.5409 6.296V6.392C45.5409 8.348 44.1609 9.62 42.3129 9.62ZM48.4042 11.756V10.64C49.0402 10.592 49.2682 10.28 49.2682 9.752V3.224H50.7202V9.716C50.7202 10.988 50.1442 11.732 48.4042 11.756ZM49.9762 2.192C49.4962 2.192 49.1122 1.832 49.1122 1.364C49.1122 0.883999 49.4962 0.524 49.9762 0.524C50.4562 0.524 50.8402 0.883999 50.8402 1.364C50.8402 1.832 50.4562 2.192 49.9762 2.192ZM53.894 9.62C52.742 9.62 51.794 9.068 51.794 7.76C51.794 6.296 53.21 5.768 55.01 5.768H55.79V5.444C55.79 4.604 55.502 4.184 54.65 4.184C53.894 4.184 53.522 4.544 53.45 5.168H52.046C52.166 3.704 53.33 3.092 54.734 3.092C56.138 3.092 57.242 3.668 57.242 5.384V9.5H55.814V8.732C55.406 9.272 54.854 9.62 53.894 9.62ZM54.242 8.576C55.13 8.576 55.79 8.108 55.79 7.304V6.68H55.046C53.942 6.68 53.234 6.932 53.234 7.7C53.234 8.228 53.522 8.576 54.242 8.576ZM54.134 2.288L54.842 0.427999H56.45L55.202 2.288H54.134ZM64.0456 9.62C62.1976 9.62 60.8656 8.408 60.8656 6.428V6.332C60.8656 4.388 62.1976 3.092 63.9856 3.092C65.5456 3.092 66.9496 4.016 66.9496 6.26V6.68H62.3536C62.4016 7.868 63.0016 8.54 64.0816 8.54C64.9576 8.54 65.4136 8.192 65.5216 7.58H66.9256C66.7216 8.9 65.6536 9.62 64.0456 9.62ZM62.3776 5.708H65.5096C65.4376 4.628 64.8856 4.148 63.9856 4.148C63.1096 4.148 62.5216 4.736 62.3776 5.708ZM70.2132 9.62C68.5932 9.62 67.6452 8.876 67.5852 7.544H68.9532C69.0252 8.18 69.3492 8.552 70.2012 8.552C70.9812 8.552 71.3292 8.276 71.3292 7.748C71.3292 7.232 70.9092 7.04 69.9852 6.884C68.3292 6.62 67.7172 6.152 67.7172 4.976C67.7172 3.716 68.8932 3.092 70.0692 3.092C71.3532 3.092 72.3732 3.572 72.5292 4.988H71.1852C71.0652 4.412 70.7412 4.148 70.0692 4.148C69.4452 4.148 69.0732 4.448 69.0732 4.892C69.0732 5.348 69.3732 5.528 70.3692 5.696C71.8452 5.924 72.7212 6.284 72.7212 7.616C72.7212 8.888 71.8212 9.62 70.2132 9.62ZM75.8909 9.608C74.6429 9.608 73.9949 8.936 73.9949 7.748V4.316H73.1549V3.224H73.9949V1.844H75.4469V3.224H76.8269V4.316H75.4469V7.616C75.4469 8.168 75.7109 8.42 76.1669 8.42C76.4549 8.42 76.6709 8.384 76.8749 8.3V9.452C76.6469 9.536 76.3349 9.608 75.8909 9.608ZM79.6471 9.62C78.4951 9.62 77.5471 9.068 77.5471 7.76C77.5471 6.296 78.9631 5.768 80.7631 5.768H81.5431V5.444C81.5431 4.604 81.2551 4.184 80.4031 4.184C79.6471 4.184 79.2751 4.544 79.2031 5.168H77.7991C77.9191 3.704 79.0831 3.092 80.4871 3.092C81.8911 3.092 82.9951 3.668 82.9951 5.384V9.5H81.5671V8.732C81.1591 9.272 80.6071 9.62 79.6471 9.62ZM79.9951 8.576C80.8831 8.576 81.5431 8.108 81.5431 7.304V6.68H80.7991C79.6951 6.68 78.9871 6.932 78.9871 7.7C78.9871 8.228 79.2751 8.576 79.9951 8.576ZM79.8871 2.288L80.5951 0.427999H82.2031L80.9551 2.288H79.8871ZM88.6828 9.62C87.5308 9.62 86.5828 9.068 86.5828 7.76C86.5828 6.296 87.9988 5.768 89.7988 5.768H90.5788V5.444C90.5788 4.604 90.2908 4.184 89.4388 4.184C88.6828 4.184 88.3108 4.544 88.2388 5.168H86.8348C86.9548 3.704 88.1188 3.092 89.5228 3.092C90.9268 3.092 92.0308 3.668 92.0308 5.384V9.5H90.6028V8.732C90.1948 9.272 89.6428 9.62 88.6828 9.62ZM89.0308 8.576C89.9188 8.576 90.5788 8.108 90.5788 7.304V6.68H89.8348C88.7308 6.68 88.0228 6.932 88.0228 7.7C88.0228 8.228 88.3108 8.576 89.0308 8.576ZM96.203 9.62C94.403 9.62 93.035 8.444 93.035 6.44V6.344C93.035 4.352 94.451 3.092 96.203 3.092C97.595 3.092 98.903 3.716 99.071 5.444H97.667C97.547 4.604 96.995 4.256 96.227 4.256C95.231 4.256 94.523 5.024 94.523 6.32V6.416C94.523 7.784 95.195 8.504 96.263 8.504C97.031 8.504 97.691 8.048 97.775 7.16H99.107C98.999 8.6 97.907 9.62 96.203 9.62ZM102.925 8.492C104.005 8.492 104.653 7.688 104.653 6.404V6.32C104.653 5.024 104.005 4.232 102.925 4.232C101.845 4.232 101.185 5.012 101.185 6.308V6.404C101.185 7.688 101.821 8.492 102.925 8.492ZM102.913 9.62C101.065 9.62 99.6974 8.336 99.6974 6.428V6.332C99.6974 4.388 101.077 3.092 102.925 3.092C104.761 3.092 106.141 4.376 106.141 6.296V6.392C106.141 8.348 104.761 9.62 102.913 9.62ZM107.213 9.5V3.224H108.665V4.22C108.965 3.608 109.661 3.092 110.693 3.092C111.953 3.092 112.841 3.824 112.841 5.552V9.5H111.389V5.684C111.389 4.736 111.005 4.304 110.141 4.304C109.325 4.304 108.665 4.808 108.665 5.804V9.5H107.213ZM116.41 9.608C115.162 9.608 114.514 8.936 114.514 7.748V4.316H113.674V3.224H114.514V1.844H115.966V3.224H117.346V4.316H115.966V7.616C115.966 8.168 116.23 8.42 116.686 8.42C116.974 8.42 117.19 8.384 117.394 8.3V9.452C117.166 9.536 116.854 9.608 116.41 9.608ZM121.224 9.62C119.376 9.62 118.044 8.408 118.044 6.428V6.332C118.044 4.388 119.376 3.092 121.164 3.092C122.724 3.092 124.128 4.016 124.128 6.26V6.68H119.532C119.58 7.868 120.18 8.54 121.26 8.54C122.136 8.54 122.592 8.192 122.7 7.58H124.104C123.9 8.9 122.832 9.62 121.224 9.62ZM119.556 5.708H122.688C122.616 4.628 122.064 4.148 121.164 4.148C120.288 4.148 119.7 4.736 119.556 5.708ZM127.933 9.62C126.133 9.62 124.765 8.444 124.765 6.44V6.344C124.765 4.352 126.181 3.092 127.933 3.092C129.325 3.092 130.633 3.716 130.801 5.444H129.397C129.277 4.604 128.725 4.256 127.957 4.256C126.961 4.256 126.253 5.024 126.253 6.32V6.416C126.253 7.784 126.925 8.504 127.993 8.504C128.761 8.504 129.421 8.048 129.505 7.16H130.837C130.729 8.6 129.637 9.62 127.933 9.62ZM134.607 9.62C132.759 9.62 131.427 8.408 131.427 6.428V6.332C131.427 4.388 132.759 3.092 134.547 3.092C136.107 3.092 137.511 4.016 137.511 6.26V6.68H132.915C132.963 7.868 133.563 8.54 134.643 8.54C135.519 8.54 135.975 8.192 136.083 7.58H137.487C137.283 8.9 136.215 9.62 134.607 9.62ZM132.939 5.708H136.071C135.999 4.628 135.447 4.148 134.547 4.148C133.671 4.148 133.083 4.736 132.939 5.708ZM138.568 9.5V3.224H140.02V4.22C140.32 3.608 141.016 3.092 142.048 3.092C143.308 3.092 144.196 3.824 144.196 5.552V9.5H142.744V5.684C142.744 4.736 142.36 4.304 141.496 4.304C140.68 4.304 140.02 4.808 140.02 5.804V9.5H138.568ZM147.981 9.62C146.409 9.62 145.221 8.504 145.221 6.464V6.368C145.221 4.364 146.409 3.092 148.041 3.092C149.061 3.092 149.697 3.56 150.045 4.184V0.319999H151.497V9.5H150.045V8.444C149.709 9.068 148.905 9.62 147.981 9.62ZM148.341 8.468C149.349 8.468 150.093 7.796 150.093 6.392V6.296C150.093 4.916 149.457 4.232 148.401 4.232C147.333 4.232 146.709 4.976 146.709 6.332V6.428C146.709 7.808 147.405 8.468 148.341 8.468ZM155.791 8.492C156.871 8.492 157.519 7.688 157.519 6.404V6.32C157.519 5.024 156.871 4.232 155.791 4.232C154.711 4.232 154.051 5.012 154.051 6.308V6.404C154.051 7.688 154.687 8.492 155.791 8.492ZM155.779 9.62C153.931 9.62 152.563 8.336 152.563 6.428V6.332C152.563 4.388 153.943 3.092 155.791 3.092C157.627 3.092 159.007 4.376 159.007 6.296V6.392C159.007 8.348 157.627 9.62 155.779 9.62ZM162.698 9.5V3.224H164.15V4.22C164.45 3.608 165.146 3.092 166.178 3.092C167.438 3.092 168.326 3.824 168.326 5.552V9.5H166.874V5.684C166.874 4.736 166.49 4.304 165.626 4.304C164.81 4.304 164.15 4.808 164.15 5.804V9.5H162.698ZM171.403 9.62C170.251 9.62 169.303 9.068 169.303 7.76C169.303 6.296 170.719 5.768 172.519 5.768H173.299V5.444C173.299 4.604 173.011 4.184 172.159 4.184C171.403 4.184 171.031 4.544 170.959 5.168H169.555C169.675 3.704 170.839 3.092 172.243 3.092C173.647 3.092 174.751 3.668 174.751 5.384V9.5H173.323V8.732C172.915 9.272 172.363 9.62 171.403 9.62ZM171.751 8.576C172.639 8.576 173.299 8.108 173.299 7.304V6.68H172.555C171.451 6.68 170.743 6.932 170.743 7.7C170.743 8.228 171.031 8.576 171.751 8.576ZM178.914 9.5V0.92H181.986C183.75 0.92 184.794 1.592 184.794 3.152V3.2C184.794 4.052 184.41 4.724 183.438 5.024C184.602 5.276 185.154 5.912 185.154 7.052V7.1C185.154 8.696 184.098 9.5 182.214 9.5H178.914ZM180.474 8.36H182.022C183.09 8.36 183.582 7.88 183.582 6.992V6.944C183.582 6.056 183.09 5.612 181.914 5.612H180.474V8.36ZM180.474 4.532H181.794C182.85 4.532 183.258 4.148 183.258 3.272V3.224C183.258 2.408 182.79 2.06 181.77 2.06H180.474V4.532ZM186.409 9.5V0.92H188.005V4.568H191.857V0.92H193.465V9.5H191.857V5.852H188.005V9.5H186.409ZM195.18 9.5V0.92H197.94C199.86 0.92 201.12 1.772 201.12 3.572V3.62C201.12 5.432 199.812 6.236 197.976 6.236H196.776V9.5H195.18ZM196.776 5.084H197.94C198.996 5.084 199.56 4.568 199.56 3.62V3.572C199.56 2.552 198.96 2.156 197.94 2.156H196.776V5.084ZM201.673 9.584C201.145 9.584 200.725 9.176 200.725 8.648C200.725 8.12 201.145 7.7 201.673 7.7C202.213 7.7 202.633 8.12 202.633 8.648C202.633 9.176 202.213 9.584 201.673 9.584Z" fill="#DD5900"/>
</svg>
