<svg width="231" height="31" viewBox="0 0 231 31" fill="none" xmlns="http://www.w3.org/2000/svg">
<path d="M0.637496 29.728V7.264H4.5095V9.952C5.4375 8.352 7.5175 6.912 9.9815 6.912C14.1735 6.912 17.4055 10.016 17.4055 15.424V15.68C17.4055 21.056 14.3015 24.32 9.9815 24.32C7.3255 24.32 5.4055 23.008 4.5095 21.376V29.728H0.637496ZM9.0215 21.248C11.8695 21.248 13.4375 19.328 13.4375 15.744V15.488C13.4375 11.776 11.5175 9.952 8.9895 9.952C6.3015 9.952 4.3815 11.776 4.3815 15.488V15.744C4.3815 19.488 6.2055 21.248 9.0215 21.248ZM24.6315 24.32C21.5595 24.32 19.0315 22.848 19.0315 19.36C19.0315 15.456 22.8075 14.048 27.6075 14.048H29.6875V13.184C29.6875 10.944 28.9195 9.824 26.6475 9.824C24.6315 9.824 23.6395 10.784 23.4475 12.448H19.7035C20.0235 8.544 23.1275 6.912 26.8715 6.912C30.6155 6.912 33.5595 8.448 33.5595 13.024V24H29.7515V21.952C28.6635 23.392 27.1915 24.32 24.6315 24.32ZM25.5595 21.536C27.9275 21.536 29.6875 20.288 29.6875 18.144V16.48H27.7035C24.7595 16.48 22.8715 17.152 22.8715 19.2C22.8715 20.608 23.6395 21.536 25.5595 21.536ZM37.3575 24V7.264H41.2295V10.4C42.2855 8.288 43.8535 7.04 46.6695 7.008V10.624C43.2775 10.656 41.2295 11.744 41.2295 15.296V24H37.3575ZM53.5077 24.32C50.4357 24.32 47.9077 22.848 47.9077 19.36C47.9077 15.456 51.6837 14.048 56.4837 14.048H58.5637V13.184C58.5637 10.944 57.7957 9.824 55.5237 9.824C53.5077 9.824 52.5157 10.784 52.3237 12.448H48.5797C48.8997 8.544 52.0037 6.912 55.7477 6.912C59.4917 6.912 62.4357 8.448 62.4357 13.024V24H58.6277V21.952C57.5397 23.392 56.0677 24.32 53.5077 24.32ZM54.4357 21.536C56.8037 21.536 58.5637 20.288 58.5637 18.144V16.48H56.5797C53.6357 16.48 51.7477 17.152 51.7477 19.2C51.7477 20.608 52.5157 21.536 54.4357 21.536ZM77.6027 24.32C74.5307 24.32 72.0027 22.848 72.0027 19.36C72.0027 15.456 75.7787 14.048 80.5787 14.048H82.6587V13.184C82.6587 10.944 81.8907 9.824 79.6187 9.824C77.6027 9.824 76.6107 10.784 76.4187 12.448H72.6747C72.9947 8.544 76.0987 6.912 79.8427 6.912C83.5868 6.912 86.5308 8.448 86.5308 13.024V24H82.7227V21.952C81.6347 23.392 80.1627 24.32 77.6027 24.32ZM78.5307 21.536C80.8987 21.536 82.6587 20.288 82.6587 18.144V16.48H80.6747C77.7307 16.48 75.8427 17.152 75.8427 19.2C75.8427 20.608 76.6107 21.536 78.5307 21.536ZM103.01 24.288C99.6817 24.288 97.9537 22.496 97.9537 19.328V10.176H95.7137V7.264H97.9537V3.584H101.826V7.264H105.506V10.176H101.826V18.976C101.826 20.448 102.53 21.12 103.746 21.12C104.514 21.12 105.09 21.024 105.634 20.8V23.872C105.026 24.096 104.194 24.288 103.01 24.288ZM108.486 24V7.264H112.358V10.4C113.414 8.288 114.982 7.04 117.798 7.008V10.624C114.406 10.656 112.358 11.744 112.358 15.296V24H108.486ZM124.636 24.32C121.564 24.32 119.036 22.848 119.036 19.36C119.036 15.456 122.812 14.048 127.612 14.048H129.692V13.184C129.692 10.944 128.924 9.824 126.652 9.824C124.636 9.824 123.644 10.784 123.452 12.448H119.708C120.028 8.544 123.132 6.912 126.876 6.912C130.62 6.912 133.564 8.448 133.564 13.024V24H129.756V21.952C128.668 23.392 127.196 24.32 124.636 24.32ZM125.564 21.536C127.932 21.536 129.692 20.288 129.692 18.144V16.48H127.708C124.764 16.48 122.876 17.152 122.876 19.2C122.876 20.608 123.644 21.536 125.564 21.536ZM137.363 24V7.264H141.235V9.92C142.035 8.288 143.891 6.912 146.643 6.912C150.003 6.912 152.371 8.864 152.371 13.472V24H148.499V13.824C148.499 11.296 147.475 10.144 145.171 10.144C142.995 10.144 141.235 11.488 141.235 14.144V24H137.363ZM161.919 24.32C157.599 24.32 155.071 22.336 154.911 18.784H158.559C158.751 20.48 159.615 21.472 161.887 21.472C163.967 21.472 164.895 20.736 164.895 19.328C164.895 17.952 163.775 17.44 161.311 17.024C156.895 16.32 155.263 15.072 155.263 11.936C155.263 8.576 158.399 6.912 161.535 6.912C164.959 6.912 167.679 8.192 168.095 11.968H164.511C164.191 10.432 163.327 9.728 161.535 9.728C159.871 9.728 158.879 10.528 158.879 11.712C158.879 12.928 159.679 13.408 162.335 13.856C166.271 14.464 168.607 15.424 168.607 18.976C168.607 22.368 166.207 24.32 161.919 24.32ZM171.46 24V7.264H175.332V24H171.46ZM173.348 4.512C172.068 4.512 171.044 3.552 171.044 2.304C171.044 1.024 172.068 0.0639992 173.348 0.0639992C174.628 0.0639992 175.652 1.024 175.652 2.304C175.652 3.552 174.628 4.512 173.348 4.512ZM186.163 31.008C184.147 31.008 182.835 29.92 182.643 28.192H184.755C184.851 28.736 185.267 29.248 186.035 29.248C186.771 29.248 187.219 28.8 187.219 28.16C187.219 27.552 186.771 27.136 186.099 27.136C185.651 27.136 185.331 27.296 185.139 27.424L184.051 26.4L185.331 24.224C181.235 23.68 178.291 20.672 178.291 15.84V15.584C178.291 10.272 182.067 6.912 186.739 6.912C190.451 6.912 193.939 8.576 194.387 13.184H190.643C190.323 10.944 188.851 10.016 186.803 10.016C184.147 10.016 182.259 12.064 182.259 15.52V15.776C182.259 19.424 184.051 21.344 186.899 21.344C188.947 21.344 190.707 20.128 190.931 17.76H194.483C194.195 21.472 191.475 24.128 187.187 24.32L186.451 25.6C188.051 25.408 189.651 26.24 189.651 28.256C189.651 30.048 188.147 31.008 186.163 31.008ZM201.561 24.32C198.489 24.32 195.961 22.848 195.961 19.36C195.961 15.456 199.737 14.048 204.537 14.048H206.617V13.184C206.617 10.944 205.849 9.824 203.577 9.824C201.561 9.824 200.569 10.784 200.377 12.448H196.633C196.953 8.544 200.057 6.912 203.801 6.912C207.545 6.912 210.489 8.448 210.489 13.024V24H206.681V21.952C205.593 23.392 204.121 24.32 201.561 24.32ZM202.489 21.536C204.857 21.536 206.617 20.288 206.617 18.144V16.48H204.633C201.689 16.48 199.801 17.152 199.801 19.2C199.801 20.608 200.569 21.536 202.489 21.536ZM205.657 4.608C204.121 4.608 203.033 3.328 202.105 3.328C201.529 3.328 201.049 3.872 200.921 4.608H198.521C198.777 1.92 200.153 0.415998 201.945 0.415998C203.417 0.415998 204.537 1.664 205.529 1.664C206.105 1.664 206.553 1.152 206.681 0.383999H209.081C208.825 3.072 207.417 4.608 205.657 4.608ZM221.775 21.312C224.655 21.312 226.383 19.168 226.383 15.744V15.52C226.383 12.064 224.655 9.952 221.775 9.952C218.895 9.952 217.135 12.032 217.135 15.488V15.744C217.135 19.168 218.831 21.312 221.775 21.312ZM221.743 24.32C216.815 24.32 213.167 20.896 213.167 15.808V15.552C213.167 10.368 216.847 6.912 221.775 6.912C226.671 6.912 230.351 10.336 230.351 15.456V15.712C230.351 20.928 226.671 24.32 221.743 24.32Z" fill="black"/>
</svg>
