<svg width="165" height="32" viewBox="0 0 165 32" fill="none" xmlns="http://www.w3.org/2000/svg">
<path d="M8.9975 25.32C4.0695 25.32 0.517496 22.088 0.517496 16.808V16.552C0.517496 11.368 4.0695 7.912 8.8375 7.912C12.9975 7.912 16.7415 10.376 16.7415 16.36V17.48H4.4855C4.6135 20.648 6.2135 22.44 9.0935 22.44C11.4295 22.44 12.6455 21.512 12.9335 19.88H16.6775C16.1335 23.4 13.2855 25.32 8.9975 25.32ZM4.5495 14.888H12.9015C12.7095 12.008 11.2375 10.728 8.8375 10.728C6.5015 10.728 4.9335 12.296 4.5495 14.888ZM19.56 25V8.264H23.432V10.92C24.232 9.288 26.088 7.912 28.84 7.912C32.2 7.912 34.568 9.864 34.568 14.472V25H30.696V14.824C30.696 12.296 29.672 11.144 27.368 11.144C25.192 11.144 23.432 12.488 23.432 15.144V25H19.56ZM45.7487 25.32C40.8207 25.32 37.2687 22.088 37.2687 16.808V16.552C37.2687 11.368 40.8207 7.912 45.5887 7.912C49.7487 7.912 53.4927 10.376 53.4927 16.36V17.48H41.2367C41.3647 20.648 42.9647 22.44 45.8447 22.44C48.1807 22.44 49.3967 21.512 49.6847 19.88H53.4287C52.8847 23.4 50.0367 25.32 45.7487 25.32ZM41.3007 14.888H49.6527C49.4607 12.008 47.9887 10.728 45.5887 10.728C43.2527 10.728 41.6847 12.296 41.3007 14.888ZM56.3112 25V8.264H60.1832V11.4C61.2392 9.288 62.8072 8.04 65.6232 8.008V11.624C62.2312 11.656 60.1832 12.744 60.1832 16.296V25H56.3112ZM75.2135 31.144C69.9655 31.144 67.5975 28.776 67.1495 25.576H71.0535C71.3735 27.24 72.6535 28.2 75.1815 28.2C78.1895 28.2 79.8535 26.696 79.8535 23.688V21.224C78.9255 22.824 76.8455 24.328 74.3815 24.328C70.1895 24.328 66.9575 21.192 66.9575 16.36V16.136C66.9575 11.432 70.1575 7.912 74.4775 7.912C77.2295 7.912 78.8935 9.16 79.8535 10.824V8.264H83.7255V23.752C83.6935 28.68 80.3975 31.144 75.2135 31.144ZM75.3415 21.352C78.0295 21.352 79.9815 19.432 79.9815 16.232V16.008C79.9815 12.84 78.2535 10.952 75.4695 10.952C72.5895 10.952 70.9255 13.032 70.9255 16.072V16.328C70.9255 19.432 72.8455 21.352 75.3415 21.352ZM93.2235 5.768L95.1115 0.807999H99.3995L96.0715 5.768H93.2235ZM95.0475 25.32C90.1195 25.32 86.5675 22.088 86.5675 16.808V16.552C86.5675 11.368 90.1195 7.912 94.8875 7.912C99.0475 7.912 102.792 10.376 102.792 16.36V17.48H90.5355C90.6635 20.648 92.2635 22.44 95.1435 22.44C97.4795 22.44 98.6955 21.512 98.9835 19.88H102.728C102.184 23.4 99.3355 25.32 95.0475 25.32ZM90.5995 14.888H98.9515C98.7595 12.008 97.2875 10.728 94.8875 10.728C92.5515 10.728 90.9835 12.296 90.5995 14.888ZM111.306 25.288C107.978 25.288 106.25 23.496 106.25 20.328V11.176H104.01V8.264H106.25V4.584H110.122V8.264H113.802V11.176H110.122V19.976C110.122 21.448 110.826 22.12 112.042 22.12C112.81 22.12 113.386 22.024 113.93 21.8V24.872C113.322 25.096 112.49 25.288 111.306 25.288ZM116.878 25V8.264H120.75V25H116.878ZM118.766 5.512C117.486 5.512 116.462 4.552 116.462 3.304C116.462 2.024 117.486 1.064 118.766 1.064C120.046 1.064 121.07 2.024 121.07 3.304C121.07 4.552 120.046 5.512 118.766 5.512ZM132.158 25.32C127.358 25.32 123.71 22.184 123.71 16.84V16.584C123.71 11.272 127.486 7.912 132.158 7.912C135.87 7.912 139.358 9.576 139.806 14.184H136.062C135.742 11.944 134.27 11.016 132.222 11.016C129.566 11.016 127.678 13.064 127.678 16.52V16.776C127.678 20.424 129.47 22.344 132.318 22.344C134.366 22.344 136.126 21.128 136.35 18.76H139.902C139.614 22.6 136.702 25.32 132.158 25.32ZM146.98 25.32C143.908 25.32 141.38 23.848 141.38 20.36C141.38 16.456 145.156 15.048 149.956 15.048H152.036V14.184C152.036 11.944 151.268 10.824 148.996 10.824C146.98 10.824 145.988 11.784 145.796 13.448H142.052C142.372 9.544 145.476 7.912 149.22 7.912C152.964 7.912 155.908 9.448 155.908 14.024V25H152.1V22.952C151.012 24.392 149.54 25.32 146.98 25.32ZM147.908 22.536C150.276 22.536 152.036 21.288 152.036 19.144V17.48H150.052C147.108 17.48 145.22 18.152 145.22 20.2C145.22 21.608 145.988 22.536 147.908 22.536ZM162.01 25.224C160.602 25.224 159.482 24.136 159.482 22.728C159.482 21.32 160.602 20.2 162.01 20.2C163.45 20.2 164.57 21.32 164.57 22.728C164.57 24.136 163.45 25.224 162.01 25.224Z" fill="black"/>
</svg>
