<svg width="284" height="26" viewBox="0 0 284 26" fill="none" xmlns="http://www.w3.org/2000/svg">
<path d="M12.4535 22.3247C16.7735 22.3247 19.4935 19.0287 19.4935 14.0687V13.8127C19.4935 9.10871 16.8695 5.62071 12.3895 5.62071C7.9095 5.62071 5.2535 8.91671 5.2535 13.8447V14.1007C5.2535 19.0927 8.2935 22.3247 12.4535 22.3247ZM12.3895 25.7487C5.3815 25.7487 0.805496 20.7247 0.805496 14.1327V13.8767C0.805496 7.18871 5.6055 2.22871 12.3895 2.22871C19.2055 2.22871 23.9095 7.06071 23.9095 13.7807V14.0367C23.9095 20.7247 19.3335 25.7487 12.3895 25.7487ZM41.373 25.7487C36.573 25.7487 32.925 22.6127 32.925 17.2687V17.0127C32.925 11.7007 36.701 8.34071 41.373 8.34071C45.085 8.34071 48.573 10.0047 49.021 14.6127H45.277C44.957 12.3727 43.485 11.4447 41.437 11.4447C38.781 11.4447 36.893 13.4927 36.893 16.9487V17.2047C36.893 20.8527 38.685 22.7727 41.533 22.7727C43.581 22.7727 45.341 21.5567 45.565 19.1887H49.117C48.829 23.0287 45.917 25.7487 41.373 25.7487ZM59.2992 22.7407C62.1792 22.7407 63.9072 20.5967 63.9072 17.1727V16.9487C63.9072 13.4927 62.1792 11.3807 59.2992 11.3807C56.4192 11.3807 54.6592 13.4607 54.6592 16.9167V17.1727C54.6592 20.5967 56.3552 22.7407 59.2992 22.7407ZM59.2672 25.7487C54.3392 25.7487 50.6912 22.3247 50.6912 17.2367V16.9807C50.6912 11.7967 54.3712 8.34071 59.2992 8.34071C64.1952 8.34071 67.8752 11.7647 67.8752 16.8847V17.1407C67.8752 22.3567 64.1952 25.7487 59.2672 25.7487ZM80.0777 25.7487C77.4217 25.7487 75.5017 24.4367 74.6057 22.7407V25.4287H70.7337V0.948709H74.6057V11.3807C75.5337 9.78071 77.6137 8.34071 80.0777 8.34071C84.2697 8.34071 87.5017 11.4447 87.5017 16.8527V17.1087C87.5017 22.4847 84.3977 25.7487 80.0777 25.7487ZM79.1177 22.6767C81.9657 22.6767 83.5337 20.7567 83.5337 17.1727V16.9167C83.5337 13.2047 81.6137 11.3807 79.0857 11.3807C76.3977 11.3807 74.4777 13.2047 74.4777 16.9167V17.1727C74.4777 20.9167 76.3017 22.6767 79.1177 22.6767ZM90.3437 25.4287V8.69271H94.2157V11.8287C95.2717 9.71671 96.8397 8.46871 99.6557 8.43671V12.0527C96.2637 12.0847 94.2157 13.1727 94.2157 16.7247V25.4287H90.3437ZM109.47 25.7487C104.542 25.7487 100.99 22.5167 100.99 17.2367V16.9807C100.99 11.7967 104.542 8.34071 109.31 8.34071C113.47 8.34071 117.214 10.8047 117.214 16.7887V17.9087H104.958C105.086 21.0767 106.686 22.8687 109.566 22.8687C111.902 22.8687 113.118 21.9407 113.406 20.3087H117.15C116.606 23.8287 113.758 25.7487 109.47 25.7487ZM105.022 15.3167H113.374C113.182 12.4367 111.71 11.1567 109.31 11.1567C106.974 11.1567 105.406 12.7247 105.022 15.3167ZM132.553 6.19671L134.441 1.23671H138.729L135.401 6.19671H132.553ZM134.377 25.7487C129.449 25.7487 125.897 22.5167 125.897 17.2367V16.9807C125.897 11.7967 129.449 8.34071 134.217 8.34071C138.377 8.34071 142.121 10.8047 142.121 16.7887V17.9087H129.865C129.993 21.0767 131.593 22.8687 134.473 22.8687C136.809 22.8687 138.025 21.9407 138.313 20.3087H142.057C141.513 23.8287 138.665 25.7487 134.377 25.7487ZM129.929 15.3167H138.281C138.089 12.4367 136.617 11.1567 134.217 11.1567C131.881 11.1567 130.313 12.7247 129.929 15.3167ZM159.285 25.7487C154.357 25.7487 150.805 22.5167 150.805 17.2367V16.9807C150.805 11.7967 154.357 8.34071 159.125 8.34071C163.285 8.34071 167.029 10.8047 167.029 16.7887V17.9087H154.773C154.901 21.0767 156.501 22.8687 159.381 22.8687C161.717 22.8687 162.933 21.9407 163.221 20.3087H166.965C166.421 23.8287 163.573 25.7487 159.285 25.7487ZM154.837 15.3167H163.189C162.997 12.4367 161.525 11.1567 159.125 11.1567C156.789 11.1567 155.221 12.7247 154.837 15.3167ZM175.732 25.7487C171.412 25.7487 168.884 23.7647 168.724 20.2127H172.372C172.564 21.9087 173.428 22.9007 175.7 22.9007C177.78 22.9007 178.708 22.1647 178.708 20.7567C178.708 19.3807 177.588 18.8687 175.124 18.4527C170.708 17.7487 169.076 16.5007 169.076 13.3647C169.076 10.0047 172.212 8.34071 175.348 8.34071C178.772 8.34071 181.492 9.62071 181.908 13.3967H178.324C178.004 11.8607 177.14 11.1567 175.348 11.1567C173.684 11.1567 172.692 11.9567 172.692 13.1407C172.692 14.3567 173.492 14.8367 176.148 15.2847C180.084 15.8927 182.42 16.8527 182.42 20.4047C182.42 23.7967 180.02 25.7487 175.732 25.7487ZM190.904 25.7487C186.584 25.7487 184.056 23.7647 183.896 20.2127H187.544C187.736 21.9087 188.6 22.9007 190.872 22.9007C192.952 22.9007 193.88 22.1647 193.88 20.7567C193.88 19.3807 192.76 18.8687 190.296 18.4527C185.88 17.7487 184.248 16.5007 184.248 13.3647C184.248 10.0047 187.384 8.34071 190.52 8.34071C193.944 8.34071 196.664 9.62071 197.08 13.3967H193.496C193.176 11.8607 192.312 11.1567 190.52 11.1567C188.856 11.1567 187.864 11.9567 187.864 13.1407C187.864 14.3567 188.664 14.8367 191.32 15.2847C195.256 15.8927 197.592 16.8527 197.592 20.4047C197.592 23.7967 195.192 25.7487 190.904 25.7487ZM207.709 25.7487C202.781 25.7487 199.229 22.5167 199.229 17.2367V16.9807C199.229 11.7967 202.781 8.34071 207.549 8.34071C211.709 8.34071 215.453 10.8047 215.453 16.7887V17.9087H203.197C203.325 21.0767 204.925 22.8687 207.805 22.8687C210.141 22.8687 211.357 21.9407 211.645 20.3087H215.389C214.845 23.8287 211.997 25.7487 207.709 25.7487ZM203.261 15.3167H211.613C211.421 12.4367 209.949 11.1567 207.549 11.1567C205.213 11.1567 203.645 12.7247 203.261 15.3167ZM218.271 25.4287V8.69271H222.143V11.3487C222.943 9.71671 224.799 8.34071 227.551 8.34071C230.911 8.34071 233.279 10.2927 233.279 14.9007V25.4287H229.407V15.2527C229.407 12.7247 228.383 11.5727 226.079 11.5727C223.903 11.5727 222.143 12.9167 222.143 15.5727V25.4287H218.271ZM244.428 25.7487C239.628 25.7487 235.98 22.6127 235.98 17.2687V17.0127C235.98 11.7007 239.756 8.34071 244.428 8.34071C248.14 8.34071 251.628 10.0047 252.076 14.6127H248.332C248.012 12.3727 246.54 11.4447 244.492 11.4447C241.836 11.4447 239.948 13.4927 239.948 16.9487V17.2047C239.948 20.8527 241.74 22.7727 244.588 22.7727C246.636 22.7727 248.396 21.5567 248.62 19.1887H252.172C251.884 23.0287 248.972 25.7487 244.428 25.7487ZM254.962 25.4287V8.69271H258.834V25.4287H254.962ZM256.85 5.94071C255.57 5.94071 254.546 4.98071 254.546 3.73271C254.546 2.45271 255.57 1.49271 256.85 1.49271C258.13 1.49271 259.154 2.45271 259.154 3.73271C259.154 4.98071 258.13 5.94071 256.85 5.94071ZM267.298 25.7487C264.226 25.7487 261.698 24.2767 261.698 20.7887C261.698 16.8847 265.474 15.4767 270.274 15.4767H272.354V14.6127C272.354 12.3727 271.586 11.2527 269.314 11.2527C267.298 11.2527 266.306 12.2127 266.114 13.8767H262.37C262.69 9.97271 265.794 8.34071 269.538 8.34071C273.282 8.34071 276.226 9.87671 276.226 14.4527V25.4287H272.418V23.3807C271.33 24.8207 269.858 25.7487 267.298 25.7487ZM268.226 22.9647C270.594 22.9647 272.354 21.7167 272.354 19.5727V17.9087H270.37C267.426 17.9087 265.538 18.5807 265.538 20.6287C265.538 22.0367 266.306 22.9647 268.226 22.9647ZM280.12 25.4287V0.948709H283.992V25.4287H280.12Z" fill="black"/>
</svg>
