<svg width="146" height="34" viewBox="0 0 146 34" fill="none" xmlns="http://www.w3.org/2000/svg">
<path d="M-5.15479 0H129.293C138.033 0 145.118 7.08499 145.118 15.8248V17.5525C145.118 26.2923 138.033 33.3773 129.293 33.3773H-5.15479V0Z" fill="#00DFED"/>
<path d="M15.1413 23.6886L18.522 9.98565H22.943L26.3437 23.6886H24.1032L23.3631 20.748H18.1019L17.3618 23.6886H15.1413ZM20.2424 11.8461L18.542 18.7876H22.923L21.2426 11.8461H20.2424ZM33.263 18.4475V16.4871H37.1639V23.4486C36.8038 23.5419 36.0703 23.6419 34.9634 23.7486C33.8698 23.8553 33.0763 23.9087 32.5829 23.9087C30.5024 23.9087 29.0688 23.3352 28.282 22.1883C27.4951 21.0414 27.1017 19.2477 27.1017 16.8071C27.1017 14.3533 27.5018 12.5662 28.302 11.446C29.1155 10.3257 30.5158 9.7656 32.5029 9.7656C33.6765 9.7656 34.9967 9.89897 36.4637 10.1657L37.1639 10.3057L37.0839 12.0661C35.4702 11.8527 34.0232 11.746 32.7429 11.746C31.4626 11.746 30.5825 12.1061 30.1024 12.8263C29.6356 13.5464 29.4022 14.88 29.4022 16.8271C29.4022 18.7742 29.6222 20.1212 30.0623 20.868C30.5158 21.6015 31.4226 21.9682 32.7829 21.9682C33.7565 21.9682 34.4833 21.9082 34.9634 21.7882V18.4475H33.263ZM47.2317 23.6886H39.55V9.98565H41.7705V21.7082H47.2317V23.6886ZM52.6396 9.98565H57.8407C59.241 9.98565 60.2879 10.2724 60.9814 10.8458C61.6749 11.406 62.0216 12.3062 62.0216 13.5464C62.0216 14.3599 61.8882 15.0001 61.6215 15.4668C61.3681 15.9336 60.9614 16.3204 60.4013 16.6271C61.7082 17.1339 62.3617 18.1941 62.3617 19.8078C62.3617 22.395 60.908 23.6886 58.0007 23.6886H52.6396V9.98565ZM57.8407 17.7073H54.8601V21.7682H57.8807C58.6142 21.7682 59.161 21.6148 59.5211 21.3081C59.8945 21.0014 60.0812 20.4746 60.0812 19.7278C60.0812 18.9809 59.8678 18.4608 59.4411 18.1674C59.0143 17.8607 58.4808 17.7073 57.8407 17.7073ZM57.7207 11.9061H54.8601V15.8269H57.8007C59.1076 15.8269 59.7611 15.1534 59.7611 13.8065C59.7611 12.5395 59.081 11.9061 57.7207 11.9061ZM70.2895 13.6865H72.45V23.6886H70.2895V23.0685C69.3159 23.6286 68.4158 23.9087 67.5889 23.9087C66.2153 23.9087 65.2951 23.5419 64.8283 22.8084C64.3615 22.0616 64.1282 20.7613 64.1282 18.9076V13.6865H66.3086V18.9276C66.3086 20.1279 66.4087 20.9347 66.6087 21.3481C66.8087 21.7615 67.2755 21.9682 68.009 21.9682C68.7292 21.9682 69.3893 21.8349 69.9894 21.5682L70.2895 21.4481V13.6865ZM81.6313 15.7469C80.0577 15.5335 78.9174 15.4268 78.2106 15.4268C77.5038 15.4268 77.0103 15.5135 76.7303 15.6869C76.4635 15.8469 76.3302 16.107 76.3302 16.4671C76.3302 16.8271 76.4769 17.0805 76.7703 17.2272C77.077 17.3739 77.7838 17.5473 78.8907 17.7473C80.011 17.934 80.8045 18.2341 81.2712 18.6475C81.738 19.061 81.9714 19.7944 81.9714 20.848C81.9714 21.9016 81.6313 22.6751 80.9512 23.1685C80.2844 23.6619 79.3042 23.9087 78.0105 23.9087C77.197 23.9087 76.1701 23.7953 74.9299 23.5686L74.3097 23.4686L74.3898 21.6482C75.9901 21.8616 77.1437 21.9682 77.8505 21.9682C78.5573 21.9682 79.0574 21.8816 79.3508 21.7082C79.6576 21.5348 79.8109 21.2481 79.8109 20.848C79.8109 20.4479 79.6642 20.1745 79.3708 20.0278C79.0908 19.8678 78.404 19.7011 77.3104 19.5277C76.2302 19.341 75.4367 19.0543 74.9299 18.6675C74.4231 18.2808 74.1697 17.574 74.1697 16.5471C74.1697 15.5202 74.5165 14.7534 75.2099 14.2466C75.9168 13.7398 76.817 13.4864 77.9105 13.4864C78.764 13.4864 79.8109 13.5931 81.0512 13.8065L81.6713 13.9265L81.6313 15.7469ZM83.6668 23.6886V13.6865H85.8472V23.6886H83.6668ZM83.6668 11.9861V9.68559H85.8472V11.9861H83.6668ZM90.2724 23.6886H88.0919V13.6865H90.2524V14.3066C91.226 13.7465 92.1462 13.4664 93.013 13.4664C94.3466 13.4664 95.2535 13.8465 95.7336 14.6067C96.227 15.3535 96.4738 16.5938 96.4738 18.3275V23.6886H94.3133V18.3875C94.3133 17.3072 94.1933 16.5404 93.9532 16.087C93.7265 15.6335 93.2531 15.4068 92.5329 15.4068C91.8528 15.4068 91.1993 15.5402 90.5725 15.8069L90.2724 15.9269V23.6886ZM105.734 21.8882L106.294 21.8282L106.334 23.4486C104.814 23.7553 103.467 23.9087 102.293 23.9087C100.813 23.9087 99.7458 23.5019 99.0923 22.6884C98.4522 21.8749 98.1321 20.5746 98.1321 18.7876C98.1321 15.2401 99.5791 13.4664 102.473 13.4664C105.274 13.4664 106.674 14.9934 106.674 18.0474L106.534 19.6077H100.333C100.346 20.4346 100.526 21.0414 100.873 21.4281C101.219 21.8149 101.866 22.0083 102.813 22.0083C103.76 22.0083 104.734 21.9682 105.734 21.8882ZM104.533 17.9274C104.533 16.9405 104.373 16.2537 104.053 15.8669C103.747 15.4668 103.22 15.2668 102.473 15.2668C101.726 15.2668 101.179 15.4735 100.833 15.8869C100.499 16.3004 100.326 16.9805 100.313 17.9274H104.533ZM115.312 15.7469C113.738 15.5335 112.598 15.4268 111.891 15.4268C111.184 15.4268 110.691 15.5135 110.411 15.6869C110.144 15.8469 110.011 16.107 110.011 16.4671C110.011 16.8271 110.158 17.0805 110.451 17.2272C110.758 17.3739 111.465 17.5473 112.571 17.7473C113.692 17.934 114.485 18.2341 114.952 18.6475C115.419 19.061 115.652 19.7944 115.652 20.848C115.652 21.9016 115.312 22.6751 114.632 23.1685C113.965 23.6619 112.985 23.9087 111.691 23.9087C110.878 23.9087 109.851 23.7953 108.611 23.5686L107.99 23.4686L108.07 21.6482C109.671 21.8616 110.824 21.9682 111.531 21.9682C112.238 21.9682 112.738 21.8816 113.032 21.7082C113.338 21.5348 113.492 21.2481 113.492 20.848C113.492 20.4479 113.345 20.1745 113.052 20.0278C112.772 19.8678 112.085 19.7011 110.991 19.5277C109.911 19.341 109.117 19.0543 108.611 18.6675C108.104 18.2808 107.85 17.574 107.85 16.5471C107.85 15.5202 108.197 14.7534 108.891 14.2466C109.597 13.7398 110.498 13.4864 111.591 13.4864C112.445 13.4864 113.492 13.5931 114.732 13.8065L115.352 13.9265L115.312 15.7469ZM124.289 15.7469C122.715 15.5335 121.575 15.4268 120.868 15.4268C120.161 15.4268 119.668 15.5135 119.388 15.6869C119.121 15.8469 118.988 16.107 118.988 16.4671C118.988 16.8271 119.135 17.0805 119.428 17.2272C119.735 17.3739 120.442 17.5473 121.548 17.7473C122.669 17.934 123.462 18.2341 123.929 18.6475C124.396 19.061 124.629 19.7944 124.629 20.848C124.629 21.9016 124.289 22.6751 123.609 23.1685C122.942 23.6619 121.962 23.9087 120.668 23.9087C119.855 23.9087 118.828 23.7953 117.588 23.5686L116.967 23.4686L117.047 21.6482C118.648 21.8616 119.801 21.9682 120.508 21.9682C121.215 21.9682 121.715 21.8816 122.009 21.7082C122.315 21.5348 122.469 21.2481 122.469 20.848C122.469 20.4479 122.322 20.1745 122.029 20.0278C121.748 19.8678 121.062 19.7011 119.968 19.5277C118.888 19.341 118.094 19.0543 117.588 18.6675C117.081 18.2808 116.827 17.574 116.827 16.5471C116.827 15.5202 117.174 14.7534 117.868 14.2466C118.574 13.7398 119.475 13.4864 120.568 13.4864C121.422 13.4864 122.469 13.5931 123.709 13.8065L124.329 13.9265L124.289 15.7469Z" fill="#001CB0"/>
</svg>
