<svg width="480" height="380" viewBox="0 0 480 380" fill="none" xmlns="http://www.w3.org/2000/svg">
  <style>
:root {
  /* colour css variables*/
  --color-yellow: #F7941D;
  --color-black: #000000;
  --color-white: #FFFFFF;
  --color-gray: #CCCCCC;

  /*  Animation css variables*/
  --text-01-duration: 1.1s;
  --text-01-start: 0.7s;
  --text-01-step: 0.0s;
  --text-01-offset-distance: translateX(416px);

  --text-02-duration: 1.2s;
  --text-02-start: 1.15s;
  --text-02-step: 0.0s;
  --text-02-offset-distance: translateX(-380px);

  /* --text-easing: cubic-bezier(0, 0.65, 0.5, 1); */

  --text-easing: cubic-bezier(0, 1, 1, 1);

  --divider-start: 0.2s;
  --divider-duration: 0.7s;
  --divider-ease: cubic-bezier(0.68, 1.1, 0.32, 1.15);

  --divider-transform-start: skewX(26deg) translateX(30px) scale(0);
  --divider-transform-end:   skewX(0deg)  translateX(0px) scale(1);

  --mask-start: 0.2;
  --mask-duration: 10.4s;
  --mask-easing: linear;
}

#clipPath01 {
  animation: moveIt var(--mask-duration) forwards var(--mask-easing);
  animation-delay: var(--mask-start);
}

#clipPath02 {
animation: moveIt var(--mask-duration) forwards var(--mask-easing);
  animation-delay: var(--mask-start);
}

@keyframes moveIt { to { transform: translateY(-380px); } }

</style>
  <defs>


    <mask id="mask" x="10" y="17" width="454" height="169" maskUnits="userSpaceOnUse">
      <g id="path-4-outside-1_15862_2648" data-name="path-4-outside-1 15862 2648">
        <rect x="10" y="17" width="454" height="169" fill="#fff" stroke-width="0"/>
        <path d="M40.5,23.3h20.3l23.6,66.7h-19.1l-4.3-13.8h-22.3l-4.4,13.8h-18.3L40.5,23.3ZM57.4,63.3l-7.4-24.5-7.7,24.5h15.1ZM90.4,23.3h25.6c5.1,0,9.9.7,14.2,2,4.4,1.3,8.2,3.4,11.4,6.1,3.2,2.7,5.7,6.2,7.5,10.5,1.8,4.3,2.7,9.3,2.7,15.1s-.9,10.4-2.8,14.5c-1.8,4.1-4.3,7.5-7.5,10.3-3.2,2.7-7,4.8-11.4,6.2-4.4,1.3-9.1,2-14.2,2h-25.5V23.3ZM115.3,74.4c5.8,0,10.3-1.6,13.4-4.9,3.2-3.3,4.8-7.6,4.8-12.9s-.4-5.1-1.1-7.2c-.7-2.2-1.9-4.1-3.4-5.6-1.5-1.6-3.3-2.8-5.6-3.7-2.3-.9-5-1.3-8.1-1.3h-7.2v35.6h7.2ZM151.2,23.3h19.3l15,46.4,14-46.4h18.9l-24.3,66.7h-18.7l-24.2-66.7ZM224.4,23.3h17.7v66.7h-17.7V23.3ZM314.9,77.6c-7.5,9.4-17.4,14.1-29.7,14.1s-9.8-.9-14.1-2.6c-4.3-1.7-7.9-4.1-11-7.2-3-3.1-5.4-6.7-7.1-11-1.7-4.3-2.5-9-2.5-14.1s.8-9.7,2.5-14c1.7-4.3,4-8.1,7.1-11.2,3.1-3.2,6.7-5.7,11-7.4,4.3-1.8,9-2.7,14.1-2.7s11.2,1,16.1,2.9c4.9,1.9,9.1,5.3,12.5,10.1l-11.7,11.8c-1.9-2.5-4.1-4.6-6.7-6.1-2.6-1.5-5.6-2.3-8.9-2.3s-5.3.5-7.5,1.4c-2.2.9-4.1,2.2-5.6,3.9-1.5,1.7-2.6,3.6-3.4,5.9-.8,2.2-1.2,4.6-1.2,7.2s.4,5.1,1.2,7.4c.9,2.3,2.1,4.2,3.6,5.9,1.5,1.7,3.4,3,5.5,3.9,2.2.9,4.6,1.4,7.3,1.4,3.9,0,7-.7,9.4-2,2.5-1.4,4.9-3.6,7.2-6.5l11.9,11.2ZM320.4,23.3h48v15.3h-30.3v10.3h24.9v14.4h-24.9v11.4h32.4v15.3h-50.1V23.3ZM21,113.3h17.7v66.7h-17.7v-66.7ZM49.7,113.3h16.1l25.6,37.2v-37.2h17.5v66.7h-15.1l-26.6-38.3v38.3h-17.5v-66.7ZM125.1,158.9c1.9,1.9,4.3,3.6,7.3,5.1s6.3,2.3,9.9,2.3,1.8,0,2.7-.2c.9-.2,1.8-.5,2.5-.9.7-.4,1.3-.9,1.8-1.6.5-.7.7-1.5.7-2.6,0-1.7-.9-3.2-2.7-4.3-1.7-1.1-4.3-2.3-7.7-3.4l-3.7-1.2c-2.1-.7-4.2-1.5-6.3-2.6-2.1-1.1-3.9-2.3-5.6-3.8-1.7-1.5-3-3.3-4.1-5.3-1-2.1-1.5-4.5-1.5-7.2s.6-5.9,1.7-8.5c1.1-2.7,2.8-5,4.9-6.9,2.2-2,4.9-3.5,8.1-4.6,3.2-1.1,6.9-1.7,11.1-1.7s6.2.3,8.9.9c2.7.6,5,1.3,7,2.2,2,.9,3.7,1.8,5.1,2.8s2.5,1.9,3.2,2.7l-9,11.4c-2.3-1.7-4.8-3.1-7.3-4.2-2.5-1.1-5.1-1.7-7.8-1.7s-1.7,0-2.6.3c-.9.2-1.7.5-2.4.9-.7.4-1.2.9-1.7,1.6-.4.6-.6,1.4-.6,2.3s.2,1.9.7,2.6c.5.7,1.2,1.4,2.1,1.9.9.5,1.9,1,3.1,1.5,1.3.4,2.6.8,4,1.3l3.2,1c2.3.7,4.6,1.6,6.9,2.6,2.3.9,4.4,2.2,6.3,3.9,1.9,1.6,3.4,3.6,4.6,6.1,1.2,2.4,1.8,5.4,1.8,8.9s-.7,5.9-2.2,8.5c-1.4,2.6-3.3,4.8-5.8,6.7-2.4,1.9-5.3,3.3-8.6,4.3-3.3,1.1-6.8,1.6-10.5,1.6-6.7,0-12.3-.9-16.8-2.6-4.5-1.8-8.3-4.2-11.4-7.2l10.7-12.9ZM177.9,113.3h17.7v66.7h-17.7v-66.7ZM240.6,141.9h27.4v30.1c-4,3.4-8.6,5.9-13.8,7.4-5.1,1.5-10.3,2.2-15.5,2.2s-10.3-.8-14.6-2.4c-4.3-1.7-7.9-4-10.9-7-3-3.1-5.3-6.8-6.9-11.1-1.5-4.3-2.3-9.2-2.3-14.6s.8-9.7,2.5-14c1.7-4.3,4.1-8,7.2-11.1,3.1-3.1,6.7-5.6,10.9-7.3,4.3-1.7,9-2.6,14.1-2.6s10.7.9,15.5,2.8c4.9,1.8,8.9,4.8,12.2,9.1l-11.5,11.6c-2.1-2.1-4.3-3.8-6.7-5.1-2.3-1.3-5.1-2-8.2-2s-5.4.5-7.6,1.5-4.1,2.4-5.6,4.1c-1.5,1.7-2.6,3.7-3.4,6-.8,2.3-1.2,4.7-1.2,7.3s.4,5.5,1.3,7.8c.9,2.3,2.1,4.2,3.6,5.9,1.5,1.6,3.4,2.9,5.6,3.8,2.2.9,4.7,1.3,7.4,1.3s4.3-.3,6.3-.8c2-.5,3.9-1.5,5.8-2.8v-6.4h-11.6v-13.7ZM277.8,113.3h17.7v24.4h24.6v-24.4h17.7v66.7h-17.7v-26.1h-24.6v26.1h-17.7v-66.7ZM365.3,128.8h-20.5v-15.5h58.7v15.5h-20.3v51.2h-17.9v-51.2ZM414.7,158.9c1.9,1.9,4.3,3.6,7.3,5.1s6.3,2.3,9.9,2.3,1.8,0,2.7-.2c.9-.2,1.8-.5,2.5-.9.7-.4,1.3-.9,1.8-1.6.5-.7.7-1.5.7-2.6,0-1.7-.9-3.2-2.7-4.3-1.7-1.1-4.3-2.3-7.7-3.4l-3.7-1.2c-2.1-.7-4.2-1.5-6.3-2.6-2.1-1.1-3.9-2.3-5.6-3.8-1.7-1.5-3-3.3-4.1-5.3-1-2.1-1.5-4.5-1.5-7.2s.6-5.9,1.7-8.5c1.1-2.7,2.8-5,4.9-6.9,2.2-2,4.9-3.5,8.1-4.6,3.2-1.1,6.9-1.7,11.1-1.7s6.2.3,8.9.9c2.7.6,5,1.3,7,2.2,2,.9,3.7,1.8,5.1,2.8,1.4,1,2.5,1.9,3.2,2.7l-9,11.4c-2.3-1.7-4.8-3.1-7.3-4.2-2.5-1.1-5.1-1.7-7.8-1.7s-1.7,0-2.6.3c-.9.2-1.7.5-2.4.9-.7.4-1.2.9-1.7,1.6-.4.6-.6,1.4-.6,2.3s.2,1.9.7,2.6c.5.7,1.2,1.4,2.1,1.9.9.5,1.9,1,3.1,1.5,1.3.4,2.6.8,4,1.3l3.2,1c2.3.7,4.6,1.6,6.9,2.6,2.3.9,4.4,2.2,6.3,3.9,1.9,1.6,3.4,3.6,4.6,6.1,1.2,2.4,1.8,5.4,1.8,8.9s-.7,5.9-2.2,8.5c-1.4,2.6-3.3,4.8-5.8,6.7-2.4,1.9-5.3,3.3-8.6,4.3-3.3,1.1-6.8,1.6-10.5,1.6-6.7,0-12.3-.9-16.8-2.6-4.5-1.8-8.3-4.2-11.4-7.2l10.7-12.9Z" fill="#000" stroke-width="0"/>
      </g>
    </mask>
    <mask id="mask-1" x="13" y="197" width="356" height="169" maskUnits="userSpaceOnUse">
      <g id="path-6-outside-2_15862_2648" data-name="path-6-outside-2 15862 2648">
        <rect x="13" y="197" width="356" height="169" fill="#fff" stroke-width="0"/>
        <path d="M37.5,218.8h-20.5v-15.5h58.7v15.5h-20.3v51.2h-17.9v-51.2ZM82.7,203.3h17.7v66.7h-17.7v-66.7ZM111.5,203.3h27.2c3.6,0,6.8.5,9.7,1.5,2.9.9,5.4,2.3,7.5,4.2,2.1,1.8,3.7,4.1,4.8,6.9,1.1,2.7,1.7,5.9,1.7,9.5s-.6,6.5-1.8,9.3c-1.1,2.7-2.7,5.1-4.8,7.1-2,1.9-4.4,3.4-7.3,4.5-2.8,1-5.9,1.5-9.3,1.5h-10.4v22.2h-17.3v-66.7ZM137.2,233.9c2.4,0,4.3-.8,5.7-2.3,1.4-1.5,2.1-3.5,2.1-5.9s-.7-4.6-2-6.1c-1.3-1.5-3.3-2.3-5.9-2.3h-8.3v16.6h8.4ZM174.9,248.9c1.9,1.9,4.3,3.6,7.3,5.1s6.3,2.3,9.9,2.3,1.8,0,2.7-.2c.9-.2,1.8-.5,2.5-.9.7-.4,1.3-.9,1.8-1.6.5-.7.7-1.5.7-2.6,0-1.7-.9-3.2-2.7-4.3-1.7-1.1-4.3-2.3-7.7-3.4l-3.7-1.2c-2.1-.7-4.2-1.5-6.3-2.6-2.1-1.1-3.9-2.3-5.6-3.8-1.7-1.5-3-3.3-4.1-5.3-1-2.1-1.5-4.5-1.5-7.2s.6-5.9,1.7-8.5c1.1-2.7,2.8-5,4.9-6.9,2.2-2,4.9-3.5,8.1-4.6,3.2-1.1,6.9-1.7,11.1-1.7s6.2.3,8.9.9c2.7.6,5,1.3,7,2.2,2,.9,3.7,1.8,5.1,2.8,1.4,1,2.5,1.9,3.2,2.7l-9,11.4c-2.3-1.7-4.8-3.1-7.3-4.2-2.5-1.1-5.1-1.7-7.8-1.7s-1.7,0-2.6.3c-.9.2-1.7.5-2.4.9-.7.4-1.2.9-1.7,1.6-.4.6-.6,1.4-.6,2.3s.2,1.9.7,2.6c.5.7,1.2,1.4,2.1,1.9.9.5,1.9,1,3.1,1.5,1.3.4,2.6.8,4,1.3l3.2,1c2.3.7,4.6,1.6,6.9,2.6,2.3.9,4.4,2.2,6.3,3.9,1.9,1.6,3.4,3.6,4.6,6.1,1.2,2.4,1.8,5.4,1.8,8.9s-.7,5.9-2.2,8.5c-1.4,2.6-3.3,4.8-5.8,6.7-2.4,1.9-5.3,3.3-8.6,4.3-3.3,1.1-6.8,1.6-10.5,1.6-6.7,0-12.3-.9-16.8-2.6-4.5-1.8-8.3-4.2-11.4-7.2l10.7-12.9ZM21.1,293.3h27.2c3.6,0,6.8.5,9.7,1.5,2.9.9,5.4,2.3,7.5,4.2,2.1,1.8,3.7,4.1,4.8,6.9,1.1,2.7,1.7,5.9,1.7,9.5s-.6,6.5-1.8,9.3c-1.1,2.7-2.7,5.1-4.8,7.1-2,1.9-4.4,3.4-7.3,4.5-2.8,1-5.9,1.5-9.3,1.5h-10.4v22.2h-17.3v-66.7ZM46.8,323.9c2.4,0,4.3-.8,5.7-2.3,1.4-1.5,2.1-3.5,2.1-5.9s-.7-4.6-2-6.1c-1.3-1.5-3.3-2.3-5.9-2.3h-8.3v16.6h8.4ZM111.9,361.6c-5,0-9.6-.9-13.9-2.6-4.2-1.8-7.9-4.2-11-7.3-3.1-3.1-5.5-6.8-7.2-11.1-1.7-4.3-2.6-9-2.6-14.1s.9-9.7,2.6-14c1.7-4.3,4.1-8,7.2-11.1,3.1-3.1,6.8-5.6,11-7.3,4.3-1.7,8.9-2.6,13.9-2.6s9.6.9,13.9,2.6c4.3,1.7,7.9,4.2,11,7.3,3.1,3.1,5.5,6.8,7.2,11.1,1.7,4.3,2.6,8.9,2.6,14s-.9,9.8-2.6,14.1c-1.7,4.3-4.1,8-7.2,11.1-3.1,3.1-6.7,5.5-11,7.3-4.3,1.7-8.9,2.6-13.9,2.6ZM111.9,345c2.6,0,4.9-.5,6.9-1.4,2.1-1,3.8-2.3,5.2-4,1.4-1.7,2.5-3.6,3.2-5.9.7-2.3,1.1-4.7,1.1-7.2s-.4-4.9-1.1-7.2c-.7-2.3-1.8-4.2-3.2-5.9-1.4-1.7-3.1-3-5.2-3.9-2-1-4.3-1.5-6.9-1.5s-4.9.5-7,1.5c-2,.9-3.7,2.2-5.1,3.9-1.4,1.7-2.5,3.6-3.2,5.9-.7,2.3-1.1,4.7-1.1,7.2s.4,4.9,1.1,7.2c.7,2.3,1.8,4.2,3.2,5.9,1.4,1.7,3.1,3,5.1,4,2.1.9,4.4,1.4,7,1.4ZM154.9,293.3h17.7v66.7h-17.7v-66.7ZM183.6,293.3h16.1l25.6,37.2v-37.2h17.5v66.7h-15.1l-26.6-38.3v38.3h-17.5v-66.7ZM270.3,308.8h-20.5v-15.5h58.7v15.5h-20.3v51.2h-17.9v-51.2ZM319.7,338.9c1.9,1.9,4.3,3.6,7.3,5.1s6.3,2.3,9.9,2.3,1.8,0,2.7-.2c.9-.2,1.8-.5,2.5-.9.7-.4,1.3-.9,1.8-1.6s.7-1.5.7-2.6c0-1.7-.9-3.2-2.7-4.3-1.7-1.1-4.3-2.3-7.7-3.4l-3.7-1.2c-2.1-.7-4.2-1.5-6.3-2.6-2.1-1.1-3.9-2.3-5.6-3.8-1.7-1.5-3-3.3-4.1-5.3-1-2.1-1.5-4.5-1.5-7.2s.6-5.9,1.7-8.5c1.1-2.7,2.8-5,4.9-6.9,2.2-2,4.9-3.5,8.1-4.6,3.2-1.1,6.9-1.7,11.1-1.7s6.2.3,8.9.9c2.7.6,5,1.3,7,2.2s3.7,1.8,5.1,2.8,2.5,1.9,3.2,2.7l-9,11.4c-2.3-1.7-4.8-3.1-7.3-4.2-2.5-1.1-5.1-1.7-7.8-1.7s-1.7.1-2.6.3c-.9.2-1.7.5-2.4.9-.7.4-1.2.9-1.7,1.6-.4.6-.6,1.4-.6,2.3s.2,1.9.7,2.6c.5.7,1.2,1.4,2.1,1.9.9.5,1.9,1,3.1,1.5,1.3.4,2.6.8,4,1.3l3.2,1c2.3.7,4.6,1.6,6.9,2.6,2.3.9,4.4,2.2,6.3,3.9,1.9,1.6,3.4,3.6,4.6,6.1,1.2,2.4,1.8,5.4,1.8,8.9s-.7,5.9-2.2,8.5c-1.4,2.6-3.3,4.8-5.8,6.7-2.4,1.9-5.3,3.3-8.6,4.3-3.3,1.1-6.8,1.6-10.5,1.6-6.7,0-12.3-.9-16.8-2.6-4.5-1.8-8.3-4.2-11.4-7.2l10.7-12.9Z" fill="#000" stroke-width="0"/>
      </g>
    </mask>

    <clipPath id="clipPath_text_01">
    <rect id="clipPath01" width="480" height="380" y="380" fill="white"/>
    </clipPath>

    <clipPath id="clipPath_text_02">
    <rect id="clipPath02" width="480" height="380" fill="white"/>
    </clipPath>

  </defs>
  <rect id="clipPath" width="480" height="380" fill="#002855" stroke-width="0"/>

  <g id="text_all" clip-path="url(#clipPath_text_01)">
  <path id="text01" d="M40.5,23.3h20.3l23.6,66.7h-19.1l-4.3-13.8h-22.3l-4.4,13.8h-18.3L40.5,23.3ZM57.4,63.3l-7.4-24.5-7.7,24.5h15.1ZM90.4,23.3h25.6c5.1,0,9.9.7,14.2,2,4.4,1.3,8.2,3.4,11.4,6.1,3.2,2.7,5.7,6.2,7.5,10.5,1.8,4.3,2.7,9.3,2.7,15.1s-.9,10.4-2.8,14.5c-1.8,4.1-4.3,7.5-7.5,10.3-3.2,2.7-7,4.8-11.4,6.2-4.4,1.3-9.1,2-14.2,2h-25.5V23.3ZM115.3,74.4c5.8,0,10.3-1.6,13.4-4.9,3.2-3.3,4.8-7.6,4.8-12.9s-.4-5.1-1.1-7.2c-.7-2.2-1.9-4.1-3.4-5.6-1.5-1.6-3.3-2.8-5.6-3.7-2.3-.9-5-1.3-8.1-1.3h-7.2v35.6h7.2ZM151.2,23.3h19.3l15,46.4,14-46.4h18.9l-24.3,66.7h-18.7l-24.2-66.7ZM224.4,23.3h17.7v66.7h-17.7V23.3ZM314.9,77.6c-7.5,9.4-17.4,14.1-29.7,14.1s-9.8-.9-14.1-2.6c-4.3-1.7-7.9-4.1-11-7.2-3-3.1-5.4-6.7-7.1-11-1.7-4.3-2.5-9-2.5-14.1s.8-9.7,2.5-14c1.7-4.3,4-8.1,7.1-11.2,3.1-3.2,6.7-5.7,11-7.4,4.3-1.8,9-2.7,14.1-2.7s11.2,1,16.1,2.9c4.9,1.9,9.1,5.3,12.5,10.1l-11.7,11.8c-1.9-2.5-4.1-4.6-6.7-6.1-2.6-1.5-5.6-2.3-8.9-2.3s-5.3.5-7.5,1.4c-2.2.9-4.1,2.2-5.6,3.9-1.5,1.7-2.6,3.6-3.4,5.9-.8,2.2-1.2,4.6-1.2,7.2s.4,5.1,1.2,7.4c.9,2.3,2.1,4.2,3.6,5.9,1.5,1.7,3.4,3,5.5,3.9,2.2.9,4.6,1.4,7.3,1.4,3.9,0,7-.7,9.4-2,2.5-1.4,4.9-3.6,7.2-6.5l11.9,11.2ZM320.4,23.3h48v15.3h-30.3v10.3h24.9v14.4h-24.9v11.4h32.4v15.3h-50.1V23.3ZM21,113.3h17.7v66.7h-17.7v-66.7ZM49.7,113.3h16.1l25.6,37.2v-37.2h17.5v66.7h-15.1l-26.6-38.3v38.3h-17.5v-66.7ZM125.1,158.9c1.9,1.9,4.3,3.6,7.3,5.1s6.3,2.3,9.9,2.3,1.8,0,2.7-.2c.9-.2,1.8-.5,2.5-.9.7-.4,1.3-.9,1.8-1.6.5-.7.7-1.5.7-2.6,0-1.7-.9-3.2-2.7-4.3-1.7-1.1-4.3-2.3-7.7-3.4l-3.7-1.2c-2.1-.7-4.2-1.5-6.3-2.6-2.1-1.1-3.9-2.3-5.6-3.8-1.7-1.5-3-3.3-4.1-5.3-1-2.1-1.5-4.5-1.5-7.2s.6-5.9,1.7-8.5c1.1-2.7,2.8-5,4.9-6.9,2.2-2,4.9-3.5,8.1-4.6,3.2-1.1,6.9-1.7,11.1-1.7s6.2.3,8.9.9c2.7.6,5,1.3,7,2.2,2,.9,3.7,1.8,5.1,2.8s2.5,1.9,3.2,2.7l-9,11.4c-2.3-1.7-4.8-3.1-7.3-4.2-2.5-1.1-5.1-1.7-7.8-1.7s-1.7,0-2.6.3c-.9.2-1.7.5-2.4.9-.7.4-1.2.9-1.7,1.6-.4.6-.6,1.4-.6,2.3s.2,1.9.7,2.6c.5.7,1.2,1.4,2.1,1.9.9.5,1.9,1,3.1,1.5,1.3.4,2.6.8,4,1.3l3.2,1c2.3.7,4.6,1.6,6.9,2.6,2.3.9,4.4,2.2,6.3,3.9,1.9,1.6,3.4,3.6,4.6,6.1,1.2,2.4,1.8,5.4,1.8,8.9s-.7,5.9-2.2,8.5c-1.4,2.6-3.3,4.8-5.8,6.7-2.4,1.9-5.3,3.3-8.6,4.3-3.3,1.1-6.8,1.6-10.5,1.6-6.7,0-12.3-.9-16.8-2.6-4.5-1.8-8.3-4.2-11.4-7.2l10.7-12.9ZM177.9,113.3h17.7v66.7h-17.7v-66.7ZM240.6,141.9h27.4v30.1c-4,3.4-8.6,5.9-13.8,7.4-5.1,1.5-10.3,2.2-15.5,2.2s-10.3-.8-14.6-2.4c-4.3-1.7-7.9-4-10.9-7-3-3.1-5.3-6.8-6.9-11.1-1.5-4.3-2.3-9.2-2.3-14.6s.8-9.7,2.5-14c1.7-4.3,4.1-8,7.2-11.1,3.1-3.1,6.7-5.6,10.9-7.3,4.3-1.7,9-2.6,14.1-2.6s10.7.9,15.5,2.8c4.9,1.8,8.9,4.8,12.2,9.1l-11.5,11.6c-2.1-2.1-4.3-3.8-6.7-5.1-2.3-1.3-5.1-2-8.2-2s-5.4.5-7.6,1.5-4.1,2.4-5.6,4.1c-1.5,1.7-2.6,3.7-3.4,6-.8,2.3-1.2,4.7-1.2,7.3s.4,5.5,1.3,7.8c.9,2.3,2.1,4.2,3.6,5.9,1.5,1.6,3.4,2.9,5.6,3.8,2.2.9,4.7,1.3,7.4,1.3s4.3-.3,6.3-.8c2-.5,3.9-1.5,5.8-2.8v-6.4h-11.6v-13.7ZM277.8,113.3h17.7v24.4h24.6v-24.4h17.7v66.7h-17.7v-26.1h-24.6v26.1h-17.7v-66.7ZM365.3,128.8h-20.5v-15.5h58.7v15.5h-20.3v51.2h-17.9v-51.2ZM414.7,158.9c1.9,1.9,4.3,3.6,7.3,5.1s6.3,2.3,9.9,2.3,1.8,0,2.7-.2c.9-.2,1.8-.5,2.5-.9.7-.4,1.3-.9,1.8-1.6.5-.7.7-1.5.7-2.6,0-1.7-.9-3.2-2.7-4.3-1.7-1.1-4.3-2.3-7.7-3.4l-3.7-1.2c-2.1-.7-4.2-1.5-6.3-2.6-2.1-1.1-3.9-2.3-5.6-3.8-1.7-1.5-3-3.3-4.1-5.3-1-2.1-1.5-4.5-1.5-7.2s.6-5.9,1.7-8.5c1.1-2.7,2.8-5,4.9-6.9,2.2-2,4.9-3.5,8.1-4.6,3.2-1.1,6.9-1.7,11.1-1.7s6.2.3,8.9.9c2.7.6,5,1.3,7,2.2,2,.9,3.7,1.8,5.1,2.8,1.4,1,2.5,1.9,3.2,2.7l-9,11.4c-2.3-1.7-4.8-3.1-7.3-4.2-2.5-1.1-5.1-1.7-7.8-1.7s-1.7,0-2.6.3c-.9.2-1.7.5-2.4.9-.7.4-1.2.9-1.7,1.6-.4.6-.6,1.4-.6,2.3s.2,1.9.7,2.6c.5.7,1.2,1.4,2.1,1.9.9.5,1.9,1,3.1,1.5,1.3.4,2.6.8,4,1.3l3.2,1c2.3.7,4.6,1.6,6.9,2.6,2.3.9,4.4,2.2,6.3,3.9,1.9,1.6,3.4,3.6,4.6,6.1,1.2,2.4,1.8,5.4,1.8,8.9s-.7,5.9-2.2,8.5c-1.4,2.6-3.3,4.8-5.8,6.7-2.4,1.9-5.3,3.3-8.6,4.3-3.3,1.1-6.8,1.6-10.5,1.6-6.7,0-12.3-.9-16.8-2.6-4.5-1.8-8.3-4.2-11.4-7.2l10.7-12.9Z" fill="#fff" stroke-width="0"/>
  <path id="text02" d="M37.5,218.8h-20.5v-15.5h58.7v15.5h-20.3v51.2h-17.9v-51.2ZM82.7,203.3h17.7v66.7h-17.7v-66.7ZM111.5,203.3h27.2c3.6,0,6.8.5,9.7,1.5,2.9.9,5.4,2.3,7.5,4.2,2.1,1.8,3.7,4.1,4.8,6.9,1.1,2.7,1.7,5.9,1.7,9.5s-.6,6.5-1.8,9.3c-1.1,2.7-2.7,5.1-4.8,7.1-2,1.9-4.4,3.4-7.3,4.5-2.8,1-5.9,1.5-9.3,1.5h-10.4v22.2h-17.3v-66.7ZM137.2,233.9c2.4,0,4.3-.8,5.7-2.3,1.4-1.5,2.1-3.5,2.1-5.9s-.7-4.6-2-6.1c-1.3-1.5-3.3-2.3-5.9-2.3h-8.3v16.6h8.4ZM174.9,248.9c1.9,1.9,4.3,3.6,7.3,5.1s6.3,2.3,9.9,2.3,1.8,0,2.7-.2c.9-.2,1.8-.5,2.5-.9.7-.4,1.3-.9,1.8-1.6.5-.7.7-1.5.7-2.6,0-1.7-.9-3.2-2.7-4.3-1.7-1.1-4.3-2.3-7.7-3.4l-3.7-1.2c-2.1-.7-4.2-1.5-6.3-2.6-2.1-1.1-3.9-2.3-5.6-3.8-1.7-1.5-3-3.3-4.1-5.3-1-2.1-1.5-4.5-1.5-7.2s.6-5.9,1.7-8.5c1.1-2.7,2.8-5,4.9-6.9,2.2-2,4.9-3.5,8.1-4.6,3.2-1.1,6.9-1.7,11.1-1.7s6.2.3,8.9.9c2.7.6,5,1.3,7,2.2,2,.9,3.7,1.8,5.1,2.8,1.4,1,2.5,1.9,3.2,2.7l-9,11.4c-2.3-1.7-4.8-3.1-7.3-4.2-2.5-1.1-5.1-1.7-7.8-1.7s-1.7,0-2.6.3c-.9.2-1.7.5-2.4.9-.7.4-1.2.9-1.7,1.6-.4.6-.6,1.4-.6,2.3s.2,1.9.7,2.6c.5.7,1.2,1.4,2.1,1.9.9.5,1.9,1,3.1,1.5,1.3.4,2.6.8,4,1.3l3.2,1c2.3.7,4.6,1.6,6.9,2.6,2.3.9,4.4,2.2,6.3,3.9,1.9,1.6,3.4,3.6,4.6,6.1,1.2,2.4,1.8,5.4,1.8,8.9s-.7,5.9-2.2,8.5c-1.4,2.6-3.3,4.8-5.8,6.7-2.4,1.9-5.3,3.3-8.6,4.3-3.3,1.1-6.8,1.6-10.5,1.6-6.7,0-12.3-.9-16.8-2.6-4.5-1.8-8.3-4.2-11.4-7.2l10.7-12.9ZM21.1,293.3h27.2c3.6,0,6.8.5,9.7,1.5,2.9.9,5.4,2.3,7.5,4.2,2.1,1.8,3.7,4.1,4.8,6.9,1.1,2.7,1.7,5.9,1.7,9.5s-.6,6.5-1.8,9.3c-1.1,2.7-2.7,5.1-4.8,7.1-2,1.9-4.4,3.4-7.3,4.5-2.8,1-5.9,1.5-9.3,1.5h-10.4v22.2h-17.3v-66.7ZM46.8,323.9c2.4,0,4.3-.8,5.7-2.3,1.4-1.5,2.1-3.5,2.1-5.9s-.7-4.6-2-6.1c-1.3-1.5-3.3-2.3-5.9-2.3h-8.3v16.6h8.4ZM111.9,361.6c-5,0-9.6-.9-13.9-2.6-4.2-1.8-7.9-4.2-11-7.3-3.1-3.1-5.5-6.8-7.2-11.1-1.7-4.3-2.6-9-2.6-14.1s.9-9.7,2.6-14c1.7-4.3,4.1-8,7.2-11.1,3.1-3.1,6.8-5.6,11-7.3,4.3-1.7,8.9-2.6,13.9-2.6s9.6.9,13.9,2.6c4.3,1.7,7.9,4.2,11,7.3,3.1,3.1,5.5,6.8,7.2,11.1,1.7,4.3,2.6,8.9,2.6,14s-.9,9.8-2.6,14.1c-1.7,4.3-4.1,8-7.2,11.1-3.1,3.1-6.7,5.5-11,7.3-4.3,1.7-8.9,2.6-13.9,2.6ZM111.9,345c2.6,0,4.9-.5,6.9-1.4,2.1-1,3.8-2.3,5.2-4,1.4-1.7,2.5-3.6,3.2-5.9.7-2.3,1.1-4.7,1.1-7.2s-.4-4.9-1.1-7.2c-.7-2.3-1.8-4.2-3.2-5.9-1.4-1.7-3.1-3-5.2-3.9-2-1-4.3-1.5-6.9-1.5s-4.9.5-7,1.5c-2,.9-3.7,2.2-5.1,3.9-1.4,1.7-2.5,3.6-3.2,5.9-.7,2.3-1.1,4.7-1.1,7.2s.4,4.9,1.1,7.2c.7,2.3,1.8,4.2,3.2,5.9,1.4,1.7,3.1,3,5.1,4,2.1.9,4.4,1.4,7,1.4ZM154.9,293.3h17.7v66.7h-17.7v-66.7ZM183.6,293.3h16.1l25.6,37.2v-37.2h17.5v66.7h-15.1l-26.6-38.3v38.3h-17.5v-66.7ZM270.3,308.8h-20.5v-15.5h58.7v15.5h-20.3v51.2h-17.9v-51.2ZM319.7,338.9c1.9,1.9,4.3,3.6,7.3,5.1s6.3,2.3,9.9,2.3,1.8,0,2.7-.2c.9-.2,1.8-.5,2.5-.9.7-.4,1.3-.9,1.8-1.6s.7-1.5.7-2.6c0-1.7-.9-3.2-2.7-4.3-1.7-1.1-4.3-2.3-7.7-3.4l-3.7-1.2c-2.1-.7-4.2-1.5-6.3-2.6-2.1-1.1-3.9-2.3-5.6-3.8-1.7-1.5-3-3.3-4.1-5.3-1-2.1-1.5-4.5-1.5-7.2s.6-5.9,1.7-8.5c1.1-2.7,2.8-5,4.9-6.9,2.2-2,4.9-3.5,8.1-4.6,3.2-1.1,6.9-1.7,11.1-1.7s6.2.3,8.9.9c2.7.6,5,1.3,7,2.2s3.7,1.8,5.1,2.8,2.5,1.9,3.2,2.7l-9,11.4c-2.3-1.7-4.8-3.1-7.3-4.2-2.5-1.1-5.1-1.7-7.8-1.7s-1.7.1-2.6.3c-.9.2-1.7.5-2.4.9-.7.4-1.2.9-1.7,1.6-.4.6-.6,1.4-.6,2.3s.2,1.9.7,2.6c.5.7,1.2,1.4,2.1,1.9.9.5,1.9,1,3.1,1.5,1.3.4,2.6.8,4,1.3l3.2,1c2.3.7,4.6,1.6,6.9,2.6,2.3.9,4.4,2.2,6.3,3.9,1.9,1.6,3.4,3.6,4.6,6.1,1.2,2.4,1.8,5.4,1.8,8.9s-.7,5.9-2.2,8.5c-1.4,2.6-3.3,4.8-5.8,6.7-2.4,1.9-5.3,3.3-8.6,4.3-3.3,1.1-6.8,1.6-10.5,1.6-6.7,0-12.3-.9-16.8-2.6-4.5-1.8-8.3-4.2-11.4-7.2l10.7-12.9Z" fill="#ffd000" stroke-width="0"/>
  </g>

  <g id="text_outline_all" clip-path="url(#clipPath_text_02)" opacity="1">
  <g mask="url(#mask)">
    <path id="text01_outline" d="M40.5,23.3v-4h-2.8l-1,2.6,3.8,1.4ZM60.8,23.3l3.8-1.3-.9-2.7h-2.8v4ZM84.4,90v4h5.7l-1.9-5.3-3.8,1.3ZM65.3,90l-3.8,1.2.9,2.8h2.9v-4ZM61,76.2l3.8-1.2-.9-2.8h-2.9v4ZM38.7,76.2v-4h-2.9l-.9,2.8,3.8,1.2ZM34.3,90v4h2.9l.9-2.8-3.8-1.2ZM16,90l-3.8-1.4-2,5.4h5.7v-4ZM57.4,63.3v4h5.4l-1.6-5.2-3.8,1.2ZM50,38.8l3.8-1.2-3.8-12.4-3.9,12.4,3.8,1.2ZM42.3,63.3l-3.8-1.2-1.6,5.2h5.5v-4ZM40.5,23.3v4h20.3v-8h-20.3v4ZM60.8,23.3l-3.8,1.3,23.6,66.7,3.8-1.3,3.8-1.3-23.6-66.7-3.8,1.3ZM84.4,90v-4h-19.1v8h19.1v-4ZM65.3,90l3.8-1.2-4.3-13.8-3.8,1.2-3.8,1.2,4.3,13.8,3.8-1.2ZM61,76.2v-4h-22.3v8h22.3v-4ZM38.7,76.2l-3.8-1.2-4.4,13.8,3.8,1.2,3.8,1.2,4.4-13.8-3.8-1.2ZM34.3,90v-4h-18.3v8h18.3v-4ZM16,90l3.8,1.4L44.3,24.7l-3.8-1.4-3.8-1.4L12.2,88.6l3.8,1.4ZM57.4,63.3l3.8-1.2-7.4-24.5-3.8,1.2-3.8,1.2,7.4,24.5,3.8-1.2ZM50,38.8l-3.8-1.2-7.7,24.5,3.8,1.2,3.8,1.2,7.7-24.5-3.8-1.2ZM42.3,63.3v4h15.1v-8h-15.1v4ZM90.4,23.3v-4h-4v4h4ZM130.2,25.3l-1.2,3.8h0s0,0,0,0l1.2-3.8ZM149.1,41.9l3.7-1.6h0l-3.7,1.6ZM149,71.5l-3.6-1.6h0s0,0,0,0l3.7,1.6ZM141.5,81.8l2.6,3h0s0,0,0,0l-2.6-3ZM130.1,88l1.2,3.8h0s0,0,0,0l-1.2-3.8ZM90.4,90h-4v4h4v-4ZM128.7,69.5l-2.9-2.8h0s2.9,2.8,2.9,2.8ZM132.4,49.4l-3.8,1.3h0s0,0,0,0l3.8-1.3ZM129,43.8l-2.9,2.7h0c0,0,0,.1,0,.1l2.8-2.8ZM123.4,40.1l-1.4,3.7h0l1.4-3.7ZM108.1,38.8v-4h-4v4h4ZM108.1,74.4h-4v4h4v-4ZM90.4,23.3v4h25.6v-8h-25.6v4ZM116,23.3v4c4.8,0,9.1.6,13,1.8l1.2-3.8,1.2-3.8c-4.8-1.5-9.9-2.2-15.4-2.2v4ZM130.2,25.3l-1.2,3.8c3.9,1.2,7.2,3,10,5.3l2.6-3,2.6-3c-3.7-3.1-8-5.4-12.8-6.9l-1.2,3.8ZM141.6,31.4l-2.6,3c2.7,2.3,4.8,5.3,6.4,9l3.7-1.6,3.7-1.6c-2-4.8-4.9-8.8-8.6-12l-2.6,3ZM149.1,41.9l-3.7,1.6c1.5,3.7,2.4,8.1,2.4,13.5h8c0-6.2-1-11.8-3-16.7l-3.7,1.6ZM151.8,57h-4c0,5.1-.9,9.3-2.4,12.9l3.6,1.6,3.6,1.6c2.1-4.8,3.2-10.2,3.2-16.1h-4ZM149,71.5l-3.7-1.6c-1.6,3.6-3.7,6.5-6.5,8.9l2.6,3,2.6,3c3.7-3.2,6.5-7.1,8.5-11.7l-3.7-1.6ZM141.5,81.8l-2.6-3c-2.8,2.4-6.1,4.2-10,5.4l1.2,3.8,1.2,3.8c4.9-1.5,9.1-3.9,12.8-7l-2.6-3ZM130.1,88l-1.2-3.8c-4,1.2-8.3,1.8-13,1.8v8c5.4,0,10.5-.7,15.4-2.2l-1.2-3.8ZM115.9,90v-4h-25.5v8h25.5v-4ZM90.4,90h4V23.3h-8v66.7h4ZM115.3,74.4v4c6.6,0,12.2-1.9,16.3-6.1l-2.9-2.8-2.9-2.8c-2.2,2.3-5.5,3.7-10.5,3.7v4ZM128.7,69.5l2.9,2.8c4-4.2,5.9-9.5,5.9-15.7h-8c0,4.4-1.3,7.6-3.7,10.1l2.9,2.8ZM133.5,56.6h4c0-3-.4-5.9-1.3-8.5l-3.8,1.3-3.8,1.3c.6,1.6.9,3.6.9,5.9h4ZM132.4,49.4l3.8-1.3c-.9-2.7-2.4-5.2-4.4-7.2l-2.8,2.8-2.8,2.8c1.1,1.1,1.9,2.4,2.4,4l3.8-1.3ZM129,43.8l2.9-2.7c-1.9-2.1-4.3-3.7-7.1-4.7l-1.4,3.7-1.4,3.7c1.8.7,3.1,1.6,4.1,2.7l2.9-2.7ZM123.4,40.1l1.4-3.7c-2.8-1.1-6-1.6-9.5-1.6v8c2.8,0,5,.4,6.7,1l1.4-3.7ZM115.3,38.8v-4h-7.2v8h7.2v-4ZM108.1,38.8h-4v35.6h8v-35.6h-4ZM108.1,74.4v4h7.2v-8h-7.2v4ZM151.2,23.3v-4h-5.7l1.9,5.4,3.8-1.4ZM170.5,23.3l3.8-1.2-.9-2.8h-2.9v4ZM185.5,69.7l-3.8,1.2,3.9,12.2,3.7-12.3-3.8-1.2ZM199.5,23.3v-4h-3l-.9,2.8,3.8,1.2ZM218.4,23.3l3.8,1.4,2-5.4h-5.7v4ZM194.1,90v4h2.8l1-2.6-3.8-1.4ZM175.4,90l-3.8,1.4,1,2.6h2.8v-4ZM151.2,23.3v4h19.3v-8h-19.3v4ZM170.5,23.3l-3.8,1.2,15,46.4,3.8-1.2,3.8-1.2-15-46.4-3.8,1.2ZM185.5,69.7l3.8,1.2,14-46.4-3.8-1.2-3.8-1.2-14,46.4,3.8,1.2ZM199.5,23.3v4h18.9v-8h-18.9v4ZM218.4,23.3l-3.8-1.4-24.3,66.7,3.8,1.4,3.8,1.4,24.3-66.7-3.8-1.4ZM194.1,90v-4h-18.7v8h18.7v-4ZM175.4,90l3.8-1.4-24.2-66.7-3.8,1.4-3.8,1.4,24.2,66.7,3.8-1.4ZM224.4,23.3v-4h-4v4h4ZM242.1,23.3h4v-4h-4v4ZM242.1,90v4h4v-4h-4ZM224.4,90h-4v4h4v-4ZM224.4,23.3v4h17.7v-8h-17.7v4ZM242.1,23.3h-4v66.7h8V23.3h-4ZM242.1,90v-4h-17.7v8h17.7v-4ZM224.4,90h4V23.3h-8v66.7h4ZM314.9,77.6l3.1,2.5,2.3-2.9-2.7-2.5-2.7,2.9ZM271.1,89.1l-1.5,3.7h0l1.5-3.7ZM260.1,81.9l-2.9,2.8h0s0,0,0,0l2.8-2.8ZM253,70.9l-3.7,1.5h0s0,0,0,0l3.7-1.5ZM253,42.8l3.7,1.5h0s0,0,0,0l-3.7-1.4ZM260.1,31.6l2.9,2.8h0s0,0,0,0l-2.9-2.8ZM271.1,24.2l1.5,3.7h0s0,0,0,0l-1.6-3.7ZM301.3,24.4l-1.5,3.7h0l1.5-3.7ZM313.8,34.5l2.8,2.8,2.4-2.4-1.9-2.7-3.3,2.3ZM302.1,46.3l-3.2,2.4,2.8,3.8,3.3-3.3-2.8-2.8ZM295.4,40.2l-2,3.4h0l2-3.4ZM279,39.3l-1.6-3.7h0l1.6,3.7ZM273.4,43.2l-2.9-2.7h0s0,0,0,0l3,2.6ZM270,49.1l3.8,1.4h0s0,0,0,0l-3.8-1.3ZM270,63.7l-3.8,1.3h0s0,0,0,0l3.7-1.4ZM273.6,69.6l-2.9,2.7,2.9-2.7ZM279.1,73.5l-1.6,3.7h0s0,0,0,0l1.6-3.7ZM295.8,72.9l1.9,3.5h0s0,0,0,0l-2-3.5ZM303,66.4l2.7-2.9-3.2-3-2.7,3.4,3.1,2.5ZM314.9,77.6l-3.1-2.5c-6.8,8.4-15.5,12.6-26.6,12.6v8c13.5,0,24.5-5.2,32.8-15.6l-3.1-2.5ZM285.2,91.7v-4c-4.7,0-8.9-.8-12.6-2.3l-1.5,3.7-1.5,3.7c4.8,1.9,10,2.9,15.6,2.9v-4ZM271.1,89.1l1.5-3.7c-3.8-1.5-7-3.7-9.7-6.3l-2.8,2.8-2.8,2.8c3.5,3.5,7.6,6.2,12.3,8.1l1.5-3.7ZM260.1,81.9l2.9-2.8c-2.6-2.7-4.7-5.9-6.3-9.7l-3.7,1.5-3.7,1.5c1.9,4.7,4.6,8.8,7.9,12.3l2.9-2.8ZM253,70.9l3.7-1.5c-1.5-3.8-2.2-7.9-2.2-12.6h-8c0,5.6.9,10.8,2.8,15.6l3.7-1.5ZM250.5,56.8h4c0-4.6.8-8.8,2.2-12.5l-3.7-1.5-3.7-1.5c-1.9,4.8-2.8,9.9-2.8,15.5h4ZM253,42.8l3.7,1.4c1.5-3.9,3.6-7.1,6.2-9.8l-2.9-2.8-2.9-2.8c-3.5,3.5-6.1,7.8-8,12.6l3.7,1.4ZM260.1,31.6l2.9,2.8c2.7-2.8,5.9-4.9,9.6-6.5l-1.5-3.7-1.5-3.7c-4.8,1.9-8.9,4.7-12.4,8.3l2.9,2.8ZM271.1,24.2l1.6,3.7c3.7-1.6,7.9-2.4,12.5-2.4v-8c-5.6,0-10.8,1-15.7,3l1.6,3.7ZM285.2,21.5v4c5.3,0,10.2.9,14.6,2.6l1.5-3.7,1.5-3.7c-5.4-2.1-11.3-3.2-17.6-3.2v4ZM301.3,24.4l-1.5,3.7c4.1,1.6,7.7,4.5,10.7,8.7l3.3-2.3,3.3-2.3c-3.8-5.4-8.6-9.3-14.3-11.5l-1.5,3.7ZM313.8,34.5l-2.8-2.8-11.7,11.8,2.8,2.8,2.8,2.8,11.7-11.8-2.8-2.8ZM302.1,46.3l3.2-2.4c-2.2-2.9-4.8-5.4-7.9-7.2l-2,3.4-2,3.4c2.1,1.2,4,2.9,5.5,5l3.2-2.4ZM295.4,40.2l2-3.4c-3.3-1.9-7-2.9-10.9-2.9v8c2.7,0,4.9.6,6.9,1.7l2-3.4ZM286.5,37.9v-4c-3.2,0-6.3.5-9.1,1.7l1.6,3.7,1.6,3.7c1.6-.7,3.6-1.1,5.9-1.1v-4ZM279,39.3l-1.6-3.7c-2.7,1.1-5,2.8-7,4.9l2.9,2.7,2.9,2.7c1.1-1.2,2.5-2.2,4.2-2.9l-1.6-3.7ZM273.4,43.2l-3-2.6c-1.8,2.1-3.2,4.5-4.2,7.2l3.8,1.3,3.8,1.3c.6-1.8,1.5-3.3,2.6-4.6l-3-2.6ZM270,49.1l-3.8-1.4c-1,2.7-1.4,5.6-1.4,8.6h8c0-2.2.3-4.1,1-5.8l-3.8-1.4ZM268.8,56.3h-4c0,3.1.5,6,1.4,8.7l3.8-1.3,3.8-1.3c-.6-1.8-1-3.8-1-6.1h-4ZM270,63.7l-3.7,1.4c1,2.7,2.5,5.1,4.4,7.2l2.9-2.7,2.9-2.7c-1.2-1.3-2.1-2.8-2.8-4.6l-3.7,1.4ZM273.6,69.6l-2.9,2.7c1.9,2.1,4.2,3.7,6.8,4.9l1.6-3.7,1.6-3.7c-1.6-.7-3-1.7-4.2-2.9l-2.9,2.7ZM279.1,73.5l-1.6,3.7c2.7,1.2,5.7,1.7,8.9,1.7v-8c-2.2,0-4.1-.4-5.7-1.1l-1.6,3.7ZM286.4,74.9v4c4.3,0,8.2-.7,11.3-2.5l-1.9-3.5-1.9-3.5c-1.6.9-4,1.5-7.5,1.5v4ZM295.8,72.9l2,3.5c3-1.7,5.8-4.3,8.4-7.5l-3.1-2.5-3.1-2.5c-2.1,2.7-4.1,4.4-6,5.5l2,3.5ZM303,66.4l-2.7,2.9,11.9,11.2,2.7-2.9,2.7-2.9-11.9-11.2-2.7,2.9ZM320.4,23.3v-4h-4v4h4ZM368.4,23.3h4v-4h-4v4ZM368.4,38.6v4h4v-4h-4ZM338.1,38.6v-4h-4v4h4ZM338.1,48.9h-4v4h4v-4ZM363,48.9h4v-4h-4v4ZM363,63.3v4h4v-4h-4ZM338.1,63.3v-4h-4v4h4ZM338.1,74.7h-4v4h4v-4ZM370.5,74.7h4v-4h-4v4ZM370.5,90v4h4v-4h-4ZM320.4,90h-4v4h4v-4ZM320.4,23.3v4h48v-8h-48v4ZM368.4,23.3h-4v15.3h8v-15.3h-4ZM368.4,38.6v-4h-30.3v8h30.3v-4ZM338.1,38.6h-4v10.3h8v-10.3h-4ZM338.1,48.9v4h24.9v-8h-24.9v4ZM363,48.9h-4v14.4h8v-14.4h-4ZM363,63.3v-4h-24.9v8h24.9v-4ZM338.1,63.3h-4v11.4h8v-11.4h-4ZM338.1,74.7v4h32.4v-8h-32.4v4ZM370.5,74.7h-4v15.3h8v-15.3h-4ZM370.5,90v-4h-50.1v8h50.1v-4ZM320.4,90h4V23.3h-8v66.7h4ZM21,113.3v-4h-4v4h4ZM38.7,113.3h4v-4h-4v4ZM38.7,180v4h4v-4h-4ZM21,180h-4v4h4v-4ZM21,113.3v4h17.7v-8h-17.7v4ZM38.7,113.3h-4v66.7h8v-66.7h-4ZM38.7,180v-4h-17.7v8h17.7v-4ZM21,180h4v-66.7h-8v66.7h4ZM49.7,113.3v-4h-4v4h4ZM65.8,113.3l3.3-2.3-1.2-1.7h-2.1v4ZM91.4,150.5l-3.3,2.3,7.3,10.6v-12.9h-4ZM91.4,113.3v-4h-4v4h4ZM108.9,113.3h4v-4h-4v4ZM108.9,180v4h4v-4h-4ZM93.8,180l-3.3,2.3,1.2,1.7h2.1v-4ZM67.2,141.7l3.3-2.3-7.3-10.5v12.8h4ZM67.2,180v4h4v-4h-4ZM49.7,180h-4v4h4v-4ZM49.7,113.3v4h16.1v-8h-16.1v4ZM65.8,113.3l-3.3,2.3,25.6,37.2,3.3-2.3,3.3-2.3-25.6-37.2-3.3,2.3ZM91.4,150.5h4v-37.2h-8v37.2h4ZM91.4,113.3v4h17.5v-8h-17.5v4ZM108.9,113.3h-4v66.7h8v-66.7h-4ZM108.9,180v-4h-15.1v8h15.1v-4ZM93.8,180l3.3-2.3-26.6-38.3-3.3,2.3-3.3,2.3,26.6,38.3,3.3-2.3ZM67.2,141.7h-4v38.3h8v-38.3h-4ZM67.2,180v-4h-17.5v8h17.5v-4ZM49.7,180h4v-66.7h-8v66.7h4ZM125.1,158.9l2.8-2.8-3.1-3.1-2.8,3.4,3.1,2.6ZM145,166.1l.6,4h.1s.1,0,.1,0l-.8-3.9ZM147.5,165.2l1.9,3.5h0l-1.9-3.5ZM149.3,163.6l-3.3-2.3h0l3.3,2.3ZM147.3,156.7l-2.2,3.3h0s0,0,0,0l2.1-3.4ZM139.6,153.3l1.3-3.8h0s0,0,0,0l-1.2,3.8ZM135.9,152.1l1.2-3.8h0s-1.2,3.8-1.2,3.8ZM129.6,149.5l-1.8,3.6h0s0,0,0,0l1.8-3.6ZM124,145.7l-2.7,2.9h0s0,0,0,0l2.6-3ZM119.9,140.4l-3.6,1.7h0c0,0,0,.1,0,.1l3.5-1.9ZM120.1,124.7l3.7,1.6h0s0,0,0,0l-3.7-1.6ZM125,117.8l2.7,3h0s-2.7-3-2.7-3ZM133.1,113.2l1.3,3.8h0s0,0,0,0l-1.3-3.8ZM165.2,117.4l2.3-3.3h0l-2.3,3.3ZM168.4,120.1l3.1,2.5,2.1-2.7-2.3-2.5-2.9,2.7ZM159.4,131.5l-2.4,3.2,3.1,2.3,2.4-3-3.1-2.5ZM152.1,127.3l-1.6,3.7h0s0,0,0,0l1.6-3.7ZM141.7,125.9l.9,3.9h0l-.9-3.9ZM139.3,126.8l-1.9-3.5h0s0,0,0,0l2.1,3.4ZM137.6,128.4l-3.3-2.3h0s0,0,0,0l3.3,2.2ZM137.7,133.3l-3.4,2.1h0c0,.1,0,.2,0,.2l3.2-2.4ZM139.8,135.2l-2.1,3.4h0l2.1-3.4ZM142.9,136.7l-1.4,3.7h.1s.1,0,.1,0l1.2-3.8ZM146.9,138l-1.3,3.8h0s0,0,0,0l1.2-3.8ZM150.1,139l1.2-3.8h0s0,0,0,0l-1.2,3.8ZM157,141.6l-1.6,3.7h0s0,0,0,0l1.5-3.7ZM163.3,145.5l-2.7,3h0s0,0,0,0l2.6-3ZM167.9,151.6l-3.6,1.8h0s0,0,0,0l3.6-1.8ZM167.5,169l-3.5-2h0s0,0,0,0l3.5,1.9ZM161.7,175.7l-2.4-3.2h0s0,0,0,0l2.5,3.2ZM153.1,180l-1.1-3.8h0s0,0,0,0l1.2,3.8ZM125.8,179l-1.5,3.7h0s0,0,0,0l1.4-3.7ZM114.4,171.8l-3.1-2.6-2.4,2.9,2.7,2.6,2.8-2.9ZM125.1,158.9l-2.8,2.8c2.2,2.2,5,4.2,8.3,5.8l1.8-3.6,1.8-3.6c-2.7-1.4-4.8-2.9-6.3-4.4l-2.8,2.8ZM132.4,164l-1.8,3.6c3.6,1.8,7.5,2.7,11.7,2.7v-8c-3,0-5.7-.6-8.1-1.9l-1.8,3.6ZM142.3,166.3v4c1.1,0,2.2,0,3.3-.2l-.6-4-.6-4c-.8.1-1.5.2-2.1.2v4ZM145,166.1l.8,3.9c1.3-.3,2.5-.7,3.6-1.3l-1.9-3.5-1.9-3.5c-.4.2-.8.4-1.4.5l.8,3.9ZM147.5,165.2l1.9,3.5c1.3-.7,2.3-1.6,3.2-2.8l-3.3-2.3-3.3-2.3c-.1.1-.2.3-.4.4l1.9,3.5ZM149.3,163.6l3.3,2.3c1.1-1.5,1.4-3.3,1.4-4.9h-8c0,.2,0,.4,0,.4,0,0,0,0,0-.1l3.3,2.3ZM150,161h4c0-3.4-1.9-6-4.6-7.7l-2.1,3.4-2.1,3.4c.5.3.7.6.8.7,0,0,0,.1,0,.2h4ZM147.3,156.7l2.2-3.3c-2.2-1.4-5.1-2.7-8.6-3.8l-1.3,3.8-1.3,3.8c3.3,1.1,5.5,2.1,6.8,3l2.2-3.3ZM139.6,153.3l1.2-3.8-3.7-1.2-1.2,3.8-1.2,3.8,3.7,1.2,1.2-3.8ZM135.9,152.1l1.2-3.8c-1.9-.6-3.8-1.4-5.7-2.4l-1.8,3.6-1.8,3.6c2.3,1.1,4.6,2.1,6.9,2.8l1.2-3.8ZM129.6,149.5l1.8-3.6c-1.8-.9-3.4-2-4.8-3.2l-2.6,3-2.6,3c1.9,1.7,4.1,3.1,6.4,4.4l1.8-3.6ZM124,145.7l2.7-2.9c-1.3-1.2-2.4-2.6-3.3-4.2l-3.5,1.9-3.5,1.9c1.3,2.4,2.9,4.5,4.9,6.4l2.7-2.9ZM119.9,140.4l3.6-1.7c-.7-1.4-1.1-3.2-1.1-5.5h-8c0,3.2.6,6.2,1.9,8.9l3.6-1.7ZM118.4,133.2h4c0-2.6.5-4.8,1.4-6.9l-3.7-1.6-3.7-1.6c-1.4,3.1-2,6.5-2,10.1h4ZM120.1,124.7l3.7,1.6c.9-2.1,2.2-4,3.9-5.5l-2.7-3-2.7-3c-2.6,2.3-4.5,5.1-5.9,8.3l3.7,1.6ZM125,117.8l2.7,3c1.7-1.6,3.9-2.9,6.7-3.8l-1.3-3.8-1.3-3.8c-3.7,1.2-6.9,3-9.5,5.4l2.7,3ZM133.1,113.2l1.3,3.8c2.7-1,5.9-1.5,9.8-1.5v-8c-4.6,0-8.7.6-12.4,1.9l1.3,3.8ZM144.2,111.5v4c3,0,5.7.3,8,.8l.9-3.9.9-3.9c-3-.7-6.3-1-9.8-1v4ZM153.1,112.4l-.9,3.9c2.5.6,4.6,1.2,6.3,2l1.6-3.7,1.6-3.7c-2.3-1-4.9-1.8-7.7-2.4l-.9,3.9ZM160.1,114.6l-1.6,3.7c1.8.8,3.2,1.6,4.4,2.4l2.3-3.3,2.3-3.3c-1.7-1.2-3.6-2.3-5.8-3.2l-1.6,3.7ZM165.2,117.4l-2.3,3.3c1.3.9,2.1,1.6,2.6,2.1l2.9-2.7,2.9-2.7c-1-1.1-2.3-2.2-3.8-3.3l-2.3,3.3ZM168.4,120.1l-3.1-2.5-9,11.4,3.1,2.5,3.1,2.5,9-11.4-3.1-2.5ZM159.4,131.5l2.4-3.2c-2.6-1.9-5.3-3.5-8.1-4.7l-1.6,3.7-1.6,3.7c2.2.9,4.4,2.2,6.5,3.7l2.4-3.2ZM152.1,127.3l1.6-3.7c-3-1.4-6.2-2-9.4-2v8c2.1,0,4.1.4,6.2,1.4l1.6-3.7ZM144.3,125.6v-4c-1.2,0-2.3.1-3.5.4l.9,3.9.9,3.9c.6-.1,1.1-.2,1.7-.2v-4ZM141.7,125.9l-.9-3.9c-1.2.3-2.3.7-3.4,1.3l1.9,3.5,1.9,3.5c.4-.2.8-.4,1.4-.5l-.9-3.9ZM139.3,126.8l-2.1-3.4c-1.2.7-2.1,1.6-2.9,2.7l3.3,2.3,3.3,2.3c.2-.2.3-.4.5-.5l-2.1-3.4ZM137.6,128.4l-3.3-2.2c-1,1.4-1.3,3-1.3,4.5h8c0,0,0-.2,0-.2,0,0,0,0,0,0,0,0,0,0,0,0,0,0,0,0,0,.1l-3.3-2.2ZM137,130.7h-4c0,1.6.4,3.3,1.3,4.7l3.4-2.1,3.4-2.1s0,0,0,0c0,0,0-.2,0-.4h-4ZM137.7,133.3l-3.2,2.4c.9,1.2,2,2.2,3.2,3l2.1-3.4,2.1-3.4c-.5-.3-.8-.6-1-.8l-3.2,2.4ZM139.8,135.2l-2.1,3.4c1.1.7,2.4,1.3,3.7,1.8l1.4-3.7,1.4-3.7c-1-.4-1.8-.8-2.5-1.2l-2.1,3.4ZM142.9,136.7l-1.2,3.8c1.2.4,2.6.8,3.9,1.3l1.3-3.8,1.3-3.8c-1.4-.5-2.8-.9-4.1-1.3l-1.2,3.8ZM146.9,138l-1.2,3.8,3.2,1,1.2-3.8,1.2-3.8-3.2-1-1.2,3.8ZM150.1,139l-1.2,3.8c2.1.7,4.3,1.5,6.6,2.5l1.6-3.7,1.6-3.7c-2.4-1-4.9-2-7.2-2.7l-1.2,3.8ZM157,141.6l-1.5,3.7c1.9.8,3.6,1.8,5.1,3.2l2.7-3,2.7-3c-2.2-2-4.7-3.5-7.5-4.6l-1.5,3.7ZM163.3,145.5l-2.6,3c1.4,1.2,2.6,2.8,3.6,4.8l3.6-1.8,3.6-1.8c-1.4-2.9-3.3-5.4-5.6-7.4l-2.6,3ZM167.9,151.6l-3.6,1.8c.8,1.7,1.4,4,1.4,7.1h8c0-4-.7-7.6-2.2-10.7l-3.6,1.8ZM169.7,160.5h-4c0,2.4-.6,4.6-1.7,6.5l3.5,2,3.5,2c1.8-3.2,2.7-6.7,2.7-10.5h-4ZM167.5,169l-3.5-1.9c-1.1,2.1-2.7,3.9-4.7,5.4l2.4,3.2,2.4,3.2c2.9-2.2,5.2-4.9,6.9-8l-3.5-1.9ZM161.7,175.7l-2.5-3.2c-2,1.5-4.4,2.7-7.3,3.6l1.1,3.8,1.1,3.8c3.7-1.1,7.1-2.8,9.9-5l-2.5-3.2ZM153.1,180l-1.2-3.8c-2.8.9-5.9,1.4-9.3,1.4v8c4.1,0,8-.6,11.7-1.8l-1.2-3.8ZM142.6,181.6v-4c-6.3,0-11.4-.8-15.4-2.3l-1.4,3.7-1.4,3.7c5.1,2,11.2,2.9,18.2,2.9v-4ZM125.8,179l1.5-3.7c-4-1.6-7.4-3.8-10.1-6.4l-2.8,2.9-2.8,2.9c3.5,3.4,7.8,6.1,12.7,8l1.5-3.7ZM114.4,171.8l3.1,2.6,10.7-12.9-3.1-2.6-3.1-2.6-10.7,12.9,3.1,2.6ZM177.9,113.3v-4h-4v4h4ZM195.6,113.3h4v-4h-4v4ZM195.6,180v4h4v-4h-4ZM177.9,180h-4v4h4v-4ZM177.9,113.3v4h17.7v-8h-17.7v4ZM195.6,113.3h-4v66.7h8v-66.7h-4ZM195.6,180v-4h-17.7v8h17.7v-4ZM177.9,180h4v-66.7h-8v66.7h4ZM240.6,141.9v-4h-4v4h4ZM268,141.9h4v-4h-4v4ZM268,172l2.6,3,1.4-1.2v-1.9h-4ZM254.2,179.4l1.1,3.8h0s0,0,0,0l-1.1-3.8ZM224.1,179.2l-1.5,3.7h0s0,0,0,0l1.4-3.8ZM213.2,172.2l-2.9,2.8h0s0,0,0,0l2.8-2.8ZM206.3,161.1l-3.8,1.3h0s0,0,0,0l3.8-1.4ZM206.5,132.5l-3.7-1.5h0s0,0,0,0l3.7,1.5ZM213.7,121.4l2.8,2.8h0s0,0,0,0l-2.9-2.8ZM224.6,114.1l-1.5-3.7h0s0,0,0,0l1.5,3.7ZM254.2,114.3l-1.4,3.7h0s0,0,0,0l1.4-3.8ZM266.4,123.4l2.8,2.8,2.5-2.5-2.1-2.8-3.2,2.4ZM254.9,135l-2.8,2.8,2.8,2.8,2.8-2.9-2.8-2.8ZM248.2,129.9l-2,3.5h0s0,0,0,0l1.9-3.5ZM232.4,129.4l-1.7-3.6h0l1.7,3.6ZM226.8,133.5l-3-2.6h0s3,2.6,3,2.6ZM223.4,139.5l3.8,1.3h0s0,0,0,0l-3.8-1.3ZM223.5,154.6l-3.8,1.4h0s0,0,0,0l3.7-1.4ZM227.1,160.5l-2.9,2.7h0s0,0,0,0l2.9-2.8ZM232.7,164.3l-1.6,3.7h0s0,0,0,0l1.5-3.7ZM252.2,162l2.3,3.3,1.7-1.2v-2.1h-4ZM252.2,155.6h4v-4h-4v4ZM240.6,155.6h-4v4h4v-4ZM240.6,141.9v4h27.4v-8h-27.4v4ZM268,141.9h-4v30.1h8v-30.1h-4ZM268,172l-2.6-3c-3.6,3-7.7,5.2-12.3,6.6l1.1,3.8,1.1,3.8c5.7-1.7,10.8-4.4,15.3-8.2l-2.6-3ZM254.2,179.4l-1.1-3.8c-4.8,1.4-9.6,2-14.4,2v8c5.6,0,11.1-.8,16.6-2.4l-1.1-3.8ZM238.7,181.6v-4c-5,0-9.4-.7-13.2-2.2l-1.4,3.8-1.4,3.8c4.8,1.8,10.2,2.6,16,2.6v-4ZM224.1,179.2l1.5-3.7c-3.8-1.5-6.9-3.5-9.5-6.1l-2.8,2.8-2.8,2.8c3.4,3.4,7.5,6,12.3,7.9l1.5-3.7ZM213.2,172.2l2.9-2.8c-2.6-2.6-4.6-5.8-6-9.7l-3.8,1.4-3.8,1.4c1.8,4.8,4.4,9,7.8,12.5l2.9-2.8ZM206.3,161.1l3.8-1.3c-1.4-3.8-2.1-8.2-2.1-13.3h-8c0,5.8.8,11.1,2.5,15.9l3.8-1.3ZM204,146.5h4c0-4.6.8-8.8,2.2-12.5l-3.7-1.5-3.7-1.5c-1.9,4.8-2.8,9.9-2.8,15.5h4ZM206.5,132.5l3.7,1.5c1.5-3.9,3.7-7.1,6.3-9.8l-2.8-2.8-2.8-2.8c-3.5,3.5-6.2,7.6-8.1,12.4l3.7,1.5ZM213.7,121.4l2.9,2.8c2.7-2.7,5.8-4.9,9.6-6.4l-1.5-3.7-1.5-3.7c-4.7,1.9-8.8,4.7-12.2,8.2l2.9,2.8ZM224.6,114.1l1.5,3.7c3.7-1.5,7.9-2.3,12.6-2.3v-8c-5.6,0-10.8.9-15.6,2.9l1.5,3.7ZM238.7,111.5v4c5.1,0,9.7.9,14.1,2.5l1.4-3.7,1.4-3.7c-5.3-2.1-11-3.1-16.9-3.1v4ZM254.2,114.3l-1.4,3.8c4.1,1.5,7.6,4.1,10.4,7.8l3.2-2.4,3.2-2.4c-3.7-4.8-8.4-8.3-14-10.4l-1.4,3.8ZM266.4,123.4l-2.8-2.8-11.5,11.6,2.8,2.8,2.8,2.8,11.5-11.6-2.8-2.8ZM254.9,135l2.8-2.8c-2.3-2.3-4.8-4.2-7.6-5.8l-1.9,3.5-1.9,3.5c2.1,1.1,4,2.6,5.8,4.4l2.8-2.8ZM248.2,129.9l2-3.5c-3-1.7-6.5-2.5-10.2-2.5v8c2.6,0,4.6.5,6.2,1.5l2-3.5ZM240,127.9v-4c-3.3,0-6.4.6-9.3,1.9l1.7,3.6,1.7,3.6c1.6-.7,3.5-1.1,5.9-1.1v-4ZM232.4,129.4l-1.7-3.6c-2.7,1.2-5,2.9-6.9,5.1l3,2.6,3,2.6c1.1-1.3,2.5-2.3,4.3-3.1l-1.7-3.6ZM226.8,133.5l-3-2.6c-1.8,2.1-3.2,4.6-4.2,7.3l3.8,1.3,3.8,1.3c.6-1.9,1.5-3.4,2.6-4.7l-3-2.6ZM223.4,139.5l-3.8-1.3c-1,2.7-1.4,5.6-1.4,8.6h8c0-2.2.3-4.2,1-6l-3.8-1.3ZM222.2,146.8h-4c0,3.3.5,6.4,1.6,9.2l3.8-1.4,3.7-1.4c-.7-1.8-1-3.9-1-6.4h-4ZM223.5,154.6l-3.7,1.4c1,2.7,2.5,5.1,4.4,7.2l2.9-2.7,2.9-2.7c-1.2-1.3-2.1-2.8-2.8-4.6l-3.7,1.4ZM227.1,160.5l-2.9,2.8c1.9,2,4.3,3.6,6.9,4.7l1.6-3.7,1.6-3.7c-1.7-.7-3.1-1.7-4.3-2.9l-2.9,2.8ZM232.7,164.3l-1.5,3.7c2.7,1.1,5.7,1.6,8.9,1.6v-8c-2.3,0-4.3-.4-5.9-1l-1.5,3.7ZM240.1,165.6v4c2.5,0,5-.3,7.3-.9l-1-3.9-1-3.9c-1.6.4-3.4.7-5.3.7v4ZM246.4,164.8l1,3.9c2.5-.7,4.9-1.8,7.1-3.4l-2.3-3.3-2.3-3.3c-1.5,1.1-3,1.8-4.5,2.2l1,3.9ZM252.2,162h4v-6.4h-8v6.4h4ZM252.2,155.6v-4h-11.6v8h11.6v-4ZM240.6,155.6h4v-13.7h-8v13.7h4ZM277.8,113.3v-4h-4v4h4ZM295.5,113.3h4v-4h-4v4ZM295.5,137.7h-4v4h4v-4ZM320.1,137.7v4h4v-4h-4ZM320.1,113.3v-4h-4v4h4ZM337.8,113.3h4v-4h-4v4ZM337.8,180v4h4v-4h-4ZM320.1,180h-4v4h4v-4ZM320.1,153.9h4v-4h-4v4ZM295.5,153.9v-4h-4v4h4ZM295.5,180v4h4v-4h-4ZM277.8,180h-4v4h4v-4ZM277.8,113.3v4h17.7v-8h-17.7v4ZM295.5,113.3h-4v24.4h8v-24.4h-4ZM295.5,137.7v4h24.6v-8h-24.6v4ZM320.1,137.7h4v-24.4h-8v24.4h4ZM320.1,113.3v4h17.7v-8h-17.7v4ZM337.8,113.3h-4v66.7h8v-66.7h-4ZM337.8,180v-4h-17.7v8h17.7v-4ZM320.1,180h4v-26.1h-8v26.1h4ZM320.1,153.9v-4h-24.6v8h24.6v-4ZM295.5,153.9h-4v26.1h8v-26.1h-4ZM295.5,180v-4h-17.7v8h17.7v-4ZM277.8,180h4v-66.7h-8v66.7h4ZM365.3,128.8h4v-4h-4v4ZM344.8,128.8h-4v4h4v-4ZM344.8,113.3v-4h-4v4h4ZM403.5,113.3h4v-4h-4v4ZM403.5,128.8v4h4v-4h-4ZM383.2,128.8v-4h-4v4h4ZM383.2,180v4h4v-4h-4ZM365.3,180h-4v4h4v-4ZM365.3,128.8v-4h-20.5v8h20.5v-4ZM344.8,128.8h4v-15.5h-8v15.5h4ZM344.8,113.3v4h58.7v-8h-58.7v4ZM403.5,113.3h-4v15.5h8v-15.5h-4ZM403.5,128.8v-4h-20.3v8h20.3v-4ZM383.2,128.8h-4v51.2h8v-51.2h-4ZM383.2,180v-4h-17.9v8h17.9v-4ZM365.3,180h4v-51.2h-8v51.2h4ZM414.7,158.9l2.8-2.8-3.1-3.1-2.8,3.4,3.1,2.6ZM434.6,166.1l.6,4h.1s.1,0,.1,0l-.8-3.9ZM437.1,165.2l1.9,3.5h0l-1.9-3.5ZM438.9,163.6l-3.3-2.3h0l3.3,2.3ZM436.9,156.7l-2.2,3.3h0s0,0,0,0l2.1-3.4ZM429.2,153.3l1.3-3.8h0s0,0,0,0l-1.2,3.8ZM425.5,152.1l1.2-3.8h0s-1.2,3.8-1.2,3.8ZM419.2,149.5l-1.8,3.6h0s0,0,0,0l1.8-3.6ZM413.6,145.7l-2.7,2.9h0s0,0,0,0l2.6-3ZM409.5,140.4l-3.6,1.7h0c0,0,0,.1,0,.1l3.5-1.9ZM409.7,124.7l3.7,1.6h0s0,0,0,0l-3.7-1.6ZM414.6,117.8l2.7,3h0s-2.7-3-2.7-3ZM422.7,113.2l1.3,3.8h0s0,0,0,0l-1.3-3.8ZM454.8,117.4l2.3-3.3h0l-2.3,3.3ZM458,120.1l3.1,2.5,2.1-2.7-2.3-2.5-2.9,2.7ZM449,131.5l-2.4,3.2,3.1,2.3,2.4-3-3.1-2.5ZM441.7,127.3l-1.6,3.7h0s0,0,0,0l1.6-3.7ZM431.3,125.9l.9,3.9h0l-.9-3.9ZM428.9,126.8l-1.9-3.5h0s0,0,0,0l2.1,3.4ZM427.2,128.4l-3.3-2.3h0s0,0,0,0l3.3,2.2ZM427.3,133.3l-3.4,2.1h0c0,.1,0,.2,0,.2l3.2-2.4ZM429.4,135.2l-2.1,3.4h0l2.1-3.4ZM432.5,136.7l-1.4,3.7h.1s.1,0,.1,0l1.2-3.8ZM436.5,138l-1.3,3.8h0s0,0,0,0l1.2-3.8ZM439.7,139l1.2-3.8h0s0,0,0,0l-1.2,3.8ZM446.6,141.6l-1.6,3.7h0s0,0,0,0l1.5-3.7ZM452.9,145.5l-2.7,3h0s0,0,0,0l2.6-3ZM457.5,151.6l-3.6,1.8h0s0,0,0,0l3.6-1.8ZM457.1,169l-3.5-2h0s0,0,0,0l3.5,1.9ZM451.3,175.7l-2.4-3.2h0s0,0,0,0l2.5,3.2ZM442.7,180l-1.1-3.8h0s0,0,0,0l1.2,3.8ZM415.4,179l-1.5,3.7h0s0,0,0,0l1.4-3.7ZM404,171.8l-3.1-2.6-2.4,2.9,2.7,2.6,2.8-2.9ZM414.7,158.9l-2.8,2.8c2.2,2.2,5,4.2,8.3,5.8l1.8-3.6,1.8-3.6c-2.7-1.4-4.8-2.9-6.3-4.4l-2.8,2.8ZM422,164l-1.8,3.6c3.6,1.8,7.5,2.7,11.7,2.7v-8c-3,0-5.7-.6-8.1-1.9l-1.8,3.6ZM431.9,166.3v4c1.1,0,2.2,0,3.3-.2l-.6-4-.6-4c-.8.1-1.5.2-2.1.2v4ZM434.6,166.1l.8,3.9c1.3-.3,2.5-.7,3.6-1.3l-1.9-3.5-1.9-3.5c-.4.2-.8.4-1.4.5l.8,3.9ZM437.1,165.2l1.9,3.5c1.3-.7,2.3-1.6,3.2-2.8l-3.3-2.3-3.3-2.3c-.1.1-.2.3-.4.4l1.9,3.5ZM438.9,163.6l3.3,2.3c1.1-1.5,1.4-3.3,1.4-4.9h-8c0,.2,0,.4,0,.4,0,0,0,0,0-.1l3.3,2.3ZM439.6,161h4c0-3.4-1.9-6-4.6-7.7l-2.1,3.4-2.1,3.4c.5.3.7.6.8.7,0,0,0,.1,0,.2h4ZM436.9,156.7l2.2-3.3c-2.2-1.4-5.1-2.7-8.6-3.8l-1.3,3.8-1.3,3.8c3.3,1.1,5.5,2.1,6.8,3l2.2-3.3ZM429.2,153.3l1.2-3.8-3.7-1.2-1.2,3.8-1.2,3.8,3.7,1.2,1.2-3.8ZM425.5,152.1l1.2-3.8c-1.9-.6-3.8-1.4-5.7-2.4l-1.8,3.6-1.8,3.6c2.3,1.1,4.6,2.1,6.9,2.8l1.2-3.8ZM419.2,149.5l1.8-3.6c-1.8-.9-3.4-2-4.8-3.2l-2.6,3-2.6,3c1.9,1.7,4.1,3.1,6.4,4.4l1.8-3.6ZM413.6,145.7l2.7-2.9c-1.3-1.2-2.4-2.6-3.3-4.2l-3.5,1.9-3.5,1.9c1.3,2.4,2.9,4.5,4.9,6.4l2.7-2.9ZM409.5,140.4l3.6-1.7c-.7-1.4-1.1-3.2-1.1-5.5h-8c0,3.2.6,6.2,1.9,8.9l3.6-1.7ZM408,133.2h4c0-2.6.5-4.8,1.4-6.9l-3.7-1.6-3.7-1.6c-1.4,3.1-2,6.5-2,10.1h4ZM409.7,124.7l3.7,1.6c.9-2.1,2.2-4,3.9-5.5l-2.7-3-2.7-3c-2.6,2.3-4.5,5.1-5.9,8.3l3.7,1.6ZM414.6,117.8l2.7,3c1.7-1.6,3.9-2.9,6.7-3.8l-1.3-3.8-1.3-3.8c-3.7,1.2-6.9,3-9.5,5.4l2.7,3ZM422.7,113.2l1.3,3.8c2.7-1,5.9-1.5,9.8-1.5v-8c-4.6,0-8.7.6-12.4,1.9l1.3,3.8ZM433.8,111.5v4c3,0,5.7.3,8,.8l.9-3.9.9-3.9c-3-.7-6.3-1-9.8-1v4ZM442.7,112.4l-.9,3.9c2.5.6,4.6,1.2,6.3,2l1.6-3.7,1.6-3.7c-2.3-1-4.9-1.8-7.7-2.4l-.9,3.9ZM449.7,114.6l-1.6,3.7c1.8.8,3.2,1.6,4.4,2.4l2.3-3.3,2.3-3.3c-1.7-1.2-3.6-2.3-5.8-3.2l-1.6,3.7ZM454.8,117.4l-2.3,3.3c1.3.9,2.1,1.6,2.6,2.1l2.9-2.7,2.9-2.7c-1-1.1-2.3-2.2-3.8-3.3l-2.3,3.3ZM458,120.1l-3.1-2.5-9,11.4,3.1,2.5,3.1,2.5,9-11.4-3.1-2.5ZM449,131.5l2.4-3.2c-2.6-1.9-5.3-3.5-8.1-4.7l-1.6,3.7-1.6,3.7c2.2.9,4.4,2.2,6.5,3.7l2.4-3.2ZM441.7,127.3l1.6-3.7c-3-1.4-6.2-2-9.4-2v8c2.1,0,4.1.4,6.2,1.4l1.6-3.7ZM433.9,125.6v-4c-1.2,0-2.3.1-3.5.4l.9,3.9.9,3.9c.6-.1,1.1-.2,1.7-.2v-4ZM431.3,125.9l-.9-3.9c-1.2.3-2.3.7-3.4,1.3l1.9,3.5,1.9,3.5c.4-.2.8-.4,1.4-.5l-.9-3.9ZM428.9,126.8l-2.1-3.4c-1.2.7-2.1,1.6-2.9,2.7l3.3,2.3,3.3,2.3c.2-.2.3-.4.5-.5l-2.1-3.4ZM427.2,128.4l-3.3-2.2c-1,1.4-1.3,3-1.3,4.5h8c0,0,0-.2,0-.2,0,0,0,0,0,0,0,0,0,0,0,0,0,0,0,0,0,.1l-3.3-2.2ZM426.6,130.7h-4c0,1.6.4,3.3,1.3,4.7l3.4-2.1,3.4-2.1s0,0,0,0c0,0,0-.2,0-.4h-4ZM427.3,133.3l-3.2,2.4c.9,1.2,2,2.2,3.2,3l2.1-3.4,2.1-3.4c-.5-.3-.8-.6-1-.8l-3.2,2.4ZM429.4,135.2l-2.1,3.4c1.1.7,2.4,1.3,3.7,1.8l1.4-3.7,1.5-3.7c-1-.4-1.8-.8-2.5-1.2l-2.1,3.4ZM432.5,136.7l-1.2,3.8c1.2.4,2.6.8,3.9,1.3l1.3-3.8,1.3-3.8c-1.4-.5-2.8-.9-4.1-1.3l-1.2,3.8ZM436.5,138l-1.2,3.8,3.2,1,1.2-3.8,1.2-3.8-3.2-1-1.2,3.8ZM439.7,139l-1.2,3.8c2.1.7,4.3,1.5,6.6,2.5l1.6-3.7,1.6-3.7c-2.4-1-4.9-2-7.2-2.7l-1.2,3.8ZM446.6,141.6l-1.5,3.7c1.9.8,3.6,1.8,5.1,3.2l2.7-3,2.7-3c-2.2-2-4.7-3.5-7.5-4.6l-1.5,3.7ZM452.9,145.5l-2.6,3c1.4,1.2,2.6,2.8,3.6,4.8l3.6-1.8,3.6-1.8c-1.4-2.9-3.3-5.4-5.6-7.4l-2.6,3ZM457.5,151.6l-3.6,1.8c.8,1.7,1.4,4,1.4,7.1h8c0-4-.7-7.6-2.2-10.7l-3.6,1.8ZM459.3,160.5h-4c0,2.4-.6,4.6-1.7,6.5l3.5,2,3.5,2c1.8-3.2,2.7-6.7,2.7-10.5h-4ZM457.1,169l-3.5-1.9c-1.1,2.1-2.7,3.9-4.7,5.4l2.4,3.2,2.4,3.2c2.9-2.2,5.2-4.9,6.9-8l-3.5-1.9ZM451.3,175.7l-2.5-3.2c-2,1.5-4.4,2.7-7.3,3.6l1.1,3.8,1.1,3.8c3.7-1.1,7.1-2.8,9.9-5l-2.5-3.2ZM442.7,180l-1.2-3.8c-2.8.9-5.9,1.4-9.3,1.4v8c4.1,0,8-.6,11.7-1.8l-1.2-3.8ZM432.2,181.6v-4c-6.3,0-11.4-.8-15.4-2.3l-1.4,3.7-1.4,3.7c5.1,2,11.2,2.9,18.2,2.9v-4ZM415.4,179l1.5-3.7c-4-1.6-7.4-3.8-10.1-6.4l-2.8,2.9-2.8,2.9c3.5,3.4,7.8,6.1,12.7,8l1.5-3.7ZM404,171.8l3.1,2.6,10.7-12.9-3.1-2.6-3.1-2.6-10.7,12.9,3.1,2.6Z" fill="#fff" stroke-width="0"/>
  </g>
  <g mask="url(#mask-1)">
    <path id="text02_outline" d="M37.5,218.8h4v-4h-4v4ZM17,218.8h-4v4h4v-4ZM17,203.3v-4h-4v4h4ZM75.7,203.3h4v-4h-4v4ZM75.7,218.8v4h4v-4h-4ZM55.4,218.8v-4h-4v4h4ZM55.4,270v4h4v-4h-4ZM37.5,270h-4v4h4v-4ZM37.5,218.8v-4h-20.5v8h20.5v-4ZM17,218.8h4v-15.5h-8v15.5h4ZM17,203.3v4h58.7v-8H17v4ZM75.7,203.3h-4v15.5h8v-15.5h-4ZM75.7,218.8v-4h-20.3v8h20.3v-4ZM55.4,218.8h-4v51.2h8v-51.2h-4ZM55.4,270v-4h-17.9v8h17.9v-4ZM37.5,270h4v-51.2h-8v51.2h4ZM82.7,203.3v-4h-4v4h4ZM100.4,203.3h4v-4h-4v4ZM100.4,270v4h4v-4h-4ZM82.7,270h-4v4h4v-4ZM82.7,203.3v4h17.7v-8h-17.7v4ZM100.4,203.3h-4v66.7h8v-66.7h-4ZM100.4,270v-4h-17.7v8h17.7v-4ZM82.7,270h4v-66.7h-8v66.7h4ZM111.5,203.3v-4h-4v4h4ZM148.4,204.8l-1.3,3.8h0s0,0,0,0l1.2-3.8ZM155.9,209l-2.7,3h0s0,0,0,0l2.6-3ZM160.7,215.9l-3.7,1.5h0s0,0,0,0l3.7-1.5ZM160.6,234.7l-3.7-1.6h0s0,0,0,0l3.7,1.5ZM155.8,241.8l2.8,2.9h0s-2.8-2.9-2.8-2.9ZM148.5,246.3l1.3,3.8h0s0,0,0,0l-1.4-3.7ZM128.8,247.8v-4h-4v4h4ZM128.8,270v4h4v-4h-4ZM111.5,270h-4v4h4v-4ZM142.9,231.6l3,2.7h0l-3-2.7ZM143,219.6l-3,2.6h0l3-2.6ZM128.8,217.3v-4h-4v4h4ZM128.8,233.9h-4v4h4v-4ZM111.5,203.3v4h27.2v-8h-27.2v4ZM138.7,203.3v4c3.2,0,6,.4,8.4,1.3l1.3-3.8,1.3-3.8c-3.4-1.2-7.1-1.7-11-1.7v4ZM148.4,204.8l-1.2,3.8c2.4.8,4.4,1.9,6,3.4l2.7-3,2.7-3c-2.5-2.3-5.5-4-9-5l-1.2,3.8ZM155.9,209l-2.6,3c1.5,1.3,2.8,3.1,3.7,5.4l3.7-1.5,3.7-1.5c-1.3-3.3-3.3-6.2-5.9-8.4l-2.6,3ZM160.7,215.9l-3.7,1.5c.9,2.2,1.4,4.8,1.4,8h8c0-4-.6-7.7-2-11l-3.7,1.5ZM162.4,225.4h-4c0,2.9-.5,5.5-1.5,7.7l3.7,1.6,3.7,1.6c1.4-3.4,2.1-7,2.1-10.9h-4ZM160.6,234.7l-3.7-1.5c-.9,2.2-2.2,4.1-3.9,5.8l2.8,2.9,2.8,2.9c2.5-2.4,4.4-5.2,5.7-8.4l-3.7-1.5ZM155.8,241.8l-2.8-2.9c-1.6,1.5-3.5,2.7-5.9,3.6l1.4,3.7,1.4,3.7c3.3-1.2,6.2-3,8.7-5.4l-2.8-2.9ZM148.5,246.3l-1.3-3.8c-2.3.8-4.9,1.3-8,1.3v8c3.8,0,7.4-.6,10.6-1.7l-1.3-3.8ZM139.2,247.8v-4h-10.4v8h10.4v-4ZM128.8,247.8h-4v22.2h8v-22.2h-4ZM128.8,270v-4h-17.3v8h17.3v-4ZM111.5,270h4v-66.7h-8v66.7h4ZM137.2,233.9v4c3.3,0,6.4-1.1,8.7-3.6l-3-2.7-3-2.7c-.5.6-1.3,1-2.7,1v4ZM142.9,231.6l3,2.7c2.2-2.4,3.1-5.4,3.1-8.6h-8c0,1.6-.4,2.5-1.1,3.2l3,2.7ZM145,225.7h4c0-3.3-.9-6.3-3-8.7l-3,2.6-3,2.6c.6.6,1,1.7,1,3.5h4ZM143,219.6l3-2.6c-2.3-2.6-5.5-3.7-8.9-3.7v8c1.8,0,2.5.5,2.9.9l3-2.6ZM137.1,217.3v-4h-8.3v8h8.3v-4ZM128.8,217.3h-4v16.6h8v-16.6h-4ZM128.8,233.9v4h8.4v-8h-8.4v4ZM174.9,248.9l2.8-2.8-3.1-3.1-2.8,3.4,3.1,2.6ZM194.8,256.1l.6,4h.1s.1,0,.1,0l-.8-3.9ZM197.3,255.2l1.9,3.5h0l-1.9-3.5ZM199.1,253.6l-3.3-2.3h0l3.3,2.3ZM197.1,246.7l-2.2,3.3h0s0,0,0,0l2.1-3.4ZM189.4,243.3l1.3-3.8h0s0,0,0,0l-1.2,3.8ZM185.7,242.1l1.2-3.8h0s-1.2,3.8-1.2,3.8ZM179.4,239.5l-1.8,3.6h0s0,0,0,0l1.8-3.6ZM173.8,235.7l-2.7,2.9h0s0,0,0,0l2.6-3ZM169.7,230.4l-3.6,1.7h0c0,0,0,.1,0,.1l3.5-1.9ZM169.9,214.7l3.7,1.6h0s0,0,0,0l-3.7-1.6ZM174.8,207.8l2.7,3h0s-2.7-3-2.7-3ZM182.9,203.2l1.3,3.8h0s0,0,0,0l-1.3-3.8ZM215,207.4l2.3-3.3h0l-2.3,3.3ZM218.2,210.1l3.1,2.5,2.1-2.7-2.3-2.5-2.9,2.7ZM209.2,221.5l-2.4,3.2,3.1,2.3,2.4-3-3.1-2.5ZM201.9,217.3l-1.6,3.7h0s0,0,0,0l1.6-3.7ZM191.5,215.9l.9,3.9h0l-.9-3.9ZM189.1,216.8l-1.9-3.5h0s0,0,0,0l2.1,3.4ZM187.4,218.4l-3.3-2.3h0s0,0,0,0l3.3,2.2ZM187.5,223.3l-3.4,2.1h0c0,.1,0,.2,0,.2l3.2-2.4ZM189.6,225.2l-2.1,3.4h0l2.1-3.4ZM192.7,226.7l-1.4,3.7h.1s.1,0,.1,0l1.2-3.8ZM196.7,228l-1.3,3.8h0s0,0,0,0l1.2-3.8ZM199.9,229l1.2-3.8h0s0,0,0,0l-1.2,3.8ZM206.8,231.6l-1.6,3.7h0s0,0,0,0l1.5-3.7ZM213.1,235.5l-2.7,3h0s0,0,0,0l2.6-3ZM217.7,241.6l-3.6,1.8h0s0,0,0,0l3.6-1.8ZM217.3,259l-3.5-2h0s0,0,0,0l3.5,1.9ZM211.5,265.7l-2.4-3.2h0s0,0,0,0l2.5,3.2ZM202.9,270l-1.1-3.8h0s0,0,0,0l1.2,3.8ZM175.6,269l-1.5,3.7h0s0,0,0,0l1.4-3.7ZM164.2,261.8l-3.1-2.6-2.4,2.9,2.7,2.6,2.8-2.9ZM174.9,248.9l-2.8,2.8c2.2,2.2,5,4.2,8.3,5.8l1.8-3.6,1.8-3.6c-2.7-1.4-4.8-2.9-6.3-4.4l-2.8,2.8ZM182.2,254l-1.8,3.6c3.6,1.8,7.5,2.7,11.7,2.7v-8c-3,0-5.7-.6-8.1-1.9l-1.8,3.6ZM192.1,256.3v4c1.1,0,2.2,0,3.3-.2l-.6-4-.6-4c-.8.1-1.5.2-2.1.2v4ZM194.8,256.1l.8,3.9c1.3-.3,2.5-.7,3.6-1.3l-1.9-3.5-1.9-3.5c-.4.2-.8.4-1.4.5l.8,3.9ZM197.3,255.2l1.9,3.5c1.3-.7,2.3-1.6,3.2-2.8l-3.3-2.3-3.3-2.3c-.1.1-.2.3-.4.4l1.9,3.5ZM199.1,253.6l3.3,2.3c1.1-1.5,1.4-3.3,1.4-4.9h-8c0,.2,0,.4,0,.4,0,0,0,0,0-.1l3.3,2.3ZM199.8,251h4c0-3.4-1.9-6-4.6-7.7l-2.1,3.4-2.1,3.4c.5.3.7.6.8.7,0,0,0,.1,0,.2h4ZM197.1,246.7l2.2-3.3c-2.2-1.4-5.1-2.7-8.6-3.8l-1.3,3.8-1.3,3.8c3.3,1.1,5.5,2.1,6.8,3l2.2-3.3ZM189.4,243.3l1.2-3.8-3.7-1.2-1.2,3.8-1.2,3.8,3.7,1.2,1.2-3.8ZM185.7,242.1l1.2-3.8c-1.9-.6-3.8-1.4-5.7-2.4l-1.8,3.6-1.8,3.6c2.3,1.1,4.6,2.1,6.9,2.8l1.2-3.8ZM179.4,239.5l1.8-3.6c-1.8-.9-3.4-2-4.8-3.2l-2.6,3-2.6,3c1.9,1.7,4.1,3.1,6.4,4.4l1.8-3.6ZM173.8,235.7l2.7-2.9c-1.3-1.2-2.4-2.6-3.3-4.2l-3.5,1.9-3.5,1.9c1.3,2.4,2.9,4.5,4.9,6.4l2.7-2.9ZM169.7,230.4l3.6-1.7c-.7-1.4-1.1-3.2-1.1-5.5h-8c0,3.2.6,6.2,1.9,8.9l3.6-1.7ZM168.2,223.2h4c0-2.6.5-4.8,1.4-6.9l-3.7-1.6-3.7-1.6c-1.4,3.1-2,6.5-2,10.1h4ZM169.9,214.7l3.7,1.6c.9-2.1,2.2-4,3.9-5.5l-2.7-3-2.7-3c-2.6,2.3-4.5,5.1-5.9,8.3l3.7,1.6ZM174.8,207.8l2.7,3c1.7-1.6,3.9-2.9,6.7-3.8l-1.3-3.8-1.3-3.8c-3.7,1.2-6.9,3-9.5,5.4l2.7,3ZM182.9,203.2l1.3,3.8c2.7-1,5.9-1.5,9.8-1.5v-8c-4.6,0-8.7.6-12.4,1.9l1.3,3.8ZM194,201.5v4c3,0,5.7.3,8,.8l.9-3.9.9-3.9c-3-.7-6.3-1-9.8-1v4ZM202.9,202.4l-.9,3.9c2.5.6,4.6,1.2,6.3,2l1.6-3.7,1.6-3.7c-2.3-1-4.9-1.8-7.7-2.4l-.9,3.9ZM209.9,204.6l-1.6,3.7c1.8.8,3.2,1.6,4.4,2.4l2.3-3.3,2.3-3.3c-1.7-1.2-3.6-2.3-5.8-3.2l-1.6,3.7ZM215,207.4l-2.3,3.3c1.3.9,2.1,1.6,2.6,2.1l2.9-2.7,2.9-2.7c-1-1.1-2.3-2.2-3.8-3.3l-2.3,3.3ZM218.2,210.1l-3.1-2.5-9,11.4,3.1,2.5,3.1,2.5,9-11.4-3.1-2.5ZM209.2,221.5l2.4-3.2c-2.6-1.9-5.3-3.5-8.1-4.7l-1.6,3.7-1.6,3.7c2.2.9,4.4,2.2,6.5,3.7l2.4-3.2ZM201.9,217.3l1.6-3.7c-3-1.4-6.2-2-9.4-2v8c2.1,0,4.1.4,6.2,1.4l1.6-3.7ZM194.1,215.6v-4c-1.2,0-2.3.1-3.5.4l.9,3.9.9,3.9c.6-.1,1.1-.2,1.7-.2v-4ZM191.5,215.9l-.9-3.9c-1.2.3-2.3.7-3.4,1.3l1.9,3.5,1.9,3.5c.4-.2.8-.4,1.4-.5l-.9-3.9ZM189.1,216.8l-2.1-3.4c-1.2.7-2.1,1.6-2.9,2.7l3.3,2.3,3.3,2.3c.2-.2.3-.4.5-.5l-2.1-3.4ZM187.4,218.4l-3.3-2.2c-.9,1.4-1.3,3-1.3,4.5h8c0,0,0-.2,0-.2,0,0,0,0,0,0,0,0,0,0,0,0,0,0,0,0,0,.1l-3.3-2.2ZM186.8,220.7h-4c0,1.6.4,3.3,1.3,4.7l3.4-2.1,3.4-2.1s0,0,0,0c0,0,0-.2,0-.4h-4ZM187.5,223.3l-3.2,2.4c.9,1.2,2,2.2,3.2,3l2.1-3.4,2.1-3.4c-.5-.3-.8-.6-1-.8l-3.2,2.4ZM189.6,225.2l-2.1,3.4c1.1.7,2.4,1.3,3.7,1.8l1.4-3.7,1.4-3.7c-1-.4-1.8-.8-2.5-1.2l-2.1,3.4ZM192.7,226.7l-1.2,3.8c1.2.4,2.6.8,3.9,1.3l1.3-3.8,1.3-3.8c-1.4-.5-2.8-.9-4.1-1.3l-1.2,3.8ZM196.7,228l-1.2,3.8,3.2,1,1.2-3.8,1.2-3.8-3.2-1-1.2,3.8ZM199.9,229l-1.2,3.8c2.1.7,4.3,1.5,6.6,2.5l1.6-3.7,1.6-3.7c-2.4-1-4.9-2-7.2-2.7l-1.2,3.8ZM206.8,231.6l-1.5,3.7c1.9.8,3.6,1.8,5.1,3.2l2.7-3,2.7-3c-2.2-2-4.7-3.5-7.5-4.6l-1.5,3.7ZM213.1,235.5l-2.6,3c1.4,1.2,2.6,2.8,3.6,4.8l3.6-1.8,3.6-1.8c-1.4-2.9-3.3-5.4-5.6-7.4l-2.6,3ZM217.7,241.6l-3.6,1.8c.8,1.7,1.4,4,1.4,7.1h8c0-4-.7-7.6-2.2-10.7l-3.6,1.8ZM219.5,250.5h-4c0,2.4-.6,4.6-1.7,6.5l3.5,2,3.5,2c1.8-3.2,2.7-6.7,2.7-10.5h-4ZM217.3,259l-3.5-1.9c-1.1,2.1-2.7,3.9-4.7,5.4l2.4,3.2,2.4,3.2c2.9-2.2,5.2-4.9,6.9-8l-3.5-1.9ZM211.5,265.7l-2.5-3.2c-2,1.5-4.4,2.7-7.3,3.6l1.1,3.8,1.1,3.8c3.7-1.1,7.1-2.8,9.9-5l-2.5-3.2ZM202.9,270l-1.2-3.8c-2.8.9-5.9,1.4-9.3,1.4v8c4.1,0,8-.6,11.7-1.8l-1.2-3.8ZM192.4,271.6v-4c-6.3,0-11.4-.8-15.4-2.3l-1.4,3.7-1.4,3.7c5.1,2,11.2,2.9,18.2,2.9v-4ZM175.6,269l1.5-3.7c-4-1.6-7.4-3.8-10.1-6.4l-2.8,2.9-2.8,2.9c3.5,3.4,7.8,6.1,12.7,8l1.5-3.7ZM164.2,261.8l3.1,2.6,10.7-12.9-3.1-2.6-3.1-2.6-10.7,12.9,3.1,2.6ZM21.1,293.3v-4h-4v4h4ZM58,294.8l-1.3,3.8h0s0,0,0,0l1.2-3.8ZM65.5,299l-2.7,3h0s0,0,0,0l2.6-3ZM70.3,305.9l-3.7,1.5h0s0,0,0,0l3.7-1.5ZM70.2,324.7l-3.7-1.6h0s0,0,0,0l3.7,1.5ZM65.4,331.8l2.8,2.9h0s-2.8-2.9-2.8-2.9ZM58.1,336.3l1.3,3.8h0s0,0,0,0l-1.4-3.7ZM38.4,337.8v-4h-4v4h4ZM38.4,360v4h4v-4h-4ZM21.1,360h-4v4h4v-4ZM52.5,321.6l3,2.7h0l-3-2.7ZM52.6,309.6l-3,2.6h0l3-2.6ZM38.4,307.3v-4h-4v4h4ZM38.4,323.9h-4v4h4v-4ZM21.1,293.3v4h27.2v-8h-27.2v4ZM48.3,293.3v4c3.2,0,6,.4,8.4,1.3l1.3-3.8,1.3-3.8c-3.4-1.2-7.1-1.7-11-1.7v4ZM58,294.8l-1.2,3.8c2.4.8,4.4,1.9,6,3.4l2.7-3,2.7-3c-2.5-2.3-5.5-4-9-5l-1.2,3.8ZM65.5,299l-2.6,3c1.5,1.3,2.8,3.1,3.7,5.4l3.7-1.5,3.7-1.5c-1.3-3.3-3.3-6.2-5.9-8.4l-2.6,3ZM70.3,305.9l-3.7,1.5c.9,2.2,1.4,4.8,1.4,8h8c0-4-.6-7.7-2-11l-3.7,1.5ZM72,315.4h-4c0,2.9-.5,5.5-1.5,7.7l3.7,1.6,3.7,1.6c1.4-3.4,2.1-7,2.1-10.9h-4ZM70.2,324.7l-3.7-1.5c-.9,2.2-2.2,4.1-3.9,5.8l2.8,2.9,2.8,2.9c2.5-2.4,4.4-5.2,5.7-8.4l-3.7-1.5ZM65.4,331.8l-2.8-2.9c-1.6,1.5-3.5,2.7-5.9,3.6l1.4,3.7,1.4,3.7c3.3-1.2,6.3-3,8.7-5.4l-2.8-2.9ZM58.1,336.3l-1.3-3.8c-2.3.8-4.9,1.3-8,1.3v8c3.8,0,7.4-.6,10.6-1.7l-1.3-3.8ZM48.8,337.8v-4h-10.4v8h10.4v-4ZM38.4,337.8h-4v22.2h8v-22.2h-4ZM38.4,360v-4h-17.3v8h17.3v-4ZM21.1,360h4v-66.7h-8v66.7h4ZM46.8,323.9v4c3.3,0,6.4-1.1,8.7-3.6l-3-2.7-3-2.7c-.5.6-1.3,1-2.7,1v4ZM52.5,321.6l3,2.7c2.2-2.4,3.1-5.4,3.1-8.6h-8c0,1.6-.4,2.5-1.1,3.2l3,2.7ZM54.6,315.7h4c0-3.3-.9-6.3-3-8.7l-3,2.6-3,2.6c.6.6,1,1.7,1,3.5h4ZM52.6,309.6l3-2.6c-2.3-2.6-5.5-3.7-8.9-3.7v8c1.8,0,2.5.5,2.9.9l3-2.6ZM46.7,307.3v-4h-8.3v8h8.3v-4ZM38.4,307.3h-4v16.6h8v-16.6h-4ZM38.4,323.9v4h8.4v-8h-8.4v4ZM98,359l-1.6,3.7h0s0,0,0,0l1.5-3.7ZM87,351.7l-2.9,2.8h0s0,0,0,0l2.8-2.9ZM79.8,340.6l-3.7,1.5h0s0,0,0,0l3.7-1.5ZM79.8,312.5l3.7,1.5h0s0,0,0,0l-3.7-1.5ZM87,301.4l-2.8-2.8h0l2.8,2.8ZM98,294.1l-1.5-3.7h0s0,0,0,0l1.5,3.7ZM136.8,301.4l-2.9,2.8h0s0,0,0,0l2.8-2.8ZM144,312.5l-3.7,1.5h0s0,0,0,0l3.7-1.5ZM144,340.6l3.7,1.5h0s0,0,0,0l-3.7-1.5ZM136.8,351.7l2.8,2.8h0s0,0,0,0l-2.9-2.8ZM125.8,359l1.5,3.7h0s0,0,0,0l-1.6-3.7ZM118.8,343.6l1.7,3.6h0s0,0,0,0l-1.7-3.6ZM124,339.6l3.1,2.6h0l-3.1-2.6ZM127.2,333.7l3.8,1.2h0l-3.8-1.2ZM127.2,319.3l3.8-1.2h0l-3.8,1.2ZM124,313.4l3.1-2.6h0l-3.1,2.6ZM118.8,309.5l-1.8,3.6h0s0,0,0,0l1.6-3.6ZM104.9,309.5l1.7,3.6h0s0,0,0,0l-1.7-3.6ZM99.8,313.4l3.1,2.6h0l-3.1-2.6ZM96.6,319.3l3.8,1.2h0l-3.8-1.2ZM96.6,333.7l3.8-1.2h0l-3.8,1.2ZM99.8,339.6l3.1-2.6h0l-3.1,2.6ZM104.9,343.6l-1.8,3.6h0s0,0,0,0l1.6-3.6ZM111.9,361.6v-4c-4.5,0-8.6-.8-12.4-2.3l-1.5,3.7-1.5,3.7c4.8,1.9,9.9,2.9,15.4,2.9v-4ZM98,359l1.6-3.7c-3.8-1.6-7-3.8-9.8-6.5l-2.8,2.9-2.8,2.9c3.5,3.4,7.6,6.1,12.2,8.1l1.6-3.7ZM87,351.7l2.9-2.8c-2.7-2.7-4.8-6-6.4-9.8l-3.7,1.5-3.7,1.5c1.9,4.7,4.6,8.9,8,12.4l2.9-2.8ZM79.8,340.6l3.7-1.5c-1.5-3.8-2.3-8-2.3-12.6h-8c0,5.5.9,10.7,2.9,15.6l3.7-1.5ZM77.2,326.5h4c0-4.6.8-8.8,2.3-12.5l-3.7-1.5-3.7-1.5c-1.9,4.8-2.9,10-2.9,15.5h4ZM79.8,312.5l3.7,1.5c1.5-3.9,3.7-7.1,6.3-9.8l-2.8-2.8-2.8-2.8c-3.5,3.5-6.2,7.6-8.1,12.4l3.7,1.5ZM87,301.4l2.8,2.8c2.8-2.8,6-4.9,9.7-6.4l-1.5-3.7-1.5-3.7c-4.7,1.9-8.8,4.7-12.3,8.2l2.8,2.8ZM98,294.1l1.5,3.7c3.7-1.5,7.9-2.3,12.4-2.3v-8c-5.5,0-10.6,1-15.4,2.9l1.5,3.7ZM111.9,291.5v4c4.5,0,8.6.8,12.4,2.3l1.5-3.7,1.5-3.7c-4.8-1.9-9.9-2.9-15.4-2.9v4ZM125.8,294.1l-1.5,3.7c3.8,1.5,7,3.7,9.6,6.4l2.9-2.8,2.9-2.8c-3.5-3.5-7.6-6.3-12.4-8.2l-1.5,3.7ZM136.8,301.4l-2.8,2.8c2.7,2.7,4.8,5.9,6.3,9.8l3.7-1.5,3.7-1.5c-1.9-4.8-4.6-9-8.1-12.4l-2.8,2.8ZM144,312.5l-3.7,1.5c1.5,3.7,2.3,7.9,2.3,12.5h8c0-5.5-.9-10.7-2.9-15.5l-3.7,1.5ZM146.6,326.5h-4c0,4.6-.8,8.8-2.3,12.6l3.7,1.5,3.7,1.5c1.9-4.8,2.9-10.1,2.9-15.6h-4ZM144,340.6l-3.7-1.5c-1.5,3.8-3.7,7.1-6.4,9.8l2.9,2.8,2.9,2.8c3.4-3.5,6.1-7.7,8-12.4l-3.7-1.5ZM136.8,351.7l-2.8-2.8c-2.7,2.7-5.9,4.8-9.7,6.4l1.6,3.7,1.6,3.7c4.7-2,8.8-4.7,12.3-8.2l-2.8-2.8ZM125.8,359l-1.5-3.7c-3.7,1.5-7.9,2.3-12.4,2.3v8c5.5,0,10.6-1,15.4-2.9l-1.5-3.7ZM111.9,345v4c3.1,0,6-.6,8.6-1.8l-1.7-3.6-1.7-3.6c-1.4.6-3.1,1-5.2,1v4ZM118.8,343.6l1.7,3.6c2.5-1.2,4.7-2.9,6.5-5l-3.1-2.6-3.1-2.6c-1,1.2-2.3,2.2-3.9,3l1.7,3.6ZM124,339.6l3.1,2.6c1.8-2.1,3.1-4.5,3.9-7.2l-3.8-1.2-3.8-1.2c-.6,1.8-1.4,3.3-2.5,4.6l3.1,2.6ZM127.2,333.7l3.8,1.2c.9-2.7,1.3-5.5,1.3-8.4h-8c0,2.1-.3,4.1-.9,6l3.8,1.2ZM128.3,326.5h4c0-2.9-.4-5.7-1.3-8.4l-3.8,1.2-3.8,1.2c.6,1.8.9,3.8.9,6h4ZM127.2,319.3l3.8-1.2c-.9-2.7-2.2-5.1-3.9-7.2l-3.1,2.6-3.1,2.6c1,1.2,1.9,2.7,2.5,4.6l3.8-1.2ZM124,313.4l3.1-2.6c-1.8-2.1-4-3.8-6.6-5l-1.6,3.6-1.6,3.6c1.5.7,2.8,1.6,3.8,2.8l3.1-2.6ZM118.8,309.5l1.8-3.6c-2.6-1.3-5.6-1.9-8.7-1.9v8c2.1,0,3.8.4,5.1,1.1l1.8-3.6ZM111.9,308v-4c-3.1,0-6.1.6-8.7,1.9l1.7,3.6,1.7,3.6c1.5-.7,3.2-1.1,5.3-1.1v-4ZM104.9,309.5l-1.7-3.6c-2.5,1.2-4.7,2.8-6.5,5l3.1,2.6,3.1,2.6c1-1.2,2.2-2.2,3.7-2.8l-1.7-3.6ZM99.8,313.4l-3.1-2.6c-1.8,2.1-3.1,4.5-3.9,7.2l3.8,1.2,3.8,1.2c.6-1.8,1.4-3.3,2.5-4.6l-3.1-2.6ZM96.6,319.3l-3.8-1.2c-.9,2.7-1.3,5.5-1.3,8.4h8c0-2.1.3-4.1.9-6l-3.8-1.2ZM95.5,326.5h-4c0,2.9.4,5.7,1.3,8.4l3.8-1.2,3.8-1.2c-.6-1.8-.9-3.8-.9-6h-4ZM96.6,333.7l-3.8,1.2c.9,2.7,2.2,5.1,3.9,7.2l3.1-2.6,3.1-2.6c-1-1.2-1.9-2.7-2.5-4.6l-3.8,1.2ZM99.8,339.6l-3.1,2.6c1.8,2.1,3.9,3.8,6.4,5l1.8-3.6,1.8-3.6c-1.5-.8-2.8-1.8-3.8-3l-3.1,2.6ZM104.9,343.6l-1.6,3.6c2.7,1.2,5.6,1.8,8.6,1.8v-8c-2.1,0-3.9-.4-5.4-1l-1.6,3.6ZM154.9,293.3v-4h-4v4h4ZM172.6,293.3h4v-4h-4v4ZM172.6,360v4h4v-4h-4ZM154.9,360h-4v4h4v-4ZM154.9,293.3v4h17.7v-8h-17.7v4ZM172.6,293.3h-4v66.7h8v-66.7h-4ZM172.6,360v-4h-17.7v8h17.7v-4ZM154.9,360h4v-66.7h-8v66.7h4ZM183.6,293.3v-4h-4v4h4ZM199.7,293.3l3.3-2.3-1.2-1.7h-2.1v4ZM225.3,330.5l-3.3,2.3,7.3,10.6v-12.9h-4ZM225.3,293.3v-4h-4v4h4ZM242.8,293.3h4v-4h-4v4ZM242.8,360v4h4v-4h-4ZM227.7,360l-3.3,2.3,1.2,1.7h2.1v-4ZM201.1,321.7l3.3-2.3-7.3-10.5v12.8h4ZM201.1,360v4h4v-4h-4ZM183.6,360h-4v4h4v-4ZM183.6,293.3v4h16.1v-8h-16.1v4ZM199.7,293.3l-3.3,2.3,25.6,37.2,3.3-2.3,3.3-2.3-25.6-37.2-3.3,2.3ZM225.3,330.5h4v-37.2h-8v37.2h4ZM225.3,293.3v4h17.5v-8h-17.5v4ZM242.8,293.3h-4v66.7h8v-66.7h-4ZM242.8,360v-4h-15.1v8h15.1v-4ZM227.7,360l3.3-2.3-26.6-38.3-3.3,2.3-3.3,2.3,26.6,38.3,3.3-2.3ZM201.1,321.7h-4v38.3h8v-38.3h-4ZM201.1,360v-4h-17.5v8h17.5v-4ZM183.6,360h4v-66.7h-8v66.7h4ZM270.3,308.8h4v-4h-4v4ZM249.8,308.8h-4v4h4v-4ZM249.8,293.3v-4h-4v4h4ZM308.5,293.3h4v-4h-4v4ZM308.5,308.8v4h4v-4h-4ZM288.2,308.8v-4h-4v4h4ZM288.2,360v4h4v-4h-4ZM270.3,360h-4v4h4v-4ZM270.3,308.8v-4h-20.5v8h20.5v-4ZM249.8,308.8h4v-15.5h-8v15.5h4ZM249.8,293.3v4h58.7v-8h-58.7v4ZM308.5,293.3h-4v15.5h8v-15.5h-4ZM308.5,308.8v-4h-20.3v8h20.3v-4ZM288.2,308.8h-4v51.2h8v-51.2h-4ZM288.2,360v-4h-17.9v8h17.9v-4ZM270.3,360h4v-51.2h-8v51.2h4ZM319.7,338.9l2.8-2.8-3.1-3.1-2.8,3.4,3.1,2.6ZM339.6,346.1l.6,4h.1s.1,0,.1,0l-.8-3.9ZM342.1,345.2l1.9,3.5h0l-1.9-3.5ZM343.9,343.6l-3.3-2.3h0l3.3,2.3ZM341.9,336.7l-2.2,3.3h0s0,0,0,0l2.1-3.4ZM334.2,333.3l1.3-3.8h0s0,0,0,0l-1.2,3.8ZM330.5,332.1l1.2-3.8h0s-1.2,3.8-1.2,3.8ZM324.2,329.5l-1.8,3.6h0s0,0,0,0l1.8-3.6ZM318.6,325.7l-2.7,2.9h0s0,0,0,0l2.6-3ZM314.5,320.4l-3.6,1.7h0c0,0,0,.1,0,.1l3.5-1.9ZM314.7,304.7l3.7,1.6h0s0,0,0,0l-3.7-1.6ZM319.6,297.8l2.7,3h0s-2.7-3-2.7-3ZM327.7,293.2l1.3,3.8h0s0,0,0,0l-1.3-3.8ZM359.8,297.4l2.3-3.3h0l-2.3,3.3ZM363,300.1l3.1,2.5,2.1-2.7-2.3-2.5-2.9,2.7ZM354,311.5l-2.4,3.2,3.1,2.3,2.4-3-3.1-2.5ZM346.7,307.3l-1.6,3.7h0s0,0,0,0l1.6-3.7ZM336.3,305.9l.9,3.9h0l-.9-3.9ZM333.9,306.8l-1.9-3.5h0s0,0,0,0l2.1,3.4ZM332.2,308.4l-3.3-2.3h0s0,0,0,0l3.3,2.2ZM332.3,313.3l-3.4,2.1h0c0,.1,0,.2,0,.2l3.2-2.4ZM334.4,315.2l-2.1,3.4h0l2.1-3.4ZM337.5,316.7l-1.5,3.7h.1s.1,0,.1,0l1.2-3.8ZM341.5,318l-1.3,3.8h0s0,0,0,0l1.2-3.8ZM344.7,319l1.2-3.8h0s0,0,0,0l-1.2,3.8ZM351.6,321.6l-1.6,3.7h0s0,0,0,0l1.5-3.7ZM357.9,325.5l-2.7,3h0s0,0,0,0l2.6-3ZM362.5,331.6l-3.6,1.8h0s0,0,0,0l3.6-1.8ZM362.1,349l-3.5-2h0s0,0,0,0l3.5,1.9ZM356.3,355.7l-2.4-3.2h0s0,0,0,0l2.5,3.2ZM347.7,360l-1.1-3.8h0s0,0,0,0l1.2,3.8ZM320.4,359l-1.5,3.7h0s0,0,0,0l1.4-3.7ZM309,351.8l-3.1-2.6-2.4,2.9,2.7,2.6,2.8-2.9ZM319.7,338.9l-2.8,2.8c2.2,2.2,5,4.2,8.3,5.8l1.8-3.6,1.8-3.6c-2.7-1.4-4.8-2.9-6.3-4.4l-2.8,2.8ZM327,344l-1.8,3.6c3.6,1.8,7.5,2.7,11.7,2.7v-8c-3,0-5.7-.6-8.1-1.9l-1.8,3.6ZM336.9,346.3v4c1.1,0,2.2,0,3.3-.2l-.6-4-.6-4c-.8.1-1.5.2-2.1.2v4ZM339.6,346.1l.8,3.9c1.3-.3,2.5-.7,3.6-1.3l-1.9-3.5-1.9-3.5c-.4.2-.8.4-1.4.5l.8,3.9ZM342.1,345.2l1.9,3.5c1.3-.7,2.3-1.6,3.2-2.8l-3.3-2.3-3.3-2.3c-.1.1-.2.3-.4.4l1.9,3.5ZM343.9,343.6l3.3,2.3c1.1-1.5,1.4-3.3,1.4-4.9h-8c0,.2,0,.4,0,.4,0,0,0,0,0-.1l3.3,2.3ZM344.6,341h4c0-3.4-1.9-6-4.6-7.7l-2.1,3.4-2.1,3.4c.5.3.7.6.8.7,0,0,0,.1,0,.2h4ZM341.9,336.7l2.2-3.3c-2.2-1.4-5.1-2.7-8.6-3.8l-1.3,3.8-1.3,3.8c3.3,1.1,5.5,2.1,6.8,3l2.2-3.3ZM334.2,333.3l1.2-3.8-3.7-1.2-1.2,3.8-1.2,3.8,3.7,1.2,1.2-3.8ZM330.5,332.1l1.2-3.8c-1.9-.6-3.8-1.4-5.7-2.4l-1.8,3.6-1.8,3.6c2.3,1.1,4.6,2.1,6.9,2.8l1.2-3.8ZM324.2,329.5l1.8-3.6c-1.8-.9-3.4-2-4.8-3.2l-2.6,3-2.6,3c1.9,1.7,4.1,3.1,6.4,4.4l1.8-3.6ZM318.6,325.7l2.7-2.9c-1.3-1.2-2.4-2.6-3.3-4.2l-3.5,1.9-3.5,1.9c1.3,2.4,2.9,4.5,4.9,6.4l2.7-2.9ZM314.5,320.4l3.6-1.7c-.7-1.4-1.1-3.2-1.1-5.5h-8c0,3.2.6,6.2,1.9,8.9l3.6-1.7ZM313,313.2h4c0-2.6.5-4.8,1.4-6.9l-3.7-1.6-3.7-1.6c-1.4,3.1-2,6.5-2,10.1h4ZM314.7,304.7l3.7,1.6c.9-2.1,2.2-4,3.9-5.5l-2.7-3-2.7-3c-2.6,2.3-4.5,5.1-5.9,8.3l3.7,1.6ZM319.6,297.8l2.7,3c1.7-1.6,3.9-2.9,6.7-3.8l-1.3-3.8-1.3-3.8c-3.7,1.2-6.9,3-9.5,5.4l2.7,3ZM327.7,293.2l1.3,3.8c2.7-1,5.9-1.5,9.8-1.5v-8c-4.6,0-8.7.6-12.4,1.9l1.3,3.8ZM338.8,291.5v4c3,0,5.7.3,8,.8l.9-3.9.9-3.9c-3-.7-6.3-1-9.8-1v4ZM347.7,292.4l-.9,3.9c2.5.6,4.6,1.2,6.3,2l1.6-3.7,1.6-3.7c-2.3-1-4.9-1.8-7.7-2.4l-.9,3.9ZM354.7,294.6l-1.6,3.7c1.8.8,3.2,1.6,4.4,2.4l2.3-3.3,2.3-3.3c-1.7-1.2-3.6-2.3-5.8-3.2l-1.6,3.7ZM359.8,297.4l-2.3,3.3c1.3.9,2.1,1.6,2.6,2.1l2.9-2.7,2.9-2.7c-1-1.1-2.3-2.2-3.8-3.3l-2.3,3.3ZM363,300.1l-3.1-2.5-9,11.4,3.1,2.5,3.1,2.5,9-11.4-3.1-2.5ZM354,311.5l2.4-3.2c-2.6-1.9-5.3-3.5-8.1-4.7l-1.6,3.7-1.6,3.7c2.2.9,4.4,2.2,6.5,3.7l2.4-3.2ZM346.7,307.3l1.6-3.7c-3-1.4-6.2-2-9.4-2v8c2.1,0,4.1.4,6.2,1.4l1.6-3.7ZM338.9,305.6v-4c-1.2,0-2.3.1-3.5.4l.9,3.9.9,3.9c.6-.1,1.1-.2,1.7-.2v-4ZM336.3,305.9l-.9-3.9c-1.2.3-2.3.7-3.4,1.3l1.9,3.5,1.9,3.5c.4-.2.8-.4,1.4-.5l-.9-3.9ZM333.9,306.8l-2.1-3.4c-1.2.7-2.1,1.6-2.9,2.7l3.3,2.3,3.3,2.3c.2-.2.3-.4.5-.5l-2.1-3.4ZM332.2,308.4l-3.3-2.2c-1,1.4-1.3,3-1.3,4.5h8c0,0,0-.2,0-.2,0,0,0,0,0,0,0,0,0,0,0,0,0,0,0,0,0,.1l-3.3-2.2ZM331.6,310.7h-4c0,1.6.4,3.3,1.3,4.7l3.4-2.1,3.4-2.1s0,0,0,0c0,0,0-.2,0-.4h-4ZM332.3,313.3l-3.2,2.4c.9,1.2,2,2.2,3.2,3l2.1-3.4,2.1-3.4c-.5-.3-.8-.6-1-.8l-3.2,2.4ZM334.4,315.2l-2.1,3.4c1.1.7,2.4,1.3,3.7,1.8l1.5-3.7,1.4-3.7c-1-.4-1.8-.8-2.5-1.2l-2.1,3.4ZM337.5,316.7l-1.2,3.8c1.2.4,2.6.8,3.9,1.3l1.3-3.8,1.3-3.8c-1.4-.5-2.8-.9-4.1-1.3l-1.2,3.8ZM341.5,318l-1.2,3.8,3.2,1,1.2-3.8,1.2-3.8-3.2-1-1.2,3.8ZM344.7,319l-1.2,3.8c2.1.7,4.3,1.5,6.6,2.5l1.6-3.7,1.6-3.7c-2.4-1-4.9-2-7.2-2.7l-1.2,3.8ZM351.6,321.6l-1.5,3.7c1.9.8,3.6,1.8,5.1,3.2l2.7-3,2.7-3c-2.2-2-4.7-3.5-7.5-4.6l-1.5,3.7ZM357.9,325.5l-2.6,3c1.4,1.2,2.6,2.8,3.6,4.8l3.6-1.8,3.6-1.8c-1.4-2.9-3.3-5.4-5.6-7.4l-2.6,3ZM362.5,331.6l-3.6,1.8c.8,1.7,1.4,4,1.4,7.1h8c0-4-.7-7.6-2.2-10.7l-3.6,1.8ZM364.3,340.5h-4c0,2.4-.6,4.6-1.7,6.5l3.5,2,3.5,2c1.8-3.2,2.7-6.7,2.7-10.5h-4ZM362.1,349l-3.5-1.9c-1.1,2.1-2.7,3.9-4.7,5.4l2.4,3.2,2.4,3.2c2.9-2.2,5.2-4.9,6.9-8l-3.5-1.9ZM356.3,355.7l-2.5-3.2c-2,1.5-4.4,2.7-7.3,3.6l1.1,3.8,1.2,3.8c3.7-1.1,7.1-2.8,9.9-5l-2.5-3.2ZM347.7,360l-1.2-3.8c-2.8.9-5.9,1.4-9.3,1.4v8c4.1,0,8-.6,11.7-1.8l-1.2-3.8ZM337.2,361.6v-4c-6.3,0-11.4-.8-15.4-2.3l-1.4,3.7-1.4,3.7c5.1,2,11.2,2.9,18.2,2.9v-4ZM320.4,359l1.5-3.7c-4-1.6-7.4-3.8-10.1-6.4l-2.8,2.9-2.8,2.9c3.5,3.4,7.8,6.1,12.7,8l1.5-3.7ZM309,351.8l3.1,2.6,10.7-12.9-3.1-2.6-3.1-2.6-10.7,12.9,3.1,2.6Z" fill="#ffd000" stroke-width="0"/>
  </g>
  </g>
</svg>