<svg width="970" height="250" viewBox="0 0 970 250" fill="none" xmlns="http://www.w3.org/2000/svg">
<g clip-path="url(#clip0_10479_5806)">
<path d="M25 90.3448C25.014 102.412 34.5943 112.298 46.6465 112.683V111.285C35.0901 110.901 26.0265 101.217 26.4105 89.6461C26.7736 78.6204 35.6277 69.7608 46.6465 69.3974V68C34.5943 68.3913 25.014 78.2711 25 90.3448Z" fill="white"/>
<path d="M48.043 68V69.3974C59.5994 69.7887 68.656 79.4798 68.265 91.0435C67.8949 102.062 59.0548 110.908 48.043 111.278V112.676C60.3745 112.291 70.0596 101.978 69.6755 89.6391C69.3054 77.8448 59.8368 68.3703 48.043 68Z" fill="white"/>
<path d="M57.8185 85.4327H51.5341C51.5341 83.5042 49.9699 81.9391 48.0427 81.9391C46.1155 81.9391 44.5513 83.5042 44.5513 85.4327H38.3437C37.9875 85.4466 37.6663 85.2021 37.5825 84.8597C37.5127 84.4824 37.7641 84.1191 38.1481 84.0492C38.19 84.0422 38.2319 84.0353 38.2668 84.0353H41.0669C41.1926 84.0353 41.3183 83.9933 41.423 83.9235L51.953 77.3486L55.3606 84.0422H56.9248L52.8538 76.042C52.6792 75.6996 52.2603 75.5599 51.9111 75.7346C51.8902 75.7415 51.8762 75.7555 51.8553 75.7625L40.8505 82.6448H38.2599C37.1147 82.6448 36.186 83.5601 36.165 84.706V100.113C36.165 101.272 37.1007 102.209 38.2599 102.209H57.8116C58.1956 102.209 58.5098 101.894 58.5098 101.51V86.1384C58.5098 85.7541 58.1956 85.4397 57.8116 85.4397L57.8185 85.4327ZM45.9479 85.4327C45.9479 84.2728 46.8836 83.3365 48.0427 83.3365C49.2018 83.3365 50.1375 84.2728 50.1375 85.4327H45.9479ZM57.1203 100.804H38.2668C37.8828 100.804 37.5686 100.49 37.5686 100.106V86.6904C37.813 86.7812 38.0783 86.8301 38.3437 86.8301H57.1203V90.3237H53.4683L53.3217 90.4005C52.1346 91.1202 51.4503 92.4338 51.5411 93.8172C51.4503 95.2007 52.1346 96.5212 53.3217 97.2409L53.4683 97.3108H57.1273V100.804H57.1203ZM53.8314 95.9133C52.6723 94.8164 52.6304 92.9857 53.7267 91.8259C53.7616 91.7909 53.7965 91.756 53.8314 91.7211H57.1203V95.9133H53.8314Z" fill="white"/>
</g>
<path d="M81.2991 83.8213H83.6391C83.7991 84.9813 84.3391 85.8813 85.6591 86.1413V81.5813L85.3991 81.5413C83.0191 81.0613 81.5791 79.9213 81.5791 77.7413C81.5791 75.4413 83.2191 73.7013 85.6991 73.4413V71.7213H87.1191V73.4413C89.7191 73.7213 90.9391 75.5013 91.1191 77.1013H88.7791C88.5991 76.2213 88.1191 75.5413 87.1191 75.3213V79.7613L87.7791 79.8813C90.1391 80.3413 91.4991 81.6413 91.4991 83.7013C91.4991 86.2613 89.6991 87.9013 87.0591 88.0613V90.2213H85.6591V88.0213C82.8791 87.7013 81.4991 85.8813 81.2991 83.8213ZM83.7991 77.4813C83.7991 78.6013 84.3191 79.1413 85.6991 79.4813V75.2813C84.4791 75.4813 83.7991 76.2813 83.7991 77.4813ZM89.2791 84.0213C89.2791 82.6813 88.6791 82.1813 87.0591 81.8413V86.2013C88.4591 86.0413 89.2791 85.3013 89.2791 84.0213ZM102.282 87.8413H92.5021C92.6621 85.3613 93.7421 83.9413 96.5221 81.8013C98.5221 80.2413 99.5621 79.4413 99.5621 77.7413C99.5621 76.2613 98.6621 75.3613 97.3221 75.3613C95.7621 75.3613 94.9421 76.5413 94.8621 78.0813H92.4021C92.4621 75.7413 94.1021 73.4013 97.3621 73.4013C100.622 73.4013 101.982 75.5413 101.982 77.7413C101.982 80.6213 100.002 81.7613 97.9421 83.3413C96.5021 84.4413 95.7621 85.1413 95.3621 85.8213H102.282V87.8413ZM106.569 86.4613C106.569 87.3413 105.849 88.0813 104.969 88.0813C104.069 88.0813 103.369 87.3413 103.369 86.4613C103.369 85.5613 104.069 84.8213 104.969 84.8213C105.849 84.8213 106.569 85.5613 106.569 86.4613ZM107.741 83.7413H110.161C110.301 85.1213 111.081 86.1813 112.721 86.1813C114.321 86.1813 115.261 85.0813 115.261 83.0613C115.261 81.1413 114.481 80.0613 112.861 80.0613C111.621 80.0613 110.881 80.7813 110.481 81.5813H108.281V73.6413H117.081V75.6613H110.441V79.4213C111.161 78.7013 112.141 78.2613 113.321 78.2613C115.941 78.2613 117.661 80.0413 117.661 83.0613C117.661 86.0213 115.741 88.0813 112.721 88.0813C109.581 88.0813 107.941 86.1213 107.741 83.7413ZM119.121 73.6413H121.601V80.5413L127.581 73.6413H130.481L124.161 80.7813L130.701 87.8413H127.641L121.601 81.2413V87.8413H119.121V73.6413ZM144.801 73.6413V75.6813H140.301V87.8413H137.801V75.6813H133.281V73.6413H144.801ZM146.615 82.3013V87.8413H144.255V77.4413H146.615V78.9813H146.695C147.195 77.8613 148.035 77.4413 148.915 77.4413H150.035V79.6413H149.015C147.395 79.6413 146.615 80.4213 146.615 82.3013ZM156.834 86.4613C156.294 87.3813 155.254 88.0813 153.754 88.0813C151.794 88.0813 150.434 86.9013 150.434 84.9813C150.434 82.9413 151.974 82.1613 153.654 81.9413L155.834 81.6613C156.674 81.5613 156.854 81.2213 156.854 80.5613C156.854 79.6213 156.294 78.9413 155.034 78.9413C153.774 78.9413 153.134 79.6413 153.054 80.6413H150.634C150.694 78.9013 152.154 77.2013 154.974 77.2013C157.674 77.2013 159.214 78.7813 159.214 81.0813V86.0613C159.214 86.7013 159.314 87.3413 159.414 87.8413H156.994C156.934 87.4413 156.894 87.0013 156.894 86.4613H156.834ZM156.874 82.4613C156.534 82.7813 156.094 82.9413 155.554 83.0413L154.514 83.2813C153.454 83.5013 152.814 83.9213 152.814 84.8813C152.814 85.8613 153.394 86.3613 154.474 86.3613C155.774 86.3613 156.874 85.4813 156.874 84.1013V82.4613ZM159.737 77.4413H162.237L165.037 85.2813L167.817 77.4413H170.217L166.417 87.8413H163.557L159.737 77.4413ZM179.917 84.7613C179.417 86.5213 177.797 88.0813 175.317 88.0813C172.257 88.0813 170.277 85.9413 170.277 82.6413C170.277 79.3413 172.297 77.2013 175.217 77.2013C178.177 77.2013 179.997 79.3413 179.997 82.6413V83.2013H172.677C172.717 85.1013 173.737 86.2413 175.317 86.2413C176.557 86.2413 177.237 85.6613 177.577 84.7613H179.917ZM175.217 79.0413C173.857 79.0413 172.897 79.9613 172.717 81.5813H177.617C177.477 80.0213 176.637 79.0413 175.217 79.0413ZM184.304 87.8413C182.424 87.8413 181.344 86.7613 181.344 85.0613V73.0413H183.704V84.8613C183.704 85.5413 183.964 85.9413 184.704 85.9413H185.404V87.8413H184.304ZM195.777 84.7613C195.277 86.5213 193.657 88.0813 191.177 88.0813C188.117 88.0813 186.137 85.9413 186.137 82.6413C186.137 79.3413 188.157 77.2013 191.077 77.2013C194.037 77.2013 195.857 79.3413 195.857 82.6413V83.2013H188.537C188.577 85.1013 189.597 86.2413 191.177 86.2413C192.417 86.2413 193.097 85.6613 193.437 84.7613H195.777ZM191.077 79.0413C189.717 79.0413 188.757 79.9613 188.577 81.5813H193.477C193.337 80.0213 192.497 79.0413 191.077 79.0413ZM195.794 77.4413H198.394L200.794 80.9413L203.114 77.4413H205.654L202.154 82.5413L205.894 87.8413H203.274L200.694 84.1013L198.174 87.8413H195.614L199.314 82.4813L195.794 77.4413ZM90.3391 98.7013V100.701H84.1791V106.841H81.6991V92.6413H90.8791V94.6813H84.1791V98.7013H90.3391ZM91.4493 101.641C91.4493 98.3413 93.4293 96.2013 96.3893 96.2013C99.3293 96.2013 101.329 98.3413 101.329 101.641C101.329 104.941 99.3293 107.081 96.3893 107.081C93.4293 107.081 91.4493 104.941 91.4493 101.641ZM98.9293 101.201C98.9293 99.2213 97.9093 98.0813 96.3893 98.0813C94.8493 98.0813 93.8493 99.2213 93.8493 101.201V102.061C93.8493 104.041 94.8493 105.201 96.3893 105.201C97.9093 105.201 98.9293 104.041 98.9293 102.061V101.201ZM105.092 101.301V106.841H102.732V96.4413H105.092V97.9813H105.172C105.672 96.8613 106.512 96.4413 107.392 96.4413H108.512V98.6413H107.492C105.872 98.6413 105.092 99.4213 105.092 101.301ZM118.589 103.761C118.089 105.521 116.469 107.081 113.989 107.081C110.929 107.081 108.949 104.941 108.949 101.641C108.949 98.3413 110.969 96.2013 113.889 96.2013C116.849 96.2013 118.669 98.3413 118.669 101.641V102.201H111.349C111.389 104.101 112.409 105.241 113.989 105.241C115.229 105.241 115.909 104.661 116.249 103.761H118.589ZM113.889 98.0413C112.529 98.0413 111.569 98.9613 111.389 100.581H116.289C116.149 99.0213 115.309 98.0413 113.889 98.0413ZM119.776 93.3613C119.776 92.5213 120.416 91.8813 121.256 91.8813C122.076 91.8813 122.736 92.5213 122.736 93.3613C122.736 94.1813 122.076 94.8413 121.256 94.8413C120.416 94.8413 119.776 94.1813 119.776 93.3613ZM120.076 96.4413H122.436V106.841H120.076V96.4413ZM124.072 107.241H126.672C126.872 108.261 127.472 108.901 128.852 108.901C130.472 108.901 131.072 107.861 131.072 106.361V104.761H130.992C130.392 105.741 129.352 106.381 128.012 106.381C125.552 106.381 123.832 104.521 123.832 101.301C123.832 98.0813 125.552 96.2013 128.012 96.2013C129.352 96.2013 130.392 96.8413 130.992 97.8413H131.072V96.4413H133.452V106.401C133.452 108.801 131.972 110.481 128.712 110.481C125.752 110.481 124.332 108.981 124.072 107.241ZM126.232 101.641C126.232 103.601 127.132 104.541 128.652 104.541C130.112 104.541 131.072 103.361 131.072 101.601V100.981C131.072 99.2213 130.112 98.0413 128.652 98.0413C127.132 98.0413 126.232 99.0013 126.232 100.961V101.641ZM137.729 100.421V106.841H135.369V96.4413H137.729V97.6613H137.809C138.489 96.7613 139.349 96.2013 140.729 96.2013C142.789 96.2013 144.109 97.7213 144.109 100.061V106.841H141.749V100.261C141.749 99.0613 141.229 98.2013 139.869 98.2013C138.469 98.2013 137.729 99.2013 137.729 100.421ZM155.652 92.4013C159.052 92.4013 161.152 94.3413 161.652 97.0613H159.072C158.812 95.7013 157.752 94.4613 155.632 94.4613C153.112 94.4613 151.472 96.3413 151.472 99.3013V100.161C151.472 103.141 153.112 105.021 155.632 105.021C157.752 105.021 158.812 103.781 159.072 102.421H161.652C161.152 105.121 159.052 107.081 155.652 107.081C151.652 107.081 148.952 104.241 148.952 99.7413C148.952 95.2213 151.652 92.4013 155.652 92.4013ZM168.865 105.461C168.325 106.381 167.285 107.081 165.785 107.081C163.825 107.081 162.465 105.901 162.465 103.981C162.465 101.941 164.005 101.161 165.685 100.941L167.865 100.661C168.705 100.561 168.885 100.221 168.885 99.5613C168.885 98.6213 168.325 97.9413 167.065 97.9413C165.805 97.9413 165.165 98.6413 165.085 99.6413H162.665C162.725 97.9013 164.185 96.2013 167.005 96.2013C169.705 96.2013 171.245 97.7813 171.245 100.081V105.061C171.245 105.701 171.345 106.341 171.445 106.841H169.025C168.965 106.441 168.925 106.001 168.925 105.461H168.865ZM168.905 101.461C168.565 101.781 168.125 101.941 167.585 102.041L166.545 102.281C165.485 102.501 164.845 102.921 164.845 103.881C164.845 104.861 165.425 105.361 166.505 105.361C167.805 105.361 168.905 104.481 168.905 103.101V101.461ZM172.523 103.881H174.903C175.063 104.781 175.683 105.361 176.983 105.361C178.203 105.361 178.883 104.841 178.883 103.941C178.883 103.241 178.583 102.801 177.483 102.681L175.663 102.461C173.583 102.201 172.743 101.181 172.743 99.5813C172.743 97.6213 174.383 96.2013 176.903 96.2013C179.563 96.2013 180.883 97.7813 181.003 99.3013H178.683C178.563 98.4813 177.963 97.9213 176.863 97.9213C175.743 97.9213 175.023 98.4813 175.023 99.3213C175.023 99.9613 175.403 100.381 176.563 100.521L178.363 100.741C180.383 100.981 181.203 101.941 181.203 103.641C181.203 105.781 179.363 107.081 176.963 107.081C174.183 107.081 172.723 105.681 172.523 103.881ZM184.975 100.421V106.841H182.615V92.0413H184.975V97.6613H185.055C185.735 96.7613 186.595 96.2013 187.975 96.2013C190.035 96.2013 191.355 97.7213 191.355 100.061V106.841H188.995V100.261C188.995 99.0613 188.475 98.2013 187.115 98.2013C185.715 98.2013 184.975 99.2013 184.975 100.421Z" fill="white"/>
<g clip-path="url(#clip1_10479_5806)">
<path d="M228.247 90.3378C228.261 102.405 237.841 112.291 249.894 112.676V111.278C238.337 110.894 229.274 101.21 229.658 89.6391C230.021 78.6204 238.875 69.7608 249.894 69.3974V68C237.841 68.3913 228.261 78.2711 228.247 90.3378Z" fill="white"/>
<path d="M251.29 68V69.3974C262.846 69.7817 271.91 79.4659 271.526 91.0365C271.163 102.062 262.309 110.922 251.29 111.285V112.683C263.622 112.298 273.307 101.985 272.923 89.6461C272.553 77.8448 263.084 68.3703 251.29 68Z" fill="white"/>
<path d="M240.117 95.2149H245.005V96.6123H240.117V95.2149ZM246.402 92.4201H240.117V93.8175H246.402V92.4201ZM257.574 95.2149C257.574 95.9835 258.203 96.6123 258.971 96.6123C259.739 96.6123 260.367 95.9835 260.367 95.2149C260.367 94.4463 259.739 93.8175 258.971 93.8175C258.203 93.8175 257.574 94.4463 257.574 95.2149ZM263.16 88.2278H238.023V98.7085C238.023 99.0928 238.337 99.4072 238.721 99.4072H262.462C262.846 99.4072 263.16 99.0928 263.16 98.7085V89.6252H264.557V98.7085C264.557 99.8683 263.621 100.805 262.462 100.805H238.721C237.562 100.805 236.626 99.8683 236.626 98.7085V86.8304H263.16V85.433H236.626V81.9394C236.626 80.7795 237.562 79.8433 238.721 79.8433H262.462C263.621 79.8433 264.557 80.7795 264.557 81.9394V88.2278H263.16ZM263.16 84.0355V81.9394C263.16 81.5551 262.846 81.2407 262.462 81.2407H238.721C238.337 81.2407 238.023 81.5551 238.023 81.9394V84.0355H263.16Z" fill="white"/>
</g>
<path d="M284.546 83.8213H286.886C287.046 84.9813 287.586 85.8813 288.906 86.1413V81.5813L288.646 81.5413C286.266 81.0613 284.826 79.9213 284.826 77.7413C284.826 75.4413 286.466 73.7013 288.946 73.4413V71.7213H290.366V73.4413C292.966 73.7213 294.186 75.5013 294.366 77.1013H292.026C291.846 76.2213 291.366 75.5413 290.366 75.3213V79.7613L291.026 79.8813C293.386 80.3413 294.746 81.6413 294.746 83.7013C294.746 86.2613 292.946 87.9013 290.306 88.0613V90.2213H288.906V88.0213C286.126 87.7013 284.746 85.8813 284.546 83.8213ZM287.046 77.4813C287.046 78.6013 287.566 79.1413 288.946 79.4813V75.2813C287.726 75.4813 287.046 76.2813 287.046 77.4813ZM292.526 84.0213C292.526 82.6813 291.926 82.1813 290.306 81.8413V86.2013C291.706 86.0413 292.526 85.3013 292.526 84.0213ZM305.529 87.8413H295.749C295.909 85.3613 296.989 83.9413 299.769 81.8013C301.769 80.2413 302.809 79.4413 302.809 77.7413C302.809 76.2613 301.909 75.3613 300.569 75.3613C299.009 75.3613 298.189 76.5413 298.109 78.0813H295.649C295.709 75.7413 297.349 73.4013 300.609 73.4013C303.869 73.4013 305.229 75.5413 305.229 77.7413C305.229 80.6213 303.249 81.7613 301.189 83.3413C299.749 84.4413 299.009 85.1413 298.609 85.8213H305.529V87.8413ZM309.816 86.4613C309.816 87.3413 309.096 88.0813 308.216 88.0813C307.316 88.0813 306.616 87.3413 306.616 86.4613C306.616 85.5613 307.316 84.8213 308.216 84.8213C309.096 84.8213 309.816 85.5613 309.816 86.4613ZM310.988 83.7413H313.408C313.548 85.1213 314.328 86.1813 315.968 86.1813C317.568 86.1813 318.508 85.0813 318.508 83.0613C318.508 81.1413 317.728 80.0613 316.108 80.0613C314.868 80.0613 314.128 80.7813 313.728 81.5813H311.528V73.6413H320.328V75.6613H313.688V79.4213C314.408 78.7013 315.388 78.2613 316.568 78.2613C319.188 78.2613 320.908 80.0413 320.908 83.0613C320.908 86.0213 318.988 88.0813 315.968 88.0813C312.828 88.0813 311.188 86.1213 310.988 83.7413ZM322.368 73.6413H324.848V80.5413L330.828 73.6413H333.728L327.408 80.7813L333.948 87.8413H330.888L324.848 81.2413V87.8413H322.368V73.6413ZM348.049 73.6413V75.6813H343.549V87.8413H341.049V75.6813H336.529V73.6413H348.049ZM349.862 82.3013V87.8413H347.502V77.4413H349.862V78.9813H349.942C350.442 77.8613 351.282 77.4413 352.162 77.4413H353.282V79.6413H352.262C350.642 79.6413 349.862 80.4213 349.862 82.3013ZM360.081 86.4613C359.541 87.3813 358.501 88.0813 357.001 88.0813C355.041 88.0813 353.681 86.9013 353.681 84.9813C353.681 82.9413 355.221 82.1613 356.901 81.9413L359.081 81.6613C359.921 81.5613 360.101 81.2213 360.101 80.5613C360.101 79.6213 359.541 78.9413 358.281 78.9413C357.021 78.9413 356.381 79.6413 356.301 80.6413H353.881C353.941 78.9013 355.401 77.2013 358.221 77.2013C360.921 77.2013 362.461 78.7813 362.461 81.0813V86.0613C362.461 86.7013 362.561 87.3413 362.661 87.8413H360.241C360.181 87.4413 360.141 87.0013 360.141 86.4613H360.081ZM360.121 82.4613C359.781 82.7813 359.341 82.9413 358.801 83.0413L357.761 83.2813C356.701 83.5013 356.061 83.9213 356.061 84.8813C356.061 85.8613 356.641 86.3613 357.721 86.3613C359.021 86.3613 360.121 85.4813 360.121 84.1013V82.4613ZM362.984 77.4413H365.484L368.284 85.2813L371.064 77.4413H373.464L369.664 87.8413H366.804L362.984 77.4413ZM383.164 84.7613C382.664 86.5213 381.044 88.0813 378.564 88.0813C375.504 88.0813 373.524 85.9413 373.524 82.6413C373.524 79.3413 375.544 77.2013 378.464 77.2013C381.424 77.2013 383.244 79.3413 383.244 82.6413V83.2013H375.924C375.964 85.1013 376.984 86.2413 378.564 86.2413C379.804 86.2413 380.484 85.6613 380.824 84.7613H383.164ZM378.464 79.0413C377.104 79.0413 376.144 79.9613 375.964 81.5813H380.864C380.724 80.0213 379.884 79.0413 378.464 79.0413ZM387.551 87.8413C385.671 87.8413 384.591 86.7613 384.591 85.0613V73.0413H386.951V84.8613C386.951 85.5413 387.211 85.9413 387.951 85.9413H388.651V87.8413H387.551ZM284.946 92.6413H290.866C293.946 92.6413 295.846 94.3813 295.846 97.2213C295.846 100.121 293.926 101.841 290.866 101.841H287.426V106.841H284.946V92.6413ZM290.446 99.8213C292.246 99.8213 293.326 99.1013 293.326 97.2213C293.326 95.4013 292.246 94.6613 290.446 94.6613H287.426V99.8213H290.446ZM299.914 106.841C298.034 106.841 296.954 105.761 296.954 104.061V92.0413H299.314V103.861C299.314 104.541 299.574 104.941 300.314 104.941H301.014V106.841H299.914ZM308.206 105.461C307.666 106.381 306.626 107.081 305.126 107.081C303.166 107.081 301.806 105.901 301.806 103.981C301.806 101.941 303.346 101.161 305.026 100.941L307.206 100.661C308.046 100.561 308.226 100.221 308.226 99.5613C308.226 98.6213 307.666 97.9413 306.406 97.9413C305.146 97.9413 304.506 98.6413 304.426 99.6413H302.006C302.066 97.9013 303.526 96.2013 306.346 96.2013C309.046 96.2013 310.586 97.7813 310.586 100.081V105.061C310.586 105.701 310.686 106.341 310.786 106.841H308.366C308.306 106.441 308.266 106.001 308.266 105.461H308.206ZM308.246 101.461C307.906 101.781 307.466 101.941 306.926 102.041L305.886 102.281C304.826 102.501 304.186 102.921 304.186 103.881C304.186 104.861 304.766 105.361 305.846 105.361C307.146 105.361 308.246 104.481 308.246 103.101V101.461ZM313.368 103.821V98.2213H311.388V96.4413H313.368V92.6413H315.728V96.4413H318.088V98.2213H315.728V103.601C315.728 104.521 316.188 104.901 317.108 104.901H318.088V106.841H316.708C314.468 106.841 313.368 105.821 313.368 103.821ZM319.468 93.3613C319.468 92.5213 320.108 91.8813 320.948 91.8813C321.768 91.8813 322.428 92.5213 322.428 93.3613C322.428 94.1813 321.768 94.8413 320.948 94.8413C320.108 94.8413 319.468 94.1813 319.468 93.3613ZM319.768 96.4413H322.128V106.841H319.768V96.4413ZM326.444 100.421V106.841H324.084V96.4413H326.444V97.6613H326.524C327.204 96.7613 328.064 96.2013 329.444 96.2013C331.504 96.2013 332.824 97.7213 332.824 100.061V106.841H330.464V100.261C330.464 99.0613 329.944 98.2013 328.584 98.2013C327.184 98.2013 326.444 99.2013 326.444 100.421ZM341.089 102.861V96.4413H343.449V106.841H341.089V105.621H341.009C340.349 106.521 339.509 107.081 338.089 107.081C336.049 107.081 334.709 105.561 334.709 103.221V96.4413H337.069V103.021C337.069 104.221 337.589 105.081 338.929 105.081C340.349 105.081 341.089 104.081 341.089 102.861ZM347.793 100.321V106.841H345.433V96.4413H347.793V97.6613H347.873C348.433 96.8813 349.313 96.2013 350.693 96.2013C351.953 96.2013 352.913 96.8213 353.433 97.8813H353.493C354.153 96.9413 355.153 96.2013 356.673 96.2013C358.713 96.2013 359.953 97.7213 359.953 100.001V106.841H357.593V100.321C357.593 99.1013 357.093 98.2013 355.873 98.2013C354.633 98.2013 353.873 99.1613 353.873 100.321V106.841H351.513V100.321C351.513 99.1013 351.013 98.2013 349.793 98.2013C348.533 98.2013 347.793 99.1613 347.793 100.321ZM371.917 104.521L367.697 96.0213V106.841H365.337V92.6413H368.397L372.417 100.781L376.417 92.6413H379.457V106.841H377.097V95.9813L372.877 104.521H371.917ZM387.269 105.461C386.729 106.381 385.689 107.081 384.189 107.081C382.229 107.081 380.869 105.901 380.869 103.981C380.869 101.941 382.409 101.161 384.089 100.941L386.269 100.661C387.109 100.561 387.289 100.221 387.289 99.5613C387.289 98.6213 386.729 97.9413 385.469 97.9413C384.209 97.9413 383.569 98.6413 383.489 99.6413H381.069C381.129 97.9013 382.589 96.2013 385.409 96.2013C388.109 96.2013 389.649 97.7813 389.649 100.081V105.061C389.649 105.701 389.749 106.341 389.849 106.841H387.429C387.369 106.441 387.329 106.001 387.329 105.461H387.269ZM387.309 101.461C386.969 101.781 386.529 101.941 385.989 102.041L384.949 102.281C383.889 102.501 383.249 102.921 383.249 103.881C383.249 104.861 383.829 105.361 384.909 105.361C386.209 105.361 387.309 104.481 387.309 103.101V101.461ZM390.926 103.881H393.306C393.466 104.781 394.086 105.361 395.386 105.361C396.606 105.361 397.286 104.841 397.286 103.941C397.286 103.241 396.986 102.801 395.886 102.681L394.066 102.461C391.986 102.201 391.146 101.181 391.146 99.5813C391.146 97.6213 392.786 96.2013 395.306 96.2013C397.966 96.2013 399.286 97.7813 399.406 99.3013H397.086C396.966 98.4813 396.366 97.9213 395.266 97.9213C394.146 97.9213 393.426 98.4813 393.426 99.3213C393.426 99.9613 393.806 100.381 394.966 100.521L396.766 100.741C398.786 100.981 399.606 101.941 399.606 103.641C399.606 105.781 397.766 107.081 395.366 107.081C392.586 107.081 391.126 105.681 390.926 103.881ZM401.922 103.821V98.2213H399.942V96.4413H401.922V92.6413H404.282V96.4413H406.642V98.2213H404.282V103.601C404.282 104.521 404.742 104.901 405.662 104.901H406.642V106.841H405.262C403.022 106.841 401.922 105.821 401.922 103.821ZM417.11 103.761C416.61 105.521 414.99 107.081 412.51 107.081C409.45 107.081 407.47 104.941 407.47 101.641C407.47 98.3413 409.49 96.2013 412.41 96.2013C415.37 96.2013 417.19 98.3413 417.19 101.641V102.201H409.87C409.91 104.101 410.93 105.241 412.51 105.241C413.75 105.241 414.43 104.661 414.77 103.761H417.11ZM412.41 98.0413C411.05 98.0413 410.09 98.9613 409.91 100.581H414.81C414.67 99.0213 413.83 98.0413 412.41 98.0413ZM420.956 101.301V106.841H418.596V96.4413H420.956V97.9813H421.036C421.536 96.8613 422.376 96.4413 423.256 96.4413H424.376V98.6413H423.356C421.736 98.6413 420.956 99.4213 420.956 101.301ZM424.814 101.641C424.814 98.3413 426.754 96.2013 429.714 96.2013C432.294 96.2013 433.934 97.7813 434.234 99.8613H431.874C431.674 98.7213 430.894 98.0813 429.714 98.0813C428.214 98.0813 427.214 99.2413 427.214 101.221V102.081C427.214 104.061 428.214 105.201 429.714 105.201C430.974 105.201 431.674 104.461 431.894 103.381H434.254C433.954 105.401 432.294 107.081 429.714 107.081C426.754 107.081 424.814 104.941 424.814 101.641ZM441.409 105.461C440.869 106.381 439.829 107.081 438.329 107.081C436.369 107.081 435.009 105.901 435.009 103.981C435.009 101.941 436.549 101.161 438.229 100.941L440.409 100.661C441.249 100.561 441.429 100.221 441.429 99.5613C441.429 98.6213 440.869 97.9413 439.609 97.9413C438.349 97.9413 437.709 98.6413 437.629 99.6413H435.209C435.269 97.9013 436.729 96.2013 439.549 96.2013C442.249 96.2013 443.789 97.7813 443.789 100.081V105.061C443.789 105.701 443.889 106.341 443.989 106.841H441.569C441.509 106.441 441.469 106.001 441.469 105.461H441.409ZM441.449 101.461C441.109 101.781 440.669 101.941 440.129 102.041L439.089 102.281C438.029 102.501 437.389 102.921 437.389 103.881C437.389 104.861 437.969 105.361 439.049 105.361C440.349 105.361 441.449 104.481 441.449 103.101V101.461ZM448.027 101.301V106.841H445.667V96.4413H448.027V97.9813H448.107C448.607 96.8613 449.447 96.4413 450.327 96.4413H451.447V98.6413H450.427C448.807 98.6413 448.027 99.4213 448.027 101.301ZM459.264 105.441C458.684 106.401 457.524 107.081 456.164 107.081C453.664 107.081 451.884 104.941 451.884 101.641C451.884 98.3413 453.664 96.2013 456.164 96.2013C457.524 96.2013 458.684 96.8813 459.264 97.8413H459.344V92.0413H461.704V106.841H459.344V105.441H459.264ZM454.284 102.041C454.284 104.081 455.224 105.201 456.824 105.201C458.304 105.201 459.344 104.021 459.344 102.181V101.101C459.344 99.2613 458.304 98.0813 456.824 98.0813C455.224 98.0813 454.284 99.2213 454.284 101.261V102.041Z" fill="white"/>
<g clip-path="url(#clip2_10479_5806)">
<path d="M481.494 90.3378C481.494 102.433 491.143 112.305 503.137 112.676V111.278C491.911 110.908 482.89 101.657 482.89 90.3378C482.89 79.0187 491.911 69.7677 503.137 69.3974V68C491.143 68.3703 481.494 78.2501 481.494 90.3378Z" fill="white"/>
<path d="M504.533 68V69.3974C515.76 69.7677 524.78 79.0187 524.78 90.3378C524.78 101.657 515.76 110.908 504.533 111.278V112.676C516.528 112.305 526.176 102.426 526.176 90.3378C526.176 78.2501 516.528 68.3703 504.533 68Z" fill="white"/>
<path d="M493.78 84.5078V85.9311H495.103V84.5078H493.78ZM493.78 84.5078V89.1416H495.103V84.5078H493.78ZM493.78 84.5078V89.1416H495.103V84.5078H493.78Z" fill="white"/>
<path d="M515.073 80.9004H492.583C491.492 80.9004 490.599 81.7874 490.599 82.8863V98.7737C490.599 99.866 491.492 100.76 492.583 100.76H515.073C516.171 100.76 517.057 99.866 517.057 98.7737V82.8863C517.057 81.7874 516.171 80.9004 515.073 80.9004ZM515.734 98.7737C515.734 99.1378 515.436 99.4357 515.073 99.4357H492.583C492.219 99.4357 491.922 99.1378 491.922 98.7737V87.2355H493.787V85.9314H491.922V82.8863C491.922 82.5156 492.219 82.2243 492.583 82.2243H515.073C515.436 82.2243 515.734 82.5156 515.734 82.8863V85.9314H495.11V87.2355H515.734V98.7737Z" fill="white"/>
<path d="M506.474 77.2065H501.182C499.178 77.2065 497.544 78.8416 497.544 80.8474V81.1784H498.867V80.8474C498.867 79.5698 499.905 78.5305 501.182 78.5305H506.474C507.75 78.5305 508.789 79.5698 508.789 80.8474V81.1784H510.112V80.8474C510.112 78.8416 508.478 77.2065 506.474 77.2065Z" fill="white"/>
<path d="M498.291 102.11H496.405C496.022 102.11 495.711 101.799 495.711 101.415V100.408C495.711 100.025 496.022 99.7134 496.405 99.7134H498.291C498.674 99.7134 498.985 100.025 498.985 100.408V101.415C498.985 101.799 498.674 102.11 498.291 102.11ZM496.71 101.117H498V100.706H496.71V101.117Z" fill="white"/>
<path d="M511.243 102.11H509.358C508.974 102.11 508.663 101.799 508.663 101.415V100.408C508.663 100.025 508.974 99.7134 509.358 99.7134H511.243C511.626 99.7134 511.937 100.025 511.937 100.408V101.415C511.937 101.799 511.626 102.11 511.243 102.11ZM509.655 101.117H510.945V100.706H509.655V101.117Z" fill="white"/>
</g>
<path d="M537.793 83.8213H540.133C540.293 84.9813 540.833 85.8813 542.153 86.1413V81.5813L541.893 81.5413C539.513 81.0613 538.073 79.9213 538.073 77.7413C538.073 75.4413 539.713 73.7013 542.193 73.4413V71.7213H543.613V73.4413C546.213 73.7213 547.433 75.5013 547.613 77.1013H545.273C545.093 76.2213 544.613 75.5413 543.613 75.3213V79.7613L544.273 79.8813C546.633 80.3413 547.993 81.6413 547.993 83.7013C547.993 86.2613 546.193 87.9013 543.553 88.0613V90.2213H542.153V88.0213C539.373 87.7013 537.993 85.8813 537.793 83.8213ZM540.293 77.4813C540.293 78.6013 540.813 79.1413 542.193 79.4813V75.2813C540.973 75.4813 540.293 76.2813 540.293 77.4813ZM545.773 84.0213C545.773 82.6813 545.173 82.1813 543.553 81.8413V86.2013C544.953 86.0413 545.773 85.3013 545.773 84.0213ZM558.776 87.8413H548.996C549.156 85.3613 550.236 83.9413 553.016 81.8013C555.016 80.2413 556.056 79.4413 556.056 77.7413C556.056 76.2613 555.156 75.3613 553.816 75.3613C552.256 75.3613 551.436 76.5413 551.356 78.0813H548.896C548.956 75.7413 550.596 73.4013 553.856 73.4013C557.116 73.4013 558.476 75.5413 558.476 77.7413C558.476 80.6213 556.496 81.7613 554.436 83.3413C552.996 84.4413 552.256 85.1413 551.856 85.8213H558.776V87.8413ZM560.088 73.6413H562.568V80.5413L568.548 73.6413H571.448L565.128 80.7813L571.668 87.8413H568.608L562.568 81.2413V87.8413H560.088V73.6413ZM584.56 85.7613V87.8413H575.4V73.6413H577.88V85.7613H584.56ZM592.383 83.8613V77.4413H594.743V87.8413H592.383V86.6213H592.303C591.643 87.5213 590.803 88.0813 589.383 88.0813C587.343 88.0813 586.003 86.5613 586.003 84.2213V77.4413H588.363V84.0213C588.363 85.2213 588.883 86.0813 590.223 86.0813C591.643 86.0813 592.383 85.0813 592.383 83.8613ZM596.387 88.2413H598.987C599.187 89.2613 599.787 89.9013 601.167 89.9013C602.787 89.9013 603.387 88.8613 603.387 87.3613V85.7613H603.307C602.707 86.7413 601.667 87.3813 600.327 87.3813C597.867 87.3813 596.147 85.5213 596.147 82.3013C596.147 79.0813 597.867 77.2013 600.327 77.2013C601.667 77.2013 602.707 77.8413 603.307 78.8413H603.387V77.4413H605.767V87.4013C605.767 89.8013 604.287 91.4813 601.027 91.4813C598.067 91.4813 596.647 89.9813 596.387 88.2413ZM598.547 82.6413C598.547 84.6013 599.447 85.5413 600.967 85.5413C602.427 85.5413 603.387 84.3613 603.387 82.6013V81.9813C603.387 80.2213 602.427 79.0413 600.967 79.0413C599.447 79.0413 598.547 80.0013 598.547 81.9613V82.6413ZM607.363 88.2413H609.963C610.163 89.2613 610.763 89.9013 612.143 89.9013C613.763 89.9013 614.363 88.8613 614.363 87.3613V85.7613H614.283C613.683 86.7413 612.643 87.3813 611.303 87.3813C608.843 87.3813 607.123 85.5213 607.123 82.3013C607.123 79.0813 608.843 77.2013 611.303 77.2013C612.643 77.2013 613.683 77.8413 614.283 78.8413H614.363V77.4413H616.743V87.4013C616.743 89.8013 615.263 91.4813 612.003 91.4813C609.043 91.4813 607.623 89.9813 607.363 88.2413ZM609.523 82.6413C609.523 84.6013 610.423 85.5413 611.943 85.5413C613.403 85.5413 614.363 84.3613 614.363 82.6013V81.9813C614.363 80.2213 613.403 79.0413 611.943 79.0413C610.423 79.0413 609.523 80.0013 609.523 81.9613V82.6413ZM624.52 86.4613C623.98 87.3813 622.94 88.0813 621.44 88.0813C619.48 88.0813 618.12 86.9013 618.12 84.9813C618.12 82.9413 619.66 82.1613 621.34 81.9413L623.52 81.6613C624.36 81.5613 624.54 81.2213 624.54 80.5613C624.54 79.6213 623.98 78.9413 622.72 78.9413C621.46 78.9413 620.82 79.6413 620.74 80.6413H618.32C618.38 78.9013 619.84 77.2013 622.66 77.2013C625.36 77.2013 626.9 78.7813 626.9 81.0813V86.0613C626.9 86.7013 627 87.3413 627.1 87.8413H624.68C624.62 87.4413 624.58 87.0013 624.58 86.4613H624.52ZM624.56 82.4613C624.22 82.7813 623.78 82.9413 623.24 83.0413L622.2 83.2813C621.14 83.5013 620.5 83.9213 620.5 84.8813C620.5 85.8613 621.08 86.3613 622.16 86.3613C623.46 86.3613 624.56 85.4813 624.56 84.1013V82.4613ZM628.457 88.2413H631.057C631.257 89.2613 631.857 89.9013 633.237 89.9013C634.857 89.9013 635.457 88.8613 635.457 87.3613V85.7613H635.377C634.777 86.7413 633.737 87.3813 632.397 87.3813C629.937 87.3813 628.217 85.5213 628.217 82.3013C628.217 79.0813 629.937 77.2013 632.397 77.2013C633.737 77.2013 634.777 77.8413 635.377 78.8413H635.457V77.4413H637.837V87.4013C637.837 89.8013 636.357 91.4813 633.097 91.4813C630.137 91.4813 628.717 89.9813 628.457 88.2413ZM630.617 82.6413C630.617 84.6013 631.517 85.5413 633.037 85.5413C634.497 85.5413 635.457 84.3613 635.457 82.6013V81.9813C635.457 80.2213 634.497 79.0413 633.037 79.0413C631.517 79.0413 630.617 80.0013 630.617 81.9613V82.6413ZM648.833 84.7613C648.333 86.5213 646.713 88.0813 644.233 88.0813C641.173 88.0813 639.193 85.9413 639.193 82.6413C639.193 79.3413 641.213 77.2013 644.133 77.2013C647.093 77.2013 648.913 79.3413 648.913 82.6413V83.2013H641.593C641.633 85.1013 642.653 86.2413 644.233 86.2413C645.473 86.2413 646.153 85.6613 646.493 84.7613H648.833ZM644.133 79.0413C642.773 79.0413 641.813 79.9613 641.633 81.5813H646.533C646.393 80.0213 645.553 79.0413 644.133 79.0413ZM540.533 105.441H540.453V110.241H538.093V96.4413H540.453V97.8413H540.533C541.113 96.8813 542.273 96.2013 543.613 96.2013C546.133 96.2013 547.913 98.3413 547.913 101.641C547.913 104.941 546.133 107.081 543.613 107.081C542.273 107.081 541.113 106.401 540.533 105.441ZM540.453 102.181C540.453 104.021 541.473 105.201 542.973 105.201C544.573 105.201 545.513 104.081 545.513 102.041V101.261C545.513 99.2213 544.573 98.0813 542.973 98.0813C541.473 98.0813 540.453 99.2613 540.453 101.101V102.181ZM555.164 105.461C554.624 106.381 553.584 107.081 552.084 107.081C550.124 107.081 548.764 105.901 548.764 103.981C548.764 101.941 550.304 101.161 551.984 100.941L554.164 100.661C555.004 100.561 555.184 100.221 555.184 99.5613C555.184 98.6213 554.624 97.9413 553.364 97.9413C552.104 97.9413 551.464 98.6413 551.384 99.6413H548.964C549.024 97.9013 550.484 96.2013 553.304 96.2013C556.004 96.2013 557.544 97.7813 557.544 100.081V105.061C557.544 105.701 557.644 106.341 557.744 106.841H555.324C555.264 106.441 555.224 106.001 555.224 105.461H555.164ZM555.204 101.461C554.864 101.781 554.424 101.941 553.884 102.041L552.844 102.281C551.784 102.501 551.144 102.921 551.144 103.881C551.144 104.861 551.724 105.361 552.804 105.361C554.104 105.361 555.204 104.481 555.204 103.101V101.461ZM558.861 101.641C558.861 98.3413 560.801 96.2013 563.761 96.2013C566.341 96.2013 567.981 97.7813 568.281 99.8613H565.921C565.721 98.7213 564.941 98.0813 563.761 98.0813C562.261 98.0813 561.261 99.2413 561.261 101.221V102.081C561.261 104.061 562.261 105.201 563.761 105.201C565.021 105.201 565.721 104.461 565.941 103.381H568.301C568.001 105.401 566.341 107.081 563.761 107.081C560.801 107.081 558.861 104.941 558.861 101.641ZM569.597 92.0413H571.957V101.161L575.597 96.4413H578.317L574.317 101.441L578.537 106.841H575.757L571.957 101.841V106.841H569.597V92.0413ZM584.969 105.461C584.429 106.381 583.389 107.081 581.889 107.081C579.929 107.081 578.569 105.901 578.569 103.981C578.569 101.941 580.109 101.161 581.789 100.941L583.969 100.661C584.809 100.561 584.989 100.221 584.989 99.5613C584.989 98.6213 584.429 97.9413 583.169 97.9413C581.909 97.9413 581.269 98.6413 581.189 99.6413H578.769C578.829 97.9013 580.289 96.2013 583.109 96.2013C585.809 96.2013 587.349 97.7813 587.349 100.081V105.061C587.349 105.701 587.449 106.341 587.549 106.841H585.129C585.069 106.441 585.029 106.001 585.029 105.461H584.969ZM585.009 101.461C584.669 101.781 584.229 101.941 583.689 102.041L582.649 102.281C581.589 102.501 580.949 102.921 580.949 103.881C580.949 104.861 581.529 105.361 582.609 105.361C583.909 105.361 585.009 104.481 585.009 103.101V101.461ZM588.906 107.241H591.506C591.706 108.261 592.306 108.901 593.686 108.901C595.306 108.901 595.906 107.861 595.906 106.361V104.761H595.826C595.226 105.741 594.186 106.381 592.846 106.381C590.386 106.381 588.666 104.521 588.666 101.301C588.666 98.0813 590.386 96.2013 592.846 96.2013C594.186 96.2013 595.226 96.8413 595.826 97.8413H595.906V96.4413H598.286V106.401C598.286 108.801 596.806 110.481 593.546 110.481C590.586 110.481 589.166 108.981 588.906 107.241ZM591.066 101.641C591.066 103.601 591.966 104.541 593.486 104.541C594.946 104.541 595.906 103.361 595.906 101.601V100.981C595.906 99.2213 594.946 98.0413 593.486 98.0413C591.966 98.0413 591.066 99.0013 591.066 100.961V101.641ZM609.283 103.761C608.783 105.521 607.163 107.081 604.683 107.081C601.623 107.081 599.643 104.941 599.643 101.641C599.643 98.3413 601.663 96.2013 604.583 96.2013C607.543 96.2013 609.363 98.3413 609.363 101.641V102.201H602.043C602.083 104.101 603.103 105.241 604.683 105.241C605.923 105.241 606.603 104.661 606.943 103.761H609.283ZM604.583 98.0413C603.223 98.0413 602.263 98.9613 602.083 100.581H606.983C606.843 99.0213 606.003 98.0413 604.583 98.0413ZM613.328 96.4413H615.068V95.1413C615.068 93.0013 616.388 92.0413 618.308 92.0413H619.528V93.8613H618.688C617.968 93.8613 617.428 94.2213 617.428 95.2413V96.4413H619.528V98.2213H617.428V106.841H615.068V98.2213H613.328V96.4413ZM623.188 101.301V106.841H620.828V96.4413H623.188V97.9813H623.268C623.768 96.8613 624.608 96.4413 625.488 96.4413H626.608V98.6413H625.588C623.968 98.6413 623.188 99.4213 623.188 101.301ZM627.045 101.641C627.045 98.3413 629.025 96.2013 631.985 96.2013C634.925 96.2013 636.925 98.3413 636.925 101.641C636.925 104.941 634.925 107.081 631.985 107.081C629.025 107.081 627.045 104.941 627.045 101.641ZM634.525 101.201C634.525 99.2213 633.505 98.0813 631.985 98.0813C630.445 98.0813 629.445 99.2213 629.445 101.201V102.061C629.445 104.041 630.445 105.201 631.985 105.201C633.505 105.201 634.525 104.041 634.525 102.061V101.201ZM640.708 100.321V106.841H638.348V96.4413H640.708V97.6613H640.788C641.348 96.8813 642.228 96.2013 643.608 96.2013C644.868 96.2013 645.828 96.8213 646.348 97.8813H646.408C647.068 96.9413 648.068 96.2013 649.588 96.2013C651.628 96.2013 652.868 97.7213 652.868 100.001V106.841H650.508V100.321C650.508 99.1013 650.008 98.2013 648.788 98.2013C647.548 98.2013 646.788 99.1613 646.788 100.321V106.841H644.428V100.321C644.428 99.1013 643.928 98.2013 642.708 98.2013C641.448 98.2013 640.708 99.1613 640.708 100.321ZM657.452 102.501H659.952C660.192 104.061 661.252 105.081 663.252 105.081C664.992 105.081 666.252 104.401 666.252 102.861C666.252 101.661 665.672 101.041 664.152 100.881L661.492 100.601C659.092 100.341 657.772 99.1013 657.772 96.8413C657.772 94.2613 659.912 92.4013 663.092 92.4013C666.512 92.4013 668.132 94.4613 668.412 96.4013H665.912C665.652 95.1413 664.672 94.3813 663.032 94.3813C661.412 94.3813 660.232 95.2013 660.232 96.6013C660.232 97.7213 660.852 98.3213 662.452 98.4813L665.112 98.7613C667.492 99.0213 668.732 100.461 668.732 102.561C668.732 105.381 666.492 107.081 663.312 107.081C659.612 107.081 657.692 105.061 657.452 102.501ZM671.126 103.821V98.2213H669.146V96.4413H671.126V92.6413H673.486V96.4413H675.846V98.2213H673.486V103.601C673.486 104.521 673.946 104.901 674.866 104.901H675.846V106.841H674.466C672.226 106.841 671.126 105.821 671.126 103.821ZM679.887 101.301V106.841H677.527V96.4413H679.887V97.9813H679.967C680.467 96.8613 681.307 96.4413 682.187 96.4413H683.307V98.6413H682.287C680.667 98.6413 679.887 99.4213 679.887 101.301ZM690.106 105.461C689.566 106.381 688.526 107.081 687.026 107.081C685.066 107.081 683.706 105.901 683.706 103.981C683.706 101.941 685.246 101.161 686.926 100.941L689.106 100.661C689.946 100.561 690.126 100.221 690.126 99.5613C690.126 98.6213 689.566 97.9413 688.306 97.9413C687.046 97.9413 686.406 98.6413 686.326 99.6413H683.906C683.966 97.9013 685.426 96.2013 688.246 96.2013C690.946 96.2013 692.486 97.7813 692.486 100.081V105.061C692.486 105.701 692.586 106.341 692.686 106.841H690.266C690.206 106.441 690.166 106.001 690.166 105.461H690.106ZM690.146 101.461C689.806 101.781 689.366 101.941 688.826 102.041L687.786 102.281C686.726 102.501 686.086 102.921 686.086 103.881C686.086 104.861 686.666 105.361 687.746 105.361C689.046 105.361 690.146 104.481 690.146 103.101V101.461ZM696.723 100.421V106.841H694.363V96.4413H696.723V97.6613H696.803C697.483 96.7613 698.343 96.2013 699.723 96.2013C701.783 96.2013 703.103 97.7213 703.103 100.061V106.841H700.743V100.261C700.743 99.0613 700.223 98.2013 698.863 98.2013C697.463 98.2013 696.723 99.2013 696.723 100.421ZM711.847 105.441C711.267 106.401 710.107 107.081 708.747 107.081C706.247 107.081 704.467 104.941 704.467 101.641C704.467 98.3413 706.247 96.2013 708.747 96.2013C710.107 96.2013 711.267 96.8813 711.847 97.8413H711.927V92.0413H714.287V106.841H711.927V105.441H711.847ZM706.867 102.041C706.867 104.081 707.807 105.201 709.407 105.201C710.887 105.201 711.927 104.021 711.927 102.181V101.101C711.927 99.2613 710.887 98.0813 709.407 98.0813C707.807 98.0813 706.867 99.2213 706.867 101.261V102.041Z" fill="white"/>
<defs>
<clipPath id="clip0_10479_5806">
<rect width="44.6826" height="44.6826" fill="white" transform="translate(25 68)"/>
</clipPath>
<clipPath id="clip1_10479_5806">
<rect width="44.6826" height="44.6826" fill="white" transform="translate(228.247 68)"/>
</clipPath>
<clipPath id="clip2_10479_5806">
<rect width="44.6826" height="44.6826" fill="white" transform="translate(481.494 68)"/>
</clipPath>
</defs>
</svg>
