<svg width="104" height="28" viewBox="0 0 104 28" fill="none" xmlns="http://www.w3.org/2000/svg">
<rect width="103.241" height="27.1393" rx="3.96798" fill="white"/>
<path d="M18.6447 12.8656V14.1665H14.5888V18.0693H12.969V9.01384H18.989V10.3275H14.5888V12.8656H18.6447ZM19.8312 9.53676C19.8312 8.98833 20.2521 8.5802 20.7878 8.5802C21.3235 8.5802 21.7443 8.98833 21.7443 9.53676C21.7443 10.0724 21.3235 10.4933 20.7878 10.4933C20.2521 10.4933 19.8312 10.0724 19.8312 9.53676ZM20.0225 11.5009H21.553V18.0693H20.0225V11.5009ZM24.6111 14.0518V18.0693H23.0805V11.5009H24.6111V12.2789H24.6621C25.0957 11.705 25.6824 11.3479 26.588 11.3479C27.9272 11.3479 28.8072 12.3172 28.8072 13.8094V18.0693H27.2767V13.9497C27.2767 13.1972 26.9068 12.6488 26.0268 12.6488C25.1085 12.6488 24.6111 13.2865 24.6111 14.0518ZM29.9036 14.7787C29.9036 12.6743 31.0897 11.3479 32.6967 11.3479C33.5895 11.3479 34.3165 11.7688 34.6864 12.381H34.7502V8.4399H36.2807V18.0693H34.7502V17.1893H34.6864C34.3165 17.8015 33.5895 18.2224 32.6967 18.2224C31.0897 18.2224 29.9036 16.8832 29.9036 14.7787ZM31.4723 15.0338C31.4723 16.322 32.0973 17.0107 33.1176 17.0107C34.0869 17.0107 34.7502 16.2582 34.7502 15.0976V14.4726C34.7502 13.312 34.0869 12.5595 33.1176 12.5595C32.0973 12.5595 31.4723 13.2482 31.4723 14.5364V15.0338ZM40.0676 14.7787C40.0676 12.6743 41.3558 11.3479 43.2816 11.3479C45.2075 11.3479 46.4957 12.6743 46.4957 14.7787C46.4957 16.8832 45.2075 18.2224 43.2816 18.2224C41.3558 18.2224 40.0676 16.8832 40.0676 14.7787ZM44.9397 15.0593V14.5109C44.9397 13.2737 44.2892 12.5595 43.2816 12.5595C42.2868 12.5595 41.6236 13.2737 41.6236 14.5109V15.0593C41.6236 16.2965 42.2868 17.0107 43.2816 17.0107C44.2892 17.0107 44.9397 16.2965 44.9397 15.0593ZM51.7885 15.544V11.5009H53.319V18.0693H51.7885V17.3168H51.7375C51.3038 17.8908 50.7171 18.2224 49.8116 18.2224C48.4724 18.2224 47.5796 17.2913 47.5796 15.7991V11.5009H49.1101V15.646C49.1101 16.3985 49.4927 16.9215 50.3728 16.9215C51.2783 16.9215 51.7885 16.2965 51.7885 15.544ZM55.3847 16.1307V12.6488H54.0838V11.5009H55.3974V9.01384H56.9152V11.5009H58.4967V12.6488H56.9152V15.9776C56.9152 16.5643 57.2213 16.8067 57.7952 16.8067H58.4967V18.0693H57.5529C56.0989 18.0693 55.3847 17.4189 55.3847 16.1307ZM63.766 14.0135V18.0693H62.2355V11.5009H63.766V12.2789H63.817C64.1869 11.7688 64.7481 11.3479 65.6409 11.3479C66.4699 11.3479 67.0949 11.7432 67.4392 12.4192H67.4902C67.9111 11.807 68.5488 11.3479 69.5437 11.3479C70.8829 11.3479 71.6864 12.3172 71.6864 13.7712V18.0693H70.1559V14.0135C70.1559 13.2227 69.8243 12.6488 69.0207 12.6488C68.1917 12.6488 67.7326 13.2865 67.7326 14.0135V18.0693H66.2021V14.0135C66.2021 13.2227 65.8705 12.6488 65.0669 12.6488C64.2379 12.6488 63.766 13.2865 63.766 14.0135ZM72.7702 14.7787C72.7702 12.6743 74.0584 11.3479 75.9843 11.3479C77.9101 11.3479 79.1983 12.6743 79.1983 14.7787C79.1983 16.8832 77.9101 18.2224 75.9843 18.2224C74.0584 18.2224 72.7702 16.8832 72.7702 14.7787ZM77.6423 15.0593V14.5109C77.6423 13.2737 76.9918 12.5595 75.9843 12.5595C74.9894 12.5595 74.3262 13.2737 74.3262 14.5109V15.0593C74.3262 16.2965 74.9894 17.0107 75.9843 17.0107C76.9918 17.0107 77.6423 16.2965 77.6423 15.0593ZM81.8765 14.6385V18.0693H80.346V11.5009H81.8765V12.483H81.9275C82.2464 11.7688 82.7821 11.5009 83.3432 11.5009H84.1723V12.9294H83.407C82.3739 12.9294 81.8765 13.414 81.8765 14.6385ZM90.7033 16.0924C90.3845 17.2276 89.3386 18.2224 87.7188 18.2224C85.7164 18.2224 84.4538 16.8832 84.4538 14.7787C84.4538 12.6743 85.7419 11.3479 87.6551 11.3479C89.581 11.3479 90.7543 12.6871 90.7543 14.7787V15.1486H86.0098C86.048 16.3348 86.6857 17.0362 87.7188 17.0362C88.5351 17.0362 88.9688 16.6791 89.1728 16.0924H90.7033ZM87.6551 12.5213C86.7623 12.5213 86.1628 13.0952 86.0353 14.1028H89.2111C89.1218 13.1335 88.5861 12.5213 87.6551 12.5213Z" fill="#DC1928"/>
</svg>
