<svg width="130" height="69" viewBox="0 0 130 69" fill="none" xmlns="http://www.w3.org/2000/svg">
<path d="M59.0871 3.85644V11.9101H47.377V0.199989H55.4306C57.448 0.199989 59.0871 1.83909 59.0871 3.85644Z" fill="white"/>
<path d="M59.0871 23.62H47.377V35.3301H59.0871V23.62Z" fill="white"/>
<path d="M35.6669 0.199989H23.9568V11.9101H35.6669V0.199989Z" fill="#FFD000"/>
<path d="M12.2466 9.58542V0.199989H0.536499V31.6739C0.536499 33.6912 2.1756 35.3303 4.19295 35.3303H12.2466V25.9449C12.2466 24.6604 13.2868 23.6202 14.5713 23.6202H23.9567V11.9101H14.5713C13.2868 11.9101 12.2466 10.8699 12.2466 9.58542Z" fill="white"/>
<path d="M35.6669 23.62H23.9568V35.3301H35.6669V23.62Z" fill="white"/>
<path d="M13.3026 48.2147C12.4988 48.2147 11.8447 47.9547 11.3089 47.4109C10.7809 46.8751 10.5208 46.2131 10.5208 45.3936C10.5208 44.574 10.773 43.8727 11.3089 43.3368C11.8368 42.7931 12.5067 42.533 13.3341 42.533C14.1221 42.533 14.7683 42.8009 15.3042 43.3447C15.84 43.8884 16.1001 44.5425 16.1001 45.3463C16.1001 46.1501 15.84 46.8435 15.3042 47.3952C14.7683 47.9468 14.1142 48.2147 13.3026 48.2147ZM16.4783 42.3045C15.6273 41.4928 14.5555 41.0909 13.2868 41.0909C12.0181 41.0909 10.9464 41.5007 10.1111 42.3045C9.27574 43.1162 8.85021 44.1564 8.85021 45.3857C8.85021 46.615 9.27574 47.6079 10.1032 48.4117C10.9306 49.2076 11.9866 49.6174 13.2238 49.6174C14.461 49.6174 15.6036 49.2155 16.4626 48.4117C17.3215 47.6079 17.7628 46.5835 17.7628 45.362C17.7628 44.1406 17.3294 43.1162 16.4783 42.3045ZM51.2698 41.1855V45.8427C51.2698 47.1745 50.7576 48.0886 49.2682 48.0886C47.7789 48.0886 47.2666 47.1745 47.2666 45.8427V41.1855H45.6512V46.1895C45.6512 48.6481 47.3139 49.6174 49.2682 49.6174C51.2225 49.6174 52.8853 48.656 52.8853 46.1895V41.1855H51.2698ZM41.5298 41.1855V48.065H45.0286V49.5071H39.9222V41.1855H41.5298ZM35.722 44.9444C36.5179 44.9444 37.1956 44.574 37.1956 43.786C37.1956 42.998 36.7386 42.6276 35.722 42.6276H34.7527V44.9444H35.722ZM36.1791 41.1855C37.9285 41.1855 38.8032 42.3203 38.8032 43.7781C38.8032 45.236 37.7157 46.3865 36.116 46.3865H34.7527V49.5071H33.1451V41.1855H36.1791ZM32.0498 41.1855V42.6276H29.3153V49.5071H27.7077V42.6276H24.9733V41.1855H32.0498ZM56.7466 41.0752C57.5583 41.0752 58.3384 41.2801 59.0871 41.6819V43.321C58.2202 42.801 57.645 42.4779 56.7703 42.4779C55.8955 42.4779 55.5961 42.7773 55.5725 43.1871C55.5488 43.5023 55.7458 43.7702 56.1635 44.0382C56.2817 44.117 56.723 44.3455 57.511 44.7316C58.1808 45.0626 58.6852 45.4093 58.9846 45.8033C59.2841 46.1974 59.4417 46.6702 59.4417 47.2218C59.4417 47.9389 59.1816 48.5142 58.6694 48.9555C58.1572 49.3968 57.4874 49.6174 56.6678 49.6174C56.1398 49.6174 55.6749 49.5622 55.2966 49.444C54.9105 49.3258 54.485 49.1288 54.0043 48.8373V47.009C54.8948 47.7498 55.7064 48.2068 56.4945 48.2068C57.2352 48.2068 57.7317 47.9231 57.7317 47.4188C57.7317 47.0799 57.5741 46.7726 57.1643 46.5283C56.8254 46.3234 56.3763 46.0949 55.8483 45.8033C55.2178 45.4566 54.7056 45.1414 54.3825 44.7395C54.0594 44.3376 53.894 43.8963 53.894 43.3762C53.894 42.6749 54.154 42.1232 54.6741 41.7056C55.1942 41.2879 55.8798 41.083 56.7387 41.083M21.5217 41.0752C22.3334 41.0752 23.1135 41.2801 23.8622 41.6819V43.321C23.0032 42.801 22.4201 42.4779 21.5454 42.4779C20.6706 42.4779 20.3712 42.7773 20.3476 43.1871C20.3239 43.5023 20.5209 43.7702 20.9386 44.0382C21.0568 44.117 21.4981 44.3455 22.2861 44.7316C22.9559 45.0626 23.4603 45.4093 23.7676 45.8033C24.0671 46.1974 24.2168 46.6702 24.2168 47.2218C24.2168 47.9389 23.9567 48.5142 23.4445 48.9555C22.9323 49.3968 22.2625 49.6174 21.4429 49.6174C20.9071 49.6174 20.45 49.5622 20.0717 49.444C19.6935 49.3258 19.2601 49.1288 18.7794 48.8373V47.009C19.6698 47.7498 20.4815 48.2068 21.2695 48.2068C22.0103 48.2068 22.5068 47.9231 22.5068 47.4188C22.5068 47.0799 22.357 46.7726 21.9394 46.5283C21.6005 46.3234 21.1513 46.0949 20.6234 45.8033C19.9929 45.4566 19.4807 45.1414 19.1576 44.7395C18.8345 44.3376 18.6691 43.8963 18.6691 43.3762C18.6691 42.6749 18.9291 42.1232 19.4492 41.7056C19.9693 41.2879 20.6549 41.083 21.5138 41.083M2.14408 41.1855V44.5031H6.0921V41.1855H7.69968V49.5071H6.0921V46.1816H2.14408V49.5071H0.536499V41.1855H2.14408Z" fill="white"/>
<line x1="72.7519" y1="0.0857086" x2="72.7519" y2="49.9157" stroke="white" stroke-width="0.39864"/>
<g clip-path="url(#clip0_18091_282026)">
<path d="M107.22 0.0628128C99.3005 0.0628128 94.0207 1.38277 94.0207 1.38277V24.4186C94.0207 26.483 94.2715 28.0907 96.6606 29.6535C97.8644 30.4402 107.22 36.5463 107.22 36.5463C107.22 36.5463 116.576 30.4402 117.78 29.6535C120.169 28.0907 120.42 26.483 120.42 24.4186V1.38277C120.42 1.38277 115.14 0.0628128 107.22 0.0628128Z" fill="#A5ACAF"/>
<path d="M119.628 24.4186C119.628 25.4033 119.567 26.2058 119.266 26.916C118.939 27.6868 118.329 28.3468 117.347 28.9909C116.307 29.672 109.076 34.3895 107.22 35.6013C105.364 34.3895 98.1337 29.672 97.0936 28.9909C96.1089 28.3468 95.4991 27.6895 95.1744 26.916C94.8734 26.2058 94.8127 25.4033 94.8127 24.4186V5.59871C96.5656 5.25553 101.106 4.49787 107.22 4.49787C113.334 4.49787 117.875 5.25289 119.628 5.59871V24.4186Z" fill="#331C54"/>
<path d="M102.204 23.8906V25.4746H109.889L112.236 23.463V17.7185L109.889 15.7069H108.54V17.2909H109.303L110.652 18.4471V22.7344L109.303 23.8906H105.108V17.2909H105.9V15.7069H102.204V17.2909H103.524V23.8906H102.204Z" fill="white"/>
<path d="M106.428 23.3626H108.012V14.387H113.82V12.803H108.012V12.1826C109.023 11.85 109.752 10.8996 109.752 9.77767C109.752 8.37852 108.619 7.246 107.22 7.246C105.821 7.246 104.689 8.37852 104.689 9.77767C104.689 10.8996 105.417 11.85 106.428 12.1826V12.803H100.62V14.387H106.428V23.3626ZM107.22 8.80355C107.756 8.80355 108.194 9.23913 108.194 9.77767C108.194 10.3162 107.759 10.7518 107.22 10.7518C106.682 10.7518 106.246 10.3162 106.246 9.77767C106.246 9.23913 106.682 8.80355 107.22 8.80355Z" fill="white"/>
<path d="M114.612 21.7629V23.9276C114.612 24.6826 114.417 25.0126 113.714 25.4719C113.255 25.7729 109.641 28.1013 108.012 29.152V26.0025H106.428V29.152C104.799 28.1013 101.188 25.7729 100.726 25.4719C100.024 25.0152 99.8285 24.6826 99.8285 23.9276V21.7629H98.2446V24.4292C98.2446 25.1525 98.3634 25.8283 99.3876 26.4883C100.412 27.1483 107.22 31.5464 107.22 31.5464C107.22 31.5464 114.029 27.1483 115.053 26.4883C116.077 25.8283 116.196 25.1525 116.196 24.4292V21.7629H114.612Z" fill="white"/>
<path d="M98.7726 3.5739V2.00844C99.2425 1.95036 99.715 1.89492 100.185 1.84476V2.18267C99.8655 2.21699 99.5461 2.25131 99.2266 2.29091V2.58394C99.4537 2.55754 99.6834 2.53114 99.9104 2.50474V2.76873C99.6834 2.79249 99.4537 2.81889 99.2266 2.84793V3.15944C99.5461 3.12248 99.8655 3.08552 100.185 3.0512V3.40759C99.7124 3.45775 99.2425 3.51055 98.7726 3.57126V3.5739Z" fill="#331C54"/>
<path d="M101.972 3.2967C101.634 3.3231 101.346 3.24655 101.117 3.12247C101.177 3.02479 101.238 2.92712 101.299 2.83208C101.518 2.94296 101.761 3.00367 101.98 2.98784C102.215 2.96936 102.31 2.88224 102.31 2.79248C102.31 2.52849 101.193 2.774 101.196 2.20642C101.196 1.92395 101.51 1.66788 101.975 1.63092C102.31 1.60452 102.558 1.69692 102.754 1.83156C102.685 1.91867 102.614 2.00315 102.545 2.09027C102.381 1.98995 102.165 1.92659 101.964 1.94243C101.756 1.95827 101.632 2.04011 101.632 2.1325C101.632 2.3833 102.756 2.16418 102.756 2.72384C102.756 3.03007 102.418 3.26503 101.972 3.29934V3.2967Z" fill="#331C54"/>
<path d="M104.591 1.87908V3.09344C104.438 3.09872 104.285 3.10664 104.132 3.11192V1.89756C103.939 1.90548 103.746 1.91604 103.553 1.9266V1.57549C104.092 1.54645 104.628 1.52269 105.166 1.50685V1.85796C104.974 1.86324 104.781 1.87116 104.591 1.87908Z" fill="#331C54"/>
<path d="M105.705 3.05908V2.72381C105.816 2.72381 105.927 2.71853 106.04 2.71589V3.05116C105.929 3.05116 105.818 3.05644 105.705 3.05908Z" fill="#331C54"/>
<path d="M108.11 3.0459V1.67314C108.252 1.67314 108.318 1.58603 108.318 1.48307C108.39 1.48307 108.461 1.48307 108.53 1.48571V3.05118C108.39 3.05118 108.25 3.0459 108.107 3.04326L108.11 3.0459Z" fill="#331C54"/>
<path d="M110.264 3.15943C109.979 3.14623 109.76 3.05911 109.575 2.91392C109.636 2.83208 109.697 2.75288 109.76 2.67105C109.902 2.774 110.074 2.84 110.24 2.84792C110.512 2.86112 110.636 2.70801 110.636 2.48097V2.39122C110.518 2.48889 110.38 2.54697 110.188 2.53905C109.805 2.52321 109.578 2.32258 109.578 2.05331V2.02163C109.578 1.71804 109.858 1.47253 110.29 1.49101C110.742 1.51213 111.046 1.81572 111.046 2.25658V2.43609C111.046 2.87696 110.747 3.18055 110.267 3.15679L110.264 3.15943ZM110.631 2.13251C110.631 1.97147 110.51 1.82892 110.283 1.81836C110.079 1.81044 109.963 1.89755 109.963 2.03747V2.06651C109.963 2.20642 110.069 2.3041 110.275 2.31202C110.433 2.31994 110.544 2.26978 110.634 2.1985V2.13515L110.631 2.13251Z" fill="#331C54"/>
<path d="M112.698 3.31255C112.413 3.2888 112.197 3.19376 112.009 3.04064C112.07 2.96145 112.131 2.88225 112.194 2.80569C112.334 2.91393 112.508 2.98785 112.672 3.00105C112.944 3.02216 113.065 2.87433 113.065 2.64994V2.56018C112.949 2.65258 112.809 2.70802 112.616 2.69218C112.233 2.6605 112.009 2.45458 112.009 2.18267V2.15099C112.009 1.84741 112.289 1.60981 112.722 1.64677C113.173 1.68373 113.474 1.99788 113.474 2.43874V2.6209C113.474 3.06176 113.176 3.35479 112.698 3.31519V3.31255ZM113.062 2.29883C113.062 2.1378 112.941 1.98996 112.714 1.97148C112.511 1.95564 112.395 2.03748 112.395 2.18003V2.20907C112.395 2.34899 112.5 2.4493 112.703 2.46514C112.862 2.47834 112.973 2.43347 113.06 2.36483V2.30147L113.062 2.29883Z" fill="#331C54"/>
<path d="M115.446 3.18052V3.54219C115.312 3.52635 115.174 3.51051 115.04 3.49467V3.133C114.757 3.10133 114.475 3.06965 114.192 3.04061V2.77134C114.483 2.49151 114.773 2.21168 115.061 1.93449C115.188 1.95033 115.317 1.96617 115.444 1.97936V2.88485C115.525 2.89541 115.61 2.90597 115.692 2.91653V3.21484C115.61 3.20428 115.525 3.19372 115.444 3.18316L115.446 3.18052ZM115.037 2.34895C114.889 2.49415 114.741 2.6367 114.594 2.7819C114.741 2.79774 114.889 2.81358 115.037 2.83206V2.34895Z" fill="#331C54"/>
<path d="M94.0207 39.9756H95.7446V40.5405H94.6463V40.8732H95.7129V41.4302H94.6463V42.2169H94.0207V39.9756Z" fill="#A5ACAF"/>
<path d="M97.8986 41.5463H97.4921V42.2169H96.8823V39.9756H98.0201C98.8226 39.9756 98.9572 40.3267 98.9572 40.7464C98.9572 41.0236 98.8886 41.3219 98.5243 41.4619L98.9335 42.2142H98.2629L97.8986 41.5437V41.5463ZM97.9963 41.0263C98.2392 41.0263 98.3237 40.9788 98.3237 40.7728C98.3237 40.5669 98.2445 40.5088 97.9937 40.5088H97.4921V41.0263H97.9963Z" fill="#A5ACAF"/>
<path d="M100.048 39.9756H101.832V40.5405H100.673V40.8124H101.801V41.3589H100.673V41.673H101.843V42.2142H100.048V39.9729V39.9756Z" fill="#A5ACAF"/>
<path d="M103.099 39.9756H103.92L104.422 41.3087L104.926 39.9756H105.742V42.2169H105.132V40.9154L104.631 42.2169H104.161L103.664 40.926V42.2169H103.099V39.9756Z" fill="#A5ACAF"/>
<path d="M107.566 39.9624H108.205L109.11 42.2195H108.461L108.347 41.9291H107.392L107.281 42.2195H106.671L107.569 39.9624H107.566ZM108.147 41.4117L107.87 40.6989L107.592 41.4117H108.149H108.147Z" fill="#A5ACAF"/>
<path d="M109.971 39.9756H110.642L111.515 41.1609V39.9756H112.115V42.2169H111.536L110.568 40.9075V42.2169H109.968V39.9756H109.971Z" fill="#A5ACAF"/>
<path d="M113.783 40.5405H113.039V39.9756H115.156V40.5405H114.411V42.2169H113.783V40.5405Z" fill="#A5ACAF"/>
<path d="M116.08 39.9756H116.705V41.6757H117.761V42.2169H116.08V39.9756Z" fill="#A5ACAF"/>
<path d="M118.622 39.9756H120.407V40.5405H119.248V40.8124H120.375V41.3589H119.248V41.673H120.417V42.2142H118.622V39.9729V39.9756Z" fill="#A5ACAF"/>
<path d="M122.088 48.2385L123.07 47.4201V45.353L122.181 44.4634H117.682V45.5854H118.469V48.9539H117.682V50.0758H119.591V48.2807H120.755L121.991 50.0758H123.408V48.9539H122.582L122.091 48.2385H122.088ZM121.716 45.5854L121.948 45.8177V46.8947L121.634 47.1587H119.593V45.588H121.719L121.716 45.5854Z" fill="white"/>
<path d="M85.309 44.4608V45.5827H86.0957V48.9512H85.309V50.0732H89.583L90.9215 48.7348V45.7992L89.583 44.4608H85.309ZM89.7995 48.2701L89.1184 48.9512H87.2177V45.5827H89.1184L89.7995 46.2638V48.2675V48.2701Z" fill="white"/>
<path d="M93.4717 44.4607L92.1332 45.7992V48.7321L93.4717 50.0706H95.9585L97.2969 48.7321V45.7965L95.9585 44.4581H93.4717V44.4607ZM96.1749 48.2701L95.4938 48.9512H93.9363L93.2552 48.2701V46.2638L93.9363 45.5827H95.4938L96.1749 46.2638V48.2675V48.2701Z" fill="white"/>
<path d="M129.132 46.2585V45.353L128.242 44.4608H125.309L124.417 45.353V46.9396L125.309 47.8293H127.777L128.01 48.0616V48.7189L127.777 48.9512H125.774L125.541 48.7189V48.2781H124.417V49.1836L125.309 50.0732H128.242L129.132 49.1836V47.597L128.242 46.7073H125.774L125.541 46.475V45.8177L125.774 45.5854H127.777L128.01 45.8177V46.2585H129.132Z" fill="white"/>
<path d="M99.781 44.4608L98.4426 45.8018V48.7348L99.781 50.0732H102.268L103.606 48.7348V47.9428H102.484V48.2701L101.803 48.9512H100.246L99.5645 48.2701V46.2665L100.246 45.5854H101.803L102.484 46.2665V46.5938H103.606V45.8018L102.268 44.4608H99.781Z" fill="white"/>
<path d="M110.275 45.5854V44.4608H109.161L106.571 46.7944V44.4608H104.662V45.5854H105.449V48.9512H104.683V50.0732H106.571V48.3045L107.3 47.6471L109.092 50.0732H110.275V48.9512H109.657L108.139 46.8921L109.591 45.5854H110.275Z" fill="white"/>
<path d="M111.397 45.5854H112.294V48.9512H111.397V50.0732H116.449V48.3916H115.325V48.9512H113.416V47.8293H115.214V46.7073H113.416V45.5854H115.325V46.145H116.449V44.4608H111.397V45.5854Z" fill="white"/>
</g>
<path d="M2.87695 68.2804C2.51766 68.2804 2.18508 68.2173 1.87921 68.091C1.57333 67.9599 1.30387 67.7779 1.07082 67.5448C0.842626 67.3118 0.665411 67.0399 0.539177 66.7292C0.412942 66.4184 0.349824 66.0834 0.349824 65.7241C0.349824 65.36 0.412942 65.025 0.539177 64.7191C0.665411 64.4084 0.842626 64.1365 1.07082 63.9034C1.29901 63.6704 1.56605 63.4907 1.87193 63.3645C2.18266 63.2334 2.51766 63.1679 2.87695 63.1679C3.23623 63.1679 3.56881 63.2334 3.87469 63.3645C4.18057 63.4907 4.4476 63.6704 4.67579 63.9034C4.90884 64.1365 5.08849 64.4084 5.21472 64.7191C5.34096 65.025 5.40407 65.36 5.40407 65.7241C5.40407 66.0834 5.34096 66.4184 5.21472 66.7292C5.08849 67.0399 4.90884 67.3118 4.67579 67.5448C4.4476 67.7779 4.18057 67.9599 3.87469 68.091C3.56881 68.2173 3.23623 68.2804 2.87695 68.2804ZM2.87695 67.2462C3.1634 67.2462 3.40859 67.1758 3.61251 67.035C3.82128 66.8942 3.97908 66.7073 4.08589 66.4743C4.19756 66.2412 4.25339 65.9863 4.25339 65.7096C4.25339 65.4328 4.19756 65.1803 4.08589 64.9522C3.97908 64.7191 3.82128 64.5346 3.61251 64.3987C3.40859 64.2579 3.1634 64.1875 2.87695 64.1875C2.59049 64.1875 2.34288 64.2579 2.13411 64.3987C1.93019 64.5346 1.77239 64.7191 1.66072 64.9522C1.54906 65.1803 1.49322 65.4328 1.49322 65.7096C1.49322 65.9863 1.54906 66.2412 1.66072 66.4743C1.77239 66.7073 1.93019 66.8942 2.13411 67.035C2.34288 67.1758 2.59049 67.2462 2.87695 67.2462ZM6.16484 68.1566V63.299H9.42752V64.2676H7.26454V65.3673H8.91045V66.3068H7.26454V68.1566H6.16484ZM10.0907 68.1566V63.299H13.3534V64.2676H11.1904V65.3673H12.8363V66.3068H11.1904V68.1566H10.0907ZM14.0166 68.1566V63.299H15.1163V68.1566H14.0166ZM19.699 66.5762L20.4491 67.2608C20.3132 67.4453 20.1384 67.6152 19.9247 67.7706C19.716 67.926 19.4805 68.0498 19.2183 68.142C18.9561 68.2343 18.6745 68.2804 18.3735 68.2804C17.8831 68.2804 17.4486 68.1711 17.0699 67.9527C16.696 67.7342 16.4023 67.4356 16.1887 67.0569C15.9799 66.6733 15.8755 66.2364 15.8755 65.746C15.8755 65.3867 15.9362 65.0517 16.0576 64.741C16.179 64.4254 16.3489 64.151 16.5674 63.918C16.7907 63.685 17.0553 63.5029 17.3612 63.3718C17.6719 63.2407 18.0142 63.1752 18.3881 63.1752C18.8347 63.1752 19.228 63.2577 19.5679 63.4228C19.9077 63.5878 20.1893 63.8258 20.4127 64.1365L19.6626 64.8575C19.5169 64.6536 19.3445 64.4909 19.1455 64.3695C18.9464 64.2433 18.7085 64.1802 18.4318 64.1802C18.1405 64.1802 17.888 64.2506 17.6744 64.3914C17.4656 64.5273 17.3029 64.7118 17.1864 64.9449C17.0747 65.1779 17.0189 65.4352 17.0189 65.7168C17.0189 66.0033 17.0747 66.2606 17.1864 66.4888C17.3029 66.717 17.4656 66.8991 17.6744 67.035C17.8831 67.1661 18.1283 67.2317 18.4099 67.2317C18.643 67.2317 18.8372 67.2001 18.9925 67.137C19.1479 67.0739 19.279 66.9938 19.3858 66.8967C19.4975 66.7947 19.6019 66.6879 19.699 66.5762ZM21.022 68.1566V63.299H22.1217V68.1566H21.022ZM22.6479 68.1566L24.4613 63.299H25.6775L27.4545 68.1566H26.2528L25.8814 67.0423H24.17L23.7986 68.1566H22.6479ZM24.4249 66.1902H25.6192L25.0293 64.355L24.4249 66.1902ZM27.9776 68.1566V63.299H29.0773V67.1807H31.4005V68.1566H27.9776ZM33.0192 67.472L33.7256 66.7073C33.8518 66.8433 34.0193 66.9768 34.2281 67.1079C34.4417 67.2389 34.6894 67.3045 34.971 67.3045C35.0826 67.3045 35.1919 67.2851 35.2987 67.2462C35.4055 67.2025 35.4929 67.1418 35.5609 67.0642C35.6337 66.9816 35.6701 66.8845 35.6701 66.7729C35.6701 66.5932 35.5827 66.4524 35.4079 66.3504C35.2331 66.2485 34.9564 66.1514 34.5777 66.0591C34.2087 65.9669 33.9028 65.8042 33.6601 65.5712C33.4173 65.3381 33.2959 65.0371 33.2959 64.6681C33.2959 64.3962 33.3615 64.1486 33.4926 63.9253C33.6236 63.6971 33.8203 63.515 34.0825 63.3791C34.3446 63.2383 34.6748 63.1679 35.0729 63.1679C35.4031 63.1679 35.6798 63.2116 35.9032 63.299C36.1313 63.3815 36.3134 63.4738 36.4494 63.5757C36.5853 63.6777 36.68 63.7602 36.7334 63.8233L36.0998 64.5225C35.993 64.4399 35.8522 64.3477 35.6774 64.2457C35.5026 64.1389 35.2963 64.0855 35.0584 64.0855C34.903 64.0855 34.7573 64.1316 34.6214 64.2239C34.4903 64.3113 34.4248 64.4181 34.4248 64.5443C34.4248 64.7094 34.5121 64.8429 34.6869 64.9449C34.8617 65.0468 35.102 65.1318 35.4079 65.1998C35.6458 65.258 35.874 65.3454 36.0925 65.4619C36.3158 65.5785 36.4979 65.7411 36.6387 65.9499C36.7795 66.1587 36.8499 66.4306 36.8499 66.7656C36.8499 67.0569 36.7674 67.3166 36.6023 67.5448C36.4372 67.773 36.2139 67.9527 35.9323 68.0838C35.6507 68.2148 35.3351 68.2804 34.9855 68.2804C34.6651 68.2804 34.3811 68.2415 34.1334 68.1639C33.8858 68.0862 33.6698 67.9866 33.4853 67.8653C33.3008 67.739 33.1454 67.6079 33.0192 67.472ZM37.6279 66.314V63.299H38.7348V66.1757C38.7348 66.4912 38.8028 66.7461 38.9388 66.9404C39.0796 67.1346 39.3223 67.2317 39.667 67.2317C40.0118 67.2317 40.2521 67.1346 40.388 66.9404C40.524 66.7461 40.592 66.4912 40.592 66.1757V63.299H41.7062V66.314C41.7062 66.7024 41.6213 67.0447 41.4513 67.3409C41.2862 67.6371 41.0508 67.8701 40.7449 68.0401C40.4439 68.2051 40.0846 68.2877 39.667 68.2877C39.2544 68.2877 38.8951 68.2051 38.5892 68.0401C38.2833 67.875 38.0454 67.6444 37.8755 67.3482C37.7104 67.0472 37.6279 66.7024 37.6279 66.314ZM42.6143 68.1566V63.299H44.384C44.787 63.299 45.1123 63.3742 45.3599 63.5247C45.6124 63.6704 45.7969 63.8622 45.9134 64.1001C46.0299 64.338 46.0882 64.5929 46.0882 64.8648C46.0882 65.2095 46.0105 65.5008 45.8551 65.7387C45.6998 65.9717 45.4958 66.149 45.2434 66.2703C44.9958 66.3869 44.7263 66.4451 44.435 66.4451H43.6849V68.1566H42.6143ZM43.6849 65.5566H44.3257C44.5248 65.5566 44.685 65.4935 44.8064 65.3673C44.9278 65.241 44.9885 65.0808 44.9885 64.8866C44.9885 64.6827 44.9278 64.5176 44.8064 64.3914C44.685 64.2603 44.5224 64.1947 44.3185 64.1947H43.6849V65.5566ZM46.8246 68.1566V63.299H50.1456V64.2603H47.9243V65.2071H49.6504V66.1392H47.9243V67.188H50.3058V68.1566H46.8246ZM51.0492 68.1566V63.299H52.8554C53.2341 63.299 53.5496 63.3694 53.8021 63.5102C54.0546 63.6461 54.2439 63.8306 54.3702 64.0637C54.4964 64.2918 54.5595 64.5443 54.5595 64.8211C54.5595 65.1318 54.4891 65.4061 54.3483 65.644C54.2124 65.8819 54.0182 66.0713 53.7657 66.2121L54.8436 68.1566H53.6346L52.7316 66.3723H52.1198V68.1566H51.0492ZM52.1198 65.4911H52.7971C53.001 65.4911 53.1612 65.4304 53.2778 65.309C53.3943 65.1876 53.4525 65.0347 53.4525 64.8502C53.4525 64.6511 53.3919 64.4933 53.2705 64.3768C53.154 64.2603 52.9962 64.202 52.7971 64.202H52.1198V65.4911ZM55.0505 68.1566L56.864 63.299H58.0802L59.8572 68.1566H58.6555L58.2841 67.0423H56.5726L56.2012 68.1566H55.0505ZM56.8275 66.1902H58.0219L57.432 64.355L56.8275 66.1902ZM60.3803 68.1566V63.299H61.429L63.5337 66.4524V63.299H64.6189V68.1566H63.6211L61.4654 64.9449V68.1566H60.3803ZM65.565 68.1566V63.299H66.6137L68.7184 66.4524V63.299H69.8036V68.1566H68.8058L66.6501 64.9449V68.1566H65.565ZM70.7133 66.314V63.299H71.8203V66.1757C71.8203 66.4912 71.8883 66.7461 72.0242 66.9404C72.165 67.1346 72.4078 67.2317 72.7525 67.2317C73.0972 67.2317 73.3375 67.1346 73.4735 66.9404C73.6094 66.7461 73.6774 66.4912 73.6774 66.1757V63.299H74.7917V66.314C74.7917 66.7024 74.7067 67.0447 74.5368 67.3409C74.3717 67.6371 74.1362 67.8701 73.8303 68.0401C73.5293 68.2051 73.17 68.2877 72.7525 68.2877C72.3398 68.2877 71.9805 68.2051 71.6746 68.0401C71.3688 67.875 71.1308 67.6444 70.9609 67.3482C70.7958 67.0472 70.7133 66.7024 70.7133 66.314ZM75.0569 68.1566L76.8703 63.299H78.0865L79.8635 68.1566H78.6618L78.2904 67.0423H76.579L76.2075 68.1566H75.0569ZM76.8339 66.1902H78.0282L77.4383 64.355L76.8339 66.1902ZM80.8498 68.1566V64.2676H79.2767V63.299H83.5226V64.2676H81.9568V68.1566H80.8498ZM84.1489 68.1566V63.299H85.2486V68.1566H84.1489ZM88.5349 68.2804C88.1757 68.2804 87.8431 68.2173 87.5372 68.091C87.2313 67.9599 86.9619 67.7779 86.7288 67.5448C86.5006 67.3118 86.3234 67.0399 86.1972 66.7292C86.0709 66.4184 86.0078 66.0834 86.0078 65.7241C86.0078 65.36 86.0709 65.025 86.1972 64.7191C86.3234 64.4084 86.5006 64.1365 86.7288 63.9034C86.957 63.6704 87.224 63.4907 87.5299 63.3645C87.8407 63.2334 88.1757 63.1679 88.5349 63.1679C88.8942 63.1679 89.2268 63.2334 89.5327 63.3645C89.8386 63.4907 90.1056 63.6704 90.3338 63.9034C90.5668 64.1365 90.7465 64.4084 90.8727 64.7191C90.999 65.025 91.0621 65.36 91.0621 65.7241C91.0621 66.0834 90.999 66.4184 90.8727 66.7292C90.7465 67.0399 90.5668 67.3118 90.3338 67.5448C90.1056 67.7779 89.8386 67.9599 89.5327 68.091C89.2268 68.2173 88.8942 68.2804 88.5349 68.2804ZM88.5349 67.2462C88.8214 67.2462 89.0666 67.1758 89.2705 67.035C89.4793 66.8942 89.6371 66.7073 89.7439 66.4743C89.8556 66.2412 89.9114 65.9863 89.9114 65.7096C89.9114 65.4328 89.8556 65.1803 89.7439 64.9522C89.6371 64.7191 89.4793 64.5346 89.2705 64.3987C89.0666 64.2579 88.8214 64.1875 88.5349 64.1875C88.2485 64.1875 88.0009 64.2579 87.7921 64.3987C87.5882 64.5346 87.4304 64.7191 87.3187 64.9522C87.2071 65.1803 87.1512 65.4328 87.1512 65.7096C87.1512 65.9863 87.2071 66.2412 87.3187 66.4743C87.4304 66.7073 87.5882 66.8942 87.7921 67.035C88.0009 67.1758 88.2485 67.2462 88.5349 67.2462ZM91.8228 68.1566V63.299H92.8715L94.9763 66.4524V63.299H96.0614V68.1566H95.0637L92.908 64.9449V68.1566H91.8228ZM98.3233 68.1566V63.299H100.093C100.496 63.299 100.821 63.3742 101.069 63.5247C101.321 63.6704 101.506 63.8622 101.622 64.1001C101.739 64.338 101.797 64.5929 101.797 64.8648C101.797 65.2095 101.719 65.5008 101.564 65.7387C101.409 65.9717 101.205 66.149 100.952 66.2703C100.705 66.3869 100.435 66.4451 100.144 66.4451H99.3938V68.1566H98.3233ZM99.3938 65.5566H100.035C100.234 65.5566 100.394 65.4935 100.515 65.3673C100.637 65.241 100.697 65.0808 100.697 64.8866C100.697 64.6827 100.637 64.5176 100.515 64.3914C100.394 64.2603 100.231 64.1947 100.027 64.1947H99.3938V65.5566ZM101.492 68.1566L103.306 63.299H104.522L106.299 68.1566H105.097L104.726 67.0423H103.015L102.643 68.1566H101.492ZM103.269 66.1902H104.464L103.874 64.355L103.269 66.1902ZM106.822 68.1566V63.299H108.628C109.007 63.299 109.323 63.3694 109.575 63.5102C109.828 63.6461 110.017 63.8306 110.143 64.0637C110.269 64.2918 110.333 64.5443 110.333 64.8211C110.333 65.1318 110.262 65.4061 110.121 65.644C109.985 65.8819 109.791 66.0713 109.539 66.2121L110.617 68.1566H109.408L108.505 66.3723H107.893V68.1566H106.822ZM107.893 65.4911H108.57C108.774 65.4911 108.934 65.4304 109.051 65.309C109.167 65.1876 109.226 65.0347 109.226 64.8502C109.226 64.6511 109.165 64.4933 109.043 64.3768C108.927 64.2603 108.769 64.202 108.57 64.202H107.893V65.4911ZM112.356 68.1566V64.2676H110.783V63.299H115.029V64.2676H113.463V68.1566H112.356ZM115.655 68.1566V63.299H116.704L118.809 66.4524V63.299H119.894V68.1566H118.896L116.741 64.9449V68.1566H115.655ZM120.84 68.1566V63.299H124.161V64.2603H121.94V65.2071H123.666V66.1392H121.94V67.188H124.321V68.1566H120.84ZM125.065 68.1566V63.299H126.871C127.25 63.299 127.565 63.3694 127.818 63.5102C128.07 63.6461 128.259 63.8306 128.386 64.0637C128.512 64.2918 128.575 64.5443 128.575 64.8211C128.575 65.1318 128.505 65.4061 128.364 65.644C128.228 65.8819 128.034 66.0713 127.781 66.2121L128.859 68.1566H127.65L126.747 66.3723H126.135V68.1566H125.065ZM126.135 65.4911H126.813C127.017 65.4911 127.177 65.4304 127.293 65.309C127.41 65.1876 127.468 65.0347 127.468 64.8502C127.468 64.6511 127.407 64.4933 127.286 64.3768C127.169 64.2603 127.012 64.202 126.813 64.202H126.135V65.4911Z" fill="white"/>
<defs>
<clipPath id="clip0_18091_282026">
<rect width="43.8225" height="50.0104" fill="white" transform="translate(85.309 0.0628052)"/>
</clipPath>
</defs>
</svg>
