<svg width="208" height="208" viewBox="0 0 208 208" fill="none" xmlns="http://www.w3.org/2000/svg">
<g clip-path="url(#clip0_15201_10479)">
<path d="M207.279 105.002C207.279 161.486 161.486 207.279 105.002 207.279C48.5188 207.279 2.7063 161.486 2.7063 105.002V5.02844C2.7063 3.72335 3.7235 2.72534 5.0094 2.72534H104.983C161.467 2.72534 207.26 48.5187 207.26 105.002H207.279Z" fill="#816E15"/>
<path d="M203.997 102.776C203.575 158.492 158.492 203.575 102.795 203.978C46.2732 204.4 0.0192871 157.609 0.0192871 101.068V2.34149C0.0192871 1.05559 1.07487 0 2.36077 0H101.106C157.628 0 204.439 46.2539 204.016 102.776H203.997Z" fill="url(#paint0_radial_15201_10479)"/>
<path d="M102.008 201.656C75.5035 201.656 50.4957 191.119 31.5911 172.003C12.7248 152.926 2.32251 127.745 2.32251 101.106V4.49087C2.32251 3.30093 3.28213 2.34131 4.47207 2.34131H101.068C128.072 2.34131 153.483 12.974 172.656 32.2816C191.541 51.3014 201.829 76.3284 201.637 102.757C201.445 129.089 191.081 153.828 172.445 172.464C153.828 191.08 129.07 201.444 102.738 201.656H101.989H102.008Z" fill="url(#paint1_linear_15201_10479)"/>
<path d="M102.008 199.295C76.1368 199.295 51.7239 189.008 33.2607 170.334C14.8359 151.698 4.68311 127.093 4.68311 101.087V6.19916C4.68311 5.37389 5.35484 4.70215 6.18012 4.70215H101.087C127.458 4.70215 152.293 15.0853 171.005 33.9515C189.449 52.5299 199.487 76.962 199.295 102.757C199.103 128.455 188.989 152.638 170.794 170.813C152.619 188.989 128.436 199.122 102.738 199.314H102.008V199.295Z" fill="url(#paint2_linear_15201_10479)"/>
<path d="M102.008 196.665C89.2837 196.665 76.9045 194.113 65.2163 189.084C53.9503 184.229 43.8358 177.3 35.1032 168.491C26.3899 159.681 19.5573 149.471 14.7784 138.109C9.82672 126.363 7.3125 113.926 7.3125 101.144V7.92617C7.3125 7.5999 7.58119 7.31201 7.92666 7.31201H101.145C114.08 7.31201 126.652 9.88381 138.532 14.9506C150.009 19.8447 160.315 26.85 169.144 35.7361C177.857 44.5071 184.67 54.6599 189.392 65.9259C194.305 77.6142 196.743 89.9933 196.666 102.699C196.57 115.347 194.017 127.611 189.104 139.145C184.344 150.296 177.569 160.315 168.952 168.932C160.334 177.55 150.316 184.325 139.165 189.084C127.63 194.017 115.366 196.55 102.718 196.646C102.488 196.646 102.239 196.646 102.008 196.646V196.665Z" fill="url(#paint3_linear_15201_10479)"/>
<path d="M101.145 7.61923C114.042 7.61923 126.575 10.191 138.417 15.2387C144.098 17.6761 149.587 20.6701 154.73 24.1632C159.816 27.6178 164.595 31.5907 168.933 35.9666C177.608 44.7184 184.402 54.8328 189.123 66.0604C194.017 77.7103 196.455 90.0511 196.359 102.718C196.263 115.328 193.729 127.553 188.816 139.05C184.076 150.162 177.301 160.142 168.722 168.74C160.143 177.339 150.143 184.075 139.031 188.835C127.534 193.748 115.309 196.282 102.699 196.378C102.469 196.378 102.22 196.378 101.989 196.378C89.3029 196.378 76.9622 193.844 65.3123 188.816C54.0847 183.979 43.9894 177.07 35.2952 168.28C26.6202 159.509 19.8069 149.318 15.0279 137.994C10.0955 126.267 7.58124 113.869 7.58124 101.144V7.92631C7.58124 7.75358 7.71559 7.61923 7.88832 7.61923H101.106M101.145 7.04346H7.92671C7.4277 7.04346 7.02466 7.4465 7.02466 7.9455V101.164C7.02466 153.559 49.6896 196.973 102.008 196.973C154.327 196.973 102.488 196.973 102.719 196.973C154.596 196.589 196.57 154.615 196.954 102.737C197.357 50.1114 153.771 7.04346 101.145 7.04346Z" fill="#0044A9"/>
<path d="M10.4217 104.695V11.4771C10.4217 10.9781 10.8248 10.575 11.3238 10.575H104.542C130.874 10.575 154.941 21.3612 172.368 38.7304C154.749 19.2884 129.243 7.02441 101.164 7.02441H7.92671C7.4277 7.02441 7.02466 7.42746 7.02466 7.92646V101.144C7.02466 127.553 17.8684 151.678 35.3144 169.124C19.8453 152.024 10.4025 129.357 10.4025 104.695H10.4217Z" fill="#0047CD"/>
<g filter="url(#filter0_d_15201_10479)">
<path d="M75.7148 131.488H71.147L70.4176 133.445H67.5771L71.9531 121.776H74.8895L79.2654 133.445H76.4441L75.7148 131.488ZM74.7935 128.974L73.4309 125.289L72.0682 128.974H74.7935Z" fill="white"/>
<path d="M94.1395 121.776L90.8768 133.445H88.1323L86.0978 125.672L84.121 133.445H81.3765L78.1138 121.776H80.9735L82.8735 129.377L84.812 121.776H87.5373L89.4374 129.165L91.3182 121.776H94.1779H94.1395Z" fill="white"/>
<path d="M101.106 131.488H96.5386L95.8092 133.445H92.9688L97.3446 121.776H100.281L104.657 133.445H101.836L101.106 131.488ZM100.204 128.974L98.8417 125.289L97.479 128.974H100.204Z" fill="white"/>
<path d="M105.751 121.776H110.453C112.795 121.776 114.292 123.369 114.292 125.365C114.292 127.361 113.466 128.302 112.296 128.858L114.829 133.465H111.816L109.609 129.3H108.534V133.465H105.77V121.796L105.751 121.776ZM110.108 126.862C111.182 126.862 111.528 126.114 111.528 125.576C111.528 125.039 111.202 124.271 110.127 124.271H108.515V126.862H110.108Z" fill="white"/>
<path d="M116.153 121.776H120.644C123.754 121.776 126.076 123.907 126.076 127.63C126.076 131.353 123.216 133.445 120.568 133.445H116.173V121.776H116.153ZM120.491 130.95C122.583 130.95 123.293 129.242 123.293 127.611C123.293 125.98 122.64 124.271 120.356 124.271H118.898V130.931H120.491V130.95Z" fill="white"/>
<path d="M127.074 130.375L129.665 129.626C130.01 130.624 130.433 131.161 131.623 131.161C132.813 131.161 133.331 130.739 133.331 129.991C133.331 129.242 132.563 128.974 131.565 128.801C128.648 128.283 127.343 127.093 127.343 125.135C127.343 123.177 128.936 121.527 131.623 121.527C134.31 121.527 135.346 122.678 135.826 124.674L133.235 125.404C132.928 124.425 132.544 124.022 131.623 124.022C130.701 124.022 130.106 124.329 130.106 125.135C130.106 125.941 130.778 125.96 132.026 126.21C134.847 126.786 136.094 127.956 136.094 129.972C136.094 131.987 134.118 133.637 131.603 133.637C129.089 133.637 127.611 132.428 127.074 130.355V130.375Z" fill="white"/>
</g>
<g filter="url(#filter1_d_15201_10479)">
<path d="M51.9927 88.4392L47.2905 114.944H53.8736L55.5817 105.175H64.8709L65.9073 99.3789H56.6181L57.4818 94.4273H66.8093L67.8649 88.4392H51.9543H51.9927Z" fill="white"/>
<path d="M73.3923 93.8322C74.3327 93.8322 75.1772 93.4675 75.8873 92.719C76.5974 91.9897 76.9429 91.1836 76.9429 90.3008C76.9429 89.4179 76.6358 88.6694 76.0408 88.036C75.4267 87.4027 74.6782 87.0764 73.7761 87.0764C72.8741 87.0764 71.9912 87.4411 71.2811 88.132C70.5518 88.8421 70.2063 89.6866 70.2063 90.627C70.2063 91.5675 70.5134 92.2584 71.1083 92.8726C71.7225 93.4867 72.4902 93.813 73.4115 93.813L73.3923 93.8322Z" fill="white"/>
<path d="M69.4194 95.5596L66.0032 114.944H72.5094L75.9257 95.5596H69.4194Z" fill="white"/>
<path d="M94.4656 96.5958C93.4484 95.5786 91.8938 95.0413 89.8402 95.0413C87.7866 95.0413 86.0401 95.7706 84.428 97.2484L84.0633 95.5595H78.747L75.3115 114.944H81.8178L83.6411 104.753C84.0441 102.334 85.1765 101.144 87.0765 101.144C88.9766 101.144 89.2261 101.893 89.2261 103.448C89.2261 105.002 89.1877 104.234 89.1109 104.714L87.3068 114.944H93.8131L95.6748 104.446C95.8859 103.256 95.9818 102.2 95.9818 101.317C95.9818 99.206 95.4637 97.6131 94.4273 96.5958H94.4656Z" fill="white"/>
<path d="M115.078 88.4392L113.524 96.9991C113.159 96.5768 112.641 96.1546 111.95 95.7899C111.067 95.2909 109.992 95.0606 108.783 95.0606C106.711 95.0606 104.791 95.6172 103.083 96.7304C101.375 97.8435 100.012 99.3214 99.0144 101.145C98.0163 102.968 97.5173 104.926 97.5173 106.96C97.5173 108.994 97.882 110.127 98.6305 111.413C99.3598 112.718 100.377 113.716 101.625 114.407C102.872 115.098 104.235 115.462 105.713 115.462C107.19 115.462 109.609 114.714 111.163 113.255L111.605 114.944H116.921L121.623 88.4392H115.117H115.078ZM109.858 108.822C109.129 109.321 108.304 109.57 107.401 109.57C106.499 109.57 105.636 109.263 105.022 108.63C104.407 108.016 104.081 107.19 104.081 106.173C104.081 105.156 104.311 104.331 104.772 103.544C105.233 102.757 105.866 102.104 106.615 101.663C107.363 101.202 108.15 100.972 108.956 100.972C109.762 100.972 110.664 101.279 111.259 101.874C111.854 102.488 112.161 103.313 112.161 104.311C112.161 105.309 111.95 106.02 111.547 106.845C111.144 107.651 110.568 108.323 109.839 108.822H109.858Z" fill="white"/>
<path d="M133.215 107.996L133.139 108.131C132.851 108.591 132.39 109.052 131.757 109.493C131.143 109.915 130.337 110.127 129.377 110.127C128.417 110.127 127.534 109.839 126.94 109.263C126.345 108.687 126.037 108.054 125.999 107.305H139.088L139.453 105.252C139.587 104.599 139.645 103.831 139.645 102.968C139.645 100.607 138.954 98.6878 137.553 97.2292C136.171 95.7706 134.213 95.0413 131.757 95.0413C129.3 95.0413 127.477 95.6362 125.692 96.8262C123.926 98.0161 122.525 99.5515 121.546 101.413C120.568 103.275 120.069 105.213 120.069 107.171C120.069 109.129 120.452 110.318 121.239 111.566C122.026 112.814 123.063 113.773 124.368 114.445C125.673 115.117 127.131 115.462 128.686 115.462C130.951 115.462 132.889 114.963 134.425 113.984C135.883 113.044 137.092 111.72 138.071 110.031L133.196 107.977L133.215 107.996ZM128.341 101.106C129.089 100.511 130.049 100.204 131.162 100.204C132.275 100.204 133.043 100.511 133.484 101.106C133.945 101.72 134.175 102.334 134.175 102.968V103.064H126.786C127.131 102.296 127.65 101.624 128.341 101.106Z" fill="white"/>
<path d="M156.554 95.9433C155.747 95.3483 154.711 95.0413 153.483 95.0413C152.254 95.0413 151.448 95.2908 150.623 95.7898C149.932 96.212 149.337 96.711 148.838 97.2676L148.378 95.5403H143.061L139.626 114.925H146.132L147.955 104.733C148.166 103.505 148.608 102.603 149.28 102.008C149.932 101.432 150.738 101.125 151.659 101.125C152.581 101.125 153.003 101.298 153.444 101.643L153.636 101.797L156.707 96.0393L156.573 95.9433H156.554Z" fill="white"/>
</g>
<path d="M94.9649 56.3107H81.9907V69.2848C81.9907 76.4244 87.806 82.2398 94.9649 82.2398C102.124 82.2398 107.939 76.4245 107.939 69.2656C107.939 62.1068 102.124 56.2915 94.9649 56.2915V56.3107ZM100.857 77.2689C97.7862 77.2689 95.3103 73.6799 95.3103 69.2848C95.3103 64.8898 95.3871 67.807 95.5214 67.1161C95.8285 67.2312 96.1356 67.2888 96.4619 67.2888C97.9973 67.2888 99.2448 66.0413 99.2448 64.5059C99.2448 62.9705 98.8034 62.817 98.1508 62.318C98.9569 61.6846 99.8589 61.3008 100.857 61.3008C103.928 61.3008 106.404 64.8706 106.404 69.2848C106.404 73.6991 103.928 77.2689 100.857 77.2689Z" fill="white"/>
<path d="M111.989 56.3108H101.605C106.327 58.729 109.551 63.6231 109.551 69.2849C109.551 74.9467 107.689 77.3842 104.772 80.0519C106.903 81.4914 109.378 82.2591 111.989 82.2591C119.147 82.2591 124.963 76.4437 124.963 69.2849C124.963 62.1261 119.147 56.3108 111.989 56.3108ZM117.881 77.269C114.81 77.269 112.334 73.68 112.334 69.2849C112.334 64.8898 112.411 67.8071 112.545 67.1162C112.852 67.2313 113.159 67.2889 113.486 67.2889C115.021 67.2889 116.269 66.0414 116.269 64.506C116.269 62.9706 115.827 62.8171 115.175 62.318C115.981 61.6847 116.883 61.3008 117.881 61.3008C120.952 61.3008 123.427 64.8707 123.427 69.2849C123.427 73.6992 120.952 77.269 117.881 77.269Z" fill="white"/>
<g filter="url(#filter2_d_15201_10479)">
<path d="M78.5937 152.811L83.6797 148.493C85.0424 147.341 85.2535 146.804 85.2535 145.94C85.2535 145.076 84.601 144.289 83.4878 144.289C82.3746 144.289 81.4918 145.211 81.5301 146.573L78.2866 145.69C78.4785 142.907 80.6089 141.027 83.507 141.027C86.405 141.027 88.7849 143.08 88.7849 145.882C88.7849 148.684 87.8637 149.318 86.1939 150.738L83.6989 152.83H88.7849V156.093H78.6129V152.83L78.5937 152.811Z" fill="white"/>
<path d="M90.2434 148.665C90.2434 144.27 92.0859 140.988 95.9244 140.988C99.7629 140.988 101.586 144.289 101.586 148.665C101.586 153.041 99.7437 156.342 95.982 156.342C92.2202 156.342 90.2626 153.08 90.2626 148.665H90.2434ZM98.0739 148.665C98.0739 145.921 97.4022 144.251 95.9244 144.251C94.4466 144.251 93.7556 145.921 93.7556 148.665C93.7556 151.41 94.4082 153.08 95.9628 153.08C97.5174 153.08 98.0739 151.448 98.0739 148.665Z" fill="white"/>
<path d="M103.371 152.811L108.457 148.493C109.82 147.341 110.031 146.804 110.031 145.94C110.031 145.076 109.379 144.289 108.265 144.289C107.152 144.289 106.269 145.211 106.308 146.573L103.064 145.69C103.256 142.907 105.387 141.027 108.285 141.027C111.183 141.027 113.563 143.08 113.563 145.882C113.563 148.684 112.641 149.318 110.972 150.738L108.476 152.83H113.563V156.093H103.39V152.83L103.371 152.811Z" fill="white"/>
<path d="M115.021 152.043L118.245 151.103C118.226 152.389 119.109 153.099 120.241 153.099C121.374 153.099 122.18 152.369 122.199 151.179C122.18 149.989 121.297 149.279 120.241 149.279C119.186 149.279 118.84 149.567 118.476 150.066L115.501 148.972L116.23 141.314H124.656V144.616H119.282L119.09 146.535C119.339 146.439 119.915 146.305 120.568 146.305C123.542 146.305 125.692 148.07 125.711 151.179C125.692 154.423 123.389 156.4 120.241 156.4C117.094 156.4 115.002 154.481 115.002 152.081L115.021 152.043Z" fill="white"/>
</g>
<path d="M47.3865 153.885L49.4017 155.862C50.5341 156.975 50.5533 158.127 49.7088 158.991C49.1139 159.605 48.4805 159.605 47.9239 159.432C48.1926 159.97 48.3078 160.776 47.5785 161.524C46.6188 162.503 45.2753 162.349 44.2006 161.275L42.147 159.259L47.4249 153.885H47.3865ZM45.1026 160.277C45.64 160.814 46.139 160.737 46.4845 160.373C46.8683 159.989 46.9259 159.49 46.3885 158.972L45.4481 158.05L44.1622 159.355L45.1026 160.277ZM47.2138 157.993C47.6744 158.453 48.135 158.434 48.4997 158.05C48.8835 157.647 48.826 157.206 48.4037 156.784L47.5401 155.939L46.3501 157.148L47.2138 157.993Z" fill="white"/>
<path d="M51.6091 165.842L49.2868 163.942L47.9241 164.748L46.6958 163.731L53.6627 159.701L54.9102 160.737L52.3192 168.337L51.0909 167.339L51.6091 165.842ZM52.0889 164.441L53.0101 161.754L50.5727 163.194L52.0889 164.441Z" fill="white"/>
<path d="M57.7506 162.944L59.0365 163.827L55.5818 168.856L58.1728 170.621L57.3667 171.792L53.509 169.144L57.7698 162.944H57.7506Z" fill="white"/>
<path d="M63.6042 173.711L60.9941 172.253L59.7849 173.27L58.4031 172.483L64.5447 167.301L65.9649 168.088L64.7366 176.034L63.3547 175.266L63.6042 173.711ZM63.8346 172.253L64.276 169.451L62.1264 171.293L63.8346 172.253Z" fill="white"/>
<path d="M69.0932 169.796L70.5519 170.43L71.5499 176.302L73.5459 171.735L74.9662 172.349L71.9721 179.258L70.5135 178.625L69.5155 172.771L67.5387 177.339L66.1184 176.725L69.1124 169.815L69.0932 169.796Z" fill="white"/>
<path d="M74.8126 176.302C75.5035 174.114 77.442 173.04 79.534 173.692C81.031 174.172 82.0482 175.266 82.0674 176.955H80.4936C80.5128 176.168 80.1673 175.419 79.1117 175.074C77.8834 174.69 76.6935 175.439 76.2712 176.782C75.8298 178.202 76.4631 179.431 77.6531 179.815C78.6895 180.141 79.3804 179.719 79.7643 179.181L81.031 180.083C80.0713 181.254 78.8046 181.676 77.1925 181.177C75.1389 180.525 74.0641 178.625 74.7934 176.322L74.8126 176.302Z" fill="white"/>
<path d="M83.6988 175.074L88.4009 176.091L88.1131 177.454L84.9271 176.763L84.5816 178.394L87.3262 178.989L87.0383 180.314L84.2938 179.719L83.9291 181.388L87.1151 182.079L86.8272 183.442L82.125 182.425L83.718 175.074H83.6988Z" fill="white"/>
<path d="M89.4565 176.302L92.1818 176.648C94.3889 176.936 95.5213 178.605 95.2526 180.832C94.9647 183.173 93.1606 184.363 91.2222 184.114L88.4968 183.768L89.4373 176.302H89.4565ZM91.3757 182.713C92.9111 182.904 93.5828 181.772 93.7172 180.621C93.8707 179.373 93.5445 178.222 91.8747 178.01L90.8191 177.876L90.2242 182.559L91.3757 182.713Z" fill="white"/>
<path d="M99.5326 182.847L100.972 182.405C101.222 183.154 101.586 183.538 102.45 183.538C103.218 183.538 103.717 183.211 103.717 182.597C103.717 182.098 103.314 181.849 102.392 181.695C100.588 181.407 99.6862 180.697 99.667 179.431C99.6478 178.125 100.703 177.127 102.335 177.108C103.717 177.089 104.695 177.818 105.041 179.104L103.601 179.527C103.39 178.816 103.064 178.49 102.354 178.49C101.682 178.49 101.202 178.778 101.202 179.392C101.202 179.872 101.701 180.045 102.623 180.237C104.408 180.582 105.214 181.273 105.233 182.578C105.252 183.979 104.024 184.9 102.45 184.939C100.953 184.958 99.8973 184.21 99.5134 182.866L99.5326 182.847Z" fill="white"/>
<path d="M106.711 181.657L106.288 177.204L107.824 177.051L108.246 181.427C108.361 182.655 108.899 183.212 109.935 183.116C110.99 183.02 111.355 182.329 111.24 181.139L110.818 176.763L112.353 176.609L112.775 181.062C113.006 183.404 111.681 184.382 110.05 184.536C108.476 184.689 106.922 183.979 106.691 181.638L106.711 181.657Z" fill="white"/>
<path d="M113.697 176.418L116.48 175.88C117.727 175.65 119.147 176.015 119.474 177.799C119.8 179.508 118.648 180.467 117.478 180.678L116.134 180.928L116.614 183.5L115.098 183.788L113.697 176.398V176.418ZM117.036 179.354C117.9 179.181 118.053 178.586 117.958 178.087C117.862 177.608 117.459 177.128 116.614 177.281L115.482 177.492L115.885 179.565L117.036 179.354Z" fill="white"/>
<path d="M119.992 175.151L124.636 173.865L125.001 175.208L121.854 176.091L122.295 177.703L125.001 176.955L125.366 178.26L122.66 179.009L123.12 180.659L126.268 179.776L126.632 181.12L121.988 182.406L119.973 175.151H119.992Z" fill="white"/>
<path d="M125.654 173.539L128.36 172.541C129.818 172.003 131.028 172.637 131.45 173.807C131.872 174.921 131.546 175.803 130.912 176.36L133.58 178.625L131.987 179.22L129.569 177.108L128.725 177.416L129.703 180.064L128.245 180.601L125.635 173.539H125.654ZM129.396 175.727C130.087 175.477 130.241 174.921 130.068 174.441C129.876 173.923 129.396 173.635 128.725 173.903L127.611 174.326L128.283 176.168L129.396 175.746V175.727Z" fill="white"/>
<path d="M134.712 169.854L138.973 167.627L139.626 168.875L136.747 170.372L137.591 172.003L140.105 170.698L140.739 171.907L138.225 173.212L139.568 175.803L138.186 176.513L134.712 169.834V169.854Z" fill="white"/>
<path d="M142.313 170.89L139.914 167.128L141.219 166.303L143.579 170.007C144.251 171.044 144.961 171.293 145.844 170.737C146.727 170.161 146.746 169.374 146.113 168.376L143.752 164.672L145.057 163.846L147.475 167.627C148.742 169.604 148.013 171.063 146.631 171.965C145.287 172.829 143.599 172.905 142.332 170.909L142.313 170.89Z" fill="white"/>
<path d="M146.151 163.059L147.399 162.081L153.041 163.981L149.951 160.065L151.16 159.106L155.824 164.998L154.577 165.977L148.934 164.096L152.024 167.992L150.815 168.951L146.151 163.059Z" fill="white"/>
<path d="M152.159 158.204L154.135 156.284C155.728 154.73 157.763 154.903 159.317 156.515C160.968 158.223 160.757 160.353 159.356 161.716L157.379 163.616L152.139 158.204H152.159ZM158.358 160.718C159.471 159.643 158.991 158.415 158.185 157.57C157.302 156.668 156.208 156.208 154.999 157.378L154.231 158.127L157.513 161.524L158.339 160.718H158.358Z" fill="white"/>
<path d="M71.3197 23.1074L74.7743 39.4978L71.3965 41.2635L63.9306 33.0491L66.464 43.8353L63.0861 45.601L51.6282 33.3946L55.1212 31.5713L62.2992 39.6706L59.8042 29.1147L63.1437 27.3682L70.1873 35.1987L67.7691 24.9499L71.2621 23.1266L71.3197 23.1074Z" fill="white"/>
<path d="M75.1772 22.4358L78.8622 21.4377L83.0846 37.0029L79.3996 38.0009L75.1772 22.4358Z" fill="white"/>
<path d="M84.5242 19.8833L88.3819 19.3651L95.8861 28.2704L94.6002 18.5398L98.3812 18.0408L100.512 34.0281L96.673 34.5463L89.1496 25.6794L90.4355 35.3908L86.6545 35.8898L84.5242 19.9024V19.8833Z" fill="white"/>
<path d="M105.521 18.1943L109.398 18.6166L114.56 29.0381L115.616 19.2883L119.416 19.6914L117.67 35.7171L113.831 35.2949L108.63 24.8925L107.574 34.6231L103.774 34.2201L105.521 18.1943Z" fill="white"/>
<path d="M126.613 21.5146L136.382 25.3723L135.115 28.5775L128.897 26.1209L127.842 28.827L133.119 30.8998L131.891 34.009L126.613 31.9362L125.519 34.6999L131.738 37.1565L130.471 40.3617L120.702 36.504L126.613 21.5146Z" fill="white"/>
<path d="M141.814 27.6562L147.399 30.9766C150.182 32.6463 150.815 35.5828 149.414 37.9434C148.128 40.093 146.362 40.8415 144.577 40.6688L144.328 47.9235L140.739 45.7932L141.065 39.2869L139.779 38.5192L136.824 43.4709L133.542 41.5132L141.795 27.6562H141.814ZM143.407 36.7919C144.673 37.5404 145.614 36.907 145.998 36.2737C146.439 35.5444 146.516 34.4888 145.249 33.7403L143.33 32.5887L141.507 35.6595L143.407 36.7919Z" fill="white"/>
<path d="M12.1298 -26.0828L4.43365 -0.518341C4.20334 0.268551 4.99023 0.978674 5.71955 0.633209L29.7678 -11.055L6.27613 1.55445C5.54682 1.9383 5.62358 3.03227 6.41048 3.30097L31.6294 12.0144L6.04582 4.29898C5.25893 4.06867 4.58719 4.89394 4.95185 5.64245L16.6209 29.6331L3.97303 6.06469C3.58918 5.33537 2.55278 5.43134 2.28409 6.19904L-6.4485 31.4756L1.24769 5.91115C1.478 5.12426 0.691111 4.41413 -0.0382042 4.7596L-24.0864 16.4478L-0.594788 3.83836C0.134527 3.45451 0.0577583 2.36053 -0.729136 2.09184L-25.9673 -6.60237L-0.383669 1.11302C0.403223 1.34333 1.07496 0.518053 0.710302 -0.230453L-10.9587 -24.2211L1.68912 -0.652689C2.07297 0.0766258 3.10937 -0.0193386 3.37806 -0.787039L12.1298 -26.0828Z" fill="url(#paint4_radial_15201_10479)"/>
</g>
<defs>
<filter id="filter0_d_15201_10479" x="67.5771" y="121.527" width="69.1123" height="12.7053" filterUnits="userSpaceOnUse" color-interpolation-filters="sRGB">
<feFlood flood-opacity="0" result="BackgroundImageFix"/>
<feColorMatrix in="SourceAlpha" type="matrix" values="0 0 0 0 0 0 0 0 0 0 0 0 0 0 0 0 0 0 127 0" result="hardAlpha"/>
<feOffset dx="0.594968" dy="0.594968"/>
<feColorMatrix type="matrix" values="0 0 0 0 0 0 0 0 0 0.278431 0 0 0 0 0.803922 0 0 0 1 0"/>
<feBlend mode="normal" in2="BackgroundImageFix" result="effect1_dropShadow_15201_10479"/>
<feBlend mode="normal" in="SourceGraphic" in2="effect1_dropShadow_15201_10479" result="shape"/>
</filter>
<filter id="filter1_d_15201_10479" x="47.2905" y="87.0764" width="110.011" height="28.9807" filterUnits="userSpaceOnUse" color-interpolation-filters="sRGB">
<feFlood flood-opacity="0" result="BackgroundImageFix"/>
<feColorMatrix in="SourceAlpha" type="matrix" values="0 0 0 0 0 0 0 0 0 0 0 0 0 0 0 0 0 0 127 0" result="hardAlpha"/>
<feOffset dx="0.594968" dy="0.594968"/>
<feColorMatrix type="matrix" values="0 0 0 0 0 0 0 0 0 0.278431 0 0 0 0 0.803922 0 0 0 1 0"/>
<feBlend mode="normal" in2="BackgroundImageFix" result="effect1_dropShadow_15201_10479"/>
<feBlend mode="normal" in="SourceGraphic" in2="effect1_dropShadow_15201_10479" result="shape"/>
</filter>
<filter id="filter2_d_15201_10479" x="78.2866" y="140.988" width="48.0195" height="16.0063" filterUnits="userSpaceOnUse" color-interpolation-filters="sRGB">
<feFlood flood-opacity="0" result="BackgroundImageFix"/>
<feColorMatrix in="SourceAlpha" type="matrix" values="0 0 0 0 0 0 0 0 0 0 0 0 0 0 0 0 0 0 127 0" result="hardAlpha"/>
<feOffset dx="0.594968" dy="0.594968"/>
<feColorMatrix type="matrix" values="0 0 0 0 0 0 0 0 0 0.278431 0 0 0 0 0.803922 0 0 0 1 0"/>
<feBlend mode="normal" in2="BackgroundImageFix" result="effect1_dropShadow_15201_10479"/>
<feBlend mode="normal" in="SourceGraphic" in2="effect1_dropShadow_15201_10479" result="shape"/>
</filter>
<radialGradient id="paint0_radial_15201_10479" cx="0" cy="0" r="1" gradientUnits="userSpaceOnUse" gradientTransform="translate(3.15726 20.4016) scale(225.612 225.612)">
<stop stop-color="#FFF3C1"/>
<stop offset="1" stop-color="#DDBA14"/>
</radialGradient>
<linearGradient id="paint1_linear_15201_10479" x1="1.57401" y1="1.5736" x2="173.654" y2="173.654" gradientUnits="userSpaceOnUse">
<stop stop-color="#F5DC82"/>
<stop offset="0.5" stop-color="#DFC36A"/>
<stop offset="1" stop-color="#FFF1BB"/>
</linearGradient>
<linearGradient id="paint2_linear_15201_10479" x1="5.75788" y1="5.75774" x2="170.698" y2="170.698" gradientUnits="userSpaceOnUse">
<stop stop-color="#8A744A"/>
<stop offset="0.5" stop-color="#78641F"/>
<stop offset="1" stop-color="#F2EEE2"/>
</linearGradient>
<linearGradient id="paint3_linear_15201_10479" x1="21.8988" y1="154.538" x2="153.502" y2="22.9347" gradientUnits="userSpaceOnUse">
<stop stop-color="#0039D3"/>
<stop offset="0.2" stop-color="#0054FF"/>
<stop offset="0.5" stop-color="#2B6CFF"/>
<stop offset="0.8" stop-color="#0054FF"/>
<stop offset="1" stop-color="#0039D3"/>
</linearGradient>
<radialGradient id="paint4_radial_15201_10479" cx="0" cy="0" r="1" gradientUnits="userSpaceOnUse" gradientTransform="translate(3.2629 -2.0192) scale(27.5796 29.4183)">
<stop stop-color="#E6E6E6" stop-opacity="0.6"/>
<stop offset="1" stop-color="#E6E6E6" stop-opacity="0"/>
</radialGradient>
<clipPath id="clip0_15201_10479">
<rect width="207.279" height="207.279" fill="white"/>
</clipPath>
</defs>
</svg>
