<?xml version="1.0" encoding="utf-8"?>
<!-- Generator: Adobe Illustrator 27.7.0, SVG Export Plug-In . SVG Version: 6.00 Build 0)  -->
<svg version="1.1" id="Layer_1" xmlns="http://www.w3.org/2000/svg" xmlns:xlink="http://www.w3.org/1999/xlink" x="0px" y="0px"
	 viewBox="0 0 172 58" style="enable-background:new 0 0 172 58;" xml:space="preserve">
<path d="M5.8,34.7c-3.5,0-5-1.7-5.2-4.2H3c0.2,1.3,0.7,2.4,2.9,2.4c1.4,0,2.4-0.8,2.4-2c0-1.2-0.6-1.6-2.7-2
	c-3.1-0.4-4.5-1.4-4.5-3.8c0-2.1,1.8-3.7,4.5-3.7c2.8,0,4.4,1.3,4.7,3.7H8c-0.2-1.4-1-1.9-2.5-1.9c-1.5,0-2.2,0.7-2.2,1.7
	c0,1,0.4,1.6,2.7,1.9c3,0.4,4.6,1.3,4.6,3.9C10.6,32.9,8.7,34.7,5.8,34.7z M16.5,34.7c-2.8,0-4.8-1.8-4.8-4.8v-0.1
	c0-2.9,2-4.9,4.7-4.9c2.3,0,4.4,1.4,4.4,4.8v0.6H14c0.1,1.8,1,2.8,2.6,2.8c1.3,0,2-0.5,2.2-1.4h2.1C20.5,33.6,18.9,34.7,16.5,34.7z
	 M14,28.8h4.7c-0.1-1.6-0.9-2.3-2.3-2.3C15.1,26.5,14.2,27.4,14,28.8z M26.5,38c-3,0-4.3-1.3-4.5-3.1h2.2c0.2,0.9,0.9,1.5,2.3,1.5
	c1.7,0,2.6-0.8,2.6-2.5v-1.4c-0.5,0.9-1.7,1.7-3.1,1.7c-2.4,0-4.2-1.8-4.2-4.5v-0.1c0-2.6,1.8-4.6,4.2-4.6c1.5,0,2.5,0.7,3,1.6v-1.4
	h2.2v8.7C31.2,36.6,29.4,38,26.5,38z M26.5,32.4c1.5,0,2.6-1.1,2.6-2.9v-0.1c0-1.8-1-2.8-2.5-2.8c-1.6,0-2.6,1.2-2.6,2.9v0.1
	C24,31.4,25.1,32.4,26.5,32.4z M36.6,34.7c-1.9,0-3.2-1.1-3.2-3.6v-6h2.2v5.8c0,1.4,0.6,2.1,1.9,2.1c1.2,0,2.2-0.8,2.2-2.2v-5.6h2.2
	v9.4h-2.2V33C39.1,33.9,38.2,34.7,36.6,34.7z M44,34.5v-9.4h2.2v1.8c0.6-1.2,1.5-1.9,3.1-1.9v2c-1.9,0-3.1,0.6-3.1,2.6v4.9H44z
	 M53.1,34.7c-1.7,0-3.2-0.8-3.2-2.8c0-2.2,2.1-3,4.8-3h1.2v-0.5c0-1.3-0.4-1.9-1.7-1.9c-1.1,0-1.7,0.5-1.8,1.5h-2.1
	c0.2-2.2,1.9-3.1,4-3.1s3.8,0.9,3.8,3.4v6.2H56v-1.2C55.4,34.2,54.5,34.7,53.1,34.7z M53.6,33.1c1.3,0,2.3-0.7,2.3-1.9v-0.9h-1.1
	c-1.7,0-2.7,0.4-2.7,1.5C52.1,32.6,52.5,33.1,53.6,33.1z M60.3,34.5v-9.4h2.2v1.5c0.4-0.9,1.5-1.7,3-1.7c1.9,0,3.2,1.1,3.2,3.7v5.9
	h-2.2v-5.7c0-1.4-0.6-2.1-1.9-2.1c-1.2,0-2.2,0.8-2.2,2.2v5.5H60.3z M74.6,38.4c-1.1,0-1.9-0.6-2-1.6h1.2c0.1,0.3,0.3,0.6,0.7,0.6
	c0.4,0,0.7-0.3,0.7-0.6c0-0.3-0.3-0.6-0.6-0.6c-0.3,0-0.4,0.1-0.5,0.2l-0.6-0.6l0.7-1.2c-2.3-0.3-4-2-4-4.7v-0.1
	c0-3,2.1-4.9,4.8-4.9c2.1,0,4.1,0.9,4.3,3.5h-2.1c-0.2-1.3-1-1.8-2.2-1.8c-1.5,0-2.6,1.2-2.6,3.1v0.1c0,2.1,1,3.1,2.6,3.1
	c1.2,0,2.1-0.7,2.3-2h2c-0.2,2.1-1.7,3.6-4.1,3.7l-0.4,0.7c0.9-0.1,1.8,0.4,1.8,1.5C76.6,37.9,75.8,38.4,74.6,38.4z M83.3,34.7
	c-1.7,0-3.2-0.8-3.2-2.8c0-2.2,2.1-3,4.8-3h1.2v-0.5c0-1.3-0.4-1.9-1.7-1.9c-1.1,0-1.7,0.5-1.8,1.5h-2.1c0.2-2.2,1.9-3.1,4-3.1
	c2.1,0,3.8,0.9,3.8,3.4v6.2h-2.1v-1.2C85.6,34.2,84.7,34.7,83.3,34.7z M83.8,33.1c1.3,0,2.3-0.7,2.3-1.9v-0.9H85
	c-1.7,0-2.7,0.4-2.7,1.5C82.3,32.6,82.7,33.1,83.8,33.1z M96.9,34.7c-1.7,0-3.2-0.8-3.2-2.8c0-2.2,2.1-3,4.8-3h1.2v-0.5
	c0-1.3-0.4-1.9-1.7-1.9c-1.1,0-1.7,0.5-1.8,1.5h-2.1c0.2-2.2,1.9-3.1,4-3.1c2.1,0,3.8,0.9,3.8,3.4v6.2h-2.1v-1.2
	C99.1,34.2,98.3,34.7,96.9,34.7z M97.4,33.1c1.3,0,2.3-0.7,2.3-1.9v-0.9h-1.1c-1.7,0-2.7,0.4-2.7,1.5C95.9,32.6,96.3,33.1,97.4,33.1
	z M104.1,34.5V20.7h2.2v13.8H104.1z M108.6,34.5v-9.4h2.2v9.4H108.6z M109.7,23.5c-0.7,0-1.3-0.5-1.3-1.2c0-0.7,0.6-1.3,1.3-1.3
	c0.7,0,1.3,0.5,1.3,1.3C111,23,110.4,23.5,109.7,23.5z M113.1,34.5v-9.4h2.2v1.4c0.4-0.9,1.5-1.6,2.9-1.6c1.2,0,2.2,0.5,2.7,1.7
	c0.7-1.2,2-1.7,3.2-1.7c1.7,0,3.1,1.1,3.1,3.7v6h-2.2v-5.8c0-1.4-0.6-2-1.7-2c-1.1,0-2.1,0.7-2.1,2.2v5.6H119v-5.8
	c0-1.4-0.6-2-1.7-2c-1.1,0-2.1,0.7-2.1,2.2v5.6H113.1z M133.4,34.7c-2.8,0-4.8-1.8-4.8-4.8v-0.1c0-2.9,2-4.9,4.7-4.9
	c2.3,0,4.4,1.4,4.4,4.8v0.6h-6.9c0.1,1.8,1,2.8,2.6,2.8c1.3,0,2-0.5,2.2-1.4h2.1C137.4,33.6,135.8,34.7,133.4,34.7z M130.9,28.8h4.7
	c-0.1-1.6-0.9-2.3-2.3-2.3C132,26.5,131.1,27.4,130.9,28.8z M139.3,34.5v-9.4h2.2v1.5c0.4-0.9,1.5-1.7,3-1.7c1.9,0,3.2,1.1,3.2,3.7
	v5.9h-2.2v-5.7c0-1.4-0.6-2.1-1.9-2.1c-1.2,0-2.2,0.8-2.2,2.2v5.5H139.3z M153.1,34.7c-1.9,0-2.8-1-2.8-2.8v-5.1H149v-1.6h1.3V23
	h2.2v2.1h2.1v1.6h-2.1v4.9c0,0.8,0.4,1.2,1.1,1.2c0.4,0,0.8-0.1,1.1-0.2v1.7C154.2,34.6,153.8,34.7,153.1,34.7z M158.7,34.7
	c-1.7,0-3.2-0.8-3.2-2.8c0-2.2,2.1-3,4.8-3h1.2v-0.5c0-1.3-0.4-1.9-1.7-1.9c-1.1,0-1.7,0.5-1.8,1.5H156c0.2-2.2,1.9-3.1,4-3.1
	s3.8,0.9,3.8,3.4v6.2h-2.1v-1.2C161,34.2,160.2,34.7,158.7,34.7z M159.3,33.1c1.3,0,2.3-0.7,2.3-1.9v-0.9h-1.1
	c-1.7,0-2.7,0.4-2.7,1.5C157.8,32.6,158.2,33.1,159.3,33.1z M165.9,34.5v-9.4h2.2v1.8c0.6-1.2,1.5-1.9,3.1-1.9v2
	c-1.9,0-3.1,0.6-3.1,2.6v4.9H165.9z"/>
</svg>
