<?xml version="1.0" encoding="utf-8"?>
<!-- Generator: Adobe Illustrator 27.7.0, SVG Export Plug-In . SVG Version: 6.00 Build 0)  -->
<svg version="1.1" id="Layer_1" xmlns="http://www.w3.org/2000/svg" xmlns:xlink="http://www.w3.org/1999/xlink" x="0px" y="0px"
	 viewBox="0 0 172 58" style="enable-background:new 0 0 172 58;" xml:space="preserve">
<path d="M1.5,14.5V1.6h4.1c2.9,0,4.8,1.3,4.8,4v0.1c0,2.7-2,3.9-4.7,3.9H3.9v4.9H1.5z M3.9,7.9h1.7C7.2,7.9,8,7.1,8,5.7V5.6
	c0-1.5-0.9-2.1-2.4-2.1H3.9V7.9z M15.9,13c1.6,0,2.6-1.2,2.6-3.1V9.7c0-1.9-1-3.1-2.6-3.1s-2.6,1.2-2.6,3.1v0.1
	C13.2,11.8,14.2,13,15.9,13z M15.8,14.7c-2.8,0-4.8-1.9-4.8-4.8V9.7c0-2.9,2.1-4.9,4.8-4.9c2.8,0,4.8,1.9,4.8,4.8v0.1
	C20.7,12.8,18.6,14.7,15.8,14.7z M25.5,14.7c-1.9,0-2.8-1-2.8-2.8V6.7h-1.3V5.1h1.3V3h2.2v2.1h2.1v1.6h-2.1v4.9
	c0,0.8,0.4,1.2,1.1,1.2c0.4,0,0.8-0.1,1.1-0.2v1.7C26.6,14.6,26.2,14.7,25.5,14.7z M31.1,14.7c-1.7,0-3.1-0.8-3.1-2.8
	c0-2.2,2.1-3,4.8-3H34V8.4c0-1.3-0.4-1.9-1.7-1.9c-1.1,0-1.7,0.5-1.8,1.5h-2.1c0.2-2.2,1.9-3.1,4-3.1s3.8,0.9,3.8,3.4v6.2H34v-1.2
	C33.4,14.2,32.6,14.7,31.1,14.7z M31.6,13.1c1.3,0,2.3-0.7,2.3-1.9v-0.9h-1.1c-1.7,0-2.7,0.4-2.7,1.5C30.1,12.6,30.6,13.1,31.6,13.1
	z M31.5,3.7l1.1-2.8H35l-1.9,2.8H31.5z M41.5,14.7c-2.4,0-3.9-1.1-3.9-3.1h2.1c0.1,1,0.6,1.5,1.9,1.5c1.2,0,1.7-0.4,1.7-1.2
	c0-0.8-0.6-1.1-2-1.3c-2.5-0.4-3.4-1.1-3.4-2.9c0-1.9,1.8-2.8,3.5-2.8c1.9,0,3.5,0.7,3.7,2.8h-2c-0.2-0.9-0.7-1.3-1.7-1.3
	c-0.9,0-1.5,0.4-1.5,1.1c0,0.7,0.5,1,1.9,1.2c2.2,0.3,3.5,0.9,3.5,2.9C45.3,13.6,43.9,14.7,41.5,14.7z M50,14.7
	c-2.4,0-3.9-1.1-3.9-3.1h2.1c0.1,1,0.6,1.5,1.9,1.5c1.2,0,1.7-0.4,1.7-1.2c0-0.8-0.6-1.1-2-1.3c-2.5-0.4-3.4-1.1-3.4-2.9
	c0-1.9,1.8-2.8,3.5-2.8c1.9,0,3.5,0.7,3.7,2.8h-2c-0.2-0.9-0.7-1.3-1.7-1.3c-0.9,0-1.5,0.4-1.5,1.1c0,0.7,0.5,1,1.9,1.2
	c2.2,0.3,3.5,0.9,3.5,2.9C53.8,13.6,52.5,14.7,50,14.7z M55.4,14.5V5.1h2.2v9.4H55.4z M56.5,3.5c-0.7,0-1.3-0.5-1.3-1.2
	c0-0.7,0.6-1.3,1.3-1.3c0.7,0,1.3,0.5,1.3,1.3C57.8,3,57.2,3.5,56.5,3.5z M64.1,13c1.6,0,2.6-1.2,2.6-3.1V9.7c0-1.9-1-3.1-2.6-3.1
	c-1.6,0-2.6,1.2-2.6,3.1v0.1C61.5,11.8,62.4,13,64.1,13z M64.1,14.7c-2.8,0-4.8-1.9-4.8-4.8V9.7c0-2.9,2.1-4.9,4.8-4.9
	c2.8,0,4.8,1.9,4.8,4.8v0.1C68.9,12.8,66.8,14.7,64.1,14.7z M71.4,14.6c-0.8,0-1.4-0.6-1.4-1.4s0.6-1.4,1.4-1.4
	c0.8,0,1.4,0.6,1.4,1.4S72.2,14.6,71.4,14.6z"/>
</svg>
