<svg width="114" height="30" viewBox="0 0 114 30" fill="none" xmlns="http://www.w3.org/2000/svg">
<rect width="113.161" height="29.0569" rx="4.01897" fill="white"/>
<path d="M8.03809 20.167H18.0855" stroke="#DC1928" stroke-width="0.966904" stroke-linecap="round"/>
<path d="M8.27979 15.0117L13.0618 18.1166L17.9488 15.0117" stroke="#DC1928" stroke-width="0.966904" stroke-linecap="round"/>
<path d="M13.0532 8.88965V18.1169" stroke="#DC1928" stroke-width="0.966904" stroke-linecap="round"/>
<path d="M26.7715 9.50832H29.9395C32.3155 9.50832 34.0675 10.9483 34.0675 13.7683C34.0675 16.5763 32.3155 18.0283 29.9395 18.0283H26.7715V9.50832ZM29.7955 10.7323H28.2475V16.8043H29.7955C31.5475 16.8043 32.5555 15.8803 32.5555 13.7683C32.5555 11.6563 31.5475 10.7323 29.7955 10.7323ZM34.889 14.9083C34.889 12.9283 36.077 11.6443 37.853 11.6443C39.617 11.6443 40.817 12.9283 40.817 14.9083C40.817 16.8883 39.617 18.1723 37.853 18.1723C36.077 18.1723 34.889 16.8883 34.889 14.9083ZM39.377 14.6443C39.377 13.4563 38.765 12.7723 37.853 12.7723C36.929 12.7723 36.329 13.4563 36.329 14.6443V15.1603C36.329 16.3483 36.929 17.0443 37.853 17.0443C38.765 17.0443 39.377 16.3483 39.377 15.1603V14.6443ZM48.3077 18.0283H46.7957L45.5957 13.8883L44.4557 18.0283H42.8717L41.1557 11.7883H42.5597L43.7237 16.3243L44.9717 11.7883H46.2077L47.5277 16.3243L48.6797 11.7883H50.0117L48.3077 18.0283ZM52.1327 14.1763V18.0283H50.7167V11.7883H52.1327V12.5203H52.1807C52.5887 11.9803 53.1047 11.6443 53.9327 11.6443C55.1687 11.6443 55.9607 12.5563 55.9607 13.9603V18.0283H54.5447V14.0803C54.5447 13.3603 54.2327 12.8443 53.4167 12.8443C52.5767 12.8443 52.1327 13.4443 52.1327 14.1763ZM59.0951 18.0283C57.9671 18.0283 57.3191 17.3803 57.3191 16.3603V9.14832H58.7351V16.2403C58.7351 16.6483 58.8911 16.8883 59.3351 16.8883H59.7551V18.0283H59.0951ZM60.4349 14.9083C60.4349 12.9283 61.6229 11.6443 63.3989 11.6443C65.1629 11.6443 66.3629 12.9283 66.3629 14.9083C66.3629 16.8883 65.1629 18.1723 63.3989 18.1723C61.6229 18.1723 60.4349 16.8883 60.4349 14.9083ZM64.9229 14.6443C64.9229 13.4563 64.3109 12.7723 63.3989 12.7723C62.4749 12.7723 61.8749 13.4563 61.8749 14.6443V15.1603C61.8749 16.3483 62.4749 17.0443 63.3989 17.0443C64.3109 17.0443 64.9229 16.3483 64.9229 15.1603V14.6443ZM70.9605 17.2003C70.6365 17.7523 70.0125 18.1723 69.1125 18.1723C67.9365 18.1723 67.1205 17.4643 67.1205 16.3123C67.1205 15.0883 68.0445 14.6203 69.0525 14.4883L70.3605 14.3203C70.8645 14.2603 70.9725 14.0563 70.9725 13.6603C70.9725 13.0963 70.6365 12.6883 69.8805 12.6883C69.1245 12.6883 68.7405 13.1083 68.6925 13.7083H67.2405C67.2765 12.6643 68.1525 11.6443 69.8445 11.6443C71.4645 11.6443 72.3885 12.5923 72.3885 13.9723V16.9603C72.3885 17.3443 72.4485 17.7283 72.5085 18.0283H71.0565C71.0205 17.7883 70.9965 17.5243 70.9965 17.2003H70.9605ZM70.9845 14.8003C70.7805 14.9923 70.5165 15.0883 70.1925 15.1483L69.5685 15.2923C68.9325 15.4243 68.5485 15.6763 68.5485 16.2523C68.5485 16.8403 68.8965 17.1403 69.5445 17.1403C70.3245 17.1403 70.9845 16.6123 70.9845 15.7843V14.8003ZM77.8468 17.1883C77.4988 17.7643 76.8028 18.1723 75.9868 18.1723C74.4868 18.1723 73.4188 16.8883 73.4188 14.9083C73.4188 12.9283 74.4868 11.6443 75.9868 11.6443C76.8028 11.6443 77.4988 12.0523 77.8468 12.6283H77.8948V9.14832H79.3108V18.0283H77.8948V17.1883H77.8468ZM74.8588 15.1483C74.8588 16.3723 75.4228 17.0443 76.3828 17.0443C77.2708 17.0443 77.8948 16.3363 77.8948 15.2323V14.5843C77.8948 13.4803 77.2708 12.7723 76.3828 12.7723C75.4228 12.7723 74.8588 13.4563 74.8588 14.6803V15.1483ZM84.393 14.1763V18.0283H82.977V11.7883H84.393V12.5203H84.441C84.849 11.9803 85.365 11.6443 86.193 11.6443C87.429 11.6443 88.221 12.5563 88.221 13.9603V18.0283H86.805V14.0803C86.805 13.3603 86.493 12.8443 85.677 12.8443C84.837 12.8443 84.393 13.4443 84.393 14.1763ZM89.2794 14.9083C89.2794 12.9283 90.4674 11.6443 92.2434 11.6443C94.0074 11.6443 95.2074 12.9283 95.2074 14.9083C95.2074 16.8883 94.0074 18.1723 92.2434 18.1723C90.4674 18.1723 89.2794 16.8883 89.2794 14.9083ZM93.7674 14.6443C93.7674 13.4563 93.1554 12.7723 92.2434 12.7723C91.3194 12.7723 90.7194 13.4563 90.7194 14.6443V15.1603C90.7194 16.3483 91.3194 17.0443 92.2434 17.0443C93.1554 17.0443 93.7674 16.3483 93.7674 15.1603V14.6443ZM102.698 18.0283H101.186L99.9862 13.8883L98.8462 18.0283H97.2622L95.5462 11.7883H96.9502L98.1142 16.3243L99.3622 11.7883H100.598L101.918 16.3243L103.07 11.7883H104.402L102.698 18.0283Z" fill="#DC1928"/>
</svg>
