<svg width="104" height="55" viewBox="0 0 104 55" fill="none" xmlns="http://www.w3.org/2000/svg">
<path d="M47.6171 3.08515V9.52808H38.249V0.159988H44.692C46.3058 0.159988 47.6171 1.47127 47.6171 3.08515Z" fill="white"/>
<path d="M47.6171 18.896H38.249V28.2641H47.6171V18.896Z" fill="white"/>
<path d="M28.8809 0.159988H19.5128V9.52808H28.8809V0.159988Z" fill="#FFD000"/>
<path d="M10.1447 7.66833V0.159988H0.776611V25.3391C0.776611 26.953 2.08789 28.2643 3.70178 28.2643H10.1447V20.7559C10.1447 19.7283 10.9769 18.8962 12.0045 18.8962H19.5128V9.52808H12.0045C10.9769 9.52808 10.1447 8.69592 10.1447 7.66833Z" fill="white"/>
<path d="M28.8809 18.896H19.5128V28.2641H28.8809V18.896Z" fill="white"/>
<path d="M10.9895 38.5718C10.3464 38.5718 9.82319 38.3637 9.3945 37.9287C8.97212 37.5 8.76408 36.9705 8.76408 36.3148C8.76408 35.6592 8.96581 35.0981 9.3945 34.6694C9.81688 34.2345 10.3527 34.0264 11.0147 34.0264C11.6451 34.0264 12.1621 34.2408 12.5907 34.6758C13.0194 35.1107 13.2275 35.634 13.2275 36.277C13.2275 36.9201 13.0194 37.4748 12.5907 37.9161C12.1621 38.3574 11.6388 38.5718 10.9895 38.5718ZM13.5301 33.8436C12.8492 33.1943 11.9918 32.8727 10.9769 32.8727C9.96188 32.8727 9.1045 33.2006 8.43625 33.8436C7.76801 34.4929 7.42758 35.3251 7.42758 36.3085C7.42758 37.292 7.76801 38.0863 8.42995 38.7294C9.0919 39.3661 9.93666 39.6939 10.9264 39.6939C11.9162 39.6939 12.8303 39.3724 13.5175 38.7294C14.2046 38.0863 14.5577 37.2668 14.5577 36.2896C14.5577 35.3125 14.2109 34.4929 13.5301 33.8436ZM41.3633 32.9484V36.6742C41.3633 37.7396 40.9535 38.4709 39.762 38.4709C38.5705 38.4709 38.1607 37.7396 38.1607 36.6742V32.9484H36.8684V36.9516C36.8684 38.9185 38.1985 39.6939 39.762 39.6939C41.3254 39.6939 42.6556 38.9248 42.6556 36.9516V32.9484H41.3633ZM33.5712 32.9484V38.452H36.3703V39.6057H32.2852V32.9484H33.5712ZM28.925 35.9555C29.5617 35.9555 30.1039 35.6592 30.1039 35.0288C30.1039 34.3984 29.7383 34.1021 28.925 34.1021H28.1496V35.9555H28.925ZM29.2907 32.9484C30.6902 32.9484 31.39 33.8562 31.39 35.0225C31.39 36.1888 30.52 37.1092 29.2402 37.1092H28.1496V39.6057H26.8635V32.9484H29.2907ZM25.9872 32.9484V34.1021H23.7997V39.6057H22.5136V34.1021H20.326V32.9484H25.9872ZM45.7447 32.8601C46.394 32.8601 47.0182 33.024 47.6171 33.3456V34.6568C46.9236 34.2408 46.4634 33.9823 45.7636 33.9823C45.0639 33.9823 44.8243 34.2218 44.8054 34.5497C44.7865 34.8018 44.9441 35.0162 45.2782 35.2305C45.3728 35.2936 45.7258 35.4764 46.3562 35.7853C46.8921 36.0501 47.2956 36.3275 47.5351 36.6427C47.7747 36.9579 47.9008 37.3361 47.9008 37.7774C47.9008 38.3511 47.6927 38.8113 47.2829 39.1644C46.8732 39.5174 46.3373 39.6939 45.6817 39.6939C45.2593 39.6939 44.8873 39.6498 44.5847 39.5552C44.2758 39.4607 43.9354 39.3031 43.5508 39.0698V37.6072C44.2632 38.1998 44.9126 38.5655 45.543 38.5655C46.1356 38.5655 46.5327 38.3385 46.5327 37.935C46.5327 37.664 46.4067 37.4181 46.0788 37.2227C45.8078 37.0588 45.4484 36.8759 45.026 36.6427C44.5217 36.3653 44.1119 36.1131 43.8534 35.7916C43.595 35.4701 43.4626 35.117 43.4626 34.701C43.4626 34.1399 43.6706 33.6986 44.0867 33.3645C44.5028 33.0303 45.0512 32.8664 45.7384 32.8664M17.5648 32.8601C18.2141 32.8601 18.8382 33.024 19.4371 33.3456V34.6568C18.75 34.2408 18.2835 33.9823 17.5837 33.9823C16.8839 33.9823 16.6444 34.2218 16.6255 34.5497C16.6065 34.8018 16.7641 35.0162 17.0983 35.2305C17.1928 35.2936 17.5459 35.4764 18.1763 35.7853C18.7122 36.0501 19.1156 36.3275 19.3615 36.6427C19.6011 36.9579 19.7208 37.3361 19.7208 37.7774C19.7208 38.3511 19.5128 38.8113 19.103 39.1644C18.6932 39.5174 18.1574 39.6939 17.5017 39.6939C17.0731 39.6939 16.7074 39.6498 16.4048 39.5552C16.1022 39.4607 15.7555 39.3031 15.3709 39.0698V37.6072C16.0833 38.1998 16.7326 38.5655 17.3631 38.5655C17.9556 38.5655 18.3528 38.3385 18.3528 37.935C18.3528 37.664 18.233 37.4181 17.8989 37.2227C17.6278 37.0588 17.2685 36.8759 16.8461 36.6427C16.3418 36.3653 15.932 36.1131 15.6735 35.7916C15.415 35.4701 15.2827 35.117 15.2827 34.701C15.2827 34.1399 15.4907 33.6986 15.9068 33.3645C16.3229 33.0303 16.8713 32.8664 17.5585 32.8664M2.06267 32.9484V35.6025H5.2211V32.9484H6.50716V39.6057H5.2211V36.9453H2.06267V39.6057H0.776611V32.9484H2.06267Z" fill="white"/>
<line x1="58.5489" y1="0.0685654" x2="58.5489" y2="39.9326" stroke="white" stroke-width="0.318912"/>
<g clip-path="url(#clip0_18091_282025)">
<path d="M86.1236 0.0502548C79.7878 0.0502548 75.564 1.10622 75.564 1.10622V19.5349C75.564 21.1864 75.7646 22.4726 77.6759 23.7228C78.6389 24.3522 86.1236 29.2371 86.1236 29.2371C86.1236 29.2371 93.6083 24.3522 94.5713 23.7228C96.4826 22.4726 96.6832 21.1864 96.6832 19.5349V1.10622C96.6832 1.10622 92.4594 0.0502548 86.1236 0.0502548Z" fill="#A5ACAF"/>
<path d="M96.0496 19.5349C96.0496 20.3226 96.001 20.9647 95.7603 21.5328C95.4984 22.1495 95.0106 22.6774 94.2249 23.1928C93.3928 23.7376 87.6083 27.5116 86.1236 28.481C84.6389 27.5116 78.8543 23.7376 78.0222 23.1928C77.2345 22.6774 76.7466 22.1516 76.4868 21.5328C76.2461 20.9647 76.1975 20.3226 76.1975 19.5349V4.47897C77.5998 4.20442 81.2323 3.5983 86.1236 3.5983C91.0148 3.5983 94.6473 4.20231 96.0496 4.47897V19.5349Z" fill="#331C54"/>
<path d="M82.1108 19.1125V20.3797H88.2587L90.1362 18.7704V14.1748L88.2587 12.5655H87.1795V13.8327H87.7898L88.869 14.7577V18.1875L87.7898 19.1125H84.434V13.8327H85.0675V12.5655H82.1108V13.8327H83.1668V19.1125H82.1108Z" fill="white"/>
<path d="M85.49 18.6901H86.7571V11.5096H91.4034V10.2424H86.7571V9.74611C87.566 9.48001 88.1489 8.71971 88.1489 7.82214C88.1489 6.70282 87.2429 5.79681 86.1236 5.79681C85.0042 5.79681 84.0982 6.70282 84.0982 7.82214C84.0982 8.71971 84.6811 9.48001 85.49 9.74611V10.2424H80.8438V11.5096H85.49V18.6901ZM86.1236 7.04284C86.5523 7.04284 86.9029 7.39131 86.9029 7.82214C86.9029 8.25298 86.5544 8.60145 86.1236 8.60145C85.6927 8.60145 85.3443 8.25298 85.3443 7.82214C85.3443 7.39131 85.6927 7.04284 86.1236 7.04284Z" fill="white"/>
<path d="M92.0369 17.4103V19.1421C92.0369 19.7461 91.8807 20.0101 91.3189 20.3775C90.9514 20.6183 88.0602 22.481 86.7571 23.3216V20.802H85.49V23.3216C84.1869 22.481 81.2978 20.6183 80.9282 20.3775C80.3664 20.0122 80.2101 19.7461 80.2101 19.1421V17.4103H78.943V19.5433C78.943 20.122 79.038 20.6627 79.8575 21.1906C80.6769 21.7186 86.1235 25.2371 86.1235 25.2371C86.1235 25.2371 91.5702 21.7186 92.3896 21.1906C93.2091 20.6627 93.3041 20.122 93.3041 19.5433V17.4103H92.0369Z" fill="white"/>
<path d="M79.3655 2.85913V1.60676C79.7414 1.5603 80.1194 1.51595 80.4954 1.47582V1.74615C80.2398 1.7736 79.9843 1.80106 79.7287 1.83274V2.06716C79.9104 2.04604 80.0941 2.02492 80.2757 2.0038V2.215C80.0941 2.234 79.9104 2.25512 79.7287 2.27835V2.52756C79.9843 2.49799 80.2398 2.46843 80.4954 2.44097V2.72608C80.1173 2.76621 79.7414 2.80845 79.3655 2.85702V2.85913Z" fill="#331C54"/>
<path d="M81.9251 2.63737C81.6548 2.65849 81.4246 2.59724 81.2408 2.49798C81.2894 2.41984 81.338 2.3417 81.3866 2.26567C81.5619 2.35437 81.7562 2.40294 81.9314 2.39027C82.1194 2.37549 82.1954 2.30579 82.1954 2.23399C82.1954 2.0228 81.3021 2.21921 81.3042 1.76514C81.3042 1.53916 81.5555 1.33431 81.9272 1.30474C82.1954 1.28362 82.394 1.35754 82.5502 1.46525C82.4953 1.53494 82.4383 1.60252 82.3834 1.67222C82.2525 1.59196 82.0793 1.54128 81.9188 1.55395C81.7519 1.56662 81.6527 1.63209 81.6527 1.70601C81.6527 1.90664 82.5524 1.73135 82.5524 2.17908C82.5524 2.42406 82.282 2.61202 81.9251 2.63948V2.63737Z" fill="#331C54"/>
<path d="M84.0202 1.50327V2.47476C83.8977 2.47898 83.7752 2.48532 83.6527 2.48954V1.51806C83.4985 1.52439 83.3444 1.53284 83.1902 1.54129V1.2604C83.621 1.23717 84.0497 1.21816 84.4806 1.20549V1.48638C84.3264 1.4906 84.1722 1.49694 84.0202 1.50327Z" fill="#331C54"/>
<path d="M84.9114 2.44726V2.17905C85.0001 2.17905 85.0888 2.17483 85.1796 2.17271V2.44093C85.0909 2.44093 85.0022 2.44515 84.9114 2.44726Z" fill="#331C54"/>
<path d="M86.8354 2.43672V1.33852C86.9494 1.33852 87.0022 1.26883 87.0022 1.18646C87.0592 1.18646 87.1162 1.18646 87.1712 1.18857V2.44095C87.0592 2.44095 86.9473 2.43672 86.8333 2.43461L86.8354 2.43672Z" fill="#331C54"/>
<path d="M88.5587 2.52755C88.3306 2.51699 88.1553 2.4473 88.0074 2.33114C88.056 2.26567 88.1046 2.20232 88.1553 2.13685C88.2693 2.21921 88.4066 2.27201 88.5397 2.27835C88.7572 2.28891 88.8564 2.16641 88.8564 1.98479V1.91298C88.7614 1.99112 88.6516 2.03759 88.4974 2.03125C88.1912 2.01858 88.0096 1.85807 88.0096 1.64266V1.61731C88.0096 1.37444 88.2334 1.17803 88.5798 1.19282C88.9409 1.20971 89.1838 1.45258 89.1838 1.80527V1.94888C89.1838 2.30158 88.9451 2.54445 88.5608 2.52544L88.5587 2.52755ZM88.8522 1.70601C88.8522 1.57719 88.7551 1.46314 88.5734 1.45469C88.4108 1.44836 88.3179 1.51805 88.3179 1.62998V1.65322C88.3179 1.76515 88.4024 1.84329 88.5671 1.84962C88.6938 1.85596 88.7825 1.81583 88.8543 1.75881V1.70813L88.8522 1.70601Z" fill="#331C54"/>
<path d="M90.5059 2.65005C90.2778 2.63104 90.1047 2.55501 89.9547 2.43252C90.0033 2.36916 90.0519 2.3058 90.1025 2.24456C90.2145 2.33115 90.3539 2.39028 90.4848 2.40084C90.7023 2.41774 90.7995 2.29947 90.7995 2.11995V2.04815C90.7066 2.12207 90.5946 2.16642 90.4405 2.15375C90.1342 2.1284 89.9547 1.96367 89.9547 1.74614V1.7208C89.9547 1.47793 90.1786 1.28786 90.5249 1.31742C90.8861 1.34699 91.1268 1.59831 91.1268 1.951V2.09672C91.1268 2.44942 90.8882 2.68384 90.5059 2.65216V2.65005ZM90.7974 1.83907C90.7974 1.71024 90.7002 1.59197 90.5186 1.57719C90.356 1.56452 90.2631 1.62999 90.2631 1.74403V1.76726C90.2631 1.8792 90.3475 1.95945 90.5101 1.97212C90.6369 1.98268 90.7256 1.94678 90.7953 1.89187V1.84118L90.7974 1.83907Z" fill="#331C54"/>
<path d="M92.7045 2.54442V2.83376C92.5968 2.82108 92.4869 2.80841 92.3792 2.79574V2.50641C92.1532 2.48106 91.9273 2.45572 91.7013 2.43249V2.21707C91.9336 1.99321 92.1659 1.76934 92.3961 1.54759C92.4975 1.56026 92.601 1.57294 92.7023 1.58349V2.30789C92.7678 2.31633 92.8354 2.32478 92.9009 2.33323V2.57188C92.8354 2.56343 92.7678 2.55498 92.7023 2.54653L92.7045 2.54442ZM92.3771 1.87916C92.2588 1.99532 92.1406 2.10936 92.0223 2.22552C92.1406 2.23819 92.2588 2.25086 92.3771 2.26565V1.87916Z" fill="#331C54"/>
<path d="M75.564 31.9805H76.9431V32.4324H76.0645V32.6985H76.9177V33.1441H76.0645V33.7735H75.564V31.9805Z" fill="#A5ACAF"/>
<path d="M78.6664 33.2371H78.3411V33.7735H77.8533V31.9805H78.7635C79.4055 31.9805 79.5132 32.2614 79.5132 32.5972C79.5132 32.8189 79.4583 33.0576 79.1669 33.1695L79.4942 33.7714H78.9578L78.6664 33.235V33.2371ZM78.7445 32.821C78.9388 32.821 79.0064 32.783 79.0064 32.6183C79.0064 32.4535 78.943 32.4071 78.7424 32.4071H78.3411V32.821H78.7445Z" fill="#A5ACAF"/>
<path d="M80.3855 31.9805H81.8132V32.4324H80.886V32.6499H81.7878V33.0871H80.886V33.3384H81.8216V33.7714H80.3855V31.9784V31.9805Z" fill="#A5ACAF"/>
<path d="M82.8269 31.9805H83.4837L83.885 33.047L84.2884 31.9805H84.9409V33.7735H84.4531V32.7323L84.0518 33.7735H83.6759L83.2789 32.7408V33.7735H82.8269V31.9805Z" fill="#A5ACAF"/>
<path d="M86.4003 31.9699H86.9114L87.6357 33.7756H87.1162L87.0254 33.5433H86.2609L86.1722 33.7756H85.6843L86.4024 31.9699H86.4003ZM86.8649 33.1294L86.6431 32.5591L86.4214 33.1294H86.867H86.8649Z" fill="#A5ACAF"/>
<path d="M88.3243 31.9805H88.8607L89.5597 32.9287V31.9805H90.0391V33.7735H89.5766L88.8016 32.726V33.7735H88.3221V31.9805H88.3243Z" fill="#A5ACAF"/>
<path d="M91.3739 32.4324H90.7783V31.9805H92.4721V32.4324H91.8765V33.7735H91.3739V32.4324Z" fill="#A5ACAF"/>
<path d="M93.2112 31.9805H93.7117V33.3406H94.5565V33.7735H93.2112V31.9805Z" fill="#A5ACAF"/>
<path d="M95.245 31.9805H96.6727V32.4324H95.7455V32.6499H96.6473V33.0871H95.7455V33.3384H96.6811V33.7714H95.245V31.9784V31.9805Z" fill="#A5ACAF"/>
<path d="M98.018 38.5908L98.8036 37.9361V36.2824L98.0919 35.5707H94.4932V36.4683H95.1225V39.1631H94.4932V40.0607H96.0201V38.6246H96.9514L97.9398 40.0607H99.0739V39.1631H98.4129L98.0201 38.5908H98.018ZM97.7202 36.4683L97.906 36.6541V37.5158L97.6547 37.727H96.0222V36.4704H97.7223L97.7202 36.4683Z" fill="white"/>
<path d="M68.5946 35.5686V36.4662H69.224V39.161H68.5946V40.0586H72.0138L73.0846 38.9878V36.6394L72.0138 35.5686H68.5946ZM72.187 38.6161L71.6421 39.161H70.1215V36.4662H71.6421L72.187 37.011V38.614V38.6161Z" fill="white"/>
<path d="M75.1247 35.5686L74.054 36.6393V38.9857L75.1247 40.0564H77.1141L78.1849 38.9857V36.6372L77.1141 35.5665H75.1247V35.5686ZM77.2873 38.6161L76.7424 39.161H75.4964L74.9515 38.6161V37.011L75.4964 36.4662H76.7424L77.2873 37.011V38.614V38.6161Z" fill="white"/>
<path d="M103.653 37.0068V36.2824L102.941 35.5686H100.595L99.8807 36.2824V37.5517L100.595 38.2634H102.569L102.755 38.4493V38.9751L102.569 39.161H100.966L100.78 38.9751V38.6225H99.8807V39.3468L100.595 40.0586H102.941L103.653 39.3468V38.0776L102.941 37.3659H100.966L100.78 37.18V36.6541L100.966 36.4683H102.569L102.755 36.6541V37.0068H103.653Z" fill="white"/>
<path d="M80.1722 35.5686L79.1014 36.6415V38.9878L80.1722 40.0586H82.1616L83.2324 38.9878V38.3542H82.3348V38.6161L81.7899 39.161H80.5439L79.999 38.6161V37.0132L80.5439 36.4683H81.7899L82.3348 37.0132V37.275H83.2324V36.6415L82.1616 35.5686H80.1722Z" fill="white"/>
<path d="M88.5671 36.4683V35.5686H87.6759L85.6041 37.4355V35.5686H84.0771V36.4683H84.7065V39.161H84.094V40.0586H85.6041V38.6436L86.187 38.1177L87.621 40.0586H88.5671V39.161H88.0729L86.8586 37.5137L88.0201 36.4683H88.5671Z" fill="white"/>
<path d="M89.4646 36.4683H90.1827V39.161H89.4646V40.0586H93.5068V38.7133H92.6071V39.161H91.0802V38.2634H92.5184V37.3659H91.0802V36.4683H92.6071V36.916H93.5068V35.5686H89.4646V36.4683Z" fill="white"/>
</g>
<path d="M2.24892 54.6243C1.96149 54.6243 1.69543 54.5738 1.45073 54.4728C1.20603 54.368 0.990458 54.2223 0.804019 54.0359C0.621464 53.8494 0.479692 53.6319 0.378704 53.3833C0.277717 53.1347 0.227223 52.8667 0.227223 52.5793C0.227223 52.288 0.277717 52.02 0.378704 51.7753C0.479692 51.5267 0.621464 51.3092 0.804019 51.1227C0.986574 50.9363 1.2002 50.7926 1.4449 50.6916C1.69349 50.5867 1.96149 50.5343 2.24892 50.5343C2.53635 50.5343 2.80241 50.5867 3.04711 50.6916C3.29182 50.7926 3.50544 50.9363 3.688 51.1227C3.87444 51.3092 4.01815 51.5267 4.11914 51.7753C4.22013 52.02 4.27062 52.288 4.27062 52.5793C4.27062 52.8667 4.22013 53.1347 4.11914 53.3833C4.01815 53.6319 3.87444 53.8494 3.688 54.0359C3.50544 54.2223 3.29182 54.368 3.04711 54.4728C2.80241 54.5738 2.53635 54.6243 2.24892 54.6243ZM2.24892 53.797C2.47809 53.797 2.67424 53.7407 2.83737 53.628C3.00439 53.5154 3.13062 53.3658 3.21608 53.1794C3.30541 52.993 3.35008 52.789 3.35008 52.5677C3.35008 52.3463 3.30541 52.1443 3.21608 51.9617C3.13062 51.7753 3.00439 51.6277 2.83737 51.5189C2.67424 51.4063 2.47809 51.35 2.24892 51.35C2.01976 51.35 1.82167 51.4063 1.65465 51.5189C1.49151 51.6277 1.36528 51.7753 1.27594 51.9617C1.18661 52.1443 1.14194 52.3463 1.14194 52.5677C1.14194 52.789 1.18661 52.993 1.27594 53.1794C1.36528 53.3658 1.49151 53.5154 1.65465 53.628C1.82167 53.7407 2.01976 53.797 2.24892 53.797ZM4.87923 54.5253V50.6392H7.48938V51.4141H5.75899V52.2938H7.07572V53.0454H5.75899V54.5253H4.87923ZM8.01993 54.5253V50.6392H10.6301V51.4141H8.89969V52.2938H10.2164V53.0454H8.89969V54.5253H8.01993ZM11.1606 54.5253V50.6392H12.0404V54.5253H11.1606ZM15.7065 53.261L16.3066 53.8086C16.1979 53.9562 16.0581 54.0922 15.8872 54.2165C15.7201 54.3408 15.5318 54.4398 15.322 54.5136C15.1123 54.5874 14.887 54.6243 14.6462 54.6243C14.2539 54.6243 13.9062 54.5369 13.6033 54.3621C13.3042 54.1873 13.0692 53.9485 12.8983 53.6455C12.7313 53.3387 12.6478 52.9891 12.6478 52.5968C12.6478 52.3094 12.6963 52.0413 12.7934 51.7928C12.8905 51.5403 13.0265 51.3208 13.2013 51.1344C13.3799 50.948 13.5916 50.8023 13.8363 50.6974C14.0849 50.5926 14.3587 50.5401 14.6578 50.5401C15.0152 50.5401 15.3298 50.6062 15.6017 50.7382C15.8736 50.8703 16.0988 51.0606 16.2775 51.3092L15.6774 51.886C15.5609 51.7228 15.423 51.5927 15.2637 51.4956C15.1045 51.3946 14.9142 51.3441 14.6928 51.3441C14.4597 51.3441 14.2578 51.4005 14.0869 51.5131C13.9198 51.6219 13.7897 51.7695 13.6965 51.9559C13.6072 52.1423 13.5625 52.3482 13.5625 52.5735C13.5625 52.8026 13.6072 53.0085 13.6965 53.1911C13.7897 53.3736 13.9198 53.5193 14.0869 53.628C14.2539 53.7329 14.45 53.7853 14.6753 53.7853C14.8617 53.7853 15.0171 53.7601 15.1414 53.7096C15.2657 53.6591 15.3706 53.595 15.456 53.5173C15.5453 53.4358 15.6289 53.3503 15.7065 53.261ZM16.765 54.5253V50.6392H17.6447V54.5253H16.765ZM18.0657 54.5253L19.5164 50.6392H20.4894L21.911 54.5253H20.9496L20.6525 53.6338H19.2833L18.9862 54.5253H18.0657ZM19.4873 52.9522H20.4428L19.9708 51.484L19.4873 52.9522ZM22.3295 54.5253V50.6392H23.2092V53.7445H25.0678V54.5253H22.3295ZM26.3627 53.9776L26.9278 53.3658C27.0288 53.4746 27.1628 53.5814 27.3299 53.6863C27.5008 53.7912 27.6988 53.8436 27.9241 53.8436C28.0135 53.8436 28.1009 53.8281 28.1863 53.797C28.2718 53.762 28.3417 53.7135 28.3961 53.6513C28.4543 53.5853 28.4834 53.5076 28.4834 53.4183C28.4834 53.2746 28.4135 53.1619 28.2737 53.0804C28.1339 52.9988 27.9125 52.9211 27.6095 52.8473C27.3143 52.7735 27.0696 52.6434 26.8754 52.457C26.6812 52.2705 26.5841 52.0297 26.5841 51.7345C26.5841 51.517 26.6365 51.3189 26.7414 51.1402C26.8463 50.9577 27.0036 50.812 27.2133 50.7033C27.4231 50.5906 27.6872 50.5343 28.0057 50.5343C28.2698 50.5343 28.4912 50.5693 28.6699 50.6392C28.8524 50.7052 28.9981 50.779 29.1069 50.8606C29.2156 50.9421 29.2913 51.0082 29.3341 51.0587L28.8272 51.618C28.7417 51.5519 28.6291 51.4781 28.4893 51.3966C28.3494 51.3111 28.1844 51.2684 27.994 51.2684C27.8697 51.2684 27.7532 51.3053 27.6445 51.3791C27.5396 51.449 27.4872 51.5345 27.4872 51.6355C27.4872 51.7675 27.5571 51.8743 27.6969 51.9559C27.8367 52.0375 28.029 52.1054 28.2737 52.1598C28.464 52.2064 28.6466 52.2763 28.8214 52.3696C29 52.4628 29.1457 52.5929 29.2583 52.7599C29.371 52.9269 29.4273 53.1444 29.4273 53.4125C29.4273 53.6455 29.3613 53.8533 29.2292 54.0359C29.0971 54.2184 28.9185 54.3621 28.6932 54.467C28.4679 54.5719 28.2154 54.6243 27.9358 54.6243C27.6794 54.6243 27.4522 54.5932 27.2541 54.5311C27.056 54.4689 26.8832 54.3893 26.7356 54.2922C26.588 54.1912 26.4637 54.0864 26.3627 53.9776ZM30.0497 53.0512V50.6392H30.9352V52.9405C30.9352 53.193 30.9896 53.3969 31.0984 53.5523C31.211 53.7076 31.4052 53.7853 31.681 53.7853C31.9568 53.7853 32.149 53.7076 32.2578 53.5523C32.3665 53.3969 32.4209 53.193 32.4209 52.9405V50.6392H33.3123V53.0512C33.3123 53.362 33.2444 53.6358 33.1084 53.8727C32.9764 54.1097 32.788 54.2961 32.5433 54.432C32.3025 54.5641 32.015 54.6301 31.681 54.6301C31.3508 54.6301 31.0634 54.5641 30.8187 54.432C30.574 54.3 30.3837 54.1155 30.2477 53.8786C30.1157 53.6377 30.0497 53.362 30.0497 53.0512ZM34.0388 54.5253V50.6392H35.4546C35.7769 50.6392 36.0372 50.6994 36.2353 50.8198C36.4373 50.9363 36.5849 51.0897 36.6781 51.2801C36.7713 51.4704 36.8179 51.6743 36.8179 51.8918C36.8179 52.1676 36.7558 52.4006 36.6315 52.591C36.5072 52.7774 36.344 52.9192 36.1421 53.0163C35.944 53.1095 35.7284 53.1561 35.4953 53.1561H34.8952V54.5253H34.0388ZM34.8952 52.4453H35.408C35.5672 52.4453 35.6954 52.3948 35.7925 52.2938C35.8896 52.1928 35.9381 52.0647 35.9381 51.9093C35.9381 51.7462 35.8896 51.6141 35.7925 51.5131C35.6954 51.4082 35.5653 51.3558 35.4021 51.3558H34.8952V52.4453ZM37.4071 54.5253V50.6392H40.0638V51.4082H38.2868V52.1656H39.6677V52.9114H38.2868V53.7504H40.192V54.5253H37.4071ZM40.7867 54.5253V50.6392H42.2316C42.5346 50.6392 42.7871 50.6955 42.9891 50.8081C43.191 50.9169 43.3425 51.0645 43.4435 51.2509C43.5445 51.4335 43.595 51.6355 43.595 51.8569C43.595 52.1054 43.5387 52.3249 43.426 52.5152C43.3173 52.7055 43.1619 52.857 42.9599 52.9697L43.8222 54.5253H42.8551L42.1326 53.0978H41.6432V54.5253H40.7867ZM41.6432 52.3929H42.185C42.3482 52.3929 42.4763 52.3443 42.5696 52.2472C42.6628 52.1501 42.7094 52.0278 42.7094 51.8802C42.7094 51.7209 42.6608 51.5947 42.5637 51.5015C42.4705 51.4082 42.3443 51.3616 42.185 51.3616H41.6432V52.3929ZM43.9878 54.5253L45.4385 50.6392H46.4115L47.8331 54.5253H46.8718L46.5746 53.6338H45.2055L44.9083 54.5253H43.9878ZM45.4094 52.9522H46.3649L45.893 51.484L45.4094 52.9522ZM48.2516 54.5253V50.6392H49.0906L50.7743 53.1619V50.6392H51.6425V54.5253H50.8443L49.1197 51.9559V54.5253H48.2516ZM52.3994 54.5253V50.6392H53.2383L54.9221 53.1619V50.6392H55.7902V54.5253H54.992L53.2675 51.9559V54.5253H52.3994ZM56.518 53.0512V50.6392H57.4036V52.9405C57.4036 53.193 57.458 53.3969 57.5667 53.5523C57.6794 53.7076 57.8736 53.7853 58.1493 53.7853C58.4251 53.7853 58.6174 53.7076 58.7261 53.5523C58.8349 53.3969 58.8893 53.193 58.8893 52.9405V50.6392H59.7807V53.0512C59.7807 53.362 59.7127 53.6358 59.5768 53.8727C59.4447 54.1097 59.2563 54.2961 59.0116 54.432C58.7708 54.5641 58.4834 54.6301 58.1493 54.6301C57.8192 54.6301 57.5318 54.5641 57.2871 54.432C57.0424 54.3 56.852 54.1155 56.7161 53.8786C56.584 53.6377 56.518 53.362 56.518 53.0512ZM59.9928 54.5253L61.4436 50.6392H62.4165L63.8381 54.5253H62.8768L62.5797 53.6338H61.2105L60.9134 54.5253H59.9928ZM61.4144 52.9522H62.3699L61.898 51.484L61.4144 52.9522ZM64.6272 54.5253V51.4141H63.3687V50.6392H66.7654V51.4141H65.5128V54.5253H64.6272ZM67.2665 54.5253V50.6392H68.1462V54.5253H67.2665ZM70.7753 54.6243C70.4879 54.6243 70.2218 54.5738 69.9771 54.4728C69.7324 54.368 69.5168 54.2223 69.3304 54.0359C69.1479 53.8494 69.0061 53.6319 68.9051 53.3833C68.8041 53.1347 68.7536 52.8667 68.7536 52.5793C68.7536 52.288 68.8041 52.02 68.9051 51.7753C69.0061 51.5267 69.1479 51.3092 69.3304 51.1227C69.513 50.9363 69.7266 50.7926 69.9713 50.6916C70.2199 50.5867 70.4879 50.5343 70.7753 50.5343C71.0627 50.5343 71.3288 50.5867 71.5735 50.6916C71.8182 50.7926 72.0318 50.9363 72.2144 51.1227C72.4008 51.3092 72.5445 51.5267 72.6455 51.7753C72.7465 52.02 72.797 52.288 72.797 52.5793C72.797 52.8667 72.7465 53.1347 72.6455 53.3833C72.5445 53.6319 72.4008 53.8494 72.2144 54.0359C72.0318 54.2223 71.8182 54.368 71.5735 54.4728C71.3288 54.5738 71.0627 54.6243 70.7753 54.6243ZM70.7753 53.797C71.0045 53.797 71.2006 53.7407 71.3638 53.628C71.5308 53.5154 71.657 53.3658 71.7425 53.1794C71.8318 52.993 71.8765 52.789 71.8765 52.5677C71.8765 52.3463 71.8318 52.1443 71.7425 51.9617C71.657 51.7753 71.5308 51.6277 71.3638 51.5189C71.2006 51.4063 71.0045 51.35 70.7753 51.35C70.5461 51.35 70.3481 51.4063 70.181 51.5189C70.0179 51.6277 69.8917 51.7753 69.8023 51.9617C69.713 52.1443 69.6683 52.3463 69.6683 52.5677C69.6683 52.789 69.713 52.993 69.8023 53.1794C69.8917 53.3658 70.0179 53.5154 70.181 53.628C70.3481 53.7407 70.5461 53.797 70.7753 53.797ZM73.4056 54.5253V50.6392H74.2446L75.9284 53.1619V50.6392H76.7965V54.5253H75.9983L74.2737 51.9559V54.5253H73.4056ZM78.606 54.5253V50.6392H80.0218C80.3441 50.6392 80.6044 50.6994 80.8025 50.8198C81.0044 50.9363 81.152 51.0897 81.2453 51.2801C81.3385 51.4704 81.3851 51.6743 81.3851 51.8918C81.3851 52.1676 81.3229 52.4006 81.1987 52.591C81.0744 52.7774 80.9112 52.9192 80.7093 53.0163C80.5112 53.1095 80.2956 53.1561 80.0625 53.1561H79.4624V54.5253H78.606ZM79.4624 52.4453H79.9751C80.1344 52.4453 80.2626 52.3948 80.3597 52.2938C80.4568 52.1928 80.5053 52.0647 80.5053 51.9093C80.5053 51.7462 80.4568 51.6141 80.3597 51.5131C80.2626 51.4082 80.1325 51.3558 79.9693 51.3558H79.4624V52.4453ZM81.1413 54.5253L82.5921 50.6392H83.5651L84.9867 54.5253H84.0253L83.7282 53.6338H82.359L82.0619 54.5253H81.1413ZM82.5629 52.9522H83.5184L83.0465 51.484L82.5629 52.9522ZM85.4051 54.5253V50.6392H86.85C87.153 50.6392 87.4055 50.6955 87.6075 50.8081C87.8094 50.9169 87.9609 51.0645 88.0619 51.2509C88.1629 51.4335 88.2134 51.6355 88.2134 51.8569C88.2134 52.1054 88.1571 52.3249 88.0444 52.5152C87.9357 52.7055 87.7803 52.857 87.5783 52.9697L88.4406 54.5253H87.4734L86.751 53.0978H86.2616V54.5253H85.4051ZM86.2616 52.3929H86.8034C86.9666 52.3929 87.0947 52.3443 87.188 52.2472C87.2812 52.1501 87.3278 52.0278 87.3278 51.8802C87.3278 51.7209 87.2792 51.5947 87.1821 51.5015C87.0889 51.4082 86.9627 51.3616 86.8034 51.3616H86.2616V52.3929ZM89.8324 54.5253V51.4141H88.574V50.6392H91.9707V51.4141H90.718V54.5253H89.8324ZM92.4717 54.5253V50.6392H93.3107L94.9945 53.1619V50.6392H95.8626V54.5253H95.0644L93.3398 51.9559V54.5253H92.4717ZM96.6195 54.5253V50.6392H99.2762V51.4082H97.4992V52.1656H98.8801V52.9114H97.4992V53.7504H99.4044V54.5253H96.6195ZM99.9991 54.5253V50.6392H101.444C101.747 50.6392 101.999 50.6955 102.201 50.8081C102.403 50.9169 102.555 51.0645 102.656 51.2509C102.757 51.4335 102.807 51.6355 102.807 51.8569C102.807 52.1054 102.751 52.3249 102.638 52.5152C102.53 52.7055 102.374 52.857 102.172 52.9697L103.035 54.5253H102.067L101.345 53.0978H100.856V54.5253H99.9991ZM100.856 52.3929H101.397C101.561 52.3929 101.689 52.3443 101.782 52.2472C101.875 52.1501 101.922 52.0278 101.922 51.8802C101.922 51.7209 101.873 51.5947 101.776 51.5015C101.683 51.4082 101.557 51.3616 101.397 51.3616H100.856V52.3929Z" fill="white"/>
<defs>
<clipPath id="clip0_18091_282025">
<rect width="35.058" height="40.0083" fill="white" transform="translate(68.5946 0.0502472)"/>
</clipPath>
</defs>
</svg>
