<svg width="120" height="54" viewBox="0 0 120 54" fill="none" xmlns="http://www.w3.org/2000/svg">
<path d="M13.7176 24.3967C12.0239 24.3967 10.4544 24.1031 9.00917 23.516C7.58648 22.9289 6.34445 22.1046 5.28308 21.0432C4.24429 19.9593 3.43132 18.6947 2.84418 17.2494C2.25704 15.8041 1.96347 14.2234 1.96347 12.5071C1.96347 10.7908 2.25704 9.21007 2.84418 7.7648C3.43132 6.31953 4.24429 5.06621 5.28308 4.00484C6.34445 2.94347 7.58648 2.11921 9.00917 1.53207C10.4544 0.944928 12.0239 0.651357 13.7176 0.651357C15.4113 0.651357 16.9694 0.944928 18.3921 1.53207C19.8374 2.11921 21.0907 2.94347 22.1521 4.00484C23.2135 5.06621 24.0264 6.31953 24.591 7.7648C25.1781 9.21007 25.4717 10.7908 25.4717 12.5071C25.4717 14.2234 25.1781 15.8041 24.591 17.2494C24.0264 18.6947 23.2135 19.9593 22.1521 21.0432C21.0907 22.1046 19.8374 22.9289 18.3921 23.516C16.9694 24.1031 15.4113 24.3967 13.7176 24.3967ZM13.7176 18.7737C14.9145 18.7737 15.9194 18.4914 16.7323 17.9269C17.5679 17.3623 18.2002 16.6058 18.6293 15.6573C19.0583 14.7089 19.2728 13.6588 19.2728 12.5071C19.2728 11.3554 19.0583 10.3053 18.6293 9.35686C18.2002 8.4084 17.5679 7.65189 16.7323 7.08733C15.9194 6.52277 14.9145 6.24049 13.7176 6.24049C12.5433 6.24049 11.5384 6.52277 10.7028 7.08733C9.88988 7.65189 9.25757 8.4084 8.80592 9.35686C8.37686 10.3053 8.16233 11.3554 8.16233 12.5071C8.16233 13.6588 8.37686 14.7089 8.80592 15.6573C9.25757 16.6058 9.88988 17.3623 10.7028 17.9269C11.5384 18.4914 12.5433 18.7737 13.7176 18.7737ZM28.3076 23.8547V1.26108H33.7612L42.4328 13.862V1.26108H48.3607V23.8547H43.2458L34.2354 10.8812V23.8547H28.3076ZM63.454 23.8547V6.51148H56.5099V1.26108H76.3937V6.51148H69.5174V23.8547H63.454ZM78.7633 23.8547V1.26108H84.7589V9.52623H93.0918V1.26108H99.0874V23.8547H93.0918V15.0137H84.7589V23.8547H78.7633ZM102.804 23.8547V1.26108H119.064V6.44374H108.8V9.93271H117.234V14.8105H108.8V18.6721H119.775V23.8547H102.804ZM0.947262 53.8547L9.24628 31.2611H16.1226L24.1168 53.8547H17.6469L16.1904 49.1802H8.63656L7.14612 53.8547H0.947262ZM9.856 44.8105H14.9709L12.4643 36.5115L9.856 44.8105ZM25.9589 53.8547V31.2611H35.1725C37.5888 31.2611 39.5309 31.9047 40.9988 33.1919C42.4666 34.4565 43.2005 36.3082 43.2005 38.7471C43.2005 40.2827 42.8618 41.6264 42.1843 42.7781C41.5069 43.9072 40.581 44.7879 39.4067 45.4202C38.2324 46.0299 36.8775 46.3348 35.3419 46.3348H31.819V53.8547H25.9589ZM31.819 41.6264H34.6644C35.4774 41.6264 36.121 41.3667 36.5952 40.8473C37.0694 40.3279 37.3065 39.6617 37.3065 38.8488C37.3065 37.9906 37.0807 37.3019 36.6291 36.7825C36.1774 36.2631 35.5112 36.0034 34.6305 36.0034H31.819V41.6264ZM45.8318 53.8547V31.2611H55.0454C57.4617 31.2611 59.4038 31.9047 60.8717 33.1919C62.3395 34.4565 63.0735 36.3082 63.0735 38.7471C63.0735 40.2827 62.7347 41.6264 62.0573 42.7781C61.3798 43.9072 60.4539 44.7879 59.2796 45.4202C58.1053 46.0299 56.7504 46.3348 55.2148 46.3348H51.6919V53.8547H45.8318ZM51.6919 41.6264H54.5373C55.3503 41.6264 55.9939 41.3667 56.4681 40.8473C56.9423 40.3279 57.1795 39.6617 57.1795 38.8488C57.1795 37.9906 56.9536 37.3019 56.502 36.7825C56.0503 36.2631 55.3842 36.0034 54.5035 36.0034H51.6919V41.6264Z" fill="#FFD000"/>
</svg>
