<svg width="156" height="21" viewBox="0 0 156 21" fill="none" xmlns="http://www.w3.org/2000/svg">
<path d="M10.6511 20.3029C9.25058 20.3029 7.95275 20.0601 6.75762 19.5746C5.58117 19.0891 4.5541 18.4075 3.67643 17.5298C2.81743 16.6335 2.14517 15.5878 1.65965 14.3926C1.17413 13.1975 0.931372 11.8903 0.931372 10.4711C0.931372 9.0519 1.17413 7.74473 1.65965 6.5496C2.14517 5.35447 2.81743 4.31807 3.67643 3.4404C4.5541 2.56273 5.58117 1.88113 6.75762 1.39561C7.95275 0.910087 9.25058 0.667327 10.6511 0.667327C12.0517 0.667327 13.3402 0.910087 14.5166 1.39561C15.7117 1.88113 16.7481 2.56273 17.6258 3.4404C18.5035 4.31807 19.1757 5.35447 19.6426 6.5496C20.1281 7.74473 20.3709 9.0519 20.3709 10.4711C20.3709 11.8903 20.1281 13.1975 19.6426 14.3926C19.1757 15.5878 18.5035 16.6335 17.6258 17.5298C16.7481 18.4075 15.7117 19.0891 14.5166 19.5746C13.3402 20.0601 12.0517 20.3029 10.6511 20.3029ZM10.6511 15.6531C11.6408 15.6531 12.4718 15.4197 13.1441 14.9528C13.835 14.486 14.3579 13.8604 14.7127 13.0761C15.0675 12.2918 15.2449 11.4235 15.2449 10.4711C15.2449 9.51875 15.0675 8.65041 14.7127 7.86611C14.3579 7.0818 13.835 6.45623 13.1441 5.98938C12.4718 5.52254 11.6408 5.28911 10.6511 5.28911C9.68008 5.28911 8.8491 5.52254 8.15816 5.98938C7.4859 6.45623 6.96303 7.0818 6.58956 7.86611C6.23475 8.65041 6.05735 9.51875 6.05735 10.4711C6.05735 11.4235 6.23475 12.2918 6.58956 13.0761C6.96303 13.8604 7.4859 14.486 8.15816 14.9528C8.8491 15.4197 9.68008 15.6531 10.6511 15.6531ZM22.7159 19.8547V1.17152H27.2256L34.3964 11.5915V1.17152H39.2983V19.8547H35.0687L27.6178 9.12659V19.8547H22.7159ZM51.7793 19.8547V5.5132H46.0371V1.17152H62.4794V5.5132H56.7933V19.8547H51.7793ZM64.4389 19.8547V1.17152H69.3968V8.00616H76.2875V1.17152H81.2454V19.8547H76.2875V12.5439H69.3968V19.8547H64.4389ZM84.3189 19.8547V1.17152H97.7641V5.45718H89.2768V8.34229H96.2515V12.3758H89.2768V15.5691H98.3523V19.8547H84.3189ZM103.855 19.8547L110.717 1.17152H116.404L123.014 19.8547H117.664L116.46 15.9892H110.213L108.981 19.8547H103.855ZM111.222 12.3758H115.451L113.378 5.5132L111.222 12.3758ZM124.537 19.8547V1.17152H132.156C134.154 1.17152 135.76 1.70373 136.974 2.76814C138.188 3.81388 138.795 5.34513 138.795 7.36191C138.795 8.63174 138.515 9.74283 137.955 10.6952C137.394 11.6289 136.629 12.3572 135.658 12.88C134.687 13.3842 133.566 13.6363 132.296 13.6363H129.383V19.8547H124.537ZM129.383 9.74283H131.736C132.408 9.74283 132.941 9.52808 133.333 9.09858C133.725 8.66908 133.921 8.1182 133.921 7.44594C133.921 6.73634 133.734 6.16678 133.361 5.73729C132.987 5.30779 132.436 5.09304 131.708 5.09304H129.383V9.74283ZM140.971 19.8547V1.17152H148.59C150.588 1.17152 152.194 1.70373 153.408 2.76814C154.621 3.81388 155.228 5.34513 155.228 7.36191C155.228 8.63174 154.948 9.74283 154.388 10.6952C153.828 11.6289 153.062 12.3572 152.091 12.88C151.12 13.3842 150 13.6363 148.73 13.6363H145.817V19.8547H140.971ZM145.817 9.74283H148.17C148.842 9.74283 149.374 9.52808 149.766 9.09858C150.158 8.66908 150.354 8.1182 150.354 7.44594C150.354 6.73634 150.168 6.16678 149.794 5.73729C149.421 5.30779 148.87 5.09304 148.142 5.09304H145.817V9.74283Z" fill="#FFD000"/>
</svg>
