<svg width="160" height="85" viewBox="0 0 160 85" fill="none" xmlns="http://www.w3.org/2000/svg">
<path d="M2.51142 24.1631V1.56943H8.50703V10.0378L15.2479 1.56943H22.2597L14.7398 10.2749L23.4453 24.1631H16.1625L10.6411 15.0172L8.50703 17.5239V24.1631H2.51142ZM25.4938 24.1631V1.56943H30.9475L39.6191 14.1704V1.56943H45.547V24.1631H40.4321L31.4217 11.1895V24.1631H25.4938ZM60.1435 24.7051C58.4499 24.7051 56.8804 24.4115 55.4351 23.8244C54.0124 23.2372 52.7704 22.413 51.709 21.3516C50.6702 20.2676 49.8573 19.003 49.2701 17.5577C48.683 16.1125 48.3894 14.5317 48.3894 12.8154C48.3894 11.0992 48.683 9.51842 49.2701 8.07315C49.8573 6.62788 50.6702 5.37456 51.709 4.31319C52.7704 3.25182 54.0124 2.42756 55.4351 1.84042C56.8804 1.25328 58.4499 0.959707 60.1435 0.959707C61.8372 0.959707 63.3954 1.25328 64.8181 1.84042C66.2634 2.42756 67.5167 3.25182 68.5781 4.31319C69.6394 5.37456 70.4524 6.62788 71.017 8.07315C71.6041 9.51842 71.8977 11.0992 71.8977 12.8154C71.8977 14.5317 71.6041 16.1125 71.017 17.5577C70.4524 19.003 69.6394 20.2676 68.5781 21.3516C67.5167 22.413 66.2634 23.2372 64.8181 23.8244C63.3954 24.4115 61.8372 24.7051 60.1435 24.7051ZM60.1435 19.0821C61.3404 19.0821 62.3453 18.7998 63.1583 18.2352C63.9938 17.6707 64.6261 16.9141 65.0552 15.9657C65.4843 15.0172 65.6988 13.9671 65.6988 12.8154C65.6988 11.6637 65.4843 10.6137 65.0552 9.66521C64.6261 8.71675 63.9938 7.96024 63.1583 7.39568C62.3453 6.83112 61.3404 6.54884 60.1435 6.54884C58.9693 6.54884 57.9643 6.83112 57.1288 7.39568C56.3158 7.96024 55.6835 8.71675 55.2319 9.66521C54.8028 10.6137 54.5883 11.6637 54.5883 12.8154C54.5883 13.9671 54.8028 15.0172 55.2319 15.9657C55.6835 16.9141 56.3158 17.6707 57.1288 18.2352C57.9643 18.7998 58.9693 19.0821 60.1435 19.0821ZM78.0973 24.1631L72.6098 1.56943H78.9442L81.8573 16.7109L85.414 2.11141H90.8676L94.4582 16.7109L97.3375 1.56943H103.469L97.8456 24.1631H91.579L88.0223 9.86845L84.4655 24.1631H78.0973ZM105.49 24.1631V1.56943H111.485V24.1631H105.49ZM115.207 24.1631V1.56943H120.661L129.332 14.1704V1.56943H135.26V24.1631H130.145L121.135 11.1895V24.1631H115.207ZM150.5 15.8979V11.2573H159.782V21.4532C158.427 22.6049 156.869 23.4405 155.107 23.9598C153.346 24.4567 151.596 24.7051 149.857 24.7051C147.418 24.7051 145.318 24.2195 143.556 23.2485C141.795 22.2775 140.44 20.9112 139.492 19.1498C138.566 17.3658 138.103 15.2543 138.103 12.8154C138.103 10.512 138.6 8.46834 139.593 6.68434C140.587 4.90033 141.964 3.50022 143.726 2.48402C145.51 1.46781 147.553 0.959707 149.857 0.959707C151.731 0.959707 153.481 1.27586 155.107 1.90817C156.756 2.51789 158.133 3.54539 159.24 4.99066L155.344 8.91999C154.644 8.21994 153.888 7.64409 153.075 7.19244C152.284 6.74079 151.359 6.51497 150.297 6.51497C149.01 6.51497 147.915 6.80854 147.011 7.39568C146.108 7.96024 145.419 8.72804 144.945 9.69908C144.494 10.6475 144.268 11.7202 144.268 12.9171C144.268 14.8366 144.821 16.3835 145.927 17.5577C147.034 18.7094 148.502 19.2853 150.331 19.2853C151.076 19.2853 151.788 19.195 152.465 19.0143C153.143 18.8111 153.797 18.4949 154.43 18.0658V15.8979H150.5ZM8.77802 54.1631V45.1527L0.749992 31.5694H7.62632L12.0299 39.6313L16.1625 31.5694H22.8355L14.7736 45.1188V54.1631H8.77802ZM33.2908 54.7051C31.5971 54.7051 30.0277 54.4115 28.5824 53.8244C27.1597 53.2372 25.9177 52.413 24.8563 51.3516C23.8175 50.2676 23.0046 49.003 22.4174 47.5577C21.8303 46.1125 21.5367 44.5317 21.5367 42.8154C21.5367 41.0992 21.8303 39.5184 22.4174 38.0732C23.0046 36.6279 23.8175 35.3746 24.8563 34.3132C25.9177 33.2518 27.1597 32.4276 28.5824 31.8404C30.0277 31.2533 31.5971 30.9597 33.2908 30.9597C34.9845 30.9597 36.5427 31.2533 37.9654 31.8404C39.4106 32.4276 40.664 33.2518 41.7253 34.3132C42.7867 35.3746 43.5997 36.6279 44.1642 38.0732C44.7514 39.5184 45.0449 41.0992 45.0449 42.8154C45.0449 44.5317 44.7514 46.1125 44.1642 47.5577C43.5997 49.003 42.7867 50.2676 41.7253 51.3516C40.664 52.413 39.4106 53.2372 37.9654 53.8244C36.5427 54.4115 34.9845 54.7051 33.2908 54.7051ZM33.2908 49.0821C34.4877 49.0821 35.4926 48.7998 36.3056 48.2352C37.1411 47.6707 37.7734 46.9141 38.2025 45.9657C38.6316 45.0172 38.8461 43.9671 38.8461 42.8154C38.8461 41.6637 38.6316 40.6137 38.2025 39.6652C37.7734 38.7167 37.1411 37.9602 36.3056 37.3957C35.4926 36.8311 34.4877 36.5488 33.2908 36.5488C32.1165 36.5488 31.1116 36.8311 30.2761 37.3957C29.4631 37.9602 28.8308 38.7167 28.3792 39.6652C27.9501 40.6137 27.7356 41.6637 27.7356 42.8154C27.7356 43.9671 27.9501 45.0172 28.3792 45.9657C28.8308 46.9141 29.4631 47.6707 30.2761 48.2352C31.1116 48.7998 32.1165 49.0821 33.2908 49.0821ZM47.7453 45.356V31.5694H53.7409V44.814C53.7409 46.056 54.0232 47.0722 54.5878 47.8626C55.1749 48.653 56.1346 49.0482 57.467 49.0482C58.7994 49.0482 59.7478 48.653 60.3124 47.8626C60.8769 47.0496 61.1592 46.0334 61.1592 44.814V31.5694H67.2226V45.356C67.2226 47.2755 66.8048 48.9466 65.9693 50.3692C65.1337 51.7694 63.982 52.8533 62.5142 53.6211C61.0689 54.3663 59.3978 54.7389 57.5009 54.7389C55.604 54.7389 53.9216 54.3663 52.4537 53.6211C50.9859 52.8759 49.8342 51.8032 48.9986 50.4031C48.1631 48.9804 47.7453 47.298 47.7453 45.356ZM70.797 54.1631V31.5694H80.1461C82.5624 31.5694 84.5045 32.2017 85.9724 33.4664C87.4402 34.7084 88.1742 36.5488 88.1742 38.9877C88.1742 40.4556 87.8467 41.7428 87.1918 42.8493C86.5369 43.9559 85.6675 44.8366 84.5836 45.4915L89.4275 54.1631H82.9915L79.1638 46.4738H76.6572V54.1631H70.797ZM76.6572 41.7654H79.5703C80.3607 41.7654 81.0043 41.5283 81.5011 41.054C81.9979 40.5572 82.2463 39.9023 82.2463 39.0894C82.2463 38.2312 82.0092 37.5538 81.535 37.0569C81.0607 36.5601 80.3945 36.3117 79.5364 36.3117H76.6572V41.7654ZM0.648372 81.3855L4.27284 77.0158C4.90515 77.6481 5.7294 78.2239 6.74561 78.7433C7.7844 79.2627 8.90223 79.5224 10.0991 79.5224C10.7088 79.5224 11.296 79.3982 11.8605 79.1498C12.4251 78.9014 12.7074 78.4272 12.7074 77.7271C12.7074 77.14 12.4025 76.6545 11.7928 76.2706C11.183 75.8641 10.3136 75.4802 9.1845 75.1188L7.93118 74.7124C7.00531 74.3962 6.07943 73.9784 5.15355 73.459C4.25026 72.9171 3.49375 72.2283 2.88403 71.3928C2.29688 70.5572 2.00331 69.5297 2.00331 68.3103C2.00331 66.9102 2.33076 65.6568 2.98565 64.5503C3.66312 63.4438 4.65674 62.5743 5.96652 61.942C7.2763 61.2872 8.86835 60.9597 10.7427 60.9597C12.2331 60.9597 13.5203 61.1291 14.6043 61.4678C15.7108 61.8065 16.6254 62.2017 17.348 62.6534C18.0707 63.105 18.6014 63.5115 18.9401 63.8728L15.8915 67.7344C15.1011 67.1473 14.2768 66.673 13.4187 66.3117C12.5606 65.9278 11.6799 65.7359 10.7766 65.7359C10.1894 65.7359 9.62486 65.8714 9.08288 66.1424C8.56349 66.3908 8.30379 66.8311 8.30379 67.4634C8.30379 68.1635 8.61995 68.6716 9.25225 68.9877C9.88456 69.3039 10.6862 69.62 11.6573 69.9362L12.7412 70.2749C13.509 70.5008 14.2768 70.7943 15.0446 71.1556C15.835 71.4944 16.5576 71.9347 17.2125 72.4767C17.8674 73.0187 18.3868 73.7075 18.7707 74.543C19.1772 75.356 19.3804 76.3609 19.3804 77.5577C19.3804 78.9353 18.9627 80.166 18.1271 81.25C17.3142 82.3339 16.2076 83.1808 14.8075 83.7905C13.43 84.4002 11.8944 84.7051 10.2007 84.7051C7.94247 84.7051 6.04556 84.4002 4.50996 83.7905C2.99694 83.1808 1.70974 82.3791 0.648372 81.3855ZM22.0173 75.356V61.5694H28.0129V74.814C28.0129 76.056 28.2952 77.0722 28.8597 77.8626C29.4469 78.653 30.4066 79.0482 31.739 79.0482C33.0714 79.0482 34.0198 78.653 34.5844 77.8626C35.1489 77.0496 35.4312 76.0334 35.4312 74.814V61.5694H41.4946V75.356C41.4946 77.2755 41.0768 78.9466 40.2413 80.3692C39.4057 81.7694 38.254 82.8533 36.7861 83.6211C35.3409 84.3663 33.6698 84.7389 31.7729 84.7389C29.8759 84.7389 28.1936 84.3663 26.7257 83.6211C25.2579 82.8759 24.1062 81.8032 23.2706 80.4031C22.4351 78.9804 22.0173 77.298 22.0173 75.356ZM45.069 84.1631V61.5694H54.2826C56.6989 61.5694 58.641 62.213 60.1089 63.5002C61.5767 64.7648 62.3107 66.6166 62.3107 69.0555C62.3107 70.5911 61.9719 71.9347 61.2945 73.0864C60.617 74.2156 59.6911 75.0963 58.5168 75.7286C57.3425 76.3383 55.9876 76.6432 54.452 76.6432H50.9291V84.1631H45.069ZM50.9291 71.9347H53.7745C54.5875 71.9347 55.2311 71.675 55.7053 71.1556C56.1795 70.6363 56.4167 69.9701 56.4167 69.1571C56.4167 68.299 56.1908 67.6102 55.7392 67.0908C55.2875 66.5714 54.6214 66.3117 53.7406 66.3117H50.9291V71.9347ZM64.9419 84.1631V61.5694H81.2012V66.7521H70.9376V70.2411H79.3721V75.1188H70.9376V78.9804H81.9126V84.1631H64.9419ZM84.6825 84.1631V61.5694H94.0316C96.448 61.5694 98.39 62.2017 99.8579 63.4664C101.326 64.7084 102.06 66.5488 102.06 68.9877C102.06 70.4556 101.732 71.7428 101.077 72.8493C100.422 73.9559 99.553 74.8366 98.4691 75.4915L103.313 84.1631H96.877L93.0493 76.4738H90.5427V84.1631H84.6825ZM90.5427 71.7654H93.4558C94.2462 71.7654 94.8898 71.5283 95.3866 71.054C95.8834 70.5572 96.1318 69.9023 96.1318 69.0894C96.1318 68.2312 95.8947 67.5538 95.4205 67.0569C94.9462 66.5601 94.28 66.3117 93.4219 66.3117H90.5427V71.7654ZM105.343 69.9701L106.224 61.5694H112.185L109.577 69.9701H105.343ZM113.402 81.3855L117.027 77.0158C117.659 77.6481 118.483 78.2239 119.5 78.7433C120.538 79.2627 121.656 79.5224 122.853 79.5224C123.463 79.5224 124.05 79.3982 124.614 79.1498C125.179 78.9014 125.461 78.4272 125.461 77.7271C125.461 77.14 125.156 76.6545 124.547 76.2706C123.937 75.8641 123.068 75.4802 121.938 75.1188L120.685 74.7124C119.759 74.3962 118.833 73.9784 117.907 73.459C117.004 72.9171 116.248 72.2283 115.638 71.3928C115.051 70.5572 114.757 69.5297 114.757 68.3103C114.757 66.9102 115.085 65.6568 115.74 64.5503C116.417 63.4438 117.411 62.5743 118.72 61.942C120.03 61.2872 121.622 60.9597 123.497 60.9597C124.987 60.9597 126.274 61.1291 127.358 61.4678C128.465 61.8065 129.379 62.2017 130.102 62.6534C130.825 63.105 131.355 63.5115 131.694 63.8728L128.645 67.7344C127.855 67.1473 127.031 66.673 126.173 66.3117C125.314 65.9278 124.434 65.7359 123.53 65.7359C122.943 65.7359 122.379 65.8714 121.837 66.1424C121.317 66.3908 121.058 66.8311 121.058 67.4634C121.058 68.1635 121.374 68.6716 122.006 68.9877C122.638 69.3039 123.44 69.62 124.411 69.9362L125.495 70.2749C126.263 70.5008 127.031 70.7943 127.799 71.1556C128.589 71.4944 129.312 71.9347 129.966 72.4767C130.621 73.0187 131.141 73.7075 131.525 74.543C131.931 75.356 132.134 76.3609 132.134 77.5577C132.134 78.9353 131.717 80.166 130.881 81.25C130.068 82.3339 128.962 83.1808 127.561 83.7905C126.184 84.4002 124.648 84.7051 122.955 84.7051C120.696 84.7051 118.799 84.4002 117.264 83.7905C115.751 83.1808 114.464 82.3791 113.402 81.3855Z" fill="white"/>
</svg>
