<svg width="184" height="35" viewBox="0 0 184 35" fill="none" xmlns="http://www.w3.org/2000/svg">
<path d="M55.6412 23.689C54.8056 23.689 54.0322 23.5423 53.3208 23.2487C52.6095 22.9438 51.9828 22.5204 51.4408 21.9784C50.9102 21.4365 50.498 20.8042 50.2045 20.0815C49.9109 19.3589 49.7641 18.5798 49.7641 17.7442C49.7641 16.8974 49.9109 16.1183 50.2045 15.407C50.498 14.6843 50.9102 14.052 51.4408 13.51C51.9715 12.9681 52.5925 12.5503 53.3039 12.2567C54.0265 11.9519 54.8056 11.7994 55.6412 11.7994C56.4767 11.7994 57.2502 11.9519 57.9615 12.2567C58.6729 12.5503 59.2939 12.9681 59.8246 13.51C60.3665 14.052 60.7843 14.6843 61.0779 15.407C61.3714 16.1183 61.5182 16.8974 61.5182 17.7442C61.5182 18.5798 61.3714 19.3589 61.0779 20.0815C60.7843 20.8042 60.3665 21.4365 59.8246 21.9784C59.2939 22.5204 58.6729 22.9438 57.9615 23.2487C57.2502 23.5423 56.4767 23.689 55.6412 23.689ZM55.6412 21.284C56.3073 21.284 56.8776 21.1203 57.3518 20.7929C57.8373 20.4654 58.2043 20.0307 58.4527 19.4887C58.7124 18.9468 58.8422 18.354 58.8422 17.7104C58.8422 17.0668 58.7124 16.4796 58.4527 15.9489C58.2043 15.407 57.8373 14.9779 57.3518 14.6617C56.8776 14.3343 56.3073 14.1706 55.6412 14.1706C54.975 14.1706 54.3991 14.3343 53.9136 14.6617C53.4394 14.9779 53.0724 15.407 52.8127 15.9489C52.553 16.4796 52.4232 17.0668 52.4232 17.7104C52.4232 18.354 52.553 18.9468 52.8127 19.4887C53.0724 20.0307 53.4394 20.4654 53.9136 20.7929C54.3991 21.1203 54.975 21.284 55.6412 21.284ZM63.0842 26.7885V15.4578H65.4215C65.4441 15.6046 65.461 15.7513 65.4723 15.8981C65.4836 16.0336 65.4949 16.1748 65.5062 16.3216C65.7659 15.9941 66.099 15.7457 66.5054 15.5763C66.9119 15.3957 67.3353 15.3053 67.7757 15.3053C68.5548 15.3053 69.204 15.4973 69.7234 15.8812C70.2428 16.2651 70.6324 16.7676 70.8921 17.3886C71.1518 18.0096 71.2816 18.6701 71.2816 19.3702C71.2816 20.1041 71.1574 20.742 70.909 21.284C70.6719 21.826 70.3501 22.272 69.9436 22.622C69.5371 22.9721 69.0911 23.2318 68.6056 23.4011C68.1201 23.5705 67.6289 23.6552 67.1321 23.6552C66.7482 23.6552 66.4321 23.6213 66.1836 23.5536C65.9352 23.4858 65.7094 23.4181 65.5062 23.3503V26.7885H63.0842ZM65.5062 19.1839V21.301C65.8336 21.5155 66.3022 21.6228 66.9119 21.6228C67.5104 21.6228 67.9789 21.4195 68.3177 21.013C68.6677 20.6066 68.8427 20.0759 68.8427 19.421C68.8427 19.071 68.7863 18.7435 68.6734 18.4386C68.5717 18.1225 68.3967 17.8684 68.1483 17.6765C67.9112 17.4845 67.5894 17.3886 67.1829 17.3886C66.6409 17.3886 66.2232 17.5749 65.9296 17.9475C65.6473 18.3201 65.5062 18.7322 65.5062 19.1839ZM79.2307 20.9961L80.2299 22.5373C80.117 22.6164 79.9138 22.7462 79.6202 22.9269C79.3379 23.1076 78.9597 23.2769 78.4854 23.435C78.0112 23.5931 77.4297 23.6721 76.7409 23.6721C75.8377 23.6721 75.0586 23.4915 74.4037 23.1301C73.7488 22.7688 73.2463 22.2664 72.8963 21.6228C72.5463 20.9792 72.3713 20.2396 72.3713 19.404C72.3713 18.6588 72.5293 17.9644 72.8455 17.3208C73.1729 16.6772 73.6415 16.1635 74.2512 15.7796C74.8723 15.3844 75.6118 15.1868 76.47 15.1868C77.3281 15.1868 78.0451 15.3844 78.6209 15.7796C79.2081 16.1635 79.6484 16.6998 79.942 17.3886C80.2469 18.066 80.3993 18.8508 80.3993 19.7428V20.1493H74.7424C74.7537 20.567 74.9456 20.9396 75.3183 21.2671C75.6909 21.5945 76.1933 21.7583 76.8256 21.7583C77.4579 21.7583 77.9717 21.6679 78.3669 21.4873C78.7621 21.2953 79.05 21.1316 79.2307 20.9961ZM74.7424 18.5911H78.0959C78.0959 18.3653 78.0338 18.1394 77.9096 17.9136C77.7967 17.6765 77.616 17.4789 77.3676 17.3208C77.1305 17.1627 76.8256 17.0837 76.453 17.0837C76.0804 17.0837 75.7643 17.1627 75.5046 17.3208C75.2562 17.4789 75.0642 17.6765 74.9287 17.9136C74.8045 18.1394 74.7424 18.3653 74.7424 18.5911ZM81.8077 23.4011V15.4578H84.145L84.2127 16.3216C84.4724 16.0054 84.8168 15.7513 85.2459 15.5594C85.6749 15.3674 86.1153 15.2715 86.5669 15.2715C87.4702 15.2715 88.1929 15.5425 88.7348 16.0844C89.2768 16.6264 89.5478 17.4281 89.5478 18.4895V23.4011H87.1089V18.8282C87.1089 18.3878 86.996 18.0378 86.7702 17.7781C86.5556 17.5184 86.2508 17.3886 85.8556 17.3886C85.3249 17.3886 84.9184 17.5636 84.6361 17.9136C84.3651 18.2636 84.2296 18.6701 84.2296 19.1331V23.4011H81.8077ZM99.0356 23.4011L98.9678 22.6559C98.4033 23.3108 97.6016 23.6382 96.5628 23.6382C96.1902 23.6382 95.795 23.5648 95.3772 23.4181C94.9707 23.2826 94.6207 23.0342 94.3271 22.6728C94.0336 22.3115 93.8868 21.8147 93.8868 21.1824C93.8868 20.5614 94.0449 20.0364 94.361 19.6073C94.6885 19.1782 95.1288 18.8564 95.6821 18.6419C96.2353 18.4161 96.8564 18.3032 97.5451 18.3032C97.8274 18.3032 98.1097 18.3088 98.392 18.3201C98.6855 18.3314 98.8775 18.3483 98.9678 18.3709V18.2015C98.9678 17.7951 98.8097 17.5071 98.4936 17.3378C98.1887 17.1571 97.8387 17.0668 97.4435 17.0668C96.9128 17.0668 96.4668 17.1345 96.1055 17.27C95.7442 17.4055 95.4393 17.5579 95.1909 17.7273L94.1916 16.2369C94.5191 15.9772 94.9651 15.7401 95.5297 15.5255C96.0942 15.2997 96.8451 15.1868 97.7822 15.1868C98.9904 15.1868 99.8824 15.5142 100.458 16.1691C101.034 16.8127 101.322 17.6821 101.322 18.7774V23.4011H99.0356ZM98.9678 20.5388V19.8952C98.9114 19.8839 98.8041 19.8726 98.646 19.8613C98.4879 19.8388 98.3073 19.8275 98.104 19.8275C97.4266 19.8275 96.9467 19.9234 96.6644 20.1154C96.3821 20.3073 96.241 20.5783 96.241 20.9284C96.241 21.5832 96.6362 21.9107 97.4266 21.9107C97.8105 21.9107 98.1605 21.7921 98.4766 21.555C98.8041 21.3179 98.9678 20.9792 98.9678 20.5388ZM103.077 26.7885V15.4578H105.415C105.437 15.6046 105.454 15.7513 105.466 15.8981C105.477 16.0336 105.488 16.1748 105.499 16.3216C105.759 15.9941 106.092 15.7457 106.499 15.5763C106.905 15.3957 107.329 15.3053 107.769 15.3053C108.548 15.3053 109.197 15.4973 109.717 15.8812C110.236 16.2651 110.626 16.7676 110.885 17.3886C111.145 18.0096 111.275 18.6701 111.275 19.3702C111.275 20.1041 111.151 20.742 110.902 21.284C110.665 21.826 110.343 22.272 109.937 22.622C109.53 22.9721 109.084 23.2318 108.599 23.4011C108.113 23.5705 107.622 23.6552 107.125 23.6552C106.741 23.6552 106.425 23.6213 106.177 23.5536C105.929 23.4858 105.703 23.4181 105.499 23.3503V26.7885H103.077ZM105.499 19.1839V21.301C105.827 21.5155 106.295 21.6228 106.905 21.6228C107.504 21.6228 107.972 21.4195 108.311 21.013C108.661 20.6066 108.836 20.0759 108.836 19.421C108.836 19.071 108.78 18.7435 108.667 18.4386C108.565 18.1225 108.39 17.8684 108.142 17.6765C107.904 17.4845 107.583 17.3886 107.176 17.3886C106.634 17.3886 106.216 17.5749 105.923 17.9475C105.641 18.3201 105.499 18.7322 105.499 19.1839ZM112.72 26.7885V15.4578H115.057C115.08 15.6046 115.097 15.7513 115.108 15.8981C115.12 16.0336 115.131 16.1748 115.142 16.3216C115.402 15.9941 115.735 15.7457 116.141 15.5763C116.548 15.3957 116.971 15.3053 117.412 15.3053C118.191 15.3053 118.84 15.4973 119.359 15.8812C119.879 16.2651 120.268 16.7676 120.528 17.3886C120.788 18.0096 120.918 18.6701 120.918 19.3702C120.918 20.1041 120.793 20.742 120.545 21.284C120.308 21.826 119.986 22.272 119.58 22.622C119.173 22.9721 118.727 23.2318 118.242 23.4011C117.756 23.5705 117.265 23.6552 116.768 23.6552C116.384 23.6552 116.068 23.6213 115.82 23.5536C115.571 23.4858 115.345 23.4181 115.142 23.3503V26.7885H112.72ZM115.142 19.1839V21.301C115.47 21.5155 115.938 21.6228 116.548 21.6228C117.146 21.6228 117.615 21.4195 117.954 21.013C118.304 20.6066 118.479 20.0759 118.479 19.421C118.479 19.071 118.422 18.7435 118.309 18.4386C118.208 18.1225 118.033 17.8684 117.784 17.6765C117.547 17.4845 117.225 17.3886 116.819 17.3886C116.277 17.3886 115.859 17.5749 115.566 17.9475C115.283 18.3201 115.142 18.7322 115.142 19.1839Z" fill="#002855"/>
<path d="M128.559 12.2556L134.205 17.9012L128.559 23.5468" stroke="#002855" stroke-width="2.36088" stroke-linecap="round"/>
</svg>
