<svg width="147" height="60" viewBox="0 0 147 60" fill="none" xmlns="http://www.w3.org/2000/svg">
<path d="M70.9044 4.62686V14.2913H56.8523V0.239116H66.5167C68.9375 0.239116 70.9044 2.20604 70.9044 4.62686Z" fill="white"/>
<path d="M70.9044 28.3431H56.8523V42.3953H70.9044V28.3431Z" fill="white"/>
<path d="M42.8002 0.239116H28.748V14.2913H42.8002V0.239116Z" fill="#FFD000"/>
<path d="M14.6959 11.5016V0.239116H0.643799V38.0078C0.643799 40.4286 2.61072 42.3955 5.03155 42.3955H14.6959V31.133C14.6959 29.5916 15.9442 28.3434 17.4856 28.3434H28.7481V14.2913H17.4856C15.9442 14.2913 14.6959 13.043 14.6959 11.5016Z" fill="white"/>
<path d="M42.8002 28.3431H28.748V42.3953H42.8002V28.3431Z" fill="white"/>
<path d="M15.9631 57.8568C14.9985 57.8568 14.2137 57.5447 13.5706 56.8922C12.9371 56.2492 12.625 55.4549 12.625 54.4714C12.625 53.4879 12.9276 52.6463 13.5706 52.0033C14.2042 51.3508 15.008 51.0388 16.0009 51.0388C16.9465 51.0388 17.722 51.3603 18.365 52.0128C19.008 52.6652 19.3201 53.4501 19.3201 54.4147C19.3201 55.3792 19.008 56.2114 18.365 56.8733C17.722 57.5353 16.9371 57.8568 15.9631 57.8568ZM19.774 50.7645C18.7527 49.7905 17.4666 49.3082 15.9442 49.3082C14.4217 49.3082 13.1356 49.8 12.1333 50.7645C11.1309 51.7385 10.6202 52.9868 10.6202 54.462C10.6202 55.9371 11.1309 57.1286 12.1238 58.0932C13.1167 59.0483 14.3839 59.54 15.8685 59.54C17.3532 59.54 18.7243 59.0577 19.7551 58.0932C20.7858 57.1286 21.3154 55.8993 21.3154 54.4336C21.3154 52.9679 20.7953 51.7385 19.774 50.7645ZM61.5238 49.4217V55.0104C61.5238 56.6085 60.9091 57.7055 59.1219 57.7055C57.3346 57.7055 56.72 56.6085 56.72 55.0104V49.4217H54.7814V55.4265C54.7814 58.3769 56.7767 59.54 59.1219 59.54C61.4671 59.54 63.4623 58.3863 63.4623 55.4265V49.4217H61.5238ZM49.8357 49.4217V57.6771H54.0344V59.4076H47.9066V49.4217H49.8357ZM42.8664 53.9324C43.8215 53.9324 44.6347 53.488 44.6347 52.5423C44.6347 51.5967 44.0863 51.1522 42.8664 51.1522H41.7033V53.9324H42.8664ZM43.4149 49.4217C45.5142 49.4217 46.5638 50.7834 46.5638 52.5329C46.5638 54.2823 45.2589 55.6629 43.3392 55.6629H41.7033V59.4076H39.7742V49.4217H43.4149ZM38.4598 49.4217V51.1522H35.1784V59.4076H33.2493V51.1522H29.9679V49.4217H38.4598ZM68.096 49.2893C69.07 49.2893 70.0061 49.5352 70.9045 50.0175V51.9844C69.8643 51.3603 69.174 50.9726 68.1243 50.9726C67.0747 50.9726 66.7153 51.3319 66.687 51.8236C66.6586 52.2019 66.895 52.5234 67.3962 52.8449C67.538 52.9395 68.0676 53.2137 69.0132 53.6771C69.817 54.0742 70.4222 54.4903 70.7816 54.9631C71.1409 55.436 71.33 56.0033 71.33 56.6653C71.33 57.5258 71.018 58.2161 70.4033 58.7457C69.7886 59.2752 68.9849 59.54 68.0014 59.54C67.3678 59.54 66.8099 59.4738 66.356 59.332C65.8926 59.1901 65.382 58.9537 64.8051 58.6038V56.41C65.8737 57.2989 66.8477 57.8473 67.7934 57.8473C68.6823 57.8473 69.278 57.5069 69.278 56.9017C69.278 56.4951 69.0889 56.1263 68.5971 55.8331C68.1905 55.5873 67.6515 55.313 67.0179 54.9631C66.2614 54.5471 65.6468 54.1688 65.259 53.6865C64.8713 53.2043 64.6728 52.6747 64.6728 52.0506C64.6728 51.209 64.9848 50.547 65.6089 50.0458C66.233 49.5447 67.0558 49.2988 68.0865 49.2988M25.8261 49.2893C26.8001 49.2893 27.7362 49.5352 28.6346 50.0175V51.9844C27.6039 51.3603 26.9041 50.9726 25.8544 50.9726C24.8048 50.9726 24.4454 51.3319 24.4171 51.8236C24.3887 52.2019 24.6251 52.5234 25.1263 52.8449C25.2681 52.9395 25.7977 53.2137 26.7433 53.6771C27.5471 54.0742 28.1523 54.4903 28.5211 54.9631C28.8805 55.436 29.0601 56.0033 29.0601 56.6653C29.0601 57.5258 28.7481 58.2161 28.1334 58.7457C27.5187 59.2752 26.715 59.54 25.7315 59.54C25.0885 59.54 24.54 59.4738 24.0861 59.332C23.6322 59.1901 23.1121 58.9537 22.5353 58.6038V56.41C23.6038 57.2989 24.5778 57.8473 25.5235 57.8473C26.4124 57.8473 27.0081 57.5069 27.0081 56.9017C27.0081 56.4951 26.8284 56.1263 26.3272 55.8331C25.9206 55.5873 25.3816 55.313 24.748 54.9631C23.9915 54.5471 23.3769 54.1688 22.9892 53.6865C22.6014 53.2043 22.4029 52.6747 22.4029 52.0506C22.4029 51.209 22.7149 50.547 23.339 50.0458C23.9632 49.5447 24.7859 49.2988 25.8166 49.2988M2.57289 49.4217V53.4028H7.31053V49.4217H9.23962V59.4076H7.31053V55.417H2.57289V59.4076H0.643799V49.4217H2.57289Z" fill="white"/>
<line x1="87.3022" y1="0.101978" x2="87.3022" y2="59.898" stroke="white" stroke-width="0.478368"/>
<g clip-path="url(#clip0_15430_35431)">
<path d="M146.799 0.134182H102.371V59.8658H146.799V0.134182Z" fill="#0098BB"/>
<path d="M124.65 13.7742L129.945 19.0686L137.535 19.0379L124.65 6.15297L107.946 22.8529L111.761 26.6635L124.65 13.7742Z" fill="white"/>
<path d="M137.54 19.0423L124.651 31.9316L119.418 26.6986L111.792 26.6942L124.651 39.5528L141.351 22.8529L137.54 19.0423Z" fill="#F5EB00"/>
<path d="M109.716 51.0725C108.425 50.7388 108.179 50.6906 108.179 50.2911C108.179 49.8564 108.596 49.7072 108.956 49.7072C109.496 49.7072 109.939 49.8652 109.975 50.4886H111.072C111.072 49.2989 110.084 48.8292 109.009 48.8292C108.078 48.8292 107.081 49.334 107.081 50.3876C107.081 51.3535 107.854 51.652 108.618 51.8539C109.378 52.0559 110.146 52.1481 110.146 52.7056C110.146 53.2632 109.54 53.3466 109.145 53.3466C108.539 53.3466 108.003 53.0788 108.003 52.3939H106.906C106.893 53.6627 107.96 54.2246 109.101 54.2246C110.501 54.2246 111.243 53.5178 111.243 52.5739C111.243 51.4061 110.089 51.1647 109.716 51.0725Z" fill="white"/>
<path d="M113.974 52.3237C113.974 53.0832 113.737 53.3905 113.179 53.3905C112.705 53.3905 112.521 53.0876 112.521 52.473V50.3658H111.498V52.6618C111.498 53.5837 111.77 54.1983 112.863 54.1983C113.298 54.1983 113.746 53.9964 114.005 53.5793H114.026V54.0973H115.001V50.3658H113.978V52.3194L113.974 52.3237Z" fill="white"/>
<path d="M117.503 50.2692C117.043 50.2692 116.639 50.4492 116.393 50.8443H116.38V50.3701H115.405V55.4144H116.428V53.6408H116.441C116.687 54.0095 117.113 54.2027 117.561 54.2027C118.649 54.2027 119.198 53.272 119.198 52.2754C119.198 51.213 118.671 50.2692 117.503 50.2692ZM117.288 53.43C116.625 53.43 116.393 52.8505 116.393 52.2447C116.393 51.6389 116.608 51.0418 117.28 51.0418C117.951 51.0418 118.175 51.6564 118.175 52.2447C118.175 52.833 117.96 53.43 117.288 53.43Z" fill="white"/>
<path d="M121.283 50.2692C120.151 50.2692 119.378 51.1208 119.378 52.2403C119.378 53.3598 120.107 54.2027 121.283 54.2027C122.126 54.2027 122.741 53.8295 123.031 52.9471H122.131C122.065 53.1798 121.736 53.43 121.323 53.43C120.752 53.43 120.436 53.1359 120.405 52.4862H123.097C123.167 51.3403 122.557 50.2692 121.288 50.2692H121.283ZM120.405 51.8364C120.419 51.5467 120.607 51.0418 121.257 51.0418C121.753 51.0418 121.977 51.314 122.074 51.8364H120.405Z" fill="white"/>
<path d="M124.33 51.0638H124.317V50.3701H123.342V54.1017H124.365V52.4203C124.365 51.7618 124.624 51.2218 125.375 51.2218C125.498 51.2218 125.735 51.2701 125.827 51.2921V50.3174C125.761 50.2955 125.59 50.2692 125.52 50.2692C125.024 50.2692 124.519 50.594 124.33 51.0638Z" fill="white"/>
<path d="M127.206 49.8564H129.532V48.895H126.06V54.1236H127.206V51.9636H129.541V51.0681H127.206V49.8564Z" fill="white"/>
<path d="M132.465 52.3192C132.465 53.0875 132.224 53.4036 131.657 53.4036C131.174 53.4036 130.99 53.0963 130.99 52.4729V50.3349H129.949V52.6616C129.949 53.6011 130.226 54.2201 131.332 54.2201C131.771 54.2201 132.228 54.0138 132.491 53.5923H132.513V54.1191H133.501V50.3349H132.461V52.3192H132.465Z" fill="white"/>
<path d="M136.1 50.234C135.661 50.234 135.209 50.4403 134.941 50.8618H134.919V50.335H133.931V54.1192H134.972V52.1349C134.972 51.3666 135.213 51.0505 135.775 51.0505C136.258 51.0505 136.442 51.3579 136.442 51.9812V54.1192H137.483V51.7881C137.483 50.8486 137.206 50.2296 136.1 50.2296V50.234Z" fill="white"/>
<path d="M140.56 50.7959H140.551C140.31 50.4227 139.871 50.2339 139.423 50.2339C138.308 50.2339 137.746 51.1778 137.746 52.1963C137.746 53.2148 138.304 54.2245 139.445 54.2245C139.928 54.2245 140.354 54.0489 140.595 53.6407H140.608V54.1236H141.596V48.895H140.556V50.8003L140.56 50.7959ZM139.7 53.4431C139.054 53.4431 138.782 52.8197 138.782 52.227C138.782 51.6036 139.015 51.0198 139.7 51.0198C140.385 51.0198 140.595 51.6036 140.595 52.2227C140.595 52.8417 140.389 53.4475 139.7 53.4475V53.4431Z" fill="white"/>
<path d="M118.298 42.0025H117.166V47.1521H118.298V42.0025Z" fill="white"/>
<path d="M119.72 45.1986C119.72 44.4391 119.957 44.1318 120.515 44.1318C120.989 44.1318 121.174 44.4347 121.174 45.0493V47.1565H122.196V44.8605C122.196 43.9386 121.924 43.324 120.831 43.324C120.396 43.324 119.949 43.5259 119.69 43.943H119.668V43.425H118.693V47.1565H119.716V45.203L119.72 45.1986Z" fill="white"/>
<path d="M125.265 46.678H125.278V47.1521H126.253V42.0025H125.23V43.8771H125.221C124.984 43.5083 124.55 43.3195 124.111 43.3195C123.013 43.3195 122.46 44.2502 122.46 45.2512C122.46 46.2521 123.009 47.2487 124.133 47.2487C124.607 47.2487 125.028 47.0775 125.265 46.6736V46.678ZM123.483 45.2819C123.483 44.6673 123.716 44.0922 124.383 44.0922C125.05 44.0922 125.265 44.6673 125.265 45.2775C125.265 45.8877 125.063 46.4804 124.383 46.4804C123.746 46.4804 123.483 45.8658 123.483 45.2819Z" fill="white"/>
<path d="M127.921 47.2531C128.356 47.2531 128.803 47.0512 129.062 46.6341H129.084V47.1522H130.059V43.4206H129.036V45.3742C129.036 46.1337 128.799 46.441 128.241 46.441C127.763 46.441 127.583 46.138 127.583 45.5234V43.4162H126.56V45.7122C126.56 46.6341 126.832 47.2487 127.925 47.2487L127.921 47.2531Z" fill="white"/>
<path d="M132.531 44.9088C131.947 44.7727 131.368 44.72 131.368 44.3512C131.368 44.0483 131.706 44.0044 131.938 44.0044C132.307 44.0044 132.61 44.1142 132.636 44.5093H133.611C133.532 43.5918 132.781 43.3196 131.965 43.3196C131.148 43.3196 130.34 43.5654 130.34 44.5181C130.34 45.1766 130.933 45.3829 131.526 45.5146C132.263 45.6727 132.689 45.7824 132.689 46.0897C132.689 46.4497 132.316 46.5639 132.017 46.5639C131.613 46.5639 131.24 46.3839 131.231 45.9361H130.257C130.301 46.9238 131.144 47.2487 132.008 47.2487C132.873 47.2487 133.712 46.9326 133.712 45.9492C133.712 45.2556 133.128 45.0405 132.527 44.9044L132.531 44.9088Z" fill="white"/>
<path d="M134.296 46.3092C134.296 47.0511 134.844 47.196 135.472 47.196C135.674 47.196 135.898 47.1872 136.069 47.1609V46.3619C135.959 46.3838 135.858 46.3926 135.753 46.3926C135.406 46.3926 135.318 46.3048 135.318 45.958V44.1097H136.069V43.4249H135.318V42.3054H134.296V43.4249H133.677V44.1097H134.296V46.3092Z" fill="white"/>
<path d="M138.633 44.2942L139.603 46.9195C139.717 47.2136 139.511 47.6175 139.059 47.6483C139.041 47.6483 139.024 47.6483 139.006 47.6483V48.6141H139.116C139.731 48.5833 140.275 48.3858 140.56 47.6878L142.119 43.4206H141.056L140.24 45.9756H140.227L139.384 43.3811C139.384 43.3811 138.269 43.3591 138.26 43.3591C137.887 43.3591 137.465 43.6445 137.281 44.1142H137.268V43.4206H136.293V47.1522H137.316V45.4708C137.316 44.8122 137.575 44.2723 138.326 44.2723C138.405 44.2723 138.528 44.281 138.629 44.2942H138.633Z" fill="white"/>
<path d="M108.622 46.0151H110.554L110.945 47.1653H112.126L110.194 42.0025H109.031L107.073 47.1653H108.223L108.627 46.0151H108.622ZM109.593 43.2756H109.606L110.256 45.1722H108.917L109.588 43.2756H109.593Z" fill="white"/>
<path d="M113.166 45.2029C113.166 44.4434 113.403 44.1317 113.961 44.1317C114.439 44.1317 114.619 44.4347 114.619 45.0493V47.1609H115.647V44.8605C115.647 43.9342 115.37 43.3196 114.281 43.3196C113.847 43.3196 113.399 43.5215 113.14 43.943H113.118V43.4205H112.143V47.1609H113.171V45.1985L113.166 45.2029Z" fill="white"/>
<path d="M146.799 0.134182H102.371V59.8658H146.799V0.134182Z" fill="#0098BB"/>
<path d="M124.65 13.7742L129.945 19.0686L137.535 19.0379L124.65 6.15297L107.946 22.8529L111.761 26.6635L124.65 13.7742Z" fill="white"/>
<path d="M137.54 19.0423L124.651 31.9316L119.418 26.6986L111.792 26.6942L124.651 39.5528L141.351 22.8529L137.54 19.0423Z" fill="#F5EB00"/>
<path d="M109.716 51.0725C108.425 50.7388 108.179 50.6906 108.179 50.2911C108.179 49.8564 108.596 49.7072 108.956 49.7072C109.496 49.7072 109.939 49.8652 109.975 50.4886H111.072C111.072 49.2989 110.084 48.8292 109.009 48.8292C108.078 48.8292 107.081 49.334 107.081 50.3876C107.081 51.3535 107.854 51.652 108.618 51.8539C109.378 52.0559 110.146 52.1481 110.146 52.7056C110.146 53.2632 109.54 53.3466 109.145 53.3466C108.539 53.3466 108.003 53.0788 108.003 52.3939H106.906C106.893 53.6627 107.96 54.2246 109.101 54.2246C110.501 54.2246 111.243 53.5178 111.243 52.5739C111.243 51.4061 110.089 51.1647 109.716 51.0725Z" fill="white"/>
<path d="M113.974 52.3237C113.974 53.0832 113.737 53.3905 113.179 53.3905C112.705 53.3905 112.521 53.0876 112.521 52.473V50.3658H111.498V52.6618C111.498 53.5837 111.77 54.1983 112.863 54.1983C113.298 54.1983 113.746 53.9964 114.005 53.5793H114.026V54.0973H115.001V50.3658H113.978V52.3194L113.974 52.3237Z" fill="white"/>
<path d="M117.503 50.2692C117.043 50.2692 116.639 50.4492 116.393 50.8443H116.38V50.3701H115.405V55.4144H116.428V53.6408H116.441C116.687 54.0095 117.113 54.2027 117.561 54.2027C118.649 54.2027 119.198 53.272 119.198 52.2754C119.198 51.213 118.671 50.2692 117.503 50.2692ZM117.288 53.43C116.625 53.43 116.393 52.8505 116.393 52.2447C116.393 51.6389 116.608 51.0418 117.28 51.0418C117.951 51.0418 118.175 51.6564 118.175 52.2447C118.175 52.833 117.96 53.43 117.288 53.43Z" fill="white"/>
<path d="M121.283 50.2692C120.151 50.2692 119.378 51.1208 119.378 52.2403C119.378 53.3598 120.107 54.2027 121.283 54.2027C122.126 54.2027 122.741 53.8295 123.031 52.9471H122.131C122.065 53.1798 121.736 53.43 121.323 53.43C120.752 53.43 120.436 53.1359 120.405 52.4862H123.097C123.167 51.3403 122.557 50.2692 121.288 50.2692H121.283ZM120.405 51.8364C120.419 51.5467 120.607 51.0418 121.257 51.0418C121.753 51.0418 121.977 51.314 122.074 51.8364H120.405Z" fill="white"/>
<path d="M124.33 51.0638H124.317V50.3701H123.342V54.1017H124.365V52.4203C124.365 51.7618 124.624 51.2218 125.375 51.2218C125.498 51.2218 125.735 51.2701 125.827 51.2921V50.3174C125.761 50.2955 125.59 50.2692 125.52 50.2692C125.024 50.2692 124.519 50.594 124.33 51.0638Z" fill="white"/>
<path d="M127.206 49.8564H129.532V48.895H126.06V54.1236H127.206V51.9636H129.541V51.0681H127.206V49.8564Z" fill="white"/>
<path d="M132.465 52.3192C132.465 53.0875 132.224 53.4036 131.657 53.4036C131.174 53.4036 130.99 53.0963 130.99 52.4729V50.3349H129.949V52.6616C129.949 53.6011 130.226 54.2201 131.332 54.2201C131.771 54.2201 132.228 54.0138 132.491 53.5923H132.513V54.1191H133.501V50.3349H132.461V52.3192H132.465Z" fill="white"/>
<path d="M136.1 50.234C135.661 50.234 135.209 50.4403 134.941 50.8618H134.919V50.335H133.931V54.1192H134.972V52.1349C134.972 51.3666 135.213 51.0505 135.775 51.0505C136.258 51.0505 136.442 51.3579 136.442 51.9812V54.1192H137.483V51.7881C137.483 50.8486 137.206 50.2296 136.1 50.2296V50.234Z" fill="white"/>
<path d="M140.56 50.7959H140.551C140.31 50.4227 139.871 50.2339 139.423 50.2339C138.308 50.2339 137.746 51.1778 137.746 52.1963C137.746 53.2148 138.304 54.2245 139.445 54.2245C139.928 54.2245 140.354 54.0489 140.595 53.6407H140.608V54.1236H141.596V48.895H140.556V50.8003L140.56 50.7959ZM139.7 53.4431C139.054 53.4431 138.782 52.8197 138.782 52.227C138.782 51.6036 139.015 51.0198 139.7 51.0198C140.385 51.0198 140.595 51.6036 140.595 52.2227C140.595 52.8417 140.389 53.4475 139.7 53.4475V53.4431Z" fill="white"/>
<path d="M118.298 42.0025H117.166V47.1521H118.298V42.0025Z" fill="white"/>
<path d="M119.72 45.1986C119.72 44.4391 119.957 44.1318 120.515 44.1318C120.989 44.1318 121.174 44.4347 121.174 45.0493V47.1565H122.196V44.8605C122.196 43.9386 121.924 43.324 120.831 43.324C120.396 43.324 119.949 43.5259 119.69 43.943H119.668V43.425H118.693V47.1565H119.716V45.203L119.72 45.1986Z" fill="white"/>
<path d="M125.265 46.678H125.278V47.1521H126.253V42.0025H125.23V43.8771H125.221C124.984 43.5083 124.55 43.3195 124.111 43.3195C123.013 43.3195 122.46 44.2502 122.46 45.2512C122.46 46.2521 123.009 47.2487 124.133 47.2487C124.607 47.2487 125.028 47.0775 125.265 46.6736V46.678ZM123.483 45.2819C123.483 44.6673 123.716 44.0922 124.383 44.0922C125.05 44.0922 125.265 44.6673 125.265 45.2775C125.265 45.8877 125.063 46.4804 124.383 46.4804C123.746 46.4804 123.483 45.8658 123.483 45.2819Z" fill="white"/>
<path d="M127.921 47.2531C128.356 47.2531 128.803 47.0512 129.062 46.6341H129.084V47.1522H130.059V43.4206H129.036V45.3742C129.036 46.1337 128.799 46.441 128.241 46.441C127.763 46.441 127.583 46.138 127.583 45.5234V43.4162H126.56V45.7122C126.56 46.6341 126.832 47.2487 127.925 47.2487L127.921 47.2531Z" fill="white"/>
<path d="M132.531 44.9088C131.947 44.7727 131.368 44.72 131.368 44.3512C131.368 44.0483 131.706 44.0044 131.938 44.0044C132.307 44.0044 132.61 44.1142 132.636 44.5093H133.611C133.532 43.5918 132.781 43.3196 131.965 43.3196C131.148 43.3196 130.34 43.5654 130.34 44.5181C130.34 45.1766 130.933 45.3829 131.526 45.5146C132.263 45.6727 132.689 45.7824 132.689 46.0897C132.689 46.4497 132.316 46.5639 132.017 46.5639C131.613 46.5639 131.24 46.3839 131.231 45.9361H130.257C130.301 46.9238 131.144 47.2487 132.008 47.2487C132.873 47.2487 133.712 46.9326 133.712 45.9492C133.712 45.2556 133.128 45.0405 132.527 44.9044L132.531 44.9088Z" fill="white"/>
<path d="M134.296 46.3092C134.296 47.0511 134.844 47.196 135.472 47.196C135.674 47.196 135.898 47.1872 136.069 47.1609V46.3619C135.959 46.3838 135.858 46.3926 135.753 46.3926C135.406 46.3926 135.318 46.3048 135.318 45.958V44.1097H136.069V43.4249H135.318V42.3054H134.296V43.4249H133.677V44.1097H134.296V46.3092Z" fill="white"/>
<path d="M138.633 44.2942L139.603 46.9195C139.717 47.2136 139.511 47.6175 139.059 47.6483C139.041 47.6483 139.024 47.6483 139.006 47.6483V48.6141H139.116C139.731 48.5833 140.275 48.3858 140.56 47.6878L142.119 43.4206H141.056L140.24 45.9756H140.227L139.384 43.3811C139.384 43.3811 138.269 43.3591 138.26 43.3591C137.887 43.3591 137.465 43.6445 137.281 44.1142H137.268V43.4206H136.293V47.1522H137.316V45.4708C137.316 44.8122 137.575 44.2723 138.326 44.2723C138.405 44.2723 138.528 44.281 138.629 44.2942H138.633Z" fill="white"/>
<path d="M108.622 46.0151H110.554L110.945 47.1653H112.126L110.194 42.0025H109.031L107.073 47.1653H108.223L108.627 46.0151H108.622ZM109.593 43.2756H109.606L110.256 45.1722H108.917L109.588 43.2756H109.593Z" fill="white"/>
<path d="M113.166 45.2029C113.166 44.4434 113.403 44.1317 113.961 44.1317C114.439 44.1317 114.619 44.4347 114.619 45.0493V47.1609H115.647V44.8605C115.647 43.9342 115.37 43.3196 114.281 43.3196C113.847 43.3196 113.399 43.5215 113.14 43.943H113.118V43.4205H112.143V47.1609H113.171V45.1985L113.166 45.2029Z" fill="white"/>
</g>
<defs>
<clipPath id="clip0_15430_35431">
<rect width="44.4278" height="59.7316" fill="white" transform="translate(102.371 0.134182)"/>
</clipPath>
</defs>
</svg>
