<svg width="300" height="600" viewBox="0 0 300 600" fill="none" xmlns="http://www.w3.org/2000/svg">
<g clip-path="url(#clip0_8696_52592)">
<path d="M90.2563 119.625C92.263 119.625 93.6925 120.169 94.5454 121.256C95.415 122.343 95.8501 123.973 95.8501 126.147C95.8501 128.321 95.4321 129.96 94.5962 131.063C93.76 132.167 92.3133 132.72 90.2563 132.72C88.1994 132.72 86.7527 132.167 85.9165 131.063C85.0806 129.96 84.6626 128.321 84.6626 126.147C84.6626 123.973 85.089 122.343 85.9419 121.256C86.8115 120.169 88.2496 119.625 90.2563 119.625ZM100.673 126.474C100.673 127.979 100.798 128.99 101.049 129.509C101.3 130.027 101.886 130.286 102.805 130.286C103.708 130.286 104.536 130.119 105.289 129.784L105.666 129.634V119.901H108.375V132.443H105.666V131.666C104.445 132.368 103.316 132.72 102.279 132.72C100.556 132.72 99.4022 132.26 98.8169 131.34C98.2316 130.403 97.939 128.773 97.939 126.448V119.901H100.673V126.474ZM129.446 119.625C130.332 119.625 131.377 119.742 132.582 119.977L133.208 120.102L133.108 122.259C131.787 122.125 130.809 122.059 130.173 122.059C128.903 122.059 128.05 122.343 127.615 122.911C127.18 123.48 126.962 124.55 126.962 126.122C126.962 127.694 127.172 128.781 127.589 129.383C128.007 129.985 128.878 130.286 130.199 130.286L133.133 130.086L133.208 132.268C131.52 132.569 130.249 132.72 129.396 132.72C127.49 132.72 126.143 132.21 125.357 131.189C124.588 130.153 124.204 128.463 124.204 126.122C124.204 123.781 124.613 122.118 125.432 121.131C126.252 120.128 127.59 119.625 129.446 119.625ZM153.484 119.625C155.022 119.625 156.126 119.96 156.795 120.629C157.481 121.281 157.824 122.327 157.824 123.765V129.483C157.84 129.851 157.933 130.128 158.1 130.312C158.284 130.479 158.56 130.588 158.927 130.638L158.852 132.72C157.414 132.72 156.302 132.41 155.516 131.791C154.178 132.41 152.832 132.72 151.477 132.72C148.986 132.72 147.74 131.39 147.74 128.731C147.74 127.461 148.074 126.54 148.743 125.972C149.428 125.403 150.474 125.06 151.878 124.943L155.115 124.667V123.765C155.115 123.096 154.964 122.627 154.663 122.359C154.378 122.092 153.952 121.958 153.383 121.958C152.313 121.958 150.976 122.025 149.371 122.159L148.568 122.209L148.467 120.277C150.29 119.843 151.962 119.625 153.484 119.625ZM178.637 119.625C179.524 119.625 180.569 119.742 181.773 119.977L182.4 120.102L182.299 122.259C180.978 122.125 180 122.059 179.365 122.059C178.094 122.059 177.241 122.343 176.806 122.911C176.371 123.48 176.154 124.55 176.154 126.122C176.154 127.694 176.363 128.781 176.781 129.383C177.199 129.985 178.069 130.286 179.39 130.286L182.325 130.086L182.4 132.268C180.711 132.569 179.44 132.72 178.587 132.72C176.681 132.72 175.334 132.21 174.548 131.189C173.779 130.153 173.395 128.463 173.395 126.122C173.395 123.781 173.804 122.118 174.624 121.131C175.443 120.127 176.781 119.625 178.637 119.625ZM189.26 119.625C192.772 119.625 194.528 121.541 194.528 125.37L194.353 127.326H186.577C186.593 128.363 186.819 129.124 187.253 129.609C187.688 130.094 188.5 130.337 189.687 130.337C190.874 130.337 192.095 130.286 193.349 130.186L194.051 130.11L194.102 132.143C192.196 132.527 190.506 132.72 189.035 132.72C187.178 132.72 185.84 132.21 185.021 131.189C184.218 130.169 183.817 128.539 183.817 126.298C183.817 121.85 185.632 119.625 189.26 119.625ZM204.952 119.901H208.414V122.234H204.952V127.753C204.952 128.772 205.027 129.45 205.177 129.784C205.328 130.119 205.713 130.286 206.332 130.286L208.388 130.211L208.514 132.394C207.394 132.611 206.541 132.72 205.956 132.72C204.534 132.72 203.555 132.393 203.02 131.741C202.502 131.089 202.243 129.86 202.243 128.054V122.234H200.637V119.901H202.243V116.264H204.952V119.901ZM215.146 119.625C217.153 119.625 218.583 120.169 219.436 121.256C220.306 122.343 220.74 123.974 220.74 126.147C220.74 128.321 220.322 129.96 219.486 131.063C218.65 132.167 217.203 132.72 215.146 132.72C213.089 132.72 211.643 132.167 210.807 131.063C209.971 129.96 209.552 128.321 209.552 126.147C209.552 123.974 209.979 122.343 210.832 121.256C211.701 120.169 213.139 119.625 215.146 119.625ZM78.981 122.636L82.6431 115.261H85.7534L80.4106 125.37V132.443H77.6011V125.37L72.2075 115.261H75.3433L78.981 122.636ZM118.157 122.359C116.719 122.644 115.489 123.011 114.469 123.463L113.917 123.689V132.443H111.183V119.901H113.892V121.406C115.314 120.486 116.735 119.893 118.157 119.625V122.359ZM138.084 120.554C139.322 119.935 140.468 119.625 141.521 119.625C143.193 119.625 144.331 120.102 144.933 121.056C145.552 121.992 145.861 123.547 145.861 125.721V132.443H143.126V125.796C143.126 124.441 142.985 123.48 142.701 122.911C142.416 122.343 141.814 122.059 140.894 122.059C140.091 122.059 139.289 122.192 138.486 122.46L138.084 122.61V132.443H135.35V114.684H138.084V120.554ZM166.925 119.625C168.598 119.625 169.734 120.102 170.336 121.056C170.955 121.992 171.265 123.547 171.265 125.721V132.443H168.556V125.796C168.556 124.441 168.405 123.48 168.104 122.911C167.82 122.343 167.226 122.059 166.324 122.059C165.471 122.059 164.651 122.226 163.865 122.561L163.489 122.711V132.443H160.754V119.901H163.463V120.679C164.684 119.976 165.838 119.625 166.925 119.625ZM152.205 126.875C151.051 126.975 150.474 127.602 150.474 128.756C150.474 129.91 150.984 130.487 152.004 130.487C152.84 130.487 153.726 130.353 154.663 130.086L155.115 129.936V126.599L152.205 126.875ZM90.2563 121.934C89.1861 121.934 88.442 122.251 88.0239 122.887C87.6227 123.522 87.4214 124.601 87.4214 126.122C87.4214 127.644 87.614 128.739 87.9985 129.408C88.3832 130.077 89.1359 130.412 90.2563 130.412C91.3768 130.412 92.1295 130.077 92.5142 129.408C92.8987 128.739 93.0913 127.644 93.0913 126.122C93.0913 124.6 92.8814 123.522 92.4634 122.887C92.062 122.251 91.3266 121.934 90.2563 121.934ZM215.146 121.934C214.076 121.934 213.332 122.251 212.914 122.887C212.512 123.522 212.312 124.601 212.312 126.122C212.312 127.644 212.504 128.739 212.888 129.408C213.273 130.077 214.026 130.412 215.146 130.412C216.266 130.412 217.019 130.077 217.404 129.408C217.788 128.739 217.981 127.644 217.981 126.122C217.981 124.601 217.772 123.522 217.354 122.887C216.953 122.251 216.216 121.934 215.146 121.934ZM189.26 121.883C188.324 121.883 187.638 122.142 187.204 122.66C186.786 123.179 186.568 124.032 186.551 125.22H191.844C191.844 123.983 191.644 123.121 191.243 122.636C190.858 122.134 190.197 121.883 189.26 121.883Z" fill="white"/>
<path d="M38.5835 275.278H261.558V299.8H38.5835V275.278Z" fill="#FFE344"/>
<path d="M251.076 291.824H251.573L253.534 283.499H256.382L252.586 298.812H249.76L250.947 294.283H248.919L246.266 283.499H249.114L251.076 291.824ZM64.8401 279.357C66.1772 279.357 67.6222 279.509 69.175 279.811L69.9514 279.962L69.8655 282.27C68.1401 282.083 66.7236 281.989 65.6165 281.989C64.524 281.989 63.7546 282.118 63.3088 282.377C62.8631 282.636 62.5323 283.118 62.3167 283.822C62.1154 284.512 62.0139 285.706 62.0139 287.402C62.0139 289.084 62.223 290.264 62.6399 290.939C63.0568 291.615 63.9195 291.953 65.2278 291.953L67.0178 291.867V289.021H65.6809V286.432H69.9514V294.046C67.8953 294.377 66.2272 294.542 64.9475 294.542C62.6614 294.542 61.0866 293.93 60.2239 292.708C59.3757 291.486 58.9514 289.545 58.9514 286.885C58.9514 284.225 59.3978 282.305 60.2893 281.126C61.1808 279.947 62.6979 279.357 64.8401 279.357ZM87.1868 283.262C88.0351 283.262 89.1929 283.398 90.6594 283.671L91.3713 283.801L91.3284 286.195C89.5454 285.965 88.2944 285.85 87.5754 285.85C86.8709 285.85 86.4103 285.915 86.1946 286.044C85.9936 286.173 85.8929 286.382 85.8928 286.669C85.8928 286.942 86.0298 287.137 86.303 287.252C86.5907 287.353 87.3094 287.511 88.4592 287.727C89.6239 287.928 90.4508 288.266 90.9397 288.74C91.4286 289.215 91.6731 289.984 91.6731 291.048C91.673 293.377 90.2282 294.542 87.3381 294.542C86.3891 294.542 85.2386 294.412 83.887 294.153L83.1965 294.024L83.2834 291.608C85.0663 291.838 86.3032 291.953 86.9934 291.953C87.6974 291.953 88.1718 291.889 88.4163 291.76C88.6751 291.616 88.8049 291.407 88.8049 291.134C88.8049 290.861 88.6679 290.66 88.3948 290.53C88.1359 290.401 87.4459 290.243 86.3245 290.056C85.2173 289.869 84.3904 289.552 83.844 289.106C83.2977 288.661 83.0247 287.87 83.0247 286.734C83.0247 285.584 83.4123 284.721 84.1887 284.146C84.9651 283.556 85.9647 283.262 87.1868 283.262ZM102.294 279.357C103.631 279.357 105.076 279.509 106.629 279.811L107.406 279.962L107.32 282.27C105.594 282.083 104.178 281.989 103.071 281.989C101.978 281.989 101.208 282.118 100.762 282.377C100.316 282.636 99.9854 283.118 99.7698 283.822C99.5685 284.512 99.468 285.706 99.468 287.402C99.468 289.085 99.6771 290.264 100.094 290.939C100.511 291.615 101.373 291.953 102.682 291.953L104.472 291.867V289.021H103.135V286.432H107.406V294.046C105.349 294.377 103.681 294.542 102.402 294.542C100.115 294.542 98.5407 293.93 97.678 292.708C96.8298 291.486 96.4055 289.545 96.4055 286.885C96.4055 284.225 96.851 282.305 97.7424 281.126C98.6339 279.947 100.152 279.357 102.294 279.357ZM120.485 283.24C123.619 283.24 125.187 284.865 125.187 288.114L124.971 290.12H118.629C118.644 290.781 118.816 291.263 119.147 291.565C119.492 291.853 119.981 291.997 120.614 291.997C121.951 291.997 123.145 291.953 124.195 291.867L124.798 291.803L124.841 293.938C123.188 294.34 121.692 294.542 120.355 294.542C118.73 294.542 117.551 294.111 116.818 293.248C116.084 292.385 115.718 290.983 115.718 289.042C115.718 285.174 117.307 283.24 120.485 283.24ZM130.724 283.24C132.118 283.24 133.118 283.528 133.722 284.103C134.34 284.678 134.65 285.598 134.65 286.863V291.35C134.678 291.695 134.736 291.939 134.823 292.083C134.909 292.212 135.088 292.306 135.362 292.363L135.276 294.542C134.543 294.542 133.953 294.491 133.507 294.391C133.076 294.29 132.636 294.089 132.191 293.787C131.156 294.29 130.099 294.542 129.021 294.542C126.792 294.542 125.677 293.363 125.677 291.005C125.677 289.855 125.986 289.042 126.605 288.567C127.223 288.079 128.172 287.791 129.451 287.705L131.76 287.532V286.863C131.76 286.418 131.659 286.116 131.457 285.958C131.256 285.786 130.933 285.699 130.488 285.699L126.432 285.871L126.346 283.865C127.884 283.448 129.344 283.24 130.724 283.24ZM139.864 283.499H142.517V285.958H139.864V290.379C139.864 290.81 139.871 291.12 139.885 291.307C139.914 291.479 139.993 291.63 140.122 291.76C140.266 291.889 140.482 291.953 140.77 291.953L142.408 291.91L142.538 294.218C141.575 294.433 140.841 294.542 140.338 294.542C139.044 294.542 138.16 294.254 137.686 293.679C137.211 293.089 136.974 292.011 136.974 290.443V285.958H135.701V283.499H136.974V280.501H139.864V283.499ZM180.023 279.357C181.36 279.357 182.806 279.509 184.359 279.811L185.135 279.962L185.048 282.27C183.323 282.083 181.907 281.989 180.8 281.989C179.707 281.989 178.937 282.118 178.491 282.377C178.046 282.636 177.715 283.118 177.499 283.822C177.298 284.512 177.198 285.706 177.198 287.402C177.198 289.085 177.407 290.264 177.823 290.939C178.24 291.615 179.103 291.953 180.411 291.953L182.201 291.867V289.021H180.865V286.432H185.135V294.046C183.079 294.377 181.411 294.542 180.131 294.542C177.845 294.542 176.27 293.93 175.407 292.708C174.559 291.486 174.135 289.545 174.135 286.885C174.135 284.225 174.58 282.305 175.472 281.126C176.363 279.947 177.881 279.357 180.023 279.357ZM205.482 283.24C208.616 283.24 210.183 284.865 210.183 288.114L209.967 290.12H203.626C203.641 290.781 203.813 291.263 204.144 291.565C204.489 291.853 204.978 291.997 205.611 291.997C206.948 291.997 208.141 291.953 209.191 291.867L209.795 291.803L209.838 293.938C208.185 294.34 206.689 294.542 205.352 294.542C203.727 294.542 202.548 294.111 201.815 293.248C201.081 292.385 200.715 290.983 200.715 289.042C200.715 285.174 202.304 283.24 205.482 283.24ZM215.721 283.24C217.116 283.24 218.115 283.528 218.719 284.103C219.337 284.678 219.647 285.598 219.647 286.863V291.35C219.675 291.695 219.733 291.939 219.82 292.083C219.906 292.212 220.086 292.306 220.359 292.363L220.272 294.542C219.539 294.542 218.949 294.491 218.503 294.391C218.072 294.29 217.633 294.089 217.188 293.787C216.153 294.29 215.095 294.542 214.017 294.542C211.789 294.542 210.674 293.363 210.674 291.005C210.674 289.855 210.984 289.042 211.602 288.567C212.22 288.079 213.169 287.791 214.448 287.705L216.756 287.532V286.863C216.756 286.418 216.656 286.116 216.454 285.958C216.253 285.785 215.929 285.699 215.484 285.699L211.429 285.871L211.343 283.865C212.881 283.448 214.341 283.24 215.721 283.24ZM241.588 283.24C242.983 283.24 243.982 283.527 244.586 284.103C245.204 284.678 245.514 285.598 245.514 286.863V291.35C245.543 291.695 245.6 291.939 245.686 292.083C245.772 292.212 245.952 292.306 246.225 292.363L246.139 294.542C245.406 294.542 244.816 294.491 244.37 294.391C243.939 294.29 243.501 294.089 243.055 293.787C242.02 294.29 240.962 294.542 239.884 294.542C237.655 294.542 236.541 293.363 236.541 291.005C236.541 289.855 236.85 289.042 237.468 288.567C238.086 288.079 239.036 287.791 240.316 287.705L242.623 287.532V286.863C242.623 286.418 242.523 286.116 242.322 285.958C242.12 285.785 241.797 285.699 241.351 285.699L237.296 285.871L237.209 283.865C238.748 283.448 240.208 283.24 241.588 283.24ZM58.6975 294.283H55.7209L55.1389 291.63H50.0051L49.4231 294.283H46.4465L49.7463 279.616H55.3977L58.6975 294.283ZM74.8762 291.651H80.2463V294.283H71.8997V279.616H74.8762V291.651ZM115.414 286.151C114.25 286.396 113.25 286.647 112.416 286.906L111.985 287.058V294.283H109.095V283.499H111.963V284.642C113.171 283.923 114.322 283.456 115.414 283.24V286.151ZM157.161 282.205H150.648V285.634H155.867V288.179H150.648V291.694H157.161V294.283H147.671V279.616H157.161V282.205ZM163.172 291.694H164.143L166.688 279.616H169.816L166.407 294.283H160.907L157.5 279.616H160.627L163.172 291.694ZM189.714 294.283H186.824V283.499H189.714V294.283ZM195.253 291.824H195.858L197.669 283.499H200.603L198.014 294.283H193.097L190.508 283.499H193.528L195.253 291.824ZM224.798 291.824H225.316L226.954 283.715H229.931L231.571 291.824H232.088L233.404 283.499H236.25L234.201 294.283H229.672L228.443 287.683L227.213 294.283H222.684L220.635 283.499H223.483L224.798 291.824ZM129.797 289.711C128.992 289.783 128.589 290.214 128.589 291.005C128.589 291.795 128.941 292.19 129.646 292.19C130.192 292.19 130.789 292.104 131.436 291.932L131.76 291.846V289.538L129.797 289.711ZM214.794 289.711C213.989 289.783 213.586 290.214 213.586 291.005C213.586 291.796 213.938 292.19 214.643 292.19C215.189 292.19 215.786 292.104 216.433 291.932L216.756 291.846V289.538L214.794 289.711ZM240.66 289.711C239.855 289.783 239.452 290.214 239.452 291.005C239.452 291.796 239.806 292.19 240.51 292.19C241.056 292.19 241.653 292.104 242.3 291.932L242.623 291.846V289.538L240.66 289.711ZM50.5657 289.042H54.5774L53.0891 282.075H52.054L50.5657 289.042ZM120.485 285.612C119.809 285.612 119.327 285.792 119.039 286.151C118.766 286.496 118.622 287.086 118.608 287.92H122.339C122.339 287.057 122.203 286.461 121.93 286.13C121.657 285.785 121.175 285.612 120.485 285.612ZM205.482 285.612C204.806 285.612 204.324 285.792 204.036 286.151C203.763 286.496 203.619 287.086 203.605 287.92H207.336C207.336 287.057 207.199 286.461 206.926 286.13C206.653 285.785 206.171 285.612 205.482 285.612ZM81.0979 284.944H78.8772L79.8909 279.616H82.9319L81.0979 284.944ZM189.714 282.118H186.824V279.186H189.714V282.118Z" fill="#001CB0"/>
<path d="M53.7797 308.398V322.634H51.3855V311.116L48.0423 313.273L46.9423 311.483L51.5796 308.398H53.7797ZM62.6941 322.634V307.859H72.012V309.951H65.0883V314.136H70.7178V316.206H65.0883V320.52H72.012V322.634H62.6941ZM82.3594 307.859H84.8614L81.2378 322.634H76.5358L72.9122 307.859H75.4142L78.3476 320.52H79.426L82.3594 307.859ZM90.5875 327.271V311.849H92.917V312.518C93.9092 311.914 94.8366 311.612 95.6994 311.612C97.123 311.612 98.1655 312.051 98.8269 312.928C99.4884 313.79 99.8191 315.25 99.8191 317.306C99.8191 319.348 99.4381 320.786 98.6759 321.62C97.9282 322.454 96.6988 322.871 94.9876 322.871C94.3981 322.871 93.715 322.806 92.9386 322.677V327.271H90.5875ZM95.2896 313.704C94.6138 313.704 93.9379 313.855 93.2621 314.157L92.9386 314.308V320.671C93.5137 320.786 94.1464 320.844 94.8366 320.844C95.8144 320.844 96.4903 320.563 96.8641 320.002C97.238 319.442 97.4249 318.485 97.4249 317.134C97.4249 314.847 96.7132 313.704 95.2896 313.704ZM109.42 320.693L110.024 320.628L110.067 322.375C108.428 322.706 106.975 322.871 105.71 322.871C104.114 322.871 102.963 322.432 102.259 321.555C101.569 320.678 101.223 319.276 101.223 317.349C101.223 313.524 102.784 311.612 105.904 311.612C108.924 311.612 110.433 313.258 110.433 316.551L110.282 318.234H103.596C103.61 319.125 103.805 319.779 104.178 320.196C104.552 320.613 105.25 320.822 106.271 320.822C107.292 320.822 108.341 320.779 109.42 320.693ZM108.126 316.422C108.126 315.358 107.953 314.617 107.608 314.2C107.277 313.769 106.709 313.553 105.904 313.553C105.099 313.553 104.509 313.776 104.135 314.222C103.776 314.668 103.589 315.401 103.574 316.422H108.126ZM112.263 322.634V311.849H114.592V313.143C115.815 312.353 117.037 311.842 118.259 311.612V313.963C117.022 314.207 115.965 314.524 115.088 314.912L114.614 315.106V322.634H112.263ZM131.417 314.071C129.721 313.841 128.491 313.726 127.729 313.726C126.967 313.726 126.435 313.819 126.133 314.006C125.845 314.179 125.702 314.459 125.702 314.847C125.702 315.236 125.86 315.509 126.176 315.667C126.507 315.825 127.269 316.012 128.462 316.228C129.67 316.429 130.526 316.753 131.029 317.198C131.532 317.644 131.784 318.435 131.784 319.571C131.784 320.707 131.417 321.541 130.684 322.073C129.965 322.605 128.908 322.871 127.513 322.871C126.636 322.871 125.529 322.749 124.192 322.504L123.523 322.397L123.609 320.434C125.335 320.664 126.579 320.779 127.341 320.779C128.103 320.779 128.642 320.685 128.958 320.498C129.289 320.312 129.455 320.002 129.455 319.571C129.455 319.14 129.296 318.845 128.98 318.687C128.678 318.514 127.938 318.334 126.758 318.147C125.594 317.946 124.738 317.637 124.192 317.22C123.645 316.803 123.372 316.041 123.372 314.934C123.372 313.826 123.746 313 124.494 312.453C125.256 311.907 126.226 311.634 127.405 311.634C128.326 311.634 129.455 311.749 130.792 311.979L131.46 312.108L131.417 314.071ZM139.414 313.855H136.438V318.6C136.438 319.478 136.502 320.06 136.632 320.347C136.761 320.635 137.092 320.779 137.624 320.779L139.393 320.714L139.5 322.591C138.537 322.778 137.804 322.871 137.3 322.871C136.078 322.871 135.237 322.591 134.777 322.03C134.331 321.469 134.108 320.412 134.108 318.859V313.855H132.728V311.849H134.108V308.722H136.438V311.849H139.414V313.855ZM148.892 315.171V320.089C148.906 320.405 148.985 320.642 149.129 320.8C149.287 320.944 149.524 321.038 149.841 321.081L149.776 322.871C148.539 322.871 147.583 322.605 146.907 322.073C145.757 322.605 144.599 322.871 143.435 322.871C141.292 322.871 140.221 321.728 140.221 319.442C140.221 318.349 140.508 317.558 141.084 317.069C141.673 316.58 142.572 316.285 143.78 316.185L146.562 315.947V315.171C146.562 314.596 146.433 314.193 146.174 313.963C145.929 313.733 145.563 313.618 145.074 313.618C144.154 313.618 143.003 313.675 141.623 313.79L140.933 313.834L140.846 312.173C142.414 311.799 143.852 311.612 145.16 311.612C146.483 311.612 147.432 311.9 148.007 312.475C148.597 313.036 148.892 313.934 148.892 315.171ZM144.06 317.845C143.068 317.932 142.572 318.471 142.572 319.463C142.572 320.455 143.01 320.951 143.887 320.951C144.606 320.951 145.369 320.836 146.174 320.606L146.562 320.477V317.608L144.06 317.845ZM157.214 313.855H154.237V318.6C154.237 319.478 154.302 320.06 154.431 320.347C154.561 320.635 154.891 320.779 155.423 320.779L157.192 320.714L157.3 322.591C156.337 322.778 155.603 322.871 155.1 322.871C153.878 322.871 153.036 322.591 152.576 322.03C152.131 321.469 151.908 320.412 151.908 318.859V313.855H150.527V311.849H151.908V308.722H154.237V311.849H157.214V313.855ZM166.389 320.693L166.993 320.628L167.036 322.375C165.397 322.706 163.945 322.871 162.679 322.871C161.083 322.871 159.933 322.432 159.228 321.555C158.538 320.678 158.193 319.276 158.193 317.349C158.193 313.524 159.753 311.612 162.873 311.612C165.893 311.612 167.403 313.258 167.403 316.551L167.252 318.234H160.565C160.58 319.125 160.774 319.779 161.148 320.196C161.522 320.613 162.219 320.822 163.24 320.822C164.261 320.822 165.311 320.779 166.389 320.693ZM165.095 316.422C165.095 315.358 164.922 314.617 164.577 314.2C164.247 313.769 163.679 313.553 162.873 313.553C162.068 313.553 161.479 313.776 161.105 314.222C160.745 314.668 160.558 315.401 160.544 316.422H165.095ZM182.34 307.363V322.634H180.011V322.073C178.961 322.605 177.998 322.871 177.121 322.871C175.711 322.871 174.676 322.447 174.015 321.598C173.368 320.75 173.044 319.327 173.044 317.328C173.044 315.329 173.404 313.877 174.122 312.971C174.856 312.065 175.992 311.612 177.53 311.612C178.048 311.612 178.868 311.705 179.989 311.892V307.363H182.34ZM179.623 320.391L179.989 320.24V313.855C179.127 313.711 178.328 313.639 177.595 313.639C176.143 313.639 175.417 314.847 175.417 317.263C175.417 318.586 175.582 319.506 175.913 320.024C176.258 320.527 176.797 320.779 177.53 320.779C178.264 320.779 178.961 320.649 179.623 320.391ZM184.757 322.634V311.849H187.086V313.143C188.309 312.353 189.531 311.842 190.753 311.612V313.963C189.516 314.207 188.46 314.524 187.582 314.912L187.108 315.106V322.634H184.757ZM200.1 315.171V320.089C200.114 320.405 200.193 320.642 200.337 320.8C200.495 320.944 200.732 321.038 201.049 321.081L200.984 322.871C199.747 322.871 198.791 322.605 198.115 322.073C196.965 322.605 195.807 322.871 194.643 322.871C192.5 322.871 191.429 321.728 191.429 319.442C191.429 318.349 191.716 317.558 192.292 317.069C192.881 316.58 193.78 316.285 194.988 316.185L197.77 315.947V315.171C197.77 314.596 197.641 314.193 197.382 313.963C197.137 313.733 196.771 313.618 196.282 313.618C195.362 313.618 194.211 313.675 192.831 313.79L192.141 313.834L192.054 312.173C193.622 311.799 195.06 311.612 196.368 311.612C197.691 311.612 198.64 311.9 199.215 312.475C199.805 313.036 200.1 313.934 200.1 315.171ZM195.268 317.845C194.276 317.932 193.78 318.471 193.78 319.463C193.78 320.455 194.218 320.951 195.096 320.951C195.815 320.951 196.577 320.836 197.382 320.606L197.77 320.477V317.608L195.268 317.845ZM201.715 311.849H204.023L205.727 320.628H206.159L208.208 312.065H210.623L212.672 320.628H213.104L214.786 311.849H217.116L214.829 322.634H211.098L209.415 315.236L207.733 322.634H204.002L201.715 311.849Z" fill="white"/>
</g>
<defs>
<clipPath id="clip0_8696_52592">
<rect width="300" height="509" fill="white"/>
</clipPath>
</defs>
</svg>
